M48
METRIC,TZ
T1C0.300
T2C0.400
T3C0.500
T4C1.000
%
G90
G05
T1
X42535Y-70004
X61628Y-39512
X61686Y-107829
X49776Y-96675
X49776Y-58543
X66017Y-35730
X61628Y-115776
X61686Y-88763
X56358Y-90421
X66017Y-92928
X49776Y-39477
X42535Y-50938
X57915Y-68371
X66017Y-54796
X49776Y-77609
X56358Y-109487
X61686Y-31565
X56358Y-71355
X66017Y-111994
X61628Y-96710
X42535Y-31872
X57915Y-30239
X57915Y-49305
X56358Y-52289
X61686Y-69697
X61686Y-50631
X61628Y-58578
X49776Y-115741
X42535Y-89070
X57915Y-87437
X56358Y-33223
X66017Y-73862
X42535Y-108136
X57915Y-106503
X61628Y-77644
T2
X50848Y-33167
X50848Y-52233
X50848Y-71299
X50848Y-90365
X50848Y-109431
X56599Y-38923
X56599Y-57989
X56599Y-77055
X56599Y-96121
X56599Y-115187
T3
X66322Y-38421
X68248Y-39621
X68897Y-38421
X69647Y-39621
X70397Y-38421
X71048Y-39621
X72972Y-38371
X66322Y-57487
X68248Y-58687
X68897Y-57487
X69647Y-58687
X70397Y-57487
X71048Y-58687
X72972Y-57437
X66322Y-114685
X68248Y-115885
X68897Y-114685
X69647Y-115885
X70397Y-114685
X71048Y-115885
X72972Y-114635
X66322Y-76553
X68248Y-77753
X68897Y-76553
X69647Y-77753
X70397Y-76553
X71048Y-77753
X72972Y-76503
X66322Y-95619
X68248Y-96819
X68897Y-95619
X69647Y-96819
X70397Y-95619
X71048Y-96819
X72972Y-95569
T4
X39172Y-85043
X39957Y-87459
X40742Y-89874
X41527Y-92290
X46164Y-27432
X48704Y-27432
X51244Y-27432
X53784Y-27432
X56324Y-27432
X58864Y-27432
X39172Y-68517
X39957Y-70933
X40742Y-73348
X41527Y-75764
X46164Y-103696
X48704Y-103696
X51244Y-103696
X53784Y-103696
X56324Y-103696
X58864Y-103696
X46164Y-65564
X48704Y-65564
X51244Y-65564
X53784Y-65564
X56324Y-65564
X58864Y-65564
X46164Y-46498
X48704Y-46498
X51244Y-46498
X53784Y-46498
X56324Y-46498
X58864Y-46498
X39172Y-30385
X39957Y-32801
X40742Y-35216
X41527Y-37632
X39172Y-49451
X39957Y-51867
X40742Y-54282
X41527Y-56698
X46164Y-84630
X48704Y-84630
X51244Y-84630
X53784Y-84630
X56324Y-84630
X58864Y-84630
X39172Y-104109
X39957Y-106525
X40742Y-108940
X41527Y-111356
T0
M30
