G04 #@! TF.GenerationSoftware,KiCad,Pcbnew,5.0.0-fee4fd1~66~ubuntu16.04.1*
G04 #@! TF.CreationDate,2018-10-22T20:20:06+02:00*
G04 #@! TF.ProjectId,WiRoc_NanoPi_SideOledPCB_v1_Panelized,5769526F635F4E616E6F50695F536964,rev?*
G04 #@! TF.SameCoordinates,Original*
G04 #@! TF.FileFunction,Legend,Top*
G04 #@! TF.FilePolarity,Positive*
%FSLAX46Y46*%
G04 Gerber Fmt 4.6, Leading zero omitted, Abs format (unit mm)*
G04 Created by KiCad (PCBNEW 5.0.0-fee4fd1~66~ubuntu16.04.1) date Mon Oct 22 20:20:06 2018*
%MOMM*%
%LPD*%
G01*
G04 APERTURE LIST*
%ADD10C,0.120000*%
%ADD11C,0.100000*%
%ADD12C,0.150000*%
G04 APERTURE END LIST*
D10*
G04 #@! TO.C,J3*
X60194000Y-102366000D02*
X60194000Y-103696000D01*
X58864000Y-102366000D02*
X60194000Y-102366000D01*
X57594000Y-105026000D02*
X57594000Y-102366000D01*
X44834000Y-105026000D02*
X57594000Y-105026000D01*
X44834000Y-102366000D02*
X44834000Y-105026000D01*
X57594000Y-102366000D02*
X44834000Y-102366000D01*
X60194000Y-83300000D02*
X60194000Y-84630000D01*
X58864000Y-83300000D02*
X60194000Y-83300000D01*
X57594000Y-85960000D02*
X57594000Y-83300000D01*
X44834000Y-85960000D02*
X57594000Y-85960000D01*
X44834000Y-83300000D02*
X44834000Y-85960000D01*
X57594000Y-83300000D02*
X44834000Y-83300000D01*
X60194000Y-64234000D02*
X60194000Y-65564000D01*
X58864000Y-64234000D02*
X60194000Y-64234000D01*
X57594000Y-66894000D02*
X57594000Y-64234000D01*
X44834000Y-66894000D02*
X57594000Y-66894000D01*
X44834000Y-64234000D02*
X44834000Y-66894000D01*
X57594000Y-64234000D02*
X44834000Y-64234000D01*
X60194000Y-45168000D02*
X60194000Y-46498000D01*
X58864000Y-45168000D02*
X60194000Y-45168000D01*
X57594000Y-47828000D02*
X57594000Y-45168000D01*
X44834000Y-47828000D02*
X57594000Y-47828000D01*
X44834000Y-45168000D02*
X44834000Y-47828000D01*
X57594000Y-45168000D02*
X44834000Y-45168000D01*
G04 #@! TO.C,J2*
X43127293Y-112171390D02*
X41919452Y-112563842D01*
X42734842Y-110963548D02*
X43127293Y-112171390D01*
X38062980Y-104069831D02*
X37685343Y-104192532D01*
X38297833Y-104792635D02*
X37920196Y-104915335D01*
X29449193Y-106868620D02*
X35155532Y-105014518D01*
X29684046Y-107591422D02*
X29449193Y-106868620D01*
X35390385Y-105737320D02*
X29684046Y-107591422D01*
X38195221Y-105761776D02*
X35665410Y-106583761D01*
X38847883Y-106485514D02*
X38470246Y-106608216D01*
X39082736Y-107208317D02*
X38705099Y-107331019D01*
X30234096Y-109284303D02*
X35940435Y-107430201D01*
X30468949Y-110007106D02*
X30234096Y-109284303D01*
X36175288Y-108153004D02*
X30468949Y-110007106D01*
X38980124Y-108177459D02*
X36450314Y-108999444D01*
X39632786Y-108901198D02*
X39255149Y-109023899D01*
X39867639Y-109624001D02*
X39490002Y-109746702D01*
X31019000Y-111699988D02*
X36725339Y-109845885D01*
X31253852Y-112422790D02*
X31019000Y-111699988D01*
X36960192Y-110568689D02*
X31253852Y-112422790D01*
X39765027Y-110593143D02*
X37235217Y-111415128D01*
X40353901Y-111337607D02*
X40040052Y-111439583D01*
X40588754Y-112060410D02*
X40274905Y-112162386D01*
X37541144Y-112356674D02*
X31834804Y-114210776D01*
X37578226Y-112470801D02*
X31871886Y-114324903D01*
X37615309Y-112584927D02*
X31908969Y-114439029D01*
X37652390Y-112699054D02*
X31946051Y-114553156D01*
X37689472Y-112813181D02*
X31983133Y-114667283D01*
X37726554Y-112927308D02*
X32020215Y-114781410D01*
X31803903Y-114115670D02*
X37510242Y-112261568D01*
X32038756Y-114838473D02*
X31803903Y-114115670D01*
X37745095Y-112984371D02*
X32038756Y-114838473D01*
X38038661Y-113887875D02*
X40568471Y-113065890D01*
X34861966Y-104111014D02*
X38038661Y-113887875D01*
X37391777Y-103289029D02*
X34861966Y-104111014D01*
X40568471Y-113065890D02*
X37391777Y-103289029D01*
X43127293Y-93105390D02*
X41919452Y-93497842D01*
X42734842Y-91897548D02*
X43127293Y-93105390D01*
X38062980Y-85003831D02*
X37685343Y-85126532D01*
X38297833Y-85726635D02*
X37920196Y-85849335D01*
X29449193Y-87802620D02*
X35155532Y-85948518D01*
X29684046Y-88525422D02*
X29449193Y-87802620D01*
X35390385Y-86671320D02*
X29684046Y-88525422D01*
X38195221Y-86695776D02*
X35665410Y-87517761D01*
X38847883Y-87419514D02*
X38470246Y-87542216D01*
X39082736Y-88142317D02*
X38705099Y-88265019D01*
X30234096Y-90218303D02*
X35940435Y-88364201D01*
X30468949Y-90941106D02*
X30234096Y-90218303D01*
X36175288Y-89087004D02*
X30468949Y-90941106D01*
X38980124Y-89111459D02*
X36450314Y-89933444D01*
X39632786Y-89835198D02*
X39255149Y-89957899D01*
X39867639Y-90558001D02*
X39490002Y-90680702D01*
X31019000Y-92633988D02*
X36725339Y-90779885D01*
X31253852Y-93356790D02*
X31019000Y-92633988D01*
X36960192Y-91502689D02*
X31253852Y-93356790D01*
X39765027Y-91527143D02*
X37235217Y-92349128D01*
X40353901Y-92271607D02*
X40040052Y-92373583D01*
X40588754Y-92994410D02*
X40274905Y-93096386D01*
X37541144Y-93290674D02*
X31834804Y-95144776D01*
X37578226Y-93404801D02*
X31871886Y-95258903D01*
X37615309Y-93518927D02*
X31908969Y-95373029D01*
X37652390Y-93633054D02*
X31946051Y-95487156D01*
X37689472Y-93747181D02*
X31983133Y-95601283D01*
X37726554Y-93861308D02*
X32020215Y-95715410D01*
X31803903Y-95049670D02*
X37510242Y-93195568D01*
X32038756Y-95772473D02*
X31803903Y-95049670D01*
X37745095Y-93918371D02*
X32038756Y-95772473D01*
X38038661Y-94821875D02*
X40568471Y-93999890D01*
X34861966Y-85045014D02*
X38038661Y-94821875D01*
X37391777Y-84223029D02*
X34861966Y-85045014D01*
X40568471Y-93999890D02*
X37391777Y-84223029D01*
X43127293Y-76579390D02*
X41919452Y-76971842D01*
X42734842Y-75371548D02*
X43127293Y-76579390D01*
X38062980Y-68477831D02*
X37685343Y-68600532D01*
X38297833Y-69200635D02*
X37920196Y-69323335D01*
X29449193Y-71276620D02*
X35155532Y-69422518D01*
X29684046Y-71999422D02*
X29449193Y-71276620D01*
X35390385Y-70145320D02*
X29684046Y-71999422D01*
X38195221Y-70169776D02*
X35665410Y-70991761D01*
X38847883Y-70893514D02*
X38470246Y-71016216D01*
X39082736Y-71616317D02*
X38705099Y-71739019D01*
X30234096Y-73692303D02*
X35940435Y-71838201D01*
X30468949Y-74415106D02*
X30234096Y-73692303D01*
X36175288Y-72561004D02*
X30468949Y-74415106D01*
X38980124Y-72585459D02*
X36450314Y-73407444D01*
X39632786Y-73309198D02*
X39255149Y-73431899D01*
X39867639Y-74032001D02*
X39490002Y-74154702D01*
X31019000Y-76107988D02*
X36725339Y-74253885D01*
X31253852Y-76830790D02*
X31019000Y-76107988D01*
X36960192Y-74976689D02*
X31253852Y-76830790D01*
X39765027Y-75001143D02*
X37235217Y-75823128D01*
X40353901Y-75745607D02*
X40040052Y-75847583D01*
X40588754Y-76468410D02*
X40274905Y-76570386D01*
X37541144Y-76764674D02*
X31834804Y-78618776D01*
X37578226Y-76878801D02*
X31871886Y-78732903D01*
X37615309Y-76992927D02*
X31908969Y-78847029D01*
X37652390Y-77107054D02*
X31946051Y-78961156D01*
X37689472Y-77221181D02*
X31983133Y-79075283D01*
X37726554Y-77335308D02*
X32020215Y-79189410D01*
X31803903Y-78523670D02*
X37510242Y-76669568D01*
X32038756Y-79246473D02*
X31803903Y-78523670D01*
X37745095Y-77392371D02*
X32038756Y-79246473D01*
X38038661Y-78295875D02*
X40568471Y-77473890D01*
X34861966Y-68519014D02*
X38038661Y-78295875D01*
X37391777Y-67697029D02*
X34861966Y-68519014D01*
X40568471Y-77473890D02*
X37391777Y-67697029D01*
X43127293Y-57513390D02*
X41919452Y-57905842D01*
X42734842Y-56305548D02*
X43127293Y-57513390D01*
X38062980Y-49411831D02*
X37685343Y-49534532D01*
X38297833Y-50134635D02*
X37920196Y-50257335D01*
X29449193Y-52210620D02*
X35155532Y-50356518D01*
X29684046Y-52933422D02*
X29449193Y-52210620D01*
X35390385Y-51079320D02*
X29684046Y-52933422D01*
X38195221Y-51103776D02*
X35665410Y-51925761D01*
X38847883Y-51827514D02*
X38470246Y-51950216D01*
X39082736Y-52550317D02*
X38705099Y-52673019D01*
X30234096Y-54626303D02*
X35940435Y-52772201D01*
X30468949Y-55349106D02*
X30234096Y-54626303D01*
X36175288Y-53495004D02*
X30468949Y-55349106D01*
X38980124Y-53519459D02*
X36450314Y-54341444D01*
X39632786Y-54243198D02*
X39255149Y-54365899D01*
X39867639Y-54966001D02*
X39490002Y-55088702D01*
X31019000Y-57041988D02*
X36725339Y-55187885D01*
X31253852Y-57764790D02*
X31019000Y-57041988D01*
X36960192Y-55910689D02*
X31253852Y-57764790D01*
X39765027Y-55935143D02*
X37235217Y-56757128D01*
X40353901Y-56679607D02*
X40040052Y-56781583D01*
X40588754Y-57402410D02*
X40274905Y-57504386D01*
X37541144Y-57698674D02*
X31834804Y-59552776D01*
X37578226Y-57812801D02*
X31871886Y-59666903D01*
X37615309Y-57926927D02*
X31908969Y-59781029D01*
X37652390Y-58041054D02*
X31946051Y-59895156D01*
X37689472Y-58155181D02*
X31983133Y-60009283D01*
X37726554Y-58269308D02*
X32020215Y-60123410D01*
X31803903Y-59457670D02*
X37510242Y-57603568D01*
X32038756Y-60180473D02*
X31803903Y-59457670D01*
X37745095Y-58326371D02*
X32038756Y-60180473D01*
X38038661Y-59229875D02*
X40568471Y-58407890D01*
X34861966Y-49453014D02*
X38038661Y-59229875D01*
X37391777Y-48631029D02*
X34861966Y-49453014D01*
X40568471Y-58407890D02*
X37391777Y-48631029D01*
X40568471Y-39341890D02*
X37391777Y-29565029D01*
X37391777Y-29565029D02*
X34861966Y-30387014D01*
X34861966Y-30387014D02*
X38038661Y-40163875D01*
X38038661Y-40163875D02*
X40568471Y-39341890D01*
X37745095Y-39260371D02*
X32038756Y-41114473D01*
X32038756Y-41114473D02*
X31803903Y-40391670D01*
X31803903Y-40391670D02*
X37510242Y-38537568D01*
X37726554Y-39203308D02*
X32020215Y-41057410D01*
X37689472Y-39089181D02*
X31983133Y-40943283D01*
X37652390Y-38975054D02*
X31946051Y-40829156D01*
X37615308Y-38860927D02*
X31908969Y-40715029D01*
X37578226Y-38746801D02*
X31871886Y-40600903D01*
X37541144Y-38632674D02*
X31834804Y-40486776D01*
X40588754Y-38336410D02*
X40274905Y-38438386D01*
X40353901Y-37613607D02*
X40040052Y-37715583D01*
X39765027Y-36869143D02*
X37235217Y-37691128D01*
X36960192Y-36844688D02*
X31253852Y-38698790D01*
X31253852Y-38698790D02*
X31019000Y-37975987D01*
X31019000Y-37975987D02*
X36725339Y-36121885D01*
X39867639Y-35900001D02*
X39490002Y-36022702D01*
X39632786Y-35177198D02*
X39255149Y-35299899D01*
X38980124Y-34453459D02*
X36450314Y-35275444D01*
X36175288Y-34429004D02*
X30468949Y-36283106D01*
X30468949Y-36283106D02*
X30234096Y-35560303D01*
X30234096Y-35560303D02*
X35940435Y-33706201D01*
X39082736Y-33484317D02*
X38705099Y-33607019D01*
X38847883Y-32761514D02*
X38470246Y-32884216D01*
X38195221Y-32037776D02*
X35665410Y-32859761D01*
X35390385Y-32013320D02*
X29684046Y-33867422D01*
X29684046Y-33867422D02*
X29449193Y-33144620D01*
X29449193Y-33144620D02*
X35155532Y-31290518D01*
X38297833Y-31068634D02*
X37920196Y-31191335D01*
X38062980Y-30345831D02*
X37685343Y-30468532D01*
X42734842Y-37239548D02*
X43127293Y-38447390D01*
X43127293Y-38447390D02*
X41919452Y-38839842D01*
G04 #@! TO.C,J3*
X57594000Y-26102000D02*
X44834000Y-26102000D01*
X44834000Y-26102000D02*
X44834000Y-28762000D01*
X44834000Y-28762000D02*
X57594000Y-28762000D01*
X57594000Y-28762000D02*
X57594000Y-26102000D01*
X58864000Y-26102000D02*
X60194000Y-26102000D01*
X60194000Y-26102000D02*
X60194000Y-27432000D01*
D11*
G04 #@! TO.C,mouse-bite-2.54mm-slot*
X47670000Y-41430000D02*
G75*
G02X47670000Y-43970000I0J-1270000D01*
G01*
X52330000Y-41430000D02*
G75*
G03X52330000Y-43970000I0J-1270000D01*
G01*
X47670000Y-60496000D02*
G75*
G02X47670000Y-63036000I0J-1270000D01*
G01*
X52330000Y-60496000D02*
G75*
G03X52330000Y-63036000I0J-1270000D01*
G01*
X47670000Y-79562000D02*
G75*
G02X47670000Y-82102000I0J-1270000D01*
G01*
X52330000Y-79562000D02*
G75*
G03X52330000Y-82102000I0J-1270000D01*
G01*
X47670000Y-98628000D02*
G75*
G02X47670000Y-101168000I0J-1270000D01*
G01*
X52330000Y-98628000D02*
G75*
G03X52330000Y-101168000I0J-1270000D01*
G01*
G04 #@! TO.C,FID1*
D12*
X45748391Y-116159471D02*
X45415058Y-116159471D01*
X45415058Y-116683280D02*
X45415058Y-115683280D01*
X45891248Y-115683280D01*
X46272200Y-116683280D02*
X46272200Y-115683280D01*
X46748391Y-116683280D02*
X46748391Y-115683280D01*
X46986486Y-115683280D01*
X47129343Y-115730900D01*
X47224581Y-115826138D01*
X47272200Y-115921376D01*
X47319820Y-116111852D01*
X47319820Y-116254709D01*
X47272200Y-116445185D01*
X47224581Y-116540423D01*
X47129343Y-116635661D01*
X46986486Y-116683280D01*
X46748391Y-116683280D01*
X48272200Y-116683280D02*
X47700772Y-116683280D01*
X47986486Y-116683280D02*
X47986486Y-115683280D01*
X47891248Y-115826138D01*
X47796010Y-115921376D01*
X47700772Y-115968995D01*
X45748391Y-97093471D02*
X45415058Y-97093471D01*
X45415058Y-97617280D02*
X45415058Y-96617280D01*
X45891248Y-96617280D01*
X46272200Y-97617280D02*
X46272200Y-96617280D01*
X46748391Y-97617280D02*
X46748391Y-96617280D01*
X46986486Y-96617280D01*
X47129343Y-96664900D01*
X47224581Y-96760138D01*
X47272200Y-96855376D01*
X47319820Y-97045852D01*
X47319820Y-97188709D01*
X47272200Y-97379185D01*
X47224581Y-97474423D01*
X47129343Y-97569661D01*
X46986486Y-97617280D01*
X46748391Y-97617280D01*
X48272200Y-97617280D02*
X47700772Y-97617280D01*
X47986486Y-97617280D02*
X47986486Y-96617280D01*
X47891248Y-96760138D01*
X47796010Y-96855376D01*
X47700772Y-96902995D01*
X45748391Y-78027471D02*
X45415058Y-78027471D01*
X45415058Y-78551280D02*
X45415058Y-77551280D01*
X45891248Y-77551280D01*
X46272200Y-78551280D02*
X46272200Y-77551280D01*
X46748391Y-78551280D02*
X46748391Y-77551280D01*
X46986486Y-77551280D01*
X47129343Y-77598900D01*
X47224581Y-77694138D01*
X47272200Y-77789376D01*
X47319820Y-77979852D01*
X47319820Y-78122709D01*
X47272200Y-78313185D01*
X47224581Y-78408423D01*
X47129343Y-78503661D01*
X46986486Y-78551280D01*
X46748391Y-78551280D01*
X48272200Y-78551280D02*
X47700772Y-78551280D01*
X47986486Y-78551280D02*
X47986486Y-77551280D01*
X47891248Y-77694138D01*
X47796010Y-77789376D01*
X47700772Y-77836995D01*
X45748391Y-58961471D02*
X45415058Y-58961471D01*
X45415058Y-59485280D02*
X45415058Y-58485280D01*
X45891248Y-58485280D01*
X46272200Y-59485280D02*
X46272200Y-58485280D01*
X46748391Y-59485280D02*
X46748391Y-58485280D01*
X46986486Y-58485280D01*
X47129343Y-58532900D01*
X47224581Y-58628138D01*
X47272200Y-58723376D01*
X47319820Y-58913852D01*
X47319820Y-59056709D01*
X47272200Y-59247185D01*
X47224581Y-59342423D01*
X47129343Y-59437661D01*
X46986486Y-59485280D01*
X46748391Y-59485280D01*
X48272200Y-59485280D02*
X47700772Y-59485280D01*
X47986486Y-59485280D02*
X47986486Y-58485280D01*
X47891248Y-58628138D01*
X47796010Y-58723376D01*
X47700772Y-58770995D01*
G04 #@! TO.C,J3*
X60646380Y-104029333D02*
X61360666Y-104029333D01*
X61503523Y-104076952D01*
X61598761Y-104172190D01*
X61646380Y-104315047D01*
X61646380Y-104410285D01*
X60646380Y-103648380D02*
X60646380Y-103029333D01*
X61027333Y-103362666D01*
X61027333Y-103219809D01*
X61074952Y-103124571D01*
X61122571Y-103076952D01*
X61217809Y-103029333D01*
X61455904Y-103029333D01*
X61551142Y-103076952D01*
X61598761Y-103124571D01*
X61646380Y-103219809D01*
X61646380Y-103505523D01*
X61598761Y-103600761D01*
X61551142Y-103648380D01*
X60646380Y-84963333D02*
X61360666Y-84963333D01*
X61503523Y-85010952D01*
X61598761Y-85106190D01*
X61646380Y-85249047D01*
X61646380Y-85344285D01*
X60646380Y-84582380D02*
X60646380Y-83963333D01*
X61027333Y-84296666D01*
X61027333Y-84153809D01*
X61074952Y-84058571D01*
X61122571Y-84010952D01*
X61217809Y-83963333D01*
X61455904Y-83963333D01*
X61551142Y-84010952D01*
X61598761Y-84058571D01*
X61646380Y-84153809D01*
X61646380Y-84439523D01*
X61598761Y-84534761D01*
X61551142Y-84582380D01*
X60646380Y-65897333D02*
X61360666Y-65897333D01*
X61503523Y-65944952D01*
X61598761Y-66040190D01*
X61646380Y-66183047D01*
X61646380Y-66278285D01*
X60646380Y-65516380D02*
X60646380Y-64897333D01*
X61027333Y-65230666D01*
X61027333Y-65087809D01*
X61074952Y-64992571D01*
X61122571Y-64944952D01*
X61217809Y-64897333D01*
X61455904Y-64897333D01*
X61551142Y-64944952D01*
X61598761Y-64992571D01*
X61646380Y-65087809D01*
X61646380Y-65373523D01*
X61598761Y-65468761D01*
X61551142Y-65516380D01*
X60646380Y-46831333D02*
X61360666Y-46831333D01*
X61503523Y-46878952D01*
X61598761Y-46974190D01*
X61646380Y-47117047D01*
X61646380Y-47212285D01*
X60646380Y-46450380D02*
X60646380Y-45831333D01*
X61027333Y-46164666D01*
X61027333Y-46021809D01*
X61074952Y-45926571D01*
X61122571Y-45878952D01*
X61217809Y-45831333D01*
X61455904Y-45831333D01*
X61551142Y-45878952D01*
X61598761Y-45926571D01*
X61646380Y-46021809D01*
X61646380Y-46307523D01*
X61598761Y-46402761D01*
X61551142Y-46450380D01*
G04 #@! TO.C,FID2*
X70640391Y-114861531D02*
X70307058Y-114861531D01*
X70307058Y-115385340D02*
X70307058Y-114385340D01*
X70783248Y-114385340D01*
X71164200Y-115385340D02*
X71164200Y-114385340D01*
X71640391Y-115385340D02*
X71640391Y-114385340D01*
X71878486Y-114385340D01*
X72021343Y-114432960D01*
X72116581Y-114528198D01*
X72164200Y-114623436D01*
X72211820Y-114813912D01*
X72211820Y-114956769D01*
X72164200Y-115147245D01*
X72116581Y-115242483D01*
X72021343Y-115337721D01*
X71878486Y-115385340D01*
X71640391Y-115385340D01*
X72592772Y-114480579D02*
X72640391Y-114432960D01*
X72735629Y-114385340D01*
X72973724Y-114385340D01*
X73068962Y-114432960D01*
X73116581Y-114480579D01*
X73164200Y-114575817D01*
X73164200Y-114671055D01*
X73116581Y-114813912D01*
X72545153Y-115385340D01*
X73164200Y-115385340D01*
X70640391Y-95795531D02*
X70307058Y-95795531D01*
X70307058Y-96319340D02*
X70307058Y-95319340D01*
X70783248Y-95319340D01*
X71164200Y-96319340D02*
X71164200Y-95319340D01*
X71640391Y-96319340D02*
X71640391Y-95319340D01*
X71878486Y-95319340D01*
X72021343Y-95366960D01*
X72116581Y-95462198D01*
X72164200Y-95557436D01*
X72211820Y-95747912D01*
X72211820Y-95890769D01*
X72164200Y-96081245D01*
X72116581Y-96176483D01*
X72021343Y-96271721D01*
X71878486Y-96319340D01*
X71640391Y-96319340D01*
X72592772Y-95414579D02*
X72640391Y-95366960D01*
X72735629Y-95319340D01*
X72973724Y-95319340D01*
X73068962Y-95366960D01*
X73116581Y-95414579D01*
X73164200Y-95509817D01*
X73164200Y-95605055D01*
X73116581Y-95747912D01*
X72545153Y-96319340D01*
X73164200Y-96319340D01*
X70640391Y-76729531D02*
X70307058Y-76729531D01*
X70307058Y-77253340D02*
X70307058Y-76253340D01*
X70783248Y-76253340D01*
X71164200Y-77253340D02*
X71164200Y-76253340D01*
X71640391Y-77253340D02*
X71640391Y-76253340D01*
X71878486Y-76253340D01*
X72021343Y-76300960D01*
X72116581Y-76396198D01*
X72164200Y-76491436D01*
X72211820Y-76681912D01*
X72211820Y-76824769D01*
X72164200Y-77015245D01*
X72116581Y-77110483D01*
X72021343Y-77205721D01*
X71878486Y-77253340D01*
X71640391Y-77253340D01*
X72592772Y-76348579D02*
X72640391Y-76300960D01*
X72735629Y-76253340D01*
X72973724Y-76253340D01*
X73068962Y-76300960D01*
X73116581Y-76348579D01*
X73164200Y-76443817D01*
X73164200Y-76539055D01*
X73116581Y-76681912D01*
X72545153Y-77253340D01*
X73164200Y-77253340D01*
X70640391Y-57663531D02*
X70307058Y-57663531D01*
X70307058Y-58187340D02*
X70307058Y-57187340D01*
X70783248Y-57187340D01*
X71164200Y-58187340D02*
X71164200Y-57187340D01*
X71640391Y-58187340D02*
X71640391Y-57187340D01*
X71878486Y-57187340D01*
X72021343Y-57234960D01*
X72116581Y-57330198D01*
X72164200Y-57425436D01*
X72211820Y-57615912D01*
X72211820Y-57758769D01*
X72164200Y-57949245D01*
X72116581Y-58044483D01*
X72021343Y-58139721D01*
X71878486Y-58187340D01*
X71640391Y-58187340D01*
X72592772Y-57282579D02*
X72640391Y-57234960D01*
X72735629Y-57187340D01*
X72973724Y-57187340D01*
X73068962Y-57234960D01*
X73116581Y-57282579D01*
X73164200Y-57377817D01*
X73164200Y-57473055D01*
X73116581Y-57615912D01*
X72545153Y-58187340D01*
X73164200Y-58187340D01*
G04 #@! TO.C,J2*
X43709757Y-108612189D02*
X43930483Y-109291515D01*
X43929340Y-109442095D01*
X43868194Y-109562102D01*
X43747044Y-109651536D01*
X43656467Y-109680966D01*
X44146783Y-108570329D02*
X44177356Y-108510326D01*
X44253218Y-108435607D01*
X44479660Y-108362032D01*
X44584952Y-108377890D01*
X44644955Y-108408463D01*
X44719674Y-108484325D01*
X44749104Y-108574902D01*
X44747961Y-108725482D01*
X44381081Y-109445524D01*
X44969831Y-109254228D01*
X43709757Y-89546189D02*
X43930483Y-90225515D01*
X43929340Y-90376095D01*
X43868194Y-90496102D01*
X43747044Y-90585536D01*
X43656467Y-90614966D01*
X44146783Y-89504329D02*
X44177356Y-89444326D01*
X44253218Y-89369607D01*
X44479660Y-89296032D01*
X44584952Y-89311890D01*
X44644955Y-89342463D01*
X44719674Y-89418325D01*
X44749104Y-89508902D01*
X44747961Y-89659482D01*
X44381081Y-90379524D01*
X44969831Y-90188228D01*
X43709757Y-73020189D02*
X43930483Y-73699515D01*
X43929340Y-73850095D01*
X43868194Y-73970102D01*
X43747044Y-74059536D01*
X43656467Y-74088966D01*
X44146783Y-72978329D02*
X44177356Y-72918326D01*
X44253218Y-72843607D01*
X44479660Y-72770032D01*
X44584952Y-72785890D01*
X44644955Y-72816463D01*
X44719674Y-72892325D01*
X44749104Y-72982902D01*
X44747961Y-73133482D01*
X44381081Y-73853524D01*
X44969831Y-73662228D01*
X43709757Y-53954189D02*
X43930483Y-54633515D01*
X43929340Y-54784095D01*
X43868194Y-54904102D01*
X43747044Y-54993536D01*
X43656467Y-55022966D01*
X44146783Y-53912329D02*
X44177356Y-53852326D01*
X44253218Y-53777607D01*
X44479660Y-53704032D01*
X44584952Y-53719890D01*
X44644955Y-53750463D01*
X44719674Y-53826325D01*
X44749104Y-53916902D01*
X44747961Y-54067482D01*
X44381081Y-54787524D01*
X44969831Y-54596228D01*
G04 #@! TO.C,FID2*
X70640391Y-38597531D02*
X70307058Y-38597531D01*
X70307058Y-39121340D02*
X70307058Y-38121340D01*
X70783248Y-38121340D01*
X71164200Y-39121340D02*
X71164200Y-38121340D01*
X71640391Y-39121340D02*
X71640391Y-38121340D01*
X71878486Y-38121340D01*
X72021343Y-38168960D01*
X72116581Y-38264198D01*
X72164200Y-38359436D01*
X72211820Y-38549912D01*
X72211820Y-38692769D01*
X72164200Y-38883245D01*
X72116581Y-38978483D01*
X72021343Y-39073721D01*
X71878486Y-39121340D01*
X71640391Y-39121340D01*
X72592772Y-38216579D02*
X72640391Y-38168960D01*
X72735629Y-38121340D01*
X72973724Y-38121340D01*
X73068962Y-38168960D01*
X73116581Y-38216579D01*
X73164200Y-38311817D01*
X73164200Y-38407055D01*
X73116581Y-38549912D01*
X72545153Y-39121340D01*
X73164200Y-39121340D01*
G04 #@! TO.C,J2*
X43709757Y-34888189D02*
X43930483Y-35567515D01*
X43929340Y-35718095D01*
X43868194Y-35838102D01*
X43747044Y-35927536D01*
X43656467Y-35956966D01*
X44146783Y-34846329D02*
X44177356Y-34786326D01*
X44253218Y-34711607D01*
X44479660Y-34638032D01*
X44584952Y-34653890D01*
X44644955Y-34684463D01*
X44719674Y-34760325D01*
X44749104Y-34850902D01*
X44747961Y-35001482D01*
X44381081Y-35721524D01*
X44969831Y-35530228D01*
G04 #@! TO.C,J3*
X60646380Y-27765333D02*
X61360666Y-27765333D01*
X61503523Y-27812952D01*
X61598761Y-27908190D01*
X61646380Y-28051047D01*
X61646380Y-28146285D01*
X60646380Y-27384380D02*
X60646380Y-26765333D01*
X61027333Y-27098666D01*
X61027333Y-26955809D01*
X61074952Y-26860571D01*
X61122571Y-26812952D01*
X61217809Y-26765333D01*
X61455904Y-26765333D01*
X61551142Y-26812952D01*
X61598761Y-26860571D01*
X61646380Y-26955809D01*
X61646380Y-27241523D01*
X61598761Y-27336761D01*
X61551142Y-27384380D01*
G04 #@! TO.C,FID1*
X45748391Y-39895471D02*
X45415058Y-39895471D01*
X45415058Y-40419280D02*
X45415058Y-39419280D01*
X45891248Y-39419280D01*
X46272200Y-40419280D02*
X46272200Y-39419280D01*
X46748391Y-40419280D02*
X46748391Y-39419280D01*
X46986486Y-39419280D01*
X47129343Y-39466900D01*
X47224581Y-39562138D01*
X47272200Y-39657376D01*
X47319820Y-39847852D01*
X47319820Y-39990709D01*
X47272200Y-40181185D01*
X47224581Y-40276423D01*
X47129343Y-40371661D01*
X46986486Y-40419280D01*
X46748391Y-40419280D01*
X48272200Y-40419280D02*
X47700772Y-40419280D01*
X47986486Y-40419280D02*
X47986486Y-39419280D01*
X47891248Y-39562138D01*
X47796010Y-39657376D01*
X47700772Y-39704995D01*
G04 #@! TD*
M02*
