G04 #@! TF.GenerationSoftware,KiCad,Pcbnew,5.0.0-fee4fd1~66~ubuntu16.04.1*
G04 #@! TF.CreationDate,2018-10-22T20:20:06+02:00*
G04 #@! TF.ProjectId,WiRoc_NanoPi_SideOledPCB_v1_Panelized,5769526F635F4E616E6F50695F536964,rev?*
G04 #@! TF.SameCoordinates,Original*
G04 #@! TF.FileFunction,Copper,L1,Top,Signal*
G04 #@! TF.FilePolarity,Positive*
%FSLAX46Y46*%
G04 Gerber Fmt 4.6, Leading zero omitted, Abs format (unit mm)*
G04 Created by KiCad (PCBNEW 5.0.0-fee4fd1~66~ubuntu16.04.1) date Mon Oct 22 20:20:06 2018*
%MOMM*%
%LPD*%
G01*
G04 APERTURE LIST*
G04 #@! TA.AperFunction,ViaPad*
%ADD10C,0.600000*%
G04 #@! TD*
G04 #@! TA.AperFunction,BGAPad,CuDef*
%ADD11C,1.000000*%
G04 #@! TD*
G04 #@! TA.AperFunction,ComponentPad*
%ADD12C,1.524000*%
G04 #@! TD*
G04 #@! TA.AperFunction,ComponentPad*
%ADD13C,1.150000*%
G04 #@! TD*
G04 #@! TA.AperFunction,ComponentPad*
%ADD14O,1.700000X1.700000*%
G04 #@! TD*
G04 #@! TA.AperFunction,ComponentPad*
%ADD15R,1.700000X1.700000*%
G04 #@! TD*
G04 #@! TA.AperFunction,ComponentPad*
%ADD16C,1.700000*%
G04 #@! TD*
G04 #@! TA.AperFunction,Conductor*
%ADD17C,1.700000*%
G04 #@! TD*
G04 #@! TA.AperFunction,Conductor*
%ADD18C,0.100000*%
G04 #@! TD*
G04 #@! TA.AperFunction,Conductor*
%ADD19C,0.500000*%
G04 #@! TD*
G04 #@! TA.AperFunction,Conductor*
%ADD20C,0.400000*%
G04 #@! TD*
G04 #@! TA.AperFunction,Conductor*
%ADD21C,1.000000*%
G04 #@! TD*
G04 #@! TA.AperFunction,Conductor*
%ADD22C,0.200000*%
G04 #@! TD*
G04 APERTURE END LIST*
D10*
G04 #@! TO.N,GND*
G04 #@! TO.C,REF\002A\002A*
X61628020Y-115776240D03*
G04 #@! TD*
G04 #@! TO.N,GND*
G04 #@! TO.C,REF\002A\002A*
X61628020Y-96710240D03*
G04 #@! TD*
G04 #@! TO.N,GND*
G04 #@! TO.C,REF\002A\002A*
X61628020Y-77644240D03*
G04 #@! TD*
G04 #@! TO.N,GND*
G04 #@! TO.C,REF\002A\002A*
X61628020Y-58578240D03*
G04 #@! TD*
G04 #@! TO.N,GND*
G04 #@! TO.C,REF\002A\002A*
X61686440Y-107828580D03*
G04 #@! TD*
G04 #@! TO.N,GND*
G04 #@! TO.C,REF\002A\002A*
X61686440Y-88762580D03*
G04 #@! TD*
G04 #@! TO.N,GND*
G04 #@! TO.C,REF\002A\002A*
X61686440Y-69696580D03*
G04 #@! TD*
G04 #@! TO.N,GND*
G04 #@! TO.C,REF\002A\002A*
X61686440Y-50630580D03*
G04 #@! TD*
G04 #@! TO.N,GND*
G04 #@! TO.C,REF\002A\002A*
X56357520Y-109487200D03*
G04 #@! TD*
G04 #@! TO.N,GND*
G04 #@! TO.C,REF\002A\002A*
X56357520Y-90421200D03*
G04 #@! TD*
G04 #@! TO.N,GND*
G04 #@! TO.C,REF\002A\002A*
X56357520Y-71355200D03*
G04 #@! TD*
G04 #@! TO.N,GND*
G04 #@! TO.C,REF\002A\002A*
X56357520Y-52289200D03*
G04 #@! TD*
D11*
G04 #@! TO.P,FID1,1*
G04 #@! TO.N,N/C*
X43517820Y-116230900D03*
G04 #@! TD*
G04 #@! TO.P,FID1,1*
G04 #@! TO.N,N/C*
X43517820Y-97164900D03*
G04 #@! TD*
G04 #@! TO.P,FID1,1*
G04 #@! TO.N,N/C*
X43517820Y-78098900D03*
G04 #@! TD*
G04 #@! TO.P,FID1,1*
G04 #@! TO.N,N/C*
X43517820Y-59032900D03*
G04 #@! TD*
D10*
G04 #@! TO.N,GND*
G04 #@! TO.C,REF\002A\002A*
X66017140Y-111994180D03*
G04 #@! TD*
G04 #@! TO.N,GND*
G04 #@! TO.C,REF\002A\002A*
X66017140Y-92928180D03*
G04 #@! TD*
G04 #@! TO.N,GND*
G04 #@! TO.C,REF\002A\002A*
X66017140Y-73862180D03*
G04 #@! TD*
G04 #@! TO.N,GND*
G04 #@! TO.C,REF\002A\002A*
X66017140Y-54796180D03*
G04 #@! TD*
D12*
G04 #@! TO.P,J1,6*
G04 #@! TO.N,GND*
X66322500Y-114684800D03*
X72972500Y-114634800D03*
D13*
G04 #@! TO.P,J1,5*
X71047500Y-115884800D03*
G04 #@! TO.P,J1,3*
G04 #@! TO.N,Net-(J1-Pad3)*
X69647500Y-115884800D03*
G04 #@! TO.P,J1,1*
G04 #@! TO.N,Net-(J1-Pad1)*
X68247500Y-115884800D03*
G04 #@! TO.P,J1,4*
G04 #@! TO.N,Net-(J1-Pad4)*
X70397500Y-114684800D03*
G04 #@! TO.P,J1,2*
G04 #@! TO.N,Net-(J1-Pad2)*
X68897500Y-114684800D03*
G04 #@! TD*
D12*
G04 #@! TO.P,J1,6*
G04 #@! TO.N,GND*
X66322500Y-95618800D03*
X72972500Y-95568800D03*
D13*
G04 #@! TO.P,J1,5*
X71047500Y-96818800D03*
G04 #@! TO.P,J1,3*
G04 #@! TO.N,Net-(J1-Pad3)*
X69647500Y-96818800D03*
G04 #@! TO.P,J1,1*
G04 #@! TO.N,Net-(J1-Pad1)*
X68247500Y-96818800D03*
G04 #@! TO.P,J1,4*
G04 #@! TO.N,Net-(J1-Pad4)*
X70397500Y-95618800D03*
G04 #@! TO.P,J1,2*
G04 #@! TO.N,Net-(J1-Pad2)*
X68897500Y-95618800D03*
G04 #@! TD*
D12*
G04 #@! TO.P,J1,6*
G04 #@! TO.N,GND*
X66322500Y-76552800D03*
X72972500Y-76502800D03*
D13*
G04 #@! TO.P,J1,5*
X71047500Y-77752800D03*
G04 #@! TO.P,J1,3*
G04 #@! TO.N,Net-(J1-Pad3)*
X69647500Y-77752800D03*
G04 #@! TO.P,J1,1*
G04 #@! TO.N,Net-(J1-Pad1)*
X68247500Y-77752800D03*
G04 #@! TO.P,J1,4*
G04 #@! TO.N,Net-(J1-Pad4)*
X70397500Y-76552800D03*
G04 #@! TO.P,J1,2*
G04 #@! TO.N,Net-(J1-Pad2)*
X68897500Y-76552800D03*
G04 #@! TD*
D12*
G04 #@! TO.P,J1,6*
G04 #@! TO.N,GND*
X66322500Y-57486800D03*
X72972500Y-57436800D03*
D13*
G04 #@! TO.P,J1,5*
X71047500Y-58686800D03*
G04 #@! TO.P,J1,3*
G04 #@! TO.N,Net-(J1-Pad3)*
X69647500Y-58686800D03*
G04 #@! TO.P,J1,1*
G04 #@! TO.N,Net-(J1-Pad1)*
X68247500Y-58686800D03*
G04 #@! TO.P,J1,4*
G04 #@! TO.N,Net-(J1-Pad4)*
X70397500Y-57486800D03*
G04 #@! TO.P,J1,2*
G04 #@! TO.N,Net-(J1-Pad2)*
X68897500Y-57486800D03*
G04 #@! TD*
D14*
G04 #@! TO.P,J3,6*
G04 #@! TO.N,Net-(J1-Pad2)*
X46164000Y-103696000D03*
G04 #@! TO.P,J3,5*
G04 #@! TO.N,Net-(J1-Pad3)*
X48704000Y-103696000D03*
G04 #@! TO.P,J3,4*
G04 #@! TO.N,GND*
X51244000Y-103696000D03*
G04 #@! TO.P,J3,3*
G04 #@! TO.N,SYS_3.3V*
X53784000Y-103696000D03*
G04 #@! TO.P,J3,2*
G04 #@! TO.N,SDA*
X56324000Y-103696000D03*
D15*
G04 #@! TO.P,J3,1*
G04 #@! TO.N,SCK*
X58864000Y-103696000D03*
G04 #@! TD*
D14*
G04 #@! TO.P,J3,6*
G04 #@! TO.N,Net-(J1-Pad2)*
X46164000Y-84630000D03*
G04 #@! TO.P,J3,5*
G04 #@! TO.N,Net-(J1-Pad3)*
X48704000Y-84630000D03*
G04 #@! TO.P,J3,4*
G04 #@! TO.N,GND*
X51244000Y-84630000D03*
G04 #@! TO.P,J3,3*
G04 #@! TO.N,SYS_3.3V*
X53784000Y-84630000D03*
G04 #@! TO.P,J3,2*
G04 #@! TO.N,SDA*
X56324000Y-84630000D03*
D15*
G04 #@! TO.P,J3,1*
G04 #@! TO.N,SCK*
X58864000Y-84630000D03*
G04 #@! TD*
D14*
G04 #@! TO.P,J3,6*
G04 #@! TO.N,Net-(J1-Pad2)*
X46164000Y-65564000D03*
G04 #@! TO.P,J3,5*
G04 #@! TO.N,Net-(J1-Pad3)*
X48704000Y-65564000D03*
G04 #@! TO.P,J3,4*
G04 #@! TO.N,GND*
X51244000Y-65564000D03*
G04 #@! TO.P,J3,3*
G04 #@! TO.N,SYS_3.3V*
X53784000Y-65564000D03*
G04 #@! TO.P,J3,2*
G04 #@! TO.N,SDA*
X56324000Y-65564000D03*
D15*
G04 #@! TO.P,J3,1*
G04 #@! TO.N,SCK*
X58864000Y-65564000D03*
G04 #@! TD*
D14*
G04 #@! TO.P,J3,6*
G04 #@! TO.N,Net-(J1-Pad2)*
X46164000Y-46498000D03*
G04 #@! TO.P,J3,5*
G04 #@! TO.N,Net-(J1-Pad3)*
X48704000Y-46498000D03*
G04 #@! TO.P,J3,4*
G04 #@! TO.N,GND*
X51244000Y-46498000D03*
G04 #@! TO.P,J3,3*
G04 #@! TO.N,SYS_3.3V*
X53784000Y-46498000D03*
G04 #@! TO.P,J3,2*
G04 #@! TO.N,SDA*
X56324000Y-46498000D03*
D15*
G04 #@! TO.P,J3,1*
G04 #@! TO.N,SCK*
X58864000Y-46498000D03*
G04 #@! TD*
D11*
G04 #@! TO.P,FID2,1*
G04 #@! TO.N,N/C*
X71711820Y-112392960D03*
G04 #@! TD*
G04 #@! TO.P,FID2,1*
G04 #@! TO.N,N/C*
X71711820Y-93326960D03*
G04 #@! TD*
G04 #@! TO.P,FID2,1*
G04 #@! TO.N,N/C*
X71711820Y-74260960D03*
G04 #@! TD*
G04 #@! TO.P,FID2,1*
G04 #@! TO.N,N/C*
X71711820Y-55194960D03*
G04 #@! TD*
D10*
G04 #@! TO.N,GND*
G04 #@! TO.C,REF\002A\002A*
X49776380Y-115740680D03*
G04 #@! TD*
G04 #@! TO.N,GND*
G04 #@! TO.C,REF\002A\002A*
X49776380Y-96674680D03*
G04 #@! TD*
G04 #@! TO.N,GND*
G04 #@! TO.C,REF\002A\002A*
X49776380Y-77608680D03*
G04 #@! TD*
G04 #@! TO.N,GND*
G04 #@! TO.C,REF\002A\002A*
X49776380Y-58542680D03*
G04 #@! TD*
G04 #@! TO.N,GND*
G04 #@! TO.C,REF\002A\002A*
X42534840Y-108135920D03*
G04 #@! TD*
G04 #@! TO.N,GND*
G04 #@! TO.C,REF\002A\002A*
X42534840Y-89069920D03*
G04 #@! TD*
G04 #@! TO.N,GND*
G04 #@! TO.C,REF\002A\002A*
X42534840Y-70003920D03*
G04 #@! TD*
G04 #@! TO.N,GND*
G04 #@! TO.C,REF\002A\002A*
X42534840Y-50937920D03*
G04 #@! TD*
D16*
G04 #@! TO.P,J2,4*
G04 #@! TO.N,SDA*
X39172291Y-104108949D03*
D17*
G04 #@! TD*
G04 #@! TO.N,SDA*
G04 #@! TO.C,J2*
X39172291Y-104108949D02*
X39172291Y-104108949D01*
D16*
G04 #@! TO.P,J2,3*
G04 #@! TO.N,SCK*
X39957194Y-106524633D03*
D17*
G04 #@! TD*
G04 #@! TO.N,SCK*
G04 #@! TO.C,J2*
X39957194Y-106524633D02*
X39957194Y-106524633D01*
D16*
G04 #@! TO.P,J2,2*
G04 #@! TO.N,SYS_3.3V*
X40742097Y-108940316D03*
D17*
G04 #@! TD*
G04 #@! TO.N,SYS_3.3V*
G04 #@! TO.C,J2*
X40742097Y-108940316D02*
X40742097Y-108940316D01*
D16*
G04 #@! TO.P,J2,1*
G04 #@! TO.N,GND*
X41527000Y-111356000D03*
D18*
G04 #@! TD*
G04 #@! TO.N,GND*
G04 #@! TO.C,J2*
G36*
X42072734Y-110284938D02*
X42598062Y-111901734D01*
X40981266Y-112427062D01*
X40455938Y-110810266D01*
X42072734Y-110284938D01*
X42072734Y-110284938D01*
G37*
D16*
G04 #@! TO.P,J2,4*
G04 #@! TO.N,SDA*
X39172291Y-85042949D03*
D17*
G04 #@! TD*
G04 #@! TO.N,SDA*
G04 #@! TO.C,J2*
X39172291Y-85042949D02*
X39172291Y-85042949D01*
D16*
G04 #@! TO.P,J2,3*
G04 #@! TO.N,SCK*
X39957194Y-87458633D03*
D17*
G04 #@! TD*
G04 #@! TO.N,SCK*
G04 #@! TO.C,J2*
X39957194Y-87458633D02*
X39957194Y-87458633D01*
D16*
G04 #@! TO.P,J2,2*
G04 #@! TO.N,SYS_3.3V*
X40742097Y-89874316D03*
D17*
G04 #@! TD*
G04 #@! TO.N,SYS_3.3V*
G04 #@! TO.C,J2*
X40742097Y-89874316D02*
X40742097Y-89874316D01*
D16*
G04 #@! TO.P,J2,1*
G04 #@! TO.N,GND*
X41527000Y-92290000D03*
D18*
G04 #@! TD*
G04 #@! TO.N,GND*
G04 #@! TO.C,J2*
G36*
X42072734Y-91218938D02*
X42598062Y-92835734D01*
X40981266Y-93361062D01*
X40455938Y-91744266D01*
X42072734Y-91218938D01*
X42072734Y-91218938D01*
G37*
D16*
G04 #@! TO.P,J2,4*
G04 #@! TO.N,SDA*
X39172291Y-68516949D03*
D17*
G04 #@! TD*
G04 #@! TO.N,SDA*
G04 #@! TO.C,J2*
X39172291Y-68516949D02*
X39172291Y-68516949D01*
D16*
G04 #@! TO.P,J2,3*
G04 #@! TO.N,SCK*
X39957194Y-70932633D03*
D17*
G04 #@! TD*
G04 #@! TO.N,SCK*
G04 #@! TO.C,J2*
X39957194Y-70932633D02*
X39957194Y-70932633D01*
D16*
G04 #@! TO.P,J2,2*
G04 #@! TO.N,SYS_3.3V*
X40742097Y-73348316D03*
D17*
G04 #@! TD*
G04 #@! TO.N,SYS_3.3V*
G04 #@! TO.C,J2*
X40742097Y-73348316D02*
X40742097Y-73348316D01*
D16*
G04 #@! TO.P,J2,1*
G04 #@! TO.N,GND*
X41527000Y-75764000D03*
D18*
G04 #@! TD*
G04 #@! TO.N,GND*
G04 #@! TO.C,J2*
G36*
X42072734Y-74692938D02*
X42598062Y-76309734D01*
X40981266Y-76835062D01*
X40455938Y-75218266D01*
X42072734Y-74692938D01*
X42072734Y-74692938D01*
G37*
D16*
G04 #@! TO.P,J2,4*
G04 #@! TO.N,SDA*
X39172291Y-49450949D03*
D17*
G04 #@! TD*
G04 #@! TO.N,SDA*
G04 #@! TO.C,J2*
X39172291Y-49450949D02*
X39172291Y-49450949D01*
D16*
G04 #@! TO.P,J2,3*
G04 #@! TO.N,SCK*
X39957194Y-51866633D03*
D17*
G04 #@! TD*
G04 #@! TO.N,SCK*
G04 #@! TO.C,J2*
X39957194Y-51866633D02*
X39957194Y-51866633D01*
D16*
G04 #@! TO.P,J2,2*
G04 #@! TO.N,SYS_3.3V*
X40742097Y-54282316D03*
D17*
G04 #@! TD*
G04 #@! TO.N,SYS_3.3V*
G04 #@! TO.C,J2*
X40742097Y-54282316D02*
X40742097Y-54282316D01*
D16*
G04 #@! TO.P,J2,1*
G04 #@! TO.N,GND*
X41527000Y-56698000D03*
D18*
G04 #@! TD*
G04 #@! TO.N,GND*
G04 #@! TO.C,J2*
G36*
X42072734Y-55626938D02*
X42598062Y-57243734D01*
X40981266Y-57769062D01*
X40455938Y-56152266D01*
X42072734Y-55626938D01*
X42072734Y-55626938D01*
G37*
D10*
G04 #@! TO.N,GND*
G04 #@! TO.C,REF\002A\002A*
X57914540Y-106502700D03*
G04 #@! TD*
G04 #@! TO.N,GND*
G04 #@! TO.C,REF\002A\002A*
X57914540Y-87436700D03*
G04 #@! TD*
G04 #@! TO.N,GND*
G04 #@! TO.C,REF\002A\002A*
X57914540Y-68370700D03*
G04 #@! TD*
G04 #@! TO.N,GND*
G04 #@! TO.C,REF\002A\002A*
X57914540Y-49304700D03*
G04 #@! TD*
D13*
G04 #@! TO.P,J1,2*
G04 #@! TO.N,Net-(J1-Pad2)*
X68897500Y-38420800D03*
G04 #@! TO.P,J1,4*
G04 #@! TO.N,Net-(J1-Pad4)*
X70397500Y-38420800D03*
G04 #@! TO.P,J1,1*
G04 #@! TO.N,Net-(J1-Pad1)*
X68247500Y-39620800D03*
G04 #@! TO.P,J1,3*
G04 #@! TO.N,Net-(J1-Pad3)*
X69647500Y-39620800D03*
G04 #@! TO.P,J1,5*
G04 #@! TO.N,GND*
X71047500Y-39620800D03*
D12*
G04 #@! TO.P,J1,6*
X72972500Y-38370800D03*
X66322500Y-38420800D03*
G04 #@! TD*
D10*
G04 #@! TO.N,GND*
G04 #@! TO.C,REF\002A\002A*
X49776380Y-39476680D03*
G04 #@! TD*
G04 #@! TO.N,GND*
G04 #@! TO.C,REF\002A\002A*
X42534840Y-31871920D03*
G04 #@! TD*
G04 #@! TO.N,GND*
G04 #@! TO.C,REF\002A\002A*
X61628020Y-39512240D03*
G04 #@! TD*
G04 #@! TO.N,GND*
G04 #@! TO.C,REF\002A\002A*
X56357520Y-33223200D03*
G04 #@! TD*
G04 #@! TO.N,GND*
G04 #@! TO.C,REF\002A\002A*
X66017140Y-35730180D03*
G04 #@! TD*
G04 #@! TO.N,GND*
G04 #@! TO.C,REF\002A\002A*
X61686440Y-31564580D03*
G04 #@! TD*
D11*
G04 #@! TO.P,FID2,1*
G04 #@! TO.N,N/C*
X71711820Y-36128960D03*
G04 #@! TD*
D16*
G04 #@! TO.P,J2,1*
G04 #@! TO.N,GND*
X41527000Y-37632000D03*
D18*
G04 #@! TD*
G04 #@! TO.N,GND*
G04 #@! TO.C,J2*
G36*
X42072734Y-36560938D02*
X42598062Y-38177734D01*
X40981266Y-38703062D01*
X40455938Y-37086266D01*
X42072734Y-36560938D01*
X42072734Y-36560938D01*
G37*
D16*
G04 #@! TO.P,J2,2*
G04 #@! TO.N,SYS_3.3V*
X40742097Y-35216316D03*
D17*
G04 #@! TD*
G04 #@! TO.N,SYS_3.3V*
G04 #@! TO.C,J2*
X40742097Y-35216316D02*
X40742097Y-35216316D01*
D16*
G04 #@! TO.P,J2,3*
G04 #@! TO.N,SCK*
X39957194Y-32800633D03*
D17*
G04 #@! TD*
G04 #@! TO.N,SCK*
G04 #@! TO.C,J2*
X39957194Y-32800633D02*
X39957194Y-32800633D01*
D16*
G04 #@! TO.P,J2,4*
G04 #@! TO.N,SDA*
X39172291Y-30384949D03*
D17*
G04 #@! TD*
G04 #@! TO.N,SDA*
G04 #@! TO.C,J2*
X39172291Y-30384949D02*
X39172291Y-30384949D01*
D15*
G04 #@! TO.P,J3,1*
G04 #@! TO.N,SCK*
X58864000Y-27432000D03*
D14*
G04 #@! TO.P,J3,2*
G04 #@! TO.N,SDA*
X56324000Y-27432000D03*
G04 #@! TO.P,J3,3*
G04 #@! TO.N,SYS_3.3V*
X53784000Y-27432000D03*
G04 #@! TO.P,J3,4*
G04 #@! TO.N,GND*
X51244000Y-27432000D03*
G04 #@! TO.P,J3,5*
G04 #@! TO.N,Net-(J1-Pad3)*
X48704000Y-27432000D03*
G04 #@! TO.P,J3,6*
G04 #@! TO.N,Net-(J1-Pad2)*
X46164000Y-27432000D03*
G04 #@! TD*
D10*
G04 #@! TO.N,GND*
G04 #@! TO.C,REF\002A\002A*
X57914540Y-30238700D03*
G04 #@! TD*
D11*
G04 #@! TO.P,FID1,1*
G04 #@! TO.N,N/C*
X43517820Y-39966900D03*
G04 #@! TD*
D10*
G04 #@! TO.N,Net-(J1-Pad3)*
X56598820Y-38922960D03*
X50847984Y-33167044D03*
X50847984Y-52233044D03*
X50847984Y-71299044D03*
X50847984Y-90365044D03*
X50847984Y-109431044D03*
X56598820Y-57988960D03*
X56598820Y-77054960D03*
X56598820Y-96120960D03*
X56598820Y-115186960D03*
G04 #@! TD*
D19*
G04 #@! TO.N,Net-(J1-Pad2)*
X67492880Y-37005260D02*
X68894960Y-38407340D01*
X46149260Y-30380940D02*
X52773580Y-37005260D01*
X52773580Y-37005260D02*
X67492880Y-37005260D01*
X46149260Y-27447240D02*
X46149260Y-30380940D01*
X67492880Y-56071260D02*
X68894960Y-57473340D01*
X67492880Y-75137260D02*
X68894960Y-76539340D01*
X67492880Y-94203260D02*
X68894960Y-95605340D01*
X67492880Y-113269260D02*
X68894960Y-114671340D01*
X46149260Y-46513240D02*
X46149260Y-49446940D01*
X46149260Y-65579240D02*
X46149260Y-68512940D01*
X46149260Y-84645240D02*
X46149260Y-87578940D01*
X46149260Y-103711240D02*
X46149260Y-106644940D01*
X46149260Y-49446940D02*
X52773580Y-56071260D01*
X46149260Y-68512940D02*
X52773580Y-75137260D01*
X46149260Y-87578940D02*
X52773580Y-94203260D01*
X46149260Y-106644940D02*
X52773580Y-113269260D01*
X52773580Y-56071260D02*
X67492880Y-56071260D01*
X52773580Y-75137260D02*
X67492880Y-75137260D01*
X52773580Y-94203260D02*
X67492880Y-94203260D01*
X52773580Y-113269260D02*
X67492880Y-113269260D01*
G04 #@! TO.N,Net-(J1-Pad3)*
X48694340Y-27434540D02*
X48694340Y-31013400D01*
X48694340Y-31013400D02*
X50547985Y-32867045D01*
X50547985Y-32867045D02*
X50847984Y-33167044D01*
X69647500Y-40433972D02*
X69647500Y-39620800D01*
X69435671Y-40645801D02*
X69647500Y-40433972D01*
X58321661Y-40645801D02*
X69435671Y-40645801D01*
X56598820Y-38922960D02*
X58321661Y-40645801D01*
X58321661Y-59711801D02*
X69435671Y-59711801D01*
X58321661Y-78777801D02*
X69435671Y-78777801D01*
X58321661Y-97843801D02*
X69435671Y-97843801D01*
X58321661Y-116909801D02*
X69435671Y-116909801D01*
X69435671Y-59711801D02*
X69647500Y-59499972D01*
X69435671Y-78777801D02*
X69647500Y-78565972D01*
X69435671Y-97843801D02*
X69647500Y-97631972D01*
X69435671Y-116909801D02*
X69647500Y-116697972D01*
X50547985Y-51933045D02*
X50847984Y-52233044D01*
X50547985Y-70999045D02*
X50847984Y-71299044D01*
X50547985Y-90065045D02*
X50847984Y-90365044D01*
X50547985Y-109131045D02*
X50847984Y-109431044D01*
X56598820Y-57988960D02*
X58321661Y-59711801D01*
X56598820Y-77054960D02*
X58321661Y-78777801D01*
X56598820Y-96120960D02*
X58321661Y-97843801D01*
X56598820Y-115186960D02*
X58321661Y-116909801D01*
X48694340Y-50079400D02*
X50547985Y-51933045D01*
X48694340Y-69145400D02*
X50547985Y-70999045D01*
X48694340Y-88211400D02*
X50547985Y-90065045D01*
X48694340Y-107277400D02*
X50547985Y-109131045D01*
X69647500Y-59499972D02*
X69647500Y-58686800D01*
X69647500Y-78565972D02*
X69647500Y-77752800D01*
X69647500Y-97631972D02*
X69647500Y-96818800D01*
X69647500Y-116697972D02*
X69647500Y-115884800D01*
X48694340Y-46500540D02*
X48694340Y-50079400D01*
X48694340Y-65566540D02*
X48694340Y-69145400D01*
X48694340Y-84632540D02*
X48694340Y-88211400D01*
X48694340Y-103698540D02*
X48694340Y-107277400D01*
D20*
G04 #@! TO.N,GND*
X71722500Y-39620800D02*
X72972500Y-38370800D01*
X71047500Y-39620800D02*
X71722500Y-39620800D01*
X71047500Y-58686800D02*
X71722500Y-58686800D01*
X71047500Y-77752800D02*
X71722500Y-77752800D01*
X71047500Y-96818800D02*
X71722500Y-96818800D01*
X71047500Y-115884800D02*
X71722500Y-115884800D01*
X71722500Y-58686800D02*
X72972500Y-57436800D01*
X71722500Y-77752800D02*
X72972500Y-76502800D01*
X71722500Y-96818800D02*
X72972500Y-95568800D01*
X71722500Y-115884800D02*
X72972500Y-114634800D01*
D21*
G04 #@! TO.N,SDA*
X39172291Y-30384949D02*
X39172291Y-28129707D01*
X39172291Y-28129707D02*
X41419999Y-25881999D01*
X44354081Y-25881999D02*
X44366180Y-25869900D01*
X41419999Y-25881999D02*
X44354081Y-25881999D01*
X54810059Y-25881999D02*
X56304180Y-27376120D01*
X44354081Y-25881999D02*
X54810059Y-25881999D01*
X41419999Y-44947999D02*
X44354081Y-44947999D01*
X41419999Y-64013999D02*
X44354081Y-64013999D01*
X41419999Y-83079999D02*
X44354081Y-83079999D01*
X41419999Y-102145999D02*
X44354081Y-102145999D01*
X44354081Y-44947999D02*
X44366180Y-44935900D01*
X44354081Y-64013999D02*
X44366180Y-64001900D01*
X44354081Y-83079999D02*
X44366180Y-83067900D01*
X44354081Y-102145999D02*
X44366180Y-102133900D01*
X44354081Y-44947999D02*
X54810059Y-44947999D01*
X44354081Y-64013999D02*
X54810059Y-64013999D01*
X44354081Y-83079999D02*
X54810059Y-83079999D01*
X44354081Y-102145999D02*
X54810059Y-102145999D01*
X54810059Y-44947999D02*
X56304180Y-46442120D01*
X54810059Y-64013999D02*
X56304180Y-65508120D01*
X54810059Y-83079999D02*
X56304180Y-84574120D01*
X54810059Y-102145999D02*
X56304180Y-103640120D01*
X39172291Y-47195707D02*
X41419999Y-44947999D01*
X39172291Y-66261707D02*
X41419999Y-64013999D01*
X39172291Y-85327707D02*
X41419999Y-83079999D01*
X39172291Y-104393707D02*
X41419999Y-102145999D01*
X39172291Y-49450949D02*
X39172291Y-47195707D01*
X39172291Y-68516949D02*
X39172291Y-66261707D01*
X39172291Y-87582949D02*
X39172291Y-85327707D01*
X39172291Y-106648949D02*
X39172291Y-104393707D01*
G04 #@! TD*
D22*
G04 #@! TO.N,GND*
G36*
X72346208Y-39494818D02*
X72824024Y-39648929D01*
X73324445Y-39608457D01*
X73339001Y-39602428D01*
X73339001Y-40843000D01*
X70276213Y-40843000D01*
X70353984Y-40726607D01*
X70397500Y-40507838D01*
X70397500Y-40507837D01*
X70402279Y-40483813D01*
X70478442Y-40407650D01*
X70534232Y-40589254D01*
X70943914Y-40711954D01*
X71369365Y-40668536D01*
X71560768Y-40589254D01*
X71616559Y-40407648D01*
X71047500Y-39838589D01*
X71033358Y-39852731D01*
X70815569Y-39634942D01*
X70829711Y-39620800D01*
X70815569Y-39606658D01*
X71033358Y-39388869D01*
X71047500Y-39403011D01*
X71061642Y-39388869D01*
X71279431Y-39606658D01*
X71265289Y-39620800D01*
X71834348Y-40189859D01*
X72015954Y-40134068D01*
X72138654Y-39724386D01*
X72096547Y-39311779D01*
X72172930Y-39388162D01*
X72267182Y-39293910D01*
X72346208Y-39494818D01*
X72346208Y-39494818D01*
G37*
X72346208Y-39494818D02*
X72824024Y-39648929D01*
X73324445Y-39608457D01*
X73339001Y-39602428D01*
X73339001Y-40843000D01*
X70276213Y-40843000D01*
X70353984Y-40726607D01*
X70397500Y-40507838D01*
X70397500Y-40507837D01*
X70402279Y-40483813D01*
X70478442Y-40407650D01*
X70534232Y-40589254D01*
X70943914Y-40711954D01*
X71369365Y-40668536D01*
X71560768Y-40589254D01*
X71616559Y-40407648D01*
X71047500Y-39838589D01*
X71033358Y-39852731D01*
X70815569Y-39634942D01*
X70829711Y-39620800D01*
X70815569Y-39606658D01*
X71033358Y-39388869D01*
X71047500Y-39403011D01*
X71061642Y-39388869D01*
X71279431Y-39606658D01*
X71265289Y-39620800D01*
X71834348Y-40189859D01*
X72015954Y-40134068D01*
X72138654Y-39724386D01*
X72096547Y-39311779D01*
X72172930Y-39388162D01*
X72267182Y-39293910D01*
X72346208Y-39494818D01*
G36*
X44354081Y-26901590D02*
X44452571Y-26881999D01*
X44907868Y-26881999D01*
X44892328Y-26905256D01*
X44787552Y-27432000D01*
X44892328Y-27958744D01*
X45190704Y-28405296D01*
X45399260Y-28544649D01*
X45399261Y-30307070D01*
X45384567Y-30380940D01*
X45404956Y-30483438D01*
X45442777Y-30673575D01*
X45608541Y-30921660D01*
X45671164Y-30963503D01*
X52191019Y-37483360D01*
X52232860Y-37545980D01*
X52480945Y-37711744D01*
X52699714Y-37755260D01*
X52773579Y-37769953D01*
X52847444Y-37755260D01*
X65298262Y-37755260D01*
X65198482Y-37794508D01*
X65044371Y-38272324D01*
X65084843Y-38772745D01*
X65198482Y-39047092D01*
X65399392Y-39126119D01*
X66104711Y-38420800D01*
X66090569Y-38406658D01*
X66308358Y-38188869D01*
X66322500Y-38203011D01*
X66336642Y-38188869D01*
X66554431Y-38406658D01*
X66540289Y-38420800D01*
X66554431Y-38434942D01*
X66336642Y-38652731D01*
X66322500Y-38638589D01*
X65617181Y-39343908D01*
X65696208Y-39544818D01*
X66174024Y-39698929D01*
X66674445Y-39658457D01*
X66948792Y-39544818D01*
X67027818Y-39343910D01*
X67122070Y-39438162D01*
X67186103Y-39374129D01*
X67172500Y-39406969D01*
X67172500Y-39834631D01*
X67197837Y-39895801D01*
X58632322Y-39895801D01*
X57327028Y-38590509D01*
X57277027Y-38469796D01*
X57051984Y-38244753D01*
X56757950Y-38122960D01*
X56439690Y-38122960D01*
X56145656Y-38244753D01*
X55920613Y-38469796D01*
X55798820Y-38763830D01*
X55798820Y-39082090D01*
X55920613Y-39376124D01*
X56145656Y-39601167D01*
X56266369Y-39651168D01*
X57458199Y-40843000D01*
X44197355Y-40843000D01*
X44450355Y-40590000D01*
X44617820Y-40185704D01*
X44617820Y-39748096D01*
X44450355Y-39343800D01*
X44140920Y-39034365D01*
X43736624Y-38866900D01*
X43299016Y-38866900D01*
X42894720Y-39034365D01*
X42585285Y-39343800D01*
X42417820Y-39748096D01*
X42417820Y-40185704D01*
X42585285Y-40590000D01*
X42838285Y-40843000D01*
X41576395Y-40843000D01*
X41022839Y-39207880D01*
X41041187Y-39209324D01*
X41678828Y-39002142D01*
X41759083Y-38844633D01*
X41428126Y-37826051D01*
X41409104Y-37832232D01*
X41376172Y-37730874D01*
X41721051Y-37730874D01*
X42052009Y-38749456D01*
X42209518Y-38829711D01*
X42847159Y-38622528D01*
X42998413Y-38493345D01*
X43088717Y-38316113D01*
X43104324Y-38117813D01*
X43042857Y-37928637D01*
X42897142Y-37480172D01*
X42739633Y-37399917D01*
X41721051Y-37730874D01*
X41376172Y-37730874D01*
X41313928Y-37539306D01*
X41332949Y-37533126D01*
X41326768Y-37514104D01*
X41619694Y-37418928D01*
X41625874Y-37437949D01*
X42644456Y-37106991D01*
X42724711Y-36949482D01*
X42578995Y-36501017D01*
X42517528Y-36311841D01*
X42388345Y-36160587D01*
X42211112Y-36070282D01*
X42012813Y-36054676D01*
X41748080Y-36140693D01*
X42013769Y-35743060D01*
X42118545Y-35216316D01*
X42013769Y-34689572D01*
X41715393Y-34243020D01*
X41268841Y-33944644D01*
X40875060Y-33866316D01*
X40792223Y-33866316D01*
X40930490Y-33773929D01*
X41228866Y-33327377D01*
X41333642Y-32800633D01*
X41228866Y-32273889D01*
X40930490Y-31827337D01*
X40483938Y-31528961D01*
X40090157Y-31450633D01*
X40007318Y-31450633D01*
X40145587Y-31358245D01*
X40443963Y-30911693D01*
X40548739Y-30384949D01*
X40443963Y-29858205D01*
X40172291Y-29451618D01*
X40172291Y-28543919D01*
X41834212Y-26881999D01*
X44255591Y-26881999D01*
X44354081Y-26901590D01*
X44354081Y-26901590D01*
G37*
X44354081Y-26901590D02*
X44452571Y-26881999D01*
X44907868Y-26881999D01*
X44892328Y-26905256D01*
X44787552Y-27432000D01*
X44892328Y-27958744D01*
X45190704Y-28405296D01*
X45399260Y-28544649D01*
X45399261Y-30307070D01*
X45384567Y-30380940D01*
X45404956Y-30483438D01*
X45442777Y-30673575D01*
X45608541Y-30921660D01*
X45671164Y-30963503D01*
X52191019Y-37483360D01*
X52232860Y-37545980D01*
X52480945Y-37711744D01*
X52699714Y-37755260D01*
X52773579Y-37769953D01*
X52847444Y-37755260D01*
X65298262Y-37755260D01*
X65198482Y-37794508D01*
X65044371Y-38272324D01*
X65084843Y-38772745D01*
X65198482Y-39047092D01*
X65399392Y-39126119D01*
X66104711Y-38420800D01*
X66090569Y-38406658D01*
X66308358Y-38188869D01*
X66322500Y-38203011D01*
X66336642Y-38188869D01*
X66554431Y-38406658D01*
X66540289Y-38420800D01*
X66554431Y-38434942D01*
X66336642Y-38652731D01*
X66322500Y-38638589D01*
X65617181Y-39343908D01*
X65696208Y-39544818D01*
X66174024Y-39698929D01*
X66674445Y-39658457D01*
X66948792Y-39544818D01*
X67027818Y-39343910D01*
X67122070Y-39438162D01*
X67186103Y-39374129D01*
X67172500Y-39406969D01*
X67172500Y-39834631D01*
X67197837Y-39895801D01*
X58632322Y-39895801D01*
X57327028Y-38590509D01*
X57277027Y-38469796D01*
X57051984Y-38244753D01*
X56757950Y-38122960D01*
X56439690Y-38122960D01*
X56145656Y-38244753D01*
X55920613Y-38469796D01*
X55798820Y-38763830D01*
X55798820Y-39082090D01*
X55920613Y-39376124D01*
X56145656Y-39601167D01*
X56266369Y-39651168D01*
X57458199Y-40843000D01*
X44197355Y-40843000D01*
X44450355Y-40590000D01*
X44617820Y-40185704D01*
X44617820Y-39748096D01*
X44450355Y-39343800D01*
X44140920Y-39034365D01*
X43736624Y-38866900D01*
X43299016Y-38866900D01*
X42894720Y-39034365D01*
X42585285Y-39343800D01*
X42417820Y-39748096D01*
X42417820Y-40185704D01*
X42585285Y-40590000D01*
X42838285Y-40843000D01*
X41576395Y-40843000D01*
X41022839Y-39207880D01*
X41041187Y-39209324D01*
X41678828Y-39002142D01*
X41759083Y-38844633D01*
X41428126Y-37826051D01*
X41409104Y-37832232D01*
X41376172Y-37730874D01*
X41721051Y-37730874D01*
X42052009Y-38749456D01*
X42209518Y-38829711D01*
X42847159Y-38622528D01*
X42998413Y-38493345D01*
X43088717Y-38316113D01*
X43104324Y-38117813D01*
X43042857Y-37928637D01*
X42897142Y-37480172D01*
X42739633Y-37399917D01*
X41721051Y-37730874D01*
X41376172Y-37730874D01*
X41313928Y-37539306D01*
X41332949Y-37533126D01*
X41326768Y-37514104D01*
X41619694Y-37418928D01*
X41625874Y-37437949D01*
X42644456Y-37106991D01*
X42724711Y-36949482D01*
X42578995Y-36501017D01*
X42517528Y-36311841D01*
X42388345Y-36160587D01*
X42211112Y-36070282D01*
X42012813Y-36054676D01*
X41748080Y-36140693D01*
X42013769Y-35743060D01*
X42118545Y-35216316D01*
X42013769Y-34689572D01*
X41715393Y-34243020D01*
X41268841Y-33944644D01*
X40875060Y-33866316D01*
X40792223Y-33866316D01*
X40930490Y-33773929D01*
X41228866Y-33327377D01*
X41333642Y-32800633D01*
X41228866Y-32273889D01*
X40930490Y-31827337D01*
X40483938Y-31528961D01*
X40090157Y-31450633D01*
X40007318Y-31450633D01*
X40145587Y-31358245D01*
X40443963Y-30911693D01*
X40548739Y-30384949D01*
X40443963Y-29858205D01*
X40172291Y-29451618D01*
X40172291Y-28543919D01*
X41834212Y-26881999D01*
X44255591Y-26881999D01*
X44354081Y-26901590D01*
G36*
X65417373Y-32298546D02*
X65449449Y-32346551D01*
X65639646Y-32473637D01*
X65807372Y-32507000D01*
X65807376Y-32507000D01*
X65864000Y-32518263D01*
X65920624Y-32507000D01*
X73339000Y-32507000D01*
X73339001Y-37162991D01*
X73120976Y-37092671D01*
X72620555Y-37133143D01*
X72346208Y-37246782D01*
X72267181Y-37447692D01*
X72972500Y-38153011D01*
X72986642Y-38138869D01*
X73204431Y-38356658D01*
X73190289Y-38370800D01*
X73204431Y-38384942D01*
X72986642Y-38602731D01*
X72972500Y-38588589D01*
X72958358Y-38602731D01*
X72740569Y-38384942D01*
X72754711Y-38370800D01*
X72049392Y-37665481D01*
X71848482Y-37744508D01*
X71694371Y-38222324D01*
X71734843Y-38722745D01*
X71761788Y-38787796D01*
X71712250Y-38738258D01*
X71616558Y-38833950D01*
X71560768Y-38652346D01*
X71472500Y-38625910D01*
X71472500Y-38206969D01*
X71308841Y-37811862D01*
X71006438Y-37509459D01*
X70611331Y-37345800D01*
X70183669Y-37345800D01*
X69788562Y-37509459D01*
X69647500Y-37650521D01*
X69506438Y-37509459D01*
X69111331Y-37345800D01*
X68894080Y-37345800D01*
X68075445Y-36527166D01*
X68033600Y-36464540D01*
X67785515Y-36298776D01*
X67566746Y-36255260D01*
X67566745Y-36255260D01*
X67492880Y-36240567D01*
X67419015Y-36255260D01*
X53084241Y-36255260D01*
X52739137Y-35910156D01*
X70611820Y-35910156D01*
X70611820Y-36347764D01*
X70779285Y-36752060D01*
X71088720Y-37061495D01*
X71493016Y-37228960D01*
X71930624Y-37228960D01*
X72334920Y-37061495D01*
X72644355Y-36752060D01*
X72811820Y-36347764D01*
X72811820Y-35910156D01*
X72644355Y-35505860D01*
X72334920Y-35196425D01*
X71930624Y-35028960D01*
X71493016Y-35028960D01*
X71088720Y-35196425D01*
X70779285Y-35505860D01*
X70611820Y-35910156D01*
X52739137Y-35910156D01*
X50796024Y-33967044D01*
X51007114Y-33967044D01*
X51301148Y-33845251D01*
X51526191Y-33620208D01*
X51647984Y-33326174D01*
X51647984Y-33007914D01*
X51526191Y-32713880D01*
X51301148Y-32488837D01*
X51180435Y-32438836D01*
X51130548Y-32388949D01*
X51130546Y-32388946D01*
X49444340Y-30702741D01*
X49444340Y-28560952D01*
X49677296Y-28405296D01*
X49975672Y-27958744D01*
X49990079Y-27886316D01*
X50180904Y-28264082D01*
X50580251Y-28607573D01*
X50882088Y-28732585D01*
X51090000Y-28647281D01*
X51090000Y-27586000D01*
X51070000Y-27586000D01*
X51070000Y-27278000D01*
X51090000Y-27278000D01*
X51090000Y-27258000D01*
X51398000Y-27258000D01*
X51398000Y-27278000D01*
X51418000Y-27278000D01*
X51418000Y-27586000D01*
X51398000Y-27586000D01*
X51398000Y-28647281D01*
X51605912Y-28732585D01*
X51907749Y-28607573D01*
X52307096Y-28264082D01*
X52497921Y-27886316D01*
X52512328Y-27958744D01*
X52810704Y-28405296D01*
X53257256Y-28703672D01*
X53651037Y-28782000D01*
X53916963Y-28782000D01*
X54310744Y-28703672D01*
X54757296Y-28405296D01*
X55054000Y-27961246D01*
X55350704Y-28405296D01*
X55797256Y-28703672D01*
X56191037Y-28782000D01*
X56456963Y-28782000D01*
X56850744Y-28703672D01*
X57297296Y-28405296D01*
X57504205Y-28095634D01*
X57504205Y-28282000D01*
X57543011Y-28477090D01*
X57653520Y-28642480D01*
X57818910Y-28752989D01*
X58014000Y-28791795D01*
X59714000Y-28791795D01*
X59909090Y-28752989D01*
X60074480Y-28642480D01*
X60184989Y-28477090D01*
X60223795Y-28282000D01*
X60223795Y-27104967D01*
X65417373Y-32298546D01*
X65417373Y-32298546D01*
G37*
X65417373Y-32298546D02*
X65449449Y-32346551D01*
X65639646Y-32473637D01*
X65807372Y-32507000D01*
X65807376Y-32507000D01*
X65864000Y-32518263D01*
X65920624Y-32507000D01*
X73339000Y-32507000D01*
X73339001Y-37162991D01*
X73120976Y-37092671D01*
X72620555Y-37133143D01*
X72346208Y-37246782D01*
X72267181Y-37447692D01*
X72972500Y-38153011D01*
X72986642Y-38138869D01*
X73204431Y-38356658D01*
X73190289Y-38370800D01*
X73204431Y-38384942D01*
X72986642Y-38602731D01*
X72972500Y-38588589D01*
X72958358Y-38602731D01*
X72740569Y-38384942D01*
X72754711Y-38370800D01*
X72049392Y-37665481D01*
X71848482Y-37744508D01*
X71694371Y-38222324D01*
X71734843Y-38722745D01*
X71761788Y-38787796D01*
X71712250Y-38738258D01*
X71616558Y-38833950D01*
X71560768Y-38652346D01*
X71472500Y-38625910D01*
X71472500Y-38206969D01*
X71308841Y-37811862D01*
X71006438Y-37509459D01*
X70611331Y-37345800D01*
X70183669Y-37345800D01*
X69788562Y-37509459D01*
X69647500Y-37650521D01*
X69506438Y-37509459D01*
X69111331Y-37345800D01*
X68894080Y-37345800D01*
X68075445Y-36527166D01*
X68033600Y-36464540D01*
X67785515Y-36298776D01*
X67566746Y-36255260D01*
X67566745Y-36255260D01*
X67492880Y-36240567D01*
X67419015Y-36255260D01*
X53084241Y-36255260D01*
X52739137Y-35910156D01*
X70611820Y-35910156D01*
X70611820Y-36347764D01*
X70779285Y-36752060D01*
X71088720Y-37061495D01*
X71493016Y-37228960D01*
X71930624Y-37228960D01*
X72334920Y-37061495D01*
X72644355Y-36752060D01*
X72811820Y-36347764D01*
X72811820Y-35910156D01*
X72644355Y-35505860D01*
X72334920Y-35196425D01*
X71930624Y-35028960D01*
X71493016Y-35028960D01*
X71088720Y-35196425D01*
X70779285Y-35505860D01*
X70611820Y-35910156D01*
X52739137Y-35910156D01*
X50796024Y-33967044D01*
X51007114Y-33967044D01*
X51301148Y-33845251D01*
X51526191Y-33620208D01*
X51647984Y-33326174D01*
X51647984Y-33007914D01*
X51526191Y-32713880D01*
X51301148Y-32488837D01*
X51180435Y-32438836D01*
X51130548Y-32388949D01*
X51130546Y-32388946D01*
X49444340Y-30702741D01*
X49444340Y-28560952D01*
X49677296Y-28405296D01*
X49975672Y-27958744D01*
X49990079Y-27886316D01*
X50180904Y-28264082D01*
X50580251Y-28607573D01*
X50882088Y-28732585D01*
X51090000Y-28647281D01*
X51090000Y-27586000D01*
X51070000Y-27586000D01*
X51070000Y-27278000D01*
X51090000Y-27278000D01*
X51090000Y-27258000D01*
X51398000Y-27258000D01*
X51398000Y-27278000D01*
X51418000Y-27278000D01*
X51418000Y-27586000D01*
X51398000Y-27586000D01*
X51398000Y-28647281D01*
X51605912Y-28732585D01*
X51907749Y-28607573D01*
X52307096Y-28264082D01*
X52497921Y-27886316D01*
X52512328Y-27958744D01*
X52810704Y-28405296D01*
X53257256Y-28703672D01*
X53651037Y-28782000D01*
X53916963Y-28782000D01*
X54310744Y-28703672D01*
X54757296Y-28405296D01*
X55054000Y-27961246D01*
X55350704Y-28405296D01*
X55797256Y-28703672D01*
X56191037Y-28782000D01*
X56456963Y-28782000D01*
X56850744Y-28703672D01*
X57297296Y-28405296D01*
X57504205Y-28095634D01*
X57504205Y-28282000D01*
X57543011Y-28477090D01*
X57653520Y-28642480D01*
X57818910Y-28752989D01*
X58014000Y-28791795D01*
X59714000Y-28791795D01*
X59909090Y-28752989D01*
X60074480Y-28642480D01*
X60184989Y-28477090D01*
X60223795Y-28282000D01*
X60223795Y-27104967D01*
X65417373Y-32298546D01*
G36*
X72346208Y-58560818D02*
X72824024Y-58714929D01*
X73324445Y-58674457D01*
X73339001Y-58668428D01*
X73339001Y-59909000D01*
X70276213Y-59909000D01*
X70353984Y-59792607D01*
X70397500Y-59573838D01*
X70397500Y-59573837D01*
X70402279Y-59549813D01*
X70478442Y-59473650D01*
X70534232Y-59655254D01*
X70943914Y-59777954D01*
X71369365Y-59734536D01*
X71560768Y-59655254D01*
X71616559Y-59473648D01*
X71047500Y-58904589D01*
X71033358Y-58918731D01*
X70815569Y-58700942D01*
X70829711Y-58686800D01*
X70815569Y-58672658D01*
X71033358Y-58454869D01*
X71047500Y-58469011D01*
X71061642Y-58454869D01*
X71279431Y-58672658D01*
X71265289Y-58686800D01*
X71834348Y-59255859D01*
X72015954Y-59200068D01*
X72138654Y-58790386D01*
X72096547Y-58377779D01*
X72172930Y-58454162D01*
X72267182Y-58359910D01*
X72346208Y-58560818D01*
X72346208Y-58560818D01*
G37*
X72346208Y-58560818D02*
X72824024Y-58714929D01*
X73324445Y-58674457D01*
X73339001Y-58668428D01*
X73339001Y-59909000D01*
X70276213Y-59909000D01*
X70353984Y-59792607D01*
X70397500Y-59573838D01*
X70397500Y-59573837D01*
X70402279Y-59549813D01*
X70478442Y-59473650D01*
X70534232Y-59655254D01*
X70943914Y-59777954D01*
X71369365Y-59734536D01*
X71560768Y-59655254D01*
X71616559Y-59473648D01*
X71047500Y-58904589D01*
X71033358Y-58918731D01*
X70815569Y-58700942D01*
X70829711Y-58686800D01*
X70815569Y-58672658D01*
X71033358Y-58454869D01*
X71047500Y-58469011D01*
X71061642Y-58454869D01*
X71279431Y-58672658D01*
X71265289Y-58686800D01*
X71834348Y-59255859D01*
X72015954Y-59200068D01*
X72138654Y-58790386D01*
X72096547Y-58377779D01*
X72172930Y-58454162D01*
X72267182Y-58359910D01*
X72346208Y-58560818D01*
G36*
X44354081Y-45967590D02*
X44452571Y-45947999D01*
X44907868Y-45947999D01*
X44892328Y-45971256D01*
X44787552Y-46498000D01*
X44892328Y-47024744D01*
X45190704Y-47471296D01*
X45399260Y-47610649D01*
X45399261Y-49373070D01*
X45384567Y-49446940D01*
X45404956Y-49549438D01*
X45442777Y-49739575D01*
X45608541Y-49987660D01*
X45671164Y-50029503D01*
X52191019Y-56549360D01*
X52232860Y-56611980D01*
X52480945Y-56777744D01*
X52699714Y-56821260D01*
X52773579Y-56835953D01*
X52847444Y-56821260D01*
X65298262Y-56821260D01*
X65198482Y-56860508D01*
X65044371Y-57338324D01*
X65084843Y-57838745D01*
X65198482Y-58113092D01*
X65399392Y-58192119D01*
X66104711Y-57486800D01*
X66090569Y-57472658D01*
X66308358Y-57254869D01*
X66322500Y-57269011D01*
X66336642Y-57254869D01*
X66554431Y-57472658D01*
X66540289Y-57486800D01*
X66554431Y-57500942D01*
X66336642Y-57718731D01*
X66322500Y-57704589D01*
X65617181Y-58409908D01*
X65696208Y-58610818D01*
X66174024Y-58764929D01*
X66674445Y-58724457D01*
X66948792Y-58610818D01*
X67027818Y-58409910D01*
X67122070Y-58504162D01*
X67186103Y-58440129D01*
X67172500Y-58472969D01*
X67172500Y-58900631D01*
X67197837Y-58961801D01*
X58632322Y-58961801D01*
X57327028Y-57656509D01*
X57277027Y-57535796D01*
X57051984Y-57310753D01*
X56757950Y-57188960D01*
X56439690Y-57188960D01*
X56145656Y-57310753D01*
X55920613Y-57535796D01*
X55798820Y-57829830D01*
X55798820Y-58148090D01*
X55920613Y-58442124D01*
X56145656Y-58667167D01*
X56266369Y-58717168D01*
X57458199Y-59909000D01*
X44197355Y-59909000D01*
X44450355Y-59656000D01*
X44617820Y-59251704D01*
X44617820Y-58814096D01*
X44450355Y-58409800D01*
X44140920Y-58100365D01*
X43736624Y-57932900D01*
X43299016Y-57932900D01*
X42894720Y-58100365D01*
X42585285Y-58409800D01*
X42417820Y-58814096D01*
X42417820Y-59251704D01*
X42585285Y-59656000D01*
X42838285Y-59909000D01*
X41576395Y-59909000D01*
X41022839Y-58273880D01*
X41041187Y-58275324D01*
X41678828Y-58068142D01*
X41759083Y-57910633D01*
X41428126Y-56892051D01*
X41409104Y-56898232D01*
X41376172Y-56796874D01*
X41721051Y-56796874D01*
X42052009Y-57815456D01*
X42209518Y-57895711D01*
X42847159Y-57688528D01*
X42998413Y-57559345D01*
X43088717Y-57382113D01*
X43104324Y-57183813D01*
X43042857Y-56994637D01*
X42897142Y-56546172D01*
X42739633Y-56465917D01*
X41721051Y-56796874D01*
X41376172Y-56796874D01*
X41313928Y-56605306D01*
X41332949Y-56599126D01*
X41326768Y-56580104D01*
X41619694Y-56484928D01*
X41625874Y-56503949D01*
X42644456Y-56172991D01*
X42724711Y-56015482D01*
X42578995Y-55567017D01*
X42517528Y-55377841D01*
X42388345Y-55226587D01*
X42211112Y-55136282D01*
X42012813Y-55120676D01*
X41748080Y-55206693D01*
X42013769Y-54809060D01*
X42118545Y-54282316D01*
X42013769Y-53755572D01*
X41715393Y-53309020D01*
X41268841Y-53010644D01*
X40875060Y-52932316D01*
X40792223Y-52932316D01*
X40930490Y-52839929D01*
X41228866Y-52393377D01*
X41333642Y-51866633D01*
X41228866Y-51339889D01*
X40930490Y-50893337D01*
X40483938Y-50594961D01*
X40090157Y-50516633D01*
X40007318Y-50516633D01*
X40145587Y-50424245D01*
X40443963Y-49977693D01*
X40548739Y-49450949D01*
X40443963Y-48924205D01*
X40172291Y-48517618D01*
X40172291Y-47609919D01*
X41834212Y-45947999D01*
X44255591Y-45947999D01*
X44354081Y-45967590D01*
X44354081Y-45967590D01*
G37*
X44354081Y-45967590D02*
X44452571Y-45947999D01*
X44907868Y-45947999D01*
X44892328Y-45971256D01*
X44787552Y-46498000D01*
X44892328Y-47024744D01*
X45190704Y-47471296D01*
X45399260Y-47610649D01*
X45399261Y-49373070D01*
X45384567Y-49446940D01*
X45404956Y-49549438D01*
X45442777Y-49739575D01*
X45608541Y-49987660D01*
X45671164Y-50029503D01*
X52191019Y-56549360D01*
X52232860Y-56611980D01*
X52480945Y-56777744D01*
X52699714Y-56821260D01*
X52773579Y-56835953D01*
X52847444Y-56821260D01*
X65298262Y-56821260D01*
X65198482Y-56860508D01*
X65044371Y-57338324D01*
X65084843Y-57838745D01*
X65198482Y-58113092D01*
X65399392Y-58192119D01*
X66104711Y-57486800D01*
X66090569Y-57472658D01*
X66308358Y-57254869D01*
X66322500Y-57269011D01*
X66336642Y-57254869D01*
X66554431Y-57472658D01*
X66540289Y-57486800D01*
X66554431Y-57500942D01*
X66336642Y-57718731D01*
X66322500Y-57704589D01*
X65617181Y-58409908D01*
X65696208Y-58610818D01*
X66174024Y-58764929D01*
X66674445Y-58724457D01*
X66948792Y-58610818D01*
X67027818Y-58409910D01*
X67122070Y-58504162D01*
X67186103Y-58440129D01*
X67172500Y-58472969D01*
X67172500Y-58900631D01*
X67197837Y-58961801D01*
X58632322Y-58961801D01*
X57327028Y-57656509D01*
X57277027Y-57535796D01*
X57051984Y-57310753D01*
X56757950Y-57188960D01*
X56439690Y-57188960D01*
X56145656Y-57310753D01*
X55920613Y-57535796D01*
X55798820Y-57829830D01*
X55798820Y-58148090D01*
X55920613Y-58442124D01*
X56145656Y-58667167D01*
X56266369Y-58717168D01*
X57458199Y-59909000D01*
X44197355Y-59909000D01*
X44450355Y-59656000D01*
X44617820Y-59251704D01*
X44617820Y-58814096D01*
X44450355Y-58409800D01*
X44140920Y-58100365D01*
X43736624Y-57932900D01*
X43299016Y-57932900D01*
X42894720Y-58100365D01*
X42585285Y-58409800D01*
X42417820Y-58814096D01*
X42417820Y-59251704D01*
X42585285Y-59656000D01*
X42838285Y-59909000D01*
X41576395Y-59909000D01*
X41022839Y-58273880D01*
X41041187Y-58275324D01*
X41678828Y-58068142D01*
X41759083Y-57910633D01*
X41428126Y-56892051D01*
X41409104Y-56898232D01*
X41376172Y-56796874D01*
X41721051Y-56796874D01*
X42052009Y-57815456D01*
X42209518Y-57895711D01*
X42847159Y-57688528D01*
X42998413Y-57559345D01*
X43088717Y-57382113D01*
X43104324Y-57183813D01*
X43042857Y-56994637D01*
X42897142Y-56546172D01*
X42739633Y-56465917D01*
X41721051Y-56796874D01*
X41376172Y-56796874D01*
X41313928Y-56605306D01*
X41332949Y-56599126D01*
X41326768Y-56580104D01*
X41619694Y-56484928D01*
X41625874Y-56503949D01*
X42644456Y-56172991D01*
X42724711Y-56015482D01*
X42578995Y-55567017D01*
X42517528Y-55377841D01*
X42388345Y-55226587D01*
X42211112Y-55136282D01*
X42012813Y-55120676D01*
X41748080Y-55206693D01*
X42013769Y-54809060D01*
X42118545Y-54282316D01*
X42013769Y-53755572D01*
X41715393Y-53309020D01*
X41268841Y-53010644D01*
X40875060Y-52932316D01*
X40792223Y-52932316D01*
X40930490Y-52839929D01*
X41228866Y-52393377D01*
X41333642Y-51866633D01*
X41228866Y-51339889D01*
X40930490Y-50893337D01*
X40483938Y-50594961D01*
X40090157Y-50516633D01*
X40007318Y-50516633D01*
X40145587Y-50424245D01*
X40443963Y-49977693D01*
X40548739Y-49450949D01*
X40443963Y-48924205D01*
X40172291Y-48517618D01*
X40172291Y-47609919D01*
X41834212Y-45947999D01*
X44255591Y-45947999D01*
X44354081Y-45967590D01*
G36*
X65417373Y-51364546D02*
X65449449Y-51412551D01*
X65639646Y-51539637D01*
X65807372Y-51573000D01*
X65807376Y-51573000D01*
X65864000Y-51584263D01*
X65920624Y-51573000D01*
X73339000Y-51573000D01*
X73339001Y-56228991D01*
X73120976Y-56158671D01*
X72620555Y-56199143D01*
X72346208Y-56312782D01*
X72267181Y-56513692D01*
X72972500Y-57219011D01*
X72986642Y-57204869D01*
X73204431Y-57422658D01*
X73190289Y-57436800D01*
X73204431Y-57450942D01*
X72986642Y-57668731D01*
X72972500Y-57654589D01*
X72958358Y-57668731D01*
X72740569Y-57450942D01*
X72754711Y-57436800D01*
X72049392Y-56731481D01*
X71848482Y-56810508D01*
X71694371Y-57288324D01*
X71734843Y-57788745D01*
X71761788Y-57853796D01*
X71712250Y-57804258D01*
X71616558Y-57899950D01*
X71560768Y-57718346D01*
X71472500Y-57691910D01*
X71472500Y-57272969D01*
X71308841Y-56877862D01*
X71006438Y-56575459D01*
X70611331Y-56411800D01*
X70183669Y-56411800D01*
X69788562Y-56575459D01*
X69647500Y-56716521D01*
X69506438Y-56575459D01*
X69111331Y-56411800D01*
X68894080Y-56411800D01*
X68075445Y-55593166D01*
X68033600Y-55530540D01*
X67785515Y-55364776D01*
X67566746Y-55321260D01*
X67566745Y-55321260D01*
X67492880Y-55306567D01*
X67419015Y-55321260D01*
X53084241Y-55321260D01*
X52739137Y-54976156D01*
X70611820Y-54976156D01*
X70611820Y-55413764D01*
X70779285Y-55818060D01*
X71088720Y-56127495D01*
X71493016Y-56294960D01*
X71930624Y-56294960D01*
X72334920Y-56127495D01*
X72644355Y-55818060D01*
X72811820Y-55413764D01*
X72811820Y-54976156D01*
X72644355Y-54571860D01*
X72334920Y-54262425D01*
X71930624Y-54094960D01*
X71493016Y-54094960D01*
X71088720Y-54262425D01*
X70779285Y-54571860D01*
X70611820Y-54976156D01*
X52739137Y-54976156D01*
X50796024Y-53033044D01*
X51007114Y-53033044D01*
X51301148Y-52911251D01*
X51526191Y-52686208D01*
X51647984Y-52392174D01*
X51647984Y-52073914D01*
X51526191Y-51779880D01*
X51301148Y-51554837D01*
X51180435Y-51504836D01*
X51130548Y-51454949D01*
X51130546Y-51454946D01*
X49444340Y-49768741D01*
X49444340Y-47626952D01*
X49677296Y-47471296D01*
X49975672Y-47024744D01*
X49990079Y-46952316D01*
X50180904Y-47330082D01*
X50580251Y-47673573D01*
X50882088Y-47798585D01*
X51090000Y-47713281D01*
X51090000Y-46652000D01*
X51070000Y-46652000D01*
X51070000Y-46344000D01*
X51090000Y-46344000D01*
X51090000Y-46324000D01*
X51398000Y-46324000D01*
X51398000Y-46344000D01*
X51418000Y-46344000D01*
X51418000Y-46652000D01*
X51398000Y-46652000D01*
X51398000Y-47713281D01*
X51605912Y-47798585D01*
X51907749Y-47673573D01*
X52307096Y-47330082D01*
X52497921Y-46952316D01*
X52512328Y-47024744D01*
X52810704Y-47471296D01*
X53257256Y-47769672D01*
X53651037Y-47848000D01*
X53916963Y-47848000D01*
X54310744Y-47769672D01*
X54757296Y-47471296D01*
X55054000Y-47027246D01*
X55350704Y-47471296D01*
X55797256Y-47769672D01*
X56191037Y-47848000D01*
X56456963Y-47848000D01*
X56850744Y-47769672D01*
X57297296Y-47471296D01*
X57504205Y-47161634D01*
X57504205Y-47348000D01*
X57543011Y-47543090D01*
X57653520Y-47708480D01*
X57818910Y-47818989D01*
X58014000Y-47857795D01*
X59714000Y-47857795D01*
X59909090Y-47818989D01*
X60074480Y-47708480D01*
X60184989Y-47543090D01*
X60223795Y-47348000D01*
X60223795Y-46170967D01*
X65417373Y-51364546D01*
X65417373Y-51364546D01*
G37*
X65417373Y-51364546D02*
X65449449Y-51412551D01*
X65639646Y-51539637D01*
X65807372Y-51573000D01*
X65807376Y-51573000D01*
X65864000Y-51584263D01*
X65920624Y-51573000D01*
X73339000Y-51573000D01*
X73339001Y-56228991D01*
X73120976Y-56158671D01*
X72620555Y-56199143D01*
X72346208Y-56312782D01*
X72267181Y-56513692D01*
X72972500Y-57219011D01*
X72986642Y-57204869D01*
X73204431Y-57422658D01*
X73190289Y-57436800D01*
X73204431Y-57450942D01*
X72986642Y-57668731D01*
X72972500Y-57654589D01*
X72958358Y-57668731D01*
X72740569Y-57450942D01*
X72754711Y-57436800D01*
X72049392Y-56731481D01*
X71848482Y-56810508D01*
X71694371Y-57288324D01*
X71734843Y-57788745D01*
X71761788Y-57853796D01*
X71712250Y-57804258D01*
X71616558Y-57899950D01*
X71560768Y-57718346D01*
X71472500Y-57691910D01*
X71472500Y-57272969D01*
X71308841Y-56877862D01*
X71006438Y-56575459D01*
X70611331Y-56411800D01*
X70183669Y-56411800D01*
X69788562Y-56575459D01*
X69647500Y-56716521D01*
X69506438Y-56575459D01*
X69111331Y-56411800D01*
X68894080Y-56411800D01*
X68075445Y-55593166D01*
X68033600Y-55530540D01*
X67785515Y-55364776D01*
X67566746Y-55321260D01*
X67566745Y-55321260D01*
X67492880Y-55306567D01*
X67419015Y-55321260D01*
X53084241Y-55321260D01*
X52739137Y-54976156D01*
X70611820Y-54976156D01*
X70611820Y-55413764D01*
X70779285Y-55818060D01*
X71088720Y-56127495D01*
X71493016Y-56294960D01*
X71930624Y-56294960D01*
X72334920Y-56127495D01*
X72644355Y-55818060D01*
X72811820Y-55413764D01*
X72811820Y-54976156D01*
X72644355Y-54571860D01*
X72334920Y-54262425D01*
X71930624Y-54094960D01*
X71493016Y-54094960D01*
X71088720Y-54262425D01*
X70779285Y-54571860D01*
X70611820Y-54976156D01*
X52739137Y-54976156D01*
X50796024Y-53033044D01*
X51007114Y-53033044D01*
X51301148Y-52911251D01*
X51526191Y-52686208D01*
X51647984Y-52392174D01*
X51647984Y-52073914D01*
X51526191Y-51779880D01*
X51301148Y-51554837D01*
X51180435Y-51504836D01*
X51130548Y-51454949D01*
X51130546Y-51454946D01*
X49444340Y-49768741D01*
X49444340Y-47626952D01*
X49677296Y-47471296D01*
X49975672Y-47024744D01*
X49990079Y-46952316D01*
X50180904Y-47330082D01*
X50580251Y-47673573D01*
X50882088Y-47798585D01*
X51090000Y-47713281D01*
X51090000Y-46652000D01*
X51070000Y-46652000D01*
X51070000Y-46344000D01*
X51090000Y-46344000D01*
X51090000Y-46324000D01*
X51398000Y-46324000D01*
X51398000Y-46344000D01*
X51418000Y-46344000D01*
X51418000Y-46652000D01*
X51398000Y-46652000D01*
X51398000Y-47713281D01*
X51605912Y-47798585D01*
X51907749Y-47673573D01*
X52307096Y-47330082D01*
X52497921Y-46952316D01*
X52512328Y-47024744D01*
X52810704Y-47471296D01*
X53257256Y-47769672D01*
X53651037Y-47848000D01*
X53916963Y-47848000D01*
X54310744Y-47769672D01*
X54757296Y-47471296D01*
X55054000Y-47027246D01*
X55350704Y-47471296D01*
X55797256Y-47769672D01*
X56191037Y-47848000D01*
X56456963Y-47848000D01*
X56850744Y-47769672D01*
X57297296Y-47471296D01*
X57504205Y-47161634D01*
X57504205Y-47348000D01*
X57543011Y-47543090D01*
X57653520Y-47708480D01*
X57818910Y-47818989D01*
X58014000Y-47857795D01*
X59714000Y-47857795D01*
X59909090Y-47818989D01*
X60074480Y-47708480D01*
X60184989Y-47543090D01*
X60223795Y-47348000D01*
X60223795Y-46170967D01*
X65417373Y-51364546D01*
G36*
X72346208Y-77626818D02*
X72824024Y-77780929D01*
X73324445Y-77740457D01*
X73339001Y-77734428D01*
X73339001Y-78975000D01*
X70276213Y-78975000D01*
X70353984Y-78858607D01*
X70397500Y-78639838D01*
X70397500Y-78639837D01*
X70402279Y-78615813D01*
X70478442Y-78539650D01*
X70534232Y-78721254D01*
X70943914Y-78843954D01*
X71369365Y-78800536D01*
X71560768Y-78721254D01*
X71616559Y-78539648D01*
X71047500Y-77970589D01*
X71033358Y-77984731D01*
X70815569Y-77766942D01*
X70829711Y-77752800D01*
X70815569Y-77738658D01*
X71033358Y-77520869D01*
X71047500Y-77535011D01*
X71061642Y-77520869D01*
X71279431Y-77738658D01*
X71265289Y-77752800D01*
X71834348Y-78321859D01*
X72015954Y-78266068D01*
X72138654Y-77856386D01*
X72096547Y-77443779D01*
X72172930Y-77520162D01*
X72267182Y-77425910D01*
X72346208Y-77626818D01*
X72346208Y-77626818D01*
G37*
X72346208Y-77626818D02*
X72824024Y-77780929D01*
X73324445Y-77740457D01*
X73339001Y-77734428D01*
X73339001Y-78975000D01*
X70276213Y-78975000D01*
X70353984Y-78858607D01*
X70397500Y-78639838D01*
X70397500Y-78639837D01*
X70402279Y-78615813D01*
X70478442Y-78539650D01*
X70534232Y-78721254D01*
X70943914Y-78843954D01*
X71369365Y-78800536D01*
X71560768Y-78721254D01*
X71616559Y-78539648D01*
X71047500Y-77970589D01*
X71033358Y-77984731D01*
X70815569Y-77766942D01*
X70829711Y-77752800D01*
X70815569Y-77738658D01*
X71033358Y-77520869D01*
X71047500Y-77535011D01*
X71061642Y-77520869D01*
X71279431Y-77738658D01*
X71265289Y-77752800D01*
X71834348Y-78321859D01*
X72015954Y-78266068D01*
X72138654Y-77856386D01*
X72096547Y-77443779D01*
X72172930Y-77520162D01*
X72267182Y-77425910D01*
X72346208Y-77626818D01*
G36*
X44354081Y-65033590D02*
X44452571Y-65013999D01*
X44907868Y-65013999D01*
X44892328Y-65037256D01*
X44787552Y-65564000D01*
X44892328Y-66090744D01*
X45190704Y-66537296D01*
X45399260Y-66676649D01*
X45399261Y-68439070D01*
X45384567Y-68512940D01*
X45404956Y-68615438D01*
X45442777Y-68805575D01*
X45608541Y-69053660D01*
X45671164Y-69095503D01*
X52191019Y-75615360D01*
X52232860Y-75677980D01*
X52480945Y-75843744D01*
X52699714Y-75887260D01*
X52773579Y-75901953D01*
X52847444Y-75887260D01*
X65298262Y-75887260D01*
X65198482Y-75926508D01*
X65044371Y-76404324D01*
X65084843Y-76904745D01*
X65198482Y-77179092D01*
X65399392Y-77258119D01*
X66104711Y-76552800D01*
X66090569Y-76538658D01*
X66308358Y-76320869D01*
X66322500Y-76335011D01*
X66336642Y-76320869D01*
X66554431Y-76538658D01*
X66540289Y-76552800D01*
X66554431Y-76566942D01*
X66336642Y-76784731D01*
X66322500Y-76770589D01*
X65617181Y-77475908D01*
X65696208Y-77676818D01*
X66174024Y-77830929D01*
X66674445Y-77790457D01*
X66948792Y-77676818D01*
X67027818Y-77475910D01*
X67122070Y-77570162D01*
X67186103Y-77506129D01*
X67172500Y-77538969D01*
X67172500Y-77966631D01*
X67197837Y-78027801D01*
X58632322Y-78027801D01*
X57327028Y-76722509D01*
X57277027Y-76601796D01*
X57051984Y-76376753D01*
X56757950Y-76254960D01*
X56439690Y-76254960D01*
X56145656Y-76376753D01*
X55920613Y-76601796D01*
X55798820Y-76895830D01*
X55798820Y-77214090D01*
X55920613Y-77508124D01*
X56145656Y-77733167D01*
X56266369Y-77783168D01*
X57458199Y-78975000D01*
X44197355Y-78975000D01*
X44450355Y-78722000D01*
X44617820Y-78317704D01*
X44617820Y-77880096D01*
X44450355Y-77475800D01*
X44140920Y-77166365D01*
X43736624Y-76998900D01*
X43299016Y-76998900D01*
X42894720Y-77166365D01*
X42585285Y-77475800D01*
X42417820Y-77880096D01*
X42417820Y-78317704D01*
X42585285Y-78722000D01*
X42838285Y-78975000D01*
X41576395Y-78975000D01*
X41022839Y-77339880D01*
X41041187Y-77341324D01*
X41678828Y-77134142D01*
X41759083Y-76976633D01*
X41428126Y-75958051D01*
X41409104Y-75964232D01*
X41376172Y-75862874D01*
X41721051Y-75862874D01*
X42052009Y-76881456D01*
X42209518Y-76961711D01*
X42847159Y-76754528D01*
X42998413Y-76625345D01*
X43088717Y-76448113D01*
X43104324Y-76249813D01*
X43042857Y-76060637D01*
X42897142Y-75612172D01*
X42739633Y-75531917D01*
X41721051Y-75862874D01*
X41376172Y-75862874D01*
X41313928Y-75671306D01*
X41332949Y-75665126D01*
X41326768Y-75646104D01*
X41619694Y-75550928D01*
X41625874Y-75569949D01*
X42644456Y-75238991D01*
X42724711Y-75081482D01*
X42578995Y-74633017D01*
X42517528Y-74443841D01*
X42388345Y-74292587D01*
X42211112Y-74202282D01*
X42012813Y-74186676D01*
X41748080Y-74272693D01*
X42013769Y-73875060D01*
X42118545Y-73348316D01*
X42013769Y-72821572D01*
X41715393Y-72375020D01*
X41268841Y-72076644D01*
X40875060Y-71998316D01*
X40792223Y-71998316D01*
X40930490Y-71905929D01*
X41228866Y-71459377D01*
X41333642Y-70932633D01*
X41228866Y-70405889D01*
X40930490Y-69959337D01*
X40483938Y-69660961D01*
X40090157Y-69582633D01*
X40007318Y-69582633D01*
X40145587Y-69490245D01*
X40443963Y-69043693D01*
X40548739Y-68516949D01*
X40443963Y-67990205D01*
X40172291Y-67583618D01*
X40172291Y-66675919D01*
X41834212Y-65013999D01*
X44255591Y-65013999D01*
X44354081Y-65033590D01*
X44354081Y-65033590D01*
G37*
X44354081Y-65033590D02*
X44452571Y-65013999D01*
X44907868Y-65013999D01*
X44892328Y-65037256D01*
X44787552Y-65564000D01*
X44892328Y-66090744D01*
X45190704Y-66537296D01*
X45399260Y-66676649D01*
X45399261Y-68439070D01*
X45384567Y-68512940D01*
X45404956Y-68615438D01*
X45442777Y-68805575D01*
X45608541Y-69053660D01*
X45671164Y-69095503D01*
X52191019Y-75615360D01*
X52232860Y-75677980D01*
X52480945Y-75843744D01*
X52699714Y-75887260D01*
X52773579Y-75901953D01*
X52847444Y-75887260D01*
X65298262Y-75887260D01*
X65198482Y-75926508D01*
X65044371Y-76404324D01*
X65084843Y-76904745D01*
X65198482Y-77179092D01*
X65399392Y-77258119D01*
X66104711Y-76552800D01*
X66090569Y-76538658D01*
X66308358Y-76320869D01*
X66322500Y-76335011D01*
X66336642Y-76320869D01*
X66554431Y-76538658D01*
X66540289Y-76552800D01*
X66554431Y-76566942D01*
X66336642Y-76784731D01*
X66322500Y-76770589D01*
X65617181Y-77475908D01*
X65696208Y-77676818D01*
X66174024Y-77830929D01*
X66674445Y-77790457D01*
X66948792Y-77676818D01*
X67027818Y-77475910D01*
X67122070Y-77570162D01*
X67186103Y-77506129D01*
X67172500Y-77538969D01*
X67172500Y-77966631D01*
X67197837Y-78027801D01*
X58632322Y-78027801D01*
X57327028Y-76722509D01*
X57277027Y-76601796D01*
X57051984Y-76376753D01*
X56757950Y-76254960D01*
X56439690Y-76254960D01*
X56145656Y-76376753D01*
X55920613Y-76601796D01*
X55798820Y-76895830D01*
X55798820Y-77214090D01*
X55920613Y-77508124D01*
X56145656Y-77733167D01*
X56266369Y-77783168D01*
X57458199Y-78975000D01*
X44197355Y-78975000D01*
X44450355Y-78722000D01*
X44617820Y-78317704D01*
X44617820Y-77880096D01*
X44450355Y-77475800D01*
X44140920Y-77166365D01*
X43736624Y-76998900D01*
X43299016Y-76998900D01*
X42894720Y-77166365D01*
X42585285Y-77475800D01*
X42417820Y-77880096D01*
X42417820Y-78317704D01*
X42585285Y-78722000D01*
X42838285Y-78975000D01*
X41576395Y-78975000D01*
X41022839Y-77339880D01*
X41041187Y-77341324D01*
X41678828Y-77134142D01*
X41759083Y-76976633D01*
X41428126Y-75958051D01*
X41409104Y-75964232D01*
X41376172Y-75862874D01*
X41721051Y-75862874D01*
X42052009Y-76881456D01*
X42209518Y-76961711D01*
X42847159Y-76754528D01*
X42998413Y-76625345D01*
X43088717Y-76448113D01*
X43104324Y-76249813D01*
X43042857Y-76060637D01*
X42897142Y-75612172D01*
X42739633Y-75531917D01*
X41721051Y-75862874D01*
X41376172Y-75862874D01*
X41313928Y-75671306D01*
X41332949Y-75665126D01*
X41326768Y-75646104D01*
X41619694Y-75550928D01*
X41625874Y-75569949D01*
X42644456Y-75238991D01*
X42724711Y-75081482D01*
X42578995Y-74633017D01*
X42517528Y-74443841D01*
X42388345Y-74292587D01*
X42211112Y-74202282D01*
X42012813Y-74186676D01*
X41748080Y-74272693D01*
X42013769Y-73875060D01*
X42118545Y-73348316D01*
X42013769Y-72821572D01*
X41715393Y-72375020D01*
X41268841Y-72076644D01*
X40875060Y-71998316D01*
X40792223Y-71998316D01*
X40930490Y-71905929D01*
X41228866Y-71459377D01*
X41333642Y-70932633D01*
X41228866Y-70405889D01*
X40930490Y-69959337D01*
X40483938Y-69660961D01*
X40090157Y-69582633D01*
X40007318Y-69582633D01*
X40145587Y-69490245D01*
X40443963Y-69043693D01*
X40548739Y-68516949D01*
X40443963Y-67990205D01*
X40172291Y-67583618D01*
X40172291Y-66675919D01*
X41834212Y-65013999D01*
X44255591Y-65013999D01*
X44354081Y-65033590D01*
G36*
X65417373Y-70430546D02*
X65449449Y-70478551D01*
X65639646Y-70605637D01*
X65807372Y-70639000D01*
X65807376Y-70639000D01*
X65864000Y-70650263D01*
X65920624Y-70639000D01*
X73339000Y-70639000D01*
X73339001Y-75294991D01*
X73120976Y-75224671D01*
X72620555Y-75265143D01*
X72346208Y-75378782D01*
X72267181Y-75579692D01*
X72972500Y-76285011D01*
X72986642Y-76270869D01*
X73204431Y-76488658D01*
X73190289Y-76502800D01*
X73204431Y-76516942D01*
X72986642Y-76734731D01*
X72972500Y-76720589D01*
X72958358Y-76734731D01*
X72740569Y-76516942D01*
X72754711Y-76502800D01*
X72049392Y-75797481D01*
X71848482Y-75876508D01*
X71694371Y-76354324D01*
X71734843Y-76854745D01*
X71761788Y-76919796D01*
X71712250Y-76870258D01*
X71616558Y-76965950D01*
X71560768Y-76784346D01*
X71472500Y-76757910D01*
X71472500Y-76338969D01*
X71308841Y-75943862D01*
X71006438Y-75641459D01*
X70611331Y-75477800D01*
X70183669Y-75477800D01*
X69788562Y-75641459D01*
X69647500Y-75782521D01*
X69506438Y-75641459D01*
X69111331Y-75477800D01*
X68894080Y-75477800D01*
X68075445Y-74659166D01*
X68033600Y-74596540D01*
X67785515Y-74430776D01*
X67566746Y-74387260D01*
X67566745Y-74387260D01*
X67492880Y-74372567D01*
X67419015Y-74387260D01*
X53084241Y-74387260D01*
X52739137Y-74042156D01*
X70611820Y-74042156D01*
X70611820Y-74479764D01*
X70779285Y-74884060D01*
X71088720Y-75193495D01*
X71493016Y-75360960D01*
X71930624Y-75360960D01*
X72334920Y-75193495D01*
X72644355Y-74884060D01*
X72811820Y-74479764D01*
X72811820Y-74042156D01*
X72644355Y-73637860D01*
X72334920Y-73328425D01*
X71930624Y-73160960D01*
X71493016Y-73160960D01*
X71088720Y-73328425D01*
X70779285Y-73637860D01*
X70611820Y-74042156D01*
X52739137Y-74042156D01*
X50796024Y-72099044D01*
X51007114Y-72099044D01*
X51301148Y-71977251D01*
X51526191Y-71752208D01*
X51647984Y-71458174D01*
X51647984Y-71139914D01*
X51526191Y-70845880D01*
X51301148Y-70620837D01*
X51180435Y-70570836D01*
X51130548Y-70520949D01*
X51130546Y-70520946D01*
X49444340Y-68834741D01*
X49444340Y-66692952D01*
X49677296Y-66537296D01*
X49975672Y-66090744D01*
X49990079Y-66018316D01*
X50180904Y-66396082D01*
X50580251Y-66739573D01*
X50882088Y-66864585D01*
X51090000Y-66779281D01*
X51090000Y-65718000D01*
X51070000Y-65718000D01*
X51070000Y-65410000D01*
X51090000Y-65410000D01*
X51090000Y-65390000D01*
X51398000Y-65390000D01*
X51398000Y-65410000D01*
X51418000Y-65410000D01*
X51418000Y-65718000D01*
X51398000Y-65718000D01*
X51398000Y-66779281D01*
X51605912Y-66864585D01*
X51907749Y-66739573D01*
X52307096Y-66396082D01*
X52497921Y-66018316D01*
X52512328Y-66090744D01*
X52810704Y-66537296D01*
X53257256Y-66835672D01*
X53651037Y-66914000D01*
X53916963Y-66914000D01*
X54310744Y-66835672D01*
X54757296Y-66537296D01*
X55054000Y-66093246D01*
X55350704Y-66537296D01*
X55797256Y-66835672D01*
X56191037Y-66914000D01*
X56456963Y-66914000D01*
X56850744Y-66835672D01*
X57297296Y-66537296D01*
X57504205Y-66227634D01*
X57504205Y-66414000D01*
X57543011Y-66609090D01*
X57653520Y-66774480D01*
X57818910Y-66884989D01*
X58014000Y-66923795D01*
X59714000Y-66923795D01*
X59909090Y-66884989D01*
X60074480Y-66774480D01*
X60184989Y-66609090D01*
X60223795Y-66414000D01*
X60223795Y-65236967D01*
X65417373Y-70430546D01*
X65417373Y-70430546D01*
G37*
X65417373Y-70430546D02*
X65449449Y-70478551D01*
X65639646Y-70605637D01*
X65807372Y-70639000D01*
X65807376Y-70639000D01*
X65864000Y-70650263D01*
X65920624Y-70639000D01*
X73339000Y-70639000D01*
X73339001Y-75294991D01*
X73120976Y-75224671D01*
X72620555Y-75265143D01*
X72346208Y-75378782D01*
X72267181Y-75579692D01*
X72972500Y-76285011D01*
X72986642Y-76270869D01*
X73204431Y-76488658D01*
X73190289Y-76502800D01*
X73204431Y-76516942D01*
X72986642Y-76734731D01*
X72972500Y-76720589D01*
X72958358Y-76734731D01*
X72740569Y-76516942D01*
X72754711Y-76502800D01*
X72049392Y-75797481D01*
X71848482Y-75876508D01*
X71694371Y-76354324D01*
X71734843Y-76854745D01*
X71761788Y-76919796D01*
X71712250Y-76870258D01*
X71616558Y-76965950D01*
X71560768Y-76784346D01*
X71472500Y-76757910D01*
X71472500Y-76338969D01*
X71308841Y-75943862D01*
X71006438Y-75641459D01*
X70611331Y-75477800D01*
X70183669Y-75477800D01*
X69788562Y-75641459D01*
X69647500Y-75782521D01*
X69506438Y-75641459D01*
X69111331Y-75477800D01*
X68894080Y-75477800D01*
X68075445Y-74659166D01*
X68033600Y-74596540D01*
X67785515Y-74430776D01*
X67566746Y-74387260D01*
X67566745Y-74387260D01*
X67492880Y-74372567D01*
X67419015Y-74387260D01*
X53084241Y-74387260D01*
X52739137Y-74042156D01*
X70611820Y-74042156D01*
X70611820Y-74479764D01*
X70779285Y-74884060D01*
X71088720Y-75193495D01*
X71493016Y-75360960D01*
X71930624Y-75360960D01*
X72334920Y-75193495D01*
X72644355Y-74884060D01*
X72811820Y-74479764D01*
X72811820Y-74042156D01*
X72644355Y-73637860D01*
X72334920Y-73328425D01*
X71930624Y-73160960D01*
X71493016Y-73160960D01*
X71088720Y-73328425D01*
X70779285Y-73637860D01*
X70611820Y-74042156D01*
X52739137Y-74042156D01*
X50796024Y-72099044D01*
X51007114Y-72099044D01*
X51301148Y-71977251D01*
X51526191Y-71752208D01*
X51647984Y-71458174D01*
X51647984Y-71139914D01*
X51526191Y-70845880D01*
X51301148Y-70620837D01*
X51180435Y-70570836D01*
X51130548Y-70520949D01*
X51130546Y-70520946D01*
X49444340Y-68834741D01*
X49444340Y-66692952D01*
X49677296Y-66537296D01*
X49975672Y-66090744D01*
X49990079Y-66018316D01*
X50180904Y-66396082D01*
X50580251Y-66739573D01*
X50882088Y-66864585D01*
X51090000Y-66779281D01*
X51090000Y-65718000D01*
X51070000Y-65718000D01*
X51070000Y-65410000D01*
X51090000Y-65410000D01*
X51090000Y-65390000D01*
X51398000Y-65390000D01*
X51398000Y-65410000D01*
X51418000Y-65410000D01*
X51418000Y-65718000D01*
X51398000Y-65718000D01*
X51398000Y-66779281D01*
X51605912Y-66864585D01*
X51907749Y-66739573D01*
X52307096Y-66396082D01*
X52497921Y-66018316D01*
X52512328Y-66090744D01*
X52810704Y-66537296D01*
X53257256Y-66835672D01*
X53651037Y-66914000D01*
X53916963Y-66914000D01*
X54310744Y-66835672D01*
X54757296Y-66537296D01*
X55054000Y-66093246D01*
X55350704Y-66537296D01*
X55797256Y-66835672D01*
X56191037Y-66914000D01*
X56456963Y-66914000D01*
X56850744Y-66835672D01*
X57297296Y-66537296D01*
X57504205Y-66227634D01*
X57504205Y-66414000D01*
X57543011Y-66609090D01*
X57653520Y-66774480D01*
X57818910Y-66884989D01*
X58014000Y-66923795D01*
X59714000Y-66923795D01*
X59909090Y-66884989D01*
X60074480Y-66774480D01*
X60184989Y-66609090D01*
X60223795Y-66414000D01*
X60223795Y-65236967D01*
X65417373Y-70430546D01*
G36*
X72346208Y-96692818D02*
X72824024Y-96846929D01*
X73324445Y-96806457D01*
X73339001Y-96800428D01*
X73339001Y-98041000D01*
X70276213Y-98041000D01*
X70353984Y-97924607D01*
X70397500Y-97705838D01*
X70397500Y-97705837D01*
X70402279Y-97681813D01*
X70478442Y-97605650D01*
X70534232Y-97787254D01*
X70943914Y-97909954D01*
X71369365Y-97866536D01*
X71560768Y-97787254D01*
X71616559Y-97605648D01*
X71047500Y-97036589D01*
X71033358Y-97050731D01*
X70815569Y-96832942D01*
X70829711Y-96818800D01*
X70815569Y-96804658D01*
X71033358Y-96586869D01*
X71047500Y-96601011D01*
X71061642Y-96586869D01*
X71279431Y-96804658D01*
X71265289Y-96818800D01*
X71834348Y-97387859D01*
X72015954Y-97332068D01*
X72138654Y-96922386D01*
X72096547Y-96509779D01*
X72172930Y-96586162D01*
X72267182Y-96491910D01*
X72346208Y-96692818D01*
X72346208Y-96692818D01*
G37*
X72346208Y-96692818D02*
X72824024Y-96846929D01*
X73324445Y-96806457D01*
X73339001Y-96800428D01*
X73339001Y-98041000D01*
X70276213Y-98041000D01*
X70353984Y-97924607D01*
X70397500Y-97705838D01*
X70397500Y-97705837D01*
X70402279Y-97681813D01*
X70478442Y-97605650D01*
X70534232Y-97787254D01*
X70943914Y-97909954D01*
X71369365Y-97866536D01*
X71560768Y-97787254D01*
X71616559Y-97605648D01*
X71047500Y-97036589D01*
X71033358Y-97050731D01*
X70815569Y-96832942D01*
X70829711Y-96818800D01*
X70815569Y-96804658D01*
X71033358Y-96586869D01*
X71047500Y-96601011D01*
X71061642Y-96586869D01*
X71279431Y-96804658D01*
X71265289Y-96818800D01*
X71834348Y-97387859D01*
X72015954Y-97332068D01*
X72138654Y-96922386D01*
X72096547Y-96509779D01*
X72172930Y-96586162D01*
X72267182Y-96491910D01*
X72346208Y-96692818D01*
G36*
X44354081Y-84099590D02*
X44452571Y-84079999D01*
X44907868Y-84079999D01*
X44892328Y-84103256D01*
X44787552Y-84630000D01*
X44892328Y-85156744D01*
X45190704Y-85603296D01*
X45399260Y-85742649D01*
X45399261Y-87505070D01*
X45384567Y-87578940D01*
X45404956Y-87681438D01*
X45442777Y-87871575D01*
X45608541Y-88119660D01*
X45671164Y-88161503D01*
X52191019Y-94681360D01*
X52232860Y-94743980D01*
X52480945Y-94909744D01*
X52699714Y-94953260D01*
X52773579Y-94967953D01*
X52847444Y-94953260D01*
X65298262Y-94953260D01*
X65198482Y-94992508D01*
X65044371Y-95470324D01*
X65084843Y-95970745D01*
X65198482Y-96245092D01*
X65399392Y-96324119D01*
X66104711Y-95618800D01*
X66090569Y-95604658D01*
X66308358Y-95386869D01*
X66322500Y-95401011D01*
X66336642Y-95386869D01*
X66554431Y-95604658D01*
X66540289Y-95618800D01*
X66554431Y-95632942D01*
X66336642Y-95850731D01*
X66322500Y-95836589D01*
X65617181Y-96541908D01*
X65696208Y-96742818D01*
X66174024Y-96896929D01*
X66674445Y-96856457D01*
X66948792Y-96742818D01*
X67027818Y-96541910D01*
X67122070Y-96636162D01*
X67186103Y-96572129D01*
X67172500Y-96604969D01*
X67172500Y-97032631D01*
X67197837Y-97093801D01*
X58632322Y-97093801D01*
X57327028Y-95788509D01*
X57277027Y-95667796D01*
X57051984Y-95442753D01*
X56757950Y-95320960D01*
X56439690Y-95320960D01*
X56145656Y-95442753D01*
X55920613Y-95667796D01*
X55798820Y-95961830D01*
X55798820Y-96280090D01*
X55920613Y-96574124D01*
X56145656Y-96799167D01*
X56266369Y-96849168D01*
X57458199Y-98041000D01*
X44197355Y-98041000D01*
X44450355Y-97788000D01*
X44617820Y-97383704D01*
X44617820Y-96946096D01*
X44450355Y-96541800D01*
X44140920Y-96232365D01*
X43736624Y-96064900D01*
X43299016Y-96064900D01*
X42894720Y-96232365D01*
X42585285Y-96541800D01*
X42417820Y-96946096D01*
X42417820Y-97383704D01*
X42585285Y-97788000D01*
X42838285Y-98041000D01*
X41576395Y-98041000D01*
X41022839Y-96405880D01*
X41041187Y-96407324D01*
X41678828Y-96200142D01*
X41759083Y-96042633D01*
X41428126Y-95024051D01*
X41409104Y-95030232D01*
X41376172Y-94928874D01*
X41721051Y-94928874D01*
X42052009Y-95947456D01*
X42209518Y-96027711D01*
X42847159Y-95820528D01*
X42998413Y-95691345D01*
X43088717Y-95514113D01*
X43104324Y-95315813D01*
X43042857Y-95126637D01*
X42897142Y-94678172D01*
X42739633Y-94597917D01*
X41721051Y-94928874D01*
X41376172Y-94928874D01*
X41313928Y-94737306D01*
X41332949Y-94731126D01*
X41326768Y-94712104D01*
X41619694Y-94616928D01*
X41625874Y-94635949D01*
X42644456Y-94304991D01*
X42724711Y-94147482D01*
X42578995Y-93699017D01*
X42517528Y-93509841D01*
X42388345Y-93358587D01*
X42211112Y-93268282D01*
X42012813Y-93252676D01*
X41748080Y-93338693D01*
X42013769Y-92941060D01*
X42118545Y-92414316D01*
X42013769Y-91887572D01*
X41715393Y-91441020D01*
X41268841Y-91142644D01*
X40875060Y-91064316D01*
X40792223Y-91064316D01*
X40930490Y-90971929D01*
X41228866Y-90525377D01*
X41333642Y-89998633D01*
X41228866Y-89471889D01*
X40930490Y-89025337D01*
X40483938Y-88726961D01*
X40090157Y-88648633D01*
X40007318Y-88648633D01*
X40145587Y-88556245D01*
X40443963Y-88109693D01*
X40548739Y-87582949D01*
X40443963Y-87056205D01*
X40172291Y-86649618D01*
X40172291Y-85741919D01*
X41834212Y-84079999D01*
X44255591Y-84079999D01*
X44354081Y-84099590D01*
X44354081Y-84099590D01*
G37*
X44354081Y-84099590D02*
X44452571Y-84079999D01*
X44907868Y-84079999D01*
X44892328Y-84103256D01*
X44787552Y-84630000D01*
X44892328Y-85156744D01*
X45190704Y-85603296D01*
X45399260Y-85742649D01*
X45399261Y-87505070D01*
X45384567Y-87578940D01*
X45404956Y-87681438D01*
X45442777Y-87871575D01*
X45608541Y-88119660D01*
X45671164Y-88161503D01*
X52191019Y-94681360D01*
X52232860Y-94743980D01*
X52480945Y-94909744D01*
X52699714Y-94953260D01*
X52773579Y-94967953D01*
X52847444Y-94953260D01*
X65298262Y-94953260D01*
X65198482Y-94992508D01*
X65044371Y-95470324D01*
X65084843Y-95970745D01*
X65198482Y-96245092D01*
X65399392Y-96324119D01*
X66104711Y-95618800D01*
X66090569Y-95604658D01*
X66308358Y-95386869D01*
X66322500Y-95401011D01*
X66336642Y-95386869D01*
X66554431Y-95604658D01*
X66540289Y-95618800D01*
X66554431Y-95632942D01*
X66336642Y-95850731D01*
X66322500Y-95836589D01*
X65617181Y-96541908D01*
X65696208Y-96742818D01*
X66174024Y-96896929D01*
X66674445Y-96856457D01*
X66948792Y-96742818D01*
X67027818Y-96541910D01*
X67122070Y-96636162D01*
X67186103Y-96572129D01*
X67172500Y-96604969D01*
X67172500Y-97032631D01*
X67197837Y-97093801D01*
X58632322Y-97093801D01*
X57327028Y-95788509D01*
X57277027Y-95667796D01*
X57051984Y-95442753D01*
X56757950Y-95320960D01*
X56439690Y-95320960D01*
X56145656Y-95442753D01*
X55920613Y-95667796D01*
X55798820Y-95961830D01*
X55798820Y-96280090D01*
X55920613Y-96574124D01*
X56145656Y-96799167D01*
X56266369Y-96849168D01*
X57458199Y-98041000D01*
X44197355Y-98041000D01*
X44450355Y-97788000D01*
X44617820Y-97383704D01*
X44617820Y-96946096D01*
X44450355Y-96541800D01*
X44140920Y-96232365D01*
X43736624Y-96064900D01*
X43299016Y-96064900D01*
X42894720Y-96232365D01*
X42585285Y-96541800D01*
X42417820Y-96946096D01*
X42417820Y-97383704D01*
X42585285Y-97788000D01*
X42838285Y-98041000D01*
X41576395Y-98041000D01*
X41022839Y-96405880D01*
X41041187Y-96407324D01*
X41678828Y-96200142D01*
X41759083Y-96042633D01*
X41428126Y-95024051D01*
X41409104Y-95030232D01*
X41376172Y-94928874D01*
X41721051Y-94928874D01*
X42052009Y-95947456D01*
X42209518Y-96027711D01*
X42847159Y-95820528D01*
X42998413Y-95691345D01*
X43088717Y-95514113D01*
X43104324Y-95315813D01*
X43042857Y-95126637D01*
X42897142Y-94678172D01*
X42739633Y-94597917D01*
X41721051Y-94928874D01*
X41376172Y-94928874D01*
X41313928Y-94737306D01*
X41332949Y-94731126D01*
X41326768Y-94712104D01*
X41619694Y-94616928D01*
X41625874Y-94635949D01*
X42644456Y-94304991D01*
X42724711Y-94147482D01*
X42578995Y-93699017D01*
X42517528Y-93509841D01*
X42388345Y-93358587D01*
X42211112Y-93268282D01*
X42012813Y-93252676D01*
X41748080Y-93338693D01*
X42013769Y-92941060D01*
X42118545Y-92414316D01*
X42013769Y-91887572D01*
X41715393Y-91441020D01*
X41268841Y-91142644D01*
X40875060Y-91064316D01*
X40792223Y-91064316D01*
X40930490Y-90971929D01*
X41228866Y-90525377D01*
X41333642Y-89998633D01*
X41228866Y-89471889D01*
X40930490Y-89025337D01*
X40483938Y-88726961D01*
X40090157Y-88648633D01*
X40007318Y-88648633D01*
X40145587Y-88556245D01*
X40443963Y-88109693D01*
X40548739Y-87582949D01*
X40443963Y-87056205D01*
X40172291Y-86649618D01*
X40172291Y-85741919D01*
X41834212Y-84079999D01*
X44255591Y-84079999D01*
X44354081Y-84099590D01*
G36*
X65417373Y-89496546D02*
X65449449Y-89544551D01*
X65639646Y-89671637D01*
X65807372Y-89705000D01*
X65807376Y-89705000D01*
X65864000Y-89716263D01*
X65920624Y-89705000D01*
X73339000Y-89705000D01*
X73339001Y-94360991D01*
X73120976Y-94290671D01*
X72620555Y-94331143D01*
X72346208Y-94444782D01*
X72267181Y-94645692D01*
X72972500Y-95351011D01*
X72986642Y-95336869D01*
X73204431Y-95554658D01*
X73190289Y-95568800D01*
X73204431Y-95582942D01*
X72986642Y-95800731D01*
X72972500Y-95786589D01*
X72958358Y-95800731D01*
X72740569Y-95582942D01*
X72754711Y-95568800D01*
X72049392Y-94863481D01*
X71848482Y-94942508D01*
X71694371Y-95420324D01*
X71734843Y-95920745D01*
X71761788Y-95985796D01*
X71712250Y-95936258D01*
X71616558Y-96031950D01*
X71560768Y-95850346D01*
X71472500Y-95823910D01*
X71472500Y-95404969D01*
X71308841Y-95009862D01*
X71006438Y-94707459D01*
X70611331Y-94543800D01*
X70183669Y-94543800D01*
X69788562Y-94707459D01*
X69647500Y-94848521D01*
X69506438Y-94707459D01*
X69111331Y-94543800D01*
X68894080Y-94543800D01*
X68075445Y-93725166D01*
X68033600Y-93662540D01*
X67785515Y-93496776D01*
X67566746Y-93453260D01*
X67566745Y-93453260D01*
X67492880Y-93438567D01*
X67419015Y-93453260D01*
X53084241Y-93453260D01*
X52739137Y-93108156D01*
X70611820Y-93108156D01*
X70611820Y-93545764D01*
X70779285Y-93950060D01*
X71088720Y-94259495D01*
X71493016Y-94426960D01*
X71930624Y-94426960D01*
X72334920Y-94259495D01*
X72644355Y-93950060D01*
X72811820Y-93545764D01*
X72811820Y-93108156D01*
X72644355Y-92703860D01*
X72334920Y-92394425D01*
X71930624Y-92226960D01*
X71493016Y-92226960D01*
X71088720Y-92394425D01*
X70779285Y-92703860D01*
X70611820Y-93108156D01*
X52739137Y-93108156D01*
X50796024Y-91165044D01*
X51007114Y-91165044D01*
X51301148Y-91043251D01*
X51526191Y-90818208D01*
X51647984Y-90524174D01*
X51647984Y-90205914D01*
X51526191Y-89911880D01*
X51301148Y-89686837D01*
X51180435Y-89636836D01*
X51130548Y-89586949D01*
X51130546Y-89586946D01*
X49444340Y-87900741D01*
X49444340Y-85758952D01*
X49677296Y-85603296D01*
X49975672Y-85156744D01*
X49990079Y-85084316D01*
X50180904Y-85462082D01*
X50580251Y-85805573D01*
X50882088Y-85930585D01*
X51090000Y-85845281D01*
X51090000Y-84784000D01*
X51070000Y-84784000D01*
X51070000Y-84476000D01*
X51090000Y-84476000D01*
X51090000Y-84456000D01*
X51398000Y-84456000D01*
X51398000Y-84476000D01*
X51418000Y-84476000D01*
X51418000Y-84784000D01*
X51398000Y-84784000D01*
X51398000Y-85845281D01*
X51605912Y-85930585D01*
X51907749Y-85805573D01*
X52307096Y-85462082D01*
X52497921Y-85084316D01*
X52512328Y-85156744D01*
X52810704Y-85603296D01*
X53257256Y-85901672D01*
X53651037Y-85980000D01*
X53916963Y-85980000D01*
X54310744Y-85901672D01*
X54757296Y-85603296D01*
X55054000Y-85159246D01*
X55350704Y-85603296D01*
X55797256Y-85901672D01*
X56191037Y-85980000D01*
X56456963Y-85980000D01*
X56850744Y-85901672D01*
X57297296Y-85603296D01*
X57504205Y-85293634D01*
X57504205Y-85480000D01*
X57543011Y-85675090D01*
X57653520Y-85840480D01*
X57818910Y-85950989D01*
X58014000Y-85989795D01*
X59714000Y-85989795D01*
X59909090Y-85950989D01*
X60074480Y-85840480D01*
X60184989Y-85675090D01*
X60223795Y-85480000D01*
X60223795Y-84302967D01*
X65417373Y-89496546D01*
X65417373Y-89496546D01*
G37*
X65417373Y-89496546D02*
X65449449Y-89544551D01*
X65639646Y-89671637D01*
X65807372Y-89705000D01*
X65807376Y-89705000D01*
X65864000Y-89716263D01*
X65920624Y-89705000D01*
X73339000Y-89705000D01*
X73339001Y-94360991D01*
X73120976Y-94290671D01*
X72620555Y-94331143D01*
X72346208Y-94444782D01*
X72267181Y-94645692D01*
X72972500Y-95351011D01*
X72986642Y-95336869D01*
X73204431Y-95554658D01*
X73190289Y-95568800D01*
X73204431Y-95582942D01*
X72986642Y-95800731D01*
X72972500Y-95786589D01*
X72958358Y-95800731D01*
X72740569Y-95582942D01*
X72754711Y-95568800D01*
X72049392Y-94863481D01*
X71848482Y-94942508D01*
X71694371Y-95420324D01*
X71734843Y-95920745D01*
X71761788Y-95985796D01*
X71712250Y-95936258D01*
X71616558Y-96031950D01*
X71560768Y-95850346D01*
X71472500Y-95823910D01*
X71472500Y-95404969D01*
X71308841Y-95009862D01*
X71006438Y-94707459D01*
X70611331Y-94543800D01*
X70183669Y-94543800D01*
X69788562Y-94707459D01*
X69647500Y-94848521D01*
X69506438Y-94707459D01*
X69111331Y-94543800D01*
X68894080Y-94543800D01*
X68075445Y-93725166D01*
X68033600Y-93662540D01*
X67785515Y-93496776D01*
X67566746Y-93453260D01*
X67566745Y-93453260D01*
X67492880Y-93438567D01*
X67419015Y-93453260D01*
X53084241Y-93453260D01*
X52739137Y-93108156D01*
X70611820Y-93108156D01*
X70611820Y-93545764D01*
X70779285Y-93950060D01*
X71088720Y-94259495D01*
X71493016Y-94426960D01*
X71930624Y-94426960D01*
X72334920Y-94259495D01*
X72644355Y-93950060D01*
X72811820Y-93545764D01*
X72811820Y-93108156D01*
X72644355Y-92703860D01*
X72334920Y-92394425D01*
X71930624Y-92226960D01*
X71493016Y-92226960D01*
X71088720Y-92394425D01*
X70779285Y-92703860D01*
X70611820Y-93108156D01*
X52739137Y-93108156D01*
X50796024Y-91165044D01*
X51007114Y-91165044D01*
X51301148Y-91043251D01*
X51526191Y-90818208D01*
X51647984Y-90524174D01*
X51647984Y-90205914D01*
X51526191Y-89911880D01*
X51301148Y-89686837D01*
X51180435Y-89636836D01*
X51130548Y-89586949D01*
X51130546Y-89586946D01*
X49444340Y-87900741D01*
X49444340Y-85758952D01*
X49677296Y-85603296D01*
X49975672Y-85156744D01*
X49990079Y-85084316D01*
X50180904Y-85462082D01*
X50580251Y-85805573D01*
X50882088Y-85930585D01*
X51090000Y-85845281D01*
X51090000Y-84784000D01*
X51070000Y-84784000D01*
X51070000Y-84476000D01*
X51090000Y-84476000D01*
X51090000Y-84456000D01*
X51398000Y-84456000D01*
X51398000Y-84476000D01*
X51418000Y-84476000D01*
X51418000Y-84784000D01*
X51398000Y-84784000D01*
X51398000Y-85845281D01*
X51605912Y-85930585D01*
X51907749Y-85805573D01*
X52307096Y-85462082D01*
X52497921Y-85084316D01*
X52512328Y-85156744D01*
X52810704Y-85603296D01*
X53257256Y-85901672D01*
X53651037Y-85980000D01*
X53916963Y-85980000D01*
X54310744Y-85901672D01*
X54757296Y-85603296D01*
X55054000Y-85159246D01*
X55350704Y-85603296D01*
X55797256Y-85901672D01*
X56191037Y-85980000D01*
X56456963Y-85980000D01*
X56850744Y-85901672D01*
X57297296Y-85603296D01*
X57504205Y-85293634D01*
X57504205Y-85480000D01*
X57543011Y-85675090D01*
X57653520Y-85840480D01*
X57818910Y-85950989D01*
X58014000Y-85989795D01*
X59714000Y-85989795D01*
X59909090Y-85950989D01*
X60074480Y-85840480D01*
X60184989Y-85675090D01*
X60223795Y-85480000D01*
X60223795Y-84302967D01*
X65417373Y-89496546D01*
G36*
X72346208Y-115758818D02*
X72824024Y-115912929D01*
X73324445Y-115872457D01*
X73339001Y-115866428D01*
X73339001Y-117107000D01*
X70276213Y-117107000D01*
X70353984Y-116990607D01*
X70397500Y-116771838D01*
X70397500Y-116771837D01*
X70402279Y-116747813D01*
X70478442Y-116671650D01*
X70534232Y-116853254D01*
X70943914Y-116975954D01*
X71369365Y-116932536D01*
X71560768Y-116853254D01*
X71616559Y-116671648D01*
X71047500Y-116102589D01*
X71033358Y-116116731D01*
X70815569Y-115898942D01*
X70829711Y-115884800D01*
X70815569Y-115870658D01*
X71033358Y-115652869D01*
X71047500Y-115667011D01*
X71061642Y-115652869D01*
X71279431Y-115870658D01*
X71265289Y-115884800D01*
X71834348Y-116453859D01*
X72015954Y-116398068D01*
X72138654Y-115988386D01*
X72096547Y-115575779D01*
X72172930Y-115652162D01*
X72267182Y-115557910D01*
X72346208Y-115758818D01*
X72346208Y-115758818D01*
G37*
X72346208Y-115758818D02*
X72824024Y-115912929D01*
X73324445Y-115872457D01*
X73339001Y-115866428D01*
X73339001Y-117107000D01*
X70276213Y-117107000D01*
X70353984Y-116990607D01*
X70397500Y-116771838D01*
X70397500Y-116771837D01*
X70402279Y-116747813D01*
X70478442Y-116671650D01*
X70534232Y-116853254D01*
X70943914Y-116975954D01*
X71369365Y-116932536D01*
X71560768Y-116853254D01*
X71616559Y-116671648D01*
X71047500Y-116102589D01*
X71033358Y-116116731D01*
X70815569Y-115898942D01*
X70829711Y-115884800D01*
X70815569Y-115870658D01*
X71033358Y-115652869D01*
X71047500Y-115667011D01*
X71061642Y-115652869D01*
X71279431Y-115870658D01*
X71265289Y-115884800D01*
X71834348Y-116453859D01*
X72015954Y-116398068D01*
X72138654Y-115988386D01*
X72096547Y-115575779D01*
X72172930Y-115652162D01*
X72267182Y-115557910D01*
X72346208Y-115758818D01*
G36*
X44354081Y-103165590D02*
X44452571Y-103145999D01*
X44907868Y-103145999D01*
X44892328Y-103169256D01*
X44787552Y-103696000D01*
X44892328Y-104222744D01*
X45190704Y-104669296D01*
X45399260Y-104808649D01*
X45399261Y-106571070D01*
X45384567Y-106644940D01*
X45404956Y-106747438D01*
X45442777Y-106937575D01*
X45608541Y-107185660D01*
X45671164Y-107227503D01*
X52191019Y-113747360D01*
X52232860Y-113809980D01*
X52480945Y-113975744D01*
X52699714Y-114019260D01*
X52773579Y-114033953D01*
X52847444Y-114019260D01*
X65298262Y-114019260D01*
X65198482Y-114058508D01*
X65044371Y-114536324D01*
X65084843Y-115036745D01*
X65198482Y-115311092D01*
X65399392Y-115390119D01*
X66104711Y-114684800D01*
X66090569Y-114670658D01*
X66308358Y-114452869D01*
X66322500Y-114467011D01*
X66336642Y-114452869D01*
X66554431Y-114670658D01*
X66540289Y-114684800D01*
X66554431Y-114698942D01*
X66336642Y-114916731D01*
X66322500Y-114902589D01*
X65617181Y-115607908D01*
X65696208Y-115808818D01*
X66174024Y-115962929D01*
X66674445Y-115922457D01*
X66948792Y-115808818D01*
X67027818Y-115607910D01*
X67122070Y-115702162D01*
X67186103Y-115638129D01*
X67172500Y-115670969D01*
X67172500Y-116098631D01*
X67197837Y-116159801D01*
X58632322Y-116159801D01*
X57327028Y-114854509D01*
X57277027Y-114733796D01*
X57051984Y-114508753D01*
X56757950Y-114386960D01*
X56439690Y-114386960D01*
X56145656Y-114508753D01*
X55920613Y-114733796D01*
X55798820Y-115027830D01*
X55798820Y-115346090D01*
X55920613Y-115640124D01*
X56145656Y-115865167D01*
X56266369Y-115915168D01*
X57458199Y-117107000D01*
X44197355Y-117107000D01*
X44450355Y-116854000D01*
X44617820Y-116449704D01*
X44617820Y-116012096D01*
X44450355Y-115607800D01*
X44140920Y-115298365D01*
X43736624Y-115130900D01*
X43299016Y-115130900D01*
X42894720Y-115298365D01*
X42585285Y-115607800D01*
X42417820Y-116012096D01*
X42417820Y-116449704D01*
X42585285Y-116854000D01*
X42838285Y-117107000D01*
X41576395Y-117107000D01*
X41022839Y-115471880D01*
X41041187Y-115473324D01*
X41678828Y-115266142D01*
X41759083Y-115108633D01*
X41428126Y-114090051D01*
X41409104Y-114096232D01*
X41376172Y-113994874D01*
X41721051Y-113994874D01*
X42052009Y-115013456D01*
X42209518Y-115093711D01*
X42847159Y-114886528D01*
X42998413Y-114757345D01*
X43088717Y-114580113D01*
X43104324Y-114381813D01*
X43042857Y-114192637D01*
X42897142Y-113744172D01*
X42739633Y-113663917D01*
X41721051Y-113994874D01*
X41376172Y-113994874D01*
X41313928Y-113803306D01*
X41332949Y-113797126D01*
X41326768Y-113778104D01*
X41619694Y-113682928D01*
X41625874Y-113701949D01*
X42644456Y-113370991D01*
X42724711Y-113213482D01*
X42578995Y-112765017D01*
X42517528Y-112575841D01*
X42388345Y-112424587D01*
X42211112Y-112334282D01*
X42012813Y-112318676D01*
X41748080Y-112404693D01*
X42013769Y-112007060D01*
X42118545Y-111480316D01*
X42013769Y-110953572D01*
X41715393Y-110507020D01*
X41268841Y-110208644D01*
X40875060Y-110130316D01*
X40792223Y-110130316D01*
X40930490Y-110037929D01*
X41228866Y-109591377D01*
X41333642Y-109064633D01*
X41228866Y-108537889D01*
X40930490Y-108091337D01*
X40483938Y-107792961D01*
X40090157Y-107714633D01*
X40007318Y-107714633D01*
X40145587Y-107622245D01*
X40443963Y-107175693D01*
X40548739Y-106648949D01*
X40443963Y-106122205D01*
X40172291Y-105715618D01*
X40172291Y-104807919D01*
X41834212Y-103145999D01*
X44255591Y-103145999D01*
X44354081Y-103165590D01*
X44354081Y-103165590D01*
G37*
X44354081Y-103165590D02*
X44452571Y-103145999D01*
X44907868Y-103145999D01*
X44892328Y-103169256D01*
X44787552Y-103696000D01*
X44892328Y-104222744D01*
X45190704Y-104669296D01*
X45399260Y-104808649D01*
X45399261Y-106571070D01*
X45384567Y-106644940D01*
X45404956Y-106747438D01*
X45442777Y-106937575D01*
X45608541Y-107185660D01*
X45671164Y-107227503D01*
X52191019Y-113747360D01*
X52232860Y-113809980D01*
X52480945Y-113975744D01*
X52699714Y-114019260D01*
X52773579Y-114033953D01*
X52847444Y-114019260D01*
X65298262Y-114019260D01*
X65198482Y-114058508D01*
X65044371Y-114536324D01*
X65084843Y-115036745D01*
X65198482Y-115311092D01*
X65399392Y-115390119D01*
X66104711Y-114684800D01*
X66090569Y-114670658D01*
X66308358Y-114452869D01*
X66322500Y-114467011D01*
X66336642Y-114452869D01*
X66554431Y-114670658D01*
X66540289Y-114684800D01*
X66554431Y-114698942D01*
X66336642Y-114916731D01*
X66322500Y-114902589D01*
X65617181Y-115607908D01*
X65696208Y-115808818D01*
X66174024Y-115962929D01*
X66674445Y-115922457D01*
X66948792Y-115808818D01*
X67027818Y-115607910D01*
X67122070Y-115702162D01*
X67186103Y-115638129D01*
X67172500Y-115670969D01*
X67172500Y-116098631D01*
X67197837Y-116159801D01*
X58632322Y-116159801D01*
X57327028Y-114854509D01*
X57277027Y-114733796D01*
X57051984Y-114508753D01*
X56757950Y-114386960D01*
X56439690Y-114386960D01*
X56145656Y-114508753D01*
X55920613Y-114733796D01*
X55798820Y-115027830D01*
X55798820Y-115346090D01*
X55920613Y-115640124D01*
X56145656Y-115865167D01*
X56266369Y-115915168D01*
X57458199Y-117107000D01*
X44197355Y-117107000D01*
X44450355Y-116854000D01*
X44617820Y-116449704D01*
X44617820Y-116012096D01*
X44450355Y-115607800D01*
X44140920Y-115298365D01*
X43736624Y-115130900D01*
X43299016Y-115130900D01*
X42894720Y-115298365D01*
X42585285Y-115607800D01*
X42417820Y-116012096D01*
X42417820Y-116449704D01*
X42585285Y-116854000D01*
X42838285Y-117107000D01*
X41576395Y-117107000D01*
X41022839Y-115471880D01*
X41041187Y-115473324D01*
X41678828Y-115266142D01*
X41759083Y-115108633D01*
X41428126Y-114090051D01*
X41409104Y-114096232D01*
X41376172Y-113994874D01*
X41721051Y-113994874D01*
X42052009Y-115013456D01*
X42209518Y-115093711D01*
X42847159Y-114886528D01*
X42998413Y-114757345D01*
X43088717Y-114580113D01*
X43104324Y-114381813D01*
X43042857Y-114192637D01*
X42897142Y-113744172D01*
X42739633Y-113663917D01*
X41721051Y-113994874D01*
X41376172Y-113994874D01*
X41313928Y-113803306D01*
X41332949Y-113797126D01*
X41326768Y-113778104D01*
X41619694Y-113682928D01*
X41625874Y-113701949D01*
X42644456Y-113370991D01*
X42724711Y-113213482D01*
X42578995Y-112765017D01*
X42517528Y-112575841D01*
X42388345Y-112424587D01*
X42211112Y-112334282D01*
X42012813Y-112318676D01*
X41748080Y-112404693D01*
X42013769Y-112007060D01*
X42118545Y-111480316D01*
X42013769Y-110953572D01*
X41715393Y-110507020D01*
X41268841Y-110208644D01*
X40875060Y-110130316D01*
X40792223Y-110130316D01*
X40930490Y-110037929D01*
X41228866Y-109591377D01*
X41333642Y-109064633D01*
X41228866Y-108537889D01*
X40930490Y-108091337D01*
X40483938Y-107792961D01*
X40090157Y-107714633D01*
X40007318Y-107714633D01*
X40145587Y-107622245D01*
X40443963Y-107175693D01*
X40548739Y-106648949D01*
X40443963Y-106122205D01*
X40172291Y-105715618D01*
X40172291Y-104807919D01*
X41834212Y-103145999D01*
X44255591Y-103145999D01*
X44354081Y-103165590D01*
G36*
X65417373Y-108562546D02*
X65449449Y-108610551D01*
X65639646Y-108737637D01*
X65807372Y-108771000D01*
X65807376Y-108771000D01*
X65864000Y-108782263D01*
X65920624Y-108771000D01*
X73339000Y-108771000D01*
X73339001Y-113426991D01*
X73120976Y-113356671D01*
X72620555Y-113397143D01*
X72346208Y-113510782D01*
X72267181Y-113711692D01*
X72972500Y-114417011D01*
X72986642Y-114402869D01*
X73204431Y-114620658D01*
X73190289Y-114634800D01*
X73204431Y-114648942D01*
X72986642Y-114866731D01*
X72972500Y-114852589D01*
X72958358Y-114866731D01*
X72740569Y-114648942D01*
X72754711Y-114634800D01*
X72049392Y-113929481D01*
X71848482Y-114008508D01*
X71694371Y-114486324D01*
X71734843Y-114986745D01*
X71761788Y-115051796D01*
X71712250Y-115002258D01*
X71616558Y-115097950D01*
X71560768Y-114916346D01*
X71472500Y-114889910D01*
X71472500Y-114470969D01*
X71308841Y-114075862D01*
X71006438Y-113773459D01*
X70611331Y-113609800D01*
X70183669Y-113609800D01*
X69788562Y-113773459D01*
X69647500Y-113914521D01*
X69506438Y-113773459D01*
X69111331Y-113609800D01*
X68894080Y-113609800D01*
X68075445Y-112791166D01*
X68033600Y-112728540D01*
X67785515Y-112562776D01*
X67566746Y-112519260D01*
X67566745Y-112519260D01*
X67492880Y-112504567D01*
X67419015Y-112519260D01*
X53084241Y-112519260D01*
X52739137Y-112174156D01*
X70611820Y-112174156D01*
X70611820Y-112611764D01*
X70779285Y-113016060D01*
X71088720Y-113325495D01*
X71493016Y-113492960D01*
X71930624Y-113492960D01*
X72334920Y-113325495D01*
X72644355Y-113016060D01*
X72811820Y-112611764D01*
X72811820Y-112174156D01*
X72644355Y-111769860D01*
X72334920Y-111460425D01*
X71930624Y-111292960D01*
X71493016Y-111292960D01*
X71088720Y-111460425D01*
X70779285Y-111769860D01*
X70611820Y-112174156D01*
X52739137Y-112174156D01*
X50796024Y-110231044D01*
X51007114Y-110231044D01*
X51301148Y-110109251D01*
X51526191Y-109884208D01*
X51647984Y-109590174D01*
X51647984Y-109271914D01*
X51526191Y-108977880D01*
X51301148Y-108752837D01*
X51180435Y-108702836D01*
X51130548Y-108652949D01*
X51130546Y-108652946D01*
X49444340Y-106966741D01*
X49444340Y-104824952D01*
X49677296Y-104669296D01*
X49975672Y-104222744D01*
X49990079Y-104150316D01*
X50180904Y-104528082D01*
X50580251Y-104871573D01*
X50882088Y-104996585D01*
X51090000Y-104911281D01*
X51090000Y-103850000D01*
X51070000Y-103850000D01*
X51070000Y-103542000D01*
X51090000Y-103542000D01*
X51090000Y-103522000D01*
X51398000Y-103522000D01*
X51398000Y-103542000D01*
X51418000Y-103542000D01*
X51418000Y-103850000D01*
X51398000Y-103850000D01*
X51398000Y-104911281D01*
X51605912Y-104996585D01*
X51907749Y-104871573D01*
X52307096Y-104528082D01*
X52497921Y-104150316D01*
X52512328Y-104222744D01*
X52810704Y-104669296D01*
X53257256Y-104967672D01*
X53651037Y-105046000D01*
X53916963Y-105046000D01*
X54310744Y-104967672D01*
X54757296Y-104669296D01*
X55054000Y-104225246D01*
X55350704Y-104669296D01*
X55797256Y-104967672D01*
X56191037Y-105046000D01*
X56456963Y-105046000D01*
X56850744Y-104967672D01*
X57297296Y-104669296D01*
X57504205Y-104359634D01*
X57504205Y-104546000D01*
X57543011Y-104741090D01*
X57653520Y-104906480D01*
X57818910Y-105016989D01*
X58014000Y-105055795D01*
X59714000Y-105055795D01*
X59909090Y-105016989D01*
X60074480Y-104906480D01*
X60184989Y-104741090D01*
X60223795Y-104546000D01*
X60223795Y-103368967D01*
X65417373Y-108562546D01*
X65417373Y-108562546D01*
G37*
X65417373Y-108562546D02*
X65449449Y-108610551D01*
X65639646Y-108737637D01*
X65807372Y-108771000D01*
X65807376Y-108771000D01*
X65864000Y-108782263D01*
X65920624Y-108771000D01*
X73339000Y-108771000D01*
X73339001Y-113426991D01*
X73120976Y-113356671D01*
X72620555Y-113397143D01*
X72346208Y-113510782D01*
X72267181Y-113711692D01*
X72972500Y-114417011D01*
X72986642Y-114402869D01*
X73204431Y-114620658D01*
X73190289Y-114634800D01*
X73204431Y-114648942D01*
X72986642Y-114866731D01*
X72972500Y-114852589D01*
X72958358Y-114866731D01*
X72740569Y-114648942D01*
X72754711Y-114634800D01*
X72049392Y-113929481D01*
X71848482Y-114008508D01*
X71694371Y-114486324D01*
X71734843Y-114986745D01*
X71761788Y-115051796D01*
X71712250Y-115002258D01*
X71616558Y-115097950D01*
X71560768Y-114916346D01*
X71472500Y-114889910D01*
X71472500Y-114470969D01*
X71308841Y-114075862D01*
X71006438Y-113773459D01*
X70611331Y-113609800D01*
X70183669Y-113609800D01*
X69788562Y-113773459D01*
X69647500Y-113914521D01*
X69506438Y-113773459D01*
X69111331Y-113609800D01*
X68894080Y-113609800D01*
X68075445Y-112791166D01*
X68033600Y-112728540D01*
X67785515Y-112562776D01*
X67566746Y-112519260D01*
X67566745Y-112519260D01*
X67492880Y-112504567D01*
X67419015Y-112519260D01*
X53084241Y-112519260D01*
X52739137Y-112174156D01*
X70611820Y-112174156D01*
X70611820Y-112611764D01*
X70779285Y-113016060D01*
X71088720Y-113325495D01*
X71493016Y-113492960D01*
X71930624Y-113492960D01*
X72334920Y-113325495D01*
X72644355Y-113016060D01*
X72811820Y-112611764D01*
X72811820Y-112174156D01*
X72644355Y-111769860D01*
X72334920Y-111460425D01*
X71930624Y-111292960D01*
X71493016Y-111292960D01*
X71088720Y-111460425D01*
X70779285Y-111769860D01*
X70611820Y-112174156D01*
X52739137Y-112174156D01*
X50796024Y-110231044D01*
X51007114Y-110231044D01*
X51301148Y-110109251D01*
X51526191Y-109884208D01*
X51647984Y-109590174D01*
X51647984Y-109271914D01*
X51526191Y-108977880D01*
X51301148Y-108752837D01*
X51180435Y-108702836D01*
X51130548Y-108652949D01*
X51130546Y-108652946D01*
X49444340Y-106966741D01*
X49444340Y-104824952D01*
X49677296Y-104669296D01*
X49975672Y-104222744D01*
X49990079Y-104150316D01*
X50180904Y-104528082D01*
X50580251Y-104871573D01*
X50882088Y-104996585D01*
X51090000Y-104911281D01*
X51090000Y-103850000D01*
X51070000Y-103850000D01*
X51070000Y-103542000D01*
X51090000Y-103542000D01*
X51090000Y-103522000D01*
X51398000Y-103522000D01*
X51398000Y-103542000D01*
X51418000Y-103542000D01*
X51418000Y-103850000D01*
X51398000Y-103850000D01*
X51398000Y-104911281D01*
X51605912Y-104996585D01*
X51907749Y-104871573D01*
X52307096Y-104528082D01*
X52497921Y-104150316D01*
X52512328Y-104222744D01*
X52810704Y-104669296D01*
X53257256Y-104967672D01*
X53651037Y-105046000D01*
X53916963Y-105046000D01*
X54310744Y-104967672D01*
X54757296Y-104669296D01*
X55054000Y-104225246D01*
X55350704Y-104669296D01*
X55797256Y-104967672D01*
X56191037Y-105046000D01*
X56456963Y-105046000D01*
X56850744Y-104967672D01*
X57297296Y-104669296D01*
X57504205Y-104359634D01*
X57504205Y-104546000D01*
X57543011Y-104741090D01*
X57653520Y-104906480D01*
X57818910Y-105016989D01*
X58014000Y-105055795D01*
X59714000Y-105055795D01*
X59909090Y-105016989D01*
X60074480Y-104906480D01*
X60184989Y-104741090D01*
X60223795Y-104546000D01*
X60223795Y-103368967D01*
X65417373Y-108562546D01*
G04 #@! TD*
M02*
