G04 #@! TF.FileFunction,Legend,Top*
%FSLAX46Y46*%
G04 Gerber Fmt 4.6, Leading zero omitted, Abs format (unit mm)*
G04 Created by KiCad (PCBNEW 4.0.4+e1-6308~48~ubuntu16.04.1-stable) date Fri Mar 30 16:09:55 2018*
%MOMM*%
%LPD*%
G01*
G04 APERTURE LIST*
%ADD10C,0.100000*%
%ADD11C,0.150000*%
%ADD12C,0.120000*%
G04 APERTURE END LIST*
D10*
D11*
X72346000Y-56410000D02*
X74346000Y-56410000D01*
X72346000Y-55610000D02*
X73146000Y-55610000D01*
X74346000Y-56410000D02*
X74346000Y-57210000D01*
X79546000Y-56410000D02*
X78146000Y-56410000D01*
X78146000Y-56410000D02*
X77946000Y-56410000D01*
X77946000Y-56410000D02*
X77746000Y-56410000D01*
X77746000Y-56410000D02*
X77746000Y-57010000D01*
X77746000Y-57010000D02*
X77746000Y-57210000D01*
X77746000Y-57210000D02*
X77746000Y-57010000D01*
X73146000Y-55610000D02*
X73146000Y-52410000D01*
X73146000Y-52410000D02*
X78746000Y-52410000D01*
X78746000Y-52410000D02*
X78746000Y-55410000D01*
X78746000Y-55410000D02*
X79546000Y-55410000D01*
X72346000Y-51610000D02*
X79546000Y-51610000D01*
X79546000Y-51610000D02*
X79546000Y-57210000D01*
X79546000Y-57210000D02*
X72346000Y-57210000D01*
X72346000Y-57210000D02*
X72346000Y-51610000D01*
D12*
X83503392Y-46587665D02*
G75*
G03X83346484Y-49820000I1078608J-1672335D01*
G01*
X85660608Y-46587665D02*
G75*
G02X85817516Y-49820000I-1078608J-1672335D01*
G01*
X83502163Y-47218870D02*
G75*
G03X83502000Y-49300961I1079837J-1041130D01*
G01*
X85661837Y-47218870D02*
G75*
G02X85662000Y-49300961I-1079837J-1041130D01*
G01*
X83346000Y-49820000D02*
X83502000Y-49820000D01*
X85662000Y-49820000D02*
X85818000Y-49820000D01*
X87122000Y-68460000D02*
X71762000Y-68460000D01*
X71762000Y-68460000D02*
X71762000Y-71240000D01*
X71762000Y-71240000D02*
X87122000Y-71240000D01*
X87122000Y-71240000D02*
X87122000Y-68460000D01*
X88392000Y-68460000D02*
X89782000Y-68460000D01*
X89782000Y-68460000D02*
X89782000Y-69850000D01*
X77124000Y-47970000D02*
X77124000Y-48300000D01*
X77124000Y-48300000D02*
X70704000Y-48300000D01*
X70704000Y-48300000D02*
X70704000Y-47970000D01*
X77124000Y-46010000D02*
X77124000Y-45680000D01*
X77124000Y-45680000D02*
X70704000Y-45680000D01*
X70704000Y-45680000D02*
X70704000Y-46010000D01*
X62738000Y-45600000D02*
X60078000Y-45600000D01*
X60078000Y-45600000D02*
X60078000Y-48380000D01*
X60078000Y-48380000D02*
X62738000Y-48380000D01*
X62738000Y-48380000D02*
X62738000Y-45600000D01*
X64008000Y-45600000D02*
X65398000Y-45600000D01*
X65398000Y-45600000D02*
X65398000Y-46990000D01*
X87510000Y-50800000D02*
X87510000Y-53460000D01*
X87510000Y-53460000D02*
X90290000Y-53460000D01*
X90290000Y-53460000D02*
X90290000Y-50800000D01*
X90290000Y-50800000D02*
X87510000Y-50800000D01*
X87510000Y-49530000D02*
X87510000Y-48140000D01*
X87510000Y-48140000D02*
X88900000Y-48140000D01*
X87510000Y-55880000D02*
X87510000Y-56000000D01*
X87510000Y-56000000D02*
X90290000Y-56000000D01*
X90290000Y-56000000D02*
X90290000Y-55880000D01*
X90290000Y-55880000D02*
X87510000Y-55880000D01*
X87510000Y-54610000D02*
X87510000Y-53220000D01*
X87510000Y-53220000D02*
X88900000Y-53220000D01*
D11*
X59944000Y-54356000D02*
X59944000Y-88392000D01*
X59944000Y-88392000D02*
X70993000Y-88392000D01*
X59944000Y-54356000D02*
X70993000Y-54356000D01*
X70993000Y-54356000D02*
X70993000Y-88392000D01*
D12*
X62992000Y-53400000D02*
X70672000Y-53400000D01*
X70672000Y-53400000D02*
X70672000Y-50740000D01*
X70672000Y-50740000D02*
X62992000Y-50740000D01*
X62992000Y-50740000D02*
X62992000Y-53400000D01*
X61722000Y-53400000D02*
X60392000Y-53400000D01*
X60392000Y-53400000D02*
X60392000Y-52070000D01*
X71864000Y-62716000D02*
X71864000Y-67416000D01*
X71864000Y-67416000D02*
X83964000Y-67416000D01*
X83964000Y-67416000D02*
X83964000Y-62716000D01*
X83964000Y-62716000D02*
X71864000Y-62716000D01*
X74414000Y-62716000D02*
X74414000Y-63316000D01*
X74414000Y-63316000D02*
X72464000Y-63316000D01*
X72464000Y-63316000D02*
X72464000Y-66816000D01*
X72464000Y-66816000D02*
X83364000Y-66816000D01*
X83364000Y-66816000D02*
X83364000Y-63316000D01*
X83364000Y-63316000D02*
X81414000Y-63316000D01*
X81414000Y-63316000D02*
X81414000Y-62716000D01*
X71864000Y-64016000D02*
X72464000Y-64016000D01*
X71864000Y-65316000D02*
X72464000Y-65316000D01*
X83964000Y-64016000D02*
X83364000Y-64016000D01*
X83964000Y-65316000D02*
X83364000Y-65316000D01*
X73614000Y-62716000D02*
X73614000Y-62516000D01*
X73614000Y-62516000D02*
X73314000Y-62516000D01*
X73314000Y-62516000D02*
X73314000Y-62716000D01*
X73614000Y-62616000D02*
X73314000Y-62616000D01*
X74814000Y-66816000D02*
X74814000Y-66316000D01*
X74814000Y-66316000D02*
X75014000Y-66316000D01*
X75014000Y-66316000D02*
X75014000Y-66816000D01*
X74914000Y-66816000D02*
X74914000Y-66316000D01*
X76814000Y-66816000D02*
X76814000Y-66316000D01*
X76814000Y-66316000D02*
X77014000Y-66316000D01*
X77014000Y-66316000D02*
X77014000Y-66816000D01*
X76914000Y-66816000D02*
X76914000Y-66316000D01*
X78814000Y-66816000D02*
X78814000Y-66316000D01*
X78814000Y-66316000D02*
X79014000Y-66316000D01*
X79014000Y-66316000D02*
X79014000Y-66816000D01*
X78914000Y-66816000D02*
X78914000Y-66316000D01*
X80814000Y-66816000D02*
X80814000Y-66316000D01*
X80814000Y-66316000D02*
X81014000Y-66316000D01*
X81014000Y-66316000D02*
X81014000Y-66816000D01*
X80914000Y-66816000D02*
X80914000Y-66316000D01*
X72814000Y-62416000D02*
X71564000Y-62416000D01*
X71564000Y-62416000D02*
X71564000Y-63666000D01*
D11*
X78984095Y-49862381D02*
X78984095Y-50671905D01*
X79031714Y-50767143D01*
X79079333Y-50814762D01*
X79174571Y-50862381D01*
X79365048Y-50862381D01*
X79460286Y-50814762D01*
X79507905Y-50767143D01*
X79555524Y-50671905D01*
X79555524Y-49862381D01*
X80555524Y-50862381D02*
X79984095Y-50862381D01*
X80269809Y-50862381D02*
X80269809Y-49862381D01*
X80174571Y-50005238D01*
X80079333Y-50100476D01*
X79984095Y-50148095D01*
X82074381Y-48998095D02*
X81074381Y-48998095D01*
X81074381Y-48760000D01*
X81122000Y-48617142D01*
X81217238Y-48521904D01*
X81312476Y-48474285D01*
X81502952Y-48426666D01*
X81645810Y-48426666D01*
X81836286Y-48474285D01*
X81931524Y-48521904D01*
X82026762Y-48617142D01*
X82074381Y-48760000D01*
X82074381Y-48998095D01*
X82074381Y-47474285D02*
X82074381Y-48045714D01*
X82074381Y-47760000D02*
X81074381Y-47760000D01*
X81217238Y-47855238D01*
X81312476Y-47950476D01*
X81360095Y-48045714D01*
X91234381Y-70588095D02*
X90234381Y-70588095D01*
X90234381Y-70207142D01*
X90282000Y-70111904D01*
X90329619Y-70064285D01*
X90424857Y-70016666D01*
X90567714Y-70016666D01*
X90662952Y-70064285D01*
X90710571Y-70111904D01*
X90758190Y-70207142D01*
X90758190Y-70588095D01*
X91234381Y-69064285D02*
X91234381Y-69635714D01*
X91234381Y-69350000D02*
X90234381Y-69350000D01*
X90377238Y-69445238D01*
X90472476Y-69540476D01*
X90520095Y-69635714D01*
X73747334Y-49752381D02*
X73414000Y-49276190D01*
X73175905Y-49752381D02*
X73175905Y-48752381D01*
X73556858Y-48752381D01*
X73652096Y-48800000D01*
X73699715Y-48847619D01*
X73747334Y-48942857D01*
X73747334Y-49085714D01*
X73699715Y-49180952D01*
X73652096Y-49228571D01*
X73556858Y-49276190D01*
X73175905Y-49276190D01*
X74080667Y-48752381D02*
X74699715Y-48752381D01*
X74366381Y-49133333D01*
X74509239Y-49133333D01*
X74604477Y-49180952D01*
X74652096Y-49228571D01*
X74699715Y-49323810D01*
X74699715Y-49561905D01*
X74652096Y-49657143D01*
X74604477Y-49704762D01*
X74509239Y-49752381D01*
X74223524Y-49752381D01*
X74128286Y-49704762D01*
X74080667Y-49657143D01*
X66802762Y-48323333D02*
X66850381Y-48180476D01*
X66850381Y-47942380D01*
X66802762Y-47847142D01*
X66755143Y-47799523D01*
X66659905Y-47751904D01*
X66564667Y-47751904D01*
X66469429Y-47799523D01*
X66421810Y-47847142D01*
X66374190Y-47942380D01*
X66326571Y-48132857D01*
X66278952Y-48228095D01*
X66231333Y-48275714D01*
X66136095Y-48323333D01*
X66040857Y-48323333D01*
X65945619Y-48275714D01*
X65898000Y-48228095D01*
X65850381Y-48132857D01*
X65850381Y-47894761D01*
X65898000Y-47751904D01*
X65850381Y-47418571D02*
X66850381Y-47180476D01*
X66136095Y-46989999D01*
X66850381Y-46799523D01*
X65850381Y-46561428D01*
X66850381Y-45656666D02*
X66850381Y-46228095D01*
X66850381Y-45942381D02*
X65850381Y-45942381D01*
X65993238Y-46037619D01*
X66088476Y-46132857D01*
X66136095Y-46228095D01*
X88161905Y-47592381D02*
X88161905Y-46592381D01*
X88542858Y-46592381D01*
X88638096Y-46640000D01*
X88685715Y-46687619D01*
X88733334Y-46782857D01*
X88733334Y-46925714D01*
X88685715Y-47020952D01*
X88638096Y-47068571D01*
X88542858Y-47116190D01*
X88161905Y-47116190D01*
X89066667Y-46592381D02*
X89685715Y-46592381D01*
X89352381Y-46973333D01*
X89495239Y-46973333D01*
X89590477Y-47020952D01*
X89638096Y-47068571D01*
X89685715Y-47163810D01*
X89685715Y-47401905D01*
X89638096Y-47497143D01*
X89590477Y-47544762D01*
X89495239Y-47592381D01*
X89209524Y-47592381D01*
X89114286Y-47544762D01*
X89066667Y-47497143D01*
X88161905Y-52672381D02*
X88161905Y-51672381D01*
X88542858Y-51672381D01*
X88638096Y-51720000D01*
X88685715Y-51767619D01*
X88733334Y-51862857D01*
X88733334Y-52005714D01*
X88685715Y-52100952D01*
X88638096Y-52148571D01*
X88542858Y-52196190D01*
X88161905Y-52196190D01*
X89114286Y-51767619D02*
X89161905Y-51720000D01*
X89257143Y-51672381D01*
X89495239Y-51672381D01*
X89590477Y-51720000D01*
X89638096Y-51767619D01*
X89685715Y-51862857D01*
X89685715Y-51958095D01*
X89638096Y-52100952D01*
X89066667Y-52672381D01*
X89685715Y-52672381D01*
X59844381Y-52808095D02*
X58844381Y-52808095D01*
X58844381Y-52427142D01*
X58892000Y-52331904D01*
X58939619Y-52284285D01*
X59034857Y-52236666D01*
X59177714Y-52236666D01*
X59272952Y-52284285D01*
X59320571Y-52331904D01*
X59368190Y-52427142D01*
X59368190Y-52808095D01*
X59177714Y-51379523D02*
X59844381Y-51379523D01*
X58796762Y-51617619D02*
X59511048Y-51855714D01*
X59511048Y-51236666D01*
X74675905Y-62168381D02*
X74675905Y-61168381D01*
X75056858Y-61168381D01*
X75152096Y-61216000D01*
X75199715Y-61263619D01*
X75247334Y-61358857D01*
X75247334Y-61501714D01*
X75199715Y-61596952D01*
X75152096Y-61644571D01*
X75056858Y-61692190D01*
X74675905Y-61692190D01*
X76152096Y-61168381D02*
X75675905Y-61168381D01*
X75628286Y-61644571D01*
X75675905Y-61596952D01*
X75771143Y-61549333D01*
X76009239Y-61549333D01*
X76104477Y-61596952D01*
X76152096Y-61644571D01*
X76199715Y-61739810D01*
X76199715Y-61977905D01*
X76152096Y-62073143D01*
X76104477Y-62120762D01*
X76009239Y-62168381D01*
X75771143Y-62168381D01*
X75675905Y-62120762D01*
X75628286Y-62073143D01*
M02*
