M48
METRIC,TZ
T1C0.300
T2C0.400
T3C0.500
T4C0.550
T5C1.000
%
G90
G05
T1
X146243Y-142738
X150574Y-146903
X146185Y-169751
X140914Y-163462
X134333Y-93452
X140914Y-87198
X134333Y-150650
X146185Y-112553
X140914Y-106264
X127091Y-143045
X146185Y-93487
X142471Y-141412
X146243Y-161804
X150574Y-165969
X146243Y-104606
X150574Y-108771
X146243Y-85540
X134333Y-169716
X146185Y-131619
X140914Y-125330
X127091Y-162111
X134333Y-112518
X127091Y-104913
X142471Y-160478
X142471Y-103280
X146243Y-123672
X150574Y-127837
X146185Y-150685
X140914Y-144396
X134333Y-131584
X142471Y-84214
X127091Y-123979
X150574Y-89705
X142471Y-122346
X127091Y-85847
T2
X135405Y-87142
X135405Y-106208
X135405Y-125274
X135405Y-144340
X135405Y-163406
T3
X152703Y-149527
X153453Y-150827
X154203Y-149527
X154953Y-150827
X155703Y-149527
X152703Y-130461
X153453Y-131761
X154203Y-130461
X154953Y-131761
X155703Y-130461
X152703Y-111395
X153453Y-112695
X154203Y-111395
X154953Y-112695
X155703Y-111395
X152703Y-92329
X153453Y-93629
X154203Y-92329
X154953Y-93629
X155703Y-92329
X152703Y-168593
X153453Y-169893
X154203Y-168593
X154953Y-169893
X155703Y-168593
T4
X151803Y-131761
X156603Y-131761
X151803Y-112695
X156603Y-112695
X151803Y-93629
X156603Y-93629
X151803Y-169893
X156603Y-169893
X151803Y-150827
X156603Y-150827
T5
X130721Y-119539
X133261Y-119539
X135801Y-119539
X138341Y-119539
X140881Y-119539
X143421Y-119539
X123729Y-160624
X124514Y-163040
X125299Y-165455
X126084Y-167871
X123729Y-103426
X124514Y-105842
X125299Y-108257
X126084Y-110673
X130721Y-81407
X133261Y-81407
X135801Y-81407
X138341Y-81407
X140881Y-81407
X143421Y-81407
X123729Y-122492
X124514Y-124908
X125299Y-127323
X126084Y-129739
X130721Y-100473
X133261Y-100473
X135801Y-100473
X138341Y-100473
X140881Y-100473
X143421Y-100473
X123729Y-141558
X124514Y-143974
X125299Y-146389
X126084Y-148805
X130721Y-157671
X133261Y-157671
X135801Y-157671
X138341Y-157671
X140881Y-157671
X143421Y-157671
X130721Y-138605
X133261Y-138605
X135801Y-138605
X138341Y-138605
X140881Y-138605
X143421Y-138605
X123729Y-84360
X124514Y-86776
X125299Y-89191
X126084Y-91607
T0
M30
