G04 #@! TF.GenerationSoftware,KiCad,Pcbnew,5.0.0-fee4fd1~66~ubuntu16.04.1*
G04 #@! TF.CreationDate,2018-10-22T20:15:58+02:00*
G04 #@! TF.ProjectId,WiRoc_NanoPi_SideOledPCB_v1_Panelized,5769526F635F4E616E6F50695F536964,rev?*
G04 #@! TF.SameCoordinates,Original*
G04 #@! TF.FileFunction,Legend,Bot*
G04 #@! TF.FilePolarity,Positive*
%FSLAX46Y46*%
G04 Gerber Fmt 4.6, Leading zero omitted, Abs format (unit mm)*
G04 Created by KiCad (PCBNEW 5.0.0-fee4fd1~66~ubuntu16.04.1) date Mon Oct 22 20:15:58 2018*
%MOMM*%
%LPD*%
G01*
G04 APERTURE LIST*
%ADD10C,0.150000*%
G04 APERTURE END LIST*
G04 #@! TO.C,J1*
D10*
X154536733Y-172045380D02*
X154536733Y-172759666D01*
X154584352Y-172902523D01*
X154679590Y-172997761D01*
X154822447Y-173045380D01*
X154917685Y-173045380D01*
X153536733Y-173045380D02*
X154108161Y-173045380D01*
X153822447Y-173045380D02*
X153822447Y-172045380D01*
X153917685Y-172188238D01*
X154012923Y-172283476D01*
X154108161Y-172331095D01*
X154536733Y-152979380D02*
X154536733Y-153693666D01*
X154584352Y-153836523D01*
X154679590Y-153931761D01*
X154822447Y-153979380D01*
X154917685Y-153979380D01*
X153536733Y-153979380D02*
X154108161Y-153979380D01*
X153822447Y-153979380D02*
X153822447Y-152979380D01*
X153917685Y-153122238D01*
X154012923Y-153217476D01*
X154108161Y-153265095D01*
X154536733Y-133913380D02*
X154536733Y-134627666D01*
X154584352Y-134770523D01*
X154679590Y-134865761D01*
X154822447Y-134913380D01*
X154917685Y-134913380D01*
X153536733Y-134913380D02*
X154108161Y-134913380D01*
X153822447Y-134913380D02*
X153822447Y-133913380D01*
X153917685Y-134056238D01*
X154012923Y-134151476D01*
X154108161Y-134199095D01*
X154536733Y-114847380D02*
X154536733Y-115561666D01*
X154584352Y-115704523D01*
X154679590Y-115799761D01*
X154822447Y-115847380D01*
X154917685Y-115847380D01*
X153536733Y-115847380D02*
X154108161Y-115847380D01*
X153822447Y-115847380D02*
X153822447Y-114847380D01*
X153917685Y-114990238D01*
X154012923Y-115085476D01*
X154108161Y-115133095D01*
X154536733Y-95781380D02*
X154536733Y-96495666D01*
X154584352Y-96638523D01*
X154679590Y-96733761D01*
X154822447Y-96781380D01*
X154917685Y-96781380D01*
X153536733Y-96781380D02*
X154108161Y-96781380D01*
X153822447Y-96781380D02*
X153822447Y-95781380D01*
X153917685Y-95924238D01*
X154012923Y-96019476D01*
X154108161Y-96067095D01*
G04 #@! TD*
M02*
