G04 #@! TF.GenerationSoftware,KiCad,Pcbnew,5.0.0-fee4fd1~66~ubuntu16.04.1*
G04 #@! TF.CreationDate,2018-10-22T20:15:58+02:00*
G04 #@! TF.ProjectId,WiRoc_NanoPi_SideOledPCB_v1_Panelized,5769526F635F4E616E6F50695F536964,rev?*
G04 #@! TF.SameCoordinates,Original*
G04 #@! TF.FileFunction,Copper,L1,Top,Signal*
G04 #@! TF.FilePolarity,Positive*
%FSLAX46Y46*%
G04 Gerber Fmt 4.6, Leading zero omitted, Abs format (unit mm)*
G04 Created by KiCad (PCBNEW 5.0.0-fee4fd1~66~ubuntu16.04.1) date Mon Oct 22 20:15:58 2018*
%MOMM*%
%LPD*%
G01*
G04 APERTURE LIST*
G04 #@! TA.AperFunction,BGAPad,CuDef*
%ADD10C,1.000000*%
G04 #@! TD*
G04 #@! TA.AperFunction,ViaPad*
%ADD11C,0.600000*%
G04 #@! TD*
G04 #@! TA.AperFunction,ComponentPad*
%ADD12C,1.700000*%
G04 #@! TD*
G04 #@! TA.AperFunction,Conductor*
%ADD13C,1.700000*%
G04 #@! TD*
G04 #@! TA.AperFunction,Conductor*
%ADD14C,0.100000*%
G04 #@! TD*
G04 #@! TA.AperFunction,ComponentPad*
%ADD15C,1.350000*%
G04 #@! TD*
G04 #@! TA.AperFunction,ComponentPad*
%ADD16C,1.150000*%
G04 #@! TD*
G04 #@! TA.AperFunction,ComponentPad*
%ADD17O,1.700000X1.700000*%
G04 #@! TD*
G04 #@! TA.AperFunction,ComponentPad*
%ADD18R,1.700000X1.700000*%
G04 #@! TD*
G04 #@! TA.AperFunction,Conductor*
%ADD19C,0.500000*%
G04 #@! TD*
G04 #@! TA.AperFunction,Conductor*
%ADD20C,1.000000*%
G04 #@! TD*
G04 #@! TA.AperFunction,Conductor*
%ADD21C,0.200000*%
G04 #@! TD*
G04 APERTURE END LIST*
D10*
G04 #@! TO.P,FID1,1*
G04 #@! TO.N,N/C*
X128074420Y-170205900D03*
G04 #@! TD*
G04 #@! TO.P,FID1,1*
G04 #@! TO.N,N/C*
X128074420Y-151139900D03*
G04 #@! TD*
G04 #@! TO.P,FID1,1*
G04 #@! TO.N,N/C*
X128074420Y-132073900D03*
G04 #@! TD*
G04 #@! TO.P,FID1,1*
G04 #@! TO.N,N/C*
X128074420Y-113007900D03*
G04 #@! TD*
D11*
G04 #@! TO.N,GND*
G04 #@! TO.C,REF\002A\002A*
X142471140Y-160477700D03*
G04 #@! TD*
G04 #@! TO.N,GND*
G04 #@! TO.C,REF\002A\002A*
X142471140Y-141411700D03*
G04 #@! TD*
G04 #@! TO.N,GND*
G04 #@! TO.C,REF\002A\002A*
X142471140Y-122345700D03*
G04 #@! TD*
G04 #@! TO.N,GND*
G04 #@! TO.C,REF\002A\002A*
X142471140Y-103279700D03*
G04 #@! TD*
G04 #@! TO.N,GND*
G04 #@! TO.C,REF\002A\002A*
X150573740Y-165969180D03*
G04 #@! TD*
G04 #@! TO.N,GND*
G04 #@! TO.C,REF\002A\002A*
X150573740Y-146903180D03*
G04 #@! TD*
G04 #@! TO.N,GND*
G04 #@! TO.C,REF\002A\002A*
X150573740Y-127837180D03*
G04 #@! TD*
G04 #@! TO.N,GND*
G04 #@! TO.C,REF\002A\002A*
X150573740Y-108771180D03*
G04 #@! TD*
G04 #@! TO.N,GND*
G04 #@! TO.C,REF\002A\002A*
X140914120Y-163462200D03*
G04 #@! TD*
G04 #@! TO.N,GND*
G04 #@! TO.C,REF\002A\002A*
X140914120Y-144396200D03*
G04 #@! TD*
G04 #@! TO.N,GND*
G04 #@! TO.C,REF\002A\002A*
X140914120Y-125330200D03*
G04 #@! TD*
G04 #@! TO.N,GND*
G04 #@! TO.C,REF\002A\002A*
X140914120Y-106264200D03*
G04 #@! TD*
D10*
G04 #@! TO.P,FID2,1*
G04 #@! TO.N,N/C*
X156268420Y-166367960D03*
G04 #@! TD*
G04 #@! TO.P,FID2,1*
G04 #@! TO.N,N/C*
X156268420Y-147301960D03*
G04 #@! TD*
G04 #@! TO.P,FID2,1*
G04 #@! TO.N,N/C*
X156268420Y-128235960D03*
G04 #@! TD*
G04 #@! TO.P,FID2,1*
G04 #@! TO.N,N/C*
X156268420Y-109169960D03*
G04 #@! TD*
D11*
G04 #@! TO.N,GND*
G04 #@! TO.C,REF\002A\002A*
X146243040Y-161803580D03*
G04 #@! TD*
G04 #@! TO.N,GND*
G04 #@! TO.C,REF\002A\002A*
X146243040Y-142737580D03*
G04 #@! TD*
G04 #@! TO.N,GND*
G04 #@! TO.C,REF\002A\002A*
X146243040Y-123671580D03*
G04 #@! TD*
G04 #@! TO.N,GND*
G04 #@! TO.C,REF\002A\002A*
X146243040Y-104605580D03*
G04 #@! TD*
G04 #@! TO.N,GND*
G04 #@! TO.C,REF\002A\002A*
X146184620Y-169751240D03*
G04 #@! TD*
G04 #@! TO.N,GND*
G04 #@! TO.C,REF\002A\002A*
X146184620Y-150685240D03*
G04 #@! TD*
G04 #@! TO.N,GND*
G04 #@! TO.C,REF\002A\002A*
X146184620Y-131619240D03*
G04 #@! TD*
G04 #@! TO.N,GND*
G04 #@! TO.C,REF\002A\002A*
X146184620Y-112553240D03*
G04 #@! TD*
G04 #@! TO.N,GND*
G04 #@! TO.C,REF\002A\002A*
X127091440Y-162110920D03*
G04 #@! TD*
G04 #@! TO.N,GND*
G04 #@! TO.C,REF\002A\002A*
X127091440Y-143044920D03*
G04 #@! TD*
G04 #@! TO.N,GND*
G04 #@! TO.C,REF\002A\002A*
X127091440Y-123978920D03*
G04 #@! TD*
G04 #@! TO.N,GND*
G04 #@! TO.C,REF\002A\002A*
X127091440Y-104912920D03*
G04 #@! TD*
D12*
G04 #@! TO.P,J2,4*
G04 #@! TO.N,SDA*
X123728891Y-160623949D03*
D13*
G04 #@! TD*
G04 #@! TO.N,SDA*
G04 #@! TO.C,J2*
X123728891Y-160623949D02*
X123728891Y-160623949D01*
D12*
G04 #@! TO.P,J2,3*
G04 #@! TO.N,SCK*
X124513794Y-163039633D03*
D13*
G04 #@! TD*
G04 #@! TO.N,SCK*
G04 #@! TO.C,J2*
X124513794Y-163039633D02*
X124513794Y-163039633D01*
D12*
G04 #@! TO.P,J2,2*
G04 #@! TO.N,SYS_3.3V*
X125298697Y-165455316D03*
D13*
G04 #@! TD*
G04 #@! TO.N,SYS_3.3V*
G04 #@! TO.C,J2*
X125298697Y-165455316D02*
X125298697Y-165455316D01*
D12*
G04 #@! TO.P,J2,1*
G04 #@! TO.N,GND*
X126083600Y-167871000D03*
D14*
G04 #@! TD*
G04 #@! TO.N,GND*
G04 #@! TO.C,J2*
G36*
X126629334Y-166799938D02*
X127154662Y-168416734D01*
X125537866Y-168942062D01*
X125012538Y-167325266D01*
X126629334Y-166799938D01*
X126629334Y-166799938D01*
G37*
D12*
G04 #@! TO.P,J2,4*
G04 #@! TO.N,SDA*
X123728891Y-141557949D03*
D13*
G04 #@! TD*
G04 #@! TO.N,SDA*
G04 #@! TO.C,J2*
X123728891Y-141557949D02*
X123728891Y-141557949D01*
D12*
G04 #@! TO.P,J2,3*
G04 #@! TO.N,SCK*
X124513794Y-143973633D03*
D13*
G04 #@! TD*
G04 #@! TO.N,SCK*
G04 #@! TO.C,J2*
X124513794Y-143973633D02*
X124513794Y-143973633D01*
D12*
G04 #@! TO.P,J2,2*
G04 #@! TO.N,SYS_3.3V*
X125298697Y-146389316D03*
D13*
G04 #@! TD*
G04 #@! TO.N,SYS_3.3V*
G04 #@! TO.C,J2*
X125298697Y-146389316D02*
X125298697Y-146389316D01*
D12*
G04 #@! TO.P,J2,1*
G04 #@! TO.N,GND*
X126083600Y-148805000D03*
D14*
G04 #@! TD*
G04 #@! TO.N,GND*
G04 #@! TO.C,J2*
G36*
X126629334Y-147733938D02*
X127154662Y-149350734D01*
X125537866Y-149876062D01*
X125012538Y-148259266D01*
X126629334Y-147733938D01*
X126629334Y-147733938D01*
G37*
D12*
G04 #@! TO.P,J2,4*
G04 #@! TO.N,SDA*
X123728891Y-122491949D03*
D13*
G04 #@! TD*
G04 #@! TO.N,SDA*
G04 #@! TO.C,J2*
X123728891Y-122491949D02*
X123728891Y-122491949D01*
D12*
G04 #@! TO.P,J2,3*
G04 #@! TO.N,SCK*
X124513794Y-124907633D03*
D13*
G04 #@! TD*
G04 #@! TO.N,SCK*
G04 #@! TO.C,J2*
X124513794Y-124907633D02*
X124513794Y-124907633D01*
D12*
G04 #@! TO.P,J2,2*
G04 #@! TO.N,SYS_3.3V*
X125298697Y-127323316D03*
D13*
G04 #@! TD*
G04 #@! TO.N,SYS_3.3V*
G04 #@! TO.C,J2*
X125298697Y-127323316D02*
X125298697Y-127323316D01*
D12*
G04 #@! TO.P,J2,1*
G04 #@! TO.N,GND*
X126083600Y-129739000D03*
D14*
G04 #@! TD*
G04 #@! TO.N,GND*
G04 #@! TO.C,J2*
G36*
X126629334Y-128667938D02*
X127154662Y-130284734D01*
X125537866Y-130810062D01*
X125012538Y-129193266D01*
X126629334Y-128667938D01*
X126629334Y-128667938D01*
G37*
D12*
G04 #@! TO.P,J2,4*
G04 #@! TO.N,SDA*
X123728891Y-103425949D03*
D13*
G04 #@! TD*
G04 #@! TO.N,SDA*
G04 #@! TO.C,J2*
X123728891Y-103425949D02*
X123728891Y-103425949D01*
D12*
G04 #@! TO.P,J2,3*
G04 #@! TO.N,SCK*
X124513794Y-105841633D03*
D13*
G04 #@! TD*
G04 #@! TO.N,SCK*
G04 #@! TO.C,J2*
X124513794Y-105841633D02*
X124513794Y-105841633D01*
D12*
G04 #@! TO.P,J2,2*
G04 #@! TO.N,SYS_3.3V*
X125298697Y-108257316D03*
D13*
G04 #@! TD*
G04 #@! TO.N,SYS_3.3V*
G04 #@! TO.C,J2*
X125298697Y-108257316D02*
X125298697Y-108257316D01*
D12*
G04 #@! TO.P,J2,1*
G04 #@! TO.N,GND*
X126083600Y-110673000D03*
D14*
G04 #@! TD*
G04 #@! TO.N,GND*
G04 #@! TO.C,J2*
G36*
X126629334Y-109601938D02*
X127154662Y-111218734D01*
X125537866Y-111744062D01*
X125012538Y-110127266D01*
X126629334Y-109601938D01*
X126629334Y-109601938D01*
G37*
D15*
G04 #@! TO.P,J1,6*
G04 #@! TO.N,GND*
X151803400Y-169893000D03*
X156603400Y-169893000D03*
D16*
G04 #@! TO.P,J1,4*
G04 #@! TO.N,Net-(J1-Pad4)*
X154953400Y-169893000D03*
G04 #@! TO.P,J1,2*
G04 #@! TO.N,Net-(J1-Pad2)*
X153453400Y-169893000D03*
G04 #@! TO.P,J1,1*
G04 #@! TO.N,Net-(J1-Pad1)*
X152703400Y-168593000D03*
G04 #@! TO.P,J1,3*
G04 #@! TO.N,Net-(J1-Pad3)*
X154203400Y-168593000D03*
G04 #@! TO.P,J1,5*
G04 #@! TO.N,GND*
X155703400Y-168593000D03*
G04 #@! TD*
D15*
G04 #@! TO.P,J1,6*
G04 #@! TO.N,GND*
X151803400Y-150827000D03*
X156603400Y-150827000D03*
D16*
G04 #@! TO.P,J1,4*
G04 #@! TO.N,Net-(J1-Pad4)*
X154953400Y-150827000D03*
G04 #@! TO.P,J1,2*
G04 #@! TO.N,Net-(J1-Pad2)*
X153453400Y-150827000D03*
G04 #@! TO.P,J1,1*
G04 #@! TO.N,Net-(J1-Pad1)*
X152703400Y-149527000D03*
G04 #@! TO.P,J1,3*
G04 #@! TO.N,Net-(J1-Pad3)*
X154203400Y-149527000D03*
G04 #@! TO.P,J1,5*
G04 #@! TO.N,GND*
X155703400Y-149527000D03*
G04 #@! TD*
D15*
G04 #@! TO.P,J1,6*
G04 #@! TO.N,GND*
X151803400Y-131761000D03*
X156603400Y-131761000D03*
D16*
G04 #@! TO.P,J1,4*
G04 #@! TO.N,Net-(J1-Pad4)*
X154953400Y-131761000D03*
G04 #@! TO.P,J1,2*
G04 #@! TO.N,Net-(J1-Pad2)*
X153453400Y-131761000D03*
G04 #@! TO.P,J1,1*
G04 #@! TO.N,Net-(J1-Pad1)*
X152703400Y-130461000D03*
G04 #@! TO.P,J1,3*
G04 #@! TO.N,Net-(J1-Pad3)*
X154203400Y-130461000D03*
G04 #@! TO.P,J1,5*
G04 #@! TO.N,GND*
X155703400Y-130461000D03*
G04 #@! TD*
D15*
G04 #@! TO.P,J1,6*
G04 #@! TO.N,GND*
X151803400Y-112695000D03*
X156603400Y-112695000D03*
D16*
G04 #@! TO.P,J1,4*
G04 #@! TO.N,Net-(J1-Pad4)*
X154953400Y-112695000D03*
G04 #@! TO.P,J1,2*
G04 #@! TO.N,Net-(J1-Pad2)*
X153453400Y-112695000D03*
G04 #@! TO.P,J1,1*
G04 #@! TO.N,Net-(J1-Pad1)*
X152703400Y-111395000D03*
G04 #@! TO.P,J1,3*
G04 #@! TO.N,Net-(J1-Pad3)*
X154203400Y-111395000D03*
G04 #@! TO.P,J1,5*
G04 #@! TO.N,GND*
X155703400Y-111395000D03*
G04 #@! TD*
D11*
G04 #@! TO.N,GND*
G04 #@! TO.C,REF\002A\002A*
X134332980Y-169715680D03*
G04 #@! TD*
G04 #@! TO.N,GND*
G04 #@! TO.C,REF\002A\002A*
X134332980Y-150649680D03*
G04 #@! TD*
G04 #@! TO.N,GND*
G04 #@! TO.C,REF\002A\002A*
X134332980Y-131583680D03*
G04 #@! TD*
G04 #@! TO.N,GND*
G04 #@! TO.C,REF\002A\002A*
X134332980Y-112517680D03*
G04 #@! TD*
D17*
G04 #@! TO.P,J3,6*
G04 #@! TO.N,Net-(J1-Pad2)*
X130720600Y-157671000D03*
G04 #@! TO.P,J3,5*
G04 #@! TO.N,Net-(J1-Pad3)*
X133260600Y-157671000D03*
G04 #@! TO.P,J3,4*
G04 #@! TO.N,GND*
X135800600Y-157671000D03*
G04 #@! TO.P,J3,3*
G04 #@! TO.N,SYS_3.3V*
X138340600Y-157671000D03*
G04 #@! TO.P,J3,2*
G04 #@! TO.N,SDA*
X140880600Y-157671000D03*
D18*
G04 #@! TO.P,J3,1*
G04 #@! TO.N,SCK*
X143420600Y-157671000D03*
G04 #@! TD*
D17*
G04 #@! TO.P,J3,6*
G04 #@! TO.N,Net-(J1-Pad2)*
X130720600Y-138605000D03*
G04 #@! TO.P,J3,5*
G04 #@! TO.N,Net-(J1-Pad3)*
X133260600Y-138605000D03*
G04 #@! TO.P,J3,4*
G04 #@! TO.N,GND*
X135800600Y-138605000D03*
G04 #@! TO.P,J3,3*
G04 #@! TO.N,SYS_3.3V*
X138340600Y-138605000D03*
G04 #@! TO.P,J3,2*
G04 #@! TO.N,SDA*
X140880600Y-138605000D03*
D18*
G04 #@! TO.P,J3,1*
G04 #@! TO.N,SCK*
X143420600Y-138605000D03*
G04 #@! TD*
D17*
G04 #@! TO.P,J3,6*
G04 #@! TO.N,Net-(J1-Pad2)*
X130720600Y-119539000D03*
G04 #@! TO.P,J3,5*
G04 #@! TO.N,Net-(J1-Pad3)*
X133260600Y-119539000D03*
G04 #@! TO.P,J3,4*
G04 #@! TO.N,GND*
X135800600Y-119539000D03*
G04 #@! TO.P,J3,3*
G04 #@! TO.N,SYS_3.3V*
X138340600Y-119539000D03*
G04 #@! TO.P,J3,2*
G04 #@! TO.N,SDA*
X140880600Y-119539000D03*
D18*
G04 #@! TO.P,J3,1*
G04 #@! TO.N,SCK*
X143420600Y-119539000D03*
G04 #@! TD*
D17*
G04 #@! TO.P,J3,6*
G04 #@! TO.N,Net-(J1-Pad2)*
X130720600Y-100473000D03*
G04 #@! TO.P,J3,5*
G04 #@! TO.N,Net-(J1-Pad3)*
X133260600Y-100473000D03*
G04 #@! TO.P,J3,4*
G04 #@! TO.N,GND*
X135800600Y-100473000D03*
G04 #@! TO.P,J3,3*
G04 #@! TO.N,SYS_3.3V*
X138340600Y-100473000D03*
G04 #@! TO.P,J3,2*
G04 #@! TO.N,SDA*
X140880600Y-100473000D03*
D18*
G04 #@! TO.P,J3,1*
G04 #@! TO.N,SCK*
X143420600Y-100473000D03*
G04 #@! TD*
D11*
G04 #@! TO.N,GND*
G04 #@! TO.C,REF\002A\002A*
X134332980Y-93451680D03*
G04 #@! TD*
G04 #@! TO.N,GND*
G04 #@! TO.C,REF\002A\002A*
X127091440Y-85846920D03*
G04 #@! TD*
G04 #@! TO.N,GND*
G04 #@! TO.C,REF\002A\002A*
X146184620Y-93487240D03*
G04 #@! TD*
G04 #@! TO.N,GND*
G04 #@! TO.C,REF\002A\002A*
X140914120Y-87198200D03*
G04 #@! TD*
G04 #@! TO.N,GND*
G04 #@! TO.C,REF\002A\002A*
X150573740Y-89705180D03*
G04 #@! TD*
G04 #@! TO.N,GND*
G04 #@! TO.C,REF\002A\002A*
X146243040Y-85539580D03*
G04 #@! TD*
D10*
G04 #@! TO.P,FID2,1*
G04 #@! TO.N,N/C*
X156268420Y-90103960D03*
G04 #@! TD*
D12*
G04 #@! TO.P,J2,1*
G04 #@! TO.N,GND*
X126083600Y-91607000D03*
D14*
G04 #@! TD*
G04 #@! TO.N,GND*
G04 #@! TO.C,J2*
G36*
X126629334Y-90535938D02*
X127154662Y-92152734D01*
X125537866Y-92678062D01*
X125012538Y-91061266D01*
X126629334Y-90535938D01*
X126629334Y-90535938D01*
G37*
D12*
G04 #@! TO.P,J2,2*
G04 #@! TO.N,SYS_3.3V*
X125298697Y-89191316D03*
D13*
G04 #@! TD*
G04 #@! TO.N,SYS_3.3V*
G04 #@! TO.C,J2*
X125298697Y-89191316D02*
X125298697Y-89191316D01*
D12*
G04 #@! TO.P,J2,3*
G04 #@! TO.N,SCK*
X124513794Y-86775633D03*
D13*
G04 #@! TD*
G04 #@! TO.N,SCK*
G04 #@! TO.C,J2*
X124513794Y-86775633D02*
X124513794Y-86775633D01*
D12*
G04 #@! TO.P,J2,4*
G04 #@! TO.N,SDA*
X123728891Y-84359949D03*
D13*
G04 #@! TD*
G04 #@! TO.N,SDA*
G04 #@! TO.C,J2*
X123728891Y-84359949D02*
X123728891Y-84359949D01*
D18*
G04 #@! TO.P,J3,1*
G04 #@! TO.N,SCK*
X143420600Y-81407000D03*
D17*
G04 #@! TO.P,J3,2*
G04 #@! TO.N,SDA*
X140880600Y-81407000D03*
G04 #@! TO.P,J3,3*
G04 #@! TO.N,SYS_3.3V*
X138340600Y-81407000D03*
G04 #@! TO.P,J3,4*
G04 #@! TO.N,GND*
X135800600Y-81407000D03*
G04 #@! TO.P,J3,5*
G04 #@! TO.N,Net-(J1-Pad3)*
X133260600Y-81407000D03*
G04 #@! TO.P,J3,6*
G04 #@! TO.N,Net-(J1-Pad2)*
X130720600Y-81407000D03*
G04 #@! TD*
D11*
G04 #@! TO.N,GND*
G04 #@! TO.C,REF\002A\002A*
X142471140Y-84213700D03*
G04 #@! TD*
D10*
G04 #@! TO.P,FID1,1*
G04 #@! TO.N,N/C*
X128074420Y-93941900D03*
G04 #@! TD*
D16*
G04 #@! TO.P,J1,5*
G04 #@! TO.N,GND*
X155703400Y-92329000D03*
G04 #@! TO.P,J1,3*
G04 #@! TO.N,Net-(J1-Pad3)*
X154203400Y-92329000D03*
G04 #@! TO.P,J1,1*
G04 #@! TO.N,Net-(J1-Pad1)*
X152703400Y-92329000D03*
G04 #@! TO.P,J1,2*
G04 #@! TO.N,Net-(J1-Pad2)*
X153453400Y-93629000D03*
G04 #@! TO.P,J1,4*
G04 #@! TO.N,Net-(J1-Pad4)*
X154953400Y-93629000D03*
D15*
G04 #@! TO.P,J1,6*
G04 #@! TO.N,GND*
X156603400Y-93629000D03*
X151803400Y-93629000D03*
G04 #@! TD*
D11*
G04 #@! TO.N,Net-(J1-Pad3)*
X135404584Y-87142044D03*
X135404584Y-106208044D03*
X135404584Y-125274044D03*
X135404584Y-144340044D03*
X135404584Y-163406044D03*
G04 #@! TD*
D19*
G04 #@! TO.N,Net-(J1-Pad2)*
X152933400Y-94843600D02*
X153466800Y-94310200D01*
X141193520Y-94843600D02*
X152933400Y-94843600D01*
X130705860Y-84355940D02*
X141193520Y-94843600D01*
X130705860Y-81422240D02*
X130705860Y-84355940D01*
X153466800Y-93642400D02*
X153453400Y-93629000D01*
X153466800Y-94310200D02*
X153466800Y-93642400D01*
X152933400Y-113909600D02*
X153466800Y-113376200D01*
X152933400Y-132975600D02*
X153466800Y-132442200D01*
X152933400Y-152041600D02*
X153466800Y-151508200D01*
X152933400Y-171107600D02*
X153466800Y-170574200D01*
X141193520Y-113909600D02*
X152933400Y-113909600D01*
X141193520Y-132975600D02*
X152933400Y-132975600D01*
X141193520Y-152041600D02*
X152933400Y-152041600D01*
X141193520Y-171107600D02*
X152933400Y-171107600D01*
X130705860Y-103421940D02*
X141193520Y-113909600D01*
X130705860Y-122487940D02*
X141193520Y-132975600D01*
X130705860Y-141553940D02*
X141193520Y-152041600D01*
X130705860Y-160619940D02*
X141193520Y-171107600D01*
X130705860Y-100488240D02*
X130705860Y-103421940D01*
X130705860Y-119554240D02*
X130705860Y-122487940D01*
X130705860Y-138620240D02*
X130705860Y-141553940D01*
X130705860Y-157686240D02*
X130705860Y-160619940D01*
X153466800Y-112708400D02*
X153453400Y-112695000D01*
X153466800Y-131774400D02*
X153453400Y-131761000D01*
X153466800Y-150840400D02*
X153453400Y-150827000D01*
X153466800Y-169906400D02*
X153453400Y-169893000D01*
X153466800Y-113376200D02*
X153466800Y-112708400D01*
X153466800Y-132442200D02*
X153466800Y-131774400D01*
X153466800Y-151508200D02*
X153466800Y-150840400D01*
X153466800Y-170574200D02*
X153466800Y-169906400D01*
G04 #@! TO.N,Net-(J1-Pad3)*
X133250940Y-81409540D02*
X133250940Y-84988400D01*
X133250940Y-84988400D02*
X135104585Y-86842045D01*
X135104585Y-86842045D02*
X135404584Y-87142044D01*
X133250940Y-100475540D02*
X133250940Y-104054400D01*
X133250940Y-119541540D02*
X133250940Y-123120400D01*
X133250940Y-138607540D02*
X133250940Y-142186400D01*
X133250940Y-157673540D02*
X133250940Y-161252400D01*
X133250940Y-104054400D02*
X135104585Y-105908045D01*
X133250940Y-123120400D02*
X135104585Y-124974045D01*
X133250940Y-142186400D02*
X135104585Y-144040045D01*
X133250940Y-161252400D02*
X135104585Y-163106045D01*
X135104585Y-105908045D02*
X135404584Y-106208044D01*
X135104585Y-124974045D02*
X135404584Y-125274044D01*
X135104585Y-144040045D02*
X135404584Y-144340044D01*
X135104585Y-163106045D02*
X135404584Y-163406044D01*
D20*
G04 #@! TO.N,SDA*
X123728891Y-84359949D02*
X123728891Y-82104707D01*
X123728891Y-82104707D02*
X125976599Y-79856999D01*
X128910681Y-79856999D02*
X128922780Y-79844900D01*
X125976599Y-79856999D02*
X128910681Y-79856999D01*
X139366659Y-79856999D02*
X140860780Y-81351120D01*
X128910681Y-79856999D02*
X139366659Y-79856999D01*
X123728891Y-103425949D02*
X123728891Y-101170707D01*
X123728891Y-122491949D02*
X123728891Y-120236707D01*
X123728891Y-141557949D02*
X123728891Y-139302707D01*
X123728891Y-160623949D02*
X123728891Y-158368707D01*
X123728891Y-101170707D02*
X125976599Y-98922999D01*
X123728891Y-120236707D02*
X125976599Y-117988999D01*
X123728891Y-139302707D02*
X125976599Y-137054999D01*
X123728891Y-158368707D02*
X125976599Y-156120999D01*
X128910681Y-98922999D02*
X128922780Y-98910900D01*
X128910681Y-117988999D02*
X128922780Y-117976900D01*
X128910681Y-137054999D02*
X128922780Y-137042900D01*
X128910681Y-156120999D02*
X128922780Y-156108900D01*
X125976599Y-98922999D02*
X128910681Y-98922999D01*
X125976599Y-117988999D02*
X128910681Y-117988999D01*
X125976599Y-137054999D02*
X128910681Y-137054999D01*
X125976599Y-156120999D02*
X128910681Y-156120999D01*
X139366659Y-98922999D02*
X140860780Y-100417120D01*
X139366659Y-117988999D02*
X140860780Y-119483120D01*
X139366659Y-137054999D02*
X140860780Y-138549120D01*
X139366659Y-156120999D02*
X140860780Y-157615120D01*
X128910681Y-98922999D02*
X139366659Y-98922999D01*
X128910681Y-117988999D02*
X139366659Y-117988999D01*
X128910681Y-137054999D02*
X139366659Y-137054999D01*
X128910681Y-156120999D02*
X139366659Y-156120999D01*
G04 #@! TD*
D21*
G04 #@! TO.N,GND*
G36*
X128910681Y-80876590D02*
X129009171Y-80856999D01*
X129464468Y-80856999D01*
X129448928Y-80880256D01*
X129344152Y-81407000D01*
X129448928Y-81933744D01*
X129747304Y-82380296D01*
X129955860Y-82519649D01*
X129955861Y-84282070D01*
X129941167Y-84355940D01*
X129961556Y-84458438D01*
X129999377Y-84648575D01*
X130165141Y-84896660D01*
X130227764Y-84938503D01*
X140107260Y-94818000D01*
X128753955Y-94818000D01*
X129006955Y-94565000D01*
X129174420Y-94160704D01*
X129174420Y-93723096D01*
X129006955Y-93318800D01*
X128697520Y-93009365D01*
X128293224Y-92841900D01*
X127855616Y-92841900D01*
X127451320Y-93009365D01*
X127141885Y-93318800D01*
X126974420Y-93723096D01*
X126974420Y-94160704D01*
X127141885Y-94565000D01*
X127394885Y-94818000D01*
X126132995Y-94818000D01*
X125579439Y-93182880D01*
X125597787Y-93184324D01*
X126235428Y-92977142D01*
X126315683Y-92819633D01*
X125984726Y-91801051D01*
X125965704Y-91807232D01*
X125932772Y-91705874D01*
X126277651Y-91705874D01*
X126608609Y-92724456D01*
X126766118Y-92804711D01*
X127403759Y-92597528D01*
X127555013Y-92468345D01*
X127645317Y-92291113D01*
X127660924Y-92092813D01*
X127599457Y-91903637D01*
X127453742Y-91455172D01*
X127296233Y-91374917D01*
X126277651Y-91705874D01*
X125932772Y-91705874D01*
X125870528Y-91514306D01*
X125889549Y-91508126D01*
X125883368Y-91489104D01*
X126176294Y-91393928D01*
X126182474Y-91412949D01*
X127201056Y-91081991D01*
X127281311Y-90924482D01*
X127135595Y-90476017D01*
X127074128Y-90286841D01*
X126944945Y-90135587D01*
X126767712Y-90045282D01*
X126569413Y-90029676D01*
X126304680Y-90115693D01*
X126570369Y-89718060D01*
X126675145Y-89191316D01*
X126570369Y-88664572D01*
X126271993Y-88218020D01*
X125825441Y-87919644D01*
X125431660Y-87841316D01*
X125348823Y-87841316D01*
X125487090Y-87748929D01*
X125785466Y-87302377D01*
X125890242Y-86775633D01*
X125785466Y-86248889D01*
X125487090Y-85802337D01*
X125040538Y-85503961D01*
X124646757Y-85425633D01*
X124563918Y-85425633D01*
X124702187Y-85333245D01*
X125000563Y-84886693D01*
X125105339Y-84359949D01*
X125000563Y-83833205D01*
X124728891Y-83426618D01*
X124728891Y-82518919D01*
X126390812Y-80856999D01*
X128812191Y-80856999D01*
X128910681Y-80876590D01*
X128910681Y-80876590D01*
G37*
X128910681Y-80876590D02*
X129009171Y-80856999D01*
X129464468Y-80856999D01*
X129448928Y-80880256D01*
X129344152Y-81407000D01*
X129448928Y-81933744D01*
X129747304Y-82380296D01*
X129955860Y-82519649D01*
X129955861Y-84282070D01*
X129941167Y-84355940D01*
X129961556Y-84458438D01*
X129999377Y-84648575D01*
X130165141Y-84896660D01*
X130227764Y-84938503D01*
X140107260Y-94818000D01*
X128753955Y-94818000D01*
X129006955Y-94565000D01*
X129174420Y-94160704D01*
X129174420Y-93723096D01*
X129006955Y-93318800D01*
X128697520Y-93009365D01*
X128293224Y-92841900D01*
X127855616Y-92841900D01*
X127451320Y-93009365D01*
X127141885Y-93318800D01*
X126974420Y-93723096D01*
X126974420Y-94160704D01*
X127141885Y-94565000D01*
X127394885Y-94818000D01*
X126132995Y-94818000D01*
X125579439Y-93182880D01*
X125597787Y-93184324D01*
X126235428Y-92977142D01*
X126315683Y-92819633D01*
X125984726Y-91801051D01*
X125965704Y-91807232D01*
X125932772Y-91705874D01*
X126277651Y-91705874D01*
X126608609Y-92724456D01*
X126766118Y-92804711D01*
X127403759Y-92597528D01*
X127555013Y-92468345D01*
X127645317Y-92291113D01*
X127660924Y-92092813D01*
X127599457Y-91903637D01*
X127453742Y-91455172D01*
X127296233Y-91374917D01*
X126277651Y-91705874D01*
X125932772Y-91705874D01*
X125870528Y-91514306D01*
X125889549Y-91508126D01*
X125883368Y-91489104D01*
X126176294Y-91393928D01*
X126182474Y-91412949D01*
X127201056Y-91081991D01*
X127281311Y-90924482D01*
X127135595Y-90476017D01*
X127074128Y-90286841D01*
X126944945Y-90135587D01*
X126767712Y-90045282D01*
X126569413Y-90029676D01*
X126304680Y-90115693D01*
X126570369Y-89718060D01*
X126675145Y-89191316D01*
X126570369Y-88664572D01*
X126271993Y-88218020D01*
X125825441Y-87919644D01*
X125431660Y-87841316D01*
X125348823Y-87841316D01*
X125487090Y-87748929D01*
X125785466Y-87302377D01*
X125890242Y-86775633D01*
X125785466Y-86248889D01*
X125487090Y-85802337D01*
X125040538Y-85503961D01*
X124646757Y-85425633D01*
X124563918Y-85425633D01*
X124702187Y-85333245D01*
X125000563Y-84886693D01*
X125105339Y-84359949D01*
X125000563Y-83833205D01*
X124728891Y-83426618D01*
X124728891Y-82518919D01*
X126390812Y-80856999D01*
X128812191Y-80856999D01*
X128910681Y-80876590D01*
G36*
X149973973Y-86273546D02*
X150006049Y-86321551D01*
X150196246Y-86448637D01*
X150363972Y-86482000D01*
X150363976Y-86482000D01*
X150420600Y-86493263D01*
X150477224Y-86482000D01*
X157895600Y-86482000D01*
X157895601Y-94818000D01*
X156500328Y-94818000D01*
X156941361Y-94778363D01*
X157177148Y-94680697D01*
X157245390Y-94488779D01*
X156603400Y-93846789D01*
X155961410Y-94488779D01*
X156029652Y-94680697D01*
X156468741Y-94818000D01*
X154029516Y-94818000D01*
X154121259Y-94680697D01*
X154173284Y-94602836D01*
X154212053Y-94407932D01*
X154344462Y-94540341D01*
X154739569Y-94704000D01*
X155167231Y-94704000D01*
X155562338Y-94540341D01*
X155864741Y-94237938D01*
X155927015Y-94087596D01*
X156385611Y-93629000D01*
X156821189Y-93629000D01*
X157463179Y-94270990D01*
X157655097Y-94202748D01*
X157794605Y-93756607D01*
X157752763Y-93291039D01*
X157655097Y-93055252D01*
X157463179Y-92987010D01*
X156821189Y-93629000D01*
X156385611Y-93629000D01*
X156371469Y-93614858D01*
X156589258Y-93397069D01*
X156603400Y-93411211D01*
X157245390Y-92769221D01*
X157177148Y-92577303D01*
X156787686Y-92455518D01*
X156794554Y-92432586D01*
X156751136Y-92007135D01*
X156671854Y-91815732D01*
X156490248Y-91759941D01*
X155921189Y-92329000D01*
X155935331Y-92343142D01*
X155717542Y-92560931D01*
X155703400Y-92546789D01*
X155689258Y-92560931D01*
X155471469Y-92343142D01*
X155485611Y-92329000D01*
X155471469Y-92314858D01*
X155689258Y-92097069D01*
X155703400Y-92111211D01*
X156272459Y-91542152D01*
X156216668Y-91360546D01*
X155806986Y-91237846D01*
X155381535Y-91281264D01*
X155190132Y-91360546D01*
X155134342Y-91542150D01*
X155038650Y-91446458D01*
X154939894Y-91545215D01*
X154812338Y-91417659D01*
X154417231Y-91254000D01*
X153989569Y-91254000D01*
X153594462Y-91417659D01*
X153453400Y-91558721D01*
X153312338Y-91417659D01*
X152917231Y-91254000D01*
X152489569Y-91254000D01*
X152094462Y-91417659D01*
X151792059Y-91720062D01*
X151628400Y-92115169D01*
X151628400Y-92464991D01*
X151465439Y-92479637D01*
X151229652Y-92577303D01*
X151161410Y-92769221D01*
X151803400Y-93411211D01*
X151817542Y-93397069D01*
X152035331Y-93614858D01*
X152021189Y-93629000D01*
X152035331Y-93643142D01*
X151817542Y-93860931D01*
X151803400Y-93846789D01*
X151789258Y-93860931D01*
X151571469Y-93643142D01*
X151585611Y-93629000D01*
X150943621Y-92987010D01*
X150751703Y-93055252D01*
X150612195Y-93501393D01*
X150654037Y-93966961D01*
X150706492Y-94093600D01*
X141504180Y-94093600D01*
X137295736Y-89885156D01*
X155168420Y-89885156D01*
X155168420Y-90322764D01*
X155335885Y-90727060D01*
X155645320Y-91036495D01*
X156049616Y-91203960D01*
X156487224Y-91203960D01*
X156891520Y-91036495D01*
X157200955Y-90727060D01*
X157368420Y-90322764D01*
X157368420Y-89885156D01*
X157200955Y-89480860D01*
X156891520Y-89171425D01*
X156487224Y-89003960D01*
X156049616Y-89003960D01*
X155645320Y-89171425D01*
X155335885Y-89480860D01*
X155168420Y-89885156D01*
X137295736Y-89885156D01*
X135352623Y-87942044D01*
X135563714Y-87942044D01*
X135857748Y-87820251D01*
X136082791Y-87595208D01*
X136204584Y-87301174D01*
X136204584Y-86982914D01*
X136082791Y-86688880D01*
X135857748Y-86463837D01*
X135737035Y-86413836D01*
X135687148Y-86363949D01*
X135687146Y-86363946D01*
X134000940Y-84677741D01*
X134000940Y-82535952D01*
X134233896Y-82380296D01*
X134532272Y-81933744D01*
X134546679Y-81861316D01*
X134737504Y-82239082D01*
X135136851Y-82582573D01*
X135438688Y-82707585D01*
X135646600Y-82622281D01*
X135646600Y-81561000D01*
X135626600Y-81561000D01*
X135626600Y-81253000D01*
X135646600Y-81253000D01*
X135646600Y-81233000D01*
X135954600Y-81233000D01*
X135954600Y-81253000D01*
X135974600Y-81253000D01*
X135974600Y-81561000D01*
X135954600Y-81561000D01*
X135954600Y-82622281D01*
X136162512Y-82707585D01*
X136464349Y-82582573D01*
X136863696Y-82239082D01*
X137054521Y-81861316D01*
X137068928Y-81933744D01*
X137367304Y-82380296D01*
X137813856Y-82678672D01*
X138207637Y-82757000D01*
X138473563Y-82757000D01*
X138867344Y-82678672D01*
X139313896Y-82380296D01*
X139610600Y-81936246D01*
X139907304Y-82380296D01*
X140353856Y-82678672D01*
X140747637Y-82757000D01*
X141013563Y-82757000D01*
X141407344Y-82678672D01*
X141853896Y-82380296D01*
X142060805Y-82070634D01*
X142060805Y-82257000D01*
X142099611Y-82452090D01*
X142210120Y-82617480D01*
X142375510Y-82727989D01*
X142570600Y-82766795D01*
X144270600Y-82766795D01*
X144465690Y-82727989D01*
X144631080Y-82617480D01*
X144741589Y-82452090D01*
X144780395Y-82257000D01*
X144780395Y-81079967D01*
X149973973Y-86273546D01*
X149973973Y-86273546D01*
G37*
X149973973Y-86273546D02*
X150006049Y-86321551D01*
X150196246Y-86448637D01*
X150363972Y-86482000D01*
X150363976Y-86482000D01*
X150420600Y-86493263D01*
X150477224Y-86482000D01*
X157895600Y-86482000D01*
X157895601Y-94818000D01*
X156500328Y-94818000D01*
X156941361Y-94778363D01*
X157177148Y-94680697D01*
X157245390Y-94488779D01*
X156603400Y-93846789D01*
X155961410Y-94488779D01*
X156029652Y-94680697D01*
X156468741Y-94818000D01*
X154029516Y-94818000D01*
X154121259Y-94680697D01*
X154173284Y-94602836D01*
X154212053Y-94407932D01*
X154344462Y-94540341D01*
X154739569Y-94704000D01*
X155167231Y-94704000D01*
X155562338Y-94540341D01*
X155864741Y-94237938D01*
X155927015Y-94087596D01*
X156385611Y-93629000D01*
X156821189Y-93629000D01*
X157463179Y-94270990D01*
X157655097Y-94202748D01*
X157794605Y-93756607D01*
X157752763Y-93291039D01*
X157655097Y-93055252D01*
X157463179Y-92987010D01*
X156821189Y-93629000D01*
X156385611Y-93629000D01*
X156371469Y-93614858D01*
X156589258Y-93397069D01*
X156603400Y-93411211D01*
X157245390Y-92769221D01*
X157177148Y-92577303D01*
X156787686Y-92455518D01*
X156794554Y-92432586D01*
X156751136Y-92007135D01*
X156671854Y-91815732D01*
X156490248Y-91759941D01*
X155921189Y-92329000D01*
X155935331Y-92343142D01*
X155717542Y-92560931D01*
X155703400Y-92546789D01*
X155689258Y-92560931D01*
X155471469Y-92343142D01*
X155485611Y-92329000D01*
X155471469Y-92314858D01*
X155689258Y-92097069D01*
X155703400Y-92111211D01*
X156272459Y-91542152D01*
X156216668Y-91360546D01*
X155806986Y-91237846D01*
X155381535Y-91281264D01*
X155190132Y-91360546D01*
X155134342Y-91542150D01*
X155038650Y-91446458D01*
X154939894Y-91545215D01*
X154812338Y-91417659D01*
X154417231Y-91254000D01*
X153989569Y-91254000D01*
X153594462Y-91417659D01*
X153453400Y-91558721D01*
X153312338Y-91417659D01*
X152917231Y-91254000D01*
X152489569Y-91254000D01*
X152094462Y-91417659D01*
X151792059Y-91720062D01*
X151628400Y-92115169D01*
X151628400Y-92464991D01*
X151465439Y-92479637D01*
X151229652Y-92577303D01*
X151161410Y-92769221D01*
X151803400Y-93411211D01*
X151817542Y-93397069D01*
X152035331Y-93614858D01*
X152021189Y-93629000D01*
X152035331Y-93643142D01*
X151817542Y-93860931D01*
X151803400Y-93846789D01*
X151789258Y-93860931D01*
X151571469Y-93643142D01*
X151585611Y-93629000D01*
X150943621Y-92987010D01*
X150751703Y-93055252D01*
X150612195Y-93501393D01*
X150654037Y-93966961D01*
X150706492Y-94093600D01*
X141504180Y-94093600D01*
X137295736Y-89885156D01*
X155168420Y-89885156D01*
X155168420Y-90322764D01*
X155335885Y-90727060D01*
X155645320Y-91036495D01*
X156049616Y-91203960D01*
X156487224Y-91203960D01*
X156891520Y-91036495D01*
X157200955Y-90727060D01*
X157368420Y-90322764D01*
X157368420Y-89885156D01*
X157200955Y-89480860D01*
X156891520Y-89171425D01*
X156487224Y-89003960D01*
X156049616Y-89003960D01*
X155645320Y-89171425D01*
X155335885Y-89480860D01*
X155168420Y-89885156D01*
X137295736Y-89885156D01*
X135352623Y-87942044D01*
X135563714Y-87942044D01*
X135857748Y-87820251D01*
X136082791Y-87595208D01*
X136204584Y-87301174D01*
X136204584Y-86982914D01*
X136082791Y-86688880D01*
X135857748Y-86463837D01*
X135737035Y-86413836D01*
X135687148Y-86363949D01*
X135687146Y-86363946D01*
X134000940Y-84677741D01*
X134000940Y-82535952D01*
X134233896Y-82380296D01*
X134532272Y-81933744D01*
X134546679Y-81861316D01*
X134737504Y-82239082D01*
X135136851Y-82582573D01*
X135438688Y-82707585D01*
X135646600Y-82622281D01*
X135646600Y-81561000D01*
X135626600Y-81561000D01*
X135626600Y-81253000D01*
X135646600Y-81253000D01*
X135646600Y-81233000D01*
X135954600Y-81233000D01*
X135954600Y-81253000D01*
X135974600Y-81253000D01*
X135974600Y-81561000D01*
X135954600Y-81561000D01*
X135954600Y-82622281D01*
X136162512Y-82707585D01*
X136464349Y-82582573D01*
X136863696Y-82239082D01*
X137054521Y-81861316D01*
X137068928Y-81933744D01*
X137367304Y-82380296D01*
X137813856Y-82678672D01*
X138207637Y-82757000D01*
X138473563Y-82757000D01*
X138867344Y-82678672D01*
X139313896Y-82380296D01*
X139610600Y-81936246D01*
X139907304Y-82380296D01*
X140353856Y-82678672D01*
X140747637Y-82757000D01*
X141013563Y-82757000D01*
X141407344Y-82678672D01*
X141853896Y-82380296D01*
X142060805Y-82070634D01*
X142060805Y-82257000D01*
X142099611Y-82452090D01*
X142210120Y-82617480D01*
X142375510Y-82727989D01*
X142570600Y-82766795D01*
X144270600Y-82766795D01*
X144465690Y-82727989D01*
X144631080Y-82617480D01*
X144741589Y-82452090D01*
X144780395Y-82257000D01*
X144780395Y-81079967D01*
X149973973Y-86273546D01*
G36*
X128910681Y-99942590D02*
X129009171Y-99922999D01*
X129464468Y-99922999D01*
X129448928Y-99946256D01*
X129344152Y-100473000D01*
X129448928Y-100999744D01*
X129747304Y-101446296D01*
X129955860Y-101585649D01*
X129955861Y-103348070D01*
X129941167Y-103421940D01*
X129961556Y-103524438D01*
X129999377Y-103714575D01*
X130165141Y-103962660D01*
X130227764Y-104004503D01*
X140107260Y-113884000D01*
X128753955Y-113884000D01*
X129006955Y-113631000D01*
X129174420Y-113226704D01*
X129174420Y-112789096D01*
X129006955Y-112384800D01*
X128697520Y-112075365D01*
X128293224Y-111907900D01*
X127855616Y-111907900D01*
X127451320Y-112075365D01*
X127141885Y-112384800D01*
X126974420Y-112789096D01*
X126974420Y-113226704D01*
X127141885Y-113631000D01*
X127394885Y-113884000D01*
X126132995Y-113884000D01*
X125579439Y-112248880D01*
X125597787Y-112250324D01*
X126235428Y-112043142D01*
X126315683Y-111885633D01*
X125984726Y-110867051D01*
X125965704Y-110873232D01*
X125932772Y-110771874D01*
X126277651Y-110771874D01*
X126608609Y-111790456D01*
X126766118Y-111870711D01*
X127403759Y-111663528D01*
X127555013Y-111534345D01*
X127645317Y-111357113D01*
X127660924Y-111158813D01*
X127599457Y-110969637D01*
X127453742Y-110521172D01*
X127296233Y-110440917D01*
X126277651Y-110771874D01*
X125932772Y-110771874D01*
X125870528Y-110580306D01*
X125889549Y-110574126D01*
X125883368Y-110555104D01*
X126176294Y-110459928D01*
X126182474Y-110478949D01*
X127201056Y-110147991D01*
X127281311Y-109990482D01*
X127135595Y-109542017D01*
X127074128Y-109352841D01*
X126944945Y-109201587D01*
X126767712Y-109111282D01*
X126569413Y-109095676D01*
X126304680Y-109181693D01*
X126570369Y-108784060D01*
X126675145Y-108257316D01*
X126570369Y-107730572D01*
X126271993Y-107284020D01*
X125825441Y-106985644D01*
X125431660Y-106907316D01*
X125348823Y-106907316D01*
X125487090Y-106814929D01*
X125785466Y-106368377D01*
X125890242Y-105841633D01*
X125785466Y-105314889D01*
X125487090Y-104868337D01*
X125040538Y-104569961D01*
X124646757Y-104491633D01*
X124563918Y-104491633D01*
X124702187Y-104399245D01*
X125000563Y-103952693D01*
X125105339Y-103425949D01*
X125000563Y-102899205D01*
X124728891Y-102492618D01*
X124728891Y-101584919D01*
X126390812Y-99922999D01*
X128812191Y-99922999D01*
X128910681Y-99942590D01*
X128910681Y-99942590D01*
G37*
X128910681Y-99942590D02*
X129009171Y-99922999D01*
X129464468Y-99922999D01*
X129448928Y-99946256D01*
X129344152Y-100473000D01*
X129448928Y-100999744D01*
X129747304Y-101446296D01*
X129955860Y-101585649D01*
X129955861Y-103348070D01*
X129941167Y-103421940D01*
X129961556Y-103524438D01*
X129999377Y-103714575D01*
X130165141Y-103962660D01*
X130227764Y-104004503D01*
X140107260Y-113884000D01*
X128753955Y-113884000D01*
X129006955Y-113631000D01*
X129174420Y-113226704D01*
X129174420Y-112789096D01*
X129006955Y-112384800D01*
X128697520Y-112075365D01*
X128293224Y-111907900D01*
X127855616Y-111907900D01*
X127451320Y-112075365D01*
X127141885Y-112384800D01*
X126974420Y-112789096D01*
X126974420Y-113226704D01*
X127141885Y-113631000D01*
X127394885Y-113884000D01*
X126132995Y-113884000D01*
X125579439Y-112248880D01*
X125597787Y-112250324D01*
X126235428Y-112043142D01*
X126315683Y-111885633D01*
X125984726Y-110867051D01*
X125965704Y-110873232D01*
X125932772Y-110771874D01*
X126277651Y-110771874D01*
X126608609Y-111790456D01*
X126766118Y-111870711D01*
X127403759Y-111663528D01*
X127555013Y-111534345D01*
X127645317Y-111357113D01*
X127660924Y-111158813D01*
X127599457Y-110969637D01*
X127453742Y-110521172D01*
X127296233Y-110440917D01*
X126277651Y-110771874D01*
X125932772Y-110771874D01*
X125870528Y-110580306D01*
X125889549Y-110574126D01*
X125883368Y-110555104D01*
X126176294Y-110459928D01*
X126182474Y-110478949D01*
X127201056Y-110147991D01*
X127281311Y-109990482D01*
X127135595Y-109542017D01*
X127074128Y-109352841D01*
X126944945Y-109201587D01*
X126767712Y-109111282D01*
X126569413Y-109095676D01*
X126304680Y-109181693D01*
X126570369Y-108784060D01*
X126675145Y-108257316D01*
X126570369Y-107730572D01*
X126271993Y-107284020D01*
X125825441Y-106985644D01*
X125431660Y-106907316D01*
X125348823Y-106907316D01*
X125487090Y-106814929D01*
X125785466Y-106368377D01*
X125890242Y-105841633D01*
X125785466Y-105314889D01*
X125487090Y-104868337D01*
X125040538Y-104569961D01*
X124646757Y-104491633D01*
X124563918Y-104491633D01*
X124702187Y-104399245D01*
X125000563Y-103952693D01*
X125105339Y-103425949D01*
X125000563Y-102899205D01*
X124728891Y-102492618D01*
X124728891Y-101584919D01*
X126390812Y-99922999D01*
X128812191Y-99922999D01*
X128910681Y-99942590D01*
G36*
X149973973Y-105339546D02*
X150006049Y-105387551D01*
X150196246Y-105514637D01*
X150363972Y-105548000D01*
X150363976Y-105548000D01*
X150420600Y-105559263D01*
X150477224Y-105548000D01*
X157895600Y-105548000D01*
X157895601Y-113884000D01*
X156500328Y-113884000D01*
X156941361Y-113844363D01*
X157177148Y-113746697D01*
X157245390Y-113554779D01*
X156603400Y-112912789D01*
X155961410Y-113554779D01*
X156029652Y-113746697D01*
X156468741Y-113884000D01*
X154029516Y-113884000D01*
X154121259Y-113746697D01*
X154173284Y-113668836D01*
X154212053Y-113473932D01*
X154344462Y-113606341D01*
X154739569Y-113770000D01*
X155167231Y-113770000D01*
X155562338Y-113606341D01*
X155864741Y-113303938D01*
X155927015Y-113153596D01*
X156385611Y-112695000D01*
X156821189Y-112695000D01*
X157463179Y-113336990D01*
X157655097Y-113268748D01*
X157794605Y-112822607D01*
X157752763Y-112357039D01*
X157655097Y-112121252D01*
X157463179Y-112053010D01*
X156821189Y-112695000D01*
X156385611Y-112695000D01*
X156371469Y-112680858D01*
X156589258Y-112463069D01*
X156603400Y-112477211D01*
X157245390Y-111835221D01*
X157177148Y-111643303D01*
X156787686Y-111521518D01*
X156794554Y-111498586D01*
X156751136Y-111073135D01*
X156671854Y-110881732D01*
X156490248Y-110825941D01*
X155921189Y-111395000D01*
X155935331Y-111409142D01*
X155717542Y-111626931D01*
X155703400Y-111612789D01*
X155689258Y-111626931D01*
X155471469Y-111409142D01*
X155485611Y-111395000D01*
X155471469Y-111380858D01*
X155689258Y-111163069D01*
X155703400Y-111177211D01*
X156272459Y-110608152D01*
X156216668Y-110426546D01*
X155806986Y-110303846D01*
X155381535Y-110347264D01*
X155190132Y-110426546D01*
X155134342Y-110608150D01*
X155038650Y-110512458D01*
X154939894Y-110611215D01*
X154812338Y-110483659D01*
X154417231Y-110320000D01*
X153989569Y-110320000D01*
X153594462Y-110483659D01*
X153453400Y-110624721D01*
X153312338Y-110483659D01*
X152917231Y-110320000D01*
X152489569Y-110320000D01*
X152094462Y-110483659D01*
X151792059Y-110786062D01*
X151628400Y-111181169D01*
X151628400Y-111530991D01*
X151465439Y-111545637D01*
X151229652Y-111643303D01*
X151161410Y-111835221D01*
X151803400Y-112477211D01*
X151817542Y-112463069D01*
X152035331Y-112680858D01*
X152021189Y-112695000D01*
X152035331Y-112709142D01*
X151817542Y-112926931D01*
X151803400Y-112912789D01*
X151789258Y-112926931D01*
X151571469Y-112709142D01*
X151585611Y-112695000D01*
X150943621Y-112053010D01*
X150751703Y-112121252D01*
X150612195Y-112567393D01*
X150654037Y-113032961D01*
X150706492Y-113159600D01*
X141504180Y-113159600D01*
X137295736Y-108951156D01*
X155168420Y-108951156D01*
X155168420Y-109388764D01*
X155335885Y-109793060D01*
X155645320Y-110102495D01*
X156049616Y-110269960D01*
X156487224Y-110269960D01*
X156891520Y-110102495D01*
X157200955Y-109793060D01*
X157368420Y-109388764D01*
X157368420Y-108951156D01*
X157200955Y-108546860D01*
X156891520Y-108237425D01*
X156487224Y-108069960D01*
X156049616Y-108069960D01*
X155645320Y-108237425D01*
X155335885Y-108546860D01*
X155168420Y-108951156D01*
X137295736Y-108951156D01*
X135352623Y-107008044D01*
X135563714Y-107008044D01*
X135857748Y-106886251D01*
X136082791Y-106661208D01*
X136204584Y-106367174D01*
X136204584Y-106048914D01*
X136082791Y-105754880D01*
X135857748Y-105529837D01*
X135737035Y-105479836D01*
X135687148Y-105429949D01*
X135687146Y-105429946D01*
X134000940Y-103743741D01*
X134000940Y-101601952D01*
X134233896Y-101446296D01*
X134532272Y-100999744D01*
X134546679Y-100927316D01*
X134737504Y-101305082D01*
X135136851Y-101648573D01*
X135438688Y-101773585D01*
X135646600Y-101688281D01*
X135646600Y-100627000D01*
X135626600Y-100627000D01*
X135626600Y-100319000D01*
X135646600Y-100319000D01*
X135646600Y-100299000D01*
X135954600Y-100299000D01*
X135954600Y-100319000D01*
X135974600Y-100319000D01*
X135974600Y-100627000D01*
X135954600Y-100627000D01*
X135954600Y-101688281D01*
X136162512Y-101773585D01*
X136464349Y-101648573D01*
X136863696Y-101305082D01*
X137054521Y-100927316D01*
X137068928Y-100999744D01*
X137367304Y-101446296D01*
X137813856Y-101744672D01*
X138207637Y-101823000D01*
X138473563Y-101823000D01*
X138867344Y-101744672D01*
X139313896Y-101446296D01*
X139610600Y-101002246D01*
X139907304Y-101446296D01*
X140353856Y-101744672D01*
X140747637Y-101823000D01*
X141013563Y-101823000D01*
X141407344Y-101744672D01*
X141853896Y-101446296D01*
X142060805Y-101136634D01*
X142060805Y-101323000D01*
X142099611Y-101518090D01*
X142210120Y-101683480D01*
X142375510Y-101793989D01*
X142570600Y-101832795D01*
X144270600Y-101832795D01*
X144465690Y-101793989D01*
X144631080Y-101683480D01*
X144741589Y-101518090D01*
X144780395Y-101323000D01*
X144780395Y-100145967D01*
X149973973Y-105339546D01*
X149973973Y-105339546D01*
G37*
X149973973Y-105339546D02*
X150006049Y-105387551D01*
X150196246Y-105514637D01*
X150363972Y-105548000D01*
X150363976Y-105548000D01*
X150420600Y-105559263D01*
X150477224Y-105548000D01*
X157895600Y-105548000D01*
X157895601Y-113884000D01*
X156500328Y-113884000D01*
X156941361Y-113844363D01*
X157177148Y-113746697D01*
X157245390Y-113554779D01*
X156603400Y-112912789D01*
X155961410Y-113554779D01*
X156029652Y-113746697D01*
X156468741Y-113884000D01*
X154029516Y-113884000D01*
X154121259Y-113746697D01*
X154173284Y-113668836D01*
X154212053Y-113473932D01*
X154344462Y-113606341D01*
X154739569Y-113770000D01*
X155167231Y-113770000D01*
X155562338Y-113606341D01*
X155864741Y-113303938D01*
X155927015Y-113153596D01*
X156385611Y-112695000D01*
X156821189Y-112695000D01*
X157463179Y-113336990D01*
X157655097Y-113268748D01*
X157794605Y-112822607D01*
X157752763Y-112357039D01*
X157655097Y-112121252D01*
X157463179Y-112053010D01*
X156821189Y-112695000D01*
X156385611Y-112695000D01*
X156371469Y-112680858D01*
X156589258Y-112463069D01*
X156603400Y-112477211D01*
X157245390Y-111835221D01*
X157177148Y-111643303D01*
X156787686Y-111521518D01*
X156794554Y-111498586D01*
X156751136Y-111073135D01*
X156671854Y-110881732D01*
X156490248Y-110825941D01*
X155921189Y-111395000D01*
X155935331Y-111409142D01*
X155717542Y-111626931D01*
X155703400Y-111612789D01*
X155689258Y-111626931D01*
X155471469Y-111409142D01*
X155485611Y-111395000D01*
X155471469Y-111380858D01*
X155689258Y-111163069D01*
X155703400Y-111177211D01*
X156272459Y-110608152D01*
X156216668Y-110426546D01*
X155806986Y-110303846D01*
X155381535Y-110347264D01*
X155190132Y-110426546D01*
X155134342Y-110608150D01*
X155038650Y-110512458D01*
X154939894Y-110611215D01*
X154812338Y-110483659D01*
X154417231Y-110320000D01*
X153989569Y-110320000D01*
X153594462Y-110483659D01*
X153453400Y-110624721D01*
X153312338Y-110483659D01*
X152917231Y-110320000D01*
X152489569Y-110320000D01*
X152094462Y-110483659D01*
X151792059Y-110786062D01*
X151628400Y-111181169D01*
X151628400Y-111530991D01*
X151465439Y-111545637D01*
X151229652Y-111643303D01*
X151161410Y-111835221D01*
X151803400Y-112477211D01*
X151817542Y-112463069D01*
X152035331Y-112680858D01*
X152021189Y-112695000D01*
X152035331Y-112709142D01*
X151817542Y-112926931D01*
X151803400Y-112912789D01*
X151789258Y-112926931D01*
X151571469Y-112709142D01*
X151585611Y-112695000D01*
X150943621Y-112053010D01*
X150751703Y-112121252D01*
X150612195Y-112567393D01*
X150654037Y-113032961D01*
X150706492Y-113159600D01*
X141504180Y-113159600D01*
X137295736Y-108951156D01*
X155168420Y-108951156D01*
X155168420Y-109388764D01*
X155335885Y-109793060D01*
X155645320Y-110102495D01*
X156049616Y-110269960D01*
X156487224Y-110269960D01*
X156891520Y-110102495D01*
X157200955Y-109793060D01*
X157368420Y-109388764D01*
X157368420Y-108951156D01*
X157200955Y-108546860D01*
X156891520Y-108237425D01*
X156487224Y-108069960D01*
X156049616Y-108069960D01*
X155645320Y-108237425D01*
X155335885Y-108546860D01*
X155168420Y-108951156D01*
X137295736Y-108951156D01*
X135352623Y-107008044D01*
X135563714Y-107008044D01*
X135857748Y-106886251D01*
X136082791Y-106661208D01*
X136204584Y-106367174D01*
X136204584Y-106048914D01*
X136082791Y-105754880D01*
X135857748Y-105529837D01*
X135737035Y-105479836D01*
X135687148Y-105429949D01*
X135687146Y-105429946D01*
X134000940Y-103743741D01*
X134000940Y-101601952D01*
X134233896Y-101446296D01*
X134532272Y-100999744D01*
X134546679Y-100927316D01*
X134737504Y-101305082D01*
X135136851Y-101648573D01*
X135438688Y-101773585D01*
X135646600Y-101688281D01*
X135646600Y-100627000D01*
X135626600Y-100627000D01*
X135626600Y-100319000D01*
X135646600Y-100319000D01*
X135646600Y-100299000D01*
X135954600Y-100299000D01*
X135954600Y-100319000D01*
X135974600Y-100319000D01*
X135974600Y-100627000D01*
X135954600Y-100627000D01*
X135954600Y-101688281D01*
X136162512Y-101773585D01*
X136464349Y-101648573D01*
X136863696Y-101305082D01*
X137054521Y-100927316D01*
X137068928Y-100999744D01*
X137367304Y-101446296D01*
X137813856Y-101744672D01*
X138207637Y-101823000D01*
X138473563Y-101823000D01*
X138867344Y-101744672D01*
X139313896Y-101446296D01*
X139610600Y-101002246D01*
X139907304Y-101446296D01*
X140353856Y-101744672D01*
X140747637Y-101823000D01*
X141013563Y-101823000D01*
X141407344Y-101744672D01*
X141853896Y-101446296D01*
X142060805Y-101136634D01*
X142060805Y-101323000D01*
X142099611Y-101518090D01*
X142210120Y-101683480D01*
X142375510Y-101793989D01*
X142570600Y-101832795D01*
X144270600Y-101832795D01*
X144465690Y-101793989D01*
X144631080Y-101683480D01*
X144741589Y-101518090D01*
X144780395Y-101323000D01*
X144780395Y-100145967D01*
X149973973Y-105339546D01*
G36*
X128910681Y-119008590D02*
X129009171Y-118988999D01*
X129464468Y-118988999D01*
X129448928Y-119012256D01*
X129344152Y-119539000D01*
X129448928Y-120065744D01*
X129747304Y-120512296D01*
X129955860Y-120651649D01*
X129955861Y-122414070D01*
X129941167Y-122487940D01*
X129961556Y-122590438D01*
X129999377Y-122780575D01*
X130165141Y-123028660D01*
X130227764Y-123070503D01*
X140107260Y-132950000D01*
X128753955Y-132950000D01*
X129006955Y-132697000D01*
X129174420Y-132292704D01*
X129174420Y-131855096D01*
X129006955Y-131450800D01*
X128697520Y-131141365D01*
X128293224Y-130973900D01*
X127855616Y-130973900D01*
X127451320Y-131141365D01*
X127141885Y-131450800D01*
X126974420Y-131855096D01*
X126974420Y-132292704D01*
X127141885Y-132697000D01*
X127394885Y-132950000D01*
X126132995Y-132950000D01*
X125579439Y-131314880D01*
X125597787Y-131316324D01*
X126235428Y-131109142D01*
X126315683Y-130951633D01*
X125984726Y-129933051D01*
X125965704Y-129939232D01*
X125932772Y-129837874D01*
X126277651Y-129837874D01*
X126608609Y-130856456D01*
X126766118Y-130936711D01*
X127403759Y-130729528D01*
X127555013Y-130600345D01*
X127645317Y-130423113D01*
X127660924Y-130224813D01*
X127599457Y-130035637D01*
X127453742Y-129587172D01*
X127296233Y-129506917D01*
X126277651Y-129837874D01*
X125932772Y-129837874D01*
X125870528Y-129646306D01*
X125889549Y-129640126D01*
X125883368Y-129621104D01*
X126176294Y-129525928D01*
X126182474Y-129544949D01*
X127201056Y-129213991D01*
X127281311Y-129056482D01*
X127135595Y-128608017D01*
X127074128Y-128418841D01*
X126944945Y-128267587D01*
X126767712Y-128177282D01*
X126569413Y-128161676D01*
X126304680Y-128247693D01*
X126570369Y-127850060D01*
X126675145Y-127323316D01*
X126570369Y-126796572D01*
X126271993Y-126350020D01*
X125825441Y-126051644D01*
X125431660Y-125973316D01*
X125348823Y-125973316D01*
X125487090Y-125880929D01*
X125785466Y-125434377D01*
X125890242Y-124907633D01*
X125785466Y-124380889D01*
X125487090Y-123934337D01*
X125040538Y-123635961D01*
X124646757Y-123557633D01*
X124563918Y-123557633D01*
X124702187Y-123465245D01*
X125000563Y-123018693D01*
X125105339Y-122491949D01*
X125000563Y-121965205D01*
X124728891Y-121558618D01*
X124728891Y-120650919D01*
X126390812Y-118988999D01*
X128812191Y-118988999D01*
X128910681Y-119008590D01*
X128910681Y-119008590D01*
G37*
X128910681Y-119008590D02*
X129009171Y-118988999D01*
X129464468Y-118988999D01*
X129448928Y-119012256D01*
X129344152Y-119539000D01*
X129448928Y-120065744D01*
X129747304Y-120512296D01*
X129955860Y-120651649D01*
X129955861Y-122414070D01*
X129941167Y-122487940D01*
X129961556Y-122590438D01*
X129999377Y-122780575D01*
X130165141Y-123028660D01*
X130227764Y-123070503D01*
X140107260Y-132950000D01*
X128753955Y-132950000D01*
X129006955Y-132697000D01*
X129174420Y-132292704D01*
X129174420Y-131855096D01*
X129006955Y-131450800D01*
X128697520Y-131141365D01*
X128293224Y-130973900D01*
X127855616Y-130973900D01*
X127451320Y-131141365D01*
X127141885Y-131450800D01*
X126974420Y-131855096D01*
X126974420Y-132292704D01*
X127141885Y-132697000D01*
X127394885Y-132950000D01*
X126132995Y-132950000D01*
X125579439Y-131314880D01*
X125597787Y-131316324D01*
X126235428Y-131109142D01*
X126315683Y-130951633D01*
X125984726Y-129933051D01*
X125965704Y-129939232D01*
X125932772Y-129837874D01*
X126277651Y-129837874D01*
X126608609Y-130856456D01*
X126766118Y-130936711D01*
X127403759Y-130729528D01*
X127555013Y-130600345D01*
X127645317Y-130423113D01*
X127660924Y-130224813D01*
X127599457Y-130035637D01*
X127453742Y-129587172D01*
X127296233Y-129506917D01*
X126277651Y-129837874D01*
X125932772Y-129837874D01*
X125870528Y-129646306D01*
X125889549Y-129640126D01*
X125883368Y-129621104D01*
X126176294Y-129525928D01*
X126182474Y-129544949D01*
X127201056Y-129213991D01*
X127281311Y-129056482D01*
X127135595Y-128608017D01*
X127074128Y-128418841D01*
X126944945Y-128267587D01*
X126767712Y-128177282D01*
X126569413Y-128161676D01*
X126304680Y-128247693D01*
X126570369Y-127850060D01*
X126675145Y-127323316D01*
X126570369Y-126796572D01*
X126271993Y-126350020D01*
X125825441Y-126051644D01*
X125431660Y-125973316D01*
X125348823Y-125973316D01*
X125487090Y-125880929D01*
X125785466Y-125434377D01*
X125890242Y-124907633D01*
X125785466Y-124380889D01*
X125487090Y-123934337D01*
X125040538Y-123635961D01*
X124646757Y-123557633D01*
X124563918Y-123557633D01*
X124702187Y-123465245D01*
X125000563Y-123018693D01*
X125105339Y-122491949D01*
X125000563Y-121965205D01*
X124728891Y-121558618D01*
X124728891Y-120650919D01*
X126390812Y-118988999D01*
X128812191Y-118988999D01*
X128910681Y-119008590D01*
G36*
X149973973Y-124405546D02*
X150006049Y-124453551D01*
X150196246Y-124580637D01*
X150363972Y-124614000D01*
X150363976Y-124614000D01*
X150420600Y-124625263D01*
X150477224Y-124614000D01*
X157895600Y-124614000D01*
X157895601Y-132950000D01*
X156500328Y-132950000D01*
X156941361Y-132910363D01*
X157177148Y-132812697D01*
X157245390Y-132620779D01*
X156603400Y-131978789D01*
X155961410Y-132620779D01*
X156029652Y-132812697D01*
X156468741Y-132950000D01*
X154029516Y-132950000D01*
X154121259Y-132812697D01*
X154173284Y-132734836D01*
X154212053Y-132539932D01*
X154344462Y-132672341D01*
X154739569Y-132836000D01*
X155167231Y-132836000D01*
X155562338Y-132672341D01*
X155864741Y-132369938D01*
X155927015Y-132219596D01*
X156385611Y-131761000D01*
X156821189Y-131761000D01*
X157463179Y-132402990D01*
X157655097Y-132334748D01*
X157794605Y-131888607D01*
X157752763Y-131423039D01*
X157655097Y-131187252D01*
X157463179Y-131119010D01*
X156821189Y-131761000D01*
X156385611Y-131761000D01*
X156371469Y-131746858D01*
X156589258Y-131529069D01*
X156603400Y-131543211D01*
X157245390Y-130901221D01*
X157177148Y-130709303D01*
X156787686Y-130587518D01*
X156794554Y-130564586D01*
X156751136Y-130139135D01*
X156671854Y-129947732D01*
X156490248Y-129891941D01*
X155921189Y-130461000D01*
X155935331Y-130475142D01*
X155717542Y-130692931D01*
X155703400Y-130678789D01*
X155689258Y-130692931D01*
X155471469Y-130475142D01*
X155485611Y-130461000D01*
X155471469Y-130446858D01*
X155689258Y-130229069D01*
X155703400Y-130243211D01*
X156272459Y-129674152D01*
X156216668Y-129492546D01*
X155806986Y-129369846D01*
X155381535Y-129413264D01*
X155190132Y-129492546D01*
X155134342Y-129674150D01*
X155038650Y-129578458D01*
X154939894Y-129677215D01*
X154812338Y-129549659D01*
X154417231Y-129386000D01*
X153989569Y-129386000D01*
X153594462Y-129549659D01*
X153453400Y-129690721D01*
X153312338Y-129549659D01*
X152917231Y-129386000D01*
X152489569Y-129386000D01*
X152094462Y-129549659D01*
X151792059Y-129852062D01*
X151628400Y-130247169D01*
X151628400Y-130596991D01*
X151465439Y-130611637D01*
X151229652Y-130709303D01*
X151161410Y-130901221D01*
X151803400Y-131543211D01*
X151817542Y-131529069D01*
X152035331Y-131746858D01*
X152021189Y-131761000D01*
X152035331Y-131775142D01*
X151817542Y-131992931D01*
X151803400Y-131978789D01*
X151789258Y-131992931D01*
X151571469Y-131775142D01*
X151585611Y-131761000D01*
X150943621Y-131119010D01*
X150751703Y-131187252D01*
X150612195Y-131633393D01*
X150654037Y-132098961D01*
X150706492Y-132225600D01*
X141504180Y-132225600D01*
X137295736Y-128017156D01*
X155168420Y-128017156D01*
X155168420Y-128454764D01*
X155335885Y-128859060D01*
X155645320Y-129168495D01*
X156049616Y-129335960D01*
X156487224Y-129335960D01*
X156891520Y-129168495D01*
X157200955Y-128859060D01*
X157368420Y-128454764D01*
X157368420Y-128017156D01*
X157200955Y-127612860D01*
X156891520Y-127303425D01*
X156487224Y-127135960D01*
X156049616Y-127135960D01*
X155645320Y-127303425D01*
X155335885Y-127612860D01*
X155168420Y-128017156D01*
X137295736Y-128017156D01*
X135352623Y-126074044D01*
X135563714Y-126074044D01*
X135857748Y-125952251D01*
X136082791Y-125727208D01*
X136204584Y-125433174D01*
X136204584Y-125114914D01*
X136082791Y-124820880D01*
X135857748Y-124595837D01*
X135737035Y-124545836D01*
X135687148Y-124495949D01*
X135687146Y-124495946D01*
X134000940Y-122809741D01*
X134000940Y-120667952D01*
X134233896Y-120512296D01*
X134532272Y-120065744D01*
X134546679Y-119993316D01*
X134737504Y-120371082D01*
X135136851Y-120714573D01*
X135438688Y-120839585D01*
X135646600Y-120754281D01*
X135646600Y-119693000D01*
X135626600Y-119693000D01*
X135626600Y-119385000D01*
X135646600Y-119385000D01*
X135646600Y-119365000D01*
X135954600Y-119365000D01*
X135954600Y-119385000D01*
X135974600Y-119385000D01*
X135974600Y-119693000D01*
X135954600Y-119693000D01*
X135954600Y-120754281D01*
X136162512Y-120839585D01*
X136464349Y-120714573D01*
X136863696Y-120371082D01*
X137054521Y-119993316D01*
X137068928Y-120065744D01*
X137367304Y-120512296D01*
X137813856Y-120810672D01*
X138207637Y-120889000D01*
X138473563Y-120889000D01*
X138867344Y-120810672D01*
X139313896Y-120512296D01*
X139610600Y-120068246D01*
X139907304Y-120512296D01*
X140353856Y-120810672D01*
X140747637Y-120889000D01*
X141013563Y-120889000D01*
X141407344Y-120810672D01*
X141853896Y-120512296D01*
X142060805Y-120202634D01*
X142060805Y-120389000D01*
X142099611Y-120584090D01*
X142210120Y-120749480D01*
X142375510Y-120859989D01*
X142570600Y-120898795D01*
X144270600Y-120898795D01*
X144465690Y-120859989D01*
X144631080Y-120749480D01*
X144741589Y-120584090D01*
X144780395Y-120389000D01*
X144780395Y-119211967D01*
X149973973Y-124405546D01*
X149973973Y-124405546D01*
G37*
X149973973Y-124405546D02*
X150006049Y-124453551D01*
X150196246Y-124580637D01*
X150363972Y-124614000D01*
X150363976Y-124614000D01*
X150420600Y-124625263D01*
X150477224Y-124614000D01*
X157895600Y-124614000D01*
X157895601Y-132950000D01*
X156500328Y-132950000D01*
X156941361Y-132910363D01*
X157177148Y-132812697D01*
X157245390Y-132620779D01*
X156603400Y-131978789D01*
X155961410Y-132620779D01*
X156029652Y-132812697D01*
X156468741Y-132950000D01*
X154029516Y-132950000D01*
X154121259Y-132812697D01*
X154173284Y-132734836D01*
X154212053Y-132539932D01*
X154344462Y-132672341D01*
X154739569Y-132836000D01*
X155167231Y-132836000D01*
X155562338Y-132672341D01*
X155864741Y-132369938D01*
X155927015Y-132219596D01*
X156385611Y-131761000D01*
X156821189Y-131761000D01*
X157463179Y-132402990D01*
X157655097Y-132334748D01*
X157794605Y-131888607D01*
X157752763Y-131423039D01*
X157655097Y-131187252D01*
X157463179Y-131119010D01*
X156821189Y-131761000D01*
X156385611Y-131761000D01*
X156371469Y-131746858D01*
X156589258Y-131529069D01*
X156603400Y-131543211D01*
X157245390Y-130901221D01*
X157177148Y-130709303D01*
X156787686Y-130587518D01*
X156794554Y-130564586D01*
X156751136Y-130139135D01*
X156671854Y-129947732D01*
X156490248Y-129891941D01*
X155921189Y-130461000D01*
X155935331Y-130475142D01*
X155717542Y-130692931D01*
X155703400Y-130678789D01*
X155689258Y-130692931D01*
X155471469Y-130475142D01*
X155485611Y-130461000D01*
X155471469Y-130446858D01*
X155689258Y-130229069D01*
X155703400Y-130243211D01*
X156272459Y-129674152D01*
X156216668Y-129492546D01*
X155806986Y-129369846D01*
X155381535Y-129413264D01*
X155190132Y-129492546D01*
X155134342Y-129674150D01*
X155038650Y-129578458D01*
X154939894Y-129677215D01*
X154812338Y-129549659D01*
X154417231Y-129386000D01*
X153989569Y-129386000D01*
X153594462Y-129549659D01*
X153453400Y-129690721D01*
X153312338Y-129549659D01*
X152917231Y-129386000D01*
X152489569Y-129386000D01*
X152094462Y-129549659D01*
X151792059Y-129852062D01*
X151628400Y-130247169D01*
X151628400Y-130596991D01*
X151465439Y-130611637D01*
X151229652Y-130709303D01*
X151161410Y-130901221D01*
X151803400Y-131543211D01*
X151817542Y-131529069D01*
X152035331Y-131746858D01*
X152021189Y-131761000D01*
X152035331Y-131775142D01*
X151817542Y-131992931D01*
X151803400Y-131978789D01*
X151789258Y-131992931D01*
X151571469Y-131775142D01*
X151585611Y-131761000D01*
X150943621Y-131119010D01*
X150751703Y-131187252D01*
X150612195Y-131633393D01*
X150654037Y-132098961D01*
X150706492Y-132225600D01*
X141504180Y-132225600D01*
X137295736Y-128017156D01*
X155168420Y-128017156D01*
X155168420Y-128454764D01*
X155335885Y-128859060D01*
X155645320Y-129168495D01*
X156049616Y-129335960D01*
X156487224Y-129335960D01*
X156891520Y-129168495D01*
X157200955Y-128859060D01*
X157368420Y-128454764D01*
X157368420Y-128017156D01*
X157200955Y-127612860D01*
X156891520Y-127303425D01*
X156487224Y-127135960D01*
X156049616Y-127135960D01*
X155645320Y-127303425D01*
X155335885Y-127612860D01*
X155168420Y-128017156D01*
X137295736Y-128017156D01*
X135352623Y-126074044D01*
X135563714Y-126074044D01*
X135857748Y-125952251D01*
X136082791Y-125727208D01*
X136204584Y-125433174D01*
X136204584Y-125114914D01*
X136082791Y-124820880D01*
X135857748Y-124595837D01*
X135737035Y-124545836D01*
X135687148Y-124495949D01*
X135687146Y-124495946D01*
X134000940Y-122809741D01*
X134000940Y-120667952D01*
X134233896Y-120512296D01*
X134532272Y-120065744D01*
X134546679Y-119993316D01*
X134737504Y-120371082D01*
X135136851Y-120714573D01*
X135438688Y-120839585D01*
X135646600Y-120754281D01*
X135646600Y-119693000D01*
X135626600Y-119693000D01*
X135626600Y-119385000D01*
X135646600Y-119385000D01*
X135646600Y-119365000D01*
X135954600Y-119365000D01*
X135954600Y-119385000D01*
X135974600Y-119385000D01*
X135974600Y-119693000D01*
X135954600Y-119693000D01*
X135954600Y-120754281D01*
X136162512Y-120839585D01*
X136464349Y-120714573D01*
X136863696Y-120371082D01*
X137054521Y-119993316D01*
X137068928Y-120065744D01*
X137367304Y-120512296D01*
X137813856Y-120810672D01*
X138207637Y-120889000D01*
X138473563Y-120889000D01*
X138867344Y-120810672D01*
X139313896Y-120512296D01*
X139610600Y-120068246D01*
X139907304Y-120512296D01*
X140353856Y-120810672D01*
X140747637Y-120889000D01*
X141013563Y-120889000D01*
X141407344Y-120810672D01*
X141853896Y-120512296D01*
X142060805Y-120202634D01*
X142060805Y-120389000D01*
X142099611Y-120584090D01*
X142210120Y-120749480D01*
X142375510Y-120859989D01*
X142570600Y-120898795D01*
X144270600Y-120898795D01*
X144465690Y-120859989D01*
X144631080Y-120749480D01*
X144741589Y-120584090D01*
X144780395Y-120389000D01*
X144780395Y-119211967D01*
X149973973Y-124405546D01*
G36*
X128910681Y-138074590D02*
X129009171Y-138054999D01*
X129464468Y-138054999D01*
X129448928Y-138078256D01*
X129344152Y-138605000D01*
X129448928Y-139131744D01*
X129747304Y-139578296D01*
X129955860Y-139717649D01*
X129955861Y-141480070D01*
X129941167Y-141553940D01*
X129961556Y-141656438D01*
X129999377Y-141846575D01*
X130165141Y-142094660D01*
X130227764Y-142136503D01*
X140107260Y-152016000D01*
X128753955Y-152016000D01*
X129006955Y-151763000D01*
X129174420Y-151358704D01*
X129174420Y-150921096D01*
X129006955Y-150516800D01*
X128697520Y-150207365D01*
X128293224Y-150039900D01*
X127855616Y-150039900D01*
X127451320Y-150207365D01*
X127141885Y-150516800D01*
X126974420Y-150921096D01*
X126974420Y-151358704D01*
X127141885Y-151763000D01*
X127394885Y-152016000D01*
X126132995Y-152016000D01*
X125579439Y-150380880D01*
X125597787Y-150382324D01*
X126235428Y-150175142D01*
X126315683Y-150017633D01*
X125984726Y-148999051D01*
X125965704Y-149005232D01*
X125932772Y-148903874D01*
X126277651Y-148903874D01*
X126608609Y-149922456D01*
X126766118Y-150002711D01*
X127403759Y-149795528D01*
X127555013Y-149666345D01*
X127645317Y-149489113D01*
X127660924Y-149290813D01*
X127599457Y-149101637D01*
X127453742Y-148653172D01*
X127296233Y-148572917D01*
X126277651Y-148903874D01*
X125932772Y-148903874D01*
X125870528Y-148712306D01*
X125889549Y-148706126D01*
X125883368Y-148687104D01*
X126176294Y-148591928D01*
X126182474Y-148610949D01*
X127201056Y-148279991D01*
X127281311Y-148122482D01*
X127135595Y-147674017D01*
X127074128Y-147484841D01*
X126944945Y-147333587D01*
X126767712Y-147243282D01*
X126569413Y-147227676D01*
X126304680Y-147313693D01*
X126570369Y-146916060D01*
X126675145Y-146389316D01*
X126570369Y-145862572D01*
X126271993Y-145416020D01*
X125825441Y-145117644D01*
X125431660Y-145039316D01*
X125348823Y-145039316D01*
X125487090Y-144946929D01*
X125785466Y-144500377D01*
X125890242Y-143973633D01*
X125785466Y-143446889D01*
X125487090Y-143000337D01*
X125040538Y-142701961D01*
X124646757Y-142623633D01*
X124563918Y-142623633D01*
X124702187Y-142531245D01*
X125000563Y-142084693D01*
X125105339Y-141557949D01*
X125000563Y-141031205D01*
X124728891Y-140624618D01*
X124728891Y-139716919D01*
X126390812Y-138054999D01*
X128812191Y-138054999D01*
X128910681Y-138074590D01*
X128910681Y-138074590D01*
G37*
X128910681Y-138074590D02*
X129009171Y-138054999D01*
X129464468Y-138054999D01*
X129448928Y-138078256D01*
X129344152Y-138605000D01*
X129448928Y-139131744D01*
X129747304Y-139578296D01*
X129955860Y-139717649D01*
X129955861Y-141480070D01*
X129941167Y-141553940D01*
X129961556Y-141656438D01*
X129999377Y-141846575D01*
X130165141Y-142094660D01*
X130227764Y-142136503D01*
X140107260Y-152016000D01*
X128753955Y-152016000D01*
X129006955Y-151763000D01*
X129174420Y-151358704D01*
X129174420Y-150921096D01*
X129006955Y-150516800D01*
X128697520Y-150207365D01*
X128293224Y-150039900D01*
X127855616Y-150039900D01*
X127451320Y-150207365D01*
X127141885Y-150516800D01*
X126974420Y-150921096D01*
X126974420Y-151358704D01*
X127141885Y-151763000D01*
X127394885Y-152016000D01*
X126132995Y-152016000D01*
X125579439Y-150380880D01*
X125597787Y-150382324D01*
X126235428Y-150175142D01*
X126315683Y-150017633D01*
X125984726Y-148999051D01*
X125965704Y-149005232D01*
X125932772Y-148903874D01*
X126277651Y-148903874D01*
X126608609Y-149922456D01*
X126766118Y-150002711D01*
X127403759Y-149795528D01*
X127555013Y-149666345D01*
X127645317Y-149489113D01*
X127660924Y-149290813D01*
X127599457Y-149101637D01*
X127453742Y-148653172D01*
X127296233Y-148572917D01*
X126277651Y-148903874D01*
X125932772Y-148903874D01*
X125870528Y-148712306D01*
X125889549Y-148706126D01*
X125883368Y-148687104D01*
X126176294Y-148591928D01*
X126182474Y-148610949D01*
X127201056Y-148279991D01*
X127281311Y-148122482D01*
X127135595Y-147674017D01*
X127074128Y-147484841D01*
X126944945Y-147333587D01*
X126767712Y-147243282D01*
X126569413Y-147227676D01*
X126304680Y-147313693D01*
X126570369Y-146916060D01*
X126675145Y-146389316D01*
X126570369Y-145862572D01*
X126271993Y-145416020D01*
X125825441Y-145117644D01*
X125431660Y-145039316D01*
X125348823Y-145039316D01*
X125487090Y-144946929D01*
X125785466Y-144500377D01*
X125890242Y-143973633D01*
X125785466Y-143446889D01*
X125487090Y-143000337D01*
X125040538Y-142701961D01*
X124646757Y-142623633D01*
X124563918Y-142623633D01*
X124702187Y-142531245D01*
X125000563Y-142084693D01*
X125105339Y-141557949D01*
X125000563Y-141031205D01*
X124728891Y-140624618D01*
X124728891Y-139716919D01*
X126390812Y-138054999D01*
X128812191Y-138054999D01*
X128910681Y-138074590D01*
G36*
X149973973Y-143471546D02*
X150006049Y-143519551D01*
X150196246Y-143646637D01*
X150363972Y-143680000D01*
X150363976Y-143680000D01*
X150420600Y-143691263D01*
X150477224Y-143680000D01*
X157895600Y-143680000D01*
X157895601Y-152016000D01*
X156500328Y-152016000D01*
X156941361Y-151976363D01*
X157177148Y-151878697D01*
X157245390Y-151686779D01*
X156603400Y-151044789D01*
X155961410Y-151686779D01*
X156029652Y-151878697D01*
X156468741Y-152016000D01*
X154029516Y-152016000D01*
X154121259Y-151878697D01*
X154173284Y-151800836D01*
X154212053Y-151605932D01*
X154344462Y-151738341D01*
X154739569Y-151902000D01*
X155167231Y-151902000D01*
X155562338Y-151738341D01*
X155864741Y-151435938D01*
X155927015Y-151285596D01*
X156385611Y-150827000D01*
X156821189Y-150827000D01*
X157463179Y-151468990D01*
X157655097Y-151400748D01*
X157794605Y-150954607D01*
X157752763Y-150489039D01*
X157655097Y-150253252D01*
X157463179Y-150185010D01*
X156821189Y-150827000D01*
X156385611Y-150827000D01*
X156371469Y-150812858D01*
X156589258Y-150595069D01*
X156603400Y-150609211D01*
X157245390Y-149967221D01*
X157177148Y-149775303D01*
X156787686Y-149653518D01*
X156794554Y-149630586D01*
X156751136Y-149205135D01*
X156671854Y-149013732D01*
X156490248Y-148957941D01*
X155921189Y-149527000D01*
X155935331Y-149541142D01*
X155717542Y-149758931D01*
X155703400Y-149744789D01*
X155689258Y-149758931D01*
X155471469Y-149541142D01*
X155485611Y-149527000D01*
X155471469Y-149512858D01*
X155689258Y-149295069D01*
X155703400Y-149309211D01*
X156272459Y-148740152D01*
X156216668Y-148558546D01*
X155806986Y-148435846D01*
X155381535Y-148479264D01*
X155190132Y-148558546D01*
X155134342Y-148740150D01*
X155038650Y-148644458D01*
X154939894Y-148743215D01*
X154812338Y-148615659D01*
X154417231Y-148452000D01*
X153989569Y-148452000D01*
X153594462Y-148615659D01*
X153453400Y-148756721D01*
X153312338Y-148615659D01*
X152917231Y-148452000D01*
X152489569Y-148452000D01*
X152094462Y-148615659D01*
X151792059Y-148918062D01*
X151628400Y-149313169D01*
X151628400Y-149662991D01*
X151465439Y-149677637D01*
X151229652Y-149775303D01*
X151161410Y-149967221D01*
X151803400Y-150609211D01*
X151817542Y-150595069D01*
X152035331Y-150812858D01*
X152021189Y-150827000D01*
X152035331Y-150841142D01*
X151817542Y-151058931D01*
X151803400Y-151044789D01*
X151789258Y-151058931D01*
X151571469Y-150841142D01*
X151585611Y-150827000D01*
X150943621Y-150185010D01*
X150751703Y-150253252D01*
X150612195Y-150699393D01*
X150654037Y-151164961D01*
X150706492Y-151291600D01*
X141504180Y-151291600D01*
X137295736Y-147083156D01*
X155168420Y-147083156D01*
X155168420Y-147520764D01*
X155335885Y-147925060D01*
X155645320Y-148234495D01*
X156049616Y-148401960D01*
X156487224Y-148401960D01*
X156891520Y-148234495D01*
X157200955Y-147925060D01*
X157368420Y-147520764D01*
X157368420Y-147083156D01*
X157200955Y-146678860D01*
X156891520Y-146369425D01*
X156487224Y-146201960D01*
X156049616Y-146201960D01*
X155645320Y-146369425D01*
X155335885Y-146678860D01*
X155168420Y-147083156D01*
X137295736Y-147083156D01*
X135352623Y-145140044D01*
X135563714Y-145140044D01*
X135857748Y-145018251D01*
X136082791Y-144793208D01*
X136204584Y-144499174D01*
X136204584Y-144180914D01*
X136082791Y-143886880D01*
X135857748Y-143661837D01*
X135737035Y-143611836D01*
X135687148Y-143561949D01*
X135687146Y-143561946D01*
X134000940Y-141875741D01*
X134000940Y-139733952D01*
X134233896Y-139578296D01*
X134532272Y-139131744D01*
X134546679Y-139059316D01*
X134737504Y-139437082D01*
X135136851Y-139780573D01*
X135438688Y-139905585D01*
X135646600Y-139820281D01*
X135646600Y-138759000D01*
X135626600Y-138759000D01*
X135626600Y-138451000D01*
X135646600Y-138451000D01*
X135646600Y-138431000D01*
X135954600Y-138431000D01*
X135954600Y-138451000D01*
X135974600Y-138451000D01*
X135974600Y-138759000D01*
X135954600Y-138759000D01*
X135954600Y-139820281D01*
X136162512Y-139905585D01*
X136464349Y-139780573D01*
X136863696Y-139437082D01*
X137054521Y-139059316D01*
X137068928Y-139131744D01*
X137367304Y-139578296D01*
X137813856Y-139876672D01*
X138207637Y-139955000D01*
X138473563Y-139955000D01*
X138867344Y-139876672D01*
X139313896Y-139578296D01*
X139610600Y-139134246D01*
X139907304Y-139578296D01*
X140353856Y-139876672D01*
X140747637Y-139955000D01*
X141013563Y-139955000D01*
X141407344Y-139876672D01*
X141853896Y-139578296D01*
X142060805Y-139268634D01*
X142060805Y-139455000D01*
X142099611Y-139650090D01*
X142210120Y-139815480D01*
X142375510Y-139925989D01*
X142570600Y-139964795D01*
X144270600Y-139964795D01*
X144465690Y-139925989D01*
X144631080Y-139815480D01*
X144741589Y-139650090D01*
X144780395Y-139455000D01*
X144780395Y-138277967D01*
X149973973Y-143471546D01*
X149973973Y-143471546D01*
G37*
X149973973Y-143471546D02*
X150006049Y-143519551D01*
X150196246Y-143646637D01*
X150363972Y-143680000D01*
X150363976Y-143680000D01*
X150420600Y-143691263D01*
X150477224Y-143680000D01*
X157895600Y-143680000D01*
X157895601Y-152016000D01*
X156500328Y-152016000D01*
X156941361Y-151976363D01*
X157177148Y-151878697D01*
X157245390Y-151686779D01*
X156603400Y-151044789D01*
X155961410Y-151686779D01*
X156029652Y-151878697D01*
X156468741Y-152016000D01*
X154029516Y-152016000D01*
X154121259Y-151878697D01*
X154173284Y-151800836D01*
X154212053Y-151605932D01*
X154344462Y-151738341D01*
X154739569Y-151902000D01*
X155167231Y-151902000D01*
X155562338Y-151738341D01*
X155864741Y-151435938D01*
X155927015Y-151285596D01*
X156385611Y-150827000D01*
X156821189Y-150827000D01*
X157463179Y-151468990D01*
X157655097Y-151400748D01*
X157794605Y-150954607D01*
X157752763Y-150489039D01*
X157655097Y-150253252D01*
X157463179Y-150185010D01*
X156821189Y-150827000D01*
X156385611Y-150827000D01*
X156371469Y-150812858D01*
X156589258Y-150595069D01*
X156603400Y-150609211D01*
X157245390Y-149967221D01*
X157177148Y-149775303D01*
X156787686Y-149653518D01*
X156794554Y-149630586D01*
X156751136Y-149205135D01*
X156671854Y-149013732D01*
X156490248Y-148957941D01*
X155921189Y-149527000D01*
X155935331Y-149541142D01*
X155717542Y-149758931D01*
X155703400Y-149744789D01*
X155689258Y-149758931D01*
X155471469Y-149541142D01*
X155485611Y-149527000D01*
X155471469Y-149512858D01*
X155689258Y-149295069D01*
X155703400Y-149309211D01*
X156272459Y-148740152D01*
X156216668Y-148558546D01*
X155806986Y-148435846D01*
X155381535Y-148479264D01*
X155190132Y-148558546D01*
X155134342Y-148740150D01*
X155038650Y-148644458D01*
X154939894Y-148743215D01*
X154812338Y-148615659D01*
X154417231Y-148452000D01*
X153989569Y-148452000D01*
X153594462Y-148615659D01*
X153453400Y-148756721D01*
X153312338Y-148615659D01*
X152917231Y-148452000D01*
X152489569Y-148452000D01*
X152094462Y-148615659D01*
X151792059Y-148918062D01*
X151628400Y-149313169D01*
X151628400Y-149662991D01*
X151465439Y-149677637D01*
X151229652Y-149775303D01*
X151161410Y-149967221D01*
X151803400Y-150609211D01*
X151817542Y-150595069D01*
X152035331Y-150812858D01*
X152021189Y-150827000D01*
X152035331Y-150841142D01*
X151817542Y-151058931D01*
X151803400Y-151044789D01*
X151789258Y-151058931D01*
X151571469Y-150841142D01*
X151585611Y-150827000D01*
X150943621Y-150185010D01*
X150751703Y-150253252D01*
X150612195Y-150699393D01*
X150654037Y-151164961D01*
X150706492Y-151291600D01*
X141504180Y-151291600D01*
X137295736Y-147083156D01*
X155168420Y-147083156D01*
X155168420Y-147520764D01*
X155335885Y-147925060D01*
X155645320Y-148234495D01*
X156049616Y-148401960D01*
X156487224Y-148401960D01*
X156891520Y-148234495D01*
X157200955Y-147925060D01*
X157368420Y-147520764D01*
X157368420Y-147083156D01*
X157200955Y-146678860D01*
X156891520Y-146369425D01*
X156487224Y-146201960D01*
X156049616Y-146201960D01*
X155645320Y-146369425D01*
X155335885Y-146678860D01*
X155168420Y-147083156D01*
X137295736Y-147083156D01*
X135352623Y-145140044D01*
X135563714Y-145140044D01*
X135857748Y-145018251D01*
X136082791Y-144793208D01*
X136204584Y-144499174D01*
X136204584Y-144180914D01*
X136082791Y-143886880D01*
X135857748Y-143661837D01*
X135737035Y-143611836D01*
X135687148Y-143561949D01*
X135687146Y-143561946D01*
X134000940Y-141875741D01*
X134000940Y-139733952D01*
X134233896Y-139578296D01*
X134532272Y-139131744D01*
X134546679Y-139059316D01*
X134737504Y-139437082D01*
X135136851Y-139780573D01*
X135438688Y-139905585D01*
X135646600Y-139820281D01*
X135646600Y-138759000D01*
X135626600Y-138759000D01*
X135626600Y-138451000D01*
X135646600Y-138451000D01*
X135646600Y-138431000D01*
X135954600Y-138431000D01*
X135954600Y-138451000D01*
X135974600Y-138451000D01*
X135974600Y-138759000D01*
X135954600Y-138759000D01*
X135954600Y-139820281D01*
X136162512Y-139905585D01*
X136464349Y-139780573D01*
X136863696Y-139437082D01*
X137054521Y-139059316D01*
X137068928Y-139131744D01*
X137367304Y-139578296D01*
X137813856Y-139876672D01*
X138207637Y-139955000D01*
X138473563Y-139955000D01*
X138867344Y-139876672D01*
X139313896Y-139578296D01*
X139610600Y-139134246D01*
X139907304Y-139578296D01*
X140353856Y-139876672D01*
X140747637Y-139955000D01*
X141013563Y-139955000D01*
X141407344Y-139876672D01*
X141853896Y-139578296D01*
X142060805Y-139268634D01*
X142060805Y-139455000D01*
X142099611Y-139650090D01*
X142210120Y-139815480D01*
X142375510Y-139925989D01*
X142570600Y-139964795D01*
X144270600Y-139964795D01*
X144465690Y-139925989D01*
X144631080Y-139815480D01*
X144741589Y-139650090D01*
X144780395Y-139455000D01*
X144780395Y-138277967D01*
X149973973Y-143471546D01*
G36*
X128910681Y-157140590D02*
X129009171Y-157120999D01*
X129464468Y-157120999D01*
X129448928Y-157144256D01*
X129344152Y-157671000D01*
X129448928Y-158197744D01*
X129747304Y-158644296D01*
X129955860Y-158783649D01*
X129955861Y-160546070D01*
X129941167Y-160619940D01*
X129961556Y-160722438D01*
X129999377Y-160912575D01*
X130165141Y-161160660D01*
X130227764Y-161202503D01*
X140107260Y-171082000D01*
X128753955Y-171082000D01*
X129006955Y-170829000D01*
X129174420Y-170424704D01*
X129174420Y-169987096D01*
X129006955Y-169582800D01*
X128697520Y-169273365D01*
X128293224Y-169105900D01*
X127855616Y-169105900D01*
X127451320Y-169273365D01*
X127141885Y-169582800D01*
X126974420Y-169987096D01*
X126974420Y-170424704D01*
X127141885Y-170829000D01*
X127394885Y-171082000D01*
X126132995Y-171082000D01*
X125579439Y-169446880D01*
X125597787Y-169448324D01*
X126235428Y-169241142D01*
X126315683Y-169083633D01*
X125984726Y-168065051D01*
X125965704Y-168071232D01*
X125932772Y-167969874D01*
X126277651Y-167969874D01*
X126608609Y-168988456D01*
X126766118Y-169068711D01*
X127403759Y-168861528D01*
X127555013Y-168732345D01*
X127645317Y-168555113D01*
X127660924Y-168356813D01*
X127599457Y-168167637D01*
X127453742Y-167719172D01*
X127296233Y-167638917D01*
X126277651Y-167969874D01*
X125932772Y-167969874D01*
X125870528Y-167778306D01*
X125889549Y-167772126D01*
X125883368Y-167753104D01*
X126176294Y-167657928D01*
X126182474Y-167676949D01*
X127201056Y-167345991D01*
X127281311Y-167188482D01*
X127135595Y-166740017D01*
X127074128Y-166550841D01*
X126944945Y-166399587D01*
X126767712Y-166309282D01*
X126569413Y-166293676D01*
X126304680Y-166379693D01*
X126570369Y-165982060D01*
X126675145Y-165455316D01*
X126570369Y-164928572D01*
X126271993Y-164482020D01*
X125825441Y-164183644D01*
X125431660Y-164105316D01*
X125348823Y-164105316D01*
X125487090Y-164012929D01*
X125785466Y-163566377D01*
X125890242Y-163039633D01*
X125785466Y-162512889D01*
X125487090Y-162066337D01*
X125040538Y-161767961D01*
X124646757Y-161689633D01*
X124563918Y-161689633D01*
X124702187Y-161597245D01*
X125000563Y-161150693D01*
X125105339Y-160623949D01*
X125000563Y-160097205D01*
X124728891Y-159690618D01*
X124728891Y-158782919D01*
X126390812Y-157120999D01*
X128812191Y-157120999D01*
X128910681Y-157140590D01*
X128910681Y-157140590D01*
G37*
X128910681Y-157140590D02*
X129009171Y-157120999D01*
X129464468Y-157120999D01*
X129448928Y-157144256D01*
X129344152Y-157671000D01*
X129448928Y-158197744D01*
X129747304Y-158644296D01*
X129955860Y-158783649D01*
X129955861Y-160546070D01*
X129941167Y-160619940D01*
X129961556Y-160722438D01*
X129999377Y-160912575D01*
X130165141Y-161160660D01*
X130227764Y-161202503D01*
X140107260Y-171082000D01*
X128753955Y-171082000D01*
X129006955Y-170829000D01*
X129174420Y-170424704D01*
X129174420Y-169987096D01*
X129006955Y-169582800D01*
X128697520Y-169273365D01*
X128293224Y-169105900D01*
X127855616Y-169105900D01*
X127451320Y-169273365D01*
X127141885Y-169582800D01*
X126974420Y-169987096D01*
X126974420Y-170424704D01*
X127141885Y-170829000D01*
X127394885Y-171082000D01*
X126132995Y-171082000D01*
X125579439Y-169446880D01*
X125597787Y-169448324D01*
X126235428Y-169241142D01*
X126315683Y-169083633D01*
X125984726Y-168065051D01*
X125965704Y-168071232D01*
X125932772Y-167969874D01*
X126277651Y-167969874D01*
X126608609Y-168988456D01*
X126766118Y-169068711D01*
X127403759Y-168861528D01*
X127555013Y-168732345D01*
X127645317Y-168555113D01*
X127660924Y-168356813D01*
X127599457Y-168167637D01*
X127453742Y-167719172D01*
X127296233Y-167638917D01*
X126277651Y-167969874D01*
X125932772Y-167969874D01*
X125870528Y-167778306D01*
X125889549Y-167772126D01*
X125883368Y-167753104D01*
X126176294Y-167657928D01*
X126182474Y-167676949D01*
X127201056Y-167345991D01*
X127281311Y-167188482D01*
X127135595Y-166740017D01*
X127074128Y-166550841D01*
X126944945Y-166399587D01*
X126767712Y-166309282D01*
X126569413Y-166293676D01*
X126304680Y-166379693D01*
X126570369Y-165982060D01*
X126675145Y-165455316D01*
X126570369Y-164928572D01*
X126271993Y-164482020D01*
X125825441Y-164183644D01*
X125431660Y-164105316D01*
X125348823Y-164105316D01*
X125487090Y-164012929D01*
X125785466Y-163566377D01*
X125890242Y-163039633D01*
X125785466Y-162512889D01*
X125487090Y-162066337D01*
X125040538Y-161767961D01*
X124646757Y-161689633D01*
X124563918Y-161689633D01*
X124702187Y-161597245D01*
X125000563Y-161150693D01*
X125105339Y-160623949D01*
X125000563Y-160097205D01*
X124728891Y-159690618D01*
X124728891Y-158782919D01*
X126390812Y-157120999D01*
X128812191Y-157120999D01*
X128910681Y-157140590D01*
G36*
X149973973Y-162537546D02*
X150006049Y-162585551D01*
X150196246Y-162712637D01*
X150363972Y-162746000D01*
X150363976Y-162746000D01*
X150420600Y-162757263D01*
X150477224Y-162746000D01*
X157895600Y-162746000D01*
X157895601Y-171082000D01*
X156500328Y-171082000D01*
X156941361Y-171042363D01*
X157177148Y-170944697D01*
X157245390Y-170752779D01*
X156603400Y-170110789D01*
X155961410Y-170752779D01*
X156029652Y-170944697D01*
X156468741Y-171082000D01*
X154029516Y-171082000D01*
X154121259Y-170944697D01*
X154173284Y-170866836D01*
X154212053Y-170671932D01*
X154344462Y-170804341D01*
X154739569Y-170968000D01*
X155167231Y-170968000D01*
X155562338Y-170804341D01*
X155864741Y-170501938D01*
X155927015Y-170351596D01*
X156385611Y-169893000D01*
X156821189Y-169893000D01*
X157463179Y-170534990D01*
X157655097Y-170466748D01*
X157794605Y-170020607D01*
X157752763Y-169555039D01*
X157655097Y-169319252D01*
X157463179Y-169251010D01*
X156821189Y-169893000D01*
X156385611Y-169893000D01*
X156371469Y-169878858D01*
X156589258Y-169661069D01*
X156603400Y-169675211D01*
X157245390Y-169033221D01*
X157177148Y-168841303D01*
X156787686Y-168719518D01*
X156794554Y-168696586D01*
X156751136Y-168271135D01*
X156671854Y-168079732D01*
X156490248Y-168023941D01*
X155921189Y-168593000D01*
X155935331Y-168607142D01*
X155717542Y-168824931D01*
X155703400Y-168810789D01*
X155689258Y-168824931D01*
X155471469Y-168607142D01*
X155485611Y-168593000D01*
X155471469Y-168578858D01*
X155689258Y-168361069D01*
X155703400Y-168375211D01*
X156272459Y-167806152D01*
X156216668Y-167624546D01*
X155806986Y-167501846D01*
X155381535Y-167545264D01*
X155190132Y-167624546D01*
X155134342Y-167806150D01*
X155038650Y-167710458D01*
X154939894Y-167809215D01*
X154812338Y-167681659D01*
X154417231Y-167518000D01*
X153989569Y-167518000D01*
X153594462Y-167681659D01*
X153453400Y-167822721D01*
X153312338Y-167681659D01*
X152917231Y-167518000D01*
X152489569Y-167518000D01*
X152094462Y-167681659D01*
X151792059Y-167984062D01*
X151628400Y-168379169D01*
X151628400Y-168728991D01*
X151465439Y-168743637D01*
X151229652Y-168841303D01*
X151161410Y-169033221D01*
X151803400Y-169675211D01*
X151817542Y-169661069D01*
X152035331Y-169878858D01*
X152021189Y-169893000D01*
X152035331Y-169907142D01*
X151817542Y-170124931D01*
X151803400Y-170110789D01*
X151789258Y-170124931D01*
X151571469Y-169907142D01*
X151585611Y-169893000D01*
X150943621Y-169251010D01*
X150751703Y-169319252D01*
X150612195Y-169765393D01*
X150654037Y-170230961D01*
X150706492Y-170357600D01*
X141504180Y-170357600D01*
X137295736Y-166149156D01*
X155168420Y-166149156D01*
X155168420Y-166586764D01*
X155335885Y-166991060D01*
X155645320Y-167300495D01*
X156049616Y-167467960D01*
X156487224Y-167467960D01*
X156891520Y-167300495D01*
X157200955Y-166991060D01*
X157368420Y-166586764D01*
X157368420Y-166149156D01*
X157200955Y-165744860D01*
X156891520Y-165435425D01*
X156487224Y-165267960D01*
X156049616Y-165267960D01*
X155645320Y-165435425D01*
X155335885Y-165744860D01*
X155168420Y-166149156D01*
X137295736Y-166149156D01*
X135352623Y-164206044D01*
X135563714Y-164206044D01*
X135857748Y-164084251D01*
X136082791Y-163859208D01*
X136204584Y-163565174D01*
X136204584Y-163246914D01*
X136082791Y-162952880D01*
X135857748Y-162727837D01*
X135737035Y-162677836D01*
X135687148Y-162627949D01*
X135687146Y-162627946D01*
X134000940Y-160941741D01*
X134000940Y-158799952D01*
X134233896Y-158644296D01*
X134532272Y-158197744D01*
X134546679Y-158125316D01*
X134737504Y-158503082D01*
X135136851Y-158846573D01*
X135438688Y-158971585D01*
X135646600Y-158886281D01*
X135646600Y-157825000D01*
X135626600Y-157825000D01*
X135626600Y-157517000D01*
X135646600Y-157517000D01*
X135646600Y-157497000D01*
X135954600Y-157497000D01*
X135954600Y-157517000D01*
X135974600Y-157517000D01*
X135974600Y-157825000D01*
X135954600Y-157825000D01*
X135954600Y-158886281D01*
X136162512Y-158971585D01*
X136464349Y-158846573D01*
X136863696Y-158503082D01*
X137054521Y-158125316D01*
X137068928Y-158197744D01*
X137367304Y-158644296D01*
X137813856Y-158942672D01*
X138207637Y-159021000D01*
X138473563Y-159021000D01*
X138867344Y-158942672D01*
X139313896Y-158644296D01*
X139610600Y-158200246D01*
X139907304Y-158644296D01*
X140353856Y-158942672D01*
X140747637Y-159021000D01*
X141013563Y-159021000D01*
X141407344Y-158942672D01*
X141853896Y-158644296D01*
X142060805Y-158334634D01*
X142060805Y-158521000D01*
X142099611Y-158716090D01*
X142210120Y-158881480D01*
X142375510Y-158991989D01*
X142570600Y-159030795D01*
X144270600Y-159030795D01*
X144465690Y-158991989D01*
X144631080Y-158881480D01*
X144741589Y-158716090D01*
X144780395Y-158521000D01*
X144780395Y-157343967D01*
X149973973Y-162537546D01*
X149973973Y-162537546D01*
G37*
X149973973Y-162537546D02*
X150006049Y-162585551D01*
X150196246Y-162712637D01*
X150363972Y-162746000D01*
X150363976Y-162746000D01*
X150420600Y-162757263D01*
X150477224Y-162746000D01*
X157895600Y-162746000D01*
X157895601Y-171082000D01*
X156500328Y-171082000D01*
X156941361Y-171042363D01*
X157177148Y-170944697D01*
X157245390Y-170752779D01*
X156603400Y-170110789D01*
X155961410Y-170752779D01*
X156029652Y-170944697D01*
X156468741Y-171082000D01*
X154029516Y-171082000D01*
X154121259Y-170944697D01*
X154173284Y-170866836D01*
X154212053Y-170671932D01*
X154344462Y-170804341D01*
X154739569Y-170968000D01*
X155167231Y-170968000D01*
X155562338Y-170804341D01*
X155864741Y-170501938D01*
X155927015Y-170351596D01*
X156385611Y-169893000D01*
X156821189Y-169893000D01*
X157463179Y-170534990D01*
X157655097Y-170466748D01*
X157794605Y-170020607D01*
X157752763Y-169555039D01*
X157655097Y-169319252D01*
X157463179Y-169251010D01*
X156821189Y-169893000D01*
X156385611Y-169893000D01*
X156371469Y-169878858D01*
X156589258Y-169661069D01*
X156603400Y-169675211D01*
X157245390Y-169033221D01*
X157177148Y-168841303D01*
X156787686Y-168719518D01*
X156794554Y-168696586D01*
X156751136Y-168271135D01*
X156671854Y-168079732D01*
X156490248Y-168023941D01*
X155921189Y-168593000D01*
X155935331Y-168607142D01*
X155717542Y-168824931D01*
X155703400Y-168810789D01*
X155689258Y-168824931D01*
X155471469Y-168607142D01*
X155485611Y-168593000D01*
X155471469Y-168578858D01*
X155689258Y-168361069D01*
X155703400Y-168375211D01*
X156272459Y-167806152D01*
X156216668Y-167624546D01*
X155806986Y-167501846D01*
X155381535Y-167545264D01*
X155190132Y-167624546D01*
X155134342Y-167806150D01*
X155038650Y-167710458D01*
X154939894Y-167809215D01*
X154812338Y-167681659D01*
X154417231Y-167518000D01*
X153989569Y-167518000D01*
X153594462Y-167681659D01*
X153453400Y-167822721D01*
X153312338Y-167681659D01*
X152917231Y-167518000D01*
X152489569Y-167518000D01*
X152094462Y-167681659D01*
X151792059Y-167984062D01*
X151628400Y-168379169D01*
X151628400Y-168728991D01*
X151465439Y-168743637D01*
X151229652Y-168841303D01*
X151161410Y-169033221D01*
X151803400Y-169675211D01*
X151817542Y-169661069D01*
X152035331Y-169878858D01*
X152021189Y-169893000D01*
X152035331Y-169907142D01*
X151817542Y-170124931D01*
X151803400Y-170110789D01*
X151789258Y-170124931D01*
X151571469Y-169907142D01*
X151585611Y-169893000D01*
X150943621Y-169251010D01*
X150751703Y-169319252D01*
X150612195Y-169765393D01*
X150654037Y-170230961D01*
X150706492Y-170357600D01*
X141504180Y-170357600D01*
X137295736Y-166149156D01*
X155168420Y-166149156D01*
X155168420Y-166586764D01*
X155335885Y-166991060D01*
X155645320Y-167300495D01*
X156049616Y-167467960D01*
X156487224Y-167467960D01*
X156891520Y-167300495D01*
X157200955Y-166991060D01*
X157368420Y-166586764D01*
X157368420Y-166149156D01*
X157200955Y-165744860D01*
X156891520Y-165435425D01*
X156487224Y-165267960D01*
X156049616Y-165267960D01*
X155645320Y-165435425D01*
X155335885Y-165744860D01*
X155168420Y-166149156D01*
X137295736Y-166149156D01*
X135352623Y-164206044D01*
X135563714Y-164206044D01*
X135857748Y-164084251D01*
X136082791Y-163859208D01*
X136204584Y-163565174D01*
X136204584Y-163246914D01*
X136082791Y-162952880D01*
X135857748Y-162727837D01*
X135737035Y-162677836D01*
X135687148Y-162627949D01*
X135687146Y-162627946D01*
X134000940Y-160941741D01*
X134000940Y-158799952D01*
X134233896Y-158644296D01*
X134532272Y-158197744D01*
X134546679Y-158125316D01*
X134737504Y-158503082D01*
X135136851Y-158846573D01*
X135438688Y-158971585D01*
X135646600Y-158886281D01*
X135646600Y-157825000D01*
X135626600Y-157825000D01*
X135626600Y-157517000D01*
X135646600Y-157517000D01*
X135646600Y-157497000D01*
X135954600Y-157497000D01*
X135954600Y-157517000D01*
X135974600Y-157517000D01*
X135974600Y-157825000D01*
X135954600Y-157825000D01*
X135954600Y-158886281D01*
X136162512Y-158971585D01*
X136464349Y-158846573D01*
X136863696Y-158503082D01*
X137054521Y-158125316D01*
X137068928Y-158197744D01*
X137367304Y-158644296D01*
X137813856Y-158942672D01*
X138207637Y-159021000D01*
X138473563Y-159021000D01*
X138867344Y-158942672D01*
X139313896Y-158644296D01*
X139610600Y-158200246D01*
X139907304Y-158644296D01*
X140353856Y-158942672D01*
X140747637Y-159021000D01*
X141013563Y-159021000D01*
X141407344Y-158942672D01*
X141853896Y-158644296D01*
X142060805Y-158334634D01*
X142060805Y-158521000D01*
X142099611Y-158716090D01*
X142210120Y-158881480D01*
X142375510Y-158991989D01*
X142570600Y-159030795D01*
X144270600Y-159030795D01*
X144465690Y-158991989D01*
X144631080Y-158881480D01*
X144741589Y-158716090D01*
X144780395Y-158521000D01*
X144780395Y-157343967D01*
X149973973Y-162537546D01*
G04 #@! TD*
M02*
