M48
METRIC,TZ
T1C0.500
%
G90
G05
T1
X134200Y-152773
X134200Y-154973
X135000Y-152773
X135000Y-154973
X135800Y-152773
X135800Y-154973
X134200Y-133707
X134200Y-135907
X135000Y-133707
X135000Y-135907
X135800Y-133707
X135800Y-135907
X134200Y-114641
X134200Y-116841
X135000Y-114641
X135000Y-116841
X135800Y-114641
X135800Y-116841
X134200Y-95575
X134200Y-97775
X135000Y-95575
X135000Y-97775
X135800Y-95575
X135800Y-97775
T0
M30
