G04 #@! TF.GenerationSoftware,KiCad,Pcbnew,5.0.0-fee4fd1~66~ubuntu16.04.1*
G04 #@! TF.CreationDate,2018-10-22T20:15:58+02:00*
G04 #@! TF.ProjectId,WiRoc_NanoPi_SideOledPCB_v1_Panelized,5769526F635F4E616E6F50695F536964,rev?*
G04 #@! TF.SameCoordinates,Original*
G04 #@! TF.FileFunction,Soldermask,Top*
G04 #@! TF.FilePolarity,Negative*
%FSLAX46Y46*%
G04 Gerber Fmt 4.6, Leading zero omitted, Abs format (unit mm)*
G04 Created by KiCad (PCBNEW 5.0.0-fee4fd1~66~ubuntu16.04.1) date Mon Oct 22 20:15:58 2018*
%MOMM*%
%LPD*%
G01*
G04 APERTURE LIST*
%ADD10C,0.900000*%
%ADD11C,2.000000*%
%ADD12C,2.100000*%
%ADD13C,2.100000*%
%ADD14C,0.100000*%
%ADD15C,1.750000*%
%ADD16C,1.550000*%
%ADD17O,2.100000X2.100000*%
%ADD18R,2.100000X2.100000*%
G04 APERTURE END LIST*
D10*
G04 #@! TO.C,mouse-bite-2.54mm-slot*
X135000000Y-152773000D03*
X135000000Y-154973000D03*
X135800000Y-152773000D03*
X134200000Y-152773000D03*
X134200000Y-154973000D03*
X135800000Y-154973000D03*
G04 #@! TD*
G04 #@! TO.C,mouse-bite-2.54mm-slot*
X135000000Y-133707000D03*
X135000000Y-135907000D03*
X135800000Y-133707000D03*
X134200000Y-133707000D03*
X134200000Y-135907000D03*
X135800000Y-135907000D03*
G04 #@! TD*
G04 #@! TO.C,mouse-bite-2.54mm-slot*
X135000000Y-114641000D03*
X135000000Y-116841000D03*
X135800000Y-114641000D03*
X134200000Y-114641000D03*
X134200000Y-116841000D03*
X135800000Y-116841000D03*
G04 #@! TD*
D11*
G04 #@! TO.C,FID1*
X128074420Y-170205900D03*
G04 #@! TD*
G04 #@! TO.C,FID1*
X128074420Y-151139900D03*
G04 #@! TD*
G04 #@! TO.C,FID1*
X128074420Y-132073900D03*
G04 #@! TD*
G04 #@! TO.C,FID1*
X128074420Y-113007900D03*
G04 #@! TD*
G04 #@! TO.C,FID2*
X156268420Y-166367960D03*
G04 #@! TD*
G04 #@! TO.C,FID2*
X156268420Y-147301960D03*
G04 #@! TD*
G04 #@! TO.C,FID2*
X156268420Y-128235960D03*
G04 #@! TD*
G04 #@! TO.C,FID2*
X156268420Y-109169960D03*
G04 #@! TD*
D12*
G04 #@! TO.C,J2*
X123728891Y-160623949D03*
D13*
X123728891Y-160623949D02*
X123728891Y-160623949D01*
D12*
X124513794Y-163039633D03*
D13*
X124513794Y-163039633D02*
X124513794Y-163039633D01*
D12*
X125298697Y-165455316D03*
D13*
X125298697Y-165455316D02*
X125298697Y-165455316D01*
D12*
X126083600Y-167871000D03*
D14*
G36*
X126757741Y-166547923D02*
X127406677Y-168545141D01*
X125409459Y-169194077D01*
X124760523Y-167196859D01*
X126757741Y-166547923D01*
X126757741Y-166547923D01*
G37*
G04 #@! TD*
D12*
G04 #@! TO.C,J2*
X123728891Y-141557949D03*
D13*
X123728891Y-141557949D02*
X123728891Y-141557949D01*
D12*
X124513794Y-143973633D03*
D13*
X124513794Y-143973633D02*
X124513794Y-143973633D01*
D12*
X125298697Y-146389316D03*
D13*
X125298697Y-146389316D02*
X125298697Y-146389316D01*
D12*
X126083600Y-148805000D03*
D14*
G36*
X126757741Y-147481923D02*
X127406677Y-149479141D01*
X125409459Y-150128077D01*
X124760523Y-148130859D01*
X126757741Y-147481923D01*
X126757741Y-147481923D01*
G37*
G04 #@! TD*
D12*
G04 #@! TO.C,J2*
X123728891Y-122491949D03*
D13*
X123728891Y-122491949D02*
X123728891Y-122491949D01*
D12*
X124513794Y-124907633D03*
D13*
X124513794Y-124907633D02*
X124513794Y-124907633D01*
D12*
X125298697Y-127323316D03*
D13*
X125298697Y-127323316D02*
X125298697Y-127323316D01*
D12*
X126083600Y-129739000D03*
D14*
G36*
X126757741Y-128415923D02*
X127406677Y-130413141D01*
X125409459Y-131062077D01*
X124760523Y-129064859D01*
X126757741Y-128415923D01*
X126757741Y-128415923D01*
G37*
G04 #@! TD*
D12*
G04 #@! TO.C,J2*
X123728891Y-103425949D03*
D13*
X123728891Y-103425949D02*
X123728891Y-103425949D01*
D12*
X124513794Y-105841633D03*
D13*
X124513794Y-105841633D02*
X124513794Y-105841633D01*
D12*
X125298697Y-108257316D03*
D13*
X125298697Y-108257316D02*
X125298697Y-108257316D01*
D12*
X126083600Y-110673000D03*
D14*
G36*
X126757741Y-109349923D02*
X127406677Y-111347141D01*
X125409459Y-111996077D01*
X124760523Y-109998859D01*
X126757741Y-109349923D01*
X126757741Y-109349923D01*
G37*
G04 #@! TD*
D15*
G04 #@! TO.C,J1*
X151803400Y-169893000D03*
X156603400Y-169893000D03*
D16*
X154953400Y-169893000D03*
X153453400Y-169893000D03*
X152703400Y-168593000D03*
X154203400Y-168593000D03*
X155703400Y-168593000D03*
G04 #@! TD*
D15*
G04 #@! TO.C,J1*
X151803400Y-150827000D03*
X156603400Y-150827000D03*
D16*
X154953400Y-150827000D03*
X153453400Y-150827000D03*
X152703400Y-149527000D03*
X154203400Y-149527000D03*
X155703400Y-149527000D03*
G04 #@! TD*
D15*
G04 #@! TO.C,J1*
X151803400Y-131761000D03*
X156603400Y-131761000D03*
D16*
X154953400Y-131761000D03*
X153453400Y-131761000D03*
X152703400Y-130461000D03*
X154203400Y-130461000D03*
X155703400Y-130461000D03*
G04 #@! TD*
D15*
G04 #@! TO.C,J1*
X151803400Y-112695000D03*
X156603400Y-112695000D03*
D16*
X154953400Y-112695000D03*
X153453400Y-112695000D03*
X152703400Y-111395000D03*
X154203400Y-111395000D03*
X155703400Y-111395000D03*
G04 #@! TD*
D17*
G04 #@! TO.C,J3*
X130720600Y-157671000D03*
X133260600Y-157671000D03*
X135800600Y-157671000D03*
X138340600Y-157671000D03*
X140880600Y-157671000D03*
D18*
X143420600Y-157671000D03*
G04 #@! TD*
D17*
G04 #@! TO.C,J3*
X130720600Y-138605000D03*
X133260600Y-138605000D03*
X135800600Y-138605000D03*
X138340600Y-138605000D03*
X140880600Y-138605000D03*
D18*
X143420600Y-138605000D03*
G04 #@! TD*
D17*
G04 #@! TO.C,J3*
X130720600Y-119539000D03*
X133260600Y-119539000D03*
X135800600Y-119539000D03*
X138340600Y-119539000D03*
X140880600Y-119539000D03*
D18*
X143420600Y-119539000D03*
G04 #@! TD*
D17*
G04 #@! TO.C,J3*
X130720600Y-100473000D03*
X133260600Y-100473000D03*
X135800600Y-100473000D03*
X138340600Y-100473000D03*
X140880600Y-100473000D03*
D18*
X143420600Y-100473000D03*
G04 #@! TD*
D11*
G04 #@! TO.C,FID2*
X156268420Y-90103960D03*
G04 #@! TD*
D12*
G04 #@! TO.C,J2*
X126083600Y-91607000D03*
D14*
G36*
X126757741Y-90283923D02*
X127406677Y-92281141D01*
X125409459Y-92930077D01*
X124760523Y-90932859D01*
X126757741Y-90283923D01*
X126757741Y-90283923D01*
G37*
D12*
X125298697Y-89191316D03*
D13*
X125298697Y-89191316D02*
X125298697Y-89191316D01*
D12*
X124513794Y-86775633D03*
D13*
X124513794Y-86775633D02*
X124513794Y-86775633D01*
D12*
X123728891Y-84359949D03*
D13*
X123728891Y-84359949D02*
X123728891Y-84359949D01*
G04 #@! TD*
D18*
G04 #@! TO.C,J3*
X143420600Y-81407000D03*
D17*
X140880600Y-81407000D03*
X138340600Y-81407000D03*
X135800600Y-81407000D03*
X133260600Y-81407000D03*
X130720600Y-81407000D03*
G04 #@! TD*
D11*
G04 #@! TO.C,FID1*
X128074420Y-93941900D03*
G04 #@! TD*
D16*
G04 #@! TO.C,J1*
X155703400Y-92329000D03*
X154203400Y-92329000D03*
X152703400Y-92329000D03*
X153453400Y-93629000D03*
X154953400Y-93629000D03*
D15*
X156603400Y-93629000D03*
X151803400Y-93629000D03*
G04 #@! TD*
D10*
G04 #@! TO.C,mouse-bite-2.54mm-slot*
X135800000Y-97775000D03*
X134200000Y-97775000D03*
X134200000Y-95575000D03*
X135800000Y-95575000D03*
X135000000Y-97775000D03*
X135000000Y-95575000D03*
G04 #@! TD*
M02*
