%TF.GenerationSoftware,KiCad,Pcbnew,5.1.10-88a1d61d58~88~ubuntu20.04.1*%
%TF.CreationDate,2021-05-09T22:43:12+02:00*%
%TF.ProjectId,USBConnectorTester,55534243-6f6e-46e6-9563-746f72546573,rev?*%
%TF.SameCoordinates,Original*%
%TF.FileFunction,Copper,L1,Top*%
%TF.FilePolarity,Positive*%
%FSLAX46Y46*%
G04 Gerber Fmt 4.6, Leading zero omitted, Abs format (unit mm)*
G04 Created by KiCad (PCBNEW 5.1.10-88a1d61d58~88~ubuntu20.04.1) date 2021-05-09 22:43:12*
%MOMM*%
%LPD*%
G01*
G04 APERTURE LIST*
%TA.AperFunction,ComponentPad*%
%ADD10C,5.000000*%
%TD*%
%TA.AperFunction,ComponentPad*%
%ADD11R,1.700000X1.700000*%
%TD*%
%TA.AperFunction,ComponentPad*%
%ADD12C,1.524000*%
%TD*%
%TA.AperFunction,ComponentPad*%
%ADD13R,1.524000X1.524000*%
%TD*%
%TA.AperFunction,ComponentPad*%
%ADD14C,3.500000*%
%TD*%
%TA.AperFunction,ComponentPad*%
%ADD15C,3.000000*%
%TD*%
%TA.AperFunction,Conductor*%
%ADD16C,1.000000*%
%TD*%
G04 APERTURE END LIST*
D10*
X170000000Y-113820000D03*
X169110000Y-85130000D03*
X152170000Y-95110000D03*
X152490000Y-105480000D03*
X140800000Y-104850000D03*
X121650000Y-114770000D03*
X122220000Y-85570000D03*
X140620000Y-94950000D03*
D11*
X136150000Y-94950000D03*
X136340000Y-104810000D03*
X127490000Y-85520000D03*
X127640000Y-113590000D03*
D12*
X116070000Y-103080000D03*
X116070000Y-100580000D03*
X116070000Y-98580000D03*
D13*
X116070000Y-96080000D03*
D14*
X113360000Y-93010000D03*
X113360000Y-106150000D03*
D11*
X164590000Y-113490000D03*
X156620000Y-95060000D03*
X156770000Y-105220000D03*
X164510000Y-85800000D03*
D15*
X177630000Y-93910000D03*
X177630000Y-105910000D03*
D12*
X175630000Y-96910000D03*
X175630000Y-98910000D03*
X175630000Y-100910000D03*
X175630000Y-102910000D03*
D16*
X175630000Y-103910000D02*
X177630000Y-105910000D01*
X175630000Y-102910000D02*
X175630000Y-103910000D01*
X179129999Y-104410001D02*
X177630000Y-105910000D01*
X179129999Y-95409999D02*
X179129999Y-104410001D01*
X177630000Y-93910000D02*
X179129999Y-95409999D01*
X165050000Y-113490000D02*
X164590000Y-113490000D01*
X175630000Y-102910000D02*
X165050000Y-113490000D01*
X169670000Y-113490000D02*
X170000000Y-113820000D01*
X164590000Y-113490000D02*
X169670000Y-113490000D01*
X164520000Y-85800000D02*
X164510000Y-85800000D01*
X175630000Y-96910000D02*
X164520000Y-85800000D01*
X168440000Y-85800000D02*
X169110000Y-85130000D01*
X164510000Y-85800000D02*
X168440000Y-85800000D01*
X156620000Y-95060000D02*
X164410000Y-95060000D01*
X168260000Y-98910000D02*
X175630000Y-98910000D01*
X164410000Y-95060000D02*
X168260000Y-98910000D01*
X156570000Y-95110000D02*
X156620000Y-95060000D01*
X152170000Y-95110000D02*
X156570000Y-95110000D01*
X175630000Y-100910000D02*
X167200000Y-100910000D01*
X162890000Y-105220000D02*
X156770000Y-105220000D01*
X167200000Y-100910000D02*
X162890000Y-105220000D01*
X156510000Y-105480000D02*
X156770000Y-105220000D01*
X152490000Y-105480000D02*
X156510000Y-105480000D01*
X126580000Y-113590000D02*
X127640000Y-113590000D01*
X116070000Y-103080000D02*
X126580000Y-113590000D01*
X113360000Y-105790000D02*
X116070000Y-103080000D01*
X113360000Y-106150000D02*
X113360000Y-105790000D01*
X113360000Y-100370000D02*
X116070000Y-103080000D01*
X113360000Y-93010000D02*
X113360000Y-100370000D01*
X126460000Y-114770000D02*
X127640000Y-113590000D01*
X121650000Y-114770000D02*
X126460000Y-114770000D01*
X136340000Y-104810000D02*
X128380000Y-104810000D01*
X124150000Y-100580000D02*
X116070000Y-100580000D01*
X128380000Y-104810000D02*
X124150000Y-100580000D01*
X136380000Y-104850000D02*
X136340000Y-104810000D01*
X140800000Y-104850000D02*
X136380000Y-104850000D01*
X116070000Y-98580000D02*
X124340000Y-98580000D01*
X127970000Y-94950000D02*
X136150000Y-94950000D01*
X124340000Y-98580000D02*
X127970000Y-94950000D01*
X136150000Y-94950000D02*
X140620000Y-94950000D01*
X116930000Y-96080000D02*
X127490000Y-85520000D01*
X116070000Y-96080000D02*
X116930000Y-96080000D01*
X122270000Y-85520000D02*
X122220000Y-85570000D01*
X127490000Y-85520000D02*
X122270000Y-85520000D01*
M02*
