G04 #@! TF.GenerationSoftware,KiCad,Pcbnew,5.0.2-bee76a0~70~ubuntu16.04.1*
G04 #@! TF.CreationDate,2020-11-05T00:34:30+01:00*
G04 #@! TF.ProjectId,WiRoc_NanoPi_v1,5769526f-635f-44e6-916e-6f50695f7631,rev?*
G04 #@! TF.SameCoordinates,Original*
G04 #@! TF.FileFunction,Other,Fab,Top*
%FSLAX46Y46*%
G04 Gerber Fmt 4.6, Leading zero omitted, Abs format (unit mm)*
G04 Created by KiCad (PCBNEW 5.0.2-bee76a0~70~ubuntu16.04.1) date tor  5 nov 2020 00:34:30*
%MOMM*%
%LPD*%
G01*
G04 APERTURE LIST*
%ADD10C,0.150000*%
%ADD11C,0.100000*%
%ADD12C,0.075000*%
%ADD13C,0.060000*%
%ADD14C,0.080000*%
%ADD15C,0.120000*%
G04 APERTURE END LIST*
D10*
G04 #@! TO.C,D1*
X91202820Y-61095580D02*
X92802820Y-61095580D01*
X92802820Y-62795580D02*
X92802820Y-61095580D01*
X91202820Y-62795580D02*
X92802820Y-62795580D01*
X91202820Y-61095580D02*
X91202820Y-62795580D01*
D11*
G04 #@! TO.C,J7*
X92430000Y-76995000D02*
X92430000Y-107475000D01*
X87350000Y-107475000D02*
X87350000Y-78265000D01*
X92430000Y-107475000D02*
X87350000Y-107475000D01*
X88620000Y-76995000D02*
X92430000Y-76995000D01*
X87350000Y-78265000D02*
X88620000Y-76995000D01*
X52340000Y-107475000D02*
X52340000Y-77630000D01*
X57420000Y-107475000D02*
X52340000Y-107475000D01*
X54880000Y-76995000D02*
X54880000Y-87175000D01*
X52975000Y-76995000D02*
X54880000Y-76995000D01*
X52340000Y-77630000D02*
X52975000Y-76995000D01*
X57420000Y-87175000D02*
X57420000Y-107475000D01*
X54900000Y-87175000D02*
X57400000Y-87175000D01*
G04 #@! TO.C,U2*
X90948000Y-46990000D02*
X88408000Y-46990000D01*
X90948000Y-57150000D02*
X90948000Y-46990000D01*
X88408000Y-57150000D02*
X90948000Y-57150000D01*
X88408000Y-46990000D02*
X88408000Y-57150000D01*
G04 #@! TO.C,J6*
X95036700Y-105505600D02*
X94401700Y-106140600D01*
X95036700Y-98520600D02*
X95036700Y-105505600D01*
X92496700Y-98520600D02*
X95036700Y-98520600D01*
X92496700Y-106140600D02*
X92496700Y-98520600D01*
X94401700Y-106140600D02*
X92496700Y-106140600D01*
D10*
G04 #@! TO.C,U3*
X77223600Y-91780200D02*
X70673600Y-91780200D01*
X77223600Y-85180200D02*
X77223600Y-91780200D01*
X70673600Y-85180200D02*
X77223600Y-85180200D01*
X70673600Y-91730200D02*
X70673600Y-85180200D01*
X71353878Y-91280200D02*
G75*
G03X71353878Y-91280200I-180278J0D01*
G01*
D11*
G04 #@! TO.C,U4*
X76968086Y-52682546D02*
X77618086Y-53332546D01*
X77618086Y-54482546D02*
X77618086Y-53332546D01*
X76968086Y-52682546D02*
X74518086Y-52682546D01*
X74518086Y-54482546D02*
X74518086Y-52682546D01*
X77618086Y-54482546D02*
X74518086Y-54482546D01*
G04 #@! TO.C,U5*
X67121200Y-52381200D02*
X67771200Y-51731200D01*
X68921200Y-51731200D02*
X67771200Y-51731200D01*
X67121200Y-52381200D02*
X67121200Y-54831200D01*
X68921200Y-54831200D02*
X67121200Y-54831200D01*
X68921200Y-51731200D02*
X68921200Y-54831200D01*
D10*
G04 #@! TO.C,L1*
X64814500Y-96420600D02*
X68814500Y-96420600D01*
X64714500Y-92420600D02*
X64714500Y-96420600D01*
X68814500Y-92420600D02*
X64814500Y-92420600D01*
X68914500Y-96420600D02*
X68914500Y-92420600D01*
G04 #@! TO.C,L2*
X79155600Y-56310300D02*
X83155600Y-56310300D01*
X83155600Y-56210300D02*
X83155600Y-52210300D01*
X83155600Y-52110300D02*
X79155600Y-52110300D01*
X79155600Y-52210300D02*
X79155600Y-56210300D01*
D11*
G04 #@! TO.C,C4*
X72618300Y-82844600D02*
X72618300Y-83644600D01*
X72618300Y-83644600D02*
X71018300Y-83644600D01*
X71018300Y-83644600D02*
X71018300Y-82844600D01*
X71018300Y-82844600D02*
X72618300Y-82844600D01*
G04 #@! TO.C,C5*
X74374000Y-77125000D02*
X74374000Y-78725000D01*
X73574000Y-77125000D02*
X74374000Y-77125000D01*
X73574000Y-78725000D02*
X73574000Y-77125000D01*
X74374000Y-78725000D02*
X73574000Y-78725000D01*
G04 #@! TO.C,C6*
X80350000Y-84564000D02*
X78750000Y-84564000D01*
X80350000Y-83764000D02*
X80350000Y-84564000D01*
X78750000Y-83764000D02*
X80350000Y-83764000D01*
X78750000Y-84564000D02*
X78750000Y-83764000D01*
G04 #@! TO.C,C7*
X56230000Y-110420000D02*
X55430000Y-110420000D01*
X55430000Y-110420000D02*
X55430000Y-108820000D01*
X55430000Y-108820000D02*
X56230000Y-108820000D01*
X56230000Y-108820000D02*
X56230000Y-110420000D01*
G04 #@! TO.C,C8*
X66785900Y-89905620D02*
X66785900Y-89105620D01*
X66785900Y-89105620D02*
X68385900Y-89105620D01*
X68385900Y-89105620D02*
X68385900Y-89905620D01*
X68385900Y-89905620D02*
X66785900Y-89905620D01*
G04 #@! TO.C,C9*
X64938000Y-86244360D02*
X65738000Y-86244360D01*
X65738000Y-86244360D02*
X65738000Y-87844360D01*
X65738000Y-87844360D02*
X64938000Y-87844360D01*
X64938000Y-87844360D02*
X64938000Y-86244360D01*
G04 #@! TO.C,C10*
X68116300Y-83498500D02*
X68116300Y-81898500D01*
X68916300Y-83498500D02*
X68116300Y-83498500D01*
X68916300Y-81898500D02*
X68916300Y-83498500D01*
X68116300Y-81898500D02*
X68916300Y-81898500D01*
G04 #@! TO.C,C11*
X65284760Y-90550880D02*
X66884760Y-90550880D01*
X65284760Y-91350880D02*
X65284760Y-90550880D01*
X66884760Y-91350880D02*
X65284760Y-91350880D01*
X66884760Y-90550880D02*
X66884760Y-91350880D01*
G04 #@! TO.C,C12*
X71226020Y-53874260D02*
X72826020Y-53874260D01*
X71226020Y-54674260D02*
X71226020Y-53874260D01*
X72826020Y-54674260D02*
X71226020Y-54674260D01*
X72826020Y-53874260D02*
X72826020Y-54674260D01*
G04 #@! TO.C,C13*
X72726600Y-49293500D02*
X73526600Y-49293500D01*
X73526600Y-49293500D02*
X73526600Y-50893500D01*
X73526600Y-50893500D02*
X72726600Y-50893500D01*
X72726600Y-50893500D02*
X72726600Y-49293500D01*
G04 #@! TO.C,C14*
X64696300Y-51956100D02*
X64696300Y-52756100D01*
X64696300Y-52756100D02*
X63096300Y-52756100D01*
X63096300Y-52756100D02*
X63096300Y-51956100D01*
X63096300Y-51956100D02*
X64696300Y-51956100D01*
G04 #@! TO.C,D3*
X79324520Y-49918160D02*
X79824520Y-49918160D01*
X79324520Y-50318160D02*
X78724520Y-49918160D01*
X79324520Y-49518160D02*
X79324520Y-50318160D01*
X78724520Y-49918160D02*
X79324520Y-49518160D01*
X78724520Y-49918160D02*
X78724520Y-50468160D01*
X78724520Y-49918160D02*
X78724520Y-49368160D01*
X78324520Y-49918160D02*
X78724520Y-49918160D01*
X77674520Y-50818160D02*
X77674520Y-49018160D01*
X80474520Y-50818160D02*
X77674520Y-50818160D01*
X80474520Y-49018160D02*
X80474520Y-50818160D01*
X77674520Y-49018160D02*
X80474520Y-49018160D01*
G04 #@! TO.C,R1*
X74999600Y-93531700D02*
X74999600Y-95131700D01*
X74199600Y-93531700D02*
X74999600Y-93531700D01*
X74199600Y-95131700D02*
X74199600Y-93531700D01*
X74999600Y-95131700D02*
X74199600Y-95131700D01*
G04 #@! TO.C,R2*
X80289100Y-85930700D02*
X80289100Y-86730700D01*
X80289100Y-86730700D02*
X78689100Y-86730700D01*
X78689100Y-86730700D02*
X78689100Y-85930700D01*
X78689100Y-85930700D02*
X80289100Y-85930700D01*
G04 #@! TO.C,R3*
X73360100Y-93543700D02*
X73360100Y-95143700D01*
X72560100Y-93543700D02*
X73360100Y-93543700D01*
X72560100Y-95143700D02*
X72560100Y-93543700D01*
X73360100Y-95143700D02*
X72560100Y-95143700D01*
G04 #@! TO.C,R4*
X54132500Y-109320000D02*
X52532500Y-109320000D01*
X54132500Y-108520000D02*
X54132500Y-109320000D01*
X52532500Y-108520000D02*
X54132500Y-108520000D01*
X52532500Y-109320000D02*
X52532500Y-108520000D01*
G04 #@! TO.C,R5*
X68124940Y-87889420D02*
X66924940Y-87889420D01*
X66924940Y-87889420D02*
X66924940Y-85889420D01*
X66924940Y-85889420D02*
X68124940Y-85889420D01*
X68124940Y-85889420D02*
X68124940Y-87889420D01*
G04 #@! TO.C,R7*
X75482400Y-49318900D02*
X75482400Y-50918900D01*
X74682400Y-49318900D02*
X75482400Y-49318900D01*
X74682400Y-50918900D02*
X74682400Y-49318900D01*
X75482400Y-50918900D02*
X74682400Y-50918900D01*
G04 #@! TO.C,R8*
X71492720Y-52858160D02*
X71492720Y-52058160D01*
X71492720Y-52058160D02*
X73092720Y-52058160D01*
X73092720Y-52058160D02*
X73092720Y-52858160D01*
X73092720Y-52858160D02*
X71492720Y-52858160D01*
G04 #@! TO.C,R9*
X63134400Y-54419800D02*
X63134400Y-53619800D01*
X63134400Y-53619800D02*
X64734400Y-53619800D01*
X64734400Y-53619800D02*
X64734400Y-54419800D01*
X64734400Y-54419800D02*
X63134400Y-54419800D01*
G04 #@! TO.C,R10*
X66931700Y-56147000D02*
X66931700Y-55347000D01*
X66931700Y-55347000D02*
X68531700Y-55347000D01*
X68531700Y-55347000D02*
X68531700Y-56147000D01*
X68531700Y-56147000D02*
X66931700Y-56147000D01*
G04 #@! TO.C,R11*
X93490000Y-67070000D02*
X93490000Y-67870000D01*
X93490000Y-67870000D02*
X91890000Y-67870000D01*
X91890000Y-67870000D02*
X91890000Y-67070000D01*
X91890000Y-67070000D02*
X93490000Y-67070000D01*
G04 #@! TO.C,R12*
X93750000Y-75370000D02*
X93750000Y-76170000D01*
X93750000Y-76170000D02*
X92150000Y-76170000D01*
X92150000Y-76170000D02*
X92150000Y-75370000D01*
X92150000Y-75370000D02*
X93750000Y-75370000D01*
G04 #@! TO.C,R13*
X92767260Y-59343400D02*
X92767260Y-60143400D01*
X92767260Y-60143400D02*
X91167260Y-60143400D01*
X91167260Y-60143400D02*
X91167260Y-59343400D01*
X91167260Y-59343400D02*
X92767260Y-59343400D01*
G04 #@! TO.C,R14*
X91207900Y-65421620D02*
X92807900Y-65421620D01*
X91207900Y-66221620D02*
X91207900Y-65421620D01*
X92807900Y-66221620D02*
X91207900Y-66221620D01*
X92807900Y-65421620D02*
X92807900Y-66221620D01*
G04 #@! TO.C,C15*
X61623200Y-57633600D02*
X61623200Y-55133600D01*
X61623200Y-55133600D02*
X64823200Y-55133600D01*
X64823200Y-55133600D02*
X64823200Y-57633600D01*
X64823200Y-57633600D02*
X61623200Y-57633600D01*
G04 #@! TO.C,C1*
X78867600Y-88762700D02*
X78867600Y-87962700D01*
X78867600Y-87962700D02*
X80467600Y-87962700D01*
X80467600Y-87962700D02*
X80467600Y-88762700D01*
X80467600Y-88762700D02*
X78867600Y-88762700D01*
G04 #@! TO.C,C2*
X77140000Y-81380000D02*
X75540000Y-81380000D01*
X77140000Y-80580000D02*
X77140000Y-81380000D01*
X75540000Y-80580000D02*
X77140000Y-80580000D01*
X75540000Y-81380000D02*
X75540000Y-80580000D01*
G04 #@! TO.C,C3*
X65642560Y-83645580D02*
X64842560Y-83645580D01*
X64842560Y-83645580D02*
X64842560Y-82045580D01*
X64842560Y-82045580D02*
X65642560Y-82045580D01*
X65642560Y-82045580D02*
X65642560Y-83645580D01*
G04 #@! TO.C,C16*
X87800000Y-75140000D02*
X87800000Y-75940000D01*
X87800000Y-75940000D02*
X86200000Y-75940000D01*
X86200000Y-75940000D02*
X86200000Y-75140000D01*
X86200000Y-75140000D02*
X87800000Y-75140000D01*
G04 #@! TO.C,C17*
X90860000Y-69000000D02*
X93360000Y-69000000D01*
X93360000Y-69000000D02*
X93360000Y-72200000D01*
X93360000Y-72200000D02*
X90860000Y-72200000D01*
X90860000Y-72200000D02*
X90860000Y-69000000D01*
G04 #@! TO.C,C18*
X86040000Y-69630000D02*
X86840000Y-69630000D01*
X86840000Y-69630000D02*
X86840000Y-71230000D01*
X86840000Y-71230000D02*
X86040000Y-71230000D01*
X86040000Y-71230000D02*
X86040000Y-69630000D01*
G04 #@! TO.C,R6*
X92797740Y-63699500D02*
X92797740Y-64499500D01*
X92797740Y-64499500D02*
X91197740Y-64499500D01*
X91197740Y-64499500D02*
X91197740Y-63699500D01*
X91197740Y-63699500D02*
X92797740Y-63699500D01*
G04 #@! TD*
G04 #@! TO.C,D1*
D10*
X86883772Y-59097960D02*
X86407581Y-59097960D01*
X86407581Y-58097960D01*
X87217105Y-58574151D02*
X87550439Y-58574151D01*
X87693296Y-59097960D02*
X87217105Y-59097960D01*
X87217105Y-58097960D01*
X87693296Y-58097960D01*
X88121867Y-59097960D02*
X88121867Y-58097960D01*
X88359962Y-58097960D01*
X88502820Y-58145580D01*
X88598058Y-58240818D01*
X88645677Y-58336056D01*
X88693296Y-58526532D01*
X88693296Y-58669389D01*
X88645677Y-58859865D01*
X88598058Y-58955103D01*
X88502820Y-59050341D01*
X88359962Y-59097960D01*
X88121867Y-59097960D01*
X88883772Y-59193199D02*
X89645677Y-59193199D01*
X89883772Y-59097960D02*
X89883772Y-58097960D01*
X90121867Y-58097960D01*
X90264724Y-58145580D01*
X90359962Y-58240818D01*
X90407581Y-58336056D01*
X90455200Y-58526532D01*
X90455200Y-58669389D01*
X90407581Y-58859865D01*
X90359962Y-58955103D01*
X90264724Y-59050341D01*
X90121867Y-59097960D01*
X89883772Y-59097960D01*
X90883772Y-58097960D02*
X90883772Y-58907484D01*
X90931391Y-59002722D01*
X90979010Y-59050341D01*
X91074248Y-59097960D01*
X91264724Y-59097960D01*
X91359962Y-59050341D01*
X91407581Y-59002722D01*
X91455200Y-58907484D01*
X91455200Y-58097960D01*
X91883772Y-58812246D02*
X92359962Y-58812246D01*
X91788534Y-59097960D02*
X92121867Y-58097960D01*
X92455200Y-59097960D01*
X93264724Y-59097960D02*
X92788534Y-59097960D01*
X92788534Y-58097960D01*
X93359962Y-59193199D02*
X94121867Y-59193199D01*
X94312343Y-58812246D02*
X94788534Y-58812246D01*
X94217105Y-59097960D02*
X94550439Y-58097960D01*
X94883772Y-59097960D01*
X95788534Y-59002722D02*
X95740915Y-59050341D01*
X95598058Y-59097960D01*
X95502820Y-59097960D01*
X95359962Y-59050341D01*
X95264724Y-58955103D01*
X95217105Y-58859865D01*
X95169486Y-58669389D01*
X95169486Y-58526532D01*
X95217105Y-58336056D01*
X95264724Y-58240818D01*
X95359962Y-58145580D01*
X95502820Y-58097960D01*
X95598058Y-58097960D01*
X95740915Y-58145580D01*
X95788534Y-58193199D01*
X96788534Y-59002722D02*
X96740915Y-59050341D01*
X96598058Y-59097960D01*
X96502820Y-59097960D01*
X96359962Y-59050341D01*
X96264724Y-58955103D01*
X96217105Y-58859865D01*
X96169486Y-58669389D01*
X96169486Y-58526532D01*
X96217105Y-58336056D01*
X96264724Y-58240818D01*
X96359962Y-58145580D01*
X96502820Y-58097960D01*
X96598058Y-58097960D01*
X96740915Y-58145580D01*
X96788534Y-58193199D01*
X97169486Y-58812246D02*
X97645677Y-58812246D01*
X97074248Y-59097960D02*
X97407581Y-58097960D01*
X97740915Y-59097960D01*
G04 #@! TO.C,J7*
X55864857Y-75166380D02*
X55864857Y-74166380D01*
X56436285Y-75166380D01*
X56436285Y-74166380D01*
X57341047Y-75166380D02*
X57341047Y-74642571D01*
X57293428Y-74547333D01*
X57198190Y-74499714D01*
X57007714Y-74499714D01*
X56912476Y-74547333D01*
X57341047Y-75118761D02*
X57245809Y-75166380D01*
X57007714Y-75166380D01*
X56912476Y-75118761D01*
X56864857Y-75023523D01*
X56864857Y-74928285D01*
X56912476Y-74833047D01*
X57007714Y-74785428D01*
X57245809Y-74785428D01*
X57341047Y-74737809D01*
X57817238Y-74499714D02*
X57817238Y-75166380D01*
X57817238Y-74594952D02*
X57864857Y-74547333D01*
X57960095Y-74499714D01*
X58102952Y-74499714D01*
X58198190Y-74547333D01*
X58245809Y-74642571D01*
X58245809Y-75166380D01*
X58864857Y-75166380D02*
X58769619Y-75118761D01*
X58722000Y-75071142D01*
X58674380Y-74975904D01*
X58674380Y-74690190D01*
X58722000Y-74594952D01*
X58769619Y-74547333D01*
X58864857Y-74499714D01*
X59007714Y-74499714D01*
X59102952Y-74547333D01*
X59150571Y-74594952D01*
X59198190Y-74690190D01*
X59198190Y-74975904D01*
X59150571Y-75071142D01*
X59102952Y-75118761D01*
X59007714Y-75166380D01*
X58864857Y-75166380D01*
X59626761Y-75166380D02*
X59626761Y-74166380D01*
X60007714Y-74166380D01*
X60102952Y-74214000D01*
X60150571Y-74261619D01*
X60198190Y-74356857D01*
X60198190Y-74499714D01*
X60150571Y-74594952D01*
X60102952Y-74642571D01*
X60007714Y-74690190D01*
X59626761Y-74690190D01*
X60626761Y-75166380D02*
X60626761Y-74166380D01*
X61055333Y-74880666D02*
X61531523Y-74880666D01*
X60960095Y-75166380D02*
X61293428Y-74166380D01*
X61626761Y-75166380D01*
X61960095Y-75166380D02*
X61960095Y-74499714D01*
X61960095Y-74166380D02*
X61912476Y-74214000D01*
X61960095Y-74261619D01*
X62007714Y-74214000D01*
X61960095Y-74166380D01*
X61960095Y-74261619D01*
X62436285Y-75166380D02*
X62436285Y-74499714D01*
X62436285Y-74690190D02*
X62483904Y-74594952D01*
X62531523Y-74547333D01*
X62626761Y-74499714D01*
X62722000Y-74499714D01*
G04 #@! TO.C,TP1*
X82626141Y-105121560D02*
X83197570Y-105121560D01*
X82911856Y-106121560D02*
X82911856Y-105121560D01*
X83530903Y-105597751D02*
X83864237Y-105597751D01*
X84007094Y-106121560D02*
X83530903Y-106121560D01*
X83530903Y-105121560D01*
X84007094Y-105121560D01*
X84388046Y-106073941D02*
X84530903Y-106121560D01*
X84768999Y-106121560D01*
X84864237Y-106073941D01*
X84911856Y-106026322D01*
X84959475Y-105931084D01*
X84959475Y-105835846D01*
X84911856Y-105740608D01*
X84864237Y-105692989D01*
X84768999Y-105645370D01*
X84578522Y-105597751D01*
X84483284Y-105550132D01*
X84435665Y-105502513D01*
X84388046Y-105407275D01*
X84388046Y-105312037D01*
X84435665Y-105216799D01*
X84483284Y-105169180D01*
X84578522Y-105121560D01*
X84816618Y-105121560D01*
X84959475Y-105169180D01*
X85245189Y-105121560D02*
X85816618Y-105121560D01*
X85530903Y-106121560D02*
X85530903Y-105121560D01*
G04 #@! TO.C,U1*
X67802380Y-69806628D02*
X66802380Y-69806628D01*
X66802380Y-69568533D01*
X66850000Y-69425676D01*
X66945238Y-69330438D01*
X67040476Y-69282819D01*
X67230952Y-69235200D01*
X67373809Y-69235200D01*
X67564285Y-69282819D01*
X67659523Y-69330438D01*
X67754761Y-69425676D01*
X67802380Y-69568533D01*
X67802380Y-69806628D01*
X67802380Y-68235200D02*
X67326190Y-68568533D01*
X67802380Y-68806628D02*
X66802380Y-68806628D01*
X66802380Y-68425676D01*
X66850000Y-68330438D01*
X66897619Y-68282819D01*
X66992857Y-68235200D01*
X67135714Y-68235200D01*
X67230952Y-68282819D01*
X67278571Y-68330438D01*
X67326190Y-68425676D01*
X67326190Y-68806628D01*
X67278571Y-67473295D02*
X67278571Y-67806628D01*
X67802380Y-67806628D02*
X66802380Y-67806628D01*
X66802380Y-67330438D01*
X67802380Y-66425676D02*
X67802380Y-66997104D01*
X67802380Y-66711390D02*
X66802380Y-66711390D01*
X66945238Y-66806628D01*
X67040476Y-66901866D01*
X67088095Y-66997104D01*
X66897619Y-66044723D02*
X66850000Y-65997104D01*
X66802380Y-65901866D01*
X66802380Y-65663771D01*
X66850000Y-65568533D01*
X66897619Y-65520914D01*
X66992857Y-65473295D01*
X67088095Y-65473295D01*
X67230952Y-65520914D01*
X67802380Y-66092342D01*
X67802380Y-65473295D01*
X66802380Y-64616152D02*
X66802380Y-64806628D01*
X66850000Y-64901866D01*
X66897619Y-64949485D01*
X67040476Y-65044723D01*
X67230952Y-65092342D01*
X67611904Y-65092342D01*
X67707142Y-65044723D01*
X67754761Y-64997104D01*
X67802380Y-64901866D01*
X67802380Y-64711390D01*
X67754761Y-64616152D01*
X67707142Y-64568533D01*
X67611904Y-64520914D01*
X67373809Y-64520914D01*
X67278571Y-64568533D01*
X67230952Y-64616152D01*
X67183333Y-64711390D01*
X67183333Y-64901866D01*
X67230952Y-64997104D01*
X67278571Y-65044723D01*
X67373809Y-65092342D01*
X67230952Y-63949485D02*
X67183333Y-64044723D01*
X67135714Y-64092342D01*
X67040476Y-64139961D01*
X66992857Y-64139961D01*
X66897619Y-64092342D01*
X66850000Y-64044723D01*
X66802380Y-63949485D01*
X66802380Y-63759009D01*
X66850000Y-63663771D01*
X66897619Y-63616152D01*
X66992857Y-63568533D01*
X67040476Y-63568533D01*
X67135714Y-63616152D01*
X67183333Y-63663771D01*
X67230952Y-63759009D01*
X67230952Y-63949485D01*
X67278571Y-64044723D01*
X67326190Y-64092342D01*
X67421428Y-64139961D01*
X67611904Y-64139961D01*
X67707142Y-64092342D01*
X67754761Y-64044723D01*
X67802380Y-63949485D01*
X67802380Y-63759009D01*
X67754761Y-63663771D01*
X67707142Y-63616152D01*
X67611904Y-63568533D01*
X67421428Y-63568533D01*
X67326190Y-63616152D01*
X67278571Y-63663771D01*
X67230952Y-63759009D01*
X67802380Y-63139961D02*
X66802380Y-63139961D01*
X66802380Y-62901866D01*
X66850000Y-62759009D01*
X66945238Y-62663771D01*
X67040476Y-62616152D01*
X67230952Y-62568533D01*
X67373809Y-62568533D01*
X67564285Y-62616152D01*
X67659523Y-62663771D01*
X67754761Y-62759009D01*
X67802380Y-62901866D01*
X67802380Y-63139961D01*
X67754761Y-62187580D02*
X67802380Y-62044723D01*
X67802380Y-61806628D01*
X67754761Y-61711390D01*
X67707142Y-61663771D01*
X67611904Y-61616152D01*
X67516666Y-61616152D01*
X67421428Y-61663771D01*
X67373809Y-61711390D01*
X67326190Y-61806628D01*
X67278571Y-61997104D01*
X67230952Y-62092342D01*
X67183333Y-62139961D01*
X67088095Y-62187580D01*
X66992857Y-62187580D01*
X66897619Y-62139961D01*
X66850000Y-62092342D01*
X66802380Y-61997104D01*
X66802380Y-61759009D01*
X66850000Y-61616152D01*
G04 #@! TO.C,U2*
X78700619Y-51522380D02*
X78891095Y-51522380D01*
X78986333Y-51570000D01*
X79081571Y-51665238D01*
X79129190Y-51855714D01*
X79129190Y-52189047D01*
X79081571Y-52379523D01*
X78986333Y-52474761D01*
X78891095Y-52522380D01*
X78700619Y-52522380D01*
X78605380Y-52474761D01*
X78510142Y-52379523D01*
X78462523Y-52189047D01*
X78462523Y-51855714D01*
X78510142Y-51665238D01*
X78605380Y-51570000D01*
X78700619Y-51522380D01*
X80033952Y-52522380D02*
X79557761Y-52522380D01*
X79557761Y-51522380D01*
X80367285Y-51998571D02*
X80700619Y-51998571D01*
X80843476Y-52522380D02*
X80367285Y-52522380D01*
X80367285Y-51522380D01*
X80843476Y-51522380D01*
X81272047Y-52522380D02*
X81272047Y-51522380D01*
X81510142Y-51522380D01*
X81653000Y-51570000D01*
X81748238Y-51665238D01*
X81795857Y-51760476D01*
X81843476Y-51950952D01*
X81843476Y-52093809D01*
X81795857Y-52284285D01*
X81748238Y-52379523D01*
X81653000Y-52474761D01*
X81510142Y-52522380D01*
X81272047Y-52522380D01*
X88916095Y-45382380D02*
X88916095Y-46191904D01*
X88963714Y-46287142D01*
X89011333Y-46334761D01*
X89106571Y-46382380D01*
X89297047Y-46382380D01*
X89392285Y-46334761D01*
X89439904Y-46287142D01*
X89487523Y-46191904D01*
X89487523Y-45382380D01*
X89916095Y-45477619D02*
X89963714Y-45430000D01*
X90058952Y-45382380D01*
X90297047Y-45382380D01*
X90392285Y-45430000D01*
X90439904Y-45477619D01*
X90487523Y-45572857D01*
X90487523Y-45668095D01*
X90439904Y-45810952D01*
X89868476Y-46382380D01*
X90487523Y-46382380D01*
G04 #@! TO.C,J6*
X88552414Y-97912980D02*
X88552414Y-96912980D01*
X88552414Y-97389171D02*
X89123842Y-97389171D01*
X89123842Y-97912980D02*
X89123842Y-96912980D01*
X89552414Y-97627266D02*
X90028604Y-97627266D01*
X89457176Y-97912980D02*
X89790509Y-96912980D01*
X90123842Y-97912980D01*
X90314319Y-96912980D02*
X90885747Y-96912980D01*
X90600033Y-97912980D02*
X90600033Y-96912980D01*
X90980985Y-98008219D02*
X91742890Y-98008219D01*
X92552414Y-97817742D02*
X92504795Y-97865361D01*
X92361938Y-97912980D01*
X92266700Y-97912980D01*
X92123842Y-97865361D01*
X92028604Y-97770123D01*
X91980985Y-97674885D01*
X91933366Y-97484409D01*
X91933366Y-97341552D01*
X91980985Y-97151076D01*
X92028604Y-97055838D01*
X92123842Y-96960600D01*
X92266700Y-96912980D01*
X92361938Y-96912980D01*
X92504795Y-96960600D01*
X92552414Y-97008219D01*
X93123842Y-97912980D02*
X93028604Y-97865361D01*
X92980985Y-97817742D01*
X92933366Y-97722504D01*
X92933366Y-97436790D01*
X92980985Y-97341552D01*
X93028604Y-97293933D01*
X93123842Y-97246314D01*
X93266700Y-97246314D01*
X93361938Y-97293933D01*
X93409557Y-97341552D01*
X93457176Y-97436790D01*
X93457176Y-97722504D01*
X93409557Y-97817742D01*
X93361938Y-97865361D01*
X93266700Y-97912980D01*
X93123842Y-97912980D01*
X93885747Y-97246314D02*
X93885747Y-97912980D01*
X93885747Y-97341552D02*
X93933366Y-97293933D01*
X94028604Y-97246314D01*
X94171461Y-97246314D01*
X94266700Y-97293933D01*
X94314319Y-97389171D01*
X94314319Y-97912980D01*
X94790509Y-97246314D02*
X94790509Y-97912980D01*
X94790509Y-97341552D02*
X94838128Y-97293933D01*
X94933366Y-97246314D01*
X95076223Y-97246314D01*
X95171461Y-97293933D01*
X95219080Y-97389171D01*
X95219080Y-97912980D01*
X95457176Y-98008219D02*
X96219080Y-98008219D01*
X96457176Y-97912980D02*
X96457176Y-96912980D01*
X96695271Y-96912980D01*
X96838128Y-96960600D01*
X96933366Y-97055838D01*
X96980985Y-97151076D01*
X97028604Y-97341552D01*
X97028604Y-97484409D01*
X96980985Y-97674885D01*
X96933366Y-97770123D01*
X96838128Y-97865361D01*
X96695271Y-97912980D01*
X96457176Y-97912980D01*
X97790509Y-97389171D02*
X97933366Y-97436790D01*
X97980985Y-97484409D01*
X98028604Y-97579647D01*
X98028604Y-97722504D01*
X97980985Y-97817742D01*
X97933366Y-97865361D01*
X97838128Y-97912980D01*
X97457176Y-97912980D01*
X97457176Y-96912980D01*
X97790509Y-96912980D01*
X97885747Y-96960600D01*
X97933366Y-97008219D01*
X97980985Y-97103457D01*
X97980985Y-97198695D01*
X97933366Y-97293933D01*
X97885747Y-97341552D01*
X97790509Y-97389171D01*
X97457176Y-97389171D01*
X98980985Y-96960600D02*
X98885747Y-96912980D01*
X98742890Y-96912980D01*
X98600033Y-96960600D01*
X98504795Y-97055838D01*
X98457176Y-97151076D01*
X98409557Y-97341552D01*
X98409557Y-97484409D01*
X98457176Y-97674885D01*
X98504795Y-97770123D01*
X98600033Y-97865361D01*
X98742890Y-97912980D01*
X98838128Y-97912980D01*
X98980985Y-97865361D01*
X99028604Y-97817742D01*
X99028604Y-97484409D01*
X98838128Y-97484409D01*
X93219080Y-102663933D02*
X93933366Y-102663933D01*
X94076223Y-102711552D01*
X94171461Y-102806790D01*
X94219080Y-102949647D01*
X94219080Y-103044885D01*
X93219080Y-101759171D02*
X93219080Y-101949647D01*
X93266700Y-102044885D01*
X93314319Y-102092504D01*
X93457176Y-102187742D01*
X93647652Y-102235361D01*
X94028604Y-102235361D01*
X94123842Y-102187742D01*
X94171461Y-102140123D01*
X94219080Y-102044885D01*
X94219080Y-101854409D01*
X94171461Y-101759171D01*
X94123842Y-101711552D01*
X94028604Y-101663933D01*
X93790509Y-101663933D01*
X93695271Y-101711552D01*
X93647652Y-101759171D01*
X93600033Y-101854409D01*
X93600033Y-102044885D01*
X93647652Y-102140123D01*
X93695271Y-102187742D01*
X93790509Y-102235361D01*
G04 #@! TO.C,J2*
X55792380Y-72177619D02*
X56601904Y-72177619D01*
X56697142Y-72130000D01*
X56744761Y-72082380D01*
X56792380Y-71987142D01*
X56792380Y-71796666D01*
X56744761Y-71701428D01*
X56697142Y-71653809D01*
X56601904Y-71606190D01*
X55792380Y-71606190D01*
X56744761Y-71177619D02*
X56792380Y-71034761D01*
X56792380Y-70796666D01*
X56744761Y-70701428D01*
X56697142Y-70653809D01*
X56601904Y-70606190D01*
X56506666Y-70606190D01*
X56411428Y-70653809D01*
X56363809Y-70701428D01*
X56316190Y-70796666D01*
X56268571Y-70987142D01*
X56220952Y-71082380D01*
X56173333Y-71130000D01*
X56078095Y-71177619D01*
X55982857Y-71177619D01*
X55887619Y-71130000D01*
X55840000Y-71082380D01*
X55792380Y-70987142D01*
X55792380Y-70749047D01*
X55840000Y-70606190D01*
X56268571Y-69844285D02*
X56316190Y-69701428D01*
X56363809Y-69653809D01*
X56459047Y-69606190D01*
X56601904Y-69606190D01*
X56697142Y-69653809D01*
X56744761Y-69701428D01*
X56792380Y-69796666D01*
X56792380Y-70177619D01*
X55792380Y-70177619D01*
X55792380Y-69844285D01*
X55840000Y-69749047D01*
X55887619Y-69701428D01*
X55982857Y-69653809D01*
X56078095Y-69653809D01*
X56173333Y-69701428D01*
X56220952Y-69749047D01*
X56268571Y-69844285D01*
X56268571Y-70177619D01*
X56887619Y-69415714D02*
X56887619Y-68653809D01*
X56792380Y-68415714D02*
X55792380Y-68415714D01*
X55792380Y-68034761D01*
X55840000Y-67939523D01*
X55887619Y-67891904D01*
X55982857Y-67844285D01*
X56125714Y-67844285D01*
X56220952Y-67891904D01*
X56268571Y-67939523D01*
X56316190Y-68034761D01*
X56316190Y-68415714D01*
X56792380Y-67272857D02*
X56744761Y-67368095D01*
X56697142Y-67415714D01*
X56601904Y-67463333D01*
X56316190Y-67463333D01*
X56220952Y-67415714D01*
X56173333Y-67368095D01*
X56125714Y-67272857D01*
X56125714Y-67130000D01*
X56173333Y-67034761D01*
X56220952Y-66987142D01*
X56316190Y-66939523D01*
X56601904Y-66939523D01*
X56697142Y-66987142D01*
X56744761Y-67034761D01*
X56792380Y-67130000D01*
X56792380Y-67272857D01*
X56125714Y-66606190D02*
X56792380Y-66415714D01*
X56316190Y-66225238D01*
X56792380Y-66034761D01*
X56125714Y-65844285D01*
X56744761Y-65082380D02*
X56792380Y-65177619D01*
X56792380Y-65368095D01*
X56744761Y-65463333D01*
X56649523Y-65510952D01*
X56268571Y-65510952D01*
X56173333Y-65463333D01*
X56125714Y-65368095D01*
X56125714Y-65177619D01*
X56173333Y-65082380D01*
X56268571Y-65034761D01*
X56363809Y-65034761D01*
X56459047Y-65510952D01*
X56792380Y-64606190D02*
X56125714Y-64606190D01*
X56316190Y-64606190D02*
X56220952Y-64558571D01*
X56173333Y-64510952D01*
X56125714Y-64415714D01*
X56125714Y-64320476D01*
X56887619Y-64225238D02*
X56887619Y-63463333D01*
X55792380Y-63034761D02*
X55792380Y-62939523D01*
X55840000Y-62844285D01*
X55887619Y-62796666D01*
X55982857Y-62749047D01*
X56173333Y-62701428D01*
X56411428Y-62701428D01*
X56601904Y-62749047D01*
X56697142Y-62796666D01*
X56744761Y-62844285D01*
X56792380Y-62939523D01*
X56792380Y-63034761D01*
X56744761Y-63130000D01*
X56697142Y-63177619D01*
X56601904Y-63225238D01*
X56411428Y-63272857D01*
X56173333Y-63272857D01*
X55982857Y-63225238D01*
X55887619Y-63177619D01*
X55840000Y-63130000D01*
X55792380Y-63034761D01*
X55887619Y-62320476D02*
X55840000Y-62272857D01*
X55792380Y-62177619D01*
X55792380Y-61939523D01*
X55840000Y-61844285D01*
X55887619Y-61796666D01*
X55982857Y-61749047D01*
X56078095Y-61749047D01*
X56220952Y-61796666D01*
X56792380Y-62368095D01*
X56792380Y-61749047D01*
X56792380Y-61415714D02*
X56125714Y-60891904D01*
X56125714Y-61415714D02*
X56792380Y-60891904D01*
X55792380Y-60320476D02*
X55792380Y-60225238D01*
X55840000Y-60130000D01*
X55887619Y-60082380D01*
X55982857Y-60034761D01*
X56173333Y-59987142D01*
X56411428Y-59987142D01*
X56601904Y-60034761D01*
X56697142Y-60082380D01*
X56744761Y-60130000D01*
X56792380Y-60225238D01*
X56792380Y-60320476D01*
X56744761Y-60415714D01*
X56697142Y-60463333D01*
X56601904Y-60510952D01*
X56411428Y-60558571D01*
X56173333Y-60558571D01*
X55982857Y-60510952D01*
X55887619Y-60463333D01*
X55840000Y-60415714D01*
X55792380Y-60320476D01*
X55887619Y-59606190D02*
X55840000Y-59558571D01*
X55792380Y-59463333D01*
X55792380Y-59225238D01*
X55840000Y-59130000D01*
X55887619Y-59082380D01*
X55982857Y-59034761D01*
X56078095Y-59034761D01*
X56220952Y-59082380D01*
X56792380Y-59653809D01*
X56792380Y-59034761D01*
G04 #@! TO.C,J8*
X44652380Y-89502728D02*
X45461904Y-89502728D01*
X45557142Y-89455109D01*
X45604761Y-89407490D01*
X45652380Y-89312252D01*
X45652380Y-89121776D01*
X45604761Y-89026538D01*
X45557142Y-88978919D01*
X45461904Y-88931300D01*
X44652380Y-88931300D01*
X45604761Y-88502728D02*
X45652380Y-88359871D01*
X45652380Y-88121776D01*
X45604761Y-88026538D01*
X45557142Y-87978919D01*
X45461904Y-87931300D01*
X45366666Y-87931300D01*
X45271428Y-87978919D01*
X45223809Y-88026538D01*
X45176190Y-88121776D01*
X45128571Y-88312252D01*
X45080952Y-88407490D01*
X45033333Y-88455109D01*
X44938095Y-88502728D01*
X44842857Y-88502728D01*
X44747619Y-88455109D01*
X44700000Y-88407490D01*
X44652380Y-88312252D01*
X44652380Y-88074157D01*
X44700000Y-87931300D01*
X45128571Y-87169395D02*
X45176190Y-87026538D01*
X45223809Y-86978919D01*
X45319047Y-86931300D01*
X45461904Y-86931300D01*
X45557142Y-86978919D01*
X45604761Y-87026538D01*
X45652380Y-87121776D01*
X45652380Y-87502728D01*
X44652380Y-87502728D01*
X44652380Y-87169395D01*
X44700000Y-87074157D01*
X44747619Y-87026538D01*
X44842857Y-86978919D01*
X44938095Y-86978919D01*
X45033333Y-87026538D01*
X45080952Y-87074157D01*
X45128571Y-87169395D01*
X45128571Y-87502728D01*
X45747619Y-86740823D02*
X45747619Y-85978919D01*
X45652380Y-85740823D02*
X44652380Y-85740823D01*
X45128571Y-85740823D02*
X45128571Y-85169395D01*
X45652380Y-85169395D02*
X44652380Y-85169395D01*
X45652380Y-84550347D02*
X45604761Y-84645585D01*
X45557142Y-84693204D01*
X45461904Y-84740823D01*
X45176190Y-84740823D01*
X45080952Y-84693204D01*
X45033333Y-84645585D01*
X44985714Y-84550347D01*
X44985714Y-84407490D01*
X45033333Y-84312252D01*
X45080952Y-84264633D01*
X45176190Y-84217014D01*
X45461904Y-84217014D01*
X45557142Y-84264633D01*
X45604761Y-84312252D01*
X45652380Y-84407490D01*
X45652380Y-84550347D01*
X45604761Y-83836061D02*
X45652380Y-83740823D01*
X45652380Y-83550347D01*
X45604761Y-83455109D01*
X45509523Y-83407490D01*
X45461904Y-83407490D01*
X45366666Y-83455109D01*
X45319047Y-83550347D01*
X45319047Y-83693204D01*
X45271428Y-83788442D01*
X45176190Y-83836061D01*
X45128571Y-83836061D01*
X45033333Y-83788442D01*
X44985714Y-83693204D01*
X44985714Y-83550347D01*
X45033333Y-83455109D01*
X44985714Y-83121776D02*
X44985714Y-82740823D01*
X44652380Y-82978919D02*
X45509523Y-82978919D01*
X45604761Y-82931300D01*
X45652380Y-82836061D01*
X45652380Y-82740823D01*
X45747619Y-82645585D02*
X45747619Y-81883680D01*
X45652380Y-81645585D02*
X44652380Y-81645585D01*
X44652380Y-81407490D01*
X44700000Y-81264633D01*
X44795238Y-81169395D01*
X44890476Y-81121776D01*
X45080952Y-81074157D01*
X45223809Y-81074157D01*
X45414285Y-81121776D01*
X45509523Y-81169395D01*
X45604761Y-81264633D01*
X45652380Y-81407490D01*
X45652380Y-81645585D01*
X45652380Y-80217014D02*
X45128571Y-80217014D01*
X45033333Y-80264633D01*
X44985714Y-80359871D01*
X44985714Y-80550347D01*
X45033333Y-80645585D01*
X45604761Y-80217014D02*
X45652380Y-80312252D01*
X45652380Y-80550347D01*
X45604761Y-80645585D01*
X45509523Y-80693204D01*
X45414285Y-80693204D01*
X45319047Y-80645585D01*
X45271428Y-80550347D01*
X45271428Y-80312252D01*
X45223809Y-80217014D01*
X44985714Y-79883680D02*
X44985714Y-79502728D01*
X44652380Y-79740823D02*
X45509523Y-79740823D01*
X45604761Y-79693204D01*
X45652380Y-79597966D01*
X45652380Y-79502728D01*
X45652380Y-78740823D02*
X45128571Y-78740823D01*
X45033333Y-78788442D01*
X44985714Y-78883680D01*
X44985714Y-79074157D01*
X45033333Y-79169395D01*
X45604761Y-78740823D02*
X45652380Y-78836061D01*
X45652380Y-79074157D01*
X45604761Y-79169395D01*
X45509523Y-79217014D01*
X45414285Y-79217014D01*
X45319047Y-79169395D01*
X45271428Y-79074157D01*
X45271428Y-78836061D01*
X45223809Y-78740823D01*
X45747619Y-78502728D02*
X45747619Y-77740823D01*
X44652380Y-77312252D02*
X44652380Y-77217014D01*
X44700000Y-77121776D01*
X44747619Y-77074157D01*
X44842857Y-77026538D01*
X45033333Y-76978919D01*
X45271428Y-76978919D01*
X45461904Y-77026538D01*
X45557142Y-77074157D01*
X45604761Y-77121776D01*
X45652380Y-77217014D01*
X45652380Y-77312252D01*
X45604761Y-77407490D01*
X45557142Y-77455109D01*
X45461904Y-77502728D01*
X45271428Y-77550347D01*
X45033333Y-77550347D01*
X44842857Y-77502728D01*
X44747619Y-77455109D01*
X44700000Y-77407490D01*
X44652380Y-77312252D01*
X44747619Y-76597966D02*
X44700000Y-76550347D01*
X44652380Y-76455109D01*
X44652380Y-76217014D01*
X44700000Y-76121776D01*
X44747619Y-76074157D01*
X44842857Y-76026538D01*
X44938095Y-76026538D01*
X45080952Y-76074157D01*
X45652380Y-76645585D01*
X45652380Y-76026538D01*
X45652380Y-75693204D02*
X44985714Y-75169395D01*
X44985714Y-75693204D02*
X45652380Y-75169395D01*
X44652380Y-74597966D02*
X44652380Y-74502728D01*
X44700000Y-74407490D01*
X44747619Y-74359871D01*
X44842857Y-74312252D01*
X45033333Y-74264633D01*
X45271428Y-74264633D01*
X45461904Y-74312252D01*
X45557142Y-74359871D01*
X45604761Y-74407490D01*
X45652380Y-74502728D01*
X45652380Y-74597966D01*
X45604761Y-74693204D01*
X45557142Y-74740823D01*
X45461904Y-74788442D01*
X45271428Y-74836061D01*
X45033333Y-74836061D01*
X44842857Y-74788442D01*
X44747619Y-74740823D01*
X44700000Y-74693204D01*
X44652380Y-74597966D01*
X44747619Y-73883680D02*
X44700000Y-73836061D01*
X44652380Y-73740823D01*
X44652380Y-73502728D01*
X44700000Y-73407490D01*
X44747619Y-73359871D01*
X44842857Y-73312252D01*
X44938095Y-73312252D01*
X45080952Y-73359871D01*
X45652380Y-73931300D01*
X45652380Y-73312252D01*
G04 #@! TO.C,J4*
X44652380Y-83521028D02*
X45461904Y-83521028D01*
X45557142Y-83473409D01*
X45604761Y-83425790D01*
X45652380Y-83330552D01*
X45652380Y-83140076D01*
X45604761Y-83044838D01*
X45557142Y-82997219D01*
X45461904Y-82949600D01*
X44652380Y-82949600D01*
X45604761Y-82521028D02*
X45652380Y-82378171D01*
X45652380Y-82140076D01*
X45604761Y-82044838D01*
X45557142Y-81997219D01*
X45461904Y-81949600D01*
X45366666Y-81949600D01*
X45271428Y-81997219D01*
X45223809Y-82044838D01*
X45176190Y-82140076D01*
X45128571Y-82330552D01*
X45080952Y-82425790D01*
X45033333Y-82473409D01*
X44938095Y-82521028D01*
X44842857Y-82521028D01*
X44747619Y-82473409D01*
X44700000Y-82425790D01*
X44652380Y-82330552D01*
X44652380Y-82092457D01*
X44700000Y-81949600D01*
X45128571Y-81187695D02*
X45176190Y-81044838D01*
X45223809Y-80997219D01*
X45319047Y-80949600D01*
X45461904Y-80949600D01*
X45557142Y-80997219D01*
X45604761Y-81044838D01*
X45652380Y-81140076D01*
X45652380Y-81521028D01*
X44652380Y-81521028D01*
X44652380Y-81187695D01*
X44700000Y-81092457D01*
X44747619Y-81044838D01*
X44842857Y-80997219D01*
X44938095Y-80997219D01*
X45033333Y-81044838D01*
X45080952Y-81092457D01*
X45128571Y-81187695D01*
X45128571Y-81521028D01*
X45747619Y-80759123D02*
X45747619Y-79997219D01*
X45652380Y-79759123D02*
X44652380Y-79759123D01*
X45128571Y-79759123D02*
X45128571Y-79187695D01*
X45652380Y-79187695D02*
X44652380Y-79187695D01*
X45652380Y-78568647D02*
X45604761Y-78663885D01*
X45557142Y-78711504D01*
X45461904Y-78759123D01*
X45176190Y-78759123D01*
X45080952Y-78711504D01*
X45033333Y-78663885D01*
X44985714Y-78568647D01*
X44985714Y-78425790D01*
X45033333Y-78330552D01*
X45080952Y-78282933D01*
X45176190Y-78235314D01*
X45461904Y-78235314D01*
X45557142Y-78282933D01*
X45604761Y-78330552D01*
X45652380Y-78425790D01*
X45652380Y-78568647D01*
X45604761Y-77854361D02*
X45652380Y-77759123D01*
X45652380Y-77568647D01*
X45604761Y-77473409D01*
X45509523Y-77425790D01*
X45461904Y-77425790D01*
X45366666Y-77473409D01*
X45319047Y-77568647D01*
X45319047Y-77711504D01*
X45271428Y-77806742D01*
X45176190Y-77854361D01*
X45128571Y-77854361D01*
X45033333Y-77806742D01*
X44985714Y-77711504D01*
X44985714Y-77568647D01*
X45033333Y-77473409D01*
X44985714Y-77140076D02*
X44985714Y-76759123D01*
X44652380Y-76997219D02*
X45509523Y-76997219D01*
X45604761Y-76949600D01*
X45652380Y-76854361D01*
X45652380Y-76759123D01*
X45747619Y-76663885D02*
X45747619Y-75901980D01*
X45652380Y-75663885D02*
X44652380Y-75663885D01*
X44652380Y-75425790D01*
X44700000Y-75282933D01*
X44795238Y-75187695D01*
X44890476Y-75140076D01*
X45080952Y-75092457D01*
X45223809Y-75092457D01*
X45414285Y-75140076D01*
X45509523Y-75187695D01*
X45604761Y-75282933D01*
X45652380Y-75425790D01*
X45652380Y-75663885D01*
X45652380Y-74235314D02*
X45128571Y-74235314D01*
X45033333Y-74282933D01*
X44985714Y-74378171D01*
X44985714Y-74568647D01*
X45033333Y-74663885D01*
X45604761Y-74235314D02*
X45652380Y-74330552D01*
X45652380Y-74568647D01*
X45604761Y-74663885D01*
X45509523Y-74711504D01*
X45414285Y-74711504D01*
X45319047Y-74663885D01*
X45271428Y-74568647D01*
X45271428Y-74330552D01*
X45223809Y-74235314D01*
X44985714Y-73901980D02*
X44985714Y-73521028D01*
X44652380Y-73759123D02*
X45509523Y-73759123D01*
X45604761Y-73711504D01*
X45652380Y-73616266D01*
X45652380Y-73521028D01*
X45652380Y-72759123D02*
X45128571Y-72759123D01*
X45033333Y-72806742D01*
X44985714Y-72901980D01*
X44985714Y-73092457D01*
X45033333Y-73187695D01*
X45604761Y-72759123D02*
X45652380Y-72854361D01*
X45652380Y-73092457D01*
X45604761Y-73187695D01*
X45509523Y-73235314D01*
X45414285Y-73235314D01*
X45319047Y-73187695D01*
X45271428Y-73092457D01*
X45271428Y-72854361D01*
X45223809Y-72759123D01*
X45747619Y-72521028D02*
X45747619Y-71759123D01*
X44652380Y-71330552D02*
X44652380Y-71235314D01*
X44700000Y-71140076D01*
X44747619Y-71092457D01*
X44842857Y-71044838D01*
X45033333Y-70997219D01*
X45271428Y-70997219D01*
X45461904Y-71044838D01*
X45557142Y-71092457D01*
X45604761Y-71140076D01*
X45652380Y-71235314D01*
X45652380Y-71330552D01*
X45604761Y-71425790D01*
X45557142Y-71473409D01*
X45461904Y-71521028D01*
X45271428Y-71568647D01*
X45033333Y-71568647D01*
X44842857Y-71521028D01*
X44747619Y-71473409D01*
X44700000Y-71425790D01*
X44652380Y-71330552D01*
X44747619Y-70616266D02*
X44700000Y-70568647D01*
X44652380Y-70473409D01*
X44652380Y-70235314D01*
X44700000Y-70140076D01*
X44747619Y-70092457D01*
X44842857Y-70044838D01*
X44938095Y-70044838D01*
X45080952Y-70092457D01*
X45652380Y-70663885D01*
X45652380Y-70044838D01*
X45652380Y-69711504D02*
X44985714Y-69187695D01*
X44985714Y-69711504D02*
X45652380Y-69187695D01*
X44652380Y-68616266D02*
X44652380Y-68521028D01*
X44700000Y-68425790D01*
X44747619Y-68378171D01*
X44842857Y-68330552D01*
X45033333Y-68282933D01*
X45271428Y-68282933D01*
X45461904Y-68330552D01*
X45557142Y-68378171D01*
X45604761Y-68425790D01*
X45652380Y-68521028D01*
X45652380Y-68616266D01*
X45604761Y-68711504D01*
X45557142Y-68759123D01*
X45461904Y-68806742D01*
X45271428Y-68854361D01*
X45033333Y-68854361D01*
X44842857Y-68806742D01*
X44747619Y-68759123D01*
X44700000Y-68711504D01*
X44652380Y-68616266D01*
X44747619Y-67901980D02*
X44700000Y-67854361D01*
X44652380Y-67759123D01*
X44652380Y-67521028D01*
X44700000Y-67425790D01*
X44747619Y-67378171D01*
X44842857Y-67330552D01*
X44938095Y-67330552D01*
X45080952Y-67378171D01*
X45652380Y-67949600D01*
X45652380Y-67330552D01*
G04 #@! TO.C,U3*
X80090266Y-91123057D02*
X80090266Y-90646866D01*
X80375980Y-91218295D02*
X79375980Y-90884961D01*
X80375980Y-90551628D01*
X79375980Y-90313533D02*
X80375980Y-89646866D01*
X79375980Y-89646866D02*
X80375980Y-90313533D01*
X80375980Y-89265914D02*
X79375980Y-89265914D01*
X79375980Y-88884961D01*
X79423600Y-88789723D01*
X79471219Y-88742104D01*
X79566457Y-88694485D01*
X79709314Y-88694485D01*
X79804552Y-88742104D01*
X79852171Y-88789723D01*
X79899790Y-88884961D01*
X79899790Y-89265914D01*
X79471219Y-88313533D02*
X79423600Y-88265914D01*
X79375980Y-88170676D01*
X79375980Y-87932580D01*
X79423600Y-87837342D01*
X79471219Y-87789723D01*
X79566457Y-87742104D01*
X79661695Y-87742104D01*
X79804552Y-87789723D01*
X80375980Y-88361152D01*
X80375980Y-87742104D01*
X79375980Y-87123057D02*
X79375980Y-87027819D01*
X79423600Y-86932580D01*
X79471219Y-86884961D01*
X79566457Y-86837342D01*
X79756933Y-86789723D01*
X79995028Y-86789723D01*
X80185504Y-86837342D01*
X80280742Y-86884961D01*
X80328361Y-86932580D01*
X80375980Y-87027819D01*
X80375980Y-87123057D01*
X80328361Y-87218295D01*
X80280742Y-87265914D01*
X80185504Y-87313533D01*
X79995028Y-87361152D01*
X79756933Y-87361152D01*
X79566457Y-87313533D01*
X79471219Y-87265914D01*
X79423600Y-87218295D01*
X79375980Y-87123057D01*
X80375980Y-86313533D02*
X80375980Y-86123057D01*
X80328361Y-86027819D01*
X80280742Y-85980200D01*
X80137885Y-85884961D01*
X79947409Y-85837342D01*
X79566457Y-85837342D01*
X79471219Y-85884961D01*
X79423600Y-85932580D01*
X79375980Y-86027819D01*
X79375980Y-86218295D01*
X79423600Y-86313533D01*
X79471219Y-86361152D01*
X79566457Y-86408771D01*
X79804552Y-86408771D01*
X79899790Y-86361152D01*
X79947409Y-86313533D01*
X79995028Y-86218295D01*
X79995028Y-86027819D01*
X79947409Y-85932580D01*
X79899790Y-85884961D01*
X79804552Y-85837342D01*
G04 #@! TO.C,U7*
X62908571Y-114450190D02*
X62956190Y-114307333D01*
X63003809Y-114259714D01*
X63099047Y-114212095D01*
X63241904Y-114212095D01*
X63337142Y-114259714D01*
X63384761Y-114307333D01*
X63432380Y-114402571D01*
X63432380Y-114783523D01*
X62432380Y-114783523D01*
X62432380Y-114450190D01*
X62480000Y-114354952D01*
X62527619Y-114307333D01*
X62622857Y-114259714D01*
X62718095Y-114259714D01*
X62813333Y-114307333D01*
X62860952Y-114354952D01*
X62908571Y-114450190D01*
X62908571Y-114783523D01*
X63432380Y-113354952D02*
X62908571Y-113354952D01*
X62813333Y-113402571D01*
X62765714Y-113497809D01*
X62765714Y-113688285D01*
X62813333Y-113783523D01*
X63384761Y-113354952D02*
X63432380Y-113450190D01*
X63432380Y-113688285D01*
X63384761Y-113783523D01*
X63289523Y-113831142D01*
X63194285Y-113831142D01*
X63099047Y-113783523D01*
X63051428Y-113688285D01*
X63051428Y-113450190D01*
X63003809Y-113354952D01*
X62765714Y-113021619D02*
X62765714Y-112640666D01*
X62432380Y-112878761D02*
X63289523Y-112878761D01*
X63384761Y-112831142D01*
X63432380Y-112735904D01*
X63432380Y-112640666D01*
X62765714Y-112450190D02*
X62765714Y-112069238D01*
X62432380Y-112307333D02*
X63289523Y-112307333D01*
X63384761Y-112259714D01*
X63432380Y-112164476D01*
X63432380Y-112069238D01*
X63384761Y-111354952D02*
X63432380Y-111450190D01*
X63432380Y-111640666D01*
X63384761Y-111735904D01*
X63289523Y-111783523D01*
X62908571Y-111783523D01*
X62813333Y-111735904D01*
X62765714Y-111640666D01*
X62765714Y-111450190D01*
X62813333Y-111354952D01*
X62908571Y-111307333D01*
X63003809Y-111307333D01*
X63099047Y-111783523D01*
X63432380Y-110878761D02*
X62765714Y-110878761D01*
X62956190Y-110878761D02*
X62860952Y-110831142D01*
X62813333Y-110783523D01*
X62765714Y-110688285D01*
X62765714Y-110593047D01*
X62765714Y-110354952D02*
X63432380Y-110116857D01*
X62765714Y-109878761D02*
X63432380Y-110116857D01*
X63670476Y-110212095D01*
X63718095Y-110259714D01*
X63765714Y-110354952D01*
X63432380Y-109497809D02*
X62432380Y-109497809D01*
X62432380Y-109116857D01*
X62480000Y-109021619D01*
X62527619Y-108974000D01*
X62622857Y-108926380D01*
X62765714Y-108926380D01*
X62860952Y-108974000D01*
X62908571Y-109021619D01*
X62956190Y-109116857D01*
X62956190Y-109497809D01*
X63432380Y-108069238D02*
X62908571Y-108069238D01*
X62813333Y-108116857D01*
X62765714Y-108212095D01*
X62765714Y-108402571D01*
X62813333Y-108497809D01*
X63384761Y-108069238D02*
X63432380Y-108164476D01*
X63432380Y-108402571D01*
X63384761Y-108497809D01*
X63289523Y-108545428D01*
X63194285Y-108545428D01*
X63099047Y-108497809D01*
X63051428Y-108402571D01*
X63051428Y-108164476D01*
X63003809Y-108069238D01*
X63432380Y-107164476D02*
X62432380Y-107164476D01*
X63384761Y-107164476D02*
X63432380Y-107259714D01*
X63432380Y-107450190D01*
X63384761Y-107545428D01*
X63337142Y-107593047D01*
X63241904Y-107640666D01*
X62956190Y-107640666D01*
X62860952Y-107593047D01*
X62813333Y-107545428D01*
X62765714Y-107450190D01*
X62765714Y-107259714D01*
X62813333Y-107164476D01*
X63432380Y-106688285D02*
X62432380Y-106688285D01*
X62432380Y-106307333D01*
X62480000Y-106212095D01*
X62527619Y-106164476D01*
X62622857Y-106116857D01*
X62765714Y-106116857D01*
X62860952Y-106164476D01*
X62908571Y-106212095D01*
X62956190Y-106307333D01*
X62956190Y-106688285D01*
G04 #@! TO.C,U6*
X61908571Y-53815619D02*
X61956190Y-53672761D01*
X62003809Y-53625142D01*
X62099047Y-53577523D01*
X62241904Y-53577523D01*
X62337142Y-53625142D01*
X62384761Y-53672761D01*
X62432380Y-53768000D01*
X62432380Y-54148952D01*
X61432380Y-54148952D01*
X61432380Y-53815619D01*
X61480000Y-53720380D01*
X61527619Y-53672761D01*
X61622857Y-53625142D01*
X61718095Y-53625142D01*
X61813333Y-53672761D01*
X61860952Y-53720380D01*
X61908571Y-53815619D01*
X61908571Y-54148952D01*
X62432380Y-52720380D02*
X61908571Y-52720380D01*
X61813333Y-52768000D01*
X61765714Y-52863238D01*
X61765714Y-53053714D01*
X61813333Y-53148952D01*
X62384761Y-52720380D02*
X62432380Y-52815619D01*
X62432380Y-53053714D01*
X62384761Y-53148952D01*
X62289523Y-53196571D01*
X62194285Y-53196571D01*
X62099047Y-53148952D01*
X62051428Y-53053714D01*
X62051428Y-52815619D01*
X62003809Y-52720380D01*
X61765714Y-52387047D02*
X61765714Y-52006095D01*
X61432380Y-52244190D02*
X62289523Y-52244190D01*
X62384761Y-52196571D01*
X62432380Y-52101333D01*
X62432380Y-52006095D01*
X61765714Y-51815619D02*
X61765714Y-51434666D01*
X61432380Y-51672761D02*
X62289523Y-51672761D01*
X62384761Y-51625142D01*
X62432380Y-51529904D01*
X62432380Y-51434666D01*
X62384761Y-50720380D02*
X62432380Y-50815619D01*
X62432380Y-51006095D01*
X62384761Y-51101333D01*
X62289523Y-51148952D01*
X61908571Y-51148952D01*
X61813333Y-51101333D01*
X61765714Y-51006095D01*
X61765714Y-50815619D01*
X61813333Y-50720380D01*
X61908571Y-50672761D01*
X62003809Y-50672761D01*
X62099047Y-51148952D01*
X62432380Y-50244190D02*
X61765714Y-50244190D01*
X61956190Y-50244190D02*
X61860952Y-50196571D01*
X61813333Y-50148952D01*
X61765714Y-50053714D01*
X61765714Y-49958476D01*
X61765714Y-49720380D02*
X62432380Y-49482285D01*
X61765714Y-49244190D02*
X62432380Y-49482285D01*
X62670476Y-49577523D01*
X62718095Y-49625142D01*
X62765714Y-49720380D01*
X62432380Y-48863238D02*
X61432380Y-48863238D01*
X61432380Y-48482285D01*
X61480000Y-48387047D01*
X61527619Y-48339428D01*
X61622857Y-48291809D01*
X61765714Y-48291809D01*
X61860952Y-48339428D01*
X61908571Y-48387047D01*
X61956190Y-48482285D01*
X61956190Y-48863238D01*
X62432380Y-47434666D02*
X61908571Y-47434666D01*
X61813333Y-47482285D01*
X61765714Y-47577523D01*
X61765714Y-47768000D01*
X61813333Y-47863238D01*
X62384761Y-47434666D02*
X62432380Y-47529904D01*
X62432380Y-47768000D01*
X62384761Y-47863238D01*
X62289523Y-47910857D01*
X62194285Y-47910857D01*
X62099047Y-47863238D01*
X62051428Y-47768000D01*
X62051428Y-47529904D01*
X62003809Y-47434666D01*
X62432380Y-46529904D02*
X61432380Y-46529904D01*
X62384761Y-46529904D02*
X62432380Y-46625142D01*
X62432380Y-46815619D01*
X62384761Y-46910857D01*
X62337142Y-46958476D01*
X62241904Y-47006095D01*
X61956190Y-47006095D01*
X61860952Y-46958476D01*
X61813333Y-46910857D01*
X61765714Y-46815619D01*
X61765714Y-46625142D01*
X61813333Y-46529904D01*
X62432380Y-46053714D02*
X61432380Y-46053714D01*
X62146666Y-45720380D01*
X61432380Y-45387047D01*
X62432380Y-45387047D01*
G04 #@! TO.C,U4*
X73620466Y-58868260D02*
X73620466Y-59344450D01*
X72620466Y-59344450D01*
X73620466Y-58534926D02*
X72620466Y-58534926D01*
X72620466Y-58153974D01*
X72668086Y-58058736D01*
X72715705Y-58011117D01*
X72810943Y-57963498D01*
X72953800Y-57963498D01*
X73049038Y-58011117D01*
X73096657Y-58058736D01*
X73144276Y-58153974D01*
X73144276Y-58534926D01*
X72620466Y-57106355D02*
X72620466Y-57296831D01*
X72668086Y-57392069D01*
X72715705Y-57439688D01*
X72858562Y-57534926D01*
X73049038Y-57582546D01*
X73429990Y-57582546D01*
X73525228Y-57534926D01*
X73572847Y-57487307D01*
X73620466Y-57392069D01*
X73620466Y-57201593D01*
X73572847Y-57106355D01*
X73525228Y-57058736D01*
X73429990Y-57011117D01*
X73191895Y-57011117D01*
X73096657Y-57058736D01*
X73049038Y-57106355D01*
X73001419Y-57201593D01*
X73001419Y-57392069D01*
X73049038Y-57487307D01*
X73096657Y-57534926D01*
X73191895Y-57582546D01*
X72715705Y-56630165D02*
X72668086Y-56582546D01*
X72620466Y-56487307D01*
X72620466Y-56249212D01*
X72668086Y-56153974D01*
X72715705Y-56106355D01*
X72810943Y-56058736D01*
X72906181Y-56058736D01*
X73049038Y-56106355D01*
X73620466Y-56677784D01*
X73620466Y-56058736D01*
X72715705Y-55677784D02*
X72668086Y-55630165D01*
X72620466Y-55534926D01*
X72620466Y-55296831D01*
X72668086Y-55201593D01*
X72715705Y-55153974D01*
X72810943Y-55106355D01*
X72906181Y-55106355D01*
X73049038Y-55153974D01*
X73620466Y-55725403D01*
X73620466Y-55106355D01*
X72620466Y-54249212D02*
X72620466Y-54439688D01*
X72668086Y-54534926D01*
X72715705Y-54582546D01*
X72858562Y-54677784D01*
X73049038Y-54725403D01*
X73429990Y-54725403D01*
X73525228Y-54677784D01*
X73572847Y-54630165D01*
X73620466Y-54534926D01*
X73620466Y-54344450D01*
X73572847Y-54249212D01*
X73525228Y-54201593D01*
X73429990Y-54153974D01*
X73191895Y-54153974D01*
X73096657Y-54201593D01*
X73049038Y-54249212D01*
X73001419Y-54344450D01*
X73001419Y-54534926D01*
X73049038Y-54630165D01*
X73096657Y-54677784D01*
X73191895Y-54725403D01*
X73715705Y-53963498D02*
X73715705Y-53201593D01*
X73572847Y-53011117D02*
X73620466Y-52868260D01*
X73620466Y-52630165D01*
X73572847Y-52534926D01*
X73525228Y-52487307D01*
X73429990Y-52439688D01*
X73334752Y-52439688D01*
X73239514Y-52487307D01*
X73191895Y-52534926D01*
X73144276Y-52630165D01*
X73096657Y-52820641D01*
X73049038Y-52915879D01*
X73001419Y-52963498D01*
X72906181Y-53011117D01*
X72810943Y-53011117D01*
X72715705Y-52963498D01*
X72668086Y-52915879D01*
X72620466Y-52820641D01*
X72620466Y-52582546D01*
X72668086Y-52439688D01*
X73144276Y-51820641D02*
X73620466Y-51820641D01*
X72620466Y-52153974D02*
X73144276Y-51820641D01*
X72620466Y-51487307D01*
X72620466Y-51249212D02*
X72620466Y-50582546D01*
X73620466Y-51011117D01*
X72715705Y-50249212D02*
X72668086Y-50201593D01*
X72620466Y-50106355D01*
X72620466Y-49868260D01*
X72668086Y-49773022D01*
X72715705Y-49725403D01*
X72810943Y-49677784D01*
X72906181Y-49677784D01*
X73049038Y-49725403D01*
X73620466Y-50296831D01*
X73620466Y-49677784D01*
X72620466Y-49058736D02*
X72620466Y-48963498D01*
X72668086Y-48868260D01*
X72715705Y-48820641D01*
X72810943Y-48773022D01*
X73001419Y-48725403D01*
X73239514Y-48725403D01*
X73429990Y-48773022D01*
X73525228Y-48820641D01*
X73572847Y-48868260D01*
X73620466Y-48963498D01*
X73620466Y-49058736D01*
X73572847Y-49153974D01*
X73525228Y-49201593D01*
X73429990Y-49249212D01*
X73239514Y-49296831D01*
X73001419Y-49296831D01*
X72810943Y-49249212D01*
X72715705Y-49201593D01*
X72668086Y-49153974D01*
X72620466Y-49058736D01*
X73049038Y-48153974D02*
X73001419Y-48249212D01*
X72953800Y-48296831D01*
X72858562Y-48344450D01*
X72810943Y-48344450D01*
X72715705Y-48296831D01*
X72668086Y-48249212D01*
X72620466Y-48153974D01*
X72620466Y-47963498D01*
X72668086Y-47868260D01*
X72715705Y-47820641D01*
X72810943Y-47773022D01*
X72858562Y-47773022D01*
X72953800Y-47820641D01*
X73001419Y-47868260D01*
X73049038Y-47963498D01*
X73049038Y-48153974D01*
X73096657Y-48249212D01*
X73144276Y-48296831D01*
X73239514Y-48344450D01*
X73429990Y-48344450D01*
X73525228Y-48296831D01*
X73572847Y-48249212D01*
X73620466Y-48153974D01*
X73620466Y-47963498D01*
X73572847Y-47868260D01*
X73525228Y-47820641D01*
X73429990Y-47773022D01*
X73239514Y-47773022D01*
X73144276Y-47820641D01*
X73096657Y-47868260D01*
X73049038Y-47963498D01*
D12*
X74815133Y-52949736D02*
X74815133Y-53354498D01*
X74838943Y-53402117D01*
X74862752Y-53425926D01*
X74910371Y-53449736D01*
X75005609Y-53449736D01*
X75053228Y-53425926D01*
X75077038Y-53402117D01*
X75100847Y-53354498D01*
X75100847Y-52949736D01*
X75553228Y-53116403D02*
X75553228Y-53449736D01*
X75434181Y-52925926D02*
X75315133Y-53283069D01*
X75624657Y-53283069D01*
G04 #@! TO.C,U5*
D10*
X65402152Y-56585961D02*
X65545009Y-56633580D01*
X65783104Y-56633580D01*
X65878342Y-56585961D01*
X65925961Y-56538342D01*
X65973580Y-56443104D01*
X65973580Y-56347866D01*
X65925961Y-56252628D01*
X65878342Y-56205009D01*
X65783104Y-56157390D01*
X65592628Y-56109771D01*
X65497390Y-56062152D01*
X65449771Y-56014533D01*
X65402152Y-55919295D01*
X65402152Y-55824057D01*
X65449771Y-55728819D01*
X65497390Y-55681200D01*
X65592628Y-55633580D01*
X65830723Y-55633580D01*
X65973580Y-55681200D01*
X66592628Y-56157390D02*
X66592628Y-56633580D01*
X66259295Y-55633580D02*
X66592628Y-56157390D01*
X66925961Y-55633580D01*
X67687866Y-55633580D02*
X67497390Y-55633580D01*
X67402152Y-55681200D01*
X67354533Y-55728819D01*
X67259295Y-55871676D01*
X67211676Y-56062152D01*
X67211676Y-56443104D01*
X67259295Y-56538342D01*
X67306914Y-56585961D01*
X67402152Y-56633580D01*
X67592628Y-56633580D01*
X67687866Y-56585961D01*
X67735485Y-56538342D01*
X67783104Y-56443104D01*
X67783104Y-56205009D01*
X67735485Y-56109771D01*
X67687866Y-56062152D01*
X67592628Y-56014533D01*
X67402152Y-56014533D01*
X67306914Y-56062152D01*
X67259295Y-56109771D01*
X67211676Y-56205009D01*
X68164057Y-55728819D02*
X68211676Y-55681200D01*
X68306914Y-55633580D01*
X68545009Y-55633580D01*
X68640247Y-55681200D01*
X68687866Y-55728819D01*
X68735485Y-55824057D01*
X68735485Y-55919295D01*
X68687866Y-56062152D01*
X68116438Y-56633580D01*
X68735485Y-56633580D01*
X69306914Y-56062152D02*
X69211676Y-56014533D01*
X69164057Y-55966914D01*
X69116438Y-55871676D01*
X69116438Y-55824057D01*
X69164057Y-55728819D01*
X69211676Y-55681200D01*
X69306914Y-55633580D01*
X69497390Y-55633580D01*
X69592628Y-55681200D01*
X69640247Y-55728819D01*
X69687866Y-55824057D01*
X69687866Y-55871676D01*
X69640247Y-55966914D01*
X69592628Y-56014533D01*
X69497390Y-56062152D01*
X69306914Y-56062152D01*
X69211676Y-56109771D01*
X69164057Y-56157390D01*
X69116438Y-56252628D01*
X69116438Y-56443104D01*
X69164057Y-56538342D01*
X69211676Y-56585961D01*
X69306914Y-56633580D01*
X69497390Y-56633580D01*
X69592628Y-56585961D01*
X69640247Y-56538342D01*
X69687866Y-56443104D01*
X69687866Y-56252628D01*
X69640247Y-56157390D01*
X69592628Y-56109771D01*
X69497390Y-56062152D01*
X70306914Y-55633580D02*
X70402152Y-55633580D01*
X70497390Y-55681200D01*
X70545009Y-55728819D01*
X70592628Y-55824057D01*
X70640247Y-56014533D01*
X70640247Y-56252628D01*
X70592628Y-56443104D01*
X70545009Y-56538342D01*
X70497390Y-56585961D01*
X70402152Y-56633580D01*
X70306914Y-56633580D01*
X70211676Y-56585961D01*
X70164057Y-56538342D01*
X70116438Y-56443104D01*
X70068819Y-56252628D01*
X70068819Y-56014533D01*
X70116438Y-55824057D01*
X70164057Y-55728819D01*
X70211676Y-55681200D01*
X70306914Y-55633580D01*
D12*
X67747390Y-53662152D02*
X68152152Y-53662152D01*
X68199771Y-53638342D01*
X68223580Y-53614533D01*
X68247390Y-53566914D01*
X68247390Y-53471676D01*
X68223580Y-53424057D01*
X68199771Y-53400247D01*
X68152152Y-53376438D01*
X67747390Y-53376438D01*
X67747390Y-52900247D02*
X67747390Y-53138342D01*
X67985485Y-53162152D01*
X67961676Y-53138342D01*
X67937866Y-53090723D01*
X67937866Y-52971676D01*
X67961676Y-52924057D01*
X67985485Y-52900247D01*
X68033104Y-52876438D01*
X68152152Y-52876438D01*
X68199771Y-52900247D01*
X68223580Y-52924057D01*
X68247390Y-52971676D01*
X68247390Y-53090723D01*
X68223580Y-53138342D01*
X68199771Y-53162152D01*
G04 #@! TO.C,TP2*
D10*
X77272380Y-81115238D02*
X77272380Y-80543809D01*
X78272380Y-80829523D02*
X77272380Y-80829523D01*
X77748571Y-80210476D02*
X77748571Y-79877142D01*
X78272380Y-79734285D02*
X78272380Y-80210476D01*
X77272380Y-80210476D01*
X77272380Y-79734285D01*
X78224761Y-79353333D02*
X78272380Y-79210476D01*
X78272380Y-78972380D01*
X78224761Y-78877142D01*
X78177142Y-78829523D01*
X78081904Y-78781904D01*
X77986666Y-78781904D01*
X77891428Y-78829523D01*
X77843809Y-78877142D01*
X77796190Y-78972380D01*
X77748571Y-79162857D01*
X77700952Y-79258095D01*
X77653333Y-79305714D01*
X77558095Y-79353333D01*
X77462857Y-79353333D01*
X77367619Y-79305714D01*
X77320000Y-79258095D01*
X77272380Y-79162857D01*
X77272380Y-78924761D01*
X77320000Y-78781904D01*
X77272380Y-78496190D02*
X77272380Y-77924761D01*
X78272380Y-78210476D02*
X77272380Y-78210476D01*
G04 #@! TO.C,TP3*
X81776380Y-86775238D02*
X81776380Y-86203809D01*
X82776380Y-86489523D02*
X81776380Y-86489523D01*
X82252571Y-85870476D02*
X82252571Y-85537142D01*
X82776380Y-85394285D02*
X82776380Y-85870476D01*
X81776380Y-85870476D01*
X81776380Y-85394285D01*
X82728761Y-85013333D02*
X82776380Y-84870476D01*
X82776380Y-84632380D01*
X82728761Y-84537142D01*
X82681142Y-84489523D01*
X82585904Y-84441904D01*
X82490666Y-84441904D01*
X82395428Y-84489523D01*
X82347809Y-84537142D01*
X82300190Y-84632380D01*
X82252571Y-84822857D01*
X82204952Y-84918095D01*
X82157333Y-84965714D01*
X82062095Y-85013333D01*
X81966857Y-85013333D01*
X81871619Y-84965714D01*
X81824000Y-84918095D01*
X81776380Y-84822857D01*
X81776380Y-84584761D01*
X81824000Y-84441904D01*
X81776380Y-84156190D02*
X81776380Y-83584761D01*
X82776380Y-83870476D02*
X81776380Y-83870476D01*
G04 #@! TO.C,TP4*
X67546161Y-56754880D02*
X68117590Y-56754880D01*
X67831876Y-57754880D02*
X67831876Y-56754880D01*
X68450923Y-57231071D02*
X68784257Y-57231071D01*
X68927114Y-57754880D02*
X68450923Y-57754880D01*
X68450923Y-56754880D01*
X68927114Y-56754880D01*
X69308066Y-57707261D02*
X69450923Y-57754880D01*
X69689019Y-57754880D01*
X69784257Y-57707261D01*
X69831876Y-57659642D01*
X69879495Y-57564404D01*
X69879495Y-57469166D01*
X69831876Y-57373928D01*
X69784257Y-57326309D01*
X69689019Y-57278690D01*
X69498542Y-57231071D01*
X69403304Y-57183452D01*
X69355685Y-57135833D01*
X69308066Y-57040595D01*
X69308066Y-56945357D01*
X69355685Y-56850119D01*
X69403304Y-56802500D01*
X69498542Y-56754880D01*
X69736638Y-56754880D01*
X69879495Y-56802500D01*
X70165209Y-56754880D02*
X70736638Y-56754880D01*
X70450923Y-57754880D02*
X70450923Y-56754880D01*
G04 #@! TO.C,TP10*
X84708560Y-56412598D02*
X84708560Y-55841169D01*
X85708560Y-56126883D02*
X84708560Y-56126883D01*
X85184751Y-55507836D02*
X85184751Y-55174502D01*
X85708560Y-55031645D02*
X85708560Y-55507836D01*
X84708560Y-55507836D01*
X84708560Y-55031645D01*
X85660941Y-54650693D02*
X85708560Y-54507836D01*
X85708560Y-54269740D01*
X85660941Y-54174502D01*
X85613322Y-54126883D01*
X85518084Y-54079264D01*
X85422846Y-54079264D01*
X85327608Y-54126883D01*
X85279989Y-54174502D01*
X85232370Y-54269740D01*
X85184751Y-54460217D01*
X85137132Y-54555455D01*
X85089513Y-54603074D01*
X84994275Y-54650693D01*
X84899037Y-54650693D01*
X84803799Y-54603074D01*
X84756180Y-54555455D01*
X84708560Y-54460217D01*
X84708560Y-54222121D01*
X84756180Y-54079264D01*
X84708560Y-53793550D02*
X84708560Y-53222121D01*
X85708560Y-53507836D02*
X84708560Y-53507836D01*
G04 #@! TO.C,TP11*
X79801661Y-49426980D02*
X80373090Y-49426980D01*
X80087376Y-50426980D02*
X80087376Y-49426980D01*
X80706423Y-49903171D02*
X81039757Y-49903171D01*
X81182614Y-50426980D02*
X80706423Y-50426980D01*
X80706423Y-49426980D01*
X81182614Y-49426980D01*
X81563566Y-50379361D02*
X81706423Y-50426980D01*
X81944519Y-50426980D01*
X82039757Y-50379361D01*
X82087376Y-50331742D01*
X82134995Y-50236504D01*
X82134995Y-50141266D01*
X82087376Y-50046028D01*
X82039757Y-49998409D01*
X81944519Y-49950790D01*
X81754042Y-49903171D01*
X81658804Y-49855552D01*
X81611185Y-49807933D01*
X81563566Y-49712695D01*
X81563566Y-49617457D01*
X81611185Y-49522219D01*
X81658804Y-49474600D01*
X81754042Y-49426980D01*
X81992138Y-49426980D01*
X82134995Y-49474600D01*
X82420709Y-49426980D02*
X82992138Y-49426980D01*
X82706423Y-50426980D02*
X82706423Y-49426980D01*
G04 #@! TO.C,L1*
X58171642Y-90468219D02*
X58219261Y-90420600D01*
X58314500Y-90372980D01*
X58552595Y-90372980D01*
X58647833Y-90420600D01*
X58695452Y-90468219D01*
X58743071Y-90563457D01*
X58743071Y-90658695D01*
X58695452Y-90801552D01*
X58124023Y-91372980D01*
X58743071Y-91372980D01*
X59171642Y-91277742D02*
X59219261Y-91325361D01*
X59171642Y-91372980D01*
X59124023Y-91325361D01*
X59171642Y-91277742D01*
X59171642Y-91372980D01*
X59600214Y-90468219D02*
X59647833Y-90420600D01*
X59743071Y-90372980D01*
X59981166Y-90372980D01*
X60076404Y-90420600D01*
X60124023Y-90468219D01*
X60171642Y-90563457D01*
X60171642Y-90658695D01*
X60124023Y-90801552D01*
X59552595Y-91372980D01*
X60171642Y-91372980D01*
X61028785Y-90706314D02*
X61028785Y-91372980D01*
X60600214Y-90706314D02*
X60600214Y-91230123D01*
X60647833Y-91325361D01*
X60743071Y-91372980D01*
X60885928Y-91372980D01*
X60981166Y-91325361D01*
X61028785Y-91277742D01*
X61504976Y-91372980D02*
X61504976Y-90372980D01*
X61504976Y-90849171D02*
X62076404Y-90849171D01*
X62076404Y-91372980D02*
X62076404Y-90372980D01*
X62552595Y-90992028D02*
X63314500Y-90992028D01*
X63790690Y-91372980D02*
X63790690Y-90372980D01*
X64028785Y-90372980D01*
X64171642Y-90420600D01*
X64266880Y-90515838D01*
X64314500Y-90611076D01*
X64362119Y-90801552D01*
X64362119Y-90944409D01*
X64314500Y-91134885D01*
X64266880Y-91230123D01*
X64171642Y-91325361D01*
X64028785Y-91372980D01*
X63790690Y-91372980D01*
X65362119Y-91277742D02*
X65314500Y-91325361D01*
X65171642Y-91372980D01*
X65076404Y-91372980D01*
X64933547Y-91325361D01*
X64838309Y-91230123D01*
X64790690Y-91134885D01*
X64743071Y-90944409D01*
X64743071Y-90801552D01*
X64790690Y-90611076D01*
X64838309Y-90515838D01*
X64933547Y-90420600D01*
X65076404Y-90372980D01*
X65171642Y-90372980D01*
X65314500Y-90420600D01*
X65362119Y-90468219D01*
X66362119Y-91372980D02*
X66028785Y-90896790D01*
X65790690Y-91372980D02*
X65790690Y-90372980D01*
X66171642Y-90372980D01*
X66266880Y-90420600D01*
X66314500Y-90468219D01*
X66362119Y-90563457D01*
X66362119Y-90706314D01*
X66314500Y-90801552D01*
X66266880Y-90849171D01*
X66171642Y-90896790D01*
X65790690Y-90896790D01*
X67552595Y-90706314D02*
X66790690Y-90992028D01*
X67552595Y-91277742D01*
X68219261Y-90372980D02*
X68314500Y-90372980D01*
X68409738Y-90420600D01*
X68457357Y-90468219D01*
X68504976Y-90563457D01*
X68552595Y-90753933D01*
X68552595Y-90992028D01*
X68504976Y-91182504D01*
X68457357Y-91277742D01*
X68409738Y-91325361D01*
X68314500Y-91372980D01*
X68219261Y-91372980D01*
X68124023Y-91325361D01*
X68076404Y-91277742D01*
X68028785Y-91182504D01*
X67981166Y-90992028D01*
X67981166Y-90753933D01*
X68028785Y-90563457D01*
X68076404Y-90468219D01*
X68124023Y-90420600D01*
X68219261Y-90372980D01*
X68981166Y-91277742D02*
X69028785Y-91325361D01*
X68981166Y-91372980D01*
X68933547Y-91325361D01*
X68981166Y-91277742D01*
X68981166Y-91372980D01*
X69981166Y-91372980D02*
X69409738Y-91372980D01*
X69695452Y-91372980D02*
X69695452Y-90372980D01*
X69600214Y-90515838D01*
X69504976Y-90611076D01*
X69409738Y-90658695D01*
X70981166Y-91372980D02*
X70647833Y-90896790D01*
X70409738Y-91372980D02*
X70409738Y-90372980D01*
X70790690Y-90372980D01*
X70885928Y-90420600D01*
X70933547Y-90468219D01*
X70981166Y-90563457D01*
X70981166Y-90706314D01*
X70933547Y-90801552D01*
X70885928Y-90849171D01*
X70790690Y-90896790D01*
X70409738Y-90896790D01*
X71409738Y-90992028D02*
X72171642Y-90992028D01*
X73171642Y-91372980D02*
X72600214Y-91372980D01*
X72885928Y-91372980D02*
X72885928Y-90372980D01*
X72790690Y-90515838D01*
X72695452Y-90611076D01*
X72600214Y-90658695D01*
X73600214Y-91277742D02*
X73647833Y-91325361D01*
X73600214Y-91372980D01*
X73552595Y-91325361D01*
X73600214Y-91277742D01*
X73600214Y-91372980D01*
X74552595Y-90372980D02*
X74076404Y-90372980D01*
X74028785Y-90849171D01*
X74076404Y-90801552D01*
X74171642Y-90753933D01*
X74409738Y-90753933D01*
X74504976Y-90801552D01*
X74552595Y-90849171D01*
X74600214Y-90944409D01*
X74600214Y-91182504D01*
X74552595Y-91277742D01*
X74504976Y-91325361D01*
X74409738Y-91372980D01*
X74171642Y-91372980D01*
X74076404Y-91325361D01*
X74028785Y-91277742D01*
X74981166Y-91087266D02*
X75457357Y-91087266D01*
X74885928Y-91372980D02*
X75219261Y-90372980D01*
X75552595Y-91372980D01*
G04 #@! TO.C,L2*
X84203219Y-62853157D02*
X84155600Y-62805538D01*
X84107980Y-62710300D01*
X84107980Y-62472204D01*
X84155600Y-62376966D01*
X84203219Y-62329347D01*
X84298457Y-62281728D01*
X84393695Y-62281728D01*
X84536552Y-62329347D01*
X85107980Y-62900776D01*
X85107980Y-62281728D01*
X85012742Y-61853157D02*
X85060361Y-61805538D01*
X85107980Y-61853157D01*
X85060361Y-61900776D01*
X85012742Y-61853157D01*
X85107980Y-61853157D01*
X84203219Y-61424585D02*
X84155600Y-61376966D01*
X84107980Y-61281728D01*
X84107980Y-61043633D01*
X84155600Y-60948395D01*
X84203219Y-60900776D01*
X84298457Y-60853157D01*
X84393695Y-60853157D01*
X84536552Y-60900776D01*
X85107980Y-61472204D01*
X85107980Y-60853157D01*
X84441314Y-59996014D02*
X85107980Y-59996014D01*
X84441314Y-60424585D02*
X84965123Y-60424585D01*
X85060361Y-60376966D01*
X85107980Y-60281728D01*
X85107980Y-60138871D01*
X85060361Y-60043633D01*
X85012742Y-59996014D01*
X85107980Y-59519823D02*
X84107980Y-59519823D01*
X84584171Y-59519823D02*
X84584171Y-58948395D01*
X85107980Y-58948395D02*
X84107980Y-58948395D01*
X84727028Y-58472204D02*
X84727028Y-57710300D01*
X85107980Y-57234109D02*
X84107980Y-57234109D01*
X84107980Y-56996014D01*
X84155600Y-56853157D01*
X84250838Y-56757919D01*
X84346076Y-56710300D01*
X84536552Y-56662680D01*
X84679409Y-56662680D01*
X84869885Y-56710300D01*
X84965123Y-56757919D01*
X85060361Y-56853157D01*
X85107980Y-56996014D01*
X85107980Y-57234109D01*
X85012742Y-55662680D02*
X85060361Y-55710300D01*
X85107980Y-55853157D01*
X85107980Y-55948395D01*
X85060361Y-56091252D01*
X84965123Y-56186490D01*
X84869885Y-56234109D01*
X84679409Y-56281728D01*
X84536552Y-56281728D01*
X84346076Y-56234109D01*
X84250838Y-56186490D01*
X84155600Y-56091252D01*
X84107980Y-55948395D01*
X84107980Y-55853157D01*
X84155600Y-55710300D01*
X84203219Y-55662680D01*
X85107980Y-54662680D02*
X84631790Y-54996014D01*
X85107980Y-55234109D02*
X84107980Y-55234109D01*
X84107980Y-54853157D01*
X84155600Y-54757919D01*
X84203219Y-54710300D01*
X84298457Y-54662680D01*
X84441314Y-54662680D01*
X84536552Y-54710300D01*
X84584171Y-54757919D01*
X84631790Y-54853157D01*
X84631790Y-55234109D01*
X84441314Y-53472204D02*
X84727028Y-54234109D01*
X85012742Y-53472204D01*
X84107980Y-52805538D02*
X84107980Y-52710300D01*
X84155600Y-52615061D01*
X84203219Y-52567442D01*
X84298457Y-52519823D01*
X84488933Y-52472204D01*
X84727028Y-52472204D01*
X84917504Y-52519823D01*
X85012742Y-52567442D01*
X85060361Y-52615061D01*
X85107980Y-52710300D01*
X85107980Y-52805538D01*
X85060361Y-52900776D01*
X85012742Y-52948395D01*
X84917504Y-52996014D01*
X84727028Y-53043633D01*
X84488933Y-53043633D01*
X84298457Y-52996014D01*
X84203219Y-52948395D01*
X84155600Y-52900776D01*
X84107980Y-52805538D01*
X85012742Y-52043633D02*
X85060361Y-51996014D01*
X85107980Y-52043633D01*
X85060361Y-52091252D01*
X85012742Y-52043633D01*
X85107980Y-52043633D01*
X85107980Y-51043633D02*
X85107980Y-51615061D01*
X85107980Y-51329347D02*
X84107980Y-51329347D01*
X84250838Y-51424585D01*
X84346076Y-51519823D01*
X84393695Y-51615061D01*
X85107980Y-50043633D02*
X84631790Y-50376966D01*
X85107980Y-50615061D02*
X84107980Y-50615061D01*
X84107980Y-50234109D01*
X84155600Y-50138871D01*
X84203219Y-50091252D01*
X84298457Y-50043633D01*
X84441314Y-50043633D01*
X84536552Y-50091252D01*
X84584171Y-50138871D01*
X84631790Y-50234109D01*
X84631790Y-50615061D01*
X84727028Y-49615061D02*
X84727028Y-48853157D01*
X85107980Y-47853157D02*
X85107980Y-48424585D01*
X85107980Y-48138871D02*
X84107980Y-48138871D01*
X84250838Y-48234109D01*
X84346076Y-48329347D01*
X84393695Y-48424585D01*
X85012742Y-47424585D02*
X85060361Y-47376966D01*
X85107980Y-47424585D01*
X85060361Y-47472204D01*
X85012742Y-47424585D01*
X85107980Y-47424585D01*
X84107980Y-46472204D02*
X84107980Y-46948395D01*
X84584171Y-46996014D01*
X84536552Y-46948395D01*
X84488933Y-46853157D01*
X84488933Y-46615061D01*
X84536552Y-46519823D01*
X84584171Y-46472204D01*
X84679409Y-46424585D01*
X84917504Y-46424585D01*
X85012742Y-46472204D01*
X85060361Y-46519823D01*
X85107980Y-46615061D01*
X85107980Y-46853157D01*
X85060361Y-46948395D01*
X85012742Y-46996014D01*
X84822266Y-46043633D02*
X84822266Y-45567442D01*
X85107980Y-46138871D02*
X84107980Y-45805538D01*
X85107980Y-45472204D01*
G04 #@! TO.C,C4*
X70746871Y-82266980D02*
X70175442Y-82266980D01*
X70461157Y-82266980D02*
X70461157Y-81266980D01*
X70365919Y-81409838D01*
X70270680Y-81505076D01*
X70175442Y-81552695D01*
X71365919Y-81266980D02*
X71461157Y-81266980D01*
X71556395Y-81314600D01*
X71604014Y-81362219D01*
X71651633Y-81457457D01*
X71699252Y-81647933D01*
X71699252Y-81886028D01*
X71651633Y-82076504D01*
X71604014Y-82171742D01*
X71556395Y-82219361D01*
X71461157Y-82266980D01*
X71365919Y-82266980D01*
X71270680Y-82219361D01*
X71223061Y-82171742D01*
X71175442Y-82076504D01*
X71127823Y-81886028D01*
X71127823Y-81647933D01*
X71175442Y-81457457D01*
X71223061Y-81362219D01*
X71270680Y-81314600D01*
X71365919Y-81266980D01*
X72556395Y-81600314D02*
X72556395Y-82266980D01*
X72127823Y-81600314D02*
X72127823Y-82124123D01*
X72175442Y-82219361D01*
X72270680Y-82266980D01*
X72413538Y-82266980D01*
X72508776Y-82219361D01*
X72556395Y-82171742D01*
X73365919Y-81743171D02*
X73032585Y-81743171D01*
X73032585Y-82266980D02*
X73032585Y-81266980D01*
X73508776Y-81266980D01*
D13*
X71751633Y-83387457D02*
X71732585Y-83406504D01*
X71675442Y-83425552D01*
X71637347Y-83425552D01*
X71580204Y-83406504D01*
X71542109Y-83368409D01*
X71523061Y-83330314D01*
X71504014Y-83254123D01*
X71504014Y-83196980D01*
X71523061Y-83120790D01*
X71542109Y-83082695D01*
X71580204Y-83044600D01*
X71637347Y-83025552D01*
X71675442Y-83025552D01*
X71732585Y-83044600D01*
X71751633Y-83063647D01*
X72094490Y-83158885D02*
X72094490Y-83425552D01*
X71999252Y-83006504D02*
X71904014Y-83292219D01*
X72151633Y-83292219D01*
G04 #@! TO.C,C5*
D10*
X75856380Y-78996428D02*
X75856380Y-79567857D01*
X75856380Y-79282142D02*
X74856380Y-79282142D01*
X74999238Y-79377380D01*
X75094476Y-79472619D01*
X75142095Y-79567857D01*
X74856380Y-78377380D02*
X74856380Y-78282142D01*
X74904000Y-78186904D01*
X74951619Y-78139285D01*
X75046857Y-78091666D01*
X75237333Y-78044047D01*
X75475428Y-78044047D01*
X75665904Y-78091666D01*
X75761142Y-78139285D01*
X75808761Y-78186904D01*
X75856380Y-78282142D01*
X75856380Y-78377380D01*
X75808761Y-78472619D01*
X75761142Y-78520238D01*
X75665904Y-78567857D01*
X75475428Y-78615476D01*
X75237333Y-78615476D01*
X75046857Y-78567857D01*
X74951619Y-78520238D01*
X74904000Y-78472619D01*
X74856380Y-78377380D01*
X75189714Y-77186904D02*
X75856380Y-77186904D01*
X75189714Y-77615476D02*
X75713523Y-77615476D01*
X75808761Y-77567857D01*
X75856380Y-77472619D01*
X75856380Y-77329761D01*
X75808761Y-77234523D01*
X75761142Y-77186904D01*
X75332571Y-76377380D02*
X75332571Y-76710714D01*
X75856380Y-76710714D02*
X74856380Y-76710714D01*
X74856380Y-76234523D01*
D13*
X74116857Y-77991666D02*
X74135904Y-78010714D01*
X74154952Y-78067857D01*
X74154952Y-78105952D01*
X74135904Y-78163095D01*
X74097809Y-78201190D01*
X74059714Y-78220238D01*
X73983523Y-78239285D01*
X73926380Y-78239285D01*
X73850190Y-78220238D01*
X73812095Y-78201190D01*
X73774000Y-78163095D01*
X73754952Y-78105952D01*
X73754952Y-78067857D01*
X73774000Y-78010714D01*
X73793047Y-77991666D01*
X73754952Y-77629761D02*
X73754952Y-77820238D01*
X73945428Y-77839285D01*
X73926380Y-77820238D01*
X73907333Y-77782142D01*
X73907333Y-77686904D01*
X73926380Y-77648809D01*
X73945428Y-77629761D01*
X73983523Y-77610714D01*
X74078761Y-77610714D01*
X74116857Y-77629761D01*
X74135904Y-77648809D01*
X74154952Y-77686904D01*
X74154952Y-77782142D01*
X74135904Y-77820238D01*
X74116857Y-77839285D01*
G04 #@! TO.C,C6*
D10*
X78954761Y-86046380D02*
X78383333Y-86046380D01*
X78669047Y-86046380D02*
X78669047Y-85046380D01*
X78573809Y-85189238D01*
X78478571Y-85284476D01*
X78383333Y-85332095D01*
X79811904Y-85379714D02*
X79811904Y-86046380D01*
X79383333Y-85379714D02*
X79383333Y-85903523D01*
X79430952Y-85998761D01*
X79526190Y-86046380D01*
X79669047Y-86046380D01*
X79764285Y-85998761D01*
X79811904Y-85951142D01*
X80621428Y-85522571D02*
X80288095Y-85522571D01*
X80288095Y-86046380D02*
X80288095Y-85046380D01*
X80764285Y-85046380D01*
D13*
X79483333Y-84306857D02*
X79464285Y-84325904D01*
X79407142Y-84344952D01*
X79369047Y-84344952D01*
X79311904Y-84325904D01*
X79273809Y-84287809D01*
X79254761Y-84249714D01*
X79235714Y-84173523D01*
X79235714Y-84116380D01*
X79254761Y-84040190D01*
X79273809Y-84002095D01*
X79311904Y-83964000D01*
X79369047Y-83944952D01*
X79407142Y-83944952D01*
X79464285Y-83964000D01*
X79483333Y-83983047D01*
X79826190Y-83944952D02*
X79750000Y-83944952D01*
X79711904Y-83964000D01*
X79692857Y-83983047D01*
X79654761Y-84040190D01*
X79635714Y-84116380D01*
X79635714Y-84268761D01*
X79654761Y-84306857D01*
X79673809Y-84325904D01*
X79711904Y-84344952D01*
X79788095Y-84344952D01*
X79826190Y-84325904D01*
X79845238Y-84306857D01*
X79864285Y-84268761D01*
X79864285Y-84173523D01*
X79845238Y-84135428D01*
X79826190Y-84116380D01*
X79788095Y-84097333D01*
X79711904Y-84097333D01*
X79673809Y-84116380D01*
X79654761Y-84135428D01*
X79635714Y-84173523D01*
G04 #@! TO.C,C7*
D10*
X57712380Y-111167619D02*
X57712380Y-111739047D01*
X57712380Y-111453333D02*
X56712380Y-111453333D01*
X56855238Y-111548571D01*
X56950476Y-111643809D01*
X56998095Y-111739047D01*
X56712380Y-110548571D02*
X56712380Y-110453333D01*
X56760000Y-110358095D01*
X56807619Y-110310476D01*
X56902857Y-110262857D01*
X57093333Y-110215238D01*
X57331428Y-110215238D01*
X57521904Y-110262857D01*
X57617142Y-110310476D01*
X57664761Y-110358095D01*
X57712380Y-110453333D01*
X57712380Y-110548571D01*
X57664761Y-110643809D01*
X57617142Y-110691428D01*
X57521904Y-110739047D01*
X57331428Y-110786666D01*
X57093333Y-110786666D01*
X56902857Y-110739047D01*
X56807619Y-110691428D01*
X56760000Y-110643809D01*
X56712380Y-110548571D01*
X56712380Y-109596190D02*
X56712380Y-109500952D01*
X56760000Y-109405714D01*
X56807619Y-109358095D01*
X56902857Y-109310476D01*
X57093333Y-109262857D01*
X57331428Y-109262857D01*
X57521904Y-109310476D01*
X57617142Y-109358095D01*
X57664761Y-109405714D01*
X57712380Y-109500952D01*
X57712380Y-109596190D01*
X57664761Y-109691428D01*
X57617142Y-109739047D01*
X57521904Y-109786666D01*
X57331428Y-109834285D01*
X57093333Y-109834285D01*
X56902857Y-109786666D01*
X56807619Y-109739047D01*
X56760000Y-109691428D01*
X56712380Y-109596190D01*
X57045714Y-108834285D02*
X58045714Y-108834285D01*
X57093333Y-108834285D02*
X57045714Y-108739047D01*
X57045714Y-108548571D01*
X57093333Y-108453333D01*
X57140952Y-108405714D01*
X57236190Y-108358095D01*
X57521904Y-108358095D01*
X57617142Y-108405714D01*
X57664761Y-108453333D01*
X57712380Y-108548571D01*
X57712380Y-108739047D01*
X57664761Y-108834285D01*
X57188571Y-107596190D02*
X57188571Y-107929523D01*
X57712380Y-107929523D02*
X56712380Y-107929523D01*
X56712380Y-107453333D01*
D13*
X55972857Y-109686666D02*
X55991904Y-109705714D01*
X56010952Y-109762857D01*
X56010952Y-109800952D01*
X55991904Y-109858095D01*
X55953809Y-109896190D01*
X55915714Y-109915238D01*
X55839523Y-109934285D01*
X55782380Y-109934285D01*
X55706190Y-109915238D01*
X55668095Y-109896190D01*
X55630000Y-109858095D01*
X55610952Y-109800952D01*
X55610952Y-109762857D01*
X55630000Y-109705714D01*
X55649047Y-109686666D01*
X55610952Y-109553333D02*
X55610952Y-109286666D01*
X56010952Y-109458095D01*
G04 #@! TO.C,C8*
D10*
X66181138Y-90721334D02*
X66181138Y-91388000D01*
X65943042Y-90340381D02*
X65704947Y-91054667D01*
X66323995Y-91054667D01*
X66704947Y-91292762D02*
X66752566Y-91340381D01*
X66704947Y-91388000D01*
X66657328Y-91340381D01*
X66704947Y-91292762D01*
X66704947Y-91388000D01*
X67085900Y-90388000D02*
X67752566Y-90388000D01*
X67323995Y-91388000D01*
X68562090Y-90721334D02*
X68562090Y-91388000D01*
X68133519Y-90721334D02*
X68133519Y-91245143D01*
X68181138Y-91340381D01*
X68276376Y-91388000D01*
X68419233Y-91388000D01*
X68514471Y-91340381D01*
X68562090Y-91292762D01*
X69371614Y-90864191D02*
X69038280Y-90864191D01*
X69038280Y-91388000D02*
X69038280Y-90388000D01*
X69514471Y-90388000D01*
D13*
X67519233Y-89648477D02*
X67500185Y-89667524D01*
X67443042Y-89686572D01*
X67404947Y-89686572D01*
X67347804Y-89667524D01*
X67309709Y-89629429D01*
X67290661Y-89591334D01*
X67271614Y-89515143D01*
X67271614Y-89458000D01*
X67290661Y-89381810D01*
X67309709Y-89343715D01*
X67347804Y-89305620D01*
X67404947Y-89286572D01*
X67443042Y-89286572D01*
X67500185Y-89305620D01*
X67519233Y-89324667D01*
X67747804Y-89458000D02*
X67709709Y-89438953D01*
X67690661Y-89419905D01*
X67671614Y-89381810D01*
X67671614Y-89362762D01*
X67690661Y-89324667D01*
X67709709Y-89305620D01*
X67747804Y-89286572D01*
X67823995Y-89286572D01*
X67862090Y-89305620D01*
X67881138Y-89324667D01*
X67900185Y-89362762D01*
X67900185Y-89381810D01*
X67881138Y-89419905D01*
X67862090Y-89438953D01*
X67823995Y-89458000D01*
X67747804Y-89458000D01*
X67709709Y-89477048D01*
X67690661Y-89496096D01*
X67671614Y-89534191D01*
X67671614Y-89610381D01*
X67690661Y-89648477D01*
X67709709Y-89667524D01*
X67747804Y-89686572D01*
X67823995Y-89686572D01*
X67862090Y-89667524D01*
X67881138Y-89648477D01*
X67900185Y-89610381D01*
X67900185Y-89534191D01*
X67881138Y-89496096D01*
X67862090Y-89477048D01*
X67823995Y-89458000D01*
G04 #@! TO.C,C9*
D10*
X64360380Y-87639598D02*
X64360380Y-88211026D01*
X64360380Y-87925312D02*
X63360380Y-87925312D01*
X63503238Y-88020550D01*
X63598476Y-88115788D01*
X63646095Y-88211026D01*
X63693714Y-86782455D02*
X64360380Y-86782455D01*
X63693714Y-87211026D02*
X64217523Y-87211026D01*
X64312761Y-87163407D01*
X64360380Y-87068169D01*
X64360380Y-86925312D01*
X64312761Y-86830074D01*
X64265142Y-86782455D01*
X63836571Y-85972931D02*
X63836571Y-86306264D01*
X64360380Y-86306264D02*
X63360380Y-86306264D01*
X63360380Y-85830074D01*
D13*
X65480857Y-87111026D02*
X65499904Y-87130074D01*
X65518952Y-87187217D01*
X65518952Y-87225312D01*
X65499904Y-87282455D01*
X65461809Y-87320550D01*
X65423714Y-87339598D01*
X65347523Y-87358645D01*
X65290380Y-87358645D01*
X65214190Y-87339598D01*
X65176095Y-87320550D01*
X65138000Y-87282455D01*
X65118952Y-87225312D01*
X65118952Y-87187217D01*
X65138000Y-87130074D01*
X65157047Y-87111026D01*
X65518952Y-86920550D02*
X65518952Y-86844360D01*
X65499904Y-86806264D01*
X65480857Y-86787217D01*
X65423714Y-86749121D01*
X65347523Y-86730074D01*
X65195142Y-86730074D01*
X65157047Y-86749121D01*
X65138000Y-86768169D01*
X65118952Y-86806264D01*
X65118952Y-86882455D01*
X65138000Y-86920550D01*
X65157047Y-86939598D01*
X65195142Y-86958645D01*
X65290380Y-86958645D01*
X65328476Y-86939598D01*
X65347523Y-86920550D01*
X65366571Y-86882455D01*
X65366571Y-86806264D01*
X65347523Y-86768169D01*
X65328476Y-86749121D01*
X65290380Y-86730074D01*
G04 #@! TO.C,C10*
D10*
X66872014Y-84103261D02*
X67538680Y-84103261D01*
X66491061Y-84341357D02*
X67205347Y-84579452D01*
X67205347Y-83960404D01*
X67443442Y-83579452D02*
X67491061Y-83531833D01*
X67538680Y-83579452D01*
X67491061Y-83627071D01*
X67443442Y-83579452D01*
X67538680Y-83579452D01*
X66538680Y-83198499D02*
X66538680Y-82531833D01*
X67538680Y-82960404D01*
X66872014Y-81722309D02*
X67538680Y-81722309D01*
X66872014Y-82150880D02*
X67395823Y-82150880D01*
X67491061Y-82103261D01*
X67538680Y-82008023D01*
X67538680Y-81865166D01*
X67491061Y-81769928D01*
X67443442Y-81722309D01*
X67014871Y-80912785D02*
X67014871Y-81246119D01*
X67538680Y-81246119D02*
X66538680Y-81246119D01*
X66538680Y-80769928D01*
D13*
X68659157Y-82955642D02*
X68678204Y-82974690D01*
X68697252Y-83031833D01*
X68697252Y-83069928D01*
X68678204Y-83127071D01*
X68640109Y-83165166D01*
X68602014Y-83184214D01*
X68525823Y-83203261D01*
X68468680Y-83203261D01*
X68392490Y-83184214D01*
X68354395Y-83165166D01*
X68316300Y-83127071D01*
X68297252Y-83069928D01*
X68297252Y-83031833D01*
X68316300Y-82974690D01*
X68335347Y-82955642D01*
X68697252Y-82574690D02*
X68697252Y-82803261D01*
X68697252Y-82688976D02*
X68297252Y-82688976D01*
X68354395Y-82727071D01*
X68392490Y-82765166D01*
X68411538Y-82803261D01*
X68297252Y-82327071D02*
X68297252Y-82288976D01*
X68316300Y-82250880D01*
X68335347Y-82231833D01*
X68373442Y-82212785D01*
X68449633Y-82193738D01*
X68544871Y-82193738D01*
X68621061Y-82212785D01*
X68659157Y-82231833D01*
X68678204Y-82250880D01*
X68697252Y-82288976D01*
X68697252Y-82327071D01*
X68678204Y-82365166D01*
X68659157Y-82384214D01*
X68621061Y-82403261D01*
X68544871Y-82422309D01*
X68449633Y-82422309D01*
X68373442Y-82403261D01*
X68335347Y-82384214D01*
X68316300Y-82365166D01*
X68297252Y-82327071D01*
G04 #@! TO.C,C11*
D10*
X64679998Y-89306594D02*
X64679998Y-89973260D01*
X64441902Y-88925641D02*
X64203807Y-89639927D01*
X64822855Y-89639927D01*
X65203807Y-89878022D02*
X65251426Y-89925641D01*
X65203807Y-89973260D01*
X65156188Y-89925641D01*
X65203807Y-89878022D01*
X65203807Y-89973260D01*
X65584760Y-88973260D02*
X66251426Y-88973260D01*
X65822855Y-89973260D01*
X67060950Y-89306594D02*
X67060950Y-89973260D01*
X66632379Y-89306594D02*
X66632379Y-89830403D01*
X66679998Y-89925641D01*
X66775236Y-89973260D01*
X66918093Y-89973260D01*
X67013331Y-89925641D01*
X67060950Y-89878022D01*
X67870474Y-89449451D02*
X67537140Y-89449451D01*
X67537140Y-89973260D02*
X67537140Y-88973260D01*
X68013331Y-88973260D01*
D13*
X65827617Y-91093737D02*
X65808569Y-91112784D01*
X65751426Y-91131832D01*
X65713331Y-91131832D01*
X65656188Y-91112784D01*
X65618093Y-91074689D01*
X65599045Y-91036594D01*
X65579998Y-90960403D01*
X65579998Y-90903260D01*
X65599045Y-90827070D01*
X65618093Y-90788975D01*
X65656188Y-90750880D01*
X65713331Y-90731832D01*
X65751426Y-90731832D01*
X65808569Y-90750880D01*
X65827617Y-90769927D01*
X66208569Y-91131832D02*
X65979998Y-91131832D01*
X66094283Y-91131832D02*
X66094283Y-90731832D01*
X66056188Y-90788975D01*
X66018093Y-90827070D01*
X65979998Y-90846118D01*
X66589521Y-91131832D02*
X66360950Y-91131832D01*
X66475236Y-91131832D02*
X66475236Y-90731832D01*
X66437140Y-90788975D01*
X66399045Y-90827070D01*
X66360950Y-90846118D01*
G04 #@! TO.C,C12*
D10*
X70954591Y-53296640D02*
X70383162Y-53296640D01*
X70668877Y-53296640D02*
X70668877Y-52296640D01*
X70573639Y-52439498D01*
X70478400Y-52534736D01*
X70383162Y-52582355D01*
X71573639Y-52296640D02*
X71668877Y-52296640D01*
X71764115Y-52344260D01*
X71811734Y-52391879D01*
X71859353Y-52487117D01*
X71906972Y-52677593D01*
X71906972Y-52915688D01*
X71859353Y-53106164D01*
X71811734Y-53201402D01*
X71764115Y-53249021D01*
X71668877Y-53296640D01*
X71573639Y-53296640D01*
X71478400Y-53249021D01*
X71430781Y-53201402D01*
X71383162Y-53106164D01*
X71335543Y-52915688D01*
X71335543Y-52677593D01*
X71383162Y-52487117D01*
X71430781Y-52391879D01*
X71478400Y-52344260D01*
X71573639Y-52296640D01*
X72764115Y-52629974D02*
X72764115Y-53296640D01*
X72335543Y-52629974D02*
X72335543Y-53153783D01*
X72383162Y-53249021D01*
X72478400Y-53296640D01*
X72621258Y-53296640D01*
X72716496Y-53249021D01*
X72764115Y-53201402D01*
X73573639Y-52772831D02*
X73240305Y-52772831D01*
X73240305Y-53296640D02*
X73240305Y-52296640D01*
X73716496Y-52296640D01*
D13*
X71768877Y-54417117D02*
X71749829Y-54436164D01*
X71692686Y-54455212D01*
X71654591Y-54455212D01*
X71597448Y-54436164D01*
X71559353Y-54398069D01*
X71540305Y-54359974D01*
X71521258Y-54283783D01*
X71521258Y-54226640D01*
X71540305Y-54150450D01*
X71559353Y-54112355D01*
X71597448Y-54074260D01*
X71654591Y-54055212D01*
X71692686Y-54055212D01*
X71749829Y-54074260D01*
X71768877Y-54093307D01*
X72149829Y-54455212D02*
X71921258Y-54455212D01*
X72035543Y-54455212D02*
X72035543Y-54055212D01*
X71997448Y-54112355D01*
X71959353Y-54150450D01*
X71921258Y-54169498D01*
X72302210Y-54093307D02*
X72321258Y-54074260D01*
X72359353Y-54055212D01*
X72454591Y-54055212D01*
X72492686Y-54074260D01*
X72511734Y-54093307D01*
X72530781Y-54131402D01*
X72530781Y-54169498D01*
X72511734Y-54226640D01*
X72283162Y-54455212D01*
X72530781Y-54455212D01*
G04 #@! TO.C,C13*
D10*
X72148980Y-51164928D02*
X72148980Y-51736357D01*
X72148980Y-51450642D02*
X71148980Y-51450642D01*
X71291838Y-51545880D01*
X71387076Y-51641119D01*
X71434695Y-51736357D01*
X71148980Y-50545880D02*
X71148980Y-50450642D01*
X71196600Y-50355404D01*
X71244219Y-50307785D01*
X71339457Y-50260166D01*
X71529933Y-50212547D01*
X71768028Y-50212547D01*
X71958504Y-50260166D01*
X72053742Y-50307785D01*
X72101361Y-50355404D01*
X72148980Y-50450642D01*
X72148980Y-50545880D01*
X72101361Y-50641119D01*
X72053742Y-50688738D01*
X71958504Y-50736357D01*
X71768028Y-50783976D01*
X71529933Y-50783976D01*
X71339457Y-50736357D01*
X71244219Y-50688738D01*
X71196600Y-50641119D01*
X71148980Y-50545880D01*
X71482314Y-49355404D02*
X72148980Y-49355404D01*
X71482314Y-49783976D02*
X72006123Y-49783976D01*
X72101361Y-49736357D01*
X72148980Y-49641119D01*
X72148980Y-49498261D01*
X72101361Y-49403023D01*
X72053742Y-49355404D01*
X71625171Y-48545880D02*
X71625171Y-48879214D01*
X72148980Y-48879214D02*
X71148980Y-48879214D01*
X71148980Y-48403023D01*
D13*
X73269457Y-50350642D02*
X73288504Y-50369690D01*
X73307552Y-50426833D01*
X73307552Y-50464928D01*
X73288504Y-50522071D01*
X73250409Y-50560166D01*
X73212314Y-50579214D01*
X73136123Y-50598261D01*
X73078980Y-50598261D01*
X73002790Y-50579214D01*
X72964695Y-50560166D01*
X72926600Y-50522071D01*
X72907552Y-50464928D01*
X72907552Y-50426833D01*
X72926600Y-50369690D01*
X72945647Y-50350642D01*
X73307552Y-49969690D02*
X73307552Y-50198261D01*
X73307552Y-50083976D02*
X72907552Y-50083976D01*
X72964695Y-50122071D01*
X73002790Y-50160166D01*
X73021838Y-50198261D01*
X72907552Y-49836357D02*
X72907552Y-49588738D01*
X73059933Y-49722071D01*
X73059933Y-49664928D01*
X73078980Y-49626833D01*
X73098028Y-49607785D01*
X73136123Y-49588738D01*
X73231361Y-49588738D01*
X73269457Y-49607785D01*
X73288504Y-49626833D01*
X73307552Y-49664928D01*
X73307552Y-49779214D01*
X73288504Y-49817309D01*
X73269457Y-49836357D01*
G04 #@! TO.C,C14*
D10*
X62824871Y-51378480D02*
X62253442Y-51378480D01*
X62539157Y-51378480D02*
X62539157Y-50378480D01*
X62443919Y-50521338D01*
X62348680Y-50616576D01*
X62253442Y-50664195D01*
X63443919Y-50378480D02*
X63539157Y-50378480D01*
X63634395Y-50426100D01*
X63682014Y-50473719D01*
X63729633Y-50568957D01*
X63777252Y-50759433D01*
X63777252Y-50997528D01*
X63729633Y-51188004D01*
X63682014Y-51283242D01*
X63634395Y-51330861D01*
X63539157Y-51378480D01*
X63443919Y-51378480D01*
X63348680Y-51330861D01*
X63301061Y-51283242D01*
X63253442Y-51188004D01*
X63205823Y-50997528D01*
X63205823Y-50759433D01*
X63253442Y-50568957D01*
X63301061Y-50473719D01*
X63348680Y-50426100D01*
X63443919Y-50378480D01*
X64634395Y-50711814D02*
X64634395Y-51378480D01*
X64205823Y-50711814D02*
X64205823Y-51235623D01*
X64253442Y-51330861D01*
X64348680Y-51378480D01*
X64491538Y-51378480D01*
X64586776Y-51330861D01*
X64634395Y-51283242D01*
X65443919Y-50854671D02*
X65110585Y-50854671D01*
X65110585Y-51378480D02*
X65110585Y-50378480D01*
X65586776Y-50378480D01*
D13*
X63639157Y-52498957D02*
X63620109Y-52518004D01*
X63562966Y-52537052D01*
X63524871Y-52537052D01*
X63467728Y-52518004D01*
X63429633Y-52479909D01*
X63410585Y-52441814D01*
X63391538Y-52365623D01*
X63391538Y-52308480D01*
X63410585Y-52232290D01*
X63429633Y-52194195D01*
X63467728Y-52156100D01*
X63524871Y-52137052D01*
X63562966Y-52137052D01*
X63620109Y-52156100D01*
X63639157Y-52175147D01*
X64020109Y-52537052D02*
X63791538Y-52537052D01*
X63905823Y-52537052D02*
X63905823Y-52137052D01*
X63867728Y-52194195D01*
X63829633Y-52232290D01*
X63791538Y-52251338D01*
X64362966Y-52270385D02*
X64362966Y-52537052D01*
X64267728Y-52118004D02*
X64172490Y-52403719D01*
X64420109Y-52403719D01*
G04 #@! TO.C,D3*
D10*
X76645948Y-52470540D02*
X76645948Y-51470540D01*
X77122139Y-52470540D02*
X77122139Y-51470540D01*
X77693567Y-52470540D01*
X77693567Y-51470540D01*
X78645948Y-51470540D02*
X78169758Y-51470540D01*
X78122139Y-51946731D01*
X78169758Y-51899112D01*
X78264996Y-51851493D01*
X78503091Y-51851493D01*
X78598329Y-51899112D01*
X78645948Y-51946731D01*
X78693567Y-52041969D01*
X78693567Y-52280064D01*
X78645948Y-52375302D01*
X78598329Y-52422921D01*
X78503091Y-52470540D01*
X78264996Y-52470540D01*
X78169758Y-52422921D01*
X78122139Y-52375302D01*
X79264996Y-51899112D02*
X79169758Y-51851493D01*
X79122139Y-51803874D01*
X79074520Y-51708636D01*
X79074520Y-51661017D01*
X79122139Y-51565779D01*
X79169758Y-51518160D01*
X79264996Y-51470540D01*
X79455472Y-51470540D01*
X79550710Y-51518160D01*
X79598329Y-51565779D01*
X79645948Y-51661017D01*
X79645948Y-51708636D01*
X79598329Y-51803874D01*
X79550710Y-51851493D01*
X79455472Y-51899112D01*
X79264996Y-51899112D01*
X79169758Y-51946731D01*
X79122139Y-51994350D01*
X79074520Y-52089588D01*
X79074520Y-52280064D01*
X79122139Y-52375302D01*
X79169758Y-52422921D01*
X79264996Y-52470540D01*
X79455472Y-52470540D01*
X79550710Y-52422921D01*
X79598329Y-52375302D01*
X79645948Y-52280064D01*
X79645948Y-52089588D01*
X79598329Y-51994350D01*
X79550710Y-51946731D01*
X79455472Y-51899112D01*
X80598329Y-52470540D02*
X80026900Y-52470540D01*
X80312615Y-52470540D02*
X80312615Y-51470540D01*
X80217377Y-51613398D01*
X80122139Y-51708636D01*
X80026900Y-51756255D01*
X81074520Y-52470540D02*
X81264996Y-52470540D01*
X81360234Y-52422921D01*
X81407853Y-52375302D01*
X81503091Y-52232445D01*
X81550710Y-52041969D01*
X81550710Y-51661017D01*
X81503091Y-51565779D01*
X81455472Y-51518160D01*
X81360234Y-51470540D01*
X81169758Y-51470540D01*
X81074520Y-51518160D01*
X81026900Y-51565779D01*
X80979281Y-51661017D01*
X80979281Y-51899112D01*
X81026900Y-51994350D01*
X81074520Y-52041969D01*
X81169758Y-52089588D01*
X81360234Y-52089588D01*
X81455472Y-52041969D01*
X81503091Y-51994350D01*
X81550710Y-51899112D01*
X78336424Y-48370540D02*
X78336424Y-47370540D01*
X78574520Y-47370540D01*
X78717377Y-47418160D01*
X78812615Y-47513398D01*
X78860234Y-47608636D01*
X78907853Y-47799112D01*
X78907853Y-47941969D01*
X78860234Y-48132445D01*
X78812615Y-48227683D01*
X78717377Y-48322921D01*
X78574520Y-48370540D01*
X78336424Y-48370540D01*
X79241186Y-47370540D02*
X79860234Y-47370540D01*
X79526900Y-47751493D01*
X79669758Y-47751493D01*
X79764996Y-47799112D01*
X79812615Y-47846731D01*
X79860234Y-47941969D01*
X79860234Y-48180064D01*
X79812615Y-48275302D01*
X79764996Y-48322921D01*
X79669758Y-48370540D01*
X79384043Y-48370540D01*
X79288805Y-48322921D01*
X79241186Y-48275302D01*
G04 #@! TO.C,R1*
X76481980Y-97165033D02*
X76481980Y-97736461D01*
X76481980Y-97450747D02*
X75481980Y-97450747D01*
X75624838Y-97545985D01*
X75720076Y-97641223D01*
X75767695Y-97736461D01*
X75481980Y-96545985D02*
X75481980Y-96450747D01*
X75529600Y-96355509D01*
X75577219Y-96307890D01*
X75672457Y-96260271D01*
X75862933Y-96212652D01*
X76101028Y-96212652D01*
X76291504Y-96260271D01*
X76386742Y-96307890D01*
X76434361Y-96355509D01*
X76481980Y-96450747D01*
X76481980Y-96545985D01*
X76434361Y-96641223D01*
X76386742Y-96688842D01*
X76291504Y-96736461D01*
X76101028Y-96784080D01*
X75862933Y-96784080D01*
X75672457Y-96736461D01*
X75577219Y-96688842D01*
X75529600Y-96641223D01*
X75481980Y-96545985D01*
X75481980Y-95593604D02*
X75481980Y-95498366D01*
X75529600Y-95403128D01*
X75577219Y-95355509D01*
X75672457Y-95307890D01*
X75862933Y-95260271D01*
X76101028Y-95260271D01*
X76291504Y-95307890D01*
X76386742Y-95355509D01*
X76434361Y-95403128D01*
X76481980Y-95498366D01*
X76481980Y-95593604D01*
X76434361Y-95688842D01*
X76386742Y-95736461D01*
X76291504Y-95784080D01*
X76101028Y-95831700D01*
X75862933Y-95831700D01*
X75672457Y-95784080D01*
X75577219Y-95736461D01*
X75529600Y-95688842D01*
X75481980Y-95593604D01*
X76481980Y-94831700D02*
X75481980Y-94831700D01*
X76481980Y-94260271D02*
X75910552Y-94688842D01*
X75481980Y-94260271D02*
X76053409Y-94831700D01*
X76101028Y-93831700D02*
X76101028Y-93069795D01*
X76481980Y-92069795D02*
X76481980Y-92641223D01*
X76481980Y-92355509D02*
X75481980Y-92355509D01*
X75624838Y-92450747D01*
X75720076Y-92545985D01*
X75767695Y-92641223D01*
X76481980Y-91688842D02*
X75481980Y-90926938D01*
X75481980Y-91545985D02*
X75529600Y-91450747D01*
X75624838Y-91403128D01*
X75720076Y-91450747D01*
X75767695Y-91545985D01*
X75720076Y-91641223D01*
X75624838Y-91688842D01*
X75529600Y-91641223D01*
X75481980Y-91545985D01*
X76434361Y-90974557D02*
X76339123Y-90926938D01*
X76243885Y-90974557D01*
X76196266Y-91069795D01*
X76243885Y-91165033D01*
X76339123Y-91212652D01*
X76434361Y-91165033D01*
X76481980Y-91069795D01*
X76434361Y-90974557D01*
D13*
X74780552Y-94398366D02*
X74590076Y-94531700D01*
X74780552Y-94626938D02*
X74380552Y-94626938D01*
X74380552Y-94474557D01*
X74399600Y-94436461D01*
X74418647Y-94417414D01*
X74456742Y-94398366D01*
X74513885Y-94398366D01*
X74551980Y-94417414D01*
X74571028Y-94436461D01*
X74590076Y-94474557D01*
X74590076Y-94626938D01*
X74780552Y-94017414D02*
X74780552Y-94245985D01*
X74780552Y-94131700D02*
X74380552Y-94131700D01*
X74437695Y-94169795D01*
X74475790Y-94207890D01*
X74494838Y-94245985D01*
G04 #@! TO.C,R2*
D10*
X76084338Y-84448319D02*
X76131957Y-84400700D01*
X76227195Y-84353080D01*
X76465290Y-84353080D01*
X76560528Y-84400700D01*
X76608147Y-84448319D01*
X76655766Y-84543557D01*
X76655766Y-84638795D01*
X76608147Y-84781652D01*
X76036719Y-85353080D01*
X76655766Y-85353080D01*
X77274814Y-84353080D02*
X77370052Y-84353080D01*
X77465290Y-84400700D01*
X77512909Y-84448319D01*
X77560528Y-84543557D01*
X77608147Y-84734033D01*
X77608147Y-84972128D01*
X77560528Y-85162604D01*
X77512909Y-85257842D01*
X77465290Y-85305461D01*
X77370052Y-85353080D01*
X77274814Y-85353080D01*
X77179576Y-85305461D01*
X77131957Y-85257842D01*
X77084338Y-85162604D01*
X77036719Y-84972128D01*
X77036719Y-84734033D01*
X77084338Y-84543557D01*
X77131957Y-84448319D01*
X77179576Y-84400700D01*
X77274814Y-84353080D01*
X78227195Y-84353080D02*
X78322433Y-84353080D01*
X78417671Y-84400700D01*
X78465290Y-84448319D01*
X78512909Y-84543557D01*
X78560528Y-84734033D01*
X78560528Y-84972128D01*
X78512909Y-85162604D01*
X78465290Y-85257842D01*
X78417671Y-85305461D01*
X78322433Y-85353080D01*
X78227195Y-85353080D01*
X78131957Y-85305461D01*
X78084338Y-85257842D01*
X78036719Y-85162604D01*
X77989100Y-84972128D01*
X77989100Y-84734033D01*
X78036719Y-84543557D01*
X78084338Y-84448319D01*
X78131957Y-84400700D01*
X78227195Y-84353080D01*
X78989100Y-85353080D02*
X78989100Y-84353080D01*
X79560528Y-85353080D02*
X79131957Y-84781652D01*
X79560528Y-84353080D02*
X78989100Y-84924509D01*
X79989100Y-84972128D02*
X80751004Y-84972128D01*
X81751004Y-85353080D02*
X81179576Y-85353080D01*
X81465290Y-85353080D02*
X81465290Y-84353080D01*
X81370052Y-84495938D01*
X81274814Y-84591176D01*
X81179576Y-84638795D01*
X82131957Y-85353080D02*
X82893861Y-84353080D01*
X82274814Y-84353080D02*
X82370052Y-84400700D01*
X82417671Y-84495938D01*
X82370052Y-84591176D01*
X82274814Y-84638795D01*
X82179576Y-84591176D01*
X82131957Y-84495938D01*
X82179576Y-84400700D01*
X82274814Y-84353080D01*
X82846242Y-85305461D02*
X82893861Y-85210223D01*
X82846242Y-85114985D01*
X82751004Y-85067366D01*
X82655766Y-85114985D01*
X82608147Y-85210223D01*
X82655766Y-85305461D01*
X82751004Y-85353080D01*
X82846242Y-85305461D01*
D13*
X79422433Y-86511652D02*
X79289100Y-86321176D01*
X79193861Y-86511652D02*
X79193861Y-86111652D01*
X79346242Y-86111652D01*
X79384338Y-86130700D01*
X79403385Y-86149747D01*
X79422433Y-86187842D01*
X79422433Y-86244985D01*
X79403385Y-86283080D01*
X79384338Y-86302128D01*
X79346242Y-86321176D01*
X79193861Y-86321176D01*
X79574814Y-86149747D02*
X79593861Y-86130700D01*
X79631957Y-86111652D01*
X79727195Y-86111652D01*
X79765290Y-86130700D01*
X79784338Y-86149747D01*
X79803385Y-86187842D01*
X79803385Y-86225938D01*
X79784338Y-86283080D01*
X79555766Y-86511652D01*
X79803385Y-86511652D01*
G04 #@! TO.C,R3*
D10*
X73937719Y-97748461D02*
X73890100Y-97700842D01*
X73842480Y-97605604D01*
X73842480Y-97367509D01*
X73890100Y-97272271D01*
X73937719Y-97224652D01*
X74032957Y-97177033D01*
X74128195Y-97177033D01*
X74271052Y-97224652D01*
X74842480Y-97796080D01*
X74842480Y-97177033D01*
X73842480Y-96557985D02*
X73842480Y-96462747D01*
X73890100Y-96367509D01*
X73937719Y-96319890D01*
X74032957Y-96272271D01*
X74223433Y-96224652D01*
X74461528Y-96224652D01*
X74652004Y-96272271D01*
X74747242Y-96319890D01*
X74794861Y-96367509D01*
X74842480Y-96462747D01*
X74842480Y-96557985D01*
X74794861Y-96653223D01*
X74747242Y-96700842D01*
X74652004Y-96748461D01*
X74461528Y-96796080D01*
X74223433Y-96796080D01*
X74032957Y-96748461D01*
X73937719Y-96700842D01*
X73890100Y-96653223D01*
X73842480Y-96557985D01*
X73842480Y-95605604D02*
X73842480Y-95510366D01*
X73890100Y-95415128D01*
X73937719Y-95367509D01*
X74032957Y-95319890D01*
X74223433Y-95272271D01*
X74461528Y-95272271D01*
X74652004Y-95319890D01*
X74747242Y-95367509D01*
X74794861Y-95415128D01*
X74842480Y-95510366D01*
X74842480Y-95605604D01*
X74794861Y-95700842D01*
X74747242Y-95748461D01*
X74652004Y-95796080D01*
X74461528Y-95843700D01*
X74223433Y-95843700D01*
X74032957Y-95796080D01*
X73937719Y-95748461D01*
X73890100Y-95700842D01*
X73842480Y-95605604D01*
X74842480Y-94843700D02*
X73842480Y-94843700D01*
X74842480Y-94272271D02*
X74271052Y-94700842D01*
X73842480Y-94272271D02*
X74413909Y-94843700D01*
X74461528Y-93843700D02*
X74461528Y-93081795D01*
X74842480Y-92081795D02*
X74842480Y-92653223D01*
X74842480Y-92367509D02*
X73842480Y-92367509D01*
X73985338Y-92462747D01*
X74080576Y-92557985D01*
X74128195Y-92653223D01*
X74842480Y-91700842D02*
X73842480Y-90938938D01*
X73842480Y-91557985D02*
X73890100Y-91462747D01*
X73985338Y-91415128D01*
X74080576Y-91462747D01*
X74128195Y-91557985D01*
X74080576Y-91653223D01*
X73985338Y-91700842D01*
X73890100Y-91653223D01*
X73842480Y-91557985D01*
X74794861Y-90986557D02*
X74699623Y-90938938D01*
X74604385Y-90986557D01*
X74556766Y-91081795D01*
X74604385Y-91177033D01*
X74699623Y-91224652D01*
X74794861Y-91177033D01*
X74842480Y-91081795D01*
X74794861Y-90986557D01*
D13*
X73141052Y-94410366D02*
X72950576Y-94543700D01*
X73141052Y-94638938D02*
X72741052Y-94638938D01*
X72741052Y-94486557D01*
X72760100Y-94448461D01*
X72779147Y-94429414D01*
X72817242Y-94410366D01*
X72874385Y-94410366D01*
X72912480Y-94429414D01*
X72931528Y-94448461D01*
X72950576Y-94486557D01*
X72950576Y-94638938D01*
X72741052Y-94277033D02*
X72741052Y-94029414D01*
X72893433Y-94162747D01*
X72893433Y-94105604D01*
X72912480Y-94067509D01*
X72931528Y-94048461D01*
X72969623Y-94029414D01*
X73064861Y-94029414D01*
X73102957Y-94048461D01*
X73122004Y-94067509D01*
X73141052Y-94105604D01*
X73141052Y-94219890D01*
X73122004Y-94257985D01*
X73102957Y-94277033D01*
G04 #@! TO.C,R4*
D10*
X50403928Y-109897619D02*
X50451547Y-109850000D01*
X50546785Y-109802380D01*
X50784880Y-109802380D01*
X50880119Y-109850000D01*
X50927738Y-109897619D01*
X50975357Y-109992857D01*
X50975357Y-110088095D01*
X50927738Y-110230952D01*
X50356309Y-110802380D01*
X50975357Y-110802380D01*
X51832500Y-110135714D02*
X51832500Y-110802380D01*
X51594404Y-109754761D02*
X51356309Y-110469047D01*
X51975357Y-110469047D01*
X52356309Y-110802380D02*
X52356309Y-109802380D01*
X52927738Y-110802380D02*
X52499166Y-110230952D01*
X52927738Y-109802380D02*
X52356309Y-110373809D01*
X53356309Y-110421428D02*
X54118214Y-110421428D01*
X55118214Y-110802380D02*
X54546785Y-110802380D01*
X54832500Y-110802380D02*
X54832500Y-109802380D01*
X54737261Y-109945238D01*
X54642023Y-110040476D01*
X54546785Y-110088095D01*
X55499166Y-110802380D02*
X56261071Y-109802380D01*
X55642023Y-109802380D02*
X55737261Y-109850000D01*
X55784880Y-109945238D01*
X55737261Y-110040476D01*
X55642023Y-110088095D01*
X55546785Y-110040476D01*
X55499166Y-109945238D01*
X55546785Y-109850000D01*
X55642023Y-109802380D01*
X56213452Y-110754761D02*
X56261071Y-110659523D01*
X56213452Y-110564285D01*
X56118214Y-110516666D01*
X56022976Y-110564285D01*
X55975357Y-110659523D01*
X56022976Y-110754761D01*
X56118214Y-110802380D01*
X56213452Y-110754761D01*
D13*
X53265833Y-109100952D02*
X53132500Y-108910476D01*
X53037261Y-109100952D02*
X53037261Y-108700952D01*
X53189642Y-108700952D01*
X53227738Y-108720000D01*
X53246785Y-108739047D01*
X53265833Y-108777142D01*
X53265833Y-108834285D01*
X53246785Y-108872380D01*
X53227738Y-108891428D01*
X53189642Y-108910476D01*
X53037261Y-108910476D01*
X53608690Y-108834285D02*
X53608690Y-109100952D01*
X53513452Y-108681904D02*
X53418214Y-108967619D01*
X53665833Y-108967619D01*
G04 #@! TO.C,R5*
D10*
X68627320Y-88389420D02*
X68627320Y-88294181D01*
X68674940Y-88198943D01*
X68722559Y-88151324D01*
X68817797Y-88103705D01*
X69008273Y-88056086D01*
X69246368Y-88056086D01*
X69436844Y-88103705D01*
X69532082Y-88151324D01*
X69579701Y-88198943D01*
X69627320Y-88294181D01*
X69627320Y-88389420D01*
X69579701Y-88484658D01*
X69532082Y-88532277D01*
X69436844Y-88579896D01*
X69246368Y-88627515D01*
X69008273Y-88627515D01*
X68817797Y-88579896D01*
X68722559Y-88532277D01*
X68674940Y-88484658D01*
X68627320Y-88389420D01*
X69627320Y-87056086D02*
X69151130Y-87389420D01*
X69627320Y-87627515D02*
X68627320Y-87627515D01*
X68627320Y-87246562D01*
X68674940Y-87151324D01*
X68722559Y-87103705D01*
X68817797Y-87056086D01*
X68960654Y-87056086D01*
X69055892Y-87103705D01*
X69103511Y-87151324D01*
X69151130Y-87246562D01*
X69151130Y-87627515D01*
X68627320Y-86437039D02*
X68627320Y-86341800D01*
X68674940Y-86246562D01*
X68722559Y-86198943D01*
X68817797Y-86151324D01*
X69008273Y-86103705D01*
X69246368Y-86103705D01*
X69436844Y-86151324D01*
X69532082Y-86198943D01*
X69579701Y-86246562D01*
X69627320Y-86341800D01*
X69627320Y-86437039D01*
X69579701Y-86532277D01*
X69532082Y-86579896D01*
X69436844Y-86627515D01*
X69246368Y-86675134D01*
X69008273Y-86675134D01*
X68817797Y-86627515D01*
X68722559Y-86579896D01*
X68674940Y-86532277D01*
X68627320Y-86437039D01*
X68627320Y-85770372D02*
X68627320Y-85151324D01*
X69008273Y-85484658D01*
X69008273Y-85341800D01*
X69055892Y-85246562D01*
X69103511Y-85198943D01*
X69198749Y-85151324D01*
X69436844Y-85151324D01*
X69532082Y-85198943D01*
X69579701Y-85246562D01*
X69627320Y-85341800D01*
X69627320Y-85627515D01*
X69579701Y-85722753D01*
X69532082Y-85770372D01*
D14*
X67751130Y-86972753D02*
X67513035Y-87139420D01*
X67751130Y-87258467D02*
X67251130Y-87258467D01*
X67251130Y-87067991D01*
X67274940Y-87020372D01*
X67298749Y-86996562D01*
X67346368Y-86972753D01*
X67417797Y-86972753D01*
X67465416Y-86996562D01*
X67489225Y-87020372D01*
X67513035Y-87067991D01*
X67513035Y-87258467D01*
X67251130Y-86520372D02*
X67251130Y-86758467D01*
X67489225Y-86782277D01*
X67465416Y-86758467D01*
X67441606Y-86710848D01*
X67441606Y-86591800D01*
X67465416Y-86544181D01*
X67489225Y-86520372D01*
X67536844Y-86496562D01*
X67655892Y-86496562D01*
X67703511Y-86520372D01*
X67727320Y-86544181D01*
X67751130Y-86591800D01*
X67751130Y-86710848D01*
X67727320Y-86758467D01*
X67703511Y-86782277D01*
G04 #@! TO.C,R7*
D10*
X76060019Y-53523661D02*
X76012400Y-53476042D01*
X75964780Y-53380804D01*
X75964780Y-53142709D01*
X76012400Y-53047471D01*
X76060019Y-52999852D01*
X76155257Y-52952233D01*
X76250495Y-52952233D01*
X76393352Y-52999852D01*
X76964780Y-53571280D01*
X76964780Y-52952233D01*
X75964780Y-52333185D02*
X75964780Y-52237947D01*
X76012400Y-52142709D01*
X76060019Y-52095090D01*
X76155257Y-52047471D01*
X76345733Y-51999852D01*
X76583828Y-51999852D01*
X76774304Y-52047471D01*
X76869542Y-52095090D01*
X76917161Y-52142709D01*
X76964780Y-52237947D01*
X76964780Y-52333185D01*
X76917161Y-52428423D01*
X76869542Y-52476042D01*
X76774304Y-52523661D01*
X76583828Y-52571280D01*
X76345733Y-52571280D01*
X76155257Y-52523661D01*
X76060019Y-52476042D01*
X76012400Y-52428423D01*
X75964780Y-52333185D01*
X75964780Y-51380804D02*
X75964780Y-51285566D01*
X76012400Y-51190328D01*
X76060019Y-51142709D01*
X76155257Y-51095090D01*
X76345733Y-51047471D01*
X76583828Y-51047471D01*
X76774304Y-51095090D01*
X76869542Y-51142709D01*
X76917161Y-51190328D01*
X76964780Y-51285566D01*
X76964780Y-51380804D01*
X76917161Y-51476042D01*
X76869542Y-51523661D01*
X76774304Y-51571280D01*
X76583828Y-51618900D01*
X76345733Y-51618900D01*
X76155257Y-51571280D01*
X76060019Y-51523661D01*
X76012400Y-51476042D01*
X75964780Y-51380804D01*
X76964780Y-50618900D02*
X75964780Y-50618900D01*
X76964780Y-50047471D02*
X76393352Y-50476042D01*
X75964780Y-50047471D02*
X76536209Y-50618900D01*
X76583828Y-49618900D02*
X76583828Y-48856995D01*
X76964780Y-47856995D02*
X76964780Y-48428423D01*
X76964780Y-48142709D02*
X75964780Y-48142709D01*
X76107638Y-48237947D01*
X76202876Y-48333185D01*
X76250495Y-48428423D01*
X76964780Y-47476042D02*
X75964780Y-46714138D01*
X75964780Y-47333185D02*
X76012400Y-47237947D01*
X76107638Y-47190328D01*
X76202876Y-47237947D01*
X76250495Y-47333185D01*
X76202876Y-47428423D01*
X76107638Y-47476042D01*
X76012400Y-47428423D01*
X75964780Y-47333185D01*
X76917161Y-46761757D02*
X76821923Y-46714138D01*
X76726685Y-46761757D01*
X76679066Y-46856995D01*
X76726685Y-46952233D01*
X76821923Y-46999852D01*
X76917161Y-46952233D01*
X76964780Y-46856995D01*
X76917161Y-46761757D01*
D13*
X75263352Y-50185566D02*
X75072876Y-50318900D01*
X75263352Y-50414138D02*
X74863352Y-50414138D01*
X74863352Y-50261757D01*
X74882400Y-50223661D01*
X74901447Y-50204614D01*
X74939542Y-50185566D01*
X74996685Y-50185566D01*
X75034780Y-50204614D01*
X75053828Y-50223661D01*
X75072876Y-50261757D01*
X75072876Y-50414138D01*
X74863352Y-50052233D02*
X74863352Y-49785566D01*
X75263352Y-49956995D01*
G04 #@! TO.C,R8*
D10*
X69364148Y-53435779D02*
X69411767Y-53388160D01*
X69507005Y-53340540D01*
X69745100Y-53340540D01*
X69840339Y-53388160D01*
X69887958Y-53435779D01*
X69935577Y-53531017D01*
X69935577Y-53626255D01*
X69887958Y-53769112D01*
X69316529Y-54340540D01*
X69935577Y-54340540D01*
X70792720Y-53673874D02*
X70792720Y-54340540D01*
X70554624Y-53292921D02*
X70316529Y-54007207D01*
X70935577Y-54007207D01*
X71316529Y-54340540D02*
X71316529Y-53340540D01*
X71887958Y-54340540D02*
X71459386Y-53769112D01*
X71887958Y-53340540D02*
X71316529Y-53911969D01*
X72316529Y-53959588D02*
X73078434Y-53959588D01*
X74078434Y-54340540D02*
X73507005Y-54340540D01*
X73792720Y-54340540D02*
X73792720Y-53340540D01*
X73697481Y-53483398D01*
X73602243Y-53578636D01*
X73507005Y-53626255D01*
X74459386Y-54340540D02*
X75221291Y-53340540D01*
X74602243Y-53340540D02*
X74697481Y-53388160D01*
X74745100Y-53483398D01*
X74697481Y-53578636D01*
X74602243Y-53626255D01*
X74507005Y-53578636D01*
X74459386Y-53483398D01*
X74507005Y-53388160D01*
X74602243Y-53340540D01*
X75173672Y-54292921D02*
X75221291Y-54197683D01*
X75173672Y-54102445D01*
X75078434Y-54054826D01*
X74983196Y-54102445D01*
X74935577Y-54197683D01*
X74983196Y-54292921D01*
X75078434Y-54340540D01*
X75173672Y-54292921D01*
D13*
X72226053Y-52639112D02*
X72092720Y-52448636D01*
X71997481Y-52639112D02*
X71997481Y-52239112D01*
X72149862Y-52239112D01*
X72187958Y-52258160D01*
X72207005Y-52277207D01*
X72226053Y-52315302D01*
X72226053Y-52372445D01*
X72207005Y-52410540D01*
X72187958Y-52429588D01*
X72149862Y-52448636D01*
X71997481Y-52448636D01*
X72454624Y-52410540D02*
X72416529Y-52391493D01*
X72397481Y-52372445D01*
X72378434Y-52334350D01*
X72378434Y-52315302D01*
X72397481Y-52277207D01*
X72416529Y-52258160D01*
X72454624Y-52239112D01*
X72530815Y-52239112D01*
X72568910Y-52258160D01*
X72587958Y-52277207D01*
X72607005Y-52315302D01*
X72607005Y-52334350D01*
X72587958Y-52372445D01*
X72568910Y-52391493D01*
X72530815Y-52410540D01*
X72454624Y-52410540D01*
X72416529Y-52429588D01*
X72397481Y-52448636D01*
X72378434Y-52486731D01*
X72378434Y-52562921D01*
X72397481Y-52601017D01*
X72416529Y-52620064D01*
X72454624Y-52639112D01*
X72530815Y-52639112D01*
X72568910Y-52620064D01*
X72587958Y-52601017D01*
X72607005Y-52562921D01*
X72607005Y-52486731D01*
X72587958Y-52448636D01*
X72568910Y-52429588D01*
X72530815Y-52410540D01*
G04 #@! TO.C,R9*
D10*
X60720114Y-54902180D02*
X61339161Y-54902180D01*
X61005828Y-55283133D01*
X61148685Y-55283133D01*
X61243923Y-55330752D01*
X61291542Y-55378371D01*
X61339161Y-55473609D01*
X61339161Y-55711704D01*
X61291542Y-55806942D01*
X61243923Y-55854561D01*
X61148685Y-55902180D01*
X60862971Y-55902180D01*
X60767733Y-55854561D01*
X60720114Y-55806942D01*
X61767733Y-55806942D02*
X61815352Y-55854561D01*
X61767733Y-55902180D01*
X61720114Y-55854561D01*
X61767733Y-55806942D01*
X61767733Y-55902180D01*
X62672495Y-54902180D02*
X62482019Y-54902180D01*
X62386780Y-54949800D01*
X62339161Y-54997419D01*
X62243923Y-55140276D01*
X62196304Y-55330752D01*
X62196304Y-55711704D01*
X62243923Y-55806942D01*
X62291542Y-55854561D01*
X62386780Y-55902180D01*
X62577257Y-55902180D01*
X62672495Y-55854561D01*
X62720114Y-55806942D01*
X62767733Y-55711704D01*
X62767733Y-55473609D01*
X62720114Y-55378371D01*
X62672495Y-55330752D01*
X62577257Y-55283133D01*
X62386780Y-55283133D01*
X62291542Y-55330752D01*
X62243923Y-55378371D01*
X62196304Y-55473609D01*
X63196304Y-55902180D02*
X63196304Y-54902180D01*
X63767733Y-55902180D02*
X63339161Y-55330752D01*
X63767733Y-54902180D02*
X63196304Y-55473609D01*
X64196304Y-55521228D02*
X64958209Y-55521228D01*
X65958209Y-55902180D02*
X65386780Y-55902180D01*
X65672495Y-55902180D02*
X65672495Y-54902180D01*
X65577257Y-55045038D01*
X65482019Y-55140276D01*
X65386780Y-55187895D01*
X66339161Y-55902180D02*
X67101066Y-54902180D01*
X66482019Y-54902180D02*
X66577257Y-54949800D01*
X66624876Y-55045038D01*
X66577257Y-55140276D01*
X66482019Y-55187895D01*
X66386780Y-55140276D01*
X66339161Y-55045038D01*
X66386780Y-54949800D01*
X66482019Y-54902180D01*
X67053447Y-55854561D02*
X67101066Y-55759323D01*
X67053447Y-55664085D01*
X66958209Y-55616466D01*
X66862971Y-55664085D01*
X66815352Y-55759323D01*
X66862971Y-55854561D01*
X66958209Y-55902180D01*
X67053447Y-55854561D01*
D13*
X64115352Y-54086466D02*
X63924876Y-54219800D01*
X64115352Y-54315038D02*
X63715352Y-54315038D01*
X63715352Y-54162657D01*
X63734400Y-54124561D01*
X63753447Y-54105514D01*
X63791542Y-54086466D01*
X63848685Y-54086466D01*
X63886780Y-54105514D01*
X63905828Y-54124561D01*
X63924876Y-54162657D01*
X63924876Y-54315038D01*
X64115352Y-53895990D02*
X64115352Y-53819800D01*
X64096304Y-53781704D01*
X64077257Y-53762657D01*
X64020114Y-53724561D01*
X63943923Y-53705514D01*
X63791542Y-53705514D01*
X63753447Y-53724561D01*
X63734400Y-53743609D01*
X63715352Y-53781704D01*
X63715352Y-53857895D01*
X63734400Y-53895990D01*
X63753447Y-53915038D01*
X63791542Y-53934085D01*
X63886780Y-53934085D01*
X63924876Y-53915038D01*
X63943923Y-53895990D01*
X63962971Y-53857895D01*
X63962971Y-53781704D01*
X63943923Y-53743609D01*
X63924876Y-53724561D01*
X63886780Y-53705514D01*
G04 #@! TO.C,R10*
D10*
X64898366Y-57629380D02*
X64326938Y-57629380D01*
X64612652Y-57629380D02*
X64612652Y-56629380D01*
X64517414Y-56772238D01*
X64422176Y-56867476D01*
X64326938Y-56915095D01*
X65517414Y-56629380D02*
X65612652Y-56629380D01*
X65707890Y-56677000D01*
X65755509Y-56724619D01*
X65803128Y-56819857D01*
X65850747Y-57010333D01*
X65850747Y-57248428D01*
X65803128Y-57438904D01*
X65755509Y-57534142D01*
X65707890Y-57581761D01*
X65612652Y-57629380D01*
X65517414Y-57629380D01*
X65422176Y-57581761D01*
X65374557Y-57534142D01*
X65326938Y-57438904D01*
X65279319Y-57248428D01*
X65279319Y-57010333D01*
X65326938Y-56819857D01*
X65374557Y-56724619D01*
X65422176Y-56677000D01*
X65517414Y-56629380D01*
X66469795Y-56629380D02*
X66565033Y-56629380D01*
X66660271Y-56677000D01*
X66707890Y-56724619D01*
X66755509Y-56819857D01*
X66803128Y-57010333D01*
X66803128Y-57248428D01*
X66755509Y-57438904D01*
X66707890Y-57534142D01*
X66660271Y-57581761D01*
X66565033Y-57629380D01*
X66469795Y-57629380D01*
X66374557Y-57581761D01*
X66326938Y-57534142D01*
X66279319Y-57438904D01*
X66231700Y-57248428D01*
X66231700Y-57010333D01*
X66279319Y-56819857D01*
X66326938Y-56724619D01*
X66374557Y-56677000D01*
X66469795Y-56629380D01*
X67231700Y-57629380D02*
X67231700Y-56629380D01*
X67803128Y-57629380D02*
X67374557Y-57057952D01*
X67803128Y-56629380D02*
X67231700Y-57200809D01*
X68231700Y-57248428D02*
X68993604Y-57248428D01*
X69993604Y-57629380D02*
X69422176Y-57629380D01*
X69707890Y-57629380D02*
X69707890Y-56629380D01*
X69612652Y-56772238D01*
X69517414Y-56867476D01*
X69422176Y-56915095D01*
X70374557Y-57629380D02*
X71136461Y-56629380D01*
X70517414Y-56629380D02*
X70612652Y-56677000D01*
X70660271Y-56772238D01*
X70612652Y-56867476D01*
X70517414Y-56915095D01*
X70422176Y-56867476D01*
X70374557Y-56772238D01*
X70422176Y-56677000D01*
X70517414Y-56629380D01*
X71088842Y-57581761D02*
X71136461Y-57486523D01*
X71088842Y-57391285D01*
X70993604Y-57343666D01*
X70898366Y-57391285D01*
X70850747Y-57486523D01*
X70898366Y-57581761D01*
X70993604Y-57629380D01*
X71088842Y-57581761D01*
D13*
X67576157Y-55826352D02*
X67442823Y-55635876D01*
X67347585Y-55826352D02*
X67347585Y-55426352D01*
X67499966Y-55426352D01*
X67538061Y-55445400D01*
X67557109Y-55464447D01*
X67576157Y-55502542D01*
X67576157Y-55559685D01*
X67557109Y-55597780D01*
X67538061Y-55616828D01*
X67499966Y-55635876D01*
X67347585Y-55635876D01*
X67957109Y-55826352D02*
X67728538Y-55826352D01*
X67842823Y-55826352D02*
X67842823Y-55426352D01*
X67804728Y-55483495D01*
X67766633Y-55521590D01*
X67728538Y-55540638D01*
X68204728Y-55426352D02*
X68242823Y-55426352D01*
X68280919Y-55445400D01*
X68299966Y-55464447D01*
X68319014Y-55502542D01*
X68338061Y-55578733D01*
X68338061Y-55673971D01*
X68319014Y-55750161D01*
X68299966Y-55788257D01*
X68280919Y-55807304D01*
X68242823Y-55826352D01*
X68204728Y-55826352D01*
X68166633Y-55807304D01*
X68147585Y-55788257D01*
X68128538Y-55750161D01*
X68109490Y-55673971D01*
X68109490Y-55578733D01*
X68128538Y-55502542D01*
X68147585Y-55464447D01*
X68166633Y-55445400D01*
X68204728Y-55426352D01*
G04 #@! TO.C,R11*
D10*
X91999523Y-66492380D02*
X91428095Y-66492380D01*
X91713809Y-66492380D02*
X91713809Y-65492380D01*
X91618571Y-65635238D01*
X91523333Y-65730476D01*
X91428095Y-65778095D01*
X92618571Y-65492380D02*
X92713809Y-65492380D01*
X92809047Y-65540000D01*
X92856666Y-65587619D01*
X92904285Y-65682857D01*
X92951904Y-65873333D01*
X92951904Y-66111428D01*
X92904285Y-66301904D01*
X92856666Y-66397142D01*
X92809047Y-66444761D01*
X92713809Y-66492380D01*
X92618571Y-66492380D01*
X92523333Y-66444761D01*
X92475714Y-66397142D01*
X92428095Y-66301904D01*
X92380476Y-66111428D01*
X92380476Y-65873333D01*
X92428095Y-65682857D01*
X92475714Y-65587619D01*
X92523333Y-65540000D01*
X92618571Y-65492380D01*
X93380476Y-66492380D02*
X93380476Y-65492380D01*
X93951904Y-66492380D02*
X93523333Y-65920952D01*
X93951904Y-65492380D02*
X93380476Y-66063809D01*
D13*
X92432857Y-67650952D02*
X92299523Y-67460476D01*
X92204285Y-67650952D02*
X92204285Y-67250952D01*
X92356666Y-67250952D01*
X92394761Y-67270000D01*
X92413809Y-67289047D01*
X92432857Y-67327142D01*
X92432857Y-67384285D01*
X92413809Y-67422380D01*
X92394761Y-67441428D01*
X92356666Y-67460476D01*
X92204285Y-67460476D01*
X92813809Y-67650952D02*
X92585238Y-67650952D01*
X92699523Y-67650952D02*
X92699523Y-67250952D01*
X92661428Y-67308095D01*
X92623333Y-67346190D01*
X92585238Y-67365238D01*
X93194761Y-67650952D02*
X92966190Y-67650952D01*
X93080476Y-67650952D02*
X93080476Y-67250952D01*
X93042380Y-67308095D01*
X93004285Y-67346190D01*
X92966190Y-67365238D01*
G04 #@! TO.C,R12*
D10*
X92259523Y-74792380D02*
X91688095Y-74792380D01*
X91973809Y-74792380D02*
X91973809Y-73792380D01*
X91878571Y-73935238D01*
X91783333Y-74030476D01*
X91688095Y-74078095D01*
X92878571Y-73792380D02*
X92973809Y-73792380D01*
X93069047Y-73840000D01*
X93116666Y-73887619D01*
X93164285Y-73982857D01*
X93211904Y-74173333D01*
X93211904Y-74411428D01*
X93164285Y-74601904D01*
X93116666Y-74697142D01*
X93069047Y-74744761D01*
X92973809Y-74792380D01*
X92878571Y-74792380D01*
X92783333Y-74744761D01*
X92735714Y-74697142D01*
X92688095Y-74601904D01*
X92640476Y-74411428D01*
X92640476Y-74173333D01*
X92688095Y-73982857D01*
X92735714Y-73887619D01*
X92783333Y-73840000D01*
X92878571Y-73792380D01*
X93640476Y-74792380D02*
X93640476Y-73792380D01*
X94211904Y-74792380D02*
X93783333Y-74220952D01*
X94211904Y-73792380D02*
X93640476Y-74363809D01*
D13*
X92692857Y-75950952D02*
X92559523Y-75760476D01*
X92464285Y-75950952D02*
X92464285Y-75550952D01*
X92616666Y-75550952D01*
X92654761Y-75570000D01*
X92673809Y-75589047D01*
X92692857Y-75627142D01*
X92692857Y-75684285D01*
X92673809Y-75722380D01*
X92654761Y-75741428D01*
X92616666Y-75760476D01*
X92464285Y-75760476D01*
X93073809Y-75950952D02*
X92845238Y-75950952D01*
X92959523Y-75950952D02*
X92959523Y-75550952D01*
X92921428Y-75608095D01*
X92883333Y-75646190D01*
X92845238Y-75665238D01*
X93226190Y-75589047D02*
X93245238Y-75570000D01*
X93283333Y-75550952D01*
X93378571Y-75550952D01*
X93416666Y-75570000D01*
X93435714Y-75589047D01*
X93454761Y-75627142D01*
X93454761Y-75665238D01*
X93435714Y-75722380D01*
X93207142Y-75950952D01*
X93454761Y-75950952D01*
G04 #@! TO.C,R13*
D10*
X91752974Y-58765780D02*
X91181545Y-58765780D01*
X91467260Y-58765780D02*
X91467260Y-57765780D01*
X91372021Y-57908638D01*
X91276783Y-58003876D01*
X91181545Y-58051495D01*
X92181545Y-58765780D02*
X92181545Y-57765780D01*
X92752974Y-58765780D02*
X92324402Y-58194352D01*
X92752974Y-57765780D02*
X92181545Y-58337209D01*
D13*
X91710117Y-59924352D02*
X91576783Y-59733876D01*
X91481545Y-59924352D02*
X91481545Y-59524352D01*
X91633926Y-59524352D01*
X91672021Y-59543400D01*
X91691069Y-59562447D01*
X91710117Y-59600542D01*
X91710117Y-59657685D01*
X91691069Y-59695780D01*
X91672021Y-59714828D01*
X91633926Y-59733876D01*
X91481545Y-59733876D01*
X92091069Y-59924352D02*
X91862498Y-59924352D01*
X91976783Y-59924352D02*
X91976783Y-59524352D01*
X91938688Y-59581495D01*
X91900593Y-59619590D01*
X91862498Y-59638638D01*
X92224402Y-59524352D02*
X92472021Y-59524352D01*
X92338688Y-59676733D01*
X92395831Y-59676733D01*
X92433926Y-59695780D01*
X92452974Y-59714828D01*
X92472021Y-59752923D01*
X92472021Y-59848161D01*
X92452974Y-59886257D01*
X92433926Y-59905304D01*
X92395831Y-59924352D01*
X92281545Y-59924352D01*
X92243450Y-59905304D01*
X92224402Y-59886257D01*
G04 #@! TO.C,R14*
D10*
X91793614Y-64844000D02*
X91222185Y-64844000D01*
X91507900Y-64844000D02*
X91507900Y-63844000D01*
X91412661Y-63986858D01*
X91317423Y-64082096D01*
X91222185Y-64129715D01*
X92222185Y-64844000D02*
X92222185Y-63844000D01*
X92793614Y-64844000D02*
X92365042Y-64272572D01*
X92793614Y-63844000D02*
X92222185Y-64415429D01*
D13*
X91750757Y-66002572D02*
X91617423Y-65812096D01*
X91522185Y-66002572D02*
X91522185Y-65602572D01*
X91674566Y-65602572D01*
X91712661Y-65621620D01*
X91731709Y-65640667D01*
X91750757Y-65678762D01*
X91750757Y-65735905D01*
X91731709Y-65774000D01*
X91712661Y-65793048D01*
X91674566Y-65812096D01*
X91522185Y-65812096D01*
X92131709Y-66002572D02*
X91903138Y-66002572D01*
X92017423Y-66002572D02*
X92017423Y-65602572D01*
X91979328Y-65659715D01*
X91941233Y-65697810D01*
X91903138Y-65716858D01*
X92474566Y-65735905D02*
X92474566Y-66002572D01*
X92379328Y-65583524D02*
X92284090Y-65869239D01*
X92531709Y-65869239D01*
G04 #@! TO.C,C15*
D10*
X62056533Y-58449314D02*
X62056533Y-59115980D01*
X61818438Y-58068361D02*
X61580342Y-58782647D01*
X62199390Y-58782647D01*
X62485104Y-58115980D02*
X63151771Y-58115980D01*
X62723200Y-59115980D01*
X63961295Y-58449314D02*
X63961295Y-59115980D01*
X63532723Y-58449314D02*
X63532723Y-58973123D01*
X63580342Y-59068361D01*
X63675580Y-59115980D01*
X63818438Y-59115980D01*
X63913676Y-59068361D01*
X63961295Y-59020742D01*
X64770819Y-58592171D02*
X64437485Y-58592171D01*
X64437485Y-59115980D02*
X64437485Y-58115980D01*
X64913676Y-58115980D01*
D15*
X62708914Y-56669314D02*
X62670819Y-56707409D01*
X62556533Y-56745504D01*
X62480342Y-56745504D01*
X62366057Y-56707409D01*
X62289866Y-56631219D01*
X62251771Y-56555028D01*
X62213676Y-56402647D01*
X62213676Y-56288361D01*
X62251771Y-56135980D01*
X62289866Y-56059790D01*
X62366057Y-55983600D01*
X62480342Y-55945504D01*
X62556533Y-55945504D01*
X62670819Y-55983600D01*
X62708914Y-56021695D01*
X63470819Y-56745504D02*
X63013676Y-56745504D01*
X63242247Y-56745504D02*
X63242247Y-55945504D01*
X63166057Y-56059790D01*
X63089866Y-56135980D01*
X63013676Y-56174076D01*
X64194628Y-55945504D02*
X63813676Y-55945504D01*
X63775580Y-56326457D01*
X63813676Y-56288361D01*
X63889866Y-56250266D01*
X64080342Y-56250266D01*
X64156533Y-56288361D01*
X64194628Y-56326457D01*
X64232723Y-56402647D01*
X64232723Y-56593123D01*
X64194628Y-56669314D01*
X64156533Y-56707409D01*
X64080342Y-56745504D01*
X63889866Y-56745504D01*
X63813676Y-56707409D01*
X63775580Y-56669314D01*
G04 #@! TO.C,C1*
D10*
X78262838Y-89578414D02*
X78262838Y-90245080D01*
X78024742Y-89197461D02*
X77786647Y-89911747D01*
X78405695Y-89911747D01*
X78786647Y-90149842D02*
X78834266Y-90197461D01*
X78786647Y-90245080D01*
X78739028Y-90197461D01*
X78786647Y-90149842D01*
X78786647Y-90245080D01*
X79167600Y-89245080D02*
X79834266Y-89245080D01*
X79405695Y-90245080D01*
X80643790Y-89578414D02*
X80643790Y-90245080D01*
X80215219Y-89578414D02*
X80215219Y-90102223D01*
X80262838Y-90197461D01*
X80358076Y-90245080D01*
X80500933Y-90245080D01*
X80596171Y-90197461D01*
X80643790Y-90149842D01*
X81453314Y-89721271D02*
X81119980Y-89721271D01*
X81119980Y-90245080D02*
X81119980Y-89245080D01*
X81596171Y-89245080D01*
D13*
X79600933Y-88505557D02*
X79581885Y-88524604D01*
X79524742Y-88543652D01*
X79486647Y-88543652D01*
X79429504Y-88524604D01*
X79391409Y-88486509D01*
X79372361Y-88448414D01*
X79353314Y-88372223D01*
X79353314Y-88315080D01*
X79372361Y-88238890D01*
X79391409Y-88200795D01*
X79429504Y-88162700D01*
X79486647Y-88143652D01*
X79524742Y-88143652D01*
X79581885Y-88162700D01*
X79600933Y-88181747D01*
X79981885Y-88543652D02*
X79753314Y-88543652D01*
X79867600Y-88543652D02*
X79867600Y-88143652D01*
X79829504Y-88200795D01*
X79791409Y-88238890D01*
X79753314Y-88257938D01*
G04 #@! TO.C,C2*
D10*
X75744761Y-82862380D02*
X75173333Y-82862380D01*
X75459047Y-82862380D02*
X75459047Y-81862380D01*
X75363809Y-82005238D01*
X75268571Y-82100476D01*
X75173333Y-82148095D01*
X76601904Y-82195714D02*
X76601904Y-82862380D01*
X76173333Y-82195714D02*
X76173333Y-82719523D01*
X76220952Y-82814761D01*
X76316190Y-82862380D01*
X76459047Y-82862380D01*
X76554285Y-82814761D01*
X76601904Y-82767142D01*
X77411428Y-82338571D02*
X77078095Y-82338571D01*
X77078095Y-82862380D02*
X77078095Y-81862380D01*
X77554285Y-81862380D01*
D13*
X76273333Y-81122857D02*
X76254285Y-81141904D01*
X76197142Y-81160952D01*
X76159047Y-81160952D01*
X76101904Y-81141904D01*
X76063809Y-81103809D01*
X76044761Y-81065714D01*
X76025714Y-80989523D01*
X76025714Y-80932380D01*
X76044761Y-80856190D01*
X76063809Y-80818095D01*
X76101904Y-80780000D01*
X76159047Y-80760952D01*
X76197142Y-80760952D01*
X76254285Y-80780000D01*
X76273333Y-80799047D01*
X76425714Y-80799047D02*
X76444761Y-80780000D01*
X76482857Y-80760952D01*
X76578095Y-80760952D01*
X76616190Y-80780000D01*
X76635238Y-80799047D01*
X76654285Y-80837142D01*
X76654285Y-80875238D01*
X76635238Y-80932380D01*
X76406666Y-81160952D01*
X76654285Y-81160952D01*
G04 #@! TO.C,C3*
D10*
X66458274Y-84250341D02*
X67124940Y-84250341D01*
X66077321Y-84488437D02*
X66791607Y-84726532D01*
X66791607Y-84107484D01*
X67029702Y-83726532D02*
X67077321Y-83678913D01*
X67124940Y-83726532D01*
X67077321Y-83774151D01*
X67029702Y-83726532D01*
X67124940Y-83726532D01*
X66124940Y-83345579D02*
X66124940Y-82678913D01*
X67124940Y-83107484D01*
X66458274Y-81869389D02*
X67124940Y-81869389D01*
X66458274Y-82297960D02*
X66982083Y-82297960D01*
X67077321Y-82250341D01*
X67124940Y-82155103D01*
X67124940Y-82012246D01*
X67077321Y-81917008D01*
X67029702Y-81869389D01*
X66601131Y-81059865D02*
X66601131Y-81393199D01*
X67124940Y-81393199D02*
X66124940Y-81393199D01*
X66124940Y-80917008D01*
D13*
X65385417Y-82912246D02*
X65404464Y-82931294D01*
X65423512Y-82988437D01*
X65423512Y-83026532D01*
X65404464Y-83083675D01*
X65366369Y-83121770D01*
X65328274Y-83140818D01*
X65252083Y-83159865D01*
X65194940Y-83159865D01*
X65118750Y-83140818D01*
X65080655Y-83121770D01*
X65042560Y-83083675D01*
X65023512Y-83026532D01*
X65023512Y-82988437D01*
X65042560Y-82931294D01*
X65061607Y-82912246D01*
X65023512Y-82778913D02*
X65023512Y-82531294D01*
X65175893Y-82664627D01*
X65175893Y-82607484D01*
X65194940Y-82569389D01*
X65213988Y-82550341D01*
X65252083Y-82531294D01*
X65347321Y-82531294D01*
X65385417Y-82550341D01*
X65404464Y-82569389D01*
X65423512Y-82607484D01*
X65423512Y-82721770D01*
X65404464Y-82759865D01*
X65385417Y-82778913D01*
G04 #@! TO.C,J3*
D10*
X46466061Y-95693190D02*
X46513680Y-95550333D01*
X46513680Y-95312238D01*
X46466061Y-95217000D01*
X46418442Y-95169380D01*
X46323204Y-95121761D01*
X46227966Y-95121761D01*
X46132728Y-95169380D01*
X46085109Y-95217000D01*
X46037490Y-95312238D01*
X45989871Y-95502714D01*
X45942252Y-95597952D01*
X45894633Y-95645571D01*
X45799395Y-95693190D01*
X45704157Y-95693190D01*
X45608919Y-95645571D01*
X45561300Y-95597952D01*
X45513680Y-95502714D01*
X45513680Y-95264619D01*
X45561300Y-95121761D01*
X46466061Y-94312238D02*
X46513680Y-94407476D01*
X46513680Y-94597952D01*
X46466061Y-94693190D01*
X46370823Y-94740809D01*
X45989871Y-94740809D01*
X45894633Y-94693190D01*
X45847014Y-94597952D01*
X45847014Y-94407476D01*
X45894633Y-94312238D01*
X45989871Y-94264619D01*
X46085109Y-94264619D01*
X46180347Y-94740809D01*
X46513680Y-93836047D02*
X45847014Y-93836047D01*
X46037490Y-93836047D02*
X45942252Y-93788428D01*
X45894633Y-93740809D01*
X45847014Y-93645571D01*
X45847014Y-93550333D01*
X46513680Y-93217000D02*
X45847014Y-93217000D01*
X45513680Y-93217000D02*
X45561300Y-93264619D01*
X45608919Y-93217000D01*
X45561300Y-93169380D01*
X45513680Y-93217000D01*
X45608919Y-93217000D01*
X46513680Y-92312238D02*
X45989871Y-92312238D01*
X45894633Y-92359857D01*
X45847014Y-92455095D01*
X45847014Y-92645571D01*
X45894633Y-92740809D01*
X46466061Y-92312238D02*
X46513680Y-92407476D01*
X46513680Y-92645571D01*
X46466061Y-92740809D01*
X46370823Y-92788428D01*
X46275585Y-92788428D01*
X46180347Y-92740809D01*
X46132728Y-92645571D01*
X46132728Y-92407476D01*
X46085109Y-92312238D01*
X46513680Y-91693190D02*
X46466061Y-91788428D01*
X46370823Y-91836047D01*
X45513680Y-91836047D01*
G04 #@! TO.C,C16*
X86404761Y-74562380D02*
X85833333Y-74562380D01*
X86119047Y-74562380D02*
X86119047Y-73562380D01*
X86023809Y-73705238D01*
X85928571Y-73800476D01*
X85833333Y-73848095D01*
X87261904Y-73895714D02*
X87261904Y-74562380D01*
X86833333Y-73895714D02*
X86833333Y-74419523D01*
X86880952Y-74514761D01*
X86976190Y-74562380D01*
X87119047Y-74562380D01*
X87214285Y-74514761D01*
X87261904Y-74467142D01*
X88071428Y-74038571D02*
X87738095Y-74038571D01*
X87738095Y-74562380D02*
X87738095Y-73562380D01*
X88214285Y-73562380D01*
D13*
X86742857Y-75682857D02*
X86723809Y-75701904D01*
X86666666Y-75720952D01*
X86628571Y-75720952D01*
X86571428Y-75701904D01*
X86533333Y-75663809D01*
X86514285Y-75625714D01*
X86495238Y-75549523D01*
X86495238Y-75492380D01*
X86514285Y-75416190D01*
X86533333Y-75378095D01*
X86571428Y-75340000D01*
X86628571Y-75320952D01*
X86666666Y-75320952D01*
X86723809Y-75340000D01*
X86742857Y-75359047D01*
X87123809Y-75720952D02*
X86895238Y-75720952D01*
X87009523Y-75720952D02*
X87009523Y-75320952D01*
X86971428Y-75378095D01*
X86933333Y-75416190D01*
X86895238Y-75435238D01*
X87466666Y-75320952D02*
X87390476Y-75320952D01*
X87352380Y-75340000D01*
X87333333Y-75359047D01*
X87295238Y-75416190D01*
X87276190Y-75492380D01*
X87276190Y-75644761D01*
X87295238Y-75682857D01*
X87314285Y-75701904D01*
X87352380Y-75720952D01*
X87428571Y-75720952D01*
X87466666Y-75701904D01*
X87485714Y-75682857D01*
X87504761Y-75644761D01*
X87504761Y-75549523D01*
X87485714Y-75511428D01*
X87466666Y-75492380D01*
X87428571Y-75473333D01*
X87352380Y-75473333D01*
X87314285Y-75492380D01*
X87295238Y-75511428D01*
X87276190Y-75549523D01*
G04 #@! TO.C,C17*
D10*
X89615714Y-71766666D02*
X90282380Y-71766666D01*
X89234761Y-72004761D02*
X89949047Y-72242857D01*
X89949047Y-71623809D01*
X89282380Y-71338095D02*
X89282380Y-70671428D01*
X90282380Y-71100000D01*
X89615714Y-69861904D02*
X90282380Y-69861904D01*
X89615714Y-70290476D02*
X90139523Y-70290476D01*
X90234761Y-70242857D01*
X90282380Y-70147619D01*
X90282380Y-70004761D01*
X90234761Y-69909523D01*
X90187142Y-69861904D01*
X89758571Y-69052380D02*
X89758571Y-69385714D01*
X90282380Y-69385714D02*
X89282380Y-69385714D01*
X89282380Y-68909523D01*
D15*
X92395714Y-71114285D02*
X92433809Y-71152380D01*
X92471904Y-71266666D01*
X92471904Y-71342857D01*
X92433809Y-71457142D01*
X92357619Y-71533333D01*
X92281428Y-71571428D01*
X92129047Y-71609523D01*
X92014761Y-71609523D01*
X91862380Y-71571428D01*
X91786190Y-71533333D01*
X91710000Y-71457142D01*
X91671904Y-71342857D01*
X91671904Y-71266666D01*
X91710000Y-71152380D01*
X91748095Y-71114285D01*
X92471904Y-70352380D02*
X92471904Y-70809523D01*
X92471904Y-70580952D02*
X91671904Y-70580952D01*
X91786190Y-70657142D01*
X91862380Y-70733333D01*
X91900476Y-70809523D01*
X91671904Y-70085714D02*
X91671904Y-69552380D01*
X92471904Y-69895238D01*
G04 #@! TO.C,C18*
D10*
X84795714Y-71834761D02*
X85462380Y-71834761D01*
X84414761Y-72072857D02*
X85129047Y-72310952D01*
X85129047Y-71691904D01*
X85367142Y-71310952D02*
X85414761Y-71263333D01*
X85462380Y-71310952D01*
X85414761Y-71358571D01*
X85367142Y-71310952D01*
X85462380Y-71310952D01*
X84462380Y-70930000D02*
X84462380Y-70263333D01*
X85462380Y-70691904D01*
X84795714Y-69453809D02*
X85462380Y-69453809D01*
X84795714Y-69882380D02*
X85319523Y-69882380D01*
X85414761Y-69834761D01*
X85462380Y-69739523D01*
X85462380Y-69596666D01*
X85414761Y-69501428D01*
X85367142Y-69453809D01*
X84938571Y-68644285D02*
X84938571Y-68977619D01*
X85462380Y-68977619D02*
X84462380Y-68977619D01*
X84462380Y-68501428D01*
D13*
X86582857Y-70687142D02*
X86601904Y-70706190D01*
X86620952Y-70763333D01*
X86620952Y-70801428D01*
X86601904Y-70858571D01*
X86563809Y-70896666D01*
X86525714Y-70915714D01*
X86449523Y-70934761D01*
X86392380Y-70934761D01*
X86316190Y-70915714D01*
X86278095Y-70896666D01*
X86240000Y-70858571D01*
X86220952Y-70801428D01*
X86220952Y-70763333D01*
X86240000Y-70706190D01*
X86259047Y-70687142D01*
X86620952Y-70306190D02*
X86620952Y-70534761D01*
X86620952Y-70420476D02*
X86220952Y-70420476D01*
X86278095Y-70458571D01*
X86316190Y-70496666D01*
X86335238Y-70534761D01*
X86392380Y-70077619D02*
X86373333Y-70115714D01*
X86354285Y-70134761D01*
X86316190Y-70153809D01*
X86297142Y-70153809D01*
X86259047Y-70134761D01*
X86240000Y-70115714D01*
X86220952Y-70077619D01*
X86220952Y-70001428D01*
X86240000Y-69963333D01*
X86259047Y-69944285D01*
X86297142Y-69925238D01*
X86316190Y-69925238D01*
X86354285Y-69944285D01*
X86373333Y-69963333D01*
X86392380Y-70001428D01*
X86392380Y-70077619D01*
X86411428Y-70115714D01*
X86430476Y-70134761D01*
X86468571Y-70153809D01*
X86544761Y-70153809D01*
X86582857Y-70134761D01*
X86601904Y-70115714D01*
X86620952Y-70077619D01*
X86620952Y-70001428D01*
X86601904Y-69963333D01*
X86582857Y-69944285D01*
X86544761Y-69925238D01*
X86468571Y-69925238D01*
X86430476Y-69944285D01*
X86411428Y-69963333D01*
X86392380Y-70001428D01*
G04 #@! TO.C,R6*
D10*
X91783454Y-63121880D02*
X91212025Y-63121880D01*
X91497740Y-63121880D02*
X91497740Y-62121880D01*
X91402501Y-62264738D01*
X91307263Y-62359976D01*
X91212025Y-62407595D01*
X92212025Y-63121880D02*
X92212025Y-62121880D01*
X92783454Y-63121880D02*
X92354882Y-62550452D01*
X92783454Y-62121880D02*
X92212025Y-62693309D01*
D13*
X91931073Y-64280452D02*
X91797740Y-64089976D01*
X91702501Y-64280452D02*
X91702501Y-63880452D01*
X91854882Y-63880452D01*
X91892978Y-63899500D01*
X91912025Y-63918547D01*
X91931073Y-63956642D01*
X91931073Y-64013785D01*
X91912025Y-64051880D01*
X91892978Y-64070928D01*
X91854882Y-64089976D01*
X91702501Y-64089976D01*
X92273930Y-63880452D02*
X92197740Y-63880452D01*
X92159644Y-63899500D01*
X92140597Y-63918547D01*
X92102501Y-63975690D01*
X92083454Y-64051880D01*
X92083454Y-64204261D01*
X92102501Y-64242357D01*
X92121549Y-64261404D01*
X92159644Y-64280452D01*
X92235835Y-64280452D01*
X92273930Y-64261404D01*
X92292978Y-64242357D01*
X92312025Y-64204261D01*
X92312025Y-64109023D01*
X92292978Y-64070928D01*
X92273930Y-64051880D01*
X92235835Y-64032833D01*
X92159644Y-64032833D01*
X92121549Y-64051880D01*
X92102501Y-64070928D01*
X92083454Y-64109023D01*
G04 #@! TD*
M02*
