G04 #@! TF.GenerationSoftware,KiCad,Pcbnew,5.0.2-bee76a0~70~ubuntu16.04.1*
G04 #@! TF.CreationDate,2020-11-05T00:34:30+01:00*
G04 #@! TF.ProjectId,WiRoc_NanoPi_v1,5769526f-635f-44e6-916e-6f50695f7631,rev?*
G04 #@! TF.SameCoordinates,Original*
G04 #@! TF.FileFunction,Paste,Top*
G04 #@! TF.FilePolarity,Positive*
%FSLAX46Y46*%
G04 Gerber Fmt 4.6, Leading zero omitted, Abs format (unit mm)*
G04 Created by KiCad (PCBNEW 5.0.2-bee76a0~70~ubuntu16.04.1) date tor  5 nov 2020 00:34:30*
%MOMM*%
%LPD*%
G01*
G04 APERTURE LIST*
%ADD10R,1.000000X0.720000*%
%ADD11R,0.840000X0.840000*%
%ADD12O,0.700000X0.200000*%
%ADD13O,0.200000X0.700000*%
%ADD14R,0.650000X1.060000*%
%ADD15R,1.060000X0.650000*%
%ADD16R,1.100000X3.700000*%
%ADD17R,3.700000X1.100000*%
%ADD18C,0.100000*%
%ADD19C,0.875000*%
%ADD20R,0.900000X1.200000*%
%ADD21C,0.975000*%
%ADD22C,1.250000*%
G04 APERTURE END LIST*
D10*
G04 #@! TO.C,D1*
X92802820Y-61355580D03*
X91202820Y-61355580D03*
X91202820Y-62535580D03*
X92802820Y-62535580D03*
G04 #@! TD*
D11*
G04 #@! TO.C,U3*
X75373600Y-89880200D03*
X75373600Y-88480200D03*
X75373600Y-87080200D03*
X73973600Y-87080200D03*
X73973600Y-88480200D03*
X72573600Y-89880200D03*
X73973600Y-89880200D03*
X72573600Y-88480200D03*
X72573600Y-87080200D03*
D12*
X71073600Y-90680200D03*
X71073600Y-90280200D03*
X71073600Y-89880200D03*
X71073600Y-89480200D03*
X71073600Y-89080200D03*
X71073600Y-88680200D03*
X71073600Y-88280200D03*
X71073600Y-87880200D03*
X71073600Y-87480200D03*
X71073600Y-87080200D03*
X71073600Y-86680200D03*
X71073600Y-86280200D03*
D13*
X71773600Y-85580200D03*
X72173600Y-85580200D03*
X72573600Y-85580200D03*
X72973600Y-85580200D03*
X73373600Y-85580200D03*
X73773600Y-85580200D03*
X74173600Y-85580200D03*
X74573600Y-85580200D03*
X74973600Y-85580200D03*
X75373600Y-85580200D03*
X75773600Y-85580200D03*
X76173600Y-85580200D03*
D12*
X76873600Y-86280200D03*
X76873600Y-86680200D03*
X76873600Y-87080200D03*
X76873600Y-87480200D03*
X76873600Y-87880200D03*
X76873600Y-88280200D03*
X76873600Y-88680200D03*
X76873600Y-89080200D03*
X76873600Y-89480200D03*
X76873600Y-89880200D03*
X76873600Y-90280200D03*
X76873600Y-90680200D03*
D13*
X76173600Y-91380200D03*
X75773600Y-91380200D03*
X75373600Y-91380200D03*
X74973600Y-91380200D03*
X74573600Y-91380200D03*
X74173600Y-91380200D03*
X73773600Y-91380200D03*
X73373600Y-91380200D03*
X72973600Y-91380200D03*
X72573600Y-91380200D03*
X72173600Y-91380200D03*
X71773600Y-91380200D03*
G04 #@! TD*
D14*
G04 #@! TO.C,U4*
X77018086Y-52482546D03*
X76068086Y-52482546D03*
X75118086Y-52482546D03*
X75118086Y-54682546D03*
X77018086Y-54682546D03*
X76068086Y-54682546D03*
G04 #@! TD*
D15*
G04 #@! TO.C,U5*
X66921200Y-52331200D03*
X66921200Y-53281200D03*
X66921200Y-54231200D03*
X69121200Y-54231200D03*
X69121200Y-52331200D03*
G04 #@! TD*
D16*
G04 #@! TO.C,L1*
X65314500Y-94420600D03*
X68314500Y-94420600D03*
G04 #@! TD*
D17*
G04 #@! TO.C,L2*
X81155600Y-55710300D03*
X81155600Y-52710300D03*
G04 #@! TD*
D18*
G04 #@! TO.C,C4*
G36*
X72845991Y-82770653D02*
X72867226Y-82773803D01*
X72888050Y-82779019D01*
X72908262Y-82786251D01*
X72927668Y-82795430D01*
X72946081Y-82806466D01*
X72963324Y-82819254D01*
X72979230Y-82833670D01*
X72993646Y-82849576D01*
X73006434Y-82866819D01*
X73017470Y-82885232D01*
X73026649Y-82904638D01*
X73033881Y-82924850D01*
X73039097Y-82945674D01*
X73042247Y-82966909D01*
X73043300Y-82988350D01*
X73043300Y-83500850D01*
X73042247Y-83522291D01*
X73039097Y-83543526D01*
X73033881Y-83564350D01*
X73026649Y-83584562D01*
X73017470Y-83603968D01*
X73006434Y-83622381D01*
X72993646Y-83639624D01*
X72979230Y-83655530D01*
X72963324Y-83669946D01*
X72946081Y-83682734D01*
X72927668Y-83693770D01*
X72908262Y-83702949D01*
X72888050Y-83710181D01*
X72867226Y-83715397D01*
X72845991Y-83718547D01*
X72824550Y-83719600D01*
X72387050Y-83719600D01*
X72365609Y-83718547D01*
X72344374Y-83715397D01*
X72323550Y-83710181D01*
X72303338Y-83702949D01*
X72283932Y-83693770D01*
X72265519Y-83682734D01*
X72248276Y-83669946D01*
X72232370Y-83655530D01*
X72217954Y-83639624D01*
X72205166Y-83622381D01*
X72194130Y-83603968D01*
X72184951Y-83584562D01*
X72177719Y-83564350D01*
X72172503Y-83543526D01*
X72169353Y-83522291D01*
X72168300Y-83500850D01*
X72168300Y-82988350D01*
X72169353Y-82966909D01*
X72172503Y-82945674D01*
X72177719Y-82924850D01*
X72184951Y-82904638D01*
X72194130Y-82885232D01*
X72205166Y-82866819D01*
X72217954Y-82849576D01*
X72232370Y-82833670D01*
X72248276Y-82819254D01*
X72265519Y-82806466D01*
X72283932Y-82795430D01*
X72303338Y-82786251D01*
X72323550Y-82779019D01*
X72344374Y-82773803D01*
X72365609Y-82770653D01*
X72387050Y-82769600D01*
X72824550Y-82769600D01*
X72845991Y-82770653D01*
X72845991Y-82770653D01*
G37*
D19*
X72605800Y-83244600D03*
D18*
G36*
X71270991Y-82770653D02*
X71292226Y-82773803D01*
X71313050Y-82779019D01*
X71333262Y-82786251D01*
X71352668Y-82795430D01*
X71371081Y-82806466D01*
X71388324Y-82819254D01*
X71404230Y-82833670D01*
X71418646Y-82849576D01*
X71431434Y-82866819D01*
X71442470Y-82885232D01*
X71451649Y-82904638D01*
X71458881Y-82924850D01*
X71464097Y-82945674D01*
X71467247Y-82966909D01*
X71468300Y-82988350D01*
X71468300Y-83500850D01*
X71467247Y-83522291D01*
X71464097Y-83543526D01*
X71458881Y-83564350D01*
X71451649Y-83584562D01*
X71442470Y-83603968D01*
X71431434Y-83622381D01*
X71418646Y-83639624D01*
X71404230Y-83655530D01*
X71388324Y-83669946D01*
X71371081Y-83682734D01*
X71352668Y-83693770D01*
X71333262Y-83702949D01*
X71313050Y-83710181D01*
X71292226Y-83715397D01*
X71270991Y-83718547D01*
X71249550Y-83719600D01*
X70812050Y-83719600D01*
X70790609Y-83718547D01*
X70769374Y-83715397D01*
X70748550Y-83710181D01*
X70728338Y-83702949D01*
X70708932Y-83693770D01*
X70690519Y-83682734D01*
X70673276Y-83669946D01*
X70657370Y-83655530D01*
X70642954Y-83639624D01*
X70630166Y-83622381D01*
X70619130Y-83603968D01*
X70609951Y-83584562D01*
X70602719Y-83564350D01*
X70597503Y-83543526D01*
X70594353Y-83522291D01*
X70593300Y-83500850D01*
X70593300Y-82988350D01*
X70594353Y-82966909D01*
X70597503Y-82945674D01*
X70602719Y-82924850D01*
X70609951Y-82904638D01*
X70619130Y-82885232D01*
X70630166Y-82866819D01*
X70642954Y-82849576D01*
X70657370Y-82833670D01*
X70673276Y-82819254D01*
X70690519Y-82806466D01*
X70708932Y-82795430D01*
X70728338Y-82786251D01*
X70748550Y-82779019D01*
X70769374Y-82773803D01*
X70790609Y-82770653D01*
X70812050Y-82769600D01*
X71249550Y-82769600D01*
X71270991Y-82770653D01*
X71270991Y-82770653D01*
G37*
D19*
X71030800Y-83244600D03*
G04 #@! TD*
D18*
G04 #@! TO.C,C5*
G36*
X74251691Y-76701053D02*
X74272926Y-76704203D01*
X74293750Y-76709419D01*
X74313962Y-76716651D01*
X74333368Y-76725830D01*
X74351781Y-76736866D01*
X74369024Y-76749654D01*
X74384930Y-76764070D01*
X74399346Y-76779976D01*
X74412134Y-76797219D01*
X74423170Y-76815632D01*
X74432349Y-76835038D01*
X74439581Y-76855250D01*
X74444797Y-76876074D01*
X74447947Y-76897309D01*
X74449000Y-76918750D01*
X74449000Y-77356250D01*
X74447947Y-77377691D01*
X74444797Y-77398926D01*
X74439581Y-77419750D01*
X74432349Y-77439962D01*
X74423170Y-77459368D01*
X74412134Y-77477781D01*
X74399346Y-77495024D01*
X74384930Y-77510930D01*
X74369024Y-77525346D01*
X74351781Y-77538134D01*
X74333368Y-77549170D01*
X74313962Y-77558349D01*
X74293750Y-77565581D01*
X74272926Y-77570797D01*
X74251691Y-77573947D01*
X74230250Y-77575000D01*
X73717750Y-77575000D01*
X73696309Y-77573947D01*
X73675074Y-77570797D01*
X73654250Y-77565581D01*
X73634038Y-77558349D01*
X73614632Y-77549170D01*
X73596219Y-77538134D01*
X73578976Y-77525346D01*
X73563070Y-77510930D01*
X73548654Y-77495024D01*
X73535866Y-77477781D01*
X73524830Y-77459368D01*
X73515651Y-77439962D01*
X73508419Y-77419750D01*
X73503203Y-77398926D01*
X73500053Y-77377691D01*
X73499000Y-77356250D01*
X73499000Y-76918750D01*
X73500053Y-76897309D01*
X73503203Y-76876074D01*
X73508419Y-76855250D01*
X73515651Y-76835038D01*
X73524830Y-76815632D01*
X73535866Y-76797219D01*
X73548654Y-76779976D01*
X73563070Y-76764070D01*
X73578976Y-76749654D01*
X73596219Y-76736866D01*
X73614632Y-76725830D01*
X73634038Y-76716651D01*
X73654250Y-76709419D01*
X73675074Y-76704203D01*
X73696309Y-76701053D01*
X73717750Y-76700000D01*
X74230250Y-76700000D01*
X74251691Y-76701053D01*
X74251691Y-76701053D01*
G37*
D19*
X73974000Y-77137500D03*
D18*
G36*
X74251691Y-78276053D02*
X74272926Y-78279203D01*
X74293750Y-78284419D01*
X74313962Y-78291651D01*
X74333368Y-78300830D01*
X74351781Y-78311866D01*
X74369024Y-78324654D01*
X74384930Y-78339070D01*
X74399346Y-78354976D01*
X74412134Y-78372219D01*
X74423170Y-78390632D01*
X74432349Y-78410038D01*
X74439581Y-78430250D01*
X74444797Y-78451074D01*
X74447947Y-78472309D01*
X74449000Y-78493750D01*
X74449000Y-78931250D01*
X74447947Y-78952691D01*
X74444797Y-78973926D01*
X74439581Y-78994750D01*
X74432349Y-79014962D01*
X74423170Y-79034368D01*
X74412134Y-79052781D01*
X74399346Y-79070024D01*
X74384930Y-79085930D01*
X74369024Y-79100346D01*
X74351781Y-79113134D01*
X74333368Y-79124170D01*
X74313962Y-79133349D01*
X74293750Y-79140581D01*
X74272926Y-79145797D01*
X74251691Y-79148947D01*
X74230250Y-79150000D01*
X73717750Y-79150000D01*
X73696309Y-79148947D01*
X73675074Y-79145797D01*
X73654250Y-79140581D01*
X73634038Y-79133349D01*
X73614632Y-79124170D01*
X73596219Y-79113134D01*
X73578976Y-79100346D01*
X73563070Y-79085930D01*
X73548654Y-79070024D01*
X73535866Y-79052781D01*
X73524830Y-79034368D01*
X73515651Y-79014962D01*
X73508419Y-78994750D01*
X73503203Y-78973926D01*
X73500053Y-78952691D01*
X73499000Y-78931250D01*
X73499000Y-78493750D01*
X73500053Y-78472309D01*
X73503203Y-78451074D01*
X73508419Y-78430250D01*
X73515651Y-78410038D01*
X73524830Y-78390632D01*
X73535866Y-78372219D01*
X73548654Y-78354976D01*
X73563070Y-78339070D01*
X73578976Y-78324654D01*
X73596219Y-78311866D01*
X73614632Y-78300830D01*
X73634038Y-78291651D01*
X73654250Y-78284419D01*
X73675074Y-78279203D01*
X73696309Y-78276053D01*
X73717750Y-78275000D01*
X74230250Y-78275000D01*
X74251691Y-78276053D01*
X74251691Y-78276053D01*
G37*
D19*
X73974000Y-78712500D03*
G04 #@! TD*
D18*
G04 #@! TO.C,C6*
G36*
X80577691Y-83690053D02*
X80598926Y-83693203D01*
X80619750Y-83698419D01*
X80639962Y-83705651D01*
X80659368Y-83714830D01*
X80677781Y-83725866D01*
X80695024Y-83738654D01*
X80710930Y-83753070D01*
X80725346Y-83768976D01*
X80738134Y-83786219D01*
X80749170Y-83804632D01*
X80758349Y-83824038D01*
X80765581Y-83844250D01*
X80770797Y-83865074D01*
X80773947Y-83886309D01*
X80775000Y-83907750D01*
X80775000Y-84420250D01*
X80773947Y-84441691D01*
X80770797Y-84462926D01*
X80765581Y-84483750D01*
X80758349Y-84503962D01*
X80749170Y-84523368D01*
X80738134Y-84541781D01*
X80725346Y-84559024D01*
X80710930Y-84574930D01*
X80695024Y-84589346D01*
X80677781Y-84602134D01*
X80659368Y-84613170D01*
X80639962Y-84622349D01*
X80619750Y-84629581D01*
X80598926Y-84634797D01*
X80577691Y-84637947D01*
X80556250Y-84639000D01*
X80118750Y-84639000D01*
X80097309Y-84637947D01*
X80076074Y-84634797D01*
X80055250Y-84629581D01*
X80035038Y-84622349D01*
X80015632Y-84613170D01*
X79997219Y-84602134D01*
X79979976Y-84589346D01*
X79964070Y-84574930D01*
X79949654Y-84559024D01*
X79936866Y-84541781D01*
X79925830Y-84523368D01*
X79916651Y-84503962D01*
X79909419Y-84483750D01*
X79904203Y-84462926D01*
X79901053Y-84441691D01*
X79900000Y-84420250D01*
X79900000Y-83907750D01*
X79901053Y-83886309D01*
X79904203Y-83865074D01*
X79909419Y-83844250D01*
X79916651Y-83824038D01*
X79925830Y-83804632D01*
X79936866Y-83786219D01*
X79949654Y-83768976D01*
X79964070Y-83753070D01*
X79979976Y-83738654D01*
X79997219Y-83725866D01*
X80015632Y-83714830D01*
X80035038Y-83705651D01*
X80055250Y-83698419D01*
X80076074Y-83693203D01*
X80097309Y-83690053D01*
X80118750Y-83689000D01*
X80556250Y-83689000D01*
X80577691Y-83690053D01*
X80577691Y-83690053D01*
G37*
D19*
X80337500Y-84164000D03*
D18*
G36*
X79002691Y-83690053D02*
X79023926Y-83693203D01*
X79044750Y-83698419D01*
X79064962Y-83705651D01*
X79084368Y-83714830D01*
X79102781Y-83725866D01*
X79120024Y-83738654D01*
X79135930Y-83753070D01*
X79150346Y-83768976D01*
X79163134Y-83786219D01*
X79174170Y-83804632D01*
X79183349Y-83824038D01*
X79190581Y-83844250D01*
X79195797Y-83865074D01*
X79198947Y-83886309D01*
X79200000Y-83907750D01*
X79200000Y-84420250D01*
X79198947Y-84441691D01*
X79195797Y-84462926D01*
X79190581Y-84483750D01*
X79183349Y-84503962D01*
X79174170Y-84523368D01*
X79163134Y-84541781D01*
X79150346Y-84559024D01*
X79135930Y-84574930D01*
X79120024Y-84589346D01*
X79102781Y-84602134D01*
X79084368Y-84613170D01*
X79064962Y-84622349D01*
X79044750Y-84629581D01*
X79023926Y-84634797D01*
X79002691Y-84637947D01*
X78981250Y-84639000D01*
X78543750Y-84639000D01*
X78522309Y-84637947D01*
X78501074Y-84634797D01*
X78480250Y-84629581D01*
X78460038Y-84622349D01*
X78440632Y-84613170D01*
X78422219Y-84602134D01*
X78404976Y-84589346D01*
X78389070Y-84574930D01*
X78374654Y-84559024D01*
X78361866Y-84541781D01*
X78350830Y-84523368D01*
X78341651Y-84503962D01*
X78334419Y-84483750D01*
X78329203Y-84462926D01*
X78326053Y-84441691D01*
X78325000Y-84420250D01*
X78325000Y-83907750D01*
X78326053Y-83886309D01*
X78329203Y-83865074D01*
X78334419Y-83844250D01*
X78341651Y-83824038D01*
X78350830Y-83804632D01*
X78361866Y-83786219D01*
X78374654Y-83768976D01*
X78389070Y-83753070D01*
X78404976Y-83738654D01*
X78422219Y-83725866D01*
X78440632Y-83714830D01*
X78460038Y-83705651D01*
X78480250Y-83698419D01*
X78501074Y-83693203D01*
X78522309Y-83690053D01*
X78543750Y-83689000D01*
X78981250Y-83689000D01*
X79002691Y-83690053D01*
X79002691Y-83690053D01*
G37*
D19*
X78762500Y-84164000D03*
G04 #@! TD*
D18*
G04 #@! TO.C,C7*
G36*
X56107691Y-109971053D02*
X56128926Y-109974203D01*
X56149750Y-109979419D01*
X56169962Y-109986651D01*
X56189368Y-109995830D01*
X56207781Y-110006866D01*
X56225024Y-110019654D01*
X56240930Y-110034070D01*
X56255346Y-110049976D01*
X56268134Y-110067219D01*
X56279170Y-110085632D01*
X56288349Y-110105038D01*
X56295581Y-110125250D01*
X56300797Y-110146074D01*
X56303947Y-110167309D01*
X56305000Y-110188750D01*
X56305000Y-110626250D01*
X56303947Y-110647691D01*
X56300797Y-110668926D01*
X56295581Y-110689750D01*
X56288349Y-110709962D01*
X56279170Y-110729368D01*
X56268134Y-110747781D01*
X56255346Y-110765024D01*
X56240930Y-110780930D01*
X56225024Y-110795346D01*
X56207781Y-110808134D01*
X56189368Y-110819170D01*
X56169962Y-110828349D01*
X56149750Y-110835581D01*
X56128926Y-110840797D01*
X56107691Y-110843947D01*
X56086250Y-110845000D01*
X55573750Y-110845000D01*
X55552309Y-110843947D01*
X55531074Y-110840797D01*
X55510250Y-110835581D01*
X55490038Y-110828349D01*
X55470632Y-110819170D01*
X55452219Y-110808134D01*
X55434976Y-110795346D01*
X55419070Y-110780930D01*
X55404654Y-110765024D01*
X55391866Y-110747781D01*
X55380830Y-110729368D01*
X55371651Y-110709962D01*
X55364419Y-110689750D01*
X55359203Y-110668926D01*
X55356053Y-110647691D01*
X55355000Y-110626250D01*
X55355000Y-110188750D01*
X55356053Y-110167309D01*
X55359203Y-110146074D01*
X55364419Y-110125250D01*
X55371651Y-110105038D01*
X55380830Y-110085632D01*
X55391866Y-110067219D01*
X55404654Y-110049976D01*
X55419070Y-110034070D01*
X55434976Y-110019654D01*
X55452219Y-110006866D01*
X55470632Y-109995830D01*
X55490038Y-109986651D01*
X55510250Y-109979419D01*
X55531074Y-109974203D01*
X55552309Y-109971053D01*
X55573750Y-109970000D01*
X56086250Y-109970000D01*
X56107691Y-109971053D01*
X56107691Y-109971053D01*
G37*
D19*
X55830000Y-110407500D03*
D18*
G36*
X56107691Y-108396053D02*
X56128926Y-108399203D01*
X56149750Y-108404419D01*
X56169962Y-108411651D01*
X56189368Y-108420830D01*
X56207781Y-108431866D01*
X56225024Y-108444654D01*
X56240930Y-108459070D01*
X56255346Y-108474976D01*
X56268134Y-108492219D01*
X56279170Y-108510632D01*
X56288349Y-108530038D01*
X56295581Y-108550250D01*
X56300797Y-108571074D01*
X56303947Y-108592309D01*
X56305000Y-108613750D01*
X56305000Y-109051250D01*
X56303947Y-109072691D01*
X56300797Y-109093926D01*
X56295581Y-109114750D01*
X56288349Y-109134962D01*
X56279170Y-109154368D01*
X56268134Y-109172781D01*
X56255346Y-109190024D01*
X56240930Y-109205930D01*
X56225024Y-109220346D01*
X56207781Y-109233134D01*
X56189368Y-109244170D01*
X56169962Y-109253349D01*
X56149750Y-109260581D01*
X56128926Y-109265797D01*
X56107691Y-109268947D01*
X56086250Y-109270000D01*
X55573750Y-109270000D01*
X55552309Y-109268947D01*
X55531074Y-109265797D01*
X55510250Y-109260581D01*
X55490038Y-109253349D01*
X55470632Y-109244170D01*
X55452219Y-109233134D01*
X55434976Y-109220346D01*
X55419070Y-109205930D01*
X55404654Y-109190024D01*
X55391866Y-109172781D01*
X55380830Y-109154368D01*
X55371651Y-109134962D01*
X55364419Y-109114750D01*
X55359203Y-109093926D01*
X55356053Y-109072691D01*
X55355000Y-109051250D01*
X55355000Y-108613750D01*
X55356053Y-108592309D01*
X55359203Y-108571074D01*
X55364419Y-108550250D01*
X55371651Y-108530038D01*
X55380830Y-108510632D01*
X55391866Y-108492219D01*
X55404654Y-108474976D01*
X55419070Y-108459070D01*
X55434976Y-108444654D01*
X55452219Y-108431866D01*
X55470632Y-108420830D01*
X55490038Y-108411651D01*
X55510250Y-108404419D01*
X55531074Y-108399203D01*
X55552309Y-108396053D01*
X55573750Y-108395000D01*
X56086250Y-108395000D01*
X56107691Y-108396053D01*
X56107691Y-108396053D01*
G37*
D19*
X55830000Y-108832500D03*
G04 #@! TD*
D18*
G04 #@! TO.C,C8*
G36*
X67038591Y-89031673D02*
X67059826Y-89034823D01*
X67080650Y-89040039D01*
X67100862Y-89047271D01*
X67120268Y-89056450D01*
X67138681Y-89067486D01*
X67155924Y-89080274D01*
X67171830Y-89094690D01*
X67186246Y-89110596D01*
X67199034Y-89127839D01*
X67210070Y-89146252D01*
X67219249Y-89165658D01*
X67226481Y-89185870D01*
X67231697Y-89206694D01*
X67234847Y-89227929D01*
X67235900Y-89249370D01*
X67235900Y-89761870D01*
X67234847Y-89783311D01*
X67231697Y-89804546D01*
X67226481Y-89825370D01*
X67219249Y-89845582D01*
X67210070Y-89864988D01*
X67199034Y-89883401D01*
X67186246Y-89900644D01*
X67171830Y-89916550D01*
X67155924Y-89930966D01*
X67138681Y-89943754D01*
X67120268Y-89954790D01*
X67100862Y-89963969D01*
X67080650Y-89971201D01*
X67059826Y-89976417D01*
X67038591Y-89979567D01*
X67017150Y-89980620D01*
X66579650Y-89980620D01*
X66558209Y-89979567D01*
X66536974Y-89976417D01*
X66516150Y-89971201D01*
X66495938Y-89963969D01*
X66476532Y-89954790D01*
X66458119Y-89943754D01*
X66440876Y-89930966D01*
X66424970Y-89916550D01*
X66410554Y-89900644D01*
X66397766Y-89883401D01*
X66386730Y-89864988D01*
X66377551Y-89845582D01*
X66370319Y-89825370D01*
X66365103Y-89804546D01*
X66361953Y-89783311D01*
X66360900Y-89761870D01*
X66360900Y-89249370D01*
X66361953Y-89227929D01*
X66365103Y-89206694D01*
X66370319Y-89185870D01*
X66377551Y-89165658D01*
X66386730Y-89146252D01*
X66397766Y-89127839D01*
X66410554Y-89110596D01*
X66424970Y-89094690D01*
X66440876Y-89080274D01*
X66458119Y-89067486D01*
X66476532Y-89056450D01*
X66495938Y-89047271D01*
X66516150Y-89040039D01*
X66536974Y-89034823D01*
X66558209Y-89031673D01*
X66579650Y-89030620D01*
X67017150Y-89030620D01*
X67038591Y-89031673D01*
X67038591Y-89031673D01*
G37*
D19*
X66798400Y-89505620D03*
D18*
G36*
X68613591Y-89031673D02*
X68634826Y-89034823D01*
X68655650Y-89040039D01*
X68675862Y-89047271D01*
X68695268Y-89056450D01*
X68713681Y-89067486D01*
X68730924Y-89080274D01*
X68746830Y-89094690D01*
X68761246Y-89110596D01*
X68774034Y-89127839D01*
X68785070Y-89146252D01*
X68794249Y-89165658D01*
X68801481Y-89185870D01*
X68806697Y-89206694D01*
X68809847Y-89227929D01*
X68810900Y-89249370D01*
X68810900Y-89761870D01*
X68809847Y-89783311D01*
X68806697Y-89804546D01*
X68801481Y-89825370D01*
X68794249Y-89845582D01*
X68785070Y-89864988D01*
X68774034Y-89883401D01*
X68761246Y-89900644D01*
X68746830Y-89916550D01*
X68730924Y-89930966D01*
X68713681Y-89943754D01*
X68695268Y-89954790D01*
X68675862Y-89963969D01*
X68655650Y-89971201D01*
X68634826Y-89976417D01*
X68613591Y-89979567D01*
X68592150Y-89980620D01*
X68154650Y-89980620D01*
X68133209Y-89979567D01*
X68111974Y-89976417D01*
X68091150Y-89971201D01*
X68070938Y-89963969D01*
X68051532Y-89954790D01*
X68033119Y-89943754D01*
X68015876Y-89930966D01*
X67999970Y-89916550D01*
X67985554Y-89900644D01*
X67972766Y-89883401D01*
X67961730Y-89864988D01*
X67952551Y-89845582D01*
X67945319Y-89825370D01*
X67940103Y-89804546D01*
X67936953Y-89783311D01*
X67935900Y-89761870D01*
X67935900Y-89249370D01*
X67936953Y-89227929D01*
X67940103Y-89206694D01*
X67945319Y-89185870D01*
X67952551Y-89165658D01*
X67961730Y-89146252D01*
X67972766Y-89127839D01*
X67985554Y-89110596D01*
X67999970Y-89094690D01*
X68015876Y-89080274D01*
X68033119Y-89067486D01*
X68051532Y-89056450D01*
X68070938Y-89047271D01*
X68091150Y-89040039D01*
X68111974Y-89034823D01*
X68133209Y-89031673D01*
X68154650Y-89030620D01*
X68592150Y-89030620D01*
X68613591Y-89031673D01*
X68613591Y-89031673D01*
G37*
D19*
X68373400Y-89505620D03*
G04 #@! TD*
D18*
G04 #@! TO.C,C9*
G36*
X65615691Y-85820413D02*
X65636926Y-85823563D01*
X65657750Y-85828779D01*
X65677962Y-85836011D01*
X65697368Y-85845190D01*
X65715781Y-85856226D01*
X65733024Y-85869014D01*
X65748930Y-85883430D01*
X65763346Y-85899336D01*
X65776134Y-85916579D01*
X65787170Y-85934992D01*
X65796349Y-85954398D01*
X65803581Y-85974610D01*
X65808797Y-85995434D01*
X65811947Y-86016669D01*
X65813000Y-86038110D01*
X65813000Y-86475610D01*
X65811947Y-86497051D01*
X65808797Y-86518286D01*
X65803581Y-86539110D01*
X65796349Y-86559322D01*
X65787170Y-86578728D01*
X65776134Y-86597141D01*
X65763346Y-86614384D01*
X65748930Y-86630290D01*
X65733024Y-86644706D01*
X65715781Y-86657494D01*
X65697368Y-86668530D01*
X65677962Y-86677709D01*
X65657750Y-86684941D01*
X65636926Y-86690157D01*
X65615691Y-86693307D01*
X65594250Y-86694360D01*
X65081750Y-86694360D01*
X65060309Y-86693307D01*
X65039074Y-86690157D01*
X65018250Y-86684941D01*
X64998038Y-86677709D01*
X64978632Y-86668530D01*
X64960219Y-86657494D01*
X64942976Y-86644706D01*
X64927070Y-86630290D01*
X64912654Y-86614384D01*
X64899866Y-86597141D01*
X64888830Y-86578728D01*
X64879651Y-86559322D01*
X64872419Y-86539110D01*
X64867203Y-86518286D01*
X64864053Y-86497051D01*
X64863000Y-86475610D01*
X64863000Y-86038110D01*
X64864053Y-86016669D01*
X64867203Y-85995434D01*
X64872419Y-85974610D01*
X64879651Y-85954398D01*
X64888830Y-85934992D01*
X64899866Y-85916579D01*
X64912654Y-85899336D01*
X64927070Y-85883430D01*
X64942976Y-85869014D01*
X64960219Y-85856226D01*
X64978632Y-85845190D01*
X64998038Y-85836011D01*
X65018250Y-85828779D01*
X65039074Y-85823563D01*
X65060309Y-85820413D01*
X65081750Y-85819360D01*
X65594250Y-85819360D01*
X65615691Y-85820413D01*
X65615691Y-85820413D01*
G37*
D19*
X65338000Y-86256860D03*
D18*
G36*
X65615691Y-87395413D02*
X65636926Y-87398563D01*
X65657750Y-87403779D01*
X65677962Y-87411011D01*
X65697368Y-87420190D01*
X65715781Y-87431226D01*
X65733024Y-87444014D01*
X65748930Y-87458430D01*
X65763346Y-87474336D01*
X65776134Y-87491579D01*
X65787170Y-87509992D01*
X65796349Y-87529398D01*
X65803581Y-87549610D01*
X65808797Y-87570434D01*
X65811947Y-87591669D01*
X65813000Y-87613110D01*
X65813000Y-88050610D01*
X65811947Y-88072051D01*
X65808797Y-88093286D01*
X65803581Y-88114110D01*
X65796349Y-88134322D01*
X65787170Y-88153728D01*
X65776134Y-88172141D01*
X65763346Y-88189384D01*
X65748930Y-88205290D01*
X65733024Y-88219706D01*
X65715781Y-88232494D01*
X65697368Y-88243530D01*
X65677962Y-88252709D01*
X65657750Y-88259941D01*
X65636926Y-88265157D01*
X65615691Y-88268307D01*
X65594250Y-88269360D01*
X65081750Y-88269360D01*
X65060309Y-88268307D01*
X65039074Y-88265157D01*
X65018250Y-88259941D01*
X64998038Y-88252709D01*
X64978632Y-88243530D01*
X64960219Y-88232494D01*
X64942976Y-88219706D01*
X64927070Y-88205290D01*
X64912654Y-88189384D01*
X64899866Y-88172141D01*
X64888830Y-88153728D01*
X64879651Y-88134322D01*
X64872419Y-88114110D01*
X64867203Y-88093286D01*
X64864053Y-88072051D01*
X64863000Y-88050610D01*
X64863000Y-87613110D01*
X64864053Y-87591669D01*
X64867203Y-87570434D01*
X64872419Y-87549610D01*
X64879651Y-87529398D01*
X64888830Y-87509992D01*
X64899866Y-87491579D01*
X64912654Y-87474336D01*
X64927070Y-87458430D01*
X64942976Y-87444014D01*
X64960219Y-87431226D01*
X64978632Y-87420190D01*
X64998038Y-87411011D01*
X65018250Y-87403779D01*
X65039074Y-87398563D01*
X65060309Y-87395413D01*
X65081750Y-87394360D01*
X65594250Y-87394360D01*
X65615691Y-87395413D01*
X65615691Y-87395413D01*
G37*
D19*
X65338000Y-87831860D03*
G04 #@! TD*
D18*
G04 #@! TO.C,C10*
G36*
X68793991Y-83049553D02*
X68815226Y-83052703D01*
X68836050Y-83057919D01*
X68856262Y-83065151D01*
X68875668Y-83074330D01*
X68894081Y-83085366D01*
X68911324Y-83098154D01*
X68927230Y-83112570D01*
X68941646Y-83128476D01*
X68954434Y-83145719D01*
X68965470Y-83164132D01*
X68974649Y-83183538D01*
X68981881Y-83203750D01*
X68987097Y-83224574D01*
X68990247Y-83245809D01*
X68991300Y-83267250D01*
X68991300Y-83704750D01*
X68990247Y-83726191D01*
X68987097Y-83747426D01*
X68981881Y-83768250D01*
X68974649Y-83788462D01*
X68965470Y-83807868D01*
X68954434Y-83826281D01*
X68941646Y-83843524D01*
X68927230Y-83859430D01*
X68911324Y-83873846D01*
X68894081Y-83886634D01*
X68875668Y-83897670D01*
X68856262Y-83906849D01*
X68836050Y-83914081D01*
X68815226Y-83919297D01*
X68793991Y-83922447D01*
X68772550Y-83923500D01*
X68260050Y-83923500D01*
X68238609Y-83922447D01*
X68217374Y-83919297D01*
X68196550Y-83914081D01*
X68176338Y-83906849D01*
X68156932Y-83897670D01*
X68138519Y-83886634D01*
X68121276Y-83873846D01*
X68105370Y-83859430D01*
X68090954Y-83843524D01*
X68078166Y-83826281D01*
X68067130Y-83807868D01*
X68057951Y-83788462D01*
X68050719Y-83768250D01*
X68045503Y-83747426D01*
X68042353Y-83726191D01*
X68041300Y-83704750D01*
X68041300Y-83267250D01*
X68042353Y-83245809D01*
X68045503Y-83224574D01*
X68050719Y-83203750D01*
X68057951Y-83183538D01*
X68067130Y-83164132D01*
X68078166Y-83145719D01*
X68090954Y-83128476D01*
X68105370Y-83112570D01*
X68121276Y-83098154D01*
X68138519Y-83085366D01*
X68156932Y-83074330D01*
X68176338Y-83065151D01*
X68196550Y-83057919D01*
X68217374Y-83052703D01*
X68238609Y-83049553D01*
X68260050Y-83048500D01*
X68772550Y-83048500D01*
X68793991Y-83049553D01*
X68793991Y-83049553D01*
G37*
D19*
X68516300Y-83486000D03*
D18*
G36*
X68793991Y-81474553D02*
X68815226Y-81477703D01*
X68836050Y-81482919D01*
X68856262Y-81490151D01*
X68875668Y-81499330D01*
X68894081Y-81510366D01*
X68911324Y-81523154D01*
X68927230Y-81537570D01*
X68941646Y-81553476D01*
X68954434Y-81570719D01*
X68965470Y-81589132D01*
X68974649Y-81608538D01*
X68981881Y-81628750D01*
X68987097Y-81649574D01*
X68990247Y-81670809D01*
X68991300Y-81692250D01*
X68991300Y-82129750D01*
X68990247Y-82151191D01*
X68987097Y-82172426D01*
X68981881Y-82193250D01*
X68974649Y-82213462D01*
X68965470Y-82232868D01*
X68954434Y-82251281D01*
X68941646Y-82268524D01*
X68927230Y-82284430D01*
X68911324Y-82298846D01*
X68894081Y-82311634D01*
X68875668Y-82322670D01*
X68856262Y-82331849D01*
X68836050Y-82339081D01*
X68815226Y-82344297D01*
X68793991Y-82347447D01*
X68772550Y-82348500D01*
X68260050Y-82348500D01*
X68238609Y-82347447D01*
X68217374Y-82344297D01*
X68196550Y-82339081D01*
X68176338Y-82331849D01*
X68156932Y-82322670D01*
X68138519Y-82311634D01*
X68121276Y-82298846D01*
X68105370Y-82284430D01*
X68090954Y-82268524D01*
X68078166Y-82251281D01*
X68067130Y-82232868D01*
X68057951Y-82213462D01*
X68050719Y-82193250D01*
X68045503Y-82172426D01*
X68042353Y-82151191D01*
X68041300Y-82129750D01*
X68041300Y-81692250D01*
X68042353Y-81670809D01*
X68045503Y-81649574D01*
X68050719Y-81628750D01*
X68057951Y-81608538D01*
X68067130Y-81589132D01*
X68078166Y-81570719D01*
X68090954Y-81553476D01*
X68105370Y-81537570D01*
X68121276Y-81523154D01*
X68138519Y-81510366D01*
X68156932Y-81499330D01*
X68176338Y-81490151D01*
X68196550Y-81482919D01*
X68217374Y-81477703D01*
X68238609Y-81474553D01*
X68260050Y-81473500D01*
X68772550Y-81473500D01*
X68793991Y-81474553D01*
X68793991Y-81474553D01*
G37*
D19*
X68516300Y-81911000D03*
G04 #@! TD*
D18*
G04 #@! TO.C,C11*
G36*
X65537451Y-90476933D02*
X65558686Y-90480083D01*
X65579510Y-90485299D01*
X65599722Y-90492531D01*
X65619128Y-90501710D01*
X65637541Y-90512746D01*
X65654784Y-90525534D01*
X65670690Y-90539950D01*
X65685106Y-90555856D01*
X65697894Y-90573099D01*
X65708930Y-90591512D01*
X65718109Y-90610918D01*
X65725341Y-90631130D01*
X65730557Y-90651954D01*
X65733707Y-90673189D01*
X65734760Y-90694630D01*
X65734760Y-91207130D01*
X65733707Y-91228571D01*
X65730557Y-91249806D01*
X65725341Y-91270630D01*
X65718109Y-91290842D01*
X65708930Y-91310248D01*
X65697894Y-91328661D01*
X65685106Y-91345904D01*
X65670690Y-91361810D01*
X65654784Y-91376226D01*
X65637541Y-91389014D01*
X65619128Y-91400050D01*
X65599722Y-91409229D01*
X65579510Y-91416461D01*
X65558686Y-91421677D01*
X65537451Y-91424827D01*
X65516010Y-91425880D01*
X65078510Y-91425880D01*
X65057069Y-91424827D01*
X65035834Y-91421677D01*
X65015010Y-91416461D01*
X64994798Y-91409229D01*
X64975392Y-91400050D01*
X64956979Y-91389014D01*
X64939736Y-91376226D01*
X64923830Y-91361810D01*
X64909414Y-91345904D01*
X64896626Y-91328661D01*
X64885590Y-91310248D01*
X64876411Y-91290842D01*
X64869179Y-91270630D01*
X64863963Y-91249806D01*
X64860813Y-91228571D01*
X64859760Y-91207130D01*
X64859760Y-90694630D01*
X64860813Y-90673189D01*
X64863963Y-90651954D01*
X64869179Y-90631130D01*
X64876411Y-90610918D01*
X64885590Y-90591512D01*
X64896626Y-90573099D01*
X64909414Y-90555856D01*
X64923830Y-90539950D01*
X64939736Y-90525534D01*
X64956979Y-90512746D01*
X64975392Y-90501710D01*
X64994798Y-90492531D01*
X65015010Y-90485299D01*
X65035834Y-90480083D01*
X65057069Y-90476933D01*
X65078510Y-90475880D01*
X65516010Y-90475880D01*
X65537451Y-90476933D01*
X65537451Y-90476933D01*
G37*
D19*
X65297260Y-90950880D03*
D18*
G36*
X67112451Y-90476933D02*
X67133686Y-90480083D01*
X67154510Y-90485299D01*
X67174722Y-90492531D01*
X67194128Y-90501710D01*
X67212541Y-90512746D01*
X67229784Y-90525534D01*
X67245690Y-90539950D01*
X67260106Y-90555856D01*
X67272894Y-90573099D01*
X67283930Y-90591512D01*
X67293109Y-90610918D01*
X67300341Y-90631130D01*
X67305557Y-90651954D01*
X67308707Y-90673189D01*
X67309760Y-90694630D01*
X67309760Y-91207130D01*
X67308707Y-91228571D01*
X67305557Y-91249806D01*
X67300341Y-91270630D01*
X67293109Y-91290842D01*
X67283930Y-91310248D01*
X67272894Y-91328661D01*
X67260106Y-91345904D01*
X67245690Y-91361810D01*
X67229784Y-91376226D01*
X67212541Y-91389014D01*
X67194128Y-91400050D01*
X67174722Y-91409229D01*
X67154510Y-91416461D01*
X67133686Y-91421677D01*
X67112451Y-91424827D01*
X67091010Y-91425880D01*
X66653510Y-91425880D01*
X66632069Y-91424827D01*
X66610834Y-91421677D01*
X66590010Y-91416461D01*
X66569798Y-91409229D01*
X66550392Y-91400050D01*
X66531979Y-91389014D01*
X66514736Y-91376226D01*
X66498830Y-91361810D01*
X66484414Y-91345904D01*
X66471626Y-91328661D01*
X66460590Y-91310248D01*
X66451411Y-91290842D01*
X66444179Y-91270630D01*
X66438963Y-91249806D01*
X66435813Y-91228571D01*
X66434760Y-91207130D01*
X66434760Y-90694630D01*
X66435813Y-90673189D01*
X66438963Y-90651954D01*
X66444179Y-90631130D01*
X66451411Y-90610918D01*
X66460590Y-90591512D01*
X66471626Y-90573099D01*
X66484414Y-90555856D01*
X66498830Y-90539950D01*
X66514736Y-90525534D01*
X66531979Y-90512746D01*
X66550392Y-90501710D01*
X66569798Y-90492531D01*
X66590010Y-90485299D01*
X66610834Y-90480083D01*
X66632069Y-90476933D01*
X66653510Y-90475880D01*
X67091010Y-90475880D01*
X67112451Y-90476933D01*
X67112451Y-90476933D01*
G37*
D19*
X66872260Y-90950880D03*
G04 #@! TD*
D18*
G04 #@! TO.C,C12*
G36*
X71478711Y-53800313D02*
X71499946Y-53803463D01*
X71520770Y-53808679D01*
X71540982Y-53815911D01*
X71560388Y-53825090D01*
X71578801Y-53836126D01*
X71596044Y-53848914D01*
X71611950Y-53863330D01*
X71626366Y-53879236D01*
X71639154Y-53896479D01*
X71650190Y-53914892D01*
X71659369Y-53934298D01*
X71666601Y-53954510D01*
X71671817Y-53975334D01*
X71674967Y-53996569D01*
X71676020Y-54018010D01*
X71676020Y-54530510D01*
X71674967Y-54551951D01*
X71671817Y-54573186D01*
X71666601Y-54594010D01*
X71659369Y-54614222D01*
X71650190Y-54633628D01*
X71639154Y-54652041D01*
X71626366Y-54669284D01*
X71611950Y-54685190D01*
X71596044Y-54699606D01*
X71578801Y-54712394D01*
X71560388Y-54723430D01*
X71540982Y-54732609D01*
X71520770Y-54739841D01*
X71499946Y-54745057D01*
X71478711Y-54748207D01*
X71457270Y-54749260D01*
X71019770Y-54749260D01*
X70998329Y-54748207D01*
X70977094Y-54745057D01*
X70956270Y-54739841D01*
X70936058Y-54732609D01*
X70916652Y-54723430D01*
X70898239Y-54712394D01*
X70880996Y-54699606D01*
X70865090Y-54685190D01*
X70850674Y-54669284D01*
X70837886Y-54652041D01*
X70826850Y-54633628D01*
X70817671Y-54614222D01*
X70810439Y-54594010D01*
X70805223Y-54573186D01*
X70802073Y-54551951D01*
X70801020Y-54530510D01*
X70801020Y-54018010D01*
X70802073Y-53996569D01*
X70805223Y-53975334D01*
X70810439Y-53954510D01*
X70817671Y-53934298D01*
X70826850Y-53914892D01*
X70837886Y-53896479D01*
X70850674Y-53879236D01*
X70865090Y-53863330D01*
X70880996Y-53848914D01*
X70898239Y-53836126D01*
X70916652Y-53825090D01*
X70936058Y-53815911D01*
X70956270Y-53808679D01*
X70977094Y-53803463D01*
X70998329Y-53800313D01*
X71019770Y-53799260D01*
X71457270Y-53799260D01*
X71478711Y-53800313D01*
X71478711Y-53800313D01*
G37*
D19*
X71238520Y-54274260D03*
D18*
G36*
X73053711Y-53800313D02*
X73074946Y-53803463D01*
X73095770Y-53808679D01*
X73115982Y-53815911D01*
X73135388Y-53825090D01*
X73153801Y-53836126D01*
X73171044Y-53848914D01*
X73186950Y-53863330D01*
X73201366Y-53879236D01*
X73214154Y-53896479D01*
X73225190Y-53914892D01*
X73234369Y-53934298D01*
X73241601Y-53954510D01*
X73246817Y-53975334D01*
X73249967Y-53996569D01*
X73251020Y-54018010D01*
X73251020Y-54530510D01*
X73249967Y-54551951D01*
X73246817Y-54573186D01*
X73241601Y-54594010D01*
X73234369Y-54614222D01*
X73225190Y-54633628D01*
X73214154Y-54652041D01*
X73201366Y-54669284D01*
X73186950Y-54685190D01*
X73171044Y-54699606D01*
X73153801Y-54712394D01*
X73135388Y-54723430D01*
X73115982Y-54732609D01*
X73095770Y-54739841D01*
X73074946Y-54745057D01*
X73053711Y-54748207D01*
X73032270Y-54749260D01*
X72594770Y-54749260D01*
X72573329Y-54748207D01*
X72552094Y-54745057D01*
X72531270Y-54739841D01*
X72511058Y-54732609D01*
X72491652Y-54723430D01*
X72473239Y-54712394D01*
X72455996Y-54699606D01*
X72440090Y-54685190D01*
X72425674Y-54669284D01*
X72412886Y-54652041D01*
X72401850Y-54633628D01*
X72392671Y-54614222D01*
X72385439Y-54594010D01*
X72380223Y-54573186D01*
X72377073Y-54551951D01*
X72376020Y-54530510D01*
X72376020Y-54018010D01*
X72377073Y-53996569D01*
X72380223Y-53975334D01*
X72385439Y-53954510D01*
X72392671Y-53934298D01*
X72401850Y-53914892D01*
X72412886Y-53896479D01*
X72425674Y-53879236D01*
X72440090Y-53863330D01*
X72455996Y-53848914D01*
X72473239Y-53836126D01*
X72491652Y-53825090D01*
X72511058Y-53815911D01*
X72531270Y-53808679D01*
X72552094Y-53803463D01*
X72573329Y-53800313D01*
X72594770Y-53799260D01*
X73032270Y-53799260D01*
X73053711Y-53800313D01*
X73053711Y-53800313D01*
G37*
D19*
X72813520Y-54274260D03*
G04 #@! TD*
D18*
G04 #@! TO.C,C13*
G36*
X73404291Y-48869553D02*
X73425526Y-48872703D01*
X73446350Y-48877919D01*
X73466562Y-48885151D01*
X73485968Y-48894330D01*
X73504381Y-48905366D01*
X73521624Y-48918154D01*
X73537530Y-48932570D01*
X73551946Y-48948476D01*
X73564734Y-48965719D01*
X73575770Y-48984132D01*
X73584949Y-49003538D01*
X73592181Y-49023750D01*
X73597397Y-49044574D01*
X73600547Y-49065809D01*
X73601600Y-49087250D01*
X73601600Y-49524750D01*
X73600547Y-49546191D01*
X73597397Y-49567426D01*
X73592181Y-49588250D01*
X73584949Y-49608462D01*
X73575770Y-49627868D01*
X73564734Y-49646281D01*
X73551946Y-49663524D01*
X73537530Y-49679430D01*
X73521624Y-49693846D01*
X73504381Y-49706634D01*
X73485968Y-49717670D01*
X73466562Y-49726849D01*
X73446350Y-49734081D01*
X73425526Y-49739297D01*
X73404291Y-49742447D01*
X73382850Y-49743500D01*
X72870350Y-49743500D01*
X72848909Y-49742447D01*
X72827674Y-49739297D01*
X72806850Y-49734081D01*
X72786638Y-49726849D01*
X72767232Y-49717670D01*
X72748819Y-49706634D01*
X72731576Y-49693846D01*
X72715670Y-49679430D01*
X72701254Y-49663524D01*
X72688466Y-49646281D01*
X72677430Y-49627868D01*
X72668251Y-49608462D01*
X72661019Y-49588250D01*
X72655803Y-49567426D01*
X72652653Y-49546191D01*
X72651600Y-49524750D01*
X72651600Y-49087250D01*
X72652653Y-49065809D01*
X72655803Y-49044574D01*
X72661019Y-49023750D01*
X72668251Y-49003538D01*
X72677430Y-48984132D01*
X72688466Y-48965719D01*
X72701254Y-48948476D01*
X72715670Y-48932570D01*
X72731576Y-48918154D01*
X72748819Y-48905366D01*
X72767232Y-48894330D01*
X72786638Y-48885151D01*
X72806850Y-48877919D01*
X72827674Y-48872703D01*
X72848909Y-48869553D01*
X72870350Y-48868500D01*
X73382850Y-48868500D01*
X73404291Y-48869553D01*
X73404291Y-48869553D01*
G37*
D19*
X73126600Y-49306000D03*
D18*
G36*
X73404291Y-50444553D02*
X73425526Y-50447703D01*
X73446350Y-50452919D01*
X73466562Y-50460151D01*
X73485968Y-50469330D01*
X73504381Y-50480366D01*
X73521624Y-50493154D01*
X73537530Y-50507570D01*
X73551946Y-50523476D01*
X73564734Y-50540719D01*
X73575770Y-50559132D01*
X73584949Y-50578538D01*
X73592181Y-50598750D01*
X73597397Y-50619574D01*
X73600547Y-50640809D01*
X73601600Y-50662250D01*
X73601600Y-51099750D01*
X73600547Y-51121191D01*
X73597397Y-51142426D01*
X73592181Y-51163250D01*
X73584949Y-51183462D01*
X73575770Y-51202868D01*
X73564734Y-51221281D01*
X73551946Y-51238524D01*
X73537530Y-51254430D01*
X73521624Y-51268846D01*
X73504381Y-51281634D01*
X73485968Y-51292670D01*
X73466562Y-51301849D01*
X73446350Y-51309081D01*
X73425526Y-51314297D01*
X73404291Y-51317447D01*
X73382850Y-51318500D01*
X72870350Y-51318500D01*
X72848909Y-51317447D01*
X72827674Y-51314297D01*
X72806850Y-51309081D01*
X72786638Y-51301849D01*
X72767232Y-51292670D01*
X72748819Y-51281634D01*
X72731576Y-51268846D01*
X72715670Y-51254430D01*
X72701254Y-51238524D01*
X72688466Y-51221281D01*
X72677430Y-51202868D01*
X72668251Y-51183462D01*
X72661019Y-51163250D01*
X72655803Y-51142426D01*
X72652653Y-51121191D01*
X72651600Y-51099750D01*
X72651600Y-50662250D01*
X72652653Y-50640809D01*
X72655803Y-50619574D01*
X72661019Y-50598750D01*
X72668251Y-50578538D01*
X72677430Y-50559132D01*
X72688466Y-50540719D01*
X72701254Y-50523476D01*
X72715670Y-50507570D01*
X72731576Y-50493154D01*
X72748819Y-50480366D01*
X72767232Y-50469330D01*
X72786638Y-50460151D01*
X72806850Y-50452919D01*
X72827674Y-50447703D01*
X72848909Y-50444553D01*
X72870350Y-50443500D01*
X73382850Y-50443500D01*
X73404291Y-50444553D01*
X73404291Y-50444553D01*
G37*
D19*
X73126600Y-50881000D03*
G04 #@! TD*
D18*
G04 #@! TO.C,C14*
G36*
X64923991Y-51882153D02*
X64945226Y-51885303D01*
X64966050Y-51890519D01*
X64986262Y-51897751D01*
X65005668Y-51906930D01*
X65024081Y-51917966D01*
X65041324Y-51930754D01*
X65057230Y-51945170D01*
X65071646Y-51961076D01*
X65084434Y-51978319D01*
X65095470Y-51996732D01*
X65104649Y-52016138D01*
X65111881Y-52036350D01*
X65117097Y-52057174D01*
X65120247Y-52078409D01*
X65121300Y-52099850D01*
X65121300Y-52612350D01*
X65120247Y-52633791D01*
X65117097Y-52655026D01*
X65111881Y-52675850D01*
X65104649Y-52696062D01*
X65095470Y-52715468D01*
X65084434Y-52733881D01*
X65071646Y-52751124D01*
X65057230Y-52767030D01*
X65041324Y-52781446D01*
X65024081Y-52794234D01*
X65005668Y-52805270D01*
X64986262Y-52814449D01*
X64966050Y-52821681D01*
X64945226Y-52826897D01*
X64923991Y-52830047D01*
X64902550Y-52831100D01*
X64465050Y-52831100D01*
X64443609Y-52830047D01*
X64422374Y-52826897D01*
X64401550Y-52821681D01*
X64381338Y-52814449D01*
X64361932Y-52805270D01*
X64343519Y-52794234D01*
X64326276Y-52781446D01*
X64310370Y-52767030D01*
X64295954Y-52751124D01*
X64283166Y-52733881D01*
X64272130Y-52715468D01*
X64262951Y-52696062D01*
X64255719Y-52675850D01*
X64250503Y-52655026D01*
X64247353Y-52633791D01*
X64246300Y-52612350D01*
X64246300Y-52099850D01*
X64247353Y-52078409D01*
X64250503Y-52057174D01*
X64255719Y-52036350D01*
X64262951Y-52016138D01*
X64272130Y-51996732D01*
X64283166Y-51978319D01*
X64295954Y-51961076D01*
X64310370Y-51945170D01*
X64326276Y-51930754D01*
X64343519Y-51917966D01*
X64361932Y-51906930D01*
X64381338Y-51897751D01*
X64401550Y-51890519D01*
X64422374Y-51885303D01*
X64443609Y-51882153D01*
X64465050Y-51881100D01*
X64902550Y-51881100D01*
X64923991Y-51882153D01*
X64923991Y-51882153D01*
G37*
D19*
X64683800Y-52356100D03*
D18*
G36*
X63348991Y-51882153D02*
X63370226Y-51885303D01*
X63391050Y-51890519D01*
X63411262Y-51897751D01*
X63430668Y-51906930D01*
X63449081Y-51917966D01*
X63466324Y-51930754D01*
X63482230Y-51945170D01*
X63496646Y-51961076D01*
X63509434Y-51978319D01*
X63520470Y-51996732D01*
X63529649Y-52016138D01*
X63536881Y-52036350D01*
X63542097Y-52057174D01*
X63545247Y-52078409D01*
X63546300Y-52099850D01*
X63546300Y-52612350D01*
X63545247Y-52633791D01*
X63542097Y-52655026D01*
X63536881Y-52675850D01*
X63529649Y-52696062D01*
X63520470Y-52715468D01*
X63509434Y-52733881D01*
X63496646Y-52751124D01*
X63482230Y-52767030D01*
X63466324Y-52781446D01*
X63449081Y-52794234D01*
X63430668Y-52805270D01*
X63411262Y-52814449D01*
X63391050Y-52821681D01*
X63370226Y-52826897D01*
X63348991Y-52830047D01*
X63327550Y-52831100D01*
X62890050Y-52831100D01*
X62868609Y-52830047D01*
X62847374Y-52826897D01*
X62826550Y-52821681D01*
X62806338Y-52814449D01*
X62786932Y-52805270D01*
X62768519Y-52794234D01*
X62751276Y-52781446D01*
X62735370Y-52767030D01*
X62720954Y-52751124D01*
X62708166Y-52733881D01*
X62697130Y-52715468D01*
X62687951Y-52696062D01*
X62680719Y-52675850D01*
X62675503Y-52655026D01*
X62672353Y-52633791D01*
X62671300Y-52612350D01*
X62671300Y-52099850D01*
X62672353Y-52078409D01*
X62675503Y-52057174D01*
X62680719Y-52036350D01*
X62687951Y-52016138D01*
X62697130Y-51996732D01*
X62708166Y-51978319D01*
X62720954Y-51961076D01*
X62735370Y-51945170D01*
X62751276Y-51930754D01*
X62768519Y-51917966D01*
X62786932Y-51906930D01*
X62806338Y-51897751D01*
X62826550Y-51890519D01*
X62847374Y-51885303D01*
X62868609Y-51882153D01*
X62890050Y-51881100D01*
X63327550Y-51881100D01*
X63348991Y-51882153D01*
X63348991Y-51882153D01*
G37*
D19*
X63108800Y-52356100D03*
G04 #@! TD*
D20*
G04 #@! TO.C,D3*
X77424520Y-49918160D03*
X80724520Y-49918160D03*
G04 #@! TD*
D18*
G04 #@! TO.C,R1*
G36*
X74877291Y-93107753D02*
X74898526Y-93110903D01*
X74919350Y-93116119D01*
X74939562Y-93123351D01*
X74958968Y-93132530D01*
X74977381Y-93143566D01*
X74994624Y-93156354D01*
X75010530Y-93170770D01*
X75024946Y-93186676D01*
X75037734Y-93203919D01*
X75048770Y-93222332D01*
X75057949Y-93241738D01*
X75065181Y-93261950D01*
X75070397Y-93282774D01*
X75073547Y-93304009D01*
X75074600Y-93325450D01*
X75074600Y-93762950D01*
X75073547Y-93784391D01*
X75070397Y-93805626D01*
X75065181Y-93826450D01*
X75057949Y-93846662D01*
X75048770Y-93866068D01*
X75037734Y-93884481D01*
X75024946Y-93901724D01*
X75010530Y-93917630D01*
X74994624Y-93932046D01*
X74977381Y-93944834D01*
X74958968Y-93955870D01*
X74939562Y-93965049D01*
X74919350Y-93972281D01*
X74898526Y-93977497D01*
X74877291Y-93980647D01*
X74855850Y-93981700D01*
X74343350Y-93981700D01*
X74321909Y-93980647D01*
X74300674Y-93977497D01*
X74279850Y-93972281D01*
X74259638Y-93965049D01*
X74240232Y-93955870D01*
X74221819Y-93944834D01*
X74204576Y-93932046D01*
X74188670Y-93917630D01*
X74174254Y-93901724D01*
X74161466Y-93884481D01*
X74150430Y-93866068D01*
X74141251Y-93846662D01*
X74134019Y-93826450D01*
X74128803Y-93805626D01*
X74125653Y-93784391D01*
X74124600Y-93762950D01*
X74124600Y-93325450D01*
X74125653Y-93304009D01*
X74128803Y-93282774D01*
X74134019Y-93261950D01*
X74141251Y-93241738D01*
X74150430Y-93222332D01*
X74161466Y-93203919D01*
X74174254Y-93186676D01*
X74188670Y-93170770D01*
X74204576Y-93156354D01*
X74221819Y-93143566D01*
X74240232Y-93132530D01*
X74259638Y-93123351D01*
X74279850Y-93116119D01*
X74300674Y-93110903D01*
X74321909Y-93107753D01*
X74343350Y-93106700D01*
X74855850Y-93106700D01*
X74877291Y-93107753D01*
X74877291Y-93107753D01*
G37*
D19*
X74599600Y-93544200D03*
D18*
G36*
X74877291Y-94682753D02*
X74898526Y-94685903D01*
X74919350Y-94691119D01*
X74939562Y-94698351D01*
X74958968Y-94707530D01*
X74977381Y-94718566D01*
X74994624Y-94731354D01*
X75010530Y-94745770D01*
X75024946Y-94761676D01*
X75037734Y-94778919D01*
X75048770Y-94797332D01*
X75057949Y-94816738D01*
X75065181Y-94836950D01*
X75070397Y-94857774D01*
X75073547Y-94879009D01*
X75074600Y-94900450D01*
X75074600Y-95337950D01*
X75073547Y-95359391D01*
X75070397Y-95380626D01*
X75065181Y-95401450D01*
X75057949Y-95421662D01*
X75048770Y-95441068D01*
X75037734Y-95459481D01*
X75024946Y-95476724D01*
X75010530Y-95492630D01*
X74994624Y-95507046D01*
X74977381Y-95519834D01*
X74958968Y-95530870D01*
X74939562Y-95540049D01*
X74919350Y-95547281D01*
X74898526Y-95552497D01*
X74877291Y-95555647D01*
X74855850Y-95556700D01*
X74343350Y-95556700D01*
X74321909Y-95555647D01*
X74300674Y-95552497D01*
X74279850Y-95547281D01*
X74259638Y-95540049D01*
X74240232Y-95530870D01*
X74221819Y-95519834D01*
X74204576Y-95507046D01*
X74188670Y-95492630D01*
X74174254Y-95476724D01*
X74161466Y-95459481D01*
X74150430Y-95441068D01*
X74141251Y-95421662D01*
X74134019Y-95401450D01*
X74128803Y-95380626D01*
X74125653Y-95359391D01*
X74124600Y-95337950D01*
X74124600Y-94900450D01*
X74125653Y-94879009D01*
X74128803Y-94857774D01*
X74134019Y-94836950D01*
X74141251Y-94816738D01*
X74150430Y-94797332D01*
X74161466Y-94778919D01*
X74174254Y-94761676D01*
X74188670Y-94745770D01*
X74204576Y-94731354D01*
X74221819Y-94718566D01*
X74240232Y-94707530D01*
X74259638Y-94698351D01*
X74279850Y-94691119D01*
X74300674Y-94685903D01*
X74321909Y-94682753D01*
X74343350Y-94681700D01*
X74855850Y-94681700D01*
X74877291Y-94682753D01*
X74877291Y-94682753D01*
G37*
D19*
X74599600Y-95119200D03*
G04 #@! TD*
D18*
G04 #@! TO.C,R2*
G36*
X80516791Y-85856753D02*
X80538026Y-85859903D01*
X80558850Y-85865119D01*
X80579062Y-85872351D01*
X80598468Y-85881530D01*
X80616881Y-85892566D01*
X80634124Y-85905354D01*
X80650030Y-85919770D01*
X80664446Y-85935676D01*
X80677234Y-85952919D01*
X80688270Y-85971332D01*
X80697449Y-85990738D01*
X80704681Y-86010950D01*
X80709897Y-86031774D01*
X80713047Y-86053009D01*
X80714100Y-86074450D01*
X80714100Y-86586950D01*
X80713047Y-86608391D01*
X80709897Y-86629626D01*
X80704681Y-86650450D01*
X80697449Y-86670662D01*
X80688270Y-86690068D01*
X80677234Y-86708481D01*
X80664446Y-86725724D01*
X80650030Y-86741630D01*
X80634124Y-86756046D01*
X80616881Y-86768834D01*
X80598468Y-86779870D01*
X80579062Y-86789049D01*
X80558850Y-86796281D01*
X80538026Y-86801497D01*
X80516791Y-86804647D01*
X80495350Y-86805700D01*
X80057850Y-86805700D01*
X80036409Y-86804647D01*
X80015174Y-86801497D01*
X79994350Y-86796281D01*
X79974138Y-86789049D01*
X79954732Y-86779870D01*
X79936319Y-86768834D01*
X79919076Y-86756046D01*
X79903170Y-86741630D01*
X79888754Y-86725724D01*
X79875966Y-86708481D01*
X79864930Y-86690068D01*
X79855751Y-86670662D01*
X79848519Y-86650450D01*
X79843303Y-86629626D01*
X79840153Y-86608391D01*
X79839100Y-86586950D01*
X79839100Y-86074450D01*
X79840153Y-86053009D01*
X79843303Y-86031774D01*
X79848519Y-86010950D01*
X79855751Y-85990738D01*
X79864930Y-85971332D01*
X79875966Y-85952919D01*
X79888754Y-85935676D01*
X79903170Y-85919770D01*
X79919076Y-85905354D01*
X79936319Y-85892566D01*
X79954732Y-85881530D01*
X79974138Y-85872351D01*
X79994350Y-85865119D01*
X80015174Y-85859903D01*
X80036409Y-85856753D01*
X80057850Y-85855700D01*
X80495350Y-85855700D01*
X80516791Y-85856753D01*
X80516791Y-85856753D01*
G37*
D19*
X80276600Y-86330700D03*
D18*
G36*
X78941791Y-85856753D02*
X78963026Y-85859903D01*
X78983850Y-85865119D01*
X79004062Y-85872351D01*
X79023468Y-85881530D01*
X79041881Y-85892566D01*
X79059124Y-85905354D01*
X79075030Y-85919770D01*
X79089446Y-85935676D01*
X79102234Y-85952919D01*
X79113270Y-85971332D01*
X79122449Y-85990738D01*
X79129681Y-86010950D01*
X79134897Y-86031774D01*
X79138047Y-86053009D01*
X79139100Y-86074450D01*
X79139100Y-86586950D01*
X79138047Y-86608391D01*
X79134897Y-86629626D01*
X79129681Y-86650450D01*
X79122449Y-86670662D01*
X79113270Y-86690068D01*
X79102234Y-86708481D01*
X79089446Y-86725724D01*
X79075030Y-86741630D01*
X79059124Y-86756046D01*
X79041881Y-86768834D01*
X79023468Y-86779870D01*
X79004062Y-86789049D01*
X78983850Y-86796281D01*
X78963026Y-86801497D01*
X78941791Y-86804647D01*
X78920350Y-86805700D01*
X78482850Y-86805700D01*
X78461409Y-86804647D01*
X78440174Y-86801497D01*
X78419350Y-86796281D01*
X78399138Y-86789049D01*
X78379732Y-86779870D01*
X78361319Y-86768834D01*
X78344076Y-86756046D01*
X78328170Y-86741630D01*
X78313754Y-86725724D01*
X78300966Y-86708481D01*
X78289930Y-86690068D01*
X78280751Y-86670662D01*
X78273519Y-86650450D01*
X78268303Y-86629626D01*
X78265153Y-86608391D01*
X78264100Y-86586950D01*
X78264100Y-86074450D01*
X78265153Y-86053009D01*
X78268303Y-86031774D01*
X78273519Y-86010950D01*
X78280751Y-85990738D01*
X78289930Y-85971332D01*
X78300966Y-85952919D01*
X78313754Y-85935676D01*
X78328170Y-85919770D01*
X78344076Y-85905354D01*
X78361319Y-85892566D01*
X78379732Y-85881530D01*
X78399138Y-85872351D01*
X78419350Y-85865119D01*
X78440174Y-85859903D01*
X78461409Y-85856753D01*
X78482850Y-85855700D01*
X78920350Y-85855700D01*
X78941791Y-85856753D01*
X78941791Y-85856753D01*
G37*
D19*
X78701600Y-86330700D03*
G04 #@! TD*
D18*
G04 #@! TO.C,R3*
G36*
X73237791Y-93119753D02*
X73259026Y-93122903D01*
X73279850Y-93128119D01*
X73300062Y-93135351D01*
X73319468Y-93144530D01*
X73337881Y-93155566D01*
X73355124Y-93168354D01*
X73371030Y-93182770D01*
X73385446Y-93198676D01*
X73398234Y-93215919D01*
X73409270Y-93234332D01*
X73418449Y-93253738D01*
X73425681Y-93273950D01*
X73430897Y-93294774D01*
X73434047Y-93316009D01*
X73435100Y-93337450D01*
X73435100Y-93774950D01*
X73434047Y-93796391D01*
X73430897Y-93817626D01*
X73425681Y-93838450D01*
X73418449Y-93858662D01*
X73409270Y-93878068D01*
X73398234Y-93896481D01*
X73385446Y-93913724D01*
X73371030Y-93929630D01*
X73355124Y-93944046D01*
X73337881Y-93956834D01*
X73319468Y-93967870D01*
X73300062Y-93977049D01*
X73279850Y-93984281D01*
X73259026Y-93989497D01*
X73237791Y-93992647D01*
X73216350Y-93993700D01*
X72703850Y-93993700D01*
X72682409Y-93992647D01*
X72661174Y-93989497D01*
X72640350Y-93984281D01*
X72620138Y-93977049D01*
X72600732Y-93967870D01*
X72582319Y-93956834D01*
X72565076Y-93944046D01*
X72549170Y-93929630D01*
X72534754Y-93913724D01*
X72521966Y-93896481D01*
X72510930Y-93878068D01*
X72501751Y-93858662D01*
X72494519Y-93838450D01*
X72489303Y-93817626D01*
X72486153Y-93796391D01*
X72485100Y-93774950D01*
X72485100Y-93337450D01*
X72486153Y-93316009D01*
X72489303Y-93294774D01*
X72494519Y-93273950D01*
X72501751Y-93253738D01*
X72510930Y-93234332D01*
X72521966Y-93215919D01*
X72534754Y-93198676D01*
X72549170Y-93182770D01*
X72565076Y-93168354D01*
X72582319Y-93155566D01*
X72600732Y-93144530D01*
X72620138Y-93135351D01*
X72640350Y-93128119D01*
X72661174Y-93122903D01*
X72682409Y-93119753D01*
X72703850Y-93118700D01*
X73216350Y-93118700D01*
X73237791Y-93119753D01*
X73237791Y-93119753D01*
G37*
D19*
X72960100Y-93556200D03*
D18*
G36*
X73237791Y-94694753D02*
X73259026Y-94697903D01*
X73279850Y-94703119D01*
X73300062Y-94710351D01*
X73319468Y-94719530D01*
X73337881Y-94730566D01*
X73355124Y-94743354D01*
X73371030Y-94757770D01*
X73385446Y-94773676D01*
X73398234Y-94790919D01*
X73409270Y-94809332D01*
X73418449Y-94828738D01*
X73425681Y-94848950D01*
X73430897Y-94869774D01*
X73434047Y-94891009D01*
X73435100Y-94912450D01*
X73435100Y-95349950D01*
X73434047Y-95371391D01*
X73430897Y-95392626D01*
X73425681Y-95413450D01*
X73418449Y-95433662D01*
X73409270Y-95453068D01*
X73398234Y-95471481D01*
X73385446Y-95488724D01*
X73371030Y-95504630D01*
X73355124Y-95519046D01*
X73337881Y-95531834D01*
X73319468Y-95542870D01*
X73300062Y-95552049D01*
X73279850Y-95559281D01*
X73259026Y-95564497D01*
X73237791Y-95567647D01*
X73216350Y-95568700D01*
X72703850Y-95568700D01*
X72682409Y-95567647D01*
X72661174Y-95564497D01*
X72640350Y-95559281D01*
X72620138Y-95552049D01*
X72600732Y-95542870D01*
X72582319Y-95531834D01*
X72565076Y-95519046D01*
X72549170Y-95504630D01*
X72534754Y-95488724D01*
X72521966Y-95471481D01*
X72510930Y-95453068D01*
X72501751Y-95433662D01*
X72494519Y-95413450D01*
X72489303Y-95392626D01*
X72486153Y-95371391D01*
X72485100Y-95349950D01*
X72485100Y-94912450D01*
X72486153Y-94891009D01*
X72489303Y-94869774D01*
X72494519Y-94848950D01*
X72501751Y-94828738D01*
X72510930Y-94809332D01*
X72521966Y-94790919D01*
X72534754Y-94773676D01*
X72549170Y-94757770D01*
X72565076Y-94743354D01*
X72582319Y-94730566D01*
X72600732Y-94719530D01*
X72620138Y-94710351D01*
X72640350Y-94703119D01*
X72661174Y-94697903D01*
X72682409Y-94694753D01*
X72703850Y-94693700D01*
X73216350Y-94693700D01*
X73237791Y-94694753D01*
X73237791Y-94694753D01*
G37*
D19*
X72960100Y-95131200D03*
G04 #@! TD*
D18*
G04 #@! TO.C,R4*
G36*
X54360191Y-108446053D02*
X54381426Y-108449203D01*
X54402250Y-108454419D01*
X54422462Y-108461651D01*
X54441868Y-108470830D01*
X54460281Y-108481866D01*
X54477524Y-108494654D01*
X54493430Y-108509070D01*
X54507846Y-108524976D01*
X54520634Y-108542219D01*
X54531670Y-108560632D01*
X54540849Y-108580038D01*
X54548081Y-108600250D01*
X54553297Y-108621074D01*
X54556447Y-108642309D01*
X54557500Y-108663750D01*
X54557500Y-109176250D01*
X54556447Y-109197691D01*
X54553297Y-109218926D01*
X54548081Y-109239750D01*
X54540849Y-109259962D01*
X54531670Y-109279368D01*
X54520634Y-109297781D01*
X54507846Y-109315024D01*
X54493430Y-109330930D01*
X54477524Y-109345346D01*
X54460281Y-109358134D01*
X54441868Y-109369170D01*
X54422462Y-109378349D01*
X54402250Y-109385581D01*
X54381426Y-109390797D01*
X54360191Y-109393947D01*
X54338750Y-109395000D01*
X53901250Y-109395000D01*
X53879809Y-109393947D01*
X53858574Y-109390797D01*
X53837750Y-109385581D01*
X53817538Y-109378349D01*
X53798132Y-109369170D01*
X53779719Y-109358134D01*
X53762476Y-109345346D01*
X53746570Y-109330930D01*
X53732154Y-109315024D01*
X53719366Y-109297781D01*
X53708330Y-109279368D01*
X53699151Y-109259962D01*
X53691919Y-109239750D01*
X53686703Y-109218926D01*
X53683553Y-109197691D01*
X53682500Y-109176250D01*
X53682500Y-108663750D01*
X53683553Y-108642309D01*
X53686703Y-108621074D01*
X53691919Y-108600250D01*
X53699151Y-108580038D01*
X53708330Y-108560632D01*
X53719366Y-108542219D01*
X53732154Y-108524976D01*
X53746570Y-108509070D01*
X53762476Y-108494654D01*
X53779719Y-108481866D01*
X53798132Y-108470830D01*
X53817538Y-108461651D01*
X53837750Y-108454419D01*
X53858574Y-108449203D01*
X53879809Y-108446053D01*
X53901250Y-108445000D01*
X54338750Y-108445000D01*
X54360191Y-108446053D01*
X54360191Y-108446053D01*
G37*
D19*
X54120000Y-108920000D03*
D18*
G36*
X52785191Y-108446053D02*
X52806426Y-108449203D01*
X52827250Y-108454419D01*
X52847462Y-108461651D01*
X52866868Y-108470830D01*
X52885281Y-108481866D01*
X52902524Y-108494654D01*
X52918430Y-108509070D01*
X52932846Y-108524976D01*
X52945634Y-108542219D01*
X52956670Y-108560632D01*
X52965849Y-108580038D01*
X52973081Y-108600250D01*
X52978297Y-108621074D01*
X52981447Y-108642309D01*
X52982500Y-108663750D01*
X52982500Y-109176250D01*
X52981447Y-109197691D01*
X52978297Y-109218926D01*
X52973081Y-109239750D01*
X52965849Y-109259962D01*
X52956670Y-109279368D01*
X52945634Y-109297781D01*
X52932846Y-109315024D01*
X52918430Y-109330930D01*
X52902524Y-109345346D01*
X52885281Y-109358134D01*
X52866868Y-109369170D01*
X52847462Y-109378349D01*
X52827250Y-109385581D01*
X52806426Y-109390797D01*
X52785191Y-109393947D01*
X52763750Y-109395000D01*
X52326250Y-109395000D01*
X52304809Y-109393947D01*
X52283574Y-109390797D01*
X52262750Y-109385581D01*
X52242538Y-109378349D01*
X52223132Y-109369170D01*
X52204719Y-109358134D01*
X52187476Y-109345346D01*
X52171570Y-109330930D01*
X52157154Y-109315024D01*
X52144366Y-109297781D01*
X52133330Y-109279368D01*
X52124151Y-109259962D01*
X52116919Y-109239750D01*
X52111703Y-109218926D01*
X52108553Y-109197691D01*
X52107500Y-109176250D01*
X52107500Y-108663750D01*
X52108553Y-108642309D01*
X52111703Y-108621074D01*
X52116919Y-108600250D01*
X52124151Y-108580038D01*
X52133330Y-108560632D01*
X52144366Y-108542219D01*
X52157154Y-108524976D01*
X52171570Y-108509070D01*
X52187476Y-108494654D01*
X52204719Y-108481866D01*
X52223132Y-108470830D01*
X52242538Y-108461651D01*
X52262750Y-108454419D01*
X52283574Y-108449203D01*
X52304809Y-108446053D01*
X52326250Y-108445000D01*
X52763750Y-108445000D01*
X52785191Y-108446053D01*
X52785191Y-108446053D01*
G37*
D19*
X52545000Y-108920000D03*
G04 #@! TD*
D18*
G04 #@! TO.C,R5*
G36*
X68005082Y-87340594D02*
X68028743Y-87344104D01*
X68051947Y-87349916D01*
X68074469Y-87357974D01*
X68096093Y-87368202D01*
X68116610Y-87380499D01*
X68135823Y-87394749D01*
X68153547Y-87410813D01*
X68169611Y-87428537D01*
X68183861Y-87447750D01*
X68196158Y-87468267D01*
X68206386Y-87489891D01*
X68214444Y-87512413D01*
X68220256Y-87535617D01*
X68223766Y-87559278D01*
X68224940Y-87583170D01*
X68224940Y-88070670D01*
X68223766Y-88094562D01*
X68220256Y-88118223D01*
X68214444Y-88141427D01*
X68206386Y-88163949D01*
X68196158Y-88185573D01*
X68183861Y-88206090D01*
X68169611Y-88225303D01*
X68153547Y-88243027D01*
X68135823Y-88259091D01*
X68116610Y-88273341D01*
X68096093Y-88285638D01*
X68074469Y-88295866D01*
X68051947Y-88303924D01*
X68028743Y-88309736D01*
X68005082Y-88313246D01*
X67981190Y-88314420D01*
X67068690Y-88314420D01*
X67044798Y-88313246D01*
X67021137Y-88309736D01*
X66997933Y-88303924D01*
X66975411Y-88295866D01*
X66953787Y-88285638D01*
X66933270Y-88273341D01*
X66914057Y-88259091D01*
X66896333Y-88243027D01*
X66880269Y-88225303D01*
X66866019Y-88206090D01*
X66853722Y-88185573D01*
X66843494Y-88163949D01*
X66835436Y-88141427D01*
X66829624Y-88118223D01*
X66826114Y-88094562D01*
X66824940Y-88070670D01*
X66824940Y-87583170D01*
X66826114Y-87559278D01*
X66829624Y-87535617D01*
X66835436Y-87512413D01*
X66843494Y-87489891D01*
X66853722Y-87468267D01*
X66866019Y-87447750D01*
X66880269Y-87428537D01*
X66896333Y-87410813D01*
X66914057Y-87394749D01*
X66933270Y-87380499D01*
X66953787Y-87368202D01*
X66975411Y-87357974D01*
X66997933Y-87349916D01*
X67021137Y-87344104D01*
X67044798Y-87340594D01*
X67068690Y-87339420D01*
X67981190Y-87339420D01*
X68005082Y-87340594D01*
X68005082Y-87340594D01*
G37*
D21*
X67524940Y-87826920D03*
D18*
G36*
X68005082Y-85465594D02*
X68028743Y-85469104D01*
X68051947Y-85474916D01*
X68074469Y-85482974D01*
X68096093Y-85493202D01*
X68116610Y-85505499D01*
X68135823Y-85519749D01*
X68153547Y-85535813D01*
X68169611Y-85553537D01*
X68183861Y-85572750D01*
X68196158Y-85593267D01*
X68206386Y-85614891D01*
X68214444Y-85637413D01*
X68220256Y-85660617D01*
X68223766Y-85684278D01*
X68224940Y-85708170D01*
X68224940Y-86195670D01*
X68223766Y-86219562D01*
X68220256Y-86243223D01*
X68214444Y-86266427D01*
X68206386Y-86288949D01*
X68196158Y-86310573D01*
X68183861Y-86331090D01*
X68169611Y-86350303D01*
X68153547Y-86368027D01*
X68135823Y-86384091D01*
X68116610Y-86398341D01*
X68096093Y-86410638D01*
X68074469Y-86420866D01*
X68051947Y-86428924D01*
X68028743Y-86434736D01*
X68005082Y-86438246D01*
X67981190Y-86439420D01*
X67068690Y-86439420D01*
X67044798Y-86438246D01*
X67021137Y-86434736D01*
X66997933Y-86428924D01*
X66975411Y-86420866D01*
X66953787Y-86410638D01*
X66933270Y-86398341D01*
X66914057Y-86384091D01*
X66896333Y-86368027D01*
X66880269Y-86350303D01*
X66866019Y-86331090D01*
X66853722Y-86310573D01*
X66843494Y-86288949D01*
X66835436Y-86266427D01*
X66829624Y-86243223D01*
X66826114Y-86219562D01*
X66824940Y-86195670D01*
X66824940Y-85708170D01*
X66826114Y-85684278D01*
X66829624Y-85660617D01*
X66835436Y-85637413D01*
X66843494Y-85614891D01*
X66853722Y-85593267D01*
X66866019Y-85572750D01*
X66880269Y-85553537D01*
X66896333Y-85535813D01*
X66914057Y-85519749D01*
X66933270Y-85505499D01*
X66953787Y-85493202D01*
X66975411Y-85482974D01*
X66997933Y-85474916D01*
X67021137Y-85469104D01*
X67044798Y-85465594D01*
X67068690Y-85464420D01*
X67981190Y-85464420D01*
X68005082Y-85465594D01*
X68005082Y-85465594D01*
G37*
D21*
X67524940Y-85951920D03*
G04 #@! TD*
D18*
G04 #@! TO.C,R7*
G36*
X75360091Y-48894953D02*
X75381326Y-48898103D01*
X75402150Y-48903319D01*
X75422362Y-48910551D01*
X75441768Y-48919730D01*
X75460181Y-48930766D01*
X75477424Y-48943554D01*
X75493330Y-48957970D01*
X75507746Y-48973876D01*
X75520534Y-48991119D01*
X75531570Y-49009532D01*
X75540749Y-49028938D01*
X75547981Y-49049150D01*
X75553197Y-49069974D01*
X75556347Y-49091209D01*
X75557400Y-49112650D01*
X75557400Y-49550150D01*
X75556347Y-49571591D01*
X75553197Y-49592826D01*
X75547981Y-49613650D01*
X75540749Y-49633862D01*
X75531570Y-49653268D01*
X75520534Y-49671681D01*
X75507746Y-49688924D01*
X75493330Y-49704830D01*
X75477424Y-49719246D01*
X75460181Y-49732034D01*
X75441768Y-49743070D01*
X75422362Y-49752249D01*
X75402150Y-49759481D01*
X75381326Y-49764697D01*
X75360091Y-49767847D01*
X75338650Y-49768900D01*
X74826150Y-49768900D01*
X74804709Y-49767847D01*
X74783474Y-49764697D01*
X74762650Y-49759481D01*
X74742438Y-49752249D01*
X74723032Y-49743070D01*
X74704619Y-49732034D01*
X74687376Y-49719246D01*
X74671470Y-49704830D01*
X74657054Y-49688924D01*
X74644266Y-49671681D01*
X74633230Y-49653268D01*
X74624051Y-49633862D01*
X74616819Y-49613650D01*
X74611603Y-49592826D01*
X74608453Y-49571591D01*
X74607400Y-49550150D01*
X74607400Y-49112650D01*
X74608453Y-49091209D01*
X74611603Y-49069974D01*
X74616819Y-49049150D01*
X74624051Y-49028938D01*
X74633230Y-49009532D01*
X74644266Y-48991119D01*
X74657054Y-48973876D01*
X74671470Y-48957970D01*
X74687376Y-48943554D01*
X74704619Y-48930766D01*
X74723032Y-48919730D01*
X74742438Y-48910551D01*
X74762650Y-48903319D01*
X74783474Y-48898103D01*
X74804709Y-48894953D01*
X74826150Y-48893900D01*
X75338650Y-48893900D01*
X75360091Y-48894953D01*
X75360091Y-48894953D01*
G37*
D19*
X75082400Y-49331400D03*
D18*
G36*
X75360091Y-50469953D02*
X75381326Y-50473103D01*
X75402150Y-50478319D01*
X75422362Y-50485551D01*
X75441768Y-50494730D01*
X75460181Y-50505766D01*
X75477424Y-50518554D01*
X75493330Y-50532970D01*
X75507746Y-50548876D01*
X75520534Y-50566119D01*
X75531570Y-50584532D01*
X75540749Y-50603938D01*
X75547981Y-50624150D01*
X75553197Y-50644974D01*
X75556347Y-50666209D01*
X75557400Y-50687650D01*
X75557400Y-51125150D01*
X75556347Y-51146591D01*
X75553197Y-51167826D01*
X75547981Y-51188650D01*
X75540749Y-51208862D01*
X75531570Y-51228268D01*
X75520534Y-51246681D01*
X75507746Y-51263924D01*
X75493330Y-51279830D01*
X75477424Y-51294246D01*
X75460181Y-51307034D01*
X75441768Y-51318070D01*
X75422362Y-51327249D01*
X75402150Y-51334481D01*
X75381326Y-51339697D01*
X75360091Y-51342847D01*
X75338650Y-51343900D01*
X74826150Y-51343900D01*
X74804709Y-51342847D01*
X74783474Y-51339697D01*
X74762650Y-51334481D01*
X74742438Y-51327249D01*
X74723032Y-51318070D01*
X74704619Y-51307034D01*
X74687376Y-51294246D01*
X74671470Y-51279830D01*
X74657054Y-51263924D01*
X74644266Y-51246681D01*
X74633230Y-51228268D01*
X74624051Y-51208862D01*
X74616819Y-51188650D01*
X74611603Y-51167826D01*
X74608453Y-51146591D01*
X74607400Y-51125150D01*
X74607400Y-50687650D01*
X74608453Y-50666209D01*
X74611603Y-50644974D01*
X74616819Y-50624150D01*
X74624051Y-50603938D01*
X74633230Y-50584532D01*
X74644266Y-50566119D01*
X74657054Y-50548876D01*
X74671470Y-50532970D01*
X74687376Y-50518554D01*
X74704619Y-50505766D01*
X74723032Y-50494730D01*
X74742438Y-50485551D01*
X74762650Y-50478319D01*
X74783474Y-50473103D01*
X74804709Y-50469953D01*
X74826150Y-50468900D01*
X75338650Y-50468900D01*
X75360091Y-50469953D01*
X75360091Y-50469953D01*
G37*
D19*
X75082400Y-50906400D03*
G04 #@! TD*
D18*
G04 #@! TO.C,R8*
G36*
X71745411Y-51984213D02*
X71766646Y-51987363D01*
X71787470Y-51992579D01*
X71807682Y-51999811D01*
X71827088Y-52008990D01*
X71845501Y-52020026D01*
X71862744Y-52032814D01*
X71878650Y-52047230D01*
X71893066Y-52063136D01*
X71905854Y-52080379D01*
X71916890Y-52098792D01*
X71926069Y-52118198D01*
X71933301Y-52138410D01*
X71938517Y-52159234D01*
X71941667Y-52180469D01*
X71942720Y-52201910D01*
X71942720Y-52714410D01*
X71941667Y-52735851D01*
X71938517Y-52757086D01*
X71933301Y-52777910D01*
X71926069Y-52798122D01*
X71916890Y-52817528D01*
X71905854Y-52835941D01*
X71893066Y-52853184D01*
X71878650Y-52869090D01*
X71862744Y-52883506D01*
X71845501Y-52896294D01*
X71827088Y-52907330D01*
X71807682Y-52916509D01*
X71787470Y-52923741D01*
X71766646Y-52928957D01*
X71745411Y-52932107D01*
X71723970Y-52933160D01*
X71286470Y-52933160D01*
X71265029Y-52932107D01*
X71243794Y-52928957D01*
X71222970Y-52923741D01*
X71202758Y-52916509D01*
X71183352Y-52907330D01*
X71164939Y-52896294D01*
X71147696Y-52883506D01*
X71131790Y-52869090D01*
X71117374Y-52853184D01*
X71104586Y-52835941D01*
X71093550Y-52817528D01*
X71084371Y-52798122D01*
X71077139Y-52777910D01*
X71071923Y-52757086D01*
X71068773Y-52735851D01*
X71067720Y-52714410D01*
X71067720Y-52201910D01*
X71068773Y-52180469D01*
X71071923Y-52159234D01*
X71077139Y-52138410D01*
X71084371Y-52118198D01*
X71093550Y-52098792D01*
X71104586Y-52080379D01*
X71117374Y-52063136D01*
X71131790Y-52047230D01*
X71147696Y-52032814D01*
X71164939Y-52020026D01*
X71183352Y-52008990D01*
X71202758Y-51999811D01*
X71222970Y-51992579D01*
X71243794Y-51987363D01*
X71265029Y-51984213D01*
X71286470Y-51983160D01*
X71723970Y-51983160D01*
X71745411Y-51984213D01*
X71745411Y-51984213D01*
G37*
D19*
X71505220Y-52458160D03*
D18*
G36*
X73320411Y-51984213D02*
X73341646Y-51987363D01*
X73362470Y-51992579D01*
X73382682Y-51999811D01*
X73402088Y-52008990D01*
X73420501Y-52020026D01*
X73437744Y-52032814D01*
X73453650Y-52047230D01*
X73468066Y-52063136D01*
X73480854Y-52080379D01*
X73491890Y-52098792D01*
X73501069Y-52118198D01*
X73508301Y-52138410D01*
X73513517Y-52159234D01*
X73516667Y-52180469D01*
X73517720Y-52201910D01*
X73517720Y-52714410D01*
X73516667Y-52735851D01*
X73513517Y-52757086D01*
X73508301Y-52777910D01*
X73501069Y-52798122D01*
X73491890Y-52817528D01*
X73480854Y-52835941D01*
X73468066Y-52853184D01*
X73453650Y-52869090D01*
X73437744Y-52883506D01*
X73420501Y-52896294D01*
X73402088Y-52907330D01*
X73382682Y-52916509D01*
X73362470Y-52923741D01*
X73341646Y-52928957D01*
X73320411Y-52932107D01*
X73298970Y-52933160D01*
X72861470Y-52933160D01*
X72840029Y-52932107D01*
X72818794Y-52928957D01*
X72797970Y-52923741D01*
X72777758Y-52916509D01*
X72758352Y-52907330D01*
X72739939Y-52896294D01*
X72722696Y-52883506D01*
X72706790Y-52869090D01*
X72692374Y-52853184D01*
X72679586Y-52835941D01*
X72668550Y-52817528D01*
X72659371Y-52798122D01*
X72652139Y-52777910D01*
X72646923Y-52757086D01*
X72643773Y-52735851D01*
X72642720Y-52714410D01*
X72642720Y-52201910D01*
X72643773Y-52180469D01*
X72646923Y-52159234D01*
X72652139Y-52138410D01*
X72659371Y-52118198D01*
X72668550Y-52098792D01*
X72679586Y-52080379D01*
X72692374Y-52063136D01*
X72706790Y-52047230D01*
X72722696Y-52032814D01*
X72739939Y-52020026D01*
X72758352Y-52008990D01*
X72777758Y-51999811D01*
X72797970Y-51992579D01*
X72818794Y-51987363D01*
X72840029Y-51984213D01*
X72861470Y-51983160D01*
X73298970Y-51983160D01*
X73320411Y-51984213D01*
X73320411Y-51984213D01*
G37*
D19*
X73080220Y-52458160D03*
G04 #@! TD*
D18*
G04 #@! TO.C,R9*
G36*
X63387091Y-53545853D02*
X63408326Y-53549003D01*
X63429150Y-53554219D01*
X63449362Y-53561451D01*
X63468768Y-53570630D01*
X63487181Y-53581666D01*
X63504424Y-53594454D01*
X63520330Y-53608870D01*
X63534746Y-53624776D01*
X63547534Y-53642019D01*
X63558570Y-53660432D01*
X63567749Y-53679838D01*
X63574981Y-53700050D01*
X63580197Y-53720874D01*
X63583347Y-53742109D01*
X63584400Y-53763550D01*
X63584400Y-54276050D01*
X63583347Y-54297491D01*
X63580197Y-54318726D01*
X63574981Y-54339550D01*
X63567749Y-54359762D01*
X63558570Y-54379168D01*
X63547534Y-54397581D01*
X63534746Y-54414824D01*
X63520330Y-54430730D01*
X63504424Y-54445146D01*
X63487181Y-54457934D01*
X63468768Y-54468970D01*
X63449362Y-54478149D01*
X63429150Y-54485381D01*
X63408326Y-54490597D01*
X63387091Y-54493747D01*
X63365650Y-54494800D01*
X62928150Y-54494800D01*
X62906709Y-54493747D01*
X62885474Y-54490597D01*
X62864650Y-54485381D01*
X62844438Y-54478149D01*
X62825032Y-54468970D01*
X62806619Y-54457934D01*
X62789376Y-54445146D01*
X62773470Y-54430730D01*
X62759054Y-54414824D01*
X62746266Y-54397581D01*
X62735230Y-54379168D01*
X62726051Y-54359762D01*
X62718819Y-54339550D01*
X62713603Y-54318726D01*
X62710453Y-54297491D01*
X62709400Y-54276050D01*
X62709400Y-53763550D01*
X62710453Y-53742109D01*
X62713603Y-53720874D01*
X62718819Y-53700050D01*
X62726051Y-53679838D01*
X62735230Y-53660432D01*
X62746266Y-53642019D01*
X62759054Y-53624776D01*
X62773470Y-53608870D01*
X62789376Y-53594454D01*
X62806619Y-53581666D01*
X62825032Y-53570630D01*
X62844438Y-53561451D01*
X62864650Y-53554219D01*
X62885474Y-53549003D01*
X62906709Y-53545853D01*
X62928150Y-53544800D01*
X63365650Y-53544800D01*
X63387091Y-53545853D01*
X63387091Y-53545853D01*
G37*
D19*
X63146900Y-54019800D03*
D18*
G36*
X64962091Y-53545853D02*
X64983326Y-53549003D01*
X65004150Y-53554219D01*
X65024362Y-53561451D01*
X65043768Y-53570630D01*
X65062181Y-53581666D01*
X65079424Y-53594454D01*
X65095330Y-53608870D01*
X65109746Y-53624776D01*
X65122534Y-53642019D01*
X65133570Y-53660432D01*
X65142749Y-53679838D01*
X65149981Y-53700050D01*
X65155197Y-53720874D01*
X65158347Y-53742109D01*
X65159400Y-53763550D01*
X65159400Y-54276050D01*
X65158347Y-54297491D01*
X65155197Y-54318726D01*
X65149981Y-54339550D01*
X65142749Y-54359762D01*
X65133570Y-54379168D01*
X65122534Y-54397581D01*
X65109746Y-54414824D01*
X65095330Y-54430730D01*
X65079424Y-54445146D01*
X65062181Y-54457934D01*
X65043768Y-54468970D01*
X65024362Y-54478149D01*
X65004150Y-54485381D01*
X64983326Y-54490597D01*
X64962091Y-54493747D01*
X64940650Y-54494800D01*
X64503150Y-54494800D01*
X64481709Y-54493747D01*
X64460474Y-54490597D01*
X64439650Y-54485381D01*
X64419438Y-54478149D01*
X64400032Y-54468970D01*
X64381619Y-54457934D01*
X64364376Y-54445146D01*
X64348470Y-54430730D01*
X64334054Y-54414824D01*
X64321266Y-54397581D01*
X64310230Y-54379168D01*
X64301051Y-54359762D01*
X64293819Y-54339550D01*
X64288603Y-54318726D01*
X64285453Y-54297491D01*
X64284400Y-54276050D01*
X64284400Y-53763550D01*
X64285453Y-53742109D01*
X64288603Y-53720874D01*
X64293819Y-53700050D01*
X64301051Y-53679838D01*
X64310230Y-53660432D01*
X64321266Y-53642019D01*
X64334054Y-53624776D01*
X64348470Y-53608870D01*
X64364376Y-53594454D01*
X64381619Y-53581666D01*
X64400032Y-53570630D01*
X64419438Y-53561451D01*
X64439650Y-53554219D01*
X64460474Y-53549003D01*
X64481709Y-53545853D01*
X64503150Y-53544800D01*
X64940650Y-53544800D01*
X64962091Y-53545853D01*
X64962091Y-53545853D01*
G37*
D19*
X64721900Y-54019800D03*
G04 #@! TD*
D18*
G04 #@! TO.C,R10*
G36*
X67184391Y-55273053D02*
X67205626Y-55276203D01*
X67226450Y-55281419D01*
X67246662Y-55288651D01*
X67266068Y-55297830D01*
X67284481Y-55308866D01*
X67301724Y-55321654D01*
X67317630Y-55336070D01*
X67332046Y-55351976D01*
X67344834Y-55369219D01*
X67355870Y-55387632D01*
X67365049Y-55407038D01*
X67372281Y-55427250D01*
X67377497Y-55448074D01*
X67380647Y-55469309D01*
X67381700Y-55490750D01*
X67381700Y-56003250D01*
X67380647Y-56024691D01*
X67377497Y-56045926D01*
X67372281Y-56066750D01*
X67365049Y-56086962D01*
X67355870Y-56106368D01*
X67344834Y-56124781D01*
X67332046Y-56142024D01*
X67317630Y-56157930D01*
X67301724Y-56172346D01*
X67284481Y-56185134D01*
X67266068Y-56196170D01*
X67246662Y-56205349D01*
X67226450Y-56212581D01*
X67205626Y-56217797D01*
X67184391Y-56220947D01*
X67162950Y-56222000D01*
X66725450Y-56222000D01*
X66704009Y-56220947D01*
X66682774Y-56217797D01*
X66661950Y-56212581D01*
X66641738Y-56205349D01*
X66622332Y-56196170D01*
X66603919Y-56185134D01*
X66586676Y-56172346D01*
X66570770Y-56157930D01*
X66556354Y-56142024D01*
X66543566Y-56124781D01*
X66532530Y-56106368D01*
X66523351Y-56086962D01*
X66516119Y-56066750D01*
X66510903Y-56045926D01*
X66507753Y-56024691D01*
X66506700Y-56003250D01*
X66506700Y-55490750D01*
X66507753Y-55469309D01*
X66510903Y-55448074D01*
X66516119Y-55427250D01*
X66523351Y-55407038D01*
X66532530Y-55387632D01*
X66543566Y-55369219D01*
X66556354Y-55351976D01*
X66570770Y-55336070D01*
X66586676Y-55321654D01*
X66603919Y-55308866D01*
X66622332Y-55297830D01*
X66641738Y-55288651D01*
X66661950Y-55281419D01*
X66682774Y-55276203D01*
X66704009Y-55273053D01*
X66725450Y-55272000D01*
X67162950Y-55272000D01*
X67184391Y-55273053D01*
X67184391Y-55273053D01*
G37*
D19*
X66944200Y-55747000D03*
D18*
G36*
X68759391Y-55273053D02*
X68780626Y-55276203D01*
X68801450Y-55281419D01*
X68821662Y-55288651D01*
X68841068Y-55297830D01*
X68859481Y-55308866D01*
X68876724Y-55321654D01*
X68892630Y-55336070D01*
X68907046Y-55351976D01*
X68919834Y-55369219D01*
X68930870Y-55387632D01*
X68940049Y-55407038D01*
X68947281Y-55427250D01*
X68952497Y-55448074D01*
X68955647Y-55469309D01*
X68956700Y-55490750D01*
X68956700Y-56003250D01*
X68955647Y-56024691D01*
X68952497Y-56045926D01*
X68947281Y-56066750D01*
X68940049Y-56086962D01*
X68930870Y-56106368D01*
X68919834Y-56124781D01*
X68907046Y-56142024D01*
X68892630Y-56157930D01*
X68876724Y-56172346D01*
X68859481Y-56185134D01*
X68841068Y-56196170D01*
X68821662Y-56205349D01*
X68801450Y-56212581D01*
X68780626Y-56217797D01*
X68759391Y-56220947D01*
X68737950Y-56222000D01*
X68300450Y-56222000D01*
X68279009Y-56220947D01*
X68257774Y-56217797D01*
X68236950Y-56212581D01*
X68216738Y-56205349D01*
X68197332Y-56196170D01*
X68178919Y-56185134D01*
X68161676Y-56172346D01*
X68145770Y-56157930D01*
X68131354Y-56142024D01*
X68118566Y-56124781D01*
X68107530Y-56106368D01*
X68098351Y-56086962D01*
X68091119Y-56066750D01*
X68085903Y-56045926D01*
X68082753Y-56024691D01*
X68081700Y-56003250D01*
X68081700Y-55490750D01*
X68082753Y-55469309D01*
X68085903Y-55448074D01*
X68091119Y-55427250D01*
X68098351Y-55407038D01*
X68107530Y-55387632D01*
X68118566Y-55369219D01*
X68131354Y-55351976D01*
X68145770Y-55336070D01*
X68161676Y-55321654D01*
X68178919Y-55308866D01*
X68197332Y-55297830D01*
X68216738Y-55288651D01*
X68236950Y-55281419D01*
X68257774Y-55276203D01*
X68279009Y-55273053D01*
X68300450Y-55272000D01*
X68737950Y-55272000D01*
X68759391Y-55273053D01*
X68759391Y-55273053D01*
G37*
D19*
X68519200Y-55747000D03*
G04 #@! TD*
D18*
G04 #@! TO.C,R11*
G36*
X93717691Y-66996053D02*
X93738926Y-66999203D01*
X93759750Y-67004419D01*
X93779962Y-67011651D01*
X93799368Y-67020830D01*
X93817781Y-67031866D01*
X93835024Y-67044654D01*
X93850930Y-67059070D01*
X93865346Y-67074976D01*
X93878134Y-67092219D01*
X93889170Y-67110632D01*
X93898349Y-67130038D01*
X93905581Y-67150250D01*
X93910797Y-67171074D01*
X93913947Y-67192309D01*
X93915000Y-67213750D01*
X93915000Y-67726250D01*
X93913947Y-67747691D01*
X93910797Y-67768926D01*
X93905581Y-67789750D01*
X93898349Y-67809962D01*
X93889170Y-67829368D01*
X93878134Y-67847781D01*
X93865346Y-67865024D01*
X93850930Y-67880930D01*
X93835024Y-67895346D01*
X93817781Y-67908134D01*
X93799368Y-67919170D01*
X93779962Y-67928349D01*
X93759750Y-67935581D01*
X93738926Y-67940797D01*
X93717691Y-67943947D01*
X93696250Y-67945000D01*
X93258750Y-67945000D01*
X93237309Y-67943947D01*
X93216074Y-67940797D01*
X93195250Y-67935581D01*
X93175038Y-67928349D01*
X93155632Y-67919170D01*
X93137219Y-67908134D01*
X93119976Y-67895346D01*
X93104070Y-67880930D01*
X93089654Y-67865024D01*
X93076866Y-67847781D01*
X93065830Y-67829368D01*
X93056651Y-67809962D01*
X93049419Y-67789750D01*
X93044203Y-67768926D01*
X93041053Y-67747691D01*
X93040000Y-67726250D01*
X93040000Y-67213750D01*
X93041053Y-67192309D01*
X93044203Y-67171074D01*
X93049419Y-67150250D01*
X93056651Y-67130038D01*
X93065830Y-67110632D01*
X93076866Y-67092219D01*
X93089654Y-67074976D01*
X93104070Y-67059070D01*
X93119976Y-67044654D01*
X93137219Y-67031866D01*
X93155632Y-67020830D01*
X93175038Y-67011651D01*
X93195250Y-67004419D01*
X93216074Y-66999203D01*
X93237309Y-66996053D01*
X93258750Y-66995000D01*
X93696250Y-66995000D01*
X93717691Y-66996053D01*
X93717691Y-66996053D01*
G37*
D19*
X93477500Y-67470000D03*
D18*
G36*
X92142691Y-66996053D02*
X92163926Y-66999203D01*
X92184750Y-67004419D01*
X92204962Y-67011651D01*
X92224368Y-67020830D01*
X92242781Y-67031866D01*
X92260024Y-67044654D01*
X92275930Y-67059070D01*
X92290346Y-67074976D01*
X92303134Y-67092219D01*
X92314170Y-67110632D01*
X92323349Y-67130038D01*
X92330581Y-67150250D01*
X92335797Y-67171074D01*
X92338947Y-67192309D01*
X92340000Y-67213750D01*
X92340000Y-67726250D01*
X92338947Y-67747691D01*
X92335797Y-67768926D01*
X92330581Y-67789750D01*
X92323349Y-67809962D01*
X92314170Y-67829368D01*
X92303134Y-67847781D01*
X92290346Y-67865024D01*
X92275930Y-67880930D01*
X92260024Y-67895346D01*
X92242781Y-67908134D01*
X92224368Y-67919170D01*
X92204962Y-67928349D01*
X92184750Y-67935581D01*
X92163926Y-67940797D01*
X92142691Y-67943947D01*
X92121250Y-67945000D01*
X91683750Y-67945000D01*
X91662309Y-67943947D01*
X91641074Y-67940797D01*
X91620250Y-67935581D01*
X91600038Y-67928349D01*
X91580632Y-67919170D01*
X91562219Y-67908134D01*
X91544976Y-67895346D01*
X91529070Y-67880930D01*
X91514654Y-67865024D01*
X91501866Y-67847781D01*
X91490830Y-67829368D01*
X91481651Y-67809962D01*
X91474419Y-67789750D01*
X91469203Y-67768926D01*
X91466053Y-67747691D01*
X91465000Y-67726250D01*
X91465000Y-67213750D01*
X91466053Y-67192309D01*
X91469203Y-67171074D01*
X91474419Y-67150250D01*
X91481651Y-67130038D01*
X91490830Y-67110632D01*
X91501866Y-67092219D01*
X91514654Y-67074976D01*
X91529070Y-67059070D01*
X91544976Y-67044654D01*
X91562219Y-67031866D01*
X91580632Y-67020830D01*
X91600038Y-67011651D01*
X91620250Y-67004419D01*
X91641074Y-66999203D01*
X91662309Y-66996053D01*
X91683750Y-66995000D01*
X92121250Y-66995000D01*
X92142691Y-66996053D01*
X92142691Y-66996053D01*
G37*
D19*
X91902500Y-67470000D03*
G04 #@! TD*
D18*
G04 #@! TO.C,R12*
G36*
X93977691Y-75296053D02*
X93998926Y-75299203D01*
X94019750Y-75304419D01*
X94039962Y-75311651D01*
X94059368Y-75320830D01*
X94077781Y-75331866D01*
X94095024Y-75344654D01*
X94110930Y-75359070D01*
X94125346Y-75374976D01*
X94138134Y-75392219D01*
X94149170Y-75410632D01*
X94158349Y-75430038D01*
X94165581Y-75450250D01*
X94170797Y-75471074D01*
X94173947Y-75492309D01*
X94175000Y-75513750D01*
X94175000Y-76026250D01*
X94173947Y-76047691D01*
X94170797Y-76068926D01*
X94165581Y-76089750D01*
X94158349Y-76109962D01*
X94149170Y-76129368D01*
X94138134Y-76147781D01*
X94125346Y-76165024D01*
X94110930Y-76180930D01*
X94095024Y-76195346D01*
X94077781Y-76208134D01*
X94059368Y-76219170D01*
X94039962Y-76228349D01*
X94019750Y-76235581D01*
X93998926Y-76240797D01*
X93977691Y-76243947D01*
X93956250Y-76245000D01*
X93518750Y-76245000D01*
X93497309Y-76243947D01*
X93476074Y-76240797D01*
X93455250Y-76235581D01*
X93435038Y-76228349D01*
X93415632Y-76219170D01*
X93397219Y-76208134D01*
X93379976Y-76195346D01*
X93364070Y-76180930D01*
X93349654Y-76165024D01*
X93336866Y-76147781D01*
X93325830Y-76129368D01*
X93316651Y-76109962D01*
X93309419Y-76089750D01*
X93304203Y-76068926D01*
X93301053Y-76047691D01*
X93300000Y-76026250D01*
X93300000Y-75513750D01*
X93301053Y-75492309D01*
X93304203Y-75471074D01*
X93309419Y-75450250D01*
X93316651Y-75430038D01*
X93325830Y-75410632D01*
X93336866Y-75392219D01*
X93349654Y-75374976D01*
X93364070Y-75359070D01*
X93379976Y-75344654D01*
X93397219Y-75331866D01*
X93415632Y-75320830D01*
X93435038Y-75311651D01*
X93455250Y-75304419D01*
X93476074Y-75299203D01*
X93497309Y-75296053D01*
X93518750Y-75295000D01*
X93956250Y-75295000D01*
X93977691Y-75296053D01*
X93977691Y-75296053D01*
G37*
D19*
X93737500Y-75770000D03*
D18*
G36*
X92402691Y-75296053D02*
X92423926Y-75299203D01*
X92444750Y-75304419D01*
X92464962Y-75311651D01*
X92484368Y-75320830D01*
X92502781Y-75331866D01*
X92520024Y-75344654D01*
X92535930Y-75359070D01*
X92550346Y-75374976D01*
X92563134Y-75392219D01*
X92574170Y-75410632D01*
X92583349Y-75430038D01*
X92590581Y-75450250D01*
X92595797Y-75471074D01*
X92598947Y-75492309D01*
X92600000Y-75513750D01*
X92600000Y-76026250D01*
X92598947Y-76047691D01*
X92595797Y-76068926D01*
X92590581Y-76089750D01*
X92583349Y-76109962D01*
X92574170Y-76129368D01*
X92563134Y-76147781D01*
X92550346Y-76165024D01*
X92535930Y-76180930D01*
X92520024Y-76195346D01*
X92502781Y-76208134D01*
X92484368Y-76219170D01*
X92464962Y-76228349D01*
X92444750Y-76235581D01*
X92423926Y-76240797D01*
X92402691Y-76243947D01*
X92381250Y-76245000D01*
X91943750Y-76245000D01*
X91922309Y-76243947D01*
X91901074Y-76240797D01*
X91880250Y-76235581D01*
X91860038Y-76228349D01*
X91840632Y-76219170D01*
X91822219Y-76208134D01*
X91804976Y-76195346D01*
X91789070Y-76180930D01*
X91774654Y-76165024D01*
X91761866Y-76147781D01*
X91750830Y-76129368D01*
X91741651Y-76109962D01*
X91734419Y-76089750D01*
X91729203Y-76068926D01*
X91726053Y-76047691D01*
X91725000Y-76026250D01*
X91725000Y-75513750D01*
X91726053Y-75492309D01*
X91729203Y-75471074D01*
X91734419Y-75450250D01*
X91741651Y-75430038D01*
X91750830Y-75410632D01*
X91761866Y-75392219D01*
X91774654Y-75374976D01*
X91789070Y-75359070D01*
X91804976Y-75344654D01*
X91822219Y-75331866D01*
X91840632Y-75320830D01*
X91860038Y-75311651D01*
X91880250Y-75304419D01*
X91901074Y-75299203D01*
X91922309Y-75296053D01*
X91943750Y-75295000D01*
X92381250Y-75295000D01*
X92402691Y-75296053D01*
X92402691Y-75296053D01*
G37*
D19*
X92162500Y-75770000D03*
G04 #@! TD*
D18*
G04 #@! TO.C,R13*
G36*
X92994951Y-59269453D02*
X93016186Y-59272603D01*
X93037010Y-59277819D01*
X93057222Y-59285051D01*
X93076628Y-59294230D01*
X93095041Y-59305266D01*
X93112284Y-59318054D01*
X93128190Y-59332470D01*
X93142606Y-59348376D01*
X93155394Y-59365619D01*
X93166430Y-59384032D01*
X93175609Y-59403438D01*
X93182841Y-59423650D01*
X93188057Y-59444474D01*
X93191207Y-59465709D01*
X93192260Y-59487150D01*
X93192260Y-59999650D01*
X93191207Y-60021091D01*
X93188057Y-60042326D01*
X93182841Y-60063150D01*
X93175609Y-60083362D01*
X93166430Y-60102768D01*
X93155394Y-60121181D01*
X93142606Y-60138424D01*
X93128190Y-60154330D01*
X93112284Y-60168746D01*
X93095041Y-60181534D01*
X93076628Y-60192570D01*
X93057222Y-60201749D01*
X93037010Y-60208981D01*
X93016186Y-60214197D01*
X92994951Y-60217347D01*
X92973510Y-60218400D01*
X92536010Y-60218400D01*
X92514569Y-60217347D01*
X92493334Y-60214197D01*
X92472510Y-60208981D01*
X92452298Y-60201749D01*
X92432892Y-60192570D01*
X92414479Y-60181534D01*
X92397236Y-60168746D01*
X92381330Y-60154330D01*
X92366914Y-60138424D01*
X92354126Y-60121181D01*
X92343090Y-60102768D01*
X92333911Y-60083362D01*
X92326679Y-60063150D01*
X92321463Y-60042326D01*
X92318313Y-60021091D01*
X92317260Y-59999650D01*
X92317260Y-59487150D01*
X92318313Y-59465709D01*
X92321463Y-59444474D01*
X92326679Y-59423650D01*
X92333911Y-59403438D01*
X92343090Y-59384032D01*
X92354126Y-59365619D01*
X92366914Y-59348376D01*
X92381330Y-59332470D01*
X92397236Y-59318054D01*
X92414479Y-59305266D01*
X92432892Y-59294230D01*
X92452298Y-59285051D01*
X92472510Y-59277819D01*
X92493334Y-59272603D01*
X92514569Y-59269453D01*
X92536010Y-59268400D01*
X92973510Y-59268400D01*
X92994951Y-59269453D01*
X92994951Y-59269453D01*
G37*
D19*
X92754760Y-59743400D03*
D18*
G36*
X91419951Y-59269453D02*
X91441186Y-59272603D01*
X91462010Y-59277819D01*
X91482222Y-59285051D01*
X91501628Y-59294230D01*
X91520041Y-59305266D01*
X91537284Y-59318054D01*
X91553190Y-59332470D01*
X91567606Y-59348376D01*
X91580394Y-59365619D01*
X91591430Y-59384032D01*
X91600609Y-59403438D01*
X91607841Y-59423650D01*
X91613057Y-59444474D01*
X91616207Y-59465709D01*
X91617260Y-59487150D01*
X91617260Y-59999650D01*
X91616207Y-60021091D01*
X91613057Y-60042326D01*
X91607841Y-60063150D01*
X91600609Y-60083362D01*
X91591430Y-60102768D01*
X91580394Y-60121181D01*
X91567606Y-60138424D01*
X91553190Y-60154330D01*
X91537284Y-60168746D01*
X91520041Y-60181534D01*
X91501628Y-60192570D01*
X91482222Y-60201749D01*
X91462010Y-60208981D01*
X91441186Y-60214197D01*
X91419951Y-60217347D01*
X91398510Y-60218400D01*
X90961010Y-60218400D01*
X90939569Y-60217347D01*
X90918334Y-60214197D01*
X90897510Y-60208981D01*
X90877298Y-60201749D01*
X90857892Y-60192570D01*
X90839479Y-60181534D01*
X90822236Y-60168746D01*
X90806330Y-60154330D01*
X90791914Y-60138424D01*
X90779126Y-60121181D01*
X90768090Y-60102768D01*
X90758911Y-60083362D01*
X90751679Y-60063150D01*
X90746463Y-60042326D01*
X90743313Y-60021091D01*
X90742260Y-59999650D01*
X90742260Y-59487150D01*
X90743313Y-59465709D01*
X90746463Y-59444474D01*
X90751679Y-59423650D01*
X90758911Y-59403438D01*
X90768090Y-59384032D01*
X90779126Y-59365619D01*
X90791914Y-59348376D01*
X90806330Y-59332470D01*
X90822236Y-59318054D01*
X90839479Y-59305266D01*
X90857892Y-59294230D01*
X90877298Y-59285051D01*
X90897510Y-59277819D01*
X90918334Y-59272603D01*
X90939569Y-59269453D01*
X90961010Y-59268400D01*
X91398510Y-59268400D01*
X91419951Y-59269453D01*
X91419951Y-59269453D01*
G37*
D19*
X91179760Y-59743400D03*
G04 #@! TD*
D18*
G04 #@! TO.C,R14*
G36*
X91460591Y-65347673D02*
X91481826Y-65350823D01*
X91502650Y-65356039D01*
X91522862Y-65363271D01*
X91542268Y-65372450D01*
X91560681Y-65383486D01*
X91577924Y-65396274D01*
X91593830Y-65410690D01*
X91608246Y-65426596D01*
X91621034Y-65443839D01*
X91632070Y-65462252D01*
X91641249Y-65481658D01*
X91648481Y-65501870D01*
X91653697Y-65522694D01*
X91656847Y-65543929D01*
X91657900Y-65565370D01*
X91657900Y-66077870D01*
X91656847Y-66099311D01*
X91653697Y-66120546D01*
X91648481Y-66141370D01*
X91641249Y-66161582D01*
X91632070Y-66180988D01*
X91621034Y-66199401D01*
X91608246Y-66216644D01*
X91593830Y-66232550D01*
X91577924Y-66246966D01*
X91560681Y-66259754D01*
X91542268Y-66270790D01*
X91522862Y-66279969D01*
X91502650Y-66287201D01*
X91481826Y-66292417D01*
X91460591Y-66295567D01*
X91439150Y-66296620D01*
X91001650Y-66296620D01*
X90980209Y-66295567D01*
X90958974Y-66292417D01*
X90938150Y-66287201D01*
X90917938Y-66279969D01*
X90898532Y-66270790D01*
X90880119Y-66259754D01*
X90862876Y-66246966D01*
X90846970Y-66232550D01*
X90832554Y-66216644D01*
X90819766Y-66199401D01*
X90808730Y-66180988D01*
X90799551Y-66161582D01*
X90792319Y-66141370D01*
X90787103Y-66120546D01*
X90783953Y-66099311D01*
X90782900Y-66077870D01*
X90782900Y-65565370D01*
X90783953Y-65543929D01*
X90787103Y-65522694D01*
X90792319Y-65501870D01*
X90799551Y-65481658D01*
X90808730Y-65462252D01*
X90819766Y-65443839D01*
X90832554Y-65426596D01*
X90846970Y-65410690D01*
X90862876Y-65396274D01*
X90880119Y-65383486D01*
X90898532Y-65372450D01*
X90917938Y-65363271D01*
X90938150Y-65356039D01*
X90958974Y-65350823D01*
X90980209Y-65347673D01*
X91001650Y-65346620D01*
X91439150Y-65346620D01*
X91460591Y-65347673D01*
X91460591Y-65347673D01*
G37*
D19*
X91220400Y-65821620D03*
D18*
G36*
X93035591Y-65347673D02*
X93056826Y-65350823D01*
X93077650Y-65356039D01*
X93097862Y-65363271D01*
X93117268Y-65372450D01*
X93135681Y-65383486D01*
X93152924Y-65396274D01*
X93168830Y-65410690D01*
X93183246Y-65426596D01*
X93196034Y-65443839D01*
X93207070Y-65462252D01*
X93216249Y-65481658D01*
X93223481Y-65501870D01*
X93228697Y-65522694D01*
X93231847Y-65543929D01*
X93232900Y-65565370D01*
X93232900Y-66077870D01*
X93231847Y-66099311D01*
X93228697Y-66120546D01*
X93223481Y-66141370D01*
X93216249Y-66161582D01*
X93207070Y-66180988D01*
X93196034Y-66199401D01*
X93183246Y-66216644D01*
X93168830Y-66232550D01*
X93152924Y-66246966D01*
X93135681Y-66259754D01*
X93117268Y-66270790D01*
X93097862Y-66279969D01*
X93077650Y-66287201D01*
X93056826Y-66292417D01*
X93035591Y-66295567D01*
X93014150Y-66296620D01*
X92576650Y-66296620D01*
X92555209Y-66295567D01*
X92533974Y-66292417D01*
X92513150Y-66287201D01*
X92492938Y-66279969D01*
X92473532Y-66270790D01*
X92455119Y-66259754D01*
X92437876Y-66246966D01*
X92421970Y-66232550D01*
X92407554Y-66216644D01*
X92394766Y-66199401D01*
X92383730Y-66180988D01*
X92374551Y-66161582D01*
X92367319Y-66141370D01*
X92362103Y-66120546D01*
X92358953Y-66099311D01*
X92357900Y-66077870D01*
X92357900Y-65565370D01*
X92358953Y-65543929D01*
X92362103Y-65522694D01*
X92367319Y-65501870D01*
X92374551Y-65481658D01*
X92383730Y-65462252D01*
X92394766Y-65443839D01*
X92407554Y-65426596D01*
X92421970Y-65410690D01*
X92437876Y-65396274D01*
X92455119Y-65383486D01*
X92473532Y-65372450D01*
X92492938Y-65363271D01*
X92513150Y-65356039D01*
X92533974Y-65350823D01*
X92555209Y-65347673D01*
X92576650Y-65346620D01*
X93014150Y-65346620D01*
X93035591Y-65347673D01*
X93035591Y-65347673D01*
G37*
D19*
X92795400Y-65821620D03*
G04 #@! TD*
D18*
G04 #@! TO.C,C15*
G36*
X62222704Y-55059804D02*
X62246973Y-55063404D01*
X62270771Y-55069365D01*
X62293871Y-55077630D01*
X62316049Y-55088120D01*
X62337093Y-55100733D01*
X62356798Y-55115347D01*
X62374977Y-55131823D01*
X62391453Y-55150002D01*
X62406067Y-55169707D01*
X62418680Y-55190751D01*
X62429170Y-55212929D01*
X62437435Y-55236029D01*
X62443396Y-55259827D01*
X62446996Y-55284096D01*
X62448200Y-55308600D01*
X62448200Y-57458600D01*
X62446996Y-57483104D01*
X62443396Y-57507373D01*
X62437435Y-57531171D01*
X62429170Y-57554271D01*
X62418680Y-57576449D01*
X62406067Y-57597493D01*
X62391453Y-57617198D01*
X62374977Y-57635377D01*
X62356798Y-57651853D01*
X62337093Y-57666467D01*
X62316049Y-57679080D01*
X62293871Y-57689570D01*
X62270771Y-57697835D01*
X62246973Y-57703796D01*
X62222704Y-57707396D01*
X62198200Y-57708600D01*
X61448200Y-57708600D01*
X61423696Y-57707396D01*
X61399427Y-57703796D01*
X61375629Y-57697835D01*
X61352529Y-57689570D01*
X61330351Y-57679080D01*
X61309307Y-57666467D01*
X61289602Y-57651853D01*
X61271423Y-57635377D01*
X61254947Y-57617198D01*
X61240333Y-57597493D01*
X61227720Y-57576449D01*
X61217230Y-57554271D01*
X61208965Y-57531171D01*
X61203004Y-57507373D01*
X61199404Y-57483104D01*
X61198200Y-57458600D01*
X61198200Y-55308600D01*
X61199404Y-55284096D01*
X61203004Y-55259827D01*
X61208965Y-55236029D01*
X61217230Y-55212929D01*
X61227720Y-55190751D01*
X61240333Y-55169707D01*
X61254947Y-55150002D01*
X61271423Y-55131823D01*
X61289602Y-55115347D01*
X61309307Y-55100733D01*
X61330351Y-55088120D01*
X61352529Y-55077630D01*
X61375629Y-55069365D01*
X61399427Y-55063404D01*
X61423696Y-55059804D01*
X61448200Y-55058600D01*
X62198200Y-55058600D01*
X62222704Y-55059804D01*
X62222704Y-55059804D01*
G37*
D22*
X61823200Y-56383600D03*
D18*
G36*
X65022704Y-55059804D02*
X65046973Y-55063404D01*
X65070771Y-55069365D01*
X65093871Y-55077630D01*
X65116049Y-55088120D01*
X65137093Y-55100733D01*
X65156798Y-55115347D01*
X65174977Y-55131823D01*
X65191453Y-55150002D01*
X65206067Y-55169707D01*
X65218680Y-55190751D01*
X65229170Y-55212929D01*
X65237435Y-55236029D01*
X65243396Y-55259827D01*
X65246996Y-55284096D01*
X65248200Y-55308600D01*
X65248200Y-57458600D01*
X65246996Y-57483104D01*
X65243396Y-57507373D01*
X65237435Y-57531171D01*
X65229170Y-57554271D01*
X65218680Y-57576449D01*
X65206067Y-57597493D01*
X65191453Y-57617198D01*
X65174977Y-57635377D01*
X65156798Y-57651853D01*
X65137093Y-57666467D01*
X65116049Y-57679080D01*
X65093871Y-57689570D01*
X65070771Y-57697835D01*
X65046973Y-57703796D01*
X65022704Y-57707396D01*
X64998200Y-57708600D01*
X64248200Y-57708600D01*
X64223696Y-57707396D01*
X64199427Y-57703796D01*
X64175629Y-57697835D01*
X64152529Y-57689570D01*
X64130351Y-57679080D01*
X64109307Y-57666467D01*
X64089602Y-57651853D01*
X64071423Y-57635377D01*
X64054947Y-57617198D01*
X64040333Y-57597493D01*
X64027720Y-57576449D01*
X64017230Y-57554271D01*
X64008965Y-57531171D01*
X64003004Y-57507373D01*
X63999404Y-57483104D01*
X63998200Y-57458600D01*
X63998200Y-55308600D01*
X63999404Y-55284096D01*
X64003004Y-55259827D01*
X64008965Y-55236029D01*
X64017230Y-55212929D01*
X64027720Y-55190751D01*
X64040333Y-55169707D01*
X64054947Y-55150002D01*
X64071423Y-55131823D01*
X64089602Y-55115347D01*
X64109307Y-55100733D01*
X64130351Y-55088120D01*
X64152529Y-55077630D01*
X64175629Y-55069365D01*
X64199427Y-55063404D01*
X64223696Y-55059804D01*
X64248200Y-55058600D01*
X64998200Y-55058600D01*
X65022704Y-55059804D01*
X65022704Y-55059804D01*
G37*
D22*
X64623200Y-56383600D03*
G04 #@! TD*
D18*
G04 #@! TO.C,C1*
G36*
X79120291Y-87888753D02*
X79141526Y-87891903D01*
X79162350Y-87897119D01*
X79182562Y-87904351D01*
X79201968Y-87913530D01*
X79220381Y-87924566D01*
X79237624Y-87937354D01*
X79253530Y-87951770D01*
X79267946Y-87967676D01*
X79280734Y-87984919D01*
X79291770Y-88003332D01*
X79300949Y-88022738D01*
X79308181Y-88042950D01*
X79313397Y-88063774D01*
X79316547Y-88085009D01*
X79317600Y-88106450D01*
X79317600Y-88618950D01*
X79316547Y-88640391D01*
X79313397Y-88661626D01*
X79308181Y-88682450D01*
X79300949Y-88702662D01*
X79291770Y-88722068D01*
X79280734Y-88740481D01*
X79267946Y-88757724D01*
X79253530Y-88773630D01*
X79237624Y-88788046D01*
X79220381Y-88800834D01*
X79201968Y-88811870D01*
X79182562Y-88821049D01*
X79162350Y-88828281D01*
X79141526Y-88833497D01*
X79120291Y-88836647D01*
X79098850Y-88837700D01*
X78661350Y-88837700D01*
X78639909Y-88836647D01*
X78618674Y-88833497D01*
X78597850Y-88828281D01*
X78577638Y-88821049D01*
X78558232Y-88811870D01*
X78539819Y-88800834D01*
X78522576Y-88788046D01*
X78506670Y-88773630D01*
X78492254Y-88757724D01*
X78479466Y-88740481D01*
X78468430Y-88722068D01*
X78459251Y-88702662D01*
X78452019Y-88682450D01*
X78446803Y-88661626D01*
X78443653Y-88640391D01*
X78442600Y-88618950D01*
X78442600Y-88106450D01*
X78443653Y-88085009D01*
X78446803Y-88063774D01*
X78452019Y-88042950D01*
X78459251Y-88022738D01*
X78468430Y-88003332D01*
X78479466Y-87984919D01*
X78492254Y-87967676D01*
X78506670Y-87951770D01*
X78522576Y-87937354D01*
X78539819Y-87924566D01*
X78558232Y-87913530D01*
X78577638Y-87904351D01*
X78597850Y-87897119D01*
X78618674Y-87891903D01*
X78639909Y-87888753D01*
X78661350Y-87887700D01*
X79098850Y-87887700D01*
X79120291Y-87888753D01*
X79120291Y-87888753D01*
G37*
D19*
X78880100Y-88362700D03*
D18*
G36*
X80695291Y-87888753D02*
X80716526Y-87891903D01*
X80737350Y-87897119D01*
X80757562Y-87904351D01*
X80776968Y-87913530D01*
X80795381Y-87924566D01*
X80812624Y-87937354D01*
X80828530Y-87951770D01*
X80842946Y-87967676D01*
X80855734Y-87984919D01*
X80866770Y-88003332D01*
X80875949Y-88022738D01*
X80883181Y-88042950D01*
X80888397Y-88063774D01*
X80891547Y-88085009D01*
X80892600Y-88106450D01*
X80892600Y-88618950D01*
X80891547Y-88640391D01*
X80888397Y-88661626D01*
X80883181Y-88682450D01*
X80875949Y-88702662D01*
X80866770Y-88722068D01*
X80855734Y-88740481D01*
X80842946Y-88757724D01*
X80828530Y-88773630D01*
X80812624Y-88788046D01*
X80795381Y-88800834D01*
X80776968Y-88811870D01*
X80757562Y-88821049D01*
X80737350Y-88828281D01*
X80716526Y-88833497D01*
X80695291Y-88836647D01*
X80673850Y-88837700D01*
X80236350Y-88837700D01*
X80214909Y-88836647D01*
X80193674Y-88833497D01*
X80172850Y-88828281D01*
X80152638Y-88821049D01*
X80133232Y-88811870D01*
X80114819Y-88800834D01*
X80097576Y-88788046D01*
X80081670Y-88773630D01*
X80067254Y-88757724D01*
X80054466Y-88740481D01*
X80043430Y-88722068D01*
X80034251Y-88702662D01*
X80027019Y-88682450D01*
X80021803Y-88661626D01*
X80018653Y-88640391D01*
X80017600Y-88618950D01*
X80017600Y-88106450D01*
X80018653Y-88085009D01*
X80021803Y-88063774D01*
X80027019Y-88042950D01*
X80034251Y-88022738D01*
X80043430Y-88003332D01*
X80054466Y-87984919D01*
X80067254Y-87967676D01*
X80081670Y-87951770D01*
X80097576Y-87937354D01*
X80114819Y-87924566D01*
X80133232Y-87913530D01*
X80152638Y-87904351D01*
X80172850Y-87897119D01*
X80193674Y-87891903D01*
X80214909Y-87888753D01*
X80236350Y-87887700D01*
X80673850Y-87887700D01*
X80695291Y-87888753D01*
X80695291Y-87888753D01*
G37*
D19*
X80455100Y-88362700D03*
G04 #@! TD*
D18*
G04 #@! TO.C,C2*
G36*
X77367691Y-80506053D02*
X77388926Y-80509203D01*
X77409750Y-80514419D01*
X77429962Y-80521651D01*
X77449368Y-80530830D01*
X77467781Y-80541866D01*
X77485024Y-80554654D01*
X77500930Y-80569070D01*
X77515346Y-80584976D01*
X77528134Y-80602219D01*
X77539170Y-80620632D01*
X77548349Y-80640038D01*
X77555581Y-80660250D01*
X77560797Y-80681074D01*
X77563947Y-80702309D01*
X77565000Y-80723750D01*
X77565000Y-81236250D01*
X77563947Y-81257691D01*
X77560797Y-81278926D01*
X77555581Y-81299750D01*
X77548349Y-81319962D01*
X77539170Y-81339368D01*
X77528134Y-81357781D01*
X77515346Y-81375024D01*
X77500930Y-81390930D01*
X77485024Y-81405346D01*
X77467781Y-81418134D01*
X77449368Y-81429170D01*
X77429962Y-81438349D01*
X77409750Y-81445581D01*
X77388926Y-81450797D01*
X77367691Y-81453947D01*
X77346250Y-81455000D01*
X76908750Y-81455000D01*
X76887309Y-81453947D01*
X76866074Y-81450797D01*
X76845250Y-81445581D01*
X76825038Y-81438349D01*
X76805632Y-81429170D01*
X76787219Y-81418134D01*
X76769976Y-81405346D01*
X76754070Y-81390930D01*
X76739654Y-81375024D01*
X76726866Y-81357781D01*
X76715830Y-81339368D01*
X76706651Y-81319962D01*
X76699419Y-81299750D01*
X76694203Y-81278926D01*
X76691053Y-81257691D01*
X76690000Y-81236250D01*
X76690000Y-80723750D01*
X76691053Y-80702309D01*
X76694203Y-80681074D01*
X76699419Y-80660250D01*
X76706651Y-80640038D01*
X76715830Y-80620632D01*
X76726866Y-80602219D01*
X76739654Y-80584976D01*
X76754070Y-80569070D01*
X76769976Y-80554654D01*
X76787219Y-80541866D01*
X76805632Y-80530830D01*
X76825038Y-80521651D01*
X76845250Y-80514419D01*
X76866074Y-80509203D01*
X76887309Y-80506053D01*
X76908750Y-80505000D01*
X77346250Y-80505000D01*
X77367691Y-80506053D01*
X77367691Y-80506053D01*
G37*
D19*
X77127500Y-80980000D03*
D18*
G36*
X75792691Y-80506053D02*
X75813926Y-80509203D01*
X75834750Y-80514419D01*
X75854962Y-80521651D01*
X75874368Y-80530830D01*
X75892781Y-80541866D01*
X75910024Y-80554654D01*
X75925930Y-80569070D01*
X75940346Y-80584976D01*
X75953134Y-80602219D01*
X75964170Y-80620632D01*
X75973349Y-80640038D01*
X75980581Y-80660250D01*
X75985797Y-80681074D01*
X75988947Y-80702309D01*
X75990000Y-80723750D01*
X75990000Y-81236250D01*
X75988947Y-81257691D01*
X75985797Y-81278926D01*
X75980581Y-81299750D01*
X75973349Y-81319962D01*
X75964170Y-81339368D01*
X75953134Y-81357781D01*
X75940346Y-81375024D01*
X75925930Y-81390930D01*
X75910024Y-81405346D01*
X75892781Y-81418134D01*
X75874368Y-81429170D01*
X75854962Y-81438349D01*
X75834750Y-81445581D01*
X75813926Y-81450797D01*
X75792691Y-81453947D01*
X75771250Y-81455000D01*
X75333750Y-81455000D01*
X75312309Y-81453947D01*
X75291074Y-81450797D01*
X75270250Y-81445581D01*
X75250038Y-81438349D01*
X75230632Y-81429170D01*
X75212219Y-81418134D01*
X75194976Y-81405346D01*
X75179070Y-81390930D01*
X75164654Y-81375024D01*
X75151866Y-81357781D01*
X75140830Y-81339368D01*
X75131651Y-81319962D01*
X75124419Y-81299750D01*
X75119203Y-81278926D01*
X75116053Y-81257691D01*
X75115000Y-81236250D01*
X75115000Y-80723750D01*
X75116053Y-80702309D01*
X75119203Y-80681074D01*
X75124419Y-80660250D01*
X75131651Y-80640038D01*
X75140830Y-80620632D01*
X75151866Y-80602219D01*
X75164654Y-80584976D01*
X75179070Y-80569070D01*
X75194976Y-80554654D01*
X75212219Y-80541866D01*
X75230632Y-80530830D01*
X75250038Y-80521651D01*
X75270250Y-80514419D01*
X75291074Y-80509203D01*
X75312309Y-80506053D01*
X75333750Y-80505000D01*
X75771250Y-80505000D01*
X75792691Y-80506053D01*
X75792691Y-80506053D01*
G37*
D19*
X75552500Y-80980000D03*
G04 #@! TD*
D18*
G04 #@! TO.C,C3*
G36*
X65520251Y-83196633D02*
X65541486Y-83199783D01*
X65562310Y-83204999D01*
X65582522Y-83212231D01*
X65601928Y-83221410D01*
X65620341Y-83232446D01*
X65637584Y-83245234D01*
X65653490Y-83259650D01*
X65667906Y-83275556D01*
X65680694Y-83292799D01*
X65691730Y-83311212D01*
X65700909Y-83330618D01*
X65708141Y-83350830D01*
X65713357Y-83371654D01*
X65716507Y-83392889D01*
X65717560Y-83414330D01*
X65717560Y-83851830D01*
X65716507Y-83873271D01*
X65713357Y-83894506D01*
X65708141Y-83915330D01*
X65700909Y-83935542D01*
X65691730Y-83954948D01*
X65680694Y-83973361D01*
X65667906Y-83990604D01*
X65653490Y-84006510D01*
X65637584Y-84020926D01*
X65620341Y-84033714D01*
X65601928Y-84044750D01*
X65582522Y-84053929D01*
X65562310Y-84061161D01*
X65541486Y-84066377D01*
X65520251Y-84069527D01*
X65498810Y-84070580D01*
X64986310Y-84070580D01*
X64964869Y-84069527D01*
X64943634Y-84066377D01*
X64922810Y-84061161D01*
X64902598Y-84053929D01*
X64883192Y-84044750D01*
X64864779Y-84033714D01*
X64847536Y-84020926D01*
X64831630Y-84006510D01*
X64817214Y-83990604D01*
X64804426Y-83973361D01*
X64793390Y-83954948D01*
X64784211Y-83935542D01*
X64776979Y-83915330D01*
X64771763Y-83894506D01*
X64768613Y-83873271D01*
X64767560Y-83851830D01*
X64767560Y-83414330D01*
X64768613Y-83392889D01*
X64771763Y-83371654D01*
X64776979Y-83350830D01*
X64784211Y-83330618D01*
X64793390Y-83311212D01*
X64804426Y-83292799D01*
X64817214Y-83275556D01*
X64831630Y-83259650D01*
X64847536Y-83245234D01*
X64864779Y-83232446D01*
X64883192Y-83221410D01*
X64902598Y-83212231D01*
X64922810Y-83204999D01*
X64943634Y-83199783D01*
X64964869Y-83196633D01*
X64986310Y-83195580D01*
X65498810Y-83195580D01*
X65520251Y-83196633D01*
X65520251Y-83196633D01*
G37*
D19*
X65242560Y-83633080D03*
D18*
G36*
X65520251Y-81621633D02*
X65541486Y-81624783D01*
X65562310Y-81629999D01*
X65582522Y-81637231D01*
X65601928Y-81646410D01*
X65620341Y-81657446D01*
X65637584Y-81670234D01*
X65653490Y-81684650D01*
X65667906Y-81700556D01*
X65680694Y-81717799D01*
X65691730Y-81736212D01*
X65700909Y-81755618D01*
X65708141Y-81775830D01*
X65713357Y-81796654D01*
X65716507Y-81817889D01*
X65717560Y-81839330D01*
X65717560Y-82276830D01*
X65716507Y-82298271D01*
X65713357Y-82319506D01*
X65708141Y-82340330D01*
X65700909Y-82360542D01*
X65691730Y-82379948D01*
X65680694Y-82398361D01*
X65667906Y-82415604D01*
X65653490Y-82431510D01*
X65637584Y-82445926D01*
X65620341Y-82458714D01*
X65601928Y-82469750D01*
X65582522Y-82478929D01*
X65562310Y-82486161D01*
X65541486Y-82491377D01*
X65520251Y-82494527D01*
X65498810Y-82495580D01*
X64986310Y-82495580D01*
X64964869Y-82494527D01*
X64943634Y-82491377D01*
X64922810Y-82486161D01*
X64902598Y-82478929D01*
X64883192Y-82469750D01*
X64864779Y-82458714D01*
X64847536Y-82445926D01*
X64831630Y-82431510D01*
X64817214Y-82415604D01*
X64804426Y-82398361D01*
X64793390Y-82379948D01*
X64784211Y-82360542D01*
X64776979Y-82340330D01*
X64771763Y-82319506D01*
X64768613Y-82298271D01*
X64767560Y-82276830D01*
X64767560Y-81839330D01*
X64768613Y-81817889D01*
X64771763Y-81796654D01*
X64776979Y-81775830D01*
X64784211Y-81755618D01*
X64793390Y-81736212D01*
X64804426Y-81717799D01*
X64817214Y-81700556D01*
X64831630Y-81684650D01*
X64847536Y-81670234D01*
X64864779Y-81657446D01*
X64883192Y-81646410D01*
X64902598Y-81637231D01*
X64922810Y-81629999D01*
X64943634Y-81624783D01*
X64964869Y-81621633D01*
X64986310Y-81620580D01*
X65498810Y-81620580D01*
X65520251Y-81621633D01*
X65520251Y-81621633D01*
G37*
D19*
X65242560Y-82058080D03*
G04 #@! TD*
D18*
G04 #@! TO.C,C16*
G36*
X88027691Y-75066053D02*
X88048926Y-75069203D01*
X88069750Y-75074419D01*
X88089962Y-75081651D01*
X88109368Y-75090830D01*
X88127781Y-75101866D01*
X88145024Y-75114654D01*
X88160930Y-75129070D01*
X88175346Y-75144976D01*
X88188134Y-75162219D01*
X88199170Y-75180632D01*
X88208349Y-75200038D01*
X88215581Y-75220250D01*
X88220797Y-75241074D01*
X88223947Y-75262309D01*
X88225000Y-75283750D01*
X88225000Y-75796250D01*
X88223947Y-75817691D01*
X88220797Y-75838926D01*
X88215581Y-75859750D01*
X88208349Y-75879962D01*
X88199170Y-75899368D01*
X88188134Y-75917781D01*
X88175346Y-75935024D01*
X88160930Y-75950930D01*
X88145024Y-75965346D01*
X88127781Y-75978134D01*
X88109368Y-75989170D01*
X88089962Y-75998349D01*
X88069750Y-76005581D01*
X88048926Y-76010797D01*
X88027691Y-76013947D01*
X88006250Y-76015000D01*
X87568750Y-76015000D01*
X87547309Y-76013947D01*
X87526074Y-76010797D01*
X87505250Y-76005581D01*
X87485038Y-75998349D01*
X87465632Y-75989170D01*
X87447219Y-75978134D01*
X87429976Y-75965346D01*
X87414070Y-75950930D01*
X87399654Y-75935024D01*
X87386866Y-75917781D01*
X87375830Y-75899368D01*
X87366651Y-75879962D01*
X87359419Y-75859750D01*
X87354203Y-75838926D01*
X87351053Y-75817691D01*
X87350000Y-75796250D01*
X87350000Y-75283750D01*
X87351053Y-75262309D01*
X87354203Y-75241074D01*
X87359419Y-75220250D01*
X87366651Y-75200038D01*
X87375830Y-75180632D01*
X87386866Y-75162219D01*
X87399654Y-75144976D01*
X87414070Y-75129070D01*
X87429976Y-75114654D01*
X87447219Y-75101866D01*
X87465632Y-75090830D01*
X87485038Y-75081651D01*
X87505250Y-75074419D01*
X87526074Y-75069203D01*
X87547309Y-75066053D01*
X87568750Y-75065000D01*
X88006250Y-75065000D01*
X88027691Y-75066053D01*
X88027691Y-75066053D01*
G37*
D19*
X87787500Y-75540000D03*
D18*
G36*
X86452691Y-75066053D02*
X86473926Y-75069203D01*
X86494750Y-75074419D01*
X86514962Y-75081651D01*
X86534368Y-75090830D01*
X86552781Y-75101866D01*
X86570024Y-75114654D01*
X86585930Y-75129070D01*
X86600346Y-75144976D01*
X86613134Y-75162219D01*
X86624170Y-75180632D01*
X86633349Y-75200038D01*
X86640581Y-75220250D01*
X86645797Y-75241074D01*
X86648947Y-75262309D01*
X86650000Y-75283750D01*
X86650000Y-75796250D01*
X86648947Y-75817691D01*
X86645797Y-75838926D01*
X86640581Y-75859750D01*
X86633349Y-75879962D01*
X86624170Y-75899368D01*
X86613134Y-75917781D01*
X86600346Y-75935024D01*
X86585930Y-75950930D01*
X86570024Y-75965346D01*
X86552781Y-75978134D01*
X86534368Y-75989170D01*
X86514962Y-75998349D01*
X86494750Y-76005581D01*
X86473926Y-76010797D01*
X86452691Y-76013947D01*
X86431250Y-76015000D01*
X85993750Y-76015000D01*
X85972309Y-76013947D01*
X85951074Y-76010797D01*
X85930250Y-76005581D01*
X85910038Y-75998349D01*
X85890632Y-75989170D01*
X85872219Y-75978134D01*
X85854976Y-75965346D01*
X85839070Y-75950930D01*
X85824654Y-75935024D01*
X85811866Y-75917781D01*
X85800830Y-75899368D01*
X85791651Y-75879962D01*
X85784419Y-75859750D01*
X85779203Y-75838926D01*
X85776053Y-75817691D01*
X85775000Y-75796250D01*
X85775000Y-75283750D01*
X85776053Y-75262309D01*
X85779203Y-75241074D01*
X85784419Y-75220250D01*
X85791651Y-75200038D01*
X85800830Y-75180632D01*
X85811866Y-75162219D01*
X85824654Y-75144976D01*
X85839070Y-75129070D01*
X85854976Y-75114654D01*
X85872219Y-75101866D01*
X85890632Y-75090830D01*
X85910038Y-75081651D01*
X85930250Y-75074419D01*
X85951074Y-75069203D01*
X85972309Y-75066053D01*
X85993750Y-75065000D01*
X86431250Y-75065000D01*
X86452691Y-75066053D01*
X86452691Y-75066053D01*
G37*
D19*
X86212500Y-75540000D03*
G04 #@! TD*
D18*
G04 #@! TO.C,C17*
G36*
X93209504Y-68576204D02*
X93233773Y-68579804D01*
X93257571Y-68585765D01*
X93280671Y-68594030D01*
X93302849Y-68604520D01*
X93323893Y-68617133D01*
X93343598Y-68631747D01*
X93361777Y-68648223D01*
X93378253Y-68666402D01*
X93392867Y-68686107D01*
X93405480Y-68707151D01*
X93415970Y-68729329D01*
X93424235Y-68752429D01*
X93430196Y-68776227D01*
X93433796Y-68800496D01*
X93435000Y-68825000D01*
X93435000Y-69575000D01*
X93433796Y-69599504D01*
X93430196Y-69623773D01*
X93424235Y-69647571D01*
X93415970Y-69670671D01*
X93405480Y-69692849D01*
X93392867Y-69713893D01*
X93378253Y-69733598D01*
X93361777Y-69751777D01*
X93343598Y-69768253D01*
X93323893Y-69782867D01*
X93302849Y-69795480D01*
X93280671Y-69805970D01*
X93257571Y-69814235D01*
X93233773Y-69820196D01*
X93209504Y-69823796D01*
X93185000Y-69825000D01*
X91035000Y-69825000D01*
X91010496Y-69823796D01*
X90986227Y-69820196D01*
X90962429Y-69814235D01*
X90939329Y-69805970D01*
X90917151Y-69795480D01*
X90896107Y-69782867D01*
X90876402Y-69768253D01*
X90858223Y-69751777D01*
X90841747Y-69733598D01*
X90827133Y-69713893D01*
X90814520Y-69692849D01*
X90804030Y-69670671D01*
X90795765Y-69647571D01*
X90789804Y-69623773D01*
X90786204Y-69599504D01*
X90785000Y-69575000D01*
X90785000Y-68825000D01*
X90786204Y-68800496D01*
X90789804Y-68776227D01*
X90795765Y-68752429D01*
X90804030Y-68729329D01*
X90814520Y-68707151D01*
X90827133Y-68686107D01*
X90841747Y-68666402D01*
X90858223Y-68648223D01*
X90876402Y-68631747D01*
X90896107Y-68617133D01*
X90917151Y-68604520D01*
X90939329Y-68594030D01*
X90962429Y-68585765D01*
X90986227Y-68579804D01*
X91010496Y-68576204D01*
X91035000Y-68575000D01*
X93185000Y-68575000D01*
X93209504Y-68576204D01*
X93209504Y-68576204D01*
G37*
D22*
X92110000Y-69200000D03*
D18*
G36*
X93209504Y-71376204D02*
X93233773Y-71379804D01*
X93257571Y-71385765D01*
X93280671Y-71394030D01*
X93302849Y-71404520D01*
X93323893Y-71417133D01*
X93343598Y-71431747D01*
X93361777Y-71448223D01*
X93378253Y-71466402D01*
X93392867Y-71486107D01*
X93405480Y-71507151D01*
X93415970Y-71529329D01*
X93424235Y-71552429D01*
X93430196Y-71576227D01*
X93433796Y-71600496D01*
X93435000Y-71625000D01*
X93435000Y-72375000D01*
X93433796Y-72399504D01*
X93430196Y-72423773D01*
X93424235Y-72447571D01*
X93415970Y-72470671D01*
X93405480Y-72492849D01*
X93392867Y-72513893D01*
X93378253Y-72533598D01*
X93361777Y-72551777D01*
X93343598Y-72568253D01*
X93323893Y-72582867D01*
X93302849Y-72595480D01*
X93280671Y-72605970D01*
X93257571Y-72614235D01*
X93233773Y-72620196D01*
X93209504Y-72623796D01*
X93185000Y-72625000D01*
X91035000Y-72625000D01*
X91010496Y-72623796D01*
X90986227Y-72620196D01*
X90962429Y-72614235D01*
X90939329Y-72605970D01*
X90917151Y-72595480D01*
X90896107Y-72582867D01*
X90876402Y-72568253D01*
X90858223Y-72551777D01*
X90841747Y-72533598D01*
X90827133Y-72513893D01*
X90814520Y-72492849D01*
X90804030Y-72470671D01*
X90795765Y-72447571D01*
X90789804Y-72423773D01*
X90786204Y-72399504D01*
X90785000Y-72375000D01*
X90785000Y-71625000D01*
X90786204Y-71600496D01*
X90789804Y-71576227D01*
X90795765Y-71552429D01*
X90804030Y-71529329D01*
X90814520Y-71507151D01*
X90827133Y-71486107D01*
X90841747Y-71466402D01*
X90858223Y-71448223D01*
X90876402Y-71431747D01*
X90896107Y-71417133D01*
X90917151Y-71404520D01*
X90939329Y-71394030D01*
X90962429Y-71385765D01*
X90986227Y-71379804D01*
X91010496Y-71376204D01*
X91035000Y-71375000D01*
X93185000Y-71375000D01*
X93209504Y-71376204D01*
X93209504Y-71376204D01*
G37*
D22*
X92110000Y-72000000D03*
G04 #@! TD*
D18*
G04 #@! TO.C,C18*
G36*
X86717691Y-69206053D02*
X86738926Y-69209203D01*
X86759750Y-69214419D01*
X86779962Y-69221651D01*
X86799368Y-69230830D01*
X86817781Y-69241866D01*
X86835024Y-69254654D01*
X86850930Y-69269070D01*
X86865346Y-69284976D01*
X86878134Y-69302219D01*
X86889170Y-69320632D01*
X86898349Y-69340038D01*
X86905581Y-69360250D01*
X86910797Y-69381074D01*
X86913947Y-69402309D01*
X86915000Y-69423750D01*
X86915000Y-69861250D01*
X86913947Y-69882691D01*
X86910797Y-69903926D01*
X86905581Y-69924750D01*
X86898349Y-69944962D01*
X86889170Y-69964368D01*
X86878134Y-69982781D01*
X86865346Y-70000024D01*
X86850930Y-70015930D01*
X86835024Y-70030346D01*
X86817781Y-70043134D01*
X86799368Y-70054170D01*
X86779962Y-70063349D01*
X86759750Y-70070581D01*
X86738926Y-70075797D01*
X86717691Y-70078947D01*
X86696250Y-70080000D01*
X86183750Y-70080000D01*
X86162309Y-70078947D01*
X86141074Y-70075797D01*
X86120250Y-70070581D01*
X86100038Y-70063349D01*
X86080632Y-70054170D01*
X86062219Y-70043134D01*
X86044976Y-70030346D01*
X86029070Y-70015930D01*
X86014654Y-70000024D01*
X86001866Y-69982781D01*
X85990830Y-69964368D01*
X85981651Y-69944962D01*
X85974419Y-69924750D01*
X85969203Y-69903926D01*
X85966053Y-69882691D01*
X85965000Y-69861250D01*
X85965000Y-69423750D01*
X85966053Y-69402309D01*
X85969203Y-69381074D01*
X85974419Y-69360250D01*
X85981651Y-69340038D01*
X85990830Y-69320632D01*
X86001866Y-69302219D01*
X86014654Y-69284976D01*
X86029070Y-69269070D01*
X86044976Y-69254654D01*
X86062219Y-69241866D01*
X86080632Y-69230830D01*
X86100038Y-69221651D01*
X86120250Y-69214419D01*
X86141074Y-69209203D01*
X86162309Y-69206053D01*
X86183750Y-69205000D01*
X86696250Y-69205000D01*
X86717691Y-69206053D01*
X86717691Y-69206053D01*
G37*
D19*
X86440000Y-69642500D03*
D18*
G36*
X86717691Y-70781053D02*
X86738926Y-70784203D01*
X86759750Y-70789419D01*
X86779962Y-70796651D01*
X86799368Y-70805830D01*
X86817781Y-70816866D01*
X86835024Y-70829654D01*
X86850930Y-70844070D01*
X86865346Y-70859976D01*
X86878134Y-70877219D01*
X86889170Y-70895632D01*
X86898349Y-70915038D01*
X86905581Y-70935250D01*
X86910797Y-70956074D01*
X86913947Y-70977309D01*
X86915000Y-70998750D01*
X86915000Y-71436250D01*
X86913947Y-71457691D01*
X86910797Y-71478926D01*
X86905581Y-71499750D01*
X86898349Y-71519962D01*
X86889170Y-71539368D01*
X86878134Y-71557781D01*
X86865346Y-71575024D01*
X86850930Y-71590930D01*
X86835024Y-71605346D01*
X86817781Y-71618134D01*
X86799368Y-71629170D01*
X86779962Y-71638349D01*
X86759750Y-71645581D01*
X86738926Y-71650797D01*
X86717691Y-71653947D01*
X86696250Y-71655000D01*
X86183750Y-71655000D01*
X86162309Y-71653947D01*
X86141074Y-71650797D01*
X86120250Y-71645581D01*
X86100038Y-71638349D01*
X86080632Y-71629170D01*
X86062219Y-71618134D01*
X86044976Y-71605346D01*
X86029070Y-71590930D01*
X86014654Y-71575024D01*
X86001866Y-71557781D01*
X85990830Y-71539368D01*
X85981651Y-71519962D01*
X85974419Y-71499750D01*
X85969203Y-71478926D01*
X85966053Y-71457691D01*
X85965000Y-71436250D01*
X85965000Y-70998750D01*
X85966053Y-70977309D01*
X85969203Y-70956074D01*
X85974419Y-70935250D01*
X85981651Y-70915038D01*
X85990830Y-70895632D01*
X86001866Y-70877219D01*
X86014654Y-70859976D01*
X86029070Y-70844070D01*
X86044976Y-70829654D01*
X86062219Y-70816866D01*
X86080632Y-70805830D01*
X86100038Y-70796651D01*
X86120250Y-70789419D01*
X86141074Y-70784203D01*
X86162309Y-70781053D01*
X86183750Y-70780000D01*
X86696250Y-70780000D01*
X86717691Y-70781053D01*
X86717691Y-70781053D01*
G37*
D19*
X86440000Y-71217500D03*
G04 #@! TD*
D18*
G04 #@! TO.C,R6*
G36*
X93025431Y-63625553D02*
X93046666Y-63628703D01*
X93067490Y-63633919D01*
X93087702Y-63641151D01*
X93107108Y-63650330D01*
X93125521Y-63661366D01*
X93142764Y-63674154D01*
X93158670Y-63688570D01*
X93173086Y-63704476D01*
X93185874Y-63721719D01*
X93196910Y-63740132D01*
X93206089Y-63759538D01*
X93213321Y-63779750D01*
X93218537Y-63800574D01*
X93221687Y-63821809D01*
X93222740Y-63843250D01*
X93222740Y-64355750D01*
X93221687Y-64377191D01*
X93218537Y-64398426D01*
X93213321Y-64419250D01*
X93206089Y-64439462D01*
X93196910Y-64458868D01*
X93185874Y-64477281D01*
X93173086Y-64494524D01*
X93158670Y-64510430D01*
X93142764Y-64524846D01*
X93125521Y-64537634D01*
X93107108Y-64548670D01*
X93087702Y-64557849D01*
X93067490Y-64565081D01*
X93046666Y-64570297D01*
X93025431Y-64573447D01*
X93003990Y-64574500D01*
X92566490Y-64574500D01*
X92545049Y-64573447D01*
X92523814Y-64570297D01*
X92502990Y-64565081D01*
X92482778Y-64557849D01*
X92463372Y-64548670D01*
X92444959Y-64537634D01*
X92427716Y-64524846D01*
X92411810Y-64510430D01*
X92397394Y-64494524D01*
X92384606Y-64477281D01*
X92373570Y-64458868D01*
X92364391Y-64439462D01*
X92357159Y-64419250D01*
X92351943Y-64398426D01*
X92348793Y-64377191D01*
X92347740Y-64355750D01*
X92347740Y-63843250D01*
X92348793Y-63821809D01*
X92351943Y-63800574D01*
X92357159Y-63779750D01*
X92364391Y-63759538D01*
X92373570Y-63740132D01*
X92384606Y-63721719D01*
X92397394Y-63704476D01*
X92411810Y-63688570D01*
X92427716Y-63674154D01*
X92444959Y-63661366D01*
X92463372Y-63650330D01*
X92482778Y-63641151D01*
X92502990Y-63633919D01*
X92523814Y-63628703D01*
X92545049Y-63625553D01*
X92566490Y-63624500D01*
X93003990Y-63624500D01*
X93025431Y-63625553D01*
X93025431Y-63625553D01*
G37*
D19*
X92785240Y-64099500D03*
D18*
G36*
X91450431Y-63625553D02*
X91471666Y-63628703D01*
X91492490Y-63633919D01*
X91512702Y-63641151D01*
X91532108Y-63650330D01*
X91550521Y-63661366D01*
X91567764Y-63674154D01*
X91583670Y-63688570D01*
X91598086Y-63704476D01*
X91610874Y-63721719D01*
X91621910Y-63740132D01*
X91631089Y-63759538D01*
X91638321Y-63779750D01*
X91643537Y-63800574D01*
X91646687Y-63821809D01*
X91647740Y-63843250D01*
X91647740Y-64355750D01*
X91646687Y-64377191D01*
X91643537Y-64398426D01*
X91638321Y-64419250D01*
X91631089Y-64439462D01*
X91621910Y-64458868D01*
X91610874Y-64477281D01*
X91598086Y-64494524D01*
X91583670Y-64510430D01*
X91567764Y-64524846D01*
X91550521Y-64537634D01*
X91532108Y-64548670D01*
X91512702Y-64557849D01*
X91492490Y-64565081D01*
X91471666Y-64570297D01*
X91450431Y-64573447D01*
X91428990Y-64574500D01*
X90991490Y-64574500D01*
X90970049Y-64573447D01*
X90948814Y-64570297D01*
X90927990Y-64565081D01*
X90907778Y-64557849D01*
X90888372Y-64548670D01*
X90869959Y-64537634D01*
X90852716Y-64524846D01*
X90836810Y-64510430D01*
X90822394Y-64494524D01*
X90809606Y-64477281D01*
X90798570Y-64458868D01*
X90789391Y-64439462D01*
X90782159Y-64419250D01*
X90776943Y-64398426D01*
X90773793Y-64377191D01*
X90772740Y-64355750D01*
X90772740Y-63843250D01*
X90773793Y-63821809D01*
X90776943Y-63800574D01*
X90782159Y-63779750D01*
X90789391Y-63759538D01*
X90798570Y-63740132D01*
X90809606Y-63721719D01*
X90822394Y-63704476D01*
X90836810Y-63688570D01*
X90852716Y-63674154D01*
X90869959Y-63661366D01*
X90888372Y-63650330D01*
X90907778Y-63641151D01*
X90927990Y-63633919D01*
X90948814Y-63628703D01*
X90970049Y-63625553D01*
X90991490Y-63624500D01*
X91428990Y-63624500D01*
X91450431Y-63625553D01*
X91450431Y-63625553D01*
G37*
D19*
X91210240Y-64099500D03*
G04 #@! TD*
M02*
