G04 #@! TF.GenerationSoftware,KiCad,Pcbnew,5.0.2-bee76a0~70~ubuntu16.04.1*
G04 #@! TF.CreationDate,2020-11-05T00:34:30+01:00*
G04 #@! TF.ProjectId,WiRoc_NanoPi_v1,5769526f-635f-44e6-916e-6f50695f7631,rev?*
G04 #@! TF.SameCoordinates,Original*
G04 #@! TF.FileFunction,Soldermask,Bot*
G04 #@! TF.FilePolarity,Negative*
%FSLAX46Y46*%
G04 Gerber Fmt 4.6, Leading zero omitted, Abs format (unit mm)*
G04 Created by KiCad (PCBNEW 5.0.2-bee76a0~70~ubuntu16.04.1) date tor  5 nov 2020 00:34:30*
%MOMM*%
%LPD*%
G01*
G04 APERTURE LIST*
%ADD10C,0.100000*%
G04 APERTURE END LIST*
D10*
G36*
X79430107Y-112159396D02*
X79507236Y-112166993D01*
X79639187Y-112207020D01*
X79705163Y-112227033D01*
X79887572Y-112324533D01*
X80047454Y-112455746D01*
X80178667Y-112615628D01*
X80276167Y-112798037D01*
X80276167Y-112798038D01*
X80336207Y-112995964D01*
X80356480Y-113201800D01*
X80336207Y-113407636D01*
X80296180Y-113539587D01*
X80276167Y-113605563D01*
X80178667Y-113787972D01*
X80047454Y-113947854D01*
X79887572Y-114079067D01*
X79705163Y-114176567D01*
X79639187Y-114196580D01*
X79507236Y-114236607D01*
X79430107Y-114244204D01*
X79352980Y-114251800D01*
X79249820Y-114251800D01*
X79172693Y-114244204D01*
X79095564Y-114236607D01*
X78963613Y-114196580D01*
X78897637Y-114176567D01*
X78715228Y-114079067D01*
X78555346Y-113947854D01*
X78424133Y-113787972D01*
X78326633Y-113605563D01*
X78306620Y-113539587D01*
X78266593Y-113407636D01*
X78246320Y-113201800D01*
X78266593Y-112995964D01*
X78326633Y-112798038D01*
X78326633Y-112798037D01*
X78424133Y-112615628D01*
X78555346Y-112455746D01*
X78715228Y-112324533D01*
X78897637Y-112227033D01*
X78963613Y-112207020D01*
X79095564Y-112166993D01*
X79172693Y-112159396D01*
X79249820Y-112151800D01*
X79352980Y-112151800D01*
X79430107Y-112159396D01*
X79430107Y-112159396D01*
G37*
G36*
X77811400Y-114251800D02*
X75711400Y-114251800D01*
X75711400Y-112151800D01*
X77811400Y-112151800D01*
X77811400Y-114251800D01*
X77811400Y-114251800D01*
G37*
G36*
X51260000Y-107340000D02*
X49160000Y-107340000D01*
X49160000Y-105240000D01*
X51260000Y-105240000D01*
X51260000Y-107340000D01*
X51260000Y-107340000D01*
G37*
G36*
X53738707Y-105162597D02*
X53815836Y-105170193D01*
X53947787Y-105210220D01*
X54013763Y-105230233D01*
X54196172Y-105327733D01*
X54356054Y-105458946D01*
X54487267Y-105618828D01*
X54584767Y-105801237D01*
X54584767Y-105801238D01*
X54644807Y-105999164D01*
X54665080Y-106205000D01*
X54644807Y-106410836D01*
X54604780Y-106542787D01*
X54584767Y-106608763D01*
X54487267Y-106791172D01*
X54356054Y-106951054D01*
X54196172Y-107082267D01*
X54013763Y-107179767D01*
X53947787Y-107199780D01*
X53815836Y-107239807D01*
X53738707Y-107247403D01*
X53661580Y-107255000D01*
X53558420Y-107255000D01*
X53481293Y-107247403D01*
X53404164Y-107239807D01*
X53272213Y-107199780D01*
X53206237Y-107179767D01*
X53023828Y-107082267D01*
X52863946Y-106951054D01*
X52732733Y-106791172D01*
X52635233Y-106608763D01*
X52615220Y-106542787D01*
X52575193Y-106410836D01*
X52554920Y-106205000D01*
X52575193Y-105999164D01*
X52635233Y-105801238D01*
X52635233Y-105801237D01*
X52732733Y-105618828D01*
X52863946Y-105458946D01*
X53023828Y-105327733D01*
X53206237Y-105230233D01*
X53272213Y-105210220D01*
X53404164Y-105170193D01*
X53481293Y-105162597D01*
X53558420Y-105155000D01*
X53661580Y-105155000D01*
X53738707Y-105162597D01*
X53738707Y-105162597D01*
G37*
G36*
X91288707Y-105162597D02*
X91365836Y-105170193D01*
X91497787Y-105210220D01*
X91563763Y-105230233D01*
X91746172Y-105327733D01*
X91906054Y-105458946D01*
X92037267Y-105618828D01*
X92134767Y-105801237D01*
X92134767Y-105801238D01*
X92194807Y-105999164D01*
X92215080Y-106205000D01*
X92194807Y-106410836D01*
X92154780Y-106542787D01*
X92134767Y-106608763D01*
X92037267Y-106791172D01*
X91906054Y-106951054D01*
X91746172Y-107082267D01*
X91563763Y-107179767D01*
X91497787Y-107199780D01*
X91365836Y-107239807D01*
X91288707Y-107247403D01*
X91211580Y-107255000D01*
X91108420Y-107255000D01*
X91031293Y-107247403D01*
X90954164Y-107239807D01*
X90822213Y-107199780D01*
X90756237Y-107179767D01*
X90573828Y-107082267D01*
X90413946Y-106951054D01*
X90282733Y-106791172D01*
X90185233Y-106608763D01*
X90165220Y-106542787D01*
X90125193Y-106410836D01*
X90104920Y-106205000D01*
X90125193Y-105999164D01*
X90185233Y-105801238D01*
X90185233Y-105801237D01*
X90282733Y-105618828D01*
X90413946Y-105458946D01*
X90573828Y-105327733D01*
X90756237Y-105230233D01*
X90822213Y-105210220D01*
X90954164Y-105170193D01*
X91031293Y-105162597D01*
X91108420Y-105155000D01*
X91211580Y-105155000D01*
X91288707Y-105162597D01*
X91288707Y-105162597D01*
G37*
G36*
X57200000Y-107255000D02*
X55100000Y-107255000D01*
X55100000Y-105155000D01*
X57200000Y-105155000D01*
X57200000Y-107255000D01*
X57200000Y-107255000D01*
G37*
G36*
X88748707Y-105162597D02*
X88825836Y-105170193D01*
X88957787Y-105210220D01*
X89023763Y-105230233D01*
X89206172Y-105327733D01*
X89366054Y-105458946D01*
X89497267Y-105618828D01*
X89594767Y-105801237D01*
X89594767Y-105801238D01*
X89654807Y-105999164D01*
X89675080Y-106205000D01*
X89654807Y-106410836D01*
X89614780Y-106542787D01*
X89594767Y-106608763D01*
X89497267Y-106791172D01*
X89366054Y-106951054D01*
X89206172Y-107082267D01*
X89023763Y-107179767D01*
X88957787Y-107199780D01*
X88825836Y-107239807D01*
X88748707Y-107247403D01*
X88671580Y-107255000D01*
X88568420Y-107255000D01*
X88491293Y-107247403D01*
X88414164Y-107239807D01*
X88282213Y-107199780D01*
X88216237Y-107179767D01*
X88033828Y-107082267D01*
X87873946Y-106951054D01*
X87742733Y-106791172D01*
X87645233Y-106608763D01*
X87625220Y-106542787D01*
X87585193Y-106410836D01*
X87564920Y-106205000D01*
X87585193Y-105999164D01*
X87645233Y-105801238D01*
X87645233Y-105801237D01*
X87742733Y-105618828D01*
X87873946Y-105458946D01*
X88033828Y-105327733D01*
X88216237Y-105230233D01*
X88282213Y-105210220D01*
X88414164Y-105170193D01*
X88491293Y-105162597D01*
X88568420Y-105155000D01*
X88671580Y-105155000D01*
X88748707Y-105162597D01*
X88748707Y-105162597D01*
G37*
G36*
X94816700Y-105920600D02*
X92716700Y-105920600D01*
X92716700Y-103820600D01*
X94816700Y-103820600D01*
X94816700Y-105920600D01*
X94816700Y-105920600D01*
G37*
G36*
X50338707Y-102707597D02*
X50415836Y-102715193D01*
X50547787Y-102755220D01*
X50613763Y-102775233D01*
X50796172Y-102872733D01*
X50956054Y-103003946D01*
X51087267Y-103163828D01*
X51184767Y-103346237D01*
X51198672Y-103392078D01*
X51244807Y-103544164D01*
X51265080Y-103750000D01*
X51244807Y-103955836D01*
X51210551Y-104068762D01*
X51184767Y-104153763D01*
X51087267Y-104336172D01*
X50956054Y-104496054D01*
X50796172Y-104627267D01*
X50613763Y-104724767D01*
X50547787Y-104744780D01*
X50415836Y-104784807D01*
X50338707Y-104792403D01*
X50261580Y-104800000D01*
X50158420Y-104800000D01*
X50081293Y-104792403D01*
X50004164Y-104784807D01*
X49872213Y-104744780D01*
X49806237Y-104724767D01*
X49623828Y-104627267D01*
X49463946Y-104496054D01*
X49332733Y-104336172D01*
X49235233Y-104153763D01*
X49209449Y-104068762D01*
X49175193Y-103955836D01*
X49154920Y-103750000D01*
X49175193Y-103544164D01*
X49221328Y-103392078D01*
X49235233Y-103346237D01*
X49332733Y-103163828D01*
X49463946Y-103003946D01*
X49623828Y-102872733D01*
X49806237Y-102775233D01*
X49872213Y-102755220D01*
X50004164Y-102715193D01*
X50081293Y-102707597D01*
X50158420Y-102700000D01*
X50261580Y-102700000D01*
X50338707Y-102707597D01*
X50338707Y-102707597D01*
G37*
G36*
X53738707Y-102622597D02*
X53815836Y-102630193D01*
X53947787Y-102670220D01*
X54013763Y-102690233D01*
X54196172Y-102787733D01*
X54356054Y-102918946D01*
X54487267Y-103078828D01*
X54584767Y-103261237D01*
X54584767Y-103261238D01*
X54644807Y-103459164D01*
X54665080Y-103665000D01*
X54644807Y-103870836D01*
X54604780Y-104002787D01*
X54584767Y-104068763D01*
X54487267Y-104251172D01*
X54356054Y-104411054D01*
X54196172Y-104542267D01*
X54013763Y-104639767D01*
X53947787Y-104659780D01*
X53815836Y-104699807D01*
X53738707Y-104707404D01*
X53661580Y-104715000D01*
X53558420Y-104715000D01*
X53481293Y-104707404D01*
X53404164Y-104699807D01*
X53272213Y-104659780D01*
X53206237Y-104639767D01*
X53023828Y-104542267D01*
X52863946Y-104411054D01*
X52732733Y-104251172D01*
X52635233Y-104068763D01*
X52615220Y-104002787D01*
X52575193Y-103870836D01*
X52554920Y-103665000D01*
X52575193Y-103459164D01*
X52635233Y-103261238D01*
X52635233Y-103261237D01*
X52732733Y-103078828D01*
X52863946Y-102918946D01*
X53023828Y-102787733D01*
X53206237Y-102690233D01*
X53272213Y-102670220D01*
X53404164Y-102630193D01*
X53481293Y-102622597D01*
X53558420Y-102615000D01*
X53661580Y-102615000D01*
X53738707Y-102622597D01*
X53738707Y-102622597D01*
G37*
G36*
X56278707Y-102622597D02*
X56355836Y-102630193D01*
X56487787Y-102670220D01*
X56553763Y-102690233D01*
X56736172Y-102787733D01*
X56896054Y-102918946D01*
X57027267Y-103078828D01*
X57124767Y-103261237D01*
X57124767Y-103261238D01*
X57184807Y-103459164D01*
X57205080Y-103665000D01*
X57184807Y-103870836D01*
X57144780Y-104002787D01*
X57124767Y-104068763D01*
X57027267Y-104251172D01*
X56896054Y-104411054D01*
X56736172Y-104542267D01*
X56553763Y-104639767D01*
X56487787Y-104659780D01*
X56355836Y-104699807D01*
X56278707Y-104707404D01*
X56201580Y-104715000D01*
X56098420Y-104715000D01*
X56021293Y-104707404D01*
X55944164Y-104699807D01*
X55812213Y-104659780D01*
X55746237Y-104639767D01*
X55563828Y-104542267D01*
X55403946Y-104411054D01*
X55272733Y-104251172D01*
X55175233Y-104068763D01*
X55155220Y-104002787D01*
X55115193Y-103870836D01*
X55094920Y-103665000D01*
X55115193Y-103459164D01*
X55175233Y-103261238D01*
X55175233Y-103261237D01*
X55272733Y-103078828D01*
X55403946Y-102918946D01*
X55563828Y-102787733D01*
X55746237Y-102690233D01*
X55812213Y-102670220D01*
X55944164Y-102630193D01*
X56021293Y-102622597D01*
X56098420Y-102615000D01*
X56201580Y-102615000D01*
X56278707Y-102622597D01*
X56278707Y-102622597D01*
G37*
G36*
X91288707Y-102622597D02*
X91365836Y-102630193D01*
X91497787Y-102670220D01*
X91563763Y-102690233D01*
X91746172Y-102787733D01*
X91906054Y-102918946D01*
X92037267Y-103078828D01*
X92134767Y-103261237D01*
X92134767Y-103261238D01*
X92194807Y-103459164D01*
X92215080Y-103665000D01*
X92194807Y-103870836D01*
X92154780Y-104002787D01*
X92134767Y-104068763D01*
X92037267Y-104251172D01*
X91906054Y-104411054D01*
X91746172Y-104542267D01*
X91563763Y-104639767D01*
X91497787Y-104659780D01*
X91365836Y-104699807D01*
X91288707Y-104707404D01*
X91211580Y-104715000D01*
X91108420Y-104715000D01*
X91031293Y-104707404D01*
X90954164Y-104699807D01*
X90822213Y-104659780D01*
X90756237Y-104639767D01*
X90573828Y-104542267D01*
X90413946Y-104411054D01*
X90282733Y-104251172D01*
X90185233Y-104068763D01*
X90165220Y-104002787D01*
X90125193Y-103870836D01*
X90104920Y-103665000D01*
X90125193Y-103459164D01*
X90185233Y-103261238D01*
X90185233Y-103261237D01*
X90282733Y-103078828D01*
X90413946Y-102918946D01*
X90573828Y-102787733D01*
X90756237Y-102690233D01*
X90822213Y-102670220D01*
X90954164Y-102630193D01*
X91031293Y-102622597D01*
X91108420Y-102615000D01*
X91211580Y-102615000D01*
X91288707Y-102622597D01*
X91288707Y-102622597D01*
G37*
G36*
X88748707Y-102622597D02*
X88825836Y-102630193D01*
X88957787Y-102670220D01*
X89023763Y-102690233D01*
X89206172Y-102787733D01*
X89366054Y-102918946D01*
X89497267Y-103078828D01*
X89594767Y-103261237D01*
X89594767Y-103261238D01*
X89654807Y-103459164D01*
X89675080Y-103665000D01*
X89654807Y-103870836D01*
X89614780Y-104002787D01*
X89594767Y-104068763D01*
X89497267Y-104251172D01*
X89366054Y-104411054D01*
X89206172Y-104542267D01*
X89023763Y-104639767D01*
X88957787Y-104659780D01*
X88825836Y-104699807D01*
X88748707Y-104707404D01*
X88671580Y-104715000D01*
X88568420Y-104715000D01*
X88491293Y-104707404D01*
X88414164Y-104699807D01*
X88282213Y-104659780D01*
X88216237Y-104639767D01*
X88033828Y-104542267D01*
X87873946Y-104411054D01*
X87742733Y-104251172D01*
X87645233Y-104068763D01*
X87625220Y-104002787D01*
X87585193Y-103870836D01*
X87564920Y-103665000D01*
X87585193Y-103459164D01*
X87645233Y-103261238D01*
X87645233Y-103261237D01*
X87742733Y-103078828D01*
X87873946Y-102918946D01*
X88033828Y-102787733D01*
X88216237Y-102690233D01*
X88282213Y-102670220D01*
X88414164Y-102630193D01*
X88491293Y-102622597D01*
X88568420Y-102615000D01*
X88671580Y-102615000D01*
X88748707Y-102622597D01*
X88748707Y-102622597D01*
G37*
G36*
X84360832Y-102728307D02*
X84498485Y-102755688D01*
X84671374Y-102827301D01*
X84826970Y-102931267D01*
X84959293Y-103063590D01*
X85063259Y-103219186D01*
X85134872Y-103392075D01*
X85171380Y-103575613D01*
X85171380Y-103762747D01*
X85134872Y-103946285D01*
X85063259Y-104119174D01*
X84959293Y-104274770D01*
X84826970Y-104407093D01*
X84671374Y-104511059D01*
X84498485Y-104582672D01*
X84360831Y-104610053D01*
X84314948Y-104619180D01*
X84127812Y-104619180D01*
X84081929Y-104610053D01*
X83944275Y-104582672D01*
X83771386Y-104511059D01*
X83615790Y-104407093D01*
X83483467Y-104274770D01*
X83379501Y-104119174D01*
X83307888Y-103946285D01*
X83271380Y-103762747D01*
X83271380Y-103575613D01*
X83307888Y-103392075D01*
X83379501Y-103219186D01*
X83483467Y-103063590D01*
X83615790Y-102931267D01*
X83771386Y-102827301D01*
X83944275Y-102755688D01*
X84081928Y-102728307D01*
X84127812Y-102719180D01*
X84314948Y-102719180D01*
X84360832Y-102728307D01*
X84360832Y-102728307D01*
G37*
G36*
X93895407Y-101288197D02*
X93972536Y-101295793D01*
X94104487Y-101335820D01*
X94170463Y-101355833D01*
X94352872Y-101453333D01*
X94512754Y-101584546D01*
X94643967Y-101744428D01*
X94741467Y-101926837D01*
X94741467Y-101926838D01*
X94801507Y-102124764D01*
X94821780Y-102330600D01*
X94801507Y-102536436D01*
X94777675Y-102615000D01*
X94741467Y-102734363D01*
X94643967Y-102916772D01*
X94512754Y-103076654D01*
X94352872Y-103207867D01*
X94170463Y-103305367D01*
X94104487Y-103325380D01*
X93972536Y-103365407D01*
X93895407Y-103373004D01*
X93818280Y-103380600D01*
X93715120Y-103380600D01*
X93637993Y-103373004D01*
X93560864Y-103365407D01*
X93428913Y-103325380D01*
X93362937Y-103305367D01*
X93180528Y-103207867D01*
X93020646Y-103076654D01*
X92889433Y-102916772D01*
X92791933Y-102734363D01*
X92755725Y-102615000D01*
X92731893Y-102536436D01*
X92711620Y-102330600D01*
X92731893Y-102124764D01*
X92791933Y-101926838D01*
X92791933Y-101926837D01*
X92889433Y-101744428D01*
X93020646Y-101584546D01*
X93180528Y-101453333D01*
X93362937Y-101355833D01*
X93428913Y-101335820D01*
X93560864Y-101295793D01*
X93637993Y-101288197D01*
X93715120Y-101280600D01*
X93818280Y-101280600D01*
X93895407Y-101288197D01*
X93895407Y-101288197D01*
G37*
G36*
X56278707Y-100082597D02*
X56355836Y-100090193D01*
X56487787Y-100130220D01*
X56553763Y-100150233D01*
X56736172Y-100247733D01*
X56896054Y-100378946D01*
X57027267Y-100538828D01*
X57124767Y-100721237D01*
X57124767Y-100721238D01*
X57184807Y-100919164D01*
X57205080Y-101125000D01*
X57184807Y-101330836D01*
X57177224Y-101355833D01*
X57124767Y-101528763D01*
X57027267Y-101711172D01*
X56896054Y-101871054D01*
X56736172Y-102002267D01*
X56553763Y-102099767D01*
X56487787Y-102119780D01*
X56355836Y-102159807D01*
X56278707Y-102167404D01*
X56201580Y-102175000D01*
X56098420Y-102175000D01*
X56021293Y-102167404D01*
X55944164Y-102159807D01*
X55812213Y-102119780D01*
X55746237Y-102099767D01*
X55563828Y-102002267D01*
X55403946Y-101871054D01*
X55272733Y-101711172D01*
X55175233Y-101528763D01*
X55122776Y-101355833D01*
X55115193Y-101330836D01*
X55094920Y-101125000D01*
X55115193Y-100919164D01*
X55175233Y-100721238D01*
X55175233Y-100721237D01*
X55272733Y-100538828D01*
X55403946Y-100378946D01*
X55563828Y-100247733D01*
X55746237Y-100150233D01*
X55812213Y-100130220D01*
X55944164Y-100090193D01*
X56021293Y-100082597D01*
X56098420Y-100075000D01*
X56201580Y-100075000D01*
X56278707Y-100082597D01*
X56278707Y-100082597D01*
G37*
G36*
X88748707Y-100082597D02*
X88825836Y-100090193D01*
X88957787Y-100130220D01*
X89023763Y-100150233D01*
X89206172Y-100247733D01*
X89366054Y-100378946D01*
X89497267Y-100538828D01*
X89594767Y-100721237D01*
X89594767Y-100721238D01*
X89654807Y-100919164D01*
X89675080Y-101125000D01*
X89654807Y-101330836D01*
X89647224Y-101355833D01*
X89594767Y-101528763D01*
X89497267Y-101711172D01*
X89366054Y-101871054D01*
X89206172Y-102002267D01*
X89023763Y-102099767D01*
X88957787Y-102119780D01*
X88825836Y-102159807D01*
X88748707Y-102167404D01*
X88671580Y-102175000D01*
X88568420Y-102175000D01*
X88491293Y-102167404D01*
X88414164Y-102159807D01*
X88282213Y-102119780D01*
X88216237Y-102099767D01*
X88033828Y-102002267D01*
X87873946Y-101871054D01*
X87742733Y-101711172D01*
X87645233Y-101528763D01*
X87592776Y-101355833D01*
X87585193Y-101330836D01*
X87564920Y-101125000D01*
X87585193Y-100919164D01*
X87645233Y-100721238D01*
X87645233Y-100721237D01*
X87742733Y-100538828D01*
X87873946Y-100378946D01*
X88033828Y-100247733D01*
X88216237Y-100150233D01*
X88282213Y-100130220D01*
X88414164Y-100090193D01*
X88491293Y-100082597D01*
X88568420Y-100075000D01*
X88671580Y-100075000D01*
X88748707Y-100082597D01*
X88748707Y-100082597D01*
G37*
G36*
X91288707Y-100082597D02*
X91365836Y-100090193D01*
X91497787Y-100130220D01*
X91563763Y-100150233D01*
X91746172Y-100247733D01*
X91906054Y-100378946D01*
X92037267Y-100538828D01*
X92134767Y-100721237D01*
X92134767Y-100721238D01*
X92194807Y-100919164D01*
X92215080Y-101125000D01*
X92194807Y-101330836D01*
X92187224Y-101355833D01*
X92134767Y-101528763D01*
X92037267Y-101711172D01*
X91906054Y-101871054D01*
X91746172Y-102002267D01*
X91563763Y-102099767D01*
X91497787Y-102119780D01*
X91365836Y-102159807D01*
X91288707Y-102167404D01*
X91211580Y-102175000D01*
X91108420Y-102175000D01*
X91031293Y-102167404D01*
X90954164Y-102159807D01*
X90822213Y-102119780D01*
X90756237Y-102099767D01*
X90573828Y-102002267D01*
X90413946Y-101871054D01*
X90282733Y-101711172D01*
X90185233Y-101528763D01*
X90132776Y-101355833D01*
X90125193Y-101330836D01*
X90104920Y-101125000D01*
X90125193Y-100919164D01*
X90185233Y-100721238D01*
X90185233Y-100721237D01*
X90282733Y-100538828D01*
X90413946Y-100378946D01*
X90573828Y-100247733D01*
X90756237Y-100150233D01*
X90822213Y-100130220D01*
X90954164Y-100090193D01*
X91031293Y-100082597D01*
X91108420Y-100075000D01*
X91211580Y-100075000D01*
X91288707Y-100082597D01*
X91288707Y-100082597D01*
G37*
G36*
X53738707Y-100082597D02*
X53815836Y-100090193D01*
X53947787Y-100130220D01*
X54013763Y-100150233D01*
X54196172Y-100247733D01*
X54356054Y-100378946D01*
X54487267Y-100538828D01*
X54584767Y-100721237D01*
X54584767Y-100721238D01*
X54644807Y-100919164D01*
X54665080Y-101125000D01*
X54644807Y-101330836D01*
X54637224Y-101355833D01*
X54584767Y-101528763D01*
X54487267Y-101711172D01*
X54356054Y-101871054D01*
X54196172Y-102002267D01*
X54013763Y-102099767D01*
X53947787Y-102119780D01*
X53815836Y-102159807D01*
X53738707Y-102167404D01*
X53661580Y-102175000D01*
X53558420Y-102175000D01*
X53481293Y-102167404D01*
X53404164Y-102159807D01*
X53272213Y-102119780D01*
X53206237Y-102099767D01*
X53023828Y-102002267D01*
X52863946Y-101871054D01*
X52732733Y-101711172D01*
X52635233Y-101528763D01*
X52582776Y-101355833D01*
X52575193Y-101330836D01*
X52554920Y-101125000D01*
X52575193Y-100919164D01*
X52635233Y-100721238D01*
X52635233Y-100721237D01*
X52732733Y-100538828D01*
X52863946Y-100378946D01*
X53023828Y-100247733D01*
X53206237Y-100150233D01*
X53272213Y-100130220D01*
X53404164Y-100090193D01*
X53481293Y-100082597D01*
X53558420Y-100075000D01*
X53661580Y-100075000D01*
X53738707Y-100082597D01*
X53738707Y-100082597D01*
G37*
G36*
X93895407Y-98748196D02*
X93972536Y-98755793D01*
X94104487Y-98795820D01*
X94170463Y-98815833D01*
X94352872Y-98913333D01*
X94512754Y-99044546D01*
X94643967Y-99204428D01*
X94741467Y-99386837D01*
X94741467Y-99386838D01*
X94801507Y-99584764D01*
X94821780Y-99790600D01*
X94801507Y-99996436D01*
X94777675Y-100075000D01*
X94741467Y-100194363D01*
X94643967Y-100376772D01*
X94512754Y-100536654D01*
X94352872Y-100667867D01*
X94170463Y-100765367D01*
X94104487Y-100785380D01*
X93972536Y-100825407D01*
X93895407Y-100833004D01*
X93818280Y-100840600D01*
X93715120Y-100840600D01*
X93637993Y-100833003D01*
X93560864Y-100825407D01*
X93428913Y-100785380D01*
X93362937Y-100765367D01*
X93180528Y-100667867D01*
X93020646Y-100536654D01*
X92889433Y-100376772D01*
X92791933Y-100194363D01*
X92755725Y-100075000D01*
X92731893Y-99996436D01*
X92711620Y-99790600D01*
X92731893Y-99584764D01*
X92791933Y-99386838D01*
X92791933Y-99386837D01*
X92889433Y-99204428D01*
X93020646Y-99044546D01*
X93180528Y-98913333D01*
X93362937Y-98815833D01*
X93428913Y-98795820D01*
X93560864Y-98755793D01*
X93637993Y-98748196D01*
X93715120Y-98740600D01*
X93818280Y-98740600D01*
X93895407Y-98748196D01*
X93895407Y-98748196D01*
G37*
G36*
X50997532Y-92180746D02*
X51087070Y-92207907D01*
X51176609Y-92235068D01*
X51341647Y-92323283D01*
X51486301Y-92441999D01*
X51605017Y-92586653D01*
X51693232Y-92751691D01*
X51720393Y-92841230D01*
X51747554Y-92930768D01*
X51764344Y-93101238D01*
X51765896Y-93117000D01*
X51747554Y-93303231D01*
X51693232Y-93482309D01*
X51605017Y-93647347D01*
X51486301Y-93792001D01*
X51341647Y-93910717D01*
X51171900Y-94001449D01*
X51159077Y-94006760D01*
X51138703Y-94020374D01*
X51121376Y-94037702D01*
X51107762Y-94058076D01*
X51098385Y-94080716D01*
X51093605Y-94104749D01*
X51093605Y-94129253D01*
X51098386Y-94153287D01*
X51107763Y-94175926D01*
X51121377Y-94196300D01*
X51138705Y-94213627D01*
X51159079Y-94227241D01*
X51171901Y-94232552D01*
X51341647Y-94323283D01*
X51486301Y-94441999D01*
X51605017Y-94586653D01*
X51693232Y-94751691D01*
X51747554Y-94930769D01*
X51765896Y-95117000D01*
X51747554Y-95303231D01*
X51693232Y-95482309D01*
X51605017Y-95647347D01*
X51486301Y-95792001D01*
X51341647Y-95910717D01*
X51171900Y-96001449D01*
X51159077Y-96006760D01*
X51138703Y-96020374D01*
X51121376Y-96037702D01*
X51107762Y-96058076D01*
X51098385Y-96080716D01*
X51093605Y-96104749D01*
X51093605Y-96129253D01*
X51098386Y-96153287D01*
X51107763Y-96175926D01*
X51121377Y-96196300D01*
X51138705Y-96213627D01*
X51159079Y-96227241D01*
X51171901Y-96232552D01*
X51341647Y-96323283D01*
X51486301Y-96441999D01*
X51605017Y-96586653D01*
X51693232Y-96751691D01*
X51693232Y-96751692D01*
X51747554Y-96930768D01*
X51762233Y-97079807D01*
X51765896Y-97117000D01*
X51747554Y-97303231D01*
X51693232Y-97482309D01*
X51605017Y-97647347D01*
X51486301Y-97792001D01*
X51341647Y-97910717D01*
X51171900Y-98001449D01*
X51159077Y-98006760D01*
X51138703Y-98020374D01*
X51121376Y-98037702D01*
X51107762Y-98058076D01*
X51098385Y-98080716D01*
X51093605Y-98104749D01*
X51093605Y-98129253D01*
X51098386Y-98153287D01*
X51107763Y-98175926D01*
X51121377Y-98196300D01*
X51138705Y-98213627D01*
X51159079Y-98227241D01*
X51171901Y-98232552D01*
X51341647Y-98323283D01*
X51486301Y-98441999D01*
X51605017Y-98586653D01*
X51693232Y-98751691D01*
X51747554Y-98930769D01*
X51765896Y-99117000D01*
X51747554Y-99303231D01*
X51693232Y-99482309D01*
X51605017Y-99647347D01*
X51486301Y-99792001D01*
X51341647Y-99910717D01*
X51176609Y-99998932D01*
X51087070Y-100026093D01*
X50997532Y-100053254D01*
X50927748Y-100060127D01*
X50857966Y-100067000D01*
X50264634Y-100067000D01*
X50194852Y-100060127D01*
X50125068Y-100053254D01*
X50035530Y-100026093D01*
X49945991Y-99998932D01*
X49780953Y-99910717D01*
X49636299Y-99792001D01*
X49517583Y-99647347D01*
X49429368Y-99482309D01*
X49375046Y-99303231D01*
X49356704Y-99117000D01*
X49375046Y-98930769D01*
X49429368Y-98751691D01*
X49517583Y-98586653D01*
X49636299Y-98441999D01*
X49780953Y-98323283D01*
X49950700Y-98232551D01*
X49963523Y-98227240D01*
X49983897Y-98213626D01*
X50001224Y-98196298D01*
X50014838Y-98175924D01*
X50024215Y-98153284D01*
X50028995Y-98129251D01*
X50028995Y-98104747D01*
X50024214Y-98080713D01*
X50014837Y-98058074D01*
X50001223Y-98037700D01*
X49983895Y-98020373D01*
X49963521Y-98006759D01*
X49950699Y-98001448D01*
X49780953Y-97910717D01*
X49636299Y-97792001D01*
X49517583Y-97647347D01*
X49429368Y-97482309D01*
X49375046Y-97303231D01*
X49356704Y-97117000D01*
X49360367Y-97079807D01*
X49375046Y-96930768D01*
X49429368Y-96751692D01*
X49429368Y-96751691D01*
X49517583Y-96586653D01*
X49636299Y-96441999D01*
X49780953Y-96323283D01*
X49950700Y-96232551D01*
X49963523Y-96227240D01*
X49983897Y-96213626D01*
X50001224Y-96196298D01*
X50014838Y-96175924D01*
X50024215Y-96153284D01*
X50028995Y-96129251D01*
X50028995Y-96104747D01*
X50024214Y-96080713D01*
X50014837Y-96058074D01*
X50001223Y-96037700D01*
X49983895Y-96020373D01*
X49963521Y-96006759D01*
X49950699Y-96001448D01*
X49780953Y-95910717D01*
X49636299Y-95792001D01*
X49517583Y-95647347D01*
X49429368Y-95482309D01*
X49375046Y-95303231D01*
X49356704Y-95117000D01*
X49375046Y-94930769D01*
X49429368Y-94751691D01*
X49517583Y-94586653D01*
X49636299Y-94441999D01*
X49780953Y-94323283D01*
X49950700Y-94232551D01*
X49963523Y-94227240D01*
X49983897Y-94213626D01*
X50001224Y-94196298D01*
X50014838Y-94175924D01*
X50024215Y-94153284D01*
X50028995Y-94129251D01*
X50028995Y-94104747D01*
X50024214Y-94080713D01*
X50014837Y-94058074D01*
X50001223Y-94037700D01*
X49983895Y-94020373D01*
X49963521Y-94006759D01*
X49950699Y-94001448D01*
X49780953Y-93910717D01*
X49636299Y-93792001D01*
X49517583Y-93647347D01*
X49429368Y-93482309D01*
X49375046Y-93303231D01*
X49356704Y-93117000D01*
X49358256Y-93101238D01*
X49375046Y-92930768D01*
X49402207Y-92841230D01*
X49429368Y-92751691D01*
X49517583Y-92586653D01*
X49636299Y-92441999D01*
X49780953Y-92323283D01*
X49945991Y-92235068D01*
X50035530Y-92207907D01*
X50125068Y-92180746D01*
X50264634Y-92167000D01*
X50857966Y-92167000D01*
X50997532Y-92180746D01*
X50997532Y-92180746D01*
G37*
G36*
X88748707Y-97542596D02*
X88825836Y-97550193D01*
X88957787Y-97590220D01*
X89023763Y-97610233D01*
X89206172Y-97707733D01*
X89366054Y-97838946D01*
X89497267Y-97998828D01*
X89594767Y-98181237D01*
X89599336Y-98196300D01*
X89654807Y-98379164D01*
X89675080Y-98585000D01*
X89654807Y-98790836D01*
X89647224Y-98815833D01*
X89594767Y-98988763D01*
X89497267Y-99171172D01*
X89366054Y-99331054D01*
X89206172Y-99462267D01*
X89023763Y-99559767D01*
X88957787Y-99579780D01*
X88825836Y-99619807D01*
X88748707Y-99627404D01*
X88671580Y-99635000D01*
X88568420Y-99635000D01*
X88491293Y-99627404D01*
X88414164Y-99619807D01*
X88282213Y-99579780D01*
X88216237Y-99559767D01*
X88033828Y-99462267D01*
X87873946Y-99331054D01*
X87742733Y-99171172D01*
X87645233Y-98988763D01*
X87592776Y-98815833D01*
X87585193Y-98790836D01*
X87564920Y-98585000D01*
X87585193Y-98379164D01*
X87640664Y-98196300D01*
X87645233Y-98181237D01*
X87742733Y-97998828D01*
X87873946Y-97838946D01*
X88033828Y-97707733D01*
X88216237Y-97610233D01*
X88282213Y-97590220D01*
X88414164Y-97550193D01*
X88491293Y-97542596D01*
X88568420Y-97535000D01*
X88671580Y-97535000D01*
X88748707Y-97542596D01*
X88748707Y-97542596D01*
G37*
G36*
X53738707Y-97542596D02*
X53815836Y-97550193D01*
X53947787Y-97590220D01*
X54013763Y-97610233D01*
X54196172Y-97707733D01*
X54356054Y-97838946D01*
X54487267Y-97998828D01*
X54584767Y-98181237D01*
X54589336Y-98196300D01*
X54644807Y-98379164D01*
X54665080Y-98585000D01*
X54644807Y-98790836D01*
X54637224Y-98815833D01*
X54584767Y-98988763D01*
X54487267Y-99171172D01*
X54356054Y-99331054D01*
X54196172Y-99462267D01*
X54013763Y-99559767D01*
X53947787Y-99579780D01*
X53815836Y-99619807D01*
X53738707Y-99627404D01*
X53661580Y-99635000D01*
X53558420Y-99635000D01*
X53481293Y-99627404D01*
X53404164Y-99619807D01*
X53272213Y-99579780D01*
X53206237Y-99559767D01*
X53023828Y-99462267D01*
X52863946Y-99331054D01*
X52732733Y-99171172D01*
X52635233Y-98988763D01*
X52582776Y-98815833D01*
X52575193Y-98790836D01*
X52554920Y-98585000D01*
X52575193Y-98379164D01*
X52630664Y-98196300D01*
X52635233Y-98181237D01*
X52732733Y-97998828D01*
X52863946Y-97838946D01*
X53023828Y-97707733D01*
X53206237Y-97610233D01*
X53272213Y-97590220D01*
X53404164Y-97550193D01*
X53481293Y-97542596D01*
X53558420Y-97535000D01*
X53661580Y-97535000D01*
X53738707Y-97542596D01*
X53738707Y-97542596D01*
G37*
G36*
X56278707Y-97542596D02*
X56355836Y-97550193D01*
X56487787Y-97590220D01*
X56553763Y-97610233D01*
X56736172Y-97707733D01*
X56896054Y-97838946D01*
X57027267Y-97998828D01*
X57124767Y-98181237D01*
X57129336Y-98196300D01*
X57184807Y-98379164D01*
X57205080Y-98585000D01*
X57184807Y-98790836D01*
X57177224Y-98815833D01*
X57124767Y-98988763D01*
X57027267Y-99171172D01*
X56896054Y-99331054D01*
X56736172Y-99462267D01*
X56553763Y-99559767D01*
X56487787Y-99579780D01*
X56355836Y-99619807D01*
X56278707Y-99627404D01*
X56201580Y-99635000D01*
X56098420Y-99635000D01*
X56021293Y-99627404D01*
X55944164Y-99619807D01*
X55812213Y-99579780D01*
X55746237Y-99559767D01*
X55563828Y-99462267D01*
X55403946Y-99331054D01*
X55272733Y-99171172D01*
X55175233Y-98988763D01*
X55122776Y-98815833D01*
X55115193Y-98790836D01*
X55094920Y-98585000D01*
X55115193Y-98379164D01*
X55170664Y-98196300D01*
X55175233Y-98181237D01*
X55272733Y-97998828D01*
X55403946Y-97838946D01*
X55563828Y-97707733D01*
X55746237Y-97610233D01*
X55812213Y-97590220D01*
X55944164Y-97550193D01*
X56021293Y-97542596D01*
X56098420Y-97535000D01*
X56201580Y-97535000D01*
X56278707Y-97542596D01*
X56278707Y-97542596D01*
G37*
G36*
X91288707Y-97542596D02*
X91365836Y-97550193D01*
X91497787Y-97590220D01*
X91563763Y-97610233D01*
X91746172Y-97707733D01*
X91906054Y-97838946D01*
X92037267Y-97998828D01*
X92134767Y-98181237D01*
X92139336Y-98196300D01*
X92194807Y-98379164D01*
X92215080Y-98585000D01*
X92194807Y-98790836D01*
X92187224Y-98815833D01*
X92134767Y-98988763D01*
X92037267Y-99171172D01*
X91906054Y-99331054D01*
X91746172Y-99462267D01*
X91563763Y-99559767D01*
X91497787Y-99579780D01*
X91365836Y-99619807D01*
X91288707Y-99627404D01*
X91211580Y-99635000D01*
X91108420Y-99635000D01*
X91031293Y-99627404D01*
X90954164Y-99619807D01*
X90822213Y-99579780D01*
X90756237Y-99559767D01*
X90573828Y-99462267D01*
X90413946Y-99331054D01*
X90282733Y-99171172D01*
X90185233Y-98988763D01*
X90132776Y-98815833D01*
X90125193Y-98790836D01*
X90104920Y-98585000D01*
X90125193Y-98379164D01*
X90180664Y-98196300D01*
X90185233Y-98181237D01*
X90282733Y-97998828D01*
X90413946Y-97838946D01*
X90573828Y-97707733D01*
X90756237Y-97610233D01*
X90822213Y-97590220D01*
X90954164Y-97550193D01*
X91031293Y-97542596D01*
X91108420Y-97535000D01*
X91211580Y-97535000D01*
X91288707Y-97542596D01*
X91288707Y-97542596D01*
G37*
G36*
X88748707Y-95002596D02*
X88825836Y-95010193D01*
X88957787Y-95050220D01*
X89023763Y-95070233D01*
X89206172Y-95167733D01*
X89366054Y-95298946D01*
X89497267Y-95458828D01*
X89594767Y-95641237D01*
X89594767Y-95641238D01*
X89654807Y-95839164D01*
X89675080Y-96045000D01*
X89654807Y-96250836D01*
X89614780Y-96382787D01*
X89594767Y-96448763D01*
X89497267Y-96631172D01*
X89366054Y-96791054D01*
X89206172Y-96922267D01*
X89023763Y-97019767D01*
X88957787Y-97039780D01*
X88825836Y-97079807D01*
X88748707Y-97087404D01*
X88671580Y-97095000D01*
X88568420Y-97095000D01*
X88491293Y-97087404D01*
X88414164Y-97079807D01*
X88282213Y-97039780D01*
X88216237Y-97019767D01*
X88033828Y-96922267D01*
X87873946Y-96791054D01*
X87742733Y-96631172D01*
X87645233Y-96448763D01*
X87625220Y-96382787D01*
X87585193Y-96250836D01*
X87564920Y-96045000D01*
X87585193Y-95839164D01*
X87645233Y-95641238D01*
X87645233Y-95641237D01*
X87742733Y-95458828D01*
X87873946Y-95298946D01*
X88033828Y-95167733D01*
X88216237Y-95070233D01*
X88282213Y-95050220D01*
X88414164Y-95010193D01*
X88491293Y-95002596D01*
X88568420Y-94995000D01*
X88671580Y-94995000D01*
X88748707Y-95002596D01*
X88748707Y-95002596D01*
G37*
G36*
X91288707Y-95002596D02*
X91365836Y-95010193D01*
X91497787Y-95050220D01*
X91563763Y-95070233D01*
X91746172Y-95167733D01*
X91906054Y-95298946D01*
X92037267Y-95458828D01*
X92134767Y-95641237D01*
X92134767Y-95641238D01*
X92194807Y-95839164D01*
X92215080Y-96045000D01*
X92194807Y-96250836D01*
X92154780Y-96382787D01*
X92134767Y-96448763D01*
X92037267Y-96631172D01*
X91906054Y-96791054D01*
X91746172Y-96922267D01*
X91563763Y-97019767D01*
X91497787Y-97039780D01*
X91365836Y-97079807D01*
X91288707Y-97087404D01*
X91211580Y-97095000D01*
X91108420Y-97095000D01*
X91031293Y-97087404D01*
X90954164Y-97079807D01*
X90822213Y-97039780D01*
X90756237Y-97019767D01*
X90573828Y-96922267D01*
X90413946Y-96791054D01*
X90282733Y-96631172D01*
X90185233Y-96448763D01*
X90165220Y-96382787D01*
X90125193Y-96250836D01*
X90104920Y-96045000D01*
X90125193Y-95839164D01*
X90185233Y-95641238D01*
X90185233Y-95641237D01*
X90282733Y-95458828D01*
X90413946Y-95298946D01*
X90573828Y-95167733D01*
X90756237Y-95070233D01*
X90822213Y-95050220D01*
X90954164Y-95010193D01*
X91031293Y-95002596D01*
X91108420Y-94995000D01*
X91211580Y-94995000D01*
X91288707Y-95002596D01*
X91288707Y-95002596D01*
G37*
G36*
X53738707Y-95002596D02*
X53815836Y-95010193D01*
X53947787Y-95050220D01*
X54013763Y-95070233D01*
X54196172Y-95167733D01*
X54356054Y-95298946D01*
X54487267Y-95458828D01*
X54584767Y-95641237D01*
X54584767Y-95641238D01*
X54644807Y-95839164D01*
X54665080Y-96045000D01*
X54644807Y-96250836D01*
X54604780Y-96382787D01*
X54584767Y-96448763D01*
X54487267Y-96631172D01*
X54356054Y-96791054D01*
X54196172Y-96922267D01*
X54013763Y-97019767D01*
X53947787Y-97039780D01*
X53815836Y-97079807D01*
X53738707Y-97087404D01*
X53661580Y-97095000D01*
X53558420Y-97095000D01*
X53481293Y-97087404D01*
X53404164Y-97079807D01*
X53272213Y-97039780D01*
X53206237Y-97019767D01*
X53023828Y-96922267D01*
X52863946Y-96791054D01*
X52732733Y-96631172D01*
X52635233Y-96448763D01*
X52615220Y-96382787D01*
X52575193Y-96250836D01*
X52554920Y-96045000D01*
X52575193Y-95839164D01*
X52635233Y-95641238D01*
X52635233Y-95641237D01*
X52732733Y-95458828D01*
X52863946Y-95298946D01*
X53023828Y-95167733D01*
X53206237Y-95070233D01*
X53272213Y-95050220D01*
X53404164Y-95010193D01*
X53481293Y-95002596D01*
X53558420Y-94995000D01*
X53661580Y-94995000D01*
X53738707Y-95002596D01*
X53738707Y-95002596D01*
G37*
G36*
X57200000Y-97095000D02*
X55100000Y-97095000D01*
X55100000Y-94995000D01*
X57200000Y-94995000D01*
X57200000Y-97095000D01*
X57200000Y-97095000D01*
G37*
G36*
X56278707Y-92462597D02*
X56355836Y-92470193D01*
X56487787Y-92510220D01*
X56553763Y-92530233D01*
X56736172Y-92627733D01*
X56896054Y-92758946D01*
X57027267Y-92918828D01*
X57124767Y-93101237D01*
X57144780Y-93167213D01*
X57184807Y-93299164D01*
X57205080Y-93505000D01*
X57184807Y-93710836D01*
X57160186Y-93792001D01*
X57124767Y-93908763D01*
X57027267Y-94091172D01*
X56896054Y-94251054D01*
X56736172Y-94382267D01*
X56553763Y-94479767D01*
X56487787Y-94499780D01*
X56355836Y-94539807D01*
X56278707Y-94547404D01*
X56201580Y-94555000D01*
X56098420Y-94555000D01*
X56021293Y-94547404D01*
X55944164Y-94539807D01*
X55812213Y-94499780D01*
X55746237Y-94479767D01*
X55563828Y-94382267D01*
X55403946Y-94251054D01*
X55272733Y-94091172D01*
X55175233Y-93908763D01*
X55139814Y-93792001D01*
X55115193Y-93710836D01*
X55094920Y-93505000D01*
X55115193Y-93299164D01*
X55155220Y-93167213D01*
X55175233Y-93101237D01*
X55272733Y-92918828D01*
X55403946Y-92758946D01*
X55563828Y-92627733D01*
X55746237Y-92530233D01*
X55812213Y-92510220D01*
X55944164Y-92470193D01*
X56021293Y-92462597D01*
X56098420Y-92455000D01*
X56201580Y-92455000D01*
X56278707Y-92462597D01*
X56278707Y-92462597D01*
G37*
G36*
X53738707Y-92462597D02*
X53815836Y-92470193D01*
X53947787Y-92510220D01*
X54013763Y-92530233D01*
X54196172Y-92627733D01*
X54356054Y-92758946D01*
X54487267Y-92918828D01*
X54584767Y-93101237D01*
X54604780Y-93167213D01*
X54644807Y-93299164D01*
X54665080Y-93505000D01*
X54644807Y-93710836D01*
X54620186Y-93792001D01*
X54584767Y-93908763D01*
X54487267Y-94091172D01*
X54356054Y-94251054D01*
X54196172Y-94382267D01*
X54013763Y-94479767D01*
X53947787Y-94499780D01*
X53815836Y-94539807D01*
X53738707Y-94547404D01*
X53661580Y-94555000D01*
X53558420Y-94555000D01*
X53481293Y-94547404D01*
X53404164Y-94539807D01*
X53272213Y-94499780D01*
X53206237Y-94479767D01*
X53023828Y-94382267D01*
X52863946Y-94251054D01*
X52732733Y-94091172D01*
X52635233Y-93908763D01*
X52599814Y-93792001D01*
X52575193Y-93710836D01*
X52554920Y-93505000D01*
X52575193Y-93299164D01*
X52615220Y-93167213D01*
X52635233Y-93101237D01*
X52732733Y-92918828D01*
X52863946Y-92758946D01*
X53023828Y-92627733D01*
X53206237Y-92530233D01*
X53272213Y-92510220D01*
X53404164Y-92470193D01*
X53481293Y-92462597D01*
X53558420Y-92455000D01*
X53661580Y-92455000D01*
X53738707Y-92462597D01*
X53738707Y-92462597D01*
G37*
G36*
X88748707Y-92462597D02*
X88825836Y-92470193D01*
X88957787Y-92510220D01*
X89023763Y-92530233D01*
X89206172Y-92627733D01*
X89366054Y-92758946D01*
X89497267Y-92918828D01*
X89594767Y-93101237D01*
X89614780Y-93167213D01*
X89654807Y-93299164D01*
X89675080Y-93505000D01*
X89654807Y-93710836D01*
X89630186Y-93792001D01*
X89594767Y-93908763D01*
X89497267Y-94091172D01*
X89366054Y-94251054D01*
X89206172Y-94382267D01*
X89023763Y-94479767D01*
X88957787Y-94499780D01*
X88825836Y-94539807D01*
X88748707Y-94547404D01*
X88671580Y-94555000D01*
X88568420Y-94555000D01*
X88491293Y-94547404D01*
X88414164Y-94539807D01*
X88282213Y-94499780D01*
X88216237Y-94479767D01*
X88033828Y-94382267D01*
X87873946Y-94251054D01*
X87742733Y-94091172D01*
X87645233Y-93908763D01*
X87609814Y-93792001D01*
X87585193Y-93710836D01*
X87564920Y-93505000D01*
X87585193Y-93299164D01*
X87625220Y-93167213D01*
X87645233Y-93101237D01*
X87742733Y-92918828D01*
X87873946Y-92758946D01*
X88033828Y-92627733D01*
X88216237Y-92530233D01*
X88282213Y-92510220D01*
X88414164Y-92470193D01*
X88491293Y-92462597D01*
X88568420Y-92455000D01*
X88671580Y-92455000D01*
X88748707Y-92462597D01*
X88748707Y-92462597D01*
G37*
G36*
X91288707Y-92462597D02*
X91365836Y-92470193D01*
X91497787Y-92510220D01*
X91563763Y-92530233D01*
X91746172Y-92627733D01*
X91906054Y-92758946D01*
X92037267Y-92918828D01*
X92134767Y-93101237D01*
X92154780Y-93167213D01*
X92194807Y-93299164D01*
X92215080Y-93505000D01*
X92194807Y-93710836D01*
X92170186Y-93792001D01*
X92134767Y-93908763D01*
X92037267Y-94091172D01*
X91906054Y-94251054D01*
X91746172Y-94382267D01*
X91563763Y-94479767D01*
X91497787Y-94499780D01*
X91365836Y-94539807D01*
X91288707Y-94547404D01*
X91211580Y-94555000D01*
X91108420Y-94555000D01*
X91031293Y-94547404D01*
X90954164Y-94539807D01*
X90822213Y-94499780D01*
X90756237Y-94479767D01*
X90573828Y-94382267D01*
X90413946Y-94251054D01*
X90282733Y-94091172D01*
X90185233Y-93908763D01*
X90149814Y-93792001D01*
X90125193Y-93710836D01*
X90104920Y-93505000D01*
X90125193Y-93299164D01*
X90165220Y-93167213D01*
X90185233Y-93101237D01*
X90282733Y-92918828D01*
X90413946Y-92758946D01*
X90573828Y-92627733D01*
X90756237Y-92530233D01*
X90822213Y-92510220D01*
X90954164Y-92470193D01*
X91031293Y-92462597D01*
X91108420Y-92455000D01*
X91211580Y-92455000D01*
X91288707Y-92462597D01*
X91288707Y-92462597D01*
G37*
G36*
X88748707Y-89922596D02*
X88825836Y-89930193D01*
X88934751Y-89963232D01*
X89023763Y-89990233D01*
X89206172Y-90087733D01*
X89366054Y-90218946D01*
X89497267Y-90378828D01*
X89594767Y-90561237D01*
X89594767Y-90561238D01*
X89654807Y-90759164D01*
X89675080Y-90965000D01*
X89654807Y-91170836D01*
X89614780Y-91302787D01*
X89594767Y-91368763D01*
X89497267Y-91551172D01*
X89366054Y-91711054D01*
X89206172Y-91842267D01*
X89023763Y-91939767D01*
X88957787Y-91959780D01*
X88825836Y-91999807D01*
X88748707Y-92007403D01*
X88671580Y-92015000D01*
X88568420Y-92015000D01*
X88491293Y-92007403D01*
X88414164Y-91999807D01*
X88282213Y-91959780D01*
X88216237Y-91939767D01*
X88033828Y-91842267D01*
X87873946Y-91711054D01*
X87742733Y-91551172D01*
X87645233Y-91368763D01*
X87625220Y-91302787D01*
X87585193Y-91170836D01*
X87564920Y-90965000D01*
X87585193Y-90759164D01*
X87645233Y-90561238D01*
X87645233Y-90561237D01*
X87742733Y-90378828D01*
X87873946Y-90218946D01*
X88033828Y-90087733D01*
X88216237Y-89990233D01*
X88305249Y-89963232D01*
X88414164Y-89930193D01*
X88491293Y-89922596D01*
X88568420Y-89915000D01*
X88671580Y-89915000D01*
X88748707Y-89922596D01*
X88748707Y-89922596D01*
G37*
G36*
X53738707Y-89922596D02*
X53815836Y-89930193D01*
X53924751Y-89963232D01*
X54013763Y-89990233D01*
X54196172Y-90087733D01*
X54356054Y-90218946D01*
X54487267Y-90378828D01*
X54584767Y-90561237D01*
X54584767Y-90561238D01*
X54644807Y-90759164D01*
X54665080Y-90965000D01*
X54644807Y-91170836D01*
X54604780Y-91302787D01*
X54584767Y-91368763D01*
X54487267Y-91551172D01*
X54356054Y-91711054D01*
X54196172Y-91842267D01*
X54013763Y-91939767D01*
X53947787Y-91959780D01*
X53815836Y-91999807D01*
X53738707Y-92007403D01*
X53661580Y-92015000D01*
X53558420Y-92015000D01*
X53481293Y-92007403D01*
X53404164Y-91999807D01*
X53272213Y-91959780D01*
X53206237Y-91939767D01*
X53023828Y-91842267D01*
X52863946Y-91711054D01*
X52732733Y-91551172D01*
X52635233Y-91368763D01*
X52615220Y-91302787D01*
X52575193Y-91170836D01*
X52554920Y-90965000D01*
X52575193Y-90759164D01*
X52635233Y-90561238D01*
X52635233Y-90561237D01*
X52732733Y-90378828D01*
X52863946Y-90218946D01*
X53023828Y-90087733D01*
X53206237Y-89990233D01*
X53295249Y-89963232D01*
X53404164Y-89930193D01*
X53481293Y-89922596D01*
X53558420Y-89915000D01*
X53661580Y-89915000D01*
X53738707Y-89922596D01*
X53738707Y-89922596D01*
G37*
G36*
X56278707Y-89922596D02*
X56355836Y-89930193D01*
X56464751Y-89963232D01*
X56553763Y-89990233D01*
X56736172Y-90087733D01*
X56896054Y-90218946D01*
X57027267Y-90378828D01*
X57124767Y-90561237D01*
X57124767Y-90561238D01*
X57184807Y-90759164D01*
X57205080Y-90965000D01*
X57184807Y-91170836D01*
X57144780Y-91302787D01*
X57124767Y-91368763D01*
X57027267Y-91551172D01*
X56896054Y-91711054D01*
X56736172Y-91842267D01*
X56553763Y-91939767D01*
X56487787Y-91959780D01*
X56355836Y-91999807D01*
X56278707Y-92007403D01*
X56201580Y-92015000D01*
X56098420Y-92015000D01*
X56021293Y-92007403D01*
X55944164Y-91999807D01*
X55812213Y-91959780D01*
X55746237Y-91939767D01*
X55563828Y-91842267D01*
X55403946Y-91711054D01*
X55272733Y-91551172D01*
X55175233Y-91368763D01*
X55155220Y-91302787D01*
X55115193Y-91170836D01*
X55094920Y-90965000D01*
X55115193Y-90759164D01*
X55175233Y-90561238D01*
X55175233Y-90561237D01*
X55272733Y-90378828D01*
X55403946Y-90218946D01*
X55563828Y-90087733D01*
X55746237Y-89990233D01*
X55835249Y-89963232D01*
X55944164Y-89930193D01*
X56021293Y-89922596D01*
X56098420Y-89915000D01*
X56201580Y-89915000D01*
X56278707Y-89922596D01*
X56278707Y-89922596D01*
G37*
G36*
X91288707Y-89922596D02*
X91365836Y-89930193D01*
X91474751Y-89963232D01*
X91563763Y-89990233D01*
X91746172Y-90087733D01*
X91906054Y-90218946D01*
X92037267Y-90378828D01*
X92134767Y-90561237D01*
X92134767Y-90561238D01*
X92194807Y-90759164D01*
X92215080Y-90965000D01*
X92194807Y-91170836D01*
X92154780Y-91302787D01*
X92134767Y-91368763D01*
X92037267Y-91551172D01*
X91906054Y-91711054D01*
X91746172Y-91842267D01*
X91563763Y-91939767D01*
X91497787Y-91959780D01*
X91365836Y-91999807D01*
X91288707Y-92007403D01*
X91211580Y-92015000D01*
X91108420Y-92015000D01*
X91031293Y-92007403D01*
X90954164Y-91999807D01*
X90822213Y-91959780D01*
X90756237Y-91939767D01*
X90573828Y-91842267D01*
X90413946Y-91711054D01*
X90282733Y-91551172D01*
X90185233Y-91368763D01*
X90165220Y-91302787D01*
X90125193Y-91170836D01*
X90104920Y-90965000D01*
X90125193Y-90759164D01*
X90185233Y-90561238D01*
X90185233Y-90561237D01*
X90282733Y-90378828D01*
X90413946Y-90218946D01*
X90573828Y-90087733D01*
X90756237Y-89990233D01*
X90845249Y-89963232D01*
X90954164Y-89930193D01*
X91031293Y-89922596D01*
X91108420Y-89915000D01*
X91211580Y-89915000D01*
X91288707Y-89922596D01*
X91288707Y-89922596D01*
G37*
G36*
X51256945Y-87690599D02*
X51274272Y-87707926D01*
X51294646Y-87721540D01*
X51317285Y-87730918D01*
X51341319Y-87735698D01*
X51377863Y-87739297D01*
X51436231Y-87745046D01*
X51525769Y-87772207D01*
X51615308Y-87799368D01*
X51780347Y-87887583D01*
X51925001Y-88006299D01*
X52043717Y-88150953D01*
X52131932Y-88315991D01*
X52143431Y-88353900D01*
X52186254Y-88495068D01*
X52200000Y-88634635D01*
X52200000Y-89127964D01*
X52186254Y-89267532D01*
X52148687Y-89391373D01*
X52131932Y-89446608D01*
X52043717Y-89611647D01*
X51925001Y-89756301D01*
X51780347Y-89875017D01*
X51615309Y-89963232D01*
X51526297Y-89990233D01*
X51436232Y-90017554D01*
X51250000Y-90035896D01*
X51063769Y-90017554D01*
X50973704Y-89990233D01*
X50884692Y-89963232D01*
X50719654Y-89875017D01*
X50575000Y-89756301D01*
X50456284Y-89611647D01*
X50456282Y-89611645D01*
X50368068Y-89446608D01*
X50368067Y-89446606D01*
X50365553Y-89441902D01*
X50360242Y-89429081D01*
X50346629Y-89408706D01*
X50329302Y-89391378D01*
X50308928Y-89377764D01*
X50286289Y-89368386D01*
X50262256Y-89363604D01*
X50237752Y-89363604D01*
X50213718Y-89368383D01*
X50191079Y-89377760D01*
X50170704Y-89391373D01*
X50153376Y-89408700D01*
X50139762Y-89429074D01*
X50134451Y-89441895D01*
X50043717Y-89611647D01*
X49925001Y-89756301D01*
X49780347Y-89875017D01*
X49615309Y-89963232D01*
X49526297Y-89990233D01*
X49436232Y-90017554D01*
X49250000Y-90035896D01*
X49063769Y-90017554D01*
X48973704Y-89990233D01*
X48884692Y-89963232D01*
X48719654Y-89875017D01*
X48575000Y-89756301D01*
X48456284Y-89611647D01*
X48456282Y-89611645D01*
X48375123Y-89459807D01*
X48368068Y-89446609D01*
X48313746Y-89267531D01*
X48300000Y-89127966D01*
X48300000Y-88634635D01*
X48313746Y-88495070D01*
X48313747Y-88495068D01*
X48344340Y-88394214D01*
X48368068Y-88315992D01*
X48456283Y-88150953D01*
X48574999Y-88006299D01*
X48719653Y-87887583D01*
X48884691Y-87799368D01*
X48974230Y-87772207D01*
X49063768Y-87745046D01*
X49158681Y-87735698D01*
X49182715Y-87730918D01*
X49205354Y-87721540D01*
X49225728Y-87707926D01*
X49243055Y-87690599D01*
X49250000Y-87680205D01*
X49256945Y-87690599D01*
X49274272Y-87707926D01*
X49294646Y-87721540D01*
X49317285Y-87730918D01*
X49341319Y-87735698D01*
X49377863Y-87739297D01*
X49436231Y-87745046D01*
X49525769Y-87772207D01*
X49615308Y-87799368D01*
X49780347Y-87887583D01*
X49925001Y-88006299D01*
X50043717Y-88150953D01*
X50134447Y-88320697D01*
X50139758Y-88333519D01*
X50153371Y-88353894D01*
X50170698Y-88371222D01*
X50191072Y-88384836D01*
X50213711Y-88394214D01*
X50237744Y-88398996D01*
X50262248Y-88398996D01*
X50286282Y-88394217D01*
X50308921Y-88384840D01*
X50329296Y-88371227D01*
X50346624Y-88353900D01*
X50360238Y-88333526D01*
X50365549Y-88320705D01*
X50456283Y-88150953D01*
X50574999Y-88006299D01*
X50719653Y-87887583D01*
X50884691Y-87799368D01*
X50974230Y-87772207D01*
X51063768Y-87745046D01*
X51158681Y-87735698D01*
X51182715Y-87730918D01*
X51205354Y-87721540D01*
X51225728Y-87707926D01*
X51243055Y-87690599D01*
X51250000Y-87680205D01*
X51256945Y-87690599D01*
X51256945Y-87690599D01*
G37*
G36*
X56278707Y-87382597D02*
X56355836Y-87390193D01*
X56464751Y-87423232D01*
X56553763Y-87450233D01*
X56736172Y-87547733D01*
X56896054Y-87678946D01*
X57027267Y-87838828D01*
X57124767Y-88021237D01*
X57124767Y-88021238D01*
X57184807Y-88219164D01*
X57205080Y-88425000D01*
X57184807Y-88630836D01*
X57183654Y-88634636D01*
X57124767Y-88828763D01*
X57027267Y-89011172D01*
X56896054Y-89171054D01*
X56736172Y-89302267D01*
X56553763Y-89399767D01*
X56487787Y-89419780D01*
X56355836Y-89459807D01*
X56278707Y-89467403D01*
X56201580Y-89475000D01*
X56098420Y-89475000D01*
X56021293Y-89467403D01*
X55944164Y-89459807D01*
X55812213Y-89419780D01*
X55746237Y-89399767D01*
X55563828Y-89302267D01*
X55403946Y-89171054D01*
X55272733Y-89011172D01*
X55175233Y-88828763D01*
X55116346Y-88634636D01*
X55115193Y-88630836D01*
X55094920Y-88425000D01*
X55115193Y-88219164D01*
X55175233Y-88021238D01*
X55175233Y-88021237D01*
X55272733Y-87838828D01*
X55403946Y-87678946D01*
X55563828Y-87547733D01*
X55746237Y-87450233D01*
X55835249Y-87423232D01*
X55944164Y-87390193D01*
X56021293Y-87382597D01*
X56098420Y-87375000D01*
X56201580Y-87375000D01*
X56278707Y-87382597D01*
X56278707Y-87382597D01*
G37*
G36*
X53738707Y-87382597D02*
X53815836Y-87390193D01*
X53924751Y-87423232D01*
X54013763Y-87450233D01*
X54196172Y-87547733D01*
X54356054Y-87678946D01*
X54487267Y-87838828D01*
X54584767Y-88021237D01*
X54584767Y-88021238D01*
X54644807Y-88219164D01*
X54665080Y-88425000D01*
X54644807Y-88630836D01*
X54643654Y-88634636D01*
X54584767Y-88828763D01*
X54487267Y-89011172D01*
X54356054Y-89171054D01*
X54196172Y-89302267D01*
X54013763Y-89399767D01*
X53947787Y-89419780D01*
X53815836Y-89459807D01*
X53738707Y-89467403D01*
X53661580Y-89475000D01*
X53558420Y-89475000D01*
X53481293Y-89467403D01*
X53404164Y-89459807D01*
X53272213Y-89419780D01*
X53206237Y-89399767D01*
X53023828Y-89302267D01*
X52863946Y-89171054D01*
X52732733Y-89011172D01*
X52635233Y-88828763D01*
X52576346Y-88634636D01*
X52575193Y-88630836D01*
X52554920Y-88425000D01*
X52575193Y-88219164D01*
X52635233Y-88021238D01*
X52635233Y-88021237D01*
X52732733Y-87838828D01*
X52863946Y-87678946D01*
X53023828Y-87547733D01*
X53206237Y-87450233D01*
X53295249Y-87423232D01*
X53404164Y-87390193D01*
X53481293Y-87382597D01*
X53558420Y-87375000D01*
X53661580Y-87375000D01*
X53738707Y-87382597D01*
X53738707Y-87382597D01*
G37*
G36*
X88748707Y-87382597D02*
X88825836Y-87390193D01*
X88934751Y-87423232D01*
X89023763Y-87450233D01*
X89206172Y-87547733D01*
X89366054Y-87678946D01*
X89497267Y-87838828D01*
X89594767Y-88021237D01*
X89594767Y-88021238D01*
X89654807Y-88219164D01*
X89675080Y-88425000D01*
X89654807Y-88630836D01*
X89653654Y-88634636D01*
X89594767Y-88828763D01*
X89497267Y-89011172D01*
X89366054Y-89171054D01*
X89206172Y-89302267D01*
X89023763Y-89399767D01*
X88957787Y-89419780D01*
X88825836Y-89459807D01*
X88748707Y-89467403D01*
X88671580Y-89475000D01*
X88568420Y-89475000D01*
X88491293Y-89467403D01*
X88414164Y-89459807D01*
X88282213Y-89419780D01*
X88216237Y-89399767D01*
X88033828Y-89302267D01*
X87873946Y-89171054D01*
X87742733Y-89011172D01*
X87645233Y-88828763D01*
X87586346Y-88634636D01*
X87585193Y-88630836D01*
X87564920Y-88425000D01*
X87585193Y-88219164D01*
X87645233Y-88021238D01*
X87645233Y-88021237D01*
X87742733Y-87838828D01*
X87873946Y-87678946D01*
X88033828Y-87547733D01*
X88216237Y-87450233D01*
X88305249Y-87423232D01*
X88414164Y-87390193D01*
X88491293Y-87382597D01*
X88568420Y-87375000D01*
X88671580Y-87375000D01*
X88748707Y-87382597D01*
X88748707Y-87382597D01*
G37*
G36*
X91288707Y-87382597D02*
X91365836Y-87390193D01*
X91474751Y-87423232D01*
X91563763Y-87450233D01*
X91746172Y-87547733D01*
X91906054Y-87678946D01*
X92037267Y-87838828D01*
X92134767Y-88021237D01*
X92134767Y-88021238D01*
X92194807Y-88219164D01*
X92215080Y-88425000D01*
X92194807Y-88630836D01*
X92193654Y-88634636D01*
X92134767Y-88828763D01*
X92037267Y-89011172D01*
X91906054Y-89171054D01*
X91746172Y-89302267D01*
X91563763Y-89399767D01*
X91497787Y-89419780D01*
X91365836Y-89459807D01*
X91288707Y-89467403D01*
X91211580Y-89475000D01*
X91108420Y-89475000D01*
X91031293Y-89467403D01*
X90954164Y-89459807D01*
X90822213Y-89419780D01*
X90756237Y-89399767D01*
X90573828Y-89302267D01*
X90413946Y-89171054D01*
X90282733Y-89011172D01*
X90185233Y-88828763D01*
X90126346Y-88634636D01*
X90125193Y-88630836D01*
X90104920Y-88425000D01*
X90125193Y-88219164D01*
X90185233Y-88021238D01*
X90185233Y-88021237D01*
X90282733Y-87838828D01*
X90413946Y-87678946D01*
X90573828Y-87547733D01*
X90756237Y-87450233D01*
X90845249Y-87423232D01*
X90954164Y-87390193D01*
X91031293Y-87382597D01*
X91108420Y-87375000D01*
X91211580Y-87375000D01*
X91288707Y-87382597D01*
X91288707Y-87382597D01*
G37*
G36*
X51436231Y-85205046D02*
X51525769Y-85232207D01*
X51615308Y-85259368D01*
X51780347Y-85347583D01*
X51925001Y-85466299D01*
X52043717Y-85610953D01*
X52131932Y-85775991D01*
X52143431Y-85813900D01*
X52174983Y-85917911D01*
X52186254Y-85955069D01*
X52199888Y-86093492D01*
X52200000Y-86094635D01*
X52200000Y-86587964D01*
X52186254Y-86727532D01*
X52148687Y-86851373D01*
X52131932Y-86906608D01*
X52043717Y-87071647D01*
X51925001Y-87216301D01*
X51780347Y-87335017D01*
X51615309Y-87423232D01*
X51526297Y-87450233D01*
X51436232Y-87477554D01*
X51352664Y-87485785D01*
X51341319Y-87486902D01*
X51317285Y-87491682D01*
X51294646Y-87501060D01*
X51274272Y-87514674D01*
X51256945Y-87532001D01*
X51250000Y-87542395D01*
X51243055Y-87532001D01*
X51225728Y-87514674D01*
X51205354Y-87501060D01*
X51182715Y-87491682D01*
X51158681Y-87486902D01*
X51122137Y-87483303D01*
X51063769Y-87477554D01*
X50973704Y-87450233D01*
X50884692Y-87423232D01*
X50719654Y-87335017D01*
X50575000Y-87216301D01*
X50456284Y-87071647D01*
X50456282Y-87071645D01*
X50368068Y-86906608D01*
X50368067Y-86906606D01*
X50365553Y-86901902D01*
X50360242Y-86889081D01*
X50346629Y-86868706D01*
X50329302Y-86851378D01*
X50308928Y-86837764D01*
X50286289Y-86828386D01*
X50262256Y-86823604D01*
X50237752Y-86823604D01*
X50213718Y-86828383D01*
X50191079Y-86837760D01*
X50170704Y-86851373D01*
X50153376Y-86868700D01*
X50139762Y-86889074D01*
X50134451Y-86901895D01*
X50043717Y-87071647D01*
X49925001Y-87216301D01*
X49780347Y-87335017D01*
X49615309Y-87423232D01*
X49526297Y-87450233D01*
X49436232Y-87477554D01*
X49352664Y-87485785D01*
X49341319Y-87486902D01*
X49317285Y-87491682D01*
X49294646Y-87501060D01*
X49274272Y-87514674D01*
X49256945Y-87532001D01*
X49250000Y-87542395D01*
X49243055Y-87532001D01*
X49225728Y-87514674D01*
X49205354Y-87501060D01*
X49182715Y-87491682D01*
X49158681Y-87486902D01*
X49122137Y-87483303D01*
X49063769Y-87477554D01*
X48973704Y-87450233D01*
X48884692Y-87423232D01*
X48719654Y-87335017D01*
X48575000Y-87216301D01*
X48456284Y-87071647D01*
X48456282Y-87071645D01*
X48375123Y-86919807D01*
X48368068Y-86906609D01*
X48313746Y-86727531D01*
X48300000Y-86587966D01*
X48300000Y-86094635D01*
X48313746Y-85955070D01*
X48313747Y-85955068D01*
X48344340Y-85854214D01*
X48368068Y-85775992D01*
X48456283Y-85610953D01*
X48574999Y-85466299D01*
X48719653Y-85347583D01*
X48884691Y-85259368D01*
X48974230Y-85232207D01*
X49063768Y-85205046D01*
X49250000Y-85186704D01*
X49436231Y-85205046D01*
X49525769Y-85232207D01*
X49615308Y-85259368D01*
X49780347Y-85347583D01*
X49925001Y-85466299D01*
X50043717Y-85610953D01*
X50134447Y-85780697D01*
X50139758Y-85793519D01*
X50153371Y-85813894D01*
X50170698Y-85831222D01*
X50191072Y-85844836D01*
X50213711Y-85854214D01*
X50237744Y-85858996D01*
X50262248Y-85858996D01*
X50286282Y-85854217D01*
X50308921Y-85844840D01*
X50329296Y-85831227D01*
X50346624Y-85813900D01*
X50360238Y-85793526D01*
X50365549Y-85780705D01*
X50456283Y-85610953D01*
X50574999Y-85466299D01*
X50719653Y-85347583D01*
X50884691Y-85259368D01*
X50974230Y-85232207D01*
X51063768Y-85205046D01*
X51250000Y-85186704D01*
X51436231Y-85205046D01*
X51436231Y-85205046D01*
G37*
G36*
X91288707Y-84842596D02*
X91365836Y-84850193D01*
X91497787Y-84890220D01*
X91563763Y-84910233D01*
X91746172Y-85007733D01*
X91906054Y-85138946D01*
X92037267Y-85298828D01*
X92134767Y-85481237D01*
X92134767Y-85481238D01*
X92194807Y-85679164D01*
X92215080Y-85885000D01*
X92194807Y-86090836D01*
X92154780Y-86222787D01*
X92134767Y-86288763D01*
X92037267Y-86471172D01*
X91906054Y-86631054D01*
X91746172Y-86762267D01*
X91563763Y-86859767D01*
X91497787Y-86879780D01*
X91365836Y-86919807D01*
X91288707Y-86927403D01*
X91211580Y-86935000D01*
X91108420Y-86935000D01*
X91031293Y-86927403D01*
X90954164Y-86919807D01*
X90822213Y-86879780D01*
X90756237Y-86859767D01*
X90573828Y-86762267D01*
X90413946Y-86631054D01*
X90282733Y-86471172D01*
X90185233Y-86288763D01*
X90165220Y-86222787D01*
X90125193Y-86090836D01*
X90104920Y-85885000D01*
X90125193Y-85679164D01*
X90185233Y-85481238D01*
X90185233Y-85481237D01*
X90282733Y-85298828D01*
X90413946Y-85138946D01*
X90573828Y-85007733D01*
X90756237Y-84910233D01*
X90822213Y-84890220D01*
X90954164Y-84850193D01*
X91031293Y-84842596D01*
X91108420Y-84835000D01*
X91211580Y-84835000D01*
X91288707Y-84842596D01*
X91288707Y-84842596D01*
G37*
G36*
X88748707Y-84842596D02*
X88825836Y-84850193D01*
X88957787Y-84890220D01*
X89023763Y-84910233D01*
X89206172Y-85007733D01*
X89366054Y-85138946D01*
X89497267Y-85298828D01*
X89594767Y-85481237D01*
X89594767Y-85481238D01*
X89654807Y-85679164D01*
X89675080Y-85885000D01*
X89654807Y-86090836D01*
X89614780Y-86222787D01*
X89594767Y-86288763D01*
X89497267Y-86471172D01*
X89366054Y-86631054D01*
X89206172Y-86762267D01*
X89023763Y-86859767D01*
X88957787Y-86879780D01*
X88825836Y-86919807D01*
X88748707Y-86927403D01*
X88671580Y-86935000D01*
X88568420Y-86935000D01*
X88491293Y-86927403D01*
X88414164Y-86919807D01*
X88282213Y-86879780D01*
X88216237Y-86859767D01*
X88033828Y-86762267D01*
X87873946Y-86631054D01*
X87742733Y-86471172D01*
X87645233Y-86288763D01*
X87625220Y-86222787D01*
X87585193Y-86090836D01*
X87564920Y-85885000D01*
X87585193Y-85679164D01*
X87645233Y-85481238D01*
X87645233Y-85481237D01*
X87742733Y-85298828D01*
X87873946Y-85138946D01*
X88033828Y-85007733D01*
X88216237Y-84910233D01*
X88282213Y-84890220D01*
X88414164Y-84850193D01*
X88491293Y-84842596D01*
X88568420Y-84835000D01*
X88671580Y-84835000D01*
X88748707Y-84842596D01*
X88748707Y-84842596D01*
G37*
G36*
X53738707Y-84842596D02*
X53815836Y-84850193D01*
X53947787Y-84890220D01*
X54013763Y-84910233D01*
X54196172Y-85007733D01*
X54356054Y-85138946D01*
X54487267Y-85298828D01*
X54584767Y-85481237D01*
X54584767Y-85481238D01*
X54644807Y-85679164D01*
X54665080Y-85885000D01*
X54644807Y-86090836D01*
X54604780Y-86222787D01*
X54584767Y-86288763D01*
X54487267Y-86471172D01*
X54356054Y-86631054D01*
X54196172Y-86762267D01*
X54013763Y-86859767D01*
X53947787Y-86879780D01*
X53815836Y-86919807D01*
X53738707Y-86927403D01*
X53661580Y-86935000D01*
X53558420Y-86935000D01*
X53481293Y-86927403D01*
X53404164Y-86919807D01*
X53272213Y-86879780D01*
X53206237Y-86859767D01*
X53023828Y-86762267D01*
X52863946Y-86631054D01*
X52732733Y-86471172D01*
X52635233Y-86288763D01*
X52615220Y-86222787D01*
X52575193Y-86090836D01*
X52554920Y-85885000D01*
X52575193Y-85679164D01*
X52635233Y-85481238D01*
X52635233Y-85481237D01*
X52732733Y-85298828D01*
X52863946Y-85138946D01*
X53023828Y-85007733D01*
X53206237Y-84910233D01*
X53272213Y-84890220D01*
X53404164Y-84850193D01*
X53481293Y-84842596D01*
X53558420Y-84835000D01*
X53661580Y-84835000D01*
X53738707Y-84842596D01*
X53738707Y-84842596D01*
G37*
G36*
X80463452Y-84239127D02*
X80601105Y-84266508D01*
X80773994Y-84338121D01*
X80929590Y-84442087D01*
X81061913Y-84574410D01*
X81165879Y-84730006D01*
X81237492Y-84902895D01*
X81274000Y-85086433D01*
X81274000Y-85273567D01*
X81237492Y-85457105D01*
X81165879Y-85629994D01*
X81061913Y-85785590D01*
X80929590Y-85917913D01*
X80773994Y-86021879D01*
X80601105Y-86093492D01*
X80463452Y-86120873D01*
X80417568Y-86130000D01*
X80230432Y-86130000D01*
X80184548Y-86120873D01*
X80046895Y-86093492D01*
X79874006Y-86021879D01*
X79718410Y-85917913D01*
X79586087Y-85785590D01*
X79482121Y-85629994D01*
X79410508Y-85457105D01*
X79374000Y-85273567D01*
X79374000Y-85086433D01*
X79410508Y-84902895D01*
X79482121Y-84730006D01*
X79586087Y-84574410D01*
X79718410Y-84442087D01*
X79874006Y-84338121D01*
X80046895Y-84266508D01*
X80184548Y-84239127D01*
X80230432Y-84230000D01*
X80417568Y-84230000D01*
X80463452Y-84239127D01*
X80463452Y-84239127D01*
G37*
G36*
X53738707Y-82302597D02*
X53815836Y-82310193D01*
X53947787Y-82350220D01*
X54013763Y-82370233D01*
X54196172Y-82467733D01*
X54356054Y-82598946D01*
X54487267Y-82758828D01*
X54584767Y-82941237D01*
X54584767Y-82941238D01*
X54644807Y-83139164D01*
X54665080Y-83345000D01*
X54644807Y-83550836D01*
X54620809Y-83629947D01*
X54584767Y-83748763D01*
X54487267Y-83931172D01*
X54356054Y-84091054D01*
X54196172Y-84222267D01*
X54013763Y-84319767D01*
X53947787Y-84339780D01*
X53815836Y-84379807D01*
X53738707Y-84387404D01*
X53661580Y-84395000D01*
X53558420Y-84395000D01*
X53481293Y-84387404D01*
X53404164Y-84379807D01*
X53272213Y-84339780D01*
X53206237Y-84319767D01*
X53023828Y-84222267D01*
X52863946Y-84091054D01*
X52732733Y-83931172D01*
X52635233Y-83748763D01*
X52599191Y-83629947D01*
X52575193Y-83550836D01*
X52554920Y-83345000D01*
X52575193Y-83139164D01*
X52635233Y-82941238D01*
X52635233Y-82941237D01*
X52732733Y-82758828D01*
X52863946Y-82598946D01*
X53023828Y-82467733D01*
X53206237Y-82370233D01*
X53272213Y-82350220D01*
X53404164Y-82310193D01*
X53481293Y-82302597D01*
X53558420Y-82295000D01*
X53661580Y-82295000D01*
X53738707Y-82302597D01*
X53738707Y-82302597D01*
G37*
G36*
X88748707Y-82302597D02*
X88825836Y-82310193D01*
X88957787Y-82350220D01*
X89023763Y-82370233D01*
X89206172Y-82467733D01*
X89366054Y-82598946D01*
X89497267Y-82758828D01*
X89594767Y-82941237D01*
X89594767Y-82941238D01*
X89654807Y-83139164D01*
X89675080Y-83345000D01*
X89654807Y-83550836D01*
X89630809Y-83629947D01*
X89594767Y-83748763D01*
X89497267Y-83931172D01*
X89366054Y-84091054D01*
X89206172Y-84222267D01*
X89023763Y-84319767D01*
X88957787Y-84339780D01*
X88825836Y-84379807D01*
X88748707Y-84387404D01*
X88671580Y-84395000D01*
X88568420Y-84395000D01*
X88491293Y-84387404D01*
X88414164Y-84379807D01*
X88282213Y-84339780D01*
X88216237Y-84319767D01*
X88033828Y-84222267D01*
X87873946Y-84091054D01*
X87742733Y-83931172D01*
X87645233Y-83748763D01*
X87609191Y-83629947D01*
X87585193Y-83550836D01*
X87564920Y-83345000D01*
X87585193Y-83139164D01*
X87645233Y-82941238D01*
X87645233Y-82941237D01*
X87742733Y-82758828D01*
X87873946Y-82598946D01*
X88033828Y-82467733D01*
X88216237Y-82370233D01*
X88282213Y-82350220D01*
X88414164Y-82310193D01*
X88491293Y-82302597D01*
X88568420Y-82295000D01*
X88671580Y-82295000D01*
X88748707Y-82302597D01*
X88748707Y-82302597D01*
G37*
G36*
X91288707Y-82302597D02*
X91365836Y-82310193D01*
X91497787Y-82350220D01*
X91563763Y-82370233D01*
X91746172Y-82467733D01*
X91906054Y-82598946D01*
X92037267Y-82758828D01*
X92134767Y-82941237D01*
X92134767Y-82941238D01*
X92194807Y-83139164D01*
X92215080Y-83345000D01*
X92194807Y-83550836D01*
X92170809Y-83629947D01*
X92134767Y-83748763D01*
X92037267Y-83931172D01*
X91906054Y-84091054D01*
X91746172Y-84222267D01*
X91563763Y-84319767D01*
X91497787Y-84339780D01*
X91365836Y-84379807D01*
X91288707Y-84387404D01*
X91211580Y-84395000D01*
X91108420Y-84395000D01*
X91031293Y-84387404D01*
X90954164Y-84379807D01*
X90822213Y-84339780D01*
X90756237Y-84319767D01*
X90573828Y-84222267D01*
X90413946Y-84091054D01*
X90282733Y-83931172D01*
X90185233Y-83748763D01*
X90149191Y-83629947D01*
X90125193Y-83550836D01*
X90104920Y-83345000D01*
X90125193Y-83139164D01*
X90185233Y-82941238D01*
X90185233Y-82941237D01*
X90282733Y-82758828D01*
X90413946Y-82598946D01*
X90573828Y-82467733D01*
X90756237Y-82370233D01*
X90822213Y-82350220D01*
X90954164Y-82310193D01*
X91031293Y-82302597D01*
X91108420Y-82295000D01*
X91211580Y-82295000D01*
X91288707Y-82302597D01*
X91288707Y-82302597D01*
G37*
G36*
X51256945Y-81708899D02*
X51274272Y-81726226D01*
X51294646Y-81739840D01*
X51317285Y-81749218D01*
X51341319Y-81753998D01*
X51377863Y-81757597D01*
X51436231Y-81763346D01*
X51525769Y-81790507D01*
X51615308Y-81817668D01*
X51780347Y-81905883D01*
X51925001Y-82024599D01*
X52043717Y-82169253D01*
X52131932Y-82334291D01*
X52143431Y-82372200D01*
X52186254Y-82513368D01*
X52200000Y-82652935D01*
X52200000Y-83146264D01*
X52186254Y-83285832D01*
X52148687Y-83409673D01*
X52131932Y-83464908D01*
X52043717Y-83629947D01*
X51925001Y-83774601D01*
X51780347Y-83893317D01*
X51615309Y-83981532D01*
X51525770Y-84008693D01*
X51436232Y-84035854D01*
X51250000Y-84054196D01*
X51063769Y-84035854D01*
X50974231Y-84008693D01*
X50884692Y-83981532D01*
X50719654Y-83893317D01*
X50575000Y-83774601D01*
X50456284Y-83629947D01*
X50456282Y-83629945D01*
X50368068Y-83464908D01*
X50368067Y-83464906D01*
X50365553Y-83460202D01*
X50360242Y-83447381D01*
X50346629Y-83427006D01*
X50329302Y-83409678D01*
X50308928Y-83396064D01*
X50286289Y-83386686D01*
X50262256Y-83381904D01*
X50237752Y-83381904D01*
X50213718Y-83386683D01*
X50191079Y-83396060D01*
X50170704Y-83409673D01*
X50153376Y-83427000D01*
X50139762Y-83447374D01*
X50134451Y-83460195D01*
X50043717Y-83629947D01*
X49925001Y-83774601D01*
X49780347Y-83893317D01*
X49615309Y-83981532D01*
X49525770Y-84008693D01*
X49436232Y-84035854D01*
X49250000Y-84054196D01*
X49063769Y-84035854D01*
X48974231Y-84008693D01*
X48884692Y-83981532D01*
X48719654Y-83893317D01*
X48575000Y-83774601D01*
X48456284Y-83629947D01*
X48456282Y-83629945D01*
X48400243Y-83525104D01*
X48368068Y-83464909D01*
X48313746Y-83285831D01*
X48300000Y-83146266D01*
X48300000Y-82652935D01*
X48313746Y-82513370D01*
X48313747Y-82513368D01*
X48344340Y-82412514D01*
X48368068Y-82334292D01*
X48456283Y-82169253D01*
X48574999Y-82024599D01*
X48719653Y-81905883D01*
X48884691Y-81817668D01*
X48974230Y-81790507D01*
X49063768Y-81763346D01*
X49158681Y-81753998D01*
X49182715Y-81749218D01*
X49205354Y-81739840D01*
X49225728Y-81726226D01*
X49243055Y-81708899D01*
X49250000Y-81698505D01*
X49256945Y-81708899D01*
X49274272Y-81726226D01*
X49294646Y-81739840D01*
X49317285Y-81749218D01*
X49341319Y-81753998D01*
X49377863Y-81757597D01*
X49436231Y-81763346D01*
X49525769Y-81790507D01*
X49615308Y-81817668D01*
X49780347Y-81905883D01*
X49925001Y-82024599D01*
X50043717Y-82169253D01*
X50134447Y-82338997D01*
X50139758Y-82351819D01*
X50153371Y-82372194D01*
X50170698Y-82389522D01*
X50191072Y-82403136D01*
X50213711Y-82412514D01*
X50237744Y-82417296D01*
X50262248Y-82417296D01*
X50286282Y-82412517D01*
X50308921Y-82403140D01*
X50329296Y-82389527D01*
X50346624Y-82372200D01*
X50360238Y-82351826D01*
X50365549Y-82339005D01*
X50456283Y-82169253D01*
X50574999Y-82024599D01*
X50719653Y-81905883D01*
X50884691Y-81817668D01*
X50974230Y-81790507D01*
X51063768Y-81763346D01*
X51158681Y-81753998D01*
X51182715Y-81749218D01*
X51205354Y-81739840D01*
X51225728Y-81726226D01*
X51243055Y-81708899D01*
X51250000Y-81698505D01*
X51256945Y-81708899D01*
X51256945Y-81708899D01*
G37*
G36*
X91288707Y-79762596D02*
X91365836Y-79770193D01*
X91497787Y-79810220D01*
X91563763Y-79830233D01*
X91746172Y-79927733D01*
X91906054Y-80058946D01*
X92037267Y-80218828D01*
X92134767Y-80401237D01*
X92134767Y-80401238D01*
X92194807Y-80599164D01*
X92215080Y-80805000D01*
X92194807Y-81010836D01*
X92170809Y-81089947D01*
X92134767Y-81208763D01*
X92037267Y-81391172D01*
X91906054Y-81551054D01*
X91746172Y-81682267D01*
X91563763Y-81779767D01*
X91497787Y-81799780D01*
X91365836Y-81839807D01*
X91288707Y-81847403D01*
X91211580Y-81855000D01*
X91108420Y-81855000D01*
X91031293Y-81847403D01*
X90954164Y-81839807D01*
X90822213Y-81799780D01*
X90756237Y-81779767D01*
X90573828Y-81682267D01*
X90413946Y-81551054D01*
X90282733Y-81391172D01*
X90185233Y-81208763D01*
X90149191Y-81089947D01*
X90125193Y-81010836D01*
X90104920Y-80805000D01*
X90125193Y-80599164D01*
X90185233Y-80401238D01*
X90185233Y-80401237D01*
X90282733Y-80218828D01*
X90413946Y-80058946D01*
X90573828Y-79927733D01*
X90756237Y-79830233D01*
X90822213Y-79810220D01*
X90954164Y-79770193D01*
X91031293Y-79762596D01*
X91108420Y-79755000D01*
X91211580Y-79755000D01*
X91288707Y-79762596D01*
X91288707Y-79762596D01*
G37*
G36*
X88748707Y-79762596D02*
X88825836Y-79770193D01*
X88957787Y-79810220D01*
X89023763Y-79830233D01*
X89206172Y-79927733D01*
X89366054Y-80058946D01*
X89497267Y-80218828D01*
X89594767Y-80401237D01*
X89594767Y-80401238D01*
X89654807Y-80599164D01*
X89675080Y-80805000D01*
X89654807Y-81010836D01*
X89630809Y-81089947D01*
X89594767Y-81208763D01*
X89497267Y-81391172D01*
X89366054Y-81551054D01*
X89206172Y-81682267D01*
X89023763Y-81779767D01*
X88957787Y-81799780D01*
X88825836Y-81839807D01*
X88748707Y-81847403D01*
X88671580Y-81855000D01*
X88568420Y-81855000D01*
X88491293Y-81847403D01*
X88414164Y-81839807D01*
X88282213Y-81799780D01*
X88216237Y-81779767D01*
X88033828Y-81682267D01*
X87873946Y-81551054D01*
X87742733Y-81391172D01*
X87645233Y-81208763D01*
X87609191Y-81089947D01*
X87585193Y-81010836D01*
X87564920Y-80805000D01*
X87585193Y-80599164D01*
X87645233Y-80401238D01*
X87645233Y-80401237D01*
X87742733Y-80218828D01*
X87873946Y-80058946D01*
X88033828Y-79927733D01*
X88216237Y-79830233D01*
X88282213Y-79810220D01*
X88414164Y-79770193D01*
X88491293Y-79762596D01*
X88568420Y-79755000D01*
X88671580Y-79755000D01*
X88748707Y-79762596D01*
X88748707Y-79762596D01*
G37*
G36*
X53738707Y-79762596D02*
X53815836Y-79770193D01*
X53947787Y-79810220D01*
X54013763Y-79830233D01*
X54196172Y-79927733D01*
X54356054Y-80058946D01*
X54487267Y-80218828D01*
X54584767Y-80401237D01*
X54584767Y-80401238D01*
X54644807Y-80599164D01*
X54665080Y-80805000D01*
X54644807Y-81010836D01*
X54620809Y-81089947D01*
X54584767Y-81208763D01*
X54487267Y-81391172D01*
X54356054Y-81551054D01*
X54196172Y-81682267D01*
X54013763Y-81779767D01*
X53947787Y-81799780D01*
X53815836Y-81839807D01*
X53738707Y-81847403D01*
X53661580Y-81855000D01*
X53558420Y-81855000D01*
X53481293Y-81847403D01*
X53404164Y-81839807D01*
X53272213Y-81799780D01*
X53206237Y-81779767D01*
X53023828Y-81682267D01*
X52863946Y-81551054D01*
X52732733Y-81391172D01*
X52635233Y-81208763D01*
X52599191Y-81089947D01*
X52575193Y-81010836D01*
X52554920Y-80805000D01*
X52575193Y-80599164D01*
X52635233Y-80401238D01*
X52635233Y-80401237D01*
X52732733Y-80218828D01*
X52863946Y-80058946D01*
X53023828Y-79927733D01*
X53206237Y-79830233D01*
X53272213Y-79810220D01*
X53404164Y-79770193D01*
X53481293Y-79762596D01*
X53558420Y-79755000D01*
X53661580Y-79755000D01*
X53738707Y-79762596D01*
X53738707Y-79762596D01*
G37*
G36*
X51436231Y-79223346D02*
X51500685Y-79242898D01*
X51615308Y-79277668D01*
X51780347Y-79365883D01*
X51925001Y-79484599D01*
X52043717Y-79629253D01*
X52131932Y-79794291D01*
X52143431Y-79832200D01*
X52186254Y-79973368D01*
X52200000Y-80112935D01*
X52200000Y-80606264D01*
X52186254Y-80745832D01*
X52148687Y-80869673D01*
X52131932Y-80924908D01*
X52043717Y-81089947D01*
X51925001Y-81234601D01*
X51780347Y-81353317D01*
X51615309Y-81441532D01*
X51525770Y-81468693D01*
X51436232Y-81495854D01*
X51352664Y-81504085D01*
X51341319Y-81505202D01*
X51317285Y-81509982D01*
X51294646Y-81519360D01*
X51274272Y-81532974D01*
X51256945Y-81550301D01*
X51250000Y-81560695D01*
X51243055Y-81550301D01*
X51225728Y-81532974D01*
X51205354Y-81519360D01*
X51182715Y-81509982D01*
X51158681Y-81505202D01*
X51122137Y-81501603D01*
X51063769Y-81495854D01*
X50974231Y-81468693D01*
X50884692Y-81441532D01*
X50719654Y-81353317D01*
X50575000Y-81234601D01*
X50456284Y-81089947D01*
X50456282Y-81089945D01*
X50368068Y-80924908D01*
X50368067Y-80924906D01*
X50365553Y-80920202D01*
X50360242Y-80907381D01*
X50346629Y-80887006D01*
X50329302Y-80869678D01*
X50308928Y-80856064D01*
X50286289Y-80846686D01*
X50262256Y-80841904D01*
X50237752Y-80841904D01*
X50213718Y-80846683D01*
X50191079Y-80856060D01*
X50170704Y-80869673D01*
X50153376Y-80887000D01*
X50139762Y-80907374D01*
X50134451Y-80920195D01*
X50043717Y-81089947D01*
X49925001Y-81234601D01*
X49780347Y-81353317D01*
X49615309Y-81441532D01*
X49525770Y-81468693D01*
X49436232Y-81495854D01*
X49352664Y-81504085D01*
X49341319Y-81505202D01*
X49317285Y-81509982D01*
X49294646Y-81519360D01*
X49274272Y-81532974D01*
X49256945Y-81550301D01*
X49250000Y-81560695D01*
X49243055Y-81550301D01*
X49225728Y-81532974D01*
X49205354Y-81519360D01*
X49182715Y-81509982D01*
X49158681Y-81505202D01*
X49122137Y-81501603D01*
X49063769Y-81495854D01*
X48974231Y-81468693D01*
X48884692Y-81441532D01*
X48719654Y-81353317D01*
X48575000Y-81234601D01*
X48456284Y-81089947D01*
X48456282Y-81089945D01*
X48400243Y-80985104D01*
X48368068Y-80924909D01*
X48313746Y-80745831D01*
X48300000Y-80606266D01*
X48300000Y-80112935D01*
X48313746Y-79973370D01*
X48313747Y-79973368D01*
X48344340Y-79872514D01*
X48368068Y-79794292D01*
X48456283Y-79629253D01*
X48574999Y-79484599D01*
X48719653Y-79365883D01*
X48884691Y-79277668D01*
X48999314Y-79242898D01*
X49063768Y-79223346D01*
X49250000Y-79205004D01*
X49436231Y-79223346D01*
X49500685Y-79242898D01*
X49615308Y-79277668D01*
X49780347Y-79365883D01*
X49925001Y-79484599D01*
X50043717Y-79629253D01*
X50134447Y-79798997D01*
X50139758Y-79811819D01*
X50153371Y-79832194D01*
X50170698Y-79849522D01*
X50191072Y-79863136D01*
X50213711Y-79872514D01*
X50237744Y-79877296D01*
X50262248Y-79877296D01*
X50286282Y-79872517D01*
X50308921Y-79863140D01*
X50329296Y-79849527D01*
X50346624Y-79832200D01*
X50360238Y-79811826D01*
X50365549Y-79799005D01*
X50456283Y-79629253D01*
X50574999Y-79484599D01*
X50719653Y-79365883D01*
X50884691Y-79277668D01*
X50999314Y-79242898D01*
X51063768Y-79223346D01*
X51250000Y-79205004D01*
X51436231Y-79223346D01*
X51436231Y-79223346D01*
G37*
G36*
X75959452Y-78579127D02*
X76097105Y-78606508D01*
X76269994Y-78678121D01*
X76425590Y-78782087D01*
X76557913Y-78914410D01*
X76661879Y-79070006D01*
X76733492Y-79242895D01*
X76757956Y-79365882D01*
X76770000Y-79426432D01*
X76770000Y-79613568D01*
X76760873Y-79659452D01*
X76733492Y-79797105D01*
X76661879Y-79969994D01*
X76557913Y-80125590D01*
X76425590Y-80257913D01*
X76269994Y-80361879D01*
X76097105Y-80433492D01*
X75959451Y-80460873D01*
X75913568Y-80470000D01*
X75726432Y-80470000D01*
X75680549Y-80460873D01*
X75542895Y-80433492D01*
X75370006Y-80361879D01*
X75214410Y-80257913D01*
X75082087Y-80125590D01*
X74978121Y-79969994D01*
X74906508Y-79797105D01*
X74879127Y-79659451D01*
X74870000Y-79613568D01*
X74870000Y-79426432D01*
X74882044Y-79365882D01*
X74906508Y-79242895D01*
X74978121Y-79070006D01*
X75082087Y-78914410D01*
X75214410Y-78782087D01*
X75370006Y-78678121D01*
X75542895Y-78606508D01*
X75680548Y-78579127D01*
X75726432Y-78570000D01*
X75913568Y-78570000D01*
X75959452Y-78579127D01*
X75959452Y-78579127D01*
G37*
G36*
X54660000Y-79315000D02*
X52560000Y-79315000D01*
X52560000Y-77215000D01*
X54660000Y-77215000D01*
X54660000Y-79315000D01*
X54660000Y-79315000D01*
G37*
G36*
X91288707Y-77222597D02*
X91365836Y-77230193D01*
X91497787Y-77270220D01*
X91563763Y-77290233D01*
X91746172Y-77387733D01*
X91906054Y-77518946D01*
X92037267Y-77678828D01*
X92134767Y-77861237D01*
X92134767Y-77861238D01*
X92194807Y-78059164D01*
X92215080Y-78265000D01*
X92194807Y-78470836D01*
X92164726Y-78570000D01*
X92134767Y-78668763D01*
X92037267Y-78851172D01*
X91906054Y-79011054D01*
X91746172Y-79142267D01*
X91563763Y-79239767D01*
X91497787Y-79259780D01*
X91365836Y-79299807D01*
X91288707Y-79307404D01*
X91211580Y-79315000D01*
X91108420Y-79315000D01*
X91031293Y-79307404D01*
X90954164Y-79299807D01*
X90822213Y-79259780D01*
X90756237Y-79239767D01*
X90573828Y-79142267D01*
X90413946Y-79011054D01*
X90282733Y-78851172D01*
X90185233Y-78668763D01*
X90155274Y-78570000D01*
X90125193Y-78470836D01*
X90104920Y-78265000D01*
X90125193Y-78059164D01*
X90185233Y-77861238D01*
X90185233Y-77861237D01*
X90282733Y-77678828D01*
X90413946Y-77518946D01*
X90573828Y-77387733D01*
X90756237Y-77290233D01*
X90822213Y-77270220D01*
X90954164Y-77230193D01*
X91031293Y-77222597D01*
X91108420Y-77215000D01*
X91211580Y-77215000D01*
X91288707Y-77222597D01*
X91288707Y-77222597D01*
G37*
G36*
X89670000Y-79315000D02*
X87570000Y-79315000D01*
X87570000Y-77215000D01*
X89670000Y-77215000D01*
X89670000Y-79315000D01*
X89670000Y-79315000D01*
G37*
G36*
X51761159Y-69391146D02*
X51846488Y-69408119D01*
X52087623Y-69508000D01*
X52304641Y-69653007D01*
X52489193Y-69837559D01*
X52634200Y-70054577D01*
X52734081Y-70295713D01*
X52785000Y-70551697D01*
X52785000Y-70812703D01*
X52734081Y-71068687D01*
X52634200Y-71309823D01*
X52489193Y-71526841D01*
X52304641Y-71711393D01*
X52304638Y-71711395D01*
X52087623Y-71856400D01*
X51846488Y-71956281D01*
X51761159Y-71973254D01*
X51590503Y-72007200D01*
X51329497Y-72007200D01*
X51158841Y-71973254D01*
X51073512Y-71956281D01*
X50832377Y-71856400D01*
X50615362Y-71711395D01*
X50615359Y-71711393D01*
X50430807Y-71526841D01*
X50285800Y-71309823D01*
X50185919Y-71068687D01*
X50135000Y-70812703D01*
X50135000Y-70551697D01*
X50185919Y-70295713D01*
X50285800Y-70054577D01*
X50430807Y-69837559D01*
X50615359Y-69653007D01*
X50832377Y-69508000D01*
X51073512Y-69408119D01*
X51158841Y-69391146D01*
X51329497Y-69357200D01*
X51590503Y-69357200D01*
X51761159Y-69391146D01*
X51761159Y-69391146D01*
G37*
G36*
X56841159Y-69391146D02*
X56926488Y-69408119D01*
X57167623Y-69508000D01*
X57384641Y-69653007D01*
X57569193Y-69837559D01*
X57714200Y-70054577D01*
X57814081Y-70295713D01*
X57865000Y-70551697D01*
X57865000Y-70812703D01*
X57814081Y-71068687D01*
X57714200Y-71309823D01*
X57569193Y-71526841D01*
X57384641Y-71711393D01*
X57384638Y-71711395D01*
X57167623Y-71856400D01*
X56926488Y-71956281D01*
X56841159Y-71973254D01*
X56670503Y-72007200D01*
X56409497Y-72007200D01*
X56238841Y-71973254D01*
X56153512Y-71956281D01*
X55912377Y-71856400D01*
X55695362Y-71711395D01*
X55695359Y-71711393D01*
X55510807Y-71526841D01*
X55365800Y-71309823D01*
X55265919Y-71068687D01*
X55215000Y-70812703D01*
X55215000Y-70551697D01*
X55265919Y-70295713D01*
X55365800Y-70054577D01*
X55510807Y-69837559D01*
X55695359Y-69653007D01*
X55912377Y-69508000D01*
X56153512Y-69408119D01*
X56238841Y-69391146D01*
X56409497Y-69357200D01*
X56670503Y-69357200D01*
X56841159Y-69391146D01*
X56841159Y-69391146D01*
G37*
G36*
X54357319Y-66964276D02*
X54580255Y-67056619D01*
X54779539Y-67189777D01*
X54780895Y-67190683D01*
X54951517Y-67361305D01*
X54951519Y-67361308D01*
X55085581Y-67561945D01*
X55177924Y-67784881D01*
X55225000Y-68021548D01*
X55225000Y-68262852D01*
X55177924Y-68499519D01*
X55085581Y-68722455D01*
X54952423Y-68921739D01*
X54951517Y-68923095D01*
X54780895Y-69093717D01*
X54780892Y-69093719D01*
X54580255Y-69227781D01*
X54357319Y-69320124D01*
X54238985Y-69343662D01*
X54120653Y-69367200D01*
X53879347Y-69367200D01*
X53761015Y-69343662D01*
X53642681Y-69320124D01*
X53419745Y-69227781D01*
X53219108Y-69093719D01*
X53219105Y-69093717D01*
X53048483Y-68923095D01*
X53047577Y-68921739D01*
X52914419Y-68722455D01*
X52822076Y-68499519D01*
X52775000Y-68262852D01*
X52775000Y-68021548D01*
X52822076Y-67784881D01*
X52914419Y-67561945D01*
X53048481Y-67361308D01*
X53048483Y-67361305D01*
X53219105Y-67190683D01*
X53220461Y-67189777D01*
X53419745Y-67056619D01*
X53642681Y-66964276D01*
X53879347Y-66917200D01*
X54120653Y-66917200D01*
X54357319Y-66964276D01*
X54357319Y-66964276D01*
G37*
G36*
X51761159Y-64311146D02*
X51846488Y-64328119D01*
X52087623Y-64428000D01*
X52304641Y-64573007D01*
X52489193Y-64757559D01*
X52634200Y-64974577D01*
X52734081Y-65215713D01*
X52785000Y-65471697D01*
X52785000Y-65732703D01*
X52734081Y-65988687D01*
X52634200Y-66229823D01*
X52489193Y-66446841D01*
X52304641Y-66631393D01*
X52304638Y-66631395D01*
X52087623Y-66776400D01*
X51846488Y-66876281D01*
X51761159Y-66893254D01*
X51590503Y-66927200D01*
X51329497Y-66927200D01*
X51158841Y-66893254D01*
X51073512Y-66876281D01*
X50832377Y-66776400D01*
X50615362Y-66631395D01*
X50615359Y-66631393D01*
X50430807Y-66446841D01*
X50285800Y-66229823D01*
X50185919Y-65988687D01*
X50135000Y-65732703D01*
X50135000Y-65471697D01*
X50185919Y-65215713D01*
X50285800Y-64974577D01*
X50430807Y-64757559D01*
X50615359Y-64573007D01*
X50832377Y-64428000D01*
X51073512Y-64328119D01*
X51158841Y-64311146D01*
X51329497Y-64277200D01*
X51590503Y-64277200D01*
X51761159Y-64311146D01*
X51761159Y-64311146D01*
G37*
G36*
X56841159Y-64311146D02*
X56926488Y-64328119D01*
X57167623Y-64428000D01*
X57384641Y-64573007D01*
X57569193Y-64757559D01*
X57714200Y-64974577D01*
X57814081Y-65215713D01*
X57865000Y-65471697D01*
X57865000Y-65732703D01*
X57814081Y-65988687D01*
X57714200Y-66229823D01*
X57569193Y-66446841D01*
X57384641Y-66631393D01*
X57384638Y-66631395D01*
X57167623Y-66776400D01*
X56926488Y-66876281D01*
X56841159Y-66893254D01*
X56670503Y-66927200D01*
X56409497Y-66927200D01*
X56238841Y-66893254D01*
X56153512Y-66876281D01*
X55912377Y-66776400D01*
X55695362Y-66631395D01*
X55695359Y-66631393D01*
X55510807Y-66446841D01*
X55365800Y-66229823D01*
X55265919Y-65988687D01*
X55215000Y-65732703D01*
X55215000Y-65471697D01*
X55265919Y-65215713D01*
X55365800Y-64974577D01*
X55510807Y-64757559D01*
X55695359Y-64573007D01*
X55912377Y-64428000D01*
X56153512Y-64328119D01*
X56238841Y-64311146D01*
X56409497Y-64277200D01*
X56670503Y-64277200D01*
X56841159Y-64311146D01*
X56841159Y-64311146D01*
G37*
G36*
X52296945Y-59529299D02*
X52314272Y-59546626D01*
X52334647Y-59560240D01*
X52357286Y-59569618D01*
X52381319Y-59574398D01*
X52476232Y-59583746D01*
X52565770Y-59610907D01*
X52655309Y-59638068D01*
X52820347Y-59726283D01*
X52965001Y-59844999D01*
X53083717Y-59989653D01*
X53083718Y-59989655D01*
X53171932Y-60154692D01*
X53226254Y-60333768D01*
X53226254Y-60333770D01*
X53240000Y-60473335D01*
X53240000Y-60966666D01*
X53226254Y-61106231D01*
X53171932Y-61285309D01*
X53083717Y-61450347D01*
X52965001Y-61595001D01*
X52820347Y-61713717D01*
X52655308Y-61801932D01*
X52565769Y-61829093D01*
X52476231Y-61856254D01*
X52290000Y-61874596D01*
X52103768Y-61856254D01*
X52014230Y-61829093D01*
X51924691Y-61801932D01*
X51759653Y-61713717D01*
X51614999Y-61595001D01*
X51496283Y-61450347D01*
X51405551Y-61280599D01*
X51400240Y-61267776D01*
X51386626Y-61247402D01*
X51369298Y-61230075D01*
X51348924Y-61216461D01*
X51326284Y-61207084D01*
X51302251Y-61202304D01*
X51277747Y-61202304D01*
X51253713Y-61207085D01*
X51231074Y-61216462D01*
X51210700Y-61230076D01*
X51193373Y-61247404D01*
X51179759Y-61267778D01*
X51174447Y-61280604D01*
X51083717Y-61450347D01*
X50965001Y-61595001D01*
X50820347Y-61713717D01*
X50655308Y-61801932D01*
X50565769Y-61829093D01*
X50476231Y-61856254D01*
X50290000Y-61874596D01*
X50103768Y-61856254D01*
X50014230Y-61829093D01*
X49924691Y-61801932D01*
X49759653Y-61713717D01*
X49614999Y-61595001D01*
X49496283Y-61450347D01*
X49408068Y-61285308D01*
X49380907Y-61195769D01*
X49353746Y-61106231D01*
X49340000Y-60966664D01*
X49340000Y-60473335D01*
X49353746Y-60333768D01*
X49384339Y-60232915D01*
X49408068Y-60154691D01*
X49440243Y-60094496D01*
X49496282Y-59989655D01*
X49615000Y-59844999D01*
X49759654Y-59726283D01*
X49924692Y-59638068D01*
X50014231Y-59610907D01*
X50103769Y-59583746D01*
X50162137Y-59577997D01*
X50198681Y-59574398D01*
X50222715Y-59569617D01*
X50245354Y-59560240D01*
X50265728Y-59546626D01*
X50283055Y-59529299D01*
X50290000Y-59518905D01*
X50296945Y-59529299D01*
X50314272Y-59546626D01*
X50334647Y-59560240D01*
X50357286Y-59569618D01*
X50381319Y-59574398D01*
X50476232Y-59583746D01*
X50565770Y-59610907D01*
X50655309Y-59638068D01*
X50820347Y-59726283D01*
X50965001Y-59844999D01*
X51083717Y-59989653D01*
X51174449Y-60159401D01*
X51179760Y-60172224D01*
X51193374Y-60192598D01*
X51210702Y-60209925D01*
X51231076Y-60223539D01*
X51253716Y-60232916D01*
X51277749Y-60237696D01*
X51302253Y-60237696D01*
X51326287Y-60232915D01*
X51348926Y-60223538D01*
X51369300Y-60209924D01*
X51386627Y-60192596D01*
X51400241Y-60172222D01*
X51405553Y-60159397D01*
X51416547Y-60138828D01*
X51496282Y-59989655D01*
X51615000Y-59844999D01*
X51759654Y-59726283D01*
X51924692Y-59638068D01*
X52014231Y-59610907D01*
X52103769Y-59583746D01*
X52162137Y-59577997D01*
X52198681Y-59574398D01*
X52222715Y-59569617D01*
X52245354Y-59560240D01*
X52265728Y-59546626D01*
X52283055Y-59529299D01*
X52290000Y-59518905D01*
X52296945Y-59529299D01*
X52296945Y-59529299D01*
G37*
G36*
X52476232Y-57043746D02*
X52565770Y-57070907D01*
X52655309Y-57098068D01*
X52820347Y-57186283D01*
X52965001Y-57304999D01*
X53083717Y-57449653D01*
X53083718Y-57449655D01*
X53171932Y-57614692D01*
X53226254Y-57793768D01*
X53226254Y-57793770D01*
X53240000Y-57933335D01*
X53240000Y-58426666D01*
X53226254Y-58566231D01*
X53171932Y-58745309D01*
X53083717Y-58910347D01*
X52965001Y-59055001D01*
X52820347Y-59173717D01*
X52655308Y-59261932D01*
X52565769Y-59289093D01*
X52476231Y-59316254D01*
X52417863Y-59322003D01*
X52381319Y-59325602D01*
X52357285Y-59330383D01*
X52334646Y-59339760D01*
X52314272Y-59353374D01*
X52296945Y-59370701D01*
X52290000Y-59381095D01*
X52283055Y-59370701D01*
X52265728Y-59353374D01*
X52245353Y-59339760D01*
X52222714Y-59330382D01*
X52198681Y-59325602D01*
X52187336Y-59324485D01*
X52103768Y-59316254D01*
X52014230Y-59289093D01*
X51924691Y-59261932D01*
X51759653Y-59173717D01*
X51614999Y-59055001D01*
X51496283Y-58910347D01*
X51405551Y-58740599D01*
X51400240Y-58727776D01*
X51386626Y-58707402D01*
X51369298Y-58690075D01*
X51348924Y-58676461D01*
X51326284Y-58667084D01*
X51302251Y-58662304D01*
X51277747Y-58662304D01*
X51253713Y-58667085D01*
X51231074Y-58676462D01*
X51210700Y-58690076D01*
X51193373Y-58707404D01*
X51179759Y-58727778D01*
X51174447Y-58740604D01*
X51083717Y-58910347D01*
X50965001Y-59055001D01*
X50820347Y-59173717D01*
X50655308Y-59261932D01*
X50565769Y-59289093D01*
X50476231Y-59316254D01*
X50417863Y-59322003D01*
X50381319Y-59325602D01*
X50357285Y-59330383D01*
X50334646Y-59339760D01*
X50314272Y-59353374D01*
X50296945Y-59370701D01*
X50290000Y-59381095D01*
X50283055Y-59370701D01*
X50265728Y-59353374D01*
X50245353Y-59339760D01*
X50222714Y-59330382D01*
X50198681Y-59325602D01*
X50187336Y-59324485D01*
X50103768Y-59316254D01*
X50014230Y-59289093D01*
X49924691Y-59261932D01*
X49759653Y-59173717D01*
X49614999Y-59055001D01*
X49496283Y-58910347D01*
X49408068Y-58745308D01*
X49380907Y-58655769D01*
X49353746Y-58566231D01*
X49340000Y-58426664D01*
X49340000Y-57933335D01*
X49353746Y-57793768D01*
X49384339Y-57692915D01*
X49408068Y-57614691D01*
X49440243Y-57554496D01*
X49496282Y-57449655D01*
X49615000Y-57304999D01*
X49759654Y-57186283D01*
X49924692Y-57098068D01*
X50014231Y-57070907D01*
X50103769Y-57043746D01*
X50290000Y-57025404D01*
X50476232Y-57043746D01*
X50565770Y-57070907D01*
X50655309Y-57098068D01*
X50820347Y-57186283D01*
X50965001Y-57304999D01*
X51083717Y-57449653D01*
X51174449Y-57619401D01*
X51179760Y-57632224D01*
X51193374Y-57652598D01*
X51210702Y-57669925D01*
X51231076Y-57683539D01*
X51253716Y-57692916D01*
X51277749Y-57697696D01*
X51302253Y-57697696D01*
X51326287Y-57692915D01*
X51348926Y-57683538D01*
X51369300Y-57669924D01*
X51386627Y-57652596D01*
X51400241Y-57632222D01*
X51405553Y-57619397D01*
X51416547Y-57598828D01*
X51496282Y-57449655D01*
X51615000Y-57304999D01*
X51759654Y-57186283D01*
X51924692Y-57098068D01*
X52014231Y-57070907D01*
X52103769Y-57043746D01*
X52290000Y-57025404D01*
X52476232Y-57043746D01*
X52476232Y-57043746D01*
G37*
G36*
X89806707Y-54837597D02*
X89883836Y-54845193D01*
X90015787Y-54885220D01*
X90081763Y-54905233D01*
X90264172Y-55002733D01*
X90424054Y-55133946D01*
X90555267Y-55293828D01*
X90652767Y-55476237D01*
X90652767Y-55476238D01*
X90712807Y-55674164D01*
X90733080Y-55880000D01*
X90712807Y-56085836D01*
X90695048Y-56144379D01*
X90652767Y-56283763D01*
X90555267Y-56466172D01*
X90424054Y-56626054D01*
X90264172Y-56757267D01*
X90081763Y-56854767D01*
X90015787Y-56874780D01*
X89883836Y-56914807D01*
X89806707Y-56922403D01*
X89729580Y-56930000D01*
X89626420Y-56930000D01*
X89549293Y-56922403D01*
X89472164Y-56914807D01*
X89340213Y-56874780D01*
X89274237Y-56854767D01*
X89091828Y-56757267D01*
X88931946Y-56626054D01*
X88800733Y-56466172D01*
X88703233Y-56283763D01*
X88660952Y-56144379D01*
X88643193Y-56085836D01*
X88622920Y-55880000D01*
X88643193Y-55674164D01*
X88703233Y-55476238D01*
X88703233Y-55476237D01*
X88800733Y-55293828D01*
X88931946Y-55133946D01*
X89091828Y-55002733D01*
X89274237Y-54905233D01*
X89340213Y-54885220D01*
X89472164Y-54845193D01*
X89549293Y-54837597D01*
X89626420Y-54830000D01*
X89729580Y-54830000D01*
X89806707Y-54837597D01*
X89806707Y-54837597D01*
G37*
G36*
X69280852Y-54361627D02*
X69418505Y-54389008D01*
X69591394Y-54460621D01*
X69746990Y-54564587D01*
X69879313Y-54696910D01*
X69983279Y-54852506D01*
X70054892Y-55025395D01*
X70091400Y-55208933D01*
X70091400Y-55396067D01*
X70054892Y-55579605D01*
X69983279Y-55752494D01*
X69879313Y-55908090D01*
X69746990Y-56040413D01*
X69591394Y-56144379D01*
X69418505Y-56215992D01*
X69280852Y-56243373D01*
X69234968Y-56252500D01*
X69047832Y-56252500D01*
X69001948Y-56243373D01*
X68864295Y-56215992D01*
X68691406Y-56144379D01*
X68535810Y-56040413D01*
X68403487Y-55908090D01*
X68299521Y-55752494D01*
X68227908Y-55579605D01*
X68191400Y-55396067D01*
X68191400Y-55208933D01*
X68227908Y-55025395D01*
X68299521Y-54852506D01*
X68403487Y-54696910D01*
X68535810Y-54564587D01*
X68691406Y-54460621D01*
X68864295Y-54389008D01*
X69001948Y-54361627D01*
X69047832Y-54352500D01*
X69234968Y-54352500D01*
X69280852Y-54361627D01*
X69280852Y-54361627D01*
G37*
G36*
X83395632Y-53876487D02*
X83533285Y-53903868D01*
X83706174Y-53975481D01*
X83861770Y-54079447D01*
X83994093Y-54211770D01*
X84098059Y-54367366D01*
X84169672Y-54540255D01*
X84206180Y-54723793D01*
X84206180Y-54910927D01*
X84169672Y-55094465D01*
X84098059Y-55267354D01*
X83994093Y-55422950D01*
X83861770Y-55555273D01*
X83706174Y-55659239D01*
X83533285Y-55730852D01*
X83424483Y-55752494D01*
X83349748Y-55767360D01*
X83162612Y-55767360D01*
X83087877Y-55752494D01*
X82979075Y-55730852D01*
X82806186Y-55659239D01*
X82650590Y-55555273D01*
X82518267Y-55422950D01*
X82414301Y-55267354D01*
X82342688Y-55094465D01*
X82306180Y-54910927D01*
X82306180Y-54723793D01*
X82342688Y-54540255D01*
X82414301Y-54367366D01*
X82518267Y-54211770D01*
X82650590Y-54079447D01*
X82806186Y-53975481D01*
X82979075Y-53903868D01*
X83116728Y-53876487D01*
X83162612Y-53867360D01*
X83349748Y-53867360D01*
X83395632Y-53876487D01*
X83395632Y-53876487D01*
G37*
G36*
X57609451Y-52719127D02*
X57747105Y-52746508D01*
X57919994Y-52818121D01*
X58075590Y-52922087D01*
X58207913Y-53054410D01*
X58311879Y-53210006D01*
X58383492Y-53382895D01*
X58420000Y-53566433D01*
X58420000Y-53753567D01*
X58383492Y-53937105D01*
X58311879Y-54109994D01*
X58207913Y-54265590D01*
X58075590Y-54397913D01*
X57919994Y-54501879D01*
X57747105Y-54573492D01*
X57609452Y-54600873D01*
X57563568Y-54610000D01*
X57376432Y-54610000D01*
X57330548Y-54600873D01*
X57192895Y-54573492D01*
X57020006Y-54501879D01*
X56864410Y-54397913D01*
X56732087Y-54265590D01*
X56628121Y-54109994D01*
X56556508Y-53937105D01*
X56520000Y-53753567D01*
X56520000Y-53566433D01*
X56556508Y-53382895D01*
X56628121Y-53210006D01*
X56732087Y-53054410D01*
X56864410Y-52922087D01*
X57020006Y-52818121D01*
X57192895Y-52746508D01*
X57330548Y-52719127D01*
X57376432Y-52710000D01*
X57563568Y-52710000D01*
X57609451Y-52719127D01*
X57609451Y-52719127D01*
G37*
G36*
X89806707Y-52297597D02*
X89883836Y-52305193D01*
X90015787Y-52345220D01*
X90081763Y-52365233D01*
X90264172Y-52462733D01*
X90424054Y-52593946D01*
X90555267Y-52753828D01*
X90652767Y-52936237D01*
X90652767Y-52936238D01*
X90712807Y-53134164D01*
X90733080Y-53340000D01*
X90712807Y-53545836D01*
X90672780Y-53677787D01*
X90652767Y-53743763D01*
X90555267Y-53926172D01*
X90424054Y-54086054D01*
X90264172Y-54217267D01*
X90081763Y-54314767D01*
X90015787Y-54334780D01*
X89883836Y-54374807D01*
X89806707Y-54382404D01*
X89729580Y-54390000D01*
X89626420Y-54390000D01*
X89549293Y-54382404D01*
X89472164Y-54374807D01*
X89340213Y-54334780D01*
X89274237Y-54314767D01*
X89091828Y-54217267D01*
X88931946Y-54086054D01*
X88800733Y-53926172D01*
X88703233Y-53743763D01*
X88683220Y-53677787D01*
X88643193Y-53545836D01*
X88622920Y-53340000D01*
X88643193Y-53134164D01*
X88703233Y-52936238D01*
X88703233Y-52936237D01*
X88800733Y-52753828D01*
X88931946Y-52593946D01*
X89091828Y-52462733D01*
X89274237Y-52365233D01*
X89340213Y-52345220D01*
X89472164Y-52305193D01*
X89549293Y-52297596D01*
X89626420Y-52290000D01*
X89729580Y-52290000D01*
X89806707Y-52297597D01*
X89806707Y-52297597D01*
G37*
G36*
X89806707Y-49757597D02*
X89883836Y-49765193D01*
X90015787Y-49805220D01*
X90081763Y-49825233D01*
X90264172Y-49922733D01*
X90424054Y-50053946D01*
X90555267Y-50213828D01*
X90652767Y-50396237D01*
X90652767Y-50396238D01*
X90712807Y-50594164D01*
X90733080Y-50800000D01*
X90712807Y-51005836D01*
X90672780Y-51137787D01*
X90652767Y-51203763D01*
X90555267Y-51386172D01*
X90424054Y-51546054D01*
X90264172Y-51677267D01*
X90081763Y-51774767D01*
X90015787Y-51794780D01*
X89883836Y-51834807D01*
X89806707Y-51842403D01*
X89729580Y-51850000D01*
X89626420Y-51850000D01*
X89549293Y-51842403D01*
X89472164Y-51834807D01*
X89340213Y-51794780D01*
X89274237Y-51774767D01*
X89091828Y-51677267D01*
X88931946Y-51546054D01*
X88800733Y-51386172D01*
X88703233Y-51203763D01*
X88683220Y-51137787D01*
X88643193Y-51005836D01*
X88622920Y-50800000D01*
X88643193Y-50594164D01*
X88703233Y-50396238D01*
X88703233Y-50396237D01*
X88800733Y-50213828D01*
X88931946Y-50053946D01*
X89091828Y-49922733D01*
X89274237Y-49825233D01*
X89340213Y-49805220D01*
X89472164Y-49765193D01*
X89549293Y-49757597D01*
X89626420Y-49750000D01*
X89729580Y-49750000D01*
X89806707Y-49757597D01*
X89806707Y-49757597D01*
G37*
G36*
X90728000Y-49310000D02*
X88628000Y-49310000D01*
X88628000Y-47210000D01*
X90728000Y-47210000D01*
X90728000Y-49310000D01*
X90728000Y-49310000D01*
G37*
G36*
X84828247Y-47061108D02*
X84986105Y-47092508D01*
X85158994Y-47164121D01*
X85314590Y-47268087D01*
X85446913Y-47400410D01*
X85550879Y-47556006D01*
X85622492Y-47728895D01*
X85659000Y-47912433D01*
X85659000Y-48099567D01*
X85622492Y-48283105D01*
X85550879Y-48455994D01*
X85446913Y-48611590D01*
X85314590Y-48743913D01*
X85158994Y-48847879D01*
X84986105Y-48919492D01*
X84848451Y-48946873D01*
X84802568Y-48956000D01*
X84615432Y-48956000D01*
X84569549Y-48946873D01*
X84431895Y-48919492D01*
X84259006Y-48847879D01*
X84103410Y-48743913D01*
X83971087Y-48611590D01*
X83867121Y-48455994D01*
X83795508Y-48283105D01*
X83759000Y-48099567D01*
X83759000Y-47912433D01*
X83795508Y-47728895D01*
X83867121Y-47556006D01*
X83971087Y-47400410D01*
X84103410Y-47268087D01*
X84259006Y-47164121D01*
X84431895Y-47092508D01*
X84589753Y-47061108D01*
X84615432Y-47056000D01*
X84802568Y-47056000D01*
X84828247Y-47061108D01*
X84828247Y-47061108D01*
G37*
G36*
X81536351Y-47033727D02*
X81674005Y-47061108D01*
X81846894Y-47132721D01*
X82002490Y-47236687D01*
X82134813Y-47369010D01*
X82238779Y-47524606D01*
X82310392Y-47697495D01*
X82346900Y-47881033D01*
X82346900Y-48068167D01*
X82310392Y-48251705D01*
X82238779Y-48424594D01*
X82134813Y-48580190D01*
X82002490Y-48712513D01*
X81846894Y-48816479D01*
X81674005Y-48888092D01*
X81536351Y-48915473D01*
X81490468Y-48924600D01*
X81303332Y-48924600D01*
X81257448Y-48915473D01*
X81119795Y-48888092D01*
X80946906Y-48816479D01*
X80791310Y-48712513D01*
X80658987Y-48580190D01*
X80555021Y-48424594D01*
X80483408Y-48251705D01*
X80446900Y-48068167D01*
X80446900Y-47881033D01*
X80483408Y-47697495D01*
X80555021Y-47524606D01*
X80658987Y-47369010D01*
X80791310Y-47236687D01*
X80946906Y-47132721D01*
X81119795Y-47061108D01*
X81257449Y-47033727D01*
X81303332Y-47024600D01*
X81490468Y-47024600D01*
X81536351Y-47033727D01*
X81536351Y-47033727D01*
G37*
M02*
