G04 #@! TF.GenerationSoftware,KiCad,Pcbnew,5.0.2-bee76a0~70~ubuntu16.04.1*
G04 #@! TF.CreationDate,2020-11-05T00:34:30+01:00*
G04 #@! TF.ProjectId,WiRoc_NanoPi_v1,5769526f-635f-44e6-916e-6f50695f7631,rev?*
G04 #@! TF.SameCoordinates,Original*
G04 #@! TF.FileFunction,Legend,Top*
G04 #@! TF.FilePolarity,Positive*
%FSLAX46Y46*%
G04 Gerber Fmt 4.6, Leading zero omitted, Abs format (unit mm)*
G04 Created by KiCad (PCBNEW 5.0.2-bee76a0~70~ubuntu16.04.1) date tor  5 nov 2020 00:34:30*
%MOMM*%
%LPD*%
G01*
G04 APERTURE LIST*
%ADD10C,0.200000*%
%ADD11C,0.300000*%
%ADD12C,0.150000*%
%ADD13C,0.120000*%
G04 APERTURE END LIST*
D10*
X58945057Y-50890780D02*
X58611723Y-50414590D01*
X58373628Y-50890780D02*
X58373628Y-49890780D01*
X58754580Y-49890780D01*
X58849819Y-49938400D01*
X58897438Y-49986019D01*
X58945057Y-50081257D01*
X58945057Y-50224114D01*
X58897438Y-50319352D01*
X58849819Y-50366971D01*
X58754580Y-50414590D01*
X58373628Y-50414590D01*
X59754580Y-50843161D02*
X59659342Y-50890780D01*
X59468866Y-50890780D01*
X59373628Y-50843161D01*
X59326009Y-50747923D01*
X59326009Y-50366971D01*
X59373628Y-50271733D01*
X59468866Y-50224114D01*
X59659342Y-50224114D01*
X59754580Y-50271733D01*
X59802200Y-50366971D01*
X59802200Y-50462209D01*
X59326009Y-50557447D01*
X60135533Y-50224114D02*
X60373628Y-50890780D01*
X60611723Y-50224114D01*
X62278390Y-50890780D02*
X61706961Y-50890780D01*
X61992676Y-50890780D02*
X61992676Y-49890780D01*
X61897438Y-50033638D01*
X61802200Y-50128876D01*
X61706961Y-50176495D01*
D11*
X54181342Y-49552457D02*
X53895628Y-49552457D01*
X53895628Y-47838171D01*
X54181342Y-47838171D01*
X54524200Y-47952457D02*
X54809914Y-49152457D01*
X55038485Y-48295314D01*
X55267057Y-49152457D01*
X55552771Y-47952457D01*
X56009914Y-49152457D02*
X56009914Y-48352457D01*
X56009914Y-47952457D02*
X55952771Y-48009600D01*
X56009914Y-48066742D01*
X56067057Y-48009600D01*
X56009914Y-47952457D01*
X56009914Y-48066742D01*
X57267057Y-49152457D02*
X56867057Y-48581028D01*
X56581342Y-49152457D02*
X56581342Y-47952457D01*
X57038485Y-47952457D01*
X57152771Y-48009600D01*
X57209914Y-48066742D01*
X57267057Y-48181028D01*
X57267057Y-48352457D01*
X57209914Y-48466742D01*
X57152771Y-48523885D01*
X57038485Y-48581028D01*
X56581342Y-48581028D01*
X57952771Y-49152457D02*
X57838485Y-49095314D01*
X57781342Y-49038171D01*
X57724200Y-48923885D01*
X57724200Y-48581028D01*
X57781342Y-48466742D01*
X57838485Y-48409600D01*
X57952771Y-48352457D01*
X58124200Y-48352457D01*
X58238485Y-48409600D01*
X58295628Y-48466742D01*
X58352771Y-48581028D01*
X58352771Y-48923885D01*
X58295628Y-49038171D01*
X58238485Y-49095314D01*
X58124200Y-49152457D01*
X57952771Y-49152457D01*
X59381342Y-49095314D02*
X59267057Y-49152457D01*
X59038485Y-49152457D01*
X58924200Y-49095314D01*
X58867057Y-49038171D01*
X58809914Y-48923885D01*
X58809914Y-48581028D01*
X58867057Y-48466742D01*
X58924200Y-48409600D01*
X59038485Y-48352457D01*
X59267057Y-48352457D01*
X59381342Y-48409600D01*
X60638485Y-47952457D02*
X61038485Y-49152457D01*
X61438485Y-47952457D01*
X62352771Y-48352457D02*
X62352771Y-49152457D01*
X62067057Y-47895314D02*
X61781342Y-48752457D01*
X62524200Y-48752457D01*
X62867057Y-49552457D02*
X63152771Y-49552457D01*
X63152771Y-47838171D01*
X62867057Y-47838171D01*
D12*
G04 #@! TO.C,D1*
X93760934Y-62545580D02*
G75*
G03X93760934Y-62545580I-158114J0D01*
G01*
X92252820Y-60595580D02*
X92702820Y-60595580D01*
X91652820Y-60595580D02*
X91252820Y-60595580D01*
X91702820Y-60445580D02*
X91702820Y-60745580D01*
X92252820Y-60295580D02*
X92252820Y-60895580D01*
X91852820Y-60595580D02*
X92252820Y-60895580D01*
X92252820Y-60295580D02*
X91852820Y-60595580D01*
X91802820Y-61795580D02*
X91802820Y-62195580D01*
X92152820Y-62145580D02*
X91952820Y-61995580D01*
X92152820Y-61845580D02*
X92152820Y-62145580D01*
X91952820Y-61995580D02*
X92152820Y-61845580D01*
D13*
G04 #@! TO.C,J7*
X87290000Y-79535000D02*
X89890000Y-79535000D01*
X87290000Y-107535000D02*
X92490000Y-107535000D01*
X87290000Y-76935000D02*
X88620000Y-76935000D01*
X92490000Y-76935000D02*
X92490000Y-107535000D01*
X87290000Y-78265000D02*
X87290000Y-76935000D01*
X89890000Y-79535000D02*
X89890000Y-76935000D01*
X87290000Y-79535000D02*
X87290000Y-107535000D01*
X89890000Y-76935000D02*
X92490000Y-76935000D01*
X52280000Y-107535000D02*
X57480000Y-107535000D01*
X52280000Y-76935000D02*
X53610000Y-76935000D01*
X52280000Y-78265000D02*
X52280000Y-76935000D01*
X52280000Y-79535000D02*
X54940000Y-79535000D01*
X54956200Y-79535000D02*
X54956200Y-87115000D01*
X52280000Y-79535000D02*
X52280000Y-107535000D01*
X54950000Y-87115000D02*
X57400000Y-87115000D01*
X57480000Y-87115000D02*
X57480000Y-107535000D01*
D12*
G04 #@! TO.C,U1*
X59350000Y-58135200D02*
X59350000Y-73135200D01*
X83650000Y-58135200D02*
X59350000Y-58135200D01*
X83650000Y-73135200D02*
X83650000Y-58135200D01*
X59350000Y-73135200D02*
X83650000Y-73135200D01*
D13*
G04 #@! TO.C,U2*
X88348000Y-46930000D02*
X89678000Y-46930000D01*
X88348000Y-48260000D02*
X88348000Y-46930000D01*
X91008000Y-49530000D02*
X88348000Y-49530000D01*
X91008000Y-57210000D02*
X91008000Y-49530000D01*
X88348000Y-57210000D02*
X91008000Y-57210000D01*
X88348000Y-49530000D02*
X88348000Y-57210000D01*
D12*
X87392000Y-57531000D02*
X53356000Y-57531000D01*
X87392000Y-46482000D02*
X87392000Y-57531000D01*
X53356000Y-46482000D02*
X53356000Y-57531000D01*
X87392000Y-46482000D02*
X53356000Y-46482000D01*
D13*
G04 #@! TO.C,J6*
X95096700Y-106200600D02*
X93766700Y-106200600D01*
X95096700Y-104870600D02*
X95096700Y-106200600D01*
X95096700Y-103600600D02*
X92436700Y-103600600D01*
X92436700Y-103600600D02*
X92436700Y-98460600D01*
X95096700Y-103600600D02*
X95096700Y-98460600D01*
X95096700Y-98460600D02*
X92436700Y-98460600D01*
D12*
G04 #@! TO.C,U3*
X70798600Y-85305200D02*
X70798600Y-85855200D01*
X77148600Y-85305200D02*
X77148600Y-85855200D01*
X77148600Y-91655200D02*
X77148600Y-91105200D01*
X70798600Y-91655200D02*
X70798600Y-91105200D01*
X77148600Y-91655200D02*
X76598600Y-91655200D01*
X77148600Y-85305200D02*
X76598600Y-85305200D01*
X70798600Y-85305200D02*
X71348600Y-85305200D01*
X70798600Y-91655200D02*
X71348600Y-91655200D01*
D13*
G04 #@! TO.C,U4*
X74458086Y-52682546D02*
X74458086Y-54482546D01*
X77678086Y-54482546D02*
X77678086Y-52032546D01*
G04 #@! TO.C,U5*
X67121200Y-54891200D02*
X68921200Y-54891200D01*
X68921200Y-51671200D02*
X66471200Y-51671200D01*
D12*
G04 #@! TO.C,L1*
X68814500Y-92320600D02*
X64814500Y-92320600D01*
X68814500Y-96520600D02*
X64814500Y-96520600D01*
G04 #@! TO.C,L2*
X79055600Y-56210300D02*
X79055600Y-52210300D01*
X83255600Y-56210300D02*
X83255600Y-52210300D01*
D13*
G04 #@! TO.C,C4*
X71981079Y-83754600D02*
X71655521Y-83754600D01*
X71981079Y-82734600D02*
X71655521Y-82734600D01*
G04 #@! TO.C,C5*
X74484000Y-78087779D02*
X74484000Y-77762221D01*
X73464000Y-78087779D02*
X73464000Y-77762221D01*
G04 #@! TO.C,C6*
X79387221Y-84674000D02*
X79712779Y-84674000D01*
X79387221Y-83654000D02*
X79712779Y-83654000D01*
G04 #@! TO.C,C7*
X55320000Y-109782779D02*
X55320000Y-109457221D01*
X56340000Y-109782779D02*
X56340000Y-109457221D01*
G04 #@! TO.C,C8*
X67423121Y-88995620D02*
X67748679Y-88995620D01*
X67423121Y-90015620D02*
X67748679Y-90015620D01*
G04 #@! TO.C,C9*
X65848000Y-86881581D02*
X65848000Y-87207139D01*
X64828000Y-86881581D02*
X64828000Y-87207139D01*
G04 #@! TO.C,C10*
X68006300Y-82535721D02*
X68006300Y-82861279D01*
X69026300Y-82535721D02*
X69026300Y-82861279D01*
G04 #@! TO.C,C11*
X66247539Y-90440880D02*
X65921981Y-90440880D01*
X66247539Y-91460880D02*
X65921981Y-91460880D01*
G04 #@! TO.C,C12*
X72188799Y-53764260D02*
X71863241Y-53764260D01*
X72188799Y-54784260D02*
X71863241Y-54784260D01*
G04 #@! TO.C,C13*
X73636600Y-49930721D02*
X73636600Y-50256279D01*
X72616600Y-49930721D02*
X72616600Y-50256279D01*
G04 #@! TO.C,C14*
X64059079Y-52866100D02*
X63733521Y-52866100D01*
X64059079Y-51846100D02*
X63733521Y-51846100D01*
G04 #@! TO.C,D3*
X76824520Y-48918160D02*
X76824520Y-50918160D01*
X76824520Y-50918160D02*
X80724520Y-50918160D01*
X76824520Y-48918160D02*
X80724520Y-48918160D01*
G04 #@! TO.C,R1*
X75109600Y-94494479D02*
X75109600Y-94168921D01*
X74089600Y-94494479D02*
X74089600Y-94168921D01*
G04 #@! TO.C,R2*
X79651879Y-86840700D02*
X79326321Y-86840700D01*
X79651879Y-85820700D02*
X79326321Y-85820700D01*
G04 #@! TO.C,R3*
X73470100Y-94506479D02*
X73470100Y-94180921D01*
X72450100Y-94506479D02*
X72450100Y-94180921D01*
G04 #@! TO.C,R4*
X53169721Y-109430000D02*
X53495279Y-109430000D01*
X53169721Y-108410000D02*
X53495279Y-108410000D01*
G04 #@! TO.C,R5*
X66814940Y-87147998D02*
X66814940Y-86630842D01*
X68234940Y-87147998D02*
X68234940Y-86630842D01*
G04 #@! TO.C,R7*
X75592400Y-50281679D02*
X75592400Y-49956121D01*
X74572400Y-50281679D02*
X74572400Y-49956121D01*
G04 #@! TO.C,R8*
X72129941Y-51948160D02*
X72455499Y-51948160D01*
X72129941Y-52968160D02*
X72455499Y-52968160D01*
G04 #@! TO.C,R9*
X63771621Y-53509800D02*
X64097179Y-53509800D01*
X63771621Y-54529800D02*
X64097179Y-54529800D01*
G04 #@! TO.C,R10*
X67568921Y-55237000D02*
X67894479Y-55237000D01*
X67568921Y-56257000D02*
X67894479Y-56257000D01*
G04 #@! TO.C,R11*
X92852779Y-67980000D02*
X92527221Y-67980000D01*
X92852779Y-66960000D02*
X92527221Y-66960000D01*
G04 #@! TO.C,R12*
X93112779Y-76280000D02*
X92787221Y-76280000D01*
X93112779Y-75260000D02*
X92787221Y-75260000D01*
G04 #@! TO.C,R13*
X92130039Y-60253400D02*
X91804481Y-60253400D01*
X92130039Y-59233400D02*
X91804481Y-59233400D01*
G04 #@! TO.C,R14*
X92170679Y-65311620D02*
X91845121Y-65311620D01*
X92170679Y-66331620D02*
X91845121Y-66331620D01*
G04 #@! TO.C,C15*
X62621136Y-55023600D02*
X63825264Y-55023600D01*
X62621136Y-57743600D02*
X63825264Y-57743600D01*
G04 #@! TO.C,C1*
X79504821Y-87852700D02*
X79830379Y-87852700D01*
X79504821Y-88872700D02*
X79830379Y-88872700D01*
G04 #@! TO.C,C2*
X76177221Y-81490000D02*
X76502779Y-81490000D01*
X76177221Y-80470000D02*
X76502779Y-80470000D01*
G04 #@! TO.C,C3*
X64732560Y-83008359D02*
X64732560Y-82682801D01*
X65752560Y-83008359D02*
X65752560Y-82682801D01*
G04 #@! TO.C,C16*
X87162779Y-76050000D02*
X86837221Y-76050000D01*
X87162779Y-75030000D02*
X86837221Y-75030000D01*
G04 #@! TO.C,C17*
X93470000Y-69997936D02*
X93470000Y-71202064D01*
X90750000Y-69997936D02*
X90750000Y-71202064D01*
G04 #@! TO.C,C18*
X86950000Y-70267221D02*
X86950000Y-70592779D01*
X85930000Y-70267221D02*
X85930000Y-70592779D01*
G04 #@! TO.C,R6*
X92160519Y-64609500D02*
X91834961Y-64609500D01*
X92160519Y-63589500D02*
X91834961Y-63589500D01*
G04 #@! TO.C,D1*
D12*
X94712380Y-62058095D02*
X93712380Y-62058095D01*
X93712380Y-61820000D01*
X93760000Y-61677142D01*
X93855238Y-61581904D01*
X93950476Y-61534285D01*
X94140952Y-61486666D01*
X94283809Y-61486666D01*
X94474285Y-61534285D01*
X94569523Y-61581904D01*
X94664761Y-61677142D01*
X94712380Y-61820000D01*
X94712380Y-62058095D01*
X94712380Y-60534285D02*
X94712380Y-61105714D01*
X94712380Y-60820000D02*
X93712380Y-60820000D01*
X93855238Y-60915238D01*
X93950476Y-61010476D01*
X93998095Y-61105714D01*
G04 #@! TO.C,J7*
X69048666Y-74166380D02*
X69048666Y-74880666D01*
X69001047Y-75023523D01*
X68905809Y-75118761D01*
X68762952Y-75166380D01*
X68667714Y-75166380D01*
X69429619Y-74166380D02*
X70096285Y-74166380D01*
X69667714Y-75166380D01*
G04 #@! TO.C,U1*
X74570895Y-64052180D02*
X74570895Y-64861704D01*
X74618514Y-64956942D01*
X74666133Y-65004561D01*
X74761371Y-65052180D01*
X74951847Y-65052180D01*
X75047085Y-65004561D01*
X75094704Y-64956942D01*
X75142323Y-64861704D01*
X75142323Y-64052180D01*
X76142323Y-65052180D02*
X75570895Y-65052180D01*
X75856609Y-65052180D02*
X75856609Y-64052180D01*
X75761371Y-64195038D01*
X75666133Y-64290276D01*
X75570895Y-64337895D01*
G04 #@! TO.C,U2*
X86683495Y-51973580D02*
X86683495Y-52783104D01*
X86731114Y-52878342D01*
X86778733Y-52925961D01*
X86873971Y-52973580D01*
X87064447Y-52973580D01*
X87159685Y-52925961D01*
X87207304Y-52878342D01*
X87254923Y-52783104D01*
X87254923Y-51973580D01*
X87683495Y-52068819D02*
X87731114Y-52021200D01*
X87826352Y-51973580D01*
X88064447Y-51973580D01*
X88159685Y-52021200D01*
X88207304Y-52068819D01*
X88254923Y-52164057D01*
X88254923Y-52259295D01*
X88207304Y-52402152D01*
X87635876Y-52973580D01*
X88254923Y-52973580D01*
G04 #@! TO.C,J6*
X91147366Y-103205380D02*
X91147366Y-103919666D01*
X91099747Y-104062523D01*
X91004509Y-104157761D01*
X90861652Y-104205380D01*
X90766414Y-104205380D01*
X92052128Y-103205380D02*
X91861652Y-103205380D01*
X91766414Y-103253000D01*
X91718795Y-103300619D01*
X91623557Y-103443476D01*
X91575938Y-103633952D01*
X91575938Y-104014904D01*
X91623557Y-104110142D01*
X91671176Y-104157761D01*
X91766414Y-104205380D01*
X91956890Y-104205380D01*
X92052128Y-104157761D01*
X92099747Y-104110142D01*
X92147366Y-104014904D01*
X92147366Y-103776809D01*
X92099747Y-103681571D01*
X92052128Y-103633952D01*
X91956890Y-103586333D01*
X91766414Y-103586333D01*
X91671176Y-103633952D01*
X91623557Y-103681571D01*
X91575938Y-103776809D01*
G04 #@! TO.C,J2*
X54593180Y-58465133D02*
X55307466Y-58465133D01*
X55450323Y-58512752D01*
X55545561Y-58607990D01*
X55593180Y-58750847D01*
X55593180Y-58846085D01*
X54688419Y-58036561D02*
X54640800Y-57988942D01*
X54593180Y-57893704D01*
X54593180Y-57655609D01*
X54640800Y-57560371D01*
X54688419Y-57512752D01*
X54783657Y-57465133D01*
X54878895Y-57465133D01*
X55021752Y-57512752D01*
X55593180Y-58084180D01*
X55593180Y-57465133D01*
X53534304Y-60582885D02*
X53534304Y-60963838D01*
X53915257Y-61001933D01*
X53877161Y-60963838D01*
X53839066Y-60887647D01*
X53839066Y-60697171D01*
X53877161Y-60620980D01*
X53915257Y-60582885D01*
X53991447Y-60544790D01*
X54181923Y-60544790D01*
X54258114Y-60582885D01*
X54296209Y-60620980D01*
X54334304Y-60697171D01*
X54334304Y-60887647D01*
X54296209Y-60963838D01*
X54258114Y-61001933D01*
X53800971Y-60278123D02*
X54334304Y-60087647D01*
X53800971Y-59897171D01*
X49692938Y-56675004D02*
X49692938Y-55875004D01*
X49883414Y-55875004D01*
X49997700Y-55913100D01*
X50073890Y-55989290D01*
X50111985Y-56065480D01*
X50150080Y-56217861D01*
X50150080Y-56332147D01*
X50111985Y-56484528D01*
X50073890Y-56560719D01*
X49997700Y-56636909D01*
X49883414Y-56675004D01*
X49692938Y-56675004D01*
X50492938Y-56370242D02*
X51102461Y-56370242D01*
X53541000Y-58662523D02*
X53502904Y-58738714D01*
X53502904Y-58853000D01*
X53541000Y-58967285D01*
X53617190Y-59043476D01*
X53693380Y-59081571D01*
X53845761Y-59119666D01*
X53960047Y-59119666D01*
X54112428Y-59081571D01*
X54188619Y-59043476D01*
X54264809Y-58967285D01*
X54302904Y-58853000D01*
X54302904Y-58776809D01*
X54264809Y-58662523D01*
X54226714Y-58624428D01*
X53960047Y-58624428D01*
X53960047Y-58776809D01*
X54302904Y-58281571D02*
X53502904Y-58281571D01*
X54302904Y-57824428D01*
X53502904Y-57824428D01*
X54302904Y-57443476D02*
X53502904Y-57443476D01*
X53502904Y-57253000D01*
X53541000Y-57138714D01*
X53617190Y-57062523D01*
X53693380Y-57024428D01*
X53845761Y-56986333D01*
X53960047Y-56986333D01*
X54112428Y-57024428D01*
X54188619Y-57062523D01*
X54264809Y-57138714D01*
X54302904Y-57253000D01*
X54302904Y-57443476D01*
X49705638Y-63075804D02*
X49705638Y-62275804D01*
X49896114Y-62275804D01*
X50010400Y-62313900D01*
X50086590Y-62390090D01*
X50124685Y-62466280D01*
X50162780Y-62618661D01*
X50162780Y-62732947D01*
X50124685Y-62885328D01*
X50086590Y-62961519D01*
X50010400Y-63037709D01*
X49896114Y-63075804D01*
X49705638Y-63075804D01*
X50505638Y-62771042D02*
X51115161Y-62771042D01*
X50810400Y-63075804D02*
X50810400Y-62466280D01*
G04 #@! TO.C,J8*
X49759680Y-90992633D02*
X50473966Y-90992633D01*
X50616823Y-91040252D01*
X50712061Y-91135490D01*
X50759680Y-91278347D01*
X50759680Y-91373585D01*
X50188252Y-90373585D02*
X50140633Y-90468823D01*
X50093014Y-90516442D01*
X49997776Y-90564061D01*
X49950157Y-90564061D01*
X49854919Y-90516442D01*
X49807300Y-90468823D01*
X49759680Y-90373585D01*
X49759680Y-90183109D01*
X49807300Y-90087871D01*
X49854919Y-90040252D01*
X49950157Y-89992633D01*
X49997776Y-89992633D01*
X50093014Y-90040252D01*
X50140633Y-90087871D01*
X50188252Y-90183109D01*
X50188252Y-90373585D01*
X50235871Y-90468823D01*
X50283490Y-90516442D01*
X50378728Y-90564061D01*
X50569204Y-90564061D01*
X50664442Y-90516442D01*
X50712061Y-90468823D01*
X50759680Y-90373585D01*
X50759680Y-90183109D01*
X50712061Y-90087871D01*
X50664442Y-90040252D01*
X50569204Y-89992633D01*
X50378728Y-89992633D01*
X50283490Y-90040252D01*
X50235871Y-90087871D01*
X50188252Y-90183109D01*
X48408704Y-90735485D02*
X48408704Y-91116438D01*
X48789657Y-91154533D01*
X48751561Y-91116438D01*
X48713466Y-91040247D01*
X48713466Y-90849771D01*
X48751561Y-90773580D01*
X48789657Y-90735485D01*
X48865847Y-90697390D01*
X49056323Y-90697390D01*
X49132514Y-90735485D01*
X49170609Y-90773580D01*
X49208704Y-90849771D01*
X49208704Y-91040247D01*
X49170609Y-91116438D01*
X49132514Y-91154533D01*
X48675371Y-90430723D02*
X49208704Y-90240247D01*
X48675371Y-90049771D01*
X50995238Y-90643204D02*
X50995238Y-89843204D01*
X51185714Y-89843204D01*
X51300000Y-89881300D01*
X51376190Y-89957490D01*
X51414285Y-90033680D01*
X51452380Y-90186061D01*
X51452380Y-90300347D01*
X51414285Y-90452728D01*
X51376190Y-90528919D01*
X51300000Y-90605109D01*
X51185714Y-90643204D01*
X50995238Y-90643204D01*
X51795238Y-90338442D02*
X52404761Y-90338442D01*
X48542076Y-84290300D02*
X48465885Y-84252204D01*
X48351600Y-84252204D01*
X48237314Y-84290300D01*
X48161123Y-84366490D01*
X48123028Y-84442680D01*
X48084933Y-84595061D01*
X48084933Y-84709347D01*
X48123028Y-84861728D01*
X48161123Y-84937919D01*
X48237314Y-85014109D01*
X48351600Y-85052204D01*
X48427790Y-85052204D01*
X48542076Y-85014109D01*
X48580171Y-84976014D01*
X48580171Y-84709347D01*
X48427790Y-84709347D01*
X48923028Y-85052204D02*
X48923028Y-84252204D01*
X49380171Y-85052204D01*
X49380171Y-84252204D01*
X49761123Y-85052204D02*
X49761123Y-84252204D01*
X49951600Y-84252204D01*
X50065885Y-84290300D01*
X50142076Y-84366490D01*
X50180171Y-84442680D01*
X50218266Y-84595061D01*
X50218266Y-84709347D01*
X50180171Y-84861728D01*
X50142076Y-84937919D01*
X50065885Y-85014109D01*
X49951600Y-85052204D01*
X49761123Y-85052204D01*
X50995238Y-85343204D02*
X50995238Y-84543204D01*
X51185714Y-84543204D01*
X51300000Y-84581300D01*
X51376190Y-84657490D01*
X51414285Y-84733680D01*
X51452380Y-84886061D01*
X51452380Y-85000347D01*
X51414285Y-85152728D01*
X51376190Y-85228919D01*
X51300000Y-85305109D01*
X51185714Y-85343204D01*
X50995238Y-85343204D01*
X51795238Y-85038442D02*
X52404761Y-85038442D01*
X52100000Y-85343204D02*
X52100000Y-84733680D01*
G04 #@! TO.C,J4*
X50813780Y-78572033D02*
X51528066Y-78572033D01*
X51670923Y-78619652D01*
X51766161Y-78714890D01*
X51813780Y-78857747D01*
X51813780Y-78952985D01*
X51147114Y-77667271D02*
X51813780Y-77667271D01*
X50766161Y-77905366D02*
X51480447Y-78143461D01*
X51480447Y-77524414D01*
X48884914Y-78232404D02*
X48503961Y-78232404D01*
X48465866Y-78613357D01*
X48503961Y-78575261D01*
X48580152Y-78537166D01*
X48770628Y-78537166D01*
X48846819Y-78575261D01*
X48884914Y-78613357D01*
X48923009Y-78689547D01*
X48923009Y-78880023D01*
X48884914Y-78956214D01*
X48846819Y-78994309D01*
X48770628Y-79032404D01*
X48580152Y-79032404D01*
X48503961Y-78994309D01*
X48465866Y-78956214D01*
X49189676Y-78499071D02*
X49380152Y-79032404D01*
X49570628Y-78499071D01*
X52863238Y-84150504D02*
X52863238Y-83350504D01*
X53053714Y-83350504D01*
X53168000Y-83388600D01*
X53244190Y-83464790D01*
X53282285Y-83540980D01*
X53320380Y-83693361D01*
X53320380Y-83807647D01*
X53282285Y-83960028D01*
X53244190Y-84036219D01*
X53168000Y-84112409D01*
X53053714Y-84150504D01*
X52863238Y-84150504D01*
X53663238Y-83845742D02*
X54272761Y-83845742D01*
X48529376Y-84303000D02*
X48453185Y-84264904D01*
X48338900Y-84264904D01*
X48224614Y-84303000D01*
X48148423Y-84379190D01*
X48110328Y-84455380D01*
X48072233Y-84607761D01*
X48072233Y-84722047D01*
X48110328Y-84874428D01*
X48148423Y-84950619D01*
X48224614Y-85026809D01*
X48338900Y-85064904D01*
X48415090Y-85064904D01*
X48529376Y-85026809D01*
X48567471Y-84988714D01*
X48567471Y-84722047D01*
X48415090Y-84722047D01*
X48910328Y-85064904D02*
X48910328Y-84264904D01*
X49367471Y-85064904D01*
X49367471Y-84264904D01*
X49748423Y-85064904D02*
X49748423Y-84264904D01*
X49938900Y-84264904D01*
X50053185Y-84303000D01*
X50129376Y-84379190D01*
X50167471Y-84455380D01*
X50205566Y-84607761D01*
X50205566Y-84722047D01*
X50167471Y-84874428D01*
X50129376Y-84950619D01*
X50053185Y-85026809D01*
X49938900Y-85064904D01*
X49748423Y-85064904D01*
X52990238Y-80848504D02*
X52990238Y-80048504D01*
X53180714Y-80048504D01*
X53295000Y-80086600D01*
X53371190Y-80162790D01*
X53409285Y-80238980D01*
X53447380Y-80391361D01*
X53447380Y-80505647D01*
X53409285Y-80658028D01*
X53371190Y-80734219D01*
X53295000Y-80810409D01*
X53180714Y-80848504D01*
X52990238Y-80848504D01*
X53790238Y-80543742D02*
X54399761Y-80543742D01*
X54095000Y-80848504D02*
X54095000Y-80238980D01*
G04 #@! TO.C,U3*
X77490380Y-93053904D02*
X78299904Y-93053904D01*
X78395142Y-93006285D01*
X78442761Y-92958666D01*
X78490380Y-92863428D01*
X78490380Y-92672952D01*
X78442761Y-92577714D01*
X78395142Y-92530095D01*
X78299904Y-92482476D01*
X77490380Y-92482476D01*
X77490380Y-92101523D02*
X77490380Y-91482476D01*
X77871333Y-91815809D01*
X77871333Y-91672952D01*
X77918952Y-91577714D01*
X77966571Y-91530095D01*
X78061809Y-91482476D01*
X78299904Y-91482476D01*
X78395142Y-91530095D01*
X78442761Y-91577714D01*
X78490380Y-91672952D01*
X78490380Y-91958666D01*
X78442761Y-92053904D01*
X78395142Y-92101523D01*
G04 #@! TO.C,U7*
X71732295Y-109707780D02*
X71732295Y-110517304D01*
X71779914Y-110612542D01*
X71827533Y-110660161D01*
X71922771Y-110707780D01*
X72113247Y-110707780D01*
X72208485Y-110660161D01*
X72256104Y-110612542D01*
X72303723Y-110517304D01*
X72303723Y-109707780D01*
X72684676Y-109707780D02*
X73351342Y-109707780D01*
X72922771Y-110707780D01*
G04 #@! TO.C,U6*
X80830895Y-46995180D02*
X80830895Y-47804704D01*
X80878514Y-47899942D01*
X80926133Y-47947561D01*
X81021371Y-47995180D01*
X81211847Y-47995180D01*
X81307085Y-47947561D01*
X81354704Y-47899942D01*
X81402323Y-47804704D01*
X81402323Y-46995180D01*
X82307085Y-46995180D02*
X82116609Y-46995180D01*
X82021371Y-47042800D01*
X81973752Y-47090419D01*
X81878514Y-47233276D01*
X81830895Y-47423752D01*
X81830895Y-47804704D01*
X81878514Y-47899942D01*
X81926133Y-47947561D01*
X82021371Y-47995180D01*
X82211847Y-47995180D01*
X82307085Y-47947561D01*
X82354704Y-47899942D01*
X82402323Y-47804704D01*
X82402323Y-47566609D01*
X82354704Y-47471371D01*
X82307085Y-47423752D01*
X82211847Y-47376133D01*
X82021371Y-47376133D01*
X81926133Y-47423752D01*
X81878514Y-47471371D01*
X81830895Y-47566609D01*
G04 #@! TO.C,U4*
X75212095Y-55478780D02*
X75212095Y-56288304D01*
X75259714Y-56383542D01*
X75307333Y-56431161D01*
X75402571Y-56478780D01*
X75593047Y-56478780D01*
X75688285Y-56431161D01*
X75735904Y-56383542D01*
X75783523Y-56288304D01*
X75783523Y-55478780D01*
X76688285Y-55812114D02*
X76688285Y-56478780D01*
X76450190Y-55431161D02*
X76212095Y-56145447D01*
X76831142Y-56145447D01*
G04 #@! TO.C,U5*
X69217695Y-52786380D02*
X69217695Y-53595904D01*
X69265314Y-53691142D01*
X69312933Y-53738761D01*
X69408171Y-53786380D01*
X69598647Y-53786380D01*
X69693885Y-53738761D01*
X69741504Y-53691142D01*
X69789123Y-53595904D01*
X69789123Y-52786380D01*
X70741504Y-52786380D02*
X70265314Y-52786380D01*
X70217695Y-53262571D01*
X70265314Y-53214952D01*
X70360552Y-53167333D01*
X70598647Y-53167333D01*
X70693885Y-53214952D01*
X70741504Y-53262571D01*
X70789123Y-53357809D01*
X70789123Y-53595904D01*
X70741504Y-53691142D01*
X70693885Y-53738761D01*
X70598647Y-53786380D01*
X70360552Y-53786380D01*
X70265314Y-53738761D01*
X70217695Y-53691142D01*
G04 #@! TO.C,L1*
X64412780Y-95818266D02*
X64412780Y-96294457D01*
X63412780Y-96294457D01*
X64412780Y-94961123D02*
X64412780Y-95532552D01*
X64412780Y-95246838D02*
X63412780Y-95246838D01*
X63555638Y-95342076D01*
X63650876Y-95437314D01*
X63698495Y-95532552D01*
G04 #@! TO.C,L2*
X78791180Y-54624966D02*
X78791180Y-55101157D01*
X77791180Y-55101157D01*
X77886419Y-54339252D02*
X77838800Y-54291633D01*
X77791180Y-54196395D01*
X77791180Y-53958300D01*
X77838800Y-53863061D01*
X77886419Y-53815442D01*
X77981657Y-53767823D01*
X78076895Y-53767823D01*
X78219752Y-53815442D01*
X78791180Y-54386871D01*
X78791180Y-53767823D01*
G04 #@! TO.C,C4*
X72140742Y-81670466D02*
X72188361Y-81718085D01*
X72235980Y-81860942D01*
X72235980Y-81956180D01*
X72188361Y-82099038D01*
X72093123Y-82194276D01*
X71997885Y-82241895D01*
X71807409Y-82289514D01*
X71664552Y-82289514D01*
X71474076Y-82241895D01*
X71378838Y-82194276D01*
X71283600Y-82099038D01*
X71235980Y-81956180D01*
X71235980Y-81860942D01*
X71283600Y-81718085D01*
X71331219Y-81670466D01*
X71569314Y-80813323D02*
X72235980Y-80813323D01*
X71188361Y-81051419D02*
X71902647Y-81289514D01*
X71902647Y-80670466D01*
G04 #@! TO.C,C5*
X72901142Y-78091666D02*
X72948761Y-78139285D01*
X72996380Y-78282142D01*
X72996380Y-78377380D01*
X72948761Y-78520238D01*
X72853523Y-78615476D01*
X72758285Y-78663095D01*
X72567809Y-78710714D01*
X72424952Y-78710714D01*
X72234476Y-78663095D01*
X72139238Y-78615476D01*
X72044000Y-78520238D01*
X71996380Y-78377380D01*
X71996380Y-78282142D01*
X72044000Y-78139285D01*
X72091619Y-78091666D01*
X71996380Y-77186904D02*
X71996380Y-77663095D01*
X72472571Y-77710714D01*
X72424952Y-77663095D01*
X72377333Y-77567857D01*
X72377333Y-77329761D01*
X72424952Y-77234523D01*
X72472571Y-77186904D01*
X72567809Y-77139285D01*
X72805904Y-77139285D01*
X72901142Y-77186904D01*
X72948761Y-77234523D01*
X72996380Y-77329761D01*
X72996380Y-77567857D01*
X72948761Y-77663095D01*
X72901142Y-77710714D01*
G04 #@! TO.C,C6*
X81853133Y-84477142D02*
X81805514Y-84524761D01*
X81662657Y-84572380D01*
X81567419Y-84572380D01*
X81424561Y-84524761D01*
X81329323Y-84429523D01*
X81281704Y-84334285D01*
X81234085Y-84143809D01*
X81234085Y-84000952D01*
X81281704Y-83810476D01*
X81329323Y-83715238D01*
X81424561Y-83620000D01*
X81567419Y-83572380D01*
X81662657Y-83572380D01*
X81805514Y-83620000D01*
X81853133Y-83667619D01*
X82710276Y-83572380D02*
X82519800Y-83572380D01*
X82424561Y-83620000D01*
X82376942Y-83667619D01*
X82281704Y-83810476D01*
X82234085Y-84000952D01*
X82234085Y-84381904D01*
X82281704Y-84477142D01*
X82329323Y-84524761D01*
X82424561Y-84572380D01*
X82615038Y-84572380D01*
X82710276Y-84524761D01*
X82757895Y-84477142D01*
X82805514Y-84381904D01*
X82805514Y-84143809D01*
X82757895Y-84048571D01*
X82710276Y-84000952D01*
X82615038Y-83953333D01*
X82424561Y-83953333D01*
X82329323Y-84000952D01*
X82281704Y-84048571D01*
X82234085Y-84143809D01*
G04 #@! TO.C,C7*
X57713742Y-109786666D02*
X57761361Y-109834285D01*
X57808980Y-109977142D01*
X57808980Y-110072380D01*
X57761361Y-110215238D01*
X57666123Y-110310476D01*
X57570885Y-110358095D01*
X57380409Y-110405714D01*
X57237552Y-110405714D01*
X57047076Y-110358095D01*
X56951838Y-110310476D01*
X56856600Y-110215238D01*
X56808980Y-110072380D01*
X56808980Y-109977142D01*
X56856600Y-109834285D01*
X56904219Y-109786666D01*
X56808980Y-109453333D02*
X56808980Y-108786666D01*
X57808980Y-109215238D01*
G04 #@! TO.C,C8*
X64682733Y-89836542D02*
X64635114Y-89884161D01*
X64492257Y-89931780D01*
X64397019Y-89931780D01*
X64254161Y-89884161D01*
X64158923Y-89788923D01*
X64111304Y-89693685D01*
X64063685Y-89503209D01*
X64063685Y-89360352D01*
X64111304Y-89169876D01*
X64158923Y-89074638D01*
X64254161Y-88979400D01*
X64397019Y-88931780D01*
X64492257Y-88931780D01*
X64635114Y-88979400D01*
X64682733Y-89027019D01*
X65254161Y-89360352D02*
X65158923Y-89312733D01*
X65111304Y-89265114D01*
X65063685Y-89169876D01*
X65063685Y-89122257D01*
X65111304Y-89027019D01*
X65158923Y-88979400D01*
X65254161Y-88931780D01*
X65444638Y-88931780D01*
X65539876Y-88979400D01*
X65587495Y-89027019D01*
X65635114Y-89122257D01*
X65635114Y-89169876D01*
X65587495Y-89265114D01*
X65539876Y-89312733D01*
X65444638Y-89360352D01*
X65254161Y-89360352D01*
X65158923Y-89407971D01*
X65111304Y-89455590D01*
X65063685Y-89550828D01*
X65063685Y-89741304D01*
X65111304Y-89836542D01*
X65158923Y-89884161D01*
X65254161Y-89931780D01*
X65444638Y-89931780D01*
X65539876Y-89884161D01*
X65587495Y-89836542D01*
X65635114Y-89741304D01*
X65635114Y-89550828D01*
X65587495Y-89455590D01*
X65539876Y-89407971D01*
X65444638Y-89360352D01*
G04 #@! TO.C,C9*
X64243342Y-87218486D02*
X64290961Y-87266105D01*
X64338580Y-87408962D01*
X64338580Y-87504200D01*
X64290961Y-87647058D01*
X64195723Y-87742296D01*
X64100485Y-87789915D01*
X63910009Y-87837534D01*
X63767152Y-87837534D01*
X63576676Y-87789915D01*
X63481438Y-87742296D01*
X63386200Y-87647058D01*
X63338580Y-87504200D01*
X63338580Y-87408962D01*
X63386200Y-87266105D01*
X63433819Y-87218486D01*
X64338580Y-86742296D02*
X64338580Y-86551820D01*
X64290961Y-86456581D01*
X64243342Y-86408962D01*
X64100485Y-86313724D01*
X63910009Y-86266105D01*
X63529057Y-86266105D01*
X63433819Y-86313724D01*
X63386200Y-86361343D01*
X63338580Y-86456581D01*
X63338580Y-86647058D01*
X63386200Y-86742296D01*
X63433819Y-86789915D01*
X63529057Y-86837534D01*
X63767152Y-86837534D01*
X63862390Y-86789915D01*
X63910009Y-86742296D01*
X63957628Y-86647058D01*
X63957628Y-86456581D01*
X63910009Y-86361343D01*
X63862390Y-86313724D01*
X63767152Y-86266105D01*
G04 #@! TO.C,C10*
X70303442Y-83341357D02*
X70351061Y-83388976D01*
X70398680Y-83531833D01*
X70398680Y-83627071D01*
X70351061Y-83769928D01*
X70255823Y-83865166D01*
X70160585Y-83912785D01*
X69970109Y-83960404D01*
X69827252Y-83960404D01*
X69636776Y-83912785D01*
X69541538Y-83865166D01*
X69446300Y-83769928D01*
X69398680Y-83627071D01*
X69398680Y-83531833D01*
X69446300Y-83388976D01*
X69493919Y-83341357D01*
X70398680Y-82388976D02*
X70398680Y-82960404D01*
X70398680Y-82674690D02*
X69398680Y-82674690D01*
X69541538Y-82769928D01*
X69636776Y-82865166D01*
X69684395Y-82960404D01*
X69398680Y-81769928D02*
X69398680Y-81674690D01*
X69446300Y-81579452D01*
X69493919Y-81531833D01*
X69589157Y-81484214D01*
X69779633Y-81436595D01*
X70017728Y-81436595D01*
X70208204Y-81484214D01*
X70303442Y-81531833D01*
X70351061Y-81579452D01*
X70398680Y-81674690D01*
X70398680Y-81769928D01*
X70351061Y-81865166D01*
X70303442Y-81912785D01*
X70208204Y-81960404D01*
X70017728Y-82008023D01*
X69779633Y-82008023D01*
X69589157Y-81960404D01*
X69493919Y-81912785D01*
X69446300Y-81865166D01*
X69398680Y-81769928D01*
G04 #@! TO.C,C11*
X62504742Y-91335142D02*
X62457123Y-91382761D01*
X62314266Y-91430380D01*
X62219028Y-91430380D01*
X62076171Y-91382761D01*
X61980933Y-91287523D01*
X61933314Y-91192285D01*
X61885695Y-91001809D01*
X61885695Y-90858952D01*
X61933314Y-90668476D01*
X61980933Y-90573238D01*
X62076171Y-90478000D01*
X62219028Y-90430380D01*
X62314266Y-90430380D01*
X62457123Y-90478000D01*
X62504742Y-90525619D01*
X63457123Y-91430380D02*
X62885695Y-91430380D01*
X63171409Y-91430380D02*
X63171409Y-90430380D01*
X63076171Y-90573238D01*
X62980933Y-90668476D01*
X62885695Y-90716095D01*
X64409504Y-91430380D02*
X63838076Y-91430380D01*
X64123790Y-91430380D02*
X64123790Y-90430380D01*
X64028552Y-90573238D01*
X63933314Y-90668476D01*
X63838076Y-90716095D01*
G04 #@! TO.C,C12*
X71383162Y-56061402D02*
X71335543Y-56109021D01*
X71192686Y-56156640D01*
X71097448Y-56156640D01*
X70954591Y-56109021D01*
X70859353Y-56013783D01*
X70811734Y-55918545D01*
X70764115Y-55728069D01*
X70764115Y-55585212D01*
X70811734Y-55394736D01*
X70859353Y-55299498D01*
X70954591Y-55204260D01*
X71097448Y-55156640D01*
X71192686Y-55156640D01*
X71335543Y-55204260D01*
X71383162Y-55251879D01*
X72335543Y-56156640D02*
X71764115Y-56156640D01*
X72049829Y-56156640D02*
X72049829Y-55156640D01*
X71954591Y-55299498D01*
X71859353Y-55394736D01*
X71764115Y-55442355D01*
X72716496Y-55251879D02*
X72764115Y-55204260D01*
X72859353Y-55156640D01*
X73097448Y-55156640D01*
X73192686Y-55204260D01*
X73240305Y-55251879D01*
X73287924Y-55347117D01*
X73287924Y-55442355D01*
X73240305Y-55585212D01*
X72668877Y-56156640D01*
X73287924Y-56156640D01*
G04 #@! TO.C,C13*
X71927542Y-48280942D02*
X71879923Y-48328561D01*
X71737066Y-48376180D01*
X71641828Y-48376180D01*
X71498971Y-48328561D01*
X71403733Y-48233323D01*
X71356114Y-48138085D01*
X71308495Y-47947609D01*
X71308495Y-47804752D01*
X71356114Y-47614276D01*
X71403733Y-47519038D01*
X71498971Y-47423800D01*
X71641828Y-47376180D01*
X71737066Y-47376180D01*
X71879923Y-47423800D01*
X71927542Y-47471419D01*
X72879923Y-48376180D02*
X72308495Y-48376180D01*
X72594209Y-48376180D02*
X72594209Y-47376180D01*
X72498971Y-47519038D01*
X72403733Y-47614276D01*
X72308495Y-47661895D01*
X73213257Y-47376180D02*
X73832304Y-47376180D01*
X73498971Y-47757133D01*
X73641828Y-47757133D01*
X73737066Y-47804752D01*
X73784685Y-47852371D01*
X73832304Y-47947609D01*
X73832304Y-48185704D01*
X73784685Y-48280942D01*
X73737066Y-48328561D01*
X73641828Y-48376180D01*
X73356114Y-48376180D01*
X73260876Y-48328561D01*
X73213257Y-48280942D01*
G04 #@! TO.C,C14*
X63252070Y-51113142D02*
X63204451Y-51160761D01*
X63061594Y-51208380D01*
X62966356Y-51208380D01*
X62823499Y-51160761D01*
X62728261Y-51065523D01*
X62680642Y-50970285D01*
X62633023Y-50779809D01*
X62633023Y-50636952D01*
X62680642Y-50446476D01*
X62728261Y-50351238D01*
X62823499Y-50256000D01*
X62966356Y-50208380D01*
X63061594Y-50208380D01*
X63204451Y-50256000D01*
X63252070Y-50303619D01*
X64204451Y-51208380D02*
X63633023Y-51208380D01*
X63918737Y-51208380D02*
X63918737Y-50208380D01*
X63823499Y-50351238D01*
X63728261Y-50446476D01*
X63633023Y-50494095D01*
X65061594Y-50541714D02*
X65061594Y-51208380D01*
X64823499Y-50160761D02*
X64585404Y-50875047D01*
X65204451Y-50875047D01*
G04 #@! TO.C,D3*
X78334704Y-48376180D02*
X78334704Y-47376180D01*
X78572800Y-47376180D01*
X78715657Y-47423800D01*
X78810895Y-47519038D01*
X78858514Y-47614276D01*
X78906133Y-47804752D01*
X78906133Y-47947609D01*
X78858514Y-48138085D01*
X78810895Y-48233323D01*
X78715657Y-48328561D01*
X78572800Y-48376180D01*
X78334704Y-48376180D01*
X79239466Y-47376180D02*
X79858514Y-47376180D01*
X79525180Y-47757133D01*
X79668038Y-47757133D01*
X79763276Y-47804752D01*
X79810895Y-47852371D01*
X79858514Y-47947609D01*
X79858514Y-48185704D01*
X79810895Y-48280942D01*
X79763276Y-48328561D01*
X79668038Y-48376180D01*
X79382323Y-48376180D01*
X79287085Y-48328561D01*
X79239466Y-48280942D01*
G04 #@! TO.C,R1*
X75156980Y-96935866D02*
X74680790Y-97269200D01*
X75156980Y-97507295D02*
X74156980Y-97507295D01*
X74156980Y-97126342D01*
X74204600Y-97031104D01*
X74252219Y-96983485D01*
X74347457Y-96935866D01*
X74490314Y-96935866D01*
X74585552Y-96983485D01*
X74633171Y-97031104D01*
X74680790Y-97126342D01*
X74680790Y-97507295D01*
X75156980Y-95983485D02*
X75156980Y-96554914D01*
X75156980Y-96269200D02*
X74156980Y-96269200D01*
X74299838Y-96364438D01*
X74395076Y-96459676D01*
X74442695Y-96554914D01*
G04 #@! TO.C,R2*
X81903933Y-86858380D02*
X81570600Y-86382190D01*
X81332504Y-86858380D02*
X81332504Y-85858380D01*
X81713457Y-85858380D01*
X81808695Y-85906000D01*
X81856314Y-85953619D01*
X81903933Y-86048857D01*
X81903933Y-86191714D01*
X81856314Y-86286952D01*
X81808695Y-86334571D01*
X81713457Y-86382190D01*
X81332504Y-86382190D01*
X82284885Y-85953619D02*
X82332504Y-85906000D01*
X82427742Y-85858380D01*
X82665838Y-85858380D01*
X82761076Y-85906000D01*
X82808695Y-85953619D01*
X82856314Y-86048857D01*
X82856314Y-86144095D01*
X82808695Y-86286952D01*
X82237266Y-86858380D01*
X82856314Y-86858380D01*
G04 #@! TO.C,R3*
X73480580Y-97037466D02*
X73004390Y-97370800D01*
X73480580Y-97608895D02*
X72480580Y-97608895D01*
X72480580Y-97227942D01*
X72528200Y-97132704D01*
X72575819Y-97085085D01*
X72671057Y-97037466D01*
X72813914Y-97037466D01*
X72909152Y-97085085D01*
X72956771Y-97132704D01*
X73004390Y-97227942D01*
X73004390Y-97608895D01*
X72480580Y-96704133D02*
X72480580Y-96085085D01*
X72861533Y-96418419D01*
X72861533Y-96275561D01*
X72909152Y-96180323D01*
X72956771Y-96132704D01*
X73052009Y-96085085D01*
X73290104Y-96085085D01*
X73385342Y-96132704D01*
X73432961Y-96180323D01*
X73480580Y-96275561D01*
X73480580Y-96561276D01*
X73432961Y-96656514D01*
X73385342Y-96704133D01*
G04 #@! TO.C,R4*
X53165833Y-107942380D02*
X52832500Y-107466190D01*
X52594404Y-107942380D02*
X52594404Y-106942380D01*
X52975357Y-106942380D01*
X53070595Y-106990000D01*
X53118214Y-107037619D01*
X53165833Y-107132857D01*
X53165833Y-107275714D01*
X53118214Y-107370952D01*
X53070595Y-107418571D01*
X52975357Y-107466190D01*
X52594404Y-107466190D01*
X54022976Y-107275714D02*
X54022976Y-107942380D01*
X53784880Y-106894761D02*
X53546785Y-107609047D01*
X54165833Y-107609047D01*
G04 #@! TO.C,R5*
X67308380Y-84413666D02*
X66832190Y-84747000D01*
X67308380Y-84985095D02*
X66308380Y-84985095D01*
X66308380Y-84604142D01*
X66356000Y-84508904D01*
X66403619Y-84461285D01*
X66498857Y-84413666D01*
X66641714Y-84413666D01*
X66736952Y-84461285D01*
X66784571Y-84508904D01*
X66832190Y-84604142D01*
X66832190Y-84985095D01*
X66308380Y-83508904D02*
X66308380Y-83985095D01*
X66784571Y-84032714D01*
X66736952Y-83985095D01*
X66689333Y-83889857D01*
X66689333Y-83651761D01*
X66736952Y-83556523D01*
X66784571Y-83508904D01*
X66879809Y-83461285D01*
X67117904Y-83461285D01*
X67213142Y-83508904D01*
X67260761Y-83556523D01*
X67308380Y-83651761D01*
X67308380Y-83889857D01*
X67260761Y-83985095D01*
X67213142Y-84032714D01*
G04 #@! TO.C,R7*
X75638980Y-47912666D02*
X75162790Y-48246000D01*
X75638980Y-48484095D02*
X74638980Y-48484095D01*
X74638980Y-48103142D01*
X74686600Y-48007904D01*
X74734219Y-47960285D01*
X74829457Y-47912666D01*
X74972314Y-47912666D01*
X75067552Y-47960285D01*
X75115171Y-48007904D01*
X75162790Y-48103142D01*
X75162790Y-48484095D01*
X74638980Y-47579333D02*
X74638980Y-46912666D01*
X75638980Y-47341238D01*
G04 #@! TO.C,R8*
X71108333Y-51474980D02*
X70775000Y-50998790D01*
X70536904Y-51474980D02*
X70536904Y-50474980D01*
X70917857Y-50474980D01*
X71013095Y-50522600D01*
X71060714Y-50570219D01*
X71108333Y-50665457D01*
X71108333Y-50808314D01*
X71060714Y-50903552D01*
X71013095Y-50951171D01*
X70917857Y-50998790D01*
X70536904Y-50998790D01*
X71679761Y-50903552D02*
X71584523Y-50855933D01*
X71536904Y-50808314D01*
X71489285Y-50713076D01*
X71489285Y-50665457D01*
X71536904Y-50570219D01*
X71584523Y-50522600D01*
X71679761Y-50474980D01*
X71870238Y-50474980D01*
X71965476Y-50522600D01*
X72013095Y-50570219D01*
X72060714Y-50665457D01*
X72060714Y-50713076D01*
X72013095Y-50808314D01*
X71965476Y-50855933D01*
X71870238Y-50903552D01*
X71679761Y-50903552D01*
X71584523Y-50951171D01*
X71536904Y-50998790D01*
X71489285Y-51094028D01*
X71489285Y-51284504D01*
X71536904Y-51379742D01*
X71584523Y-51427361D01*
X71679761Y-51474980D01*
X71870238Y-51474980D01*
X71965476Y-51427361D01*
X72013095Y-51379742D01*
X72060714Y-51284504D01*
X72060714Y-51094028D01*
X72013095Y-50998790D01*
X71965476Y-50951171D01*
X71870238Y-50903552D01*
G04 #@! TO.C,R9*
X60999133Y-54446780D02*
X60665800Y-53970590D01*
X60427704Y-54446780D02*
X60427704Y-53446780D01*
X60808657Y-53446780D01*
X60903895Y-53494400D01*
X60951514Y-53542019D01*
X60999133Y-53637257D01*
X60999133Y-53780114D01*
X60951514Y-53875352D01*
X60903895Y-53922971D01*
X60808657Y-53970590D01*
X60427704Y-53970590D01*
X61475323Y-54446780D02*
X61665800Y-54446780D01*
X61761038Y-54399161D01*
X61808657Y-54351542D01*
X61903895Y-54208685D01*
X61951514Y-54018209D01*
X61951514Y-53637257D01*
X61903895Y-53542019D01*
X61856276Y-53494400D01*
X61761038Y-53446780D01*
X61570561Y-53446780D01*
X61475323Y-53494400D01*
X61427704Y-53542019D01*
X61380085Y-53637257D01*
X61380085Y-53875352D01*
X61427704Y-53970590D01*
X61475323Y-54018209D01*
X61570561Y-54065828D01*
X61761038Y-54065828D01*
X61856276Y-54018209D01*
X61903895Y-53970590D01*
X61951514Y-53875352D01*
G04 #@! TO.C,R10*
X67253942Y-57558280D02*
X66920609Y-57082090D01*
X66682514Y-57558280D02*
X66682514Y-56558280D01*
X67063466Y-56558280D01*
X67158704Y-56605900D01*
X67206323Y-56653519D01*
X67253942Y-56748757D01*
X67253942Y-56891614D01*
X67206323Y-56986852D01*
X67158704Y-57034471D01*
X67063466Y-57082090D01*
X66682514Y-57082090D01*
X68206323Y-57558280D02*
X67634895Y-57558280D01*
X67920609Y-57558280D02*
X67920609Y-56558280D01*
X67825371Y-56701138D01*
X67730133Y-56796376D01*
X67634895Y-56843995D01*
X68825371Y-56558280D02*
X68920609Y-56558280D01*
X69015847Y-56605900D01*
X69063466Y-56653519D01*
X69111085Y-56748757D01*
X69158704Y-56939233D01*
X69158704Y-57177328D01*
X69111085Y-57367804D01*
X69063466Y-57463042D01*
X69015847Y-57510661D01*
X68920609Y-57558280D01*
X68825371Y-57558280D01*
X68730133Y-57510661D01*
X68682514Y-57463042D01*
X68634895Y-57367804D01*
X68587276Y-57177328D01*
X68587276Y-56939233D01*
X68634895Y-56748757D01*
X68682514Y-56653519D01*
X68730133Y-56605900D01*
X68825371Y-56558280D01*
G04 #@! TO.C,R11*
X94712380Y-70162857D02*
X94236190Y-70496190D01*
X94712380Y-70734285D02*
X93712380Y-70734285D01*
X93712380Y-70353333D01*
X93760000Y-70258095D01*
X93807619Y-70210476D01*
X93902857Y-70162857D01*
X94045714Y-70162857D01*
X94140952Y-70210476D01*
X94188571Y-70258095D01*
X94236190Y-70353333D01*
X94236190Y-70734285D01*
X94712380Y-69210476D02*
X94712380Y-69781904D01*
X94712380Y-69496190D02*
X93712380Y-69496190D01*
X93855238Y-69591428D01*
X93950476Y-69686666D01*
X93998095Y-69781904D01*
X94712380Y-68258095D02*
X94712380Y-68829523D01*
X94712380Y-68543809D02*
X93712380Y-68543809D01*
X93855238Y-68639047D01*
X93950476Y-68734285D01*
X93998095Y-68829523D01*
G04 #@! TO.C,R12*
X94252380Y-78682857D02*
X93776190Y-79016190D01*
X94252380Y-79254285D02*
X93252380Y-79254285D01*
X93252380Y-78873333D01*
X93300000Y-78778095D01*
X93347619Y-78730476D01*
X93442857Y-78682857D01*
X93585714Y-78682857D01*
X93680952Y-78730476D01*
X93728571Y-78778095D01*
X93776190Y-78873333D01*
X93776190Y-79254285D01*
X94252380Y-77730476D02*
X94252380Y-78301904D01*
X94252380Y-78016190D02*
X93252380Y-78016190D01*
X93395238Y-78111428D01*
X93490476Y-78206666D01*
X93538095Y-78301904D01*
X93347619Y-77349523D02*
X93300000Y-77301904D01*
X93252380Y-77206666D01*
X93252380Y-76968571D01*
X93300000Y-76873333D01*
X93347619Y-76825714D01*
X93442857Y-76778095D01*
X93538095Y-76778095D01*
X93680952Y-76825714D01*
X94252380Y-77397142D01*
X94252380Y-76778095D01*
G04 #@! TO.C,R13*
X91426102Y-58695280D02*
X91092769Y-58219090D01*
X90854674Y-58695280D02*
X90854674Y-57695280D01*
X91235626Y-57695280D01*
X91330864Y-57742900D01*
X91378483Y-57790519D01*
X91426102Y-57885757D01*
X91426102Y-58028614D01*
X91378483Y-58123852D01*
X91330864Y-58171471D01*
X91235626Y-58219090D01*
X90854674Y-58219090D01*
X92378483Y-58695280D02*
X91807055Y-58695280D01*
X92092769Y-58695280D02*
X92092769Y-57695280D01*
X91997531Y-57838138D01*
X91902293Y-57933376D01*
X91807055Y-57980995D01*
X92711817Y-57695280D02*
X93330864Y-57695280D01*
X92997531Y-58076233D01*
X93140388Y-58076233D01*
X93235626Y-58123852D01*
X93283245Y-58171471D01*
X93330864Y-58266709D01*
X93330864Y-58504804D01*
X93283245Y-58600042D01*
X93235626Y-58647661D01*
X93140388Y-58695280D01*
X92854674Y-58695280D01*
X92759436Y-58647661D01*
X92711817Y-58600042D01*
G04 #@! TO.C,R14*
X94743740Y-67127417D02*
X94267550Y-67460750D01*
X94743740Y-67698845D02*
X93743740Y-67698845D01*
X93743740Y-67317893D01*
X93791360Y-67222655D01*
X93838979Y-67175036D01*
X93934217Y-67127417D01*
X94077074Y-67127417D01*
X94172312Y-67175036D01*
X94219931Y-67222655D01*
X94267550Y-67317893D01*
X94267550Y-67698845D01*
X94743740Y-66175036D02*
X94743740Y-66746464D01*
X94743740Y-66460750D02*
X93743740Y-66460750D01*
X93886598Y-66555988D01*
X93981836Y-66651226D01*
X94029455Y-66746464D01*
X94077074Y-65317893D02*
X94743740Y-65317893D01*
X93696121Y-65555988D02*
X94410407Y-65794083D01*
X94410407Y-65175036D01*
G04 #@! TO.C,C15*
X62421942Y-58947942D02*
X62374323Y-58995561D01*
X62231466Y-59043180D01*
X62136228Y-59043180D01*
X61993371Y-58995561D01*
X61898133Y-58900323D01*
X61850514Y-58805085D01*
X61802895Y-58614609D01*
X61802895Y-58471752D01*
X61850514Y-58281276D01*
X61898133Y-58186038D01*
X61993371Y-58090800D01*
X62136228Y-58043180D01*
X62231466Y-58043180D01*
X62374323Y-58090800D01*
X62421942Y-58138419D01*
X63374323Y-59043180D02*
X62802895Y-59043180D01*
X63088609Y-59043180D02*
X63088609Y-58043180D01*
X62993371Y-58186038D01*
X62898133Y-58281276D01*
X62802895Y-58328895D01*
X64279085Y-58043180D02*
X63802895Y-58043180D01*
X63755276Y-58519371D01*
X63802895Y-58471752D01*
X63898133Y-58424133D01*
X64136228Y-58424133D01*
X64231466Y-58471752D01*
X64279085Y-58519371D01*
X64326704Y-58614609D01*
X64326704Y-58852704D01*
X64279085Y-58947942D01*
X64231466Y-58995561D01*
X64136228Y-59043180D01*
X63898133Y-59043180D01*
X63802895Y-58995561D01*
X63755276Y-58947942D01*
G04 #@! TO.C,C1*
X81954733Y-88655442D02*
X81907114Y-88703061D01*
X81764257Y-88750680D01*
X81669019Y-88750680D01*
X81526161Y-88703061D01*
X81430923Y-88607823D01*
X81383304Y-88512585D01*
X81335685Y-88322109D01*
X81335685Y-88179252D01*
X81383304Y-87988776D01*
X81430923Y-87893538D01*
X81526161Y-87798300D01*
X81669019Y-87750680D01*
X81764257Y-87750680D01*
X81907114Y-87798300D01*
X81954733Y-87845919D01*
X82907114Y-88750680D02*
X82335685Y-88750680D01*
X82621400Y-88750680D02*
X82621400Y-87750680D01*
X82526161Y-87893538D01*
X82430923Y-87988776D01*
X82335685Y-88036395D01*
G04 #@! TO.C,C2*
X76173333Y-79907142D02*
X76125714Y-79954761D01*
X75982857Y-80002380D01*
X75887619Y-80002380D01*
X75744761Y-79954761D01*
X75649523Y-79859523D01*
X75601904Y-79764285D01*
X75554285Y-79573809D01*
X75554285Y-79430952D01*
X75601904Y-79240476D01*
X75649523Y-79145238D01*
X75744761Y-79050000D01*
X75887619Y-79002380D01*
X75982857Y-79002380D01*
X76125714Y-79050000D01*
X76173333Y-79097619D01*
X76554285Y-79097619D02*
X76601904Y-79050000D01*
X76697142Y-79002380D01*
X76935238Y-79002380D01*
X77030476Y-79050000D01*
X77078095Y-79097619D01*
X77125714Y-79192857D01*
X77125714Y-79288095D01*
X77078095Y-79430952D01*
X76506666Y-80002380D01*
X77125714Y-80002380D01*
G04 #@! TO.C,C3*
X64169702Y-83012246D02*
X64217321Y-83059865D01*
X64264940Y-83202722D01*
X64264940Y-83297960D01*
X64217321Y-83440818D01*
X64122083Y-83536056D01*
X64026845Y-83583675D01*
X63836369Y-83631294D01*
X63693512Y-83631294D01*
X63503036Y-83583675D01*
X63407798Y-83536056D01*
X63312560Y-83440818D01*
X63264940Y-83297960D01*
X63264940Y-83202722D01*
X63312560Y-83059865D01*
X63360179Y-83012246D01*
X63264940Y-82678913D02*
X63264940Y-82059865D01*
X63645893Y-82393199D01*
X63645893Y-82250341D01*
X63693512Y-82155103D01*
X63741131Y-82107484D01*
X63836369Y-82059865D01*
X64074464Y-82059865D01*
X64169702Y-82107484D01*
X64217321Y-82155103D01*
X64264940Y-82250341D01*
X64264940Y-82536056D01*
X64217321Y-82631294D01*
X64169702Y-82678913D01*
G04 #@! TO.C,J3*
X51575780Y-96491733D02*
X52290066Y-96491733D01*
X52432923Y-96539352D01*
X52528161Y-96634590D01*
X52575780Y-96777447D01*
X52575780Y-96872685D01*
X51575780Y-96110780D02*
X51575780Y-95491733D01*
X51956733Y-95825066D01*
X51956733Y-95682209D01*
X52004352Y-95586971D01*
X52051971Y-95539352D01*
X52147209Y-95491733D01*
X52385304Y-95491733D01*
X52480542Y-95539352D01*
X52528161Y-95586971D01*
X52575780Y-95682209D01*
X52575780Y-95967923D01*
X52528161Y-96063161D01*
X52480542Y-96110780D01*
X48319804Y-95936080D02*
X48319804Y-95478938D01*
X49119804Y-95707509D02*
X48319804Y-95707509D01*
X49119804Y-95288461D02*
X48586471Y-94869414D01*
X48586471Y-95288461D02*
X49119804Y-94869414D01*
X48472200Y-93885023D02*
X48434104Y-93961214D01*
X48434104Y-94075500D01*
X48472200Y-94189785D01*
X48548390Y-94265976D01*
X48624580Y-94304071D01*
X48776961Y-94342166D01*
X48891247Y-94342166D01*
X49043628Y-94304071D01*
X49119819Y-94265976D01*
X49196009Y-94189785D01*
X49234104Y-94075500D01*
X49234104Y-93999309D01*
X49196009Y-93885023D01*
X49157914Y-93846928D01*
X48891247Y-93846928D01*
X48891247Y-93999309D01*
X49234104Y-93504071D02*
X48434104Y-93504071D01*
X49234104Y-93046928D01*
X48434104Y-93046928D01*
X49234104Y-92665976D02*
X48434104Y-92665976D01*
X48434104Y-92475500D01*
X48472200Y-92361214D01*
X48548390Y-92285023D01*
X48624580Y-92246928D01*
X48776961Y-92208833D01*
X48891247Y-92208833D01*
X49043628Y-92246928D01*
X49119819Y-92285023D01*
X49196009Y-92361214D01*
X49234104Y-92475500D01*
X49234104Y-92665976D01*
X49107104Y-97199790D02*
X48726152Y-97466457D01*
X49107104Y-97656933D02*
X48307104Y-97656933D01*
X48307104Y-97352171D01*
X48345200Y-97275980D01*
X48383295Y-97237885D01*
X48459485Y-97199790D01*
X48573771Y-97199790D01*
X48649961Y-97237885D01*
X48688057Y-97275980D01*
X48726152Y-97352171D01*
X48726152Y-97656933D01*
X49107104Y-96933123D02*
X48573771Y-96514076D01*
X48573771Y-96933123D02*
X49107104Y-96514076D01*
X48332504Y-100514357D02*
X48332504Y-100019119D01*
X48637266Y-100285785D01*
X48637266Y-100171500D01*
X48675361Y-100095309D01*
X48713457Y-100057214D01*
X48789647Y-100019119D01*
X48980123Y-100019119D01*
X49056314Y-100057214D01*
X49094409Y-100095309D01*
X49132504Y-100171500D01*
X49132504Y-100400071D01*
X49094409Y-100476261D01*
X49056314Y-100514357D01*
X49056314Y-99676261D02*
X49094409Y-99638166D01*
X49132504Y-99676261D01*
X49094409Y-99714357D01*
X49056314Y-99676261D01*
X49132504Y-99676261D01*
X48332504Y-99371500D02*
X48332504Y-98876261D01*
X48637266Y-99142928D01*
X48637266Y-99028642D01*
X48675361Y-98952452D01*
X48713457Y-98914357D01*
X48789647Y-98876261D01*
X48980123Y-98876261D01*
X49056314Y-98914357D01*
X49094409Y-98952452D01*
X49132504Y-99028642D01*
X49132504Y-99257214D01*
X49094409Y-99333404D01*
X49056314Y-99371500D01*
X48599171Y-98609595D02*
X49132504Y-98419119D01*
X48599171Y-98228642D01*
G04 #@! TO.C,C16*
X85620542Y-74479822D02*
X85572923Y-74527441D01*
X85430066Y-74575060D01*
X85334828Y-74575060D01*
X85191971Y-74527441D01*
X85096733Y-74432203D01*
X85049114Y-74336965D01*
X85001495Y-74146489D01*
X85001495Y-74003632D01*
X85049114Y-73813156D01*
X85096733Y-73717918D01*
X85191971Y-73622680D01*
X85334828Y-73575060D01*
X85430066Y-73575060D01*
X85572923Y-73622680D01*
X85620542Y-73670299D01*
X86572923Y-74575060D02*
X86001495Y-74575060D01*
X86287209Y-74575060D02*
X86287209Y-73575060D01*
X86191971Y-73717918D01*
X86096733Y-73813156D01*
X86001495Y-73860775D01*
X87430066Y-73575060D02*
X87239590Y-73575060D01*
X87144352Y-73622680D01*
X87096733Y-73670299D01*
X87001495Y-73813156D01*
X86953876Y-74003632D01*
X86953876Y-74384584D01*
X87001495Y-74479822D01*
X87049114Y-74527441D01*
X87144352Y-74575060D01*
X87334828Y-74575060D01*
X87430066Y-74527441D01*
X87477685Y-74479822D01*
X87525304Y-74384584D01*
X87525304Y-74146489D01*
X87477685Y-74051251D01*
X87430066Y-74003632D01*
X87334828Y-73956013D01*
X87144352Y-73956013D01*
X87049114Y-74003632D01*
X87001495Y-74051251D01*
X86953876Y-74146489D01*
G04 #@! TO.C,C17*
X94657142Y-73252857D02*
X94704761Y-73300476D01*
X94752380Y-73443333D01*
X94752380Y-73538571D01*
X94704761Y-73681428D01*
X94609523Y-73776666D01*
X94514285Y-73824285D01*
X94323809Y-73871904D01*
X94180952Y-73871904D01*
X93990476Y-73824285D01*
X93895238Y-73776666D01*
X93800000Y-73681428D01*
X93752380Y-73538571D01*
X93752380Y-73443333D01*
X93800000Y-73300476D01*
X93847619Y-73252857D01*
X94752380Y-72300476D02*
X94752380Y-72871904D01*
X94752380Y-72586190D02*
X93752380Y-72586190D01*
X93895238Y-72681428D01*
X93990476Y-72776666D01*
X94038095Y-72871904D01*
X93752380Y-71967142D02*
X93752380Y-71300476D01*
X94752380Y-71729047D01*
G04 #@! TO.C,C18*
X88130642Y-71072857D02*
X88178261Y-71120476D01*
X88225880Y-71263333D01*
X88225880Y-71358571D01*
X88178261Y-71501428D01*
X88083023Y-71596666D01*
X87987785Y-71644285D01*
X87797309Y-71691904D01*
X87654452Y-71691904D01*
X87463976Y-71644285D01*
X87368738Y-71596666D01*
X87273500Y-71501428D01*
X87225880Y-71358571D01*
X87225880Y-71263333D01*
X87273500Y-71120476D01*
X87321119Y-71072857D01*
X88225880Y-70120476D02*
X88225880Y-70691904D01*
X88225880Y-70406190D02*
X87225880Y-70406190D01*
X87368738Y-70501428D01*
X87463976Y-70596666D01*
X87511595Y-70691904D01*
X87654452Y-69549047D02*
X87606833Y-69644285D01*
X87559214Y-69691904D01*
X87463976Y-69739523D01*
X87416357Y-69739523D01*
X87321119Y-69691904D01*
X87273500Y-69644285D01*
X87225880Y-69549047D01*
X87225880Y-69358571D01*
X87273500Y-69263333D01*
X87321119Y-69215714D01*
X87416357Y-69168095D01*
X87463976Y-69168095D01*
X87559214Y-69215714D01*
X87606833Y-69263333D01*
X87654452Y-69358571D01*
X87654452Y-69549047D01*
X87702071Y-69644285D01*
X87749690Y-69691904D01*
X87844928Y-69739523D01*
X88035404Y-69739523D01*
X88130642Y-69691904D01*
X88178261Y-69644285D01*
X88225880Y-69549047D01*
X88225880Y-69358571D01*
X88178261Y-69263333D01*
X88130642Y-69215714D01*
X88035404Y-69168095D01*
X87844928Y-69168095D01*
X87749690Y-69215714D01*
X87702071Y-69263333D01*
X87654452Y-69358571D01*
G04 #@! TO.C,R6*
X94743740Y-64108686D02*
X94267550Y-64442020D01*
X94743740Y-64680115D02*
X93743740Y-64680115D01*
X93743740Y-64299162D01*
X93791360Y-64203924D01*
X93838979Y-64156305D01*
X93934217Y-64108686D01*
X94077074Y-64108686D01*
X94172312Y-64156305D01*
X94219931Y-64203924D01*
X94267550Y-64299162D01*
X94267550Y-64680115D01*
X93743740Y-63251543D02*
X93743740Y-63442020D01*
X93791360Y-63537258D01*
X93838979Y-63584877D01*
X93981836Y-63680115D01*
X94172312Y-63727734D01*
X94553264Y-63727734D01*
X94648502Y-63680115D01*
X94696121Y-63632496D01*
X94743740Y-63537258D01*
X94743740Y-63346781D01*
X94696121Y-63251543D01*
X94648502Y-63203924D01*
X94553264Y-63156305D01*
X94315169Y-63156305D01*
X94219931Y-63203924D01*
X94172312Y-63251543D01*
X94124693Y-63346781D01*
X94124693Y-63537258D01*
X94172312Y-63632496D01*
X94219931Y-63680115D01*
X94315169Y-63727734D01*
G04 #@! TD*
M02*
