M48
; DRILL file {KiCad 5.1.10-88a1d61d58~88~ubuntu20.04.1} date Mon May 10 20:01:09 2021
; FORMAT={-:-/ absolute / metric / decimal}
; #@! TF.CreationDate,2021-05-10T20:01:09+02:00
; #@! TF.GenerationSoftware,Kicad,Pcbnew,5.1.10-88a1d61d58~88~ubuntu20.04.1
; #@! TF.FileFunction,Plated,1,2,PTH
FMAT,2
METRIC
T1C0.300
T2C0.400
T3C0.800
T4C1.100
T5C1.400
%
G90
G05
T1
X49.24Y-91.332
X49.85Y-67.3
X49.85Y-68.9
X50.15Y-51.6
X50.193Y-81.642
X50.231Y-84.678
X50.256Y-87.611
X50.275Y-73.05
X50.52Y-101.39
X51.05Y-108.0
X51.45Y-68.2
X51.661Y-91.368
X52.344Y-56.016
X53.25Y-64.0
X53.25Y-72.3
X53.457Y-73.309
X54.05Y-65.6
X54.05Y-70.7
X54.089Y-56.1
X54.85Y-64.0
X54.85Y-72.3
X54.85Y-104.7
X56.25Y-51.7
X56.95Y-108.2
X57.45Y-92.45
X57.6Y-94.65
X57.74Y-85.11
X57.8Y-93.55
X58.35Y-83.9
X58.45Y-64.1
X58.45Y-72.1
X58.45Y-86.46
X59.4Y-97.73
X59.75Y-108.3
X60.0Y-101.64
X60.15Y-64.6
X60.15Y-71.7
X60.28Y-84.53
X60.53Y-78.5
X60.53Y-80.25
X60.6Y-89.91
X61.84Y-104.9
X61.85Y-66.0
X61.85Y-67.5
X61.85Y-68.9
X61.85Y-70.3
X62.01Y-83.97
X62.2Y-88.01
X62.23Y-89.96
X62.3Y-101.63
X62.95Y-108.0
X63.25Y-48.4
X63.25Y-50.3
X63.83Y-78.36
X63.9Y-101.63
X63.97Y-81.26
X64.05Y-88.56
X64.2Y-94.83
X64.37Y-96.0
X65.12Y-100.61
X65.22Y-82.46
X65.25Y-92.93
X65.45Y-51.5
X65.6Y-59.8
X65.65Y-56.4
X65.725Y-72.1
X65.725Y-73.975
X65.8Y-90.17
X66.48Y-80.67
X66.6Y-90.12
X66.6Y-100.63
X67.04Y-84.46
X67.05Y-60.6
X67.05Y-70.95
X67.08Y-85.63
X67.09Y-87.58
X67.15Y-55.85
X67.31Y-93.66
X67.47Y-95.97
X67.47Y-97.57
X67.47Y-99.37
X67.63Y-83.34
X67.64Y-79.93
X67.83Y-104.86
X68.6Y-93.29
X68.64Y-94.43
X68.65Y-51.5
X68.81Y-84.78
X68.83Y-91.95
X68.87Y-96.53
X69.0Y-60.6
X69.05Y-55.85
X69.08Y-87.87
X69.11Y-91.1
X70.096Y-65.516
X70.14Y-87.87
X70.3Y-81.3
X70.65Y-48.2
X70.65Y-50.2
X70.79Y-96.66
X70.9Y-60.6
X71.05Y-55.85
X71.24Y-92.62
X71.66Y-78.65
X72.05Y-102.4
X72.45Y-81.3
X73.0Y-55.85
X73.15Y-105.1
X73.22Y-87.426
X73.22Y-88.823
X73.22Y-90.226
X73.28Y-82.83
X74.135Y-60.588
X74.18Y-98.36
X74.226Y-70.012
X74.62Y-87.426
X74.62Y-88.826
X74.62Y-90.226
X74.8Y-83.53
X75.74Y-99.83
X75.854Y-81.52
X76.02Y-77.97
X76.02Y-87.426
X76.02Y-88.823
X76.02Y-90.226
X76.77Y-105.68
X77.02Y-95.76
X77.04Y-98.58
X77.05Y-82.9
X77.622Y-65.33
X77.65Y-84.9
X77.89Y-93.05
X78.55Y-85.8
X78.65Y-87.3
X78.8Y-98.58
X79.16Y-93.05
X80.33Y-105.55
X80.35Y-86.8
X80.64Y-101.65
X80.7Y-98.56
X80.83Y-93.05
X80.914Y-70.532
X81.049Y-60.743
X81.15Y-83.575
X81.36Y-78.35
X81.75Y-48.4
X81.75Y-50.3
X81.97Y-95.97
X81.98Y-94.42
X81.98Y-97.46
X82.05Y-86.8
X82.55Y-88.1
X82.55Y-89.9
X83.05Y-51.5
X83.57Y-73.02
X83.94Y-85.49
X84.43Y-103.58
X84.61Y-99.16
X84.7Y-88.05
X84.78Y-93.74
X85.0Y-81.79
X85.27Y-73.04
X85.63Y-79.31
X86.15Y-75.7
X86.25Y-51.5
X86.41Y-65.94
X86.75Y-73.15
X87.25Y-75.7
X87.25Y-81.6
X87.34Y-87.06
X87.47Y-89.72
X87.55Y-65.95
X87.62Y-67.92
X87.7Y-63.3
X88.15Y-74.9
X89.55Y-89.725
X89.6Y-87.15
X89.95Y-79.8
X89.95Y-81.925
X90.02Y-73.33
X90.11Y-71.05
X90.14Y-69.46
X91.16Y-108.82
X91.999Y-49.326
X92.156Y-104.909
X92.344Y-92.318
X92.405Y-94.866
X92.75Y-101.07
X92.95Y-52.8
X93.779Y-107.571
X93.95Y-56.3
X94.15Y-95.3
T2
X55.752Y-83.147
X56.543Y-83.15
X58.08Y-82.17
X58.54Y-88.3
X58.8Y-78.25
X58.8Y-79.15
X60.716Y-90.866
X61.04Y-101.76
X63.95Y-110.1
X64.166Y-110.944
X66.01Y-96.5
X68.8Y-90.3
X69.15Y-82.65
X70.84Y-82.2
X71.769Y-108.819
X72.66Y-93.35
X73.45Y-93.61
X73.56Y-106.17
X73.62Y-84.37
X73.932Y-92.88
X74.02Y-77.348
X74.08Y-78.585
X74.82Y-84.36
X75.0Y-95.76
X75.03Y-104.78
X75.04Y-105.7
X84.59Y-90.54
X84.95Y-75.8
X85.15Y-92.59
X85.258Y-90.117
X85.85Y-86.4
X85.85Y-87.9
X86.54Y-59.25
X86.683Y-101.261
X88.125Y-70.214
X89.124Y-76.204
X90.15Y-67.5
X90.262Y-58.613
X90.37Y-76.25
X91.16Y-58.57
X92.034Y-58.423
X92.913Y-58.489
X93.431Y-86.649
T3
X49.25Y-80.36
X49.25Y-82.9
X49.25Y-86.341
X49.25Y-88.881
X50.21Y-103.75
X50.21Y-106.29
X50.29Y-58.18
X50.29Y-60.72
X50.561Y-93.117
X50.561Y-95.117
X50.561Y-97.117
X50.561Y-99.117
X51.25Y-80.36
X51.25Y-82.9
X51.25Y-86.341
X51.25Y-88.881
X52.29Y-58.18
X52.29Y-60.72
X53.61Y-78.265
X53.61Y-80.805
X53.61Y-83.345
X53.61Y-85.885
X53.61Y-88.425
X53.61Y-90.965
X53.61Y-93.505
X53.61Y-96.045
X53.61Y-98.585
X53.61Y-101.125
X53.61Y-103.665
X53.61Y-106.205
X56.15Y-88.425
X56.15Y-90.965
X56.15Y-93.505
X56.15Y-96.045
X56.15Y-98.585
X56.15Y-101.125
X56.15Y-103.665
X56.15Y-106.205
X76.84Y-113.17
X79.38Y-113.17
X88.62Y-78.265
X88.62Y-80.805
X88.62Y-83.345
X88.62Y-85.885
X88.62Y-88.425
X88.62Y-90.965
X88.62Y-93.505
X88.62Y-96.045
X88.62Y-98.585
X88.62Y-101.125
X88.62Y-103.665
X88.62Y-106.205
X89.678Y-48.26
X89.678Y-50.8
X89.678Y-53.34
X89.678Y-55.88
X91.16Y-78.265
X91.16Y-80.805
X91.16Y-83.345
X91.16Y-85.885
X91.16Y-88.425
X91.16Y-90.965
X91.16Y-93.505
X91.16Y-96.045
X91.16Y-98.585
X91.16Y-101.125
X91.16Y-103.665
X91.16Y-106.205
X93.767Y-99.791
X93.767Y-102.331
X93.767Y-104.871
T4
X54.0Y-68.142
T5
X51.46Y-65.602
X51.46Y-70.682
X56.54Y-65.602
X56.54Y-70.682
T0
M30
