G04 #@! TF.GenerationSoftware,KiCad,Pcbnew,5.1.10-88a1d61d58~88~ubuntu20.04.1*
G04 #@! TF.CreationDate,2021-05-10T20:01:03+02:00*
G04 #@! TF.ProjectId,WiRoc_NanoPi_v1,5769526f-635f-44e6-916e-6f50695f7631,rev?*
G04 #@! TF.SameCoordinates,Original*
G04 #@! TF.FileFunction,Soldermask,Bot*
G04 #@! TF.FilePolarity,Negative*
%FSLAX46Y46*%
G04 Gerber Fmt 4.6, Leading zero omitted, Abs format (unit mm)*
G04 Created by KiCad (PCBNEW 5.1.10-88a1d61d58~88~ubuntu20.04.1) date 2021-05-10 20:01:03*
%MOMM*%
%LPD*%
G01*
G04 APERTURE LIST*
%ADD10O,1.700000X1.700000*%
%ADD11R,1.700000X1.700000*%
%ADD12C,1.500000*%
%ADD13C,2.250000*%
%ADD14C,2.050000*%
%ADD15O,1.500000X1.900000*%
%ADD16O,2.000000X1.500000*%
G04 APERTURE END LIST*
D10*
X88620000Y-96045000D03*
X88620000Y-83345000D03*
X91160000Y-103665000D03*
X88620000Y-103665000D03*
X91160000Y-98585000D03*
X88620000Y-101125000D03*
X88620000Y-93505000D03*
X91160000Y-106205000D03*
X88620000Y-90965000D03*
X91160000Y-93505000D03*
X91160000Y-101125000D03*
X91160000Y-88425000D03*
X88620000Y-106205000D03*
X91160000Y-96045000D03*
X88620000Y-98585000D03*
X91160000Y-83345000D03*
X91160000Y-90965000D03*
X88620000Y-88425000D03*
D11*
X88620000Y-78265000D03*
D10*
X88620000Y-85885000D03*
X91160000Y-80805000D03*
X88620000Y-80805000D03*
X91160000Y-85885000D03*
X91160000Y-78265000D03*
X53610000Y-85885000D03*
X53610000Y-83345000D03*
X53610000Y-80805000D03*
D11*
X53610000Y-78265000D03*
D10*
X53610000Y-106205000D03*
X53610000Y-103665000D03*
X53610000Y-101125000D03*
X53610000Y-98585000D03*
X53610000Y-96045000D03*
X53610000Y-88425000D03*
X53610000Y-93505000D03*
X53610000Y-90965000D03*
X56150000Y-101125000D03*
X56150000Y-103665000D03*
X56150000Y-98585000D03*
D11*
X56150000Y-106205000D03*
X56150000Y-96045000D03*
D10*
X56150000Y-88425000D03*
X56150000Y-93505000D03*
X56150000Y-90965000D03*
D12*
X86350000Y-104900000D03*
D10*
X50210000Y-103750000D03*
D11*
X50210000Y-106290000D03*
D10*
X89678000Y-55880000D03*
X89678000Y-53340000D03*
X89678000Y-50800000D03*
D11*
X89678000Y-48260000D03*
D10*
X93766700Y-99790600D03*
X93766700Y-102330600D03*
D11*
X93766700Y-104870600D03*
D10*
X76840000Y-113170000D03*
D11*
X79380000Y-113170000D03*
D13*
X51460000Y-65602200D03*
X51460000Y-70682200D03*
X56540000Y-70682200D03*
X56540000Y-65602200D03*
D14*
X54000000Y-68142200D03*
D15*
X52290000Y-58180000D03*
X52290000Y-60720000D03*
X50290000Y-58180000D03*
X50290000Y-60720000D03*
X49250000Y-88881300D03*
X49250000Y-86341300D03*
X51250000Y-88881300D03*
X51250000Y-86341300D03*
X49250000Y-82899600D03*
X49250000Y-80359600D03*
X51250000Y-82899600D03*
X51250000Y-80359600D03*
D12*
X68910000Y-82240000D03*
X71150000Y-82300000D03*
X74110000Y-77980000D03*
X61130000Y-102370000D03*
X66090000Y-96140000D03*
D16*
X50561300Y-95117000D03*
X50561300Y-97117000D03*
X50561300Y-93117000D03*
X50561300Y-99117000D03*
M02*
