%FSLAX45Y45*%
G04 Gerber Fmt 4.5, Leading zero omitted, Abs format (unit mm)*
G04 Created by KiCad (PCBNEW 5.1.10-88a1d61d58~88~ubuntu20.04.1) date 2021-05-10 20:01:07*
%MOMM*%
%LPD*%
G01*
G04 APERTURE LIST*
%TA.AperFunction,Profile*%
%ADD10C,0.200000*%
%TD*%
%ADD11C,0.200000*%
%ADD12C,0.300000*%
G04 APERTURE END LIST*
D10*
X9553000Y-4898710D02*
X9461000Y-4898710D01*
X9553013Y-4898785D02*
G75*
G02*
X9599983Y-4950000I-3031J-49925D01*
G01*
X9050544Y-4699388D02*
G75*
G03*
X9010000Y-4679980I-39562J-30592D01*
G01*
X9050702Y-4699267D02*
G75*
G03*
X9461000Y-4898710I448331J400557D01*
G01*
X9550000Y-10931270D02*
X9459050Y-10931270D01*
X4842946Y-4898572D02*
G75*
G03*
X4800000Y-4949000I7054J-49509D01*
G01*
X5249851Y-4698882D02*
G75*
G02*
X5290000Y-4680000I39149J-31118D01*
G01*
X5249817Y-4698851D02*
G75*
G02*
X4842946Y-4898576I-448867J400121D01*
G01*
X5251248Y-11132784D02*
G75*
G03*
X5289000Y-11150000I37752J32784D01*
G01*
X5251274Y-11132762D02*
G75*
G03*
X4840950Y-10931270I-450324J-398508D01*
G01*
X4841318Y-10931240D02*
G75*
G02*
X4800000Y-10882000I8682J49240D01*
G01*
X9051610Y-11129527D02*
G75*
G02*
X9459050Y-10931270I447440J-401743D01*
G01*
X9051483Y-11129413D02*
G75*
G02*
X9009000Y-11150000I-40483J29413D01*
G01*
X9550000Y-10931286D02*
G75*
G03*
X9600000Y-10880000I0J50016D01*
G01*
X7495800Y-11348120D02*
X7495800Y-11378600D01*
X7297680Y-11150000D02*
X5289000Y-11150000D01*
X8003800Y-11505600D02*
X7617720Y-11505600D01*
X8130800Y-11348120D02*
X8130800Y-11383680D01*
X8329000Y-11150000D02*
X9009000Y-11150000D01*
X8130698Y-11383676D02*
G75*
G02*
X8003800Y-11505600I-126899J5076D01*
G01*
X7617724Y-11505498D02*
G75*
G02*
X7495800Y-11378600I5076J126899D01*
G01*
X7297680Y-11150000D02*
G75*
G02*
X7495800Y-11348120I0J-198120D01*
G01*
X8130800Y-11348120D02*
G75*
G02*
X8328920Y-11150000I198120J0D01*
G01*
X9600000Y-4950000D02*
X9600000Y-10880000D01*
X5290000Y-4680000D02*
X9010000Y-4679980D01*
X4800000Y-10882000D02*
X4800000Y-4949000D01*
D11*
X4909050Y-9118240D02*
X4939050Y-9148240D01*
X4939050Y-9118240D02*
X4909050Y-9148240D01*
X4970000Y-6715000D02*
X5000000Y-6745000D01*
X5000000Y-6715000D02*
X4970000Y-6745000D01*
X4970000Y-6875000D02*
X5000000Y-6905000D01*
X5000000Y-6875000D02*
X4970000Y-6905000D01*
X5000000Y-5145000D02*
X5030000Y-5175000D01*
X5030000Y-5145000D02*
X5000000Y-5175000D01*
X5004300Y-8149230D02*
X5034300Y-8179230D01*
X5034300Y-8149230D02*
X5004300Y-8179230D01*
X5008110Y-8452760D02*
X5038110Y-8482760D01*
X5038110Y-8452760D02*
X5008110Y-8482760D01*
X5010650Y-8746130D02*
X5040650Y-8776130D01*
X5040650Y-8746130D02*
X5010650Y-8776130D01*
X5012500Y-7290000D02*
X5042500Y-7320000D01*
X5042500Y-7290000D02*
X5012500Y-7320000D01*
X5037000Y-10124000D02*
X5067000Y-10154000D01*
X5067000Y-10124000D02*
X5037000Y-10154000D01*
X5090000Y-10785000D02*
X5120000Y-10815000D01*
X5120000Y-10785000D02*
X5090000Y-10815000D01*
X5130000Y-6805000D02*
X5160000Y-6835000D01*
X5160000Y-6805000D02*
X5130000Y-6835000D01*
X5151112Y-9121796D02*
X5181112Y-9151796D01*
X5181112Y-9121796D02*
X5151112Y-9151796D01*
X5219438Y-5586624D02*
X5249438Y-5616624D01*
X5249438Y-5586624D02*
X5219438Y-5616624D01*
X5310000Y-6385000D02*
X5340000Y-6415000D01*
X5340000Y-6385000D02*
X5310000Y-6415000D01*
X5310000Y-7215000D02*
X5340000Y-7245000D01*
X5340000Y-7215000D02*
X5310000Y-7245000D01*
X5330690Y-7315856D02*
X5360690Y-7345856D01*
X5360690Y-7315856D02*
X5330690Y-7345856D01*
X5390000Y-6545000D02*
X5420000Y-6575000D01*
X5420000Y-6545000D02*
X5390000Y-6575000D01*
X5390000Y-7055000D02*
X5420000Y-7085000D01*
X5420000Y-7055000D02*
X5390000Y-7085000D01*
X5393936Y-5595006D02*
X5423936Y-5625006D01*
X5423936Y-5595006D02*
X5393936Y-5625006D01*
X5470000Y-6385000D02*
X5500000Y-6415000D01*
X5500000Y-6385000D02*
X5470000Y-6415000D01*
X5470000Y-7215000D02*
X5500000Y-7245000D01*
X5500000Y-7215000D02*
X5470000Y-7245000D01*
X5470000Y-10455000D02*
X5500000Y-10485000D01*
X5500000Y-10455000D02*
X5470000Y-10485000D01*
X5610000Y-5155000D02*
X5640000Y-5185000D01*
X5640000Y-5155000D02*
X5610000Y-5185000D01*
X5680000Y-10805000D02*
X5710000Y-10835000D01*
X5710000Y-10805000D02*
X5680000Y-10835000D01*
X5730000Y-9230000D02*
X5760000Y-9260000D01*
X5760000Y-9230000D02*
X5730000Y-9260000D01*
X5745000Y-9450000D02*
X5775000Y-9480000D01*
X5775000Y-9450000D02*
X5745000Y-9480000D01*
X5759000Y-8496000D02*
X5789000Y-8526000D01*
X5789000Y-8496000D02*
X5759000Y-8526000D01*
X5765000Y-9340000D02*
X5795000Y-9370000D01*
X5795000Y-9340000D02*
X5765000Y-9370000D01*
X5820000Y-8375000D02*
X5850000Y-8405000D01*
X5850000Y-8375000D02*
X5820000Y-8405000D01*
X5830000Y-6395000D02*
X5860000Y-6425000D01*
X5860000Y-6395000D02*
X5830000Y-6425000D01*
X5830000Y-7195000D02*
X5860000Y-7225000D01*
X5860000Y-7195000D02*
X5830000Y-7225000D01*
X5830000Y-8631000D02*
X5860000Y-8661000D01*
X5860000Y-8631000D02*
X5830000Y-8661000D01*
X5925000Y-9758000D02*
X5955000Y-9788000D01*
X5955000Y-9758000D02*
X5925000Y-9788000D01*
X5960000Y-10815000D02*
X5990000Y-10845000D01*
X5990000Y-10815000D02*
X5960000Y-10845000D01*
X5985000Y-10149000D02*
X6015000Y-10179000D01*
X6015000Y-10149000D02*
X5985000Y-10179000D01*
X6000000Y-6445000D02*
X6030000Y-6475000D01*
X6030000Y-6445000D02*
X6000000Y-6475000D01*
X6000000Y-7155000D02*
X6030000Y-7185000D01*
X6030000Y-7155000D02*
X6000000Y-7185000D01*
X6013000Y-8438000D02*
X6043000Y-8468000D01*
X6043000Y-8438000D02*
X6013000Y-8468000D01*
X6038000Y-7835000D02*
X6068000Y-7865000D01*
X6068000Y-7835000D02*
X6038000Y-7865000D01*
X6038000Y-8010000D02*
X6068000Y-8040000D01*
X6068000Y-8010000D02*
X6038000Y-8040000D01*
X6045000Y-8976000D02*
X6075000Y-9006000D01*
X6075000Y-8976000D02*
X6045000Y-9006000D01*
X6169000Y-10475000D02*
X6199000Y-10505000D01*
X6199000Y-10475000D02*
X6169000Y-10505000D01*
X6170000Y-6585000D02*
X6200000Y-6615000D01*
X6200000Y-6585000D02*
X6170000Y-6615000D01*
X6170000Y-6735000D02*
X6200000Y-6765000D01*
X6200000Y-6735000D02*
X6170000Y-6765000D01*
X6170000Y-6875000D02*
X6200000Y-6905000D01*
X6200000Y-6875000D02*
X6170000Y-6905000D01*
X6170000Y-7015000D02*
X6200000Y-7045000D01*
X6200000Y-7015000D02*
X6170000Y-7045000D01*
X6186000Y-8382000D02*
X6216000Y-8412000D01*
X6216000Y-8382000D02*
X6186000Y-8412000D01*
X6205000Y-8786000D02*
X6235000Y-8816000D01*
X6235000Y-8786000D02*
X6205000Y-8816000D01*
X6208000Y-8981000D02*
X6238000Y-9011000D01*
X6238000Y-8981000D02*
X6208000Y-9011000D01*
X6215000Y-10148000D02*
X6245000Y-10178000D01*
X6245000Y-10148000D02*
X6215000Y-10178000D01*
X6280000Y-10785000D02*
X6310000Y-10815000D01*
X6310000Y-10785000D02*
X6280000Y-10815000D01*
X6310000Y-4825000D02*
X6340000Y-4855000D01*
X6340000Y-4825000D02*
X6310000Y-4855000D01*
X6310000Y-5015000D02*
X6340000Y-5045000D01*
X6340000Y-5015000D02*
X6310000Y-5045000D01*
X6368000Y-7821000D02*
X6398000Y-7851000D01*
X6398000Y-7821000D02*
X6368000Y-7851000D01*
X6375000Y-10148000D02*
X6405000Y-10178000D01*
X6405000Y-10148000D02*
X6375000Y-10178000D01*
X6382000Y-8111000D02*
X6412000Y-8141000D01*
X6412000Y-8111000D02*
X6382000Y-8141000D01*
X6390000Y-8841000D02*
X6420000Y-8871000D01*
X6420000Y-8841000D02*
X6390000Y-8871000D01*
X6405000Y-9468000D02*
X6435000Y-9498000D01*
X6435000Y-9468000D02*
X6405000Y-9498000D01*
X6422000Y-9585000D02*
X6452000Y-9615000D01*
X6452000Y-9585000D02*
X6422000Y-9615000D01*
X6497000Y-10046000D02*
X6527000Y-10076000D01*
X6527000Y-10046000D02*
X6497000Y-10076000D01*
X6507000Y-8231000D02*
X6537000Y-8261000D01*
X6537000Y-8231000D02*
X6507000Y-8261000D01*
X6510000Y-9278000D02*
X6540000Y-9308000D01*
X6540000Y-9278000D02*
X6510000Y-9308000D01*
X6530000Y-5135000D02*
X6560000Y-5165000D01*
X6560000Y-5135000D02*
X6530000Y-5165000D01*
X6545000Y-5965000D02*
X6575000Y-5995000D01*
X6575000Y-5965000D02*
X6545000Y-5995000D01*
X6550000Y-5625000D02*
X6580000Y-5655000D01*
X6580000Y-5625000D02*
X6550000Y-5655000D01*
X6557500Y-7195000D02*
X6587500Y-7225000D01*
X6587500Y-7195000D02*
X6557500Y-7225000D01*
X6557500Y-7382500D02*
X6587500Y-7412500D01*
X6587500Y-7382500D02*
X6557500Y-7412500D01*
X6565000Y-9002000D02*
X6595000Y-9032000D01*
X6595000Y-9002000D02*
X6565000Y-9032000D01*
X6633000Y-8052000D02*
X6663000Y-8082000D01*
X6663000Y-8052000D02*
X6633000Y-8082000D01*
X6645000Y-8997000D02*
X6675000Y-9027000D01*
X6675000Y-8997000D02*
X6645000Y-9027000D01*
X6645000Y-10048000D02*
X6675000Y-10078000D01*
X6675000Y-10048000D02*
X6645000Y-10078000D01*
X6689000Y-8431000D02*
X6719000Y-8461000D01*
X6719000Y-8431000D02*
X6689000Y-8461000D01*
X6690000Y-6045000D02*
X6720000Y-6075000D01*
X6720000Y-6045000D02*
X6690000Y-6075000D01*
X6690000Y-7080000D02*
X6720000Y-7110000D01*
X6720000Y-7080000D02*
X6690000Y-7110000D01*
X6693000Y-8548000D02*
X6723000Y-8578000D01*
X6723000Y-8548000D02*
X6693000Y-8578000D01*
X6694000Y-8743000D02*
X6724000Y-8773000D01*
X6724000Y-8743000D02*
X6694000Y-8773000D01*
X6700000Y-5570000D02*
X6730000Y-5600000D01*
X6730000Y-5570000D02*
X6700000Y-5600000D01*
X6716000Y-9351000D02*
X6746000Y-9381000D01*
X6746000Y-9351000D02*
X6716000Y-9381000D01*
X6732000Y-9582000D02*
X6762000Y-9612000D01*
X6762000Y-9582000D02*
X6732000Y-9612000D01*
X6732000Y-9742000D02*
X6762000Y-9772000D01*
X6762000Y-9742000D02*
X6732000Y-9772000D01*
X6732000Y-9922000D02*
X6762000Y-9952000D01*
X6762000Y-9922000D02*
X6732000Y-9952000D01*
X6748000Y-8319000D02*
X6778000Y-8349000D01*
X6778000Y-8319000D02*
X6748000Y-8349000D01*
X6749000Y-7978000D02*
X6779000Y-8008000D01*
X6779000Y-7978000D02*
X6749000Y-8008000D01*
X6768000Y-10471000D02*
X6798000Y-10501000D01*
X6798000Y-10471000D02*
X6768000Y-10501000D01*
X6845000Y-9314000D02*
X6875000Y-9344000D01*
X6875000Y-9314000D02*
X6845000Y-9344000D01*
X6849000Y-9428000D02*
X6879000Y-9458000D01*
X6879000Y-9428000D02*
X6849000Y-9458000D01*
X6850000Y-5135000D02*
X6880000Y-5165000D01*
X6880000Y-5135000D02*
X6850000Y-5165000D01*
X6866000Y-8463000D02*
X6896000Y-8493000D01*
X6896000Y-8463000D02*
X6866000Y-8493000D01*
X6868000Y-9180000D02*
X6898000Y-9210000D01*
X6898000Y-9180000D02*
X6868000Y-9210000D01*
X6872000Y-9638000D02*
X6902000Y-9668000D01*
X6902000Y-9638000D02*
X6872000Y-9668000D01*
X6885000Y-6045000D02*
X6915000Y-6075000D01*
X6915000Y-6045000D02*
X6885000Y-6075000D01*
X6890000Y-5570000D02*
X6920000Y-5600000D01*
X6920000Y-5570000D02*
X6890000Y-5600000D01*
X6893000Y-8772000D02*
X6923000Y-8802000D01*
X6923000Y-8772000D02*
X6893000Y-8802000D01*
X6896000Y-9095000D02*
X6926000Y-9125000D01*
X6926000Y-9095000D02*
X6896000Y-9125000D01*
X6994644Y-6536584D02*
X7024644Y-6566584D01*
X7024644Y-6536584D02*
X6994644Y-6566584D01*
X6999000Y-8772000D02*
X7029000Y-8802000D01*
X7029000Y-8772000D02*
X6999000Y-8802000D01*
X7015000Y-8115000D02*
X7045000Y-8145000D01*
X7045000Y-8115000D02*
X7015000Y-8145000D01*
X7050000Y-4805000D02*
X7080000Y-4835000D01*
X7080000Y-4805000D02*
X7050000Y-4835000D01*
X7050000Y-5005000D02*
X7080000Y-5035000D01*
X7080000Y-5005000D02*
X7050000Y-5035000D01*
X7064000Y-9651000D02*
X7094000Y-9681000D01*
X7094000Y-9651000D02*
X7064000Y-9681000D01*
X7075000Y-6045000D02*
X7105000Y-6075000D01*
X7105000Y-6045000D02*
X7075000Y-6075000D01*
X7090000Y-5570000D02*
X7120000Y-5600000D01*
X7120000Y-5570000D02*
X7090000Y-5600000D01*
X7109000Y-9247000D02*
X7139000Y-9277000D01*
X7139000Y-9247000D02*
X7109000Y-9277000D01*
X7151000Y-7850000D02*
X7181000Y-7880000D01*
X7181000Y-7850000D02*
X7151000Y-7880000D01*
X7190000Y-10225000D02*
X7220000Y-10255000D01*
X7220000Y-10225000D02*
X7190000Y-10255000D01*
X7230000Y-8115000D02*
X7260000Y-8145000D01*
X7260000Y-8115000D02*
X7230000Y-8145000D01*
X7285000Y-5570000D02*
X7315000Y-5600000D01*
X7315000Y-5570000D02*
X7285000Y-5600000D01*
X7300000Y-10495000D02*
X7330000Y-10525000D01*
X7330000Y-10495000D02*
X7300000Y-10525000D01*
X7307020Y-8727640D02*
X7337020Y-8757640D01*
X7337020Y-8727640D02*
X7307020Y-8757640D01*
X7307020Y-8867270D02*
X7337020Y-8897270D01*
X7337020Y-8867270D02*
X7307020Y-8897270D01*
X7307020Y-9007640D02*
X7337020Y-9037640D01*
X7337020Y-9007640D02*
X7307020Y-9037640D01*
X7313000Y-8268000D02*
X7343000Y-8298000D01*
X7343000Y-8268000D02*
X7313000Y-8298000D01*
X7398504Y-6043824D02*
X7428504Y-6073824D01*
X7428504Y-6043824D02*
X7398504Y-6073824D01*
X7403000Y-9821000D02*
X7433000Y-9851000D01*
X7433000Y-9821000D02*
X7403000Y-9851000D01*
X7407648Y-6986164D02*
X7437648Y-7016164D01*
X7437648Y-6986164D02*
X7407648Y-7016164D01*
X7447020Y-8727640D02*
X7477020Y-8757640D01*
X7477020Y-8727640D02*
X7447020Y-8757640D01*
X7447020Y-8867640D02*
X7477020Y-8897640D01*
X7477020Y-8867640D02*
X7447020Y-8897640D01*
X7447020Y-9007640D02*
X7477020Y-9037640D01*
X7477020Y-9007640D02*
X7447020Y-9037640D01*
X7465000Y-8338000D02*
X7495000Y-8368000D01*
X7495000Y-8338000D02*
X7465000Y-8368000D01*
X7559000Y-9968000D02*
X7589000Y-9998000D01*
X7589000Y-9968000D02*
X7559000Y-9998000D01*
X7570442Y-8137000D02*
X7600442Y-8167000D01*
X7600442Y-8137000D02*
X7570442Y-8167000D01*
X7587000Y-7782000D02*
X7617000Y-7812000D01*
X7617000Y-7782000D02*
X7587000Y-7812000D01*
X7587020Y-8727640D02*
X7617020Y-8757640D01*
X7617020Y-8727640D02*
X7587020Y-8757640D01*
X7587020Y-8867270D02*
X7617020Y-8897270D01*
X7617020Y-8867270D02*
X7587020Y-8897270D01*
X7587020Y-9007640D02*
X7617020Y-9037640D01*
X7617020Y-9007640D02*
X7587020Y-9037640D01*
X7662000Y-10553000D02*
X7692000Y-10583000D01*
X7692000Y-10553000D02*
X7662000Y-10583000D01*
X7687000Y-9561000D02*
X7717000Y-9591000D01*
X7717000Y-9561000D02*
X7687000Y-9591000D01*
X7689000Y-9843000D02*
X7719000Y-9873000D01*
X7719000Y-9843000D02*
X7689000Y-9873000D01*
X7690000Y-8275000D02*
X7720000Y-8305000D01*
X7720000Y-8275000D02*
X7690000Y-8305000D01*
X7747246Y-6518042D02*
X7777246Y-6548042D01*
X7777246Y-6518042D02*
X7747246Y-6548042D01*
X7750000Y-8475000D02*
X7780000Y-8505000D01*
X7780000Y-8475000D02*
X7750000Y-8505000D01*
X7774000Y-9290000D02*
X7804000Y-9320000D01*
X7804000Y-9290000D02*
X7774000Y-9320000D01*
X7840000Y-8565000D02*
X7870000Y-8595000D01*
X7870000Y-8565000D02*
X7840000Y-8595000D01*
X7850000Y-8715000D02*
X7880000Y-8745000D01*
X7880000Y-8715000D02*
X7850000Y-8745000D01*
X7865000Y-9843000D02*
X7895000Y-9873000D01*
X7895000Y-9843000D02*
X7865000Y-9873000D01*
X7901000Y-9290000D02*
X7931000Y-9320000D01*
X7931000Y-9290000D02*
X7901000Y-9320000D01*
X8018000Y-10540000D02*
X8048000Y-10570000D01*
X8048000Y-10540000D02*
X8018000Y-10570000D01*
X8020000Y-8665000D02*
X8050000Y-8695000D01*
X8050000Y-8665000D02*
X8020000Y-8695000D01*
X8049000Y-10150000D02*
X8079000Y-10180000D01*
X8079000Y-10150000D02*
X8049000Y-10180000D01*
X8055000Y-9841000D02*
X8085000Y-9871000D01*
X8085000Y-9841000D02*
X8055000Y-9871000D01*
X8068000Y-9290000D02*
X8098000Y-9320000D01*
X8098000Y-9290000D02*
X8068000Y-9320000D01*
X8076430Y-7038234D02*
X8106430Y-7068234D01*
X8106430Y-7038234D02*
X8076430Y-7068234D01*
X8089892Y-6059318D02*
X8119892Y-6089318D01*
X8119892Y-6059318D02*
X8089892Y-6089318D01*
X8100000Y-8342500D02*
X8130000Y-8372500D01*
X8130000Y-8342500D02*
X8100000Y-8372500D01*
X8121000Y-7820000D02*
X8151000Y-7850000D01*
X8151000Y-7820000D02*
X8121000Y-7850000D01*
X8160000Y-4825000D02*
X8190000Y-4855000D01*
X8190000Y-4825000D02*
X8160000Y-4855000D01*
X8160000Y-5015000D02*
X8190000Y-5045000D01*
X8190000Y-5015000D02*
X8160000Y-5045000D01*
X8182000Y-9582000D02*
X8212000Y-9612000D01*
X8212000Y-9582000D02*
X8182000Y-9612000D01*
X8183000Y-9427000D02*
X8213000Y-9457000D01*
X8213000Y-9427000D02*
X8183000Y-9457000D01*
X8183000Y-9731000D02*
X8213000Y-9761000D01*
X8213000Y-9731000D02*
X8183000Y-9761000D01*
X8190000Y-8665000D02*
X8220000Y-8695000D01*
X8220000Y-8665000D02*
X8190000Y-8695000D01*
X8240000Y-8795000D02*
X8270000Y-8825000D01*
X8270000Y-8795000D02*
X8240000Y-8825000D01*
X8240000Y-8975000D02*
X8270000Y-9005000D01*
X8270000Y-8975000D02*
X8240000Y-9005000D01*
X8290000Y-5135000D02*
X8320000Y-5165000D01*
X8320000Y-5135000D02*
X8290000Y-5165000D01*
X8342000Y-7287000D02*
X8372000Y-7317000D01*
X8372000Y-7287000D02*
X8342000Y-7317000D01*
X8379000Y-8534000D02*
X8409000Y-8564000D01*
X8409000Y-8534000D02*
X8379000Y-8564000D01*
X8428000Y-10343000D02*
X8458000Y-10373000D01*
X8458000Y-10343000D02*
X8428000Y-10373000D01*
X8446000Y-9901000D02*
X8476000Y-9931000D01*
X8476000Y-9901000D02*
X8446000Y-9931000D01*
X8455000Y-8790000D02*
X8485000Y-8820000D01*
X8485000Y-8790000D02*
X8455000Y-8820000D01*
X8463000Y-9359000D02*
X8493000Y-9389000D01*
X8493000Y-9359000D02*
X8463000Y-9389000D01*
X8485000Y-8164000D02*
X8515000Y-8194000D01*
X8515000Y-8164000D02*
X8485000Y-8194000D01*
X8512000Y-7289000D02*
X8542000Y-7319000D01*
X8542000Y-7289000D02*
X8512000Y-7319000D01*
X8548000Y-7916000D02*
X8578000Y-7946000D01*
X8578000Y-7916000D02*
X8548000Y-7946000D01*
X8600000Y-7555000D02*
X8630000Y-7585000D01*
X8630000Y-7555000D02*
X8600000Y-7585000D01*
X8610000Y-5135000D02*
X8640000Y-5165000D01*
X8640000Y-5135000D02*
X8610000Y-5165000D01*
X8626000Y-6579000D02*
X8656000Y-6609000D01*
X8656000Y-6579000D02*
X8626000Y-6609000D01*
X8660000Y-7300000D02*
X8690000Y-7330000D01*
X8690000Y-7300000D02*
X8660000Y-7330000D01*
X8710000Y-7555000D02*
X8740000Y-7585000D01*
X8740000Y-7555000D02*
X8710000Y-7585000D01*
X8710000Y-8145000D02*
X8740000Y-8175000D01*
X8740000Y-8145000D02*
X8710000Y-8175000D01*
X8719000Y-8691000D02*
X8749000Y-8721000D01*
X8749000Y-8691000D02*
X8719000Y-8721000D01*
X8732000Y-8957000D02*
X8762000Y-8987000D01*
X8762000Y-8957000D02*
X8732000Y-8987000D01*
X8740000Y-6580000D02*
X8770000Y-6610000D01*
X8770000Y-6580000D02*
X8740000Y-6610000D01*
X8747000Y-6777000D02*
X8777000Y-6807000D01*
X8777000Y-6777000D02*
X8747000Y-6807000D01*
X8755000Y-6315000D02*
X8785000Y-6345000D01*
X8785000Y-6315000D02*
X8755000Y-6345000D01*
X8800000Y-7475000D02*
X8830000Y-7505000D01*
X8830000Y-7475000D02*
X8800000Y-7505000D01*
X8940000Y-8957500D02*
X8970000Y-8987500D01*
X8970000Y-8957500D02*
X8940000Y-8987500D01*
X8945000Y-8700000D02*
X8975000Y-8730000D01*
X8975000Y-8700000D02*
X8945000Y-8730000D01*
X8980000Y-7965000D02*
X9010000Y-7995000D01*
X9010000Y-7965000D02*
X8980000Y-7995000D01*
X8980000Y-8177500D02*
X9010000Y-8207500D01*
X9010000Y-8177500D02*
X8980000Y-8207500D01*
X8987000Y-7318000D02*
X9017000Y-7348000D01*
X9017000Y-7318000D02*
X8987000Y-7348000D01*
X8996000Y-7090000D02*
X9026000Y-7120000D01*
X9026000Y-7090000D02*
X8996000Y-7120000D01*
X8999000Y-6931000D02*
X9029000Y-6961000D01*
X9029000Y-6931000D02*
X8999000Y-6961000D01*
X9101000Y-10867000D02*
X9131000Y-10897000D01*
X9131000Y-10867000D02*
X9101000Y-10897000D01*
X9184886Y-4917588D02*
X9214886Y-4947588D01*
X9214886Y-4917588D02*
X9184886Y-4947588D01*
X9200634Y-10475870D02*
X9230634Y-10505870D01*
X9230634Y-10475870D02*
X9200634Y-10505870D01*
X9219430Y-9216792D02*
X9249430Y-9246792D01*
X9249430Y-9216792D02*
X9219430Y-9246792D01*
X9225526Y-9471554D02*
X9255526Y-9501554D01*
X9255526Y-9471554D02*
X9225526Y-9501554D01*
X9260000Y-10092000D02*
X9290000Y-10122000D01*
X9290000Y-10092000D02*
X9260000Y-10122000D01*
X9280000Y-5265000D02*
X9310000Y-5295000D01*
X9310000Y-5265000D02*
X9280000Y-5295000D01*
X9362940Y-10742062D02*
X9392940Y-10772062D01*
X9392940Y-10742062D02*
X9362940Y-10772062D01*
X9380000Y-5615000D02*
X9410000Y-5645000D01*
X9410000Y-5615000D02*
X9380000Y-5645000D01*
X9400000Y-9515000D02*
X9430000Y-9545000D01*
X9430000Y-9515000D02*
X9400000Y-9545000D01*
X5595233Y-8314670D02*
G75*
G03*
X5595233Y-8314670I-20000J0D01*
G01*
X5674284Y-8314992D02*
G75*
G03*
X5674284Y-8314992I-20000J0D01*
G01*
X5828000Y-8217000D02*
G75*
G03*
X5828000Y-8217000I-20000J0D01*
G01*
X5874000Y-8830000D02*
G75*
G03*
X5874000Y-8830000I-20000J0D01*
G01*
X5900000Y-7825000D02*
G75*
G03*
X5900000Y-7825000I-20000J0D01*
G01*
X5900000Y-7915000D02*
G75*
G03*
X5900000Y-7915000I-20000J0D01*
G01*
X6091635Y-9086633D02*
G75*
G03*
X6091635Y-9086633I-20000J0D01*
G01*
X6124000Y-10176000D02*
G75*
G03*
X6124000Y-10176000I-20000J0D01*
G01*
X6415000Y-11010000D02*
G75*
G03*
X6415000Y-11010000I-20000J0D01*
G01*
X6436594Y-11094357D02*
G75*
G03*
X6436594Y-11094357I-20000J0D01*
G01*
X6621000Y-9650000D02*
G75*
G03*
X6621000Y-9650000I-20000J0D01*
G01*
X6900000Y-9030000D02*
G75*
G03*
X6900000Y-9030000I-20000J0D01*
G01*
X6935000Y-8265000D02*
G75*
G03*
X6935000Y-8265000I-20000J0D01*
G01*
X7104000Y-8220000D02*
G75*
G03*
X7104000Y-8220000I-20000J0D01*
G01*
X7196868Y-10881869D02*
G75*
G03*
X7196868Y-10881869I-20000J0D01*
G01*
X7286000Y-9335000D02*
G75*
G03*
X7286000Y-9335000I-20000J0D01*
G01*
X7365000Y-9361000D02*
G75*
G03*
X7365000Y-9361000I-20000J0D01*
G01*
X7376000Y-10617000D02*
G75*
G03*
X7376000Y-10617000I-20000J0D01*
G01*
X7382000Y-8437000D02*
G75*
G03*
X7382000Y-8437000I-20000J0D01*
G01*
X7413211Y-9288000D02*
G75*
G03*
X7413211Y-9288000I-20000J0D01*
G01*
X7422000Y-7734839D02*
G75*
G03*
X7422000Y-7734839I-20000J0D01*
G01*
X7428000Y-7858481D02*
G75*
G03*
X7428000Y-7858481I-20000J0D01*
G01*
X7502000Y-8436000D02*
G75*
G03*
X7502000Y-8436000I-20000J0D01*
G01*
X7520000Y-9576000D02*
G75*
G03*
X7520000Y-9576000I-20000J0D01*
G01*
X7523000Y-10478000D02*
G75*
G03*
X7523000Y-10478000I-20000J0D01*
G01*
X7524000Y-10570000D02*
G75*
G03*
X7524000Y-10570000I-20000J0D01*
G01*
X8479004Y-9053972D02*
G75*
G03*
X8479004Y-9053972I-20000J0D01*
G01*
X8515000Y-7580000D02*
G75*
G03*
X8515000Y-7580000I-20000J0D01*
G01*
X8535000Y-9259000D02*
G75*
G03*
X8535000Y-9259000I-20000J0D01*
G01*
X8545789Y-9011679D02*
G75*
G03*
X8545789Y-9011679I-20000J0D01*
G01*
X8605000Y-8640000D02*
G75*
G03*
X8605000Y-8640000I-20000J0D01*
G01*
X8605000Y-8790000D02*
G75*
G03*
X8605000Y-8790000I-20000J0D01*
G01*
X8674000Y-5925000D02*
G75*
G03*
X8674000Y-5925000I-20000J0D01*
G01*
X8688259Y-10126119D02*
G75*
G03*
X8688259Y-10126119I-20000J0D01*
G01*
X8832481Y-7021438D02*
G75*
G03*
X8832481Y-7021438I-20000J0D01*
G01*
X8932358Y-7620416D02*
G75*
G03*
X8932358Y-7620416I-20000J0D01*
G01*
X9035000Y-6750000D02*
G75*
G03*
X9035000Y-6750000I-20000J0D01*
G01*
X9046179Y-5861304D02*
G75*
G03*
X9046179Y-5861304I-20000J0D01*
G01*
X9057000Y-7625000D02*
G75*
G03*
X9057000Y-7625000I-20000J0D01*
G01*
X9136000Y-5857000D02*
G75*
G03*
X9136000Y-5857000I-20000J0D01*
G01*
X9223370Y-5842329D02*
G75*
G03*
X9223370Y-5842329I-20000J0D01*
G01*
X9311306Y-5848883D02*
G75*
G03*
X9311306Y-5848883I-20000J0D01*
G01*
X9363142Y-8664864D02*
G75*
G03*
X9363142Y-8664864I-20000J0D01*
G01*
X4925000Y-7995960D02*
X4925000Y-8075960D01*
X4885000Y-8035960D02*
X4965000Y-8035960D01*
X4925000Y-8249960D02*
X4925000Y-8329960D01*
X4885000Y-8289960D02*
X4965000Y-8289960D01*
X4925000Y-8594130D02*
X4925000Y-8674130D01*
X4885000Y-8634130D02*
X4965000Y-8634130D01*
X4925000Y-8848130D02*
X4925000Y-8928130D01*
X4885000Y-8888130D02*
X4965000Y-8888130D01*
X5021000Y-10335000D02*
X5021000Y-10415000D01*
X4981000Y-10375000D02*
X5061000Y-10375000D01*
X5021000Y-10589000D02*
X5021000Y-10669000D01*
X4981000Y-10629000D02*
X5061000Y-10629000D01*
X5029000Y-5778000D02*
X5029000Y-5858000D01*
X4989000Y-5818000D02*
X5069000Y-5818000D01*
X5029000Y-6032000D02*
X5029000Y-6112000D01*
X4989000Y-6072000D02*
X5069000Y-6072000D01*
X5056130Y-9271700D02*
X5056130Y-9351700D01*
X5016130Y-9311700D02*
X5096130Y-9311700D01*
X5056130Y-9471700D02*
X5056130Y-9551700D01*
X5016130Y-9511700D02*
X5096130Y-9511700D01*
X5056130Y-9671700D02*
X5056130Y-9751700D01*
X5016130Y-9711700D02*
X5096130Y-9711700D01*
X5056130Y-9871700D02*
X5056130Y-9951700D01*
X5016130Y-9911700D02*
X5096130Y-9911700D01*
X5125000Y-7995960D02*
X5125000Y-8075960D01*
X5085000Y-8035960D02*
X5165000Y-8035960D01*
X5125000Y-8249960D02*
X5125000Y-8329960D01*
X5085000Y-8289960D02*
X5165000Y-8289960D01*
X5125000Y-8594130D02*
X5125000Y-8674130D01*
X5085000Y-8634130D02*
X5165000Y-8634130D01*
X5125000Y-8848130D02*
X5125000Y-8928130D01*
X5085000Y-8888130D02*
X5165000Y-8888130D01*
X5229000Y-5778000D02*
X5229000Y-5858000D01*
X5189000Y-5818000D02*
X5269000Y-5818000D01*
X5229000Y-6032000D02*
X5229000Y-6112000D01*
X5189000Y-6072000D02*
X5269000Y-6072000D01*
X5361000Y-7786500D02*
X5361000Y-7866500D01*
X5321000Y-7826500D02*
X5401000Y-7826500D01*
X5361000Y-8040500D02*
X5361000Y-8120500D01*
X5321000Y-8080500D02*
X5401000Y-8080500D01*
X5361000Y-8294500D02*
X5361000Y-8374500D01*
X5321000Y-8334500D02*
X5401000Y-8334500D01*
X5361000Y-8548500D02*
X5361000Y-8628500D01*
X5321000Y-8588500D02*
X5401000Y-8588500D01*
X5361000Y-8802500D02*
X5361000Y-8882500D01*
X5321000Y-8842500D02*
X5401000Y-8842500D01*
X5361000Y-9056500D02*
X5361000Y-9136500D01*
X5321000Y-9096500D02*
X5401000Y-9096500D01*
X5361000Y-9310500D02*
X5361000Y-9390500D01*
X5321000Y-9350500D02*
X5401000Y-9350500D01*
X5361000Y-9564500D02*
X5361000Y-9644500D01*
X5321000Y-9604500D02*
X5401000Y-9604500D01*
X5361000Y-9818500D02*
X5361000Y-9898500D01*
X5321000Y-9858500D02*
X5401000Y-9858500D01*
X5361000Y-10072500D02*
X5361000Y-10152500D01*
X5321000Y-10112500D02*
X5401000Y-10112500D01*
X5361000Y-10326500D02*
X5361000Y-10406500D01*
X5321000Y-10366500D02*
X5401000Y-10366500D01*
X5361000Y-10580500D02*
X5361000Y-10660500D01*
X5321000Y-10620500D02*
X5401000Y-10620500D01*
X5615000Y-8802500D02*
X5615000Y-8882500D01*
X5575000Y-8842500D02*
X5655000Y-8842500D01*
X5615000Y-9056500D02*
X5615000Y-9136500D01*
X5575000Y-9096500D02*
X5655000Y-9096500D01*
X5615000Y-9310500D02*
X5615000Y-9390500D01*
X5575000Y-9350500D02*
X5655000Y-9350500D01*
X5615000Y-9564500D02*
X5615000Y-9644500D01*
X5575000Y-9604500D02*
X5655000Y-9604500D01*
X5615000Y-9818500D02*
X5615000Y-9898500D01*
X5575000Y-9858500D02*
X5655000Y-9858500D01*
X5615000Y-10072500D02*
X5615000Y-10152500D01*
X5575000Y-10112500D02*
X5655000Y-10112500D01*
X5615000Y-10326500D02*
X5615000Y-10406500D01*
X5575000Y-10366500D02*
X5655000Y-10366500D01*
X5615000Y-10580500D02*
X5615000Y-10660500D01*
X5575000Y-10620500D02*
X5655000Y-10620500D01*
X7684000Y-11277000D02*
X7684000Y-11357000D01*
X7644000Y-11317000D02*
X7724000Y-11317000D01*
X7938000Y-11277000D02*
X7938000Y-11357000D01*
X7898000Y-11317000D02*
X7978000Y-11317000D01*
X8862000Y-7786500D02*
X8862000Y-7866500D01*
X8822000Y-7826500D02*
X8902000Y-7826500D01*
X8862000Y-8040500D02*
X8862000Y-8120500D01*
X8822000Y-8080500D02*
X8902000Y-8080500D01*
X8862000Y-8294500D02*
X8862000Y-8374500D01*
X8822000Y-8334500D02*
X8902000Y-8334500D01*
X8862000Y-8548500D02*
X8862000Y-8628500D01*
X8822000Y-8588500D02*
X8902000Y-8588500D01*
X8862000Y-8802500D02*
X8862000Y-8882500D01*
X8822000Y-8842500D02*
X8902000Y-8842500D01*
X8862000Y-9056500D02*
X8862000Y-9136500D01*
X8822000Y-9096500D02*
X8902000Y-9096500D01*
X8862000Y-9310500D02*
X8862000Y-9390500D01*
X8822000Y-9350500D02*
X8902000Y-9350500D01*
X8862000Y-9564500D02*
X8862000Y-9644500D01*
X8822000Y-9604500D02*
X8902000Y-9604500D01*
X8862000Y-9818500D02*
X8862000Y-9898500D01*
X8822000Y-9858500D02*
X8902000Y-9858500D01*
X8862000Y-10072500D02*
X8862000Y-10152500D01*
X8822000Y-10112500D02*
X8902000Y-10112500D01*
X8862000Y-10326500D02*
X8862000Y-10406500D01*
X8822000Y-10366500D02*
X8902000Y-10366500D01*
X8862000Y-10580500D02*
X8862000Y-10660500D01*
X8822000Y-10620500D02*
X8902000Y-10620500D01*
X8967800Y-4786000D02*
X8967800Y-4866000D01*
X8927800Y-4826000D02*
X9007800Y-4826000D01*
X8967800Y-5040000D02*
X8967800Y-5120000D01*
X8927800Y-5080000D02*
X9007800Y-5080000D01*
X8967800Y-5294000D02*
X8967800Y-5374000D01*
X8927800Y-5334000D02*
X9007800Y-5334000D01*
X8967800Y-5548000D02*
X8967800Y-5628000D01*
X8927800Y-5588000D02*
X9007800Y-5588000D01*
X9116000Y-7786500D02*
X9116000Y-7866500D01*
X9076000Y-7826500D02*
X9156000Y-7826500D01*
X9116000Y-8040500D02*
X9116000Y-8120500D01*
X9076000Y-8080500D02*
X9156000Y-8080500D01*
X9116000Y-8294500D02*
X9116000Y-8374500D01*
X9076000Y-8334500D02*
X9156000Y-8334500D01*
X9116000Y-8548500D02*
X9116000Y-8628500D01*
X9076000Y-8588500D02*
X9156000Y-8588500D01*
X9116000Y-8802500D02*
X9116000Y-8882500D01*
X9076000Y-8842500D02*
X9156000Y-8842500D01*
X9116000Y-9056500D02*
X9116000Y-9136500D01*
X9076000Y-9096500D02*
X9156000Y-9096500D01*
X9116000Y-9310500D02*
X9116000Y-9390500D01*
X9076000Y-9350500D02*
X9156000Y-9350500D01*
X9116000Y-9564500D02*
X9116000Y-9644500D01*
X9076000Y-9604500D02*
X9156000Y-9604500D01*
X9116000Y-9818500D02*
X9116000Y-9898500D01*
X9076000Y-9858500D02*
X9156000Y-9858500D01*
X9116000Y-10072500D02*
X9116000Y-10152500D01*
X9076000Y-10112500D02*
X9156000Y-10112500D01*
X9116000Y-10326500D02*
X9116000Y-10406500D01*
X9076000Y-10366500D02*
X9156000Y-10366500D01*
X9116000Y-10580500D02*
X9116000Y-10660500D01*
X9076000Y-10620500D02*
X9156000Y-10620500D01*
X9376670Y-9939060D02*
X9376670Y-10019060D01*
X9336670Y-9979060D02*
X9416670Y-9979060D01*
X9376670Y-10193060D02*
X9376670Y-10273060D01*
X9336670Y-10233060D02*
X9416670Y-10233060D01*
X9376670Y-10447060D02*
X9376670Y-10527060D01*
X9336670Y-10487060D02*
X9416670Y-10487060D01*
X5438891Y-6853111D02*
X5438891Y-6775329D01*
X5361109Y-6775329D01*
X5361109Y-6853111D01*
X5438891Y-6853111D01*
X5146000Y-6630220D02*
X5216000Y-6560220D01*
X5146000Y-6490220D01*
X5076000Y-6560220D01*
X5146000Y-6630220D01*
X5146000Y-7138220D02*
X5216000Y-7068220D01*
X5146000Y-6998220D01*
X5076000Y-7068220D01*
X5146000Y-7138220D01*
X5654000Y-6630220D02*
X5724000Y-6560220D01*
X5654000Y-6490220D01*
X5584000Y-6560220D01*
X5654000Y-6630220D01*
X5654000Y-7138220D02*
X5724000Y-7068220D01*
X5654000Y-6998220D01*
X5584000Y-7068220D01*
X5654000Y-7138220D01*
D12*
X5076420Y-11981314D02*
X5076420Y-11681314D01*
X5147849Y-11681314D01*
X5190706Y-11695600D01*
X5219277Y-11724171D01*
X5233563Y-11752743D01*
X5247849Y-11809886D01*
X5247849Y-11852743D01*
X5233563Y-11909886D01*
X5219277Y-11938457D01*
X5190706Y-11967029D01*
X5147849Y-11981314D01*
X5076420Y-11981314D01*
X5376420Y-11981314D02*
X5376420Y-11781314D01*
X5376420Y-11838457D02*
X5390706Y-11809886D01*
X5404991Y-11795600D01*
X5433563Y-11781314D01*
X5462134Y-11781314D01*
X5562134Y-11981314D02*
X5562134Y-11781314D01*
X5562134Y-11681314D02*
X5547849Y-11695600D01*
X5562134Y-11709886D01*
X5576420Y-11695600D01*
X5562134Y-11681314D01*
X5562134Y-11709886D01*
X5747848Y-11981314D02*
X5719277Y-11967029D01*
X5704991Y-11938457D01*
X5704991Y-11681314D01*
X5904991Y-11981314D02*
X5876420Y-11967029D01*
X5862134Y-11938457D01*
X5862134Y-11681314D01*
X6247848Y-11981314D02*
X6247848Y-11681314D01*
X6347848Y-11895600D01*
X6447848Y-11681314D01*
X6447848Y-11981314D01*
X6719277Y-11981314D02*
X6719277Y-11824171D01*
X6704991Y-11795600D01*
X6676420Y-11781314D01*
X6619277Y-11781314D01*
X6590706Y-11795600D01*
X6719277Y-11967029D02*
X6690706Y-11981314D01*
X6619277Y-11981314D01*
X6590706Y-11967029D01*
X6576420Y-11938457D01*
X6576420Y-11909886D01*
X6590706Y-11881314D01*
X6619277Y-11867029D01*
X6690706Y-11867029D01*
X6719277Y-11852743D01*
X6862134Y-11781314D02*
X6862134Y-12081314D01*
X6862134Y-11795600D02*
X6890706Y-11781314D01*
X6947848Y-11781314D01*
X6976420Y-11795600D01*
X6990706Y-11809886D01*
X7004991Y-11838457D01*
X7004991Y-11924171D01*
X6990706Y-11952743D01*
X6976420Y-11967029D01*
X6947848Y-11981314D01*
X6890706Y-11981314D01*
X6862134Y-11967029D01*
X7133563Y-11952743D02*
X7147848Y-11967029D01*
X7133563Y-11981314D01*
X7119277Y-11967029D01*
X7133563Y-11952743D01*
X7133563Y-11981314D01*
X7133563Y-11795600D02*
X7147848Y-11809886D01*
X7133563Y-11824171D01*
X7119277Y-11809886D01*
X7133563Y-11795600D01*
X7133563Y-11824171D01*
X4759991Y-12460600D02*
X4789991Y-12490600D01*
X4789991Y-12460600D02*
X4759991Y-12490600D01*
X5133563Y-12311314D02*
X5162134Y-12311314D01*
X5190706Y-12325600D01*
X5204991Y-12339886D01*
X5219277Y-12368457D01*
X5233563Y-12425600D01*
X5233563Y-12497029D01*
X5219277Y-12554171D01*
X5204991Y-12582743D01*
X5190706Y-12597029D01*
X5162134Y-12611314D01*
X5133563Y-12611314D01*
X5104991Y-12597029D01*
X5090706Y-12582743D01*
X5076420Y-12554171D01*
X5062134Y-12497029D01*
X5062134Y-12425600D01*
X5076420Y-12368457D01*
X5090706Y-12339886D01*
X5104991Y-12325600D01*
X5133563Y-12311314D01*
X5362134Y-12582743D02*
X5376420Y-12597029D01*
X5362134Y-12611314D01*
X5347849Y-12597029D01*
X5362134Y-12582743D01*
X5362134Y-12611314D01*
X5476420Y-12311314D02*
X5662134Y-12311314D01*
X5562134Y-12425600D01*
X5604991Y-12425600D01*
X5633563Y-12439886D01*
X5647848Y-12454171D01*
X5662134Y-12482743D01*
X5662134Y-12554171D01*
X5647848Y-12582743D01*
X5633563Y-12597029D01*
X5604991Y-12611314D01*
X5519277Y-12611314D01*
X5490706Y-12597029D01*
X5476420Y-12582743D01*
X5847848Y-12311314D02*
X5876420Y-12311314D01*
X5904991Y-12325600D01*
X5919277Y-12339886D01*
X5933563Y-12368457D01*
X5947848Y-12425600D01*
X5947848Y-12497029D01*
X5933563Y-12554171D01*
X5919277Y-12582743D01*
X5904991Y-12597029D01*
X5876420Y-12611314D01*
X5847848Y-12611314D01*
X5819277Y-12597029D01*
X5804991Y-12582743D01*
X5790706Y-12554171D01*
X5776420Y-12497029D01*
X5776420Y-12425600D01*
X5790706Y-12368457D01*
X5804991Y-12339886D01*
X5819277Y-12325600D01*
X5847848Y-12311314D01*
X6133563Y-12311314D02*
X6162134Y-12311314D01*
X6190706Y-12325600D01*
X6204991Y-12339886D01*
X6219277Y-12368457D01*
X6233563Y-12425600D01*
X6233563Y-12497029D01*
X6219277Y-12554171D01*
X6204991Y-12582743D01*
X6190706Y-12597029D01*
X6162134Y-12611314D01*
X6133563Y-12611314D01*
X6104991Y-12597029D01*
X6090706Y-12582743D01*
X6076420Y-12554171D01*
X6062134Y-12497029D01*
X6062134Y-12425600D01*
X6076420Y-12368457D01*
X6090706Y-12339886D01*
X6104991Y-12325600D01*
X6133563Y-12311314D01*
X6362134Y-12611314D02*
X6362134Y-12411314D01*
X6362134Y-12439886D02*
X6376420Y-12425600D01*
X6404991Y-12411314D01*
X6447848Y-12411314D01*
X6476420Y-12425600D01*
X6490706Y-12454171D01*
X6490706Y-12611314D01*
X6490706Y-12454171D02*
X6504991Y-12425600D01*
X6533563Y-12411314D01*
X6576420Y-12411314D01*
X6604991Y-12425600D01*
X6619277Y-12454171D01*
X6619277Y-12611314D01*
X6762134Y-12611314D02*
X6762134Y-12411314D01*
X6762134Y-12439886D02*
X6776420Y-12425600D01*
X6804991Y-12411314D01*
X6847848Y-12411314D01*
X6876420Y-12425600D01*
X6890706Y-12454171D01*
X6890706Y-12611314D01*
X6890706Y-12454171D02*
X6904991Y-12425600D01*
X6933563Y-12411314D01*
X6976420Y-12411314D01*
X7004991Y-12425600D01*
X7019277Y-12454171D01*
X7019277Y-12611314D01*
X7604991Y-12297029D02*
X7347848Y-12682743D01*
X7990706Y-12311314D02*
X8019277Y-12311314D01*
X8047848Y-12325600D01*
X8062134Y-12339886D01*
X8076420Y-12368457D01*
X8090706Y-12425600D01*
X8090706Y-12497029D01*
X8076420Y-12554171D01*
X8062134Y-12582743D01*
X8047848Y-12597029D01*
X8019277Y-12611314D01*
X7990706Y-12611314D01*
X7962134Y-12597029D01*
X7947848Y-12582743D01*
X7933563Y-12554171D01*
X7919277Y-12497029D01*
X7919277Y-12425600D01*
X7933563Y-12368457D01*
X7947848Y-12339886D01*
X7962134Y-12325600D01*
X7990706Y-12311314D01*
X8219277Y-12582743D02*
X8233563Y-12597029D01*
X8219277Y-12611314D01*
X8204991Y-12597029D01*
X8219277Y-12582743D01*
X8219277Y-12611314D01*
X8419277Y-12311314D02*
X8447849Y-12311314D01*
X8476420Y-12325600D01*
X8490706Y-12339886D01*
X8504991Y-12368457D01*
X8519277Y-12425600D01*
X8519277Y-12497029D01*
X8504991Y-12554171D01*
X8490706Y-12582743D01*
X8476420Y-12597029D01*
X8447849Y-12611314D01*
X8419277Y-12611314D01*
X8390706Y-12597029D01*
X8376420Y-12582743D01*
X8362134Y-12554171D01*
X8347848Y-12497029D01*
X8347848Y-12425600D01*
X8362134Y-12368457D01*
X8376420Y-12339886D01*
X8390706Y-12325600D01*
X8419277Y-12311314D01*
X8804991Y-12611314D02*
X8633563Y-12611314D01*
X8719277Y-12611314D02*
X8719277Y-12311314D01*
X8690706Y-12354171D01*
X8662134Y-12382743D01*
X8633563Y-12397029D01*
X9090706Y-12611314D02*
X8919277Y-12611314D01*
X9004991Y-12611314D02*
X9004991Y-12311314D01*
X8976420Y-12354171D01*
X8947849Y-12382743D01*
X8919277Y-12397029D01*
X9262134Y-12439886D02*
X9233563Y-12425600D01*
X9219277Y-12411314D01*
X9204991Y-12382743D01*
X9204991Y-12368457D01*
X9219277Y-12339886D01*
X9233563Y-12325600D01*
X9262134Y-12311314D01*
X9319277Y-12311314D01*
X9347849Y-12325600D01*
X9362134Y-12339886D01*
X9376420Y-12368457D01*
X9376420Y-12382743D01*
X9362134Y-12411314D01*
X9347849Y-12425600D01*
X9319277Y-12439886D01*
X9262134Y-12439886D01*
X9233563Y-12454171D01*
X9219277Y-12468457D01*
X9204991Y-12497029D01*
X9204991Y-12554171D01*
X9219277Y-12582743D01*
X9233563Y-12597029D01*
X9262134Y-12611314D01*
X9319277Y-12611314D01*
X9347849Y-12597029D01*
X9362134Y-12582743D01*
X9376420Y-12554171D01*
X9376420Y-12497029D01*
X9362134Y-12468457D01*
X9347849Y-12454171D01*
X9319277Y-12439886D01*
X9490706Y-12311314D02*
X9490706Y-12368457D01*
X9604991Y-12311314D02*
X9604991Y-12368457D01*
X10047849Y-12725600D02*
X10033563Y-12711314D01*
X10004991Y-12668457D01*
X9990706Y-12639886D01*
X9976420Y-12597029D01*
X9962134Y-12525600D01*
X9962134Y-12468457D01*
X9976420Y-12397029D01*
X9990706Y-12354171D01*
X10004991Y-12325600D01*
X10033563Y-12282743D01*
X10047849Y-12268457D01*
X10319277Y-12611314D02*
X10147849Y-12611314D01*
X10233563Y-12611314D02*
X10233563Y-12311314D01*
X10204991Y-12354171D01*
X10176420Y-12382743D01*
X10147849Y-12397029D01*
X10462134Y-12611314D02*
X10519277Y-12611314D01*
X10547849Y-12597029D01*
X10562134Y-12582743D01*
X10590706Y-12539886D01*
X10604991Y-12482743D01*
X10604991Y-12368457D01*
X10590706Y-12339886D01*
X10576420Y-12325600D01*
X10547849Y-12311314D01*
X10490706Y-12311314D01*
X10462134Y-12325600D01*
X10447849Y-12339886D01*
X10433563Y-12368457D01*
X10433563Y-12439886D01*
X10447849Y-12468457D01*
X10462134Y-12482743D01*
X10490706Y-12497029D01*
X10547849Y-12497029D01*
X10576420Y-12482743D01*
X10590706Y-12468457D01*
X10604991Y-12439886D01*
X10719277Y-12339886D02*
X10733563Y-12325600D01*
X10762134Y-12311314D01*
X10833563Y-12311314D01*
X10862134Y-12325600D01*
X10876420Y-12339886D01*
X10890706Y-12368457D01*
X10890706Y-12397029D01*
X10876420Y-12439886D01*
X10704991Y-12611314D01*
X10890706Y-12611314D01*
X11247848Y-12611314D02*
X11247848Y-12311314D01*
X11376420Y-12611314D02*
X11376420Y-12454171D01*
X11362134Y-12425600D01*
X11333563Y-12411314D01*
X11290706Y-12411314D01*
X11262134Y-12425600D01*
X11247848Y-12439886D01*
X11562134Y-12611314D02*
X11533563Y-12597029D01*
X11519277Y-12582743D01*
X11504991Y-12554171D01*
X11504991Y-12468457D01*
X11519277Y-12439886D01*
X11533563Y-12425600D01*
X11562134Y-12411314D01*
X11604991Y-12411314D01*
X11633563Y-12425600D01*
X11647848Y-12439886D01*
X11662134Y-12468457D01*
X11662134Y-12554171D01*
X11647848Y-12582743D01*
X11633563Y-12597029D01*
X11604991Y-12611314D01*
X11562134Y-12611314D01*
X11833563Y-12611314D02*
X11804991Y-12597029D01*
X11790706Y-12568457D01*
X11790706Y-12311314D01*
X12062134Y-12597029D02*
X12033563Y-12611314D01*
X11976420Y-12611314D01*
X11947848Y-12597029D01*
X11933563Y-12568457D01*
X11933563Y-12454171D01*
X11947848Y-12425600D01*
X11976420Y-12411314D01*
X12033563Y-12411314D01*
X12062134Y-12425600D01*
X12076420Y-12454171D01*
X12076420Y-12482743D01*
X11933563Y-12511314D01*
X12190706Y-12597029D02*
X12219277Y-12611314D01*
X12276420Y-12611314D01*
X12304991Y-12597029D01*
X12319277Y-12568457D01*
X12319277Y-12554171D01*
X12304991Y-12525600D01*
X12276420Y-12511314D01*
X12233563Y-12511314D01*
X12204991Y-12497029D01*
X12190706Y-12468457D01*
X12190706Y-12454171D01*
X12204991Y-12425600D01*
X12233563Y-12411314D01*
X12276420Y-12411314D01*
X12304991Y-12425600D01*
X12419277Y-12725600D02*
X12433563Y-12711314D01*
X12462134Y-12668457D01*
X12476420Y-12639886D01*
X12490706Y-12597029D01*
X12504991Y-12525600D01*
X12504991Y-12468457D01*
X12490706Y-12397029D01*
X12476420Y-12354171D01*
X12462134Y-12325600D01*
X12433563Y-12282743D01*
X12419277Y-12268457D01*
X4789991Y-12871600D02*
G75*
G03*
X4789991Y-12871600I-20000J0D01*
G01*
X5133563Y-12707314D02*
X5162134Y-12707314D01*
X5190706Y-12721600D01*
X5204991Y-12735886D01*
X5219277Y-12764457D01*
X5233563Y-12821600D01*
X5233563Y-12893029D01*
X5219277Y-12950171D01*
X5204991Y-12978743D01*
X5190706Y-12993029D01*
X5162134Y-13007314D01*
X5133563Y-13007314D01*
X5104991Y-12993029D01*
X5090706Y-12978743D01*
X5076420Y-12950171D01*
X5062134Y-12893029D01*
X5062134Y-12821600D01*
X5076420Y-12764457D01*
X5090706Y-12735886D01*
X5104991Y-12721600D01*
X5133563Y-12707314D01*
X5362134Y-12978743D02*
X5376420Y-12993029D01*
X5362134Y-13007314D01*
X5347849Y-12993029D01*
X5362134Y-12978743D01*
X5362134Y-13007314D01*
X5633563Y-12807314D02*
X5633563Y-13007314D01*
X5562134Y-12693029D02*
X5490706Y-12907314D01*
X5676420Y-12907314D01*
X5847848Y-12707314D02*
X5876420Y-12707314D01*
X5904991Y-12721600D01*
X5919277Y-12735886D01*
X5933563Y-12764457D01*
X5947848Y-12821600D01*
X5947848Y-12893029D01*
X5933563Y-12950171D01*
X5919277Y-12978743D01*
X5904991Y-12993029D01*
X5876420Y-13007314D01*
X5847848Y-13007314D01*
X5819277Y-12993029D01*
X5804991Y-12978743D01*
X5790706Y-12950171D01*
X5776420Y-12893029D01*
X5776420Y-12821600D01*
X5790706Y-12764457D01*
X5804991Y-12735886D01*
X5819277Y-12721600D01*
X5847848Y-12707314D01*
X6133563Y-12707314D02*
X6162134Y-12707314D01*
X6190706Y-12721600D01*
X6204991Y-12735886D01*
X6219277Y-12764457D01*
X6233563Y-12821600D01*
X6233563Y-12893029D01*
X6219277Y-12950171D01*
X6204991Y-12978743D01*
X6190706Y-12993029D01*
X6162134Y-13007314D01*
X6133563Y-13007314D01*
X6104991Y-12993029D01*
X6090706Y-12978743D01*
X6076420Y-12950171D01*
X6062134Y-12893029D01*
X6062134Y-12821600D01*
X6076420Y-12764457D01*
X6090706Y-12735886D01*
X6104991Y-12721600D01*
X6133563Y-12707314D01*
X6362134Y-13007314D02*
X6362134Y-12807314D01*
X6362134Y-12835886D02*
X6376420Y-12821600D01*
X6404991Y-12807314D01*
X6447848Y-12807314D01*
X6476420Y-12821600D01*
X6490706Y-12850171D01*
X6490706Y-13007314D01*
X6490706Y-12850171D02*
X6504991Y-12821600D01*
X6533563Y-12807314D01*
X6576420Y-12807314D01*
X6604991Y-12821600D01*
X6619277Y-12850171D01*
X6619277Y-13007314D01*
X6762134Y-13007314D02*
X6762134Y-12807314D01*
X6762134Y-12835886D02*
X6776420Y-12821600D01*
X6804991Y-12807314D01*
X6847848Y-12807314D01*
X6876420Y-12821600D01*
X6890706Y-12850171D01*
X6890706Y-13007314D01*
X6890706Y-12850171D02*
X6904991Y-12821600D01*
X6933563Y-12807314D01*
X6976420Y-12807314D01*
X7004991Y-12821600D01*
X7019277Y-12850171D01*
X7019277Y-13007314D01*
X7604991Y-12693029D02*
X7347848Y-13078743D01*
X7990706Y-12707314D02*
X8019277Y-12707314D01*
X8047848Y-12721600D01*
X8062134Y-12735886D01*
X8076420Y-12764457D01*
X8090706Y-12821600D01*
X8090706Y-12893029D01*
X8076420Y-12950171D01*
X8062134Y-12978743D01*
X8047848Y-12993029D01*
X8019277Y-13007314D01*
X7990706Y-13007314D01*
X7962134Y-12993029D01*
X7947848Y-12978743D01*
X7933563Y-12950171D01*
X7919277Y-12893029D01*
X7919277Y-12821600D01*
X7933563Y-12764457D01*
X7947848Y-12735886D01*
X7962134Y-12721600D01*
X7990706Y-12707314D01*
X8219277Y-12978743D02*
X8233563Y-12993029D01*
X8219277Y-13007314D01*
X8204991Y-12993029D01*
X8219277Y-12978743D01*
X8219277Y-13007314D01*
X8419277Y-12707314D02*
X8447849Y-12707314D01*
X8476420Y-12721600D01*
X8490706Y-12735886D01*
X8504991Y-12764457D01*
X8519277Y-12821600D01*
X8519277Y-12893029D01*
X8504991Y-12950171D01*
X8490706Y-12978743D01*
X8476420Y-12993029D01*
X8447849Y-13007314D01*
X8419277Y-13007314D01*
X8390706Y-12993029D01*
X8376420Y-12978743D01*
X8362134Y-12950171D01*
X8347848Y-12893029D01*
X8347848Y-12821600D01*
X8362134Y-12764457D01*
X8376420Y-12735886D01*
X8390706Y-12721600D01*
X8419277Y-12707314D01*
X8804991Y-13007314D02*
X8633563Y-13007314D01*
X8719277Y-13007314D02*
X8719277Y-12707314D01*
X8690706Y-12750171D01*
X8662134Y-12778743D01*
X8633563Y-12793029D01*
X9076420Y-12707314D02*
X8933563Y-12707314D01*
X8919277Y-12850171D01*
X8933563Y-12835886D01*
X8962134Y-12821600D01*
X9033563Y-12821600D01*
X9062134Y-12835886D01*
X9076420Y-12850171D01*
X9090706Y-12878743D01*
X9090706Y-12950171D01*
X9076420Y-12978743D01*
X9062134Y-12993029D01*
X9033563Y-13007314D01*
X8962134Y-13007314D01*
X8933563Y-12993029D01*
X8919277Y-12978743D01*
X9190706Y-12707314D02*
X9390706Y-12707314D01*
X9262134Y-13007314D01*
X9490706Y-12707314D02*
X9490706Y-12764457D01*
X9604991Y-12707314D02*
X9604991Y-12764457D01*
X10047849Y-13121600D02*
X10033563Y-13107314D01*
X10004991Y-13064457D01*
X9990706Y-13035886D01*
X9976420Y-12993029D01*
X9962134Y-12921600D01*
X9962134Y-12864457D01*
X9976420Y-12793029D01*
X9990706Y-12750171D01*
X10004991Y-12721600D01*
X10033563Y-12678743D01*
X10047849Y-12664457D01*
X10290706Y-12807314D02*
X10290706Y-13007314D01*
X10219277Y-12693029D02*
X10147849Y-12907314D01*
X10333563Y-12907314D01*
X10419277Y-12707314D02*
X10604991Y-12707314D01*
X10504991Y-12821600D01*
X10547849Y-12821600D01*
X10576420Y-12835886D01*
X10590706Y-12850171D01*
X10604991Y-12878743D01*
X10604991Y-12950171D01*
X10590706Y-12978743D01*
X10576420Y-12993029D01*
X10547849Y-13007314D01*
X10462134Y-13007314D01*
X10433563Y-12993029D01*
X10419277Y-12978743D01*
X10962134Y-13007314D02*
X10962134Y-12707314D01*
X11090706Y-13007314D02*
X11090706Y-12850171D01*
X11076420Y-12821600D01*
X11047849Y-12807314D01*
X11004991Y-12807314D01*
X10976420Y-12821600D01*
X10962134Y-12835886D01*
X11276420Y-13007314D02*
X11247848Y-12993029D01*
X11233563Y-12978743D01*
X11219277Y-12950171D01*
X11219277Y-12864457D01*
X11233563Y-12835886D01*
X11247848Y-12821600D01*
X11276420Y-12807314D01*
X11319277Y-12807314D01*
X11347848Y-12821600D01*
X11362134Y-12835886D01*
X11376420Y-12864457D01*
X11376420Y-12950171D01*
X11362134Y-12978743D01*
X11347848Y-12993029D01*
X11319277Y-13007314D01*
X11276420Y-13007314D01*
X11547848Y-13007314D02*
X11519277Y-12993029D01*
X11504991Y-12964457D01*
X11504991Y-12707314D01*
X11776420Y-12993029D02*
X11747848Y-13007314D01*
X11690706Y-13007314D01*
X11662134Y-12993029D01*
X11647848Y-12964457D01*
X11647848Y-12850171D01*
X11662134Y-12821600D01*
X11690706Y-12807314D01*
X11747848Y-12807314D01*
X11776420Y-12821600D01*
X11790706Y-12850171D01*
X11790706Y-12878743D01*
X11647848Y-12907314D01*
X11904991Y-12993029D02*
X11933563Y-13007314D01*
X11990706Y-13007314D01*
X12019277Y-12993029D01*
X12033563Y-12964457D01*
X12033563Y-12950171D01*
X12019277Y-12921600D01*
X11990706Y-12907314D01*
X11947848Y-12907314D01*
X11919277Y-12893029D01*
X11904991Y-12864457D01*
X11904991Y-12850171D01*
X11919277Y-12821600D01*
X11947848Y-12807314D01*
X11990706Y-12807314D01*
X12019277Y-12821600D01*
X12133563Y-13121600D02*
X12147848Y-13107314D01*
X12176420Y-13064457D01*
X12190706Y-13035886D01*
X12204991Y-12993029D01*
X12219277Y-12921600D01*
X12219277Y-12864457D01*
X12204991Y-12793029D01*
X12190706Y-12750171D01*
X12176420Y-12721600D01*
X12147848Y-12678743D01*
X12133563Y-12664457D01*
X4749991Y-13227600D02*
X4749991Y-13307600D01*
X4709991Y-13267600D02*
X4789991Y-13267600D01*
X5133563Y-13103314D02*
X5162134Y-13103314D01*
X5190706Y-13117600D01*
X5204991Y-13131886D01*
X5219277Y-13160457D01*
X5233563Y-13217600D01*
X5233563Y-13289029D01*
X5219277Y-13346171D01*
X5204991Y-13374743D01*
X5190706Y-13389029D01*
X5162134Y-13403314D01*
X5133563Y-13403314D01*
X5104991Y-13389029D01*
X5090706Y-13374743D01*
X5076420Y-13346171D01*
X5062134Y-13289029D01*
X5062134Y-13217600D01*
X5076420Y-13160457D01*
X5090706Y-13131886D01*
X5104991Y-13117600D01*
X5133563Y-13103314D01*
X5362134Y-13374743D02*
X5376420Y-13389029D01*
X5362134Y-13403314D01*
X5347849Y-13389029D01*
X5362134Y-13374743D01*
X5362134Y-13403314D01*
X5547849Y-13231886D02*
X5519277Y-13217600D01*
X5504991Y-13203314D01*
X5490706Y-13174743D01*
X5490706Y-13160457D01*
X5504991Y-13131886D01*
X5519277Y-13117600D01*
X5547849Y-13103314D01*
X5604991Y-13103314D01*
X5633563Y-13117600D01*
X5647848Y-13131886D01*
X5662134Y-13160457D01*
X5662134Y-13174743D01*
X5647848Y-13203314D01*
X5633563Y-13217600D01*
X5604991Y-13231886D01*
X5547849Y-13231886D01*
X5519277Y-13246171D01*
X5504991Y-13260457D01*
X5490706Y-13289029D01*
X5490706Y-13346171D01*
X5504991Y-13374743D01*
X5519277Y-13389029D01*
X5547849Y-13403314D01*
X5604991Y-13403314D01*
X5633563Y-13389029D01*
X5647848Y-13374743D01*
X5662134Y-13346171D01*
X5662134Y-13289029D01*
X5647848Y-13260457D01*
X5633563Y-13246171D01*
X5604991Y-13231886D01*
X5847848Y-13103314D02*
X5876420Y-13103314D01*
X5904991Y-13117600D01*
X5919277Y-13131886D01*
X5933563Y-13160457D01*
X5947848Y-13217600D01*
X5947848Y-13289029D01*
X5933563Y-13346171D01*
X5919277Y-13374743D01*
X5904991Y-13389029D01*
X5876420Y-13403314D01*
X5847848Y-13403314D01*
X5819277Y-13389029D01*
X5804991Y-13374743D01*
X5790706Y-13346171D01*
X5776420Y-13289029D01*
X5776420Y-13217600D01*
X5790706Y-13160457D01*
X5804991Y-13131886D01*
X5819277Y-13117600D01*
X5847848Y-13103314D01*
X6133563Y-13103314D02*
X6162134Y-13103314D01*
X6190706Y-13117600D01*
X6204991Y-13131886D01*
X6219277Y-13160457D01*
X6233563Y-13217600D01*
X6233563Y-13289029D01*
X6219277Y-13346171D01*
X6204991Y-13374743D01*
X6190706Y-13389029D01*
X6162134Y-13403314D01*
X6133563Y-13403314D01*
X6104991Y-13389029D01*
X6090706Y-13374743D01*
X6076420Y-13346171D01*
X6062134Y-13289029D01*
X6062134Y-13217600D01*
X6076420Y-13160457D01*
X6090706Y-13131886D01*
X6104991Y-13117600D01*
X6133563Y-13103314D01*
X6362134Y-13403314D02*
X6362134Y-13203314D01*
X6362134Y-13231886D02*
X6376420Y-13217600D01*
X6404991Y-13203314D01*
X6447848Y-13203314D01*
X6476420Y-13217600D01*
X6490706Y-13246171D01*
X6490706Y-13403314D01*
X6490706Y-13246171D02*
X6504991Y-13217600D01*
X6533563Y-13203314D01*
X6576420Y-13203314D01*
X6604991Y-13217600D01*
X6619277Y-13246171D01*
X6619277Y-13403314D01*
X6762134Y-13403314D02*
X6762134Y-13203314D01*
X6762134Y-13231886D02*
X6776420Y-13217600D01*
X6804991Y-13203314D01*
X6847848Y-13203314D01*
X6876420Y-13217600D01*
X6890706Y-13246171D01*
X6890706Y-13403314D01*
X6890706Y-13246171D02*
X6904991Y-13217600D01*
X6933563Y-13203314D01*
X6976420Y-13203314D01*
X7004991Y-13217600D01*
X7019277Y-13246171D01*
X7019277Y-13403314D01*
X7604991Y-13089029D02*
X7347848Y-13474743D01*
X7990706Y-13103314D02*
X8019277Y-13103314D01*
X8047848Y-13117600D01*
X8062134Y-13131886D01*
X8076420Y-13160457D01*
X8090706Y-13217600D01*
X8090706Y-13289029D01*
X8076420Y-13346171D01*
X8062134Y-13374743D01*
X8047848Y-13389029D01*
X8019277Y-13403314D01*
X7990706Y-13403314D01*
X7962134Y-13389029D01*
X7947848Y-13374743D01*
X7933563Y-13346171D01*
X7919277Y-13289029D01*
X7919277Y-13217600D01*
X7933563Y-13160457D01*
X7947848Y-13131886D01*
X7962134Y-13117600D01*
X7990706Y-13103314D01*
X8219277Y-13374743D02*
X8233563Y-13389029D01*
X8219277Y-13403314D01*
X8204991Y-13389029D01*
X8219277Y-13374743D01*
X8219277Y-13403314D01*
X8419277Y-13103314D02*
X8447849Y-13103314D01*
X8476420Y-13117600D01*
X8490706Y-13131886D01*
X8504991Y-13160457D01*
X8519277Y-13217600D01*
X8519277Y-13289029D01*
X8504991Y-13346171D01*
X8490706Y-13374743D01*
X8476420Y-13389029D01*
X8447849Y-13403314D01*
X8419277Y-13403314D01*
X8390706Y-13389029D01*
X8376420Y-13374743D01*
X8362134Y-13346171D01*
X8347848Y-13289029D01*
X8347848Y-13217600D01*
X8362134Y-13160457D01*
X8376420Y-13131886D01*
X8390706Y-13117600D01*
X8419277Y-13103314D01*
X8619277Y-13103314D02*
X8804991Y-13103314D01*
X8704991Y-13217600D01*
X8747849Y-13217600D01*
X8776420Y-13231886D01*
X8790706Y-13246171D01*
X8804991Y-13274743D01*
X8804991Y-13346171D01*
X8790706Y-13374743D01*
X8776420Y-13389029D01*
X8747849Y-13403314D01*
X8662134Y-13403314D01*
X8633563Y-13389029D01*
X8619277Y-13374743D01*
X9090706Y-13403314D02*
X8919277Y-13403314D01*
X9004991Y-13403314D02*
X9004991Y-13103314D01*
X8976420Y-13146171D01*
X8947849Y-13174743D01*
X8919277Y-13189029D01*
X9362134Y-13103314D02*
X9219277Y-13103314D01*
X9204991Y-13246171D01*
X9219277Y-13231886D01*
X9247849Y-13217600D01*
X9319277Y-13217600D01*
X9347849Y-13231886D01*
X9362134Y-13246171D01*
X9376420Y-13274743D01*
X9376420Y-13346171D01*
X9362134Y-13374743D01*
X9347849Y-13389029D01*
X9319277Y-13403314D01*
X9247849Y-13403314D01*
X9219277Y-13389029D01*
X9204991Y-13374743D01*
X9490706Y-13103314D02*
X9490706Y-13160457D01*
X9604991Y-13103314D02*
X9604991Y-13160457D01*
X10047849Y-13517600D02*
X10033563Y-13503314D01*
X10004991Y-13460457D01*
X9990706Y-13431886D01*
X9976420Y-13389029D01*
X9962134Y-13317600D01*
X9962134Y-13260457D01*
X9976420Y-13189029D01*
X9990706Y-13146171D01*
X10004991Y-13117600D01*
X10033563Y-13074743D01*
X10047849Y-13060457D01*
X10133563Y-13103314D02*
X10333563Y-13103314D01*
X10204991Y-13403314D01*
X10604991Y-13403314D02*
X10433563Y-13403314D01*
X10519277Y-13403314D02*
X10519277Y-13103314D01*
X10490706Y-13146171D01*
X10462134Y-13174743D01*
X10433563Y-13189029D01*
X10962134Y-13403314D02*
X10962134Y-13103314D01*
X11090706Y-13403314D02*
X11090706Y-13246171D01*
X11076420Y-13217600D01*
X11047849Y-13203314D01*
X11004991Y-13203314D01*
X10976420Y-13217600D01*
X10962134Y-13231886D01*
X11276420Y-13403314D02*
X11247848Y-13389029D01*
X11233563Y-13374743D01*
X11219277Y-13346171D01*
X11219277Y-13260457D01*
X11233563Y-13231886D01*
X11247848Y-13217600D01*
X11276420Y-13203314D01*
X11319277Y-13203314D01*
X11347848Y-13217600D01*
X11362134Y-13231886D01*
X11376420Y-13260457D01*
X11376420Y-13346171D01*
X11362134Y-13374743D01*
X11347848Y-13389029D01*
X11319277Y-13403314D01*
X11276420Y-13403314D01*
X11547848Y-13403314D02*
X11519277Y-13389029D01*
X11504991Y-13360457D01*
X11504991Y-13103314D01*
X11776420Y-13389029D02*
X11747848Y-13403314D01*
X11690706Y-13403314D01*
X11662134Y-13389029D01*
X11647848Y-13360457D01*
X11647848Y-13246171D01*
X11662134Y-13217600D01*
X11690706Y-13203314D01*
X11747848Y-13203314D01*
X11776420Y-13217600D01*
X11790706Y-13246171D01*
X11790706Y-13274743D01*
X11647848Y-13303314D01*
X11904991Y-13389029D02*
X11933563Y-13403314D01*
X11990706Y-13403314D01*
X12019277Y-13389029D01*
X12033563Y-13360457D01*
X12033563Y-13346171D01*
X12019277Y-13317600D01*
X11990706Y-13303314D01*
X11947848Y-13303314D01*
X11919277Y-13289029D01*
X11904991Y-13260457D01*
X11904991Y-13246171D01*
X11919277Y-13217600D01*
X11947848Y-13203314D01*
X11990706Y-13203314D01*
X12019277Y-13217600D01*
X12133563Y-13517600D02*
X12147848Y-13503314D01*
X12176420Y-13460457D01*
X12190706Y-13431886D01*
X12204991Y-13389029D01*
X12219277Y-13317600D01*
X12219277Y-13260457D01*
X12204991Y-13189029D01*
X12190706Y-13146171D01*
X12176420Y-13117600D01*
X12147848Y-13074743D01*
X12133563Y-13060457D01*
X4773883Y-13702491D02*
X4773883Y-13624709D01*
X4696100Y-13624709D01*
X4696100Y-13702491D01*
X4773883Y-13702491D01*
X5233563Y-13799314D02*
X5062134Y-13799314D01*
X5147849Y-13799314D02*
X5147849Y-13499314D01*
X5119277Y-13542171D01*
X5090706Y-13570743D01*
X5062134Y-13585029D01*
X5362134Y-13770743D02*
X5376420Y-13785029D01*
X5362134Y-13799314D01*
X5347849Y-13785029D01*
X5362134Y-13770743D01*
X5362134Y-13799314D01*
X5662134Y-13799314D02*
X5490706Y-13799314D01*
X5576420Y-13799314D02*
X5576420Y-13499314D01*
X5547849Y-13542171D01*
X5519277Y-13570743D01*
X5490706Y-13585029D01*
X5847848Y-13499314D02*
X5876420Y-13499314D01*
X5904991Y-13513600D01*
X5919277Y-13527886D01*
X5933563Y-13556457D01*
X5947848Y-13613600D01*
X5947848Y-13685029D01*
X5933563Y-13742171D01*
X5919277Y-13770743D01*
X5904991Y-13785029D01*
X5876420Y-13799314D01*
X5847848Y-13799314D01*
X5819277Y-13785029D01*
X5804991Y-13770743D01*
X5790706Y-13742171D01*
X5776420Y-13685029D01*
X5776420Y-13613600D01*
X5790706Y-13556457D01*
X5804991Y-13527886D01*
X5819277Y-13513600D01*
X5847848Y-13499314D01*
X6133563Y-13499314D02*
X6162134Y-13499314D01*
X6190706Y-13513600D01*
X6204991Y-13527886D01*
X6219277Y-13556457D01*
X6233563Y-13613600D01*
X6233563Y-13685029D01*
X6219277Y-13742171D01*
X6204991Y-13770743D01*
X6190706Y-13785029D01*
X6162134Y-13799314D01*
X6133563Y-13799314D01*
X6104991Y-13785029D01*
X6090706Y-13770743D01*
X6076420Y-13742171D01*
X6062134Y-13685029D01*
X6062134Y-13613600D01*
X6076420Y-13556457D01*
X6090706Y-13527886D01*
X6104991Y-13513600D01*
X6133563Y-13499314D01*
X6362134Y-13799314D02*
X6362134Y-13599314D01*
X6362134Y-13627886D02*
X6376420Y-13613600D01*
X6404991Y-13599314D01*
X6447848Y-13599314D01*
X6476420Y-13613600D01*
X6490706Y-13642171D01*
X6490706Y-13799314D01*
X6490706Y-13642171D02*
X6504991Y-13613600D01*
X6533563Y-13599314D01*
X6576420Y-13599314D01*
X6604991Y-13613600D01*
X6619277Y-13642171D01*
X6619277Y-13799314D01*
X6762134Y-13799314D02*
X6762134Y-13599314D01*
X6762134Y-13627886D02*
X6776420Y-13613600D01*
X6804991Y-13599314D01*
X6847848Y-13599314D01*
X6876420Y-13613600D01*
X6890706Y-13642171D01*
X6890706Y-13799314D01*
X6890706Y-13642171D02*
X6904991Y-13613600D01*
X6933563Y-13599314D01*
X6976420Y-13599314D01*
X7004991Y-13613600D01*
X7019277Y-13642171D01*
X7019277Y-13799314D01*
X7604991Y-13485029D02*
X7347848Y-13870743D01*
X7990706Y-13499314D02*
X8019277Y-13499314D01*
X8047848Y-13513600D01*
X8062134Y-13527886D01*
X8076420Y-13556457D01*
X8090706Y-13613600D01*
X8090706Y-13685029D01*
X8076420Y-13742171D01*
X8062134Y-13770743D01*
X8047848Y-13785029D01*
X8019277Y-13799314D01*
X7990706Y-13799314D01*
X7962134Y-13785029D01*
X7947848Y-13770743D01*
X7933563Y-13742171D01*
X7919277Y-13685029D01*
X7919277Y-13613600D01*
X7933563Y-13556457D01*
X7947848Y-13527886D01*
X7962134Y-13513600D01*
X7990706Y-13499314D01*
X8219277Y-13770743D02*
X8233563Y-13785029D01*
X8219277Y-13799314D01*
X8204991Y-13785029D01*
X8219277Y-13770743D01*
X8219277Y-13799314D01*
X8419277Y-13499314D02*
X8447849Y-13499314D01*
X8476420Y-13513600D01*
X8490706Y-13527886D01*
X8504991Y-13556457D01*
X8519277Y-13613600D01*
X8519277Y-13685029D01*
X8504991Y-13742171D01*
X8490706Y-13770743D01*
X8476420Y-13785029D01*
X8447849Y-13799314D01*
X8419277Y-13799314D01*
X8390706Y-13785029D01*
X8376420Y-13770743D01*
X8362134Y-13742171D01*
X8347848Y-13685029D01*
X8347848Y-13613600D01*
X8362134Y-13556457D01*
X8376420Y-13527886D01*
X8390706Y-13513600D01*
X8419277Y-13499314D01*
X8776420Y-13599314D02*
X8776420Y-13799314D01*
X8704991Y-13485029D02*
X8633563Y-13699314D01*
X8819277Y-13699314D01*
X8904991Y-13499314D02*
X9090706Y-13499314D01*
X8990706Y-13613600D01*
X9033563Y-13613600D01*
X9062134Y-13627886D01*
X9076420Y-13642171D01*
X9090706Y-13670743D01*
X9090706Y-13742171D01*
X9076420Y-13770743D01*
X9062134Y-13785029D01*
X9033563Y-13799314D01*
X8947849Y-13799314D01*
X8919277Y-13785029D01*
X8904991Y-13770743D01*
X9190706Y-13499314D02*
X9376420Y-13499314D01*
X9276420Y-13613600D01*
X9319277Y-13613600D01*
X9347849Y-13627886D01*
X9362134Y-13642171D01*
X9376420Y-13670743D01*
X9376420Y-13742171D01*
X9362134Y-13770743D01*
X9347849Y-13785029D01*
X9319277Y-13799314D01*
X9233563Y-13799314D01*
X9204991Y-13785029D01*
X9190706Y-13770743D01*
X9490706Y-13499314D02*
X9490706Y-13556457D01*
X9604991Y-13499314D02*
X9604991Y-13556457D01*
X10047849Y-13913600D02*
X10033563Y-13899314D01*
X10004991Y-13856457D01*
X9990706Y-13827886D01*
X9976420Y-13785029D01*
X9962134Y-13713600D01*
X9962134Y-13656457D01*
X9976420Y-13585029D01*
X9990706Y-13542171D01*
X10004991Y-13513600D01*
X10033563Y-13470743D01*
X10047849Y-13456457D01*
X10319277Y-13799314D02*
X10147849Y-13799314D01*
X10233563Y-13799314D02*
X10233563Y-13499314D01*
X10204991Y-13542171D01*
X10176420Y-13570743D01*
X10147849Y-13585029D01*
X10676420Y-13799314D02*
X10676420Y-13499314D01*
X10804991Y-13799314D02*
X10804991Y-13642171D01*
X10790706Y-13613600D01*
X10762134Y-13599314D01*
X10719277Y-13599314D01*
X10690706Y-13613600D01*
X10676420Y-13627886D01*
X10990706Y-13799314D02*
X10962134Y-13785029D01*
X10947849Y-13770743D01*
X10933563Y-13742171D01*
X10933563Y-13656457D01*
X10947849Y-13627886D01*
X10962134Y-13613600D01*
X10990706Y-13599314D01*
X11033563Y-13599314D01*
X11062134Y-13613600D01*
X11076420Y-13627886D01*
X11090706Y-13656457D01*
X11090706Y-13742171D01*
X11076420Y-13770743D01*
X11062134Y-13785029D01*
X11033563Y-13799314D01*
X10990706Y-13799314D01*
X11262134Y-13799314D02*
X11233563Y-13785029D01*
X11219277Y-13756457D01*
X11219277Y-13499314D01*
X11490706Y-13785029D02*
X11462134Y-13799314D01*
X11404991Y-13799314D01*
X11376420Y-13785029D01*
X11362134Y-13756457D01*
X11362134Y-13642171D01*
X11376420Y-13613600D01*
X11404991Y-13599314D01*
X11462134Y-13599314D01*
X11490706Y-13613600D01*
X11504991Y-13642171D01*
X11504991Y-13670743D01*
X11362134Y-13699314D01*
X11604991Y-13913600D02*
X11619277Y-13899314D01*
X11647848Y-13856457D01*
X11662134Y-13827886D01*
X11676420Y-13785029D01*
X11690706Y-13713600D01*
X11690706Y-13656457D01*
X11676420Y-13585029D01*
X11662134Y-13542171D01*
X11647848Y-13513600D01*
X11619277Y-13470743D01*
X11604991Y-13456457D01*
X4719991Y-14129600D02*
X4789991Y-14059600D01*
X4719991Y-13989600D01*
X4649991Y-14059600D01*
X4719991Y-14129600D01*
X5233563Y-14195314D02*
X5062134Y-14195314D01*
X5147849Y-14195314D02*
X5147849Y-13895314D01*
X5119277Y-13938171D01*
X5090706Y-13966743D01*
X5062134Y-13981029D01*
X5362134Y-14166743D02*
X5376420Y-14181029D01*
X5362134Y-14195314D01*
X5347849Y-14181029D01*
X5362134Y-14166743D01*
X5362134Y-14195314D01*
X5633563Y-13995314D02*
X5633563Y-14195314D01*
X5562134Y-13881029D02*
X5490706Y-14095314D01*
X5676420Y-14095314D01*
X5847848Y-13895314D02*
X5876420Y-13895314D01*
X5904991Y-13909600D01*
X5919277Y-13923886D01*
X5933563Y-13952457D01*
X5947848Y-14009600D01*
X5947848Y-14081029D01*
X5933563Y-14138171D01*
X5919277Y-14166743D01*
X5904991Y-14181029D01*
X5876420Y-14195314D01*
X5847848Y-14195314D01*
X5819277Y-14181029D01*
X5804991Y-14166743D01*
X5790706Y-14138171D01*
X5776420Y-14081029D01*
X5776420Y-14009600D01*
X5790706Y-13952457D01*
X5804991Y-13923886D01*
X5819277Y-13909600D01*
X5847848Y-13895314D01*
X6133563Y-13895314D02*
X6162134Y-13895314D01*
X6190706Y-13909600D01*
X6204991Y-13923886D01*
X6219277Y-13952457D01*
X6233563Y-14009600D01*
X6233563Y-14081029D01*
X6219277Y-14138171D01*
X6204991Y-14166743D01*
X6190706Y-14181029D01*
X6162134Y-14195314D01*
X6133563Y-14195314D01*
X6104991Y-14181029D01*
X6090706Y-14166743D01*
X6076420Y-14138171D01*
X6062134Y-14081029D01*
X6062134Y-14009600D01*
X6076420Y-13952457D01*
X6090706Y-13923886D01*
X6104991Y-13909600D01*
X6133563Y-13895314D01*
X6362134Y-14195314D02*
X6362134Y-13995314D01*
X6362134Y-14023886D02*
X6376420Y-14009600D01*
X6404991Y-13995314D01*
X6447848Y-13995314D01*
X6476420Y-14009600D01*
X6490706Y-14038171D01*
X6490706Y-14195314D01*
X6490706Y-14038171D02*
X6504991Y-14009600D01*
X6533563Y-13995314D01*
X6576420Y-13995314D01*
X6604991Y-14009600D01*
X6619277Y-14038171D01*
X6619277Y-14195314D01*
X6762134Y-14195314D02*
X6762134Y-13995314D01*
X6762134Y-14023886D02*
X6776420Y-14009600D01*
X6804991Y-13995314D01*
X6847848Y-13995314D01*
X6876420Y-14009600D01*
X6890706Y-14038171D01*
X6890706Y-14195314D01*
X6890706Y-14038171D02*
X6904991Y-14009600D01*
X6933563Y-13995314D01*
X6976420Y-13995314D01*
X7004991Y-14009600D01*
X7019277Y-14038171D01*
X7019277Y-14195314D01*
X7604991Y-13881029D02*
X7347848Y-14266743D01*
X7990706Y-13895314D02*
X8019277Y-13895314D01*
X8047848Y-13909600D01*
X8062134Y-13923886D01*
X8076420Y-13952457D01*
X8090706Y-14009600D01*
X8090706Y-14081029D01*
X8076420Y-14138171D01*
X8062134Y-14166743D01*
X8047848Y-14181029D01*
X8019277Y-14195314D01*
X7990706Y-14195314D01*
X7962134Y-14181029D01*
X7947848Y-14166743D01*
X7933563Y-14138171D01*
X7919277Y-14081029D01*
X7919277Y-14009600D01*
X7933563Y-13952457D01*
X7947848Y-13923886D01*
X7962134Y-13909600D01*
X7990706Y-13895314D01*
X8219277Y-14166743D02*
X8233563Y-14181029D01*
X8219277Y-14195314D01*
X8204991Y-14181029D01*
X8219277Y-14166743D01*
X8219277Y-14195314D01*
X8419277Y-13895314D02*
X8447849Y-13895314D01*
X8476420Y-13909600D01*
X8490706Y-13923886D01*
X8504991Y-13952457D01*
X8519277Y-14009600D01*
X8519277Y-14081029D01*
X8504991Y-14138171D01*
X8490706Y-14166743D01*
X8476420Y-14181029D01*
X8447849Y-14195314D01*
X8419277Y-14195314D01*
X8390706Y-14181029D01*
X8376420Y-14166743D01*
X8362134Y-14138171D01*
X8347848Y-14081029D01*
X8347848Y-14009600D01*
X8362134Y-13952457D01*
X8376420Y-13923886D01*
X8390706Y-13909600D01*
X8419277Y-13895314D01*
X8790706Y-13895314D02*
X8647849Y-13895314D01*
X8633563Y-14038171D01*
X8647849Y-14023886D01*
X8676420Y-14009600D01*
X8747849Y-14009600D01*
X8776420Y-14023886D01*
X8790706Y-14038171D01*
X8804991Y-14066743D01*
X8804991Y-14138171D01*
X8790706Y-14166743D01*
X8776420Y-14181029D01*
X8747849Y-14195314D01*
X8676420Y-14195314D01*
X8647849Y-14181029D01*
X8633563Y-14166743D01*
X9076420Y-13895314D02*
X8933563Y-13895314D01*
X8919277Y-14038171D01*
X8933563Y-14023886D01*
X8962134Y-14009600D01*
X9033563Y-14009600D01*
X9062134Y-14023886D01*
X9076420Y-14038171D01*
X9090706Y-14066743D01*
X9090706Y-14138171D01*
X9076420Y-14166743D01*
X9062134Y-14181029D01*
X9033563Y-14195314D01*
X8962134Y-14195314D01*
X8933563Y-14181029D01*
X8919277Y-14166743D01*
X9376420Y-14195314D02*
X9204991Y-14195314D01*
X9290706Y-14195314D02*
X9290706Y-13895314D01*
X9262134Y-13938171D01*
X9233563Y-13966743D01*
X9204991Y-13981029D01*
X9490706Y-13895314D02*
X9490706Y-13952457D01*
X9604991Y-13895314D02*
X9604991Y-13952457D01*
X10047849Y-14309600D02*
X10033563Y-14295314D01*
X10004991Y-14252457D01*
X9990706Y-14223886D01*
X9976420Y-14181029D01*
X9962134Y-14109600D01*
X9962134Y-14052457D01*
X9976420Y-13981029D01*
X9990706Y-13938171D01*
X10004991Y-13909600D01*
X10033563Y-13866743D01*
X10047849Y-13852457D01*
X10290706Y-13995314D02*
X10290706Y-14195314D01*
X10219277Y-13881029D02*
X10147849Y-14095314D01*
X10333563Y-14095314D01*
X10676420Y-14195314D02*
X10676420Y-13895314D01*
X10804991Y-14195314D02*
X10804991Y-14038171D01*
X10790706Y-14009600D01*
X10762134Y-13995314D01*
X10719277Y-13995314D01*
X10690706Y-14009600D01*
X10676420Y-14023886D01*
X10990706Y-14195314D02*
X10962134Y-14181029D01*
X10947849Y-14166743D01*
X10933563Y-14138171D01*
X10933563Y-14052457D01*
X10947849Y-14023886D01*
X10962134Y-14009600D01*
X10990706Y-13995314D01*
X11033563Y-13995314D01*
X11062134Y-14009600D01*
X11076420Y-14023886D01*
X11090706Y-14052457D01*
X11090706Y-14138171D01*
X11076420Y-14166743D01*
X11062134Y-14181029D01*
X11033563Y-14195314D01*
X10990706Y-14195314D01*
X11262134Y-14195314D02*
X11233563Y-14181029D01*
X11219277Y-14152457D01*
X11219277Y-13895314D01*
X11490706Y-14181029D02*
X11462134Y-14195314D01*
X11404991Y-14195314D01*
X11376420Y-14181029D01*
X11362134Y-14152457D01*
X11362134Y-14038171D01*
X11376420Y-14009600D01*
X11404991Y-13995314D01*
X11462134Y-13995314D01*
X11490706Y-14009600D01*
X11504991Y-14038171D01*
X11504991Y-14066743D01*
X11362134Y-14095314D01*
X11619277Y-14181029D02*
X11647848Y-14195314D01*
X11704991Y-14195314D01*
X11733563Y-14181029D01*
X11747848Y-14152457D01*
X11747848Y-14138171D01*
X11733563Y-14109600D01*
X11704991Y-14095314D01*
X11662134Y-14095314D01*
X11633563Y-14081029D01*
X11619277Y-14052457D01*
X11619277Y-14038171D01*
X11633563Y-14009600D01*
X11662134Y-13995314D01*
X11704991Y-13995314D01*
X11733563Y-14009600D01*
X11847848Y-14309600D02*
X11862134Y-14295314D01*
X11890706Y-14252457D01*
X11904991Y-14223886D01*
X11919277Y-14181029D01*
X11933563Y-14109600D01*
X11933563Y-14052457D01*
X11919277Y-13981029D01*
X11904991Y-13938171D01*
X11890706Y-13909600D01*
X11862134Y-13866743D01*
X11847848Y-13852457D01*
M02*
