G04 #@! TF.GenerationSoftware,KiCad,Pcbnew,5.1.10-88a1d61d58~88~ubuntu20.04.1*
G04 #@! TF.CreationDate,2021-05-10T20:01:03+02:00*
G04 #@! TF.ProjectId,WiRoc_NanoPi_v1,5769526f-635f-44e6-916e-6f50695f7631,rev?*
G04 #@! TF.SameCoordinates,Original*
G04 #@! TF.FileFunction,Legend,Top*
G04 #@! TF.FilePolarity,Positive*
%FSLAX46Y46*%
G04 Gerber Fmt 4.6, Leading zero omitted, Abs format (unit mm)*
G04 Created by KiCad (PCBNEW 5.1.10-88a1d61d58~88~ubuntu20.04.1) date 2021-05-10 20:01:03*
%MOMM*%
%LPD*%
G01*
G04 APERTURE LIST*
%ADD10C,0.200000*%
%ADD11C,0.300000*%
%ADD12C,0.120000*%
%ADD13C,0.150000*%
%ADD14R,0.700000X1.000000*%
%ADD15R,1.400000X1.400000*%
%ADD16O,0.200000X0.700000*%
%ADD17O,0.700000X0.200000*%
%ADD18R,1.000000X0.720000*%
%ADD19O,1.700000X1.700000*%
%ADD20R,1.700000X1.700000*%
%ADD21R,2.800000X1.200000*%
%ADD22R,1.200000X2.800000*%
%ADD23C,2.250000*%
%ADD24C,2.050000*%
%ADD25O,1.500000X1.900000*%
%ADD26R,6.000000X4.000000*%
%ADD27R,1.060000X0.650000*%
%ADD28R,0.650000X1.060000*%
%ADD29R,3.700000X1.100000*%
%ADD30R,1.100000X3.700000*%
%ADD31R,1.200000X0.900000*%
%ADD32O,2.000000X1.500000*%
G04 APERTURE END LIST*
D10*
X58902857Y-50842380D02*
X58569523Y-50366190D01*
X58331428Y-50842380D02*
X58331428Y-49842380D01*
X58712380Y-49842380D01*
X58807619Y-49890000D01*
X58855238Y-49937619D01*
X58902857Y-50032857D01*
X58902857Y-50175714D01*
X58855238Y-50270952D01*
X58807619Y-50318571D01*
X58712380Y-50366190D01*
X58331428Y-50366190D01*
X59712380Y-50794761D02*
X59617142Y-50842380D01*
X59426666Y-50842380D01*
X59331428Y-50794761D01*
X59283809Y-50699523D01*
X59283809Y-50318571D01*
X59331428Y-50223333D01*
X59426666Y-50175714D01*
X59617142Y-50175714D01*
X59712380Y-50223333D01*
X59760000Y-50318571D01*
X59760000Y-50413809D01*
X59283809Y-50509047D01*
X60093333Y-50175714D02*
X60331428Y-50842380D01*
X60569523Y-50175714D01*
X62236190Y-50842380D02*
X61664761Y-50842380D01*
X61950476Y-50842380D02*
X61950476Y-49842380D01*
X61855238Y-49985238D01*
X61760000Y-50080476D01*
X61664761Y-50128095D01*
D11*
X54181342Y-49552457D02*
X53895628Y-49552457D01*
X53895628Y-47838171D01*
X54181342Y-47838171D01*
X54524200Y-47952457D02*
X54809914Y-49152457D01*
X55038485Y-48295314D01*
X55267057Y-49152457D01*
X55552771Y-47952457D01*
X56009914Y-49152457D02*
X56009914Y-48352457D01*
X56009914Y-47952457D02*
X55952771Y-48009600D01*
X56009914Y-48066742D01*
X56067057Y-48009600D01*
X56009914Y-47952457D01*
X56009914Y-48066742D01*
X57267057Y-49152457D02*
X56867057Y-48581028D01*
X56581342Y-49152457D02*
X56581342Y-47952457D01*
X57038485Y-47952457D01*
X57152771Y-48009600D01*
X57209914Y-48066742D01*
X57267057Y-48181028D01*
X57267057Y-48352457D01*
X57209914Y-48466742D01*
X57152771Y-48523885D01*
X57038485Y-48581028D01*
X56581342Y-48581028D01*
X57952771Y-49152457D02*
X57838485Y-49095314D01*
X57781342Y-49038171D01*
X57724200Y-48923885D01*
X57724200Y-48581028D01*
X57781342Y-48466742D01*
X57838485Y-48409600D01*
X57952771Y-48352457D01*
X58124200Y-48352457D01*
X58238485Y-48409600D01*
X58295628Y-48466742D01*
X58352771Y-48581028D01*
X58352771Y-48923885D01*
X58295628Y-49038171D01*
X58238485Y-49095314D01*
X58124200Y-49152457D01*
X57952771Y-49152457D01*
X59381342Y-49095314D02*
X59267057Y-49152457D01*
X59038485Y-49152457D01*
X58924200Y-49095314D01*
X58867057Y-49038171D01*
X58809914Y-48923885D01*
X58809914Y-48581028D01*
X58867057Y-48466742D01*
X58924200Y-48409600D01*
X59038485Y-48352457D01*
X59267057Y-48352457D01*
X59381342Y-48409600D01*
X60638485Y-47952457D02*
X61038485Y-49152457D01*
X61438485Y-47952457D01*
X62409914Y-47952457D02*
X61838485Y-47952457D01*
X61781342Y-48523885D01*
X61838485Y-48466742D01*
X61952771Y-48409600D01*
X62238485Y-48409600D01*
X62352771Y-48466742D01*
X62409914Y-48523885D01*
X62467057Y-48638171D01*
X62467057Y-48923885D01*
X62409914Y-49038171D01*
X62352771Y-49095314D01*
X62238485Y-49152457D01*
X61952771Y-49152457D01*
X61838485Y-49095314D01*
X61781342Y-49038171D01*
X62867057Y-49552457D02*
X63152771Y-49552457D01*
X63152771Y-47838171D01*
X62867057Y-47838171D01*
D12*
X67180000Y-77670000D02*
X69180000Y-77670000D01*
X69180000Y-77670000D02*
X69180000Y-79070000D01*
X69180000Y-79070000D02*
X67180000Y-79070000D01*
X67180000Y-79070000D02*
X67180000Y-77670000D01*
X66840000Y-79060000D02*
X64840000Y-79060000D01*
X64840000Y-79060000D02*
X64840000Y-77660000D01*
X64840000Y-77660000D02*
X66840000Y-77660000D01*
X66840000Y-77660000D02*
X66840000Y-79060000D01*
D13*
X77795200Y-92001400D02*
X77795200Y-91451400D01*
X71445200Y-92001400D02*
X71445200Y-91451400D01*
X71445200Y-85651400D02*
X71445200Y-86201400D01*
X77795200Y-85651400D02*
X77795200Y-86201400D01*
X77795200Y-92001400D02*
X77245200Y-92001400D01*
X77795200Y-85651400D02*
X77245200Y-85651400D01*
X71445200Y-85651400D02*
X71995200Y-85651400D01*
X71445200Y-92001400D02*
X71995200Y-92001400D01*
X91952820Y-61995580D02*
X92152820Y-61845580D01*
X92152820Y-61845580D02*
X92152820Y-62145580D01*
X92152820Y-62145580D02*
X91952820Y-61995580D01*
X91802820Y-61795580D02*
X91802820Y-62195580D01*
X92252820Y-60295580D02*
X91852820Y-60595580D01*
X91852820Y-60595580D02*
X92252820Y-60895580D01*
X92252820Y-60295580D02*
X92252820Y-60895580D01*
X91702820Y-60445580D02*
X91702820Y-60745580D01*
X91652820Y-60595580D02*
X91252820Y-60595580D01*
X92252820Y-60595580D02*
X92702820Y-60595580D01*
X93760934Y-62545580D02*
G75*
G03*
X93760934Y-62545580I-158114J0D01*
G01*
D12*
X57480000Y-87115000D02*
X57480000Y-107535000D01*
X54950000Y-87115000D02*
X57400000Y-87115000D01*
X52280000Y-79535000D02*
X52280000Y-107535000D01*
X54956200Y-79535000D02*
X54956200Y-87115000D01*
X52280000Y-79535000D02*
X54940000Y-79535000D01*
X52280000Y-78265000D02*
X52280000Y-76935000D01*
X52280000Y-76935000D02*
X53610000Y-76935000D01*
X52280000Y-107535000D02*
X57480000Y-107535000D01*
X89890000Y-76935000D02*
X92490000Y-76935000D01*
X87290000Y-79535000D02*
X87290000Y-107535000D01*
X89890000Y-79535000D02*
X89890000Y-76935000D01*
X87290000Y-78265000D02*
X87290000Y-76935000D01*
X92490000Y-76935000D02*
X92490000Y-107535000D01*
X87290000Y-76935000D02*
X88620000Y-76935000D01*
X87290000Y-107535000D02*
X92490000Y-107535000D01*
X87290000Y-79535000D02*
X89890000Y-79535000D01*
D13*
X59350000Y-73135200D02*
X83650000Y-73135200D01*
X83650000Y-73135200D02*
X83650000Y-58135200D01*
X83650000Y-58135200D02*
X59350000Y-58135200D01*
X59350000Y-58135200D02*
X59350000Y-73135200D01*
X87392000Y-46482000D02*
X53356000Y-46482000D01*
X53356000Y-46482000D02*
X53356000Y-57531000D01*
X87392000Y-46482000D02*
X87392000Y-57531000D01*
X87392000Y-57531000D02*
X53356000Y-57531000D01*
D12*
X88348000Y-49530000D02*
X88348000Y-57210000D01*
X88348000Y-57210000D02*
X91008000Y-57210000D01*
X91008000Y-57210000D02*
X91008000Y-49530000D01*
X91008000Y-49530000D02*
X88348000Y-49530000D01*
X88348000Y-48260000D02*
X88348000Y-46930000D01*
X88348000Y-46930000D02*
X89678000Y-46930000D01*
X95096700Y-98460600D02*
X92436700Y-98460600D01*
X95096700Y-103600600D02*
X95096700Y-98460600D01*
X92436700Y-103600600D02*
X92436700Y-98460600D01*
X95096700Y-103600600D02*
X92436700Y-103600600D01*
X95096700Y-104870600D02*
X95096700Y-106200600D01*
X95096700Y-106200600D02*
X93766700Y-106200600D01*
X61029374Y-96397056D02*
X63479374Y-96397056D01*
X62829374Y-93177056D02*
X61029374Y-93177056D01*
X63840720Y-88770170D02*
X63840720Y-86320170D01*
X60620720Y-86970170D02*
X60620720Y-88770170D01*
D13*
X81150000Y-93630000D02*
X81150000Y-97630000D01*
X76950000Y-93630000D02*
X76950000Y-97630000D01*
X60220000Y-100990000D02*
X64220000Y-100990000D01*
X60220000Y-96790000D02*
X64220000Y-96790000D01*
D12*
X69430000Y-90947221D02*
X69430000Y-91272779D01*
X70450000Y-90947221D02*
X70450000Y-91272779D01*
X68300000Y-89387221D02*
X68300000Y-89712779D01*
X67280000Y-89387221D02*
X67280000Y-89712779D01*
X69880000Y-84242779D02*
X69880000Y-83917221D01*
X70900000Y-84242779D02*
X70900000Y-83917221D01*
X55040000Y-109337221D02*
X55040000Y-109662779D01*
X56060000Y-109337221D02*
X56060000Y-109662779D01*
X76500000Y-94832779D02*
X76500000Y-94507221D01*
X75480000Y-94832779D02*
X75480000Y-94507221D01*
X73037221Y-97070000D02*
X73362779Y-97070000D01*
X73037221Y-96050000D02*
X73362779Y-96050000D01*
X69610000Y-95012779D02*
X69610000Y-94687221D01*
X70630000Y-95012779D02*
X70630000Y-94687221D01*
X75150000Y-97942779D02*
X75150000Y-97617221D01*
X76170000Y-97942779D02*
X76170000Y-97617221D01*
X60537221Y-91620000D02*
X60862779Y-91620000D01*
X60537221Y-92640000D02*
X60862779Y-92640000D01*
X66587221Y-92640000D02*
X66912779Y-92640000D01*
X66587221Y-91620000D02*
X66912779Y-91620000D01*
X62722779Y-84600000D02*
X62397221Y-84600000D01*
X62722779Y-85620000D02*
X62397221Y-85620000D01*
X66980000Y-94840000D02*
X66980000Y-98740000D01*
X64980000Y-94840000D02*
X64980000Y-98740000D01*
X66980000Y-94840000D02*
X64980000Y-94840000D01*
X80634479Y-88710400D02*
X80308921Y-88710400D01*
X80634479Y-87690400D02*
X80308921Y-87690400D01*
X71510000Y-83507221D02*
X71510000Y-83832779D01*
X72530000Y-83507221D02*
X72530000Y-83832779D01*
X80646479Y-90349900D02*
X80320921Y-90349900D01*
X80646479Y-89329900D02*
X80320921Y-89329900D01*
X54260000Y-109337221D02*
X54260000Y-109662779D01*
X53240000Y-109337221D02*
X53240000Y-109662779D01*
X73448578Y-94030000D02*
X72931422Y-94030000D01*
X73448578Y-95450000D02*
X72931422Y-95450000D01*
X65230241Y-93291370D02*
X65555799Y-93291370D01*
X65230241Y-94311370D02*
X65555799Y-94311370D01*
X63862779Y-91620000D02*
X63537221Y-91620000D01*
X63862779Y-92640000D02*
X63537221Y-92640000D01*
X60210000Y-86772779D02*
X60210000Y-86447221D01*
X59190000Y-86772779D02*
X59190000Y-86447221D01*
X60210000Y-89822779D02*
X60210000Y-89497221D01*
X59190000Y-89822779D02*
X59190000Y-89497221D01*
X92852779Y-66960000D02*
X92527221Y-66960000D01*
X92852779Y-67980000D02*
X92527221Y-67980000D01*
X93112779Y-75170000D02*
X92787221Y-75170000D01*
X93112779Y-76190000D02*
X92787221Y-76190000D01*
X92130039Y-59233400D02*
X91804481Y-59233400D01*
X92130039Y-60253400D02*
X91804481Y-60253400D01*
X92170679Y-66331620D02*
X91845121Y-66331620D01*
X92170679Y-65311620D02*
X91845121Y-65311620D01*
X48615000Y-75297936D02*
X48615000Y-76502064D01*
X51335000Y-75297936D02*
X51335000Y-76502064D01*
X76400000Y-83832779D02*
X76400000Y-83507221D01*
X75380000Y-83832779D02*
X75380000Y-83507221D01*
X69092779Y-86830000D02*
X68767221Y-86830000D01*
X69092779Y-85810000D02*
X68767221Y-85810000D01*
X74162779Y-103200000D02*
X73837221Y-103200000D01*
X74162779Y-104220000D02*
X73837221Y-104220000D01*
X87020000Y-68212779D02*
X87020000Y-67887221D01*
X86000000Y-68212779D02*
X86000000Y-67887221D01*
X90750000Y-69997936D02*
X90750000Y-71202064D01*
X93470000Y-69997936D02*
X93470000Y-71202064D01*
X86020000Y-71107221D02*
X86020000Y-71432779D01*
X87040000Y-71107221D02*
X87040000Y-71432779D01*
X92160519Y-63589500D02*
X91834961Y-63589500D01*
X92160519Y-64609500D02*
X91834961Y-64609500D01*
X65390000Y-88672779D02*
X65390000Y-88347221D01*
X64370000Y-88672779D02*
X64370000Y-88347221D01*
D13*
X67346666Y-76022380D02*
X67346666Y-76736666D01*
X67299047Y-76879523D01*
X67203809Y-76974761D01*
X67060952Y-77022380D01*
X66965714Y-77022380D01*
X67822857Y-77022380D02*
X67822857Y-76022380D01*
X68203809Y-76022380D01*
X68299047Y-76070000D01*
X68346666Y-76117619D01*
X68394285Y-76212857D01*
X68394285Y-76355714D01*
X68346666Y-76450952D01*
X68299047Y-76498571D01*
X68203809Y-76546190D01*
X67822857Y-76546190D01*
X69346666Y-77022380D02*
X68775238Y-77022380D01*
X69060952Y-77022380D02*
X69060952Y-76022380D01*
X68965714Y-76165238D01*
X68870476Y-76260476D01*
X68775238Y-76308095D01*
X65006666Y-79612380D02*
X65006666Y-80326666D01*
X64959047Y-80469523D01*
X64863809Y-80564761D01*
X64720952Y-80612380D01*
X64625714Y-80612380D01*
X65482857Y-80612380D02*
X65482857Y-79612380D01*
X65863809Y-79612380D01*
X65959047Y-79660000D01*
X66006666Y-79707619D01*
X66054285Y-79802857D01*
X66054285Y-79945714D01*
X66006666Y-80040952D01*
X65959047Y-80088571D01*
X65863809Y-80136190D01*
X65482857Y-80136190D01*
X66435238Y-79707619D02*
X66482857Y-79660000D01*
X66578095Y-79612380D01*
X66816190Y-79612380D01*
X66911428Y-79660000D01*
X66959047Y-79707619D01*
X67006666Y-79802857D01*
X67006666Y-79898095D01*
X66959047Y-80040952D01*
X66387619Y-80612380D01*
X67006666Y-80612380D01*
X77670095Y-84214380D02*
X77670095Y-85023904D01*
X77717714Y-85119142D01*
X77765333Y-85166761D01*
X77860571Y-85214380D01*
X78051047Y-85214380D01*
X78146285Y-85166761D01*
X78193904Y-85119142D01*
X78241523Y-85023904D01*
X78241523Y-84214380D01*
X78622476Y-84214380D02*
X79241523Y-84214380D01*
X78908190Y-84595333D01*
X79051047Y-84595333D01*
X79146285Y-84642952D01*
X79193904Y-84690571D01*
X79241523Y-84785809D01*
X79241523Y-85023904D01*
X79193904Y-85119142D01*
X79146285Y-85166761D01*
X79051047Y-85214380D01*
X78765333Y-85214380D01*
X78670095Y-85166761D01*
X78622476Y-85119142D01*
X94712380Y-62058095D02*
X93712380Y-62058095D01*
X93712380Y-61820000D01*
X93760000Y-61677142D01*
X93855238Y-61581904D01*
X93950476Y-61534285D01*
X94140952Y-61486666D01*
X94283809Y-61486666D01*
X94474285Y-61534285D01*
X94569523Y-61581904D01*
X94664761Y-61677142D01*
X94712380Y-61820000D01*
X94712380Y-62058095D01*
X94712380Y-60534285D02*
X94712380Y-61105714D01*
X94712380Y-60820000D02*
X93712380Y-60820000D01*
X93855238Y-60915238D01*
X93950476Y-61010476D01*
X93998095Y-61105714D01*
X92263333Y-108471904D02*
X92263333Y-109043333D01*
X92225238Y-109157619D01*
X92149047Y-109233809D01*
X92034761Y-109271904D01*
X91958571Y-109271904D01*
X92568095Y-108471904D02*
X93101428Y-108471904D01*
X92758571Y-109271904D01*
X74570895Y-64052180D02*
X74570895Y-64861704D01*
X74618514Y-64956942D01*
X74666133Y-65004561D01*
X74761371Y-65052180D01*
X74951847Y-65052180D01*
X75047085Y-65004561D01*
X75094704Y-64956942D01*
X75142323Y-64861704D01*
X75142323Y-64052180D01*
X76142323Y-65052180D02*
X75570895Y-65052180D01*
X75856609Y-65052180D02*
X75856609Y-64052180D01*
X75761371Y-64195038D01*
X75666133Y-64290276D01*
X75570895Y-64337895D01*
X86683495Y-51973580D02*
X86683495Y-52783104D01*
X86731114Y-52878342D01*
X86778733Y-52925961D01*
X86873971Y-52973580D01*
X87064447Y-52973580D01*
X87159685Y-52925961D01*
X87207304Y-52878342D01*
X87254923Y-52783104D01*
X87254923Y-51973580D01*
X87683495Y-52068819D02*
X87731114Y-52021200D01*
X87826352Y-51973580D01*
X88064447Y-51973580D01*
X88159685Y-52021200D01*
X88207304Y-52068819D01*
X88254923Y-52164057D01*
X88254923Y-52259295D01*
X88207304Y-52402152D01*
X87635876Y-52973580D01*
X88254923Y-52973580D01*
X91147366Y-103205380D02*
X91147366Y-103919666D01*
X91099747Y-104062523D01*
X91004509Y-104157761D01*
X90861652Y-104205380D01*
X90766414Y-104205380D01*
X92052128Y-103205380D02*
X91861652Y-103205380D01*
X91766414Y-103253000D01*
X91718795Y-103300619D01*
X91623557Y-103443476D01*
X91575938Y-103633952D01*
X91575938Y-104014904D01*
X91623557Y-104110142D01*
X91671176Y-104157761D01*
X91766414Y-104205380D01*
X91956890Y-104205380D01*
X92052128Y-104157761D01*
X92099747Y-104110142D01*
X92147366Y-104014904D01*
X92147366Y-103776809D01*
X92099747Y-103681571D01*
X92052128Y-103633952D01*
X91956890Y-103586333D01*
X91766414Y-103586333D01*
X91671176Y-103633952D01*
X91623557Y-103681571D01*
X91575938Y-103776809D01*
X54593180Y-58465133D02*
X55307466Y-58465133D01*
X55450323Y-58512752D01*
X55545561Y-58607990D01*
X55593180Y-58750847D01*
X55593180Y-58846085D01*
X54688419Y-58036561D02*
X54640800Y-57988942D01*
X54593180Y-57893704D01*
X54593180Y-57655609D01*
X54640800Y-57560371D01*
X54688419Y-57512752D01*
X54783657Y-57465133D01*
X54878895Y-57465133D01*
X55021752Y-57512752D01*
X55593180Y-58084180D01*
X55593180Y-57465133D01*
X53534304Y-60582885D02*
X53534304Y-60963838D01*
X53915257Y-61001933D01*
X53877161Y-60963838D01*
X53839066Y-60887647D01*
X53839066Y-60697171D01*
X53877161Y-60620980D01*
X53915257Y-60582885D01*
X53991447Y-60544790D01*
X54181923Y-60544790D01*
X54258114Y-60582885D01*
X54296209Y-60620980D01*
X54334304Y-60697171D01*
X54334304Y-60887647D01*
X54296209Y-60963838D01*
X54258114Y-61001933D01*
X53800971Y-60278123D02*
X54334304Y-60087647D01*
X53800971Y-59897171D01*
X49692938Y-56675004D02*
X49692938Y-55875004D01*
X49883414Y-55875004D01*
X49997700Y-55913100D01*
X50073890Y-55989290D01*
X50111985Y-56065480D01*
X50150080Y-56217861D01*
X50150080Y-56332147D01*
X50111985Y-56484528D01*
X50073890Y-56560719D01*
X49997700Y-56636909D01*
X49883414Y-56675004D01*
X49692938Y-56675004D01*
X50492938Y-56370242D02*
X51102461Y-56370242D01*
X53541000Y-58662523D02*
X53502904Y-58738714D01*
X53502904Y-58853000D01*
X53541000Y-58967285D01*
X53617190Y-59043476D01*
X53693380Y-59081571D01*
X53845761Y-59119666D01*
X53960047Y-59119666D01*
X54112428Y-59081571D01*
X54188619Y-59043476D01*
X54264809Y-58967285D01*
X54302904Y-58853000D01*
X54302904Y-58776809D01*
X54264809Y-58662523D01*
X54226714Y-58624428D01*
X53960047Y-58624428D01*
X53960047Y-58776809D01*
X54302904Y-58281571D02*
X53502904Y-58281571D01*
X54302904Y-57824428D01*
X53502904Y-57824428D01*
X54302904Y-57443476D02*
X53502904Y-57443476D01*
X53502904Y-57253000D01*
X53541000Y-57138714D01*
X53617190Y-57062523D01*
X53693380Y-57024428D01*
X53845761Y-56986333D01*
X53960047Y-56986333D01*
X54112428Y-57024428D01*
X54188619Y-57062523D01*
X54264809Y-57138714D01*
X54302904Y-57253000D01*
X54302904Y-57443476D01*
X49705638Y-63075804D02*
X49705638Y-62275804D01*
X49896114Y-62275804D01*
X50010400Y-62313900D01*
X50086590Y-62390090D01*
X50124685Y-62466280D01*
X50162780Y-62618661D01*
X50162780Y-62732947D01*
X50124685Y-62885328D01*
X50086590Y-62961519D01*
X50010400Y-63037709D01*
X49896114Y-63075804D01*
X49705638Y-63075804D01*
X50505638Y-62771042D02*
X51115161Y-62771042D01*
X50810400Y-63075804D02*
X50810400Y-62466280D01*
X49759680Y-90992633D02*
X50473966Y-90992633D01*
X50616823Y-91040252D01*
X50712061Y-91135490D01*
X50759680Y-91278347D01*
X50759680Y-91373585D01*
X50188252Y-90373585D02*
X50140633Y-90468823D01*
X50093014Y-90516442D01*
X49997776Y-90564061D01*
X49950157Y-90564061D01*
X49854919Y-90516442D01*
X49807300Y-90468823D01*
X49759680Y-90373585D01*
X49759680Y-90183109D01*
X49807300Y-90087871D01*
X49854919Y-90040252D01*
X49950157Y-89992633D01*
X49997776Y-89992633D01*
X50093014Y-90040252D01*
X50140633Y-90087871D01*
X50188252Y-90183109D01*
X50188252Y-90373585D01*
X50235871Y-90468823D01*
X50283490Y-90516442D01*
X50378728Y-90564061D01*
X50569204Y-90564061D01*
X50664442Y-90516442D01*
X50712061Y-90468823D01*
X50759680Y-90373585D01*
X50759680Y-90183109D01*
X50712061Y-90087871D01*
X50664442Y-90040252D01*
X50569204Y-89992633D01*
X50378728Y-89992633D01*
X50283490Y-90040252D01*
X50235871Y-90087871D01*
X50188252Y-90183109D01*
X48408704Y-90735485D02*
X48408704Y-91116438D01*
X48789657Y-91154533D01*
X48751561Y-91116438D01*
X48713466Y-91040247D01*
X48713466Y-90849771D01*
X48751561Y-90773580D01*
X48789657Y-90735485D01*
X48865847Y-90697390D01*
X49056323Y-90697390D01*
X49132514Y-90735485D01*
X49170609Y-90773580D01*
X49208704Y-90849771D01*
X49208704Y-91040247D01*
X49170609Y-91116438D01*
X49132514Y-91154533D01*
X48675371Y-90430723D02*
X49208704Y-90240247D01*
X48675371Y-90049771D01*
X50995238Y-90643204D02*
X50995238Y-89843204D01*
X51185714Y-89843204D01*
X51300000Y-89881300D01*
X51376190Y-89957490D01*
X51414285Y-90033680D01*
X51452380Y-90186061D01*
X51452380Y-90300347D01*
X51414285Y-90452728D01*
X51376190Y-90528919D01*
X51300000Y-90605109D01*
X51185714Y-90643204D01*
X50995238Y-90643204D01*
X51795238Y-90338442D02*
X52404761Y-90338442D01*
X48542076Y-84290300D02*
X48465885Y-84252204D01*
X48351600Y-84252204D01*
X48237314Y-84290300D01*
X48161123Y-84366490D01*
X48123028Y-84442680D01*
X48084933Y-84595061D01*
X48084933Y-84709347D01*
X48123028Y-84861728D01*
X48161123Y-84937919D01*
X48237314Y-85014109D01*
X48351600Y-85052204D01*
X48427790Y-85052204D01*
X48542076Y-85014109D01*
X48580171Y-84976014D01*
X48580171Y-84709347D01*
X48427790Y-84709347D01*
X48923028Y-85052204D02*
X48923028Y-84252204D01*
X49380171Y-85052204D01*
X49380171Y-84252204D01*
X49761123Y-85052204D02*
X49761123Y-84252204D01*
X49951600Y-84252204D01*
X50065885Y-84290300D01*
X50142076Y-84366490D01*
X50180171Y-84442680D01*
X50218266Y-84595061D01*
X50218266Y-84709347D01*
X50180171Y-84861728D01*
X50142076Y-84937919D01*
X50065885Y-85014109D01*
X49951600Y-85052204D01*
X49761123Y-85052204D01*
X50995238Y-85343204D02*
X50995238Y-84543204D01*
X51185714Y-84543204D01*
X51300000Y-84581300D01*
X51376190Y-84657490D01*
X51414285Y-84733680D01*
X51452380Y-84886061D01*
X51452380Y-85000347D01*
X51414285Y-85152728D01*
X51376190Y-85228919D01*
X51300000Y-85305109D01*
X51185714Y-85343204D01*
X50995238Y-85343204D01*
X51795238Y-85038442D02*
X52404761Y-85038442D01*
X52100000Y-85343204D02*
X52100000Y-84733680D01*
X50813780Y-78572033D02*
X51528066Y-78572033D01*
X51670923Y-78619652D01*
X51766161Y-78714890D01*
X51813780Y-78857747D01*
X51813780Y-78952985D01*
X51147114Y-77667271D02*
X51813780Y-77667271D01*
X50766161Y-77905366D02*
X51480447Y-78143461D01*
X51480447Y-77524414D01*
X48884914Y-78232404D02*
X48503961Y-78232404D01*
X48465866Y-78613357D01*
X48503961Y-78575261D01*
X48580152Y-78537166D01*
X48770628Y-78537166D01*
X48846819Y-78575261D01*
X48884914Y-78613357D01*
X48923009Y-78689547D01*
X48923009Y-78880023D01*
X48884914Y-78956214D01*
X48846819Y-78994309D01*
X48770628Y-79032404D01*
X48580152Y-79032404D01*
X48503961Y-78994309D01*
X48465866Y-78956214D01*
X49189676Y-78499071D02*
X49380152Y-79032404D01*
X49570628Y-78499071D01*
X52863238Y-84150504D02*
X52863238Y-83350504D01*
X53053714Y-83350504D01*
X53168000Y-83388600D01*
X53244190Y-83464790D01*
X53282285Y-83540980D01*
X53320380Y-83693361D01*
X53320380Y-83807647D01*
X53282285Y-83960028D01*
X53244190Y-84036219D01*
X53168000Y-84112409D01*
X53053714Y-84150504D01*
X52863238Y-84150504D01*
X53663238Y-83845742D02*
X54272761Y-83845742D01*
X48529376Y-84303000D02*
X48453185Y-84264904D01*
X48338900Y-84264904D01*
X48224614Y-84303000D01*
X48148423Y-84379190D01*
X48110328Y-84455380D01*
X48072233Y-84607761D01*
X48072233Y-84722047D01*
X48110328Y-84874428D01*
X48148423Y-84950619D01*
X48224614Y-85026809D01*
X48338900Y-85064904D01*
X48415090Y-85064904D01*
X48529376Y-85026809D01*
X48567471Y-84988714D01*
X48567471Y-84722047D01*
X48415090Y-84722047D01*
X48910328Y-85064904D02*
X48910328Y-84264904D01*
X49367471Y-85064904D01*
X49367471Y-84264904D01*
X49748423Y-85064904D02*
X49748423Y-84264904D01*
X49938900Y-84264904D01*
X50053185Y-84303000D01*
X50129376Y-84379190D01*
X50167471Y-84455380D01*
X50205566Y-84607761D01*
X50205566Y-84722047D01*
X50167471Y-84874428D01*
X50129376Y-84950619D01*
X50053185Y-85026809D01*
X49938900Y-85064904D01*
X49748423Y-85064904D01*
X52990238Y-80848504D02*
X52990238Y-80048504D01*
X53180714Y-80048504D01*
X53295000Y-80086600D01*
X53371190Y-80162790D01*
X53409285Y-80238980D01*
X53447380Y-80391361D01*
X53447380Y-80505647D01*
X53409285Y-80658028D01*
X53371190Y-80734219D01*
X53295000Y-80810409D01*
X53180714Y-80848504D01*
X52990238Y-80848504D01*
X53790238Y-80543742D02*
X54399761Y-80543742D01*
X54095000Y-80848504D02*
X54095000Y-80238980D01*
X71732295Y-109707780D02*
X71732295Y-110517304D01*
X71779914Y-110612542D01*
X71827533Y-110660161D01*
X71922771Y-110707780D01*
X72113247Y-110707780D01*
X72208485Y-110660161D01*
X72256104Y-110612542D01*
X72303723Y-110517304D01*
X72303723Y-109707780D01*
X72684676Y-109707780D02*
X73351342Y-109707780D01*
X72922771Y-110707780D01*
X80830895Y-46995180D02*
X80830895Y-47804704D01*
X80878514Y-47899942D01*
X80926133Y-47947561D01*
X81021371Y-47995180D01*
X81211847Y-47995180D01*
X81307085Y-47947561D01*
X81354704Y-47899942D01*
X81402323Y-47804704D01*
X81402323Y-46995180D01*
X82307085Y-46995180D02*
X82116609Y-46995180D01*
X82021371Y-47042800D01*
X81973752Y-47090419D01*
X81878514Y-47233276D01*
X81830895Y-47423752D01*
X81830895Y-47804704D01*
X81878514Y-47899942D01*
X81926133Y-47947561D01*
X82021371Y-47995180D01*
X82211847Y-47995180D01*
X82307085Y-47947561D01*
X82354704Y-47899942D01*
X82402323Y-47804704D01*
X82402323Y-47566609D01*
X82354704Y-47471371D01*
X82307085Y-47423752D01*
X82211847Y-47376133D01*
X82021371Y-47376133D01*
X81926133Y-47423752D01*
X81878514Y-47471371D01*
X81830895Y-47566609D01*
X59047424Y-95302493D02*
X59695043Y-95302493D01*
X59771234Y-95264398D01*
X59809329Y-95226303D01*
X59847424Y-95150112D01*
X59847424Y-94997731D01*
X59809329Y-94921541D01*
X59771234Y-94883446D01*
X59695043Y-94845350D01*
X59047424Y-94845350D01*
X59314091Y-94121541D02*
X59847424Y-94121541D01*
X59009329Y-94312017D02*
X59580758Y-94502493D01*
X59580758Y-94007255D01*
X64290476Y-86091904D02*
X64290476Y-86739523D01*
X64328571Y-86815714D01*
X64366666Y-86853809D01*
X64442857Y-86891904D01*
X64595238Y-86891904D01*
X64671428Y-86853809D01*
X64709523Y-86815714D01*
X64747619Y-86739523D01*
X64747619Y-86091904D01*
X65509523Y-86091904D02*
X65128571Y-86091904D01*
X65090476Y-86472857D01*
X65128571Y-86434761D01*
X65204761Y-86396666D01*
X65395238Y-86396666D01*
X65471428Y-86434761D01*
X65509523Y-86472857D01*
X65547619Y-86549047D01*
X65547619Y-86739523D01*
X65509523Y-86815714D01*
X65471428Y-86853809D01*
X65395238Y-86891904D01*
X65204761Y-86891904D01*
X65128571Y-86853809D01*
X65090476Y-86815714D01*
X81893333Y-99152380D02*
X81417142Y-99152380D01*
X81417142Y-98152380D01*
X82750476Y-99152380D02*
X82179047Y-99152380D01*
X82464761Y-99152380D02*
X82464761Y-98152380D01*
X82369523Y-98295238D01*
X82274285Y-98390476D01*
X82179047Y-98438095D01*
X62243333Y-102322380D02*
X61767142Y-102322380D01*
X61767142Y-101322380D01*
X62529047Y-101417619D02*
X62576666Y-101370000D01*
X62671904Y-101322380D01*
X62910000Y-101322380D01*
X63005238Y-101370000D01*
X63052857Y-101417619D01*
X63100476Y-101512857D01*
X63100476Y-101608095D01*
X63052857Y-101750952D01*
X62481428Y-102322380D01*
X63100476Y-102322380D01*
X68516666Y-91465714D02*
X68478571Y-91503809D01*
X68364285Y-91541904D01*
X68288095Y-91541904D01*
X68173809Y-91503809D01*
X68097619Y-91427619D01*
X68059523Y-91351428D01*
X68021428Y-91199047D01*
X68021428Y-91084761D01*
X68059523Y-90932380D01*
X68097619Y-90856190D01*
X68173809Y-90780000D01*
X68288095Y-90741904D01*
X68364285Y-90741904D01*
X68478571Y-90780000D01*
X68516666Y-90818095D01*
X69202380Y-91008571D02*
X69202380Y-91541904D01*
X69011904Y-90703809D02*
X68821428Y-91275238D01*
X69316666Y-91275238D01*
X69285714Y-88793333D02*
X69323809Y-88831428D01*
X69361904Y-88945714D01*
X69361904Y-89021904D01*
X69323809Y-89136190D01*
X69247619Y-89212380D01*
X69171428Y-89250476D01*
X69019047Y-89288571D01*
X68904761Y-89288571D01*
X68752380Y-89250476D01*
X68676190Y-89212380D01*
X68600000Y-89136190D01*
X68561904Y-89021904D01*
X68561904Y-88945714D01*
X68600000Y-88831428D01*
X68638095Y-88793333D01*
X68561904Y-88069523D02*
X68561904Y-88450476D01*
X68942857Y-88488571D01*
X68904761Y-88450476D01*
X68866666Y-88374285D01*
X68866666Y-88183809D01*
X68904761Y-88107619D01*
X68942857Y-88069523D01*
X69019047Y-88031428D01*
X69209523Y-88031428D01*
X69285714Y-88069523D01*
X69323809Y-88107619D01*
X69361904Y-88183809D01*
X69361904Y-88374285D01*
X69323809Y-88450476D01*
X69285714Y-88488571D01*
X70703142Y-81776866D02*
X70750761Y-81824485D01*
X70798380Y-81967342D01*
X70798380Y-82062580D01*
X70750761Y-82205438D01*
X70655523Y-82300676D01*
X70560285Y-82348295D01*
X70369809Y-82395914D01*
X70226952Y-82395914D01*
X70036476Y-82348295D01*
X69941238Y-82300676D01*
X69846000Y-82205438D01*
X69798380Y-82062580D01*
X69798380Y-81967342D01*
X69846000Y-81824485D01*
X69893619Y-81776866D01*
X69798380Y-80919723D02*
X69798380Y-81110200D01*
X69846000Y-81205438D01*
X69893619Y-81253057D01*
X70036476Y-81348295D01*
X70226952Y-81395914D01*
X70607904Y-81395914D01*
X70703142Y-81348295D01*
X70750761Y-81300676D01*
X70798380Y-81205438D01*
X70798380Y-81014961D01*
X70750761Y-80919723D01*
X70703142Y-80872104D01*
X70607904Y-80824485D01*
X70369809Y-80824485D01*
X70274571Y-80872104D01*
X70226952Y-80919723D01*
X70179333Y-81014961D01*
X70179333Y-81205438D01*
X70226952Y-81300676D01*
X70274571Y-81348295D01*
X70369809Y-81395914D01*
X57407142Y-110566666D02*
X57454761Y-110614285D01*
X57502380Y-110757142D01*
X57502380Y-110852380D01*
X57454761Y-110995238D01*
X57359523Y-111090476D01*
X57264285Y-111138095D01*
X57073809Y-111185714D01*
X56930952Y-111185714D01*
X56740476Y-111138095D01*
X56645238Y-111090476D01*
X56550000Y-110995238D01*
X56502380Y-110852380D01*
X56502380Y-110757142D01*
X56550000Y-110614285D01*
X56597619Y-110566666D01*
X56502380Y-110233333D02*
X56502380Y-109566666D01*
X57502380Y-109995238D01*
X75277142Y-93386666D02*
X75324761Y-93434285D01*
X75372380Y-93577142D01*
X75372380Y-93672380D01*
X75324761Y-93815238D01*
X75229523Y-93910476D01*
X75134285Y-93958095D01*
X74943809Y-94005714D01*
X74800952Y-94005714D01*
X74610476Y-93958095D01*
X74515238Y-93910476D01*
X74420000Y-93815238D01*
X74372380Y-93672380D01*
X74372380Y-93577142D01*
X74420000Y-93434285D01*
X74467619Y-93386666D01*
X74800952Y-92815238D02*
X74753333Y-92910476D01*
X74705714Y-92958095D01*
X74610476Y-93005714D01*
X74562857Y-93005714D01*
X74467619Y-92958095D01*
X74420000Y-92910476D01*
X74372380Y-92815238D01*
X74372380Y-92624761D01*
X74420000Y-92529523D01*
X74467619Y-92481904D01*
X74562857Y-92434285D01*
X74610476Y-92434285D01*
X74705714Y-92481904D01*
X74753333Y-92529523D01*
X74800952Y-92624761D01*
X74800952Y-92815238D01*
X74848571Y-92910476D01*
X74896190Y-92958095D01*
X74991428Y-93005714D01*
X75181904Y-93005714D01*
X75277142Y-92958095D01*
X75324761Y-92910476D01*
X75372380Y-92815238D01*
X75372380Y-92624761D01*
X75324761Y-92529523D01*
X75277142Y-92481904D01*
X75181904Y-92434285D01*
X74991428Y-92434285D01*
X74896190Y-92481904D01*
X74848571Y-92529523D01*
X74800952Y-92624761D01*
X73040793Y-98368942D02*
X72993174Y-98416561D01*
X72850317Y-98464180D01*
X72755079Y-98464180D01*
X72612221Y-98416561D01*
X72516983Y-98321323D01*
X72469364Y-98226085D01*
X72421745Y-98035609D01*
X72421745Y-97892752D01*
X72469364Y-97702276D01*
X72516983Y-97607038D01*
X72612221Y-97511800D01*
X72755079Y-97464180D01*
X72850317Y-97464180D01*
X72993174Y-97511800D01*
X73040793Y-97559419D01*
X73516983Y-98464180D02*
X73707460Y-98464180D01*
X73802698Y-98416561D01*
X73850317Y-98368942D01*
X73945555Y-98226085D01*
X73993174Y-98035609D01*
X73993174Y-97654657D01*
X73945555Y-97559419D01*
X73897936Y-97511800D01*
X73802698Y-97464180D01*
X73612221Y-97464180D01*
X73516983Y-97511800D01*
X73469364Y-97559419D01*
X73421745Y-97654657D01*
X73421745Y-97892752D01*
X73469364Y-97987990D01*
X73516983Y-98035609D01*
X73612221Y-98083228D01*
X73802698Y-98083228D01*
X73897936Y-98035609D01*
X73945555Y-97987990D01*
X73993174Y-97892752D01*
X70025714Y-97674285D02*
X70063809Y-97712380D01*
X70101904Y-97826666D01*
X70101904Y-97902857D01*
X70063809Y-98017142D01*
X69987619Y-98093333D01*
X69911428Y-98131428D01*
X69759047Y-98169523D01*
X69644761Y-98169523D01*
X69492380Y-98131428D01*
X69416190Y-98093333D01*
X69340000Y-98017142D01*
X69301904Y-97902857D01*
X69301904Y-97826666D01*
X69340000Y-97712380D01*
X69378095Y-97674285D01*
X70101904Y-96912380D02*
X70101904Y-97369523D01*
X70101904Y-97140952D02*
X69301904Y-97140952D01*
X69416190Y-97217142D01*
X69492380Y-97293333D01*
X69530476Y-97369523D01*
X69301904Y-96417142D02*
X69301904Y-96340952D01*
X69340000Y-96264761D01*
X69378095Y-96226666D01*
X69454285Y-96188571D01*
X69606666Y-96150476D01*
X69797142Y-96150476D01*
X69949523Y-96188571D01*
X70025714Y-96226666D01*
X70063809Y-96264761D01*
X70101904Y-96340952D01*
X70101904Y-96417142D01*
X70063809Y-96493333D01*
X70025714Y-96531428D01*
X69949523Y-96569523D01*
X69797142Y-96607619D01*
X69606666Y-96607619D01*
X69454285Y-96569523D01*
X69378095Y-96531428D01*
X69340000Y-96493333D01*
X69301904Y-96417142D01*
X75987142Y-101412857D02*
X76034761Y-101460476D01*
X76082380Y-101603333D01*
X76082380Y-101698571D01*
X76034761Y-101841428D01*
X75939523Y-101936666D01*
X75844285Y-101984285D01*
X75653809Y-102031904D01*
X75510952Y-102031904D01*
X75320476Y-101984285D01*
X75225238Y-101936666D01*
X75130000Y-101841428D01*
X75082380Y-101698571D01*
X75082380Y-101603333D01*
X75130000Y-101460476D01*
X75177619Y-101412857D01*
X76082380Y-100460476D02*
X76082380Y-101031904D01*
X76082380Y-100746190D02*
X75082380Y-100746190D01*
X75225238Y-100841428D01*
X75320476Y-100936666D01*
X75368095Y-101031904D01*
X76082380Y-99508095D02*
X76082380Y-100079523D01*
X76082380Y-99793809D02*
X75082380Y-99793809D01*
X75225238Y-99889047D01*
X75320476Y-99984285D01*
X75368095Y-100079523D01*
X61165714Y-91305714D02*
X61127619Y-91343809D01*
X61013333Y-91381904D01*
X60937142Y-91381904D01*
X60822857Y-91343809D01*
X60746666Y-91267619D01*
X60708571Y-91191428D01*
X60670476Y-91039047D01*
X60670476Y-90924761D01*
X60708571Y-90772380D01*
X60746666Y-90696190D01*
X60822857Y-90620000D01*
X60937142Y-90581904D01*
X61013333Y-90581904D01*
X61127619Y-90620000D01*
X61165714Y-90658095D01*
X61927619Y-91381904D02*
X61470476Y-91381904D01*
X61699047Y-91381904D02*
X61699047Y-90581904D01*
X61622857Y-90696190D01*
X61546666Y-90772380D01*
X61470476Y-90810476D01*
X62232380Y-90658095D02*
X62270476Y-90620000D01*
X62346666Y-90581904D01*
X62537142Y-90581904D01*
X62613333Y-90620000D01*
X62651428Y-90658095D01*
X62689523Y-90734285D01*
X62689523Y-90810476D01*
X62651428Y-90924761D01*
X62194285Y-91381904D01*
X62689523Y-91381904D01*
X65675714Y-91305714D02*
X65637619Y-91343809D01*
X65523333Y-91381904D01*
X65447142Y-91381904D01*
X65332857Y-91343809D01*
X65256666Y-91267619D01*
X65218571Y-91191428D01*
X65180476Y-91039047D01*
X65180476Y-90924761D01*
X65218571Y-90772380D01*
X65256666Y-90696190D01*
X65332857Y-90620000D01*
X65447142Y-90581904D01*
X65523333Y-90581904D01*
X65637619Y-90620000D01*
X65675714Y-90658095D01*
X66437619Y-91381904D02*
X65980476Y-91381904D01*
X66209047Y-91381904D02*
X66209047Y-90581904D01*
X66132857Y-90696190D01*
X66056666Y-90772380D01*
X65980476Y-90810476D01*
X66704285Y-90581904D02*
X67199523Y-90581904D01*
X66932857Y-90886666D01*
X67047142Y-90886666D01*
X67123333Y-90924761D01*
X67161428Y-90962857D01*
X67199523Y-91039047D01*
X67199523Y-91229523D01*
X67161428Y-91305714D01*
X67123333Y-91343809D01*
X67047142Y-91381904D01*
X66818571Y-91381904D01*
X66742380Y-91343809D01*
X66704285Y-91305714D01*
X62035714Y-84025714D02*
X61997619Y-84063809D01*
X61883333Y-84101904D01*
X61807142Y-84101904D01*
X61692857Y-84063809D01*
X61616666Y-83987619D01*
X61578571Y-83911428D01*
X61540476Y-83759047D01*
X61540476Y-83644761D01*
X61578571Y-83492380D01*
X61616666Y-83416190D01*
X61692857Y-83340000D01*
X61807142Y-83301904D01*
X61883333Y-83301904D01*
X61997619Y-83340000D01*
X62035714Y-83378095D01*
X62797619Y-84101904D02*
X62340476Y-84101904D01*
X62569047Y-84101904D02*
X62569047Y-83301904D01*
X62492857Y-83416190D01*
X62416666Y-83492380D01*
X62340476Y-83530476D01*
X63483333Y-83568571D02*
X63483333Y-84101904D01*
X63292857Y-83263809D02*
X63102380Y-83835238D01*
X63597619Y-83835238D01*
X68426740Y-97826375D02*
X67426740Y-97826375D01*
X67426740Y-97588280D01*
X67474360Y-97445422D01*
X67569598Y-97350184D01*
X67664836Y-97302565D01*
X67855312Y-97254946D01*
X67998169Y-97254946D01*
X68188645Y-97302565D01*
X68283883Y-97350184D01*
X68379121Y-97445422D01*
X68426740Y-97588280D01*
X68426740Y-97826375D01*
X67426740Y-96921613D02*
X67426740Y-96302565D01*
X67807693Y-96635899D01*
X67807693Y-96493041D01*
X67855312Y-96397803D01*
X67902931Y-96350184D01*
X67998169Y-96302565D01*
X68236264Y-96302565D01*
X68331502Y-96350184D01*
X68379121Y-96397803D01*
X68426740Y-96493041D01*
X68426740Y-96778756D01*
X68379121Y-96873994D01*
X68331502Y-96921613D01*
X82742533Y-88547780D02*
X82409200Y-88071590D01*
X82171104Y-88547780D02*
X82171104Y-87547780D01*
X82552057Y-87547780D01*
X82647295Y-87595400D01*
X82694914Y-87643019D01*
X82742533Y-87738257D01*
X82742533Y-87881114D01*
X82694914Y-87976352D01*
X82647295Y-88023971D01*
X82552057Y-88071590D01*
X82171104Y-88071590D01*
X83694914Y-88547780D02*
X83123485Y-88547780D01*
X83409200Y-88547780D02*
X83409200Y-87547780D01*
X83313961Y-87690638D01*
X83218723Y-87785876D01*
X83123485Y-87833495D01*
X72547680Y-81255166D02*
X72071490Y-81588500D01*
X72547680Y-81826595D02*
X71547680Y-81826595D01*
X71547680Y-81445642D01*
X71595300Y-81350404D01*
X71642919Y-81302785D01*
X71738157Y-81255166D01*
X71881014Y-81255166D01*
X71976252Y-81302785D01*
X72023871Y-81350404D01*
X72071490Y-81445642D01*
X72071490Y-81826595D01*
X71642919Y-80874214D02*
X71595300Y-80826595D01*
X71547680Y-80731357D01*
X71547680Y-80493261D01*
X71595300Y-80398023D01*
X71642919Y-80350404D01*
X71738157Y-80302785D01*
X71833395Y-80302785D01*
X71976252Y-80350404D01*
X72547680Y-80921833D01*
X72547680Y-80302785D01*
X82844133Y-90224180D02*
X82510800Y-89747990D01*
X82272704Y-90224180D02*
X82272704Y-89224180D01*
X82653657Y-89224180D01*
X82748895Y-89271800D01*
X82796514Y-89319419D01*
X82844133Y-89414657D01*
X82844133Y-89557514D01*
X82796514Y-89652752D01*
X82748895Y-89700371D01*
X82653657Y-89747990D01*
X82272704Y-89747990D01*
X83177466Y-89224180D02*
X83796514Y-89224180D01*
X83463180Y-89605133D01*
X83606038Y-89605133D01*
X83701276Y-89652752D01*
X83748895Y-89700371D01*
X83796514Y-89795609D01*
X83796514Y-90033704D01*
X83748895Y-90128942D01*
X83701276Y-90176561D01*
X83606038Y-90224180D01*
X83320323Y-90224180D01*
X83225085Y-90176561D01*
X83177466Y-90128942D01*
X52802380Y-109866666D02*
X52326190Y-110200000D01*
X52802380Y-110438095D02*
X51802380Y-110438095D01*
X51802380Y-110057142D01*
X51850000Y-109961904D01*
X51897619Y-109914285D01*
X51992857Y-109866666D01*
X52135714Y-109866666D01*
X52230952Y-109914285D01*
X52278571Y-109961904D01*
X52326190Y-110057142D01*
X52326190Y-110438095D01*
X52135714Y-109009523D02*
X52802380Y-109009523D01*
X51754761Y-109247619D02*
X52469047Y-109485714D01*
X52469047Y-108866666D01*
X71346666Y-93861904D02*
X71080000Y-93480952D01*
X70889523Y-93861904D02*
X70889523Y-93061904D01*
X71194285Y-93061904D01*
X71270476Y-93100000D01*
X71308571Y-93138095D01*
X71346666Y-93214285D01*
X71346666Y-93328571D01*
X71308571Y-93404761D01*
X71270476Y-93442857D01*
X71194285Y-93480952D01*
X70889523Y-93480952D01*
X72070476Y-93061904D02*
X71689523Y-93061904D01*
X71651428Y-93442857D01*
X71689523Y-93404761D01*
X71765714Y-93366666D01*
X71956190Y-93366666D01*
X72032380Y-93404761D01*
X72070476Y-93442857D01*
X72108571Y-93519047D01*
X72108571Y-93709523D01*
X72070476Y-93785714D01*
X72032380Y-93823809D01*
X71956190Y-93861904D01*
X71765714Y-93861904D01*
X71689523Y-93823809D01*
X71651428Y-93785714D01*
X67496666Y-94551904D02*
X67230000Y-94170952D01*
X67039523Y-94551904D02*
X67039523Y-93751904D01*
X67344285Y-93751904D01*
X67420476Y-93790000D01*
X67458571Y-93828095D01*
X67496666Y-93904285D01*
X67496666Y-94018571D01*
X67458571Y-94094761D01*
X67420476Y-94132857D01*
X67344285Y-94170952D01*
X67039523Y-94170952D01*
X67763333Y-93751904D02*
X68296666Y-93751904D01*
X67953809Y-94551904D01*
X63786666Y-91291904D02*
X63520000Y-90910952D01*
X63329523Y-91291904D02*
X63329523Y-90491904D01*
X63634285Y-90491904D01*
X63710476Y-90530000D01*
X63748571Y-90568095D01*
X63786666Y-90644285D01*
X63786666Y-90758571D01*
X63748571Y-90834761D01*
X63710476Y-90872857D01*
X63634285Y-90910952D01*
X63329523Y-90910952D01*
X64243809Y-90834761D02*
X64167619Y-90796666D01*
X64129523Y-90758571D01*
X64091428Y-90682380D01*
X64091428Y-90644285D01*
X64129523Y-90568095D01*
X64167619Y-90530000D01*
X64243809Y-90491904D01*
X64396190Y-90491904D01*
X64472380Y-90530000D01*
X64510476Y-90568095D01*
X64548571Y-90644285D01*
X64548571Y-90682380D01*
X64510476Y-90758571D01*
X64472380Y-90796666D01*
X64396190Y-90834761D01*
X64243809Y-90834761D01*
X64167619Y-90872857D01*
X64129523Y-90910952D01*
X64091428Y-90987142D01*
X64091428Y-91139523D01*
X64129523Y-91215714D01*
X64167619Y-91253809D01*
X64243809Y-91291904D01*
X64396190Y-91291904D01*
X64472380Y-91253809D01*
X64510476Y-91215714D01*
X64548571Y-91139523D01*
X64548571Y-90987142D01*
X64510476Y-90910952D01*
X64472380Y-90872857D01*
X64396190Y-90834761D01*
X58871904Y-85993333D02*
X58490952Y-86260000D01*
X58871904Y-86450476D02*
X58071904Y-86450476D01*
X58071904Y-86145714D01*
X58110000Y-86069523D01*
X58148095Y-86031428D01*
X58224285Y-85993333D01*
X58338571Y-85993333D01*
X58414761Y-86031428D01*
X58452857Y-86069523D01*
X58490952Y-86145714D01*
X58490952Y-86450476D01*
X58871904Y-85612380D02*
X58871904Y-85460000D01*
X58833809Y-85383809D01*
X58795714Y-85345714D01*
X58681428Y-85269523D01*
X58529047Y-85231428D01*
X58224285Y-85231428D01*
X58148095Y-85269523D01*
X58110000Y-85307619D01*
X58071904Y-85383809D01*
X58071904Y-85536190D01*
X58110000Y-85612380D01*
X58148095Y-85650476D01*
X58224285Y-85688571D01*
X58414761Y-85688571D01*
X58490952Y-85650476D01*
X58529047Y-85612380D01*
X58567142Y-85536190D01*
X58567142Y-85383809D01*
X58529047Y-85307619D01*
X58490952Y-85269523D01*
X58414761Y-85231428D01*
X58881904Y-90304285D02*
X58500952Y-90570952D01*
X58881904Y-90761428D02*
X58081904Y-90761428D01*
X58081904Y-90456666D01*
X58120000Y-90380476D01*
X58158095Y-90342380D01*
X58234285Y-90304285D01*
X58348571Y-90304285D01*
X58424761Y-90342380D01*
X58462857Y-90380476D01*
X58500952Y-90456666D01*
X58500952Y-90761428D01*
X58881904Y-89542380D02*
X58881904Y-89999523D01*
X58881904Y-89770952D02*
X58081904Y-89770952D01*
X58196190Y-89847142D01*
X58272380Y-89923333D01*
X58310476Y-89999523D01*
X58081904Y-89047142D02*
X58081904Y-88970952D01*
X58120000Y-88894761D01*
X58158095Y-88856666D01*
X58234285Y-88818571D01*
X58386666Y-88780476D01*
X58577142Y-88780476D01*
X58729523Y-88818571D01*
X58805714Y-88856666D01*
X58843809Y-88894761D01*
X58881904Y-88970952D01*
X58881904Y-89047142D01*
X58843809Y-89123333D01*
X58805714Y-89161428D01*
X58729523Y-89199523D01*
X58577142Y-89237619D01*
X58386666Y-89237619D01*
X58234285Y-89199523D01*
X58158095Y-89161428D01*
X58120000Y-89123333D01*
X58081904Y-89047142D01*
X95402380Y-68672857D02*
X94926190Y-69006190D01*
X95402380Y-69244285D02*
X94402380Y-69244285D01*
X94402380Y-68863333D01*
X94450000Y-68768095D01*
X94497619Y-68720476D01*
X94592857Y-68672857D01*
X94735714Y-68672857D01*
X94830952Y-68720476D01*
X94878571Y-68768095D01*
X94926190Y-68863333D01*
X94926190Y-69244285D01*
X95402380Y-67720476D02*
X95402380Y-68291904D01*
X95402380Y-68006190D02*
X94402380Y-68006190D01*
X94545238Y-68101428D01*
X94640476Y-68196666D01*
X94688095Y-68291904D01*
X95402380Y-66768095D02*
X95402380Y-67339523D01*
X95402380Y-67053809D02*
X94402380Y-67053809D01*
X94545238Y-67149047D01*
X94640476Y-67244285D01*
X94688095Y-67339523D01*
X94252380Y-78592857D02*
X93776190Y-78926190D01*
X94252380Y-79164285D02*
X93252380Y-79164285D01*
X93252380Y-78783333D01*
X93300000Y-78688095D01*
X93347619Y-78640476D01*
X93442857Y-78592857D01*
X93585714Y-78592857D01*
X93680952Y-78640476D01*
X93728571Y-78688095D01*
X93776190Y-78783333D01*
X93776190Y-79164285D01*
X94252380Y-77640476D02*
X94252380Y-78211904D01*
X94252380Y-77926190D02*
X93252380Y-77926190D01*
X93395238Y-78021428D01*
X93490476Y-78116666D01*
X93538095Y-78211904D01*
X93347619Y-77259523D02*
X93300000Y-77211904D01*
X93252380Y-77116666D01*
X93252380Y-76878571D01*
X93300000Y-76783333D01*
X93347619Y-76735714D01*
X93442857Y-76688095D01*
X93538095Y-76688095D01*
X93680952Y-76735714D01*
X94252380Y-77307142D01*
X94252380Y-76688095D01*
X91397142Y-58872380D02*
X91063809Y-58396190D01*
X90825714Y-58872380D02*
X90825714Y-57872380D01*
X91206666Y-57872380D01*
X91301904Y-57920000D01*
X91349523Y-57967619D01*
X91397142Y-58062857D01*
X91397142Y-58205714D01*
X91349523Y-58300952D01*
X91301904Y-58348571D01*
X91206666Y-58396190D01*
X90825714Y-58396190D01*
X92349523Y-58872380D02*
X91778095Y-58872380D01*
X92063809Y-58872380D02*
X92063809Y-57872380D01*
X91968571Y-58015238D01*
X91873333Y-58110476D01*
X91778095Y-58158095D01*
X92682857Y-57872380D02*
X93301904Y-57872380D01*
X92968571Y-58253333D01*
X93111428Y-58253333D01*
X93206666Y-58300952D01*
X93254285Y-58348571D01*
X93301904Y-58443809D01*
X93301904Y-58681904D01*
X93254285Y-58777142D01*
X93206666Y-58824761D01*
X93111428Y-58872380D01*
X92825714Y-58872380D01*
X92730476Y-58824761D01*
X92682857Y-58777142D01*
X93957142Y-66422380D02*
X93623809Y-65946190D01*
X93385714Y-66422380D02*
X93385714Y-65422380D01*
X93766666Y-65422380D01*
X93861904Y-65470000D01*
X93909523Y-65517619D01*
X93957142Y-65612857D01*
X93957142Y-65755714D01*
X93909523Y-65850952D01*
X93861904Y-65898571D01*
X93766666Y-65946190D01*
X93385714Y-65946190D01*
X94909523Y-66422380D02*
X94338095Y-66422380D01*
X94623809Y-66422380D02*
X94623809Y-65422380D01*
X94528571Y-65565238D01*
X94433333Y-65660476D01*
X94338095Y-65708095D01*
X95766666Y-65755714D02*
X95766666Y-66422380D01*
X95528571Y-65374761D02*
X95290476Y-66089047D01*
X95909523Y-66089047D01*
X52737142Y-76492857D02*
X52784761Y-76540476D01*
X52832380Y-76683333D01*
X52832380Y-76778571D01*
X52784761Y-76921428D01*
X52689523Y-77016666D01*
X52594285Y-77064285D01*
X52403809Y-77111904D01*
X52260952Y-77111904D01*
X52070476Y-77064285D01*
X51975238Y-77016666D01*
X51880000Y-76921428D01*
X51832380Y-76778571D01*
X51832380Y-76683333D01*
X51880000Y-76540476D01*
X51927619Y-76492857D01*
X52832380Y-75540476D02*
X52832380Y-76111904D01*
X52832380Y-75826190D02*
X51832380Y-75826190D01*
X51975238Y-75921428D01*
X52070476Y-76016666D01*
X52118095Y-76111904D01*
X51832380Y-74635714D02*
X51832380Y-75111904D01*
X52308571Y-75159523D01*
X52260952Y-75111904D01*
X52213333Y-75016666D01*
X52213333Y-74778571D01*
X52260952Y-74683333D01*
X52308571Y-74635714D01*
X52403809Y-74588095D01*
X52641904Y-74588095D01*
X52737142Y-74635714D01*
X52784761Y-74683333D01*
X52832380Y-74778571D01*
X52832380Y-75016666D01*
X52784761Y-75111904D01*
X52737142Y-75159523D01*
X76182742Y-81382866D02*
X76230361Y-81430485D01*
X76277980Y-81573342D01*
X76277980Y-81668580D01*
X76230361Y-81811438D01*
X76135123Y-81906676D01*
X76039885Y-81954295D01*
X75849409Y-82001914D01*
X75706552Y-82001914D01*
X75516076Y-81954295D01*
X75420838Y-81906676D01*
X75325600Y-81811438D01*
X75277980Y-81668580D01*
X75277980Y-81573342D01*
X75325600Y-81430485D01*
X75373219Y-81382866D01*
X76277980Y-80430485D02*
X76277980Y-81001914D01*
X76277980Y-80716200D02*
X75277980Y-80716200D01*
X75420838Y-80811438D01*
X75516076Y-80906676D01*
X75563695Y-81001914D01*
X68726666Y-85255714D02*
X68688571Y-85293809D01*
X68574285Y-85331904D01*
X68498095Y-85331904D01*
X68383809Y-85293809D01*
X68307619Y-85217619D01*
X68269523Y-85141428D01*
X68231428Y-84989047D01*
X68231428Y-84874761D01*
X68269523Y-84722380D01*
X68307619Y-84646190D01*
X68383809Y-84570000D01*
X68498095Y-84531904D01*
X68574285Y-84531904D01*
X68688571Y-84570000D01*
X68726666Y-84608095D01*
X69031428Y-84608095D02*
X69069523Y-84570000D01*
X69145714Y-84531904D01*
X69336190Y-84531904D01*
X69412380Y-84570000D01*
X69450476Y-84608095D01*
X69488571Y-84684285D01*
X69488571Y-84760476D01*
X69450476Y-84874761D01*
X68993333Y-85331904D01*
X69488571Y-85331904D01*
X71403333Y-104177142D02*
X71355714Y-104224761D01*
X71212857Y-104272380D01*
X71117619Y-104272380D01*
X70974761Y-104224761D01*
X70879523Y-104129523D01*
X70831904Y-104034285D01*
X70784285Y-103843809D01*
X70784285Y-103700952D01*
X70831904Y-103510476D01*
X70879523Y-103415238D01*
X70974761Y-103320000D01*
X71117619Y-103272380D01*
X71212857Y-103272380D01*
X71355714Y-103320000D01*
X71403333Y-103367619D01*
X71736666Y-103272380D02*
X72355714Y-103272380D01*
X72022380Y-103653333D01*
X72165238Y-103653333D01*
X72260476Y-103700952D01*
X72308095Y-103748571D01*
X72355714Y-103843809D01*
X72355714Y-104081904D01*
X72308095Y-104177142D01*
X72260476Y-104224761D01*
X72165238Y-104272380D01*
X71879523Y-104272380D01*
X71784285Y-104224761D01*
X71736666Y-104177142D01*
X51575780Y-96491733D02*
X52290066Y-96491733D01*
X52432923Y-96539352D01*
X52528161Y-96634590D01*
X52575780Y-96777447D01*
X52575780Y-96872685D01*
X51575780Y-96110780D02*
X51575780Y-95491733D01*
X51956733Y-95825066D01*
X51956733Y-95682209D01*
X52004352Y-95586971D01*
X52051971Y-95539352D01*
X52147209Y-95491733D01*
X52385304Y-95491733D01*
X52480542Y-95539352D01*
X52528161Y-95586971D01*
X52575780Y-95682209D01*
X52575780Y-95967923D01*
X52528161Y-96063161D01*
X52480542Y-96110780D01*
X48319804Y-95936080D02*
X48319804Y-95478938D01*
X49119804Y-95707509D02*
X48319804Y-95707509D01*
X49119804Y-95288461D02*
X48586471Y-94869414D01*
X48586471Y-95288461D02*
X49119804Y-94869414D01*
X48472200Y-93885023D02*
X48434104Y-93961214D01*
X48434104Y-94075500D01*
X48472200Y-94189785D01*
X48548390Y-94265976D01*
X48624580Y-94304071D01*
X48776961Y-94342166D01*
X48891247Y-94342166D01*
X49043628Y-94304071D01*
X49119819Y-94265976D01*
X49196009Y-94189785D01*
X49234104Y-94075500D01*
X49234104Y-93999309D01*
X49196009Y-93885023D01*
X49157914Y-93846928D01*
X48891247Y-93846928D01*
X48891247Y-93999309D01*
X49234104Y-93504071D02*
X48434104Y-93504071D01*
X49234104Y-93046928D01*
X48434104Y-93046928D01*
X49234104Y-92665976D02*
X48434104Y-92665976D01*
X48434104Y-92475500D01*
X48472200Y-92361214D01*
X48548390Y-92285023D01*
X48624580Y-92246928D01*
X48776961Y-92208833D01*
X48891247Y-92208833D01*
X49043628Y-92246928D01*
X49119819Y-92285023D01*
X49196009Y-92361214D01*
X49234104Y-92475500D01*
X49234104Y-92665976D01*
X49107104Y-97199790D02*
X48726152Y-97466457D01*
X49107104Y-97656933D02*
X48307104Y-97656933D01*
X48307104Y-97352171D01*
X48345200Y-97275980D01*
X48383295Y-97237885D01*
X48459485Y-97199790D01*
X48573771Y-97199790D01*
X48649961Y-97237885D01*
X48688057Y-97275980D01*
X48726152Y-97352171D01*
X48726152Y-97656933D01*
X49107104Y-96933123D02*
X48573771Y-96514076D01*
X48573771Y-96933123D02*
X49107104Y-96514076D01*
X48332504Y-100514357D02*
X48332504Y-100019119D01*
X48637266Y-100285785D01*
X48637266Y-100171500D01*
X48675361Y-100095309D01*
X48713457Y-100057214D01*
X48789647Y-100019119D01*
X48980123Y-100019119D01*
X49056314Y-100057214D01*
X49094409Y-100095309D01*
X49132504Y-100171500D01*
X49132504Y-100400071D01*
X49094409Y-100476261D01*
X49056314Y-100514357D01*
X49056314Y-99676261D02*
X49094409Y-99638166D01*
X49132504Y-99676261D01*
X49094409Y-99714357D01*
X49056314Y-99676261D01*
X49132504Y-99676261D01*
X48332504Y-99371500D02*
X48332504Y-98876261D01*
X48637266Y-99142928D01*
X48637266Y-99028642D01*
X48675361Y-98952452D01*
X48713457Y-98914357D01*
X48789647Y-98876261D01*
X48980123Y-98876261D01*
X49056314Y-98914357D01*
X49094409Y-98952452D01*
X49132504Y-99028642D01*
X49132504Y-99257214D01*
X49094409Y-99333404D01*
X49056314Y-99371500D01*
X48599171Y-98609595D02*
X49132504Y-98419119D01*
X48599171Y-98228642D01*
X86757142Y-65692857D02*
X86804761Y-65740476D01*
X86852380Y-65883333D01*
X86852380Y-65978571D01*
X86804761Y-66121428D01*
X86709523Y-66216666D01*
X86614285Y-66264285D01*
X86423809Y-66311904D01*
X86280952Y-66311904D01*
X86090476Y-66264285D01*
X85995238Y-66216666D01*
X85900000Y-66121428D01*
X85852380Y-65978571D01*
X85852380Y-65883333D01*
X85900000Y-65740476D01*
X85947619Y-65692857D01*
X86852380Y-64740476D02*
X86852380Y-65311904D01*
X86852380Y-65026190D02*
X85852380Y-65026190D01*
X85995238Y-65121428D01*
X86090476Y-65216666D01*
X86138095Y-65311904D01*
X85852380Y-63883333D02*
X85852380Y-64073809D01*
X85900000Y-64169047D01*
X85947619Y-64216666D01*
X86090476Y-64311904D01*
X86280952Y-64359523D01*
X86661904Y-64359523D01*
X86757142Y-64311904D01*
X86804761Y-64264285D01*
X86852380Y-64169047D01*
X86852380Y-63978571D01*
X86804761Y-63883333D01*
X86757142Y-63835714D01*
X86661904Y-63788095D01*
X86423809Y-63788095D01*
X86328571Y-63835714D01*
X86280952Y-63883333D01*
X86233333Y-63978571D01*
X86233333Y-64169047D01*
X86280952Y-64264285D01*
X86328571Y-64311904D01*
X86423809Y-64359523D01*
X94797142Y-72142857D02*
X94844761Y-72190476D01*
X94892380Y-72333333D01*
X94892380Y-72428571D01*
X94844761Y-72571428D01*
X94749523Y-72666666D01*
X94654285Y-72714285D01*
X94463809Y-72761904D01*
X94320952Y-72761904D01*
X94130476Y-72714285D01*
X94035238Y-72666666D01*
X93940000Y-72571428D01*
X93892380Y-72428571D01*
X93892380Y-72333333D01*
X93940000Y-72190476D01*
X93987619Y-72142857D01*
X94892380Y-71190476D02*
X94892380Y-71761904D01*
X94892380Y-71476190D02*
X93892380Y-71476190D01*
X94035238Y-71571428D01*
X94130476Y-71666666D01*
X94178095Y-71761904D01*
X93892380Y-70857142D02*
X93892380Y-70190476D01*
X94892380Y-70619047D01*
X86807142Y-75052857D02*
X86854761Y-75100476D01*
X86902380Y-75243333D01*
X86902380Y-75338571D01*
X86854761Y-75481428D01*
X86759523Y-75576666D01*
X86664285Y-75624285D01*
X86473809Y-75671904D01*
X86330952Y-75671904D01*
X86140476Y-75624285D01*
X86045238Y-75576666D01*
X85950000Y-75481428D01*
X85902380Y-75338571D01*
X85902380Y-75243333D01*
X85950000Y-75100476D01*
X85997619Y-75052857D01*
X86902380Y-74100476D02*
X86902380Y-74671904D01*
X86902380Y-74386190D02*
X85902380Y-74386190D01*
X86045238Y-74481428D01*
X86140476Y-74576666D01*
X86188095Y-74671904D01*
X86330952Y-73529047D02*
X86283333Y-73624285D01*
X86235714Y-73671904D01*
X86140476Y-73719523D01*
X86092857Y-73719523D01*
X85997619Y-73671904D01*
X85950000Y-73624285D01*
X85902380Y-73529047D01*
X85902380Y-73338571D01*
X85950000Y-73243333D01*
X85997619Y-73195714D01*
X86092857Y-73148095D01*
X86140476Y-73148095D01*
X86235714Y-73195714D01*
X86283333Y-73243333D01*
X86330952Y-73338571D01*
X86330952Y-73529047D01*
X86378571Y-73624285D01*
X86426190Y-73671904D01*
X86521428Y-73719523D01*
X86711904Y-73719523D01*
X86807142Y-73671904D01*
X86854761Y-73624285D01*
X86902380Y-73529047D01*
X86902380Y-73338571D01*
X86854761Y-73243333D01*
X86807142Y-73195714D01*
X86711904Y-73148095D01*
X86521428Y-73148095D01*
X86426190Y-73195714D01*
X86378571Y-73243333D01*
X86330952Y-73338571D01*
X94323333Y-64652380D02*
X93990000Y-64176190D01*
X93751904Y-64652380D02*
X93751904Y-63652380D01*
X94132857Y-63652380D01*
X94228095Y-63700000D01*
X94275714Y-63747619D01*
X94323333Y-63842857D01*
X94323333Y-63985714D01*
X94275714Y-64080952D01*
X94228095Y-64128571D01*
X94132857Y-64176190D01*
X93751904Y-64176190D01*
X95180476Y-63652380D02*
X94990000Y-63652380D01*
X94894761Y-63700000D01*
X94847142Y-63747619D01*
X94751904Y-63890476D01*
X94704285Y-64080952D01*
X94704285Y-64461904D01*
X94751904Y-64557142D01*
X94799523Y-64604761D01*
X94894761Y-64652380D01*
X95085238Y-64652380D01*
X95180476Y-64604761D01*
X95228095Y-64557142D01*
X95275714Y-64461904D01*
X95275714Y-64223809D01*
X95228095Y-64128571D01*
X95180476Y-64080952D01*
X95085238Y-64033333D01*
X94894761Y-64033333D01*
X94799523Y-64080952D01*
X94751904Y-64128571D01*
X94704285Y-64223809D01*
X66375714Y-88814285D02*
X66413809Y-88852380D01*
X66451904Y-88966666D01*
X66451904Y-89042857D01*
X66413809Y-89157142D01*
X66337619Y-89233333D01*
X66261428Y-89271428D01*
X66109047Y-89309523D01*
X65994761Y-89309523D01*
X65842380Y-89271428D01*
X65766190Y-89233333D01*
X65690000Y-89157142D01*
X65651904Y-89042857D01*
X65651904Y-88966666D01*
X65690000Y-88852380D01*
X65728095Y-88814285D01*
X66451904Y-88052380D02*
X66451904Y-88509523D01*
X66451904Y-88280952D02*
X65651904Y-88280952D01*
X65766190Y-88357142D01*
X65842380Y-88433333D01*
X65880476Y-88509523D01*
X66451904Y-87671428D02*
X66451904Y-87519047D01*
X66413809Y-87442857D01*
X66375714Y-87404761D01*
X66261428Y-87328571D01*
X66109047Y-87290476D01*
X65804285Y-87290476D01*
X65728095Y-87328571D01*
X65690000Y-87366666D01*
X65651904Y-87442857D01*
X65651904Y-87595238D01*
X65690000Y-87671428D01*
X65728095Y-87709523D01*
X65804285Y-87747619D01*
X65994761Y-87747619D01*
X66070952Y-87709523D01*
X66109047Y-87671428D01*
X66147142Y-87595238D01*
X66147142Y-87442857D01*
X66109047Y-87366666D01*
X66070952Y-87328571D01*
X65994761Y-87290476D01*
%LPC*%
D14*
X67680000Y-78370000D03*
X68680000Y-78370000D03*
X65340000Y-78360000D03*
X66340000Y-78360000D03*
D15*
X76020200Y-87426400D03*
X74620200Y-87426400D03*
X73220200Y-87426400D03*
X73220200Y-88826400D03*
X74620200Y-88826400D03*
X76020200Y-90226400D03*
X76020200Y-88826400D03*
X74620200Y-90226400D03*
X73220200Y-90226400D03*
D16*
X76820200Y-91726400D03*
X76420200Y-91726400D03*
X76020200Y-91726400D03*
X75620200Y-91726400D03*
X75220200Y-91726400D03*
X74820200Y-91726400D03*
X74420200Y-91726400D03*
X74020200Y-91726400D03*
X73620200Y-91726400D03*
X73220200Y-91726400D03*
X72820200Y-91726400D03*
X72420200Y-91726400D03*
D17*
X71720200Y-91026400D03*
X71720200Y-90626400D03*
X71720200Y-90226400D03*
X71720200Y-89826400D03*
X71720200Y-89426400D03*
X71720200Y-89026400D03*
X71720200Y-88626400D03*
X71720200Y-88226400D03*
X71720200Y-87826400D03*
X71720200Y-87426400D03*
X71720200Y-87026400D03*
X71720200Y-86626400D03*
D16*
X72420200Y-85926400D03*
X72820200Y-85926400D03*
X73220200Y-85926400D03*
X73620200Y-85926400D03*
X74020200Y-85926400D03*
X74420200Y-85926400D03*
X74820200Y-85926400D03*
X75220200Y-85926400D03*
X75620200Y-85926400D03*
X76020200Y-85926400D03*
X76420200Y-85926400D03*
X76820200Y-85926400D03*
D17*
X77520200Y-86626400D03*
X77520200Y-87026400D03*
X77520200Y-87426400D03*
X77520200Y-87826400D03*
X77520200Y-88226400D03*
X77520200Y-88626400D03*
X77520200Y-89026400D03*
X77520200Y-89426400D03*
X77520200Y-89826400D03*
X77520200Y-90226400D03*
X77520200Y-90626400D03*
X77520200Y-91026400D03*
D18*
X92802820Y-61355580D03*
X91202820Y-61355580D03*
X91202820Y-62535580D03*
X92802820Y-62535580D03*
D19*
X88620000Y-96045000D03*
X88620000Y-83345000D03*
X91160000Y-103665000D03*
X88620000Y-103665000D03*
X91160000Y-98585000D03*
X88620000Y-101125000D03*
X88620000Y-93505000D03*
X91160000Y-106205000D03*
X88620000Y-90965000D03*
X91160000Y-93505000D03*
X91160000Y-101125000D03*
X91160000Y-88425000D03*
X88620000Y-106205000D03*
X91160000Y-96045000D03*
X88620000Y-98585000D03*
X91160000Y-83345000D03*
X91160000Y-90965000D03*
X88620000Y-88425000D03*
D20*
X88620000Y-78265000D03*
D19*
X88620000Y-85885000D03*
X91160000Y-80805000D03*
X88620000Y-80805000D03*
X91160000Y-85885000D03*
X91160000Y-78265000D03*
X53610000Y-85885000D03*
X53610000Y-83345000D03*
X53610000Y-80805000D03*
D20*
X53610000Y-78265000D03*
D19*
X53610000Y-106205000D03*
X53610000Y-103665000D03*
X53610000Y-101125000D03*
X53610000Y-98585000D03*
X53610000Y-96045000D03*
X53610000Y-88425000D03*
X53610000Y-93505000D03*
X53610000Y-90965000D03*
X56150000Y-101125000D03*
X56150000Y-103665000D03*
X56150000Y-98585000D03*
D20*
X56150000Y-106205000D03*
X56150000Y-96045000D03*
D19*
X56150000Y-88425000D03*
X56150000Y-93505000D03*
X56150000Y-90965000D03*
D21*
X59350000Y-70135200D03*
X59350000Y-68135200D03*
X59350000Y-66135200D03*
D22*
X67050000Y-58135200D03*
X69050000Y-58135200D03*
X71050000Y-58135200D03*
X73050000Y-58135200D03*
X75050000Y-58135200D03*
X77050000Y-58135200D03*
X79050000Y-58135200D03*
X81050000Y-58135200D03*
D21*
X83650000Y-59635200D03*
X83650000Y-61635200D03*
X83650000Y-63635200D03*
X83650000Y-65635200D03*
X83650000Y-67635200D03*
X83650000Y-69635200D03*
X83650000Y-71635200D03*
D22*
X79050000Y-73135200D03*
X77050000Y-73135200D03*
X75050000Y-73135200D03*
X73050000Y-73135200D03*
X71050000Y-73135200D03*
X69050000Y-73135200D03*
X67050000Y-73135200D03*
X81050000Y-73135200D03*
D19*
X50210000Y-103750000D03*
D20*
X50210000Y-106290000D03*
D19*
X89678000Y-55880000D03*
X89678000Y-53340000D03*
X89678000Y-50800000D03*
D20*
X89678000Y-48260000D03*
D19*
X93766700Y-99790600D03*
X93766700Y-102330600D03*
D20*
X93766700Y-104870600D03*
D19*
X76840000Y-113170000D03*
D20*
X79380000Y-113170000D03*
D23*
X51460000Y-65602200D03*
X51460000Y-70682200D03*
X56540000Y-70682200D03*
X56540000Y-65602200D03*
D24*
X54000000Y-68142200D03*
D25*
X52290000Y-58180000D03*
X52290000Y-60720000D03*
X50290000Y-58180000D03*
X50290000Y-60720000D03*
X49250000Y-88881300D03*
X49250000Y-86341300D03*
X51250000Y-88881300D03*
X51250000Y-86341300D03*
X49250000Y-82899600D03*
X49250000Y-80359600D03*
X51250000Y-82899600D03*
X51250000Y-80359600D03*
D26*
X86480000Y-109474000D03*
X67980000Y-109474000D03*
X85480000Y-48768000D03*
X66980000Y-48768000D03*
D27*
X63029374Y-95737056D03*
X63029374Y-94787056D03*
X63029374Y-93837056D03*
X60829374Y-93837056D03*
X60829374Y-95737056D03*
X60829374Y-94787056D03*
D28*
X63180720Y-86770170D03*
X62230720Y-86770170D03*
X61280720Y-86770170D03*
X61280720Y-88970170D03*
X63180720Y-88970170D03*
D29*
X79050000Y-97130000D03*
X79050000Y-94130000D03*
D30*
X60720000Y-98890000D03*
X63720000Y-98890000D03*
G36*
G01*
X69683750Y-89885000D02*
X70196250Y-89885000D01*
G75*
G02*
X70415000Y-90103750I0J-218750D01*
G01*
X70415000Y-90541250D01*
G75*
G02*
X70196250Y-90760000I-218750J0D01*
G01*
X69683750Y-90760000D01*
G75*
G02*
X69465000Y-90541250I0J218750D01*
G01*
X69465000Y-90103750D01*
G75*
G02*
X69683750Y-89885000I218750J0D01*
G01*
G37*
G36*
G01*
X69683750Y-91460000D02*
X70196250Y-91460000D01*
G75*
G02*
X70415000Y-91678750I0J-218750D01*
G01*
X70415000Y-92116250D01*
G75*
G02*
X70196250Y-92335000I-218750J0D01*
G01*
X69683750Y-92335000D01*
G75*
G02*
X69465000Y-92116250I0J218750D01*
G01*
X69465000Y-91678750D01*
G75*
G02*
X69683750Y-91460000I218750J0D01*
G01*
G37*
G36*
G01*
X67533750Y-89900000D02*
X68046250Y-89900000D01*
G75*
G02*
X68265000Y-90118750I0J-218750D01*
G01*
X68265000Y-90556250D01*
G75*
G02*
X68046250Y-90775000I-218750J0D01*
G01*
X67533750Y-90775000D01*
G75*
G02*
X67315000Y-90556250I0J218750D01*
G01*
X67315000Y-90118750D01*
G75*
G02*
X67533750Y-89900000I218750J0D01*
G01*
G37*
G36*
G01*
X67533750Y-88325000D02*
X68046250Y-88325000D01*
G75*
G02*
X68265000Y-88543750I0J-218750D01*
G01*
X68265000Y-88981250D01*
G75*
G02*
X68046250Y-89200000I-218750J0D01*
G01*
X67533750Y-89200000D01*
G75*
G02*
X67315000Y-88981250I0J218750D01*
G01*
X67315000Y-88543750D01*
G75*
G02*
X67533750Y-88325000I218750J0D01*
G01*
G37*
G36*
G01*
X70646250Y-83730000D02*
X70133750Y-83730000D01*
G75*
G02*
X69915000Y-83511250I0J218750D01*
G01*
X69915000Y-83073750D01*
G75*
G02*
X70133750Y-82855000I218750J0D01*
G01*
X70646250Y-82855000D01*
G75*
G02*
X70865000Y-83073750I0J-218750D01*
G01*
X70865000Y-83511250D01*
G75*
G02*
X70646250Y-83730000I-218750J0D01*
G01*
G37*
G36*
G01*
X70646250Y-85305000D02*
X70133750Y-85305000D01*
G75*
G02*
X69915000Y-85086250I0J218750D01*
G01*
X69915000Y-84648750D01*
G75*
G02*
X70133750Y-84430000I218750J0D01*
G01*
X70646250Y-84430000D01*
G75*
G02*
X70865000Y-84648750I0J-218750D01*
G01*
X70865000Y-85086250D01*
G75*
G02*
X70646250Y-85305000I-218750J0D01*
G01*
G37*
G36*
G01*
X55293750Y-108275000D02*
X55806250Y-108275000D01*
G75*
G02*
X56025000Y-108493750I0J-218750D01*
G01*
X56025000Y-108931250D01*
G75*
G02*
X55806250Y-109150000I-218750J0D01*
G01*
X55293750Y-109150000D01*
G75*
G02*
X55075000Y-108931250I0J218750D01*
G01*
X55075000Y-108493750D01*
G75*
G02*
X55293750Y-108275000I218750J0D01*
G01*
G37*
G36*
G01*
X55293750Y-109850000D02*
X55806250Y-109850000D01*
G75*
G02*
X56025000Y-110068750I0J-218750D01*
G01*
X56025000Y-110506250D01*
G75*
G02*
X55806250Y-110725000I-218750J0D01*
G01*
X55293750Y-110725000D01*
G75*
G02*
X55075000Y-110506250I0J218750D01*
G01*
X55075000Y-110068750D01*
G75*
G02*
X55293750Y-109850000I218750J0D01*
G01*
G37*
G36*
G01*
X76246250Y-95895000D02*
X75733750Y-95895000D01*
G75*
G02*
X75515000Y-95676250I0J218750D01*
G01*
X75515000Y-95238750D01*
G75*
G02*
X75733750Y-95020000I218750J0D01*
G01*
X76246250Y-95020000D01*
G75*
G02*
X76465000Y-95238750I0J-218750D01*
G01*
X76465000Y-95676250D01*
G75*
G02*
X76246250Y-95895000I-218750J0D01*
G01*
G37*
G36*
G01*
X76246250Y-94320000D02*
X75733750Y-94320000D01*
G75*
G02*
X75515000Y-94101250I0J218750D01*
G01*
X75515000Y-93663750D01*
G75*
G02*
X75733750Y-93445000I218750J0D01*
G01*
X76246250Y-93445000D01*
G75*
G02*
X76465000Y-93663750I0J-218750D01*
G01*
X76465000Y-94101250D01*
G75*
G02*
X76246250Y-94320000I-218750J0D01*
G01*
G37*
G36*
G01*
X71975000Y-96816250D02*
X71975000Y-96303750D01*
G75*
G02*
X72193750Y-96085000I218750J0D01*
G01*
X72631250Y-96085000D01*
G75*
G02*
X72850000Y-96303750I0J-218750D01*
G01*
X72850000Y-96816250D01*
G75*
G02*
X72631250Y-97035000I-218750J0D01*
G01*
X72193750Y-97035000D01*
G75*
G02*
X71975000Y-96816250I0J218750D01*
G01*
G37*
G36*
G01*
X73550000Y-96816250D02*
X73550000Y-96303750D01*
G75*
G02*
X73768750Y-96085000I218750J0D01*
G01*
X74206250Y-96085000D01*
G75*
G02*
X74425000Y-96303750I0J-218750D01*
G01*
X74425000Y-96816250D01*
G75*
G02*
X74206250Y-97035000I-218750J0D01*
G01*
X73768750Y-97035000D01*
G75*
G02*
X73550000Y-96816250I0J218750D01*
G01*
G37*
G36*
G01*
X70376250Y-94500000D02*
X69863750Y-94500000D01*
G75*
G02*
X69645000Y-94281250I0J218750D01*
G01*
X69645000Y-93843750D01*
G75*
G02*
X69863750Y-93625000I218750J0D01*
G01*
X70376250Y-93625000D01*
G75*
G02*
X70595000Y-93843750I0J-218750D01*
G01*
X70595000Y-94281250D01*
G75*
G02*
X70376250Y-94500000I-218750J0D01*
G01*
G37*
G36*
G01*
X70376250Y-96075000D02*
X69863750Y-96075000D01*
G75*
G02*
X69645000Y-95856250I0J218750D01*
G01*
X69645000Y-95418750D01*
G75*
G02*
X69863750Y-95200000I218750J0D01*
G01*
X70376250Y-95200000D01*
G75*
G02*
X70595000Y-95418750I0J-218750D01*
G01*
X70595000Y-95856250D01*
G75*
G02*
X70376250Y-96075000I-218750J0D01*
G01*
G37*
G36*
G01*
X75916250Y-97430000D02*
X75403750Y-97430000D01*
G75*
G02*
X75185000Y-97211250I0J218750D01*
G01*
X75185000Y-96773750D01*
G75*
G02*
X75403750Y-96555000I218750J0D01*
G01*
X75916250Y-96555000D01*
G75*
G02*
X76135000Y-96773750I0J-218750D01*
G01*
X76135000Y-97211250D01*
G75*
G02*
X75916250Y-97430000I-218750J0D01*
G01*
G37*
G36*
G01*
X75916250Y-99005000D02*
X75403750Y-99005000D01*
G75*
G02*
X75185000Y-98786250I0J218750D01*
G01*
X75185000Y-98348750D01*
G75*
G02*
X75403750Y-98130000I218750J0D01*
G01*
X75916250Y-98130000D01*
G75*
G02*
X76135000Y-98348750I0J-218750D01*
G01*
X76135000Y-98786250D01*
G75*
G02*
X75916250Y-99005000I-218750J0D01*
G01*
G37*
G36*
G01*
X61050000Y-92386250D02*
X61050000Y-91873750D01*
G75*
G02*
X61268750Y-91655000I218750J0D01*
G01*
X61706250Y-91655000D01*
G75*
G02*
X61925000Y-91873750I0J-218750D01*
G01*
X61925000Y-92386250D01*
G75*
G02*
X61706250Y-92605000I-218750J0D01*
G01*
X61268750Y-92605000D01*
G75*
G02*
X61050000Y-92386250I0J218750D01*
G01*
G37*
G36*
G01*
X59475000Y-92386250D02*
X59475000Y-91873750D01*
G75*
G02*
X59693750Y-91655000I218750J0D01*
G01*
X60131250Y-91655000D01*
G75*
G02*
X60350000Y-91873750I0J-218750D01*
G01*
X60350000Y-92386250D01*
G75*
G02*
X60131250Y-92605000I-218750J0D01*
G01*
X59693750Y-92605000D01*
G75*
G02*
X59475000Y-92386250I0J218750D01*
G01*
G37*
G36*
G01*
X65525000Y-92386250D02*
X65525000Y-91873750D01*
G75*
G02*
X65743750Y-91655000I218750J0D01*
G01*
X66181250Y-91655000D01*
G75*
G02*
X66400000Y-91873750I0J-218750D01*
G01*
X66400000Y-92386250D01*
G75*
G02*
X66181250Y-92605000I-218750J0D01*
G01*
X65743750Y-92605000D01*
G75*
G02*
X65525000Y-92386250I0J218750D01*
G01*
G37*
G36*
G01*
X67100000Y-92386250D02*
X67100000Y-91873750D01*
G75*
G02*
X67318750Y-91655000I218750J0D01*
G01*
X67756250Y-91655000D01*
G75*
G02*
X67975000Y-91873750I0J-218750D01*
G01*
X67975000Y-92386250D01*
G75*
G02*
X67756250Y-92605000I-218750J0D01*
G01*
X67318750Y-92605000D01*
G75*
G02*
X67100000Y-92386250I0J218750D01*
G01*
G37*
G36*
G01*
X63785000Y-84853750D02*
X63785000Y-85366250D01*
G75*
G02*
X63566250Y-85585000I-218750J0D01*
G01*
X63128750Y-85585000D01*
G75*
G02*
X62910000Y-85366250I0J218750D01*
G01*
X62910000Y-84853750D01*
G75*
G02*
X63128750Y-84635000I218750J0D01*
G01*
X63566250Y-84635000D01*
G75*
G02*
X63785000Y-84853750I0J-218750D01*
G01*
G37*
G36*
G01*
X62210000Y-84853750D02*
X62210000Y-85366250D01*
G75*
G02*
X61991250Y-85585000I-218750J0D01*
G01*
X61553750Y-85585000D01*
G75*
G02*
X61335000Y-85366250I0J218750D01*
G01*
X61335000Y-84853750D01*
G75*
G02*
X61553750Y-84635000I218750J0D01*
G01*
X61991250Y-84635000D01*
G75*
G02*
X62210000Y-84853750I0J-218750D01*
G01*
G37*
D31*
X65980000Y-95440000D03*
X65980000Y-98740000D03*
G36*
G01*
X80121700Y-87944150D02*
X80121700Y-88456650D01*
G75*
G02*
X79902950Y-88675400I-218750J0D01*
G01*
X79465450Y-88675400D01*
G75*
G02*
X79246700Y-88456650I0J218750D01*
G01*
X79246700Y-87944150D01*
G75*
G02*
X79465450Y-87725400I218750J0D01*
G01*
X79902950Y-87725400D01*
G75*
G02*
X80121700Y-87944150I0J-218750D01*
G01*
G37*
G36*
G01*
X81696700Y-87944150D02*
X81696700Y-88456650D01*
G75*
G02*
X81477950Y-88675400I-218750J0D01*
G01*
X81040450Y-88675400D01*
G75*
G02*
X80821700Y-88456650I0J218750D01*
G01*
X80821700Y-87944150D01*
G75*
G02*
X81040450Y-87725400I218750J0D01*
G01*
X81477950Y-87725400D01*
G75*
G02*
X81696700Y-87944150I0J-218750D01*
G01*
G37*
G36*
G01*
X71763750Y-82445000D02*
X72276250Y-82445000D01*
G75*
G02*
X72495000Y-82663750I0J-218750D01*
G01*
X72495000Y-83101250D01*
G75*
G02*
X72276250Y-83320000I-218750J0D01*
G01*
X71763750Y-83320000D01*
G75*
G02*
X71545000Y-83101250I0J218750D01*
G01*
X71545000Y-82663750D01*
G75*
G02*
X71763750Y-82445000I218750J0D01*
G01*
G37*
G36*
G01*
X71763750Y-84020000D02*
X72276250Y-84020000D01*
G75*
G02*
X72495000Y-84238750I0J-218750D01*
G01*
X72495000Y-84676250D01*
G75*
G02*
X72276250Y-84895000I-218750J0D01*
G01*
X71763750Y-84895000D01*
G75*
G02*
X71545000Y-84676250I0J218750D01*
G01*
X71545000Y-84238750D01*
G75*
G02*
X71763750Y-84020000I218750J0D01*
G01*
G37*
G36*
G01*
X80133700Y-89583650D02*
X80133700Y-90096150D01*
G75*
G02*
X79914950Y-90314900I-218750J0D01*
G01*
X79477450Y-90314900D01*
G75*
G02*
X79258700Y-90096150I0J218750D01*
G01*
X79258700Y-89583650D01*
G75*
G02*
X79477450Y-89364900I218750J0D01*
G01*
X79914950Y-89364900D01*
G75*
G02*
X80133700Y-89583650I0J-218750D01*
G01*
G37*
G36*
G01*
X81708700Y-89583650D02*
X81708700Y-90096150D01*
G75*
G02*
X81489950Y-90314900I-218750J0D01*
G01*
X81052450Y-90314900D01*
G75*
G02*
X80833700Y-90096150I0J218750D01*
G01*
X80833700Y-89583650D01*
G75*
G02*
X81052450Y-89364900I218750J0D01*
G01*
X81489950Y-89364900D01*
G75*
G02*
X81708700Y-89583650I0J-218750D01*
G01*
G37*
G36*
G01*
X53493750Y-109850000D02*
X54006250Y-109850000D01*
G75*
G02*
X54225000Y-110068750I0J-218750D01*
G01*
X54225000Y-110506250D01*
G75*
G02*
X54006250Y-110725000I-218750J0D01*
G01*
X53493750Y-110725000D01*
G75*
G02*
X53275000Y-110506250I0J218750D01*
G01*
X53275000Y-110068750D01*
G75*
G02*
X53493750Y-109850000I218750J0D01*
G01*
G37*
G36*
G01*
X53493750Y-108275000D02*
X54006250Y-108275000D01*
G75*
G02*
X54225000Y-108493750I0J-218750D01*
G01*
X54225000Y-108931250D01*
G75*
G02*
X54006250Y-109150000I-218750J0D01*
G01*
X53493750Y-109150000D01*
G75*
G02*
X53275000Y-108931250I0J218750D01*
G01*
X53275000Y-108493750D01*
G75*
G02*
X53493750Y-108275000I218750J0D01*
G01*
G37*
G36*
G01*
X74615000Y-94283750D02*
X74615000Y-95196250D01*
G75*
G02*
X74371250Y-95440000I-243750J0D01*
G01*
X73883750Y-95440000D01*
G75*
G02*
X73640000Y-95196250I0J243750D01*
G01*
X73640000Y-94283750D01*
G75*
G02*
X73883750Y-94040000I243750J0D01*
G01*
X74371250Y-94040000D01*
G75*
G02*
X74615000Y-94283750I0J-243750D01*
G01*
G37*
G36*
G01*
X72740000Y-94283750D02*
X72740000Y-95196250D01*
G75*
G02*
X72496250Y-95440000I-243750J0D01*
G01*
X72008750Y-95440000D01*
G75*
G02*
X71765000Y-95196250I0J243750D01*
G01*
X71765000Y-94283750D01*
G75*
G02*
X72008750Y-94040000I243750J0D01*
G01*
X72496250Y-94040000D01*
G75*
G02*
X72740000Y-94283750I0J-243750D01*
G01*
G37*
G36*
G01*
X65743020Y-94057620D02*
X65743020Y-93545120D01*
G75*
G02*
X65961770Y-93326370I218750J0D01*
G01*
X66399270Y-93326370D01*
G75*
G02*
X66618020Y-93545120I0J-218750D01*
G01*
X66618020Y-94057620D01*
G75*
G02*
X66399270Y-94276370I-218750J0D01*
G01*
X65961770Y-94276370D01*
G75*
G02*
X65743020Y-94057620I0J218750D01*
G01*
G37*
G36*
G01*
X64168020Y-94057620D02*
X64168020Y-93545120D01*
G75*
G02*
X64386770Y-93326370I218750J0D01*
G01*
X64824270Y-93326370D01*
G75*
G02*
X65043020Y-93545120I0J-218750D01*
G01*
X65043020Y-94057620D01*
G75*
G02*
X64824270Y-94276370I-218750J0D01*
G01*
X64386770Y-94276370D01*
G75*
G02*
X64168020Y-94057620I0J218750D01*
G01*
G37*
G36*
G01*
X64925000Y-91873750D02*
X64925000Y-92386250D01*
G75*
G02*
X64706250Y-92605000I-218750J0D01*
G01*
X64268750Y-92605000D01*
G75*
G02*
X64050000Y-92386250I0J218750D01*
G01*
X64050000Y-91873750D01*
G75*
G02*
X64268750Y-91655000I218750J0D01*
G01*
X64706250Y-91655000D01*
G75*
G02*
X64925000Y-91873750I0J-218750D01*
G01*
G37*
G36*
G01*
X63350000Y-91873750D02*
X63350000Y-92386250D01*
G75*
G02*
X63131250Y-92605000I-218750J0D01*
G01*
X62693750Y-92605000D01*
G75*
G02*
X62475000Y-92386250I0J218750D01*
G01*
X62475000Y-91873750D01*
G75*
G02*
X62693750Y-91655000I218750J0D01*
G01*
X63131250Y-91655000D01*
G75*
G02*
X63350000Y-91873750I0J-218750D01*
G01*
G37*
G36*
G01*
X59956250Y-87835000D02*
X59443750Y-87835000D01*
G75*
G02*
X59225000Y-87616250I0J218750D01*
G01*
X59225000Y-87178750D01*
G75*
G02*
X59443750Y-86960000I218750J0D01*
G01*
X59956250Y-86960000D01*
G75*
G02*
X60175000Y-87178750I0J-218750D01*
G01*
X60175000Y-87616250D01*
G75*
G02*
X59956250Y-87835000I-218750J0D01*
G01*
G37*
G36*
G01*
X59956250Y-86260000D02*
X59443750Y-86260000D01*
G75*
G02*
X59225000Y-86041250I0J218750D01*
G01*
X59225000Y-85603750D01*
G75*
G02*
X59443750Y-85385000I218750J0D01*
G01*
X59956250Y-85385000D01*
G75*
G02*
X60175000Y-85603750I0J-218750D01*
G01*
X60175000Y-86041250D01*
G75*
G02*
X59956250Y-86260000I-218750J0D01*
G01*
G37*
G36*
G01*
X59956250Y-90885000D02*
X59443750Y-90885000D01*
G75*
G02*
X59225000Y-90666250I0J218750D01*
G01*
X59225000Y-90228750D01*
G75*
G02*
X59443750Y-90010000I218750J0D01*
G01*
X59956250Y-90010000D01*
G75*
G02*
X60175000Y-90228750I0J-218750D01*
G01*
X60175000Y-90666250D01*
G75*
G02*
X59956250Y-90885000I-218750J0D01*
G01*
G37*
G36*
G01*
X59956250Y-89310000D02*
X59443750Y-89310000D01*
G75*
G02*
X59225000Y-89091250I0J218750D01*
G01*
X59225000Y-88653750D01*
G75*
G02*
X59443750Y-88435000I218750J0D01*
G01*
X59956250Y-88435000D01*
G75*
G02*
X60175000Y-88653750I0J-218750D01*
G01*
X60175000Y-89091250D01*
G75*
G02*
X59956250Y-89310000I-218750J0D01*
G01*
G37*
G36*
G01*
X93915000Y-67213750D02*
X93915000Y-67726250D01*
G75*
G02*
X93696250Y-67945000I-218750J0D01*
G01*
X93258750Y-67945000D01*
G75*
G02*
X93040000Y-67726250I0J218750D01*
G01*
X93040000Y-67213750D01*
G75*
G02*
X93258750Y-66995000I218750J0D01*
G01*
X93696250Y-66995000D01*
G75*
G02*
X93915000Y-67213750I0J-218750D01*
G01*
G37*
G36*
G01*
X92340000Y-67213750D02*
X92340000Y-67726250D01*
G75*
G02*
X92121250Y-67945000I-218750J0D01*
G01*
X91683750Y-67945000D01*
G75*
G02*
X91465000Y-67726250I0J218750D01*
G01*
X91465000Y-67213750D01*
G75*
G02*
X91683750Y-66995000I218750J0D01*
G01*
X92121250Y-66995000D01*
G75*
G02*
X92340000Y-67213750I0J-218750D01*
G01*
G37*
G36*
G01*
X94175000Y-75423750D02*
X94175000Y-75936250D01*
G75*
G02*
X93956250Y-76155000I-218750J0D01*
G01*
X93518750Y-76155000D01*
G75*
G02*
X93300000Y-75936250I0J218750D01*
G01*
X93300000Y-75423750D01*
G75*
G02*
X93518750Y-75205000I218750J0D01*
G01*
X93956250Y-75205000D01*
G75*
G02*
X94175000Y-75423750I0J-218750D01*
G01*
G37*
G36*
G01*
X92600000Y-75423750D02*
X92600000Y-75936250D01*
G75*
G02*
X92381250Y-76155000I-218750J0D01*
G01*
X91943750Y-76155000D01*
G75*
G02*
X91725000Y-75936250I0J218750D01*
G01*
X91725000Y-75423750D01*
G75*
G02*
X91943750Y-75205000I218750J0D01*
G01*
X92381250Y-75205000D01*
G75*
G02*
X92600000Y-75423750I0J-218750D01*
G01*
G37*
G36*
G01*
X93192260Y-59487150D02*
X93192260Y-59999650D01*
G75*
G02*
X92973510Y-60218400I-218750J0D01*
G01*
X92536010Y-60218400D01*
G75*
G02*
X92317260Y-59999650I0J218750D01*
G01*
X92317260Y-59487150D01*
G75*
G02*
X92536010Y-59268400I218750J0D01*
G01*
X92973510Y-59268400D01*
G75*
G02*
X93192260Y-59487150I0J-218750D01*
G01*
G37*
G36*
G01*
X91617260Y-59487150D02*
X91617260Y-59999650D01*
G75*
G02*
X91398510Y-60218400I-218750J0D01*
G01*
X90961010Y-60218400D01*
G75*
G02*
X90742260Y-59999650I0J218750D01*
G01*
X90742260Y-59487150D01*
G75*
G02*
X90961010Y-59268400I218750J0D01*
G01*
X91398510Y-59268400D01*
G75*
G02*
X91617260Y-59487150I0J-218750D01*
G01*
G37*
G36*
G01*
X91657900Y-65565370D02*
X91657900Y-66077870D01*
G75*
G02*
X91439150Y-66296620I-218750J0D01*
G01*
X91001650Y-66296620D01*
G75*
G02*
X90782900Y-66077870I0J218750D01*
G01*
X90782900Y-65565370D01*
G75*
G02*
X91001650Y-65346620I218750J0D01*
G01*
X91439150Y-65346620D01*
G75*
G02*
X91657900Y-65565370I0J-218750D01*
G01*
G37*
G36*
G01*
X93232900Y-65565370D02*
X93232900Y-66077870D01*
G75*
G02*
X93014150Y-66296620I-218750J0D01*
G01*
X92576650Y-66296620D01*
G75*
G02*
X92357900Y-66077870I0J218750D01*
G01*
X92357900Y-65565370D01*
G75*
G02*
X92576650Y-65346620I218750J0D01*
G01*
X93014150Y-65346620D01*
G75*
G02*
X93232900Y-65565370I0J-218750D01*
G01*
G37*
G36*
G01*
X48900000Y-73875000D02*
X51050000Y-73875000D01*
G75*
G02*
X51300000Y-74125000I0J-250000D01*
G01*
X51300000Y-74875000D01*
G75*
G02*
X51050000Y-75125000I-250000J0D01*
G01*
X48900000Y-75125000D01*
G75*
G02*
X48650000Y-74875000I0J250000D01*
G01*
X48650000Y-74125000D01*
G75*
G02*
X48900000Y-73875000I250000J0D01*
G01*
G37*
G36*
G01*
X48900000Y-76675000D02*
X51050000Y-76675000D01*
G75*
G02*
X51300000Y-76925000I0J-250000D01*
G01*
X51300000Y-77675000D01*
G75*
G02*
X51050000Y-77925000I-250000J0D01*
G01*
X48900000Y-77925000D01*
G75*
G02*
X48650000Y-77675000I0J250000D01*
G01*
X48650000Y-76925000D01*
G75*
G02*
X48900000Y-76675000I250000J0D01*
G01*
G37*
G36*
G01*
X76146250Y-84895000D02*
X75633750Y-84895000D01*
G75*
G02*
X75415000Y-84676250I0J218750D01*
G01*
X75415000Y-84238750D01*
G75*
G02*
X75633750Y-84020000I218750J0D01*
G01*
X76146250Y-84020000D01*
G75*
G02*
X76365000Y-84238750I0J-218750D01*
G01*
X76365000Y-84676250D01*
G75*
G02*
X76146250Y-84895000I-218750J0D01*
G01*
G37*
G36*
G01*
X76146250Y-83320000D02*
X75633750Y-83320000D01*
G75*
G02*
X75415000Y-83101250I0J218750D01*
G01*
X75415000Y-82663750D01*
G75*
G02*
X75633750Y-82445000I218750J0D01*
G01*
X76146250Y-82445000D01*
G75*
G02*
X76365000Y-82663750I0J-218750D01*
G01*
X76365000Y-83101250D01*
G75*
G02*
X76146250Y-83320000I-218750J0D01*
G01*
G37*
G36*
G01*
X68580000Y-86063750D02*
X68580000Y-86576250D01*
G75*
G02*
X68361250Y-86795000I-218750J0D01*
G01*
X67923750Y-86795000D01*
G75*
G02*
X67705000Y-86576250I0J218750D01*
G01*
X67705000Y-86063750D01*
G75*
G02*
X67923750Y-85845000I218750J0D01*
G01*
X68361250Y-85845000D01*
G75*
G02*
X68580000Y-86063750I0J-218750D01*
G01*
G37*
G36*
G01*
X70155000Y-86063750D02*
X70155000Y-86576250D01*
G75*
G02*
X69936250Y-86795000I-218750J0D01*
G01*
X69498750Y-86795000D01*
G75*
G02*
X69280000Y-86576250I0J218750D01*
G01*
X69280000Y-86063750D01*
G75*
G02*
X69498750Y-85845000I218750J0D01*
G01*
X69936250Y-85845000D01*
G75*
G02*
X70155000Y-86063750I0J-218750D01*
G01*
G37*
G36*
G01*
X75225000Y-103453750D02*
X75225000Y-103966250D01*
G75*
G02*
X75006250Y-104185000I-218750J0D01*
G01*
X74568750Y-104185000D01*
G75*
G02*
X74350000Y-103966250I0J218750D01*
G01*
X74350000Y-103453750D01*
G75*
G02*
X74568750Y-103235000I218750J0D01*
G01*
X75006250Y-103235000D01*
G75*
G02*
X75225000Y-103453750I0J-218750D01*
G01*
G37*
G36*
G01*
X73650000Y-103453750D02*
X73650000Y-103966250D01*
G75*
G02*
X73431250Y-104185000I-218750J0D01*
G01*
X72993750Y-104185000D01*
G75*
G02*
X72775000Y-103966250I0J218750D01*
G01*
X72775000Y-103453750D01*
G75*
G02*
X72993750Y-103235000I218750J0D01*
G01*
X73431250Y-103235000D01*
G75*
G02*
X73650000Y-103453750I0J-218750D01*
G01*
G37*
D32*
X50561300Y-95117000D03*
X50561300Y-97117000D03*
X50561300Y-93117000D03*
X50561300Y-99117000D03*
G36*
G01*
X86766250Y-69275000D02*
X86253750Y-69275000D01*
G75*
G02*
X86035000Y-69056250I0J218750D01*
G01*
X86035000Y-68618750D01*
G75*
G02*
X86253750Y-68400000I218750J0D01*
G01*
X86766250Y-68400000D01*
G75*
G02*
X86985000Y-68618750I0J-218750D01*
G01*
X86985000Y-69056250D01*
G75*
G02*
X86766250Y-69275000I-218750J0D01*
G01*
G37*
G36*
G01*
X86766250Y-67700000D02*
X86253750Y-67700000D01*
G75*
G02*
X86035000Y-67481250I0J218750D01*
G01*
X86035000Y-67043750D01*
G75*
G02*
X86253750Y-66825000I218750J0D01*
G01*
X86766250Y-66825000D01*
G75*
G02*
X86985000Y-67043750I0J-218750D01*
G01*
X86985000Y-67481250D01*
G75*
G02*
X86766250Y-67700000I-218750J0D01*
G01*
G37*
G36*
G01*
X91035000Y-68575000D02*
X93185000Y-68575000D01*
G75*
G02*
X93435000Y-68825000I0J-250000D01*
G01*
X93435000Y-69575000D01*
G75*
G02*
X93185000Y-69825000I-250000J0D01*
G01*
X91035000Y-69825000D01*
G75*
G02*
X90785000Y-69575000I0J250000D01*
G01*
X90785000Y-68825000D01*
G75*
G02*
X91035000Y-68575000I250000J0D01*
G01*
G37*
G36*
G01*
X91035000Y-71375000D02*
X93185000Y-71375000D01*
G75*
G02*
X93435000Y-71625000I0J-250000D01*
G01*
X93435000Y-72375000D01*
G75*
G02*
X93185000Y-72625000I-250000J0D01*
G01*
X91035000Y-72625000D01*
G75*
G02*
X90785000Y-72375000I0J250000D01*
G01*
X90785000Y-71625000D01*
G75*
G02*
X91035000Y-71375000I250000J0D01*
G01*
G37*
G36*
G01*
X86273750Y-70045000D02*
X86786250Y-70045000D01*
G75*
G02*
X87005000Y-70263750I0J-218750D01*
G01*
X87005000Y-70701250D01*
G75*
G02*
X86786250Y-70920000I-218750J0D01*
G01*
X86273750Y-70920000D01*
G75*
G02*
X86055000Y-70701250I0J218750D01*
G01*
X86055000Y-70263750D01*
G75*
G02*
X86273750Y-70045000I218750J0D01*
G01*
G37*
G36*
G01*
X86273750Y-71620000D02*
X86786250Y-71620000D01*
G75*
G02*
X87005000Y-71838750I0J-218750D01*
G01*
X87005000Y-72276250D01*
G75*
G02*
X86786250Y-72495000I-218750J0D01*
G01*
X86273750Y-72495000D01*
G75*
G02*
X86055000Y-72276250I0J218750D01*
G01*
X86055000Y-71838750D01*
G75*
G02*
X86273750Y-71620000I218750J0D01*
G01*
G37*
G36*
G01*
X93222740Y-63843250D02*
X93222740Y-64355750D01*
G75*
G02*
X93003990Y-64574500I-218750J0D01*
G01*
X92566490Y-64574500D01*
G75*
G02*
X92347740Y-64355750I0J218750D01*
G01*
X92347740Y-63843250D01*
G75*
G02*
X92566490Y-63624500I218750J0D01*
G01*
X93003990Y-63624500D01*
G75*
G02*
X93222740Y-63843250I0J-218750D01*
G01*
G37*
G36*
G01*
X91647740Y-63843250D02*
X91647740Y-64355750D01*
G75*
G02*
X91428990Y-64574500I-218750J0D01*
G01*
X90991490Y-64574500D01*
G75*
G02*
X90772740Y-64355750I0J218750D01*
G01*
X90772740Y-63843250D01*
G75*
G02*
X90991490Y-63624500I218750J0D01*
G01*
X91428990Y-63624500D01*
G75*
G02*
X91647740Y-63843250I0J-218750D01*
G01*
G37*
G36*
G01*
X65136250Y-89735000D02*
X64623750Y-89735000D01*
G75*
G02*
X64405000Y-89516250I0J218750D01*
G01*
X64405000Y-89078750D01*
G75*
G02*
X64623750Y-88860000I218750J0D01*
G01*
X65136250Y-88860000D01*
G75*
G02*
X65355000Y-89078750I0J-218750D01*
G01*
X65355000Y-89516250D01*
G75*
G02*
X65136250Y-89735000I-218750J0D01*
G01*
G37*
G36*
G01*
X65136250Y-88160000D02*
X64623750Y-88160000D01*
G75*
G02*
X64405000Y-87941250I0J218750D01*
G01*
X64405000Y-87503750D01*
G75*
G02*
X64623750Y-87285000I218750J0D01*
G01*
X65136250Y-87285000D01*
G75*
G02*
X65355000Y-87503750I0J-218750D01*
G01*
X65355000Y-87941250D01*
G75*
G02*
X65136250Y-88160000I-218750J0D01*
G01*
G37*
M02*
