%TF.GenerationSoftware,KiCad,Pcbnew,5.1.10-88a1d61d58~88~ubuntu20.04.1*%
%TF.CreationDate,2021-05-09T22:43:12+02:00*%
%TF.ProjectId,USBConnectorTester,55534243-6f6e-46e6-9563-746f72546573,rev?*%
%TF.SameCoordinates,Original*%
%TF.FileFunction,Legend,Top*%
%TF.FilePolarity,Positive*%
%FSLAX46Y46*%
G04 Gerber Fmt 4.6, Leading zero omitted, Abs format (unit mm)*
G04 Created by KiCad (PCBNEW 5.1.10-88a1d61d58~88~ubuntu20.04.1) date 2021-05-09 22:43:12*
%MOMM*%
%LPD*%
G01*
G04 APERTURE LIST*
%ADD10C,0.400000*%
%ADD11C,0.120000*%
%ADD12C,0.150000*%
%ADD13C,5.000000*%
%ADD14R,1.700000X1.700000*%
%ADD15C,1.524000*%
%ADD16R,1.524000X1.524000*%
%ADD17C,3.500000*%
%ADD18C,1.500000*%
%ADD19C,3.000000*%
G04 APERTURE END LIST*
D10*
X134877142Y-110607142D02*
X134877142Y-107607142D01*
X135591428Y-107607142D01*
X136020000Y-107750000D01*
X136305714Y-108035714D01*
X136448571Y-108321428D01*
X136591428Y-108892857D01*
X136591428Y-109321428D01*
X136448571Y-109892857D01*
X136305714Y-110178571D01*
X136020000Y-110464285D01*
X135591428Y-110607142D01*
X134877142Y-110607142D01*
X137877142Y-109464285D02*
X140162857Y-109464285D01*
X139020000Y-110607142D02*
X139020000Y-108321428D01*
X134647142Y-92357142D02*
X134647142Y-89357142D01*
X135361428Y-89357142D01*
X135790000Y-89500000D01*
X136075714Y-89785714D01*
X136218571Y-90071428D01*
X136361428Y-90642857D01*
X136361428Y-91071428D01*
X136218571Y-91642857D01*
X136075714Y-91928571D01*
X135790000Y-92214285D01*
X135361428Y-92357142D01*
X134647142Y-92357142D01*
X137647142Y-91214285D02*
X139932857Y-91214285D01*
X152237142Y-92957142D02*
X152237142Y-89957142D01*
X152951428Y-89957142D01*
X153380000Y-90100000D01*
X153665714Y-90385714D01*
X153808571Y-90671428D01*
X153951428Y-91242857D01*
X153951428Y-91671428D01*
X153808571Y-92242857D01*
X153665714Y-92528571D01*
X153380000Y-92814285D01*
X152951428Y-92957142D01*
X152237142Y-92957142D01*
X155237142Y-91814285D02*
X157522857Y-91814285D01*
X152007142Y-110457142D02*
X152007142Y-107457142D01*
X152721428Y-107457142D01*
X153150000Y-107600000D01*
X153435714Y-107885714D01*
X153578571Y-108171428D01*
X153721428Y-108742857D01*
X153721428Y-109171428D01*
X153578571Y-109742857D01*
X153435714Y-110028571D01*
X153150000Y-110314285D01*
X152721428Y-110457142D01*
X152007142Y-110457142D01*
X155007142Y-109314285D02*
X157292857Y-109314285D01*
X156150000Y-110457142D02*
X156150000Y-108171428D01*
X151110000Y-82287142D02*
X152110000Y-85287142D01*
X153110000Y-82287142D01*
X155110000Y-83715714D02*
X155538571Y-83858571D01*
X155681428Y-84001428D01*
X155824285Y-84287142D01*
X155824285Y-84715714D01*
X155681428Y-85001428D01*
X155538571Y-85144285D01*
X155252857Y-85287142D01*
X154110000Y-85287142D01*
X154110000Y-82287142D01*
X155110000Y-82287142D01*
X155395714Y-82430000D01*
X155538571Y-82572857D01*
X155681428Y-82858571D01*
X155681428Y-83144285D01*
X155538571Y-83430000D01*
X155395714Y-83572857D01*
X155110000Y-83715714D01*
X154110000Y-83715714D01*
X157110000Y-82287142D02*
X157110000Y-84715714D01*
X157252857Y-85001428D01*
X157395714Y-85144285D01*
X157681428Y-85287142D01*
X158252857Y-85287142D01*
X158538571Y-85144285D01*
X158681428Y-85001428D01*
X158824285Y-84715714D01*
X158824285Y-82287142D01*
X160110000Y-85144285D02*
X160538571Y-85287142D01*
X161252857Y-85287142D01*
X161538571Y-85144285D01*
X161681428Y-85001428D01*
X161824285Y-84715714D01*
X161824285Y-84430000D01*
X161681428Y-84144285D01*
X161538571Y-84001428D01*
X161252857Y-83858571D01*
X160681428Y-83715714D01*
X160395714Y-83572857D01*
X160252857Y-83430000D01*
X160110000Y-83144285D01*
X160110000Y-82858571D01*
X160252857Y-82572857D01*
X160395714Y-82430000D01*
X160681428Y-82287142D01*
X161395714Y-82287142D01*
X161824285Y-82430000D01*
X130360000Y-82287142D02*
X131360000Y-85287142D01*
X132360000Y-82287142D01*
X134360000Y-83715714D02*
X134788571Y-83858571D01*
X134931428Y-84001428D01*
X135074285Y-84287142D01*
X135074285Y-84715714D01*
X134931428Y-85001428D01*
X134788571Y-85144285D01*
X134502857Y-85287142D01*
X133360000Y-85287142D01*
X133360000Y-82287142D01*
X134360000Y-82287142D01*
X134645714Y-82430000D01*
X134788571Y-82572857D01*
X134931428Y-82858571D01*
X134931428Y-83144285D01*
X134788571Y-83430000D01*
X134645714Y-83572857D01*
X134360000Y-83715714D01*
X133360000Y-83715714D01*
X136360000Y-82287142D02*
X136360000Y-84715714D01*
X136502857Y-85001428D01*
X136645714Y-85144285D01*
X136931428Y-85287142D01*
X137502857Y-85287142D01*
X137788571Y-85144285D01*
X137931428Y-85001428D01*
X138074285Y-84715714D01*
X138074285Y-82287142D01*
X139360000Y-85144285D02*
X139788571Y-85287142D01*
X140502857Y-85287142D01*
X140788571Y-85144285D01*
X140931428Y-85001428D01*
X141074285Y-84715714D01*
X141074285Y-84430000D01*
X140931428Y-84144285D01*
X140788571Y-84001428D01*
X140502857Y-83858571D01*
X139931428Y-83715714D01*
X139645714Y-83572857D01*
X139502857Y-83430000D01*
X139360000Y-83144285D01*
X139360000Y-82858571D01*
X139502857Y-82572857D01*
X139645714Y-82430000D01*
X139931428Y-82287142D01*
X140645714Y-82287142D01*
X141074285Y-82430000D01*
X132934285Y-115130000D02*
X132648571Y-114987142D01*
X132220000Y-114987142D01*
X131791428Y-115130000D01*
X131505714Y-115415714D01*
X131362857Y-115701428D01*
X131220000Y-116272857D01*
X131220000Y-116701428D01*
X131362857Y-117272857D01*
X131505714Y-117558571D01*
X131791428Y-117844285D01*
X132220000Y-117987142D01*
X132505714Y-117987142D01*
X132934285Y-117844285D01*
X133077142Y-117701428D01*
X133077142Y-116701428D01*
X132505714Y-116701428D01*
X134362857Y-117987142D02*
X134362857Y-114987142D01*
X136077142Y-117987142D01*
X136077142Y-114987142D01*
X137505714Y-117987142D02*
X137505714Y-114987142D01*
X138220000Y-114987142D01*
X138648571Y-115130000D01*
X138934285Y-115415714D01*
X139077142Y-115701428D01*
X139220000Y-116272857D01*
X139220000Y-116701428D01*
X139077142Y-117272857D01*
X138934285Y-117558571D01*
X138648571Y-117844285D01*
X138220000Y-117987142D01*
X137505714Y-117987142D01*
X154994285Y-115050000D02*
X154708571Y-114907142D01*
X154280000Y-114907142D01*
X153851428Y-115050000D01*
X153565714Y-115335714D01*
X153422857Y-115621428D01*
X153280000Y-116192857D01*
X153280000Y-116621428D01*
X153422857Y-117192857D01*
X153565714Y-117478571D01*
X153851428Y-117764285D01*
X154280000Y-117907142D01*
X154565714Y-117907142D01*
X154994285Y-117764285D01*
X155137142Y-117621428D01*
X155137142Y-116621428D01*
X154565714Y-116621428D01*
X156422857Y-117907142D02*
X156422857Y-114907142D01*
X158137142Y-117907142D01*
X158137142Y-114907142D01*
X159565714Y-117907142D02*
X159565714Y-114907142D01*
X160280000Y-114907142D01*
X160708571Y-115050000D01*
X160994285Y-115335714D01*
X161137142Y-115621428D01*
X161280000Y-116192857D01*
X161280000Y-116621428D01*
X161137142Y-117192857D01*
X160994285Y-117478571D01*
X160708571Y-117764285D01*
X160280000Y-117907142D01*
X159565714Y-117907142D01*
D11*
X168670000Y-115150000D02*
X168670000Y-113820000D01*
X170000000Y-115150000D02*
X168670000Y-115150000D01*
X171270000Y-115150000D02*
X171270000Y-112490000D01*
X171270000Y-112490000D02*
X171330000Y-112490000D01*
X171270000Y-115150000D02*
X171330000Y-115150000D01*
X171330000Y-115150000D02*
X171330000Y-112490000D01*
X170440000Y-86460000D02*
X170440000Y-83800000D01*
X170380000Y-86460000D02*
X170440000Y-86460000D01*
X170380000Y-83800000D02*
X170440000Y-83800000D01*
X170380000Y-86460000D02*
X170380000Y-83800000D01*
X169110000Y-86460000D02*
X167780000Y-86460000D01*
X167780000Y-86460000D02*
X167780000Y-85130000D01*
X150840000Y-96440000D02*
X150840000Y-95110000D01*
X152170000Y-96440000D02*
X150840000Y-96440000D01*
X153440000Y-96440000D02*
X153440000Y-93780000D01*
X153440000Y-93780000D02*
X153500000Y-93780000D01*
X153440000Y-96440000D02*
X153500000Y-96440000D01*
X153500000Y-96440000D02*
X153500000Y-93780000D01*
X153820000Y-106810000D02*
X153820000Y-104150000D01*
X153760000Y-106810000D02*
X153820000Y-106810000D01*
X153760000Y-104150000D02*
X153820000Y-104150000D01*
X153760000Y-106810000D02*
X153760000Y-104150000D01*
X152490000Y-106810000D02*
X151160000Y-106810000D01*
X151160000Y-106810000D02*
X151160000Y-105480000D01*
X139470000Y-106180000D02*
X139470000Y-104850000D01*
X140800000Y-106180000D02*
X139470000Y-106180000D01*
X142070000Y-106180000D02*
X142070000Y-103520000D01*
X142070000Y-103520000D02*
X142130000Y-103520000D01*
X142070000Y-106180000D02*
X142130000Y-106180000D01*
X142130000Y-106180000D02*
X142130000Y-103520000D01*
X122980000Y-116100000D02*
X122980000Y-113440000D01*
X122920000Y-116100000D02*
X122980000Y-116100000D01*
X122920000Y-113440000D02*
X122980000Y-113440000D01*
X122920000Y-116100000D02*
X122920000Y-113440000D01*
X121650000Y-116100000D02*
X120320000Y-116100000D01*
X120320000Y-116100000D02*
X120320000Y-114770000D01*
X120890000Y-86900000D02*
X120890000Y-85570000D01*
X122220000Y-86900000D02*
X120890000Y-86900000D01*
X123490000Y-86900000D02*
X123490000Y-84240000D01*
X123490000Y-84240000D02*
X123550000Y-84240000D01*
X123490000Y-86900000D02*
X123550000Y-86900000D01*
X123550000Y-86900000D02*
X123550000Y-84240000D01*
X141950000Y-96280000D02*
X141950000Y-93620000D01*
X141890000Y-96280000D02*
X141950000Y-96280000D01*
X141890000Y-93620000D02*
X141950000Y-93620000D01*
X141890000Y-96280000D02*
X141890000Y-93620000D01*
X140620000Y-96280000D02*
X139290000Y-96280000D01*
X139290000Y-96280000D02*
X139290000Y-94950000D01*
X134820000Y-96280000D02*
X134820000Y-94950000D01*
X136150000Y-96280000D02*
X134820000Y-96280000D01*
X137420000Y-96280000D02*
X137420000Y-93620000D01*
X137420000Y-93620000D02*
X137480000Y-93620000D01*
X137420000Y-96280000D02*
X137480000Y-96280000D01*
X137480000Y-96280000D02*
X137480000Y-93620000D01*
X135010000Y-106140000D02*
X135010000Y-104810000D01*
X136340000Y-106140000D02*
X135010000Y-106140000D01*
X137610000Y-106140000D02*
X137610000Y-103480000D01*
X137610000Y-103480000D02*
X137670000Y-103480000D01*
X137610000Y-106140000D02*
X137670000Y-106140000D01*
X137670000Y-106140000D02*
X137670000Y-103480000D01*
X126160000Y-86850000D02*
X126160000Y-85520000D01*
X127490000Y-86850000D02*
X126160000Y-86850000D01*
X128760000Y-86850000D02*
X128760000Y-84190000D01*
X128760000Y-84190000D02*
X128820000Y-84190000D01*
X128760000Y-86850000D02*
X128820000Y-86850000D01*
X128820000Y-86850000D02*
X128820000Y-84190000D01*
X126310000Y-114920000D02*
X126310000Y-113590000D01*
X127640000Y-114920000D02*
X126310000Y-114920000D01*
X128910000Y-114920000D02*
X128910000Y-112260000D01*
X128910000Y-112260000D02*
X128970000Y-112260000D01*
X128910000Y-114920000D02*
X128970000Y-114920000D01*
X128970000Y-114920000D02*
X128970000Y-112260000D01*
X118070000Y-96580000D02*
X118070000Y-95580000D01*
X117570000Y-96080000D02*
X118070000Y-96580000D01*
X118070000Y-95580000D02*
X117570000Y-96080000D01*
X115210000Y-106940000D02*
X117190000Y-106940000D01*
X117190000Y-92220000D02*
X115210000Y-92220000D01*
X117190000Y-92220000D02*
X117190000Y-106940000D01*
X111510000Y-106940000D02*
X102970000Y-106940000D01*
X102970000Y-92220000D02*
X102970000Y-106940000D01*
X111510000Y-92220000D02*
X102970000Y-92220000D01*
X163260000Y-114820000D02*
X163260000Y-113490000D01*
X164590000Y-114820000D02*
X163260000Y-114820000D01*
X165860000Y-114820000D02*
X165860000Y-112160000D01*
X165860000Y-112160000D02*
X165920000Y-112160000D01*
X165860000Y-114820000D02*
X165920000Y-114820000D01*
X165920000Y-114820000D02*
X165920000Y-112160000D01*
X155290000Y-96390000D02*
X155290000Y-95060000D01*
X156620000Y-96390000D02*
X155290000Y-96390000D01*
X157890000Y-96390000D02*
X157890000Y-93730000D01*
X157890000Y-93730000D02*
X157950000Y-93730000D01*
X157890000Y-96390000D02*
X157950000Y-96390000D01*
X157950000Y-96390000D02*
X157950000Y-93730000D01*
X155440000Y-106550000D02*
X155440000Y-105220000D01*
X156770000Y-106550000D02*
X155440000Y-106550000D01*
X158040000Y-106550000D02*
X158040000Y-103890000D01*
X158040000Y-103890000D02*
X158100000Y-103890000D01*
X158040000Y-106550000D02*
X158100000Y-106550000D01*
X158100000Y-106550000D02*
X158100000Y-103890000D01*
X163180000Y-87130000D02*
X163180000Y-85800000D01*
X164510000Y-87130000D02*
X163180000Y-87130000D01*
X165780000Y-87130000D02*
X165780000Y-84470000D01*
X165780000Y-84470000D02*
X165840000Y-84470000D01*
X165780000Y-87130000D02*
X165840000Y-87130000D01*
X165840000Y-87130000D02*
X165840000Y-84470000D01*
X174380000Y-108160000D02*
X174380000Y-91660000D01*
X174380000Y-91660000D02*
X189130000Y-91660000D01*
X189130000Y-91660000D02*
X189130000Y-108160000D01*
X189130000Y-108160000D02*
X174380000Y-108160000D01*
D12*
X167122380Y-114629523D02*
X167836666Y-114629523D01*
X167979523Y-114677142D01*
X168074761Y-114772380D01*
X168122380Y-114915238D01*
X168122380Y-115010476D01*
X168122380Y-113629523D02*
X168122380Y-114200952D01*
X168122380Y-113915238D02*
X167122380Y-113915238D01*
X167265238Y-114010476D01*
X167360476Y-114105714D01*
X167408095Y-114200952D01*
X167122380Y-113010476D02*
X167122380Y-112915238D01*
X167170000Y-112820000D01*
X167217619Y-112772380D01*
X167312857Y-112724761D01*
X167503333Y-112677142D01*
X167741428Y-112677142D01*
X167931904Y-112724761D01*
X168027142Y-112772380D01*
X168074761Y-112820000D01*
X168122380Y-112915238D01*
X168122380Y-113010476D01*
X168074761Y-113105714D01*
X168027142Y-113153333D01*
X167931904Y-113200952D01*
X167741428Y-113248571D01*
X167503333Y-113248571D01*
X167312857Y-113200952D01*
X167217619Y-113153333D01*
X167170000Y-113105714D01*
X167122380Y-113010476D01*
X166232380Y-85939523D02*
X166946666Y-85939523D01*
X167089523Y-85987142D01*
X167184761Y-86082380D01*
X167232380Y-86225238D01*
X167232380Y-86320476D01*
X167232380Y-84939523D02*
X167232380Y-85510952D01*
X167232380Y-85225238D02*
X166232380Y-85225238D01*
X166375238Y-85320476D01*
X166470476Y-85415714D01*
X166518095Y-85510952D01*
X166232380Y-84320476D02*
X166232380Y-84225238D01*
X166280000Y-84130000D01*
X166327619Y-84082380D01*
X166422857Y-84034761D01*
X166613333Y-83987142D01*
X166851428Y-83987142D01*
X167041904Y-84034761D01*
X167137142Y-84082380D01*
X167184761Y-84130000D01*
X167232380Y-84225238D01*
X167232380Y-84320476D01*
X167184761Y-84415714D01*
X167137142Y-84463333D01*
X167041904Y-84510952D01*
X166851428Y-84558571D01*
X166613333Y-84558571D01*
X166422857Y-84510952D01*
X166327619Y-84463333D01*
X166280000Y-84415714D01*
X166232380Y-84320476D01*
X149292380Y-95919523D02*
X150006666Y-95919523D01*
X150149523Y-95967142D01*
X150244761Y-96062380D01*
X150292380Y-96205238D01*
X150292380Y-96300476D01*
X150292380Y-94919523D02*
X150292380Y-95490952D01*
X150292380Y-95205238D02*
X149292380Y-95205238D01*
X149435238Y-95300476D01*
X149530476Y-95395714D01*
X149578095Y-95490952D01*
X149292380Y-94300476D02*
X149292380Y-94205238D01*
X149340000Y-94110000D01*
X149387619Y-94062380D01*
X149482857Y-94014761D01*
X149673333Y-93967142D01*
X149911428Y-93967142D01*
X150101904Y-94014761D01*
X150197142Y-94062380D01*
X150244761Y-94110000D01*
X150292380Y-94205238D01*
X150292380Y-94300476D01*
X150244761Y-94395714D01*
X150197142Y-94443333D01*
X150101904Y-94490952D01*
X149911428Y-94538571D01*
X149673333Y-94538571D01*
X149482857Y-94490952D01*
X149387619Y-94443333D01*
X149340000Y-94395714D01*
X149292380Y-94300476D01*
X149612380Y-106289523D02*
X150326666Y-106289523D01*
X150469523Y-106337142D01*
X150564761Y-106432380D01*
X150612380Y-106575238D01*
X150612380Y-106670476D01*
X150612380Y-105289523D02*
X150612380Y-105860952D01*
X150612380Y-105575238D02*
X149612380Y-105575238D01*
X149755238Y-105670476D01*
X149850476Y-105765714D01*
X149898095Y-105860952D01*
X149612380Y-104670476D02*
X149612380Y-104575238D01*
X149660000Y-104480000D01*
X149707619Y-104432380D01*
X149802857Y-104384761D01*
X149993333Y-104337142D01*
X150231428Y-104337142D01*
X150421904Y-104384761D01*
X150517142Y-104432380D01*
X150564761Y-104480000D01*
X150612380Y-104575238D01*
X150612380Y-104670476D01*
X150564761Y-104765714D01*
X150517142Y-104813333D01*
X150421904Y-104860952D01*
X150231428Y-104908571D01*
X149993333Y-104908571D01*
X149802857Y-104860952D01*
X149707619Y-104813333D01*
X149660000Y-104765714D01*
X149612380Y-104670476D01*
X137922380Y-105659523D02*
X138636666Y-105659523D01*
X138779523Y-105707142D01*
X138874761Y-105802380D01*
X138922380Y-105945238D01*
X138922380Y-106040476D01*
X138922380Y-104659523D02*
X138922380Y-105230952D01*
X138922380Y-104945238D02*
X137922380Y-104945238D01*
X138065238Y-105040476D01*
X138160476Y-105135714D01*
X138208095Y-105230952D01*
X137922380Y-104040476D02*
X137922380Y-103945238D01*
X137970000Y-103850000D01*
X138017619Y-103802380D01*
X138112857Y-103754761D01*
X138303333Y-103707142D01*
X138541428Y-103707142D01*
X138731904Y-103754761D01*
X138827142Y-103802380D01*
X138874761Y-103850000D01*
X138922380Y-103945238D01*
X138922380Y-104040476D01*
X138874761Y-104135714D01*
X138827142Y-104183333D01*
X138731904Y-104230952D01*
X138541428Y-104278571D01*
X138303333Y-104278571D01*
X138112857Y-104230952D01*
X138017619Y-104183333D01*
X137970000Y-104135714D01*
X137922380Y-104040476D01*
X118772380Y-115579523D02*
X119486666Y-115579523D01*
X119629523Y-115627142D01*
X119724761Y-115722380D01*
X119772380Y-115865238D01*
X119772380Y-115960476D01*
X119772380Y-114579523D02*
X119772380Y-115150952D01*
X119772380Y-114865238D02*
X118772380Y-114865238D01*
X118915238Y-114960476D01*
X119010476Y-115055714D01*
X119058095Y-115150952D01*
X118772380Y-113960476D02*
X118772380Y-113865238D01*
X118820000Y-113770000D01*
X118867619Y-113722380D01*
X118962857Y-113674761D01*
X119153333Y-113627142D01*
X119391428Y-113627142D01*
X119581904Y-113674761D01*
X119677142Y-113722380D01*
X119724761Y-113770000D01*
X119772380Y-113865238D01*
X119772380Y-113960476D01*
X119724761Y-114055714D01*
X119677142Y-114103333D01*
X119581904Y-114150952D01*
X119391428Y-114198571D01*
X119153333Y-114198571D01*
X118962857Y-114150952D01*
X118867619Y-114103333D01*
X118820000Y-114055714D01*
X118772380Y-113960476D01*
X119342380Y-86379523D02*
X120056666Y-86379523D01*
X120199523Y-86427142D01*
X120294761Y-86522380D01*
X120342380Y-86665238D01*
X120342380Y-86760476D01*
X120342380Y-85379523D02*
X120342380Y-85950952D01*
X120342380Y-85665238D02*
X119342380Y-85665238D01*
X119485238Y-85760476D01*
X119580476Y-85855714D01*
X119628095Y-85950952D01*
X119342380Y-84760476D02*
X119342380Y-84665238D01*
X119390000Y-84570000D01*
X119437619Y-84522380D01*
X119532857Y-84474761D01*
X119723333Y-84427142D01*
X119961428Y-84427142D01*
X120151904Y-84474761D01*
X120247142Y-84522380D01*
X120294761Y-84570000D01*
X120342380Y-84665238D01*
X120342380Y-84760476D01*
X120294761Y-84855714D01*
X120247142Y-84903333D01*
X120151904Y-84950952D01*
X119961428Y-84998571D01*
X119723333Y-84998571D01*
X119532857Y-84950952D01*
X119437619Y-84903333D01*
X119390000Y-84855714D01*
X119342380Y-84760476D01*
X137742380Y-95759523D02*
X138456666Y-95759523D01*
X138599523Y-95807142D01*
X138694761Y-95902380D01*
X138742380Y-96045238D01*
X138742380Y-96140476D01*
X138742380Y-94759523D02*
X138742380Y-95330952D01*
X138742380Y-95045238D02*
X137742380Y-95045238D01*
X137885238Y-95140476D01*
X137980476Y-95235714D01*
X138028095Y-95330952D01*
X137742380Y-94140476D02*
X137742380Y-94045238D01*
X137790000Y-93950000D01*
X137837619Y-93902380D01*
X137932857Y-93854761D01*
X138123333Y-93807142D01*
X138361428Y-93807142D01*
X138551904Y-93854761D01*
X138647142Y-93902380D01*
X138694761Y-93950000D01*
X138742380Y-94045238D01*
X138742380Y-94140476D01*
X138694761Y-94235714D01*
X138647142Y-94283333D01*
X138551904Y-94330952D01*
X138361428Y-94378571D01*
X138123333Y-94378571D01*
X137932857Y-94330952D01*
X137837619Y-94283333D01*
X137790000Y-94235714D01*
X137742380Y-94140476D01*
X133272380Y-95759523D02*
X133986666Y-95759523D01*
X134129523Y-95807142D01*
X134224761Y-95902380D01*
X134272380Y-96045238D01*
X134272380Y-96140476D01*
X134272380Y-94759523D02*
X134272380Y-95330952D01*
X134272380Y-95045238D02*
X133272380Y-95045238D01*
X133415238Y-95140476D01*
X133510476Y-95235714D01*
X133558095Y-95330952D01*
X133272380Y-94140476D02*
X133272380Y-94045238D01*
X133320000Y-93950000D01*
X133367619Y-93902380D01*
X133462857Y-93854761D01*
X133653333Y-93807142D01*
X133891428Y-93807142D01*
X134081904Y-93854761D01*
X134177142Y-93902380D01*
X134224761Y-93950000D01*
X134272380Y-94045238D01*
X134272380Y-94140476D01*
X134224761Y-94235714D01*
X134177142Y-94283333D01*
X134081904Y-94330952D01*
X133891428Y-94378571D01*
X133653333Y-94378571D01*
X133462857Y-94330952D01*
X133367619Y-94283333D01*
X133320000Y-94235714D01*
X133272380Y-94140476D01*
X133462380Y-105143333D02*
X134176666Y-105143333D01*
X134319523Y-105190952D01*
X134414761Y-105286190D01*
X134462380Y-105429047D01*
X134462380Y-105524285D01*
X134462380Y-104619523D02*
X134462380Y-104429047D01*
X134414761Y-104333809D01*
X134367142Y-104286190D01*
X134224285Y-104190952D01*
X134033809Y-104143333D01*
X133652857Y-104143333D01*
X133557619Y-104190952D01*
X133510000Y-104238571D01*
X133462380Y-104333809D01*
X133462380Y-104524285D01*
X133510000Y-104619523D01*
X133557619Y-104667142D01*
X133652857Y-104714761D01*
X133890952Y-104714761D01*
X133986190Y-104667142D01*
X134033809Y-104619523D01*
X134081428Y-104524285D01*
X134081428Y-104333809D01*
X134033809Y-104238571D01*
X133986190Y-104190952D01*
X133890952Y-104143333D01*
X124612380Y-85853333D02*
X125326666Y-85853333D01*
X125469523Y-85900952D01*
X125564761Y-85996190D01*
X125612380Y-86139047D01*
X125612380Y-86234285D01*
X125040952Y-85234285D02*
X124993333Y-85329523D01*
X124945714Y-85377142D01*
X124850476Y-85424761D01*
X124802857Y-85424761D01*
X124707619Y-85377142D01*
X124660000Y-85329523D01*
X124612380Y-85234285D01*
X124612380Y-85043809D01*
X124660000Y-84948571D01*
X124707619Y-84900952D01*
X124802857Y-84853333D01*
X124850476Y-84853333D01*
X124945714Y-84900952D01*
X124993333Y-84948571D01*
X125040952Y-85043809D01*
X125040952Y-85234285D01*
X125088571Y-85329523D01*
X125136190Y-85377142D01*
X125231428Y-85424761D01*
X125421904Y-85424761D01*
X125517142Y-85377142D01*
X125564761Y-85329523D01*
X125612380Y-85234285D01*
X125612380Y-85043809D01*
X125564761Y-84948571D01*
X125517142Y-84900952D01*
X125421904Y-84853333D01*
X125231428Y-84853333D01*
X125136190Y-84900952D01*
X125088571Y-84948571D01*
X125040952Y-85043809D01*
X124762380Y-113923333D02*
X125476666Y-113923333D01*
X125619523Y-113970952D01*
X125714761Y-114066190D01*
X125762380Y-114209047D01*
X125762380Y-114304285D01*
X124762380Y-113542380D02*
X124762380Y-112875714D01*
X125762380Y-113304285D01*
X110352380Y-89753333D02*
X111066666Y-89753333D01*
X111209523Y-89800952D01*
X111304761Y-89896190D01*
X111352380Y-90039047D01*
X111352380Y-90134285D01*
X110352380Y-88848571D02*
X110352380Y-89039047D01*
X110400000Y-89134285D01*
X110447619Y-89181904D01*
X110590476Y-89277142D01*
X110780952Y-89324761D01*
X111161904Y-89324761D01*
X111257142Y-89277142D01*
X111304761Y-89229523D01*
X111352380Y-89134285D01*
X111352380Y-88943809D01*
X111304761Y-88848571D01*
X111257142Y-88800952D01*
X111161904Y-88753333D01*
X110923809Y-88753333D01*
X110828571Y-88800952D01*
X110780952Y-88848571D01*
X110733333Y-88943809D01*
X110733333Y-89134285D01*
X110780952Y-89229523D01*
X110828571Y-89277142D01*
X110923809Y-89324761D01*
X161712380Y-113823333D02*
X162426666Y-113823333D01*
X162569523Y-113870952D01*
X162664761Y-113966190D01*
X162712380Y-114109047D01*
X162712380Y-114204285D01*
X161712380Y-112870952D02*
X161712380Y-113347142D01*
X162188571Y-113394761D01*
X162140952Y-113347142D01*
X162093333Y-113251904D01*
X162093333Y-113013809D01*
X162140952Y-112918571D01*
X162188571Y-112870952D01*
X162283809Y-112823333D01*
X162521904Y-112823333D01*
X162617142Y-112870952D01*
X162664761Y-112918571D01*
X162712380Y-113013809D01*
X162712380Y-113251904D01*
X162664761Y-113347142D01*
X162617142Y-113394761D01*
X153742380Y-95393333D02*
X154456666Y-95393333D01*
X154599523Y-95440952D01*
X154694761Y-95536190D01*
X154742380Y-95679047D01*
X154742380Y-95774285D01*
X154075714Y-94488571D02*
X154742380Y-94488571D01*
X153694761Y-94726666D02*
X154409047Y-94964761D01*
X154409047Y-94345714D01*
X153892380Y-105553333D02*
X154606666Y-105553333D01*
X154749523Y-105600952D01*
X154844761Y-105696190D01*
X154892380Y-105839047D01*
X154892380Y-105934285D01*
X153892380Y-105172380D02*
X153892380Y-104553333D01*
X154273333Y-104886666D01*
X154273333Y-104743809D01*
X154320952Y-104648571D01*
X154368571Y-104600952D01*
X154463809Y-104553333D01*
X154701904Y-104553333D01*
X154797142Y-104600952D01*
X154844761Y-104648571D01*
X154892380Y-104743809D01*
X154892380Y-105029523D01*
X154844761Y-105124761D01*
X154797142Y-105172380D01*
X161632380Y-86133333D02*
X162346666Y-86133333D01*
X162489523Y-86180952D01*
X162584761Y-86276190D01*
X162632380Y-86419047D01*
X162632380Y-86514285D01*
X161727619Y-85704761D02*
X161680000Y-85657142D01*
X161632380Y-85561904D01*
X161632380Y-85323809D01*
X161680000Y-85228571D01*
X161727619Y-85180952D01*
X161822857Y-85133333D01*
X161918095Y-85133333D01*
X162060952Y-85180952D01*
X162632380Y-85752380D01*
X162632380Y-85133333D01*
X178452380Y-109953333D02*
X179166666Y-109953333D01*
X179309523Y-110000952D01*
X179404761Y-110096190D01*
X179452380Y-110239047D01*
X179452380Y-110334285D01*
X179452380Y-108953333D02*
X179452380Y-109524761D01*
X179452380Y-109239047D02*
X178452380Y-109239047D01*
X178595238Y-109334285D01*
X178690476Y-109429523D01*
X178738095Y-109524761D01*
%LPC*%
D13*
X170000000Y-113820000D03*
X169110000Y-85130000D03*
X152170000Y-95110000D03*
X152490000Y-105480000D03*
X140800000Y-104850000D03*
X121650000Y-114770000D03*
X122220000Y-85570000D03*
X140620000Y-94950000D03*
D14*
X136150000Y-94950000D03*
X136340000Y-104810000D03*
X127490000Y-85520000D03*
X127640000Y-113590000D03*
D15*
X116070000Y-103080000D03*
X116070000Y-100580000D03*
X116070000Y-98580000D03*
D16*
X116070000Y-96080000D03*
D17*
X113360000Y-93010000D03*
X113360000Y-106150000D03*
D14*
X164590000Y-113490000D03*
X156620000Y-95060000D03*
X156770000Y-105220000D03*
X164510000Y-85800000D03*
D18*
X177630000Y-97660000D03*
X177630000Y-102160000D03*
D19*
X177630000Y-93910000D03*
X177630000Y-105910000D03*
D15*
X175630000Y-96910000D03*
X175630000Y-98910000D03*
X175630000Y-100910000D03*
X175630000Y-102910000D03*
M02*
