%FSLAX45Y45*%
G04 Gerber Fmt 4.5, Leading zero omitted, Abs format (unit mm)*
G04 Created by KiCad (PCBNEW 5.1.10-88a1d61d58~88~ubuntu20.04.1) date 2021-05-09 22:43:31*
%MOMM*%
%LPD*%
G01*
G04 APERTURE LIST*
%TA.AperFunction,Profile*%
%ADD10C,0.050000*%
%TD*%
%ADD11C,0.200000*%
%ADD12C,0.300000*%
G04 APERTURE END LIST*
D10*
X18000000Y-8000000D02*
X11000000Y-8000000D01*
X18000000Y-12000000D02*
X18000000Y-8000000D01*
X11000000Y-12000000D02*
X18000000Y-12000000D01*
X11000000Y-8000000D02*
X11000000Y-12000000D01*
D11*
X17688000Y-9691000D02*
X17838000Y-9841000D01*
X17838000Y-9691000D02*
X17688000Y-9841000D01*
X17688000Y-10141000D02*
X17838000Y-10291000D01*
X17838000Y-10141000D02*
X17688000Y-10291000D01*
D12*
X11283928Y-12468214D02*
X11283928Y-12168214D01*
X11355357Y-12168214D01*
X11398214Y-12182500D01*
X11426786Y-12211071D01*
X11441071Y-12239643D01*
X11455357Y-12296786D01*
X11455357Y-12339643D01*
X11441071Y-12396786D01*
X11426786Y-12425357D01*
X11398214Y-12453929D01*
X11355357Y-12468214D01*
X11283928Y-12468214D01*
X11583928Y-12468214D02*
X11583928Y-12268214D01*
X11583928Y-12325357D02*
X11598214Y-12296786D01*
X11612500Y-12282500D01*
X11641071Y-12268214D01*
X11669643Y-12268214D01*
X11769643Y-12468214D02*
X11769643Y-12268214D01*
X11769643Y-12168214D02*
X11755357Y-12182500D01*
X11769643Y-12196786D01*
X11783928Y-12182500D01*
X11769643Y-12168214D01*
X11769643Y-12196786D01*
X11955357Y-12468214D02*
X11926786Y-12453929D01*
X11912500Y-12425357D01*
X11912500Y-12168214D01*
X12112500Y-12468214D02*
X12083928Y-12453929D01*
X12069643Y-12425357D01*
X12069643Y-12168214D01*
X12455357Y-12468214D02*
X12455357Y-12168214D01*
X12555357Y-12382500D01*
X12655357Y-12168214D01*
X12655357Y-12468214D01*
X12926786Y-12468214D02*
X12926786Y-12311071D01*
X12912500Y-12282500D01*
X12883928Y-12268214D01*
X12826786Y-12268214D01*
X12798214Y-12282500D01*
X12926786Y-12453929D02*
X12898214Y-12468214D01*
X12826786Y-12468214D01*
X12798214Y-12453929D01*
X12783928Y-12425357D01*
X12783928Y-12396786D01*
X12798214Y-12368214D01*
X12826786Y-12353929D01*
X12898214Y-12353929D01*
X12926786Y-12339643D01*
X13069643Y-12268214D02*
X13069643Y-12568214D01*
X13069643Y-12282500D02*
X13098214Y-12268214D01*
X13155357Y-12268214D01*
X13183928Y-12282500D01*
X13198214Y-12296786D01*
X13212500Y-12325357D01*
X13212500Y-12411071D01*
X13198214Y-12439643D01*
X13183928Y-12453929D01*
X13155357Y-12468214D01*
X13098214Y-12468214D01*
X13069643Y-12453929D01*
X13341071Y-12439643D02*
X13355357Y-12453929D01*
X13341071Y-12468214D01*
X13326786Y-12453929D01*
X13341071Y-12439643D01*
X13341071Y-12468214D01*
X13341071Y-12282500D02*
X13355357Y-12296786D01*
X13341071Y-12311071D01*
X13326786Y-12296786D01*
X13341071Y-12282500D01*
X13341071Y-12311071D01*
X10847500Y-12887500D02*
X10997500Y-13037500D01*
X10997500Y-12887500D02*
X10847500Y-13037500D01*
X11441071Y-13098214D02*
X11269643Y-13098214D01*
X11355357Y-13098214D02*
X11355357Y-12798214D01*
X11326786Y-12841071D01*
X11298214Y-12869643D01*
X11269643Y-12883929D01*
X11569643Y-13069643D02*
X11583928Y-13083929D01*
X11569643Y-13098214D01*
X11555357Y-13083929D01*
X11569643Y-13069643D01*
X11569643Y-13098214D01*
X11855357Y-12798214D02*
X11712500Y-12798214D01*
X11698214Y-12941071D01*
X11712500Y-12926786D01*
X11741071Y-12912500D01*
X11812500Y-12912500D01*
X11841071Y-12926786D01*
X11855357Y-12941071D01*
X11869643Y-12969643D01*
X11869643Y-13041071D01*
X11855357Y-13069643D01*
X11841071Y-13083929D01*
X11812500Y-13098214D01*
X11741071Y-13098214D01*
X11712500Y-13083929D01*
X11698214Y-13069643D01*
X12055357Y-12798214D02*
X12083928Y-12798214D01*
X12112500Y-12812500D01*
X12126786Y-12826786D01*
X12141071Y-12855357D01*
X12155357Y-12912500D01*
X12155357Y-12983929D01*
X12141071Y-13041071D01*
X12126786Y-13069643D01*
X12112500Y-13083929D01*
X12083928Y-13098214D01*
X12055357Y-13098214D01*
X12026786Y-13083929D01*
X12012500Y-13069643D01*
X11998214Y-13041071D01*
X11983928Y-12983929D01*
X11983928Y-12912500D01*
X11998214Y-12855357D01*
X12012500Y-12826786D01*
X12026786Y-12812500D01*
X12055357Y-12798214D01*
X12341071Y-12798214D02*
X12369643Y-12798214D01*
X12398214Y-12812500D01*
X12412500Y-12826786D01*
X12426786Y-12855357D01*
X12441071Y-12912500D01*
X12441071Y-12983929D01*
X12426786Y-13041071D01*
X12412500Y-13069643D01*
X12398214Y-13083929D01*
X12369643Y-13098214D01*
X12341071Y-13098214D01*
X12312500Y-13083929D01*
X12298214Y-13069643D01*
X12283928Y-13041071D01*
X12269643Y-12983929D01*
X12269643Y-12912500D01*
X12283928Y-12855357D01*
X12298214Y-12826786D01*
X12312500Y-12812500D01*
X12341071Y-12798214D01*
X12569643Y-13098214D02*
X12569643Y-12898214D01*
X12569643Y-12926786D02*
X12583928Y-12912500D01*
X12612500Y-12898214D01*
X12655357Y-12898214D01*
X12683928Y-12912500D01*
X12698214Y-12941071D01*
X12698214Y-13098214D01*
X12698214Y-12941071D02*
X12712500Y-12912500D01*
X12741071Y-12898214D01*
X12783928Y-12898214D01*
X12812500Y-12912500D01*
X12826786Y-12941071D01*
X12826786Y-13098214D01*
X12969643Y-13098214D02*
X12969643Y-12898214D01*
X12969643Y-12926786D02*
X12983928Y-12912500D01*
X13012500Y-12898214D01*
X13055357Y-12898214D01*
X13083928Y-12912500D01*
X13098214Y-12941071D01*
X13098214Y-13098214D01*
X13098214Y-12941071D02*
X13112500Y-12912500D01*
X13141071Y-12898214D01*
X13183928Y-12898214D01*
X13212500Y-12912500D01*
X13226786Y-12941071D01*
X13226786Y-13098214D01*
X13812500Y-12783929D02*
X13555357Y-13169643D01*
X14198214Y-12798214D02*
X14226786Y-12798214D01*
X14255357Y-12812500D01*
X14269643Y-12826786D01*
X14283928Y-12855357D01*
X14298214Y-12912500D01*
X14298214Y-12983929D01*
X14283928Y-13041071D01*
X14269643Y-13069643D01*
X14255357Y-13083929D01*
X14226786Y-13098214D01*
X14198214Y-13098214D01*
X14169643Y-13083929D01*
X14155357Y-13069643D01*
X14141071Y-13041071D01*
X14126786Y-12983929D01*
X14126786Y-12912500D01*
X14141071Y-12855357D01*
X14155357Y-12826786D01*
X14169643Y-12812500D01*
X14198214Y-12798214D01*
X14426786Y-13069643D02*
X14441071Y-13083929D01*
X14426786Y-13098214D01*
X14412500Y-13083929D01*
X14426786Y-13069643D01*
X14426786Y-13098214D01*
X14626786Y-12798214D02*
X14655357Y-12798214D01*
X14683928Y-12812500D01*
X14698214Y-12826786D01*
X14712500Y-12855357D01*
X14726786Y-12912500D01*
X14726786Y-12983929D01*
X14712500Y-13041071D01*
X14698214Y-13069643D01*
X14683928Y-13083929D01*
X14655357Y-13098214D01*
X14626786Y-13098214D01*
X14598214Y-13083929D01*
X14583928Y-13069643D01*
X14569643Y-13041071D01*
X14555357Y-12983929D01*
X14555357Y-12912500D01*
X14569643Y-12855357D01*
X14583928Y-12826786D01*
X14598214Y-12812500D01*
X14626786Y-12798214D01*
X14998214Y-12798214D02*
X14855357Y-12798214D01*
X14841071Y-12941071D01*
X14855357Y-12926786D01*
X14883928Y-12912500D01*
X14955357Y-12912500D01*
X14983928Y-12926786D01*
X14998214Y-12941071D01*
X15012500Y-12969643D01*
X15012500Y-13041071D01*
X14998214Y-13069643D01*
X14983928Y-13083929D01*
X14955357Y-13098214D01*
X14883928Y-13098214D01*
X14855357Y-13083929D01*
X14841071Y-13069643D01*
X15155357Y-13098214D02*
X15212500Y-13098214D01*
X15241071Y-13083929D01*
X15255357Y-13069643D01*
X15283928Y-13026786D01*
X15298214Y-12969643D01*
X15298214Y-12855357D01*
X15283928Y-12826786D01*
X15269643Y-12812500D01*
X15241071Y-12798214D01*
X15183928Y-12798214D01*
X15155357Y-12812500D01*
X15141071Y-12826786D01*
X15126786Y-12855357D01*
X15126786Y-12926786D01*
X15141071Y-12955357D01*
X15155357Y-12969643D01*
X15183928Y-12983929D01*
X15241071Y-12983929D01*
X15269643Y-12969643D01*
X15283928Y-12955357D01*
X15298214Y-12926786D01*
X15583928Y-13098214D02*
X15412500Y-13098214D01*
X15498214Y-13098214D02*
X15498214Y-12798214D01*
X15469643Y-12841071D01*
X15441071Y-12869643D01*
X15412500Y-12883929D01*
X15698214Y-12798214D02*
X15698214Y-12855357D01*
X15812500Y-12798214D02*
X15812500Y-12855357D01*
X16255357Y-13212500D02*
X16241071Y-13198214D01*
X16212500Y-13155357D01*
X16198214Y-13126786D01*
X16183928Y-13083929D01*
X16169643Y-13012500D01*
X16169643Y-12955357D01*
X16183928Y-12883929D01*
X16198214Y-12841071D01*
X16212500Y-12812500D01*
X16241071Y-12769643D01*
X16255357Y-12755357D01*
X16355357Y-12826786D02*
X16369643Y-12812500D01*
X16398214Y-12798214D01*
X16469643Y-12798214D01*
X16498214Y-12812500D01*
X16512500Y-12826786D01*
X16526786Y-12855357D01*
X16526786Y-12883929D01*
X16512500Y-12926786D01*
X16341071Y-13098214D01*
X16526786Y-13098214D01*
X16883928Y-13098214D02*
X16883928Y-12798214D01*
X17012500Y-13098214D02*
X17012500Y-12941071D01*
X16998214Y-12912500D01*
X16969643Y-12898214D01*
X16926786Y-12898214D01*
X16898214Y-12912500D01*
X16883928Y-12926786D01*
X17198214Y-13098214D02*
X17169643Y-13083929D01*
X17155357Y-13069643D01*
X17141071Y-13041071D01*
X17141071Y-12955357D01*
X17155357Y-12926786D01*
X17169643Y-12912500D01*
X17198214Y-12898214D01*
X17241071Y-12898214D01*
X17269643Y-12912500D01*
X17283928Y-12926786D01*
X17298214Y-12955357D01*
X17298214Y-13041071D01*
X17283928Y-13069643D01*
X17269643Y-13083929D01*
X17241071Y-13098214D01*
X17198214Y-13098214D01*
X17469643Y-13098214D02*
X17441071Y-13083929D01*
X17426786Y-13055357D01*
X17426786Y-12798214D01*
X17698214Y-13083929D02*
X17669643Y-13098214D01*
X17612500Y-13098214D01*
X17583928Y-13083929D01*
X17569643Y-13055357D01*
X17569643Y-12941071D01*
X17583928Y-12912500D01*
X17612500Y-12898214D01*
X17669643Y-12898214D01*
X17698214Y-12912500D01*
X17712500Y-12941071D01*
X17712500Y-12969643D01*
X17569643Y-12998214D01*
X17826786Y-13083929D02*
X17855357Y-13098214D01*
X17912500Y-13098214D01*
X17941071Y-13083929D01*
X17955357Y-13055357D01*
X17955357Y-13041071D01*
X17941071Y-13012500D01*
X17912500Y-12998214D01*
X17869643Y-12998214D01*
X17841071Y-12983929D01*
X17826786Y-12955357D01*
X17826786Y-12941071D01*
X17841071Y-12912500D01*
X17869643Y-12898214D01*
X17912500Y-12898214D01*
X17941071Y-12912500D01*
X18055357Y-13212500D02*
X18069643Y-13198214D01*
X18098214Y-13155357D01*
X18112500Y-13126786D01*
X18126786Y-13083929D01*
X18141071Y-13012500D01*
X18141071Y-12955357D01*
X18126786Y-12883929D01*
X18112500Y-12841071D01*
X18098214Y-12812500D01*
X18069643Y-12769643D01*
X18055357Y-12755357D01*
X18598214Y-13212500D02*
X18583928Y-13198214D01*
X18555357Y-13155357D01*
X18541071Y-13126786D01*
X18526786Y-13083929D01*
X18512500Y-13012500D01*
X18512500Y-12955357D01*
X18526786Y-12883929D01*
X18541071Y-12841071D01*
X18555357Y-12812500D01*
X18583928Y-12769643D01*
X18598214Y-12755357D01*
X18712500Y-12898214D02*
X18712500Y-13098214D01*
X18712500Y-12926786D02*
X18726786Y-12912500D01*
X18755357Y-12898214D01*
X18798214Y-12898214D01*
X18826786Y-12912500D01*
X18841071Y-12941071D01*
X18841071Y-13098214D01*
X19026786Y-13098214D02*
X18998214Y-13083929D01*
X18983928Y-13069643D01*
X18969643Y-13041071D01*
X18969643Y-12955357D01*
X18983928Y-12926786D01*
X18998214Y-12912500D01*
X19026786Y-12898214D01*
X19069643Y-12898214D01*
X19098214Y-12912500D01*
X19112500Y-12926786D01*
X19126786Y-12955357D01*
X19126786Y-13041071D01*
X19112500Y-13069643D01*
X19098214Y-13083929D01*
X19069643Y-13098214D01*
X19026786Y-13098214D01*
X19212500Y-12898214D02*
X19326786Y-12898214D01*
X19255357Y-12798214D02*
X19255357Y-13055357D01*
X19269643Y-13083929D01*
X19298214Y-13098214D01*
X19326786Y-13098214D01*
X19655357Y-12898214D02*
X19655357Y-13198214D01*
X19655357Y-12912500D02*
X19683928Y-12898214D01*
X19741071Y-12898214D01*
X19769643Y-12912500D01*
X19783928Y-12926786D01*
X19798214Y-12955357D01*
X19798214Y-13041071D01*
X19783928Y-13069643D01*
X19769643Y-13083929D01*
X19741071Y-13098214D01*
X19683928Y-13098214D01*
X19655357Y-13083929D01*
X19969643Y-13098214D02*
X19941071Y-13083929D01*
X19926786Y-13055357D01*
X19926786Y-12798214D01*
X20212500Y-13098214D02*
X20212500Y-12941071D01*
X20198214Y-12912500D01*
X20169643Y-12898214D01*
X20112500Y-12898214D01*
X20083928Y-12912500D01*
X20212500Y-13083929D02*
X20183928Y-13098214D01*
X20112500Y-13098214D01*
X20083928Y-13083929D01*
X20069643Y-13055357D01*
X20069643Y-13026786D01*
X20083928Y-12998214D01*
X20112500Y-12983929D01*
X20183928Y-12983929D01*
X20212500Y-12969643D01*
X20312500Y-12898214D02*
X20426786Y-12898214D01*
X20355357Y-12798214D02*
X20355357Y-13055357D01*
X20369643Y-13083929D01*
X20398214Y-13098214D01*
X20426786Y-13098214D01*
X20641071Y-13083929D02*
X20612500Y-13098214D01*
X20555357Y-13098214D01*
X20526786Y-13083929D01*
X20512500Y-13055357D01*
X20512500Y-12941071D01*
X20526786Y-12912500D01*
X20555357Y-12898214D01*
X20612500Y-12898214D01*
X20641071Y-12912500D01*
X20655357Y-12941071D01*
X20655357Y-12969643D01*
X20512500Y-12998214D01*
X20912500Y-13098214D02*
X20912500Y-12798214D01*
X20912500Y-13083929D02*
X20883928Y-13098214D01*
X20826786Y-13098214D01*
X20798214Y-13083929D01*
X20783928Y-13069643D01*
X20769643Y-13041071D01*
X20769643Y-12955357D01*
X20783928Y-12926786D01*
X20798214Y-12912500D01*
X20826786Y-12898214D01*
X20883928Y-12898214D01*
X20912500Y-12912500D01*
X21026786Y-13212500D02*
X21041071Y-13198214D01*
X21069643Y-13155357D01*
X21083928Y-13126786D01*
X21098214Y-13083929D01*
X21112500Y-13012500D01*
X21112500Y-12955357D01*
X21098214Y-12883929D01*
X21083928Y-12841071D01*
X21069643Y-12812500D01*
X21041071Y-12769643D01*
X21026786Y-12755357D01*
M02*
