%TF.GenerationSoftware,KiCad,Pcbnew,6.0.7-f9a2dced07~116~ubuntu20.04.1*%
%TF.CreationDate,2022-09-04T18:40:54+02:00*%
%TF.ProjectId,USBRadio,55534252-6164-4696-9f2e-6b696361645f,rev?*%
%TF.SameCoordinates,Original*%
%TF.FileFunction,Copper,L2,Bot*%
%TF.FilePolarity,Positive*%
%FSLAX46Y46*%
G04 Gerber Fmt 4.6, Leading zero omitted, Abs format (unit mm)*
G04 Created by KiCad (PCBNEW 6.0.7-f9a2dced07~116~ubuntu20.04.1) date 2022-09-04 18:40:54*
%MOMM*%
%LPD*%
G01*
G04 APERTURE LIST*
%TA.AperFunction,ComponentPad*%
%ADD10C,0.500000*%
%TD*%
%TA.AperFunction,ComponentPad*%
%ADD11O,1.700000X1.000000*%
%TD*%
%TA.AperFunction,ComponentPad*%
%ADD12R,1.524000X1.524000*%
%TD*%
%TA.AperFunction,ComponentPad*%
%ADD13C,1.524000*%
%TD*%
%TA.AperFunction,ComponentPad*%
%ADD14C,3.500000*%
%TD*%
%TA.AperFunction,ComponentPad*%
%ADD15R,2.000000X2.000000*%
%TD*%
%TA.AperFunction,ComponentPad*%
%ADD16C,2.000000*%
%TD*%
%TA.AperFunction,ViaPad*%
%ADD17C,0.800000*%
%TD*%
%TA.AperFunction,Conductor*%
%ADD18C,0.400000*%
%TD*%
%TA.AperFunction,Conductor*%
%ADD19C,0.250000*%
%TD*%
%TA.AperFunction,Conductor*%
%ADD20C,0.200000*%
%TD*%
G04 APERTURE END LIST*
D10*
%TO.P,J1,6,Shield*%
%TO.N,unconnected-(J1-Pad6)*%
X109120640Y-53932680D03*
D11*
X106770640Y-53057680D03*
X106770640Y-58807680D03*
D10*
X109120640Y-57932680D03*
%TD*%
D12*
%TO.P,J3,1,VBUS*%
%TO.N,VBUSOut*%
X112578000Y-96380500D03*
D13*
%TO.P,J3,2,D-*%
%TO.N,/MCU/USB_D-*%
X115078000Y-96380500D03*
%TO.P,J3,3,D+*%
%TO.N,/MCU/USB_D+*%
X117078000Y-96380500D03*
%TO.P,J3,4,GND*%
%TO.N,GND*%
X119578000Y-96380500D03*
D14*
%TO.P,J3,5,Shield*%
X122648000Y-99090500D03*
X109508000Y-99090500D03*
%TD*%
D15*
%TO.P,BT1,1,+*%
%TO.N,BatteryPower*%
X109743240Y-82961480D03*
D16*
%TO.P,BT1,2,-*%
%TO.N,GND*%
X109743240Y-80421480D03*
%TD*%
D17*
%TO.N,BatteryPower*%
X110252497Y-63754000D03*
%TO.N,GND*%
X134508240Y-42768520D03*
X135128000Y-65278000D03*
X133451600Y-91694000D03*
X131750000Y-92250000D03*
X111250000Y-94390000D03*
X111950000Y-83590000D03*
X115750000Y-71000000D03*
X108132880Y-71120000D03*
X107080000Y-95250000D03*
X108793280Y-85531960D03*
X129460000Y-80750000D03*
X129450000Y-79080000D03*
X119000000Y-55750000D03*
X112500000Y-101750000D03*
X132250000Y-101500000D03*
X112160000Y-75930000D03*
X111020000Y-74370000D03*
X129450000Y-75750000D03*
X110000000Y-37250000D03*
X126500000Y-91250000D03*
X122000000Y-75000000D03*
X128750000Y-92250000D03*
X130500000Y-42672000D03*
X133250000Y-51750000D03*
X117750000Y-45000000D03*
X121750000Y-95750000D03*
X128500000Y-101500000D03*
X115750000Y-60500000D03*
X130500000Y-51750000D03*
X106640000Y-60560000D03*
X120500000Y-52000000D03*
X111864010Y-81805296D03*
X107250000Y-50250000D03*
X117750000Y-52000000D03*
X129500000Y-82500000D03*
X128750000Y-83750000D03*
X128750000Y-72750000D03*
X120500000Y-79750000D03*
X123500000Y-75000000D03*
X110250000Y-50250000D03*
X122000000Y-81500000D03*
X118000000Y-99500000D03*
X129450000Y-77400000D03*
X120500000Y-45000000D03*
X119760000Y-89780000D03*
X122500000Y-36750000D03*
X133500000Y-68000000D03*
X118280000Y-66640500D03*
X108500000Y-43250000D03*
X131750000Y-65250000D03*
X129400000Y-74000000D03*
X126000000Y-56750000D03*
X109690000Y-90480000D03*
X122060000Y-69560000D03*
X107750000Y-83000000D03*
X107250000Y-37250000D03*
X117750000Y-36750000D03*
X107750000Y-77250000D03*
X120500000Y-77000000D03*
X123500000Y-81500000D03*
X130550920Y-39151560D03*
X114500000Y-99500000D03*
%TO.N,VBUSOut*%
X111252000Y-67564000D03*
X111252000Y-63754000D03*
%TO.N,ENABLE*%
X130556000Y-87122000D03*
X127762000Y-57912000D03*
%TO.N,3_3V*%
X131318000Y-57658000D03*
X134366000Y-100838000D03*
X134112000Y-88392000D03*
X115350000Y-52680000D03*
X129032000Y-63754000D03*
X114000000Y-69000000D03*
X129032000Y-69342000D03*
%TO.N,VBUS*%
X111205000Y-60245000D03*
X111190000Y-55320000D03*
%TO.N,/MCU/U0TXD*%
X125443500Y-87376000D03*
X124714000Y-60706000D03*
%TO.N,/MCU/U0RXD*%
X125513500Y-61976000D03*
X127000000Y-87122000D03*
%TO.N,BOOT*%
X128524000Y-65786000D03*
X128016000Y-69088000D03*
%TO.N,/MCU/USB_D-*%
X115570000Y-78232000D03*
%TO.N,/MCU/USB_D+*%
X115570000Y-79248000D03*
%TO.N,/MCU/TMS*%
X124968000Y-92456000D03*
X125984000Y-101092000D03*
%TO.N,Net-(SW4-Pad1)*%
X128778000Y-39116000D03*
X126746000Y-69088000D03*
%TO.N,/MCU/U1TXD*%
X115630000Y-75920000D03*
X115000000Y-39000000D03*
%TO.N,/MCU/U1RXD*%
X115445814Y-37953150D03*
X114930000Y-77160000D03*
%TO.N,LED*%
X119634000Y-86614000D03*
X123444000Y-40386000D03*
%TD*%
D18*
%TO.N,BatteryPower*%
X110269481Y-63770984D02*
X110269481Y-72256537D01*
X109914720Y-82790000D02*
X109743240Y-82961480D01*
X113410000Y-75397056D02*
X113410000Y-81860000D01*
X112480000Y-82790000D02*
X109914720Y-82790000D01*
X110269481Y-72256537D02*
X113410000Y-75397056D01*
X113410000Y-81860000D02*
X112480000Y-82790000D01*
X110252497Y-63754000D02*
X110269481Y-63770984D01*
%TO.N,VBUSOut*%
X114110000Y-94848500D02*
X114110000Y-75248528D01*
X111252000Y-72390528D02*
X111252000Y-67564000D01*
X111252000Y-63754000D02*
X111252000Y-67564000D01*
X114110000Y-75248528D02*
X111252000Y-72390528D01*
X112578000Y-96380500D02*
X114110000Y-94848500D01*
D19*
%TO.N,ENABLE*%
X127220000Y-72179305D02*
X129757000Y-69642305D01*
X129757000Y-69642305D02*
X129757000Y-65504305D01*
X127500000Y-63247305D02*
X127500000Y-58174000D01*
X129212000Y-87122000D02*
X127220000Y-85130000D01*
X127220000Y-85130000D02*
X127220000Y-72179305D01*
X127500000Y-58174000D02*
X127762000Y-57912000D01*
X129757000Y-65504305D02*
X127500000Y-63247305D01*
X130556000Y-87122000D02*
X129212000Y-87122000D01*
D18*
%TO.N,3_3V*%
X129401371Y-88392000D02*
X134112000Y-88392000D01*
X113350000Y-54680000D02*
X115350000Y-52680000D01*
X129032000Y-69342000D02*
X126600000Y-71774000D01*
X114000000Y-69000000D02*
X113350000Y-68350000D01*
X129032000Y-63754000D02*
X128250000Y-62972000D01*
X134366000Y-88646000D02*
X134112000Y-88392000D01*
X126600000Y-85590629D02*
X129401371Y-88392000D01*
X113350000Y-68350000D02*
X113350000Y-54680000D01*
X134366000Y-100838000D02*
X134366000Y-88646000D01*
X129692000Y-57658000D02*
X131318000Y-57658000D01*
X126600000Y-71774000D02*
X126600000Y-85590629D01*
X128250000Y-59100000D02*
X129692000Y-57658000D01*
X128250000Y-62972000D02*
X128250000Y-59100000D01*
%TO.N,VBUS*%
X111190000Y-55320000D02*
X111205000Y-55335000D01*
X111205000Y-55335000D02*
X111205000Y-60245000D01*
%TO.N,/MCU/U0TXD*%
X125260000Y-62853871D02*
X125260000Y-87192500D01*
X124714000Y-62307871D02*
X125260000Y-62853871D01*
X125260000Y-87192500D02*
X125443500Y-87376000D01*
X124714000Y-60706000D02*
X124714000Y-62307871D01*
%TO.N,/MCU/U0RXD*%
X126390000Y-62852500D02*
X125513500Y-61976000D01*
X127000000Y-87122000D02*
X125946000Y-86068000D01*
X125946000Y-86068000D02*
X125946000Y-68344000D01*
X126390000Y-67900000D02*
X126390000Y-62852500D01*
X125946000Y-68344000D02*
X126390000Y-67900000D01*
%TO.N,BOOT*%
X128016000Y-69088000D02*
X128016000Y-66294000D01*
X128016000Y-66294000D02*
X128524000Y-65786000D01*
D20*
%TO.N,/MCU/USB_D-*%
X114808000Y-78994000D02*
X115570000Y-78232000D01*
X114808000Y-96110500D02*
X114808000Y-78994000D01*
X115078000Y-96380500D02*
X114808000Y-96110500D01*
%TO.N,/MCU/USB_D+*%
X117078000Y-96380500D02*
X115490000Y-94792500D01*
X115490000Y-94792500D02*
X115490000Y-79328000D01*
X115490000Y-79328000D02*
X115570000Y-79248000D01*
D18*
%TO.N,/MCU/TMS*%
X125984000Y-93472000D02*
X125984000Y-101092000D01*
X124968000Y-92456000D02*
X125984000Y-93472000D01*
D19*
%TO.N,Net-(SW4-Pad1)*%
X126915000Y-68919000D02*
X126915000Y-61881695D01*
X124500000Y-43394000D02*
X128778000Y-39116000D01*
X126746000Y-69088000D02*
X126915000Y-68919000D01*
X126915000Y-61881695D02*
X124500000Y-59466695D01*
X124500000Y-59466695D02*
X124500000Y-43394000D01*
D18*
%TO.N,/MCU/U1TXD*%
X114500000Y-39000000D02*
X112750000Y-40750000D01*
X112750000Y-72151472D02*
X115630000Y-75031472D01*
X112750000Y-40750000D02*
X112750000Y-72151472D01*
X115000000Y-39000000D02*
X114500000Y-39000000D01*
X115630000Y-75031472D02*
X115630000Y-75920000D01*
%TO.N,/MCU/U1RXD*%
X112150000Y-40218629D02*
X112150000Y-72400000D01*
X114830000Y-77060000D02*
X114930000Y-77160000D01*
X112150000Y-72400000D02*
X114830000Y-75080000D01*
X114415479Y-37953150D02*
X112150000Y-40218629D01*
X115445814Y-37953150D02*
X114415479Y-37953150D01*
X114830000Y-75080000D02*
X114830000Y-77060000D01*
%TO.N,LED*%
X123760000Y-62510000D02*
X124520000Y-63270000D01*
X123386000Y-86614000D02*
X119634000Y-86614000D01*
X123760000Y-40702000D02*
X123760000Y-62510000D01*
X124520000Y-63270000D02*
X124520000Y-85480000D01*
X123444000Y-40386000D02*
X123760000Y-40702000D01*
X124520000Y-85480000D02*
X123386000Y-86614000D01*
%TD*%
%TA.AperFunction,Conductor*%
%TO.N,GND*%
G36*
X136333621Y-35528502D02*
G01*
X136380114Y-35582158D01*
X136391500Y-35634500D01*
X136391500Y-69065500D01*
X136371498Y-69133621D01*
X136317842Y-69180114D01*
X136265500Y-69191500D01*
X132208623Y-69191500D01*
X132207853Y-69191498D01*
X132207037Y-69191493D01*
X132130279Y-69191024D01*
X132112148Y-69196206D01*
X132101847Y-69199150D01*
X132085085Y-69202728D01*
X132055813Y-69206920D01*
X132047645Y-69210634D01*
X132047644Y-69210634D01*
X132032438Y-69217548D01*
X132014914Y-69223996D01*
X131990229Y-69231051D01*
X131982635Y-69235843D01*
X131982632Y-69235844D01*
X131965220Y-69246830D01*
X131950137Y-69254969D01*
X131923218Y-69267208D01*
X131916416Y-69273069D01*
X131903765Y-69283970D01*
X131888761Y-69295073D01*
X131867042Y-69308776D01*
X131861103Y-69315501D01*
X131861099Y-69315504D01*
X131847468Y-69330938D01*
X131835276Y-69342982D01*
X131819673Y-69356427D01*
X131819671Y-69356430D01*
X131812873Y-69362287D01*
X131807993Y-69369816D01*
X131807992Y-69369817D01*
X131798906Y-69383835D01*
X131787615Y-69398709D01*
X131776569Y-69411217D01*
X131770622Y-69417951D01*
X131758058Y-69444711D01*
X131749737Y-69459691D01*
X131738529Y-69476983D01*
X131738527Y-69476988D01*
X131733648Y-69484515D01*
X131731078Y-69493108D01*
X131731076Y-69493113D01*
X131726289Y-69509120D01*
X131719628Y-69526564D01*
X131714755Y-69536944D01*
X131708719Y-69549800D01*
X131707338Y-69558667D01*
X131707338Y-69558668D01*
X131704170Y-69579015D01*
X131700387Y-69595732D01*
X131694485Y-69615466D01*
X131694484Y-69615472D01*
X131691914Y-69624066D01*
X131691729Y-69654470D01*
X131691704Y-69658497D01*
X131691671Y-69659289D01*
X131691500Y-69660386D01*
X131691500Y-69691377D01*
X131691498Y-69692147D01*
X131691024Y-69769721D01*
X131691408Y-69771065D01*
X131691500Y-69772410D01*
X131691500Y-86691377D01*
X131691498Y-86692147D01*
X131691024Y-86769721D01*
X131693491Y-86778352D01*
X131699150Y-86798153D01*
X131702728Y-86814915D01*
X131706920Y-86844187D01*
X131710634Y-86852355D01*
X131710634Y-86852356D01*
X131717548Y-86867562D01*
X131723996Y-86885086D01*
X131731051Y-86909771D01*
X131735843Y-86917365D01*
X131735844Y-86917368D01*
X131746830Y-86934780D01*
X131754969Y-86949863D01*
X131767208Y-86976782D01*
X131773069Y-86983584D01*
X131783970Y-86996235D01*
X131795073Y-87011239D01*
X131808776Y-87032958D01*
X131815501Y-87038897D01*
X131815504Y-87038901D01*
X131830938Y-87052532D01*
X131842982Y-87064724D01*
X131856427Y-87080327D01*
X131856430Y-87080329D01*
X131862287Y-87087127D01*
X131869816Y-87092007D01*
X131869817Y-87092008D01*
X131883835Y-87101094D01*
X131898709Y-87112385D01*
X131909597Y-87122000D01*
X131917951Y-87129378D01*
X131944711Y-87141942D01*
X131959691Y-87150263D01*
X131976983Y-87161471D01*
X131976988Y-87161473D01*
X131984515Y-87166352D01*
X131993108Y-87168922D01*
X131993113Y-87168924D01*
X132009120Y-87173711D01*
X132026564Y-87180372D01*
X132041676Y-87187467D01*
X132041678Y-87187468D01*
X132049800Y-87191281D01*
X132058667Y-87192662D01*
X132058668Y-87192662D01*
X132068310Y-87194163D01*
X132079017Y-87195830D01*
X132095732Y-87199613D01*
X132115466Y-87205515D01*
X132115472Y-87205516D01*
X132124066Y-87208086D01*
X132133037Y-87208141D01*
X132133038Y-87208141D01*
X132143097Y-87208202D01*
X132158506Y-87208296D01*
X132159289Y-87208329D01*
X132160386Y-87208500D01*
X132191377Y-87208500D01*
X132192147Y-87208502D01*
X132265785Y-87208952D01*
X132265786Y-87208952D01*
X132269721Y-87208976D01*
X132271065Y-87208592D01*
X132272410Y-87208500D01*
X136265500Y-87208500D01*
X136333621Y-87228502D01*
X136380114Y-87282158D01*
X136391500Y-87334500D01*
X136391500Y-104365500D01*
X136371498Y-104433621D01*
X136317842Y-104480114D01*
X136265500Y-104491500D01*
X106034500Y-104491500D01*
X105966379Y-104471498D01*
X105919886Y-104417842D01*
X105908500Y-104365500D01*
X105908500Y-100859356D01*
X108104601Y-100859356D01*
X108111059Y-100868716D01*
X108127361Y-100883012D01*
X108133901Y-100888030D01*
X108373144Y-101047887D01*
X108380281Y-101052008D01*
X108638349Y-101179272D01*
X108645953Y-101182422D01*
X108918420Y-101274912D01*
X108926383Y-101277046D01*
X109208600Y-101333183D01*
X109216751Y-101334256D01*
X109503881Y-101353075D01*
X109512119Y-101353075D01*
X109799249Y-101334256D01*
X109807400Y-101333183D01*
X110089617Y-101277046D01*
X110097580Y-101274912D01*
X110370047Y-101182422D01*
X110377651Y-101179272D01*
X110635719Y-101052008D01*
X110642856Y-101047887D01*
X110882099Y-100888030D01*
X110888639Y-100883012D01*
X110903074Y-100870353D01*
X110910050Y-100859356D01*
X121244601Y-100859356D01*
X121251059Y-100868716D01*
X121267361Y-100883012D01*
X121273901Y-100888030D01*
X121513144Y-101047887D01*
X121520281Y-101052008D01*
X121778349Y-101179272D01*
X121785953Y-101182422D01*
X122058420Y-101274912D01*
X122066383Y-101277046D01*
X122348600Y-101333183D01*
X122356751Y-101334256D01*
X122643881Y-101353075D01*
X122652119Y-101353075D01*
X122939249Y-101334256D01*
X122947400Y-101333183D01*
X123229617Y-101277046D01*
X123237580Y-101274912D01*
X123510047Y-101182422D01*
X123517651Y-101179272D01*
X123775719Y-101052008D01*
X123782856Y-101047887D01*
X124022099Y-100888030D01*
X124028639Y-100883012D01*
X124043074Y-100870353D01*
X124051472Y-100857114D01*
X124045638Y-100847349D01*
X122660810Y-99462520D01*
X122646869Y-99454908D01*
X122645034Y-99455039D01*
X122638420Y-99459290D01*
X121252116Y-100845595D01*
X121244601Y-100859356D01*
X110910050Y-100859356D01*
X110911472Y-100857114D01*
X110905638Y-100847349D01*
X109520810Y-99462520D01*
X109506869Y-99454908D01*
X109505034Y-99455039D01*
X109498420Y-99459290D01*
X108112116Y-100845595D01*
X108104601Y-100859356D01*
X105908500Y-100859356D01*
X105908500Y-99094619D01*
X107245425Y-99094619D01*
X107264244Y-99381749D01*
X107265317Y-99389900D01*
X107321454Y-99672117D01*
X107323588Y-99680080D01*
X107416078Y-99952547D01*
X107419228Y-99960151D01*
X107546492Y-100218218D01*
X107550613Y-100225355D01*
X107710470Y-100464599D01*
X107715488Y-100471139D01*
X107728147Y-100485574D01*
X107741386Y-100493972D01*
X107751151Y-100488138D01*
X109135980Y-99103310D01*
X109142357Y-99091631D01*
X109872408Y-99091631D01*
X109872539Y-99093466D01*
X109876790Y-99100080D01*
X111263095Y-100486384D01*
X111276856Y-100493899D01*
X111286216Y-100487441D01*
X111300512Y-100471139D01*
X111305530Y-100464599D01*
X111465387Y-100225355D01*
X111469508Y-100218218D01*
X111596772Y-99960151D01*
X111599922Y-99952547D01*
X111692412Y-99680080D01*
X111694546Y-99672117D01*
X111750683Y-99389900D01*
X111751756Y-99381749D01*
X111770575Y-99094619D01*
X120385425Y-99094619D01*
X120404244Y-99381749D01*
X120405317Y-99389900D01*
X120461454Y-99672117D01*
X120463588Y-99680080D01*
X120556078Y-99952547D01*
X120559228Y-99960151D01*
X120686492Y-100218218D01*
X120690613Y-100225355D01*
X120850470Y-100464599D01*
X120855488Y-100471139D01*
X120868147Y-100485574D01*
X120881386Y-100493972D01*
X120891151Y-100488138D01*
X122275980Y-99103310D01*
X122282357Y-99091631D01*
X123012408Y-99091631D01*
X123012539Y-99093466D01*
X123016790Y-99100080D01*
X124403095Y-100486384D01*
X124416856Y-100493899D01*
X124426216Y-100487441D01*
X124440512Y-100471139D01*
X124445530Y-100464599D01*
X124605387Y-100225355D01*
X124609508Y-100218218D01*
X124736772Y-99960151D01*
X124739922Y-99952547D01*
X124832412Y-99680080D01*
X124834546Y-99672117D01*
X124890683Y-99389900D01*
X124891756Y-99381749D01*
X124910575Y-99094619D01*
X124910575Y-99086381D01*
X124891756Y-98799251D01*
X124890683Y-98791100D01*
X124834546Y-98508883D01*
X124832412Y-98500920D01*
X124739922Y-98228453D01*
X124736772Y-98220849D01*
X124609508Y-97962782D01*
X124605387Y-97955645D01*
X124445530Y-97716401D01*
X124440512Y-97709861D01*
X124427853Y-97695426D01*
X124414614Y-97687028D01*
X124404849Y-97692862D01*
X123020020Y-99077690D01*
X123012408Y-99091631D01*
X122282357Y-99091631D01*
X122283592Y-99089369D01*
X122283461Y-99087534D01*
X122279210Y-99080920D01*
X120892905Y-97694616D01*
X120879144Y-97687101D01*
X120869784Y-97693559D01*
X120855488Y-97709861D01*
X120850470Y-97716401D01*
X120690613Y-97955645D01*
X120686492Y-97962782D01*
X120559228Y-98220849D01*
X120556078Y-98228453D01*
X120463588Y-98500920D01*
X120461454Y-98508883D01*
X120405317Y-98791100D01*
X120404244Y-98799251D01*
X120385425Y-99086381D01*
X120385425Y-99094619D01*
X111770575Y-99094619D01*
X111770575Y-99086381D01*
X111751756Y-98799251D01*
X111750683Y-98791100D01*
X111694546Y-98508883D01*
X111692412Y-98500920D01*
X111599922Y-98228453D01*
X111596772Y-98220849D01*
X111469508Y-97962782D01*
X111465387Y-97955645D01*
X111305530Y-97716401D01*
X111300518Y-97709869D01*
X111287850Y-97695424D01*
X111274614Y-97687028D01*
X111264849Y-97692862D01*
X109880020Y-99077690D01*
X109872408Y-99091631D01*
X109142357Y-99091631D01*
X109143592Y-99089369D01*
X109143461Y-99087534D01*
X109139210Y-99080920D01*
X107752905Y-97694616D01*
X107739144Y-97687101D01*
X107729784Y-97693559D01*
X107715488Y-97709861D01*
X107710470Y-97716401D01*
X107550613Y-97955645D01*
X107546492Y-97962782D01*
X107419228Y-98220849D01*
X107416078Y-98228453D01*
X107323588Y-98500920D01*
X107321454Y-98508883D01*
X107265317Y-98791100D01*
X107264244Y-98799251D01*
X107245425Y-99086381D01*
X107245425Y-99094619D01*
X105908500Y-99094619D01*
X105908500Y-97323886D01*
X108104528Y-97323886D01*
X108110362Y-97333651D01*
X109495190Y-98718480D01*
X109509131Y-98726092D01*
X109510966Y-98725961D01*
X109517580Y-98721710D01*
X110903884Y-97335405D01*
X110911399Y-97321644D01*
X110904941Y-97312284D01*
X110888639Y-97297988D01*
X110882099Y-97292970D01*
X110642856Y-97133113D01*
X110635719Y-97128992D01*
X110377651Y-97001728D01*
X110370047Y-96998578D01*
X110097580Y-96906088D01*
X110089617Y-96903954D01*
X109807400Y-96847817D01*
X109799249Y-96846744D01*
X109512119Y-96827925D01*
X109503881Y-96827925D01*
X109216751Y-96846744D01*
X109208600Y-96847817D01*
X108926383Y-96903954D01*
X108918420Y-96906088D01*
X108645953Y-96998578D01*
X108638349Y-97001728D01*
X108380282Y-97128992D01*
X108373145Y-97133113D01*
X108133901Y-97292970D01*
X108127361Y-97297988D01*
X108112926Y-97310647D01*
X108104528Y-97323886D01*
X105908500Y-97323886D01*
X105908500Y-80426410D01*
X108230965Y-80426410D01*
X108248812Y-80653179D01*
X108250355Y-80662926D01*
X108303457Y-80884107D01*
X108306506Y-80893492D01*
X108393553Y-81103643D01*
X108398035Y-81112438D01*
X108516883Y-81306379D01*
X108522683Y-81314363D01*
X108528859Y-81321594D01*
X108557891Y-81386384D01*
X108547287Y-81456584D01*
X108501063Y-81509168D01*
X108496535Y-81510865D01*
X108379979Y-81598219D01*
X108292625Y-81714775D01*
X108241495Y-81851164D01*
X108234740Y-81913346D01*
X108234740Y-84009614D01*
X108241495Y-84071796D01*
X108292625Y-84208185D01*
X108379979Y-84324741D01*
X108496535Y-84412095D01*
X108632924Y-84463225D01*
X108695106Y-84469980D01*
X110791374Y-84469980D01*
X110853556Y-84463225D01*
X110989945Y-84412095D01*
X111106501Y-84324741D01*
X111193855Y-84208185D01*
X111244985Y-84071796D01*
X111251740Y-84009614D01*
X111251740Y-83624500D01*
X111271742Y-83556379D01*
X111325398Y-83509886D01*
X111377740Y-83498500D01*
X112451088Y-83498500D01*
X112459658Y-83498792D01*
X112509776Y-83502209D01*
X112509780Y-83502209D01*
X112517352Y-83502725D01*
X112524829Y-83501420D01*
X112524830Y-83501420D01*
X112551308Y-83496799D01*
X112580303Y-83491738D01*
X112586821Y-83490777D01*
X112650242Y-83483102D01*
X112657343Y-83480419D01*
X112659952Y-83479778D01*
X112676262Y-83475315D01*
X112678798Y-83474550D01*
X112686284Y-83473243D01*
X112744800Y-83447556D01*
X112750904Y-83445065D01*
X112803548Y-83425173D01*
X112803549Y-83425172D01*
X112810656Y-83422487D01*
X112816919Y-83418183D01*
X112819285Y-83416946D01*
X112834097Y-83408701D01*
X112836351Y-83407368D01*
X112843305Y-83404315D01*
X112894002Y-83365413D01*
X112899332Y-83361541D01*
X112945720Y-83329661D01*
X112945725Y-83329656D01*
X112951981Y-83325357D01*
X112993436Y-83278829D01*
X112998416Y-83273554D01*
X113186405Y-83085565D01*
X113248717Y-83051539D01*
X113319532Y-83056604D01*
X113376368Y-83099151D01*
X113401179Y-83165671D01*
X113401500Y-83174660D01*
X113401500Y-94502840D01*
X113381498Y-94570961D01*
X113364595Y-94591935D01*
X112883435Y-95073095D01*
X112821123Y-95107121D01*
X112794340Y-95110000D01*
X111767866Y-95110000D01*
X111705684Y-95116755D01*
X111569295Y-95167885D01*
X111452739Y-95255239D01*
X111365385Y-95371795D01*
X111314255Y-95508184D01*
X111307500Y-95570366D01*
X111307500Y-97190634D01*
X111314255Y-97252816D01*
X111365385Y-97389205D01*
X111452739Y-97505761D01*
X111456992Y-97508949D01*
X111456993Y-97508950D01*
X111550381Y-97578940D01*
X111569295Y-97593115D01*
X111705684Y-97644245D01*
X111767866Y-97651000D01*
X113388134Y-97651000D01*
X113450316Y-97644245D01*
X113586705Y-97593115D01*
X113703261Y-97505761D01*
X113790615Y-97389205D01*
X113841745Y-97252816D01*
X113845306Y-97220038D01*
X113872549Y-97154476D01*
X113930912Y-97114050D01*
X114001866Y-97111596D01*
X114062884Y-97147892D01*
X114073777Y-97161369D01*
X114101023Y-97200281D01*
X114258219Y-97357477D01*
X114262727Y-97360634D01*
X114262730Y-97360636D01*
X114291523Y-97380797D01*
X114440323Y-97484988D01*
X114445305Y-97487311D01*
X114445310Y-97487314D01*
X114635810Y-97576145D01*
X114641804Y-97578940D01*
X114647112Y-97580362D01*
X114647114Y-97580363D01*
X114694705Y-97593115D01*
X114856537Y-97636478D01*
X115078000Y-97655853D01*
X115299463Y-97636478D01*
X115461295Y-97593115D01*
X115508886Y-97580363D01*
X115508888Y-97580362D01*
X115514196Y-97578940D01*
X115520190Y-97576145D01*
X115710690Y-97487314D01*
X115710695Y-97487311D01*
X115715677Y-97484988D01*
X115864477Y-97380797D01*
X115893270Y-97360636D01*
X115893273Y-97360634D01*
X115897781Y-97357477D01*
X115988905Y-97266353D01*
X116051217Y-97232327D01*
X116122032Y-97237392D01*
X116167095Y-97266353D01*
X116258219Y-97357477D01*
X116262727Y-97360634D01*
X116262730Y-97360636D01*
X116291523Y-97380797D01*
X116440323Y-97484988D01*
X116445305Y-97487311D01*
X116445310Y-97487314D01*
X116635810Y-97576145D01*
X116641804Y-97578940D01*
X116647112Y-97580362D01*
X116647114Y-97580363D01*
X116694705Y-97593115D01*
X116856537Y-97636478D01*
X117078000Y-97655853D01*
X117299463Y-97636478D01*
X117461295Y-97593115D01*
X117508886Y-97580363D01*
X117508888Y-97580362D01*
X117514196Y-97578940D01*
X117520190Y-97576145D01*
X117710690Y-97487314D01*
X117710695Y-97487311D01*
X117715677Y-97484988D01*
X117780959Y-97439277D01*
X118883777Y-97439277D01*
X118893074Y-97451293D01*
X118936069Y-97481398D01*
X118945555Y-97486876D01*
X119136993Y-97576145D01*
X119147285Y-97579891D01*
X119351309Y-97634559D01*
X119362104Y-97636462D01*
X119572525Y-97654872D01*
X119583475Y-97654872D01*
X119793896Y-97636462D01*
X119804691Y-97634559D01*
X120008715Y-97579891D01*
X120019007Y-97576145D01*
X120210445Y-97486876D01*
X120219931Y-97481398D01*
X120263764Y-97450707D01*
X120272139Y-97440229D01*
X120265071Y-97426781D01*
X120162176Y-97323886D01*
X121244528Y-97323886D01*
X121250362Y-97333651D01*
X122635190Y-98718480D01*
X122649131Y-98726092D01*
X122650966Y-98725961D01*
X122657580Y-98721710D01*
X124043884Y-97335405D01*
X124051399Y-97321644D01*
X124044941Y-97312284D01*
X124028639Y-97297988D01*
X124022099Y-97292970D01*
X123782856Y-97133113D01*
X123775719Y-97128992D01*
X123517651Y-97001728D01*
X123510047Y-96998578D01*
X123237580Y-96906088D01*
X123229617Y-96903954D01*
X122947400Y-96847817D01*
X122939249Y-96846744D01*
X122652119Y-96827925D01*
X122643881Y-96827925D01*
X122356751Y-96846744D01*
X122348600Y-96847817D01*
X122066383Y-96903954D01*
X122058420Y-96906088D01*
X121785953Y-96998578D01*
X121778349Y-97001728D01*
X121520282Y-97128992D01*
X121513145Y-97133113D01*
X121273901Y-97292970D01*
X121267361Y-97297988D01*
X121252926Y-97310647D01*
X121244528Y-97323886D01*
X120162176Y-97323886D01*
X119590812Y-96752522D01*
X119576868Y-96744908D01*
X119575035Y-96745039D01*
X119568420Y-96749290D01*
X118890207Y-97427503D01*
X118883777Y-97439277D01*
X117780959Y-97439277D01*
X117864477Y-97380797D01*
X117893270Y-97360636D01*
X117893273Y-97360634D01*
X117897781Y-97357477D01*
X118054977Y-97200281D01*
X118059354Y-97194031D01*
X118179331Y-97022685D01*
X118179332Y-97022683D01*
X118182488Y-97018176D01*
X118184811Y-97013194D01*
X118184814Y-97013189D01*
X118214081Y-96950425D01*
X118260999Y-96897140D01*
X118329276Y-96877679D01*
X118397236Y-96898221D01*
X118442471Y-96950425D01*
X118471623Y-97012941D01*
X118477103Y-97022432D01*
X118507794Y-97066265D01*
X118518271Y-97074640D01*
X118531718Y-97067572D01*
X119205978Y-96393312D01*
X119212356Y-96381632D01*
X119942408Y-96381632D01*
X119942539Y-96383465D01*
X119946790Y-96390080D01*
X120625003Y-97068293D01*
X120636777Y-97074723D01*
X120648793Y-97065426D01*
X120678897Y-97022432D01*
X120684377Y-97012941D01*
X120773645Y-96821507D01*
X120777391Y-96811215D01*
X120832059Y-96607191D01*
X120833962Y-96596396D01*
X120852372Y-96385975D01*
X120852372Y-96375025D01*
X120833962Y-96164604D01*
X120832059Y-96153809D01*
X120777391Y-95949785D01*
X120773645Y-95939493D01*
X120684377Y-95748059D01*
X120678897Y-95738568D01*
X120648206Y-95694735D01*
X120637729Y-95686360D01*
X120624282Y-95693428D01*
X119950022Y-96367688D01*
X119942408Y-96381632D01*
X119212356Y-96381632D01*
X119213592Y-96379368D01*
X119213461Y-96377535D01*
X119209210Y-96370920D01*
X118530997Y-95692707D01*
X118519223Y-95686277D01*
X118507207Y-95695574D01*
X118477103Y-95738568D01*
X118471623Y-95748059D01*
X118442471Y-95810575D01*
X118395553Y-95863860D01*
X118327276Y-95883321D01*
X118259316Y-95862779D01*
X118214081Y-95810575D01*
X118184814Y-95747811D01*
X118184811Y-95747806D01*
X118182488Y-95742824D01*
X118179331Y-95738315D01*
X118058136Y-95565230D01*
X118058134Y-95565227D01*
X118054977Y-95560719D01*
X117897781Y-95403523D01*
X117893273Y-95400366D01*
X117893270Y-95400364D01*
X117817505Y-95347313D01*
X117779599Y-95320771D01*
X118883860Y-95320771D01*
X118890928Y-95334218D01*
X119565188Y-96008478D01*
X119579132Y-96016092D01*
X119580965Y-96015961D01*
X119587580Y-96011710D01*
X120265793Y-95333497D01*
X120272223Y-95321723D01*
X120262926Y-95309707D01*
X120219931Y-95279602D01*
X120210445Y-95274124D01*
X120019007Y-95184855D01*
X120008715Y-95181109D01*
X119804691Y-95126441D01*
X119793896Y-95124538D01*
X119583475Y-95106128D01*
X119572525Y-95106128D01*
X119362104Y-95124538D01*
X119351309Y-95126441D01*
X119147285Y-95181109D01*
X119136993Y-95184855D01*
X118945559Y-95274123D01*
X118936068Y-95279603D01*
X118892235Y-95310294D01*
X118883860Y-95320771D01*
X117779599Y-95320771D01*
X117715677Y-95276012D01*
X117710695Y-95273689D01*
X117710690Y-95273686D01*
X117519178Y-95184383D01*
X117519177Y-95184382D01*
X117514196Y-95182060D01*
X117508888Y-95180638D01*
X117508886Y-95180637D01*
X117436667Y-95161286D01*
X117299463Y-95124522D01*
X117078000Y-95105147D01*
X116856537Y-95124522D01*
X116789601Y-95142458D01*
X116718624Y-95140768D01*
X116667895Y-95109846D01*
X116135405Y-94577356D01*
X116101379Y-94515044D01*
X116098500Y-94488261D01*
X116098500Y-92456000D01*
X124054496Y-92456000D01*
X124074458Y-92645928D01*
X124133473Y-92827556D01*
X124228960Y-92992944D01*
X124233378Y-92997851D01*
X124233379Y-92997852D01*
X124341473Y-93117903D01*
X124356747Y-93134866D01*
X124511248Y-93247118D01*
X124517276Y-93249802D01*
X124517278Y-93249803D01*
X124633972Y-93301758D01*
X124685712Y-93324794D01*
X124822411Y-93353850D01*
X124838569Y-93357285D01*
X124901467Y-93391437D01*
X125238595Y-93728565D01*
X125272621Y-93790877D01*
X125275500Y-93817660D01*
X125275500Y-100473256D01*
X125255498Y-100541377D01*
X125251436Y-100547317D01*
X125249379Y-100550148D01*
X125244960Y-100555056D01*
X125149473Y-100720444D01*
X125090458Y-100902072D01*
X125070496Y-101092000D01*
X125071186Y-101098565D01*
X125089721Y-101274912D01*
X125090458Y-101281928D01*
X125149473Y-101463556D01*
X125244960Y-101628944D01*
X125372747Y-101770866D01*
X125527248Y-101883118D01*
X125533276Y-101885802D01*
X125533278Y-101885803D01*
X125695681Y-101958109D01*
X125701712Y-101960794D01*
X125795113Y-101980647D01*
X125882056Y-101999128D01*
X125882061Y-101999128D01*
X125888513Y-102000500D01*
X126079487Y-102000500D01*
X126085939Y-101999128D01*
X126085944Y-101999128D01*
X126172887Y-101980647D01*
X126266288Y-101960794D01*
X126272319Y-101958109D01*
X126434722Y-101885803D01*
X126434724Y-101885802D01*
X126440752Y-101883118D01*
X126595253Y-101770866D01*
X126723040Y-101628944D01*
X126818527Y-101463556D01*
X126877542Y-101281928D01*
X126878280Y-101274912D01*
X126896814Y-101098565D01*
X126897504Y-101092000D01*
X126877542Y-100902072D01*
X126818527Y-100720444D01*
X126723040Y-100555056D01*
X126718621Y-100550148D01*
X126716564Y-100547317D01*
X126692705Y-100480449D01*
X126692500Y-100473256D01*
X126692500Y-93500912D01*
X126692792Y-93492342D01*
X126696209Y-93442224D01*
X126696209Y-93442220D01*
X126696725Y-93434648D01*
X126685738Y-93371697D01*
X126684776Y-93365175D01*
X126683821Y-93357285D01*
X126677102Y-93301758D01*
X126674419Y-93294657D01*
X126673778Y-93292048D01*
X126669315Y-93275738D01*
X126668550Y-93273202D01*
X126667243Y-93265716D01*
X126641556Y-93207200D01*
X126639065Y-93201096D01*
X126619173Y-93148452D01*
X126619172Y-93148451D01*
X126616487Y-93141344D01*
X126612183Y-93135081D01*
X126610946Y-93132715D01*
X126602701Y-93117903D01*
X126601368Y-93115649D01*
X126598315Y-93108695D01*
X126559413Y-93057998D01*
X126555541Y-93052668D01*
X126523661Y-93006280D01*
X126523656Y-93006275D01*
X126519357Y-93000019D01*
X126511417Y-92992944D01*
X126472830Y-92958565D01*
X126467554Y-92953584D01*
X125902665Y-92388695D01*
X125868639Y-92326383D01*
X125866450Y-92312770D01*
X125862232Y-92272637D01*
X125862232Y-92272635D01*
X125861542Y-92266072D01*
X125802527Y-92084444D01*
X125707040Y-91919056D01*
X125579253Y-91777134D01*
X125424752Y-91664882D01*
X125418724Y-91662198D01*
X125418722Y-91662197D01*
X125256319Y-91589891D01*
X125256318Y-91589891D01*
X125250288Y-91587206D01*
X125156887Y-91567353D01*
X125069944Y-91548872D01*
X125069939Y-91548872D01*
X125063487Y-91547500D01*
X124872513Y-91547500D01*
X124866061Y-91548872D01*
X124866056Y-91548872D01*
X124779113Y-91567353D01*
X124685712Y-91587206D01*
X124679682Y-91589891D01*
X124679681Y-91589891D01*
X124517278Y-91662197D01*
X124517276Y-91662198D01*
X124511248Y-91664882D01*
X124356747Y-91777134D01*
X124228960Y-91919056D01*
X124133473Y-92084444D01*
X124074458Y-92266072D01*
X124054496Y-92456000D01*
X116098500Y-92456000D01*
X116098500Y-86614000D01*
X118720496Y-86614000D01*
X118721186Y-86620565D01*
X118730395Y-86708180D01*
X118740458Y-86803928D01*
X118799473Y-86985556D01*
X118802776Y-86991278D01*
X118802777Y-86991279D01*
X118814307Y-87011249D01*
X118894960Y-87150944D01*
X118899378Y-87155851D01*
X118899379Y-87155852D01*
X119002367Y-87270232D01*
X119022747Y-87292866D01*
X119067554Y-87325420D01*
X119146207Y-87382565D01*
X119177248Y-87405118D01*
X119183276Y-87407802D01*
X119183278Y-87407803D01*
X119345681Y-87480109D01*
X119351712Y-87482794D01*
X119445112Y-87502647D01*
X119532056Y-87521128D01*
X119532061Y-87521128D01*
X119538513Y-87522500D01*
X119729487Y-87522500D01*
X119735939Y-87521128D01*
X119735944Y-87521128D01*
X119822888Y-87502647D01*
X119916288Y-87482794D01*
X119922319Y-87480109D01*
X120084722Y-87407803D01*
X120084724Y-87407802D01*
X120090752Y-87405118D01*
X120171344Y-87346564D01*
X120238211Y-87322706D01*
X120245405Y-87322500D01*
X123357088Y-87322500D01*
X123365658Y-87322792D01*
X123415776Y-87326209D01*
X123415780Y-87326209D01*
X123423352Y-87326725D01*
X123430829Y-87325420D01*
X123430830Y-87325420D01*
X123472164Y-87318206D01*
X123486303Y-87315738D01*
X123492821Y-87314777D01*
X123556242Y-87307102D01*
X123563343Y-87304419D01*
X123565952Y-87303778D01*
X123582262Y-87299315D01*
X123584798Y-87298550D01*
X123592284Y-87297243D01*
X123650800Y-87271556D01*
X123656904Y-87269065D01*
X123709548Y-87249173D01*
X123709549Y-87249172D01*
X123716656Y-87246487D01*
X123722919Y-87242183D01*
X123725285Y-87240946D01*
X123740097Y-87232701D01*
X123742351Y-87231368D01*
X123749305Y-87228315D01*
X123800002Y-87189413D01*
X123805332Y-87185541D01*
X123851720Y-87153661D01*
X123851725Y-87153656D01*
X123857981Y-87149357D01*
X123899427Y-87102839D01*
X123904408Y-87097562D01*
X124336405Y-86665566D01*
X124398717Y-86631541D01*
X124469533Y-86636606D01*
X124526368Y-86679153D01*
X124551179Y-86745673D01*
X124551500Y-86754662D01*
X124551500Y-87163594D01*
X124551208Y-87172155D01*
X124550920Y-87176392D01*
X124550676Y-87179968D01*
X124549825Y-87186058D01*
X124549958Y-87186072D01*
X124529996Y-87376000D01*
X124530686Y-87382565D01*
X124545394Y-87522500D01*
X124549958Y-87565928D01*
X124608973Y-87747556D01*
X124612276Y-87753278D01*
X124612277Y-87753279D01*
X124634104Y-87791084D01*
X124704460Y-87912944D01*
X124832247Y-88054866D01*
X124986748Y-88167118D01*
X124992776Y-88169802D01*
X124992778Y-88169803D01*
X125065256Y-88202072D01*
X125161212Y-88244794D01*
X125254612Y-88264647D01*
X125341556Y-88283128D01*
X125341561Y-88283128D01*
X125348013Y-88284500D01*
X125538987Y-88284500D01*
X125545439Y-88283128D01*
X125545444Y-88283128D01*
X125632388Y-88264647D01*
X125725788Y-88244794D01*
X125821744Y-88202072D01*
X125894222Y-88169803D01*
X125894224Y-88169802D01*
X125900252Y-88167118D01*
X126054753Y-88054866D01*
X126182540Y-87912944D01*
X126219095Y-87849629D01*
X126270476Y-87800637D01*
X126340190Y-87787200D01*
X126402274Y-87810694D01*
X126456578Y-87850148D01*
X126543248Y-87913118D01*
X126549276Y-87915802D01*
X126549278Y-87915803D01*
X126711681Y-87988109D01*
X126717712Y-87990794D01*
X126811113Y-88010647D01*
X126898056Y-88029128D01*
X126898061Y-88029128D01*
X126904513Y-88030500D01*
X127095487Y-88030500D01*
X127101939Y-88029128D01*
X127101944Y-88029128D01*
X127188887Y-88010647D01*
X127282288Y-87990794D01*
X127288319Y-87988109D01*
X127450722Y-87915803D01*
X127450724Y-87915802D01*
X127456752Y-87913118D01*
X127528797Y-87860774D01*
X127605909Y-87804749D01*
X127605911Y-87804747D01*
X127611253Y-87800866D01*
X127615675Y-87795955D01*
X127615760Y-87795861D01*
X127615823Y-87795822D01*
X127620580Y-87791539D01*
X127621364Y-87792409D01*
X127676209Y-87758626D01*
X127747193Y-87759983D01*
X127798485Y-87791084D01*
X128879921Y-88872520D01*
X128885775Y-88878785D01*
X128923810Y-88922385D01*
X128930024Y-88926752D01*
X128976090Y-88959128D01*
X128981385Y-88963061D01*
X129031653Y-89002476D01*
X129038569Y-89005599D01*
X129040855Y-89006983D01*
X129055536Y-89015357D01*
X129057896Y-89016622D01*
X129064110Y-89020990D01*
X129071189Y-89023750D01*
X129071191Y-89023751D01*
X129123646Y-89044202D01*
X129129715Y-89046753D01*
X129187944Y-89073045D01*
X129195411Y-89074429D01*
X129197966Y-89075230D01*
X129214219Y-89079859D01*
X129216799Y-89080522D01*
X129223880Y-89083282D01*
X129231411Y-89084273D01*
X129231413Y-89084274D01*
X129261032Y-89088173D01*
X129287232Y-89091622D01*
X129293730Y-89092652D01*
X129356557Y-89104296D01*
X129364137Y-89103859D01*
X129364138Y-89103859D01*
X129418763Y-89100709D01*
X129426017Y-89100500D01*
X133500595Y-89100500D01*
X133568716Y-89120502D01*
X133574656Y-89124564D01*
X133605561Y-89147018D01*
X133648915Y-89203241D01*
X133657500Y-89248954D01*
X133657500Y-100219256D01*
X133637498Y-100287377D01*
X133633436Y-100293317D01*
X133631379Y-100296148D01*
X133626960Y-100301056D01*
X133531473Y-100466444D01*
X133472458Y-100648072D01*
X133452496Y-100838000D01*
X133472458Y-101027928D01*
X133531473Y-101209556D01*
X133626960Y-101374944D01*
X133631378Y-101379851D01*
X133631379Y-101379852D01*
X133750325Y-101511955D01*
X133754747Y-101516866D01*
X133909248Y-101629118D01*
X133915276Y-101631802D01*
X133915278Y-101631803D01*
X134077681Y-101704109D01*
X134083712Y-101706794D01*
X134177112Y-101726647D01*
X134264056Y-101745128D01*
X134264061Y-101745128D01*
X134270513Y-101746500D01*
X134461487Y-101746500D01*
X134467939Y-101745128D01*
X134467944Y-101745128D01*
X134554887Y-101726647D01*
X134648288Y-101706794D01*
X134654319Y-101704109D01*
X134816722Y-101631803D01*
X134816724Y-101631802D01*
X134822752Y-101629118D01*
X134977253Y-101516866D01*
X134981675Y-101511955D01*
X135100621Y-101379852D01*
X135100622Y-101379851D01*
X135105040Y-101374944D01*
X135200527Y-101209556D01*
X135259542Y-101027928D01*
X135279504Y-100838000D01*
X135259542Y-100648072D01*
X135200527Y-100466444D01*
X135105040Y-100301056D01*
X135100621Y-100296148D01*
X135098564Y-100293317D01*
X135074705Y-100226449D01*
X135074500Y-100219256D01*
X135074500Y-88674912D01*
X135074792Y-88666342D01*
X135078209Y-88616224D01*
X135078209Y-88616220D01*
X135078725Y-88608648D01*
X135067739Y-88545703D01*
X135066777Y-88539182D01*
X135060015Y-88483304D01*
X135059102Y-88475758D01*
X135056416Y-88468650D01*
X135055779Y-88466056D01*
X135051322Y-88449764D01*
X135050548Y-88447201D01*
X135049242Y-88439716D01*
X135032511Y-88401601D01*
X135022575Y-88364129D01*
X135006232Y-88208635D01*
X135006232Y-88208633D01*
X135005542Y-88202072D01*
X134946527Y-88020444D01*
X134851040Y-87855056D01*
X134846155Y-87849630D01*
X134727675Y-87718045D01*
X134727674Y-87718044D01*
X134723253Y-87713134D01*
X134624157Y-87641136D01*
X134574094Y-87604763D01*
X134574093Y-87604762D01*
X134568752Y-87600882D01*
X134562724Y-87598198D01*
X134562722Y-87598197D01*
X134400319Y-87525891D01*
X134400318Y-87525891D01*
X134394288Y-87523206D01*
X134300887Y-87503353D01*
X134213944Y-87484872D01*
X134213939Y-87484872D01*
X134207487Y-87483500D01*
X134016513Y-87483500D01*
X134010061Y-87484872D01*
X134010056Y-87484872D01*
X133923113Y-87503353D01*
X133829712Y-87523206D01*
X133823682Y-87525891D01*
X133823681Y-87525891D01*
X133661278Y-87598197D01*
X133661276Y-87598198D01*
X133655248Y-87600882D01*
X133649907Y-87604762D01*
X133649906Y-87604763D01*
X133574656Y-87659436D01*
X133507789Y-87683294D01*
X133500595Y-87683500D01*
X131499101Y-87683500D01*
X131430980Y-87663498D01*
X131384487Y-87609842D01*
X131374383Y-87539568D01*
X131386014Y-87505964D01*
X131384539Y-87505307D01*
X131387223Y-87499279D01*
X131390527Y-87493556D01*
X131449542Y-87311928D01*
X131451086Y-87297243D01*
X131468814Y-87128565D01*
X131469504Y-87122000D01*
X131467205Y-87100124D01*
X131450232Y-86938635D01*
X131450232Y-86938633D01*
X131449542Y-86932072D01*
X131390527Y-86750444D01*
X131295040Y-86585056D01*
X131239989Y-86523915D01*
X131171675Y-86448045D01*
X131171674Y-86448044D01*
X131167253Y-86443134D01*
X131012752Y-86330882D01*
X131006724Y-86328198D01*
X131006722Y-86328197D01*
X130844319Y-86255891D01*
X130844318Y-86255891D01*
X130838288Y-86253206D01*
X130744887Y-86233353D01*
X130657944Y-86214872D01*
X130657939Y-86214872D01*
X130651487Y-86213500D01*
X130460513Y-86213500D01*
X130454061Y-86214872D01*
X130454056Y-86214872D01*
X130367113Y-86233353D01*
X130273712Y-86253206D01*
X130267682Y-86255891D01*
X130267681Y-86255891D01*
X130105278Y-86328197D01*
X130105276Y-86328198D01*
X130099248Y-86330882D01*
X129944747Y-86443134D01*
X129940332Y-86448037D01*
X129935420Y-86452460D01*
X129934295Y-86451211D01*
X129880986Y-86484051D01*
X129847800Y-86488500D01*
X129526595Y-86488500D01*
X129458474Y-86468498D01*
X129437500Y-86451595D01*
X127890405Y-84904500D01*
X127856379Y-84842188D01*
X127853500Y-84815405D01*
X127853500Y-72493899D01*
X127873502Y-72425778D01*
X127890405Y-72404804D01*
X130149253Y-70145957D01*
X130157539Y-70138417D01*
X130164018Y-70134305D01*
X130210644Y-70084653D01*
X130213398Y-70081812D01*
X130233135Y-70062075D01*
X130235615Y-70058878D01*
X130243320Y-70049856D01*
X130268159Y-70023405D01*
X130273586Y-70017626D01*
X130277405Y-70010680D01*
X130277407Y-70010677D01*
X130283348Y-69999871D01*
X130294199Y-69983352D01*
X130301758Y-69973606D01*
X130306614Y-69967346D01*
X130309759Y-69960077D01*
X130309762Y-69960073D01*
X130324174Y-69926768D01*
X130329391Y-69916118D01*
X130350695Y-69877365D01*
X130355733Y-69857742D01*
X130362137Y-69839039D01*
X130367033Y-69827725D01*
X130367033Y-69827724D01*
X130370181Y-69820450D01*
X130371420Y-69812627D01*
X130371423Y-69812617D01*
X130377099Y-69776781D01*
X130379505Y-69765161D01*
X130388528Y-69730016D01*
X130388528Y-69730015D01*
X130390500Y-69722335D01*
X130390500Y-69702081D01*
X130392051Y-69682370D01*
X130393980Y-69670191D01*
X130395220Y-69662362D01*
X130391059Y-69618343D01*
X130390500Y-69606486D01*
X130390500Y-65583072D01*
X130391027Y-65571889D01*
X130392702Y-65564396D01*
X130390562Y-65496319D01*
X130390500Y-65492360D01*
X130390500Y-65464449D01*
X130389995Y-65460449D01*
X130389062Y-65448606D01*
X130387922Y-65412335D01*
X130387673Y-65404416D01*
X130382021Y-65384962D01*
X130378013Y-65365605D01*
X130376468Y-65353375D01*
X130376468Y-65353374D01*
X130375474Y-65345508D01*
X130372555Y-65338135D01*
X130359196Y-65304393D01*
X130355351Y-65293163D01*
X130345229Y-65258322D01*
X130345229Y-65258321D01*
X130343018Y-65250712D01*
X130338985Y-65243893D01*
X130338983Y-65243888D01*
X130332707Y-65233277D01*
X130324012Y-65215529D01*
X130316552Y-65196688D01*
X130290564Y-65160918D01*
X130284048Y-65150998D01*
X130265580Y-65119770D01*
X130265578Y-65119767D01*
X130261542Y-65112943D01*
X130247221Y-65098622D01*
X130234380Y-65083588D01*
X130227131Y-65073611D01*
X130222472Y-65067198D01*
X130188395Y-65039007D01*
X130179616Y-65031017D01*
X129698526Y-64549927D01*
X129664500Y-64487615D01*
X129669565Y-64416800D01*
X129693983Y-64376525D01*
X129771040Y-64290944D01*
X129866527Y-64125556D01*
X129925542Y-63943928D01*
X129945504Y-63754000D01*
X129925542Y-63564072D01*
X129866527Y-63382444D01*
X129771040Y-63217056D01*
X129643253Y-63075134D01*
X129521994Y-62987034D01*
X129494094Y-62966763D01*
X129494093Y-62966762D01*
X129488752Y-62962882D01*
X129482724Y-62960198D01*
X129482722Y-62960197D01*
X129320319Y-62887891D01*
X129320318Y-62887891D01*
X129314288Y-62885206D01*
X129161431Y-62852715D01*
X129098533Y-62818563D01*
X128995405Y-62715435D01*
X128961379Y-62653123D01*
X128958500Y-62626340D01*
X128958500Y-59445660D01*
X128978502Y-59377539D01*
X128995405Y-59356565D01*
X129948565Y-58403405D01*
X130010877Y-58369379D01*
X130037660Y-58366500D01*
X130706595Y-58366500D01*
X130774716Y-58386502D01*
X130780656Y-58390564D01*
X130861248Y-58449118D01*
X130867276Y-58451802D01*
X130867278Y-58451803D01*
X130870371Y-58453180D01*
X131035712Y-58526794D01*
X131129112Y-58546647D01*
X131216056Y-58565128D01*
X131216061Y-58565128D01*
X131222513Y-58566500D01*
X131413487Y-58566500D01*
X131419939Y-58565128D01*
X131419944Y-58565128D01*
X131506888Y-58546647D01*
X131600288Y-58526794D01*
X131765629Y-58453180D01*
X131768722Y-58451803D01*
X131768724Y-58451802D01*
X131774752Y-58449118D01*
X131803735Y-58428061D01*
X131860935Y-58386502D01*
X131929253Y-58336866D01*
X131934373Y-58331180D01*
X132052621Y-58199852D01*
X132052622Y-58199851D01*
X132057040Y-58194944D01*
X132152527Y-58029556D01*
X132211542Y-57847928D01*
X132213216Y-57832006D01*
X132230814Y-57664565D01*
X132231504Y-57658000D01*
X132222573Y-57573023D01*
X132212232Y-57474635D01*
X132212232Y-57474633D01*
X132211542Y-57468072D01*
X132152527Y-57286444D01*
X132057040Y-57121056D01*
X131950684Y-57002935D01*
X131933675Y-56984045D01*
X131933674Y-56984044D01*
X131929253Y-56979134D01*
X131774752Y-56866882D01*
X131768724Y-56864198D01*
X131768722Y-56864197D01*
X131606319Y-56791891D01*
X131606318Y-56791891D01*
X131600288Y-56789206D01*
X131506887Y-56769353D01*
X131419944Y-56750872D01*
X131419939Y-56750872D01*
X131413487Y-56749500D01*
X131222513Y-56749500D01*
X131216061Y-56750872D01*
X131216056Y-56750872D01*
X131129113Y-56769353D01*
X131035712Y-56789206D01*
X131029682Y-56791891D01*
X131029681Y-56791891D01*
X130867278Y-56864197D01*
X130867276Y-56864198D01*
X130861248Y-56866882D01*
X130855907Y-56870762D01*
X130855906Y-56870763D01*
X130780656Y-56925436D01*
X130713789Y-56949294D01*
X130706595Y-56949500D01*
X129720912Y-56949500D01*
X129712342Y-56949208D01*
X129662224Y-56945791D01*
X129662220Y-56945791D01*
X129654648Y-56945275D01*
X129647171Y-56946580D01*
X129647170Y-56946580D01*
X129620692Y-56951201D01*
X129591697Y-56956262D01*
X129585179Y-56957223D01*
X129521758Y-56964898D01*
X129514657Y-56967581D01*
X129512048Y-56968222D01*
X129495738Y-56972685D01*
X129493202Y-56973450D01*
X129485716Y-56974757D01*
X129478759Y-56977811D01*
X129427205Y-57000442D01*
X129421101Y-57002933D01*
X129361344Y-57025513D01*
X129355081Y-57029817D01*
X129352715Y-57031054D01*
X129337903Y-57039299D01*
X129335649Y-57040632D01*
X129328695Y-57043685D01*
X129277998Y-57082587D01*
X129272668Y-57086459D01*
X129226280Y-57118339D01*
X129226275Y-57118344D01*
X129220019Y-57122643D01*
X129214968Y-57128313D01*
X129214966Y-57128314D01*
X129178565Y-57169170D01*
X129173584Y-57174446D01*
X128789891Y-57558139D01*
X128727579Y-57592165D01*
X128656764Y-57587100D01*
X128599928Y-57544553D01*
X128591677Y-57532044D01*
X128586647Y-57523332D01*
X128501040Y-57375056D01*
X128421254Y-57286444D01*
X128377675Y-57238045D01*
X128377674Y-57238044D01*
X128373253Y-57233134D01*
X128218752Y-57120882D01*
X128212724Y-57118198D01*
X128212722Y-57118197D01*
X128050319Y-57045891D01*
X128050318Y-57045891D01*
X128044288Y-57043206D01*
X127948413Y-57022827D01*
X127863944Y-57004872D01*
X127863939Y-57004872D01*
X127857487Y-57003500D01*
X127666513Y-57003500D01*
X127660061Y-57004872D01*
X127660056Y-57004872D01*
X127575587Y-57022827D01*
X127479712Y-57043206D01*
X127473682Y-57045891D01*
X127473681Y-57045891D01*
X127311278Y-57118197D01*
X127311276Y-57118198D01*
X127305248Y-57120882D01*
X127150747Y-57233134D01*
X127146326Y-57238044D01*
X127146325Y-57238045D01*
X127102747Y-57286444D01*
X127022960Y-57375056D01*
X127001098Y-57412922D01*
X126931090Y-57534180D01*
X126927473Y-57540444D01*
X126868458Y-57722072D01*
X126867768Y-57728633D01*
X126867768Y-57728635D01*
X126856904Y-57832006D01*
X126848496Y-57912000D01*
X126849186Y-57918565D01*
X126849186Y-57918566D01*
X126866043Y-58078953D01*
X126865887Y-58093970D01*
X126866500Y-58093970D01*
X126866500Y-58114224D01*
X126864949Y-58133934D01*
X126861780Y-58153943D01*
X126862526Y-58161835D01*
X126865941Y-58197961D01*
X126866500Y-58209819D01*
X126866500Y-60633101D01*
X126846498Y-60701222D01*
X126792842Y-60747715D01*
X126722568Y-60757819D01*
X126657988Y-60728325D01*
X126651405Y-60722196D01*
X125990845Y-60061635D01*
X125170405Y-59241195D01*
X125136379Y-59178883D01*
X125133500Y-59152100D01*
X125133500Y-43708594D01*
X125153502Y-43640473D01*
X125170405Y-43619499D01*
X128728499Y-40061405D01*
X128790811Y-40027379D01*
X128817594Y-40024500D01*
X128873487Y-40024500D01*
X128879939Y-40023128D01*
X128879944Y-40023128D01*
X128966887Y-40004647D01*
X129060288Y-39984794D01*
X129066319Y-39982109D01*
X129228722Y-39909803D01*
X129228724Y-39909802D01*
X129234752Y-39907118D01*
X129389253Y-39794866D01*
X129468247Y-39707134D01*
X129512621Y-39657852D01*
X129512622Y-39657851D01*
X129517040Y-39652944D01*
X129612527Y-39487556D01*
X129671542Y-39305928D01*
X129691504Y-39116000D01*
X129671542Y-38926072D01*
X129612527Y-38744444D01*
X129517040Y-38579056D01*
X129389253Y-38437134D01*
X129234752Y-38324882D01*
X129228724Y-38322198D01*
X129228722Y-38322197D01*
X129066319Y-38249891D01*
X129066318Y-38249891D01*
X129060288Y-38247206D01*
X128966887Y-38227353D01*
X128879944Y-38208872D01*
X128879939Y-38208872D01*
X128873487Y-38207500D01*
X128682513Y-38207500D01*
X128676061Y-38208872D01*
X128676056Y-38208872D01*
X128589112Y-38227353D01*
X128495712Y-38247206D01*
X128489682Y-38249891D01*
X128489681Y-38249891D01*
X128327278Y-38322197D01*
X128327276Y-38322198D01*
X128321248Y-38324882D01*
X128166747Y-38437134D01*
X128038960Y-38579056D01*
X127943473Y-38744444D01*
X127884458Y-38926072D01*
X127883768Y-38932633D01*
X127883768Y-38932635D01*
X127867093Y-39091293D01*
X127840080Y-39156950D01*
X127830878Y-39167218D01*
X124683595Y-42314500D01*
X124621283Y-42348526D01*
X124550467Y-42343461D01*
X124493632Y-42300914D01*
X124468821Y-42234394D01*
X124468500Y-42225405D01*
X124468500Y-40730911D01*
X124468792Y-40722342D01*
X124472209Y-40672223D01*
X124472209Y-40672219D01*
X124472725Y-40664647D01*
X124461736Y-40601685D01*
X124460777Y-40595182D01*
X124454015Y-40539302D01*
X124453102Y-40531758D01*
X124450416Y-40524649D01*
X124449784Y-40522078D01*
X124445324Y-40505772D01*
X124444549Y-40503204D01*
X124443242Y-40495716D01*
X124417561Y-40437212D01*
X124415069Y-40431105D01*
X124395173Y-40378452D01*
X124395173Y-40378451D01*
X124392487Y-40371344D01*
X124388184Y-40365083D01*
X124386947Y-40362717D01*
X124378720Y-40347937D01*
X124377369Y-40345652D01*
X124374315Y-40338695D01*
X124369691Y-40332669D01*
X124365823Y-40326128D01*
X124367238Y-40325291D01*
X124345360Y-40270460D01*
X124338232Y-40202635D01*
X124338232Y-40202633D01*
X124337542Y-40196072D01*
X124278527Y-40014444D01*
X124183040Y-39849056D01*
X124137744Y-39798749D01*
X124059675Y-39712045D01*
X124059674Y-39712044D01*
X124055253Y-39707134D01*
X123900752Y-39594882D01*
X123894724Y-39592198D01*
X123894722Y-39592197D01*
X123732319Y-39519891D01*
X123732318Y-39519891D01*
X123726288Y-39517206D01*
X123613721Y-39493279D01*
X123545944Y-39478872D01*
X123545939Y-39478872D01*
X123539487Y-39477500D01*
X123348513Y-39477500D01*
X123342061Y-39478872D01*
X123342056Y-39478872D01*
X123274279Y-39493279D01*
X123161712Y-39517206D01*
X123155682Y-39519891D01*
X123155681Y-39519891D01*
X122993278Y-39592197D01*
X122993276Y-39592198D01*
X122987248Y-39594882D01*
X122832747Y-39707134D01*
X122828326Y-39712044D01*
X122828325Y-39712045D01*
X122750257Y-39798749D01*
X122704960Y-39849056D01*
X122609473Y-40014444D01*
X122550458Y-40196072D01*
X122549768Y-40202633D01*
X122549768Y-40202635D01*
X122533662Y-40355879D01*
X122530496Y-40386000D01*
X122531186Y-40392565D01*
X122545816Y-40531758D01*
X122550458Y-40575928D01*
X122609473Y-40757556D01*
X122704960Y-40922944D01*
X122709378Y-40927851D01*
X122709379Y-40927852D01*
X122799138Y-41027539D01*
X122832747Y-41064866D01*
X122875131Y-41095660D01*
X122981903Y-41173235D01*
X122981906Y-41173236D01*
X122987248Y-41177118D01*
X122989548Y-41178142D01*
X123037494Y-41228427D01*
X123051500Y-41286163D01*
X123051500Y-62481088D01*
X123051208Y-62489658D01*
X123047275Y-62547352D01*
X123048580Y-62554829D01*
X123048580Y-62554830D01*
X123058261Y-62610299D01*
X123059223Y-62616821D01*
X123066898Y-62680242D01*
X123069581Y-62687343D01*
X123070222Y-62689952D01*
X123074685Y-62706262D01*
X123075450Y-62708798D01*
X123076757Y-62716284D01*
X123079811Y-62723241D01*
X123102442Y-62774795D01*
X123104933Y-62780899D01*
X123127513Y-62840656D01*
X123131817Y-62846919D01*
X123133054Y-62849285D01*
X123141299Y-62864097D01*
X123142632Y-62866351D01*
X123145685Y-62873305D01*
X123156879Y-62887892D01*
X123184579Y-62923991D01*
X123188459Y-62929332D01*
X123220339Y-62975720D01*
X123220344Y-62975725D01*
X123224643Y-62981981D01*
X123230313Y-62987032D01*
X123230314Y-62987034D01*
X123271161Y-63023427D01*
X123276438Y-63028408D01*
X123774596Y-63526567D01*
X123808621Y-63588879D01*
X123811500Y-63615662D01*
X123811500Y-85134340D01*
X123791498Y-85202461D01*
X123774595Y-85223435D01*
X123129435Y-85868595D01*
X123067123Y-85902621D01*
X123040340Y-85905500D01*
X120245405Y-85905500D01*
X120177284Y-85885498D01*
X120171344Y-85881436D01*
X120096094Y-85826763D01*
X120096093Y-85826762D01*
X120090752Y-85822882D01*
X120084724Y-85820198D01*
X120084722Y-85820197D01*
X119922319Y-85747891D01*
X119922318Y-85747891D01*
X119916288Y-85745206D01*
X119822888Y-85725353D01*
X119735944Y-85706872D01*
X119735939Y-85706872D01*
X119729487Y-85705500D01*
X119538513Y-85705500D01*
X119532061Y-85706872D01*
X119532056Y-85706872D01*
X119445112Y-85725353D01*
X119351712Y-85745206D01*
X119345682Y-85747891D01*
X119345681Y-85747891D01*
X119183278Y-85820197D01*
X119183276Y-85820198D01*
X119177248Y-85822882D01*
X119022747Y-85935134D01*
X118894960Y-86077056D01*
X118799473Y-86242444D01*
X118740458Y-86424072D01*
X118739768Y-86430633D01*
X118739768Y-86430635D01*
X118737565Y-86451595D01*
X118720496Y-86614000D01*
X116098500Y-86614000D01*
X116098500Y-80051190D01*
X116118502Y-79983069D01*
X116150436Y-79949256D01*
X116181253Y-79926866D01*
X116309040Y-79784944D01*
X116404527Y-79619556D01*
X116463542Y-79437928D01*
X116483504Y-79248000D01*
X116463542Y-79058072D01*
X116404527Y-78876444D01*
X116362124Y-78803000D01*
X116345386Y-78734005D01*
X116362124Y-78677000D01*
X116401223Y-78609279D01*
X116401224Y-78609278D01*
X116404527Y-78603556D01*
X116463542Y-78421928D01*
X116483504Y-78232000D01*
X116463542Y-78042072D01*
X116404527Y-77860444D01*
X116309040Y-77695056D01*
X116181253Y-77553134D01*
X116026752Y-77440882D01*
X116020724Y-77438198D01*
X116020722Y-77438197D01*
X115907124Y-77387620D01*
X115853028Y-77341640D01*
X115832379Y-77273712D01*
X115833063Y-77259343D01*
X115842814Y-77166565D01*
X115843504Y-77160000D01*
X115823542Y-76970072D01*
X115817422Y-76951237D01*
X115815396Y-76880269D01*
X115852059Y-76819472D01*
X115900324Y-76794595D01*
X115899548Y-76792208D01*
X115905832Y-76790166D01*
X115912288Y-76788794D01*
X115918319Y-76786109D01*
X116080722Y-76713803D01*
X116080724Y-76713802D01*
X116086752Y-76711118D01*
X116241253Y-76598866D01*
X116369040Y-76456944D01*
X116464527Y-76291556D01*
X116523542Y-76109928D01*
X116543504Y-75920000D01*
X116523542Y-75730072D01*
X116464527Y-75548444D01*
X116369040Y-75383056D01*
X116364621Y-75378148D01*
X116362564Y-75375317D01*
X116338705Y-75308449D01*
X116338500Y-75301256D01*
X116338500Y-75060384D01*
X116338792Y-75051814D01*
X116342209Y-75001696D01*
X116342209Y-75001692D01*
X116342725Y-74994120D01*
X116331738Y-74931169D01*
X116330776Y-74924647D01*
X116324014Y-74868770D01*
X116323102Y-74861230D01*
X116320419Y-74854129D01*
X116319778Y-74851520D01*
X116315315Y-74835210D01*
X116314550Y-74832674D01*
X116313243Y-74825188D01*
X116287556Y-74766672D01*
X116285065Y-74760568D01*
X116265173Y-74707924D01*
X116265172Y-74707923D01*
X116262487Y-74700816D01*
X116258183Y-74694553D01*
X116256946Y-74692187D01*
X116248701Y-74677375D01*
X116247368Y-74675121D01*
X116244315Y-74668167D01*
X116205413Y-74617470D01*
X116201541Y-74612140D01*
X116169661Y-74565752D01*
X116169656Y-74565747D01*
X116165357Y-74559491D01*
X116118829Y-74518036D01*
X116113554Y-74513056D01*
X113495405Y-71894907D01*
X113461379Y-71832595D01*
X113458500Y-71805812D01*
X113458500Y-69947409D01*
X113478502Y-69879288D01*
X113532158Y-69832795D01*
X113602432Y-69822691D01*
X113635748Y-69832302D01*
X113711677Y-69866108D01*
X113711685Y-69866111D01*
X113717712Y-69868794D01*
X113790690Y-69884306D01*
X113898056Y-69907128D01*
X113898061Y-69907128D01*
X113904513Y-69908500D01*
X114095487Y-69908500D01*
X114101939Y-69907128D01*
X114101944Y-69907128D01*
X114209310Y-69884306D01*
X114282288Y-69868794D01*
X114307109Y-69857743D01*
X114450722Y-69793803D01*
X114450724Y-69793802D01*
X114456752Y-69791118D01*
X114611253Y-69678866D01*
X114619064Y-69670191D01*
X114734621Y-69541852D01*
X114734622Y-69541851D01*
X114739040Y-69536944D01*
X114834527Y-69371556D01*
X114893542Y-69189928D01*
X114894574Y-69180114D01*
X114912814Y-69006565D01*
X114913504Y-69000000D01*
X114893542Y-68810072D01*
X114834527Y-68628444D01*
X114739040Y-68463056D01*
X114723876Y-68446214D01*
X114615675Y-68326045D01*
X114615674Y-68326044D01*
X114611253Y-68321134D01*
X114456752Y-68208882D01*
X114450724Y-68206198D01*
X114450722Y-68206197D01*
X114288319Y-68133891D01*
X114288318Y-68133891D01*
X114282288Y-68131206D01*
X114158303Y-68104852D01*
X114095830Y-68071123D01*
X114061508Y-68008974D01*
X114058500Y-67981605D01*
X114058500Y-55025660D01*
X114078502Y-54957539D01*
X114095405Y-54936565D01*
X115416534Y-53615437D01*
X115479432Y-53581285D01*
X115543733Y-53567617D01*
X115632288Y-53548794D01*
X115767305Y-53488681D01*
X115800722Y-53473803D01*
X115800724Y-53473802D01*
X115806752Y-53471118D01*
X115961253Y-53358866D01*
X115977476Y-53340849D01*
X116084621Y-53221852D01*
X116084622Y-53221851D01*
X116089040Y-53216944D01*
X116176907Y-53064755D01*
X116181223Y-53057279D01*
X116181224Y-53057278D01*
X116184527Y-53051556D01*
X116243542Y-52869928D01*
X116263504Y-52680000D01*
X116248450Y-52536770D01*
X116244232Y-52496635D01*
X116244232Y-52496633D01*
X116243542Y-52490072D01*
X116184527Y-52308444D01*
X116089040Y-52143056D01*
X116016957Y-52062999D01*
X115965675Y-52006045D01*
X115965674Y-52006044D01*
X115961253Y-52001134D01*
X115806752Y-51888882D01*
X115800724Y-51886198D01*
X115800722Y-51886197D01*
X115638319Y-51813891D01*
X115638318Y-51813891D01*
X115632288Y-51811206D01*
X115538888Y-51791353D01*
X115451944Y-51772872D01*
X115451939Y-51772872D01*
X115445487Y-51771500D01*
X115254513Y-51771500D01*
X115248061Y-51772872D01*
X115248056Y-51772872D01*
X115161112Y-51791353D01*
X115067712Y-51811206D01*
X115061682Y-51813891D01*
X115061681Y-51813891D01*
X114899278Y-51886197D01*
X114899276Y-51886198D01*
X114893248Y-51888882D01*
X114738747Y-52001134D01*
X114734326Y-52006044D01*
X114734325Y-52006045D01*
X114683044Y-52062999D01*
X114610960Y-52143056D01*
X114515473Y-52308444D01*
X114456458Y-52490072D01*
X114455768Y-52496635D01*
X114455768Y-52496637D01*
X114451550Y-52536770D01*
X114424537Y-52602427D01*
X114415335Y-52612695D01*
X113673595Y-53354435D01*
X113611283Y-53388461D01*
X113540468Y-53383396D01*
X113483632Y-53340849D01*
X113458821Y-53274329D01*
X113458500Y-53265340D01*
X113458500Y-41095660D01*
X113478502Y-41027539D01*
X113495405Y-41006565D01*
X114599857Y-39902113D01*
X114662169Y-39868087D01*
X114717276Y-39870846D01*
X114717712Y-39868794D01*
X114898056Y-39907128D01*
X114898061Y-39907128D01*
X114904513Y-39908500D01*
X115095487Y-39908500D01*
X115101939Y-39907128D01*
X115101944Y-39907128D01*
X115189819Y-39888449D01*
X115282288Y-39868794D01*
X115313778Y-39854774D01*
X115450722Y-39793803D01*
X115450724Y-39793802D01*
X115456752Y-39791118D01*
X115611253Y-39678866D01*
X115683378Y-39598763D01*
X115734621Y-39541852D01*
X115734622Y-39541851D01*
X115739040Y-39536944D01*
X115834527Y-39371556D01*
X115893542Y-39189928D01*
X115913504Y-39000000D01*
X115905074Y-38919794D01*
X115895361Y-38827374D01*
X115908133Y-38757536D01*
X115946610Y-38712268D01*
X116057067Y-38632016D01*
X116184854Y-38490094D01*
X116280341Y-38324706D01*
X116339356Y-38143078D01*
X116359318Y-37953150D01*
X116339356Y-37763222D01*
X116280341Y-37581594D01*
X116184854Y-37416206D01*
X116078498Y-37298085D01*
X116061489Y-37279195D01*
X116061488Y-37279194D01*
X116057067Y-37274284D01*
X115902566Y-37162032D01*
X115896538Y-37159348D01*
X115896536Y-37159347D01*
X115734133Y-37087041D01*
X115734132Y-37087041D01*
X115728102Y-37084356D01*
X115634701Y-37064503D01*
X115547758Y-37046022D01*
X115547753Y-37046022D01*
X115541301Y-37044650D01*
X115350327Y-37044650D01*
X115343875Y-37046022D01*
X115343870Y-37046022D01*
X115256926Y-37064503D01*
X115163526Y-37084356D01*
X115157496Y-37087041D01*
X115157495Y-37087041D01*
X114995092Y-37159347D01*
X114995090Y-37159348D01*
X114989062Y-37162032D01*
X114983721Y-37165912D01*
X114983720Y-37165913D01*
X114908470Y-37220586D01*
X114841603Y-37244444D01*
X114834409Y-37244650D01*
X114444391Y-37244650D01*
X114435821Y-37244358D01*
X114385703Y-37240941D01*
X114385699Y-37240941D01*
X114378127Y-37240425D01*
X114370650Y-37241730D01*
X114370649Y-37241730D01*
X114344171Y-37246351D01*
X114315176Y-37251412D01*
X114308658Y-37252373D01*
X114245237Y-37260048D01*
X114238136Y-37262731D01*
X114235527Y-37263372D01*
X114219217Y-37267835D01*
X114216681Y-37268600D01*
X114209195Y-37269907D01*
X114202238Y-37272961D01*
X114150684Y-37295592D01*
X114144580Y-37298083D01*
X114084823Y-37320663D01*
X114078560Y-37324967D01*
X114076194Y-37326204D01*
X114061382Y-37334449D01*
X114059128Y-37335782D01*
X114052174Y-37338835D01*
X114001477Y-37377737D01*
X113996147Y-37381609D01*
X113949759Y-37413489D01*
X113949754Y-37413494D01*
X113943498Y-37417793D01*
X113938447Y-37423463D01*
X113938445Y-37423464D01*
X113902044Y-37464320D01*
X113897063Y-37469596D01*
X111669480Y-39697179D01*
X111663215Y-39703033D01*
X111619615Y-39741068D01*
X111615248Y-39747282D01*
X111582872Y-39793348D01*
X111578939Y-39798643D01*
X111539524Y-39848911D01*
X111536401Y-39855827D01*
X111535017Y-39858113D01*
X111526643Y-39872794D01*
X111525378Y-39875154D01*
X111521010Y-39881368D01*
X111518250Y-39888447D01*
X111518249Y-39888449D01*
X111497798Y-39940904D01*
X111495247Y-39946973D01*
X111468955Y-40005202D01*
X111467571Y-40012669D01*
X111466770Y-40015224D01*
X111462141Y-40031477D01*
X111461478Y-40034057D01*
X111458718Y-40041138D01*
X111457727Y-40048669D01*
X111457726Y-40048671D01*
X111450379Y-40104481D01*
X111449348Y-40110988D01*
X111437704Y-40173815D01*
X111438141Y-40181395D01*
X111438141Y-40181396D01*
X111441291Y-40236021D01*
X111441500Y-40243275D01*
X111441500Y-54289064D01*
X111421498Y-54357185D01*
X111367842Y-54403678D01*
X111297568Y-54413782D01*
X111293203Y-54413005D01*
X111291946Y-54412873D01*
X111285487Y-54411500D01*
X111094513Y-54411500D01*
X111088061Y-54412872D01*
X111088056Y-54412872D01*
X111001112Y-54431353D01*
X110907712Y-54451206D01*
X110901682Y-54453891D01*
X110901681Y-54453891D01*
X110739278Y-54526197D01*
X110739276Y-54526198D01*
X110733248Y-54528882D01*
X110578747Y-54641134D01*
X110450960Y-54783056D01*
X110355473Y-54948444D01*
X110296458Y-55130072D01*
X110276496Y-55320000D01*
X110296458Y-55509928D01*
X110355473Y-55691556D01*
X110450960Y-55856944D01*
X110455378Y-55861851D01*
X110455379Y-55861852D01*
X110464135Y-55871576D01*
X110494853Y-55935583D01*
X110496500Y-55955888D01*
X110496500Y-59626256D01*
X110476498Y-59694377D01*
X110472436Y-59700317D01*
X110470379Y-59703148D01*
X110465960Y-59708056D01*
X110462659Y-59713774D01*
X110462658Y-59713775D01*
X110403708Y-59815880D01*
X110370473Y-59873444D01*
X110311458Y-60055072D01*
X110291496Y-60245000D01*
X110311458Y-60434928D01*
X110370473Y-60616556D01*
X110465960Y-60781944D01*
X110593747Y-60923866D01*
X110748248Y-61036118D01*
X110754276Y-61038802D01*
X110754278Y-61038803D01*
X110916681Y-61111109D01*
X110922712Y-61113794D01*
X111016112Y-61133647D01*
X111103056Y-61152128D01*
X111103061Y-61152128D01*
X111109513Y-61153500D01*
X111300487Y-61153500D01*
X111303585Y-61152842D01*
X111372167Y-61165384D01*
X111424014Y-61213886D01*
X111441500Y-61277922D01*
X111441500Y-62719500D01*
X111421498Y-62787621D01*
X111367842Y-62834114D01*
X111315500Y-62845500D01*
X111156513Y-62845500D01*
X111150061Y-62846872D01*
X111150056Y-62846872D01*
X111069021Y-62864097D01*
X110969712Y-62885206D01*
X110963682Y-62887891D01*
X110963681Y-62887891D01*
X110803498Y-62959209D01*
X110733131Y-62968643D01*
X110701001Y-62959209D01*
X110540820Y-62887892D01*
X110540812Y-62887889D01*
X110534785Y-62885206D01*
X110435476Y-62864097D01*
X110354441Y-62846872D01*
X110354436Y-62846872D01*
X110347984Y-62845500D01*
X110157010Y-62845500D01*
X110150558Y-62846872D01*
X110150553Y-62846872D01*
X110069518Y-62864097D01*
X109970209Y-62885206D01*
X109964179Y-62887891D01*
X109964178Y-62887891D01*
X109801775Y-62960197D01*
X109801773Y-62960198D01*
X109795745Y-62962882D01*
X109790404Y-62966762D01*
X109790403Y-62966763D01*
X109762503Y-62987034D01*
X109641244Y-63075134D01*
X109513457Y-63217056D01*
X109417970Y-63382444D01*
X109358955Y-63564072D01*
X109338993Y-63754000D01*
X109358955Y-63943928D01*
X109417970Y-64125556D01*
X109513457Y-64290944D01*
X109528619Y-64307783D01*
X109559335Y-64371789D01*
X109560981Y-64392091D01*
X109560981Y-72227625D01*
X109560689Y-72236195D01*
X109556756Y-72293889D01*
X109558061Y-72301366D01*
X109558061Y-72301367D01*
X109567742Y-72356836D01*
X109568704Y-72363358D01*
X109576379Y-72426779D01*
X109579062Y-72433880D01*
X109579703Y-72436489D01*
X109584166Y-72452799D01*
X109584931Y-72455335D01*
X109586238Y-72462821D01*
X109599881Y-72493899D01*
X109611923Y-72521332D01*
X109614414Y-72527436D01*
X109636994Y-72587193D01*
X109641298Y-72593456D01*
X109642535Y-72595822D01*
X109650780Y-72610634D01*
X109652113Y-72612888D01*
X109655166Y-72619842D01*
X109659788Y-72625865D01*
X109694060Y-72670528D01*
X109697940Y-72675869D01*
X109729820Y-72722257D01*
X109729825Y-72722262D01*
X109734124Y-72728518D01*
X109739794Y-72733569D01*
X109739795Y-72733571D01*
X109780651Y-72769972D01*
X109785927Y-72774953D01*
X112664595Y-75653621D01*
X112698621Y-75715933D01*
X112701500Y-75742716D01*
X112701500Y-81514338D01*
X112681498Y-81582459D01*
X112664596Y-81603433D01*
X112223435Y-82044595D01*
X112161122Y-82078620D01*
X112134339Y-82081500D01*
X111377740Y-82081500D01*
X111309619Y-82061498D01*
X111263126Y-82007842D01*
X111251740Y-81955500D01*
X111251740Y-81913346D01*
X111244985Y-81851164D01*
X111193855Y-81714775D01*
X111106501Y-81598219D01*
X110989945Y-81510865D01*
X110989790Y-81510807D01*
X110942777Y-81463689D01*
X110927762Y-81394298D01*
X110952646Y-81327805D01*
X110957621Y-81321594D01*
X110963797Y-81314363D01*
X110969597Y-81306379D01*
X111088445Y-81112438D01*
X111092927Y-81103643D01*
X111179974Y-80893492D01*
X111183023Y-80884107D01*
X111236125Y-80662926D01*
X111237668Y-80653179D01*
X111255515Y-80426410D01*
X111255515Y-80416550D01*
X111237668Y-80189781D01*
X111236125Y-80180034D01*
X111183023Y-79958853D01*
X111179974Y-79949468D01*
X111092927Y-79739317D01*
X111088445Y-79730522D01*
X110985808Y-79563035D01*
X110975350Y-79553573D01*
X110966574Y-79557356D01*
X109832335Y-80691595D01*
X109770023Y-80725621D01*
X109699208Y-80720556D01*
X109654145Y-80691595D01*
X108522950Y-79560400D01*
X108510570Y-79553640D01*
X108502920Y-79559367D01*
X108398035Y-79730522D01*
X108393553Y-79739317D01*
X108306506Y-79949468D01*
X108303457Y-79958853D01*
X108250355Y-80180034D01*
X108248812Y-80189781D01*
X108230965Y-80416550D01*
X108230965Y-80426410D01*
X105908500Y-80426410D01*
X105908500Y-79189370D01*
X108875333Y-79189370D01*
X108879116Y-79198146D01*
X109730428Y-80049458D01*
X109744372Y-80057072D01*
X109746205Y-80056941D01*
X109752820Y-80052690D01*
X110604320Y-79201190D01*
X110611080Y-79188810D01*
X110605353Y-79181160D01*
X110434198Y-79076275D01*
X110425403Y-79071793D01*
X110215252Y-78984746D01*
X110205867Y-78981697D01*
X109984686Y-78928595D01*
X109974939Y-78927052D01*
X109748170Y-78909205D01*
X109738310Y-78909205D01*
X109511541Y-78927052D01*
X109501794Y-78928595D01*
X109280613Y-78981697D01*
X109271228Y-78984746D01*
X109061077Y-79071793D01*
X109052282Y-79076275D01*
X108884795Y-79178912D01*
X108875333Y-79189370D01*
X105908500Y-79189370D01*
X105908500Y-67478838D01*
X105928502Y-67410717D01*
X105982158Y-67364224D01*
X106052432Y-67354120D01*
X106117012Y-67383614D01*
X106151153Y-67438795D01*
X106153425Y-67437959D01*
X106218460Y-67614720D01*
X106218462Y-67614725D01*
X106220663Y-67620706D01*
X106323274Y-67786200D01*
X106457066Y-67927682D01*
X106616575Y-68039371D01*
X106622438Y-68041908D01*
X106789425Y-68114170D01*
X106789429Y-68114171D01*
X106795284Y-68116705D01*
X106801531Y-68118010D01*
X106801534Y-68118011D01*
X106981157Y-68155536D01*
X106981162Y-68155537D01*
X106985893Y-68156525D01*
X106992285Y-68156860D01*
X107135263Y-68156860D01*
X107204551Y-68149822D01*
X107273978Y-68142770D01*
X107273979Y-68142770D01*
X107280327Y-68142125D01*
X107361443Y-68116705D01*
X107460051Y-68085804D01*
X107460056Y-68085802D01*
X107466141Y-68083895D01*
X107553075Y-68035706D01*
X107630871Y-67992583D01*
X107630874Y-67992581D01*
X107636450Y-67989490D01*
X107641291Y-67985341D01*
X107641295Y-67985338D01*
X107779455Y-67866920D01*
X107784298Y-67862769D01*
X107903646Y-67708907D01*
X107944379Y-67626128D01*
X107986800Y-67539916D01*
X107989618Y-67534189D01*
X108004036Y-67478838D01*
X108037092Y-67351935D01*
X108037092Y-67351932D01*
X108038702Y-67345753D01*
X108048893Y-67151296D01*
X108025399Y-66995947D01*
X108020730Y-66965075D01*
X108020730Y-66965074D01*
X108019775Y-66958761D01*
X108017572Y-66952775D01*
X108017571Y-66952769D01*
X107954740Y-66782000D01*
X107954738Y-66781995D01*
X107952537Y-66776014D01*
X107849926Y-66610520D01*
X107716134Y-66469038D01*
X107556625Y-66357349D01*
X107508613Y-66336572D01*
X107383775Y-66282550D01*
X107383771Y-66282549D01*
X107377916Y-66280015D01*
X107371669Y-66278710D01*
X107371666Y-66278709D01*
X107192043Y-66241184D01*
X107192038Y-66241183D01*
X107187307Y-66240195D01*
X107180915Y-66239860D01*
X107037937Y-66239860D01*
X106968649Y-66246898D01*
X106899222Y-66253950D01*
X106899221Y-66253950D01*
X106892873Y-66254595D01*
X106836539Y-66272249D01*
X106713149Y-66310916D01*
X106713144Y-66310918D01*
X106707059Y-66312825D01*
X106631313Y-66354812D01*
X106542329Y-66404137D01*
X106542326Y-66404139D01*
X106536750Y-66407230D01*
X106531909Y-66411379D01*
X106531905Y-66411382D01*
X106468911Y-66465375D01*
X106388902Y-66533951D01*
X106269554Y-66687813D01*
X106266738Y-66693536D01*
X106266736Y-66693539D01*
X106223208Y-66782000D01*
X106183582Y-66862531D01*
X106181973Y-66868709D01*
X106181972Y-66868711D01*
X106156431Y-66966765D01*
X106119904Y-67027644D01*
X106056261Y-67059111D01*
X105985710Y-67051174D01*
X105930649Y-67006355D01*
X105908500Y-66935004D01*
X105908500Y-64478838D01*
X105928502Y-64410717D01*
X105982158Y-64364224D01*
X106052432Y-64354120D01*
X106117012Y-64383614D01*
X106151153Y-64438795D01*
X106153425Y-64437959D01*
X106218460Y-64614720D01*
X106218462Y-64614725D01*
X106220663Y-64620706D01*
X106323274Y-64786200D01*
X106457066Y-64927682D01*
X106616575Y-65039371D01*
X106622438Y-65041908D01*
X106789425Y-65114170D01*
X106789429Y-65114171D01*
X106795284Y-65116705D01*
X106801531Y-65118010D01*
X106801534Y-65118011D01*
X106981157Y-65155536D01*
X106981162Y-65155537D01*
X106985893Y-65156525D01*
X106992285Y-65156860D01*
X107135263Y-65156860D01*
X107204551Y-65149822D01*
X107273978Y-65142770D01*
X107273979Y-65142770D01*
X107280327Y-65142125D01*
X107361443Y-65116705D01*
X107460051Y-65085804D01*
X107460056Y-65085802D01*
X107466141Y-65083895D01*
X107553075Y-65035706D01*
X107630871Y-64992583D01*
X107630874Y-64992581D01*
X107636450Y-64989490D01*
X107641291Y-64985341D01*
X107641295Y-64985338D01*
X107779455Y-64866920D01*
X107784298Y-64862769D01*
X107903646Y-64708907D01*
X107944379Y-64626128D01*
X107986800Y-64539916D01*
X107989618Y-64534189D01*
X108009238Y-64458867D01*
X108037092Y-64351935D01*
X108037092Y-64351932D01*
X108038702Y-64345753D01*
X108048893Y-64151296D01*
X108025399Y-63995947D01*
X108020730Y-63965075D01*
X108020730Y-63965074D01*
X108019775Y-63958761D01*
X108017572Y-63952775D01*
X108017571Y-63952769D01*
X107954740Y-63782000D01*
X107954738Y-63781995D01*
X107952537Y-63776014D01*
X107849926Y-63610520D01*
X107716134Y-63469038D01*
X107556625Y-63357349D01*
X107508613Y-63336572D01*
X107383775Y-63282550D01*
X107383771Y-63282549D01*
X107377916Y-63280015D01*
X107371669Y-63278710D01*
X107371666Y-63278709D01*
X107192043Y-63241184D01*
X107192038Y-63241183D01*
X107187307Y-63240195D01*
X107180915Y-63239860D01*
X107037937Y-63239860D01*
X106968649Y-63246898D01*
X106899222Y-63253950D01*
X106899221Y-63253950D01*
X106892873Y-63254595D01*
X106836539Y-63272249D01*
X106713149Y-63310916D01*
X106713144Y-63310918D01*
X106707059Y-63312825D01*
X106631313Y-63354812D01*
X106542329Y-63404137D01*
X106542326Y-63404139D01*
X106536750Y-63407230D01*
X106531909Y-63411379D01*
X106531905Y-63411382D01*
X106468911Y-63465375D01*
X106388902Y-63533951D01*
X106269554Y-63687813D01*
X106266738Y-63693536D01*
X106266736Y-63693539D01*
X106223208Y-63782000D01*
X106183582Y-63862531D01*
X106181973Y-63868709D01*
X106181972Y-63868711D01*
X106156431Y-63966765D01*
X106119904Y-64027644D01*
X106056261Y-64059111D01*
X105985710Y-64051174D01*
X105930649Y-64006355D01*
X105908500Y-63935004D01*
X105908500Y-59875448D01*
X105928502Y-59807327D01*
X105982158Y-59760834D01*
X106052432Y-59750730D01*
X106072599Y-59755346D01*
X106204076Y-59797053D01*
X106209946Y-59798915D01*
X106363867Y-59816180D01*
X107170409Y-59816180D01*
X107173465Y-59815880D01*
X107173472Y-59815880D01*
X107231980Y-59810143D01*
X107317473Y-59801760D01*
X107323374Y-59799978D01*
X107323376Y-59799978D01*
X107471203Y-59755346D01*
X107506809Y-59744596D01*
X107681436Y-59651746D01*
X107767702Y-59581389D01*
X107829927Y-59530640D01*
X107829930Y-59530637D01*
X107834702Y-59526745D01*
X107838631Y-59521996D01*
X107956841Y-59379105D01*
X107956843Y-59379101D01*
X107960770Y-59374355D01*
X108054838Y-59200381D01*
X108113322Y-59011448D01*
X108133995Y-58814755D01*
X108116070Y-58617792D01*
X108100571Y-58565128D01*
X108067573Y-58453010D01*
X108060230Y-58428061D01*
X108053427Y-58415047D01*
X107989275Y-58292337D01*
X107968600Y-58252790D01*
X107844672Y-58098655D01*
X107693166Y-57971526D01*
X107687768Y-57968559D01*
X107687763Y-57968555D01*
X107682515Y-57965670D01*
X108596283Y-57965670D01*
X108624470Y-58105465D01*
X108628369Y-58113117D01*
X108685314Y-58224878D01*
X108685316Y-58224881D01*
X108689213Y-58232529D01*
X108785741Y-58337503D01*
X108832509Y-58366500D01*
X108899644Y-58408126D01*
X108899647Y-58408127D01*
X108906943Y-58412651D01*
X109043889Y-58452438D01*
X109053994Y-58453180D01*
X109156367Y-58453180D01*
X109160613Y-58452598D01*
X109160619Y-58452598D01*
X109219364Y-58444551D01*
X109261929Y-58438720D01*
X109272897Y-58433974D01*
X109384926Y-58385494D01*
X109384927Y-58385494D01*
X109392808Y-58382083D01*
X109503636Y-58292337D01*
X109531741Y-58252790D01*
X109581270Y-58183095D01*
X109586246Y-58176093D01*
X109634553Y-58041916D01*
X109644997Y-57899690D01*
X109616810Y-57759895D01*
X109586161Y-57699743D01*
X109555966Y-57640482D01*
X109555964Y-57640479D01*
X109552067Y-57632831D01*
X109455539Y-57527857D01*
X109392354Y-57488681D01*
X109341636Y-57457234D01*
X109341633Y-57457233D01*
X109334337Y-57452709D01*
X109197391Y-57412922D01*
X109187286Y-57412180D01*
X109084913Y-57412180D01*
X109080667Y-57412762D01*
X109080661Y-57412762D01*
X109021916Y-57420809D01*
X108979351Y-57426640D01*
X108971467Y-57430052D01*
X108971466Y-57430052D01*
X108883608Y-57468072D01*
X108848472Y-57483277D01*
X108737644Y-57573023D01*
X108732668Y-57580025D01*
X108732667Y-57580026D01*
X108681920Y-57651435D01*
X108655034Y-57689267D01*
X108606727Y-57823444D01*
X108606098Y-57832004D01*
X108606098Y-57832006D01*
X108602632Y-57879213D01*
X108596283Y-57965670D01*
X107682515Y-57965670D01*
X107525248Y-57879213D01*
X107525249Y-57879213D01*
X107519853Y-57876247D01*
X107513986Y-57874386D01*
X107513984Y-57874385D01*
X107337204Y-57818307D01*
X107337203Y-57818307D01*
X107331334Y-57816445D01*
X107177413Y-57799180D01*
X106370871Y-57799180D01*
X106367815Y-57799480D01*
X106367808Y-57799480D01*
X106309300Y-57805217D01*
X106223807Y-57813600D01*
X106217906Y-57815382D01*
X106217904Y-57815382D01*
X106070918Y-57859760D01*
X105999924Y-57860301D01*
X105939907Y-57822373D01*
X105909923Y-57758019D01*
X105908500Y-57739138D01*
X105908500Y-54125448D01*
X105928502Y-54057327D01*
X105982158Y-54010834D01*
X106052432Y-54000730D01*
X106072599Y-54005346D01*
X106187882Y-54041916D01*
X106209946Y-54048915D01*
X106363867Y-54066180D01*
X107170409Y-54066180D01*
X107173465Y-54065880D01*
X107173472Y-54065880D01*
X107231980Y-54060143D01*
X107317473Y-54051760D01*
X107323374Y-54049978D01*
X107323376Y-54049978D01*
X107471203Y-54005346D01*
X107506809Y-53994596D01*
X107561211Y-53965670D01*
X108596283Y-53965670D01*
X108624470Y-54105465D01*
X108628369Y-54113117D01*
X108685314Y-54224878D01*
X108685316Y-54224881D01*
X108689213Y-54232529D01*
X108785741Y-54337503D01*
X108817485Y-54357185D01*
X108899644Y-54408126D01*
X108899647Y-54408127D01*
X108906943Y-54412651D01*
X109043889Y-54452438D01*
X109053994Y-54453180D01*
X109156367Y-54453180D01*
X109160613Y-54452598D01*
X109160619Y-54452598D01*
X109219364Y-54444551D01*
X109261929Y-54438720D01*
X109316634Y-54415047D01*
X109384926Y-54385494D01*
X109384927Y-54385494D01*
X109392808Y-54382083D01*
X109503636Y-54292337D01*
X109551577Y-54224878D01*
X109581270Y-54183095D01*
X109586246Y-54176093D01*
X109634553Y-54041916D01*
X109636836Y-54010834D01*
X109644368Y-53908254D01*
X109644997Y-53899690D01*
X109620993Y-53780640D01*
X109618508Y-53768316D01*
X109616810Y-53759895D01*
X109606663Y-53739981D01*
X109555966Y-53640482D01*
X109555964Y-53640479D01*
X109552067Y-53632831D01*
X109536073Y-53615437D01*
X109461353Y-53534180D01*
X109455539Y-53527857D01*
X109392354Y-53488681D01*
X109341636Y-53457234D01*
X109341633Y-53457233D01*
X109334337Y-53452709D01*
X109197391Y-53412922D01*
X109187286Y-53412180D01*
X109084913Y-53412180D01*
X109080667Y-53412762D01*
X109080661Y-53412762D01*
X109021916Y-53420809D01*
X108979351Y-53426640D01*
X108971467Y-53430052D01*
X108971466Y-53430052D01*
X108911969Y-53455799D01*
X108848472Y-53483277D01*
X108737644Y-53573023D01*
X108732668Y-53580025D01*
X108732667Y-53580026D01*
X108660010Y-53682265D01*
X108655034Y-53689267D01*
X108606727Y-53823444D01*
X108596283Y-53965670D01*
X107561211Y-53965670D01*
X107681436Y-53901746D01*
X107777444Y-53823444D01*
X107829927Y-53780640D01*
X107829930Y-53780637D01*
X107834702Y-53776745D01*
X107900385Y-53697348D01*
X107956841Y-53629105D01*
X107956843Y-53629101D01*
X107960770Y-53624355D01*
X108054838Y-53450381D01*
X108113322Y-53261448D01*
X108117484Y-53221852D01*
X108133351Y-53070884D01*
X108133351Y-53070882D01*
X108133995Y-53064755D01*
X108116070Y-52867792D01*
X108060230Y-52678061D01*
X107968600Y-52502790D01*
X107844672Y-52348655D01*
X107693166Y-52221526D01*
X107687768Y-52218559D01*
X107687763Y-52218555D01*
X107525248Y-52129213D01*
X107525249Y-52129213D01*
X107519853Y-52126247D01*
X107513986Y-52124386D01*
X107513984Y-52124385D01*
X107337204Y-52068307D01*
X107337203Y-52068307D01*
X107331334Y-52066445D01*
X107177413Y-52049180D01*
X106370871Y-52049180D01*
X106367815Y-52049480D01*
X106367808Y-52049480D01*
X106309300Y-52055217D01*
X106223807Y-52063600D01*
X106217906Y-52065382D01*
X106217904Y-52065382D01*
X106070918Y-52109760D01*
X105999924Y-52110301D01*
X105939907Y-52072373D01*
X105909923Y-52008019D01*
X105908500Y-51989138D01*
X105908500Y-35634500D01*
X105928502Y-35566379D01*
X105982158Y-35519886D01*
X106034500Y-35508500D01*
X136265500Y-35508500D01*
X136333621Y-35528502D01*
G37*
%TD.AperFunction*%
%TD*%
M02*
