%TF.GenerationSoftware,KiCad,Pcbnew,6.0.7-f9a2dced07~116~ubuntu20.04.1*%
%TF.CreationDate,2022-09-04T18:40:54+02:00*%
%TF.ProjectId,USBRadio,55534252-6164-4696-9f2e-6b696361645f,rev?*%
%TF.SameCoordinates,Original*%
%TF.FileFunction,Paste,Top*%
%TF.FilePolarity,Positive*%
%FSLAX46Y46*%
G04 Gerber Fmt 4.6, Leading zero omitted, Abs format (unit mm)*
G04 Created by KiCad (PCBNEW 6.0.7-f9a2dced07~116~ubuntu20.04.1) date 2022-09-04 18:40:54*
%MOMM*%
%LPD*%
G01*
G04 APERTURE LIST*
G04 Aperture macros list*
%AMRoundRect*
0 Rectangle with rounded corners*
0 $1 Rounding radius*
0 $2 $3 $4 $5 $6 $7 $8 $9 X,Y pos of 4 corners*
0 Add a 4 corners polygon primitive as box body*
4,1,4,$2,$3,$4,$5,$6,$7,$8,$9,$2,$3,0*
0 Add four circle primitives for the rounded corners*
1,1,$1+$1,$2,$3*
1,1,$1+$1,$4,$5*
1,1,$1+$1,$6,$7*
1,1,$1+$1,$8,$9*
0 Add four rect primitives between the rounded corners*
20,1,$1+$1,$2,$3,$4,$5,0*
20,1,$1+$1,$4,$5,$6,$7,0*
20,1,$1+$1,$6,$7,$8,$9,0*
20,1,$1+$1,$8,$9,$2,$3,0*%
%AMFreePoly0*
4,1,6,0.600000,-0.600000,-0.600000,-0.600000,-0.600000,0.000000,0.000000,0.600000,0.600000,0.600000,0.600000,-0.600000,0.600000,-0.600000,$1*%
G04 Aperture macros list end*
%ADD10R,0.720000X1.000000*%
%ADD11RoundRect,0.250000X-0.450000X0.350000X-0.450000X-0.350000X0.450000X-0.350000X0.450000X0.350000X0*%
%ADD12RoundRect,0.250000X-0.350000X-0.450000X0.350000X-0.450000X0.350000X0.450000X-0.350000X0.450000X0*%
%ADD13RoundRect,0.237500X-0.300000X-0.237500X0.300000X-0.237500X0.300000X0.237500X-0.300000X0.237500X0*%
%ADD14RoundRect,0.237500X-0.237500X0.300000X-0.237500X-0.300000X0.237500X-0.300000X0.237500X0.300000X0*%
%ADD15RoundRect,0.237500X0.237500X-0.300000X0.237500X0.300000X-0.237500X0.300000X-0.237500X-0.300000X0*%
%ADD16R,1.650000X0.400000*%
%ADD17R,1.600000X2.100000*%
%ADD18R,2.000000X2.000000*%
%ADD19RoundRect,0.250000X0.450000X-0.350000X0.450000X0.350000X-0.450000X0.350000X-0.450000X-0.350000X0*%
%ADD20R,0.800000X1.000000*%
%ADD21R,1.500000X0.700000*%
%ADD22R,0.650000X1.060000*%
%ADD23R,1.060000X0.650000*%
%ADD24RoundRect,0.250000X0.350000X0.450000X-0.350000X0.450000X-0.350000X-0.450000X0.350000X-0.450000X0*%
%ADD25R,0.400000X0.800000*%
%ADD26R,0.800000X0.400000*%
%ADD27R,1.200000X1.200000*%
%ADD28R,0.800000X0.800000*%
%ADD29FreePoly0,270.000000*%
%ADD30R,0.900000X1.200000*%
%ADD31RoundRect,0.147059X1.952941X0.352941X-1.952941X0.352941X-1.952941X-0.352941X1.952941X-0.352941X0*%
%ADD32RoundRect,0.250000X1.850000X0.250000X-1.850000X0.250000X-1.850000X-0.250000X1.850000X-0.250000X0*%
%ADD33RoundRect,0.147059X-1.952941X-0.352941X1.952941X-0.352941X1.952941X0.352941X-1.952941X0.352941X0*%
%ADD34RoundRect,0.250000X-1.850000X-0.250000X1.850000X-0.250000X1.850000X0.250000X-1.850000X0.250000X0*%
%ADD35RoundRect,0.237500X0.300000X0.237500X-0.300000X0.237500X-0.300000X-0.237500X0.300000X-0.237500X0*%
%ADD36R,1.700000X1.000000*%
%ADD37R,2.000000X0.650000*%
%ADD38RoundRect,0.250000X-0.337500X-0.475000X0.337500X-0.475000X0.337500X0.475000X-0.337500X0.475000X0*%
%ADD39R,2.500000X1.100000*%
%ADD40R,1.100000X3.700000*%
G04 APERTURE END LIST*
D10*
%TO.C,D2*%
X121342000Y-91420000D03*
X121342000Y-93020000D03*
X120162000Y-93020000D03*
X120162000Y-91420000D03*
%TD*%
D11*
%TO.C,R5*%
X117856000Y-90456000D03*
X117856000Y-92456000D03*
%TD*%
D12*
%TO.C,R6*%
X114824000Y-88392000D03*
X116824000Y-88392000D03*
%TD*%
D13*
%TO.C,C1*%
X109373500Y-73152000D03*
X111098500Y-73152000D03*
%TD*%
D14*
%TO.C,C3*%
X113045200Y-77947060D03*
X113045200Y-79672060D03*
%TD*%
D15*
%TO.C,C8*%
X113873280Y-92789020D03*
X113873280Y-91064020D03*
%TD*%
D14*
%TO.C,C9*%
X107609640Y-91069100D03*
X107609640Y-92794100D03*
%TD*%
D16*
%TO.C,J1*%
X109285640Y-54632680D03*
X109285640Y-55282680D03*
X109285640Y-55932680D03*
X109285640Y-56582680D03*
X109285640Y-57232680D03*
D17*
X109320640Y-59032680D03*
D18*
X106720640Y-54782680D03*
D17*
X109335640Y-52882680D03*
D18*
X106720640Y-57082680D03*
%TD*%
D19*
%TO.C,R4*%
X113731040Y-85270960D03*
X113731040Y-83270960D03*
%TD*%
D20*
%TO.C,SW1*%
X108196600Y-69348360D03*
X108196600Y-62048360D03*
X105986600Y-62048360D03*
X105986600Y-69348360D03*
D21*
X108846600Y-63448360D03*
X108846600Y-66448360D03*
X108846600Y-67948360D03*
%TD*%
D22*
%TO.C,U2*%
X110998000Y-75524000D03*
X110048000Y-75524000D03*
X109098000Y-75524000D03*
X109098000Y-77724000D03*
X110998000Y-77724000D03*
%TD*%
D23*
%TO.C,U4*%
X109588120Y-87110640D03*
X109588120Y-88060640D03*
X109588120Y-89010640D03*
X111788120Y-89010640D03*
X111788120Y-87110640D03*
%TD*%
D24*
%TO.C,R1*%
X121650000Y-87884000D03*
X119650000Y-87884000D03*
%TD*%
D25*
%TO.C,U5*%
X129892000Y-71232000D03*
X129042000Y-71232000D03*
X128192000Y-71232000D03*
X127342000Y-71232000D03*
X126492000Y-71232000D03*
X125642000Y-71232000D03*
X124792000Y-71232000D03*
X123942000Y-71232000D03*
X123092000Y-71232000D03*
X122242000Y-71232000D03*
X121392000Y-71232000D03*
X120542000Y-71232000D03*
X119692000Y-71232000D03*
X118842000Y-71232000D03*
X117992000Y-71232000D03*
D26*
X116942000Y-72282000D03*
X116942000Y-73132000D03*
X116942000Y-73982000D03*
X116942000Y-74832000D03*
X116942000Y-75682000D03*
X116942000Y-76532000D03*
X116942000Y-77382000D03*
X116942000Y-78232000D03*
X116942000Y-79082000D03*
X116942000Y-79932000D03*
X116942000Y-80782000D03*
X116942000Y-81632000D03*
X116942000Y-82482000D03*
X116942000Y-83332000D03*
X116942000Y-84182000D03*
D25*
X117992000Y-85232000D03*
X118842000Y-85232000D03*
X119692000Y-85232000D03*
X120542000Y-85232000D03*
X121392000Y-85232000D03*
X122242000Y-85232000D03*
X123092000Y-85232000D03*
X123942000Y-85232000D03*
X124792000Y-85232000D03*
X125642000Y-85232000D03*
X126492000Y-85232000D03*
X127342000Y-85232000D03*
X128192000Y-85232000D03*
X129042000Y-85232000D03*
X129892000Y-85232000D03*
D26*
X130942000Y-80782000D03*
X130942000Y-84182000D03*
D27*
X123942000Y-79882000D03*
X125592000Y-78232000D03*
D26*
X130942000Y-73132000D03*
X130942000Y-74832000D03*
D28*
X116942000Y-85232000D03*
X130942000Y-85232000D03*
D26*
X130942000Y-77382000D03*
D27*
X125592000Y-79882000D03*
D26*
X130942000Y-73982000D03*
X130942000Y-72282000D03*
D27*
X122292000Y-78232000D03*
X122292000Y-76582000D03*
X123942000Y-76582000D03*
X123942000Y-78232000D03*
D28*
X130942000Y-71232000D03*
D26*
X130942000Y-79932000D03*
X130942000Y-78232000D03*
D27*
X122292000Y-79882000D03*
D26*
X130942000Y-83332000D03*
D28*
X116942000Y-71232000D03*
D26*
X130942000Y-82482000D03*
X130942000Y-75682000D03*
D29*
X125592000Y-76582000D03*
D26*
X130942000Y-79082000D03*
X130942000Y-76532000D03*
X130942000Y-81632000D03*
%TD*%
D30*
%TO.C,D1*%
X112650000Y-62992000D03*
X115950000Y-62992000D03*
%TD*%
D31*
%TO.C,J4*%
X133096000Y-99314000D03*
D32*
X128270000Y-99314000D03*
X133096000Y-98044000D03*
X128270000Y-98044000D03*
X133096000Y-96774000D03*
X128270000Y-96774000D03*
X133096000Y-95504000D03*
X128270000Y-95504000D03*
X133096000Y-94234000D03*
X128270000Y-94234000D03*
%TD*%
D13*
%TO.C,R8*%
X130709500Y-88646000D03*
X132434500Y-88646000D03*
%TD*%
D33*
%TO.C,J2*%
X128432000Y-59436000D03*
D34*
X133258000Y-59436000D03*
X128432000Y-60706000D03*
X133258000Y-60706000D03*
X128432000Y-61976000D03*
X133258000Y-61976000D03*
%TD*%
D35*
%TO.C,C14*%
X122020500Y-65786000D03*
X120295500Y-65786000D03*
%TD*%
D36*
%TO.C,SW4*%
X134976000Y-40772000D03*
X128676000Y-40772000D03*
X134976000Y-44572000D03*
X128676000Y-44572000D03*
%TD*%
D37*
%TO.C,U1*%
X118686000Y-62042000D03*
X118686000Y-62992000D03*
X118686000Y-63942000D03*
X122106000Y-63942000D03*
X122106000Y-62992000D03*
X122106000Y-62042000D03*
%TD*%
D38*
%TO.C,C12*%
X129010500Y-67818000D03*
X131085500Y-67818000D03*
%TD*%
D39*
%TO.C,U6*%
X112880000Y-36118000D03*
X112880000Y-37618000D03*
X112880000Y-39118000D03*
X112880000Y-40618000D03*
X112880000Y-42118000D03*
X112880000Y-43618000D03*
X112880000Y-45118000D03*
X112880000Y-46618000D03*
X112880000Y-48118000D03*
X112880000Y-49618000D03*
X112880000Y-51118000D03*
X112880000Y-52618000D03*
X112880000Y-54118000D03*
X125880000Y-54118000D03*
X125880000Y-52618000D03*
X125880000Y-51118000D03*
X125880000Y-49618000D03*
X125880000Y-48118000D03*
X125880000Y-46618000D03*
X125880000Y-45118000D03*
X125880000Y-43618000D03*
X125880000Y-42118000D03*
X125880000Y-40618000D03*
X125880000Y-39118000D03*
X125880000Y-37618000D03*
X125880000Y-36118000D03*
%TD*%
D35*
%TO.C,R3*%
X118210500Y-65786000D03*
X116485500Y-65786000D03*
%TD*%
D36*
%TO.C,SW5*%
X134976000Y-49408000D03*
X128676000Y-49408000D03*
X134976000Y-53208000D03*
X128676000Y-53208000D03*
%TD*%
D15*
%TO.C,C2*%
X135128000Y-57250500D03*
X135128000Y-55525500D03*
%TD*%
D35*
%TO.C,R7*%
X133196500Y-46990000D03*
X131471500Y-46990000D03*
%TD*%
D15*
%TO.C,C13*%
X126492000Y-65632500D03*
X126492000Y-63907500D03*
%TD*%
D40*
%TO.C,L1*%
X121000000Y-58674000D03*
X118000000Y-58674000D03*
%TD*%
D15*
%TO.C,C4*%
X113030000Y-60298500D03*
X113030000Y-58573500D03*
%TD*%
D35*
%TO.C,R2*%
X114400500Y-65786000D03*
X112675500Y-65786000D03*
%TD*%
M02*
