M48
METRIC,TZ
T1C0.300
T2C0.400
T3C0.800
T4C1.500
T5C1.700
%
G90
G05
T1
X72574Y-87080
X72574Y-88480
X72574Y-89880
X73974Y-88480
X73977Y-87080
X73977Y-89880
X75374Y-87080
X75374Y-88480
X75374Y-89880
X92750Y-101070
X66980Y-81878
X69017Y-79344
X72577Y-81735
X65016Y-79306
X81380Y-79990
X49240Y-91332
X67060Y-76560
X93779Y-107571
X92920Y-55400
X59705Y-53855
X69589Y-93856
X54089Y-56100
X81975Y-84148
X86185Y-52039
X58537Y-77710
X85630Y-79310
X92344Y-92318
X49812Y-52361
X85000Y-81790
X69402Y-91784
X62746Y-66176
X82047Y-96290
X50231Y-84678
X79054Y-92911
X76890Y-95600
X79435Y-81100
X87340Y-87060
X82939Y-89714
X92405Y-94866
X72266Y-53283
X81049Y-60743
X74750Y-98560
X53574Y-63380
X72332Y-78855
X62657Y-110636
X77310Y-97800
X62781Y-70141
X74226Y-70012
X70096Y-65516
X66831Y-97176
X74135Y-60588
X77622Y-65330
X80914Y-70532
X93050Y-53460
X65357Y-97176
X74920Y-104070
X61237Y-50949
X76581Y-48006
X68456Y-97201
X79756Y-51181
X85920Y-53460
X74736Y-96594
X76890Y-94050
X51130Y-108390
X65898Y-102808
X58763Y-87540
X77435Y-92051
X54214Y-50824
X65243Y-80382
X78349Y-54833
X62705Y-86267
X79456Y-90544
X68395Y-80247
X58672Y-97850
X70380Y-77720
X54864Y-102362
X66876Y-92178
X78280Y-103450
X73120Y-76570
X52344Y-56016
X79435Y-82751
X61928Y-76572
X50193Y-81642
X75760Y-76660
X81975Y-86307
X92156Y-104909
X81975Y-88339
X87470Y-89720
X69910Y-81989
X73970Y-79920
X76840Y-82730
X94150Y-95300
X51661Y-91368
X63569Y-81987
X62687Y-84138
X91160Y-108820
X53457Y-73309
X62705Y-85162
X70231Y-52959
X68600Y-98630
X68293Y-70563
X71180Y-81735
X50257Y-87611
X57190Y-110540
X60910Y-102040
X62817Y-68196
X61928Y-79237
X59390Y-63537
X76835Y-51181
X76030Y-92600
X78740Y-50038
X74090Y-55920
X73940Y-78880
X59329Y-72455
X75180Y-83910
X84400Y-51940
X69561Y-96003
X83340Y-79480
X89736Y-84507
X76761Y-84024
X91999Y-49326
X68108Y-60835
T2
X57625Y-75035
X57710Y-75850
X64160Y-108110
X64296Y-108974
X65751Y-52102
X65810Y-55500
X69129Y-55087
X69377Y-89308
X70120Y-87278
X70200Y-97900
X71280Y-104980
X71790Y-108270
X72342Y-97890
X72574Y-84299
X74187Y-54845
X75790Y-79696
X75828Y-96745
X76540Y-104950
X77813Y-87480
X77897Y-88343
X77978Y-48006
X79308Y-85180
X80570Y-77261
X84077Y-103578
X84298Y-86344
X84506Y-55794
X85502Y-86307
X86538Y-101231
X86690Y-58330
X88732Y-66372
X89124Y-76204
X90262Y-58613
X90370Y-76250
X90440Y-67790
X91160Y-58570
X92034Y-58423
X92913Y-58489
X93431Y-86649
T3
X76761Y-113202
X79301Y-113202
X50210Y-103750
X50210Y-106290
X49250Y-80360
X49250Y-82900
X51250Y-80360
X51250Y-82900
X49250Y-86341
X49250Y-88881
X51250Y-86341
X51250Y-88881
X50561Y-93117
X50561Y-95117
X50561Y-97117
X50561Y-99117
X50290Y-58180
X50290Y-60720
X52290Y-58180
X52290Y-60720
X53610Y-78265
X53610Y-80805
X53610Y-83345
X53610Y-85885
X53610Y-88425
X53610Y-90965
X53610Y-93505
X53610Y-96045
X53610Y-98585
X53610Y-101125
X53610Y-103665
X53610Y-106205
X56150Y-88425
X56150Y-90965
X56150Y-93505
X56150Y-96045
X56150Y-98585
X56150Y-101125
X56150Y-103665
X56150Y-106205
X88620Y-78265
X88620Y-80805
X88620Y-83345
X88620Y-85885
X88620Y-88425
X88620Y-90965
X88620Y-93505
X88620Y-96045
X88620Y-98585
X88620Y-101125
X88620Y-103665
X88620Y-106205
X91160Y-78265
X91160Y-80805
X91160Y-83345
X91160Y-85885
X91160Y-88425
X91160Y-90965
X91160Y-93505
X91160Y-96045
X91160Y-98585
X91160Y-101125
X91160Y-103665
X91160Y-106205
X93767Y-99791
X93767Y-102331
X93767Y-104871
X89678Y-48260
X89678Y-50800
X89678Y-53340
X89678Y-55880
T4
X54000Y-68142
T5
X51460Y-65602
X51460Y-70682
X56540Y-65602
X56540Y-70682
T0
M30
