G04 #@! TF.GenerationSoftware,KiCad,Pcbnew,5.0.2-bee76a0~70~ubuntu16.04.1*
G04 #@! TF.CreationDate,2020-11-05T00:34:30+01:00*
G04 #@! TF.ProjectId,WiRoc_NanoPi_v1,5769526f-635f-44e6-916e-6f50695f7631,rev?*
G04 #@! TF.SameCoordinates,Original*
G04 #@! TF.FileFunction,Legend,Bot*
G04 #@! TF.FilePolarity,Positive*
%FSLAX46Y46*%
G04 Gerber Fmt 4.6, Leading zero omitted, Abs format (unit mm)*
G04 Created by KiCad (PCBNEW 5.0.2-bee76a0~70~ubuntu16.04.1) date tor  5 nov 2020 00:34:30*
%MOMM*%
%LPD*%
G01*
G04 APERTURE LIST*
%ADD10C,0.120000*%
%ADD11C,0.150000*%
G04 APERTURE END LIST*
D10*
G04 #@! TO.C,J1*
X48880000Y-107620000D02*
X50210000Y-107620000D01*
X48880000Y-106290000D02*
X48880000Y-107620000D01*
X48880000Y-105020000D02*
X51540000Y-105020000D01*
X51540000Y-105020000D02*
X51540000Y-102420000D01*
X48880000Y-105020000D02*
X48880000Y-102420000D01*
X48880000Y-102420000D02*
X51540000Y-102420000D01*
G04 #@! TO.C,SW1*
X75431400Y-111871800D02*
X75431400Y-113201800D01*
X76761400Y-111871800D02*
X75431400Y-111871800D01*
X78031400Y-111871800D02*
X78031400Y-114531800D01*
X78031400Y-114531800D02*
X80631400Y-114531800D01*
X78031400Y-111871800D02*
X80631400Y-111871800D01*
X80631400Y-111871800D02*
X80631400Y-114531800D01*
G04 #@! TO.C,J9*
X52550000Y-71497200D02*
X55450000Y-71497200D01*
X52550000Y-64787200D02*
X55450000Y-64787200D01*
X57355000Y-69592200D02*
X57355000Y-66692200D01*
X50645000Y-69592200D02*
X50645000Y-66692200D01*
G04 #@! TO.C,TP1*
D11*
X82971284Y-103648960D02*
X82399856Y-103648960D01*
X82685570Y-104648960D02*
X82685570Y-103648960D01*
X82066522Y-104648960D02*
X82066522Y-103648960D01*
X81685570Y-103648960D01*
X81590332Y-103696580D01*
X81542713Y-103744199D01*
X81495094Y-103839437D01*
X81495094Y-103982294D01*
X81542713Y-104077532D01*
X81590332Y-104125151D01*
X81685570Y-104172770D01*
X82066522Y-104172770D01*
X80542713Y-104648960D02*
X81114141Y-104648960D01*
X80828427Y-104648960D02*
X80828427Y-103648960D01*
X80923665Y-103791818D01*
X81018903Y-103887056D01*
X81114141Y-103934675D01*
G04 #@! TO.C,J1*
X53242499Y-103522073D02*
X52528213Y-103522073D01*
X52385356Y-103569692D01*
X52290118Y-103664930D01*
X52242499Y-103807787D01*
X52242499Y-103903025D01*
X52242499Y-102522073D02*
X52242499Y-103093501D01*
X52242499Y-102807787D02*
X53242499Y-102807787D01*
X53099641Y-102903025D01*
X53004403Y-102998263D01*
X52956784Y-103093501D01*
G04 #@! TO.C,SW1*
X81195993Y-116091441D02*
X81053136Y-116139060D01*
X80815040Y-116139060D01*
X80719802Y-116091441D01*
X80672183Y-116043822D01*
X80624564Y-115948584D01*
X80624564Y-115853346D01*
X80672183Y-115758108D01*
X80719802Y-115710489D01*
X80815040Y-115662870D01*
X81005517Y-115615251D01*
X81100755Y-115567632D01*
X81148374Y-115520013D01*
X81195993Y-115424775D01*
X81195993Y-115329537D01*
X81148374Y-115234299D01*
X81100755Y-115186680D01*
X81005517Y-115139060D01*
X80767421Y-115139060D01*
X80624564Y-115186680D01*
X80291231Y-115139060D02*
X80053136Y-116139060D01*
X79862660Y-115424775D01*
X79672183Y-116139060D01*
X79434088Y-115139060D01*
X78529326Y-116139060D02*
X79100755Y-116139060D01*
X78815040Y-116139060D02*
X78815040Y-115139060D01*
X78910279Y-115281918D01*
X79005517Y-115377156D01*
X79100755Y-115424775D01*
G04 #@! TO.C,J9*
X54333333Y-72344580D02*
X54333333Y-73058866D01*
X54380952Y-73201723D01*
X54476190Y-73296961D01*
X54619047Y-73344580D01*
X54714285Y-73344580D01*
X53809523Y-73344580D02*
X53619047Y-73344580D01*
X53523809Y-73296961D01*
X53476190Y-73249342D01*
X53380952Y-73106485D01*
X53333333Y-72916009D01*
X53333333Y-72535057D01*
X53380952Y-72439819D01*
X53428571Y-72392200D01*
X53523809Y-72344580D01*
X53714285Y-72344580D01*
X53809523Y-72392200D01*
X53857142Y-72439819D01*
X53904761Y-72535057D01*
X53904761Y-72773152D01*
X53857142Y-72868390D01*
X53809523Y-72916009D01*
X53714285Y-72963628D01*
X53523809Y-72963628D01*
X53428571Y-72916009D01*
X53380952Y-72868390D01*
X53333333Y-72773152D01*
G04 #@! TO.C,TP2*
X77467700Y-78250615D02*
X77467700Y-78822043D01*
X78467700Y-78536329D02*
X77467700Y-78536329D01*
X78467700Y-79155377D02*
X77467700Y-79155377D01*
X77467700Y-79536329D01*
X77515320Y-79631567D01*
X77562939Y-79679186D01*
X77658177Y-79726805D01*
X77801034Y-79726805D01*
X77896272Y-79679186D01*
X77943891Y-79631567D01*
X77991510Y-79536329D01*
X77991510Y-79155377D01*
X77562939Y-80107758D02*
X77515320Y-80155377D01*
X77467700Y-80250615D01*
X77467700Y-80488710D01*
X77515320Y-80583948D01*
X77562939Y-80631567D01*
X77658177Y-80679186D01*
X77753415Y-80679186D01*
X77896272Y-80631567D01*
X78467700Y-80060139D01*
X78467700Y-80679186D01*
G04 #@! TO.C,TP3*
X82011580Y-83895235D02*
X82011580Y-84466663D01*
X83011580Y-84180949D02*
X82011580Y-84180949D01*
X83011580Y-84799997D02*
X82011580Y-84799997D01*
X82011580Y-85180949D01*
X82059200Y-85276187D01*
X82106819Y-85323806D01*
X82202057Y-85371425D01*
X82344914Y-85371425D01*
X82440152Y-85323806D01*
X82487771Y-85276187D01*
X82535390Y-85180949D01*
X82535390Y-84799997D01*
X82011580Y-85704759D02*
X82011580Y-86323806D01*
X82392533Y-85990473D01*
X82392533Y-86133330D01*
X82440152Y-86228568D01*
X82487771Y-86276187D01*
X82583009Y-86323806D01*
X82821104Y-86323806D01*
X82916342Y-86276187D01*
X82963961Y-86228568D01*
X83011580Y-86133330D01*
X83011580Y-85847616D01*
X82963961Y-85752378D01*
X82916342Y-85704759D01*
G04 #@! TO.C,TP4*
X70145780Y-52180395D02*
X70145780Y-52751823D01*
X71145780Y-52466109D02*
X70145780Y-52466109D01*
X71145780Y-53085157D02*
X70145780Y-53085157D01*
X70145780Y-53466109D01*
X70193400Y-53561347D01*
X70241019Y-53608966D01*
X70336257Y-53656585D01*
X70479114Y-53656585D01*
X70574352Y-53608966D01*
X70621971Y-53561347D01*
X70669590Y-53466109D01*
X70669590Y-53085157D01*
X70479114Y-54513728D02*
X71145780Y-54513728D01*
X70098161Y-54275633D02*
X70812447Y-54037538D01*
X70812447Y-54656585D01*
G04 #@! TO.C,TP9*
X84163980Y-49303495D02*
X84163980Y-49874923D01*
X85163980Y-49589209D02*
X84163980Y-49589209D01*
X85163980Y-50208257D02*
X84163980Y-50208257D01*
X84163980Y-50589209D01*
X84211600Y-50684447D01*
X84259219Y-50732066D01*
X84354457Y-50779685D01*
X84497314Y-50779685D01*
X84592552Y-50732066D01*
X84640171Y-50684447D01*
X84687790Y-50589209D01*
X84687790Y-50208257D01*
X85163980Y-51255876D02*
X85163980Y-51446352D01*
X85116361Y-51541590D01*
X85068742Y-51589209D01*
X84925885Y-51684447D01*
X84735409Y-51732066D01*
X84354457Y-51732066D01*
X84259219Y-51684447D01*
X84211600Y-51636828D01*
X84163980Y-51541590D01*
X84163980Y-51351114D01*
X84211600Y-51255876D01*
X84259219Y-51208257D01*
X84354457Y-51160638D01*
X84592552Y-51160638D01*
X84687790Y-51208257D01*
X84735409Y-51255876D01*
X84783028Y-51351114D01*
X84783028Y-51541590D01*
X84735409Y-51636828D01*
X84687790Y-51684447D01*
X84592552Y-51732066D01*
G04 #@! TO.C,TP10*
X84905660Y-52698964D02*
X84905660Y-53270393D01*
X85905660Y-52984679D02*
X84905660Y-52984679D01*
X85905660Y-53603726D02*
X84905660Y-53603726D01*
X84905660Y-53984679D01*
X84953280Y-54079917D01*
X85000899Y-54127536D01*
X85096137Y-54175155D01*
X85238994Y-54175155D01*
X85334232Y-54127536D01*
X85381851Y-54079917D01*
X85429470Y-53984679D01*
X85429470Y-53603726D01*
X85905660Y-55127536D02*
X85905660Y-54556107D01*
X85905660Y-54841821D02*
X84905660Y-54841821D01*
X85048518Y-54746583D01*
X85143756Y-54651345D01*
X85191375Y-54556107D01*
X84905660Y-55746583D02*
X84905660Y-55841821D01*
X84953280Y-55937060D01*
X85000899Y-55984679D01*
X85096137Y-56032298D01*
X85286613Y-56079917D01*
X85524708Y-56079917D01*
X85715184Y-56032298D01*
X85810422Y-55984679D01*
X85858041Y-55937060D01*
X85905660Y-55841821D01*
X85905660Y-55746583D01*
X85858041Y-55651345D01*
X85810422Y-55603726D01*
X85715184Y-55556107D01*
X85524708Y-55508488D01*
X85286613Y-55508488D01*
X85096137Y-55556107D01*
X85000899Y-55603726D01*
X84953280Y-55651345D01*
X84905660Y-55746583D01*
G04 #@! TO.C,TP11*
X80750280Y-49202304D02*
X80750280Y-49773733D01*
X81750280Y-49488019D02*
X80750280Y-49488019D01*
X81750280Y-50107066D02*
X80750280Y-50107066D01*
X80750280Y-50488019D01*
X80797900Y-50583257D01*
X80845519Y-50630876D01*
X80940757Y-50678495D01*
X81083614Y-50678495D01*
X81178852Y-50630876D01*
X81226471Y-50583257D01*
X81274090Y-50488019D01*
X81274090Y-50107066D01*
X81750280Y-51630876D02*
X81750280Y-51059447D01*
X81750280Y-51345161D02*
X80750280Y-51345161D01*
X80893138Y-51249923D01*
X80988376Y-51154685D01*
X81035995Y-51059447D01*
X81750280Y-52583257D02*
X81750280Y-52011828D01*
X81750280Y-52297542D02*
X80750280Y-52297542D01*
X80893138Y-52202304D01*
X80988376Y-52107066D01*
X81035995Y-52011828D01*
G04 #@! TO.C,TP14*
X56924980Y-55040104D02*
X56924980Y-55611533D01*
X57924980Y-55325819D02*
X56924980Y-55325819D01*
X57924980Y-55944866D02*
X56924980Y-55944866D01*
X56924980Y-56325819D01*
X56972600Y-56421057D01*
X57020219Y-56468676D01*
X57115457Y-56516295D01*
X57258314Y-56516295D01*
X57353552Y-56468676D01*
X57401171Y-56421057D01*
X57448790Y-56325819D01*
X57448790Y-55944866D01*
X57924980Y-57468676D02*
X57924980Y-56897247D01*
X57924980Y-57182961D02*
X56924980Y-57182961D01*
X57067838Y-57087723D01*
X57163076Y-56992485D01*
X57210695Y-56897247D01*
X57258314Y-58325819D02*
X57924980Y-58325819D01*
X56877361Y-58087723D02*
X57591647Y-57849628D01*
X57591647Y-58468676D01*
G04 #@! TD*
M02*
