G04 #@! TF.GenerationSoftware,KiCad,Pcbnew,5.0.2-bee76a0~70~ubuntu16.04.1*
G04 #@! TF.CreationDate,2020-11-05T00:34:30+01:00*
G04 #@! TF.ProjectId,WiRoc_NanoPi_v1,5769526f-635f-44e6-916e-6f50695f7631,rev?*
G04 #@! TF.SameCoordinates,Original*
G04 #@! TF.FileFunction,Profile,NP*
%FSLAX46Y46*%
G04 Gerber Fmt 4.6, Leading zero omitted, Abs format (unit mm)*
G04 Created by KiCad (PCBNEW 5.0.2-bee76a0~70~ubuntu16.04.1) date tor  5 nov 2020 00:34:30*
%MOMM*%
%LPD*%
G01*
G04 APERTURE LIST*
%ADD10C,0.200000*%
G04 APERTURE END LIST*
D10*
X48406775Y-48989525D02*
G75*
G03X48000000Y-49487300I93225J-491275D01*
G01*
X52485492Y-47006107D02*
G75*
G02X52890000Y-46800000I404508J-293893D01*
G01*
X52465186Y-47025476D02*
G75*
G02X48409500Y-48987300I-4455686J4038176D01*
G01*
X90514508Y-47006107D02*
G75*
G03X90110000Y-46800000I-404508J-293893D01*
G01*
X90534814Y-47025476D02*
G75*
G03X94590500Y-48987300I4455686J4038176D01*
G01*
X94586824Y-49001096D02*
G75*
G02X95000000Y-49493500I-86824J-492404D01*
G01*
X52485492Y-111293893D02*
G75*
G03X52890000Y-111500000I404508J293893D01*
G01*
X52465186Y-111274524D02*
G75*
G03X48409500Y-109312700I-4455686J-4038176D01*
G01*
X48413176Y-109305104D02*
G75*
G02X48000000Y-108812700I86824J492404D01*
G01*
X90534814Y-111274524D02*
G75*
G02X94590500Y-109312700I4455686J-4038176D01*
G01*
X90514508Y-111293893D02*
G75*
G02X90110000Y-111500000I-404508J293893D01*
G01*
X94586824Y-109305104D02*
G75*
G03X95000000Y-108812700I-86824J492404D01*
G01*
X74958000Y-113481200D02*
X74958000Y-113786000D01*
X73000000Y-111500000D02*
X52850000Y-111500000D01*
X80038000Y-115056000D02*
X76177200Y-115056000D01*
X81308000Y-113481200D02*
X81308000Y-113836800D01*
X83300000Y-111500000D02*
X90150000Y-111500000D01*
X81306985Y-113836759D02*
G75*
G02X80038000Y-115056000I-1268985J50759D01*
G01*
X76177241Y-115054985D02*
G75*
G02X74958000Y-113786000I50759J1268985D01*
G01*
X72976800Y-111500000D02*
G75*
G02X74958000Y-113481200I0J-1981200D01*
G01*
X81308000Y-113481200D02*
G75*
G02X83289200Y-111500000I1981200J0D01*
G01*
X95000000Y-49500000D02*
X95000000Y-108800000D01*
X52850000Y-46800000D02*
X90150000Y-46800000D01*
X48000000Y-108800000D02*
X48000000Y-49500000D01*
M02*
