G04 #@! TF.GenerationSoftware,KiCad,Pcbnew,5.0.2-bee76a0~70~ubuntu16.04.1*
G04 #@! TF.CreationDate,2020-11-05T00:34:30+01:00*
G04 #@! TF.ProjectId,WiRoc_NanoPi_v1,5769526f-635f-44e6-916e-6f50695f7631,rev?*
G04 #@! TF.SameCoordinates,Original*
G04 #@! TF.FileFunction,Soldermask,Top*
G04 #@! TF.FilePolarity,Negative*
%FSLAX46Y46*%
G04 Gerber Fmt 4.6, Leading zero omitted, Abs format (unit mm)*
G04 Created by KiCad (PCBNEW 5.0.2-bee76a0~70~ubuntu16.04.1) date tor  5 nov 2020 00:34:30*
%MOMM*%
%LPD*%
G01*
G04 APERTURE LIST*
%ADD10C,0.100000*%
G04 APERTURE END LIST*
D10*
G36*
X79430107Y-112159396D02*
X79507236Y-112166993D01*
X79639187Y-112207020D01*
X79705163Y-112227033D01*
X79887572Y-112324533D01*
X80047454Y-112455746D01*
X80178667Y-112615628D01*
X80276167Y-112798037D01*
X80276167Y-112798038D01*
X80336207Y-112995964D01*
X80356480Y-113201800D01*
X80336207Y-113407636D01*
X80296180Y-113539587D01*
X80276167Y-113605563D01*
X80178667Y-113787972D01*
X80047454Y-113947854D01*
X79887572Y-114079067D01*
X79705163Y-114176567D01*
X79639187Y-114196580D01*
X79507236Y-114236607D01*
X79430107Y-114244204D01*
X79352980Y-114251800D01*
X79249820Y-114251800D01*
X79172693Y-114244204D01*
X79095564Y-114236607D01*
X78963613Y-114196580D01*
X78897637Y-114176567D01*
X78715228Y-114079067D01*
X78555346Y-113947854D01*
X78424133Y-113787972D01*
X78326633Y-113605563D01*
X78306620Y-113539587D01*
X78266593Y-113407636D01*
X78246320Y-113201800D01*
X78266593Y-112995964D01*
X78326633Y-112798038D01*
X78326633Y-112798037D01*
X78424133Y-112615628D01*
X78555346Y-112455746D01*
X78715228Y-112324533D01*
X78897637Y-112227033D01*
X78963613Y-112207020D01*
X79095564Y-112166993D01*
X79172693Y-112159396D01*
X79249820Y-112151800D01*
X79352980Y-112151800D01*
X79430107Y-112159396D01*
X79430107Y-112159396D01*
G37*
G36*
X77811400Y-114251800D02*
X75711400Y-114251800D01*
X75711400Y-112151800D01*
X77811400Y-112151800D01*
X77811400Y-114251800D01*
X77811400Y-114251800D01*
G37*
G36*
X71180000Y-111674000D02*
X64780000Y-111674000D01*
X64780000Y-107274000D01*
X71180000Y-107274000D01*
X71180000Y-111674000D01*
X71180000Y-111674000D01*
G37*
G36*
X88748707Y-105162597D02*
X88825836Y-105170193D01*
X88957787Y-105210220D01*
X89023763Y-105230233D01*
X89206172Y-105327733D01*
X89366054Y-105458946D01*
X89497267Y-105618828D01*
X89594767Y-105801237D01*
X89594767Y-105801238D01*
X89654807Y-105999164D01*
X89675080Y-106205000D01*
X89654807Y-106410836D01*
X89614780Y-106542787D01*
X89594767Y-106608763D01*
X89497267Y-106791172D01*
X89366054Y-106951054D01*
X89242596Y-107052374D01*
X89225269Y-107069701D01*
X89211655Y-107090076D01*
X89202277Y-107112715D01*
X89197497Y-107136748D01*
X89197497Y-107161252D01*
X89202277Y-107185286D01*
X89211655Y-107207925D01*
X89225269Y-107228299D01*
X89242596Y-107245626D01*
X89262971Y-107259240D01*
X89285610Y-107268618D01*
X89321895Y-107274000D01*
X89680000Y-107274000D01*
X89680000Y-111674000D01*
X83280000Y-111674000D01*
X83280000Y-107274000D01*
X87918105Y-107274000D01*
X87942491Y-107271598D01*
X87965940Y-107264485D01*
X87987551Y-107252934D01*
X88006493Y-107237388D01*
X88022039Y-107218446D01*
X88033590Y-107196835D01*
X88040703Y-107173386D01*
X88043105Y-107149000D01*
X88040703Y-107124614D01*
X88033590Y-107101165D01*
X88022039Y-107079554D01*
X87997404Y-107052374D01*
X87873946Y-106951054D01*
X87742733Y-106791172D01*
X87645233Y-106608763D01*
X87625220Y-106542787D01*
X87585193Y-106410836D01*
X87564920Y-106205000D01*
X87585193Y-105999164D01*
X87645233Y-105801238D01*
X87645233Y-105801237D01*
X87742733Y-105618828D01*
X87873946Y-105458946D01*
X88033828Y-105327733D01*
X88216237Y-105230233D01*
X88282213Y-105210220D01*
X88414164Y-105170193D01*
X88491293Y-105162597D01*
X88568420Y-105155000D01*
X88671580Y-105155000D01*
X88748707Y-105162597D01*
X88748707Y-105162597D01*
G37*
G36*
X56298622Y-109775517D02*
X56346585Y-109790066D01*
X56390775Y-109813686D01*
X56429518Y-109845482D01*
X56461314Y-109884225D01*
X56484934Y-109928415D01*
X56499483Y-109976378D01*
X56505000Y-110032391D01*
X56505000Y-110782609D01*
X56499483Y-110838622D01*
X56484934Y-110886585D01*
X56461314Y-110930775D01*
X56429518Y-110969518D01*
X56390775Y-111001314D01*
X56346585Y-111024934D01*
X56298622Y-111039483D01*
X56242609Y-111045000D01*
X55417391Y-111045000D01*
X55361378Y-111039483D01*
X55313415Y-111024934D01*
X55269225Y-111001314D01*
X55230482Y-110969518D01*
X55198686Y-110930775D01*
X55175066Y-110886585D01*
X55160517Y-110838622D01*
X55155000Y-110782609D01*
X55155000Y-110032391D01*
X55160517Y-109976378D01*
X55175066Y-109928415D01*
X55198686Y-109884225D01*
X55230482Y-109845482D01*
X55269225Y-109813686D01*
X55313415Y-109790066D01*
X55361378Y-109775517D01*
X55417391Y-109770000D01*
X56242609Y-109770000D01*
X56298622Y-109775517D01*
X56298622Y-109775517D01*
G37*
G36*
X52976122Y-108250517D02*
X53024085Y-108265066D01*
X53068275Y-108288686D01*
X53107018Y-108320482D01*
X53138814Y-108359225D01*
X53162434Y-108403415D01*
X53176983Y-108451378D01*
X53182500Y-108507391D01*
X53182500Y-109332609D01*
X53176983Y-109388622D01*
X53162434Y-109436585D01*
X53138814Y-109480775D01*
X53107018Y-109519518D01*
X53068275Y-109551314D01*
X53024085Y-109574934D01*
X52976122Y-109589483D01*
X52920109Y-109595000D01*
X52169891Y-109595000D01*
X52113878Y-109589483D01*
X52065915Y-109574934D01*
X52021725Y-109551314D01*
X51982982Y-109519518D01*
X51951186Y-109480775D01*
X51927566Y-109436585D01*
X51913017Y-109388622D01*
X51907500Y-109332609D01*
X51907500Y-108507391D01*
X51913017Y-108451378D01*
X51927566Y-108403415D01*
X51951186Y-108359225D01*
X51982982Y-108320482D01*
X52021725Y-108288686D01*
X52065915Y-108265066D01*
X52113878Y-108250517D01*
X52169891Y-108245000D01*
X52920109Y-108245000D01*
X52976122Y-108250517D01*
X52976122Y-108250517D01*
G37*
G36*
X54551122Y-108250517D02*
X54599085Y-108265066D01*
X54643275Y-108288686D01*
X54682018Y-108320482D01*
X54713814Y-108359225D01*
X54737434Y-108403415D01*
X54751983Y-108451378D01*
X54757500Y-108507391D01*
X54757500Y-109332609D01*
X54751983Y-109388622D01*
X54737434Y-109436585D01*
X54713814Y-109480775D01*
X54682018Y-109519518D01*
X54643275Y-109551314D01*
X54599085Y-109574934D01*
X54551122Y-109589483D01*
X54495109Y-109595000D01*
X53744891Y-109595000D01*
X53688878Y-109589483D01*
X53640915Y-109574934D01*
X53596725Y-109551314D01*
X53557982Y-109519518D01*
X53526186Y-109480775D01*
X53502566Y-109436585D01*
X53488017Y-109388622D01*
X53482500Y-109332609D01*
X53482500Y-108507391D01*
X53488017Y-108451378D01*
X53502566Y-108403415D01*
X53526186Y-108359225D01*
X53557982Y-108320482D01*
X53596725Y-108288686D01*
X53640915Y-108265066D01*
X53688878Y-108250517D01*
X53744891Y-108245000D01*
X54495109Y-108245000D01*
X54551122Y-108250517D01*
X54551122Y-108250517D01*
G37*
G36*
X56298622Y-108200517D02*
X56346585Y-108215066D01*
X56390775Y-108238686D01*
X56429518Y-108270482D01*
X56461314Y-108309225D01*
X56484934Y-108353415D01*
X56499483Y-108401378D01*
X56505000Y-108457391D01*
X56505000Y-109207609D01*
X56499483Y-109263622D01*
X56484934Y-109311585D01*
X56461314Y-109355775D01*
X56429518Y-109394518D01*
X56390775Y-109426314D01*
X56346585Y-109449934D01*
X56298622Y-109464483D01*
X56242609Y-109470000D01*
X55417391Y-109470000D01*
X55361378Y-109464483D01*
X55313415Y-109449934D01*
X55269225Y-109426314D01*
X55230482Y-109394518D01*
X55198686Y-109355775D01*
X55175066Y-109311585D01*
X55160517Y-109263622D01*
X55155000Y-109207609D01*
X55155000Y-108457391D01*
X55160517Y-108401378D01*
X55175066Y-108353415D01*
X55198686Y-108309225D01*
X55230482Y-108270482D01*
X55269225Y-108238686D01*
X55313415Y-108215066D01*
X55361378Y-108200517D01*
X55417391Y-108195000D01*
X56242609Y-108195000D01*
X56298622Y-108200517D01*
X56298622Y-108200517D01*
G37*
G36*
X51260000Y-107340000D02*
X49160000Y-107340000D01*
X49160000Y-105240000D01*
X51260000Y-105240000D01*
X51260000Y-107340000D01*
X51260000Y-107340000D01*
G37*
G36*
X53738707Y-105162597D02*
X53815836Y-105170193D01*
X53947787Y-105210220D01*
X54013763Y-105230233D01*
X54196172Y-105327733D01*
X54356054Y-105458946D01*
X54487267Y-105618828D01*
X54584767Y-105801237D01*
X54584767Y-105801238D01*
X54644807Y-105999164D01*
X54665080Y-106205000D01*
X54644807Y-106410836D01*
X54604780Y-106542787D01*
X54584767Y-106608763D01*
X54487267Y-106791172D01*
X54356054Y-106951054D01*
X54196172Y-107082267D01*
X54013763Y-107179767D01*
X53957496Y-107196835D01*
X53815836Y-107239807D01*
X53756754Y-107245626D01*
X53661580Y-107255000D01*
X53558420Y-107255000D01*
X53463246Y-107245626D01*
X53404164Y-107239807D01*
X53262504Y-107196835D01*
X53206237Y-107179767D01*
X53023828Y-107082267D01*
X52863946Y-106951054D01*
X52732733Y-106791172D01*
X52635233Y-106608763D01*
X52615220Y-106542787D01*
X52575193Y-106410836D01*
X52554920Y-106205000D01*
X52575193Y-105999164D01*
X52635233Y-105801238D01*
X52635233Y-105801237D01*
X52732733Y-105618828D01*
X52863946Y-105458946D01*
X53023828Y-105327733D01*
X53206237Y-105230233D01*
X53272213Y-105210220D01*
X53404164Y-105170193D01*
X53481293Y-105162597D01*
X53558420Y-105155000D01*
X53661580Y-105155000D01*
X53738707Y-105162597D01*
X53738707Y-105162597D01*
G37*
G36*
X57200000Y-107255000D02*
X55100000Y-107255000D01*
X55100000Y-105155000D01*
X57200000Y-105155000D01*
X57200000Y-107255000D01*
X57200000Y-107255000D01*
G37*
G36*
X91288707Y-105162597D02*
X91365836Y-105170193D01*
X91497787Y-105210220D01*
X91563763Y-105230233D01*
X91746172Y-105327733D01*
X91906054Y-105458946D01*
X92037267Y-105618828D01*
X92134767Y-105801237D01*
X92134767Y-105801238D01*
X92194807Y-105999164D01*
X92215080Y-106205000D01*
X92194807Y-106410836D01*
X92154780Y-106542787D01*
X92134767Y-106608763D01*
X92037267Y-106791172D01*
X91906054Y-106951054D01*
X91746172Y-107082267D01*
X91563763Y-107179767D01*
X91507496Y-107196835D01*
X91365836Y-107239807D01*
X91306754Y-107245626D01*
X91211580Y-107255000D01*
X91108420Y-107255000D01*
X91013246Y-107245626D01*
X90954164Y-107239807D01*
X90812504Y-107196835D01*
X90756237Y-107179767D01*
X90573828Y-107082267D01*
X90413946Y-106951054D01*
X90282733Y-106791172D01*
X90185233Y-106608763D01*
X90165220Y-106542787D01*
X90125193Y-106410836D01*
X90104920Y-106205000D01*
X90125193Y-105999164D01*
X90185233Y-105801238D01*
X90185233Y-105801237D01*
X90282733Y-105618828D01*
X90413946Y-105458946D01*
X90573828Y-105327733D01*
X90756237Y-105230233D01*
X90822213Y-105210220D01*
X90954164Y-105170193D01*
X91031293Y-105162597D01*
X91108420Y-105155000D01*
X91211580Y-105155000D01*
X91288707Y-105162597D01*
X91288707Y-105162597D01*
G37*
G36*
X94816700Y-105920600D02*
X92716700Y-105920600D01*
X92716700Y-103820600D01*
X94816700Y-103820600D01*
X94816700Y-105920600D01*
X94816700Y-105920600D01*
G37*
G36*
X50338707Y-102707597D02*
X50415836Y-102715193D01*
X50547787Y-102755220D01*
X50613763Y-102775233D01*
X50796172Y-102872733D01*
X50956054Y-103003946D01*
X51087267Y-103163828D01*
X51184767Y-103346237D01*
X51184767Y-103346238D01*
X51244807Y-103544164D01*
X51265080Y-103750000D01*
X51244807Y-103955836D01*
X51210551Y-104068762D01*
X51184767Y-104153763D01*
X51087267Y-104336172D01*
X50956054Y-104496054D01*
X50796172Y-104627267D01*
X50613763Y-104724767D01*
X50547787Y-104744780D01*
X50415836Y-104784807D01*
X50338707Y-104792403D01*
X50261580Y-104800000D01*
X50158420Y-104800000D01*
X50081293Y-104792403D01*
X50004164Y-104784807D01*
X49872213Y-104744780D01*
X49806237Y-104724767D01*
X49623828Y-104627267D01*
X49463946Y-104496054D01*
X49332733Y-104336172D01*
X49235233Y-104153763D01*
X49209449Y-104068762D01*
X49175193Y-103955836D01*
X49154920Y-103750000D01*
X49175193Y-103544164D01*
X49235233Y-103346238D01*
X49235233Y-103346237D01*
X49332733Y-103163828D01*
X49463946Y-103003946D01*
X49623828Y-102872733D01*
X49806237Y-102775233D01*
X49872213Y-102755220D01*
X50004164Y-102715193D01*
X50081293Y-102707597D01*
X50158420Y-102700000D01*
X50261580Y-102700000D01*
X50338707Y-102707597D01*
X50338707Y-102707597D01*
G37*
G36*
X53738707Y-102622597D02*
X53815836Y-102630193D01*
X53947787Y-102670220D01*
X54013763Y-102690233D01*
X54196172Y-102787733D01*
X54356054Y-102918946D01*
X54487267Y-103078828D01*
X54584767Y-103261237D01*
X54584767Y-103261238D01*
X54644807Y-103459164D01*
X54665080Y-103665000D01*
X54644807Y-103870836D01*
X54604780Y-104002787D01*
X54584767Y-104068763D01*
X54487267Y-104251172D01*
X54356054Y-104411054D01*
X54196172Y-104542267D01*
X54013763Y-104639767D01*
X53947787Y-104659780D01*
X53815836Y-104699807D01*
X53738707Y-104707404D01*
X53661580Y-104715000D01*
X53558420Y-104715000D01*
X53481293Y-104707404D01*
X53404164Y-104699807D01*
X53272213Y-104659780D01*
X53206237Y-104639767D01*
X53023828Y-104542267D01*
X52863946Y-104411054D01*
X52732733Y-104251172D01*
X52635233Y-104068763D01*
X52615220Y-104002787D01*
X52575193Y-103870836D01*
X52554920Y-103665000D01*
X52575193Y-103459164D01*
X52635233Y-103261238D01*
X52635233Y-103261237D01*
X52732733Y-103078828D01*
X52863946Y-102918946D01*
X53023828Y-102787733D01*
X53206237Y-102690233D01*
X53272213Y-102670220D01*
X53404164Y-102630193D01*
X53481293Y-102622597D01*
X53558420Y-102615000D01*
X53661580Y-102615000D01*
X53738707Y-102622597D01*
X53738707Y-102622597D01*
G37*
G36*
X56278707Y-102622597D02*
X56355836Y-102630193D01*
X56487787Y-102670220D01*
X56553763Y-102690233D01*
X56736172Y-102787733D01*
X56896054Y-102918946D01*
X57027267Y-103078828D01*
X57124767Y-103261237D01*
X57124767Y-103261238D01*
X57184807Y-103459164D01*
X57205080Y-103665000D01*
X57184807Y-103870836D01*
X57144780Y-104002787D01*
X57124767Y-104068763D01*
X57027267Y-104251172D01*
X56896054Y-104411054D01*
X56736172Y-104542267D01*
X56553763Y-104639767D01*
X56487787Y-104659780D01*
X56355836Y-104699807D01*
X56278707Y-104707404D01*
X56201580Y-104715000D01*
X56098420Y-104715000D01*
X56021293Y-104707404D01*
X55944164Y-104699807D01*
X55812213Y-104659780D01*
X55746237Y-104639767D01*
X55563828Y-104542267D01*
X55403946Y-104411054D01*
X55272733Y-104251172D01*
X55175233Y-104068763D01*
X55155220Y-104002787D01*
X55115193Y-103870836D01*
X55094920Y-103665000D01*
X55115193Y-103459164D01*
X55175233Y-103261238D01*
X55175233Y-103261237D01*
X55272733Y-103078828D01*
X55403946Y-102918946D01*
X55563828Y-102787733D01*
X55746237Y-102690233D01*
X55812213Y-102670220D01*
X55944164Y-102630193D01*
X56021293Y-102622597D01*
X56098420Y-102615000D01*
X56201580Y-102615000D01*
X56278707Y-102622597D01*
X56278707Y-102622597D01*
G37*
G36*
X88748707Y-102622597D02*
X88825836Y-102630193D01*
X88957787Y-102670220D01*
X89023763Y-102690233D01*
X89206172Y-102787733D01*
X89366054Y-102918946D01*
X89497267Y-103078828D01*
X89594767Y-103261237D01*
X89594767Y-103261238D01*
X89654807Y-103459164D01*
X89675080Y-103665000D01*
X89654807Y-103870836D01*
X89614780Y-104002787D01*
X89594767Y-104068763D01*
X89497267Y-104251172D01*
X89366054Y-104411054D01*
X89206172Y-104542267D01*
X89023763Y-104639767D01*
X88957787Y-104659780D01*
X88825836Y-104699807D01*
X88748707Y-104707404D01*
X88671580Y-104715000D01*
X88568420Y-104715000D01*
X88491293Y-104707404D01*
X88414164Y-104699807D01*
X88282213Y-104659780D01*
X88216237Y-104639767D01*
X88033828Y-104542267D01*
X87873946Y-104411054D01*
X87742733Y-104251172D01*
X87645233Y-104068763D01*
X87625220Y-104002787D01*
X87585193Y-103870836D01*
X87564920Y-103665000D01*
X87585193Y-103459164D01*
X87645233Y-103261238D01*
X87645233Y-103261237D01*
X87742733Y-103078828D01*
X87873946Y-102918946D01*
X88033828Y-102787733D01*
X88216237Y-102690233D01*
X88282213Y-102670220D01*
X88414164Y-102630193D01*
X88491293Y-102622597D01*
X88568420Y-102615000D01*
X88671580Y-102615000D01*
X88748707Y-102622597D01*
X88748707Y-102622597D01*
G37*
G36*
X91288707Y-102622597D02*
X91365836Y-102630193D01*
X91497787Y-102670220D01*
X91563763Y-102690233D01*
X91746172Y-102787733D01*
X91906054Y-102918946D01*
X92037267Y-103078828D01*
X92134767Y-103261237D01*
X92134767Y-103261238D01*
X92194807Y-103459164D01*
X92215080Y-103665000D01*
X92194807Y-103870836D01*
X92154780Y-104002787D01*
X92134767Y-104068763D01*
X92037267Y-104251172D01*
X91906054Y-104411054D01*
X91746172Y-104542267D01*
X91563763Y-104639767D01*
X91497787Y-104659780D01*
X91365836Y-104699807D01*
X91288707Y-104707404D01*
X91211580Y-104715000D01*
X91108420Y-104715000D01*
X91031293Y-104707404D01*
X90954164Y-104699807D01*
X90822213Y-104659780D01*
X90756237Y-104639767D01*
X90573828Y-104542267D01*
X90413946Y-104411054D01*
X90282733Y-104251172D01*
X90185233Y-104068763D01*
X90165220Y-104002787D01*
X90125193Y-103870836D01*
X90104920Y-103665000D01*
X90125193Y-103459164D01*
X90185233Y-103261238D01*
X90185233Y-103261237D01*
X90282733Y-103078828D01*
X90413946Y-102918946D01*
X90573828Y-102787733D01*
X90756237Y-102690233D01*
X90822213Y-102670220D01*
X90954164Y-102630193D01*
X91031293Y-102622597D01*
X91108420Y-102615000D01*
X91211580Y-102615000D01*
X91288707Y-102622597D01*
X91288707Y-102622597D01*
G37*
G36*
X93895407Y-101288197D02*
X93972536Y-101295793D01*
X94104487Y-101335820D01*
X94170463Y-101355833D01*
X94352872Y-101453333D01*
X94512754Y-101584546D01*
X94643967Y-101744428D01*
X94741467Y-101926837D01*
X94741467Y-101926838D01*
X94801507Y-102124764D01*
X94821780Y-102330600D01*
X94801507Y-102536436D01*
X94777675Y-102615000D01*
X94741467Y-102734363D01*
X94643967Y-102916772D01*
X94512754Y-103076654D01*
X94352872Y-103207867D01*
X94170463Y-103305367D01*
X94104487Y-103325380D01*
X93972536Y-103365407D01*
X93895407Y-103373004D01*
X93818280Y-103380600D01*
X93715120Y-103380600D01*
X93637993Y-103373004D01*
X93560864Y-103365407D01*
X93428913Y-103325380D01*
X93362937Y-103305367D01*
X93180528Y-103207867D01*
X93020646Y-103076654D01*
X92889433Y-102916772D01*
X92791933Y-102734363D01*
X92755725Y-102615000D01*
X92731893Y-102536436D01*
X92711620Y-102330600D01*
X92731893Y-102124764D01*
X92791933Y-101926838D01*
X92791933Y-101926837D01*
X92889433Y-101744428D01*
X93020646Y-101584546D01*
X93180528Y-101453333D01*
X93362937Y-101355833D01*
X93428913Y-101335820D01*
X93560864Y-101295793D01*
X93637993Y-101288197D01*
X93715120Y-101280600D01*
X93818280Y-101280600D01*
X93895407Y-101288197D01*
X93895407Y-101288197D01*
G37*
G36*
X88748707Y-100082597D02*
X88825836Y-100090193D01*
X88957787Y-100130220D01*
X89023763Y-100150233D01*
X89206172Y-100247733D01*
X89366054Y-100378946D01*
X89497267Y-100538828D01*
X89594767Y-100721237D01*
X89594767Y-100721238D01*
X89654807Y-100919164D01*
X89675080Y-101125000D01*
X89654807Y-101330836D01*
X89647224Y-101355833D01*
X89594767Y-101528763D01*
X89497267Y-101711172D01*
X89366054Y-101871054D01*
X89206172Y-102002267D01*
X89023763Y-102099767D01*
X88957787Y-102119780D01*
X88825836Y-102159807D01*
X88748707Y-102167404D01*
X88671580Y-102175000D01*
X88568420Y-102175000D01*
X88491293Y-102167404D01*
X88414164Y-102159807D01*
X88282213Y-102119780D01*
X88216237Y-102099767D01*
X88033828Y-102002267D01*
X87873946Y-101871054D01*
X87742733Y-101711172D01*
X87645233Y-101528763D01*
X87592776Y-101355833D01*
X87585193Y-101330836D01*
X87564920Y-101125000D01*
X87585193Y-100919164D01*
X87645233Y-100721238D01*
X87645233Y-100721237D01*
X87742733Y-100538828D01*
X87873946Y-100378946D01*
X88033828Y-100247733D01*
X88216237Y-100150233D01*
X88282213Y-100130220D01*
X88414164Y-100090193D01*
X88491293Y-100082597D01*
X88568420Y-100075000D01*
X88671580Y-100075000D01*
X88748707Y-100082597D01*
X88748707Y-100082597D01*
G37*
G36*
X91288707Y-100082597D02*
X91365836Y-100090193D01*
X91497787Y-100130220D01*
X91563763Y-100150233D01*
X91746172Y-100247733D01*
X91906054Y-100378946D01*
X92037267Y-100538828D01*
X92134767Y-100721237D01*
X92134767Y-100721238D01*
X92194807Y-100919164D01*
X92215080Y-101125000D01*
X92194807Y-101330836D01*
X92187224Y-101355833D01*
X92134767Y-101528763D01*
X92037267Y-101711172D01*
X91906054Y-101871054D01*
X91746172Y-102002267D01*
X91563763Y-102099767D01*
X91497787Y-102119780D01*
X91365836Y-102159807D01*
X91288707Y-102167404D01*
X91211580Y-102175000D01*
X91108420Y-102175000D01*
X91031293Y-102167404D01*
X90954164Y-102159807D01*
X90822213Y-102119780D01*
X90756237Y-102099767D01*
X90573828Y-102002267D01*
X90413946Y-101871054D01*
X90282733Y-101711172D01*
X90185233Y-101528763D01*
X90132776Y-101355833D01*
X90125193Y-101330836D01*
X90104920Y-101125000D01*
X90125193Y-100919164D01*
X90185233Y-100721238D01*
X90185233Y-100721237D01*
X90282733Y-100538828D01*
X90413946Y-100378946D01*
X90573828Y-100247733D01*
X90756237Y-100150233D01*
X90822213Y-100130220D01*
X90954164Y-100090193D01*
X91031293Y-100082597D01*
X91108420Y-100075000D01*
X91211580Y-100075000D01*
X91288707Y-100082597D01*
X91288707Y-100082597D01*
G37*
G36*
X53738707Y-100082597D02*
X53815836Y-100090193D01*
X53947787Y-100130220D01*
X54013763Y-100150233D01*
X54196172Y-100247733D01*
X54356054Y-100378946D01*
X54487267Y-100538828D01*
X54584767Y-100721237D01*
X54584767Y-100721238D01*
X54644807Y-100919164D01*
X54665080Y-101125000D01*
X54644807Y-101330836D01*
X54637224Y-101355833D01*
X54584767Y-101528763D01*
X54487267Y-101711172D01*
X54356054Y-101871054D01*
X54196172Y-102002267D01*
X54013763Y-102099767D01*
X53947787Y-102119780D01*
X53815836Y-102159807D01*
X53738707Y-102167404D01*
X53661580Y-102175000D01*
X53558420Y-102175000D01*
X53481293Y-102167404D01*
X53404164Y-102159807D01*
X53272213Y-102119780D01*
X53206237Y-102099767D01*
X53023828Y-102002267D01*
X52863946Y-101871054D01*
X52732733Y-101711172D01*
X52635233Y-101528763D01*
X52582776Y-101355833D01*
X52575193Y-101330836D01*
X52554920Y-101125000D01*
X52575193Y-100919164D01*
X52635233Y-100721238D01*
X52635233Y-100721237D01*
X52732733Y-100538828D01*
X52863946Y-100378946D01*
X53023828Y-100247733D01*
X53206237Y-100150233D01*
X53272213Y-100130220D01*
X53404164Y-100090193D01*
X53481293Y-100082597D01*
X53558420Y-100075000D01*
X53661580Y-100075000D01*
X53738707Y-100082597D01*
X53738707Y-100082597D01*
G37*
G36*
X56278707Y-100082597D02*
X56355836Y-100090193D01*
X56487787Y-100130220D01*
X56553763Y-100150233D01*
X56736172Y-100247733D01*
X56896054Y-100378946D01*
X57027267Y-100538828D01*
X57124767Y-100721237D01*
X57124767Y-100721238D01*
X57184807Y-100919164D01*
X57205080Y-101125000D01*
X57184807Y-101330836D01*
X57177224Y-101355833D01*
X57124767Y-101528763D01*
X57027267Y-101711172D01*
X56896054Y-101871054D01*
X56736172Y-102002267D01*
X56553763Y-102099767D01*
X56487787Y-102119780D01*
X56355836Y-102159807D01*
X56278707Y-102167404D01*
X56201580Y-102175000D01*
X56098420Y-102175000D01*
X56021293Y-102167404D01*
X55944164Y-102159807D01*
X55812213Y-102119780D01*
X55746237Y-102099767D01*
X55563828Y-102002267D01*
X55403946Y-101871054D01*
X55272733Y-101711172D01*
X55175233Y-101528763D01*
X55122776Y-101355833D01*
X55115193Y-101330836D01*
X55094920Y-101125000D01*
X55115193Y-100919164D01*
X55175233Y-100721238D01*
X55175233Y-100721237D01*
X55272733Y-100538828D01*
X55403946Y-100378946D01*
X55563828Y-100247733D01*
X55746237Y-100150233D01*
X55812213Y-100130220D01*
X55944164Y-100090193D01*
X56021293Y-100082597D01*
X56098420Y-100075000D01*
X56201580Y-100075000D01*
X56278707Y-100082597D01*
X56278707Y-100082597D01*
G37*
G36*
X93895407Y-98748196D02*
X93972536Y-98755793D01*
X94104487Y-98795820D01*
X94170463Y-98815833D01*
X94352872Y-98913333D01*
X94512754Y-99044546D01*
X94643967Y-99204428D01*
X94741467Y-99386837D01*
X94741467Y-99386838D01*
X94801507Y-99584764D01*
X94821780Y-99790600D01*
X94801507Y-99996436D01*
X94777675Y-100075000D01*
X94741467Y-100194363D01*
X94643967Y-100376772D01*
X94512754Y-100536654D01*
X94352872Y-100667867D01*
X94170463Y-100765367D01*
X94104487Y-100785380D01*
X93972536Y-100825407D01*
X93895407Y-100833004D01*
X93818280Y-100840600D01*
X93715120Y-100840600D01*
X93637993Y-100833003D01*
X93560864Y-100825407D01*
X93428913Y-100785380D01*
X93362937Y-100765367D01*
X93180528Y-100667867D01*
X93020646Y-100536654D01*
X92889433Y-100376772D01*
X92791933Y-100194363D01*
X92755725Y-100075000D01*
X92731893Y-99996436D01*
X92711620Y-99790600D01*
X92731893Y-99584764D01*
X92791933Y-99386838D01*
X92791933Y-99386837D01*
X92889433Y-99204428D01*
X93020646Y-99044546D01*
X93180528Y-98913333D01*
X93362937Y-98815833D01*
X93428913Y-98795820D01*
X93560864Y-98755793D01*
X93637993Y-98748196D01*
X93715120Y-98740600D01*
X93818280Y-98740600D01*
X93895407Y-98748196D01*
X93895407Y-98748196D01*
G37*
G36*
X50997532Y-92180746D02*
X51087070Y-92207907D01*
X51176609Y-92235068D01*
X51341647Y-92323283D01*
X51486301Y-92441999D01*
X51605017Y-92586653D01*
X51693232Y-92751691D01*
X51720393Y-92841230D01*
X51747554Y-92930768D01*
X51764344Y-93101238D01*
X51765896Y-93117000D01*
X51747554Y-93303231D01*
X51693232Y-93482309D01*
X51605017Y-93647347D01*
X51486301Y-93792001D01*
X51341647Y-93910717D01*
X51171900Y-94001449D01*
X51159077Y-94006760D01*
X51138703Y-94020374D01*
X51121376Y-94037702D01*
X51107762Y-94058076D01*
X51098385Y-94080716D01*
X51093605Y-94104749D01*
X51093605Y-94129253D01*
X51098386Y-94153287D01*
X51107763Y-94175926D01*
X51121377Y-94196300D01*
X51138705Y-94213627D01*
X51159079Y-94227241D01*
X51171901Y-94232552D01*
X51341647Y-94323283D01*
X51486301Y-94441999D01*
X51605017Y-94586653D01*
X51693232Y-94751691D01*
X51747554Y-94930769D01*
X51765896Y-95117000D01*
X51747554Y-95303231D01*
X51693232Y-95482309D01*
X51605017Y-95647347D01*
X51486301Y-95792001D01*
X51341647Y-95910717D01*
X51171900Y-96001449D01*
X51159077Y-96006760D01*
X51138703Y-96020374D01*
X51121376Y-96037702D01*
X51107762Y-96058076D01*
X51098385Y-96080716D01*
X51093605Y-96104749D01*
X51093605Y-96129253D01*
X51098386Y-96153287D01*
X51107763Y-96175926D01*
X51121377Y-96196300D01*
X51138705Y-96213627D01*
X51159079Y-96227241D01*
X51171901Y-96232552D01*
X51341647Y-96323283D01*
X51486301Y-96441999D01*
X51605017Y-96586653D01*
X51693232Y-96751691D01*
X51693232Y-96751692D01*
X51747554Y-96930768D01*
X51762233Y-97079807D01*
X51765896Y-97117000D01*
X51747554Y-97303231D01*
X51693232Y-97482309D01*
X51605017Y-97647347D01*
X51486301Y-97792001D01*
X51341647Y-97910717D01*
X51171900Y-98001449D01*
X51159077Y-98006760D01*
X51138703Y-98020374D01*
X51121376Y-98037702D01*
X51107762Y-98058076D01*
X51098385Y-98080716D01*
X51093605Y-98104749D01*
X51093605Y-98129253D01*
X51098386Y-98153287D01*
X51107763Y-98175926D01*
X51121377Y-98196300D01*
X51138705Y-98213627D01*
X51159079Y-98227241D01*
X51171901Y-98232552D01*
X51341647Y-98323283D01*
X51486301Y-98441999D01*
X51605017Y-98586653D01*
X51693232Y-98751691D01*
X51747554Y-98930769D01*
X51765896Y-99117000D01*
X51747554Y-99303231D01*
X51693232Y-99482309D01*
X51605017Y-99647347D01*
X51486301Y-99792001D01*
X51341647Y-99910717D01*
X51176609Y-99998932D01*
X51087070Y-100026093D01*
X50997532Y-100053254D01*
X50927748Y-100060127D01*
X50857966Y-100067000D01*
X50264634Y-100067000D01*
X50194852Y-100060127D01*
X50125068Y-100053254D01*
X50035530Y-100026093D01*
X49945991Y-99998932D01*
X49780953Y-99910717D01*
X49636299Y-99792001D01*
X49517583Y-99647347D01*
X49429368Y-99482309D01*
X49375046Y-99303231D01*
X49356704Y-99117000D01*
X49375046Y-98930769D01*
X49429368Y-98751691D01*
X49517583Y-98586653D01*
X49636299Y-98441999D01*
X49780953Y-98323283D01*
X49950700Y-98232551D01*
X49963523Y-98227240D01*
X49983897Y-98213626D01*
X50001224Y-98196298D01*
X50014838Y-98175924D01*
X50024215Y-98153284D01*
X50028995Y-98129251D01*
X50028995Y-98104747D01*
X50024214Y-98080713D01*
X50014837Y-98058074D01*
X50001223Y-98037700D01*
X49983895Y-98020373D01*
X49963521Y-98006759D01*
X49950699Y-98001448D01*
X49780953Y-97910717D01*
X49636299Y-97792001D01*
X49517583Y-97647347D01*
X49429368Y-97482309D01*
X49375046Y-97303231D01*
X49356704Y-97117000D01*
X49360367Y-97079807D01*
X49375046Y-96930768D01*
X49429368Y-96751692D01*
X49429368Y-96751691D01*
X49517583Y-96586653D01*
X49636299Y-96441999D01*
X49780953Y-96323283D01*
X49950700Y-96232551D01*
X49963523Y-96227240D01*
X49983897Y-96213626D01*
X50001224Y-96196298D01*
X50014838Y-96175924D01*
X50024215Y-96153284D01*
X50028995Y-96129251D01*
X50028995Y-96104747D01*
X50024214Y-96080713D01*
X50014837Y-96058074D01*
X50001223Y-96037700D01*
X49983895Y-96020373D01*
X49963521Y-96006759D01*
X49950699Y-96001448D01*
X49780953Y-95910717D01*
X49636299Y-95792001D01*
X49517583Y-95647347D01*
X49429368Y-95482309D01*
X49375046Y-95303231D01*
X49356704Y-95117000D01*
X49375046Y-94930769D01*
X49429368Y-94751691D01*
X49517583Y-94586653D01*
X49636299Y-94441999D01*
X49780953Y-94323283D01*
X49950700Y-94232551D01*
X49963523Y-94227240D01*
X49983897Y-94213626D01*
X50001224Y-94196298D01*
X50014838Y-94175924D01*
X50024215Y-94153284D01*
X50028995Y-94129251D01*
X50028995Y-94104747D01*
X50024214Y-94080713D01*
X50014837Y-94058074D01*
X50001223Y-94037700D01*
X49983895Y-94020373D01*
X49963521Y-94006759D01*
X49950699Y-94001448D01*
X49780953Y-93910717D01*
X49636299Y-93792001D01*
X49517583Y-93647347D01*
X49429368Y-93482309D01*
X49375046Y-93303231D01*
X49356704Y-93117000D01*
X49358256Y-93101238D01*
X49375046Y-92930768D01*
X49402207Y-92841230D01*
X49429368Y-92751691D01*
X49517583Y-92586653D01*
X49636299Y-92441999D01*
X49780953Y-92323283D01*
X49945991Y-92235068D01*
X50035530Y-92207907D01*
X50125068Y-92180746D01*
X50264634Y-92167000D01*
X50857966Y-92167000D01*
X50997532Y-92180746D01*
X50997532Y-92180746D01*
G37*
G36*
X91288707Y-97542596D02*
X91365836Y-97550193D01*
X91497787Y-97590220D01*
X91563763Y-97610233D01*
X91746172Y-97707733D01*
X91906054Y-97838946D01*
X92037267Y-97998828D01*
X92134767Y-98181237D01*
X92139336Y-98196300D01*
X92194807Y-98379164D01*
X92215080Y-98585000D01*
X92194807Y-98790836D01*
X92187224Y-98815833D01*
X92134767Y-98988763D01*
X92037267Y-99171172D01*
X91906054Y-99331054D01*
X91746172Y-99462267D01*
X91563763Y-99559767D01*
X91497787Y-99579780D01*
X91365836Y-99619807D01*
X91288707Y-99627404D01*
X91211580Y-99635000D01*
X91108420Y-99635000D01*
X91031293Y-99627404D01*
X90954164Y-99619807D01*
X90822213Y-99579780D01*
X90756237Y-99559767D01*
X90573828Y-99462267D01*
X90413946Y-99331054D01*
X90282733Y-99171172D01*
X90185233Y-98988763D01*
X90132776Y-98815833D01*
X90125193Y-98790836D01*
X90104920Y-98585000D01*
X90125193Y-98379164D01*
X90180664Y-98196300D01*
X90185233Y-98181237D01*
X90282733Y-97998828D01*
X90413946Y-97838946D01*
X90573828Y-97707733D01*
X90756237Y-97610233D01*
X90822213Y-97590220D01*
X90954164Y-97550193D01*
X91031293Y-97542596D01*
X91108420Y-97535000D01*
X91211580Y-97535000D01*
X91288707Y-97542596D01*
X91288707Y-97542596D01*
G37*
G36*
X56278707Y-97542596D02*
X56355836Y-97550193D01*
X56487787Y-97590220D01*
X56553763Y-97610233D01*
X56736172Y-97707733D01*
X56896054Y-97838946D01*
X57027267Y-97998828D01*
X57124767Y-98181237D01*
X57129336Y-98196300D01*
X57184807Y-98379164D01*
X57205080Y-98585000D01*
X57184807Y-98790836D01*
X57177224Y-98815833D01*
X57124767Y-98988763D01*
X57027267Y-99171172D01*
X56896054Y-99331054D01*
X56736172Y-99462267D01*
X56553763Y-99559767D01*
X56487787Y-99579780D01*
X56355836Y-99619807D01*
X56278707Y-99627404D01*
X56201580Y-99635000D01*
X56098420Y-99635000D01*
X56021293Y-99627404D01*
X55944164Y-99619807D01*
X55812213Y-99579780D01*
X55746237Y-99559767D01*
X55563828Y-99462267D01*
X55403946Y-99331054D01*
X55272733Y-99171172D01*
X55175233Y-98988763D01*
X55122776Y-98815833D01*
X55115193Y-98790836D01*
X55094920Y-98585000D01*
X55115193Y-98379164D01*
X55170664Y-98196300D01*
X55175233Y-98181237D01*
X55272733Y-97998828D01*
X55403946Y-97838946D01*
X55563828Y-97707733D01*
X55746237Y-97610233D01*
X55812213Y-97590220D01*
X55944164Y-97550193D01*
X56021293Y-97542596D01*
X56098420Y-97535000D01*
X56201580Y-97535000D01*
X56278707Y-97542596D01*
X56278707Y-97542596D01*
G37*
G36*
X53738707Y-97542596D02*
X53815836Y-97550193D01*
X53947787Y-97590220D01*
X54013763Y-97610233D01*
X54196172Y-97707733D01*
X54356054Y-97838946D01*
X54487267Y-97998828D01*
X54584767Y-98181237D01*
X54589336Y-98196300D01*
X54644807Y-98379164D01*
X54665080Y-98585000D01*
X54644807Y-98790836D01*
X54637224Y-98815833D01*
X54584767Y-98988763D01*
X54487267Y-99171172D01*
X54356054Y-99331054D01*
X54196172Y-99462267D01*
X54013763Y-99559767D01*
X53947787Y-99579780D01*
X53815836Y-99619807D01*
X53738707Y-99627404D01*
X53661580Y-99635000D01*
X53558420Y-99635000D01*
X53481293Y-99627404D01*
X53404164Y-99619807D01*
X53272213Y-99579780D01*
X53206237Y-99559767D01*
X53023828Y-99462267D01*
X52863946Y-99331054D01*
X52732733Y-99171172D01*
X52635233Y-98988763D01*
X52582776Y-98815833D01*
X52575193Y-98790836D01*
X52554920Y-98585000D01*
X52575193Y-98379164D01*
X52630664Y-98196300D01*
X52635233Y-98181237D01*
X52732733Y-97998828D01*
X52863946Y-97838946D01*
X53023828Y-97707733D01*
X53206237Y-97610233D01*
X53272213Y-97590220D01*
X53404164Y-97550193D01*
X53481293Y-97542596D01*
X53558420Y-97535000D01*
X53661580Y-97535000D01*
X53738707Y-97542596D01*
X53738707Y-97542596D01*
G37*
G36*
X88748707Y-97542596D02*
X88825836Y-97550193D01*
X88957787Y-97590220D01*
X89023763Y-97610233D01*
X89206172Y-97707733D01*
X89366054Y-97838946D01*
X89497267Y-97998828D01*
X89594767Y-98181237D01*
X89599336Y-98196300D01*
X89654807Y-98379164D01*
X89675080Y-98585000D01*
X89654807Y-98790836D01*
X89647224Y-98815833D01*
X89594767Y-98988763D01*
X89497267Y-99171172D01*
X89366054Y-99331054D01*
X89206172Y-99462267D01*
X89023763Y-99559767D01*
X88957787Y-99579780D01*
X88825836Y-99619807D01*
X88748707Y-99627404D01*
X88671580Y-99635000D01*
X88568420Y-99635000D01*
X88491293Y-99627404D01*
X88414164Y-99619807D01*
X88282213Y-99579780D01*
X88216237Y-99559767D01*
X88033828Y-99462267D01*
X87873946Y-99331054D01*
X87742733Y-99171172D01*
X87645233Y-98988763D01*
X87592776Y-98815833D01*
X87585193Y-98790836D01*
X87564920Y-98585000D01*
X87585193Y-98379164D01*
X87640664Y-98196300D01*
X87645233Y-98181237D01*
X87742733Y-97998828D01*
X87873946Y-97838946D01*
X88033828Y-97707733D01*
X88216237Y-97610233D01*
X88282213Y-97590220D01*
X88414164Y-97550193D01*
X88491293Y-97542596D01*
X88568420Y-97535000D01*
X88671580Y-97535000D01*
X88748707Y-97542596D01*
X88748707Y-97542596D01*
G37*
G36*
X91288707Y-95002596D02*
X91365836Y-95010193D01*
X91497787Y-95050220D01*
X91563763Y-95070233D01*
X91746172Y-95167733D01*
X91906054Y-95298946D01*
X92037267Y-95458828D01*
X92134767Y-95641237D01*
X92141472Y-95663340D01*
X92194807Y-95839164D01*
X92215080Y-96045000D01*
X92194807Y-96250836D01*
X92154780Y-96382787D01*
X92134767Y-96448763D01*
X92037267Y-96631172D01*
X91906054Y-96791054D01*
X91746172Y-96922267D01*
X91563763Y-97019767D01*
X91497787Y-97039780D01*
X91365836Y-97079807D01*
X91288707Y-97087404D01*
X91211580Y-97095000D01*
X91108420Y-97095000D01*
X91031293Y-97087404D01*
X90954164Y-97079807D01*
X90822213Y-97039780D01*
X90756237Y-97019767D01*
X90573828Y-96922267D01*
X90413946Y-96791054D01*
X90282733Y-96631172D01*
X90185233Y-96448763D01*
X90165220Y-96382787D01*
X90125193Y-96250836D01*
X90104920Y-96045000D01*
X90125193Y-95839164D01*
X90178528Y-95663340D01*
X90185233Y-95641237D01*
X90282733Y-95458828D01*
X90413946Y-95298946D01*
X90573828Y-95167733D01*
X90756237Y-95070233D01*
X90822213Y-95050220D01*
X90954164Y-95010193D01*
X91031293Y-95002596D01*
X91108420Y-94995000D01*
X91211580Y-94995000D01*
X91288707Y-95002596D01*
X91288707Y-95002596D01*
G37*
G36*
X88748707Y-95002596D02*
X88825836Y-95010193D01*
X88957787Y-95050220D01*
X89023763Y-95070233D01*
X89206172Y-95167733D01*
X89366054Y-95298946D01*
X89497267Y-95458828D01*
X89594767Y-95641237D01*
X89601472Y-95663340D01*
X89654807Y-95839164D01*
X89675080Y-96045000D01*
X89654807Y-96250836D01*
X89614780Y-96382787D01*
X89594767Y-96448763D01*
X89497267Y-96631172D01*
X89366054Y-96791054D01*
X89206172Y-96922267D01*
X89023763Y-97019767D01*
X88957787Y-97039780D01*
X88825836Y-97079807D01*
X88748707Y-97087404D01*
X88671580Y-97095000D01*
X88568420Y-97095000D01*
X88491293Y-97087404D01*
X88414164Y-97079807D01*
X88282213Y-97039780D01*
X88216237Y-97019767D01*
X88033828Y-96922267D01*
X87873946Y-96791054D01*
X87742733Y-96631172D01*
X87645233Y-96448763D01*
X87625220Y-96382787D01*
X87585193Y-96250836D01*
X87564920Y-96045000D01*
X87585193Y-95839164D01*
X87638528Y-95663340D01*
X87645233Y-95641237D01*
X87742733Y-95458828D01*
X87873946Y-95298946D01*
X88033828Y-95167733D01*
X88216237Y-95070233D01*
X88282213Y-95050220D01*
X88414164Y-95010193D01*
X88491293Y-95002596D01*
X88568420Y-94995000D01*
X88671580Y-94995000D01*
X88748707Y-95002596D01*
X88748707Y-95002596D01*
G37*
G36*
X53738707Y-95002596D02*
X53815836Y-95010193D01*
X53947787Y-95050220D01*
X54013763Y-95070233D01*
X54196172Y-95167733D01*
X54356054Y-95298946D01*
X54487267Y-95458828D01*
X54584767Y-95641237D01*
X54591472Y-95663340D01*
X54644807Y-95839164D01*
X54665080Y-96045000D01*
X54644807Y-96250836D01*
X54604780Y-96382787D01*
X54584767Y-96448763D01*
X54487267Y-96631172D01*
X54356054Y-96791054D01*
X54196172Y-96922267D01*
X54013763Y-97019767D01*
X53947787Y-97039780D01*
X53815836Y-97079807D01*
X53738707Y-97087404D01*
X53661580Y-97095000D01*
X53558420Y-97095000D01*
X53481293Y-97087404D01*
X53404164Y-97079807D01*
X53272213Y-97039780D01*
X53206237Y-97019767D01*
X53023828Y-96922267D01*
X52863946Y-96791054D01*
X52732733Y-96631172D01*
X52635233Y-96448763D01*
X52615220Y-96382787D01*
X52575193Y-96250836D01*
X52554920Y-96045000D01*
X52575193Y-95839164D01*
X52628528Y-95663340D01*
X52635233Y-95641237D01*
X52732733Y-95458828D01*
X52863946Y-95298946D01*
X53023828Y-95167733D01*
X53206237Y-95070233D01*
X53272213Y-95050220D01*
X53404164Y-95010193D01*
X53481293Y-95002596D01*
X53558420Y-94995000D01*
X53661580Y-94995000D01*
X53738707Y-95002596D01*
X53738707Y-95002596D01*
G37*
G36*
X57200000Y-97095000D02*
X55100000Y-97095000D01*
X55100000Y-94995000D01*
X57200000Y-94995000D01*
X57200000Y-97095000D01*
X57200000Y-97095000D01*
G37*
G36*
X66064500Y-96470600D02*
X64564500Y-96470600D01*
X64564500Y-92370600D01*
X66064500Y-92370600D01*
X66064500Y-96470600D01*
X66064500Y-96470600D01*
G37*
G36*
X69064500Y-96470600D02*
X67564500Y-96470600D01*
X67564500Y-92370600D01*
X69064500Y-92370600D01*
X69064500Y-96470600D01*
X69064500Y-96470600D01*
G37*
G36*
X73428722Y-94499217D02*
X73476685Y-94513766D01*
X73520875Y-94537386D01*
X73559618Y-94569182D01*
X73591414Y-94607925D01*
X73615034Y-94652115D01*
X73629583Y-94700078D01*
X73635100Y-94756091D01*
X73635100Y-95506309D01*
X73629583Y-95562322D01*
X73615034Y-95610285D01*
X73591414Y-95654475D01*
X73559618Y-95693218D01*
X73520875Y-95725014D01*
X73476685Y-95748634D01*
X73428722Y-95763183D01*
X73372709Y-95768700D01*
X72547491Y-95768700D01*
X72491478Y-95763183D01*
X72443515Y-95748634D01*
X72399325Y-95725014D01*
X72360582Y-95693218D01*
X72328786Y-95654475D01*
X72305166Y-95610285D01*
X72290617Y-95562322D01*
X72285100Y-95506309D01*
X72285100Y-94756091D01*
X72290617Y-94700078D01*
X72305166Y-94652115D01*
X72328786Y-94607925D01*
X72360582Y-94569182D01*
X72399325Y-94537386D01*
X72443515Y-94513766D01*
X72491478Y-94499217D01*
X72547491Y-94493700D01*
X73372709Y-94493700D01*
X73428722Y-94499217D01*
X73428722Y-94499217D01*
G37*
G36*
X75068222Y-94487217D02*
X75116185Y-94501766D01*
X75160375Y-94525386D01*
X75199118Y-94557182D01*
X75230914Y-94595925D01*
X75254534Y-94640115D01*
X75269083Y-94688078D01*
X75274600Y-94744091D01*
X75274600Y-95494309D01*
X75269083Y-95550322D01*
X75254534Y-95598285D01*
X75230914Y-95642475D01*
X75199118Y-95681218D01*
X75160375Y-95713014D01*
X75116185Y-95736634D01*
X75068222Y-95751183D01*
X75012209Y-95756700D01*
X74186991Y-95756700D01*
X74130978Y-95751183D01*
X74083015Y-95736634D01*
X74038825Y-95713014D01*
X74000082Y-95681218D01*
X73968286Y-95642475D01*
X73944666Y-95598285D01*
X73930117Y-95550322D01*
X73924600Y-95494309D01*
X73924600Y-94744091D01*
X73930117Y-94688078D01*
X73944666Y-94640115D01*
X73968286Y-94595925D01*
X74000082Y-94557182D01*
X74038825Y-94525386D01*
X74083015Y-94501766D01*
X74130978Y-94487217D01*
X74186991Y-94481700D01*
X75012209Y-94481700D01*
X75068222Y-94487217D01*
X75068222Y-94487217D01*
G37*
G36*
X56278707Y-92462597D02*
X56355836Y-92470193D01*
X56487787Y-92510220D01*
X56553763Y-92530233D01*
X56736172Y-92627733D01*
X56896054Y-92758946D01*
X57027267Y-92918828D01*
X57124767Y-93101237D01*
X57131999Y-93125078D01*
X57184807Y-93299164D01*
X57205080Y-93505000D01*
X57184807Y-93710836D01*
X57160186Y-93792001D01*
X57124767Y-93908763D01*
X57027267Y-94091172D01*
X56896054Y-94251054D01*
X56736172Y-94382267D01*
X56553763Y-94479767D01*
X56507831Y-94493700D01*
X56355836Y-94539807D01*
X56278707Y-94547404D01*
X56201580Y-94555000D01*
X56098420Y-94555000D01*
X56021293Y-94547404D01*
X55944164Y-94539807D01*
X55792169Y-94493700D01*
X55746237Y-94479767D01*
X55563828Y-94382267D01*
X55403946Y-94251054D01*
X55272733Y-94091172D01*
X55175233Y-93908763D01*
X55139814Y-93792001D01*
X55115193Y-93710836D01*
X55094920Y-93505000D01*
X55115193Y-93299164D01*
X55168001Y-93125078D01*
X55175233Y-93101237D01*
X55272733Y-92918828D01*
X55403946Y-92758946D01*
X55563828Y-92627733D01*
X55746237Y-92530233D01*
X55812213Y-92510220D01*
X55944164Y-92470193D01*
X56021293Y-92462597D01*
X56098420Y-92455000D01*
X56201580Y-92455000D01*
X56278707Y-92462597D01*
X56278707Y-92462597D01*
G37*
G36*
X91288707Y-92462597D02*
X91365836Y-92470193D01*
X91497787Y-92510220D01*
X91563763Y-92530233D01*
X91746172Y-92627733D01*
X91906054Y-92758946D01*
X92037267Y-92918828D01*
X92134767Y-93101237D01*
X92141999Y-93125078D01*
X92194807Y-93299164D01*
X92215080Y-93505000D01*
X92194807Y-93710836D01*
X92170186Y-93792001D01*
X92134767Y-93908763D01*
X92037267Y-94091172D01*
X91906054Y-94251054D01*
X91746172Y-94382267D01*
X91563763Y-94479767D01*
X91517831Y-94493700D01*
X91365836Y-94539807D01*
X91288707Y-94547404D01*
X91211580Y-94555000D01*
X91108420Y-94555000D01*
X91031293Y-94547404D01*
X90954164Y-94539807D01*
X90802169Y-94493700D01*
X90756237Y-94479767D01*
X90573828Y-94382267D01*
X90413946Y-94251054D01*
X90282733Y-94091172D01*
X90185233Y-93908763D01*
X90149814Y-93792001D01*
X90125193Y-93710836D01*
X90104920Y-93505000D01*
X90125193Y-93299164D01*
X90178001Y-93125078D01*
X90185233Y-93101237D01*
X90282733Y-92918828D01*
X90413946Y-92758946D01*
X90573828Y-92627733D01*
X90756237Y-92530233D01*
X90822213Y-92510220D01*
X90954164Y-92470193D01*
X91031293Y-92462597D01*
X91108420Y-92455000D01*
X91211580Y-92455000D01*
X91288707Y-92462597D01*
X91288707Y-92462597D01*
G37*
G36*
X53738707Y-92462597D02*
X53815836Y-92470193D01*
X53947787Y-92510220D01*
X54013763Y-92530233D01*
X54196172Y-92627733D01*
X54356054Y-92758946D01*
X54487267Y-92918828D01*
X54584767Y-93101237D01*
X54591999Y-93125078D01*
X54644807Y-93299164D01*
X54665080Y-93505000D01*
X54644807Y-93710836D01*
X54620186Y-93792001D01*
X54584767Y-93908763D01*
X54487267Y-94091172D01*
X54356054Y-94251054D01*
X54196172Y-94382267D01*
X54013763Y-94479767D01*
X53967831Y-94493700D01*
X53815836Y-94539807D01*
X53738707Y-94547404D01*
X53661580Y-94555000D01*
X53558420Y-94555000D01*
X53481293Y-94547404D01*
X53404164Y-94539807D01*
X53252169Y-94493700D01*
X53206237Y-94479767D01*
X53023828Y-94382267D01*
X52863946Y-94251054D01*
X52732733Y-94091172D01*
X52635233Y-93908763D01*
X52599814Y-93792001D01*
X52575193Y-93710836D01*
X52554920Y-93505000D01*
X52575193Y-93299164D01*
X52628001Y-93125078D01*
X52635233Y-93101237D01*
X52732733Y-92918828D01*
X52863946Y-92758946D01*
X53023828Y-92627733D01*
X53206237Y-92530233D01*
X53272213Y-92510220D01*
X53404164Y-92470193D01*
X53481293Y-92462597D01*
X53558420Y-92455000D01*
X53661580Y-92455000D01*
X53738707Y-92462597D01*
X53738707Y-92462597D01*
G37*
G36*
X88748707Y-92462597D02*
X88825836Y-92470193D01*
X88957787Y-92510220D01*
X89023763Y-92530233D01*
X89206172Y-92627733D01*
X89366054Y-92758946D01*
X89497267Y-92918828D01*
X89594767Y-93101237D01*
X89601999Y-93125078D01*
X89654807Y-93299164D01*
X89675080Y-93505000D01*
X89654807Y-93710836D01*
X89630186Y-93792001D01*
X89594767Y-93908763D01*
X89497267Y-94091172D01*
X89366054Y-94251054D01*
X89206172Y-94382267D01*
X89023763Y-94479767D01*
X88977831Y-94493700D01*
X88825836Y-94539807D01*
X88748707Y-94547404D01*
X88671580Y-94555000D01*
X88568420Y-94555000D01*
X88491293Y-94547404D01*
X88414164Y-94539807D01*
X88262169Y-94493700D01*
X88216237Y-94479767D01*
X88033828Y-94382267D01*
X87873946Y-94251054D01*
X87742733Y-94091172D01*
X87645233Y-93908763D01*
X87609814Y-93792001D01*
X87585193Y-93710836D01*
X87564920Y-93505000D01*
X87585193Y-93299164D01*
X87638001Y-93125078D01*
X87645233Y-93101237D01*
X87742733Y-92918828D01*
X87873946Y-92758946D01*
X88033828Y-92627733D01*
X88216237Y-92530233D01*
X88282213Y-92510220D01*
X88414164Y-92470193D01*
X88491293Y-92462597D01*
X88568420Y-92455000D01*
X88671580Y-92455000D01*
X88748707Y-92462597D01*
X88748707Y-92462597D01*
G37*
G36*
X73428722Y-92924217D02*
X73476685Y-92938766D01*
X73520875Y-92962386D01*
X73559618Y-92994182D01*
X73591414Y-93032925D01*
X73615034Y-93077115D01*
X73629583Y-93125078D01*
X73635100Y-93181091D01*
X73635100Y-93931309D01*
X73629583Y-93987322D01*
X73615034Y-94035285D01*
X73591414Y-94079475D01*
X73559618Y-94118218D01*
X73520875Y-94150014D01*
X73476685Y-94173634D01*
X73428722Y-94188183D01*
X73372709Y-94193700D01*
X72547491Y-94193700D01*
X72491478Y-94188183D01*
X72443515Y-94173634D01*
X72399325Y-94150014D01*
X72360582Y-94118218D01*
X72328786Y-94079475D01*
X72305166Y-94035285D01*
X72290617Y-93987322D01*
X72285100Y-93931309D01*
X72285100Y-93181091D01*
X72290617Y-93125078D01*
X72305166Y-93077115D01*
X72328786Y-93032925D01*
X72360582Y-92994182D01*
X72399325Y-92962386D01*
X72443515Y-92938766D01*
X72491478Y-92924217D01*
X72547491Y-92918700D01*
X73372709Y-92918700D01*
X73428722Y-92924217D01*
X73428722Y-92924217D01*
G37*
G36*
X75068222Y-92912217D02*
X75116185Y-92926766D01*
X75160375Y-92950386D01*
X75199118Y-92982182D01*
X75230914Y-93020925D01*
X75254534Y-93065115D01*
X75269083Y-93113078D01*
X75274600Y-93169091D01*
X75274600Y-93919309D01*
X75269083Y-93975322D01*
X75254534Y-94023285D01*
X75230914Y-94067475D01*
X75199118Y-94106218D01*
X75160375Y-94138014D01*
X75116185Y-94161634D01*
X75068222Y-94176183D01*
X75012209Y-94181700D01*
X74186991Y-94181700D01*
X74130978Y-94176183D01*
X74083015Y-94161634D01*
X74038825Y-94138014D01*
X74000082Y-94106218D01*
X73968286Y-94067475D01*
X73944666Y-94023285D01*
X73930117Y-93975322D01*
X73924600Y-93919309D01*
X73924600Y-93169091D01*
X73930117Y-93113078D01*
X73944666Y-93065115D01*
X73968286Y-93020925D01*
X74000082Y-92982182D01*
X74038825Y-92950386D01*
X74083015Y-92926766D01*
X74130978Y-92912217D01*
X74186991Y-92906700D01*
X75012209Y-92906700D01*
X75068222Y-92912217D01*
X75068222Y-92912217D01*
G37*
G36*
X88748707Y-89922596D02*
X88825836Y-89930193D01*
X88934751Y-89963232D01*
X89023763Y-89990233D01*
X89206172Y-90087733D01*
X89366054Y-90218946D01*
X89497267Y-90378828D01*
X89594767Y-90561237D01*
X89595860Y-90564840D01*
X89654807Y-90759164D01*
X89675080Y-90965000D01*
X89654807Y-91170836D01*
X89614780Y-91302787D01*
X89594767Y-91368763D01*
X89497267Y-91551172D01*
X89366054Y-91711054D01*
X89206172Y-91842267D01*
X89023763Y-91939767D01*
X88957787Y-91959780D01*
X88825836Y-91999807D01*
X88748707Y-92007403D01*
X88671580Y-92015000D01*
X88568420Y-92015000D01*
X88491293Y-92007403D01*
X88414164Y-91999807D01*
X88282213Y-91959780D01*
X88216237Y-91939767D01*
X88033828Y-91842267D01*
X87873946Y-91711054D01*
X87742733Y-91551172D01*
X87645233Y-91368763D01*
X87625220Y-91302787D01*
X87585193Y-91170836D01*
X87564920Y-90965000D01*
X87585193Y-90759164D01*
X87644140Y-90564840D01*
X87645233Y-90561237D01*
X87742733Y-90378828D01*
X87873946Y-90218946D01*
X88033828Y-90087733D01*
X88216237Y-89990233D01*
X88305249Y-89963232D01*
X88414164Y-89930193D01*
X88491293Y-89922596D01*
X88568420Y-89915000D01*
X88671580Y-89915000D01*
X88748707Y-89922596D01*
X88748707Y-89922596D01*
G37*
G36*
X56278707Y-89922596D02*
X56355836Y-89930193D01*
X56464751Y-89963232D01*
X56553763Y-89990233D01*
X56736172Y-90087733D01*
X56896054Y-90218946D01*
X57027267Y-90378828D01*
X57124767Y-90561237D01*
X57125860Y-90564840D01*
X57184807Y-90759164D01*
X57205080Y-90965000D01*
X57184807Y-91170836D01*
X57144780Y-91302787D01*
X57124767Y-91368763D01*
X57027267Y-91551172D01*
X56896054Y-91711054D01*
X56736172Y-91842267D01*
X56553763Y-91939767D01*
X56487787Y-91959780D01*
X56355836Y-91999807D01*
X56278707Y-92007403D01*
X56201580Y-92015000D01*
X56098420Y-92015000D01*
X56021293Y-92007403D01*
X55944164Y-91999807D01*
X55812213Y-91959780D01*
X55746237Y-91939767D01*
X55563828Y-91842267D01*
X55403946Y-91711054D01*
X55272733Y-91551172D01*
X55175233Y-91368763D01*
X55155220Y-91302787D01*
X55115193Y-91170836D01*
X55094920Y-90965000D01*
X55115193Y-90759164D01*
X55174140Y-90564840D01*
X55175233Y-90561237D01*
X55272733Y-90378828D01*
X55403946Y-90218946D01*
X55563828Y-90087733D01*
X55746237Y-89990233D01*
X55835249Y-89963232D01*
X55944164Y-89930193D01*
X56021293Y-89922596D01*
X56098420Y-89915000D01*
X56201580Y-89915000D01*
X56278707Y-89922596D01*
X56278707Y-89922596D01*
G37*
G36*
X91288707Y-89922596D02*
X91365836Y-89930193D01*
X91474751Y-89963232D01*
X91563763Y-89990233D01*
X91746172Y-90087733D01*
X91906054Y-90218946D01*
X92037267Y-90378828D01*
X92134767Y-90561237D01*
X92135860Y-90564840D01*
X92194807Y-90759164D01*
X92215080Y-90965000D01*
X92194807Y-91170836D01*
X92154780Y-91302787D01*
X92134767Y-91368763D01*
X92037267Y-91551172D01*
X91906054Y-91711054D01*
X91746172Y-91842267D01*
X91563763Y-91939767D01*
X91497787Y-91959780D01*
X91365836Y-91999807D01*
X91288707Y-92007403D01*
X91211580Y-92015000D01*
X91108420Y-92015000D01*
X91031293Y-92007403D01*
X90954164Y-91999807D01*
X90822213Y-91959780D01*
X90756237Y-91939767D01*
X90573828Y-91842267D01*
X90413946Y-91711054D01*
X90282733Y-91551172D01*
X90185233Y-91368763D01*
X90165220Y-91302787D01*
X90125193Y-91170836D01*
X90104920Y-90965000D01*
X90125193Y-90759164D01*
X90184140Y-90564840D01*
X90185233Y-90561237D01*
X90282733Y-90378828D01*
X90413946Y-90218946D01*
X90573828Y-90087733D01*
X90756237Y-89990233D01*
X90845249Y-89963232D01*
X90954164Y-89930193D01*
X91031293Y-89922596D01*
X91108420Y-89915000D01*
X91211580Y-89915000D01*
X91288707Y-89922596D01*
X91288707Y-89922596D01*
G37*
G36*
X53738707Y-89922596D02*
X53815836Y-89930193D01*
X53924751Y-89963232D01*
X54013763Y-89990233D01*
X54196172Y-90087733D01*
X54356054Y-90218946D01*
X54487267Y-90378828D01*
X54584767Y-90561237D01*
X54585860Y-90564840D01*
X54644807Y-90759164D01*
X54665080Y-90965000D01*
X54644807Y-91170836D01*
X54604780Y-91302787D01*
X54584767Y-91368763D01*
X54487267Y-91551172D01*
X54356054Y-91711054D01*
X54196172Y-91842267D01*
X54013763Y-91939767D01*
X53947787Y-91959780D01*
X53815836Y-91999807D01*
X53738707Y-92007403D01*
X53661580Y-92015000D01*
X53558420Y-92015000D01*
X53481293Y-92007403D01*
X53404164Y-91999807D01*
X53272213Y-91959780D01*
X53206237Y-91939767D01*
X53023828Y-91842267D01*
X52863946Y-91711054D01*
X52732733Y-91551172D01*
X52635233Y-91368763D01*
X52615220Y-91302787D01*
X52575193Y-91170836D01*
X52554920Y-90965000D01*
X52575193Y-90759164D01*
X52634140Y-90564840D01*
X52635233Y-90561237D01*
X52732733Y-90378828D01*
X52863946Y-90218946D01*
X53023828Y-90087733D01*
X53206237Y-89990233D01*
X53295249Y-89963232D01*
X53404164Y-89930193D01*
X53481293Y-89922596D01*
X53558420Y-89915000D01*
X53661580Y-89915000D01*
X53738707Y-89922596D01*
X53738707Y-89922596D01*
G37*
G36*
X76232409Y-85034541D02*
X76274822Y-85047407D01*
X76288960Y-85051696D01*
X76341080Y-85079555D01*
X76386756Y-85117040D01*
X76386758Y-85117042D01*
X76398158Y-85130933D01*
X76424247Y-85162722D01*
X76452104Y-85214839D01*
X76456393Y-85228977D01*
X76469259Y-85271390D01*
X76471961Y-85298828D01*
X76473600Y-85315467D01*
X76473600Y-85851074D01*
X76473751Y-85851074D01*
X76473750Y-85867898D01*
X76478530Y-85891931D01*
X76487906Y-85914571D01*
X76501519Y-85934946D01*
X76518846Y-85952274D01*
X76539220Y-85965889D01*
X76561858Y-85975267D01*
X76585891Y-85980049D01*
X76602726Y-85980049D01*
X76602726Y-85980200D01*
X77138333Y-85980200D01*
X77182410Y-85984541D01*
X77224822Y-85997407D01*
X77238961Y-86001696D01*
X77291078Y-86029553D01*
X77336758Y-86067042D01*
X77374247Y-86112722D01*
X77402104Y-86164839D01*
X77402104Y-86164840D01*
X77419259Y-86221390D01*
X77425051Y-86280200D01*
X77419259Y-86339010D01*
X77406764Y-86380200D01*
X77402103Y-86395564D01*
X77388359Y-86421277D01*
X77378982Y-86443916D01*
X77374202Y-86467950D01*
X77374202Y-86492454D01*
X77378983Y-86516487D01*
X77388359Y-86539123D01*
X77402103Y-86564836D01*
X77402104Y-86564840D01*
X77419259Y-86621390D01*
X77425051Y-86680200D01*
X77419259Y-86739010D01*
X77406783Y-86780135D01*
X77402103Y-86795564D01*
X77388359Y-86821277D01*
X77378982Y-86843916D01*
X77374202Y-86867950D01*
X77374202Y-86892454D01*
X77378983Y-86916487D01*
X77388359Y-86939123D01*
X77402103Y-86964836D01*
X77402104Y-86964840D01*
X77419259Y-87021390D01*
X77425051Y-87080200D01*
X77419259Y-87139010D01*
X77411197Y-87165586D01*
X77402103Y-87195564D01*
X77388359Y-87221277D01*
X77378982Y-87243916D01*
X77374202Y-87267950D01*
X77374202Y-87292454D01*
X77378983Y-87316487D01*
X77388359Y-87339123D01*
X77402103Y-87364836D01*
X77402104Y-87364840D01*
X77419259Y-87421390D01*
X77425051Y-87480200D01*
X77419259Y-87539010D01*
X77406764Y-87580200D01*
X77402103Y-87595564D01*
X77388359Y-87621277D01*
X77378982Y-87643916D01*
X77374202Y-87667950D01*
X77374202Y-87692454D01*
X77378983Y-87716487D01*
X77388359Y-87739123D01*
X77402103Y-87764836D01*
X77402104Y-87764840D01*
X77419259Y-87821390D01*
X77425051Y-87880200D01*
X77419259Y-87939010D01*
X77415897Y-87950091D01*
X77402103Y-87995564D01*
X77388359Y-88021277D01*
X77378982Y-88043916D01*
X77374202Y-88067950D01*
X77374202Y-88092454D01*
X77378983Y-88116487D01*
X77388359Y-88139123D01*
X77402103Y-88164836D01*
X77402104Y-88164840D01*
X77419259Y-88221390D01*
X77425051Y-88280200D01*
X77419259Y-88339010D01*
X77408038Y-88376000D01*
X77402103Y-88395564D01*
X77388359Y-88421277D01*
X77378982Y-88443916D01*
X77374202Y-88467950D01*
X77374202Y-88492454D01*
X77378983Y-88516487D01*
X77388359Y-88539123D01*
X77402103Y-88564836D01*
X77402104Y-88564840D01*
X77419259Y-88621390D01*
X77425051Y-88680200D01*
X77419259Y-88739010D01*
X77408247Y-88775309D01*
X77402103Y-88795564D01*
X77388359Y-88821277D01*
X77378982Y-88843916D01*
X77374202Y-88867950D01*
X77374202Y-88892454D01*
X77378983Y-88916487D01*
X77388359Y-88939123D01*
X77402103Y-88964836D01*
X77402104Y-88964840D01*
X77419259Y-89021390D01*
X77425051Y-89080200D01*
X77419259Y-89139010D01*
X77409538Y-89171054D01*
X77402103Y-89195564D01*
X77388359Y-89221277D01*
X77378982Y-89243916D01*
X77374202Y-89267950D01*
X77374202Y-89292454D01*
X77378983Y-89316487D01*
X77388359Y-89339123D01*
X77402103Y-89364836D01*
X77402104Y-89364840D01*
X77419259Y-89421390D01*
X77425051Y-89480200D01*
X77419259Y-89539010D01*
X77406764Y-89580200D01*
X77402103Y-89595564D01*
X77388359Y-89621277D01*
X77378982Y-89643916D01*
X77374202Y-89667950D01*
X77374202Y-89692454D01*
X77378983Y-89716487D01*
X77388359Y-89739123D01*
X77402103Y-89764836D01*
X77402104Y-89764840D01*
X77419259Y-89821390D01*
X77425051Y-89880200D01*
X77419259Y-89939010D01*
X77411911Y-89963232D01*
X77402103Y-89995564D01*
X77388359Y-90021277D01*
X77378982Y-90043916D01*
X77374202Y-90067950D01*
X77374202Y-90092454D01*
X77378983Y-90116487D01*
X77388359Y-90139123D01*
X77402103Y-90164836D01*
X77402104Y-90164840D01*
X77419259Y-90221390D01*
X77425051Y-90280200D01*
X77419259Y-90339010D01*
X77406764Y-90380200D01*
X77402103Y-90395564D01*
X77388359Y-90421277D01*
X77378982Y-90443916D01*
X77374202Y-90467950D01*
X77374202Y-90492454D01*
X77378983Y-90516487D01*
X77388359Y-90539123D01*
X77402103Y-90564836D01*
X77402104Y-90564840D01*
X77419259Y-90621390D01*
X77425051Y-90680200D01*
X77419259Y-90739010D01*
X77413145Y-90759164D01*
X77402104Y-90795561D01*
X77374247Y-90847678D01*
X77336758Y-90893358D01*
X77291078Y-90930847D01*
X77238961Y-90958704D01*
X77225712Y-90962723D01*
X77182410Y-90975859D01*
X77138333Y-90980200D01*
X76602726Y-90980200D01*
X76602726Y-90980351D01*
X76585902Y-90980350D01*
X76561869Y-90985130D01*
X76539229Y-90994506D01*
X76518854Y-91008119D01*
X76501526Y-91025446D01*
X76487911Y-91045820D01*
X76478533Y-91068458D01*
X76473751Y-91092491D01*
X76473751Y-91109326D01*
X76473600Y-91109326D01*
X76473600Y-91644933D01*
X76469259Y-91689010D01*
X76456393Y-91731422D01*
X76452104Y-91745561D01*
X76424247Y-91797678D01*
X76386758Y-91843358D01*
X76341078Y-91880847D01*
X76288961Y-91908704D01*
X76274823Y-91912993D01*
X76232410Y-91925859D01*
X76173600Y-91931651D01*
X76114791Y-91925859D01*
X76058241Y-91908704D01*
X76032525Y-91894959D01*
X76009887Y-91885582D01*
X75985854Y-91880801D01*
X75961350Y-91880801D01*
X75937316Y-91885581D01*
X75914677Y-91894959D01*
X75888965Y-91908702D01*
X75888962Y-91908703D01*
X75888960Y-91908704D01*
X75832410Y-91925859D01*
X75773600Y-91931651D01*
X75714791Y-91925859D01*
X75658241Y-91908704D01*
X75632525Y-91894959D01*
X75609887Y-91885582D01*
X75585854Y-91880801D01*
X75561350Y-91880801D01*
X75537316Y-91885581D01*
X75514677Y-91894959D01*
X75488965Y-91908702D01*
X75488962Y-91908703D01*
X75488960Y-91908704D01*
X75432410Y-91925859D01*
X75373600Y-91931651D01*
X75314791Y-91925859D01*
X75258241Y-91908704D01*
X75232525Y-91894959D01*
X75209887Y-91885582D01*
X75185854Y-91880801D01*
X75161350Y-91880801D01*
X75137316Y-91885581D01*
X75114677Y-91894959D01*
X75088965Y-91908702D01*
X75088962Y-91908703D01*
X75088960Y-91908704D01*
X75032410Y-91925859D01*
X74973600Y-91931651D01*
X74914791Y-91925859D01*
X74858241Y-91908704D01*
X74832525Y-91894959D01*
X74809887Y-91885582D01*
X74785854Y-91880801D01*
X74761350Y-91880801D01*
X74737316Y-91885581D01*
X74714677Y-91894959D01*
X74688965Y-91908702D01*
X74688962Y-91908703D01*
X74688960Y-91908704D01*
X74632410Y-91925859D01*
X74573600Y-91931651D01*
X74514791Y-91925859D01*
X74458241Y-91908704D01*
X74432525Y-91894959D01*
X74409887Y-91885582D01*
X74385854Y-91880801D01*
X74361350Y-91880801D01*
X74337316Y-91885581D01*
X74314677Y-91894959D01*
X74288965Y-91908702D01*
X74288962Y-91908703D01*
X74288960Y-91908704D01*
X74232410Y-91925859D01*
X74173600Y-91931651D01*
X74114791Y-91925859D01*
X74058241Y-91908704D01*
X74032525Y-91894959D01*
X74009887Y-91885582D01*
X73985854Y-91880801D01*
X73961350Y-91880801D01*
X73937316Y-91885581D01*
X73914677Y-91894959D01*
X73888965Y-91908702D01*
X73888962Y-91908703D01*
X73888960Y-91908704D01*
X73832410Y-91925859D01*
X73773600Y-91931651D01*
X73714791Y-91925859D01*
X73658241Y-91908704D01*
X73632525Y-91894959D01*
X73609887Y-91885582D01*
X73585854Y-91880801D01*
X73561350Y-91880801D01*
X73537316Y-91885581D01*
X73514677Y-91894959D01*
X73488965Y-91908702D01*
X73488962Y-91908703D01*
X73488960Y-91908704D01*
X73432410Y-91925859D01*
X73373600Y-91931651D01*
X73314791Y-91925859D01*
X73258241Y-91908704D01*
X73232525Y-91894959D01*
X73209887Y-91885582D01*
X73185854Y-91880801D01*
X73161350Y-91880801D01*
X73137316Y-91885581D01*
X73114677Y-91894959D01*
X73088965Y-91908702D01*
X73088962Y-91908703D01*
X73088960Y-91908704D01*
X73032410Y-91925859D01*
X72973600Y-91931651D01*
X72914791Y-91925859D01*
X72858241Y-91908704D01*
X72832525Y-91894959D01*
X72809887Y-91885582D01*
X72785854Y-91880801D01*
X72761350Y-91880801D01*
X72737316Y-91885581D01*
X72714677Y-91894959D01*
X72688965Y-91908702D01*
X72688962Y-91908703D01*
X72688960Y-91908704D01*
X72632410Y-91925859D01*
X72573600Y-91931651D01*
X72514791Y-91925859D01*
X72458241Y-91908704D01*
X72432525Y-91894959D01*
X72409887Y-91885582D01*
X72385854Y-91880801D01*
X72361350Y-91880801D01*
X72337316Y-91885581D01*
X72314677Y-91894959D01*
X72288965Y-91908702D01*
X72288962Y-91908703D01*
X72288960Y-91908704D01*
X72232410Y-91925859D01*
X72173600Y-91931651D01*
X72114791Y-91925859D01*
X72058241Y-91908704D01*
X72032525Y-91894959D01*
X72009887Y-91885582D01*
X71985854Y-91880801D01*
X71961350Y-91880801D01*
X71937316Y-91885581D01*
X71914677Y-91894959D01*
X71888965Y-91908702D01*
X71888962Y-91908703D01*
X71888960Y-91908704D01*
X71832410Y-91925859D01*
X71773600Y-91931651D01*
X71714791Y-91925859D01*
X71672378Y-91912993D01*
X71658240Y-91908704D01*
X71606123Y-91880847D01*
X71560443Y-91843358D01*
X71522954Y-91797678D01*
X71495097Y-91745561D01*
X71490808Y-91731422D01*
X71477942Y-91689010D01*
X71473601Y-91644933D01*
X71473600Y-91115468D01*
X71473600Y-91109327D01*
X71473449Y-91109327D01*
X71473449Y-91092500D01*
X71468669Y-91068466D01*
X71459293Y-91045827D01*
X71445679Y-91025452D01*
X71428352Y-91008125D01*
X71407978Y-90994510D01*
X71385339Y-90985132D01*
X71361306Y-90980351D01*
X71344474Y-90980351D01*
X71344474Y-90980200D01*
X70808867Y-90980200D01*
X70764790Y-90975859D01*
X70721488Y-90962723D01*
X70708239Y-90958704D01*
X70656122Y-90930847D01*
X70610442Y-90893358D01*
X70572953Y-90847678D01*
X70545096Y-90795561D01*
X70534055Y-90759164D01*
X70527941Y-90739010D01*
X70522149Y-90680200D01*
X70527941Y-90621390D01*
X70545096Y-90564840D01*
X70545097Y-90564836D01*
X70558841Y-90539123D01*
X70568218Y-90516484D01*
X70572998Y-90492450D01*
X70572998Y-90467946D01*
X70568217Y-90443913D01*
X70558841Y-90421277D01*
X70545097Y-90395564D01*
X70540436Y-90380200D01*
X70527941Y-90339010D01*
X70522149Y-90280200D01*
X70527941Y-90221390D01*
X70545096Y-90164840D01*
X70545097Y-90164836D01*
X70558841Y-90139123D01*
X70568218Y-90116484D01*
X70572998Y-90092450D01*
X70572998Y-90067946D01*
X70568217Y-90043913D01*
X70558841Y-90021277D01*
X70545097Y-89995564D01*
X70535289Y-89963232D01*
X70527941Y-89939010D01*
X70522149Y-89880200D01*
X70527941Y-89821390D01*
X70545096Y-89764840D01*
X70545097Y-89764836D01*
X70558841Y-89739123D01*
X70568218Y-89716484D01*
X70572998Y-89692450D01*
X70572998Y-89667946D01*
X70568217Y-89643913D01*
X70558841Y-89621277D01*
X70545097Y-89595564D01*
X70540436Y-89580200D01*
X70527941Y-89539010D01*
X70522149Y-89480200D01*
X70527941Y-89421390D01*
X70545096Y-89364840D01*
X70545097Y-89364836D01*
X70558841Y-89339123D01*
X70568218Y-89316484D01*
X70572998Y-89292450D01*
X70572998Y-89267946D01*
X70568217Y-89243913D01*
X70558841Y-89221277D01*
X70545097Y-89195564D01*
X70537662Y-89171054D01*
X70527941Y-89139010D01*
X70522149Y-89080200D01*
X70527941Y-89021390D01*
X70545096Y-88964840D01*
X70545097Y-88964836D01*
X70558841Y-88939123D01*
X70568218Y-88916484D01*
X70572998Y-88892450D01*
X70572998Y-88867946D01*
X70568217Y-88843913D01*
X70558841Y-88821277D01*
X70545097Y-88795564D01*
X70538953Y-88775309D01*
X70527941Y-88739010D01*
X70522149Y-88680200D01*
X70527941Y-88621390D01*
X70545096Y-88564840D01*
X70545097Y-88564836D01*
X70558841Y-88539123D01*
X70568218Y-88516484D01*
X70572998Y-88492450D01*
X70572998Y-88467946D01*
X70568217Y-88443913D01*
X70558841Y-88421277D01*
X70545097Y-88395564D01*
X70539162Y-88376000D01*
X70527941Y-88339010D01*
X70522149Y-88280200D01*
X70527941Y-88221390D01*
X70545096Y-88164840D01*
X70545097Y-88164836D01*
X70558841Y-88139123D01*
X70568218Y-88116484D01*
X70572998Y-88092450D01*
X70572998Y-88067946D01*
X70568217Y-88043913D01*
X70558841Y-88021277D01*
X70545097Y-87995564D01*
X70531303Y-87950091D01*
X70527941Y-87939010D01*
X70522149Y-87880200D01*
X70527941Y-87821390D01*
X70545096Y-87764840D01*
X70545097Y-87764836D01*
X70558841Y-87739123D01*
X70568218Y-87716484D01*
X70572998Y-87692450D01*
X70572998Y-87667946D01*
X70568217Y-87643913D01*
X70558841Y-87621277D01*
X70545097Y-87595564D01*
X70540436Y-87580200D01*
X70527941Y-87539010D01*
X70522149Y-87480200D01*
X70527941Y-87421390D01*
X70545096Y-87364840D01*
X70545097Y-87364836D01*
X70558841Y-87339123D01*
X70568218Y-87316484D01*
X70572998Y-87292450D01*
X70572998Y-87267946D01*
X70568217Y-87243913D01*
X70558841Y-87221277D01*
X70545097Y-87195564D01*
X70536003Y-87165586D01*
X70527941Y-87139010D01*
X70522149Y-87080200D01*
X70527941Y-87021390D01*
X70545096Y-86964840D01*
X70545097Y-86964836D01*
X70558841Y-86939123D01*
X70568218Y-86916484D01*
X70572998Y-86892450D01*
X70572998Y-86867946D01*
X70568217Y-86843913D01*
X70558841Y-86821277D01*
X70545097Y-86795564D01*
X70540417Y-86780135D01*
X70527941Y-86739010D01*
X70522149Y-86680200D01*
X70527941Y-86621390D01*
X70545096Y-86564840D01*
X70545097Y-86564836D01*
X70558841Y-86539123D01*
X70568218Y-86516484D01*
X70572998Y-86492450D01*
X70572998Y-86467946D01*
X70568217Y-86443913D01*
X70558841Y-86421277D01*
X70545097Y-86395564D01*
X70540436Y-86380200D01*
X70527941Y-86339010D01*
X70522149Y-86280200D01*
X70527941Y-86221390D01*
X70545096Y-86164840D01*
X70545096Y-86164839D01*
X70572953Y-86112722D01*
X70610442Y-86067042D01*
X70656122Y-86029553D01*
X70708239Y-86001696D01*
X70722378Y-85997407D01*
X70764790Y-85984541D01*
X70808867Y-85980200D01*
X71344474Y-85980200D01*
X71344474Y-85980049D01*
X71361301Y-85980049D01*
X71385335Y-85975269D01*
X71407974Y-85965893D01*
X71428349Y-85952279D01*
X71445676Y-85934952D01*
X71459291Y-85914578D01*
X71468669Y-85891939D01*
X71473450Y-85867906D01*
X71473450Y-85851074D01*
X71473601Y-85851074D01*
X71473600Y-85315468D01*
X71477941Y-85271394D01*
X71477941Y-85271391D01*
X71495096Y-85214841D01*
X71495096Y-85214840D01*
X71522955Y-85162720D01*
X71560440Y-85117044D01*
X71560445Y-85117040D01*
X71574333Y-85105642D01*
X71606122Y-85079553D01*
X71658239Y-85051696D01*
X71672377Y-85047407D01*
X71714790Y-85034541D01*
X71773600Y-85028749D01*
X71832409Y-85034541D01*
X71888959Y-85051696D01*
X71888961Y-85051697D01*
X71888964Y-85051698D01*
X71914676Y-85065441D01*
X71937315Y-85074819D01*
X71961348Y-85079599D01*
X71985853Y-85079599D01*
X72009886Y-85074818D01*
X72032525Y-85065441D01*
X72058238Y-85051697D01*
X72058240Y-85051696D01*
X72114790Y-85034541D01*
X72173600Y-85028749D01*
X72232409Y-85034541D01*
X72288959Y-85051696D01*
X72288961Y-85051697D01*
X72288964Y-85051698D01*
X72314676Y-85065441D01*
X72337315Y-85074819D01*
X72361348Y-85079599D01*
X72385853Y-85079599D01*
X72409886Y-85074818D01*
X72432525Y-85065441D01*
X72458238Y-85051697D01*
X72458240Y-85051696D01*
X72514790Y-85034541D01*
X72573600Y-85028749D01*
X72632409Y-85034541D01*
X72688959Y-85051696D01*
X72688961Y-85051697D01*
X72688964Y-85051698D01*
X72714676Y-85065441D01*
X72737315Y-85074819D01*
X72761348Y-85079599D01*
X72785853Y-85079599D01*
X72809886Y-85074818D01*
X72832525Y-85065441D01*
X72858238Y-85051697D01*
X72858240Y-85051696D01*
X72914790Y-85034541D01*
X72973600Y-85028749D01*
X73032409Y-85034541D01*
X73088959Y-85051696D01*
X73088961Y-85051697D01*
X73088964Y-85051698D01*
X73114676Y-85065441D01*
X73137315Y-85074819D01*
X73161348Y-85079599D01*
X73185853Y-85079599D01*
X73209886Y-85074818D01*
X73232525Y-85065441D01*
X73258238Y-85051697D01*
X73258240Y-85051696D01*
X73314790Y-85034541D01*
X73373600Y-85028749D01*
X73432409Y-85034541D01*
X73488959Y-85051696D01*
X73488961Y-85051697D01*
X73488964Y-85051698D01*
X73514676Y-85065441D01*
X73537315Y-85074819D01*
X73561348Y-85079599D01*
X73585853Y-85079599D01*
X73609886Y-85074818D01*
X73632525Y-85065441D01*
X73658238Y-85051697D01*
X73658240Y-85051696D01*
X73714790Y-85034541D01*
X73773600Y-85028749D01*
X73832409Y-85034541D01*
X73888959Y-85051696D01*
X73888961Y-85051697D01*
X73888964Y-85051698D01*
X73914676Y-85065441D01*
X73937315Y-85074819D01*
X73961348Y-85079599D01*
X73985853Y-85079599D01*
X74009886Y-85074818D01*
X74032525Y-85065441D01*
X74058238Y-85051697D01*
X74058240Y-85051696D01*
X74114790Y-85034541D01*
X74173600Y-85028749D01*
X74232409Y-85034541D01*
X74288959Y-85051696D01*
X74288961Y-85051697D01*
X74288964Y-85051698D01*
X74314676Y-85065441D01*
X74337315Y-85074819D01*
X74361348Y-85079599D01*
X74385853Y-85079599D01*
X74409886Y-85074818D01*
X74432525Y-85065441D01*
X74458238Y-85051697D01*
X74458240Y-85051696D01*
X74514790Y-85034541D01*
X74573600Y-85028749D01*
X74632409Y-85034541D01*
X74688959Y-85051696D01*
X74688961Y-85051697D01*
X74688964Y-85051698D01*
X74714676Y-85065441D01*
X74737315Y-85074819D01*
X74761348Y-85079599D01*
X74785853Y-85079599D01*
X74809886Y-85074818D01*
X74832525Y-85065441D01*
X74858238Y-85051697D01*
X74858240Y-85051696D01*
X74914790Y-85034541D01*
X74973600Y-85028749D01*
X75032409Y-85034541D01*
X75088959Y-85051696D01*
X75088961Y-85051697D01*
X75088964Y-85051698D01*
X75114676Y-85065441D01*
X75137315Y-85074819D01*
X75161348Y-85079599D01*
X75185853Y-85079599D01*
X75209886Y-85074818D01*
X75232525Y-85065441D01*
X75258238Y-85051697D01*
X75258240Y-85051696D01*
X75314790Y-85034541D01*
X75373600Y-85028749D01*
X75432409Y-85034541D01*
X75488959Y-85051696D01*
X75488961Y-85051697D01*
X75488964Y-85051698D01*
X75514676Y-85065441D01*
X75537315Y-85074819D01*
X75561348Y-85079599D01*
X75585853Y-85079599D01*
X75609886Y-85074818D01*
X75632525Y-85065441D01*
X75658238Y-85051697D01*
X75658240Y-85051696D01*
X75714790Y-85034541D01*
X75773600Y-85028749D01*
X75832409Y-85034541D01*
X75888959Y-85051696D01*
X75888961Y-85051697D01*
X75888964Y-85051698D01*
X75914676Y-85065441D01*
X75937315Y-85074819D01*
X75961348Y-85079599D01*
X75985853Y-85079599D01*
X76009886Y-85074818D01*
X76032525Y-85065441D01*
X76058238Y-85051697D01*
X76058240Y-85051696D01*
X76114790Y-85034541D01*
X76173600Y-85028749D01*
X76232409Y-85034541D01*
X76232409Y-85034541D01*
G37*
G36*
X65728382Y-90281397D02*
X65776345Y-90295946D01*
X65820535Y-90319566D01*
X65859278Y-90351362D01*
X65891074Y-90390105D01*
X65914694Y-90434295D01*
X65929243Y-90482258D01*
X65934760Y-90538271D01*
X65934760Y-91363489D01*
X65929243Y-91419502D01*
X65914694Y-91467465D01*
X65891074Y-91511655D01*
X65859278Y-91550398D01*
X65820535Y-91582194D01*
X65776345Y-91605814D01*
X65728382Y-91620363D01*
X65672369Y-91625880D01*
X64922151Y-91625880D01*
X64866138Y-91620363D01*
X64818175Y-91605814D01*
X64773985Y-91582194D01*
X64735242Y-91550398D01*
X64703446Y-91511655D01*
X64679826Y-91467465D01*
X64665277Y-91419502D01*
X64659760Y-91363489D01*
X64659760Y-90538271D01*
X64665277Y-90482258D01*
X64679826Y-90434295D01*
X64703446Y-90390105D01*
X64735242Y-90351362D01*
X64773985Y-90319566D01*
X64818175Y-90295946D01*
X64866138Y-90281397D01*
X64922151Y-90275880D01*
X65672369Y-90275880D01*
X65728382Y-90281397D01*
X65728382Y-90281397D01*
G37*
G36*
X67229522Y-88836137D02*
X67277485Y-88850686D01*
X67321675Y-88874306D01*
X67360418Y-88906102D01*
X67392214Y-88944845D01*
X67415834Y-88989035D01*
X67430383Y-89036998D01*
X67435900Y-89093011D01*
X67435900Y-89918229D01*
X67430383Y-89974242D01*
X67415834Y-90022205D01*
X67392214Y-90066395D01*
X67360224Y-90105374D01*
X67343323Y-90122276D01*
X67329710Y-90142651D01*
X67320333Y-90165290D01*
X67315554Y-90189324D01*
X67315554Y-90213828D01*
X67320336Y-90237861D01*
X67329714Y-90260500D01*
X67343328Y-90280874D01*
X67360656Y-90298201D01*
X67381027Y-90311812D01*
X67395537Y-90319568D01*
X67434278Y-90351362D01*
X67466074Y-90390105D01*
X67489694Y-90434295D01*
X67504243Y-90482258D01*
X67509760Y-90538271D01*
X67509760Y-91363489D01*
X67504243Y-91419502D01*
X67489694Y-91467465D01*
X67466074Y-91511655D01*
X67434278Y-91550398D01*
X67395535Y-91582194D01*
X67351345Y-91605814D01*
X67303382Y-91620363D01*
X67247369Y-91625880D01*
X66497151Y-91625880D01*
X66441138Y-91620363D01*
X66393175Y-91605814D01*
X66348985Y-91582194D01*
X66310242Y-91550398D01*
X66278446Y-91511655D01*
X66254826Y-91467465D01*
X66240277Y-91419502D01*
X66234760Y-91363489D01*
X66234760Y-90538271D01*
X66240277Y-90482258D01*
X66254826Y-90434295D01*
X66278446Y-90390105D01*
X66310436Y-90351126D01*
X66327337Y-90334224D01*
X66340950Y-90313849D01*
X66350327Y-90291210D01*
X66355106Y-90267176D01*
X66355106Y-90242672D01*
X66350324Y-90218639D01*
X66340946Y-90196000D01*
X66327332Y-90175626D01*
X66310004Y-90158299D01*
X66289633Y-90144688D01*
X66275123Y-90136932D01*
X66236382Y-90105138D01*
X66204586Y-90066395D01*
X66180966Y-90022205D01*
X66166417Y-89974242D01*
X66160900Y-89918229D01*
X66160900Y-89093011D01*
X66166417Y-89036998D01*
X66180966Y-88989035D01*
X66204586Y-88944845D01*
X66236382Y-88906102D01*
X66275125Y-88874306D01*
X66319315Y-88850686D01*
X66367278Y-88836137D01*
X66423291Y-88830620D01*
X67173509Y-88830620D01*
X67229522Y-88836137D01*
X67229522Y-88836137D01*
G37*
G36*
X68804522Y-88836137D02*
X68852485Y-88850686D01*
X68896675Y-88874306D01*
X68935418Y-88906102D01*
X68967214Y-88944845D01*
X68990834Y-88989035D01*
X69005383Y-89036998D01*
X69010900Y-89093011D01*
X69010900Y-89918229D01*
X69005383Y-89974242D01*
X68990834Y-90022205D01*
X68967214Y-90066395D01*
X68935418Y-90105138D01*
X68896675Y-90136934D01*
X68852485Y-90160554D01*
X68804522Y-90175103D01*
X68748509Y-90180620D01*
X67998291Y-90180620D01*
X67942278Y-90175103D01*
X67894315Y-90160554D01*
X67850125Y-90136934D01*
X67811382Y-90105138D01*
X67779586Y-90066395D01*
X67755966Y-90022205D01*
X67741417Y-89974242D01*
X67735900Y-89918229D01*
X67735900Y-89093011D01*
X67741417Y-89036998D01*
X67755966Y-88989035D01*
X67779586Y-88944845D01*
X67811382Y-88906102D01*
X67850125Y-88874306D01*
X67894315Y-88850686D01*
X67942278Y-88836137D01*
X67998291Y-88830620D01*
X68748509Y-88830620D01*
X68804522Y-88836137D01*
X68804522Y-88836137D01*
G37*
G36*
X51256945Y-87690599D02*
X51274272Y-87707926D01*
X51294646Y-87721540D01*
X51317285Y-87730918D01*
X51341319Y-87735698D01*
X51376093Y-87739123D01*
X51436231Y-87745046D01*
X51501470Y-87764836D01*
X51615308Y-87799368D01*
X51780347Y-87887583D01*
X51925001Y-88006299D01*
X52043717Y-88150953D01*
X52131932Y-88315991D01*
X52155558Y-88393878D01*
X52186254Y-88495068D01*
X52189778Y-88530847D01*
X52198696Y-88621390D01*
X52200000Y-88634635D01*
X52200000Y-89127964D01*
X52186254Y-89267532D01*
X52148687Y-89391373D01*
X52131932Y-89446608D01*
X52043717Y-89611647D01*
X51925001Y-89756301D01*
X51780347Y-89875017D01*
X51615309Y-89963232D01*
X51526297Y-89990233D01*
X51436232Y-90017554D01*
X51250000Y-90035896D01*
X51063769Y-90017554D01*
X50973704Y-89990233D01*
X50884692Y-89963232D01*
X50719654Y-89875017D01*
X50575000Y-89756301D01*
X50456284Y-89611647D01*
X50456282Y-89611645D01*
X50368068Y-89446608D01*
X50368067Y-89446606D01*
X50365553Y-89441902D01*
X50360242Y-89429081D01*
X50346629Y-89408706D01*
X50329302Y-89391378D01*
X50308928Y-89377764D01*
X50286289Y-89368386D01*
X50262256Y-89363604D01*
X50237752Y-89363604D01*
X50213718Y-89368383D01*
X50191079Y-89377760D01*
X50170704Y-89391373D01*
X50153376Y-89408700D01*
X50139762Y-89429074D01*
X50134451Y-89441895D01*
X50043717Y-89611647D01*
X49925001Y-89756301D01*
X49780347Y-89875017D01*
X49615309Y-89963232D01*
X49526297Y-89990233D01*
X49436232Y-90017554D01*
X49250000Y-90035896D01*
X49063769Y-90017554D01*
X48973704Y-89990233D01*
X48884692Y-89963232D01*
X48719654Y-89875017D01*
X48575000Y-89756301D01*
X48456284Y-89611647D01*
X48456282Y-89611645D01*
X48375123Y-89459807D01*
X48368068Y-89446609D01*
X48328596Y-89316487D01*
X48313746Y-89267532D01*
X48301088Y-89139010D01*
X48300000Y-89127966D01*
X48300000Y-88634635D01*
X48313746Y-88495070D01*
X48313747Y-88495068D01*
X48345896Y-88389085D01*
X48368068Y-88315992D01*
X48456283Y-88150953D01*
X48574999Y-88006299D01*
X48719653Y-87887583D01*
X48884691Y-87799368D01*
X48998529Y-87764836D01*
X49063768Y-87745046D01*
X49158681Y-87735698D01*
X49182715Y-87730918D01*
X49205354Y-87721540D01*
X49225728Y-87707926D01*
X49243055Y-87690599D01*
X49250000Y-87680205D01*
X49256945Y-87690599D01*
X49274272Y-87707926D01*
X49294646Y-87721540D01*
X49317285Y-87730918D01*
X49341319Y-87735698D01*
X49376093Y-87739123D01*
X49436231Y-87745046D01*
X49501470Y-87764836D01*
X49615308Y-87799368D01*
X49780347Y-87887583D01*
X49925001Y-88006299D01*
X50043717Y-88150953D01*
X50134447Y-88320697D01*
X50139758Y-88333519D01*
X50153371Y-88353894D01*
X50170698Y-88371222D01*
X50191072Y-88384836D01*
X50213711Y-88394214D01*
X50237744Y-88398996D01*
X50262248Y-88398996D01*
X50286282Y-88394217D01*
X50308921Y-88384840D01*
X50329296Y-88371227D01*
X50346624Y-88353900D01*
X50360238Y-88333526D01*
X50365549Y-88320705D01*
X50456283Y-88150953D01*
X50574999Y-88006299D01*
X50719653Y-87887583D01*
X50884691Y-87799368D01*
X50998529Y-87764836D01*
X51063768Y-87745046D01*
X51158681Y-87735698D01*
X51182715Y-87730918D01*
X51205354Y-87721540D01*
X51225728Y-87707926D01*
X51243055Y-87690599D01*
X51250000Y-87680205D01*
X51256945Y-87690599D01*
X51256945Y-87690599D01*
G37*
G36*
X91264375Y-87380200D02*
X91365836Y-87390193D01*
X91468679Y-87421390D01*
X91563763Y-87450233D01*
X91746172Y-87547733D01*
X91906054Y-87678946D01*
X92037267Y-87838828D01*
X92134767Y-88021237D01*
X92148936Y-88067946D01*
X92194807Y-88219164D01*
X92215080Y-88425000D01*
X92194807Y-88630836D01*
X92168078Y-88718950D01*
X92134767Y-88828763D01*
X92037267Y-89011172D01*
X91906054Y-89171054D01*
X91746172Y-89302267D01*
X91563763Y-89399767D01*
X91497787Y-89419780D01*
X91365836Y-89459807D01*
X91288707Y-89467403D01*
X91211580Y-89475000D01*
X91108420Y-89475000D01*
X91031293Y-89467403D01*
X90954164Y-89459807D01*
X90822213Y-89419780D01*
X90756237Y-89399767D01*
X90573828Y-89302267D01*
X90413946Y-89171054D01*
X90282733Y-89011172D01*
X90185233Y-88828763D01*
X90151922Y-88718950D01*
X90125193Y-88630836D01*
X90104920Y-88425000D01*
X90125193Y-88219164D01*
X90171064Y-88067946D01*
X90185233Y-88021237D01*
X90282733Y-87838828D01*
X90413946Y-87678946D01*
X90573828Y-87547733D01*
X90756237Y-87450233D01*
X90851321Y-87421390D01*
X90954164Y-87390193D01*
X91055625Y-87380200D01*
X91108420Y-87375000D01*
X91211580Y-87375000D01*
X91264375Y-87380200D01*
X91264375Y-87380200D01*
G37*
G36*
X53714375Y-87380200D02*
X53815836Y-87390193D01*
X53918679Y-87421390D01*
X54013763Y-87450233D01*
X54196172Y-87547733D01*
X54356054Y-87678946D01*
X54487267Y-87838828D01*
X54584767Y-88021237D01*
X54598936Y-88067946D01*
X54644807Y-88219164D01*
X54665080Y-88425000D01*
X54644807Y-88630836D01*
X54618078Y-88718950D01*
X54584767Y-88828763D01*
X54487267Y-89011172D01*
X54356054Y-89171054D01*
X54196172Y-89302267D01*
X54013763Y-89399767D01*
X53947787Y-89419780D01*
X53815836Y-89459807D01*
X53738707Y-89467403D01*
X53661580Y-89475000D01*
X53558420Y-89475000D01*
X53481293Y-89467403D01*
X53404164Y-89459807D01*
X53272213Y-89419780D01*
X53206237Y-89399767D01*
X53023828Y-89302267D01*
X52863946Y-89171054D01*
X52732733Y-89011172D01*
X52635233Y-88828763D01*
X52601922Y-88718950D01*
X52575193Y-88630836D01*
X52554920Y-88425000D01*
X52575193Y-88219164D01*
X52621064Y-88067946D01*
X52635233Y-88021237D01*
X52732733Y-87838828D01*
X52863946Y-87678946D01*
X53023828Y-87547733D01*
X53206237Y-87450233D01*
X53301321Y-87421390D01*
X53404164Y-87390193D01*
X53505625Y-87380200D01*
X53558420Y-87375000D01*
X53661580Y-87375000D01*
X53714375Y-87380200D01*
X53714375Y-87380200D01*
G37*
G36*
X56254375Y-87380200D02*
X56355836Y-87390193D01*
X56458679Y-87421390D01*
X56553763Y-87450233D01*
X56736172Y-87547733D01*
X56896054Y-87678946D01*
X57027267Y-87838828D01*
X57124767Y-88021237D01*
X57138936Y-88067946D01*
X57184807Y-88219164D01*
X57205080Y-88425000D01*
X57184807Y-88630836D01*
X57158078Y-88718950D01*
X57124767Y-88828763D01*
X57027267Y-89011172D01*
X56896054Y-89171054D01*
X56736172Y-89302267D01*
X56553763Y-89399767D01*
X56487787Y-89419780D01*
X56355836Y-89459807D01*
X56278707Y-89467403D01*
X56201580Y-89475000D01*
X56098420Y-89475000D01*
X56021293Y-89467403D01*
X55944164Y-89459807D01*
X55812213Y-89419780D01*
X55746237Y-89399767D01*
X55563828Y-89302267D01*
X55403946Y-89171054D01*
X55272733Y-89011172D01*
X55175233Y-88828763D01*
X55141922Y-88718950D01*
X55115193Y-88630836D01*
X55094920Y-88425000D01*
X55115193Y-88219164D01*
X55161064Y-88067946D01*
X55175233Y-88021237D01*
X55272733Y-87838828D01*
X55403946Y-87678946D01*
X55563828Y-87547733D01*
X55746237Y-87450233D01*
X55841321Y-87421390D01*
X55944164Y-87390193D01*
X56045625Y-87380200D01*
X56098420Y-87375000D01*
X56201580Y-87375000D01*
X56254375Y-87380200D01*
X56254375Y-87380200D01*
G37*
G36*
X88724375Y-87380200D02*
X88825836Y-87390193D01*
X88928679Y-87421390D01*
X89023763Y-87450233D01*
X89206172Y-87547733D01*
X89366054Y-87678946D01*
X89497267Y-87838828D01*
X89594767Y-88021237D01*
X89608936Y-88067946D01*
X89654807Y-88219164D01*
X89675080Y-88425000D01*
X89654807Y-88630836D01*
X89628078Y-88718950D01*
X89594767Y-88828763D01*
X89497267Y-89011172D01*
X89366054Y-89171054D01*
X89206172Y-89302267D01*
X89023763Y-89399767D01*
X88957787Y-89419780D01*
X88825836Y-89459807D01*
X88748707Y-89467403D01*
X88671580Y-89475000D01*
X88568420Y-89475000D01*
X88491293Y-89467403D01*
X88414164Y-89459807D01*
X88282213Y-89419780D01*
X88216237Y-89399767D01*
X88033828Y-89302267D01*
X87873946Y-89171054D01*
X87742733Y-89011172D01*
X87645233Y-88828763D01*
X87611922Y-88718950D01*
X87585193Y-88630836D01*
X87564920Y-88425000D01*
X87585193Y-88219164D01*
X87631064Y-88067946D01*
X87645233Y-88021237D01*
X87742733Y-87838828D01*
X87873946Y-87678946D01*
X88033828Y-87547733D01*
X88216237Y-87450233D01*
X88311321Y-87421390D01*
X88414164Y-87390193D01*
X88515625Y-87380200D01*
X88568420Y-87375000D01*
X88671580Y-87375000D01*
X88724375Y-87380200D01*
X88724375Y-87380200D01*
G37*
G36*
X79311222Y-87693217D02*
X79359185Y-87707766D01*
X79403375Y-87731386D01*
X79442118Y-87763182D01*
X79473914Y-87801925D01*
X79497534Y-87846115D01*
X79512083Y-87894078D01*
X79517600Y-87950091D01*
X79517600Y-88775309D01*
X79512083Y-88831322D01*
X79497534Y-88879285D01*
X79473914Y-88923475D01*
X79442118Y-88962218D01*
X79403375Y-88994014D01*
X79359185Y-89017634D01*
X79311222Y-89032183D01*
X79255209Y-89037700D01*
X78504991Y-89037700D01*
X78448978Y-89032183D01*
X78401015Y-89017634D01*
X78356825Y-88994014D01*
X78318082Y-88962218D01*
X78286286Y-88923475D01*
X78262666Y-88879285D01*
X78248117Y-88831322D01*
X78242600Y-88775309D01*
X78242600Y-87950091D01*
X78248117Y-87894078D01*
X78262666Y-87846115D01*
X78286286Y-87801925D01*
X78318082Y-87763182D01*
X78356825Y-87731386D01*
X78401015Y-87707766D01*
X78448978Y-87693217D01*
X78504991Y-87687700D01*
X79255209Y-87687700D01*
X79311222Y-87693217D01*
X79311222Y-87693217D01*
G37*
G36*
X80886222Y-87693217D02*
X80934185Y-87707766D01*
X80978375Y-87731386D01*
X81017118Y-87763182D01*
X81048914Y-87801925D01*
X81072534Y-87846115D01*
X81087083Y-87894078D01*
X81092600Y-87950091D01*
X81092600Y-88775309D01*
X81087083Y-88831322D01*
X81072534Y-88879285D01*
X81048914Y-88923475D01*
X81017118Y-88962218D01*
X80978375Y-88994014D01*
X80934185Y-89017634D01*
X80886222Y-89032183D01*
X80830209Y-89037700D01*
X80079991Y-89037700D01*
X80023978Y-89032183D01*
X79976015Y-89017634D01*
X79931825Y-88994014D01*
X79893082Y-88962218D01*
X79861286Y-88923475D01*
X79837666Y-88879285D01*
X79823117Y-88831322D01*
X79817600Y-88775309D01*
X79817600Y-87950091D01*
X79823117Y-87894078D01*
X79837666Y-87846115D01*
X79861286Y-87801925D01*
X79893082Y-87763182D01*
X79931825Y-87731386D01*
X79976015Y-87707766D01*
X80023978Y-87693217D01*
X80079991Y-87687700D01*
X80830209Y-87687700D01*
X80886222Y-87693217D01*
X80886222Y-87693217D01*
G37*
G36*
X68198437Y-87145417D02*
X68251093Y-87161390D01*
X68299605Y-87187320D01*
X68342136Y-87222224D01*
X68377040Y-87264755D01*
X68402970Y-87313267D01*
X68418943Y-87365923D01*
X68424940Y-87426810D01*
X68424940Y-88227030D01*
X68418943Y-88287917D01*
X68402970Y-88340573D01*
X68377040Y-88389085D01*
X68342136Y-88431616D01*
X68299605Y-88466520D01*
X68251093Y-88492450D01*
X68198437Y-88508423D01*
X68137550Y-88514420D01*
X66912330Y-88514420D01*
X66851443Y-88508423D01*
X66798787Y-88492450D01*
X66750275Y-88466520D01*
X66707744Y-88431616D01*
X66672840Y-88389085D01*
X66646910Y-88340573D01*
X66630937Y-88287917D01*
X66624940Y-88227030D01*
X66624940Y-87426810D01*
X66630937Y-87365923D01*
X66646910Y-87313267D01*
X66672840Y-87264755D01*
X66707744Y-87222224D01*
X66750275Y-87187320D01*
X66798787Y-87161390D01*
X66851443Y-87145417D01*
X66912330Y-87139420D01*
X68137550Y-87139420D01*
X68198437Y-87145417D01*
X68198437Y-87145417D01*
G37*
G36*
X65806622Y-87199877D02*
X65854585Y-87214426D01*
X65898775Y-87238046D01*
X65937518Y-87269842D01*
X65969314Y-87308585D01*
X65992934Y-87352775D01*
X66007483Y-87400738D01*
X66013000Y-87456751D01*
X66013000Y-88206969D01*
X66007483Y-88262982D01*
X65992934Y-88310945D01*
X65969314Y-88355135D01*
X65937518Y-88393878D01*
X65898775Y-88425674D01*
X65854585Y-88449294D01*
X65806622Y-88463843D01*
X65750609Y-88469360D01*
X64925391Y-88469360D01*
X64869378Y-88463843D01*
X64821415Y-88449294D01*
X64777225Y-88425674D01*
X64738482Y-88393878D01*
X64706686Y-88355135D01*
X64683066Y-88310945D01*
X64668517Y-88262982D01*
X64663000Y-88206969D01*
X64663000Y-87456751D01*
X64668517Y-87400738D01*
X64683066Y-87352775D01*
X64706686Y-87308585D01*
X64738482Y-87269842D01*
X64777225Y-87238046D01*
X64821415Y-87214426D01*
X64869378Y-87199877D01*
X64925391Y-87194360D01*
X65750609Y-87194360D01*
X65806622Y-87199877D01*
X65806622Y-87199877D01*
G37*
G36*
X51436231Y-85205046D02*
X51525769Y-85232207D01*
X51615308Y-85259368D01*
X51780347Y-85347583D01*
X51925001Y-85466299D01*
X52043717Y-85610953D01*
X52131932Y-85775991D01*
X52144108Y-85816130D01*
X52186254Y-85955068D01*
X52200000Y-86094635D01*
X52200000Y-86587964D01*
X52186254Y-86727532D01*
X52136227Y-86892450D01*
X52131932Y-86906608D01*
X52043717Y-87071647D01*
X51925001Y-87216301D01*
X51780347Y-87335017D01*
X51615309Y-87423232D01*
X51526297Y-87450233D01*
X51436232Y-87477554D01*
X51409366Y-87480200D01*
X51341319Y-87486902D01*
X51317285Y-87491682D01*
X51294646Y-87501060D01*
X51274272Y-87514674D01*
X51256945Y-87532001D01*
X51250000Y-87542395D01*
X51243055Y-87532001D01*
X51225728Y-87514674D01*
X51205354Y-87501060D01*
X51182715Y-87491682D01*
X51158681Y-87486902D01*
X51090635Y-87480200D01*
X51063769Y-87477554D01*
X50973704Y-87450233D01*
X50884692Y-87423232D01*
X50719654Y-87335017D01*
X50575000Y-87216301D01*
X50516826Y-87145417D01*
X50456282Y-87071645D01*
X50368068Y-86906608D01*
X50368067Y-86906606D01*
X50365553Y-86901902D01*
X50360242Y-86889081D01*
X50346629Y-86868706D01*
X50329302Y-86851378D01*
X50308928Y-86837764D01*
X50286289Y-86828386D01*
X50262256Y-86823604D01*
X50237752Y-86823604D01*
X50213718Y-86828383D01*
X50191079Y-86837760D01*
X50170704Y-86851373D01*
X50153376Y-86868700D01*
X50139762Y-86889074D01*
X50134451Y-86901895D01*
X50131932Y-86906607D01*
X50131932Y-86906608D01*
X50100806Y-86964840D01*
X50043717Y-87071647D01*
X49925001Y-87216301D01*
X49780347Y-87335017D01*
X49615309Y-87423232D01*
X49526297Y-87450233D01*
X49436232Y-87477554D01*
X49409366Y-87480200D01*
X49341319Y-87486902D01*
X49317285Y-87491682D01*
X49294646Y-87501060D01*
X49274272Y-87514674D01*
X49256945Y-87532001D01*
X49250000Y-87542395D01*
X49243055Y-87532001D01*
X49225728Y-87514674D01*
X49205354Y-87501060D01*
X49182715Y-87491682D01*
X49158681Y-87486902D01*
X49090635Y-87480200D01*
X49063769Y-87477554D01*
X48973704Y-87450233D01*
X48884692Y-87423232D01*
X48719654Y-87335017D01*
X48575000Y-87216301D01*
X48516826Y-87145417D01*
X48456282Y-87071645D01*
X48392320Y-86951981D01*
X48368068Y-86906609D01*
X48334382Y-86795560D01*
X48313746Y-86727532D01*
X48300000Y-86587965D01*
X48300000Y-86094636D01*
X48313746Y-85955069D01*
X48347155Y-85844933D01*
X48368068Y-85775992D01*
X48456283Y-85610953D01*
X48574999Y-85466299D01*
X48719653Y-85347583D01*
X48884691Y-85259368D01*
X48974230Y-85232207D01*
X49063768Y-85205046D01*
X49250000Y-85186704D01*
X49436231Y-85205046D01*
X49525769Y-85232207D01*
X49615308Y-85259368D01*
X49780347Y-85347583D01*
X49925001Y-85466299D01*
X50043717Y-85610953D01*
X50134447Y-85780697D01*
X50139758Y-85793519D01*
X50153371Y-85813894D01*
X50170698Y-85831222D01*
X50191072Y-85844836D01*
X50213711Y-85854214D01*
X50237744Y-85858996D01*
X50262248Y-85858996D01*
X50286282Y-85854217D01*
X50308921Y-85844840D01*
X50329296Y-85831227D01*
X50346624Y-85813900D01*
X50360238Y-85793526D01*
X50365549Y-85780705D01*
X50456283Y-85610953D01*
X50574999Y-85466299D01*
X50719653Y-85347583D01*
X50884691Y-85259368D01*
X50974230Y-85232207D01*
X51063768Y-85205046D01*
X51250000Y-85186704D01*
X51436231Y-85205046D01*
X51436231Y-85205046D01*
G37*
G36*
X80707722Y-85661217D02*
X80755685Y-85675766D01*
X80799875Y-85699386D01*
X80838618Y-85731182D01*
X80870414Y-85769925D01*
X80894034Y-85814115D01*
X80908583Y-85862078D01*
X80914100Y-85918091D01*
X80914100Y-86743309D01*
X80908583Y-86799322D01*
X80894034Y-86847285D01*
X80870414Y-86891475D01*
X80838618Y-86930218D01*
X80799875Y-86962014D01*
X80755685Y-86985634D01*
X80707722Y-87000183D01*
X80651709Y-87005700D01*
X79901491Y-87005700D01*
X79845478Y-87000183D01*
X79797515Y-86985634D01*
X79753325Y-86962014D01*
X79714582Y-86930218D01*
X79682786Y-86891475D01*
X79659166Y-86847285D01*
X79644617Y-86799322D01*
X79639100Y-86743309D01*
X79639100Y-85918091D01*
X79644617Y-85862078D01*
X79659166Y-85814115D01*
X79682786Y-85769925D01*
X79714582Y-85731182D01*
X79753325Y-85699386D01*
X79797515Y-85675766D01*
X79845478Y-85661217D01*
X79901491Y-85655700D01*
X80651709Y-85655700D01*
X80707722Y-85661217D01*
X80707722Y-85661217D01*
G37*
G36*
X79132722Y-85661217D02*
X79180685Y-85675766D01*
X79224875Y-85699386D01*
X79263618Y-85731182D01*
X79295414Y-85769925D01*
X79319034Y-85814115D01*
X79333583Y-85862078D01*
X79339100Y-85918091D01*
X79339100Y-86743309D01*
X79333583Y-86799322D01*
X79319034Y-86847285D01*
X79295414Y-86891475D01*
X79263618Y-86930218D01*
X79224875Y-86962014D01*
X79180685Y-86985634D01*
X79132722Y-87000183D01*
X79076709Y-87005700D01*
X78326491Y-87005700D01*
X78270478Y-87000183D01*
X78222515Y-86985634D01*
X78178325Y-86962014D01*
X78139582Y-86930218D01*
X78107786Y-86891475D01*
X78084166Y-86847285D01*
X78069617Y-86799322D01*
X78064100Y-86743309D01*
X78064100Y-85918091D01*
X78069617Y-85862078D01*
X78084166Y-85814115D01*
X78107786Y-85769925D01*
X78139582Y-85731182D01*
X78178325Y-85699386D01*
X78222515Y-85675766D01*
X78270478Y-85661217D01*
X78326491Y-85655700D01*
X79076709Y-85655700D01*
X79132722Y-85661217D01*
X79132722Y-85661217D01*
G37*
G36*
X53738707Y-84842596D02*
X53815836Y-84850193D01*
X53947787Y-84890220D01*
X54013763Y-84910233D01*
X54196172Y-85007733D01*
X54356054Y-85138946D01*
X54487267Y-85298828D01*
X54584767Y-85481237D01*
X54584767Y-85481238D01*
X54644807Y-85679164D01*
X54665080Y-85885000D01*
X54644807Y-86090836D01*
X54622358Y-86164840D01*
X54584767Y-86288763D01*
X54487267Y-86471172D01*
X54356054Y-86631054D01*
X54196172Y-86762267D01*
X54013763Y-86859767D01*
X53965873Y-86874294D01*
X53815836Y-86919807D01*
X53738707Y-86927403D01*
X53661580Y-86935000D01*
X53558420Y-86935000D01*
X53481293Y-86927403D01*
X53404164Y-86919807D01*
X53254127Y-86874294D01*
X53206237Y-86859767D01*
X53023828Y-86762267D01*
X52863946Y-86631054D01*
X52732733Y-86471172D01*
X52635233Y-86288763D01*
X52597642Y-86164840D01*
X52575193Y-86090836D01*
X52554920Y-85885000D01*
X52575193Y-85679164D01*
X52635233Y-85481238D01*
X52635233Y-85481237D01*
X52732733Y-85298828D01*
X52863946Y-85138946D01*
X53023828Y-85007733D01*
X53206237Y-84910233D01*
X53272213Y-84890220D01*
X53404164Y-84850193D01*
X53481293Y-84842596D01*
X53558420Y-84835000D01*
X53661580Y-84835000D01*
X53738707Y-84842596D01*
X53738707Y-84842596D01*
G37*
G36*
X88748707Y-84842596D02*
X88825836Y-84850193D01*
X88957787Y-84890220D01*
X89023763Y-84910233D01*
X89206172Y-85007733D01*
X89366054Y-85138946D01*
X89497267Y-85298828D01*
X89594767Y-85481237D01*
X89594767Y-85481238D01*
X89654807Y-85679164D01*
X89675080Y-85885000D01*
X89654807Y-86090836D01*
X89632358Y-86164840D01*
X89594767Y-86288763D01*
X89497267Y-86471172D01*
X89366054Y-86631054D01*
X89206172Y-86762267D01*
X89023763Y-86859767D01*
X88975873Y-86874294D01*
X88825836Y-86919807D01*
X88748707Y-86927403D01*
X88671580Y-86935000D01*
X88568420Y-86935000D01*
X88491293Y-86927403D01*
X88414164Y-86919807D01*
X88264127Y-86874294D01*
X88216237Y-86859767D01*
X88033828Y-86762267D01*
X87873946Y-86631054D01*
X87742733Y-86471172D01*
X87645233Y-86288763D01*
X87607642Y-86164840D01*
X87585193Y-86090836D01*
X87564920Y-85885000D01*
X87585193Y-85679164D01*
X87645233Y-85481238D01*
X87645233Y-85481237D01*
X87742733Y-85298828D01*
X87873946Y-85138946D01*
X88033828Y-85007733D01*
X88216237Y-84910233D01*
X88282213Y-84890220D01*
X88414164Y-84850193D01*
X88491293Y-84842596D01*
X88568420Y-84835000D01*
X88671580Y-84835000D01*
X88748707Y-84842596D01*
X88748707Y-84842596D01*
G37*
G36*
X91288707Y-84842596D02*
X91365836Y-84850193D01*
X91497787Y-84890220D01*
X91563763Y-84910233D01*
X91746172Y-85007733D01*
X91906054Y-85138946D01*
X92037267Y-85298828D01*
X92134767Y-85481237D01*
X92134767Y-85481238D01*
X92194807Y-85679164D01*
X92215080Y-85885000D01*
X92194807Y-86090836D01*
X92172358Y-86164840D01*
X92134767Y-86288763D01*
X92037267Y-86471172D01*
X91906054Y-86631054D01*
X91746172Y-86762267D01*
X91563763Y-86859767D01*
X91515873Y-86874294D01*
X91365836Y-86919807D01*
X91288707Y-86927403D01*
X91211580Y-86935000D01*
X91108420Y-86935000D01*
X91031293Y-86927403D01*
X90954164Y-86919807D01*
X90804127Y-86874294D01*
X90756237Y-86859767D01*
X90573828Y-86762267D01*
X90413946Y-86631054D01*
X90282733Y-86471172D01*
X90185233Y-86288763D01*
X90147642Y-86164840D01*
X90125193Y-86090836D01*
X90104920Y-85885000D01*
X90125193Y-85679164D01*
X90185233Y-85481238D01*
X90185233Y-85481237D01*
X90282733Y-85298828D01*
X90413946Y-85138946D01*
X90573828Y-85007733D01*
X90756237Y-84910233D01*
X90822213Y-84890220D01*
X90954164Y-84850193D01*
X91031293Y-84842596D01*
X91108420Y-84835000D01*
X91211580Y-84835000D01*
X91288707Y-84842596D01*
X91288707Y-84842596D01*
G37*
G36*
X65806622Y-85624877D02*
X65854585Y-85639426D01*
X65898775Y-85663046D01*
X65937518Y-85694842D01*
X65969314Y-85733585D01*
X65992934Y-85777775D01*
X66007483Y-85825738D01*
X66013000Y-85881751D01*
X66013000Y-86631969D01*
X66007483Y-86687982D01*
X65992934Y-86735945D01*
X65969314Y-86780135D01*
X65937518Y-86818878D01*
X65898775Y-86850674D01*
X65854585Y-86874294D01*
X65806622Y-86888843D01*
X65750609Y-86894360D01*
X64925391Y-86894360D01*
X64869378Y-86888843D01*
X64821415Y-86874294D01*
X64777225Y-86850674D01*
X64738482Y-86818878D01*
X64706686Y-86780135D01*
X64683066Y-86735945D01*
X64668517Y-86687982D01*
X64663000Y-86631969D01*
X64663000Y-85881751D01*
X64668517Y-85825738D01*
X64683066Y-85777775D01*
X64706686Y-85733585D01*
X64738482Y-85694842D01*
X64777225Y-85663046D01*
X64821415Y-85639426D01*
X64869378Y-85624877D01*
X64925391Y-85619360D01*
X65750609Y-85619360D01*
X65806622Y-85624877D01*
X65806622Y-85624877D01*
G37*
G36*
X68198437Y-85270417D02*
X68251093Y-85286390D01*
X68299605Y-85312320D01*
X68342136Y-85347224D01*
X68377040Y-85389755D01*
X68402970Y-85438267D01*
X68418943Y-85490923D01*
X68424940Y-85551810D01*
X68424940Y-86352030D01*
X68418943Y-86412917D01*
X68402970Y-86465573D01*
X68377040Y-86514085D01*
X68342136Y-86556616D01*
X68299605Y-86591520D01*
X68251093Y-86617450D01*
X68198437Y-86633423D01*
X68137550Y-86639420D01*
X66912330Y-86639420D01*
X66851443Y-86633423D01*
X66798787Y-86617450D01*
X66750275Y-86591520D01*
X66707744Y-86556616D01*
X66672840Y-86514085D01*
X66646910Y-86465573D01*
X66630937Y-86412917D01*
X66624940Y-86352030D01*
X66624940Y-85551810D01*
X66630937Y-85490923D01*
X66646910Y-85438267D01*
X66672840Y-85389755D01*
X66707744Y-85347224D01*
X66750275Y-85312320D01*
X66798787Y-85286390D01*
X66851443Y-85270417D01*
X66912330Y-85264420D01*
X68137550Y-85264420D01*
X68198437Y-85270417D01*
X68198437Y-85270417D01*
G37*
G36*
X79193622Y-83494517D02*
X79241585Y-83509066D01*
X79285775Y-83532686D01*
X79324518Y-83564482D01*
X79356314Y-83603225D01*
X79379934Y-83647415D01*
X79394483Y-83695378D01*
X79400000Y-83751391D01*
X79400000Y-84576609D01*
X79394483Y-84632622D01*
X79379934Y-84680585D01*
X79356314Y-84724775D01*
X79324518Y-84763518D01*
X79285775Y-84795314D01*
X79241585Y-84818934D01*
X79193622Y-84833483D01*
X79137609Y-84839000D01*
X78387391Y-84839000D01*
X78331378Y-84833483D01*
X78283415Y-84818934D01*
X78239225Y-84795314D01*
X78200482Y-84763518D01*
X78168686Y-84724775D01*
X78145066Y-84680585D01*
X78130517Y-84632622D01*
X78125000Y-84576609D01*
X78125000Y-83751391D01*
X78130517Y-83695378D01*
X78145066Y-83647415D01*
X78168686Y-83603225D01*
X78200482Y-83564482D01*
X78239225Y-83532686D01*
X78283415Y-83509066D01*
X78331378Y-83494517D01*
X78387391Y-83489000D01*
X79137609Y-83489000D01*
X79193622Y-83494517D01*
X79193622Y-83494517D01*
G37*
G36*
X80768622Y-83494517D02*
X80816585Y-83509066D01*
X80860775Y-83532686D01*
X80899518Y-83564482D01*
X80931314Y-83603225D01*
X80954934Y-83647415D01*
X80969483Y-83695378D01*
X80975000Y-83751391D01*
X80975000Y-84576609D01*
X80969483Y-84632622D01*
X80954934Y-84680585D01*
X80931314Y-84724775D01*
X80899518Y-84763518D01*
X80860775Y-84795314D01*
X80816585Y-84818934D01*
X80768622Y-84833483D01*
X80712609Y-84839000D01*
X79962391Y-84839000D01*
X79906378Y-84833483D01*
X79858415Y-84818934D01*
X79814225Y-84795314D01*
X79775482Y-84763518D01*
X79743686Y-84724775D01*
X79720066Y-84680585D01*
X79705517Y-84632622D01*
X79700000Y-84576609D01*
X79700000Y-83751391D01*
X79705517Y-83695378D01*
X79720066Y-83647415D01*
X79743686Y-83603225D01*
X79775482Y-83564482D01*
X79814225Y-83532686D01*
X79858415Y-83509066D01*
X79906378Y-83494517D01*
X79962391Y-83489000D01*
X80712609Y-83489000D01*
X80768622Y-83494517D01*
X80768622Y-83494517D01*
G37*
G36*
X53738707Y-82302597D02*
X53815836Y-82310193D01*
X53921092Y-82342122D01*
X54013763Y-82370233D01*
X54196172Y-82467733D01*
X54356054Y-82598946D01*
X54487267Y-82758828D01*
X54584767Y-82941237D01*
X54584767Y-82941238D01*
X54644807Y-83139164D01*
X54665080Y-83345000D01*
X54644807Y-83550836D01*
X54620809Y-83629947D01*
X54584767Y-83748763D01*
X54487267Y-83931172D01*
X54356054Y-84091054D01*
X54196172Y-84222267D01*
X54013763Y-84319767D01*
X53947787Y-84339780D01*
X53815836Y-84379807D01*
X53738707Y-84387404D01*
X53661580Y-84395000D01*
X53558420Y-84395000D01*
X53481293Y-84387404D01*
X53404164Y-84379807D01*
X53272213Y-84339780D01*
X53206237Y-84319767D01*
X53023828Y-84222267D01*
X52863946Y-84091054D01*
X52732733Y-83931172D01*
X52635233Y-83748763D01*
X52599191Y-83629947D01*
X52575193Y-83550836D01*
X52554920Y-83345000D01*
X52575193Y-83139164D01*
X52635233Y-82941238D01*
X52635233Y-82941237D01*
X52732733Y-82758828D01*
X52863946Y-82598946D01*
X53023828Y-82467733D01*
X53206237Y-82370233D01*
X53298908Y-82342122D01*
X53404164Y-82310193D01*
X53481293Y-82302597D01*
X53558420Y-82295000D01*
X53661580Y-82295000D01*
X53738707Y-82302597D01*
X53738707Y-82302597D01*
G37*
G36*
X91288707Y-82302597D02*
X91365836Y-82310193D01*
X91471092Y-82342122D01*
X91563763Y-82370233D01*
X91746172Y-82467733D01*
X91906054Y-82598946D01*
X92037267Y-82758828D01*
X92134767Y-82941237D01*
X92134767Y-82941238D01*
X92194807Y-83139164D01*
X92215080Y-83345000D01*
X92194807Y-83550836D01*
X92170809Y-83629947D01*
X92134767Y-83748763D01*
X92037267Y-83931172D01*
X91906054Y-84091054D01*
X91746172Y-84222267D01*
X91563763Y-84319767D01*
X91497787Y-84339780D01*
X91365836Y-84379807D01*
X91288707Y-84387404D01*
X91211580Y-84395000D01*
X91108420Y-84395000D01*
X91031293Y-84387404D01*
X90954164Y-84379807D01*
X90822213Y-84339780D01*
X90756237Y-84319767D01*
X90573828Y-84222267D01*
X90413946Y-84091054D01*
X90282733Y-83931172D01*
X90185233Y-83748763D01*
X90149191Y-83629947D01*
X90125193Y-83550836D01*
X90104920Y-83345000D01*
X90125193Y-83139164D01*
X90185233Y-82941238D01*
X90185233Y-82941237D01*
X90282733Y-82758828D01*
X90413946Y-82598946D01*
X90573828Y-82467733D01*
X90756237Y-82370233D01*
X90848908Y-82342122D01*
X90954164Y-82310193D01*
X91031293Y-82302597D01*
X91108420Y-82295000D01*
X91211580Y-82295000D01*
X91288707Y-82302597D01*
X91288707Y-82302597D01*
G37*
G36*
X88748707Y-82302597D02*
X88825836Y-82310193D01*
X88931092Y-82342122D01*
X89023763Y-82370233D01*
X89206172Y-82467733D01*
X89366054Y-82598946D01*
X89497267Y-82758828D01*
X89594767Y-82941237D01*
X89594767Y-82941238D01*
X89654807Y-83139164D01*
X89675080Y-83345000D01*
X89654807Y-83550836D01*
X89630809Y-83629947D01*
X89594767Y-83748763D01*
X89497267Y-83931172D01*
X89366054Y-84091054D01*
X89206172Y-84222267D01*
X89023763Y-84319767D01*
X88957787Y-84339780D01*
X88825836Y-84379807D01*
X88748707Y-84387404D01*
X88671580Y-84395000D01*
X88568420Y-84395000D01*
X88491293Y-84387404D01*
X88414164Y-84379807D01*
X88282213Y-84339780D01*
X88216237Y-84319767D01*
X88033828Y-84222267D01*
X87873946Y-84091054D01*
X87742733Y-83931172D01*
X87645233Y-83748763D01*
X87609191Y-83629947D01*
X87585193Y-83550836D01*
X87564920Y-83345000D01*
X87585193Y-83139164D01*
X87645233Y-82941238D01*
X87645233Y-82941237D01*
X87742733Y-82758828D01*
X87873946Y-82598946D01*
X88033828Y-82467733D01*
X88216237Y-82370233D01*
X88308908Y-82342122D01*
X88414164Y-82310193D01*
X88491293Y-82302597D01*
X88568420Y-82295000D01*
X88671580Y-82295000D01*
X88748707Y-82302597D01*
X88748707Y-82302597D01*
G37*
G36*
X65711182Y-83001097D02*
X65759145Y-83015646D01*
X65803335Y-83039266D01*
X65842078Y-83071062D01*
X65873874Y-83109805D01*
X65897494Y-83153995D01*
X65912043Y-83201958D01*
X65917560Y-83257971D01*
X65917560Y-84008189D01*
X65912043Y-84064202D01*
X65897494Y-84112165D01*
X65873874Y-84156355D01*
X65842078Y-84195098D01*
X65803335Y-84226894D01*
X65759145Y-84250514D01*
X65711182Y-84265063D01*
X65655169Y-84270580D01*
X64829951Y-84270580D01*
X64773938Y-84265063D01*
X64725975Y-84250514D01*
X64681785Y-84226894D01*
X64643042Y-84195098D01*
X64611246Y-84156355D01*
X64587626Y-84112165D01*
X64573077Y-84064202D01*
X64567560Y-84008189D01*
X64567560Y-83257971D01*
X64573077Y-83201958D01*
X64587626Y-83153995D01*
X64611246Y-83109805D01*
X64643042Y-83071062D01*
X64681785Y-83039266D01*
X64725975Y-83015646D01*
X64773938Y-83001097D01*
X64829951Y-82995580D01*
X65655169Y-82995580D01*
X65711182Y-83001097D01*
X65711182Y-83001097D01*
G37*
G36*
X68984922Y-82854017D02*
X69032885Y-82868566D01*
X69077075Y-82892186D01*
X69115818Y-82923982D01*
X69147614Y-82962725D01*
X69171234Y-83006915D01*
X69185783Y-83054878D01*
X69191300Y-83110891D01*
X69191300Y-83861109D01*
X69185783Y-83917122D01*
X69171234Y-83965085D01*
X69147614Y-84009275D01*
X69115818Y-84048018D01*
X69077075Y-84079814D01*
X69032885Y-84103434D01*
X68984922Y-84117983D01*
X68928909Y-84123500D01*
X68103691Y-84123500D01*
X68047678Y-84117983D01*
X67999715Y-84103434D01*
X67955525Y-84079814D01*
X67916782Y-84048018D01*
X67884986Y-84009275D01*
X67861366Y-83965085D01*
X67846817Y-83917122D01*
X67841300Y-83861109D01*
X67841300Y-83110891D01*
X67846817Y-83054878D01*
X67861366Y-83006915D01*
X67884986Y-82962725D01*
X67916782Y-82923982D01*
X67955525Y-82892186D01*
X67999715Y-82868566D01*
X68047678Y-82854017D01*
X68103691Y-82848500D01*
X68928909Y-82848500D01*
X68984922Y-82854017D01*
X68984922Y-82854017D01*
G37*
G36*
X51256945Y-81708899D02*
X51274272Y-81726226D01*
X51294646Y-81739840D01*
X51317285Y-81749218D01*
X51341319Y-81753998D01*
X51377863Y-81757597D01*
X51436231Y-81763346D01*
X51525769Y-81790507D01*
X51615308Y-81817668D01*
X51780347Y-81905883D01*
X51925001Y-82024599D01*
X52043717Y-82169253D01*
X52131932Y-82334291D01*
X52143431Y-82372200D01*
X52180616Y-82494781D01*
X52186254Y-82513369D01*
X52199898Y-82651894D01*
X52200000Y-82652935D01*
X52200000Y-83146264D01*
X52186254Y-83285832D01*
X52148687Y-83409673D01*
X52131932Y-83464908D01*
X52043717Y-83629947D01*
X51925001Y-83774601D01*
X51780347Y-83893317D01*
X51615309Y-83981532D01*
X51527431Y-84008189D01*
X51436232Y-84035854D01*
X51250000Y-84054196D01*
X51063769Y-84035854D01*
X50972570Y-84008189D01*
X50884692Y-83981532D01*
X50719654Y-83893317D01*
X50575000Y-83774601D01*
X50524627Y-83713222D01*
X50456282Y-83629945D01*
X50368068Y-83464908D01*
X50368067Y-83464906D01*
X50365553Y-83460202D01*
X50360242Y-83447381D01*
X50346629Y-83427006D01*
X50329302Y-83409678D01*
X50308928Y-83396064D01*
X50286289Y-83386686D01*
X50262256Y-83381904D01*
X50237752Y-83381904D01*
X50213718Y-83386683D01*
X50191079Y-83396060D01*
X50170704Y-83409673D01*
X50153376Y-83427000D01*
X50139762Y-83447374D01*
X50134451Y-83460195D01*
X50131932Y-83464907D01*
X50131932Y-83464908D01*
X50116106Y-83494517D01*
X50043717Y-83629947D01*
X49925001Y-83774601D01*
X49780347Y-83893317D01*
X49615309Y-83981532D01*
X49527431Y-84008189D01*
X49436232Y-84035854D01*
X49250000Y-84054196D01*
X49063769Y-84035854D01*
X48972570Y-84008189D01*
X48884692Y-83981532D01*
X48719654Y-83893317D01*
X48575000Y-83774601D01*
X48524627Y-83713222D01*
X48456282Y-83629945D01*
X48380945Y-83489000D01*
X48368068Y-83464909D01*
X48313746Y-83285831D01*
X48300000Y-83146266D01*
X48300000Y-82652935D01*
X48313746Y-82513370D01*
X48313747Y-82513368D01*
X48346062Y-82406838D01*
X48368068Y-82334292D01*
X48456283Y-82169253D01*
X48574999Y-82024599D01*
X48719653Y-81905883D01*
X48884691Y-81817668D01*
X48974230Y-81790507D01*
X49063768Y-81763346D01*
X49158681Y-81753998D01*
X49182715Y-81749218D01*
X49205354Y-81739840D01*
X49225728Y-81726226D01*
X49243055Y-81708899D01*
X49250000Y-81698505D01*
X49256945Y-81708899D01*
X49274272Y-81726226D01*
X49294646Y-81739840D01*
X49317285Y-81749218D01*
X49341319Y-81753998D01*
X49377863Y-81757597D01*
X49436231Y-81763346D01*
X49525769Y-81790507D01*
X49615308Y-81817668D01*
X49780347Y-81905883D01*
X49925001Y-82024599D01*
X50043717Y-82169253D01*
X50134447Y-82338997D01*
X50139758Y-82351819D01*
X50153371Y-82372194D01*
X50170698Y-82389522D01*
X50191072Y-82403136D01*
X50213711Y-82412514D01*
X50237744Y-82417296D01*
X50262248Y-82417296D01*
X50286282Y-82412517D01*
X50308921Y-82403140D01*
X50329296Y-82389527D01*
X50346624Y-82372200D01*
X50360238Y-82351826D01*
X50365549Y-82339005D01*
X50456283Y-82169253D01*
X50574999Y-82024599D01*
X50719653Y-81905883D01*
X50884691Y-81817668D01*
X50974230Y-81790507D01*
X51063768Y-81763346D01*
X51158681Y-81753998D01*
X51182715Y-81749218D01*
X51205354Y-81739840D01*
X51225728Y-81726226D01*
X51243055Y-81708899D01*
X51250000Y-81698505D01*
X51256945Y-81708899D01*
X51256945Y-81708899D01*
G37*
G36*
X73036922Y-82575117D02*
X73084885Y-82589666D01*
X73129075Y-82613286D01*
X73167818Y-82645082D01*
X73199614Y-82683825D01*
X73223234Y-82728015D01*
X73237783Y-82775978D01*
X73243300Y-82831991D01*
X73243300Y-83657209D01*
X73237783Y-83713222D01*
X73223234Y-83761185D01*
X73199614Y-83805375D01*
X73167818Y-83844118D01*
X73129075Y-83875914D01*
X73084885Y-83899534D01*
X73036922Y-83914083D01*
X72980909Y-83919600D01*
X72230691Y-83919600D01*
X72174678Y-83914083D01*
X72126715Y-83899534D01*
X72082525Y-83875914D01*
X72043782Y-83844118D01*
X72011986Y-83805375D01*
X71988366Y-83761185D01*
X71973817Y-83713222D01*
X71968300Y-83657209D01*
X71968300Y-82831991D01*
X71973817Y-82775978D01*
X71988366Y-82728015D01*
X72011986Y-82683825D01*
X72043782Y-82645082D01*
X72082525Y-82613286D01*
X72126715Y-82589666D01*
X72174678Y-82575117D01*
X72230691Y-82569600D01*
X72980909Y-82569600D01*
X73036922Y-82575117D01*
X73036922Y-82575117D01*
G37*
G36*
X71461922Y-82575117D02*
X71509885Y-82589666D01*
X71554075Y-82613286D01*
X71592818Y-82645082D01*
X71624614Y-82683825D01*
X71648234Y-82728015D01*
X71662783Y-82775978D01*
X71668300Y-82831991D01*
X71668300Y-83657209D01*
X71662783Y-83713222D01*
X71648234Y-83761185D01*
X71624614Y-83805375D01*
X71592818Y-83844118D01*
X71554075Y-83875914D01*
X71509885Y-83899534D01*
X71461922Y-83914083D01*
X71405909Y-83919600D01*
X70655691Y-83919600D01*
X70599678Y-83914083D01*
X70551715Y-83899534D01*
X70507525Y-83875914D01*
X70468782Y-83844118D01*
X70436986Y-83805375D01*
X70413366Y-83761185D01*
X70398817Y-83713222D01*
X70393300Y-83657209D01*
X70393300Y-82831991D01*
X70398817Y-82775978D01*
X70413366Y-82728015D01*
X70436986Y-82683825D01*
X70468782Y-82645082D01*
X70507525Y-82613286D01*
X70551715Y-82589666D01*
X70599678Y-82575117D01*
X70655691Y-82569600D01*
X71405909Y-82569600D01*
X71461922Y-82575117D01*
X71461922Y-82575117D01*
G37*
G36*
X65711182Y-81426097D02*
X65759145Y-81440646D01*
X65803335Y-81464266D01*
X65842078Y-81496062D01*
X65873874Y-81534805D01*
X65897494Y-81578995D01*
X65912043Y-81626958D01*
X65917560Y-81682971D01*
X65917560Y-82433189D01*
X65912043Y-82489202D01*
X65897494Y-82537165D01*
X65873874Y-82581355D01*
X65842078Y-82620098D01*
X65803335Y-82651894D01*
X65759145Y-82675514D01*
X65711182Y-82690063D01*
X65655169Y-82695580D01*
X64829951Y-82695580D01*
X64773938Y-82690063D01*
X64725975Y-82675514D01*
X64681785Y-82651894D01*
X64643042Y-82620098D01*
X64611246Y-82581355D01*
X64587626Y-82537165D01*
X64573077Y-82489202D01*
X64567560Y-82433189D01*
X64567560Y-81682971D01*
X64573077Y-81626958D01*
X64587626Y-81578995D01*
X64611246Y-81534805D01*
X64643042Y-81496062D01*
X64681785Y-81464266D01*
X64725975Y-81440646D01*
X64773938Y-81426097D01*
X64829951Y-81420580D01*
X65655169Y-81420580D01*
X65711182Y-81426097D01*
X65711182Y-81426097D01*
G37*
G36*
X68984922Y-81279017D02*
X69032885Y-81293566D01*
X69077075Y-81317186D01*
X69115818Y-81348982D01*
X69147614Y-81387725D01*
X69171234Y-81431915D01*
X69185783Y-81479878D01*
X69191300Y-81535891D01*
X69191300Y-82286109D01*
X69185783Y-82342122D01*
X69171234Y-82390085D01*
X69147614Y-82434275D01*
X69115818Y-82473018D01*
X69077075Y-82504814D01*
X69032885Y-82528434D01*
X68984922Y-82542983D01*
X68928909Y-82548500D01*
X68103691Y-82548500D01*
X68047678Y-82542983D01*
X67999715Y-82528434D01*
X67955525Y-82504814D01*
X67916782Y-82473018D01*
X67884986Y-82434275D01*
X67861366Y-82390085D01*
X67846817Y-82342122D01*
X67841300Y-82286109D01*
X67841300Y-81535891D01*
X67846817Y-81479878D01*
X67861366Y-81431915D01*
X67884986Y-81387725D01*
X67916782Y-81348982D01*
X67955525Y-81317186D01*
X67999715Y-81293566D01*
X68047678Y-81279017D01*
X68103691Y-81273500D01*
X68928909Y-81273500D01*
X68984922Y-81279017D01*
X68984922Y-81279017D01*
G37*
G36*
X88748707Y-79762596D02*
X88825836Y-79770193D01*
X88957787Y-79810220D01*
X89023763Y-79830233D01*
X89206172Y-79927733D01*
X89366054Y-80058946D01*
X89497267Y-80218828D01*
X89594767Y-80401237D01*
X89594767Y-80401238D01*
X89654807Y-80599164D01*
X89675080Y-80805000D01*
X89654807Y-81010836D01*
X89630809Y-81089947D01*
X89594767Y-81208763D01*
X89497267Y-81391172D01*
X89366054Y-81551054D01*
X89206172Y-81682267D01*
X89023763Y-81779767D01*
X88957787Y-81799780D01*
X88825836Y-81839807D01*
X88748707Y-81847403D01*
X88671580Y-81855000D01*
X88568420Y-81855000D01*
X88491293Y-81847403D01*
X88414164Y-81839807D01*
X88282213Y-81799780D01*
X88216237Y-81779767D01*
X88033828Y-81682267D01*
X87873946Y-81551054D01*
X87742733Y-81391172D01*
X87645233Y-81208763D01*
X87609191Y-81089947D01*
X87585193Y-81010836D01*
X87564920Y-80805000D01*
X87585193Y-80599164D01*
X87645233Y-80401238D01*
X87645233Y-80401237D01*
X87742733Y-80218828D01*
X87873946Y-80058946D01*
X88033828Y-79927733D01*
X88216237Y-79830233D01*
X88282213Y-79810220D01*
X88414164Y-79770193D01*
X88491293Y-79762596D01*
X88568420Y-79755000D01*
X88671580Y-79755000D01*
X88748707Y-79762596D01*
X88748707Y-79762596D01*
G37*
G36*
X53738707Y-79762596D02*
X53815836Y-79770193D01*
X53947787Y-79810220D01*
X54013763Y-79830233D01*
X54196172Y-79927733D01*
X54356054Y-80058946D01*
X54487267Y-80218828D01*
X54584767Y-80401237D01*
X54584767Y-80401238D01*
X54644807Y-80599164D01*
X54665080Y-80805000D01*
X54644807Y-81010836D01*
X54620809Y-81089947D01*
X54584767Y-81208763D01*
X54487267Y-81391172D01*
X54356054Y-81551054D01*
X54196172Y-81682267D01*
X54013763Y-81779767D01*
X53947787Y-81799780D01*
X53815836Y-81839807D01*
X53738707Y-81847403D01*
X53661580Y-81855000D01*
X53558420Y-81855000D01*
X53481293Y-81847403D01*
X53404164Y-81839807D01*
X53272213Y-81799780D01*
X53206237Y-81779767D01*
X53023828Y-81682267D01*
X52863946Y-81551054D01*
X52732733Y-81391172D01*
X52635233Y-81208763D01*
X52599191Y-81089947D01*
X52575193Y-81010836D01*
X52554920Y-80805000D01*
X52575193Y-80599164D01*
X52635233Y-80401238D01*
X52635233Y-80401237D01*
X52732733Y-80218828D01*
X52863946Y-80058946D01*
X53023828Y-79927733D01*
X53206237Y-79830233D01*
X53272213Y-79810220D01*
X53404164Y-79770193D01*
X53481293Y-79762596D01*
X53558420Y-79755000D01*
X53661580Y-79755000D01*
X53738707Y-79762596D01*
X53738707Y-79762596D01*
G37*
G36*
X91288707Y-79762596D02*
X91365836Y-79770193D01*
X91497787Y-79810220D01*
X91563763Y-79830233D01*
X91746172Y-79927733D01*
X91906054Y-80058946D01*
X92037267Y-80218828D01*
X92134767Y-80401237D01*
X92134767Y-80401238D01*
X92194807Y-80599164D01*
X92215080Y-80805000D01*
X92194807Y-81010836D01*
X92170809Y-81089947D01*
X92134767Y-81208763D01*
X92037267Y-81391172D01*
X91906054Y-81551054D01*
X91746172Y-81682267D01*
X91563763Y-81779767D01*
X91497787Y-81799780D01*
X91365836Y-81839807D01*
X91288707Y-81847403D01*
X91211580Y-81855000D01*
X91108420Y-81855000D01*
X91031293Y-81847403D01*
X90954164Y-81839807D01*
X90822213Y-81799780D01*
X90756237Y-81779767D01*
X90573828Y-81682267D01*
X90413946Y-81551054D01*
X90282733Y-81391172D01*
X90185233Y-81208763D01*
X90149191Y-81089947D01*
X90125193Y-81010836D01*
X90104920Y-80805000D01*
X90125193Y-80599164D01*
X90185233Y-80401238D01*
X90185233Y-80401237D01*
X90282733Y-80218828D01*
X90413946Y-80058946D01*
X90573828Y-79927733D01*
X90756237Y-79830233D01*
X90822213Y-79810220D01*
X90954164Y-79770193D01*
X91031293Y-79762596D01*
X91108420Y-79755000D01*
X91211580Y-79755000D01*
X91288707Y-79762596D01*
X91288707Y-79762596D01*
G37*
G36*
X77558622Y-80310517D02*
X77606585Y-80325066D01*
X77650775Y-80348686D01*
X77689518Y-80380482D01*
X77721314Y-80419225D01*
X77744934Y-80463415D01*
X77759483Y-80511378D01*
X77765000Y-80567391D01*
X77765000Y-81392609D01*
X77759483Y-81448622D01*
X77744934Y-81496585D01*
X77721314Y-81540775D01*
X77689518Y-81579518D01*
X77650775Y-81611314D01*
X77606585Y-81634934D01*
X77558622Y-81649483D01*
X77502609Y-81655000D01*
X76752391Y-81655000D01*
X76696378Y-81649483D01*
X76648415Y-81634934D01*
X76604225Y-81611314D01*
X76565482Y-81579518D01*
X76533686Y-81540775D01*
X76510066Y-81496585D01*
X76495517Y-81448622D01*
X76490000Y-81392609D01*
X76490000Y-80567391D01*
X76495517Y-80511378D01*
X76510066Y-80463415D01*
X76533686Y-80419225D01*
X76565482Y-80380482D01*
X76604225Y-80348686D01*
X76648415Y-80325066D01*
X76696378Y-80310517D01*
X76752391Y-80305000D01*
X77502609Y-80305000D01*
X77558622Y-80310517D01*
X77558622Y-80310517D01*
G37*
G36*
X75983622Y-80310517D02*
X76031585Y-80325066D01*
X76075775Y-80348686D01*
X76114518Y-80380482D01*
X76146314Y-80419225D01*
X76169934Y-80463415D01*
X76184483Y-80511378D01*
X76190000Y-80567391D01*
X76190000Y-81392609D01*
X76184483Y-81448622D01*
X76169934Y-81496585D01*
X76146314Y-81540775D01*
X76114518Y-81579518D01*
X76075775Y-81611314D01*
X76031585Y-81634934D01*
X75983622Y-81649483D01*
X75927609Y-81655000D01*
X75177391Y-81655000D01*
X75121378Y-81649483D01*
X75073415Y-81634934D01*
X75029225Y-81611314D01*
X74990482Y-81579518D01*
X74958686Y-81540775D01*
X74935066Y-81496585D01*
X74920517Y-81448622D01*
X74915000Y-81392609D01*
X74915000Y-80567391D01*
X74920517Y-80511378D01*
X74935066Y-80463415D01*
X74958686Y-80419225D01*
X74990482Y-80380482D01*
X75029225Y-80348686D01*
X75073415Y-80325066D01*
X75121378Y-80310517D01*
X75177391Y-80305000D01*
X75927609Y-80305000D01*
X75983622Y-80310517D01*
X75983622Y-80310517D01*
G37*
G36*
X51436231Y-79223346D02*
X51525769Y-79250507D01*
X51615308Y-79277668D01*
X51780347Y-79365883D01*
X51925001Y-79484599D01*
X52043717Y-79629253D01*
X52131932Y-79794291D01*
X52143431Y-79832200D01*
X52186254Y-79973368D01*
X52200000Y-80112935D01*
X52200000Y-80606264D01*
X52186254Y-80745832D01*
X52148687Y-80869673D01*
X52131932Y-80924908D01*
X52043717Y-81089947D01*
X51925001Y-81234601D01*
X51780347Y-81353317D01*
X51615309Y-81441532D01*
X51560262Y-81458230D01*
X51436232Y-81495854D01*
X51352664Y-81504085D01*
X51341319Y-81505202D01*
X51317285Y-81509982D01*
X51294646Y-81519360D01*
X51274272Y-81532974D01*
X51256945Y-81550301D01*
X51250000Y-81560695D01*
X51243055Y-81550301D01*
X51225728Y-81532974D01*
X51205354Y-81519360D01*
X51182715Y-81509982D01*
X51158681Y-81505202D01*
X51122137Y-81501603D01*
X51063769Y-81495854D01*
X50939739Y-81458230D01*
X50884692Y-81441532D01*
X50719654Y-81353317D01*
X50575000Y-81234601D01*
X50456284Y-81089947D01*
X50456282Y-81089945D01*
X50368068Y-80924908D01*
X50368067Y-80924906D01*
X50365553Y-80920202D01*
X50360242Y-80907381D01*
X50346629Y-80887006D01*
X50329302Y-80869678D01*
X50308928Y-80856064D01*
X50286289Y-80846686D01*
X50262256Y-80841904D01*
X50237752Y-80841904D01*
X50213718Y-80846683D01*
X50191079Y-80856060D01*
X50170704Y-80869673D01*
X50153376Y-80887000D01*
X50139762Y-80907374D01*
X50134451Y-80920195D01*
X50043717Y-81089947D01*
X49925001Y-81234601D01*
X49780347Y-81353317D01*
X49615309Y-81441532D01*
X49560262Y-81458230D01*
X49436232Y-81495854D01*
X49352664Y-81504085D01*
X49341319Y-81505202D01*
X49317285Y-81509982D01*
X49294646Y-81519360D01*
X49274272Y-81532974D01*
X49256945Y-81550301D01*
X49250000Y-81560695D01*
X49243055Y-81550301D01*
X49225728Y-81532974D01*
X49205354Y-81519360D01*
X49182715Y-81509982D01*
X49158681Y-81505202D01*
X49122137Y-81501603D01*
X49063769Y-81495854D01*
X48939739Y-81458230D01*
X48884692Y-81441532D01*
X48719654Y-81353317D01*
X48575000Y-81234601D01*
X48456284Y-81089947D01*
X48456282Y-81089945D01*
X48400243Y-80985104D01*
X48368068Y-80924909D01*
X48313746Y-80745831D01*
X48300000Y-80606266D01*
X48300000Y-80112935D01*
X48313746Y-79973370D01*
X48313747Y-79973368D01*
X48344340Y-79872514D01*
X48368068Y-79794292D01*
X48456283Y-79629253D01*
X48574999Y-79484599D01*
X48719653Y-79365883D01*
X48884691Y-79277668D01*
X48974230Y-79250507D01*
X49063768Y-79223346D01*
X49250000Y-79205004D01*
X49436231Y-79223346D01*
X49525769Y-79250507D01*
X49615308Y-79277668D01*
X49780347Y-79365883D01*
X49925001Y-79484599D01*
X50043717Y-79629253D01*
X50134447Y-79798997D01*
X50139758Y-79811819D01*
X50153371Y-79832194D01*
X50170698Y-79849522D01*
X50191072Y-79863136D01*
X50213711Y-79872514D01*
X50237744Y-79877296D01*
X50262248Y-79877296D01*
X50286282Y-79872517D01*
X50308921Y-79863140D01*
X50329296Y-79849527D01*
X50346624Y-79832200D01*
X50360238Y-79811826D01*
X50365549Y-79799005D01*
X50456283Y-79629253D01*
X50574999Y-79484599D01*
X50719653Y-79365883D01*
X50884691Y-79277668D01*
X50974230Y-79250507D01*
X51063768Y-79223346D01*
X51250000Y-79205004D01*
X51436231Y-79223346D01*
X51436231Y-79223346D01*
G37*
G36*
X74442622Y-78080517D02*
X74490585Y-78095066D01*
X74534775Y-78118686D01*
X74573518Y-78150482D01*
X74605314Y-78189225D01*
X74628934Y-78233415D01*
X74643483Y-78281378D01*
X74649000Y-78337391D01*
X74649000Y-79087609D01*
X74643483Y-79143622D01*
X74628934Y-79191585D01*
X74605314Y-79235775D01*
X74573518Y-79274518D01*
X74534775Y-79306314D01*
X74490585Y-79329934D01*
X74442622Y-79344483D01*
X74386609Y-79350000D01*
X73561391Y-79350000D01*
X73505378Y-79344483D01*
X73457415Y-79329934D01*
X73413225Y-79306314D01*
X73374482Y-79274518D01*
X73342686Y-79235775D01*
X73319066Y-79191585D01*
X73304517Y-79143622D01*
X73299000Y-79087609D01*
X73299000Y-78337391D01*
X73304517Y-78281378D01*
X73319066Y-78233415D01*
X73342686Y-78189225D01*
X73374482Y-78150482D01*
X73413225Y-78118686D01*
X73457415Y-78095066D01*
X73505378Y-78080517D01*
X73561391Y-78075000D01*
X74386609Y-78075000D01*
X74442622Y-78080517D01*
X74442622Y-78080517D01*
G37*
G36*
X91288707Y-77222597D02*
X91365836Y-77230193D01*
X91497787Y-77270220D01*
X91563763Y-77290233D01*
X91746172Y-77387733D01*
X91906054Y-77518946D01*
X92037267Y-77678828D01*
X92134767Y-77861237D01*
X92134767Y-77861238D01*
X92194807Y-78059164D01*
X92215080Y-78265000D01*
X92194807Y-78470836D01*
X92154780Y-78602787D01*
X92134767Y-78668763D01*
X92037267Y-78851172D01*
X91906054Y-79011054D01*
X91746172Y-79142267D01*
X91563763Y-79239767D01*
X91508139Y-79256640D01*
X91365836Y-79299807D01*
X91299769Y-79306314D01*
X91211580Y-79315000D01*
X91108420Y-79315000D01*
X91020231Y-79306314D01*
X90954164Y-79299807D01*
X90811861Y-79256640D01*
X90756237Y-79239767D01*
X90573828Y-79142267D01*
X90413946Y-79011054D01*
X90282733Y-78851172D01*
X90185233Y-78668763D01*
X90165220Y-78602787D01*
X90125193Y-78470836D01*
X90104920Y-78265000D01*
X90125193Y-78059164D01*
X90185233Y-77861238D01*
X90185233Y-77861237D01*
X90282733Y-77678828D01*
X90413946Y-77518946D01*
X90573828Y-77387733D01*
X90756237Y-77290233D01*
X90822213Y-77270220D01*
X90954164Y-77230193D01*
X91031293Y-77222597D01*
X91108420Y-77215000D01*
X91211580Y-77215000D01*
X91288707Y-77222597D01*
X91288707Y-77222597D01*
G37*
G36*
X89670000Y-79315000D02*
X87570000Y-79315000D01*
X87570000Y-77215000D01*
X89670000Y-77215000D01*
X89670000Y-79315000D01*
X89670000Y-79315000D01*
G37*
G36*
X54660000Y-79315000D02*
X52560000Y-79315000D01*
X52560000Y-77215000D01*
X54660000Y-77215000D01*
X54660000Y-79315000D01*
X54660000Y-79315000D01*
G37*
G36*
X74442622Y-76505517D02*
X74490585Y-76520066D01*
X74534775Y-76543686D01*
X74573518Y-76575482D01*
X74605314Y-76614225D01*
X74628934Y-76658415D01*
X74643483Y-76706378D01*
X74649000Y-76762391D01*
X74649000Y-77512609D01*
X74643483Y-77568622D01*
X74628934Y-77616585D01*
X74605314Y-77660775D01*
X74573518Y-77699518D01*
X74534775Y-77731314D01*
X74490585Y-77754934D01*
X74442622Y-77769483D01*
X74386609Y-77775000D01*
X73561391Y-77775000D01*
X73505378Y-77769483D01*
X73457415Y-77754934D01*
X73413225Y-77731314D01*
X73374482Y-77699518D01*
X73342686Y-77660775D01*
X73319066Y-77616585D01*
X73304517Y-77568622D01*
X73299000Y-77512609D01*
X73299000Y-76762391D01*
X73304517Y-76706378D01*
X73319066Y-76658415D01*
X73342686Y-76614225D01*
X73374482Y-76575482D01*
X73413225Y-76543686D01*
X73457415Y-76520066D01*
X73505378Y-76505517D01*
X73561391Y-76500000D01*
X74386609Y-76500000D01*
X74442622Y-76505517D01*
X74442622Y-76505517D01*
G37*
G36*
X92593622Y-75100517D02*
X92641585Y-75115066D01*
X92685775Y-75138686D01*
X92724518Y-75170482D01*
X92756314Y-75209225D01*
X92779934Y-75253415D01*
X92794483Y-75301378D01*
X92800000Y-75357391D01*
X92800000Y-76182609D01*
X92794483Y-76238622D01*
X92779934Y-76286585D01*
X92756314Y-76330775D01*
X92724518Y-76369518D01*
X92685775Y-76401314D01*
X92641585Y-76424934D01*
X92593622Y-76439483D01*
X92537609Y-76445000D01*
X91787391Y-76445000D01*
X91731378Y-76439483D01*
X91683415Y-76424934D01*
X91639225Y-76401314D01*
X91600482Y-76369518D01*
X91568686Y-76330775D01*
X91545066Y-76286585D01*
X91530517Y-76238622D01*
X91525000Y-76182609D01*
X91525000Y-75357391D01*
X91530517Y-75301378D01*
X91545066Y-75253415D01*
X91568686Y-75209225D01*
X91600482Y-75170482D01*
X91639225Y-75138686D01*
X91683415Y-75115066D01*
X91731378Y-75100517D01*
X91787391Y-75095000D01*
X92537609Y-75095000D01*
X92593622Y-75100517D01*
X92593622Y-75100517D01*
G37*
G36*
X94168622Y-75100517D02*
X94216585Y-75115066D01*
X94260775Y-75138686D01*
X94299518Y-75170482D01*
X94331314Y-75209225D01*
X94354934Y-75253415D01*
X94369483Y-75301378D01*
X94375000Y-75357391D01*
X94375000Y-76182609D01*
X94369483Y-76238622D01*
X94354934Y-76286585D01*
X94331314Y-76330775D01*
X94299518Y-76369518D01*
X94260775Y-76401314D01*
X94216585Y-76424934D01*
X94168622Y-76439483D01*
X94112609Y-76445000D01*
X93362391Y-76445000D01*
X93306378Y-76439483D01*
X93258415Y-76424934D01*
X93214225Y-76401314D01*
X93175482Y-76369518D01*
X93143686Y-76330775D01*
X93120066Y-76286585D01*
X93105517Y-76238622D01*
X93100000Y-76182609D01*
X93100000Y-75357391D01*
X93105517Y-75301378D01*
X93120066Y-75253415D01*
X93143686Y-75209225D01*
X93175482Y-75170482D01*
X93214225Y-75138686D01*
X93258415Y-75115066D01*
X93306378Y-75100517D01*
X93362391Y-75095000D01*
X94112609Y-75095000D01*
X94168622Y-75100517D01*
X94168622Y-75100517D01*
G37*
G36*
X86643622Y-74870517D02*
X86691585Y-74885066D01*
X86735775Y-74908686D01*
X86774518Y-74940482D01*
X86806314Y-74979225D01*
X86829934Y-75023415D01*
X86844483Y-75071378D01*
X86850000Y-75127391D01*
X86850000Y-75952609D01*
X86844483Y-76008622D01*
X86829934Y-76056585D01*
X86806314Y-76100775D01*
X86774518Y-76139518D01*
X86735775Y-76171314D01*
X86691585Y-76194934D01*
X86643622Y-76209483D01*
X86587609Y-76215000D01*
X85837391Y-76215000D01*
X85781378Y-76209483D01*
X85733415Y-76194934D01*
X85689225Y-76171314D01*
X85650482Y-76139518D01*
X85618686Y-76100775D01*
X85595066Y-76056585D01*
X85580517Y-76008622D01*
X85575000Y-75952609D01*
X85575000Y-75127391D01*
X85580517Y-75071378D01*
X85595066Y-75023415D01*
X85618686Y-74979225D01*
X85650482Y-74940482D01*
X85689225Y-74908686D01*
X85733415Y-74885066D01*
X85781378Y-74870517D01*
X85837391Y-74865000D01*
X86587609Y-74865000D01*
X86643622Y-74870517D01*
X86643622Y-74870517D01*
G37*
G36*
X88218622Y-74870517D02*
X88266585Y-74885066D01*
X88310775Y-74908686D01*
X88349518Y-74940482D01*
X88381314Y-74979225D01*
X88404934Y-75023415D01*
X88419483Y-75071378D01*
X88425000Y-75127391D01*
X88425000Y-75952609D01*
X88419483Y-76008622D01*
X88404934Y-76056585D01*
X88381314Y-76100775D01*
X88349518Y-76139518D01*
X88310775Y-76171314D01*
X88266585Y-76194934D01*
X88218622Y-76209483D01*
X88162609Y-76215000D01*
X87412391Y-76215000D01*
X87356378Y-76209483D01*
X87308415Y-76194934D01*
X87264225Y-76171314D01*
X87225482Y-76139518D01*
X87193686Y-76100775D01*
X87170066Y-76056585D01*
X87155517Y-76008622D01*
X87150000Y-75952609D01*
X87150000Y-75127391D01*
X87155517Y-75071378D01*
X87170066Y-75023415D01*
X87193686Y-74979225D01*
X87225482Y-74940482D01*
X87264225Y-74908686D01*
X87308415Y-74885066D01*
X87356378Y-74870517D01*
X87412391Y-74865000D01*
X88162609Y-74865000D01*
X88218622Y-74870517D01*
X88218622Y-74870517D01*
G37*
G36*
X69850000Y-74735200D02*
X68250000Y-74735200D01*
X68250000Y-71535200D01*
X69850000Y-71535200D01*
X69850000Y-74735200D01*
X69850000Y-74735200D01*
G37*
G36*
X67850000Y-74735200D02*
X66250000Y-74735200D01*
X66250000Y-71535200D01*
X67850000Y-71535200D01*
X67850000Y-74735200D01*
X67850000Y-74735200D01*
G37*
G36*
X85250000Y-72435200D02*
X81975000Y-72435200D01*
X81950614Y-72437602D01*
X81927165Y-72444715D01*
X81905554Y-72456266D01*
X81886612Y-72471812D01*
X81871066Y-72490754D01*
X81859515Y-72512365D01*
X81852402Y-72535814D01*
X81850000Y-72560200D01*
X81850000Y-74735200D01*
X80250000Y-74735200D01*
X80250000Y-71535200D01*
X81925000Y-71535200D01*
X81949386Y-71532798D01*
X81972835Y-71525685D01*
X81994446Y-71514134D01*
X82013388Y-71498588D01*
X82028934Y-71479646D01*
X82040485Y-71458035D01*
X82047598Y-71434586D01*
X82050000Y-71410200D01*
X82050000Y-70835200D01*
X85250000Y-70835200D01*
X85250000Y-72435200D01*
X85250000Y-72435200D01*
G37*
G36*
X79850000Y-74735200D02*
X78250000Y-74735200D01*
X78250000Y-71535200D01*
X79850000Y-71535200D01*
X79850000Y-74735200D01*
X79850000Y-74735200D01*
G37*
G36*
X77850000Y-74735200D02*
X76250000Y-74735200D01*
X76250000Y-71535200D01*
X77850000Y-71535200D01*
X77850000Y-74735200D01*
X77850000Y-74735200D01*
G37*
G36*
X75850000Y-74735200D02*
X74250000Y-74735200D01*
X74250000Y-71535200D01*
X75850000Y-71535200D01*
X75850000Y-74735200D01*
X75850000Y-74735200D01*
G37*
G36*
X73850000Y-74735200D02*
X72250000Y-74735200D01*
X72250000Y-71535200D01*
X73850000Y-71535200D01*
X73850000Y-74735200D01*
X73850000Y-74735200D01*
G37*
G36*
X71850000Y-74735200D02*
X70250000Y-74735200D01*
X70250000Y-71535200D01*
X71850000Y-71535200D01*
X71850000Y-74735200D01*
X71850000Y-74735200D01*
G37*
G36*
X93429628Y-71180493D02*
X93477354Y-71194970D01*
X93521336Y-71218479D01*
X93559885Y-71250115D01*
X93591521Y-71288664D01*
X93615030Y-71332646D01*
X93629507Y-71380372D01*
X93635000Y-71436141D01*
X93635000Y-72563859D01*
X93629507Y-72619628D01*
X93615030Y-72667354D01*
X93591521Y-72711336D01*
X93559885Y-72749885D01*
X93521336Y-72781521D01*
X93477354Y-72805030D01*
X93429628Y-72819507D01*
X93373859Y-72825000D01*
X90846141Y-72825000D01*
X90790372Y-72819507D01*
X90742646Y-72805030D01*
X90698664Y-72781521D01*
X90660115Y-72749885D01*
X90628479Y-72711336D01*
X90604970Y-72667354D01*
X90590493Y-72619628D01*
X90585000Y-72563859D01*
X90585000Y-71436141D01*
X90590493Y-71380372D01*
X90604970Y-71332646D01*
X90628479Y-71288664D01*
X90660115Y-71250115D01*
X90698664Y-71218479D01*
X90742646Y-71194970D01*
X90790372Y-71180493D01*
X90846141Y-71175000D01*
X93373859Y-71175000D01*
X93429628Y-71180493D01*
X93429628Y-71180493D01*
G37*
G36*
X51761159Y-69391146D02*
X51846488Y-69408119D01*
X52087623Y-69508000D01*
X52304641Y-69653007D01*
X52489193Y-69837559D01*
X52489195Y-69837562D01*
X52634200Y-70054577D01*
X52725288Y-70274483D01*
X52734081Y-70295713D01*
X52785000Y-70551697D01*
X52785000Y-70812703D01*
X52734081Y-71068687D01*
X52634200Y-71309823D01*
X52489193Y-71526841D01*
X52304641Y-71711393D01*
X52304638Y-71711395D01*
X52087623Y-71856400D01*
X51846488Y-71956281D01*
X51761159Y-71973254D01*
X51590503Y-72007200D01*
X51329497Y-72007200D01*
X51158841Y-71973254D01*
X51073512Y-71956281D01*
X50832377Y-71856400D01*
X50615362Y-71711395D01*
X50615359Y-71711393D01*
X50430807Y-71526841D01*
X50285800Y-71309823D01*
X50185919Y-71068687D01*
X50135000Y-70812703D01*
X50135000Y-70551697D01*
X50185919Y-70295713D01*
X50194713Y-70274483D01*
X50285800Y-70054577D01*
X50430805Y-69837562D01*
X50430807Y-69837559D01*
X50615359Y-69653007D01*
X50832377Y-69508000D01*
X51073512Y-69408119D01*
X51158841Y-69391146D01*
X51329497Y-69357200D01*
X51590503Y-69357200D01*
X51761159Y-69391146D01*
X51761159Y-69391146D01*
G37*
G36*
X60950000Y-70935200D02*
X57943218Y-70935200D01*
X57918832Y-70937602D01*
X57895383Y-70944715D01*
X57873772Y-70956266D01*
X57854830Y-70971812D01*
X57839284Y-70990754D01*
X57827733Y-71012365D01*
X57820620Y-71035813D01*
X57814081Y-71068688D01*
X57714200Y-71309823D01*
X57569193Y-71526841D01*
X57384641Y-71711393D01*
X57384638Y-71711395D01*
X57167623Y-71856400D01*
X56926488Y-71956281D01*
X56841159Y-71973254D01*
X56670503Y-72007200D01*
X56409497Y-72007200D01*
X56238841Y-71973254D01*
X56153512Y-71956281D01*
X55912377Y-71856400D01*
X55695362Y-71711395D01*
X55695359Y-71711393D01*
X55510807Y-71526841D01*
X55365800Y-71309823D01*
X55265919Y-71068687D01*
X55215000Y-70812703D01*
X55215000Y-70551697D01*
X55265919Y-70295713D01*
X55274713Y-70274483D01*
X55365800Y-70054577D01*
X55510805Y-69837562D01*
X55510807Y-69837559D01*
X55695359Y-69653007D01*
X55912377Y-69508000D01*
X56153512Y-69408119D01*
X56238841Y-69391146D01*
X56409497Y-69357200D01*
X56670503Y-69357200D01*
X56841159Y-69391146D01*
X56926488Y-69408119D01*
X57167623Y-69508000D01*
X57384641Y-69653007D01*
X57536612Y-69804978D01*
X57555554Y-69820524D01*
X57577165Y-69832075D01*
X57600614Y-69839188D01*
X57625000Y-69841590D01*
X57649386Y-69839188D01*
X57672835Y-69832075D01*
X57694446Y-69820524D01*
X57713388Y-69804978D01*
X57728934Y-69786036D01*
X57740485Y-69764425D01*
X57747598Y-69740976D01*
X57750000Y-69716590D01*
X57750000Y-69335200D01*
X60950000Y-69335200D01*
X60950000Y-70935200D01*
X60950000Y-70935200D01*
G37*
G36*
X86908622Y-70585517D02*
X86956585Y-70600066D01*
X87000775Y-70623686D01*
X87039518Y-70655482D01*
X87071314Y-70694225D01*
X87094934Y-70738415D01*
X87109483Y-70786378D01*
X87115000Y-70842391D01*
X87115000Y-71592609D01*
X87109483Y-71648622D01*
X87094934Y-71696585D01*
X87071314Y-71740775D01*
X87039518Y-71779518D01*
X87000775Y-71811314D01*
X86956585Y-71834934D01*
X86908622Y-71849483D01*
X86852609Y-71855000D01*
X86027391Y-71855000D01*
X85971378Y-71849483D01*
X85923415Y-71834934D01*
X85879225Y-71811314D01*
X85840482Y-71779518D01*
X85808686Y-71740775D01*
X85785066Y-71696585D01*
X85770517Y-71648622D01*
X85765000Y-71592609D01*
X85765000Y-70842391D01*
X85770517Y-70786378D01*
X85785066Y-70738415D01*
X85808686Y-70694225D01*
X85840482Y-70655482D01*
X85879225Y-70623686D01*
X85923415Y-70600066D01*
X85971378Y-70585517D01*
X86027391Y-70580000D01*
X86852609Y-70580000D01*
X86908622Y-70585517D01*
X86908622Y-70585517D01*
G37*
G36*
X85250000Y-70435200D02*
X82050000Y-70435200D01*
X82050000Y-68835200D01*
X85250000Y-68835200D01*
X85250000Y-70435200D01*
X85250000Y-70435200D01*
G37*
G36*
X86908622Y-69010517D02*
X86956585Y-69025066D01*
X87000775Y-69048686D01*
X87039518Y-69080482D01*
X87071314Y-69119225D01*
X87094934Y-69163415D01*
X87109483Y-69211378D01*
X87115000Y-69267391D01*
X87115000Y-70017609D01*
X87109483Y-70073622D01*
X87094934Y-70121585D01*
X87071314Y-70165775D01*
X87039518Y-70204518D01*
X87000775Y-70236314D01*
X86956585Y-70259934D01*
X86908622Y-70274483D01*
X86852609Y-70280000D01*
X86027391Y-70280000D01*
X85971378Y-70274483D01*
X85923415Y-70259934D01*
X85879225Y-70236314D01*
X85840482Y-70204518D01*
X85808686Y-70165775D01*
X85785066Y-70121585D01*
X85770517Y-70073622D01*
X85765000Y-70017609D01*
X85765000Y-69267391D01*
X85770517Y-69211378D01*
X85785066Y-69163415D01*
X85808686Y-69119225D01*
X85840482Y-69080482D01*
X85879225Y-69048686D01*
X85923415Y-69025066D01*
X85971378Y-69010517D01*
X86027391Y-69005000D01*
X86852609Y-69005000D01*
X86908622Y-69010517D01*
X86908622Y-69010517D01*
G37*
G36*
X92333622Y-66800517D02*
X92381585Y-66815066D01*
X92425775Y-66838686D01*
X92464518Y-66870482D01*
X92496314Y-66909225D01*
X92519934Y-66953415D01*
X92534483Y-67001378D01*
X92540000Y-67057391D01*
X92540000Y-67882609D01*
X92534483Y-67938622D01*
X92519934Y-67986585D01*
X92496314Y-68030775D01*
X92464518Y-68069518D01*
X92425775Y-68101314D01*
X92381585Y-68124934D01*
X92363624Y-68130382D01*
X92340985Y-68139759D01*
X92320611Y-68153373D01*
X92303283Y-68170700D01*
X92289669Y-68191075D01*
X92280292Y-68213714D01*
X92275511Y-68237747D01*
X92275511Y-68262251D01*
X92280291Y-68286285D01*
X92289668Y-68308924D01*
X92303282Y-68329298D01*
X92320609Y-68346626D01*
X92340984Y-68360240D01*
X92363623Y-68369617D01*
X92387656Y-68374398D01*
X92399909Y-68375000D01*
X92980091Y-68375000D01*
X93004477Y-68372598D01*
X93027926Y-68365485D01*
X93049537Y-68353934D01*
X93068479Y-68338388D01*
X93084025Y-68319446D01*
X93095576Y-68297835D01*
X93102689Y-68274386D01*
X93105091Y-68250000D01*
X93102689Y-68225614D01*
X93095576Y-68202165D01*
X93084025Y-68180554D01*
X93068479Y-68161612D01*
X93049537Y-68146066D01*
X93027926Y-68134515D01*
X93016376Y-68130382D01*
X92998415Y-68124934D01*
X92954225Y-68101314D01*
X92915482Y-68069518D01*
X92883686Y-68030775D01*
X92860066Y-67986585D01*
X92845517Y-67938622D01*
X92840000Y-67882609D01*
X92840000Y-67057391D01*
X92845517Y-67001378D01*
X92860066Y-66953415D01*
X92883686Y-66909225D01*
X92915482Y-66870482D01*
X92954225Y-66838686D01*
X92998415Y-66815066D01*
X93046378Y-66800517D01*
X93102391Y-66795000D01*
X93852609Y-66795000D01*
X93908622Y-66800517D01*
X93956585Y-66815066D01*
X94000775Y-66838686D01*
X94039518Y-66870482D01*
X94071314Y-66909225D01*
X94094934Y-66953415D01*
X94109483Y-67001378D01*
X94115000Y-67057391D01*
X94115000Y-67882609D01*
X94109483Y-67938622D01*
X94094934Y-67986585D01*
X94071314Y-68030775D01*
X94039518Y-68069518D01*
X94000775Y-68101314D01*
X93956585Y-68124934D01*
X93908622Y-68139483D01*
X93852609Y-68145000D01*
X93495994Y-68145000D01*
X93471608Y-68147402D01*
X93448159Y-68154515D01*
X93426548Y-68166066D01*
X93407606Y-68181612D01*
X93392060Y-68200554D01*
X93380509Y-68222165D01*
X93373396Y-68245614D01*
X93370994Y-68270000D01*
X93373396Y-68294386D01*
X93380509Y-68317835D01*
X93392060Y-68339446D01*
X93407606Y-68358388D01*
X93426548Y-68373934D01*
X93448159Y-68385485D01*
X93459709Y-68389618D01*
X93477354Y-68394971D01*
X93521336Y-68418479D01*
X93559885Y-68450115D01*
X93591521Y-68488664D01*
X93615030Y-68532646D01*
X93629507Y-68580372D01*
X93635000Y-68636141D01*
X93635000Y-69763859D01*
X93629507Y-69819628D01*
X93615030Y-69867354D01*
X93591521Y-69911336D01*
X93559885Y-69949885D01*
X93521336Y-69981521D01*
X93477354Y-70005030D01*
X93429628Y-70019507D01*
X93373859Y-70025000D01*
X90846141Y-70025000D01*
X90790372Y-70019507D01*
X90742646Y-70005030D01*
X90698664Y-69981521D01*
X90660115Y-69949885D01*
X90628479Y-69911336D01*
X90604970Y-69867354D01*
X90590493Y-69819628D01*
X90585000Y-69763859D01*
X90585000Y-68636141D01*
X90590493Y-68580372D01*
X90604970Y-68532646D01*
X90628479Y-68488664D01*
X90660115Y-68450115D01*
X90698664Y-68418479D01*
X90742646Y-68394970D01*
X90790372Y-68380493D01*
X90846141Y-68375000D01*
X91405091Y-68375000D01*
X91429477Y-68372598D01*
X91452926Y-68365485D01*
X91474537Y-68353934D01*
X91493479Y-68338388D01*
X91509025Y-68319446D01*
X91520576Y-68297835D01*
X91527689Y-68274386D01*
X91530091Y-68250000D01*
X91527689Y-68225614D01*
X91520576Y-68202165D01*
X91509025Y-68180554D01*
X91493479Y-68161612D01*
X91474537Y-68146066D01*
X91452926Y-68134515D01*
X91441376Y-68130382D01*
X91423415Y-68124934D01*
X91379225Y-68101314D01*
X91340482Y-68069518D01*
X91308686Y-68030775D01*
X91285066Y-67986585D01*
X91270517Y-67938622D01*
X91265000Y-67882609D01*
X91265000Y-67057391D01*
X91270517Y-67001378D01*
X91285066Y-66953415D01*
X91308686Y-66909225D01*
X91340482Y-66870482D01*
X91379225Y-66838686D01*
X91423415Y-66815066D01*
X91471378Y-66800517D01*
X91527391Y-66795000D01*
X92277609Y-66795000D01*
X92333622Y-66800517D01*
X92333622Y-66800517D01*
G37*
G36*
X54211144Y-66935200D02*
X54357319Y-66964276D01*
X54580255Y-67056619D01*
X54665757Y-67113750D01*
X54780895Y-67190683D01*
X54951517Y-67361305D01*
X54951519Y-67361308D01*
X55085581Y-67561945D01*
X55085581Y-67561946D01*
X55177924Y-67784882D01*
X55225000Y-68021547D01*
X55225000Y-68262853D01*
X55215836Y-68308924D01*
X55177924Y-68499519D01*
X55085581Y-68722455D01*
X55010247Y-68835200D01*
X54951517Y-68923095D01*
X54780895Y-69093717D01*
X54780892Y-69093719D01*
X54580255Y-69227781D01*
X54357319Y-69320124D01*
X54238985Y-69343662D01*
X54120653Y-69367200D01*
X53879347Y-69367200D01*
X53761015Y-69343662D01*
X53642681Y-69320124D01*
X53419745Y-69227781D01*
X53219108Y-69093719D01*
X53219105Y-69093717D01*
X53048483Y-68923095D01*
X52989753Y-68835200D01*
X52914419Y-68722455D01*
X52822076Y-68499519D01*
X52784164Y-68308924D01*
X52775000Y-68262853D01*
X52775000Y-68021547D01*
X52822076Y-67784882D01*
X52914419Y-67561946D01*
X52914419Y-67561945D01*
X53048481Y-67361308D01*
X53048483Y-67361305D01*
X53219105Y-67190683D01*
X53334243Y-67113750D01*
X53419745Y-67056619D01*
X53642681Y-66964276D01*
X53788856Y-66935200D01*
X53879347Y-66917200D01*
X54120653Y-66917200D01*
X54211144Y-66935200D01*
X54211144Y-66935200D01*
G37*
G36*
X60950000Y-68935200D02*
X57750000Y-68935200D01*
X57750000Y-67335200D01*
X60950000Y-67335200D01*
X60950000Y-68935200D01*
X60950000Y-68935200D01*
G37*
G36*
X85250000Y-68435200D02*
X82050000Y-68435200D01*
X82050000Y-66835200D01*
X85250000Y-66835200D01*
X85250000Y-68435200D01*
X85250000Y-68435200D01*
G37*
G36*
X56841159Y-64311146D02*
X56926488Y-64328119D01*
X57167623Y-64428000D01*
X57384641Y-64573007D01*
X57569193Y-64757559D01*
X57714200Y-64974577D01*
X57814081Y-65215712D01*
X57817835Y-65234586D01*
X57824948Y-65258035D01*
X57836499Y-65279646D01*
X57852044Y-65298588D01*
X57870986Y-65314133D01*
X57892597Y-65325685D01*
X57916046Y-65332798D01*
X57940433Y-65335200D01*
X60950000Y-65335200D01*
X60950000Y-66935200D01*
X57750000Y-66935200D01*
X57750000Y-66567810D01*
X57747598Y-66543424D01*
X57740485Y-66519975D01*
X57728934Y-66498364D01*
X57713388Y-66479422D01*
X57694446Y-66463876D01*
X57672835Y-66452325D01*
X57649386Y-66445212D01*
X57625000Y-66442810D01*
X57600614Y-66445212D01*
X57577165Y-66452325D01*
X57555554Y-66463876D01*
X57536612Y-66479422D01*
X57384641Y-66631393D01*
X57384638Y-66631395D01*
X57167623Y-66776400D01*
X56926488Y-66876281D01*
X56865763Y-66888360D01*
X56670503Y-66927200D01*
X56409497Y-66927200D01*
X56214237Y-66888360D01*
X56153512Y-66876281D01*
X55912377Y-66776400D01*
X55695362Y-66631395D01*
X55695359Y-66631393D01*
X55510807Y-66446841D01*
X55365800Y-66229823D01*
X55265919Y-65988688D01*
X55215000Y-65732701D01*
X55215000Y-65471699D01*
X55265919Y-65215712D01*
X55365800Y-64974577D01*
X55510805Y-64757562D01*
X55510807Y-64757559D01*
X55695359Y-64573007D01*
X55912377Y-64428000D01*
X56153512Y-64328119D01*
X56238841Y-64311146D01*
X56409497Y-64277200D01*
X56670503Y-64277200D01*
X56841159Y-64311146D01*
X56841159Y-64311146D01*
G37*
G36*
X51761159Y-64311146D02*
X51846488Y-64328119D01*
X52087623Y-64428000D01*
X52304641Y-64573007D01*
X52489193Y-64757559D01*
X52489195Y-64757562D01*
X52634200Y-64974577D01*
X52734081Y-65215712D01*
X52785000Y-65471699D01*
X52785000Y-65732701D01*
X52734081Y-65988688D01*
X52634200Y-66229823D01*
X52489193Y-66446841D01*
X52304641Y-66631393D01*
X52304638Y-66631395D01*
X52087623Y-66776400D01*
X51846488Y-66876281D01*
X51785763Y-66888360D01*
X51590503Y-66927200D01*
X51329497Y-66927200D01*
X51134237Y-66888360D01*
X51073512Y-66876281D01*
X50832377Y-66776400D01*
X50615362Y-66631395D01*
X50615359Y-66631393D01*
X50430807Y-66446841D01*
X50285800Y-66229823D01*
X50185919Y-65988688D01*
X50135000Y-65732701D01*
X50135000Y-65471699D01*
X50185919Y-65215712D01*
X50285800Y-64974577D01*
X50430805Y-64757562D01*
X50430807Y-64757559D01*
X50615359Y-64573007D01*
X50832377Y-64428000D01*
X51073512Y-64328119D01*
X51158841Y-64311146D01*
X51329497Y-64277200D01*
X51590503Y-64277200D01*
X51761159Y-64311146D01*
X51761159Y-64311146D01*
G37*
G36*
X93226522Y-65152137D02*
X93274485Y-65166686D01*
X93318675Y-65190306D01*
X93357418Y-65222102D01*
X93389214Y-65260845D01*
X93412834Y-65305035D01*
X93427383Y-65352998D01*
X93432900Y-65409011D01*
X93432900Y-66234229D01*
X93427383Y-66290242D01*
X93412834Y-66338205D01*
X93389214Y-66382395D01*
X93357418Y-66421138D01*
X93318675Y-66452934D01*
X93274485Y-66476554D01*
X93226522Y-66491103D01*
X93170509Y-66496620D01*
X92420291Y-66496620D01*
X92364278Y-66491103D01*
X92316315Y-66476554D01*
X92272125Y-66452934D01*
X92233382Y-66421138D01*
X92201586Y-66382395D01*
X92177966Y-66338205D01*
X92163417Y-66290242D01*
X92157900Y-66234229D01*
X92157900Y-65409011D01*
X92163417Y-65352998D01*
X92177966Y-65305035D01*
X92201586Y-65260845D01*
X92233382Y-65222102D01*
X92272125Y-65190306D01*
X92316315Y-65166686D01*
X92364278Y-65152137D01*
X92420291Y-65146620D01*
X93170509Y-65146620D01*
X93226522Y-65152137D01*
X93226522Y-65152137D01*
G37*
G36*
X91651522Y-65152137D02*
X91699485Y-65166686D01*
X91743675Y-65190306D01*
X91782418Y-65222102D01*
X91814214Y-65260845D01*
X91837834Y-65305035D01*
X91852383Y-65352998D01*
X91857900Y-65409011D01*
X91857900Y-66234229D01*
X91852383Y-66290242D01*
X91837834Y-66338205D01*
X91814214Y-66382395D01*
X91782418Y-66421138D01*
X91743675Y-66452934D01*
X91699485Y-66476554D01*
X91651522Y-66491103D01*
X91595509Y-66496620D01*
X90845291Y-66496620D01*
X90789278Y-66491103D01*
X90741315Y-66476554D01*
X90697125Y-66452934D01*
X90658382Y-66421138D01*
X90626586Y-66382395D01*
X90602966Y-66338205D01*
X90588417Y-66290242D01*
X90582900Y-66234229D01*
X90582900Y-65409011D01*
X90588417Y-65352998D01*
X90602966Y-65305035D01*
X90626586Y-65260845D01*
X90658382Y-65222102D01*
X90697125Y-65190306D01*
X90741315Y-65166686D01*
X90789278Y-65152137D01*
X90845291Y-65146620D01*
X91595509Y-65146620D01*
X91651522Y-65152137D01*
X91651522Y-65152137D01*
G37*
G36*
X85250000Y-66435200D02*
X82050000Y-66435200D01*
X82050000Y-64835200D01*
X85250000Y-64835200D01*
X85250000Y-66435200D01*
X85250000Y-66435200D01*
G37*
G36*
X93216362Y-63430017D02*
X93264325Y-63444566D01*
X93308515Y-63468186D01*
X93347258Y-63499982D01*
X93379054Y-63538725D01*
X93402674Y-63582915D01*
X93417223Y-63630878D01*
X93422740Y-63686891D01*
X93422740Y-64512109D01*
X93417223Y-64568122D01*
X93402674Y-64616085D01*
X93379054Y-64660275D01*
X93347258Y-64699018D01*
X93308515Y-64730814D01*
X93264325Y-64754434D01*
X93216362Y-64768983D01*
X93160349Y-64774500D01*
X92410131Y-64774500D01*
X92354118Y-64768983D01*
X92306155Y-64754434D01*
X92261965Y-64730814D01*
X92223222Y-64699018D01*
X92191426Y-64660275D01*
X92167806Y-64616085D01*
X92153257Y-64568122D01*
X92147740Y-64512109D01*
X92147740Y-63686891D01*
X92153257Y-63630878D01*
X92167806Y-63582915D01*
X92191426Y-63538725D01*
X92223222Y-63499982D01*
X92261965Y-63468186D01*
X92306155Y-63444566D01*
X92354118Y-63430017D01*
X92410131Y-63424500D01*
X93160349Y-63424500D01*
X93216362Y-63430017D01*
X93216362Y-63430017D01*
G37*
G36*
X91641362Y-63430017D02*
X91689325Y-63444566D01*
X91733515Y-63468186D01*
X91772258Y-63499982D01*
X91804054Y-63538725D01*
X91827674Y-63582915D01*
X91842223Y-63630878D01*
X91847740Y-63686891D01*
X91847740Y-64512109D01*
X91842223Y-64568122D01*
X91827674Y-64616085D01*
X91804054Y-64660275D01*
X91772258Y-64699018D01*
X91733515Y-64730814D01*
X91689325Y-64754434D01*
X91641362Y-64768983D01*
X91585349Y-64774500D01*
X90835131Y-64774500D01*
X90779118Y-64768983D01*
X90731155Y-64754434D01*
X90686965Y-64730814D01*
X90648222Y-64699018D01*
X90616426Y-64660275D01*
X90592806Y-64616085D01*
X90578257Y-64568122D01*
X90572740Y-64512109D01*
X90572740Y-63686891D01*
X90578257Y-63630878D01*
X90592806Y-63582915D01*
X90616426Y-63538725D01*
X90648222Y-63499982D01*
X90686965Y-63468186D01*
X90731155Y-63444566D01*
X90779118Y-63430017D01*
X90835131Y-63424500D01*
X91585349Y-63424500D01*
X91641362Y-63430017D01*
X91641362Y-63430017D01*
G37*
G36*
X85250000Y-64435200D02*
X82050000Y-64435200D01*
X82050000Y-62835200D01*
X85250000Y-62835200D01*
X85250000Y-64435200D01*
X85250000Y-64435200D01*
G37*
G36*
X93502820Y-63095580D02*
X90502820Y-63095580D01*
X90502820Y-60795580D01*
X93502820Y-60795580D01*
X93502820Y-63095580D01*
X93502820Y-63095580D01*
G37*
G36*
X85250000Y-62435200D02*
X82050000Y-62435200D01*
X82050000Y-60835200D01*
X85250000Y-60835200D01*
X85250000Y-62435200D01*
X85250000Y-62435200D01*
G37*
G36*
X52296945Y-59529299D02*
X52314272Y-59546626D01*
X52334647Y-59560240D01*
X52357286Y-59569618D01*
X52381319Y-59574398D01*
X52476232Y-59583746D01*
X52565770Y-59610907D01*
X52655309Y-59638068D01*
X52820347Y-59726283D01*
X52965001Y-59844999D01*
X53083717Y-59989653D01*
X53083718Y-59989655D01*
X53171932Y-60154692D01*
X53226254Y-60333768D01*
X53230287Y-60374714D01*
X53240000Y-60473335D01*
X53240000Y-60966666D01*
X53226254Y-61106231D01*
X53171932Y-61285309D01*
X53083717Y-61450347D01*
X52965001Y-61595001D01*
X52820347Y-61713717D01*
X52655308Y-61801932D01*
X52565769Y-61829093D01*
X52476231Y-61856254D01*
X52290000Y-61874596D01*
X52103768Y-61856254D01*
X52014230Y-61829093D01*
X51924691Y-61801932D01*
X51759653Y-61713717D01*
X51614999Y-61595001D01*
X51496283Y-61450347D01*
X51405551Y-61280599D01*
X51400240Y-61267776D01*
X51386626Y-61247402D01*
X51369298Y-61230075D01*
X51348924Y-61216461D01*
X51326284Y-61207084D01*
X51302251Y-61202304D01*
X51277747Y-61202304D01*
X51253713Y-61207085D01*
X51231074Y-61216462D01*
X51210700Y-61230076D01*
X51193373Y-61247404D01*
X51179759Y-61267778D01*
X51174447Y-61280604D01*
X51083717Y-61450347D01*
X50965001Y-61595001D01*
X50820347Y-61713717D01*
X50655308Y-61801932D01*
X50565769Y-61829093D01*
X50476231Y-61856254D01*
X50290000Y-61874596D01*
X50103768Y-61856254D01*
X50014230Y-61829093D01*
X49924691Y-61801932D01*
X49759653Y-61713717D01*
X49614999Y-61595001D01*
X49496283Y-61450347D01*
X49408068Y-61285308D01*
X49380907Y-61195769D01*
X49353746Y-61106231D01*
X49340000Y-60966664D01*
X49340000Y-60473335D01*
X49353746Y-60333768D01*
X49384339Y-60232915D01*
X49408068Y-60154691D01*
X49440243Y-60094496D01*
X49496282Y-59989655D01*
X49615000Y-59844999D01*
X49681097Y-59790754D01*
X49759654Y-59726283D01*
X49924692Y-59638068D01*
X50014231Y-59610907D01*
X50103769Y-59583746D01*
X50162137Y-59577997D01*
X50198681Y-59574398D01*
X50222715Y-59569617D01*
X50245354Y-59560240D01*
X50265728Y-59546626D01*
X50283055Y-59529299D01*
X50290000Y-59518905D01*
X50296945Y-59529299D01*
X50314272Y-59546626D01*
X50334647Y-59560240D01*
X50357286Y-59569618D01*
X50381319Y-59574398D01*
X50476232Y-59583746D01*
X50565770Y-59610907D01*
X50655309Y-59638068D01*
X50820347Y-59726283D01*
X50965001Y-59844999D01*
X51083717Y-59989653D01*
X51174449Y-60159401D01*
X51179760Y-60172224D01*
X51193374Y-60192598D01*
X51210702Y-60209925D01*
X51231076Y-60223539D01*
X51253716Y-60232916D01*
X51277749Y-60237696D01*
X51302253Y-60237696D01*
X51326287Y-60232915D01*
X51348926Y-60223538D01*
X51369300Y-60209924D01*
X51386627Y-60192596D01*
X51400241Y-60172222D01*
X51405553Y-60159397D01*
X51437489Y-60099650D01*
X51496282Y-59989655D01*
X51615000Y-59844999D01*
X51681097Y-59790754D01*
X51759654Y-59726283D01*
X51924692Y-59638068D01*
X52014231Y-59610907D01*
X52103769Y-59583746D01*
X52162137Y-59577997D01*
X52198681Y-59574398D01*
X52222715Y-59569617D01*
X52245354Y-59560240D01*
X52265728Y-59546626D01*
X52283055Y-59529299D01*
X52290000Y-59518905D01*
X52296945Y-59529299D01*
X52296945Y-59529299D01*
G37*
G36*
X83205600Y-56460300D02*
X81975000Y-56460300D01*
X81950614Y-56462702D01*
X81927165Y-56469815D01*
X81905554Y-56481366D01*
X81886612Y-56496912D01*
X81871066Y-56515854D01*
X81859515Y-56537465D01*
X81852402Y-56560914D01*
X81850000Y-56585300D01*
X81850000Y-58710200D01*
X81852402Y-58734586D01*
X81859515Y-58758035D01*
X81871066Y-58779646D01*
X81886612Y-58798588D01*
X81905554Y-58814134D01*
X81927165Y-58825685D01*
X81950614Y-58832798D01*
X81975000Y-58835200D01*
X85250000Y-58835200D01*
X85250000Y-60435200D01*
X82050000Y-60435200D01*
X82050000Y-59860200D01*
X82047598Y-59835814D01*
X82040485Y-59812365D01*
X82028934Y-59790754D01*
X82013388Y-59771812D01*
X81994446Y-59756266D01*
X81972835Y-59744715D01*
X81949386Y-59737602D01*
X81925000Y-59735200D01*
X80250000Y-59735200D01*
X80250000Y-56585300D01*
X80247598Y-56560914D01*
X80240485Y-56537465D01*
X80228934Y-56515854D01*
X80213388Y-56496912D01*
X80194446Y-56481366D01*
X80172835Y-56469815D01*
X80149386Y-56462702D01*
X80125000Y-56460300D01*
X79975000Y-56460300D01*
X79950614Y-56462702D01*
X79927165Y-56469815D01*
X79905554Y-56481366D01*
X79886612Y-56496912D01*
X79871066Y-56515854D01*
X79859515Y-56537465D01*
X79852402Y-56560914D01*
X79850000Y-56585300D01*
X79850000Y-59735200D01*
X78250000Y-59735200D01*
X78250000Y-56535200D01*
X78980600Y-56535200D01*
X79004986Y-56532798D01*
X79028435Y-56525685D01*
X79050046Y-56514134D01*
X79068988Y-56498588D01*
X79084534Y-56479646D01*
X79096085Y-56458035D01*
X79103198Y-56434586D01*
X79105600Y-56410200D01*
X79105600Y-54960300D01*
X83205600Y-54960300D01*
X83205600Y-56460300D01*
X83205600Y-56460300D01*
G37*
G36*
X91610882Y-59073917D02*
X91658845Y-59088466D01*
X91703035Y-59112086D01*
X91741778Y-59143882D01*
X91773574Y-59182625D01*
X91797194Y-59226815D01*
X91811743Y-59274778D01*
X91817260Y-59330791D01*
X91817260Y-60156009D01*
X91811743Y-60212022D01*
X91797194Y-60259985D01*
X91773574Y-60304175D01*
X91741778Y-60342918D01*
X91703035Y-60374714D01*
X91658845Y-60398334D01*
X91610882Y-60412883D01*
X91554869Y-60418400D01*
X90804651Y-60418400D01*
X90748638Y-60412883D01*
X90700675Y-60398334D01*
X90656485Y-60374714D01*
X90617742Y-60342918D01*
X90585946Y-60304175D01*
X90562326Y-60259985D01*
X90547777Y-60212022D01*
X90542260Y-60156009D01*
X90542260Y-59330791D01*
X90547777Y-59274778D01*
X90562326Y-59226815D01*
X90585946Y-59182625D01*
X90617742Y-59143882D01*
X90656485Y-59112086D01*
X90700675Y-59088466D01*
X90748638Y-59073917D01*
X90804651Y-59068400D01*
X91554869Y-59068400D01*
X91610882Y-59073917D01*
X91610882Y-59073917D01*
G37*
G36*
X93185882Y-59073917D02*
X93233845Y-59088466D01*
X93278035Y-59112086D01*
X93316778Y-59143882D01*
X93348574Y-59182625D01*
X93372194Y-59226815D01*
X93386743Y-59274778D01*
X93392260Y-59330791D01*
X93392260Y-60156009D01*
X93386743Y-60212022D01*
X93372194Y-60259985D01*
X93348574Y-60304175D01*
X93316778Y-60342918D01*
X93278035Y-60374714D01*
X93233845Y-60398334D01*
X93185882Y-60412883D01*
X93129869Y-60418400D01*
X92379651Y-60418400D01*
X92323638Y-60412883D01*
X92275675Y-60398334D01*
X92231485Y-60374714D01*
X92192742Y-60342918D01*
X92160946Y-60304175D01*
X92137326Y-60259985D01*
X92122777Y-60212022D01*
X92117260Y-60156009D01*
X92117260Y-59330791D01*
X92122777Y-59274778D01*
X92137326Y-59226815D01*
X92160946Y-59182625D01*
X92192742Y-59143882D01*
X92231485Y-59112086D01*
X92275675Y-59088466D01*
X92323638Y-59073917D01*
X92379651Y-59068400D01*
X93129869Y-59068400D01*
X93185882Y-59073917D01*
X93185882Y-59073917D01*
G37*
G36*
X73850000Y-59735200D02*
X72250000Y-59735200D01*
X72250000Y-56535200D01*
X73850000Y-56535200D01*
X73850000Y-59735200D01*
X73850000Y-59735200D01*
G37*
G36*
X71850000Y-59735200D02*
X70250000Y-59735200D01*
X70250000Y-56535200D01*
X71850000Y-56535200D01*
X71850000Y-59735200D01*
X71850000Y-59735200D01*
G37*
G36*
X68950322Y-55077517D02*
X68998285Y-55092066D01*
X69042475Y-55115686D01*
X69081218Y-55147482D01*
X69113014Y-55186225D01*
X69136634Y-55230415D01*
X69151183Y-55278378D01*
X69156700Y-55334391D01*
X69156700Y-56159609D01*
X69151183Y-56215622D01*
X69136634Y-56263585D01*
X69113014Y-56307776D01*
X69094036Y-56330899D01*
X69080422Y-56351274D01*
X69071044Y-56373913D01*
X69066263Y-56397946D01*
X69066263Y-56422450D01*
X69071043Y-56446484D01*
X69080420Y-56469123D01*
X69094033Y-56489498D01*
X69111360Y-56506825D01*
X69131735Y-56520439D01*
X69154374Y-56529817D01*
X69178407Y-56534598D01*
X69190661Y-56535200D01*
X69850000Y-56535200D01*
X69850000Y-59735200D01*
X68250000Y-59735200D01*
X68250000Y-56545724D01*
X68247598Y-56521338D01*
X68240485Y-56497889D01*
X68228934Y-56476278D01*
X68213388Y-56457336D01*
X68194446Y-56441790D01*
X68172835Y-56430239D01*
X68149386Y-56423126D01*
X68137252Y-56421326D01*
X68088078Y-56416483D01*
X68040114Y-56401933D01*
X68033922Y-56398624D01*
X68011283Y-56389247D01*
X67987249Y-56384467D01*
X67969928Y-56384467D01*
X67963224Y-56362365D01*
X67951673Y-56340754D01*
X67944364Y-56330899D01*
X67925386Y-56307776D01*
X67901766Y-56263585D01*
X67887217Y-56215622D01*
X67881700Y-56159609D01*
X67881700Y-55334391D01*
X67887217Y-55278378D01*
X67901766Y-55230415D01*
X67925386Y-55186225D01*
X67957182Y-55147482D01*
X67995925Y-55115686D01*
X68040115Y-55092066D01*
X68088078Y-55077517D01*
X68144091Y-55072000D01*
X68894309Y-55072000D01*
X68950322Y-55077517D01*
X68950322Y-55077517D01*
G37*
G36*
X67375322Y-55077517D02*
X67423285Y-55092066D01*
X67467475Y-55115686D01*
X67506218Y-55147482D01*
X67538014Y-55186225D01*
X67561634Y-55230415D01*
X67576183Y-55278378D01*
X67581700Y-55334391D01*
X67581700Y-56159609D01*
X67576183Y-56215622D01*
X67561634Y-56263585D01*
X67538014Y-56307776D01*
X67519036Y-56330899D01*
X67505422Y-56351274D01*
X67496044Y-56373913D01*
X67491263Y-56397946D01*
X67491263Y-56422450D01*
X67496043Y-56446484D01*
X67505420Y-56469123D01*
X67519033Y-56489498D01*
X67536360Y-56506825D01*
X67556735Y-56520439D01*
X67579374Y-56529817D01*
X67603407Y-56534598D01*
X67615661Y-56535200D01*
X67847739Y-56535200D01*
X67850000Y-56534977D01*
X67850000Y-59735200D01*
X66250000Y-59735200D01*
X66250000Y-56535200D01*
X66272739Y-56535200D01*
X66297125Y-56532798D01*
X66320574Y-56525685D01*
X66342185Y-56514134D01*
X66361127Y-56498588D01*
X66376673Y-56479646D01*
X66388224Y-56458035D01*
X66395337Y-56434586D01*
X66397739Y-56410200D01*
X66395337Y-56385814D01*
X66388224Y-56362365D01*
X66376673Y-56340754D01*
X66369364Y-56330899D01*
X66350386Y-56307776D01*
X66326766Y-56263585D01*
X66312217Y-56215622D01*
X66306700Y-56159609D01*
X66306700Y-55334391D01*
X66312217Y-55278378D01*
X66326766Y-55230415D01*
X66350386Y-55186225D01*
X66382182Y-55147482D01*
X66420925Y-55115686D01*
X66465115Y-55092066D01*
X66513078Y-55077517D01*
X66569091Y-55072000D01*
X67319309Y-55072000D01*
X67375322Y-55077517D01*
X67375322Y-55077517D01*
G37*
G36*
X77850000Y-59735200D02*
X76250000Y-59735200D01*
X76250000Y-56535200D01*
X77850000Y-56535200D01*
X77850000Y-59735200D01*
X77850000Y-59735200D01*
G37*
G36*
X75850000Y-59735200D02*
X74250000Y-59735200D01*
X74250000Y-56535200D01*
X75850000Y-56535200D01*
X75850000Y-59735200D01*
X75850000Y-59735200D01*
G37*
G36*
X52476232Y-57043746D02*
X52565770Y-57070907D01*
X52655309Y-57098068D01*
X52820347Y-57186283D01*
X52965001Y-57304999D01*
X53083717Y-57449653D01*
X53083718Y-57449655D01*
X53171932Y-57614692D01*
X53226254Y-57793768D01*
X53235090Y-57883480D01*
X53240000Y-57933335D01*
X53240000Y-58426666D01*
X53226254Y-58566231D01*
X53171932Y-58745309D01*
X53083717Y-58910347D01*
X52965001Y-59055001D01*
X52820347Y-59173717D01*
X52655308Y-59261932D01*
X52565769Y-59289093D01*
X52476231Y-59316254D01*
X52417863Y-59322003D01*
X52381319Y-59325602D01*
X52357285Y-59330383D01*
X52334646Y-59339760D01*
X52314272Y-59353374D01*
X52296945Y-59370701D01*
X52290000Y-59381095D01*
X52283055Y-59370701D01*
X52265728Y-59353374D01*
X52245353Y-59339760D01*
X52222714Y-59330382D01*
X52198681Y-59325602D01*
X52187336Y-59324485D01*
X52103768Y-59316254D01*
X52014230Y-59289093D01*
X51924691Y-59261932D01*
X51759653Y-59173717D01*
X51614999Y-59055001D01*
X51496283Y-58910347D01*
X51405551Y-58740599D01*
X51400240Y-58727776D01*
X51386626Y-58707402D01*
X51369298Y-58690075D01*
X51348924Y-58676461D01*
X51326284Y-58667084D01*
X51302251Y-58662304D01*
X51277747Y-58662304D01*
X51253713Y-58667085D01*
X51231074Y-58676462D01*
X51210700Y-58690076D01*
X51193373Y-58707404D01*
X51179759Y-58727778D01*
X51174447Y-58740604D01*
X51083717Y-58910347D01*
X50965001Y-59055001D01*
X50820347Y-59173717D01*
X50655308Y-59261932D01*
X50565769Y-59289093D01*
X50476231Y-59316254D01*
X50417863Y-59322003D01*
X50381319Y-59325602D01*
X50357285Y-59330383D01*
X50334646Y-59339760D01*
X50314272Y-59353374D01*
X50296945Y-59370701D01*
X50290000Y-59381095D01*
X50283055Y-59370701D01*
X50265728Y-59353374D01*
X50245353Y-59339760D01*
X50222714Y-59330382D01*
X50198681Y-59325602D01*
X50187336Y-59324485D01*
X50103768Y-59316254D01*
X50014230Y-59289093D01*
X49924691Y-59261932D01*
X49759653Y-59173717D01*
X49614999Y-59055001D01*
X49496283Y-58910347D01*
X49408068Y-58745308D01*
X49380907Y-58655769D01*
X49353746Y-58566231D01*
X49340000Y-58426664D01*
X49340000Y-57933335D01*
X49353746Y-57793768D01*
X49384339Y-57692915D01*
X49408068Y-57614691D01*
X49440243Y-57554496D01*
X49496282Y-57449655D01*
X49615000Y-57304999D01*
X49759654Y-57186283D01*
X49924692Y-57098068D01*
X50014231Y-57070907D01*
X50103769Y-57043746D01*
X50290000Y-57025404D01*
X50476232Y-57043746D01*
X50565770Y-57070907D01*
X50655309Y-57098068D01*
X50820347Y-57186283D01*
X50965001Y-57304999D01*
X51083717Y-57449653D01*
X51174449Y-57619401D01*
X51179760Y-57632224D01*
X51193374Y-57652598D01*
X51210702Y-57669925D01*
X51231076Y-57683539D01*
X51253716Y-57692916D01*
X51277749Y-57697696D01*
X51302253Y-57697696D01*
X51326287Y-57692915D01*
X51348926Y-57683538D01*
X51369300Y-57669924D01*
X51386627Y-57652596D01*
X51400241Y-57632222D01*
X51405553Y-57619397D01*
X51427360Y-57578600D01*
X51496282Y-57449655D01*
X51615000Y-57304999D01*
X51759654Y-57186283D01*
X51924692Y-57098068D01*
X52014231Y-57070907D01*
X52103769Y-57043746D01*
X52290000Y-57025404D01*
X52476232Y-57043746D01*
X52476232Y-57043746D01*
G37*
G36*
X62442828Y-54864093D02*
X62490554Y-54878570D01*
X62534536Y-54902079D01*
X62573085Y-54933715D01*
X62604721Y-54972264D01*
X62628230Y-55016246D01*
X62642707Y-55063972D01*
X62648200Y-55119741D01*
X62648200Y-57647459D01*
X62642707Y-57703228D01*
X62628230Y-57750954D01*
X62604721Y-57794936D01*
X62573085Y-57833485D01*
X62534536Y-57865121D01*
X62490554Y-57888630D01*
X62442828Y-57903107D01*
X62387059Y-57908600D01*
X61259341Y-57908600D01*
X61203572Y-57903107D01*
X61155846Y-57888630D01*
X61111864Y-57865121D01*
X61073315Y-57833485D01*
X61041679Y-57794936D01*
X61018170Y-57750954D01*
X61003693Y-57703228D01*
X60998200Y-57647459D01*
X60998200Y-55119741D01*
X61003693Y-55063972D01*
X61018170Y-55016246D01*
X61041679Y-54972264D01*
X61073315Y-54933715D01*
X61111864Y-54902079D01*
X61155846Y-54878570D01*
X61203572Y-54864093D01*
X61259341Y-54858600D01*
X62387059Y-54858600D01*
X62442828Y-54864093D01*
X62442828Y-54864093D01*
G37*
G36*
X65153022Y-53350317D02*
X65200985Y-53364866D01*
X65245175Y-53388486D01*
X65283918Y-53420282D01*
X65315714Y-53459025D01*
X65339334Y-53503215D01*
X65353883Y-53551178D01*
X65359400Y-53607191D01*
X65359400Y-54432409D01*
X65353883Y-54488422D01*
X65339334Y-54536385D01*
X65315714Y-54580575D01*
X65283915Y-54619321D01*
X65235838Y-54658778D01*
X65218511Y-54676105D01*
X65204897Y-54696480D01*
X65195520Y-54719119D01*
X65190740Y-54743152D01*
X65190740Y-54767657D01*
X65195521Y-54791690D01*
X65204899Y-54814329D01*
X65218513Y-54834703D01*
X65235840Y-54852030D01*
X65256215Y-54865644D01*
X65278853Y-54875021D01*
X65290554Y-54878570D01*
X65334536Y-54902079D01*
X65373085Y-54933715D01*
X65404721Y-54972264D01*
X65428230Y-55016246D01*
X65442707Y-55063972D01*
X65448200Y-55119741D01*
X65448200Y-57647459D01*
X65442707Y-57703228D01*
X65428230Y-57750954D01*
X65404721Y-57794936D01*
X65373085Y-57833485D01*
X65334536Y-57865121D01*
X65290554Y-57888630D01*
X65242828Y-57903107D01*
X65187059Y-57908600D01*
X64059341Y-57908600D01*
X64003572Y-57903107D01*
X63955846Y-57888630D01*
X63911864Y-57865121D01*
X63873315Y-57833485D01*
X63841679Y-57794936D01*
X63818170Y-57750954D01*
X63803693Y-57703228D01*
X63798200Y-57647459D01*
X63798200Y-55119741D01*
X63803693Y-55063972D01*
X63818170Y-55016246D01*
X63841679Y-54972264D01*
X63873315Y-54933715D01*
X63911864Y-54902079D01*
X63955846Y-54878570D01*
X64003572Y-54864093D01*
X64059341Y-54858600D01*
X64102096Y-54858600D01*
X64126482Y-54856198D01*
X64149931Y-54849085D01*
X64171542Y-54837534D01*
X64190484Y-54821988D01*
X64206030Y-54803046D01*
X64217581Y-54781435D01*
X64224694Y-54757986D01*
X64227096Y-54733600D01*
X64224694Y-54709214D01*
X64217581Y-54685765D01*
X64206030Y-54664154D01*
X64181396Y-54636974D01*
X64159882Y-54619318D01*
X64128086Y-54580575D01*
X64104466Y-54536385D01*
X64089917Y-54488422D01*
X64084400Y-54432409D01*
X64084400Y-53607191D01*
X64089917Y-53551178D01*
X64104466Y-53503215D01*
X64128086Y-53459025D01*
X64159882Y-53420282D01*
X64198625Y-53388486D01*
X64242815Y-53364866D01*
X64290778Y-53350317D01*
X64346791Y-53344800D01*
X65097009Y-53344800D01*
X65153022Y-53350317D01*
X65153022Y-53350317D01*
G37*
G36*
X89777329Y-54834703D02*
X89883836Y-54845193D01*
X90010843Y-54883720D01*
X90081763Y-54905233D01*
X90264172Y-55002733D01*
X90424054Y-55133946D01*
X90555267Y-55293828D01*
X90652767Y-55476237D01*
X90652767Y-55476238D01*
X90712807Y-55674164D01*
X90733080Y-55880000D01*
X90712807Y-56085836D01*
X90690428Y-56159609D01*
X90652767Y-56283763D01*
X90555267Y-56466172D01*
X90424054Y-56626054D01*
X90264172Y-56757267D01*
X90081763Y-56854767D01*
X90015787Y-56874780D01*
X89883836Y-56914807D01*
X89806707Y-56922403D01*
X89729580Y-56930000D01*
X89626420Y-56930000D01*
X89549293Y-56922403D01*
X89472164Y-56914807D01*
X89340213Y-56874780D01*
X89274237Y-56854767D01*
X89091828Y-56757267D01*
X88931946Y-56626054D01*
X88800733Y-56466172D01*
X88703233Y-56283763D01*
X88665572Y-56159609D01*
X88643193Y-56085836D01*
X88622920Y-55880000D01*
X88643193Y-55674164D01*
X88703233Y-55476238D01*
X88703233Y-55476237D01*
X88800733Y-55293828D01*
X88931946Y-55133946D01*
X89091828Y-55002733D01*
X89274237Y-54905233D01*
X89345157Y-54883720D01*
X89472164Y-54845193D01*
X89578671Y-54834703D01*
X89626420Y-54830000D01*
X89729580Y-54830000D01*
X89777329Y-54834703D01*
X89777329Y-54834703D01*
G37*
G36*
X77543086Y-55412546D02*
X74593086Y-55412546D01*
X74593086Y-53952546D01*
X77543086Y-53952546D01*
X77543086Y-55412546D01*
X77543086Y-55412546D01*
G37*
G36*
X73244642Y-53604777D02*
X73292605Y-53619326D01*
X73336795Y-53642946D01*
X73375538Y-53674742D01*
X73407334Y-53713485D01*
X73430954Y-53757675D01*
X73445503Y-53805638D01*
X73451020Y-53861651D01*
X73451020Y-54686869D01*
X73445503Y-54742882D01*
X73430954Y-54790845D01*
X73407334Y-54835035D01*
X73375538Y-54873778D01*
X73336795Y-54905574D01*
X73292605Y-54929194D01*
X73244642Y-54943743D01*
X73188629Y-54949260D01*
X72438411Y-54949260D01*
X72382398Y-54943743D01*
X72334435Y-54929194D01*
X72290245Y-54905574D01*
X72251502Y-54873778D01*
X72219706Y-54835035D01*
X72196086Y-54790845D01*
X72181537Y-54742882D01*
X72176020Y-54686869D01*
X72176020Y-53861651D01*
X72181537Y-53805638D01*
X72196086Y-53757675D01*
X72219706Y-53713485D01*
X72251502Y-53674742D01*
X72290245Y-53642946D01*
X72334435Y-53619326D01*
X72382398Y-53604777D01*
X72438411Y-53599260D01*
X73188629Y-53599260D01*
X73244642Y-53604777D01*
X73244642Y-53604777D01*
G37*
G36*
X71669642Y-53604777D02*
X71717605Y-53619326D01*
X71761795Y-53642946D01*
X71800538Y-53674742D01*
X71832334Y-53713485D01*
X71855954Y-53757675D01*
X71870503Y-53805638D01*
X71876020Y-53861651D01*
X71876020Y-54686869D01*
X71870503Y-54742882D01*
X71855954Y-54790845D01*
X71832334Y-54835035D01*
X71800538Y-54873778D01*
X71761795Y-54905574D01*
X71717605Y-54929194D01*
X71669642Y-54943743D01*
X71613629Y-54949260D01*
X70863411Y-54949260D01*
X70807398Y-54943743D01*
X70759435Y-54929194D01*
X70715245Y-54905574D01*
X70676502Y-54873778D01*
X70644706Y-54835035D01*
X70621086Y-54790845D01*
X70606537Y-54742882D01*
X70601020Y-54686869D01*
X70601020Y-53861651D01*
X70606537Y-53805638D01*
X70621086Y-53757675D01*
X70644706Y-53713485D01*
X70676502Y-53674742D01*
X70715245Y-53642946D01*
X70759435Y-53619326D01*
X70807398Y-53604777D01*
X70863411Y-53599260D01*
X71613629Y-53599260D01*
X71669642Y-53604777D01*
X71669642Y-53604777D01*
G37*
G36*
X69851200Y-54756200D02*
X68391200Y-54756200D01*
X68391200Y-53706200D01*
X69851200Y-53706200D01*
X69851200Y-54756200D01*
X69851200Y-54756200D01*
G37*
G36*
X67651200Y-54756200D02*
X66191200Y-54756200D01*
X66191200Y-51806200D01*
X67651200Y-51806200D01*
X67651200Y-54756200D01*
X67651200Y-54756200D01*
G37*
G36*
X63578022Y-53350317D02*
X63625985Y-53364866D01*
X63670175Y-53388486D01*
X63708918Y-53420282D01*
X63740714Y-53459025D01*
X63764334Y-53503215D01*
X63778883Y-53551178D01*
X63784400Y-53607191D01*
X63784400Y-54432409D01*
X63778883Y-54488422D01*
X63764334Y-54536385D01*
X63740714Y-54580575D01*
X63708918Y-54619318D01*
X63670175Y-54651114D01*
X63625985Y-54674734D01*
X63578022Y-54689283D01*
X63522009Y-54694800D01*
X62771791Y-54694800D01*
X62715778Y-54689283D01*
X62667815Y-54674734D01*
X62623625Y-54651114D01*
X62584882Y-54619318D01*
X62553086Y-54580575D01*
X62529466Y-54536385D01*
X62514917Y-54488422D01*
X62509400Y-54432409D01*
X62509400Y-53607191D01*
X62514917Y-53551178D01*
X62529466Y-53503215D01*
X62553086Y-53459025D01*
X62584882Y-53420282D01*
X62623625Y-53388486D01*
X62667815Y-53364866D01*
X62715778Y-53350317D01*
X62771791Y-53344800D01*
X63522009Y-53344800D01*
X63578022Y-53350317D01*
X63578022Y-53350317D01*
G37*
G36*
X89806707Y-52297597D02*
X89883836Y-52305193D01*
X90015787Y-52345220D01*
X90081763Y-52365233D01*
X90264172Y-52462733D01*
X90424054Y-52593946D01*
X90555267Y-52753828D01*
X90652767Y-52936237D01*
X90652767Y-52936238D01*
X90712807Y-53134164D01*
X90733080Y-53340000D01*
X90712807Y-53545836D01*
X90694743Y-53605385D01*
X90652767Y-53743763D01*
X90555267Y-53926172D01*
X90424054Y-54086054D01*
X90264172Y-54217267D01*
X90081763Y-54314767D01*
X90015787Y-54334780D01*
X89883836Y-54374807D01*
X89806707Y-54382404D01*
X89729580Y-54390000D01*
X89626420Y-54390000D01*
X89549293Y-54382404D01*
X89472164Y-54374807D01*
X89340213Y-54334780D01*
X89274237Y-54314767D01*
X89091828Y-54217267D01*
X88931946Y-54086054D01*
X88800733Y-53926172D01*
X88703233Y-53743763D01*
X88661257Y-53605385D01*
X88643193Y-53545836D01*
X88622920Y-53340000D01*
X88643193Y-53134164D01*
X88703233Y-52936238D01*
X88703233Y-52936237D01*
X88800733Y-52753828D01*
X88931946Y-52593946D01*
X89091828Y-52462733D01*
X89274237Y-52365233D01*
X89340213Y-52345220D01*
X89472164Y-52305193D01*
X89549293Y-52297596D01*
X89626420Y-52290000D01*
X89729580Y-52290000D01*
X89806707Y-52297597D01*
X89806707Y-52297597D01*
G37*
G36*
X83205600Y-53460300D02*
X79105600Y-53460300D01*
X79105600Y-51960300D01*
X83205600Y-51960300D01*
X83205600Y-53460300D01*
X83205600Y-53460300D01*
G37*
G36*
X75551022Y-50274417D02*
X75598985Y-50288966D01*
X75643175Y-50312586D01*
X75681918Y-50344382D01*
X75713714Y-50383125D01*
X75737334Y-50427315D01*
X75751883Y-50475278D01*
X75757400Y-50531291D01*
X75757400Y-51281509D01*
X75751883Y-51337522D01*
X75737334Y-51385485D01*
X75713714Y-51429675D01*
X75681918Y-51468418D01*
X75643177Y-51500212D01*
X75611197Y-51517306D01*
X75590823Y-51530920D01*
X75573496Y-51548247D01*
X75559882Y-51568622D01*
X75550504Y-51591261D01*
X75545724Y-51615294D01*
X75545724Y-51639798D01*
X75550505Y-51663832D01*
X75559882Y-51686471D01*
X75573496Y-51706845D01*
X75590823Y-51724172D01*
X75611198Y-51737786D01*
X75633837Y-51747164D01*
X75670122Y-51752546D01*
X77543086Y-51752546D01*
X77543086Y-53212546D01*
X74593086Y-53212546D01*
X74593086Y-51703725D01*
X74598612Y-51696992D01*
X74610163Y-51675381D01*
X74617276Y-51651932D01*
X74619678Y-51627546D01*
X74617276Y-51603160D01*
X74610163Y-51579711D01*
X74598612Y-51558100D01*
X74583066Y-51539158D01*
X74553603Y-51517306D01*
X74521623Y-51500212D01*
X74482882Y-51468418D01*
X74451086Y-51429675D01*
X74427466Y-51385485D01*
X74412917Y-51337522D01*
X74407400Y-51281509D01*
X74407400Y-50531291D01*
X74412917Y-50475278D01*
X74427466Y-50427315D01*
X74451086Y-50383125D01*
X74482882Y-50344382D01*
X74521625Y-50312586D01*
X74565815Y-50288966D01*
X74613778Y-50274417D01*
X74669791Y-50268900D01*
X75495009Y-50268900D01*
X75551022Y-50274417D01*
X75551022Y-50274417D01*
G37*
G36*
X73511342Y-51788677D02*
X73559305Y-51803226D01*
X73603495Y-51826846D01*
X73642238Y-51858642D01*
X73674034Y-51897385D01*
X73697654Y-51941575D01*
X73712203Y-51989538D01*
X73717720Y-52045551D01*
X73717720Y-52870769D01*
X73712203Y-52926782D01*
X73697654Y-52974745D01*
X73674034Y-53018935D01*
X73642238Y-53057678D01*
X73603495Y-53089474D01*
X73559305Y-53113094D01*
X73511342Y-53127643D01*
X73455329Y-53133160D01*
X72705111Y-53133160D01*
X72649098Y-53127643D01*
X72601135Y-53113094D01*
X72556945Y-53089474D01*
X72518202Y-53057678D01*
X72486406Y-53018935D01*
X72462786Y-52974745D01*
X72448237Y-52926782D01*
X72442720Y-52870769D01*
X72442720Y-52045551D01*
X72448237Y-51989538D01*
X72462786Y-51941575D01*
X72486406Y-51897385D01*
X72518202Y-51858642D01*
X72556945Y-51826846D01*
X72601135Y-51803226D01*
X72649098Y-51788677D01*
X72705111Y-51783160D01*
X73455329Y-51783160D01*
X73511342Y-51788677D01*
X73511342Y-51788677D01*
G37*
G36*
X71936342Y-51788677D02*
X71984305Y-51803226D01*
X72028495Y-51826846D01*
X72067238Y-51858642D01*
X72099034Y-51897385D01*
X72122654Y-51941575D01*
X72137203Y-51989538D01*
X72142720Y-52045551D01*
X72142720Y-52870769D01*
X72137203Y-52926782D01*
X72122654Y-52974745D01*
X72099034Y-53018935D01*
X72067238Y-53057678D01*
X72028495Y-53089474D01*
X71984305Y-53113094D01*
X71936342Y-53127643D01*
X71880329Y-53133160D01*
X71130111Y-53133160D01*
X71074098Y-53127643D01*
X71026135Y-53113094D01*
X70981945Y-53089474D01*
X70943202Y-53057678D01*
X70911406Y-53018935D01*
X70887786Y-52974745D01*
X70873237Y-52926782D01*
X70867720Y-52870769D01*
X70867720Y-52045551D01*
X70873237Y-51989538D01*
X70887786Y-51941575D01*
X70911406Y-51897385D01*
X70943202Y-51858642D01*
X70981945Y-51826846D01*
X71026135Y-51803226D01*
X71074098Y-51788677D01*
X71130111Y-51783160D01*
X71880329Y-51783160D01*
X71936342Y-51788677D01*
X71936342Y-51788677D01*
G37*
G36*
X63539922Y-51686617D02*
X63587885Y-51701166D01*
X63632075Y-51724786D01*
X63670818Y-51756582D01*
X63702614Y-51795325D01*
X63726234Y-51839515D01*
X63740783Y-51887478D01*
X63746300Y-51943491D01*
X63746300Y-52768709D01*
X63740783Y-52824722D01*
X63726234Y-52872685D01*
X63702614Y-52916875D01*
X63670818Y-52955618D01*
X63632075Y-52987414D01*
X63587885Y-53011034D01*
X63539922Y-53025583D01*
X63483909Y-53031100D01*
X62733691Y-53031100D01*
X62677678Y-53025583D01*
X62629715Y-53011034D01*
X62585525Y-52987414D01*
X62546782Y-52955618D01*
X62514986Y-52916875D01*
X62491366Y-52872685D01*
X62476817Y-52824722D01*
X62471300Y-52768709D01*
X62471300Y-51943491D01*
X62476817Y-51887478D01*
X62491366Y-51839515D01*
X62514986Y-51795325D01*
X62546782Y-51756582D01*
X62585525Y-51724786D01*
X62629715Y-51701166D01*
X62677678Y-51686617D01*
X62733691Y-51681100D01*
X63483909Y-51681100D01*
X63539922Y-51686617D01*
X63539922Y-51686617D01*
G37*
G36*
X65114922Y-51686617D02*
X65162885Y-51701166D01*
X65207075Y-51724786D01*
X65245818Y-51756582D01*
X65277614Y-51795325D01*
X65301234Y-51839515D01*
X65315783Y-51887478D01*
X65321300Y-51943491D01*
X65321300Y-52768709D01*
X65315783Y-52824722D01*
X65301234Y-52872685D01*
X65277614Y-52916875D01*
X65245818Y-52955618D01*
X65207075Y-52987414D01*
X65162885Y-53011034D01*
X65114922Y-53025583D01*
X65058909Y-53031100D01*
X64308691Y-53031100D01*
X64252678Y-53025583D01*
X64204715Y-53011034D01*
X64160525Y-52987414D01*
X64121782Y-52955618D01*
X64089986Y-52916875D01*
X64066366Y-52872685D01*
X64051817Y-52824722D01*
X64046300Y-52768709D01*
X64046300Y-51943491D01*
X64051817Y-51887478D01*
X64066366Y-51839515D01*
X64089986Y-51795325D01*
X64121782Y-51756582D01*
X64160525Y-51724786D01*
X64204715Y-51701166D01*
X64252678Y-51686617D01*
X64308691Y-51681100D01*
X65058909Y-51681100D01*
X65114922Y-51686617D01*
X65114922Y-51686617D01*
G37*
G36*
X69851200Y-52856200D02*
X68391200Y-52856200D01*
X68391200Y-51806200D01*
X69851200Y-51806200D01*
X69851200Y-52856200D01*
X69851200Y-52856200D01*
G37*
G36*
X88680000Y-47085000D02*
X88682402Y-47109386D01*
X88689515Y-47132835D01*
X88701066Y-47154446D01*
X88716612Y-47173388D01*
X88735554Y-47188934D01*
X88757165Y-47200485D01*
X88780614Y-47207598D01*
X88805000Y-47210000D01*
X90728000Y-47210000D01*
X90728000Y-49310000D01*
X88805000Y-49310000D01*
X88780614Y-49312402D01*
X88757165Y-49319515D01*
X88735554Y-49331066D01*
X88716612Y-49346612D01*
X88701066Y-49365554D01*
X88689515Y-49387165D01*
X88682402Y-49410614D01*
X88680000Y-49435000D01*
X88680000Y-50011591D01*
X88682402Y-50035977D01*
X88689515Y-50059426D01*
X88701066Y-50081037D01*
X88716612Y-50099979D01*
X88735554Y-50115525D01*
X88757165Y-50127076D01*
X88780614Y-50134189D01*
X88805000Y-50136591D01*
X88829386Y-50134189D01*
X88852835Y-50127076D01*
X88874446Y-50115525D01*
X88901626Y-50090891D01*
X88931948Y-50053944D01*
X89091828Y-49922733D01*
X89274237Y-49825233D01*
X89351361Y-49801838D01*
X89472164Y-49765193D01*
X89549293Y-49757597D01*
X89626420Y-49750000D01*
X89729580Y-49750000D01*
X89806707Y-49757597D01*
X89883836Y-49765193D01*
X90004639Y-49801838D01*
X90081763Y-49825233D01*
X90264172Y-49922733D01*
X90424054Y-50053946D01*
X90555267Y-50213828D01*
X90652767Y-50396237D01*
X90672780Y-50462213D01*
X90712807Y-50594164D01*
X90733080Y-50800000D01*
X90712807Y-51005836D01*
X90697373Y-51056715D01*
X90652767Y-51203763D01*
X90555267Y-51386172D01*
X90424054Y-51546054D01*
X90264172Y-51677267D01*
X90081763Y-51774767D01*
X90015787Y-51794780D01*
X89883836Y-51834807D01*
X89806707Y-51842403D01*
X89729580Y-51850000D01*
X89626420Y-51850000D01*
X89549293Y-51842403D01*
X89472164Y-51834807D01*
X89340213Y-51794780D01*
X89274237Y-51774767D01*
X89091828Y-51677267D01*
X88931946Y-51546054D01*
X88800733Y-51386172D01*
X88703233Y-51203763D01*
X88658627Y-51056715D01*
X88649249Y-51034076D01*
X88635635Y-51013701D01*
X88618308Y-50996374D01*
X88597934Y-50982760D01*
X88575295Y-50973383D01*
X88551261Y-50968602D01*
X88539009Y-50968000D01*
X82280000Y-50968000D01*
X82280000Y-46568000D01*
X88680000Y-46568000D01*
X88680000Y-47085000D01*
X88680000Y-47085000D01*
G37*
G36*
X73595222Y-50249017D02*
X73643185Y-50263566D01*
X73687375Y-50287186D01*
X73726118Y-50318982D01*
X73757914Y-50357725D01*
X73781534Y-50401915D01*
X73796083Y-50449878D01*
X73801600Y-50505891D01*
X73801600Y-51256109D01*
X73796083Y-51312122D01*
X73781534Y-51360085D01*
X73757914Y-51404275D01*
X73726118Y-51443018D01*
X73687375Y-51474814D01*
X73643185Y-51498434D01*
X73595222Y-51512983D01*
X73539209Y-51518500D01*
X72713991Y-51518500D01*
X72657978Y-51512983D01*
X72610015Y-51498434D01*
X72565825Y-51474814D01*
X72527082Y-51443018D01*
X72495286Y-51404275D01*
X72471666Y-51360085D01*
X72457117Y-51312122D01*
X72451600Y-51256109D01*
X72451600Y-50505891D01*
X72457117Y-50449878D01*
X72471666Y-50401915D01*
X72495286Y-50357725D01*
X72527082Y-50318982D01*
X72565825Y-50287186D01*
X72610015Y-50263566D01*
X72657978Y-50249017D01*
X72713991Y-50243500D01*
X73539209Y-50243500D01*
X73595222Y-50249017D01*
X73595222Y-50249017D01*
G37*
G36*
X70180000Y-50968000D02*
X63780000Y-50968000D01*
X63780000Y-46568000D01*
X70180000Y-46568000D01*
X70180000Y-50968000D01*
X70180000Y-50968000D01*
G37*
G36*
X78074520Y-50718160D02*
X76774520Y-50718160D01*
X76774520Y-49118160D01*
X78074520Y-49118160D01*
X78074520Y-50718160D01*
X78074520Y-50718160D01*
G37*
G36*
X81374520Y-50718160D02*
X80074520Y-50718160D01*
X80074520Y-49118160D01*
X81374520Y-49118160D01*
X81374520Y-50718160D01*
X81374520Y-50718160D01*
G37*
G36*
X75551022Y-48699417D02*
X75598985Y-48713966D01*
X75643175Y-48737586D01*
X75681918Y-48769382D01*
X75713714Y-48808125D01*
X75737334Y-48852315D01*
X75751883Y-48900278D01*
X75757400Y-48956291D01*
X75757400Y-49706509D01*
X75751883Y-49762522D01*
X75737334Y-49810485D01*
X75713714Y-49854675D01*
X75681918Y-49893418D01*
X75643175Y-49925214D01*
X75598985Y-49948834D01*
X75551022Y-49963383D01*
X75495009Y-49968900D01*
X74669791Y-49968900D01*
X74613778Y-49963383D01*
X74565815Y-49948834D01*
X74521625Y-49925214D01*
X74482882Y-49893418D01*
X74451086Y-49854675D01*
X74427466Y-49810485D01*
X74412917Y-49762522D01*
X74407400Y-49706509D01*
X74407400Y-48956291D01*
X74412917Y-48900278D01*
X74427466Y-48852315D01*
X74451086Y-48808125D01*
X74482882Y-48769382D01*
X74521625Y-48737586D01*
X74565815Y-48713966D01*
X74613778Y-48699417D01*
X74669791Y-48693900D01*
X75495009Y-48693900D01*
X75551022Y-48699417D01*
X75551022Y-48699417D01*
G37*
G36*
X73595222Y-48674017D02*
X73643185Y-48688566D01*
X73687375Y-48712186D01*
X73726118Y-48743982D01*
X73757914Y-48782725D01*
X73781534Y-48826915D01*
X73796083Y-48874878D01*
X73801600Y-48930891D01*
X73801600Y-49681109D01*
X73796083Y-49737122D01*
X73781534Y-49785085D01*
X73757914Y-49829275D01*
X73726118Y-49868018D01*
X73687375Y-49899814D01*
X73643185Y-49923434D01*
X73595222Y-49937983D01*
X73539209Y-49943500D01*
X72713991Y-49943500D01*
X72657978Y-49937983D01*
X72610015Y-49923434D01*
X72565825Y-49899814D01*
X72527082Y-49868018D01*
X72495286Y-49829275D01*
X72471666Y-49785085D01*
X72457117Y-49737122D01*
X72451600Y-49681109D01*
X72451600Y-48930891D01*
X72457117Y-48874878D01*
X72471666Y-48826915D01*
X72495286Y-48782725D01*
X72527082Y-48743982D01*
X72565825Y-48712186D01*
X72610015Y-48688566D01*
X72657978Y-48674017D01*
X72713991Y-48668500D01*
X73539209Y-48668500D01*
X73595222Y-48674017D01*
X73595222Y-48674017D01*
G37*
M02*
