%TF.GenerationSoftware,KiCad,Pcbnew,7.0.11-7.0.11~ubuntu23.10.1*%
%TF.CreationDate,2024-06-16T14:32:52+02:00*%
%TF.ProjectId,WiRoc_NanoPi,5769526f-635f-44e6-916e-6f50692e6b69,rev?*%
%TF.SameCoordinates,Original*%
%TF.FileFunction,Drillmap*%
%TF.FilePolarity,Positive*%
%FSLAX45Y45*%
G04 Gerber Fmt 4.5, Leading zero omitted, Abs format (unit mm)*
G04 Created by KiCad (PCBNEW 7.0.11-7.0.11~ubuntu23.10.1) date 2024-06-16 14:32:52*
%MOMM*%
%LPD*%
G01*
G04 APERTURE LIST*
%ADD10C,0.200000*%
%ADD11C,0.100000*%
%ADD12C,0.110000*%
%ADD13C,0.140000*%
G04 APERTURE END LIST*
D10*
X2441000Y-198000D02*
G75*
G03*
X2243000Y0I-198000J0D01*
G01*
X2945000Y-355002D02*
G75*
G03*
X3075000Y-230000I-60J130162D01*
G01*
X4495000Y250000D02*
G75*
G03*
X4545000Y300000I650J49350D01*
G01*
X3954000Y3D02*
G75*
G03*
X3995000Y20000I1820J48297D01*
G01*
X4405000Y249999D02*
G75*
G03*
X3995000Y20000I77500J-618589D01*
G01*
X-255006Y298000D02*
G75*
G03*
X-215000Y250000I48607J-160D01*
G01*
X195001Y20001D02*
G75*
G03*
X-215000Y250000I-484701J-383601D01*
G01*
X195001Y20001D02*
G75*
G03*
X234000Y0I41439J32779D01*
G01*
X-212000Y6220002D02*
G75*
G03*
X195000Y6450000I-78990J614888D01*
G01*
X235000Y6470000D02*
G75*
G03*
X195000Y6450000I190J-50380D01*
G01*
X-212000Y6219998D02*
G75*
G03*
X-255000Y6170000I6800J-49338D01*
G01*
X4545000Y6170000D02*
X4545000Y300000D01*
X3994998Y6449998D02*
G75*
G03*
X4406000Y6220000I485902J386072D01*
G01*
X3994997Y6449998D02*
G75*
G03*
X3955000Y6470000I-39877J-29748D01*
G01*
X4544993Y6170000D02*
G75*
G03*
X4498000Y6220000I-49383J670D01*
G01*
X4498000Y6220000D02*
X4406000Y6220000D01*
X432000Y-198000D02*
X432000Y-269000D01*
X2243000Y0D02*
X1444480Y0D01*
X3275000Y0D02*
G75*
G03*
X3075000Y-200000I0J-200000D01*
G01*
X1114480Y-395000D02*
X554000Y-395000D01*
X2441000Y-198000D02*
X2441000Y-229000D01*
X4495000Y250000D02*
X4405000Y250000D01*
X235000Y6470000D02*
X3955000Y6470000D01*
X3275000Y0D02*
X3954000Y0D01*
X432000Y-198000D02*
G75*
G03*
X234000Y0I-198000J0D01*
G01*
X1444480Y0D02*
G75*
G03*
X1244480Y-200000I0J-200000D01*
G01*
X-255000Y298000D02*
X-255000Y6170000D01*
X1244480Y-200000D02*
X1244480Y-270000D01*
X3075000Y-200000D02*
X3075000Y-230000D01*
X431998Y-269000D02*
G75*
G03*
X554000Y-395000I126582J500D01*
G01*
X1114480Y-395002D02*
G75*
G03*
X1244480Y-270000I-60J130162D01*
G01*
X2945000Y-355000D02*
X2563000Y-355000D01*
X2440998Y-229000D02*
G75*
G03*
X2563000Y-355000I126582J500D01*
G01*
D11*
X-195000Y3705000D02*
X-165000Y3675000D01*
X-165000Y3705000D02*
X-195000Y3675000D01*
X-195000Y3405000D02*
X-165000Y3375000D01*
X-165000Y3405000D02*
X-195000Y3375000D01*
X-195000Y3075000D02*
X-165000Y3045000D01*
X-165000Y3075000D02*
X-195000Y3045000D01*
X-195000Y2685000D02*
X-165000Y2655000D01*
X-165000Y2685000D02*
X-195000Y2655000D01*
X-195000Y2235000D02*
X-165000Y2205000D01*
X-165000Y2235000D02*
X-195000Y2205000D01*
X-192800Y1417080D02*
X-162800Y1387080D01*
X-162800Y1417080D02*
X-192800Y1387080D01*
X-190000Y5702500D02*
X-160000Y5672500D01*
X-160000Y5702500D02*
X-190000Y5672500D01*
X-187720Y812560D02*
X-157720Y782560D01*
X-157720Y812560D02*
X-187720Y782560D01*
X-186000Y6176000D02*
X-156000Y6146000D01*
X-156000Y6176000D02*
X-186000Y6146000D01*
X-185000Y315000D02*
X-155000Y285000D01*
X-155000Y315000D02*
X-185000Y285000D01*
X-184000Y5961000D02*
X-154000Y5931000D01*
X-154000Y5961000D02*
X-184000Y5931000D01*
X-177560Y5059440D02*
X-147560Y5029440D01*
X-147560Y5059440D02*
X-177560Y5029440D01*
X-106440Y4851160D02*
X-76440Y4821160D01*
X-76440Y4851160D02*
X-106440Y4821160D01*
X-82000Y4438000D02*
X-52000Y4408000D01*
X-52000Y4438000D02*
X-82000Y4408000D01*
X-82000Y4266000D02*
X-52000Y4236000D01*
X-52000Y4266000D02*
X-82000Y4236000D01*
X-55000Y3888000D02*
X-25000Y3858000D01*
X-25000Y3888000D02*
X-55000Y3858000D01*
X25000Y225000D02*
X55000Y195000D01*
X55000Y225000D02*
X25000Y195000D01*
X61000Y6249000D02*
X91000Y6219000D01*
X91000Y6249000D02*
X61000Y6219000D01*
X61200Y2059700D02*
X91200Y2029700D01*
X91200Y2059700D02*
X61200Y2029700D01*
X98000Y4358000D02*
X128000Y4328000D01*
X128000Y4358000D02*
X98000Y4328000D01*
X175000Y129300D02*
X205000Y99300D01*
X205000Y129300D02*
X175000Y99300D01*
X185000Y5790000D02*
X215000Y5760000D01*
X215000Y5790000D02*
X185000Y5760000D01*
X238000Y6380000D02*
X268000Y6350000D01*
X268000Y6380000D02*
X238000Y6350000D01*
X246000Y1986000D02*
X276000Y1956000D01*
X276000Y1986000D02*
X246000Y1956000D01*
X249000Y4761000D02*
X279000Y4731000D01*
X279000Y4761000D02*
X249000Y4731000D01*
X249000Y3948000D02*
X279000Y3918000D01*
X279000Y3948000D02*
X249000Y3918000D01*
X285000Y5240000D02*
X315000Y5210000D01*
X315000Y5240000D02*
X285000Y5210000D01*
X290000Y1765000D02*
X320000Y1735000D01*
X320000Y1765000D02*
X290000Y1735000D01*
X292500Y1572500D02*
X322500Y1542500D01*
X322500Y1572500D02*
X292500Y1542500D01*
X327900Y3494800D02*
X357900Y3464800D01*
X357900Y3494800D02*
X327900Y3464800D01*
X329000Y4124000D02*
X359000Y4094000D01*
X359000Y4124000D02*
X329000Y4094000D01*
X350000Y4597000D02*
X380000Y4567000D01*
X380000Y4597000D02*
X350000Y4567000D01*
X387000Y3943000D02*
X417000Y3913000D01*
X417000Y3943000D02*
X387000Y3913000D01*
X391000Y4769000D02*
X421000Y4739000D01*
X421000Y4769000D02*
X391000Y4739000D01*
X547000Y417000D02*
X577000Y387000D01*
X577000Y417000D02*
X547000Y387000D01*
X556500Y3494800D02*
X586500Y3464800D01*
X586500Y3494800D02*
X556500Y3464800D01*
X561000Y6418000D02*
X591000Y6388000D01*
X591000Y6418000D02*
X561000Y6388000D01*
X585000Y5990000D02*
X615000Y5960000D01*
X615000Y5990000D02*
X585000Y5960000D01*
X734300Y2618500D02*
X764300Y2588500D01*
X764300Y2618500D02*
X734300Y2588500D01*
X736700Y225820D02*
X766700Y195820D01*
X766700Y225820D02*
X736700Y195820D01*
X739000Y4763000D02*
X769000Y4733000D01*
X769000Y4763000D02*
X739000Y4733000D01*
X747000Y5430280D02*
X777000Y5400280D01*
X777000Y5430280D02*
X747000Y5400280D01*
X747000Y3126500D02*
X777000Y3096500D01*
X777000Y3126500D02*
X747000Y3096500D01*
X749000Y3948000D02*
X779000Y3918000D01*
X779000Y3948000D02*
X749000Y3918000D01*
X771000Y380000D02*
X801000Y350000D01*
X801000Y380000D02*
X771000Y350000D01*
X785000Y695000D02*
X815000Y665000D01*
X815000Y695000D02*
X785000Y665000D01*
X787640Y1942860D02*
X817640Y1912860D01*
X817640Y1942860D02*
X787640Y1912860D01*
X802880Y2176540D02*
X832880Y2146540D01*
X832880Y2176540D02*
X802880Y2146540D01*
X874000Y3253500D02*
X904000Y3223500D01*
X904000Y3253500D02*
X874000Y3223500D01*
X889240Y1539000D02*
X919240Y1509000D01*
X919240Y1539000D02*
X889240Y1509000D01*
X899400Y2936000D02*
X929400Y2906000D01*
X929400Y2936000D02*
X899400Y2906000D01*
X915000Y1325000D02*
X945000Y1295000D01*
X945000Y1325000D02*
X915000Y1295000D01*
X931000Y6412000D02*
X961000Y6382000D01*
X961000Y6412000D02*
X931000Y6382000D01*
X936000Y3987000D02*
X966000Y3957000D01*
X966000Y3987000D02*
X936000Y3957000D01*
X957000Y4698000D02*
X987000Y4668000D01*
X987000Y4698000D02*
X957000Y4668000D01*
X975600Y2529600D02*
X1005600Y2499600D01*
X1005600Y2529600D02*
X975600Y2499600D01*
X1026400Y2910600D02*
X1056400Y2880600D01*
X1056400Y2910600D02*
X1026400Y2880600D01*
X1051800Y3190000D02*
X1081800Y3160000D01*
X1081800Y3190000D02*
X1051800Y3160000D01*
X1088000Y4147000D02*
X1118000Y4117000D01*
X1118000Y4147000D02*
X1088000Y4117000D01*
X1093000Y4545000D02*
X1123000Y4515000D01*
X1123000Y4545000D02*
X1093000Y4515000D01*
X1095000Y1325000D02*
X1125000Y1295000D01*
X1125000Y1325000D02*
X1095000Y1295000D01*
X1208000Y6389000D02*
X1238000Y6359000D01*
X1238000Y6389000D02*
X1208000Y6359000D01*
X1255000Y3215400D02*
X1285000Y3185400D01*
X1285000Y3215400D02*
X1255000Y3185400D01*
X1255000Y1315000D02*
X1285000Y1285000D01*
X1285000Y1315000D02*
X1255000Y1285000D01*
X1259940Y32780D02*
X1289940Y2780D01*
X1289940Y32780D02*
X1259940Y2780D01*
X1318500Y2859800D02*
X1348500Y2829800D01*
X1348500Y2859800D02*
X1318500Y2829800D01*
X1410380Y496051D02*
X1440380Y466051D01*
X1440380Y496051D02*
X1410380Y466051D01*
X1411000Y5955000D02*
X1441000Y5925000D01*
X1441000Y5955000D02*
X1411000Y5925000D01*
X1445000Y1315000D02*
X1475000Y1285000D01*
X1475000Y1315000D02*
X1445000Y1285000D01*
X1485000Y5371000D02*
X1515000Y5341000D01*
X1515000Y5371000D02*
X1485000Y5341000D01*
X1491000Y3870000D02*
X1521000Y3840000D01*
X1521000Y3870000D02*
X1491000Y3840000D01*
X1491000Y3742000D02*
X1521000Y3712000D01*
X1521000Y3742000D02*
X1491000Y3712000D01*
X1635000Y5990000D02*
X1665000Y5960000D01*
X1665000Y5990000D02*
X1635000Y5960000D01*
X1638000Y5592000D02*
X1668000Y5562000D01*
X1668000Y5592000D02*
X1638000Y5562000D01*
X1638000Y5102000D02*
X1668000Y5072000D01*
X1668000Y5102000D02*
X1638000Y5072000D01*
X1649000Y4072000D02*
X1679000Y4042000D01*
X1679000Y4072000D02*
X1649000Y4042000D01*
X1737600Y3024900D02*
X1767600Y2994900D01*
X1767600Y3024900D02*
X1737600Y2994900D01*
X1813800Y2872500D02*
X1843800Y2842500D01*
X1843800Y2872500D02*
X1813800Y2842500D01*
X1813800Y2809000D02*
X1843800Y2779000D01*
X1843800Y2809000D02*
X1813800Y2779000D01*
X1829328Y838140D02*
X1859328Y808140D01*
X1859328Y838140D02*
X1829328Y808140D01*
X1837000Y5590000D02*
X1867000Y5560000D01*
X1867000Y5590000D02*
X1837000Y5560000D01*
X1842000Y5095000D02*
X1872000Y5065000D01*
X1872000Y5095000D02*
X1842000Y5065000D01*
X1928100Y1975880D02*
X1958100Y1945880D01*
X1958100Y1975880D02*
X1928100Y1945880D01*
X1960000Y5990000D02*
X1990000Y5960000D01*
X1990000Y5990000D02*
X1960000Y5960000D01*
X2010000Y6165000D02*
X2040000Y6135000D01*
X2040000Y6165000D02*
X2010000Y6135000D01*
X2027500Y1095000D02*
X2057500Y1065000D01*
X2057500Y1095000D02*
X2027500Y1065000D01*
X2031000Y5093000D02*
X2061000Y5063000D01*
X2061000Y5093000D02*
X2031000Y5063000D01*
X2048000Y5590000D02*
X2078000Y5560000D01*
X2078000Y5590000D02*
X2048000Y5560000D01*
X2080500Y1846340D02*
X2110500Y1816340D01*
X2110500Y1846340D02*
X2080500Y1816340D01*
X2080500Y1673620D02*
X2110500Y1643620D01*
X2110500Y1673620D02*
X2080500Y1643620D01*
X2110110Y2417840D02*
X2140110Y2387840D01*
X2140110Y2417840D02*
X2110110Y2387840D01*
X2160000Y6165000D02*
X2190000Y6135000D01*
X2190000Y6165000D02*
X2160000Y6135000D01*
X2166860Y1884440D02*
X2196860Y1854440D01*
X2196860Y1884440D02*
X2166860Y1854440D01*
X2169400Y2008900D02*
X2199400Y1978900D01*
X2199400Y2008900D02*
X2169400Y1978900D01*
X2178196Y2612244D02*
X2208196Y2582244D01*
X2208196Y2612244D02*
X2178196Y2582244D01*
X2179560Y5784210D02*
X2209560Y5754210D01*
X2209560Y5784210D02*
X2179560Y5754210D01*
X2180000Y1113000D02*
X2210000Y1083000D01*
X2210000Y1113000D02*
X2180000Y1083000D01*
X2192260Y1478040D02*
X2222260Y1448040D01*
X2222260Y1478040D02*
X2192260Y1448040D01*
X2202420Y1345960D02*
X2232420Y1315960D01*
X2232420Y1345960D02*
X2202420Y1315960D01*
X2350100Y3085860D02*
X2380100Y3055860D01*
X2380100Y3085860D02*
X2350100Y3055860D01*
X2362000Y3280000D02*
X2392000Y3250000D01*
X2392000Y3280000D02*
X2362000Y3250000D01*
X2402020Y2422360D02*
X2432020Y2392360D01*
X2432020Y2422360D02*
X2402020Y2392360D01*
X2402020Y2282730D02*
X2432020Y2252730D01*
X2432020Y2282730D02*
X2402020Y2252730D01*
X2402020Y2142360D02*
X2432020Y2112360D01*
X2432020Y2142360D02*
X2402020Y2112360D01*
X2413000Y4605000D02*
X2443000Y4575000D01*
X2443000Y4605000D02*
X2413000Y4575000D01*
X2428480Y3083320D02*
X2458480Y3053320D01*
X2458480Y3083320D02*
X2428480Y3053320D01*
X2446000Y1334000D02*
X2476000Y1304000D01*
X2476000Y1334000D02*
X2446000Y1304000D01*
X2450000Y1165000D02*
X2480000Y1135000D01*
X2480000Y1165000D02*
X2450000Y1135000D01*
X2537500Y1100000D02*
X2567500Y1070000D01*
X2567500Y1100000D02*
X2537500Y1070000D01*
X2542020Y2282360D02*
X2572020Y2252360D01*
X2572020Y2282360D02*
X2542020Y2252360D01*
X2542020Y2142360D02*
X2572020Y2112360D01*
X2572020Y2142360D02*
X2542020Y2112360D01*
X2543000Y1312000D02*
X2573000Y1282000D01*
X2573000Y1312000D02*
X2543000Y1282000D01*
X2550247Y2414133D02*
X2580247Y2384133D01*
X2580247Y2414133D02*
X2550247Y2384133D01*
X2555000Y2851000D02*
X2585000Y2821000D01*
X2585000Y2851000D02*
X2555000Y2821000D01*
X2626600Y1208800D02*
X2656600Y1178800D01*
X2656600Y1208800D02*
X2626600Y1178800D01*
X2650000Y3331000D02*
X2680000Y3301000D01*
X2680000Y3331000D02*
X2650000Y3301000D01*
X2682020Y2422360D02*
X2712020Y2392360D01*
X2712020Y2422360D02*
X2682020Y2392360D01*
X2682020Y2282730D02*
X2712020Y2252730D01*
X2712020Y2282730D02*
X2682020Y2252730D01*
X2682020Y2142360D02*
X2712020Y2112360D01*
X2712020Y2142360D02*
X2682020Y2112360D01*
X2740900Y2796300D02*
X2770900Y2766300D01*
X2770900Y2796300D02*
X2740900Y2766300D01*
X2775000Y5865000D02*
X2805000Y5835000D01*
X2805000Y5865000D02*
X2775000Y5835000D01*
X2779000Y2707400D02*
X2809000Y2677400D01*
X2809000Y2707400D02*
X2779000Y2677400D01*
X2812020Y1607580D02*
X2842020Y1577580D01*
X2842020Y1607580D02*
X2812020Y1577580D01*
X2842500Y3317000D02*
X2872500Y3287000D01*
X2872500Y3317000D02*
X2842500Y3287000D01*
X2847580Y1274840D02*
X2877580Y1244840D01*
X2877580Y1274840D02*
X2847580Y1244840D01*
X2879000Y2597000D02*
X2909000Y2567000D01*
X2909000Y2597000D02*
X2879000Y2567000D01*
X2880600Y675400D02*
X2910600Y645400D01*
X2910600Y675400D02*
X2880600Y645400D01*
X2881000Y4974000D02*
X2911000Y4944000D01*
X2911000Y4974000D02*
X2881000Y4944000D01*
X2895945Y6196397D02*
X2925945Y6166397D01*
X2925945Y6196397D02*
X2895945Y6166397D01*
X2905000Y1864000D02*
X2935000Y1834000D01*
X2935000Y1864000D02*
X2905000Y1834000D01*
X2911080Y5597920D02*
X2941080Y5567920D01*
X2941080Y5597920D02*
X2911080Y5567920D01*
X2931400Y1183400D02*
X2961400Y1153400D01*
X2961400Y1183400D02*
X2931400Y1153400D01*
X2943000Y2423000D02*
X2973000Y2393000D01*
X2973000Y2423000D02*
X2943000Y2393000D01*
X2956800Y1330000D02*
X2986800Y1300000D01*
X2986800Y1330000D02*
X2956800Y1300000D01*
X3035000Y6165000D02*
X3065000Y6135000D01*
X3065000Y6165000D02*
X3035000Y6135000D01*
X3096500Y4079000D02*
X3126500Y4049000D01*
X3126500Y4079000D02*
X3096500Y4049000D01*
X3115000Y6390000D02*
X3145000Y6360000D01*
X3145000Y6390000D02*
X3115000Y6360000D01*
X3133000Y1336000D02*
X3163000Y1306000D01*
X3163000Y1336000D02*
X3133000Y1306000D01*
X3185400Y675400D02*
X3215400Y645400D01*
X3215400Y675400D02*
X3185400Y645400D01*
X3201510Y2415300D02*
X3231510Y2385300D01*
X3231510Y2415300D02*
X3201510Y2385300D01*
X3210800Y3888500D02*
X3240800Y3858500D01*
X3240800Y3888500D02*
X3210800Y3858500D01*
X3261600Y3343000D02*
X3291600Y3313000D01*
X3291600Y3343000D02*
X3261600Y3313000D01*
X3261600Y3050300D02*
X3291600Y3020300D01*
X3291600Y3050300D02*
X3261600Y3020300D01*
X3281920Y1856500D02*
X3311920Y1826500D01*
X3311920Y1856500D02*
X3281920Y1826500D01*
X3299700Y2174000D02*
X3329700Y2144000D01*
X3329700Y2174000D02*
X3299700Y2144000D01*
X3299700Y1589800D02*
X3329700Y1559800D01*
X3329700Y1589800D02*
X3299700Y1559800D01*
X3307550Y802400D02*
X3337550Y772400D01*
X3337550Y802400D02*
X3307550Y772400D01*
X3309860Y1399300D02*
X3339860Y1369300D01*
X3339860Y1399300D02*
X3309860Y1369300D01*
X3312400Y1208800D02*
X3342400Y1178800D01*
X3342400Y1208800D02*
X3312400Y1178800D01*
X3363200Y1767600D02*
X3393200Y1737600D01*
X3393200Y1767600D02*
X3363200Y1737600D01*
X3363200Y1640600D02*
X3393200Y1610600D01*
X3393200Y1640600D02*
X3363200Y1610600D01*
X3369000Y5995000D02*
X3399000Y5965000D01*
X3399000Y5995000D02*
X3369000Y5965000D01*
X3414000Y3888500D02*
X3444000Y3858500D01*
X3444000Y3888500D02*
X3414000Y3858500D01*
X3414000Y3342400D02*
X3444000Y3312400D01*
X3444000Y3342400D02*
X3414000Y3312400D01*
X3414000Y1437400D02*
X3444000Y1407400D01*
X3444000Y1437400D02*
X3414000Y1407400D01*
X3439400Y2936000D02*
X3469400Y2906000D01*
X3469400Y2936000D02*
X3439400Y2906000D01*
X3488100Y2345167D02*
X3518100Y2315167D01*
X3518100Y2345167D02*
X3488100Y2315167D01*
X3590000Y5990000D02*
X3620000Y5960000D01*
X3620000Y5990000D02*
X3590000Y5960000D01*
X3604500Y3939300D02*
X3634500Y3909300D01*
X3634500Y3939300D02*
X3604500Y3909300D01*
X3604500Y3837700D02*
X3634500Y3807700D01*
X3634500Y3837700D02*
X3604500Y3807700D01*
X3744200Y3596400D02*
X3774200Y3566400D01*
X3774200Y3596400D02*
X3744200Y3566400D01*
X3744200Y3340000D02*
X3774200Y3310000D01*
X3774200Y3340000D02*
X3744200Y3310000D01*
X3756900Y3964700D02*
X3786900Y3934700D01*
X3786900Y3964700D02*
X3756900Y3934700D01*
X3795000Y472200D02*
X3825000Y442200D01*
X3825000Y472200D02*
X3795000Y442200D01*
X3808570Y3007000D02*
X3838570Y2977000D01*
X3838570Y3007000D02*
X3808570Y2977000D01*
X3831420Y4285000D02*
X3861420Y4255000D01*
X3861420Y4285000D02*
X3831420Y4255000D01*
X3863139Y2452861D02*
X3893139Y2422861D01*
X3893139Y2452861D02*
X3863139Y2422861D01*
X3866000Y1939000D02*
X3896000Y1909000D01*
X3896000Y1939000D02*
X3866000Y1909000D01*
X3934700Y5171200D02*
X3964700Y5141200D01*
X3964700Y5171200D02*
X3934700Y5141200D01*
X3965000Y123000D02*
X3995000Y93000D01*
X3995000Y123000D02*
X3965000Y93000D01*
X3972800Y258840D02*
X4002800Y228840D01*
X4002800Y258840D02*
X3972800Y228840D01*
X4036300Y3837700D02*
X4066300Y3807700D01*
X4066300Y3837700D02*
X4036300Y3807700D01*
X4049000Y4167900D02*
X4079000Y4137900D01*
X4079000Y4167900D02*
X4049000Y4137900D01*
X4052000Y6178000D02*
X4082000Y6148000D01*
X4082000Y6178000D02*
X4052000Y6148000D01*
X4068761Y3197239D02*
X4098761Y3167239D01*
X4098761Y3197239D02*
X4068761Y3167239D01*
X4070000Y1379000D02*
X4100000Y1349000D01*
X4100000Y1379000D02*
X4070000Y1349000D01*
X4073000Y2990000D02*
X4103000Y2960000D01*
X4103000Y2990000D02*
X4073000Y2960000D01*
X4074400Y599200D02*
X4104400Y569200D01*
X4104400Y599200D02*
X4074400Y569200D01*
X4094000Y6286000D02*
X4124000Y6256000D01*
X4124000Y6286000D02*
X4094000Y6256000D01*
X4099800Y421400D02*
X4129800Y391400D01*
X4129800Y421400D02*
X4099800Y391400D01*
X4186160Y263920D02*
X4216160Y233920D01*
X4216160Y263920D02*
X4186160Y233920D01*
X4214100Y4155200D02*
X4244100Y4125200D01*
X4244100Y4155200D02*
X4214100Y4125200D01*
X4214100Y3786900D02*
X4244100Y3756900D01*
X4244100Y3786900D02*
X4214100Y3756900D01*
X4277270Y1445730D02*
X4307270Y1415730D01*
X4307270Y1445730D02*
X4277270Y1415730D01*
X4285000Y915000D02*
X4315000Y885000D01*
X4315000Y915000D02*
X4285000Y885000D01*
X4315000Y635000D02*
X4345000Y605000D01*
X4345000Y635000D02*
X4315000Y605000D01*
X4435000Y6116080D02*
X4465000Y6086080D01*
X4465000Y6116080D02*
X4435000Y6086080D01*
X4435000Y5715000D02*
X4465000Y5685000D01*
X4465000Y5715000D02*
X4435000Y5685000D01*
X4460480Y340120D02*
X4490480Y310120D01*
X4490480Y340120D02*
X4460480Y310120D01*
X4475000Y645000D02*
X4505000Y615000D01*
X4505000Y645000D02*
X4475000Y615000D01*
X4480800Y1579640D02*
X4510800Y1549640D01*
X4510800Y1579640D02*
X4480800Y1549640D01*
X4480800Y1122440D02*
X4510800Y1092440D01*
X4510800Y1122440D02*
X4480800Y1092440D01*
X4485880Y2102880D02*
X4515880Y2072880D01*
X4515880Y2102880D02*
X4485880Y2072880D01*
X4490960Y2306080D02*
X4520960Y2276080D01*
X4520960Y2306080D02*
X4490960Y2276080D01*
X712084Y3448116D02*
G75*
G03*
X672084Y3448116I-20000J0D01*
G01*
X672084Y3448116D02*
G75*
G03*
X712084Y3448116I20000J0D01*
G01*
X755271Y3379529D02*
G75*
G03*
X715271Y3379529I-20000J0D01*
G01*
X715271Y3379529D02*
G75*
G03*
X755271Y3379529I20000J0D01*
G01*
X970000Y5731580D02*
G75*
G03*
X930000Y5731580I-20000J0D01*
G01*
X930000Y5731580D02*
G75*
G03*
X970000Y5731580I20000J0D01*
G01*
X990000Y690000D02*
G75*
G03*
X950000Y690000I-20000J0D01*
G01*
X950000Y690000D02*
G75*
G03*
X990000Y690000I20000J0D01*
G01*
X1120000Y5790790D02*
G75*
G03*
X1080000Y5790790I-20000J0D01*
G01*
X1080000Y5790790D02*
G75*
G03*
X1120000Y5790790I20000J0D01*
G01*
X1177600Y2566840D02*
G75*
G03*
X1137600Y2566840I-20000J0D01*
G01*
X1137600Y2566840D02*
G75*
G03*
X1177600Y2566840I20000J0D01*
G01*
X1230000Y440000D02*
G75*
G03*
X1190000Y440000I-20000J0D01*
G01*
X1190000Y440000D02*
G75*
G03*
X1230000Y440000I20000J0D01*
G01*
X1279700Y129540D02*
G75*
G03*
X1239700Y129540I-20000J0D01*
G01*
X1239700Y129540D02*
G75*
G03*
X1279700Y129540I20000J0D01*
G01*
X1368622Y616529D02*
G75*
G03*
X1328622Y616529I-20000J0D01*
G01*
X1328622Y616529D02*
G75*
G03*
X1368622Y616529I20000J0D01*
G01*
X1390000Y430000D02*
G75*
G03*
X1350000Y430000I-20000J0D01*
G01*
X1350000Y430000D02*
G75*
G03*
X1390000Y430000I20000J0D01*
G01*
X1401620Y70330D02*
G75*
G03*
X1361620Y70330I-20000J0D01*
G01*
X1361620Y70330D02*
G75*
G03*
X1401620Y70330I20000J0D01*
G01*
X1413820Y2239180D02*
G75*
G03*
X1373820Y2239180I-20000J0D01*
G01*
X1373820Y2239180D02*
G75*
G03*
X1413820Y2239180I20000J0D01*
G01*
X1549680Y3072920D02*
G75*
G03*
X1509680Y3072920I-20000J0D01*
G01*
X1509680Y3072920D02*
G75*
G03*
X1549680Y3072920I20000J0D01*
G01*
X1764340Y2483020D02*
G75*
G03*
X1724340Y2483020I-20000J0D01*
G01*
X1724340Y2483020D02*
G75*
G03*
X1764340Y2483020I20000J0D01*
G01*
X1782760Y2573020D02*
G75*
G03*
X1742760Y2573020I-20000J0D01*
G01*
X1742760Y2573020D02*
G75*
G03*
X1782760Y2573020I20000J0D01*
G01*
X1853240Y3201840D02*
G75*
G03*
X1813240Y3201840I-20000J0D01*
G01*
X1813240Y3201840D02*
G75*
G03*
X1853240Y3201840I20000J0D01*
G01*
X1985960Y597690D02*
G75*
G03*
X1945960Y597690I-20000J0D01*
G01*
X1945960Y597690D02*
G75*
G03*
X1985960Y597690I20000J0D01*
G01*
X2006280Y2250440D02*
G75*
G03*
X1966280Y2250440I-20000J0D01*
G01*
X1966280Y2250440D02*
G75*
G03*
X2006280Y2250440I20000J0D01*
G01*
X2128200Y2159000D02*
G75*
G03*
X2088200Y2159000I-20000J0D01*
G01*
X2088200Y2159000D02*
G75*
G03*
X2128200Y2159000I20000J0D01*
G01*
X2180001Y380000D02*
G75*
G03*
X2140001Y380000I-20000J0D01*
G01*
X2140001Y380000D02*
G75*
G03*
X2180001Y380000I20000J0D01*
G01*
X2199320Y2331720D02*
G75*
G03*
X2159320Y2331720I-20000J0D01*
G01*
X2159320Y2331720D02*
G75*
G03*
X2199320Y2331720I20000J0D01*
G01*
X2306000Y3136900D02*
G75*
G03*
X2266000Y3136900I-20000J0D01*
G01*
X2266000Y3136900D02*
G75*
G03*
X2306000Y3136900I20000J0D01*
G01*
X2355000Y825000D02*
G75*
G03*
X2315000Y825000I-20000J0D01*
G01*
X2315000Y825000D02*
G75*
G03*
X2355000Y825000I20000J0D01*
G01*
X2381000Y1815000D02*
G75*
G03*
X2341000Y1815000I-20000J0D01*
G01*
X2341000Y1815000D02*
G75*
G03*
X2381000Y1815000I20000J0D01*
G01*
X2460000Y1789000D02*
G75*
G03*
X2420000Y1789000I-20000J0D01*
G01*
X2420000Y1789000D02*
G75*
G03*
X2460000Y1789000I20000J0D01*
G01*
X2477000Y2713000D02*
G75*
G03*
X2437000Y2713000I-20000J0D01*
G01*
X2437000Y2713000D02*
G75*
G03*
X2477000Y2713000I20000J0D01*
G01*
X2508211Y1862000D02*
G75*
G03*
X2468211Y1862000I-20000J0D01*
G01*
X2468211Y1862000D02*
G75*
G03*
X2508211Y1862000I20000J0D01*
G01*
X2517000Y3415161D02*
G75*
G03*
X2477000Y3415161I-20000J0D01*
G01*
X2477000Y3415161D02*
G75*
G03*
X2517000Y3415161I20000J0D01*
G01*
X2519559Y3266920D02*
G75*
G03*
X2479559Y3266920I-20000J0D01*
G01*
X2479559Y3266920D02*
G75*
G03*
X2519559Y3266920I20000J0D01*
G01*
X2597000Y2714000D02*
G75*
G03*
X2557000Y2714000I-20000J0D01*
G01*
X2557000Y2714000D02*
G75*
G03*
X2597000Y2714000I20000J0D01*
G01*
X2656520Y1574800D02*
G75*
G03*
X2616520Y1574800I-20000J0D01*
G01*
X2616520Y1574800D02*
G75*
G03*
X2656520Y1574800I20000J0D01*
G01*
X2679400Y3048000D02*
G75*
G03*
X2639400Y3048000I-20000J0D01*
G01*
X2639400Y3048000D02*
G75*
G03*
X2679400Y3048000I20000J0D01*
G01*
X3080700Y2095499D02*
G75*
G03*
X3040700Y2095499I-20000J0D01*
G01*
X3040700Y2095499D02*
G75*
G03*
X3080700Y2095499I20000J0D01*
G01*
X3245800Y838200D02*
G75*
G03*
X3205800Y838200I-20000J0D01*
G01*
X3205800Y838200D02*
G75*
G03*
X3245800Y838200I20000J0D01*
G01*
X3296600Y2768600D02*
G75*
G03*
X3256600Y2768600I-20000J0D01*
G01*
X3256600Y2768600D02*
G75*
G03*
X3296600Y2768600I20000J0D01*
G01*
X3322000Y2679700D02*
G75*
G03*
X3282000Y2679700I-20000J0D01*
G01*
X3282000Y2679700D02*
G75*
G03*
X3322000Y2679700I20000J0D01*
G01*
X3334700Y2476500D02*
G75*
G03*
X3294700Y2476500I-20000J0D01*
G01*
X3294700Y2476500D02*
G75*
G03*
X3334700Y2476500I20000J0D01*
G01*
X3398200Y863600D02*
G75*
G03*
X3358200Y863600I-20000J0D01*
G01*
X3358200Y863600D02*
G75*
G03*
X3398200Y863600I20000J0D01*
G01*
X3398200Y711200D02*
G75*
G03*
X3358200Y711200I-20000J0D01*
G01*
X3358200Y711200D02*
G75*
G03*
X3398200Y711200I20000J0D01*
G01*
X3530543Y2095450D02*
G75*
G03*
X3490543Y2095450I-20000J0D01*
G01*
X3490543Y2095450D02*
G75*
G03*
X3530543Y2095450I20000J0D01*
G01*
X3535364Y2257140D02*
G75*
G03*
X3495364Y2257140I-20000J0D01*
G01*
X3495364Y2257140D02*
G75*
G03*
X3535364Y2257140I20000J0D01*
G01*
X3588700Y5130800D02*
G75*
G03*
X3548700Y5130800I-20000J0D01*
G01*
X3548700Y5130800D02*
G75*
G03*
X3588700Y5130800I20000J0D01*
G01*
X3618390Y2259616D02*
G75*
G03*
X3578390Y2259616I-20000J0D01*
G01*
X3578390Y2259616D02*
G75*
G03*
X3618390Y2259616I20000J0D01*
G01*
X3630028Y1341892D02*
G75*
G03*
X3590028Y1341892I-20000J0D01*
G01*
X3590028Y1341892D02*
G75*
G03*
X3630028Y1341892I20000J0D01*
G01*
X3630568Y1883368D02*
G75*
G03*
X3590568Y1883368I-20000J0D01*
G01*
X3590568Y1883368D02*
G75*
G03*
X3630568Y1883368I20000J0D01*
G01*
X3690300Y5765800D02*
G75*
G03*
X3650300Y5765800I-20000J0D01*
G01*
X3650300Y5765800D02*
G75*
G03*
X3690300Y5765800I20000J0D01*
G01*
X3703000Y3568700D02*
G75*
G03*
X3663000Y3568700I-20000J0D01*
G01*
X3663000Y3568700D02*
G75*
G03*
X3703000Y3568700I20000J0D01*
G01*
X3753800Y2260600D02*
G75*
G03*
X3713800Y2260600I-20000J0D01*
G01*
X3713800Y2260600D02*
G75*
G03*
X3753800Y2260600I20000J0D01*
G01*
X3787843Y4159439D02*
G75*
G03*
X3747843Y4159439I-20000J0D01*
G01*
X3747843Y4159439D02*
G75*
G03*
X3787843Y4159439I20000J0D01*
G01*
X3823170Y2095500D02*
G75*
G03*
X3783170Y2095500I-20000J0D01*
G01*
X3783170Y2095500D02*
G75*
G03*
X3823170Y2095500I20000J0D01*
G01*
X3855400Y4826000D02*
G75*
G03*
X3815400Y4826000I-20000J0D01*
G01*
X3815400Y4826000D02*
G75*
G03*
X3855400Y4826000I20000J0D01*
G01*
X3855400Y4737100D02*
G75*
G03*
X3815400Y4737100I-20000J0D01*
G01*
X3815400Y4737100D02*
G75*
G03*
X3855400Y4737100I20000J0D01*
G01*
X3855400Y4648200D02*
G75*
G03*
X3815400Y4648200I-20000J0D01*
G01*
X3815400Y4648200D02*
G75*
G03*
X3855400Y4648200I20000J0D01*
G01*
X3855400Y4559300D02*
G75*
G03*
X3815400Y4559300I-20000J0D01*
G01*
X3815400Y4559300D02*
G75*
G03*
X3855400Y4559300I20000J0D01*
G01*
X4027358Y3529584D02*
G75*
G03*
X3987358Y3529584I-20000J0D01*
G01*
X3987358Y3529584D02*
G75*
G03*
X4027358Y3529584I20000J0D01*
G01*
X4070184Y5642026D02*
G75*
G03*
X4030184Y5642026I-20000J0D01*
G01*
X4030184Y5642026D02*
G75*
G03*
X4070184Y5642026I20000J0D01*
G01*
X4080000Y4420000D02*
G75*
G03*
X4040000Y4420000I-20000J0D01*
G01*
X4040000Y4420000D02*
G75*
G03*
X4080000Y4420000I20000J0D01*
G01*
X4152000Y3525000D02*
G75*
G03*
X4112000Y3525000I-20000J0D01*
G01*
X4112000Y3525000D02*
G75*
G03*
X4152000Y3525000I20000J0D01*
G01*
X4312600Y1930400D02*
G75*
G03*
X4272600Y1930400I-20000J0D01*
G01*
X4272600Y1930400D02*
G75*
G03*
X4312600Y1930400I20000J0D01*
G01*
X4353240Y2418080D02*
G75*
G03*
X4313240Y2418080I-20000J0D01*
G01*
X4313240Y2418080D02*
G75*
G03*
X4353240Y2418080I20000J0D01*
G01*
X4369520Y1803400D02*
G75*
G03*
X4329520Y1803400I-20000J0D01*
G01*
X4329520Y1803400D02*
G75*
G03*
X4369520Y1803400I20000J0D01*
G01*
X4404040Y2219960D02*
G75*
G03*
X4364040Y2219960I-20000J0D01*
G01*
X4364040Y2219960D02*
G75*
G03*
X4404040Y2219960I20000J0D01*
G01*
X19000Y5059500D02*
X19000Y4994500D01*
X-13500Y5027000D02*
X51500Y5027000D01*
X19000Y4932500D02*
X19000Y4867500D01*
X-13500Y4900000D02*
X51500Y4900000D01*
X146000Y5059500D02*
X146000Y4994500D01*
X113500Y5027000D02*
X178500Y5027000D01*
X146000Y4932500D02*
X146000Y4867500D01*
X113500Y4900000D02*
X178500Y4900000D01*
X273000Y5059500D02*
X273000Y4994500D01*
X240500Y5027000D02*
X305500Y5027000D01*
X273000Y4932500D02*
X273000Y4867500D01*
X240500Y4900000D02*
X305500Y4900000D01*
X400000Y5059500D02*
X400000Y4994500D01*
X367500Y5027000D02*
X432500Y5027000D01*
X400000Y4932500D02*
X400000Y4867500D01*
X367500Y4900000D02*
X432500Y4900000D01*
X527000Y5059500D02*
X527000Y4994500D01*
X494500Y5027000D02*
X559500Y5027000D01*
X527000Y4932500D02*
X527000Y4867500D01*
X494500Y4900000D02*
X559500Y4900000D01*
X855000Y6072500D02*
X855000Y6007500D01*
X822500Y6040000D02*
X887500Y6040000D01*
X982000Y6072500D02*
X982000Y6007500D01*
X949500Y6040000D02*
X1014500Y6040000D01*
X1109000Y6072500D02*
X1109000Y6007500D01*
X1076500Y6040000D02*
X1141500Y6040000D01*
X1236000Y6072500D02*
X1236000Y6007500D01*
X1203500Y6040000D02*
X1268500Y6040000D01*
X2125000Y6072500D02*
X2125000Y6007500D01*
X2092500Y6040000D02*
X2157500Y6040000D01*
X2252000Y6072500D02*
X2252000Y6007500D01*
X2219500Y6040000D02*
X2284500Y6040000D01*
X2379000Y6072500D02*
X2379000Y6007500D01*
X2346500Y6040000D02*
X2411500Y6040000D01*
X2506000Y6072500D02*
X2506000Y6007500D01*
X2473500Y6040000D02*
X2538500Y6040000D01*
X2633000Y6072500D02*
X2633000Y6007500D01*
X2600500Y6040000D02*
X2665500Y6040000D01*
X2760000Y6072500D02*
X2760000Y6007500D01*
X2727500Y6040000D02*
X2792500Y6040000D01*
X219749Y5584751D02*
X219749Y5634249D01*
X170251Y5634249D01*
X170251Y5584751D01*
X219749Y5584751D01*
X219749Y5457751D02*
X219749Y5507249D01*
X170251Y5507249D01*
X170251Y5457751D01*
X219749Y5457751D01*
X219749Y5330751D02*
X219749Y5380249D01*
X170251Y5380249D01*
X170251Y5330751D01*
X219749Y5330751D01*
X219749Y5203751D02*
X219749Y5253249D01*
X170251Y5253249D01*
X170251Y5203751D01*
X219749Y5203751D01*
X219749Y3425751D02*
X219749Y3475249D01*
X170251Y3475249D01*
X170251Y3425751D01*
X219749Y3425751D01*
X219749Y3298751D02*
X219749Y3348249D01*
X170251Y3348249D01*
X170251Y3298751D01*
X219749Y3298751D01*
X219749Y3171751D02*
X219749Y3221249D01*
X170251Y3221249D01*
X170251Y3171751D01*
X219749Y3171751D01*
X219749Y3044751D02*
X219749Y3094249D01*
X170251Y3094249D01*
X170251Y3044751D01*
X219749Y3044751D01*
X219749Y2917751D02*
X219749Y2967249D01*
X170251Y2967249D01*
X170251Y2917751D01*
X219749Y2917751D01*
X219749Y2790751D02*
X219749Y2840249D01*
X170251Y2840249D01*
X170251Y2790751D01*
X219749Y2790751D01*
X219749Y2663751D02*
X219749Y2713249D01*
X170251Y2713249D01*
X170251Y2663751D01*
X219749Y2663751D01*
X219749Y2536751D02*
X219749Y2586249D01*
X170251Y2586249D01*
X170251Y2536751D01*
X219749Y2536751D01*
X219749Y2409751D02*
X219749Y2459249D01*
X170251Y2459249D01*
X170251Y2409751D01*
X219749Y2409751D01*
X219749Y1647751D02*
X219749Y1697249D01*
X170251Y1697249D01*
X170251Y1647751D01*
X219749Y1647751D01*
X219749Y1520751D02*
X219749Y1570249D01*
X170251Y1570249D01*
X170251Y1520751D01*
X219749Y1520751D01*
X219749Y1393751D02*
X219749Y1443249D01*
X170251Y1443249D01*
X170251Y1393751D01*
X219749Y1393751D01*
X219749Y1266751D02*
X219749Y1316249D01*
X170251Y1316249D01*
X170251Y1266751D01*
X219749Y1266751D01*
X219749Y1139751D02*
X219749Y1189249D01*
X170251Y1189249D01*
X170251Y1139751D01*
X219749Y1139751D01*
X219749Y1012751D02*
X219749Y1062249D01*
X170251Y1062249D01*
X170251Y1012751D01*
X219749Y1012751D01*
X219749Y885751D02*
X219749Y935249D01*
X170251Y935249D01*
X170251Y885751D01*
X219749Y885751D01*
X219749Y758751D02*
X219749Y808249D01*
X170251Y808249D01*
X170251Y758751D01*
X219749Y758751D01*
X219749Y631751D02*
X219749Y681249D01*
X170251Y681249D01*
X170251Y631751D01*
X219749Y631751D01*
X456000Y3283500D02*
X496000Y3323500D01*
X456000Y3363500D01*
X416000Y3323500D01*
X456000Y3283500D01*
X456000Y3029500D02*
X496000Y3069500D01*
X456000Y3109500D01*
X416000Y3069500D01*
X456000Y3029500D01*
X456000Y2775500D02*
X496000Y2815500D01*
X456000Y2855500D01*
X416000Y2815500D01*
X456000Y2775500D01*
X456000Y2521500D02*
X496000Y2561500D01*
X456000Y2601500D01*
X416000Y2561500D01*
X456000Y2521500D01*
X456000Y2267500D02*
X496000Y2307500D01*
X456000Y2347500D01*
X416000Y2307500D01*
X456000Y2267500D01*
X456000Y2013500D02*
X496000Y2053500D01*
X456000Y2093500D01*
X416000Y2053500D01*
X456000Y2013500D01*
X456000Y1759500D02*
X496000Y1799500D01*
X456000Y1839500D01*
X416000Y1799500D01*
X456000Y1759500D01*
X456000Y1505500D02*
X496000Y1545500D01*
X456000Y1585500D01*
X416000Y1545500D01*
X456000Y1505500D01*
X456000Y1251500D02*
X496000Y1291500D01*
X456000Y1331500D01*
X416000Y1291500D01*
X456000Y1251500D01*
X456000Y997500D02*
X496000Y1037500D01*
X456000Y1077500D01*
X416000Y1037500D01*
X456000Y997500D01*
X456000Y743500D02*
X496000Y783500D01*
X456000Y823500D01*
X416000Y783500D01*
X456000Y743500D01*
X456000Y489500D02*
X496000Y529500D01*
X456000Y569500D01*
X416000Y529500D01*
X456000Y489500D01*
X571000Y-250000D02*
X611000Y-210000D01*
X571000Y-170000D01*
X531000Y-210000D01*
X571000Y-250000D01*
X710000Y2267500D02*
X750000Y2307500D01*
X710000Y2347500D01*
X670000Y2307500D01*
X710000Y2267500D01*
X710000Y2013500D02*
X750000Y2053500D01*
X710000Y2093500D01*
X670000Y2053500D01*
X710000Y2013500D01*
X710000Y1759500D02*
X750000Y1799500D01*
X710000Y1839500D01*
X670000Y1799500D01*
X710000Y1759500D01*
X710000Y1505500D02*
X750000Y1545500D01*
X710000Y1585500D01*
X670000Y1545500D01*
X710000Y1505500D01*
X710000Y1251500D02*
X750000Y1291500D01*
X710000Y1331500D01*
X670000Y1291500D01*
X710000Y1251500D01*
X710000Y997500D02*
X750000Y1037500D01*
X710000Y1077500D01*
X670000Y1037500D01*
X710000Y997500D01*
X710000Y743500D02*
X750000Y783500D01*
X710000Y823500D01*
X670000Y783500D01*
X710000Y743500D01*
X710000Y489500D02*
X750000Y529500D01*
X710000Y569500D01*
X670000Y529500D01*
X710000Y489500D01*
X825000Y-250000D02*
X865000Y-210000D01*
X825000Y-170000D01*
X785000Y-210000D01*
X825000Y-250000D01*
X1079000Y-250000D02*
X1119000Y-210000D01*
X1079000Y-170000D01*
X1039000Y-210000D01*
X1079000Y-250000D01*
X2629000Y-207000D02*
X2669000Y-167000D01*
X2629000Y-127000D01*
X2589000Y-167000D01*
X2629000Y-207000D01*
X2883000Y-207000D02*
X2923000Y-167000D01*
X2883000Y-127000D01*
X2843000Y-167000D01*
X2883000Y-207000D01*
X3912800Y6284000D02*
X3952800Y6324000D01*
X3912800Y6364000D01*
X3872800Y6324000D01*
X3912800Y6284000D01*
X3912800Y6030000D02*
X3952800Y6070000D01*
X3912800Y6110000D01*
X3872800Y6070000D01*
X3912800Y6030000D01*
X3912800Y5776000D02*
X3952800Y5816000D01*
X3912800Y5856000D01*
X3872800Y5816000D01*
X3912800Y5776000D01*
X3912800Y5522000D02*
X3952800Y5562000D01*
X3912800Y5602000D01*
X3872800Y5562000D01*
X3912800Y5522000D01*
X3957000Y3283500D02*
X3997000Y3323500D01*
X3957000Y3363500D01*
X3917000Y3323500D01*
X3957000Y3283500D01*
X3957000Y3029500D02*
X3997000Y3069500D01*
X3957000Y3109500D01*
X3917000Y3069500D01*
X3957000Y3029500D01*
X3957000Y2775500D02*
X3997000Y2815500D01*
X3957000Y2855500D01*
X3917000Y2815500D01*
X3957000Y2775500D01*
X3957000Y2521500D02*
X3997000Y2561500D01*
X3957000Y2601500D01*
X3917000Y2561500D01*
X3957000Y2521500D01*
X3957000Y2267500D02*
X3997000Y2307500D01*
X3957000Y2347500D01*
X3917000Y2307500D01*
X3957000Y2267500D01*
X3957000Y2013500D02*
X3997000Y2053500D01*
X3957000Y2093500D01*
X3917000Y2053500D01*
X3957000Y2013500D01*
X3957000Y1759500D02*
X3997000Y1799500D01*
X3957000Y1839500D01*
X3917000Y1799500D01*
X3957000Y1759500D01*
X3957000Y1505500D02*
X3997000Y1545500D01*
X3957000Y1585500D01*
X3917000Y1545500D01*
X3957000Y1505500D01*
X3957000Y1251500D02*
X3997000Y1291500D01*
X3957000Y1331500D01*
X3917000Y1291500D01*
X3957000Y1251500D01*
X3957000Y997500D02*
X3997000Y1037500D01*
X3957000Y1077500D01*
X3917000Y1037500D01*
X3957000Y997500D01*
X3957000Y743500D02*
X3997000Y783500D01*
X3957000Y823500D01*
X3917000Y783500D01*
X3957000Y743500D01*
X3957000Y489500D02*
X3997000Y529500D01*
X3957000Y569500D01*
X3917000Y529500D01*
X3957000Y489500D01*
X4211000Y3283500D02*
X4251000Y3323500D01*
X4211000Y3363500D01*
X4171000Y3323500D01*
X4211000Y3283500D01*
X4211000Y3029500D02*
X4251000Y3069500D01*
X4211000Y3109500D01*
X4171000Y3069500D01*
X4211000Y3029500D01*
X4211000Y2775500D02*
X4251000Y2815500D01*
X4211000Y2855500D01*
X4171000Y2815500D01*
X4211000Y2775500D01*
X4211000Y2521500D02*
X4251000Y2561500D01*
X4211000Y2601500D01*
X4171000Y2561500D01*
X4211000Y2521500D01*
X4211000Y2267500D02*
X4251000Y2307500D01*
X4211000Y2347500D01*
X4171000Y2307500D01*
X4211000Y2267500D01*
X4211000Y2013500D02*
X4251000Y2053500D01*
X4211000Y2093500D01*
X4171000Y2053500D01*
X4211000Y2013500D01*
X4211000Y1759500D02*
X4251000Y1799500D01*
X4211000Y1839500D01*
X4171000Y1799500D01*
X4211000Y1759500D01*
X4211000Y1505500D02*
X4251000Y1545500D01*
X4211000Y1585500D01*
X4171000Y1545500D01*
X4211000Y1505500D01*
X4211000Y1251500D02*
X4251000Y1291500D01*
X4211000Y1331500D01*
X4171000Y1291500D01*
X4211000Y1251500D01*
X4211000Y997500D02*
X4251000Y1037500D01*
X4211000Y1077500D01*
X4171000Y1037500D01*
X4211000Y997500D01*
X4211000Y743500D02*
X4251000Y783500D01*
X4211000Y823500D01*
X4171000Y783500D01*
X4211000Y743500D01*
X4211000Y489500D02*
X4251000Y529500D01*
X4211000Y569500D01*
X4171000Y529500D01*
X4211000Y489500D01*
D12*
X290000Y4390780D02*
X400000Y4280780D01*
X400000Y4390780D02*
X290000Y4280780D01*
X400000Y4335780D02*
G75*
G03*
X290000Y4335780I-55000J0D01*
G01*
X290000Y4335780D02*
G75*
G03*
X400000Y4335780I55000J0D01*
G01*
D13*
X21000Y4659780D02*
X161000Y4519780D01*
X161000Y4659780D02*
X21000Y4519780D01*
X91000Y4659780D02*
X91000Y4519780D01*
X21000Y4589780D02*
X161000Y4589780D01*
X21000Y4151780D02*
X161000Y4011780D01*
X161000Y4151780D02*
X21000Y4011780D01*
X91000Y4151780D02*
X91000Y4011780D01*
X21000Y4081780D02*
X161000Y4081780D01*
X529000Y4659780D02*
X669000Y4519780D01*
X669000Y4659780D02*
X529000Y4519780D01*
X599000Y4659780D02*
X599000Y4519780D01*
X529000Y4589780D02*
X669000Y4589780D01*
X529000Y4151780D02*
X669000Y4011780D01*
X669000Y4151780D02*
X529000Y4011780D01*
X599000Y4151780D02*
X599000Y4011780D01*
X529000Y4081780D02*
X669000Y4081780D01*
D10*
X-4230Y-716484D02*
X-4230Y-516484D01*
X-4230Y-516484D02*
X43389Y-516484D01*
X43389Y-516484D02*
X71961Y-526008D01*
X71961Y-526008D02*
X91008Y-545055D01*
X91008Y-545055D02*
X100532Y-564103D01*
X100532Y-564103D02*
X110056Y-602198D01*
X110056Y-602198D02*
X110056Y-630770D01*
X110056Y-630770D02*
X100532Y-668865D01*
X100532Y-668865D02*
X91008Y-687912D01*
X91008Y-687912D02*
X71961Y-706960D01*
X71961Y-706960D02*
X43389Y-716484D01*
X43389Y-716484D02*
X-4230Y-716484D01*
X195770Y-716484D02*
X195770Y-583150D01*
X195770Y-621246D02*
X205294Y-602198D01*
X205294Y-602198D02*
X214818Y-592674D01*
X214818Y-592674D02*
X233865Y-583150D01*
X233865Y-583150D02*
X252913Y-583150D01*
X319580Y-716484D02*
X319580Y-583150D01*
X319580Y-516484D02*
X310056Y-526008D01*
X310056Y-526008D02*
X319580Y-535531D01*
X319580Y-535531D02*
X329103Y-526008D01*
X329103Y-526008D02*
X319580Y-516484D01*
X319580Y-516484D02*
X319580Y-535531D01*
X443389Y-716484D02*
X424341Y-706960D01*
X424341Y-706960D02*
X414818Y-687912D01*
X414818Y-687912D02*
X414818Y-516484D01*
X548151Y-716484D02*
X529103Y-706960D01*
X529103Y-706960D02*
X519579Y-687912D01*
X519579Y-687912D02*
X519579Y-516484D01*
X776722Y-716484D02*
X776722Y-516484D01*
X776722Y-516484D02*
X843389Y-659341D01*
X843389Y-659341D02*
X910056Y-516484D01*
X910056Y-516484D02*
X910056Y-716484D01*
X1091008Y-716484D02*
X1091008Y-611722D01*
X1091008Y-611722D02*
X1081484Y-592674D01*
X1081484Y-592674D02*
X1062437Y-583150D01*
X1062437Y-583150D02*
X1024341Y-583150D01*
X1024341Y-583150D02*
X1005294Y-592674D01*
X1091008Y-706960D02*
X1071961Y-716484D01*
X1071961Y-716484D02*
X1024341Y-716484D01*
X1024341Y-716484D02*
X1005294Y-706960D01*
X1005294Y-706960D02*
X995770Y-687912D01*
X995770Y-687912D02*
X995770Y-668865D01*
X995770Y-668865D02*
X1005294Y-649817D01*
X1005294Y-649817D02*
X1024341Y-640293D01*
X1024341Y-640293D02*
X1071961Y-640293D01*
X1071961Y-640293D02*
X1091008Y-630770D01*
X1186246Y-583150D02*
X1186246Y-783150D01*
X1186246Y-592674D02*
X1205294Y-583150D01*
X1205294Y-583150D02*
X1243389Y-583150D01*
X1243389Y-583150D02*
X1262437Y-592674D01*
X1262437Y-592674D02*
X1271961Y-602198D01*
X1271961Y-602198D02*
X1281484Y-621246D01*
X1281484Y-621246D02*
X1281484Y-678389D01*
X1281484Y-678389D02*
X1271961Y-697436D01*
X1271961Y-697436D02*
X1262437Y-706960D01*
X1262437Y-706960D02*
X1243389Y-716484D01*
X1243389Y-716484D02*
X1205294Y-716484D01*
X1205294Y-716484D02*
X1186246Y-706960D01*
X1367199Y-697436D02*
X1376722Y-706960D01*
X1376722Y-706960D02*
X1367199Y-716484D01*
X1367199Y-716484D02*
X1357675Y-706960D01*
X1357675Y-706960D02*
X1367199Y-697436D01*
X1367199Y-697436D02*
X1367199Y-716484D01*
X1367199Y-592674D02*
X1376722Y-602198D01*
X1376722Y-602198D02*
X1367199Y-611722D01*
X1367199Y-611722D02*
X1357675Y-602198D01*
X1357675Y-602198D02*
X1367199Y-592674D01*
X1367199Y-592674D02*
X1367199Y-611722D01*
D11*
X-295007Y-1030000D02*
X-265007Y-1060000D01*
X-265007Y-1030000D02*
X-295007Y-1060000D01*
D10*
X33865Y-936484D02*
X52913Y-936484D01*
X52913Y-936484D02*
X71961Y-946008D01*
X71961Y-946008D02*
X81484Y-955531D01*
X81484Y-955531D02*
X91008Y-974579D01*
X91008Y-974579D02*
X100532Y-1012674D01*
X100532Y-1012674D02*
X100532Y-1060293D01*
X100532Y-1060293D02*
X91008Y-1098389D01*
X91008Y-1098389D02*
X81484Y-1117436D01*
X81484Y-1117436D02*
X71961Y-1126960D01*
X71961Y-1126960D02*
X52913Y-1136484D01*
X52913Y-1136484D02*
X33865Y-1136484D01*
X33865Y-1136484D02*
X14818Y-1126960D01*
X14818Y-1126960D02*
X5294Y-1117436D01*
X5294Y-1117436D02*
X-4230Y-1098389D01*
X-4230Y-1098389D02*
X-13754Y-1060293D01*
X-13754Y-1060293D02*
X-13754Y-1012674D01*
X-13754Y-1012674D02*
X-4230Y-974579D01*
X-4230Y-974579D02*
X5294Y-955531D01*
X5294Y-955531D02*
X14818Y-946008D01*
X14818Y-946008D02*
X33865Y-936484D01*
X186246Y-1117436D02*
X195770Y-1126960D01*
X195770Y-1126960D02*
X186246Y-1136484D01*
X186246Y-1136484D02*
X176722Y-1126960D01*
X176722Y-1126960D02*
X186246Y-1117436D01*
X186246Y-1117436D02*
X186246Y-1136484D01*
X262437Y-936484D02*
X386246Y-936484D01*
X386246Y-936484D02*
X319580Y-1012674D01*
X319580Y-1012674D02*
X348151Y-1012674D01*
X348151Y-1012674D02*
X367199Y-1022198D01*
X367199Y-1022198D02*
X376722Y-1031722D01*
X376722Y-1031722D02*
X386246Y-1050770D01*
X386246Y-1050770D02*
X386246Y-1098389D01*
X386246Y-1098389D02*
X376722Y-1117436D01*
X376722Y-1117436D02*
X367199Y-1126960D01*
X367199Y-1126960D02*
X348151Y-1136484D01*
X348151Y-1136484D02*
X291008Y-1136484D01*
X291008Y-1136484D02*
X271961Y-1126960D01*
X271961Y-1126960D02*
X262437Y-1117436D01*
X510056Y-936484D02*
X529103Y-936484D01*
X529103Y-936484D02*
X548151Y-946008D01*
X548151Y-946008D02*
X557675Y-955531D01*
X557675Y-955531D02*
X567199Y-974579D01*
X567199Y-974579D02*
X576722Y-1012674D01*
X576722Y-1012674D02*
X576722Y-1060293D01*
X576722Y-1060293D02*
X567199Y-1098389D01*
X567199Y-1098389D02*
X557675Y-1117436D01*
X557675Y-1117436D02*
X548151Y-1126960D01*
X548151Y-1126960D02*
X529103Y-1136484D01*
X529103Y-1136484D02*
X510056Y-1136484D01*
X510056Y-1136484D02*
X491008Y-1126960D01*
X491008Y-1126960D02*
X481484Y-1117436D01*
X481484Y-1117436D02*
X471960Y-1098389D01*
X471960Y-1098389D02*
X462437Y-1060293D01*
X462437Y-1060293D02*
X462437Y-1012674D01*
X462437Y-1012674D02*
X471960Y-974579D01*
X471960Y-974579D02*
X481484Y-955531D01*
X481484Y-955531D02*
X491008Y-946008D01*
X491008Y-946008D02*
X510056Y-936484D01*
X700532Y-936484D02*
X719580Y-936484D01*
X719580Y-936484D02*
X738627Y-946008D01*
X738627Y-946008D02*
X748151Y-955531D01*
X748151Y-955531D02*
X757675Y-974579D01*
X757675Y-974579D02*
X767199Y-1012674D01*
X767199Y-1012674D02*
X767199Y-1060293D01*
X767199Y-1060293D02*
X757675Y-1098389D01*
X757675Y-1098389D02*
X748151Y-1117436D01*
X748151Y-1117436D02*
X738627Y-1126960D01*
X738627Y-1126960D02*
X719580Y-1136484D01*
X719580Y-1136484D02*
X700532Y-1136484D01*
X700532Y-1136484D02*
X681484Y-1126960D01*
X681484Y-1126960D02*
X671961Y-1117436D01*
X671961Y-1117436D02*
X662437Y-1098389D01*
X662437Y-1098389D02*
X652913Y-1060293D01*
X652913Y-1060293D02*
X652913Y-1012674D01*
X652913Y-1012674D02*
X662437Y-974579D01*
X662437Y-974579D02*
X671961Y-955531D01*
X671961Y-955531D02*
X681484Y-946008D01*
X681484Y-946008D02*
X700532Y-936484D01*
X852913Y-1136484D02*
X852913Y-1003150D01*
X852913Y-1022198D02*
X862437Y-1012674D01*
X862437Y-1012674D02*
X881484Y-1003150D01*
X881484Y-1003150D02*
X910056Y-1003150D01*
X910056Y-1003150D02*
X929103Y-1012674D01*
X929103Y-1012674D02*
X938627Y-1031722D01*
X938627Y-1031722D02*
X938627Y-1136484D01*
X938627Y-1031722D02*
X948151Y-1012674D01*
X948151Y-1012674D02*
X967199Y-1003150D01*
X967199Y-1003150D02*
X995770Y-1003150D01*
X995770Y-1003150D02*
X1014818Y-1012674D01*
X1014818Y-1012674D02*
X1024341Y-1031722D01*
X1024341Y-1031722D02*
X1024341Y-1136484D01*
X1119580Y-1136484D02*
X1119580Y-1003150D01*
X1119580Y-1022198D02*
X1129103Y-1012674D01*
X1129103Y-1012674D02*
X1148151Y-1003150D01*
X1148151Y-1003150D02*
X1176723Y-1003150D01*
X1176723Y-1003150D02*
X1195770Y-1012674D01*
X1195770Y-1012674D02*
X1205294Y-1031722D01*
X1205294Y-1031722D02*
X1205294Y-1136484D01*
X1205294Y-1031722D02*
X1214818Y-1012674D01*
X1214818Y-1012674D02*
X1233865Y-1003150D01*
X1233865Y-1003150D02*
X1262437Y-1003150D01*
X1262437Y-1003150D02*
X1281484Y-1012674D01*
X1281484Y-1012674D02*
X1291008Y-1031722D01*
X1291008Y-1031722D02*
X1291008Y-1136484D01*
X1681484Y-926960D02*
X1510056Y-1184103D01*
X1938627Y-936484D02*
X1957675Y-936484D01*
X1957675Y-936484D02*
X1976723Y-946008D01*
X1976723Y-946008D02*
X1986246Y-955531D01*
X1986246Y-955531D02*
X1995770Y-974579D01*
X1995770Y-974579D02*
X2005294Y-1012674D01*
X2005294Y-1012674D02*
X2005294Y-1060293D01*
X2005294Y-1060293D02*
X1995770Y-1098389D01*
X1995770Y-1098389D02*
X1986246Y-1117436D01*
X1986246Y-1117436D02*
X1976723Y-1126960D01*
X1976723Y-1126960D02*
X1957675Y-1136484D01*
X1957675Y-1136484D02*
X1938627Y-1136484D01*
X1938627Y-1136484D02*
X1919580Y-1126960D01*
X1919580Y-1126960D02*
X1910056Y-1117436D01*
X1910056Y-1117436D02*
X1900532Y-1098389D01*
X1900532Y-1098389D02*
X1891008Y-1060293D01*
X1891008Y-1060293D02*
X1891008Y-1012674D01*
X1891008Y-1012674D02*
X1900532Y-974579D01*
X1900532Y-974579D02*
X1910056Y-955531D01*
X1910056Y-955531D02*
X1919580Y-946008D01*
X1919580Y-946008D02*
X1938627Y-936484D01*
X2091008Y-1117436D02*
X2100532Y-1126960D01*
X2100532Y-1126960D02*
X2091008Y-1136484D01*
X2091008Y-1136484D02*
X2081484Y-1126960D01*
X2081484Y-1126960D02*
X2091008Y-1117436D01*
X2091008Y-1117436D02*
X2091008Y-1136484D01*
X2224342Y-936484D02*
X2243389Y-936484D01*
X2243389Y-936484D02*
X2262437Y-946008D01*
X2262437Y-946008D02*
X2271961Y-955531D01*
X2271961Y-955531D02*
X2281485Y-974579D01*
X2281485Y-974579D02*
X2291008Y-1012674D01*
X2291008Y-1012674D02*
X2291008Y-1060293D01*
X2291008Y-1060293D02*
X2281485Y-1098389D01*
X2281485Y-1098389D02*
X2271961Y-1117436D01*
X2271961Y-1117436D02*
X2262437Y-1126960D01*
X2262437Y-1126960D02*
X2243389Y-1136484D01*
X2243389Y-1136484D02*
X2224342Y-1136484D01*
X2224342Y-1136484D02*
X2205294Y-1126960D01*
X2205294Y-1126960D02*
X2195770Y-1117436D01*
X2195770Y-1117436D02*
X2186246Y-1098389D01*
X2186246Y-1098389D02*
X2176723Y-1060293D01*
X2176723Y-1060293D02*
X2176723Y-1012674D01*
X2176723Y-1012674D02*
X2186246Y-974579D01*
X2186246Y-974579D02*
X2195770Y-955531D01*
X2195770Y-955531D02*
X2205294Y-946008D01*
X2205294Y-946008D02*
X2224342Y-936484D01*
X2481485Y-1136484D02*
X2367199Y-1136484D01*
X2424342Y-1136484D02*
X2424342Y-936484D01*
X2424342Y-936484D02*
X2405294Y-965055D01*
X2405294Y-965055D02*
X2386246Y-984103D01*
X2386246Y-984103D02*
X2367199Y-993627D01*
X2671961Y-1136484D02*
X2557675Y-1136484D01*
X2614818Y-1136484D02*
X2614818Y-936484D01*
X2614818Y-936484D02*
X2595770Y-965055D01*
X2595770Y-965055D02*
X2576723Y-984103D01*
X2576723Y-984103D02*
X2557675Y-993627D01*
X2786246Y-1022198D02*
X2767199Y-1012674D01*
X2767199Y-1012674D02*
X2757675Y-1003150D01*
X2757675Y-1003150D02*
X2748151Y-984103D01*
X2748151Y-984103D02*
X2748151Y-974579D01*
X2748151Y-974579D02*
X2757675Y-955531D01*
X2757675Y-955531D02*
X2767199Y-946008D01*
X2767199Y-946008D02*
X2786246Y-936484D01*
X2786246Y-936484D02*
X2824342Y-936484D01*
X2824342Y-936484D02*
X2843389Y-946008D01*
X2843389Y-946008D02*
X2852913Y-955531D01*
X2852913Y-955531D02*
X2862437Y-974579D01*
X2862437Y-974579D02*
X2862437Y-984103D01*
X2862437Y-984103D02*
X2852913Y-1003150D01*
X2852913Y-1003150D02*
X2843389Y-1012674D01*
X2843389Y-1012674D02*
X2824342Y-1022198D01*
X2824342Y-1022198D02*
X2786246Y-1022198D01*
X2786246Y-1022198D02*
X2767199Y-1031722D01*
X2767199Y-1031722D02*
X2757675Y-1041246D01*
X2757675Y-1041246D02*
X2748151Y-1060293D01*
X2748151Y-1060293D02*
X2748151Y-1098389D01*
X2748151Y-1098389D02*
X2757675Y-1117436D01*
X2757675Y-1117436D02*
X2767199Y-1126960D01*
X2767199Y-1126960D02*
X2786246Y-1136484D01*
X2786246Y-1136484D02*
X2824342Y-1136484D01*
X2824342Y-1136484D02*
X2843389Y-1126960D01*
X2843389Y-1126960D02*
X2852913Y-1117436D01*
X2852913Y-1117436D02*
X2862437Y-1098389D01*
X2862437Y-1098389D02*
X2862437Y-1060293D01*
X2862437Y-1060293D02*
X2852913Y-1041246D01*
X2852913Y-1041246D02*
X2843389Y-1031722D01*
X2843389Y-1031722D02*
X2824342Y-1022198D01*
X2938627Y-936484D02*
X2938627Y-974579D01*
X3014818Y-936484D02*
X3014818Y-974579D01*
X3310056Y-1212674D02*
X3300532Y-1203150D01*
X3300532Y-1203150D02*
X3281485Y-1174579D01*
X3281485Y-1174579D02*
X3271961Y-1155531D01*
X3271961Y-1155531D02*
X3262437Y-1126960D01*
X3262437Y-1126960D02*
X3252913Y-1079341D01*
X3252913Y-1079341D02*
X3252913Y-1041246D01*
X3252913Y-1041246D02*
X3262437Y-993627D01*
X3262437Y-993627D02*
X3271961Y-965055D01*
X3271961Y-965055D02*
X3281485Y-946008D01*
X3281485Y-946008D02*
X3300532Y-917436D01*
X3300532Y-917436D02*
X3310056Y-907912D01*
X3491008Y-1136484D02*
X3376723Y-1136484D01*
X3433865Y-1136484D02*
X3433865Y-936484D01*
X3433865Y-936484D02*
X3414818Y-965055D01*
X3414818Y-965055D02*
X3395770Y-984103D01*
X3395770Y-984103D02*
X3376723Y-993627D01*
X3586246Y-1136484D02*
X3624342Y-1136484D01*
X3624342Y-1136484D02*
X3643389Y-1126960D01*
X3643389Y-1126960D02*
X3652913Y-1117436D01*
X3652913Y-1117436D02*
X3671961Y-1088865D01*
X3671961Y-1088865D02*
X3681485Y-1050770D01*
X3681485Y-1050770D02*
X3681485Y-974579D01*
X3681485Y-974579D02*
X3671961Y-955531D01*
X3671961Y-955531D02*
X3662437Y-946008D01*
X3662437Y-946008D02*
X3643389Y-936484D01*
X3643389Y-936484D02*
X3605294Y-936484D01*
X3605294Y-936484D02*
X3586246Y-946008D01*
X3586246Y-946008D02*
X3576723Y-955531D01*
X3576723Y-955531D02*
X3567199Y-974579D01*
X3567199Y-974579D02*
X3567199Y-1022198D01*
X3567199Y-1022198D02*
X3576723Y-1041246D01*
X3576723Y-1041246D02*
X3586246Y-1050770D01*
X3586246Y-1050770D02*
X3605294Y-1060293D01*
X3605294Y-1060293D02*
X3643389Y-1060293D01*
X3643389Y-1060293D02*
X3662437Y-1050770D01*
X3662437Y-1050770D02*
X3671961Y-1041246D01*
X3671961Y-1041246D02*
X3681485Y-1022198D01*
X3852913Y-1003150D02*
X3852913Y-1136484D01*
X3805294Y-926960D02*
X3757675Y-1069817D01*
X3757675Y-1069817D02*
X3881485Y-1069817D01*
X4110056Y-1136484D02*
X4110056Y-936484D01*
X4195770Y-1136484D02*
X4195770Y-1031722D01*
X4195770Y-1031722D02*
X4186247Y-1012674D01*
X4186247Y-1012674D02*
X4167199Y-1003150D01*
X4167199Y-1003150D02*
X4138627Y-1003150D01*
X4138627Y-1003150D02*
X4119580Y-1012674D01*
X4119580Y-1012674D02*
X4110056Y-1022198D01*
X4319580Y-1136484D02*
X4300532Y-1126960D01*
X4300532Y-1126960D02*
X4291009Y-1117436D01*
X4291009Y-1117436D02*
X4281485Y-1098389D01*
X4281485Y-1098389D02*
X4281485Y-1041246D01*
X4281485Y-1041246D02*
X4291009Y-1022198D01*
X4291009Y-1022198D02*
X4300532Y-1012674D01*
X4300532Y-1012674D02*
X4319580Y-1003150D01*
X4319580Y-1003150D02*
X4348151Y-1003150D01*
X4348151Y-1003150D02*
X4367199Y-1012674D01*
X4367199Y-1012674D02*
X4376723Y-1022198D01*
X4376723Y-1022198D02*
X4386247Y-1041246D01*
X4386247Y-1041246D02*
X4386247Y-1098389D01*
X4386247Y-1098389D02*
X4376723Y-1117436D01*
X4376723Y-1117436D02*
X4367199Y-1126960D01*
X4367199Y-1126960D02*
X4348151Y-1136484D01*
X4348151Y-1136484D02*
X4319580Y-1136484D01*
X4500532Y-1136484D02*
X4481485Y-1126960D01*
X4481485Y-1126960D02*
X4471961Y-1107912D01*
X4471961Y-1107912D02*
X4471961Y-936484D01*
X4652913Y-1126960D02*
X4633866Y-1136484D01*
X4633866Y-1136484D02*
X4595770Y-1136484D01*
X4595770Y-1136484D02*
X4576723Y-1126960D01*
X4576723Y-1126960D02*
X4567199Y-1107912D01*
X4567199Y-1107912D02*
X4567199Y-1031722D01*
X4567199Y-1031722D02*
X4576723Y-1012674D01*
X4576723Y-1012674D02*
X4595770Y-1003150D01*
X4595770Y-1003150D02*
X4633866Y-1003150D01*
X4633866Y-1003150D02*
X4652913Y-1012674D01*
X4652913Y-1012674D02*
X4662437Y-1031722D01*
X4662437Y-1031722D02*
X4662437Y-1050770D01*
X4662437Y-1050770D02*
X4567199Y-1069817D01*
X4738628Y-1126960D02*
X4757675Y-1136484D01*
X4757675Y-1136484D02*
X4795770Y-1136484D01*
X4795770Y-1136484D02*
X4814818Y-1126960D01*
X4814818Y-1126960D02*
X4824342Y-1107912D01*
X4824342Y-1107912D02*
X4824342Y-1098389D01*
X4824342Y-1098389D02*
X4814818Y-1079341D01*
X4814818Y-1079341D02*
X4795770Y-1069817D01*
X4795770Y-1069817D02*
X4767199Y-1069817D01*
X4767199Y-1069817D02*
X4748151Y-1060293D01*
X4748151Y-1060293D02*
X4738628Y-1041246D01*
X4738628Y-1041246D02*
X4738628Y-1031722D01*
X4738628Y-1031722D02*
X4748151Y-1012674D01*
X4748151Y-1012674D02*
X4767199Y-1003150D01*
X4767199Y-1003150D02*
X4795770Y-1003150D01*
X4795770Y-1003150D02*
X4814818Y-1012674D01*
X4891009Y-1212674D02*
X4900532Y-1203150D01*
X4900532Y-1203150D02*
X4919580Y-1174579D01*
X4919580Y-1174579D02*
X4929104Y-1155531D01*
X4929104Y-1155531D02*
X4938628Y-1126960D01*
X4938628Y-1126960D02*
X4948151Y-1079341D01*
X4948151Y-1079341D02*
X4948151Y-1041246D01*
X4948151Y-1041246D02*
X4938628Y-993627D01*
X4938628Y-993627D02*
X4929104Y-965055D01*
X4929104Y-965055D02*
X4919580Y-946008D01*
X4919580Y-946008D02*
X4900532Y-917436D01*
X4900532Y-917436D02*
X4891009Y-907912D01*
D11*
X-265007Y-1309000D02*
G75*
G03*
X-305007Y-1309000I-20000J0D01*
G01*
X-305007Y-1309000D02*
G75*
G03*
X-265007Y-1309000I20000J0D01*
G01*
D10*
X33865Y-1200484D02*
X52913Y-1200484D01*
X52913Y-1200484D02*
X71961Y-1210008D01*
X71961Y-1210008D02*
X81484Y-1219531D01*
X81484Y-1219531D02*
X91008Y-1238579D01*
X91008Y-1238579D02*
X100532Y-1276674D01*
X100532Y-1276674D02*
X100532Y-1324293D01*
X100532Y-1324293D02*
X91008Y-1362389D01*
X91008Y-1362389D02*
X81484Y-1381436D01*
X81484Y-1381436D02*
X71961Y-1390960D01*
X71961Y-1390960D02*
X52913Y-1400484D01*
X52913Y-1400484D02*
X33865Y-1400484D01*
X33865Y-1400484D02*
X14818Y-1390960D01*
X14818Y-1390960D02*
X5294Y-1381436D01*
X5294Y-1381436D02*
X-4230Y-1362389D01*
X-4230Y-1362389D02*
X-13754Y-1324293D01*
X-13754Y-1324293D02*
X-13754Y-1276674D01*
X-13754Y-1276674D02*
X-4230Y-1238579D01*
X-4230Y-1238579D02*
X5294Y-1219531D01*
X5294Y-1219531D02*
X14818Y-1210008D01*
X14818Y-1210008D02*
X33865Y-1200484D01*
X186246Y-1381436D02*
X195770Y-1390960D01*
X195770Y-1390960D02*
X186246Y-1400484D01*
X186246Y-1400484D02*
X176722Y-1390960D01*
X176722Y-1390960D02*
X186246Y-1381436D01*
X186246Y-1381436D02*
X186246Y-1400484D01*
X367199Y-1267150D02*
X367199Y-1400484D01*
X319580Y-1190960D02*
X271961Y-1333817D01*
X271961Y-1333817D02*
X395770Y-1333817D01*
X510056Y-1200484D02*
X529103Y-1200484D01*
X529103Y-1200484D02*
X548151Y-1210008D01*
X548151Y-1210008D02*
X557675Y-1219531D01*
X557675Y-1219531D02*
X567199Y-1238579D01*
X567199Y-1238579D02*
X576722Y-1276674D01*
X576722Y-1276674D02*
X576722Y-1324293D01*
X576722Y-1324293D02*
X567199Y-1362389D01*
X567199Y-1362389D02*
X557675Y-1381436D01*
X557675Y-1381436D02*
X548151Y-1390960D01*
X548151Y-1390960D02*
X529103Y-1400484D01*
X529103Y-1400484D02*
X510056Y-1400484D01*
X510056Y-1400484D02*
X491008Y-1390960D01*
X491008Y-1390960D02*
X481484Y-1381436D01*
X481484Y-1381436D02*
X471960Y-1362389D01*
X471960Y-1362389D02*
X462437Y-1324293D01*
X462437Y-1324293D02*
X462437Y-1276674D01*
X462437Y-1276674D02*
X471960Y-1238579D01*
X471960Y-1238579D02*
X481484Y-1219531D01*
X481484Y-1219531D02*
X491008Y-1210008D01*
X491008Y-1210008D02*
X510056Y-1200484D01*
X700532Y-1200484D02*
X719580Y-1200484D01*
X719580Y-1200484D02*
X738627Y-1210008D01*
X738627Y-1210008D02*
X748151Y-1219531D01*
X748151Y-1219531D02*
X757675Y-1238579D01*
X757675Y-1238579D02*
X767199Y-1276674D01*
X767199Y-1276674D02*
X767199Y-1324293D01*
X767199Y-1324293D02*
X757675Y-1362389D01*
X757675Y-1362389D02*
X748151Y-1381436D01*
X748151Y-1381436D02*
X738627Y-1390960D01*
X738627Y-1390960D02*
X719580Y-1400484D01*
X719580Y-1400484D02*
X700532Y-1400484D01*
X700532Y-1400484D02*
X681484Y-1390960D01*
X681484Y-1390960D02*
X671961Y-1381436D01*
X671961Y-1381436D02*
X662437Y-1362389D01*
X662437Y-1362389D02*
X652913Y-1324293D01*
X652913Y-1324293D02*
X652913Y-1276674D01*
X652913Y-1276674D02*
X662437Y-1238579D01*
X662437Y-1238579D02*
X671961Y-1219531D01*
X671961Y-1219531D02*
X681484Y-1210008D01*
X681484Y-1210008D02*
X700532Y-1200484D01*
X852913Y-1400484D02*
X852913Y-1267150D01*
X852913Y-1286198D02*
X862437Y-1276674D01*
X862437Y-1276674D02*
X881484Y-1267150D01*
X881484Y-1267150D02*
X910056Y-1267150D01*
X910056Y-1267150D02*
X929103Y-1276674D01*
X929103Y-1276674D02*
X938627Y-1295722D01*
X938627Y-1295722D02*
X938627Y-1400484D01*
X938627Y-1295722D02*
X948151Y-1276674D01*
X948151Y-1276674D02*
X967199Y-1267150D01*
X967199Y-1267150D02*
X995770Y-1267150D01*
X995770Y-1267150D02*
X1014818Y-1276674D01*
X1014818Y-1276674D02*
X1024341Y-1295722D01*
X1024341Y-1295722D02*
X1024341Y-1400484D01*
X1119580Y-1400484D02*
X1119580Y-1267150D01*
X1119580Y-1286198D02*
X1129103Y-1276674D01*
X1129103Y-1276674D02*
X1148151Y-1267150D01*
X1148151Y-1267150D02*
X1176723Y-1267150D01*
X1176723Y-1267150D02*
X1195770Y-1276674D01*
X1195770Y-1276674D02*
X1205294Y-1295722D01*
X1205294Y-1295722D02*
X1205294Y-1400484D01*
X1205294Y-1295722D02*
X1214818Y-1276674D01*
X1214818Y-1276674D02*
X1233865Y-1267150D01*
X1233865Y-1267150D02*
X1262437Y-1267150D01*
X1262437Y-1267150D02*
X1281484Y-1276674D01*
X1281484Y-1276674D02*
X1291008Y-1295722D01*
X1291008Y-1295722D02*
X1291008Y-1400484D01*
X1681484Y-1190960D02*
X1510056Y-1448103D01*
X1938627Y-1200484D02*
X1957675Y-1200484D01*
X1957675Y-1200484D02*
X1976723Y-1210008D01*
X1976723Y-1210008D02*
X1986246Y-1219531D01*
X1986246Y-1219531D02*
X1995770Y-1238579D01*
X1995770Y-1238579D02*
X2005294Y-1276674D01*
X2005294Y-1276674D02*
X2005294Y-1324293D01*
X2005294Y-1324293D02*
X1995770Y-1362389D01*
X1995770Y-1362389D02*
X1986246Y-1381436D01*
X1986246Y-1381436D02*
X1976723Y-1390960D01*
X1976723Y-1390960D02*
X1957675Y-1400484D01*
X1957675Y-1400484D02*
X1938627Y-1400484D01*
X1938627Y-1400484D02*
X1919580Y-1390960D01*
X1919580Y-1390960D02*
X1910056Y-1381436D01*
X1910056Y-1381436D02*
X1900532Y-1362389D01*
X1900532Y-1362389D02*
X1891008Y-1324293D01*
X1891008Y-1324293D02*
X1891008Y-1276674D01*
X1891008Y-1276674D02*
X1900532Y-1238579D01*
X1900532Y-1238579D02*
X1910056Y-1219531D01*
X1910056Y-1219531D02*
X1919580Y-1210008D01*
X1919580Y-1210008D02*
X1938627Y-1200484D01*
X2091008Y-1381436D02*
X2100532Y-1390960D01*
X2100532Y-1390960D02*
X2091008Y-1400484D01*
X2091008Y-1400484D02*
X2081484Y-1390960D01*
X2081484Y-1390960D02*
X2091008Y-1381436D01*
X2091008Y-1381436D02*
X2091008Y-1400484D01*
X2224342Y-1200484D02*
X2243389Y-1200484D01*
X2243389Y-1200484D02*
X2262437Y-1210008D01*
X2262437Y-1210008D02*
X2271961Y-1219531D01*
X2271961Y-1219531D02*
X2281485Y-1238579D01*
X2281485Y-1238579D02*
X2291008Y-1276674D01*
X2291008Y-1276674D02*
X2291008Y-1324293D01*
X2291008Y-1324293D02*
X2281485Y-1362389D01*
X2281485Y-1362389D02*
X2271961Y-1381436D01*
X2271961Y-1381436D02*
X2262437Y-1390960D01*
X2262437Y-1390960D02*
X2243389Y-1400484D01*
X2243389Y-1400484D02*
X2224342Y-1400484D01*
X2224342Y-1400484D02*
X2205294Y-1390960D01*
X2205294Y-1390960D02*
X2195770Y-1381436D01*
X2195770Y-1381436D02*
X2186246Y-1362389D01*
X2186246Y-1362389D02*
X2176723Y-1324293D01*
X2176723Y-1324293D02*
X2176723Y-1276674D01*
X2176723Y-1276674D02*
X2186246Y-1238579D01*
X2186246Y-1238579D02*
X2195770Y-1219531D01*
X2195770Y-1219531D02*
X2205294Y-1210008D01*
X2205294Y-1210008D02*
X2224342Y-1200484D01*
X2481485Y-1400484D02*
X2367199Y-1400484D01*
X2424342Y-1400484D02*
X2424342Y-1200484D01*
X2424342Y-1200484D02*
X2405294Y-1229055D01*
X2405294Y-1229055D02*
X2386246Y-1248103D01*
X2386246Y-1248103D02*
X2367199Y-1257627D01*
X2662437Y-1200484D02*
X2567199Y-1200484D01*
X2567199Y-1200484D02*
X2557675Y-1295722D01*
X2557675Y-1295722D02*
X2567199Y-1286198D01*
X2567199Y-1286198D02*
X2586246Y-1276674D01*
X2586246Y-1276674D02*
X2633866Y-1276674D01*
X2633866Y-1276674D02*
X2652913Y-1286198D01*
X2652913Y-1286198D02*
X2662437Y-1295722D01*
X2662437Y-1295722D02*
X2671961Y-1314770D01*
X2671961Y-1314770D02*
X2671961Y-1362389D01*
X2671961Y-1362389D02*
X2662437Y-1381436D01*
X2662437Y-1381436D02*
X2652913Y-1390960D01*
X2652913Y-1390960D02*
X2633866Y-1400484D01*
X2633866Y-1400484D02*
X2586246Y-1400484D01*
X2586246Y-1400484D02*
X2567199Y-1390960D01*
X2567199Y-1390960D02*
X2557675Y-1381436D01*
X2738627Y-1200484D02*
X2871961Y-1200484D01*
X2871961Y-1200484D02*
X2786246Y-1400484D01*
X2938627Y-1200484D02*
X2938627Y-1238579D01*
X3014818Y-1200484D02*
X3014818Y-1238579D01*
X3310056Y-1476674D02*
X3300532Y-1467150D01*
X3300532Y-1467150D02*
X3281485Y-1438579D01*
X3281485Y-1438579D02*
X3271961Y-1419531D01*
X3271961Y-1419531D02*
X3262437Y-1390960D01*
X3262437Y-1390960D02*
X3252913Y-1343341D01*
X3252913Y-1343341D02*
X3252913Y-1305246D01*
X3252913Y-1305246D02*
X3262437Y-1257627D01*
X3262437Y-1257627D02*
X3271961Y-1229055D01*
X3271961Y-1229055D02*
X3281485Y-1210008D01*
X3281485Y-1210008D02*
X3300532Y-1181436D01*
X3300532Y-1181436D02*
X3310056Y-1171912D01*
X3471961Y-1200484D02*
X3433865Y-1200484D01*
X3433865Y-1200484D02*
X3414818Y-1210008D01*
X3414818Y-1210008D02*
X3405294Y-1219531D01*
X3405294Y-1219531D02*
X3386246Y-1248103D01*
X3386246Y-1248103D02*
X3376723Y-1286198D01*
X3376723Y-1286198D02*
X3376723Y-1362389D01*
X3376723Y-1362389D02*
X3386246Y-1381436D01*
X3386246Y-1381436D02*
X3395770Y-1390960D01*
X3395770Y-1390960D02*
X3414818Y-1400484D01*
X3414818Y-1400484D02*
X3452913Y-1400484D01*
X3452913Y-1400484D02*
X3471961Y-1390960D01*
X3471961Y-1390960D02*
X3481485Y-1381436D01*
X3481485Y-1381436D02*
X3491008Y-1362389D01*
X3491008Y-1362389D02*
X3491008Y-1314770D01*
X3491008Y-1314770D02*
X3481485Y-1295722D01*
X3481485Y-1295722D02*
X3471961Y-1286198D01*
X3471961Y-1286198D02*
X3452913Y-1276674D01*
X3452913Y-1276674D02*
X3414818Y-1276674D01*
X3414818Y-1276674D02*
X3395770Y-1286198D01*
X3395770Y-1286198D02*
X3386246Y-1295722D01*
X3386246Y-1295722D02*
X3376723Y-1314770D01*
X3567199Y-1219531D02*
X3576723Y-1210008D01*
X3576723Y-1210008D02*
X3595770Y-1200484D01*
X3595770Y-1200484D02*
X3643389Y-1200484D01*
X3643389Y-1200484D02*
X3662437Y-1210008D01*
X3662437Y-1210008D02*
X3671961Y-1219531D01*
X3671961Y-1219531D02*
X3681485Y-1238579D01*
X3681485Y-1238579D02*
X3681485Y-1257627D01*
X3681485Y-1257627D02*
X3671961Y-1286198D01*
X3671961Y-1286198D02*
X3557675Y-1400484D01*
X3557675Y-1400484D02*
X3681485Y-1400484D01*
X3919580Y-1400484D02*
X3919580Y-1200484D01*
X4005294Y-1400484D02*
X4005294Y-1295722D01*
X4005294Y-1295722D02*
X3995770Y-1276674D01*
X3995770Y-1276674D02*
X3976723Y-1267150D01*
X3976723Y-1267150D02*
X3948151Y-1267150D01*
X3948151Y-1267150D02*
X3929104Y-1276674D01*
X3929104Y-1276674D02*
X3919580Y-1286198D01*
X4129104Y-1400484D02*
X4110056Y-1390960D01*
X4110056Y-1390960D02*
X4100532Y-1381436D01*
X4100532Y-1381436D02*
X4091008Y-1362389D01*
X4091008Y-1362389D02*
X4091008Y-1305246D01*
X4091008Y-1305246D02*
X4100532Y-1286198D01*
X4100532Y-1286198D02*
X4110056Y-1276674D01*
X4110056Y-1276674D02*
X4129104Y-1267150D01*
X4129104Y-1267150D02*
X4157675Y-1267150D01*
X4157675Y-1267150D02*
X4176723Y-1276674D01*
X4176723Y-1276674D02*
X4186247Y-1286198D01*
X4186247Y-1286198D02*
X4195770Y-1305246D01*
X4195770Y-1305246D02*
X4195770Y-1362389D01*
X4195770Y-1362389D02*
X4186247Y-1381436D01*
X4186247Y-1381436D02*
X4176723Y-1390960D01*
X4176723Y-1390960D02*
X4157675Y-1400484D01*
X4157675Y-1400484D02*
X4129104Y-1400484D01*
X4310056Y-1400484D02*
X4291009Y-1390960D01*
X4291009Y-1390960D02*
X4281485Y-1371912D01*
X4281485Y-1371912D02*
X4281485Y-1200484D01*
X4462437Y-1390960D02*
X4443390Y-1400484D01*
X4443390Y-1400484D02*
X4405294Y-1400484D01*
X4405294Y-1400484D02*
X4386247Y-1390960D01*
X4386247Y-1390960D02*
X4376723Y-1371912D01*
X4376723Y-1371912D02*
X4376723Y-1295722D01*
X4376723Y-1295722D02*
X4386247Y-1276674D01*
X4386247Y-1276674D02*
X4405294Y-1267150D01*
X4405294Y-1267150D02*
X4443390Y-1267150D01*
X4443390Y-1267150D02*
X4462437Y-1276674D01*
X4462437Y-1276674D02*
X4471961Y-1295722D01*
X4471961Y-1295722D02*
X4471961Y-1314770D01*
X4471961Y-1314770D02*
X4376723Y-1333817D01*
X4548151Y-1390960D02*
X4567199Y-1400484D01*
X4567199Y-1400484D02*
X4605294Y-1400484D01*
X4605294Y-1400484D02*
X4624342Y-1390960D01*
X4624342Y-1390960D02*
X4633866Y-1371912D01*
X4633866Y-1371912D02*
X4633866Y-1362389D01*
X4633866Y-1362389D02*
X4624342Y-1343341D01*
X4624342Y-1343341D02*
X4605294Y-1333817D01*
X4605294Y-1333817D02*
X4576723Y-1333817D01*
X4576723Y-1333817D02*
X4557675Y-1324293D01*
X4557675Y-1324293D02*
X4548151Y-1305246D01*
X4548151Y-1305246D02*
X4548151Y-1295722D01*
X4548151Y-1295722D02*
X4557675Y-1276674D01*
X4557675Y-1276674D02*
X4576723Y-1267150D01*
X4576723Y-1267150D02*
X4605294Y-1267150D01*
X4605294Y-1267150D02*
X4624342Y-1276674D01*
X4700532Y-1476674D02*
X4710056Y-1467150D01*
X4710056Y-1467150D02*
X4729104Y-1438579D01*
X4729104Y-1438579D02*
X4738628Y-1419531D01*
X4738628Y-1419531D02*
X4748151Y-1390960D01*
X4748151Y-1390960D02*
X4757675Y-1343341D01*
X4757675Y-1343341D02*
X4757675Y-1305246D01*
X4757675Y-1305246D02*
X4748151Y-1257627D01*
X4748151Y-1257627D02*
X4738628Y-1229055D01*
X4738628Y-1229055D02*
X4729104Y-1210008D01*
X4729104Y-1210008D02*
X4710056Y-1181436D01*
X4710056Y-1181436D02*
X4700532Y-1171912D01*
D11*
X-297507Y-1540500D02*
X-297507Y-1605500D01*
X-330007Y-1573000D02*
X-265007Y-1573000D01*
D10*
X33865Y-1464484D02*
X52913Y-1464484D01*
X52913Y-1464484D02*
X71961Y-1474008D01*
X71961Y-1474008D02*
X81484Y-1483531D01*
X81484Y-1483531D02*
X91008Y-1502579D01*
X91008Y-1502579D02*
X100532Y-1540674D01*
X100532Y-1540674D02*
X100532Y-1588293D01*
X100532Y-1588293D02*
X91008Y-1626388D01*
X91008Y-1626388D02*
X81484Y-1645436D01*
X81484Y-1645436D02*
X71961Y-1654960D01*
X71961Y-1654960D02*
X52913Y-1664484D01*
X52913Y-1664484D02*
X33865Y-1664484D01*
X33865Y-1664484D02*
X14818Y-1654960D01*
X14818Y-1654960D02*
X5294Y-1645436D01*
X5294Y-1645436D02*
X-4230Y-1626388D01*
X-4230Y-1626388D02*
X-13754Y-1588293D01*
X-13754Y-1588293D02*
X-13754Y-1540674D01*
X-13754Y-1540674D02*
X-4230Y-1502579D01*
X-4230Y-1502579D02*
X5294Y-1483531D01*
X5294Y-1483531D02*
X14818Y-1474008D01*
X14818Y-1474008D02*
X33865Y-1464484D01*
X186246Y-1645436D02*
X195770Y-1654960D01*
X195770Y-1654960D02*
X186246Y-1664484D01*
X186246Y-1664484D02*
X176722Y-1654960D01*
X176722Y-1654960D02*
X186246Y-1645436D01*
X186246Y-1645436D02*
X186246Y-1664484D01*
X367199Y-1464484D02*
X329103Y-1464484D01*
X329103Y-1464484D02*
X310056Y-1474008D01*
X310056Y-1474008D02*
X300532Y-1483531D01*
X300532Y-1483531D02*
X281484Y-1512103D01*
X281484Y-1512103D02*
X271961Y-1550198D01*
X271961Y-1550198D02*
X271961Y-1626388D01*
X271961Y-1626388D02*
X281484Y-1645436D01*
X281484Y-1645436D02*
X291008Y-1654960D01*
X291008Y-1654960D02*
X310056Y-1664484D01*
X310056Y-1664484D02*
X348151Y-1664484D01*
X348151Y-1664484D02*
X367199Y-1654960D01*
X367199Y-1654960D02*
X376722Y-1645436D01*
X376722Y-1645436D02*
X386246Y-1626388D01*
X386246Y-1626388D02*
X386246Y-1578769D01*
X386246Y-1578769D02*
X376722Y-1559722D01*
X376722Y-1559722D02*
X367199Y-1550198D01*
X367199Y-1550198D02*
X348151Y-1540674D01*
X348151Y-1540674D02*
X310056Y-1540674D01*
X310056Y-1540674D02*
X291008Y-1550198D01*
X291008Y-1550198D02*
X281484Y-1559722D01*
X281484Y-1559722D02*
X271961Y-1578769D01*
X567199Y-1464484D02*
X471960Y-1464484D01*
X471960Y-1464484D02*
X462437Y-1559722D01*
X462437Y-1559722D02*
X471960Y-1550198D01*
X471960Y-1550198D02*
X491008Y-1540674D01*
X491008Y-1540674D02*
X538627Y-1540674D01*
X538627Y-1540674D02*
X557675Y-1550198D01*
X557675Y-1550198D02*
X567199Y-1559722D01*
X567199Y-1559722D02*
X576722Y-1578769D01*
X576722Y-1578769D02*
X576722Y-1626388D01*
X576722Y-1626388D02*
X567199Y-1645436D01*
X567199Y-1645436D02*
X557675Y-1654960D01*
X557675Y-1654960D02*
X538627Y-1664484D01*
X538627Y-1664484D02*
X491008Y-1664484D01*
X491008Y-1664484D02*
X471960Y-1654960D01*
X471960Y-1654960D02*
X462437Y-1645436D01*
X700532Y-1464484D02*
X719580Y-1464484D01*
X719580Y-1464484D02*
X738627Y-1474008D01*
X738627Y-1474008D02*
X748151Y-1483531D01*
X748151Y-1483531D02*
X757675Y-1502579D01*
X757675Y-1502579D02*
X767199Y-1540674D01*
X767199Y-1540674D02*
X767199Y-1588293D01*
X767199Y-1588293D02*
X757675Y-1626388D01*
X757675Y-1626388D02*
X748151Y-1645436D01*
X748151Y-1645436D02*
X738627Y-1654960D01*
X738627Y-1654960D02*
X719580Y-1664484D01*
X719580Y-1664484D02*
X700532Y-1664484D01*
X700532Y-1664484D02*
X681484Y-1654960D01*
X681484Y-1654960D02*
X671961Y-1645436D01*
X671961Y-1645436D02*
X662437Y-1626388D01*
X662437Y-1626388D02*
X652913Y-1588293D01*
X652913Y-1588293D02*
X652913Y-1540674D01*
X652913Y-1540674D02*
X662437Y-1502579D01*
X662437Y-1502579D02*
X671961Y-1483531D01*
X671961Y-1483531D02*
X681484Y-1474008D01*
X681484Y-1474008D02*
X700532Y-1464484D01*
X852913Y-1664484D02*
X852913Y-1531150D01*
X852913Y-1550198D02*
X862437Y-1540674D01*
X862437Y-1540674D02*
X881484Y-1531150D01*
X881484Y-1531150D02*
X910056Y-1531150D01*
X910056Y-1531150D02*
X929103Y-1540674D01*
X929103Y-1540674D02*
X938627Y-1559722D01*
X938627Y-1559722D02*
X938627Y-1664484D01*
X938627Y-1559722D02*
X948151Y-1540674D01*
X948151Y-1540674D02*
X967199Y-1531150D01*
X967199Y-1531150D02*
X995770Y-1531150D01*
X995770Y-1531150D02*
X1014818Y-1540674D01*
X1014818Y-1540674D02*
X1024341Y-1559722D01*
X1024341Y-1559722D02*
X1024341Y-1664484D01*
X1119580Y-1664484D02*
X1119580Y-1531150D01*
X1119580Y-1550198D02*
X1129103Y-1540674D01*
X1129103Y-1540674D02*
X1148151Y-1531150D01*
X1148151Y-1531150D02*
X1176723Y-1531150D01*
X1176723Y-1531150D02*
X1195770Y-1540674D01*
X1195770Y-1540674D02*
X1205294Y-1559722D01*
X1205294Y-1559722D02*
X1205294Y-1664484D01*
X1205294Y-1559722D02*
X1214818Y-1540674D01*
X1214818Y-1540674D02*
X1233865Y-1531150D01*
X1233865Y-1531150D02*
X1262437Y-1531150D01*
X1262437Y-1531150D02*
X1281484Y-1540674D01*
X1281484Y-1540674D02*
X1291008Y-1559722D01*
X1291008Y-1559722D02*
X1291008Y-1664484D01*
X1681484Y-1454960D02*
X1510056Y-1712103D01*
X1938627Y-1464484D02*
X1957675Y-1464484D01*
X1957675Y-1464484D02*
X1976723Y-1474008D01*
X1976723Y-1474008D02*
X1986246Y-1483531D01*
X1986246Y-1483531D02*
X1995770Y-1502579D01*
X1995770Y-1502579D02*
X2005294Y-1540674D01*
X2005294Y-1540674D02*
X2005294Y-1588293D01*
X2005294Y-1588293D02*
X1995770Y-1626388D01*
X1995770Y-1626388D02*
X1986246Y-1645436D01*
X1986246Y-1645436D02*
X1976723Y-1654960D01*
X1976723Y-1654960D02*
X1957675Y-1664484D01*
X1957675Y-1664484D02*
X1938627Y-1664484D01*
X1938627Y-1664484D02*
X1919580Y-1654960D01*
X1919580Y-1654960D02*
X1910056Y-1645436D01*
X1910056Y-1645436D02*
X1900532Y-1626388D01*
X1900532Y-1626388D02*
X1891008Y-1588293D01*
X1891008Y-1588293D02*
X1891008Y-1540674D01*
X1891008Y-1540674D02*
X1900532Y-1502579D01*
X1900532Y-1502579D02*
X1910056Y-1483531D01*
X1910056Y-1483531D02*
X1919580Y-1474008D01*
X1919580Y-1474008D02*
X1938627Y-1464484D01*
X2091008Y-1645436D02*
X2100532Y-1654960D01*
X2100532Y-1654960D02*
X2091008Y-1664484D01*
X2091008Y-1664484D02*
X2081484Y-1654960D01*
X2081484Y-1654960D02*
X2091008Y-1645436D01*
X2091008Y-1645436D02*
X2091008Y-1664484D01*
X2224342Y-1464484D02*
X2243389Y-1464484D01*
X2243389Y-1464484D02*
X2262437Y-1474008D01*
X2262437Y-1474008D02*
X2271961Y-1483531D01*
X2271961Y-1483531D02*
X2281485Y-1502579D01*
X2281485Y-1502579D02*
X2291008Y-1540674D01*
X2291008Y-1540674D02*
X2291008Y-1588293D01*
X2291008Y-1588293D02*
X2281485Y-1626388D01*
X2281485Y-1626388D02*
X2271961Y-1645436D01*
X2271961Y-1645436D02*
X2262437Y-1654960D01*
X2262437Y-1654960D02*
X2243389Y-1664484D01*
X2243389Y-1664484D02*
X2224342Y-1664484D01*
X2224342Y-1664484D02*
X2205294Y-1654960D01*
X2205294Y-1654960D02*
X2195770Y-1645436D01*
X2195770Y-1645436D02*
X2186246Y-1626388D01*
X2186246Y-1626388D02*
X2176723Y-1588293D01*
X2176723Y-1588293D02*
X2176723Y-1540674D01*
X2176723Y-1540674D02*
X2186246Y-1502579D01*
X2186246Y-1502579D02*
X2195770Y-1483531D01*
X2195770Y-1483531D02*
X2205294Y-1474008D01*
X2205294Y-1474008D02*
X2224342Y-1464484D01*
X2367199Y-1483531D02*
X2376723Y-1474008D01*
X2376723Y-1474008D02*
X2395770Y-1464484D01*
X2395770Y-1464484D02*
X2443389Y-1464484D01*
X2443389Y-1464484D02*
X2462437Y-1474008D01*
X2462437Y-1474008D02*
X2471961Y-1483531D01*
X2471961Y-1483531D02*
X2481485Y-1502579D01*
X2481485Y-1502579D02*
X2481485Y-1521627D01*
X2481485Y-1521627D02*
X2471961Y-1550198D01*
X2471961Y-1550198D02*
X2357675Y-1664484D01*
X2357675Y-1664484D02*
X2481485Y-1664484D01*
X2662437Y-1464484D02*
X2567199Y-1464484D01*
X2567199Y-1464484D02*
X2557675Y-1559722D01*
X2557675Y-1559722D02*
X2567199Y-1550198D01*
X2567199Y-1550198D02*
X2586246Y-1540674D01*
X2586246Y-1540674D02*
X2633866Y-1540674D01*
X2633866Y-1540674D02*
X2652913Y-1550198D01*
X2652913Y-1550198D02*
X2662437Y-1559722D01*
X2662437Y-1559722D02*
X2671961Y-1578769D01*
X2671961Y-1578769D02*
X2671961Y-1626388D01*
X2671961Y-1626388D02*
X2662437Y-1645436D01*
X2662437Y-1645436D02*
X2652913Y-1654960D01*
X2652913Y-1654960D02*
X2633866Y-1664484D01*
X2633866Y-1664484D02*
X2586246Y-1664484D01*
X2586246Y-1664484D02*
X2567199Y-1654960D01*
X2567199Y-1654960D02*
X2557675Y-1645436D01*
X2843389Y-1464484D02*
X2805294Y-1464484D01*
X2805294Y-1464484D02*
X2786246Y-1474008D01*
X2786246Y-1474008D02*
X2776723Y-1483531D01*
X2776723Y-1483531D02*
X2757675Y-1512103D01*
X2757675Y-1512103D02*
X2748151Y-1550198D01*
X2748151Y-1550198D02*
X2748151Y-1626388D01*
X2748151Y-1626388D02*
X2757675Y-1645436D01*
X2757675Y-1645436D02*
X2767199Y-1654960D01*
X2767199Y-1654960D02*
X2786246Y-1664484D01*
X2786246Y-1664484D02*
X2824342Y-1664484D01*
X2824342Y-1664484D02*
X2843389Y-1654960D01*
X2843389Y-1654960D02*
X2852913Y-1645436D01*
X2852913Y-1645436D02*
X2862437Y-1626388D01*
X2862437Y-1626388D02*
X2862437Y-1578769D01*
X2862437Y-1578769D02*
X2852913Y-1559722D01*
X2852913Y-1559722D02*
X2843389Y-1550198D01*
X2843389Y-1550198D02*
X2824342Y-1540674D01*
X2824342Y-1540674D02*
X2786246Y-1540674D01*
X2786246Y-1540674D02*
X2767199Y-1550198D01*
X2767199Y-1550198D02*
X2757675Y-1559722D01*
X2757675Y-1559722D02*
X2748151Y-1578769D01*
X2938627Y-1464484D02*
X2938627Y-1502579D01*
X3014818Y-1464484D02*
X3014818Y-1502579D01*
X3310056Y-1740674D02*
X3300532Y-1731150D01*
X3300532Y-1731150D02*
X3281485Y-1702579D01*
X3281485Y-1702579D02*
X3271961Y-1683531D01*
X3271961Y-1683531D02*
X3262437Y-1654960D01*
X3262437Y-1654960D02*
X3252913Y-1607341D01*
X3252913Y-1607341D02*
X3252913Y-1569246D01*
X3252913Y-1569246D02*
X3262437Y-1521627D01*
X3262437Y-1521627D02*
X3271961Y-1493055D01*
X3271961Y-1493055D02*
X3281485Y-1474008D01*
X3281485Y-1474008D02*
X3300532Y-1445436D01*
X3300532Y-1445436D02*
X3310056Y-1435912D01*
X3376723Y-1483531D02*
X3386246Y-1474008D01*
X3386246Y-1474008D02*
X3405294Y-1464484D01*
X3405294Y-1464484D02*
X3452913Y-1464484D01*
X3452913Y-1464484D02*
X3471961Y-1474008D01*
X3471961Y-1474008D02*
X3481485Y-1483531D01*
X3481485Y-1483531D02*
X3491008Y-1502579D01*
X3491008Y-1502579D02*
X3491008Y-1521627D01*
X3491008Y-1521627D02*
X3481485Y-1550198D01*
X3481485Y-1550198D02*
X3367199Y-1664484D01*
X3367199Y-1664484D02*
X3491008Y-1664484D01*
X3614818Y-1464484D02*
X3633866Y-1464484D01*
X3633866Y-1464484D02*
X3652913Y-1474008D01*
X3652913Y-1474008D02*
X3662437Y-1483531D01*
X3662437Y-1483531D02*
X3671961Y-1502579D01*
X3671961Y-1502579D02*
X3681485Y-1540674D01*
X3681485Y-1540674D02*
X3681485Y-1588293D01*
X3681485Y-1588293D02*
X3671961Y-1626388D01*
X3671961Y-1626388D02*
X3662437Y-1645436D01*
X3662437Y-1645436D02*
X3652913Y-1654960D01*
X3652913Y-1654960D02*
X3633866Y-1664484D01*
X3633866Y-1664484D02*
X3614818Y-1664484D01*
X3614818Y-1664484D02*
X3595770Y-1654960D01*
X3595770Y-1654960D02*
X3586246Y-1645436D01*
X3586246Y-1645436D02*
X3576723Y-1626388D01*
X3576723Y-1626388D02*
X3567199Y-1588293D01*
X3567199Y-1588293D02*
X3567199Y-1540674D01*
X3567199Y-1540674D02*
X3576723Y-1502579D01*
X3576723Y-1502579D02*
X3586246Y-1483531D01*
X3586246Y-1483531D02*
X3595770Y-1474008D01*
X3595770Y-1474008D02*
X3614818Y-1464484D01*
X3919580Y-1664484D02*
X3919580Y-1464484D01*
X4005294Y-1664484D02*
X4005294Y-1559722D01*
X4005294Y-1559722D02*
X3995770Y-1540674D01*
X3995770Y-1540674D02*
X3976723Y-1531150D01*
X3976723Y-1531150D02*
X3948151Y-1531150D01*
X3948151Y-1531150D02*
X3929104Y-1540674D01*
X3929104Y-1540674D02*
X3919580Y-1550198D01*
X4129104Y-1664484D02*
X4110056Y-1654960D01*
X4110056Y-1654960D02*
X4100532Y-1645436D01*
X4100532Y-1645436D02*
X4091008Y-1626388D01*
X4091008Y-1626388D02*
X4091008Y-1569246D01*
X4091008Y-1569246D02*
X4100532Y-1550198D01*
X4100532Y-1550198D02*
X4110056Y-1540674D01*
X4110056Y-1540674D02*
X4129104Y-1531150D01*
X4129104Y-1531150D02*
X4157675Y-1531150D01*
X4157675Y-1531150D02*
X4176723Y-1540674D01*
X4176723Y-1540674D02*
X4186247Y-1550198D01*
X4186247Y-1550198D02*
X4195770Y-1569246D01*
X4195770Y-1569246D02*
X4195770Y-1626388D01*
X4195770Y-1626388D02*
X4186247Y-1645436D01*
X4186247Y-1645436D02*
X4176723Y-1654960D01*
X4176723Y-1654960D02*
X4157675Y-1664484D01*
X4157675Y-1664484D02*
X4129104Y-1664484D01*
X4310056Y-1664484D02*
X4291009Y-1654960D01*
X4291009Y-1654960D02*
X4281485Y-1635912D01*
X4281485Y-1635912D02*
X4281485Y-1464484D01*
X4462437Y-1654960D02*
X4443390Y-1664484D01*
X4443390Y-1664484D02*
X4405294Y-1664484D01*
X4405294Y-1664484D02*
X4386247Y-1654960D01*
X4386247Y-1654960D02*
X4376723Y-1635912D01*
X4376723Y-1635912D02*
X4376723Y-1559722D01*
X4376723Y-1559722D02*
X4386247Y-1540674D01*
X4386247Y-1540674D02*
X4405294Y-1531150D01*
X4405294Y-1531150D02*
X4443390Y-1531150D01*
X4443390Y-1531150D02*
X4462437Y-1540674D01*
X4462437Y-1540674D02*
X4471961Y-1559722D01*
X4471961Y-1559722D02*
X4471961Y-1578769D01*
X4471961Y-1578769D02*
X4376723Y-1597817D01*
X4548151Y-1654960D02*
X4567199Y-1664484D01*
X4567199Y-1664484D02*
X4605294Y-1664484D01*
X4605294Y-1664484D02*
X4624342Y-1654960D01*
X4624342Y-1654960D02*
X4633866Y-1635912D01*
X4633866Y-1635912D02*
X4633866Y-1626388D01*
X4633866Y-1626388D02*
X4624342Y-1607341D01*
X4624342Y-1607341D02*
X4605294Y-1597817D01*
X4605294Y-1597817D02*
X4576723Y-1597817D01*
X4576723Y-1597817D02*
X4557675Y-1588293D01*
X4557675Y-1588293D02*
X4548151Y-1569246D01*
X4548151Y-1569246D02*
X4548151Y-1559722D01*
X4548151Y-1559722D02*
X4557675Y-1540674D01*
X4557675Y-1540674D02*
X4576723Y-1531150D01*
X4576723Y-1531150D02*
X4605294Y-1531150D01*
X4605294Y-1531150D02*
X4624342Y-1540674D01*
X4700532Y-1740674D02*
X4710056Y-1731150D01*
X4710056Y-1731150D02*
X4729104Y-1702579D01*
X4729104Y-1702579D02*
X4738628Y-1683531D01*
X4738628Y-1683531D02*
X4748151Y-1654960D01*
X4748151Y-1654960D02*
X4757675Y-1607341D01*
X4757675Y-1607341D02*
X4757675Y-1569246D01*
X4757675Y-1569246D02*
X4748151Y-1521627D01*
X4748151Y-1521627D02*
X4738628Y-1493055D01*
X4738628Y-1493055D02*
X4729104Y-1474008D01*
X4729104Y-1474008D02*
X4710056Y-1445436D01*
X4710056Y-1445436D02*
X4700532Y-1435912D01*
D11*
X-275258Y-1861749D02*
X-275258Y-1812251D01*
X-324756Y-1812251D01*
X-324756Y-1861749D01*
X-275258Y-1861749D01*
D10*
X33865Y-1728484D02*
X52913Y-1728484D01*
X52913Y-1728484D02*
X71961Y-1738008D01*
X71961Y-1738008D02*
X81484Y-1747531D01*
X81484Y-1747531D02*
X91008Y-1766579D01*
X91008Y-1766579D02*
X100532Y-1804674D01*
X100532Y-1804674D02*
X100532Y-1852293D01*
X100532Y-1852293D02*
X91008Y-1890388D01*
X91008Y-1890388D02*
X81484Y-1909436D01*
X81484Y-1909436D02*
X71961Y-1918960D01*
X71961Y-1918960D02*
X52913Y-1928484D01*
X52913Y-1928484D02*
X33865Y-1928484D01*
X33865Y-1928484D02*
X14818Y-1918960D01*
X14818Y-1918960D02*
X5294Y-1909436D01*
X5294Y-1909436D02*
X-4230Y-1890388D01*
X-4230Y-1890388D02*
X-13754Y-1852293D01*
X-13754Y-1852293D02*
X-13754Y-1804674D01*
X-13754Y-1804674D02*
X-4230Y-1766579D01*
X-4230Y-1766579D02*
X5294Y-1747531D01*
X5294Y-1747531D02*
X14818Y-1738008D01*
X14818Y-1738008D02*
X33865Y-1728484D01*
X186246Y-1909436D02*
X195770Y-1918960D01*
X195770Y-1918960D02*
X186246Y-1928484D01*
X186246Y-1928484D02*
X176722Y-1918960D01*
X176722Y-1918960D02*
X186246Y-1909436D01*
X186246Y-1909436D02*
X186246Y-1928484D01*
X262437Y-1728484D02*
X395770Y-1728484D01*
X395770Y-1728484D02*
X310056Y-1928484D01*
X510056Y-1728484D02*
X529103Y-1728484D01*
X529103Y-1728484D02*
X548151Y-1738008D01*
X548151Y-1738008D02*
X557675Y-1747531D01*
X557675Y-1747531D02*
X567199Y-1766579D01*
X567199Y-1766579D02*
X576722Y-1804674D01*
X576722Y-1804674D02*
X576722Y-1852293D01*
X576722Y-1852293D02*
X567199Y-1890388D01*
X567199Y-1890388D02*
X557675Y-1909436D01*
X557675Y-1909436D02*
X548151Y-1918960D01*
X548151Y-1918960D02*
X529103Y-1928484D01*
X529103Y-1928484D02*
X510056Y-1928484D01*
X510056Y-1928484D02*
X491008Y-1918960D01*
X491008Y-1918960D02*
X481484Y-1909436D01*
X481484Y-1909436D02*
X471960Y-1890388D01*
X471960Y-1890388D02*
X462437Y-1852293D01*
X462437Y-1852293D02*
X462437Y-1804674D01*
X462437Y-1804674D02*
X471960Y-1766579D01*
X471960Y-1766579D02*
X481484Y-1747531D01*
X481484Y-1747531D02*
X491008Y-1738008D01*
X491008Y-1738008D02*
X510056Y-1728484D01*
X700532Y-1728484D02*
X719580Y-1728484D01*
X719580Y-1728484D02*
X738627Y-1738008D01*
X738627Y-1738008D02*
X748151Y-1747531D01*
X748151Y-1747531D02*
X757675Y-1766579D01*
X757675Y-1766579D02*
X767199Y-1804674D01*
X767199Y-1804674D02*
X767199Y-1852293D01*
X767199Y-1852293D02*
X757675Y-1890388D01*
X757675Y-1890388D02*
X748151Y-1909436D01*
X748151Y-1909436D02*
X738627Y-1918960D01*
X738627Y-1918960D02*
X719580Y-1928484D01*
X719580Y-1928484D02*
X700532Y-1928484D01*
X700532Y-1928484D02*
X681484Y-1918960D01*
X681484Y-1918960D02*
X671961Y-1909436D01*
X671961Y-1909436D02*
X662437Y-1890388D01*
X662437Y-1890388D02*
X652913Y-1852293D01*
X652913Y-1852293D02*
X652913Y-1804674D01*
X652913Y-1804674D02*
X662437Y-1766579D01*
X662437Y-1766579D02*
X671961Y-1747531D01*
X671961Y-1747531D02*
X681484Y-1738008D01*
X681484Y-1738008D02*
X700532Y-1728484D01*
X852913Y-1928484D02*
X852913Y-1795150D01*
X852913Y-1814198D02*
X862437Y-1804674D01*
X862437Y-1804674D02*
X881484Y-1795150D01*
X881484Y-1795150D02*
X910056Y-1795150D01*
X910056Y-1795150D02*
X929103Y-1804674D01*
X929103Y-1804674D02*
X938627Y-1823722D01*
X938627Y-1823722D02*
X938627Y-1928484D01*
X938627Y-1823722D02*
X948151Y-1804674D01*
X948151Y-1804674D02*
X967199Y-1795150D01*
X967199Y-1795150D02*
X995770Y-1795150D01*
X995770Y-1795150D02*
X1014818Y-1804674D01*
X1014818Y-1804674D02*
X1024341Y-1823722D01*
X1024341Y-1823722D02*
X1024341Y-1928484D01*
X1119580Y-1928484D02*
X1119580Y-1795150D01*
X1119580Y-1814198D02*
X1129103Y-1804674D01*
X1129103Y-1804674D02*
X1148151Y-1795150D01*
X1148151Y-1795150D02*
X1176723Y-1795150D01*
X1176723Y-1795150D02*
X1195770Y-1804674D01*
X1195770Y-1804674D02*
X1205294Y-1823722D01*
X1205294Y-1823722D02*
X1205294Y-1928484D01*
X1205294Y-1823722D02*
X1214818Y-1804674D01*
X1214818Y-1804674D02*
X1233865Y-1795150D01*
X1233865Y-1795150D02*
X1262437Y-1795150D01*
X1262437Y-1795150D02*
X1281484Y-1804674D01*
X1281484Y-1804674D02*
X1291008Y-1823722D01*
X1291008Y-1823722D02*
X1291008Y-1928484D01*
X1681484Y-1718960D02*
X1510056Y-1976103D01*
X1938627Y-1728484D02*
X1957675Y-1728484D01*
X1957675Y-1728484D02*
X1976723Y-1738008D01*
X1976723Y-1738008D02*
X1986246Y-1747531D01*
X1986246Y-1747531D02*
X1995770Y-1766579D01*
X1995770Y-1766579D02*
X2005294Y-1804674D01*
X2005294Y-1804674D02*
X2005294Y-1852293D01*
X2005294Y-1852293D02*
X1995770Y-1890388D01*
X1995770Y-1890388D02*
X1986246Y-1909436D01*
X1986246Y-1909436D02*
X1976723Y-1918960D01*
X1976723Y-1918960D02*
X1957675Y-1928484D01*
X1957675Y-1928484D02*
X1938627Y-1928484D01*
X1938627Y-1928484D02*
X1919580Y-1918960D01*
X1919580Y-1918960D02*
X1910056Y-1909436D01*
X1910056Y-1909436D02*
X1900532Y-1890388D01*
X1900532Y-1890388D02*
X1891008Y-1852293D01*
X1891008Y-1852293D02*
X1891008Y-1804674D01*
X1891008Y-1804674D02*
X1900532Y-1766579D01*
X1900532Y-1766579D02*
X1910056Y-1747531D01*
X1910056Y-1747531D02*
X1919580Y-1738008D01*
X1919580Y-1738008D02*
X1938627Y-1728484D01*
X2091008Y-1909436D02*
X2100532Y-1918960D01*
X2100532Y-1918960D02*
X2091008Y-1928484D01*
X2091008Y-1928484D02*
X2081484Y-1918960D01*
X2081484Y-1918960D02*
X2091008Y-1909436D01*
X2091008Y-1909436D02*
X2091008Y-1928484D01*
X2224342Y-1728484D02*
X2243389Y-1728484D01*
X2243389Y-1728484D02*
X2262437Y-1738008D01*
X2262437Y-1738008D02*
X2271961Y-1747531D01*
X2271961Y-1747531D02*
X2281485Y-1766579D01*
X2281485Y-1766579D02*
X2291008Y-1804674D01*
X2291008Y-1804674D02*
X2291008Y-1852293D01*
X2291008Y-1852293D02*
X2281485Y-1890388D01*
X2281485Y-1890388D02*
X2271961Y-1909436D01*
X2271961Y-1909436D02*
X2262437Y-1918960D01*
X2262437Y-1918960D02*
X2243389Y-1928484D01*
X2243389Y-1928484D02*
X2224342Y-1928484D01*
X2224342Y-1928484D02*
X2205294Y-1918960D01*
X2205294Y-1918960D02*
X2195770Y-1909436D01*
X2195770Y-1909436D02*
X2186246Y-1890388D01*
X2186246Y-1890388D02*
X2176723Y-1852293D01*
X2176723Y-1852293D02*
X2176723Y-1804674D01*
X2176723Y-1804674D02*
X2186246Y-1766579D01*
X2186246Y-1766579D02*
X2195770Y-1747531D01*
X2195770Y-1747531D02*
X2205294Y-1738008D01*
X2205294Y-1738008D02*
X2224342Y-1728484D01*
X2367199Y-1747531D02*
X2376723Y-1738008D01*
X2376723Y-1738008D02*
X2395770Y-1728484D01*
X2395770Y-1728484D02*
X2443389Y-1728484D01*
X2443389Y-1728484D02*
X2462437Y-1738008D01*
X2462437Y-1738008D02*
X2471961Y-1747531D01*
X2471961Y-1747531D02*
X2481485Y-1766579D01*
X2481485Y-1766579D02*
X2481485Y-1785627D01*
X2481485Y-1785627D02*
X2471961Y-1814198D01*
X2471961Y-1814198D02*
X2357675Y-1928484D01*
X2357675Y-1928484D02*
X2481485Y-1928484D01*
X2548151Y-1728484D02*
X2681485Y-1728484D01*
X2681485Y-1728484D02*
X2595770Y-1928484D01*
X2843389Y-1728484D02*
X2805294Y-1728484D01*
X2805294Y-1728484D02*
X2786246Y-1738008D01*
X2786246Y-1738008D02*
X2776723Y-1747531D01*
X2776723Y-1747531D02*
X2757675Y-1776103D01*
X2757675Y-1776103D02*
X2748151Y-1814198D01*
X2748151Y-1814198D02*
X2748151Y-1890388D01*
X2748151Y-1890388D02*
X2757675Y-1909436D01*
X2757675Y-1909436D02*
X2767199Y-1918960D01*
X2767199Y-1918960D02*
X2786246Y-1928484D01*
X2786246Y-1928484D02*
X2824342Y-1928484D01*
X2824342Y-1928484D02*
X2843389Y-1918960D01*
X2843389Y-1918960D02*
X2852913Y-1909436D01*
X2852913Y-1909436D02*
X2862437Y-1890388D01*
X2862437Y-1890388D02*
X2862437Y-1842769D01*
X2862437Y-1842769D02*
X2852913Y-1823722D01*
X2852913Y-1823722D02*
X2843389Y-1814198D01*
X2843389Y-1814198D02*
X2824342Y-1804674D01*
X2824342Y-1804674D02*
X2786246Y-1804674D01*
X2786246Y-1804674D02*
X2767199Y-1814198D01*
X2767199Y-1814198D02*
X2757675Y-1823722D01*
X2757675Y-1823722D02*
X2748151Y-1842769D01*
X2938627Y-1728484D02*
X2938627Y-1766579D01*
X3014818Y-1728484D02*
X3014818Y-1766579D01*
X3310056Y-2004674D02*
X3300532Y-1995150D01*
X3300532Y-1995150D02*
X3281485Y-1966579D01*
X3281485Y-1966579D02*
X3271961Y-1947531D01*
X3271961Y-1947531D02*
X3262437Y-1918960D01*
X3262437Y-1918960D02*
X3252913Y-1871341D01*
X3252913Y-1871341D02*
X3252913Y-1833246D01*
X3252913Y-1833246D02*
X3262437Y-1785627D01*
X3262437Y-1785627D02*
X3271961Y-1757055D01*
X3271961Y-1757055D02*
X3281485Y-1738008D01*
X3281485Y-1738008D02*
X3300532Y-1709436D01*
X3300532Y-1709436D02*
X3310056Y-1699912D01*
X3376723Y-1747531D02*
X3386246Y-1738008D01*
X3386246Y-1738008D02*
X3405294Y-1728484D01*
X3405294Y-1728484D02*
X3452913Y-1728484D01*
X3452913Y-1728484D02*
X3471961Y-1738008D01*
X3471961Y-1738008D02*
X3481485Y-1747531D01*
X3481485Y-1747531D02*
X3491008Y-1766579D01*
X3491008Y-1766579D02*
X3491008Y-1785627D01*
X3491008Y-1785627D02*
X3481485Y-1814198D01*
X3481485Y-1814198D02*
X3367199Y-1928484D01*
X3367199Y-1928484D02*
X3491008Y-1928484D01*
X3567199Y-1747531D02*
X3576723Y-1738008D01*
X3576723Y-1738008D02*
X3595770Y-1728484D01*
X3595770Y-1728484D02*
X3643389Y-1728484D01*
X3643389Y-1728484D02*
X3662437Y-1738008D01*
X3662437Y-1738008D02*
X3671961Y-1747531D01*
X3671961Y-1747531D02*
X3681485Y-1766579D01*
X3681485Y-1766579D02*
X3681485Y-1785627D01*
X3681485Y-1785627D02*
X3671961Y-1814198D01*
X3671961Y-1814198D02*
X3557675Y-1928484D01*
X3557675Y-1928484D02*
X3681485Y-1928484D01*
X3919580Y-1928484D02*
X3919580Y-1728484D01*
X4005294Y-1928484D02*
X4005294Y-1823722D01*
X4005294Y-1823722D02*
X3995770Y-1804674D01*
X3995770Y-1804674D02*
X3976723Y-1795150D01*
X3976723Y-1795150D02*
X3948151Y-1795150D01*
X3948151Y-1795150D02*
X3929104Y-1804674D01*
X3929104Y-1804674D02*
X3919580Y-1814198D01*
X4129104Y-1928484D02*
X4110056Y-1918960D01*
X4110056Y-1918960D02*
X4100532Y-1909436D01*
X4100532Y-1909436D02*
X4091008Y-1890388D01*
X4091008Y-1890388D02*
X4091008Y-1833246D01*
X4091008Y-1833246D02*
X4100532Y-1814198D01*
X4100532Y-1814198D02*
X4110056Y-1804674D01*
X4110056Y-1804674D02*
X4129104Y-1795150D01*
X4129104Y-1795150D02*
X4157675Y-1795150D01*
X4157675Y-1795150D02*
X4176723Y-1804674D01*
X4176723Y-1804674D02*
X4186247Y-1814198D01*
X4186247Y-1814198D02*
X4195770Y-1833246D01*
X4195770Y-1833246D02*
X4195770Y-1890388D01*
X4195770Y-1890388D02*
X4186247Y-1909436D01*
X4186247Y-1909436D02*
X4176723Y-1918960D01*
X4176723Y-1918960D02*
X4157675Y-1928484D01*
X4157675Y-1928484D02*
X4129104Y-1928484D01*
X4310056Y-1928484D02*
X4291009Y-1918960D01*
X4291009Y-1918960D02*
X4281485Y-1899912D01*
X4281485Y-1899912D02*
X4281485Y-1728484D01*
X4462437Y-1918960D02*
X4443390Y-1928484D01*
X4443390Y-1928484D02*
X4405294Y-1928484D01*
X4405294Y-1928484D02*
X4386247Y-1918960D01*
X4386247Y-1918960D02*
X4376723Y-1899912D01*
X4376723Y-1899912D02*
X4376723Y-1823722D01*
X4376723Y-1823722D02*
X4386247Y-1804674D01*
X4386247Y-1804674D02*
X4405294Y-1795150D01*
X4405294Y-1795150D02*
X4443390Y-1795150D01*
X4443390Y-1795150D02*
X4462437Y-1804674D01*
X4462437Y-1804674D02*
X4471961Y-1823722D01*
X4471961Y-1823722D02*
X4471961Y-1842769D01*
X4471961Y-1842769D02*
X4376723Y-1861817D01*
X4548151Y-1918960D02*
X4567199Y-1928484D01*
X4567199Y-1928484D02*
X4605294Y-1928484D01*
X4605294Y-1928484D02*
X4624342Y-1918960D01*
X4624342Y-1918960D02*
X4633866Y-1899912D01*
X4633866Y-1899912D02*
X4633866Y-1890388D01*
X4633866Y-1890388D02*
X4624342Y-1871341D01*
X4624342Y-1871341D02*
X4605294Y-1861817D01*
X4605294Y-1861817D02*
X4576723Y-1861817D01*
X4576723Y-1861817D02*
X4557675Y-1852293D01*
X4557675Y-1852293D02*
X4548151Y-1833246D01*
X4548151Y-1833246D02*
X4548151Y-1823722D01*
X4548151Y-1823722D02*
X4557675Y-1804674D01*
X4557675Y-1804674D02*
X4576723Y-1795150D01*
X4576723Y-1795150D02*
X4605294Y-1795150D01*
X4605294Y-1795150D02*
X4624342Y-1804674D01*
X4700532Y-2004674D02*
X4710056Y-1995150D01*
X4710056Y-1995150D02*
X4729104Y-1966579D01*
X4729104Y-1966579D02*
X4738628Y-1947531D01*
X4738628Y-1947531D02*
X4748151Y-1918960D01*
X4748151Y-1918960D02*
X4757675Y-1871341D01*
X4757675Y-1871341D02*
X4757675Y-1833246D01*
X4757675Y-1833246D02*
X4748151Y-1785627D01*
X4748151Y-1785627D02*
X4738628Y-1757055D01*
X4738628Y-1757055D02*
X4729104Y-1738008D01*
X4729104Y-1738008D02*
X4710056Y-1709436D01*
X4710056Y-1709436D02*
X4700532Y-1699912D01*
D11*
X-305007Y-2141000D02*
X-265007Y-2101000D01*
X-305007Y-2061000D01*
X-345007Y-2101000D01*
X-305007Y-2141000D01*
D10*
X33865Y-1992484D02*
X52913Y-1992484D01*
X52913Y-1992484D02*
X71961Y-2002008D01*
X71961Y-2002008D02*
X81484Y-2011531D01*
X81484Y-2011531D02*
X91008Y-2030579D01*
X91008Y-2030579D02*
X100532Y-2068674D01*
X100532Y-2068674D02*
X100532Y-2116293D01*
X100532Y-2116293D02*
X91008Y-2154389D01*
X91008Y-2154389D02*
X81484Y-2173436D01*
X81484Y-2173436D02*
X71961Y-2182960D01*
X71961Y-2182960D02*
X52913Y-2192484D01*
X52913Y-2192484D02*
X33865Y-2192484D01*
X33865Y-2192484D02*
X14818Y-2182960D01*
X14818Y-2182960D02*
X5294Y-2173436D01*
X5294Y-2173436D02*
X-4230Y-2154389D01*
X-4230Y-2154389D02*
X-13754Y-2116293D01*
X-13754Y-2116293D02*
X-13754Y-2068674D01*
X-13754Y-2068674D02*
X-4230Y-2030579D01*
X-4230Y-2030579D02*
X5294Y-2011531D01*
X5294Y-2011531D02*
X14818Y-2002008D01*
X14818Y-2002008D02*
X33865Y-1992484D01*
X186246Y-2173436D02*
X195770Y-2182960D01*
X195770Y-2182960D02*
X186246Y-2192484D01*
X186246Y-2192484D02*
X176722Y-2182960D01*
X176722Y-2182960D02*
X186246Y-2173436D01*
X186246Y-2173436D02*
X186246Y-2192484D01*
X310056Y-2078198D02*
X291008Y-2068674D01*
X291008Y-2068674D02*
X281484Y-2059150D01*
X281484Y-2059150D02*
X271961Y-2040103D01*
X271961Y-2040103D02*
X271961Y-2030579D01*
X271961Y-2030579D02*
X281484Y-2011531D01*
X281484Y-2011531D02*
X291008Y-2002008D01*
X291008Y-2002008D02*
X310056Y-1992484D01*
X310056Y-1992484D02*
X348151Y-1992484D01*
X348151Y-1992484D02*
X367199Y-2002008D01*
X367199Y-2002008D02*
X376722Y-2011531D01*
X376722Y-2011531D02*
X386246Y-2030579D01*
X386246Y-2030579D02*
X386246Y-2040103D01*
X386246Y-2040103D02*
X376722Y-2059150D01*
X376722Y-2059150D02*
X367199Y-2068674D01*
X367199Y-2068674D02*
X348151Y-2078198D01*
X348151Y-2078198D02*
X310056Y-2078198D01*
X310056Y-2078198D02*
X291008Y-2087722D01*
X291008Y-2087722D02*
X281484Y-2097246D01*
X281484Y-2097246D02*
X271961Y-2116293D01*
X271961Y-2116293D02*
X271961Y-2154389D01*
X271961Y-2154389D02*
X281484Y-2173436D01*
X281484Y-2173436D02*
X291008Y-2182960D01*
X291008Y-2182960D02*
X310056Y-2192484D01*
X310056Y-2192484D02*
X348151Y-2192484D01*
X348151Y-2192484D02*
X367199Y-2182960D01*
X367199Y-2182960D02*
X376722Y-2173436D01*
X376722Y-2173436D02*
X386246Y-2154389D01*
X386246Y-2154389D02*
X386246Y-2116293D01*
X386246Y-2116293D02*
X376722Y-2097246D01*
X376722Y-2097246D02*
X367199Y-2087722D01*
X367199Y-2087722D02*
X348151Y-2078198D01*
X510056Y-1992484D02*
X529103Y-1992484D01*
X529103Y-1992484D02*
X548151Y-2002008D01*
X548151Y-2002008D02*
X557675Y-2011531D01*
X557675Y-2011531D02*
X567199Y-2030579D01*
X567199Y-2030579D02*
X576722Y-2068674D01*
X576722Y-2068674D02*
X576722Y-2116293D01*
X576722Y-2116293D02*
X567199Y-2154389D01*
X567199Y-2154389D02*
X557675Y-2173436D01*
X557675Y-2173436D02*
X548151Y-2182960D01*
X548151Y-2182960D02*
X529103Y-2192484D01*
X529103Y-2192484D02*
X510056Y-2192484D01*
X510056Y-2192484D02*
X491008Y-2182960D01*
X491008Y-2182960D02*
X481484Y-2173436D01*
X481484Y-2173436D02*
X471960Y-2154389D01*
X471960Y-2154389D02*
X462437Y-2116293D01*
X462437Y-2116293D02*
X462437Y-2068674D01*
X462437Y-2068674D02*
X471960Y-2030579D01*
X471960Y-2030579D02*
X481484Y-2011531D01*
X481484Y-2011531D02*
X491008Y-2002008D01*
X491008Y-2002008D02*
X510056Y-1992484D01*
X700532Y-1992484D02*
X719580Y-1992484D01*
X719580Y-1992484D02*
X738627Y-2002008D01*
X738627Y-2002008D02*
X748151Y-2011531D01*
X748151Y-2011531D02*
X757675Y-2030579D01*
X757675Y-2030579D02*
X767199Y-2068674D01*
X767199Y-2068674D02*
X767199Y-2116293D01*
X767199Y-2116293D02*
X757675Y-2154389D01*
X757675Y-2154389D02*
X748151Y-2173436D01*
X748151Y-2173436D02*
X738627Y-2182960D01*
X738627Y-2182960D02*
X719580Y-2192484D01*
X719580Y-2192484D02*
X700532Y-2192484D01*
X700532Y-2192484D02*
X681484Y-2182960D01*
X681484Y-2182960D02*
X671961Y-2173436D01*
X671961Y-2173436D02*
X662437Y-2154389D01*
X662437Y-2154389D02*
X652913Y-2116293D01*
X652913Y-2116293D02*
X652913Y-2068674D01*
X652913Y-2068674D02*
X662437Y-2030579D01*
X662437Y-2030579D02*
X671961Y-2011531D01*
X671961Y-2011531D02*
X681484Y-2002008D01*
X681484Y-2002008D02*
X700532Y-1992484D01*
X852913Y-2192484D02*
X852913Y-2059150D01*
X852913Y-2078198D02*
X862437Y-2068674D01*
X862437Y-2068674D02*
X881484Y-2059150D01*
X881484Y-2059150D02*
X910056Y-2059150D01*
X910056Y-2059150D02*
X929103Y-2068674D01*
X929103Y-2068674D02*
X938627Y-2087722D01*
X938627Y-2087722D02*
X938627Y-2192484D01*
X938627Y-2087722D02*
X948151Y-2068674D01*
X948151Y-2068674D02*
X967199Y-2059150D01*
X967199Y-2059150D02*
X995770Y-2059150D01*
X995770Y-2059150D02*
X1014818Y-2068674D01*
X1014818Y-2068674D02*
X1024341Y-2087722D01*
X1024341Y-2087722D02*
X1024341Y-2192484D01*
X1119580Y-2192484D02*
X1119580Y-2059150D01*
X1119580Y-2078198D02*
X1129103Y-2068674D01*
X1129103Y-2068674D02*
X1148151Y-2059150D01*
X1148151Y-2059150D02*
X1176723Y-2059150D01*
X1176723Y-2059150D02*
X1195770Y-2068674D01*
X1195770Y-2068674D02*
X1205294Y-2087722D01*
X1205294Y-2087722D02*
X1205294Y-2192484D01*
X1205294Y-2087722D02*
X1214818Y-2068674D01*
X1214818Y-2068674D02*
X1233865Y-2059150D01*
X1233865Y-2059150D02*
X1262437Y-2059150D01*
X1262437Y-2059150D02*
X1281484Y-2068674D01*
X1281484Y-2068674D02*
X1291008Y-2087722D01*
X1291008Y-2087722D02*
X1291008Y-2192484D01*
X1681484Y-1982960D02*
X1510056Y-2240103D01*
X1938627Y-1992484D02*
X1957675Y-1992484D01*
X1957675Y-1992484D02*
X1976723Y-2002008D01*
X1976723Y-2002008D02*
X1986246Y-2011531D01*
X1986246Y-2011531D02*
X1995770Y-2030579D01*
X1995770Y-2030579D02*
X2005294Y-2068674D01*
X2005294Y-2068674D02*
X2005294Y-2116293D01*
X2005294Y-2116293D02*
X1995770Y-2154389D01*
X1995770Y-2154389D02*
X1986246Y-2173436D01*
X1986246Y-2173436D02*
X1976723Y-2182960D01*
X1976723Y-2182960D02*
X1957675Y-2192484D01*
X1957675Y-2192484D02*
X1938627Y-2192484D01*
X1938627Y-2192484D02*
X1919580Y-2182960D01*
X1919580Y-2182960D02*
X1910056Y-2173436D01*
X1910056Y-2173436D02*
X1900532Y-2154389D01*
X1900532Y-2154389D02*
X1891008Y-2116293D01*
X1891008Y-2116293D02*
X1891008Y-2068674D01*
X1891008Y-2068674D02*
X1900532Y-2030579D01*
X1900532Y-2030579D02*
X1910056Y-2011531D01*
X1910056Y-2011531D02*
X1919580Y-2002008D01*
X1919580Y-2002008D02*
X1938627Y-1992484D01*
X2091008Y-2173436D02*
X2100532Y-2182960D01*
X2100532Y-2182960D02*
X2091008Y-2192484D01*
X2091008Y-2192484D02*
X2081484Y-2182960D01*
X2081484Y-2182960D02*
X2091008Y-2173436D01*
X2091008Y-2173436D02*
X2091008Y-2192484D01*
X2224342Y-1992484D02*
X2243389Y-1992484D01*
X2243389Y-1992484D02*
X2262437Y-2002008D01*
X2262437Y-2002008D02*
X2271961Y-2011531D01*
X2271961Y-2011531D02*
X2281485Y-2030579D01*
X2281485Y-2030579D02*
X2291008Y-2068674D01*
X2291008Y-2068674D02*
X2291008Y-2116293D01*
X2291008Y-2116293D02*
X2281485Y-2154389D01*
X2281485Y-2154389D02*
X2271961Y-2173436D01*
X2271961Y-2173436D02*
X2262437Y-2182960D01*
X2262437Y-2182960D02*
X2243389Y-2192484D01*
X2243389Y-2192484D02*
X2224342Y-2192484D01*
X2224342Y-2192484D02*
X2205294Y-2182960D01*
X2205294Y-2182960D02*
X2195770Y-2173436D01*
X2195770Y-2173436D02*
X2186246Y-2154389D01*
X2186246Y-2154389D02*
X2176723Y-2116293D01*
X2176723Y-2116293D02*
X2176723Y-2068674D01*
X2176723Y-2068674D02*
X2186246Y-2030579D01*
X2186246Y-2030579D02*
X2195770Y-2011531D01*
X2195770Y-2011531D02*
X2205294Y-2002008D01*
X2205294Y-2002008D02*
X2224342Y-1992484D01*
X2357675Y-1992484D02*
X2481485Y-1992484D01*
X2481485Y-1992484D02*
X2414818Y-2068674D01*
X2414818Y-2068674D02*
X2443389Y-2068674D01*
X2443389Y-2068674D02*
X2462437Y-2078198D01*
X2462437Y-2078198D02*
X2471961Y-2087722D01*
X2471961Y-2087722D02*
X2481485Y-2106770D01*
X2481485Y-2106770D02*
X2481485Y-2154389D01*
X2481485Y-2154389D02*
X2471961Y-2173436D01*
X2471961Y-2173436D02*
X2462437Y-2182960D01*
X2462437Y-2182960D02*
X2443389Y-2192484D01*
X2443389Y-2192484D02*
X2386246Y-2192484D01*
X2386246Y-2192484D02*
X2367199Y-2182960D01*
X2367199Y-2182960D02*
X2357675Y-2173436D01*
X2671961Y-2192484D02*
X2557675Y-2192484D01*
X2614818Y-2192484D02*
X2614818Y-1992484D01*
X2614818Y-1992484D02*
X2595770Y-2021055D01*
X2595770Y-2021055D02*
X2576723Y-2040103D01*
X2576723Y-2040103D02*
X2557675Y-2049627D01*
X2852913Y-1992484D02*
X2757675Y-1992484D01*
X2757675Y-1992484D02*
X2748151Y-2087722D01*
X2748151Y-2087722D02*
X2757675Y-2078198D01*
X2757675Y-2078198D02*
X2776723Y-2068674D01*
X2776723Y-2068674D02*
X2824342Y-2068674D01*
X2824342Y-2068674D02*
X2843389Y-2078198D01*
X2843389Y-2078198D02*
X2852913Y-2087722D01*
X2852913Y-2087722D02*
X2862437Y-2106770D01*
X2862437Y-2106770D02*
X2862437Y-2154389D01*
X2862437Y-2154389D02*
X2852913Y-2173436D01*
X2852913Y-2173436D02*
X2843389Y-2182960D01*
X2843389Y-2182960D02*
X2824342Y-2192484D01*
X2824342Y-2192484D02*
X2776723Y-2192484D01*
X2776723Y-2192484D02*
X2757675Y-2182960D01*
X2757675Y-2182960D02*
X2748151Y-2173436D01*
X2938627Y-1992484D02*
X2938627Y-2030579D01*
X3014818Y-1992484D02*
X3014818Y-2030579D01*
X3310056Y-2268674D02*
X3300532Y-2259150D01*
X3300532Y-2259150D02*
X3281485Y-2230579D01*
X3281485Y-2230579D02*
X3271961Y-2211531D01*
X3271961Y-2211531D02*
X3262437Y-2182960D01*
X3262437Y-2182960D02*
X3252913Y-2135341D01*
X3252913Y-2135341D02*
X3252913Y-2097246D01*
X3252913Y-2097246D02*
X3262437Y-2049627D01*
X3262437Y-2049627D02*
X3271961Y-2021055D01*
X3271961Y-2021055D02*
X3281485Y-2002008D01*
X3281485Y-2002008D02*
X3300532Y-1973436D01*
X3300532Y-1973436D02*
X3310056Y-1963912D01*
X3481485Y-1992484D02*
X3386246Y-1992484D01*
X3386246Y-1992484D02*
X3376723Y-2087722D01*
X3376723Y-2087722D02*
X3386246Y-2078198D01*
X3386246Y-2078198D02*
X3405294Y-2068674D01*
X3405294Y-2068674D02*
X3452913Y-2068674D01*
X3452913Y-2068674D02*
X3471961Y-2078198D01*
X3471961Y-2078198D02*
X3481485Y-2087722D01*
X3481485Y-2087722D02*
X3491008Y-2106770D01*
X3491008Y-2106770D02*
X3491008Y-2154389D01*
X3491008Y-2154389D02*
X3481485Y-2173436D01*
X3481485Y-2173436D02*
X3471961Y-2182960D01*
X3471961Y-2182960D02*
X3452913Y-2192484D01*
X3452913Y-2192484D02*
X3405294Y-2192484D01*
X3405294Y-2192484D02*
X3386246Y-2182960D01*
X3386246Y-2182960D02*
X3376723Y-2173436D01*
X3557675Y-1992484D02*
X3681485Y-1992484D01*
X3681485Y-1992484D02*
X3614818Y-2068674D01*
X3614818Y-2068674D02*
X3643389Y-2068674D01*
X3643389Y-2068674D02*
X3662437Y-2078198D01*
X3662437Y-2078198D02*
X3671961Y-2087722D01*
X3671961Y-2087722D02*
X3681485Y-2106770D01*
X3681485Y-2106770D02*
X3681485Y-2154389D01*
X3681485Y-2154389D02*
X3671961Y-2173436D01*
X3671961Y-2173436D02*
X3662437Y-2182960D01*
X3662437Y-2182960D02*
X3643389Y-2192484D01*
X3643389Y-2192484D02*
X3586246Y-2192484D01*
X3586246Y-2192484D02*
X3567199Y-2182960D01*
X3567199Y-2182960D02*
X3557675Y-2173436D01*
X3919580Y-2192484D02*
X3919580Y-1992484D01*
X4005294Y-2192484D02*
X4005294Y-2087722D01*
X4005294Y-2087722D02*
X3995770Y-2068674D01*
X3995770Y-2068674D02*
X3976723Y-2059150D01*
X3976723Y-2059150D02*
X3948151Y-2059150D01*
X3948151Y-2059150D02*
X3929104Y-2068674D01*
X3929104Y-2068674D02*
X3919580Y-2078198D01*
X4129104Y-2192484D02*
X4110056Y-2182960D01*
X4110056Y-2182960D02*
X4100532Y-2173436D01*
X4100532Y-2173436D02*
X4091008Y-2154389D01*
X4091008Y-2154389D02*
X4091008Y-2097246D01*
X4091008Y-2097246D02*
X4100532Y-2078198D01*
X4100532Y-2078198D02*
X4110056Y-2068674D01*
X4110056Y-2068674D02*
X4129104Y-2059150D01*
X4129104Y-2059150D02*
X4157675Y-2059150D01*
X4157675Y-2059150D02*
X4176723Y-2068674D01*
X4176723Y-2068674D02*
X4186247Y-2078198D01*
X4186247Y-2078198D02*
X4195770Y-2097246D01*
X4195770Y-2097246D02*
X4195770Y-2154389D01*
X4195770Y-2154389D02*
X4186247Y-2173436D01*
X4186247Y-2173436D02*
X4176723Y-2182960D01*
X4176723Y-2182960D02*
X4157675Y-2192484D01*
X4157675Y-2192484D02*
X4129104Y-2192484D01*
X4310056Y-2192484D02*
X4291009Y-2182960D01*
X4291009Y-2182960D02*
X4281485Y-2163912D01*
X4281485Y-2163912D02*
X4281485Y-1992484D01*
X4462437Y-2182960D02*
X4443390Y-2192484D01*
X4443390Y-2192484D02*
X4405294Y-2192484D01*
X4405294Y-2192484D02*
X4386247Y-2182960D01*
X4386247Y-2182960D02*
X4376723Y-2163912D01*
X4376723Y-2163912D02*
X4376723Y-2087722D01*
X4376723Y-2087722D02*
X4386247Y-2068674D01*
X4386247Y-2068674D02*
X4405294Y-2059150D01*
X4405294Y-2059150D02*
X4443390Y-2059150D01*
X4443390Y-2059150D02*
X4462437Y-2068674D01*
X4462437Y-2068674D02*
X4471961Y-2087722D01*
X4471961Y-2087722D02*
X4471961Y-2106770D01*
X4471961Y-2106770D02*
X4376723Y-2125817D01*
X4548151Y-2182960D02*
X4567199Y-2192484D01*
X4567199Y-2192484D02*
X4605294Y-2192484D01*
X4605294Y-2192484D02*
X4624342Y-2182960D01*
X4624342Y-2182960D02*
X4633866Y-2163912D01*
X4633866Y-2163912D02*
X4633866Y-2154389D01*
X4633866Y-2154389D02*
X4624342Y-2135341D01*
X4624342Y-2135341D02*
X4605294Y-2125817D01*
X4605294Y-2125817D02*
X4576723Y-2125817D01*
X4576723Y-2125817D02*
X4557675Y-2116293D01*
X4557675Y-2116293D02*
X4548151Y-2097246D01*
X4548151Y-2097246D02*
X4548151Y-2087722D01*
X4548151Y-2087722D02*
X4557675Y-2068674D01*
X4557675Y-2068674D02*
X4576723Y-2059150D01*
X4576723Y-2059150D02*
X4605294Y-2059150D01*
X4605294Y-2059150D02*
X4624342Y-2068674D01*
X4700532Y-2268674D02*
X4710056Y-2259150D01*
X4710056Y-2259150D02*
X4729104Y-2230579D01*
X4729104Y-2230579D02*
X4738628Y-2211531D01*
X4738628Y-2211531D02*
X4748151Y-2182960D01*
X4748151Y-2182960D02*
X4757675Y-2135341D01*
X4757675Y-2135341D02*
X4757675Y-2097246D01*
X4757675Y-2097246D02*
X4748151Y-2049627D01*
X4748151Y-2049627D02*
X4738628Y-2021055D01*
X4738628Y-2021055D02*
X4729104Y-2002008D01*
X4729104Y-2002008D02*
X4710056Y-1973436D01*
X4710056Y-1973436D02*
X4700532Y-1963912D01*
D12*
X-375007Y-2310000D02*
X-265007Y-2420000D01*
X-265007Y-2310000D02*
X-375007Y-2420000D01*
X-265007Y-2365000D02*
G75*
G03*
X-375007Y-2365000I-55000J0D01*
G01*
X-375007Y-2365000D02*
G75*
G03*
X-265007Y-2365000I55000J0D01*
G01*
D10*
X100532Y-2456484D02*
X-13754Y-2456484D01*
X43389Y-2456484D02*
X43389Y-2256484D01*
X43389Y-2256484D02*
X24341Y-2285055D01*
X24341Y-2285055D02*
X5294Y-2304103D01*
X5294Y-2304103D02*
X-13754Y-2313627D01*
X186246Y-2437436D02*
X195770Y-2446960D01*
X195770Y-2446960D02*
X186246Y-2456484D01*
X186246Y-2456484D02*
X176722Y-2446960D01*
X176722Y-2446960D02*
X186246Y-2437436D01*
X186246Y-2437436D02*
X186246Y-2456484D01*
X386246Y-2456484D02*
X271961Y-2456484D01*
X329103Y-2456484D02*
X329103Y-2256484D01*
X329103Y-2256484D02*
X310056Y-2285055D01*
X310056Y-2285055D02*
X291008Y-2304103D01*
X291008Y-2304103D02*
X271961Y-2313627D01*
X510056Y-2256484D02*
X529103Y-2256484D01*
X529103Y-2256484D02*
X548151Y-2266008D01*
X548151Y-2266008D02*
X557675Y-2275531D01*
X557675Y-2275531D02*
X567199Y-2294579D01*
X567199Y-2294579D02*
X576722Y-2332674D01*
X576722Y-2332674D02*
X576722Y-2380293D01*
X576722Y-2380293D02*
X567199Y-2418389D01*
X567199Y-2418389D02*
X557675Y-2437436D01*
X557675Y-2437436D02*
X548151Y-2446960D01*
X548151Y-2446960D02*
X529103Y-2456484D01*
X529103Y-2456484D02*
X510056Y-2456484D01*
X510056Y-2456484D02*
X491008Y-2446960D01*
X491008Y-2446960D02*
X481484Y-2437436D01*
X481484Y-2437436D02*
X471960Y-2418389D01*
X471960Y-2418389D02*
X462437Y-2380293D01*
X462437Y-2380293D02*
X462437Y-2332674D01*
X462437Y-2332674D02*
X471960Y-2294579D01*
X471960Y-2294579D02*
X481484Y-2275531D01*
X481484Y-2275531D02*
X491008Y-2266008D01*
X491008Y-2266008D02*
X510056Y-2256484D01*
X700532Y-2256484D02*
X719580Y-2256484D01*
X719580Y-2256484D02*
X738627Y-2266008D01*
X738627Y-2266008D02*
X748151Y-2275531D01*
X748151Y-2275531D02*
X757675Y-2294579D01*
X757675Y-2294579D02*
X767199Y-2332674D01*
X767199Y-2332674D02*
X767199Y-2380293D01*
X767199Y-2380293D02*
X757675Y-2418389D01*
X757675Y-2418389D02*
X748151Y-2437436D01*
X748151Y-2437436D02*
X738627Y-2446960D01*
X738627Y-2446960D02*
X719580Y-2456484D01*
X719580Y-2456484D02*
X700532Y-2456484D01*
X700532Y-2456484D02*
X681484Y-2446960D01*
X681484Y-2446960D02*
X671961Y-2437436D01*
X671961Y-2437436D02*
X662437Y-2418389D01*
X662437Y-2418389D02*
X652913Y-2380293D01*
X652913Y-2380293D02*
X652913Y-2332674D01*
X652913Y-2332674D02*
X662437Y-2294579D01*
X662437Y-2294579D02*
X671961Y-2275531D01*
X671961Y-2275531D02*
X681484Y-2266008D01*
X681484Y-2266008D02*
X700532Y-2256484D01*
X852913Y-2456484D02*
X852913Y-2323150D01*
X852913Y-2342198D02*
X862437Y-2332674D01*
X862437Y-2332674D02*
X881484Y-2323150D01*
X881484Y-2323150D02*
X910056Y-2323150D01*
X910056Y-2323150D02*
X929103Y-2332674D01*
X929103Y-2332674D02*
X938627Y-2351722D01*
X938627Y-2351722D02*
X938627Y-2456484D01*
X938627Y-2351722D02*
X948151Y-2332674D01*
X948151Y-2332674D02*
X967199Y-2323150D01*
X967199Y-2323150D02*
X995770Y-2323150D01*
X995770Y-2323150D02*
X1014818Y-2332674D01*
X1014818Y-2332674D02*
X1024341Y-2351722D01*
X1024341Y-2351722D02*
X1024341Y-2456484D01*
X1119580Y-2456484D02*
X1119580Y-2323150D01*
X1119580Y-2342198D02*
X1129103Y-2332674D01*
X1129103Y-2332674D02*
X1148151Y-2323150D01*
X1148151Y-2323150D02*
X1176723Y-2323150D01*
X1176723Y-2323150D02*
X1195770Y-2332674D01*
X1195770Y-2332674D02*
X1205294Y-2351722D01*
X1205294Y-2351722D02*
X1205294Y-2456484D01*
X1205294Y-2351722D02*
X1214818Y-2332674D01*
X1214818Y-2332674D02*
X1233865Y-2323150D01*
X1233865Y-2323150D02*
X1262437Y-2323150D01*
X1262437Y-2323150D02*
X1281484Y-2332674D01*
X1281484Y-2332674D02*
X1291008Y-2351722D01*
X1291008Y-2351722D02*
X1291008Y-2456484D01*
X1681484Y-2246960D02*
X1510056Y-2504103D01*
X1938627Y-2256484D02*
X1957675Y-2256484D01*
X1957675Y-2256484D02*
X1976723Y-2266008D01*
X1976723Y-2266008D02*
X1986246Y-2275531D01*
X1986246Y-2275531D02*
X1995770Y-2294579D01*
X1995770Y-2294579D02*
X2005294Y-2332674D01*
X2005294Y-2332674D02*
X2005294Y-2380293D01*
X2005294Y-2380293D02*
X1995770Y-2418389D01*
X1995770Y-2418389D02*
X1986246Y-2437436D01*
X1986246Y-2437436D02*
X1976723Y-2446960D01*
X1976723Y-2446960D02*
X1957675Y-2456484D01*
X1957675Y-2456484D02*
X1938627Y-2456484D01*
X1938627Y-2456484D02*
X1919580Y-2446960D01*
X1919580Y-2446960D02*
X1910056Y-2437436D01*
X1910056Y-2437436D02*
X1900532Y-2418389D01*
X1900532Y-2418389D02*
X1891008Y-2380293D01*
X1891008Y-2380293D02*
X1891008Y-2332674D01*
X1891008Y-2332674D02*
X1900532Y-2294579D01*
X1900532Y-2294579D02*
X1910056Y-2275531D01*
X1910056Y-2275531D02*
X1919580Y-2266008D01*
X1919580Y-2266008D02*
X1938627Y-2256484D01*
X2091008Y-2437436D02*
X2100532Y-2446960D01*
X2100532Y-2446960D02*
X2091008Y-2456484D01*
X2091008Y-2456484D02*
X2081484Y-2446960D01*
X2081484Y-2446960D02*
X2091008Y-2437436D01*
X2091008Y-2437436D02*
X2091008Y-2456484D01*
X2224342Y-2256484D02*
X2243389Y-2256484D01*
X2243389Y-2256484D02*
X2262437Y-2266008D01*
X2262437Y-2266008D02*
X2271961Y-2275531D01*
X2271961Y-2275531D02*
X2281485Y-2294579D01*
X2281485Y-2294579D02*
X2291008Y-2332674D01*
X2291008Y-2332674D02*
X2291008Y-2380293D01*
X2291008Y-2380293D02*
X2281485Y-2418389D01*
X2281485Y-2418389D02*
X2271961Y-2437436D01*
X2271961Y-2437436D02*
X2262437Y-2446960D01*
X2262437Y-2446960D02*
X2243389Y-2456484D01*
X2243389Y-2456484D02*
X2224342Y-2456484D01*
X2224342Y-2456484D02*
X2205294Y-2446960D01*
X2205294Y-2446960D02*
X2195770Y-2437436D01*
X2195770Y-2437436D02*
X2186246Y-2418389D01*
X2186246Y-2418389D02*
X2176723Y-2380293D01*
X2176723Y-2380293D02*
X2176723Y-2332674D01*
X2176723Y-2332674D02*
X2186246Y-2294579D01*
X2186246Y-2294579D02*
X2195770Y-2275531D01*
X2195770Y-2275531D02*
X2205294Y-2266008D01*
X2205294Y-2266008D02*
X2224342Y-2256484D01*
X2462437Y-2323150D02*
X2462437Y-2456484D01*
X2414818Y-2246960D02*
X2367199Y-2389817D01*
X2367199Y-2389817D02*
X2491008Y-2389817D01*
X2548151Y-2256484D02*
X2671961Y-2256484D01*
X2671961Y-2256484D02*
X2605294Y-2332674D01*
X2605294Y-2332674D02*
X2633866Y-2332674D01*
X2633866Y-2332674D02*
X2652913Y-2342198D01*
X2652913Y-2342198D02*
X2662437Y-2351722D01*
X2662437Y-2351722D02*
X2671961Y-2370770D01*
X2671961Y-2370770D02*
X2671961Y-2418389D01*
X2671961Y-2418389D02*
X2662437Y-2437436D01*
X2662437Y-2437436D02*
X2652913Y-2446960D01*
X2652913Y-2446960D02*
X2633866Y-2456484D01*
X2633866Y-2456484D02*
X2576723Y-2456484D01*
X2576723Y-2456484D02*
X2557675Y-2446960D01*
X2557675Y-2446960D02*
X2548151Y-2437436D01*
X2738627Y-2256484D02*
X2862437Y-2256484D01*
X2862437Y-2256484D02*
X2795770Y-2332674D01*
X2795770Y-2332674D02*
X2824342Y-2332674D01*
X2824342Y-2332674D02*
X2843389Y-2342198D01*
X2843389Y-2342198D02*
X2852913Y-2351722D01*
X2852913Y-2351722D02*
X2862437Y-2370770D01*
X2862437Y-2370770D02*
X2862437Y-2418389D01*
X2862437Y-2418389D02*
X2852913Y-2437436D01*
X2852913Y-2437436D02*
X2843389Y-2446960D01*
X2843389Y-2446960D02*
X2824342Y-2456484D01*
X2824342Y-2456484D02*
X2767199Y-2456484D01*
X2767199Y-2456484D02*
X2748151Y-2446960D01*
X2748151Y-2446960D02*
X2738627Y-2437436D01*
X2938627Y-2256484D02*
X2938627Y-2294579D01*
X3014818Y-2256484D02*
X3014818Y-2294579D01*
X3310056Y-2532674D02*
X3300532Y-2523150D01*
X3300532Y-2523150D02*
X3281485Y-2494579D01*
X3281485Y-2494579D02*
X3271961Y-2475531D01*
X3271961Y-2475531D02*
X3262437Y-2446960D01*
X3262437Y-2446960D02*
X3252913Y-2399341D01*
X3252913Y-2399341D02*
X3252913Y-2361246D01*
X3252913Y-2361246D02*
X3262437Y-2313627D01*
X3262437Y-2313627D02*
X3271961Y-2285055D01*
X3271961Y-2285055D02*
X3281485Y-2266008D01*
X3281485Y-2266008D02*
X3300532Y-2237436D01*
X3300532Y-2237436D02*
X3310056Y-2227912D01*
X3491008Y-2456484D02*
X3376723Y-2456484D01*
X3433865Y-2456484D02*
X3433865Y-2256484D01*
X3433865Y-2256484D02*
X3414818Y-2285055D01*
X3414818Y-2285055D02*
X3395770Y-2304103D01*
X3395770Y-2304103D02*
X3376723Y-2313627D01*
X3729104Y-2456484D02*
X3729104Y-2256484D01*
X3814818Y-2456484D02*
X3814818Y-2351722D01*
X3814818Y-2351722D02*
X3805294Y-2332674D01*
X3805294Y-2332674D02*
X3786247Y-2323150D01*
X3786247Y-2323150D02*
X3757675Y-2323150D01*
X3757675Y-2323150D02*
X3738627Y-2332674D01*
X3738627Y-2332674D02*
X3729104Y-2342198D01*
X3938627Y-2456484D02*
X3919580Y-2446960D01*
X3919580Y-2446960D02*
X3910056Y-2437436D01*
X3910056Y-2437436D02*
X3900532Y-2418389D01*
X3900532Y-2418389D02*
X3900532Y-2361246D01*
X3900532Y-2361246D02*
X3910056Y-2342198D01*
X3910056Y-2342198D02*
X3919580Y-2332674D01*
X3919580Y-2332674D02*
X3938627Y-2323150D01*
X3938627Y-2323150D02*
X3967199Y-2323150D01*
X3967199Y-2323150D02*
X3986247Y-2332674D01*
X3986247Y-2332674D02*
X3995770Y-2342198D01*
X3995770Y-2342198D02*
X4005294Y-2361246D01*
X4005294Y-2361246D02*
X4005294Y-2418389D01*
X4005294Y-2418389D02*
X3995770Y-2437436D01*
X3995770Y-2437436D02*
X3986247Y-2446960D01*
X3986247Y-2446960D02*
X3967199Y-2456484D01*
X3967199Y-2456484D02*
X3938627Y-2456484D01*
X4119580Y-2456484D02*
X4100532Y-2446960D01*
X4100532Y-2446960D02*
X4091008Y-2427912D01*
X4091008Y-2427912D02*
X4091008Y-2256484D01*
X4271961Y-2446960D02*
X4252913Y-2456484D01*
X4252913Y-2456484D02*
X4214818Y-2456484D01*
X4214818Y-2456484D02*
X4195770Y-2446960D01*
X4195770Y-2446960D02*
X4186247Y-2427912D01*
X4186247Y-2427912D02*
X4186247Y-2351722D01*
X4186247Y-2351722D02*
X4195770Y-2332674D01*
X4195770Y-2332674D02*
X4214818Y-2323150D01*
X4214818Y-2323150D02*
X4252913Y-2323150D01*
X4252913Y-2323150D02*
X4271961Y-2332674D01*
X4271961Y-2332674D02*
X4281485Y-2351722D01*
X4281485Y-2351722D02*
X4281485Y-2370770D01*
X4281485Y-2370770D02*
X4186247Y-2389817D01*
X4348151Y-2532674D02*
X4357675Y-2523150D01*
X4357675Y-2523150D02*
X4376723Y-2494579D01*
X4376723Y-2494579D02*
X4386247Y-2475531D01*
X4386247Y-2475531D02*
X4395770Y-2446960D01*
X4395770Y-2446960D02*
X4405294Y-2399341D01*
X4405294Y-2399341D02*
X4405294Y-2361246D01*
X4405294Y-2361246D02*
X4395770Y-2313627D01*
X4395770Y-2313627D02*
X4386247Y-2285055D01*
X4386247Y-2285055D02*
X4376723Y-2266008D01*
X4376723Y-2266008D02*
X4357675Y-2237436D01*
X4357675Y-2237436D02*
X4348151Y-2227912D01*
D13*
X-405007Y-2559000D02*
X-265007Y-2699000D01*
X-265007Y-2559000D02*
X-405007Y-2699000D01*
X-335007Y-2559000D02*
X-335007Y-2699000D01*
X-405007Y-2629000D02*
X-265007Y-2629000D01*
D10*
X100532Y-2720484D02*
X-13754Y-2720484D01*
X43389Y-2720484D02*
X43389Y-2520484D01*
X43389Y-2520484D02*
X24341Y-2549055D01*
X24341Y-2549055D02*
X5294Y-2568103D01*
X5294Y-2568103D02*
X-13754Y-2577627D01*
X186246Y-2701436D02*
X195770Y-2710960D01*
X195770Y-2710960D02*
X186246Y-2720484D01*
X186246Y-2720484D02*
X176722Y-2710960D01*
X176722Y-2710960D02*
X186246Y-2701436D01*
X186246Y-2701436D02*
X186246Y-2720484D01*
X367199Y-2587150D02*
X367199Y-2720484D01*
X319580Y-2510960D02*
X271961Y-2653817D01*
X271961Y-2653817D02*
X395770Y-2653817D01*
X510056Y-2520484D02*
X529103Y-2520484D01*
X529103Y-2520484D02*
X548151Y-2530008D01*
X548151Y-2530008D02*
X557675Y-2539531D01*
X557675Y-2539531D02*
X567199Y-2558579D01*
X567199Y-2558579D02*
X576722Y-2596674D01*
X576722Y-2596674D02*
X576722Y-2644293D01*
X576722Y-2644293D02*
X567199Y-2682389D01*
X567199Y-2682389D02*
X557675Y-2701436D01*
X557675Y-2701436D02*
X548151Y-2710960D01*
X548151Y-2710960D02*
X529103Y-2720484D01*
X529103Y-2720484D02*
X510056Y-2720484D01*
X510056Y-2720484D02*
X491008Y-2710960D01*
X491008Y-2710960D02*
X481484Y-2701436D01*
X481484Y-2701436D02*
X471960Y-2682389D01*
X471960Y-2682389D02*
X462437Y-2644293D01*
X462437Y-2644293D02*
X462437Y-2596674D01*
X462437Y-2596674D02*
X471960Y-2558579D01*
X471960Y-2558579D02*
X481484Y-2539531D01*
X481484Y-2539531D02*
X491008Y-2530008D01*
X491008Y-2530008D02*
X510056Y-2520484D01*
X700532Y-2520484D02*
X719580Y-2520484D01*
X719580Y-2520484D02*
X738627Y-2530008D01*
X738627Y-2530008D02*
X748151Y-2539531D01*
X748151Y-2539531D02*
X757675Y-2558579D01*
X757675Y-2558579D02*
X767199Y-2596674D01*
X767199Y-2596674D02*
X767199Y-2644293D01*
X767199Y-2644293D02*
X757675Y-2682389D01*
X757675Y-2682389D02*
X748151Y-2701436D01*
X748151Y-2701436D02*
X738627Y-2710960D01*
X738627Y-2710960D02*
X719580Y-2720484D01*
X719580Y-2720484D02*
X700532Y-2720484D01*
X700532Y-2720484D02*
X681484Y-2710960D01*
X681484Y-2710960D02*
X671961Y-2701436D01*
X671961Y-2701436D02*
X662437Y-2682389D01*
X662437Y-2682389D02*
X652913Y-2644293D01*
X652913Y-2644293D02*
X652913Y-2596674D01*
X652913Y-2596674D02*
X662437Y-2558579D01*
X662437Y-2558579D02*
X671961Y-2539531D01*
X671961Y-2539531D02*
X681484Y-2530008D01*
X681484Y-2530008D02*
X700532Y-2520484D01*
X852913Y-2720484D02*
X852913Y-2587150D01*
X852913Y-2606198D02*
X862437Y-2596674D01*
X862437Y-2596674D02*
X881484Y-2587150D01*
X881484Y-2587150D02*
X910056Y-2587150D01*
X910056Y-2587150D02*
X929103Y-2596674D01*
X929103Y-2596674D02*
X938627Y-2615722D01*
X938627Y-2615722D02*
X938627Y-2720484D01*
X938627Y-2615722D02*
X948151Y-2596674D01*
X948151Y-2596674D02*
X967199Y-2587150D01*
X967199Y-2587150D02*
X995770Y-2587150D01*
X995770Y-2587150D02*
X1014818Y-2596674D01*
X1014818Y-2596674D02*
X1024341Y-2615722D01*
X1024341Y-2615722D02*
X1024341Y-2720484D01*
X1119580Y-2720484D02*
X1119580Y-2587150D01*
X1119580Y-2606198D02*
X1129103Y-2596674D01*
X1129103Y-2596674D02*
X1148151Y-2587150D01*
X1148151Y-2587150D02*
X1176723Y-2587150D01*
X1176723Y-2587150D02*
X1195770Y-2596674D01*
X1195770Y-2596674D02*
X1205294Y-2615722D01*
X1205294Y-2615722D02*
X1205294Y-2720484D01*
X1205294Y-2615722D02*
X1214818Y-2596674D01*
X1214818Y-2596674D02*
X1233865Y-2587150D01*
X1233865Y-2587150D02*
X1262437Y-2587150D01*
X1262437Y-2587150D02*
X1281484Y-2596674D01*
X1281484Y-2596674D02*
X1291008Y-2615722D01*
X1291008Y-2615722D02*
X1291008Y-2720484D01*
X1681484Y-2510960D02*
X1510056Y-2768103D01*
X1938627Y-2520484D02*
X1957675Y-2520484D01*
X1957675Y-2520484D02*
X1976723Y-2530008D01*
X1976723Y-2530008D02*
X1986246Y-2539531D01*
X1986246Y-2539531D02*
X1995770Y-2558579D01*
X1995770Y-2558579D02*
X2005294Y-2596674D01*
X2005294Y-2596674D02*
X2005294Y-2644293D01*
X2005294Y-2644293D02*
X1995770Y-2682389D01*
X1995770Y-2682389D02*
X1986246Y-2701436D01*
X1986246Y-2701436D02*
X1976723Y-2710960D01*
X1976723Y-2710960D02*
X1957675Y-2720484D01*
X1957675Y-2720484D02*
X1938627Y-2720484D01*
X1938627Y-2720484D02*
X1919580Y-2710960D01*
X1919580Y-2710960D02*
X1910056Y-2701436D01*
X1910056Y-2701436D02*
X1900532Y-2682389D01*
X1900532Y-2682389D02*
X1891008Y-2644293D01*
X1891008Y-2644293D02*
X1891008Y-2596674D01*
X1891008Y-2596674D02*
X1900532Y-2558579D01*
X1900532Y-2558579D02*
X1910056Y-2539531D01*
X1910056Y-2539531D02*
X1919580Y-2530008D01*
X1919580Y-2530008D02*
X1938627Y-2520484D01*
X2091008Y-2701436D02*
X2100532Y-2710960D01*
X2100532Y-2710960D02*
X2091008Y-2720484D01*
X2091008Y-2720484D02*
X2081484Y-2710960D01*
X2081484Y-2710960D02*
X2091008Y-2701436D01*
X2091008Y-2701436D02*
X2091008Y-2720484D01*
X2224342Y-2520484D02*
X2243389Y-2520484D01*
X2243389Y-2520484D02*
X2262437Y-2530008D01*
X2262437Y-2530008D02*
X2271961Y-2539531D01*
X2271961Y-2539531D02*
X2281485Y-2558579D01*
X2281485Y-2558579D02*
X2291008Y-2596674D01*
X2291008Y-2596674D02*
X2291008Y-2644293D01*
X2291008Y-2644293D02*
X2281485Y-2682389D01*
X2281485Y-2682389D02*
X2271961Y-2701436D01*
X2271961Y-2701436D02*
X2262437Y-2710960D01*
X2262437Y-2710960D02*
X2243389Y-2720484D01*
X2243389Y-2720484D02*
X2224342Y-2720484D01*
X2224342Y-2720484D02*
X2205294Y-2710960D01*
X2205294Y-2710960D02*
X2195770Y-2701436D01*
X2195770Y-2701436D02*
X2186246Y-2682389D01*
X2186246Y-2682389D02*
X2176723Y-2644293D01*
X2176723Y-2644293D02*
X2176723Y-2596674D01*
X2176723Y-2596674D02*
X2186246Y-2558579D01*
X2186246Y-2558579D02*
X2195770Y-2539531D01*
X2195770Y-2539531D02*
X2205294Y-2530008D01*
X2205294Y-2530008D02*
X2224342Y-2520484D01*
X2471961Y-2520484D02*
X2376723Y-2520484D01*
X2376723Y-2520484D02*
X2367199Y-2615722D01*
X2367199Y-2615722D02*
X2376723Y-2606198D01*
X2376723Y-2606198D02*
X2395770Y-2596674D01*
X2395770Y-2596674D02*
X2443389Y-2596674D01*
X2443389Y-2596674D02*
X2462437Y-2606198D01*
X2462437Y-2606198D02*
X2471961Y-2615722D01*
X2471961Y-2615722D02*
X2481485Y-2634770D01*
X2481485Y-2634770D02*
X2481485Y-2682389D01*
X2481485Y-2682389D02*
X2471961Y-2701436D01*
X2471961Y-2701436D02*
X2462437Y-2710960D01*
X2462437Y-2710960D02*
X2443389Y-2720484D01*
X2443389Y-2720484D02*
X2395770Y-2720484D01*
X2395770Y-2720484D02*
X2376723Y-2710960D01*
X2376723Y-2710960D02*
X2367199Y-2701436D01*
X2662437Y-2520484D02*
X2567199Y-2520484D01*
X2567199Y-2520484D02*
X2557675Y-2615722D01*
X2557675Y-2615722D02*
X2567199Y-2606198D01*
X2567199Y-2606198D02*
X2586246Y-2596674D01*
X2586246Y-2596674D02*
X2633866Y-2596674D01*
X2633866Y-2596674D02*
X2652913Y-2606198D01*
X2652913Y-2606198D02*
X2662437Y-2615722D01*
X2662437Y-2615722D02*
X2671961Y-2634770D01*
X2671961Y-2634770D02*
X2671961Y-2682389D01*
X2671961Y-2682389D02*
X2662437Y-2701436D01*
X2662437Y-2701436D02*
X2652913Y-2710960D01*
X2652913Y-2710960D02*
X2633866Y-2720484D01*
X2633866Y-2720484D02*
X2586246Y-2720484D01*
X2586246Y-2720484D02*
X2567199Y-2710960D01*
X2567199Y-2710960D02*
X2557675Y-2701436D01*
X2862437Y-2720484D02*
X2748151Y-2720484D01*
X2805294Y-2720484D02*
X2805294Y-2520484D01*
X2805294Y-2520484D02*
X2786246Y-2549055D01*
X2786246Y-2549055D02*
X2767199Y-2568103D01*
X2767199Y-2568103D02*
X2748151Y-2577627D01*
X2938627Y-2520484D02*
X2938627Y-2558579D01*
X3014818Y-2520484D02*
X3014818Y-2558579D01*
X3310056Y-2796674D02*
X3300532Y-2787150D01*
X3300532Y-2787150D02*
X3281485Y-2758579D01*
X3281485Y-2758579D02*
X3271961Y-2739531D01*
X3271961Y-2739531D02*
X3262437Y-2710960D01*
X3262437Y-2710960D02*
X3252913Y-2663341D01*
X3252913Y-2663341D02*
X3252913Y-2625246D01*
X3252913Y-2625246D02*
X3262437Y-2577627D01*
X3262437Y-2577627D02*
X3271961Y-2549055D01*
X3271961Y-2549055D02*
X3281485Y-2530008D01*
X3281485Y-2530008D02*
X3300532Y-2501436D01*
X3300532Y-2501436D02*
X3310056Y-2491912D01*
X3471961Y-2587150D02*
X3471961Y-2720484D01*
X3424342Y-2510960D02*
X3376723Y-2653817D01*
X3376723Y-2653817D02*
X3500532Y-2653817D01*
X3729104Y-2720484D02*
X3729104Y-2520484D01*
X3814818Y-2720484D02*
X3814818Y-2615722D01*
X3814818Y-2615722D02*
X3805294Y-2596674D01*
X3805294Y-2596674D02*
X3786247Y-2587150D01*
X3786247Y-2587150D02*
X3757675Y-2587150D01*
X3757675Y-2587150D02*
X3738627Y-2596674D01*
X3738627Y-2596674D02*
X3729104Y-2606198D01*
X3938627Y-2720484D02*
X3919580Y-2710960D01*
X3919580Y-2710960D02*
X3910056Y-2701436D01*
X3910056Y-2701436D02*
X3900532Y-2682389D01*
X3900532Y-2682389D02*
X3900532Y-2625246D01*
X3900532Y-2625246D02*
X3910056Y-2606198D01*
X3910056Y-2606198D02*
X3919580Y-2596674D01*
X3919580Y-2596674D02*
X3938627Y-2587150D01*
X3938627Y-2587150D02*
X3967199Y-2587150D01*
X3967199Y-2587150D02*
X3986247Y-2596674D01*
X3986247Y-2596674D02*
X3995770Y-2606198D01*
X3995770Y-2606198D02*
X4005294Y-2625246D01*
X4005294Y-2625246D02*
X4005294Y-2682389D01*
X4005294Y-2682389D02*
X3995770Y-2701436D01*
X3995770Y-2701436D02*
X3986247Y-2710960D01*
X3986247Y-2710960D02*
X3967199Y-2720484D01*
X3967199Y-2720484D02*
X3938627Y-2720484D01*
X4119580Y-2720484D02*
X4100532Y-2710960D01*
X4100532Y-2710960D02*
X4091008Y-2691912D01*
X4091008Y-2691912D02*
X4091008Y-2520484D01*
X4271961Y-2710960D02*
X4252913Y-2720484D01*
X4252913Y-2720484D02*
X4214818Y-2720484D01*
X4214818Y-2720484D02*
X4195770Y-2710960D01*
X4195770Y-2710960D02*
X4186247Y-2691912D01*
X4186247Y-2691912D02*
X4186247Y-2615722D01*
X4186247Y-2615722D02*
X4195770Y-2596674D01*
X4195770Y-2596674D02*
X4214818Y-2587150D01*
X4214818Y-2587150D02*
X4252913Y-2587150D01*
X4252913Y-2587150D02*
X4271961Y-2596674D01*
X4271961Y-2596674D02*
X4281485Y-2615722D01*
X4281485Y-2615722D02*
X4281485Y-2634770D01*
X4281485Y-2634770D02*
X4186247Y-2653817D01*
X4357675Y-2710960D02*
X4376723Y-2720484D01*
X4376723Y-2720484D02*
X4414818Y-2720484D01*
X4414818Y-2720484D02*
X4433866Y-2710960D01*
X4433866Y-2710960D02*
X4443390Y-2691912D01*
X4443390Y-2691912D02*
X4443390Y-2682389D01*
X4443390Y-2682389D02*
X4433866Y-2663341D01*
X4433866Y-2663341D02*
X4414818Y-2653817D01*
X4414818Y-2653817D02*
X4386247Y-2653817D01*
X4386247Y-2653817D02*
X4367199Y-2644293D01*
X4367199Y-2644293D02*
X4357675Y-2625246D01*
X4357675Y-2625246D02*
X4357675Y-2615722D01*
X4357675Y-2615722D02*
X4367199Y-2596674D01*
X4367199Y-2596674D02*
X4386247Y-2587150D01*
X4386247Y-2587150D02*
X4414818Y-2587150D01*
X4414818Y-2587150D02*
X4433866Y-2596674D01*
X4510056Y-2796674D02*
X4519580Y-2787150D01*
X4519580Y-2787150D02*
X4538628Y-2758579D01*
X4538628Y-2758579D02*
X4548151Y-2739531D01*
X4548151Y-2739531D02*
X4557675Y-2710960D01*
X4557675Y-2710960D02*
X4567199Y-2663341D01*
X4567199Y-2663341D02*
X4567199Y-2625246D01*
X4567199Y-2625246D02*
X4557675Y-2577627D01*
X4557675Y-2577627D02*
X4548151Y-2549055D01*
X4548151Y-2549055D02*
X4538628Y-2530008D01*
X4538628Y-2530008D02*
X4519580Y-2501436D01*
X4519580Y-2501436D02*
X4510056Y-2491912D01*
M02*
