G04 #@! TF.GenerationSoftware,KiCad,Pcbnew,7.0.11-7.0.11~ubuntu23.10.1*
G04 #@! TF.CreationDate,2024-06-16T14:32:52+02:00*
G04 #@! TF.ProjectId,WiRoc_NanoPi,5769526f-635f-44e6-916e-6f50692e6b69,rev?*
G04 #@! TF.SameCoordinates,Original*
G04 #@! TF.FileFunction,Soldermask,Bot*
G04 #@! TF.FilePolarity,Negative*
%FSLAX46Y46*%
G04 Gerber Fmt 4.6, Leading zero omitted, Abs format (unit mm)*
G04 Created by KiCad (PCBNEW 7.0.11-7.0.11~ubuntu23.10.1) date 2024-06-16 14:32:52*
%MOMM*%
%LPD*%
G01*
G04 APERTURE LIST*
G04 Aperture macros list*
%AMRoundRect*
0 Rectangle with rounded corners*
0 $1 Rounding radius*
0 $2 $3 $4 $5 $6 $7 $8 $9 X,Y pos of 4 corners*
0 Add a 4 corners polygon primitive as box body*
4,1,4,$2,$3,$4,$5,$6,$7,$8,$9,$2,$3,0*
0 Add four circle primitives for the rounded corners*
1,1,$1+$1,$2,$3*
1,1,$1+$1,$4,$5*
1,1,$1+$1,$6,$7*
1,1,$1+$1,$8,$9*
0 Add four rect primitives between the rounded corners*
20,1,$1+$1,$2,$3,$4,$5,0*
20,1,$1+$1,$4,$5,$6,$7,0*
20,1,$1+$1,$6,$7,$8,$9,0*
20,1,$1+$1,$8,$9,$2,$3,0*%
G04 Aperture macros list end*
%ADD10R,1.700000X1.700000*%
%ADD11O,1.700000X1.700000*%
%ADD12R,1.000000X1.000000*%
%ADD13O,1.000000X1.000000*%
%ADD14C,1.000000*%
%ADD15RoundRect,0.200100X-0.949900X0.949900X-0.949900X-0.949900X0.949900X-0.949900X0.949900X0.949900X0*%
%ADD16C,2.500000*%
G04 APERTURE END LIST*
D10*
G04 #@! TO.C,J6*
X10790000Y-2100000D03*
D11*
X8250000Y-2100000D03*
X5710000Y-2100000D03*
G04 #@! TD*
D10*
G04 #@! TO.C,U2*
X39128000Y63240000D03*
D11*
X39128000Y60700000D03*
X39128000Y58160000D03*
X39128000Y55620000D03*
G04 #@! TD*
D10*
G04 #@! TO.C,J7*
X39570000Y33235000D03*
D11*
X42110000Y33235000D03*
X39570000Y30695000D03*
X42110000Y30695000D03*
X39570000Y28155000D03*
X42110000Y28155000D03*
X39570000Y25615000D03*
X42110000Y25615000D03*
X39570000Y23075000D03*
X42110000Y23075000D03*
X39570000Y20535000D03*
X42110000Y20535000D03*
X39570000Y17995000D03*
X42110000Y17995000D03*
X39570000Y15455000D03*
X42110000Y15455000D03*
X39570000Y12915000D03*
X42110000Y12915000D03*
X39570000Y10375000D03*
X42110000Y10375000D03*
X39570000Y7835000D03*
X42110000Y7835000D03*
X39570000Y5295000D03*
X42110000Y5295000D03*
D10*
X4560000Y33235000D03*
D11*
X4560000Y30695000D03*
X4560000Y28155000D03*
X4560000Y25615000D03*
X4560000Y23075000D03*
X4560000Y20535000D03*
X4560000Y17995000D03*
X4560000Y15455000D03*
X4560000Y12915000D03*
X4560000Y10375000D03*
X4560000Y7835000D03*
X4560000Y5295000D03*
D10*
X7100000Y5295000D03*
D11*
X7100000Y7835000D03*
X7100000Y10375000D03*
X7100000Y12915000D03*
D10*
X7100000Y15455000D03*
D11*
X7100000Y17995000D03*
X7100000Y20535000D03*
X7100000Y23075000D03*
G04 #@! TD*
D12*
G04 #@! TO.C,J8*
X21250000Y60400000D03*
D13*
X22520000Y60400000D03*
X23790000Y60400000D03*
X25060000Y60400000D03*
X26330000Y60400000D03*
X27600000Y60400000D03*
G04 #@! TD*
D12*
G04 #@! TO.C,J1*
X190000Y49000000D03*
D13*
X190000Y50270000D03*
X1460000Y49000000D03*
X1460000Y50270000D03*
X2730000Y49000000D03*
X2730000Y50270000D03*
X4000000Y49000000D03*
X4000000Y50270000D03*
X5270000Y49000000D03*
X5270000Y50270000D03*
G04 #@! TD*
D12*
G04 #@! TO.C,J2*
X8550000Y60400000D03*
D13*
X9820000Y60400000D03*
X11090000Y60400000D03*
X12360000Y60400000D03*
G04 #@! TD*
D14*
G04 #@! TO.C,TP4*
X25060000Y33520000D03*
G04 #@! TD*
D10*
G04 #@! TO.C,SW1*
X28830000Y-1670000D03*
D11*
X26290000Y-1670000D03*
G04 #@! TD*
D15*
G04 #@! TO.C,J9*
X3450000Y43357800D03*
D16*
X5990000Y45897800D03*
X910000Y45897800D03*
X5990000Y40817800D03*
X910000Y40817800D03*
G04 #@! TD*
D14*
G04 #@! TO.C,TP3*
X22860000Y31369000D03*
G04 #@! TD*
D12*
G04 #@! TO.C,J10*
X1950000Y34505000D03*
D13*
X1950000Y33235000D03*
X1950000Y31965000D03*
X1950000Y30695000D03*
X1950000Y29425000D03*
X1950000Y28155000D03*
X1950000Y26885000D03*
X1950000Y25615000D03*
X1950000Y24345000D03*
G04 #@! TD*
D12*
G04 #@! TO.C,J4*
X1950000Y16725000D03*
D13*
X1950000Y15455000D03*
X1950000Y14185000D03*
X1950000Y12915000D03*
X1950000Y11645000D03*
X1950000Y10375000D03*
X1950000Y9105000D03*
X1950000Y7835000D03*
X1950000Y6565000D03*
G04 #@! TD*
D12*
G04 #@! TO.C,J5*
X1950000Y56095000D03*
D13*
X1950000Y54825000D03*
X1950000Y53555000D03*
X1950000Y52285000D03*
G04 #@! TD*
D14*
G04 #@! TO.C,TP6*
X26238200Y14655800D03*
G04 #@! TD*
G04 #@! TO.C,TP5*
X10261600Y27482800D03*
G04 #@! TD*
M02*
