G04 #@! TF.GenerationSoftware,KiCad,Pcbnew,7.0.11-7.0.11~ubuntu23.10.1*
G04 #@! TF.CreationDate,2024-06-16T14:32:52+02:00*
G04 #@! TF.ProjectId,WiRoc_NanoPi,5769526f-635f-44e6-916e-6f50692e6b69,rev?*
G04 #@! TF.SameCoordinates,Original*
G04 #@! TF.FileFunction,Copper,L3,Inr*
G04 #@! TF.FilePolarity,Positive*
%FSLAX46Y46*%
G04 Gerber Fmt 4.6, Leading zero omitted, Abs format (unit mm)*
G04 Created by KiCad (PCBNEW 7.0.11-7.0.11~ubuntu23.10.1) date 2024-06-16 14:32:52*
%MOMM*%
%LPD*%
G01*
G04 APERTURE LIST*
G04 #@! TA.AperFunction,ComponentPad*
%ADD10R,1.700000X1.700000*%
G04 #@! TD*
G04 #@! TA.AperFunction,ComponentPad*
%ADD11O,1.700000X1.700000*%
G04 #@! TD*
G04 #@! TA.AperFunction,ComponentPad*
%ADD12R,1.000000X1.000000*%
G04 #@! TD*
G04 #@! TA.AperFunction,ComponentPad*
%ADD13O,1.000000X1.000000*%
G04 #@! TD*
G04 #@! TA.AperFunction,ComponentPad*
%ADD14C,2.500000*%
G04 #@! TD*
G04 #@! TA.AperFunction,ViaPad*
%ADD15C,0.400000*%
G04 #@! TD*
G04 #@! TA.AperFunction,ViaPad*
%ADD16C,0.500000*%
G04 #@! TD*
G04 #@! TA.AperFunction,ViaPad*
%ADD17C,0.600000*%
G04 #@! TD*
G04 APERTURE END LIST*
D10*
G04 #@! TO.N,GND*
G04 #@! TO.C,J6*
X10790000Y-2100000D03*
D11*
G04 #@! TO.N,Net-(J6-Pin_2)*
X8250000Y-2100000D03*
G04 #@! TO.N,Net-(J6-Pin_3)*
X5710000Y-2100000D03*
G04 #@! TD*
D10*
G04 #@! TO.N,GND*
G04 #@! TO.C,U2*
X39128000Y63240000D03*
D11*
G04 #@! TO.N,SYS_3.3V*
X39128000Y60700000D03*
G04 #@! TO.N,SCK*
X39128000Y58160000D03*
G04 #@! TO.N,SDA*
X39128000Y55620000D03*
G04 #@! TD*
D10*
G04 #@! TO.N,SYS_3.3V*
G04 #@! TO.C,J7*
X39570000Y33235000D03*
D11*
G04 #@! TO.N,VDD_5V*
X42110000Y33235000D03*
G04 #@! TO.N,SDA*
X39570000Y30695000D03*
G04 #@! TO.N,VDD_5V*
X42110000Y30695000D03*
G04 #@! TO.N,SCK*
X39570000Y28155000D03*
G04 #@! TO.N,GND*
X42110000Y28155000D03*
G04 #@! TO.N,unconnected-(J7-GPIOG11-Pad7)*
X39570000Y25615000D03*
G04 #@! TO.N,UART1_TX*
X42110000Y25615000D03*
G04 #@! TO.N,GND*
X39570000Y23075000D03*
G04 #@! TO.N,UART1_RX*
X42110000Y23075000D03*
G04 #@! TO.N,UART2_TX*
X39570000Y20535000D03*
G04 #@! TO.N,SRR_IRQ*
X42110000Y20535000D03*
G04 #@! TO.N,LORAEN*
X39570000Y17995000D03*
G04 #@! TO.N,GND*
X42110000Y17995000D03*
G04 #@! TO.N,IRQ*
X39570000Y15455000D03*
G04 #@! TO.N,unconnected-(J7-UART1_RTS-Pad16)*
X42110000Y15455000D03*
G04 #@! TO.N,SYS_3.3V*
X39570000Y12915000D03*
G04 #@! TO.N,unconnected-(J7-UART1_CTS-Pad18)*
X42110000Y12915000D03*
G04 #@! TO.N,LORAAUX*
X39570000Y10375000D03*
G04 #@! TO.N,GND*
X42110000Y10375000D03*
G04 #@! TO.N,N_VBUSEN*
X39570000Y7835000D03*
G04 #@! TO.N,UART2_RX*
X42110000Y7835000D03*
G04 #@! TO.N,unconnected-(J7-GPIOC2-Pad23)*
X39570000Y5295000D03*
G04 #@! TO.N,SRR_NRST*
X42110000Y5295000D03*
D10*
G04 #@! TO.N,unconnected-(J7-VDD_5V-Pad31)*
X4560000Y33235000D03*
D11*
G04 #@! TO.N,USBHost-DP1*
X4560000Y30695000D03*
G04 #@! TO.N,USBHost-DM1*
X4560000Y28155000D03*
G04 #@! TO.N,USBHost-DP2*
X4560000Y25615000D03*
G04 #@! TO.N,USBHost-DM2*
X4560000Y23075000D03*
G04 #@! TO.N,LORARS*
X4560000Y20535000D03*
G04 #@! TO.N,LORAMO*
X4560000Y17995000D03*
G04 #@! TO.N,unconnected-(J7-I2S0_LRC-Pad38)*
X4560000Y15455000D03*
G04 #@! TO.N,unconnected-(J7-I2S0_BCK-Pad39)*
X4560000Y12915000D03*
G04 #@! TO.N,unconnected-(J7-I2S0_SDOUT-Pad40)*
X4560000Y10375000D03*
G04 #@! TO.N,unconnected-(J7-I2S0_SDIN-Pad41)*
X4560000Y7835000D03*
G04 #@! TO.N,GND*
X4560000Y5295000D03*
D10*
X7100000Y5295000D03*
D11*
G04 #@! TO.N,unconnected-(J7-VDD_5V-Pad52)*
X7100000Y7835000D03*
G04 #@! TO.N,Net-(J6-Pin_2)*
X7100000Y10375000D03*
G04 #@! TO.N,Net-(J6-Pin_3)*
X7100000Y12915000D03*
D10*
G04 #@! TO.N,unconnected-(J7-LineOut-LL-Pad61)*
X7100000Y15455000D03*
D11*
G04 #@! TO.N,unconnected-(J7-LineOut-LR-Pad62)*
X7100000Y17995000D03*
G04 #@! TO.N,unconnected-(J7-LineIn-MN-Pad63)*
X7100000Y20535000D03*
G04 #@! TO.N,unconnected-(J7-LineIn-MP-Pad64)*
X7100000Y23075000D03*
G04 #@! TD*
D12*
G04 #@! TO.N,SRR_IRQ*
G04 #@! TO.C,J8*
X21250000Y60400000D03*
D13*
G04 #@! TO.N,GND*
X22520000Y60400000D03*
G04 #@! TO.N,SRR_NRST*
X23790000Y60400000D03*
G04 #@! TO.N,Net-(J1-Pin_2)*
X25060000Y60400000D03*
G04 #@! TO.N,SCK*
X26330000Y60400000D03*
G04 #@! TO.N,SDA*
X27600000Y60400000D03*
G04 #@! TD*
D12*
G04 #@! TO.N,SYS_3.3V*
G04 #@! TO.C,J1*
X190000Y49000000D03*
D13*
G04 #@! TO.N,Net-(J1-Pin_2)*
X190000Y50270000D03*
G04 #@! TO.N,GND*
X1460000Y49000000D03*
G04 #@! TO.N,Net-(J1-Pin_4)*
X1460000Y50270000D03*
G04 #@! TO.N,GND*
X2730000Y49000000D03*
G04 #@! TO.N,unconnected-(J1-Pin_6-Pad6)*
X2730000Y50270000D03*
G04 #@! TO.N,Net-(J1-Pin_7)*
X4000000Y49000000D03*
G04 #@! TO.N,unconnected-(J1-Pin_8-Pad8)*
X4000000Y50270000D03*
G04 #@! TO.N,Net-(J1-Pin_9)*
X5270000Y49000000D03*
G04 #@! TO.N,SRR_NRST*
X5270000Y50270000D03*
G04 #@! TD*
D12*
G04 #@! TO.N,Net-(J1-Pin_4)*
G04 #@! TO.C,J2*
X8550000Y60400000D03*
D13*
G04 #@! TO.N,Net-(J1-Pin_7)*
X9820000Y60400000D03*
G04 #@! TO.N,Net-(J1-Pin_9)*
X11090000Y60400000D03*
G04 #@! TO.N,SYS_3.3V*
X12360000Y60400000D03*
G04 #@! TD*
D10*
G04 #@! TO.N,Net-(SW1-A)*
G04 #@! TO.C,SW1*
X28830000Y-1670000D03*
D11*
G04 #@! TO.N,BAT*
X26290000Y-1670000D03*
G04 #@! TD*
D14*
G04 #@! TO.N,GND*
G04 #@! TO.C,J9*
X5990000Y45897800D03*
X910000Y45897800D03*
X5990000Y40817800D03*
X910000Y40817800D03*
G04 #@! TD*
D12*
G04 #@! TO.N,VBUS*
G04 #@! TO.C,J10*
X1950000Y34505000D03*
D13*
G04 #@! TO.N,GND*
X1950000Y33235000D03*
G04 #@! TO.N,unconnected-(J10-Pin_3-Pad3)*
X1950000Y31965000D03*
G04 #@! TO.N,GND*
X1950000Y30695000D03*
G04 #@! TO.N,USBHost-DP1*
X1950000Y29425000D03*
G04 #@! TO.N,USBHost-DM1*
X1950000Y28155000D03*
G04 #@! TO.N,VDD_5V*
X1950000Y26885000D03*
G04 #@! TO.N,USBHost-DP2*
X1950000Y25615000D03*
G04 #@! TO.N,USBHost-DM2*
X1950000Y24345000D03*
G04 #@! TD*
D12*
G04 #@! TO.N,Net-(J4-Pin_1)*
G04 #@! TO.C,J4*
X1950000Y16725000D03*
D13*
G04 #@! TO.N,Net-(J4-Pin_2)*
X1950000Y15455000D03*
G04 #@! TO.N,GND*
X1950000Y14185000D03*
G04 #@! TO.N,unconnected-(J4-Pin_4-Pad4)*
X1950000Y12915000D03*
G04 #@! TO.N,unconnected-(J4-Pin_5-Pad5)*
X1950000Y11645000D03*
G04 #@! TO.N,unconnected-(J4-Pin_6-Pad6)*
X1950000Y10375000D03*
G04 #@! TO.N,unconnected-(J4-Pin_7-Pad7)*
X1950000Y9105000D03*
G04 #@! TO.N,GND*
X1950000Y7835000D03*
G04 #@! TO.N,ToPWRBTN*
X1950000Y6565000D03*
G04 #@! TD*
D12*
G04 #@! TO.N,unconnected-(J5-Pin_1-Pad1)*
G04 #@! TO.C,J5*
X1950000Y56095000D03*
D13*
G04 #@! TO.N,unconnected-(J5-Pin_2-Pad2)*
X1950000Y54825000D03*
G04 #@! TO.N,unconnected-(J5-Pin_3-Pad3)*
X1950000Y53555000D03*
G04 #@! TO.N,unconnected-(J5-Pin_4-Pad4)*
X1950000Y52285000D03*
G04 #@! TD*
D15*
G04 #@! TO.N,GND*
X24170200Y22677300D03*
X26970200Y21273600D03*
X25652468Y23991332D03*
X26970200Y22677300D03*
X24170200Y21273600D03*
X25570200Y22673600D03*
X24170200Y24073600D03*
X26970200Y24073600D03*
X25570200Y21273600D03*
D16*
X7517000Y2108200D03*
X8890000Y32385000D03*
X16640000Y40570000D03*
X7860000Y3650000D03*
X18520000Y55750000D03*
X24434800Y30683200D03*
X28270200Y15925800D03*
X33147000Y15748000D03*
X3000000Y52250000D03*
X30500000Y61500000D03*
X40640000Y41529000D03*
X43300000Y6200000D03*
X7540000Y47480000D03*
X3440000Y41090000D03*
X762000Y20447000D03*
X34290000Y14224000D03*
X42011600Y2489200D03*
X400000Y2100000D03*
X12749400Y177800D03*
X40850000Y13640000D03*
X7620000Y31115000D03*
X36195000Y39243000D03*
X21251100Y24028400D03*
X15060000Y37270000D03*
X9300000Y13100000D03*
X-670000Y44230000D03*
X29109455Y61813967D03*
X14253803Y4810506D03*
X41148000Y4064000D03*
X24610000Y13190000D03*
X-914400Y48361600D03*
X5620000Y4020000D03*
X20955000Y18313400D03*
X40880000Y29750000D03*
X28956000Y6604000D03*
X-1727200Y7975600D03*
X-670000Y42510000D03*
X27900000Y58500000D03*
X38810000Y19240000D03*
X29200000Y18490000D03*
X36195000Y38227000D03*
X31480000Y13210000D03*
X37592000Y33250000D03*
X24650000Y11500000D03*
X2640000Y39330000D03*
X16530000Y50870000D03*
X32004000Y6604000D03*
X29260800Y55829200D03*
X27559000Y27813000D03*
X44500000Y57000000D03*
X1900000Y1143000D03*
X24280000Y45900000D03*
X8026400Y19278600D03*
X2000000Y57750000D03*
X7620000Y54152800D03*
X3050000Y17500000D03*
X23770000Y32650000D03*
X38235700Y29920000D03*
X12700000Y13000000D03*
X-1800000Y33900000D03*
X8000000Y6800000D03*
X11080000Y45300000D03*
X14600000Y13000000D03*
X21950000Y10980000D03*
X32165100Y24003000D03*
X5760000Y64030000D03*
X32766000Y33280000D03*
X3075000Y15575000D03*
X7493000Y26035000D03*
X20425000Y10800000D03*
X5715000Y34798000D03*
X33225496Y7874000D03*
X27940000Y26924000D03*
X42291000Y37719000D03*
X16530000Y55770000D03*
X9510000Y39720000D03*
X-1700000Y3000000D03*
X2640000Y47460000D03*
X31300000Y63750000D03*
X21945600Y57692100D03*
X11100000Y13100000D03*
X8178800Y21615400D03*
X21844000Y19939000D03*
X-1800000Y26700000D03*
X26416000Y11938000D03*
X29464000Y11684000D03*
X17526000Y30099000D03*
X18570000Y50800000D03*
X38100000Y4572000D03*
X12700000Y32004000D03*
X3650000Y45820000D03*
X44958000Y15646400D03*
X38781395Y24378611D03*
X9906000Y25146000D03*
X28940000Y25820000D03*
X42922697Y14307303D03*
X33840000Y59800000D03*
X40837610Y31822390D03*
X26650000Y33160000D03*
X37592000Y35814000D03*
X-1690000Y59460000D03*
X9720000Y46830000D03*
X2610000Y19710000D03*
X29718000Y13150000D03*
X9144000Y29210000D03*
X44900000Y6300000D03*
X7640000Y39330000D03*
X4020000Y39280000D03*
X25525000Y10850000D03*
X33147000Y21590000D03*
X18288000Y27940000D03*
X-1800000Y30600000D03*
X3429000Y34798000D03*
X44754800Y3251200D03*
X31115000Y40640000D03*
X15060000Y38550000D03*
X39878000Y2438400D03*
X2530000Y63650000D03*
X1130000Y43430000D03*
X25700000Y28360000D03*
X14260000Y59400000D03*
X9042400Y15240000D03*
X21931963Y25972437D03*
X20250000Y61500000D03*
X-1778000Y14020800D03*
X-1625600Y50444400D03*
X20460000Y50780000D03*
X44500000Y61010800D03*
X9460000Y63970000D03*
X19431000Y19608800D03*
X12230000Y63740000D03*
X19750000Y59750000D03*
X29580000Y24080000D03*
D17*
X12100000Y4400000D03*
D16*
X38464200Y42700000D03*
X11030000Y41320000D03*
X28625800Y12598400D03*
X22072600Y14630400D03*
X39800000Y1080000D03*
X20630000Y55750000D03*
X40894000Y5842000D03*
X39497000Y51562000D03*
X25580000Y12970000D03*
X43000000Y9000000D03*
X40513000Y38227000D03*
X20955000Y16586200D03*
X13335000Y28448000D03*
X41090000Y62710000D03*
X18443283Y8231400D03*
X42291000Y41402000D03*
X23651000Y30708600D03*
X35030996Y23301670D03*
X40670000Y61630000D03*
X34290000Y33274000D03*
X45008800Y20878800D03*
X21818600Y18694400D03*
X15000000Y53560000D03*
X10414000Y28956000D03*
X32969200Y18415000D03*
X32766000Y30353000D03*
X33782000Y17526000D03*
X32258000Y38735000D03*
X-1800000Y36900000D03*
X6000000Y59750000D03*
X22174200Y13309600D03*
X34544000Y29210000D03*
X44958000Y11074400D03*
X21750000Y61500000D03*
X-1750000Y56875000D03*
X28575000Y33020000D03*
X33782000Y16256000D03*
X33248600Y13843000D03*
X36050000Y59750000D03*
X18288000Y28575000D03*
X45059600Y22910800D03*
X28960000Y49590000D03*
X33274000Y11938000D03*
X34290000Y38735000D03*
X-1710000Y61610000D03*
X-1800000Y22200000D03*
X4060000Y47540000D03*
X16500000Y59750000D03*
X760000Y62340000D03*
X10668000Y31750000D03*
X37719000Y39497000D03*
X-400000Y38730000D03*
D17*
G04 #@! TO.N,IPSOUT*
X24570000Y27130000D03*
X21082000Y21590000D03*
X17627600Y25730198D03*
X25770000Y27140000D03*
X26365200Y15748000D03*
X24400000Y17890000D03*
X15296800Y30729200D03*
G04 #@! TO.N,BAT*
X24882110Y18620000D03*
X23610000Y18150000D03*
X23350000Y8250000D03*
G04 #@! TO.N,VBUS*
X19862800Y22504400D03*
G04 #@! TO.N,PWRON*
X35105426Y20954500D03*
X36105678Y18833678D03*
X12597000Y1295400D03*
X19659600Y5976900D03*
G04 #@! TO.N,VDD_5V*
X40073580Y35295840D03*
X37678435Y41594394D03*
G04 #@! TO.N,SYS_3.3V*
X40600000Y44200000D03*
X38031700Y20955000D03*
X13486224Y6165291D03*
X41320000Y35250000D03*
X13700000Y4300000D03*
G04 #@! TO.N,SDA*
X33782000Y7112000D03*
X42926000Y19304000D03*
X36703000Y57658000D03*
G04 #@! TO.N,SCK*
X35983900Y22596161D03*
X37338000Y22606000D03*
X33782000Y8636000D03*
X40501844Y56420256D03*
X43495200Y18033996D03*
G04 #@! TO.N,UART1_TX*
X38354000Y46482000D03*
G04 #@! TO.N,UART1_RX*
X38354000Y47371000D03*
G04 #@! TO.N,LORAAUX*
X38354000Y48260000D03*
X43332400Y24180800D03*
G04 #@! TO.N,LORAEN*
X38354000Y45593000D03*
G04 #@! TO.N,N_VBUSEN*
X35153641Y22571395D03*
G04 #@! TO.N,LDO1*
X26594000Y30480000D03*
X33147000Y24765000D03*
X36100280Y13418924D03*
X21793200Y23317196D03*
G04 #@! TO.N,SRR_IRQ*
X43840404Y22199602D03*
G04 #@! TO.N,EXTEN*
X13938200Y22391800D03*
X17443400Y24830200D03*
X24970000Y34151610D03*
X24995594Y32669200D03*
G04 #@! TO.N,Net-(U3-BIAS)*
X22860000Y31369000D03*
G04 #@! TO.N,Net-(U10-OUT)*
X11576000Y25668400D03*
X18332400Y32018400D03*
G04 #@! TO.N,LORARS*
X6920838Y34481162D03*
G04 #@! TO.N,LORAMO*
X36830000Y35687000D03*
X7352707Y33795289D03*
X35687000Y51308000D03*
G04 #@! TO.N,UART2_RX*
X13816200Y703300D03*
X21600008Y3800000D03*
G04 #@! TO.N,Net-(J4-Pin_2)*
X9700000Y6900000D03*
G04 #@! TO.N,N_OE*
X33020000Y26797000D03*
X30607000Y20954994D03*
G04 #@! TO.N,Net-(U4A-C)*
X32258000Y8382000D03*
X32766000Y27686000D03*
G04 #@! TO.N,Net-(J1-Pin_7)*
X9500000Y57315800D03*
G04 #@! TO.N,Net-(J1-Pin_9)*
X11000000Y57907900D03*
G04 #@! TD*
G04 #@! TA.AperFunction,Conductor*
G04 #@! TO.N,GND*
G36*
X6772359Y5533045D02*
G01*
X6714835Y5420148D01*
X6695014Y5295000D01*
X6714835Y5169852D01*
X6772359Y5056955D01*
X6788314Y5041000D01*
X4871686Y5041000D01*
X4887641Y5056955D01*
X4945165Y5169852D01*
X4964986Y5295000D01*
X4945165Y5420148D01*
X4887641Y5533045D01*
X4871686Y5549000D01*
X6788314Y5549000D01*
X6772359Y5533045D01*
G37*
G04 #@! TD.AperFunction*
G04 #@! TA.AperFunction,Conductor*
G36*
X37974431Y64579498D02*
G01*
X38020924Y64525842D01*
X38031028Y64455568D01*
X38001534Y64390988D01*
X37995405Y64384405D01*
X37943807Y64332808D01*
X37943805Y64332806D01*
X37885133Y64217653D01*
X37870000Y64122109D01*
X37870000Y63494000D01*
X38816314Y63494000D01*
X38800359Y63478045D01*
X38742835Y63365148D01*
X38723014Y63240000D01*
X38742835Y63114852D01*
X38800359Y63001955D01*
X38816314Y62986000D01*
X37870000Y62986000D01*
X37870000Y62357892D01*
X37885133Y62262348D01*
X37943805Y62147195D01*
X38035194Y62055806D01*
X38150347Y61997134D01*
X38245891Y61982000D01*
X38874884Y61982000D01*
X38943005Y61961998D01*
X38989498Y61908342D01*
X38999602Y61838068D01*
X38970108Y61773488D01*
X38911460Y61735427D01*
X38799172Y61701364D01*
X38722815Y61678202D01*
X38539762Y61580358D01*
X38379317Y61448683D01*
X38247642Y61288238D01*
X38149798Y61105185D01*
X38089545Y60906555D01*
X38069202Y60700003D01*
X38069202Y60699998D01*
X38089545Y60493446D01*
X38089546Y60493440D01*
X38089547Y60493439D01*
X38149798Y60294816D01*
X38247642Y60111763D01*
X38379317Y59951317D01*
X38539763Y59819642D01*
X38722816Y59721798D01*
X38921439Y59661547D01*
X38921443Y59661547D01*
X38921445Y59661546D01*
X39127997Y59641202D01*
X39128000Y59641202D01*
X39128003Y59641202D01*
X39334554Y59661546D01*
X39334555Y59661547D01*
X39334561Y59661547D01*
X39533184Y59721798D01*
X39716237Y59819642D01*
X39876683Y59951317D01*
X40008358Y60111763D01*
X40106202Y60294816D01*
X40166453Y60493439D01*
X40173959Y60569641D01*
X40186798Y60699998D01*
X40186798Y60700003D01*
X40166454Y60906555D01*
X40166453Y60906557D01*
X40166453Y60906561D01*
X40106202Y61105184D01*
X40008358Y61288237D01*
X39876683Y61448683D01*
X39716237Y61580358D01*
X39533184Y61678202D01*
X39344539Y61735427D01*
X39285159Y61774340D01*
X39256244Y61839181D01*
X39266974Y61909362D01*
X39313943Y61962601D01*
X39381116Y61982000D01*
X40010109Y61982000D01*
X40105652Y61997134D01*
X40220805Y62055806D01*
X40312194Y62147195D01*
X40370866Y62262348D01*
X40386000Y62357892D01*
X40386000Y62986000D01*
X39439686Y62986000D01*
X39455641Y63001955D01*
X39513165Y63114852D01*
X39532986Y63240000D01*
X39513165Y63365148D01*
X39455641Y63478045D01*
X39439686Y63494000D01*
X40386000Y63494000D01*
X40386000Y63570834D01*
X40406002Y63638955D01*
X40459658Y63685448D01*
X40529932Y63695552D01*
X40594512Y63666058D01*
X40598609Y63662348D01*
X40636203Y63626769D01*
X40636207Y63626765D01*
X40981359Y63343580D01*
X40981374Y63343568D01*
X41345669Y63085506D01*
X41345676Y63085502D01*
X41345681Y63085498D01*
X41727333Y62853826D01*
X42124410Y62649718D01*
X42534925Y62474197D01*
X42534933Y62474195D01*
X42534936Y62474193D01*
X42563496Y62464306D01*
X42956823Y62328141D01*
X42956827Y62328140D01*
X42956833Y62328138D01*
X43375267Y62215699D01*
X43387991Y62212280D01*
X43826273Y62127195D01*
X44026084Y62102886D01*
X44034605Y62101002D01*
X44044081Y62099501D01*
X44044083Y62099500D01*
X44046286Y62099500D01*
X44061491Y62098580D01*
X44074603Y62096985D01*
X44074607Y62096987D01*
X44083544Y62098253D01*
X44101230Y62099500D01*
X44964648Y62099500D01*
X44986759Y62097545D01*
X45033258Y62089257D01*
X45058040Y62084839D01*
X45088724Y62075200D01*
X45150472Y62046701D01*
X45177708Y62029610D01*
X45228770Y61987604D01*
X45230223Y61986409D01*
X45252252Y61962970D01*
X45292111Y61907888D01*
X45307488Y61879635D01*
X45332104Y61816249D01*
X45339826Y61785024D01*
X45348580Y61708864D01*
X45349392Y61692770D01*
X45348969Y61661558D01*
X45349500Y61657307D01*
X45349500Y3042711D01*
X45348982Y3038570D01*
X45349398Y3007082D01*
X45348504Y2990345D01*
X45339046Y2911859D01*
X45330675Y2879484D01*
X45304097Y2814104D01*
X45287504Y2785070D01*
X45244663Y2728984D01*
X45221016Y2705337D01*
X45164930Y2662496D01*
X45135896Y2645903D01*
X45070516Y2619325D01*
X45038141Y2610954D01*
X44959655Y2601496D01*
X44942918Y2600602D01*
X44911429Y2601018D01*
X44907290Y2600500D01*
X44091486Y2600500D01*
X44074256Y2601684D01*
X44064228Y2603069D01*
X44053978Y2601784D01*
X44051535Y2601478D01*
X44035872Y2600500D01*
X44034082Y2600500D01*
X44025729Y2599178D01*
X44016093Y2597030D01*
X43895356Y2581922D01*
X43816505Y2572055D01*
X43816502Y2572055D01*
X43816485Y2572052D01*
X43379494Y2485776D01*
X43379493Y2485776D01*
X43106874Y2411729D01*
X42949610Y2369014D01*
X42949605Y2369013D01*
X42949604Y2369012D01*
X42528985Y2222348D01*
X42119720Y2046510D01*
X42119704Y2046503D01*
X41723821Y1842369D01*
X41723785Y1842349D01*
X41343206Y1610909D01*
X41343188Y1610897D01*
X40979795Y1353294D01*
X40635375Y1070792D01*
X40311652Y764804D01*
X40311643Y764795D01*
X40010218Y436836D01*
X39896978Y294728D01*
X39887599Y285249D01*
X39873074Y265139D01*
X39863265Y253180D01*
X39815265Y201489D01*
X39791632Y181602D01*
X39739067Y147414D01*
X39711309Y133876D01*
X39651990Y113496D01*
X39621773Y107116D01*
X39551301Y101097D01*
X39535841Y100729D01*
X39509428Y101723D01*
X39498563Y100500D01*
X32612323Y100500D01*
X32339340Y64562D01*
X32073368Y-6705D01*
X31818977Y-112077D01*
X31818966Y-112083D01*
X31580524Y-249748D01*
X31362071Y-417372D01*
X31362061Y-417381D01*
X31167381Y-612061D01*
X31167372Y-612071D01*
X30999748Y-830524D01*
X30862083Y-1068966D01*
X30862077Y-1068977D01*
X30756705Y-1323368D01*
X30685438Y-1589340D01*
X30649500Y-1862323D01*
X30649500Y-2288777D01*
X30648522Y-2304448D01*
X30625538Y-2487810D01*
X30621082Y-2508744D01*
X30568047Y-2683425D01*
X30560111Y-2703304D01*
X30478274Y-2866490D01*
X30467089Y-2884738D01*
X30358815Y-3031716D01*
X30344702Y-3047808D01*
X30213114Y-3174337D01*
X30196482Y-3187808D01*
X30045373Y-3290242D01*
X30026700Y-3300704D01*
X29860434Y-3376084D01*
X29840259Y-3383234D01*
X29663638Y-3429382D01*
X29642547Y-3433015D01*
X29473858Y-3447474D01*
X29455587Y-3449040D01*
X29444829Y-3449500D01*
X25640746Y-3449500D01*
X25625509Y-3448575D01*
X25447801Y-3426926D01*
X25426851Y-3422543D01*
X25257812Y-3371860D01*
X25237907Y-3363994D01*
X25079886Y-3285431D01*
X25061600Y-3274310D01*
X24919157Y-3170137D01*
X24903016Y-3156081D01*
X24788997Y-3038326D01*
X24780257Y-3029300D01*
X24766730Y-3012716D01*
X24667203Y-2866989D01*
X24656677Y-2848353D01*
X24632343Y-2795171D01*
X24583250Y-2687881D01*
X24576031Y-2667735D01*
X24574900Y-2663468D01*
X24530823Y-2497149D01*
X24527118Y-2476073D01*
X24510999Y-2295406D01*
X24510500Y-2284209D01*
X24510500Y-1843644D01*
X24510500Y-1843637D01*
X24487641Y-1670003D01*
X25243963Y-1670003D01*
X25264060Y-1874064D01*
X25264060Y-1874066D01*
X25323587Y-2070298D01*
X25323589Y-2070304D01*
X25388017Y-2190840D01*
X25420252Y-2251147D01*
X25550340Y-2409660D01*
X25708853Y-2539748D01*
X25889699Y-2636412D01*
X26085928Y-2695938D01*
X26085932Y-2695938D01*
X26085934Y-2695939D01*
X26289997Y-2716037D01*
X26290000Y-2716037D01*
X26290003Y-2716037D01*
X26494064Y-2695939D01*
X26494066Y-2695939D01*
X26494067Y-2695938D01*
X26494072Y-2695938D01*
X26690301Y-2636412D01*
X26871147Y-2539748D01*
X26872285Y-2538814D01*
X27789000Y-2538814D01*
X27800081Y-2594522D01*
X27800082Y-2594525D01*
X27842296Y-2657703D01*
X27877383Y-2681147D01*
X27905475Y-2699918D01*
X27961188Y-2711000D01*
X27961189Y-2711000D01*
X29698811Y-2711000D01*
X29698812Y-2711000D01*
X29754525Y-2699918D01*
X29817703Y-2657703D01*
X29859918Y-2594525D01*
X29871000Y-2538812D01*
X29871000Y-801188D01*
X29859918Y-745475D01*
X29831930Y-703589D01*
X29817703Y-682296D01*
X29754525Y-640082D01*
X29754522Y-640081D01*
X29698814Y-629000D01*
X29698812Y-629000D01*
X27961188Y-629000D01*
X27961185Y-629000D01*
X27905477Y-640081D01*
X27905474Y-640082D01*
X27842296Y-682296D01*
X27800082Y-745474D01*
X27800081Y-745477D01*
X27789000Y-801185D01*
X27789000Y-2538814D01*
X26872285Y-2538814D01*
X27029660Y-2409660D01*
X27159748Y-2251147D01*
X27256412Y-2070301D01*
X27315938Y-1874072D01*
X27317095Y-1862323D01*
X27336037Y-1670003D01*
X27336037Y-1669996D01*
X27315939Y-1465935D01*
X27315939Y-1465933D01*
X27315938Y-1465930D01*
X27315938Y-1465928D01*
X27256412Y-1269699D01*
X27159748Y-1088853D01*
X27029660Y-930340D01*
X26871147Y-800252D01*
X26690304Y-703589D01*
X26690298Y-703587D01*
X26494065Y-644060D01*
X26290003Y-623963D01*
X26289997Y-623963D01*
X26085935Y-644060D01*
X26085933Y-644060D01*
X25889701Y-703587D01*
X25889695Y-703589D01*
X25708852Y-800252D01*
X25550340Y-930340D01*
X25420252Y-1088852D01*
X25323589Y-1269695D01*
X25323587Y-1269701D01*
X25264060Y-1465933D01*
X25264060Y-1465935D01*
X25243963Y-1669996D01*
X25243963Y-1670003D01*
X24487641Y-1670003D01*
X24474902Y-1573244D01*
X24404315Y-1309810D01*
X24299947Y-1057844D01*
X24299941Y-1057835D01*
X24299940Y-1057831D01*
X24163583Y-821654D01*
X23997563Y-605293D01*
X23997561Y-605291D01*
X23997559Y-605288D01*
X23997553Y-605282D01*
X23997544Y-605272D01*
X23804727Y-412455D01*
X23804706Y-412436D01*
X23588345Y-246416D01*
X23352168Y-110059D01*
X23352160Y-110055D01*
X23352156Y-110053D01*
X23100190Y-5685D01*
X22836756Y64902D01*
X22836754Y64903D01*
X22836748Y64904D01*
X22566365Y100500D01*
X22566363Y100500D01*
X22445917Y100500D01*
X14471729Y100500D01*
X14444800Y100500D01*
X14307126Y100500D01*
X14307121Y100500D01*
X14210495Y87779D01*
X14140347Y98719D01*
X14087248Y145847D01*
X14068059Y214201D01*
X14088871Y282079D01*
X14125931Y318700D01*
X14141043Y328411D01*
X14233503Y435116D01*
X14292156Y563547D01*
X14312249Y703300D01*
X14292156Y843053D01*
X14233503Y971484D01*
X14185215Y1027212D01*
X14141045Y1078188D01*
X14141041Y1078191D01*
X14022266Y1154522D01*
X13886798Y1194300D01*
X13886795Y1194300D01*
X13745605Y1194300D01*
X13745601Y1194300D01*
X13610133Y1154522D01*
X13491358Y1078191D01*
X13491354Y1078188D01*
X13398900Y971489D01*
X13398897Y971485D01*
X13340244Y843054D01*
X13320151Y703300D01*
X13340244Y563547D01*
X13398897Y435116D01*
X13398900Y435112D01*
X13491354Y328413D01*
X13491358Y328410D01*
X13506466Y318701D01*
X13610134Y252078D01*
X13725512Y218200D01*
X13785238Y179816D01*
X13814731Y115236D01*
X13804628Y44962D01*
X13758135Y-8694D01*
X13738237Y-19102D01*
X13518663Y-110054D01*
X13513772Y-112080D01*
X13513766Y-112083D01*
X13275324Y-249748D01*
X13056871Y-417372D01*
X13056861Y-417381D01*
X12862181Y-612061D01*
X12862172Y-612071D01*
X12694548Y-830524D01*
X12556883Y-1068966D01*
X12556877Y-1068977D01*
X12451505Y-1323368D01*
X12380238Y-1589340D01*
X12344300Y-1862323D01*
X12344300Y-2688777D01*
X12343322Y-2704448D01*
X12320338Y-2887810D01*
X12315882Y-2908743D01*
X12294566Y-2978954D01*
X12255637Y-3038326D01*
X12190789Y-3067226D01*
X12120610Y-3056480D01*
X12067383Y-3009497D01*
X12048000Y-2942350D01*
X12048000Y-2354000D01*
X11101686Y-2354000D01*
X11117641Y-2338045D01*
X11175165Y-2225148D01*
X11194986Y-2100000D01*
X11175165Y-1974852D01*
X11117641Y-1861955D01*
X11101686Y-1846000D01*
X12048000Y-1846000D01*
X12048000Y-1217891D01*
X12032866Y-1122347D01*
X11974194Y-1007194D01*
X11882805Y-915805D01*
X11767652Y-857133D01*
X11672109Y-842000D01*
X11044000Y-842000D01*
X11044000Y-1788314D01*
X11028045Y-1772359D01*
X10915148Y-1714835D01*
X10821481Y-1700000D01*
X10758519Y-1700000D01*
X10664852Y-1714835D01*
X10551955Y-1772359D01*
X10536000Y-1788314D01*
X10536000Y-842000D01*
X9907891Y-842000D01*
X9812347Y-857133D01*
X9697194Y-915805D01*
X9605805Y-1007194D01*
X9547133Y-1122347D01*
X9532000Y-1217891D01*
X9532000Y-1930977D01*
X9511998Y-1999098D01*
X9458342Y-2045591D01*
X9388068Y-2055695D01*
X9323488Y-2026201D01*
X9285104Y-1966475D01*
X9280607Y-1943327D01*
X9275939Y-1895935D01*
X9275939Y-1895933D01*
X9275938Y-1895930D01*
X9275938Y-1895928D01*
X9216412Y-1699699D01*
X9119748Y-1518853D01*
X8989660Y-1360340D01*
X8831147Y-1230252D01*
X8808021Y-1217891D01*
X8650304Y-1133589D01*
X8650298Y-1133587D01*
X8502831Y-1088853D01*
X8454072Y-1074062D01*
X8454071Y-1074061D01*
X8454065Y-1074060D01*
X8250003Y-1053963D01*
X8249997Y-1053963D01*
X8045935Y-1074060D01*
X8045933Y-1074060D01*
X7849701Y-1133587D01*
X7849695Y-1133589D01*
X7668852Y-1230252D01*
X7510340Y-1360340D01*
X7380252Y-1518852D01*
X7283589Y-1699695D01*
X7283587Y-1699701D01*
X7224060Y-1895933D01*
X7224060Y-1895935D01*
X7203963Y-2099996D01*
X7203963Y-2100003D01*
X7224060Y-2304064D01*
X7224060Y-2304066D01*
X7283587Y-2500298D01*
X7283589Y-2500304D01*
X7356341Y-2636412D01*
X7380252Y-2681147D01*
X7510340Y-2839660D01*
X7668853Y-2969748D01*
X7849699Y-3066412D01*
X8045928Y-3125938D01*
X8045932Y-3125938D01*
X8045934Y-3125939D01*
X8249997Y-3146037D01*
X8250000Y-3146037D01*
X8250003Y-3146037D01*
X8454064Y-3125939D01*
X8454066Y-3125939D01*
X8454067Y-3125938D01*
X8454072Y-3125938D01*
X8650301Y-3066412D01*
X8831147Y-2969748D01*
X8989660Y-2839660D01*
X9119748Y-2681147D01*
X9216412Y-2500301D01*
X9275938Y-2304072D01*
X9276143Y-2301991D01*
X9280607Y-2256672D01*
X9307189Y-2190840D01*
X9365143Y-2149830D01*
X9436069Y-2146663D01*
X9497448Y-2182343D01*
X9529793Y-2245544D01*
X9532000Y-2269022D01*
X9532000Y-2982108D01*
X9547133Y-3077652D01*
X9605805Y-3192805D01*
X9697194Y-3284194D01*
X9812347Y-3342866D01*
X9907891Y-3358000D01*
X10536000Y-3358000D01*
X10536000Y-2411686D01*
X10551955Y-2427641D01*
X10664852Y-2485165D01*
X10758519Y-2500000D01*
X10821481Y-2500000D01*
X10915148Y-2485165D01*
X11028045Y-2427641D01*
X11044000Y-2411686D01*
X11044000Y-3358000D01*
X11672109Y-3358000D01*
X11767652Y-3342867D01*
X11821345Y-3315509D01*
X11891121Y-3302405D01*
X11956906Y-3329105D01*
X11997813Y-3387132D01*
X12000854Y-3458064D01*
X11965880Y-3518599D01*
X11912283Y-3570137D01*
X11907914Y-3574338D01*
X11891282Y-3587808D01*
X11740173Y-3690242D01*
X11721500Y-3700704D01*
X11555234Y-3776084D01*
X11535059Y-3783234D01*
X11358438Y-3829382D01*
X11337347Y-3833015D01*
X11168658Y-3847474D01*
X11150387Y-3849040D01*
X11139629Y-3849500D01*
X5550746Y-3849500D01*
X5535509Y-3848575D01*
X5357801Y-3826926D01*
X5336851Y-3822543D01*
X5167813Y-3771861D01*
X5147907Y-3763994D01*
X4989886Y-3685431D01*
X4971600Y-3674310D01*
X4829157Y-3570137D01*
X4813016Y-3556081D01*
X4692967Y-3432099D01*
X4690257Y-3429300D01*
X4676730Y-3412716D01*
X4654740Y-3380519D01*
X4577203Y-3266989D01*
X4566677Y-3248353D01*
X4524456Y-3156081D01*
X4493250Y-3087881D01*
X4486031Y-3067735D01*
X4485896Y-3067226D01*
X4440823Y-2897149D01*
X4437118Y-2876073D01*
X4435516Y-2858122D01*
X4421704Y-2703304D01*
X4420999Y-2695406D01*
X4420500Y-2684209D01*
X4420500Y-2192870D01*
X4440502Y-2124749D01*
X4467714Y-2101169D01*
X4461112Y-2097331D01*
X4628323Y-2097331D01*
X4629012Y-2097646D01*
X4667396Y-2157372D01*
X4671893Y-2180520D01*
X4684060Y-2304064D01*
X4684060Y-2304066D01*
X4743587Y-2500298D01*
X4743589Y-2500304D01*
X4816341Y-2636412D01*
X4840252Y-2681147D01*
X4970340Y-2839660D01*
X5128853Y-2969748D01*
X5309699Y-3066412D01*
X5505928Y-3125938D01*
X5505932Y-3125938D01*
X5505934Y-3125939D01*
X5709997Y-3146037D01*
X5710000Y-3146037D01*
X5710003Y-3146037D01*
X5914064Y-3125939D01*
X5914066Y-3125939D01*
X5914067Y-3125938D01*
X5914072Y-3125938D01*
X6110301Y-3066412D01*
X6291147Y-2969748D01*
X6449660Y-2839660D01*
X6579748Y-2681147D01*
X6676412Y-2500301D01*
X6735938Y-2304072D01*
X6736143Y-2301991D01*
X6756037Y-2100003D01*
X6756037Y-2099996D01*
X6735939Y-1895935D01*
X6735939Y-1895933D01*
X6735938Y-1895930D01*
X6735938Y-1895928D01*
X6676412Y-1699699D01*
X6579748Y-1518853D01*
X6449660Y-1360340D01*
X6291147Y-1230252D01*
X6268021Y-1217891D01*
X6110304Y-1133589D01*
X6110298Y-1133587D01*
X5962831Y-1088853D01*
X5914072Y-1074062D01*
X5914071Y-1074061D01*
X5914065Y-1074060D01*
X5710003Y-1053963D01*
X5709997Y-1053963D01*
X5505935Y-1074060D01*
X5505933Y-1074060D01*
X5309701Y-1133587D01*
X5309695Y-1133589D01*
X5128852Y-1230252D01*
X4970340Y-1360340D01*
X4840252Y-1518852D01*
X4743589Y-1699695D01*
X4743587Y-1699701D01*
X4684060Y-1895933D01*
X4684060Y-1895935D01*
X4671893Y-2019479D01*
X4645311Y-2085311D01*
X4628323Y-2097331D01*
X4461112Y-2097331D01*
X4455052Y-2093808D01*
X4422707Y-2030607D01*
X4420500Y-2007129D01*
X4420500Y-1843644D01*
X4420500Y-1843637D01*
X4384902Y-1573244D01*
X4314315Y-1309810D01*
X4209947Y-1057844D01*
X4209941Y-1057835D01*
X4209940Y-1057831D01*
X4073583Y-821654D01*
X3907563Y-605293D01*
X3907561Y-605291D01*
X3907559Y-605288D01*
X3907553Y-605282D01*
X3907544Y-605272D01*
X3714727Y-412455D01*
X3714706Y-412436D01*
X3498345Y-246416D01*
X3262168Y-110059D01*
X3262160Y-110055D01*
X3262156Y-110053D01*
X3010190Y-5685D01*
X2746756Y64902D01*
X2746754Y64903D01*
X2746748Y64904D01*
X2476365Y100500D01*
X2476363Y100500D01*
X2353614Y100500D01*
X2334398Y101974D01*
X2307723Y106091D01*
X2267754Y112259D01*
X2241767Y119174D01*
X2181775Y142233D01*
X2157846Y154505D01*
X2104109Y189773D01*
X2083330Y206843D01*
X2033553Y257548D01*
X2024678Y267607D01*
X1890488Y437108D01*
X1890478Y437119D01*
X1890473Y437125D01*
X1589823Y766121D01*
X1589811Y766133D01*
X1266580Y1073018D01*
X1266578Y1073020D01*
X1260296Y1078189D01*
X996333Y1295400D01*
X12100951Y1295400D01*
X12121044Y1155647D01*
X12179697Y1027216D01*
X12179700Y1027212D01*
X12272154Y920513D01*
X12272158Y920510D01*
X12331545Y882345D01*
X12390934Y844178D01*
X12499563Y812282D01*
X12526401Y804401D01*
X12526402Y804401D01*
X12526405Y804400D01*
X12526408Y804400D01*
X12667592Y804400D01*
X12667595Y804400D01*
X12803066Y844178D01*
X12921843Y920511D01*
X13014303Y1027216D01*
X13072956Y1155647D01*
X13093049Y1295400D01*
X13072956Y1435153D01*
X13014303Y1563584D01*
X13014299Y1563589D01*
X12921845Y1670288D01*
X12921841Y1670291D01*
X12803066Y1746622D01*
X12667598Y1786400D01*
X12667595Y1786400D01*
X12526405Y1786400D01*
X12526401Y1786400D01*
X12390933Y1746622D01*
X12272158Y1670291D01*
X12272154Y1670288D01*
X12179700Y1563589D01*
X12179697Y1563585D01*
X12121044Y1435154D01*
X12100951Y1295400D01*
X996333Y1295400D01*
X922414Y1356227D01*
X922386Y1356248D01*
X559049Y1614331D01*
X559015Y1614353D01*
X178281Y1846053D01*
X-210763Y2046503D01*
X-217940Y2050201D01*
X-217941Y2050202D01*
X-217944Y2050203D01*
X-217947Y2050204D01*
X-619671Y2222348D01*
X-627626Y2225757D01*
X-627628Y2225758D01*
X-627631Y2225759D01*
X-627634Y2225760D01*
X-1048716Y2371837D01*
X-1479117Y2487713D01*
X-1916616Y2572792D01*
X-1916630Y2572795D01*
X-2120689Y2597671D01*
X-2144777Y2603042D01*
X-2217352Y2626891D01*
X-2248820Y2642369D01*
X-2308296Y2682773D01*
X-2334282Y2706328D01*
X-2380317Y2761562D01*
X-2398802Y2791364D01*
X-2427831Y2857148D01*
X-2437387Y2890890D01*
X-2440252Y2911774D01*
X-2448307Y2970490D01*
X-2449474Y2988017D01*
X-2449412Y3006598D01*
X-2449413Y3006600D01*
X-2449361Y3022193D01*
X-2449500Y3023272D01*
X-2449500Y5549000D01*
X3325681Y5549000D01*
X4248314Y5549000D01*
X4232359Y5533045D01*
X4174835Y5420148D01*
X4155014Y5295000D01*
X4174835Y5169852D01*
X4232359Y5056955D01*
X4248314Y5041000D01*
X3325682Y5041000D01*
X3373350Y4863097D01*
X3373352Y4863093D01*
X3466378Y4663599D01*
X3466379Y4663597D01*
X3592628Y4483294D01*
X3592637Y4483283D01*
X3748282Y4327638D01*
X3748293Y4327629D01*
X3928596Y4201380D01*
X3928598Y4201379D01*
X4128094Y4108352D01*
X4128093Y4108352D01*
X4306000Y4060684D01*
X4306000Y4983314D01*
X4321955Y4967359D01*
X4434852Y4909835D01*
X4528519Y4895000D01*
X4591481Y4895000D01*
X4685148Y4909835D01*
X4798045Y4967359D01*
X4814000Y4983314D01*
X4814000Y4060684D01*
X4991905Y4108352D01*
X5191401Y4201379D01*
X5191403Y4201380D01*
X5371706Y4327629D01*
X5371717Y4327638D01*
X5527362Y4483283D01*
X5527371Y4483294D01*
X5612787Y4605280D01*
X5668244Y4649609D01*
X5738863Y4656918D01*
X5802223Y4624888D01*
X5838209Y4563687D01*
X5842000Y4533010D01*
X5842000Y4412892D01*
X5857133Y4317348D01*
X5915805Y4202195D01*
X6007194Y4110806D01*
X6122347Y4052134D01*
X6217891Y4037000D01*
X6846000Y4037000D01*
X6846000Y4983314D01*
X6861955Y4967359D01*
X6974852Y4909835D01*
X7068519Y4895000D01*
X7131481Y4895000D01*
X7225148Y4909835D01*
X7338045Y4967359D01*
X7354000Y4983314D01*
X7354000Y4037000D01*
X7982109Y4037000D01*
X8077652Y4052134D01*
X8192805Y4110806D01*
X8284194Y4202195D01*
X8334027Y4300000D01*
X13191120Y4300000D01*
X13211733Y4156632D01*
X13271903Y4024879D01*
X13345663Y3939754D01*
X13366755Y3915413D01*
X13488599Y3837109D01*
X13488604Y3837106D01*
X13627579Y3796300D01*
X13772421Y3796300D01*
X13785022Y3800000D01*
X21103959Y3800000D01*
X21124052Y3660247D01*
X21182705Y3531816D01*
X21182708Y3531812D01*
X21275162Y3425113D01*
X21275166Y3425110D01*
X21334553Y3386945D01*
X21393942Y3348778D01*
X21502571Y3316882D01*
X21529409Y3309001D01*
X21529410Y3309001D01*
X21529413Y3309000D01*
X21529416Y3309000D01*
X21670600Y3309000D01*
X21670603Y3309000D01*
X21806074Y3348778D01*
X21924851Y3425111D01*
X22017311Y3531816D01*
X22075964Y3660247D01*
X22096057Y3800000D01*
X22075964Y3939753D01*
X22017311Y4068184D01*
X22017307Y4068189D01*
X21924853Y4174888D01*
X21924849Y4174891D01*
X21806074Y4251222D01*
X21670606Y4291000D01*
X21670603Y4291000D01*
X21529413Y4291000D01*
X21529409Y4291000D01*
X21393941Y4251222D01*
X21275166Y4174891D01*
X21275162Y4174888D01*
X21182708Y4068189D01*
X21182705Y4068185D01*
X21124052Y3939754D01*
X21103959Y3800000D01*
X13785022Y3800000D01*
X13911396Y3837106D01*
X14033246Y3915414D01*
X14128097Y4024879D01*
X14188267Y4156632D01*
X14208880Y4300000D01*
X14188267Y4443368D01*
X14128097Y4575121D01*
X14033246Y4684586D01*
X14033245Y4684587D01*
X14033244Y4684588D01*
X13911400Y4762892D01*
X13911397Y4762894D01*
X13911396Y4762894D01*
X13772421Y4803700D01*
X13627579Y4803700D01*
X13488606Y4762895D01*
X13488599Y4762892D01*
X13366755Y4684588D01*
X13271903Y4575122D01*
X13229962Y4483283D01*
X13211733Y4443368D01*
X13191120Y4300000D01*
X8334027Y4300000D01*
X8342866Y4317348D01*
X8358000Y4412892D01*
X8358000Y5041000D01*
X7411686Y5041000D01*
X7427641Y5056955D01*
X7485165Y5169852D01*
X7504986Y5294997D01*
X38523963Y5294997D01*
X38544060Y5090936D01*
X38544060Y5090934D01*
X38603587Y4894702D01*
X38603589Y4894696D01*
X38674039Y4762894D01*
X38700252Y4713853D01*
X38830340Y4555340D01*
X38988853Y4425252D01*
X39169699Y4328588D01*
X39365928Y4269062D01*
X39365932Y4269062D01*
X39365934Y4269061D01*
X39569997Y4248963D01*
X39570000Y4248963D01*
X39570003Y4248963D01*
X39774064Y4269061D01*
X39774066Y4269061D01*
X39774067Y4269062D01*
X39774072Y4269062D01*
X39970301Y4328588D01*
X40151147Y4425252D01*
X40309660Y4555340D01*
X40439748Y4713853D01*
X40536412Y4894699D01*
X40595938Y5090928D01*
X40616037Y5294997D01*
X41063963Y5294997D01*
X41084060Y5090936D01*
X41084060Y5090934D01*
X41143587Y4894702D01*
X41143589Y4894696D01*
X41214039Y4762894D01*
X41240252Y4713853D01*
X41370340Y4555340D01*
X41528853Y4425252D01*
X41709699Y4328588D01*
X41905928Y4269062D01*
X41905932Y4269062D01*
X41905934Y4269061D01*
X42109997Y4248963D01*
X42110000Y4248963D01*
X42110003Y4248963D01*
X42314064Y4269061D01*
X42314066Y4269061D01*
X42314067Y4269062D01*
X42314072Y4269062D01*
X42510301Y4328588D01*
X42691147Y4425252D01*
X42849660Y4555340D01*
X42979748Y4713853D01*
X43076412Y4894699D01*
X43135938Y5090928D01*
X43156037Y5295000D01*
X43143711Y5420148D01*
X43135939Y5499065D01*
X43135939Y5499067D01*
X43135938Y5499070D01*
X43135938Y5499072D01*
X43076412Y5695301D01*
X42979748Y5876147D01*
X42849660Y6034660D01*
X42691147Y6164748D01*
X42668021Y6177109D01*
X42510304Y6261411D01*
X42510298Y6261413D01*
X42354550Y6308659D01*
X42314072Y6320938D01*
X42314071Y6320939D01*
X42314065Y6320940D01*
X42110003Y6341037D01*
X42109997Y6341037D01*
X41905935Y6320940D01*
X41905933Y6320940D01*
X41709701Y6261413D01*
X41709695Y6261411D01*
X41528852Y6164748D01*
X41370340Y6034660D01*
X41240252Y5876148D01*
X41143589Y5695305D01*
X41143587Y5695299D01*
X41084060Y5499067D01*
X41084060Y5499065D01*
X41063963Y5295004D01*
X41063963Y5294997D01*
X40616037Y5294997D01*
X40616037Y5295000D01*
X40603711Y5420148D01*
X40595939Y5499065D01*
X40595939Y5499067D01*
X40595938Y5499070D01*
X40595938Y5499072D01*
X40536412Y5695301D01*
X40439748Y5876147D01*
X40309660Y6034660D01*
X40151147Y6164748D01*
X40128021Y6177109D01*
X39970304Y6261411D01*
X39970298Y6261413D01*
X39814550Y6308659D01*
X39774072Y6320938D01*
X39774071Y6320939D01*
X39774065Y6320940D01*
X39570003Y6341037D01*
X39569997Y6341037D01*
X39365935Y6320940D01*
X39365933Y6320940D01*
X39169701Y6261413D01*
X39169695Y6261411D01*
X38988852Y6164748D01*
X38830340Y6034660D01*
X38700252Y5876148D01*
X38603589Y5695305D01*
X38603587Y5695299D01*
X38544060Y5499067D01*
X38544060Y5499065D01*
X38523963Y5295004D01*
X38523963Y5294997D01*
X7504986Y5294997D01*
X7504986Y5295000D01*
X7485165Y5420148D01*
X7427641Y5533045D01*
X7411686Y5549000D01*
X8358000Y5549000D01*
X8358000Y6165291D01*
X12977344Y6165291D01*
X12997957Y6021923D01*
X13058127Y5890170D01*
X13152979Y5780704D01*
X13274823Y5702400D01*
X13274828Y5702397D01*
X13413803Y5661591D01*
X13558645Y5661591D01*
X13697620Y5702397D01*
X13819470Y5780705D01*
X13914321Y5890170D01*
X13953930Y5976900D01*
X19163551Y5976900D01*
X19183644Y5837147D01*
X19242297Y5708716D01*
X19242300Y5708712D01*
X19334754Y5602013D01*
X19334758Y5602010D01*
X19394145Y5563845D01*
X19453534Y5525678D01*
X19562163Y5493782D01*
X19589001Y5485901D01*
X19589002Y5485901D01*
X19589005Y5485900D01*
X19589008Y5485900D01*
X19730192Y5485900D01*
X19730195Y5485900D01*
X19865666Y5525678D01*
X19984443Y5602011D01*
X20076903Y5708716D01*
X20135556Y5837147D01*
X20155649Y5976900D01*
X20135556Y6116653D01*
X20076903Y6245084D01*
X20061923Y6262372D01*
X19984445Y6351788D01*
X19984441Y6351791D01*
X19865666Y6428122D01*
X19730198Y6467900D01*
X19730195Y6467900D01*
X19589005Y6467900D01*
X19589001Y6467900D01*
X19453533Y6428122D01*
X19334758Y6351791D01*
X19334754Y6351788D01*
X19242300Y6245089D01*
X19242297Y6245085D01*
X19183644Y6116654D01*
X19163551Y5976900D01*
X13953930Y5976900D01*
X13974491Y6021923D01*
X13995104Y6165291D01*
X13974491Y6308659D01*
X13914321Y6440412D01*
X13819470Y6549877D01*
X13819469Y6549878D01*
X13819468Y6549879D01*
X13697624Y6628183D01*
X13697621Y6628185D01*
X13697620Y6628185D01*
X13685267Y6631812D01*
X13558645Y6668991D01*
X13413803Y6668991D01*
X13274830Y6628186D01*
X13274823Y6628183D01*
X13152979Y6549879D01*
X13058127Y6440413D01*
X12997957Y6308660D01*
X12977344Y6165291D01*
X8358000Y6165291D01*
X8358000Y6177109D01*
X8342866Y6272653D01*
X8284194Y6387806D01*
X8192805Y6479195D01*
X8077652Y6537867D01*
X7982109Y6553000D01*
X7269022Y6553000D01*
X7200901Y6573002D01*
X7154408Y6626658D01*
X7144304Y6696932D01*
X7173798Y6761512D01*
X7233524Y6799896D01*
X7256672Y6804393D01*
X7304064Y6809061D01*
X7304066Y6809061D01*
X7304067Y6809062D01*
X7304072Y6809062D01*
X7500301Y6868588D01*
X7559069Y6900000D01*
X9203951Y6900000D01*
X9224044Y6760247D01*
X9282697Y6631816D01*
X9282700Y6631812D01*
X9375154Y6525113D01*
X9375158Y6525110D01*
X9434545Y6486945D01*
X9493934Y6448778D01*
X9602563Y6416882D01*
X9629401Y6409001D01*
X9629402Y6409001D01*
X9629405Y6409000D01*
X9629408Y6409000D01*
X9770592Y6409000D01*
X9770595Y6409000D01*
X9906066Y6448778D01*
X10024843Y6525111D01*
X10046305Y6549879D01*
X10078948Y6587552D01*
X10117303Y6631816D01*
X10175956Y6760247D01*
X10196049Y6900000D01*
X10175956Y7039753D01*
X10142962Y7112000D01*
X33285951Y7112000D01*
X33306044Y6972247D01*
X33364697Y6843816D01*
X33364700Y6843812D01*
X33457154Y6737113D01*
X33457158Y6737110D01*
X33465760Y6731582D01*
X33575934Y6660778D01*
X33674569Y6631816D01*
X33711401Y6621001D01*
X33711402Y6621001D01*
X33711405Y6621000D01*
X33711408Y6621000D01*
X33852592Y6621000D01*
X33852595Y6621000D01*
X33988066Y6660778D01*
X34106843Y6737111D01*
X34127987Y6761512D01*
X34165143Y6804393D01*
X34199303Y6843816D01*
X34257956Y6972247D01*
X34278049Y7112000D01*
X34257956Y7251753D01*
X34199303Y7380184D01*
X34189931Y7391000D01*
X34106845Y7486888D01*
X34106841Y7486891D01*
X33988066Y7563222D01*
X33852598Y7603000D01*
X33852595Y7603000D01*
X33711405Y7603000D01*
X33711401Y7603000D01*
X33575933Y7563222D01*
X33457158Y7486891D01*
X33457154Y7486888D01*
X33364700Y7380189D01*
X33364697Y7380185D01*
X33306044Y7251754D01*
X33285951Y7112000D01*
X10142962Y7112000D01*
X10117303Y7168184D01*
X10117299Y7168189D01*
X10024845Y7274888D01*
X10024841Y7274891D01*
X9906066Y7351222D01*
X9770598Y7391000D01*
X9770595Y7391000D01*
X9629405Y7391000D01*
X9629401Y7391000D01*
X9493933Y7351222D01*
X9375158Y7274891D01*
X9375154Y7274888D01*
X9282700Y7168189D01*
X9282697Y7168185D01*
X9224044Y7039754D01*
X9203951Y6900000D01*
X7559069Y6900000D01*
X7681147Y6965252D01*
X7839660Y7095340D01*
X7969748Y7253853D01*
X8066412Y7434699D01*
X8125938Y7630928D01*
X8126922Y7640921D01*
X8146037Y7834997D01*
X8146037Y7835004D01*
X8125939Y8039065D01*
X8125939Y8039067D01*
X8125938Y8039070D01*
X8125938Y8039072D01*
X8066412Y8235301D01*
X8058555Y8250000D01*
X22853951Y8250000D01*
X22874044Y8110247D01*
X22932697Y7981816D01*
X22932700Y7981812D01*
X23025154Y7875113D01*
X23025158Y7875110D01*
X23041976Y7864302D01*
X23143934Y7798778D01*
X23252563Y7766882D01*
X23279401Y7759001D01*
X23279402Y7759001D01*
X23279405Y7759000D01*
X23279408Y7759000D01*
X23420592Y7759000D01*
X23420595Y7759000D01*
X23556066Y7798778D01*
X23612424Y7834997D01*
X38523963Y7834997D01*
X38544060Y7630936D01*
X38544060Y7630934D01*
X38603587Y7434702D01*
X38603589Y7434696D01*
X38648207Y7351222D01*
X38700252Y7253853D01*
X38830340Y7095340D01*
X38988853Y6965252D01*
X39169699Y6868588D01*
X39365928Y6809062D01*
X39365932Y6809062D01*
X39365934Y6809061D01*
X39569997Y6788963D01*
X39570000Y6788963D01*
X39570003Y6788963D01*
X39774064Y6809061D01*
X39774066Y6809061D01*
X39774067Y6809062D01*
X39774072Y6809062D01*
X39970301Y6868588D01*
X40151147Y6965252D01*
X40309660Y7095340D01*
X40439748Y7253853D01*
X40536412Y7434699D01*
X40595938Y7630928D01*
X40596922Y7640921D01*
X40616037Y7834997D01*
X41063963Y7834997D01*
X41084060Y7630936D01*
X41084060Y7630934D01*
X41143587Y7434702D01*
X41143589Y7434696D01*
X41188207Y7351222D01*
X41240252Y7253853D01*
X41370340Y7095340D01*
X41528853Y6965252D01*
X41709699Y6868588D01*
X41905928Y6809062D01*
X41905932Y6809062D01*
X41905934Y6809061D01*
X42109997Y6788963D01*
X42110000Y6788963D01*
X42110003Y6788963D01*
X42314064Y6809061D01*
X42314066Y6809061D01*
X42314067Y6809062D01*
X42314072Y6809062D01*
X42510301Y6868588D01*
X42691147Y6965252D01*
X42849660Y7095340D01*
X42979748Y7253853D01*
X43076412Y7434699D01*
X43135938Y7630928D01*
X43136922Y7640921D01*
X43156037Y7834997D01*
X43156037Y7835004D01*
X43135939Y8039065D01*
X43135939Y8039067D01*
X43135938Y8039070D01*
X43135938Y8039072D01*
X43076412Y8235301D01*
X42979748Y8416147D01*
X42849660Y8574660D01*
X42691147Y8704748D01*
X42510304Y8801411D01*
X42510298Y8801413D01*
X42427582Y8826505D01*
X42314072Y8860938D01*
X42314071Y8860939D01*
X42314065Y8860940D01*
X42110003Y8881037D01*
X42109997Y8881037D01*
X41905935Y8860940D01*
X41905933Y8860940D01*
X41709701Y8801413D01*
X41709695Y8801411D01*
X41528852Y8704748D01*
X41370340Y8574660D01*
X41240252Y8416148D01*
X41143589Y8235305D01*
X41143587Y8235299D01*
X41084060Y8039067D01*
X41084060Y8039065D01*
X41063963Y7835004D01*
X41063963Y7834997D01*
X40616037Y7834997D01*
X40616037Y7835004D01*
X40595939Y8039065D01*
X40595939Y8039067D01*
X40595938Y8039070D01*
X40595938Y8039072D01*
X40536412Y8235301D01*
X40439748Y8416147D01*
X40309660Y8574660D01*
X40151147Y8704748D01*
X39970304Y8801411D01*
X39970298Y8801413D01*
X39887582Y8826505D01*
X39774072Y8860938D01*
X39774071Y8860939D01*
X39774065Y8860940D01*
X39570003Y8881037D01*
X39569997Y8881037D01*
X39365935Y8860940D01*
X39365933Y8860940D01*
X39169701Y8801413D01*
X39169695Y8801411D01*
X38988852Y8704748D01*
X38830340Y8574660D01*
X38700252Y8416148D01*
X38603589Y8235305D01*
X38603587Y8235299D01*
X38544060Y8039067D01*
X38544060Y8039065D01*
X38523963Y7835004D01*
X38523963Y7834997D01*
X23612424Y7834997D01*
X23674843Y7875111D01*
X23767303Y7981816D01*
X23825956Y8110247D01*
X23846049Y8250000D01*
X23827071Y8382000D01*
X31761951Y8382000D01*
X31782044Y8242247D01*
X31840697Y8113816D01*
X31840700Y8113812D01*
X31933154Y8007113D01*
X31933158Y8007110D01*
X31972517Y7981816D01*
X32051934Y7930778D01*
X32160563Y7898882D01*
X32187401Y7891001D01*
X32187402Y7891001D01*
X32187405Y7891000D01*
X32187408Y7891000D01*
X32328592Y7891000D01*
X32328595Y7891000D01*
X32464066Y7930778D01*
X32582843Y8007111D01*
X32675303Y8113816D01*
X32733956Y8242247D01*
X32754049Y8382000D01*
X32733956Y8521753D01*
X32681781Y8636000D01*
X33285951Y8636000D01*
X33306044Y8496247D01*
X33364697Y8367816D01*
X33364700Y8367812D01*
X33457154Y8261113D01*
X33457158Y8261110D01*
X33474446Y8250000D01*
X33575934Y8184778D01*
X33684563Y8152882D01*
X33711401Y8145001D01*
X33711402Y8145001D01*
X33711405Y8145000D01*
X33711408Y8145000D01*
X33852592Y8145000D01*
X33852595Y8145000D01*
X33988066Y8184778D01*
X34106843Y8261111D01*
X34199303Y8367816D01*
X34257956Y8496247D01*
X34278049Y8636000D01*
X34257956Y8775753D01*
X34199303Y8904184D01*
X34199299Y8904189D01*
X34106845Y9010888D01*
X34106841Y9010891D01*
X33988066Y9087222D01*
X33852598Y9127000D01*
X33852595Y9127000D01*
X33711405Y9127000D01*
X33711401Y9127000D01*
X33575933Y9087222D01*
X33457158Y9010891D01*
X33457154Y9010888D01*
X33364700Y8904189D01*
X33364697Y8904185D01*
X33306044Y8775754D01*
X33285951Y8636000D01*
X32681781Y8636000D01*
X32675303Y8650184D01*
X32631079Y8701222D01*
X32582845Y8756888D01*
X32582841Y8756891D01*
X32464066Y8833222D01*
X32328598Y8873000D01*
X32328595Y8873000D01*
X32187405Y8873000D01*
X32187401Y8873000D01*
X32051933Y8833222D01*
X31933158Y8756891D01*
X31933154Y8756888D01*
X31840700Y8650189D01*
X31840697Y8650185D01*
X31782044Y8521754D01*
X31761951Y8382000D01*
X23827071Y8382000D01*
X23825956Y8389753D01*
X23767303Y8518184D01*
X23767299Y8518189D01*
X23674845Y8624888D01*
X23674841Y8624891D01*
X23556066Y8701222D01*
X23420598Y8741000D01*
X23420595Y8741000D01*
X23279405Y8741000D01*
X23279401Y8741000D01*
X23143933Y8701222D01*
X23025158Y8624891D01*
X23025154Y8624888D01*
X22932700Y8518189D01*
X22932697Y8518185D01*
X22874044Y8389754D01*
X22853951Y8250000D01*
X8058555Y8250000D01*
X7969748Y8416147D01*
X7839660Y8574660D01*
X7681147Y8704748D01*
X7500304Y8801411D01*
X7500298Y8801413D01*
X7417582Y8826505D01*
X7304072Y8860938D01*
X7304071Y8860939D01*
X7304065Y8860940D01*
X7100003Y8881037D01*
X7099997Y8881037D01*
X6895935Y8860940D01*
X6895933Y8860940D01*
X6699701Y8801413D01*
X6699695Y8801411D01*
X6518852Y8704748D01*
X6360340Y8574660D01*
X6230252Y8416148D01*
X6133589Y8235305D01*
X6133587Y8235299D01*
X6074060Y8039067D01*
X6074060Y8039065D01*
X6053963Y7835004D01*
X6053963Y7834997D01*
X6074060Y7630936D01*
X6074060Y7630934D01*
X6133587Y7434702D01*
X6133589Y7434696D01*
X6178207Y7351222D01*
X6230252Y7253853D01*
X6360340Y7095340D01*
X6518853Y6965252D01*
X6699699Y6868588D01*
X6895928Y6809062D01*
X6895932Y6809062D01*
X6895934Y6809061D01*
X6943328Y6804393D01*
X7009160Y6777811D01*
X7050170Y6719857D01*
X7053337Y6648931D01*
X7017657Y6587552D01*
X6954456Y6555207D01*
X6930978Y6553000D01*
X6217891Y6553000D01*
X6122347Y6537867D01*
X6007194Y6479195D01*
X5915805Y6387806D01*
X5857133Y6272653D01*
X5842000Y6177109D01*
X5842000Y6056991D01*
X5821998Y5988870D01*
X5768342Y5942377D01*
X5698068Y5932273D01*
X5633488Y5961767D01*
X5612787Y5984720D01*
X5527367Y6106712D01*
X5527362Y6106718D01*
X5371717Y6262363D01*
X5371706Y6262372D01*
X5191403Y6388621D01*
X5191401Y6388622D01*
X4991907Y6481648D01*
X4991903Y6481650D01*
X4814000Y6529319D01*
X4814000Y5606686D01*
X4798045Y5622641D01*
X4685148Y5680165D01*
X4591481Y5695000D01*
X4528519Y5695000D01*
X4434852Y5680165D01*
X4321955Y5622641D01*
X4306000Y5606686D01*
X4306000Y6529319D01*
X4128096Y6481650D01*
X4128092Y6481648D01*
X3928594Y6388620D01*
X3748293Y6262372D01*
X3748282Y6262363D01*
X3592637Y6106718D01*
X3592628Y6106707D01*
X3466380Y5926406D01*
X3373352Y5726908D01*
X3373350Y5726904D01*
X3325681Y5549000D01*
X-2449500Y5549000D01*
X-2449500Y7581000D01*
X1077801Y7581000D01*
X1115929Y7463653D01*
X1115934Y7463644D01*
X1211364Y7298353D01*
X1211365Y7298351D01*
X1339079Y7156510D01*
X1339082Y7156507D01*
X1359178Y7141907D01*
X1402532Y7085685D01*
X1408609Y7014949D01*
X1388814Y6968394D01*
X1333659Y6888489D01*
X1333658Y6888486D01*
X1333658Y6888485D01*
X1333656Y6888482D01*
X1300060Y6799896D01*
X1274151Y6731580D01*
X1253925Y6565003D01*
X1253925Y6564998D01*
X1274151Y6398421D01*
X1274151Y6398419D01*
X1274152Y6398418D01*
X1333656Y6241518D01*
X1333657Y6241516D01*
X1333658Y6241515D01*
X1333659Y6241512D01*
X1428978Y6103419D01*
X1428979Y6103418D01*
X1428980Y6103417D01*
X1554584Y5992142D01*
X1703168Y5914159D01*
X1866097Y5874000D01*
X1866098Y5874000D01*
X2033902Y5874000D01*
X2033903Y5874000D01*
X2196832Y5914159D01*
X2345416Y5992142D01*
X2471020Y6103417D01*
X2566344Y6241518D01*
X2625848Y6398418D01*
X2637984Y6498368D01*
X2646075Y6564998D01*
X2646075Y6565003D01*
X2630055Y6696932D01*
X2625848Y6731582D01*
X2566344Y6888482D01*
X2511184Y6968395D01*
X2488949Y7035818D01*
X2506696Y7104561D01*
X2540823Y7141909D01*
X2560920Y7156510D01*
X2688636Y7298355D01*
X2784065Y7463644D01*
X2784070Y7463653D01*
X2822199Y7581000D01*
X2191899Y7581000D01*
X2247060Y7640921D01*
X2293982Y7747892D01*
X2301200Y7834997D01*
X3513963Y7834997D01*
X3534060Y7630936D01*
X3534060Y7630934D01*
X3593587Y7434702D01*
X3593589Y7434696D01*
X3638207Y7351222D01*
X3690252Y7253853D01*
X3820340Y7095340D01*
X3978853Y6965252D01*
X4159699Y6868588D01*
X4355928Y6809062D01*
X4355932Y6809062D01*
X4355934Y6809061D01*
X4559997Y6788963D01*
X4560000Y6788963D01*
X4560003Y6788963D01*
X4764064Y6809061D01*
X4764066Y6809061D01*
X4764067Y6809062D01*
X4764072Y6809062D01*
X4960301Y6868588D01*
X5141147Y6965252D01*
X5299660Y7095340D01*
X5429748Y7253853D01*
X5526412Y7434699D01*
X5585938Y7630928D01*
X5586922Y7640921D01*
X5606037Y7834997D01*
X5606037Y7835004D01*
X5585939Y8039065D01*
X5585939Y8039067D01*
X5585938Y8039070D01*
X5585938Y8039072D01*
X5526412Y8235301D01*
X5429748Y8416147D01*
X5299660Y8574660D01*
X5141147Y8704748D01*
X4960304Y8801411D01*
X4960298Y8801413D01*
X4877582Y8826505D01*
X4764072Y8860938D01*
X4764071Y8860939D01*
X4764065Y8860940D01*
X4560003Y8881037D01*
X4559997Y8881037D01*
X4355935Y8860940D01*
X4355933Y8860940D01*
X4159701Y8801413D01*
X4159695Y8801411D01*
X3978852Y8704748D01*
X3820340Y8574660D01*
X3690252Y8416148D01*
X3593589Y8235305D01*
X3593587Y8235299D01*
X3534060Y8039067D01*
X3534060Y8039065D01*
X3513963Y7835004D01*
X3513963Y7834997D01*
X2301200Y7834997D01*
X2303628Y7864302D01*
X2274953Y7977538D01*
X2211064Y8075327D01*
X2193497Y8089000D01*
X2822198Y8089000D01*
X2784070Y8206348D01*
X2784065Y8206357D01*
X2688635Y8371648D01*
X2688634Y8371650D01*
X2560920Y8513491D01*
X2560917Y8513494D01*
X2540821Y8528094D01*
X2497466Y8584316D01*
X2491390Y8655053D01*
X2511186Y8701608D01*
X2513354Y8704748D01*
X2566344Y8781518D01*
X2625848Y8938418D01*
X2637984Y9038368D01*
X2646075Y9104998D01*
X2646075Y9105003D01*
X2625848Y9271580D01*
X2625848Y9271582D01*
X2566344Y9428482D01*
X2566340Y9428487D01*
X2566340Y9428489D01*
X2471020Y9566583D01*
X2471018Y9566585D01*
X2381729Y9645688D01*
X2344003Y9705832D01*
X2344783Y9776824D01*
X2381729Y9834312D01*
X2411460Y9860652D01*
X2471020Y9913417D01*
X2566344Y10051518D01*
X2625848Y10208418D01*
X2646075Y10374997D01*
X3513963Y10374997D01*
X3534060Y10170936D01*
X3534060Y10170934D01*
X3593587Y9974702D01*
X3593589Y9974696D01*
X3626344Y9913416D01*
X3690252Y9793853D01*
X3820340Y9635340D01*
X3978853Y9505252D01*
X4159699Y9408588D01*
X4355928Y9349062D01*
X4355932Y9349062D01*
X4355934Y9349061D01*
X4559997Y9328963D01*
X4560000Y9328963D01*
X4560003Y9328963D01*
X4764064Y9349061D01*
X4764066Y9349061D01*
X4764067Y9349062D01*
X4764072Y9349062D01*
X4960301Y9408588D01*
X5141147Y9505252D01*
X5299660Y9635340D01*
X5429748Y9793853D01*
X5526412Y9974699D01*
X5585938Y10170928D01*
X5588746Y10199438D01*
X5606037Y10374997D01*
X6053963Y10374997D01*
X6074060Y10170936D01*
X6074060Y10170934D01*
X6133587Y9974702D01*
X6133589Y9974696D01*
X6166344Y9913416D01*
X6230252Y9793853D01*
X6360340Y9635340D01*
X6518853Y9505252D01*
X6699699Y9408588D01*
X6895928Y9349062D01*
X6895932Y9349062D01*
X6895934Y9349061D01*
X7099997Y9328963D01*
X7100000Y9328963D01*
X7100003Y9328963D01*
X7304064Y9349061D01*
X7304066Y9349061D01*
X7304067Y9349062D01*
X7304072Y9349062D01*
X7500301Y9408588D01*
X7681147Y9505252D01*
X7839660Y9635340D01*
X7969748Y9793853D01*
X8066412Y9974699D01*
X8125938Y10170928D01*
X8128746Y10199438D01*
X8146037Y10374997D01*
X8146037Y10374998D01*
X38511202Y10374998D01*
X38531545Y10168446D01*
X38531546Y10168440D01*
X38531547Y10168439D01*
X38591798Y9969816D01*
X38689642Y9786763D01*
X38821317Y9626317D01*
X38981763Y9494642D01*
X39164816Y9396798D01*
X39363439Y9336547D01*
X39363443Y9336547D01*
X39363445Y9336546D01*
X39569997Y9316202D01*
X39570000Y9316202D01*
X39570003Y9316202D01*
X39776554Y9336546D01*
X39776555Y9336547D01*
X39776561Y9336547D01*
X39975184Y9396798D01*
X40158237Y9494642D01*
X40318683Y9626317D01*
X40450358Y9786763D01*
X40548202Y9969816D01*
X40608453Y10168439D01*
X40611641Y10200804D01*
X40638223Y10266636D01*
X40696176Y10307647D01*
X40767102Y10310815D01*
X40828482Y10275134D01*
X40860827Y10211934D01*
X40862554Y10199438D01*
X40866379Y10155721D01*
X40866380Y10155715D01*
X40923350Y9943097D01*
X40923352Y9943093D01*
X41016378Y9743599D01*
X41016379Y9743597D01*
X41142628Y9563294D01*
X41142637Y9563283D01*
X41298282Y9407638D01*
X41298293Y9407629D01*
X41478596Y9281380D01*
X41478598Y9281379D01*
X41678094Y9188352D01*
X41678093Y9188352D01*
X41856000Y9140684D01*
X41856000Y10063314D01*
X41871955Y10047359D01*
X41984852Y9989835D01*
X42078519Y9975000D01*
X42141481Y9975000D01*
X42235148Y9989835D01*
X42348045Y10047359D01*
X42364000Y10063314D01*
X42364000Y9140684D01*
X42541905Y9188352D01*
X42741401Y9281379D01*
X42741403Y9281380D01*
X42921706Y9407629D01*
X42921717Y9407638D01*
X43077362Y9563283D01*
X43077371Y9563294D01*
X43203620Y9743597D01*
X43203621Y9743599D01*
X43296647Y9943093D01*
X43296649Y9943097D01*
X43344318Y10121000D01*
X42421686Y10121000D01*
X42437641Y10136955D01*
X42495165Y10249852D01*
X42514986Y10375000D01*
X42495165Y10500148D01*
X42437641Y10613045D01*
X42421686Y10629000D01*
X43344318Y10629000D01*
X43296649Y10806904D01*
X43296647Y10806908D01*
X43203619Y11006406D01*
X43077371Y11186707D01*
X43077362Y11186718D01*
X42921717Y11342363D01*
X42921706Y11342372D01*
X42741403Y11468621D01*
X42741401Y11468622D01*
X42541907Y11561648D01*
X42541903Y11561650D01*
X42364000Y11609319D01*
X42364000Y10686686D01*
X42348045Y10702641D01*
X42235148Y10760165D01*
X42141481Y10775000D01*
X42078519Y10775000D01*
X41984852Y10760165D01*
X41871955Y10702641D01*
X41856000Y10686686D01*
X41856000Y11609319D01*
X41678096Y11561650D01*
X41678092Y11561648D01*
X41478594Y11468620D01*
X41298293Y11342372D01*
X41298282Y11342363D01*
X41142637Y11186718D01*
X41142628Y11186707D01*
X41016380Y11006406D01*
X40923352Y10806908D01*
X40923350Y10806904D01*
X40866380Y10594286D01*
X40866379Y10594280D01*
X40862554Y10550563D01*
X40836691Y10484445D01*
X40779187Y10442806D01*
X40708299Y10438866D01*
X40646535Y10473876D01*
X40613504Y10536721D01*
X40611641Y10549197D01*
X40608454Y10581555D01*
X40608453Y10581557D01*
X40608453Y10581561D01*
X40548202Y10780184D01*
X40450358Y10963237D01*
X40318683Y11123683D01*
X40158237Y11255358D01*
X39975184Y11353202D01*
X39776561Y11413453D01*
X39776560Y11413454D01*
X39776554Y11413455D01*
X39570003Y11433798D01*
X39569997Y11433798D01*
X39363445Y11413455D01*
X39164815Y11353202D01*
X38981762Y11255358D01*
X38821317Y11123683D01*
X38689642Y10963238D01*
X38591798Y10780185D01*
X38531545Y10581555D01*
X38511202Y10375003D01*
X38511202Y10374998D01*
X8146037Y10374998D01*
X8146037Y10375004D01*
X8125939Y10579065D01*
X8125939Y10579067D01*
X8125938Y10579070D01*
X8125938Y10579072D01*
X8066412Y10775301D01*
X8063801Y10780185D01*
X8033655Y10836585D01*
X7969748Y10956147D01*
X7839660Y11114660D01*
X7681147Y11244748D01*
X7661297Y11255358D01*
X7500304Y11341411D01*
X7500298Y11341413D01*
X7304065Y11400940D01*
X7100003Y11421037D01*
X7099997Y11421037D01*
X6895935Y11400940D01*
X6895933Y11400940D01*
X6699701Y11341413D01*
X6699695Y11341411D01*
X6518852Y11244748D01*
X6360340Y11114660D01*
X6230252Y10956148D01*
X6133589Y10775305D01*
X6133587Y10775299D01*
X6074060Y10579067D01*
X6074060Y10579065D01*
X6053963Y10375004D01*
X6053963Y10374997D01*
X5606037Y10374997D01*
X5606037Y10375004D01*
X5585939Y10579065D01*
X5585939Y10579067D01*
X5585938Y10579070D01*
X5585938Y10579072D01*
X5526412Y10775301D01*
X5523801Y10780185D01*
X5493655Y10836585D01*
X5429748Y10956147D01*
X5299660Y11114660D01*
X5141147Y11244748D01*
X5121297Y11255358D01*
X4960304Y11341411D01*
X4960298Y11341413D01*
X4764065Y11400940D01*
X4560003Y11421037D01*
X4559997Y11421037D01*
X4355935Y11400940D01*
X4355933Y11400940D01*
X4159701Y11341413D01*
X4159695Y11341411D01*
X3978852Y11244748D01*
X3820340Y11114660D01*
X3690252Y10956148D01*
X3593589Y10775305D01*
X3593587Y10775299D01*
X3534060Y10579067D01*
X3534060Y10579065D01*
X3513963Y10375004D01*
X3513963Y10374997D01*
X2646075Y10374997D01*
X2646075Y10375000D01*
X2625848Y10541582D01*
X2566344Y10698482D01*
X2566340Y10698487D01*
X2566340Y10698489D01*
X2471020Y10836583D01*
X2471018Y10836585D01*
X2381729Y10915688D01*
X2344003Y10975832D01*
X2344783Y11046824D01*
X2381729Y11104312D01*
X2411460Y11130652D01*
X2471020Y11183417D01*
X2566344Y11321518D01*
X2625848Y11478418D01*
X2637984Y11578368D01*
X2646075Y11644998D01*
X2646075Y11645003D01*
X2625848Y11811580D01*
X2625848Y11811582D01*
X2566344Y11968482D01*
X2566340Y11968487D01*
X2566340Y11968489D01*
X2471020Y12106583D01*
X2471018Y12106585D01*
X2381729Y12185688D01*
X2344003Y12245832D01*
X2344783Y12316824D01*
X2381729Y12374312D01*
X2411460Y12400652D01*
X2471020Y12453417D01*
X2566344Y12591518D01*
X2625848Y12748418D01*
X2646075Y12914997D01*
X3513963Y12914997D01*
X3534060Y12710936D01*
X3534060Y12710934D01*
X3593587Y12514702D01*
X3593589Y12514696D01*
X3626344Y12453416D01*
X3690252Y12333853D01*
X3820340Y12175340D01*
X3978853Y12045252D01*
X4159699Y11948588D01*
X4355928Y11889062D01*
X4355932Y11889062D01*
X4355934Y11889061D01*
X4559997Y11868963D01*
X4560000Y11868963D01*
X4560003Y11868963D01*
X4764064Y11889061D01*
X4764066Y11889061D01*
X4764067Y11889062D01*
X4764072Y11889062D01*
X4960301Y11948588D01*
X5141147Y12045252D01*
X5299660Y12175340D01*
X5429748Y12333853D01*
X5526412Y12514699D01*
X5585938Y12710928D01*
X5585939Y12710936D01*
X5606037Y12914997D01*
X6053963Y12914997D01*
X6074060Y12710936D01*
X6074060Y12710934D01*
X6133587Y12514702D01*
X6133589Y12514696D01*
X6166344Y12453416D01*
X6230252Y12333853D01*
X6360340Y12175340D01*
X6518853Y12045252D01*
X6699699Y11948588D01*
X6895928Y11889062D01*
X6895932Y11889062D01*
X6895934Y11889061D01*
X7099997Y11868963D01*
X7100000Y11868963D01*
X7100003Y11868963D01*
X7304064Y11889061D01*
X7304066Y11889061D01*
X7304067Y11889062D01*
X7304072Y11889062D01*
X7500301Y11948588D01*
X7681147Y12045252D01*
X7839660Y12175340D01*
X7969748Y12333853D01*
X8066412Y12514699D01*
X8125938Y12710928D01*
X8125939Y12710936D01*
X8146037Y12914997D01*
X8146037Y12914998D01*
X38511202Y12914998D01*
X38531545Y12708446D01*
X38531546Y12708440D01*
X38531547Y12708439D01*
X38591798Y12509816D01*
X38689642Y12326763D01*
X38821317Y12166317D01*
X38981763Y12034642D01*
X39164816Y11936798D01*
X39363439Y11876547D01*
X39363443Y11876547D01*
X39363445Y11876546D01*
X39569997Y11856202D01*
X39570000Y11856202D01*
X39570003Y11856202D01*
X39776554Y11876546D01*
X39776555Y11876547D01*
X39776561Y11876547D01*
X39975184Y11936798D01*
X40158237Y12034642D01*
X40318683Y12166317D01*
X40450358Y12326763D01*
X40548202Y12509816D01*
X40608453Y12708439D01*
X40628798Y12914997D01*
X41063963Y12914997D01*
X41084060Y12710936D01*
X41084060Y12710934D01*
X41143587Y12514702D01*
X41143589Y12514696D01*
X41176344Y12453416D01*
X41240252Y12333853D01*
X41370340Y12175340D01*
X41528853Y12045252D01*
X41709699Y11948588D01*
X41905928Y11889062D01*
X41905932Y11889062D01*
X41905934Y11889061D01*
X42109997Y11868963D01*
X42110000Y11868963D01*
X42110003Y11868963D01*
X42314064Y11889061D01*
X42314066Y11889061D01*
X42314067Y11889062D01*
X42314072Y11889062D01*
X42510301Y11948588D01*
X42691147Y12045252D01*
X42849660Y12175340D01*
X42979748Y12333853D01*
X43076412Y12514699D01*
X43135938Y12710928D01*
X43135939Y12710936D01*
X43156037Y12914997D01*
X43156037Y12915004D01*
X43135939Y13119065D01*
X43135939Y13119067D01*
X43135938Y13119070D01*
X43135938Y13119072D01*
X43076412Y13315301D01*
X43073801Y13320185D01*
X43021024Y13418924D01*
X42979748Y13496147D01*
X42849660Y13654660D01*
X42691147Y13784748D01*
X42510304Y13881411D01*
X42510298Y13881413D01*
X42314065Y13940940D01*
X42110003Y13961037D01*
X42109997Y13961037D01*
X41905935Y13940940D01*
X41905933Y13940940D01*
X41709701Y13881413D01*
X41709695Y13881411D01*
X41528852Y13784748D01*
X41370340Y13654660D01*
X41240252Y13496148D01*
X41143589Y13315305D01*
X41143587Y13315299D01*
X41084060Y13119067D01*
X41084060Y13119065D01*
X41063963Y12915004D01*
X41063963Y12914997D01*
X40628798Y12914997D01*
X40628798Y12915000D01*
X40608699Y13119067D01*
X40608454Y13121555D01*
X40608453Y13121557D01*
X40608453Y13121561D01*
X40548202Y13320184D01*
X40450358Y13503237D01*
X40318683Y13663683D01*
X40158237Y13795358D01*
X39975184Y13893202D01*
X39776561Y13953453D01*
X39776560Y13953454D01*
X39776554Y13953455D01*
X39570003Y13973798D01*
X39569997Y13973798D01*
X39363445Y13953455D01*
X39164815Y13893202D01*
X38981762Y13795358D01*
X38821317Y13663683D01*
X38689642Y13503238D01*
X38591798Y13320185D01*
X38531545Y13121555D01*
X38511202Y12915003D01*
X38511202Y12914998D01*
X8146037Y12914998D01*
X8146037Y12915004D01*
X8125939Y13119065D01*
X8125939Y13119067D01*
X8125938Y13119070D01*
X8125938Y13119072D01*
X8066412Y13315301D01*
X8063801Y13320185D01*
X8011024Y13418924D01*
X35604231Y13418924D01*
X35624324Y13279171D01*
X35682977Y13150740D01*
X35682980Y13150736D01*
X35775434Y13044037D01*
X35775438Y13044034D01*
X35834825Y13005869D01*
X35894214Y12967702D01*
X36002843Y12935806D01*
X36029681Y12927925D01*
X36029682Y12927925D01*
X36029685Y12927924D01*
X36029688Y12927924D01*
X36170872Y12927924D01*
X36170875Y12927924D01*
X36306346Y12967702D01*
X36425123Y13044035D01*
X36517583Y13150740D01*
X36576236Y13279171D01*
X36596329Y13418924D01*
X36576236Y13558677D01*
X36517583Y13687108D01*
X36517579Y13687113D01*
X36425125Y13793812D01*
X36425121Y13793815D01*
X36306346Y13870146D01*
X36170878Y13909924D01*
X36170875Y13909924D01*
X36029685Y13909924D01*
X36029681Y13909924D01*
X35894213Y13870146D01*
X35775438Y13793815D01*
X35775434Y13793812D01*
X35682980Y13687113D01*
X35682977Y13687109D01*
X35624324Y13558678D01*
X35604231Y13418924D01*
X8011024Y13418924D01*
X7969748Y13496147D01*
X7839660Y13654660D01*
X7681147Y13784748D01*
X7500304Y13881411D01*
X7500298Y13881413D01*
X7304065Y13940940D01*
X7100003Y13961037D01*
X7099997Y13961037D01*
X6895935Y13940940D01*
X6895933Y13940940D01*
X6699701Y13881413D01*
X6699695Y13881411D01*
X6518852Y13784748D01*
X6360340Y13654660D01*
X6230252Y13496148D01*
X6133589Y13315305D01*
X6133587Y13315299D01*
X6074060Y13119067D01*
X6074060Y13119065D01*
X6053963Y12915004D01*
X6053963Y12914997D01*
X5606037Y12914997D01*
X5606037Y12915004D01*
X5585939Y13119065D01*
X5585939Y13119067D01*
X5585938Y13119070D01*
X5585938Y13119072D01*
X5526412Y13315301D01*
X5523801Y13320185D01*
X5471024Y13418924D01*
X5429748Y13496147D01*
X5299660Y13654660D01*
X5141147Y13784748D01*
X4960304Y13881411D01*
X4960298Y13881413D01*
X4764065Y13940940D01*
X4560003Y13961037D01*
X4559997Y13961037D01*
X4355935Y13940940D01*
X4355933Y13940940D01*
X4159701Y13881413D01*
X4159695Y13881411D01*
X3978852Y13784748D01*
X3820340Y13654660D01*
X3690252Y13496148D01*
X3593589Y13315305D01*
X3593587Y13315299D01*
X3534060Y13119067D01*
X3534060Y13119065D01*
X3513963Y12915004D01*
X3513963Y12914997D01*
X2646075Y12914997D01*
X2646075Y12915000D01*
X2625848Y13081582D01*
X2566344Y13238482D01*
X2511184Y13318395D01*
X2488949Y13385818D01*
X2506696Y13454561D01*
X2540823Y13491909D01*
X2560920Y13506510D01*
X2688636Y13648355D01*
X2784065Y13813644D01*
X2784070Y13813653D01*
X2822199Y13931000D01*
X2191899Y13931000D01*
X2247060Y13990921D01*
X2293982Y14097892D01*
X2303628Y14214302D01*
X2274953Y14327538D01*
X2211064Y14425327D01*
X2193497Y14439000D01*
X2822198Y14439000D01*
X2784070Y14556348D01*
X2784065Y14556357D01*
X2688635Y14721648D01*
X2688634Y14721650D01*
X2560920Y14863491D01*
X2560917Y14863494D01*
X2540821Y14878094D01*
X2497466Y14934316D01*
X2491390Y15005053D01*
X2511186Y15051608D01*
X2513318Y15054696D01*
X2566344Y15131518D01*
X2625848Y15288418D01*
X2646075Y15454997D01*
X3513963Y15454997D01*
X3534060Y15250936D01*
X3534060Y15250934D01*
X3593587Y15054702D01*
X3593589Y15054696D01*
X3657934Y14934316D01*
X3690252Y14873853D01*
X3820340Y14715340D01*
X3978853Y14585252D01*
X4118332Y14510699D01*
X4143826Y14497072D01*
X4159699Y14488588D01*
X4355928Y14429062D01*
X4355932Y14429062D01*
X4355934Y14429061D01*
X4559997Y14408963D01*
X4560000Y14408963D01*
X4560003Y14408963D01*
X4764064Y14429061D01*
X4764066Y14429061D01*
X4764067Y14429062D01*
X4764072Y14429062D01*
X4960301Y14488588D01*
X5141147Y14585252D01*
X5142285Y14586186D01*
X6059000Y14586186D01*
X6070081Y14530478D01*
X6070082Y14530475D01*
X6112296Y14467297D01*
X6154511Y14439090D01*
X6175475Y14425082D01*
X6231188Y14414000D01*
X6231189Y14414000D01*
X7968811Y14414000D01*
X7968812Y14414000D01*
X8024525Y14425082D01*
X8087703Y14467297D01*
X8129918Y14530475D01*
X8141000Y14586188D01*
X8141000Y15748000D01*
X25869151Y15748000D01*
X25889244Y15608247D01*
X25947897Y15479816D01*
X25947900Y15479812D01*
X26040354Y15373113D01*
X26040358Y15373110D01*
X26099745Y15334945D01*
X26159134Y15296778D01*
X26267763Y15264882D01*
X26294601Y15257001D01*
X26294602Y15257001D01*
X26294605Y15257000D01*
X26294608Y15257000D01*
X26435792Y15257000D01*
X26435795Y15257000D01*
X26571266Y15296778D01*
X26690043Y15373111D01*
X26760997Y15454997D01*
X38523963Y15454997D01*
X38544060Y15250936D01*
X38544060Y15250934D01*
X38603587Y15054702D01*
X38603589Y15054696D01*
X38667934Y14934316D01*
X38700252Y14873853D01*
X38830340Y14715340D01*
X38988853Y14585252D01*
X39128332Y14510699D01*
X39153826Y14497072D01*
X39169699Y14488588D01*
X39365928Y14429062D01*
X39365932Y14429062D01*
X39365934Y14429061D01*
X39569997Y14408963D01*
X39570000Y14408963D01*
X39570003Y14408963D01*
X39774064Y14429061D01*
X39774066Y14429061D01*
X39774067Y14429062D01*
X39774072Y14429062D01*
X39970301Y14488588D01*
X40151147Y14585252D01*
X40309660Y14715340D01*
X40439748Y14873853D01*
X40536412Y15054699D01*
X40595938Y15250928D01*
X40596536Y15257001D01*
X40616037Y15454997D01*
X41063963Y15454997D01*
X41084060Y15250936D01*
X41084060Y15250934D01*
X41143587Y15054702D01*
X41143589Y15054696D01*
X41207934Y14934316D01*
X41240252Y14873853D01*
X41370340Y14715340D01*
X41528853Y14585252D01*
X41668332Y14510699D01*
X41693826Y14497072D01*
X41709699Y14488588D01*
X41905928Y14429062D01*
X41905932Y14429062D01*
X41905934Y14429061D01*
X42109997Y14408963D01*
X42110000Y14408963D01*
X42110003Y14408963D01*
X42314064Y14429061D01*
X42314066Y14429061D01*
X42314067Y14429062D01*
X42314072Y14429062D01*
X42510301Y14488588D01*
X42691147Y14585252D01*
X42849660Y14715340D01*
X42979748Y14873853D01*
X43076412Y15054699D01*
X43135938Y15250928D01*
X43136536Y15257001D01*
X43156037Y15454997D01*
X43156037Y15455004D01*
X43135939Y15659065D01*
X43135939Y15659067D01*
X43135938Y15659070D01*
X43135938Y15659072D01*
X43076412Y15855301D01*
X42979748Y16036147D01*
X42849660Y16194660D01*
X42691147Y16324748D01*
X42510304Y16421411D01*
X42510298Y16421413D01*
X42314065Y16480940D01*
X42110003Y16501037D01*
X42109997Y16501037D01*
X41905935Y16480940D01*
X41905933Y16480940D01*
X41709701Y16421413D01*
X41709695Y16421411D01*
X41528852Y16324748D01*
X41370340Y16194660D01*
X41240252Y16036148D01*
X41143589Y15855305D01*
X41143587Y15855299D01*
X41084060Y15659067D01*
X41084060Y15659065D01*
X41063963Y15455004D01*
X41063963Y15454997D01*
X40616037Y15454997D01*
X40616037Y15455004D01*
X40595939Y15659065D01*
X40595939Y15659067D01*
X40595938Y15659070D01*
X40595938Y15659072D01*
X40536412Y15855301D01*
X40439748Y16036147D01*
X40309660Y16194660D01*
X40151147Y16324748D01*
X39970304Y16421411D01*
X39970298Y16421413D01*
X39774065Y16480940D01*
X39570003Y16501037D01*
X39569997Y16501037D01*
X39365935Y16480940D01*
X39365933Y16480940D01*
X39169701Y16421413D01*
X39169695Y16421411D01*
X38988852Y16324748D01*
X38830340Y16194660D01*
X38700252Y16036148D01*
X38603589Y15855305D01*
X38603587Y15855299D01*
X38544060Y15659067D01*
X38544060Y15659065D01*
X38523963Y15455004D01*
X38523963Y15454997D01*
X26760997Y15454997D01*
X26782503Y15479816D01*
X26841156Y15608247D01*
X26861249Y15748000D01*
X26841156Y15887753D01*
X26782503Y16016184D01*
X26782499Y16016189D01*
X26690045Y16122888D01*
X26690041Y16122891D01*
X26571266Y16199222D01*
X26435798Y16239000D01*
X26435795Y16239000D01*
X26294605Y16239000D01*
X26294601Y16239000D01*
X26159133Y16199222D01*
X26040358Y16122891D01*
X26040354Y16122888D01*
X25947900Y16016189D01*
X25947897Y16016185D01*
X25889244Y15887754D01*
X25869151Y15748000D01*
X8141000Y15748000D01*
X8141000Y16323812D01*
X8129918Y16379525D01*
X8101930Y16421411D01*
X8087703Y16442704D01*
X8024525Y16484918D01*
X8024522Y16484919D01*
X7968814Y16496000D01*
X7968812Y16496000D01*
X6231188Y16496000D01*
X6231185Y16496000D01*
X6175477Y16484919D01*
X6175474Y16484918D01*
X6112296Y16442704D01*
X6070082Y16379526D01*
X6070081Y16379523D01*
X6059000Y16323815D01*
X6059000Y14586186D01*
X5142285Y14586186D01*
X5299660Y14715340D01*
X5429748Y14873853D01*
X5526412Y15054699D01*
X5585938Y15250928D01*
X5586536Y15257001D01*
X5606037Y15454997D01*
X5606037Y15455004D01*
X5585939Y15659065D01*
X5585939Y15659067D01*
X5585938Y15659070D01*
X5585938Y15659072D01*
X5526412Y15855301D01*
X5429748Y16036147D01*
X5299660Y16194660D01*
X5141147Y16324748D01*
X4960304Y16421411D01*
X4960298Y16421413D01*
X4764065Y16480940D01*
X4560003Y16501037D01*
X4559997Y16501037D01*
X4355935Y16480940D01*
X4355933Y16480940D01*
X4159701Y16421413D01*
X4159695Y16421411D01*
X3978852Y16324748D01*
X3820340Y16194660D01*
X3690252Y16036148D01*
X3593589Y15855305D01*
X3593587Y15855299D01*
X3534060Y15659067D01*
X3534060Y15659065D01*
X3513963Y15455004D01*
X3513963Y15454997D01*
X2646075Y15454997D01*
X2646075Y15455000D01*
X2643062Y15479812D01*
X2625848Y15621580D01*
X2625848Y15621582D01*
X2566344Y15778482D01*
X2499871Y15874785D01*
X2477636Y15942207D01*
X2495383Y16010950D01*
X2533563Y16051122D01*
X2587703Y16087297D01*
X2629918Y16150475D01*
X2641000Y16206188D01*
X2641000Y17243812D01*
X2629918Y17299525D01*
X2615910Y17320489D01*
X2587703Y17362704D01*
X2524525Y17404918D01*
X2524522Y17404919D01*
X2468814Y17416000D01*
X2468812Y17416000D01*
X1431188Y17416000D01*
X1431185Y17416000D01*
X1375477Y17404919D01*
X1375474Y17404918D01*
X1312296Y17362704D01*
X1270082Y17299526D01*
X1270081Y17299523D01*
X1259000Y17243815D01*
X1259000Y16206186D01*
X1270081Y16150478D01*
X1270082Y16150475D01*
X1312297Y16087297D01*
X1366433Y16051124D01*
X1411961Y15996647D01*
X1420808Y15926203D01*
X1400127Y15874783D01*
X1333659Y15778489D01*
X1333658Y15778486D01*
X1274151Y15621580D01*
X1253925Y15455003D01*
X1253925Y15454998D01*
X1274151Y15288421D01*
X1274151Y15288419D01*
X1274152Y15288418D01*
X1333656Y15131518D01*
X1333657Y15131516D01*
X1333658Y15131515D01*
X1333659Y15131512D01*
X1388814Y15051607D01*
X1411050Y14984183D01*
X1393303Y14915440D01*
X1359181Y14878096D01*
X1339081Y14863493D01*
X1339079Y14863491D01*
X1211365Y14721650D01*
X1211364Y14721648D01*
X1115934Y14556357D01*
X1115929Y14556348D01*
X1077801Y14439000D01*
X1708101Y14439000D01*
X1652940Y14379079D01*
X1606018Y14272108D01*
X1596372Y14155698D01*
X1625047Y14042462D01*
X1688936Y13944673D01*
X1706503Y13931000D01*
X1077801Y13931000D01*
X1115929Y13813653D01*
X1115934Y13813644D01*
X1211364Y13648353D01*
X1211365Y13648351D01*
X1339079Y13506510D01*
X1339082Y13506507D01*
X1359178Y13491907D01*
X1402532Y13435685D01*
X1408609Y13364949D01*
X1388814Y13318394D01*
X1333659Y13238489D01*
X1333658Y13238486D01*
X1274151Y13081580D01*
X1253925Y12915003D01*
X1253925Y12914998D01*
X1274151Y12748421D01*
X1274151Y12748419D01*
X1274152Y12748418D01*
X1333656Y12591518D01*
X1333657Y12591516D01*
X1333658Y12591515D01*
X1333659Y12591512D01*
X1428978Y12453419D01*
X1518271Y12374312D01*
X1555996Y12314168D01*
X1555216Y12243175D01*
X1518271Y12185688D01*
X1428978Y12106582D01*
X1333659Y11968489D01*
X1333658Y11968486D01*
X1333657Y11968484D01*
X1333656Y11968482D01*
X1295914Y11868963D01*
X1274151Y11811580D01*
X1253925Y11645003D01*
X1253925Y11644998D01*
X1274151Y11478421D01*
X1274151Y11478419D01*
X1274152Y11478418D01*
X1333656Y11321518D01*
X1333657Y11321516D01*
X1333658Y11321515D01*
X1333659Y11321512D01*
X1428978Y11183419D01*
X1518271Y11104312D01*
X1555996Y11044168D01*
X1555216Y10973175D01*
X1518271Y10915688D01*
X1428978Y10836582D01*
X1333659Y10698489D01*
X1333658Y10698486D01*
X1274151Y10541580D01*
X1253925Y10375003D01*
X1253925Y10374998D01*
X1274151Y10208421D01*
X1274151Y10208419D01*
X1274152Y10208418D01*
X1333656Y10051518D01*
X1333657Y10051516D01*
X1333658Y10051515D01*
X1333659Y10051512D01*
X1428978Y9913419D01*
X1518271Y9834312D01*
X1555996Y9774168D01*
X1555216Y9703175D01*
X1518271Y9645688D01*
X1428978Y9566582D01*
X1333659Y9428489D01*
X1333658Y9428486D01*
X1333657Y9428484D01*
X1333656Y9428482D01*
X1295914Y9328963D01*
X1274151Y9271580D01*
X1253925Y9105003D01*
X1253925Y9104998D01*
X1274151Y8938421D01*
X1274151Y8938419D01*
X1274152Y8938418D01*
X1333656Y8781518D01*
X1333657Y8781516D01*
X1333658Y8781515D01*
X1333659Y8781512D01*
X1388814Y8701607D01*
X1411050Y8634183D01*
X1393303Y8565440D01*
X1359181Y8528096D01*
X1339081Y8513493D01*
X1339079Y8513491D01*
X1211365Y8371650D01*
X1211364Y8371648D01*
X1115934Y8206357D01*
X1115929Y8206348D01*
X1077801Y8089000D01*
X1708101Y8089000D01*
X1652940Y8029079D01*
X1606018Y7922108D01*
X1596372Y7805698D01*
X1625047Y7692462D01*
X1688936Y7594673D01*
X1706503Y7581000D01*
X1077801Y7581000D01*
X-2449500Y7581000D01*
X-2449500Y17994997D01*
X3513963Y17994997D01*
X3534060Y17790936D01*
X3534060Y17790934D01*
X3593587Y17594702D01*
X3593589Y17594696D01*
X3636129Y17515110D01*
X3690252Y17413853D01*
X3820340Y17255340D01*
X3978853Y17125252D01*
X4159699Y17028588D01*
X4355928Y16969062D01*
X4355932Y16969062D01*
X4355934Y16969061D01*
X4559997Y16948963D01*
X4560000Y16948963D01*
X4560003Y16948963D01*
X4764064Y16969061D01*
X4764066Y16969061D01*
X4764067Y16969062D01*
X4764072Y16969062D01*
X4960301Y17028588D01*
X5141147Y17125252D01*
X5299660Y17255340D01*
X5429748Y17413853D01*
X5526412Y17594699D01*
X5585938Y17790928D01*
X5588746Y17819438D01*
X5606037Y17994997D01*
X6053963Y17994997D01*
X6074060Y17790936D01*
X6074060Y17790934D01*
X6133587Y17594702D01*
X6133589Y17594696D01*
X6176129Y17515110D01*
X6230252Y17413853D01*
X6360340Y17255340D01*
X6518853Y17125252D01*
X6699699Y17028588D01*
X6895928Y16969062D01*
X6895932Y16969062D01*
X6895934Y16969061D01*
X7099997Y16948963D01*
X7100000Y16948963D01*
X7100003Y16948963D01*
X7304064Y16969061D01*
X7304066Y16969061D01*
X7304067Y16969062D01*
X7304072Y16969062D01*
X7500301Y17028588D01*
X7681147Y17125252D01*
X7839660Y17255340D01*
X7969748Y17413853D01*
X8066412Y17594699D01*
X8125938Y17790928D01*
X8128746Y17819438D01*
X8146037Y17994997D01*
X8146037Y17995004D01*
X8130771Y18150000D01*
X23113951Y18150000D01*
X23134044Y18010247D01*
X23192697Y17881816D01*
X23192700Y17881812D01*
X23285154Y17775113D01*
X23285158Y17775110D01*
X23313408Y17756955D01*
X23403934Y17698778D01*
X23510937Y17667359D01*
X23539401Y17659001D01*
X23539402Y17659001D01*
X23539405Y17659000D01*
X23539408Y17659000D01*
X23680592Y17659000D01*
X23680595Y17659000D01*
X23816066Y17698778D01*
X23816066Y17698779D01*
X23824712Y17701317D01*
X23825590Y17698324D01*
X23880500Y17706227D01*
X23945085Y17676745D01*
X23977202Y17633848D01*
X23982696Y17621818D01*
X23982700Y17621812D01*
X24075154Y17515113D01*
X24075158Y17515110D01*
X24129318Y17480304D01*
X24193934Y17438778D01*
X24302563Y17406882D01*
X24329401Y17399001D01*
X24329402Y17399001D01*
X24329405Y17399000D01*
X24329408Y17399000D01*
X24470592Y17399000D01*
X24470595Y17399000D01*
X24606066Y17438778D01*
X24724843Y17515111D01*
X24817303Y17621816D01*
X24875956Y17750247D01*
X24896049Y17890000D01*
X24880953Y17994998D01*
X38511202Y17994998D01*
X38531545Y17788446D01*
X38531546Y17788440D01*
X38531547Y17788439D01*
X38591798Y17589816D01*
X38689642Y17406763D01*
X38821317Y17246317D01*
X38981763Y17114642D01*
X39164816Y17016798D01*
X39363439Y16956547D01*
X39363443Y16956547D01*
X39363445Y16956546D01*
X39569997Y16936202D01*
X39570000Y16936202D01*
X39570003Y16936202D01*
X39776554Y16956546D01*
X39776555Y16956547D01*
X39776561Y16956547D01*
X39975184Y17016798D01*
X40158237Y17114642D01*
X40318683Y17246317D01*
X40450358Y17406763D01*
X40548202Y17589816D01*
X40608453Y17788439D01*
X40611641Y17820804D01*
X40638223Y17886636D01*
X40696176Y17927647D01*
X40767102Y17930815D01*
X40828482Y17895134D01*
X40860827Y17831934D01*
X40862554Y17819438D01*
X40866379Y17775721D01*
X40866380Y17775715D01*
X40923350Y17563097D01*
X40923352Y17563093D01*
X41016378Y17363599D01*
X41016379Y17363597D01*
X41142628Y17183294D01*
X41142637Y17183283D01*
X41298282Y17027638D01*
X41298293Y17027629D01*
X41478596Y16901380D01*
X41478598Y16901379D01*
X41678094Y16808352D01*
X41678093Y16808352D01*
X41856000Y16760684D01*
X41856000Y17683314D01*
X41871955Y17667359D01*
X41984852Y17609835D01*
X42078519Y17595000D01*
X42141481Y17595000D01*
X42235148Y17609835D01*
X42348045Y17667359D01*
X42364000Y17683314D01*
X42364000Y16760684D01*
X42541905Y16808352D01*
X42741401Y16901379D01*
X42741403Y16901380D01*
X42921706Y17027629D01*
X42921717Y17027638D01*
X43077362Y17183283D01*
X43077371Y17183294D01*
X43203620Y17363597D01*
X43203621Y17363599D01*
X43258042Y17480304D01*
X43304959Y17533589D01*
X43373236Y17553050D01*
X43407734Y17547950D01*
X43424605Y17542996D01*
X43424608Y17542996D01*
X43565792Y17542996D01*
X43565795Y17542996D01*
X43701266Y17582774D01*
X43820043Y17659107D01*
X43827194Y17667359D01*
X43856618Y17701317D01*
X43912503Y17765812D01*
X43971156Y17894243D01*
X43991249Y18033996D01*
X43971156Y18173749D01*
X43912503Y18302180D01*
X43885122Y18333780D01*
X43820045Y18408884D01*
X43820041Y18408887D01*
X43701266Y18485218D01*
X43565798Y18524996D01*
X43565795Y18524996D01*
X43424605Y18524996D01*
X43424602Y18524996D01*
X43424601Y18524995D01*
X43375744Y18510650D01*
X43304748Y18510651D01*
X43245022Y18549036D01*
X43226053Y18578297D01*
X43203620Y18626403D01*
X43147292Y18706848D01*
X43124604Y18774122D01*
X43141889Y18842982D01*
X43182382Y18885115D01*
X43250843Y18929111D01*
X43343303Y19035816D01*
X43401956Y19164247D01*
X43422049Y19304000D01*
X43401956Y19443753D01*
X43343303Y19572184D01*
X43343299Y19572189D01*
X43250845Y19678888D01*
X43250841Y19678891D01*
X43132066Y19755222D01*
X43057302Y19777175D01*
X42997576Y19815559D01*
X42968083Y19880140D01*
X42978188Y19950414D01*
X42981669Y19957449D01*
X43076412Y20134699D01*
X43135938Y20330928D01*
X43135939Y20330936D01*
X43156037Y20534997D01*
X43156037Y20535004D01*
X43135939Y20739065D01*
X43135939Y20739067D01*
X43135938Y20739070D01*
X43135938Y20739072D01*
X43076412Y20935301D01*
X42979748Y21116147D01*
X42849660Y21274660D01*
X42691147Y21404748D01*
X42666551Y21417895D01*
X42510304Y21501411D01*
X42510298Y21501413D01*
X42314065Y21560940D01*
X42110003Y21581037D01*
X42109997Y21581037D01*
X41905935Y21560940D01*
X41905933Y21560940D01*
X41709701Y21501413D01*
X41709695Y21501411D01*
X41528852Y21404748D01*
X41370340Y21274660D01*
X41240252Y21116148D01*
X41143589Y20935305D01*
X41143587Y20935299D01*
X41084060Y20739067D01*
X41084060Y20739065D01*
X41063963Y20535004D01*
X41063963Y20534997D01*
X41084060Y20330936D01*
X41084060Y20330934D01*
X41143587Y20134702D01*
X41143589Y20134696D01*
X41238320Y19957467D01*
X41240252Y19953853D01*
X41370340Y19795340D01*
X41528853Y19665252D01*
X41709699Y19568588D01*
X41905928Y19509062D01*
X41905932Y19509062D01*
X41905934Y19509061D01*
X42109997Y19488963D01*
X42110000Y19488963D01*
X42110003Y19488963D01*
X42240904Y19501856D01*
X42301582Y19507832D01*
X42371335Y19494604D01*
X42422863Y19445763D01*
X42439807Y19376818D01*
X42438650Y19364509D01*
X42433363Y19327733D01*
X42403871Y19263152D01*
X42385350Y19245701D01*
X42364000Y19229319D01*
X42364000Y18306686D01*
X42348045Y18322641D01*
X42235148Y18380165D01*
X42141481Y18395000D01*
X42078519Y18395000D01*
X41984852Y18380165D01*
X41871955Y18322641D01*
X41856000Y18306686D01*
X41856000Y19229319D01*
X41678096Y19181650D01*
X41678092Y19181648D01*
X41478594Y19088620D01*
X41298293Y18962372D01*
X41298282Y18962363D01*
X41142637Y18806718D01*
X41142628Y18806707D01*
X41016380Y18626406D01*
X40923352Y18426908D01*
X40923350Y18426904D01*
X40866380Y18214286D01*
X40866379Y18214280D01*
X40862554Y18170563D01*
X40836691Y18104445D01*
X40779187Y18062806D01*
X40708299Y18058866D01*
X40646535Y18093876D01*
X40613504Y18156721D01*
X40611641Y18169197D01*
X40608454Y18201555D01*
X40608453Y18201557D01*
X40608453Y18201561D01*
X40548202Y18400184D01*
X40450358Y18583237D01*
X40318683Y18743683D01*
X40158237Y18875358D01*
X39975184Y18973202D01*
X39776561Y19033453D01*
X39776560Y19033454D01*
X39776554Y19033455D01*
X39570003Y19053798D01*
X39569997Y19053798D01*
X39363445Y19033455D01*
X39164815Y18973202D01*
X38981762Y18875358D01*
X38821317Y18743683D01*
X38689642Y18583238D01*
X38591798Y18400185D01*
X38531545Y18201555D01*
X38511202Y17995003D01*
X38511202Y17994998D01*
X24880953Y17994998D01*
X24880911Y17995290D01*
X24891014Y18065563D01*
X24937507Y18119219D01*
X24970126Y18134116D01*
X25088176Y18168778D01*
X25206953Y18245111D01*
X25299413Y18351816D01*
X25358066Y18480247D01*
X25378159Y18620000D01*
X25358066Y18759753D01*
X25324305Y18833678D01*
X35609629Y18833678D01*
X35629722Y18693925D01*
X35688375Y18565494D01*
X35688378Y18565490D01*
X35780832Y18458791D01*
X35780836Y18458788D01*
X35803167Y18444437D01*
X35899612Y18382456D01*
X36003962Y18351816D01*
X36035079Y18342679D01*
X36035080Y18342679D01*
X36035083Y18342678D01*
X36035086Y18342678D01*
X36176270Y18342678D01*
X36176273Y18342678D01*
X36311744Y18382456D01*
X36430521Y18458789D01*
X36522981Y18565494D01*
X36581634Y18693925D01*
X36601727Y18833678D01*
X36581634Y18973431D01*
X36522981Y19101862D01*
X36515063Y19111000D01*
X36430523Y19208566D01*
X36430519Y19208569D01*
X36311744Y19284900D01*
X36176276Y19324678D01*
X36176273Y19324678D01*
X36035083Y19324678D01*
X36035079Y19324678D01*
X35899611Y19284900D01*
X35780836Y19208569D01*
X35780832Y19208566D01*
X35688378Y19101867D01*
X35688375Y19101863D01*
X35629722Y18973432D01*
X35609629Y18833678D01*
X25324305Y18833678D01*
X25299413Y18888184D01*
X25263949Y18929112D01*
X25206955Y18994888D01*
X25206951Y18994891D01*
X25088176Y19071222D01*
X24952708Y19111000D01*
X24952705Y19111000D01*
X24811515Y19111000D01*
X24811511Y19111000D01*
X24676043Y19071222D01*
X24557268Y18994891D01*
X24557264Y18994888D01*
X24464810Y18888189D01*
X24464807Y18888185D01*
X24406154Y18759754D01*
X24386061Y18620000D01*
X24401199Y18514711D01*
X24391094Y18444437D01*
X24344601Y18390782D01*
X24311980Y18375884D01*
X24269073Y18363285D01*
X24193934Y18341222D01*
X24193933Y18341222D01*
X24185288Y18338683D01*
X24184410Y18341671D01*
X24129457Y18333780D01*
X24064882Y18363285D01*
X24032799Y18406150D01*
X24027303Y18418184D01*
X24027299Y18418189D01*
X23934845Y18524888D01*
X23934841Y18524891D01*
X23816066Y18601222D01*
X23680598Y18641000D01*
X23680595Y18641000D01*
X23539405Y18641000D01*
X23539401Y18641000D01*
X23403933Y18601222D01*
X23285158Y18524891D01*
X23285154Y18524888D01*
X23192700Y18418189D01*
X23192697Y18418185D01*
X23134044Y18289754D01*
X23113951Y18150000D01*
X8130771Y18150000D01*
X8125939Y18199065D01*
X8125939Y18199067D01*
X8125938Y18199070D01*
X8125938Y18199072D01*
X8066412Y18395301D01*
X8063801Y18400185D01*
X8040148Y18444437D01*
X7969748Y18576147D01*
X7839660Y18734660D01*
X7681147Y18864748D01*
X7661297Y18875358D01*
X7500304Y18961411D01*
X7500298Y18961413D01*
X7304065Y19020940D01*
X7100003Y19041037D01*
X7099997Y19041037D01*
X6895935Y19020940D01*
X6895933Y19020940D01*
X6699701Y18961413D01*
X6699695Y18961411D01*
X6518852Y18864748D01*
X6360340Y18734660D01*
X6230252Y18576148D01*
X6133589Y18395305D01*
X6133587Y18395299D01*
X6074060Y18199067D01*
X6074060Y18199065D01*
X6053963Y17995004D01*
X6053963Y17994997D01*
X5606037Y17994997D01*
X5606037Y17995004D01*
X5585939Y18199065D01*
X5585939Y18199067D01*
X5585938Y18199070D01*
X5585938Y18199072D01*
X5526412Y18395301D01*
X5523801Y18400185D01*
X5500148Y18444437D01*
X5429748Y18576147D01*
X5299660Y18734660D01*
X5141147Y18864748D01*
X5121297Y18875358D01*
X4960304Y18961411D01*
X4960298Y18961413D01*
X4764065Y19020940D01*
X4560003Y19041037D01*
X4559997Y19041037D01*
X4355935Y19020940D01*
X4355933Y19020940D01*
X4159701Y18961413D01*
X4159695Y18961411D01*
X3978852Y18864748D01*
X3820340Y18734660D01*
X3690252Y18576148D01*
X3593589Y18395305D01*
X3593587Y18395299D01*
X3534060Y18199067D01*
X3534060Y18199065D01*
X3513963Y17995004D01*
X3513963Y17994997D01*
X-2449500Y17994997D01*
X-2449500Y20534997D01*
X3513963Y20534997D01*
X3534060Y20330936D01*
X3534060Y20330934D01*
X3593587Y20134702D01*
X3593589Y20134696D01*
X3688320Y19957467D01*
X3690252Y19953853D01*
X3820340Y19795340D01*
X3978853Y19665252D01*
X4159699Y19568588D01*
X4355928Y19509062D01*
X4355932Y19509062D01*
X4355934Y19509061D01*
X4559997Y19488963D01*
X4560000Y19488963D01*
X4560003Y19488963D01*
X4764064Y19509061D01*
X4764066Y19509061D01*
X4764067Y19509062D01*
X4764072Y19509062D01*
X4960301Y19568588D01*
X5141147Y19665252D01*
X5299660Y19795340D01*
X5429748Y19953853D01*
X5526412Y20134699D01*
X5585938Y20330928D01*
X5585939Y20330936D01*
X5606037Y20534997D01*
X6053963Y20534997D01*
X6074060Y20330936D01*
X6074060Y20330934D01*
X6133587Y20134702D01*
X6133589Y20134696D01*
X6228320Y19957467D01*
X6230252Y19953853D01*
X6360340Y19795340D01*
X6518853Y19665252D01*
X6699699Y19568588D01*
X6895928Y19509062D01*
X6895932Y19509062D01*
X6895934Y19509061D01*
X7099997Y19488963D01*
X7100000Y19488963D01*
X7100003Y19488963D01*
X7304064Y19509061D01*
X7304066Y19509061D01*
X7304067Y19509062D01*
X7304072Y19509062D01*
X7500301Y19568588D01*
X7681147Y19665252D01*
X7839660Y19795340D01*
X7969748Y19953853D01*
X8066412Y20134699D01*
X8125938Y20330928D01*
X8125939Y20330936D01*
X8146037Y20534997D01*
X8146037Y20535004D01*
X8125939Y20739065D01*
X8125939Y20739067D01*
X8125938Y20739070D01*
X8125938Y20739072D01*
X8066412Y20935301D01*
X8055886Y20954994D01*
X30110951Y20954994D01*
X30131044Y20815241D01*
X30189697Y20686810D01*
X30189700Y20686806D01*
X30282154Y20580107D01*
X30282158Y20580104D01*
X30297238Y20570413D01*
X30400934Y20503772D01*
X30509563Y20471876D01*
X30536401Y20463995D01*
X30536402Y20463995D01*
X30536405Y20463994D01*
X30536408Y20463994D01*
X30677592Y20463994D01*
X30677595Y20463994D01*
X30813066Y20503772D01*
X30931843Y20580105D01*
X31024303Y20686810D01*
X31082956Y20815241D01*
X31102978Y20954500D01*
X34609377Y20954500D01*
X34629470Y20814747D01*
X34688123Y20686316D01*
X34688126Y20686312D01*
X34780580Y20579613D01*
X34780584Y20579610D01*
X34794895Y20570413D01*
X34899360Y20503278D01*
X35007989Y20471382D01*
X35034827Y20463501D01*
X35034828Y20463501D01*
X35034831Y20463500D01*
X35034834Y20463500D01*
X35176018Y20463500D01*
X35176021Y20463500D01*
X35311492Y20503278D01*
X35430269Y20579611D01*
X35522729Y20686316D01*
X35581382Y20814747D01*
X35601475Y20954500D01*
X35601403Y20955000D01*
X37522820Y20955000D01*
X37543433Y20811632D01*
X37603603Y20679879D01*
X37698455Y20570413D01*
X37802151Y20503772D01*
X37820304Y20492106D01*
X37959279Y20451300D01*
X38104121Y20451300D01*
X38243096Y20492106D01*
X38337898Y20553032D01*
X38406017Y20573033D01*
X38474138Y20553031D01*
X38520631Y20499375D01*
X38531410Y20459383D01*
X38544060Y20330936D01*
X38544060Y20330934D01*
X38603587Y20134702D01*
X38603589Y20134696D01*
X38698320Y19957467D01*
X38700252Y19953853D01*
X38830340Y19795340D01*
X38988853Y19665252D01*
X39169699Y19568588D01*
X39365928Y19509062D01*
X39365932Y19509062D01*
X39365934Y19509061D01*
X39569997Y19488963D01*
X39570000Y19488963D01*
X39570003Y19488963D01*
X39774064Y19509061D01*
X39774066Y19509061D01*
X39774067Y19509062D01*
X39774072Y19509062D01*
X39970301Y19568588D01*
X40151147Y19665252D01*
X40309660Y19795340D01*
X40439748Y19953853D01*
X40536412Y20134699D01*
X40595938Y20330928D01*
X40595939Y20330936D01*
X40616037Y20534997D01*
X40616037Y20535004D01*
X40595939Y20739065D01*
X40595939Y20739067D01*
X40595938Y20739070D01*
X40595938Y20739072D01*
X40536412Y20935301D01*
X40439748Y21116147D01*
X40309660Y21274660D01*
X40151147Y21404748D01*
X40126551Y21417895D01*
X39970304Y21501411D01*
X39970298Y21501413D01*
X39774065Y21560940D01*
X39570003Y21581037D01*
X39569997Y21581037D01*
X39365935Y21560940D01*
X39365933Y21560940D01*
X39169701Y21501413D01*
X39169695Y21501411D01*
X38988852Y21404748D01*
X38830340Y21274660D01*
X38707323Y21124765D01*
X38648645Y21084796D01*
X38577674Y21082896D01*
X38516942Y21119668D01*
X38495312Y21152353D01*
X38459797Y21230121D01*
X38364946Y21339586D01*
X38364945Y21339587D01*
X38364944Y21339588D01*
X38243100Y21417892D01*
X38243097Y21417894D01*
X38243096Y21417894D01*
X38147394Y21445994D01*
X38104121Y21458700D01*
X37959279Y21458700D01*
X37820306Y21417895D01*
X37820299Y21417892D01*
X37698455Y21339588D01*
X37603603Y21230122D01*
X37543433Y21098369D01*
X37522820Y20955000D01*
X35601403Y20955000D01*
X35581382Y21094253D01*
X35522729Y21222684D01*
X35477692Y21274660D01*
X35430271Y21329388D01*
X35430267Y21329391D01*
X35311492Y21405722D01*
X35176024Y21445500D01*
X35176021Y21445500D01*
X35034831Y21445500D01*
X35034827Y21445500D01*
X34899359Y21405722D01*
X34780584Y21329391D01*
X34780580Y21329388D01*
X34688126Y21222689D01*
X34688123Y21222685D01*
X34629470Y21094254D01*
X34609377Y20954500D01*
X31102978Y20954500D01*
X31103049Y20954994D01*
X31082956Y21094747D01*
X31024303Y21223178D01*
X31018286Y21230122D01*
X30931845Y21329882D01*
X30931841Y21329885D01*
X30813066Y21406216D01*
X30677598Y21445994D01*
X30677595Y21445994D01*
X30536405Y21445994D01*
X30536401Y21445994D01*
X30400933Y21406216D01*
X30282158Y21329885D01*
X30282154Y21329882D01*
X30189700Y21223183D01*
X30189697Y21223179D01*
X30131044Y21094748D01*
X30110951Y20954994D01*
X8055886Y20954994D01*
X7969748Y21116147D01*
X7839660Y21274660D01*
X7681147Y21404748D01*
X7656551Y21417895D01*
X7500304Y21501411D01*
X7500298Y21501413D01*
X7304065Y21560940D01*
X7100003Y21581037D01*
X7099997Y21581037D01*
X6895935Y21560940D01*
X6895933Y21560940D01*
X6699701Y21501413D01*
X6699695Y21501411D01*
X6518852Y21404748D01*
X6360340Y21274660D01*
X6230252Y21116148D01*
X6133589Y20935305D01*
X6133587Y20935299D01*
X6074060Y20739067D01*
X6074060Y20739065D01*
X6053963Y20535004D01*
X6053963Y20534997D01*
X5606037Y20534997D01*
X5606037Y20535004D01*
X5585939Y20739065D01*
X5585939Y20739067D01*
X5585938Y20739070D01*
X5585938Y20739072D01*
X5526412Y20935301D01*
X5429748Y21116147D01*
X5299660Y21274660D01*
X5141147Y21404748D01*
X5116551Y21417895D01*
X4960304Y21501411D01*
X4960298Y21501413D01*
X4764065Y21560940D01*
X4560003Y21581037D01*
X4559997Y21581037D01*
X4355935Y21560940D01*
X4355933Y21560940D01*
X4159701Y21501413D01*
X4159695Y21501411D01*
X3978852Y21404748D01*
X3820340Y21274660D01*
X3690252Y21116148D01*
X3593589Y20935305D01*
X3593587Y20935299D01*
X3534060Y20739067D01*
X3534060Y20739065D01*
X3513963Y20535004D01*
X3513963Y20534997D01*
X-2449500Y20534997D01*
X-2449500Y21590000D01*
X20585951Y21590000D01*
X20606044Y21450247D01*
X20664697Y21321816D01*
X20664700Y21321812D01*
X20757154Y21215113D01*
X20757158Y21215110D01*
X20816545Y21176945D01*
X20875934Y21138778D01*
X20984563Y21106882D01*
X21011401Y21099001D01*
X21011402Y21099001D01*
X21011405Y21099000D01*
X21011408Y21099000D01*
X21152592Y21099000D01*
X21152595Y21099000D01*
X21288066Y21138778D01*
X21406843Y21215111D01*
X21413410Y21222689D01*
X21458442Y21274660D01*
X21499303Y21321816D01*
X21557956Y21450247D01*
X21578049Y21590000D01*
X21557956Y21729753D01*
X21499303Y21858184D01*
X21499299Y21858189D01*
X21406845Y21964888D01*
X21406841Y21964891D01*
X21288066Y22041222D01*
X21152598Y22081000D01*
X21152595Y22081000D01*
X21011405Y22081000D01*
X21011401Y22081000D01*
X20875933Y22041222D01*
X20757158Y21964891D01*
X20757154Y21964888D01*
X20664700Y21858189D01*
X20664697Y21858185D01*
X20606044Y21729754D01*
X20585951Y21590000D01*
X-2449500Y21590000D01*
X-2449500Y23074997D01*
X3513963Y23074997D01*
X3534060Y22870936D01*
X3534060Y22870934D01*
X3593587Y22674702D01*
X3593589Y22674696D01*
X3690252Y22493853D01*
X3820340Y22335340D01*
X3978853Y22205252D01*
X4091689Y22144940D01*
X4131583Y22123616D01*
X4159699Y22108588D01*
X4355928Y22049062D01*
X4355932Y22049062D01*
X4355934Y22049061D01*
X4559997Y22028963D01*
X4560000Y22028963D01*
X4560003Y22028963D01*
X4764064Y22049061D01*
X4764066Y22049061D01*
X4764067Y22049062D01*
X4764072Y22049062D01*
X4960301Y22108588D01*
X5141147Y22205252D01*
X5299660Y22335340D01*
X5429748Y22493853D01*
X5526412Y22674699D01*
X5585938Y22870928D01*
X5586259Y22874189D01*
X5606037Y23074997D01*
X6053963Y23074997D01*
X6074060Y22870936D01*
X6074060Y22870934D01*
X6133587Y22674702D01*
X6133589Y22674696D01*
X6230252Y22493853D01*
X6360340Y22335340D01*
X6518853Y22205252D01*
X6631689Y22144940D01*
X6671583Y22123616D01*
X6699699Y22108588D01*
X6895928Y22049062D01*
X6895932Y22049062D01*
X6895934Y22049061D01*
X7099997Y22028963D01*
X7100000Y22028963D01*
X7100003Y22028963D01*
X7304064Y22049061D01*
X7304066Y22049061D01*
X7304067Y22049062D01*
X7304072Y22049062D01*
X7500301Y22108588D01*
X7681147Y22205252D01*
X7839660Y22335340D01*
X7885995Y22391800D01*
X13442151Y22391800D01*
X13462244Y22252047D01*
X13520897Y22123616D01*
X13520900Y22123612D01*
X13613354Y22016913D01*
X13613358Y22016910D01*
X13618820Y22013400D01*
X13732134Y21940578D01*
X13840763Y21908682D01*
X13867601Y21900801D01*
X13867602Y21900801D01*
X13867605Y21900800D01*
X13867608Y21900800D01*
X14008792Y21900800D01*
X14008795Y21900800D01*
X14144266Y21940578D01*
X14263043Y22016911D01*
X14355503Y22123616D01*
X14414156Y22252047D01*
X14434249Y22391800D01*
X14418060Y22504400D01*
X19366751Y22504400D01*
X19386844Y22364647D01*
X19445497Y22236216D01*
X19445500Y22236212D01*
X19537954Y22129513D01*
X19537958Y22129510D01*
X19588858Y22096799D01*
X19656734Y22053178D01*
X19765363Y22021282D01*
X19792201Y22013401D01*
X19792202Y22013401D01*
X19792205Y22013400D01*
X19792208Y22013400D01*
X19933392Y22013400D01*
X19933395Y22013400D01*
X20068866Y22053178D01*
X20187643Y22129511D01*
X20201012Y22144939D01*
X20244080Y22194643D01*
X20280103Y22236216D01*
X20338756Y22364647D01*
X20358849Y22504400D01*
X20349217Y22571395D01*
X34657592Y22571395D01*
X34677685Y22431642D01*
X34736338Y22303211D01*
X34736341Y22303207D01*
X34828795Y22196508D01*
X34828799Y22196505D01*
X34831698Y22194642D01*
X34947575Y22120173D01*
X35027183Y22096798D01*
X35083042Y22080396D01*
X35083043Y22080396D01*
X35083046Y22080395D01*
X35083049Y22080395D01*
X35224233Y22080395D01*
X35224236Y22080395D01*
X35359707Y22120173D01*
X35478484Y22196506D01*
X35485665Y22204795D01*
X35545390Y22243178D01*
X35616387Y22243179D01*
X35650464Y22224571D01*
X35651475Y22226144D01*
X35700494Y22194642D01*
X35777834Y22144939D01*
X35879793Y22115001D01*
X35913301Y22105162D01*
X35913302Y22105162D01*
X35913305Y22105161D01*
X35913308Y22105161D01*
X36054492Y22105161D01*
X36054495Y22105161D01*
X36189966Y22144939D01*
X36308743Y22221272D01*
X36327726Y22243179D01*
X36345155Y22263294D01*
X36401203Y22327977D01*
X36459856Y22456408D01*
X36479949Y22596161D01*
X36478534Y22606000D01*
X36841951Y22606000D01*
X36862044Y22466247D01*
X36920697Y22337816D01*
X36920700Y22337812D01*
X37013154Y22231113D01*
X37013158Y22231110D01*
X37054109Y22204793D01*
X37131934Y22154778D01*
X37217989Y22129510D01*
X37267401Y22115001D01*
X37267402Y22115001D01*
X37267405Y22115000D01*
X37267408Y22115000D01*
X37408592Y22115000D01*
X37408595Y22115000D01*
X37544066Y22154778D01*
X37662843Y22231111D01*
X37667267Y22236216D01*
X37725314Y22303207D01*
X37755303Y22337816D01*
X37813956Y22466247D01*
X37834049Y22606000D01*
X37813956Y22745753D01*
X37755303Y22874184D01*
X37755299Y22874189D01*
X37662845Y22980888D01*
X37662841Y22980891D01*
X37544066Y23057222D01*
X37408598Y23097000D01*
X37408595Y23097000D01*
X37267405Y23097000D01*
X37267401Y23097000D01*
X37131933Y23057222D01*
X37013158Y22980891D01*
X37013154Y22980888D01*
X36920700Y22874189D01*
X36920697Y22874185D01*
X36862044Y22745754D01*
X36841951Y22606000D01*
X36478534Y22606000D01*
X36459856Y22735914D01*
X36401203Y22864345D01*
X36401199Y22864350D01*
X36308745Y22971049D01*
X36308741Y22971052D01*
X36189966Y23047383D01*
X36054498Y23087161D01*
X36054495Y23087161D01*
X35913305Y23087161D01*
X35913301Y23087161D01*
X35777833Y23047383D01*
X35659058Y22971052D01*
X35659056Y22971050D01*
X35651870Y22962757D01*
X35592141Y22924377D01*
X35521145Y22924381D01*
X35487076Y22942985D01*
X35486066Y22941412D01*
X35359707Y23022617D01*
X35224239Y23062395D01*
X35224236Y23062395D01*
X35083046Y23062395D01*
X35083042Y23062395D01*
X34947574Y23022617D01*
X34828799Y22946286D01*
X34828795Y22946283D01*
X34736341Y22839584D01*
X34736338Y22839580D01*
X34677685Y22711149D01*
X34657592Y22571395D01*
X20349217Y22571395D01*
X20338756Y22644153D01*
X20280103Y22772584D01*
X20280099Y22772589D01*
X20187645Y22879288D01*
X20187641Y22879291D01*
X20068866Y22955622D01*
X19933398Y22995400D01*
X19933395Y22995400D01*
X19792205Y22995400D01*
X19792201Y22995400D01*
X19656733Y22955622D01*
X19537958Y22879291D01*
X19537954Y22879288D01*
X19445500Y22772589D01*
X19445497Y22772585D01*
X19386844Y22644154D01*
X19366751Y22504400D01*
X14418060Y22504400D01*
X14414156Y22531553D01*
X14355503Y22659984D01*
X14342755Y22674696D01*
X14263045Y22766688D01*
X14263041Y22766691D01*
X14144266Y22843022D01*
X14008798Y22882800D01*
X14008795Y22882800D01*
X13867605Y22882800D01*
X13867601Y22882800D01*
X13732133Y22843022D01*
X13613358Y22766691D01*
X13613354Y22766688D01*
X13520900Y22659989D01*
X13520897Y22659985D01*
X13462244Y22531554D01*
X13442151Y22391800D01*
X7885995Y22391800D01*
X7969748Y22493853D01*
X8066412Y22674699D01*
X8125938Y22870928D01*
X8126259Y22874189D01*
X8146037Y23074997D01*
X8146037Y23075004D01*
X8125939Y23279065D01*
X8125939Y23279067D01*
X8125938Y23279070D01*
X8125938Y23279072D01*
X8114373Y23317196D01*
X21297151Y23317196D01*
X21317244Y23177443D01*
X21375897Y23049012D01*
X21375900Y23049008D01*
X21468354Y22942309D01*
X21468358Y22942306D01*
X21513519Y22913283D01*
X21587134Y22865974D01*
X21695763Y22834078D01*
X21722601Y22826197D01*
X21722602Y22826197D01*
X21722605Y22826196D01*
X21722608Y22826196D01*
X21863792Y22826196D01*
X21863795Y22826196D01*
X21999266Y22865974D01*
X22118043Y22942307D01*
X22118631Y22942985D01*
X22164048Y22995400D01*
X22210503Y23049012D01*
X22269156Y23177443D01*
X22289249Y23317196D01*
X22287552Y23329000D01*
X38335681Y23329000D01*
X39258314Y23329000D01*
X39242359Y23313045D01*
X39184835Y23200148D01*
X39165014Y23075000D01*
X39184835Y22949852D01*
X39242359Y22836955D01*
X39258314Y22821000D01*
X38335682Y22821000D01*
X38383350Y22643097D01*
X38383352Y22643093D01*
X38476378Y22443599D01*
X38476379Y22443597D01*
X38602628Y22263294D01*
X38602637Y22263283D01*
X38758282Y22107638D01*
X38758293Y22107629D01*
X38938596Y21981380D01*
X38938598Y21981379D01*
X39138094Y21888352D01*
X39138093Y21888352D01*
X39316000Y21840684D01*
X39316000Y22763314D01*
X39331955Y22747359D01*
X39444852Y22689835D01*
X39538519Y22675000D01*
X39601481Y22675000D01*
X39695148Y22689835D01*
X39808045Y22747359D01*
X39824000Y22763314D01*
X39824000Y21840684D01*
X40001905Y21888352D01*
X40201401Y21981379D01*
X40201403Y21981380D01*
X40381706Y22107629D01*
X40381717Y22107638D01*
X40537362Y22263283D01*
X40537371Y22263294D01*
X40663620Y22443597D01*
X40663621Y22443599D01*
X40756647Y22643093D01*
X40756649Y22643097D01*
X40813619Y22855713D01*
X40817444Y22899435D01*
X40843307Y22965554D01*
X40900810Y23007194D01*
X40971697Y23011135D01*
X41033462Y22976127D01*
X41066495Y22913283D01*
X41068358Y22900807D01*
X41071545Y22868446D01*
X41071546Y22868440D01*
X41071547Y22868439D01*
X41131798Y22669816D01*
X41229642Y22486763D01*
X41361317Y22326317D01*
X41521763Y22194642D01*
X41704816Y22096798D01*
X41903439Y22036547D01*
X41903443Y22036547D01*
X41903445Y22036546D01*
X42109997Y22016202D01*
X42110000Y22016202D01*
X42110003Y22016202D01*
X42316554Y22036546D01*
X42316555Y22036547D01*
X42316561Y22036547D01*
X42515184Y22096798D01*
X42698237Y22194642D01*
X42704281Y22199602D01*
X43344355Y22199602D01*
X43364448Y22059849D01*
X43423101Y21931418D01*
X43423104Y21931414D01*
X43515558Y21824715D01*
X43515562Y21824712D01*
X43574949Y21786547D01*
X43634338Y21748380D01*
X43742967Y21716484D01*
X43769805Y21708603D01*
X43769806Y21708603D01*
X43769809Y21708602D01*
X43769812Y21708602D01*
X43910996Y21708602D01*
X43910999Y21708602D01*
X44046470Y21748380D01*
X44165247Y21824713D01*
X44257707Y21931418D01*
X44316360Y22059849D01*
X44336453Y22199602D01*
X44316360Y22339355D01*
X44257707Y22467786D01*
X44257703Y22467791D01*
X44165249Y22574490D01*
X44165245Y22574493D01*
X44046470Y22650824D01*
X43911002Y22690602D01*
X43910999Y22690602D01*
X43769809Y22690602D01*
X43769805Y22690602D01*
X43634337Y22650824D01*
X43515562Y22574493D01*
X43515558Y22574490D01*
X43423104Y22467791D01*
X43423101Y22467787D01*
X43364448Y22339356D01*
X43344355Y22199602D01*
X42704281Y22199602D01*
X42858683Y22326317D01*
X42990358Y22486763D01*
X43088202Y22669816D01*
X43148453Y22868439D01*
X43149020Y22874189D01*
X43168798Y23074998D01*
X43168798Y23075003D01*
X43148454Y23281555D01*
X43148453Y23281557D01*
X43148453Y23281561D01*
X43088202Y23480184D01*
X43072978Y23508665D01*
X43058506Y23578169D01*
X43083909Y23644466D01*
X43141121Y23686504D01*
X43211979Y23690938D01*
X43219589Y23688960D01*
X43259979Y23677100D01*
X43404821Y23677100D01*
X43543796Y23717906D01*
X43665646Y23796214D01*
X43760497Y23905679D01*
X43820667Y24037432D01*
X43841280Y24180800D01*
X43820667Y24324168D01*
X43760497Y24455921D01*
X43665646Y24565386D01*
X43665645Y24565387D01*
X43665644Y24565388D01*
X43543800Y24643692D01*
X43543797Y24643694D01*
X43543796Y24643694D01*
X43527128Y24648588D01*
X43404821Y24684500D01*
X43259979Y24684500D01*
X43121006Y24643695D01*
X43120999Y24643692D01*
X42999155Y24565388D01*
X42904303Y24455922D01*
X42850998Y24339200D01*
X42844133Y24324168D01*
X42823520Y24180800D01*
X42833634Y24110450D01*
X42823531Y24040178D01*
X42777038Y23986522D01*
X42708917Y23966520D01*
X42649521Y23981398D01*
X42515184Y24053202D01*
X42316554Y24113455D01*
X42110003Y24133798D01*
X42109997Y24133798D01*
X41903445Y24113455D01*
X41704815Y24053202D01*
X41521762Y23955358D01*
X41361317Y23823683D01*
X41229642Y23663238D01*
X41131798Y23480185D01*
X41071545Y23281555D01*
X41068358Y23249194D01*
X41041774Y23183362D01*
X40983819Y23142353D01*
X40912893Y23139187D01*
X40851515Y23174869D01*
X40819171Y23238070D01*
X40817444Y23250565D01*
X40813619Y23294288D01*
X40756649Y23506904D01*
X40756647Y23506908D01*
X40663619Y23706406D01*
X40537371Y23886707D01*
X40537362Y23886718D01*
X40381717Y24042363D01*
X40381706Y24042372D01*
X40201403Y24168621D01*
X40201401Y24168622D01*
X40001907Y24261648D01*
X40001903Y24261650D01*
X39824000Y24309319D01*
X39824000Y23386686D01*
X39808045Y23402641D01*
X39695148Y23460165D01*
X39601481Y23475000D01*
X39538519Y23475000D01*
X39444852Y23460165D01*
X39331955Y23402641D01*
X39316000Y23386686D01*
X39316000Y24309319D01*
X39138096Y24261650D01*
X39138092Y24261648D01*
X38938594Y24168620D01*
X38758293Y24042372D01*
X38758282Y24042363D01*
X38602637Y23886718D01*
X38602628Y23886707D01*
X38476380Y23706406D01*
X38383352Y23506908D01*
X38383350Y23506904D01*
X38335681Y23329000D01*
X22287552Y23329000D01*
X22269156Y23456949D01*
X22210503Y23585380D01*
X22210499Y23585385D01*
X22118045Y23692084D01*
X22118041Y23692087D01*
X21999266Y23768418D01*
X21863798Y23808196D01*
X21863795Y23808196D01*
X21722605Y23808196D01*
X21722601Y23808196D01*
X21587133Y23768418D01*
X21468358Y23692087D01*
X21468354Y23692084D01*
X21375900Y23585385D01*
X21375897Y23585381D01*
X21317244Y23456950D01*
X21297151Y23317196D01*
X8114373Y23317196D01*
X8066412Y23475301D01*
X8063801Y23480185D01*
X8011428Y23578169D01*
X7969748Y23656147D01*
X7839660Y23814660D01*
X7681147Y23944748D01*
X7661297Y23955358D01*
X7500304Y24041411D01*
X7500298Y24041413D01*
X7304065Y24100940D01*
X7100003Y24121037D01*
X7099997Y24121037D01*
X6895935Y24100940D01*
X6895933Y24100940D01*
X6699701Y24041413D01*
X6699695Y24041411D01*
X6518852Y23944748D01*
X6360340Y23814660D01*
X6230252Y23656148D01*
X6133589Y23475305D01*
X6133587Y23475299D01*
X6074060Y23279067D01*
X6074060Y23279065D01*
X6053963Y23075004D01*
X6053963Y23074997D01*
X5606037Y23074997D01*
X5606037Y23075004D01*
X5585939Y23279065D01*
X5585939Y23279067D01*
X5585938Y23279070D01*
X5585938Y23279072D01*
X5526412Y23475301D01*
X5523801Y23480185D01*
X5471428Y23578169D01*
X5429748Y23656147D01*
X5299660Y23814660D01*
X5141147Y23944748D01*
X5121297Y23955358D01*
X4960304Y24041411D01*
X4960298Y24041413D01*
X4764065Y24100940D01*
X4560003Y24121037D01*
X4559997Y24121037D01*
X4355935Y24100940D01*
X4355933Y24100940D01*
X4159701Y24041413D01*
X4159695Y24041411D01*
X3978852Y23944748D01*
X3820340Y23814660D01*
X3690252Y23656148D01*
X3593589Y23475305D01*
X3593587Y23475299D01*
X3534060Y23279067D01*
X3534060Y23279065D01*
X3513963Y23075004D01*
X3513963Y23074997D01*
X-2449500Y23074997D01*
X-2449500Y30441000D01*
X1077801Y30441000D01*
X1115929Y30323653D01*
X1115934Y30323644D01*
X1211363Y30158355D01*
X1339080Y30016509D01*
X1348903Y30009372D01*
X1392256Y29953149D01*
X1398331Y29882413D01*
X1378538Y29835861D01*
X1322330Y29754429D01*
X1322328Y29754425D01*
X1261728Y29594641D01*
X1241132Y29425003D01*
X1241132Y29424998D01*
X1261728Y29255360D01*
X1322328Y29095576D01*
X1322331Y29095570D01*
X1419403Y28954936D01*
X1419406Y28954933D01*
X1499120Y28884312D01*
X1536845Y28824168D01*
X1536065Y28753175D01*
X1499120Y28695688D01*
X1419406Y28625068D01*
X1419403Y28625065D01*
X1322331Y28484431D01*
X1322328Y28484425D01*
X1261728Y28324641D01*
X1241132Y28155003D01*
X1241132Y28154998D01*
X1261728Y27985360D01*
X1322328Y27825576D01*
X1322331Y27825570D01*
X1419403Y27684936D01*
X1419406Y27684933D01*
X1499120Y27614312D01*
X1536845Y27554168D01*
X1536065Y27483175D01*
X1499120Y27425688D01*
X1419406Y27355068D01*
X1419403Y27355065D01*
X1322331Y27214431D01*
X1322328Y27214425D01*
X1261728Y27054641D01*
X1241132Y26885003D01*
X1241132Y26884998D01*
X1261728Y26715360D01*
X1322328Y26555576D01*
X1322331Y26555570D01*
X1419403Y26414936D01*
X1419406Y26414933D01*
X1508695Y26335829D01*
X1546420Y26275685D01*
X1545640Y26204692D01*
X1508695Y26147205D01*
X1428979Y26076582D01*
X1333659Y25938489D01*
X1333658Y25938486D01*
X1333657Y25938484D01*
X1333656Y25938482D01*
X1307666Y25869952D01*
X1274151Y25781580D01*
X1253925Y25615003D01*
X1253925Y25614998D01*
X1274151Y25448421D01*
X1274151Y25448419D01*
X1274152Y25448418D01*
X1333656Y25291518D01*
X1333657Y25291516D01*
X1333658Y25291515D01*
X1333659Y25291512D01*
X1428978Y25153419D01*
X1518271Y25074312D01*
X1555996Y25014168D01*
X1555216Y24943175D01*
X1518271Y24885688D01*
X1428978Y24806582D01*
X1333659Y24668489D01*
X1333658Y24668486D01*
X1333657Y24668484D01*
X1333656Y24668482D01*
X1295914Y24568963D01*
X1274151Y24511580D01*
X1253925Y24345003D01*
X1253925Y24344998D01*
X1274151Y24178421D01*
X1274151Y24178419D01*
X1274152Y24178418D01*
X1333656Y24021518D01*
X1333657Y24021516D01*
X1333658Y24021515D01*
X1333659Y24021512D01*
X1428978Y23883419D01*
X1428979Y23883418D01*
X1428980Y23883417D01*
X1554584Y23772142D01*
X1703168Y23694159D01*
X1866097Y23654000D01*
X1866098Y23654000D01*
X2033902Y23654000D01*
X2033903Y23654000D01*
X2196832Y23694159D01*
X2345416Y23772142D01*
X2471020Y23883417D01*
X2566344Y24021518D01*
X2625848Y24178418D01*
X2637984Y24278368D01*
X2646075Y24344998D01*
X2646075Y24345003D01*
X2625848Y24511580D01*
X2625848Y24511582D01*
X2566344Y24668482D01*
X2566340Y24668487D01*
X2566340Y24668489D01*
X2471020Y24806583D01*
X2471018Y24806585D01*
X2381729Y24885688D01*
X2344003Y24945832D01*
X2344783Y25016824D01*
X2381729Y25074312D01*
X2428387Y25115648D01*
X2471020Y25153417D01*
X2566344Y25291518D01*
X2625848Y25448418D01*
X2637984Y25548368D01*
X2646075Y25614997D01*
X3513963Y25614997D01*
X3534060Y25410936D01*
X3534060Y25410934D01*
X3593587Y25214702D01*
X3593589Y25214696D01*
X3668626Y25074312D01*
X3690252Y25033853D01*
X3820340Y24875340D01*
X3978853Y24745252D01*
X4159699Y24648588D01*
X4355928Y24589062D01*
X4355932Y24589062D01*
X4355934Y24589061D01*
X4559997Y24568963D01*
X4560000Y24568963D01*
X4560003Y24568963D01*
X4764064Y24589061D01*
X4764066Y24589061D01*
X4764067Y24589062D01*
X4764072Y24589062D01*
X4960301Y24648588D01*
X5141147Y24745252D01*
X5244657Y24830200D01*
X16947351Y24830200D01*
X16967444Y24690447D01*
X17026097Y24562016D01*
X17026100Y24562012D01*
X17118554Y24455313D01*
X17118558Y24455310D01*
X17177945Y24417145D01*
X17237334Y24378978D01*
X17345963Y24347082D01*
X17372801Y24339201D01*
X17372802Y24339201D01*
X17372805Y24339200D01*
X17372808Y24339200D01*
X17513992Y24339200D01*
X17513995Y24339200D01*
X17649466Y24378978D01*
X17768243Y24455311D01*
X17768773Y24455922D01*
X17855665Y24556202D01*
X17860703Y24562016D01*
X17919356Y24690447D01*
X17930075Y24765000D01*
X32650951Y24765000D01*
X32671044Y24625247D01*
X32729697Y24496816D01*
X32729700Y24496812D01*
X32822154Y24390113D01*
X32822158Y24390110D01*
X32839480Y24378978D01*
X32940934Y24313778D01*
X33049563Y24281882D01*
X33076401Y24274001D01*
X33076402Y24274001D01*
X33076405Y24274000D01*
X33076408Y24274000D01*
X33217592Y24274000D01*
X33217595Y24274000D01*
X33353066Y24313778D01*
X33471843Y24390111D01*
X33564303Y24496816D01*
X33622956Y24625247D01*
X33643049Y24765000D01*
X33622956Y24904753D01*
X33564303Y25033184D01*
X33564299Y25033189D01*
X33471845Y25139888D01*
X33471841Y25139891D01*
X33353066Y25216222D01*
X33217598Y25256000D01*
X33217595Y25256000D01*
X33076405Y25256000D01*
X33076401Y25256000D01*
X32940933Y25216222D01*
X32822158Y25139891D01*
X32822154Y25139888D01*
X32729700Y25033189D01*
X32729697Y25033185D01*
X32671044Y24904754D01*
X32650951Y24765000D01*
X17930075Y24765000D01*
X17939449Y24830200D01*
X17919356Y24969953D01*
X17860703Y25098384D01*
X17845744Y25115648D01*
X17816251Y25180229D01*
X17826356Y25250503D01*
X17872847Y25304157D01*
X17952443Y25355309D01*
X18044903Y25462014D01*
X18103556Y25590445D01*
X18107086Y25614997D01*
X38523963Y25614997D01*
X38544060Y25410936D01*
X38544060Y25410934D01*
X38603587Y25214702D01*
X38603589Y25214696D01*
X38678626Y25074312D01*
X38700252Y25033853D01*
X38830340Y24875340D01*
X38988853Y24745252D01*
X39169699Y24648588D01*
X39365928Y24589062D01*
X39365932Y24589062D01*
X39365934Y24589061D01*
X39569997Y24568963D01*
X39570000Y24568963D01*
X39570003Y24568963D01*
X39774064Y24589061D01*
X39774066Y24589061D01*
X39774067Y24589062D01*
X39774072Y24589062D01*
X39970301Y24648588D01*
X40151147Y24745252D01*
X40309660Y24875340D01*
X40439748Y25033853D01*
X40536412Y25214699D01*
X40595938Y25410928D01*
X40599269Y25444751D01*
X40616037Y25614997D01*
X40616037Y25615004D01*
X40595939Y25819065D01*
X40595939Y25819067D01*
X40595938Y25819070D01*
X40595938Y25819072D01*
X40536412Y26015301D01*
X40533801Y26020185D01*
X40465908Y26147205D01*
X40439748Y26196147D01*
X40309660Y26354660D01*
X40151147Y26484748D01*
X40068709Y26528812D01*
X39970304Y26581411D01*
X39970298Y26581413D01*
X39887582Y26606505D01*
X39774072Y26640938D01*
X39774071Y26640939D01*
X39774065Y26640940D01*
X39570003Y26661037D01*
X39569997Y26661037D01*
X39365935Y26640940D01*
X39365933Y26640940D01*
X39169701Y26581413D01*
X39169695Y26581411D01*
X38988852Y26484748D01*
X38830340Y26354660D01*
X38700252Y26196148D01*
X38603589Y26015305D01*
X38603587Y26015299D01*
X38544060Y25819067D01*
X38544060Y25819065D01*
X38523963Y25615004D01*
X38523963Y25614997D01*
X18107086Y25614997D01*
X18123649Y25730198D01*
X18103556Y25869951D01*
X18044903Y25998382D01*
X18044899Y25998387D01*
X17952445Y26105086D01*
X17952441Y26105089D01*
X17833666Y26181420D01*
X17698198Y26221198D01*
X17698195Y26221198D01*
X17557005Y26221198D01*
X17557001Y26221198D01*
X17421533Y26181420D01*
X17302758Y26105089D01*
X17302754Y26105086D01*
X17210300Y25998387D01*
X17210297Y25998383D01*
X17151644Y25869952D01*
X17131551Y25730198D01*
X17151644Y25590445D01*
X17210297Y25462014D01*
X17225255Y25444751D01*
X17254748Y25380170D01*
X17244643Y25309896D01*
X17198151Y25256241D01*
X17118556Y25205089D01*
X17118554Y25205088D01*
X17026100Y25098389D01*
X17026097Y25098385D01*
X16967444Y24969954D01*
X16947351Y24830200D01*
X5244657Y24830200D01*
X5299660Y24875340D01*
X5429748Y25033853D01*
X5526412Y25214699D01*
X5585938Y25410928D01*
X5589269Y25444751D01*
X5606037Y25614997D01*
X5606037Y25615004D01*
X5600778Y25668400D01*
X11079951Y25668400D01*
X11100044Y25528647D01*
X11158697Y25400216D01*
X11158700Y25400212D01*
X11251154Y25293513D01*
X11251158Y25293510D01*
X11309526Y25256000D01*
X11369934Y25217178D01*
X11478563Y25185282D01*
X11505401Y25177401D01*
X11505402Y25177401D01*
X11505405Y25177400D01*
X11505408Y25177400D01*
X11646592Y25177400D01*
X11646595Y25177400D01*
X11782066Y25217178D01*
X11900843Y25293511D01*
X11993303Y25400216D01*
X12051956Y25528647D01*
X12072049Y25668400D01*
X12051956Y25808153D01*
X11993303Y25936584D01*
X11993299Y25936589D01*
X11900845Y26043288D01*
X11900841Y26043291D01*
X11782066Y26119622D01*
X11646598Y26159400D01*
X11646595Y26159400D01*
X11505405Y26159400D01*
X11505401Y26159400D01*
X11369933Y26119622D01*
X11251158Y26043291D01*
X11251154Y26043288D01*
X11158700Y25936589D01*
X11158697Y25936585D01*
X11100044Y25808154D01*
X11079951Y25668400D01*
X5600778Y25668400D01*
X5585939Y25819065D01*
X5585939Y25819067D01*
X5585938Y25819070D01*
X5585938Y25819072D01*
X5526412Y26015301D01*
X5523801Y26020185D01*
X5455908Y26147205D01*
X5429748Y26196147D01*
X5299660Y26354660D01*
X5141147Y26484748D01*
X5058709Y26528812D01*
X4960304Y26581411D01*
X4960298Y26581413D01*
X4877582Y26606505D01*
X4764072Y26640938D01*
X4764071Y26640939D01*
X4764065Y26640940D01*
X4560003Y26661037D01*
X4559997Y26661037D01*
X4355935Y26640940D01*
X4355933Y26640940D01*
X4159701Y26581413D01*
X4159695Y26581411D01*
X3978852Y26484748D01*
X3820340Y26354660D01*
X3690252Y26196148D01*
X3593589Y26015305D01*
X3593587Y26015299D01*
X3534060Y25819067D01*
X3534060Y25819065D01*
X3513963Y25615004D01*
X3513963Y25614997D01*
X2646075Y25614997D01*
X2646075Y25614998D01*
X2646075Y25615003D01*
X2625848Y25781580D01*
X2625848Y25781582D01*
X2566344Y25938482D01*
X2566340Y25938487D01*
X2566340Y25938489D01*
X2471021Y26076582D01*
X2438845Y26105087D01*
X2391304Y26147205D01*
X2353579Y26207349D01*
X2354359Y26278342D01*
X2391305Y26335829D01*
X2480590Y26414929D01*
X2480592Y26414932D01*
X2480595Y26414934D01*
X2577671Y26555573D01*
X2638270Y26715357D01*
X2638270Y26715358D01*
X2638271Y26715360D01*
X2658868Y26884998D01*
X2658868Y26885003D01*
X2638271Y27054641D01*
X2623423Y27093792D01*
X2577671Y27214427D01*
X2526887Y27288000D01*
X2480596Y27355065D01*
X2480594Y27355067D01*
X2431924Y27398185D01*
X2400878Y27425689D01*
X2363154Y27485831D01*
X2363934Y27556824D01*
X2400878Y27614312D01*
X2480595Y27684934D01*
X2577671Y27825573D01*
X2638270Y27985357D01*
X2638270Y27985358D01*
X2638271Y27985360D01*
X2658868Y28154998D01*
X3501202Y28154998D01*
X3521545Y27948446D01*
X3521546Y27948440D01*
X3521547Y27948439D01*
X3581798Y27749816D01*
X3679642Y27566763D01*
X3811317Y27406317D01*
X3971763Y27274642D01*
X4154816Y27176798D01*
X4353439Y27116547D01*
X4353443Y27116547D01*
X4353445Y27116546D01*
X4559997Y27096202D01*
X4560000Y27096202D01*
X4560003Y27096202D01*
X4766554Y27116546D01*
X4766555Y27116547D01*
X4766561Y27116547D01*
X4810910Y27130000D01*
X24073951Y27130000D01*
X24094044Y26990247D01*
X24152697Y26861816D01*
X24152700Y26861812D01*
X24245154Y26755113D01*
X24245158Y26755110D01*
X24247970Y26753303D01*
X24363934Y26678778D01*
X24450176Y26653455D01*
X24499401Y26639001D01*
X24499402Y26639001D01*
X24499405Y26639000D01*
X24499408Y26639000D01*
X24640592Y26639000D01*
X24640595Y26639000D01*
X24776066Y26678778D01*
X24894843Y26755111D01*
X24987303Y26861816D01*
X25045956Y26990247D01*
X25046038Y26990822D01*
X25046279Y26991350D01*
X25048495Y26998894D01*
X25049579Y26998576D01*
X25075526Y27055400D01*
X25135250Y27093788D01*
X25206247Y27093792D01*
X25265975Y27055412D01*
X25291651Y27008395D01*
X25294042Y27000252D01*
X25294043Y27000248D01*
X25294044Y27000247D01*
X25308610Y26968353D01*
X25352697Y26871816D01*
X25352700Y26871812D01*
X25445154Y26765113D01*
X25445158Y26765110D01*
X25504545Y26726945D01*
X25563934Y26688778D01*
X25658411Y26661037D01*
X25699401Y26649001D01*
X25699402Y26649001D01*
X25699405Y26649000D01*
X25699408Y26649000D01*
X25840592Y26649000D01*
X25840595Y26649000D01*
X25976066Y26688778D01*
X26094843Y26765111D01*
X26187303Y26871816D01*
X26245956Y27000247D01*
X26266049Y27140000D01*
X26245956Y27279753D01*
X26187303Y27408184D01*
X26187299Y27408189D01*
X26094845Y27514888D01*
X26094841Y27514891D01*
X25976066Y27591222D01*
X25840598Y27631000D01*
X25840595Y27631000D01*
X25699405Y27631000D01*
X25699401Y27631000D01*
X25563933Y27591222D01*
X25445158Y27514891D01*
X25445154Y27514888D01*
X25352700Y27408189D01*
X25352697Y27408185D01*
X25294044Y27279753D01*
X25293960Y27279168D01*
X25293714Y27278630D01*
X25291505Y27271106D01*
X25290422Y27271424D01*
X25264463Y27214589D01*
X25204735Y27176209D01*
X25133738Y27176213D01*
X25074014Y27214600D01*
X25048346Y27261611D01*
X25045956Y27269749D01*
X25045956Y27269753D01*
X24987303Y27398184D01*
X24978638Y27408184D01*
X24894845Y27504888D01*
X24894841Y27504891D01*
X24776066Y27581222D01*
X24640598Y27621000D01*
X24640595Y27621000D01*
X24499405Y27621000D01*
X24499401Y27621000D01*
X24363933Y27581222D01*
X24245158Y27504891D01*
X24245154Y27504888D01*
X24152700Y27398189D01*
X24152697Y27398185D01*
X24094044Y27269754D01*
X24073951Y27130000D01*
X4810910Y27130000D01*
X4965184Y27176798D01*
X5148237Y27274642D01*
X5308683Y27406317D01*
X5440358Y27566763D01*
X5504092Y27686000D01*
X32269951Y27686000D01*
X32290044Y27546247D01*
X32348697Y27417816D01*
X32348700Y27417812D01*
X32441154Y27311113D01*
X32441158Y27311110D01*
X32561333Y27233879D01*
X32607826Y27180224D01*
X32617931Y27109950D01*
X32604605Y27074221D01*
X32606441Y27073382D01*
X32544044Y26936754D01*
X32523951Y26797000D01*
X32544044Y26657247D01*
X32602697Y26528816D01*
X32602700Y26528812D01*
X32695154Y26422113D01*
X32695158Y26422110D01*
X32706326Y26414933D01*
X32813934Y26345778D01*
X32922563Y26313882D01*
X32949401Y26306001D01*
X32949402Y26306001D01*
X32949405Y26306000D01*
X32949408Y26306000D01*
X33090592Y26306000D01*
X33090595Y26306000D01*
X33226066Y26345778D01*
X33344843Y26422111D01*
X33437303Y26528816D01*
X33495956Y26657247D01*
X33516049Y26797000D01*
X33495956Y26936753D01*
X33437303Y27065184D01*
X33437299Y27065189D01*
X33344845Y27171888D01*
X33344841Y27171891D01*
X33224666Y27249122D01*
X33178173Y27302777D01*
X33168068Y27373051D01*
X33181402Y27408777D01*
X33179559Y27409618D01*
X33183303Y27417816D01*
X33241956Y27546247D01*
X33262049Y27686000D01*
X33241956Y27825753D01*
X33183303Y27954184D01*
X33156292Y27985357D01*
X33090845Y28060888D01*
X33090841Y28060891D01*
X32972066Y28137222D01*
X32911531Y28154997D01*
X38523963Y28154997D01*
X38544060Y27950936D01*
X38544060Y27950934D01*
X38603587Y27754702D01*
X38603589Y27754696D01*
X38669706Y27631000D01*
X38700252Y27573853D01*
X38830340Y27415340D01*
X38988853Y27285252D01*
X39169699Y27188588D01*
X39365928Y27129062D01*
X39365932Y27129062D01*
X39365934Y27129061D01*
X39569997Y27108963D01*
X39570000Y27108963D01*
X39570003Y27108963D01*
X39774064Y27129061D01*
X39774066Y27129061D01*
X39774067Y27129062D01*
X39774072Y27129062D01*
X39970301Y27188588D01*
X40151147Y27285252D01*
X40309660Y27415340D01*
X40439748Y27573853D01*
X40536412Y27754699D01*
X40595938Y27950928D01*
X40616037Y28155000D01*
X40613870Y28177000D01*
X40595939Y28359065D01*
X40595939Y28359067D01*
X40595938Y28359070D01*
X40595938Y28359072D01*
X40580792Y28409000D01*
X40875681Y28409000D01*
X41798314Y28409000D01*
X41782359Y28393045D01*
X41724835Y28280148D01*
X41705014Y28155000D01*
X41724835Y28029852D01*
X41782359Y27916955D01*
X41798314Y27901000D01*
X40875682Y27901000D01*
X40923350Y27723097D01*
X40923352Y27723093D01*
X41016378Y27523599D01*
X41016379Y27523597D01*
X41142628Y27343294D01*
X41142637Y27343283D01*
X41298282Y27187638D01*
X41298293Y27187629D01*
X41478596Y27061380D01*
X41478598Y27061379D01*
X41678092Y26968353D01*
X41678096Y26968351D01*
X41890712Y26911381D01*
X41934435Y26907556D01*
X42000553Y26881693D01*
X42042193Y26824190D01*
X42046134Y26753303D01*
X42011125Y26691538D01*
X41948282Y26658505D01*
X41935806Y26656642D01*
X41903445Y26653455D01*
X41704815Y26593202D01*
X41521762Y26495358D01*
X41361317Y26363683D01*
X41229642Y26203238D01*
X41131798Y26020185D01*
X41071545Y25821555D01*
X41051202Y25615003D01*
X41051202Y25614998D01*
X41071545Y25408446D01*
X41071546Y25408440D01*
X41071547Y25408439D01*
X41131798Y25209816D01*
X41229642Y25026763D01*
X41361317Y24866317D01*
X41521763Y24734642D01*
X41704816Y24636798D01*
X41903439Y24576547D01*
X41903443Y24576547D01*
X41903445Y24576546D01*
X42109997Y24556202D01*
X42110000Y24556202D01*
X42110003Y24556202D01*
X42316554Y24576546D01*
X42316555Y24576547D01*
X42316561Y24576547D01*
X42515184Y24636798D01*
X42698237Y24734642D01*
X42858683Y24866317D01*
X42990358Y25026763D01*
X43088202Y25209816D01*
X43148453Y25408439D01*
X43153730Y25462010D01*
X43168798Y25614998D01*
X43168798Y25615003D01*
X43148454Y25821555D01*
X43148453Y25821557D01*
X43148453Y25821561D01*
X43088202Y26020184D01*
X42990358Y26203237D01*
X42858683Y26363683D01*
X42698237Y26495358D01*
X42515184Y26593202D01*
X42316561Y26653453D01*
X42316560Y26653454D01*
X42316554Y26653455D01*
X42284193Y26656642D01*
X42218361Y26683226D01*
X42177352Y26741180D01*
X42174186Y26812106D01*
X42209868Y26873485D01*
X42273069Y26905829D01*
X42285565Y26907556D01*
X42329287Y26911381D01*
X42541903Y26968351D01*
X42541907Y26968353D01*
X42741401Y27061379D01*
X42741403Y27061380D01*
X42921706Y27187629D01*
X42921717Y27187638D01*
X43077362Y27343283D01*
X43077371Y27343294D01*
X43203620Y27523597D01*
X43203621Y27523599D01*
X43296647Y27723093D01*
X43296649Y27723097D01*
X43344318Y27901000D01*
X42421686Y27901000D01*
X42437641Y27916955D01*
X42495165Y28029852D01*
X42514986Y28155000D01*
X42495165Y28280148D01*
X42437641Y28393045D01*
X42421686Y28409000D01*
X43344318Y28409000D01*
X43296649Y28586904D01*
X43296647Y28586908D01*
X43203619Y28786406D01*
X43077371Y28966707D01*
X43077362Y28966718D01*
X42921717Y29122363D01*
X42921706Y29122372D01*
X42741403Y29248621D01*
X42741401Y29248622D01*
X42541907Y29341648D01*
X42541903Y29341650D01*
X42329285Y29398620D01*
X42329279Y29398621D01*
X42285562Y29402446D01*
X42219444Y29428309D01*
X42177805Y29485813D01*
X42173865Y29556700D01*
X42208875Y29618465D01*
X42271720Y29651496D01*
X42284196Y29653359D01*
X42316554Y29656546D01*
X42316555Y29656547D01*
X42316561Y29656547D01*
X42515184Y29716798D01*
X42698237Y29814642D01*
X42858683Y29946317D01*
X42990358Y30106763D01*
X43088202Y30289816D01*
X43148453Y30488439D01*
X43149683Y30500921D01*
X43168798Y30694998D01*
X43168798Y30695003D01*
X43148454Y30901555D01*
X43148453Y30901557D01*
X43148453Y30901561D01*
X43088202Y31100184D01*
X42990358Y31283237D01*
X42858683Y31443683D01*
X42698237Y31575358D01*
X42515184Y31673202D01*
X42316561Y31733453D01*
X42316560Y31733454D01*
X42316554Y31733455D01*
X42110003Y31753798D01*
X42109997Y31753798D01*
X41903445Y31733455D01*
X41704815Y31673202D01*
X41521762Y31575358D01*
X41361317Y31443683D01*
X41229642Y31283238D01*
X41131798Y31100185D01*
X41071545Y30901555D01*
X41051202Y30695003D01*
X41051202Y30694998D01*
X41071545Y30488446D01*
X41071546Y30488440D01*
X41071547Y30488439D01*
X41131798Y30289816D01*
X41229642Y30106763D01*
X41361317Y29946317D01*
X41521763Y29814642D01*
X41704816Y29716798D01*
X41903439Y29656547D01*
X41903443Y29656547D01*
X41903445Y29656546D01*
X41935803Y29653359D01*
X42001635Y29626777D01*
X42042646Y29568823D01*
X42045814Y29497897D01*
X42010133Y29436518D01*
X41946933Y29404173D01*
X41934437Y29402446D01*
X41890720Y29398621D01*
X41890714Y29398620D01*
X41678096Y29341650D01*
X41678092Y29341648D01*
X41478594Y29248620D01*
X41298293Y29122372D01*
X41298282Y29122363D01*
X41142637Y28966718D01*
X41142628Y28966707D01*
X41016380Y28786406D01*
X40923352Y28586908D01*
X40923350Y28586904D01*
X40875681Y28409000D01*
X40580792Y28409000D01*
X40536412Y28555301D01*
X40533801Y28560185D01*
X40461374Y28695687D01*
X40439748Y28736147D01*
X40309660Y28894660D01*
X40151147Y29024748D01*
X40131297Y29035358D01*
X39970304Y29121411D01*
X39970298Y29121413D01*
X39774065Y29180940D01*
X39570003Y29201037D01*
X39569997Y29201037D01*
X39365935Y29180940D01*
X39365933Y29180940D01*
X39169701Y29121413D01*
X39169695Y29121411D01*
X38988852Y29024748D01*
X38830340Y28894660D01*
X38700252Y28736148D01*
X38603589Y28555305D01*
X38603587Y28555299D01*
X38544060Y28359067D01*
X38544060Y28359065D01*
X38523963Y28155004D01*
X38523963Y28154997D01*
X32911531Y28154997D01*
X32836598Y28177000D01*
X32836595Y28177000D01*
X32695405Y28177000D01*
X32695401Y28177000D01*
X32559933Y28137222D01*
X32441158Y28060891D01*
X32441154Y28060888D01*
X32348700Y27954189D01*
X32348697Y27954185D01*
X32290044Y27825754D01*
X32269951Y27686000D01*
X5504092Y27686000D01*
X5538202Y27749816D01*
X5598453Y27948439D01*
X5599020Y27954189D01*
X5618798Y28154998D01*
X5618798Y28155003D01*
X5598454Y28361555D01*
X5598453Y28361557D01*
X5598453Y28361561D01*
X5538202Y28560184D01*
X5440358Y28743237D01*
X5308683Y28903683D01*
X5148237Y29035358D01*
X4965184Y29133202D01*
X4766561Y29193453D01*
X4766560Y29193454D01*
X4766554Y29193455D01*
X4560003Y29213798D01*
X4559997Y29213798D01*
X4353445Y29193455D01*
X4154815Y29133202D01*
X3971762Y29035358D01*
X3811317Y28903683D01*
X3679642Y28743238D01*
X3581798Y28560185D01*
X3521545Y28361555D01*
X3501202Y28155003D01*
X3501202Y28154998D01*
X2658868Y28154998D01*
X2658868Y28155003D01*
X2638271Y28324641D01*
X2578348Y28482641D01*
X2577671Y28484427D01*
X2528750Y28555301D01*
X2480596Y28625065D01*
X2480594Y28625067D01*
X2471270Y28633327D01*
X2400878Y28695689D01*
X2363154Y28755831D01*
X2363934Y28826824D01*
X2400878Y28884312D01*
X2480595Y28954934D01*
X2577671Y29095573D01*
X2638270Y29255357D01*
X2638270Y29255358D01*
X2638271Y29255360D01*
X2658868Y29424998D01*
X2658868Y29425003D01*
X2638271Y29594641D01*
X2623636Y29633227D01*
X2577671Y29754427D01*
X2521462Y29835860D01*
X2499226Y29903285D01*
X2516973Y29972028D01*
X2551100Y30009374D01*
X2560917Y30016507D01*
X2688636Y30158355D01*
X2784065Y30323644D01*
X2784070Y30323653D01*
X2822199Y30441000D01*
X2191899Y30441000D01*
X2247060Y30500921D01*
X2293982Y30607892D01*
X2301200Y30694998D01*
X3501202Y30694998D01*
X3521545Y30488446D01*
X3521546Y30488440D01*
X3521547Y30488439D01*
X3581798Y30289816D01*
X3679642Y30106763D01*
X3811317Y29946317D01*
X3971763Y29814642D01*
X4154816Y29716798D01*
X4353439Y29656547D01*
X4353443Y29656547D01*
X4353445Y29656546D01*
X4559997Y29636202D01*
X4560000Y29636202D01*
X4560003Y29636202D01*
X4766554Y29656546D01*
X4766555Y29656547D01*
X4766561Y29656547D01*
X4965184Y29716798D01*
X5148237Y29814642D01*
X5308683Y29946317D01*
X5440358Y30106763D01*
X5538202Y30289816D01*
X5598453Y30488439D01*
X5599683Y30500921D01*
X5618798Y30694998D01*
X5618798Y30695003D01*
X5615430Y30729200D01*
X14800751Y30729200D01*
X14820844Y30589447D01*
X14879497Y30461016D01*
X14879500Y30461012D01*
X14971954Y30354313D01*
X14971958Y30354310D01*
X14986445Y30345000D01*
X15090734Y30277978D01*
X15199363Y30246082D01*
X15226201Y30238201D01*
X15226202Y30238201D01*
X15226205Y30238200D01*
X15226208Y30238200D01*
X15367392Y30238200D01*
X15367395Y30238200D01*
X15502866Y30277978D01*
X15621643Y30354311D01*
X15626041Y30359386D01*
X15652463Y30389880D01*
X15714103Y30461016D01*
X15722773Y30480000D01*
X26097951Y30480000D01*
X26118044Y30340247D01*
X26176697Y30211816D01*
X26176700Y30211812D01*
X26269154Y30105113D01*
X26269158Y30105110D01*
X26296089Y30087803D01*
X26387934Y30028778D01*
X26496563Y29996882D01*
X26523401Y29989001D01*
X26523402Y29989001D01*
X26523405Y29989000D01*
X26523408Y29989000D01*
X26664592Y29989000D01*
X26664595Y29989000D01*
X26800066Y30028778D01*
X26918843Y30105111D01*
X26920275Y30106763D01*
X26964979Y30158355D01*
X27011303Y30211816D01*
X27069956Y30340247D01*
X27090049Y30480000D01*
X27069956Y30619753D01*
X27035593Y30694997D01*
X38523963Y30694997D01*
X38544060Y30490936D01*
X38544060Y30490934D01*
X38603587Y30294702D01*
X38603589Y30294696D01*
X38647892Y30211812D01*
X38700252Y30113853D01*
X38830340Y29955340D01*
X38988853Y29825252D01*
X39169699Y29728588D01*
X39365928Y29669062D01*
X39365932Y29669062D01*
X39365934Y29669061D01*
X39569997Y29648963D01*
X39570000Y29648963D01*
X39570003Y29648963D01*
X39774064Y29669061D01*
X39774066Y29669061D01*
X39774067Y29669062D01*
X39774072Y29669062D01*
X39970301Y29728588D01*
X40151147Y29825252D01*
X40309660Y29955340D01*
X40439748Y30113853D01*
X40536412Y30294699D01*
X40595938Y30490928D01*
X40596922Y30500921D01*
X40616037Y30694997D01*
X40616037Y30695004D01*
X40595939Y30899065D01*
X40595939Y30899067D01*
X40595938Y30899070D01*
X40595938Y30899072D01*
X40536412Y31095301D01*
X40533801Y31100185D01*
X40469652Y31220200D01*
X40439748Y31276147D01*
X40309660Y31434660D01*
X40151147Y31564748D01*
X40131297Y31575358D01*
X39970304Y31661411D01*
X39970298Y31661413D01*
X39774065Y31720940D01*
X39570003Y31741037D01*
X39569997Y31741037D01*
X39365935Y31720940D01*
X39365933Y31720940D01*
X39169701Y31661413D01*
X39169695Y31661411D01*
X38988852Y31564748D01*
X38830340Y31434660D01*
X38700252Y31276148D01*
X38603589Y31095305D01*
X38603587Y31095299D01*
X38544060Y30899067D01*
X38544060Y30899065D01*
X38523963Y30695004D01*
X38523963Y30694997D01*
X27035593Y30694997D01*
X27011303Y30748184D01*
X26981908Y30782108D01*
X26918845Y30854888D01*
X26918841Y30854891D01*
X26800066Y30931222D01*
X26664598Y30971000D01*
X26664595Y30971000D01*
X26523405Y30971000D01*
X26523401Y30971000D01*
X26387933Y30931222D01*
X26269158Y30854891D01*
X26269154Y30854888D01*
X26176700Y30748189D01*
X26176697Y30748185D01*
X26118044Y30619754D01*
X26097951Y30480000D01*
X15722773Y30480000D01*
X15772756Y30589447D01*
X15792849Y30729200D01*
X15772756Y30868953D01*
X15714103Y30997384D01*
X15714099Y30997389D01*
X15621645Y31104088D01*
X15621641Y31104091D01*
X15502866Y31180422D01*
X15367398Y31220200D01*
X15367395Y31220200D01*
X15226205Y31220200D01*
X15226201Y31220200D01*
X15090733Y31180422D01*
X14971958Y31104091D01*
X14971954Y31104088D01*
X14879500Y30997389D01*
X14879497Y30997385D01*
X14820844Y30868954D01*
X14800751Y30729200D01*
X5615430Y30729200D01*
X5598454Y30901555D01*
X5598453Y30901557D01*
X5598453Y30901561D01*
X5538202Y31100184D01*
X5440358Y31283237D01*
X5369974Y31369000D01*
X22363951Y31369000D01*
X22384044Y31229247D01*
X22442697Y31100816D01*
X22442700Y31100812D01*
X22535154Y30994113D01*
X22535158Y30994110D01*
X22594545Y30955945D01*
X22653934Y30917778D01*
X22751674Y30889079D01*
X22789401Y30878001D01*
X22789402Y30878001D01*
X22789405Y30878000D01*
X22789408Y30878000D01*
X22930592Y30878000D01*
X22930595Y30878000D01*
X23066066Y30917778D01*
X23184843Y30994111D01*
X23187684Y30997389D01*
X23247444Y31066357D01*
X23277303Y31100816D01*
X23335956Y31229247D01*
X23356049Y31369000D01*
X23335956Y31508753D01*
X23277303Y31637184D01*
X23273553Y31641512D01*
X23184845Y31743888D01*
X23184841Y31743891D01*
X23066066Y31820222D01*
X22930598Y31860000D01*
X22930595Y31860000D01*
X22789405Y31860000D01*
X22789401Y31860000D01*
X22653933Y31820222D01*
X22535158Y31743891D01*
X22535154Y31743888D01*
X22442700Y31637189D01*
X22442697Y31637185D01*
X22384044Y31508754D01*
X22363951Y31369000D01*
X5369974Y31369000D01*
X5308683Y31443683D01*
X5148237Y31575358D01*
X4965184Y31673202D01*
X4766561Y31733453D01*
X4766560Y31733454D01*
X4766554Y31733455D01*
X4560003Y31753798D01*
X4559997Y31753798D01*
X4353445Y31733455D01*
X4154815Y31673202D01*
X3971762Y31575358D01*
X3811317Y31443683D01*
X3679642Y31283238D01*
X3581798Y31100185D01*
X3521545Y30901555D01*
X3501202Y30695003D01*
X3501202Y30694998D01*
X2301200Y30694998D01*
X2303628Y30724302D01*
X2274953Y30837538D01*
X2211064Y30935327D01*
X2193497Y30949000D01*
X2822198Y30949000D01*
X2784070Y31066348D01*
X2784065Y31066357D01*
X2688635Y31231648D01*
X2688634Y31231650D01*
X2560920Y31373491D01*
X2560917Y31373494D01*
X2540821Y31388094D01*
X2497466Y31444316D01*
X2491390Y31515053D01*
X2511186Y31561608D01*
X2513354Y31564748D01*
X2566344Y31641518D01*
X2625848Y31798418D01*
X2646075Y31965000D01*
X2639591Y32018400D01*
X17836351Y32018400D01*
X17856444Y31878647D01*
X17915097Y31750216D01*
X17915100Y31750212D01*
X18007554Y31643513D01*
X18007558Y31643510D01*
X18010669Y31641511D01*
X18126334Y31567178D01*
X18234963Y31535282D01*
X18261801Y31527401D01*
X18261802Y31527401D01*
X18261805Y31527400D01*
X18261808Y31527400D01*
X18402992Y31527400D01*
X18402995Y31527400D01*
X18538466Y31567178D01*
X18657243Y31643511D01*
X18672754Y31661411D01*
X18688063Y31679080D01*
X18749703Y31750216D01*
X18808356Y31878647D01*
X18828449Y32018400D01*
X18808356Y32158153D01*
X18749703Y32286584D01*
X18749699Y32286589D01*
X18657245Y32393288D01*
X18657241Y32393291D01*
X18538466Y32469622D01*
X18402998Y32509400D01*
X18402995Y32509400D01*
X18261805Y32509400D01*
X18261801Y32509400D01*
X18126333Y32469622D01*
X18007558Y32393291D01*
X18007554Y32393288D01*
X17915100Y32286589D01*
X17915097Y32286585D01*
X17856444Y32158154D01*
X17836351Y32018400D01*
X2639591Y32018400D01*
X2625848Y32131582D01*
X2566344Y32288482D01*
X2512709Y32366186D01*
X3519000Y32366186D01*
X3530081Y32310478D01*
X3530082Y32310475D01*
X3572296Y32247297D01*
X3614511Y32219090D01*
X3635475Y32205082D01*
X3691188Y32194000D01*
X3691189Y32194000D01*
X5428811Y32194000D01*
X5428812Y32194000D01*
X5484525Y32205082D01*
X5547703Y32247297D01*
X5589918Y32310475D01*
X5601000Y32366188D01*
X5601000Y32669200D01*
X24499545Y32669200D01*
X24519638Y32529447D01*
X24578291Y32401016D01*
X24578294Y32401012D01*
X24670748Y32294313D01*
X24670752Y32294310D01*
X24729121Y32256799D01*
X24789528Y32217978D01*
X24874190Y32193119D01*
X24924995Y32178201D01*
X24924996Y32178201D01*
X24924999Y32178200D01*
X24925002Y32178200D01*
X25066186Y32178200D01*
X25066189Y32178200D01*
X25201660Y32217978D01*
X25320437Y32294311D01*
X25330151Y32305521D01*
X25372715Y32354643D01*
X25381634Y32364936D01*
X38516300Y32364936D01*
X38528118Y32305521D01*
X38539501Y32288485D01*
X38573140Y32238140D01*
X38640520Y32193119D01*
X38699936Y32181300D01*
X38699941Y32181300D01*
X40440059Y32181300D01*
X40440064Y32181300D01*
X40499480Y32193119D01*
X40566860Y32238140D01*
X40611881Y32305520D01*
X40623700Y32364936D01*
X40623700Y33234998D01*
X41051202Y33234998D01*
X41071545Y33028446D01*
X41071546Y33028440D01*
X41071547Y33028439D01*
X41131798Y32829816D01*
X41229642Y32646763D01*
X41361317Y32486317D01*
X41521763Y32354642D01*
X41704816Y32256798D01*
X41903439Y32196547D01*
X41903443Y32196547D01*
X41903445Y32196546D01*
X42109997Y32176202D01*
X42110000Y32176202D01*
X42110003Y32176202D01*
X42316554Y32196546D01*
X42316555Y32196547D01*
X42316561Y32196547D01*
X42515184Y32256798D01*
X42698237Y32354642D01*
X42858683Y32486317D01*
X42990358Y32646763D01*
X43088202Y32829816D01*
X43148453Y33028439D01*
X43149683Y33040921D01*
X43168798Y33234998D01*
X43168798Y33235003D01*
X43148454Y33441555D01*
X43148453Y33441557D01*
X43148453Y33441561D01*
X43088202Y33640184D01*
X42990358Y33823237D01*
X42858683Y33983683D01*
X42698237Y34115358D01*
X42515184Y34213202D01*
X42316561Y34273453D01*
X42316560Y34273454D01*
X42316554Y34273455D01*
X42110003Y34293798D01*
X42109997Y34293798D01*
X41903445Y34273455D01*
X41704815Y34213202D01*
X41521762Y34115358D01*
X41361317Y33983683D01*
X41229642Y33823238D01*
X41131798Y33640185D01*
X41071545Y33441555D01*
X41051202Y33235003D01*
X41051202Y33234998D01*
X40623700Y33234998D01*
X40623700Y34105064D01*
X40611881Y34164480D01*
X40566860Y34231860D01*
X40516916Y34265231D01*
X40499479Y34276882D01*
X40440064Y34288700D01*
X38699936Y34288700D01*
X38699935Y34288700D01*
X38640520Y34276882D01*
X38573140Y34231860D01*
X38528118Y34164480D01*
X38516300Y34105065D01*
X38516300Y32364936D01*
X25381634Y32364936D01*
X25412897Y32401016D01*
X25471550Y32529447D01*
X25491643Y32669200D01*
X25471550Y32808953D01*
X25412897Y32937384D01*
X25412893Y32937389D01*
X25320439Y33044088D01*
X25320435Y33044091D01*
X25201660Y33120422D01*
X25066192Y33160200D01*
X25066189Y33160200D01*
X24924999Y33160200D01*
X24924995Y33160200D01*
X24789527Y33120422D01*
X24670752Y33044091D01*
X24670748Y33044088D01*
X24578294Y32937389D01*
X24578291Y32937385D01*
X24519638Y32808954D01*
X24499545Y32669200D01*
X5601000Y32669200D01*
X5601000Y34103812D01*
X5589918Y34159525D01*
X5554204Y34212974D01*
X5547703Y34222704D01*
X5484525Y34264918D01*
X5484522Y34264919D01*
X5428814Y34276000D01*
X5428812Y34276000D01*
X3691188Y34276000D01*
X3691185Y34276000D01*
X3635477Y34264919D01*
X3635474Y34264918D01*
X3572296Y34222704D01*
X3530082Y34159526D01*
X3530081Y34159523D01*
X3519000Y34103815D01*
X3519000Y32366186D01*
X2512709Y32366186D01*
X2511184Y32368395D01*
X2488949Y32435818D01*
X2506696Y32504561D01*
X2540823Y32541909D01*
X2560920Y32556510D01*
X2688636Y32698355D01*
X2784065Y32863644D01*
X2784070Y32863653D01*
X2822199Y32981000D01*
X2191899Y32981000D01*
X2247060Y33040921D01*
X2293982Y33147892D01*
X2303628Y33264302D01*
X2274953Y33377538D01*
X2211064Y33475327D01*
X2193497Y33489000D01*
X2822198Y33489000D01*
X2784070Y33606348D01*
X2784065Y33606357D01*
X2688636Y33771646D01*
X2656555Y33807276D01*
X2625838Y33871284D01*
X2631213Y33917563D01*
X2627497Y33918302D01*
X2640999Y33986183D01*
X2640998Y33986183D01*
X2641000Y33986188D01*
X2641000Y34481162D01*
X6424789Y34481162D01*
X6444882Y34341409D01*
X6503535Y34212978D01*
X6503538Y34212974D01*
X6595992Y34106275D01*
X6595996Y34106272D01*
X6655383Y34068107D01*
X6714772Y34029940D01*
X6778524Y34011221D01*
X6838250Y33972838D01*
X6867743Y33908257D01*
X6867743Y33872396D01*
X6867011Y33867297D01*
X6856658Y33795290D01*
X6876751Y33655536D01*
X6935404Y33527105D01*
X6935407Y33527101D01*
X7027861Y33420402D01*
X7027865Y33420399D01*
X7087252Y33382234D01*
X7146641Y33344067D01*
X7255270Y33312171D01*
X7282108Y33304290D01*
X7282109Y33304290D01*
X7282112Y33304289D01*
X7282115Y33304289D01*
X7423299Y33304289D01*
X7423302Y33304289D01*
X7558773Y33344067D01*
X7677550Y33420400D01*
X7685071Y33429079D01*
X7759537Y33515019D01*
X7770010Y33527105D01*
X7828663Y33655536D01*
X7848756Y33795289D01*
X7828663Y33935042D01*
X7770010Y34063473D01*
X7770006Y34063478D01*
X7693640Y34151610D01*
X24473951Y34151610D01*
X24494044Y34011857D01*
X24552697Y33883426D01*
X24552700Y33883422D01*
X24645154Y33776723D01*
X24645158Y33776720D01*
X24704545Y33738555D01*
X24763934Y33700388D01*
X24872563Y33668492D01*
X24899401Y33660611D01*
X24899402Y33660611D01*
X24899405Y33660610D01*
X24899408Y33660610D01*
X25040592Y33660610D01*
X25040595Y33660610D01*
X25176066Y33700388D01*
X25294843Y33776721D01*
X25387303Y33883426D01*
X25445956Y34011857D01*
X25466049Y34151610D01*
X25445956Y34291363D01*
X25387303Y34419794D01*
X25387299Y34419799D01*
X25294845Y34526498D01*
X25294841Y34526501D01*
X25176066Y34602832D01*
X25040598Y34642610D01*
X25040595Y34642610D01*
X24899405Y34642610D01*
X24899401Y34642610D01*
X24763933Y34602832D01*
X24645158Y34526501D01*
X24645154Y34526498D01*
X24552700Y34419799D01*
X24552697Y34419795D01*
X24494044Y34291364D01*
X24473951Y34151610D01*
X7693640Y34151610D01*
X7677552Y34170177D01*
X7677548Y34170180D01*
X7558773Y34246511D01*
X7495019Y34265231D01*
X7435293Y34303615D01*
X7405800Y34368196D01*
X7405800Y34404056D01*
X7416887Y34481162D01*
X7396794Y34620915D01*
X7338141Y34749346D01*
X7338137Y34749351D01*
X7245683Y34856050D01*
X7245679Y34856053D01*
X7126904Y34932384D01*
X6991436Y34972162D01*
X6991433Y34972162D01*
X6850243Y34972162D01*
X6850239Y34972162D01*
X6714771Y34932384D01*
X6595996Y34856053D01*
X6595992Y34856050D01*
X6503538Y34749351D01*
X6503535Y34749347D01*
X6444882Y34620916D01*
X6424789Y34481162D01*
X2641000Y34481162D01*
X2641000Y35023812D01*
X2629918Y35079525D01*
X2611801Y35106639D01*
X2587703Y35142704D01*
X2524525Y35184918D01*
X2524522Y35184919D01*
X2468814Y35196000D01*
X2468812Y35196000D01*
X1431188Y35196000D01*
X1431185Y35196000D01*
X1375477Y35184919D01*
X1375474Y35184918D01*
X1312296Y35142704D01*
X1270082Y35079526D01*
X1270081Y35079523D01*
X1259000Y35023815D01*
X1259000Y33986186D01*
X1272503Y33918304D01*
X1268611Y33917530D01*
X1273807Y33869220D01*
X1243446Y33807280D01*
X1211365Y33771650D01*
X1211364Y33771648D01*
X1115934Y33606357D01*
X1115929Y33606348D01*
X1077801Y33489000D01*
X1708101Y33489000D01*
X1652940Y33429079D01*
X1606018Y33322108D01*
X1596372Y33205698D01*
X1625047Y33092462D01*
X1688936Y32994673D01*
X1706503Y32981000D01*
X1077801Y32981000D01*
X1115929Y32863653D01*
X1115934Y32863644D01*
X1211364Y32698353D01*
X1211365Y32698351D01*
X1339079Y32556510D01*
X1339082Y32556507D01*
X1359178Y32541907D01*
X1402532Y32485685D01*
X1408609Y32414949D01*
X1388814Y32368394D01*
X1333659Y32288489D01*
X1333658Y32288486D01*
X1333658Y32288485D01*
X1333656Y32288482D01*
X1297824Y32194001D01*
X1274151Y32131580D01*
X1253925Y31965003D01*
X1253925Y31964998D01*
X1274151Y31798421D01*
X1274151Y31798419D01*
X1274152Y31798418D01*
X1333656Y31641518D01*
X1333657Y31641516D01*
X1333658Y31641515D01*
X1333659Y31641512D01*
X1388814Y31561607D01*
X1411050Y31494183D01*
X1393303Y31425440D01*
X1359181Y31388096D01*
X1339081Y31373493D01*
X1339079Y31373491D01*
X1211365Y31231650D01*
X1211364Y31231648D01*
X1115934Y31066357D01*
X1115929Y31066348D01*
X1077801Y30949000D01*
X1708101Y30949000D01*
X1652940Y30889079D01*
X1606018Y30782108D01*
X1596372Y30665698D01*
X1625047Y30552462D01*
X1688936Y30454673D01*
X1706503Y30441000D01*
X1077801Y30441000D01*
X-2449500Y30441000D01*
X-2449500Y35687000D01*
X36333951Y35687000D01*
X36354044Y35547247D01*
X36412697Y35418816D01*
X36412700Y35418812D01*
X36505154Y35312113D01*
X36505158Y35312110D01*
X36562842Y35275039D01*
X36623934Y35235778D01*
X36732563Y35203882D01*
X36759401Y35196001D01*
X36759402Y35196001D01*
X36759405Y35196000D01*
X36759408Y35196000D01*
X36900592Y35196000D01*
X36900595Y35196000D01*
X37036066Y35235778D01*
X37129525Y35295840D01*
X39564700Y35295840D01*
X39585313Y35152472D01*
X39645483Y35020719D01*
X39687557Y34972162D01*
X39740335Y34911253D01*
X39826233Y34856050D01*
X39862184Y34832946D01*
X40001159Y34792140D01*
X40146001Y34792140D01*
X40284976Y34832946D01*
X40406826Y34911254D01*
X40501677Y35020719D01*
X40561847Y35152472D01*
X40568777Y35200674D01*
X40598268Y35265252D01*
X40606904Y35270803D01*
X40780084Y35270803D01*
X40788717Y35265255D01*
X40818211Y35200674D01*
X40818211Y35200673D01*
X40831731Y35106639D01*
X40831732Y35106634D01*
X40831733Y35106632D01*
X40891903Y34974879D01*
X40986755Y34865413D01*
X41037275Y34832946D01*
X41108604Y34787106D01*
X41247579Y34746300D01*
X41392421Y34746300D01*
X41531396Y34787106D01*
X41653246Y34865414D01*
X41748097Y34974879D01*
X41808267Y35106632D01*
X41828880Y35250000D01*
X41808267Y35393368D01*
X41748097Y35525121D01*
X41653246Y35634586D01*
X41653245Y35634587D01*
X41653244Y35634588D01*
X41531400Y35712892D01*
X41531397Y35712894D01*
X41531396Y35712894D01*
X41392421Y35753700D01*
X41247579Y35753700D01*
X41108606Y35712895D01*
X41108599Y35712892D01*
X40986755Y35634588D01*
X40891903Y35525122D01*
X40831733Y35393368D01*
X40831731Y35393362D01*
X40824802Y35345168D01*
X40795309Y35280587D01*
X40780084Y35270803D01*
X40606904Y35270803D01*
X40613495Y35275039D01*
X40604860Y35280588D01*
X40575367Y35345167D01*
X40561847Y35439208D01*
X40501677Y35570961D01*
X40406826Y35680426D01*
X40406825Y35680427D01*
X40406824Y35680428D01*
X40284980Y35758732D01*
X40284977Y35758734D01*
X40284976Y35758734D01*
X40146001Y35799540D01*
X40001159Y35799540D01*
X39862186Y35758735D01*
X39862179Y35758732D01*
X39740335Y35680428D01*
X39645483Y35570962D01*
X39585313Y35439209D01*
X39578722Y35393369D01*
X39564700Y35295840D01*
X37129525Y35295840D01*
X37154843Y35312111D01*
X37247303Y35418816D01*
X37305956Y35547247D01*
X37326049Y35687000D01*
X37305956Y35826753D01*
X37247303Y35955184D01*
X37247299Y35955189D01*
X37154845Y36061888D01*
X37154841Y36061891D01*
X37036066Y36138222D01*
X36900598Y36178000D01*
X36900595Y36178000D01*
X36759405Y36178000D01*
X36759401Y36178000D01*
X36623933Y36138222D01*
X36505158Y36061891D01*
X36505154Y36061888D01*
X36412700Y35955189D01*
X36412697Y35955185D01*
X36354044Y35826754D01*
X36333951Y35687000D01*
X-2449500Y35687000D01*
X-2449500Y40817800D01*
X-753127Y40817800D01*
X-732651Y40557631D01*
X-671729Y40303867D01*
X-571858Y40062758D01*
X-435500Y39840241D01*
X-431479Y39835533D01*
X-431478Y39835532D01*
X267912Y40534923D01*
X329680Y40417234D01*
X442405Y40289994D01*
X582305Y40193429D01*
X627642Y40176235D01*
X-72270Y39476323D01*
X-72270Y39476322D01*
X-67569Y39472308D01*
X-67566Y39472306D01*
X154957Y39335943D01*
X396066Y39236072D01*
X649830Y39175150D01*
X910000Y39154674D01*
X1170169Y39175150D01*
X1423933Y39236072D01*
X1665042Y39335943D01*
X1887558Y39472301D01*
X1892268Y39476323D01*
X1192356Y40176235D01*
X1237695Y40193429D01*
X1377595Y40289994D01*
X1490320Y40417234D01*
X1552086Y40534923D01*
X2251477Y39835532D01*
X2255499Y39840242D01*
X2391857Y40062758D01*
X2491728Y40303867D01*
X2552650Y40557631D01*
X2573126Y40817800D01*
X4326873Y40817800D01*
X4347349Y40557631D01*
X4408271Y40303867D01*
X4508142Y40062758D01*
X4644500Y39840241D01*
X4648521Y39835533D01*
X4648522Y39835532D01*
X5347912Y40534923D01*
X5409680Y40417234D01*
X5522405Y40289994D01*
X5662305Y40193429D01*
X5707642Y40176235D01*
X5007730Y39476323D01*
X5007730Y39476322D01*
X5012431Y39472308D01*
X5012434Y39472306D01*
X5234957Y39335943D01*
X5476066Y39236072D01*
X5729830Y39175150D01*
X5990000Y39154674D01*
X6250169Y39175150D01*
X6503933Y39236072D01*
X6745042Y39335943D01*
X6967558Y39472301D01*
X6972268Y39476323D01*
X6272356Y40176235D01*
X6317695Y40193429D01*
X6457595Y40289994D01*
X6570320Y40417234D01*
X6632086Y40534923D01*
X7331477Y39835532D01*
X7335499Y39840242D01*
X7471857Y40062758D01*
X7571728Y40303867D01*
X7632650Y40557631D01*
X7653126Y40817800D01*
X7632650Y41077970D01*
X7571728Y41331734D01*
X7471857Y41572843D01*
X7458650Y41594394D01*
X37169555Y41594394D01*
X37190168Y41451026D01*
X37250338Y41319273D01*
X37345190Y41209807D01*
X37467034Y41131503D01*
X37467039Y41131500D01*
X37606014Y41090694D01*
X37750856Y41090694D01*
X37889831Y41131500D01*
X38011681Y41209808D01*
X38106532Y41319273D01*
X38166702Y41451026D01*
X38187315Y41594394D01*
X38166702Y41737762D01*
X38106532Y41869515D01*
X38011681Y41978980D01*
X38011680Y41978981D01*
X38011679Y41978982D01*
X37889835Y42057286D01*
X37889832Y42057288D01*
X37889831Y42057288D01*
X37750856Y42098094D01*
X37606014Y42098094D01*
X37467041Y42057289D01*
X37467034Y42057286D01*
X37345190Y41978982D01*
X37250338Y41869516D01*
X37190168Y41737763D01*
X37169555Y41594394D01*
X7458650Y41594394D01*
X7335494Y41795366D01*
X7335492Y41795369D01*
X7331477Y41800070D01*
X6632086Y41100679D01*
X6570320Y41218366D01*
X6457595Y41345606D01*
X6317695Y41442171D01*
X6272356Y41459366D01*
X6972268Y42159278D01*
X6972267Y42159279D01*
X6967559Y42163300D01*
X6745042Y42299658D01*
X6503933Y42399529D01*
X6250169Y42460451D01*
X5990000Y42480927D01*
X5729830Y42460451D01*
X5476066Y42399529D01*
X5234957Y42299658D01*
X5012439Y42163299D01*
X5007731Y42159279D01*
X5007731Y42159278D01*
X5707643Y41459366D01*
X5662305Y41442171D01*
X5522405Y41345606D01*
X5409680Y41218366D01*
X5347913Y41100678D01*
X4648522Y41800069D01*
X4648521Y41800069D01*
X4644501Y41795361D01*
X4508142Y41572843D01*
X4408271Y41331734D01*
X4347349Y41077970D01*
X4326873Y40817800D01*
X2573126Y40817800D01*
X2552650Y41077970D01*
X2491728Y41331734D01*
X2391857Y41572843D01*
X2255494Y41795366D01*
X2255492Y41795369D01*
X2251477Y41800070D01*
X1552086Y41100679D01*
X1490320Y41218366D01*
X1377595Y41345606D01*
X1237695Y41442171D01*
X1192356Y41459366D01*
X1892268Y42159278D01*
X1892267Y42159279D01*
X1887559Y42163300D01*
X1665042Y42299658D01*
X1423933Y42399529D01*
X1170169Y42460451D01*
X910000Y42480927D01*
X649830Y42460451D01*
X396066Y42399529D01*
X154957Y42299658D01*
X-67561Y42163299D01*
X-72269Y42159279D01*
X-72269Y42159278D01*
X627643Y41459366D01*
X582305Y41442171D01*
X442405Y41345606D01*
X329680Y41218366D01*
X267913Y41100678D01*
X-431478Y41800069D01*
X-431479Y41800069D01*
X-435499Y41795361D01*
X-571858Y41572843D01*
X-671729Y41331734D01*
X-732651Y41077970D01*
X-753127Y40817800D01*
X-2449500Y40817800D01*
X-2449500Y43357800D01*
X2644435Y43357800D01*
X2664632Y43178545D01*
X2664633Y43178543D01*
X2724211Y43008278D01*
X2724212Y43008275D01*
X2820182Y42855540D01*
X2820183Y42855538D01*
X2947737Y42727984D01*
X2947739Y42727983D01*
X3100474Y42632013D01*
X3100475Y42632013D01*
X3100478Y42632011D01*
X3270745Y42572432D01*
X3405046Y42557300D01*
X3494954Y42557300D01*
X3629255Y42572432D01*
X3799522Y42632011D01*
X3952262Y42727984D01*
X4079816Y42855538D01*
X4175789Y43008278D01*
X4235368Y43178545D01*
X4255565Y43357800D01*
X4235368Y43537055D01*
X4175789Y43707322D01*
X4175787Y43707325D01*
X4175787Y43707326D01*
X4079817Y43860061D01*
X4079816Y43860063D01*
X3952262Y43987617D01*
X3952260Y43987618D01*
X3799525Y44083588D01*
X3799522Y44083589D01*
X3629255Y44143168D01*
X3494954Y44158300D01*
X3405046Y44158300D01*
X3270745Y44143168D01*
X3270742Y44143168D01*
X3270742Y44143167D01*
X3100477Y44083589D01*
X3100474Y44083588D01*
X2947739Y43987618D01*
X2947737Y43987617D01*
X2820183Y43860063D01*
X2820182Y43860061D01*
X2724212Y43707326D01*
X2724211Y43707323D01*
X2724211Y43707322D01*
X2664632Y43537055D01*
X2644435Y43357800D01*
X-2449500Y43357800D01*
X-2449500Y44200000D01*
X40091120Y44200000D01*
X40111733Y44056632D01*
X40171903Y43924879D01*
X40266755Y43815413D01*
X40388599Y43737109D01*
X40388604Y43737106D01*
X40527579Y43696300D01*
X40672421Y43696300D01*
X40811396Y43737106D01*
X40933246Y43815414D01*
X41028097Y43924879D01*
X41088267Y44056632D01*
X41108880Y44200000D01*
X41088267Y44343368D01*
X41028097Y44475121D01*
X40933246Y44584586D01*
X40933245Y44584587D01*
X40933244Y44584588D01*
X40811400Y44662892D01*
X40811397Y44662894D01*
X40811396Y44662894D01*
X40672421Y44703700D01*
X40527579Y44703700D01*
X40388606Y44662895D01*
X40388599Y44662892D01*
X40266755Y44584588D01*
X40171903Y44475122D01*
X40111733Y44343369D01*
X40091120Y44200000D01*
X-2449500Y44200000D01*
X-2449500Y45897800D01*
X-753127Y45897800D01*
X-732651Y45637631D01*
X-671729Y45383867D01*
X-571858Y45142758D01*
X-435500Y44920241D01*
X-431479Y44915533D01*
X-431478Y44915532D01*
X267912Y45614923D01*
X329680Y45497234D01*
X442405Y45369994D01*
X582305Y45273429D01*
X627642Y45256235D01*
X-72270Y44556323D01*
X-72270Y44556322D01*
X-67569Y44552308D01*
X-67566Y44552306D01*
X154957Y44415943D01*
X396066Y44316072D01*
X649830Y44255150D01*
X910000Y44234674D01*
X1170169Y44255150D01*
X1423933Y44316072D01*
X1665042Y44415943D01*
X1887558Y44552301D01*
X1892268Y44556323D01*
X1192356Y45256235D01*
X1237695Y45273429D01*
X1377595Y45369994D01*
X1490320Y45497234D01*
X1552086Y45614923D01*
X2251477Y44915532D01*
X2255499Y44920242D01*
X2391857Y45142758D01*
X2491728Y45383867D01*
X2552650Y45637631D01*
X2573126Y45897800D01*
X4326873Y45897800D01*
X4347349Y45637631D01*
X4408271Y45383867D01*
X4508142Y45142758D01*
X4644500Y44920241D01*
X4648521Y44915533D01*
X4648522Y44915532D01*
X5347912Y45614923D01*
X5409680Y45497234D01*
X5522405Y45369994D01*
X5662305Y45273429D01*
X5707642Y45256235D01*
X5007730Y44556323D01*
X5007730Y44556322D01*
X5012431Y44552308D01*
X5012434Y44552306D01*
X5234957Y44415943D01*
X5476066Y44316072D01*
X5729830Y44255150D01*
X5990000Y44234674D01*
X6250169Y44255150D01*
X6503933Y44316072D01*
X6745042Y44415943D01*
X6967558Y44552301D01*
X6972268Y44556323D01*
X6272356Y45256235D01*
X6317695Y45273429D01*
X6457595Y45369994D01*
X6570320Y45497234D01*
X6632086Y45614923D01*
X7331477Y44915532D01*
X7335499Y44920242D01*
X7471857Y45142758D01*
X7571728Y45383867D01*
X7621935Y45593000D01*
X37845120Y45593000D01*
X37865733Y45449632D01*
X37925903Y45317879D01*
X38020755Y45208413D01*
X38122917Y45142758D01*
X38142604Y45130106D01*
X38281579Y45089300D01*
X38426421Y45089300D01*
X38565396Y45130106D01*
X38687246Y45208414D01*
X38782097Y45317879D01*
X38842267Y45449632D01*
X38862880Y45593000D01*
X38842267Y45736368D01*
X38782097Y45868121D01*
X38706825Y45954990D01*
X38677334Y46019568D01*
X38687437Y46089842D01*
X38706824Y46120009D01*
X38782097Y46206879D01*
X38842267Y46338632D01*
X38862880Y46482000D01*
X38842267Y46625368D01*
X38782097Y46757121D01*
X38706825Y46843990D01*
X38677334Y46908568D01*
X38687437Y46978842D01*
X38706824Y47009009D01*
X38782097Y47095879D01*
X38842267Y47227632D01*
X38862880Y47371000D01*
X38842267Y47514368D01*
X38782097Y47646121D01*
X38706825Y47732990D01*
X38677334Y47797568D01*
X38687437Y47867842D01*
X38706824Y47898009D01*
X38782097Y47984879D01*
X38842267Y48116632D01*
X38862880Y48260000D01*
X38842267Y48403368D01*
X38782097Y48535121D01*
X38687246Y48644586D01*
X38687245Y48644587D01*
X38687244Y48644588D01*
X38565400Y48722892D01*
X38565397Y48722894D01*
X38565396Y48722894D01*
X38426421Y48763700D01*
X38281579Y48763700D01*
X38142606Y48722895D01*
X38142599Y48722892D01*
X38020755Y48644588D01*
X37925903Y48535122D01*
X37865733Y48403369D01*
X37845120Y48260000D01*
X37865733Y48116632D01*
X37925903Y47984879D01*
X38001173Y47898012D01*
X38030666Y47833431D01*
X38020561Y47763157D01*
X38001173Y47732988D01*
X37925903Y47646122D01*
X37865733Y47514369D01*
X37845120Y47371000D01*
X37865733Y47227632D01*
X37925903Y47095879D01*
X38001173Y47009012D01*
X38030666Y46944431D01*
X38020561Y46874157D01*
X38001173Y46843988D01*
X37925903Y46757122D01*
X37865733Y46625369D01*
X37850896Y46522171D01*
X37845120Y46482000D01*
X37865733Y46338632D01*
X37925903Y46206879D01*
X37968282Y46157970D01*
X38001173Y46120012D01*
X38030666Y46055431D01*
X38020561Y45985157D01*
X38001173Y45954988D01*
X37925903Y45868122D01*
X37865733Y45736369D01*
X37845120Y45593000D01*
X7621935Y45593000D01*
X7632650Y45637631D01*
X7653126Y45897800D01*
X7632650Y46157970D01*
X7571728Y46411734D01*
X7471857Y46652843D01*
X7335494Y46875366D01*
X7335492Y46875369D01*
X7331477Y46880070D01*
X6632086Y46180679D01*
X6570320Y46298366D01*
X6457595Y46425606D01*
X6317695Y46522171D01*
X6272356Y46539366D01*
X6972268Y47239278D01*
X6972267Y47239279D01*
X6967559Y47243300D01*
X6745042Y47379658D01*
X6503933Y47479529D01*
X6250169Y47540451D01*
X5990000Y47560927D01*
X5729830Y47540451D01*
X5476066Y47479529D01*
X5234957Y47379658D01*
X5012439Y47243299D01*
X5007731Y47239279D01*
X5007731Y47239278D01*
X5707643Y46539366D01*
X5662305Y46522171D01*
X5522405Y46425606D01*
X5409680Y46298366D01*
X5347913Y46180678D01*
X4648522Y46880069D01*
X4648521Y46880069D01*
X4644501Y46875361D01*
X4508142Y46652843D01*
X4408271Y46411734D01*
X4347349Y46157970D01*
X4326873Y45897800D01*
X2573126Y45897800D01*
X2552650Y46157970D01*
X2491728Y46411734D01*
X2391857Y46652843D01*
X2255494Y46875366D01*
X2255492Y46875369D01*
X2251477Y46880070D01*
X1552086Y46180679D01*
X1490320Y46298366D01*
X1377595Y46425606D01*
X1237695Y46522171D01*
X1192356Y46539366D01*
X1892268Y47239278D01*
X1892267Y47239279D01*
X1887559Y47243300D01*
X1665042Y47379658D01*
X1423933Y47479529D01*
X1170169Y47540451D01*
X910000Y47560927D01*
X649830Y47540451D01*
X396066Y47479529D01*
X154957Y47379658D01*
X-67561Y47243299D01*
X-72269Y47239279D01*
X-72269Y47239278D01*
X627643Y46539366D01*
X582305Y46522171D01*
X442405Y46425606D01*
X329680Y46298366D01*
X267913Y46180678D01*
X-431478Y46880069D01*
X-431479Y46880069D01*
X-435499Y46875361D01*
X-571858Y46652843D01*
X-671729Y46411734D01*
X-732651Y46157970D01*
X-753127Y45897800D01*
X-2449500Y45897800D01*
X-2449500Y48479936D01*
X-513700Y48479936D01*
X-501882Y48420521D01*
X-501881Y48420520D01*
X-456860Y48353140D01*
X-389480Y48308119D01*
X-330064Y48296300D01*
X-330059Y48296300D01*
X710059Y48296300D01*
X710064Y48296300D01*
X759542Y48306143D01*
X781653Y48310540D01*
X782034Y48308622D01*
X837301Y48314568D01*
X889001Y48292504D01*
X1003494Y48209320D01*
X1177864Y48131685D01*
X1177868Y48131683D01*
X1206000Y48125705D01*
X1206000Y48797095D01*
X1247871Y48747195D01*
X1347129Y48689888D01*
X1431564Y48675000D01*
X1488436Y48675000D01*
X1572871Y48689888D01*
X1670059Y48746000D01*
X1714000Y48746000D01*
X1714000Y48125705D01*
X1742131Y48131683D01*
X1742135Y48131685D01*
X1916505Y48209320D01*
X2020939Y48285195D01*
X2087807Y48309054D01*
X2156958Y48292973D01*
X2169061Y48285195D01*
X2273494Y48209320D01*
X2447864Y48131685D01*
X2447868Y48131683D01*
X2476000Y48125705D01*
X2476000Y48746000D01*
X1714000Y48746000D01*
X1670059Y48746000D01*
X1672129Y48747195D01*
X1745801Y48834993D01*
X1785000Y48942694D01*
X1785000Y49057306D01*
X1745801Y49165007D01*
X1672129Y49252805D01*
X1670059Y49254000D01*
X2519941Y49254000D01*
X2517871Y49252805D01*
X2444199Y49165007D01*
X2405000Y49057306D01*
X2405000Y48942694D01*
X2444199Y48834993D01*
X2517871Y48747195D01*
X2617129Y48689888D01*
X2701564Y48675000D01*
X2758436Y48675000D01*
X2842871Y48689888D01*
X2942129Y48747195D01*
X2984000Y48797095D01*
X2984000Y48125705D01*
X3012131Y48131683D01*
X3012135Y48131685D01*
X3186505Y48209320D01*
X3340920Y48321509D01*
X3427188Y48417321D01*
X3487633Y48454562D01*
X3558617Y48453211D01*
X3597959Y48430955D01*
X3598315Y48431469D01*
X3604057Y48427505D01*
X3604380Y48427323D01*
X3604584Y48427142D01*
X3753168Y48349159D01*
X3916097Y48309000D01*
X3916098Y48309000D01*
X4083902Y48309000D01*
X4083903Y48309000D01*
X4246832Y48349159D01*
X4395416Y48427142D01*
X4521020Y48538417D01*
X4531303Y48553316D01*
X4586460Y48598016D01*
X4657028Y48605800D01*
X4720603Y48574197D01*
X4738695Y48553317D01*
X4748980Y48538417D01*
X4874584Y48427142D01*
X5023168Y48349159D01*
X5186097Y48309000D01*
X5186098Y48309000D01*
X5353902Y48309000D01*
X5353903Y48309000D01*
X5516832Y48349159D01*
X5665416Y48427142D01*
X5791020Y48538417D01*
X5886344Y48676518D01*
X5945848Y48833418D01*
X5966075Y49000000D01*
X5945848Y49166582D01*
X5886344Y49323482D01*
X5886340Y49323487D01*
X5886340Y49323489D01*
X5791020Y49461583D01*
X5791018Y49461585D01*
X5701729Y49540688D01*
X5664003Y49600832D01*
X5664783Y49671824D01*
X5701729Y49729312D01*
X5773895Y49793246D01*
X5791020Y49808417D01*
X5886344Y49946518D01*
X5945848Y50103418D01*
X5966075Y50270000D01*
X5945848Y50436582D01*
X5886344Y50593482D01*
X5886340Y50593487D01*
X5886340Y50593489D01*
X5791021Y50731582D01*
X5665415Y50842859D01*
X5598154Y50878160D01*
X5516832Y50920841D01*
X5516829Y50920842D01*
X5353904Y50961000D01*
X5353903Y50961000D01*
X5186097Y50961000D01*
X5186095Y50961000D01*
X5023170Y50920842D01*
X5023169Y50920842D01*
X4874584Y50842859D01*
X4748978Y50731582D01*
X4738694Y50716682D01*
X4683535Y50671984D01*
X4612966Y50664203D01*
X4549393Y50695809D01*
X4531306Y50716682D01*
X4521021Y50731582D01*
X4395415Y50842859D01*
X4328154Y50878160D01*
X4246832Y50920841D01*
X4246829Y50920842D01*
X4083904Y50961000D01*
X4083903Y50961000D01*
X3916097Y50961000D01*
X3916095Y50961000D01*
X3753170Y50920842D01*
X3753169Y50920842D01*
X3604584Y50842859D01*
X3478978Y50731582D01*
X3468694Y50716682D01*
X3413535Y50671984D01*
X3342966Y50664203D01*
X3279393Y50695809D01*
X3261306Y50716682D01*
X3251021Y50731582D01*
X3125415Y50842859D01*
X3058154Y50878160D01*
X2976832Y50920841D01*
X2976829Y50920842D01*
X2813904Y50961000D01*
X2813903Y50961000D01*
X2646097Y50961000D01*
X2646095Y50961000D01*
X2483170Y50920842D01*
X2483169Y50920842D01*
X2334584Y50842859D01*
X2208978Y50731582D01*
X2198694Y50716682D01*
X2143535Y50671984D01*
X2072966Y50664203D01*
X2009393Y50695809D01*
X1991306Y50716682D01*
X1981021Y50731582D01*
X1855415Y50842859D01*
X1788154Y50878160D01*
X1706832Y50920841D01*
X1706829Y50920842D01*
X1543904Y50961000D01*
X1543903Y50961000D01*
X1376097Y50961000D01*
X1376095Y50961000D01*
X1213170Y50920842D01*
X1213169Y50920842D01*
X1064584Y50842859D01*
X938978Y50731582D01*
X928694Y50716682D01*
X873535Y50671984D01*
X802966Y50664203D01*
X739393Y50695809D01*
X721306Y50716682D01*
X711021Y50731582D01*
X585415Y50842859D01*
X518154Y50878160D01*
X436832Y50920841D01*
X436829Y50920842D01*
X273904Y50961000D01*
X273903Y50961000D01*
X106097Y50961000D01*
X106095Y50961000D01*
X-56830Y50920842D01*
X-56831Y50920842D01*
X-205416Y50842859D01*
X-331022Y50731582D01*
X-426341Y50593489D01*
X-426342Y50593486D01*
X-485849Y50436580D01*
X-506075Y50270003D01*
X-506075Y50269998D01*
X-485849Y50103421D01*
X-485849Y50103419D01*
X-485848Y50103418D01*
X-426344Y49946518D01*
X-426343Y49946516D01*
X-426342Y49946515D01*
X-426341Y49946512D01*
X-367089Y49860671D01*
X-344853Y49793246D01*
X-362600Y49724504D01*
X-400783Y49684330D01*
X-456860Y49646861D01*
X-501882Y49579480D01*
X-513700Y49520065D01*
X-513700Y48479936D01*
X-2449500Y48479936D01*
X-2449500Y51308000D01*
X35190951Y51308000D01*
X35211044Y51168247D01*
X35269697Y51039816D01*
X35269700Y51039812D01*
X35362154Y50933113D01*
X35362158Y50933110D01*
X35421545Y50894945D01*
X35480934Y50856778D01*
X35589563Y50824882D01*
X35616401Y50817001D01*
X35616402Y50817001D01*
X35616405Y50817000D01*
X35616408Y50817000D01*
X35757592Y50817000D01*
X35757595Y50817000D01*
X35893066Y50856778D01*
X36011843Y50933111D01*
X36104303Y51039816D01*
X36162956Y51168247D01*
X36183049Y51308000D01*
X36162956Y51447753D01*
X36104303Y51576184D01*
X36104299Y51576189D01*
X36011845Y51682888D01*
X36011841Y51682891D01*
X35893066Y51759222D01*
X35757598Y51799000D01*
X35757595Y51799000D01*
X35616405Y51799000D01*
X35616401Y51799000D01*
X35480933Y51759222D01*
X35362158Y51682891D01*
X35362154Y51682888D01*
X35269700Y51576189D01*
X35269697Y51576185D01*
X35211044Y51447754D01*
X35190951Y51308000D01*
X-2449500Y51308000D01*
X-2449500Y52284998D01*
X1253925Y52284998D01*
X1274151Y52118421D01*
X1274151Y52118419D01*
X1274152Y52118418D01*
X1333656Y51961518D01*
X1333657Y51961516D01*
X1333658Y51961515D01*
X1333659Y51961512D01*
X1428978Y51823419D01*
X1428979Y51823418D01*
X1428980Y51823417D01*
X1554584Y51712142D01*
X1703168Y51634159D01*
X1866097Y51594000D01*
X1866098Y51594000D01*
X2033902Y51594000D01*
X2033903Y51594000D01*
X2196832Y51634159D01*
X2345416Y51712142D01*
X2471020Y51823417D01*
X2566344Y51961518D01*
X2625848Y52118418D01*
X2646075Y52285000D01*
X2625848Y52451582D01*
X2566344Y52608482D01*
X2566340Y52608487D01*
X2566340Y52608489D01*
X2471020Y52746583D01*
X2471018Y52746585D01*
X2381729Y52825688D01*
X2344003Y52885832D01*
X2344783Y52956824D01*
X2381729Y53014312D01*
X2411460Y53040652D01*
X2471020Y53093417D01*
X2566344Y53231518D01*
X2625848Y53388418D01*
X2646075Y53555000D01*
X2625848Y53721582D01*
X2566344Y53878482D01*
X2566340Y53878487D01*
X2566340Y53878489D01*
X2471020Y54016583D01*
X2471018Y54016585D01*
X2381729Y54095688D01*
X2344003Y54155832D01*
X2344783Y54226824D01*
X2381729Y54284312D01*
X2411460Y54310652D01*
X2471020Y54363417D01*
X2566344Y54501518D01*
X2625848Y54658418D01*
X2646075Y54825000D01*
X2639355Y54880340D01*
X2625848Y54991580D01*
X2625848Y54991582D01*
X2566344Y55148482D01*
X2499871Y55244785D01*
X2477636Y55312207D01*
X2495383Y55380950D01*
X2533563Y55421122D01*
X2587703Y55457297D01*
X2629918Y55520475D01*
X2641000Y55576188D01*
X2641000Y55619997D01*
X38081963Y55619997D01*
X38102060Y55415936D01*
X38102060Y55415934D01*
X38161587Y55219702D01*
X38161589Y55219696D01*
X38199654Y55148482D01*
X38258252Y55038853D01*
X38388340Y54880340D01*
X38546853Y54750252D01*
X38686332Y54675699D01*
X38718662Y54658418D01*
X38727699Y54653588D01*
X38923928Y54594062D01*
X38923932Y54594062D01*
X38923934Y54594061D01*
X39127997Y54573963D01*
X39128000Y54573963D01*
X39128003Y54573963D01*
X39332064Y54594061D01*
X39332066Y54594061D01*
X39332067Y54594062D01*
X39332072Y54594062D01*
X39528301Y54653588D01*
X39709147Y54750252D01*
X39867660Y54880340D01*
X39997748Y55038853D01*
X40094412Y55219699D01*
X40153938Y55415928D01*
X40154450Y55421124D01*
X40174037Y55619997D01*
X40174037Y55620004D01*
X40153332Y55830232D01*
X40156277Y55830523D01*
X40161337Y55888590D01*
X40204760Y55944758D01*
X40271657Y55968534D01*
X40314191Y55963628D01*
X40398141Y55938978D01*
X40431245Y55929257D01*
X40431246Y55929257D01*
X40431249Y55929256D01*
X40431252Y55929256D01*
X40572436Y55929256D01*
X40572439Y55929256D01*
X40707910Y55969034D01*
X40826687Y56045367D01*
X40919147Y56152072D01*
X40977800Y56280503D01*
X40997893Y56420256D01*
X40977800Y56560009D01*
X40919147Y56688440D01*
X40919143Y56688445D01*
X40826689Y56795144D01*
X40826685Y56795147D01*
X40707910Y56871478D01*
X40572442Y56911256D01*
X40572439Y56911256D01*
X40431249Y56911256D01*
X40431245Y56911256D01*
X40295777Y56871478D01*
X40177002Y56795147D01*
X40176998Y56795144D01*
X40084544Y56688445D01*
X40084541Y56688441D01*
X40025887Y56560007D01*
X40015241Y56485963D01*
X39985748Y56421382D01*
X39926022Y56382999D01*
X39855025Y56382999D01*
X39810590Y56406496D01*
X39709147Y56489748D01*
X39528304Y56586411D01*
X39528298Y56586413D01*
X39332065Y56645940D01*
X39128003Y56666037D01*
X39127997Y56666037D01*
X38923935Y56645940D01*
X38923933Y56645940D01*
X38727701Y56586413D01*
X38727695Y56586411D01*
X38546852Y56489748D01*
X38388340Y56359660D01*
X38258252Y56201148D01*
X38161589Y56020305D01*
X38161587Y56020299D01*
X38102060Y55824067D01*
X38102060Y55824065D01*
X38081963Y55620004D01*
X38081963Y55619997D01*
X2641000Y55619997D01*
X2641000Y56613812D01*
X2629918Y56669525D01*
X2615910Y56690489D01*
X2587703Y56732704D01*
X2524525Y56774918D01*
X2524522Y56774919D01*
X2468814Y56786000D01*
X2468812Y56786000D01*
X1431188Y56786000D01*
X1431185Y56786000D01*
X1375477Y56774919D01*
X1375474Y56774918D01*
X1312296Y56732704D01*
X1270082Y56669526D01*
X1270081Y56669523D01*
X1259000Y56613815D01*
X1259000Y55576186D01*
X1270081Y55520478D01*
X1270082Y55520475D01*
X1312297Y55457297D01*
X1366433Y55421124D01*
X1411961Y55366647D01*
X1420808Y55296203D01*
X1400127Y55244783D01*
X1333659Y55148489D01*
X1333658Y55148486D01*
X1274151Y54991580D01*
X1253925Y54825003D01*
X1253925Y54824998D01*
X1274151Y54658421D01*
X1274151Y54658419D01*
X1274152Y54658418D01*
X1333656Y54501518D01*
X1333657Y54501516D01*
X1333658Y54501515D01*
X1333659Y54501512D01*
X1428978Y54363419D01*
X1518271Y54284312D01*
X1555996Y54224168D01*
X1555216Y54153175D01*
X1518271Y54095688D01*
X1428978Y54016582D01*
X1333659Y53878489D01*
X1333658Y53878486D01*
X1274151Y53721580D01*
X1253925Y53555003D01*
X1253925Y53554998D01*
X1274151Y53388421D01*
X1274151Y53388419D01*
X1274152Y53388418D01*
X1333656Y53231518D01*
X1333657Y53231516D01*
X1333658Y53231515D01*
X1333659Y53231512D01*
X1428978Y53093419D01*
X1518271Y53014312D01*
X1555996Y52954168D01*
X1555216Y52883175D01*
X1518271Y52825688D01*
X1428978Y52746582D01*
X1333659Y52608489D01*
X1333658Y52608486D01*
X1274151Y52451580D01*
X1253925Y52285003D01*
X1253925Y52284998D01*
X-2449500Y52284998D01*
X-2449500Y57315800D01*
X9003951Y57315800D01*
X9024044Y57176047D01*
X9082697Y57047616D01*
X9082700Y57047612D01*
X9175154Y56940913D01*
X9175158Y56940910D01*
X9221301Y56911256D01*
X9293934Y56864578D01*
X9402563Y56832682D01*
X9429401Y56824801D01*
X9429402Y56824801D01*
X9429405Y56824800D01*
X9429408Y56824800D01*
X9570592Y56824800D01*
X9570595Y56824800D01*
X9706066Y56864578D01*
X9824843Y56940911D01*
X9917303Y57047616D01*
X9975956Y57176047D01*
X9996049Y57315800D01*
X9975956Y57455553D01*
X9917303Y57583984D01*
X9869015Y57639712D01*
X9824845Y57690688D01*
X9824841Y57690691D01*
X9706066Y57767022D01*
X9570598Y57806800D01*
X9570595Y57806800D01*
X9429405Y57806800D01*
X9429401Y57806800D01*
X9293933Y57767022D01*
X9175158Y57690691D01*
X9175154Y57690688D01*
X9082700Y57583989D01*
X9082697Y57583985D01*
X9024044Y57455554D01*
X9003951Y57315800D01*
X-2449500Y57315800D01*
X-2449500Y57907900D01*
X10503951Y57907900D01*
X10524044Y57768147D01*
X10582697Y57639716D01*
X10582700Y57639712D01*
X10675154Y57533013D01*
X10675158Y57533010D01*
X10698130Y57518247D01*
X10793934Y57456678D01*
X10902563Y57424782D01*
X10929401Y57416901D01*
X10929402Y57416901D01*
X10929405Y57416900D01*
X10929408Y57416900D01*
X11070592Y57416900D01*
X11070595Y57416900D01*
X11206066Y57456678D01*
X11324843Y57533011D01*
X11417303Y57639716D01*
X11425653Y57658000D01*
X36206951Y57658000D01*
X36227044Y57518247D01*
X36285697Y57389816D01*
X36285700Y57389812D01*
X36378154Y57283113D01*
X36378158Y57283110D01*
X36437545Y57244945D01*
X36496934Y57206778D01*
X36601594Y57176047D01*
X36632401Y57167001D01*
X36632402Y57167001D01*
X36632405Y57167000D01*
X36632408Y57167000D01*
X36773592Y57167000D01*
X36773595Y57167000D01*
X36909066Y57206778D01*
X37027843Y57283111D01*
X37120303Y57389816D01*
X37178956Y57518247D01*
X37199049Y57658000D01*
X37178956Y57797753D01*
X37120303Y57926184D01*
X37094523Y57955936D01*
X37027845Y58032888D01*
X37027841Y58032891D01*
X36909066Y58109222D01*
X36773598Y58149000D01*
X36773595Y58149000D01*
X36632405Y58149000D01*
X36632401Y58149000D01*
X36496933Y58109222D01*
X36378158Y58032891D01*
X36378154Y58032888D01*
X36285700Y57926189D01*
X36285697Y57926185D01*
X36227044Y57797754D01*
X36206951Y57658000D01*
X11425653Y57658000D01*
X11475956Y57768147D01*
X11496049Y57907900D01*
X11475956Y58047653D01*
X11424650Y58159997D01*
X38081963Y58159997D01*
X38102060Y57955936D01*
X38102060Y57955934D01*
X38161587Y57759702D01*
X38161589Y57759696D01*
X38198475Y57690688D01*
X38258252Y57578853D01*
X38388340Y57420340D01*
X38546853Y57290252D01*
X38727699Y57193588D01*
X38923928Y57134062D01*
X38923932Y57134062D01*
X38923934Y57134061D01*
X39127997Y57113963D01*
X39128000Y57113963D01*
X39128003Y57113963D01*
X39332064Y57134061D01*
X39332066Y57134061D01*
X39332067Y57134062D01*
X39332072Y57134062D01*
X39528301Y57193588D01*
X39709147Y57290252D01*
X39867660Y57420340D01*
X39997748Y57578853D01*
X40094412Y57759699D01*
X40153938Y57955928D01*
X40174037Y58160000D01*
X40172452Y58176089D01*
X40153939Y58364065D01*
X40153939Y58364067D01*
X40153938Y58364070D01*
X40153938Y58364072D01*
X40094412Y58560301D01*
X39997748Y58741147D01*
X39867660Y58899660D01*
X39709147Y59029748D01*
X39528304Y59126411D01*
X39528298Y59126413D01*
X39332065Y59185940D01*
X39128003Y59206037D01*
X39127997Y59206037D01*
X38923935Y59185940D01*
X38923933Y59185940D01*
X38727701Y59126413D01*
X38727695Y59126411D01*
X38546852Y59029748D01*
X38388340Y58899660D01*
X38258252Y58741148D01*
X38161589Y58560305D01*
X38161587Y58560299D01*
X38102060Y58364067D01*
X38102060Y58364065D01*
X38081963Y58160004D01*
X38081963Y58159997D01*
X11424650Y58159997D01*
X11417303Y58176084D01*
X11417299Y58176089D01*
X11324845Y58282788D01*
X11324841Y58282791D01*
X11206066Y58359122D01*
X11070598Y58398900D01*
X11070595Y58398900D01*
X10929405Y58398900D01*
X10929401Y58398900D01*
X10793933Y58359122D01*
X10675158Y58282791D01*
X10675154Y58282788D01*
X10582700Y58176089D01*
X10582697Y58176085D01*
X10524044Y58047654D01*
X10503951Y57907900D01*
X-2449500Y57907900D01*
X-2449500Y59881186D01*
X7859000Y59881186D01*
X7870081Y59825478D01*
X7870082Y59825475D01*
X7912296Y59762297D01*
X7949861Y59737197D01*
X7975475Y59720082D01*
X8031188Y59709000D01*
X8031189Y59709000D01*
X9068811Y59709000D01*
X9068812Y59709000D01*
X9124525Y59720082D01*
X9187703Y59762297D01*
X9222776Y59814787D01*
X9277250Y59860312D01*
X9347693Y59869161D01*
X9411092Y59839094D01*
X9424584Y59827142D01*
X9573168Y59749159D01*
X9736097Y59709000D01*
X9736098Y59709000D01*
X9903902Y59709000D01*
X9903903Y59709000D01*
X10066832Y59749159D01*
X10215416Y59827142D01*
X10341020Y59938417D01*
X10351303Y59953316D01*
X10406460Y59998016D01*
X10477028Y60005800D01*
X10540603Y59974197D01*
X10558695Y59953317D01*
X10568980Y59938417D01*
X10694584Y59827142D01*
X10843168Y59749159D01*
X11006097Y59709000D01*
X11006098Y59709000D01*
X11173902Y59709000D01*
X11173903Y59709000D01*
X11336832Y59749159D01*
X11485416Y59827142D01*
X11611020Y59938417D01*
X11613585Y59942135D01*
X11668738Y59986836D01*
X11739306Y59994624D01*
X11802883Y59963023D01*
X11820979Y59942140D01*
X11829401Y59929938D01*
X11829406Y59929933D01*
X11940548Y59831469D01*
X11957317Y59816613D01*
X12108632Y59737197D01*
X12274555Y59696300D01*
X12274556Y59696300D01*
X12445444Y59696300D01*
X12445445Y59696300D01*
X12611368Y59737197D01*
X12762683Y59816613D01*
X12835570Y59881186D01*
X20559000Y59881186D01*
X20570081Y59825478D01*
X20570082Y59825475D01*
X20612296Y59762297D01*
X20649861Y59737197D01*
X20675475Y59720082D01*
X20731188Y59709000D01*
X20731189Y59709000D01*
X21768811Y59709000D01*
X21768812Y59709000D01*
X21824525Y59720082D01*
X21824525Y59720083D01*
X21836696Y59722503D01*
X21837516Y59718378D01*
X21884946Y59723507D01*
X21936715Y59701431D01*
X22063494Y59609320D01*
X22237864Y59531685D01*
X22237868Y59531683D01*
X22266000Y59525705D01*
X22266000Y60197095D01*
X22307871Y60147195D01*
X22407129Y60089888D01*
X22491564Y60075000D01*
X22548436Y60075000D01*
X22632871Y60089888D01*
X22732129Y60147195D01*
X22774000Y60197095D01*
X22774000Y59525705D01*
X22802131Y59531683D01*
X22802135Y59531685D01*
X22976505Y59609320D01*
X23130920Y59721509D01*
X23217188Y59817321D01*
X23277633Y59854562D01*
X23348617Y59853211D01*
X23387959Y59830955D01*
X23388315Y59831469D01*
X23394057Y59827505D01*
X23394380Y59827323D01*
X23394584Y59827142D01*
X23543168Y59749159D01*
X23706097Y59709000D01*
X23706098Y59709000D01*
X23873902Y59709000D01*
X23873903Y59709000D01*
X24036832Y59749159D01*
X24185416Y59827142D01*
X24311020Y59938417D01*
X24321303Y59953316D01*
X24376460Y59998016D01*
X24447028Y60005800D01*
X24510603Y59974197D01*
X24528695Y59953317D01*
X24538980Y59938417D01*
X24664584Y59827142D01*
X24813168Y59749159D01*
X24976097Y59709000D01*
X24976098Y59709000D01*
X25143902Y59709000D01*
X25143903Y59709000D01*
X25306832Y59749159D01*
X25455416Y59827142D01*
X25581020Y59938417D01*
X25591303Y59953316D01*
X25646460Y59998016D01*
X25717028Y60005800D01*
X25780603Y59974197D01*
X25798695Y59953317D01*
X25808980Y59938417D01*
X25934584Y59827142D01*
X26083168Y59749159D01*
X26246097Y59709000D01*
X26246098Y59709000D01*
X26413902Y59709000D01*
X26413903Y59709000D01*
X26576832Y59749159D01*
X26725416Y59827142D01*
X26851020Y59938417D01*
X26861303Y59953316D01*
X26916460Y59998016D01*
X26987028Y60005800D01*
X27050603Y59974197D01*
X27068695Y59953317D01*
X27078980Y59938417D01*
X27204584Y59827142D01*
X27353168Y59749159D01*
X27516097Y59709000D01*
X27516098Y59709000D01*
X27683902Y59709000D01*
X27683903Y59709000D01*
X27846832Y59749159D01*
X27995416Y59827142D01*
X28121020Y59938417D01*
X28190502Y60039081D01*
X28216340Y60076512D01*
X28216340Y60076513D01*
X28216344Y60076518D01*
X28275848Y60233418D01*
X28296075Y60400000D01*
X28275848Y60566582D01*
X28216344Y60723482D01*
X28216340Y60723487D01*
X28216340Y60723489D01*
X28121021Y60861582D01*
X28111443Y60870067D01*
X28032465Y60940036D01*
X27995415Y60972859D01*
X27871862Y61037704D01*
X27846832Y61050841D01*
X27846829Y61050842D01*
X27683904Y61091000D01*
X27683903Y61091000D01*
X27516097Y61091000D01*
X27516095Y61091000D01*
X27353170Y61050842D01*
X27353169Y61050842D01*
X27204584Y60972859D01*
X27078978Y60861582D01*
X27068694Y60846682D01*
X27013535Y60801984D01*
X26942966Y60794203D01*
X26879393Y60825809D01*
X26861306Y60846682D01*
X26851021Y60861582D01*
X26841443Y60870067D01*
X26762465Y60940036D01*
X26725415Y60972859D01*
X26601862Y61037704D01*
X26576832Y61050841D01*
X26576829Y61050842D01*
X26413904Y61091000D01*
X26413903Y61091000D01*
X26246097Y61091000D01*
X26246095Y61091000D01*
X26083170Y61050842D01*
X26083169Y61050842D01*
X25934584Y60972859D01*
X25808978Y60861582D01*
X25798694Y60846682D01*
X25743535Y60801984D01*
X25672966Y60794203D01*
X25609393Y60825809D01*
X25591306Y60846682D01*
X25581021Y60861582D01*
X25571443Y60870067D01*
X25492465Y60940036D01*
X25455415Y60972859D01*
X25331862Y61037704D01*
X25306832Y61050841D01*
X25306829Y61050842D01*
X25143904Y61091000D01*
X25143903Y61091000D01*
X24976097Y61091000D01*
X24976095Y61091000D01*
X24813170Y61050842D01*
X24813169Y61050842D01*
X24664584Y60972859D01*
X24538978Y60861582D01*
X24528694Y60846682D01*
X24473535Y60801984D01*
X24402966Y60794203D01*
X24339393Y60825809D01*
X24321306Y60846682D01*
X24311021Y60861582D01*
X24301443Y60870067D01*
X24222465Y60940036D01*
X24185415Y60972859D01*
X24061862Y61037704D01*
X24036832Y61050841D01*
X24036829Y61050842D01*
X23873904Y61091000D01*
X23873903Y61091000D01*
X23706097Y61091000D01*
X23706095Y61091000D01*
X23543170Y61050842D01*
X23543169Y61050842D01*
X23394582Y60972858D01*
X23394372Y60972671D01*
X23394185Y60972584D01*
X23388315Y60968531D01*
X23387640Y60969508D01*
X23330117Y60942475D01*
X23259737Y60951811D01*
X23217188Y60982679D01*
X23130917Y61078494D01*
X22976505Y61190681D01*
X22802130Y61268318D01*
X22774000Y61274297D01*
X22774000Y60602906D01*
X22732129Y60652805D01*
X22632871Y60710112D01*
X22548436Y60725000D01*
X22491564Y60725000D01*
X22407129Y60710112D01*
X22307871Y60652805D01*
X22266000Y60602906D01*
X22266000Y61274297D01*
X22265999Y61274297D01*
X22237869Y61268318D01*
X22063494Y61190681D01*
X21936715Y61098570D01*
X21869847Y61074711D01*
X21837240Y61080235D01*
X21836696Y61077497D01*
X21768814Y61091000D01*
X21768812Y61091000D01*
X20731188Y61091000D01*
X20731185Y61091000D01*
X20675477Y61079919D01*
X20675474Y61079918D01*
X20612296Y61037704D01*
X20570082Y60974526D01*
X20570081Y60974523D01*
X20559000Y60918815D01*
X20559000Y59881186D01*
X12835570Y59881186D01*
X12890595Y59929934D01*
X12987671Y60070573D01*
X13048270Y60230357D01*
X13048270Y60230358D01*
X13048271Y60230360D01*
X13068868Y60399998D01*
X13068868Y60400003D01*
X13048271Y60569641D01*
X13008582Y60674290D01*
X12987671Y60729427D01*
X12937589Y60801984D01*
X12890596Y60870065D01*
X12890593Y60870068D01*
X12762682Y60983388D01*
X12611366Y61062804D01*
X12445446Y61103700D01*
X12445445Y61103700D01*
X12274555Y61103700D01*
X12274553Y61103700D01*
X12108634Y61062804D01*
X12108633Y61062804D01*
X11957318Y60983388D01*
X11957317Y60983388D01*
X11829406Y60870068D01*
X11829405Y60870067D01*
X11820978Y60857858D01*
X11765818Y60813160D01*
X11695249Y60805380D01*
X11631676Y60836987D01*
X11613591Y60857859D01*
X11611020Y60861583D01*
X11485416Y60972858D01*
X11485415Y60972859D01*
X11361862Y61037704D01*
X11336832Y61050841D01*
X11336829Y61050842D01*
X11173904Y61091000D01*
X11173903Y61091000D01*
X11006097Y61091000D01*
X11006095Y61091000D01*
X10843170Y61050842D01*
X10843169Y61050842D01*
X10694584Y60972859D01*
X10568978Y60861582D01*
X10558694Y60846682D01*
X10503535Y60801984D01*
X10432966Y60794203D01*
X10369393Y60825809D01*
X10351306Y60846682D01*
X10341021Y60861582D01*
X10331443Y60870067D01*
X10252465Y60940036D01*
X10215415Y60972859D01*
X10091862Y61037704D01*
X10066832Y61050841D01*
X10066829Y61050842D01*
X9903904Y61091000D01*
X9903903Y61091000D01*
X9736097Y61091000D01*
X9736095Y61091000D01*
X9573170Y61050842D01*
X9573169Y61050842D01*
X9424582Y60972858D01*
X9424581Y60972858D01*
X9411092Y60960906D01*
X9346839Y60930705D01*
X9276459Y60940036D01*
X9222774Y60985216D01*
X9187702Y61037704D01*
X9124525Y61079918D01*
X9124522Y61079919D01*
X9068814Y61091000D01*
X9068812Y61091000D01*
X8031188Y61091000D01*
X8031185Y61091000D01*
X7975477Y61079919D01*
X7975474Y61079918D01*
X7912296Y61037704D01*
X7870082Y60974526D01*
X7870081Y60974523D01*
X7859000Y60918815D01*
X7859000Y59881186D01*
X-2449500Y59881186D01*
X-2449500Y61657282D01*
X-2448981Y61661438D01*
X-2449153Y61674404D01*
X-2449152Y61674405D01*
X-2449409Y61693732D01*
X-2448696Y61708870D01*
X-2440896Y61781257D01*
X-2434049Y61810774D01*
X-2411810Y61871981D01*
X-2398107Y61899015D01*
X-2391184Y61909362D01*
X-2361894Y61953136D01*
X-2342137Y61976109D01*
X-2294039Y62020020D01*
X-2269364Y62037610D01*
X-2212172Y62068759D01*
X-2184006Y62079947D01*
X-2113918Y62098408D01*
X-2097866Y62101537D01*
X-1887499Y62128529D01*
X-1887500Y62128529D01*
X-1887491Y62128530D01*
X-1453136Y62215699D01*
X-1025975Y62333158D01*
X-896452Y62378777D01*
X-608149Y62480318D01*
X-608143Y62480321D01*
X-608119Y62480329D01*
X-201631Y62656484D01*
X191481Y62860753D01*
X569275Y63092127D01*
X929887Y63349464D01*
X1271534Y63631492D01*
X1592529Y63936820D01*
X1891288Y64263938D01*
X2002586Y64404518D01*
X2007451Y64409341D01*
X2013931Y64417915D01*
X2013933Y64417915D01*
X2025803Y64433619D01*
X2035163Y64444627D01*
X2084030Y64495810D01*
X2106242Y64514275D01*
X2159360Y64548972D01*
X2185207Y64561895D01*
X2244829Y64583570D01*
X2272944Y64590263D01*
X2324365Y64596397D01*
X2342945Y64598613D01*
X2357870Y64599500D01*
X37906310Y64599500D01*
X37974431Y64579498D01*
G37*
G04 #@! TD.AperFunction*
G04 #@! TD*
M02*
