G04 #@! TF.GenerationSoftware,KiCad,Pcbnew,7.0.11-7.0.11~ubuntu23.10.1*
G04 #@! TF.CreationDate,2024-06-16T14:32:52+02:00*
G04 #@! TF.ProjectId,WiRoc_NanoPi,5769526f-635f-44e6-916e-6f50692e6b69,rev?*
G04 #@! TF.SameCoordinates,Original*
G04 #@! TF.FileFunction,Legend,Top*
G04 #@! TF.FilePolarity,Positive*
%FSLAX46Y46*%
G04 Gerber Fmt 4.6, Leading zero omitted, Abs format (unit mm)*
G04 Created by KiCad (PCBNEW 7.0.11-7.0.11~ubuntu23.10.1) date 2024-06-16 14:32:52*
%MOMM*%
%LPD*%
G01*
G04 APERTURE LIST*
G04 Aperture macros list*
%AMRoundRect*
0 Rectangle with rounded corners*
0 $1 Rounding radius*
0 $2 $3 $4 $5 $6 $7 $8 $9 X,Y pos of 4 corners*
0 Add a 4 corners polygon primitive as box body*
4,1,4,$2,$3,$4,$5,$6,$7,$8,$9,$2,$3,0*
0 Add four circle primitives for the rounded corners*
1,1,$1+$1,$2,$3*
1,1,$1+$1,$4,$5*
1,1,$1+$1,$6,$7*
1,1,$1+$1,$8,$9*
0 Add four rect primitives between the rounded corners*
20,1,$1+$1,$2,$3,$4,$5,0*
20,1,$1+$1,$4,$5,$6,$7,0*
20,1,$1+$1,$6,$7,$8,$9,0*
20,1,$1+$1,$8,$9,$2,$3,0*%
G04 Aperture macros list end*
%ADD10C,0.150000*%
%ADD11C,0.200000*%
%ADD12C,0.300000*%
%ADD13C,0.100000*%
%ADD14C,0.120000*%
%ADD15RoundRect,0.150000X-0.512500X-0.150000X0.512500X-0.150000X0.512500X0.150000X-0.512500X0.150000X0*%
%ADD16RoundRect,0.225000X-0.250000X0.225000X-0.250000X-0.225000X0.250000X-0.225000X0.250000X0.225000X0*%
%ADD17RoundRect,0.200000X-0.200000X-0.275000X0.200000X-0.275000X0.200000X0.275000X-0.200000X0.275000X0*%
%ADD18RoundRect,0.250000X0.650000X-0.325000X0.650000X0.325000X-0.650000X0.325000X-0.650000X-0.325000X0*%
%ADD19R,1.200000X2.800000*%
%ADD20R,2.800000X1.200000*%
%ADD21R,6.000000X4.000000*%
%ADD22R,1.700000X1.700000*%
%ADD23O,1.700000X1.700000*%
%ADD24RoundRect,0.200000X0.200000X0.275000X-0.200000X0.275000X-0.200000X-0.275000X0.200000X-0.275000X0*%
%ADD25RoundRect,0.225000X0.250000X-0.225000X0.250000X0.225000X-0.250000X0.225000X-0.250000X-0.225000X0*%
%ADD26O,0.700000X0.200000*%
%ADD27O,0.200000X0.700000*%
%ADD28R,1.400000X1.400000*%
%ADD29RoundRect,0.200000X-0.275000X0.200000X-0.275000X-0.200000X0.275000X-0.200000X0.275000X0.200000X0*%
%ADD30R,3.700000X1.100000*%
%ADD31RoundRect,0.225000X-0.225000X-0.250000X0.225000X-0.250000X0.225000X0.250000X-0.225000X0.250000X0*%
%ADD32RoundRect,0.250000X0.262500X0.450000X-0.262500X0.450000X-0.262500X-0.450000X0.262500X-0.450000X0*%
%ADD33RoundRect,0.225000X0.225000X0.250000X-0.225000X0.250000X-0.225000X-0.250000X0.225000X-0.250000X0*%
%ADD34R,1.000000X0.720000*%
%ADD35RoundRect,0.250000X-0.650000X0.325000X-0.650000X-0.325000X0.650000X-0.325000X0.650000X0.325000X0*%
%ADD36RoundRect,0.100000X-0.100000X0.637500X-0.100000X-0.637500X0.100000X-0.637500X0.100000X0.637500X0*%
%ADD37RoundRect,0.140000X0.140000X0.170000X-0.140000X0.170000X-0.140000X-0.170000X0.140000X-0.170000X0*%
%ADD38R,1.000000X1.000000*%
%ADD39O,1.000000X1.000000*%
%ADD40RoundRect,0.150000X-0.825000X-0.150000X0.825000X-0.150000X0.825000X0.150000X-0.825000X0.150000X0*%
%ADD41R,1.800000X1.000000*%
%ADD42RoundRect,0.200000X0.275000X-0.200000X0.275000X0.200000X-0.275000X0.200000X-0.275000X-0.200000X0*%
%ADD43R,1.100000X3.700000*%
%ADD44RoundRect,0.150000X-0.150000X0.512500X-0.150000X-0.512500X0.150000X-0.512500X0.150000X0.512500X0*%
%ADD45RoundRect,0.200100X-0.949900X0.949900X-0.949900X-0.949900X0.949900X-0.949900X0.949900X0.949900X0*%
%ADD46C,2.500000*%
G04 APERTURE END LIST*
D10*
X4000000Y47500000D02*
X4000000Y48000000D01*
X1500000Y48000000D02*
X1500000Y47500000D01*
X1500000Y47500000D02*
X4000000Y47500000D01*
D11*
X309780Y55078144D02*
X785971Y55411477D01*
X309780Y55649572D02*
X1309780Y55649572D01*
X1309780Y55649572D02*
X1309780Y55268620D01*
X1309780Y55268620D02*
X1262161Y55173382D01*
X1262161Y55173382D02*
X1214542Y55125763D01*
X1214542Y55125763D02*
X1119304Y55078144D01*
X1119304Y55078144D02*
X976447Y55078144D01*
X976447Y55078144D02*
X881209Y55125763D01*
X881209Y55125763D02*
X833590Y55173382D01*
X833590Y55173382D02*
X785971Y55268620D01*
X785971Y55268620D02*
X785971Y55649572D01*
X357400Y54268620D02*
X309780Y54363858D01*
X309780Y54363858D02*
X309780Y54554334D01*
X309780Y54554334D02*
X357400Y54649572D01*
X357400Y54649572D02*
X452638Y54697191D01*
X452638Y54697191D02*
X833590Y54697191D01*
X833590Y54697191D02*
X928828Y54649572D01*
X928828Y54649572D02*
X976447Y54554334D01*
X976447Y54554334D02*
X976447Y54363858D01*
X976447Y54363858D02*
X928828Y54268620D01*
X928828Y54268620D02*
X833590Y54221001D01*
X833590Y54221001D02*
X738352Y54221001D01*
X738352Y54221001D02*
X643114Y54697191D01*
X976447Y53887667D02*
X309780Y53649572D01*
X309780Y53649572D02*
X976447Y53411477D01*
X1214542Y52316238D02*
X1262161Y52268619D01*
X1262161Y52268619D02*
X1309780Y52173381D01*
X1309780Y52173381D02*
X1309780Y51935286D01*
X1309780Y51935286D02*
X1262161Y51840048D01*
X1262161Y51840048D02*
X1214542Y51792429D01*
X1214542Y51792429D02*
X1119304Y51744810D01*
X1119304Y51744810D02*
X1024066Y51744810D01*
X1024066Y51744810D02*
X881209Y51792429D01*
X881209Y51792429D02*
X309780Y52363857D01*
X309780Y52363857D02*
X309780Y51744810D01*
D10*
X-1488840Y28934705D02*
X-1488840Y29734705D01*
X-1488840Y29734705D02*
X-1298364Y29734705D01*
X-1298364Y29734705D02*
X-1184078Y29696610D01*
X-1184078Y29696610D02*
X-1107888Y29620420D01*
X-1107888Y29620420D02*
X-1069793Y29544229D01*
X-1069793Y29544229D02*
X-1031697Y29391848D01*
X-1031697Y29391848D02*
X-1031697Y29277562D01*
X-1031697Y29277562D02*
X-1069793Y29125181D01*
X-1069793Y29125181D02*
X-1107888Y29048991D01*
X-1107888Y29048991D02*
X-1184078Y28972800D01*
X-1184078Y28972800D02*
X-1298364Y28934705D01*
X-1298364Y28934705D02*
X-1488840Y28934705D01*
X-688840Y28934705D02*
X-688840Y29734705D01*
X-688840Y29734705D02*
X-384078Y29734705D01*
X-384078Y29734705D02*
X-307888Y29696610D01*
X-307888Y29696610D02*
X-269793Y29658515D01*
X-269793Y29658515D02*
X-231697Y29582324D01*
X-231697Y29582324D02*
X-231697Y29468039D01*
X-231697Y29468039D02*
X-269793Y29391848D01*
X-269793Y29391848D02*
X-307888Y29353753D01*
X-307888Y29353753D02*
X-384078Y29315658D01*
X-384078Y29315658D02*
X-688840Y29315658D01*
X530207Y28934705D02*
X73064Y28934705D01*
X301636Y28934705D02*
X301636Y29734705D01*
X301636Y29734705D02*
X225445Y29620420D01*
X225445Y29620420D02*
X149255Y29544229D01*
X149255Y29544229D02*
X73064Y29506134D01*
X3511779Y54355181D02*
X3511779Y55355181D01*
X3511779Y55355181D02*
X4083207Y54355181D01*
X4083207Y54355181D02*
X4083207Y55355181D01*
X5130826Y54450420D02*
X5083207Y54402800D01*
X5083207Y54402800D02*
X4940350Y54355181D01*
X4940350Y54355181D02*
X4845112Y54355181D01*
X4845112Y54355181D02*
X4702255Y54402800D01*
X4702255Y54402800D02*
X4607017Y54498039D01*
X4607017Y54498039D02*
X4559398Y54593277D01*
X4559398Y54593277D02*
X4511779Y54783753D01*
X4511779Y54783753D02*
X4511779Y54926610D01*
X4511779Y54926610D02*
X4559398Y55117086D01*
X4559398Y55117086D02*
X4607017Y55212324D01*
X4607017Y55212324D02*
X4702255Y55307562D01*
X4702255Y55307562D02*
X4845112Y55355181D01*
X4845112Y55355181D02*
X4940350Y55355181D01*
X4940350Y55355181D02*
X5083207Y55307562D01*
X5083207Y55307562D02*
X5130826Y55259943D01*
X1479779Y36833181D02*
X1479779Y37833181D01*
X1955969Y36833181D02*
X1955969Y37833181D01*
X1955969Y37833181D02*
X2527397Y36833181D01*
X2527397Y36833181D02*
X2527397Y37833181D01*
X-1730126Y34941705D02*
X-1463459Y34141705D01*
X-1463459Y34141705D02*
X-1196793Y34941705D01*
X-930126Y34141705D02*
X-930126Y34941705D01*
X-930126Y34636943D02*
X-853936Y34675039D01*
X-853936Y34675039D02*
X-701555Y34675039D01*
X-701555Y34675039D02*
X-625364Y34636943D01*
X-625364Y34636943D02*
X-587269Y34598848D01*
X-587269Y34598848D02*
X-549174Y34522658D01*
X-549174Y34522658D02*
X-549174Y34294086D01*
X-549174Y34294086D02*
X-587269Y34217896D01*
X-587269Y34217896D02*
X-625364Y34179800D01*
X-625364Y34179800D02*
X-701555Y34141705D01*
X-701555Y34141705D02*
X-853936Y34141705D01*
X-853936Y34141705D02*
X-930126Y34179800D01*
X136541Y34675039D02*
X136541Y34141705D01*
X-206316Y34675039D02*
X-206316Y34255991D01*
X-206316Y34255991D02*
X-168221Y34179800D01*
X-168221Y34179800D02*
X-92031Y34141705D01*
X-92031Y34141705D02*
X22255Y34141705D01*
X22255Y34141705D02*
X98446Y34179800D01*
X98446Y34179800D02*
X136541Y34217896D01*
X479398Y34179800D02*
X555589Y34141705D01*
X555589Y34141705D02*
X707970Y34141705D01*
X707970Y34141705D02*
X784160Y34179800D01*
X784160Y34179800D02*
X822256Y34255991D01*
X822256Y34255991D02*
X822256Y34294086D01*
X822256Y34294086D02*
X784160Y34370277D01*
X784160Y34370277D02*
X707970Y34408372D01*
X707970Y34408372D02*
X593684Y34408372D01*
X593684Y34408372D02*
X517494Y34446467D01*
X517494Y34446467D02*
X479398Y34522658D01*
X479398Y34522658D02*
X479398Y34560753D01*
X479398Y34560753D02*
X517494Y34636943D01*
X517494Y34636943D02*
X593684Y34675039D01*
X593684Y34675039D02*
X707970Y34675039D01*
X707970Y34675039D02*
X784160Y34636943D01*
X3511779Y53130181D02*
X3511779Y54130181D01*
X3511779Y54130181D02*
X4083207Y53130181D01*
X4083207Y53130181D02*
X4083207Y54130181D01*
X5130826Y53225420D02*
X5083207Y53177800D01*
X5083207Y53177800D02*
X4940350Y53130181D01*
X4940350Y53130181D02*
X4845112Y53130181D01*
X4845112Y53130181D02*
X4702255Y53177800D01*
X4702255Y53177800D02*
X4607017Y53273039D01*
X4607017Y53273039D02*
X4559398Y53368277D01*
X4559398Y53368277D02*
X4511779Y53558753D01*
X4511779Y53558753D02*
X4511779Y53701610D01*
X4511779Y53701610D02*
X4559398Y53892086D01*
X4559398Y53892086D02*
X4607017Y53987324D01*
X4607017Y53987324D02*
X4702255Y54082562D01*
X4702255Y54082562D02*
X4845112Y54130181D01*
X4845112Y54130181D02*
X4940350Y54130181D01*
X4940350Y54130181D02*
X5083207Y54082562D01*
X5083207Y54082562D02*
X5130826Y54034943D01*
X-1488840Y27664705D02*
X-1488840Y28464705D01*
X-1488840Y28464705D02*
X-1298364Y28464705D01*
X-1298364Y28464705D02*
X-1184078Y28426610D01*
X-1184078Y28426610D02*
X-1107888Y28350420D01*
X-1107888Y28350420D02*
X-1069793Y28274229D01*
X-1069793Y28274229D02*
X-1031697Y28121848D01*
X-1031697Y28121848D02*
X-1031697Y28007562D01*
X-1031697Y28007562D02*
X-1069793Y27855181D01*
X-1069793Y27855181D02*
X-1107888Y27778991D01*
X-1107888Y27778991D02*
X-1184078Y27702800D01*
X-1184078Y27702800D02*
X-1298364Y27664705D01*
X-1298364Y27664705D02*
X-1488840Y27664705D01*
X-688840Y27664705D02*
X-688840Y28464705D01*
X-688840Y28464705D02*
X-422174Y27893277D01*
X-422174Y27893277D02*
X-155507Y28464705D01*
X-155507Y28464705D02*
X-155507Y27664705D01*
X644493Y27664705D02*
X187350Y27664705D01*
X415922Y27664705D02*
X415922Y28464705D01*
X415922Y28464705D02*
X339731Y28350420D01*
X339731Y28350420D02*
X263541Y28274229D01*
X263541Y28274229D02*
X187350Y28236134D01*
X-1044412Y14417562D02*
X-1139650Y14465181D01*
X-1139650Y14465181D02*
X-1282507Y14465181D01*
X-1282507Y14465181D02*
X-1425364Y14417562D01*
X-1425364Y14417562D02*
X-1520602Y14322324D01*
X-1520602Y14322324D02*
X-1568221Y14227086D01*
X-1568221Y14227086D02*
X-1615840Y14036610D01*
X-1615840Y14036610D02*
X-1615840Y13893753D01*
X-1615840Y13893753D02*
X-1568221Y13703277D01*
X-1568221Y13703277D02*
X-1520602Y13608039D01*
X-1520602Y13608039D02*
X-1425364Y13512800D01*
X-1425364Y13512800D02*
X-1282507Y13465181D01*
X-1282507Y13465181D02*
X-1187269Y13465181D01*
X-1187269Y13465181D02*
X-1044412Y13512800D01*
X-1044412Y13512800D02*
X-996793Y13560420D01*
X-996793Y13560420D02*
X-996793Y13893753D01*
X-996793Y13893753D02*
X-1187269Y13893753D01*
X-568221Y14131848D02*
X-568221Y13465181D01*
X-568221Y14036610D02*
X-520602Y14084229D01*
X-520602Y14084229D02*
X-425364Y14131848D01*
X-425364Y14131848D02*
X-282507Y14131848D01*
X-282507Y14131848D02*
X-187269Y14084229D01*
X-187269Y14084229D02*
X-139650Y13988991D01*
X-139650Y13988991D02*
X-139650Y13465181D01*
X765112Y13465181D02*
X765112Y14465181D01*
X765112Y13512800D02*
X669874Y13465181D01*
X669874Y13465181D02*
X479398Y13465181D01*
X479398Y13465181D02*
X384160Y13512800D01*
X384160Y13512800D02*
X336541Y13560420D01*
X336541Y13560420D02*
X288922Y13655658D01*
X288922Y13655658D02*
X288922Y13941372D01*
X288922Y13941372D02*
X336541Y14036610D01*
X336541Y14036610D02*
X384160Y14084229D01*
X384160Y14084229D02*
X479398Y14131848D01*
X479398Y14131848D02*
X669874Y14131848D01*
X669874Y14131848D02*
X765112Y14084229D01*
X21611295Y62646161D02*
X20811295Y62646161D01*
X21611295Y63484256D02*
X21230342Y63217589D01*
X21611295Y63027113D02*
X20811295Y63027113D01*
X20811295Y63027113D02*
X20811295Y63331875D01*
X20811295Y63331875D02*
X20849390Y63408065D01*
X20849390Y63408065D02*
X20887485Y63446160D01*
X20887485Y63446160D02*
X20963676Y63484256D01*
X20963676Y63484256D02*
X21077961Y63484256D01*
X21077961Y63484256D02*
X21154152Y63446160D01*
X21154152Y63446160D02*
X21192247Y63408065D01*
X21192247Y63408065D02*
X21230342Y63331875D01*
X21230342Y63331875D02*
X21230342Y63027113D01*
X21687485Y64360446D02*
X21649390Y64284256D01*
X21649390Y64284256D02*
X21573200Y64208065D01*
X21573200Y64208065D02*
X21458914Y64093779D01*
X21458914Y64093779D02*
X21420819Y64017589D01*
X21420819Y64017589D02*
X21420819Y63941398D01*
X21611295Y63979494D02*
X21573200Y63903303D01*
X21573200Y63903303D02*
X21497009Y63827113D01*
X21497009Y63827113D02*
X21344628Y63789017D01*
X21344628Y63789017D02*
X21077961Y63789017D01*
X21077961Y63789017D02*
X20925580Y63827113D01*
X20925580Y63827113D02*
X20849390Y63903303D01*
X20849390Y63903303D02*
X20811295Y63979494D01*
X20811295Y63979494D02*
X20811295Y64131875D01*
X20811295Y64131875D02*
X20849390Y64208065D01*
X20849390Y64208065D02*
X20925580Y64284256D01*
X20925580Y64284256D02*
X21077961Y64322351D01*
X21077961Y64322351D02*
X21344628Y64322351D01*
X21344628Y64322351D02*
X21497009Y64284256D01*
X21497009Y64284256D02*
X21573200Y64208065D01*
X21573200Y64208065D02*
X21611295Y64131875D01*
X21611295Y64131875D02*
X21611295Y63979494D01*
X27923200Y62354065D02*
X27961295Y62468351D01*
X27961295Y62468351D02*
X27961295Y62658827D01*
X27961295Y62658827D02*
X27923200Y62735018D01*
X27923200Y62735018D02*
X27885104Y62773113D01*
X27885104Y62773113D02*
X27808914Y62811208D01*
X27808914Y62811208D02*
X27732723Y62811208D01*
X27732723Y62811208D02*
X27656533Y62773113D01*
X27656533Y62773113D02*
X27618438Y62735018D01*
X27618438Y62735018D02*
X27580342Y62658827D01*
X27580342Y62658827D02*
X27542247Y62506446D01*
X27542247Y62506446D02*
X27504152Y62430256D01*
X27504152Y62430256D02*
X27466057Y62392161D01*
X27466057Y62392161D02*
X27389866Y62354065D01*
X27389866Y62354065D02*
X27313676Y62354065D01*
X27313676Y62354065D02*
X27237485Y62392161D01*
X27237485Y62392161D02*
X27199390Y62430256D01*
X27199390Y62430256D02*
X27161295Y62506446D01*
X27161295Y62506446D02*
X27161295Y62696923D01*
X27161295Y62696923D02*
X27199390Y62811208D01*
X27961295Y63154066D02*
X27161295Y63154066D01*
X27161295Y63154066D02*
X27161295Y63344542D01*
X27161295Y63344542D02*
X27199390Y63458828D01*
X27199390Y63458828D02*
X27275580Y63535018D01*
X27275580Y63535018D02*
X27351771Y63573113D01*
X27351771Y63573113D02*
X27504152Y63611209D01*
X27504152Y63611209D02*
X27618438Y63611209D01*
X27618438Y63611209D02*
X27770819Y63573113D01*
X27770819Y63573113D02*
X27847009Y63535018D01*
X27847009Y63535018D02*
X27923200Y63458828D01*
X27923200Y63458828D02*
X27961295Y63344542D01*
X27961295Y63344542D02*
X27961295Y63154066D01*
X27732723Y63915970D02*
X27732723Y64296923D01*
X27961295Y63839780D02*
X27161295Y64106447D01*
X27161295Y64106447D02*
X27961295Y64373113D01*
X-1069793Y31093610D02*
X-1145983Y31131705D01*
X-1145983Y31131705D02*
X-1260269Y31131705D01*
X-1260269Y31131705D02*
X-1374555Y31093610D01*
X-1374555Y31093610D02*
X-1450745Y31017420D01*
X-1450745Y31017420D02*
X-1488840Y30941229D01*
X-1488840Y30941229D02*
X-1526936Y30788848D01*
X-1526936Y30788848D02*
X-1526936Y30674562D01*
X-1526936Y30674562D02*
X-1488840Y30522181D01*
X-1488840Y30522181D02*
X-1450745Y30445991D01*
X-1450745Y30445991D02*
X-1374555Y30369800D01*
X-1374555Y30369800D02*
X-1260269Y30331705D01*
X-1260269Y30331705D02*
X-1184078Y30331705D01*
X-1184078Y30331705D02*
X-1069793Y30369800D01*
X-1069793Y30369800D02*
X-1031697Y30407896D01*
X-1031697Y30407896D02*
X-1031697Y30674562D01*
X-1031697Y30674562D02*
X-1184078Y30674562D01*
X-688840Y30865039D02*
X-688840Y30331705D01*
X-688840Y30788848D02*
X-650745Y30826943D01*
X-650745Y30826943D02*
X-574555Y30865039D01*
X-574555Y30865039D02*
X-460269Y30865039D01*
X-460269Y30865039D02*
X-384078Y30826943D01*
X-384078Y30826943D02*
X-345983Y30750753D01*
X-345983Y30750753D02*
X-345983Y30331705D01*
X377827Y30331705D02*
X377827Y31131705D01*
X377827Y30369800D02*
X301636Y30331705D01*
X301636Y30331705D02*
X149255Y30331705D01*
X149255Y30331705D02*
X73065Y30369800D01*
X73065Y30369800D02*
X34970Y30407896D01*
X34970Y30407896D02*
X-3126Y30484086D01*
X-3126Y30484086D02*
X-3126Y30712658D01*
X-3126Y30712658D02*
X34970Y30788848D01*
X34970Y30788848D02*
X73065Y30826943D01*
X73065Y30826943D02*
X149255Y30865039D01*
X149255Y30865039D02*
X301636Y30865039D01*
X301636Y30865039D02*
X377827Y30826943D01*
X22119390Y62684208D02*
X22081295Y62608018D01*
X22081295Y62608018D02*
X22081295Y62493732D01*
X22081295Y62493732D02*
X22119390Y62379446D01*
X22119390Y62379446D02*
X22195580Y62303256D01*
X22195580Y62303256D02*
X22271771Y62265161D01*
X22271771Y62265161D02*
X22424152Y62227065D01*
X22424152Y62227065D02*
X22538438Y62227065D01*
X22538438Y62227065D02*
X22690819Y62265161D01*
X22690819Y62265161D02*
X22767009Y62303256D01*
X22767009Y62303256D02*
X22843200Y62379446D01*
X22843200Y62379446D02*
X22881295Y62493732D01*
X22881295Y62493732D02*
X22881295Y62569923D01*
X22881295Y62569923D02*
X22843200Y62684208D01*
X22843200Y62684208D02*
X22805104Y62722304D01*
X22805104Y62722304D02*
X22538438Y62722304D01*
X22538438Y62722304D02*
X22538438Y62569923D01*
X22881295Y63065161D02*
X22081295Y63065161D01*
X22081295Y63065161D02*
X22881295Y63522304D01*
X22881295Y63522304D02*
X22081295Y63522304D01*
X22881295Y63903256D02*
X22081295Y63903256D01*
X22081295Y63903256D02*
X22081295Y64093732D01*
X22081295Y64093732D02*
X22119390Y64208018D01*
X22119390Y64208018D02*
X22195580Y64284208D01*
X22195580Y64284208D02*
X22271771Y64322303D01*
X22271771Y64322303D02*
X22424152Y64360399D01*
X22424152Y64360399D02*
X22538438Y64360399D01*
X22538438Y64360399D02*
X22690819Y64322303D01*
X22690819Y64322303D02*
X22767009Y64284208D01*
X22767009Y64284208D02*
X22843200Y64208018D01*
X22843200Y64208018D02*
X22881295Y64093732D01*
X22881295Y64093732D02*
X22881295Y63903256D01*
X-996793Y14989181D02*
X-1330126Y15465372D01*
X-1568221Y14989181D02*
X-1568221Y15989181D01*
X-1568221Y15989181D02*
X-1187269Y15989181D01*
X-1187269Y15989181D02*
X-1092031Y15941562D01*
X-1092031Y15941562D02*
X-1044412Y15893943D01*
X-1044412Y15893943D02*
X-996793Y15798705D01*
X-996793Y15798705D02*
X-996793Y15655848D01*
X-996793Y15655848D02*
X-1044412Y15560610D01*
X-1044412Y15560610D02*
X-1092031Y15512991D01*
X-1092031Y15512991D02*
X-1187269Y15465372D01*
X-1187269Y15465372D02*
X-1568221Y15465372D01*
X-663459Y14989181D02*
X-139650Y15655848D01*
X-663459Y15655848D02*
X-139650Y14989181D01*
D12*
X-1828543Y60730857D02*
X-1828543Y61016571D01*
X-1828543Y61016571D02*
X-114258Y61016571D01*
X-114258Y61016571D02*
X-114258Y60730857D01*
X-228543Y60388000D02*
X-1428543Y60102286D01*
X-1428543Y60102286D02*
X-571400Y59873714D01*
X-571400Y59873714D02*
X-1428543Y59645143D01*
X-1428543Y59645143D02*
X-228543Y59359428D01*
X-1428543Y58902285D02*
X-628543Y58902285D01*
X-228543Y58902285D02*
X-285686Y58959428D01*
X-285686Y58959428D02*
X-342829Y58902285D01*
X-342829Y58902285D02*
X-285686Y58845142D01*
X-285686Y58845142D02*
X-228543Y58902285D01*
X-228543Y58902285D02*
X-342829Y58902285D01*
X-1428543Y57645142D02*
X-857115Y58045142D01*
X-1428543Y58330856D02*
X-228543Y58330856D01*
X-228543Y58330856D02*
X-228543Y57873713D01*
X-228543Y57873713D02*
X-285686Y57759428D01*
X-285686Y57759428D02*
X-342829Y57702285D01*
X-342829Y57702285D02*
X-457115Y57645142D01*
X-457115Y57645142D02*
X-628543Y57645142D01*
X-628543Y57645142D02*
X-742829Y57702285D01*
X-742829Y57702285D02*
X-799972Y57759428D01*
X-799972Y57759428D02*
X-857115Y57873713D01*
X-857115Y57873713D02*
X-857115Y58330856D01*
X-1428543Y56959428D02*
X-1371400Y57073713D01*
X-1371400Y57073713D02*
X-1314258Y57130856D01*
X-1314258Y57130856D02*
X-1199972Y57187999D01*
X-1199972Y57187999D02*
X-857115Y57187999D01*
X-857115Y57187999D02*
X-742829Y57130856D01*
X-742829Y57130856D02*
X-685686Y57073713D01*
X-685686Y57073713D02*
X-628543Y56959428D01*
X-628543Y56959428D02*
X-628543Y56787999D01*
X-628543Y56787999D02*
X-685686Y56673713D01*
X-685686Y56673713D02*
X-742829Y56616570D01*
X-742829Y56616570D02*
X-857115Y56559428D01*
X-857115Y56559428D02*
X-1199972Y56559428D01*
X-1199972Y56559428D02*
X-1314258Y56616570D01*
X-1314258Y56616570D02*
X-1371400Y56673713D01*
X-1371400Y56673713D02*
X-1428543Y56787999D01*
X-1428543Y56787999D02*
X-1428543Y56959428D01*
X-1371400Y55530856D02*
X-1428543Y55645142D01*
X-1428543Y55645142D02*
X-1428543Y55873714D01*
X-1428543Y55873714D02*
X-1371400Y55987999D01*
X-1371400Y55987999D02*
X-1314258Y56045142D01*
X-1314258Y56045142D02*
X-1199972Y56102285D01*
X-1199972Y56102285D02*
X-857115Y56102285D01*
X-857115Y56102285D02*
X-742829Y56045142D01*
X-742829Y56045142D02*
X-685686Y55987999D01*
X-685686Y55987999D02*
X-628543Y55873714D01*
X-628543Y55873714D02*
X-628543Y55645142D01*
X-628543Y55645142D02*
X-685686Y55530856D01*
X-228543Y54273714D02*
X-1428543Y53873714D01*
X-1428543Y53873714D02*
X-228543Y53473714D01*
X-228543Y53188000D02*
X-228543Y52388000D01*
X-228543Y52388000D02*
X-1428543Y52902286D01*
X-1828543Y52045143D02*
X-1828543Y51759429D01*
X-1828543Y51759429D02*
X-114258Y51759429D01*
X-114258Y51759429D02*
X-114258Y52045143D01*
D10*
X-1488840Y23981705D02*
X-1488840Y24781705D01*
X-1488840Y24781705D02*
X-1298364Y24781705D01*
X-1298364Y24781705D02*
X-1184078Y24743610D01*
X-1184078Y24743610D02*
X-1107888Y24667420D01*
X-1107888Y24667420D02*
X-1069793Y24591229D01*
X-1069793Y24591229D02*
X-1031697Y24438848D01*
X-1031697Y24438848D02*
X-1031697Y24324562D01*
X-1031697Y24324562D02*
X-1069793Y24172181D01*
X-1069793Y24172181D02*
X-1107888Y24095991D01*
X-1107888Y24095991D02*
X-1184078Y24019800D01*
X-1184078Y24019800D02*
X-1298364Y23981705D01*
X-1298364Y23981705D02*
X-1488840Y23981705D01*
X-688840Y23981705D02*
X-688840Y24781705D01*
X-688840Y24781705D02*
X-422174Y24210277D01*
X-422174Y24210277D02*
X-155507Y24781705D01*
X-155507Y24781705D02*
X-155507Y23981705D01*
X187350Y24705515D02*
X225446Y24743610D01*
X225446Y24743610D02*
X301636Y24781705D01*
X301636Y24781705D02*
X492112Y24781705D01*
X492112Y24781705D02*
X568303Y24743610D01*
X568303Y24743610D02*
X606398Y24705515D01*
X606398Y24705515D02*
X644493Y24629324D01*
X644493Y24629324D02*
X644493Y24553134D01*
X644493Y24553134D02*
X606398Y24438848D01*
X606398Y24438848D02*
X149255Y23981705D01*
X149255Y23981705D02*
X644493Y23981705D01*
X12289533Y61249161D02*
X12289533Y61858684D01*
X12594295Y61553923D02*
X11984771Y61553923D01*
X12060961Y62163446D02*
X12594295Y62353922D01*
X12594295Y62353922D02*
X12060961Y62544399D01*
X11794295Y62772970D02*
X11794295Y63268208D01*
X11794295Y63268208D02*
X12099057Y63001542D01*
X12099057Y63001542D02*
X12099057Y63115827D01*
X12099057Y63115827D02*
X12137152Y63192018D01*
X12137152Y63192018D02*
X12175247Y63230113D01*
X12175247Y63230113D02*
X12251438Y63268208D01*
X12251438Y63268208D02*
X12441914Y63268208D01*
X12441914Y63268208D02*
X12518104Y63230113D01*
X12518104Y63230113D02*
X12556200Y63192018D01*
X12556200Y63192018D02*
X12594295Y63115827D01*
X12594295Y63115827D02*
X12594295Y62887256D01*
X12594295Y62887256D02*
X12556200Y62811065D01*
X12556200Y62811065D02*
X12518104Y62772970D01*
X12518104Y63611066D02*
X12556200Y63649161D01*
X12556200Y63649161D02*
X12594295Y63611066D01*
X12594295Y63611066D02*
X12556200Y63572970D01*
X12556200Y63572970D02*
X12518104Y63611066D01*
X12518104Y63611066D02*
X12594295Y63611066D01*
X11794295Y63915827D02*
X11794295Y64411065D01*
X11794295Y64411065D02*
X12099057Y64144399D01*
X12099057Y64144399D02*
X12099057Y64258684D01*
X12099057Y64258684D02*
X12137152Y64334875D01*
X12137152Y64334875D02*
X12175247Y64372970D01*
X12175247Y64372970D02*
X12251438Y64411065D01*
X12251438Y64411065D02*
X12441914Y64411065D01*
X12441914Y64411065D02*
X12518104Y64372970D01*
X12518104Y64372970D02*
X12556200Y64334875D01*
X12556200Y64334875D02*
X12594295Y64258684D01*
X12594295Y64258684D02*
X12594295Y64030113D01*
X12594295Y64030113D02*
X12556200Y63953922D01*
X12556200Y63953922D02*
X12518104Y63915827D01*
X-1615840Y26826467D02*
X-1006316Y26826467D01*
X-1311078Y26521705D02*
X-1311078Y27131229D01*
X-244412Y27321705D02*
X-625364Y27321705D01*
X-625364Y27321705D02*
X-663460Y26940753D01*
X-663460Y26940753D02*
X-625364Y26978848D01*
X-625364Y26978848D02*
X-549174Y27016943D01*
X-549174Y27016943D02*
X-358698Y27016943D01*
X-358698Y27016943D02*
X-282507Y26978848D01*
X-282507Y26978848D02*
X-244412Y26940753D01*
X-244412Y26940753D02*
X-206317Y26864562D01*
X-206317Y26864562D02*
X-206317Y26674086D01*
X-206317Y26674086D02*
X-244412Y26597896D01*
X-244412Y26597896D02*
X-282507Y26559800D01*
X-282507Y26559800D02*
X-358698Y26521705D01*
X-358698Y26521705D02*
X-549174Y26521705D01*
X-549174Y26521705D02*
X-625364Y26559800D01*
X-625364Y26559800D02*
X-663460Y26597896D01*
X60350Y27055039D02*
X250826Y26521705D01*
X250826Y26521705D02*
X441303Y27055039D01*
X36771220Y59432867D02*
X36009316Y59432867D01*
X34818840Y58766200D02*
X35675982Y60051915D01*
X33961697Y58861439D02*
X34056935Y58813820D01*
X34056935Y58813820D02*
X34199792Y58813820D01*
X34199792Y58813820D02*
X34342649Y58861439D01*
X34342649Y58861439D02*
X34437887Y58956677D01*
X34437887Y58956677D02*
X34485506Y59051915D01*
X34485506Y59051915D02*
X34533125Y59242391D01*
X34533125Y59242391D02*
X34533125Y59385248D01*
X34533125Y59385248D02*
X34485506Y59575724D01*
X34485506Y59575724D02*
X34437887Y59670962D01*
X34437887Y59670962D02*
X34342649Y59766200D01*
X34342649Y59766200D02*
X34199792Y59813820D01*
X34199792Y59813820D02*
X34104554Y59813820D01*
X34104554Y59813820D02*
X33961697Y59766200D01*
X33961697Y59766200D02*
X33914078Y59718581D01*
X33914078Y59718581D02*
X33914078Y59385248D01*
X33914078Y59385248D02*
X34104554Y59385248D01*
X33485506Y59813820D02*
X33485506Y58813820D01*
X33485506Y58813820D02*
X32914078Y59813820D01*
X32914078Y59813820D02*
X32914078Y58813820D01*
X32437887Y59813820D02*
X32437887Y58813820D01*
X32437887Y58813820D02*
X32199792Y58813820D01*
X32199792Y58813820D02*
X32056935Y58861439D01*
X32056935Y58861439D02*
X31961697Y58956677D01*
X31961697Y58956677D02*
X31914078Y59051915D01*
X31914078Y59051915D02*
X31866459Y59242391D01*
X31866459Y59242391D02*
X31866459Y59385248D01*
X31866459Y59385248D02*
X31914078Y59575724D01*
X31914078Y59575724D02*
X31961697Y59670962D01*
X31961697Y59670962D02*
X32056935Y59766200D01*
X32056935Y59766200D02*
X32199792Y59813820D01*
X32199792Y59813820D02*
X32437887Y59813820D01*
X3511779Y55629181D02*
X3511779Y56629181D01*
X3511779Y56629181D02*
X4083207Y55629181D01*
X4083207Y55629181D02*
X4083207Y56629181D01*
X5130826Y55724420D02*
X5083207Y55676800D01*
X5083207Y55676800D02*
X4940350Y55629181D01*
X4940350Y55629181D02*
X4845112Y55629181D01*
X4845112Y55629181D02*
X4702255Y55676800D01*
X4702255Y55676800D02*
X4607017Y55772039D01*
X4607017Y55772039D02*
X4559398Y55867277D01*
X4559398Y55867277D02*
X4511779Y56057753D01*
X4511779Y56057753D02*
X4511779Y56200610D01*
X4511779Y56200610D02*
X4559398Y56391086D01*
X4559398Y56391086D02*
X4607017Y56486324D01*
X4607017Y56486324D02*
X4702255Y56581562D01*
X4702255Y56581562D02*
X4845112Y56629181D01*
X4845112Y56629181D02*
X4940350Y56629181D01*
X4940350Y56629181D02*
X5083207Y56581562D01*
X5083207Y56581562D02*
X5130826Y56533943D01*
X-1488840Y25251705D02*
X-1488840Y26051705D01*
X-1488840Y26051705D02*
X-1298364Y26051705D01*
X-1298364Y26051705D02*
X-1184078Y26013610D01*
X-1184078Y26013610D02*
X-1107888Y25937420D01*
X-1107888Y25937420D02*
X-1069793Y25861229D01*
X-1069793Y25861229D02*
X-1031697Y25708848D01*
X-1031697Y25708848D02*
X-1031697Y25594562D01*
X-1031697Y25594562D02*
X-1069793Y25442181D01*
X-1069793Y25442181D02*
X-1107888Y25365991D01*
X-1107888Y25365991D02*
X-1184078Y25289800D01*
X-1184078Y25289800D02*
X-1298364Y25251705D01*
X-1298364Y25251705D02*
X-1488840Y25251705D01*
X-688840Y25251705D02*
X-688840Y26051705D01*
X-688840Y26051705D02*
X-384078Y26051705D01*
X-384078Y26051705D02*
X-307888Y26013610D01*
X-307888Y26013610D02*
X-269793Y25975515D01*
X-269793Y25975515D02*
X-231697Y25899324D01*
X-231697Y25899324D02*
X-231697Y25785039D01*
X-231697Y25785039D02*
X-269793Y25708848D01*
X-269793Y25708848D02*
X-307888Y25670753D01*
X-307888Y25670753D02*
X-384078Y25632658D01*
X-384078Y25632658D02*
X-688840Y25632658D01*
X73064Y25975515D02*
X111160Y26013610D01*
X111160Y26013610D02*
X187350Y26051705D01*
X187350Y26051705D02*
X377826Y26051705D01*
X377826Y26051705D02*
X454017Y26013610D01*
X454017Y26013610D02*
X492112Y25975515D01*
X492112Y25975515D02*
X530207Y25899324D01*
X530207Y25899324D02*
X530207Y25823134D01*
X530207Y25823134D02*
X492112Y25708848D01*
X492112Y25708848D02*
X34969Y25251705D01*
X34969Y25251705D02*
X530207Y25251705D01*
X26780200Y62354065D02*
X26818295Y62468351D01*
X26818295Y62468351D02*
X26818295Y62658827D01*
X26818295Y62658827D02*
X26780200Y62735018D01*
X26780200Y62735018D02*
X26742104Y62773113D01*
X26742104Y62773113D02*
X26665914Y62811208D01*
X26665914Y62811208D02*
X26589723Y62811208D01*
X26589723Y62811208D02*
X26513533Y62773113D01*
X26513533Y62773113D02*
X26475438Y62735018D01*
X26475438Y62735018D02*
X26437342Y62658827D01*
X26437342Y62658827D02*
X26399247Y62506446D01*
X26399247Y62506446D02*
X26361152Y62430256D01*
X26361152Y62430256D02*
X26323057Y62392161D01*
X26323057Y62392161D02*
X26246866Y62354065D01*
X26246866Y62354065D02*
X26170676Y62354065D01*
X26170676Y62354065D02*
X26094485Y62392161D01*
X26094485Y62392161D02*
X26056390Y62430256D01*
X26056390Y62430256D02*
X26018295Y62506446D01*
X26018295Y62506446D02*
X26018295Y62696923D01*
X26018295Y62696923D02*
X26056390Y62811208D01*
X26742104Y63611209D02*
X26780200Y63573113D01*
X26780200Y63573113D02*
X26818295Y63458828D01*
X26818295Y63458828D02*
X26818295Y63382637D01*
X26818295Y63382637D02*
X26780200Y63268351D01*
X26780200Y63268351D02*
X26704009Y63192161D01*
X26704009Y63192161D02*
X26627819Y63154066D01*
X26627819Y63154066D02*
X26475438Y63115970D01*
X26475438Y63115970D02*
X26361152Y63115970D01*
X26361152Y63115970D02*
X26208771Y63154066D01*
X26208771Y63154066D02*
X26132580Y63192161D01*
X26132580Y63192161D02*
X26056390Y63268351D01*
X26056390Y63268351D02*
X26018295Y63382637D01*
X26018295Y63382637D02*
X26018295Y63458828D01*
X26018295Y63458828D02*
X26056390Y63573113D01*
X26056390Y63573113D02*
X26094485Y63611209D01*
X26818295Y63954066D02*
X26018295Y63954066D01*
X26818295Y64411209D02*
X26361152Y64068351D01*
X26018295Y64411209D02*
X26475438Y63954066D01*
X5258207Y-544819D02*
X4924874Y-68628D01*
X4686779Y-544819D02*
X4686779Y455181D01*
X4686779Y455181D02*
X5067731Y455181D01*
X5067731Y455181D02*
X5162969Y407562D01*
X5162969Y407562D02*
X5210588Y359943D01*
X5210588Y359943D02*
X5258207Y264705D01*
X5258207Y264705D02*
X5258207Y121848D01*
X5258207Y121848D02*
X5210588Y26610D01*
X5210588Y26610D02*
X5162969Y-21009D01*
X5162969Y-21009D02*
X5067731Y-68628D01*
X5067731Y-68628D02*
X4686779Y-68628D01*
X5591541Y-544819D02*
X6115350Y121848D01*
X5591541Y121848D02*
X6115350Y-544819D01*
X7115351Y455181D02*
X7686779Y455181D01*
X7401065Y-544819D02*
X7401065Y455181D01*
X7924875Y-544819D02*
X8448684Y121848D01*
X7924875Y121848D02*
X8448684Y-544819D01*
X10115351Y407562D02*
X10020113Y455181D01*
X10020113Y455181D02*
X9877256Y455181D01*
X9877256Y455181D02*
X9734399Y407562D01*
X9734399Y407562D02*
X9639161Y312324D01*
X9639161Y312324D02*
X9591542Y217086D01*
X9591542Y217086D02*
X9543923Y26610D01*
X9543923Y26610D02*
X9543923Y-116247D01*
X9543923Y-116247D02*
X9591542Y-306723D01*
X9591542Y-306723D02*
X9639161Y-401961D01*
X9639161Y-401961D02*
X9734399Y-497200D01*
X9734399Y-497200D02*
X9877256Y-544819D01*
X9877256Y-544819D02*
X9972494Y-544819D01*
X9972494Y-544819D02*
X10115351Y-497200D01*
X10115351Y-497200D02*
X10162970Y-449580D01*
X10162970Y-449580D02*
X10162970Y-116247D01*
X10162970Y-116247D02*
X9972494Y-116247D01*
X10591542Y121848D02*
X10591542Y-544819D01*
X10591542Y26610D02*
X10639161Y74229D01*
X10639161Y74229D02*
X10734399Y121848D01*
X10734399Y121848D02*
X10877256Y121848D01*
X10877256Y121848D02*
X10972494Y74229D01*
X10972494Y74229D02*
X11020113Y-21009D01*
X11020113Y-21009D02*
X11020113Y-544819D01*
X11924875Y-544819D02*
X11924875Y455181D01*
X11924875Y-497200D02*
X11829637Y-544819D01*
X11829637Y-544819D02*
X11639161Y-544819D01*
X11639161Y-544819D02*
X11543923Y-497200D01*
X11543923Y-497200D02*
X11496304Y-449580D01*
X11496304Y-449580D02*
X11448685Y-354342D01*
X11448685Y-354342D02*
X11448685Y-68628D01*
X11448685Y-68628D02*
X11496304Y26610D01*
X11496304Y26610D02*
X11543923Y74229D01*
X11543923Y74229D02*
X11639161Y121848D01*
X11639161Y121848D02*
X11829637Y121848D01*
X11829637Y121848D02*
X11924875Y74229D01*
X-1003181Y4972256D02*
X-1003181Y5162732D01*
X-1003181Y5162732D02*
X-955562Y5257970D01*
X-955562Y5257970D02*
X-860324Y5353208D01*
X-860324Y5353208D02*
X-669848Y5400827D01*
X-669848Y5400827D02*
X-336515Y5400827D01*
X-336515Y5400827D02*
X-146039Y5353208D01*
X-146039Y5353208D02*
X-50800Y5257970D01*
X-50800Y5257970D02*
X-3181Y5162732D01*
X-3181Y5162732D02*
X-3181Y4972256D01*
X-3181Y4972256D02*
X-50800Y4877018D01*
X-50800Y4877018D02*
X-146039Y4781780D01*
X-146039Y4781780D02*
X-336515Y4734161D01*
X-336515Y4734161D02*
X-669848Y4734161D01*
X-669848Y4734161D02*
X-860324Y4781780D01*
X-860324Y4781780D02*
X-955562Y4877018D01*
X-955562Y4877018D02*
X-1003181Y4972256D01*
X-669848Y5829399D02*
X-3181Y5829399D01*
X-574610Y5829399D02*
X-622229Y5877018D01*
X-622229Y5877018D02*
X-669848Y5972256D01*
X-669848Y5972256D02*
X-669848Y6115113D01*
X-669848Y6115113D02*
X-622229Y6210351D01*
X-622229Y6210351D02*
X-526991Y6257970D01*
X-526991Y6257970D02*
X-3181Y6257970D01*
X-1050800Y7448446D02*
X234914Y6591304D01*
X-1003181Y7972256D02*
X-1003181Y8162732D01*
X-1003181Y8162732D02*
X-955562Y8257970D01*
X-955562Y8257970D02*
X-860324Y8353208D01*
X-860324Y8353208D02*
X-669848Y8400827D01*
X-669848Y8400827D02*
X-336515Y8400827D01*
X-336515Y8400827D02*
X-146039Y8353208D01*
X-146039Y8353208D02*
X-50800Y8257970D01*
X-50800Y8257970D02*
X-3181Y8162732D01*
X-3181Y8162732D02*
X-3181Y7972256D01*
X-3181Y7972256D02*
X-50800Y7877018D01*
X-50800Y7877018D02*
X-146039Y7781780D01*
X-146039Y7781780D02*
X-336515Y7734161D01*
X-336515Y7734161D02*
X-669848Y7734161D01*
X-669848Y7734161D02*
X-860324Y7781780D01*
X-860324Y7781780D02*
X-955562Y7877018D01*
X-955562Y7877018D02*
X-1003181Y7972256D01*
X-669848Y8686542D02*
X-669848Y9067494D01*
X-3181Y8829399D02*
X-860324Y8829399D01*
X-860324Y8829399D02*
X-955562Y8877018D01*
X-955562Y8877018D02*
X-1003181Y8972256D01*
X-1003181Y8972256D02*
X-1003181Y9067494D01*
X-669848Y9257971D02*
X-669848Y9638923D01*
X-3181Y9400828D02*
X-860324Y9400828D01*
X-860324Y9400828D02*
X-955562Y9448447D01*
X-955562Y9448447D02*
X-1003181Y9543685D01*
X-1003181Y9543685D02*
X-1003181Y9638923D01*
X-1196793Y33506610D02*
X-1272983Y33544705D01*
X-1272983Y33544705D02*
X-1387269Y33544705D01*
X-1387269Y33544705D02*
X-1501555Y33506610D01*
X-1501555Y33506610D02*
X-1577745Y33430420D01*
X-1577745Y33430420D02*
X-1615840Y33354229D01*
X-1615840Y33354229D02*
X-1653936Y33201848D01*
X-1653936Y33201848D02*
X-1653936Y33087562D01*
X-1653936Y33087562D02*
X-1615840Y32935181D01*
X-1615840Y32935181D02*
X-1577745Y32858991D01*
X-1577745Y32858991D02*
X-1501555Y32782800D01*
X-1501555Y32782800D02*
X-1387269Y32744705D01*
X-1387269Y32744705D02*
X-1311078Y32744705D01*
X-1311078Y32744705D02*
X-1196793Y32782800D01*
X-1196793Y32782800D02*
X-1158697Y32820896D01*
X-1158697Y32820896D02*
X-1158697Y33087562D01*
X-1158697Y33087562D02*
X-1311078Y33087562D01*
X-815840Y33278039D02*
X-815840Y32744705D01*
X-815840Y33201848D02*
X-777745Y33239943D01*
X-777745Y33239943D02*
X-701555Y33278039D01*
X-701555Y33278039D02*
X-587269Y33278039D01*
X-587269Y33278039D02*
X-511078Y33239943D01*
X-511078Y33239943D02*
X-472983Y33163753D01*
X-472983Y33163753D02*
X-472983Y32744705D01*
X250827Y32744705D02*
X250827Y33544705D01*
X250827Y32782800D02*
X174636Y32744705D01*
X174636Y32744705D02*
X22255Y32744705D01*
X22255Y32744705D02*
X-53935Y32782800D01*
X-53935Y32782800D02*
X-92030Y32820896D01*
X-92030Y32820896D02*
X-130126Y32897086D01*
X-130126Y32897086D02*
X-130126Y33125658D01*
X-130126Y33125658D02*
X-92030Y33201848D01*
X-92030Y33201848D02*
X-53935Y33239943D01*
X-53935Y33239943D02*
X22255Y33278039D01*
X22255Y33278039D02*
X174636Y33278039D01*
X174636Y33278039D02*
X250827Y33239943D01*
X24151295Y61503161D02*
X23351295Y61503161D01*
X23351295Y61503161D02*
X24151295Y61960304D01*
X24151295Y61960304D02*
X23351295Y61960304D01*
X24151295Y62798399D02*
X23770342Y62531732D01*
X24151295Y62341256D02*
X23351295Y62341256D01*
X23351295Y62341256D02*
X23351295Y62646018D01*
X23351295Y62646018D02*
X23389390Y62722208D01*
X23389390Y62722208D02*
X23427485Y62760303D01*
X23427485Y62760303D02*
X23503676Y62798399D01*
X23503676Y62798399D02*
X23617961Y62798399D01*
X23617961Y62798399D02*
X23694152Y62760303D01*
X23694152Y62760303D02*
X23732247Y62722208D01*
X23732247Y62722208D02*
X23770342Y62646018D01*
X23770342Y62646018D02*
X23770342Y62341256D01*
X24113200Y63103160D02*
X24151295Y63217446D01*
X24151295Y63217446D02*
X24151295Y63407922D01*
X24151295Y63407922D02*
X24113200Y63484113D01*
X24113200Y63484113D02*
X24075104Y63522208D01*
X24075104Y63522208D02*
X23998914Y63560303D01*
X23998914Y63560303D02*
X23922723Y63560303D01*
X23922723Y63560303D02*
X23846533Y63522208D01*
X23846533Y63522208D02*
X23808438Y63484113D01*
X23808438Y63484113D02*
X23770342Y63407922D01*
X23770342Y63407922D02*
X23732247Y63255541D01*
X23732247Y63255541D02*
X23694152Y63179351D01*
X23694152Y63179351D02*
X23656057Y63141256D01*
X23656057Y63141256D02*
X23579866Y63103160D01*
X23579866Y63103160D02*
X23503676Y63103160D01*
X23503676Y63103160D02*
X23427485Y63141256D01*
X23427485Y63141256D02*
X23389390Y63179351D01*
X23389390Y63179351D02*
X23351295Y63255541D01*
X23351295Y63255541D02*
X23351295Y63446018D01*
X23351295Y63446018D02*
X23389390Y63560303D01*
X23351295Y63788875D02*
X23351295Y64246018D01*
X24151295Y64017446D02*
X23351295Y64017446D01*
X-1584078Y17513181D02*
X-1012650Y17513181D01*
X-1298364Y16513181D02*
X-1298364Y17513181D01*
X-774554Y16513181D02*
X-250745Y17179848D01*
X-774554Y17179848D02*
X-250745Y16513181D01*
X13060779Y638134D02*
X13822684Y638134D01*
X13441731Y257181D02*
X13441731Y1019086D01*
X3511779Y51905181D02*
X3511779Y52905181D01*
X3511779Y52905181D02*
X4083207Y51905181D01*
X4083207Y51905181D02*
X4083207Y52905181D01*
X5130826Y52000420D02*
X5083207Y51952800D01*
X5083207Y51952800D02*
X4940350Y51905181D01*
X4940350Y51905181D02*
X4845112Y51905181D01*
X4845112Y51905181D02*
X4702255Y51952800D01*
X4702255Y51952800D02*
X4607017Y52048039D01*
X4607017Y52048039D02*
X4559398Y52143277D01*
X4559398Y52143277D02*
X4511779Y52333753D01*
X4511779Y52333753D02*
X4511779Y52476610D01*
X4511779Y52476610D02*
X4559398Y52667086D01*
X4559398Y52667086D02*
X4607017Y52762324D01*
X4607017Y52762324D02*
X4702255Y52857562D01*
X4702255Y52857562D02*
X4845112Y52905181D01*
X4845112Y52905181D02*
X4940350Y52905181D01*
X4940350Y52905181D02*
X5083207Y52857562D01*
X5083207Y52857562D02*
X5130826Y52809943D01*
X10566476Y25329705D02*
X10566476Y24682086D01*
X10566476Y24682086D02*
X10604571Y24605896D01*
X10604571Y24605896D02*
X10642666Y24567800D01*
X10642666Y24567800D02*
X10718857Y24529705D01*
X10718857Y24529705D02*
X10871238Y24529705D01*
X10871238Y24529705D02*
X10947428Y24567800D01*
X10947428Y24567800D02*
X10985523Y24605896D01*
X10985523Y24605896D02*
X11023619Y24682086D01*
X11023619Y24682086D02*
X11023619Y25329705D01*
X11785523Y25329705D02*
X11404571Y25329705D01*
X11404571Y25329705D02*
X11366475Y24948753D01*
X11366475Y24948753D02*
X11404571Y24986848D01*
X11404571Y24986848D02*
X11480761Y25024943D01*
X11480761Y25024943D02*
X11671237Y25024943D01*
X11671237Y25024943D02*
X11747428Y24986848D01*
X11747428Y24986848D02*
X11785523Y24948753D01*
X11785523Y24948753D02*
X11823618Y24872562D01*
X11823618Y24872562D02*
X11823618Y24682086D01*
X11823618Y24682086D02*
X11785523Y24605896D01*
X11785523Y24605896D02*
X11747428Y24567800D01*
X11747428Y24567800D02*
X11671237Y24529705D01*
X11671237Y24529705D02*
X11480761Y24529705D01*
X11480761Y24529705D02*
X11404571Y24567800D01*
X11404571Y24567800D02*
X11366475Y24605896D01*
X7676104Y1746268D02*
X7714200Y1708172D01*
X7714200Y1708172D02*
X7752295Y1593887D01*
X7752295Y1593887D02*
X7752295Y1517696D01*
X7752295Y1517696D02*
X7714200Y1403410D01*
X7714200Y1403410D02*
X7638009Y1327220D01*
X7638009Y1327220D02*
X7561819Y1289125D01*
X7561819Y1289125D02*
X7409438Y1251029D01*
X7409438Y1251029D02*
X7295152Y1251029D01*
X7295152Y1251029D02*
X7142771Y1289125D01*
X7142771Y1289125D02*
X7066580Y1327220D01*
X7066580Y1327220D02*
X6990390Y1403410D01*
X6990390Y1403410D02*
X6952295Y1517696D01*
X6952295Y1517696D02*
X6952295Y1593887D01*
X6952295Y1593887D02*
X6990390Y1708172D01*
X6990390Y1708172D02*
X7028485Y1746268D01*
X6952295Y2012934D02*
X6952295Y2546268D01*
X6952295Y2546268D02*
X7752295Y2203410D01*
X9012285Y20883772D02*
X8983713Y20855200D01*
X8983713Y20855200D02*
X8897999Y20826629D01*
X8897999Y20826629D02*
X8840856Y20826629D01*
X8840856Y20826629D02*
X8755142Y20855200D01*
X8755142Y20855200D02*
X8697999Y20912343D01*
X8697999Y20912343D02*
X8669428Y20969486D01*
X8669428Y20969486D02*
X8640856Y21083772D01*
X8640856Y21083772D02*
X8640856Y21169486D01*
X8640856Y21169486D02*
X8669428Y21283772D01*
X8669428Y21283772D02*
X8697999Y21340915D01*
X8697999Y21340915D02*
X8755142Y21398058D01*
X8755142Y21398058D02*
X8840856Y21426629D01*
X8840856Y21426629D02*
X8897999Y21426629D01*
X8897999Y21426629D02*
X8983713Y21398058D01*
X8983713Y21398058D02*
X9012285Y21369486D01*
X9583713Y20826629D02*
X9240856Y20826629D01*
X9412285Y20826629D02*
X9412285Y21426629D01*
X9412285Y21426629D02*
X9355142Y21340915D01*
X9355142Y21340915D02*
X9297999Y21283772D01*
X9297999Y21283772D02*
X9240856Y21255200D01*
X10098000Y21226629D02*
X10098000Y20826629D01*
X9955142Y21455200D02*
X9812285Y21026629D01*
X9812285Y21026629D02*
X10183714Y21026629D01*
X9359867Y18117905D02*
X9093200Y18498858D01*
X8902724Y18117905D02*
X8902724Y18917905D01*
X8902724Y18917905D02*
X9207486Y18917905D01*
X9207486Y18917905D02*
X9283676Y18879810D01*
X9283676Y18879810D02*
X9321771Y18841715D01*
X9321771Y18841715D02*
X9359867Y18765524D01*
X9359867Y18765524D02*
X9359867Y18651239D01*
X9359867Y18651239D02*
X9321771Y18575048D01*
X9321771Y18575048D02*
X9283676Y18536953D01*
X9283676Y18536953D02*
X9207486Y18498858D01*
X9207486Y18498858D02*
X8902724Y18498858D01*
X9740819Y18117905D02*
X9893200Y18117905D01*
X9893200Y18117905D02*
X9969390Y18156000D01*
X9969390Y18156000D02*
X10007486Y18194096D01*
X10007486Y18194096D02*
X10083676Y18308381D01*
X10083676Y18308381D02*
X10121771Y18460762D01*
X10121771Y18460762D02*
X10121771Y18765524D01*
X10121771Y18765524D02*
X10083676Y18841715D01*
X10083676Y18841715D02*
X10045581Y18879810D01*
X10045581Y18879810D02*
X9969390Y18917905D01*
X9969390Y18917905D02*
X9817009Y18917905D01*
X9817009Y18917905D02*
X9740819Y18879810D01*
X9740819Y18879810D02*
X9702724Y18841715D01*
X9702724Y18841715D02*
X9664628Y18765524D01*
X9664628Y18765524D02*
X9664628Y18575048D01*
X9664628Y18575048D02*
X9702724Y18498858D01*
X9702724Y18498858D02*
X9740819Y18460762D01*
X9740819Y18460762D02*
X9817009Y18422667D01*
X9817009Y18422667D02*
X9969390Y18422667D01*
X9969390Y18422667D02*
X10045581Y18460762D01*
X10045581Y18460762D02*
X10083676Y18498858D01*
X10083676Y18498858D02*
X10121771Y18575048D01*
X-602896Y19932715D02*
X-564800Y19894619D01*
X-564800Y19894619D02*
X-526705Y19780334D01*
X-526705Y19780334D02*
X-526705Y19704143D01*
X-526705Y19704143D02*
X-564800Y19589857D01*
X-564800Y19589857D02*
X-640991Y19513667D01*
X-640991Y19513667D02*
X-717181Y19475572D01*
X-717181Y19475572D02*
X-869562Y19437476D01*
X-869562Y19437476D02*
X-983848Y19437476D01*
X-983848Y19437476D02*
X-1136229Y19475572D01*
X-1136229Y19475572D02*
X-1212420Y19513667D01*
X-1212420Y19513667D02*
X-1288610Y19589857D01*
X-1288610Y19589857D02*
X-1326705Y19704143D01*
X-1326705Y19704143D02*
X-1326705Y19780334D01*
X-1326705Y19780334D02*
X-1288610Y19894619D01*
X-1288610Y19894619D02*
X-1250515Y19932715D01*
X-526705Y20694619D02*
X-526705Y20237476D01*
X-526705Y20466048D02*
X-1326705Y20466048D01*
X-1326705Y20466048D02*
X-1212420Y20389857D01*
X-1212420Y20389857D02*
X-1136229Y20313667D01*
X-1136229Y20313667D02*
X-1098134Y20237476D01*
X-1326705Y21418429D02*
X-1326705Y21037477D01*
X-1326705Y21037477D02*
X-945753Y20999381D01*
X-945753Y20999381D02*
X-983848Y21037477D01*
X-983848Y21037477D02*
X-1021943Y21113667D01*
X-1021943Y21113667D02*
X-1021943Y21304143D01*
X-1021943Y21304143D02*
X-983848Y21380334D01*
X-983848Y21380334D02*
X-945753Y21418429D01*
X-945753Y21418429D02*
X-869562Y21456524D01*
X-869562Y21456524D02*
X-679086Y21456524D01*
X-679086Y21456524D02*
X-602896Y21418429D01*
X-602896Y21418429D02*
X-564800Y21380334D01*
X-564800Y21380334D02*
X-526705Y21304143D01*
X-526705Y21304143D02*
X-526705Y21113667D01*
X-526705Y21113667D02*
X-564800Y21037477D01*
X-564800Y21037477D02*
X-602896Y20999381D01*
X1076533Y1704181D02*
X743200Y2180372D01*
X505105Y1704181D02*
X505105Y2704181D01*
X505105Y2704181D02*
X886057Y2704181D01*
X886057Y2704181D02*
X981295Y2656562D01*
X981295Y2656562D02*
X1028914Y2608943D01*
X1028914Y2608943D02*
X1076533Y2513705D01*
X1076533Y2513705D02*
X1076533Y2370848D01*
X1076533Y2370848D02*
X1028914Y2275610D01*
X1028914Y2275610D02*
X981295Y2227991D01*
X981295Y2227991D02*
X886057Y2180372D01*
X886057Y2180372D02*
X505105Y2180372D01*
X1933676Y2370848D02*
X1933676Y1704181D01*
X1695581Y2751800D02*
X1457486Y2037515D01*
X1457486Y2037515D02*
X2076533Y2037515D01*
X24020895Y47445381D02*
X24020895Y46635858D01*
X24020895Y46635858D02*
X24068514Y46540620D01*
X24068514Y46540620D02*
X24116133Y46493000D01*
X24116133Y46493000D02*
X24211371Y46445381D01*
X24211371Y46445381D02*
X24401847Y46445381D01*
X24401847Y46445381D02*
X24497085Y46493000D01*
X24497085Y46493000D02*
X24544704Y46540620D01*
X24544704Y46540620D02*
X24592323Y46635858D01*
X24592323Y46635858D02*
X24592323Y47445381D01*
X25592323Y46445381D02*
X25020895Y46445381D01*
X25306609Y46445381D02*
X25306609Y47445381D01*
X25306609Y47445381D02*
X25211371Y47302524D01*
X25211371Y47302524D02*
X25116133Y47207286D01*
X25116133Y47207286D02*
X25020895Y47159667D01*
X16038095Y60145181D02*
X16038095Y59335658D01*
X16038095Y59335658D02*
X16085714Y59240420D01*
X16085714Y59240420D02*
X16133333Y59192800D01*
X16133333Y59192800D02*
X16228571Y59145181D01*
X16228571Y59145181D02*
X16419047Y59145181D01*
X16419047Y59145181D02*
X16514285Y59192800D01*
X16514285Y59192800D02*
X16561904Y59240420D01*
X16561904Y59240420D02*
X16609523Y59335658D01*
X16609523Y59335658D02*
X16609523Y60145181D01*
X17514285Y60145181D02*
X17323809Y60145181D01*
X17323809Y60145181D02*
X17228571Y60097562D01*
X17228571Y60097562D02*
X17180952Y60049943D01*
X17180952Y60049943D02*
X17085714Y59907086D01*
X17085714Y59907086D02*
X17038095Y59716610D01*
X17038095Y59716610D02*
X17038095Y59335658D01*
X17038095Y59335658D02*
X17085714Y59240420D01*
X17085714Y59240420D02*
X17133333Y59192800D01*
X17133333Y59192800D02*
X17228571Y59145181D01*
X17228571Y59145181D02*
X17419047Y59145181D01*
X17419047Y59145181D02*
X17514285Y59192800D01*
X17514285Y59192800D02*
X17561904Y59240420D01*
X17561904Y59240420D02*
X17609523Y59335658D01*
X17609523Y59335658D02*
X17609523Y59573753D01*
X17609523Y59573753D02*
X17561904Y59668991D01*
X17561904Y59668991D02*
X17514285Y59716610D01*
X17514285Y59716610D02*
X17419047Y59764229D01*
X17419047Y59764229D02*
X17228571Y59764229D01*
X17228571Y59764229D02*
X17133333Y59716610D01*
X17133333Y59716610D02*
X17085714Y59668991D01*
X17085714Y59668991D02*
X17038095Y59573753D01*
X20979095Y1434181D02*
X20979095Y624658D01*
X20979095Y624658D02*
X21026714Y529420D01*
X21026714Y529420D02*
X21074333Y481800D01*
X21074333Y481800D02*
X21169571Y434181D01*
X21169571Y434181D02*
X21360047Y434181D01*
X21360047Y434181D02*
X21455285Y481800D01*
X21455285Y481800D02*
X21502904Y529420D01*
X21502904Y529420D02*
X21550523Y624658D01*
X21550523Y624658D02*
X21550523Y1434181D01*
X21931476Y1434181D02*
X22598142Y1434181D01*
X22598142Y1434181D02*
X22169571Y434181D01*
X11849114Y18168705D02*
X11582447Y18549658D01*
X11391971Y18168705D02*
X11391971Y18968705D01*
X11391971Y18968705D02*
X11696733Y18968705D01*
X11696733Y18968705D02*
X11772923Y18930610D01*
X11772923Y18930610D02*
X11811018Y18892515D01*
X11811018Y18892515D02*
X11849114Y18816324D01*
X11849114Y18816324D02*
X11849114Y18702039D01*
X11849114Y18702039D02*
X11811018Y18625848D01*
X11811018Y18625848D02*
X11772923Y18587753D01*
X11772923Y18587753D02*
X11696733Y18549658D01*
X11696733Y18549658D02*
X11391971Y18549658D01*
X12611018Y18168705D02*
X12153875Y18168705D01*
X12382447Y18168705D02*
X12382447Y18968705D01*
X12382447Y18968705D02*
X12306256Y18854420D01*
X12306256Y18854420D02*
X12230066Y18778229D01*
X12230066Y18778229D02*
X12153875Y18740134D01*
X13106257Y18968705D02*
X13182447Y18968705D01*
X13182447Y18968705D02*
X13258638Y18930610D01*
X13258638Y18930610D02*
X13296733Y18892515D01*
X13296733Y18892515D02*
X13334828Y18816324D01*
X13334828Y18816324D02*
X13372923Y18663943D01*
X13372923Y18663943D02*
X13372923Y18473467D01*
X13372923Y18473467D02*
X13334828Y18321086D01*
X13334828Y18321086D02*
X13296733Y18244896D01*
X13296733Y18244896D02*
X13258638Y18206800D01*
X13258638Y18206800D02*
X13182447Y18168705D01*
X13182447Y18168705D02*
X13106257Y18168705D01*
X13106257Y18168705D02*
X13030066Y18206800D01*
X13030066Y18206800D02*
X12991971Y18244896D01*
X12991971Y18244896D02*
X12953876Y18321086D01*
X12953876Y18321086D02*
X12915780Y18473467D01*
X12915780Y18473467D02*
X12915780Y18663943D01*
X12915780Y18663943D02*
X12953876Y18816324D01*
X12953876Y18816324D02*
X12991971Y18892515D01*
X12991971Y18892515D02*
X13030066Y18930610D01*
X13030066Y18930610D02*
X13106257Y18968705D01*
X42085714Y37337705D02*
X41819047Y37718658D01*
X41628571Y37337705D02*
X41628571Y38137705D01*
X41628571Y38137705D02*
X41933333Y38137705D01*
X41933333Y38137705D02*
X42009523Y38099610D01*
X42009523Y38099610D02*
X42047618Y38061515D01*
X42047618Y38061515D02*
X42085714Y37985324D01*
X42085714Y37985324D02*
X42085714Y37871039D01*
X42085714Y37871039D02*
X42047618Y37794848D01*
X42047618Y37794848D02*
X42009523Y37756753D01*
X42009523Y37756753D02*
X41933333Y37718658D01*
X41933333Y37718658D02*
X41628571Y37718658D01*
X42847618Y37337705D02*
X42390475Y37337705D01*
X42619047Y37337705D02*
X42619047Y38137705D01*
X42619047Y38137705D02*
X42542856Y38023420D01*
X42542856Y38023420D02*
X42466666Y37947229D01*
X42466666Y37947229D02*
X42390475Y37909134D01*
X43152380Y38061515D02*
X43190476Y38099610D01*
X43190476Y38099610D02*
X43266666Y38137705D01*
X43266666Y38137705D02*
X43457142Y38137705D01*
X43457142Y38137705D02*
X43533333Y38099610D01*
X43533333Y38099610D02*
X43571428Y38061515D01*
X43571428Y38061515D02*
X43609523Y37985324D01*
X43609523Y37985324D02*
X43609523Y37909134D01*
X43609523Y37909134D02*
X43571428Y37794848D01*
X43571428Y37794848D02*
X43114285Y37337705D01*
X43114285Y37337705D02*
X43609523Y37337705D01*
X33648667Y20973705D02*
X33382000Y21354658D01*
X33191524Y20973705D02*
X33191524Y21773705D01*
X33191524Y21773705D02*
X33496286Y21773705D01*
X33496286Y21773705D02*
X33572476Y21735610D01*
X33572476Y21735610D02*
X33610571Y21697515D01*
X33610571Y21697515D02*
X33648667Y21621324D01*
X33648667Y21621324D02*
X33648667Y21507039D01*
X33648667Y21507039D02*
X33610571Y21430848D01*
X33610571Y21430848D02*
X33572476Y21392753D01*
X33572476Y21392753D02*
X33496286Y21354658D01*
X33496286Y21354658D02*
X33191524Y21354658D01*
X33915333Y21773705D02*
X34410571Y21773705D01*
X34410571Y21773705D02*
X34143905Y21468943D01*
X34143905Y21468943D02*
X34258190Y21468943D01*
X34258190Y21468943D02*
X34334381Y21430848D01*
X34334381Y21430848D02*
X34372476Y21392753D01*
X34372476Y21392753D02*
X34410571Y21316562D01*
X34410571Y21316562D02*
X34410571Y21126086D01*
X34410571Y21126086D02*
X34372476Y21049896D01*
X34372476Y21049896D02*
X34334381Y21011800D01*
X34334381Y21011800D02*
X34258190Y20973705D01*
X34258190Y20973705D02*
X34029619Y20973705D01*
X34029619Y20973705D02*
X33953428Y21011800D01*
X33953428Y21011800D02*
X33915333Y21049896D01*
X22307904Y13277915D02*
X22346000Y13239819D01*
X22346000Y13239819D02*
X22384095Y13125534D01*
X22384095Y13125534D02*
X22384095Y13049343D01*
X22384095Y13049343D02*
X22346000Y12935057D01*
X22346000Y12935057D02*
X22269809Y12858867D01*
X22269809Y12858867D02*
X22193619Y12820772D01*
X22193619Y12820772D02*
X22041238Y12782676D01*
X22041238Y12782676D02*
X21926952Y12782676D01*
X21926952Y12782676D02*
X21774571Y12820772D01*
X21774571Y12820772D02*
X21698380Y12858867D01*
X21698380Y12858867D02*
X21622190Y12935057D01*
X21622190Y12935057D02*
X21584095Y13049343D01*
X21584095Y13049343D02*
X21584095Y13125534D01*
X21584095Y13125534D02*
X21622190Y13239819D01*
X21622190Y13239819D02*
X21660285Y13277915D01*
X22384095Y14039819D02*
X22384095Y13582676D01*
X22384095Y13811248D02*
X21584095Y13811248D01*
X21584095Y13811248D02*
X21698380Y13735057D01*
X21698380Y13735057D02*
X21774571Y13658867D01*
X21774571Y13658867D02*
X21812666Y13582676D01*
X21584095Y14535058D02*
X21584095Y14611248D01*
X21584095Y14611248D02*
X21622190Y14687439D01*
X21622190Y14687439D02*
X21660285Y14725534D01*
X21660285Y14725534D02*
X21736476Y14763629D01*
X21736476Y14763629D02*
X21888857Y14801724D01*
X21888857Y14801724D02*
X22079333Y14801724D01*
X22079333Y14801724D02*
X22231714Y14763629D01*
X22231714Y14763629D02*
X22307904Y14725534D01*
X22307904Y14725534D02*
X22346000Y14687439D01*
X22346000Y14687439D02*
X22384095Y14611248D01*
X22384095Y14611248D02*
X22384095Y14535058D01*
X22384095Y14535058D02*
X22346000Y14458867D01*
X22346000Y14458867D02*
X22307904Y14420772D01*
X22307904Y14420772D02*
X22231714Y14382677D01*
X22231714Y14382677D02*
X22079333Y14344581D01*
X22079333Y14344581D02*
X21888857Y14344581D01*
X21888857Y14344581D02*
X21736476Y14382677D01*
X21736476Y14382677D02*
X21660285Y14420772D01*
X21660285Y14420772D02*
X21622190Y14458867D01*
X21622190Y14458867D02*
X21584095Y14535058D01*
X27940095Y27469181D02*
X27940095Y26659658D01*
X27940095Y26659658D02*
X27987714Y26564420D01*
X27987714Y26564420D02*
X28035333Y26516800D01*
X28035333Y26516800D02*
X28130571Y26469181D01*
X28130571Y26469181D02*
X28321047Y26469181D01*
X28321047Y26469181D02*
X28416285Y26516800D01*
X28416285Y26516800D02*
X28463904Y26564420D01*
X28463904Y26564420D02*
X28511523Y26659658D01*
X28511523Y26659658D02*
X28511523Y27469181D01*
X28892476Y27469181D02*
X29511523Y27469181D01*
X29511523Y27469181D02*
X29178190Y27088229D01*
X29178190Y27088229D02*
X29321047Y27088229D01*
X29321047Y27088229D02*
X29416285Y27040610D01*
X29416285Y27040610D02*
X29463904Y26992991D01*
X29463904Y26992991D02*
X29511523Y26897753D01*
X29511523Y26897753D02*
X29511523Y26659658D01*
X29511523Y26659658D02*
X29463904Y26564420D01*
X29463904Y26564420D02*
X29416285Y26516800D01*
X29416285Y26516800D02*
X29321047Y26469181D01*
X29321047Y26469181D02*
X29035333Y26469181D01*
X29035333Y26469181D02*
X28940095Y26516800D01*
X28940095Y26516800D02*
X28892476Y26564420D01*
X24406119Y31472434D02*
X23929928Y31139101D01*
X24406119Y30901006D02*
X23406119Y30901006D01*
X23406119Y30901006D02*
X23406119Y31281958D01*
X23406119Y31281958D02*
X23453738Y31377196D01*
X23453738Y31377196D02*
X23501357Y31424815D01*
X23501357Y31424815D02*
X23596595Y31472434D01*
X23596595Y31472434D02*
X23739452Y31472434D01*
X23739452Y31472434D02*
X23834690Y31424815D01*
X23834690Y31424815D02*
X23882309Y31377196D01*
X23882309Y31377196D02*
X23929928Y31281958D01*
X23929928Y31281958D02*
X23929928Y30901006D01*
X23501357Y31853387D02*
X23453738Y31901006D01*
X23453738Y31901006D02*
X23406119Y31996244D01*
X23406119Y31996244D02*
X23406119Y32234339D01*
X23406119Y32234339D02*
X23453738Y32329577D01*
X23453738Y32329577D02*
X23501357Y32377196D01*
X23501357Y32377196D02*
X23596595Y32424815D01*
X23596595Y32424815D02*
X23691833Y32424815D01*
X23691833Y32424815D02*
X23834690Y32377196D01*
X23834690Y32377196D02*
X24406119Y31805768D01*
X24406119Y31805768D02*
X24406119Y32424815D01*
X20098104Y23920468D02*
X20136200Y23882372D01*
X20136200Y23882372D02*
X20174295Y23768087D01*
X20174295Y23768087D02*
X20174295Y23691896D01*
X20174295Y23691896D02*
X20136200Y23577610D01*
X20136200Y23577610D02*
X20060009Y23501420D01*
X20060009Y23501420D02*
X19983819Y23463325D01*
X19983819Y23463325D02*
X19831438Y23425229D01*
X19831438Y23425229D02*
X19717152Y23425229D01*
X19717152Y23425229D02*
X19564771Y23463325D01*
X19564771Y23463325D02*
X19488580Y23501420D01*
X19488580Y23501420D02*
X19412390Y23577610D01*
X19412390Y23577610D02*
X19374295Y23691896D01*
X19374295Y23691896D02*
X19374295Y23768087D01*
X19374295Y23768087D02*
X19412390Y23882372D01*
X19412390Y23882372D02*
X19450485Y23920468D01*
X19374295Y24644277D02*
X19374295Y24263325D01*
X19374295Y24263325D02*
X19755247Y24225229D01*
X19755247Y24225229D02*
X19717152Y24263325D01*
X19717152Y24263325D02*
X19679057Y24339515D01*
X19679057Y24339515D02*
X19679057Y24529991D01*
X19679057Y24529991D02*
X19717152Y24606182D01*
X19717152Y24606182D02*
X19755247Y24644277D01*
X19755247Y24644277D02*
X19831438Y24682372D01*
X19831438Y24682372D02*
X20021914Y24682372D01*
X20021914Y24682372D02*
X20098104Y24644277D01*
X20098104Y24644277D02*
X20136200Y24606182D01*
X20136200Y24606182D02*
X20174295Y24529991D01*
X20174295Y24529991D02*
X20174295Y24339515D01*
X20174295Y24339515D02*
X20136200Y24263325D01*
X20136200Y24263325D02*
X20098104Y24225229D01*
X33648667Y22497705D02*
X33382000Y22878658D01*
X33191524Y22497705D02*
X33191524Y23297705D01*
X33191524Y23297705D02*
X33496286Y23297705D01*
X33496286Y23297705D02*
X33572476Y23259610D01*
X33572476Y23259610D02*
X33610571Y23221515D01*
X33610571Y23221515D02*
X33648667Y23145324D01*
X33648667Y23145324D02*
X33648667Y23031039D01*
X33648667Y23031039D02*
X33610571Y22954848D01*
X33610571Y22954848D02*
X33572476Y22916753D01*
X33572476Y22916753D02*
X33496286Y22878658D01*
X33496286Y22878658D02*
X33191524Y22878658D01*
X34410571Y22497705D02*
X33953428Y22497705D01*
X34182000Y22497705D02*
X34182000Y23297705D01*
X34182000Y23297705D02*
X34105809Y23183420D01*
X34105809Y23183420D02*
X34029619Y23107229D01*
X34029619Y23107229D02*
X33953428Y23069134D01*
X33615333Y14785181D02*
X33139143Y14785181D01*
X33139143Y14785181D02*
X33139143Y15785181D01*
X34472476Y14785181D02*
X33901048Y14785181D01*
X34186762Y14785181D02*
X34186762Y15785181D01*
X34186762Y15785181D02*
X34091524Y15642324D01*
X34091524Y15642324D02*
X33996286Y15547086D01*
X33996286Y15547086D02*
X33901048Y15499467D01*
X20008867Y17646296D02*
X19970771Y17608200D01*
X19970771Y17608200D02*
X19856486Y17570105D01*
X19856486Y17570105D02*
X19780295Y17570105D01*
X19780295Y17570105D02*
X19666009Y17608200D01*
X19666009Y17608200D02*
X19589819Y17684391D01*
X19589819Y17684391D02*
X19551724Y17760581D01*
X19551724Y17760581D02*
X19513628Y17912962D01*
X19513628Y17912962D02*
X19513628Y18027248D01*
X19513628Y18027248D02*
X19551724Y18179629D01*
X19551724Y18179629D02*
X19589819Y18255820D01*
X19589819Y18255820D02*
X19666009Y18332010D01*
X19666009Y18332010D02*
X19780295Y18370105D01*
X19780295Y18370105D02*
X19856486Y18370105D01*
X19856486Y18370105D02*
X19970771Y18332010D01*
X19970771Y18332010D02*
X20008867Y18293915D01*
X20694581Y18103439D02*
X20694581Y17570105D01*
X20504105Y18408200D02*
X20313628Y17836772D01*
X20313628Y17836772D02*
X20808867Y17836772D01*
X26358904Y12129715D02*
X26397000Y12091619D01*
X26397000Y12091619D02*
X26435095Y11977334D01*
X26435095Y11977334D02*
X26435095Y11901143D01*
X26435095Y11901143D02*
X26397000Y11786857D01*
X26397000Y11786857D02*
X26320809Y11710667D01*
X26320809Y11710667D02*
X26244619Y11672572D01*
X26244619Y11672572D02*
X26092238Y11634476D01*
X26092238Y11634476D02*
X25977952Y11634476D01*
X25977952Y11634476D02*
X25825571Y11672572D01*
X25825571Y11672572D02*
X25749380Y11710667D01*
X25749380Y11710667D02*
X25673190Y11786857D01*
X25673190Y11786857D02*
X25635095Y11901143D01*
X25635095Y11901143D02*
X25635095Y11977334D01*
X25635095Y11977334D02*
X25673190Y12091619D01*
X25673190Y12091619D02*
X25711285Y12129715D01*
X26435095Y12891619D02*
X26435095Y12434476D01*
X26435095Y12663048D02*
X25635095Y12663048D01*
X25635095Y12663048D02*
X25749380Y12586857D01*
X25749380Y12586857D02*
X25825571Y12510667D01*
X25825571Y12510667D02*
X25863666Y12434476D01*
X26435095Y13653524D02*
X26435095Y13196381D01*
X26435095Y13424953D02*
X25635095Y13424953D01*
X25635095Y13424953D02*
X25749380Y13348762D01*
X25749380Y13348762D02*
X25825571Y13272572D01*
X25825571Y13272572D02*
X25863666Y13196381D01*
X23227267Y13059096D02*
X23189171Y13021000D01*
X23189171Y13021000D02*
X23074886Y12982905D01*
X23074886Y12982905D02*
X22998695Y12982905D01*
X22998695Y12982905D02*
X22884409Y13021000D01*
X22884409Y13021000D02*
X22808219Y13097191D01*
X22808219Y13097191D02*
X22770124Y13173381D01*
X22770124Y13173381D02*
X22732028Y13325762D01*
X22732028Y13325762D02*
X22732028Y13440048D01*
X22732028Y13440048D02*
X22770124Y13592429D01*
X22770124Y13592429D02*
X22808219Y13668620D01*
X22808219Y13668620D02*
X22884409Y13744810D01*
X22884409Y13744810D02*
X22998695Y13782905D01*
X22998695Y13782905D02*
X23074886Y13782905D01*
X23074886Y13782905D02*
X23189171Y13744810D01*
X23189171Y13744810D02*
X23227267Y13706715D01*
X23608219Y12982905D02*
X23760600Y12982905D01*
X23760600Y12982905D02*
X23836790Y13021000D01*
X23836790Y13021000D02*
X23874886Y13059096D01*
X23874886Y13059096D02*
X23951076Y13173381D01*
X23951076Y13173381D02*
X23989171Y13325762D01*
X23989171Y13325762D02*
X23989171Y13630524D01*
X23989171Y13630524D02*
X23951076Y13706715D01*
X23951076Y13706715D02*
X23912981Y13744810D01*
X23912981Y13744810D02*
X23836790Y13782905D01*
X23836790Y13782905D02*
X23684409Y13782905D01*
X23684409Y13782905D02*
X23608219Y13744810D01*
X23608219Y13744810D02*
X23570124Y13706715D01*
X23570124Y13706715D02*
X23532028Y13630524D01*
X23532028Y13630524D02*
X23532028Y13440048D01*
X23532028Y13440048D02*
X23570124Y13363858D01*
X23570124Y13363858D02*
X23608219Y13325762D01*
X23608219Y13325762D02*
X23684409Y13287667D01*
X23684409Y13287667D02*
X23836790Y13287667D01*
X23836790Y13287667D02*
X23912981Y13325762D01*
X23912981Y13325762D02*
X23951076Y13363858D01*
X23951076Y13363858D02*
X23989171Y13440048D01*
X25993628Y29364001D02*
X26022200Y29335429D01*
X26022200Y29335429D02*
X26050771Y29249715D01*
X26050771Y29249715D02*
X26050771Y29192572D01*
X26050771Y29192572D02*
X26022200Y29106858D01*
X26022200Y29106858D02*
X25965057Y29049715D01*
X25965057Y29049715D02*
X25907914Y29021144D01*
X25907914Y29021144D02*
X25793628Y28992572D01*
X25793628Y28992572D02*
X25707914Y28992572D01*
X25707914Y28992572D02*
X25593628Y29021144D01*
X25593628Y29021144D02*
X25536485Y29049715D01*
X25536485Y29049715D02*
X25479342Y29106858D01*
X25479342Y29106858D02*
X25450771Y29192572D01*
X25450771Y29192572D02*
X25450771Y29249715D01*
X25450771Y29249715D02*
X25479342Y29335429D01*
X25479342Y29335429D02*
X25507914Y29364001D01*
X26050771Y29935429D02*
X26050771Y29592572D01*
X26050771Y29764001D02*
X25450771Y29764001D01*
X25450771Y29764001D02*
X25536485Y29706858D01*
X25536485Y29706858D02*
X25593628Y29649715D01*
X25593628Y29649715D02*
X25622200Y29592572D01*
X21380467Y29812896D02*
X21342371Y29774800D01*
X21342371Y29774800D02*
X21228086Y29736705D01*
X21228086Y29736705D02*
X21151895Y29736705D01*
X21151895Y29736705D02*
X21037609Y29774800D01*
X21037609Y29774800D02*
X20961419Y29850991D01*
X20961419Y29850991D02*
X20923324Y29927181D01*
X20923324Y29927181D02*
X20885228Y30079562D01*
X20885228Y30079562D02*
X20885228Y30193848D01*
X20885228Y30193848D02*
X20923324Y30346229D01*
X20923324Y30346229D02*
X20961419Y30422420D01*
X20961419Y30422420D02*
X21037609Y30498610D01*
X21037609Y30498610D02*
X21151895Y30536705D01*
X21151895Y30536705D02*
X21228086Y30536705D01*
X21228086Y30536705D02*
X21342371Y30498610D01*
X21342371Y30498610D02*
X21380467Y30460515D01*
X22066181Y30536705D02*
X21913800Y30536705D01*
X21913800Y30536705D02*
X21837609Y30498610D01*
X21837609Y30498610D02*
X21799514Y30460515D01*
X21799514Y30460515D02*
X21723324Y30346229D01*
X21723324Y30346229D02*
X21685228Y30193848D01*
X21685228Y30193848D02*
X21685228Y29889086D01*
X21685228Y29889086D02*
X21723324Y29812896D01*
X21723324Y29812896D02*
X21761419Y29774800D01*
X21761419Y29774800D02*
X21837609Y29736705D01*
X21837609Y29736705D02*
X21989990Y29736705D01*
X21989990Y29736705D02*
X22066181Y29774800D01*
X22066181Y29774800D02*
X22104276Y29812896D01*
X22104276Y29812896D02*
X22142371Y29889086D01*
X22142371Y29889086D02*
X22142371Y30079562D01*
X22142371Y30079562D02*
X22104276Y30155753D01*
X22104276Y30155753D02*
X22066181Y30193848D01*
X22066181Y30193848D02*
X21989990Y30231943D01*
X21989990Y30231943D02*
X21837609Y30231943D01*
X21837609Y30231943D02*
X21761419Y30193848D01*
X21761419Y30193848D02*
X21723324Y30155753D01*
X21723324Y30155753D02*
X21685228Y30079562D01*
X22752067Y17925705D02*
X22485400Y18306658D01*
X22294924Y17925705D02*
X22294924Y18725705D01*
X22294924Y18725705D02*
X22599686Y18725705D01*
X22599686Y18725705D02*
X22675876Y18687610D01*
X22675876Y18687610D02*
X22713971Y18649515D01*
X22713971Y18649515D02*
X22752067Y18573324D01*
X22752067Y18573324D02*
X22752067Y18459039D01*
X22752067Y18459039D02*
X22713971Y18382848D01*
X22713971Y18382848D02*
X22675876Y18344753D01*
X22675876Y18344753D02*
X22599686Y18306658D01*
X22599686Y18306658D02*
X22294924Y18306658D01*
X23475876Y18725705D02*
X23094924Y18725705D01*
X23094924Y18725705D02*
X23056828Y18344753D01*
X23056828Y18344753D02*
X23094924Y18382848D01*
X23094924Y18382848D02*
X23171114Y18420943D01*
X23171114Y18420943D02*
X23361590Y18420943D01*
X23361590Y18420943D02*
X23437781Y18382848D01*
X23437781Y18382848D02*
X23475876Y18344753D01*
X23475876Y18344753D02*
X23513971Y18268562D01*
X23513971Y18268562D02*
X23513971Y18078086D01*
X23513971Y18078086D02*
X23475876Y18001896D01*
X23475876Y18001896D02*
X23437781Y17963800D01*
X23437781Y17963800D02*
X23361590Y17925705D01*
X23361590Y17925705D02*
X23171114Y17925705D01*
X23171114Y17925705D02*
X23094924Y17963800D01*
X23094924Y17963800D02*
X23056828Y18001896D01*
X21448733Y7565220D02*
X21401114Y7517600D01*
X21401114Y7517600D02*
X21258257Y7469981D01*
X21258257Y7469981D02*
X21163019Y7469981D01*
X21163019Y7469981D02*
X21020162Y7517600D01*
X21020162Y7517600D02*
X20924924Y7612839D01*
X20924924Y7612839D02*
X20877305Y7708077D01*
X20877305Y7708077D02*
X20829686Y7898553D01*
X20829686Y7898553D02*
X20829686Y8041410D01*
X20829686Y8041410D02*
X20877305Y8231886D01*
X20877305Y8231886D02*
X20924924Y8327124D01*
X20924924Y8327124D02*
X21020162Y8422362D01*
X21020162Y8422362D02*
X21163019Y8469981D01*
X21163019Y8469981D02*
X21258257Y8469981D01*
X21258257Y8469981D02*
X21401114Y8422362D01*
X21401114Y8422362D02*
X21448733Y8374743D01*
X21782067Y8469981D02*
X22401114Y8469981D01*
X22401114Y8469981D02*
X22067781Y8089029D01*
X22067781Y8089029D02*
X22210638Y8089029D01*
X22210638Y8089029D02*
X22305876Y8041410D01*
X22305876Y8041410D02*
X22353495Y7993791D01*
X22353495Y7993791D02*
X22401114Y7898553D01*
X22401114Y7898553D02*
X22401114Y7660458D01*
X22401114Y7660458D02*
X22353495Y7565220D01*
X22353495Y7565220D02*
X22305876Y7517600D01*
X22305876Y7517600D02*
X22210638Y7469981D01*
X22210638Y7469981D02*
X21924924Y7469981D01*
X21924924Y7469981D02*
X21829686Y7517600D01*
X21829686Y7517600D02*
X21782067Y7565220D01*
X38049142Y43811181D02*
X37715809Y44287372D01*
X37477714Y43811181D02*
X37477714Y44811181D01*
X37477714Y44811181D02*
X37858666Y44811181D01*
X37858666Y44811181D02*
X37953904Y44763562D01*
X37953904Y44763562D02*
X38001523Y44715943D01*
X38001523Y44715943D02*
X38049142Y44620705D01*
X38049142Y44620705D02*
X38049142Y44477848D01*
X38049142Y44477848D02*
X38001523Y44382610D01*
X38001523Y44382610D02*
X37953904Y44334991D01*
X37953904Y44334991D02*
X37858666Y44287372D01*
X37858666Y44287372D02*
X37477714Y44287372D01*
X39001523Y43811181D02*
X38430095Y43811181D01*
X38715809Y43811181D02*
X38715809Y44811181D01*
X38715809Y44811181D02*
X38620571Y44668324D01*
X38620571Y44668324D02*
X38525333Y44573086D01*
X38525333Y44573086D02*
X38430095Y44525467D01*
X39953904Y43811181D02*
X39382476Y43811181D01*
X39668190Y43811181D02*
X39668190Y44811181D01*
X39668190Y44811181D02*
X39572952Y44668324D01*
X39572952Y44668324D02*
X39477714Y44573086D01*
X39477714Y44573086D02*
X39382476Y44525467D01*
X37259580Y37257143D02*
X37307200Y37209524D01*
X37307200Y37209524D02*
X37354819Y37066667D01*
X37354819Y37066667D02*
X37354819Y36971429D01*
X37354819Y36971429D02*
X37307200Y36828572D01*
X37307200Y36828572D02*
X37211961Y36733334D01*
X37211961Y36733334D02*
X37116723Y36685715D01*
X37116723Y36685715D02*
X36926247Y36638096D01*
X36926247Y36638096D02*
X36783390Y36638096D01*
X36783390Y36638096D02*
X36592914Y36685715D01*
X36592914Y36685715D02*
X36497676Y36733334D01*
X36497676Y36733334D02*
X36402438Y36828572D01*
X36402438Y36828572D02*
X36354819Y36971429D01*
X36354819Y36971429D02*
X36354819Y37066667D01*
X36354819Y37066667D02*
X36402438Y37209524D01*
X36402438Y37209524D02*
X36450057Y37257143D01*
X37354819Y38209524D02*
X37354819Y37638096D01*
X37354819Y37923810D02*
X36354819Y37923810D01*
X36354819Y37923810D02*
X36497676Y37828572D01*
X36497676Y37828572D02*
X36592914Y37733334D01*
X36592914Y37733334D02*
X36640533Y37638096D01*
X36783390Y38780953D02*
X36735771Y38685715D01*
X36735771Y38685715D02*
X36688152Y38638096D01*
X36688152Y38638096D02*
X36592914Y38590477D01*
X36592914Y38590477D02*
X36545295Y38590477D01*
X36545295Y38590477D02*
X36450057Y38638096D01*
X36450057Y38638096D02*
X36402438Y38685715D01*
X36402438Y38685715D02*
X36354819Y38780953D01*
X36354819Y38780953D02*
X36354819Y38971429D01*
X36354819Y38971429D02*
X36402438Y39066667D01*
X36402438Y39066667D02*
X36450057Y39114286D01*
X36450057Y39114286D02*
X36545295Y39161905D01*
X36545295Y39161905D02*
X36592914Y39161905D01*
X36592914Y39161905D02*
X36688152Y39114286D01*
X36688152Y39114286D02*
X36735771Y39066667D01*
X36735771Y39066667D02*
X36783390Y38971429D01*
X36783390Y38971429D02*
X36783390Y38780953D01*
X36783390Y38780953D02*
X36831009Y38685715D01*
X36831009Y38685715D02*
X36878628Y38638096D01*
X36878628Y38638096D02*
X36973866Y38590477D01*
X36973866Y38590477D02*
X37164342Y38590477D01*
X37164342Y38590477D02*
X37259580Y38638096D01*
X37259580Y38638096D02*
X37307200Y38685715D01*
X37307200Y38685715D02*
X37354819Y38780953D01*
X37354819Y38780953D02*
X37354819Y38971429D01*
X37354819Y38971429D02*
X37307200Y39066667D01*
X37307200Y39066667D02*
X37259580Y39114286D01*
X37259580Y39114286D02*
X37164342Y39161905D01*
X37164342Y39161905D02*
X36973866Y39161905D01*
X36973866Y39161905D02*
X36878628Y39114286D01*
X36878628Y39114286D02*
X36831009Y39066667D01*
X36831009Y39066667D02*
X36783390Y38971429D01*
X38211333Y47043181D02*
X37878000Y47519372D01*
X37639905Y47043181D02*
X37639905Y48043181D01*
X37639905Y48043181D02*
X38020857Y48043181D01*
X38020857Y48043181D02*
X38116095Y47995562D01*
X38116095Y47995562D02*
X38163714Y47947943D01*
X38163714Y47947943D02*
X38211333Y47852705D01*
X38211333Y47852705D02*
X38211333Y47709848D01*
X38211333Y47709848D02*
X38163714Y47614610D01*
X38163714Y47614610D02*
X38116095Y47566991D01*
X38116095Y47566991D02*
X38020857Y47519372D01*
X38020857Y47519372D02*
X37639905Y47519372D01*
X39068476Y48043181D02*
X38878000Y48043181D01*
X38878000Y48043181D02*
X38782762Y47995562D01*
X38782762Y47995562D02*
X38735143Y47947943D01*
X38735143Y47947943D02*
X38639905Y47805086D01*
X38639905Y47805086D02*
X38592286Y47614610D01*
X38592286Y47614610D02*
X38592286Y47233658D01*
X38592286Y47233658D02*
X38639905Y47138420D01*
X38639905Y47138420D02*
X38687524Y47090800D01*
X38687524Y47090800D02*
X38782762Y47043181D01*
X38782762Y47043181D02*
X38973238Y47043181D01*
X38973238Y47043181D02*
X39068476Y47090800D01*
X39068476Y47090800D02*
X39116095Y47138420D01*
X39116095Y47138420D02*
X39163714Y47233658D01*
X39163714Y47233658D02*
X39163714Y47471753D01*
X39163714Y47471753D02*
X39116095Y47566991D01*
X39116095Y47566991D02*
X39068476Y47614610D01*
X39068476Y47614610D02*
X38973238Y47662229D01*
X38973238Y47662229D02*
X38782762Y47662229D01*
X38782762Y47662229D02*
X38687524Y47614610D01*
X38687524Y47614610D02*
X38639905Y47566991D01*
X38639905Y47566991D02*
X38592286Y47471753D01*
X40847142Y52625181D02*
X40513809Y53101372D01*
X40275714Y52625181D02*
X40275714Y53625181D01*
X40275714Y53625181D02*
X40656666Y53625181D01*
X40656666Y53625181D02*
X40751904Y53577562D01*
X40751904Y53577562D02*
X40799523Y53529943D01*
X40799523Y53529943D02*
X40847142Y53434705D01*
X40847142Y53434705D02*
X40847142Y53291848D01*
X40847142Y53291848D02*
X40799523Y53196610D01*
X40799523Y53196610D02*
X40751904Y53148991D01*
X40751904Y53148991D02*
X40656666Y53101372D01*
X40656666Y53101372D02*
X40275714Y53101372D01*
X41799523Y52625181D02*
X41228095Y52625181D01*
X41513809Y52625181D02*
X41513809Y53625181D01*
X41513809Y53625181D02*
X41418571Y53482324D01*
X41418571Y53482324D02*
X41323333Y53387086D01*
X41323333Y53387086D02*
X41228095Y53339467D01*
X42132857Y53625181D02*
X42751904Y53625181D01*
X42751904Y53625181D02*
X42418571Y53244229D01*
X42418571Y53244229D02*
X42561428Y53244229D01*
X42561428Y53244229D02*
X42656666Y53196610D01*
X42656666Y53196610D02*
X42704285Y53148991D01*
X42704285Y53148991D02*
X42751904Y53053753D01*
X42751904Y53053753D02*
X42751904Y52815658D01*
X42751904Y52815658D02*
X42704285Y52720420D01*
X42704285Y52720420D02*
X42656666Y52672800D01*
X42656666Y52672800D02*
X42561428Y52625181D01*
X42561428Y52625181D02*
X42275714Y52625181D01*
X42275714Y52625181D02*
X42180476Y52672800D01*
X42180476Y52672800D02*
X42132857Y52720420D01*
X37481142Y45265181D02*
X37147809Y45741372D01*
X36909714Y45265181D02*
X36909714Y46265181D01*
X36909714Y46265181D02*
X37290666Y46265181D01*
X37290666Y46265181D02*
X37385904Y46217562D01*
X37385904Y46217562D02*
X37433523Y46169943D01*
X37433523Y46169943D02*
X37481142Y46074705D01*
X37481142Y46074705D02*
X37481142Y45931848D01*
X37481142Y45931848D02*
X37433523Y45836610D01*
X37433523Y45836610D02*
X37385904Y45788991D01*
X37385904Y45788991D02*
X37290666Y45741372D01*
X37290666Y45741372D02*
X36909714Y45741372D01*
X38433523Y45265181D02*
X37862095Y45265181D01*
X38147809Y45265181D02*
X38147809Y46265181D01*
X38147809Y46265181D02*
X38052571Y46122324D01*
X38052571Y46122324D02*
X37957333Y46027086D01*
X37957333Y46027086D02*
X37862095Y45979467D01*
X39290666Y45931848D02*
X39290666Y45265181D01*
X39052571Y46312800D02*
X38814476Y45598515D01*
X38814476Y45598515D02*
X39433523Y45598515D01*
X44164819Y49441906D02*
X43164819Y49441906D01*
X43164819Y49441906D02*
X43164819Y49680001D01*
X43164819Y49680001D02*
X43212438Y49822858D01*
X43212438Y49822858D02*
X43307676Y49918096D01*
X43307676Y49918096D02*
X43402914Y49965715D01*
X43402914Y49965715D02*
X43593390Y50013334D01*
X43593390Y50013334D02*
X43736247Y50013334D01*
X43736247Y50013334D02*
X43926723Y49965715D01*
X43926723Y49965715D02*
X44021961Y49918096D01*
X44021961Y49918096D02*
X44117200Y49822858D01*
X44117200Y49822858D02*
X44164819Y49680001D01*
X44164819Y49680001D02*
X44164819Y49441906D01*
X44164819Y50965715D02*
X44164819Y50394287D01*
X44164819Y50680001D02*
X43164819Y50680001D01*
X43164819Y50680001D02*
X43307676Y50584763D01*
X43307676Y50584763D02*
X43402914Y50489525D01*
X43402914Y50489525D02*
X43450533Y50394287D01*
X43769580Y40257143D02*
X43817200Y40209524D01*
X43817200Y40209524D02*
X43864819Y40066667D01*
X43864819Y40066667D02*
X43864819Y39971429D01*
X43864819Y39971429D02*
X43817200Y39828572D01*
X43817200Y39828572D02*
X43721961Y39733334D01*
X43721961Y39733334D02*
X43626723Y39685715D01*
X43626723Y39685715D02*
X43436247Y39638096D01*
X43436247Y39638096D02*
X43293390Y39638096D01*
X43293390Y39638096D02*
X43102914Y39685715D01*
X43102914Y39685715D02*
X43007676Y39733334D01*
X43007676Y39733334D02*
X42912438Y39828572D01*
X42912438Y39828572D02*
X42864819Y39971429D01*
X42864819Y39971429D02*
X42864819Y40066667D01*
X42864819Y40066667D02*
X42912438Y40209524D01*
X42912438Y40209524D02*
X42960057Y40257143D01*
X43864819Y41209524D02*
X43864819Y40638096D01*
X43864819Y40923810D02*
X42864819Y40923810D01*
X42864819Y40923810D02*
X43007676Y40828572D01*
X43007676Y40828572D02*
X43102914Y40733334D01*
X43102914Y40733334D02*
X43150533Y40638096D01*
X42864819Y41542858D02*
X42864819Y42209524D01*
X42864819Y42209524D02*
X43864819Y41780953D01*
X35969580Y37257143D02*
X36017200Y37209524D01*
X36017200Y37209524D02*
X36064819Y37066667D01*
X36064819Y37066667D02*
X36064819Y36971429D01*
X36064819Y36971429D02*
X36017200Y36828572D01*
X36017200Y36828572D02*
X35921961Y36733334D01*
X35921961Y36733334D02*
X35826723Y36685715D01*
X35826723Y36685715D02*
X35636247Y36638096D01*
X35636247Y36638096D02*
X35493390Y36638096D01*
X35493390Y36638096D02*
X35302914Y36685715D01*
X35302914Y36685715D02*
X35207676Y36733334D01*
X35207676Y36733334D02*
X35112438Y36828572D01*
X35112438Y36828572D02*
X35064819Y36971429D01*
X35064819Y36971429D02*
X35064819Y37066667D01*
X35064819Y37066667D02*
X35112438Y37209524D01*
X35112438Y37209524D02*
X35160057Y37257143D01*
X36064819Y38209524D02*
X36064819Y37638096D01*
X36064819Y37923810D02*
X35064819Y37923810D01*
X35064819Y37923810D02*
X35207676Y37828572D01*
X35207676Y37828572D02*
X35302914Y37733334D01*
X35302914Y37733334D02*
X35350533Y37638096D01*
X35064819Y39066667D02*
X35064819Y38876191D01*
X35064819Y38876191D02*
X35112438Y38780953D01*
X35112438Y38780953D02*
X35160057Y38733334D01*
X35160057Y38733334D02*
X35302914Y38638096D01*
X35302914Y38638096D02*
X35493390Y38590477D01*
X35493390Y38590477D02*
X35874342Y38590477D01*
X35874342Y38590477D02*
X35969580Y38638096D01*
X35969580Y38638096D02*
X36017200Y38685715D01*
X36017200Y38685715D02*
X36064819Y38780953D01*
X36064819Y38780953D02*
X36064819Y38971429D01*
X36064819Y38971429D02*
X36017200Y39066667D01*
X36017200Y39066667D02*
X35969580Y39114286D01*
X35969580Y39114286D02*
X35874342Y39161905D01*
X35874342Y39161905D02*
X35636247Y39161905D01*
X35636247Y39161905D02*
X35541009Y39114286D01*
X35541009Y39114286D02*
X35493390Y39066667D01*
X35493390Y39066667D02*
X35445771Y38971429D01*
X35445771Y38971429D02*
X35445771Y38780953D01*
X35445771Y38780953D02*
X35493390Y38685715D01*
X35493390Y38685715D02*
X35541009Y38638096D01*
X35541009Y38638096D02*
X35636247Y38590477D01*
X41278095Y61215181D02*
X41278095Y60405658D01*
X41278095Y60405658D02*
X41325714Y60310420D01*
X41325714Y60310420D02*
X41373333Y60262800D01*
X41373333Y60262800D02*
X41468571Y60215181D01*
X41468571Y60215181D02*
X41659047Y60215181D01*
X41659047Y60215181D02*
X41754285Y60262800D01*
X41754285Y60262800D02*
X41801904Y60310420D01*
X41801904Y60310420D02*
X41849523Y60405658D01*
X41849523Y60405658D02*
X41849523Y61215181D01*
X42278095Y61119943D02*
X42325714Y61167562D01*
X42325714Y61167562D02*
X42420952Y61215181D01*
X42420952Y61215181D02*
X42659047Y61215181D01*
X42659047Y61215181D02*
X42754285Y61167562D01*
X42754285Y61167562D02*
X42801904Y61119943D01*
X42801904Y61119943D02*
X42849523Y61024705D01*
X42849523Y61024705D02*
X42849523Y60929467D01*
X42849523Y60929467D02*
X42801904Y60786610D01*
X42801904Y60786610D02*
X42230476Y60215181D01*
X42230476Y60215181D02*
X42849523Y60215181D01*
X20024628Y26570001D02*
X20053200Y26541429D01*
X20053200Y26541429D02*
X20081771Y26455715D01*
X20081771Y26455715D02*
X20081771Y26398572D01*
X20081771Y26398572D02*
X20053200Y26312858D01*
X20053200Y26312858D02*
X19996057Y26255715D01*
X19996057Y26255715D02*
X19938914Y26227144D01*
X19938914Y26227144D02*
X19824628Y26198572D01*
X19824628Y26198572D02*
X19738914Y26198572D01*
X19738914Y26198572D02*
X19624628Y26227144D01*
X19624628Y26227144D02*
X19567485Y26255715D01*
X19567485Y26255715D02*
X19510342Y26312858D01*
X19510342Y26312858D02*
X19481771Y26398572D01*
X19481771Y26398572D02*
X19481771Y26455715D01*
X19481771Y26455715D02*
X19510342Y26541429D01*
X19510342Y26541429D02*
X19538914Y26570001D01*
X19538914Y26798572D02*
X19510342Y26827144D01*
X19510342Y26827144D02*
X19481771Y26884286D01*
X19481771Y26884286D02*
X19481771Y27027144D01*
X19481771Y27027144D02*
X19510342Y27084286D01*
X19510342Y27084286D02*
X19538914Y27112858D01*
X19538914Y27112858D02*
X19596057Y27141429D01*
X19596057Y27141429D02*
X19653200Y27141429D01*
X19653200Y27141429D02*
X19738914Y27112858D01*
X19738914Y27112858D02*
X20081771Y26770001D01*
X20081771Y26770001D02*
X20081771Y27141429D01*
X26622704Y17979068D02*
X26660800Y17940972D01*
X26660800Y17940972D02*
X26698895Y17826687D01*
X26698895Y17826687D02*
X26698895Y17750496D01*
X26698895Y17750496D02*
X26660800Y17636210D01*
X26660800Y17636210D02*
X26584609Y17560020D01*
X26584609Y17560020D02*
X26508419Y17521925D01*
X26508419Y17521925D02*
X26356038Y17483829D01*
X26356038Y17483829D02*
X26241752Y17483829D01*
X26241752Y17483829D02*
X26089371Y17521925D01*
X26089371Y17521925D02*
X26013180Y17560020D01*
X26013180Y17560020D02*
X25936990Y17636210D01*
X25936990Y17636210D02*
X25898895Y17750496D01*
X25898895Y17750496D02*
X25898895Y17826687D01*
X25898895Y17826687D02*
X25936990Y17940972D01*
X25936990Y17940972D02*
X25975085Y17979068D01*
X26241752Y18436210D02*
X26203657Y18360020D01*
X26203657Y18360020D02*
X26165561Y18321925D01*
X26165561Y18321925D02*
X26089371Y18283829D01*
X26089371Y18283829D02*
X26051276Y18283829D01*
X26051276Y18283829D02*
X25975085Y18321925D01*
X25975085Y18321925D02*
X25936990Y18360020D01*
X25936990Y18360020D02*
X25898895Y18436210D01*
X25898895Y18436210D02*
X25898895Y18588591D01*
X25898895Y18588591D02*
X25936990Y18664782D01*
X25936990Y18664782D02*
X25975085Y18702877D01*
X25975085Y18702877D02*
X26051276Y18740972D01*
X26051276Y18740972D02*
X26089371Y18740972D01*
X26089371Y18740972D02*
X26165561Y18702877D01*
X26165561Y18702877D02*
X26203657Y18664782D01*
X26203657Y18664782D02*
X26241752Y18588591D01*
X26241752Y18588591D02*
X26241752Y18436210D01*
X26241752Y18436210D02*
X26279847Y18360020D01*
X26279847Y18360020D02*
X26317942Y18321925D01*
X26317942Y18321925D02*
X26394133Y18283829D01*
X26394133Y18283829D02*
X26546514Y18283829D01*
X26546514Y18283829D02*
X26622704Y18321925D01*
X26622704Y18321925D02*
X26660800Y18360020D01*
X26660800Y18360020D02*
X26698895Y18436210D01*
X26698895Y18436210D02*
X26698895Y18588591D01*
X26698895Y18588591D02*
X26660800Y18664782D01*
X26660800Y18664782D02*
X26622704Y18702877D01*
X26622704Y18702877D02*
X26546514Y18740972D01*
X26546514Y18740972D02*
X26394133Y18740972D01*
X26394133Y18740972D02*
X26317942Y18702877D01*
X26317942Y18702877D02*
X26279847Y18664782D01*
X26279847Y18664782D02*
X26241752Y18588591D01*
X41713333Y3027705D02*
X41713333Y2456277D01*
X41713333Y2456277D02*
X41675238Y2341991D01*
X41675238Y2341991D02*
X41599047Y2265800D01*
X41599047Y2265800D02*
X41484762Y2227705D01*
X41484762Y2227705D02*
X41408571Y2227705D01*
X42018095Y3027705D02*
X42551429Y3027705D01*
X42551429Y3027705D02*
X42208571Y2227705D01*
X14548629Y8188848D02*
X15196248Y8188848D01*
X15196248Y8188848D02*
X15272438Y8226943D01*
X15272438Y8226943D02*
X15310534Y8265038D01*
X15310534Y8265038D02*
X15348629Y8341229D01*
X15348629Y8341229D02*
X15348629Y8493610D01*
X15348629Y8493610D02*
X15310534Y8569800D01*
X15310534Y8569800D02*
X15272438Y8607895D01*
X15272438Y8607895D02*
X15196248Y8645991D01*
X15196248Y8645991D02*
X14548629Y8645991D01*
X14891486Y9141228D02*
X14853391Y9065038D01*
X14853391Y9065038D02*
X14815295Y9026943D01*
X14815295Y9026943D02*
X14739105Y8988847D01*
X14739105Y8988847D02*
X14701010Y8988847D01*
X14701010Y8988847D02*
X14624819Y9026943D01*
X14624819Y9026943D02*
X14586724Y9065038D01*
X14586724Y9065038D02*
X14548629Y9141228D01*
X14548629Y9141228D02*
X14548629Y9293609D01*
X14548629Y9293609D02*
X14586724Y9369800D01*
X14586724Y9369800D02*
X14624819Y9407895D01*
X14624819Y9407895D02*
X14701010Y9445990D01*
X14701010Y9445990D02*
X14739105Y9445990D01*
X14739105Y9445990D02*
X14815295Y9407895D01*
X14815295Y9407895D02*
X14853391Y9369800D01*
X14853391Y9369800D02*
X14891486Y9293609D01*
X14891486Y9293609D02*
X14891486Y9141228D01*
X14891486Y9141228D02*
X14929581Y9065038D01*
X14929581Y9065038D02*
X14967676Y9026943D01*
X14967676Y9026943D02*
X15043867Y8988847D01*
X15043867Y8988847D02*
X15196248Y8988847D01*
X15196248Y8988847D02*
X15272438Y9026943D01*
X15272438Y9026943D02*
X15310534Y9065038D01*
X15310534Y9065038D02*
X15348629Y9141228D01*
X15348629Y9141228D02*
X15348629Y9293609D01*
X15348629Y9293609D02*
X15310534Y9369800D01*
X15310534Y9369800D02*
X15272438Y9407895D01*
X15272438Y9407895D02*
X15196248Y9445990D01*
X15196248Y9445990D02*
X15043867Y9445990D01*
X15043867Y9445990D02*
X14967676Y9407895D01*
X14967676Y9407895D02*
X14929581Y9369800D01*
X14929581Y9369800D02*
X14891486Y9293609D01*
X31489714Y12159896D02*
X31451618Y12121800D01*
X31451618Y12121800D02*
X31337333Y12083705D01*
X31337333Y12083705D02*
X31261142Y12083705D01*
X31261142Y12083705D02*
X31146856Y12121800D01*
X31146856Y12121800D02*
X31070666Y12197991D01*
X31070666Y12197991D02*
X31032571Y12274181D01*
X31032571Y12274181D02*
X30994475Y12426562D01*
X30994475Y12426562D02*
X30994475Y12540848D01*
X30994475Y12540848D02*
X31032571Y12693229D01*
X31032571Y12693229D02*
X31070666Y12769420D01*
X31070666Y12769420D02*
X31146856Y12845610D01*
X31146856Y12845610D02*
X31261142Y12883705D01*
X31261142Y12883705D02*
X31337333Y12883705D01*
X31337333Y12883705D02*
X31451618Y12845610D01*
X31451618Y12845610D02*
X31489714Y12807515D01*
X32251618Y12083705D02*
X31794475Y12083705D01*
X32023047Y12083705D02*
X32023047Y12883705D01*
X32023047Y12883705D02*
X31946856Y12769420D01*
X31946856Y12769420D02*
X31870666Y12693229D01*
X31870666Y12693229D02*
X31794475Y12655134D01*
X32556380Y12807515D02*
X32594476Y12845610D01*
X32594476Y12845610D02*
X32670666Y12883705D01*
X32670666Y12883705D02*
X32861142Y12883705D01*
X32861142Y12883705D02*
X32937333Y12845610D01*
X32937333Y12845610D02*
X32975428Y12807515D01*
X32975428Y12807515D02*
X33013523Y12731324D01*
X33013523Y12731324D02*
X33013523Y12655134D01*
X33013523Y12655134D02*
X32975428Y12540848D01*
X32975428Y12540848D02*
X32518285Y12083705D01*
X32518285Y12083705D02*
X33013523Y12083705D01*
X26971666Y57949181D02*
X26971666Y57234896D01*
X26971666Y57234896D02*
X26924047Y57092039D01*
X26924047Y57092039D02*
X26828809Y56996800D01*
X26828809Y56996800D02*
X26685952Y56949181D01*
X26685952Y56949181D02*
X26590714Y56949181D01*
X27590714Y57520610D02*
X27495476Y57568229D01*
X27495476Y57568229D02*
X27447857Y57615848D01*
X27447857Y57615848D02*
X27400238Y57711086D01*
X27400238Y57711086D02*
X27400238Y57758705D01*
X27400238Y57758705D02*
X27447857Y57853943D01*
X27447857Y57853943D02*
X27495476Y57901562D01*
X27495476Y57901562D02*
X27590714Y57949181D01*
X27590714Y57949181D02*
X27781190Y57949181D01*
X27781190Y57949181D02*
X27876428Y57901562D01*
X27876428Y57901562D02*
X27924047Y57853943D01*
X27924047Y57853943D02*
X27971666Y57758705D01*
X27971666Y57758705D02*
X27971666Y57711086D01*
X27971666Y57711086D02*
X27924047Y57615848D01*
X27924047Y57615848D02*
X27876428Y57568229D01*
X27876428Y57568229D02*
X27781190Y57520610D01*
X27781190Y57520610D02*
X27590714Y57520610D01*
X27590714Y57520610D02*
X27495476Y57472991D01*
X27495476Y57472991D02*
X27447857Y57425372D01*
X27447857Y57425372D02*
X27400238Y57330134D01*
X27400238Y57330134D02*
X27400238Y57139658D01*
X27400238Y57139658D02*
X27447857Y57044420D01*
X27447857Y57044420D02*
X27495476Y56996800D01*
X27495476Y56996800D02*
X27590714Y56949181D01*
X27590714Y56949181D02*
X27781190Y56949181D01*
X27781190Y56949181D02*
X27876428Y56996800D01*
X27876428Y56996800D02*
X27924047Y57044420D01*
X27924047Y57044420D02*
X27971666Y57139658D01*
X27971666Y57139658D02*
X27971666Y57330134D01*
X27971666Y57330134D02*
X27924047Y57425372D01*
X27924047Y57425372D02*
X27876428Y57472991D01*
X27876428Y57472991D02*
X27781190Y57520610D01*
X11716104Y26663715D02*
X11754200Y26625619D01*
X11754200Y26625619D02*
X11792295Y26511334D01*
X11792295Y26511334D02*
X11792295Y26435143D01*
X11792295Y26435143D02*
X11754200Y26320857D01*
X11754200Y26320857D02*
X11678009Y26244667D01*
X11678009Y26244667D02*
X11601819Y26206572D01*
X11601819Y26206572D02*
X11449438Y26168476D01*
X11449438Y26168476D02*
X11335152Y26168476D01*
X11335152Y26168476D02*
X11182771Y26206572D01*
X11182771Y26206572D02*
X11106580Y26244667D01*
X11106580Y26244667D02*
X11030390Y26320857D01*
X11030390Y26320857D02*
X10992295Y26435143D01*
X10992295Y26435143D02*
X10992295Y26511334D01*
X10992295Y26511334D02*
X11030390Y26625619D01*
X11030390Y26625619D02*
X11068485Y26663715D01*
X11068485Y26968476D02*
X11030390Y27006572D01*
X11030390Y27006572D02*
X10992295Y27082762D01*
X10992295Y27082762D02*
X10992295Y27273238D01*
X10992295Y27273238D02*
X11030390Y27349429D01*
X11030390Y27349429D02*
X11068485Y27387524D01*
X11068485Y27387524D02*
X11144676Y27425619D01*
X11144676Y27425619D02*
X11220866Y27425619D01*
X11220866Y27425619D02*
X11335152Y27387524D01*
X11335152Y27387524D02*
X11792295Y26930381D01*
X11792295Y26930381D02*
X11792295Y27425619D01*
X10992295Y28111334D02*
X10992295Y27958953D01*
X10992295Y27958953D02*
X11030390Y27882762D01*
X11030390Y27882762D02*
X11068485Y27844667D01*
X11068485Y27844667D02*
X11182771Y27768477D01*
X11182771Y27768477D02*
X11335152Y27730381D01*
X11335152Y27730381D02*
X11639914Y27730381D01*
X11639914Y27730381D02*
X11716104Y27768477D01*
X11716104Y27768477D02*
X11754200Y27806572D01*
X11754200Y27806572D02*
X11792295Y27882762D01*
X11792295Y27882762D02*
X11792295Y28035143D01*
X11792295Y28035143D02*
X11754200Y28111334D01*
X11754200Y28111334D02*
X11716104Y28149429D01*
X11716104Y28149429D02*
X11639914Y28187524D01*
X11639914Y28187524D02*
X11449438Y28187524D01*
X11449438Y28187524D02*
X11373247Y28149429D01*
X11373247Y28149429D02*
X11335152Y28111334D01*
X11335152Y28111334D02*
X11297057Y28035143D01*
X11297057Y28035143D02*
X11297057Y27882762D01*
X11297057Y27882762D02*
X11335152Y27806572D01*
X11335152Y27806572D02*
X11373247Y27768477D01*
X11373247Y27768477D02*
X11449438Y27730381D01*
X19710695Y29446715D02*
X19329742Y29180048D01*
X19710695Y28989572D02*
X18910695Y28989572D01*
X18910695Y28989572D02*
X18910695Y29294334D01*
X18910695Y29294334D02*
X18948790Y29370524D01*
X18948790Y29370524D02*
X18986885Y29408619D01*
X18986885Y29408619D02*
X19063076Y29446715D01*
X19063076Y29446715D02*
X19177361Y29446715D01*
X19177361Y29446715D02*
X19253552Y29408619D01*
X19253552Y29408619D02*
X19291647Y29370524D01*
X19291647Y29370524D02*
X19329742Y29294334D01*
X19329742Y29294334D02*
X19329742Y28989572D01*
X19710695Y30208619D02*
X19710695Y29751476D01*
X19710695Y29980048D02*
X18910695Y29980048D01*
X18910695Y29980048D02*
X19024980Y29903857D01*
X19024980Y29903857D02*
X19101171Y29827667D01*
X19101171Y29827667D02*
X19139266Y29751476D01*
X18910695Y30894334D02*
X18910695Y30741953D01*
X18910695Y30741953D02*
X18948790Y30665762D01*
X18948790Y30665762D02*
X18986885Y30627667D01*
X18986885Y30627667D02*
X19101171Y30551477D01*
X19101171Y30551477D02*
X19253552Y30513381D01*
X19253552Y30513381D02*
X19558314Y30513381D01*
X19558314Y30513381D02*
X19634504Y30551477D01*
X19634504Y30551477D02*
X19672600Y30589572D01*
X19672600Y30589572D02*
X19710695Y30665762D01*
X19710695Y30665762D02*
X19710695Y30818143D01*
X19710695Y30818143D02*
X19672600Y30894334D01*
X19672600Y30894334D02*
X19634504Y30932429D01*
X19634504Y30932429D02*
X19558314Y30970524D01*
X19558314Y30970524D02*
X19367838Y30970524D01*
X19367838Y30970524D02*
X19291647Y30932429D01*
X19291647Y30932429D02*
X19253552Y30894334D01*
X19253552Y30894334D02*
X19215457Y30818143D01*
X19215457Y30818143D02*
X19215457Y30665762D01*
X19215457Y30665762D02*
X19253552Y30589572D01*
X19253552Y30589572D02*
X19291647Y30551477D01*
X19291647Y30551477D02*
X19367838Y30513381D01*
X6954819Y49301667D02*
X7669104Y49301667D01*
X7669104Y49301667D02*
X7811961Y49254048D01*
X7811961Y49254048D02*
X7907200Y49158810D01*
X7907200Y49158810D02*
X7954819Y49015953D01*
X7954819Y49015953D02*
X7954819Y48920715D01*
X7954819Y50301667D02*
X7954819Y49730239D01*
X7954819Y50015953D02*
X6954819Y50015953D01*
X6954819Y50015953D02*
X7097676Y49920715D01*
X7097676Y49920715D02*
X7192914Y49825477D01*
X7192914Y49825477D02*
X7240533Y49730239D01*
X16896085Y5222943D02*
X16943705Y5175324D01*
X16943705Y5175324D02*
X16991324Y5032467D01*
X16991324Y5032467D02*
X16991324Y4937229D01*
X16991324Y4937229D02*
X16943705Y4794372D01*
X16943705Y4794372D02*
X16848466Y4699134D01*
X16848466Y4699134D02*
X16753228Y4651515D01*
X16753228Y4651515D02*
X16562752Y4603896D01*
X16562752Y4603896D02*
X16419895Y4603896D01*
X16419895Y4603896D02*
X16229419Y4651515D01*
X16229419Y4651515D02*
X16134181Y4699134D01*
X16134181Y4699134D02*
X16038943Y4794372D01*
X16038943Y4794372D02*
X15991324Y4937229D01*
X15991324Y4937229D02*
X15991324Y5032467D01*
X15991324Y5032467D02*
X16038943Y5175324D01*
X16038943Y5175324D02*
X16086562Y5222943D01*
X16086562Y5603896D02*
X16038943Y5651515D01*
X16038943Y5651515D02*
X15991324Y5746753D01*
X15991324Y5746753D02*
X15991324Y5984848D01*
X15991324Y5984848D02*
X16038943Y6080086D01*
X16038943Y6080086D02*
X16086562Y6127705D01*
X16086562Y6127705D02*
X16181800Y6175324D01*
X16181800Y6175324D02*
X16277038Y6175324D01*
X16277038Y6175324D02*
X16419895Y6127705D01*
X16419895Y6127705D02*
X16991324Y5556277D01*
X16991324Y5556277D02*
X16991324Y6175324D01*
X16991324Y7127705D02*
X16991324Y6556277D01*
X16991324Y6841991D02*
X15991324Y6841991D01*
X15991324Y6841991D02*
X16134181Y6746753D01*
X16134181Y6746753D02*
X16229419Y6651515D01*
X16229419Y6651515D02*
X16277038Y6556277D01*
X36900295Y10058477D02*
X37547914Y10058477D01*
X37547914Y10058477D02*
X37624104Y10096572D01*
X37624104Y10096572D02*
X37662200Y10134667D01*
X37662200Y10134667D02*
X37700295Y10210858D01*
X37700295Y10210858D02*
X37700295Y10363239D01*
X37700295Y10363239D02*
X37662200Y10439429D01*
X37662200Y10439429D02*
X37624104Y10477524D01*
X37624104Y10477524D02*
X37547914Y10515620D01*
X37547914Y10515620D02*
X36900295Y10515620D01*
X37700295Y10934667D02*
X37700295Y11087048D01*
X37700295Y11087048D02*
X37662200Y11163238D01*
X37662200Y11163238D02*
X37624104Y11201334D01*
X37624104Y11201334D02*
X37509819Y11277524D01*
X37509819Y11277524D02*
X37357438Y11315619D01*
X37357438Y11315619D02*
X37052676Y11315619D01*
X37052676Y11315619D02*
X36976485Y11277524D01*
X36976485Y11277524D02*
X36938390Y11239429D01*
X36938390Y11239429D02*
X36900295Y11163238D01*
X36900295Y11163238D02*
X36900295Y11010857D01*
X36900295Y11010857D02*
X36938390Y10934667D01*
X36938390Y10934667D02*
X36976485Y10896572D01*
X36976485Y10896572D02*
X37052676Y10858476D01*
X37052676Y10858476D02*
X37243152Y10858476D01*
X37243152Y10858476D02*
X37319342Y10896572D01*
X37319342Y10896572D02*
X37357438Y10934667D01*
X37357438Y10934667D02*
X37395533Y11010857D01*
X37395533Y11010857D02*
X37395533Y11163238D01*
X37395533Y11163238D02*
X37357438Y11239429D01*
X37357438Y11239429D02*
X37319342Y11277524D01*
X37319342Y11277524D02*
X37243152Y11315619D01*
X11462885Y11871425D02*
X11424789Y11833329D01*
X11424789Y11833329D02*
X11310504Y11795234D01*
X11310504Y11795234D02*
X11234313Y11795234D01*
X11234313Y11795234D02*
X11120027Y11833329D01*
X11120027Y11833329D02*
X11043837Y11909520D01*
X11043837Y11909520D02*
X11005742Y11985710D01*
X11005742Y11985710D02*
X10967646Y12138091D01*
X10967646Y12138091D02*
X10967646Y12252377D01*
X10967646Y12252377D02*
X11005742Y12404758D01*
X11005742Y12404758D02*
X11043837Y12480949D01*
X11043837Y12480949D02*
X11120027Y12557139D01*
X11120027Y12557139D02*
X11234313Y12595234D01*
X11234313Y12595234D02*
X11310504Y12595234D01*
X11310504Y12595234D02*
X11424789Y12557139D01*
X11424789Y12557139D02*
X11462885Y12519044D01*
X11767646Y12519044D02*
X11805742Y12557139D01*
X11805742Y12557139D02*
X11881932Y12595234D01*
X11881932Y12595234D02*
X12072408Y12595234D01*
X12072408Y12595234D02*
X12148599Y12557139D01*
X12148599Y12557139D02*
X12186694Y12519044D01*
X12186694Y12519044D02*
X12224789Y12442853D01*
X12224789Y12442853D02*
X12224789Y12366663D01*
X12224789Y12366663D02*
X12186694Y12252377D01*
X12186694Y12252377D02*
X11729551Y11795234D01*
X11729551Y11795234D02*
X12224789Y11795234D01*
X12529551Y12519044D02*
X12567647Y12557139D01*
X12567647Y12557139D02*
X12643837Y12595234D01*
X12643837Y12595234D02*
X12834313Y12595234D01*
X12834313Y12595234D02*
X12910504Y12557139D01*
X12910504Y12557139D02*
X12948599Y12519044D01*
X12948599Y12519044D02*
X12986694Y12442853D01*
X12986694Y12442853D02*
X12986694Y12366663D01*
X12986694Y12366663D02*
X12948599Y12252377D01*
X12948599Y12252377D02*
X12491456Y11795234D01*
X12491456Y11795234D02*
X12986694Y11795234D01*
X14140114Y30625705D02*
X13873447Y31006658D01*
X13682971Y30625705D02*
X13682971Y31425705D01*
X13682971Y31425705D02*
X13987733Y31425705D01*
X13987733Y31425705D02*
X14063923Y31387610D01*
X14063923Y31387610D02*
X14102018Y31349515D01*
X14102018Y31349515D02*
X14140114Y31273324D01*
X14140114Y31273324D02*
X14140114Y31159039D01*
X14140114Y31159039D02*
X14102018Y31082848D01*
X14102018Y31082848D02*
X14063923Y31044753D01*
X14063923Y31044753D02*
X13987733Y31006658D01*
X13987733Y31006658D02*
X13682971Y31006658D01*
X14902018Y30625705D02*
X14444875Y30625705D01*
X14673447Y30625705D02*
X14673447Y31425705D01*
X14673447Y31425705D02*
X14597256Y31311420D01*
X14597256Y31311420D02*
X14521066Y31235229D01*
X14521066Y31235229D02*
X14444875Y31197134D01*
X15625828Y31425705D02*
X15244876Y31425705D01*
X15244876Y31425705D02*
X15206780Y31044753D01*
X15206780Y31044753D02*
X15244876Y31082848D01*
X15244876Y31082848D02*
X15321066Y31120943D01*
X15321066Y31120943D02*
X15511542Y31120943D01*
X15511542Y31120943D02*
X15587733Y31082848D01*
X15587733Y31082848D02*
X15625828Y31044753D01*
X15625828Y31044753D02*
X15663923Y30968562D01*
X15663923Y30968562D02*
X15663923Y30778086D01*
X15663923Y30778086D02*
X15625828Y30701896D01*
X15625828Y30701896D02*
X15587733Y30663800D01*
X15587733Y30663800D02*
X15511542Y30625705D01*
X15511542Y30625705D02*
X15321066Y30625705D01*
X15321066Y30625705D02*
X15244876Y30663800D01*
X15244876Y30663800D02*
X15206780Y30701896D01*
X16290609Y10277915D02*
X16328705Y10239819D01*
X16328705Y10239819D02*
X16366800Y10125534D01*
X16366800Y10125534D02*
X16366800Y10049343D01*
X16366800Y10049343D02*
X16328705Y9935057D01*
X16328705Y9935057D02*
X16252514Y9858867D01*
X16252514Y9858867D02*
X16176324Y9820772D01*
X16176324Y9820772D02*
X16023943Y9782676D01*
X16023943Y9782676D02*
X15909657Y9782676D01*
X15909657Y9782676D02*
X15757276Y9820772D01*
X15757276Y9820772D02*
X15681085Y9858867D01*
X15681085Y9858867D02*
X15604895Y9935057D01*
X15604895Y9935057D02*
X15566800Y10049343D01*
X15566800Y10049343D02*
X15566800Y10125534D01*
X15566800Y10125534D02*
X15604895Y10239819D01*
X15604895Y10239819D02*
X15642990Y10277915D01*
X15642990Y10582676D02*
X15604895Y10620772D01*
X15604895Y10620772D02*
X15566800Y10696962D01*
X15566800Y10696962D02*
X15566800Y10887438D01*
X15566800Y10887438D02*
X15604895Y10963629D01*
X15604895Y10963629D02*
X15642990Y11001724D01*
X15642990Y11001724D02*
X15719181Y11039819D01*
X15719181Y11039819D02*
X15795371Y11039819D01*
X15795371Y11039819D02*
X15909657Y11001724D01*
X15909657Y11001724D02*
X16366800Y10544581D01*
X16366800Y10544581D02*
X16366800Y11039819D01*
X15566800Y11535058D02*
X15566800Y11611248D01*
X15566800Y11611248D02*
X15604895Y11687439D01*
X15604895Y11687439D02*
X15642990Y11725534D01*
X15642990Y11725534D02*
X15719181Y11763629D01*
X15719181Y11763629D02*
X15871562Y11801724D01*
X15871562Y11801724D02*
X16062038Y11801724D01*
X16062038Y11801724D02*
X16214419Y11763629D01*
X16214419Y11763629D02*
X16290609Y11725534D01*
X16290609Y11725534D02*
X16328705Y11687439D01*
X16328705Y11687439D02*
X16366800Y11611248D01*
X16366800Y11611248D02*
X16366800Y11535058D01*
X16366800Y11535058D02*
X16328705Y11458867D01*
X16328705Y11458867D02*
X16290609Y11420772D01*
X16290609Y11420772D02*
X16214419Y11382677D01*
X16214419Y11382677D02*
X16062038Y11344581D01*
X16062038Y11344581D02*
X15871562Y11344581D01*
X15871562Y11344581D02*
X15719181Y11382677D01*
X15719181Y11382677D02*
X15642990Y11420772D01*
X15642990Y11420772D02*
X15604895Y11458867D01*
X15604895Y11458867D02*
X15566800Y11535058D01*
D13*
X26180771Y9600191D02*
X25704580Y9600191D01*
X26704580Y9933524D02*
X26180771Y9600191D01*
X26180771Y9600191D02*
X26704580Y9266858D01*
X25704580Y8409715D02*
X25704580Y8981143D01*
X25704580Y8695429D02*
X26704580Y8695429D01*
X26704580Y8695429D02*
X26561723Y8790667D01*
X26561723Y8790667D02*
X26466485Y8885905D01*
X26466485Y8885905D02*
X26418866Y8981143D01*
D10*
X29352771Y32634286D02*
X29067057Y32434286D01*
X29352771Y32291429D02*
X28752771Y32291429D01*
X28752771Y32291429D02*
X28752771Y32520000D01*
X28752771Y32520000D02*
X28781342Y32577143D01*
X28781342Y32577143D02*
X28809914Y32605714D01*
X28809914Y32605714D02*
X28867057Y32634286D01*
X28867057Y32634286D02*
X28952771Y32634286D01*
X28952771Y32634286D02*
X29009914Y32605714D01*
X29009914Y32605714D02*
X29038485Y32577143D01*
X29038485Y32577143D02*
X29067057Y32520000D01*
X29067057Y32520000D02*
X29067057Y32291429D01*
X29352771Y33205714D02*
X29352771Y32862857D01*
X29352771Y33034286D02*
X28752771Y33034286D01*
X28752771Y33034286D02*
X28838485Y32977143D01*
X28838485Y32977143D02*
X28895628Y32920000D01*
X28895628Y32920000D02*
X28924200Y32862857D01*
X28752771Y33405715D02*
X28752771Y33805715D01*
X28752771Y33805715D02*
X29352771Y33548572D01*
X35045714Y13683896D02*
X35007618Y13645800D01*
X35007618Y13645800D02*
X34893333Y13607705D01*
X34893333Y13607705D02*
X34817142Y13607705D01*
X34817142Y13607705D02*
X34702856Y13645800D01*
X34702856Y13645800D02*
X34626666Y13721991D01*
X34626666Y13721991D02*
X34588571Y13798181D01*
X34588571Y13798181D02*
X34550475Y13950562D01*
X34550475Y13950562D02*
X34550475Y14064848D01*
X34550475Y14064848D02*
X34588571Y14217229D01*
X34588571Y14217229D02*
X34626666Y14293420D01*
X34626666Y14293420D02*
X34702856Y14369610D01*
X34702856Y14369610D02*
X34817142Y14407705D01*
X34817142Y14407705D02*
X34893333Y14407705D01*
X34893333Y14407705D02*
X35007618Y14369610D01*
X35007618Y14369610D02*
X35045714Y14331515D01*
X35807618Y13607705D02*
X35350475Y13607705D01*
X35579047Y13607705D02*
X35579047Y14407705D01*
X35579047Y14407705D02*
X35502856Y14293420D01*
X35502856Y14293420D02*
X35426666Y14217229D01*
X35426666Y14217229D02*
X35350475Y14179134D01*
X36074285Y14407705D02*
X36569523Y14407705D01*
X36569523Y14407705D02*
X36302857Y14102943D01*
X36302857Y14102943D02*
X36417142Y14102943D01*
X36417142Y14102943D02*
X36493333Y14064848D01*
X36493333Y14064848D02*
X36531428Y14026753D01*
X36531428Y14026753D02*
X36569523Y13950562D01*
X36569523Y13950562D02*
X36569523Y13760086D01*
X36569523Y13760086D02*
X36531428Y13683896D01*
X36531428Y13683896D02*
X36493333Y13645800D01*
X36493333Y13645800D02*
X36417142Y13607705D01*
X36417142Y13607705D02*
X36188571Y13607705D01*
X36188571Y13607705D02*
X36112380Y13645800D01*
X36112380Y13645800D02*
X36074285Y13683896D01*
X18103866Y18865505D02*
X17722914Y18865505D01*
X17722914Y18865505D02*
X17722914Y19665505D01*
X18294342Y19665505D02*
X18789580Y19665505D01*
X18789580Y19665505D02*
X18522914Y19360743D01*
X18522914Y19360743D02*
X18637199Y19360743D01*
X18637199Y19360743D02*
X18713390Y19322648D01*
X18713390Y19322648D02*
X18751485Y19284553D01*
X18751485Y19284553D02*
X18789580Y19208362D01*
X18789580Y19208362D02*
X18789580Y19017886D01*
X18789580Y19017886D02*
X18751485Y18941696D01*
X18751485Y18941696D02*
X18713390Y18903600D01*
X18713390Y18903600D02*
X18637199Y18865505D01*
X18637199Y18865505D02*
X18408628Y18865505D01*
X18408628Y18865505D02*
X18332437Y18903600D01*
X18332437Y18903600D02*
X18294342Y18941696D01*
X35712476Y35235705D02*
X35712476Y34588086D01*
X35712476Y34588086D02*
X35750571Y34511896D01*
X35750571Y34511896D02*
X35788666Y34473800D01*
X35788666Y34473800D02*
X35864857Y34435705D01*
X35864857Y34435705D02*
X36017238Y34435705D01*
X36017238Y34435705D02*
X36093428Y34473800D01*
X36093428Y34473800D02*
X36131523Y34511896D01*
X36131523Y34511896D02*
X36169619Y34588086D01*
X36169619Y34588086D02*
X36169619Y35235705D01*
X36893428Y34969039D02*
X36893428Y34435705D01*
X36702952Y35273800D02*
X36512475Y34702372D01*
X36512475Y34702372D02*
X37007714Y34702372D01*
X37204667Y23767705D02*
X36938000Y24148658D01*
X36747524Y23767705D02*
X36747524Y24567705D01*
X36747524Y24567705D02*
X37052286Y24567705D01*
X37052286Y24567705D02*
X37128476Y24529610D01*
X37128476Y24529610D02*
X37166571Y24491515D01*
X37166571Y24491515D02*
X37204667Y24415324D01*
X37204667Y24415324D02*
X37204667Y24301039D01*
X37204667Y24301039D02*
X37166571Y24224848D01*
X37166571Y24224848D02*
X37128476Y24186753D01*
X37128476Y24186753D02*
X37052286Y24148658D01*
X37052286Y24148658D02*
X36747524Y24148658D01*
X37471333Y24567705D02*
X38004667Y24567705D01*
X38004667Y24567705D02*
X37661809Y23767705D01*
X17195771Y26943144D02*
X17681485Y26943144D01*
X17681485Y26943144D02*
X17738628Y26971715D01*
X17738628Y26971715D02*
X17767200Y27000286D01*
X17767200Y27000286D02*
X17795771Y27057429D01*
X17795771Y27057429D02*
X17795771Y27171715D01*
X17795771Y27171715D02*
X17767200Y27228858D01*
X17767200Y27228858D02*
X17738628Y27257429D01*
X17738628Y27257429D02*
X17681485Y27286001D01*
X17681485Y27286001D02*
X17195771Y27286001D01*
X17795771Y27886000D02*
X17795771Y27543143D01*
X17795771Y27714572D02*
X17195771Y27714572D01*
X17195771Y27714572D02*
X17281485Y27657429D01*
X17281485Y27657429D02*
X17338628Y27600286D01*
X17338628Y27600286D02*
X17367200Y27543143D01*
X17195771Y28257429D02*
X17195771Y28314572D01*
X17195771Y28314572D02*
X17224342Y28371715D01*
X17224342Y28371715D02*
X17252914Y28400286D01*
X17252914Y28400286D02*
X17310057Y28428858D01*
X17310057Y28428858D02*
X17424342Y28457429D01*
X17424342Y28457429D02*
X17567200Y28457429D01*
X17567200Y28457429D02*
X17681485Y28428858D01*
X17681485Y28428858D02*
X17738628Y28400286D01*
X17738628Y28400286D02*
X17767200Y28371715D01*
X17767200Y28371715D02*
X17795771Y28314572D01*
X17795771Y28314572D02*
X17795771Y28257429D01*
X17795771Y28257429D02*
X17767200Y28200286D01*
X17767200Y28200286D02*
X17738628Y28171715D01*
X17738628Y28171715D02*
X17681485Y28143144D01*
X17681485Y28143144D02*
X17567200Y28114572D01*
X17567200Y28114572D02*
X17424342Y28114572D01*
X17424342Y28114572D02*
X17310057Y28143144D01*
X17310057Y28143144D02*
X17252914Y28171715D01*
X17252914Y28171715D02*
X17224342Y28200286D01*
X17224342Y28200286D02*
X17195771Y28257429D01*
X36210771Y19966001D02*
X35925057Y19766001D01*
X36210771Y19623144D02*
X35610771Y19623144D01*
X35610771Y19623144D02*
X35610771Y19851715D01*
X35610771Y19851715D02*
X35639342Y19908858D01*
X35639342Y19908858D02*
X35667914Y19937429D01*
X35667914Y19937429D02*
X35725057Y19966001D01*
X35725057Y19966001D02*
X35810771Y19966001D01*
X35810771Y19966001D02*
X35867914Y19937429D01*
X35867914Y19937429D02*
X35896485Y19908858D01*
X35896485Y19908858D02*
X35925057Y19851715D01*
X35925057Y19851715D02*
X35925057Y19623144D01*
X35867914Y20308858D02*
X35839342Y20251715D01*
X35839342Y20251715D02*
X35810771Y20223144D01*
X35810771Y20223144D02*
X35753628Y20194572D01*
X35753628Y20194572D02*
X35725057Y20194572D01*
X35725057Y20194572D02*
X35667914Y20223144D01*
X35667914Y20223144D02*
X35639342Y20251715D01*
X35639342Y20251715D02*
X35610771Y20308858D01*
X35610771Y20308858D02*
X35610771Y20423144D01*
X35610771Y20423144D02*
X35639342Y20480286D01*
X35639342Y20480286D02*
X35667914Y20508858D01*
X35667914Y20508858D02*
X35725057Y20537429D01*
X35725057Y20537429D02*
X35753628Y20537429D01*
X35753628Y20537429D02*
X35810771Y20508858D01*
X35810771Y20508858D02*
X35839342Y20480286D01*
X35839342Y20480286D02*
X35867914Y20423144D01*
X35867914Y20423144D02*
X35867914Y20308858D01*
X35867914Y20308858D02*
X35896485Y20251715D01*
X35896485Y20251715D02*
X35925057Y20223144D01*
X35925057Y20223144D02*
X35982200Y20194572D01*
X35982200Y20194572D02*
X36096485Y20194572D01*
X36096485Y20194572D02*
X36153628Y20223144D01*
X36153628Y20223144D02*
X36182200Y20251715D01*
X36182200Y20251715D02*
X36210771Y20308858D01*
X36210771Y20308858D02*
X36210771Y20423144D01*
X36210771Y20423144D02*
X36182200Y20480286D01*
X36182200Y20480286D02*
X36153628Y20508858D01*
X36153628Y20508858D02*
X36096485Y20537429D01*
X36096485Y20537429D02*
X35982200Y20537429D01*
X35982200Y20537429D02*
X35925057Y20508858D01*
X35925057Y20508858D02*
X35896485Y20480286D01*
X35896485Y20480286D02*
X35867914Y20423144D01*
X6054819Y60566667D02*
X6769104Y60566667D01*
X6769104Y60566667D02*
X6911961Y60519048D01*
X6911961Y60519048D02*
X7007200Y60423810D01*
X7007200Y60423810D02*
X7054819Y60280953D01*
X7054819Y60280953D02*
X7054819Y60185715D01*
X6150057Y60995239D02*
X6102438Y61042858D01*
X6102438Y61042858D02*
X6054819Y61138096D01*
X6054819Y61138096D02*
X6054819Y61376191D01*
X6054819Y61376191D02*
X6102438Y61471429D01*
X6102438Y61471429D02*
X6150057Y61519048D01*
X6150057Y61519048D02*
X6245295Y61566667D01*
X6245295Y61566667D02*
X6340533Y61566667D01*
X6340533Y61566667D02*
X6483390Y61519048D01*
X6483390Y61519048D02*
X7054819Y60947620D01*
X7054819Y60947620D02*
X7054819Y61566667D01*
X11695809Y13841315D02*
X11733905Y13803219D01*
X11733905Y13803219D02*
X11772000Y13688934D01*
X11772000Y13688934D02*
X11772000Y13612743D01*
X11772000Y13612743D02*
X11733905Y13498457D01*
X11733905Y13498457D02*
X11657714Y13422267D01*
X11657714Y13422267D02*
X11581524Y13384172D01*
X11581524Y13384172D02*
X11429143Y13346076D01*
X11429143Y13346076D02*
X11314857Y13346076D01*
X11314857Y13346076D02*
X11162476Y13384172D01*
X11162476Y13384172D02*
X11086285Y13422267D01*
X11086285Y13422267D02*
X11010095Y13498457D01*
X11010095Y13498457D02*
X10972000Y13612743D01*
X10972000Y13612743D02*
X10972000Y13688934D01*
X10972000Y13688934D02*
X11010095Y13803219D01*
X11010095Y13803219D02*
X11048190Y13841315D01*
X11048190Y14146076D02*
X11010095Y14184172D01*
X11010095Y14184172D02*
X10972000Y14260362D01*
X10972000Y14260362D02*
X10972000Y14450838D01*
X10972000Y14450838D02*
X11010095Y14527029D01*
X11010095Y14527029D02*
X11048190Y14565124D01*
X11048190Y14565124D02*
X11124381Y14603219D01*
X11124381Y14603219D02*
X11200571Y14603219D01*
X11200571Y14603219D02*
X11314857Y14565124D01*
X11314857Y14565124D02*
X11772000Y14107981D01*
X11772000Y14107981D02*
X11772000Y14603219D01*
X11238666Y15288934D02*
X11772000Y15288934D01*
X10933905Y15098458D02*
X11505333Y14907981D01*
X11505333Y14907981D02*
X11505333Y15403220D01*
X11371514Y29228696D02*
X11333418Y29190600D01*
X11333418Y29190600D02*
X11219133Y29152505D01*
X11219133Y29152505D02*
X11142942Y29152505D01*
X11142942Y29152505D02*
X11028656Y29190600D01*
X11028656Y29190600D02*
X10952466Y29266791D01*
X10952466Y29266791D02*
X10914371Y29342981D01*
X10914371Y29342981D02*
X10876275Y29495362D01*
X10876275Y29495362D02*
X10876275Y29609648D01*
X10876275Y29609648D02*
X10914371Y29762029D01*
X10914371Y29762029D02*
X10952466Y29838220D01*
X10952466Y29838220D02*
X11028656Y29914410D01*
X11028656Y29914410D02*
X11142942Y29952505D01*
X11142942Y29952505D02*
X11219133Y29952505D01*
X11219133Y29952505D02*
X11333418Y29914410D01*
X11333418Y29914410D02*
X11371514Y29876315D01*
X11676275Y29876315D02*
X11714371Y29914410D01*
X11714371Y29914410D02*
X11790561Y29952505D01*
X11790561Y29952505D02*
X11981037Y29952505D01*
X11981037Y29952505D02*
X12057228Y29914410D01*
X12057228Y29914410D02*
X12095323Y29876315D01*
X12095323Y29876315D02*
X12133418Y29800124D01*
X12133418Y29800124D02*
X12133418Y29723934D01*
X12133418Y29723934D02*
X12095323Y29609648D01*
X12095323Y29609648D02*
X11638180Y29152505D01*
X11638180Y29152505D02*
X12133418Y29152505D01*
X12857228Y29952505D02*
X12476276Y29952505D01*
X12476276Y29952505D02*
X12438180Y29571553D01*
X12438180Y29571553D02*
X12476276Y29609648D01*
X12476276Y29609648D02*
X12552466Y29647743D01*
X12552466Y29647743D02*
X12742942Y29647743D01*
X12742942Y29647743D02*
X12819133Y29609648D01*
X12819133Y29609648D02*
X12857228Y29571553D01*
X12857228Y29571553D02*
X12895323Y29495362D01*
X12895323Y29495362D02*
X12895323Y29304886D01*
X12895323Y29304886D02*
X12857228Y29228696D01*
X12857228Y29228696D02*
X12819133Y29190600D01*
X12819133Y29190600D02*
X12742942Y29152505D01*
X12742942Y29152505D02*
X12552466Y29152505D01*
X12552466Y29152505D02*
X12476276Y29190600D01*
X12476276Y29190600D02*
X12438180Y29228696D01*
X18656314Y27947696D02*
X18618218Y27909600D01*
X18618218Y27909600D02*
X18503933Y27871505D01*
X18503933Y27871505D02*
X18427742Y27871505D01*
X18427742Y27871505D02*
X18313456Y27909600D01*
X18313456Y27909600D02*
X18237266Y27985791D01*
X18237266Y27985791D02*
X18199171Y28061981D01*
X18199171Y28061981D02*
X18161075Y28214362D01*
X18161075Y28214362D02*
X18161075Y28328648D01*
X18161075Y28328648D02*
X18199171Y28481029D01*
X18199171Y28481029D02*
X18237266Y28557220D01*
X18237266Y28557220D02*
X18313456Y28633410D01*
X18313456Y28633410D02*
X18427742Y28671505D01*
X18427742Y28671505D02*
X18503933Y28671505D01*
X18503933Y28671505D02*
X18618218Y28633410D01*
X18618218Y28633410D02*
X18656314Y28595315D01*
X18961075Y28595315D02*
X18999171Y28633410D01*
X18999171Y28633410D02*
X19075361Y28671505D01*
X19075361Y28671505D02*
X19265837Y28671505D01*
X19265837Y28671505D02*
X19342028Y28633410D01*
X19342028Y28633410D02*
X19380123Y28595315D01*
X19380123Y28595315D02*
X19418218Y28519124D01*
X19418218Y28519124D02*
X19418218Y28442934D01*
X19418218Y28442934D02*
X19380123Y28328648D01*
X19380123Y28328648D02*
X18922980Y27871505D01*
X18922980Y27871505D02*
X19418218Y27871505D01*
X19684885Y28671505D02*
X20218219Y28671505D01*
X20218219Y28671505D02*
X19875361Y27871505D01*
X15397438Y13284086D02*
X15435534Y13245990D01*
X15435534Y13245990D02*
X15473629Y13131705D01*
X15473629Y13131705D02*
X15473629Y13055514D01*
X15473629Y13055514D02*
X15435534Y12941228D01*
X15435534Y12941228D02*
X15359343Y12865038D01*
X15359343Y12865038D02*
X15283153Y12826943D01*
X15283153Y12826943D02*
X15130772Y12788847D01*
X15130772Y12788847D02*
X15016486Y12788847D01*
X15016486Y12788847D02*
X14864105Y12826943D01*
X14864105Y12826943D02*
X14787914Y12865038D01*
X14787914Y12865038D02*
X14711724Y12941228D01*
X14711724Y12941228D02*
X14673629Y13055514D01*
X14673629Y13055514D02*
X14673629Y13131705D01*
X14673629Y13131705D02*
X14711724Y13245990D01*
X14711724Y13245990D02*
X14749819Y13284086D01*
X14749819Y13588847D02*
X14711724Y13626943D01*
X14711724Y13626943D02*
X14673629Y13703133D01*
X14673629Y13703133D02*
X14673629Y13893609D01*
X14673629Y13893609D02*
X14711724Y13969800D01*
X14711724Y13969800D02*
X14749819Y14007895D01*
X14749819Y14007895D02*
X14826010Y14045990D01*
X14826010Y14045990D02*
X14902200Y14045990D01*
X14902200Y14045990D02*
X15016486Y14007895D01*
X15016486Y14007895D02*
X15473629Y13550752D01*
X15473629Y13550752D02*
X15473629Y14045990D01*
X14673629Y14312657D02*
X14673629Y14807895D01*
X14673629Y14807895D02*
X14978391Y14541229D01*
X14978391Y14541229D02*
X14978391Y14655514D01*
X14978391Y14655514D02*
X15016486Y14731705D01*
X15016486Y14731705D02*
X15054581Y14769800D01*
X15054581Y14769800D02*
X15130772Y14807895D01*
X15130772Y14807895D02*
X15321248Y14807895D01*
X15321248Y14807895D02*
X15397438Y14769800D01*
X15397438Y14769800D02*
X15435534Y14731705D01*
X15435534Y14731705D02*
X15473629Y14655514D01*
X15473629Y14655514D02*
X15473629Y14426943D01*
X15473629Y14426943D02*
X15435534Y14350752D01*
X15435534Y14350752D02*
X15397438Y14312657D01*
X26501628Y31745286D02*
X26530200Y31716714D01*
X26530200Y31716714D02*
X26558771Y31631000D01*
X26558771Y31631000D02*
X26558771Y31573857D01*
X26558771Y31573857D02*
X26530200Y31488143D01*
X26530200Y31488143D02*
X26473057Y31431000D01*
X26473057Y31431000D02*
X26415914Y31402429D01*
X26415914Y31402429D02*
X26301628Y31373857D01*
X26301628Y31373857D02*
X26215914Y31373857D01*
X26215914Y31373857D02*
X26101628Y31402429D01*
X26101628Y31402429D02*
X26044485Y31431000D01*
X26044485Y31431000D02*
X25987342Y31488143D01*
X25987342Y31488143D02*
X25958771Y31573857D01*
X25958771Y31573857D02*
X25958771Y31631000D01*
X25958771Y31631000D02*
X25987342Y31716714D01*
X25987342Y31716714D02*
X26015914Y31745286D01*
X26558771Y32316714D02*
X26558771Y31973857D01*
X26558771Y32145286D02*
X25958771Y32145286D01*
X25958771Y32145286D02*
X26044485Y32088143D01*
X26044485Y32088143D02*
X26101628Y32031000D01*
X26101628Y32031000D02*
X26130200Y31973857D01*
X26558771Y32602429D02*
X26558771Y32716715D01*
X26558771Y32716715D02*
X26530200Y32773858D01*
X26530200Y32773858D02*
X26501628Y32802429D01*
X26501628Y32802429D02*
X26415914Y32859572D01*
X26415914Y32859572D02*
X26301628Y32888143D01*
X26301628Y32888143D02*
X26073057Y32888143D01*
X26073057Y32888143D02*
X26015914Y32859572D01*
X26015914Y32859572D02*
X25987342Y32831000D01*
X25987342Y32831000D02*
X25958771Y32773858D01*
X25958771Y32773858D02*
X25958771Y32659572D01*
X25958771Y32659572D02*
X25987342Y32602429D01*
X25987342Y32602429D02*
X26015914Y32573858D01*
X26015914Y32573858D02*
X26073057Y32545286D01*
X26073057Y32545286D02*
X26215914Y32545286D01*
X26215914Y32545286D02*
X26273057Y32573858D01*
X26273057Y32573858D02*
X26301628Y32602429D01*
X26301628Y32602429D02*
X26330200Y32659572D01*
X26330200Y32659572D02*
X26330200Y32773858D01*
X26330200Y32773858D02*
X26301628Y32831000D01*
X26301628Y32831000D02*
X26273057Y32859572D01*
X26273057Y32859572D02*
X26215914Y32888143D01*
D14*
G04 #@! TO.C,U5*
X12408700Y24180400D02*
X10608700Y24180400D01*
X12408700Y24180400D02*
X13208700Y24180400D01*
X12408700Y21060400D02*
X11608700Y21060400D01*
X12408700Y21060400D02*
X13208700Y21060400D01*
G04 #@! TO.C,C7*
X6630000Y2147180D02*
X6630000Y1866020D01*
X5610000Y2147180D02*
X5610000Y1866020D01*
G04 #@! TO.C,C14*
X10073530Y23080260D02*
X10073530Y22799100D01*
X9053530Y23080260D02*
X9053530Y22799100D01*
G04 #@! TO.C,R9*
X9840142Y20450500D02*
X10314658Y20450500D01*
X9840142Y19405500D02*
X10314658Y19405500D01*
G04 #@! TO.C,C15*
X-148000Y19735748D02*
X-148000Y21158252D01*
X1672000Y19735748D02*
X1672000Y21158252D01*
G04 #@! TO.C,R4*
X3469742Y1817900D02*
X3944258Y1817900D01*
X3469742Y772900D02*
X3944258Y772900D01*
G04 #@! TO.C,U1*
X8800000Y38364800D02*
X8800000Y40664800D01*
X15650000Y38364800D02*
X8800000Y38364800D01*
X17750000Y38364800D02*
X17250000Y38364800D01*
X19750000Y38364800D02*
X19250000Y38364800D01*
X21750000Y38364800D02*
X21250000Y38364800D01*
X23750000Y38364800D02*
X23250000Y38364800D01*
X25750000Y38364800D02*
X25250000Y38364800D01*
X27750000Y38364800D02*
X27250000Y38364800D01*
X29750000Y38364800D02*
X29250000Y38364800D01*
X33100000Y38364800D02*
X31350000Y38364800D01*
X33100000Y38364800D02*
X33100000Y39064800D01*
X33100000Y40564800D02*
X33100000Y41164800D01*
X33100000Y42564800D02*
X33100000Y43164800D01*
X8800000Y42664800D02*
X8800000Y42114800D01*
X33100000Y44564800D02*
X33100000Y45164800D01*
X8800000Y44664800D02*
X8800000Y44064800D01*
X33100000Y46564800D02*
X33100000Y47164800D01*
X33100000Y48564800D02*
X33100000Y49164800D01*
X33100000Y51164800D02*
X33100000Y50564800D01*
X8800000Y53364800D02*
X8800000Y46064800D01*
X8800000Y53364800D02*
X15650000Y53364800D01*
X17250000Y53364800D02*
X17750000Y53364800D01*
X19250000Y53364800D02*
X19750000Y53364800D01*
X21250000Y53364800D02*
X21750000Y53364800D01*
X23250000Y53364800D02*
X23750000Y53364800D01*
X25250000Y53364800D02*
X25750000Y53364800D01*
X27250000Y53364800D02*
X27750000Y53364800D01*
X29250000Y53364800D02*
X29750000Y53364800D01*
X33100000Y53364800D02*
X33100000Y52614800D01*
X33100000Y53364800D02*
X31250000Y53364800D01*
G04 #@! TO.C,J6*
X12120000Y-770000D02*
X12120000Y-2100000D01*
X10790000Y-770000D02*
X12120000Y-770000D01*
X9520000Y-770000D02*
X4380000Y-770000D01*
X9520000Y-770000D02*
X9520000Y-3200000D01*
X4380000Y-770000D02*
X4380000Y-3200000D01*
X9520000Y-3200000D02*
X4380000Y-3200000D01*
G04 #@! TO.C,R10*
X13235658Y19380100D02*
X12761142Y19380100D01*
X13235658Y20425100D02*
X12761142Y20425100D01*
G04 #@! TO.C,R12*
X42937258Y35777500D02*
X42462742Y35777500D01*
X42937258Y36822500D02*
X42462742Y36822500D01*
G04 #@! TO.C,R3*
X31670958Y21137600D02*
X31196442Y21137600D01*
X31670958Y22182600D02*
X31196442Y22182600D01*
G04 #@! TO.C,C10*
X21511800Y16420220D02*
X21511800Y16701380D01*
X22531800Y16420220D02*
X22531800Y16701380D01*
D10*
G04 #@! TO.C,U3*
X28745200Y19498600D02*
X28745200Y20048600D01*
X28745200Y19498600D02*
X28195200Y19498600D01*
X28745200Y25848600D02*
X28745200Y25298600D01*
X28745200Y25848600D02*
X28195200Y25848600D01*
X22395200Y19498600D02*
X22945200Y19498600D01*
X22395200Y19498600D02*
X22395200Y20048600D01*
X22395200Y25848600D02*
X22945200Y25848600D01*
X22395200Y25848600D02*
X22395200Y25298600D01*
D14*
G04 #@! TO.C,R2*
X24398500Y29294858D02*
X24398500Y28820342D01*
X23353500Y29294858D02*
X23353500Y28820342D01*
G04 #@! TO.C,C5*
X20216400Y23176620D02*
X20216400Y23457780D01*
X21236400Y23176620D02*
X21236400Y23457780D01*
G04 #@! TO.C,R1*
X31658958Y22777100D02*
X31184442Y22777100D01*
X31658958Y23822100D02*
X31184442Y23822100D01*
D10*
G04 #@! TO.C,L1*
X32732400Y17824200D02*
X32732400Y13824200D01*
X28532400Y17824200D02*
X28532400Y13824200D01*
D14*
G04 #@! TO.C,C4*
X21566600Y20282780D02*
X21566600Y20001620D01*
X20546600Y20282780D02*
X20546600Y20001620D01*
G04 #@! TO.C,C11*
X26972800Y13448420D02*
X26972800Y13729580D01*
X27992800Y13448420D02*
X27992800Y13729580D01*
G04 #@! TO.C,C9*
X24345020Y15445200D02*
X24626180Y15445200D01*
X24345020Y14425200D02*
X24626180Y14425200D01*
G04 #@! TO.C,C1*
X26330000Y27689420D02*
X26330000Y27970580D01*
X27350000Y27689420D02*
X27350000Y27970580D01*
G04 #@! TO.C,C6*
X21791200Y27951820D02*
X21791200Y28232980D01*
X22811200Y27951820D02*
X22811200Y28232980D01*
G04 #@! TO.C,R5*
X24788864Y15952800D02*
X24334736Y15952800D01*
X24788864Y17422800D02*
X24334736Y17422800D01*
G04 #@! TO.C,C3*
X22540580Y9015000D02*
X22259420Y9015000D01*
X22540580Y10035000D02*
X22259420Y10035000D01*
G04 #@! TO.C,R11*
X42437258Y43577500D02*
X41962742Y43577500D01*
X42437258Y44622500D02*
X41962742Y44622500D01*
G04 #@! TO.C,C18*
X37410000Y41040580D02*
X37410000Y40759420D01*
X36390000Y41040580D02*
X36390000Y40759420D01*
G04 #@! TO.C,R6*
X41684998Y46878000D02*
X41210482Y46878000D01*
X41684998Y47923000D02*
X41210482Y47923000D01*
G04 #@! TO.C,R13*
X41654518Y51234100D02*
X41180002Y51234100D01*
X41654518Y52279100D02*
X41180002Y52279100D01*
G04 #@! TO.C,R14*
X41695158Y45155880D02*
X41220642Y45155880D01*
X41695158Y46200880D02*
X41220642Y46200880D01*
D10*
G04 #@! TO.C,D1*
X41052820Y50754420D02*
X40652820Y50754420D01*
X41102820Y50904420D02*
X41102820Y50604420D01*
X41252820Y50754420D02*
X41652820Y50454420D01*
X41252820Y49704420D02*
X41252820Y49304420D01*
X41402820Y49504420D02*
X41602820Y49654420D01*
X41602820Y49654420D02*
X41602820Y49354420D01*
X41602820Y49354420D02*
X41402820Y49504420D01*
X41652820Y51054420D02*
X41252820Y50754420D01*
X41652820Y51054420D02*
X41652820Y50454420D01*
X41652820Y50754420D02*
X42102820Y50754420D01*
X43210934Y48954420D02*
G75*
G03*
X42894706Y48954420I-158114J0D01*
G01*
X42894706Y48954420D02*
G75*
G03*
X43210934Y48954420I158114J0D01*
G01*
D14*
G04 #@! TO.C,C17*
X42470000Y41611252D02*
X42470000Y40188748D01*
X40650000Y41611252D02*
X40650000Y40188748D01*
G04 #@! TO.C,C16*
X36010000Y41040580D02*
X36010000Y40759420D01*
X34990000Y41040580D02*
X34990000Y40759420D01*
G04 #@! TO.C,U2*
X37798000Y54290000D02*
X40458000Y54290000D01*
X40458000Y54290000D02*
X40458000Y61970000D01*
G04 #@! TO.C,C2*
X20241800Y26453220D02*
X20241800Y26734380D01*
X21261800Y26453220D02*
X21261800Y26734380D01*
G04 #@! TO.C,C8*
X26896600Y16521820D02*
X26896600Y16802980D01*
X27916600Y16521820D02*
X27916600Y16802980D01*
G04 #@! TO.C,J7*
X3230000Y34565000D02*
X4560000Y34565000D01*
X3230000Y33235000D02*
X3230000Y34565000D01*
X3230000Y31965000D02*
X3230000Y3965000D01*
X3230000Y31965000D02*
X5890000Y31965000D01*
X3230000Y3965000D02*
X8430000Y3965000D01*
X5900000Y24385000D02*
X8350000Y24385000D01*
X5906200Y31965000D02*
X5906200Y24385000D01*
X8430000Y24385000D02*
X8430000Y3965000D01*
X38240000Y34565000D02*
X39570000Y34565000D01*
X38240000Y33235000D02*
X38240000Y34565000D01*
X38240000Y31965000D02*
X38240000Y4260000D01*
X38240000Y31965000D02*
X40840000Y31965000D01*
X38240000Y4260000D02*
X43440000Y4260000D01*
X40840000Y34565000D02*
X43440000Y34565000D01*
X40840000Y31965000D02*
X40840000Y34565000D01*
X43440000Y34565000D02*
X43440000Y4260000D01*
G04 #@! TO.C,U8*
X14146334Y5868771D02*
X14146334Y9468771D01*
X14146334Y5868771D02*
X14146334Y3668771D01*
X8676334Y5868771D02*
X8676334Y8068771D01*
X8676334Y5868771D02*
X8676334Y3668771D01*
G04 #@! TO.C,C12*
X29825836Y12086000D02*
X29610164Y12086000D01*
X29825836Y12806000D02*
X29610164Y12806000D01*
G04 #@! TO.C,J8*
X20490000Y59640000D02*
X20490000Y60400000D01*
X21250000Y59640000D02*
X20490000Y59640000D01*
X23139677Y60840000D02*
X23170323Y60840000D01*
X23155000Y60840000D02*
X23155000Y61960000D01*
X24409677Y60840000D02*
X24440323Y60840000D01*
X24425000Y60840000D02*
X24425000Y61960000D01*
X25679677Y60840000D02*
X25710323Y60840000D01*
X25695000Y60840000D02*
X25695000Y61960000D01*
X26949677Y60840000D02*
X26980323Y60840000D01*
X26965000Y60840000D02*
X26965000Y61960000D01*
X28295000Y60840000D02*
X28219677Y60840000D01*
X20555000Y61160000D02*
X20555000Y61960000D01*
X21885000Y61160000D02*
X21885000Y61960000D01*
X20555000Y61960000D02*
X28295000Y61960000D01*
X28295000Y61960000D02*
X28295000Y60840000D01*
G04 #@! TO.C,C26*
X12341000Y26453220D02*
X12341000Y26734380D01*
X13361000Y26453220D02*
X13361000Y26734380D01*
G04 #@! TO.C,R16*
X17160342Y30037300D02*
X17634858Y30037300D01*
X17160342Y28992300D02*
X17634858Y28992300D01*
G04 #@! TO.C,J1*
X-570000Y47870000D02*
X-570000Y49000000D01*
X190000Y47870000D02*
X-570000Y47870000D01*
X950000Y47870000D02*
X5965000Y47870000D01*
X950000Y47870000D02*
X950000Y48436529D01*
X5965000Y47870000D02*
X5965000Y48692470D01*
X5965000Y49307530D02*
X5965000Y49962470D01*
X950000Y49563471D02*
X950000Y49706529D01*
X-505000Y49760000D02*
X-505000Y49962470D01*
X-373471Y49760000D02*
X-505000Y49760000D01*
X896529Y49760000D02*
X753471Y49760000D01*
X-505000Y50577530D02*
X-505000Y51400000D01*
X5965000Y50577530D02*
X5965000Y51400000D01*
X-505000Y51400000D02*
X5965000Y51400000D01*
G04 #@! TO.C,C21*
X14476505Y5625220D02*
X14476505Y5906380D01*
X15496505Y5625220D02*
X15496505Y5906380D01*
G04 #@! TO.C,U9*
X33020000Y11450000D02*
X29570000Y11450000D01*
X33020000Y11450000D02*
X34970000Y11450000D01*
X33020000Y6330000D02*
X31070000Y6330000D01*
X33020000Y6330000D02*
X34970000Y6330000D01*
G04 #@! TO.C,C22*
X11040580Y10290000D02*
X10759420Y10290000D01*
X11040580Y11310000D02*
X10759420Y11310000D01*
G04 #@! TO.C,R15*
X17634858Y30490900D02*
X17160342Y30490900D01*
X17634858Y31535900D02*
X17160342Y31535900D01*
G04 #@! TO.C,C20*
X13870085Y10107200D02*
X13588925Y10107200D01*
X13870085Y11127200D02*
X13588925Y11127200D01*
G04 #@! TO.C,R17*
X28560500Y30242742D02*
X28560500Y30717258D01*
X29605500Y30242742D02*
X29605500Y30717258D01*
G04 #@! TO.C,C13*
X35192580Y11936000D02*
X34911420Y11936000D01*
X35192580Y12956000D02*
X34911420Y12956000D01*
D10*
G04 #@! TO.C,L3*
X19018000Y20150400D02*
X15018000Y20150400D01*
X19018000Y24350400D02*
X15018000Y24350400D01*
D14*
G04 #@! TO.C,U4*
X33593000Y33899000D02*
X30143000Y33899000D01*
X33593000Y33899000D02*
X35543000Y33899000D01*
X33593000Y25029000D02*
X31643000Y25029000D01*
X33593000Y25029000D02*
X35543000Y25029000D01*
G04 #@! TO.C,R7*
X35035258Y23607500D02*
X34560742Y23607500D01*
X35035258Y24652500D02*
X34560742Y24652500D01*
G04 #@! TO.C,U10*
X17037400Y26639100D02*
X17037400Y28439100D01*
X17037400Y26639100D02*
X17037400Y25839100D01*
X13917400Y26639100D02*
X13917400Y27439100D01*
X13917400Y26639100D02*
X13917400Y25839100D01*
G04 #@! TO.C,R8*
X37733500Y20430258D02*
X37733500Y19955742D01*
X36688500Y20430258D02*
X36688500Y19955742D01*
G04 #@! TO.C,J2*
X7790000Y59640000D02*
X7790000Y60400000D01*
X8550000Y59640000D02*
X7790000Y59640000D01*
X10439677Y60840000D02*
X10470323Y60840000D01*
X10455000Y60840000D02*
X10455000Y61960000D01*
X11709677Y60840000D02*
X11740323Y60840000D01*
X11725000Y60840000D02*
X11725000Y61960000D01*
X13055000Y60840000D02*
X12979677Y60840000D01*
X7855000Y61160000D02*
X7855000Y61960000D01*
X9185000Y61160000D02*
X9185000Y61960000D01*
X7855000Y61960000D02*
X13055000Y61960000D01*
X13055000Y61960000D02*
X13055000Y60840000D01*
G04 #@! TO.C,C24*
X10619705Y13196180D02*
X10619705Y12915020D01*
X9599705Y13196180D02*
X9599705Y12915020D01*
G04 #@! TO.C,C25*
X14693380Y29004800D02*
X14412220Y29004800D01*
X14693380Y30024800D02*
X14412220Y30024800D01*
G04 #@! TO.C,C27*
X18005200Y26097620D02*
X18005200Y26378780D01*
X19025200Y26097620D02*
X19025200Y26378780D01*
G04 #@! TO.C,C23*
X14221334Y13113951D02*
X14221334Y12832791D01*
X13201334Y13113951D02*
X13201334Y12832791D01*
G04 #@! TO.C,C19*
X27049000Y31101420D02*
X27049000Y31382580D01*
X28069000Y31101420D02*
X28069000Y31382580D01*
G04 #@! TD*
%LPC*%
D15*
G04 #@! TO.C,U5*
X11271200Y23570400D03*
X11271200Y22620400D03*
X11271200Y21670400D03*
X13546200Y21670400D03*
X13546200Y23570400D03*
G04 #@! TD*
D16*
G04 #@! TO.C,C7*
X6120000Y2781600D03*
X6120000Y1231600D03*
G04 #@! TD*
G04 #@! TO.C,C14*
X9563530Y23714680D03*
X9563530Y22164680D03*
G04 #@! TD*
D17*
G04 #@! TO.C,R9*
X9252400Y19928000D03*
X10902400Y19928000D03*
G04 #@! TD*
D18*
G04 #@! TO.C,C15*
X762000Y18972000D03*
X762000Y21922000D03*
G04 #@! TD*
D17*
G04 #@! TO.C,R4*
X2882000Y1295400D03*
X4532000Y1295400D03*
G04 #@! TD*
D19*
G04 #@! TO.C,U1*
X16500000Y38364800D03*
X18500000Y38364800D03*
X20500000Y38364800D03*
X22500000Y38364800D03*
X24500000Y38364800D03*
X26500000Y38364800D03*
X28500000Y38364800D03*
X30500000Y38364800D03*
D20*
X33100000Y39864800D03*
X33100000Y41864800D03*
X33100000Y43864800D03*
X33100000Y45864800D03*
X33100000Y47864800D03*
X33100000Y49864800D03*
X33100000Y51864800D03*
D19*
X30500000Y53364800D03*
X28500000Y53364800D03*
X26500000Y53364800D03*
X24500000Y53364800D03*
X22500000Y53364800D03*
X20500000Y53364800D03*
X18500000Y53364800D03*
X16500000Y53364800D03*
D20*
X8800000Y45364800D03*
X8800000Y43364800D03*
X8800000Y41364800D03*
G04 #@! TD*
D21*
G04 #@! TO.C,U6*
X16430000Y62600000D03*
X34930000Y62600000D03*
G04 #@! TD*
G04 #@! TO.C,U7*
X17430000Y2100000D03*
X35930000Y2100000D03*
G04 #@! TD*
D22*
G04 #@! TO.C,J6*
X10790000Y-2100000D03*
D23*
X8250000Y-2100000D03*
X5710000Y-2100000D03*
G04 #@! TD*
D24*
G04 #@! TO.C,R10*
X13823400Y19902600D03*
X12173400Y19902600D03*
G04 #@! TD*
G04 #@! TO.C,R12*
X43525000Y36300000D03*
X41875000Y36300000D03*
G04 #@! TD*
G04 #@! TO.C,R3*
X32258700Y21660100D03*
X30608700Y21660100D03*
G04 #@! TD*
D25*
G04 #@! TO.C,C10*
X22021800Y15785800D03*
X22021800Y17335800D03*
G04 #@! TD*
D26*
G04 #@! TO.C,U3*
X28470200Y20473600D03*
X28470200Y20873600D03*
X28470200Y21273600D03*
X28470200Y21673600D03*
X28470200Y22073600D03*
X28470200Y22473600D03*
X28470200Y22873600D03*
X28470200Y23273600D03*
X28470200Y23673600D03*
X28470200Y24073600D03*
X28470200Y24473600D03*
X28470200Y24873600D03*
D27*
X27770200Y25573600D03*
X27370200Y25573600D03*
X26970200Y25573600D03*
X26570200Y25573600D03*
X26170200Y25573600D03*
X25770200Y25573600D03*
X25370200Y25573600D03*
X24970200Y25573600D03*
X24570200Y25573600D03*
X24170200Y25573600D03*
X23770200Y25573600D03*
X23370200Y25573600D03*
D26*
X22670200Y24873600D03*
X22670200Y24473600D03*
X22670200Y24073600D03*
X22670200Y23673600D03*
X22670200Y23273600D03*
X22670200Y22873600D03*
X22670200Y22473600D03*
X22670200Y22073600D03*
X22670200Y21673600D03*
X22670200Y21273600D03*
X22670200Y20873600D03*
X22670200Y20473600D03*
D27*
X23370200Y19773600D03*
X23770200Y19773600D03*
X24170200Y19773600D03*
X24570200Y19773600D03*
X24970200Y19773600D03*
X25370200Y19773600D03*
X25770200Y19773600D03*
X26170200Y19773600D03*
X26570200Y19773600D03*
X26970200Y19773600D03*
X27370200Y19773600D03*
X27770200Y19773600D03*
D28*
X26970200Y21273600D03*
X26970200Y22673600D03*
X26970200Y24073600D03*
X25570200Y21273600D03*
X25570200Y22673600D03*
X25570200Y24073600D03*
X24170200Y21273600D03*
X24170200Y22673600D03*
X24170200Y24073600D03*
G04 #@! TD*
D29*
G04 #@! TO.C,R2*
X23876000Y29882600D03*
X23876000Y28232600D03*
G04 #@! TD*
D25*
G04 #@! TO.C,C5*
X20726400Y22542200D03*
X20726400Y24092200D03*
G04 #@! TD*
D24*
G04 #@! TO.C,R1*
X32246700Y23299600D03*
X30596700Y23299600D03*
G04 #@! TD*
D30*
G04 #@! TO.C,L1*
X30632400Y17324200D03*
X30632400Y14324200D03*
G04 #@! TD*
D16*
G04 #@! TO.C,C4*
X21056600Y20917200D03*
X21056600Y19367200D03*
G04 #@! TD*
D25*
G04 #@! TO.C,C11*
X27482800Y12814000D03*
X27482800Y14364000D03*
G04 #@! TD*
D31*
G04 #@! TO.C,C9*
X23710600Y14935200D03*
X25260600Y14935200D03*
G04 #@! TD*
D25*
G04 #@! TO.C,C1*
X26840000Y27055000D03*
X26840000Y28605000D03*
G04 #@! TD*
G04 #@! TO.C,C6*
X22301200Y27317400D03*
X22301200Y28867400D03*
G04 #@! TD*
D32*
G04 #@! TO.C,R5*
X25474300Y16687800D03*
X23649300Y16687800D03*
G04 #@! TD*
D33*
G04 #@! TO.C,C3*
X23175000Y9525000D03*
X21625000Y9525000D03*
G04 #@! TD*
D24*
G04 #@! TO.C,R11*
X43025000Y44100000D03*
X41375000Y44100000D03*
G04 #@! TD*
D16*
G04 #@! TO.C,C18*
X36900000Y41675000D03*
X36900000Y40125000D03*
G04 #@! TD*
D24*
G04 #@! TO.C,R6*
X42272740Y47400500D03*
X40622740Y47400500D03*
G04 #@! TD*
G04 #@! TO.C,R13*
X42242260Y51756600D03*
X40592260Y51756600D03*
G04 #@! TD*
G04 #@! TO.C,R14*
X42282900Y45678380D03*
X40632900Y45678380D03*
G04 #@! TD*
D34*
G04 #@! TO.C,D1*
X42252820Y48964420D03*
X40652820Y48964420D03*
X40652820Y50144420D03*
X42252820Y50144420D03*
G04 #@! TD*
D35*
G04 #@! TO.C,C17*
X41560000Y42375000D03*
X41560000Y39425000D03*
G04 #@! TD*
D16*
G04 #@! TO.C,C16*
X35500000Y41675000D03*
X35500000Y40125000D03*
G04 #@! TD*
D22*
G04 #@! TO.C,U2*
X39128000Y63240000D03*
D23*
X39128000Y60700000D03*
X39128000Y58160000D03*
X39128000Y55620000D03*
G04 #@! TD*
D25*
G04 #@! TO.C,C2*
X20751800Y25818800D03*
X20751800Y27368800D03*
G04 #@! TD*
G04 #@! TO.C,C8*
X27406600Y15887400D03*
X27406600Y17437400D03*
G04 #@! TD*
D22*
G04 #@! TO.C,J7*
X39570000Y33235000D03*
D23*
X42110000Y33235000D03*
X39570000Y30695000D03*
X42110000Y30695000D03*
X39570000Y28155000D03*
X42110000Y28155000D03*
X39570000Y25615000D03*
X42110000Y25615000D03*
X39570000Y23075000D03*
X42110000Y23075000D03*
X39570000Y20535000D03*
X42110000Y20535000D03*
X39570000Y17995000D03*
X42110000Y17995000D03*
X39570000Y15455000D03*
X42110000Y15455000D03*
X39570000Y12915000D03*
X42110000Y12915000D03*
X39570000Y10375000D03*
X42110000Y10375000D03*
X39570000Y7835000D03*
X42110000Y7835000D03*
X39570000Y5295000D03*
X42110000Y5295000D03*
D22*
X4560000Y33235000D03*
D23*
X4560000Y30695000D03*
X4560000Y28155000D03*
X4560000Y25615000D03*
X4560000Y23075000D03*
X4560000Y20535000D03*
X4560000Y17995000D03*
X4560000Y15455000D03*
X4560000Y12915000D03*
X4560000Y10375000D03*
X4560000Y7835000D03*
X4560000Y5295000D03*
D22*
X7100000Y5295000D03*
D23*
X7100000Y7835000D03*
X7100000Y10375000D03*
X7100000Y12915000D03*
D22*
X7100000Y15455000D03*
D23*
X7100000Y17995000D03*
X7100000Y20535000D03*
X7100000Y23075000D03*
G04 #@! TD*
D36*
G04 #@! TO.C,U8*
X13686334Y8731271D03*
X13036334Y8731271D03*
X12386334Y8731271D03*
X11736334Y8731271D03*
X11086334Y8731271D03*
X10436334Y8731271D03*
X9786334Y8731271D03*
X9136334Y8731271D03*
X9136334Y3006271D03*
X9786334Y3006271D03*
X10436334Y3006271D03*
X11086334Y3006271D03*
X11736334Y3006271D03*
X12386334Y3006271D03*
X13036334Y3006271D03*
X13686334Y3006271D03*
G04 #@! TD*
D37*
G04 #@! TO.C,C12*
X30198000Y12446000D03*
X29238000Y12446000D03*
G04 #@! TD*
D38*
G04 #@! TO.C,J8*
X21250000Y60400000D03*
D39*
X22520000Y60400000D03*
X23790000Y60400000D03*
X25060000Y60400000D03*
X26330000Y60400000D03*
X27600000Y60400000D03*
G04 #@! TD*
D25*
G04 #@! TO.C,C26*
X12851000Y25818800D03*
X12851000Y27368800D03*
G04 #@! TD*
D17*
G04 #@! TO.C,R16*
X16572600Y29514800D03*
X18222600Y29514800D03*
G04 #@! TD*
D38*
G04 #@! TO.C,J1*
X190000Y49000000D03*
D39*
X190000Y50270000D03*
X1460000Y49000000D03*
X1460000Y50270000D03*
X2730000Y49000000D03*
X2730000Y50270000D03*
X4000000Y49000000D03*
X4000000Y50270000D03*
X5270000Y49000000D03*
X5270000Y50270000D03*
G04 #@! TD*
D25*
G04 #@! TO.C,C21*
X14986505Y4990800D03*
X14986505Y6540800D03*
G04 #@! TD*
D40*
G04 #@! TO.C,U9*
X30545000Y10795000D03*
X30545000Y9525000D03*
X30545000Y8255000D03*
X30545000Y6985000D03*
X35495000Y6985000D03*
X35495000Y8255000D03*
X35495000Y9525000D03*
X35495000Y10795000D03*
G04 #@! TD*
D33*
G04 #@! TO.C,C22*
X11675000Y10800000D03*
X10125000Y10800000D03*
G04 #@! TD*
D24*
G04 #@! TO.C,R15*
X18222600Y31013400D03*
X16572600Y31013400D03*
G04 #@! TD*
D33*
G04 #@! TO.C,C20*
X14504505Y10617200D03*
X12954505Y10617200D03*
G04 #@! TD*
D41*
G04 #@! TO.C,Y1*
X28002000Y10374000D03*
X28002000Y7874000D03*
G04 #@! TD*
D42*
G04 #@! TO.C,R17*
X29083000Y29655000D03*
X29083000Y31305000D03*
G04 #@! TD*
D33*
G04 #@! TO.C,C13*
X35827000Y12446000D03*
X34277000Y12446000D03*
G04 #@! TD*
D43*
G04 #@! TO.C,L3*
X18518000Y22250400D03*
X15518000Y22250400D03*
G04 #@! TD*
D40*
G04 #@! TO.C,U4*
X31118000Y33274000D03*
X31118000Y32004000D03*
X31118000Y30734000D03*
X31118000Y29464000D03*
X31118000Y28194000D03*
X31118000Y26924000D03*
X31118000Y25654000D03*
X36068000Y25654000D03*
X36068000Y26924000D03*
X36068000Y28194000D03*
X36068000Y29464000D03*
X36068000Y30734000D03*
X36068000Y32004000D03*
X36068000Y33274000D03*
G04 #@! TD*
D24*
G04 #@! TO.C,R7*
X35623000Y24130000D03*
X33973000Y24130000D03*
G04 #@! TD*
D44*
G04 #@! TO.C,U10*
X16427400Y27776600D03*
X15477400Y27776600D03*
X14527400Y27776600D03*
X14527400Y25501600D03*
X15477400Y25501600D03*
X16427400Y25501600D03*
G04 #@! TD*
D29*
G04 #@! TO.C,R8*
X37211000Y21018000D03*
X37211000Y19368000D03*
G04 #@! TD*
D38*
G04 #@! TO.C,J2*
X8550000Y60400000D03*
D39*
X9820000Y60400000D03*
X11090000Y60400000D03*
X12360000Y60400000D03*
G04 #@! TD*
D16*
G04 #@! TO.C,C24*
X10109705Y13830600D03*
X10109705Y12280600D03*
G04 #@! TD*
D33*
G04 #@! TO.C,C25*
X15327800Y29514800D03*
X13777800Y29514800D03*
G04 #@! TD*
D25*
G04 #@! TO.C,C27*
X18515200Y25463200D03*
X18515200Y27013200D03*
G04 #@! TD*
D16*
G04 #@! TO.C,C23*
X13711334Y13748371D03*
X13711334Y12198371D03*
G04 #@! TD*
D25*
G04 #@! TO.C,C19*
X27559000Y30467000D03*
X27559000Y32017000D03*
G04 #@! TD*
D22*
G04 #@! TO.C,SW1*
X28830000Y-1670000D03*
D23*
X26290000Y-1670000D03*
G04 #@! TD*
D45*
G04 #@! TO.C,J9*
X3450000Y43357800D03*
D46*
X5990000Y45897800D03*
X910000Y45897800D03*
X5990000Y40817800D03*
X910000Y40817800D03*
G04 #@! TD*
D38*
G04 #@! TO.C,J10*
X1950000Y34505000D03*
D39*
X1950000Y33235000D03*
X1950000Y31965000D03*
X1950000Y30695000D03*
X1950000Y29425000D03*
X1950000Y28155000D03*
X1950000Y26885000D03*
X1950000Y25615000D03*
X1950000Y24345000D03*
G04 #@! TD*
D38*
G04 #@! TO.C,J4*
X1950000Y16725000D03*
D39*
X1950000Y15455000D03*
X1950000Y14185000D03*
X1950000Y12915000D03*
X1950000Y11645000D03*
X1950000Y10375000D03*
X1950000Y9105000D03*
X1950000Y7835000D03*
X1950000Y6565000D03*
G04 #@! TD*
D38*
G04 #@! TO.C,J5*
X1950000Y56095000D03*
D39*
X1950000Y54825000D03*
X1950000Y53555000D03*
X1950000Y52285000D03*
G04 #@! TD*
%LPD*%
M02*
