G04 #@! TF.GenerationSoftware,KiCad,Pcbnew,7.0.11-7.0.11~ubuntu23.10.1*
G04 #@! TF.CreationDate,2024-06-16T14:32:52+02:00*
G04 #@! TF.ProjectId,WiRoc_NanoPi,5769526f-635f-44e6-916e-6f50692e6b69,rev?*
G04 #@! TF.SameCoordinates,Original*
G04 #@! TF.FileFunction,Other,User*
%FSLAX46Y46*%
G04 Gerber Fmt 4.6, Leading zero omitted, Abs format (unit mm)*
G04 Created by KiCad (PCBNEW 7.0.11-7.0.11~ubuntu23.10.1) date 2024-06-16 14:32:52*
%MOMM*%
%LPD*%
G01*
G04 APERTURE LIST*
%ADD10C,0.050000*%
%ADD11C,0.150000*%
G04 APERTURE END LIST*
D10*
G04 #@! TO.C,U5*
X10358700Y24320400D02*
X10358700Y20920400D01*
X10358700Y20920400D02*
X14458700Y20920400D01*
X14458700Y24320400D02*
X10358700Y24320400D01*
X14458700Y20920400D02*
X14458700Y24320400D01*
G04 #@! TO.C,C7*
X6850000Y3486600D02*
X6850000Y526600D01*
X5390000Y3486600D02*
X6850000Y3486600D01*
X6850000Y526600D02*
X5390000Y526600D01*
X5390000Y526600D02*
X5390000Y3486600D01*
G04 #@! TO.C,C14*
X10293530Y24419680D02*
X10293530Y21459680D01*
X8833530Y24419680D02*
X10293530Y24419680D01*
X10293530Y21459680D02*
X8833530Y21459680D01*
X8833530Y21459680D02*
X8833530Y24419680D01*
G04 #@! TO.C,R9*
X8597400Y20658000D02*
X11557400Y20658000D01*
X8597400Y19198000D02*
X8597400Y20658000D01*
X11557400Y20658000D02*
X11557400Y19198000D01*
X11557400Y19198000D02*
X8597400Y19198000D01*
G04 #@! TO.C,C15*
X-388000Y18147000D02*
X-388000Y22747000D01*
X1912000Y18147000D02*
X-388000Y18147000D01*
X-388000Y22747000D02*
X1912000Y22747000D01*
X1912000Y22747000D02*
X1912000Y18147000D01*
G04 #@! TO.C,R4*
X2227000Y2025400D02*
X5187000Y2025400D01*
X2227000Y565400D02*
X2227000Y2025400D01*
X5187000Y2025400D02*
X5187000Y565400D01*
X5187000Y565400D02*
X2227000Y565400D01*
G04 #@! TO.C,J6*
X12590000Y-300000D02*
X3940000Y-300000D01*
X3940000Y-300000D02*
X3940000Y-3200000D01*
X12590000Y-3200000D02*
X12590000Y-300000D01*
X3940000Y-3200000D02*
X12590000Y-3200000D01*
G04 #@! TO.C,R10*
X14478400Y19172600D02*
X11518400Y19172600D01*
X14478400Y20632600D02*
X14478400Y19172600D01*
X11518400Y19172600D02*
X11518400Y20632600D01*
X11518400Y20632600D02*
X14478400Y20632600D01*
G04 #@! TO.C,R12*
X44180000Y35570000D02*
X41220000Y35570000D01*
X44180000Y37030000D02*
X44180000Y35570000D01*
X41220000Y35570000D02*
X41220000Y37030000D01*
X41220000Y37030000D02*
X44180000Y37030000D01*
G04 #@! TO.C,R3*
X32913700Y20930100D02*
X29953700Y20930100D01*
X32913700Y22390100D02*
X32913700Y20930100D01*
X29953700Y20930100D02*
X29953700Y22390100D01*
X29953700Y22390100D02*
X32913700Y22390100D01*
G04 #@! TO.C,C10*
X21291800Y15080800D02*
X21291800Y18040800D01*
X22751800Y15080800D02*
X21291800Y15080800D01*
X21291800Y18040800D02*
X22751800Y18040800D01*
X22751800Y18040800D02*
X22751800Y15080800D01*
G04 #@! TO.C,R2*
X24606000Y30537600D02*
X24606000Y27577600D01*
X23146000Y30537600D02*
X24606000Y30537600D01*
X24606000Y27577600D02*
X23146000Y27577600D01*
X23146000Y27577600D02*
X23146000Y30537600D01*
G04 #@! TO.C,C5*
X19996400Y21837200D02*
X19996400Y24797200D01*
X21456400Y21837200D02*
X19996400Y21837200D01*
X19996400Y24797200D02*
X21456400Y24797200D01*
X21456400Y24797200D02*
X21456400Y21837200D01*
G04 #@! TO.C,R1*
X32901700Y22569600D02*
X29941700Y22569600D01*
X32901700Y24029600D02*
X32901700Y22569600D01*
X29941700Y22569600D02*
X29941700Y24029600D01*
X29941700Y24029600D02*
X32901700Y24029600D01*
G04 #@! TO.C,L1*
X32882400Y18074200D02*
X28382400Y18074200D01*
X28382400Y18074200D02*
X28382400Y13574200D01*
X32882400Y13574200D02*
X32882400Y18074200D01*
X28382400Y13574200D02*
X32882400Y13574200D01*
G04 #@! TO.C,C4*
X21786600Y21622200D02*
X21786600Y18662200D01*
X20326600Y21622200D02*
X21786600Y21622200D01*
X21786600Y18662200D02*
X20326600Y18662200D01*
X20326600Y18662200D02*
X20326600Y21622200D01*
G04 #@! TO.C,C11*
X26752800Y12109000D02*
X26752800Y15069000D01*
X28212800Y12109000D02*
X26752800Y12109000D01*
X26752800Y15069000D02*
X28212800Y15069000D01*
X28212800Y15069000D02*
X28212800Y12109000D01*
G04 #@! TO.C,C9*
X23005600Y15665200D02*
X25965600Y15665200D01*
X23005600Y14205200D02*
X23005600Y15665200D01*
X25965600Y15665200D02*
X25965600Y14205200D01*
X25965600Y14205200D02*
X23005600Y14205200D01*
G04 #@! TO.C,C1*
X26110000Y26350000D02*
X26110000Y29310000D01*
X27570000Y26350000D02*
X26110000Y26350000D01*
X26110000Y29310000D02*
X27570000Y29310000D01*
X27570000Y29310000D02*
X27570000Y26350000D01*
G04 #@! TO.C,C6*
X21571200Y26612400D02*
X21571200Y29572400D01*
X23031200Y26612400D02*
X21571200Y26612400D01*
X21571200Y29572400D02*
X23031200Y29572400D01*
X23031200Y29572400D02*
X23031200Y26612400D01*
G04 #@! TO.C,R5*
X26241800Y15737800D02*
X22881800Y15737800D01*
X26241800Y17637800D02*
X26241800Y15737800D01*
X22881800Y15737800D02*
X22881800Y17637800D01*
X22881800Y17637800D02*
X26241800Y17637800D01*
G04 #@! TO.C,C3*
X23880000Y8795000D02*
X20920000Y8795000D01*
X23880000Y10255000D02*
X23880000Y8795000D01*
X20920000Y8795000D02*
X20920000Y10255000D01*
X20920000Y10255000D02*
X23880000Y10255000D01*
G04 #@! TO.C,R11*
X43680000Y43370000D02*
X40720000Y43370000D01*
X43680000Y44830000D02*
X43680000Y43370000D01*
X40720000Y43370000D02*
X40720000Y44830000D01*
X40720000Y44830000D02*
X43680000Y44830000D01*
G04 #@! TO.C,C18*
X37630000Y42380000D02*
X37630000Y39420000D01*
X36170000Y42380000D02*
X37630000Y42380000D01*
X37630000Y39420000D02*
X36170000Y39420000D01*
X36170000Y39420000D02*
X36170000Y42380000D01*
G04 #@! TO.C,R6*
X42927740Y46670500D02*
X39967740Y46670500D01*
X42927740Y48130500D02*
X42927740Y46670500D01*
X39967740Y46670500D02*
X39967740Y48130500D01*
X39967740Y48130500D02*
X42927740Y48130500D01*
G04 #@! TO.C,R13*
X42897260Y51026600D02*
X39937260Y51026600D01*
X42897260Y52486600D02*
X42897260Y51026600D01*
X39937260Y51026600D02*
X39937260Y52486600D01*
X39937260Y52486600D02*
X42897260Y52486600D01*
G04 #@! TO.C,R14*
X42937900Y44948380D02*
X39977900Y44948380D01*
X42937900Y46408380D02*
X42937900Y44948380D01*
X39977900Y44948380D02*
X39977900Y46408380D01*
X39977900Y46408380D02*
X42937900Y46408380D01*
D11*
G04 #@! TO.C,D1*
X40002820Y50654420D02*
X40002820Y48454420D01*
X40002820Y48454420D02*
X42902820Y48454420D01*
X42902820Y50654420D02*
X40002820Y50654420D01*
X42902820Y48454420D02*
X42902820Y50654420D01*
D10*
G04 #@! TO.C,C17*
X42710000Y43200000D02*
X42710000Y38600000D01*
X40410000Y43200000D02*
X42710000Y43200000D01*
X42710000Y38600000D02*
X40410000Y38600000D01*
X40410000Y38600000D02*
X40410000Y43200000D01*
G04 #@! TO.C,C16*
X36230000Y42380000D02*
X36230000Y39420000D01*
X34770000Y42380000D02*
X36230000Y42380000D01*
X36230000Y39420000D02*
X34770000Y39420000D01*
X34770000Y39420000D02*
X34770000Y42380000D01*
G04 #@! TO.C,U2*
X37328000Y65040000D02*
X37328000Y53840000D01*
X37328000Y53840000D02*
X40928000Y53840000D01*
X40928000Y65040000D02*
X37328000Y65040000D01*
X40928000Y53840000D02*
X40928000Y65040000D01*
G04 #@! TO.C,C2*
X20021800Y25113800D02*
X20021800Y28073800D01*
X21481800Y25113800D02*
X20021800Y25113800D01*
X20021800Y28073800D02*
X21481800Y28073800D01*
X21481800Y28073800D02*
X21481800Y25113800D01*
G04 #@! TO.C,C8*
X26676600Y15182400D02*
X26676600Y18142400D01*
X28136600Y15182400D02*
X26676600Y15182400D01*
X26676600Y18142400D02*
X28136600Y18142400D01*
X28136600Y18142400D02*
X28136600Y15182400D01*
G04 #@! TO.C,J7*
X2760000Y35035000D02*
X2760000Y3485000D01*
X2760000Y3485000D02*
X8910000Y3485000D01*
X6360000Y35035000D02*
X2760000Y35035000D01*
X6360000Y24885000D02*
X6360000Y35035000D01*
X8910000Y24885000D02*
X6360000Y24885000D01*
X8910000Y3485000D02*
X8910000Y24885000D01*
X37770000Y35035000D02*
X37770000Y3485000D01*
X37770000Y3485000D02*
X43440000Y3485000D01*
X43440000Y35035000D02*
X37770000Y35035000D01*
X43440000Y3485000D02*
X43440000Y35035000D01*
G04 #@! TO.C,U8*
X14161334Y9718771D02*
X8661334Y9718771D01*
X8661334Y9718771D02*
X8661334Y2018771D01*
X14161334Y2018771D02*
X14161334Y9718771D01*
X8661334Y2018771D02*
X14161334Y2018771D01*
G04 #@! TO.C,C12*
X30628000Y11986000D02*
X28808000Y11986000D01*
X30628000Y12906000D02*
X30628000Y11986000D01*
X28808000Y11986000D02*
X28808000Y12906000D01*
X28808000Y12906000D02*
X30628000Y12906000D01*
G04 #@! TO.C,J8*
X20100000Y59250000D02*
X28750000Y59250000D01*
X28750000Y59250000D02*
X28750000Y66400000D01*
X20100000Y66400000D02*
X20100000Y59250000D01*
X28750000Y66400000D02*
X20100000Y66400000D01*
G04 #@! TO.C,C26*
X12121000Y25113800D02*
X12121000Y28073800D01*
X13581000Y25113800D02*
X12121000Y25113800D01*
X12121000Y28073800D02*
X13581000Y28073800D01*
X13581000Y28073800D02*
X13581000Y25113800D01*
G04 #@! TO.C,R16*
X15917600Y30244800D02*
X18877600Y30244800D01*
X15917600Y28784800D02*
X15917600Y30244800D01*
X18877600Y30244800D02*
X18877600Y28784800D01*
X18877600Y28784800D02*
X15917600Y28784800D01*
G04 #@! TO.C,J1*
X-960000Y47400000D02*
X6440000Y47400000D01*
X6440000Y47400000D02*
X6440000Y51850000D01*
X-960000Y51850000D02*
X-960000Y47400000D01*
X6440000Y51850000D02*
X-960000Y51850000D01*
G04 #@! TO.C,C21*
X14256505Y4285800D02*
X14256505Y7245800D01*
X15716505Y4285800D02*
X14256505Y4285800D01*
X14256505Y7245800D02*
X15716505Y7245800D01*
X15716505Y7245800D02*
X15716505Y4285800D01*
G04 #@! TO.C,U9*
X29320000Y11590000D02*
X29320000Y6190000D01*
X29320000Y6190000D02*
X36720000Y6190000D01*
X36720000Y11590000D02*
X29320000Y11590000D01*
X36720000Y6190000D02*
X36720000Y11590000D01*
G04 #@! TO.C,C22*
X12380000Y10070000D02*
X9420000Y10070000D01*
X12380000Y11530000D02*
X12380000Y10070000D01*
X9420000Y10070000D02*
X9420000Y11530000D01*
X9420000Y11530000D02*
X12380000Y11530000D01*
G04 #@! TO.C,R15*
X18877600Y30283400D02*
X15917600Y30283400D01*
X18877600Y31743400D02*
X18877600Y30283400D01*
X15917600Y30283400D02*
X15917600Y31743400D01*
X15917600Y31743400D02*
X18877600Y31743400D01*
G04 #@! TO.C,C20*
X15209505Y9887200D02*
X12249505Y9887200D01*
X15209505Y11347200D02*
X15209505Y9887200D01*
X12249505Y9887200D02*
X12249505Y11347200D01*
X12249505Y11347200D02*
X15209505Y11347200D01*
G04 #@! TO.C,R17*
X28353000Y29000000D02*
X28353000Y31960000D01*
X29813000Y29000000D02*
X28353000Y29000000D01*
X28353000Y31960000D02*
X29813000Y31960000D01*
X29813000Y31960000D02*
X29813000Y29000000D01*
G04 #@! TO.C,C13*
X36532000Y11716000D02*
X33572000Y11716000D01*
X36532000Y13176000D02*
X36532000Y11716000D01*
X33572000Y11716000D02*
X33572000Y13176000D01*
X33572000Y13176000D02*
X36532000Y13176000D01*
G04 #@! TO.C,L3*
X19268000Y20000400D02*
X19268000Y24500400D01*
X19268000Y24500400D02*
X14768000Y24500400D01*
X14768000Y20000400D02*
X19268000Y20000400D01*
X14768000Y24500400D02*
X14768000Y20000400D01*
G04 #@! TO.C,U4*
X29893000Y34044000D02*
X29893000Y24884000D01*
X29893000Y24884000D02*
X37293000Y24884000D01*
X37293000Y34044000D02*
X29893000Y34044000D01*
X37293000Y24884000D02*
X37293000Y34044000D01*
G04 #@! TO.C,R7*
X36278000Y23400000D02*
X33318000Y23400000D01*
X36278000Y24860000D02*
X36278000Y23400000D01*
X33318000Y23400000D02*
X33318000Y24860000D01*
X33318000Y24860000D02*
X36278000Y24860000D01*
G04 #@! TO.C,U10*
X17177400Y28689100D02*
X13777400Y28689100D01*
X13777400Y28689100D02*
X13777400Y24589100D01*
X17177400Y24589100D02*
X17177400Y28689100D01*
X13777400Y24589100D02*
X17177400Y24589100D01*
G04 #@! TO.C,R8*
X37941000Y21673000D02*
X37941000Y18713000D01*
X36481000Y21673000D02*
X37941000Y21673000D01*
X37941000Y18713000D02*
X36481000Y18713000D01*
X36481000Y18713000D02*
X36481000Y21673000D01*
G04 #@! TO.C,J2*
X7400000Y59250000D02*
X13500000Y59250000D01*
X13500000Y59250000D02*
X13500000Y66400000D01*
X7400000Y66400000D02*
X7400000Y59250000D01*
X13500000Y66400000D02*
X7400000Y66400000D01*
G04 #@! TO.C,C24*
X10839705Y14535600D02*
X10839705Y11575600D01*
X9379705Y14535600D02*
X10839705Y14535600D01*
X10839705Y11575600D02*
X9379705Y11575600D01*
X9379705Y11575600D02*
X9379705Y14535600D01*
G04 #@! TO.C,C25*
X16032800Y28784800D02*
X13072800Y28784800D01*
X16032800Y30244800D02*
X16032800Y28784800D01*
X13072800Y28784800D02*
X13072800Y30244800D01*
X13072800Y30244800D02*
X16032800Y30244800D01*
G04 #@! TO.C,C27*
X17785200Y24758200D02*
X17785200Y27718200D01*
X19245200Y24758200D02*
X17785200Y24758200D01*
X17785200Y27718200D02*
X19245200Y27718200D01*
X19245200Y27718200D02*
X19245200Y24758200D01*
G04 #@! TO.C,C23*
X14441334Y14453371D02*
X14441334Y11493371D01*
X12981334Y14453371D02*
X14441334Y14453371D01*
X14441334Y11493371D02*
X12981334Y11493371D01*
X12981334Y11493371D02*
X12981334Y14453371D01*
G04 #@! TO.C,C19*
X26829000Y29762000D02*
X26829000Y32722000D01*
X28289000Y29762000D02*
X26829000Y29762000D01*
X26829000Y32722000D02*
X28289000Y32722000D01*
X28289000Y32722000D02*
X28289000Y29762000D01*
G04 #@! TD*
M02*
