G04 #@! TF.GenerationSoftware,KiCad,Pcbnew,7.0.11-7.0.11~ubuntu23.10.1*
G04 #@! TF.CreationDate,2024-06-16T14:32:52+02:00*
G04 #@! TF.ProjectId,WiRoc_NanoPi,5769526f-635f-44e6-916e-6f50692e6b69,rev?*
G04 #@! TF.SameCoordinates,Original*
G04 #@! TF.FileFunction,Soldermask,Top*
G04 #@! TF.FilePolarity,Negative*
%FSLAX46Y46*%
G04 Gerber Fmt 4.6, Leading zero omitted, Abs format (unit mm)*
G04 Created by KiCad (PCBNEW 7.0.11-7.0.11~ubuntu23.10.1) date 2024-06-16 14:32:52*
%MOMM*%
%LPD*%
G01*
G04 APERTURE LIST*
G04 Aperture macros list*
%AMRoundRect*
0 Rectangle with rounded corners*
0 $1 Rounding radius*
0 $2 $3 $4 $5 $6 $7 $8 $9 X,Y pos of 4 corners*
0 Add a 4 corners polygon primitive as box body*
4,1,4,$2,$3,$4,$5,$6,$7,$8,$9,$2,$3,0*
0 Add four circle primitives for the rounded corners*
1,1,$1+$1,$2,$3*
1,1,$1+$1,$4,$5*
1,1,$1+$1,$6,$7*
1,1,$1+$1,$8,$9*
0 Add four rect primitives between the rounded corners*
20,1,$1+$1,$2,$3,$4,$5,0*
20,1,$1+$1,$4,$5,$6,$7,0*
20,1,$1+$1,$6,$7,$8,$9,0*
20,1,$1+$1,$8,$9,$2,$3,0*%
G04 Aperture macros list end*
%ADD10RoundRect,0.150000X-0.512500X-0.150000X0.512500X-0.150000X0.512500X0.150000X-0.512500X0.150000X0*%
%ADD11RoundRect,0.225000X-0.250000X0.225000X-0.250000X-0.225000X0.250000X-0.225000X0.250000X0.225000X0*%
%ADD12RoundRect,0.200000X-0.200000X-0.275000X0.200000X-0.275000X0.200000X0.275000X-0.200000X0.275000X0*%
%ADD13RoundRect,0.250000X0.650000X-0.325000X0.650000X0.325000X-0.650000X0.325000X-0.650000X-0.325000X0*%
%ADD14R,1.200000X2.800000*%
%ADD15R,2.800000X1.200000*%
%ADD16R,6.000000X4.000000*%
%ADD17R,1.700000X1.700000*%
%ADD18O,1.700000X1.700000*%
%ADD19RoundRect,0.200000X0.200000X0.275000X-0.200000X0.275000X-0.200000X-0.275000X0.200000X-0.275000X0*%
%ADD20RoundRect,0.225000X0.250000X-0.225000X0.250000X0.225000X-0.250000X0.225000X-0.250000X-0.225000X0*%
%ADD21O,0.700000X0.200000*%
%ADD22O,0.200000X0.700000*%
%ADD23R,1.400000X1.400000*%
%ADD24RoundRect,0.200000X-0.275000X0.200000X-0.275000X-0.200000X0.275000X-0.200000X0.275000X0.200000X0*%
%ADD25R,3.700000X1.100000*%
%ADD26RoundRect,0.225000X-0.225000X-0.250000X0.225000X-0.250000X0.225000X0.250000X-0.225000X0.250000X0*%
%ADD27RoundRect,0.250000X0.262500X0.450000X-0.262500X0.450000X-0.262500X-0.450000X0.262500X-0.450000X0*%
%ADD28RoundRect,0.225000X0.225000X0.250000X-0.225000X0.250000X-0.225000X-0.250000X0.225000X-0.250000X0*%
%ADD29R,1.000000X0.720000*%
%ADD30RoundRect,0.250000X-0.650000X0.325000X-0.650000X-0.325000X0.650000X-0.325000X0.650000X0.325000X0*%
%ADD31RoundRect,0.100000X-0.100000X0.637500X-0.100000X-0.637500X0.100000X-0.637500X0.100000X0.637500X0*%
%ADD32RoundRect,0.140000X0.140000X0.170000X-0.140000X0.170000X-0.140000X-0.170000X0.140000X-0.170000X0*%
%ADD33R,1.000000X1.000000*%
%ADD34O,1.000000X1.000000*%
%ADD35RoundRect,0.150000X-0.825000X-0.150000X0.825000X-0.150000X0.825000X0.150000X-0.825000X0.150000X0*%
%ADD36R,1.800000X1.000000*%
%ADD37RoundRect,0.200000X0.275000X-0.200000X0.275000X0.200000X-0.275000X0.200000X-0.275000X-0.200000X0*%
%ADD38R,1.100000X3.700000*%
%ADD39RoundRect,0.150000X-0.150000X0.512500X-0.150000X-0.512500X0.150000X-0.512500X0.150000X0.512500X0*%
%ADD40RoundRect,0.200100X-0.949900X0.949900X-0.949900X-0.949900X0.949900X-0.949900X0.949900X0.949900X0*%
%ADD41C,2.500000*%
G04 APERTURE END LIST*
D10*
G04 #@! TO.C,U5*
X11271200Y23570400D03*
X11271200Y22620400D03*
X11271200Y21670400D03*
X13546200Y21670400D03*
X13546200Y23570400D03*
G04 #@! TD*
D11*
G04 #@! TO.C,C7*
X6120000Y2781600D03*
X6120000Y1231600D03*
G04 #@! TD*
G04 #@! TO.C,C14*
X9563530Y23714680D03*
X9563530Y22164680D03*
G04 #@! TD*
D12*
G04 #@! TO.C,R9*
X9252400Y19928000D03*
X10902400Y19928000D03*
G04 #@! TD*
D13*
G04 #@! TO.C,C15*
X762000Y18972000D03*
X762000Y21922000D03*
G04 #@! TD*
D12*
G04 #@! TO.C,R4*
X2882000Y1295400D03*
X4532000Y1295400D03*
G04 #@! TD*
D14*
G04 #@! TO.C,U1*
X16500000Y38364800D03*
X18500000Y38364800D03*
X20500000Y38364800D03*
X22500000Y38364800D03*
X24500000Y38364800D03*
X26500000Y38364800D03*
X28500000Y38364800D03*
X30500000Y38364800D03*
D15*
X33100000Y39864800D03*
X33100000Y41864800D03*
X33100000Y43864800D03*
X33100000Y45864800D03*
X33100000Y47864800D03*
X33100000Y49864800D03*
X33100000Y51864800D03*
D14*
X30500000Y53364800D03*
X28500000Y53364800D03*
X26500000Y53364800D03*
X24500000Y53364800D03*
X22500000Y53364800D03*
X20500000Y53364800D03*
X18500000Y53364800D03*
X16500000Y53364800D03*
D15*
X8800000Y45364800D03*
X8800000Y43364800D03*
X8800000Y41364800D03*
G04 #@! TD*
D16*
G04 #@! TO.C,U6*
X16430000Y62600000D03*
X34930000Y62600000D03*
G04 #@! TD*
G04 #@! TO.C,U7*
X17430000Y2100000D03*
X35930000Y2100000D03*
G04 #@! TD*
D17*
G04 #@! TO.C,J6*
X10790000Y-2100000D03*
D18*
X8250000Y-2100000D03*
X5710000Y-2100000D03*
G04 #@! TD*
D19*
G04 #@! TO.C,R10*
X13823400Y19902600D03*
X12173400Y19902600D03*
G04 #@! TD*
G04 #@! TO.C,R12*
X43525000Y36300000D03*
X41875000Y36300000D03*
G04 #@! TD*
G04 #@! TO.C,R3*
X32258700Y21660100D03*
X30608700Y21660100D03*
G04 #@! TD*
D20*
G04 #@! TO.C,C10*
X22021800Y15785800D03*
X22021800Y17335800D03*
G04 #@! TD*
D21*
G04 #@! TO.C,U3*
X28470200Y20473600D03*
X28470200Y20873600D03*
X28470200Y21273600D03*
X28470200Y21673600D03*
X28470200Y22073600D03*
X28470200Y22473600D03*
X28470200Y22873600D03*
X28470200Y23273600D03*
X28470200Y23673600D03*
X28470200Y24073600D03*
X28470200Y24473600D03*
X28470200Y24873600D03*
D22*
X27770200Y25573600D03*
X27370200Y25573600D03*
X26970200Y25573600D03*
X26570200Y25573600D03*
X26170200Y25573600D03*
X25770200Y25573600D03*
X25370200Y25573600D03*
X24970200Y25573600D03*
X24570200Y25573600D03*
X24170200Y25573600D03*
X23770200Y25573600D03*
X23370200Y25573600D03*
D21*
X22670200Y24873600D03*
X22670200Y24473600D03*
X22670200Y24073600D03*
X22670200Y23673600D03*
X22670200Y23273600D03*
X22670200Y22873600D03*
X22670200Y22473600D03*
X22670200Y22073600D03*
X22670200Y21673600D03*
X22670200Y21273600D03*
X22670200Y20873600D03*
X22670200Y20473600D03*
D22*
X23370200Y19773600D03*
X23770200Y19773600D03*
X24170200Y19773600D03*
X24570200Y19773600D03*
X24970200Y19773600D03*
X25370200Y19773600D03*
X25770200Y19773600D03*
X26170200Y19773600D03*
X26570200Y19773600D03*
X26970200Y19773600D03*
X27370200Y19773600D03*
X27770200Y19773600D03*
D23*
X26970200Y21273600D03*
X26970200Y22673600D03*
X26970200Y24073600D03*
X25570200Y21273600D03*
X25570200Y22673600D03*
X25570200Y24073600D03*
X24170200Y21273600D03*
X24170200Y22673600D03*
X24170200Y24073600D03*
G04 #@! TD*
D24*
G04 #@! TO.C,R2*
X23876000Y29882600D03*
X23876000Y28232600D03*
G04 #@! TD*
D20*
G04 #@! TO.C,C5*
X20726400Y22542200D03*
X20726400Y24092200D03*
G04 #@! TD*
D19*
G04 #@! TO.C,R1*
X32246700Y23299600D03*
X30596700Y23299600D03*
G04 #@! TD*
D25*
G04 #@! TO.C,L1*
X30632400Y17324200D03*
X30632400Y14324200D03*
G04 #@! TD*
D11*
G04 #@! TO.C,C4*
X21056600Y20917200D03*
X21056600Y19367200D03*
G04 #@! TD*
D20*
G04 #@! TO.C,C11*
X27482800Y12814000D03*
X27482800Y14364000D03*
G04 #@! TD*
D26*
G04 #@! TO.C,C9*
X23710600Y14935200D03*
X25260600Y14935200D03*
G04 #@! TD*
D20*
G04 #@! TO.C,C1*
X26840000Y27055000D03*
X26840000Y28605000D03*
G04 #@! TD*
G04 #@! TO.C,C6*
X22301200Y27317400D03*
X22301200Y28867400D03*
G04 #@! TD*
D27*
G04 #@! TO.C,R5*
X25474300Y16687800D03*
X23649300Y16687800D03*
G04 #@! TD*
D28*
G04 #@! TO.C,C3*
X23175000Y9525000D03*
X21625000Y9525000D03*
G04 #@! TD*
D19*
G04 #@! TO.C,R11*
X43025000Y44100000D03*
X41375000Y44100000D03*
G04 #@! TD*
D11*
G04 #@! TO.C,C18*
X36900000Y41675000D03*
X36900000Y40125000D03*
G04 #@! TD*
D19*
G04 #@! TO.C,R6*
X42272740Y47400500D03*
X40622740Y47400500D03*
G04 #@! TD*
G04 #@! TO.C,R13*
X42242260Y51756600D03*
X40592260Y51756600D03*
G04 #@! TD*
G04 #@! TO.C,R14*
X42282900Y45678380D03*
X40632900Y45678380D03*
G04 #@! TD*
D29*
G04 #@! TO.C,D1*
X42252820Y48964420D03*
X40652820Y48964420D03*
X40652820Y50144420D03*
X42252820Y50144420D03*
G04 #@! TD*
D30*
G04 #@! TO.C,C17*
X41560000Y42375000D03*
X41560000Y39425000D03*
G04 #@! TD*
D11*
G04 #@! TO.C,C16*
X35500000Y41675000D03*
X35500000Y40125000D03*
G04 #@! TD*
D17*
G04 #@! TO.C,U2*
X39128000Y63240000D03*
D18*
X39128000Y60700000D03*
X39128000Y58160000D03*
X39128000Y55620000D03*
G04 #@! TD*
D20*
G04 #@! TO.C,C2*
X20751800Y25818800D03*
X20751800Y27368800D03*
G04 #@! TD*
G04 #@! TO.C,C8*
X27406600Y15887400D03*
X27406600Y17437400D03*
G04 #@! TD*
D17*
G04 #@! TO.C,J7*
X39570000Y33235000D03*
D18*
X42110000Y33235000D03*
X39570000Y30695000D03*
X42110000Y30695000D03*
X39570000Y28155000D03*
X42110000Y28155000D03*
X39570000Y25615000D03*
X42110000Y25615000D03*
X39570000Y23075000D03*
X42110000Y23075000D03*
X39570000Y20535000D03*
X42110000Y20535000D03*
X39570000Y17995000D03*
X42110000Y17995000D03*
X39570000Y15455000D03*
X42110000Y15455000D03*
X39570000Y12915000D03*
X42110000Y12915000D03*
X39570000Y10375000D03*
X42110000Y10375000D03*
X39570000Y7835000D03*
X42110000Y7835000D03*
X39570000Y5295000D03*
X42110000Y5295000D03*
D17*
X4560000Y33235000D03*
D18*
X4560000Y30695000D03*
X4560000Y28155000D03*
X4560000Y25615000D03*
X4560000Y23075000D03*
X4560000Y20535000D03*
X4560000Y17995000D03*
X4560000Y15455000D03*
X4560000Y12915000D03*
X4560000Y10375000D03*
X4560000Y7835000D03*
X4560000Y5295000D03*
D17*
X7100000Y5295000D03*
D18*
X7100000Y7835000D03*
X7100000Y10375000D03*
X7100000Y12915000D03*
D17*
X7100000Y15455000D03*
D18*
X7100000Y17995000D03*
X7100000Y20535000D03*
X7100000Y23075000D03*
G04 #@! TD*
D31*
G04 #@! TO.C,U8*
X13686334Y8731271D03*
X13036334Y8731271D03*
X12386334Y8731271D03*
X11736334Y8731271D03*
X11086334Y8731271D03*
X10436334Y8731271D03*
X9786334Y8731271D03*
X9136334Y8731271D03*
X9136334Y3006271D03*
X9786334Y3006271D03*
X10436334Y3006271D03*
X11086334Y3006271D03*
X11736334Y3006271D03*
X12386334Y3006271D03*
X13036334Y3006271D03*
X13686334Y3006271D03*
G04 #@! TD*
D32*
G04 #@! TO.C,C12*
X30198000Y12446000D03*
X29238000Y12446000D03*
G04 #@! TD*
D33*
G04 #@! TO.C,J8*
X21250000Y60400000D03*
D34*
X22520000Y60400000D03*
X23790000Y60400000D03*
X25060000Y60400000D03*
X26330000Y60400000D03*
X27600000Y60400000D03*
G04 #@! TD*
D20*
G04 #@! TO.C,C26*
X12851000Y25818800D03*
X12851000Y27368800D03*
G04 #@! TD*
D12*
G04 #@! TO.C,R16*
X16572600Y29514800D03*
X18222600Y29514800D03*
G04 #@! TD*
D33*
G04 #@! TO.C,J1*
X190000Y49000000D03*
D34*
X190000Y50270000D03*
X1460000Y49000000D03*
X1460000Y50270000D03*
X2730000Y49000000D03*
X2730000Y50270000D03*
X4000000Y49000000D03*
X4000000Y50270000D03*
X5270000Y49000000D03*
X5270000Y50270000D03*
G04 #@! TD*
D20*
G04 #@! TO.C,C21*
X14986505Y4990800D03*
X14986505Y6540800D03*
G04 #@! TD*
D35*
G04 #@! TO.C,U9*
X30545000Y10795000D03*
X30545000Y9525000D03*
X30545000Y8255000D03*
X30545000Y6985000D03*
X35495000Y6985000D03*
X35495000Y8255000D03*
X35495000Y9525000D03*
X35495000Y10795000D03*
G04 #@! TD*
D28*
G04 #@! TO.C,C22*
X11675000Y10800000D03*
X10125000Y10800000D03*
G04 #@! TD*
D19*
G04 #@! TO.C,R15*
X18222600Y31013400D03*
X16572600Y31013400D03*
G04 #@! TD*
D28*
G04 #@! TO.C,C20*
X14504505Y10617200D03*
X12954505Y10617200D03*
G04 #@! TD*
D36*
G04 #@! TO.C,Y1*
X28002000Y10374000D03*
X28002000Y7874000D03*
G04 #@! TD*
D37*
G04 #@! TO.C,R17*
X29083000Y29655000D03*
X29083000Y31305000D03*
G04 #@! TD*
D28*
G04 #@! TO.C,C13*
X35827000Y12446000D03*
X34277000Y12446000D03*
G04 #@! TD*
D38*
G04 #@! TO.C,L3*
X18518000Y22250400D03*
X15518000Y22250400D03*
G04 #@! TD*
D35*
G04 #@! TO.C,U4*
X31118000Y33274000D03*
X31118000Y32004000D03*
X31118000Y30734000D03*
X31118000Y29464000D03*
X31118000Y28194000D03*
X31118000Y26924000D03*
X31118000Y25654000D03*
X36068000Y25654000D03*
X36068000Y26924000D03*
X36068000Y28194000D03*
X36068000Y29464000D03*
X36068000Y30734000D03*
X36068000Y32004000D03*
X36068000Y33274000D03*
G04 #@! TD*
D19*
G04 #@! TO.C,R7*
X35623000Y24130000D03*
X33973000Y24130000D03*
G04 #@! TD*
D39*
G04 #@! TO.C,U10*
X16427400Y27776600D03*
X15477400Y27776600D03*
X14527400Y27776600D03*
X14527400Y25501600D03*
X15477400Y25501600D03*
X16427400Y25501600D03*
G04 #@! TD*
D24*
G04 #@! TO.C,R8*
X37211000Y21018000D03*
X37211000Y19368000D03*
G04 #@! TD*
D33*
G04 #@! TO.C,J2*
X8550000Y60400000D03*
D34*
X9820000Y60400000D03*
X11090000Y60400000D03*
X12360000Y60400000D03*
G04 #@! TD*
D11*
G04 #@! TO.C,C24*
X10109705Y13830600D03*
X10109705Y12280600D03*
G04 #@! TD*
D28*
G04 #@! TO.C,C25*
X15327800Y29514800D03*
X13777800Y29514800D03*
G04 #@! TD*
D20*
G04 #@! TO.C,C27*
X18515200Y25463200D03*
X18515200Y27013200D03*
G04 #@! TD*
D11*
G04 #@! TO.C,C23*
X13711334Y13748371D03*
X13711334Y12198371D03*
G04 #@! TD*
D20*
G04 #@! TO.C,C19*
X27559000Y30467000D03*
X27559000Y32017000D03*
G04 #@! TD*
D17*
G04 #@! TO.C,SW1*
X28830000Y-1670000D03*
D18*
X26290000Y-1670000D03*
G04 #@! TD*
D40*
G04 #@! TO.C,J9*
X3450000Y43357800D03*
D41*
X5990000Y45897800D03*
X910000Y45897800D03*
X5990000Y40817800D03*
X910000Y40817800D03*
G04 #@! TD*
D33*
G04 #@! TO.C,J10*
X1950000Y34505000D03*
D34*
X1950000Y33235000D03*
X1950000Y31965000D03*
X1950000Y30695000D03*
X1950000Y29425000D03*
X1950000Y28155000D03*
X1950000Y26885000D03*
X1950000Y25615000D03*
X1950000Y24345000D03*
G04 #@! TD*
D33*
G04 #@! TO.C,J4*
X1950000Y16725000D03*
D34*
X1950000Y15455000D03*
X1950000Y14185000D03*
X1950000Y12915000D03*
X1950000Y11645000D03*
X1950000Y10375000D03*
X1950000Y9105000D03*
X1950000Y7835000D03*
X1950000Y6565000D03*
G04 #@! TD*
D33*
G04 #@! TO.C,J5*
X1950000Y56095000D03*
D34*
X1950000Y54825000D03*
X1950000Y53555000D03*
X1950000Y52285000D03*
G04 #@! TD*
M02*
