G04 #@! TF.GenerationSoftware,KiCad,Pcbnew,7.0.11-7.0.11~ubuntu23.10.1*
G04 #@! TF.CreationDate,2024-06-16T14:32:52+02:00*
G04 #@! TF.ProjectId,WiRoc_NanoPi,5769526f-635f-44e6-916e-6f50692e6b69,rev?*
G04 #@! TF.SameCoordinates,Original*
G04 #@! TF.FileFunction,AssemblyDrawing,Bot*
%FSLAX46Y46*%
G04 Gerber Fmt 4.6, Leading zero omitted, Abs format (unit mm)*
G04 Created by KiCad (PCBNEW 7.0.11-7.0.11~ubuntu23.10.1) date 2024-06-16 14:32:52*
%MOMM*%
%LPD*%
G01*
G04 APERTURE LIST*
%ADD10C,0.150000*%
%ADD11C,0.100000*%
G04 APERTURE END LIST*
D10*
X26064819Y35115238D02*
X26064819Y34543810D01*
X27064819Y34829524D02*
X26064819Y34829524D01*
X26541009Y34210476D02*
X26541009Y33877143D01*
X27064819Y33734286D02*
X27064819Y34210476D01*
X27064819Y34210476D02*
X26064819Y34210476D01*
X26064819Y34210476D02*
X26064819Y33734286D01*
X27017200Y33353333D02*
X27064819Y33210476D01*
X27064819Y33210476D02*
X27064819Y32972381D01*
X27064819Y32972381D02*
X27017200Y32877143D01*
X27017200Y32877143D02*
X26969580Y32829524D01*
X26969580Y32829524D02*
X26874342Y32781905D01*
X26874342Y32781905D02*
X26779104Y32781905D01*
X26779104Y32781905D02*
X26683866Y32829524D01*
X26683866Y32829524D02*
X26636247Y32877143D01*
X26636247Y32877143D02*
X26588628Y32972381D01*
X26588628Y32972381D02*
X26541009Y33162857D01*
X26541009Y33162857D02*
X26493390Y33258095D01*
X26493390Y33258095D02*
X26445771Y33305714D01*
X26445771Y33305714D02*
X26350533Y33353333D01*
X26350533Y33353333D02*
X26255295Y33353333D01*
X26255295Y33353333D02*
X26160057Y33305714D01*
X26160057Y33305714D02*
X26112438Y33258095D01*
X26112438Y33258095D02*
X26064819Y33162857D01*
X26064819Y33162857D02*
X26064819Y32924762D01*
X26064819Y32924762D02*
X26112438Y32781905D01*
X26064819Y32496190D02*
X26064819Y31924762D01*
X27064819Y32210476D02*
X26064819Y32210476D01*
X23064819Y34781905D02*
X23064819Y34210477D01*
X24064819Y34496191D02*
X23064819Y34496191D01*
X24064819Y33877143D02*
X23064819Y33877143D01*
X23064819Y33877143D02*
X23064819Y33496191D01*
X23064819Y33496191D02*
X23112438Y33400953D01*
X23112438Y33400953D02*
X23160057Y33353334D01*
X23160057Y33353334D02*
X23255295Y33305715D01*
X23255295Y33305715D02*
X23398152Y33305715D01*
X23398152Y33305715D02*
X23493390Y33353334D01*
X23493390Y33353334D02*
X23541009Y33400953D01*
X23541009Y33400953D02*
X23588628Y33496191D01*
X23588628Y33496191D02*
X23588628Y33877143D01*
X23398152Y32448572D02*
X24064819Y32448572D01*
X23017200Y32686667D02*
X23731485Y32924762D01*
X23731485Y32924762D02*
X23731485Y32305715D01*
X24367200Y1401429D02*
X24414819Y1258572D01*
X24414819Y1258572D02*
X24414819Y1020477D01*
X24414819Y1020477D02*
X24367200Y925239D01*
X24367200Y925239D02*
X24319580Y877620D01*
X24319580Y877620D02*
X24224342Y830001D01*
X24224342Y830001D02*
X24129104Y830001D01*
X24129104Y830001D02*
X24033866Y877620D01*
X24033866Y877620D02*
X23986247Y925239D01*
X23986247Y925239D02*
X23938628Y1020477D01*
X23938628Y1020477D02*
X23891009Y1210953D01*
X23891009Y1210953D02*
X23843390Y1306191D01*
X23843390Y1306191D02*
X23795771Y1353810D01*
X23795771Y1353810D02*
X23700533Y1401429D01*
X23700533Y1401429D02*
X23605295Y1401429D01*
X23605295Y1401429D02*
X23510057Y1353810D01*
X23510057Y1353810D02*
X23462438Y1306191D01*
X23462438Y1306191D02*
X23414819Y1210953D01*
X23414819Y1210953D02*
X23414819Y972858D01*
X23414819Y972858D02*
X23462438Y830001D01*
X23414819Y496667D02*
X24414819Y258572D01*
X24414819Y258572D02*
X23700533Y68096D01*
X23700533Y68096D02*
X24414819Y-122380D01*
X24414819Y-122380D02*
X23414819Y-360476D01*
X24510057Y-503333D02*
X24510057Y-1265237D01*
X24367200Y-1455714D02*
X24414819Y-1598571D01*
X24414819Y-1598571D02*
X24414819Y-1836666D01*
X24414819Y-1836666D02*
X24367200Y-1931904D01*
X24367200Y-1931904D02*
X24319580Y-1979523D01*
X24319580Y-1979523D02*
X24224342Y-2027142D01*
X24224342Y-2027142D02*
X24129104Y-2027142D01*
X24129104Y-2027142D02*
X24033866Y-1979523D01*
X24033866Y-1979523D02*
X23986247Y-1931904D01*
X23986247Y-1931904D02*
X23938628Y-1836666D01*
X23938628Y-1836666D02*
X23891009Y-1646190D01*
X23891009Y-1646190D02*
X23843390Y-1550952D01*
X23843390Y-1550952D02*
X23795771Y-1503333D01*
X23795771Y-1503333D02*
X23700533Y-1455714D01*
X23700533Y-1455714D02*
X23605295Y-1455714D01*
X23605295Y-1455714D02*
X23510057Y-1503333D01*
X23510057Y-1503333D02*
X23462438Y-1550952D01*
X23462438Y-1550952D02*
X23414819Y-1646190D01*
X23414819Y-1646190D02*
X23414819Y-1884285D01*
X23414819Y-1884285D02*
X23462438Y-2027142D01*
X24414819Y-2455714D02*
X23414819Y-2455714D01*
X23414819Y-2455714D02*
X23414819Y-2836666D01*
X23414819Y-2836666D02*
X23462438Y-2931904D01*
X23462438Y-2931904D02*
X23510057Y-2979523D01*
X23510057Y-2979523D02*
X23605295Y-3027142D01*
X23605295Y-3027142D02*
X23748152Y-3027142D01*
X23748152Y-3027142D02*
X23843390Y-2979523D01*
X23843390Y-2979523D02*
X23891009Y-2931904D01*
X23891009Y-2931904D02*
X23938628Y-2836666D01*
X23938628Y-2836666D02*
X23938628Y-2455714D01*
X24367200Y-3408095D02*
X24414819Y-3550952D01*
X24414819Y-3550952D02*
X24414819Y-3789047D01*
X24414819Y-3789047D02*
X24367200Y-3884285D01*
X24367200Y-3884285D02*
X24319580Y-3931904D01*
X24319580Y-3931904D02*
X24224342Y-3979523D01*
X24224342Y-3979523D02*
X24129104Y-3979523D01*
X24129104Y-3979523D02*
X24033866Y-3931904D01*
X24033866Y-3931904D02*
X23986247Y-3884285D01*
X23986247Y-3884285D02*
X23938628Y-3789047D01*
X23938628Y-3789047D02*
X23891009Y-3598571D01*
X23891009Y-3598571D02*
X23843390Y-3503333D01*
X23843390Y-3503333D02*
X23795771Y-3455714D01*
X23795771Y-3455714D02*
X23700533Y-3408095D01*
X23700533Y-3408095D02*
X23605295Y-3408095D01*
X23605295Y-3408095D02*
X23510057Y-3455714D01*
X23510057Y-3455714D02*
X23462438Y-3503333D01*
X23462438Y-3503333D02*
X23414819Y-3598571D01*
X23414819Y-3598571D02*
X23414819Y-3836666D01*
X23414819Y-3836666D02*
X23462438Y-3979523D01*
X23414819Y-4265238D02*
X23414819Y-4836666D01*
X24414819Y-4550952D02*
X23414819Y-4550952D01*
X28893332Y-2077200D02*
X28750475Y-2124819D01*
X28750475Y-2124819D02*
X28512380Y-2124819D01*
X28512380Y-2124819D02*
X28417142Y-2077200D01*
X28417142Y-2077200D02*
X28369523Y-2029580D01*
X28369523Y-2029580D02*
X28321904Y-1934342D01*
X28321904Y-1934342D02*
X28321904Y-1839104D01*
X28321904Y-1839104D02*
X28369523Y-1743866D01*
X28369523Y-1743866D02*
X28417142Y-1696247D01*
X28417142Y-1696247D02*
X28512380Y-1648628D01*
X28512380Y-1648628D02*
X28702856Y-1601009D01*
X28702856Y-1601009D02*
X28798094Y-1553390D01*
X28798094Y-1553390D02*
X28845713Y-1505771D01*
X28845713Y-1505771D02*
X28893332Y-1410533D01*
X28893332Y-1410533D02*
X28893332Y-1315295D01*
X28893332Y-1315295D02*
X28845713Y-1220057D01*
X28845713Y-1220057D02*
X28798094Y-1172438D01*
X28798094Y-1172438D02*
X28702856Y-1124819D01*
X28702856Y-1124819D02*
X28464761Y-1124819D01*
X28464761Y-1124819D02*
X28321904Y-1172438D01*
X27988570Y-1124819D02*
X27750475Y-2124819D01*
X27750475Y-2124819D02*
X27559999Y-1410533D01*
X27559999Y-1410533D02*
X27369523Y-2124819D01*
X27369523Y-2124819D02*
X27131428Y-1124819D01*
X26226666Y-2124819D02*
X26798094Y-2124819D01*
X26512380Y-2124819D02*
X26512380Y-1124819D01*
X26512380Y-1124819D02*
X26607618Y-1267676D01*
X26607618Y-1267676D02*
X26702856Y-1362914D01*
X26702856Y-1362914D02*
X26798094Y-1410533D01*
X8809580Y47548277D02*
X8857200Y47595896D01*
X8857200Y47595896D02*
X8904819Y47738753D01*
X8904819Y47738753D02*
X8904819Y47833991D01*
X8904819Y47833991D02*
X8857200Y47976848D01*
X8857200Y47976848D02*
X8761961Y48072086D01*
X8761961Y48072086D02*
X8666723Y48119705D01*
X8666723Y48119705D02*
X8476247Y48167324D01*
X8476247Y48167324D02*
X8333390Y48167324D01*
X8333390Y48167324D02*
X8142914Y48119705D01*
X8142914Y48119705D02*
X8047676Y48072086D01*
X8047676Y48072086D02*
X7952438Y47976848D01*
X7952438Y47976848D02*
X7904819Y47833991D01*
X7904819Y47833991D02*
X7904819Y47738753D01*
X7904819Y47738753D02*
X7952438Y47595896D01*
X7952438Y47595896D02*
X8000057Y47548277D01*
X8904819Y46976848D02*
X8857200Y47072086D01*
X8857200Y47072086D02*
X8809580Y47119705D01*
X8809580Y47119705D02*
X8714342Y47167324D01*
X8714342Y47167324D02*
X8428628Y47167324D01*
X8428628Y47167324D02*
X8333390Y47119705D01*
X8333390Y47119705D02*
X8285771Y47072086D01*
X8285771Y47072086D02*
X8238152Y46976848D01*
X8238152Y46976848D02*
X8238152Y46833991D01*
X8238152Y46833991D02*
X8285771Y46738753D01*
X8285771Y46738753D02*
X8333390Y46691134D01*
X8333390Y46691134D02*
X8428628Y46643515D01*
X8428628Y46643515D02*
X8714342Y46643515D01*
X8714342Y46643515D02*
X8809580Y46691134D01*
X8809580Y46691134D02*
X8857200Y46738753D01*
X8857200Y46738753D02*
X8904819Y46833991D01*
X8904819Y46833991D02*
X8904819Y46976848D01*
X8238152Y46214943D02*
X8904819Y46214943D01*
X8333390Y46214943D02*
X8285771Y46167324D01*
X8285771Y46167324D02*
X8238152Y46072086D01*
X8238152Y46072086D02*
X8238152Y45929229D01*
X8238152Y45929229D02*
X8285771Y45833991D01*
X8285771Y45833991D02*
X8381009Y45786372D01*
X8381009Y45786372D02*
X8904819Y45786372D01*
X8238152Y45310181D02*
X8904819Y45310181D01*
X8333390Y45310181D02*
X8285771Y45262562D01*
X8285771Y45262562D02*
X8238152Y45167324D01*
X8238152Y45167324D02*
X8238152Y45024467D01*
X8238152Y45024467D02*
X8285771Y44929229D01*
X8285771Y44929229D02*
X8381009Y44881610D01*
X8381009Y44881610D02*
X8904819Y44881610D01*
X9000057Y44643514D02*
X9000057Y43881610D01*
X8809580Y43072086D02*
X8857200Y43119705D01*
X8857200Y43119705D02*
X8904819Y43262562D01*
X8904819Y43262562D02*
X8904819Y43357800D01*
X8904819Y43357800D02*
X8857200Y43500657D01*
X8857200Y43500657D02*
X8761961Y43595895D01*
X8761961Y43595895D02*
X8666723Y43643514D01*
X8666723Y43643514D02*
X8476247Y43691133D01*
X8476247Y43691133D02*
X8333390Y43691133D01*
X8333390Y43691133D02*
X8142914Y43643514D01*
X8142914Y43643514D02*
X8047676Y43595895D01*
X8047676Y43595895D02*
X7952438Y43500657D01*
X7952438Y43500657D02*
X7904819Y43357800D01*
X7904819Y43357800D02*
X7904819Y43262562D01*
X7904819Y43262562D02*
X7952438Y43119705D01*
X7952438Y43119705D02*
X8000057Y43072086D01*
X8904819Y42500657D02*
X8857200Y42595895D01*
X8857200Y42595895D02*
X8809580Y42643514D01*
X8809580Y42643514D02*
X8714342Y42691133D01*
X8714342Y42691133D02*
X8428628Y42691133D01*
X8428628Y42691133D02*
X8333390Y42643514D01*
X8333390Y42643514D02*
X8285771Y42595895D01*
X8285771Y42595895D02*
X8238152Y42500657D01*
X8238152Y42500657D02*
X8238152Y42357800D01*
X8238152Y42357800D02*
X8285771Y42262562D01*
X8285771Y42262562D02*
X8333390Y42214943D01*
X8333390Y42214943D02*
X8428628Y42167324D01*
X8428628Y42167324D02*
X8714342Y42167324D01*
X8714342Y42167324D02*
X8809580Y42214943D01*
X8809580Y42214943D02*
X8857200Y42262562D01*
X8857200Y42262562D02*
X8904819Y42357800D01*
X8904819Y42357800D02*
X8904819Y42500657D01*
X8904819Y41310181D02*
X8381009Y41310181D01*
X8381009Y41310181D02*
X8285771Y41357800D01*
X8285771Y41357800D02*
X8238152Y41453038D01*
X8238152Y41453038D02*
X8238152Y41643514D01*
X8238152Y41643514D02*
X8285771Y41738752D01*
X8857200Y41310181D02*
X8904819Y41405419D01*
X8904819Y41405419D02*
X8904819Y41643514D01*
X8904819Y41643514D02*
X8857200Y41738752D01*
X8857200Y41738752D02*
X8761961Y41786371D01*
X8761961Y41786371D02*
X8666723Y41786371D01*
X8666723Y41786371D02*
X8571485Y41738752D01*
X8571485Y41738752D02*
X8523866Y41643514D01*
X8523866Y41643514D02*
X8523866Y41405419D01*
X8523866Y41405419D02*
X8476247Y41310181D01*
X8904819Y40929228D02*
X8238152Y40405419D01*
X8238152Y40929228D02*
X8904819Y40405419D01*
X8904819Y40024466D02*
X8238152Y40024466D01*
X7904819Y40024466D02*
X7952438Y40072085D01*
X7952438Y40072085D02*
X8000057Y40024466D01*
X8000057Y40024466D02*
X7952438Y39976847D01*
X7952438Y39976847D02*
X7904819Y40024466D01*
X7904819Y40024466D02*
X8000057Y40024466D01*
X8904819Y39119705D02*
X8381009Y39119705D01*
X8381009Y39119705D02*
X8285771Y39167324D01*
X8285771Y39167324D02*
X8238152Y39262562D01*
X8238152Y39262562D02*
X8238152Y39453038D01*
X8238152Y39453038D02*
X8285771Y39548276D01*
X8857200Y39119705D02*
X8904819Y39214943D01*
X8904819Y39214943D02*
X8904819Y39453038D01*
X8904819Y39453038D02*
X8857200Y39548276D01*
X8857200Y39548276D02*
X8761961Y39595895D01*
X8761961Y39595895D02*
X8666723Y39595895D01*
X8666723Y39595895D02*
X8571485Y39548276D01*
X8571485Y39548276D02*
X8523866Y39453038D01*
X8523866Y39453038D02*
X8523866Y39214943D01*
X8523866Y39214943D02*
X8476247Y39119705D01*
X8904819Y38500657D02*
X8857200Y38595895D01*
X8857200Y38595895D02*
X8761961Y38643514D01*
X8761961Y38643514D02*
X7904819Y38643514D01*
X2904819Y43691134D02*
X3619104Y43691134D01*
X3619104Y43691134D02*
X3761961Y43738753D01*
X3761961Y43738753D02*
X3857200Y43833991D01*
X3857200Y43833991D02*
X3904819Y43976848D01*
X3904819Y43976848D02*
X3904819Y44072086D01*
X3904819Y43167324D02*
X3904819Y42976848D01*
X3904819Y42976848D02*
X3857200Y42881610D01*
X3857200Y42881610D02*
X3809580Y42833991D01*
X3809580Y42833991D02*
X3666723Y42738753D01*
X3666723Y42738753D02*
X3476247Y42691134D01*
X3476247Y42691134D02*
X3095295Y42691134D01*
X3095295Y42691134D02*
X3000057Y42738753D01*
X3000057Y42738753D02*
X2952438Y42786372D01*
X2952438Y42786372D02*
X2904819Y42881610D01*
X2904819Y42881610D02*
X2904819Y43072086D01*
X2904819Y43072086D02*
X2952438Y43167324D01*
X2952438Y43167324D02*
X3000057Y43214943D01*
X3000057Y43214943D02*
X3095295Y43262562D01*
X3095295Y43262562D02*
X3333390Y43262562D01*
X3333390Y43262562D02*
X3428628Y43214943D01*
X3428628Y43214943D02*
X3476247Y43167324D01*
X3476247Y43167324D02*
X3523866Y43072086D01*
X3523866Y43072086D02*
X3523866Y42881610D01*
X3523866Y42881610D02*
X3476247Y42786372D01*
X3476247Y42786372D02*
X3428628Y42738753D01*
X3428628Y42738753D02*
X3333390Y42691134D01*
X24455237Y33464181D02*
X23883809Y33464181D01*
X24169523Y32464181D02*
X24169523Y33464181D01*
X23550475Y32987991D02*
X23217142Y32987991D01*
X23074285Y32464181D02*
X23550475Y32464181D01*
X23550475Y32464181D02*
X23550475Y33464181D01*
X23550475Y33464181D02*
X23074285Y33464181D01*
X22693332Y32511800D02*
X22550475Y32464181D01*
X22550475Y32464181D02*
X22312380Y32464181D01*
X22312380Y32464181D02*
X22217142Y32511800D01*
X22217142Y32511800D02*
X22169523Y32559420D01*
X22169523Y32559420D02*
X22121904Y32654658D01*
X22121904Y32654658D02*
X22121904Y32749896D01*
X22121904Y32749896D02*
X22169523Y32845134D01*
X22169523Y32845134D02*
X22217142Y32892753D01*
X22217142Y32892753D02*
X22312380Y32940372D01*
X22312380Y32940372D02*
X22502856Y32987991D01*
X22502856Y32987991D02*
X22598094Y33035610D01*
X22598094Y33035610D02*
X22645713Y33083229D01*
X22645713Y33083229D02*
X22693332Y33178467D01*
X22693332Y33178467D02*
X22693332Y33273705D01*
X22693332Y33273705D02*
X22645713Y33368943D01*
X22645713Y33368943D02*
X22598094Y33416562D01*
X22598094Y33416562D02*
X22502856Y33464181D01*
X22502856Y33464181D02*
X22264761Y33464181D01*
X22264761Y33464181D02*
X22121904Y33416562D01*
X21836189Y33464181D02*
X21264761Y33464181D01*
X21550475Y32464181D02*
X21550475Y33464181D01*
X24121904Y30464181D02*
X23550476Y30464181D01*
X23836190Y29464181D02*
X23836190Y30464181D01*
X23217142Y29464181D02*
X23217142Y30464181D01*
X23217142Y30464181D02*
X22836190Y30464181D01*
X22836190Y30464181D02*
X22740952Y30416562D01*
X22740952Y30416562D02*
X22693333Y30368943D01*
X22693333Y30368943D02*
X22645714Y30273705D01*
X22645714Y30273705D02*
X22645714Y30130848D01*
X22645714Y30130848D02*
X22693333Y30035610D01*
X22693333Y30035610D02*
X22740952Y29987991D01*
X22740952Y29987991D02*
X22836190Y29940372D01*
X22836190Y29940372D02*
X23217142Y29940372D01*
X22312380Y30464181D02*
X21693333Y30464181D01*
X21693333Y30464181D02*
X22026666Y30083229D01*
X22026666Y30083229D02*
X21883809Y30083229D01*
X21883809Y30083229D02*
X21788571Y30035610D01*
X21788571Y30035610D02*
X21740952Y29987991D01*
X21740952Y29987991D02*
X21693333Y29892753D01*
X21693333Y29892753D02*
X21693333Y29654658D01*
X21693333Y29654658D02*
X21740952Y29559420D01*
X21740952Y29559420D02*
X21788571Y29511800D01*
X21788571Y29511800D02*
X21883809Y29464181D01*
X21883809Y29464181D02*
X22169523Y29464181D01*
X22169523Y29464181D02*
X22264761Y29511800D01*
X22264761Y29511800D02*
X22312380Y29559420D01*
X8545239Y21850420D02*
X8592858Y21802800D01*
X8592858Y21802800D02*
X8735715Y21755181D01*
X8735715Y21755181D02*
X8830953Y21755181D01*
X8830953Y21755181D02*
X8973810Y21802800D01*
X8973810Y21802800D02*
X9069048Y21898039D01*
X9069048Y21898039D02*
X9116667Y21993277D01*
X9116667Y21993277D02*
X9164286Y22183753D01*
X9164286Y22183753D02*
X9164286Y22326610D01*
X9164286Y22326610D02*
X9116667Y22517086D01*
X9116667Y22517086D02*
X9069048Y22612324D01*
X9069048Y22612324D02*
X8973810Y22707562D01*
X8973810Y22707562D02*
X8830953Y22755181D01*
X8830953Y22755181D02*
X8735715Y22755181D01*
X8735715Y22755181D02*
X8592858Y22707562D01*
X8592858Y22707562D02*
X8545239Y22659943D01*
X7973810Y21755181D02*
X8069048Y21802800D01*
X8069048Y21802800D02*
X8116667Y21850420D01*
X8116667Y21850420D02*
X8164286Y21945658D01*
X8164286Y21945658D02*
X8164286Y22231372D01*
X8164286Y22231372D02*
X8116667Y22326610D01*
X8116667Y22326610D02*
X8069048Y22374229D01*
X8069048Y22374229D02*
X7973810Y22421848D01*
X7973810Y22421848D02*
X7830953Y22421848D01*
X7830953Y22421848D02*
X7735715Y22374229D01*
X7735715Y22374229D02*
X7688096Y22326610D01*
X7688096Y22326610D02*
X7640477Y22231372D01*
X7640477Y22231372D02*
X7640477Y21945658D01*
X7640477Y21945658D02*
X7688096Y21850420D01*
X7688096Y21850420D02*
X7735715Y21802800D01*
X7735715Y21802800D02*
X7830953Y21755181D01*
X7830953Y21755181D02*
X7973810Y21755181D01*
X7211905Y22421848D02*
X7211905Y21755181D01*
X7211905Y22326610D02*
X7164286Y22374229D01*
X7164286Y22374229D02*
X7069048Y22421848D01*
X7069048Y22421848D02*
X6926191Y22421848D01*
X6926191Y22421848D02*
X6830953Y22374229D01*
X6830953Y22374229D02*
X6783334Y22278991D01*
X6783334Y22278991D02*
X6783334Y21755181D01*
X6307143Y22421848D02*
X6307143Y21755181D01*
X6307143Y22326610D02*
X6259524Y22374229D01*
X6259524Y22374229D02*
X6164286Y22421848D01*
X6164286Y22421848D02*
X6021429Y22421848D01*
X6021429Y22421848D02*
X5926191Y22374229D01*
X5926191Y22374229D02*
X5878572Y22278991D01*
X5878572Y22278991D02*
X5878572Y21755181D01*
X5640477Y21659943D02*
X4878572Y21659943D01*
X4450000Y22755181D02*
X4354762Y22755181D01*
X4354762Y22755181D02*
X4259524Y22707562D01*
X4259524Y22707562D02*
X4211905Y22659943D01*
X4211905Y22659943D02*
X4164286Y22564705D01*
X4164286Y22564705D02*
X4116667Y22374229D01*
X4116667Y22374229D02*
X4116667Y22136134D01*
X4116667Y22136134D02*
X4164286Y21945658D01*
X4164286Y21945658D02*
X4211905Y21850420D01*
X4211905Y21850420D02*
X4259524Y21802800D01*
X4259524Y21802800D02*
X4354762Y21755181D01*
X4354762Y21755181D02*
X4450000Y21755181D01*
X4450000Y21755181D02*
X4545238Y21802800D01*
X4545238Y21802800D02*
X4592857Y21850420D01*
X4592857Y21850420D02*
X4640476Y21945658D01*
X4640476Y21945658D02*
X4688095Y22136134D01*
X4688095Y22136134D02*
X4688095Y22374229D01*
X4688095Y22374229D02*
X4640476Y22564705D01*
X4640476Y22564705D02*
X4592857Y22659943D01*
X4592857Y22659943D02*
X4545238Y22707562D01*
X4545238Y22707562D02*
X4450000Y22755181D01*
X3164286Y21755181D02*
X3735714Y21755181D01*
X3450000Y21755181D02*
X3450000Y22755181D01*
X3450000Y22755181D02*
X3545238Y22612324D01*
X3545238Y22612324D02*
X3640476Y22517086D01*
X3640476Y22517086D02*
X3735714Y22469467D01*
X2830952Y21755181D02*
X2307143Y22421848D01*
X2830952Y22421848D02*
X2307143Y21755181D01*
X1735714Y22755181D02*
X1640476Y22755181D01*
X1640476Y22755181D02*
X1545238Y22707562D01*
X1545238Y22707562D02*
X1497619Y22659943D01*
X1497619Y22659943D02*
X1450000Y22564705D01*
X1450000Y22564705D02*
X1402381Y22374229D01*
X1402381Y22374229D02*
X1402381Y22136134D01*
X1402381Y22136134D02*
X1450000Y21945658D01*
X1450000Y21945658D02*
X1497619Y21850420D01*
X1497619Y21850420D02*
X1545238Y21802800D01*
X1545238Y21802800D02*
X1640476Y21755181D01*
X1640476Y21755181D02*
X1735714Y21755181D01*
X1735714Y21755181D02*
X1830952Y21802800D01*
X1830952Y21802800D02*
X1878571Y21850420D01*
X1878571Y21850420D02*
X1926190Y21945658D01*
X1926190Y21945658D02*
X1973809Y22136134D01*
X1973809Y22136134D02*
X1973809Y22374229D01*
X1973809Y22374229D02*
X1926190Y22564705D01*
X1926190Y22564705D02*
X1878571Y22659943D01*
X1878571Y22659943D02*
X1830952Y22707562D01*
X1830952Y22707562D02*
X1735714Y22755181D01*
X926190Y21755181D02*
X735714Y21755181D01*
X735714Y21755181D02*
X640476Y21802800D01*
X640476Y21802800D02*
X592857Y21850420D01*
X592857Y21850420D02*
X497619Y21993277D01*
X497619Y21993277D02*
X450000Y22183753D01*
X450000Y22183753D02*
X450000Y22564705D01*
X450000Y22564705D02*
X497619Y22659943D01*
X497619Y22659943D02*
X545238Y22707562D01*
X545238Y22707562D02*
X640476Y22755181D01*
X640476Y22755181D02*
X830952Y22755181D01*
X830952Y22755181D02*
X926190Y22707562D01*
X926190Y22707562D02*
X973809Y22659943D01*
X973809Y22659943D02*
X1021428Y22564705D01*
X1021428Y22564705D02*
X1021428Y22326610D01*
X1021428Y22326610D02*
X973809Y22231372D01*
X973809Y22231372D02*
X926190Y22183753D01*
X926190Y22183753D02*
X830952Y22136134D01*
X830952Y22136134D02*
X640476Y22136134D01*
X640476Y22136134D02*
X545238Y22183753D01*
X545238Y22183753D02*
X497619Y22231372D01*
X497619Y22231372D02*
X450000Y22326610D01*
X259524Y21659943D02*
X-502381Y21659943D01*
X-692858Y21802800D02*
X-835715Y21755181D01*
X-835715Y21755181D02*
X-1073810Y21755181D01*
X-1073810Y21755181D02*
X-1169048Y21802800D01*
X-1169048Y21802800D02*
X-1216667Y21850420D01*
X-1216667Y21850420D02*
X-1264286Y21945658D01*
X-1264286Y21945658D02*
X-1264286Y22040896D01*
X-1264286Y22040896D02*
X-1216667Y22136134D01*
X-1216667Y22136134D02*
X-1169048Y22183753D01*
X-1169048Y22183753D02*
X-1073810Y22231372D01*
X-1073810Y22231372D02*
X-883334Y22278991D01*
X-883334Y22278991D02*
X-788096Y22326610D01*
X-788096Y22326610D02*
X-740477Y22374229D01*
X-740477Y22374229D02*
X-692858Y22469467D01*
X-692858Y22469467D02*
X-692858Y22564705D01*
X-692858Y22564705D02*
X-740477Y22659943D01*
X-740477Y22659943D02*
X-788096Y22707562D01*
X-788096Y22707562D02*
X-883334Y22755181D01*
X-883334Y22755181D02*
X-1121429Y22755181D01*
X-1121429Y22755181D02*
X-1264286Y22707562D01*
X-1835715Y21755181D02*
X-1740477Y21802800D01*
X-1740477Y21802800D02*
X-1692858Y21850420D01*
X-1692858Y21850420D02*
X-1645239Y21945658D01*
X-1645239Y21945658D02*
X-1645239Y22231372D01*
X-1645239Y22231372D02*
X-1692858Y22326610D01*
X-1692858Y22326610D02*
X-1740477Y22374229D01*
X-1740477Y22374229D02*
X-1835715Y22421848D01*
X-1835715Y22421848D02*
X-1978572Y22421848D01*
X-1978572Y22421848D02*
X-2073810Y22374229D01*
X-2073810Y22374229D02*
X-2121429Y22326610D01*
X-2121429Y22326610D02*
X-2169048Y22231372D01*
X-2169048Y22231372D02*
X-2169048Y21945658D01*
X-2169048Y21945658D02*
X-2121429Y21850420D01*
X-2121429Y21850420D02*
X-2073810Y21802800D01*
X-2073810Y21802800D02*
X-1978572Y21755181D01*
X-1978572Y21755181D02*
X-1835715Y21755181D01*
X-3026191Y21802800D02*
X-2930953Y21755181D01*
X-2930953Y21755181D02*
X-2740477Y21755181D01*
X-2740477Y21755181D02*
X-2645239Y21802800D01*
X-2645239Y21802800D02*
X-2597620Y21850420D01*
X-2597620Y21850420D02*
X-2550001Y21945658D01*
X-2550001Y21945658D02*
X-2550001Y22231372D01*
X-2550001Y22231372D02*
X-2597620Y22326610D01*
X-2597620Y22326610D02*
X-2645239Y22374229D01*
X-2645239Y22374229D02*
X-2740477Y22421848D01*
X-2740477Y22421848D02*
X-2930953Y22421848D01*
X-2930953Y22421848D02*
X-3026191Y22374229D01*
X-3454763Y21755181D02*
X-3454763Y22755181D01*
X-3550001Y22136134D02*
X-3835715Y21755181D01*
X-3835715Y22421848D02*
X-3454763Y22040896D01*
X-4645239Y21802800D02*
X-4550001Y21755181D01*
X-4550001Y21755181D02*
X-4359525Y21755181D01*
X-4359525Y21755181D02*
X-4264287Y21802800D01*
X-4264287Y21802800D02*
X-4216668Y21898039D01*
X-4216668Y21898039D02*
X-4216668Y22278991D01*
X-4216668Y22278991D02*
X-4264287Y22374229D01*
X-4264287Y22374229D02*
X-4359525Y22421848D01*
X-4359525Y22421848D02*
X-4550001Y22421848D01*
X-4550001Y22421848D02*
X-4645239Y22374229D01*
X-4645239Y22374229D02*
X-4692858Y22278991D01*
X-4692858Y22278991D02*
X-4692858Y22183753D01*
X-4692858Y22183753D02*
X-4216668Y22088515D01*
X-4978573Y22421848D02*
X-5359525Y22421848D01*
X-5121430Y22755181D02*
X-5121430Y21898039D01*
X-5121430Y21898039D02*
X-5169049Y21802800D01*
X-5169049Y21802800D02*
X-5264287Y21755181D01*
X-5264287Y21755181D02*
X-5359525Y21755181D01*
X1404819Y30234524D02*
X2119104Y30234524D01*
X2119104Y30234524D02*
X2261961Y30282143D01*
X2261961Y30282143D02*
X2357200Y30377381D01*
X2357200Y30377381D02*
X2404819Y30520238D01*
X2404819Y30520238D02*
X2404819Y30615476D01*
X2404819Y29234524D02*
X2404819Y29805952D01*
X2404819Y29520238D02*
X1404819Y29520238D01*
X1404819Y29520238D02*
X1547676Y29615476D01*
X1547676Y29615476D02*
X1642914Y29710714D01*
X1642914Y29710714D02*
X1690533Y29805952D01*
X1404819Y28615476D02*
X1404819Y28520238D01*
X1404819Y28520238D02*
X1452438Y28425000D01*
X1452438Y28425000D02*
X1500057Y28377381D01*
X1500057Y28377381D02*
X1595295Y28329762D01*
X1595295Y28329762D02*
X1785771Y28282143D01*
X1785771Y28282143D02*
X2023866Y28282143D01*
X2023866Y28282143D02*
X2214342Y28329762D01*
X2214342Y28329762D02*
X2309580Y28377381D01*
X2309580Y28377381D02*
X2357200Y28425000D01*
X2357200Y28425000D02*
X2404819Y28520238D01*
X2404819Y28520238D02*
X2404819Y28615476D01*
X2404819Y28615476D02*
X2357200Y28710714D01*
X2357200Y28710714D02*
X2309580Y28758333D01*
X2309580Y28758333D02*
X2214342Y28805952D01*
X2214342Y28805952D02*
X2023866Y28853571D01*
X2023866Y28853571D02*
X1785771Y28853571D01*
X1785771Y28853571D02*
X1595295Y28805952D01*
X1595295Y28805952D02*
X1500057Y28758333D01*
X1500057Y28758333D02*
X1452438Y28710714D01*
X1452438Y28710714D02*
X1404819Y28615476D01*
X8545239Y4070420D02*
X8592858Y4022800D01*
X8592858Y4022800D02*
X8735715Y3975181D01*
X8735715Y3975181D02*
X8830953Y3975181D01*
X8830953Y3975181D02*
X8973810Y4022800D01*
X8973810Y4022800D02*
X9069048Y4118039D01*
X9069048Y4118039D02*
X9116667Y4213277D01*
X9116667Y4213277D02*
X9164286Y4403753D01*
X9164286Y4403753D02*
X9164286Y4546610D01*
X9164286Y4546610D02*
X9116667Y4737086D01*
X9116667Y4737086D02*
X9069048Y4832324D01*
X9069048Y4832324D02*
X8973810Y4927562D01*
X8973810Y4927562D02*
X8830953Y4975181D01*
X8830953Y4975181D02*
X8735715Y4975181D01*
X8735715Y4975181D02*
X8592858Y4927562D01*
X8592858Y4927562D02*
X8545239Y4879943D01*
X7973810Y3975181D02*
X8069048Y4022800D01*
X8069048Y4022800D02*
X8116667Y4070420D01*
X8116667Y4070420D02*
X8164286Y4165658D01*
X8164286Y4165658D02*
X8164286Y4451372D01*
X8164286Y4451372D02*
X8116667Y4546610D01*
X8116667Y4546610D02*
X8069048Y4594229D01*
X8069048Y4594229D02*
X7973810Y4641848D01*
X7973810Y4641848D02*
X7830953Y4641848D01*
X7830953Y4641848D02*
X7735715Y4594229D01*
X7735715Y4594229D02*
X7688096Y4546610D01*
X7688096Y4546610D02*
X7640477Y4451372D01*
X7640477Y4451372D02*
X7640477Y4165658D01*
X7640477Y4165658D02*
X7688096Y4070420D01*
X7688096Y4070420D02*
X7735715Y4022800D01*
X7735715Y4022800D02*
X7830953Y3975181D01*
X7830953Y3975181D02*
X7973810Y3975181D01*
X7211905Y4641848D02*
X7211905Y3975181D01*
X7211905Y4546610D02*
X7164286Y4594229D01*
X7164286Y4594229D02*
X7069048Y4641848D01*
X7069048Y4641848D02*
X6926191Y4641848D01*
X6926191Y4641848D02*
X6830953Y4594229D01*
X6830953Y4594229D02*
X6783334Y4498991D01*
X6783334Y4498991D02*
X6783334Y3975181D01*
X6307143Y4641848D02*
X6307143Y3975181D01*
X6307143Y4546610D02*
X6259524Y4594229D01*
X6259524Y4594229D02*
X6164286Y4641848D01*
X6164286Y4641848D02*
X6021429Y4641848D01*
X6021429Y4641848D02*
X5926191Y4594229D01*
X5926191Y4594229D02*
X5878572Y4498991D01*
X5878572Y4498991D02*
X5878572Y3975181D01*
X5640477Y3879943D02*
X4878572Y3879943D01*
X4450000Y4975181D02*
X4354762Y4975181D01*
X4354762Y4975181D02*
X4259524Y4927562D01*
X4259524Y4927562D02*
X4211905Y4879943D01*
X4211905Y4879943D02*
X4164286Y4784705D01*
X4164286Y4784705D02*
X4116667Y4594229D01*
X4116667Y4594229D02*
X4116667Y4356134D01*
X4116667Y4356134D02*
X4164286Y4165658D01*
X4164286Y4165658D02*
X4211905Y4070420D01*
X4211905Y4070420D02*
X4259524Y4022800D01*
X4259524Y4022800D02*
X4354762Y3975181D01*
X4354762Y3975181D02*
X4450000Y3975181D01*
X4450000Y3975181D02*
X4545238Y4022800D01*
X4545238Y4022800D02*
X4592857Y4070420D01*
X4592857Y4070420D02*
X4640476Y4165658D01*
X4640476Y4165658D02*
X4688095Y4356134D01*
X4688095Y4356134D02*
X4688095Y4594229D01*
X4688095Y4594229D02*
X4640476Y4784705D01*
X4640476Y4784705D02*
X4592857Y4879943D01*
X4592857Y4879943D02*
X4545238Y4927562D01*
X4545238Y4927562D02*
X4450000Y4975181D01*
X3164286Y3975181D02*
X3735714Y3975181D01*
X3450000Y3975181D02*
X3450000Y4975181D01*
X3450000Y4975181D02*
X3545238Y4832324D01*
X3545238Y4832324D02*
X3640476Y4737086D01*
X3640476Y4737086D02*
X3735714Y4689467D01*
X2830952Y3975181D02*
X2307143Y4641848D01*
X2830952Y4641848D02*
X2307143Y3975181D01*
X1735714Y4975181D02*
X1640476Y4975181D01*
X1640476Y4975181D02*
X1545238Y4927562D01*
X1545238Y4927562D02*
X1497619Y4879943D01*
X1497619Y4879943D02*
X1450000Y4784705D01*
X1450000Y4784705D02*
X1402381Y4594229D01*
X1402381Y4594229D02*
X1402381Y4356134D01*
X1402381Y4356134D02*
X1450000Y4165658D01*
X1450000Y4165658D02*
X1497619Y4070420D01*
X1497619Y4070420D02*
X1545238Y4022800D01*
X1545238Y4022800D02*
X1640476Y3975181D01*
X1640476Y3975181D02*
X1735714Y3975181D01*
X1735714Y3975181D02*
X1830952Y4022800D01*
X1830952Y4022800D02*
X1878571Y4070420D01*
X1878571Y4070420D02*
X1926190Y4165658D01*
X1926190Y4165658D02*
X1973809Y4356134D01*
X1973809Y4356134D02*
X1973809Y4594229D01*
X1973809Y4594229D02*
X1926190Y4784705D01*
X1926190Y4784705D02*
X1878571Y4879943D01*
X1878571Y4879943D02*
X1830952Y4927562D01*
X1830952Y4927562D02*
X1735714Y4975181D01*
X926190Y3975181D02*
X735714Y3975181D01*
X735714Y3975181D02*
X640476Y4022800D01*
X640476Y4022800D02*
X592857Y4070420D01*
X592857Y4070420D02*
X497619Y4213277D01*
X497619Y4213277D02*
X450000Y4403753D01*
X450000Y4403753D02*
X450000Y4784705D01*
X450000Y4784705D02*
X497619Y4879943D01*
X497619Y4879943D02*
X545238Y4927562D01*
X545238Y4927562D02*
X640476Y4975181D01*
X640476Y4975181D02*
X830952Y4975181D01*
X830952Y4975181D02*
X926190Y4927562D01*
X926190Y4927562D02*
X973809Y4879943D01*
X973809Y4879943D02*
X1021428Y4784705D01*
X1021428Y4784705D02*
X1021428Y4546610D01*
X1021428Y4546610D02*
X973809Y4451372D01*
X973809Y4451372D02*
X926190Y4403753D01*
X926190Y4403753D02*
X830952Y4356134D01*
X830952Y4356134D02*
X640476Y4356134D01*
X640476Y4356134D02*
X545238Y4403753D01*
X545238Y4403753D02*
X497619Y4451372D01*
X497619Y4451372D02*
X450000Y4546610D01*
X259524Y3879943D02*
X-502381Y3879943D01*
X-692858Y4022800D02*
X-835715Y3975181D01*
X-835715Y3975181D02*
X-1073810Y3975181D01*
X-1073810Y3975181D02*
X-1169048Y4022800D01*
X-1169048Y4022800D02*
X-1216667Y4070420D01*
X-1216667Y4070420D02*
X-1264286Y4165658D01*
X-1264286Y4165658D02*
X-1264286Y4260896D01*
X-1264286Y4260896D02*
X-1216667Y4356134D01*
X-1216667Y4356134D02*
X-1169048Y4403753D01*
X-1169048Y4403753D02*
X-1073810Y4451372D01*
X-1073810Y4451372D02*
X-883334Y4498991D01*
X-883334Y4498991D02*
X-788096Y4546610D01*
X-788096Y4546610D02*
X-740477Y4594229D01*
X-740477Y4594229D02*
X-692858Y4689467D01*
X-692858Y4689467D02*
X-692858Y4784705D01*
X-692858Y4784705D02*
X-740477Y4879943D01*
X-740477Y4879943D02*
X-788096Y4927562D01*
X-788096Y4927562D02*
X-883334Y4975181D01*
X-883334Y4975181D02*
X-1121429Y4975181D01*
X-1121429Y4975181D02*
X-1264286Y4927562D01*
X-1835715Y3975181D02*
X-1740477Y4022800D01*
X-1740477Y4022800D02*
X-1692858Y4070420D01*
X-1692858Y4070420D02*
X-1645239Y4165658D01*
X-1645239Y4165658D02*
X-1645239Y4451372D01*
X-1645239Y4451372D02*
X-1692858Y4546610D01*
X-1692858Y4546610D02*
X-1740477Y4594229D01*
X-1740477Y4594229D02*
X-1835715Y4641848D01*
X-1835715Y4641848D02*
X-1978572Y4641848D01*
X-1978572Y4641848D02*
X-2073810Y4594229D01*
X-2073810Y4594229D02*
X-2121429Y4546610D01*
X-2121429Y4546610D02*
X-2169048Y4451372D01*
X-2169048Y4451372D02*
X-2169048Y4165658D01*
X-2169048Y4165658D02*
X-2121429Y4070420D01*
X-2121429Y4070420D02*
X-2073810Y4022800D01*
X-2073810Y4022800D02*
X-1978572Y3975181D01*
X-1978572Y3975181D02*
X-1835715Y3975181D01*
X-3026191Y4022800D02*
X-2930953Y3975181D01*
X-2930953Y3975181D02*
X-2740477Y3975181D01*
X-2740477Y3975181D02*
X-2645239Y4022800D01*
X-2645239Y4022800D02*
X-2597620Y4070420D01*
X-2597620Y4070420D02*
X-2550001Y4165658D01*
X-2550001Y4165658D02*
X-2550001Y4451372D01*
X-2550001Y4451372D02*
X-2597620Y4546610D01*
X-2597620Y4546610D02*
X-2645239Y4594229D01*
X-2645239Y4594229D02*
X-2740477Y4641848D01*
X-2740477Y4641848D02*
X-2930953Y4641848D01*
X-2930953Y4641848D02*
X-3026191Y4594229D01*
X-3454763Y3975181D02*
X-3454763Y4975181D01*
X-3550001Y4356134D02*
X-3835715Y3975181D01*
X-3835715Y4641848D02*
X-3454763Y4260896D01*
X-4645239Y4022800D02*
X-4550001Y3975181D01*
X-4550001Y3975181D02*
X-4359525Y3975181D01*
X-4359525Y3975181D02*
X-4264287Y4022800D01*
X-4264287Y4022800D02*
X-4216668Y4118039D01*
X-4216668Y4118039D02*
X-4216668Y4498991D01*
X-4216668Y4498991D02*
X-4264287Y4594229D01*
X-4264287Y4594229D02*
X-4359525Y4641848D01*
X-4359525Y4641848D02*
X-4550001Y4641848D01*
X-4550001Y4641848D02*
X-4645239Y4594229D01*
X-4645239Y4594229D02*
X-4692858Y4498991D01*
X-4692858Y4498991D02*
X-4692858Y4403753D01*
X-4692858Y4403753D02*
X-4216668Y4308515D01*
X-4978573Y4641848D02*
X-5359525Y4641848D01*
X-5121430Y4975181D02*
X-5121430Y4118039D01*
X-5121430Y4118039D02*
X-5169049Y4022800D01*
X-5169049Y4022800D02*
X-5264287Y3975181D01*
X-5264287Y3975181D02*
X-5359525Y3975181D01*
X1404819Y11978334D02*
X2119104Y11978334D01*
X2119104Y11978334D02*
X2261961Y12025953D01*
X2261961Y12025953D02*
X2357200Y12121191D01*
X2357200Y12121191D02*
X2404819Y12264048D01*
X2404819Y12264048D02*
X2404819Y12359286D01*
X1738152Y11073572D02*
X2404819Y11073572D01*
X1357200Y11311667D02*
X2071485Y11549762D01*
X2071485Y11549762D02*
X2071485Y10930715D01*
X8545239Y49790420D02*
X8592858Y49742800D01*
X8592858Y49742800D02*
X8735715Y49695181D01*
X8735715Y49695181D02*
X8830953Y49695181D01*
X8830953Y49695181D02*
X8973810Y49742800D01*
X8973810Y49742800D02*
X9069048Y49838039D01*
X9069048Y49838039D02*
X9116667Y49933277D01*
X9116667Y49933277D02*
X9164286Y50123753D01*
X9164286Y50123753D02*
X9164286Y50266610D01*
X9164286Y50266610D02*
X9116667Y50457086D01*
X9116667Y50457086D02*
X9069048Y50552324D01*
X9069048Y50552324D02*
X8973810Y50647562D01*
X8973810Y50647562D02*
X8830953Y50695181D01*
X8830953Y50695181D02*
X8735715Y50695181D01*
X8735715Y50695181D02*
X8592858Y50647562D01*
X8592858Y50647562D02*
X8545239Y50599943D01*
X7973810Y49695181D02*
X8069048Y49742800D01*
X8069048Y49742800D02*
X8116667Y49790420D01*
X8116667Y49790420D02*
X8164286Y49885658D01*
X8164286Y49885658D02*
X8164286Y50171372D01*
X8164286Y50171372D02*
X8116667Y50266610D01*
X8116667Y50266610D02*
X8069048Y50314229D01*
X8069048Y50314229D02*
X7973810Y50361848D01*
X7973810Y50361848D02*
X7830953Y50361848D01*
X7830953Y50361848D02*
X7735715Y50314229D01*
X7735715Y50314229D02*
X7688096Y50266610D01*
X7688096Y50266610D02*
X7640477Y50171372D01*
X7640477Y50171372D02*
X7640477Y49885658D01*
X7640477Y49885658D02*
X7688096Y49790420D01*
X7688096Y49790420D02*
X7735715Y49742800D01*
X7735715Y49742800D02*
X7830953Y49695181D01*
X7830953Y49695181D02*
X7973810Y49695181D01*
X7211905Y50361848D02*
X7211905Y49695181D01*
X7211905Y50266610D02*
X7164286Y50314229D01*
X7164286Y50314229D02*
X7069048Y50361848D01*
X7069048Y50361848D02*
X6926191Y50361848D01*
X6926191Y50361848D02*
X6830953Y50314229D01*
X6830953Y50314229D02*
X6783334Y50218991D01*
X6783334Y50218991D02*
X6783334Y49695181D01*
X6307143Y50361848D02*
X6307143Y49695181D01*
X6307143Y50266610D02*
X6259524Y50314229D01*
X6259524Y50314229D02*
X6164286Y50361848D01*
X6164286Y50361848D02*
X6021429Y50361848D01*
X6021429Y50361848D02*
X5926191Y50314229D01*
X5926191Y50314229D02*
X5878572Y50218991D01*
X5878572Y50218991D02*
X5878572Y49695181D01*
X5640477Y49599943D02*
X4878572Y49599943D01*
X4450000Y50695181D02*
X4354762Y50695181D01*
X4354762Y50695181D02*
X4259524Y50647562D01*
X4259524Y50647562D02*
X4211905Y50599943D01*
X4211905Y50599943D02*
X4164286Y50504705D01*
X4164286Y50504705D02*
X4116667Y50314229D01*
X4116667Y50314229D02*
X4116667Y50076134D01*
X4116667Y50076134D02*
X4164286Y49885658D01*
X4164286Y49885658D02*
X4211905Y49790420D01*
X4211905Y49790420D02*
X4259524Y49742800D01*
X4259524Y49742800D02*
X4354762Y49695181D01*
X4354762Y49695181D02*
X4450000Y49695181D01*
X4450000Y49695181D02*
X4545238Y49742800D01*
X4545238Y49742800D02*
X4592857Y49790420D01*
X4592857Y49790420D02*
X4640476Y49885658D01*
X4640476Y49885658D02*
X4688095Y50076134D01*
X4688095Y50076134D02*
X4688095Y50314229D01*
X4688095Y50314229D02*
X4640476Y50504705D01*
X4640476Y50504705D02*
X4592857Y50599943D01*
X4592857Y50599943D02*
X4545238Y50647562D01*
X4545238Y50647562D02*
X4450000Y50695181D01*
X3164286Y49695181D02*
X3735714Y49695181D01*
X3450000Y49695181D02*
X3450000Y50695181D01*
X3450000Y50695181D02*
X3545238Y50552324D01*
X3545238Y50552324D02*
X3640476Y50457086D01*
X3640476Y50457086D02*
X3735714Y50409467D01*
X2830952Y49695181D02*
X2307143Y50361848D01*
X2830952Y50361848D02*
X2307143Y49695181D01*
X1735714Y50695181D02*
X1640476Y50695181D01*
X1640476Y50695181D02*
X1545238Y50647562D01*
X1545238Y50647562D02*
X1497619Y50599943D01*
X1497619Y50599943D02*
X1450000Y50504705D01*
X1450000Y50504705D02*
X1402381Y50314229D01*
X1402381Y50314229D02*
X1402381Y50076134D01*
X1402381Y50076134D02*
X1450000Y49885658D01*
X1450000Y49885658D02*
X1497619Y49790420D01*
X1497619Y49790420D02*
X1545238Y49742800D01*
X1545238Y49742800D02*
X1640476Y49695181D01*
X1640476Y49695181D02*
X1735714Y49695181D01*
X1735714Y49695181D02*
X1830952Y49742800D01*
X1830952Y49742800D02*
X1878571Y49790420D01*
X1878571Y49790420D02*
X1926190Y49885658D01*
X1926190Y49885658D02*
X1973809Y50076134D01*
X1973809Y50076134D02*
X1973809Y50314229D01*
X1973809Y50314229D02*
X1926190Y50504705D01*
X1926190Y50504705D02*
X1878571Y50599943D01*
X1878571Y50599943D02*
X1830952Y50647562D01*
X1830952Y50647562D02*
X1735714Y50695181D01*
X545238Y50361848D02*
X545238Y49695181D01*
X783333Y50742800D02*
X1021428Y50028515D01*
X1021428Y50028515D02*
X402381Y50028515D01*
X259524Y49599943D02*
X-502381Y49599943D01*
X-692858Y49742800D02*
X-835715Y49695181D01*
X-835715Y49695181D02*
X-1073810Y49695181D01*
X-1073810Y49695181D02*
X-1169048Y49742800D01*
X-1169048Y49742800D02*
X-1216667Y49790420D01*
X-1216667Y49790420D02*
X-1264286Y49885658D01*
X-1264286Y49885658D02*
X-1264286Y49980896D01*
X-1264286Y49980896D02*
X-1216667Y50076134D01*
X-1216667Y50076134D02*
X-1169048Y50123753D01*
X-1169048Y50123753D02*
X-1073810Y50171372D01*
X-1073810Y50171372D02*
X-883334Y50218991D01*
X-883334Y50218991D02*
X-788096Y50266610D01*
X-788096Y50266610D02*
X-740477Y50314229D01*
X-740477Y50314229D02*
X-692858Y50409467D01*
X-692858Y50409467D02*
X-692858Y50504705D01*
X-692858Y50504705D02*
X-740477Y50599943D01*
X-740477Y50599943D02*
X-788096Y50647562D01*
X-788096Y50647562D02*
X-883334Y50695181D01*
X-883334Y50695181D02*
X-1121429Y50695181D01*
X-1121429Y50695181D02*
X-1264286Y50647562D01*
X-1835715Y49695181D02*
X-1740477Y49742800D01*
X-1740477Y49742800D02*
X-1692858Y49790420D01*
X-1692858Y49790420D02*
X-1645239Y49885658D01*
X-1645239Y49885658D02*
X-1645239Y50171372D01*
X-1645239Y50171372D02*
X-1692858Y50266610D01*
X-1692858Y50266610D02*
X-1740477Y50314229D01*
X-1740477Y50314229D02*
X-1835715Y50361848D01*
X-1835715Y50361848D02*
X-1978572Y50361848D01*
X-1978572Y50361848D02*
X-2073810Y50314229D01*
X-2073810Y50314229D02*
X-2121429Y50266610D01*
X-2121429Y50266610D02*
X-2169048Y50171372D01*
X-2169048Y50171372D02*
X-2169048Y49885658D01*
X-2169048Y49885658D02*
X-2121429Y49790420D01*
X-2121429Y49790420D02*
X-2073810Y49742800D01*
X-2073810Y49742800D02*
X-1978572Y49695181D01*
X-1978572Y49695181D02*
X-1835715Y49695181D01*
X-3026191Y49742800D02*
X-2930953Y49695181D01*
X-2930953Y49695181D02*
X-2740477Y49695181D01*
X-2740477Y49695181D02*
X-2645239Y49742800D01*
X-2645239Y49742800D02*
X-2597620Y49790420D01*
X-2597620Y49790420D02*
X-2550001Y49885658D01*
X-2550001Y49885658D02*
X-2550001Y50171372D01*
X-2550001Y50171372D02*
X-2597620Y50266610D01*
X-2597620Y50266610D02*
X-2645239Y50314229D01*
X-2645239Y50314229D02*
X-2740477Y50361848D01*
X-2740477Y50361848D02*
X-2930953Y50361848D01*
X-2930953Y50361848D02*
X-3026191Y50314229D01*
X-3454763Y49695181D02*
X-3454763Y50695181D01*
X-3550001Y50076134D02*
X-3835715Y49695181D01*
X-3835715Y50361848D02*
X-3454763Y49980896D01*
X-4645239Y49742800D02*
X-4550001Y49695181D01*
X-4550001Y49695181D02*
X-4359525Y49695181D01*
X-4359525Y49695181D02*
X-4264287Y49742800D01*
X-4264287Y49742800D02*
X-4216668Y49838039D01*
X-4216668Y49838039D02*
X-4216668Y50218991D01*
X-4216668Y50218991D02*
X-4264287Y50314229D01*
X-4264287Y50314229D02*
X-4359525Y50361848D01*
X-4359525Y50361848D02*
X-4550001Y50361848D01*
X-4550001Y50361848D02*
X-4645239Y50314229D01*
X-4645239Y50314229D02*
X-4692858Y50218991D01*
X-4692858Y50218991D02*
X-4692858Y50123753D01*
X-4692858Y50123753D02*
X-4216668Y50028515D01*
X-4978573Y50361848D02*
X-5359525Y50361848D01*
X-5121430Y50695181D02*
X-5121430Y49838039D01*
X-5121430Y49838039D02*
X-5169049Y49742800D01*
X-5169049Y49742800D02*
X-5264287Y49695181D01*
X-5264287Y49695181D02*
X-5359525Y49695181D01*
X1404819Y54523334D02*
X2119104Y54523334D01*
X2119104Y54523334D02*
X2261961Y54570953D01*
X2261961Y54570953D02*
X2357200Y54666191D01*
X2357200Y54666191D02*
X2404819Y54809048D01*
X2404819Y54809048D02*
X2404819Y54904286D01*
X1404819Y53570953D02*
X1404819Y54047143D01*
X1404819Y54047143D02*
X1881009Y54094762D01*
X1881009Y54094762D02*
X1833390Y54047143D01*
X1833390Y54047143D02*
X1785771Y53951905D01*
X1785771Y53951905D02*
X1785771Y53713810D01*
X1785771Y53713810D02*
X1833390Y53618572D01*
X1833390Y53618572D02*
X1881009Y53570953D01*
X1881009Y53570953D02*
X1976247Y53523334D01*
X1976247Y53523334D02*
X2214342Y53523334D01*
X2214342Y53523334D02*
X2309580Y53570953D01*
X2309580Y53570953D02*
X2357200Y53618572D01*
X2357200Y53618572D02*
X2404819Y53713810D01*
X2404819Y53713810D02*
X2404819Y53951905D01*
X2404819Y53951905D02*
X2357200Y54047143D01*
X2357200Y54047143D02*
X2309580Y54094762D01*
X27833437Y13650981D02*
X27262009Y13650981D01*
X27547723Y12650981D02*
X27547723Y13650981D01*
X26928675Y13174791D02*
X26595342Y13174791D01*
X26452485Y12650981D02*
X26928675Y12650981D01*
X26928675Y12650981D02*
X26928675Y13650981D01*
X26928675Y13650981D02*
X26452485Y13650981D01*
X26071532Y12698600D02*
X25928675Y12650981D01*
X25928675Y12650981D02*
X25690580Y12650981D01*
X25690580Y12650981D02*
X25595342Y12698600D01*
X25595342Y12698600D02*
X25547723Y12746220D01*
X25547723Y12746220D02*
X25500104Y12841458D01*
X25500104Y12841458D02*
X25500104Y12936696D01*
X25500104Y12936696D02*
X25547723Y13031934D01*
X25547723Y13031934D02*
X25595342Y13079553D01*
X25595342Y13079553D02*
X25690580Y13127172D01*
X25690580Y13127172D02*
X25881056Y13174791D01*
X25881056Y13174791D02*
X25976294Y13222410D01*
X25976294Y13222410D02*
X26023913Y13270029D01*
X26023913Y13270029D02*
X26071532Y13365267D01*
X26071532Y13365267D02*
X26071532Y13460505D01*
X26071532Y13460505D02*
X26023913Y13555743D01*
X26023913Y13555743D02*
X25976294Y13603362D01*
X25976294Y13603362D02*
X25881056Y13650981D01*
X25881056Y13650981D02*
X25642961Y13650981D01*
X25642961Y13650981D02*
X25500104Y13603362D01*
X25214389Y13650981D02*
X24642961Y13650981D01*
X24928675Y12650981D02*
X24928675Y13650981D01*
X27500104Y16650981D02*
X26928676Y16650981D01*
X27214390Y15650981D02*
X27214390Y16650981D01*
X26595342Y15650981D02*
X26595342Y16650981D01*
X26595342Y16650981D02*
X26214390Y16650981D01*
X26214390Y16650981D02*
X26119152Y16603362D01*
X26119152Y16603362D02*
X26071533Y16555743D01*
X26071533Y16555743D02*
X26023914Y16460505D01*
X26023914Y16460505D02*
X26023914Y16317648D01*
X26023914Y16317648D02*
X26071533Y16222410D01*
X26071533Y16222410D02*
X26119152Y16174791D01*
X26119152Y16174791D02*
X26214390Y16127172D01*
X26214390Y16127172D02*
X26595342Y16127172D01*
X25166771Y16650981D02*
X25357247Y16650981D01*
X25357247Y16650981D02*
X25452485Y16603362D01*
X25452485Y16603362D02*
X25500104Y16555743D01*
X25500104Y16555743D02*
X25595342Y16412886D01*
X25595342Y16412886D02*
X25642961Y16222410D01*
X25642961Y16222410D02*
X25642961Y15841458D01*
X25642961Y15841458D02*
X25595342Y15746220D01*
X25595342Y15746220D02*
X25547723Y15698600D01*
X25547723Y15698600D02*
X25452485Y15650981D01*
X25452485Y15650981D02*
X25262009Y15650981D01*
X25262009Y15650981D02*
X25166771Y15698600D01*
X25166771Y15698600D02*
X25119152Y15746220D01*
X25119152Y15746220D02*
X25071533Y15841458D01*
X25071533Y15841458D02*
X25071533Y16079553D01*
X25071533Y16079553D02*
X25119152Y16174791D01*
X25119152Y16174791D02*
X25166771Y16222410D01*
X25166771Y16222410D02*
X25262009Y16270029D01*
X25262009Y16270029D02*
X25452485Y16270029D01*
X25452485Y16270029D02*
X25547723Y16222410D01*
X25547723Y16222410D02*
X25595342Y16174791D01*
X25595342Y16174791D02*
X25642961Y16079553D01*
X11856837Y26477981D02*
X11285409Y26477981D01*
X11571123Y25477981D02*
X11571123Y26477981D01*
X10952075Y26001791D02*
X10618742Y26001791D01*
X10475885Y25477981D02*
X10952075Y25477981D01*
X10952075Y25477981D02*
X10952075Y26477981D01*
X10952075Y26477981D02*
X10475885Y26477981D01*
X10094932Y25525600D02*
X9952075Y25477981D01*
X9952075Y25477981D02*
X9713980Y25477981D01*
X9713980Y25477981D02*
X9618742Y25525600D01*
X9618742Y25525600D02*
X9571123Y25573220D01*
X9571123Y25573220D02*
X9523504Y25668458D01*
X9523504Y25668458D02*
X9523504Y25763696D01*
X9523504Y25763696D02*
X9571123Y25858934D01*
X9571123Y25858934D02*
X9618742Y25906553D01*
X9618742Y25906553D02*
X9713980Y25954172D01*
X9713980Y25954172D02*
X9904456Y26001791D01*
X9904456Y26001791D02*
X9999694Y26049410D01*
X9999694Y26049410D02*
X10047313Y26097029D01*
X10047313Y26097029D02*
X10094932Y26192267D01*
X10094932Y26192267D02*
X10094932Y26287505D01*
X10094932Y26287505D02*
X10047313Y26382743D01*
X10047313Y26382743D02*
X9999694Y26430362D01*
X9999694Y26430362D02*
X9904456Y26477981D01*
X9904456Y26477981D02*
X9666361Y26477981D01*
X9666361Y26477981D02*
X9523504Y26430362D01*
X9237789Y26477981D02*
X8666361Y26477981D01*
X8952075Y25477981D02*
X8952075Y26477981D01*
X11523504Y29477981D02*
X10952076Y29477981D01*
X11237790Y28477981D02*
X11237790Y29477981D01*
X10618742Y28477981D02*
X10618742Y29477981D01*
X10618742Y29477981D02*
X10237790Y29477981D01*
X10237790Y29477981D02*
X10142552Y29430362D01*
X10142552Y29430362D02*
X10094933Y29382743D01*
X10094933Y29382743D02*
X10047314Y29287505D01*
X10047314Y29287505D02*
X10047314Y29144648D01*
X10047314Y29144648D02*
X10094933Y29049410D01*
X10094933Y29049410D02*
X10142552Y29001791D01*
X10142552Y29001791D02*
X10237790Y28954172D01*
X10237790Y28954172D02*
X10618742Y28954172D01*
X9142552Y29477981D02*
X9618742Y29477981D01*
X9618742Y29477981D02*
X9666361Y29001791D01*
X9666361Y29001791D02*
X9618742Y29049410D01*
X9618742Y29049410D02*
X9523504Y29097029D01*
X9523504Y29097029D02*
X9285409Y29097029D01*
X9285409Y29097029D02*
X9190171Y29049410D01*
X9190171Y29049410D02*
X9142552Y29001791D01*
X9142552Y29001791D02*
X9094933Y28906553D01*
X9094933Y28906553D02*
X9094933Y28668458D01*
X9094933Y28668458D02*
X9142552Y28573220D01*
X9142552Y28573220D02*
X9190171Y28525600D01*
X9190171Y28525600D02*
X9285409Y28477981D01*
X9285409Y28477981D02*
X9523504Y28477981D01*
X9523504Y28477981D02*
X9618742Y28525600D01*
X9618742Y28525600D02*
X9666361Y28573220D01*
D11*
G04 #@! TO.C,SW1*
X25020000Y-2940000D02*
X29465000Y-2940000D01*
X29465000Y-2940000D02*
X30100000Y-2305000D01*
X30100000Y-2305000D02*
X30100000Y-400000D01*
X25020000Y-400000D02*
X25020000Y-2940000D01*
X30100000Y-400000D02*
X25020000Y-400000D01*
G04 #@! TO.C,J9*
X6950000Y46857800D02*
X6950000Y39857800D01*
X2450000Y46857800D02*
X3450000Y45857800D01*
X-50000Y46857800D02*
X6950000Y46857800D01*
X-50000Y46857800D02*
X-50000Y39857800D01*
X-2050000Y46357800D02*
X-50000Y46357800D01*
X-3550000Y46357800D02*
X-4050000Y40357800D01*
X-4050000Y46357800D02*
X-4550000Y40357800D01*
X-4550000Y46357800D02*
X-5050000Y40357800D01*
X-5050000Y46357800D02*
X-5550000Y40357800D01*
X-5550000Y46357800D02*
X-6050000Y40357800D01*
X-6050000Y46357800D02*
X-6550000Y40357800D01*
X3450000Y45857800D02*
X4450000Y46857800D01*
X-8050000Y45857800D02*
X-2050000Y45857800D01*
X-8050000Y45857800D02*
X-8050000Y40857800D01*
X-8050000Y40857800D02*
X-2050000Y40857800D01*
X-2050000Y40357800D02*
X-2050000Y46357800D01*
X-2050000Y40357800D02*
X-50000Y40357800D01*
X-50000Y39857800D02*
X6950000Y39857800D01*
X-1050000Y39057800D02*
X-1050000Y47657800D01*
G04 #@! TO.C,J10*
X3220000Y23710000D02*
X3220000Y35140000D01*
X3220000Y35140000D02*
X1315000Y35140000D01*
X1315000Y35140000D02*
X680000Y34505000D01*
X680000Y23710000D02*
X3220000Y23710000D01*
X680000Y34505000D02*
X680000Y23710000D01*
G04 #@! TO.C,J4*
X3220000Y5930000D02*
X3220000Y17360000D01*
X3220000Y17360000D02*
X1315000Y17360000D01*
X1315000Y17360000D02*
X680000Y16725000D01*
X680000Y5930000D02*
X3220000Y5930000D01*
X680000Y16725000D02*
X680000Y5930000D01*
G04 #@! TO.C,J5*
X3220000Y51650000D02*
X3220000Y56730000D01*
X3220000Y56730000D02*
X1315000Y56730000D01*
X1315000Y56730000D02*
X680000Y56095000D01*
X680000Y51650000D02*
X3220000Y51650000D01*
X680000Y56095000D02*
X680000Y51650000D01*
G04 #@! TD*
M02*
