%TF.GenerationSoftware,KiCad,Pcbnew,6.0.7-f9a2dced07~116~ubuntu20.04.1*%
%TF.CreationDate,2022-09-24T19:15:38+02:00*%
%TF.ProjectId,SRRReceiver,53525252-6563-4656-9976-65722e6b6963,rev?*%
%TF.SameCoordinates,Original*%
%TF.FileFunction,Copper,L3,Inr*%
%TF.FilePolarity,Positive*%
%FSLAX46Y46*%
G04 Gerber Fmt 4.6, Leading zero omitted, Abs format (unit mm)*
G04 Created by KiCad (PCBNEW 6.0.7-f9a2dced07~116~ubuntu20.04.1) date 2022-09-24 19:15:38*
%MOMM*%
%LPD*%
G01*
G04 APERTURE LIST*
%TA.AperFunction,ComponentPad*%
%ADD10R,0.500000X0.900000*%
%TD*%
%TA.AperFunction,ViaPad*%
%ADD11C,0.500000*%
%TD*%
%TA.AperFunction,Conductor*%
%ADD12C,0.250000*%
%TD*%
G04 APERTURE END LIST*
D10*
%TO.N,GND*%
%TO.C,AE2*%
X133000000Y-82550000D03*
%TD*%
%TO.N,GND*%
%TO.C,AE1*%
X115600000Y-95900000D03*
%TD*%
D11*
%TO.N,GND*%
X121900000Y-88100000D03*
X130300000Y-79250000D03*
X120300000Y-83300000D03*
X130300000Y-99300000D03*
X127100000Y-96000000D03*
X130250000Y-80400000D03*
X116500000Y-98400000D03*
X128700000Y-85700000D03*
X126850000Y-80350000D03*
X116400000Y-92600000D03*
X118874500Y-98600000D03*
X132200000Y-87100000D03*
X125100000Y-79200000D03*
X124200000Y-90700000D03*
X128750000Y-81250000D03*
X116600000Y-79200000D03*
X126300000Y-79200000D03*
X117800000Y-92000000D03*
X116400000Y-91500000D03*
X116075500Y-82700000D03*
X131800000Y-94600000D03*
X121150000Y-83300000D03*
X125650000Y-85350000D03*
X127700000Y-79200000D03*
X118000000Y-79200000D03*
X119900000Y-79200000D03*
X116500000Y-97400000D03*
X131600000Y-81500000D03*
X125300000Y-97500000D03*
X127900000Y-85900000D03*
X121100000Y-84200000D03*
X116600000Y-89000000D03*
X116400000Y-90400000D03*
X129968767Y-92881233D03*
X122500000Y-93900000D03*
X131800000Y-91500000D03*
X128100000Y-96000000D03*
X118300000Y-86400000D03*
X131800000Y-90400000D03*
X131650000Y-79250000D03*
X131100000Y-89300000D03*
X116300000Y-94900000D03*
X132200000Y-86000000D03*
X131650000Y-80400000D03*
X117600000Y-99400000D03*
X116500000Y-99400000D03*
X132000000Y-99200000D03*
X128850000Y-82350000D03*
X116600000Y-80200000D03*
X130900000Y-97400000D03*
X117800000Y-80000000D03*
X122200000Y-79200000D03*
X116200000Y-86850000D03*
X119222082Y-93541804D03*
X120300000Y-84200000D03*
X118750000Y-94100000D03*
X127100000Y-95100000D03*
X130300000Y-91500000D03*
X131600000Y-82550000D03*
X128050000Y-81600000D03*
X132000000Y-98100000D03*
X121700000Y-98800000D03*
X131100000Y-88100000D03*
X129100000Y-79250000D03*
X127750000Y-80350000D03*
X117050000Y-92100000D03*
X123800000Y-79200000D03*
X127100000Y-91450000D03*
X128100000Y-95100000D03*
X120700000Y-93900000D03*
X131100000Y-98600000D03*
X125200000Y-82300000D03*
X121000000Y-79600000D03*
X129100000Y-90400000D03*
X129100000Y-80350000D03*
%TO.N,SPI2_MOSI*%
X129200000Y-97600000D03*
%TO.N,SPI2_NSS*%
X129300000Y-92400000D03*
%TO.N,VDD*%
X124475500Y-85550000D03*
X125400000Y-93200000D03*
X124600000Y-96300000D03*
X123450000Y-87750000D03*
X127200000Y-98924500D03*
X127068951Y-92198355D03*
X117800000Y-84600000D03*
X130635298Y-94764702D03*
X124600000Y-94500000D03*
X121522266Y-87122266D03*
X123637500Y-82387500D03*
X122500000Y-97900000D03*
X120700000Y-80778732D03*
%TO.N,SPI2_SCK*%
X130200000Y-97800000D03*
%TO.N,SPI1_SCK*%
X117775500Y-81000000D03*
%TO.N,SPI1_MISO*%
X117000000Y-81800000D03*
%TO.N,SPI1_NSS*%
X119300000Y-87300000D03*
%TO.N,SPI2_MISO*%
X130500000Y-96100000D03*
X124000000Y-89950000D03*
%TO.N,SPI1_MOSI*%
X119400000Y-81350000D03*
%TO.N,GD0_INT_2*%
X129100000Y-93700000D03*
X117500000Y-97700000D03*
%TO.N,GD0_INT_1*%
X117236803Y-89289456D03*
X119500000Y-85650000D03*
%TD*%
D12*
%TO.N,VDD*%
X123425000Y-87775000D02*
X123450000Y-87750000D01*
%TO.N,SPI2_MISO*%
X130550000Y-93639243D02*
X131210298Y-94299541D01*
X124000000Y-89950000D02*
X124300000Y-89950000D01*
X129648355Y-91748355D02*
X130550000Y-92650000D01*
X125200000Y-90850000D02*
X127313173Y-90850000D01*
X131210298Y-94299541D02*
X131210298Y-95389702D01*
X127313173Y-90850000D02*
X127675000Y-91211827D01*
X127675000Y-91675000D02*
X127748355Y-91748355D01*
X127675000Y-91211827D02*
X127675000Y-91675000D01*
X131210298Y-95389702D02*
X130500000Y-96100000D01*
X124300000Y-89950000D02*
X125200000Y-90850000D01*
X130550000Y-92650000D02*
X130550000Y-93639243D01*
X127748355Y-91748355D02*
X129648355Y-91748355D01*
%TO.N,GD0_INT_2*%
X128625000Y-98675000D02*
X128625000Y-97275000D01*
X129200000Y-93800000D02*
X129100000Y-93700000D01*
X127800500Y-99499500D02*
X128625000Y-98675000D01*
X117500000Y-97700000D02*
X117500000Y-98038673D01*
X117500000Y-98038673D02*
X118960827Y-99499500D01*
X129200000Y-96700000D02*
X129200000Y-93800000D01*
X118960827Y-99499500D02*
X127800500Y-99499500D01*
X128625000Y-97275000D02*
X129200000Y-96700000D01*
%TO.N,GD0_INT_1*%
X117236803Y-88376370D02*
X119500000Y-86113173D01*
X119500000Y-86113173D02*
X119500000Y-85650000D01*
X117236803Y-89289456D02*
X117236803Y-88376370D01*
%TD*%
%TA.AperFunction,Conductor*%
%TO.N,VDD*%
G36*
X117737344Y-78621002D02*
G01*
X117783837Y-78674658D01*
X117793941Y-78744932D01*
X117764447Y-78809512D01*
X117736458Y-78833562D01*
X117712614Y-78848606D01*
X117712610Y-78848609D01*
X117705019Y-78853399D01*
X117699076Y-78860128D01*
X117699075Y-78860129D01*
X117680309Y-78881378D01*
X117619596Y-78950122D01*
X117615782Y-78958245D01*
X117615781Y-78958247D01*
X117603136Y-78985181D01*
X117564754Y-79066932D01*
X117556969Y-79116932D01*
X117546282Y-79185567D01*
X117546282Y-79185571D01*
X117544901Y-79194440D01*
X117546065Y-79203342D01*
X117546065Y-79203345D01*
X117560468Y-79313489D01*
X117560469Y-79313493D01*
X117561633Y-79322394D01*
X117613605Y-79440510D01*
X117614129Y-79441133D01*
X117632045Y-79505576D01*
X117611062Y-79573401D01*
X117573294Y-79610319D01*
X117512616Y-79648604D01*
X117512609Y-79648610D01*
X117505019Y-79653399D01*
X117499076Y-79660128D01*
X117499075Y-79660129D01*
X117463206Y-79700743D01*
X117419596Y-79750122D01*
X117415782Y-79758245D01*
X117415781Y-79758247D01*
X117393644Y-79805398D01*
X117364754Y-79866932D01*
X117359657Y-79899668D01*
X117346282Y-79985567D01*
X117346282Y-79985571D01*
X117344901Y-79994440D01*
X117346065Y-80003342D01*
X117346065Y-80003345D01*
X117360468Y-80113489D01*
X117360469Y-80113493D01*
X117361633Y-80122394D01*
X117365250Y-80130614D01*
X117407132Y-80225798D01*
X117413605Y-80240510D01*
X117419382Y-80247383D01*
X117419383Y-80247384D01*
X117488431Y-80329526D01*
X117496639Y-80339291D01*
X117569227Y-80387610D01*
X117614849Y-80442005D01*
X117623821Y-80512433D01*
X117593292Y-80576531D01*
X117566644Y-80599058D01*
X117513975Y-80632290D01*
X117480519Y-80653399D01*
X117474576Y-80660128D01*
X117474575Y-80660129D01*
X117444425Y-80694268D01*
X117395096Y-80750122D01*
X117391282Y-80758245D01*
X117391281Y-80758247D01*
X117367842Y-80808172D01*
X117340254Y-80866932D01*
X117335135Y-80899811D01*
X117321782Y-80985567D01*
X117321782Y-80985571D01*
X117320401Y-80994440D01*
X117321565Y-81003342D01*
X117321565Y-81003345D01*
X117335968Y-81113489D01*
X117335969Y-81113493D01*
X117337133Y-81122394D01*
X117384985Y-81231145D01*
X117388579Y-81239314D01*
X117397707Y-81309721D01*
X117367320Y-81373887D01*
X117307066Y-81411437D01*
X117236077Y-81410452D01*
X117204720Y-81395794D01*
X117198437Y-81391722D01*
X117198436Y-81391721D01*
X117190906Y-81386841D01*
X117182311Y-81384271D01*
X117182310Y-81384270D01*
X117075874Y-81352438D01*
X117075872Y-81352438D01*
X117067273Y-81349866D01*
X117058298Y-81349811D01*
X117058297Y-81349811D01*
X117003641Y-81349477D01*
X116938231Y-81349078D01*
X116904183Y-81358809D01*
X116822786Y-81382072D01*
X116822784Y-81382073D01*
X116814155Y-81384539D01*
X116806565Y-81389328D01*
X116745924Y-81427590D01*
X116705019Y-81453399D01*
X116699076Y-81460128D01*
X116699075Y-81460129D01*
X116663862Y-81500000D01*
X116619596Y-81550122D01*
X116615782Y-81558245D01*
X116615781Y-81558247D01*
X116597407Y-81597384D01*
X116564754Y-81666932D01*
X116558846Y-81704878D01*
X116546282Y-81785567D01*
X116546282Y-81785571D01*
X116544901Y-81794440D01*
X116546065Y-81803342D01*
X116546065Y-81803345D01*
X116560468Y-81913489D01*
X116560469Y-81913493D01*
X116561633Y-81922394D01*
X116576872Y-81957028D01*
X116601709Y-82013473D01*
X116613605Y-82040510D01*
X116619382Y-82047383D01*
X116619383Y-82047384D01*
X116661918Y-82097985D01*
X116696639Y-82139291D01*
X116704116Y-82144268D01*
X116792948Y-82203399D01*
X116804060Y-82210796D01*
X116927233Y-82249278D01*
X116936203Y-82249442D01*
X116936207Y-82249443D01*
X116994942Y-82250519D01*
X117056255Y-82251643D01*
X117131440Y-82231145D01*
X117172092Y-82220062D01*
X117172093Y-82220062D01*
X117180755Y-82217700D01*
X117188405Y-82213003D01*
X117188407Y-82213002D01*
X117283072Y-82154878D01*
X117283075Y-82154875D01*
X117290724Y-82150179D01*
X117298380Y-82141721D01*
X117371300Y-82061161D01*
X117371303Y-82061157D01*
X117377322Y-82054507D01*
X117433588Y-81938375D01*
X117436491Y-81921124D01*
X117454190Y-81815917D01*
X117454997Y-81811120D01*
X117455133Y-81800000D01*
X117442744Y-81713489D01*
X117438112Y-81681145D01*
X117438111Y-81681142D01*
X117436839Y-81672259D01*
X117433125Y-81664091D01*
X117433124Y-81664087D01*
X117386895Y-81562413D01*
X117376907Y-81492122D01*
X117406508Y-81427590D01*
X117466298Y-81389306D01*
X117537294Y-81389424D01*
X117571410Y-81405371D01*
X117579560Y-81410796D01*
X117702733Y-81449278D01*
X117711703Y-81449442D01*
X117711707Y-81449443D01*
X117770442Y-81450519D01*
X117831755Y-81451643D01*
X117894005Y-81434671D01*
X117947592Y-81420062D01*
X117947593Y-81420062D01*
X117956255Y-81417700D01*
X117963905Y-81413003D01*
X117963907Y-81413002D01*
X118058572Y-81354878D01*
X118058575Y-81354875D01*
X118066224Y-81350179D01*
X118071419Y-81344440D01*
X118944901Y-81344440D01*
X118946065Y-81353342D01*
X118946065Y-81353345D01*
X118960468Y-81463489D01*
X118960469Y-81463493D01*
X118961633Y-81472394D01*
X119013605Y-81590510D01*
X119019382Y-81597383D01*
X119019383Y-81597384D01*
X119090859Y-81682415D01*
X119096639Y-81689291D01*
X119204060Y-81760796D01*
X119283347Y-81785567D01*
X119311748Y-81794440D01*
X119327233Y-81799278D01*
X119336203Y-81799442D01*
X119336207Y-81799443D01*
X119394942Y-81800519D01*
X119456255Y-81801643D01*
X119518505Y-81784671D01*
X119572092Y-81770062D01*
X119572093Y-81770062D01*
X119580755Y-81767700D01*
X119588405Y-81763003D01*
X119588407Y-81763002D01*
X119683072Y-81704878D01*
X119683075Y-81704875D01*
X119690724Y-81700179D01*
X119696750Y-81693522D01*
X119771300Y-81611161D01*
X119771303Y-81611157D01*
X119777322Y-81604507D01*
X119833588Y-81488375D01*
X119838551Y-81458879D01*
X119854190Y-81365917D01*
X119854997Y-81361120D01*
X119855065Y-81355530D01*
X119855074Y-81354859D01*
X119855074Y-81354853D01*
X119855133Y-81350000D01*
X119847748Y-81298433D01*
X119838112Y-81231145D01*
X119838111Y-81231142D01*
X119836839Y-81222259D01*
X119830724Y-81208809D01*
X119787145Y-81112962D01*
X119787143Y-81112959D01*
X119783428Y-81104788D01*
X119747920Y-81063579D01*
X119705051Y-81013826D01*
X119705049Y-81013824D01*
X119699193Y-81007028D01*
X119590906Y-80936841D01*
X119582311Y-80934271D01*
X119582310Y-80934270D01*
X119475874Y-80902438D01*
X119475872Y-80902438D01*
X119467273Y-80899866D01*
X119458298Y-80899811D01*
X119458297Y-80899811D01*
X119403641Y-80899477D01*
X119338231Y-80899078D01*
X119276193Y-80916808D01*
X119222786Y-80932072D01*
X119222784Y-80932073D01*
X119214155Y-80934539D01*
X119206565Y-80939328D01*
X119113600Y-80997985D01*
X119105019Y-81003399D01*
X119099076Y-81010128D01*
X119099075Y-81010129D01*
X119064229Y-81049585D01*
X119019596Y-81100122D01*
X119015782Y-81108245D01*
X119015781Y-81108247D01*
X119009139Y-81122394D01*
X118964754Y-81216932D01*
X118959076Y-81253399D01*
X118946282Y-81335567D01*
X118946282Y-81335571D01*
X118944901Y-81344440D01*
X118071419Y-81344440D01*
X118072250Y-81343522D01*
X118146800Y-81261161D01*
X118146803Y-81261157D01*
X118152822Y-81254507D01*
X118209088Y-81138375D01*
X118211800Y-81122259D01*
X118229690Y-81015917D01*
X118230497Y-81011120D01*
X118230633Y-81000000D01*
X118220128Y-80926648D01*
X118213612Y-80881145D01*
X118213611Y-80881142D01*
X118212339Y-80872259D01*
X118206224Y-80858809D01*
X118162645Y-80762962D01*
X118162643Y-80762959D01*
X118158928Y-80754788D01*
X118106138Y-80693522D01*
X118080551Y-80663826D01*
X118080549Y-80663824D01*
X118074693Y-80657028D01*
X118058345Y-80646432D01*
X118006955Y-80613123D01*
X117960670Y-80559288D01*
X117950839Y-80488975D01*
X117980582Y-80424509D01*
X118009558Y-80400015D01*
X118083071Y-80354878D01*
X118090724Y-80350179D01*
X118095919Y-80344440D01*
X126394901Y-80344440D01*
X126396065Y-80353342D01*
X126396065Y-80353345D01*
X126410468Y-80463489D01*
X126410469Y-80463493D01*
X126411633Y-80472394D01*
X126463605Y-80590510D01*
X126469382Y-80597383D01*
X126469383Y-80597384D01*
X126540859Y-80682415D01*
X126546639Y-80689291D01*
X126554116Y-80694268D01*
X126638025Y-80750122D01*
X126654060Y-80760796D01*
X126777233Y-80799278D01*
X126786203Y-80799442D01*
X126786207Y-80799443D01*
X126844942Y-80800519D01*
X126906255Y-80801643D01*
X126968505Y-80784672D01*
X127022092Y-80770062D01*
X127022093Y-80770062D01*
X127030755Y-80767700D01*
X127038405Y-80763003D01*
X127038407Y-80763002D01*
X127133072Y-80704878D01*
X127133075Y-80704875D01*
X127140724Y-80700179D01*
X127150580Y-80689291D01*
X127207157Y-80626785D01*
X127267700Y-80589703D01*
X127338680Y-80591241D01*
X127397022Y-80630264D01*
X127446639Y-80689291D01*
X127454116Y-80694268D01*
X127538025Y-80750122D01*
X127554060Y-80760796D01*
X127677233Y-80799278D01*
X127686203Y-80799442D01*
X127686207Y-80799443D01*
X127744942Y-80800519D01*
X127806255Y-80801643D01*
X127868505Y-80784672D01*
X127922092Y-80770062D01*
X127922093Y-80770062D01*
X127930755Y-80767700D01*
X127938405Y-80763003D01*
X127938407Y-80763002D01*
X128033072Y-80704878D01*
X128033075Y-80704875D01*
X128040724Y-80700179D01*
X128046750Y-80693522D01*
X128121300Y-80611161D01*
X128121303Y-80611157D01*
X128127322Y-80604507D01*
X128183588Y-80488375D01*
X128188167Y-80461161D01*
X128204190Y-80365917D01*
X128204997Y-80361120D01*
X128205065Y-80355530D01*
X128205074Y-80354859D01*
X128205074Y-80354853D01*
X128205133Y-80350000D01*
X128194507Y-80275799D01*
X128188112Y-80231145D01*
X128188111Y-80231142D01*
X128186839Y-80222259D01*
X128183125Y-80214090D01*
X128137145Y-80112962D01*
X128137143Y-80112959D01*
X128133428Y-80104788D01*
X128087636Y-80051643D01*
X128055051Y-80013826D01*
X128055049Y-80013824D01*
X128049193Y-80007028D01*
X127940906Y-79936841D01*
X127932311Y-79934271D01*
X127932310Y-79934270D01*
X127825874Y-79902438D01*
X127825872Y-79902438D01*
X127817273Y-79899866D01*
X127808297Y-79899811D01*
X127808296Y-79899811D01*
X127784899Y-79899668D01*
X127725967Y-79881971D01*
X127700700Y-79897562D01*
X127693141Y-79899108D01*
X127688231Y-79899078D01*
X127679599Y-79901545D01*
X127572786Y-79932072D01*
X127572784Y-79932073D01*
X127564155Y-79934539D01*
X127542768Y-79948033D01*
X127483893Y-79985181D01*
X127455019Y-80003399D01*
X127442389Y-80017700D01*
X127394249Y-80072207D01*
X127334163Y-80110025D01*
X127263169Y-80109354D01*
X127204355Y-80071046D01*
X127155054Y-80013829D01*
X127155050Y-80013826D01*
X127149193Y-80007028D01*
X127040906Y-79936841D01*
X127032311Y-79934271D01*
X127032310Y-79934270D01*
X126925874Y-79902438D01*
X126925872Y-79902438D01*
X126917273Y-79899866D01*
X126908298Y-79899811D01*
X126908297Y-79899811D01*
X126853641Y-79899477D01*
X126788231Y-79899078D01*
X126726193Y-79916808D01*
X126672786Y-79932072D01*
X126672784Y-79932073D01*
X126664155Y-79934539D01*
X126642768Y-79948033D01*
X126583893Y-79985181D01*
X126555019Y-80003399D01*
X126549076Y-80010128D01*
X126549075Y-80010129D01*
X126516864Y-80046601D01*
X126469596Y-80100122D01*
X126465782Y-80108245D01*
X126465781Y-80108247D01*
X126463320Y-80113489D01*
X126414754Y-80216932D01*
X126406969Y-80266932D01*
X126396282Y-80335567D01*
X126396282Y-80335571D01*
X126394901Y-80344440D01*
X118095919Y-80344440D01*
X118096750Y-80343522D01*
X118171300Y-80261161D01*
X118171303Y-80261157D01*
X118177322Y-80254507D01*
X118233588Y-80138375D01*
X118237864Y-80112962D01*
X118254190Y-80015917D01*
X118254997Y-80011120D01*
X118255133Y-80000000D01*
X118241033Y-79901545D01*
X118238112Y-79881145D01*
X118238111Y-79881142D01*
X118236839Y-79872259D01*
X118228629Y-79854201D01*
X118183428Y-79754788D01*
X118184913Y-79754113D01*
X118167927Y-79695791D01*
X118188078Y-79627715D01*
X118227999Y-79588692D01*
X118283072Y-79554878D01*
X118283075Y-79554875D01*
X118290724Y-79550179D01*
X118296750Y-79543522D01*
X118371300Y-79461161D01*
X118371303Y-79461157D01*
X118377322Y-79454507D01*
X118433588Y-79338375D01*
X118447639Y-79254859D01*
X118454190Y-79215917D01*
X118454997Y-79211120D01*
X118455133Y-79200000D01*
X118445272Y-79131145D01*
X118438112Y-79081145D01*
X118438111Y-79081142D01*
X118436839Y-79072259D01*
X118430724Y-79058809D01*
X118387145Y-78962962D01*
X118387143Y-78962959D01*
X118383428Y-78954788D01*
X118338071Y-78902148D01*
X118305051Y-78863826D01*
X118305049Y-78863824D01*
X118299193Y-78857028D01*
X118275052Y-78841381D01*
X118261710Y-78832733D01*
X118215426Y-78778897D01*
X118205595Y-78708584D01*
X118235339Y-78644118D01*
X118295213Y-78605967D01*
X118330242Y-78601000D01*
X119569223Y-78601000D01*
X119637344Y-78621002D01*
X119683837Y-78674658D01*
X119693941Y-78744932D01*
X119664447Y-78809512D01*
X119636458Y-78833562D01*
X119612614Y-78848606D01*
X119612610Y-78848609D01*
X119605019Y-78853399D01*
X119599076Y-78860128D01*
X119599075Y-78860129D01*
X119580309Y-78881378D01*
X119519596Y-78950122D01*
X119515782Y-78958245D01*
X119515781Y-78958247D01*
X119503136Y-78985181D01*
X119464754Y-79066932D01*
X119456969Y-79116932D01*
X119446282Y-79185567D01*
X119446282Y-79185571D01*
X119444901Y-79194440D01*
X119446065Y-79203342D01*
X119446065Y-79203345D01*
X119460468Y-79313489D01*
X119460469Y-79313493D01*
X119461633Y-79322394D01*
X119465250Y-79330614D01*
X119499556Y-79408580D01*
X119513605Y-79440510D01*
X119519382Y-79447383D01*
X119519383Y-79447384D01*
X119572993Y-79511161D01*
X119596639Y-79539291D01*
X119604116Y-79544268D01*
X119678110Y-79593522D01*
X119704060Y-79610796D01*
X119827233Y-79649278D01*
X119836203Y-79649442D01*
X119836207Y-79649443D01*
X119894942Y-79650519D01*
X119956255Y-79651643D01*
X120044021Y-79627715D01*
X120072092Y-79620062D01*
X120072093Y-79620062D01*
X120080755Y-79617700D01*
X120088405Y-79613003D01*
X120088407Y-79613002D01*
X120118638Y-79594440D01*
X120544901Y-79594440D01*
X120546065Y-79603342D01*
X120546065Y-79603345D01*
X120560468Y-79713489D01*
X120560469Y-79713493D01*
X120561633Y-79722394D01*
X120613605Y-79840510D01*
X120619382Y-79847383D01*
X120619383Y-79847384D01*
X120687782Y-79928754D01*
X120696639Y-79939291D01*
X120704116Y-79944268D01*
X120792948Y-80003399D01*
X120804060Y-80010796D01*
X120927233Y-80049278D01*
X120936203Y-80049442D01*
X120936207Y-80049443D01*
X120994942Y-80050519D01*
X121056255Y-80051643D01*
X121118505Y-80034672D01*
X121172092Y-80020062D01*
X121172093Y-80020062D01*
X121180755Y-80017700D01*
X121188405Y-80013003D01*
X121188407Y-80013002D01*
X121283072Y-79954878D01*
X121283075Y-79954875D01*
X121290724Y-79950179D01*
X121300546Y-79939328D01*
X121371300Y-79861161D01*
X121371303Y-79861157D01*
X121377322Y-79854507D01*
X121433588Y-79738375D01*
X121436618Y-79720369D01*
X121454190Y-79615917D01*
X121454997Y-79611120D01*
X121455065Y-79605530D01*
X121455074Y-79604859D01*
X121455074Y-79604853D01*
X121455133Y-79600000D01*
X121446439Y-79539291D01*
X121438112Y-79481145D01*
X121438111Y-79481142D01*
X121436839Y-79472259D01*
X121402371Y-79396450D01*
X121387145Y-79362962D01*
X121387143Y-79362959D01*
X121383428Y-79354788D01*
X121347843Y-79313489D01*
X121305051Y-79263826D01*
X121305049Y-79263824D01*
X121299193Y-79257028D01*
X121190906Y-79186841D01*
X121182311Y-79184271D01*
X121182310Y-79184270D01*
X121075874Y-79152438D01*
X121075872Y-79152438D01*
X121067273Y-79149866D01*
X121058298Y-79149811D01*
X121058297Y-79149811D01*
X121003641Y-79149477D01*
X120938231Y-79149078D01*
X120926475Y-79152438D01*
X120822786Y-79182072D01*
X120822784Y-79182073D01*
X120814155Y-79184539D01*
X120705019Y-79253399D01*
X120619596Y-79350122D01*
X120615782Y-79358245D01*
X120615781Y-79358247D01*
X120613320Y-79363489D01*
X120564754Y-79466932D01*
X120563374Y-79475798D01*
X120546282Y-79585567D01*
X120546282Y-79585571D01*
X120544901Y-79594440D01*
X120118638Y-79594440D01*
X120183072Y-79554878D01*
X120183075Y-79554875D01*
X120190724Y-79550179D01*
X120196750Y-79543522D01*
X120271300Y-79461161D01*
X120271303Y-79461157D01*
X120277322Y-79454507D01*
X120333588Y-79338375D01*
X120347639Y-79254859D01*
X120354190Y-79215917D01*
X120354997Y-79211120D01*
X120355133Y-79200000D01*
X120345272Y-79131145D01*
X120338112Y-79081145D01*
X120338111Y-79081142D01*
X120336839Y-79072259D01*
X120330724Y-79058809D01*
X120287145Y-78962962D01*
X120287143Y-78962959D01*
X120283428Y-78954788D01*
X120238071Y-78902148D01*
X120205051Y-78863826D01*
X120205049Y-78863824D01*
X120199193Y-78857028D01*
X120175052Y-78841381D01*
X120161710Y-78832733D01*
X120115426Y-78778897D01*
X120105595Y-78708584D01*
X120135339Y-78644118D01*
X120195213Y-78605967D01*
X120230242Y-78601000D01*
X121869223Y-78601000D01*
X121937344Y-78621002D01*
X121983837Y-78674658D01*
X121993941Y-78744932D01*
X121964447Y-78809512D01*
X121936458Y-78833562D01*
X121912614Y-78848606D01*
X121912610Y-78848609D01*
X121905019Y-78853399D01*
X121899076Y-78860128D01*
X121899075Y-78860129D01*
X121880309Y-78881378D01*
X121819596Y-78950122D01*
X121815782Y-78958245D01*
X121815781Y-78958247D01*
X121803136Y-78985181D01*
X121764754Y-79066932D01*
X121756969Y-79116932D01*
X121746282Y-79185567D01*
X121746282Y-79185571D01*
X121744901Y-79194440D01*
X121746065Y-79203342D01*
X121746065Y-79203345D01*
X121760468Y-79313489D01*
X121760469Y-79313493D01*
X121761633Y-79322394D01*
X121765250Y-79330614D01*
X121799556Y-79408580D01*
X121813605Y-79440510D01*
X121819382Y-79447383D01*
X121819383Y-79447384D01*
X121872993Y-79511161D01*
X121896639Y-79539291D01*
X121904116Y-79544268D01*
X121978110Y-79593522D01*
X122004060Y-79610796D01*
X122127233Y-79649278D01*
X122136203Y-79649442D01*
X122136207Y-79649443D01*
X122194942Y-79650519D01*
X122256255Y-79651643D01*
X122344021Y-79627715D01*
X122372092Y-79620062D01*
X122372093Y-79620062D01*
X122380755Y-79617700D01*
X122388405Y-79613003D01*
X122388407Y-79613002D01*
X122483072Y-79554878D01*
X122483075Y-79554875D01*
X122490724Y-79550179D01*
X122496750Y-79543522D01*
X122571300Y-79461161D01*
X122571303Y-79461157D01*
X122577322Y-79454507D01*
X122633588Y-79338375D01*
X122647639Y-79254859D01*
X122654190Y-79215917D01*
X122654997Y-79211120D01*
X122655133Y-79200000D01*
X122645272Y-79131145D01*
X122638112Y-79081145D01*
X122638111Y-79081142D01*
X122636839Y-79072259D01*
X122630724Y-79058809D01*
X122587145Y-78962962D01*
X122587143Y-78962959D01*
X122583428Y-78954788D01*
X122538071Y-78902148D01*
X122505051Y-78863826D01*
X122505049Y-78863824D01*
X122499193Y-78857028D01*
X122475052Y-78841381D01*
X122461710Y-78832733D01*
X122415426Y-78778897D01*
X122405595Y-78708584D01*
X122435339Y-78644118D01*
X122495213Y-78605967D01*
X122530242Y-78601000D01*
X123469223Y-78601000D01*
X123537344Y-78621002D01*
X123583837Y-78674658D01*
X123593941Y-78744932D01*
X123564447Y-78809512D01*
X123536458Y-78833562D01*
X123512614Y-78848606D01*
X123512610Y-78848609D01*
X123505019Y-78853399D01*
X123499076Y-78860128D01*
X123499075Y-78860129D01*
X123480309Y-78881378D01*
X123419596Y-78950122D01*
X123415782Y-78958245D01*
X123415781Y-78958247D01*
X123403136Y-78985181D01*
X123364754Y-79066932D01*
X123356969Y-79116932D01*
X123346282Y-79185567D01*
X123346282Y-79185571D01*
X123344901Y-79194440D01*
X123346065Y-79203342D01*
X123346065Y-79203345D01*
X123360468Y-79313489D01*
X123360469Y-79313493D01*
X123361633Y-79322394D01*
X123365250Y-79330614D01*
X123399556Y-79408580D01*
X123413605Y-79440510D01*
X123419382Y-79447383D01*
X123419383Y-79447384D01*
X123472993Y-79511161D01*
X123496639Y-79539291D01*
X123504116Y-79544268D01*
X123578110Y-79593522D01*
X123604060Y-79610796D01*
X123727233Y-79649278D01*
X123736203Y-79649442D01*
X123736207Y-79649443D01*
X123794942Y-79650519D01*
X123856255Y-79651643D01*
X123944021Y-79627715D01*
X123972092Y-79620062D01*
X123972093Y-79620062D01*
X123980755Y-79617700D01*
X123988405Y-79613003D01*
X123988407Y-79613002D01*
X124083072Y-79554878D01*
X124083075Y-79554875D01*
X124090724Y-79550179D01*
X124096750Y-79543522D01*
X124171300Y-79461161D01*
X124171303Y-79461157D01*
X124177322Y-79454507D01*
X124233588Y-79338375D01*
X124247639Y-79254859D01*
X124254190Y-79215917D01*
X124254997Y-79211120D01*
X124255133Y-79200000D01*
X124245272Y-79131145D01*
X124238112Y-79081145D01*
X124238111Y-79081142D01*
X124236839Y-79072259D01*
X124230724Y-79058809D01*
X124187145Y-78962962D01*
X124187143Y-78962959D01*
X124183428Y-78954788D01*
X124138071Y-78902148D01*
X124105051Y-78863826D01*
X124105049Y-78863824D01*
X124099193Y-78857028D01*
X124075052Y-78841381D01*
X124061710Y-78832733D01*
X124015426Y-78778897D01*
X124005595Y-78708584D01*
X124035339Y-78644118D01*
X124095213Y-78605967D01*
X124130242Y-78601000D01*
X124769223Y-78601000D01*
X124837344Y-78621002D01*
X124883837Y-78674658D01*
X124893941Y-78744932D01*
X124864447Y-78809512D01*
X124836458Y-78833562D01*
X124812614Y-78848606D01*
X124812610Y-78848609D01*
X124805019Y-78853399D01*
X124799076Y-78860128D01*
X124799075Y-78860129D01*
X124780309Y-78881378D01*
X124719596Y-78950122D01*
X124715782Y-78958245D01*
X124715781Y-78958247D01*
X124703136Y-78985181D01*
X124664754Y-79066932D01*
X124656969Y-79116932D01*
X124646282Y-79185567D01*
X124646282Y-79185571D01*
X124644901Y-79194440D01*
X124646065Y-79203342D01*
X124646065Y-79203345D01*
X124660468Y-79313489D01*
X124660469Y-79313493D01*
X124661633Y-79322394D01*
X124665250Y-79330614D01*
X124699556Y-79408580D01*
X124713605Y-79440510D01*
X124719382Y-79447383D01*
X124719383Y-79447384D01*
X124772993Y-79511161D01*
X124796639Y-79539291D01*
X124804116Y-79544268D01*
X124878110Y-79593522D01*
X124904060Y-79610796D01*
X125027233Y-79649278D01*
X125036203Y-79649442D01*
X125036207Y-79649443D01*
X125094942Y-79650519D01*
X125156255Y-79651643D01*
X125244021Y-79627715D01*
X125272092Y-79620062D01*
X125272093Y-79620062D01*
X125280755Y-79617700D01*
X125288405Y-79613003D01*
X125288407Y-79613002D01*
X125383072Y-79554878D01*
X125383075Y-79554875D01*
X125390724Y-79550179D01*
X125396750Y-79543522D01*
X125471300Y-79461161D01*
X125471303Y-79461157D01*
X125477322Y-79454507D01*
X125533588Y-79338375D01*
X125547639Y-79254859D01*
X125554190Y-79215917D01*
X125554997Y-79211120D01*
X125555133Y-79200000D01*
X125545272Y-79131145D01*
X125538112Y-79081145D01*
X125538111Y-79081142D01*
X125536839Y-79072259D01*
X125530724Y-79058809D01*
X125487145Y-78962962D01*
X125487143Y-78962959D01*
X125483428Y-78954788D01*
X125438071Y-78902148D01*
X125405051Y-78863826D01*
X125405049Y-78863824D01*
X125399193Y-78857028D01*
X125375052Y-78841381D01*
X125361710Y-78832733D01*
X125315426Y-78778897D01*
X125305595Y-78708584D01*
X125335339Y-78644118D01*
X125395213Y-78605967D01*
X125430242Y-78601000D01*
X125969223Y-78601000D01*
X126037344Y-78621002D01*
X126083837Y-78674658D01*
X126093941Y-78744932D01*
X126064447Y-78809512D01*
X126036458Y-78833562D01*
X126012614Y-78848606D01*
X126012610Y-78848609D01*
X126005019Y-78853399D01*
X125999076Y-78860128D01*
X125999075Y-78860129D01*
X125980309Y-78881378D01*
X125919596Y-78950122D01*
X125915782Y-78958245D01*
X125915781Y-78958247D01*
X125903136Y-78985181D01*
X125864754Y-79066932D01*
X125856969Y-79116932D01*
X125846282Y-79185567D01*
X125846282Y-79185571D01*
X125844901Y-79194440D01*
X125846065Y-79203342D01*
X125846065Y-79203345D01*
X125860468Y-79313489D01*
X125860469Y-79313493D01*
X125861633Y-79322394D01*
X125865250Y-79330614D01*
X125899556Y-79408580D01*
X125913605Y-79440510D01*
X125919382Y-79447383D01*
X125919383Y-79447384D01*
X125972993Y-79511161D01*
X125996639Y-79539291D01*
X126004116Y-79544268D01*
X126078110Y-79593522D01*
X126104060Y-79610796D01*
X126227233Y-79649278D01*
X126236203Y-79649442D01*
X126236207Y-79649443D01*
X126294942Y-79650519D01*
X126356255Y-79651643D01*
X126444021Y-79627715D01*
X126472092Y-79620062D01*
X126472093Y-79620062D01*
X126480755Y-79617700D01*
X126488405Y-79613003D01*
X126488407Y-79613002D01*
X126583072Y-79554878D01*
X126583075Y-79554875D01*
X126590724Y-79550179D01*
X126596750Y-79543522D01*
X126671300Y-79461161D01*
X126671303Y-79461157D01*
X126677322Y-79454507D01*
X126733588Y-79338375D01*
X126747639Y-79254859D01*
X126754190Y-79215917D01*
X126754997Y-79211120D01*
X126755133Y-79200000D01*
X126745272Y-79131145D01*
X126738112Y-79081145D01*
X126738111Y-79081142D01*
X126736839Y-79072259D01*
X126730724Y-79058809D01*
X126687145Y-78962962D01*
X126687143Y-78962959D01*
X126683428Y-78954788D01*
X126638071Y-78902148D01*
X126605051Y-78863826D01*
X126605049Y-78863824D01*
X126599193Y-78857028D01*
X126575052Y-78841381D01*
X126561710Y-78832733D01*
X126515426Y-78778897D01*
X126505595Y-78708584D01*
X126535339Y-78644118D01*
X126595213Y-78605967D01*
X126630242Y-78601000D01*
X127369223Y-78601000D01*
X127437344Y-78621002D01*
X127483837Y-78674658D01*
X127493941Y-78744932D01*
X127464447Y-78809512D01*
X127436458Y-78833562D01*
X127412614Y-78848606D01*
X127412610Y-78848609D01*
X127405019Y-78853399D01*
X127399076Y-78860128D01*
X127399075Y-78860129D01*
X127380309Y-78881378D01*
X127319596Y-78950122D01*
X127315782Y-78958245D01*
X127315781Y-78958247D01*
X127303136Y-78985181D01*
X127264754Y-79066932D01*
X127256969Y-79116932D01*
X127246282Y-79185567D01*
X127246282Y-79185571D01*
X127244901Y-79194440D01*
X127246065Y-79203342D01*
X127246065Y-79203345D01*
X127260468Y-79313489D01*
X127260469Y-79313493D01*
X127261633Y-79322394D01*
X127265250Y-79330614D01*
X127299556Y-79408580D01*
X127313605Y-79440510D01*
X127319382Y-79447383D01*
X127319383Y-79447384D01*
X127372993Y-79511161D01*
X127396639Y-79539291D01*
X127404116Y-79544268D01*
X127478110Y-79593522D01*
X127504060Y-79610796D01*
X127627233Y-79649278D01*
X127636203Y-79649442D01*
X127636207Y-79649443D01*
X127668734Y-79650039D01*
X127669732Y-79650057D01*
X127726685Y-79667920D01*
X127750912Y-79652559D01*
X127755462Y-79651628D01*
X127756255Y-79651643D01*
X127844021Y-79627715D01*
X127872092Y-79620062D01*
X127872093Y-79620062D01*
X127880755Y-79617700D01*
X127888405Y-79613003D01*
X127888407Y-79613002D01*
X127983072Y-79554878D01*
X127983075Y-79554875D01*
X127990724Y-79550179D01*
X127996750Y-79543522D01*
X128071300Y-79461161D01*
X128071303Y-79461157D01*
X128077322Y-79454507D01*
X128133588Y-79338375D01*
X128147639Y-79254859D01*
X128154190Y-79215917D01*
X128154997Y-79211120D01*
X128155133Y-79200000D01*
X128145272Y-79131145D01*
X128138112Y-79081145D01*
X128138111Y-79081142D01*
X128136839Y-79072259D01*
X128130724Y-79058809D01*
X128087145Y-78962962D01*
X128087143Y-78962959D01*
X128083428Y-78954788D01*
X128038071Y-78902148D01*
X128005051Y-78863826D01*
X128005049Y-78863824D01*
X127999193Y-78857028D01*
X127975052Y-78841381D01*
X127961710Y-78832733D01*
X127915426Y-78778897D01*
X127905595Y-78708584D01*
X127935339Y-78644118D01*
X127995213Y-78605967D01*
X128030242Y-78601000D01*
X128849103Y-78601000D01*
X128917224Y-78621002D01*
X128963717Y-78674658D01*
X128973821Y-78744932D01*
X128944327Y-78809512D01*
X128913028Y-78832754D01*
X128914155Y-78834539D01*
X128886247Y-78852148D01*
X128805019Y-78903399D01*
X128799076Y-78910128D01*
X128799075Y-78910129D01*
X128759634Y-78954788D01*
X128719596Y-79000122D01*
X128715782Y-79008245D01*
X128715781Y-79008247D01*
X128692043Y-79058809D01*
X128664754Y-79116932D01*
X128659635Y-79149811D01*
X128646282Y-79235567D01*
X128646282Y-79235571D01*
X128644901Y-79244440D01*
X128646065Y-79253342D01*
X128646065Y-79253345D01*
X128660468Y-79363489D01*
X128660469Y-79363493D01*
X128661633Y-79372394D01*
X128665250Y-79380614D01*
X128707132Y-79475798D01*
X128713605Y-79490510D01*
X128719382Y-79497383D01*
X128719383Y-79497384D01*
X128758793Y-79544268D01*
X128796639Y-79589291D01*
X128804116Y-79594268D01*
X128892948Y-79653399D01*
X128904060Y-79660796D01*
X128912627Y-79663473D01*
X128912628Y-79663473D01*
X128964331Y-79679626D01*
X129023387Y-79719032D01*
X129051764Y-79784111D01*
X129040451Y-79854201D01*
X128993042Y-79907048D01*
X128961380Y-79921042D01*
X128922788Y-79932071D01*
X128922784Y-79932073D01*
X128914155Y-79934539D01*
X128892768Y-79948033D01*
X128833893Y-79985181D01*
X128805019Y-80003399D01*
X128799076Y-80010128D01*
X128799075Y-80010129D01*
X128766864Y-80046601D01*
X128719596Y-80100122D01*
X128715782Y-80108245D01*
X128715781Y-80108247D01*
X128713320Y-80113489D01*
X128664754Y-80216932D01*
X128656969Y-80266932D01*
X128646282Y-80335567D01*
X128646282Y-80335571D01*
X128644901Y-80344440D01*
X128646065Y-80353342D01*
X128646065Y-80353345D01*
X128660468Y-80463489D01*
X128660469Y-80463493D01*
X128661633Y-80472394D01*
X128713605Y-80590510D01*
X128719383Y-80597384D01*
X128719384Y-80597385D01*
X128724964Y-80604023D01*
X128753487Y-80669038D01*
X128742332Y-80739153D01*
X128695041Y-80792106D01*
X128663140Y-80806249D01*
X128572786Y-80832072D01*
X128572784Y-80832073D01*
X128564155Y-80834539D01*
X128455019Y-80903399D01*
X128449076Y-80910128D01*
X128449075Y-80910129D01*
X128421174Y-80941721D01*
X128369596Y-81000122D01*
X128365782Y-81008245D01*
X128365781Y-81008247D01*
X128323021Y-81099323D01*
X128275964Y-81152485D01*
X128207636Y-81171767D01*
X128172864Y-81166491D01*
X128125876Y-81152439D01*
X128125877Y-81152439D01*
X128117273Y-81149866D01*
X128108298Y-81149811D01*
X128108297Y-81149811D01*
X128053641Y-81149477D01*
X127988231Y-81149078D01*
X127936629Y-81163826D01*
X127872786Y-81182072D01*
X127872784Y-81182073D01*
X127864155Y-81184539D01*
X127856565Y-81189328D01*
X127763600Y-81247985D01*
X127755019Y-81253399D01*
X127669596Y-81350122D01*
X127665782Y-81358245D01*
X127665781Y-81358247D01*
X127651636Y-81388375D01*
X127614754Y-81466932D01*
X127608904Y-81504507D01*
X127596282Y-81585567D01*
X127596282Y-81585571D01*
X127594901Y-81594440D01*
X127596065Y-81603342D01*
X127596065Y-81603345D01*
X127610468Y-81713489D01*
X127610469Y-81713493D01*
X127611633Y-81722394D01*
X127663605Y-81840510D01*
X127669382Y-81847383D01*
X127669383Y-81847384D01*
X127738431Y-81929526D01*
X127746639Y-81939291D01*
X127773285Y-81957028D01*
X127842948Y-82003399D01*
X127854060Y-82010796D01*
X127922858Y-82032290D01*
X127968124Y-82046432D01*
X127977233Y-82049278D01*
X127986203Y-82049442D01*
X127986207Y-82049443D01*
X128044942Y-82050519D01*
X128106255Y-82051643D01*
X128205520Y-82024580D01*
X128222092Y-82020062D01*
X128222093Y-82020062D01*
X128230755Y-82017700D01*
X128261668Y-81998719D01*
X128330187Y-81980122D01*
X128397882Y-82001520D01*
X128443262Y-82056120D01*
X128451918Y-82126587D01*
X128441652Y-82159641D01*
X128431556Y-82181145D01*
X128419971Y-82205821D01*
X128414754Y-82216932D01*
X128409226Y-82252438D01*
X128396282Y-82335567D01*
X128396282Y-82335571D01*
X128394901Y-82344440D01*
X128396065Y-82353342D01*
X128396065Y-82353345D01*
X128410468Y-82463489D01*
X128410469Y-82463493D01*
X128411633Y-82472394D01*
X128463605Y-82590510D01*
X128469382Y-82597383D01*
X128469383Y-82597384D01*
X128538431Y-82679526D01*
X128546639Y-82689291D01*
X128554116Y-82694268D01*
X128640310Y-82751643D01*
X128654060Y-82760796D01*
X128722858Y-82782290D01*
X128768124Y-82796432D01*
X128777233Y-82799278D01*
X128786203Y-82799442D01*
X128786207Y-82799443D01*
X128844942Y-82800519D01*
X128906255Y-82801643D01*
X128977240Y-82782290D01*
X129022092Y-82770062D01*
X129022093Y-82770062D01*
X129030755Y-82767700D01*
X129038405Y-82763003D01*
X129038407Y-82763002D01*
X129133072Y-82704878D01*
X129133075Y-82704875D01*
X129140724Y-82700179D01*
X129146750Y-82693522D01*
X129221300Y-82611161D01*
X129221303Y-82611157D01*
X129227322Y-82604507D01*
X129256424Y-82544440D01*
X131144901Y-82544440D01*
X131146065Y-82553342D01*
X131146065Y-82553345D01*
X131160468Y-82663489D01*
X131160469Y-82663493D01*
X131161633Y-82672394D01*
X131181568Y-82717700D01*
X131201709Y-82763473D01*
X131213605Y-82790510D01*
X131219382Y-82797383D01*
X131219383Y-82797384D01*
X131263499Y-82849866D01*
X131296639Y-82889291D01*
X131304116Y-82894268D01*
X131392948Y-82953399D01*
X131404060Y-82960796D01*
X131527233Y-82999278D01*
X131536203Y-82999442D01*
X131536207Y-82999443D01*
X131594942Y-83000519D01*
X131656255Y-83001643D01*
X131718505Y-82984671D01*
X131772092Y-82970062D01*
X131772093Y-82970062D01*
X131780755Y-82967700D01*
X131788405Y-82963003D01*
X131788407Y-82963002D01*
X131883072Y-82904878D01*
X131883075Y-82904875D01*
X131890724Y-82900179D01*
X131900546Y-82889328D01*
X131971300Y-82811161D01*
X131971303Y-82811157D01*
X131977322Y-82804507D01*
X132033588Y-82688375D01*
X132039224Y-82654878D01*
X132054190Y-82565917D01*
X132054997Y-82561120D01*
X132055133Y-82550000D01*
X132041498Y-82454788D01*
X132038112Y-82431145D01*
X132038111Y-82431142D01*
X132036839Y-82422259D01*
X132008590Y-82360129D01*
X131987145Y-82312962D01*
X131987143Y-82312959D01*
X131983428Y-82304788D01*
X131937551Y-82251545D01*
X131905051Y-82213826D01*
X131905049Y-82213824D01*
X131899193Y-82207028D01*
X131790906Y-82136841D01*
X131790454Y-82136706D01*
X131740226Y-82092789D01*
X131720528Y-82024580D01*
X131740834Y-81956549D01*
X131782858Y-81921124D01*
X131780755Y-81917700D01*
X131883072Y-81854878D01*
X131883075Y-81854875D01*
X131890724Y-81850179D01*
X131896750Y-81843522D01*
X131971300Y-81761161D01*
X131971303Y-81761157D01*
X131977322Y-81754507D01*
X132033588Y-81638375D01*
X132038167Y-81611161D01*
X132054190Y-81515917D01*
X132054997Y-81511120D01*
X132055133Y-81500000D01*
X132043347Y-81417700D01*
X132038112Y-81381145D01*
X132038111Y-81381142D01*
X132036839Y-81372259D01*
X132033125Y-81364090D01*
X131987145Y-81262962D01*
X131987143Y-81262959D01*
X131983428Y-81254788D01*
X131936220Y-81200000D01*
X131905051Y-81163826D01*
X131905049Y-81163824D01*
X131899193Y-81157028D01*
X131790906Y-81086841D01*
X131782309Y-81084270D01*
X131782305Y-81084268D01*
X131761512Y-81078049D01*
X131701979Y-81039367D01*
X131672810Y-80974639D01*
X131683266Y-80904416D01*
X131730028Y-80850995D01*
X131764474Y-80835771D01*
X131830755Y-80817700D01*
X131838405Y-80813003D01*
X131838407Y-80813002D01*
X131933072Y-80754878D01*
X131933075Y-80754875D01*
X131940724Y-80750179D01*
X131946750Y-80743522D01*
X132021300Y-80661161D01*
X132021303Y-80661157D01*
X132027322Y-80654507D01*
X132083588Y-80538375D01*
X132087953Y-80512433D01*
X132104190Y-80415917D01*
X132104997Y-80411120D01*
X132105133Y-80400000D01*
X132096308Y-80338375D01*
X132088112Y-80281145D01*
X132088111Y-80281142D01*
X132086839Y-80272259D01*
X132068145Y-80231144D01*
X132037145Y-80162962D01*
X132037143Y-80162959D01*
X132033428Y-80154788D01*
X131993326Y-80108247D01*
X131955051Y-80063826D01*
X131955049Y-80063824D01*
X131949193Y-80057028D01*
X131840906Y-79986841D01*
X131832311Y-79984271D01*
X131832310Y-79984270D01*
X131725873Y-79952438D01*
X131717273Y-79949866D01*
X131708297Y-79949811D01*
X131706710Y-79949574D01*
X131650740Y-79923636D01*
X131593116Y-79949108D01*
X131588231Y-79949078D01*
X131579599Y-79951545D01*
X131472786Y-79982072D01*
X131472784Y-79982073D01*
X131464155Y-79984539D01*
X131355019Y-80053399D01*
X131349076Y-80060128D01*
X131349075Y-80060129D01*
X131302415Y-80112962D01*
X131269596Y-80150122D01*
X131265782Y-80158245D01*
X131265781Y-80158247D01*
X131246178Y-80200000D01*
X131214754Y-80266932D01*
X131212541Y-80281145D01*
X131196282Y-80385567D01*
X131196282Y-80385571D01*
X131194901Y-80394440D01*
X131196065Y-80403342D01*
X131196065Y-80403345D01*
X131210468Y-80513489D01*
X131210469Y-80513493D01*
X131211633Y-80522394D01*
X131221258Y-80544268D01*
X131251709Y-80613473D01*
X131263605Y-80640510D01*
X131269382Y-80647383D01*
X131269383Y-80647384D01*
X131272963Y-80651643D01*
X131346639Y-80739291D01*
X131354116Y-80744268D01*
X131440310Y-80801643D01*
X131454060Y-80810796D01*
X131462627Y-80813473D01*
X131462628Y-80813473D01*
X131476121Y-80817688D01*
X131490444Y-80822163D01*
X131549500Y-80861569D01*
X131577877Y-80926648D01*
X131566564Y-80996738D01*
X131519155Y-81049585D01*
X131487493Y-81063579D01*
X131422788Y-81082071D01*
X131422784Y-81082073D01*
X131414155Y-81084539D01*
X131305019Y-81153399D01*
X131299076Y-81160128D01*
X131299075Y-81160129D01*
X131263862Y-81200000D01*
X131219596Y-81250122D01*
X131215782Y-81258245D01*
X131215781Y-81258247D01*
X131212180Y-81265917D01*
X131164754Y-81366932D01*
X131157825Y-81411437D01*
X131146282Y-81485567D01*
X131146282Y-81485571D01*
X131144901Y-81494440D01*
X131146065Y-81503342D01*
X131146065Y-81503345D01*
X131160468Y-81613489D01*
X131160469Y-81613493D01*
X131161633Y-81622394D01*
X131165250Y-81630614D01*
X131201716Y-81713489D01*
X131213605Y-81740510D01*
X131219382Y-81747383D01*
X131219383Y-81747384D01*
X131265671Y-81802450D01*
X131296639Y-81839291D01*
X131404060Y-81910796D01*
X131409251Y-81912418D01*
X131460796Y-81958609D01*
X131479661Y-82027053D01*
X131458526Y-82094831D01*
X131413249Y-82133103D01*
X131414155Y-82134539D01*
X131375690Y-82158809D01*
X131305019Y-82203399D01*
X131299076Y-82210128D01*
X131299075Y-82210129D01*
X131264628Y-82249133D01*
X131219596Y-82300122D01*
X131215782Y-82308245D01*
X131215781Y-82308247D01*
X131196832Y-82348608D01*
X131164754Y-82416932D01*
X131158860Y-82454788D01*
X131146282Y-82535567D01*
X131146282Y-82535571D01*
X131144901Y-82544440D01*
X129256424Y-82544440D01*
X129283588Y-82488375D01*
X129287864Y-82462962D01*
X129304190Y-82365917D01*
X129304997Y-82361120D01*
X129305133Y-82350000D01*
X129296088Y-82286841D01*
X129288112Y-82231145D01*
X129288111Y-82231142D01*
X129286839Y-82222259D01*
X129268146Y-82181145D01*
X129237145Y-82112962D01*
X129237143Y-82112959D01*
X129233428Y-82104788D01*
X129191493Y-82056120D01*
X129155051Y-82013826D01*
X129155049Y-82013824D01*
X129149193Y-82007028D01*
X129040906Y-81936841D01*
X129032311Y-81934271D01*
X129032310Y-81934270D01*
X128937315Y-81905860D01*
X128877782Y-81867178D01*
X128848612Y-81802450D01*
X128859068Y-81732228D01*
X128905829Y-81678805D01*
X128922580Y-81669929D01*
X128930755Y-81667700D01*
X128938401Y-81663005D01*
X128938404Y-81663004D01*
X129033072Y-81604878D01*
X129033075Y-81604875D01*
X129040724Y-81600179D01*
X129049476Y-81590510D01*
X129121300Y-81511161D01*
X129121303Y-81511157D01*
X129127322Y-81504507D01*
X129183588Y-81388375D01*
X129186026Y-81373887D01*
X129204190Y-81265917D01*
X129204997Y-81261120D01*
X129205133Y-81250000D01*
X129192792Y-81163826D01*
X129188112Y-81131145D01*
X129188111Y-81131142D01*
X129186839Y-81122259D01*
X129180468Y-81108247D01*
X129137145Y-81012962D01*
X129137143Y-81012959D01*
X129133428Y-81004788D01*
X129127569Y-80997989D01*
X129127567Y-80997985D01*
X129126378Y-80996606D01*
X129125633Y-80994961D01*
X129122732Y-80990426D01*
X129123387Y-80990007D01*
X129097067Y-80931942D01*
X129107369Y-80861697D01*
X129154013Y-80808172D01*
X129188691Y-80792800D01*
X129221203Y-80783936D01*
X129272093Y-80770062D01*
X129272096Y-80770061D01*
X129280755Y-80767700D01*
X129288405Y-80763003D01*
X129288407Y-80763002D01*
X129383072Y-80704878D01*
X129383075Y-80704875D01*
X129390724Y-80700179D01*
X129396750Y-80693522D01*
X129471300Y-80611161D01*
X129471303Y-80611157D01*
X129477322Y-80604507D01*
X129533588Y-80488375D01*
X129546888Y-80409318D01*
X129547657Y-80404750D01*
X129559068Y-80381264D01*
X129784652Y-80381264D01*
X129796846Y-80409316D01*
X129811633Y-80522394D01*
X129821258Y-80544268D01*
X129851709Y-80613473D01*
X129863605Y-80640510D01*
X129869382Y-80647383D01*
X129869383Y-80647384D01*
X129872963Y-80651643D01*
X129946639Y-80739291D01*
X129954116Y-80744268D01*
X130040310Y-80801643D01*
X130054060Y-80810796D01*
X130177233Y-80849278D01*
X130186203Y-80849442D01*
X130186207Y-80849443D01*
X130244942Y-80850519D01*
X130306255Y-80851643D01*
X130378040Y-80832072D01*
X130422092Y-80820062D01*
X130422093Y-80820062D01*
X130430755Y-80817700D01*
X130438405Y-80813003D01*
X130438407Y-80813002D01*
X130533072Y-80754878D01*
X130533075Y-80754875D01*
X130540724Y-80750179D01*
X130546750Y-80743522D01*
X130621300Y-80661161D01*
X130621303Y-80661157D01*
X130627322Y-80654507D01*
X130683588Y-80538375D01*
X130687953Y-80512433D01*
X130704190Y-80415917D01*
X130704997Y-80411120D01*
X130705133Y-80400000D01*
X130696308Y-80338375D01*
X130688112Y-80281145D01*
X130688111Y-80281142D01*
X130686839Y-80272259D01*
X130668145Y-80231144D01*
X130637145Y-80162962D01*
X130637143Y-80162959D01*
X130633428Y-80154788D01*
X130593326Y-80108247D01*
X130555051Y-80063826D01*
X130555049Y-80063824D01*
X130549193Y-80057028D01*
X130440906Y-79986841D01*
X130432311Y-79984271D01*
X130432310Y-79984270D01*
X130361062Y-79962962D01*
X130317273Y-79949866D01*
X130317410Y-79949409D01*
X130272834Y-79928754D01*
X130228073Y-79948240D01*
X130211598Y-79949221D01*
X130188231Y-79949078D01*
X130139652Y-79962962D01*
X130072786Y-79982072D01*
X130072784Y-79982073D01*
X130064155Y-79984539D01*
X129955019Y-80053399D01*
X129949076Y-80060128D01*
X129949075Y-80060129D01*
X129902415Y-80112962D01*
X129869596Y-80150122D01*
X129865782Y-80158245D01*
X129865781Y-80158247D01*
X129846178Y-80200000D01*
X129814754Y-80266932D01*
X129813374Y-80275796D01*
X129813373Y-80275799D01*
X129803030Y-80342232D01*
X129784652Y-80381264D01*
X129559068Y-80381264D01*
X129565799Y-80367410D01*
X129553803Y-80340711D01*
X129545272Y-80281145D01*
X129536839Y-80222259D01*
X129533125Y-80214090D01*
X129487145Y-80112962D01*
X129487143Y-80112959D01*
X129483428Y-80104788D01*
X129437636Y-80051643D01*
X129405051Y-80013826D01*
X129405049Y-80013824D01*
X129399193Y-80007028D01*
X129290906Y-79936841D01*
X129237668Y-79920919D01*
X129178135Y-79882236D01*
X129148966Y-79817508D01*
X129159422Y-79747286D01*
X129206183Y-79693864D01*
X129240630Y-79678639D01*
X129280755Y-79667700D01*
X129288405Y-79663003D01*
X129288407Y-79663002D01*
X129383072Y-79604878D01*
X129383075Y-79604875D01*
X129390724Y-79600179D01*
X129397865Y-79592290D01*
X129471300Y-79511161D01*
X129471303Y-79511157D01*
X129477322Y-79504507D01*
X129533588Y-79388375D01*
X129537864Y-79362962D01*
X129554190Y-79265917D01*
X129554997Y-79261120D01*
X129555133Y-79250000D01*
X129546088Y-79186841D01*
X129538112Y-79131145D01*
X129538111Y-79131142D01*
X129536839Y-79122259D01*
X129518146Y-79081145D01*
X129487145Y-79012962D01*
X129487143Y-79012959D01*
X129483428Y-79004788D01*
X129443326Y-78958247D01*
X129405051Y-78913826D01*
X129405049Y-78913824D01*
X129399193Y-78907028D01*
X129290906Y-78836841D01*
X129291484Y-78835949D01*
X129244249Y-78794651D01*
X129224548Y-78726443D01*
X129244851Y-78658411D01*
X129298712Y-78612156D01*
X129350547Y-78601000D01*
X130049103Y-78601000D01*
X130117224Y-78621002D01*
X130163717Y-78674658D01*
X130173821Y-78744932D01*
X130144327Y-78809512D01*
X130113028Y-78832754D01*
X130114155Y-78834539D01*
X130086247Y-78852148D01*
X130005019Y-78903399D01*
X129999076Y-78910128D01*
X129999075Y-78910129D01*
X129959634Y-78954788D01*
X129919596Y-79000122D01*
X129915782Y-79008245D01*
X129915781Y-79008247D01*
X129892043Y-79058809D01*
X129864754Y-79116932D01*
X129859635Y-79149811D01*
X129846282Y-79235567D01*
X129846282Y-79235571D01*
X129844901Y-79244440D01*
X129846065Y-79253342D01*
X129846065Y-79253345D01*
X129860468Y-79363489D01*
X129860469Y-79363493D01*
X129861633Y-79372394D01*
X129865250Y-79380614D01*
X129907132Y-79475798D01*
X129913605Y-79490510D01*
X129919382Y-79497383D01*
X129919383Y-79497384D01*
X129958793Y-79544268D01*
X129996639Y-79589291D01*
X130004116Y-79594268D01*
X130092948Y-79653399D01*
X130104060Y-79660796D01*
X130133719Y-79670062D01*
X130218663Y-79696601D01*
X130218666Y-79696601D01*
X130227233Y-79699278D01*
X130233666Y-79699396D01*
X130281084Y-79722079D01*
X130324409Y-79702582D01*
X130343956Y-79701418D01*
X130347276Y-79701479D01*
X130347280Y-79701478D01*
X130356255Y-79701643D01*
X130431055Y-79681250D01*
X130472092Y-79670062D01*
X130472093Y-79670062D01*
X130480755Y-79667700D01*
X130488405Y-79663003D01*
X130488407Y-79663002D01*
X130583072Y-79604878D01*
X130583075Y-79604875D01*
X130590724Y-79600179D01*
X130597865Y-79592290D01*
X130671300Y-79511161D01*
X130671303Y-79511157D01*
X130677322Y-79504507D01*
X130733588Y-79388375D01*
X130737864Y-79362962D01*
X130754190Y-79265917D01*
X130754997Y-79261120D01*
X130755133Y-79250000D01*
X130746088Y-79186841D01*
X130738112Y-79131145D01*
X130738111Y-79131142D01*
X130736839Y-79122259D01*
X130718146Y-79081145D01*
X130687145Y-79012962D01*
X130687143Y-79012959D01*
X130683428Y-79004788D01*
X130643326Y-78958247D01*
X130605051Y-78913826D01*
X130605049Y-78913824D01*
X130599193Y-78907028D01*
X130490906Y-78836841D01*
X130491484Y-78835949D01*
X130444249Y-78794651D01*
X130424548Y-78726443D01*
X130444851Y-78658411D01*
X130498712Y-78612156D01*
X130550547Y-78601000D01*
X131399103Y-78601000D01*
X131467224Y-78621002D01*
X131513717Y-78674658D01*
X131523821Y-78744932D01*
X131494327Y-78809512D01*
X131463028Y-78832754D01*
X131464155Y-78834539D01*
X131436247Y-78852148D01*
X131355019Y-78903399D01*
X131349076Y-78910128D01*
X131349075Y-78910129D01*
X131309634Y-78954788D01*
X131269596Y-79000122D01*
X131265782Y-79008245D01*
X131265781Y-79008247D01*
X131242043Y-79058809D01*
X131214754Y-79116932D01*
X131209635Y-79149811D01*
X131196282Y-79235567D01*
X131196282Y-79235571D01*
X131194901Y-79244440D01*
X131196065Y-79253342D01*
X131196065Y-79253345D01*
X131210468Y-79363489D01*
X131210469Y-79363493D01*
X131211633Y-79372394D01*
X131215250Y-79380614D01*
X131257132Y-79475798D01*
X131263605Y-79490510D01*
X131269382Y-79497383D01*
X131269383Y-79497384D01*
X131308793Y-79544268D01*
X131346639Y-79589291D01*
X131354116Y-79594268D01*
X131442948Y-79653399D01*
X131454060Y-79660796D01*
X131577233Y-79699278D01*
X131586209Y-79699443D01*
X131594238Y-79700743D01*
X131648829Y-79726856D01*
X131705886Y-79701636D01*
X131706255Y-79701643D01*
X131714911Y-79699283D01*
X131714912Y-79699283D01*
X131822092Y-79670062D01*
X131822093Y-79670062D01*
X131830755Y-79667700D01*
X131838405Y-79663003D01*
X131838407Y-79663002D01*
X131933072Y-79604878D01*
X131933075Y-79604875D01*
X131940724Y-79600179D01*
X131947865Y-79592290D01*
X132021300Y-79511161D01*
X132021303Y-79511157D01*
X132027322Y-79504507D01*
X132083588Y-79388375D01*
X132087864Y-79362962D01*
X132104190Y-79265917D01*
X132104997Y-79261120D01*
X132105133Y-79250000D01*
X132096088Y-79186841D01*
X132088112Y-79131145D01*
X132088111Y-79131142D01*
X132086839Y-79122259D01*
X132068146Y-79081145D01*
X132037145Y-79012962D01*
X132037143Y-79012959D01*
X132033428Y-79004788D01*
X131993326Y-78958247D01*
X131955051Y-78913826D01*
X131955049Y-78913824D01*
X131949193Y-78907028D01*
X131840906Y-78836841D01*
X131841484Y-78835949D01*
X131794249Y-78794651D01*
X131774548Y-78726443D01*
X131794851Y-78658411D01*
X131848712Y-78612156D01*
X131900547Y-78601000D01*
X132473000Y-78601000D01*
X132541121Y-78621002D01*
X132587614Y-78674658D01*
X132599000Y-78727000D01*
X132599000Y-81399802D01*
X132598918Y-81400000D01*
X132599000Y-81400198D01*
X132599235Y-81400765D01*
X132600000Y-81401082D01*
X132600198Y-81401000D01*
X133074000Y-81401000D01*
X133142121Y-81421002D01*
X133188614Y-81474658D01*
X133200000Y-81527000D01*
X133200000Y-81773500D01*
X133179998Y-81841621D01*
X133126342Y-81888114D01*
X133074000Y-81899500D01*
X132730252Y-81899500D01*
X132724184Y-81900707D01*
X132683939Y-81908712D01*
X132683938Y-81908712D01*
X132671769Y-81911133D01*
X132605448Y-81955448D01*
X132561133Y-82021769D01*
X132558712Y-82033938D01*
X132558712Y-82033939D01*
X132555191Y-82051643D01*
X132549500Y-82080252D01*
X132549500Y-83019748D01*
X132561133Y-83078231D01*
X132605448Y-83144552D01*
X132671769Y-83188867D01*
X132683938Y-83191288D01*
X132683939Y-83191288D01*
X132724184Y-83199293D01*
X132730252Y-83200500D01*
X133074000Y-83200500D01*
X133142121Y-83220502D01*
X133188614Y-83274158D01*
X133200000Y-83326500D01*
X133200000Y-96873000D01*
X133179998Y-96941121D01*
X133126342Y-96987614D01*
X133074000Y-96999000D01*
X132600198Y-96999000D01*
X132600000Y-96998918D01*
X132599802Y-96999000D01*
X132599235Y-96999235D01*
X132598918Y-97000000D01*
X132599000Y-97000198D01*
X132599000Y-97765715D01*
X132578998Y-97833836D01*
X132525342Y-97880329D01*
X132455068Y-97890433D01*
X132390488Y-97860939D01*
X132377546Y-97847962D01*
X132377257Y-97847626D01*
X132308790Y-97768166D01*
X132305050Y-97763825D01*
X132305049Y-97763824D01*
X132299193Y-97757028D01*
X132190906Y-97686841D01*
X132182311Y-97684271D01*
X132182310Y-97684270D01*
X132075874Y-97652438D01*
X132075872Y-97652438D01*
X132067273Y-97649866D01*
X132058298Y-97649811D01*
X132058297Y-97649811D01*
X132003641Y-97649477D01*
X131938231Y-97649078D01*
X131889988Y-97662866D01*
X131822786Y-97682072D01*
X131822784Y-97682073D01*
X131814155Y-97684539D01*
X131806565Y-97689328D01*
X131738475Y-97732290D01*
X131705019Y-97753399D01*
X131699076Y-97760128D01*
X131699075Y-97760129D01*
X131668773Y-97794440D01*
X131619596Y-97850122D01*
X131615782Y-97858245D01*
X131615781Y-97858247D01*
X131605414Y-97880329D01*
X131564754Y-97966932D01*
X131557589Y-98012953D01*
X131546282Y-98085567D01*
X131546282Y-98085571D01*
X131544901Y-98094440D01*
X131546268Y-98104890D01*
X131546028Y-98106420D01*
X131545956Y-98112315D01*
X131545105Y-98112305D01*
X131535266Y-98175029D01*
X131488090Y-98228086D01*
X131419719Y-98247215D01*
X131352799Y-98226957D01*
X131298439Y-98191723D01*
X131298435Y-98191721D01*
X131290906Y-98186841D01*
X131282311Y-98184271D01*
X131282310Y-98184270D01*
X131175874Y-98152438D01*
X131175872Y-98152438D01*
X131167273Y-98149866D01*
X131158298Y-98149811D01*
X131158297Y-98149811D01*
X131103641Y-98149477D01*
X131038231Y-98149078D01*
X130989652Y-98162962D01*
X130922786Y-98182072D01*
X130922784Y-98182073D01*
X130914155Y-98184539D01*
X130805019Y-98253399D01*
X130799076Y-98260128D01*
X130799075Y-98260129D01*
X130779067Y-98282784D01*
X130719596Y-98350122D01*
X130715782Y-98358245D01*
X130715781Y-98358247D01*
X130696178Y-98400000D01*
X130664754Y-98466932D01*
X130657581Y-98513002D01*
X130646282Y-98585567D01*
X130646282Y-98585571D01*
X130644901Y-98594440D01*
X130646065Y-98603342D01*
X130646065Y-98603345D01*
X130660468Y-98713489D01*
X130660469Y-98713493D01*
X130661633Y-98722394D01*
X130665249Y-98730613D01*
X130667663Y-98739257D01*
X130664668Y-98740093D01*
X130671810Y-98795185D01*
X130641423Y-98859350D01*
X130581170Y-98896901D01*
X130510180Y-98895916D01*
X130497267Y-98890964D01*
X130490906Y-98886841D01*
X130482311Y-98884271D01*
X130482310Y-98884270D01*
X130375874Y-98852438D01*
X130375872Y-98852438D01*
X130367273Y-98849866D01*
X130358298Y-98849811D01*
X130358297Y-98849811D01*
X130303641Y-98849477D01*
X130238231Y-98849078D01*
X130186632Y-98863825D01*
X130122786Y-98882072D01*
X130122784Y-98882073D01*
X130114155Y-98884539D01*
X130106565Y-98889328D01*
X130050655Y-98924605D01*
X130005019Y-98953399D01*
X129999076Y-98960128D01*
X129999075Y-98960129D01*
X129964025Y-98999816D01*
X129919596Y-99050122D01*
X129915782Y-99058245D01*
X129915781Y-99058247D01*
X129901381Y-99088919D01*
X129864754Y-99166932D01*
X129857874Y-99211120D01*
X129846282Y-99285567D01*
X129846282Y-99285571D01*
X129844901Y-99294440D01*
X129846065Y-99303342D01*
X129846065Y-99303345D01*
X129860468Y-99413489D01*
X129860469Y-99413493D01*
X129861633Y-99422394D01*
X129913605Y-99540510D01*
X129956825Y-99591927D01*
X129985345Y-99656940D01*
X129974189Y-99727055D01*
X129926897Y-99780007D01*
X129860373Y-99799000D01*
X128265516Y-99799000D01*
X128197395Y-99778998D01*
X128150902Y-99725342D01*
X128140798Y-99655068D01*
X128170292Y-99590488D01*
X128176421Y-99583905D01*
X128841215Y-98919111D01*
X128849319Y-98911684D01*
X128855805Y-98906241D01*
X128878194Y-98887455D01*
X128889559Y-98867770D01*
X128897039Y-98854815D01*
X128902945Y-98845544D01*
X128918230Y-98823715D01*
X128924554Y-98814684D01*
X128927408Y-98804034D01*
X128928885Y-98800866D01*
X128930077Y-98797590D01*
X128935588Y-98788045D01*
X128942130Y-98750942D01*
X128944509Y-98740210D01*
X128954264Y-98703807D01*
X128951814Y-98675798D01*
X128950980Y-98666272D01*
X128950500Y-98655290D01*
X128950500Y-98165434D01*
X128970502Y-98097313D01*
X129024158Y-98050820D01*
X129094432Y-98040716D01*
X129114067Y-98045165D01*
X129127233Y-98049278D01*
X129136203Y-98049442D01*
X129136207Y-98049443D01*
X129194942Y-98050519D01*
X129256255Y-98051643D01*
X129355964Y-98024459D01*
X129372092Y-98020062D01*
X129372093Y-98020062D01*
X129380755Y-98017700D01*
X129388405Y-98013003D01*
X129388407Y-98013002D01*
X129483072Y-97954878D01*
X129483075Y-97954875D01*
X129490724Y-97950179D01*
X129551379Y-97883168D01*
X129611920Y-97846089D01*
X129682900Y-97847626D01*
X129741781Y-97887294D01*
X129760434Y-97922922D01*
X129761633Y-97922394D01*
X129800531Y-98010796D01*
X129813605Y-98040510D01*
X129819382Y-98047383D01*
X129819383Y-98047384D01*
X129867722Y-98104890D01*
X129896639Y-98139291D01*
X130004060Y-98210796D01*
X130127233Y-98249278D01*
X130136203Y-98249442D01*
X130136207Y-98249443D01*
X130194942Y-98250519D01*
X130256255Y-98251643D01*
X130363538Y-98222394D01*
X130372092Y-98220062D01*
X130372093Y-98220062D01*
X130380755Y-98217700D01*
X130388405Y-98213003D01*
X130388407Y-98213002D01*
X130483072Y-98154878D01*
X130483075Y-98154875D01*
X130490724Y-98150179D01*
X130499156Y-98140864D01*
X130571300Y-98061161D01*
X130571303Y-98061157D01*
X130577322Y-98054507D01*
X130633588Y-97938375D01*
X130635078Y-97929519D01*
X130637711Y-97921268D01*
X130677477Y-97862453D01*
X130742727Y-97834473D01*
X130795321Y-97839308D01*
X130818191Y-97846453D01*
X130827233Y-97849278D01*
X130836203Y-97849442D01*
X130836207Y-97849443D01*
X130894942Y-97850519D01*
X130956255Y-97851643D01*
X131063538Y-97822394D01*
X131072092Y-97820062D01*
X131072093Y-97820062D01*
X131080755Y-97817700D01*
X131088405Y-97813003D01*
X131088407Y-97813002D01*
X131183072Y-97754878D01*
X131183075Y-97754875D01*
X131190724Y-97750179D01*
X131199476Y-97740510D01*
X131271300Y-97661161D01*
X131271303Y-97661157D01*
X131277322Y-97654507D01*
X131333588Y-97538375D01*
X131337367Y-97515917D01*
X131354190Y-97415917D01*
X131354997Y-97411120D01*
X131355133Y-97400000D01*
X131345599Y-97333429D01*
X131338112Y-97281145D01*
X131338111Y-97281142D01*
X131336839Y-97272259D01*
X131329914Y-97257028D01*
X131287145Y-97162962D01*
X131287143Y-97162959D01*
X131283428Y-97154788D01*
X131257625Y-97124842D01*
X131205051Y-97063826D01*
X131205049Y-97063824D01*
X131199193Y-97057028D01*
X131090906Y-96986841D01*
X131082311Y-96984271D01*
X131082310Y-96984270D01*
X130975874Y-96952438D01*
X130975872Y-96952438D01*
X130967273Y-96949866D01*
X130958298Y-96949811D01*
X130958297Y-96949811D01*
X130903641Y-96949477D01*
X130838231Y-96949078D01*
X130826475Y-96952438D01*
X130722786Y-96982072D01*
X130722784Y-96982073D01*
X130714155Y-96984539D01*
X130706565Y-96989328D01*
X130654278Y-97022319D01*
X130605019Y-97053399D01*
X130599076Y-97060128D01*
X130599075Y-97060129D01*
X130571174Y-97091721D01*
X130519596Y-97150122D01*
X130515782Y-97158245D01*
X130515781Y-97158247D01*
X130468568Y-97258808D01*
X130464754Y-97266932D01*
X130463373Y-97275798D01*
X130462812Y-97277635D01*
X130423767Y-97336931D01*
X130358862Y-97365704D01*
X130306216Y-97361512D01*
X130275876Y-97352439D01*
X130275877Y-97352439D01*
X130267273Y-97349866D01*
X130258298Y-97349811D01*
X130258297Y-97349811D01*
X130203641Y-97349477D01*
X130138231Y-97349078D01*
X130104183Y-97358809D01*
X130022786Y-97382072D01*
X130022784Y-97382073D01*
X130014155Y-97384539D01*
X130006565Y-97389328D01*
X129913600Y-97447985D01*
X129905019Y-97453399D01*
X129876609Y-97485567D01*
X129849656Y-97516085D01*
X129789570Y-97553903D01*
X129718576Y-97553232D01*
X129659215Y-97514286D01*
X129636942Y-97472978D01*
X129636839Y-97472259D01*
X129601457Y-97394440D01*
X129587145Y-97362962D01*
X129587143Y-97362959D01*
X129583428Y-97354788D01*
X129531662Y-97294710D01*
X129505051Y-97263826D01*
X129505049Y-97263824D01*
X129499193Y-97257028D01*
X129390906Y-97186841D01*
X129392760Y-97183980D01*
X129351724Y-97148074D01*
X129332051Y-97079857D01*
X129352382Y-97011834D01*
X129368955Y-96991371D01*
X129416215Y-96944111D01*
X129424319Y-96936684D01*
X129444749Y-96919541D01*
X129453194Y-96912455D01*
X129458707Y-96902906D01*
X129472039Y-96879815D01*
X129477945Y-96870544D01*
X129493230Y-96848715D01*
X129499554Y-96839684D01*
X129502408Y-96829034D01*
X129503885Y-96825866D01*
X129505077Y-96822590D01*
X129510588Y-96813045D01*
X129517130Y-96775942D01*
X129519509Y-96765210D01*
X129529264Y-96728807D01*
X129525979Y-96691257D01*
X129525500Y-96680276D01*
X129525500Y-93879150D01*
X129531025Y-93843664D01*
X129533588Y-93838375D01*
X129539546Y-93802965D01*
X129554190Y-93715917D01*
X129554997Y-93711120D01*
X129555133Y-93700000D01*
X129536839Y-93572259D01*
X129526086Y-93548608D01*
X129487145Y-93462962D01*
X129487143Y-93462959D01*
X129483428Y-93454788D01*
X129443747Y-93408736D01*
X129405051Y-93363826D01*
X129405049Y-93363824D01*
X129399193Y-93357028D01*
X129290906Y-93286841D01*
X129282311Y-93284271D01*
X129282310Y-93284270D01*
X129175874Y-93252438D01*
X129175872Y-93252438D01*
X129167273Y-93249866D01*
X129158298Y-93249811D01*
X129158297Y-93249811D01*
X129103641Y-93249477D01*
X129038231Y-93249078D01*
X128976193Y-93266809D01*
X128922786Y-93282072D01*
X128922784Y-93282073D01*
X128914155Y-93284539D01*
X128906565Y-93289328D01*
X128841033Y-93330676D01*
X128805019Y-93353399D01*
X128719596Y-93450122D01*
X128715782Y-93458245D01*
X128715781Y-93458247D01*
X128701189Y-93489328D01*
X128664754Y-93566932D01*
X128656564Y-93619533D01*
X128646282Y-93685567D01*
X128646282Y-93685571D01*
X128644901Y-93694440D01*
X128646065Y-93703342D01*
X128646065Y-93703345D01*
X128660468Y-93813489D01*
X128660469Y-93813493D01*
X128661633Y-93822394D01*
X128713605Y-93940510D01*
X128719382Y-93947383D01*
X128719383Y-93947384D01*
X128735815Y-93966932D01*
X128796639Y-94039291D01*
X128804110Y-94044264D01*
X128818320Y-94053723D01*
X128863942Y-94108121D01*
X128874500Y-94158610D01*
X128874500Y-96512984D01*
X128854498Y-96581105D01*
X128837595Y-96602079D01*
X128408785Y-97030889D01*
X128400681Y-97038316D01*
X128371806Y-97062545D01*
X128366293Y-97072094D01*
X128352961Y-97095185D01*
X128347055Y-97104456D01*
X128325446Y-97135316D01*
X128322592Y-97145966D01*
X128321115Y-97149134D01*
X128319923Y-97152410D01*
X128314412Y-97161955D01*
X128310529Y-97183980D01*
X128307870Y-97199058D01*
X128305492Y-97209785D01*
X128295736Y-97246193D01*
X128296697Y-97257178D01*
X128296697Y-97257180D01*
X128299020Y-97283728D01*
X128299500Y-97294710D01*
X128299500Y-98487984D01*
X128279498Y-98556105D01*
X128262595Y-98577079D01*
X127702579Y-99137095D01*
X127640267Y-99171121D01*
X127613484Y-99174000D01*
X122220485Y-99174000D01*
X122152364Y-99153998D01*
X122105871Y-99100342D01*
X122095767Y-99030068D01*
X122107093Y-98993062D01*
X122129674Y-98946454D01*
X122129675Y-98946452D01*
X122133588Y-98938375D01*
X122138079Y-98911684D01*
X122154190Y-98815917D01*
X122154997Y-98811120D01*
X122155133Y-98800000D01*
X122145773Y-98734642D01*
X122138112Y-98681145D01*
X122138111Y-98681142D01*
X122136839Y-98672259D01*
X122099588Y-98590329D01*
X122087145Y-98562962D01*
X122087143Y-98562959D01*
X122083428Y-98554788D01*
X122045503Y-98510774D01*
X122005051Y-98463826D01*
X122005049Y-98463824D01*
X121999193Y-98457028D01*
X121890906Y-98386841D01*
X121882311Y-98384271D01*
X121882310Y-98384270D01*
X121775874Y-98352438D01*
X121775872Y-98352438D01*
X121767273Y-98349866D01*
X121758298Y-98349811D01*
X121758297Y-98349811D01*
X121703641Y-98349477D01*
X121638231Y-98349078D01*
X121589652Y-98362962D01*
X121522786Y-98382072D01*
X121522784Y-98382073D01*
X121514155Y-98384539D01*
X121405019Y-98453399D01*
X121399076Y-98460128D01*
X121399075Y-98460129D01*
X121358720Y-98505822D01*
X121319596Y-98550122D01*
X121315782Y-98558245D01*
X121315781Y-98558247D01*
X121297453Y-98597286D01*
X121264754Y-98666932D01*
X121259013Y-98703807D01*
X121246282Y-98785567D01*
X121246282Y-98785571D01*
X121244901Y-98794440D01*
X121246065Y-98803342D01*
X121246065Y-98803345D01*
X121260468Y-98913489D01*
X121260469Y-98913493D01*
X121261633Y-98922394D01*
X121275887Y-98954788D01*
X121294572Y-98997254D01*
X121303699Y-99067662D01*
X121273313Y-99131827D01*
X121213059Y-99169377D01*
X121179243Y-99174000D01*
X119242660Y-99174000D01*
X119174539Y-99153998D01*
X119128046Y-99100342D01*
X119117942Y-99030068D01*
X119147436Y-98965488D01*
X119159450Y-98953724D01*
X119165224Y-98950179D01*
X119213449Y-98896901D01*
X119245800Y-98861161D01*
X119245803Y-98861157D01*
X119251822Y-98854507D01*
X119308088Y-98738375D01*
X119313838Y-98704201D01*
X119328690Y-98615917D01*
X119329497Y-98611120D01*
X119329633Y-98600000D01*
X119317847Y-98517700D01*
X119312612Y-98481145D01*
X119312611Y-98481142D01*
X119311339Y-98472259D01*
X119304414Y-98457028D01*
X119261645Y-98362962D01*
X119261643Y-98362959D01*
X119257928Y-98354788D01*
X119195886Y-98282784D01*
X119179551Y-98263826D01*
X119179549Y-98263824D01*
X119173693Y-98257028D01*
X119065406Y-98186841D01*
X119056811Y-98184271D01*
X119056810Y-98184270D01*
X118950374Y-98152438D01*
X118950372Y-98152438D01*
X118941773Y-98149866D01*
X118932798Y-98149811D01*
X118932797Y-98149811D01*
X118878141Y-98149477D01*
X118812731Y-98149078D01*
X118764152Y-98162962D01*
X118697286Y-98182072D01*
X118697284Y-98182073D01*
X118688655Y-98184539D01*
X118579519Y-98253399D01*
X118573576Y-98260128D01*
X118573575Y-98260129D01*
X118553567Y-98282784D01*
X118494096Y-98350122D01*
X118491104Y-98356495D01*
X118437729Y-98401820D01*
X118367357Y-98411221D01*
X118303074Y-98381084D01*
X118297439Y-98375785D01*
X117940319Y-98018666D01*
X117906294Y-97956353D01*
X117911358Y-97885538D01*
X117916022Y-97874632D01*
X117927869Y-97850179D01*
X117933588Y-97838375D01*
X117937067Y-97817700D01*
X117954190Y-97715917D01*
X117954997Y-97711120D01*
X117955133Y-97700000D01*
X117942744Y-97613489D01*
X117938112Y-97581145D01*
X117938111Y-97581142D01*
X117936839Y-97572259D01*
X117926774Y-97550122D01*
X117901457Y-97494440D01*
X124844901Y-97494440D01*
X124846065Y-97503342D01*
X124846065Y-97503345D01*
X124860468Y-97613489D01*
X124860469Y-97613493D01*
X124861633Y-97622394D01*
X124865250Y-97630614D01*
X124891085Y-97689328D01*
X124913605Y-97740510D01*
X124919382Y-97747383D01*
X124919383Y-97747384D01*
X124988431Y-97829526D01*
X124996639Y-97839291D01*
X125104060Y-97910796D01*
X125227233Y-97949278D01*
X125236203Y-97949442D01*
X125236207Y-97949443D01*
X125294942Y-97950519D01*
X125356255Y-97951643D01*
X125427233Y-97932292D01*
X125472092Y-97920062D01*
X125472093Y-97920062D01*
X125480755Y-97917700D01*
X125488405Y-97913003D01*
X125488407Y-97913002D01*
X125583072Y-97854878D01*
X125583075Y-97854875D01*
X125590724Y-97850179D01*
X125596750Y-97843522D01*
X125671300Y-97761161D01*
X125671303Y-97761157D01*
X125677322Y-97754507D01*
X125733588Y-97638375D01*
X125738174Y-97611120D01*
X125754190Y-97515917D01*
X125754997Y-97511120D01*
X125755133Y-97500000D01*
X125744303Y-97424375D01*
X125738112Y-97381145D01*
X125738111Y-97381142D01*
X125736839Y-97372259D01*
X125731953Y-97361512D01*
X125687145Y-97262962D01*
X125687143Y-97262959D01*
X125683428Y-97254788D01*
X125657625Y-97224842D01*
X125605051Y-97163826D01*
X125605049Y-97163824D01*
X125599193Y-97157028D01*
X125490906Y-97086841D01*
X125482311Y-97084271D01*
X125482310Y-97084270D01*
X125375874Y-97052438D01*
X125375872Y-97052438D01*
X125367273Y-97049866D01*
X125358298Y-97049811D01*
X125358297Y-97049811D01*
X125303641Y-97049477D01*
X125238231Y-97049078D01*
X125191111Y-97062545D01*
X125122786Y-97082072D01*
X125122784Y-97082073D01*
X125114155Y-97084539D01*
X125085135Y-97102849D01*
X125013459Y-97148074D01*
X125005019Y-97153399D01*
X124999076Y-97160128D01*
X124999075Y-97160129D01*
X124978011Y-97183980D01*
X124919596Y-97250122D01*
X124915782Y-97258245D01*
X124915781Y-97258247D01*
X124901242Y-97289214D01*
X124864754Y-97366932D01*
X124858849Y-97404859D01*
X124846282Y-97485567D01*
X124846282Y-97485571D01*
X124844901Y-97494440D01*
X117901457Y-97494440D01*
X117887145Y-97462962D01*
X117887143Y-97462959D01*
X117883428Y-97454788D01*
X117849935Y-97415917D01*
X117805051Y-97363826D01*
X117805049Y-97363824D01*
X117799193Y-97357028D01*
X117690906Y-97286841D01*
X117682311Y-97284271D01*
X117682310Y-97284270D01*
X117575874Y-97252438D01*
X117575872Y-97252438D01*
X117567273Y-97249866D01*
X117558298Y-97249811D01*
X117558297Y-97249811D01*
X117503641Y-97249477D01*
X117438231Y-97249078D01*
X117389652Y-97262962D01*
X117322786Y-97282072D01*
X117322784Y-97282073D01*
X117314155Y-97284539D01*
X117306565Y-97289328D01*
X117213600Y-97347985D01*
X117205019Y-97353399D01*
X117185237Y-97375798D01*
X117164767Y-97398975D01*
X117104680Y-97436793D01*
X117033687Y-97436122D01*
X116974326Y-97397176D01*
X116945600Y-97333433D01*
X116936839Y-97272259D01*
X116929914Y-97257028D01*
X116887145Y-97162962D01*
X116887143Y-97162959D01*
X116883428Y-97154788D01*
X116857625Y-97124842D01*
X116805051Y-97063826D01*
X116805049Y-97063824D01*
X116799193Y-97057028D01*
X116690906Y-96986841D01*
X116682311Y-96984271D01*
X116682310Y-96984270D01*
X116575874Y-96952438D01*
X116575872Y-96952438D01*
X116567273Y-96949866D01*
X116558298Y-96949811D01*
X116558297Y-96949811D01*
X116503641Y-96949477D01*
X116438231Y-96949078D01*
X116426475Y-96952438D01*
X116322786Y-96982072D01*
X116322784Y-96982073D01*
X116314155Y-96984539D01*
X116306565Y-96989328D01*
X116234519Y-97034786D01*
X116205019Y-97053399D01*
X116200833Y-97058139D01*
X116137213Y-97086515D01*
X116067031Y-97075790D01*
X116013789Y-97028824D01*
X116008352Y-97016780D01*
X116001000Y-97007660D01*
X116001000Y-97000198D01*
X116001082Y-97000000D01*
X116000765Y-96999235D01*
X116000198Y-96999000D01*
X116000000Y-96998918D01*
X115999802Y-96999000D01*
X115526000Y-96999000D01*
X115457879Y-96978998D01*
X115411386Y-96925342D01*
X115400000Y-96873000D01*
X115400000Y-96676500D01*
X115420002Y-96608379D01*
X115473658Y-96561886D01*
X115526000Y-96550500D01*
X115869748Y-96550500D01*
X115889350Y-96546601D01*
X115916061Y-96541288D01*
X115916062Y-96541288D01*
X115928231Y-96538867D01*
X115994552Y-96494552D01*
X116038867Y-96428231D01*
X116050500Y-96369748D01*
X116050500Y-95994440D01*
X126644901Y-95994440D01*
X126646065Y-96003342D01*
X126646065Y-96003345D01*
X126660468Y-96113489D01*
X126660469Y-96113493D01*
X126661633Y-96122394D01*
X126665250Y-96130614D01*
X126701716Y-96213489D01*
X126713605Y-96240510D01*
X126796639Y-96339291D01*
X126904060Y-96410796D01*
X127027233Y-96449278D01*
X127036203Y-96449442D01*
X127036207Y-96449443D01*
X127094942Y-96450519D01*
X127156255Y-96451643D01*
X127242128Y-96428231D01*
X127272092Y-96420062D01*
X127272093Y-96420062D01*
X127280755Y-96417700D01*
X127288405Y-96413003D01*
X127288407Y-96413002D01*
X127383072Y-96354878D01*
X127383075Y-96354875D01*
X127390724Y-96350179D01*
X127399476Y-96340510D01*
X127471300Y-96261161D01*
X127471303Y-96261157D01*
X127477322Y-96254507D01*
X127485586Y-96237449D01*
X127533287Y-96184866D01*
X127601845Y-96166419D01*
X127669493Y-96187965D01*
X127705949Y-96225802D01*
X127709988Y-96232290D01*
X127713605Y-96240510D01*
X127796639Y-96339291D01*
X127904060Y-96410796D01*
X128027233Y-96449278D01*
X128036203Y-96449442D01*
X128036207Y-96449443D01*
X128094942Y-96450519D01*
X128156255Y-96451643D01*
X128242128Y-96428231D01*
X128272092Y-96420062D01*
X128272093Y-96420062D01*
X128280755Y-96417700D01*
X128288405Y-96413003D01*
X128288407Y-96413002D01*
X128383072Y-96354878D01*
X128383075Y-96354875D01*
X128390724Y-96350179D01*
X128399476Y-96340510D01*
X128471300Y-96261161D01*
X128471303Y-96261157D01*
X128477322Y-96254507D01*
X128533588Y-96138375D01*
X128538174Y-96111120D01*
X128554190Y-96015917D01*
X128554997Y-96011120D01*
X128555133Y-96000000D01*
X128536839Y-95872259D01*
X128519248Y-95833570D01*
X128487145Y-95762962D01*
X128487143Y-95762959D01*
X128483428Y-95754788D01*
X128457625Y-95724842D01*
X128405051Y-95663826D01*
X128405049Y-95663824D01*
X128399193Y-95657028D01*
X128391665Y-95652148D01*
X128384895Y-95646243D01*
X128386987Y-95643845D01*
X128350935Y-95601930D01*
X128341089Y-95531620D01*
X128370819Y-95467148D01*
X128383950Y-95454339D01*
X128390724Y-95450179D01*
X128396750Y-95443522D01*
X128471300Y-95361161D01*
X128471303Y-95361157D01*
X128477322Y-95354507D01*
X128533588Y-95238375D01*
X128535082Y-95229498D01*
X128554190Y-95115917D01*
X128554997Y-95111120D01*
X128555133Y-95100000D01*
X128536839Y-94972259D01*
X128530724Y-94958809D01*
X128487145Y-94862962D01*
X128487143Y-94862959D01*
X128483428Y-94854788D01*
X128457625Y-94824842D01*
X128405051Y-94763826D01*
X128405049Y-94763824D01*
X128399193Y-94757028D01*
X128290906Y-94686841D01*
X128282311Y-94684271D01*
X128282310Y-94684270D01*
X128175874Y-94652438D01*
X128175872Y-94652438D01*
X128167273Y-94649866D01*
X128158298Y-94649811D01*
X128158297Y-94649811D01*
X128103641Y-94649477D01*
X128038231Y-94649078D01*
X127989652Y-94662962D01*
X127922786Y-94682072D01*
X127922784Y-94682073D01*
X127914155Y-94684539D01*
X127805019Y-94753399D01*
X127799076Y-94760128D01*
X127799075Y-94760129D01*
X127731351Y-94836812D01*
X127719596Y-94850122D01*
X127715781Y-94858248D01*
X127714431Y-94861123D01*
X127712341Y-94863484D01*
X127710852Y-94865751D01*
X127710525Y-94865536D01*
X127667376Y-94914286D01*
X127599049Y-94933570D01*
X127531143Y-94912852D01*
X127493876Y-94869310D01*
X127491980Y-94870523D01*
X127487145Y-94862962D01*
X127483428Y-94854788D01*
X127457625Y-94824842D01*
X127405051Y-94763826D01*
X127405049Y-94763824D01*
X127399193Y-94757028D01*
X127290906Y-94686841D01*
X127282311Y-94684271D01*
X127282310Y-94684270D01*
X127175874Y-94652438D01*
X127175872Y-94652438D01*
X127167273Y-94649866D01*
X127158298Y-94649811D01*
X127158297Y-94649811D01*
X127103641Y-94649477D01*
X127038231Y-94649078D01*
X126989652Y-94662962D01*
X126922786Y-94682072D01*
X126922784Y-94682073D01*
X126914155Y-94684539D01*
X126805019Y-94753399D01*
X126799076Y-94760128D01*
X126799075Y-94760129D01*
X126731351Y-94836812D01*
X126719596Y-94850122D01*
X126715782Y-94858245D01*
X126715781Y-94858247D01*
X126696178Y-94900000D01*
X126664754Y-94966932D01*
X126657581Y-95013002D01*
X126646282Y-95085567D01*
X126646282Y-95085571D01*
X126644901Y-95094440D01*
X126646065Y-95103342D01*
X126646065Y-95103345D01*
X126660468Y-95213489D01*
X126660469Y-95213493D01*
X126661633Y-95222394D01*
X126713605Y-95340510D01*
X126719382Y-95347382D01*
X126719383Y-95347384D01*
X126761353Y-95397313D01*
X126796639Y-95439291D01*
X126804116Y-95444268D01*
X126804544Y-95444553D01*
X126804872Y-95444944D01*
X126810804Y-95450248D01*
X126810038Y-95451104D01*
X126850167Y-95498950D01*
X126859138Y-95569378D01*
X126828608Y-95633475D01*
X126816389Y-95645393D01*
X126812609Y-95648610D01*
X126805019Y-95653399D01*
X126719596Y-95750122D01*
X126715782Y-95758245D01*
X126715781Y-95758247D01*
X126712359Y-95765536D01*
X126664754Y-95866932D01*
X126663374Y-95875798D01*
X126646282Y-95985567D01*
X126646282Y-95985571D01*
X126644901Y-95994440D01*
X116050500Y-95994440D01*
X116050500Y-95465434D01*
X116070502Y-95397313D01*
X116124158Y-95350820D01*
X116194432Y-95340716D01*
X116214067Y-95345165D01*
X116227233Y-95349278D01*
X116236203Y-95349442D01*
X116236207Y-95349443D01*
X116294942Y-95350519D01*
X116356255Y-95351643D01*
X116451038Y-95325802D01*
X116472092Y-95320062D01*
X116472093Y-95320062D01*
X116480755Y-95317700D01*
X116488405Y-95313003D01*
X116488407Y-95313002D01*
X116583072Y-95254878D01*
X116583075Y-95254875D01*
X116590724Y-95250179D01*
X116596750Y-95243522D01*
X116671300Y-95161161D01*
X116671303Y-95161157D01*
X116677322Y-95154507D01*
X116733588Y-95038375D01*
X116737067Y-95017700D01*
X116754190Y-94915917D01*
X116754997Y-94911120D01*
X116755133Y-94900000D01*
X116736839Y-94772259D01*
X116726086Y-94748608D01*
X116687145Y-94662962D01*
X116687143Y-94662959D01*
X116683428Y-94654788D01*
X116649935Y-94615917D01*
X116605051Y-94563826D01*
X116605049Y-94563824D01*
X116599193Y-94557028D01*
X116490906Y-94486841D01*
X116482311Y-94484271D01*
X116482310Y-94484270D01*
X116375874Y-94452438D01*
X116375872Y-94452438D01*
X116367273Y-94449866D01*
X116358298Y-94449811D01*
X116358297Y-94449811D01*
X116303641Y-94449477D01*
X116238231Y-94449078D01*
X116185705Y-94464090D01*
X116122786Y-94482072D01*
X116122784Y-94482073D01*
X116114155Y-94484539D01*
X116005019Y-94553399D01*
X115919596Y-94650122D01*
X115915782Y-94658245D01*
X115915781Y-94658247D01*
X115901189Y-94689328D01*
X115864754Y-94766932D01*
X115863374Y-94775798D01*
X115846282Y-94885567D01*
X115846282Y-94885571D01*
X115844901Y-94894440D01*
X115846065Y-94903342D01*
X115846065Y-94903345D01*
X115860468Y-95013489D01*
X115860469Y-95013493D01*
X115861633Y-95022394D01*
X115873464Y-95049281D01*
X115883792Y-95072754D01*
X115892920Y-95143161D01*
X115862533Y-95207326D01*
X115802280Y-95244877D01*
X115768463Y-95249500D01*
X115526000Y-95249500D01*
X115457879Y-95229498D01*
X115411386Y-95175842D01*
X115400000Y-95123500D01*
X115400000Y-94094440D01*
X118294901Y-94094440D01*
X118296065Y-94103342D01*
X118296065Y-94103345D01*
X118310468Y-94213489D01*
X118310469Y-94213493D01*
X118311633Y-94222394D01*
X118321258Y-94244268D01*
X118351709Y-94313473D01*
X118363605Y-94340510D01*
X118369382Y-94347383D01*
X118369383Y-94347384D01*
X118372963Y-94351643D01*
X118446639Y-94439291D01*
X118554060Y-94510796D01*
X118677233Y-94549278D01*
X118686203Y-94549442D01*
X118686207Y-94549443D01*
X118744942Y-94550519D01*
X118806255Y-94551643D01*
X118868505Y-94534671D01*
X118922092Y-94520062D01*
X118922093Y-94520062D01*
X118930755Y-94517700D01*
X118938405Y-94513003D01*
X118938407Y-94513002D01*
X119033072Y-94454878D01*
X119033075Y-94454875D01*
X119040724Y-94450179D01*
X119046750Y-94443522D01*
X119121300Y-94361161D01*
X119121303Y-94361157D01*
X119127322Y-94354507D01*
X119183588Y-94238375D01*
X119192691Y-94184270D01*
X119204190Y-94115917D01*
X119204997Y-94111120D01*
X119205056Y-94106258D01*
X119205492Y-94101403D01*
X119207063Y-94101544D01*
X119225857Y-94040285D01*
X119280070Y-93994443D01*
X119297878Y-93988120D01*
X119343072Y-93975798D01*
X119394175Y-93961866D01*
X119394178Y-93961865D01*
X119402837Y-93959504D01*
X119410487Y-93954807D01*
X119410489Y-93954806D01*
X119505154Y-93896682D01*
X119505157Y-93896679D01*
X119508804Y-93894440D01*
X120244901Y-93894440D01*
X120246065Y-93903342D01*
X120246065Y-93903345D01*
X120260468Y-94013489D01*
X120260469Y-94013493D01*
X120261633Y-94022394D01*
X120265250Y-94030614D01*
X120309729Y-94131700D01*
X120313605Y-94140510D01*
X120319382Y-94147383D01*
X120319383Y-94147384D01*
X120388011Y-94229027D01*
X120396639Y-94239291D01*
X120504060Y-94310796D01*
X120572858Y-94332290D01*
X120618124Y-94346432D01*
X120627233Y-94349278D01*
X120636203Y-94349442D01*
X120636207Y-94349443D01*
X120694942Y-94350519D01*
X120756255Y-94351643D01*
X120827240Y-94332290D01*
X120872092Y-94320062D01*
X120872093Y-94320062D01*
X120880755Y-94317700D01*
X120888405Y-94313003D01*
X120888407Y-94313002D01*
X120983072Y-94254878D01*
X120983075Y-94254875D01*
X120990724Y-94250179D01*
X120996750Y-94243522D01*
X121071300Y-94161161D01*
X121071303Y-94161157D01*
X121077322Y-94154507D01*
X121133588Y-94038375D01*
X121147648Y-93954806D01*
X121154190Y-93915917D01*
X121154997Y-93911120D01*
X121155133Y-93900000D01*
X121154337Y-93894440D01*
X122044901Y-93894440D01*
X122046065Y-93903342D01*
X122046065Y-93903345D01*
X122060468Y-94013489D01*
X122060469Y-94013493D01*
X122061633Y-94022394D01*
X122065250Y-94030614D01*
X122109729Y-94131700D01*
X122113605Y-94140510D01*
X122119382Y-94147383D01*
X122119383Y-94147384D01*
X122188011Y-94229027D01*
X122196639Y-94239291D01*
X122304060Y-94310796D01*
X122372858Y-94332290D01*
X122418124Y-94346432D01*
X122427233Y-94349278D01*
X122436203Y-94349442D01*
X122436207Y-94349443D01*
X122494942Y-94350519D01*
X122556255Y-94351643D01*
X122627240Y-94332290D01*
X122672092Y-94320062D01*
X122672093Y-94320062D01*
X122680755Y-94317700D01*
X122688405Y-94313003D01*
X122688407Y-94313002D01*
X122783072Y-94254878D01*
X122783075Y-94254875D01*
X122790724Y-94250179D01*
X122796750Y-94243522D01*
X122871300Y-94161161D01*
X122871303Y-94161157D01*
X122877322Y-94154507D01*
X122933588Y-94038375D01*
X122947648Y-93954806D01*
X122954190Y-93915917D01*
X122954997Y-93911120D01*
X122955133Y-93900000D01*
X122943541Y-93819058D01*
X122938112Y-93781145D01*
X122938111Y-93781142D01*
X122936839Y-93772259D01*
X122906194Y-93704859D01*
X122887145Y-93662962D01*
X122887143Y-93662959D01*
X122883428Y-93654788D01*
X122857625Y-93624842D01*
X122805051Y-93563826D01*
X122805049Y-93563824D01*
X122799193Y-93557028D01*
X122690906Y-93486841D01*
X122682311Y-93484271D01*
X122682310Y-93484270D01*
X122575874Y-93452438D01*
X122575872Y-93452438D01*
X122567273Y-93449866D01*
X122558298Y-93449811D01*
X122558297Y-93449811D01*
X122503641Y-93449477D01*
X122438231Y-93449078D01*
X122389652Y-93462962D01*
X122322786Y-93482072D01*
X122322784Y-93482073D01*
X122314155Y-93484539D01*
X122306565Y-93489328D01*
X122213478Y-93548062D01*
X122205019Y-93553399D01*
X122199076Y-93560128D01*
X122199075Y-93560129D01*
X122163358Y-93600571D01*
X122119596Y-93650122D01*
X122115782Y-93658245D01*
X122115781Y-93658247D01*
X122096178Y-93700000D01*
X122064754Y-93766932D01*
X122057505Y-93813489D01*
X122046282Y-93885567D01*
X122046282Y-93885571D01*
X122044901Y-93894440D01*
X121154337Y-93894440D01*
X121143541Y-93819058D01*
X121138112Y-93781145D01*
X121138111Y-93781142D01*
X121136839Y-93772259D01*
X121106194Y-93704859D01*
X121087145Y-93662962D01*
X121087143Y-93662959D01*
X121083428Y-93654788D01*
X121057625Y-93624842D01*
X121005051Y-93563826D01*
X121005049Y-93563824D01*
X120999193Y-93557028D01*
X120890906Y-93486841D01*
X120882311Y-93484271D01*
X120882310Y-93484270D01*
X120775874Y-93452438D01*
X120775872Y-93452438D01*
X120767273Y-93449866D01*
X120758298Y-93449811D01*
X120758297Y-93449811D01*
X120703641Y-93449477D01*
X120638231Y-93449078D01*
X120589652Y-93462962D01*
X120522786Y-93482072D01*
X120522784Y-93482073D01*
X120514155Y-93484539D01*
X120506565Y-93489328D01*
X120413478Y-93548062D01*
X120405019Y-93553399D01*
X120399076Y-93560128D01*
X120399075Y-93560129D01*
X120363358Y-93600571D01*
X120319596Y-93650122D01*
X120315782Y-93658245D01*
X120315781Y-93658247D01*
X120296178Y-93700000D01*
X120264754Y-93766932D01*
X120257505Y-93813489D01*
X120246282Y-93885567D01*
X120246282Y-93885571D01*
X120244901Y-93894440D01*
X119508804Y-93894440D01*
X119512806Y-93891983D01*
X119518832Y-93885326D01*
X119593382Y-93802965D01*
X119593385Y-93802961D01*
X119599404Y-93796311D01*
X119655670Y-93680179D01*
X119660807Y-93649649D01*
X119676272Y-93557721D01*
X119677079Y-93552924D01*
X119677215Y-93541804D01*
X119665249Y-93458247D01*
X119660194Y-93422949D01*
X119660193Y-93422946D01*
X119658921Y-93414063D01*
X119636080Y-93363826D01*
X119609227Y-93304766D01*
X119609225Y-93304763D01*
X119605510Y-93296592D01*
X119566695Y-93251545D01*
X119527133Y-93205630D01*
X119527131Y-93205628D01*
X119521275Y-93198832D01*
X119412988Y-93128645D01*
X119404393Y-93126075D01*
X119404392Y-93126074D01*
X119297956Y-93094242D01*
X119297954Y-93094242D01*
X119289355Y-93091670D01*
X119280380Y-93091615D01*
X119280379Y-93091615D01*
X119225723Y-93091281D01*
X119160313Y-93090882D01*
X119148557Y-93094242D01*
X119044868Y-93123876D01*
X119044866Y-93123877D01*
X119036237Y-93126343D01*
X118927101Y-93195203D01*
X118921158Y-93201932D01*
X118921157Y-93201933D01*
X118878873Y-93249811D01*
X118841678Y-93291926D01*
X118837864Y-93300049D01*
X118837863Y-93300051D01*
X118822452Y-93332876D01*
X118786836Y-93408736D01*
X118766983Y-93536244D01*
X118767051Y-93536765D01*
X118747464Y-93600571D01*
X118693244Y-93646404D01*
X118676933Y-93652307D01*
X118572786Y-93682072D01*
X118572784Y-93682073D01*
X118564155Y-93684539D01*
X118455019Y-93753399D01*
X118449076Y-93760128D01*
X118449075Y-93760129D01*
X118424497Y-93787958D01*
X118369596Y-93850122D01*
X118365782Y-93858245D01*
X118365781Y-93858247D01*
X118347736Y-93896682D01*
X118314754Y-93966932D01*
X118310879Y-93991821D01*
X118296282Y-94085567D01*
X118296282Y-94085571D01*
X118294901Y-94094440D01*
X115400000Y-94094440D01*
X115400000Y-92594440D01*
X115944901Y-92594440D01*
X115946065Y-92603342D01*
X115946065Y-92603345D01*
X115960468Y-92713489D01*
X115960469Y-92713493D01*
X115961633Y-92722394D01*
X115965250Y-92730614D01*
X116001709Y-92813473D01*
X116013605Y-92840510D01*
X116019382Y-92847383D01*
X116019383Y-92847384D01*
X116055155Y-92889940D01*
X116096639Y-92939291D01*
X116204060Y-93010796D01*
X116327233Y-93049278D01*
X116336203Y-93049442D01*
X116336207Y-93049443D01*
X116394942Y-93050519D01*
X116456255Y-93051643D01*
X116518505Y-93034671D01*
X116572092Y-93020062D01*
X116572093Y-93020062D01*
X116580755Y-93017700D01*
X116588405Y-93013003D01*
X116588407Y-93013002D01*
X116683072Y-92954878D01*
X116683075Y-92954875D01*
X116690724Y-92950179D01*
X116696750Y-92943522D01*
X116771300Y-92861161D01*
X116771303Y-92861157D01*
X116777322Y-92854507D01*
X116833588Y-92738375D01*
X116847802Y-92653888D01*
X116878829Y-92590029D01*
X116939454Y-92553083D01*
X116977198Y-92551175D01*
X116977233Y-92549278D01*
X117106255Y-92551643D01*
X117213538Y-92522394D01*
X117222092Y-92520062D01*
X117222093Y-92520062D01*
X117230755Y-92517700D01*
X117238405Y-92513003D01*
X117238407Y-92513002D01*
X117333072Y-92454878D01*
X117333075Y-92454875D01*
X117340724Y-92450179D01*
X117376079Y-92411120D01*
X117389121Y-92396711D01*
X117449664Y-92359629D01*
X117520644Y-92361167D01*
X117552354Y-92376378D01*
X117604060Y-92410796D01*
X117727233Y-92449278D01*
X117736203Y-92449442D01*
X117736207Y-92449443D01*
X117794942Y-92450519D01*
X117856255Y-92451643D01*
X117933956Y-92430459D01*
X117972092Y-92420062D01*
X117972093Y-92420062D01*
X117980755Y-92417700D01*
X117988405Y-92413003D01*
X117988407Y-92413002D01*
X118083072Y-92354878D01*
X118083075Y-92354875D01*
X118090724Y-92350179D01*
X118096750Y-92343522D01*
X118171300Y-92261161D01*
X118171303Y-92261157D01*
X118177322Y-92254507D01*
X118233588Y-92138375D01*
X118238743Y-92107738D01*
X118254190Y-92015917D01*
X118254997Y-92011120D01*
X118255133Y-92000000D01*
X118243549Y-91919111D01*
X118238112Y-91881145D01*
X118238111Y-91881142D01*
X118236839Y-91872259D01*
X118228980Y-91854974D01*
X118187145Y-91762962D01*
X118187143Y-91762959D01*
X118183428Y-91754788D01*
X118128043Y-91690510D01*
X118105051Y-91663826D01*
X118105049Y-91663824D01*
X118099193Y-91657028D01*
X117990906Y-91586841D01*
X117982311Y-91584271D01*
X117982310Y-91584270D01*
X117875874Y-91552438D01*
X117875872Y-91552438D01*
X117867273Y-91549866D01*
X117858298Y-91549811D01*
X117858297Y-91549811D01*
X117803641Y-91549477D01*
X117738231Y-91549078D01*
X117726475Y-91552438D01*
X117622786Y-91582072D01*
X117622784Y-91582073D01*
X117614155Y-91584539D01*
X117505019Y-91653399D01*
X117461956Y-91702159D01*
X117401871Y-91739977D01*
X117330878Y-91739307D01*
X117298984Y-91724484D01*
X117248438Y-91691722D01*
X117248433Y-91691720D01*
X117240906Y-91686841D01*
X117232311Y-91684271D01*
X117232310Y-91684270D01*
X117125874Y-91652438D01*
X117125872Y-91652438D01*
X117117273Y-91649866D01*
X117108298Y-91649811D01*
X117108297Y-91649811D01*
X117052752Y-91649472D01*
X116988231Y-91649078D01*
X116988239Y-91647829D01*
X116926840Y-91638584D01*
X116873494Y-91591736D01*
X116853945Y-91523484D01*
X116854356Y-91514928D01*
X116854997Y-91511120D01*
X116855133Y-91500000D01*
X116845457Y-91432438D01*
X116838112Y-91381145D01*
X116838111Y-91381142D01*
X116836839Y-91372259D01*
X116833125Y-91364090D01*
X116787145Y-91262962D01*
X116787143Y-91262959D01*
X116783428Y-91254788D01*
X116717525Y-91178303D01*
X116705051Y-91163826D01*
X116705049Y-91163824D01*
X116699193Y-91157028D01*
X116590906Y-91086841D01*
X116537668Y-91070919D01*
X116478135Y-91032236D01*
X116448966Y-90967508D01*
X116459422Y-90897286D01*
X116506183Y-90843864D01*
X116540630Y-90828639D01*
X116580755Y-90817700D01*
X116588405Y-90813003D01*
X116588407Y-90813002D01*
X116683072Y-90754878D01*
X116683075Y-90754875D01*
X116690724Y-90750179D01*
X116696750Y-90743522D01*
X116771300Y-90661161D01*
X116771303Y-90661157D01*
X116777322Y-90654507D01*
X116833588Y-90538375D01*
X116835923Y-90524500D01*
X116854190Y-90415917D01*
X116854997Y-90411120D01*
X116855133Y-90400000D01*
X116839991Y-90294266D01*
X116838112Y-90281145D01*
X116838111Y-90281142D01*
X116836839Y-90272259D01*
X116830724Y-90258809D01*
X116787145Y-90162962D01*
X116787143Y-90162959D01*
X116783428Y-90154788D01*
X116719516Y-90080614D01*
X116705051Y-90063826D01*
X116705049Y-90063824D01*
X116699193Y-90057028D01*
X116590906Y-89986841D01*
X116582311Y-89984271D01*
X116582310Y-89984270D01*
X116475874Y-89952438D01*
X116475872Y-89952438D01*
X116467273Y-89949866D01*
X116458298Y-89949811D01*
X116458297Y-89949811D01*
X116403641Y-89949477D01*
X116338231Y-89949078D01*
X116276193Y-89966808D01*
X116222786Y-89982072D01*
X116222784Y-89982073D01*
X116214155Y-89984539D01*
X116105019Y-90053399D01*
X116019596Y-90150122D01*
X116015782Y-90158245D01*
X116015781Y-90158247D01*
X116004493Y-90182290D01*
X115964754Y-90266932D01*
X115961273Y-90289291D01*
X115946282Y-90385567D01*
X115946282Y-90385571D01*
X115944901Y-90394440D01*
X115946065Y-90403342D01*
X115946065Y-90403345D01*
X115960468Y-90513489D01*
X115960469Y-90513493D01*
X115961633Y-90522394D01*
X116013605Y-90640510D01*
X116096639Y-90739291D01*
X116204060Y-90810796D01*
X116212627Y-90813473D01*
X116212628Y-90813473D01*
X116264331Y-90829626D01*
X116323387Y-90869032D01*
X116351764Y-90934111D01*
X116340451Y-91004201D01*
X116293042Y-91057048D01*
X116261380Y-91071042D01*
X116222788Y-91082071D01*
X116222784Y-91082073D01*
X116214155Y-91084539D01*
X116206565Y-91089328D01*
X116121133Y-91143232D01*
X116105019Y-91153399D01*
X116099076Y-91160128D01*
X116099075Y-91160129D01*
X116045709Y-91220555D01*
X116019596Y-91250122D01*
X116015782Y-91258245D01*
X116015781Y-91258247D01*
X115997655Y-91296855D01*
X115964754Y-91366932D01*
X115956122Y-91422375D01*
X115946282Y-91485567D01*
X115946282Y-91485571D01*
X115944901Y-91494440D01*
X115946065Y-91503342D01*
X115946065Y-91503345D01*
X115960468Y-91613489D01*
X115960469Y-91613493D01*
X115961633Y-91622394D01*
X116013605Y-91740510D01*
X116096639Y-91839291D01*
X116104116Y-91844268D01*
X116190310Y-91901643D01*
X116204060Y-91910796D01*
X116212627Y-91913473D01*
X116212628Y-91913473D01*
X116264331Y-91929626D01*
X116323387Y-91969032D01*
X116351764Y-92034111D01*
X116340451Y-92104201D01*
X116293042Y-92157048D01*
X116261380Y-92171042D01*
X116222788Y-92182071D01*
X116222784Y-92182073D01*
X116214155Y-92184539D01*
X116105019Y-92253399D01*
X116019596Y-92350122D01*
X116015782Y-92358245D01*
X116015781Y-92358247D01*
X115991585Y-92409784D01*
X115964754Y-92466932D01*
X115957581Y-92513002D01*
X115946282Y-92585567D01*
X115946282Y-92585571D01*
X115944901Y-92594440D01*
X115400000Y-92594440D01*
X115400000Y-89944440D01*
X123544901Y-89944440D01*
X123546065Y-89953342D01*
X123546065Y-89953345D01*
X123560468Y-90063489D01*
X123560469Y-90063493D01*
X123561633Y-90072394D01*
X123613605Y-90190510D01*
X123619382Y-90197383D01*
X123619383Y-90197384D01*
X123690859Y-90282415D01*
X123696639Y-90289291D01*
X123757473Y-90329785D01*
X123803095Y-90384181D01*
X123812067Y-90454609D01*
X123801710Y-90488219D01*
X123764754Y-90566932D01*
X123763374Y-90575798D01*
X123746282Y-90685567D01*
X123746282Y-90685571D01*
X123744901Y-90694440D01*
X123746065Y-90703342D01*
X123746065Y-90703345D01*
X123760468Y-90813489D01*
X123760469Y-90813493D01*
X123761633Y-90822394D01*
X123813605Y-90940510D01*
X123819382Y-90947383D01*
X123819383Y-90947384D01*
X123867143Y-91004201D01*
X123896639Y-91039291D01*
X123904116Y-91044268D01*
X123986012Y-91098782D01*
X124004060Y-91110796D01*
X124127233Y-91149278D01*
X124136203Y-91149442D01*
X124136207Y-91149443D01*
X124194942Y-91150519D01*
X124256255Y-91151643D01*
X124343192Y-91127941D01*
X124372092Y-91120062D01*
X124372093Y-91120062D01*
X124380755Y-91117700D01*
X124388405Y-91113003D01*
X124388407Y-91113002D01*
X124483072Y-91054878D01*
X124483075Y-91054875D01*
X124490724Y-91050179D01*
X124496750Y-91043522D01*
X124571300Y-90961161D01*
X124571303Y-90961157D01*
X124577322Y-90954507D01*
X124587182Y-90934156D01*
X124634883Y-90881572D01*
X124703441Y-90863125D01*
X124771090Y-90884671D01*
X124789670Y-90899997D01*
X124955895Y-91066222D01*
X124963321Y-91074325D01*
X124987545Y-91103194D01*
X124997088Y-91108704D01*
X124997092Y-91108707D01*
X125020179Y-91122036D01*
X125029448Y-91127940D01*
X125060316Y-91149554D01*
X125070964Y-91152407D01*
X125074135Y-91153886D01*
X125077411Y-91155078D01*
X125086955Y-91160588D01*
X125124076Y-91167134D01*
X125134783Y-91169508D01*
X125171193Y-91179263D01*
X125182168Y-91178303D01*
X125182170Y-91178303D01*
X125208731Y-91175979D01*
X125219712Y-91175500D01*
X126539639Y-91175500D01*
X126607760Y-91195502D01*
X126654253Y-91249158D01*
X126664139Y-91320883D01*
X126656969Y-91366932D01*
X126646473Y-91434346D01*
X126644901Y-91444440D01*
X126646065Y-91453342D01*
X126646065Y-91453345D01*
X126660468Y-91563489D01*
X126660469Y-91563493D01*
X126661633Y-91572394D01*
X126713605Y-91690510D01*
X126719382Y-91697383D01*
X126719383Y-91697384D01*
X126761918Y-91747985D01*
X126796639Y-91789291D01*
X126804116Y-91794268D01*
X126878110Y-91843522D01*
X126904060Y-91860796D01*
X126969193Y-91881145D01*
X127005372Y-91892448D01*
X127027233Y-91899278D01*
X127036203Y-91899442D01*
X127036207Y-91899443D01*
X127094942Y-91900519D01*
X127156255Y-91901643D01*
X127231440Y-91881145D01*
X127272092Y-91870062D01*
X127272093Y-91870062D01*
X127280755Y-91867700D01*
X127287429Y-91863602D01*
X127357317Y-91854974D01*
X127420640Y-91885435D01*
X127421806Y-91887455D01*
X127450185Y-91911268D01*
X127450682Y-91911685D01*
X127458785Y-91919111D01*
X127504244Y-91964570D01*
X127511671Y-91972674D01*
X127535900Y-92001549D01*
X127545449Y-92007062D01*
X127568540Y-92020394D01*
X127577811Y-92026300D01*
X127608671Y-92047909D01*
X127619321Y-92050763D01*
X127622489Y-92052240D01*
X127625765Y-92053432D01*
X127635310Y-92058943D01*
X127669054Y-92064893D01*
X127672413Y-92065485D01*
X127683140Y-92067863D01*
X127719548Y-92077619D01*
X127730524Y-92076659D01*
X127730527Y-92076659D01*
X127757098Y-92074334D01*
X127768079Y-92073855D01*
X128757050Y-92073855D01*
X128825171Y-92093857D01*
X128871664Y-92147513D01*
X128881768Y-92217787D01*
X128871106Y-92253401D01*
X128868569Y-92258805D01*
X128868568Y-92258809D01*
X128864754Y-92266932D01*
X128859399Y-92301328D01*
X128846282Y-92385567D01*
X128846282Y-92385571D01*
X128844901Y-92394440D01*
X128846065Y-92403342D01*
X128846065Y-92403345D01*
X128860468Y-92513489D01*
X128860469Y-92513493D01*
X128861633Y-92522394D01*
X128913605Y-92640510D01*
X128919382Y-92647383D01*
X128919383Y-92647384D01*
X128988431Y-92729526D01*
X128996639Y-92739291D01*
X129104060Y-92810796D01*
X129172858Y-92832290D01*
X129218124Y-92846432D01*
X129227233Y-92849278D01*
X129236203Y-92849442D01*
X129236207Y-92849443D01*
X129294942Y-92850519D01*
X129356255Y-92851643D01*
X129365865Y-92849023D01*
X129366838Y-92849042D01*
X129373822Y-92848172D01*
X129373948Y-92849180D01*
X129436848Y-92850403D01*
X129495817Y-92889940D01*
X129523943Y-92954248D01*
X129530400Y-93003627D01*
X129582372Y-93121743D01*
X129588149Y-93128616D01*
X129588150Y-93128617D01*
X129647172Y-93198832D01*
X129665406Y-93220524D01*
X129772827Y-93292029D01*
X129896000Y-93330511D01*
X129904970Y-93330675D01*
X129904974Y-93330676D01*
X129963709Y-93331752D01*
X130025022Y-93332876D01*
X130065358Y-93321879D01*
X130136341Y-93323259D01*
X130195310Y-93362796D01*
X130223542Y-93427937D01*
X130224500Y-93443442D01*
X130224500Y-93619533D01*
X130224020Y-93630515D01*
X130222305Y-93650122D01*
X130220736Y-93668050D01*
X130225430Y-93685567D01*
X130230491Y-93704453D01*
X130232870Y-93715185D01*
X130239412Y-93752288D01*
X130244923Y-93761833D01*
X130246115Y-93765109D01*
X130247592Y-93768277D01*
X130250446Y-93778927D01*
X130262619Y-93796311D01*
X130272055Y-93809787D01*
X130277961Y-93819058D01*
X130284002Y-93829521D01*
X130296806Y-93851698D01*
X130305251Y-93858784D01*
X130325675Y-93875922D01*
X130333780Y-93883349D01*
X130847894Y-94397464D01*
X130881919Y-94459776D01*
X130884798Y-94486559D01*
X130884798Y-95202686D01*
X130864796Y-95270807D01*
X130847893Y-95291781D01*
X130527404Y-95612270D01*
X130465092Y-95646296D01*
X130455410Y-95648009D01*
X130447207Y-95649133D01*
X130438231Y-95649078D01*
X130399575Y-95660126D01*
X130322786Y-95682072D01*
X130322784Y-95682073D01*
X130314155Y-95684539D01*
X130306565Y-95689328D01*
X130213600Y-95747985D01*
X130205019Y-95753399D01*
X130199076Y-95760128D01*
X130199075Y-95760129D01*
X130152512Y-95812852D01*
X130119596Y-95850122D01*
X130115782Y-95858245D01*
X130115781Y-95858247D01*
X130107541Y-95875798D01*
X130064754Y-95966932D01*
X130058849Y-96004859D01*
X130046282Y-96085567D01*
X130046282Y-96085571D01*
X130044901Y-96094440D01*
X130046065Y-96103342D01*
X130046065Y-96103345D01*
X130060468Y-96213489D01*
X130060469Y-96213493D01*
X130061633Y-96222394D01*
X130113605Y-96340510D01*
X130119382Y-96347383D01*
X130119383Y-96347384D01*
X130172686Y-96410796D01*
X130196639Y-96439291D01*
X130304060Y-96510796D01*
X130392938Y-96538564D01*
X130401659Y-96541288D01*
X130427233Y-96549278D01*
X130436203Y-96549442D01*
X130436207Y-96549443D01*
X130494942Y-96550519D01*
X130556255Y-96551643D01*
X130628399Y-96531974D01*
X130672092Y-96520062D01*
X130672093Y-96520062D01*
X130680755Y-96517700D01*
X130688405Y-96513003D01*
X130688407Y-96513002D01*
X130783072Y-96454878D01*
X130783075Y-96454875D01*
X130790724Y-96450179D01*
X130796750Y-96443522D01*
X130871300Y-96361161D01*
X130871303Y-96361157D01*
X130877322Y-96354507D01*
X130933588Y-96238375D01*
X130949487Y-96143871D01*
X130984646Y-96075680D01*
X131426513Y-95633813D01*
X131434617Y-95626386D01*
X131455047Y-95609243D01*
X131463492Y-95602157D01*
X131473664Y-95584539D01*
X131482337Y-95569517D01*
X131488243Y-95560246D01*
X131503528Y-95538417D01*
X131509852Y-95529386D01*
X131512706Y-95518736D01*
X131514183Y-95515568D01*
X131515375Y-95512292D01*
X131520886Y-95502747D01*
X131527428Y-95465644D01*
X131529807Y-95454912D01*
X131530302Y-95453064D01*
X131539562Y-95418509D01*
X131536278Y-95380974D01*
X131535798Y-95369992D01*
X131535798Y-95160841D01*
X131555800Y-95092720D01*
X131609456Y-95046227D01*
X131679730Y-95036123D01*
X131699368Y-95040572D01*
X131727233Y-95049278D01*
X131736203Y-95049442D01*
X131736207Y-95049443D01*
X131794942Y-95050519D01*
X131856255Y-95051643D01*
X131963538Y-95022394D01*
X131972092Y-95020062D01*
X131972093Y-95020062D01*
X131980755Y-95017700D01*
X131988405Y-95013003D01*
X131988407Y-95013002D01*
X132083072Y-94954878D01*
X132083075Y-94954875D01*
X132090724Y-94950179D01*
X132105758Y-94933570D01*
X132171300Y-94861161D01*
X132171303Y-94861157D01*
X132177322Y-94854507D01*
X132233588Y-94738375D01*
X132242691Y-94684270D01*
X132254190Y-94615917D01*
X132254997Y-94611120D01*
X132255133Y-94600000D01*
X132243347Y-94517700D01*
X132238112Y-94481145D01*
X132238111Y-94481142D01*
X132236839Y-94472259D01*
X132233125Y-94464090D01*
X132187145Y-94362962D01*
X132187143Y-94362959D01*
X132183428Y-94354788D01*
X132099193Y-94257028D01*
X131990906Y-94186841D01*
X131982311Y-94184271D01*
X131982310Y-94184270D01*
X131875874Y-94152438D01*
X131875872Y-94152438D01*
X131867273Y-94149866D01*
X131858298Y-94149811D01*
X131858297Y-94149811D01*
X131803641Y-94149477D01*
X131738231Y-94149078D01*
X131627979Y-94180588D01*
X131556985Y-94180076D01*
X131497537Y-94141262D01*
X131490143Y-94131710D01*
X131488230Y-94128979D01*
X131482336Y-94119725D01*
X131463492Y-94087086D01*
X131434628Y-94062866D01*
X131426525Y-94055441D01*
X131174049Y-93802965D01*
X130912405Y-93541322D01*
X130878380Y-93479009D01*
X130875500Y-93452226D01*
X130875500Y-92669710D01*
X130875980Y-92658728D01*
X130878303Y-92632180D01*
X130878303Y-92632178D01*
X130879264Y-92621193D01*
X130869508Y-92584785D01*
X130867130Y-92574058D01*
X130866538Y-92570699D01*
X130860588Y-92536955D01*
X130855077Y-92527410D01*
X130853885Y-92524134D01*
X130852408Y-92520966D01*
X130849554Y-92510316D01*
X130827945Y-92479456D01*
X130822039Y-92470185D01*
X130808707Y-92447094D01*
X130803194Y-92437545D01*
X130774317Y-92413315D01*
X130766215Y-92405889D01*
X130468064Y-92107738D01*
X130434038Y-92045426D01*
X130439103Y-91974611D01*
X130481650Y-91917775D01*
X130491225Y-91911272D01*
X130590724Y-91850179D01*
X130596750Y-91843522D01*
X130671300Y-91761161D01*
X130671303Y-91761157D01*
X130677322Y-91754507D01*
X130733588Y-91638375D01*
X130741435Y-91591736D01*
X130754190Y-91515917D01*
X130754997Y-91511120D01*
X130755133Y-91500000D01*
X130754337Y-91494440D01*
X131344901Y-91494440D01*
X131346065Y-91503342D01*
X131346065Y-91503345D01*
X131360468Y-91613489D01*
X131360469Y-91613493D01*
X131361633Y-91622394D01*
X131413605Y-91740510D01*
X131496639Y-91839291D01*
X131504116Y-91844268D01*
X131590310Y-91901643D01*
X131604060Y-91910796D01*
X131727233Y-91949278D01*
X131736203Y-91949442D01*
X131736207Y-91949443D01*
X131794942Y-91950519D01*
X131856255Y-91951643D01*
X131918505Y-91934671D01*
X131972092Y-91920062D01*
X131972093Y-91920062D01*
X131980755Y-91917700D01*
X131988405Y-91913003D01*
X131988407Y-91913002D01*
X132083072Y-91854878D01*
X132083075Y-91854875D01*
X132090724Y-91850179D01*
X132096750Y-91843522D01*
X132171300Y-91761161D01*
X132171303Y-91761157D01*
X132177322Y-91754507D01*
X132233588Y-91638375D01*
X132241435Y-91591736D01*
X132254190Y-91515917D01*
X132254997Y-91511120D01*
X132255133Y-91500000D01*
X132245457Y-91432438D01*
X132238112Y-91381145D01*
X132238111Y-91381142D01*
X132236839Y-91372259D01*
X132233125Y-91364090D01*
X132187145Y-91262962D01*
X132187143Y-91262959D01*
X132183428Y-91254788D01*
X132117525Y-91178303D01*
X132105051Y-91163826D01*
X132105049Y-91163824D01*
X132099193Y-91157028D01*
X131990906Y-91086841D01*
X131937668Y-91070919D01*
X131878135Y-91032236D01*
X131848966Y-90967508D01*
X131859422Y-90897286D01*
X131906183Y-90843864D01*
X131940630Y-90828639D01*
X131980755Y-90817700D01*
X131988405Y-90813003D01*
X131988407Y-90813002D01*
X132083072Y-90754878D01*
X132083075Y-90754875D01*
X132090724Y-90750179D01*
X132096750Y-90743522D01*
X132171300Y-90661161D01*
X132171303Y-90661157D01*
X132177322Y-90654507D01*
X132233588Y-90538375D01*
X132235923Y-90524500D01*
X132254190Y-90415917D01*
X132254997Y-90411120D01*
X132255133Y-90400000D01*
X132239991Y-90294266D01*
X132238112Y-90281145D01*
X132238111Y-90281142D01*
X132236839Y-90272259D01*
X132230724Y-90258809D01*
X132187145Y-90162962D01*
X132187143Y-90162959D01*
X132183428Y-90154788D01*
X132119516Y-90080614D01*
X132105051Y-90063826D01*
X132105049Y-90063824D01*
X132099193Y-90057028D01*
X131990906Y-89986841D01*
X131982311Y-89984271D01*
X131982310Y-89984270D01*
X131875874Y-89952438D01*
X131875872Y-89952438D01*
X131867273Y-89949866D01*
X131858298Y-89949811D01*
X131858297Y-89949811D01*
X131803641Y-89949477D01*
X131738231Y-89949078D01*
X131676193Y-89966808D01*
X131622786Y-89982072D01*
X131622784Y-89982073D01*
X131614155Y-89984539D01*
X131505019Y-90053399D01*
X131419596Y-90150122D01*
X131415782Y-90158245D01*
X131415781Y-90158247D01*
X131404493Y-90182290D01*
X131364754Y-90266932D01*
X131361273Y-90289291D01*
X131346282Y-90385567D01*
X131346282Y-90385571D01*
X131344901Y-90394440D01*
X131346065Y-90403342D01*
X131346065Y-90403345D01*
X131360468Y-90513489D01*
X131360469Y-90513493D01*
X131361633Y-90522394D01*
X131413605Y-90640510D01*
X131496639Y-90739291D01*
X131604060Y-90810796D01*
X131612627Y-90813473D01*
X131612628Y-90813473D01*
X131664331Y-90829626D01*
X131723387Y-90869032D01*
X131751764Y-90934111D01*
X131740451Y-91004201D01*
X131693042Y-91057048D01*
X131661380Y-91071042D01*
X131622788Y-91082071D01*
X131622784Y-91082073D01*
X131614155Y-91084539D01*
X131606565Y-91089328D01*
X131521133Y-91143232D01*
X131505019Y-91153399D01*
X131499076Y-91160128D01*
X131499075Y-91160129D01*
X131445709Y-91220555D01*
X131419596Y-91250122D01*
X131415782Y-91258245D01*
X131415781Y-91258247D01*
X131397655Y-91296855D01*
X131364754Y-91366932D01*
X131356122Y-91422375D01*
X131346282Y-91485567D01*
X131346282Y-91485571D01*
X131344901Y-91494440D01*
X130754337Y-91494440D01*
X130745457Y-91432438D01*
X130738112Y-91381145D01*
X130738111Y-91381142D01*
X130736839Y-91372259D01*
X130733125Y-91364090D01*
X130687145Y-91262962D01*
X130687143Y-91262959D01*
X130683428Y-91254788D01*
X130617525Y-91178303D01*
X130605051Y-91163826D01*
X130605049Y-91163824D01*
X130599193Y-91157028D01*
X130490906Y-91086841D01*
X130482311Y-91084271D01*
X130482310Y-91084270D01*
X130375874Y-91052438D01*
X130375872Y-91052438D01*
X130367273Y-91049866D01*
X130358298Y-91049811D01*
X130358297Y-91049811D01*
X130303641Y-91049477D01*
X130238231Y-91049078D01*
X130189127Y-91063112D01*
X130122786Y-91082072D01*
X130122784Y-91082073D01*
X130114155Y-91084539D01*
X130106565Y-91089328D01*
X130021133Y-91143232D01*
X130005019Y-91153399D01*
X129999076Y-91160128D01*
X129999075Y-91160129D01*
X129945709Y-91220555D01*
X129919596Y-91250122D01*
X129915781Y-91258247D01*
X129915780Y-91258249D01*
X129867116Y-91361901D01*
X129820060Y-91415064D01*
X129751732Y-91434346D01*
X129731178Y-91432438D01*
X129724294Y-91431224D01*
X129713570Y-91428847D01*
X129677162Y-91419091D01*
X129666177Y-91420052D01*
X129666175Y-91420052D01*
X129639627Y-91422375D01*
X129628645Y-91422855D01*
X128126500Y-91422855D01*
X128058379Y-91402853D01*
X128011886Y-91349197D01*
X128000500Y-91296855D01*
X128000500Y-91231537D01*
X128000980Y-91220555D01*
X128003303Y-91194007D01*
X128003303Y-91194005D01*
X128004264Y-91183020D01*
X127994505Y-91146601D01*
X127992130Y-91135885D01*
X127989340Y-91120062D01*
X127985588Y-91098782D01*
X127980077Y-91089237D01*
X127978885Y-91085961D01*
X127977408Y-91082793D01*
X127974554Y-91072143D01*
X127952945Y-91041283D01*
X127947039Y-91032012D01*
X127933707Y-91008921D01*
X127928194Y-90999372D01*
X127899317Y-90975142D01*
X127891215Y-90967716D01*
X127557284Y-90633785D01*
X127549857Y-90625681D01*
X127532714Y-90605251D01*
X127532715Y-90605251D01*
X127525628Y-90596806D01*
X127516079Y-90591293D01*
X127492988Y-90577961D01*
X127483717Y-90572055D01*
X127461888Y-90556770D01*
X127452857Y-90550446D01*
X127442207Y-90547592D01*
X127439039Y-90546115D01*
X127435763Y-90544923D01*
X127426218Y-90539412D01*
X127392474Y-90533462D01*
X127389115Y-90532870D01*
X127378388Y-90530492D01*
X127341980Y-90520736D01*
X127330995Y-90521697D01*
X127330993Y-90521697D01*
X127304445Y-90524020D01*
X127293463Y-90524500D01*
X125387017Y-90524500D01*
X125318896Y-90504498D01*
X125297922Y-90487595D01*
X125204767Y-90394440D01*
X128644901Y-90394440D01*
X128646065Y-90403342D01*
X128646065Y-90403345D01*
X128660468Y-90513489D01*
X128660469Y-90513493D01*
X128661633Y-90522394D01*
X128713605Y-90640510D01*
X128796639Y-90739291D01*
X128904060Y-90810796D01*
X129027233Y-90849278D01*
X129036203Y-90849442D01*
X129036207Y-90849443D01*
X129094942Y-90850519D01*
X129156255Y-90851643D01*
X129233388Y-90830614D01*
X129272092Y-90820062D01*
X129272093Y-90820062D01*
X129280755Y-90817700D01*
X129288405Y-90813003D01*
X129288407Y-90813002D01*
X129383072Y-90754878D01*
X129383075Y-90754875D01*
X129390724Y-90750179D01*
X129396750Y-90743522D01*
X129471300Y-90661161D01*
X129471303Y-90661157D01*
X129477322Y-90654507D01*
X129533588Y-90538375D01*
X129535923Y-90524500D01*
X129554190Y-90415917D01*
X129554997Y-90411120D01*
X129555133Y-90400000D01*
X129539991Y-90294266D01*
X129538112Y-90281145D01*
X129538111Y-90281142D01*
X129536839Y-90272259D01*
X129530724Y-90258809D01*
X129487145Y-90162962D01*
X129487143Y-90162959D01*
X129483428Y-90154788D01*
X129419516Y-90080614D01*
X129405051Y-90063826D01*
X129405049Y-90063824D01*
X129399193Y-90057028D01*
X129290906Y-89986841D01*
X129282311Y-89984271D01*
X129282310Y-89984270D01*
X129175874Y-89952438D01*
X129175872Y-89952438D01*
X129167273Y-89949866D01*
X129158298Y-89949811D01*
X129158297Y-89949811D01*
X129103641Y-89949477D01*
X129038231Y-89949078D01*
X128976193Y-89966808D01*
X128922786Y-89982072D01*
X128922784Y-89982073D01*
X128914155Y-89984539D01*
X128805019Y-90053399D01*
X128719596Y-90150122D01*
X128715782Y-90158245D01*
X128715781Y-90158247D01*
X128704493Y-90182290D01*
X128664754Y-90266932D01*
X128661273Y-90289291D01*
X128646282Y-90385567D01*
X128646282Y-90385571D01*
X128644901Y-90394440D01*
X125204767Y-90394440D01*
X124544114Y-89733787D01*
X124536688Y-89725684D01*
X124519540Y-89705249D01*
X124519539Y-89705248D01*
X124512455Y-89696806D01*
X124502911Y-89691296D01*
X124502910Y-89691295D01*
X124479815Y-89677961D01*
X124470544Y-89672055D01*
X124448715Y-89656770D01*
X124439684Y-89650446D01*
X124429034Y-89647592D01*
X124425866Y-89646115D01*
X124422590Y-89644923D01*
X124413045Y-89639412D01*
X124376554Y-89632978D01*
X124375942Y-89632870D01*
X124365211Y-89630491D01*
X124363822Y-89630119D01*
X124333596Y-89622019D01*
X124297679Y-89606047D01*
X124286202Y-89598608D01*
X124190906Y-89536841D01*
X124182311Y-89534271D01*
X124182310Y-89534270D01*
X124075874Y-89502438D01*
X124075872Y-89502438D01*
X124067273Y-89499866D01*
X124058298Y-89499811D01*
X124058297Y-89499811D01*
X124003641Y-89499477D01*
X123938231Y-89499078D01*
X123876193Y-89516808D01*
X123822786Y-89532072D01*
X123822784Y-89532073D01*
X123814155Y-89534539D01*
X123705019Y-89603399D01*
X123699076Y-89610128D01*
X123699075Y-89610129D01*
X123668925Y-89644268D01*
X123619596Y-89700122D01*
X123615782Y-89708245D01*
X123615781Y-89708247D01*
X123601468Y-89738734D01*
X123564754Y-89816932D01*
X123563374Y-89825798D01*
X123546282Y-89935567D01*
X123546282Y-89935571D01*
X123544901Y-89944440D01*
X115400000Y-89944440D01*
X115400000Y-88994440D01*
X116144901Y-88994440D01*
X116146065Y-89003342D01*
X116146065Y-89003345D01*
X116160468Y-89113489D01*
X116160469Y-89113493D01*
X116161633Y-89122394D01*
X116213605Y-89240510D01*
X116219382Y-89247383D01*
X116219383Y-89247384D01*
X116264096Y-89300576D01*
X116296639Y-89339291D01*
X116404060Y-89410796D01*
X116484432Y-89435906D01*
X116506201Y-89442707D01*
X116527233Y-89449278D01*
X116536203Y-89449442D01*
X116536207Y-89449443D01*
X116594942Y-89450519D01*
X116656255Y-89451643D01*
X116694097Y-89441326D01*
X116765079Y-89442707D01*
X116824048Y-89482245D01*
X116842565Y-89512142D01*
X116850408Y-89529966D01*
X116856185Y-89536839D01*
X116856186Y-89536840D01*
X116912135Y-89603399D01*
X116933442Y-89628747D01*
X116940919Y-89633724D01*
X117007376Y-89677961D01*
X117040863Y-89700252D01*
X117104271Y-89720062D01*
X117148202Y-89733787D01*
X117164036Y-89738734D01*
X117173006Y-89738898D01*
X117173010Y-89738899D01*
X117231745Y-89739975D01*
X117293058Y-89741099D01*
X117394388Y-89713473D01*
X117408895Y-89709518D01*
X117408896Y-89709518D01*
X117417558Y-89707156D01*
X117425208Y-89702459D01*
X117425210Y-89702458D01*
X117519875Y-89644334D01*
X117519878Y-89644331D01*
X117527527Y-89639635D01*
X117533553Y-89632978D01*
X117608103Y-89550617D01*
X117608106Y-89550613D01*
X117614125Y-89543963D01*
X117670391Y-89427831D01*
X117672096Y-89417700D01*
X117690993Y-89305373D01*
X117691800Y-89300576D01*
X117691875Y-89294440D01*
X130644901Y-89294440D01*
X130646065Y-89303342D01*
X130646065Y-89303345D01*
X130660468Y-89413489D01*
X130660469Y-89413493D01*
X130661633Y-89422394D01*
X130668665Y-89438375D01*
X130708966Y-89529966D01*
X130713605Y-89540510D01*
X130719382Y-89547383D01*
X130719383Y-89547384D01*
X130769519Y-89607028D01*
X130796639Y-89639291D01*
X130845860Y-89672055D01*
X130892242Y-89702929D01*
X130904060Y-89710796D01*
X130984915Y-89736057D01*
X131000526Y-89740934D01*
X131027233Y-89749278D01*
X131036203Y-89749442D01*
X131036207Y-89749443D01*
X131094942Y-89750519D01*
X131156255Y-89751643D01*
X131236054Y-89729887D01*
X131272092Y-89720062D01*
X131272093Y-89720062D01*
X131280755Y-89717700D01*
X131288405Y-89713003D01*
X131288407Y-89713002D01*
X131383072Y-89654878D01*
X131383075Y-89654875D01*
X131390724Y-89650179D01*
X131400470Y-89639412D01*
X131471300Y-89561161D01*
X131471303Y-89561157D01*
X131477322Y-89554507D01*
X131533588Y-89438375D01*
X131537067Y-89417700D01*
X131554190Y-89315917D01*
X131554997Y-89311120D01*
X131555133Y-89300000D01*
X131536839Y-89172259D01*
X131483428Y-89054788D01*
X131399193Y-88957028D01*
X131290906Y-88886841D01*
X131282311Y-88884271D01*
X131282310Y-88884270D01*
X131175874Y-88852438D01*
X131175872Y-88852438D01*
X131167273Y-88849866D01*
X131158298Y-88849811D01*
X131158297Y-88849811D01*
X131103641Y-88849477D01*
X131038231Y-88849078D01*
X131026475Y-88852438D01*
X130922786Y-88882072D01*
X130922784Y-88882073D01*
X130914155Y-88884539D01*
X130805019Y-88953399D01*
X130719596Y-89050122D01*
X130715782Y-89058245D01*
X130715781Y-89058247D01*
X130689845Y-89113489D01*
X130664754Y-89166932D01*
X130663374Y-89175798D01*
X130646282Y-89285567D01*
X130646282Y-89285571D01*
X130644901Y-89294440D01*
X117691875Y-89294440D01*
X117691936Y-89289456D01*
X117673642Y-89161715D01*
X117626598Y-89058247D01*
X117623948Y-89052418D01*
X117623946Y-89052415D01*
X117620231Y-89044244D01*
X117614372Y-89037445D01*
X117614370Y-89037441D01*
X117592850Y-89012467D01*
X117563536Y-88947805D01*
X117562303Y-88930219D01*
X117562303Y-88563386D01*
X117582305Y-88495265D01*
X117599208Y-88474291D01*
X117979059Y-88094440D01*
X121444901Y-88094440D01*
X121446065Y-88103342D01*
X121446065Y-88103345D01*
X121460468Y-88213489D01*
X121460469Y-88213493D01*
X121461633Y-88222394D01*
X121513605Y-88340510D01*
X121519382Y-88347383D01*
X121519383Y-88347384D01*
X121560316Y-88396080D01*
X121596639Y-88439291D01*
X121704060Y-88510796D01*
X121827233Y-88549278D01*
X121836203Y-88549442D01*
X121836207Y-88549443D01*
X121894942Y-88550519D01*
X121956255Y-88551643D01*
X122018505Y-88534672D01*
X122072092Y-88520062D01*
X122072093Y-88520062D01*
X122080755Y-88517700D01*
X122088405Y-88513003D01*
X122088407Y-88513002D01*
X122183072Y-88454878D01*
X122183075Y-88454875D01*
X122190724Y-88450179D01*
X122196750Y-88443522D01*
X122271300Y-88361161D01*
X122271303Y-88361157D01*
X122277322Y-88354507D01*
X122333588Y-88238375D01*
X122344509Y-88173464D01*
X122354190Y-88115917D01*
X122354997Y-88111120D01*
X122355133Y-88100000D01*
X122354337Y-88094440D01*
X130644901Y-88094440D01*
X130646065Y-88103342D01*
X130646065Y-88103345D01*
X130660468Y-88213489D01*
X130660469Y-88213493D01*
X130661633Y-88222394D01*
X130713605Y-88340510D01*
X130719382Y-88347383D01*
X130719383Y-88347384D01*
X130760316Y-88396080D01*
X130796639Y-88439291D01*
X130904060Y-88510796D01*
X131027233Y-88549278D01*
X131036203Y-88549442D01*
X131036207Y-88549443D01*
X131094942Y-88550519D01*
X131156255Y-88551643D01*
X131218505Y-88534672D01*
X131272092Y-88520062D01*
X131272093Y-88520062D01*
X131280755Y-88517700D01*
X131288405Y-88513003D01*
X131288407Y-88513002D01*
X131383072Y-88454878D01*
X131383075Y-88454875D01*
X131390724Y-88450179D01*
X131396750Y-88443522D01*
X131471300Y-88361161D01*
X131471303Y-88361157D01*
X131477322Y-88354507D01*
X131533588Y-88238375D01*
X131544509Y-88173464D01*
X131554190Y-88115917D01*
X131554997Y-88111120D01*
X131555133Y-88100000D01*
X131536839Y-87972259D01*
X131483428Y-87854788D01*
X131399193Y-87757028D01*
X131290906Y-87686841D01*
X131282311Y-87684271D01*
X131282310Y-87684270D01*
X131175874Y-87652438D01*
X131175872Y-87652438D01*
X131167273Y-87649866D01*
X131158298Y-87649811D01*
X131158297Y-87649811D01*
X131103641Y-87649477D01*
X131038231Y-87649078D01*
X130976193Y-87666809D01*
X130922786Y-87682072D01*
X130922784Y-87682073D01*
X130914155Y-87684539D01*
X130805019Y-87753399D01*
X130719596Y-87850122D01*
X130715782Y-87858245D01*
X130715781Y-87858247D01*
X130689794Y-87913598D01*
X130664754Y-87966932D01*
X130663374Y-87975798D01*
X130646282Y-88085567D01*
X130646282Y-88085571D01*
X130644901Y-88094440D01*
X122354337Y-88094440D01*
X122336839Y-87972259D01*
X122283428Y-87854788D01*
X122199193Y-87757028D01*
X122090906Y-87686841D01*
X122082311Y-87684271D01*
X122082310Y-87684270D01*
X121975874Y-87652438D01*
X121975872Y-87652438D01*
X121967273Y-87649866D01*
X121958298Y-87649811D01*
X121958297Y-87649811D01*
X121903641Y-87649477D01*
X121838231Y-87649078D01*
X121776193Y-87666809D01*
X121722786Y-87682072D01*
X121722784Y-87682073D01*
X121714155Y-87684539D01*
X121605019Y-87753399D01*
X121519596Y-87850122D01*
X121515782Y-87858245D01*
X121515781Y-87858247D01*
X121489794Y-87913598D01*
X121464754Y-87966932D01*
X121463374Y-87975798D01*
X121446282Y-88085567D01*
X121446282Y-88085571D01*
X121444901Y-88094440D01*
X117979059Y-88094440D01*
X118667062Y-87406437D01*
X118729374Y-87372411D01*
X118800189Y-87377476D01*
X118857025Y-87420023D01*
X118871485Y-87444784D01*
X118898342Y-87505821D01*
X118901709Y-87513473D01*
X118913605Y-87540510D01*
X118919382Y-87547383D01*
X118919383Y-87547384D01*
X118922963Y-87551643D01*
X118996639Y-87639291D01*
X119104060Y-87710796D01*
X119227233Y-87749278D01*
X119236203Y-87749442D01*
X119236207Y-87749443D01*
X119294942Y-87750519D01*
X119356255Y-87751643D01*
X119418505Y-87734672D01*
X119472092Y-87720062D01*
X119472093Y-87720062D01*
X119480755Y-87717700D01*
X119488405Y-87713003D01*
X119488407Y-87713002D01*
X119583072Y-87654878D01*
X119583075Y-87654875D01*
X119590724Y-87650179D01*
X119596750Y-87643522D01*
X119671300Y-87561161D01*
X119671303Y-87561157D01*
X119677322Y-87554507D01*
X119733588Y-87438375D01*
X119736676Y-87420023D01*
X119754190Y-87315917D01*
X119754997Y-87311120D01*
X119755133Y-87300000D01*
X119742744Y-87213489D01*
X119738112Y-87181145D01*
X119738111Y-87181142D01*
X119736839Y-87172259D01*
X119711222Y-87115917D01*
X119701457Y-87094440D01*
X131744901Y-87094440D01*
X131746065Y-87103342D01*
X131746065Y-87103345D01*
X131760468Y-87213489D01*
X131760469Y-87213493D01*
X131761633Y-87222394D01*
X131813605Y-87340510D01*
X131819382Y-87347383D01*
X131819383Y-87347384D01*
X131888431Y-87429526D01*
X131896639Y-87439291D01*
X132004060Y-87510796D01*
X132072858Y-87532290D01*
X132118124Y-87546432D01*
X132127233Y-87549278D01*
X132136203Y-87549442D01*
X132136207Y-87549443D01*
X132194942Y-87550519D01*
X132256255Y-87551643D01*
X132327240Y-87532290D01*
X132372092Y-87520062D01*
X132372093Y-87520062D01*
X132380755Y-87517700D01*
X132388405Y-87513003D01*
X132388407Y-87513002D01*
X132483072Y-87454878D01*
X132483075Y-87454875D01*
X132490724Y-87450179D01*
X132496750Y-87443522D01*
X132571300Y-87361161D01*
X132571303Y-87361157D01*
X132577322Y-87354507D01*
X132633588Y-87238375D01*
X132639224Y-87204878D01*
X132654190Y-87115917D01*
X132654997Y-87111120D01*
X132655133Y-87100000D01*
X132642640Y-87012765D01*
X132638112Y-86981145D01*
X132638111Y-86981142D01*
X132636839Y-86972259D01*
X132615700Y-86925766D01*
X132587145Y-86862962D01*
X132587143Y-86862959D01*
X132583428Y-86854788D01*
X132499193Y-86757028D01*
X132390906Y-86686841D01*
X132337668Y-86670919D01*
X132278135Y-86632236D01*
X132248966Y-86567508D01*
X132259422Y-86497286D01*
X132306183Y-86443864D01*
X132340630Y-86428639D01*
X132380755Y-86417700D01*
X132388405Y-86413003D01*
X132388407Y-86413002D01*
X132483072Y-86354878D01*
X132483075Y-86354875D01*
X132490724Y-86350179D01*
X132496750Y-86343522D01*
X132571300Y-86261161D01*
X132571303Y-86261157D01*
X132577322Y-86254507D01*
X132633588Y-86138375D01*
X132637067Y-86117700D01*
X132654190Y-86015917D01*
X132654997Y-86011120D01*
X132655133Y-86000000D01*
X132642410Y-85911157D01*
X132638112Y-85881145D01*
X132638111Y-85881142D01*
X132636839Y-85872259D01*
X132630724Y-85858809D01*
X132587145Y-85762962D01*
X132587143Y-85762959D01*
X132583428Y-85754788D01*
X132549935Y-85715917D01*
X132505051Y-85663826D01*
X132505049Y-85663824D01*
X132499193Y-85657028D01*
X132390906Y-85586841D01*
X132382311Y-85584271D01*
X132382310Y-85584270D01*
X132275874Y-85552438D01*
X132275872Y-85552438D01*
X132267273Y-85549866D01*
X132258298Y-85549811D01*
X132258297Y-85549811D01*
X132203641Y-85549477D01*
X132138231Y-85549078D01*
X132085705Y-85564090D01*
X132022786Y-85582072D01*
X132022784Y-85582073D01*
X132014155Y-85584539D01*
X131905019Y-85653399D01*
X131899076Y-85660128D01*
X131899075Y-85660129D01*
X131868925Y-85694268D01*
X131819596Y-85750122D01*
X131815782Y-85758245D01*
X131815781Y-85758247D01*
X131811343Y-85767700D01*
X131764754Y-85866932D01*
X131758904Y-85904507D01*
X131746282Y-85985567D01*
X131746282Y-85985571D01*
X131744901Y-85994440D01*
X131746065Y-86003342D01*
X131746065Y-86003345D01*
X131760468Y-86113489D01*
X131760469Y-86113493D01*
X131761633Y-86122394D01*
X131773535Y-86149443D01*
X131802541Y-86215364D01*
X131813605Y-86240510D01*
X131819382Y-86247383D01*
X131819383Y-86247384D01*
X131872686Y-86310796D01*
X131896639Y-86339291D01*
X132004060Y-86410796D01*
X132012627Y-86413473D01*
X132012628Y-86413473D01*
X132064331Y-86429626D01*
X132123387Y-86469032D01*
X132151764Y-86534111D01*
X132140451Y-86604201D01*
X132093042Y-86657048D01*
X132061380Y-86671042D01*
X132022788Y-86682071D01*
X132022784Y-86682073D01*
X132014155Y-86684539D01*
X132006565Y-86689328D01*
X131919491Y-86744268D01*
X131905019Y-86753399D01*
X131819596Y-86850122D01*
X131815782Y-86858245D01*
X131815781Y-86858247D01*
X131800065Y-86891721D01*
X131764754Y-86966932D01*
X131760158Y-86996450D01*
X131746282Y-87085567D01*
X131746282Y-87085571D01*
X131744901Y-87094440D01*
X119701457Y-87094440D01*
X119687145Y-87062962D01*
X119687143Y-87062959D01*
X119683428Y-87054788D01*
X119626203Y-86988375D01*
X119605051Y-86963826D01*
X119605049Y-86963824D01*
X119599193Y-86957028D01*
X119490906Y-86886841D01*
X119482312Y-86884271D01*
X119482308Y-86884269D01*
X119459004Y-86877300D01*
X119399470Y-86838619D01*
X119370300Y-86773891D01*
X119380755Y-86703669D01*
X119406011Y-86667488D01*
X119716215Y-86357284D01*
X119724319Y-86349857D01*
X119744749Y-86332714D01*
X119753194Y-86325628D01*
X119760212Y-86313473D01*
X119772039Y-86292988D01*
X119777945Y-86283717D01*
X119793230Y-86261888D01*
X119799554Y-86252857D01*
X119802408Y-86242207D01*
X119803885Y-86239039D01*
X119805077Y-86235763D01*
X119810588Y-86226218D01*
X119817130Y-86189115D01*
X119819509Y-86178383D01*
X119824905Y-86158247D01*
X119829264Y-86141980D01*
X119828175Y-86129526D01*
X119825980Y-86104445D01*
X119825500Y-86093463D01*
X119825500Y-86010315D01*
X119845502Y-85942194D01*
X119858080Y-85925765D01*
X119877322Y-85904507D01*
X119882199Y-85894440D01*
X127444901Y-85894440D01*
X127446065Y-85903342D01*
X127446065Y-85903345D01*
X127460468Y-86013489D01*
X127460469Y-86013493D01*
X127461633Y-86022394D01*
X127475926Y-86054878D01*
X127501716Y-86113489D01*
X127513605Y-86140510D01*
X127519382Y-86147383D01*
X127519383Y-86147384D01*
X127576526Y-86215364D01*
X127596639Y-86239291D01*
X127704060Y-86310796D01*
X127827233Y-86349278D01*
X127836203Y-86349442D01*
X127836207Y-86349443D01*
X127894942Y-86350519D01*
X127956255Y-86351643D01*
X128051676Y-86325628D01*
X128072092Y-86320062D01*
X128072093Y-86320062D01*
X128080755Y-86317700D01*
X128088405Y-86313003D01*
X128088407Y-86313002D01*
X128183072Y-86254878D01*
X128183075Y-86254875D01*
X128190724Y-86250179D01*
X128196750Y-86243522D01*
X128271300Y-86161161D01*
X128271303Y-86161157D01*
X128277322Y-86154507D01*
X128281235Y-86146431D01*
X128285653Y-86137313D01*
X128333357Y-86084731D01*
X128401916Y-86066287D01*
X128468863Y-86087367D01*
X128504060Y-86110796D01*
X128592335Y-86138375D01*
X128608400Y-86143394D01*
X128627233Y-86149278D01*
X128636203Y-86149442D01*
X128636207Y-86149443D01*
X128694942Y-86150519D01*
X128756255Y-86151643D01*
X128827240Y-86132290D01*
X128872092Y-86120062D01*
X128872093Y-86120062D01*
X128880755Y-86117700D01*
X128888405Y-86113003D01*
X128888407Y-86113002D01*
X128983072Y-86054878D01*
X128983075Y-86054875D01*
X128990724Y-86050179D01*
X128996750Y-86043522D01*
X129071300Y-85961161D01*
X129071303Y-85961157D01*
X129077322Y-85954507D01*
X129133588Y-85838375D01*
X129139796Y-85801478D01*
X129154190Y-85715917D01*
X129154997Y-85711120D01*
X129155065Y-85705530D01*
X129155074Y-85704859D01*
X129155074Y-85704853D01*
X129155133Y-85700000D01*
X129147026Y-85643394D01*
X129138112Y-85581145D01*
X129138111Y-85581142D01*
X129136839Y-85572259D01*
X129127421Y-85551545D01*
X129087145Y-85462962D01*
X129087143Y-85462959D01*
X129083428Y-85454788D01*
X129043326Y-85408247D01*
X129005051Y-85363826D01*
X129005049Y-85363824D01*
X128999193Y-85357028D01*
X128890906Y-85286841D01*
X128882311Y-85284271D01*
X128882310Y-85284270D01*
X128775874Y-85252438D01*
X128775872Y-85252438D01*
X128767273Y-85249866D01*
X128758298Y-85249811D01*
X128758297Y-85249811D01*
X128703641Y-85249477D01*
X128638231Y-85249078D01*
X128626475Y-85252438D01*
X128522786Y-85282072D01*
X128522784Y-85282073D01*
X128514155Y-85284539D01*
X128405019Y-85353399D01*
X128399076Y-85360128D01*
X128399075Y-85360129D01*
X128359634Y-85404788D01*
X128319596Y-85450122D01*
X128315780Y-85458250D01*
X128315778Y-85458253D01*
X128314403Y-85461180D01*
X128312277Y-85463582D01*
X128310852Y-85465751D01*
X128310539Y-85465545D01*
X128267345Y-85514340D01*
X128199016Y-85533619D01*
X128131820Y-85513359D01*
X128098438Y-85491722D01*
X128098433Y-85491720D01*
X128090906Y-85486841D01*
X128082311Y-85484271D01*
X128082310Y-85484270D01*
X127975874Y-85452438D01*
X127975872Y-85452438D01*
X127967273Y-85449866D01*
X127958298Y-85449811D01*
X127958297Y-85449811D01*
X127903641Y-85449477D01*
X127838231Y-85449078D01*
X127780614Y-85465545D01*
X127722786Y-85482072D01*
X127722784Y-85482073D01*
X127714155Y-85484539D01*
X127605019Y-85553399D01*
X127599076Y-85560128D01*
X127599075Y-85560129D01*
X127571174Y-85591721D01*
X127519596Y-85650122D01*
X127515782Y-85658245D01*
X127515781Y-85658247D01*
X127496178Y-85700000D01*
X127464754Y-85766932D01*
X127455626Y-85825558D01*
X127446282Y-85885567D01*
X127446282Y-85885571D01*
X127444901Y-85894440D01*
X119882199Y-85894440D01*
X119933588Y-85788375D01*
X119937067Y-85767700D01*
X119954190Y-85665917D01*
X119954997Y-85661120D01*
X119955133Y-85650000D01*
X119942830Y-85564090D01*
X119938112Y-85531145D01*
X119938111Y-85531142D01*
X119936839Y-85522259D01*
X119933125Y-85514090D01*
X119887145Y-85412962D01*
X119887143Y-85412959D01*
X119883428Y-85404788D01*
X119848133Y-85363826D01*
X119831429Y-85344440D01*
X125194901Y-85344440D01*
X125196065Y-85353342D01*
X125196065Y-85353345D01*
X125210468Y-85463489D01*
X125210469Y-85463493D01*
X125211633Y-85472394D01*
X125263605Y-85590510D01*
X125269382Y-85597383D01*
X125269383Y-85597384D01*
X125313714Y-85650122D01*
X125346639Y-85689291D01*
X125354116Y-85694268D01*
X125438025Y-85750122D01*
X125454060Y-85760796D01*
X125577233Y-85799278D01*
X125586203Y-85799442D01*
X125586207Y-85799443D01*
X125644942Y-85800519D01*
X125706255Y-85801643D01*
X125787378Y-85779526D01*
X125822092Y-85770062D01*
X125822093Y-85770062D01*
X125830755Y-85767700D01*
X125838405Y-85763003D01*
X125838407Y-85763002D01*
X125933072Y-85704878D01*
X125933075Y-85704875D01*
X125940724Y-85700179D01*
X125946750Y-85693522D01*
X126021300Y-85611161D01*
X126021303Y-85611157D01*
X126027322Y-85604507D01*
X126083588Y-85488375D01*
X126087864Y-85462962D01*
X126104190Y-85365917D01*
X126104997Y-85361120D01*
X126105133Y-85350000D01*
X126090680Y-85249078D01*
X126088112Y-85231145D01*
X126088111Y-85231142D01*
X126086839Y-85222259D01*
X126077421Y-85201545D01*
X126037145Y-85112962D01*
X126037143Y-85112959D01*
X126033428Y-85104788D01*
X125949193Y-85007028D01*
X125840906Y-84936841D01*
X125832311Y-84934271D01*
X125832310Y-84934270D01*
X125725874Y-84902438D01*
X125725872Y-84902438D01*
X125717273Y-84899866D01*
X125708298Y-84899811D01*
X125708297Y-84899811D01*
X125653641Y-84899477D01*
X125588231Y-84899078D01*
X125576475Y-84902438D01*
X125472786Y-84932072D01*
X125472784Y-84932073D01*
X125464155Y-84934539D01*
X125355019Y-85003399D01*
X125269596Y-85100122D01*
X125265782Y-85108245D01*
X125265781Y-85108247D01*
X125239794Y-85163598D01*
X125214754Y-85216932D01*
X125209635Y-85249811D01*
X125196282Y-85335567D01*
X125196282Y-85335571D01*
X125194901Y-85344440D01*
X119831429Y-85344440D01*
X119805051Y-85313826D01*
X119805049Y-85313824D01*
X119799193Y-85307028D01*
X119690906Y-85236841D01*
X119682311Y-85234271D01*
X119682310Y-85234270D01*
X119575874Y-85202438D01*
X119575872Y-85202438D01*
X119567273Y-85199866D01*
X119558298Y-85199811D01*
X119558297Y-85199811D01*
X119503641Y-85199477D01*
X119438231Y-85199078D01*
X119426475Y-85202438D01*
X119322786Y-85232072D01*
X119322784Y-85232073D01*
X119314155Y-85234539D01*
X119205019Y-85303399D01*
X119119596Y-85400122D01*
X119115782Y-85408245D01*
X119115781Y-85408247D01*
X119099280Y-85443394D01*
X119064754Y-85516932D01*
X119056969Y-85566932D01*
X119046282Y-85635567D01*
X119046282Y-85635571D01*
X119044901Y-85644440D01*
X119046065Y-85653342D01*
X119046065Y-85653345D01*
X119060468Y-85763489D01*
X119060469Y-85763493D01*
X119061633Y-85772394D01*
X119113605Y-85890510D01*
X119118838Y-85896735D01*
X119137738Y-85964729D01*
X119116752Y-86032553D01*
X119100846Y-86052001D01*
X118910319Y-86242528D01*
X118848007Y-86276554D01*
X118777192Y-86271489D01*
X118720356Y-86228942D01*
X118706523Y-86205583D01*
X118687146Y-86162964D01*
X118687144Y-86162961D01*
X118683428Y-86154788D01*
X118635323Y-86098959D01*
X118605051Y-86063826D01*
X118605049Y-86063824D01*
X118599193Y-86057028D01*
X118490906Y-85986841D01*
X118482311Y-85984271D01*
X118482310Y-85984270D01*
X118375874Y-85952438D01*
X118375872Y-85952438D01*
X118367273Y-85949866D01*
X118358298Y-85949811D01*
X118358297Y-85949811D01*
X118303641Y-85949477D01*
X118238231Y-85949078D01*
X118193861Y-85961759D01*
X118122786Y-85982072D01*
X118122784Y-85982073D01*
X118114155Y-85984539D01*
X118005019Y-86053399D01*
X117999076Y-86060128D01*
X117999075Y-86060129D01*
X117964782Y-86098959D01*
X117919596Y-86150122D01*
X117915782Y-86158245D01*
X117915781Y-86158247D01*
X117903832Y-86183698D01*
X117864754Y-86266932D01*
X117857581Y-86313002D01*
X117846282Y-86385567D01*
X117846282Y-86385571D01*
X117844901Y-86394440D01*
X117846065Y-86403342D01*
X117846065Y-86403345D01*
X117860468Y-86513489D01*
X117860469Y-86513493D01*
X117861633Y-86522394D01*
X117913605Y-86640510D01*
X117919382Y-86647383D01*
X117919383Y-86647384D01*
X117990859Y-86732415D01*
X117996639Y-86739291D01*
X118104060Y-86810796D01*
X118107316Y-86811813D01*
X118158104Y-86857322D01*
X118176970Y-86925766D01*
X118155837Y-86993545D01*
X118140082Y-87012765D01*
X117020588Y-88132259D01*
X117012484Y-88139686D01*
X116983609Y-88163915D01*
X116978096Y-88173464D01*
X116964764Y-88196555D01*
X116958858Y-88205826D01*
X116937249Y-88236686D01*
X116934395Y-88247336D01*
X116932918Y-88250504D01*
X116931726Y-88253780D01*
X116926215Y-88263325D01*
X116920265Y-88297069D01*
X116919673Y-88300428D01*
X116917295Y-88311155D01*
X116907539Y-88347563D01*
X116908500Y-88358548D01*
X116908500Y-88358550D01*
X116910823Y-88385098D01*
X116911303Y-88396080D01*
X116911303Y-88453651D01*
X116891301Y-88521772D01*
X116837645Y-88568265D01*
X116767371Y-88578369D01*
X116749200Y-88574368D01*
X116675874Y-88552438D01*
X116675872Y-88552438D01*
X116667273Y-88549866D01*
X116658298Y-88549811D01*
X116658297Y-88549811D01*
X116603641Y-88549477D01*
X116538231Y-88549078D01*
X116526475Y-88552438D01*
X116422786Y-88582072D01*
X116422784Y-88582073D01*
X116414155Y-88584539D01*
X116305019Y-88653399D01*
X116219596Y-88750122D01*
X116164754Y-88866932D01*
X116155626Y-88925558D01*
X116146282Y-88985567D01*
X116146282Y-88985571D01*
X116144901Y-88994440D01*
X115400000Y-88994440D01*
X115400000Y-86844440D01*
X115744901Y-86844440D01*
X115746065Y-86853342D01*
X115746065Y-86853345D01*
X115760468Y-86963489D01*
X115760469Y-86963493D01*
X115761633Y-86972394D01*
X115813605Y-87090510D01*
X115819382Y-87097383D01*
X115819383Y-87097384D01*
X115890859Y-87182415D01*
X115896639Y-87189291D01*
X116004060Y-87260796D01*
X116092938Y-87288564D01*
X116111748Y-87294440D01*
X116127233Y-87299278D01*
X116136203Y-87299442D01*
X116136207Y-87299443D01*
X116194942Y-87300519D01*
X116256255Y-87301643D01*
X116318505Y-87284672D01*
X116372092Y-87270062D01*
X116372093Y-87270062D01*
X116380755Y-87267700D01*
X116388405Y-87263003D01*
X116388407Y-87263002D01*
X116483072Y-87204878D01*
X116483075Y-87204875D01*
X116490724Y-87200179D01*
X116496750Y-87193522D01*
X116571300Y-87111161D01*
X116571303Y-87111157D01*
X116577322Y-87104507D01*
X116633588Y-86988375D01*
X116636300Y-86972259D01*
X116654190Y-86865917D01*
X116654997Y-86861120D01*
X116655133Y-86850000D01*
X116642792Y-86763826D01*
X116638112Y-86731145D01*
X116638111Y-86731142D01*
X116636839Y-86722259D01*
X116621866Y-86689328D01*
X116587145Y-86612962D01*
X116587143Y-86612959D01*
X116583428Y-86604788D01*
X116519516Y-86530614D01*
X116505051Y-86513826D01*
X116505049Y-86513824D01*
X116499193Y-86507028D01*
X116390906Y-86436841D01*
X116382311Y-86434271D01*
X116382310Y-86434270D01*
X116275874Y-86402438D01*
X116275872Y-86402438D01*
X116267273Y-86399866D01*
X116258298Y-86399811D01*
X116258297Y-86399811D01*
X116203641Y-86399477D01*
X116138231Y-86399078D01*
X116089512Y-86413002D01*
X116022786Y-86432072D01*
X116022784Y-86432073D01*
X116014155Y-86434539D01*
X115905019Y-86503399D01*
X115819596Y-86600122D01*
X115815782Y-86608245D01*
X115815781Y-86608247D01*
X115804493Y-86632290D01*
X115764754Y-86716932D01*
X115761273Y-86739291D01*
X115746282Y-86835567D01*
X115746282Y-86835571D01*
X115744901Y-86844440D01*
X115400000Y-86844440D01*
X115400000Y-84194440D01*
X119844901Y-84194440D01*
X119846065Y-84203342D01*
X119846065Y-84203345D01*
X119860468Y-84313489D01*
X119860469Y-84313493D01*
X119861633Y-84322394D01*
X119913605Y-84440510D01*
X119996639Y-84539291D01*
X120104060Y-84610796D01*
X120227233Y-84649278D01*
X120236203Y-84649442D01*
X120236207Y-84649443D01*
X120294942Y-84650519D01*
X120356255Y-84651643D01*
X120418505Y-84634671D01*
X120472092Y-84620062D01*
X120472093Y-84620062D01*
X120480755Y-84617700D01*
X120488405Y-84613003D01*
X120488407Y-84613002D01*
X120583072Y-84554878D01*
X120583075Y-84554875D01*
X120590724Y-84550179D01*
X120605309Y-84534066D01*
X120665847Y-84496986D01*
X120736827Y-84498522D01*
X120782072Y-84528784D01*
X120784172Y-84526436D01*
X120790859Y-84532415D01*
X120796639Y-84539291D01*
X120904060Y-84610796D01*
X121027233Y-84649278D01*
X121036203Y-84649442D01*
X121036207Y-84649443D01*
X121094942Y-84650519D01*
X121156255Y-84651643D01*
X121218505Y-84634671D01*
X121272092Y-84620062D01*
X121272093Y-84620062D01*
X121280755Y-84617700D01*
X121288405Y-84613003D01*
X121288407Y-84613002D01*
X121383072Y-84554878D01*
X121383075Y-84554875D01*
X121390724Y-84550179D01*
X121396750Y-84543522D01*
X121471300Y-84461161D01*
X121471303Y-84461157D01*
X121477322Y-84454507D01*
X121533588Y-84338375D01*
X121554997Y-84211120D01*
X121555133Y-84200000D01*
X121536839Y-84072259D01*
X121530724Y-84058809D01*
X121487145Y-83962962D01*
X121487143Y-83962959D01*
X121483428Y-83954788D01*
X121399193Y-83857028D01*
X121400212Y-83856150D01*
X121367001Y-83804088D01*
X121367240Y-83733092D01*
X121405824Y-83673495D01*
X121422079Y-83661627D01*
X121440724Y-83650179D01*
X121446750Y-83643522D01*
X121521300Y-83561161D01*
X121521303Y-83561157D01*
X121527322Y-83554507D01*
X121583588Y-83438375D01*
X121604997Y-83311120D01*
X121605133Y-83300000D01*
X121593748Y-83220502D01*
X121588112Y-83181145D01*
X121588111Y-83181142D01*
X121586839Y-83172259D01*
X121580724Y-83158809D01*
X121537145Y-83062962D01*
X121537143Y-83062959D01*
X121533428Y-83054788D01*
X121487636Y-83001643D01*
X121455051Y-82963826D01*
X121455049Y-82963824D01*
X121449193Y-82957028D01*
X121340906Y-82886841D01*
X121332311Y-82884271D01*
X121332310Y-82884270D01*
X121225874Y-82852438D01*
X121225872Y-82852438D01*
X121217273Y-82849866D01*
X121208298Y-82849811D01*
X121208297Y-82849811D01*
X121153641Y-82849477D01*
X121088231Y-82849078D01*
X121076475Y-82852438D01*
X120972786Y-82882072D01*
X120972784Y-82882073D01*
X120964155Y-82884539D01*
X120956565Y-82889328D01*
X120888475Y-82932290D01*
X120855019Y-82953399D01*
X120849076Y-82960128D01*
X120849075Y-82960129D01*
X120819558Y-82993551D01*
X120759473Y-83031369D01*
X120688479Y-83030699D01*
X120629664Y-82992391D01*
X120605051Y-82963826D01*
X120605049Y-82963824D01*
X120599193Y-82957028D01*
X120490906Y-82886841D01*
X120482311Y-82884271D01*
X120482310Y-82884270D01*
X120375874Y-82852438D01*
X120375872Y-82852438D01*
X120367273Y-82849866D01*
X120358298Y-82849811D01*
X120358297Y-82849811D01*
X120303641Y-82849477D01*
X120238231Y-82849078D01*
X120226475Y-82852438D01*
X120122786Y-82882072D01*
X120122784Y-82882073D01*
X120114155Y-82884539D01*
X120106565Y-82889328D01*
X120038475Y-82932290D01*
X120005019Y-82953399D01*
X119999076Y-82960128D01*
X119999075Y-82960129D01*
X119970582Y-82992391D01*
X119919596Y-83050122D01*
X119915782Y-83058245D01*
X119915781Y-83058247D01*
X119893445Y-83105821D01*
X119864754Y-83166932D01*
X119856413Y-83220502D01*
X119846282Y-83285567D01*
X119846282Y-83285571D01*
X119844901Y-83294440D01*
X119846065Y-83303342D01*
X119846065Y-83303345D01*
X119860468Y-83413489D01*
X119860469Y-83413493D01*
X119861633Y-83422394D01*
X119913605Y-83540510D01*
X119996639Y-83639291D01*
X120004116Y-83644268D01*
X120004544Y-83644553D01*
X120004872Y-83644944D01*
X120010804Y-83650248D01*
X120010038Y-83651104D01*
X120050167Y-83698950D01*
X120059138Y-83769378D01*
X120028608Y-83833475D01*
X120016389Y-83845393D01*
X120012609Y-83848610D01*
X120005019Y-83853399D01*
X119919596Y-83950122D01*
X119915782Y-83958245D01*
X119915781Y-83958247D01*
X119900144Y-83991553D01*
X119864754Y-84066932D01*
X119863374Y-84075798D01*
X119846282Y-84185567D01*
X119846282Y-84185571D01*
X119844901Y-84194440D01*
X115400000Y-84194440D01*
X115400000Y-82882676D01*
X115420002Y-82814555D01*
X115473658Y-82768062D01*
X115543932Y-82757958D01*
X115608512Y-82787452D01*
X115641329Y-82831930D01*
X115666585Y-82889328D01*
X115689105Y-82940510D01*
X115694882Y-82947383D01*
X115694883Y-82947384D01*
X115750511Y-83013561D01*
X115772139Y-83039291D01*
X115879560Y-83110796D01*
X115954596Y-83134239D01*
X115991140Y-83145656D01*
X116002733Y-83149278D01*
X116011703Y-83149442D01*
X116011707Y-83149443D01*
X116070442Y-83150519D01*
X116131755Y-83151643D01*
X116195591Y-83134239D01*
X116247592Y-83120062D01*
X116247593Y-83120062D01*
X116256255Y-83117700D01*
X116263905Y-83113003D01*
X116263907Y-83113002D01*
X116358572Y-83054878D01*
X116358575Y-83054875D01*
X116366224Y-83050179D01*
X116372250Y-83043522D01*
X116446800Y-82961161D01*
X116446803Y-82961157D01*
X116452822Y-82954507D01*
X116509088Y-82838375D01*
X116513096Y-82814555D01*
X116529690Y-82715917D01*
X116530497Y-82711120D01*
X116530565Y-82705530D01*
X116530574Y-82704859D01*
X116530574Y-82704853D01*
X116530633Y-82700000D01*
X116517768Y-82610165D01*
X116513612Y-82581145D01*
X116513611Y-82581142D01*
X116512339Y-82572259D01*
X116507293Y-82561161D01*
X116462645Y-82462962D01*
X116462643Y-82462959D01*
X116458928Y-82454788D01*
X116419310Y-82408809D01*
X116380551Y-82363826D01*
X116380549Y-82363824D01*
X116374693Y-82357028D01*
X116278130Y-82294440D01*
X124744901Y-82294440D01*
X124746065Y-82303342D01*
X124746065Y-82303345D01*
X124760468Y-82413489D01*
X124760469Y-82413493D01*
X124761633Y-82422394D01*
X124813605Y-82540510D01*
X124819382Y-82547383D01*
X124819383Y-82547384D01*
X124867400Y-82604507D01*
X124896639Y-82639291D01*
X124904116Y-82644268D01*
X124978110Y-82693522D01*
X125004060Y-82710796D01*
X125127233Y-82749278D01*
X125136203Y-82749442D01*
X125136207Y-82749443D01*
X125194942Y-82750519D01*
X125256255Y-82751643D01*
X125318505Y-82734671D01*
X125372092Y-82720062D01*
X125372093Y-82720062D01*
X125380755Y-82717700D01*
X125388405Y-82713003D01*
X125388407Y-82713002D01*
X125483072Y-82654878D01*
X125483075Y-82654875D01*
X125490724Y-82650179D01*
X125496750Y-82643522D01*
X125571300Y-82561161D01*
X125571303Y-82561157D01*
X125577322Y-82554507D01*
X125633588Y-82438375D01*
X125636300Y-82422259D01*
X125654190Y-82315917D01*
X125654997Y-82311120D01*
X125655133Y-82300000D01*
X125645272Y-82231145D01*
X125638112Y-82181145D01*
X125638111Y-82181142D01*
X125636839Y-82172259D01*
X125633125Y-82164090D01*
X125587145Y-82062962D01*
X125587143Y-82062959D01*
X125583428Y-82054788D01*
X125499193Y-81957028D01*
X125390906Y-81886841D01*
X125382311Y-81884271D01*
X125382310Y-81884270D01*
X125275874Y-81852438D01*
X125275872Y-81852438D01*
X125267273Y-81849866D01*
X125258298Y-81849811D01*
X125258297Y-81849811D01*
X125203641Y-81849477D01*
X125138231Y-81849078D01*
X125076193Y-81866809D01*
X125022786Y-81882072D01*
X125022784Y-81882073D01*
X125014155Y-81884539D01*
X125006565Y-81889328D01*
X124919491Y-81944268D01*
X124905019Y-81953399D01*
X124819596Y-82050122D01*
X124815782Y-82058245D01*
X124815781Y-82058247D01*
X124808299Y-82074184D01*
X124764754Y-82166932D01*
X124756969Y-82216932D01*
X124746282Y-82285567D01*
X124746282Y-82285571D01*
X124744901Y-82294440D01*
X116278130Y-82294440D01*
X116266406Y-82286841D01*
X116257811Y-82284271D01*
X116257810Y-82284270D01*
X116151374Y-82252438D01*
X116151372Y-82252438D01*
X116142773Y-82249866D01*
X116133798Y-82249811D01*
X116133797Y-82249811D01*
X116079141Y-82249477D01*
X116013731Y-82249078D01*
X116001975Y-82252438D01*
X115898286Y-82282072D01*
X115898284Y-82282073D01*
X115889655Y-82284539D01*
X115780519Y-82353399D01*
X115695096Y-82450122D01*
X115691282Y-82458245D01*
X115691281Y-82458247D01*
X115645922Y-82554859D01*
X115640254Y-82566932D01*
X115636943Y-82565377D01*
X115607454Y-82610165D01*
X115542551Y-82638942D01*
X115472393Y-82628062D01*
X115419255Y-82580978D01*
X115400000Y-82514034D01*
X115400000Y-81527000D01*
X115420002Y-81458879D01*
X115473658Y-81412386D01*
X115526000Y-81401000D01*
X115999802Y-81401000D01*
X116000000Y-81401082D01*
X116000765Y-81400765D01*
X116001000Y-81400198D01*
X116001082Y-81400000D01*
X116001000Y-81399802D01*
X116001000Y-80533298D01*
X116021002Y-80465177D01*
X116074658Y-80418684D01*
X116144932Y-80408580D01*
X116209512Y-80438074D01*
X116223451Y-80452223D01*
X116274063Y-80512433D01*
X116296639Y-80539291D01*
X116404060Y-80610796D01*
X116472858Y-80632290D01*
X116518124Y-80646432D01*
X116527233Y-80649278D01*
X116536203Y-80649442D01*
X116536207Y-80649443D01*
X116594942Y-80650519D01*
X116656255Y-80651643D01*
X116747432Y-80626785D01*
X116772092Y-80620062D01*
X116772093Y-80620062D01*
X116780755Y-80617700D01*
X116788405Y-80613003D01*
X116788407Y-80613002D01*
X116883072Y-80554878D01*
X116883075Y-80554875D01*
X116890724Y-80550179D01*
X116896750Y-80543522D01*
X116971300Y-80461161D01*
X116971303Y-80461157D01*
X116977322Y-80454507D01*
X117033588Y-80338375D01*
X117037879Y-80312873D01*
X117054190Y-80215917D01*
X117054997Y-80211120D01*
X117055133Y-80200000D01*
X117042248Y-80110025D01*
X117038112Y-80081145D01*
X117038111Y-80081142D01*
X117036839Y-80072259D01*
X117027695Y-80052148D01*
X116987145Y-79962962D01*
X116987143Y-79962959D01*
X116983428Y-79954788D01*
X116936970Y-79900870D01*
X116905051Y-79863826D01*
X116905049Y-79863824D01*
X116899193Y-79857028D01*
X116882845Y-79846432D01*
X116819537Y-79805398D01*
X116773252Y-79751562D01*
X116763421Y-79681250D01*
X116793164Y-79616784D01*
X116822139Y-79592290D01*
X116890724Y-79550179D01*
X116896750Y-79543522D01*
X116971300Y-79461161D01*
X116971303Y-79461157D01*
X116977322Y-79454507D01*
X117033588Y-79338375D01*
X117047639Y-79254859D01*
X117054190Y-79215917D01*
X117054997Y-79211120D01*
X117055133Y-79200000D01*
X117045272Y-79131145D01*
X117038112Y-79081145D01*
X117038111Y-79081142D01*
X117036839Y-79072259D01*
X117030724Y-79058809D01*
X116987145Y-78962962D01*
X116987143Y-78962959D01*
X116983428Y-78954788D01*
X116938071Y-78902148D01*
X116905051Y-78863826D01*
X116905049Y-78863824D01*
X116899193Y-78857028D01*
X116875052Y-78841381D01*
X116861710Y-78832733D01*
X116815426Y-78778897D01*
X116805595Y-78708584D01*
X116835339Y-78644118D01*
X116895213Y-78605967D01*
X116930242Y-78601000D01*
X117669223Y-78601000D01*
X117737344Y-78621002D01*
G37*
%TD.AperFunction*%
%TD*%
M02*
