G04 #@! TF.FileFunction,Copper,L2,Bot,Signal*
%FSLAX46Y46*%
G04 Gerber Fmt 4.6, Leading zero omitted, Abs format (unit mm)*
G04 Created by KiCad (PCBNEW 4.0.2-4+6225~38~ubuntu14.04.1-stable) date fre 22 apr 2016 20:18:46*
%MOMM*%
G01*
G04 APERTURE LIST*
%ADD10C,0.100000*%
%ADD11C,0.150000*%
%ADD12R,2.032000X2.032000*%
%ADD13O,2.032000X2.032000*%
%ADD14R,2.032000X1.727200*%
%ADD15O,2.032000X1.727200*%
%ADD16R,1.500000X2.000000*%
%ADD17O,1.500000X2.000000*%
%ADD18C,1.998980*%
%ADD19C,2.000000*%
%ADD20C,1.524000*%
%ADD21C,2.500000*%
%ADD22R,2.000000X2.000000*%
%ADD23O,3.000000X2.000000*%
%ADD24C,1.500000*%
%ADD25C,0.500000*%
%ADD26C,0.254000*%
G04 APERTURE END LIST*
D10*
D11*
X110490000Y-86360000D02*
X171450000Y-86360000D01*
X110490000Y-119380000D02*
X110490000Y-86360000D01*
X171450000Y-119380000D02*
X110490000Y-119380000D01*
X171450000Y-86360000D02*
X171450000Y-119380000D01*
D12*
X115570000Y-101600000D03*
D13*
X113030000Y-101600000D03*
D12*
X113284000Y-88900000D03*
D13*
X115824000Y-88900000D03*
D14*
X125730000Y-90170000D03*
D15*
X125730000Y-92710000D03*
X125730000Y-95250000D03*
X125730000Y-97790000D03*
X125730000Y-100330000D03*
X125730000Y-102870000D03*
D14*
X163830000Y-90170000D03*
D15*
X163830000Y-92710000D03*
X163830000Y-95250000D03*
X163830000Y-97790000D03*
X163830000Y-100330000D03*
X163830000Y-102870000D03*
D16*
X168020000Y-116240000D03*
D17*
X166020000Y-116240000D03*
D18*
X123190000Y-115570000D03*
X113030000Y-115570000D03*
D16*
X127000000Y-116205000D03*
D17*
X129000000Y-116205000D03*
D19*
X168910000Y-88900000D03*
X168910000Y-91440000D03*
X168910000Y-93980000D03*
X168910000Y-96520000D03*
X168910000Y-99060000D03*
X168910000Y-101600000D03*
X168910000Y-109220000D03*
X168910000Y-111760000D03*
X166370000Y-109220000D03*
X166370000Y-111760000D03*
X163830000Y-109220000D03*
X163830000Y-111760000D03*
X161290000Y-109220000D03*
X161290000Y-111760000D03*
X158750000Y-109220000D03*
X158750000Y-111760000D03*
X156210000Y-109220000D03*
X156210000Y-111760000D03*
X153670000Y-109220000D03*
X153670000Y-111760000D03*
X140970000Y-109220000D03*
X140970000Y-111760000D03*
X138430000Y-109220000D03*
X138430000Y-111760000D03*
X135890000Y-109220000D03*
X135890000Y-111760000D03*
X133350000Y-109220000D03*
X133350000Y-111760000D03*
X130810000Y-109220000D03*
X130810000Y-111760000D03*
X128270000Y-109220000D03*
X128270000Y-111760000D03*
X125730000Y-109220000D03*
X125730000Y-111760000D03*
D20*
X129700000Y-103020000D03*
X129700000Y-90020000D03*
X147700000Y-100070000D03*
X147700000Y-92970000D03*
X147700000Y-97570000D03*
X147700000Y-95470000D03*
D21*
X136070000Y-89520000D03*
X136070000Y-103520000D03*
X158320000Y-89520000D03*
X158320000Y-93020000D03*
X158320000Y-103520000D03*
X158320000Y-100020000D03*
D22*
X114300000Y-106680000D03*
D19*
X114300000Y-109220000D03*
D22*
X114300000Y-93980000D03*
D19*
X114300000Y-96520000D03*
D23*
X149225000Y-116332000D03*
X144145000Y-116332000D03*
X139065000Y-116332000D03*
X133985000Y-116332000D03*
D24*
X116205000Y-112776000D03*
X136398000Y-106680000D03*
X123063000Y-102870000D03*
X155829000Y-101727000D03*
X149225000Y-105410000D03*
X118745000Y-111125000D03*
X123698000Y-99060000D03*
X131064000Y-93726000D03*
X128270000Y-96266000D03*
X123190000Y-89408000D03*
X125730000Y-107061000D03*
X131699000Y-101854000D03*
X131826000Y-97790000D03*
X153035000Y-94615000D03*
X166370000Y-96520000D03*
X141986000Y-92710000D03*
X170180000Y-106934000D03*
X160401000Y-105791000D03*
X166370000Y-92710000D03*
X161417000Y-95250000D03*
X120650000Y-108712000D03*
D25*
X136320000Y-103520000D02*
X136320000Y-106602000D01*
X116205000Y-107950000D02*
X114935000Y-106680000D01*
X116205000Y-107950000D02*
X116205000Y-112776000D01*
X136320000Y-106602000D02*
X136398000Y-106680000D01*
X114300000Y-106680000D02*
X114935000Y-106680000D01*
X136320000Y-103520000D02*
X140350000Y-103520000D01*
X142875000Y-113030000D02*
X139065000Y-116332000D01*
X142875000Y-106045000D02*
X142875000Y-113030000D01*
X140350000Y-103520000D02*
X142875000Y-106045000D01*
X136320000Y-89520000D02*
X144018005Y-89532061D01*
X144018005Y-89532061D02*
X144145000Y-89759000D01*
X144145000Y-116332000D02*
X142621000Y-117983000D01*
X114300000Y-113411000D02*
X114300000Y-109220000D01*
X118745000Y-117856000D02*
X114300000Y-113411000D01*
X131191000Y-117856000D02*
X118745000Y-117856000D01*
X131572000Y-117475000D02*
X131191000Y-117856000D01*
X131572000Y-115697000D02*
X131572000Y-117475000D01*
X132588000Y-114554000D02*
X131572000Y-115697000D01*
X135382000Y-114554000D02*
X132588000Y-114554000D01*
X136652000Y-115951000D02*
X135382000Y-114554000D01*
X136652000Y-117348000D02*
X136652000Y-115951000D01*
X137541000Y-117983000D02*
X136652000Y-117348000D01*
X142621000Y-117983000D02*
X137541000Y-117983000D01*
X144145000Y-89647000D02*
X144145000Y-89759000D01*
X144145000Y-89759000D02*
X144145000Y-96647000D01*
X144145000Y-104775000D02*
X144145000Y-116332000D01*
X144145000Y-96647000D02*
X144145000Y-104775000D01*
X123063000Y-102870000D02*
X118110000Y-102870000D01*
X118110000Y-102870000D02*
X118110000Y-98806000D01*
X118110000Y-98806000D02*
X116586000Y-98806000D01*
X116586000Y-98806000D02*
X116586000Y-95758000D01*
X114808000Y-93980000D02*
X116586000Y-95758000D01*
X155829000Y-101727000D02*
X157536000Y-100020000D01*
X157536000Y-100020000D02*
X158320000Y-100020000D01*
X114808000Y-93980000D02*
X114300000Y-93980000D01*
X118745000Y-111125000D02*
X117475000Y-110490000D01*
X117475000Y-110490000D02*
X117475000Y-103505000D01*
X115570000Y-101600000D02*
X117475000Y-103505000D01*
X149225000Y-105410000D02*
X149225000Y-116332000D01*
X114300000Y-96520000D02*
X115570000Y-97790000D01*
X115570000Y-97790000D02*
X115570000Y-101600000D01*
X157685000Y-93020000D02*
X151638000Y-93091000D01*
X135890000Y-118872000D02*
X133985000Y-116332000D01*
X151130000Y-118872000D02*
X135890000Y-118872000D01*
X151765000Y-117729000D02*
X151130000Y-118872000D01*
X151765000Y-115824000D02*
X151765000Y-117729000D01*
X151765000Y-113665000D02*
X151765000Y-115824000D01*
X151765000Y-93210766D02*
X151765000Y-113665000D01*
X151638000Y-93091000D02*
X151765000Y-93210766D01*
X113030000Y-115570000D02*
X115570000Y-118872000D01*
X132080000Y-118872000D02*
X133350000Y-116332000D01*
X115570000Y-118872000D02*
X132080000Y-118872000D01*
X133350000Y-116332000D02*
X133985000Y-116332000D01*
X113030000Y-101600000D02*
X113030000Y-102235000D01*
X113030000Y-102235000D02*
X111760000Y-103505000D01*
X111760000Y-114300000D02*
X113030000Y-115570000D01*
X111760000Y-103505000D02*
X111760000Y-114300000D01*
X112395000Y-114935000D02*
X113030000Y-115570000D01*
X157685000Y-93020000D02*
X157155000Y-93020000D01*
X158320000Y-89520000D02*
X158320000Y-89232000D01*
X158320000Y-89232000D02*
X156210000Y-87122000D01*
X115062000Y-87122000D02*
X113284000Y-88900000D01*
X156210000Y-87122000D02*
X115062000Y-87122000D01*
X113030000Y-88646000D02*
X113030000Y-88900000D01*
X158320000Y-89520000D02*
X158320000Y-89105000D01*
X158320000Y-89520000D02*
X158320000Y-89740000D01*
X123698000Y-97790000D02*
X123698000Y-99060000D01*
X117602000Y-97790000D02*
X123698000Y-97790000D01*
X117602000Y-91186000D02*
X117602000Y-97790000D01*
X116586000Y-88900000D02*
X117602000Y-91186000D01*
X115824000Y-88900000D02*
X116586000Y-88900000D01*
X127635000Y-90170000D02*
X125730000Y-90170000D01*
X131064000Y-93726000D02*
X127635000Y-90170000D01*
X125476000Y-92964000D02*
X127336062Y-94026892D01*
X127336062Y-94026892D02*
X128270000Y-96266000D01*
X125730000Y-95250000D02*
X123190000Y-95250000D01*
X123190000Y-95250000D02*
X123190000Y-89408000D01*
X128143000Y-101600000D02*
X131445000Y-101600000D01*
X126873000Y-102870000D02*
X128143000Y-101600000D01*
X125730000Y-97790000D02*
X131826000Y-97790000D01*
X126873000Y-102870000D02*
X125730000Y-102870000D01*
X131445000Y-101600000D02*
X131699000Y-101854000D01*
X163830000Y-97790000D02*
X161798000Y-97790000D01*
X161798000Y-102870000D02*
X163830000Y-102870000D01*
X161798000Y-97790000D02*
X161798000Y-102870000D01*
X125730000Y-107061000D02*
X125730000Y-102870000D01*
X163830000Y-102870000D02*
X163830000Y-107315000D01*
X158320000Y-107110000D02*
X158320000Y-103520000D01*
X158115000Y-107315000D02*
X158320000Y-107110000D01*
X163830000Y-107315000D02*
X158115000Y-107315000D01*
X153035000Y-94615000D02*
X153035000Y-102235000D01*
X153035000Y-102235000D02*
X154305000Y-103505000D01*
X154305000Y-103505000D02*
X158305000Y-103505000D01*
X158305000Y-103505000D02*
X158320000Y-103520000D01*
X166370000Y-96520000D02*
X165735000Y-97155000D01*
X165735000Y-97155000D02*
X165735000Y-100330000D01*
X134874000Y-100330000D02*
X125730000Y-100330000D01*
X141986000Y-92710000D02*
X134874000Y-100330000D01*
X141986000Y-92710000D02*
X141986000Y-92710000D01*
X163195000Y-100330000D02*
X163830000Y-100330000D01*
X163830000Y-100330000D02*
X165735000Y-100330000D01*
X165735000Y-100330000D02*
X165735000Y-106680000D01*
X165735000Y-106680000D02*
X165735000Y-106934000D01*
X165735000Y-106934000D02*
X170180000Y-106934000D01*
X161925000Y-90170000D02*
X163830000Y-90170000D01*
X160401000Y-90170000D02*
X161925000Y-90170000D01*
X160401000Y-105791000D02*
X160401000Y-96520000D01*
X160401000Y-96520000D02*
X159639000Y-95631000D01*
X159639000Y-95631000D02*
X159639000Y-94742000D01*
X159639000Y-94742000D02*
X160401000Y-93726000D01*
X160401000Y-93726000D02*
X160401000Y-90170000D01*
X163830000Y-92710000D02*
X166370000Y-92710000D01*
X163830000Y-95250000D02*
X161417000Y-95250000D01*
X123190000Y-115570000D02*
X120904000Y-115570000D01*
X120650000Y-115316000D02*
X120650000Y-108712000D01*
X120904000Y-115570000D02*
X120650000Y-115316000D01*
X123190000Y-115570000D02*
X126365000Y-115570000D01*
X126365000Y-115570000D02*
X127000000Y-116205000D01*
D26*
G36*
X170740000Y-118670000D02*
X152254626Y-118670000D01*
X152538629Y-118158794D01*
X152554250Y-118110153D01*
X152582633Y-118067675D01*
X152606620Y-117947084D01*
X152644215Y-117830022D01*
X152640033Y-117779106D01*
X152650000Y-117729000D01*
X152650000Y-116586055D01*
X164627261Y-116586055D01*
X164770036Y-117111721D01*
X165103106Y-117542736D01*
X165575765Y-117813481D01*
X165678815Y-117832318D01*
X165893000Y-117709656D01*
X165893000Y-116367000D01*
X164788132Y-116367000D01*
X164627261Y-116586055D01*
X152650000Y-116586055D01*
X152650000Y-115893945D01*
X164627261Y-115893945D01*
X164788132Y-116113000D01*
X165893000Y-116113000D01*
X165893000Y-114770344D01*
X166147000Y-114770344D01*
X166147000Y-116113000D01*
X166167000Y-116113000D01*
X166167000Y-116367000D01*
X166147000Y-116367000D01*
X166147000Y-117709656D01*
X166361185Y-117832318D01*
X166464235Y-117813481D01*
X166771269Y-117637608D01*
X166805910Y-117691441D01*
X167018110Y-117836431D01*
X167270000Y-117887440D01*
X168770000Y-117887440D01*
X169005317Y-117843162D01*
X169221441Y-117704090D01*
X169366431Y-117491890D01*
X169417440Y-117240000D01*
X169417440Y-115240000D01*
X169373162Y-115004683D01*
X169234090Y-114788559D01*
X169021890Y-114643569D01*
X168770000Y-114592560D01*
X167270000Y-114592560D01*
X167034683Y-114636838D01*
X166818559Y-114775910D01*
X166772609Y-114843160D01*
X166464235Y-114666519D01*
X166361185Y-114647682D01*
X166147000Y-114770344D01*
X165893000Y-114770344D01*
X165678815Y-114647682D01*
X165575765Y-114666519D01*
X165103106Y-114937264D01*
X164770036Y-115368279D01*
X164627261Y-115893945D01*
X152650000Y-115893945D01*
X152650000Y-113052479D01*
X152742637Y-113145278D01*
X153343352Y-113394716D01*
X153993795Y-113395284D01*
X154594943Y-113146894D01*
X154940199Y-112802241D01*
X155282637Y-113145278D01*
X155883352Y-113394716D01*
X156533795Y-113395284D01*
X157134943Y-113146894D01*
X157480199Y-112802241D01*
X157822637Y-113145278D01*
X158423352Y-113394716D01*
X159073795Y-113395284D01*
X159674943Y-113146894D01*
X160020199Y-112802241D01*
X160362637Y-113145278D01*
X160963352Y-113394716D01*
X161613795Y-113395284D01*
X162214943Y-113146894D01*
X162560199Y-112802241D01*
X162902637Y-113145278D01*
X163503352Y-113394716D01*
X164153795Y-113395284D01*
X164754943Y-113146894D01*
X165100199Y-112802241D01*
X165442637Y-113145278D01*
X166043352Y-113394716D01*
X166693795Y-113395284D01*
X167294943Y-113146894D01*
X167640199Y-112802241D01*
X167982637Y-113145278D01*
X168583352Y-113394716D01*
X169233795Y-113395284D01*
X169834943Y-113146894D01*
X170295278Y-112687363D01*
X170544716Y-112086648D01*
X170545284Y-111436205D01*
X170296894Y-110835057D01*
X169952241Y-110489801D01*
X170295278Y-110147363D01*
X170544716Y-109546648D01*
X170545284Y-108896205D01*
X170306833Y-108319111D01*
X170454285Y-108319240D01*
X170740000Y-108201185D01*
X170740000Y-118670000D01*
X170740000Y-118670000D01*
G37*
X170740000Y-118670000D02*
X152254626Y-118670000D01*
X152538629Y-118158794D01*
X152554250Y-118110153D01*
X152582633Y-118067675D01*
X152606620Y-117947084D01*
X152644215Y-117830022D01*
X152640033Y-117779106D01*
X152650000Y-117729000D01*
X152650000Y-116586055D01*
X164627261Y-116586055D01*
X164770036Y-117111721D01*
X165103106Y-117542736D01*
X165575765Y-117813481D01*
X165678815Y-117832318D01*
X165893000Y-117709656D01*
X165893000Y-116367000D01*
X164788132Y-116367000D01*
X164627261Y-116586055D01*
X152650000Y-116586055D01*
X152650000Y-115893945D01*
X164627261Y-115893945D01*
X164788132Y-116113000D01*
X165893000Y-116113000D01*
X165893000Y-114770344D01*
X166147000Y-114770344D01*
X166147000Y-116113000D01*
X166167000Y-116113000D01*
X166167000Y-116367000D01*
X166147000Y-116367000D01*
X166147000Y-117709656D01*
X166361185Y-117832318D01*
X166464235Y-117813481D01*
X166771269Y-117637608D01*
X166805910Y-117691441D01*
X167018110Y-117836431D01*
X167270000Y-117887440D01*
X168770000Y-117887440D01*
X169005317Y-117843162D01*
X169221441Y-117704090D01*
X169366431Y-117491890D01*
X169417440Y-117240000D01*
X169417440Y-115240000D01*
X169373162Y-115004683D01*
X169234090Y-114788559D01*
X169021890Y-114643569D01*
X168770000Y-114592560D01*
X167270000Y-114592560D01*
X167034683Y-114636838D01*
X166818559Y-114775910D01*
X166772609Y-114843160D01*
X166464235Y-114666519D01*
X166361185Y-114647682D01*
X166147000Y-114770344D01*
X165893000Y-114770344D01*
X165678815Y-114647682D01*
X165575765Y-114666519D01*
X165103106Y-114937264D01*
X164770036Y-115368279D01*
X164627261Y-115893945D01*
X152650000Y-115893945D01*
X152650000Y-113052479D01*
X152742637Y-113145278D01*
X153343352Y-113394716D01*
X153993795Y-113395284D01*
X154594943Y-113146894D01*
X154940199Y-112802241D01*
X155282637Y-113145278D01*
X155883352Y-113394716D01*
X156533795Y-113395284D01*
X157134943Y-113146894D01*
X157480199Y-112802241D01*
X157822637Y-113145278D01*
X158423352Y-113394716D01*
X159073795Y-113395284D01*
X159674943Y-113146894D01*
X160020199Y-112802241D01*
X160362637Y-113145278D01*
X160963352Y-113394716D01*
X161613795Y-113395284D01*
X162214943Y-113146894D01*
X162560199Y-112802241D01*
X162902637Y-113145278D01*
X163503352Y-113394716D01*
X164153795Y-113395284D01*
X164754943Y-113146894D01*
X165100199Y-112802241D01*
X165442637Y-113145278D01*
X166043352Y-113394716D01*
X166693795Y-113395284D01*
X167294943Y-113146894D01*
X167640199Y-112802241D01*
X167982637Y-113145278D01*
X168583352Y-113394716D01*
X169233795Y-113395284D01*
X169834943Y-113146894D01*
X170295278Y-112687363D01*
X170544716Y-112086648D01*
X170545284Y-111436205D01*
X170296894Y-110835057D01*
X169952241Y-110489801D01*
X170295278Y-110147363D01*
X170544716Y-109546648D01*
X170545284Y-108896205D01*
X170306833Y-108319111D01*
X170454285Y-108319240D01*
X170740000Y-108201185D01*
X170740000Y-118670000D01*
G36*
X156595086Y-88758666D02*
X156435328Y-89143405D01*
X156434674Y-89893305D01*
X156721043Y-90586372D01*
X157250839Y-91117093D01*
X157619130Y-91270021D01*
X157253628Y-91421043D01*
X156722907Y-91950839D01*
X156641374Y-92147193D01*
X151627610Y-92206061D01*
X151619871Y-92207695D01*
X151612067Y-92206379D01*
X151451172Y-92243316D01*
X151289749Y-92277400D01*
X151283224Y-92281872D01*
X151275512Y-92283642D01*
X151141064Y-92379292D01*
X151004906Y-92472600D01*
X151000586Y-92479232D01*
X150994142Y-92483817D01*
X150906538Y-92623627D01*
X150816447Y-92761948D01*
X150814995Y-92769726D01*
X150810794Y-92776430D01*
X150783351Y-92939182D01*
X150753061Y-93101390D01*
X150754695Y-93109129D01*
X150753379Y-93116933D01*
X150790316Y-93277828D01*
X150824400Y-93439251D01*
X150828872Y-93445776D01*
X150830642Y-93453488D01*
X150880000Y-93522867D01*
X150880000Y-115147184D01*
X150392514Y-114821457D01*
X150110000Y-114765261D01*
X150110000Y-106483523D01*
X150398461Y-106195564D01*
X150609759Y-105686702D01*
X150610240Y-105135715D01*
X150399831Y-104626485D01*
X150010564Y-104236539D01*
X149501702Y-104025241D01*
X148950715Y-104024760D01*
X148441485Y-104235169D01*
X148051539Y-104624436D01*
X147840241Y-105133298D01*
X147839760Y-105684285D01*
X148050169Y-106193515D01*
X148340000Y-106483852D01*
X148340000Y-114765261D01*
X148057486Y-114821457D01*
X147527053Y-115175880D01*
X147172630Y-115706313D01*
X147048173Y-116332000D01*
X147172630Y-116957687D01*
X147527053Y-117488120D01*
X148057486Y-117842543D01*
X148683173Y-117967000D01*
X149766827Y-117967000D01*
X150392514Y-117842543D01*
X150864854Y-117526936D01*
X150609263Y-117987000D01*
X143821711Y-117987000D01*
X143840173Y-117967000D01*
X144686827Y-117967000D01*
X145312514Y-117842543D01*
X145842947Y-117488120D01*
X146197370Y-116957687D01*
X146321827Y-116332000D01*
X146197370Y-115706313D01*
X145842947Y-115175880D01*
X145312514Y-114821457D01*
X145030000Y-114765261D01*
X145030000Y-101050213D01*
X146899392Y-101050213D01*
X146968857Y-101292397D01*
X147492302Y-101479144D01*
X148047368Y-101451362D01*
X148431143Y-101292397D01*
X148500608Y-101050213D01*
X147700000Y-100249605D01*
X146899392Y-101050213D01*
X145030000Y-101050213D01*
X145030000Y-99862302D01*
X146290856Y-99862302D01*
X146318638Y-100417368D01*
X146477603Y-100801143D01*
X146719787Y-100870608D01*
X147520395Y-100070000D01*
X147879605Y-100070000D01*
X148680213Y-100870608D01*
X148922397Y-100801143D01*
X149109144Y-100277698D01*
X149081362Y-99722632D01*
X148922397Y-99338857D01*
X148680213Y-99269392D01*
X147879605Y-100070000D01*
X147520395Y-100070000D01*
X146719787Y-99269392D01*
X146477603Y-99338857D01*
X146290856Y-99862302D01*
X145030000Y-99862302D01*
X145030000Y-93246661D01*
X146302758Y-93246661D01*
X146514990Y-93760303D01*
X146907630Y-94153629D01*
X147067228Y-94219900D01*
X146909697Y-94284990D01*
X146516371Y-94677630D01*
X146303243Y-95190900D01*
X146302758Y-95746661D01*
X146514990Y-96260303D01*
X146774342Y-96520109D01*
X146516371Y-96777630D01*
X146303243Y-97290900D01*
X146302758Y-97846661D01*
X146514990Y-98360303D01*
X146907630Y-98753629D01*
X147051503Y-98813370D01*
X146968857Y-98847603D01*
X146899392Y-99089787D01*
X147700000Y-99890395D01*
X148500608Y-99089787D01*
X148431143Y-98847603D01*
X148342633Y-98816026D01*
X148490303Y-98755010D01*
X148883629Y-98362370D01*
X149096757Y-97849100D01*
X149097242Y-97293339D01*
X148885010Y-96779697D01*
X148625658Y-96519891D01*
X148883629Y-96262370D01*
X149096757Y-95749100D01*
X149097242Y-95193339D01*
X148885010Y-94679697D01*
X148492370Y-94286371D01*
X148332772Y-94220100D01*
X148490303Y-94155010D01*
X148883629Y-93762370D01*
X149096757Y-93249100D01*
X149097242Y-92693339D01*
X148885010Y-92179697D01*
X148492370Y-91786371D01*
X147979100Y-91573243D01*
X147423339Y-91572758D01*
X146909697Y-91784990D01*
X146516371Y-92177630D01*
X146303243Y-92690900D01*
X146302758Y-93246661D01*
X145030000Y-93246661D01*
X145030000Y-89647000D01*
X144962633Y-89308325D01*
X144770790Y-89021210D01*
X144680474Y-88960863D01*
X144644774Y-88907252D01*
X144600630Y-88877656D01*
X144566129Y-88837234D01*
X144458399Y-88782298D01*
X144357960Y-88714960D01*
X144305855Y-88704511D01*
X144258507Y-88680366D01*
X144137953Y-88670839D01*
X144019391Y-88647062D01*
X137994982Y-88637623D01*
X137918957Y-88453628D01*
X137473107Y-88007000D01*
X155843420Y-88007000D01*
X156595086Y-88758666D01*
X156595086Y-88758666D01*
G37*
X156595086Y-88758666D02*
X156435328Y-89143405D01*
X156434674Y-89893305D01*
X156721043Y-90586372D01*
X157250839Y-91117093D01*
X157619130Y-91270021D01*
X157253628Y-91421043D01*
X156722907Y-91950839D01*
X156641374Y-92147193D01*
X151627610Y-92206061D01*
X151619871Y-92207695D01*
X151612067Y-92206379D01*
X151451172Y-92243316D01*
X151289749Y-92277400D01*
X151283224Y-92281872D01*
X151275512Y-92283642D01*
X151141064Y-92379292D01*
X151004906Y-92472600D01*
X151000586Y-92479232D01*
X150994142Y-92483817D01*
X150906538Y-92623627D01*
X150816447Y-92761948D01*
X150814995Y-92769726D01*
X150810794Y-92776430D01*
X150783351Y-92939182D01*
X150753061Y-93101390D01*
X150754695Y-93109129D01*
X150753379Y-93116933D01*
X150790316Y-93277828D01*
X150824400Y-93439251D01*
X150828872Y-93445776D01*
X150830642Y-93453488D01*
X150880000Y-93522867D01*
X150880000Y-115147184D01*
X150392514Y-114821457D01*
X150110000Y-114765261D01*
X150110000Y-106483523D01*
X150398461Y-106195564D01*
X150609759Y-105686702D01*
X150610240Y-105135715D01*
X150399831Y-104626485D01*
X150010564Y-104236539D01*
X149501702Y-104025241D01*
X148950715Y-104024760D01*
X148441485Y-104235169D01*
X148051539Y-104624436D01*
X147840241Y-105133298D01*
X147839760Y-105684285D01*
X148050169Y-106193515D01*
X148340000Y-106483852D01*
X148340000Y-114765261D01*
X148057486Y-114821457D01*
X147527053Y-115175880D01*
X147172630Y-115706313D01*
X147048173Y-116332000D01*
X147172630Y-116957687D01*
X147527053Y-117488120D01*
X148057486Y-117842543D01*
X148683173Y-117967000D01*
X149766827Y-117967000D01*
X150392514Y-117842543D01*
X150864854Y-117526936D01*
X150609263Y-117987000D01*
X143821711Y-117987000D01*
X143840173Y-117967000D01*
X144686827Y-117967000D01*
X145312514Y-117842543D01*
X145842947Y-117488120D01*
X146197370Y-116957687D01*
X146321827Y-116332000D01*
X146197370Y-115706313D01*
X145842947Y-115175880D01*
X145312514Y-114821457D01*
X145030000Y-114765261D01*
X145030000Y-101050213D01*
X146899392Y-101050213D01*
X146968857Y-101292397D01*
X147492302Y-101479144D01*
X148047368Y-101451362D01*
X148431143Y-101292397D01*
X148500608Y-101050213D01*
X147700000Y-100249605D01*
X146899392Y-101050213D01*
X145030000Y-101050213D01*
X145030000Y-99862302D01*
X146290856Y-99862302D01*
X146318638Y-100417368D01*
X146477603Y-100801143D01*
X146719787Y-100870608D01*
X147520395Y-100070000D01*
X147879605Y-100070000D01*
X148680213Y-100870608D01*
X148922397Y-100801143D01*
X149109144Y-100277698D01*
X149081362Y-99722632D01*
X148922397Y-99338857D01*
X148680213Y-99269392D01*
X147879605Y-100070000D01*
X147520395Y-100070000D01*
X146719787Y-99269392D01*
X146477603Y-99338857D01*
X146290856Y-99862302D01*
X145030000Y-99862302D01*
X145030000Y-93246661D01*
X146302758Y-93246661D01*
X146514990Y-93760303D01*
X146907630Y-94153629D01*
X147067228Y-94219900D01*
X146909697Y-94284990D01*
X146516371Y-94677630D01*
X146303243Y-95190900D01*
X146302758Y-95746661D01*
X146514990Y-96260303D01*
X146774342Y-96520109D01*
X146516371Y-96777630D01*
X146303243Y-97290900D01*
X146302758Y-97846661D01*
X146514990Y-98360303D01*
X146907630Y-98753629D01*
X147051503Y-98813370D01*
X146968857Y-98847603D01*
X146899392Y-99089787D01*
X147700000Y-99890395D01*
X148500608Y-99089787D01*
X148431143Y-98847603D01*
X148342633Y-98816026D01*
X148490303Y-98755010D01*
X148883629Y-98362370D01*
X149096757Y-97849100D01*
X149097242Y-97293339D01*
X148885010Y-96779697D01*
X148625658Y-96519891D01*
X148883629Y-96262370D01*
X149096757Y-95749100D01*
X149097242Y-95193339D01*
X148885010Y-94679697D01*
X148492370Y-94286371D01*
X148332772Y-94220100D01*
X148490303Y-94155010D01*
X148883629Y-93762370D01*
X149096757Y-93249100D01*
X149097242Y-92693339D01*
X148885010Y-92179697D01*
X148492370Y-91786371D01*
X147979100Y-91573243D01*
X147423339Y-91572758D01*
X146909697Y-91784990D01*
X146516371Y-92177630D01*
X146303243Y-92690900D01*
X146302758Y-93246661D01*
X145030000Y-93246661D01*
X145030000Y-89647000D01*
X144962633Y-89308325D01*
X144770790Y-89021210D01*
X144680474Y-88960863D01*
X144644774Y-88907252D01*
X144600630Y-88877656D01*
X144566129Y-88837234D01*
X144458399Y-88782298D01*
X144357960Y-88714960D01*
X144305855Y-88704511D01*
X144258507Y-88680366D01*
X144137953Y-88670839D01*
X144019391Y-88647062D01*
X137994982Y-88637623D01*
X137918957Y-88453628D01*
X137473107Y-88007000D01*
X155843420Y-88007000D01*
X156595086Y-88758666D01*
G36*
X143260000Y-105178421D02*
X140975790Y-102894210D01*
X140925773Y-102860790D01*
X140688675Y-102702367D01*
X140632484Y-102691190D01*
X140350000Y-102634999D01*
X140349995Y-102635000D01*
X137993898Y-102635000D01*
X137918957Y-102453628D01*
X137389161Y-101922907D01*
X136696595Y-101635328D01*
X135946695Y-101634674D01*
X135253628Y-101921043D01*
X134722907Y-102450839D01*
X134435328Y-103143405D01*
X134434674Y-103893305D01*
X134721043Y-104586372D01*
X135250839Y-105117093D01*
X135435000Y-105193563D01*
X135435000Y-105684341D01*
X135224539Y-105894436D01*
X135013241Y-106403298D01*
X135012760Y-106954285D01*
X135223169Y-107463515D01*
X135409001Y-107649671D01*
X134965057Y-107833106D01*
X134619801Y-108177759D01*
X134277363Y-107834722D01*
X133676648Y-107585284D01*
X133026205Y-107584716D01*
X132425057Y-107833106D01*
X132079801Y-108177759D01*
X131737363Y-107834722D01*
X131136648Y-107585284D01*
X130486205Y-107584716D01*
X129885057Y-107833106D01*
X129539801Y-108177759D01*
X129197363Y-107834722D01*
X128596648Y-107585284D01*
X127946205Y-107584716D01*
X127345057Y-107833106D01*
X126917438Y-108259978D01*
X126882532Y-108247073D01*
X125909605Y-109220000D01*
X126882532Y-110192927D01*
X126917938Y-110179836D01*
X127227759Y-110490199D01*
X126917438Y-110799978D01*
X126882532Y-110787073D01*
X125909605Y-111760000D01*
X126882532Y-112732927D01*
X126917938Y-112719836D01*
X127342637Y-113145278D01*
X127943352Y-113394716D01*
X128593795Y-113395284D01*
X129194943Y-113146894D01*
X129540199Y-112802241D01*
X129882637Y-113145278D01*
X130483352Y-113394716D01*
X131133795Y-113395284D01*
X131734943Y-113146894D01*
X132080199Y-112802241D01*
X132422637Y-113145278D01*
X133023352Y-113394716D01*
X133673795Y-113395284D01*
X134274943Y-113146894D01*
X134620199Y-112802241D01*
X134962637Y-113145278D01*
X135563352Y-113394716D01*
X136213795Y-113395284D01*
X136814943Y-113146894D01*
X137160199Y-112802241D01*
X137502637Y-113145278D01*
X138103352Y-113394716D01*
X138753795Y-113395284D01*
X139354943Y-113146894D01*
X139700199Y-112802241D01*
X140042637Y-113145278D01*
X140643352Y-113394716D01*
X141102422Y-113395117D01*
X139600249Y-114697000D01*
X138523173Y-114697000D01*
X137897486Y-114821457D01*
X137367053Y-115175880D01*
X137272302Y-115317685D01*
X136036847Y-113958685D01*
X136019665Y-113945982D01*
X136007790Y-113928210D01*
X135881398Y-113843758D01*
X135759182Y-113753401D01*
X135738443Y-113748239D01*
X135720675Y-113736367D01*
X135571608Y-113706715D01*
X135424095Y-113670001D01*
X135402958Y-113673169D01*
X135382000Y-113669000D01*
X132588000Y-113669000D01*
X132562147Y-113674142D01*
X132536031Y-113670526D01*
X132393631Y-113707663D01*
X132249325Y-113736367D01*
X132227407Y-113751012D01*
X132201897Y-113757665D01*
X132084565Y-113846455D01*
X131962210Y-113928210D01*
X131947563Y-113950131D01*
X131926543Y-113966038D01*
X130910543Y-115109038D01*
X130836121Y-115235971D01*
X130754367Y-115358325D01*
X130749224Y-115384181D01*
X130735890Y-115406923D01*
X130715705Y-115552689D01*
X130687000Y-115697000D01*
X130687000Y-116971000D01*
X130278679Y-116971000D01*
X130392739Y-116551055D01*
X130231868Y-116332000D01*
X129127000Y-116332000D01*
X129127000Y-116352000D01*
X128873000Y-116352000D01*
X128873000Y-116332000D01*
X128853000Y-116332000D01*
X128853000Y-116078000D01*
X128873000Y-116078000D01*
X128873000Y-114735344D01*
X129127000Y-114735344D01*
X129127000Y-116078000D01*
X130231868Y-116078000D01*
X130392739Y-115858945D01*
X130249964Y-115333279D01*
X129916894Y-114902264D01*
X129444235Y-114631519D01*
X129341185Y-114612682D01*
X129127000Y-114735344D01*
X128873000Y-114735344D01*
X128658815Y-114612682D01*
X128555765Y-114631519D01*
X128248731Y-114807392D01*
X128214090Y-114753559D01*
X128001890Y-114608569D01*
X127750000Y-114557560D01*
X126250000Y-114557560D01*
X126014683Y-114601838D01*
X125885446Y-114685000D01*
X124592847Y-114685000D01*
X124576462Y-114645345D01*
X124117073Y-114185154D01*
X123516547Y-113935794D01*
X122866306Y-113935226D01*
X122265345Y-114183538D01*
X121805154Y-114642927D01*
X121787684Y-114685000D01*
X121535000Y-114685000D01*
X121535000Y-112912532D01*
X124757073Y-112912532D01*
X124855736Y-113179387D01*
X125465461Y-113405908D01*
X126115460Y-113381856D01*
X126604264Y-113179387D01*
X126702927Y-112912532D01*
X125730000Y-111939605D01*
X124757073Y-112912532D01*
X121535000Y-112912532D01*
X121535000Y-111495461D01*
X124084092Y-111495461D01*
X124108144Y-112145460D01*
X124310613Y-112634264D01*
X124577468Y-112732927D01*
X125550395Y-111760000D01*
X124577468Y-110787073D01*
X124310613Y-110885736D01*
X124084092Y-111495461D01*
X121535000Y-111495461D01*
X121535000Y-110372532D01*
X124757073Y-110372532D01*
X124800504Y-110490000D01*
X124757073Y-110607468D01*
X125730000Y-111580395D01*
X126702927Y-110607468D01*
X126659496Y-110490000D01*
X126702927Y-110372532D01*
X125730000Y-109399605D01*
X124757073Y-110372532D01*
X121535000Y-110372532D01*
X121535000Y-109785523D01*
X121823461Y-109497564D01*
X122034759Y-108988702D01*
X122034788Y-108955461D01*
X124084092Y-108955461D01*
X124108144Y-109605460D01*
X124310613Y-110094264D01*
X124577468Y-110192927D01*
X125550395Y-109220000D01*
X124577468Y-108247073D01*
X124310613Y-108345736D01*
X124084092Y-108955461D01*
X122034788Y-108955461D01*
X122035240Y-108437715D01*
X121882258Y-108067468D01*
X124757073Y-108067468D01*
X125730000Y-109040395D01*
X126702927Y-108067468D01*
X126604264Y-107800613D01*
X125994539Y-107574092D01*
X125344540Y-107598144D01*
X124855736Y-107800613D01*
X124757073Y-108067468D01*
X121882258Y-108067468D01*
X121824831Y-107928485D01*
X121435564Y-107538539D01*
X121289016Y-107477687D01*
X121510821Y-107256269D01*
X121665824Y-106882982D01*
X121666176Y-106478792D01*
X121511825Y-106105234D01*
X121226269Y-105819179D01*
X120852982Y-105664176D01*
X120448792Y-105663824D01*
X120075234Y-105818175D01*
X119789179Y-106103731D01*
X119634176Y-106477018D01*
X119633824Y-106881208D01*
X119788175Y-107254766D01*
X120010630Y-107477610D01*
X119866485Y-107537169D01*
X119476539Y-107926436D01*
X119265241Y-108435298D01*
X119264760Y-108986285D01*
X119475169Y-109495515D01*
X119765000Y-109785852D01*
X119765000Y-110186384D01*
X119530564Y-109951539D01*
X119021702Y-109740241D01*
X118470715Y-109739760D01*
X118360000Y-109785506D01*
X118360000Y-103755000D01*
X119709757Y-103755000D01*
X119634176Y-103937018D01*
X119633824Y-104341208D01*
X119788175Y-104714766D01*
X120073731Y-105000821D01*
X120447018Y-105155824D01*
X120851208Y-105156176D01*
X121224766Y-105001825D01*
X121510821Y-104716269D01*
X121665824Y-104342982D01*
X121666176Y-103938792D01*
X121590235Y-103755000D01*
X121989477Y-103755000D01*
X122277436Y-104043461D01*
X122786298Y-104254759D01*
X123337285Y-104255240D01*
X123846515Y-104044831D01*
X124236461Y-103655564D01*
X124276599Y-103558900D01*
X124379268Y-103772036D01*
X124815680Y-104161954D01*
X125368087Y-104355184D01*
X125603000Y-104210924D01*
X125603000Y-102997000D01*
X125857000Y-102997000D01*
X125857000Y-104210924D01*
X126091913Y-104355184D01*
X126644320Y-104161954D01*
X127080732Y-103772036D01*
X127309722Y-103296661D01*
X128302758Y-103296661D01*
X128514990Y-103810303D01*
X128907630Y-104203629D01*
X129420900Y-104416757D01*
X129976661Y-104417242D01*
X130490303Y-104205010D01*
X130883629Y-103812370D01*
X131096757Y-103299100D01*
X131097242Y-102743339D01*
X130885010Y-102229697D01*
X130492370Y-101836371D01*
X129979100Y-101623243D01*
X129423339Y-101622758D01*
X128909697Y-101834990D01*
X128516371Y-102227630D01*
X128303243Y-102740900D01*
X128302758Y-103296661D01*
X127309722Y-103296661D01*
X127334709Y-103244791D01*
X127337358Y-103229026D01*
X127216217Y-102997000D01*
X125857000Y-102997000D01*
X125603000Y-102997000D01*
X125583000Y-102997000D01*
X125583000Y-102743000D01*
X125603000Y-102743000D01*
X125603000Y-102723000D01*
X125857000Y-102723000D01*
X125857000Y-102743000D01*
X127216217Y-102743000D01*
X127337358Y-102510974D01*
X127334709Y-102495209D01*
X127080732Y-101967964D01*
X126664931Y-101596461D01*
X126974415Y-101389670D01*
X127091126Y-101215000D01*
X134874000Y-101215000D01*
X134889200Y-101211976D01*
X134904499Y-101214475D01*
X135058023Y-101178395D01*
X135212675Y-101147633D01*
X135225562Y-101139022D01*
X135240651Y-101135476D01*
X135368666Y-101043404D01*
X135499790Y-100955790D01*
X135508402Y-100942902D01*
X135520984Y-100933852D01*
X141903978Y-94094929D01*
X142260285Y-94095240D01*
X142769515Y-93884831D01*
X143159461Y-93495564D01*
X143260000Y-93253439D01*
X143260000Y-105178421D01*
X143260000Y-105178421D01*
G37*
X143260000Y-105178421D02*
X140975790Y-102894210D01*
X140925773Y-102860790D01*
X140688675Y-102702367D01*
X140632484Y-102691190D01*
X140350000Y-102634999D01*
X140349995Y-102635000D01*
X137993898Y-102635000D01*
X137918957Y-102453628D01*
X137389161Y-101922907D01*
X136696595Y-101635328D01*
X135946695Y-101634674D01*
X135253628Y-101921043D01*
X134722907Y-102450839D01*
X134435328Y-103143405D01*
X134434674Y-103893305D01*
X134721043Y-104586372D01*
X135250839Y-105117093D01*
X135435000Y-105193563D01*
X135435000Y-105684341D01*
X135224539Y-105894436D01*
X135013241Y-106403298D01*
X135012760Y-106954285D01*
X135223169Y-107463515D01*
X135409001Y-107649671D01*
X134965057Y-107833106D01*
X134619801Y-108177759D01*
X134277363Y-107834722D01*
X133676648Y-107585284D01*
X133026205Y-107584716D01*
X132425057Y-107833106D01*
X132079801Y-108177759D01*
X131737363Y-107834722D01*
X131136648Y-107585284D01*
X130486205Y-107584716D01*
X129885057Y-107833106D01*
X129539801Y-108177759D01*
X129197363Y-107834722D01*
X128596648Y-107585284D01*
X127946205Y-107584716D01*
X127345057Y-107833106D01*
X126917438Y-108259978D01*
X126882532Y-108247073D01*
X125909605Y-109220000D01*
X126882532Y-110192927D01*
X126917938Y-110179836D01*
X127227759Y-110490199D01*
X126917438Y-110799978D01*
X126882532Y-110787073D01*
X125909605Y-111760000D01*
X126882532Y-112732927D01*
X126917938Y-112719836D01*
X127342637Y-113145278D01*
X127943352Y-113394716D01*
X128593795Y-113395284D01*
X129194943Y-113146894D01*
X129540199Y-112802241D01*
X129882637Y-113145278D01*
X130483352Y-113394716D01*
X131133795Y-113395284D01*
X131734943Y-113146894D01*
X132080199Y-112802241D01*
X132422637Y-113145278D01*
X133023352Y-113394716D01*
X133673795Y-113395284D01*
X134274943Y-113146894D01*
X134620199Y-112802241D01*
X134962637Y-113145278D01*
X135563352Y-113394716D01*
X136213795Y-113395284D01*
X136814943Y-113146894D01*
X137160199Y-112802241D01*
X137502637Y-113145278D01*
X138103352Y-113394716D01*
X138753795Y-113395284D01*
X139354943Y-113146894D01*
X139700199Y-112802241D01*
X140042637Y-113145278D01*
X140643352Y-113394716D01*
X141102422Y-113395117D01*
X139600249Y-114697000D01*
X138523173Y-114697000D01*
X137897486Y-114821457D01*
X137367053Y-115175880D01*
X137272302Y-115317685D01*
X136036847Y-113958685D01*
X136019665Y-113945982D01*
X136007790Y-113928210D01*
X135881398Y-113843758D01*
X135759182Y-113753401D01*
X135738443Y-113748239D01*
X135720675Y-113736367D01*
X135571608Y-113706715D01*
X135424095Y-113670001D01*
X135402958Y-113673169D01*
X135382000Y-113669000D01*
X132588000Y-113669000D01*
X132562147Y-113674142D01*
X132536031Y-113670526D01*
X132393631Y-113707663D01*
X132249325Y-113736367D01*
X132227407Y-113751012D01*
X132201897Y-113757665D01*
X132084565Y-113846455D01*
X131962210Y-113928210D01*
X131947563Y-113950131D01*
X131926543Y-113966038D01*
X130910543Y-115109038D01*
X130836121Y-115235971D01*
X130754367Y-115358325D01*
X130749224Y-115384181D01*
X130735890Y-115406923D01*
X130715705Y-115552689D01*
X130687000Y-115697000D01*
X130687000Y-116971000D01*
X130278679Y-116971000D01*
X130392739Y-116551055D01*
X130231868Y-116332000D01*
X129127000Y-116332000D01*
X129127000Y-116352000D01*
X128873000Y-116352000D01*
X128873000Y-116332000D01*
X128853000Y-116332000D01*
X128853000Y-116078000D01*
X128873000Y-116078000D01*
X128873000Y-114735344D01*
X129127000Y-114735344D01*
X129127000Y-116078000D01*
X130231868Y-116078000D01*
X130392739Y-115858945D01*
X130249964Y-115333279D01*
X129916894Y-114902264D01*
X129444235Y-114631519D01*
X129341185Y-114612682D01*
X129127000Y-114735344D01*
X128873000Y-114735344D01*
X128658815Y-114612682D01*
X128555765Y-114631519D01*
X128248731Y-114807392D01*
X128214090Y-114753559D01*
X128001890Y-114608569D01*
X127750000Y-114557560D01*
X126250000Y-114557560D01*
X126014683Y-114601838D01*
X125885446Y-114685000D01*
X124592847Y-114685000D01*
X124576462Y-114645345D01*
X124117073Y-114185154D01*
X123516547Y-113935794D01*
X122866306Y-113935226D01*
X122265345Y-114183538D01*
X121805154Y-114642927D01*
X121787684Y-114685000D01*
X121535000Y-114685000D01*
X121535000Y-112912532D01*
X124757073Y-112912532D01*
X124855736Y-113179387D01*
X125465461Y-113405908D01*
X126115460Y-113381856D01*
X126604264Y-113179387D01*
X126702927Y-112912532D01*
X125730000Y-111939605D01*
X124757073Y-112912532D01*
X121535000Y-112912532D01*
X121535000Y-111495461D01*
X124084092Y-111495461D01*
X124108144Y-112145460D01*
X124310613Y-112634264D01*
X124577468Y-112732927D01*
X125550395Y-111760000D01*
X124577468Y-110787073D01*
X124310613Y-110885736D01*
X124084092Y-111495461D01*
X121535000Y-111495461D01*
X121535000Y-110372532D01*
X124757073Y-110372532D01*
X124800504Y-110490000D01*
X124757073Y-110607468D01*
X125730000Y-111580395D01*
X126702927Y-110607468D01*
X126659496Y-110490000D01*
X126702927Y-110372532D01*
X125730000Y-109399605D01*
X124757073Y-110372532D01*
X121535000Y-110372532D01*
X121535000Y-109785523D01*
X121823461Y-109497564D01*
X122034759Y-108988702D01*
X122034788Y-108955461D01*
X124084092Y-108955461D01*
X124108144Y-109605460D01*
X124310613Y-110094264D01*
X124577468Y-110192927D01*
X125550395Y-109220000D01*
X124577468Y-108247073D01*
X124310613Y-108345736D01*
X124084092Y-108955461D01*
X122034788Y-108955461D01*
X122035240Y-108437715D01*
X121882258Y-108067468D01*
X124757073Y-108067468D01*
X125730000Y-109040395D01*
X126702927Y-108067468D01*
X126604264Y-107800613D01*
X125994539Y-107574092D01*
X125344540Y-107598144D01*
X124855736Y-107800613D01*
X124757073Y-108067468D01*
X121882258Y-108067468D01*
X121824831Y-107928485D01*
X121435564Y-107538539D01*
X121289016Y-107477687D01*
X121510821Y-107256269D01*
X121665824Y-106882982D01*
X121666176Y-106478792D01*
X121511825Y-106105234D01*
X121226269Y-105819179D01*
X120852982Y-105664176D01*
X120448792Y-105663824D01*
X120075234Y-105818175D01*
X119789179Y-106103731D01*
X119634176Y-106477018D01*
X119633824Y-106881208D01*
X119788175Y-107254766D01*
X120010630Y-107477610D01*
X119866485Y-107537169D01*
X119476539Y-107926436D01*
X119265241Y-108435298D01*
X119264760Y-108986285D01*
X119475169Y-109495515D01*
X119765000Y-109785852D01*
X119765000Y-110186384D01*
X119530564Y-109951539D01*
X119021702Y-109740241D01*
X118470715Y-109739760D01*
X118360000Y-109785506D01*
X118360000Y-103755000D01*
X119709757Y-103755000D01*
X119634176Y-103937018D01*
X119633824Y-104341208D01*
X119788175Y-104714766D01*
X120073731Y-105000821D01*
X120447018Y-105155824D01*
X120851208Y-105156176D01*
X121224766Y-105001825D01*
X121510821Y-104716269D01*
X121665824Y-104342982D01*
X121666176Y-103938792D01*
X121590235Y-103755000D01*
X121989477Y-103755000D01*
X122277436Y-104043461D01*
X122786298Y-104254759D01*
X123337285Y-104255240D01*
X123846515Y-104044831D01*
X124236461Y-103655564D01*
X124276599Y-103558900D01*
X124379268Y-103772036D01*
X124815680Y-104161954D01*
X125368087Y-104355184D01*
X125603000Y-104210924D01*
X125603000Y-102997000D01*
X125857000Y-102997000D01*
X125857000Y-104210924D01*
X126091913Y-104355184D01*
X126644320Y-104161954D01*
X127080732Y-103772036D01*
X127309722Y-103296661D01*
X128302758Y-103296661D01*
X128514990Y-103810303D01*
X128907630Y-104203629D01*
X129420900Y-104416757D01*
X129976661Y-104417242D01*
X130490303Y-104205010D01*
X130883629Y-103812370D01*
X131096757Y-103299100D01*
X131097242Y-102743339D01*
X130885010Y-102229697D01*
X130492370Y-101836371D01*
X129979100Y-101623243D01*
X129423339Y-101622758D01*
X128909697Y-101834990D01*
X128516371Y-102227630D01*
X128303243Y-102740900D01*
X128302758Y-103296661D01*
X127309722Y-103296661D01*
X127334709Y-103244791D01*
X127337358Y-103229026D01*
X127216217Y-102997000D01*
X125857000Y-102997000D01*
X125603000Y-102997000D01*
X125583000Y-102997000D01*
X125583000Y-102743000D01*
X125603000Y-102743000D01*
X125603000Y-102723000D01*
X125857000Y-102723000D01*
X125857000Y-102743000D01*
X127216217Y-102743000D01*
X127337358Y-102510974D01*
X127334709Y-102495209D01*
X127080732Y-101967964D01*
X126664931Y-101596461D01*
X126974415Y-101389670D01*
X127091126Y-101215000D01*
X134874000Y-101215000D01*
X134889200Y-101211976D01*
X134904499Y-101214475D01*
X135058023Y-101178395D01*
X135212675Y-101147633D01*
X135225562Y-101139022D01*
X135240651Y-101135476D01*
X135368666Y-101043404D01*
X135499790Y-100955790D01*
X135508402Y-100942902D01*
X135520984Y-100933852D01*
X141903978Y-94094929D01*
X142260285Y-94095240D01*
X142769515Y-93884831D01*
X143159461Y-93495564D01*
X143260000Y-93253439D01*
X143260000Y-105178421D01*
G36*
X156721043Y-94086372D02*
X157250839Y-94617093D01*
X157943405Y-94904672D01*
X158693305Y-94905326D01*
X158754000Y-94880247D01*
X158754000Y-95631000D01*
X158781179Y-95767639D01*
X158797800Y-95905967D01*
X158814657Y-95935944D01*
X158821367Y-95969675D01*
X158898772Y-96085520D01*
X158967058Y-96206950D01*
X159516000Y-96847382D01*
X159516000Y-98549967D01*
X159389161Y-98422907D01*
X158696595Y-98135328D01*
X157946695Y-98134674D01*
X157253628Y-98421043D01*
X156722907Y-98950839D01*
X156435328Y-99643405D01*
X156435131Y-99869290D01*
X155962305Y-100342116D01*
X155554715Y-100341760D01*
X155045485Y-100552169D01*
X154655539Y-100941436D01*
X154444241Y-101450298D01*
X154443760Y-102001285D01*
X154654169Y-102510515D01*
X155043436Y-102900461D01*
X155552298Y-103111759D01*
X156103285Y-103112240D01*
X156524260Y-102938297D01*
X156425612Y-103195806D01*
X156445750Y-103945435D01*
X156693877Y-104544467D01*
X156986680Y-104673715D01*
X158140395Y-103520000D01*
X158126253Y-103505858D01*
X158305858Y-103326253D01*
X158320000Y-103340395D01*
X158334143Y-103326253D01*
X158513748Y-103505858D01*
X158499605Y-103520000D01*
X158513748Y-103534143D01*
X158334143Y-103713748D01*
X158320000Y-103699605D01*
X157166285Y-104853320D01*
X157295533Y-105146123D01*
X157995806Y-105414388D01*
X158745435Y-105394250D01*
X159132697Y-105233841D01*
X159016241Y-105514298D01*
X159015760Y-106065285D01*
X159226169Y-106574515D01*
X159615436Y-106964461D01*
X160124298Y-107175759D01*
X160675285Y-107176240D01*
X161184515Y-106965831D01*
X161574461Y-106576564D01*
X161785759Y-106067702D01*
X161786240Y-105516715D01*
X161575831Y-105007485D01*
X161286000Y-104717148D01*
X161286000Y-103229026D01*
X162222642Y-103229026D01*
X162225291Y-103244791D01*
X162479268Y-103772036D01*
X162915680Y-104161954D01*
X163468087Y-104355184D01*
X163703000Y-104210924D01*
X163703000Y-102997000D01*
X162343783Y-102997000D01*
X162222642Y-103229026D01*
X161286000Y-103229026D01*
X161286000Y-96634886D01*
X161691285Y-96635240D01*
X162200515Y-96424831D01*
X162477668Y-96148161D01*
X162585585Y-96309670D01*
X162895069Y-96516461D01*
X162479268Y-96887964D01*
X162225291Y-97415209D01*
X162222642Y-97430974D01*
X162343783Y-97663000D01*
X163703000Y-97663000D01*
X163703000Y-97643000D01*
X163957000Y-97643000D01*
X163957000Y-97663000D01*
X163977000Y-97663000D01*
X163977000Y-97917000D01*
X163957000Y-97917000D01*
X163957000Y-97937000D01*
X163703000Y-97937000D01*
X163703000Y-97917000D01*
X162343783Y-97917000D01*
X162222642Y-98149026D01*
X162225291Y-98164791D01*
X162479268Y-98692036D01*
X162895069Y-99063539D01*
X162585585Y-99270330D01*
X162260729Y-99756511D01*
X162146655Y-100330000D01*
X162260729Y-100903489D01*
X162585585Y-101389670D01*
X162895069Y-101596461D01*
X162479268Y-101967964D01*
X162225291Y-102495209D01*
X162222642Y-102510974D01*
X162343783Y-102743000D01*
X163703000Y-102743000D01*
X163703000Y-102723000D01*
X163957000Y-102723000D01*
X163957000Y-102743000D01*
X163977000Y-102743000D01*
X163977000Y-102997000D01*
X163957000Y-102997000D01*
X163957000Y-104210924D01*
X164191913Y-104355184D01*
X164744320Y-104161954D01*
X164850000Y-104067533D01*
X164850000Y-106934000D01*
X164917367Y-107272675D01*
X165109210Y-107559790D01*
X165396325Y-107751633D01*
X165562324Y-107784652D01*
X165445057Y-107833106D01*
X165099801Y-108177759D01*
X164757363Y-107834722D01*
X164156648Y-107585284D01*
X163506205Y-107584716D01*
X162905057Y-107833106D01*
X162559801Y-108177759D01*
X162217363Y-107834722D01*
X161616648Y-107585284D01*
X160966205Y-107584716D01*
X160365057Y-107833106D01*
X160019801Y-108177759D01*
X159677363Y-107834722D01*
X159076648Y-107585284D01*
X158426205Y-107584716D01*
X157825057Y-107833106D01*
X157479801Y-108177759D01*
X157137363Y-107834722D01*
X156536648Y-107585284D01*
X155886205Y-107584716D01*
X155285057Y-107833106D01*
X154939801Y-108177759D01*
X154597363Y-107834722D01*
X153996648Y-107585284D01*
X153346205Y-107584716D01*
X152745057Y-107833106D01*
X152650000Y-107927997D01*
X152650000Y-93964179D01*
X156651143Y-93917200D01*
X156721043Y-94086372D01*
X156721043Y-94086372D01*
G37*
X156721043Y-94086372D02*
X157250839Y-94617093D01*
X157943405Y-94904672D01*
X158693305Y-94905326D01*
X158754000Y-94880247D01*
X158754000Y-95631000D01*
X158781179Y-95767639D01*
X158797800Y-95905967D01*
X158814657Y-95935944D01*
X158821367Y-95969675D01*
X158898772Y-96085520D01*
X158967058Y-96206950D01*
X159516000Y-96847382D01*
X159516000Y-98549967D01*
X159389161Y-98422907D01*
X158696595Y-98135328D01*
X157946695Y-98134674D01*
X157253628Y-98421043D01*
X156722907Y-98950839D01*
X156435328Y-99643405D01*
X156435131Y-99869290D01*
X155962305Y-100342116D01*
X155554715Y-100341760D01*
X155045485Y-100552169D01*
X154655539Y-100941436D01*
X154444241Y-101450298D01*
X154443760Y-102001285D01*
X154654169Y-102510515D01*
X155043436Y-102900461D01*
X155552298Y-103111759D01*
X156103285Y-103112240D01*
X156524260Y-102938297D01*
X156425612Y-103195806D01*
X156445750Y-103945435D01*
X156693877Y-104544467D01*
X156986680Y-104673715D01*
X158140395Y-103520000D01*
X158126253Y-103505858D01*
X158305858Y-103326253D01*
X158320000Y-103340395D01*
X158334143Y-103326253D01*
X158513748Y-103505858D01*
X158499605Y-103520000D01*
X158513748Y-103534143D01*
X158334143Y-103713748D01*
X158320000Y-103699605D01*
X157166285Y-104853320D01*
X157295533Y-105146123D01*
X157995806Y-105414388D01*
X158745435Y-105394250D01*
X159132697Y-105233841D01*
X159016241Y-105514298D01*
X159015760Y-106065285D01*
X159226169Y-106574515D01*
X159615436Y-106964461D01*
X160124298Y-107175759D01*
X160675285Y-107176240D01*
X161184515Y-106965831D01*
X161574461Y-106576564D01*
X161785759Y-106067702D01*
X161786240Y-105516715D01*
X161575831Y-105007485D01*
X161286000Y-104717148D01*
X161286000Y-103229026D01*
X162222642Y-103229026D01*
X162225291Y-103244791D01*
X162479268Y-103772036D01*
X162915680Y-104161954D01*
X163468087Y-104355184D01*
X163703000Y-104210924D01*
X163703000Y-102997000D01*
X162343783Y-102997000D01*
X162222642Y-103229026D01*
X161286000Y-103229026D01*
X161286000Y-96634886D01*
X161691285Y-96635240D01*
X162200515Y-96424831D01*
X162477668Y-96148161D01*
X162585585Y-96309670D01*
X162895069Y-96516461D01*
X162479268Y-96887964D01*
X162225291Y-97415209D01*
X162222642Y-97430974D01*
X162343783Y-97663000D01*
X163703000Y-97663000D01*
X163703000Y-97643000D01*
X163957000Y-97643000D01*
X163957000Y-97663000D01*
X163977000Y-97663000D01*
X163977000Y-97917000D01*
X163957000Y-97917000D01*
X163957000Y-97937000D01*
X163703000Y-97937000D01*
X163703000Y-97917000D01*
X162343783Y-97917000D01*
X162222642Y-98149026D01*
X162225291Y-98164791D01*
X162479268Y-98692036D01*
X162895069Y-99063539D01*
X162585585Y-99270330D01*
X162260729Y-99756511D01*
X162146655Y-100330000D01*
X162260729Y-100903489D01*
X162585585Y-101389670D01*
X162895069Y-101596461D01*
X162479268Y-101967964D01*
X162225291Y-102495209D01*
X162222642Y-102510974D01*
X162343783Y-102743000D01*
X163703000Y-102743000D01*
X163703000Y-102723000D01*
X163957000Y-102723000D01*
X163957000Y-102743000D01*
X163977000Y-102743000D01*
X163977000Y-102997000D01*
X163957000Y-102997000D01*
X163957000Y-104210924D01*
X164191913Y-104355184D01*
X164744320Y-104161954D01*
X164850000Y-104067533D01*
X164850000Y-106934000D01*
X164917367Y-107272675D01*
X165109210Y-107559790D01*
X165396325Y-107751633D01*
X165562324Y-107784652D01*
X165445057Y-107833106D01*
X165099801Y-108177759D01*
X164757363Y-107834722D01*
X164156648Y-107585284D01*
X163506205Y-107584716D01*
X162905057Y-107833106D01*
X162559801Y-108177759D01*
X162217363Y-107834722D01*
X161616648Y-107585284D01*
X160966205Y-107584716D01*
X160365057Y-107833106D01*
X160019801Y-108177759D01*
X159677363Y-107834722D01*
X159076648Y-107585284D01*
X158426205Y-107584716D01*
X157825057Y-107833106D01*
X157479801Y-108177759D01*
X157137363Y-107834722D01*
X156536648Y-107585284D01*
X155886205Y-107584716D01*
X155285057Y-107833106D01*
X154939801Y-108177759D01*
X154597363Y-107834722D01*
X153996648Y-107585284D01*
X153346205Y-107584716D01*
X152745057Y-107833106D01*
X152650000Y-107927997D01*
X152650000Y-93964179D01*
X156651143Y-93917200D01*
X156721043Y-94086372D01*
G36*
X120075234Y-88038175D02*
X119789179Y-88323731D01*
X119634176Y-88697018D01*
X119633824Y-89101208D01*
X119788175Y-89474766D01*
X120073731Y-89760821D01*
X120447018Y-89915824D01*
X120851208Y-89916176D01*
X121224766Y-89761825D01*
X121510821Y-89476269D01*
X121665824Y-89102982D01*
X121666176Y-88698792D01*
X121511825Y-88325234D01*
X121226269Y-88039179D01*
X121148774Y-88007000D01*
X135167521Y-88007000D01*
X134722907Y-88450839D01*
X134435328Y-89143405D01*
X134434674Y-89893305D01*
X134721043Y-90586372D01*
X135250839Y-91117093D01*
X135943405Y-91404672D01*
X136693305Y-91405326D01*
X137386372Y-91118957D01*
X137917093Y-90589161D01*
X137992475Y-90407622D01*
X143260000Y-90415875D01*
X143260000Y-92166493D01*
X143160831Y-91926485D01*
X142771564Y-91536539D01*
X142262702Y-91325241D01*
X141711715Y-91324760D01*
X141202485Y-91535169D01*
X140812539Y-91924436D01*
X140601241Y-92433298D01*
X140600836Y-92897055D01*
X134489421Y-99445000D01*
X127091126Y-99445000D01*
X126974415Y-99270330D01*
X126664931Y-99063539D01*
X127080732Y-98692036D01*
X127334709Y-98164791D01*
X127337358Y-98149026D01*
X127216217Y-97917000D01*
X125857000Y-97917000D01*
X125857000Y-97937000D01*
X125603000Y-97937000D01*
X125603000Y-97917000D01*
X125583000Y-97917000D01*
X125583000Y-97663000D01*
X125603000Y-97663000D01*
X125603000Y-97643000D01*
X125857000Y-97643000D01*
X125857000Y-97663000D01*
X127216217Y-97663000D01*
X127337358Y-97430974D01*
X127334709Y-97415209D01*
X127217659Y-97172219D01*
X127484436Y-97439461D01*
X127993298Y-97650759D01*
X128544285Y-97651240D01*
X129053515Y-97440831D01*
X129443461Y-97051564D01*
X129654759Y-96542702D01*
X129655240Y-95991715D01*
X129444831Y-95482485D01*
X129055564Y-95092539D01*
X128673226Y-94933778D01*
X128152859Y-93686204D01*
X128087824Y-93589389D01*
X128035774Y-93485017D01*
X127992372Y-93447295D01*
X127960308Y-93399563D01*
X127863173Y-93335005D01*
X127775145Y-93258497D01*
X127352304Y-93016874D01*
X127413345Y-92710000D01*
X127299271Y-92136511D01*
X126974415Y-91650330D01*
X126960087Y-91640757D01*
X126981317Y-91636762D01*
X127197441Y-91497690D01*
X127342431Y-91285490D01*
X127366519Y-91166542D01*
X129679140Y-93564816D01*
X129678760Y-94000285D01*
X129889169Y-94509515D01*
X130278436Y-94899461D01*
X130787298Y-95110759D01*
X131338285Y-95111240D01*
X131847515Y-94900831D01*
X132237461Y-94511564D01*
X132448759Y-94002702D01*
X132449240Y-93451715D01*
X132238831Y-92942485D01*
X131849564Y-92552539D01*
X131340702Y-92341241D01*
X130957807Y-92340907D01*
X130050547Y-91400045D01*
X130431143Y-91242397D01*
X130500608Y-91000213D01*
X129700000Y-90199605D01*
X129685858Y-90213748D01*
X129506253Y-90034143D01*
X129520395Y-90020000D01*
X129879605Y-90020000D01*
X130680213Y-90820608D01*
X130922397Y-90751143D01*
X131109144Y-90227698D01*
X131081362Y-89672632D01*
X130922397Y-89288857D01*
X130680213Y-89219392D01*
X129879605Y-90020000D01*
X129520395Y-90020000D01*
X128719787Y-89219392D01*
X128477603Y-89288857D01*
X128352606Y-89639218D01*
X128272062Y-89555690D01*
X128265340Y-89551020D01*
X128260790Y-89544210D01*
X128123761Y-89452651D01*
X127988482Y-89358659D01*
X127980483Y-89356916D01*
X127973675Y-89352367D01*
X127812074Y-89320222D01*
X127651088Y-89285146D01*
X127643030Y-89286597D01*
X127635000Y-89285000D01*
X127389413Y-89285000D01*
X127349162Y-89071083D01*
X127329024Y-89039787D01*
X128899392Y-89039787D01*
X129700000Y-89840395D01*
X130500608Y-89039787D01*
X130431143Y-88797603D01*
X129907698Y-88610856D01*
X129352632Y-88638638D01*
X128968857Y-88797603D01*
X128899392Y-89039787D01*
X127329024Y-89039787D01*
X127210090Y-88854959D01*
X126997890Y-88709969D01*
X126746000Y-88658960D01*
X124714000Y-88658960D01*
X124478683Y-88703238D01*
X124414449Y-88744571D01*
X124364831Y-88624485D01*
X123975564Y-88234539D01*
X123466702Y-88023241D01*
X122915715Y-88022760D01*
X122406485Y-88233169D01*
X122016539Y-88622436D01*
X121805241Y-89131298D01*
X121804760Y-89682285D01*
X122015169Y-90191515D01*
X122305000Y-90481852D01*
X122305000Y-95250000D01*
X122372367Y-95588675D01*
X122564210Y-95875790D01*
X122851325Y-96067633D01*
X123190000Y-96135000D01*
X124368874Y-96135000D01*
X124485585Y-96309670D01*
X124795069Y-96516461D01*
X124379268Y-96887964D01*
X124265092Y-97124989D01*
X124036675Y-96972367D01*
X123698000Y-96905000D01*
X121590243Y-96905000D01*
X121665824Y-96722982D01*
X121666176Y-96318792D01*
X121511825Y-95945234D01*
X121226269Y-95659179D01*
X120852982Y-95504176D01*
X120448792Y-95503824D01*
X120075234Y-95658175D01*
X119789179Y-95943731D01*
X119634176Y-96317018D01*
X119633824Y-96721208D01*
X119709765Y-96905000D01*
X118487000Y-96905000D01*
X118487000Y-94181208D01*
X119633824Y-94181208D01*
X119788175Y-94554766D01*
X120073731Y-94840821D01*
X120447018Y-94995824D01*
X120851208Y-94996176D01*
X121224766Y-94841825D01*
X121510821Y-94556269D01*
X121665824Y-94182982D01*
X121666176Y-93778792D01*
X121511825Y-93405234D01*
X121226269Y-93119179D01*
X120852982Y-92964176D01*
X120448792Y-92963824D01*
X120075234Y-93118175D01*
X119789179Y-93403731D01*
X119634176Y-93777018D01*
X119633824Y-94181208D01*
X118487000Y-94181208D01*
X118487000Y-91641208D01*
X119633824Y-91641208D01*
X119788175Y-92014766D01*
X120073731Y-92300821D01*
X120447018Y-92455824D01*
X120851208Y-92456176D01*
X121224766Y-92301825D01*
X121510821Y-92016269D01*
X121665824Y-91642982D01*
X121666176Y-91238792D01*
X121511825Y-90865234D01*
X121226269Y-90579179D01*
X120852982Y-90424176D01*
X120448792Y-90423824D01*
X120075234Y-90578175D01*
X119789179Y-90863731D01*
X119634176Y-91237018D01*
X119633824Y-91641208D01*
X118487000Y-91641208D01*
X118487000Y-91186000D01*
X118484759Y-91174732D01*
X118486711Y-91163413D01*
X118451158Y-91005812D01*
X118419633Y-90847325D01*
X118413251Y-90837773D01*
X118410723Y-90826568D01*
X117422264Y-88602535D01*
X117349325Y-88235845D01*
X117196416Y-88007000D01*
X120150683Y-88007000D01*
X120075234Y-88038175D01*
X120075234Y-88038175D01*
G37*
X120075234Y-88038175D02*
X119789179Y-88323731D01*
X119634176Y-88697018D01*
X119633824Y-89101208D01*
X119788175Y-89474766D01*
X120073731Y-89760821D01*
X120447018Y-89915824D01*
X120851208Y-89916176D01*
X121224766Y-89761825D01*
X121510821Y-89476269D01*
X121665824Y-89102982D01*
X121666176Y-88698792D01*
X121511825Y-88325234D01*
X121226269Y-88039179D01*
X121148774Y-88007000D01*
X135167521Y-88007000D01*
X134722907Y-88450839D01*
X134435328Y-89143405D01*
X134434674Y-89893305D01*
X134721043Y-90586372D01*
X135250839Y-91117093D01*
X135943405Y-91404672D01*
X136693305Y-91405326D01*
X137386372Y-91118957D01*
X137917093Y-90589161D01*
X137992475Y-90407622D01*
X143260000Y-90415875D01*
X143260000Y-92166493D01*
X143160831Y-91926485D01*
X142771564Y-91536539D01*
X142262702Y-91325241D01*
X141711715Y-91324760D01*
X141202485Y-91535169D01*
X140812539Y-91924436D01*
X140601241Y-92433298D01*
X140600836Y-92897055D01*
X134489421Y-99445000D01*
X127091126Y-99445000D01*
X126974415Y-99270330D01*
X126664931Y-99063539D01*
X127080732Y-98692036D01*
X127334709Y-98164791D01*
X127337358Y-98149026D01*
X127216217Y-97917000D01*
X125857000Y-97917000D01*
X125857000Y-97937000D01*
X125603000Y-97937000D01*
X125603000Y-97917000D01*
X125583000Y-97917000D01*
X125583000Y-97663000D01*
X125603000Y-97663000D01*
X125603000Y-97643000D01*
X125857000Y-97643000D01*
X125857000Y-97663000D01*
X127216217Y-97663000D01*
X127337358Y-97430974D01*
X127334709Y-97415209D01*
X127217659Y-97172219D01*
X127484436Y-97439461D01*
X127993298Y-97650759D01*
X128544285Y-97651240D01*
X129053515Y-97440831D01*
X129443461Y-97051564D01*
X129654759Y-96542702D01*
X129655240Y-95991715D01*
X129444831Y-95482485D01*
X129055564Y-95092539D01*
X128673226Y-94933778D01*
X128152859Y-93686204D01*
X128087824Y-93589389D01*
X128035774Y-93485017D01*
X127992372Y-93447295D01*
X127960308Y-93399563D01*
X127863173Y-93335005D01*
X127775145Y-93258497D01*
X127352304Y-93016874D01*
X127413345Y-92710000D01*
X127299271Y-92136511D01*
X126974415Y-91650330D01*
X126960087Y-91640757D01*
X126981317Y-91636762D01*
X127197441Y-91497690D01*
X127342431Y-91285490D01*
X127366519Y-91166542D01*
X129679140Y-93564816D01*
X129678760Y-94000285D01*
X129889169Y-94509515D01*
X130278436Y-94899461D01*
X130787298Y-95110759D01*
X131338285Y-95111240D01*
X131847515Y-94900831D01*
X132237461Y-94511564D01*
X132448759Y-94002702D01*
X132449240Y-93451715D01*
X132238831Y-92942485D01*
X131849564Y-92552539D01*
X131340702Y-92341241D01*
X130957807Y-92340907D01*
X130050547Y-91400045D01*
X130431143Y-91242397D01*
X130500608Y-91000213D01*
X129700000Y-90199605D01*
X129685858Y-90213748D01*
X129506253Y-90034143D01*
X129520395Y-90020000D01*
X129879605Y-90020000D01*
X130680213Y-90820608D01*
X130922397Y-90751143D01*
X131109144Y-90227698D01*
X131081362Y-89672632D01*
X130922397Y-89288857D01*
X130680213Y-89219392D01*
X129879605Y-90020000D01*
X129520395Y-90020000D01*
X128719787Y-89219392D01*
X128477603Y-89288857D01*
X128352606Y-89639218D01*
X128272062Y-89555690D01*
X128265340Y-89551020D01*
X128260790Y-89544210D01*
X128123761Y-89452651D01*
X127988482Y-89358659D01*
X127980483Y-89356916D01*
X127973675Y-89352367D01*
X127812074Y-89320222D01*
X127651088Y-89285146D01*
X127643030Y-89286597D01*
X127635000Y-89285000D01*
X127389413Y-89285000D01*
X127349162Y-89071083D01*
X127329024Y-89039787D01*
X128899392Y-89039787D01*
X129700000Y-89840395D01*
X130500608Y-89039787D01*
X130431143Y-88797603D01*
X129907698Y-88610856D01*
X129352632Y-88638638D01*
X128968857Y-88797603D01*
X128899392Y-89039787D01*
X127329024Y-89039787D01*
X127210090Y-88854959D01*
X126997890Y-88709969D01*
X126746000Y-88658960D01*
X124714000Y-88658960D01*
X124478683Y-88703238D01*
X124414449Y-88744571D01*
X124364831Y-88624485D01*
X123975564Y-88234539D01*
X123466702Y-88023241D01*
X122915715Y-88022760D01*
X122406485Y-88233169D01*
X122016539Y-88622436D01*
X121805241Y-89131298D01*
X121804760Y-89682285D01*
X122015169Y-90191515D01*
X122305000Y-90481852D01*
X122305000Y-95250000D01*
X122372367Y-95588675D01*
X122564210Y-95875790D01*
X122851325Y-96067633D01*
X123190000Y-96135000D01*
X124368874Y-96135000D01*
X124485585Y-96309670D01*
X124795069Y-96516461D01*
X124379268Y-96887964D01*
X124265092Y-97124989D01*
X124036675Y-96972367D01*
X123698000Y-96905000D01*
X121590243Y-96905000D01*
X121665824Y-96722982D01*
X121666176Y-96318792D01*
X121511825Y-95945234D01*
X121226269Y-95659179D01*
X120852982Y-95504176D01*
X120448792Y-95503824D01*
X120075234Y-95658175D01*
X119789179Y-95943731D01*
X119634176Y-96317018D01*
X119633824Y-96721208D01*
X119709765Y-96905000D01*
X118487000Y-96905000D01*
X118487000Y-94181208D01*
X119633824Y-94181208D01*
X119788175Y-94554766D01*
X120073731Y-94840821D01*
X120447018Y-94995824D01*
X120851208Y-94996176D01*
X121224766Y-94841825D01*
X121510821Y-94556269D01*
X121665824Y-94182982D01*
X121666176Y-93778792D01*
X121511825Y-93405234D01*
X121226269Y-93119179D01*
X120852982Y-92964176D01*
X120448792Y-92963824D01*
X120075234Y-93118175D01*
X119789179Y-93403731D01*
X119634176Y-93777018D01*
X119633824Y-94181208D01*
X118487000Y-94181208D01*
X118487000Y-91641208D01*
X119633824Y-91641208D01*
X119788175Y-92014766D01*
X120073731Y-92300821D01*
X120447018Y-92455824D01*
X120851208Y-92456176D01*
X121224766Y-92301825D01*
X121510821Y-92016269D01*
X121665824Y-91642982D01*
X121666176Y-91238792D01*
X121511825Y-90865234D01*
X121226269Y-90579179D01*
X120852982Y-90424176D01*
X120448792Y-90423824D01*
X120075234Y-90578175D01*
X119789179Y-90863731D01*
X119634176Y-91237018D01*
X119633824Y-91641208D01*
X118487000Y-91641208D01*
X118487000Y-91186000D01*
X118484759Y-91174732D01*
X118486711Y-91163413D01*
X118451158Y-91005812D01*
X118419633Y-90847325D01*
X118413251Y-90837773D01*
X118410723Y-90826568D01*
X117422264Y-88602535D01*
X117349325Y-88235845D01*
X117196416Y-88007000D01*
X120150683Y-88007000D01*
X120075234Y-88038175D01*
M02*
