G04 #@! TF.FileFunction,Legend,Bot*
%FSLAX46Y46*%
G04 Gerber Fmt 4.6, Leading zero omitted, Abs format (unit mm)*
G04 Created by KiCad (PCBNEW 4.0.2-4+6225~38~ubuntu14.04.1-stable) date fre 22 apr 2016 20:18:46*
%MOMM*%
G01*
G04 APERTURE LIST*
%ADD10C,0.100000*%
%ADD11C,0.150000*%
G04 APERTURE END LIST*
D10*
D11*
X110490000Y-86360000D02*
X171450000Y-86360000D01*
X110490000Y-119380000D02*
X110490000Y-86360000D01*
X171450000Y-119380000D02*
X110490000Y-119380000D01*
X171450000Y-86360000D02*
X171450000Y-119380000D01*
X167640000Y-102870000D02*
X167640000Y-87630000D01*
X170180000Y-87630000D02*
X170180000Y-102870000D01*
X167640000Y-87630000D02*
X170180000Y-87630000D01*
X119380000Y-107950000D02*
X121920000Y-107950000D01*
X121920000Y-107950000D02*
X121920000Y-87630000D01*
X121920000Y-87630000D02*
X119380000Y-87630000D01*
X119380000Y-87630000D02*
X119380000Y-107950000D01*
X170180000Y-107950000D02*
X124460000Y-107950000D01*
X124460000Y-107950000D02*
X124460000Y-113030000D01*
X124460000Y-113030000D02*
X170180000Y-113030000D01*
X170180000Y-113030000D02*
X170180000Y-107950000D01*
X167640000Y-102870000D02*
X170180000Y-102870000D01*
X127700000Y-105520000D02*
X127700000Y-88020000D01*
X127700000Y-88020000D02*
X152000000Y-88020000D01*
X152000000Y-88020000D02*
X152000000Y-105520000D01*
X152000000Y-105520000D02*
X127700000Y-105520000D01*
X121411905Y-82002381D02*
X121411905Y-82811905D01*
X121364286Y-82907143D01*
X121316667Y-82954762D01*
X121221429Y-83002381D01*
X121030952Y-83002381D01*
X120935714Y-82954762D01*
X120888095Y-82907143D01*
X120840476Y-82811905D01*
X120840476Y-82002381D01*
X120459524Y-82002381D02*
X119840476Y-82002381D01*
X120173810Y-82383333D01*
X120030952Y-82383333D01*
X119935714Y-82430952D01*
X119888095Y-82478571D01*
X119840476Y-82573810D01*
X119840476Y-82811905D01*
X119888095Y-82907143D01*
X119935714Y-82954762D01*
X120030952Y-83002381D01*
X120316667Y-83002381D01*
X120411905Y-82954762D01*
X120459524Y-82907143D01*
X134461905Y-105972381D02*
X134461905Y-106781905D01*
X134414286Y-106877143D01*
X134366667Y-106924762D01*
X134271429Y-106972381D01*
X134080952Y-106972381D01*
X133985714Y-106924762D01*
X133938095Y-106877143D01*
X133890476Y-106781905D01*
X133890476Y-105972381D01*
X133461905Y-106067619D02*
X133414286Y-106020000D01*
X133319048Y-105972381D01*
X133080952Y-105972381D01*
X132985714Y-106020000D01*
X132938095Y-106067619D01*
X132890476Y-106162857D01*
X132890476Y-106258095D01*
X132938095Y-106400952D01*
X133509524Y-106972381D01*
X132890476Y-106972381D01*
M02*
