%FSLAX45Y45*%
G04 Gerber Fmt 4.5, Leading zero omitted, Abs format (unit mm)*
G04 Created by KiCad (PCBNEW 4.0.2-4+6225~38~ubuntu14.04.1-stable) date fre 22 apr 2016 18:34:38*
%MOMM*%
G01*
G04 APERTURE LIST*
%ADD10C,0.127000*%
%ADD11C,0.150000*%
%ADD12C,0.200000*%
%ADD13C,0.300000*%
G04 APERTURE END LIST*
D10*
D11*
X11049000Y-8636000D02*
X17145000Y-8636000D01*
X11049000Y-11938000D02*
X11049000Y-8636000D01*
X17145000Y-11938000D02*
X11049000Y-11938000D01*
X17145000Y-8636000D02*
X17145000Y-11938000D01*
D12*
X11600500Y-11257600D02*
X11640500Y-11297600D01*
X11640500Y-11257600D02*
X11600500Y-11297600D01*
X11854500Y-11092500D02*
X11894500Y-11132500D01*
X11894500Y-11092500D02*
X11854500Y-11132500D01*
X12045000Y-10851200D02*
X12085000Y-10891200D01*
X12085000Y-10851200D02*
X12045000Y-10891200D01*
X12286300Y-10267000D02*
X12326300Y-10307000D01*
X12326300Y-10267000D02*
X12286300Y-10307000D01*
X12299000Y-8920800D02*
X12339000Y-8960800D01*
X12339000Y-8920800D02*
X12299000Y-8960800D01*
X12349800Y-9886000D02*
X12389800Y-9926000D01*
X12389800Y-9886000D02*
X12349800Y-9926000D01*
X12553000Y-10686100D02*
X12593000Y-10726100D01*
X12593000Y-10686100D02*
X12553000Y-10726100D01*
X12807000Y-9606600D02*
X12847000Y-9646600D01*
X12847000Y-9606600D02*
X12807000Y-9646600D01*
X13086400Y-9352600D02*
X13126400Y-9392600D01*
X13126400Y-9352600D02*
X13086400Y-9392600D01*
X13149900Y-10165400D02*
X13189900Y-10205400D01*
X13189900Y-10165400D02*
X13149900Y-10205400D01*
X13162600Y-9759000D02*
X13202600Y-9799000D01*
X13202600Y-9759000D02*
X13162600Y-9799000D01*
X13619800Y-10648000D02*
X13659800Y-10688000D01*
X13659800Y-10648000D02*
X13619800Y-10688000D01*
X14178600Y-9251000D02*
X14218600Y-9291000D01*
X14218600Y-9251000D02*
X14178600Y-9291000D01*
X14902500Y-10521000D02*
X14942500Y-10561000D01*
X14942500Y-10521000D02*
X14902500Y-10561000D01*
X15283500Y-9441500D02*
X15323500Y-9481500D01*
X15323500Y-9441500D02*
X15283500Y-9481500D01*
X15562900Y-10152700D02*
X15602900Y-10192700D01*
X15602900Y-10152700D02*
X15562900Y-10192700D01*
X16020100Y-10559100D02*
X16060100Y-10599100D01*
X16060100Y-10559100D02*
X16020100Y-10599100D01*
X16121700Y-9505000D02*
X16161700Y-9545000D01*
X16161700Y-9505000D02*
X16121700Y-9545000D01*
X16617000Y-9251000D02*
X16657000Y-9291000D01*
X16657000Y-9251000D02*
X16617000Y-9291000D01*
X16617000Y-9632000D02*
X16657000Y-9672000D01*
X16657000Y-9632000D02*
X16617000Y-9672000D01*
X16998000Y-10673400D02*
X17038000Y-10713400D01*
X17038000Y-10673400D02*
X16998000Y-10713400D01*
X11341100Y-10160000D02*
G75*
G03X11341100Y-10160000I-38100J0D01*
G01*
X11366500Y-8890000D02*
G75*
G03X11366500Y-8890000I-38100J0D01*
G01*
X11468100Y-9398000D02*
G75*
G03X11468100Y-9398000I-38100J0D01*
G01*
X11468100Y-9652000D02*
G75*
G03X11468100Y-9652000I-38100J0D01*
G01*
X11468100Y-10668000D02*
G75*
G03X11468100Y-10668000I-38100J0D01*
G01*
X11468100Y-10922000D02*
G75*
G03X11468100Y-10922000I-38100J0D01*
G01*
X11595100Y-10160000D02*
G75*
G03X11595100Y-10160000I-38100J0D01*
G01*
X11620500Y-8890000D02*
G75*
G03X11620500Y-8890000I-38100J0D01*
G01*
X12103100Y-8890000D02*
G75*
G03X12103100Y-8890000I-38100J0D01*
G01*
X12103100Y-9144000D02*
G75*
G03X12103100Y-9144000I-38100J0D01*
G01*
X12103100Y-9398000D02*
G75*
G03X12103100Y-9398000I-38100J0D01*
G01*
X12103100Y-9652000D02*
G75*
G03X12103100Y-9652000I-38100J0D01*
G01*
X12103100Y-9906000D02*
G75*
G03X12103100Y-9906000I-38100J0D01*
G01*
X12103100Y-10160000D02*
G75*
G03X12103100Y-10160000I-38100J0D01*
G01*
X12103100Y-10414000D02*
G75*
G03X12103100Y-10414000I-38100J0D01*
G01*
X12103100Y-10668000D02*
G75*
G03X12103100Y-10668000I-38100J0D01*
G01*
X12611100Y-9017000D02*
G75*
G03X12611100Y-9017000I-38100J0D01*
G01*
X12611100Y-9271000D02*
G75*
G03X12611100Y-9271000I-38100J0D01*
G01*
X12611100Y-9525000D02*
G75*
G03X12611100Y-9525000I-38100J0D01*
G01*
X12611100Y-9779000D02*
G75*
G03X12611100Y-9779000I-38100J0D01*
G01*
X12611100Y-10033000D02*
G75*
G03X12611100Y-10033000I-38100J0D01*
G01*
X12611100Y-10287000D02*
G75*
G03X12611100Y-10287000I-38100J0D01*
G01*
X12611100Y-10922000D02*
G75*
G03X12611100Y-10922000I-38100J0D01*
G01*
X12611100Y-11176000D02*
G75*
G03X12611100Y-11176000I-38100J0D01*
G01*
X12865100Y-10922000D02*
G75*
G03X12865100Y-10922000I-38100J0D01*
G01*
X12865100Y-11176000D02*
G75*
G03X12865100Y-11176000I-38100J0D01*
G01*
X13008100Y-9002000D02*
G75*
G03X13008100Y-9002000I-38100J0D01*
G01*
X13008100Y-10302000D02*
G75*
G03X13008100Y-10302000I-38100J0D01*
G01*
X13119100Y-10922000D02*
G75*
G03X13119100Y-10922000I-38100J0D01*
G01*
X13119100Y-11176000D02*
G75*
G03X13119100Y-11176000I-38100J0D01*
G01*
X13373100Y-10922000D02*
G75*
G03X13373100Y-10922000I-38100J0D01*
G01*
X13373100Y-11176000D02*
G75*
G03X13373100Y-11176000I-38100J0D01*
G01*
X13627100Y-10922000D02*
G75*
G03X13627100Y-10922000I-38100J0D01*
G01*
X13627100Y-11176000D02*
G75*
G03X13627100Y-11176000I-38100J0D01*
G01*
X13645100Y-8952000D02*
G75*
G03X13645100Y-8952000I-38100J0D01*
G01*
X13645100Y-10352000D02*
G75*
G03X13645100Y-10352000I-38100J0D01*
G01*
X13881100Y-10922000D02*
G75*
G03X13881100Y-10922000I-38100J0D01*
G01*
X13881100Y-11176000D02*
G75*
G03X13881100Y-11176000I-38100J0D01*
G01*
X14135100Y-10922000D02*
G75*
G03X14135100Y-10922000I-38100J0D01*
G01*
X14135100Y-11176000D02*
G75*
G03X14135100Y-11176000I-38100J0D01*
G01*
X14808100Y-9297000D02*
G75*
G03X14808100Y-9297000I-38100J0D01*
G01*
X14808100Y-9547000D02*
G75*
G03X14808100Y-9547000I-38100J0D01*
G01*
X14808100Y-9757000D02*
G75*
G03X14808100Y-9757000I-38100J0D01*
G01*
X14808100Y-10007000D02*
G75*
G03X14808100Y-10007000I-38100J0D01*
G01*
X15405100Y-10922000D02*
G75*
G03X15405100Y-10922000I-38100J0D01*
G01*
X15405100Y-11176000D02*
G75*
G03X15405100Y-11176000I-38100J0D01*
G01*
X15659100Y-10922000D02*
G75*
G03X15659100Y-10922000I-38100J0D01*
G01*
X15659100Y-11176000D02*
G75*
G03X15659100Y-11176000I-38100J0D01*
G01*
X15870100Y-8952000D02*
G75*
G03X15870100Y-8952000I-38100J0D01*
G01*
X15870100Y-9302000D02*
G75*
G03X15870100Y-9302000I-38100J0D01*
G01*
X15870100Y-10002000D02*
G75*
G03X15870100Y-10002000I-38100J0D01*
G01*
X15870100Y-10352000D02*
G75*
G03X15870100Y-10352000I-38100J0D01*
G01*
X15913100Y-10922000D02*
G75*
G03X15913100Y-10922000I-38100J0D01*
G01*
X15913100Y-11176000D02*
G75*
G03X15913100Y-11176000I-38100J0D01*
G01*
X16167100Y-10922000D02*
G75*
G03X16167100Y-10922000I-38100J0D01*
G01*
X16167100Y-11176000D02*
G75*
G03X16167100Y-11176000I-38100J0D01*
G01*
X16421100Y-9017000D02*
G75*
G03X16421100Y-9017000I-38100J0D01*
G01*
X16421100Y-9271000D02*
G75*
G03X16421100Y-9271000I-38100J0D01*
G01*
X16421100Y-9525000D02*
G75*
G03X16421100Y-9525000I-38100J0D01*
G01*
X16421100Y-9779000D02*
G75*
G03X16421100Y-9779000I-38100J0D01*
G01*
X16421100Y-10033000D02*
G75*
G03X16421100Y-10033000I-38100J0D01*
G01*
X16421100Y-10287000D02*
G75*
G03X16421100Y-10287000I-38100J0D01*
G01*
X16421100Y-10922000D02*
G75*
G03X16421100Y-10922000I-38100J0D01*
G01*
X16421100Y-11176000D02*
G75*
G03X16421100Y-11176000I-38100J0D01*
G01*
X16675100Y-10922000D02*
G75*
G03X16675100Y-10922000I-38100J0D01*
G01*
X16675100Y-11176000D02*
G75*
G03X16675100Y-11176000I-38100J0D01*
G01*
X16929100Y-8890000D02*
G75*
G03X16929100Y-8890000I-38100J0D01*
G01*
X16929100Y-9144000D02*
G75*
G03X16929100Y-9144000I-38100J0D01*
G01*
X16929100Y-9398000D02*
G75*
G03X16929100Y-9398000I-38100J0D01*
G01*
X16929100Y-9652000D02*
G75*
G03X16929100Y-9652000I-38100J0D01*
G01*
X16929100Y-9906000D02*
G75*
G03X16929100Y-9906000I-38100J0D01*
G01*
X16929100Y-10160000D02*
G75*
G03X16929100Y-10160000I-38100J0D01*
G01*
X16929100Y-10922000D02*
G75*
G03X16929100Y-10922000I-38100J0D01*
G01*
X16929100Y-11176000D02*
G75*
G03X16929100Y-11176000I-38100J0D01*
G01*
X11303000Y-11517000D02*
X11303000Y-11597000D01*
X11263000Y-11557000D02*
X11343000Y-11557000D01*
X12319000Y-11517000D02*
X12319000Y-11597000D01*
X12279000Y-11557000D02*
X12359000Y-11557000D01*
X12700000Y-11580500D02*
X12700000Y-11660500D01*
X12660000Y-11620500D02*
X12740000Y-11620500D01*
X12900000Y-11580500D02*
X12900000Y-11660500D01*
X12860000Y-11620500D02*
X12940000Y-11620500D01*
X13398500Y-11593200D02*
X13398500Y-11673200D01*
X13358500Y-11633200D02*
X13438500Y-11633200D01*
X13906500Y-11593200D02*
X13906500Y-11673200D01*
X13866500Y-11633200D02*
X13946500Y-11633200D01*
X14414500Y-11593200D02*
X14414500Y-11673200D01*
X14374500Y-11633200D02*
X14454500Y-11633200D01*
X14922500Y-11593200D02*
X14922500Y-11673200D01*
X14882500Y-11633200D02*
X14962500Y-11633200D01*
X16602000Y-11584000D02*
X16602000Y-11664000D01*
X16562000Y-11624000D02*
X16642000Y-11624000D01*
X16802000Y-11584000D02*
X16802000Y-11664000D01*
X16762000Y-11624000D02*
X16842000Y-11624000D01*
D13*
X11312928Y-12411214D02*
X11312928Y-12111214D01*
X11384357Y-12111214D01*
X11427214Y-12125500D01*
X11455786Y-12154071D01*
X11470071Y-12182643D01*
X11484357Y-12239786D01*
X11484357Y-12282643D01*
X11470071Y-12339786D01*
X11455786Y-12368357D01*
X11427214Y-12396929D01*
X11384357Y-12411214D01*
X11312928Y-12411214D01*
X11612928Y-12411214D02*
X11612928Y-12211214D01*
X11612928Y-12268357D02*
X11627214Y-12239786D01*
X11641500Y-12225500D01*
X11670071Y-12211214D01*
X11698643Y-12211214D01*
X11798643Y-12411214D02*
X11798643Y-12211214D01*
X11798643Y-12111214D02*
X11784357Y-12125500D01*
X11798643Y-12139786D01*
X11812928Y-12125500D01*
X11798643Y-12111214D01*
X11798643Y-12139786D01*
X11984357Y-12411214D02*
X11955786Y-12396929D01*
X11941500Y-12368357D01*
X11941500Y-12111214D01*
X12141500Y-12411214D02*
X12112928Y-12396929D01*
X12098643Y-12368357D01*
X12098643Y-12111214D01*
X12484357Y-12411214D02*
X12484357Y-12111214D01*
X12584357Y-12325500D01*
X12684357Y-12111214D01*
X12684357Y-12411214D01*
X12955786Y-12411214D02*
X12955786Y-12254071D01*
X12941500Y-12225500D01*
X12912928Y-12211214D01*
X12855786Y-12211214D01*
X12827214Y-12225500D01*
X12955786Y-12396929D02*
X12927214Y-12411214D01*
X12855786Y-12411214D01*
X12827214Y-12396929D01*
X12812928Y-12368357D01*
X12812928Y-12339786D01*
X12827214Y-12311214D01*
X12855786Y-12296929D01*
X12927214Y-12296929D01*
X12955786Y-12282643D01*
X13098643Y-12211214D02*
X13098643Y-12511214D01*
X13098643Y-12225500D02*
X13127214Y-12211214D01*
X13184357Y-12211214D01*
X13212928Y-12225500D01*
X13227214Y-12239786D01*
X13241500Y-12268357D01*
X13241500Y-12354071D01*
X13227214Y-12382643D01*
X13212928Y-12396929D01*
X13184357Y-12411214D01*
X13127214Y-12411214D01*
X13098643Y-12396929D01*
X13370071Y-12382643D02*
X13384357Y-12396929D01*
X13370071Y-12411214D01*
X13355786Y-12396929D01*
X13370071Y-12382643D01*
X13370071Y-12411214D01*
X13370071Y-12225500D02*
X13384357Y-12239786D01*
X13370071Y-12254071D01*
X13355786Y-12239786D01*
X13370071Y-12225500D01*
X13370071Y-12254071D01*
X11001500Y-12885500D02*
X11041500Y-12925500D01*
X11041500Y-12885500D02*
X11001500Y-12925500D01*
X11370071Y-12741214D02*
X11398643Y-12741214D01*
X11427214Y-12755500D01*
X11441500Y-12769786D01*
X11455786Y-12798357D01*
X11470071Y-12855500D01*
X11470071Y-12926929D01*
X11455786Y-12984071D01*
X11441500Y-13012643D01*
X11427214Y-13026929D01*
X11398643Y-13041214D01*
X11370071Y-13041214D01*
X11341500Y-13026929D01*
X11327214Y-13012643D01*
X11312928Y-12984071D01*
X11298643Y-12926929D01*
X11298643Y-12855500D01*
X11312928Y-12798357D01*
X11327214Y-12769786D01*
X11341500Y-12755500D01*
X11370071Y-12741214D01*
X11598643Y-13012643D02*
X11612928Y-13026929D01*
X11598643Y-13041214D01*
X11584357Y-13026929D01*
X11598643Y-13012643D01*
X11598643Y-13041214D01*
X11870071Y-12841214D02*
X11870071Y-13041214D01*
X11798643Y-12726929D02*
X11727214Y-12941214D01*
X11912928Y-12941214D01*
X12084357Y-12741214D02*
X12112928Y-12741214D01*
X12141500Y-12755500D01*
X12155786Y-12769786D01*
X12170071Y-12798357D01*
X12184357Y-12855500D01*
X12184357Y-12926929D01*
X12170071Y-12984071D01*
X12155786Y-13012643D01*
X12141500Y-13026929D01*
X12112928Y-13041214D01*
X12084357Y-13041214D01*
X12055786Y-13026929D01*
X12041500Y-13012643D01*
X12027214Y-12984071D01*
X12012928Y-12926929D01*
X12012928Y-12855500D01*
X12027214Y-12798357D01*
X12041500Y-12769786D01*
X12055786Y-12755500D01*
X12084357Y-12741214D01*
X12312928Y-13041214D02*
X12312928Y-12841214D01*
X12312928Y-12869786D02*
X12327214Y-12855500D01*
X12355786Y-12841214D01*
X12398643Y-12841214D01*
X12427214Y-12855500D01*
X12441500Y-12884071D01*
X12441500Y-13041214D01*
X12441500Y-12884071D02*
X12455786Y-12855500D01*
X12484357Y-12841214D01*
X12527214Y-12841214D01*
X12555786Y-12855500D01*
X12570071Y-12884071D01*
X12570071Y-13041214D01*
X12712928Y-13041214D02*
X12712928Y-12841214D01*
X12712928Y-12869786D02*
X12727214Y-12855500D01*
X12755786Y-12841214D01*
X12798643Y-12841214D01*
X12827214Y-12855500D01*
X12841500Y-12884071D01*
X12841500Y-13041214D01*
X12841500Y-12884071D02*
X12855786Y-12855500D01*
X12884357Y-12841214D01*
X12927214Y-12841214D01*
X12955786Y-12855500D01*
X12970071Y-12884071D01*
X12970071Y-13041214D01*
X13555786Y-12726929D02*
X13298643Y-13112643D01*
X13941500Y-12741214D02*
X13970071Y-12741214D01*
X13998643Y-12755500D01*
X14012928Y-12769786D01*
X14027214Y-12798357D01*
X14041500Y-12855500D01*
X14041500Y-12926929D01*
X14027214Y-12984071D01*
X14012928Y-13012643D01*
X13998643Y-13026929D01*
X13970071Y-13041214D01*
X13941500Y-13041214D01*
X13912928Y-13026929D01*
X13898643Y-13012643D01*
X13884357Y-12984071D01*
X13870071Y-12926929D01*
X13870071Y-12855500D01*
X13884357Y-12798357D01*
X13898643Y-12769786D01*
X13912928Y-12755500D01*
X13941500Y-12741214D01*
X14170071Y-13012643D02*
X14184357Y-13026929D01*
X14170071Y-13041214D01*
X14155786Y-13026929D01*
X14170071Y-13012643D01*
X14170071Y-13041214D01*
X14370071Y-12741214D02*
X14398643Y-12741214D01*
X14427214Y-12755500D01*
X14441500Y-12769786D01*
X14455785Y-12798357D01*
X14470071Y-12855500D01*
X14470071Y-12926929D01*
X14455785Y-12984071D01*
X14441500Y-13012643D01*
X14427214Y-13026929D01*
X14398643Y-13041214D01*
X14370071Y-13041214D01*
X14341500Y-13026929D01*
X14327214Y-13012643D01*
X14312928Y-12984071D01*
X14298643Y-12926929D01*
X14298643Y-12855500D01*
X14312928Y-12798357D01*
X14327214Y-12769786D01*
X14341500Y-12755500D01*
X14370071Y-12741214D01*
X14755785Y-13041214D02*
X14584357Y-13041214D01*
X14670071Y-13041214D02*
X14670071Y-12741214D01*
X14641500Y-12784071D01*
X14612928Y-12812643D01*
X14584357Y-12826929D01*
X15012928Y-12741214D02*
X14955785Y-12741214D01*
X14927214Y-12755500D01*
X14912928Y-12769786D01*
X14884357Y-12812643D01*
X14870071Y-12869786D01*
X14870071Y-12984071D01*
X14884357Y-13012643D01*
X14898643Y-13026929D01*
X14927214Y-13041214D01*
X14984357Y-13041214D01*
X15012928Y-13026929D01*
X15027214Y-13012643D01*
X15041500Y-12984071D01*
X15041500Y-12912643D01*
X15027214Y-12884071D01*
X15012928Y-12869786D01*
X14984357Y-12855500D01*
X14927214Y-12855500D01*
X14898643Y-12869786D01*
X14884357Y-12884071D01*
X14870071Y-12912643D01*
X15155786Y-12741214D02*
X15155786Y-12798357D01*
X15270071Y-12741214D02*
X15270071Y-12798357D01*
X15712928Y-13155500D02*
X15698643Y-13141214D01*
X15670071Y-13098357D01*
X15655785Y-13069786D01*
X15641500Y-13026929D01*
X15627214Y-12955500D01*
X15627214Y-12898357D01*
X15641500Y-12826929D01*
X15655785Y-12784071D01*
X15670071Y-12755500D01*
X15698643Y-12712643D01*
X15712928Y-12698357D01*
X15812928Y-12769786D02*
X15827214Y-12755500D01*
X15855785Y-12741214D01*
X15927214Y-12741214D01*
X15955785Y-12755500D01*
X15970071Y-12769786D01*
X15984357Y-12798357D01*
X15984357Y-12826929D01*
X15970071Y-12869786D01*
X15798643Y-13041214D01*
X15984357Y-13041214D01*
X16270071Y-13041214D02*
X16098643Y-13041214D01*
X16184357Y-13041214D02*
X16184357Y-12741214D01*
X16155785Y-12784071D01*
X16127214Y-12812643D01*
X16098643Y-12826929D01*
X16627214Y-13041214D02*
X16627214Y-12741214D01*
X16755785Y-13041214D02*
X16755785Y-12884071D01*
X16741500Y-12855500D01*
X16712928Y-12841214D01*
X16670071Y-12841214D01*
X16641500Y-12855500D01*
X16627214Y-12869786D01*
X16941500Y-13041214D02*
X16912928Y-13026929D01*
X16898643Y-13012643D01*
X16884357Y-12984071D01*
X16884357Y-12898357D01*
X16898643Y-12869786D01*
X16912928Y-12855500D01*
X16941500Y-12841214D01*
X16984357Y-12841214D01*
X17012928Y-12855500D01*
X17027214Y-12869786D01*
X17041500Y-12898357D01*
X17041500Y-12984071D01*
X17027214Y-13012643D01*
X17012928Y-13026929D01*
X16984357Y-13041214D01*
X16941500Y-13041214D01*
X17212928Y-13041214D02*
X17184357Y-13026929D01*
X17170071Y-12998357D01*
X17170071Y-12741214D01*
X17441500Y-13026929D02*
X17412929Y-13041214D01*
X17355786Y-13041214D01*
X17327214Y-13026929D01*
X17312929Y-12998357D01*
X17312929Y-12884071D01*
X17327214Y-12855500D01*
X17355786Y-12841214D01*
X17412929Y-12841214D01*
X17441500Y-12855500D01*
X17455786Y-12884071D01*
X17455786Y-12912643D01*
X17312929Y-12941214D01*
X17570071Y-13026929D02*
X17598643Y-13041214D01*
X17655786Y-13041214D01*
X17684357Y-13026929D01*
X17698643Y-12998357D01*
X17698643Y-12984071D01*
X17684357Y-12955500D01*
X17655786Y-12941214D01*
X17612929Y-12941214D01*
X17584357Y-12926929D01*
X17570071Y-12898357D01*
X17570071Y-12884071D01*
X17584357Y-12855500D01*
X17612929Y-12841214D01*
X17655786Y-12841214D01*
X17684357Y-12855500D01*
X17798643Y-13155500D02*
X17812929Y-13141214D01*
X17841500Y-13098357D01*
X17855786Y-13069786D01*
X17870071Y-13026929D01*
X17884357Y-12955500D01*
X17884357Y-12898357D01*
X17870071Y-12826929D01*
X17855786Y-12784071D01*
X17841500Y-12755500D01*
X17812929Y-12712643D01*
X17798643Y-12698357D01*
X11041500Y-13301500D02*
G75*
G03X11041500Y-13301500I-38100J0D01*
G01*
X11370071Y-13137214D02*
X11398643Y-13137214D01*
X11427214Y-13151500D01*
X11441500Y-13165786D01*
X11455786Y-13194357D01*
X11470071Y-13251500D01*
X11470071Y-13322929D01*
X11455786Y-13380071D01*
X11441500Y-13408643D01*
X11427214Y-13422929D01*
X11398643Y-13437214D01*
X11370071Y-13437214D01*
X11341500Y-13422929D01*
X11327214Y-13408643D01*
X11312928Y-13380071D01*
X11298643Y-13322929D01*
X11298643Y-13251500D01*
X11312928Y-13194357D01*
X11327214Y-13165786D01*
X11341500Y-13151500D01*
X11370071Y-13137214D01*
X11598643Y-13408643D02*
X11612928Y-13422929D01*
X11598643Y-13437214D01*
X11584357Y-13422929D01*
X11598643Y-13408643D01*
X11598643Y-13437214D01*
X11712928Y-13137214D02*
X11912928Y-13137214D01*
X11784357Y-13437214D01*
X12155786Y-13137214D02*
X12098643Y-13137214D01*
X12070071Y-13151500D01*
X12055786Y-13165786D01*
X12027214Y-13208643D01*
X12012928Y-13265786D01*
X12012928Y-13380071D01*
X12027214Y-13408643D01*
X12041500Y-13422929D01*
X12070071Y-13437214D01*
X12127214Y-13437214D01*
X12155786Y-13422929D01*
X12170071Y-13408643D01*
X12184357Y-13380071D01*
X12184357Y-13308643D01*
X12170071Y-13280071D01*
X12155786Y-13265786D01*
X12127214Y-13251500D01*
X12070071Y-13251500D01*
X12041500Y-13265786D01*
X12027214Y-13280071D01*
X12012928Y-13308643D01*
X12312928Y-13437214D02*
X12312928Y-13237214D01*
X12312928Y-13265786D02*
X12327214Y-13251500D01*
X12355786Y-13237214D01*
X12398643Y-13237214D01*
X12427214Y-13251500D01*
X12441500Y-13280071D01*
X12441500Y-13437214D01*
X12441500Y-13280071D02*
X12455786Y-13251500D01*
X12484357Y-13237214D01*
X12527214Y-13237214D01*
X12555786Y-13251500D01*
X12570071Y-13280071D01*
X12570071Y-13437214D01*
X12712928Y-13437214D02*
X12712928Y-13237214D01*
X12712928Y-13265786D02*
X12727214Y-13251500D01*
X12755786Y-13237214D01*
X12798643Y-13237214D01*
X12827214Y-13251500D01*
X12841500Y-13280071D01*
X12841500Y-13437214D01*
X12841500Y-13280071D02*
X12855786Y-13251500D01*
X12884357Y-13237214D01*
X12927214Y-13237214D01*
X12955786Y-13251500D01*
X12970071Y-13280071D01*
X12970071Y-13437214D01*
X13555786Y-13122929D02*
X13298643Y-13508643D01*
X13941500Y-13137214D02*
X13970071Y-13137214D01*
X13998643Y-13151500D01*
X14012928Y-13165786D01*
X14027214Y-13194357D01*
X14041500Y-13251500D01*
X14041500Y-13322929D01*
X14027214Y-13380071D01*
X14012928Y-13408643D01*
X13998643Y-13422929D01*
X13970071Y-13437214D01*
X13941500Y-13437214D01*
X13912928Y-13422929D01*
X13898643Y-13408643D01*
X13884357Y-13380071D01*
X13870071Y-13322929D01*
X13870071Y-13251500D01*
X13884357Y-13194357D01*
X13898643Y-13165786D01*
X13912928Y-13151500D01*
X13941500Y-13137214D01*
X14170071Y-13408643D02*
X14184357Y-13422929D01*
X14170071Y-13437214D01*
X14155786Y-13422929D01*
X14170071Y-13408643D01*
X14170071Y-13437214D01*
X14370071Y-13137214D02*
X14398643Y-13137214D01*
X14427214Y-13151500D01*
X14441500Y-13165786D01*
X14455785Y-13194357D01*
X14470071Y-13251500D01*
X14470071Y-13322929D01*
X14455785Y-13380071D01*
X14441500Y-13408643D01*
X14427214Y-13422929D01*
X14398643Y-13437214D01*
X14370071Y-13437214D01*
X14341500Y-13422929D01*
X14327214Y-13408643D01*
X14312928Y-13380071D01*
X14298643Y-13322929D01*
X14298643Y-13251500D01*
X14312928Y-13194357D01*
X14327214Y-13165786D01*
X14341500Y-13151500D01*
X14370071Y-13137214D01*
X14570071Y-13137214D02*
X14755785Y-13137214D01*
X14655785Y-13251500D01*
X14698643Y-13251500D01*
X14727214Y-13265786D01*
X14741500Y-13280071D01*
X14755785Y-13308643D01*
X14755785Y-13380071D01*
X14741500Y-13408643D01*
X14727214Y-13422929D01*
X14698643Y-13437214D01*
X14612928Y-13437214D01*
X14584357Y-13422929D01*
X14570071Y-13408643D01*
X14941500Y-13137214D02*
X14970071Y-13137214D01*
X14998643Y-13151500D01*
X15012928Y-13165786D01*
X15027214Y-13194357D01*
X15041500Y-13251500D01*
X15041500Y-13322929D01*
X15027214Y-13380071D01*
X15012928Y-13408643D01*
X14998643Y-13422929D01*
X14970071Y-13437214D01*
X14941500Y-13437214D01*
X14912928Y-13422929D01*
X14898643Y-13408643D01*
X14884357Y-13380071D01*
X14870071Y-13322929D01*
X14870071Y-13251500D01*
X14884357Y-13194357D01*
X14898643Y-13165786D01*
X14912928Y-13151500D01*
X14941500Y-13137214D01*
X15155786Y-13137214D02*
X15155786Y-13194357D01*
X15270071Y-13137214D02*
X15270071Y-13194357D01*
X15712928Y-13551500D02*
X15698643Y-13537214D01*
X15670071Y-13494357D01*
X15655785Y-13465786D01*
X15641500Y-13422929D01*
X15627214Y-13351500D01*
X15627214Y-13294357D01*
X15641500Y-13222929D01*
X15655785Y-13180071D01*
X15670071Y-13151500D01*
X15698643Y-13108643D01*
X15712928Y-13094357D01*
X15798643Y-13137214D02*
X15998643Y-13137214D01*
X15870071Y-13437214D01*
X16241500Y-13237214D02*
X16241500Y-13437214D01*
X16170071Y-13122929D02*
X16098643Y-13337214D01*
X16284357Y-13337214D01*
X16627214Y-13437214D02*
X16627214Y-13137214D01*
X16755785Y-13437214D02*
X16755785Y-13280071D01*
X16741500Y-13251500D01*
X16712928Y-13237214D01*
X16670071Y-13237214D01*
X16641500Y-13251500D01*
X16627214Y-13265786D01*
X16941500Y-13437214D02*
X16912928Y-13422929D01*
X16898643Y-13408643D01*
X16884357Y-13380071D01*
X16884357Y-13294357D01*
X16898643Y-13265786D01*
X16912928Y-13251500D01*
X16941500Y-13237214D01*
X16984357Y-13237214D01*
X17012928Y-13251500D01*
X17027214Y-13265786D01*
X17041500Y-13294357D01*
X17041500Y-13380071D01*
X17027214Y-13408643D01*
X17012928Y-13422929D01*
X16984357Y-13437214D01*
X16941500Y-13437214D01*
X17212928Y-13437214D02*
X17184357Y-13422929D01*
X17170071Y-13394357D01*
X17170071Y-13137214D01*
X17441500Y-13422929D02*
X17412929Y-13437214D01*
X17355786Y-13437214D01*
X17327214Y-13422929D01*
X17312929Y-13394357D01*
X17312929Y-13280071D01*
X17327214Y-13251500D01*
X17355786Y-13237214D01*
X17412929Y-13237214D01*
X17441500Y-13251500D01*
X17455786Y-13280071D01*
X17455786Y-13308643D01*
X17312929Y-13337214D01*
X17570071Y-13422929D02*
X17598643Y-13437214D01*
X17655786Y-13437214D01*
X17684357Y-13422929D01*
X17698643Y-13394357D01*
X17698643Y-13380071D01*
X17684357Y-13351500D01*
X17655786Y-13337214D01*
X17612929Y-13337214D01*
X17584357Y-13322929D01*
X17570071Y-13294357D01*
X17570071Y-13280071D01*
X17584357Y-13251500D01*
X17612929Y-13237214D01*
X17655786Y-13237214D01*
X17684357Y-13251500D01*
X17798643Y-13551500D02*
X17812929Y-13537214D01*
X17841500Y-13494357D01*
X17855786Y-13465786D01*
X17870071Y-13422929D01*
X17884357Y-13351500D01*
X17884357Y-13294357D01*
X17870071Y-13222929D01*
X17855786Y-13180071D01*
X17841500Y-13151500D01*
X17812929Y-13108643D01*
X17798643Y-13094357D01*
X11001500Y-13657500D02*
X11001500Y-13737500D01*
X10961500Y-13697500D02*
X11041500Y-13697500D01*
X11370071Y-13533214D02*
X11398643Y-13533214D01*
X11427214Y-13547500D01*
X11441500Y-13561786D01*
X11455786Y-13590357D01*
X11470071Y-13647500D01*
X11470071Y-13718929D01*
X11455786Y-13776071D01*
X11441500Y-13804643D01*
X11427214Y-13818929D01*
X11398643Y-13833214D01*
X11370071Y-13833214D01*
X11341500Y-13818929D01*
X11327214Y-13804643D01*
X11312928Y-13776071D01*
X11298643Y-13718929D01*
X11298643Y-13647500D01*
X11312928Y-13590357D01*
X11327214Y-13561786D01*
X11341500Y-13547500D01*
X11370071Y-13533214D01*
X11598643Y-13804643D02*
X11612928Y-13818929D01*
X11598643Y-13833214D01*
X11584357Y-13818929D01*
X11598643Y-13804643D01*
X11598643Y-13833214D01*
X11784357Y-13661786D02*
X11755786Y-13647500D01*
X11741500Y-13633214D01*
X11727214Y-13604643D01*
X11727214Y-13590357D01*
X11741500Y-13561786D01*
X11755786Y-13547500D01*
X11784357Y-13533214D01*
X11841500Y-13533214D01*
X11870071Y-13547500D01*
X11884357Y-13561786D01*
X11898643Y-13590357D01*
X11898643Y-13604643D01*
X11884357Y-13633214D01*
X11870071Y-13647500D01*
X11841500Y-13661786D01*
X11784357Y-13661786D01*
X11755786Y-13676071D01*
X11741500Y-13690357D01*
X11727214Y-13718929D01*
X11727214Y-13776071D01*
X11741500Y-13804643D01*
X11755786Y-13818929D01*
X11784357Y-13833214D01*
X11841500Y-13833214D01*
X11870071Y-13818929D01*
X11884357Y-13804643D01*
X11898643Y-13776071D01*
X11898643Y-13718929D01*
X11884357Y-13690357D01*
X11870071Y-13676071D01*
X11841500Y-13661786D01*
X12084357Y-13533214D02*
X12112928Y-13533214D01*
X12141500Y-13547500D01*
X12155786Y-13561786D01*
X12170071Y-13590357D01*
X12184357Y-13647500D01*
X12184357Y-13718929D01*
X12170071Y-13776071D01*
X12155786Y-13804643D01*
X12141500Y-13818929D01*
X12112928Y-13833214D01*
X12084357Y-13833214D01*
X12055786Y-13818929D01*
X12041500Y-13804643D01*
X12027214Y-13776071D01*
X12012928Y-13718929D01*
X12012928Y-13647500D01*
X12027214Y-13590357D01*
X12041500Y-13561786D01*
X12055786Y-13547500D01*
X12084357Y-13533214D01*
X12312928Y-13833214D02*
X12312928Y-13633214D01*
X12312928Y-13661786D02*
X12327214Y-13647500D01*
X12355786Y-13633214D01*
X12398643Y-13633214D01*
X12427214Y-13647500D01*
X12441500Y-13676071D01*
X12441500Y-13833214D01*
X12441500Y-13676071D02*
X12455786Y-13647500D01*
X12484357Y-13633214D01*
X12527214Y-13633214D01*
X12555786Y-13647500D01*
X12570071Y-13676071D01*
X12570071Y-13833214D01*
X12712928Y-13833214D02*
X12712928Y-13633214D01*
X12712928Y-13661786D02*
X12727214Y-13647500D01*
X12755786Y-13633214D01*
X12798643Y-13633214D01*
X12827214Y-13647500D01*
X12841500Y-13676071D01*
X12841500Y-13833214D01*
X12841500Y-13676071D02*
X12855786Y-13647500D01*
X12884357Y-13633214D01*
X12927214Y-13633214D01*
X12955786Y-13647500D01*
X12970071Y-13676071D01*
X12970071Y-13833214D01*
X13555786Y-13518929D02*
X13298643Y-13904643D01*
X13941500Y-13533214D02*
X13970071Y-13533214D01*
X13998643Y-13547500D01*
X14012928Y-13561786D01*
X14027214Y-13590357D01*
X14041500Y-13647500D01*
X14041500Y-13718929D01*
X14027214Y-13776071D01*
X14012928Y-13804643D01*
X13998643Y-13818929D01*
X13970071Y-13833214D01*
X13941500Y-13833214D01*
X13912928Y-13818929D01*
X13898643Y-13804643D01*
X13884357Y-13776071D01*
X13870071Y-13718929D01*
X13870071Y-13647500D01*
X13884357Y-13590357D01*
X13898643Y-13561786D01*
X13912928Y-13547500D01*
X13941500Y-13533214D01*
X14170071Y-13804643D02*
X14184357Y-13818929D01*
X14170071Y-13833214D01*
X14155786Y-13818929D01*
X14170071Y-13804643D01*
X14170071Y-13833214D01*
X14370071Y-13533214D02*
X14398643Y-13533214D01*
X14427214Y-13547500D01*
X14441500Y-13561786D01*
X14455785Y-13590357D01*
X14470071Y-13647500D01*
X14470071Y-13718929D01*
X14455785Y-13776071D01*
X14441500Y-13804643D01*
X14427214Y-13818929D01*
X14398643Y-13833214D01*
X14370071Y-13833214D01*
X14341500Y-13818929D01*
X14327214Y-13804643D01*
X14312928Y-13776071D01*
X14298643Y-13718929D01*
X14298643Y-13647500D01*
X14312928Y-13590357D01*
X14327214Y-13561786D01*
X14341500Y-13547500D01*
X14370071Y-13533214D01*
X14570071Y-13533214D02*
X14755785Y-13533214D01*
X14655785Y-13647500D01*
X14698643Y-13647500D01*
X14727214Y-13661786D01*
X14741500Y-13676071D01*
X14755785Y-13704643D01*
X14755785Y-13776071D01*
X14741500Y-13804643D01*
X14727214Y-13818929D01*
X14698643Y-13833214D01*
X14612928Y-13833214D01*
X14584357Y-13818929D01*
X14570071Y-13804643D01*
X15041500Y-13833214D02*
X14870071Y-13833214D01*
X14955785Y-13833214D02*
X14955785Y-13533214D01*
X14927214Y-13576071D01*
X14898643Y-13604643D01*
X14870071Y-13618929D01*
X15155786Y-13533214D02*
X15155786Y-13590357D01*
X15270071Y-13533214D02*
X15270071Y-13590357D01*
X15712928Y-13947500D02*
X15698643Y-13933214D01*
X15670071Y-13890357D01*
X15655785Y-13861786D01*
X15641500Y-13818929D01*
X15627214Y-13747500D01*
X15627214Y-13690357D01*
X15641500Y-13618929D01*
X15655785Y-13576071D01*
X15670071Y-13547500D01*
X15698643Y-13504643D01*
X15712928Y-13490357D01*
X15984357Y-13833214D02*
X15812928Y-13833214D01*
X15898643Y-13833214D02*
X15898643Y-13533214D01*
X15870071Y-13576071D01*
X15841500Y-13604643D01*
X15812928Y-13618929D01*
X16170071Y-13533214D02*
X16198643Y-13533214D01*
X16227214Y-13547500D01*
X16241500Y-13561786D01*
X16255785Y-13590357D01*
X16270071Y-13647500D01*
X16270071Y-13718929D01*
X16255785Y-13776071D01*
X16241500Y-13804643D01*
X16227214Y-13818929D01*
X16198643Y-13833214D01*
X16170071Y-13833214D01*
X16141500Y-13818929D01*
X16127214Y-13804643D01*
X16112928Y-13776071D01*
X16098643Y-13718929D01*
X16098643Y-13647500D01*
X16112928Y-13590357D01*
X16127214Y-13561786D01*
X16141500Y-13547500D01*
X16170071Y-13533214D01*
X16627214Y-13833214D02*
X16627214Y-13533214D01*
X16755785Y-13833214D02*
X16755785Y-13676071D01*
X16741500Y-13647500D01*
X16712928Y-13633214D01*
X16670071Y-13633214D01*
X16641500Y-13647500D01*
X16627214Y-13661786D01*
X16941500Y-13833214D02*
X16912928Y-13818929D01*
X16898643Y-13804643D01*
X16884357Y-13776071D01*
X16884357Y-13690357D01*
X16898643Y-13661786D01*
X16912928Y-13647500D01*
X16941500Y-13633214D01*
X16984357Y-13633214D01*
X17012928Y-13647500D01*
X17027214Y-13661786D01*
X17041500Y-13690357D01*
X17041500Y-13776071D01*
X17027214Y-13804643D01*
X17012928Y-13818929D01*
X16984357Y-13833214D01*
X16941500Y-13833214D01*
X17212928Y-13833214D02*
X17184357Y-13818929D01*
X17170071Y-13790357D01*
X17170071Y-13533214D01*
X17441500Y-13818929D02*
X17412929Y-13833214D01*
X17355786Y-13833214D01*
X17327214Y-13818929D01*
X17312929Y-13790357D01*
X17312929Y-13676071D01*
X17327214Y-13647500D01*
X17355786Y-13633214D01*
X17412929Y-13633214D01*
X17441500Y-13647500D01*
X17455786Y-13676071D01*
X17455786Y-13704643D01*
X17312929Y-13733214D01*
X17570071Y-13818929D02*
X17598643Y-13833214D01*
X17655786Y-13833214D01*
X17684357Y-13818929D01*
X17698643Y-13790357D01*
X17698643Y-13776071D01*
X17684357Y-13747500D01*
X17655786Y-13733214D01*
X17612929Y-13733214D01*
X17584357Y-13718929D01*
X17570071Y-13690357D01*
X17570071Y-13676071D01*
X17584357Y-13647500D01*
X17612929Y-13633214D01*
X17655786Y-13633214D01*
X17684357Y-13647500D01*
X17798643Y-13947500D02*
X17812929Y-13933214D01*
X17841500Y-13890357D01*
X17855786Y-13861786D01*
X17870071Y-13818929D01*
X17884357Y-13747500D01*
X17884357Y-13690357D01*
X17870071Y-13618929D01*
X17855786Y-13576071D01*
X17841500Y-13547500D01*
X17812929Y-13504643D01*
X17798643Y-13490357D01*
M02*
