%TF.GenerationSoftware,KiCad,Pcbnew,6.0.7-f9a2dced07~116~ubuntu20.04.1*%
%TF.CreationDate,2022-09-18T16:57:55+02:00*%
%TF.ProjectId,SRRReceiver,53525252-6563-4656-9976-65722e6b6963,rev?*%
%TF.SameCoordinates,Original*%
%TF.FileFunction,Copper,L2,Inr*%
%TF.FilePolarity,Positive*%
%FSLAX46Y46*%
G04 Gerber Fmt 4.6, Leading zero omitted, Abs format (unit mm)*
G04 Created by KiCad (PCBNEW 6.0.7-f9a2dced07~116~ubuntu20.04.1) date 2022-09-18 16:57:55*
%MOMM*%
%LPD*%
G01*
G04 APERTURE LIST*
%TA.AperFunction,ComponentPad*%
%ADD10R,0.500000X0.900000*%
%TD*%
%TA.AperFunction,ViaPad*%
%ADD11C,0.500000*%
%TD*%
G04 APERTURE END LIST*
D10*
%TO.N,GND*%
%TO.C,AE2*%
X133000000Y-82550000D03*
%TD*%
%TO.N,GND*%
%TO.C,AE1*%
X115600000Y-95900000D03*
%TD*%
D11*
%TO.N,GND*%
X130300000Y-79250000D03*
X120300000Y-83300000D03*
X130300000Y-99300000D03*
X127100000Y-96000000D03*
X130250000Y-80400000D03*
X116500000Y-98400000D03*
X128700000Y-85700000D03*
X126850000Y-80350000D03*
X116400000Y-92600000D03*
X118874500Y-98600000D03*
X131932578Y-87123938D03*
X125100000Y-79200000D03*
X124200000Y-90700000D03*
X128750000Y-81250000D03*
X116600000Y-79200000D03*
X126300000Y-79200000D03*
X117800000Y-92000000D03*
X116400000Y-91500000D03*
X116075500Y-82700000D03*
X131800000Y-94600000D03*
X121150000Y-83300000D03*
X125650000Y-85350000D03*
X127700000Y-79200000D03*
X118000000Y-79200000D03*
X119900000Y-79200000D03*
X116500000Y-97400000D03*
X131600000Y-81500000D03*
X127850000Y-86250000D03*
X121150000Y-84200000D03*
X116600000Y-89000000D03*
X116400000Y-90400000D03*
X129968767Y-92881233D03*
X122500000Y-93900000D03*
X131800000Y-91500000D03*
X128100000Y-96000000D03*
X118600000Y-86200000D03*
X131800000Y-90400000D03*
X131650000Y-79250000D03*
X131100000Y-89300000D03*
X116300000Y-94900000D03*
X131989502Y-86000000D03*
X131650000Y-80400000D03*
X117600000Y-99400000D03*
X116500000Y-99400000D03*
X132000000Y-99200000D03*
X128850000Y-82350000D03*
X116600000Y-80200000D03*
X130900000Y-97400000D03*
X117800000Y-80000000D03*
X122200000Y-79200000D03*
X116200000Y-86850000D03*
X120900000Y-91700000D03*
X120300000Y-84200000D03*
X118750000Y-94100000D03*
X127100000Y-95100000D03*
X130300000Y-91500000D03*
X131600000Y-82550000D03*
X128050000Y-81600000D03*
X132000000Y-98100000D03*
X121700000Y-98800000D03*
X131100000Y-88100000D03*
X129100000Y-79250000D03*
X127750000Y-80350000D03*
X117050000Y-92100000D03*
X123800000Y-79200000D03*
X127100000Y-91450000D03*
X128100000Y-95100000D03*
X120700000Y-93900000D03*
X131100000Y-98600000D03*
X125200000Y-82300000D03*
X121000000Y-79600000D03*
X129100000Y-90400000D03*
X129100000Y-80350000D03*
%TO.N,SPI2_MOSI*%
X129200000Y-97600000D03*
%TO.N,SPI2_NSS*%
X129300000Y-92400000D03*
%TO.N,VDD*%
X124409502Y-85550000D03*
X125400000Y-93200000D03*
X124600000Y-96300000D03*
X123450000Y-87750000D03*
X127300000Y-99100000D03*
X127068951Y-92198355D03*
X117800000Y-84600000D03*
X130635298Y-94764702D03*
X124600000Y-94500000D03*
X121522266Y-87122266D03*
X123637500Y-82387500D03*
X122500000Y-97900000D03*
X120700000Y-80778732D03*
%TO.N,SPI2_SCK*%
X130200000Y-97800000D03*
%TO.N,SPI1_SCK*%
X117775500Y-81000000D03*
%TO.N,SPI1_MISO*%
X117000000Y-81800000D03*
%TO.N,SPI1_NSS*%
X119509436Y-87121902D03*
%TO.N,SPI2_MISO*%
X130500000Y-96100000D03*
X124000000Y-89950000D03*
%TO.N,SPI1_MOSI*%
X119400000Y-81350000D03*
%TO.N,GD0_INT_2*%
X129100000Y-93700000D03*
X117500000Y-97700000D03*
%TO.N,GD0_INT_1*%
X117236803Y-89289456D03*
X119500000Y-85650000D03*
%TD*%
%TA.AperFunction,Conductor*%
%TO.N,GND*%
G36*
X132541121Y-78621002D02*
G01*
X132587614Y-78674658D01*
X132599000Y-78727000D01*
X132599000Y-81399802D01*
X132598918Y-81400000D01*
X132599000Y-81400198D01*
X132599235Y-81400765D01*
X132600000Y-81401082D01*
X132600198Y-81401000D01*
X133074000Y-81401000D01*
X133142121Y-81421002D01*
X133188614Y-81474658D01*
X133200000Y-81527000D01*
X133200000Y-96873000D01*
X133179998Y-96941121D01*
X133126342Y-96987614D01*
X133074000Y-96999000D01*
X132600198Y-96999000D01*
X132600000Y-96998918D01*
X132599802Y-96999000D01*
X132599235Y-96999235D01*
X132598918Y-97000000D01*
X132599000Y-97000198D01*
X132599000Y-99673000D01*
X132578998Y-99741121D01*
X132525342Y-99787614D01*
X132473000Y-99799000D01*
X127390153Y-99799000D01*
X127322032Y-99778998D01*
X127301443Y-99755237D01*
X127291797Y-99769676D01*
X127226702Y-99798017D01*
X127210990Y-99799000D01*
X116127000Y-99799000D01*
X116058879Y-99778998D01*
X116012386Y-99725342D01*
X116001000Y-99673000D01*
X116001000Y-99094440D01*
X126844901Y-99094440D01*
X126846065Y-99103342D01*
X126846065Y-99103345D01*
X126860468Y-99213489D01*
X126860469Y-99213493D01*
X126861633Y-99222394D01*
X126913605Y-99340510D01*
X126996639Y-99439291D01*
X127104060Y-99510796D01*
X127227233Y-99549278D01*
X127232720Y-99549379D01*
X127295182Y-99579257D01*
X127300108Y-99587230D01*
X127357011Y-99551437D01*
X127472092Y-99520062D01*
X127472093Y-99520062D01*
X127480755Y-99517700D01*
X127488405Y-99513003D01*
X127488407Y-99513002D01*
X127583072Y-99454878D01*
X127583075Y-99454875D01*
X127590724Y-99450179D01*
X127596750Y-99443522D01*
X127671300Y-99361161D01*
X127671303Y-99361157D01*
X127677322Y-99354507D01*
X127733588Y-99238375D01*
X127754997Y-99111120D01*
X127755133Y-99100000D01*
X127736839Y-98972259D01*
X127683428Y-98854788D01*
X127599193Y-98757028D01*
X127490906Y-98686841D01*
X127482311Y-98684271D01*
X127482310Y-98684270D01*
X127375874Y-98652438D01*
X127375872Y-98652438D01*
X127367273Y-98649866D01*
X127358298Y-98649811D01*
X127358297Y-98649811D01*
X127303641Y-98649477D01*
X127238231Y-98649078D01*
X127226475Y-98652438D01*
X127122786Y-98682072D01*
X127122784Y-98682073D01*
X127114155Y-98684539D01*
X127005019Y-98753399D01*
X126919596Y-98850122D01*
X126915782Y-98858245D01*
X126915781Y-98858247D01*
X126889794Y-98913598D01*
X126864754Y-98966932D01*
X126863374Y-98975798D01*
X126846282Y-99085567D01*
X126846282Y-99085571D01*
X126844901Y-99094440D01*
X116001000Y-99094440D01*
X116001000Y-97694440D01*
X117044901Y-97694440D01*
X117046065Y-97703342D01*
X117046065Y-97703345D01*
X117060468Y-97813489D01*
X117060469Y-97813493D01*
X117061633Y-97822394D01*
X117113605Y-97940510D01*
X117119382Y-97947383D01*
X117119383Y-97947384D01*
X117188431Y-98029526D01*
X117196639Y-98039291D01*
X117304060Y-98110796D01*
X117372858Y-98132290D01*
X117418124Y-98146432D01*
X117427233Y-98149278D01*
X117436203Y-98149442D01*
X117436207Y-98149443D01*
X117494942Y-98150519D01*
X117556255Y-98151643D01*
X117627240Y-98132290D01*
X117672092Y-98120062D01*
X117672093Y-98120062D01*
X117680755Y-98117700D01*
X117688405Y-98113003D01*
X117688407Y-98113002D01*
X117783072Y-98054878D01*
X117783075Y-98054875D01*
X117790724Y-98050179D01*
X117799476Y-98040510D01*
X117871300Y-97961161D01*
X117871303Y-97961157D01*
X117877322Y-97954507D01*
X117906424Y-97894440D01*
X122044901Y-97894440D01*
X122046065Y-97903342D01*
X122046065Y-97903345D01*
X122060468Y-98013489D01*
X122060469Y-98013493D01*
X122061633Y-98022394D01*
X122073535Y-98049443D01*
X122101709Y-98113473D01*
X122113605Y-98140510D01*
X122119382Y-98147383D01*
X122119383Y-98147384D01*
X122172686Y-98210796D01*
X122196639Y-98239291D01*
X122304060Y-98310796D01*
X122427233Y-98349278D01*
X122436203Y-98349442D01*
X122436207Y-98349443D01*
X122494942Y-98350519D01*
X122556255Y-98351643D01*
X122618505Y-98334671D01*
X122672092Y-98320062D01*
X122672093Y-98320062D01*
X122680755Y-98317700D01*
X122688405Y-98313003D01*
X122688407Y-98313002D01*
X122783072Y-98254878D01*
X122783075Y-98254875D01*
X122790724Y-98250179D01*
X122796750Y-98243522D01*
X122871300Y-98161161D01*
X122871303Y-98161157D01*
X122877322Y-98154507D01*
X122933588Y-98038375D01*
X122937067Y-98017700D01*
X122954190Y-97915917D01*
X122954997Y-97911120D01*
X122955133Y-97900000D01*
X122944019Y-97822394D01*
X122938112Y-97781145D01*
X122938111Y-97781142D01*
X122936839Y-97772259D01*
X122901457Y-97694440D01*
X122887145Y-97662962D01*
X122887143Y-97662959D01*
X122883428Y-97654788D01*
X122857625Y-97624842D01*
X122831429Y-97594440D01*
X128744901Y-97594440D01*
X128746065Y-97603342D01*
X128746065Y-97603345D01*
X128760468Y-97713489D01*
X128760469Y-97713493D01*
X128761633Y-97722394D01*
X128765250Y-97730614D01*
X128801716Y-97813489D01*
X128813605Y-97840510D01*
X128819382Y-97847383D01*
X128819383Y-97847384D01*
X128882879Y-97922922D01*
X128896639Y-97939291D01*
X129004060Y-98010796D01*
X129072858Y-98032290D01*
X129118124Y-98046432D01*
X129127233Y-98049278D01*
X129136203Y-98049442D01*
X129136207Y-98049443D01*
X129194942Y-98050519D01*
X129256255Y-98051643D01*
X129363538Y-98022394D01*
X129372092Y-98020062D01*
X129372093Y-98020062D01*
X129380755Y-98017700D01*
X129388405Y-98013003D01*
X129388407Y-98013002D01*
X129483072Y-97954878D01*
X129483075Y-97954875D01*
X129490724Y-97950179D01*
X129551379Y-97883168D01*
X129611920Y-97846089D01*
X129682900Y-97847626D01*
X129741781Y-97887294D01*
X129760434Y-97922922D01*
X129761633Y-97922394D01*
X129801716Y-98013489D01*
X129813605Y-98040510D01*
X129819382Y-98047383D01*
X129819383Y-98047384D01*
X129872686Y-98110796D01*
X129896639Y-98139291D01*
X130004060Y-98210796D01*
X130127233Y-98249278D01*
X130136203Y-98249442D01*
X130136207Y-98249443D01*
X130194942Y-98250519D01*
X130256255Y-98251643D01*
X130326782Y-98232415D01*
X130372092Y-98220062D01*
X130372093Y-98220062D01*
X130380755Y-98217700D01*
X130388405Y-98213003D01*
X130388407Y-98213002D01*
X130483072Y-98154878D01*
X130483075Y-98154875D01*
X130490724Y-98150179D01*
X130499476Y-98140510D01*
X130571300Y-98061161D01*
X130571303Y-98061157D01*
X130577322Y-98054507D01*
X130633588Y-97938375D01*
X130637367Y-97915917D01*
X130654190Y-97815917D01*
X130654997Y-97811120D01*
X130655133Y-97800000D01*
X130644019Y-97722394D01*
X130638112Y-97681145D01*
X130638111Y-97681142D01*
X130636839Y-97672259D01*
X130630468Y-97658247D01*
X130587145Y-97562962D01*
X130587143Y-97562959D01*
X130583428Y-97554788D01*
X130548529Y-97514286D01*
X130505051Y-97463826D01*
X130505049Y-97463824D01*
X130499193Y-97457028D01*
X130390906Y-97386841D01*
X130382311Y-97384271D01*
X130382310Y-97384270D01*
X130275874Y-97352438D01*
X130275872Y-97352438D01*
X130267273Y-97349866D01*
X130258298Y-97349811D01*
X130258297Y-97349811D01*
X130203641Y-97349477D01*
X130138231Y-97349078D01*
X130089652Y-97362962D01*
X130022786Y-97382072D01*
X130022784Y-97382073D01*
X130014155Y-97384539D01*
X130006565Y-97389328D01*
X129913600Y-97447985D01*
X129905019Y-97453399D01*
X129885237Y-97475798D01*
X129849656Y-97516085D01*
X129789570Y-97553903D01*
X129718576Y-97553232D01*
X129659215Y-97514286D01*
X129636942Y-97472978D01*
X129636839Y-97472259D01*
X129603985Y-97400000D01*
X129587145Y-97362962D01*
X129587143Y-97362959D01*
X129583428Y-97354788D01*
X129557625Y-97324842D01*
X129505051Y-97263826D01*
X129505049Y-97263824D01*
X129499193Y-97257028D01*
X129390906Y-97186841D01*
X129382311Y-97184271D01*
X129382310Y-97184270D01*
X129275874Y-97152438D01*
X129275872Y-97152438D01*
X129267273Y-97149866D01*
X129258298Y-97149811D01*
X129258297Y-97149811D01*
X129203641Y-97149477D01*
X129138231Y-97149078D01*
X129126475Y-97152438D01*
X129022786Y-97182072D01*
X129022784Y-97182073D01*
X129014155Y-97184539D01*
X128905019Y-97253399D01*
X128899076Y-97260128D01*
X128899075Y-97260129D01*
X128871174Y-97291721D01*
X128819596Y-97350122D01*
X128815782Y-97358245D01*
X128815781Y-97358247D01*
X128801189Y-97389328D01*
X128764754Y-97466932D01*
X128757381Y-97514286D01*
X128746282Y-97585567D01*
X128746282Y-97585571D01*
X128744901Y-97594440D01*
X122831429Y-97594440D01*
X122805051Y-97563826D01*
X122805049Y-97563824D01*
X122799193Y-97557028D01*
X122690906Y-97486841D01*
X122682311Y-97484271D01*
X122682310Y-97484270D01*
X122575874Y-97452438D01*
X122575872Y-97452438D01*
X122567273Y-97449866D01*
X122558298Y-97449811D01*
X122558297Y-97449811D01*
X122503641Y-97449477D01*
X122438231Y-97449078D01*
X122376193Y-97466808D01*
X122322786Y-97482072D01*
X122322784Y-97482073D01*
X122314155Y-97484539D01*
X122306565Y-97489328D01*
X122213600Y-97547985D01*
X122205019Y-97553399D01*
X122199076Y-97560128D01*
X122199075Y-97560129D01*
X122176609Y-97585567D01*
X122119596Y-97650122D01*
X122115782Y-97658245D01*
X122115781Y-97658247D01*
X122096178Y-97700000D01*
X122064754Y-97766932D01*
X122058849Y-97804859D01*
X122046282Y-97885567D01*
X122046282Y-97885571D01*
X122044901Y-97894440D01*
X117906424Y-97894440D01*
X117933588Y-97838375D01*
X117937367Y-97815917D01*
X117954190Y-97715917D01*
X117954997Y-97711120D01*
X117955133Y-97700000D01*
X117947026Y-97643394D01*
X117938112Y-97581145D01*
X117938111Y-97581142D01*
X117936839Y-97572259D01*
X117929914Y-97557028D01*
X117887145Y-97462962D01*
X117887143Y-97462959D01*
X117883428Y-97454788D01*
X117836220Y-97400000D01*
X117805051Y-97363826D01*
X117805049Y-97363824D01*
X117799193Y-97357028D01*
X117690906Y-97286841D01*
X117682311Y-97284271D01*
X117682310Y-97284270D01*
X117575874Y-97252438D01*
X117575872Y-97252438D01*
X117567273Y-97249866D01*
X117558298Y-97249811D01*
X117558297Y-97249811D01*
X117503641Y-97249477D01*
X117438231Y-97249078D01*
X117386629Y-97263826D01*
X117322786Y-97282072D01*
X117322784Y-97282073D01*
X117314155Y-97284539D01*
X117306565Y-97289328D01*
X117213600Y-97347985D01*
X117205019Y-97353399D01*
X117199076Y-97360128D01*
X117199075Y-97360129D01*
X117171174Y-97391721D01*
X117119596Y-97450122D01*
X117115782Y-97458245D01*
X117115781Y-97458247D01*
X117101189Y-97489328D01*
X117064754Y-97566932D01*
X117057874Y-97611120D01*
X117046282Y-97685567D01*
X117046282Y-97685571D01*
X117044901Y-97694440D01*
X116001000Y-97694440D01*
X116001000Y-97000198D01*
X116001082Y-97000000D01*
X116000765Y-96999235D01*
X116000198Y-96999000D01*
X116000000Y-96998918D01*
X115999802Y-96999000D01*
X115526000Y-96999000D01*
X115457879Y-96978998D01*
X115411386Y-96925342D01*
X115400000Y-96873000D01*
X115400000Y-96294440D01*
X124144901Y-96294440D01*
X124146065Y-96303342D01*
X124146065Y-96303345D01*
X124160468Y-96413489D01*
X124160469Y-96413493D01*
X124161633Y-96422394D01*
X124171258Y-96444268D01*
X124201709Y-96513473D01*
X124213605Y-96540510D01*
X124219382Y-96547383D01*
X124219383Y-96547384D01*
X124222963Y-96551643D01*
X124296639Y-96639291D01*
X124404060Y-96710796D01*
X124527233Y-96749278D01*
X124536203Y-96749442D01*
X124536207Y-96749443D01*
X124594942Y-96750519D01*
X124656255Y-96751643D01*
X124718505Y-96734672D01*
X124772092Y-96720062D01*
X124772093Y-96720062D01*
X124780755Y-96717700D01*
X124788405Y-96713003D01*
X124788407Y-96713002D01*
X124883072Y-96654878D01*
X124883075Y-96654875D01*
X124890724Y-96650179D01*
X124896750Y-96643522D01*
X124971300Y-96561161D01*
X124971303Y-96561157D01*
X124977322Y-96554507D01*
X125033588Y-96438375D01*
X125054997Y-96311120D01*
X125055133Y-96300000D01*
X125036839Y-96172259D01*
X125001457Y-96094440D01*
X130044901Y-96094440D01*
X130046065Y-96103342D01*
X130046065Y-96103345D01*
X130060468Y-96213489D01*
X130060469Y-96213493D01*
X130061633Y-96222394D01*
X130113605Y-96340510D01*
X130119382Y-96347383D01*
X130119383Y-96347384D01*
X130188431Y-96429526D01*
X130196639Y-96439291D01*
X130304060Y-96510796D01*
X130372858Y-96532290D01*
X130418124Y-96546432D01*
X130427233Y-96549278D01*
X130436203Y-96549442D01*
X130436207Y-96549443D01*
X130494942Y-96550519D01*
X130556255Y-96551643D01*
X130627240Y-96532290D01*
X130672092Y-96520062D01*
X130672093Y-96520062D01*
X130680755Y-96517700D01*
X130688405Y-96513003D01*
X130688407Y-96513002D01*
X130783072Y-96454878D01*
X130783075Y-96454875D01*
X130790724Y-96450179D01*
X130796750Y-96443522D01*
X130871300Y-96361161D01*
X130871303Y-96361157D01*
X130877322Y-96354507D01*
X130933588Y-96238375D01*
X130946086Y-96164090D01*
X130954190Y-96115917D01*
X130954997Y-96111120D01*
X130955133Y-96100000D01*
X130936839Y-95972259D01*
X130926086Y-95948608D01*
X130887145Y-95862962D01*
X130887143Y-95862959D01*
X130883428Y-95854788D01*
X130799193Y-95757028D01*
X130690906Y-95686841D01*
X130682311Y-95684271D01*
X130682310Y-95684270D01*
X130575874Y-95652438D01*
X130575872Y-95652438D01*
X130567273Y-95649866D01*
X130558298Y-95649811D01*
X130558297Y-95649811D01*
X130503641Y-95649477D01*
X130438231Y-95649078D01*
X130426475Y-95652438D01*
X130322786Y-95682072D01*
X130322784Y-95682073D01*
X130314155Y-95684539D01*
X130205019Y-95753399D01*
X130119596Y-95850122D01*
X130115782Y-95858245D01*
X130115781Y-95858247D01*
X130101189Y-95889328D01*
X130064754Y-95966932D01*
X130063374Y-95975798D01*
X130046282Y-96085567D01*
X130046282Y-96085571D01*
X130044901Y-96094440D01*
X125001457Y-96094440D01*
X124987145Y-96062962D01*
X124987143Y-96062959D01*
X124983428Y-96054788D01*
X124957625Y-96024842D01*
X124905051Y-95963826D01*
X124905049Y-95963824D01*
X124899193Y-95957028D01*
X124790906Y-95886841D01*
X124782311Y-95884271D01*
X124782310Y-95884270D01*
X124675874Y-95852438D01*
X124675872Y-95852438D01*
X124667273Y-95849866D01*
X124658298Y-95849811D01*
X124658297Y-95849811D01*
X124603641Y-95849477D01*
X124538231Y-95849078D01*
X124489652Y-95862962D01*
X124422786Y-95882072D01*
X124422784Y-95882073D01*
X124414155Y-95884539D01*
X124305019Y-95953399D01*
X124299076Y-95960128D01*
X124299075Y-95960129D01*
X124231351Y-96036812D01*
X124219596Y-96050122D01*
X124215782Y-96058245D01*
X124215781Y-96058247D01*
X124196178Y-96100000D01*
X124164754Y-96166932D01*
X124163374Y-96175798D01*
X124146282Y-96285567D01*
X124146282Y-96285571D01*
X124144901Y-96294440D01*
X115400000Y-96294440D01*
X115400000Y-94494440D01*
X124144901Y-94494440D01*
X124146065Y-94503342D01*
X124146065Y-94503345D01*
X124160468Y-94613489D01*
X124160469Y-94613493D01*
X124161633Y-94622394D01*
X124213605Y-94740510D01*
X124296639Y-94839291D01*
X124404060Y-94910796D01*
X124527233Y-94949278D01*
X124536203Y-94949442D01*
X124536207Y-94949443D01*
X124594942Y-94950519D01*
X124656255Y-94951643D01*
X124718505Y-94934671D01*
X124772092Y-94920062D01*
X124772093Y-94920062D01*
X124780755Y-94917700D01*
X124788405Y-94913003D01*
X124788407Y-94913002D01*
X124883072Y-94854878D01*
X124883075Y-94854875D01*
X124890724Y-94850179D01*
X124896750Y-94843522D01*
X124971300Y-94761161D01*
X124971303Y-94761157D01*
X124973127Y-94759142D01*
X130180199Y-94759142D01*
X130181363Y-94768044D01*
X130181363Y-94768047D01*
X130195766Y-94878191D01*
X130195767Y-94878195D01*
X130196931Y-94887096D01*
X130248903Y-95005212D01*
X130331937Y-95103993D01*
X130439358Y-95175498D01*
X130562531Y-95213980D01*
X130571501Y-95214144D01*
X130571505Y-95214145D01*
X130630240Y-95215221D01*
X130691553Y-95216345D01*
X130753803Y-95199373D01*
X130807390Y-95184764D01*
X130807391Y-95184764D01*
X130816053Y-95182402D01*
X130823703Y-95177705D01*
X130823705Y-95177704D01*
X130918370Y-95119580D01*
X130918373Y-95119577D01*
X130926022Y-95114881D01*
X130932048Y-95108224D01*
X131006598Y-95025863D01*
X131006601Y-95025859D01*
X131012620Y-95019209D01*
X131068886Y-94903077D01*
X131077786Y-94850179D01*
X131089488Y-94780619D01*
X131090295Y-94775822D01*
X131090431Y-94764702D01*
X131072137Y-94636961D01*
X131018726Y-94519490D01*
X130934491Y-94421730D01*
X130826204Y-94351543D01*
X130817609Y-94348973D01*
X130817608Y-94348972D01*
X130711172Y-94317140D01*
X130711170Y-94317140D01*
X130702571Y-94314568D01*
X130693596Y-94314513D01*
X130693595Y-94314513D01*
X130638939Y-94314179D01*
X130573529Y-94313780D01*
X130561773Y-94317140D01*
X130458084Y-94346774D01*
X130458082Y-94346775D01*
X130449453Y-94349241D01*
X130340317Y-94418101D01*
X130254894Y-94514824D01*
X130251080Y-94522947D01*
X130251079Y-94522949D01*
X130225092Y-94578300D01*
X130200052Y-94631634D01*
X130190924Y-94690260D01*
X130181580Y-94750269D01*
X130181580Y-94750273D01*
X130180199Y-94759142D01*
X124973127Y-94759142D01*
X124977322Y-94754507D01*
X125033588Y-94638375D01*
X125054997Y-94511120D01*
X125055133Y-94500000D01*
X125047748Y-94448433D01*
X125038112Y-94381145D01*
X125038111Y-94381142D01*
X125036839Y-94372259D01*
X125027420Y-94351543D01*
X124987145Y-94262962D01*
X124987143Y-94262959D01*
X124983428Y-94254788D01*
X124899193Y-94157028D01*
X124790906Y-94086841D01*
X124782311Y-94084271D01*
X124782310Y-94084270D01*
X124675874Y-94052438D01*
X124675872Y-94052438D01*
X124667273Y-94049866D01*
X124658298Y-94049811D01*
X124658297Y-94049811D01*
X124603641Y-94049477D01*
X124538231Y-94049078D01*
X124476193Y-94066808D01*
X124422786Y-94082072D01*
X124422784Y-94082073D01*
X124414155Y-94084539D01*
X124305019Y-94153399D01*
X124219596Y-94250122D01*
X124215782Y-94258245D01*
X124215781Y-94258247D01*
X124189794Y-94313598D01*
X124164754Y-94366932D01*
X124163374Y-94375798D01*
X124146282Y-94485567D01*
X124146282Y-94485571D01*
X124144901Y-94494440D01*
X115400000Y-94494440D01*
X115400000Y-93694440D01*
X128644901Y-93694440D01*
X128646065Y-93703342D01*
X128646065Y-93703345D01*
X128660468Y-93813489D01*
X128660469Y-93813493D01*
X128661633Y-93822394D01*
X128713605Y-93940510D01*
X128796639Y-94039291D01*
X128904060Y-94110796D01*
X129027233Y-94149278D01*
X129036203Y-94149442D01*
X129036207Y-94149443D01*
X129094942Y-94150519D01*
X129156255Y-94151643D01*
X129218505Y-94134671D01*
X129272092Y-94120062D01*
X129272093Y-94120062D01*
X129280755Y-94117700D01*
X129288405Y-94113003D01*
X129288407Y-94113002D01*
X129383072Y-94054878D01*
X129383075Y-94054875D01*
X129390724Y-94050179D01*
X129396750Y-94043522D01*
X129471300Y-93961161D01*
X129471303Y-93961157D01*
X129477322Y-93954507D01*
X129533588Y-93838375D01*
X129554997Y-93711120D01*
X129555133Y-93700000D01*
X129543347Y-93617700D01*
X129538112Y-93581145D01*
X129538111Y-93581142D01*
X129536839Y-93572259D01*
X129530724Y-93558809D01*
X129487145Y-93462962D01*
X129487143Y-93462959D01*
X129483428Y-93454788D01*
X129399193Y-93357028D01*
X129290906Y-93286841D01*
X129282311Y-93284271D01*
X129282310Y-93284270D01*
X129175874Y-93252438D01*
X129175872Y-93252438D01*
X129167273Y-93249866D01*
X129158298Y-93249811D01*
X129158297Y-93249811D01*
X129103641Y-93249477D01*
X129038231Y-93249078D01*
X129026475Y-93252438D01*
X128922786Y-93282072D01*
X128922784Y-93282073D01*
X128914155Y-93284539D01*
X128805019Y-93353399D01*
X128719596Y-93450122D01*
X128715782Y-93458245D01*
X128715781Y-93458247D01*
X128689794Y-93513598D01*
X128664754Y-93566932D01*
X128657581Y-93613002D01*
X128646282Y-93685567D01*
X128646282Y-93685571D01*
X128644901Y-93694440D01*
X115400000Y-93694440D01*
X115400000Y-93194440D01*
X124944901Y-93194440D01*
X124946065Y-93203342D01*
X124946065Y-93203345D01*
X124960468Y-93313489D01*
X124960469Y-93313493D01*
X124961633Y-93322394D01*
X125013605Y-93440510D01*
X125096639Y-93539291D01*
X125204060Y-93610796D01*
X125327233Y-93649278D01*
X125336203Y-93649442D01*
X125336207Y-93649443D01*
X125394942Y-93650519D01*
X125456255Y-93651643D01*
X125518505Y-93634671D01*
X125572092Y-93620062D01*
X125572093Y-93620062D01*
X125580755Y-93617700D01*
X125588405Y-93613003D01*
X125588407Y-93613002D01*
X125683072Y-93554878D01*
X125683075Y-93554875D01*
X125690724Y-93550179D01*
X125696750Y-93543522D01*
X125771300Y-93461161D01*
X125771303Y-93461157D01*
X125777322Y-93454507D01*
X125833588Y-93338375D01*
X125842691Y-93284270D01*
X125854190Y-93215917D01*
X125854997Y-93211120D01*
X125855133Y-93200000D01*
X125836839Y-93072259D01*
X125783428Y-92954788D01*
X125699193Y-92857028D01*
X125590906Y-92786841D01*
X125582311Y-92784271D01*
X125582310Y-92784270D01*
X125475874Y-92752438D01*
X125475872Y-92752438D01*
X125467273Y-92749866D01*
X125458298Y-92749811D01*
X125458297Y-92749811D01*
X125403641Y-92749477D01*
X125338231Y-92749078D01*
X125276193Y-92766809D01*
X125222786Y-92782072D01*
X125222784Y-92782073D01*
X125214155Y-92784539D01*
X125105019Y-92853399D01*
X125019596Y-92950122D01*
X125015782Y-92958245D01*
X125015781Y-92958247D01*
X124989794Y-93013598D01*
X124964754Y-93066932D01*
X124963374Y-93075798D01*
X124946282Y-93185567D01*
X124946282Y-93185571D01*
X124944901Y-93194440D01*
X115400000Y-93194440D01*
X115400000Y-92192795D01*
X126613852Y-92192795D01*
X126615016Y-92201697D01*
X126615016Y-92201700D01*
X126629419Y-92311844D01*
X126629420Y-92311848D01*
X126630584Y-92320749D01*
X126682556Y-92438865D01*
X126765590Y-92537646D01*
X126873011Y-92609151D01*
X126996184Y-92647633D01*
X127005154Y-92647797D01*
X127005158Y-92647798D01*
X127063893Y-92648874D01*
X127125206Y-92649998D01*
X127190157Y-92632290D01*
X127241043Y-92618417D01*
X127241044Y-92618417D01*
X127249706Y-92616055D01*
X127257356Y-92611358D01*
X127257358Y-92611357D01*
X127352023Y-92553233D01*
X127352026Y-92553230D01*
X127359675Y-92548534D01*
X127365701Y-92541877D01*
X127440251Y-92459516D01*
X127440254Y-92459512D01*
X127446273Y-92452862D01*
X127474578Y-92394440D01*
X128844901Y-92394440D01*
X128846065Y-92403342D01*
X128846065Y-92403345D01*
X128860468Y-92513489D01*
X128860469Y-92513493D01*
X128861633Y-92522394D01*
X128913605Y-92640510D01*
X128996639Y-92739291D01*
X129104060Y-92810796D01*
X129227233Y-92849278D01*
X129236203Y-92849442D01*
X129236207Y-92849443D01*
X129294942Y-92850519D01*
X129356255Y-92851643D01*
X129418505Y-92834671D01*
X129472092Y-92820062D01*
X129472093Y-92820062D01*
X129480755Y-92817700D01*
X129488405Y-92813003D01*
X129488407Y-92813002D01*
X129583072Y-92754878D01*
X129583075Y-92754875D01*
X129590724Y-92750179D01*
X129596750Y-92743522D01*
X129671300Y-92661161D01*
X129671303Y-92661157D01*
X129677322Y-92654507D01*
X129733588Y-92538375D01*
X129747975Y-92452862D01*
X129754190Y-92415917D01*
X129754997Y-92411120D01*
X129755133Y-92400000D01*
X129744805Y-92327881D01*
X129738112Y-92281145D01*
X129738111Y-92281142D01*
X129736839Y-92272259D01*
X129708293Y-92209475D01*
X129687145Y-92162962D01*
X129687143Y-92162959D01*
X129683428Y-92154788D01*
X129613949Y-92074153D01*
X129605051Y-92063826D01*
X129605049Y-92063824D01*
X129599193Y-92057028D01*
X129490906Y-91986841D01*
X129482311Y-91984271D01*
X129482310Y-91984270D01*
X129375874Y-91952438D01*
X129375872Y-91952438D01*
X129367273Y-91949866D01*
X129358298Y-91949811D01*
X129358297Y-91949811D01*
X129303641Y-91949477D01*
X129238231Y-91949078D01*
X129176193Y-91966809D01*
X129122786Y-91982072D01*
X129122784Y-91982073D01*
X129114155Y-91984539D01*
X129005019Y-92053399D01*
X128999076Y-92060128D01*
X128999075Y-92060129D01*
X128981967Y-92079500D01*
X128919596Y-92150122D01*
X128915782Y-92158245D01*
X128915781Y-92158247D01*
X128903727Y-92183922D01*
X128864754Y-92266932D01*
X128863374Y-92275798D01*
X128846282Y-92385567D01*
X128846282Y-92385571D01*
X128844901Y-92394440D01*
X127474578Y-92394440D01*
X127502539Y-92336730D01*
X127511891Y-92281145D01*
X127523141Y-92214272D01*
X127523948Y-92209475D01*
X127524084Y-92198355D01*
X127505790Y-92070614D01*
X127497394Y-92052148D01*
X127456096Y-91961317D01*
X127456094Y-91961314D01*
X127452379Y-91953143D01*
X127368144Y-91855383D01*
X127259857Y-91785196D01*
X127251262Y-91782626D01*
X127251261Y-91782625D01*
X127144825Y-91750793D01*
X127144823Y-91750793D01*
X127136224Y-91748221D01*
X127127249Y-91748166D01*
X127127248Y-91748166D01*
X127072592Y-91747832D01*
X127007182Y-91747433D01*
X126995426Y-91750793D01*
X126891737Y-91780427D01*
X126891735Y-91780428D01*
X126883106Y-91782894D01*
X126773970Y-91851754D01*
X126688547Y-91948477D01*
X126684733Y-91956600D01*
X126684732Y-91956602D01*
X126668244Y-91991721D01*
X126633705Y-92065287D01*
X126632325Y-92074153D01*
X126615233Y-92183922D01*
X126615233Y-92183926D01*
X126613852Y-92192795D01*
X115400000Y-92192795D01*
X115400000Y-89944440D01*
X123544901Y-89944440D01*
X123546065Y-89953342D01*
X123546065Y-89953345D01*
X123560468Y-90063489D01*
X123560469Y-90063493D01*
X123561633Y-90072394D01*
X123613605Y-90190510D01*
X123696639Y-90289291D01*
X123804060Y-90360796D01*
X123927233Y-90399278D01*
X123936203Y-90399442D01*
X123936207Y-90399443D01*
X123994942Y-90400519D01*
X124056255Y-90401643D01*
X124118505Y-90384672D01*
X124172092Y-90370062D01*
X124172093Y-90370062D01*
X124180755Y-90367700D01*
X124188405Y-90363003D01*
X124188407Y-90363002D01*
X124283072Y-90304878D01*
X124283075Y-90304875D01*
X124290724Y-90300179D01*
X124296750Y-90293522D01*
X124371300Y-90211161D01*
X124371303Y-90211157D01*
X124377322Y-90204507D01*
X124433588Y-90088375D01*
X124454997Y-89961120D01*
X124455133Y-89950000D01*
X124436839Y-89822259D01*
X124399863Y-89740934D01*
X124387145Y-89712962D01*
X124387143Y-89712959D01*
X124383428Y-89704788D01*
X124321553Y-89632978D01*
X124305051Y-89613826D01*
X124305049Y-89613824D01*
X124299193Y-89607028D01*
X124190906Y-89536841D01*
X124182311Y-89534271D01*
X124182310Y-89534270D01*
X124075874Y-89502438D01*
X124075872Y-89502438D01*
X124067273Y-89499866D01*
X124058298Y-89499811D01*
X124058297Y-89499811D01*
X124003641Y-89499477D01*
X123938231Y-89499078D01*
X123926475Y-89502438D01*
X123822786Y-89532072D01*
X123822784Y-89532073D01*
X123814155Y-89534539D01*
X123705019Y-89603399D01*
X123699076Y-89610128D01*
X123699075Y-89610129D01*
X123678237Y-89633724D01*
X123619596Y-89700122D01*
X123615782Y-89708245D01*
X123615781Y-89708247D01*
X123601468Y-89738734D01*
X123564754Y-89816932D01*
X123563374Y-89825798D01*
X123546282Y-89935567D01*
X123546282Y-89935571D01*
X123544901Y-89944440D01*
X115400000Y-89944440D01*
X115400000Y-89283896D01*
X116781704Y-89283896D01*
X116782868Y-89292798D01*
X116782868Y-89292801D01*
X116797271Y-89402945D01*
X116797272Y-89402949D01*
X116798436Y-89411850D01*
X116802053Y-89420070D01*
X116837903Y-89501545D01*
X116850408Y-89529966D01*
X116856185Y-89536839D01*
X116856186Y-89536840D01*
X116927662Y-89621871D01*
X116933442Y-89628747D01*
X117040863Y-89700252D01*
X117164036Y-89738734D01*
X117173006Y-89738898D01*
X117173010Y-89738899D01*
X117231745Y-89739975D01*
X117293058Y-89741099D01*
X117355308Y-89724128D01*
X117408895Y-89709518D01*
X117408896Y-89709518D01*
X117417558Y-89707156D01*
X117425208Y-89702459D01*
X117425210Y-89702458D01*
X117519875Y-89644334D01*
X117519878Y-89644331D01*
X117527527Y-89639635D01*
X117533553Y-89632978D01*
X117608103Y-89550617D01*
X117608106Y-89550613D01*
X117614125Y-89543963D01*
X117670391Y-89427831D01*
X117691800Y-89300576D01*
X117691936Y-89289456D01*
X117673642Y-89161715D01*
X117620231Y-89044244D01*
X117535996Y-88946484D01*
X117427709Y-88876297D01*
X117419114Y-88873727D01*
X117419113Y-88873726D01*
X117312677Y-88841894D01*
X117312675Y-88841894D01*
X117304076Y-88839322D01*
X117295101Y-88839267D01*
X117295100Y-88839267D01*
X117240444Y-88838933D01*
X117175034Y-88838534D01*
X117163278Y-88841894D01*
X117059589Y-88871528D01*
X117059587Y-88871529D01*
X117050958Y-88873995D01*
X116941822Y-88942855D01*
X116856399Y-89039578D01*
X116852585Y-89047701D01*
X116852584Y-89047703D01*
X116826597Y-89103054D01*
X116801557Y-89156388D01*
X116800177Y-89165254D01*
X116783085Y-89275023D01*
X116783085Y-89275027D01*
X116781704Y-89283896D01*
X115400000Y-89283896D01*
X115400000Y-87744440D01*
X122994901Y-87744440D01*
X122996065Y-87753342D01*
X122996065Y-87753345D01*
X123010468Y-87863489D01*
X123010469Y-87863493D01*
X123011633Y-87872394D01*
X123063605Y-87990510D01*
X123146639Y-88089291D01*
X123254060Y-88160796D01*
X123377233Y-88199278D01*
X123386203Y-88199442D01*
X123386207Y-88199443D01*
X123444942Y-88200519D01*
X123506255Y-88201643D01*
X123568505Y-88184672D01*
X123622092Y-88170062D01*
X123622093Y-88170062D01*
X123630755Y-88167700D01*
X123638405Y-88163003D01*
X123638407Y-88163002D01*
X123733072Y-88104878D01*
X123733075Y-88104875D01*
X123740724Y-88100179D01*
X123746750Y-88093522D01*
X123821300Y-88011161D01*
X123821303Y-88011157D01*
X123827322Y-88004507D01*
X123883588Y-87888375D01*
X123904997Y-87761120D01*
X123905133Y-87750000D01*
X123886839Y-87622259D01*
X123864856Y-87573909D01*
X123837145Y-87512962D01*
X123837143Y-87512959D01*
X123833428Y-87504788D01*
X123749193Y-87407028D01*
X123640906Y-87336841D01*
X123632311Y-87334271D01*
X123632310Y-87334270D01*
X123525874Y-87302438D01*
X123525872Y-87302438D01*
X123517273Y-87299866D01*
X123508298Y-87299811D01*
X123508297Y-87299811D01*
X123453641Y-87299477D01*
X123388231Y-87299078D01*
X123376475Y-87302438D01*
X123272786Y-87332072D01*
X123272784Y-87332073D01*
X123264155Y-87334539D01*
X123256565Y-87339328D01*
X123186673Y-87383427D01*
X123155019Y-87403399D01*
X123149076Y-87410128D01*
X123149075Y-87410129D01*
X123081351Y-87486812D01*
X123069596Y-87500122D01*
X123065782Y-87508245D01*
X123065781Y-87508247D01*
X123054131Y-87533062D01*
X123014754Y-87616932D01*
X123013374Y-87625798D01*
X122996282Y-87735567D01*
X122996282Y-87735571D01*
X122994901Y-87744440D01*
X115400000Y-87744440D01*
X115400000Y-87116342D01*
X119054337Y-87116342D01*
X119055501Y-87125244D01*
X119055501Y-87125247D01*
X119069904Y-87235391D01*
X119069905Y-87235395D01*
X119071069Y-87244296D01*
X119074686Y-87252516D01*
X119111790Y-87336841D01*
X119123041Y-87362412D01*
X119128818Y-87369285D01*
X119128819Y-87369286D01*
X119163151Y-87410129D01*
X119206075Y-87461193D01*
X119213552Y-87466170D01*
X119264558Y-87500122D01*
X119313496Y-87532698D01*
X119436669Y-87571180D01*
X119445639Y-87571344D01*
X119445643Y-87571345D01*
X119504378Y-87572421D01*
X119565691Y-87573545D01*
X119627941Y-87556573D01*
X119681528Y-87541964D01*
X119681529Y-87541964D01*
X119690191Y-87539602D01*
X119697841Y-87534905D01*
X119697843Y-87534904D01*
X119792508Y-87476780D01*
X119792511Y-87476777D01*
X119800160Y-87472081D01*
X119809686Y-87461557D01*
X119880736Y-87383063D01*
X119880739Y-87383059D01*
X119886758Y-87376409D01*
X119943024Y-87260277D01*
X119945652Y-87244660D01*
X119963626Y-87137819D01*
X119964433Y-87133022D01*
X119964569Y-87121902D01*
X119963825Y-87116706D01*
X121067167Y-87116706D01*
X121068331Y-87125608D01*
X121068331Y-87125611D01*
X121082734Y-87235755D01*
X121082735Y-87235759D01*
X121083899Y-87244660D01*
X121135871Y-87362776D01*
X121141648Y-87369649D01*
X121141649Y-87369650D01*
X121175675Y-87410129D01*
X121218905Y-87461557D01*
X121326326Y-87533062D01*
X121449499Y-87571544D01*
X121458469Y-87571708D01*
X121458473Y-87571709D01*
X121517208Y-87572785D01*
X121578521Y-87573909D01*
X121640771Y-87556937D01*
X121694358Y-87542328D01*
X121694359Y-87542328D01*
X121703021Y-87539966D01*
X121710671Y-87535269D01*
X121710673Y-87535268D01*
X121805338Y-87477144D01*
X121805341Y-87477141D01*
X121812990Y-87472445D01*
X121819345Y-87465424D01*
X121893566Y-87383427D01*
X121893569Y-87383423D01*
X121899588Y-87376773D01*
X121955854Y-87260641D01*
X121977263Y-87133386D01*
X121977399Y-87122266D01*
X121959105Y-86994525D01*
X121905694Y-86877054D01*
X121821459Y-86779294D01*
X121713172Y-86709107D01*
X121704577Y-86706537D01*
X121704576Y-86706536D01*
X121598140Y-86674704D01*
X121598138Y-86674704D01*
X121589539Y-86672132D01*
X121580564Y-86672077D01*
X121580563Y-86672077D01*
X121525907Y-86671743D01*
X121460497Y-86671344D01*
X121448741Y-86674704D01*
X121345052Y-86704338D01*
X121345050Y-86704339D01*
X121336421Y-86706805D01*
X121227285Y-86775665D01*
X121221342Y-86782394D01*
X121221341Y-86782395D01*
X121218076Y-86786092D01*
X121141862Y-86872388D01*
X121138048Y-86880511D01*
X121138047Y-86880513D01*
X121112060Y-86935864D01*
X121087020Y-86989198D01*
X121085640Y-86998064D01*
X121068548Y-87107833D01*
X121068548Y-87107837D01*
X121067167Y-87116706D01*
X119963825Y-87116706D01*
X119946275Y-86994161D01*
X119940160Y-86980711D01*
X119896581Y-86884864D01*
X119896579Y-86884861D01*
X119892864Y-86876690D01*
X119867061Y-86846744D01*
X119814487Y-86785728D01*
X119814485Y-86785726D01*
X119808629Y-86778930D01*
X119700342Y-86708743D01*
X119691747Y-86706173D01*
X119691746Y-86706172D01*
X119585310Y-86674340D01*
X119585308Y-86674340D01*
X119576709Y-86671768D01*
X119567734Y-86671713D01*
X119567733Y-86671713D01*
X119513077Y-86671379D01*
X119447667Y-86670980D01*
X119385629Y-86688711D01*
X119332222Y-86703974D01*
X119332220Y-86703975D01*
X119323591Y-86706441D01*
X119214455Y-86775301D01*
X119208512Y-86782030D01*
X119208511Y-86782031D01*
X119140787Y-86858714D01*
X119129032Y-86872024D01*
X119125218Y-86880147D01*
X119125217Y-86880149D01*
X119099230Y-86935500D01*
X119074190Y-86988834D01*
X119065062Y-87047460D01*
X119055718Y-87107469D01*
X119055718Y-87107473D01*
X119054337Y-87116342D01*
X115400000Y-87116342D01*
X115400000Y-85644440D01*
X119044901Y-85644440D01*
X119046065Y-85653342D01*
X119046065Y-85653345D01*
X119060468Y-85763489D01*
X119060469Y-85763493D01*
X119061633Y-85772394D01*
X119113605Y-85890510D01*
X119119382Y-85897383D01*
X119119383Y-85897384D01*
X119172686Y-85960796D01*
X119196639Y-85989291D01*
X119304060Y-86060796D01*
X119427233Y-86099278D01*
X119436203Y-86099442D01*
X119436207Y-86099443D01*
X119494942Y-86100519D01*
X119556255Y-86101643D01*
X119618505Y-86084672D01*
X119672092Y-86070062D01*
X119672093Y-86070062D01*
X119680755Y-86067700D01*
X119688405Y-86063003D01*
X119688407Y-86063002D01*
X119783072Y-86004878D01*
X119783075Y-86004875D01*
X119790724Y-86000179D01*
X119796750Y-85993522D01*
X119871300Y-85911161D01*
X119871303Y-85911157D01*
X119877322Y-85904507D01*
X119933588Y-85788375D01*
X119954997Y-85661120D01*
X119955133Y-85650000D01*
X119947748Y-85598433D01*
X119940016Y-85544440D01*
X123954403Y-85544440D01*
X123955567Y-85553342D01*
X123955567Y-85553345D01*
X123969970Y-85663489D01*
X123969971Y-85663493D01*
X123971135Y-85672394D01*
X123974752Y-85680614D01*
X124011218Y-85763489D01*
X124023107Y-85790510D01*
X124106141Y-85889291D01*
X124213562Y-85960796D01*
X124336735Y-85999278D01*
X124345705Y-85999442D01*
X124345709Y-85999443D01*
X124404444Y-86000519D01*
X124465757Y-86001643D01*
X124536284Y-85982415D01*
X124581594Y-85970062D01*
X124581595Y-85970062D01*
X124590257Y-85967700D01*
X124597907Y-85963003D01*
X124597909Y-85963002D01*
X124692574Y-85904878D01*
X124692577Y-85904875D01*
X124700226Y-85900179D01*
X124708978Y-85890510D01*
X124780802Y-85811161D01*
X124780805Y-85811157D01*
X124786824Y-85804507D01*
X124843090Y-85688375D01*
X124846869Y-85665917D01*
X124863692Y-85565917D01*
X124864499Y-85561120D01*
X124864635Y-85550000D01*
X124846341Y-85422259D01*
X124839970Y-85408247D01*
X124796647Y-85312962D01*
X124796645Y-85312959D01*
X124792930Y-85304788D01*
X124767127Y-85274842D01*
X124714553Y-85213826D01*
X124714551Y-85213824D01*
X124708695Y-85207028D01*
X124600408Y-85136841D01*
X124591813Y-85134271D01*
X124591812Y-85134270D01*
X124485376Y-85102438D01*
X124485374Y-85102438D01*
X124476775Y-85099866D01*
X124467800Y-85099811D01*
X124467799Y-85099811D01*
X124413143Y-85099477D01*
X124347733Y-85099078D01*
X124335977Y-85102438D01*
X124232288Y-85132072D01*
X124232286Y-85132073D01*
X124223657Y-85134539D01*
X124114521Y-85203399D01*
X124108578Y-85210128D01*
X124108577Y-85210129D01*
X124080676Y-85241721D01*
X124029098Y-85300122D01*
X124025284Y-85308245D01*
X124025283Y-85308247D01*
X124022664Y-85313826D01*
X123974256Y-85416932D01*
X123972876Y-85425798D01*
X123955784Y-85535567D01*
X123955784Y-85535571D01*
X123954403Y-85544440D01*
X119940016Y-85544440D01*
X119938112Y-85531145D01*
X119938111Y-85531142D01*
X119936839Y-85522259D01*
X119888950Y-85416932D01*
X119887145Y-85412962D01*
X119887143Y-85412959D01*
X119883428Y-85404788D01*
X119799193Y-85307028D01*
X119690906Y-85236841D01*
X119682311Y-85234271D01*
X119682310Y-85234270D01*
X119575874Y-85202438D01*
X119575872Y-85202438D01*
X119567273Y-85199866D01*
X119558298Y-85199811D01*
X119558297Y-85199811D01*
X119503641Y-85199477D01*
X119438231Y-85199078D01*
X119386629Y-85213826D01*
X119322786Y-85232072D01*
X119322784Y-85232073D01*
X119314155Y-85234539D01*
X119306565Y-85239328D01*
X119213600Y-85297985D01*
X119205019Y-85303399D01*
X119119596Y-85400122D01*
X119115782Y-85408245D01*
X119115781Y-85408247D01*
X119107541Y-85425798D01*
X119064754Y-85516932D01*
X119058849Y-85554859D01*
X119046282Y-85635567D01*
X119046282Y-85635571D01*
X119044901Y-85644440D01*
X115400000Y-85644440D01*
X115400000Y-84594440D01*
X117344901Y-84594440D01*
X117346065Y-84603342D01*
X117346065Y-84603345D01*
X117360468Y-84713489D01*
X117360469Y-84713493D01*
X117361633Y-84722394D01*
X117413605Y-84840510D01*
X117496639Y-84939291D01*
X117604060Y-85010796D01*
X117727233Y-85049278D01*
X117736203Y-85049442D01*
X117736207Y-85049443D01*
X117794942Y-85050519D01*
X117856255Y-85051643D01*
X117918505Y-85034671D01*
X117972092Y-85020062D01*
X117972093Y-85020062D01*
X117980755Y-85017700D01*
X117988405Y-85013003D01*
X117988407Y-85013002D01*
X118083072Y-84954878D01*
X118083075Y-84954875D01*
X118090724Y-84950179D01*
X118096750Y-84943522D01*
X118171300Y-84861161D01*
X118171303Y-84861157D01*
X118177322Y-84854507D01*
X118233588Y-84738375D01*
X118254997Y-84611120D01*
X118255133Y-84600000D01*
X118236839Y-84472259D01*
X118183428Y-84354788D01*
X118099193Y-84257028D01*
X117990906Y-84186841D01*
X117982311Y-84184271D01*
X117982310Y-84184270D01*
X117875874Y-84152438D01*
X117875872Y-84152438D01*
X117867273Y-84149866D01*
X117858298Y-84149811D01*
X117858297Y-84149811D01*
X117803641Y-84149477D01*
X117738231Y-84149078D01*
X117726475Y-84152438D01*
X117622786Y-84182072D01*
X117622784Y-84182073D01*
X117614155Y-84184539D01*
X117505019Y-84253399D01*
X117419596Y-84350122D01*
X117415782Y-84358245D01*
X117415781Y-84358247D01*
X117389794Y-84413598D01*
X117364754Y-84466932D01*
X117363374Y-84475798D01*
X117346282Y-84585567D01*
X117346282Y-84585571D01*
X117344901Y-84594440D01*
X115400000Y-84594440D01*
X115400000Y-82381940D01*
X123182401Y-82381940D01*
X123183565Y-82390842D01*
X123183565Y-82390845D01*
X123197968Y-82500989D01*
X123197969Y-82500993D01*
X123199133Y-82509894D01*
X123251105Y-82628010D01*
X123334139Y-82726791D01*
X123441560Y-82798296D01*
X123564733Y-82836778D01*
X123573703Y-82836942D01*
X123573707Y-82836943D01*
X123632442Y-82838019D01*
X123693755Y-82839143D01*
X123756005Y-82822172D01*
X123809592Y-82807562D01*
X123809593Y-82807562D01*
X123818255Y-82805200D01*
X123825905Y-82800503D01*
X123825907Y-82800502D01*
X123920572Y-82742378D01*
X123920575Y-82742375D01*
X123928224Y-82737679D01*
X123934250Y-82731022D01*
X124008800Y-82648661D01*
X124008803Y-82648657D01*
X124014822Y-82642007D01*
X124071088Y-82525875D01*
X124092497Y-82398620D01*
X124092633Y-82387500D01*
X124074339Y-82259759D01*
X124069574Y-82249278D01*
X124024645Y-82150462D01*
X124024643Y-82150459D01*
X124020928Y-82142288D01*
X123951025Y-82061161D01*
X123942551Y-82051326D01*
X123942549Y-82051324D01*
X123936693Y-82044528D01*
X123828406Y-81974341D01*
X123819811Y-81971771D01*
X123819810Y-81971770D01*
X123713374Y-81939938D01*
X123713372Y-81939938D01*
X123704773Y-81937366D01*
X123695798Y-81937311D01*
X123695797Y-81937311D01*
X123641141Y-81936977D01*
X123575731Y-81936578D01*
X123513693Y-81954309D01*
X123460286Y-81969572D01*
X123460284Y-81969573D01*
X123451655Y-81972039D01*
X123342519Y-82040899D01*
X123257096Y-82137622D01*
X123253282Y-82145745D01*
X123253281Y-82145747D01*
X123248994Y-82154878D01*
X123202254Y-82254432D01*
X123200874Y-82263298D01*
X123183782Y-82373067D01*
X123183782Y-82373071D01*
X123182401Y-82381940D01*
X115400000Y-82381940D01*
X115400000Y-81794440D01*
X116544901Y-81794440D01*
X116546065Y-81803342D01*
X116546065Y-81803345D01*
X116560468Y-81913489D01*
X116560469Y-81913493D01*
X116561633Y-81922394D01*
X116613605Y-82040510D01*
X116619382Y-82047383D01*
X116619383Y-82047384D01*
X116690859Y-82132415D01*
X116696639Y-82139291D01*
X116804060Y-82210796D01*
X116892938Y-82238564D01*
X116917730Y-82246309D01*
X116927233Y-82249278D01*
X116936203Y-82249442D01*
X116936207Y-82249443D01*
X116994942Y-82250519D01*
X117056255Y-82251643D01*
X117118505Y-82234671D01*
X117172092Y-82220062D01*
X117172093Y-82220062D01*
X117180755Y-82217700D01*
X117188405Y-82213003D01*
X117188407Y-82213002D01*
X117283072Y-82154878D01*
X117283075Y-82154875D01*
X117290724Y-82150179D01*
X117297867Y-82142288D01*
X117371300Y-82061161D01*
X117371303Y-82061157D01*
X117377322Y-82054507D01*
X117433588Y-81938375D01*
X117454997Y-81811120D01*
X117455133Y-81800000D01*
X117447748Y-81748433D01*
X117438112Y-81681145D01*
X117438111Y-81681142D01*
X117436839Y-81672259D01*
X117433125Y-81664091D01*
X117433124Y-81664087D01*
X117386895Y-81562413D01*
X117376907Y-81492122D01*
X117406508Y-81427590D01*
X117466298Y-81389306D01*
X117537294Y-81389424D01*
X117571410Y-81405371D01*
X117579560Y-81410796D01*
X117702733Y-81449278D01*
X117711703Y-81449442D01*
X117711707Y-81449443D01*
X117770442Y-81450519D01*
X117831755Y-81451643D01*
X117894005Y-81434671D01*
X117947592Y-81420062D01*
X117947593Y-81420062D01*
X117956255Y-81417700D01*
X117963905Y-81413003D01*
X117963907Y-81413002D01*
X118058572Y-81354878D01*
X118058575Y-81354875D01*
X118066224Y-81350179D01*
X118071419Y-81344440D01*
X118944901Y-81344440D01*
X118946065Y-81353342D01*
X118946065Y-81353345D01*
X118960468Y-81463489D01*
X118960469Y-81463493D01*
X118961633Y-81472394D01*
X119013605Y-81590510D01*
X119019382Y-81597383D01*
X119019383Y-81597384D01*
X119090859Y-81682415D01*
X119096639Y-81689291D01*
X119204060Y-81760796D01*
X119283347Y-81785567D01*
X119311748Y-81794440D01*
X119327233Y-81799278D01*
X119336203Y-81799442D01*
X119336207Y-81799443D01*
X119394942Y-81800519D01*
X119456255Y-81801643D01*
X119518505Y-81784671D01*
X119572092Y-81770062D01*
X119572093Y-81770062D01*
X119580755Y-81767700D01*
X119588405Y-81763003D01*
X119588407Y-81763002D01*
X119683072Y-81704878D01*
X119683075Y-81704875D01*
X119690724Y-81700179D01*
X119696750Y-81693522D01*
X119771300Y-81611161D01*
X119771303Y-81611157D01*
X119777322Y-81604507D01*
X119833588Y-81488375D01*
X119838551Y-81458879D01*
X119854190Y-81365917D01*
X119854997Y-81361120D01*
X119855065Y-81355530D01*
X119855074Y-81354859D01*
X119855074Y-81354853D01*
X119855133Y-81350000D01*
X119842410Y-81261161D01*
X119838112Y-81231145D01*
X119838111Y-81231142D01*
X119836839Y-81222259D01*
X119830724Y-81208809D01*
X119787145Y-81112962D01*
X119787143Y-81112959D01*
X119783428Y-81104788D01*
X119721778Y-81033239D01*
X119705051Y-81013826D01*
X119705049Y-81013824D01*
X119699193Y-81007028D01*
X119590906Y-80936841D01*
X119582311Y-80934271D01*
X119582310Y-80934270D01*
X119475874Y-80902438D01*
X119475872Y-80902438D01*
X119467273Y-80899866D01*
X119458298Y-80899811D01*
X119458297Y-80899811D01*
X119403641Y-80899477D01*
X119338231Y-80899078D01*
X119326475Y-80902438D01*
X119222786Y-80932072D01*
X119222784Y-80932073D01*
X119214155Y-80934539D01*
X119105019Y-81003399D01*
X119099076Y-81010128D01*
X119099075Y-81010129D01*
X119031351Y-81086812D01*
X119019596Y-81100122D01*
X119015782Y-81108245D01*
X119015781Y-81108247D01*
X119005791Y-81129526D01*
X118964754Y-81216932D01*
X118962687Y-81230210D01*
X118946282Y-81335567D01*
X118946282Y-81335571D01*
X118944901Y-81344440D01*
X118071419Y-81344440D01*
X118072250Y-81343522D01*
X118146800Y-81261161D01*
X118146803Y-81261157D01*
X118152822Y-81254507D01*
X118209088Y-81138375D01*
X118213364Y-81112962D01*
X118229690Y-81015917D01*
X118230497Y-81011120D01*
X118230633Y-81000000D01*
X118218762Y-80917107D01*
X118213612Y-80881145D01*
X118213611Y-80881142D01*
X118212339Y-80872259D01*
X118167287Y-80773172D01*
X120244901Y-80773172D01*
X120246065Y-80782074D01*
X120246065Y-80782077D01*
X120260468Y-80892221D01*
X120260469Y-80892225D01*
X120261633Y-80901126D01*
X120276217Y-80934270D01*
X120306084Y-81002148D01*
X120313605Y-81019242D01*
X120396639Y-81118023D01*
X120504060Y-81189528D01*
X120627233Y-81228010D01*
X120636203Y-81228174D01*
X120636207Y-81228175D01*
X120694942Y-81229251D01*
X120756255Y-81230375D01*
X120867668Y-81200000D01*
X120872092Y-81198794D01*
X120872093Y-81198794D01*
X120880755Y-81196432D01*
X120888405Y-81191735D01*
X120888407Y-81191734D01*
X120983072Y-81133610D01*
X120983075Y-81133607D01*
X120990724Y-81128911D01*
X120996750Y-81122254D01*
X121071300Y-81039893D01*
X121071303Y-81039889D01*
X121077322Y-81033239D01*
X121133588Y-80917107D01*
X121142508Y-80864090D01*
X121154190Y-80794649D01*
X121154997Y-80789852D01*
X121155133Y-80778732D01*
X121147748Y-80727165D01*
X121138112Y-80659877D01*
X121138111Y-80659874D01*
X121136839Y-80650991D01*
X121130724Y-80637541D01*
X121087145Y-80541694D01*
X121087143Y-80541691D01*
X121083428Y-80533520D01*
X120999193Y-80435760D01*
X120890906Y-80365573D01*
X120882311Y-80363003D01*
X120882310Y-80363002D01*
X120775874Y-80331170D01*
X120775872Y-80331170D01*
X120767273Y-80328598D01*
X120758298Y-80328543D01*
X120758297Y-80328543D01*
X120703641Y-80328209D01*
X120638231Y-80327810D01*
X120626475Y-80331170D01*
X120522786Y-80360804D01*
X120522784Y-80360805D01*
X120514155Y-80363271D01*
X120405019Y-80432131D01*
X120319596Y-80528854D01*
X120315782Y-80536977D01*
X120315781Y-80536979D01*
X120308523Y-80552438D01*
X120264754Y-80645664D01*
X120255626Y-80704290D01*
X120246282Y-80764299D01*
X120246282Y-80764303D01*
X120244901Y-80773172D01*
X118167287Y-80773172D01*
X118162645Y-80762962D01*
X118162643Y-80762959D01*
X118158928Y-80754788D01*
X118074693Y-80657028D01*
X117966406Y-80586841D01*
X117957811Y-80584271D01*
X117957810Y-80584270D01*
X117851374Y-80552438D01*
X117851372Y-80552438D01*
X117842773Y-80549866D01*
X117833798Y-80549811D01*
X117833797Y-80549811D01*
X117779141Y-80549477D01*
X117713731Y-80549078D01*
X117701975Y-80552438D01*
X117598286Y-80582072D01*
X117598284Y-80582073D01*
X117589655Y-80584539D01*
X117480519Y-80653399D01*
X117395096Y-80750122D01*
X117391282Y-80758245D01*
X117391281Y-80758247D01*
X117376443Y-80789852D01*
X117340254Y-80866932D01*
X117335135Y-80899811D01*
X117321782Y-80985567D01*
X117321782Y-80985571D01*
X117320401Y-80994440D01*
X117321565Y-81003342D01*
X117321565Y-81003345D01*
X117335968Y-81113489D01*
X117335969Y-81113493D01*
X117337133Y-81122394D01*
X117384985Y-81231145D01*
X117388579Y-81239314D01*
X117397707Y-81309721D01*
X117367320Y-81373887D01*
X117307066Y-81411437D01*
X117236077Y-81410452D01*
X117204720Y-81395794D01*
X117198437Y-81391722D01*
X117198436Y-81391721D01*
X117190906Y-81386841D01*
X117182311Y-81384271D01*
X117182310Y-81384270D01*
X117075874Y-81352438D01*
X117075872Y-81352438D01*
X117067273Y-81349866D01*
X117058298Y-81349811D01*
X117058297Y-81349811D01*
X117003641Y-81349477D01*
X116938231Y-81349078D01*
X116913109Y-81356258D01*
X116822786Y-81382072D01*
X116822784Y-81382073D01*
X116814155Y-81384539D01*
X116806565Y-81389328D01*
X116745924Y-81427590D01*
X116705019Y-81453399D01*
X116699076Y-81460128D01*
X116699075Y-81460129D01*
X116640017Y-81527000D01*
X116619596Y-81550122D01*
X116615782Y-81558245D01*
X116615781Y-81558247D01*
X116597407Y-81597384D01*
X116564754Y-81666932D01*
X116558846Y-81704878D01*
X116546282Y-81785567D01*
X116546282Y-81785571D01*
X116544901Y-81794440D01*
X115400000Y-81794440D01*
X115400000Y-81527000D01*
X115420002Y-81458879D01*
X115473658Y-81412386D01*
X115526000Y-81401000D01*
X115999802Y-81401000D01*
X116000000Y-81401082D01*
X116000765Y-81400765D01*
X116001000Y-81400198D01*
X116001082Y-81400000D01*
X116001000Y-81399802D01*
X116001000Y-78727000D01*
X116021002Y-78658879D01*
X116074658Y-78612386D01*
X116127000Y-78601000D01*
X132473000Y-78601000D01*
X132541121Y-78621002D01*
G37*
%TD.AperFunction*%
%TD*%
M02*
