G04 #@! TF.FileFunction,Copper,L1,Top,Signal*
%FSLAX46Y46*%
G04 Gerber Fmt 4.6, Leading zero omitted, Abs format (unit mm)*
G04 Created by KiCad (PCBNEW 4.0.7-e2-6376~58~ubuntu16.04.1) date Sat Apr 14 23:56:37 2018*
%MOMM*%
%LPD*%
G01*
G04 APERTURE LIST*
%ADD10C,0.100000*%
%ADD11R,1.200000X1.700000*%
%ADD12O,1.200000X1.700000*%
%ADD13R,1.700000X1.700000*%
%ADD14O,1.700000X1.700000*%
%ADD15C,1.600000*%
%ADD16O,1.600000X1.600000*%
%ADD17R,1.600000X1.600000*%
%ADD18R,1.800000X1.800000*%
%ADD19C,1.800000*%
%ADD20R,2.000000X2.000000*%
%ADD21C,2.000000*%
%ADD22C,1.524000*%
%ADD23R,1.524000X1.524000*%
%ADD24C,0.400000*%
%ADD25C,0.250000*%
%ADD26C,0.254000*%
G04 APERTURE END LIST*
D10*
D11*
X126746000Y-74422000D03*
D12*
X128746000Y-74422000D03*
X130746000Y-74422000D03*
X132746000Y-74422000D03*
X134746000Y-74422000D03*
D13*
X114554000Y-61976000D03*
D14*
X117094000Y-61976000D03*
X119634000Y-61976000D03*
X122174000Y-61976000D03*
D13*
X141732000Y-64516000D03*
X141732000Y-59436000D03*
D14*
X141732000Y-61976000D03*
D13*
X116840000Y-56896000D03*
D14*
X114300000Y-56896000D03*
D15*
X130556000Y-56896000D03*
D16*
X122936000Y-56896000D03*
D17*
X141224000Y-79756000D03*
D15*
X138684000Y-79756000D03*
X136144000Y-79756000D03*
X133604000Y-79756000D03*
X131064000Y-79756000D03*
X128524000Y-79756000D03*
X125984000Y-79756000D03*
D18*
X137414000Y-59436000D03*
D19*
X137414000Y-56896000D03*
D20*
X127508000Y-64516000D03*
D21*
X130048000Y-64516000D03*
D22*
X111252000Y-56896000D03*
D23*
X108712000Y-56896000D03*
D22*
X111252000Y-59436000D03*
X108712000Y-59436000D03*
X111252000Y-97536000D03*
X108712000Y-97536000D03*
X111252000Y-94996000D03*
D23*
X108712000Y-94996000D03*
D22*
X111252000Y-92456000D03*
X108712000Y-92456000D03*
X111252000Y-89916000D03*
X108712000Y-89916000D03*
X111252000Y-87376000D03*
X108712000Y-87376000D03*
X111252000Y-84836000D03*
X108712000Y-84836000D03*
X111252000Y-82296000D03*
D23*
X108712000Y-82296000D03*
D22*
X111252000Y-79756000D03*
X108712000Y-79756000D03*
X111252000Y-77216000D03*
X108712000Y-77216000D03*
X111252000Y-74676000D03*
X108712000Y-74676000D03*
X111252000Y-72136000D03*
X108712000Y-72136000D03*
X111252000Y-69596000D03*
D23*
X108712000Y-69596000D03*
D22*
X111252000Y-67056000D03*
X108712000Y-67056000D03*
X111252000Y-64516000D03*
X108712000Y-64516000D03*
X111252000Y-61976000D03*
X108712000Y-61976000D03*
X144272000Y-61976000D03*
X146812000Y-61976000D03*
X144272000Y-64516000D03*
X146812000Y-64516000D03*
X144272000Y-67056000D03*
X146812000Y-67056000D03*
D23*
X144272000Y-69596000D03*
D22*
X146812000Y-69596000D03*
X144272000Y-72136000D03*
X146812000Y-72136000D03*
X144272000Y-74676000D03*
X146812000Y-74676000D03*
X144272000Y-77216000D03*
X146812000Y-77216000D03*
X144272000Y-79756000D03*
X146812000Y-79756000D03*
D23*
X144272000Y-82296000D03*
D22*
X146812000Y-82296000D03*
X144272000Y-84836000D03*
X146812000Y-84836000D03*
X144272000Y-87376000D03*
X146812000Y-87376000D03*
X144272000Y-89916000D03*
X146812000Y-89916000D03*
X144272000Y-92456000D03*
X146812000Y-92456000D03*
D23*
X144272000Y-94996000D03*
D22*
X146812000Y-94996000D03*
X144272000Y-97536000D03*
X146812000Y-97536000D03*
X144272000Y-59436000D03*
X146812000Y-59436000D03*
D23*
X144272000Y-56896000D03*
D22*
X146812000Y-56896000D03*
X153416000Y-56896000D03*
D23*
X150876000Y-56896000D03*
D22*
X153416000Y-59436000D03*
X150876000Y-59436000D03*
X153416000Y-97536000D03*
X150876000Y-97536000D03*
X153416000Y-94996000D03*
D23*
X150876000Y-94996000D03*
D22*
X153416000Y-92456000D03*
X150876000Y-92456000D03*
X153416000Y-89916000D03*
X150876000Y-89916000D03*
X153416000Y-87376000D03*
X150876000Y-87376000D03*
X153416000Y-84836000D03*
X150876000Y-84836000D03*
X153416000Y-82296000D03*
D23*
X150876000Y-82296000D03*
D22*
X153416000Y-79756000D03*
X150876000Y-79756000D03*
X153416000Y-77216000D03*
X150876000Y-77216000D03*
X153416000Y-74676000D03*
X150876000Y-74676000D03*
X153416000Y-72136000D03*
X150876000Y-72136000D03*
X153416000Y-69596000D03*
D23*
X150876000Y-69596000D03*
D22*
X153416000Y-67056000D03*
X150876000Y-67056000D03*
X153416000Y-64516000D03*
X150876000Y-64516000D03*
X153416000Y-61976000D03*
X150876000Y-61976000D03*
X186436000Y-61976000D03*
X188976000Y-61976000D03*
X186436000Y-64516000D03*
X188976000Y-64516000D03*
X186436000Y-67056000D03*
X188976000Y-67056000D03*
D23*
X186436000Y-69596000D03*
D22*
X188976000Y-69596000D03*
X186436000Y-72136000D03*
X188976000Y-72136000D03*
X186436000Y-74676000D03*
X188976000Y-74676000D03*
X186436000Y-77216000D03*
X188976000Y-77216000D03*
X186436000Y-79756000D03*
X188976000Y-79756000D03*
D23*
X186436000Y-82296000D03*
D22*
X188976000Y-82296000D03*
X186436000Y-84836000D03*
X188976000Y-84836000D03*
X186436000Y-87376000D03*
X188976000Y-87376000D03*
X186436000Y-89916000D03*
X188976000Y-89916000D03*
X186436000Y-92456000D03*
X188976000Y-92456000D03*
D23*
X186436000Y-94996000D03*
D22*
X188976000Y-94996000D03*
X186436000Y-97536000D03*
X188976000Y-97536000D03*
X186436000Y-59436000D03*
X188976000Y-59436000D03*
D23*
X186436000Y-56896000D03*
D22*
X188976000Y-56896000D03*
D20*
X169672000Y-64516000D03*
D21*
X172212000Y-64516000D03*
D18*
X179578000Y-59436000D03*
D19*
X179578000Y-56896000D03*
D17*
X183388000Y-79756000D03*
D15*
X180848000Y-79756000D03*
X178308000Y-79756000D03*
X175768000Y-79756000D03*
X173228000Y-79756000D03*
X170688000Y-79756000D03*
X168148000Y-79756000D03*
X172720000Y-56896000D03*
D16*
X165100000Y-56896000D03*
D13*
X159004000Y-56896000D03*
D14*
X156464000Y-56896000D03*
D13*
X183896000Y-59436000D03*
D14*
X183896000Y-61976000D03*
D13*
X183896000Y-64516000D03*
X156718000Y-61976000D03*
D14*
X159258000Y-61976000D03*
X161798000Y-61976000D03*
X164338000Y-61976000D03*
D11*
X168910000Y-74422000D03*
D12*
X170910000Y-74422000D03*
X172910000Y-74422000D03*
X174910000Y-74422000D03*
X176910000Y-74422000D03*
D11*
X168910000Y-118618000D03*
D12*
X170910000Y-118618000D03*
X172910000Y-118618000D03*
X174910000Y-118618000D03*
X176910000Y-118618000D03*
D13*
X156718000Y-106172000D03*
D14*
X159258000Y-106172000D03*
X161798000Y-106172000D03*
X164338000Y-106172000D03*
D13*
X183896000Y-108712000D03*
X183896000Y-103632000D03*
D14*
X183896000Y-106172000D03*
D13*
X159004000Y-101092000D03*
D14*
X156464000Y-101092000D03*
D15*
X172720000Y-101092000D03*
D16*
X165100000Y-101092000D03*
D17*
X183388000Y-123952000D03*
D15*
X180848000Y-123952000D03*
X178308000Y-123952000D03*
X175768000Y-123952000D03*
X173228000Y-123952000D03*
X170688000Y-123952000D03*
X168148000Y-123952000D03*
D18*
X179578000Y-103632000D03*
D19*
X179578000Y-101092000D03*
D20*
X169672000Y-108712000D03*
D21*
X172212000Y-108712000D03*
D22*
X153416000Y-101092000D03*
D23*
X150876000Y-101092000D03*
D22*
X153416000Y-103632000D03*
X150876000Y-103632000D03*
X153416000Y-141732000D03*
X150876000Y-141732000D03*
X153416000Y-139192000D03*
D23*
X150876000Y-139192000D03*
D22*
X153416000Y-136652000D03*
X150876000Y-136652000D03*
X153416000Y-134112000D03*
X150876000Y-134112000D03*
X153416000Y-131572000D03*
X150876000Y-131572000D03*
X153416000Y-129032000D03*
X150876000Y-129032000D03*
X153416000Y-126492000D03*
D23*
X150876000Y-126492000D03*
D22*
X153416000Y-123952000D03*
X150876000Y-123952000D03*
X153416000Y-121412000D03*
X150876000Y-121412000D03*
X153416000Y-118872000D03*
X150876000Y-118872000D03*
X153416000Y-116332000D03*
X150876000Y-116332000D03*
X153416000Y-113792000D03*
D23*
X150876000Y-113792000D03*
D22*
X153416000Y-111252000D03*
X150876000Y-111252000D03*
X153416000Y-108712000D03*
X150876000Y-108712000D03*
X153416000Y-106172000D03*
X150876000Y-106172000D03*
X186436000Y-106172000D03*
X188976000Y-106172000D03*
X186436000Y-108712000D03*
X188976000Y-108712000D03*
X186436000Y-111252000D03*
X188976000Y-111252000D03*
D23*
X186436000Y-113792000D03*
D22*
X188976000Y-113792000D03*
X186436000Y-116332000D03*
X188976000Y-116332000D03*
X186436000Y-118872000D03*
X188976000Y-118872000D03*
X186436000Y-121412000D03*
X188976000Y-121412000D03*
X186436000Y-123952000D03*
X188976000Y-123952000D03*
D23*
X186436000Y-126492000D03*
D22*
X188976000Y-126492000D03*
X186436000Y-129032000D03*
X188976000Y-129032000D03*
X186436000Y-131572000D03*
X188976000Y-131572000D03*
X186436000Y-134112000D03*
X188976000Y-134112000D03*
X186436000Y-136652000D03*
X188976000Y-136652000D03*
D23*
X186436000Y-139192000D03*
D22*
X188976000Y-139192000D03*
X186436000Y-141732000D03*
X188976000Y-141732000D03*
X186436000Y-103632000D03*
X188976000Y-103632000D03*
D23*
X186436000Y-101092000D03*
D22*
X188976000Y-101092000D03*
X111252000Y-101092000D03*
D23*
X108712000Y-101092000D03*
D22*
X111252000Y-103632000D03*
X108712000Y-103632000D03*
X111252000Y-141732000D03*
X108712000Y-141732000D03*
X111252000Y-139192000D03*
D23*
X108712000Y-139192000D03*
D22*
X111252000Y-136652000D03*
X108712000Y-136652000D03*
X111252000Y-134112000D03*
X108712000Y-134112000D03*
X111252000Y-131572000D03*
X108712000Y-131572000D03*
X111252000Y-129032000D03*
X108712000Y-129032000D03*
X111252000Y-126492000D03*
D23*
X108712000Y-126492000D03*
D22*
X111252000Y-123952000D03*
X108712000Y-123952000D03*
X111252000Y-121412000D03*
X108712000Y-121412000D03*
X111252000Y-118872000D03*
X108712000Y-118872000D03*
X111252000Y-116332000D03*
X108712000Y-116332000D03*
X111252000Y-113792000D03*
D23*
X108712000Y-113792000D03*
D22*
X111252000Y-111252000D03*
X108712000Y-111252000D03*
X111252000Y-108712000D03*
X108712000Y-108712000D03*
X111252000Y-106172000D03*
X108712000Y-106172000D03*
X144272000Y-106172000D03*
X146812000Y-106172000D03*
X144272000Y-108712000D03*
X146812000Y-108712000D03*
X144272000Y-111252000D03*
X146812000Y-111252000D03*
D23*
X144272000Y-113792000D03*
D22*
X146812000Y-113792000D03*
X144272000Y-116332000D03*
X146812000Y-116332000D03*
X144272000Y-118872000D03*
X146812000Y-118872000D03*
X144272000Y-121412000D03*
X146812000Y-121412000D03*
X144272000Y-123952000D03*
X146812000Y-123952000D03*
D23*
X144272000Y-126492000D03*
D22*
X146812000Y-126492000D03*
X144272000Y-129032000D03*
X146812000Y-129032000D03*
X144272000Y-131572000D03*
X146812000Y-131572000D03*
X144272000Y-134112000D03*
X146812000Y-134112000D03*
X144272000Y-136652000D03*
X146812000Y-136652000D03*
D23*
X144272000Y-139192000D03*
D22*
X146812000Y-139192000D03*
X144272000Y-141732000D03*
X146812000Y-141732000D03*
X144272000Y-103632000D03*
X146812000Y-103632000D03*
D23*
X144272000Y-101092000D03*
D22*
X146812000Y-101092000D03*
D20*
X127508000Y-108712000D03*
D21*
X130048000Y-108712000D03*
D18*
X137414000Y-103632000D03*
D19*
X137414000Y-101092000D03*
D17*
X141224000Y-123952000D03*
D15*
X138684000Y-123952000D03*
X136144000Y-123952000D03*
X133604000Y-123952000D03*
X131064000Y-123952000D03*
X128524000Y-123952000D03*
X125984000Y-123952000D03*
X130556000Y-101092000D03*
D16*
X122936000Y-101092000D03*
D13*
X116840000Y-101092000D03*
D14*
X114300000Y-101092000D03*
D13*
X141732000Y-103632000D03*
D14*
X141732000Y-106172000D03*
D13*
X141732000Y-108712000D03*
X114554000Y-106172000D03*
D14*
X117094000Y-106172000D03*
X119634000Y-106172000D03*
X122174000Y-106172000D03*
D11*
X126746000Y-118618000D03*
D12*
X128746000Y-118618000D03*
X130746000Y-118618000D03*
X132746000Y-118618000D03*
X134746000Y-118618000D03*
D24*
X171196000Y-106934000D02*
X167386000Y-106934000D01*
X167386000Y-106934000D02*
X166624000Y-107696000D01*
X166624000Y-107696000D02*
X158242000Y-107696000D01*
X158242000Y-107696000D02*
X156718000Y-106172000D01*
X172212000Y-107950000D02*
X171196000Y-106934000D01*
D25*
X172212000Y-108712000D02*
X172212000Y-107950000D01*
D24*
X129032000Y-62738000D02*
X125222000Y-62738000D01*
X125222000Y-62738000D02*
X124460000Y-63500000D01*
X124460000Y-63500000D02*
X116078000Y-63500000D01*
X116078000Y-63500000D02*
X114554000Y-61976000D01*
X130048000Y-63754000D02*
X129032000Y-62738000D01*
D25*
X130048000Y-64516000D02*
X130048000Y-63754000D01*
X172212000Y-64516000D02*
X172212000Y-63754000D01*
D24*
X172212000Y-63754000D02*
X171196000Y-62738000D01*
X158242000Y-63500000D02*
X156718000Y-61976000D01*
X166624000Y-63500000D02*
X158242000Y-63500000D01*
X167386000Y-62738000D02*
X166624000Y-63500000D01*
X171196000Y-62738000D02*
X167386000Y-62738000D01*
D25*
X130048000Y-108712000D02*
X130048000Y-107950000D01*
D24*
X130048000Y-107950000D02*
X129032000Y-106934000D01*
X116078000Y-107696000D02*
X114554000Y-106172000D01*
X124460000Y-107696000D02*
X116078000Y-107696000D01*
X125222000Y-106934000D02*
X124460000Y-107696000D01*
X129032000Y-106934000D02*
X125222000Y-106934000D01*
D25*
X172720000Y-101092000D02*
X179578000Y-101092000D01*
X130556000Y-56896000D02*
X137414000Y-56896000D01*
X172720000Y-56896000D02*
X179578000Y-56896000D01*
X130556000Y-101092000D02*
X137414000Y-101092000D01*
X178308000Y-139954000D02*
X178308000Y-123952000D01*
X178816000Y-140462000D02*
X178308000Y-139954000D01*
X188976000Y-141732000D02*
X188976000Y-141478000D01*
X187960000Y-140462000D02*
X178816000Y-140462000D01*
X188976000Y-141478000D02*
X187960000Y-140462000D01*
X188976000Y-141732000D02*
X188976000Y-141478000D01*
X136144000Y-95758000D02*
X136144000Y-79756000D01*
X136652000Y-96266000D02*
X136144000Y-95758000D01*
X146812000Y-97536000D02*
X146812000Y-97282000D01*
X145796000Y-96266000D02*
X136652000Y-96266000D01*
X146812000Y-97282000D02*
X145796000Y-96266000D01*
X146812000Y-97536000D02*
X146812000Y-97282000D01*
X188976000Y-97536000D02*
X188976000Y-97282000D01*
X188976000Y-97282000D02*
X187960000Y-96266000D01*
X187960000Y-96266000D02*
X178816000Y-96266000D01*
X188976000Y-97536000D02*
X188976000Y-97282000D01*
X178816000Y-96266000D02*
X178308000Y-95758000D01*
X178308000Y-95758000D02*
X178308000Y-79756000D01*
X146812000Y-141732000D02*
X146812000Y-141478000D01*
X146812000Y-141478000D02*
X145796000Y-140462000D01*
X145796000Y-140462000D02*
X136652000Y-140462000D01*
X146812000Y-141732000D02*
X146812000Y-141478000D01*
X136652000Y-140462000D02*
X136144000Y-139954000D01*
X136144000Y-139954000D02*
X136144000Y-123952000D01*
X173228000Y-121412000D02*
X175768000Y-123952000D01*
X158750000Y-121412000D02*
X173228000Y-121412000D01*
X157480000Y-122682000D02*
X158750000Y-121412000D01*
X152146000Y-122682000D02*
X157480000Y-122682000D01*
X150876000Y-121412000D02*
X152146000Y-122682000D01*
X170910000Y-119094000D02*
X173228000Y-121412000D01*
X170910000Y-118618000D02*
X170910000Y-119094000D01*
X131064000Y-77216000D02*
X133604000Y-79756000D01*
X116586000Y-77216000D02*
X131064000Y-77216000D01*
X115316000Y-78486000D02*
X116586000Y-77216000D01*
X109982000Y-78486000D02*
X115316000Y-78486000D01*
X108712000Y-77216000D02*
X109982000Y-78486000D01*
X128746000Y-74898000D02*
X131064000Y-77216000D01*
X128746000Y-74422000D02*
X128746000Y-74898000D01*
X170910000Y-74422000D02*
X170910000Y-74898000D01*
X170910000Y-74898000D02*
X173228000Y-77216000D01*
X150876000Y-77216000D02*
X152146000Y-78486000D01*
X152146000Y-78486000D02*
X157480000Y-78486000D01*
X157480000Y-78486000D02*
X158750000Y-77216000D01*
X158750000Y-77216000D02*
X173228000Y-77216000D01*
X173228000Y-77216000D02*
X175768000Y-79756000D01*
X128746000Y-118618000D02*
X128746000Y-119094000D01*
X128746000Y-119094000D02*
X131064000Y-121412000D01*
X108712000Y-121412000D02*
X109982000Y-122682000D01*
X109982000Y-122682000D02*
X115316000Y-122682000D01*
X115316000Y-122682000D02*
X116586000Y-121412000D01*
X116586000Y-121412000D02*
X131064000Y-121412000D01*
X131064000Y-121412000D02*
X133604000Y-123952000D01*
X157480000Y-123952000D02*
X160020000Y-122174000D01*
X160020000Y-122174000D02*
X171450000Y-122174000D01*
X171450000Y-122174000D02*
X173228000Y-123952000D01*
X153416000Y-123952000D02*
X157480000Y-123952000D01*
X115316000Y-79756000D02*
X117856000Y-77978000D01*
X117856000Y-77978000D02*
X129286000Y-77978000D01*
X129286000Y-77978000D02*
X131064000Y-79756000D01*
X111252000Y-79756000D02*
X115316000Y-79756000D01*
X153416000Y-79756000D02*
X157480000Y-79756000D01*
X171450000Y-77978000D02*
X173228000Y-79756000D01*
X160020000Y-77978000D02*
X171450000Y-77978000D01*
X157480000Y-79756000D02*
X160020000Y-77978000D01*
X111252000Y-123952000D02*
X115316000Y-123952000D01*
X129286000Y-122174000D02*
X131064000Y-123952000D01*
X117856000Y-122174000D02*
X129286000Y-122174000D01*
X115316000Y-123952000D02*
X117856000Y-122174000D01*
X170688000Y-135128000D02*
X170688000Y-123952000D01*
X177292000Y-141732000D02*
X170688000Y-135128000D01*
X186436000Y-141732000D02*
X177292000Y-141732000D01*
X128524000Y-90932000D02*
X128524000Y-79756000D01*
X135128000Y-97536000D02*
X128524000Y-90932000D01*
X144272000Y-97536000D02*
X135128000Y-97536000D01*
X186436000Y-97536000D02*
X177292000Y-97536000D01*
X177292000Y-97536000D02*
X170688000Y-90932000D01*
X170688000Y-90932000D02*
X170688000Y-79756000D01*
X144272000Y-141732000D02*
X135128000Y-141732000D01*
X135128000Y-141732000D02*
X128524000Y-135128000D01*
X128524000Y-135128000D02*
X128524000Y-123952000D01*
X163576000Y-101092000D02*
X165100000Y-101092000D01*
X159258000Y-105410000D02*
X163576000Y-101092000D01*
X159258000Y-106172000D02*
X159258000Y-105410000D01*
X157734000Y-104648000D02*
X159258000Y-106172000D01*
X155194000Y-104648000D02*
X157734000Y-104648000D01*
X154940000Y-104902000D02*
X155194000Y-104648000D01*
X152146000Y-104902000D02*
X154940000Y-104902000D01*
X150876000Y-106172000D02*
X152146000Y-104902000D01*
X121412000Y-56896000D02*
X122936000Y-56896000D01*
X117094000Y-61214000D02*
X121412000Y-56896000D01*
X117094000Y-61976000D02*
X117094000Y-61214000D01*
X115570000Y-60452000D02*
X117094000Y-61976000D01*
X134874000Y-74550000D02*
X134746000Y-74422000D01*
X113030000Y-60452000D02*
X115570000Y-60452000D01*
X112776000Y-60706000D02*
X113030000Y-60452000D01*
X109982000Y-60706000D02*
X112776000Y-60706000D01*
X108712000Y-61976000D02*
X109982000Y-60706000D01*
X150876000Y-61976000D02*
X152146000Y-60706000D01*
X152146000Y-60706000D02*
X154940000Y-60706000D01*
X154940000Y-60706000D02*
X155194000Y-60452000D01*
X155194000Y-60452000D02*
X157734000Y-60452000D01*
X177038000Y-74550000D02*
X176910000Y-74422000D01*
X157734000Y-60452000D02*
X159258000Y-61976000D01*
X159258000Y-61976000D02*
X159258000Y-61214000D01*
X159258000Y-61214000D02*
X163576000Y-56896000D01*
X163576000Y-56896000D02*
X165100000Y-56896000D01*
X177038000Y-118746000D02*
X176910000Y-118618000D01*
X108712000Y-106172000D02*
X109982000Y-104902000D01*
X109982000Y-104902000D02*
X112776000Y-104902000D01*
X112776000Y-104902000D02*
X113030000Y-104648000D01*
X113030000Y-104648000D02*
X115570000Y-104648000D01*
X134874000Y-118746000D02*
X134746000Y-118618000D01*
X115570000Y-104648000D02*
X117094000Y-106172000D01*
X117094000Y-106172000D02*
X117094000Y-105410000D01*
X117094000Y-105410000D02*
X121412000Y-101092000D01*
X121412000Y-101092000D02*
X122936000Y-101092000D01*
X109982000Y-65786000D02*
X111252000Y-67056000D01*
X113792000Y-56896000D02*
X112268000Y-58166000D01*
X114300000Y-56896000D02*
X113792000Y-56896000D01*
X107950000Y-65786000D02*
X109982000Y-65786000D01*
X107442000Y-65278000D02*
X107950000Y-65786000D01*
X107442000Y-58420000D02*
X107442000Y-65278000D01*
X107442000Y-58166000D02*
X107442000Y-58420000D01*
X112268000Y-58166000D02*
X107442000Y-58166000D01*
X154432000Y-58166000D02*
X149606000Y-58166000D01*
X149606000Y-58166000D02*
X149606000Y-58420000D01*
X149606000Y-58420000D02*
X149606000Y-65278000D01*
X149606000Y-65278000D02*
X150114000Y-65786000D01*
X150114000Y-65786000D02*
X152146000Y-65786000D01*
X156464000Y-56896000D02*
X155956000Y-56896000D01*
X155956000Y-56896000D02*
X154432000Y-58166000D01*
X152146000Y-65786000D02*
X153416000Y-67056000D01*
X112268000Y-102362000D02*
X107442000Y-102362000D01*
X107442000Y-102362000D02*
X107442000Y-102616000D01*
X107442000Y-102616000D02*
X107442000Y-109474000D01*
X107442000Y-109474000D02*
X107950000Y-109982000D01*
X107950000Y-109982000D02*
X109982000Y-109982000D01*
X114300000Y-101092000D02*
X113792000Y-101092000D01*
X113792000Y-101092000D02*
X112268000Y-102362000D01*
X109982000Y-109982000D02*
X111252000Y-111252000D01*
X152146000Y-109982000D02*
X153416000Y-111252000D01*
X155956000Y-101092000D02*
X154432000Y-102362000D01*
X156464000Y-101092000D02*
X155956000Y-101092000D01*
X150114000Y-109982000D02*
X152146000Y-109982000D01*
X149606000Y-109474000D02*
X150114000Y-109982000D01*
X149606000Y-102616000D02*
X149606000Y-109474000D01*
X149606000Y-102362000D02*
X149606000Y-102616000D01*
X154432000Y-102362000D02*
X149606000Y-102362000D01*
D24*
X153416000Y-108712000D02*
X169672000Y-108712000D01*
X111252000Y-64516000D02*
X127508000Y-64516000D01*
X153416000Y-64516000D02*
X169672000Y-64516000D01*
X111252000Y-108712000D02*
X127508000Y-108712000D01*
D25*
X186436000Y-106172000D02*
X183896000Y-106172000D01*
X144272000Y-61976000D02*
X141732000Y-61976000D01*
X186436000Y-61976000D02*
X183896000Y-61976000D01*
X144272000Y-106172000D02*
X141732000Y-106172000D01*
X186436000Y-108712000D02*
X183896000Y-108712000D01*
X144272000Y-64516000D02*
X141732000Y-64516000D01*
X186436000Y-64516000D02*
X183896000Y-64516000D01*
X144272000Y-108712000D02*
X141732000Y-108712000D01*
X186436000Y-103632000D02*
X183896000Y-103632000D01*
X144272000Y-59436000D02*
X141732000Y-59436000D01*
X186436000Y-59436000D02*
X183896000Y-59436000D01*
X144272000Y-103632000D02*
X141732000Y-103632000D01*
X183388000Y-131572000D02*
X186436000Y-131572000D01*
X164338000Y-106172000D02*
X174244000Y-106172000D01*
X182118000Y-130302000D02*
X183388000Y-131572000D01*
X182118000Y-118364000D02*
X182118000Y-130302000D01*
X175260000Y-111506000D02*
X182118000Y-118364000D01*
X175260000Y-107188000D02*
X175260000Y-111506000D01*
X174244000Y-106172000D02*
X175260000Y-107188000D01*
X141224000Y-87376000D02*
X144272000Y-87376000D01*
X122174000Y-61976000D02*
X132080000Y-61976000D01*
X139954000Y-86106000D02*
X141224000Y-87376000D01*
X139954000Y-74168000D02*
X139954000Y-86106000D01*
X133096000Y-67310000D02*
X139954000Y-74168000D01*
X133096000Y-62992000D02*
X133096000Y-67310000D01*
X132080000Y-61976000D02*
X133096000Y-62992000D01*
X174244000Y-61976000D02*
X175260000Y-62992000D01*
X175260000Y-62992000D02*
X175260000Y-67310000D01*
X175260000Y-67310000D02*
X182118000Y-74168000D01*
X182118000Y-74168000D02*
X182118000Y-86106000D01*
X182118000Y-86106000D02*
X183388000Y-87376000D01*
X164338000Y-61976000D02*
X174244000Y-61976000D01*
X183388000Y-87376000D02*
X186436000Y-87376000D01*
X132080000Y-106172000D02*
X133096000Y-107188000D01*
X133096000Y-107188000D02*
X133096000Y-111506000D01*
X133096000Y-111506000D02*
X139954000Y-118364000D01*
X139954000Y-118364000D02*
X139954000Y-130302000D01*
X139954000Y-130302000D02*
X141224000Y-131572000D01*
X122174000Y-106172000D02*
X132080000Y-106172000D01*
X141224000Y-131572000D02*
X144272000Y-131572000D01*
X163830000Y-104140000D02*
X161798000Y-106172000D01*
X173736000Y-104140000D02*
X163830000Y-104140000D01*
X176784000Y-107188000D02*
X173736000Y-104140000D01*
X176784000Y-110236000D02*
X176784000Y-107188000D01*
X184912000Y-118364000D02*
X176784000Y-110236000D01*
X184912000Y-129540000D02*
X184912000Y-118364000D01*
X185674000Y-130302000D02*
X184912000Y-129540000D01*
X187706000Y-130302000D02*
X185674000Y-130302000D01*
X188976000Y-131572000D02*
X187706000Y-130302000D01*
X121666000Y-59944000D02*
X119634000Y-61976000D01*
X131572000Y-59944000D02*
X121666000Y-59944000D01*
X134620000Y-62992000D02*
X131572000Y-59944000D01*
X134620000Y-66040000D02*
X134620000Y-62992000D01*
X142748000Y-74168000D02*
X134620000Y-66040000D01*
X142748000Y-85344000D02*
X142748000Y-74168000D01*
X143510000Y-86106000D02*
X142748000Y-85344000D01*
X145542000Y-86106000D02*
X143510000Y-86106000D01*
X146812000Y-87376000D02*
X145542000Y-86106000D01*
X188976000Y-87376000D02*
X187706000Y-86106000D01*
X187706000Y-86106000D02*
X185674000Y-86106000D01*
X185674000Y-86106000D02*
X184912000Y-85344000D01*
X184912000Y-85344000D02*
X184912000Y-74168000D01*
X184912000Y-74168000D02*
X176784000Y-66040000D01*
X176784000Y-66040000D02*
X176784000Y-62992000D01*
X176784000Y-62992000D02*
X173736000Y-59944000D01*
X173736000Y-59944000D02*
X163830000Y-59944000D01*
X163830000Y-59944000D02*
X161798000Y-61976000D01*
X146812000Y-131572000D02*
X145542000Y-130302000D01*
X145542000Y-130302000D02*
X143510000Y-130302000D01*
X143510000Y-130302000D02*
X142748000Y-129540000D01*
X142748000Y-129540000D02*
X142748000Y-118364000D01*
X142748000Y-118364000D02*
X134620000Y-110236000D01*
X134620000Y-110236000D02*
X134620000Y-107188000D01*
X134620000Y-107188000D02*
X131572000Y-104140000D01*
X131572000Y-104140000D02*
X121666000Y-104140000D01*
X121666000Y-104140000D02*
X119634000Y-106172000D01*
D26*
G36*
X141351000Y-123825000D02*
X141371000Y-123825000D01*
X141371000Y-124079000D01*
X141351000Y-124079000D01*
X141351000Y-124099000D01*
X141097000Y-124099000D01*
X141097000Y-124079000D01*
X141077000Y-124079000D01*
X141077000Y-123825000D01*
X141097000Y-123825000D01*
X141097000Y-123805000D01*
X141351000Y-123805000D01*
X141351000Y-123825000D01*
X141351000Y-123825000D01*
G37*
X141351000Y-123825000D02*
X141371000Y-123825000D01*
X141371000Y-124079000D01*
X141351000Y-124079000D01*
X141351000Y-124099000D01*
X141097000Y-124099000D01*
X141097000Y-124079000D01*
X141077000Y-124079000D01*
X141077000Y-123825000D01*
X141097000Y-123825000D01*
X141097000Y-123805000D01*
X141351000Y-123805000D01*
X141351000Y-123825000D01*
G36*
X113069000Y-105886250D02*
X113227750Y-106045000D01*
X114427000Y-106045000D01*
X114427000Y-106025000D01*
X114681000Y-106025000D01*
X114681000Y-106045000D01*
X114701000Y-106045000D01*
X114701000Y-106299000D01*
X114681000Y-106299000D01*
X114681000Y-107498250D01*
X114839750Y-107657000D01*
X115530310Y-107657000D01*
X115763699Y-107560327D01*
X115942327Y-107381698D01*
X116014597Y-107207223D01*
X116043946Y-107251147D01*
X116525715Y-107573054D01*
X117094000Y-107686093D01*
X117662285Y-107573054D01*
X118144054Y-107251147D01*
X118364000Y-106921974D01*
X118583946Y-107251147D01*
X119065715Y-107573054D01*
X119634000Y-107686093D01*
X120202285Y-107573054D01*
X120684054Y-107251147D01*
X120904000Y-106921974D01*
X121123946Y-107251147D01*
X121605715Y-107573054D01*
X122174000Y-107686093D01*
X122742285Y-107573054D01*
X123224054Y-107251147D01*
X123437301Y-106932000D01*
X131765198Y-106932000D01*
X132336000Y-107502802D01*
X132336000Y-111506000D01*
X132393852Y-111796839D01*
X132558599Y-112043401D01*
X139194000Y-118678802D01*
X139194000Y-122609976D01*
X138970691Y-122517250D01*
X138399813Y-122516752D01*
X137872200Y-122734757D01*
X137468176Y-123138077D01*
X137414138Y-123268215D01*
X137361243Y-123140200D01*
X136957923Y-122736176D01*
X136430691Y-122517250D01*
X135859813Y-122516752D01*
X135332200Y-122734757D01*
X134928176Y-123138077D01*
X134874138Y-123268215D01*
X134821243Y-123140200D01*
X134417923Y-122736176D01*
X133890691Y-122517250D01*
X133319813Y-122516752D01*
X133265851Y-122539049D01*
X130840164Y-120113362D01*
X131218614Y-120038084D01*
X131619277Y-119770370D01*
X131748410Y-119577109D01*
X131916875Y-119799933D01*
X132336624Y-120046286D01*
X132428391Y-120061462D01*
X132619000Y-119936731D01*
X132619000Y-118745000D01*
X132599000Y-118745000D01*
X132599000Y-118491000D01*
X132619000Y-118491000D01*
X132619000Y-117299269D01*
X132873000Y-117299269D01*
X132873000Y-118491000D01*
X132893000Y-118491000D01*
X132893000Y-118745000D01*
X132873000Y-118745000D01*
X132873000Y-119936731D01*
X133063609Y-120061462D01*
X133155376Y-120046286D01*
X133575125Y-119799933D01*
X133743590Y-119577109D01*
X133872723Y-119770370D01*
X134273386Y-120038084D01*
X134746000Y-120132093D01*
X135218614Y-120038084D01*
X135619277Y-119770370D01*
X135886991Y-119369707D01*
X135981000Y-118897093D01*
X135981000Y-118338907D01*
X135886991Y-117866293D01*
X135619277Y-117465630D01*
X135218614Y-117197916D01*
X134746000Y-117103907D01*
X134273386Y-117197916D01*
X133872723Y-117465630D01*
X133743590Y-117658891D01*
X133575125Y-117436067D01*
X133155376Y-117189714D01*
X133063609Y-117174538D01*
X132873000Y-117299269D01*
X132619000Y-117299269D01*
X132428391Y-117174538D01*
X132336624Y-117189714D01*
X131916875Y-117436067D01*
X131748410Y-117658891D01*
X131619277Y-117465630D01*
X131218614Y-117197916D01*
X130746000Y-117103907D01*
X130273386Y-117197916D01*
X129872723Y-117465630D01*
X129746000Y-117655285D01*
X129619277Y-117465630D01*
X129218614Y-117197916D01*
X128746000Y-117103907D01*
X128273386Y-117197916D01*
X127896004Y-117450074D01*
X127810090Y-117316559D01*
X127597890Y-117171569D01*
X127346000Y-117120560D01*
X126146000Y-117120560D01*
X125910683Y-117164838D01*
X125694559Y-117303910D01*
X125549569Y-117516110D01*
X125498560Y-117768000D01*
X125498560Y-119468000D01*
X125542838Y-119703317D01*
X125681910Y-119919441D01*
X125894110Y-120064431D01*
X126146000Y-120115440D01*
X127346000Y-120115440D01*
X127581317Y-120071162D01*
X127797441Y-119932090D01*
X127896901Y-119786525D01*
X128273386Y-120038084D01*
X128700176Y-120122978D01*
X129229198Y-120652000D01*
X116586000Y-120652000D01*
X116295160Y-120709852D01*
X116048599Y-120874599D01*
X115001198Y-121922000D01*
X112552879Y-121922000D01*
X112648757Y-121691100D01*
X112649242Y-121135339D01*
X112437010Y-120621697D01*
X112044370Y-120228371D01*
X111836488Y-120142051D01*
X112042303Y-120057010D01*
X112435629Y-119664370D01*
X112648757Y-119151100D01*
X112649242Y-118595339D01*
X112437010Y-118081697D01*
X112044370Y-117688371D01*
X111836488Y-117602051D01*
X112042303Y-117517010D01*
X112435629Y-117124370D01*
X112648757Y-116611100D01*
X112649242Y-116055339D01*
X112437010Y-115541697D01*
X112044370Y-115148371D01*
X111836488Y-115062051D01*
X112042303Y-114977010D01*
X112435629Y-114584370D01*
X112648757Y-114071100D01*
X112649242Y-113515339D01*
X112437010Y-113001697D01*
X112044370Y-112608371D01*
X111836488Y-112522051D01*
X112042303Y-112437010D01*
X112435629Y-112044370D01*
X112648757Y-111531100D01*
X112649242Y-110975339D01*
X112437010Y-110461697D01*
X112044370Y-110068371D01*
X111836488Y-109982051D01*
X112042303Y-109897010D01*
X112392925Y-109547000D01*
X125860560Y-109547000D01*
X125860560Y-109712000D01*
X125904838Y-109947317D01*
X126043910Y-110163441D01*
X126256110Y-110308431D01*
X126508000Y-110359440D01*
X128508000Y-110359440D01*
X128743317Y-110315162D01*
X128959441Y-110176090D01*
X129104431Y-109963890D01*
X129107042Y-109950998D01*
X129173736Y-110131387D01*
X129783461Y-110357908D01*
X130433460Y-110333856D01*
X130922264Y-110131387D01*
X131020927Y-109864532D01*
X130048000Y-108891605D01*
X130033858Y-108905748D01*
X129854253Y-108726143D01*
X129868395Y-108712000D01*
X130227605Y-108712000D01*
X131200532Y-109684927D01*
X131467387Y-109586264D01*
X131693908Y-108976539D01*
X131669856Y-108326540D01*
X131467387Y-107837736D01*
X131200532Y-107739073D01*
X130227605Y-108712000D01*
X129868395Y-108712000D01*
X129854253Y-108697858D01*
X130033858Y-108518253D01*
X130048000Y-108532395D01*
X131020927Y-107559468D01*
X130922264Y-107292613D01*
X130312539Y-107066092D01*
X129662540Y-107090144D01*
X129173736Y-107292613D01*
X129107681Y-107471273D01*
X128972090Y-107260559D01*
X128759890Y-107115569D01*
X128508000Y-107064560D01*
X126508000Y-107064560D01*
X126272683Y-107108838D01*
X126056559Y-107247910D01*
X125911569Y-107460110D01*
X125860560Y-107712000D01*
X125860560Y-107877000D01*
X112392391Y-107877000D01*
X112044370Y-107528371D01*
X111836488Y-107442051D01*
X112042303Y-107357010D01*
X112435629Y-106964370D01*
X112645995Y-106457750D01*
X113069000Y-106457750D01*
X113069000Y-107148309D01*
X113165673Y-107381698D01*
X113344301Y-107560327D01*
X113577690Y-107657000D01*
X114268250Y-107657000D01*
X114427000Y-107498250D01*
X114427000Y-106299000D01*
X113227750Y-106299000D01*
X113069000Y-106457750D01*
X112645995Y-106457750D01*
X112648757Y-106451100D01*
X112649242Y-105895339D01*
X112552829Y-105662000D01*
X112776000Y-105662000D01*
X113066839Y-105604148D01*
X113069000Y-105602704D01*
X113069000Y-105886250D01*
X113069000Y-105886250D01*
G37*
X113069000Y-105886250D02*
X113227750Y-106045000D01*
X114427000Y-106045000D01*
X114427000Y-106025000D01*
X114681000Y-106025000D01*
X114681000Y-106045000D01*
X114701000Y-106045000D01*
X114701000Y-106299000D01*
X114681000Y-106299000D01*
X114681000Y-107498250D01*
X114839750Y-107657000D01*
X115530310Y-107657000D01*
X115763699Y-107560327D01*
X115942327Y-107381698D01*
X116014597Y-107207223D01*
X116043946Y-107251147D01*
X116525715Y-107573054D01*
X117094000Y-107686093D01*
X117662285Y-107573054D01*
X118144054Y-107251147D01*
X118364000Y-106921974D01*
X118583946Y-107251147D01*
X119065715Y-107573054D01*
X119634000Y-107686093D01*
X120202285Y-107573054D01*
X120684054Y-107251147D01*
X120904000Y-106921974D01*
X121123946Y-107251147D01*
X121605715Y-107573054D01*
X122174000Y-107686093D01*
X122742285Y-107573054D01*
X123224054Y-107251147D01*
X123437301Y-106932000D01*
X131765198Y-106932000D01*
X132336000Y-107502802D01*
X132336000Y-111506000D01*
X132393852Y-111796839D01*
X132558599Y-112043401D01*
X139194000Y-118678802D01*
X139194000Y-122609976D01*
X138970691Y-122517250D01*
X138399813Y-122516752D01*
X137872200Y-122734757D01*
X137468176Y-123138077D01*
X137414138Y-123268215D01*
X137361243Y-123140200D01*
X136957923Y-122736176D01*
X136430691Y-122517250D01*
X135859813Y-122516752D01*
X135332200Y-122734757D01*
X134928176Y-123138077D01*
X134874138Y-123268215D01*
X134821243Y-123140200D01*
X134417923Y-122736176D01*
X133890691Y-122517250D01*
X133319813Y-122516752D01*
X133265851Y-122539049D01*
X130840164Y-120113362D01*
X131218614Y-120038084D01*
X131619277Y-119770370D01*
X131748410Y-119577109D01*
X131916875Y-119799933D01*
X132336624Y-120046286D01*
X132428391Y-120061462D01*
X132619000Y-119936731D01*
X132619000Y-118745000D01*
X132599000Y-118745000D01*
X132599000Y-118491000D01*
X132619000Y-118491000D01*
X132619000Y-117299269D01*
X132873000Y-117299269D01*
X132873000Y-118491000D01*
X132893000Y-118491000D01*
X132893000Y-118745000D01*
X132873000Y-118745000D01*
X132873000Y-119936731D01*
X133063609Y-120061462D01*
X133155376Y-120046286D01*
X133575125Y-119799933D01*
X133743590Y-119577109D01*
X133872723Y-119770370D01*
X134273386Y-120038084D01*
X134746000Y-120132093D01*
X135218614Y-120038084D01*
X135619277Y-119770370D01*
X135886991Y-119369707D01*
X135981000Y-118897093D01*
X135981000Y-118338907D01*
X135886991Y-117866293D01*
X135619277Y-117465630D01*
X135218614Y-117197916D01*
X134746000Y-117103907D01*
X134273386Y-117197916D01*
X133872723Y-117465630D01*
X133743590Y-117658891D01*
X133575125Y-117436067D01*
X133155376Y-117189714D01*
X133063609Y-117174538D01*
X132873000Y-117299269D01*
X132619000Y-117299269D01*
X132428391Y-117174538D01*
X132336624Y-117189714D01*
X131916875Y-117436067D01*
X131748410Y-117658891D01*
X131619277Y-117465630D01*
X131218614Y-117197916D01*
X130746000Y-117103907D01*
X130273386Y-117197916D01*
X129872723Y-117465630D01*
X129746000Y-117655285D01*
X129619277Y-117465630D01*
X129218614Y-117197916D01*
X128746000Y-117103907D01*
X128273386Y-117197916D01*
X127896004Y-117450074D01*
X127810090Y-117316559D01*
X127597890Y-117171569D01*
X127346000Y-117120560D01*
X126146000Y-117120560D01*
X125910683Y-117164838D01*
X125694559Y-117303910D01*
X125549569Y-117516110D01*
X125498560Y-117768000D01*
X125498560Y-119468000D01*
X125542838Y-119703317D01*
X125681910Y-119919441D01*
X125894110Y-120064431D01*
X126146000Y-120115440D01*
X127346000Y-120115440D01*
X127581317Y-120071162D01*
X127797441Y-119932090D01*
X127896901Y-119786525D01*
X128273386Y-120038084D01*
X128700176Y-120122978D01*
X129229198Y-120652000D01*
X116586000Y-120652000D01*
X116295160Y-120709852D01*
X116048599Y-120874599D01*
X115001198Y-121922000D01*
X112552879Y-121922000D01*
X112648757Y-121691100D01*
X112649242Y-121135339D01*
X112437010Y-120621697D01*
X112044370Y-120228371D01*
X111836488Y-120142051D01*
X112042303Y-120057010D01*
X112435629Y-119664370D01*
X112648757Y-119151100D01*
X112649242Y-118595339D01*
X112437010Y-118081697D01*
X112044370Y-117688371D01*
X111836488Y-117602051D01*
X112042303Y-117517010D01*
X112435629Y-117124370D01*
X112648757Y-116611100D01*
X112649242Y-116055339D01*
X112437010Y-115541697D01*
X112044370Y-115148371D01*
X111836488Y-115062051D01*
X112042303Y-114977010D01*
X112435629Y-114584370D01*
X112648757Y-114071100D01*
X112649242Y-113515339D01*
X112437010Y-113001697D01*
X112044370Y-112608371D01*
X111836488Y-112522051D01*
X112042303Y-112437010D01*
X112435629Y-112044370D01*
X112648757Y-111531100D01*
X112649242Y-110975339D01*
X112437010Y-110461697D01*
X112044370Y-110068371D01*
X111836488Y-109982051D01*
X112042303Y-109897010D01*
X112392925Y-109547000D01*
X125860560Y-109547000D01*
X125860560Y-109712000D01*
X125904838Y-109947317D01*
X126043910Y-110163441D01*
X126256110Y-110308431D01*
X126508000Y-110359440D01*
X128508000Y-110359440D01*
X128743317Y-110315162D01*
X128959441Y-110176090D01*
X129104431Y-109963890D01*
X129107042Y-109950998D01*
X129173736Y-110131387D01*
X129783461Y-110357908D01*
X130433460Y-110333856D01*
X130922264Y-110131387D01*
X131020927Y-109864532D01*
X130048000Y-108891605D01*
X130033858Y-108905748D01*
X129854253Y-108726143D01*
X129868395Y-108712000D01*
X130227605Y-108712000D01*
X131200532Y-109684927D01*
X131467387Y-109586264D01*
X131693908Y-108976539D01*
X131669856Y-108326540D01*
X131467387Y-107837736D01*
X131200532Y-107739073D01*
X130227605Y-108712000D01*
X129868395Y-108712000D01*
X129854253Y-108697858D01*
X130033858Y-108518253D01*
X130048000Y-108532395D01*
X131020927Y-107559468D01*
X130922264Y-107292613D01*
X130312539Y-107066092D01*
X129662540Y-107090144D01*
X129173736Y-107292613D01*
X129107681Y-107471273D01*
X128972090Y-107260559D01*
X128759890Y-107115569D01*
X128508000Y-107064560D01*
X126508000Y-107064560D01*
X126272683Y-107108838D01*
X126056559Y-107247910D01*
X125911569Y-107460110D01*
X125860560Y-107712000D01*
X125860560Y-107877000D01*
X112392391Y-107877000D01*
X112044370Y-107528371D01*
X111836488Y-107442051D01*
X112042303Y-107357010D01*
X112435629Y-106964370D01*
X112645995Y-106457750D01*
X113069000Y-106457750D01*
X113069000Y-107148309D01*
X113165673Y-107381698D01*
X113344301Y-107560327D01*
X113577690Y-107657000D01*
X114268250Y-107657000D01*
X114427000Y-107498250D01*
X114427000Y-106299000D01*
X113227750Y-106299000D01*
X113069000Y-106457750D01*
X112645995Y-106457750D01*
X112648757Y-106451100D01*
X112649242Y-105895339D01*
X112552829Y-105662000D01*
X112776000Y-105662000D01*
X113066839Y-105604148D01*
X113069000Y-105602704D01*
X113069000Y-105886250D01*
G36*
X121893189Y-100077302D02*
X121723005Y-100332000D01*
X121412000Y-100332000D01*
X121121161Y-100389852D01*
X120874599Y-100554599D01*
X116713000Y-104716198D01*
X116107401Y-104110599D01*
X115860839Y-103945852D01*
X115570000Y-103888000D01*
X113030000Y-103888000D01*
X112739160Y-103945852D01*
X112594072Y-104042797D01*
X112648757Y-103911100D01*
X112649242Y-103355339D01*
X112531197Y-103069646D01*
X112558839Y-103064148D01*
X112654005Y-103000560D01*
X112754540Y-102945848D01*
X113490945Y-102332177D01*
X113731715Y-102493054D01*
X114300000Y-102606093D01*
X114868285Y-102493054D01*
X115350054Y-102171147D01*
X115379403Y-102127223D01*
X115451673Y-102301698D01*
X115630301Y-102480327D01*
X115863690Y-102577000D01*
X116554250Y-102577000D01*
X116713000Y-102418250D01*
X116713000Y-101219000D01*
X116967000Y-101219000D01*
X116967000Y-102418250D01*
X117125750Y-102577000D01*
X117816310Y-102577000D01*
X118049699Y-102480327D01*
X118228327Y-102301698D01*
X118325000Y-102068309D01*
X118325000Y-101377750D01*
X118166250Y-101219000D01*
X116967000Y-101219000D01*
X116713000Y-101219000D01*
X116693000Y-101219000D01*
X116693000Y-100965000D01*
X116713000Y-100965000D01*
X116713000Y-100945000D01*
X116967000Y-100945000D01*
X116967000Y-100965000D01*
X118166250Y-100965000D01*
X118325000Y-100806250D01*
X118325000Y-100115691D01*
X118287020Y-100024000D01*
X121972961Y-100024000D01*
X121893189Y-100077302D01*
X121893189Y-100077302D01*
G37*
X121893189Y-100077302D02*
X121723005Y-100332000D01*
X121412000Y-100332000D01*
X121121161Y-100389852D01*
X120874599Y-100554599D01*
X116713000Y-104716198D01*
X116107401Y-104110599D01*
X115860839Y-103945852D01*
X115570000Y-103888000D01*
X113030000Y-103888000D01*
X112739160Y-103945852D01*
X112594072Y-104042797D01*
X112648757Y-103911100D01*
X112649242Y-103355339D01*
X112531197Y-103069646D01*
X112558839Y-103064148D01*
X112654005Y-103000560D01*
X112754540Y-102945848D01*
X113490945Y-102332177D01*
X113731715Y-102493054D01*
X114300000Y-102606093D01*
X114868285Y-102493054D01*
X115350054Y-102171147D01*
X115379403Y-102127223D01*
X115451673Y-102301698D01*
X115630301Y-102480327D01*
X115863690Y-102577000D01*
X116554250Y-102577000D01*
X116713000Y-102418250D01*
X116713000Y-101219000D01*
X116967000Y-101219000D01*
X116967000Y-102418250D01*
X117125750Y-102577000D01*
X117816310Y-102577000D01*
X118049699Y-102480327D01*
X118228327Y-102301698D01*
X118325000Y-102068309D01*
X118325000Y-101377750D01*
X118166250Y-101219000D01*
X116967000Y-101219000D01*
X116713000Y-101219000D01*
X116693000Y-101219000D01*
X116693000Y-100965000D01*
X116713000Y-100965000D01*
X116713000Y-100945000D01*
X116967000Y-100945000D01*
X116967000Y-100965000D01*
X118166250Y-100965000D01*
X118325000Y-100806250D01*
X118325000Y-100115691D01*
X118287020Y-100024000D01*
X121972961Y-100024000D01*
X121893189Y-100077302D01*
G36*
X108839000Y-100965000D02*
X108859000Y-100965000D01*
X108859000Y-101219000D01*
X108839000Y-101219000D01*
X108839000Y-101239000D01*
X108585000Y-101239000D01*
X108585000Y-101219000D01*
X108565000Y-101219000D01*
X108565000Y-100965000D01*
X108585000Y-100965000D01*
X108585000Y-100945000D01*
X108839000Y-100945000D01*
X108839000Y-100965000D01*
X108839000Y-100965000D01*
G37*
X108839000Y-100965000D02*
X108859000Y-100965000D01*
X108859000Y-101219000D01*
X108839000Y-101219000D01*
X108839000Y-101239000D01*
X108585000Y-101239000D01*
X108585000Y-101219000D01*
X108565000Y-101219000D01*
X108565000Y-100965000D01*
X108585000Y-100965000D01*
X108585000Y-100945000D01*
X108839000Y-100945000D01*
X108839000Y-100965000D01*
G36*
X183515000Y-123825000D02*
X183535000Y-123825000D01*
X183535000Y-124079000D01*
X183515000Y-124079000D01*
X183515000Y-124099000D01*
X183261000Y-124099000D01*
X183261000Y-124079000D01*
X183241000Y-124079000D01*
X183241000Y-123825000D01*
X183261000Y-123825000D01*
X183261000Y-123805000D01*
X183515000Y-123805000D01*
X183515000Y-123825000D01*
X183515000Y-123825000D01*
G37*
X183515000Y-123825000D02*
X183535000Y-123825000D01*
X183535000Y-124079000D01*
X183515000Y-124079000D01*
X183515000Y-124099000D01*
X183261000Y-124099000D01*
X183261000Y-124079000D01*
X183241000Y-124079000D01*
X183241000Y-123825000D01*
X183261000Y-123825000D01*
X183261000Y-123805000D01*
X183515000Y-123805000D01*
X183515000Y-123825000D01*
G36*
X155233000Y-105886250D02*
X155391750Y-106045000D01*
X156591000Y-106045000D01*
X156591000Y-106025000D01*
X156845000Y-106025000D01*
X156845000Y-106045000D01*
X156865000Y-106045000D01*
X156865000Y-106299000D01*
X156845000Y-106299000D01*
X156845000Y-107498250D01*
X157003750Y-107657000D01*
X157694310Y-107657000D01*
X157927699Y-107560327D01*
X158106327Y-107381698D01*
X158178597Y-107207223D01*
X158207946Y-107251147D01*
X158689715Y-107573054D01*
X159258000Y-107686093D01*
X159826285Y-107573054D01*
X160308054Y-107251147D01*
X160528000Y-106921974D01*
X160747946Y-107251147D01*
X161229715Y-107573054D01*
X161798000Y-107686093D01*
X162366285Y-107573054D01*
X162848054Y-107251147D01*
X163068000Y-106921974D01*
X163287946Y-107251147D01*
X163769715Y-107573054D01*
X164338000Y-107686093D01*
X164906285Y-107573054D01*
X165388054Y-107251147D01*
X165601301Y-106932000D01*
X173929198Y-106932000D01*
X174500000Y-107502802D01*
X174500000Y-111506000D01*
X174557852Y-111796839D01*
X174722599Y-112043401D01*
X181358000Y-118678802D01*
X181358000Y-122609976D01*
X181134691Y-122517250D01*
X180563813Y-122516752D01*
X180036200Y-122734757D01*
X179632176Y-123138077D01*
X179578138Y-123268215D01*
X179525243Y-123140200D01*
X179121923Y-122736176D01*
X178594691Y-122517250D01*
X178023813Y-122516752D01*
X177496200Y-122734757D01*
X177092176Y-123138077D01*
X177038138Y-123268215D01*
X176985243Y-123140200D01*
X176581923Y-122736176D01*
X176054691Y-122517250D01*
X175483813Y-122516752D01*
X175429851Y-122539049D01*
X173004164Y-120113362D01*
X173382614Y-120038084D01*
X173783277Y-119770370D01*
X173912410Y-119577109D01*
X174080875Y-119799933D01*
X174500624Y-120046286D01*
X174592391Y-120061462D01*
X174783000Y-119936731D01*
X174783000Y-118745000D01*
X174763000Y-118745000D01*
X174763000Y-118491000D01*
X174783000Y-118491000D01*
X174783000Y-117299269D01*
X175037000Y-117299269D01*
X175037000Y-118491000D01*
X175057000Y-118491000D01*
X175057000Y-118745000D01*
X175037000Y-118745000D01*
X175037000Y-119936731D01*
X175227609Y-120061462D01*
X175319376Y-120046286D01*
X175739125Y-119799933D01*
X175907590Y-119577109D01*
X176036723Y-119770370D01*
X176437386Y-120038084D01*
X176910000Y-120132093D01*
X177382614Y-120038084D01*
X177783277Y-119770370D01*
X178050991Y-119369707D01*
X178145000Y-118897093D01*
X178145000Y-118338907D01*
X178050991Y-117866293D01*
X177783277Y-117465630D01*
X177382614Y-117197916D01*
X176910000Y-117103907D01*
X176437386Y-117197916D01*
X176036723Y-117465630D01*
X175907590Y-117658891D01*
X175739125Y-117436067D01*
X175319376Y-117189714D01*
X175227609Y-117174538D01*
X175037000Y-117299269D01*
X174783000Y-117299269D01*
X174592391Y-117174538D01*
X174500624Y-117189714D01*
X174080875Y-117436067D01*
X173912410Y-117658891D01*
X173783277Y-117465630D01*
X173382614Y-117197916D01*
X172910000Y-117103907D01*
X172437386Y-117197916D01*
X172036723Y-117465630D01*
X171910000Y-117655285D01*
X171783277Y-117465630D01*
X171382614Y-117197916D01*
X170910000Y-117103907D01*
X170437386Y-117197916D01*
X170060004Y-117450074D01*
X169974090Y-117316559D01*
X169761890Y-117171569D01*
X169510000Y-117120560D01*
X168310000Y-117120560D01*
X168074683Y-117164838D01*
X167858559Y-117303910D01*
X167713569Y-117516110D01*
X167662560Y-117768000D01*
X167662560Y-119468000D01*
X167706838Y-119703317D01*
X167845910Y-119919441D01*
X168058110Y-120064431D01*
X168310000Y-120115440D01*
X169510000Y-120115440D01*
X169745317Y-120071162D01*
X169961441Y-119932090D01*
X170060901Y-119786525D01*
X170437386Y-120038084D01*
X170864176Y-120122978D01*
X171393198Y-120652000D01*
X158750000Y-120652000D01*
X158459160Y-120709852D01*
X158212599Y-120874599D01*
X157165198Y-121922000D01*
X154716879Y-121922000D01*
X154812757Y-121691100D01*
X154813242Y-121135339D01*
X154601010Y-120621697D01*
X154208370Y-120228371D01*
X154000488Y-120142051D01*
X154206303Y-120057010D01*
X154599629Y-119664370D01*
X154812757Y-119151100D01*
X154813242Y-118595339D01*
X154601010Y-118081697D01*
X154208370Y-117688371D01*
X154000488Y-117602051D01*
X154206303Y-117517010D01*
X154599629Y-117124370D01*
X154812757Y-116611100D01*
X154813242Y-116055339D01*
X154601010Y-115541697D01*
X154208370Y-115148371D01*
X154000488Y-115062051D01*
X154206303Y-114977010D01*
X154599629Y-114584370D01*
X154812757Y-114071100D01*
X154813242Y-113515339D01*
X154601010Y-113001697D01*
X154208370Y-112608371D01*
X154000488Y-112522051D01*
X154206303Y-112437010D01*
X154599629Y-112044370D01*
X154812757Y-111531100D01*
X154813242Y-110975339D01*
X154601010Y-110461697D01*
X154208370Y-110068371D01*
X154000488Y-109982051D01*
X154206303Y-109897010D01*
X154556925Y-109547000D01*
X168024560Y-109547000D01*
X168024560Y-109712000D01*
X168068838Y-109947317D01*
X168207910Y-110163441D01*
X168420110Y-110308431D01*
X168672000Y-110359440D01*
X170672000Y-110359440D01*
X170907317Y-110315162D01*
X171123441Y-110176090D01*
X171268431Y-109963890D01*
X171271042Y-109950998D01*
X171337736Y-110131387D01*
X171947461Y-110357908D01*
X172597460Y-110333856D01*
X173086264Y-110131387D01*
X173184927Y-109864532D01*
X172212000Y-108891605D01*
X172197858Y-108905748D01*
X172018253Y-108726143D01*
X172032395Y-108712000D01*
X172391605Y-108712000D01*
X173364532Y-109684927D01*
X173631387Y-109586264D01*
X173857908Y-108976539D01*
X173833856Y-108326540D01*
X173631387Y-107837736D01*
X173364532Y-107739073D01*
X172391605Y-108712000D01*
X172032395Y-108712000D01*
X172018253Y-108697858D01*
X172197858Y-108518253D01*
X172212000Y-108532395D01*
X173184927Y-107559468D01*
X173086264Y-107292613D01*
X172476539Y-107066092D01*
X171826540Y-107090144D01*
X171337736Y-107292613D01*
X171271681Y-107471273D01*
X171136090Y-107260559D01*
X170923890Y-107115569D01*
X170672000Y-107064560D01*
X168672000Y-107064560D01*
X168436683Y-107108838D01*
X168220559Y-107247910D01*
X168075569Y-107460110D01*
X168024560Y-107712000D01*
X168024560Y-107877000D01*
X154556391Y-107877000D01*
X154208370Y-107528371D01*
X154000488Y-107442051D01*
X154206303Y-107357010D01*
X154599629Y-106964370D01*
X154809995Y-106457750D01*
X155233000Y-106457750D01*
X155233000Y-107148309D01*
X155329673Y-107381698D01*
X155508301Y-107560327D01*
X155741690Y-107657000D01*
X156432250Y-107657000D01*
X156591000Y-107498250D01*
X156591000Y-106299000D01*
X155391750Y-106299000D01*
X155233000Y-106457750D01*
X154809995Y-106457750D01*
X154812757Y-106451100D01*
X154813242Y-105895339D01*
X154716829Y-105662000D01*
X154940000Y-105662000D01*
X155230839Y-105604148D01*
X155233000Y-105602704D01*
X155233000Y-105886250D01*
X155233000Y-105886250D01*
G37*
X155233000Y-105886250D02*
X155391750Y-106045000D01*
X156591000Y-106045000D01*
X156591000Y-106025000D01*
X156845000Y-106025000D01*
X156845000Y-106045000D01*
X156865000Y-106045000D01*
X156865000Y-106299000D01*
X156845000Y-106299000D01*
X156845000Y-107498250D01*
X157003750Y-107657000D01*
X157694310Y-107657000D01*
X157927699Y-107560327D01*
X158106327Y-107381698D01*
X158178597Y-107207223D01*
X158207946Y-107251147D01*
X158689715Y-107573054D01*
X159258000Y-107686093D01*
X159826285Y-107573054D01*
X160308054Y-107251147D01*
X160528000Y-106921974D01*
X160747946Y-107251147D01*
X161229715Y-107573054D01*
X161798000Y-107686093D01*
X162366285Y-107573054D01*
X162848054Y-107251147D01*
X163068000Y-106921974D01*
X163287946Y-107251147D01*
X163769715Y-107573054D01*
X164338000Y-107686093D01*
X164906285Y-107573054D01*
X165388054Y-107251147D01*
X165601301Y-106932000D01*
X173929198Y-106932000D01*
X174500000Y-107502802D01*
X174500000Y-111506000D01*
X174557852Y-111796839D01*
X174722599Y-112043401D01*
X181358000Y-118678802D01*
X181358000Y-122609976D01*
X181134691Y-122517250D01*
X180563813Y-122516752D01*
X180036200Y-122734757D01*
X179632176Y-123138077D01*
X179578138Y-123268215D01*
X179525243Y-123140200D01*
X179121923Y-122736176D01*
X178594691Y-122517250D01*
X178023813Y-122516752D01*
X177496200Y-122734757D01*
X177092176Y-123138077D01*
X177038138Y-123268215D01*
X176985243Y-123140200D01*
X176581923Y-122736176D01*
X176054691Y-122517250D01*
X175483813Y-122516752D01*
X175429851Y-122539049D01*
X173004164Y-120113362D01*
X173382614Y-120038084D01*
X173783277Y-119770370D01*
X173912410Y-119577109D01*
X174080875Y-119799933D01*
X174500624Y-120046286D01*
X174592391Y-120061462D01*
X174783000Y-119936731D01*
X174783000Y-118745000D01*
X174763000Y-118745000D01*
X174763000Y-118491000D01*
X174783000Y-118491000D01*
X174783000Y-117299269D01*
X175037000Y-117299269D01*
X175037000Y-118491000D01*
X175057000Y-118491000D01*
X175057000Y-118745000D01*
X175037000Y-118745000D01*
X175037000Y-119936731D01*
X175227609Y-120061462D01*
X175319376Y-120046286D01*
X175739125Y-119799933D01*
X175907590Y-119577109D01*
X176036723Y-119770370D01*
X176437386Y-120038084D01*
X176910000Y-120132093D01*
X177382614Y-120038084D01*
X177783277Y-119770370D01*
X178050991Y-119369707D01*
X178145000Y-118897093D01*
X178145000Y-118338907D01*
X178050991Y-117866293D01*
X177783277Y-117465630D01*
X177382614Y-117197916D01*
X176910000Y-117103907D01*
X176437386Y-117197916D01*
X176036723Y-117465630D01*
X175907590Y-117658891D01*
X175739125Y-117436067D01*
X175319376Y-117189714D01*
X175227609Y-117174538D01*
X175037000Y-117299269D01*
X174783000Y-117299269D01*
X174592391Y-117174538D01*
X174500624Y-117189714D01*
X174080875Y-117436067D01*
X173912410Y-117658891D01*
X173783277Y-117465630D01*
X173382614Y-117197916D01*
X172910000Y-117103907D01*
X172437386Y-117197916D01*
X172036723Y-117465630D01*
X171910000Y-117655285D01*
X171783277Y-117465630D01*
X171382614Y-117197916D01*
X170910000Y-117103907D01*
X170437386Y-117197916D01*
X170060004Y-117450074D01*
X169974090Y-117316559D01*
X169761890Y-117171569D01*
X169510000Y-117120560D01*
X168310000Y-117120560D01*
X168074683Y-117164838D01*
X167858559Y-117303910D01*
X167713569Y-117516110D01*
X167662560Y-117768000D01*
X167662560Y-119468000D01*
X167706838Y-119703317D01*
X167845910Y-119919441D01*
X168058110Y-120064431D01*
X168310000Y-120115440D01*
X169510000Y-120115440D01*
X169745317Y-120071162D01*
X169961441Y-119932090D01*
X170060901Y-119786525D01*
X170437386Y-120038084D01*
X170864176Y-120122978D01*
X171393198Y-120652000D01*
X158750000Y-120652000D01*
X158459160Y-120709852D01*
X158212599Y-120874599D01*
X157165198Y-121922000D01*
X154716879Y-121922000D01*
X154812757Y-121691100D01*
X154813242Y-121135339D01*
X154601010Y-120621697D01*
X154208370Y-120228371D01*
X154000488Y-120142051D01*
X154206303Y-120057010D01*
X154599629Y-119664370D01*
X154812757Y-119151100D01*
X154813242Y-118595339D01*
X154601010Y-118081697D01*
X154208370Y-117688371D01*
X154000488Y-117602051D01*
X154206303Y-117517010D01*
X154599629Y-117124370D01*
X154812757Y-116611100D01*
X154813242Y-116055339D01*
X154601010Y-115541697D01*
X154208370Y-115148371D01*
X154000488Y-115062051D01*
X154206303Y-114977010D01*
X154599629Y-114584370D01*
X154812757Y-114071100D01*
X154813242Y-113515339D01*
X154601010Y-113001697D01*
X154208370Y-112608371D01*
X154000488Y-112522051D01*
X154206303Y-112437010D01*
X154599629Y-112044370D01*
X154812757Y-111531100D01*
X154813242Y-110975339D01*
X154601010Y-110461697D01*
X154208370Y-110068371D01*
X154000488Y-109982051D01*
X154206303Y-109897010D01*
X154556925Y-109547000D01*
X168024560Y-109547000D01*
X168024560Y-109712000D01*
X168068838Y-109947317D01*
X168207910Y-110163441D01*
X168420110Y-110308431D01*
X168672000Y-110359440D01*
X170672000Y-110359440D01*
X170907317Y-110315162D01*
X171123441Y-110176090D01*
X171268431Y-109963890D01*
X171271042Y-109950998D01*
X171337736Y-110131387D01*
X171947461Y-110357908D01*
X172597460Y-110333856D01*
X173086264Y-110131387D01*
X173184927Y-109864532D01*
X172212000Y-108891605D01*
X172197858Y-108905748D01*
X172018253Y-108726143D01*
X172032395Y-108712000D01*
X172391605Y-108712000D01*
X173364532Y-109684927D01*
X173631387Y-109586264D01*
X173857908Y-108976539D01*
X173833856Y-108326540D01*
X173631387Y-107837736D01*
X173364532Y-107739073D01*
X172391605Y-108712000D01*
X172032395Y-108712000D01*
X172018253Y-108697858D01*
X172197858Y-108518253D01*
X172212000Y-108532395D01*
X173184927Y-107559468D01*
X173086264Y-107292613D01*
X172476539Y-107066092D01*
X171826540Y-107090144D01*
X171337736Y-107292613D01*
X171271681Y-107471273D01*
X171136090Y-107260559D01*
X170923890Y-107115569D01*
X170672000Y-107064560D01*
X168672000Y-107064560D01*
X168436683Y-107108838D01*
X168220559Y-107247910D01*
X168075569Y-107460110D01*
X168024560Y-107712000D01*
X168024560Y-107877000D01*
X154556391Y-107877000D01*
X154208370Y-107528371D01*
X154000488Y-107442051D01*
X154206303Y-107357010D01*
X154599629Y-106964370D01*
X154809995Y-106457750D01*
X155233000Y-106457750D01*
X155233000Y-107148309D01*
X155329673Y-107381698D01*
X155508301Y-107560327D01*
X155741690Y-107657000D01*
X156432250Y-107657000D01*
X156591000Y-107498250D01*
X156591000Y-106299000D01*
X155391750Y-106299000D01*
X155233000Y-106457750D01*
X154809995Y-106457750D01*
X154812757Y-106451100D01*
X154813242Y-105895339D01*
X154716829Y-105662000D01*
X154940000Y-105662000D01*
X155230839Y-105604148D01*
X155233000Y-105602704D01*
X155233000Y-105886250D01*
G36*
X164057189Y-100077302D02*
X163887005Y-100332000D01*
X163576000Y-100332000D01*
X163285161Y-100389852D01*
X163038599Y-100554599D01*
X158877000Y-104716198D01*
X158271401Y-104110599D01*
X158024839Y-103945852D01*
X157734000Y-103888000D01*
X155194000Y-103888000D01*
X154903160Y-103945852D01*
X154758072Y-104042797D01*
X154812757Y-103911100D01*
X154813242Y-103355339D01*
X154695197Y-103069646D01*
X154722839Y-103064148D01*
X154818005Y-103000560D01*
X154918540Y-102945848D01*
X155654945Y-102332177D01*
X155895715Y-102493054D01*
X156464000Y-102606093D01*
X157032285Y-102493054D01*
X157514054Y-102171147D01*
X157543403Y-102127223D01*
X157615673Y-102301698D01*
X157794301Y-102480327D01*
X158027690Y-102577000D01*
X158718250Y-102577000D01*
X158877000Y-102418250D01*
X158877000Y-101219000D01*
X159131000Y-101219000D01*
X159131000Y-102418250D01*
X159289750Y-102577000D01*
X159980310Y-102577000D01*
X160213699Y-102480327D01*
X160392327Y-102301698D01*
X160489000Y-102068309D01*
X160489000Y-101377750D01*
X160330250Y-101219000D01*
X159131000Y-101219000D01*
X158877000Y-101219000D01*
X158857000Y-101219000D01*
X158857000Y-100965000D01*
X158877000Y-100965000D01*
X158877000Y-100945000D01*
X159131000Y-100945000D01*
X159131000Y-100965000D01*
X160330250Y-100965000D01*
X160489000Y-100806250D01*
X160489000Y-100115691D01*
X160451020Y-100024000D01*
X164136961Y-100024000D01*
X164057189Y-100077302D01*
X164057189Y-100077302D01*
G37*
X164057189Y-100077302D02*
X163887005Y-100332000D01*
X163576000Y-100332000D01*
X163285161Y-100389852D01*
X163038599Y-100554599D01*
X158877000Y-104716198D01*
X158271401Y-104110599D01*
X158024839Y-103945852D01*
X157734000Y-103888000D01*
X155194000Y-103888000D01*
X154903160Y-103945852D01*
X154758072Y-104042797D01*
X154812757Y-103911100D01*
X154813242Y-103355339D01*
X154695197Y-103069646D01*
X154722839Y-103064148D01*
X154818005Y-103000560D01*
X154918540Y-102945848D01*
X155654945Y-102332177D01*
X155895715Y-102493054D01*
X156464000Y-102606093D01*
X157032285Y-102493054D01*
X157514054Y-102171147D01*
X157543403Y-102127223D01*
X157615673Y-102301698D01*
X157794301Y-102480327D01*
X158027690Y-102577000D01*
X158718250Y-102577000D01*
X158877000Y-102418250D01*
X158877000Y-101219000D01*
X159131000Y-101219000D01*
X159131000Y-102418250D01*
X159289750Y-102577000D01*
X159980310Y-102577000D01*
X160213699Y-102480327D01*
X160392327Y-102301698D01*
X160489000Y-102068309D01*
X160489000Y-101377750D01*
X160330250Y-101219000D01*
X159131000Y-101219000D01*
X158877000Y-101219000D01*
X158857000Y-101219000D01*
X158857000Y-100965000D01*
X158877000Y-100965000D01*
X158877000Y-100945000D01*
X159131000Y-100945000D01*
X159131000Y-100965000D01*
X160330250Y-100965000D01*
X160489000Y-100806250D01*
X160489000Y-100115691D01*
X160451020Y-100024000D01*
X164136961Y-100024000D01*
X164057189Y-100077302D01*
G36*
X151003000Y-100965000D02*
X151023000Y-100965000D01*
X151023000Y-101219000D01*
X151003000Y-101219000D01*
X151003000Y-101239000D01*
X150749000Y-101239000D01*
X150749000Y-101219000D01*
X150729000Y-101219000D01*
X150729000Y-100965000D01*
X150749000Y-100965000D01*
X150749000Y-100945000D01*
X151003000Y-100945000D01*
X151003000Y-100965000D01*
X151003000Y-100965000D01*
G37*
X151003000Y-100965000D02*
X151023000Y-100965000D01*
X151023000Y-101219000D01*
X151003000Y-101219000D01*
X151003000Y-101239000D01*
X150749000Y-101239000D01*
X150749000Y-101219000D01*
X150729000Y-101219000D01*
X150729000Y-100965000D01*
X150749000Y-100965000D01*
X150749000Y-100945000D01*
X151003000Y-100945000D01*
X151003000Y-100965000D01*
G36*
X141988000Y-78321000D02*
X141509750Y-78321000D01*
X141351000Y-78479750D01*
X141351000Y-79629000D01*
X141371000Y-79629000D01*
X141371000Y-79883000D01*
X141351000Y-79883000D01*
X141351000Y-79903000D01*
X141097000Y-79903000D01*
X141097000Y-79883000D01*
X141077000Y-79883000D01*
X141077000Y-79629000D01*
X141097000Y-79629000D01*
X141097000Y-78479750D01*
X140938250Y-78321000D01*
X140714000Y-78321000D01*
X140714000Y-78316000D01*
X141988000Y-78316000D01*
X141988000Y-78321000D01*
X141988000Y-78321000D01*
G37*
X141988000Y-78321000D02*
X141509750Y-78321000D01*
X141351000Y-78479750D01*
X141351000Y-79629000D01*
X141371000Y-79629000D01*
X141371000Y-79883000D01*
X141351000Y-79883000D01*
X141351000Y-79903000D01*
X141097000Y-79903000D01*
X141097000Y-79883000D01*
X141077000Y-79883000D01*
X141077000Y-79629000D01*
X141097000Y-79629000D01*
X141097000Y-78479750D01*
X140938250Y-78321000D01*
X140714000Y-78321000D01*
X140714000Y-78316000D01*
X141988000Y-78316000D01*
X141988000Y-78321000D01*
G36*
X113069000Y-61690250D02*
X113227750Y-61849000D01*
X114427000Y-61849000D01*
X114427000Y-61829000D01*
X114681000Y-61829000D01*
X114681000Y-61849000D01*
X114701000Y-61849000D01*
X114701000Y-62103000D01*
X114681000Y-62103000D01*
X114681000Y-63302250D01*
X114839750Y-63461000D01*
X115530310Y-63461000D01*
X115763699Y-63364327D01*
X115942327Y-63185698D01*
X116014597Y-63011223D01*
X116043946Y-63055147D01*
X116525715Y-63377054D01*
X117094000Y-63490093D01*
X117662285Y-63377054D01*
X118144054Y-63055147D01*
X118364000Y-62725974D01*
X118583946Y-63055147D01*
X119065715Y-63377054D01*
X119634000Y-63490093D01*
X120202285Y-63377054D01*
X120684054Y-63055147D01*
X120904000Y-62725974D01*
X121123946Y-63055147D01*
X121605715Y-63377054D01*
X122174000Y-63490093D01*
X122742285Y-63377054D01*
X123224054Y-63055147D01*
X123437301Y-62736000D01*
X131765198Y-62736000D01*
X132336000Y-63306802D01*
X132336000Y-67310000D01*
X132393852Y-67600839D01*
X132558599Y-67847401D01*
X139194000Y-74482802D01*
X139194000Y-78413976D01*
X138970691Y-78321250D01*
X138399813Y-78320752D01*
X137872200Y-78538757D01*
X137468176Y-78942077D01*
X137414138Y-79072215D01*
X137361243Y-78944200D01*
X136957923Y-78540176D01*
X136430691Y-78321250D01*
X135859813Y-78320752D01*
X135332200Y-78538757D01*
X134928176Y-78942077D01*
X134874138Y-79072215D01*
X134821243Y-78944200D01*
X134417923Y-78540176D01*
X133890691Y-78321250D01*
X133319813Y-78320752D01*
X133265851Y-78343049D01*
X130840164Y-75917362D01*
X131218614Y-75842084D01*
X131619277Y-75574370D01*
X131748410Y-75381109D01*
X131916875Y-75603933D01*
X132336624Y-75850286D01*
X132428391Y-75865462D01*
X132619000Y-75740731D01*
X132619000Y-74549000D01*
X132599000Y-74549000D01*
X132599000Y-74295000D01*
X132619000Y-74295000D01*
X132619000Y-73103269D01*
X132873000Y-73103269D01*
X132873000Y-74295000D01*
X132893000Y-74295000D01*
X132893000Y-74549000D01*
X132873000Y-74549000D01*
X132873000Y-75740731D01*
X133063609Y-75865462D01*
X133155376Y-75850286D01*
X133575125Y-75603933D01*
X133743590Y-75381109D01*
X133872723Y-75574370D01*
X134273386Y-75842084D01*
X134746000Y-75936093D01*
X135218614Y-75842084D01*
X135619277Y-75574370D01*
X135886991Y-75173707D01*
X135981000Y-74701093D01*
X135981000Y-74142907D01*
X135886991Y-73670293D01*
X135619277Y-73269630D01*
X135218614Y-73001916D01*
X134746000Y-72907907D01*
X134273386Y-73001916D01*
X133872723Y-73269630D01*
X133743590Y-73462891D01*
X133575125Y-73240067D01*
X133155376Y-72993714D01*
X133063609Y-72978538D01*
X132873000Y-73103269D01*
X132619000Y-73103269D01*
X132428391Y-72978538D01*
X132336624Y-72993714D01*
X131916875Y-73240067D01*
X131748410Y-73462891D01*
X131619277Y-73269630D01*
X131218614Y-73001916D01*
X130746000Y-72907907D01*
X130273386Y-73001916D01*
X129872723Y-73269630D01*
X129746000Y-73459285D01*
X129619277Y-73269630D01*
X129218614Y-73001916D01*
X128746000Y-72907907D01*
X128273386Y-73001916D01*
X127896004Y-73254074D01*
X127810090Y-73120559D01*
X127597890Y-72975569D01*
X127346000Y-72924560D01*
X126146000Y-72924560D01*
X125910683Y-72968838D01*
X125694559Y-73107910D01*
X125549569Y-73320110D01*
X125498560Y-73572000D01*
X125498560Y-75272000D01*
X125542838Y-75507317D01*
X125681910Y-75723441D01*
X125894110Y-75868431D01*
X126146000Y-75919440D01*
X127346000Y-75919440D01*
X127581317Y-75875162D01*
X127797441Y-75736090D01*
X127896901Y-75590525D01*
X128273386Y-75842084D01*
X128700176Y-75926978D01*
X129229198Y-76456000D01*
X116586000Y-76456000D01*
X116295160Y-76513852D01*
X116048599Y-76678599D01*
X115001198Y-77726000D01*
X112552879Y-77726000D01*
X112648757Y-77495100D01*
X112649242Y-76939339D01*
X112437010Y-76425697D01*
X112044370Y-76032371D01*
X111836488Y-75946051D01*
X112042303Y-75861010D01*
X112435629Y-75468370D01*
X112648757Y-74955100D01*
X112649242Y-74399339D01*
X112437010Y-73885697D01*
X112044370Y-73492371D01*
X111836488Y-73406051D01*
X112042303Y-73321010D01*
X112435629Y-72928370D01*
X112648757Y-72415100D01*
X112649242Y-71859339D01*
X112437010Y-71345697D01*
X112044370Y-70952371D01*
X111836488Y-70866051D01*
X112042303Y-70781010D01*
X112435629Y-70388370D01*
X112648757Y-69875100D01*
X112649242Y-69319339D01*
X112437010Y-68805697D01*
X112044370Y-68412371D01*
X111836488Y-68326051D01*
X112042303Y-68241010D01*
X112435629Y-67848370D01*
X112648757Y-67335100D01*
X112649242Y-66779339D01*
X112437010Y-66265697D01*
X112044370Y-65872371D01*
X111836488Y-65786051D01*
X112042303Y-65701010D01*
X112392925Y-65351000D01*
X125860560Y-65351000D01*
X125860560Y-65516000D01*
X125904838Y-65751317D01*
X126043910Y-65967441D01*
X126256110Y-66112431D01*
X126508000Y-66163440D01*
X128508000Y-66163440D01*
X128743317Y-66119162D01*
X128959441Y-65980090D01*
X129104431Y-65767890D01*
X129107042Y-65754998D01*
X129173736Y-65935387D01*
X129783461Y-66161908D01*
X130433460Y-66137856D01*
X130922264Y-65935387D01*
X131020927Y-65668532D01*
X130048000Y-64695605D01*
X130033858Y-64709748D01*
X129854253Y-64530143D01*
X129868395Y-64516000D01*
X130227605Y-64516000D01*
X131200532Y-65488927D01*
X131467387Y-65390264D01*
X131693908Y-64780539D01*
X131669856Y-64130540D01*
X131467387Y-63641736D01*
X131200532Y-63543073D01*
X130227605Y-64516000D01*
X129868395Y-64516000D01*
X129854253Y-64501858D01*
X130033858Y-64322253D01*
X130048000Y-64336395D01*
X131020927Y-63363468D01*
X130922264Y-63096613D01*
X130312539Y-62870092D01*
X129662540Y-62894144D01*
X129173736Y-63096613D01*
X129107681Y-63275273D01*
X128972090Y-63064559D01*
X128759890Y-62919569D01*
X128508000Y-62868560D01*
X126508000Y-62868560D01*
X126272683Y-62912838D01*
X126056559Y-63051910D01*
X125911569Y-63264110D01*
X125860560Y-63516000D01*
X125860560Y-63681000D01*
X112392391Y-63681000D01*
X112044370Y-63332371D01*
X111836488Y-63246051D01*
X112042303Y-63161010D01*
X112435629Y-62768370D01*
X112645995Y-62261750D01*
X113069000Y-62261750D01*
X113069000Y-62952309D01*
X113165673Y-63185698D01*
X113344301Y-63364327D01*
X113577690Y-63461000D01*
X114268250Y-63461000D01*
X114427000Y-63302250D01*
X114427000Y-62103000D01*
X113227750Y-62103000D01*
X113069000Y-62261750D01*
X112645995Y-62261750D01*
X112648757Y-62255100D01*
X112649242Y-61699339D01*
X112552829Y-61466000D01*
X112776000Y-61466000D01*
X113066839Y-61408148D01*
X113069000Y-61406704D01*
X113069000Y-61690250D01*
X113069000Y-61690250D01*
G37*
X113069000Y-61690250D02*
X113227750Y-61849000D01*
X114427000Y-61849000D01*
X114427000Y-61829000D01*
X114681000Y-61829000D01*
X114681000Y-61849000D01*
X114701000Y-61849000D01*
X114701000Y-62103000D01*
X114681000Y-62103000D01*
X114681000Y-63302250D01*
X114839750Y-63461000D01*
X115530310Y-63461000D01*
X115763699Y-63364327D01*
X115942327Y-63185698D01*
X116014597Y-63011223D01*
X116043946Y-63055147D01*
X116525715Y-63377054D01*
X117094000Y-63490093D01*
X117662285Y-63377054D01*
X118144054Y-63055147D01*
X118364000Y-62725974D01*
X118583946Y-63055147D01*
X119065715Y-63377054D01*
X119634000Y-63490093D01*
X120202285Y-63377054D01*
X120684054Y-63055147D01*
X120904000Y-62725974D01*
X121123946Y-63055147D01*
X121605715Y-63377054D01*
X122174000Y-63490093D01*
X122742285Y-63377054D01*
X123224054Y-63055147D01*
X123437301Y-62736000D01*
X131765198Y-62736000D01*
X132336000Y-63306802D01*
X132336000Y-67310000D01*
X132393852Y-67600839D01*
X132558599Y-67847401D01*
X139194000Y-74482802D01*
X139194000Y-78413976D01*
X138970691Y-78321250D01*
X138399813Y-78320752D01*
X137872200Y-78538757D01*
X137468176Y-78942077D01*
X137414138Y-79072215D01*
X137361243Y-78944200D01*
X136957923Y-78540176D01*
X136430691Y-78321250D01*
X135859813Y-78320752D01*
X135332200Y-78538757D01*
X134928176Y-78942077D01*
X134874138Y-79072215D01*
X134821243Y-78944200D01*
X134417923Y-78540176D01*
X133890691Y-78321250D01*
X133319813Y-78320752D01*
X133265851Y-78343049D01*
X130840164Y-75917362D01*
X131218614Y-75842084D01*
X131619277Y-75574370D01*
X131748410Y-75381109D01*
X131916875Y-75603933D01*
X132336624Y-75850286D01*
X132428391Y-75865462D01*
X132619000Y-75740731D01*
X132619000Y-74549000D01*
X132599000Y-74549000D01*
X132599000Y-74295000D01*
X132619000Y-74295000D01*
X132619000Y-73103269D01*
X132873000Y-73103269D01*
X132873000Y-74295000D01*
X132893000Y-74295000D01*
X132893000Y-74549000D01*
X132873000Y-74549000D01*
X132873000Y-75740731D01*
X133063609Y-75865462D01*
X133155376Y-75850286D01*
X133575125Y-75603933D01*
X133743590Y-75381109D01*
X133872723Y-75574370D01*
X134273386Y-75842084D01*
X134746000Y-75936093D01*
X135218614Y-75842084D01*
X135619277Y-75574370D01*
X135886991Y-75173707D01*
X135981000Y-74701093D01*
X135981000Y-74142907D01*
X135886991Y-73670293D01*
X135619277Y-73269630D01*
X135218614Y-73001916D01*
X134746000Y-72907907D01*
X134273386Y-73001916D01*
X133872723Y-73269630D01*
X133743590Y-73462891D01*
X133575125Y-73240067D01*
X133155376Y-72993714D01*
X133063609Y-72978538D01*
X132873000Y-73103269D01*
X132619000Y-73103269D01*
X132428391Y-72978538D01*
X132336624Y-72993714D01*
X131916875Y-73240067D01*
X131748410Y-73462891D01*
X131619277Y-73269630D01*
X131218614Y-73001916D01*
X130746000Y-72907907D01*
X130273386Y-73001916D01*
X129872723Y-73269630D01*
X129746000Y-73459285D01*
X129619277Y-73269630D01*
X129218614Y-73001916D01*
X128746000Y-72907907D01*
X128273386Y-73001916D01*
X127896004Y-73254074D01*
X127810090Y-73120559D01*
X127597890Y-72975569D01*
X127346000Y-72924560D01*
X126146000Y-72924560D01*
X125910683Y-72968838D01*
X125694559Y-73107910D01*
X125549569Y-73320110D01*
X125498560Y-73572000D01*
X125498560Y-75272000D01*
X125542838Y-75507317D01*
X125681910Y-75723441D01*
X125894110Y-75868431D01*
X126146000Y-75919440D01*
X127346000Y-75919440D01*
X127581317Y-75875162D01*
X127797441Y-75736090D01*
X127896901Y-75590525D01*
X128273386Y-75842084D01*
X128700176Y-75926978D01*
X129229198Y-76456000D01*
X116586000Y-76456000D01*
X116295160Y-76513852D01*
X116048599Y-76678599D01*
X115001198Y-77726000D01*
X112552879Y-77726000D01*
X112648757Y-77495100D01*
X112649242Y-76939339D01*
X112437010Y-76425697D01*
X112044370Y-76032371D01*
X111836488Y-75946051D01*
X112042303Y-75861010D01*
X112435629Y-75468370D01*
X112648757Y-74955100D01*
X112649242Y-74399339D01*
X112437010Y-73885697D01*
X112044370Y-73492371D01*
X111836488Y-73406051D01*
X112042303Y-73321010D01*
X112435629Y-72928370D01*
X112648757Y-72415100D01*
X112649242Y-71859339D01*
X112437010Y-71345697D01*
X112044370Y-70952371D01*
X111836488Y-70866051D01*
X112042303Y-70781010D01*
X112435629Y-70388370D01*
X112648757Y-69875100D01*
X112649242Y-69319339D01*
X112437010Y-68805697D01*
X112044370Y-68412371D01*
X111836488Y-68326051D01*
X112042303Y-68241010D01*
X112435629Y-67848370D01*
X112648757Y-67335100D01*
X112649242Y-66779339D01*
X112437010Y-66265697D01*
X112044370Y-65872371D01*
X111836488Y-65786051D01*
X112042303Y-65701010D01*
X112392925Y-65351000D01*
X125860560Y-65351000D01*
X125860560Y-65516000D01*
X125904838Y-65751317D01*
X126043910Y-65967441D01*
X126256110Y-66112431D01*
X126508000Y-66163440D01*
X128508000Y-66163440D01*
X128743317Y-66119162D01*
X128959441Y-65980090D01*
X129104431Y-65767890D01*
X129107042Y-65754998D01*
X129173736Y-65935387D01*
X129783461Y-66161908D01*
X130433460Y-66137856D01*
X130922264Y-65935387D01*
X131020927Y-65668532D01*
X130048000Y-64695605D01*
X130033858Y-64709748D01*
X129854253Y-64530143D01*
X129868395Y-64516000D01*
X130227605Y-64516000D01*
X131200532Y-65488927D01*
X131467387Y-65390264D01*
X131693908Y-64780539D01*
X131669856Y-64130540D01*
X131467387Y-63641736D01*
X131200532Y-63543073D01*
X130227605Y-64516000D01*
X129868395Y-64516000D01*
X129854253Y-64501858D01*
X130033858Y-64322253D01*
X130048000Y-64336395D01*
X131020927Y-63363468D01*
X130922264Y-63096613D01*
X130312539Y-62870092D01*
X129662540Y-62894144D01*
X129173736Y-63096613D01*
X129107681Y-63275273D01*
X128972090Y-63064559D01*
X128759890Y-62919569D01*
X128508000Y-62868560D01*
X126508000Y-62868560D01*
X126272683Y-62912838D01*
X126056559Y-63051910D01*
X125911569Y-63264110D01*
X125860560Y-63516000D01*
X125860560Y-63681000D01*
X112392391Y-63681000D01*
X112044370Y-63332371D01*
X111836488Y-63246051D01*
X112042303Y-63161010D01*
X112435629Y-62768370D01*
X112645995Y-62261750D01*
X113069000Y-62261750D01*
X113069000Y-62952309D01*
X113165673Y-63185698D01*
X113344301Y-63364327D01*
X113577690Y-63461000D01*
X114268250Y-63461000D01*
X114427000Y-63302250D01*
X114427000Y-62103000D01*
X113227750Y-62103000D01*
X113069000Y-62261750D01*
X112645995Y-62261750D01*
X112648757Y-62255100D01*
X112649242Y-61699339D01*
X112552829Y-61466000D01*
X112776000Y-61466000D01*
X113066839Y-61408148D01*
X113069000Y-61406704D01*
X113069000Y-61690250D01*
G36*
X121893189Y-55881302D02*
X121723005Y-56136000D01*
X121412000Y-56136000D01*
X121121161Y-56193852D01*
X120874599Y-56358599D01*
X116713000Y-60520198D01*
X116107401Y-59914599D01*
X115860839Y-59749852D01*
X115570000Y-59692000D01*
X113030000Y-59692000D01*
X112739160Y-59749852D01*
X112594072Y-59846797D01*
X112648757Y-59715100D01*
X112649242Y-59159339D01*
X112531197Y-58873646D01*
X112558839Y-58868148D01*
X112654005Y-58804560D01*
X112754540Y-58749848D01*
X113490945Y-58136177D01*
X113731715Y-58297054D01*
X114300000Y-58410093D01*
X114868285Y-58297054D01*
X115350054Y-57975147D01*
X115379403Y-57931223D01*
X115451673Y-58105698D01*
X115630301Y-58284327D01*
X115863690Y-58381000D01*
X116554250Y-58381000D01*
X116713000Y-58222250D01*
X116713000Y-57023000D01*
X116967000Y-57023000D01*
X116967000Y-58222250D01*
X117125750Y-58381000D01*
X117816310Y-58381000D01*
X118049699Y-58284327D01*
X118228327Y-58105698D01*
X118325000Y-57872309D01*
X118325000Y-57181750D01*
X118166250Y-57023000D01*
X116967000Y-57023000D01*
X116713000Y-57023000D01*
X116693000Y-57023000D01*
X116693000Y-56769000D01*
X116713000Y-56769000D01*
X116713000Y-56749000D01*
X116967000Y-56749000D01*
X116967000Y-56769000D01*
X118166250Y-56769000D01*
X118325000Y-56610250D01*
X118325000Y-55919691D01*
X118287020Y-55828000D01*
X121972961Y-55828000D01*
X121893189Y-55881302D01*
X121893189Y-55881302D01*
G37*
X121893189Y-55881302D02*
X121723005Y-56136000D01*
X121412000Y-56136000D01*
X121121161Y-56193852D01*
X120874599Y-56358599D01*
X116713000Y-60520198D01*
X116107401Y-59914599D01*
X115860839Y-59749852D01*
X115570000Y-59692000D01*
X113030000Y-59692000D01*
X112739160Y-59749852D01*
X112594072Y-59846797D01*
X112648757Y-59715100D01*
X112649242Y-59159339D01*
X112531197Y-58873646D01*
X112558839Y-58868148D01*
X112654005Y-58804560D01*
X112754540Y-58749848D01*
X113490945Y-58136177D01*
X113731715Y-58297054D01*
X114300000Y-58410093D01*
X114868285Y-58297054D01*
X115350054Y-57975147D01*
X115379403Y-57931223D01*
X115451673Y-58105698D01*
X115630301Y-58284327D01*
X115863690Y-58381000D01*
X116554250Y-58381000D01*
X116713000Y-58222250D01*
X116713000Y-57023000D01*
X116967000Y-57023000D01*
X116967000Y-58222250D01*
X117125750Y-58381000D01*
X117816310Y-58381000D01*
X118049699Y-58284327D01*
X118228327Y-58105698D01*
X118325000Y-57872309D01*
X118325000Y-57181750D01*
X118166250Y-57023000D01*
X116967000Y-57023000D01*
X116713000Y-57023000D01*
X116693000Y-57023000D01*
X116693000Y-56769000D01*
X116713000Y-56769000D01*
X116713000Y-56749000D01*
X116967000Y-56749000D01*
X116967000Y-56769000D01*
X118166250Y-56769000D01*
X118325000Y-56610250D01*
X118325000Y-55919691D01*
X118287020Y-55828000D01*
X121972961Y-55828000D01*
X121893189Y-55881302D01*
G36*
X108839000Y-56769000D02*
X108859000Y-56769000D01*
X108859000Y-57023000D01*
X108839000Y-57023000D01*
X108839000Y-57043000D01*
X108585000Y-57043000D01*
X108585000Y-57023000D01*
X108565000Y-57023000D01*
X108565000Y-56769000D01*
X108585000Y-56769000D01*
X108585000Y-56749000D01*
X108839000Y-56749000D01*
X108839000Y-56769000D01*
X108839000Y-56769000D01*
G37*
X108839000Y-56769000D02*
X108859000Y-56769000D01*
X108859000Y-57023000D01*
X108839000Y-57023000D01*
X108839000Y-57043000D01*
X108585000Y-57043000D01*
X108585000Y-57023000D01*
X108565000Y-57023000D01*
X108565000Y-56769000D01*
X108585000Y-56769000D01*
X108585000Y-56749000D01*
X108839000Y-56749000D01*
X108839000Y-56769000D01*
G36*
X183515000Y-79629000D02*
X183535000Y-79629000D01*
X183535000Y-79883000D01*
X183515000Y-79883000D01*
X183515000Y-79903000D01*
X183261000Y-79903000D01*
X183261000Y-79883000D01*
X183241000Y-79883000D01*
X183241000Y-79629000D01*
X183261000Y-79629000D01*
X183261000Y-79609000D01*
X183515000Y-79609000D01*
X183515000Y-79629000D01*
X183515000Y-79629000D01*
G37*
X183515000Y-79629000D02*
X183535000Y-79629000D01*
X183535000Y-79883000D01*
X183515000Y-79883000D01*
X183515000Y-79903000D01*
X183261000Y-79903000D01*
X183261000Y-79883000D01*
X183241000Y-79883000D01*
X183241000Y-79629000D01*
X183261000Y-79629000D01*
X183261000Y-79609000D01*
X183515000Y-79609000D01*
X183515000Y-79629000D01*
G36*
X155233000Y-61690250D02*
X155391750Y-61849000D01*
X156591000Y-61849000D01*
X156591000Y-61829000D01*
X156845000Y-61829000D01*
X156845000Y-61849000D01*
X156865000Y-61849000D01*
X156865000Y-62103000D01*
X156845000Y-62103000D01*
X156845000Y-63302250D01*
X157003750Y-63461000D01*
X157694310Y-63461000D01*
X157927699Y-63364327D01*
X158106327Y-63185698D01*
X158178597Y-63011223D01*
X158207946Y-63055147D01*
X158689715Y-63377054D01*
X159258000Y-63490093D01*
X159826285Y-63377054D01*
X160308054Y-63055147D01*
X160528000Y-62725974D01*
X160747946Y-63055147D01*
X161229715Y-63377054D01*
X161798000Y-63490093D01*
X162366285Y-63377054D01*
X162848054Y-63055147D01*
X163068000Y-62725974D01*
X163287946Y-63055147D01*
X163769715Y-63377054D01*
X164338000Y-63490093D01*
X164906285Y-63377054D01*
X165388054Y-63055147D01*
X165601301Y-62736000D01*
X173929198Y-62736000D01*
X174500000Y-63306802D01*
X174500000Y-67310000D01*
X174557852Y-67600839D01*
X174722599Y-67847401D01*
X181358000Y-74482802D01*
X181358000Y-78413976D01*
X181134691Y-78321250D01*
X180563813Y-78320752D01*
X180036200Y-78538757D01*
X179632176Y-78942077D01*
X179578138Y-79072215D01*
X179525243Y-78944200D01*
X179121923Y-78540176D01*
X178594691Y-78321250D01*
X178023813Y-78320752D01*
X177496200Y-78538757D01*
X177092176Y-78942077D01*
X177038138Y-79072215D01*
X176985243Y-78944200D01*
X176581923Y-78540176D01*
X176054691Y-78321250D01*
X175483813Y-78320752D01*
X175429851Y-78343049D01*
X173004164Y-75917362D01*
X173382614Y-75842084D01*
X173783277Y-75574370D01*
X173912410Y-75381109D01*
X174080875Y-75603933D01*
X174500624Y-75850286D01*
X174592391Y-75865462D01*
X174783000Y-75740731D01*
X174783000Y-74549000D01*
X174763000Y-74549000D01*
X174763000Y-74295000D01*
X174783000Y-74295000D01*
X174783000Y-73103269D01*
X175037000Y-73103269D01*
X175037000Y-74295000D01*
X175057000Y-74295000D01*
X175057000Y-74549000D01*
X175037000Y-74549000D01*
X175037000Y-75740731D01*
X175227609Y-75865462D01*
X175319376Y-75850286D01*
X175739125Y-75603933D01*
X175907590Y-75381109D01*
X176036723Y-75574370D01*
X176437386Y-75842084D01*
X176910000Y-75936093D01*
X177382614Y-75842084D01*
X177783277Y-75574370D01*
X178050991Y-75173707D01*
X178145000Y-74701093D01*
X178145000Y-74142907D01*
X178050991Y-73670293D01*
X177783277Y-73269630D01*
X177382614Y-73001916D01*
X176910000Y-72907907D01*
X176437386Y-73001916D01*
X176036723Y-73269630D01*
X175907590Y-73462891D01*
X175739125Y-73240067D01*
X175319376Y-72993714D01*
X175227609Y-72978538D01*
X175037000Y-73103269D01*
X174783000Y-73103269D01*
X174592391Y-72978538D01*
X174500624Y-72993714D01*
X174080875Y-73240067D01*
X173912410Y-73462891D01*
X173783277Y-73269630D01*
X173382614Y-73001916D01*
X172910000Y-72907907D01*
X172437386Y-73001916D01*
X172036723Y-73269630D01*
X171910000Y-73459285D01*
X171783277Y-73269630D01*
X171382614Y-73001916D01*
X170910000Y-72907907D01*
X170437386Y-73001916D01*
X170060004Y-73254074D01*
X169974090Y-73120559D01*
X169761890Y-72975569D01*
X169510000Y-72924560D01*
X168310000Y-72924560D01*
X168074683Y-72968838D01*
X167858559Y-73107910D01*
X167713569Y-73320110D01*
X167662560Y-73572000D01*
X167662560Y-75272000D01*
X167706838Y-75507317D01*
X167845910Y-75723441D01*
X168058110Y-75868431D01*
X168310000Y-75919440D01*
X169510000Y-75919440D01*
X169745317Y-75875162D01*
X169961441Y-75736090D01*
X170060901Y-75590525D01*
X170437386Y-75842084D01*
X170864176Y-75926978D01*
X171393198Y-76456000D01*
X158750000Y-76456000D01*
X158459160Y-76513852D01*
X158212599Y-76678599D01*
X157165198Y-77726000D01*
X154716879Y-77726000D01*
X154812757Y-77495100D01*
X154813242Y-76939339D01*
X154601010Y-76425697D01*
X154208370Y-76032371D01*
X154000488Y-75946051D01*
X154206303Y-75861010D01*
X154599629Y-75468370D01*
X154812757Y-74955100D01*
X154813242Y-74399339D01*
X154601010Y-73885697D01*
X154208370Y-73492371D01*
X154000488Y-73406051D01*
X154206303Y-73321010D01*
X154599629Y-72928370D01*
X154812757Y-72415100D01*
X154813242Y-71859339D01*
X154601010Y-71345697D01*
X154208370Y-70952371D01*
X154000488Y-70866051D01*
X154206303Y-70781010D01*
X154599629Y-70388370D01*
X154812757Y-69875100D01*
X154813242Y-69319339D01*
X154601010Y-68805697D01*
X154208370Y-68412371D01*
X154000488Y-68326051D01*
X154206303Y-68241010D01*
X154599629Y-67848370D01*
X154812757Y-67335100D01*
X154813242Y-66779339D01*
X154601010Y-66265697D01*
X154208370Y-65872371D01*
X154000488Y-65786051D01*
X154206303Y-65701010D01*
X154556925Y-65351000D01*
X168024560Y-65351000D01*
X168024560Y-65516000D01*
X168068838Y-65751317D01*
X168207910Y-65967441D01*
X168420110Y-66112431D01*
X168672000Y-66163440D01*
X170672000Y-66163440D01*
X170907317Y-66119162D01*
X171123441Y-65980090D01*
X171268431Y-65767890D01*
X171271042Y-65754998D01*
X171337736Y-65935387D01*
X171947461Y-66161908D01*
X172597460Y-66137856D01*
X173086264Y-65935387D01*
X173184927Y-65668532D01*
X172212000Y-64695605D01*
X172197858Y-64709748D01*
X172018253Y-64530143D01*
X172032395Y-64516000D01*
X172391605Y-64516000D01*
X173364532Y-65488927D01*
X173631387Y-65390264D01*
X173857908Y-64780539D01*
X173833856Y-64130540D01*
X173631387Y-63641736D01*
X173364532Y-63543073D01*
X172391605Y-64516000D01*
X172032395Y-64516000D01*
X172018253Y-64501858D01*
X172197858Y-64322253D01*
X172212000Y-64336395D01*
X173184927Y-63363468D01*
X173086264Y-63096613D01*
X172476539Y-62870092D01*
X171826540Y-62894144D01*
X171337736Y-63096613D01*
X171271681Y-63275273D01*
X171136090Y-63064559D01*
X170923890Y-62919569D01*
X170672000Y-62868560D01*
X168672000Y-62868560D01*
X168436683Y-62912838D01*
X168220559Y-63051910D01*
X168075569Y-63264110D01*
X168024560Y-63516000D01*
X168024560Y-63681000D01*
X154556391Y-63681000D01*
X154208370Y-63332371D01*
X154000488Y-63246051D01*
X154206303Y-63161010D01*
X154599629Y-62768370D01*
X154809995Y-62261750D01*
X155233000Y-62261750D01*
X155233000Y-62952309D01*
X155329673Y-63185698D01*
X155508301Y-63364327D01*
X155741690Y-63461000D01*
X156432250Y-63461000D01*
X156591000Y-63302250D01*
X156591000Y-62103000D01*
X155391750Y-62103000D01*
X155233000Y-62261750D01*
X154809995Y-62261750D01*
X154812757Y-62255100D01*
X154813242Y-61699339D01*
X154716829Y-61466000D01*
X154940000Y-61466000D01*
X155230839Y-61408148D01*
X155233000Y-61406704D01*
X155233000Y-61690250D01*
X155233000Y-61690250D01*
G37*
X155233000Y-61690250D02*
X155391750Y-61849000D01*
X156591000Y-61849000D01*
X156591000Y-61829000D01*
X156845000Y-61829000D01*
X156845000Y-61849000D01*
X156865000Y-61849000D01*
X156865000Y-62103000D01*
X156845000Y-62103000D01*
X156845000Y-63302250D01*
X157003750Y-63461000D01*
X157694310Y-63461000D01*
X157927699Y-63364327D01*
X158106327Y-63185698D01*
X158178597Y-63011223D01*
X158207946Y-63055147D01*
X158689715Y-63377054D01*
X159258000Y-63490093D01*
X159826285Y-63377054D01*
X160308054Y-63055147D01*
X160528000Y-62725974D01*
X160747946Y-63055147D01*
X161229715Y-63377054D01*
X161798000Y-63490093D01*
X162366285Y-63377054D01*
X162848054Y-63055147D01*
X163068000Y-62725974D01*
X163287946Y-63055147D01*
X163769715Y-63377054D01*
X164338000Y-63490093D01*
X164906285Y-63377054D01*
X165388054Y-63055147D01*
X165601301Y-62736000D01*
X173929198Y-62736000D01*
X174500000Y-63306802D01*
X174500000Y-67310000D01*
X174557852Y-67600839D01*
X174722599Y-67847401D01*
X181358000Y-74482802D01*
X181358000Y-78413976D01*
X181134691Y-78321250D01*
X180563813Y-78320752D01*
X180036200Y-78538757D01*
X179632176Y-78942077D01*
X179578138Y-79072215D01*
X179525243Y-78944200D01*
X179121923Y-78540176D01*
X178594691Y-78321250D01*
X178023813Y-78320752D01*
X177496200Y-78538757D01*
X177092176Y-78942077D01*
X177038138Y-79072215D01*
X176985243Y-78944200D01*
X176581923Y-78540176D01*
X176054691Y-78321250D01*
X175483813Y-78320752D01*
X175429851Y-78343049D01*
X173004164Y-75917362D01*
X173382614Y-75842084D01*
X173783277Y-75574370D01*
X173912410Y-75381109D01*
X174080875Y-75603933D01*
X174500624Y-75850286D01*
X174592391Y-75865462D01*
X174783000Y-75740731D01*
X174783000Y-74549000D01*
X174763000Y-74549000D01*
X174763000Y-74295000D01*
X174783000Y-74295000D01*
X174783000Y-73103269D01*
X175037000Y-73103269D01*
X175037000Y-74295000D01*
X175057000Y-74295000D01*
X175057000Y-74549000D01*
X175037000Y-74549000D01*
X175037000Y-75740731D01*
X175227609Y-75865462D01*
X175319376Y-75850286D01*
X175739125Y-75603933D01*
X175907590Y-75381109D01*
X176036723Y-75574370D01*
X176437386Y-75842084D01*
X176910000Y-75936093D01*
X177382614Y-75842084D01*
X177783277Y-75574370D01*
X178050991Y-75173707D01*
X178145000Y-74701093D01*
X178145000Y-74142907D01*
X178050991Y-73670293D01*
X177783277Y-73269630D01*
X177382614Y-73001916D01*
X176910000Y-72907907D01*
X176437386Y-73001916D01*
X176036723Y-73269630D01*
X175907590Y-73462891D01*
X175739125Y-73240067D01*
X175319376Y-72993714D01*
X175227609Y-72978538D01*
X175037000Y-73103269D01*
X174783000Y-73103269D01*
X174592391Y-72978538D01*
X174500624Y-72993714D01*
X174080875Y-73240067D01*
X173912410Y-73462891D01*
X173783277Y-73269630D01*
X173382614Y-73001916D01*
X172910000Y-72907907D01*
X172437386Y-73001916D01*
X172036723Y-73269630D01*
X171910000Y-73459285D01*
X171783277Y-73269630D01*
X171382614Y-73001916D01*
X170910000Y-72907907D01*
X170437386Y-73001916D01*
X170060004Y-73254074D01*
X169974090Y-73120559D01*
X169761890Y-72975569D01*
X169510000Y-72924560D01*
X168310000Y-72924560D01*
X168074683Y-72968838D01*
X167858559Y-73107910D01*
X167713569Y-73320110D01*
X167662560Y-73572000D01*
X167662560Y-75272000D01*
X167706838Y-75507317D01*
X167845910Y-75723441D01*
X168058110Y-75868431D01*
X168310000Y-75919440D01*
X169510000Y-75919440D01*
X169745317Y-75875162D01*
X169961441Y-75736090D01*
X170060901Y-75590525D01*
X170437386Y-75842084D01*
X170864176Y-75926978D01*
X171393198Y-76456000D01*
X158750000Y-76456000D01*
X158459160Y-76513852D01*
X158212599Y-76678599D01*
X157165198Y-77726000D01*
X154716879Y-77726000D01*
X154812757Y-77495100D01*
X154813242Y-76939339D01*
X154601010Y-76425697D01*
X154208370Y-76032371D01*
X154000488Y-75946051D01*
X154206303Y-75861010D01*
X154599629Y-75468370D01*
X154812757Y-74955100D01*
X154813242Y-74399339D01*
X154601010Y-73885697D01*
X154208370Y-73492371D01*
X154000488Y-73406051D01*
X154206303Y-73321010D01*
X154599629Y-72928370D01*
X154812757Y-72415100D01*
X154813242Y-71859339D01*
X154601010Y-71345697D01*
X154208370Y-70952371D01*
X154000488Y-70866051D01*
X154206303Y-70781010D01*
X154599629Y-70388370D01*
X154812757Y-69875100D01*
X154813242Y-69319339D01*
X154601010Y-68805697D01*
X154208370Y-68412371D01*
X154000488Y-68326051D01*
X154206303Y-68241010D01*
X154599629Y-67848370D01*
X154812757Y-67335100D01*
X154813242Y-66779339D01*
X154601010Y-66265697D01*
X154208370Y-65872371D01*
X154000488Y-65786051D01*
X154206303Y-65701010D01*
X154556925Y-65351000D01*
X168024560Y-65351000D01*
X168024560Y-65516000D01*
X168068838Y-65751317D01*
X168207910Y-65967441D01*
X168420110Y-66112431D01*
X168672000Y-66163440D01*
X170672000Y-66163440D01*
X170907317Y-66119162D01*
X171123441Y-65980090D01*
X171268431Y-65767890D01*
X171271042Y-65754998D01*
X171337736Y-65935387D01*
X171947461Y-66161908D01*
X172597460Y-66137856D01*
X173086264Y-65935387D01*
X173184927Y-65668532D01*
X172212000Y-64695605D01*
X172197858Y-64709748D01*
X172018253Y-64530143D01*
X172032395Y-64516000D01*
X172391605Y-64516000D01*
X173364532Y-65488927D01*
X173631387Y-65390264D01*
X173857908Y-64780539D01*
X173833856Y-64130540D01*
X173631387Y-63641736D01*
X173364532Y-63543073D01*
X172391605Y-64516000D01*
X172032395Y-64516000D01*
X172018253Y-64501858D01*
X172197858Y-64322253D01*
X172212000Y-64336395D01*
X173184927Y-63363468D01*
X173086264Y-63096613D01*
X172476539Y-62870092D01*
X171826540Y-62894144D01*
X171337736Y-63096613D01*
X171271681Y-63275273D01*
X171136090Y-63064559D01*
X170923890Y-62919569D01*
X170672000Y-62868560D01*
X168672000Y-62868560D01*
X168436683Y-62912838D01*
X168220559Y-63051910D01*
X168075569Y-63264110D01*
X168024560Y-63516000D01*
X168024560Y-63681000D01*
X154556391Y-63681000D01*
X154208370Y-63332371D01*
X154000488Y-63246051D01*
X154206303Y-63161010D01*
X154599629Y-62768370D01*
X154809995Y-62261750D01*
X155233000Y-62261750D01*
X155233000Y-62952309D01*
X155329673Y-63185698D01*
X155508301Y-63364327D01*
X155741690Y-63461000D01*
X156432250Y-63461000D01*
X156591000Y-63302250D01*
X156591000Y-62103000D01*
X155391750Y-62103000D01*
X155233000Y-62261750D01*
X154809995Y-62261750D01*
X154812757Y-62255100D01*
X154813242Y-61699339D01*
X154716829Y-61466000D01*
X154940000Y-61466000D01*
X155230839Y-61408148D01*
X155233000Y-61406704D01*
X155233000Y-61690250D01*
G36*
X164057189Y-55881302D02*
X163887005Y-56136000D01*
X163576000Y-56136000D01*
X163285161Y-56193852D01*
X163038599Y-56358599D01*
X158877000Y-60520198D01*
X158271401Y-59914599D01*
X158024839Y-59749852D01*
X157734000Y-59692000D01*
X155194000Y-59692000D01*
X154903160Y-59749852D01*
X154758072Y-59846797D01*
X154812757Y-59715100D01*
X154813242Y-59159339D01*
X154695197Y-58873646D01*
X154722839Y-58868148D01*
X154818005Y-58804560D01*
X154918540Y-58749848D01*
X155654945Y-58136177D01*
X155895715Y-58297054D01*
X156464000Y-58410093D01*
X157032285Y-58297054D01*
X157514054Y-57975147D01*
X157543403Y-57931223D01*
X157615673Y-58105698D01*
X157794301Y-58284327D01*
X158027690Y-58381000D01*
X158718250Y-58381000D01*
X158877000Y-58222250D01*
X158877000Y-57023000D01*
X159131000Y-57023000D01*
X159131000Y-58222250D01*
X159289750Y-58381000D01*
X159980310Y-58381000D01*
X160213699Y-58284327D01*
X160392327Y-58105698D01*
X160489000Y-57872309D01*
X160489000Y-57181750D01*
X160330250Y-57023000D01*
X159131000Y-57023000D01*
X158877000Y-57023000D01*
X158857000Y-57023000D01*
X158857000Y-56769000D01*
X158877000Y-56769000D01*
X158877000Y-56749000D01*
X159131000Y-56749000D01*
X159131000Y-56769000D01*
X160330250Y-56769000D01*
X160489000Y-56610250D01*
X160489000Y-55919691D01*
X160451020Y-55828000D01*
X164136961Y-55828000D01*
X164057189Y-55881302D01*
X164057189Y-55881302D01*
G37*
X164057189Y-55881302D02*
X163887005Y-56136000D01*
X163576000Y-56136000D01*
X163285161Y-56193852D01*
X163038599Y-56358599D01*
X158877000Y-60520198D01*
X158271401Y-59914599D01*
X158024839Y-59749852D01*
X157734000Y-59692000D01*
X155194000Y-59692000D01*
X154903160Y-59749852D01*
X154758072Y-59846797D01*
X154812757Y-59715100D01*
X154813242Y-59159339D01*
X154695197Y-58873646D01*
X154722839Y-58868148D01*
X154818005Y-58804560D01*
X154918540Y-58749848D01*
X155654945Y-58136177D01*
X155895715Y-58297054D01*
X156464000Y-58410093D01*
X157032285Y-58297054D01*
X157514054Y-57975147D01*
X157543403Y-57931223D01*
X157615673Y-58105698D01*
X157794301Y-58284327D01*
X158027690Y-58381000D01*
X158718250Y-58381000D01*
X158877000Y-58222250D01*
X158877000Y-57023000D01*
X159131000Y-57023000D01*
X159131000Y-58222250D01*
X159289750Y-58381000D01*
X159980310Y-58381000D01*
X160213699Y-58284327D01*
X160392327Y-58105698D01*
X160489000Y-57872309D01*
X160489000Y-57181750D01*
X160330250Y-57023000D01*
X159131000Y-57023000D01*
X158877000Y-57023000D01*
X158857000Y-57023000D01*
X158857000Y-56769000D01*
X158877000Y-56769000D01*
X158877000Y-56749000D01*
X159131000Y-56749000D01*
X159131000Y-56769000D01*
X160330250Y-56769000D01*
X160489000Y-56610250D01*
X160489000Y-55919691D01*
X160451020Y-55828000D01*
X164136961Y-55828000D01*
X164057189Y-55881302D01*
G36*
X151003000Y-56769000D02*
X151023000Y-56769000D01*
X151023000Y-57023000D01*
X151003000Y-57023000D01*
X151003000Y-57043000D01*
X150749000Y-57043000D01*
X150749000Y-57023000D01*
X150729000Y-57023000D01*
X150729000Y-56769000D01*
X150749000Y-56769000D01*
X150749000Y-56749000D01*
X151003000Y-56749000D01*
X151003000Y-56769000D01*
X151003000Y-56769000D01*
G37*
X151003000Y-56769000D02*
X151023000Y-56769000D01*
X151023000Y-57023000D01*
X151003000Y-57023000D01*
X151003000Y-57043000D01*
X150749000Y-57043000D01*
X150749000Y-57023000D01*
X150729000Y-57023000D01*
X150729000Y-56769000D01*
X150749000Y-56769000D01*
X150749000Y-56749000D01*
X151003000Y-56749000D01*
X151003000Y-56769000D01*
M02*
