M48
METRIC,TZ
T1C0.800
%
G90
G05
T1
X108712Y-56896
X108712Y-59436
X108712Y-61976
X108712Y-64516
X108712Y-67056
X108712Y-69596
X108712Y-72136
X108712Y-74676
X108712Y-77216
X108712Y-79756
X108712Y-82296
X108712Y-84836
X108712Y-87376
X108712Y-89916
X108712Y-92456
X108712Y-94996
X108712Y-97536
X108712Y-101092
X108712Y-103632
X108712Y-106172
X108712Y-108712
X108712Y-111252
X108712Y-113792
X108712Y-116332
X108712Y-118872
X108712Y-121412
X108712Y-123952
X108712Y-126492
X108712Y-129032
X108712Y-131572
X108712Y-134112
X108712Y-136652
X108712Y-139192
X108712Y-141732
X111252Y-56896
X111252Y-59436
X111252Y-61976
X111252Y-64516
X111252Y-67056
X111252Y-69596
X111252Y-72136
X111252Y-74676
X111252Y-77216
X111252Y-79756
X111252Y-82296
X111252Y-84836
X111252Y-87376
X111252Y-89916
X111252Y-92456
X111252Y-94996
X111252Y-97536
X111252Y-101092
X111252Y-103632
X111252Y-106172
X111252Y-108712
X111252Y-111252
X111252Y-113792
X111252Y-116332
X111252Y-118872
X111252Y-121412
X111252Y-123952
X111252Y-126492
X111252Y-129032
X111252Y-131572
X111252Y-134112
X111252Y-136652
X111252Y-139192
X111252Y-141732
X114300Y-56896
X114300Y-101092
X114554Y-61976
X114554Y-106172
X116840Y-56896
X116840Y-101092
X117094Y-61976
X117094Y-106172
X119634Y-61976
X119634Y-106172
X122174Y-61976
X122174Y-106172
X122936Y-56896
X122936Y-101092
X125984Y-79756
X125984Y-123952
X126746Y-74422
X126746Y-118618
X127508Y-64516
X127508Y-108712
X128524Y-79756
X128524Y-123952
X128746Y-74422
X128746Y-118618
X130048Y-64516
X130048Y-108712
X130556Y-56896
X130556Y-101092
X130746Y-74422
X130746Y-118618
X131064Y-79756
X131064Y-123952
X132746Y-74422
X132746Y-118618
X133604Y-79756
X133604Y-123952
X134746Y-74422
X134746Y-118618
X136144Y-79756
X136144Y-123952
X137414Y-56896
X137414Y-59436
X137414Y-101092
X137414Y-103632
X138684Y-79756
X138684Y-123952
X141224Y-79756
X141224Y-123952
X141732Y-59436
X141732Y-61976
X141732Y-64516
X141732Y-103632
X141732Y-106172
X141732Y-108712
X144272Y-56896
X144272Y-59436
X144272Y-61976
X144272Y-64516
X144272Y-67056
X144272Y-69596
X144272Y-72136
X144272Y-74676
X144272Y-77216
X144272Y-79756
X144272Y-82296
X144272Y-84836
X144272Y-87376
X144272Y-89916
X144272Y-92456
X144272Y-94996
X144272Y-97536
X144272Y-101092
X144272Y-103632
X144272Y-106172
X144272Y-108712
X144272Y-111252
X144272Y-113792
X144272Y-116332
X144272Y-118872
X144272Y-121412
X144272Y-123952
X144272Y-126492
X144272Y-129032
X144272Y-131572
X144272Y-134112
X144272Y-136652
X144272Y-139192
X144272Y-141732
X146812Y-56896
X146812Y-59436
X146812Y-61976
X146812Y-64516
X146812Y-67056
X146812Y-69596
X146812Y-72136
X146812Y-74676
X146812Y-77216
X146812Y-79756
X146812Y-82296
X146812Y-84836
X146812Y-87376
X146812Y-89916
X146812Y-92456
X146812Y-94996
X146812Y-97536
X146812Y-101092
X146812Y-103632
X146812Y-106172
X146812Y-108712
X146812Y-111252
X146812Y-113792
X146812Y-116332
X146812Y-118872
X146812Y-121412
X146812Y-123952
X146812Y-126492
X146812Y-129032
X146812Y-131572
X146812Y-134112
X146812Y-136652
X146812Y-139192
X146812Y-141732
X150876Y-56896
X150876Y-59436
X150876Y-61976
X150876Y-64516
X150876Y-67056
X150876Y-69596
X150876Y-72136
X150876Y-74676
X150876Y-77216
X150876Y-79756
X150876Y-82296
X150876Y-84836
X150876Y-87376
X150876Y-89916
X150876Y-92456
X150876Y-94996
X150876Y-97536
X150876Y-101092
X150876Y-103632
X150876Y-106172
X150876Y-108712
X150876Y-111252
X150876Y-113792
X150876Y-116332
X150876Y-118872
X150876Y-121412
X150876Y-123952
X150876Y-126492
X150876Y-129032
X150876Y-131572
X150876Y-134112
X150876Y-136652
X150876Y-139192
X150876Y-141732
X153416Y-56896
X153416Y-59436
X153416Y-61976
X153416Y-64516
X153416Y-67056
X153416Y-69596
X153416Y-72136
X153416Y-74676
X153416Y-77216
X153416Y-79756
X153416Y-82296
X153416Y-84836
X153416Y-87376
X153416Y-89916
X153416Y-92456
X153416Y-94996
X153416Y-97536
X153416Y-101092
X153416Y-103632
X153416Y-106172
X153416Y-108712
X153416Y-111252
X153416Y-113792
X153416Y-116332
X153416Y-118872
X153416Y-121412
X153416Y-123952
X153416Y-126492
X153416Y-129032
X153416Y-131572
X153416Y-134112
X153416Y-136652
X153416Y-139192
X153416Y-141732
X156464Y-56896
X156464Y-101092
X156718Y-61976
X156718Y-106172
X159004Y-56896
X159004Y-101092
X159258Y-61976
X159258Y-106172
X161798Y-61976
X161798Y-106172
X164338Y-61976
X164338Y-106172
X165100Y-56896
X165100Y-101092
X168148Y-79756
X168148Y-123952
X168910Y-74422
X168910Y-118618
X169672Y-64516
X169672Y-108712
X170688Y-79756
X170688Y-123952
X170910Y-74422
X170910Y-118618
X172212Y-64516
X172212Y-108712
X172720Y-56896
X172720Y-101092
X172910Y-74422
X172910Y-118618
X173228Y-79756
X173228Y-123952
X174910Y-74422
X174910Y-118618
X175768Y-79756
X175768Y-123952
X176910Y-74422
X176910Y-118618
X178308Y-79756
X178308Y-123952
X179578Y-56896
X179578Y-59436
X179578Y-101092
X179578Y-103632
X180848Y-79756
X180848Y-123952
X183388Y-79756
X183388Y-123952
X183896Y-59436
X183896Y-61976
X183896Y-64516
X183896Y-103632
X183896Y-106172
X183896Y-108712
X186436Y-56896
X186436Y-59436
X186436Y-61976
X186436Y-64516
X186436Y-67056
X186436Y-69596
X186436Y-72136
X186436Y-74676
X186436Y-77216
X186436Y-79756
X186436Y-82296
X186436Y-84836
X186436Y-87376
X186436Y-89916
X186436Y-92456
X186436Y-94996
X186436Y-97536
X186436Y-101092
X186436Y-103632
X186436Y-106172
X186436Y-108712
X186436Y-111252
X186436Y-113792
X186436Y-116332
X186436Y-118872
X186436Y-121412
X186436Y-123952
X186436Y-126492
X186436Y-129032
X186436Y-131572
X186436Y-134112
X186436Y-136652
X186436Y-139192
X186436Y-141732
X188976Y-56896
X188976Y-59436
X188976Y-61976
X188976Y-64516
X188976Y-67056
X188976Y-69596
X188976Y-72136
X188976Y-74676
X188976Y-77216
X188976Y-79756
X188976Y-82296
X188976Y-84836
X188976Y-87376
X188976Y-89916
X188976Y-92456
X188976Y-94996
X188976Y-97536
X188976Y-101092
X188976Y-103632
X188976Y-106172
X188976Y-108712
X188976Y-111252
X188976Y-113792
X188976Y-116332
X188976Y-118872
X188976Y-121412
X188976Y-123952
X188976Y-126492
X188976Y-129032
X188976Y-131572
X188976Y-134112
X188976Y-136652
X188976Y-139192
X188976Y-141732
T0
M30
