G04 #@! TF.FileFunction,Soldermask,Top*
%FSLAX46Y46*%
G04 Gerber Fmt 4.6, Leading zero omitted, Abs format (unit mm)*
G04 Created by KiCad (PCBNEW 4.0.7-e2-6376~58~ubuntu16.04.1) date Sat Apr 14 23:56:37 2018*
%MOMM*%
%LPD*%
G01*
G04 APERTURE LIST*
%ADD10C,0.100000*%
%ADD11R,1.600000X2.100000*%
%ADD12O,1.600000X2.100000*%
%ADD13R,2.100000X2.100000*%
%ADD14O,2.100000X2.100000*%
%ADD15C,2.000000*%
%ADD16O,2.000000X2.000000*%
%ADD17R,2.000000X2.000000*%
%ADD18R,2.200000X2.200000*%
%ADD19C,2.200000*%
%ADD20R,2.400000X2.400000*%
%ADD21C,2.400000*%
%ADD22C,1.924000*%
%ADD23R,1.924000X1.924000*%
G04 APERTURE END LIST*
D10*
D11*
X126746000Y-74422000D03*
D12*
X128746000Y-74422000D03*
X130746000Y-74422000D03*
X132746000Y-74422000D03*
X134746000Y-74422000D03*
D13*
X114554000Y-61976000D03*
D14*
X117094000Y-61976000D03*
X119634000Y-61976000D03*
X122174000Y-61976000D03*
D13*
X141732000Y-64516000D03*
X141732000Y-59436000D03*
D14*
X141732000Y-61976000D03*
D13*
X116840000Y-56896000D03*
D14*
X114300000Y-56896000D03*
D15*
X130556000Y-56896000D03*
D16*
X122936000Y-56896000D03*
D17*
X141224000Y-79756000D03*
D15*
X138684000Y-79756000D03*
X136144000Y-79756000D03*
X133604000Y-79756000D03*
X131064000Y-79756000D03*
X128524000Y-79756000D03*
X125984000Y-79756000D03*
D18*
X137414000Y-59436000D03*
D19*
X137414000Y-56896000D03*
D20*
X127508000Y-64516000D03*
D21*
X130048000Y-64516000D03*
D22*
X111252000Y-56896000D03*
D23*
X108712000Y-56896000D03*
D22*
X111252000Y-59436000D03*
X108712000Y-59436000D03*
X111252000Y-97536000D03*
X108712000Y-97536000D03*
X111252000Y-94996000D03*
D23*
X108712000Y-94996000D03*
D22*
X111252000Y-92456000D03*
X108712000Y-92456000D03*
X111252000Y-89916000D03*
X108712000Y-89916000D03*
X111252000Y-87376000D03*
X108712000Y-87376000D03*
X111252000Y-84836000D03*
X108712000Y-84836000D03*
X111252000Y-82296000D03*
D23*
X108712000Y-82296000D03*
D22*
X111252000Y-79756000D03*
X108712000Y-79756000D03*
X111252000Y-77216000D03*
X108712000Y-77216000D03*
X111252000Y-74676000D03*
X108712000Y-74676000D03*
X111252000Y-72136000D03*
X108712000Y-72136000D03*
X111252000Y-69596000D03*
D23*
X108712000Y-69596000D03*
D22*
X111252000Y-67056000D03*
X108712000Y-67056000D03*
X111252000Y-64516000D03*
X108712000Y-64516000D03*
X111252000Y-61976000D03*
X108712000Y-61976000D03*
X144272000Y-61976000D03*
X146812000Y-61976000D03*
X144272000Y-64516000D03*
X146812000Y-64516000D03*
X144272000Y-67056000D03*
X146812000Y-67056000D03*
D23*
X144272000Y-69596000D03*
D22*
X146812000Y-69596000D03*
X144272000Y-72136000D03*
X146812000Y-72136000D03*
X144272000Y-74676000D03*
X146812000Y-74676000D03*
X144272000Y-77216000D03*
X146812000Y-77216000D03*
X144272000Y-79756000D03*
X146812000Y-79756000D03*
D23*
X144272000Y-82296000D03*
D22*
X146812000Y-82296000D03*
X144272000Y-84836000D03*
X146812000Y-84836000D03*
X144272000Y-87376000D03*
X146812000Y-87376000D03*
X144272000Y-89916000D03*
X146812000Y-89916000D03*
X144272000Y-92456000D03*
X146812000Y-92456000D03*
D23*
X144272000Y-94996000D03*
D22*
X146812000Y-94996000D03*
X144272000Y-97536000D03*
X146812000Y-97536000D03*
X144272000Y-59436000D03*
X146812000Y-59436000D03*
D23*
X144272000Y-56896000D03*
D22*
X146812000Y-56896000D03*
X153416000Y-56896000D03*
D23*
X150876000Y-56896000D03*
D22*
X153416000Y-59436000D03*
X150876000Y-59436000D03*
X153416000Y-97536000D03*
X150876000Y-97536000D03*
X153416000Y-94996000D03*
D23*
X150876000Y-94996000D03*
D22*
X153416000Y-92456000D03*
X150876000Y-92456000D03*
X153416000Y-89916000D03*
X150876000Y-89916000D03*
X153416000Y-87376000D03*
X150876000Y-87376000D03*
X153416000Y-84836000D03*
X150876000Y-84836000D03*
X153416000Y-82296000D03*
D23*
X150876000Y-82296000D03*
D22*
X153416000Y-79756000D03*
X150876000Y-79756000D03*
X153416000Y-77216000D03*
X150876000Y-77216000D03*
X153416000Y-74676000D03*
X150876000Y-74676000D03*
X153416000Y-72136000D03*
X150876000Y-72136000D03*
X153416000Y-69596000D03*
D23*
X150876000Y-69596000D03*
D22*
X153416000Y-67056000D03*
X150876000Y-67056000D03*
X153416000Y-64516000D03*
X150876000Y-64516000D03*
X153416000Y-61976000D03*
X150876000Y-61976000D03*
X186436000Y-61976000D03*
X188976000Y-61976000D03*
X186436000Y-64516000D03*
X188976000Y-64516000D03*
X186436000Y-67056000D03*
X188976000Y-67056000D03*
D23*
X186436000Y-69596000D03*
D22*
X188976000Y-69596000D03*
X186436000Y-72136000D03*
X188976000Y-72136000D03*
X186436000Y-74676000D03*
X188976000Y-74676000D03*
X186436000Y-77216000D03*
X188976000Y-77216000D03*
X186436000Y-79756000D03*
X188976000Y-79756000D03*
D23*
X186436000Y-82296000D03*
D22*
X188976000Y-82296000D03*
X186436000Y-84836000D03*
X188976000Y-84836000D03*
X186436000Y-87376000D03*
X188976000Y-87376000D03*
X186436000Y-89916000D03*
X188976000Y-89916000D03*
X186436000Y-92456000D03*
X188976000Y-92456000D03*
D23*
X186436000Y-94996000D03*
D22*
X188976000Y-94996000D03*
X186436000Y-97536000D03*
X188976000Y-97536000D03*
X186436000Y-59436000D03*
X188976000Y-59436000D03*
D23*
X186436000Y-56896000D03*
D22*
X188976000Y-56896000D03*
D20*
X169672000Y-64516000D03*
D21*
X172212000Y-64516000D03*
D18*
X179578000Y-59436000D03*
D19*
X179578000Y-56896000D03*
D17*
X183388000Y-79756000D03*
D15*
X180848000Y-79756000D03*
X178308000Y-79756000D03*
X175768000Y-79756000D03*
X173228000Y-79756000D03*
X170688000Y-79756000D03*
X168148000Y-79756000D03*
X172720000Y-56896000D03*
D16*
X165100000Y-56896000D03*
D13*
X159004000Y-56896000D03*
D14*
X156464000Y-56896000D03*
D13*
X183896000Y-59436000D03*
D14*
X183896000Y-61976000D03*
D13*
X183896000Y-64516000D03*
X156718000Y-61976000D03*
D14*
X159258000Y-61976000D03*
X161798000Y-61976000D03*
X164338000Y-61976000D03*
D11*
X168910000Y-74422000D03*
D12*
X170910000Y-74422000D03*
X172910000Y-74422000D03*
X174910000Y-74422000D03*
X176910000Y-74422000D03*
D11*
X168910000Y-118618000D03*
D12*
X170910000Y-118618000D03*
X172910000Y-118618000D03*
X174910000Y-118618000D03*
X176910000Y-118618000D03*
D13*
X156718000Y-106172000D03*
D14*
X159258000Y-106172000D03*
X161798000Y-106172000D03*
X164338000Y-106172000D03*
D13*
X183896000Y-108712000D03*
X183896000Y-103632000D03*
D14*
X183896000Y-106172000D03*
D13*
X159004000Y-101092000D03*
D14*
X156464000Y-101092000D03*
D15*
X172720000Y-101092000D03*
D16*
X165100000Y-101092000D03*
D17*
X183388000Y-123952000D03*
D15*
X180848000Y-123952000D03*
X178308000Y-123952000D03*
X175768000Y-123952000D03*
X173228000Y-123952000D03*
X170688000Y-123952000D03*
X168148000Y-123952000D03*
D18*
X179578000Y-103632000D03*
D19*
X179578000Y-101092000D03*
D20*
X169672000Y-108712000D03*
D21*
X172212000Y-108712000D03*
D22*
X153416000Y-101092000D03*
D23*
X150876000Y-101092000D03*
D22*
X153416000Y-103632000D03*
X150876000Y-103632000D03*
X153416000Y-141732000D03*
X150876000Y-141732000D03*
X153416000Y-139192000D03*
D23*
X150876000Y-139192000D03*
D22*
X153416000Y-136652000D03*
X150876000Y-136652000D03*
X153416000Y-134112000D03*
X150876000Y-134112000D03*
X153416000Y-131572000D03*
X150876000Y-131572000D03*
X153416000Y-129032000D03*
X150876000Y-129032000D03*
X153416000Y-126492000D03*
D23*
X150876000Y-126492000D03*
D22*
X153416000Y-123952000D03*
X150876000Y-123952000D03*
X153416000Y-121412000D03*
X150876000Y-121412000D03*
X153416000Y-118872000D03*
X150876000Y-118872000D03*
X153416000Y-116332000D03*
X150876000Y-116332000D03*
X153416000Y-113792000D03*
D23*
X150876000Y-113792000D03*
D22*
X153416000Y-111252000D03*
X150876000Y-111252000D03*
X153416000Y-108712000D03*
X150876000Y-108712000D03*
X153416000Y-106172000D03*
X150876000Y-106172000D03*
X186436000Y-106172000D03*
X188976000Y-106172000D03*
X186436000Y-108712000D03*
X188976000Y-108712000D03*
X186436000Y-111252000D03*
X188976000Y-111252000D03*
D23*
X186436000Y-113792000D03*
D22*
X188976000Y-113792000D03*
X186436000Y-116332000D03*
X188976000Y-116332000D03*
X186436000Y-118872000D03*
X188976000Y-118872000D03*
X186436000Y-121412000D03*
X188976000Y-121412000D03*
X186436000Y-123952000D03*
X188976000Y-123952000D03*
D23*
X186436000Y-126492000D03*
D22*
X188976000Y-126492000D03*
X186436000Y-129032000D03*
X188976000Y-129032000D03*
X186436000Y-131572000D03*
X188976000Y-131572000D03*
X186436000Y-134112000D03*
X188976000Y-134112000D03*
X186436000Y-136652000D03*
X188976000Y-136652000D03*
D23*
X186436000Y-139192000D03*
D22*
X188976000Y-139192000D03*
X186436000Y-141732000D03*
X188976000Y-141732000D03*
X186436000Y-103632000D03*
X188976000Y-103632000D03*
D23*
X186436000Y-101092000D03*
D22*
X188976000Y-101092000D03*
X111252000Y-101092000D03*
D23*
X108712000Y-101092000D03*
D22*
X111252000Y-103632000D03*
X108712000Y-103632000D03*
X111252000Y-141732000D03*
X108712000Y-141732000D03*
X111252000Y-139192000D03*
D23*
X108712000Y-139192000D03*
D22*
X111252000Y-136652000D03*
X108712000Y-136652000D03*
X111252000Y-134112000D03*
X108712000Y-134112000D03*
X111252000Y-131572000D03*
X108712000Y-131572000D03*
X111252000Y-129032000D03*
X108712000Y-129032000D03*
X111252000Y-126492000D03*
D23*
X108712000Y-126492000D03*
D22*
X111252000Y-123952000D03*
X108712000Y-123952000D03*
X111252000Y-121412000D03*
X108712000Y-121412000D03*
X111252000Y-118872000D03*
X108712000Y-118872000D03*
X111252000Y-116332000D03*
X108712000Y-116332000D03*
X111252000Y-113792000D03*
D23*
X108712000Y-113792000D03*
D22*
X111252000Y-111252000D03*
X108712000Y-111252000D03*
X111252000Y-108712000D03*
X108712000Y-108712000D03*
X111252000Y-106172000D03*
X108712000Y-106172000D03*
X144272000Y-106172000D03*
X146812000Y-106172000D03*
X144272000Y-108712000D03*
X146812000Y-108712000D03*
X144272000Y-111252000D03*
X146812000Y-111252000D03*
D23*
X144272000Y-113792000D03*
D22*
X146812000Y-113792000D03*
X144272000Y-116332000D03*
X146812000Y-116332000D03*
X144272000Y-118872000D03*
X146812000Y-118872000D03*
X144272000Y-121412000D03*
X146812000Y-121412000D03*
X144272000Y-123952000D03*
X146812000Y-123952000D03*
D23*
X144272000Y-126492000D03*
D22*
X146812000Y-126492000D03*
X144272000Y-129032000D03*
X146812000Y-129032000D03*
X144272000Y-131572000D03*
X146812000Y-131572000D03*
X144272000Y-134112000D03*
X146812000Y-134112000D03*
X144272000Y-136652000D03*
X146812000Y-136652000D03*
D23*
X144272000Y-139192000D03*
D22*
X146812000Y-139192000D03*
X144272000Y-141732000D03*
X146812000Y-141732000D03*
X144272000Y-103632000D03*
X146812000Y-103632000D03*
D23*
X144272000Y-101092000D03*
D22*
X146812000Y-101092000D03*
D20*
X127508000Y-108712000D03*
D21*
X130048000Y-108712000D03*
D18*
X137414000Y-103632000D03*
D19*
X137414000Y-101092000D03*
D17*
X141224000Y-123952000D03*
D15*
X138684000Y-123952000D03*
X136144000Y-123952000D03*
X133604000Y-123952000D03*
X131064000Y-123952000D03*
X128524000Y-123952000D03*
X125984000Y-123952000D03*
X130556000Y-101092000D03*
D16*
X122936000Y-101092000D03*
D13*
X116840000Y-101092000D03*
D14*
X114300000Y-101092000D03*
D13*
X141732000Y-103632000D03*
D14*
X141732000Y-106172000D03*
D13*
X141732000Y-108712000D03*
X114554000Y-106172000D03*
D14*
X117094000Y-106172000D03*
X119634000Y-106172000D03*
X122174000Y-106172000D03*
D11*
X126746000Y-118618000D03*
D12*
X128746000Y-118618000D03*
X130746000Y-118618000D03*
X132746000Y-118618000D03*
X134746000Y-118618000D03*
M02*
