G04 #@! TF.FileFunction,Copper,L2,Bot,Signal*
%FSLAX46Y46*%
G04 Gerber Fmt 4.6, Leading zero omitted, Abs format (unit mm)*
G04 Created by KiCad (PCBNEW 4.0.7-e2-6376~58~ubuntu16.04.1) date Sat Apr 14 23:56:37 2018*
%MOMM*%
%LPD*%
G01*
G04 APERTURE LIST*
%ADD10C,0.100000*%
%ADD11R,1.200000X1.700000*%
%ADD12O,1.200000X1.700000*%
%ADD13R,1.700000X1.700000*%
%ADD14O,1.700000X1.700000*%
%ADD15C,1.600000*%
%ADD16O,1.600000X1.600000*%
%ADD17R,1.600000X1.600000*%
%ADD18R,1.800000X1.800000*%
%ADD19C,1.800000*%
%ADD20R,2.000000X2.000000*%
%ADD21C,2.000000*%
%ADD22C,1.524000*%
%ADD23R,1.524000X1.524000*%
%ADD24C,0.400000*%
%ADD25C,0.250000*%
%ADD26C,0.254000*%
G04 APERTURE END LIST*
D10*
D11*
X126746000Y-74422000D03*
D12*
X128746000Y-74422000D03*
X130746000Y-74422000D03*
X132746000Y-74422000D03*
X134746000Y-74422000D03*
D13*
X114554000Y-61976000D03*
D14*
X117094000Y-61976000D03*
X119634000Y-61976000D03*
X122174000Y-61976000D03*
D13*
X141732000Y-64516000D03*
X141732000Y-59436000D03*
D14*
X141732000Y-61976000D03*
D13*
X116840000Y-56896000D03*
D14*
X114300000Y-56896000D03*
D15*
X130556000Y-56896000D03*
D16*
X122936000Y-56896000D03*
D17*
X141224000Y-79756000D03*
D15*
X138684000Y-79756000D03*
X136144000Y-79756000D03*
X133604000Y-79756000D03*
X131064000Y-79756000D03*
X128524000Y-79756000D03*
X125984000Y-79756000D03*
D18*
X137414000Y-59436000D03*
D19*
X137414000Y-56896000D03*
D20*
X127508000Y-64516000D03*
D21*
X130048000Y-64516000D03*
D22*
X111252000Y-56896000D03*
D23*
X108712000Y-56896000D03*
D22*
X111252000Y-59436000D03*
X108712000Y-59436000D03*
X111252000Y-97536000D03*
X108712000Y-97536000D03*
X111252000Y-94996000D03*
D23*
X108712000Y-94996000D03*
D22*
X111252000Y-92456000D03*
X108712000Y-92456000D03*
X111252000Y-89916000D03*
X108712000Y-89916000D03*
X111252000Y-87376000D03*
X108712000Y-87376000D03*
X111252000Y-84836000D03*
X108712000Y-84836000D03*
X111252000Y-82296000D03*
D23*
X108712000Y-82296000D03*
D22*
X111252000Y-79756000D03*
X108712000Y-79756000D03*
X111252000Y-77216000D03*
X108712000Y-77216000D03*
X111252000Y-74676000D03*
X108712000Y-74676000D03*
X111252000Y-72136000D03*
X108712000Y-72136000D03*
X111252000Y-69596000D03*
D23*
X108712000Y-69596000D03*
D22*
X111252000Y-67056000D03*
X108712000Y-67056000D03*
X111252000Y-64516000D03*
X108712000Y-64516000D03*
X111252000Y-61976000D03*
X108712000Y-61976000D03*
X144272000Y-61976000D03*
X146812000Y-61976000D03*
X144272000Y-64516000D03*
X146812000Y-64516000D03*
X144272000Y-67056000D03*
X146812000Y-67056000D03*
D23*
X144272000Y-69596000D03*
D22*
X146812000Y-69596000D03*
X144272000Y-72136000D03*
X146812000Y-72136000D03*
X144272000Y-74676000D03*
X146812000Y-74676000D03*
X144272000Y-77216000D03*
X146812000Y-77216000D03*
X144272000Y-79756000D03*
X146812000Y-79756000D03*
D23*
X144272000Y-82296000D03*
D22*
X146812000Y-82296000D03*
X144272000Y-84836000D03*
X146812000Y-84836000D03*
X144272000Y-87376000D03*
X146812000Y-87376000D03*
X144272000Y-89916000D03*
X146812000Y-89916000D03*
X144272000Y-92456000D03*
X146812000Y-92456000D03*
D23*
X144272000Y-94996000D03*
D22*
X146812000Y-94996000D03*
X144272000Y-97536000D03*
X146812000Y-97536000D03*
X144272000Y-59436000D03*
X146812000Y-59436000D03*
D23*
X144272000Y-56896000D03*
D22*
X146812000Y-56896000D03*
X153416000Y-56896000D03*
D23*
X150876000Y-56896000D03*
D22*
X153416000Y-59436000D03*
X150876000Y-59436000D03*
X153416000Y-97536000D03*
X150876000Y-97536000D03*
X153416000Y-94996000D03*
D23*
X150876000Y-94996000D03*
D22*
X153416000Y-92456000D03*
X150876000Y-92456000D03*
X153416000Y-89916000D03*
X150876000Y-89916000D03*
X153416000Y-87376000D03*
X150876000Y-87376000D03*
X153416000Y-84836000D03*
X150876000Y-84836000D03*
X153416000Y-82296000D03*
D23*
X150876000Y-82296000D03*
D22*
X153416000Y-79756000D03*
X150876000Y-79756000D03*
X153416000Y-77216000D03*
X150876000Y-77216000D03*
X153416000Y-74676000D03*
X150876000Y-74676000D03*
X153416000Y-72136000D03*
X150876000Y-72136000D03*
X153416000Y-69596000D03*
D23*
X150876000Y-69596000D03*
D22*
X153416000Y-67056000D03*
X150876000Y-67056000D03*
X153416000Y-64516000D03*
X150876000Y-64516000D03*
X153416000Y-61976000D03*
X150876000Y-61976000D03*
X186436000Y-61976000D03*
X188976000Y-61976000D03*
X186436000Y-64516000D03*
X188976000Y-64516000D03*
X186436000Y-67056000D03*
X188976000Y-67056000D03*
D23*
X186436000Y-69596000D03*
D22*
X188976000Y-69596000D03*
X186436000Y-72136000D03*
X188976000Y-72136000D03*
X186436000Y-74676000D03*
X188976000Y-74676000D03*
X186436000Y-77216000D03*
X188976000Y-77216000D03*
X186436000Y-79756000D03*
X188976000Y-79756000D03*
D23*
X186436000Y-82296000D03*
D22*
X188976000Y-82296000D03*
X186436000Y-84836000D03*
X188976000Y-84836000D03*
X186436000Y-87376000D03*
X188976000Y-87376000D03*
X186436000Y-89916000D03*
X188976000Y-89916000D03*
X186436000Y-92456000D03*
X188976000Y-92456000D03*
D23*
X186436000Y-94996000D03*
D22*
X188976000Y-94996000D03*
X186436000Y-97536000D03*
X188976000Y-97536000D03*
X186436000Y-59436000D03*
X188976000Y-59436000D03*
D23*
X186436000Y-56896000D03*
D22*
X188976000Y-56896000D03*
D20*
X169672000Y-64516000D03*
D21*
X172212000Y-64516000D03*
D18*
X179578000Y-59436000D03*
D19*
X179578000Y-56896000D03*
D17*
X183388000Y-79756000D03*
D15*
X180848000Y-79756000D03*
X178308000Y-79756000D03*
X175768000Y-79756000D03*
X173228000Y-79756000D03*
X170688000Y-79756000D03*
X168148000Y-79756000D03*
X172720000Y-56896000D03*
D16*
X165100000Y-56896000D03*
D13*
X159004000Y-56896000D03*
D14*
X156464000Y-56896000D03*
D13*
X183896000Y-59436000D03*
D14*
X183896000Y-61976000D03*
D13*
X183896000Y-64516000D03*
X156718000Y-61976000D03*
D14*
X159258000Y-61976000D03*
X161798000Y-61976000D03*
X164338000Y-61976000D03*
D11*
X168910000Y-74422000D03*
D12*
X170910000Y-74422000D03*
X172910000Y-74422000D03*
X174910000Y-74422000D03*
X176910000Y-74422000D03*
D11*
X168910000Y-118618000D03*
D12*
X170910000Y-118618000D03*
X172910000Y-118618000D03*
X174910000Y-118618000D03*
X176910000Y-118618000D03*
D13*
X156718000Y-106172000D03*
D14*
X159258000Y-106172000D03*
X161798000Y-106172000D03*
X164338000Y-106172000D03*
D13*
X183896000Y-108712000D03*
X183896000Y-103632000D03*
D14*
X183896000Y-106172000D03*
D13*
X159004000Y-101092000D03*
D14*
X156464000Y-101092000D03*
D15*
X172720000Y-101092000D03*
D16*
X165100000Y-101092000D03*
D17*
X183388000Y-123952000D03*
D15*
X180848000Y-123952000D03*
X178308000Y-123952000D03*
X175768000Y-123952000D03*
X173228000Y-123952000D03*
X170688000Y-123952000D03*
X168148000Y-123952000D03*
D18*
X179578000Y-103632000D03*
D19*
X179578000Y-101092000D03*
D20*
X169672000Y-108712000D03*
D21*
X172212000Y-108712000D03*
D22*
X153416000Y-101092000D03*
D23*
X150876000Y-101092000D03*
D22*
X153416000Y-103632000D03*
X150876000Y-103632000D03*
X153416000Y-141732000D03*
X150876000Y-141732000D03*
X153416000Y-139192000D03*
D23*
X150876000Y-139192000D03*
D22*
X153416000Y-136652000D03*
X150876000Y-136652000D03*
X153416000Y-134112000D03*
X150876000Y-134112000D03*
X153416000Y-131572000D03*
X150876000Y-131572000D03*
X153416000Y-129032000D03*
X150876000Y-129032000D03*
X153416000Y-126492000D03*
D23*
X150876000Y-126492000D03*
D22*
X153416000Y-123952000D03*
X150876000Y-123952000D03*
X153416000Y-121412000D03*
X150876000Y-121412000D03*
X153416000Y-118872000D03*
X150876000Y-118872000D03*
X153416000Y-116332000D03*
X150876000Y-116332000D03*
X153416000Y-113792000D03*
D23*
X150876000Y-113792000D03*
D22*
X153416000Y-111252000D03*
X150876000Y-111252000D03*
X153416000Y-108712000D03*
X150876000Y-108712000D03*
X153416000Y-106172000D03*
X150876000Y-106172000D03*
X186436000Y-106172000D03*
X188976000Y-106172000D03*
X186436000Y-108712000D03*
X188976000Y-108712000D03*
X186436000Y-111252000D03*
X188976000Y-111252000D03*
D23*
X186436000Y-113792000D03*
D22*
X188976000Y-113792000D03*
X186436000Y-116332000D03*
X188976000Y-116332000D03*
X186436000Y-118872000D03*
X188976000Y-118872000D03*
X186436000Y-121412000D03*
X188976000Y-121412000D03*
X186436000Y-123952000D03*
X188976000Y-123952000D03*
D23*
X186436000Y-126492000D03*
D22*
X188976000Y-126492000D03*
X186436000Y-129032000D03*
X188976000Y-129032000D03*
X186436000Y-131572000D03*
X188976000Y-131572000D03*
X186436000Y-134112000D03*
X188976000Y-134112000D03*
X186436000Y-136652000D03*
X188976000Y-136652000D03*
D23*
X186436000Y-139192000D03*
D22*
X188976000Y-139192000D03*
X186436000Y-141732000D03*
X188976000Y-141732000D03*
X186436000Y-103632000D03*
X188976000Y-103632000D03*
D23*
X186436000Y-101092000D03*
D22*
X188976000Y-101092000D03*
X111252000Y-101092000D03*
D23*
X108712000Y-101092000D03*
D22*
X111252000Y-103632000D03*
X108712000Y-103632000D03*
X111252000Y-141732000D03*
X108712000Y-141732000D03*
X111252000Y-139192000D03*
D23*
X108712000Y-139192000D03*
D22*
X111252000Y-136652000D03*
X108712000Y-136652000D03*
X111252000Y-134112000D03*
X108712000Y-134112000D03*
X111252000Y-131572000D03*
X108712000Y-131572000D03*
X111252000Y-129032000D03*
X108712000Y-129032000D03*
X111252000Y-126492000D03*
D23*
X108712000Y-126492000D03*
D22*
X111252000Y-123952000D03*
X108712000Y-123952000D03*
X111252000Y-121412000D03*
X108712000Y-121412000D03*
X111252000Y-118872000D03*
X108712000Y-118872000D03*
X111252000Y-116332000D03*
X108712000Y-116332000D03*
X111252000Y-113792000D03*
D23*
X108712000Y-113792000D03*
D22*
X111252000Y-111252000D03*
X108712000Y-111252000D03*
X111252000Y-108712000D03*
X108712000Y-108712000D03*
X111252000Y-106172000D03*
X108712000Y-106172000D03*
X144272000Y-106172000D03*
X146812000Y-106172000D03*
X144272000Y-108712000D03*
X146812000Y-108712000D03*
X144272000Y-111252000D03*
X146812000Y-111252000D03*
D23*
X144272000Y-113792000D03*
D22*
X146812000Y-113792000D03*
X144272000Y-116332000D03*
X146812000Y-116332000D03*
X144272000Y-118872000D03*
X146812000Y-118872000D03*
X144272000Y-121412000D03*
X146812000Y-121412000D03*
X144272000Y-123952000D03*
X146812000Y-123952000D03*
D23*
X144272000Y-126492000D03*
D22*
X146812000Y-126492000D03*
X144272000Y-129032000D03*
X146812000Y-129032000D03*
X144272000Y-131572000D03*
X146812000Y-131572000D03*
X144272000Y-134112000D03*
X146812000Y-134112000D03*
X144272000Y-136652000D03*
X146812000Y-136652000D03*
D23*
X144272000Y-139192000D03*
D22*
X146812000Y-139192000D03*
X144272000Y-141732000D03*
X146812000Y-141732000D03*
X144272000Y-103632000D03*
X146812000Y-103632000D03*
D23*
X144272000Y-101092000D03*
D22*
X146812000Y-101092000D03*
D20*
X127508000Y-108712000D03*
D21*
X130048000Y-108712000D03*
D18*
X137414000Y-103632000D03*
D19*
X137414000Y-101092000D03*
D17*
X141224000Y-123952000D03*
D15*
X138684000Y-123952000D03*
X136144000Y-123952000D03*
X133604000Y-123952000D03*
X131064000Y-123952000D03*
X128524000Y-123952000D03*
X125984000Y-123952000D03*
X130556000Y-101092000D03*
D16*
X122936000Y-101092000D03*
D13*
X116840000Y-101092000D03*
D14*
X114300000Y-101092000D03*
D13*
X141732000Y-103632000D03*
D14*
X141732000Y-106172000D03*
D13*
X141732000Y-108712000D03*
X114554000Y-106172000D03*
D14*
X117094000Y-106172000D03*
X119634000Y-106172000D03*
X122174000Y-106172000D03*
D11*
X126746000Y-118618000D03*
D12*
X128746000Y-118618000D03*
X130746000Y-118618000D03*
X132746000Y-118618000D03*
X134746000Y-118618000D03*
D24*
X116840000Y-56134000D02*
X116840000Y-56896000D01*
D25*
X116332000Y-55626000D02*
X116840000Y-56134000D01*
X109982000Y-55626000D02*
X116332000Y-55626000D01*
X108712000Y-56896000D02*
X109982000Y-55626000D01*
X150876000Y-56896000D02*
X152146000Y-55626000D01*
X152146000Y-55626000D02*
X158496000Y-55626000D01*
X158496000Y-55626000D02*
X159004000Y-56134000D01*
D24*
X159004000Y-56134000D02*
X159004000Y-56896000D01*
D25*
X152146000Y-99822000D02*
X158496000Y-99822000D01*
X150876000Y-101092000D02*
X152146000Y-99822000D01*
X108712000Y-101092000D02*
X109982000Y-99822000D01*
X109982000Y-99822000D02*
X116332000Y-99822000D01*
X116332000Y-99822000D02*
X116840000Y-100330000D01*
D24*
X116840000Y-100330000D02*
X116840000Y-101092000D01*
X159004000Y-100330000D02*
X159004000Y-101092000D01*
D25*
X158496000Y-99822000D02*
X159004000Y-100330000D01*
X172910000Y-123634000D02*
X173228000Y-123952000D01*
X173228000Y-118936000D02*
X172910000Y-118618000D01*
X173228000Y-123952000D02*
X173228000Y-118936000D01*
X130746000Y-79438000D02*
X131064000Y-79756000D01*
X131064000Y-74740000D02*
X130746000Y-74422000D01*
X131064000Y-79756000D02*
X131064000Y-74740000D01*
X173228000Y-79756000D02*
X173228000Y-74740000D01*
X173228000Y-74740000D02*
X172910000Y-74422000D01*
X172910000Y-79438000D02*
X173228000Y-79756000D01*
X131064000Y-123952000D02*
X131064000Y-118936000D01*
X131064000Y-118936000D02*
X130746000Y-118618000D01*
X130746000Y-123634000D02*
X131064000Y-123952000D01*
X170688000Y-120396000D02*
X168910000Y-118618000D01*
X170688000Y-123952000D02*
X170688000Y-120396000D01*
X128524000Y-76200000D02*
X126746000Y-74422000D01*
X128524000Y-79756000D02*
X128524000Y-76200000D01*
X170688000Y-79756000D02*
X170688000Y-76200000D01*
X170688000Y-76200000D02*
X168910000Y-74422000D01*
X128524000Y-123952000D02*
X128524000Y-120396000D01*
X128524000Y-120396000D02*
X126746000Y-118618000D01*
X138684000Y-78360000D02*
X134746000Y-74422000D01*
X138684000Y-79756000D02*
X138684000Y-78360000D01*
X134746000Y-70738000D02*
X134746000Y-74422000D01*
X132080000Y-68072000D02*
X134746000Y-70738000D01*
X125476000Y-68072000D02*
X132080000Y-68072000D01*
X124460000Y-67056000D02*
X125476000Y-68072000D01*
X124460000Y-60198000D02*
X124460000Y-67056000D01*
X122936000Y-58674000D02*
X124460000Y-60198000D01*
X122936000Y-56896000D02*
X122936000Y-58674000D01*
X165100000Y-56896000D02*
X165100000Y-58674000D01*
X165100000Y-58674000D02*
X166624000Y-60198000D01*
X166624000Y-60198000D02*
X166624000Y-67056000D01*
X166624000Y-67056000D02*
X167640000Y-68072000D01*
X167640000Y-68072000D02*
X174244000Y-68072000D01*
X174244000Y-68072000D02*
X176910000Y-70738000D01*
X176910000Y-70738000D02*
X176910000Y-74422000D01*
X180848000Y-79756000D02*
X180848000Y-78360000D01*
X180848000Y-78360000D02*
X176910000Y-74422000D01*
X180848000Y-122556000D02*
X176910000Y-118618000D01*
X180848000Y-123952000D02*
X180848000Y-122556000D01*
X176910000Y-114934000D02*
X176910000Y-118618000D01*
X174244000Y-112268000D02*
X176910000Y-114934000D01*
X167640000Y-112268000D02*
X174244000Y-112268000D01*
X166624000Y-111252000D02*
X167640000Y-112268000D01*
X166624000Y-104394000D02*
X166624000Y-111252000D01*
X122936000Y-101092000D02*
X122936000Y-102870000D01*
X122936000Y-102870000D02*
X124460000Y-104394000D01*
X124460000Y-104394000D02*
X124460000Y-111252000D01*
X124460000Y-111252000D02*
X125476000Y-112268000D01*
X125476000Y-112268000D02*
X132080000Y-112268000D01*
X132080000Y-112268000D02*
X134746000Y-114934000D01*
X134746000Y-114934000D02*
X134746000Y-118618000D01*
X138684000Y-123952000D02*
X138684000Y-122556000D01*
X138684000Y-122556000D02*
X134746000Y-118618000D01*
X165100000Y-102870000D02*
X166624000Y-104394000D01*
X165100000Y-101092000D02*
X165100000Y-102870000D01*
X153416000Y-111252000D02*
X153670000Y-111252000D01*
X111252000Y-67056000D02*
X111506000Y-67056000D01*
X153416000Y-67056000D02*
X153670000Y-67056000D01*
X111252000Y-111252000D02*
X111506000Y-111252000D01*
X179578000Y-108712000D02*
X185166000Y-114300000D01*
X185166000Y-114300000D02*
X185166000Y-137922000D01*
X185166000Y-137922000D02*
X186436000Y-139192000D01*
X179578000Y-103632000D02*
X179578000Y-108712000D01*
X137414000Y-64516000D02*
X143002000Y-70104000D01*
X143002000Y-70104000D02*
X143002000Y-93726000D01*
X143002000Y-93726000D02*
X144272000Y-94996000D01*
X137414000Y-59436000D02*
X137414000Y-64516000D01*
X179578000Y-59436000D02*
X179578000Y-64516000D01*
X185166000Y-93726000D02*
X186436000Y-94996000D01*
X185166000Y-70104000D02*
X185166000Y-93726000D01*
X179578000Y-64516000D02*
X185166000Y-70104000D01*
X137414000Y-103632000D02*
X137414000Y-108712000D01*
X143002000Y-137922000D02*
X144272000Y-139192000D01*
X143002000Y-114300000D02*
X143002000Y-137922000D01*
X137414000Y-108712000D02*
X143002000Y-114300000D01*
D26*
G36*
X112928039Y-100494622D02*
X112815000Y-101062907D01*
X112815000Y-101121093D01*
X112928039Y-101689378D01*
X113249946Y-102171147D01*
X113731715Y-102493054D01*
X114300000Y-102606093D01*
X114868285Y-102493054D01*
X115350054Y-102171147D01*
X115379403Y-102127223D01*
X115451673Y-102301698D01*
X115630301Y-102480327D01*
X115863690Y-102577000D01*
X116554250Y-102577000D01*
X116713000Y-102418250D01*
X116713000Y-101219000D01*
X116967000Y-101219000D01*
X116967000Y-102418250D01*
X117125750Y-102577000D01*
X117816310Y-102577000D01*
X118049699Y-102480327D01*
X118228327Y-102301698D01*
X118325000Y-102068309D01*
X118325000Y-101377750D01*
X118166250Y-101219000D01*
X116967000Y-101219000D01*
X116713000Y-101219000D01*
X116693000Y-101219000D01*
X116693000Y-100965000D01*
X116713000Y-100965000D01*
X116713000Y-100945000D01*
X116967000Y-100945000D01*
X116967000Y-100965000D01*
X118166250Y-100965000D01*
X118325000Y-100806250D01*
X118325000Y-100115691D01*
X118287020Y-100024000D01*
X121972961Y-100024000D01*
X121893189Y-100077302D01*
X121582120Y-100542849D01*
X121472887Y-101092000D01*
X121582120Y-101641151D01*
X121893189Y-102106698D01*
X122176000Y-102295667D01*
X122176000Y-102870000D01*
X122233852Y-103160839D01*
X122398599Y-103407401D01*
X123700000Y-104708802D01*
X123700000Y-111252000D01*
X123757852Y-111542839D01*
X123922599Y-111789401D01*
X124938599Y-112805401D01*
X125185161Y-112970148D01*
X125476000Y-113028000D01*
X131765198Y-113028000D01*
X133986000Y-115248802D01*
X133986000Y-117389941D01*
X133872723Y-117465630D01*
X133743590Y-117658891D01*
X133575125Y-117436067D01*
X133155376Y-117189714D01*
X133063609Y-117174538D01*
X132873000Y-117299269D01*
X132873000Y-118491000D01*
X132893000Y-118491000D01*
X132893000Y-118745000D01*
X132873000Y-118745000D01*
X132873000Y-119936731D01*
X133063609Y-120061462D01*
X133155376Y-120046286D01*
X133575125Y-119799933D01*
X133743590Y-119577109D01*
X133872723Y-119770370D01*
X134273386Y-120038084D01*
X134746000Y-120132093D01*
X135112408Y-120059210D01*
X137830041Y-122776843D01*
X137468176Y-123138077D01*
X137414138Y-123268215D01*
X137361243Y-123140200D01*
X136957923Y-122736176D01*
X136430691Y-122517250D01*
X135859813Y-122516752D01*
X135332200Y-122734757D01*
X134928176Y-123138077D01*
X134874138Y-123268215D01*
X134821243Y-123140200D01*
X134417923Y-122736176D01*
X133890691Y-122517250D01*
X133319813Y-122516752D01*
X132792200Y-122734757D01*
X132388176Y-123138077D01*
X132334138Y-123268215D01*
X132281243Y-123140200D01*
X131877923Y-122736176D01*
X131824000Y-122713785D01*
X131824000Y-119677090D01*
X131916875Y-119799933D01*
X132336624Y-120046286D01*
X132428391Y-120061462D01*
X132619000Y-119936731D01*
X132619000Y-118745000D01*
X132599000Y-118745000D01*
X132599000Y-118491000D01*
X132619000Y-118491000D01*
X132619000Y-117299269D01*
X132428391Y-117174538D01*
X132336624Y-117189714D01*
X131916875Y-117436067D01*
X131748410Y-117658891D01*
X131619277Y-117465630D01*
X131218614Y-117197916D01*
X130746000Y-117103907D01*
X130273386Y-117197916D01*
X129872723Y-117465630D01*
X129746000Y-117655285D01*
X129619277Y-117465630D01*
X129218614Y-117197916D01*
X128746000Y-117103907D01*
X128273386Y-117197916D01*
X127896004Y-117450074D01*
X127810090Y-117316559D01*
X127597890Y-117171569D01*
X127346000Y-117120560D01*
X126146000Y-117120560D01*
X125910683Y-117164838D01*
X125694559Y-117303910D01*
X125549569Y-117516110D01*
X125498560Y-117768000D01*
X125498560Y-119468000D01*
X125542838Y-119703317D01*
X125681910Y-119919441D01*
X125894110Y-120064431D01*
X126146000Y-120115440D01*
X127168638Y-120115440D01*
X127764000Y-120710802D01*
X127764000Y-122713354D01*
X127712200Y-122734757D01*
X127308176Y-123138077D01*
X127254138Y-123268215D01*
X127201243Y-123140200D01*
X126797923Y-122736176D01*
X126270691Y-122517250D01*
X125699813Y-122516752D01*
X125172200Y-122734757D01*
X124768176Y-123138077D01*
X124549250Y-123665309D01*
X124548752Y-124236187D01*
X124766757Y-124763800D01*
X125170077Y-125167824D01*
X125697309Y-125386750D01*
X126268187Y-125387248D01*
X126795800Y-125169243D01*
X127199824Y-124765923D01*
X127253862Y-124635785D01*
X127306757Y-124763800D01*
X127710077Y-125167824D01*
X128237309Y-125386750D01*
X128808187Y-125387248D01*
X129335800Y-125169243D01*
X129739824Y-124765923D01*
X129793862Y-124635785D01*
X129846757Y-124763800D01*
X130250077Y-125167824D01*
X130777309Y-125386750D01*
X131348187Y-125387248D01*
X131875800Y-125169243D01*
X132279824Y-124765923D01*
X132333862Y-124635785D01*
X132386757Y-124763800D01*
X132790077Y-125167824D01*
X133317309Y-125386750D01*
X133888187Y-125387248D01*
X134415800Y-125169243D01*
X134819824Y-124765923D01*
X134873862Y-124635785D01*
X134926757Y-124763800D01*
X135330077Y-125167824D01*
X135857309Y-125386750D01*
X136428187Y-125387248D01*
X136955800Y-125169243D01*
X137359824Y-124765923D01*
X137413862Y-124635785D01*
X137466757Y-124763800D01*
X137870077Y-125167824D01*
X138397309Y-125386750D01*
X138968187Y-125387248D01*
X139495800Y-125169243D01*
X139789000Y-124876554D01*
X139789000Y-124878309D01*
X139885673Y-125111698D01*
X140064301Y-125290327D01*
X140297690Y-125387000D01*
X140938250Y-125387000D01*
X141097000Y-125228250D01*
X141097000Y-124079000D01*
X141077000Y-124079000D01*
X141077000Y-123825000D01*
X141097000Y-123825000D01*
X141097000Y-122675750D01*
X140938250Y-122517000D01*
X140297690Y-122517000D01*
X140064301Y-122613673D01*
X139885673Y-122792302D01*
X139789000Y-123025691D01*
X139789000Y-123027761D01*
X139497923Y-122736176D01*
X139444000Y-122713785D01*
X139444000Y-122556000D01*
X139386148Y-122265161D01*
X139221401Y-122018599D01*
X135981000Y-118778198D01*
X135981000Y-118338907D01*
X135886991Y-117866293D01*
X135619277Y-117465630D01*
X135506000Y-117389941D01*
X135506000Y-114934000D01*
X135448148Y-114643161D01*
X135448148Y-114643160D01*
X135283401Y-114396599D01*
X132617401Y-111730599D01*
X132370839Y-111565852D01*
X132080000Y-111508000D01*
X125790802Y-111508000D01*
X125220000Y-110937198D01*
X125220000Y-107712000D01*
X125860560Y-107712000D01*
X125860560Y-109712000D01*
X125904838Y-109947317D01*
X126043910Y-110163441D01*
X126256110Y-110308431D01*
X126508000Y-110359440D01*
X128508000Y-110359440D01*
X128743317Y-110315162D01*
X128959441Y-110176090D01*
X129104431Y-109963890D01*
X129107042Y-109950998D01*
X129173736Y-110131387D01*
X129783461Y-110357908D01*
X130433460Y-110333856D01*
X130922264Y-110131387D01*
X131020927Y-109864532D01*
X130048000Y-108891605D01*
X130033858Y-108905748D01*
X129854253Y-108726143D01*
X129868395Y-108712000D01*
X130227605Y-108712000D01*
X131200532Y-109684927D01*
X131467387Y-109586264D01*
X131693908Y-108976539D01*
X131669856Y-108326540D01*
X131467387Y-107837736D01*
X131200532Y-107739073D01*
X130227605Y-108712000D01*
X129868395Y-108712000D01*
X129854253Y-108697858D01*
X130033858Y-108518253D01*
X130048000Y-108532395D01*
X131020927Y-107559468D01*
X130922264Y-107292613D01*
X130312539Y-107066092D01*
X129662540Y-107090144D01*
X129173736Y-107292613D01*
X129107681Y-107471273D01*
X128972090Y-107260559D01*
X128759890Y-107115569D01*
X128508000Y-107064560D01*
X126508000Y-107064560D01*
X126272683Y-107108838D01*
X126056559Y-107247910D01*
X125911569Y-107460110D01*
X125860560Y-107712000D01*
X125220000Y-107712000D01*
X125220000Y-104394000D01*
X125162148Y-104103161D01*
X125162148Y-104103160D01*
X124997401Y-103856599D01*
X123696000Y-102555198D01*
X123696000Y-102295667D01*
X123978811Y-102106698D01*
X124289880Y-101641151D01*
X124399113Y-101092000D01*
X124289880Y-100542849D01*
X123978811Y-100077302D01*
X123899039Y-100024000D01*
X129594696Y-100024000D01*
X129340176Y-100278077D01*
X129121250Y-100805309D01*
X129120752Y-101376187D01*
X129338757Y-101903800D01*
X129742077Y-102307824D01*
X130269309Y-102526750D01*
X130840187Y-102527248D01*
X131367800Y-102309243D01*
X131771824Y-101905923D01*
X131990750Y-101378691D01*
X131991248Y-100807813D01*
X131773243Y-100280200D01*
X131517489Y-100024000D01*
X136311151Y-100024000D01*
X136113449Y-100221357D01*
X135879267Y-100785330D01*
X135878735Y-101395991D01*
X136111932Y-101960371D01*
X136279880Y-102128613D01*
X136278683Y-102128838D01*
X136062559Y-102267910D01*
X135917569Y-102480110D01*
X135866560Y-102732000D01*
X135866560Y-104532000D01*
X135910838Y-104767317D01*
X136049910Y-104983441D01*
X136262110Y-105128431D01*
X136514000Y-105179440D01*
X136654000Y-105179440D01*
X136654000Y-108712000D01*
X136711852Y-109002839D01*
X136876599Y-109249401D01*
X142242000Y-114614802D01*
X142242000Y-122554979D01*
X142150310Y-122517000D01*
X141509750Y-122517000D01*
X141351000Y-122675750D01*
X141351000Y-123825000D01*
X141371000Y-123825000D01*
X141371000Y-124079000D01*
X141351000Y-124079000D01*
X141351000Y-125228250D01*
X141509750Y-125387000D01*
X142150310Y-125387000D01*
X142242000Y-125349021D01*
X142242000Y-137922000D01*
X142299852Y-138212839D01*
X142464599Y-138459401D01*
X142862560Y-138857362D01*
X142862560Y-139954000D01*
X142906838Y-140189317D01*
X143045910Y-140405441D01*
X143258110Y-140550431D01*
X143441124Y-140587492D01*
X143088371Y-140939630D01*
X142875243Y-141452900D01*
X142874758Y-142008661D01*
X143086990Y-142522303D01*
X143364203Y-142800000D01*
X112159517Y-142800000D01*
X112435629Y-142524370D01*
X112648757Y-142011100D01*
X112649242Y-141455339D01*
X112437010Y-140941697D01*
X112044370Y-140548371D01*
X111836488Y-140462051D01*
X112042303Y-140377010D01*
X112435629Y-139984370D01*
X112648757Y-139471100D01*
X112649242Y-138915339D01*
X112437010Y-138401697D01*
X112044370Y-138008371D01*
X111836488Y-137922051D01*
X112042303Y-137837010D01*
X112435629Y-137444370D01*
X112648757Y-136931100D01*
X112649242Y-136375339D01*
X112437010Y-135861697D01*
X112044370Y-135468371D01*
X111836488Y-135382051D01*
X112042303Y-135297010D01*
X112435629Y-134904370D01*
X112648757Y-134391100D01*
X112649242Y-133835339D01*
X112437010Y-133321697D01*
X112044370Y-132928371D01*
X111836488Y-132842051D01*
X112042303Y-132757010D01*
X112435629Y-132364370D01*
X112648757Y-131851100D01*
X112649242Y-131295339D01*
X112437010Y-130781697D01*
X112044370Y-130388371D01*
X111836488Y-130302051D01*
X112042303Y-130217010D01*
X112435629Y-129824370D01*
X112648757Y-129311100D01*
X112649242Y-128755339D01*
X112437010Y-128241697D01*
X112044370Y-127848371D01*
X111836488Y-127762051D01*
X112042303Y-127677010D01*
X112435629Y-127284370D01*
X112648757Y-126771100D01*
X112649242Y-126215339D01*
X112437010Y-125701697D01*
X112044370Y-125308371D01*
X111836488Y-125222051D01*
X112042303Y-125137010D01*
X112435629Y-124744370D01*
X112648757Y-124231100D01*
X112649242Y-123675339D01*
X112437010Y-123161697D01*
X112044370Y-122768371D01*
X111836488Y-122682051D01*
X112042303Y-122597010D01*
X112435629Y-122204370D01*
X112648757Y-121691100D01*
X112649242Y-121135339D01*
X112437010Y-120621697D01*
X112044370Y-120228371D01*
X111836488Y-120142051D01*
X112042303Y-120057010D01*
X112435629Y-119664370D01*
X112648757Y-119151100D01*
X112649242Y-118595339D01*
X112437010Y-118081697D01*
X112044370Y-117688371D01*
X111836488Y-117602051D01*
X112042303Y-117517010D01*
X112435629Y-117124370D01*
X112648757Y-116611100D01*
X112649242Y-116055339D01*
X112437010Y-115541697D01*
X112044370Y-115148371D01*
X111836488Y-115062051D01*
X112042303Y-114977010D01*
X112435629Y-114584370D01*
X112648757Y-114071100D01*
X112649242Y-113515339D01*
X112437010Y-113001697D01*
X112044370Y-112608371D01*
X111836488Y-112522051D01*
X112042303Y-112437010D01*
X112435629Y-112044370D01*
X112648757Y-111531100D01*
X112649242Y-110975339D01*
X112437010Y-110461697D01*
X112044370Y-110068371D01*
X111836488Y-109982051D01*
X112042303Y-109897010D01*
X112435629Y-109504370D01*
X112648757Y-108991100D01*
X112649242Y-108435339D01*
X112437010Y-107921697D01*
X112044370Y-107528371D01*
X111836488Y-107442051D01*
X112042303Y-107357010D01*
X112435629Y-106964370D01*
X112645995Y-106457750D01*
X113069000Y-106457750D01*
X113069000Y-107148309D01*
X113165673Y-107381698D01*
X113344301Y-107560327D01*
X113577690Y-107657000D01*
X114268250Y-107657000D01*
X114427000Y-107498250D01*
X114427000Y-106299000D01*
X113227750Y-106299000D01*
X113069000Y-106457750D01*
X112645995Y-106457750D01*
X112648757Y-106451100D01*
X112649242Y-105895339D01*
X112437010Y-105381697D01*
X112251329Y-105195691D01*
X113069000Y-105195691D01*
X113069000Y-105886250D01*
X113227750Y-106045000D01*
X114427000Y-106045000D01*
X114427000Y-104845750D01*
X114681000Y-104845750D01*
X114681000Y-106045000D01*
X114701000Y-106045000D01*
X114701000Y-106299000D01*
X114681000Y-106299000D01*
X114681000Y-107498250D01*
X114839750Y-107657000D01*
X115530310Y-107657000D01*
X115763699Y-107560327D01*
X115942327Y-107381698D01*
X116014597Y-107207223D01*
X116043946Y-107251147D01*
X116525715Y-107573054D01*
X117094000Y-107686093D01*
X117662285Y-107573054D01*
X118144054Y-107251147D01*
X118364000Y-106921974D01*
X118583946Y-107251147D01*
X119065715Y-107573054D01*
X119634000Y-107686093D01*
X120202285Y-107573054D01*
X120684054Y-107251147D01*
X120904000Y-106921974D01*
X121123946Y-107251147D01*
X121605715Y-107573054D01*
X122174000Y-107686093D01*
X122742285Y-107573054D01*
X123224054Y-107251147D01*
X123545961Y-106769378D01*
X123659000Y-106201093D01*
X123659000Y-106142907D01*
X123545961Y-105574622D01*
X123224054Y-105092853D01*
X122742285Y-104770946D01*
X122174000Y-104657907D01*
X121605715Y-104770946D01*
X121123946Y-105092853D01*
X120904000Y-105422026D01*
X120684054Y-105092853D01*
X120202285Y-104770946D01*
X119634000Y-104657907D01*
X119065715Y-104770946D01*
X118583946Y-105092853D01*
X118364000Y-105422026D01*
X118144054Y-105092853D01*
X117662285Y-104770946D01*
X117094000Y-104657907D01*
X116525715Y-104770946D01*
X116043946Y-105092853D01*
X116014597Y-105136777D01*
X115942327Y-104962302D01*
X115763699Y-104783673D01*
X115530310Y-104687000D01*
X114839750Y-104687000D01*
X114681000Y-104845750D01*
X114427000Y-104845750D01*
X114268250Y-104687000D01*
X113577690Y-104687000D01*
X113344301Y-104783673D01*
X113165673Y-104962302D01*
X113069000Y-105195691D01*
X112251329Y-105195691D01*
X112044370Y-104988371D01*
X111836488Y-104902051D01*
X112042303Y-104817010D01*
X112435629Y-104424370D01*
X112648757Y-103911100D01*
X112649242Y-103355339D01*
X112437010Y-102841697D01*
X112044370Y-102448371D01*
X111836488Y-102362051D01*
X112042303Y-102277010D01*
X112435629Y-101884370D01*
X112648757Y-101371100D01*
X112649242Y-100815339D01*
X112437010Y-100301697D01*
X112159797Y-100024000D01*
X113242498Y-100024000D01*
X112928039Y-100494622D01*
X112928039Y-100494622D01*
G37*
X112928039Y-100494622D02*
X112815000Y-101062907D01*
X112815000Y-101121093D01*
X112928039Y-101689378D01*
X113249946Y-102171147D01*
X113731715Y-102493054D01*
X114300000Y-102606093D01*
X114868285Y-102493054D01*
X115350054Y-102171147D01*
X115379403Y-102127223D01*
X115451673Y-102301698D01*
X115630301Y-102480327D01*
X115863690Y-102577000D01*
X116554250Y-102577000D01*
X116713000Y-102418250D01*
X116713000Y-101219000D01*
X116967000Y-101219000D01*
X116967000Y-102418250D01*
X117125750Y-102577000D01*
X117816310Y-102577000D01*
X118049699Y-102480327D01*
X118228327Y-102301698D01*
X118325000Y-102068309D01*
X118325000Y-101377750D01*
X118166250Y-101219000D01*
X116967000Y-101219000D01*
X116713000Y-101219000D01*
X116693000Y-101219000D01*
X116693000Y-100965000D01*
X116713000Y-100965000D01*
X116713000Y-100945000D01*
X116967000Y-100945000D01*
X116967000Y-100965000D01*
X118166250Y-100965000D01*
X118325000Y-100806250D01*
X118325000Y-100115691D01*
X118287020Y-100024000D01*
X121972961Y-100024000D01*
X121893189Y-100077302D01*
X121582120Y-100542849D01*
X121472887Y-101092000D01*
X121582120Y-101641151D01*
X121893189Y-102106698D01*
X122176000Y-102295667D01*
X122176000Y-102870000D01*
X122233852Y-103160839D01*
X122398599Y-103407401D01*
X123700000Y-104708802D01*
X123700000Y-111252000D01*
X123757852Y-111542839D01*
X123922599Y-111789401D01*
X124938599Y-112805401D01*
X125185161Y-112970148D01*
X125476000Y-113028000D01*
X131765198Y-113028000D01*
X133986000Y-115248802D01*
X133986000Y-117389941D01*
X133872723Y-117465630D01*
X133743590Y-117658891D01*
X133575125Y-117436067D01*
X133155376Y-117189714D01*
X133063609Y-117174538D01*
X132873000Y-117299269D01*
X132873000Y-118491000D01*
X132893000Y-118491000D01*
X132893000Y-118745000D01*
X132873000Y-118745000D01*
X132873000Y-119936731D01*
X133063609Y-120061462D01*
X133155376Y-120046286D01*
X133575125Y-119799933D01*
X133743590Y-119577109D01*
X133872723Y-119770370D01*
X134273386Y-120038084D01*
X134746000Y-120132093D01*
X135112408Y-120059210D01*
X137830041Y-122776843D01*
X137468176Y-123138077D01*
X137414138Y-123268215D01*
X137361243Y-123140200D01*
X136957923Y-122736176D01*
X136430691Y-122517250D01*
X135859813Y-122516752D01*
X135332200Y-122734757D01*
X134928176Y-123138077D01*
X134874138Y-123268215D01*
X134821243Y-123140200D01*
X134417923Y-122736176D01*
X133890691Y-122517250D01*
X133319813Y-122516752D01*
X132792200Y-122734757D01*
X132388176Y-123138077D01*
X132334138Y-123268215D01*
X132281243Y-123140200D01*
X131877923Y-122736176D01*
X131824000Y-122713785D01*
X131824000Y-119677090D01*
X131916875Y-119799933D01*
X132336624Y-120046286D01*
X132428391Y-120061462D01*
X132619000Y-119936731D01*
X132619000Y-118745000D01*
X132599000Y-118745000D01*
X132599000Y-118491000D01*
X132619000Y-118491000D01*
X132619000Y-117299269D01*
X132428391Y-117174538D01*
X132336624Y-117189714D01*
X131916875Y-117436067D01*
X131748410Y-117658891D01*
X131619277Y-117465630D01*
X131218614Y-117197916D01*
X130746000Y-117103907D01*
X130273386Y-117197916D01*
X129872723Y-117465630D01*
X129746000Y-117655285D01*
X129619277Y-117465630D01*
X129218614Y-117197916D01*
X128746000Y-117103907D01*
X128273386Y-117197916D01*
X127896004Y-117450074D01*
X127810090Y-117316559D01*
X127597890Y-117171569D01*
X127346000Y-117120560D01*
X126146000Y-117120560D01*
X125910683Y-117164838D01*
X125694559Y-117303910D01*
X125549569Y-117516110D01*
X125498560Y-117768000D01*
X125498560Y-119468000D01*
X125542838Y-119703317D01*
X125681910Y-119919441D01*
X125894110Y-120064431D01*
X126146000Y-120115440D01*
X127168638Y-120115440D01*
X127764000Y-120710802D01*
X127764000Y-122713354D01*
X127712200Y-122734757D01*
X127308176Y-123138077D01*
X127254138Y-123268215D01*
X127201243Y-123140200D01*
X126797923Y-122736176D01*
X126270691Y-122517250D01*
X125699813Y-122516752D01*
X125172200Y-122734757D01*
X124768176Y-123138077D01*
X124549250Y-123665309D01*
X124548752Y-124236187D01*
X124766757Y-124763800D01*
X125170077Y-125167824D01*
X125697309Y-125386750D01*
X126268187Y-125387248D01*
X126795800Y-125169243D01*
X127199824Y-124765923D01*
X127253862Y-124635785D01*
X127306757Y-124763800D01*
X127710077Y-125167824D01*
X128237309Y-125386750D01*
X128808187Y-125387248D01*
X129335800Y-125169243D01*
X129739824Y-124765923D01*
X129793862Y-124635785D01*
X129846757Y-124763800D01*
X130250077Y-125167824D01*
X130777309Y-125386750D01*
X131348187Y-125387248D01*
X131875800Y-125169243D01*
X132279824Y-124765923D01*
X132333862Y-124635785D01*
X132386757Y-124763800D01*
X132790077Y-125167824D01*
X133317309Y-125386750D01*
X133888187Y-125387248D01*
X134415800Y-125169243D01*
X134819824Y-124765923D01*
X134873862Y-124635785D01*
X134926757Y-124763800D01*
X135330077Y-125167824D01*
X135857309Y-125386750D01*
X136428187Y-125387248D01*
X136955800Y-125169243D01*
X137359824Y-124765923D01*
X137413862Y-124635785D01*
X137466757Y-124763800D01*
X137870077Y-125167824D01*
X138397309Y-125386750D01*
X138968187Y-125387248D01*
X139495800Y-125169243D01*
X139789000Y-124876554D01*
X139789000Y-124878309D01*
X139885673Y-125111698D01*
X140064301Y-125290327D01*
X140297690Y-125387000D01*
X140938250Y-125387000D01*
X141097000Y-125228250D01*
X141097000Y-124079000D01*
X141077000Y-124079000D01*
X141077000Y-123825000D01*
X141097000Y-123825000D01*
X141097000Y-122675750D01*
X140938250Y-122517000D01*
X140297690Y-122517000D01*
X140064301Y-122613673D01*
X139885673Y-122792302D01*
X139789000Y-123025691D01*
X139789000Y-123027761D01*
X139497923Y-122736176D01*
X139444000Y-122713785D01*
X139444000Y-122556000D01*
X139386148Y-122265161D01*
X139221401Y-122018599D01*
X135981000Y-118778198D01*
X135981000Y-118338907D01*
X135886991Y-117866293D01*
X135619277Y-117465630D01*
X135506000Y-117389941D01*
X135506000Y-114934000D01*
X135448148Y-114643161D01*
X135448148Y-114643160D01*
X135283401Y-114396599D01*
X132617401Y-111730599D01*
X132370839Y-111565852D01*
X132080000Y-111508000D01*
X125790802Y-111508000D01*
X125220000Y-110937198D01*
X125220000Y-107712000D01*
X125860560Y-107712000D01*
X125860560Y-109712000D01*
X125904838Y-109947317D01*
X126043910Y-110163441D01*
X126256110Y-110308431D01*
X126508000Y-110359440D01*
X128508000Y-110359440D01*
X128743317Y-110315162D01*
X128959441Y-110176090D01*
X129104431Y-109963890D01*
X129107042Y-109950998D01*
X129173736Y-110131387D01*
X129783461Y-110357908D01*
X130433460Y-110333856D01*
X130922264Y-110131387D01*
X131020927Y-109864532D01*
X130048000Y-108891605D01*
X130033858Y-108905748D01*
X129854253Y-108726143D01*
X129868395Y-108712000D01*
X130227605Y-108712000D01*
X131200532Y-109684927D01*
X131467387Y-109586264D01*
X131693908Y-108976539D01*
X131669856Y-108326540D01*
X131467387Y-107837736D01*
X131200532Y-107739073D01*
X130227605Y-108712000D01*
X129868395Y-108712000D01*
X129854253Y-108697858D01*
X130033858Y-108518253D01*
X130048000Y-108532395D01*
X131020927Y-107559468D01*
X130922264Y-107292613D01*
X130312539Y-107066092D01*
X129662540Y-107090144D01*
X129173736Y-107292613D01*
X129107681Y-107471273D01*
X128972090Y-107260559D01*
X128759890Y-107115569D01*
X128508000Y-107064560D01*
X126508000Y-107064560D01*
X126272683Y-107108838D01*
X126056559Y-107247910D01*
X125911569Y-107460110D01*
X125860560Y-107712000D01*
X125220000Y-107712000D01*
X125220000Y-104394000D01*
X125162148Y-104103161D01*
X125162148Y-104103160D01*
X124997401Y-103856599D01*
X123696000Y-102555198D01*
X123696000Y-102295667D01*
X123978811Y-102106698D01*
X124289880Y-101641151D01*
X124399113Y-101092000D01*
X124289880Y-100542849D01*
X123978811Y-100077302D01*
X123899039Y-100024000D01*
X129594696Y-100024000D01*
X129340176Y-100278077D01*
X129121250Y-100805309D01*
X129120752Y-101376187D01*
X129338757Y-101903800D01*
X129742077Y-102307824D01*
X130269309Y-102526750D01*
X130840187Y-102527248D01*
X131367800Y-102309243D01*
X131771824Y-101905923D01*
X131990750Y-101378691D01*
X131991248Y-100807813D01*
X131773243Y-100280200D01*
X131517489Y-100024000D01*
X136311151Y-100024000D01*
X136113449Y-100221357D01*
X135879267Y-100785330D01*
X135878735Y-101395991D01*
X136111932Y-101960371D01*
X136279880Y-102128613D01*
X136278683Y-102128838D01*
X136062559Y-102267910D01*
X135917569Y-102480110D01*
X135866560Y-102732000D01*
X135866560Y-104532000D01*
X135910838Y-104767317D01*
X136049910Y-104983441D01*
X136262110Y-105128431D01*
X136514000Y-105179440D01*
X136654000Y-105179440D01*
X136654000Y-108712000D01*
X136711852Y-109002839D01*
X136876599Y-109249401D01*
X142242000Y-114614802D01*
X142242000Y-122554979D01*
X142150310Y-122517000D01*
X141509750Y-122517000D01*
X141351000Y-122675750D01*
X141351000Y-123825000D01*
X141371000Y-123825000D01*
X141371000Y-124079000D01*
X141351000Y-124079000D01*
X141351000Y-125228250D01*
X141509750Y-125387000D01*
X142150310Y-125387000D01*
X142242000Y-125349021D01*
X142242000Y-137922000D01*
X142299852Y-138212839D01*
X142464599Y-138459401D01*
X142862560Y-138857362D01*
X142862560Y-139954000D01*
X142906838Y-140189317D01*
X143045910Y-140405441D01*
X143258110Y-140550431D01*
X143441124Y-140587492D01*
X143088371Y-140939630D01*
X142875243Y-141452900D01*
X142874758Y-142008661D01*
X143086990Y-142522303D01*
X143364203Y-142800000D01*
X112159517Y-142800000D01*
X112435629Y-142524370D01*
X112648757Y-142011100D01*
X112649242Y-141455339D01*
X112437010Y-140941697D01*
X112044370Y-140548371D01*
X111836488Y-140462051D01*
X112042303Y-140377010D01*
X112435629Y-139984370D01*
X112648757Y-139471100D01*
X112649242Y-138915339D01*
X112437010Y-138401697D01*
X112044370Y-138008371D01*
X111836488Y-137922051D01*
X112042303Y-137837010D01*
X112435629Y-137444370D01*
X112648757Y-136931100D01*
X112649242Y-136375339D01*
X112437010Y-135861697D01*
X112044370Y-135468371D01*
X111836488Y-135382051D01*
X112042303Y-135297010D01*
X112435629Y-134904370D01*
X112648757Y-134391100D01*
X112649242Y-133835339D01*
X112437010Y-133321697D01*
X112044370Y-132928371D01*
X111836488Y-132842051D01*
X112042303Y-132757010D01*
X112435629Y-132364370D01*
X112648757Y-131851100D01*
X112649242Y-131295339D01*
X112437010Y-130781697D01*
X112044370Y-130388371D01*
X111836488Y-130302051D01*
X112042303Y-130217010D01*
X112435629Y-129824370D01*
X112648757Y-129311100D01*
X112649242Y-128755339D01*
X112437010Y-128241697D01*
X112044370Y-127848371D01*
X111836488Y-127762051D01*
X112042303Y-127677010D01*
X112435629Y-127284370D01*
X112648757Y-126771100D01*
X112649242Y-126215339D01*
X112437010Y-125701697D01*
X112044370Y-125308371D01*
X111836488Y-125222051D01*
X112042303Y-125137010D01*
X112435629Y-124744370D01*
X112648757Y-124231100D01*
X112649242Y-123675339D01*
X112437010Y-123161697D01*
X112044370Y-122768371D01*
X111836488Y-122682051D01*
X112042303Y-122597010D01*
X112435629Y-122204370D01*
X112648757Y-121691100D01*
X112649242Y-121135339D01*
X112437010Y-120621697D01*
X112044370Y-120228371D01*
X111836488Y-120142051D01*
X112042303Y-120057010D01*
X112435629Y-119664370D01*
X112648757Y-119151100D01*
X112649242Y-118595339D01*
X112437010Y-118081697D01*
X112044370Y-117688371D01*
X111836488Y-117602051D01*
X112042303Y-117517010D01*
X112435629Y-117124370D01*
X112648757Y-116611100D01*
X112649242Y-116055339D01*
X112437010Y-115541697D01*
X112044370Y-115148371D01*
X111836488Y-115062051D01*
X112042303Y-114977010D01*
X112435629Y-114584370D01*
X112648757Y-114071100D01*
X112649242Y-113515339D01*
X112437010Y-113001697D01*
X112044370Y-112608371D01*
X111836488Y-112522051D01*
X112042303Y-112437010D01*
X112435629Y-112044370D01*
X112648757Y-111531100D01*
X112649242Y-110975339D01*
X112437010Y-110461697D01*
X112044370Y-110068371D01*
X111836488Y-109982051D01*
X112042303Y-109897010D01*
X112435629Y-109504370D01*
X112648757Y-108991100D01*
X112649242Y-108435339D01*
X112437010Y-107921697D01*
X112044370Y-107528371D01*
X111836488Y-107442051D01*
X112042303Y-107357010D01*
X112435629Y-106964370D01*
X112645995Y-106457750D01*
X113069000Y-106457750D01*
X113069000Y-107148309D01*
X113165673Y-107381698D01*
X113344301Y-107560327D01*
X113577690Y-107657000D01*
X114268250Y-107657000D01*
X114427000Y-107498250D01*
X114427000Y-106299000D01*
X113227750Y-106299000D01*
X113069000Y-106457750D01*
X112645995Y-106457750D01*
X112648757Y-106451100D01*
X112649242Y-105895339D01*
X112437010Y-105381697D01*
X112251329Y-105195691D01*
X113069000Y-105195691D01*
X113069000Y-105886250D01*
X113227750Y-106045000D01*
X114427000Y-106045000D01*
X114427000Y-104845750D01*
X114681000Y-104845750D01*
X114681000Y-106045000D01*
X114701000Y-106045000D01*
X114701000Y-106299000D01*
X114681000Y-106299000D01*
X114681000Y-107498250D01*
X114839750Y-107657000D01*
X115530310Y-107657000D01*
X115763699Y-107560327D01*
X115942327Y-107381698D01*
X116014597Y-107207223D01*
X116043946Y-107251147D01*
X116525715Y-107573054D01*
X117094000Y-107686093D01*
X117662285Y-107573054D01*
X118144054Y-107251147D01*
X118364000Y-106921974D01*
X118583946Y-107251147D01*
X119065715Y-107573054D01*
X119634000Y-107686093D01*
X120202285Y-107573054D01*
X120684054Y-107251147D01*
X120904000Y-106921974D01*
X121123946Y-107251147D01*
X121605715Y-107573054D01*
X122174000Y-107686093D01*
X122742285Y-107573054D01*
X123224054Y-107251147D01*
X123545961Y-106769378D01*
X123659000Y-106201093D01*
X123659000Y-106142907D01*
X123545961Y-105574622D01*
X123224054Y-105092853D01*
X122742285Y-104770946D01*
X122174000Y-104657907D01*
X121605715Y-104770946D01*
X121123946Y-105092853D01*
X120904000Y-105422026D01*
X120684054Y-105092853D01*
X120202285Y-104770946D01*
X119634000Y-104657907D01*
X119065715Y-104770946D01*
X118583946Y-105092853D01*
X118364000Y-105422026D01*
X118144054Y-105092853D01*
X117662285Y-104770946D01*
X117094000Y-104657907D01*
X116525715Y-104770946D01*
X116043946Y-105092853D01*
X116014597Y-105136777D01*
X115942327Y-104962302D01*
X115763699Y-104783673D01*
X115530310Y-104687000D01*
X114839750Y-104687000D01*
X114681000Y-104845750D01*
X114427000Y-104845750D01*
X114268250Y-104687000D01*
X113577690Y-104687000D01*
X113344301Y-104783673D01*
X113165673Y-104962302D01*
X113069000Y-105195691D01*
X112251329Y-105195691D01*
X112044370Y-104988371D01*
X111836488Y-104902051D01*
X112042303Y-104817010D01*
X112435629Y-104424370D01*
X112648757Y-103911100D01*
X112649242Y-103355339D01*
X112437010Y-102841697D01*
X112044370Y-102448371D01*
X111836488Y-102362051D01*
X112042303Y-102277010D01*
X112435629Y-101884370D01*
X112648757Y-101371100D01*
X112649242Y-100815339D01*
X112437010Y-100301697D01*
X112159797Y-100024000D01*
X113242498Y-100024000D01*
X112928039Y-100494622D01*
G36*
X108839000Y-100965000D02*
X108859000Y-100965000D01*
X108859000Y-101219000D01*
X108839000Y-101219000D01*
X108839000Y-101239000D01*
X108585000Y-101239000D01*
X108585000Y-101219000D01*
X108565000Y-101219000D01*
X108565000Y-100965000D01*
X108585000Y-100965000D01*
X108585000Y-100945000D01*
X108839000Y-100945000D01*
X108839000Y-100965000D01*
X108839000Y-100965000D01*
G37*
X108839000Y-100965000D02*
X108859000Y-100965000D01*
X108859000Y-101219000D01*
X108839000Y-101219000D01*
X108839000Y-101239000D01*
X108585000Y-101239000D01*
X108585000Y-101219000D01*
X108565000Y-101219000D01*
X108565000Y-100965000D01*
X108585000Y-100965000D01*
X108585000Y-100945000D01*
X108839000Y-100945000D01*
X108839000Y-100965000D01*
G36*
X155092039Y-100494622D02*
X154979000Y-101062907D01*
X154979000Y-101121093D01*
X155092039Y-101689378D01*
X155413946Y-102171147D01*
X155895715Y-102493054D01*
X156464000Y-102606093D01*
X157032285Y-102493054D01*
X157514054Y-102171147D01*
X157543403Y-102127223D01*
X157615673Y-102301698D01*
X157794301Y-102480327D01*
X158027690Y-102577000D01*
X158718250Y-102577000D01*
X158877000Y-102418250D01*
X158877000Y-101219000D01*
X159131000Y-101219000D01*
X159131000Y-102418250D01*
X159289750Y-102577000D01*
X159980310Y-102577000D01*
X160213699Y-102480327D01*
X160392327Y-102301698D01*
X160489000Y-102068309D01*
X160489000Y-101377750D01*
X160330250Y-101219000D01*
X159131000Y-101219000D01*
X158877000Y-101219000D01*
X158857000Y-101219000D01*
X158857000Y-100965000D01*
X158877000Y-100965000D01*
X158877000Y-100945000D01*
X159131000Y-100945000D01*
X159131000Y-100965000D01*
X160330250Y-100965000D01*
X160489000Y-100806250D01*
X160489000Y-100115691D01*
X160451020Y-100024000D01*
X164136961Y-100024000D01*
X164057189Y-100077302D01*
X163746120Y-100542849D01*
X163636887Y-101092000D01*
X163746120Y-101641151D01*
X164057189Y-102106698D01*
X164340000Y-102295667D01*
X164340000Y-102870000D01*
X164397852Y-103160839D01*
X164562599Y-103407401D01*
X165864000Y-104708802D01*
X165864000Y-111252000D01*
X165921852Y-111542839D01*
X166086599Y-111789401D01*
X167102599Y-112805401D01*
X167349161Y-112970148D01*
X167640000Y-113028000D01*
X173929198Y-113028000D01*
X176150000Y-115248802D01*
X176150000Y-117389941D01*
X176036723Y-117465630D01*
X175907590Y-117658891D01*
X175739125Y-117436067D01*
X175319376Y-117189714D01*
X175227609Y-117174538D01*
X175037000Y-117299269D01*
X175037000Y-118491000D01*
X175057000Y-118491000D01*
X175057000Y-118745000D01*
X175037000Y-118745000D01*
X175037000Y-119936731D01*
X175227609Y-120061462D01*
X175319376Y-120046286D01*
X175739125Y-119799933D01*
X175907590Y-119577109D01*
X176036723Y-119770370D01*
X176437386Y-120038084D01*
X176910000Y-120132093D01*
X177276408Y-120059210D01*
X179994041Y-122776843D01*
X179632176Y-123138077D01*
X179578138Y-123268215D01*
X179525243Y-123140200D01*
X179121923Y-122736176D01*
X178594691Y-122517250D01*
X178023813Y-122516752D01*
X177496200Y-122734757D01*
X177092176Y-123138077D01*
X177038138Y-123268215D01*
X176985243Y-123140200D01*
X176581923Y-122736176D01*
X176054691Y-122517250D01*
X175483813Y-122516752D01*
X174956200Y-122734757D01*
X174552176Y-123138077D01*
X174498138Y-123268215D01*
X174445243Y-123140200D01*
X174041923Y-122736176D01*
X173988000Y-122713785D01*
X173988000Y-119677090D01*
X174080875Y-119799933D01*
X174500624Y-120046286D01*
X174592391Y-120061462D01*
X174783000Y-119936731D01*
X174783000Y-118745000D01*
X174763000Y-118745000D01*
X174763000Y-118491000D01*
X174783000Y-118491000D01*
X174783000Y-117299269D01*
X174592391Y-117174538D01*
X174500624Y-117189714D01*
X174080875Y-117436067D01*
X173912410Y-117658891D01*
X173783277Y-117465630D01*
X173382614Y-117197916D01*
X172910000Y-117103907D01*
X172437386Y-117197916D01*
X172036723Y-117465630D01*
X171910000Y-117655285D01*
X171783277Y-117465630D01*
X171382614Y-117197916D01*
X170910000Y-117103907D01*
X170437386Y-117197916D01*
X170060004Y-117450074D01*
X169974090Y-117316559D01*
X169761890Y-117171569D01*
X169510000Y-117120560D01*
X168310000Y-117120560D01*
X168074683Y-117164838D01*
X167858559Y-117303910D01*
X167713569Y-117516110D01*
X167662560Y-117768000D01*
X167662560Y-119468000D01*
X167706838Y-119703317D01*
X167845910Y-119919441D01*
X168058110Y-120064431D01*
X168310000Y-120115440D01*
X169332638Y-120115440D01*
X169928000Y-120710802D01*
X169928000Y-122713354D01*
X169876200Y-122734757D01*
X169472176Y-123138077D01*
X169418138Y-123268215D01*
X169365243Y-123140200D01*
X168961923Y-122736176D01*
X168434691Y-122517250D01*
X167863813Y-122516752D01*
X167336200Y-122734757D01*
X166932176Y-123138077D01*
X166713250Y-123665309D01*
X166712752Y-124236187D01*
X166930757Y-124763800D01*
X167334077Y-125167824D01*
X167861309Y-125386750D01*
X168432187Y-125387248D01*
X168959800Y-125169243D01*
X169363824Y-124765923D01*
X169417862Y-124635785D01*
X169470757Y-124763800D01*
X169874077Y-125167824D01*
X170401309Y-125386750D01*
X170972187Y-125387248D01*
X171499800Y-125169243D01*
X171903824Y-124765923D01*
X171957862Y-124635785D01*
X172010757Y-124763800D01*
X172414077Y-125167824D01*
X172941309Y-125386750D01*
X173512187Y-125387248D01*
X174039800Y-125169243D01*
X174443824Y-124765923D01*
X174497862Y-124635785D01*
X174550757Y-124763800D01*
X174954077Y-125167824D01*
X175481309Y-125386750D01*
X176052187Y-125387248D01*
X176579800Y-125169243D01*
X176983824Y-124765923D01*
X177037862Y-124635785D01*
X177090757Y-124763800D01*
X177494077Y-125167824D01*
X178021309Y-125386750D01*
X178592187Y-125387248D01*
X179119800Y-125169243D01*
X179523824Y-124765923D01*
X179577862Y-124635785D01*
X179630757Y-124763800D01*
X180034077Y-125167824D01*
X180561309Y-125386750D01*
X181132187Y-125387248D01*
X181659800Y-125169243D01*
X181953000Y-124876554D01*
X181953000Y-124878309D01*
X182049673Y-125111698D01*
X182228301Y-125290327D01*
X182461690Y-125387000D01*
X183102250Y-125387000D01*
X183261000Y-125228250D01*
X183261000Y-124079000D01*
X183241000Y-124079000D01*
X183241000Y-123825000D01*
X183261000Y-123825000D01*
X183261000Y-122675750D01*
X183102250Y-122517000D01*
X182461690Y-122517000D01*
X182228301Y-122613673D01*
X182049673Y-122792302D01*
X181953000Y-123025691D01*
X181953000Y-123027761D01*
X181661923Y-122736176D01*
X181608000Y-122713785D01*
X181608000Y-122556000D01*
X181550148Y-122265161D01*
X181385401Y-122018599D01*
X178145000Y-118778198D01*
X178145000Y-118338907D01*
X178050991Y-117866293D01*
X177783277Y-117465630D01*
X177670000Y-117389941D01*
X177670000Y-114934000D01*
X177612148Y-114643161D01*
X177612148Y-114643160D01*
X177447401Y-114396599D01*
X174781401Y-111730599D01*
X174534839Y-111565852D01*
X174244000Y-111508000D01*
X167954802Y-111508000D01*
X167384000Y-110937198D01*
X167384000Y-107712000D01*
X168024560Y-107712000D01*
X168024560Y-109712000D01*
X168068838Y-109947317D01*
X168207910Y-110163441D01*
X168420110Y-110308431D01*
X168672000Y-110359440D01*
X170672000Y-110359440D01*
X170907317Y-110315162D01*
X171123441Y-110176090D01*
X171268431Y-109963890D01*
X171271042Y-109950998D01*
X171337736Y-110131387D01*
X171947461Y-110357908D01*
X172597460Y-110333856D01*
X173086264Y-110131387D01*
X173184927Y-109864532D01*
X172212000Y-108891605D01*
X172197858Y-108905748D01*
X172018253Y-108726143D01*
X172032395Y-108712000D01*
X172391605Y-108712000D01*
X173364532Y-109684927D01*
X173631387Y-109586264D01*
X173857908Y-108976539D01*
X173833856Y-108326540D01*
X173631387Y-107837736D01*
X173364532Y-107739073D01*
X172391605Y-108712000D01*
X172032395Y-108712000D01*
X172018253Y-108697858D01*
X172197858Y-108518253D01*
X172212000Y-108532395D01*
X173184927Y-107559468D01*
X173086264Y-107292613D01*
X172476539Y-107066092D01*
X171826540Y-107090144D01*
X171337736Y-107292613D01*
X171271681Y-107471273D01*
X171136090Y-107260559D01*
X170923890Y-107115569D01*
X170672000Y-107064560D01*
X168672000Y-107064560D01*
X168436683Y-107108838D01*
X168220559Y-107247910D01*
X168075569Y-107460110D01*
X168024560Y-107712000D01*
X167384000Y-107712000D01*
X167384000Y-104394000D01*
X167326148Y-104103161D01*
X167326148Y-104103160D01*
X167161401Y-103856599D01*
X165860000Y-102555198D01*
X165860000Y-102295667D01*
X166142811Y-102106698D01*
X166453880Y-101641151D01*
X166563113Y-101092000D01*
X166453880Y-100542849D01*
X166142811Y-100077302D01*
X166063039Y-100024000D01*
X171758696Y-100024000D01*
X171504176Y-100278077D01*
X171285250Y-100805309D01*
X171284752Y-101376187D01*
X171502757Y-101903800D01*
X171906077Y-102307824D01*
X172433309Y-102526750D01*
X173004187Y-102527248D01*
X173531800Y-102309243D01*
X173935824Y-101905923D01*
X174154750Y-101378691D01*
X174155248Y-100807813D01*
X173937243Y-100280200D01*
X173681489Y-100024000D01*
X178475151Y-100024000D01*
X178277449Y-100221357D01*
X178043267Y-100785330D01*
X178042735Y-101395991D01*
X178275932Y-101960371D01*
X178443880Y-102128613D01*
X178442683Y-102128838D01*
X178226559Y-102267910D01*
X178081569Y-102480110D01*
X178030560Y-102732000D01*
X178030560Y-104532000D01*
X178074838Y-104767317D01*
X178213910Y-104983441D01*
X178426110Y-105128431D01*
X178678000Y-105179440D01*
X178818000Y-105179440D01*
X178818000Y-108712000D01*
X178875852Y-109002839D01*
X179040599Y-109249401D01*
X184406000Y-114614802D01*
X184406000Y-122554979D01*
X184314310Y-122517000D01*
X183673750Y-122517000D01*
X183515000Y-122675750D01*
X183515000Y-123825000D01*
X183535000Y-123825000D01*
X183535000Y-124079000D01*
X183515000Y-124079000D01*
X183515000Y-125228250D01*
X183673750Y-125387000D01*
X184314310Y-125387000D01*
X184406000Y-125349021D01*
X184406000Y-137922000D01*
X184463852Y-138212839D01*
X184628599Y-138459401D01*
X185026560Y-138857362D01*
X185026560Y-139954000D01*
X185070838Y-140189317D01*
X185209910Y-140405441D01*
X185422110Y-140550431D01*
X185605124Y-140587492D01*
X185252371Y-140939630D01*
X185039243Y-141452900D01*
X185038758Y-142008661D01*
X185250990Y-142522303D01*
X185528203Y-142800000D01*
X154323517Y-142800000D01*
X154599629Y-142524370D01*
X154812757Y-142011100D01*
X154813242Y-141455339D01*
X154601010Y-140941697D01*
X154208370Y-140548371D01*
X154000488Y-140462051D01*
X154206303Y-140377010D01*
X154599629Y-139984370D01*
X154812757Y-139471100D01*
X154813242Y-138915339D01*
X154601010Y-138401697D01*
X154208370Y-138008371D01*
X154000488Y-137922051D01*
X154206303Y-137837010D01*
X154599629Y-137444370D01*
X154812757Y-136931100D01*
X154813242Y-136375339D01*
X154601010Y-135861697D01*
X154208370Y-135468371D01*
X154000488Y-135382051D01*
X154206303Y-135297010D01*
X154599629Y-134904370D01*
X154812757Y-134391100D01*
X154813242Y-133835339D01*
X154601010Y-133321697D01*
X154208370Y-132928371D01*
X154000488Y-132842051D01*
X154206303Y-132757010D01*
X154599629Y-132364370D01*
X154812757Y-131851100D01*
X154813242Y-131295339D01*
X154601010Y-130781697D01*
X154208370Y-130388371D01*
X154000488Y-130302051D01*
X154206303Y-130217010D01*
X154599629Y-129824370D01*
X154812757Y-129311100D01*
X154813242Y-128755339D01*
X154601010Y-128241697D01*
X154208370Y-127848371D01*
X154000488Y-127762051D01*
X154206303Y-127677010D01*
X154599629Y-127284370D01*
X154812757Y-126771100D01*
X154813242Y-126215339D01*
X154601010Y-125701697D01*
X154208370Y-125308371D01*
X154000488Y-125222051D01*
X154206303Y-125137010D01*
X154599629Y-124744370D01*
X154812757Y-124231100D01*
X154813242Y-123675339D01*
X154601010Y-123161697D01*
X154208370Y-122768371D01*
X154000488Y-122682051D01*
X154206303Y-122597010D01*
X154599629Y-122204370D01*
X154812757Y-121691100D01*
X154813242Y-121135339D01*
X154601010Y-120621697D01*
X154208370Y-120228371D01*
X154000488Y-120142051D01*
X154206303Y-120057010D01*
X154599629Y-119664370D01*
X154812757Y-119151100D01*
X154813242Y-118595339D01*
X154601010Y-118081697D01*
X154208370Y-117688371D01*
X154000488Y-117602051D01*
X154206303Y-117517010D01*
X154599629Y-117124370D01*
X154812757Y-116611100D01*
X154813242Y-116055339D01*
X154601010Y-115541697D01*
X154208370Y-115148371D01*
X154000488Y-115062051D01*
X154206303Y-114977010D01*
X154599629Y-114584370D01*
X154812757Y-114071100D01*
X154813242Y-113515339D01*
X154601010Y-113001697D01*
X154208370Y-112608371D01*
X154000488Y-112522051D01*
X154206303Y-112437010D01*
X154599629Y-112044370D01*
X154812757Y-111531100D01*
X154813242Y-110975339D01*
X154601010Y-110461697D01*
X154208370Y-110068371D01*
X154000488Y-109982051D01*
X154206303Y-109897010D01*
X154599629Y-109504370D01*
X154812757Y-108991100D01*
X154813242Y-108435339D01*
X154601010Y-107921697D01*
X154208370Y-107528371D01*
X154000488Y-107442051D01*
X154206303Y-107357010D01*
X154599629Y-106964370D01*
X154809995Y-106457750D01*
X155233000Y-106457750D01*
X155233000Y-107148309D01*
X155329673Y-107381698D01*
X155508301Y-107560327D01*
X155741690Y-107657000D01*
X156432250Y-107657000D01*
X156591000Y-107498250D01*
X156591000Y-106299000D01*
X155391750Y-106299000D01*
X155233000Y-106457750D01*
X154809995Y-106457750D01*
X154812757Y-106451100D01*
X154813242Y-105895339D01*
X154601010Y-105381697D01*
X154415329Y-105195691D01*
X155233000Y-105195691D01*
X155233000Y-105886250D01*
X155391750Y-106045000D01*
X156591000Y-106045000D01*
X156591000Y-104845750D01*
X156845000Y-104845750D01*
X156845000Y-106045000D01*
X156865000Y-106045000D01*
X156865000Y-106299000D01*
X156845000Y-106299000D01*
X156845000Y-107498250D01*
X157003750Y-107657000D01*
X157694310Y-107657000D01*
X157927699Y-107560327D01*
X158106327Y-107381698D01*
X158178597Y-107207223D01*
X158207946Y-107251147D01*
X158689715Y-107573054D01*
X159258000Y-107686093D01*
X159826285Y-107573054D01*
X160308054Y-107251147D01*
X160528000Y-106921974D01*
X160747946Y-107251147D01*
X161229715Y-107573054D01*
X161798000Y-107686093D01*
X162366285Y-107573054D01*
X162848054Y-107251147D01*
X163068000Y-106921974D01*
X163287946Y-107251147D01*
X163769715Y-107573054D01*
X164338000Y-107686093D01*
X164906285Y-107573054D01*
X165388054Y-107251147D01*
X165709961Y-106769378D01*
X165823000Y-106201093D01*
X165823000Y-106142907D01*
X165709961Y-105574622D01*
X165388054Y-105092853D01*
X164906285Y-104770946D01*
X164338000Y-104657907D01*
X163769715Y-104770946D01*
X163287946Y-105092853D01*
X163068000Y-105422026D01*
X162848054Y-105092853D01*
X162366285Y-104770946D01*
X161798000Y-104657907D01*
X161229715Y-104770946D01*
X160747946Y-105092853D01*
X160528000Y-105422026D01*
X160308054Y-105092853D01*
X159826285Y-104770946D01*
X159258000Y-104657907D01*
X158689715Y-104770946D01*
X158207946Y-105092853D01*
X158178597Y-105136777D01*
X158106327Y-104962302D01*
X157927699Y-104783673D01*
X157694310Y-104687000D01*
X157003750Y-104687000D01*
X156845000Y-104845750D01*
X156591000Y-104845750D01*
X156432250Y-104687000D01*
X155741690Y-104687000D01*
X155508301Y-104783673D01*
X155329673Y-104962302D01*
X155233000Y-105195691D01*
X154415329Y-105195691D01*
X154208370Y-104988371D01*
X154000488Y-104902051D01*
X154206303Y-104817010D01*
X154599629Y-104424370D01*
X154812757Y-103911100D01*
X154813242Y-103355339D01*
X154601010Y-102841697D01*
X154208370Y-102448371D01*
X154000488Y-102362051D01*
X154206303Y-102277010D01*
X154599629Y-101884370D01*
X154812757Y-101371100D01*
X154813242Y-100815339D01*
X154601010Y-100301697D01*
X154323797Y-100024000D01*
X155406498Y-100024000D01*
X155092039Y-100494622D01*
X155092039Y-100494622D01*
G37*
X155092039Y-100494622D02*
X154979000Y-101062907D01*
X154979000Y-101121093D01*
X155092039Y-101689378D01*
X155413946Y-102171147D01*
X155895715Y-102493054D01*
X156464000Y-102606093D01*
X157032285Y-102493054D01*
X157514054Y-102171147D01*
X157543403Y-102127223D01*
X157615673Y-102301698D01*
X157794301Y-102480327D01*
X158027690Y-102577000D01*
X158718250Y-102577000D01*
X158877000Y-102418250D01*
X158877000Y-101219000D01*
X159131000Y-101219000D01*
X159131000Y-102418250D01*
X159289750Y-102577000D01*
X159980310Y-102577000D01*
X160213699Y-102480327D01*
X160392327Y-102301698D01*
X160489000Y-102068309D01*
X160489000Y-101377750D01*
X160330250Y-101219000D01*
X159131000Y-101219000D01*
X158877000Y-101219000D01*
X158857000Y-101219000D01*
X158857000Y-100965000D01*
X158877000Y-100965000D01*
X158877000Y-100945000D01*
X159131000Y-100945000D01*
X159131000Y-100965000D01*
X160330250Y-100965000D01*
X160489000Y-100806250D01*
X160489000Y-100115691D01*
X160451020Y-100024000D01*
X164136961Y-100024000D01*
X164057189Y-100077302D01*
X163746120Y-100542849D01*
X163636887Y-101092000D01*
X163746120Y-101641151D01*
X164057189Y-102106698D01*
X164340000Y-102295667D01*
X164340000Y-102870000D01*
X164397852Y-103160839D01*
X164562599Y-103407401D01*
X165864000Y-104708802D01*
X165864000Y-111252000D01*
X165921852Y-111542839D01*
X166086599Y-111789401D01*
X167102599Y-112805401D01*
X167349161Y-112970148D01*
X167640000Y-113028000D01*
X173929198Y-113028000D01*
X176150000Y-115248802D01*
X176150000Y-117389941D01*
X176036723Y-117465630D01*
X175907590Y-117658891D01*
X175739125Y-117436067D01*
X175319376Y-117189714D01*
X175227609Y-117174538D01*
X175037000Y-117299269D01*
X175037000Y-118491000D01*
X175057000Y-118491000D01*
X175057000Y-118745000D01*
X175037000Y-118745000D01*
X175037000Y-119936731D01*
X175227609Y-120061462D01*
X175319376Y-120046286D01*
X175739125Y-119799933D01*
X175907590Y-119577109D01*
X176036723Y-119770370D01*
X176437386Y-120038084D01*
X176910000Y-120132093D01*
X177276408Y-120059210D01*
X179994041Y-122776843D01*
X179632176Y-123138077D01*
X179578138Y-123268215D01*
X179525243Y-123140200D01*
X179121923Y-122736176D01*
X178594691Y-122517250D01*
X178023813Y-122516752D01*
X177496200Y-122734757D01*
X177092176Y-123138077D01*
X177038138Y-123268215D01*
X176985243Y-123140200D01*
X176581923Y-122736176D01*
X176054691Y-122517250D01*
X175483813Y-122516752D01*
X174956200Y-122734757D01*
X174552176Y-123138077D01*
X174498138Y-123268215D01*
X174445243Y-123140200D01*
X174041923Y-122736176D01*
X173988000Y-122713785D01*
X173988000Y-119677090D01*
X174080875Y-119799933D01*
X174500624Y-120046286D01*
X174592391Y-120061462D01*
X174783000Y-119936731D01*
X174783000Y-118745000D01*
X174763000Y-118745000D01*
X174763000Y-118491000D01*
X174783000Y-118491000D01*
X174783000Y-117299269D01*
X174592391Y-117174538D01*
X174500624Y-117189714D01*
X174080875Y-117436067D01*
X173912410Y-117658891D01*
X173783277Y-117465630D01*
X173382614Y-117197916D01*
X172910000Y-117103907D01*
X172437386Y-117197916D01*
X172036723Y-117465630D01*
X171910000Y-117655285D01*
X171783277Y-117465630D01*
X171382614Y-117197916D01*
X170910000Y-117103907D01*
X170437386Y-117197916D01*
X170060004Y-117450074D01*
X169974090Y-117316559D01*
X169761890Y-117171569D01*
X169510000Y-117120560D01*
X168310000Y-117120560D01*
X168074683Y-117164838D01*
X167858559Y-117303910D01*
X167713569Y-117516110D01*
X167662560Y-117768000D01*
X167662560Y-119468000D01*
X167706838Y-119703317D01*
X167845910Y-119919441D01*
X168058110Y-120064431D01*
X168310000Y-120115440D01*
X169332638Y-120115440D01*
X169928000Y-120710802D01*
X169928000Y-122713354D01*
X169876200Y-122734757D01*
X169472176Y-123138077D01*
X169418138Y-123268215D01*
X169365243Y-123140200D01*
X168961923Y-122736176D01*
X168434691Y-122517250D01*
X167863813Y-122516752D01*
X167336200Y-122734757D01*
X166932176Y-123138077D01*
X166713250Y-123665309D01*
X166712752Y-124236187D01*
X166930757Y-124763800D01*
X167334077Y-125167824D01*
X167861309Y-125386750D01*
X168432187Y-125387248D01*
X168959800Y-125169243D01*
X169363824Y-124765923D01*
X169417862Y-124635785D01*
X169470757Y-124763800D01*
X169874077Y-125167824D01*
X170401309Y-125386750D01*
X170972187Y-125387248D01*
X171499800Y-125169243D01*
X171903824Y-124765923D01*
X171957862Y-124635785D01*
X172010757Y-124763800D01*
X172414077Y-125167824D01*
X172941309Y-125386750D01*
X173512187Y-125387248D01*
X174039800Y-125169243D01*
X174443824Y-124765923D01*
X174497862Y-124635785D01*
X174550757Y-124763800D01*
X174954077Y-125167824D01*
X175481309Y-125386750D01*
X176052187Y-125387248D01*
X176579800Y-125169243D01*
X176983824Y-124765923D01*
X177037862Y-124635785D01*
X177090757Y-124763800D01*
X177494077Y-125167824D01*
X178021309Y-125386750D01*
X178592187Y-125387248D01*
X179119800Y-125169243D01*
X179523824Y-124765923D01*
X179577862Y-124635785D01*
X179630757Y-124763800D01*
X180034077Y-125167824D01*
X180561309Y-125386750D01*
X181132187Y-125387248D01*
X181659800Y-125169243D01*
X181953000Y-124876554D01*
X181953000Y-124878309D01*
X182049673Y-125111698D01*
X182228301Y-125290327D01*
X182461690Y-125387000D01*
X183102250Y-125387000D01*
X183261000Y-125228250D01*
X183261000Y-124079000D01*
X183241000Y-124079000D01*
X183241000Y-123825000D01*
X183261000Y-123825000D01*
X183261000Y-122675750D01*
X183102250Y-122517000D01*
X182461690Y-122517000D01*
X182228301Y-122613673D01*
X182049673Y-122792302D01*
X181953000Y-123025691D01*
X181953000Y-123027761D01*
X181661923Y-122736176D01*
X181608000Y-122713785D01*
X181608000Y-122556000D01*
X181550148Y-122265161D01*
X181385401Y-122018599D01*
X178145000Y-118778198D01*
X178145000Y-118338907D01*
X178050991Y-117866293D01*
X177783277Y-117465630D01*
X177670000Y-117389941D01*
X177670000Y-114934000D01*
X177612148Y-114643161D01*
X177612148Y-114643160D01*
X177447401Y-114396599D01*
X174781401Y-111730599D01*
X174534839Y-111565852D01*
X174244000Y-111508000D01*
X167954802Y-111508000D01*
X167384000Y-110937198D01*
X167384000Y-107712000D01*
X168024560Y-107712000D01*
X168024560Y-109712000D01*
X168068838Y-109947317D01*
X168207910Y-110163441D01*
X168420110Y-110308431D01*
X168672000Y-110359440D01*
X170672000Y-110359440D01*
X170907317Y-110315162D01*
X171123441Y-110176090D01*
X171268431Y-109963890D01*
X171271042Y-109950998D01*
X171337736Y-110131387D01*
X171947461Y-110357908D01*
X172597460Y-110333856D01*
X173086264Y-110131387D01*
X173184927Y-109864532D01*
X172212000Y-108891605D01*
X172197858Y-108905748D01*
X172018253Y-108726143D01*
X172032395Y-108712000D01*
X172391605Y-108712000D01*
X173364532Y-109684927D01*
X173631387Y-109586264D01*
X173857908Y-108976539D01*
X173833856Y-108326540D01*
X173631387Y-107837736D01*
X173364532Y-107739073D01*
X172391605Y-108712000D01*
X172032395Y-108712000D01*
X172018253Y-108697858D01*
X172197858Y-108518253D01*
X172212000Y-108532395D01*
X173184927Y-107559468D01*
X173086264Y-107292613D01*
X172476539Y-107066092D01*
X171826540Y-107090144D01*
X171337736Y-107292613D01*
X171271681Y-107471273D01*
X171136090Y-107260559D01*
X170923890Y-107115569D01*
X170672000Y-107064560D01*
X168672000Y-107064560D01*
X168436683Y-107108838D01*
X168220559Y-107247910D01*
X168075569Y-107460110D01*
X168024560Y-107712000D01*
X167384000Y-107712000D01*
X167384000Y-104394000D01*
X167326148Y-104103161D01*
X167326148Y-104103160D01*
X167161401Y-103856599D01*
X165860000Y-102555198D01*
X165860000Y-102295667D01*
X166142811Y-102106698D01*
X166453880Y-101641151D01*
X166563113Y-101092000D01*
X166453880Y-100542849D01*
X166142811Y-100077302D01*
X166063039Y-100024000D01*
X171758696Y-100024000D01*
X171504176Y-100278077D01*
X171285250Y-100805309D01*
X171284752Y-101376187D01*
X171502757Y-101903800D01*
X171906077Y-102307824D01*
X172433309Y-102526750D01*
X173004187Y-102527248D01*
X173531800Y-102309243D01*
X173935824Y-101905923D01*
X174154750Y-101378691D01*
X174155248Y-100807813D01*
X173937243Y-100280200D01*
X173681489Y-100024000D01*
X178475151Y-100024000D01*
X178277449Y-100221357D01*
X178043267Y-100785330D01*
X178042735Y-101395991D01*
X178275932Y-101960371D01*
X178443880Y-102128613D01*
X178442683Y-102128838D01*
X178226559Y-102267910D01*
X178081569Y-102480110D01*
X178030560Y-102732000D01*
X178030560Y-104532000D01*
X178074838Y-104767317D01*
X178213910Y-104983441D01*
X178426110Y-105128431D01*
X178678000Y-105179440D01*
X178818000Y-105179440D01*
X178818000Y-108712000D01*
X178875852Y-109002839D01*
X179040599Y-109249401D01*
X184406000Y-114614802D01*
X184406000Y-122554979D01*
X184314310Y-122517000D01*
X183673750Y-122517000D01*
X183515000Y-122675750D01*
X183515000Y-123825000D01*
X183535000Y-123825000D01*
X183535000Y-124079000D01*
X183515000Y-124079000D01*
X183515000Y-125228250D01*
X183673750Y-125387000D01*
X184314310Y-125387000D01*
X184406000Y-125349021D01*
X184406000Y-137922000D01*
X184463852Y-138212839D01*
X184628599Y-138459401D01*
X185026560Y-138857362D01*
X185026560Y-139954000D01*
X185070838Y-140189317D01*
X185209910Y-140405441D01*
X185422110Y-140550431D01*
X185605124Y-140587492D01*
X185252371Y-140939630D01*
X185039243Y-141452900D01*
X185038758Y-142008661D01*
X185250990Y-142522303D01*
X185528203Y-142800000D01*
X154323517Y-142800000D01*
X154599629Y-142524370D01*
X154812757Y-142011100D01*
X154813242Y-141455339D01*
X154601010Y-140941697D01*
X154208370Y-140548371D01*
X154000488Y-140462051D01*
X154206303Y-140377010D01*
X154599629Y-139984370D01*
X154812757Y-139471100D01*
X154813242Y-138915339D01*
X154601010Y-138401697D01*
X154208370Y-138008371D01*
X154000488Y-137922051D01*
X154206303Y-137837010D01*
X154599629Y-137444370D01*
X154812757Y-136931100D01*
X154813242Y-136375339D01*
X154601010Y-135861697D01*
X154208370Y-135468371D01*
X154000488Y-135382051D01*
X154206303Y-135297010D01*
X154599629Y-134904370D01*
X154812757Y-134391100D01*
X154813242Y-133835339D01*
X154601010Y-133321697D01*
X154208370Y-132928371D01*
X154000488Y-132842051D01*
X154206303Y-132757010D01*
X154599629Y-132364370D01*
X154812757Y-131851100D01*
X154813242Y-131295339D01*
X154601010Y-130781697D01*
X154208370Y-130388371D01*
X154000488Y-130302051D01*
X154206303Y-130217010D01*
X154599629Y-129824370D01*
X154812757Y-129311100D01*
X154813242Y-128755339D01*
X154601010Y-128241697D01*
X154208370Y-127848371D01*
X154000488Y-127762051D01*
X154206303Y-127677010D01*
X154599629Y-127284370D01*
X154812757Y-126771100D01*
X154813242Y-126215339D01*
X154601010Y-125701697D01*
X154208370Y-125308371D01*
X154000488Y-125222051D01*
X154206303Y-125137010D01*
X154599629Y-124744370D01*
X154812757Y-124231100D01*
X154813242Y-123675339D01*
X154601010Y-123161697D01*
X154208370Y-122768371D01*
X154000488Y-122682051D01*
X154206303Y-122597010D01*
X154599629Y-122204370D01*
X154812757Y-121691100D01*
X154813242Y-121135339D01*
X154601010Y-120621697D01*
X154208370Y-120228371D01*
X154000488Y-120142051D01*
X154206303Y-120057010D01*
X154599629Y-119664370D01*
X154812757Y-119151100D01*
X154813242Y-118595339D01*
X154601010Y-118081697D01*
X154208370Y-117688371D01*
X154000488Y-117602051D01*
X154206303Y-117517010D01*
X154599629Y-117124370D01*
X154812757Y-116611100D01*
X154813242Y-116055339D01*
X154601010Y-115541697D01*
X154208370Y-115148371D01*
X154000488Y-115062051D01*
X154206303Y-114977010D01*
X154599629Y-114584370D01*
X154812757Y-114071100D01*
X154813242Y-113515339D01*
X154601010Y-113001697D01*
X154208370Y-112608371D01*
X154000488Y-112522051D01*
X154206303Y-112437010D01*
X154599629Y-112044370D01*
X154812757Y-111531100D01*
X154813242Y-110975339D01*
X154601010Y-110461697D01*
X154208370Y-110068371D01*
X154000488Y-109982051D01*
X154206303Y-109897010D01*
X154599629Y-109504370D01*
X154812757Y-108991100D01*
X154813242Y-108435339D01*
X154601010Y-107921697D01*
X154208370Y-107528371D01*
X154000488Y-107442051D01*
X154206303Y-107357010D01*
X154599629Y-106964370D01*
X154809995Y-106457750D01*
X155233000Y-106457750D01*
X155233000Y-107148309D01*
X155329673Y-107381698D01*
X155508301Y-107560327D01*
X155741690Y-107657000D01*
X156432250Y-107657000D01*
X156591000Y-107498250D01*
X156591000Y-106299000D01*
X155391750Y-106299000D01*
X155233000Y-106457750D01*
X154809995Y-106457750D01*
X154812757Y-106451100D01*
X154813242Y-105895339D01*
X154601010Y-105381697D01*
X154415329Y-105195691D01*
X155233000Y-105195691D01*
X155233000Y-105886250D01*
X155391750Y-106045000D01*
X156591000Y-106045000D01*
X156591000Y-104845750D01*
X156845000Y-104845750D01*
X156845000Y-106045000D01*
X156865000Y-106045000D01*
X156865000Y-106299000D01*
X156845000Y-106299000D01*
X156845000Y-107498250D01*
X157003750Y-107657000D01*
X157694310Y-107657000D01*
X157927699Y-107560327D01*
X158106327Y-107381698D01*
X158178597Y-107207223D01*
X158207946Y-107251147D01*
X158689715Y-107573054D01*
X159258000Y-107686093D01*
X159826285Y-107573054D01*
X160308054Y-107251147D01*
X160528000Y-106921974D01*
X160747946Y-107251147D01*
X161229715Y-107573054D01*
X161798000Y-107686093D01*
X162366285Y-107573054D01*
X162848054Y-107251147D01*
X163068000Y-106921974D01*
X163287946Y-107251147D01*
X163769715Y-107573054D01*
X164338000Y-107686093D01*
X164906285Y-107573054D01*
X165388054Y-107251147D01*
X165709961Y-106769378D01*
X165823000Y-106201093D01*
X165823000Y-106142907D01*
X165709961Y-105574622D01*
X165388054Y-105092853D01*
X164906285Y-104770946D01*
X164338000Y-104657907D01*
X163769715Y-104770946D01*
X163287946Y-105092853D01*
X163068000Y-105422026D01*
X162848054Y-105092853D01*
X162366285Y-104770946D01*
X161798000Y-104657907D01*
X161229715Y-104770946D01*
X160747946Y-105092853D01*
X160528000Y-105422026D01*
X160308054Y-105092853D01*
X159826285Y-104770946D01*
X159258000Y-104657907D01*
X158689715Y-104770946D01*
X158207946Y-105092853D01*
X158178597Y-105136777D01*
X158106327Y-104962302D01*
X157927699Y-104783673D01*
X157694310Y-104687000D01*
X157003750Y-104687000D01*
X156845000Y-104845750D01*
X156591000Y-104845750D01*
X156432250Y-104687000D01*
X155741690Y-104687000D01*
X155508301Y-104783673D01*
X155329673Y-104962302D01*
X155233000Y-105195691D01*
X154415329Y-105195691D01*
X154208370Y-104988371D01*
X154000488Y-104902051D01*
X154206303Y-104817010D01*
X154599629Y-104424370D01*
X154812757Y-103911100D01*
X154813242Y-103355339D01*
X154601010Y-102841697D01*
X154208370Y-102448371D01*
X154000488Y-102362051D01*
X154206303Y-102277010D01*
X154599629Y-101884370D01*
X154812757Y-101371100D01*
X154813242Y-100815339D01*
X154601010Y-100301697D01*
X154323797Y-100024000D01*
X155406498Y-100024000D01*
X155092039Y-100494622D01*
G36*
X151003000Y-100965000D02*
X151023000Y-100965000D01*
X151023000Y-101219000D01*
X151003000Y-101219000D01*
X151003000Y-101239000D01*
X150749000Y-101239000D01*
X150749000Y-101219000D01*
X150729000Y-101219000D01*
X150729000Y-100965000D01*
X150749000Y-100965000D01*
X150749000Y-100945000D01*
X151003000Y-100945000D01*
X151003000Y-100965000D01*
X151003000Y-100965000D01*
G37*
X151003000Y-100965000D02*
X151023000Y-100965000D01*
X151023000Y-101219000D01*
X151003000Y-101219000D01*
X151003000Y-101239000D01*
X150749000Y-101239000D01*
X150749000Y-101219000D01*
X150729000Y-101219000D01*
X150729000Y-100965000D01*
X150749000Y-100965000D01*
X150749000Y-100945000D01*
X151003000Y-100945000D01*
X151003000Y-100965000D01*
G36*
X112928039Y-56298622D02*
X112815000Y-56866907D01*
X112815000Y-56925093D01*
X112928039Y-57493378D01*
X113249946Y-57975147D01*
X113731715Y-58297054D01*
X114300000Y-58410093D01*
X114868285Y-58297054D01*
X115350054Y-57975147D01*
X115379403Y-57931223D01*
X115451673Y-58105698D01*
X115630301Y-58284327D01*
X115863690Y-58381000D01*
X116554250Y-58381000D01*
X116713000Y-58222250D01*
X116713000Y-57023000D01*
X116967000Y-57023000D01*
X116967000Y-58222250D01*
X117125750Y-58381000D01*
X117816310Y-58381000D01*
X118049699Y-58284327D01*
X118228327Y-58105698D01*
X118325000Y-57872309D01*
X118325000Y-57181750D01*
X118166250Y-57023000D01*
X116967000Y-57023000D01*
X116713000Y-57023000D01*
X116693000Y-57023000D01*
X116693000Y-56769000D01*
X116713000Y-56769000D01*
X116713000Y-56749000D01*
X116967000Y-56749000D01*
X116967000Y-56769000D01*
X118166250Y-56769000D01*
X118325000Y-56610250D01*
X118325000Y-55919691D01*
X118287020Y-55828000D01*
X121972961Y-55828000D01*
X121893189Y-55881302D01*
X121582120Y-56346849D01*
X121472887Y-56896000D01*
X121582120Y-57445151D01*
X121893189Y-57910698D01*
X122176000Y-58099667D01*
X122176000Y-58674000D01*
X122233852Y-58964839D01*
X122398599Y-59211401D01*
X123700000Y-60512802D01*
X123700000Y-67056000D01*
X123757852Y-67346839D01*
X123922599Y-67593401D01*
X124938599Y-68609401D01*
X125185161Y-68774148D01*
X125476000Y-68832000D01*
X131765198Y-68832000D01*
X133986000Y-71052802D01*
X133986000Y-73193941D01*
X133872723Y-73269630D01*
X133743590Y-73462891D01*
X133575125Y-73240067D01*
X133155376Y-72993714D01*
X133063609Y-72978538D01*
X132873000Y-73103269D01*
X132873000Y-74295000D01*
X132893000Y-74295000D01*
X132893000Y-74549000D01*
X132873000Y-74549000D01*
X132873000Y-75740731D01*
X133063609Y-75865462D01*
X133155376Y-75850286D01*
X133575125Y-75603933D01*
X133743590Y-75381109D01*
X133872723Y-75574370D01*
X134273386Y-75842084D01*
X134746000Y-75936093D01*
X135112408Y-75863210D01*
X137830041Y-78580843D01*
X137468176Y-78942077D01*
X137414138Y-79072215D01*
X137361243Y-78944200D01*
X136957923Y-78540176D01*
X136430691Y-78321250D01*
X135859813Y-78320752D01*
X135332200Y-78538757D01*
X134928176Y-78942077D01*
X134874138Y-79072215D01*
X134821243Y-78944200D01*
X134417923Y-78540176D01*
X133890691Y-78321250D01*
X133319813Y-78320752D01*
X132792200Y-78538757D01*
X132388176Y-78942077D01*
X132334138Y-79072215D01*
X132281243Y-78944200D01*
X131877923Y-78540176D01*
X131824000Y-78517785D01*
X131824000Y-75481090D01*
X131916875Y-75603933D01*
X132336624Y-75850286D01*
X132428391Y-75865462D01*
X132619000Y-75740731D01*
X132619000Y-74549000D01*
X132599000Y-74549000D01*
X132599000Y-74295000D01*
X132619000Y-74295000D01*
X132619000Y-73103269D01*
X132428391Y-72978538D01*
X132336624Y-72993714D01*
X131916875Y-73240067D01*
X131748410Y-73462891D01*
X131619277Y-73269630D01*
X131218614Y-73001916D01*
X130746000Y-72907907D01*
X130273386Y-73001916D01*
X129872723Y-73269630D01*
X129746000Y-73459285D01*
X129619277Y-73269630D01*
X129218614Y-73001916D01*
X128746000Y-72907907D01*
X128273386Y-73001916D01*
X127896004Y-73254074D01*
X127810090Y-73120559D01*
X127597890Y-72975569D01*
X127346000Y-72924560D01*
X126146000Y-72924560D01*
X125910683Y-72968838D01*
X125694559Y-73107910D01*
X125549569Y-73320110D01*
X125498560Y-73572000D01*
X125498560Y-75272000D01*
X125542838Y-75507317D01*
X125681910Y-75723441D01*
X125894110Y-75868431D01*
X126146000Y-75919440D01*
X127168638Y-75919440D01*
X127764000Y-76514802D01*
X127764000Y-78517354D01*
X127712200Y-78538757D01*
X127308176Y-78942077D01*
X127254138Y-79072215D01*
X127201243Y-78944200D01*
X126797923Y-78540176D01*
X126270691Y-78321250D01*
X125699813Y-78320752D01*
X125172200Y-78538757D01*
X124768176Y-78942077D01*
X124549250Y-79469309D01*
X124548752Y-80040187D01*
X124766757Y-80567800D01*
X125170077Y-80971824D01*
X125697309Y-81190750D01*
X126268187Y-81191248D01*
X126795800Y-80973243D01*
X127199824Y-80569923D01*
X127253862Y-80439785D01*
X127306757Y-80567800D01*
X127710077Y-80971824D01*
X128237309Y-81190750D01*
X128808187Y-81191248D01*
X129335800Y-80973243D01*
X129739824Y-80569923D01*
X129793862Y-80439785D01*
X129846757Y-80567800D01*
X130250077Y-80971824D01*
X130777309Y-81190750D01*
X131348187Y-81191248D01*
X131875800Y-80973243D01*
X132279824Y-80569923D01*
X132333862Y-80439785D01*
X132386757Y-80567800D01*
X132790077Y-80971824D01*
X133317309Y-81190750D01*
X133888187Y-81191248D01*
X134415800Y-80973243D01*
X134819824Y-80569923D01*
X134873862Y-80439785D01*
X134926757Y-80567800D01*
X135330077Y-80971824D01*
X135857309Y-81190750D01*
X136428187Y-81191248D01*
X136955800Y-80973243D01*
X137359824Y-80569923D01*
X137413862Y-80439785D01*
X137466757Y-80567800D01*
X137870077Y-80971824D01*
X138397309Y-81190750D01*
X138968187Y-81191248D01*
X139495800Y-80973243D01*
X139789000Y-80680554D01*
X139789000Y-80682309D01*
X139885673Y-80915698D01*
X140064301Y-81094327D01*
X140297690Y-81191000D01*
X140938250Y-81191000D01*
X141097000Y-81032250D01*
X141097000Y-79883000D01*
X141077000Y-79883000D01*
X141077000Y-79629000D01*
X141097000Y-79629000D01*
X141097000Y-78479750D01*
X140938250Y-78321000D01*
X140297690Y-78321000D01*
X140064301Y-78417673D01*
X139885673Y-78596302D01*
X139789000Y-78829691D01*
X139789000Y-78831761D01*
X139497923Y-78540176D01*
X139444000Y-78517785D01*
X139444000Y-78360000D01*
X139386148Y-78069161D01*
X139221401Y-77822599D01*
X135981000Y-74582198D01*
X135981000Y-74142907D01*
X135886991Y-73670293D01*
X135619277Y-73269630D01*
X135506000Y-73193941D01*
X135506000Y-70738000D01*
X135448148Y-70447161D01*
X135448148Y-70447160D01*
X135283401Y-70200599D01*
X132617401Y-67534599D01*
X132370839Y-67369852D01*
X132080000Y-67312000D01*
X125790802Y-67312000D01*
X125220000Y-66741198D01*
X125220000Y-63516000D01*
X125860560Y-63516000D01*
X125860560Y-65516000D01*
X125904838Y-65751317D01*
X126043910Y-65967441D01*
X126256110Y-66112431D01*
X126508000Y-66163440D01*
X128508000Y-66163440D01*
X128743317Y-66119162D01*
X128959441Y-65980090D01*
X129104431Y-65767890D01*
X129107042Y-65754998D01*
X129173736Y-65935387D01*
X129783461Y-66161908D01*
X130433460Y-66137856D01*
X130922264Y-65935387D01*
X131020927Y-65668532D01*
X130048000Y-64695605D01*
X130033858Y-64709748D01*
X129854253Y-64530143D01*
X129868395Y-64516000D01*
X130227605Y-64516000D01*
X131200532Y-65488927D01*
X131467387Y-65390264D01*
X131693908Y-64780539D01*
X131669856Y-64130540D01*
X131467387Y-63641736D01*
X131200532Y-63543073D01*
X130227605Y-64516000D01*
X129868395Y-64516000D01*
X129854253Y-64501858D01*
X130033858Y-64322253D01*
X130048000Y-64336395D01*
X131020927Y-63363468D01*
X130922264Y-63096613D01*
X130312539Y-62870092D01*
X129662540Y-62894144D01*
X129173736Y-63096613D01*
X129107681Y-63275273D01*
X128972090Y-63064559D01*
X128759890Y-62919569D01*
X128508000Y-62868560D01*
X126508000Y-62868560D01*
X126272683Y-62912838D01*
X126056559Y-63051910D01*
X125911569Y-63264110D01*
X125860560Y-63516000D01*
X125220000Y-63516000D01*
X125220000Y-60198000D01*
X125162148Y-59907161D01*
X125162148Y-59907160D01*
X124997401Y-59660599D01*
X123696000Y-58359198D01*
X123696000Y-58099667D01*
X123978811Y-57910698D01*
X124289880Y-57445151D01*
X124399113Y-56896000D01*
X124289880Y-56346849D01*
X123978811Y-55881302D01*
X123899039Y-55828000D01*
X129594696Y-55828000D01*
X129340176Y-56082077D01*
X129121250Y-56609309D01*
X129120752Y-57180187D01*
X129338757Y-57707800D01*
X129742077Y-58111824D01*
X130269309Y-58330750D01*
X130840187Y-58331248D01*
X131367800Y-58113243D01*
X131771824Y-57709923D01*
X131990750Y-57182691D01*
X131991248Y-56611813D01*
X131773243Y-56084200D01*
X131517489Y-55828000D01*
X136311151Y-55828000D01*
X136113449Y-56025357D01*
X135879267Y-56589330D01*
X135878735Y-57199991D01*
X136111932Y-57764371D01*
X136279880Y-57932613D01*
X136278683Y-57932838D01*
X136062559Y-58071910D01*
X135917569Y-58284110D01*
X135866560Y-58536000D01*
X135866560Y-60336000D01*
X135910838Y-60571317D01*
X136049910Y-60787441D01*
X136262110Y-60932431D01*
X136514000Y-60983440D01*
X136654000Y-60983440D01*
X136654000Y-64516000D01*
X136711852Y-64806839D01*
X136876599Y-65053401D01*
X142242000Y-70418802D01*
X142242000Y-78358979D01*
X142150310Y-78321000D01*
X141509750Y-78321000D01*
X141351000Y-78479750D01*
X141351000Y-79629000D01*
X141371000Y-79629000D01*
X141371000Y-79883000D01*
X141351000Y-79883000D01*
X141351000Y-81032250D01*
X141509750Y-81191000D01*
X142150310Y-81191000D01*
X142242000Y-81153021D01*
X142242000Y-93726000D01*
X142299852Y-94016839D01*
X142464599Y-94263401D01*
X142862560Y-94661362D01*
X142862560Y-95758000D01*
X142906838Y-95993317D01*
X143045910Y-96209441D01*
X143258110Y-96354431D01*
X143441124Y-96391492D01*
X143088371Y-96743630D01*
X142875243Y-97256900D01*
X142874758Y-97812661D01*
X143086990Y-98326303D01*
X143364203Y-98604000D01*
X112159517Y-98604000D01*
X112435629Y-98328370D01*
X112648757Y-97815100D01*
X112649242Y-97259339D01*
X112437010Y-96745697D01*
X112044370Y-96352371D01*
X111836488Y-96266051D01*
X112042303Y-96181010D01*
X112435629Y-95788370D01*
X112648757Y-95275100D01*
X112649242Y-94719339D01*
X112437010Y-94205697D01*
X112044370Y-93812371D01*
X111836488Y-93726051D01*
X112042303Y-93641010D01*
X112435629Y-93248370D01*
X112648757Y-92735100D01*
X112649242Y-92179339D01*
X112437010Y-91665697D01*
X112044370Y-91272371D01*
X111836488Y-91186051D01*
X112042303Y-91101010D01*
X112435629Y-90708370D01*
X112648757Y-90195100D01*
X112649242Y-89639339D01*
X112437010Y-89125697D01*
X112044370Y-88732371D01*
X111836488Y-88646051D01*
X112042303Y-88561010D01*
X112435629Y-88168370D01*
X112648757Y-87655100D01*
X112649242Y-87099339D01*
X112437010Y-86585697D01*
X112044370Y-86192371D01*
X111836488Y-86106051D01*
X112042303Y-86021010D01*
X112435629Y-85628370D01*
X112648757Y-85115100D01*
X112649242Y-84559339D01*
X112437010Y-84045697D01*
X112044370Y-83652371D01*
X111836488Y-83566051D01*
X112042303Y-83481010D01*
X112435629Y-83088370D01*
X112648757Y-82575100D01*
X112649242Y-82019339D01*
X112437010Y-81505697D01*
X112044370Y-81112371D01*
X111836488Y-81026051D01*
X112042303Y-80941010D01*
X112435629Y-80548370D01*
X112648757Y-80035100D01*
X112649242Y-79479339D01*
X112437010Y-78965697D01*
X112044370Y-78572371D01*
X111836488Y-78486051D01*
X112042303Y-78401010D01*
X112435629Y-78008370D01*
X112648757Y-77495100D01*
X112649242Y-76939339D01*
X112437010Y-76425697D01*
X112044370Y-76032371D01*
X111836488Y-75946051D01*
X112042303Y-75861010D01*
X112435629Y-75468370D01*
X112648757Y-74955100D01*
X112649242Y-74399339D01*
X112437010Y-73885697D01*
X112044370Y-73492371D01*
X111836488Y-73406051D01*
X112042303Y-73321010D01*
X112435629Y-72928370D01*
X112648757Y-72415100D01*
X112649242Y-71859339D01*
X112437010Y-71345697D01*
X112044370Y-70952371D01*
X111836488Y-70866051D01*
X112042303Y-70781010D01*
X112435629Y-70388370D01*
X112648757Y-69875100D01*
X112649242Y-69319339D01*
X112437010Y-68805697D01*
X112044370Y-68412371D01*
X111836488Y-68326051D01*
X112042303Y-68241010D01*
X112435629Y-67848370D01*
X112648757Y-67335100D01*
X112649242Y-66779339D01*
X112437010Y-66265697D01*
X112044370Y-65872371D01*
X111836488Y-65786051D01*
X112042303Y-65701010D01*
X112435629Y-65308370D01*
X112648757Y-64795100D01*
X112649242Y-64239339D01*
X112437010Y-63725697D01*
X112044370Y-63332371D01*
X111836488Y-63246051D01*
X112042303Y-63161010D01*
X112435629Y-62768370D01*
X112645995Y-62261750D01*
X113069000Y-62261750D01*
X113069000Y-62952309D01*
X113165673Y-63185698D01*
X113344301Y-63364327D01*
X113577690Y-63461000D01*
X114268250Y-63461000D01*
X114427000Y-63302250D01*
X114427000Y-62103000D01*
X113227750Y-62103000D01*
X113069000Y-62261750D01*
X112645995Y-62261750D01*
X112648757Y-62255100D01*
X112649242Y-61699339D01*
X112437010Y-61185697D01*
X112251329Y-60999691D01*
X113069000Y-60999691D01*
X113069000Y-61690250D01*
X113227750Y-61849000D01*
X114427000Y-61849000D01*
X114427000Y-60649750D01*
X114681000Y-60649750D01*
X114681000Y-61849000D01*
X114701000Y-61849000D01*
X114701000Y-62103000D01*
X114681000Y-62103000D01*
X114681000Y-63302250D01*
X114839750Y-63461000D01*
X115530310Y-63461000D01*
X115763699Y-63364327D01*
X115942327Y-63185698D01*
X116014597Y-63011223D01*
X116043946Y-63055147D01*
X116525715Y-63377054D01*
X117094000Y-63490093D01*
X117662285Y-63377054D01*
X118144054Y-63055147D01*
X118364000Y-62725974D01*
X118583946Y-63055147D01*
X119065715Y-63377054D01*
X119634000Y-63490093D01*
X120202285Y-63377054D01*
X120684054Y-63055147D01*
X120904000Y-62725974D01*
X121123946Y-63055147D01*
X121605715Y-63377054D01*
X122174000Y-63490093D01*
X122742285Y-63377054D01*
X123224054Y-63055147D01*
X123545961Y-62573378D01*
X123659000Y-62005093D01*
X123659000Y-61946907D01*
X123545961Y-61378622D01*
X123224054Y-60896853D01*
X122742285Y-60574946D01*
X122174000Y-60461907D01*
X121605715Y-60574946D01*
X121123946Y-60896853D01*
X120904000Y-61226026D01*
X120684054Y-60896853D01*
X120202285Y-60574946D01*
X119634000Y-60461907D01*
X119065715Y-60574946D01*
X118583946Y-60896853D01*
X118364000Y-61226026D01*
X118144054Y-60896853D01*
X117662285Y-60574946D01*
X117094000Y-60461907D01*
X116525715Y-60574946D01*
X116043946Y-60896853D01*
X116014597Y-60940777D01*
X115942327Y-60766302D01*
X115763699Y-60587673D01*
X115530310Y-60491000D01*
X114839750Y-60491000D01*
X114681000Y-60649750D01*
X114427000Y-60649750D01*
X114268250Y-60491000D01*
X113577690Y-60491000D01*
X113344301Y-60587673D01*
X113165673Y-60766302D01*
X113069000Y-60999691D01*
X112251329Y-60999691D01*
X112044370Y-60792371D01*
X111836488Y-60706051D01*
X112042303Y-60621010D01*
X112435629Y-60228370D01*
X112648757Y-59715100D01*
X112649242Y-59159339D01*
X112437010Y-58645697D01*
X112044370Y-58252371D01*
X111836488Y-58166051D01*
X112042303Y-58081010D01*
X112435629Y-57688370D01*
X112648757Y-57175100D01*
X112649242Y-56619339D01*
X112437010Y-56105697D01*
X112159797Y-55828000D01*
X113242498Y-55828000D01*
X112928039Y-56298622D01*
X112928039Y-56298622D01*
G37*
X112928039Y-56298622D02*
X112815000Y-56866907D01*
X112815000Y-56925093D01*
X112928039Y-57493378D01*
X113249946Y-57975147D01*
X113731715Y-58297054D01*
X114300000Y-58410093D01*
X114868285Y-58297054D01*
X115350054Y-57975147D01*
X115379403Y-57931223D01*
X115451673Y-58105698D01*
X115630301Y-58284327D01*
X115863690Y-58381000D01*
X116554250Y-58381000D01*
X116713000Y-58222250D01*
X116713000Y-57023000D01*
X116967000Y-57023000D01*
X116967000Y-58222250D01*
X117125750Y-58381000D01*
X117816310Y-58381000D01*
X118049699Y-58284327D01*
X118228327Y-58105698D01*
X118325000Y-57872309D01*
X118325000Y-57181750D01*
X118166250Y-57023000D01*
X116967000Y-57023000D01*
X116713000Y-57023000D01*
X116693000Y-57023000D01*
X116693000Y-56769000D01*
X116713000Y-56769000D01*
X116713000Y-56749000D01*
X116967000Y-56749000D01*
X116967000Y-56769000D01*
X118166250Y-56769000D01*
X118325000Y-56610250D01*
X118325000Y-55919691D01*
X118287020Y-55828000D01*
X121972961Y-55828000D01*
X121893189Y-55881302D01*
X121582120Y-56346849D01*
X121472887Y-56896000D01*
X121582120Y-57445151D01*
X121893189Y-57910698D01*
X122176000Y-58099667D01*
X122176000Y-58674000D01*
X122233852Y-58964839D01*
X122398599Y-59211401D01*
X123700000Y-60512802D01*
X123700000Y-67056000D01*
X123757852Y-67346839D01*
X123922599Y-67593401D01*
X124938599Y-68609401D01*
X125185161Y-68774148D01*
X125476000Y-68832000D01*
X131765198Y-68832000D01*
X133986000Y-71052802D01*
X133986000Y-73193941D01*
X133872723Y-73269630D01*
X133743590Y-73462891D01*
X133575125Y-73240067D01*
X133155376Y-72993714D01*
X133063609Y-72978538D01*
X132873000Y-73103269D01*
X132873000Y-74295000D01*
X132893000Y-74295000D01*
X132893000Y-74549000D01*
X132873000Y-74549000D01*
X132873000Y-75740731D01*
X133063609Y-75865462D01*
X133155376Y-75850286D01*
X133575125Y-75603933D01*
X133743590Y-75381109D01*
X133872723Y-75574370D01*
X134273386Y-75842084D01*
X134746000Y-75936093D01*
X135112408Y-75863210D01*
X137830041Y-78580843D01*
X137468176Y-78942077D01*
X137414138Y-79072215D01*
X137361243Y-78944200D01*
X136957923Y-78540176D01*
X136430691Y-78321250D01*
X135859813Y-78320752D01*
X135332200Y-78538757D01*
X134928176Y-78942077D01*
X134874138Y-79072215D01*
X134821243Y-78944200D01*
X134417923Y-78540176D01*
X133890691Y-78321250D01*
X133319813Y-78320752D01*
X132792200Y-78538757D01*
X132388176Y-78942077D01*
X132334138Y-79072215D01*
X132281243Y-78944200D01*
X131877923Y-78540176D01*
X131824000Y-78517785D01*
X131824000Y-75481090D01*
X131916875Y-75603933D01*
X132336624Y-75850286D01*
X132428391Y-75865462D01*
X132619000Y-75740731D01*
X132619000Y-74549000D01*
X132599000Y-74549000D01*
X132599000Y-74295000D01*
X132619000Y-74295000D01*
X132619000Y-73103269D01*
X132428391Y-72978538D01*
X132336624Y-72993714D01*
X131916875Y-73240067D01*
X131748410Y-73462891D01*
X131619277Y-73269630D01*
X131218614Y-73001916D01*
X130746000Y-72907907D01*
X130273386Y-73001916D01*
X129872723Y-73269630D01*
X129746000Y-73459285D01*
X129619277Y-73269630D01*
X129218614Y-73001916D01*
X128746000Y-72907907D01*
X128273386Y-73001916D01*
X127896004Y-73254074D01*
X127810090Y-73120559D01*
X127597890Y-72975569D01*
X127346000Y-72924560D01*
X126146000Y-72924560D01*
X125910683Y-72968838D01*
X125694559Y-73107910D01*
X125549569Y-73320110D01*
X125498560Y-73572000D01*
X125498560Y-75272000D01*
X125542838Y-75507317D01*
X125681910Y-75723441D01*
X125894110Y-75868431D01*
X126146000Y-75919440D01*
X127168638Y-75919440D01*
X127764000Y-76514802D01*
X127764000Y-78517354D01*
X127712200Y-78538757D01*
X127308176Y-78942077D01*
X127254138Y-79072215D01*
X127201243Y-78944200D01*
X126797923Y-78540176D01*
X126270691Y-78321250D01*
X125699813Y-78320752D01*
X125172200Y-78538757D01*
X124768176Y-78942077D01*
X124549250Y-79469309D01*
X124548752Y-80040187D01*
X124766757Y-80567800D01*
X125170077Y-80971824D01*
X125697309Y-81190750D01*
X126268187Y-81191248D01*
X126795800Y-80973243D01*
X127199824Y-80569923D01*
X127253862Y-80439785D01*
X127306757Y-80567800D01*
X127710077Y-80971824D01*
X128237309Y-81190750D01*
X128808187Y-81191248D01*
X129335800Y-80973243D01*
X129739824Y-80569923D01*
X129793862Y-80439785D01*
X129846757Y-80567800D01*
X130250077Y-80971824D01*
X130777309Y-81190750D01*
X131348187Y-81191248D01*
X131875800Y-80973243D01*
X132279824Y-80569923D01*
X132333862Y-80439785D01*
X132386757Y-80567800D01*
X132790077Y-80971824D01*
X133317309Y-81190750D01*
X133888187Y-81191248D01*
X134415800Y-80973243D01*
X134819824Y-80569923D01*
X134873862Y-80439785D01*
X134926757Y-80567800D01*
X135330077Y-80971824D01*
X135857309Y-81190750D01*
X136428187Y-81191248D01*
X136955800Y-80973243D01*
X137359824Y-80569923D01*
X137413862Y-80439785D01*
X137466757Y-80567800D01*
X137870077Y-80971824D01*
X138397309Y-81190750D01*
X138968187Y-81191248D01*
X139495800Y-80973243D01*
X139789000Y-80680554D01*
X139789000Y-80682309D01*
X139885673Y-80915698D01*
X140064301Y-81094327D01*
X140297690Y-81191000D01*
X140938250Y-81191000D01*
X141097000Y-81032250D01*
X141097000Y-79883000D01*
X141077000Y-79883000D01*
X141077000Y-79629000D01*
X141097000Y-79629000D01*
X141097000Y-78479750D01*
X140938250Y-78321000D01*
X140297690Y-78321000D01*
X140064301Y-78417673D01*
X139885673Y-78596302D01*
X139789000Y-78829691D01*
X139789000Y-78831761D01*
X139497923Y-78540176D01*
X139444000Y-78517785D01*
X139444000Y-78360000D01*
X139386148Y-78069161D01*
X139221401Y-77822599D01*
X135981000Y-74582198D01*
X135981000Y-74142907D01*
X135886991Y-73670293D01*
X135619277Y-73269630D01*
X135506000Y-73193941D01*
X135506000Y-70738000D01*
X135448148Y-70447161D01*
X135448148Y-70447160D01*
X135283401Y-70200599D01*
X132617401Y-67534599D01*
X132370839Y-67369852D01*
X132080000Y-67312000D01*
X125790802Y-67312000D01*
X125220000Y-66741198D01*
X125220000Y-63516000D01*
X125860560Y-63516000D01*
X125860560Y-65516000D01*
X125904838Y-65751317D01*
X126043910Y-65967441D01*
X126256110Y-66112431D01*
X126508000Y-66163440D01*
X128508000Y-66163440D01*
X128743317Y-66119162D01*
X128959441Y-65980090D01*
X129104431Y-65767890D01*
X129107042Y-65754998D01*
X129173736Y-65935387D01*
X129783461Y-66161908D01*
X130433460Y-66137856D01*
X130922264Y-65935387D01*
X131020927Y-65668532D01*
X130048000Y-64695605D01*
X130033858Y-64709748D01*
X129854253Y-64530143D01*
X129868395Y-64516000D01*
X130227605Y-64516000D01*
X131200532Y-65488927D01*
X131467387Y-65390264D01*
X131693908Y-64780539D01*
X131669856Y-64130540D01*
X131467387Y-63641736D01*
X131200532Y-63543073D01*
X130227605Y-64516000D01*
X129868395Y-64516000D01*
X129854253Y-64501858D01*
X130033858Y-64322253D01*
X130048000Y-64336395D01*
X131020927Y-63363468D01*
X130922264Y-63096613D01*
X130312539Y-62870092D01*
X129662540Y-62894144D01*
X129173736Y-63096613D01*
X129107681Y-63275273D01*
X128972090Y-63064559D01*
X128759890Y-62919569D01*
X128508000Y-62868560D01*
X126508000Y-62868560D01*
X126272683Y-62912838D01*
X126056559Y-63051910D01*
X125911569Y-63264110D01*
X125860560Y-63516000D01*
X125220000Y-63516000D01*
X125220000Y-60198000D01*
X125162148Y-59907161D01*
X125162148Y-59907160D01*
X124997401Y-59660599D01*
X123696000Y-58359198D01*
X123696000Y-58099667D01*
X123978811Y-57910698D01*
X124289880Y-57445151D01*
X124399113Y-56896000D01*
X124289880Y-56346849D01*
X123978811Y-55881302D01*
X123899039Y-55828000D01*
X129594696Y-55828000D01*
X129340176Y-56082077D01*
X129121250Y-56609309D01*
X129120752Y-57180187D01*
X129338757Y-57707800D01*
X129742077Y-58111824D01*
X130269309Y-58330750D01*
X130840187Y-58331248D01*
X131367800Y-58113243D01*
X131771824Y-57709923D01*
X131990750Y-57182691D01*
X131991248Y-56611813D01*
X131773243Y-56084200D01*
X131517489Y-55828000D01*
X136311151Y-55828000D01*
X136113449Y-56025357D01*
X135879267Y-56589330D01*
X135878735Y-57199991D01*
X136111932Y-57764371D01*
X136279880Y-57932613D01*
X136278683Y-57932838D01*
X136062559Y-58071910D01*
X135917569Y-58284110D01*
X135866560Y-58536000D01*
X135866560Y-60336000D01*
X135910838Y-60571317D01*
X136049910Y-60787441D01*
X136262110Y-60932431D01*
X136514000Y-60983440D01*
X136654000Y-60983440D01*
X136654000Y-64516000D01*
X136711852Y-64806839D01*
X136876599Y-65053401D01*
X142242000Y-70418802D01*
X142242000Y-78358979D01*
X142150310Y-78321000D01*
X141509750Y-78321000D01*
X141351000Y-78479750D01*
X141351000Y-79629000D01*
X141371000Y-79629000D01*
X141371000Y-79883000D01*
X141351000Y-79883000D01*
X141351000Y-81032250D01*
X141509750Y-81191000D01*
X142150310Y-81191000D01*
X142242000Y-81153021D01*
X142242000Y-93726000D01*
X142299852Y-94016839D01*
X142464599Y-94263401D01*
X142862560Y-94661362D01*
X142862560Y-95758000D01*
X142906838Y-95993317D01*
X143045910Y-96209441D01*
X143258110Y-96354431D01*
X143441124Y-96391492D01*
X143088371Y-96743630D01*
X142875243Y-97256900D01*
X142874758Y-97812661D01*
X143086990Y-98326303D01*
X143364203Y-98604000D01*
X112159517Y-98604000D01*
X112435629Y-98328370D01*
X112648757Y-97815100D01*
X112649242Y-97259339D01*
X112437010Y-96745697D01*
X112044370Y-96352371D01*
X111836488Y-96266051D01*
X112042303Y-96181010D01*
X112435629Y-95788370D01*
X112648757Y-95275100D01*
X112649242Y-94719339D01*
X112437010Y-94205697D01*
X112044370Y-93812371D01*
X111836488Y-93726051D01*
X112042303Y-93641010D01*
X112435629Y-93248370D01*
X112648757Y-92735100D01*
X112649242Y-92179339D01*
X112437010Y-91665697D01*
X112044370Y-91272371D01*
X111836488Y-91186051D01*
X112042303Y-91101010D01*
X112435629Y-90708370D01*
X112648757Y-90195100D01*
X112649242Y-89639339D01*
X112437010Y-89125697D01*
X112044370Y-88732371D01*
X111836488Y-88646051D01*
X112042303Y-88561010D01*
X112435629Y-88168370D01*
X112648757Y-87655100D01*
X112649242Y-87099339D01*
X112437010Y-86585697D01*
X112044370Y-86192371D01*
X111836488Y-86106051D01*
X112042303Y-86021010D01*
X112435629Y-85628370D01*
X112648757Y-85115100D01*
X112649242Y-84559339D01*
X112437010Y-84045697D01*
X112044370Y-83652371D01*
X111836488Y-83566051D01*
X112042303Y-83481010D01*
X112435629Y-83088370D01*
X112648757Y-82575100D01*
X112649242Y-82019339D01*
X112437010Y-81505697D01*
X112044370Y-81112371D01*
X111836488Y-81026051D01*
X112042303Y-80941010D01*
X112435629Y-80548370D01*
X112648757Y-80035100D01*
X112649242Y-79479339D01*
X112437010Y-78965697D01*
X112044370Y-78572371D01*
X111836488Y-78486051D01*
X112042303Y-78401010D01*
X112435629Y-78008370D01*
X112648757Y-77495100D01*
X112649242Y-76939339D01*
X112437010Y-76425697D01*
X112044370Y-76032371D01*
X111836488Y-75946051D01*
X112042303Y-75861010D01*
X112435629Y-75468370D01*
X112648757Y-74955100D01*
X112649242Y-74399339D01*
X112437010Y-73885697D01*
X112044370Y-73492371D01*
X111836488Y-73406051D01*
X112042303Y-73321010D01*
X112435629Y-72928370D01*
X112648757Y-72415100D01*
X112649242Y-71859339D01*
X112437010Y-71345697D01*
X112044370Y-70952371D01*
X111836488Y-70866051D01*
X112042303Y-70781010D01*
X112435629Y-70388370D01*
X112648757Y-69875100D01*
X112649242Y-69319339D01*
X112437010Y-68805697D01*
X112044370Y-68412371D01*
X111836488Y-68326051D01*
X112042303Y-68241010D01*
X112435629Y-67848370D01*
X112648757Y-67335100D01*
X112649242Y-66779339D01*
X112437010Y-66265697D01*
X112044370Y-65872371D01*
X111836488Y-65786051D01*
X112042303Y-65701010D01*
X112435629Y-65308370D01*
X112648757Y-64795100D01*
X112649242Y-64239339D01*
X112437010Y-63725697D01*
X112044370Y-63332371D01*
X111836488Y-63246051D01*
X112042303Y-63161010D01*
X112435629Y-62768370D01*
X112645995Y-62261750D01*
X113069000Y-62261750D01*
X113069000Y-62952309D01*
X113165673Y-63185698D01*
X113344301Y-63364327D01*
X113577690Y-63461000D01*
X114268250Y-63461000D01*
X114427000Y-63302250D01*
X114427000Y-62103000D01*
X113227750Y-62103000D01*
X113069000Y-62261750D01*
X112645995Y-62261750D01*
X112648757Y-62255100D01*
X112649242Y-61699339D01*
X112437010Y-61185697D01*
X112251329Y-60999691D01*
X113069000Y-60999691D01*
X113069000Y-61690250D01*
X113227750Y-61849000D01*
X114427000Y-61849000D01*
X114427000Y-60649750D01*
X114681000Y-60649750D01*
X114681000Y-61849000D01*
X114701000Y-61849000D01*
X114701000Y-62103000D01*
X114681000Y-62103000D01*
X114681000Y-63302250D01*
X114839750Y-63461000D01*
X115530310Y-63461000D01*
X115763699Y-63364327D01*
X115942327Y-63185698D01*
X116014597Y-63011223D01*
X116043946Y-63055147D01*
X116525715Y-63377054D01*
X117094000Y-63490093D01*
X117662285Y-63377054D01*
X118144054Y-63055147D01*
X118364000Y-62725974D01*
X118583946Y-63055147D01*
X119065715Y-63377054D01*
X119634000Y-63490093D01*
X120202285Y-63377054D01*
X120684054Y-63055147D01*
X120904000Y-62725974D01*
X121123946Y-63055147D01*
X121605715Y-63377054D01*
X122174000Y-63490093D01*
X122742285Y-63377054D01*
X123224054Y-63055147D01*
X123545961Y-62573378D01*
X123659000Y-62005093D01*
X123659000Y-61946907D01*
X123545961Y-61378622D01*
X123224054Y-60896853D01*
X122742285Y-60574946D01*
X122174000Y-60461907D01*
X121605715Y-60574946D01*
X121123946Y-60896853D01*
X120904000Y-61226026D01*
X120684054Y-60896853D01*
X120202285Y-60574946D01*
X119634000Y-60461907D01*
X119065715Y-60574946D01*
X118583946Y-60896853D01*
X118364000Y-61226026D01*
X118144054Y-60896853D01*
X117662285Y-60574946D01*
X117094000Y-60461907D01*
X116525715Y-60574946D01*
X116043946Y-60896853D01*
X116014597Y-60940777D01*
X115942327Y-60766302D01*
X115763699Y-60587673D01*
X115530310Y-60491000D01*
X114839750Y-60491000D01*
X114681000Y-60649750D01*
X114427000Y-60649750D01*
X114268250Y-60491000D01*
X113577690Y-60491000D01*
X113344301Y-60587673D01*
X113165673Y-60766302D01*
X113069000Y-60999691D01*
X112251329Y-60999691D01*
X112044370Y-60792371D01*
X111836488Y-60706051D01*
X112042303Y-60621010D01*
X112435629Y-60228370D01*
X112648757Y-59715100D01*
X112649242Y-59159339D01*
X112437010Y-58645697D01*
X112044370Y-58252371D01*
X111836488Y-58166051D01*
X112042303Y-58081010D01*
X112435629Y-57688370D01*
X112648757Y-57175100D01*
X112649242Y-56619339D01*
X112437010Y-56105697D01*
X112159797Y-55828000D01*
X113242498Y-55828000D01*
X112928039Y-56298622D01*
G36*
X108839000Y-56769000D02*
X108859000Y-56769000D01*
X108859000Y-57023000D01*
X108839000Y-57023000D01*
X108839000Y-57043000D01*
X108585000Y-57043000D01*
X108585000Y-57023000D01*
X108565000Y-57023000D01*
X108565000Y-56769000D01*
X108585000Y-56769000D01*
X108585000Y-56749000D01*
X108839000Y-56749000D01*
X108839000Y-56769000D01*
X108839000Y-56769000D01*
G37*
X108839000Y-56769000D02*
X108859000Y-56769000D01*
X108859000Y-57023000D01*
X108839000Y-57023000D01*
X108839000Y-57043000D01*
X108585000Y-57043000D01*
X108585000Y-57023000D01*
X108565000Y-57023000D01*
X108565000Y-56769000D01*
X108585000Y-56769000D01*
X108585000Y-56749000D01*
X108839000Y-56749000D01*
X108839000Y-56769000D01*
G36*
X155092039Y-56298622D02*
X154979000Y-56866907D01*
X154979000Y-56925093D01*
X155092039Y-57493378D01*
X155413946Y-57975147D01*
X155895715Y-58297054D01*
X156464000Y-58410093D01*
X157032285Y-58297054D01*
X157514054Y-57975147D01*
X157543403Y-57931223D01*
X157615673Y-58105698D01*
X157794301Y-58284327D01*
X158027690Y-58381000D01*
X158718250Y-58381000D01*
X158877000Y-58222250D01*
X158877000Y-57023000D01*
X159131000Y-57023000D01*
X159131000Y-58222250D01*
X159289750Y-58381000D01*
X159980310Y-58381000D01*
X160213699Y-58284327D01*
X160392327Y-58105698D01*
X160489000Y-57872309D01*
X160489000Y-57181750D01*
X160330250Y-57023000D01*
X159131000Y-57023000D01*
X158877000Y-57023000D01*
X158857000Y-57023000D01*
X158857000Y-56769000D01*
X158877000Y-56769000D01*
X158877000Y-56749000D01*
X159131000Y-56749000D01*
X159131000Y-56769000D01*
X160330250Y-56769000D01*
X160489000Y-56610250D01*
X160489000Y-55919691D01*
X160451020Y-55828000D01*
X164136961Y-55828000D01*
X164057189Y-55881302D01*
X163746120Y-56346849D01*
X163636887Y-56896000D01*
X163746120Y-57445151D01*
X164057189Y-57910698D01*
X164340000Y-58099667D01*
X164340000Y-58674000D01*
X164397852Y-58964839D01*
X164562599Y-59211401D01*
X165864000Y-60512802D01*
X165864000Y-67056000D01*
X165921852Y-67346839D01*
X166086599Y-67593401D01*
X167102599Y-68609401D01*
X167349161Y-68774148D01*
X167640000Y-68832000D01*
X173929198Y-68832000D01*
X176150000Y-71052802D01*
X176150000Y-73193941D01*
X176036723Y-73269630D01*
X175907590Y-73462891D01*
X175739125Y-73240067D01*
X175319376Y-72993714D01*
X175227609Y-72978538D01*
X175037000Y-73103269D01*
X175037000Y-74295000D01*
X175057000Y-74295000D01*
X175057000Y-74549000D01*
X175037000Y-74549000D01*
X175037000Y-75740731D01*
X175227609Y-75865462D01*
X175319376Y-75850286D01*
X175739125Y-75603933D01*
X175907590Y-75381109D01*
X176036723Y-75574370D01*
X176437386Y-75842084D01*
X176910000Y-75936093D01*
X177276408Y-75863210D01*
X179994041Y-78580843D01*
X179632176Y-78942077D01*
X179578138Y-79072215D01*
X179525243Y-78944200D01*
X179121923Y-78540176D01*
X178594691Y-78321250D01*
X178023813Y-78320752D01*
X177496200Y-78538757D01*
X177092176Y-78942077D01*
X177038138Y-79072215D01*
X176985243Y-78944200D01*
X176581923Y-78540176D01*
X176054691Y-78321250D01*
X175483813Y-78320752D01*
X174956200Y-78538757D01*
X174552176Y-78942077D01*
X174498138Y-79072215D01*
X174445243Y-78944200D01*
X174041923Y-78540176D01*
X173988000Y-78517785D01*
X173988000Y-75481090D01*
X174080875Y-75603933D01*
X174500624Y-75850286D01*
X174592391Y-75865462D01*
X174783000Y-75740731D01*
X174783000Y-74549000D01*
X174763000Y-74549000D01*
X174763000Y-74295000D01*
X174783000Y-74295000D01*
X174783000Y-73103269D01*
X174592391Y-72978538D01*
X174500624Y-72993714D01*
X174080875Y-73240067D01*
X173912410Y-73462891D01*
X173783277Y-73269630D01*
X173382614Y-73001916D01*
X172910000Y-72907907D01*
X172437386Y-73001916D01*
X172036723Y-73269630D01*
X171910000Y-73459285D01*
X171783277Y-73269630D01*
X171382614Y-73001916D01*
X170910000Y-72907907D01*
X170437386Y-73001916D01*
X170060004Y-73254074D01*
X169974090Y-73120559D01*
X169761890Y-72975569D01*
X169510000Y-72924560D01*
X168310000Y-72924560D01*
X168074683Y-72968838D01*
X167858559Y-73107910D01*
X167713569Y-73320110D01*
X167662560Y-73572000D01*
X167662560Y-75272000D01*
X167706838Y-75507317D01*
X167845910Y-75723441D01*
X168058110Y-75868431D01*
X168310000Y-75919440D01*
X169332638Y-75919440D01*
X169928000Y-76514802D01*
X169928000Y-78517354D01*
X169876200Y-78538757D01*
X169472176Y-78942077D01*
X169418138Y-79072215D01*
X169365243Y-78944200D01*
X168961923Y-78540176D01*
X168434691Y-78321250D01*
X167863813Y-78320752D01*
X167336200Y-78538757D01*
X166932176Y-78942077D01*
X166713250Y-79469309D01*
X166712752Y-80040187D01*
X166930757Y-80567800D01*
X167334077Y-80971824D01*
X167861309Y-81190750D01*
X168432187Y-81191248D01*
X168959800Y-80973243D01*
X169363824Y-80569923D01*
X169417862Y-80439785D01*
X169470757Y-80567800D01*
X169874077Y-80971824D01*
X170401309Y-81190750D01*
X170972187Y-81191248D01*
X171499800Y-80973243D01*
X171903824Y-80569923D01*
X171957862Y-80439785D01*
X172010757Y-80567800D01*
X172414077Y-80971824D01*
X172941309Y-81190750D01*
X173512187Y-81191248D01*
X174039800Y-80973243D01*
X174443824Y-80569923D01*
X174497862Y-80439785D01*
X174550757Y-80567800D01*
X174954077Y-80971824D01*
X175481309Y-81190750D01*
X176052187Y-81191248D01*
X176579800Y-80973243D01*
X176983824Y-80569923D01*
X177037862Y-80439785D01*
X177090757Y-80567800D01*
X177494077Y-80971824D01*
X178021309Y-81190750D01*
X178592187Y-81191248D01*
X179119800Y-80973243D01*
X179523824Y-80569923D01*
X179577862Y-80439785D01*
X179630757Y-80567800D01*
X180034077Y-80971824D01*
X180561309Y-81190750D01*
X181132187Y-81191248D01*
X181659800Y-80973243D01*
X181953000Y-80680554D01*
X181953000Y-80682309D01*
X182049673Y-80915698D01*
X182228301Y-81094327D01*
X182461690Y-81191000D01*
X183102250Y-81191000D01*
X183261000Y-81032250D01*
X183261000Y-79883000D01*
X183241000Y-79883000D01*
X183241000Y-79629000D01*
X183261000Y-79629000D01*
X183261000Y-78479750D01*
X183102250Y-78321000D01*
X182461690Y-78321000D01*
X182228301Y-78417673D01*
X182049673Y-78596302D01*
X181953000Y-78829691D01*
X181953000Y-78831761D01*
X181661923Y-78540176D01*
X181608000Y-78517785D01*
X181608000Y-78360000D01*
X181550148Y-78069161D01*
X181385401Y-77822599D01*
X178145000Y-74582198D01*
X178145000Y-74142907D01*
X178050991Y-73670293D01*
X177783277Y-73269630D01*
X177670000Y-73193941D01*
X177670000Y-70738000D01*
X177612148Y-70447161D01*
X177612148Y-70447160D01*
X177447401Y-70200599D01*
X174781401Y-67534599D01*
X174534839Y-67369852D01*
X174244000Y-67312000D01*
X167954802Y-67312000D01*
X167384000Y-66741198D01*
X167384000Y-63516000D01*
X168024560Y-63516000D01*
X168024560Y-65516000D01*
X168068838Y-65751317D01*
X168207910Y-65967441D01*
X168420110Y-66112431D01*
X168672000Y-66163440D01*
X170672000Y-66163440D01*
X170907317Y-66119162D01*
X171123441Y-65980090D01*
X171268431Y-65767890D01*
X171271042Y-65754998D01*
X171337736Y-65935387D01*
X171947461Y-66161908D01*
X172597460Y-66137856D01*
X173086264Y-65935387D01*
X173184927Y-65668532D01*
X172212000Y-64695605D01*
X172197858Y-64709748D01*
X172018253Y-64530143D01*
X172032395Y-64516000D01*
X172391605Y-64516000D01*
X173364532Y-65488927D01*
X173631387Y-65390264D01*
X173857908Y-64780539D01*
X173833856Y-64130540D01*
X173631387Y-63641736D01*
X173364532Y-63543073D01*
X172391605Y-64516000D01*
X172032395Y-64516000D01*
X172018253Y-64501858D01*
X172197858Y-64322253D01*
X172212000Y-64336395D01*
X173184927Y-63363468D01*
X173086264Y-63096613D01*
X172476539Y-62870092D01*
X171826540Y-62894144D01*
X171337736Y-63096613D01*
X171271681Y-63275273D01*
X171136090Y-63064559D01*
X170923890Y-62919569D01*
X170672000Y-62868560D01*
X168672000Y-62868560D01*
X168436683Y-62912838D01*
X168220559Y-63051910D01*
X168075569Y-63264110D01*
X168024560Y-63516000D01*
X167384000Y-63516000D01*
X167384000Y-60198000D01*
X167326148Y-59907161D01*
X167326148Y-59907160D01*
X167161401Y-59660599D01*
X165860000Y-58359198D01*
X165860000Y-58099667D01*
X166142811Y-57910698D01*
X166453880Y-57445151D01*
X166563113Y-56896000D01*
X166453880Y-56346849D01*
X166142811Y-55881302D01*
X166063039Y-55828000D01*
X171758696Y-55828000D01*
X171504176Y-56082077D01*
X171285250Y-56609309D01*
X171284752Y-57180187D01*
X171502757Y-57707800D01*
X171906077Y-58111824D01*
X172433309Y-58330750D01*
X173004187Y-58331248D01*
X173531800Y-58113243D01*
X173935824Y-57709923D01*
X174154750Y-57182691D01*
X174155248Y-56611813D01*
X173937243Y-56084200D01*
X173681489Y-55828000D01*
X178475151Y-55828000D01*
X178277449Y-56025357D01*
X178043267Y-56589330D01*
X178042735Y-57199991D01*
X178275932Y-57764371D01*
X178443880Y-57932613D01*
X178442683Y-57932838D01*
X178226559Y-58071910D01*
X178081569Y-58284110D01*
X178030560Y-58536000D01*
X178030560Y-60336000D01*
X178074838Y-60571317D01*
X178213910Y-60787441D01*
X178426110Y-60932431D01*
X178678000Y-60983440D01*
X178818000Y-60983440D01*
X178818000Y-64516000D01*
X178875852Y-64806839D01*
X179040599Y-65053401D01*
X184406000Y-70418802D01*
X184406000Y-78358979D01*
X184314310Y-78321000D01*
X183673750Y-78321000D01*
X183515000Y-78479750D01*
X183515000Y-79629000D01*
X183535000Y-79629000D01*
X183535000Y-79883000D01*
X183515000Y-79883000D01*
X183515000Y-81032250D01*
X183673750Y-81191000D01*
X184314310Y-81191000D01*
X184406000Y-81153021D01*
X184406000Y-93726000D01*
X184463852Y-94016839D01*
X184628599Y-94263401D01*
X185026560Y-94661362D01*
X185026560Y-95758000D01*
X185070838Y-95993317D01*
X185209910Y-96209441D01*
X185422110Y-96354431D01*
X185605124Y-96391492D01*
X185252371Y-96743630D01*
X185039243Y-97256900D01*
X185038758Y-97812661D01*
X185250990Y-98326303D01*
X185528203Y-98604000D01*
X154323517Y-98604000D01*
X154599629Y-98328370D01*
X154812757Y-97815100D01*
X154813242Y-97259339D01*
X154601010Y-96745697D01*
X154208370Y-96352371D01*
X154000488Y-96266051D01*
X154206303Y-96181010D01*
X154599629Y-95788370D01*
X154812757Y-95275100D01*
X154813242Y-94719339D01*
X154601010Y-94205697D01*
X154208370Y-93812371D01*
X154000488Y-93726051D01*
X154206303Y-93641010D01*
X154599629Y-93248370D01*
X154812757Y-92735100D01*
X154813242Y-92179339D01*
X154601010Y-91665697D01*
X154208370Y-91272371D01*
X154000488Y-91186051D01*
X154206303Y-91101010D01*
X154599629Y-90708370D01*
X154812757Y-90195100D01*
X154813242Y-89639339D01*
X154601010Y-89125697D01*
X154208370Y-88732371D01*
X154000488Y-88646051D01*
X154206303Y-88561010D01*
X154599629Y-88168370D01*
X154812757Y-87655100D01*
X154813242Y-87099339D01*
X154601010Y-86585697D01*
X154208370Y-86192371D01*
X154000488Y-86106051D01*
X154206303Y-86021010D01*
X154599629Y-85628370D01*
X154812757Y-85115100D01*
X154813242Y-84559339D01*
X154601010Y-84045697D01*
X154208370Y-83652371D01*
X154000488Y-83566051D01*
X154206303Y-83481010D01*
X154599629Y-83088370D01*
X154812757Y-82575100D01*
X154813242Y-82019339D01*
X154601010Y-81505697D01*
X154208370Y-81112371D01*
X154000488Y-81026051D01*
X154206303Y-80941010D01*
X154599629Y-80548370D01*
X154812757Y-80035100D01*
X154813242Y-79479339D01*
X154601010Y-78965697D01*
X154208370Y-78572371D01*
X154000488Y-78486051D01*
X154206303Y-78401010D01*
X154599629Y-78008370D01*
X154812757Y-77495100D01*
X154813242Y-76939339D01*
X154601010Y-76425697D01*
X154208370Y-76032371D01*
X154000488Y-75946051D01*
X154206303Y-75861010D01*
X154599629Y-75468370D01*
X154812757Y-74955100D01*
X154813242Y-74399339D01*
X154601010Y-73885697D01*
X154208370Y-73492371D01*
X154000488Y-73406051D01*
X154206303Y-73321010D01*
X154599629Y-72928370D01*
X154812757Y-72415100D01*
X154813242Y-71859339D01*
X154601010Y-71345697D01*
X154208370Y-70952371D01*
X154000488Y-70866051D01*
X154206303Y-70781010D01*
X154599629Y-70388370D01*
X154812757Y-69875100D01*
X154813242Y-69319339D01*
X154601010Y-68805697D01*
X154208370Y-68412371D01*
X154000488Y-68326051D01*
X154206303Y-68241010D01*
X154599629Y-67848370D01*
X154812757Y-67335100D01*
X154813242Y-66779339D01*
X154601010Y-66265697D01*
X154208370Y-65872371D01*
X154000488Y-65786051D01*
X154206303Y-65701010D01*
X154599629Y-65308370D01*
X154812757Y-64795100D01*
X154813242Y-64239339D01*
X154601010Y-63725697D01*
X154208370Y-63332371D01*
X154000488Y-63246051D01*
X154206303Y-63161010D01*
X154599629Y-62768370D01*
X154809995Y-62261750D01*
X155233000Y-62261750D01*
X155233000Y-62952309D01*
X155329673Y-63185698D01*
X155508301Y-63364327D01*
X155741690Y-63461000D01*
X156432250Y-63461000D01*
X156591000Y-63302250D01*
X156591000Y-62103000D01*
X155391750Y-62103000D01*
X155233000Y-62261750D01*
X154809995Y-62261750D01*
X154812757Y-62255100D01*
X154813242Y-61699339D01*
X154601010Y-61185697D01*
X154415329Y-60999691D01*
X155233000Y-60999691D01*
X155233000Y-61690250D01*
X155391750Y-61849000D01*
X156591000Y-61849000D01*
X156591000Y-60649750D01*
X156845000Y-60649750D01*
X156845000Y-61849000D01*
X156865000Y-61849000D01*
X156865000Y-62103000D01*
X156845000Y-62103000D01*
X156845000Y-63302250D01*
X157003750Y-63461000D01*
X157694310Y-63461000D01*
X157927699Y-63364327D01*
X158106327Y-63185698D01*
X158178597Y-63011223D01*
X158207946Y-63055147D01*
X158689715Y-63377054D01*
X159258000Y-63490093D01*
X159826285Y-63377054D01*
X160308054Y-63055147D01*
X160528000Y-62725974D01*
X160747946Y-63055147D01*
X161229715Y-63377054D01*
X161798000Y-63490093D01*
X162366285Y-63377054D01*
X162848054Y-63055147D01*
X163068000Y-62725974D01*
X163287946Y-63055147D01*
X163769715Y-63377054D01*
X164338000Y-63490093D01*
X164906285Y-63377054D01*
X165388054Y-63055147D01*
X165709961Y-62573378D01*
X165823000Y-62005093D01*
X165823000Y-61946907D01*
X165709961Y-61378622D01*
X165388054Y-60896853D01*
X164906285Y-60574946D01*
X164338000Y-60461907D01*
X163769715Y-60574946D01*
X163287946Y-60896853D01*
X163068000Y-61226026D01*
X162848054Y-60896853D01*
X162366285Y-60574946D01*
X161798000Y-60461907D01*
X161229715Y-60574946D01*
X160747946Y-60896853D01*
X160528000Y-61226026D01*
X160308054Y-60896853D01*
X159826285Y-60574946D01*
X159258000Y-60461907D01*
X158689715Y-60574946D01*
X158207946Y-60896853D01*
X158178597Y-60940777D01*
X158106327Y-60766302D01*
X157927699Y-60587673D01*
X157694310Y-60491000D01*
X157003750Y-60491000D01*
X156845000Y-60649750D01*
X156591000Y-60649750D01*
X156432250Y-60491000D01*
X155741690Y-60491000D01*
X155508301Y-60587673D01*
X155329673Y-60766302D01*
X155233000Y-60999691D01*
X154415329Y-60999691D01*
X154208370Y-60792371D01*
X154000488Y-60706051D01*
X154206303Y-60621010D01*
X154599629Y-60228370D01*
X154812757Y-59715100D01*
X154813242Y-59159339D01*
X154601010Y-58645697D01*
X154208370Y-58252371D01*
X154000488Y-58166051D01*
X154206303Y-58081010D01*
X154599629Y-57688370D01*
X154812757Y-57175100D01*
X154813242Y-56619339D01*
X154601010Y-56105697D01*
X154323797Y-55828000D01*
X155406498Y-55828000D01*
X155092039Y-56298622D01*
X155092039Y-56298622D01*
G37*
X155092039Y-56298622D02*
X154979000Y-56866907D01*
X154979000Y-56925093D01*
X155092039Y-57493378D01*
X155413946Y-57975147D01*
X155895715Y-58297054D01*
X156464000Y-58410093D01*
X157032285Y-58297054D01*
X157514054Y-57975147D01*
X157543403Y-57931223D01*
X157615673Y-58105698D01*
X157794301Y-58284327D01*
X158027690Y-58381000D01*
X158718250Y-58381000D01*
X158877000Y-58222250D01*
X158877000Y-57023000D01*
X159131000Y-57023000D01*
X159131000Y-58222250D01*
X159289750Y-58381000D01*
X159980310Y-58381000D01*
X160213699Y-58284327D01*
X160392327Y-58105698D01*
X160489000Y-57872309D01*
X160489000Y-57181750D01*
X160330250Y-57023000D01*
X159131000Y-57023000D01*
X158877000Y-57023000D01*
X158857000Y-57023000D01*
X158857000Y-56769000D01*
X158877000Y-56769000D01*
X158877000Y-56749000D01*
X159131000Y-56749000D01*
X159131000Y-56769000D01*
X160330250Y-56769000D01*
X160489000Y-56610250D01*
X160489000Y-55919691D01*
X160451020Y-55828000D01*
X164136961Y-55828000D01*
X164057189Y-55881302D01*
X163746120Y-56346849D01*
X163636887Y-56896000D01*
X163746120Y-57445151D01*
X164057189Y-57910698D01*
X164340000Y-58099667D01*
X164340000Y-58674000D01*
X164397852Y-58964839D01*
X164562599Y-59211401D01*
X165864000Y-60512802D01*
X165864000Y-67056000D01*
X165921852Y-67346839D01*
X166086599Y-67593401D01*
X167102599Y-68609401D01*
X167349161Y-68774148D01*
X167640000Y-68832000D01*
X173929198Y-68832000D01*
X176150000Y-71052802D01*
X176150000Y-73193941D01*
X176036723Y-73269630D01*
X175907590Y-73462891D01*
X175739125Y-73240067D01*
X175319376Y-72993714D01*
X175227609Y-72978538D01*
X175037000Y-73103269D01*
X175037000Y-74295000D01*
X175057000Y-74295000D01*
X175057000Y-74549000D01*
X175037000Y-74549000D01*
X175037000Y-75740731D01*
X175227609Y-75865462D01*
X175319376Y-75850286D01*
X175739125Y-75603933D01*
X175907590Y-75381109D01*
X176036723Y-75574370D01*
X176437386Y-75842084D01*
X176910000Y-75936093D01*
X177276408Y-75863210D01*
X179994041Y-78580843D01*
X179632176Y-78942077D01*
X179578138Y-79072215D01*
X179525243Y-78944200D01*
X179121923Y-78540176D01*
X178594691Y-78321250D01*
X178023813Y-78320752D01*
X177496200Y-78538757D01*
X177092176Y-78942077D01*
X177038138Y-79072215D01*
X176985243Y-78944200D01*
X176581923Y-78540176D01*
X176054691Y-78321250D01*
X175483813Y-78320752D01*
X174956200Y-78538757D01*
X174552176Y-78942077D01*
X174498138Y-79072215D01*
X174445243Y-78944200D01*
X174041923Y-78540176D01*
X173988000Y-78517785D01*
X173988000Y-75481090D01*
X174080875Y-75603933D01*
X174500624Y-75850286D01*
X174592391Y-75865462D01*
X174783000Y-75740731D01*
X174783000Y-74549000D01*
X174763000Y-74549000D01*
X174763000Y-74295000D01*
X174783000Y-74295000D01*
X174783000Y-73103269D01*
X174592391Y-72978538D01*
X174500624Y-72993714D01*
X174080875Y-73240067D01*
X173912410Y-73462891D01*
X173783277Y-73269630D01*
X173382614Y-73001916D01*
X172910000Y-72907907D01*
X172437386Y-73001916D01*
X172036723Y-73269630D01*
X171910000Y-73459285D01*
X171783277Y-73269630D01*
X171382614Y-73001916D01*
X170910000Y-72907907D01*
X170437386Y-73001916D01*
X170060004Y-73254074D01*
X169974090Y-73120559D01*
X169761890Y-72975569D01*
X169510000Y-72924560D01*
X168310000Y-72924560D01*
X168074683Y-72968838D01*
X167858559Y-73107910D01*
X167713569Y-73320110D01*
X167662560Y-73572000D01*
X167662560Y-75272000D01*
X167706838Y-75507317D01*
X167845910Y-75723441D01*
X168058110Y-75868431D01*
X168310000Y-75919440D01*
X169332638Y-75919440D01*
X169928000Y-76514802D01*
X169928000Y-78517354D01*
X169876200Y-78538757D01*
X169472176Y-78942077D01*
X169418138Y-79072215D01*
X169365243Y-78944200D01*
X168961923Y-78540176D01*
X168434691Y-78321250D01*
X167863813Y-78320752D01*
X167336200Y-78538757D01*
X166932176Y-78942077D01*
X166713250Y-79469309D01*
X166712752Y-80040187D01*
X166930757Y-80567800D01*
X167334077Y-80971824D01*
X167861309Y-81190750D01*
X168432187Y-81191248D01*
X168959800Y-80973243D01*
X169363824Y-80569923D01*
X169417862Y-80439785D01*
X169470757Y-80567800D01*
X169874077Y-80971824D01*
X170401309Y-81190750D01*
X170972187Y-81191248D01*
X171499800Y-80973243D01*
X171903824Y-80569923D01*
X171957862Y-80439785D01*
X172010757Y-80567800D01*
X172414077Y-80971824D01*
X172941309Y-81190750D01*
X173512187Y-81191248D01*
X174039800Y-80973243D01*
X174443824Y-80569923D01*
X174497862Y-80439785D01*
X174550757Y-80567800D01*
X174954077Y-80971824D01*
X175481309Y-81190750D01*
X176052187Y-81191248D01*
X176579800Y-80973243D01*
X176983824Y-80569923D01*
X177037862Y-80439785D01*
X177090757Y-80567800D01*
X177494077Y-80971824D01*
X178021309Y-81190750D01*
X178592187Y-81191248D01*
X179119800Y-80973243D01*
X179523824Y-80569923D01*
X179577862Y-80439785D01*
X179630757Y-80567800D01*
X180034077Y-80971824D01*
X180561309Y-81190750D01*
X181132187Y-81191248D01*
X181659800Y-80973243D01*
X181953000Y-80680554D01*
X181953000Y-80682309D01*
X182049673Y-80915698D01*
X182228301Y-81094327D01*
X182461690Y-81191000D01*
X183102250Y-81191000D01*
X183261000Y-81032250D01*
X183261000Y-79883000D01*
X183241000Y-79883000D01*
X183241000Y-79629000D01*
X183261000Y-79629000D01*
X183261000Y-78479750D01*
X183102250Y-78321000D01*
X182461690Y-78321000D01*
X182228301Y-78417673D01*
X182049673Y-78596302D01*
X181953000Y-78829691D01*
X181953000Y-78831761D01*
X181661923Y-78540176D01*
X181608000Y-78517785D01*
X181608000Y-78360000D01*
X181550148Y-78069161D01*
X181385401Y-77822599D01*
X178145000Y-74582198D01*
X178145000Y-74142907D01*
X178050991Y-73670293D01*
X177783277Y-73269630D01*
X177670000Y-73193941D01*
X177670000Y-70738000D01*
X177612148Y-70447161D01*
X177612148Y-70447160D01*
X177447401Y-70200599D01*
X174781401Y-67534599D01*
X174534839Y-67369852D01*
X174244000Y-67312000D01*
X167954802Y-67312000D01*
X167384000Y-66741198D01*
X167384000Y-63516000D01*
X168024560Y-63516000D01*
X168024560Y-65516000D01*
X168068838Y-65751317D01*
X168207910Y-65967441D01*
X168420110Y-66112431D01*
X168672000Y-66163440D01*
X170672000Y-66163440D01*
X170907317Y-66119162D01*
X171123441Y-65980090D01*
X171268431Y-65767890D01*
X171271042Y-65754998D01*
X171337736Y-65935387D01*
X171947461Y-66161908D01*
X172597460Y-66137856D01*
X173086264Y-65935387D01*
X173184927Y-65668532D01*
X172212000Y-64695605D01*
X172197858Y-64709748D01*
X172018253Y-64530143D01*
X172032395Y-64516000D01*
X172391605Y-64516000D01*
X173364532Y-65488927D01*
X173631387Y-65390264D01*
X173857908Y-64780539D01*
X173833856Y-64130540D01*
X173631387Y-63641736D01*
X173364532Y-63543073D01*
X172391605Y-64516000D01*
X172032395Y-64516000D01*
X172018253Y-64501858D01*
X172197858Y-64322253D01*
X172212000Y-64336395D01*
X173184927Y-63363468D01*
X173086264Y-63096613D01*
X172476539Y-62870092D01*
X171826540Y-62894144D01*
X171337736Y-63096613D01*
X171271681Y-63275273D01*
X171136090Y-63064559D01*
X170923890Y-62919569D01*
X170672000Y-62868560D01*
X168672000Y-62868560D01*
X168436683Y-62912838D01*
X168220559Y-63051910D01*
X168075569Y-63264110D01*
X168024560Y-63516000D01*
X167384000Y-63516000D01*
X167384000Y-60198000D01*
X167326148Y-59907161D01*
X167326148Y-59907160D01*
X167161401Y-59660599D01*
X165860000Y-58359198D01*
X165860000Y-58099667D01*
X166142811Y-57910698D01*
X166453880Y-57445151D01*
X166563113Y-56896000D01*
X166453880Y-56346849D01*
X166142811Y-55881302D01*
X166063039Y-55828000D01*
X171758696Y-55828000D01*
X171504176Y-56082077D01*
X171285250Y-56609309D01*
X171284752Y-57180187D01*
X171502757Y-57707800D01*
X171906077Y-58111824D01*
X172433309Y-58330750D01*
X173004187Y-58331248D01*
X173531800Y-58113243D01*
X173935824Y-57709923D01*
X174154750Y-57182691D01*
X174155248Y-56611813D01*
X173937243Y-56084200D01*
X173681489Y-55828000D01*
X178475151Y-55828000D01*
X178277449Y-56025357D01*
X178043267Y-56589330D01*
X178042735Y-57199991D01*
X178275932Y-57764371D01*
X178443880Y-57932613D01*
X178442683Y-57932838D01*
X178226559Y-58071910D01*
X178081569Y-58284110D01*
X178030560Y-58536000D01*
X178030560Y-60336000D01*
X178074838Y-60571317D01*
X178213910Y-60787441D01*
X178426110Y-60932431D01*
X178678000Y-60983440D01*
X178818000Y-60983440D01*
X178818000Y-64516000D01*
X178875852Y-64806839D01*
X179040599Y-65053401D01*
X184406000Y-70418802D01*
X184406000Y-78358979D01*
X184314310Y-78321000D01*
X183673750Y-78321000D01*
X183515000Y-78479750D01*
X183515000Y-79629000D01*
X183535000Y-79629000D01*
X183535000Y-79883000D01*
X183515000Y-79883000D01*
X183515000Y-81032250D01*
X183673750Y-81191000D01*
X184314310Y-81191000D01*
X184406000Y-81153021D01*
X184406000Y-93726000D01*
X184463852Y-94016839D01*
X184628599Y-94263401D01*
X185026560Y-94661362D01*
X185026560Y-95758000D01*
X185070838Y-95993317D01*
X185209910Y-96209441D01*
X185422110Y-96354431D01*
X185605124Y-96391492D01*
X185252371Y-96743630D01*
X185039243Y-97256900D01*
X185038758Y-97812661D01*
X185250990Y-98326303D01*
X185528203Y-98604000D01*
X154323517Y-98604000D01*
X154599629Y-98328370D01*
X154812757Y-97815100D01*
X154813242Y-97259339D01*
X154601010Y-96745697D01*
X154208370Y-96352371D01*
X154000488Y-96266051D01*
X154206303Y-96181010D01*
X154599629Y-95788370D01*
X154812757Y-95275100D01*
X154813242Y-94719339D01*
X154601010Y-94205697D01*
X154208370Y-93812371D01*
X154000488Y-93726051D01*
X154206303Y-93641010D01*
X154599629Y-93248370D01*
X154812757Y-92735100D01*
X154813242Y-92179339D01*
X154601010Y-91665697D01*
X154208370Y-91272371D01*
X154000488Y-91186051D01*
X154206303Y-91101010D01*
X154599629Y-90708370D01*
X154812757Y-90195100D01*
X154813242Y-89639339D01*
X154601010Y-89125697D01*
X154208370Y-88732371D01*
X154000488Y-88646051D01*
X154206303Y-88561010D01*
X154599629Y-88168370D01*
X154812757Y-87655100D01*
X154813242Y-87099339D01*
X154601010Y-86585697D01*
X154208370Y-86192371D01*
X154000488Y-86106051D01*
X154206303Y-86021010D01*
X154599629Y-85628370D01*
X154812757Y-85115100D01*
X154813242Y-84559339D01*
X154601010Y-84045697D01*
X154208370Y-83652371D01*
X154000488Y-83566051D01*
X154206303Y-83481010D01*
X154599629Y-83088370D01*
X154812757Y-82575100D01*
X154813242Y-82019339D01*
X154601010Y-81505697D01*
X154208370Y-81112371D01*
X154000488Y-81026051D01*
X154206303Y-80941010D01*
X154599629Y-80548370D01*
X154812757Y-80035100D01*
X154813242Y-79479339D01*
X154601010Y-78965697D01*
X154208370Y-78572371D01*
X154000488Y-78486051D01*
X154206303Y-78401010D01*
X154599629Y-78008370D01*
X154812757Y-77495100D01*
X154813242Y-76939339D01*
X154601010Y-76425697D01*
X154208370Y-76032371D01*
X154000488Y-75946051D01*
X154206303Y-75861010D01*
X154599629Y-75468370D01*
X154812757Y-74955100D01*
X154813242Y-74399339D01*
X154601010Y-73885697D01*
X154208370Y-73492371D01*
X154000488Y-73406051D01*
X154206303Y-73321010D01*
X154599629Y-72928370D01*
X154812757Y-72415100D01*
X154813242Y-71859339D01*
X154601010Y-71345697D01*
X154208370Y-70952371D01*
X154000488Y-70866051D01*
X154206303Y-70781010D01*
X154599629Y-70388370D01*
X154812757Y-69875100D01*
X154813242Y-69319339D01*
X154601010Y-68805697D01*
X154208370Y-68412371D01*
X154000488Y-68326051D01*
X154206303Y-68241010D01*
X154599629Y-67848370D01*
X154812757Y-67335100D01*
X154813242Y-66779339D01*
X154601010Y-66265697D01*
X154208370Y-65872371D01*
X154000488Y-65786051D01*
X154206303Y-65701010D01*
X154599629Y-65308370D01*
X154812757Y-64795100D01*
X154813242Y-64239339D01*
X154601010Y-63725697D01*
X154208370Y-63332371D01*
X154000488Y-63246051D01*
X154206303Y-63161010D01*
X154599629Y-62768370D01*
X154809995Y-62261750D01*
X155233000Y-62261750D01*
X155233000Y-62952309D01*
X155329673Y-63185698D01*
X155508301Y-63364327D01*
X155741690Y-63461000D01*
X156432250Y-63461000D01*
X156591000Y-63302250D01*
X156591000Y-62103000D01*
X155391750Y-62103000D01*
X155233000Y-62261750D01*
X154809995Y-62261750D01*
X154812757Y-62255100D01*
X154813242Y-61699339D01*
X154601010Y-61185697D01*
X154415329Y-60999691D01*
X155233000Y-60999691D01*
X155233000Y-61690250D01*
X155391750Y-61849000D01*
X156591000Y-61849000D01*
X156591000Y-60649750D01*
X156845000Y-60649750D01*
X156845000Y-61849000D01*
X156865000Y-61849000D01*
X156865000Y-62103000D01*
X156845000Y-62103000D01*
X156845000Y-63302250D01*
X157003750Y-63461000D01*
X157694310Y-63461000D01*
X157927699Y-63364327D01*
X158106327Y-63185698D01*
X158178597Y-63011223D01*
X158207946Y-63055147D01*
X158689715Y-63377054D01*
X159258000Y-63490093D01*
X159826285Y-63377054D01*
X160308054Y-63055147D01*
X160528000Y-62725974D01*
X160747946Y-63055147D01*
X161229715Y-63377054D01*
X161798000Y-63490093D01*
X162366285Y-63377054D01*
X162848054Y-63055147D01*
X163068000Y-62725974D01*
X163287946Y-63055147D01*
X163769715Y-63377054D01*
X164338000Y-63490093D01*
X164906285Y-63377054D01*
X165388054Y-63055147D01*
X165709961Y-62573378D01*
X165823000Y-62005093D01*
X165823000Y-61946907D01*
X165709961Y-61378622D01*
X165388054Y-60896853D01*
X164906285Y-60574946D01*
X164338000Y-60461907D01*
X163769715Y-60574946D01*
X163287946Y-60896853D01*
X163068000Y-61226026D01*
X162848054Y-60896853D01*
X162366285Y-60574946D01*
X161798000Y-60461907D01*
X161229715Y-60574946D01*
X160747946Y-60896853D01*
X160528000Y-61226026D01*
X160308054Y-60896853D01*
X159826285Y-60574946D01*
X159258000Y-60461907D01*
X158689715Y-60574946D01*
X158207946Y-60896853D01*
X158178597Y-60940777D01*
X158106327Y-60766302D01*
X157927699Y-60587673D01*
X157694310Y-60491000D01*
X157003750Y-60491000D01*
X156845000Y-60649750D01*
X156591000Y-60649750D01*
X156432250Y-60491000D01*
X155741690Y-60491000D01*
X155508301Y-60587673D01*
X155329673Y-60766302D01*
X155233000Y-60999691D01*
X154415329Y-60999691D01*
X154208370Y-60792371D01*
X154000488Y-60706051D01*
X154206303Y-60621010D01*
X154599629Y-60228370D01*
X154812757Y-59715100D01*
X154813242Y-59159339D01*
X154601010Y-58645697D01*
X154208370Y-58252371D01*
X154000488Y-58166051D01*
X154206303Y-58081010D01*
X154599629Y-57688370D01*
X154812757Y-57175100D01*
X154813242Y-56619339D01*
X154601010Y-56105697D01*
X154323797Y-55828000D01*
X155406498Y-55828000D01*
X155092039Y-56298622D01*
G36*
X151003000Y-56769000D02*
X151023000Y-56769000D01*
X151023000Y-57023000D01*
X151003000Y-57023000D01*
X151003000Y-57043000D01*
X150749000Y-57043000D01*
X150749000Y-57023000D01*
X150729000Y-57023000D01*
X150729000Y-56769000D01*
X150749000Y-56769000D01*
X150749000Y-56749000D01*
X151003000Y-56749000D01*
X151003000Y-56769000D01*
X151003000Y-56769000D01*
G37*
X151003000Y-56769000D02*
X151023000Y-56769000D01*
X151023000Y-57023000D01*
X151003000Y-57023000D01*
X151003000Y-57043000D01*
X150749000Y-57043000D01*
X150749000Y-57023000D01*
X150729000Y-57023000D01*
X150729000Y-56769000D01*
X150749000Y-56769000D01*
X150749000Y-56749000D01*
X151003000Y-56749000D01*
X151003000Y-56769000D01*
M02*
