G04 #@! TF.FileFunction,Legend,Top*
%FSLAX46Y46*%
G04 Gerber Fmt 4.6, Leading zero omitted, Abs format (unit mm)*
G04 Created by KiCad (PCBNEW 4.0.7-e2-6376~58~ubuntu16.04.1) date Sat Apr 14 23:56:37 2018*
%MOMM*%
%LPD*%
G01*
G04 APERTURE LIST*
%ADD10C,0.100000*%
%ADD11C,0.120000*%
%ADD12C,0.150000*%
G04 APERTURE END LIST*
D10*
D11*
X124696000Y-72622000D02*
X124696000Y-77322000D01*
X124696000Y-77322000D02*
X136796000Y-77322000D01*
X136796000Y-77322000D02*
X136796000Y-72622000D01*
X136796000Y-72622000D02*
X124696000Y-72622000D01*
X127246000Y-72622000D02*
X127246000Y-73222000D01*
X127246000Y-73222000D02*
X125296000Y-73222000D01*
X125296000Y-73222000D02*
X125296000Y-76722000D01*
X125296000Y-76722000D02*
X136196000Y-76722000D01*
X136196000Y-76722000D02*
X136196000Y-73222000D01*
X136196000Y-73222000D02*
X134246000Y-73222000D01*
X134246000Y-73222000D02*
X134246000Y-72622000D01*
X124696000Y-73922000D02*
X125296000Y-73922000D01*
X124696000Y-75222000D02*
X125296000Y-75222000D01*
X136796000Y-73922000D02*
X136196000Y-73922000D01*
X136796000Y-75222000D02*
X136196000Y-75222000D01*
X126446000Y-72622000D02*
X126446000Y-72422000D01*
X126446000Y-72422000D02*
X126146000Y-72422000D01*
X126146000Y-72422000D02*
X126146000Y-72622000D01*
X126446000Y-72522000D02*
X126146000Y-72522000D01*
X127646000Y-76722000D02*
X127646000Y-76222000D01*
X127646000Y-76222000D02*
X127846000Y-76222000D01*
X127846000Y-76222000D02*
X127846000Y-76722000D01*
X127746000Y-76722000D02*
X127746000Y-76222000D01*
X129646000Y-76722000D02*
X129646000Y-76222000D01*
X129646000Y-76222000D02*
X129846000Y-76222000D01*
X129846000Y-76222000D02*
X129846000Y-76722000D01*
X129746000Y-76722000D02*
X129746000Y-76222000D01*
X131646000Y-76722000D02*
X131646000Y-76222000D01*
X131646000Y-76222000D02*
X131846000Y-76222000D01*
X131846000Y-76222000D02*
X131846000Y-76722000D01*
X131746000Y-76722000D02*
X131746000Y-76222000D01*
X133646000Y-76722000D02*
X133646000Y-76222000D01*
X133646000Y-76222000D02*
X133846000Y-76222000D01*
X133846000Y-76222000D02*
X133846000Y-76722000D01*
X133746000Y-76722000D02*
X133746000Y-76222000D01*
X125646000Y-72322000D02*
X124396000Y-72322000D01*
X124396000Y-72322000D02*
X124396000Y-73572000D01*
D12*
X112776000Y-64262000D02*
X112776000Y-98298000D01*
X112776000Y-98298000D02*
X123825000Y-98298000D01*
X112776000Y-64262000D02*
X123825000Y-64262000D01*
X123825000Y-64262000D02*
X123825000Y-98298000D01*
D11*
X115824000Y-63306000D02*
X123504000Y-63306000D01*
X123504000Y-63306000D02*
X123504000Y-60646000D01*
X123504000Y-60646000D02*
X115824000Y-60646000D01*
X115824000Y-60646000D02*
X115824000Y-63306000D01*
X114554000Y-63306000D02*
X113224000Y-63306000D01*
X113224000Y-63306000D02*
X113224000Y-61976000D01*
X140342000Y-65786000D02*
X140342000Y-65906000D01*
X140342000Y-65906000D02*
X143122000Y-65906000D01*
X143122000Y-65906000D02*
X143122000Y-65786000D01*
X143122000Y-65786000D02*
X140342000Y-65786000D01*
X140342000Y-64516000D02*
X140342000Y-63126000D01*
X140342000Y-63126000D02*
X141732000Y-63126000D01*
X140342000Y-60706000D02*
X140342000Y-63366000D01*
X140342000Y-63366000D02*
X143122000Y-63366000D01*
X143122000Y-63366000D02*
X143122000Y-60706000D01*
X143122000Y-60706000D02*
X140342000Y-60706000D01*
X140342000Y-59436000D02*
X140342000Y-58046000D01*
X140342000Y-58046000D02*
X141732000Y-58046000D01*
X115570000Y-55506000D02*
X112910000Y-55506000D01*
X112910000Y-55506000D02*
X112910000Y-58286000D01*
X112910000Y-58286000D02*
X115570000Y-58286000D01*
X115570000Y-58286000D02*
X115570000Y-55506000D01*
X116840000Y-55506000D02*
X118230000Y-55506000D01*
X118230000Y-55506000D02*
X118230000Y-56896000D01*
X129956000Y-57876000D02*
X129956000Y-58206000D01*
X129956000Y-58206000D02*
X123536000Y-58206000D01*
X123536000Y-58206000D02*
X123536000Y-57876000D01*
X129956000Y-55916000D02*
X129956000Y-55586000D01*
X129956000Y-55586000D02*
X123536000Y-55586000D01*
X123536000Y-55586000D02*
X123536000Y-55916000D01*
X139954000Y-78366000D02*
X124594000Y-78366000D01*
X124594000Y-78366000D02*
X124594000Y-81146000D01*
X124594000Y-81146000D02*
X139954000Y-81146000D01*
X139954000Y-81146000D02*
X139954000Y-78366000D01*
X141224000Y-78366000D02*
X142614000Y-78366000D01*
X142614000Y-78366000D02*
X142614000Y-79756000D01*
X136335392Y-56493665D02*
G75*
G03X136178484Y-59726000I1078608J-1672335D01*
G01*
X138492608Y-56493665D02*
G75*
G02X138649516Y-59726000I-1078608J-1672335D01*
G01*
X136334163Y-57124870D02*
G75*
G03X136334000Y-59206961I1079837J-1041130D01*
G01*
X138493837Y-57124870D02*
G75*
G02X138494000Y-59206961I-1079837J-1041130D01*
G01*
X136178000Y-59726000D02*
X136334000Y-59726000D01*
X138494000Y-59726000D02*
X138650000Y-59726000D01*
D12*
X125178000Y-66316000D02*
X127178000Y-66316000D01*
X125178000Y-65516000D02*
X125978000Y-65516000D01*
X127178000Y-66316000D02*
X127178000Y-67116000D01*
X132378000Y-66316000D02*
X130978000Y-66316000D01*
X130978000Y-66316000D02*
X130778000Y-66316000D01*
X130778000Y-66316000D02*
X130578000Y-66316000D01*
X130578000Y-66316000D02*
X130578000Y-66916000D01*
X130578000Y-66916000D02*
X130578000Y-67116000D01*
X130578000Y-67116000D02*
X130578000Y-66916000D01*
X125978000Y-65516000D02*
X125978000Y-62316000D01*
X125978000Y-62316000D02*
X131578000Y-62316000D01*
X131578000Y-62316000D02*
X131578000Y-65316000D01*
X131578000Y-65316000D02*
X132378000Y-65316000D01*
X125178000Y-61516000D02*
X132378000Y-61516000D01*
X132378000Y-61516000D02*
X132378000Y-67116000D01*
X132378000Y-67116000D02*
X125178000Y-67116000D01*
X125178000Y-67116000D02*
X125178000Y-61516000D01*
X167342000Y-66316000D02*
X169342000Y-66316000D01*
X167342000Y-65516000D02*
X168142000Y-65516000D01*
X169342000Y-66316000D02*
X169342000Y-67116000D01*
X174542000Y-66316000D02*
X173142000Y-66316000D01*
X173142000Y-66316000D02*
X172942000Y-66316000D01*
X172942000Y-66316000D02*
X172742000Y-66316000D01*
X172742000Y-66316000D02*
X172742000Y-66916000D01*
X172742000Y-66916000D02*
X172742000Y-67116000D01*
X172742000Y-67116000D02*
X172742000Y-66916000D01*
X168142000Y-65516000D02*
X168142000Y-62316000D01*
X168142000Y-62316000D02*
X173742000Y-62316000D01*
X173742000Y-62316000D02*
X173742000Y-65316000D01*
X173742000Y-65316000D02*
X174542000Y-65316000D01*
X167342000Y-61516000D02*
X174542000Y-61516000D01*
X174542000Y-61516000D02*
X174542000Y-67116000D01*
X174542000Y-67116000D02*
X167342000Y-67116000D01*
X167342000Y-67116000D02*
X167342000Y-61516000D01*
D11*
X178499392Y-56493665D02*
G75*
G03X178342484Y-59726000I1078608J-1672335D01*
G01*
X180656608Y-56493665D02*
G75*
G02X180813516Y-59726000I-1078608J-1672335D01*
G01*
X178498163Y-57124870D02*
G75*
G03X178498000Y-59206961I1079837J-1041130D01*
G01*
X180657837Y-57124870D02*
G75*
G02X180658000Y-59206961I-1079837J-1041130D01*
G01*
X178342000Y-59726000D02*
X178498000Y-59726000D01*
X180658000Y-59726000D02*
X180814000Y-59726000D01*
X182118000Y-78366000D02*
X166758000Y-78366000D01*
X166758000Y-78366000D02*
X166758000Y-81146000D01*
X166758000Y-81146000D02*
X182118000Y-81146000D01*
X182118000Y-81146000D02*
X182118000Y-78366000D01*
X183388000Y-78366000D02*
X184778000Y-78366000D01*
X184778000Y-78366000D02*
X184778000Y-79756000D01*
X172120000Y-57876000D02*
X172120000Y-58206000D01*
X172120000Y-58206000D02*
X165700000Y-58206000D01*
X165700000Y-58206000D02*
X165700000Y-57876000D01*
X172120000Y-55916000D02*
X172120000Y-55586000D01*
X172120000Y-55586000D02*
X165700000Y-55586000D01*
X165700000Y-55586000D02*
X165700000Y-55916000D01*
X157734000Y-55506000D02*
X155074000Y-55506000D01*
X155074000Y-55506000D02*
X155074000Y-58286000D01*
X155074000Y-58286000D02*
X157734000Y-58286000D01*
X157734000Y-58286000D02*
X157734000Y-55506000D01*
X159004000Y-55506000D02*
X160394000Y-55506000D01*
X160394000Y-55506000D02*
X160394000Y-56896000D01*
X182506000Y-60706000D02*
X182506000Y-63366000D01*
X182506000Y-63366000D02*
X185286000Y-63366000D01*
X185286000Y-63366000D02*
X185286000Y-60706000D01*
X185286000Y-60706000D02*
X182506000Y-60706000D01*
X182506000Y-59436000D02*
X182506000Y-58046000D01*
X182506000Y-58046000D02*
X183896000Y-58046000D01*
X182506000Y-65786000D02*
X182506000Y-65906000D01*
X182506000Y-65906000D02*
X185286000Y-65906000D01*
X185286000Y-65906000D02*
X185286000Y-65786000D01*
X185286000Y-65786000D02*
X182506000Y-65786000D01*
X182506000Y-64516000D02*
X182506000Y-63126000D01*
X182506000Y-63126000D02*
X183896000Y-63126000D01*
D12*
X154940000Y-64262000D02*
X154940000Y-98298000D01*
X154940000Y-98298000D02*
X165989000Y-98298000D01*
X154940000Y-64262000D02*
X165989000Y-64262000D01*
X165989000Y-64262000D02*
X165989000Y-98298000D01*
D11*
X157988000Y-63306000D02*
X165668000Y-63306000D01*
X165668000Y-63306000D02*
X165668000Y-60646000D01*
X165668000Y-60646000D02*
X157988000Y-60646000D01*
X157988000Y-60646000D02*
X157988000Y-63306000D01*
X156718000Y-63306000D02*
X155388000Y-63306000D01*
X155388000Y-63306000D02*
X155388000Y-61976000D01*
X166860000Y-72622000D02*
X166860000Y-77322000D01*
X166860000Y-77322000D02*
X178960000Y-77322000D01*
X178960000Y-77322000D02*
X178960000Y-72622000D01*
X178960000Y-72622000D02*
X166860000Y-72622000D01*
X169410000Y-72622000D02*
X169410000Y-73222000D01*
X169410000Y-73222000D02*
X167460000Y-73222000D01*
X167460000Y-73222000D02*
X167460000Y-76722000D01*
X167460000Y-76722000D02*
X178360000Y-76722000D01*
X178360000Y-76722000D02*
X178360000Y-73222000D01*
X178360000Y-73222000D02*
X176410000Y-73222000D01*
X176410000Y-73222000D02*
X176410000Y-72622000D01*
X166860000Y-73922000D02*
X167460000Y-73922000D01*
X166860000Y-75222000D02*
X167460000Y-75222000D01*
X178960000Y-73922000D02*
X178360000Y-73922000D01*
X178960000Y-75222000D02*
X178360000Y-75222000D01*
X168610000Y-72622000D02*
X168610000Y-72422000D01*
X168610000Y-72422000D02*
X168310000Y-72422000D01*
X168310000Y-72422000D02*
X168310000Y-72622000D01*
X168610000Y-72522000D02*
X168310000Y-72522000D01*
X169810000Y-76722000D02*
X169810000Y-76222000D01*
X169810000Y-76222000D02*
X170010000Y-76222000D01*
X170010000Y-76222000D02*
X170010000Y-76722000D01*
X169910000Y-76722000D02*
X169910000Y-76222000D01*
X171810000Y-76722000D02*
X171810000Y-76222000D01*
X171810000Y-76222000D02*
X172010000Y-76222000D01*
X172010000Y-76222000D02*
X172010000Y-76722000D01*
X171910000Y-76722000D02*
X171910000Y-76222000D01*
X173810000Y-76722000D02*
X173810000Y-76222000D01*
X173810000Y-76222000D02*
X174010000Y-76222000D01*
X174010000Y-76222000D02*
X174010000Y-76722000D01*
X173910000Y-76722000D02*
X173910000Y-76222000D01*
X175810000Y-76722000D02*
X175810000Y-76222000D01*
X175810000Y-76222000D02*
X176010000Y-76222000D01*
X176010000Y-76222000D02*
X176010000Y-76722000D01*
X175910000Y-76722000D02*
X175910000Y-76222000D01*
X167810000Y-72322000D02*
X166560000Y-72322000D01*
X166560000Y-72322000D02*
X166560000Y-73572000D01*
X166860000Y-116818000D02*
X166860000Y-121518000D01*
X166860000Y-121518000D02*
X178960000Y-121518000D01*
X178960000Y-121518000D02*
X178960000Y-116818000D01*
X178960000Y-116818000D02*
X166860000Y-116818000D01*
X169410000Y-116818000D02*
X169410000Y-117418000D01*
X169410000Y-117418000D02*
X167460000Y-117418000D01*
X167460000Y-117418000D02*
X167460000Y-120918000D01*
X167460000Y-120918000D02*
X178360000Y-120918000D01*
X178360000Y-120918000D02*
X178360000Y-117418000D01*
X178360000Y-117418000D02*
X176410000Y-117418000D01*
X176410000Y-117418000D02*
X176410000Y-116818000D01*
X166860000Y-118118000D02*
X167460000Y-118118000D01*
X166860000Y-119418000D02*
X167460000Y-119418000D01*
X178960000Y-118118000D02*
X178360000Y-118118000D01*
X178960000Y-119418000D02*
X178360000Y-119418000D01*
X168610000Y-116818000D02*
X168610000Y-116618000D01*
X168610000Y-116618000D02*
X168310000Y-116618000D01*
X168310000Y-116618000D02*
X168310000Y-116818000D01*
X168610000Y-116718000D02*
X168310000Y-116718000D01*
X169810000Y-120918000D02*
X169810000Y-120418000D01*
X169810000Y-120418000D02*
X170010000Y-120418000D01*
X170010000Y-120418000D02*
X170010000Y-120918000D01*
X169910000Y-120918000D02*
X169910000Y-120418000D01*
X171810000Y-120918000D02*
X171810000Y-120418000D01*
X171810000Y-120418000D02*
X172010000Y-120418000D01*
X172010000Y-120418000D02*
X172010000Y-120918000D01*
X171910000Y-120918000D02*
X171910000Y-120418000D01*
X173810000Y-120918000D02*
X173810000Y-120418000D01*
X173810000Y-120418000D02*
X174010000Y-120418000D01*
X174010000Y-120418000D02*
X174010000Y-120918000D01*
X173910000Y-120918000D02*
X173910000Y-120418000D01*
X175810000Y-120918000D02*
X175810000Y-120418000D01*
X175810000Y-120418000D02*
X176010000Y-120418000D01*
X176010000Y-120418000D02*
X176010000Y-120918000D01*
X175910000Y-120918000D02*
X175910000Y-120418000D01*
X167810000Y-116518000D02*
X166560000Y-116518000D01*
X166560000Y-116518000D02*
X166560000Y-117768000D01*
D12*
X154940000Y-108458000D02*
X154940000Y-142494000D01*
X154940000Y-142494000D02*
X165989000Y-142494000D01*
X154940000Y-108458000D02*
X165989000Y-108458000D01*
X165989000Y-108458000D02*
X165989000Y-142494000D01*
D11*
X157988000Y-107502000D02*
X165668000Y-107502000D01*
X165668000Y-107502000D02*
X165668000Y-104842000D01*
X165668000Y-104842000D02*
X157988000Y-104842000D01*
X157988000Y-104842000D02*
X157988000Y-107502000D01*
X156718000Y-107502000D02*
X155388000Y-107502000D01*
X155388000Y-107502000D02*
X155388000Y-106172000D01*
X182506000Y-109982000D02*
X182506000Y-110102000D01*
X182506000Y-110102000D02*
X185286000Y-110102000D01*
X185286000Y-110102000D02*
X185286000Y-109982000D01*
X185286000Y-109982000D02*
X182506000Y-109982000D01*
X182506000Y-108712000D02*
X182506000Y-107322000D01*
X182506000Y-107322000D02*
X183896000Y-107322000D01*
X182506000Y-104902000D02*
X182506000Y-107562000D01*
X182506000Y-107562000D02*
X185286000Y-107562000D01*
X185286000Y-107562000D02*
X185286000Y-104902000D01*
X185286000Y-104902000D02*
X182506000Y-104902000D01*
X182506000Y-103632000D02*
X182506000Y-102242000D01*
X182506000Y-102242000D02*
X183896000Y-102242000D01*
X157734000Y-99702000D02*
X155074000Y-99702000D01*
X155074000Y-99702000D02*
X155074000Y-102482000D01*
X155074000Y-102482000D02*
X157734000Y-102482000D01*
X157734000Y-102482000D02*
X157734000Y-99702000D01*
X159004000Y-99702000D02*
X160394000Y-99702000D01*
X160394000Y-99702000D02*
X160394000Y-101092000D01*
X172120000Y-102072000D02*
X172120000Y-102402000D01*
X172120000Y-102402000D02*
X165700000Y-102402000D01*
X165700000Y-102402000D02*
X165700000Y-102072000D01*
X172120000Y-100112000D02*
X172120000Y-99782000D01*
X172120000Y-99782000D02*
X165700000Y-99782000D01*
X165700000Y-99782000D02*
X165700000Y-100112000D01*
X182118000Y-122562000D02*
X166758000Y-122562000D01*
X166758000Y-122562000D02*
X166758000Y-125342000D01*
X166758000Y-125342000D02*
X182118000Y-125342000D01*
X182118000Y-125342000D02*
X182118000Y-122562000D01*
X183388000Y-122562000D02*
X184778000Y-122562000D01*
X184778000Y-122562000D02*
X184778000Y-123952000D01*
X178499392Y-100689665D02*
G75*
G03X178342484Y-103922000I1078608J-1672335D01*
G01*
X180656608Y-100689665D02*
G75*
G02X180813516Y-103922000I-1078608J-1672335D01*
G01*
X178498163Y-101320870D02*
G75*
G03X178498000Y-103402961I1079837J-1041130D01*
G01*
X180657837Y-101320870D02*
G75*
G02X180658000Y-103402961I-1079837J-1041130D01*
G01*
X178342000Y-103922000D02*
X178498000Y-103922000D01*
X180658000Y-103922000D02*
X180814000Y-103922000D01*
D12*
X167342000Y-110512000D02*
X169342000Y-110512000D01*
X167342000Y-109712000D02*
X168142000Y-109712000D01*
X169342000Y-110512000D02*
X169342000Y-111312000D01*
X174542000Y-110512000D02*
X173142000Y-110512000D01*
X173142000Y-110512000D02*
X172942000Y-110512000D01*
X172942000Y-110512000D02*
X172742000Y-110512000D01*
X172742000Y-110512000D02*
X172742000Y-111112000D01*
X172742000Y-111112000D02*
X172742000Y-111312000D01*
X172742000Y-111312000D02*
X172742000Y-111112000D01*
X168142000Y-109712000D02*
X168142000Y-106512000D01*
X168142000Y-106512000D02*
X173742000Y-106512000D01*
X173742000Y-106512000D02*
X173742000Y-109512000D01*
X173742000Y-109512000D02*
X174542000Y-109512000D01*
X167342000Y-105712000D02*
X174542000Y-105712000D01*
X174542000Y-105712000D02*
X174542000Y-111312000D01*
X174542000Y-111312000D02*
X167342000Y-111312000D01*
X167342000Y-111312000D02*
X167342000Y-105712000D01*
X125178000Y-110512000D02*
X127178000Y-110512000D01*
X125178000Y-109712000D02*
X125978000Y-109712000D01*
X127178000Y-110512000D02*
X127178000Y-111312000D01*
X132378000Y-110512000D02*
X130978000Y-110512000D01*
X130978000Y-110512000D02*
X130778000Y-110512000D01*
X130778000Y-110512000D02*
X130578000Y-110512000D01*
X130578000Y-110512000D02*
X130578000Y-111112000D01*
X130578000Y-111112000D02*
X130578000Y-111312000D01*
X130578000Y-111312000D02*
X130578000Y-111112000D01*
X125978000Y-109712000D02*
X125978000Y-106512000D01*
X125978000Y-106512000D02*
X131578000Y-106512000D01*
X131578000Y-106512000D02*
X131578000Y-109512000D01*
X131578000Y-109512000D02*
X132378000Y-109512000D01*
X125178000Y-105712000D02*
X132378000Y-105712000D01*
X132378000Y-105712000D02*
X132378000Y-111312000D01*
X132378000Y-111312000D02*
X125178000Y-111312000D01*
X125178000Y-111312000D02*
X125178000Y-105712000D01*
D11*
X136335392Y-100689665D02*
G75*
G03X136178484Y-103922000I1078608J-1672335D01*
G01*
X138492608Y-100689665D02*
G75*
G02X138649516Y-103922000I-1078608J-1672335D01*
G01*
X136334163Y-101320870D02*
G75*
G03X136334000Y-103402961I1079837J-1041130D01*
G01*
X138493837Y-101320870D02*
G75*
G02X138494000Y-103402961I-1079837J-1041130D01*
G01*
X136178000Y-103922000D02*
X136334000Y-103922000D01*
X138494000Y-103922000D02*
X138650000Y-103922000D01*
X139954000Y-122562000D02*
X124594000Y-122562000D01*
X124594000Y-122562000D02*
X124594000Y-125342000D01*
X124594000Y-125342000D02*
X139954000Y-125342000D01*
X139954000Y-125342000D02*
X139954000Y-122562000D01*
X141224000Y-122562000D02*
X142614000Y-122562000D01*
X142614000Y-122562000D02*
X142614000Y-123952000D01*
X129956000Y-102072000D02*
X129956000Y-102402000D01*
X129956000Y-102402000D02*
X123536000Y-102402000D01*
X123536000Y-102402000D02*
X123536000Y-102072000D01*
X129956000Y-100112000D02*
X129956000Y-99782000D01*
X129956000Y-99782000D02*
X123536000Y-99782000D01*
X123536000Y-99782000D02*
X123536000Y-100112000D01*
X115570000Y-99702000D02*
X112910000Y-99702000D01*
X112910000Y-99702000D02*
X112910000Y-102482000D01*
X112910000Y-102482000D02*
X115570000Y-102482000D01*
X115570000Y-102482000D02*
X115570000Y-99702000D01*
X116840000Y-99702000D02*
X118230000Y-99702000D01*
X118230000Y-99702000D02*
X118230000Y-101092000D01*
X140342000Y-104902000D02*
X140342000Y-107562000D01*
X140342000Y-107562000D02*
X143122000Y-107562000D01*
X143122000Y-107562000D02*
X143122000Y-104902000D01*
X143122000Y-104902000D02*
X140342000Y-104902000D01*
X140342000Y-103632000D02*
X140342000Y-102242000D01*
X140342000Y-102242000D02*
X141732000Y-102242000D01*
X140342000Y-109982000D02*
X140342000Y-110102000D01*
X140342000Y-110102000D02*
X143122000Y-110102000D01*
X143122000Y-110102000D02*
X143122000Y-109982000D01*
X143122000Y-109982000D02*
X140342000Y-109982000D01*
X140342000Y-108712000D02*
X140342000Y-107322000D01*
X140342000Y-107322000D02*
X141732000Y-107322000D01*
D12*
X112776000Y-108458000D02*
X112776000Y-142494000D01*
X112776000Y-142494000D02*
X123825000Y-142494000D01*
X112776000Y-108458000D02*
X123825000Y-108458000D01*
X123825000Y-108458000D02*
X123825000Y-142494000D01*
D11*
X115824000Y-107502000D02*
X123504000Y-107502000D01*
X123504000Y-107502000D02*
X123504000Y-104842000D01*
X123504000Y-104842000D02*
X115824000Y-104842000D01*
X115824000Y-104842000D02*
X115824000Y-107502000D01*
X114554000Y-107502000D02*
X113224000Y-107502000D01*
X113224000Y-107502000D02*
X113224000Y-106172000D01*
X124696000Y-116818000D02*
X124696000Y-121518000D01*
X124696000Y-121518000D02*
X136796000Y-121518000D01*
X136796000Y-121518000D02*
X136796000Y-116818000D01*
X136796000Y-116818000D02*
X124696000Y-116818000D01*
X127246000Y-116818000D02*
X127246000Y-117418000D01*
X127246000Y-117418000D02*
X125296000Y-117418000D01*
X125296000Y-117418000D02*
X125296000Y-120918000D01*
X125296000Y-120918000D02*
X136196000Y-120918000D01*
X136196000Y-120918000D02*
X136196000Y-117418000D01*
X136196000Y-117418000D02*
X134246000Y-117418000D01*
X134246000Y-117418000D02*
X134246000Y-116818000D01*
X124696000Y-118118000D02*
X125296000Y-118118000D01*
X124696000Y-119418000D02*
X125296000Y-119418000D01*
X136796000Y-118118000D02*
X136196000Y-118118000D01*
X136796000Y-119418000D02*
X136196000Y-119418000D01*
X126446000Y-116818000D02*
X126446000Y-116618000D01*
X126446000Y-116618000D02*
X126146000Y-116618000D01*
X126146000Y-116618000D02*
X126146000Y-116818000D01*
X126446000Y-116718000D02*
X126146000Y-116718000D01*
X127646000Y-120918000D02*
X127646000Y-120418000D01*
X127646000Y-120418000D02*
X127846000Y-120418000D01*
X127846000Y-120418000D02*
X127846000Y-120918000D01*
X127746000Y-120918000D02*
X127746000Y-120418000D01*
X129646000Y-120918000D02*
X129646000Y-120418000D01*
X129646000Y-120418000D02*
X129846000Y-120418000D01*
X129846000Y-120418000D02*
X129846000Y-120918000D01*
X129746000Y-120918000D02*
X129746000Y-120418000D01*
X131646000Y-120918000D02*
X131646000Y-120418000D01*
X131646000Y-120418000D02*
X131846000Y-120418000D01*
X131846000Y-120418000D02*
X131846000Y-120918000D01*
X131746000Y-120918000D02*
X131746000Y-120418000D01*
X133646000Y-120918000D02*
X133646000Y-120418000D01*
X133646000Y-120418000D02*
X133846000Y-120418000D01*
X133846000Y-120418000D02*
X133846000Y-120918000D01*
X133746000Y-120918000D02*
X133746000Y-120418000D01*
X125646000Y-116518000D02*
X124396000Y-116518000D01*
X124396000Y-116518000D02*
X124396000Y-117768000D01*
D12*
X127507905Y-72074381D02*
X127507905Y-71074381D01*
X127888858Y-71074381D01*
X127984096Y-71122000D01*
X128031715Y-71169619D01*
X128079334Y-71264857D01*
X128079334Y-71407714D01*
X128031715Y-71502952D01*
X127984096Y-71550571D01*
X127888858Y-71598190D01*
X127507905Y-71598190D01*
X128984096Y-71074381D02*
X128507905Y-71074381D01*
X128460286Y-71550571D01*
X128507905Y-71502952D01*
X128603143Y-71455333D01*
X128841239Y-71455333D01*
X128936477Y-71502952D01*
X128984096Y-71550571D01*
X129031715Y-71645810D01*
X129031715Y-71883905D01*
X128984096Y-71979143D01*
X128936477Y-72026762D01*
X128841239Y-72074381D01*
X128603143Y-72074381D01*
X128507905Y-72026762D01*
X128460286Y-71979143D01*
X112676381Y-62714095D02*
X111676381Y-62714095D01*
X111676381Y-62333142D01*
X111724000Y-62237904D01*
X111771619Y-62190285D01*
X111866857Y-62142666D01*
X112009714Y-62142666D01*
X112104952Y-62190285D01*
X112152571Y-62237904D01*
X112200190Y-62333142D01*
X112200190Y-62714095D01*
X112009714Y-61285523D02*
X112676381Y-61285523D01*
X111628762Y-61523619D02*
X112343048Y-61761714D01*
X112343048Y-61142666D01*
X140993905Y-62578381D02*
X140993905Y-61578381D01*
X141374858Y-61578381D01*
X141470096Y-61626000D01*
X141517715Y-61673619D01*
X141565334Y-61768857D01*
X141565334Y-61911714D01*
X141517715Y-62006952D01*
X141470096Y-62054571D01*
X141374858Y-62102190D01*
X140993905Y-62102190D01*
X141946286Y-61673619D02*
X141993905Y-61626000D01*
X142089143Y-61578381D01*
X142327239Y-61578381D01*
X142422477Y-61626000D01*
X142470096Y-61673619D01*
X142517715Y-61768857D01*
X142517715Y-61864095D01*
X142470096Y-62006952D01*
X141898667Y-62578381D01*
X142517715Y-62578381D01*
X140993905Y-57498381D02*
X140993905Y-56498381D01*
X141374858Y-56498381D01*
X141470096Y-56546000D01*
X141517715Y-56593619D01*
X141565334Y-56688857D01*
X141565334Y-56831714D01*
X141517715Y-56926952D01*
X141470096Y-56974571D01*
X141374858Y-57022190D01*
X140993905Y-57022190D01*
X141898667Y-56498381D02*
X142517715Y-56498381D01*
X142184381Y-56879333D01*
X142327239Y-56879333D01*
X142422477Y-56926952D01*
X142470096Y-56974571D01*
X142517715Y-57069810D01*
X142517715Y-57307905D01*
X142470096Y-57403143D01*
X142422477Y-57450762D01*
X142327239Y-57498381D01*
X142041524Y-57498381D01*
X141946286Y-57450762D01*
X141898667Y-57403143D01*
X119634762Y-58229333D02*
X119682381Y-58086476D01*
X119682381Y-57848380D01*
X119634762Y-57753142D01*
X119587143Y-57705523D01*
X119491905Y-57657904D01*
X119396667Y-57657904D01*
X119301429Y-57705523D01*
X119253810Y-57753142D01*
X119206190Y-57848380D01*
X119158571Y-58038857D01*
X119110952Y-58134095D01*
X119063333Y-58181714D01*
X118968095Y-58229333D01*
X118872857Y-58229333D01*
X118777619Y-58181714D01*
X118730000Y-58134095D01*
X118682381Y-58038857D01*
X118682381Y-57800761D01*
X118730000Y-57657904D01*
X118682381Y-57324571D02*
X119682381Y-57086476D01*
X118968095Y-56895999D01*
X119682381Y-56705523D01*
X118682381Y-56467428D01*
X119682381Y-55562666D02*
X119682381Y-56134095D01*
X119682381Y-55848381D02*
X118682381Y-55848381D01*
X118825238Y-55943619D01*
X118920476Y-56038857D01*
X118968095Y-56134095D01*
X126579334Y-59658381D02*
X126246000Y-59182190D01*
X126007905Y-59658381D02*
X126007905Y-58658381D01*
X126388858Y-58658381D01*
X126484096Y-58706000D01*
X126531715Y-58753619D01*
X126579334Y-58848857D01*
X126579334Y-58991714D01*
X126531715Y-59086952D01*
X126484096Y-59134571D01*
X126388858Y-59182190D01*
X126007905Y-59182190D01*
X126912667Y-58658381D02*
X127531715Y-58658381D01*
X127198381Y-59039333D01*
X127341239Y-59039333D01*
X127436477Y-59086952D01*
X127484096Y-59134571D01*
X127531715Y-59229810D01*
X127531715Y-59467905D01*
X127484096Y-59563143D01*
X127436477Y-59610762D01*
X127341239Y-59658381D01*
X127055524Y-59658381D01*
X126960286Y-59610762D01*
X126912667Y-59563143D01*
X144066381Y-80494095D02*
X143066381Y-80494095D01*
X143066381Y-80113142D01*
X143114000Y-80017904D01*
X143161619Y-79970285D01*
X143256857Y-79922666D01*
X143399714Y-79922666D01*
X143494952Y-79970285D01*
X143542571Y-80017904D01*
X143590190Y-80113142D01*
X143590190Y-80494095D01*
X144066381Y-78970285D02*
X144066381Y-79541714D01*
X144066381Y-79256000D02*
X143066381Y-79256000D01*
X143209238Y-79351238D01*
X143304476Y-79446476D01*
X143352095Y-79541714D01*
X134906381Y-58904095D02*
X133906381Y-58904095D01*
X133906381Y-58666000D01*
X133954000Y-58523142D01*
X134049238Y-58427904D01*
X134144476Y-58380285D01*
X134334952Y-58332666D01*
X134477810Y-58332666D01*
X134668286Y-58380285D01*
X134763524Y-58427904D01*
X134858762Y-58523142D01*
X134906381Y-58666000D01*
X134906381Y-58904095D01*
X134906381Y-57380285D02*
X134906381Y-57951714D01*
X134906381Y-57666000D02*
X133906381Y-57666000D01*
X134049238Y-57761238D01*
X134144476Y-57856476D01*
X134192095Y-57951714D01*
X131816095Y-59768381D02*
X131816095Y-60577905D01*
X131863714Y-60673143D01*
X131911333Y-60720762D01*
X132006571Y-60768381D01*
X132197048Y-60768381D01*
X132292286Y-60720762D01*
X132339905Y-60673143D01*
X132387524Y-60577905D01*
X132387524Y-59768381D01*
X133387524Y-60768381D02*
X132816095Y-60768381D01*
X133101809Y-60768381D02*
X133101809Y-59768381D01*
X133006571Y-59911238D01*
X132911333Y-60006476D01*
X132816095Y-60054095D01*
X173980095Y-59768381D02*
X173980095Y-60577905D01*
X174027714Y-60673143D01*
X174075333Y-60720762D01*
X174170571Y-60768381D01*
X174361048Y-60768381D01*
X174456286Y-60720762D01*
X174503905Y-60673143D01*
X174551524Y-60577905D01*
X174551524Y-59768381D01*
X175551524Y-60768381D02*
X174980095Y-60768381D01*
X175265809Y-60768381D02*
X175265809Y-59768381D01*
X175170571Y-59911238D01*
X175075333Y-60006476D01*
X174980095Y-60054095D01*
X177070381Y-58904095D02*
X176070381Y-58904095D01*
X176070381Y-58666000D01*
X176118000Y-58523142D01*
X176213238Y-58427904D01*
X176308476Y-58380285D01*
X176498952Y-58332666D01*
X176641810Y-58332666D01*
X176832286Y-58380285D01*
X176927524Y-58427904D01*
X177022762Y-58523142D01*
X177070381Y-58666000D01*
X177070381Y-58904095D01*
X177070381Y-57380285D02*
X177070381Y-57951714D01*
X177070381Y-57666000D02*
X176070381Y-57666000D01*
X176213238Y-57761238D01*
X176308476Y-57856476D01*
X176356095Y-57951714D01*
X186230381Y-80494095D02*
X185230381Y-80494095D01*
X185230381Y-80113142D01*
X185278000Y-80017904D01*
X185325619Y-79970285D01*
X185420857Y-79922666D01*
X185563714Y-79922666D01*
X185658952Y-79970285D01*
X185706571Y-80017904D01*
X185754190Y-80113142D01*
X185754190Y-80494095D01*
X186230381Y-78970285D02*
X186230381Y-79541714D01*
X186230381Y-79256000D02*
X185230381Y-79256000D01*
X185373238Y-79351238D01*
X185468476Y-79446476D01*
X185516095Y-79541714D01*
X168743334Y-59658381D02*
X168410000Y-59182190D01*
X168171905Y-59658381D02*
X168171905Y-58658381D01*
X168552858Y-58658381D01*
X168648096Y-58706000D01*
X168695715Y-58753619D01*
X168743334Y-58848857D01*
X168743334Y-58991714D01*
X168695715Y-59086952D01*
X168648096Y-59134571D01*
X168552858Y-59182190D01*
X168171905Y-59182190D01*
X169076667Y-58658381D02*
X169695715Y-58658381D01*
X169362381Y-59039333D01*
X169505239Y-59039333D01*
X169600477Y-59086952D01*
X169648096Y-59134571D01*
X169695715Y-59229810D01*
X169695715Y-59467905D01*
X169648096Y-59563143D01*
X169600477Y-59610762D01*
X169505239Y-59658381D01*
X169219524Y-59658381D01*
X169124286Y-59610762D01*
X169076667Y-59563143D01*
X161798762Y-58229333D02*
X161846381Y-58086476D01*
X161846381Y-57848380D01*
X161798762Y-57753142D01*
X161751143Y-57705523D01*
X161655905Y-57657904D01*
X161560667Y-57657904D01*
X161465429Y-57705523D01*
X161417810Y-57753142D01*
X161370190Y-57848380D01*
X161322571Y-58038857D01*
X161274952Y-58134095D01*
X161227333Y-58181714D01*
X161132095Y-58229333D01*
X161036857Y-58229333D01*
X160941619Y-58181714D01*
X160894000Y-58134095D01*
X160846381Y-58038857D01*
X160846381Y-57800761D01*
X160894000Y-57657904D01*
X160846381Y-57324571D02*
X161846381Y-57086476D01*
X161132095Y-56895999D01*
X161846381Y-56705523D01*
X160846381Y-56467428D01*
X161846381Y-55562666D02*
X161846381Y-56134095D01*
X161846381Y-55848381D02*
X160846381Y-55848381D01*
X160989238Y-55943619D01*
X161084476Y-56038857D01*
X161132095Y-56134095D01*
X183157905Y-57498381D02*
X183157905Y-56498381D01*
X183538858Y-56498381D01*
X183634096Y-56546000D01*
X183681715Y-56593619D01*
X183729334Y-56688857D01*
X183729334Y-56831714D01*
X183681715Y-56926952D01*
X183634096Y-56974571D01*
X183538858Y-57022190D01*
X183157905Y-57022190D01*
X184062667Y-56498381D02*
X184681715Y-56498381D01*
X184348381Y-56879333D01*
X184491239Y-56879333D01*
X184586477Y-56926952D01*
X184634096Y-56974571D01*
X184681715Y-57069810D01*
X184681715Y-57307905D01*
X184634096Y-57403143D01*
X184586477Y-57450762D01*
X184491239Y-57498381D01*
X184205524Y-57498381D01*
X184110286Y-57450762D01*
X184062667Y-57403143D01*
X183157905Y-62578381D02*
X183157905Y-61578381D01*
X183538858Y-61578381D01*
X183634096Y-61626000D01*
X183681715Y-61673619D01*
X183729334Y-61768857D01*
X183729334Y-61911714D01*
X183681715Y-62006952D01*
X183634096Y-62054571D01*
X183538858Y-62102190D01*
X183157905Y-62102190D01*
X184110286Y-61673619D02*
X184157905Y-61626000D01*
X184253143Y-61578381D01*
X184491239Y-61578381D01*
X184586477Y-61626000D01*
X184634096Y-61673619D01*
X184681715Y-61768857D01*
X184681715Y-61864095D01*
X184634096Y-62006952D01*
X184062667Y-62578381D01*
X184681715Y-62578381D01*
X154840381Y-62714095D02*
X153840381Y-62714095D01*
X153840381Y-62333142D01*
X153888000Y-62237904D01*
X153935619Y-62190285D01*
X154030857Y-62142666D01*
X154173714Y-62142666D01*
X154268952Y-62190285D01*
X154316571Y-62237904D01*
X154364190Y-62333142D01*
X154364190Y-62714095D01*
X154173714Y-61285523D02*
X154840381Y-61285523D01*
X153792762Y-61523619D02*
X154507048Y-61761714D01*
X154507048Y-61142666D01*
X169671905Y-72074381D02*
X169671905Y-71074381D01*
X170052858Y-71074381D01*
X170148096Y-71122000D01*
X170195715Y-71169619D01*
X170243334Y-71264857D01*
X170243334Y-71407714D01*
X170195715Y-71502952D01*
X170148096Y-71550571D01*
X170052858Y-71598190D01*
X169671905Y-71598190D01*
X171148096Y-71074381D02*
X170671905Y-71074381D01*
X170624286Y-71550571D01*
X170671905Y-71502952D01*
X170767143Y-71455333D01*
X171005239Y-71455333D01*
X171100477Y-71502952D01*
X171148096Y-71550571D01*
X171195715Y-71645810D01*
X171195715Y-71883905D01*
X171148096Y-71979143D01*
X171100477Y-72026762D01*
X171005239Y-72074381D01*
X170767143Y-72074381D01*
X170671905Y-72026762D01*
X170624286Y-71979143D01*
X169671905Y-116270381D02*
X169671905Y-115270381D01*
X170052858Y-115270381D01*
X170148096Y-115318000D01*
X170195715Y-115365619D01*
X170243334Y-115460857D01*
X170243334Y-115603714D01*
X170195715Y-115698952D01*
X170148096Y-115746571D01*
X170052858Y-115794190D01*
X169671905Y-115794190D01*
X171148096Y-115270381D02*
X170671905Y-115270381D01*
X170624286Y-115746571D01*
X170671905Y-115698952D01*
X170767143Y-115651333D01*
X171005239Y-115651333D01*
X171100477Y-115698952D01*
X171148096Y-115746571D01*
X171195715Y-115841810D01*
X171195715Y-116079905D01*
X171148096Y-116175143D01*
X171100477Y-116222762D01*
X171005239Y-116270381D01*
X170767143Y-116270381D01*
X170671905Y-116222762D01*
X170624286Y-116175143D01*
X154840381Y-106910095D02*
X153840381Y-106910095D01*
X153840381Y-106529142D01*
X153888000Y-106433904D01*
X153935619Y-106386285D01*
X154030857Y-106338666D01*
X154173714Y-106338666D01*
X154268952Y-106386285D01*
X154316571Y-106433904D01*
X154364190Y-106529142D01*
X154364190Y-106910095D01*
X154173714Y-105481523D02*
X154840381Y-105481523D01*
X153792762Y-105719619D02*
X154507048Y-105957714D01*
X154507048Y-105338666D01*
X183157905Y-106774381D02*
X183157905Y-105774381D01*
X183538858Y-105774381D01*
X183634096Y-105822000D01*
X183681715Y-105869619D01*
X183729334Y-105964857D01*
X183729334Y-106107714D01*
X183681715Y-106202952D01*
X183634096Y-106250571D01*
X183538858Y-106298190D01*
X183157905Y-106298190D01*
X184110286Y-105869619D02*
X184157905Y-105822000D01*
X184253143Y-105774381D01*
X184491239Y-105774381D01*
X184586477Y-105822000D01*
X184634096Y-105869619D01*
X184681715Y-105964857D01*
X184681715Y-106060095D01*
X184634096Y-106202952D01*
X184062667Y-106774381D01*
X184681715Y-106774381D01*
X183157905Y-101694381D02*
X183157905Y-100694381D01*
X183538858Y-100694381D01*
X183634096Y-100742000D01*
X183681715Y-100789619D01*
X183729334Y-100884857D01*
X183729334Y-101027714D01*
X183681715Y-101122952D01*
X183634096Y-101170571D01*
X183538858Y-101218190D01*
X183157905Y-101218190D01*
X184062667Y-100694381D02*
X184681715Y-100694381D01*
X184348381Y-101075333D01*
X184491239Y-101075333D01*
X184586477Y-101122952D01*
X184634096Y-101170571D01*
X184681715Y-101265810D01*
X184681715Y-101503905D01*
X184634096Y-101599143D01*
X184586477Y-101646762D01*
X184491239Y-101694381D01*
X184205524Y-101694381D01*
X184110286Y-101646762D01*
X184062667Y-101599143D01*
X161798762Y-102425333D02*
X161846381Y-102282476D01*
X161846381Y-102044380D01*
X161798762Y-101949142D01*
X161751143Y-101901523D01*
X161655905Y-101853904D01*
X161560667Y-101853904D01*
X161465429Y-101901523D01*
X161417810Y-101949142D01*
X161370190Y-102044380D01*
X161322571Y-102234857D01*
X161274952Y-102330095D01*
X161227333Y-102377714D01*
X161132095Y-102425333D01*
X161036857Y-102425333D01*
X160941619Y-102377714D01*
X160894000Y-102330095D01*
X160846381Y-102234857D01*
X160846381Y-101996761D01*
X160894000Y-101853904D01*
X160846381Y-101520571D02*
X161846381Y-101282476D01*
X161132095Y-101091999D01*
X161846381Y-100901523D01*
X160846381Y-100663428D01*
X161846381Y-99758666D02*
X161846381Y-100330095D01*
X161846381Y-100044381D02*
X160846381Y-100044381D01*
X160989238Y-100139619D01*
X161084476Y-100234857D01*
X161132095Y-100330095D01*
X168743334Y-103854381D02*
X168410000Y-103378190D01*
X168171905Y-103854381D02*
X168171905Y-102854381D01*
X168552858Y-102854381D01*
X168648096Y-102902000D01*
X168695715Y-102949619D01*
X168743334Y-103044857D01*
X168743334Y-103187714D01*
X168695715Y-103282952D01*
X168648096Y-103330571D01*
X168552858Y-103378190D01*
X168171905Y-103378190D01*
X169076667Y-102854381D02*
X169695715Y-102854381D01*
X169362381Y-103235333D01*
X169505239Y-103235333D01*
X169600477Y-103282952D01*
X169648096Y-103330571D01*
X169695715Y-103425810D01*
X169695715Y-103663905D01*
X169648096Y-103759143D01*
X169600477Y-103806762D01*
X169505239Y-103854381D01*
X169219524Y-103854381D01*
X169124286Y-103806762D01*
X169076667Y-103759143D01*
X186230381Y-124690095D02*
X185230381Y-124690095D01*
X185230381Y-124309142D01*
X185278000Y-124213904D01*
X185325619Y-124166285D01*
X185420857Y-124118666D01*
X185563714Y-124118666D01*
X185658952Y-124166285D01*
X185706571Y-124213904D01*
X185754190Y-124309142D01*
X185754190Y-124690095D01*
X186230381Y-123166285D02*
X186230381Y-123737714D01*
X186230381Y-123452000D02*
X185230381Y-123452000D01*
X185373238Y-123547238D01*
X185468476Y-123642476D01*
X185516095Y-123737714D01*
X177070381Y-103100095D02*
X176070381Y-103100095D01*
X176070381Y-102862000D01*
X176118000Y-102719142D01*
X176213238Y-102623904D01*
X176308476Y-102576285D01*
X176498952Y-102528666D01*
X176641810Y-102528666D01*
X176832286Y-102576285D01*
X176927524Y-102623904D01*
X177022762Y-102719142D01*
X177070381Y-102862000D01*
X177070381Y-103100095D01*
X177070381Y-101576285D02*
X177070381Y-102147714D01*
X177070381Y-101862000D02*
X176070381Y-101862000D01*
X176213238Y-101957238D01*
X176308476Y-102052476D01*
X176356095Y-102147714D01*
X173980095Y-103964381D02*
X173980095Y-104773905D01*
X174027714Y-104869143D01*
X174075333Y-104916762D01*
X174170571Y-104964381D01*
X174361048Y-104964381D01*
X174456286Y-104916762D01*
X174503905Y-104869143D01*
X174551524Y-104773905D01*
X174551524Y-103964381D01*
X175551524Y-104964381D02*
X174980095Y-104964381D01*
X175265809Y-104964381D02*
X175265809Y-103964381D01*
X175170571Y-104107238D01*
X175075333Y-104202476D01*
X174980095Y-104250095D01*
X131816095Y-103964381D02*
X131816095Y-104773905D01*
X131863714Y-104869143D01*
X131911333Y-104916762D01*
X132006571Y-104964381D01*
X132197048Y-104964381D01*
X132292286Y-104916762D01*
X132339905Y-104869143D01*
X132387524Y-104773905D01*
X132387524Y-103964381D01*
X133387524Y-104964381D02*
X132816095Y-104964381D01*
X133101809Y-104964381D02*
X133101809Y-103964381D01*
X133006571Y-104107238D01*
X132911333Y-104202476D01*
X132816095Y-104250095D01*
X134906381Y-103100095D02*
X133906381Y-103100095D01*
X133906381Y-102862000D01*
X133954000Y-102719142D01*
X134049238Y-102623904D01*
X134144476Y-102576285D01*
X134334952Y-102528666D01*
X134477810Y-102528666D01*
X134668286Y-102576285D01*
X134763524Y-102623904D01*
X134858762Y-102719142D01*
X134906381Y-102862000D01*
X134906381Y-103100095D01*
X134906381Y-101576285D02*
X134906381Y-102147714D01*
X134906381Y-101862000D02*
X133906381Y-101862000D01*
X134049238Y-101957238D01*
X134144476Y-102052476D01*
X134192095Y-102147714D01*
X144066381Y-124690095D02*
X143066381Y-124690095D01*
X143066381Y-124309142D01*
X143114000Y-124213904D01*
X143161619Y-124166285D01*
X143256857Y-124118666D01*
X143399714Y-124118666D01*
X143494952Y-124166285D01*
X143542571Y-124213904D01*
X143590190Y-124309142D01*
X143590190Y-124690095D01*
X144066381Y-123166285D02*
X144066381Y-123737714D01*
X144066381Y-123452000D02*
X143066381Y-123452000D01*
X143209238Y-123547238D01*
X143304476Y-123642476D01*
X143352095Y-123737714D01*
X126579334Y-103854381D02*
X126246000Y-103378190D01*
X126007905Y-103854381D02*
X126007905Y-102854381D01*
X126388858Y-102854381D01*
X126484096Y-102902000D01*
X126531715Y-102949619D01*
X126579334Y-103044857D01*
X126579334Y-103187714D01*
X126531715Y-103282952D01*
X126484096Y-103330571D01*
X126388858Y-103378190D01*
X126007905Y-103378190D01*
X126912667Y-102854381D02*
X127531715Y-102854381D01*
X127198381Y-103235333D01*
X127341239Y-103235333D01*
X127436477Y-103282952D01*
X127484096Y-103330571D01*
X127531715Y-103425810D01*
X127531715Y-103663905D01*
X127484096Y-103759143D01*
X127436477Y-103806762D01*
X127341239Y-103854381D01*
X127055524Y-103854381D01*
X126960286Y-103806762D01*
X126912667Y-103759143D01*
X119634762Y-102425333D02*
X119682381Y-102282476D01*
X119682381Y-102044380D01*
X119634762Y-101949142D01*
X119587143Y-101901523D01*
X119491905Y-101853904D01*
X119396667Y-101853904D01*
X119301429Y-101901523D01*
X119253810Y-101949142D01*
X119206190Y-102044380D01*
X119158571Y-102234857D01*
X119110952Y-102330095D01*
X119063333Y-102377714D01*
X118968095Y-102425333D01*
X118872857Y-102425333D01*
X118777619Y-102377714D01*
X118730000Y-102330095D01*
X118682381Y-102234857D01*
X118682381Y-101996761D01*
X118730000Y-101853904D01*
X118682381Y-101520571D02*
X119682381Y-101282476D01*
X118968095Y-101091999D01*
X119682381Y-100901523D01*
X118682381Y-100663428D01*
X119682381Y-99758666D02*
X119682381Y-100330095D01*
X119682381Y-100044381D02*
X118682381Y-100044381D01*
X118825238Y-100139619D01*
X118920476Y-100234857D01*
X118968095Y-100330095D01*
X140993905Y-101694381D02*
X140993905Y-100694381D01*
X141374858Y-100694381D01*
X141470096Y-100742000D01*
X141517715Y-100789619D01*
X141565334Y-100884857D01*
X141565334Y-101027714D01*
X141517715Y-101122952D01*
X141470096Y-101170571D01*
X141374858Y-101218190D01*
X140993905Y-101218190D01*
X141898667Y-100694381D02*
X142517715Y-100694381D01*
X142184381Y-101075333D01*
X142327239Y-101075333D01*
X142422477Y-101122952D01*
X142470096Y-101170571D01*
X142517715Y-101265810D01*
X142517715Y-101503905D01*
X142470096Y-101599143D01*
X142422477Y-101646762D01*
X142327239Y-101694381D01*
X142041524Y-101694381D01*
X141946286Y-101646762D01*
X141898667Y-101599143D01*
X140993905Y-106774381D02*
X140993905Y-105774381D01*
X141374858Y-105774381D01*
X141470096Y-105822000D01*
X141517715Y-105869619D01*
X141565334Y-105964857D01*
X141565334Y-106107714D01*
X141517715Y-106202952D01*
X141470096Y-106250571D01*
X141374858Y-106298190D01*
X140993905Y-106298190D01*
X141946286Y-105869619D02*
X141993905Y-105822000D01*
X142089143Y-105774381D01*
X142327239Y-105774381D01*
X142422477Y-105822000D01*
X142470096Y-105869619D01*
X142517715Y-105964857D01*
X142517715Y-106060095D01*
X142470096Y-106202952D01*
X141898667Y-106774381D01*
X142517715Y-106774381D01*
X112676381Y-106910095D02*
X111676381Y-106910095D01*
X111676381Y-106529142D01*
X111724000Y-106433904D01*
X111771619Y-106386285D01*
X111866857Y-106338666D01*
X112009714Y-106338666D01*
X112104952Y-106386285D01*
X112152571Y-106433904D01*
X112200190Y-106529142D01*
X112200190Y-106910095D01*
X112009714Y-105481523D02*
X112676381Y-105481523D01*
X111628762Y-105719619D02*
X112343048Y-105957714D01*
X112343048Y-105338666D01*
X127507905Y-116270381D02*
X127507905Y-115270381D01*
X127888858Y-115270381D01*
X127984096Y-115318000D01*
X128031715Y-115365619D01*
X128079334Y-115460857D01*
X128079334Y-115603714D01*
X128031715Y-115698952D01*
X127984096Y-115746571D01*
X127888858Y-115794190D01*
X127507905Y-115794190D01*
X128984096Y-115270381D02*
X128507905Y-115270381D01*
X128460286Y-115746571D01*
X128507905Y-115698952D01*
X128603143Y-115651333D01*
X128841239Y-115651333D01*
X128936477Y-115698952D01*
X128984096Y-115746571D01*
X129031715Y-115841810D01*
X129031715Y-116079905D01*
X128984096Y-116175143D01*
X128936477Y-116222762D01*
X128841239Y-116270381D01*
X128603143Y-116270381D01*
X128507905Y-116222762D01*
X128460286Y-116175143D01*
M02*
