%TF.GenerationSoftware,KiCad,Pcbnew,6.0.7-f9a2dced07~116~ubuntu20.04.1*%
%TF.CreationDate,2022-09-18T16:57:55+02:00*%
%TF.ProjectId,SRRReceiver,53525252-6563-4656-9976-65722e6b6963,rev?*%
%TF.SameCoordinates,Original*%
%TF.FileFunction,Copper,L1,Top*%
%TF.FilePolarity,Positive*%
%FSLAX46Y46*%
G04 Gerber Fmt 4.6, Leading zero omitted, Abs format (unit mm)*
G04 Created by KiCad (PCBNEW 6.0.7-f9a2dced07~116~ubuntu20.04.1) date 2022-09-18 16:57:55*
%MOMM*%
%LPD*%
G01*
G04 APERTURE LIST*
G04 Aperture macros list*
%AMRoundRect*
0 Rectangle with rounded corners*
0 $1 Rounding radius*
0 $2 $3 $4 $5 $6 $7 $8 $9 X,Y pos of 4 corners*
0 Add a 4 corners polygon primitive as box body*
4,1,4,$2,$3,$4,$5,$6,$7,$8,$9,$2,$3,0*
0 Add four circle primitives for the rounded corners*
1,1,$1+$1,$2,$3*
1,1,$1+$1,$4,$5*
1,1,$1+$1,$6,$7*
1,1,$1+$1,$8,$9*
0 Add four rect primitives between the rounded corners*
20,1,$1+$1,$2,$3,$4,$5,0*
20,1,$1+$1,$4,$5,$6,$7,0*
20,1,$1+$1,$6,$7,$8,$9,0*
20,1,$1+$1,$8,$9,$2,$3,0*%
G04 Aperture macros list end*
%TA.AperFunction,SMDPad,CuDef*%
%ADD10RoundRect,0.140000X0.170000X-0.140000X0.170000X0.140000X-0.170000X0.140000X-0.170000X-0.140000X0*%
%TD*%
%TA.AperFunction,SMDPad,CuDef*%
%ADD11RoundRect,0.140000X-0.170000X0.140000X-0.170000X-0.140000X0.170000X-0.140000X0.170000X0.140000X0*%
%TD*%
%TA.AperFunction,SMDPad,CuDef*%
%ADD12RoundRect,0.140000X-0.140000X-0.170000X0.140000X-0.170000X0.140000X0.170000X-0.140000X0.170000X0*%
%TD*%
%TA.AperFunction,SMDPad,CuDef*%
%ADD13RoundRect,0.147500X0.147500X0.172500X-0.147500X0.172500X-0.147500X-0.172500X0.147500X-0.172500X0*%
%TD*%
%TA.AperFunction,SMDPad,CuDef*%
%ADD14RoundRect,0.140000X0.140000X0.170000X-0.140000X0.170000X-0.140000X-0.170000X0.140000X-0.170000X0*%
%TD*%
%TA.AperFunction,ConnectorPad*%
%ADD15R,0.500000X0.500000*%
%TD*%
%TA.AperFunction,ComponentPad*%
%ADD16R,0.500000X0.900000*%
%TD*%
%TA.AperFunction,SMDPad,CuDef*%
%ADD17RoundRect,0.062500X-0.425000X-0.062500X0.425000X-0.062500X0.425000X0.062500X-0.425000X0.062500X0*%
%TD*%
%TA.AperFunction,SMDPad,CuDef*%
%ADD18RoundRect,0.062500X-0.062500X-0.425000X0.062500X-0.425000X0.062500X0.425000X-0.062500X0.425000X0*%
%TD*%
%TA.AperFunction,SMDPad,CuDef*%
%ADD19R,2.400000X2.400000*%
%TD*%
%TA.AperFunction,SMDPad,CuDef*%
%ADD20RoundRect,0.062500X0.425000X0.062500X-0.425000X0.062500X-0.425000X-0.062500X0.425000X-0.062500X0*%
%TD*%
%TA.AperFunction,SMDPad,CuDef*%
%ADD21RoundRect,0.062500X0.062500X0.425000X-0.062500X0.425000X-0.062500X-0.425000X0.062500X-0.425000X0*%
%TD*%
%TA.AperFunction,SMDPad,CuDef*%
%ADD22RoundRect,0.147500X-0.147500X-0.172500X0.147500X-0.172500X0.147500X0.172500X-0.147500X0.172500X0*%
%TD*%
%TA.AperFunction,SMDPad,CuDef*%
%ADD23RoundRect,0.147500X0.172500X-0.147500X0.172500X0.147500X-0.172500X0.147500X-0.172500X-0.147500X0*%
%TD*%
%TA.AperFunction,SMDPad,CuDef*%
%ADD24R,1.600000X1.300000*%
%TD*%
%TA.AperFunction,SMDPad,CuDef*%
%ADD25RoundRect,0.135000X-0.135000X-0.185000X0.135000X-0.185000X0.135000X0.185000X-0.135000X0.185000X0*%
%TD*%
%TA.AperFunction,SMDPad,CuDef*%
%ADD26RoundRect,0.147500X-0.172500X0.147500X-0.172500X-0.147500X0.172500X-0.147500X0.172500X0.147500X0*%
%TD*%
%TA.AperFunction,SMDPad,CuDef*%
%ADD27RoundRect,0.135000X0.135000X0.185000X-0.135000X0.185000X-0.135000X-0.185000X0.135000X-0.185000X0*%
%TD*%
%TA.AperFunction,ViaPad*%
%ADD28C,0.500000*%
%TD*%
%TA.AperFunction,Conductor*%
%ADD29C,0.250000*%
%TD*%
G04 APERTURE END LIST*
%TO.C,AE2*%
G36*
X138150000Y-87100000D02*
G01*
X135510000Y-87100000D01*
X135510000Y-89100000D01*
X138150000Y-89100000D01*
X138150000Y-91800000D01*
X135510000Y-91800000D01*
X135510000Y-93800000D01*
X138150000Y-93800000D01*
X138150000Y-96500000D01*
X133710000Y-96500000D01*
X133710000Y-96000000D01*
X137650000Y-96000000D01*
X137650000Y-94300000D01*
X135010000Y-94300000D01*
X135010000Y-91300000D01*
X137650000Y-91300000D01*
X137650000Y-89600000D01*
X135010000Y-89600000D01*
X135010000Y-86600000D01*
X137650000Y-86600000D01*
X137650000Y-84900000D01*
X132750000Y-84900000D01*
X132750000Y-84400000D01*
X137650000Y-84400000D01*
X137650000Y-83000000D01*
X132750000Y-83000000D01*
X132750000Y-82524844D01*
X132853957Y-82524844D01*
X132854700Y-82573363D01*
X132867600Y-82618878D01*
X132878213Y-82637489D01*
X132913447Y-82671132D01*
X132958632Y-82691691D01*
X133008158Y-82698222D01*
X133056417Y-82689782D01*
X133088643Y-82672888D01*
X133121313Y-82637628D01*
X133141408Y-82592318D01*
X133147982Y-82542733D01*
X133140092Y-82494647D01*
X133123186Y-82461755D01*
X133086416Y-82426815D01*
X133041622Y-82407153D01*
X132993215Y-82402417D01*
X132945605Y-82412258D01*
X132903203Y-82436326D01*
X132870419Y-82474269D01*
X132866065Y-82482181D01*
X132853957Y-82524844D01*
X132750000Y-82524844D01*
X132750000Y-82100000D01*
X138150000Y-82100000D01*
X138150000Y-87100000D01*
G37*
%TO.C,AE1*%
G36*
X110450000Y-91350000D02*
G01*
X113090000Y-91350000D01*
X113090000Y-89350000D01*
X110450000Y-89350000D01*
X110450000Y-86650000D01*
X113090000Y-86650000D01*
X113090000Y-84650000D01*
X110450000Y-84650000D01*
X110450000Y-81950000D01*
X114890000Y-81950000D01*
X114890000Y-82450000D01*
X110950000Y-82450000D01*
X110950000Y-84150000D01*
X113590000Y-84150000D01*
X113590000Y-87150000D01*
X110950000Y-87150000D01*
X110950000Y-88850000D01*
X113590000Y-88850000D01*
X113590000Y-91850000D01*
X110950000Y-91850000D01*
X110950000Y-93550000D01*
X115850000Y-93550000D01*
X115850000Y-94050000D01*
X110950000Y-94050000D01*
X110950000Y-95450000D01*
X115850000Y-95450000D01*
X115850000Y-96350000D01*
X110450000Y-96350000D01*
X110450000Y-95907267D01*
X115452018Y-95907267D01*
X115459908Y-95955353D01*
X115476814Y-95988245D01*
X115513584Y-96023185D01*
X115558378Y-96042847D01*
X115606785Y-96047583D01*
X115654395Y-96037742D01*
X115696797Y-96013674D01*
X115729581Y-95975731D01*
X115733935Y-95967819D01*
X115746043Y-95925156D01*
X115745300Y-95876637D01*
X115732400Y-95831122D01*
X115721787Y-95812511D01*
X115686553Y-95778868D01*
X115641368Y-95758309D01*
X115591842Y-95751778D01*
X115543583Y-95760218D01*
X115511357Y-95777112D01*
X115478687Y-95812372D01*
X115458592Y-95857682D01*
X115452018Y-95907267D01*
X110450000Y-95907267D01*
X110450000Y-91350000D01*
G37*
%TD*%
D10*
%TO.P,C5,1*%
%TO.N,GND*%
X124237500Y-98780000D03*
%TO.P,C5,2*%
%TO.N,VDD*%
X124237500Y-97820000D03*
%TD*%
D11*
%TO.P,C6,1*%
%TO.N,GND*%
X124400000Y-91908154D03*
%TO.P,C6,2*%
%TO.N,VDD*%
X124400000Y-92868154D03*
%TD*%
D12*
%TO.P,C7,1*%
%TO.N,GND*%
X125098750Y-90788154D03*
%TO.P,C7,2*%
%TO.N,Net-(C7-Pad2)*%
X126058750Y-90788154D03*
%TD*%
%TO.P,C32,1*%
%TO.N,Net-(C30-Pad1)*%
X127920000Y-83350000D03*
%TO.P,C32,2*%
%TO.N,Net-(C32-Pad2)*%
X128880000Y-83350000D03*
%TD*%
D13*
%TO.P,L6,1,1*%
%TO.N,Net-(AE2-Pad1)*%
X131085000Y-83800000D03*
%TO.P,L6,2,2*%
%TO.N,Net-(C32-Pad2)*%
X130115000Y-83800000D03*
%TD*%
D10*
%TO.P,C31,1*%
%TO.N,GND*%
X126800000Y-85230000D03*
%TO.P,C31,2*%
%TO.N,Net-(C29-Pad1)*%
X126800000Y-84270000D03*
%TD*%
D13*
%TO.P,L5,1,1*%
%TO.N,Net-(C32-Pad2)*%
X128885000Y-84400000D03*
%TO.P,L5,2,2*%
%TO.N,Net-(C29-Pad1)*%
X127915000Y-84400000D03*
%TD*%
D14*
%TO.P,C18,1*%
%TO.N,GND*%
X123580000Y-88600000D03*
%TO.P,C18,2*%
%TO.N,Net-(C18-Pad2)*%
X122620000Y-88600000D03*
%TD*%
D11*
%TO.P,C15,1*%
%TO.N,GND*%
X121600000Y-94020000D03*
%TO.P,C15,2*%
%TO.N,Net-(C13-Pad1)*%
X121600000Y-94980000D03*
%TD*%
D15*
%TO.P,AE2,1,A*%
%TO.N,Net-(AE2-Pad1)*%
X133000000Y-84650000D03*
D16*
%TO.P,AE2,2,Shield*%
%TO.N,GND*%
X133000000Y-82550000D03*
%TD*%
D17*
%TO.P,U2,1,SCLK*%
%TO.N,SPI1_SCK*%
X119012500Y-82850000D03*
%TO.P,U2,2,SO(GDO1)*%
%TO.N,SPI1_MISO*%
X119012500Y-83350000D03*
%TO.P,U2,3,GDO2*%
%TO.N,unconnected-(U2-Pad3)*%
X119012500Y-83850000D03*
%TO.P,U2,4,DVDD*%
%TO.N,VDD*%
X119012500Y-84350000D03*
%TO.P,U2,5,DCOUPL*%
X119012500Y-84850000D03*
D18*
%TO.P,U2,6,GDO0(ATEST)*%
%TO.N,GD0_INT_1*%
X119900000Y-85737500D03*
%TO.P,U2,7,~{CS}*%
%TO.N,SPI1_NSS*%
X120400000Y-85737500D03*
%TO.P,U2,8,XOSC_Q1*%
%TO.N,Net-(C20-Pad2)*%
X120900000Y-85737500D03*
%TO.P,U2,9,AVDD*%
%TO.N,VDD*%
X121400000Y-85737500D03*
%TO.P,U2,10,XOSC_Q2*%
%TO.N,Net-(C18-Pad2)*%
X121900000Y-85737500D03*
D17*
%TO.P,U2,11,AVDD*%
%TO.N,VDD*%
X122787500Y-84850000D03*
%TO.P,U2,12,RF_P*%
%TO.N,Net-(C29-Pad2)*%
X122787500Y-84350000D03*
%TO.P,U2,13,RF_N*%
%TO.N,Net-(C30-Pad2)*%
X122787500Y-83850000D03*
%TO.P,U2,14,AVDD*%
%TO.N,VDD*%
X122787500Y-83350000D03*
%TO.P,U2,15,AVDD*%
X122787500Y-82850000D03*
D18*
%TO.P,U2,16,GND*%
%TO.N,GND*%
X121900000Y-81962500D03*
%TO.P,U2,17,RBIAS*%
%TO.N,Net-(R2-Pad1)*%
X121400000Y-81962500D03*
%TO.P,U2,18,VDD_GUARD*%
%TO.N,VDD*%
X120900000Y-81962500D03*
%TO.P,U2,19,GND*%
%TO.N,GND*%
X120400000Y-81962500D03*
%TO.P,U2,20,SI*%
%TO.N,SPI1_MOSI*%
X119900000Y-81962500D03*
D19*
%TO.P,U2,21,GND*%
%TO.N,GND*%
X120900000Y-83850000D03*
%TD*%
D11*
%TO.P,C33,1*%
%TO.N,GND*%
X130100000Y-81820000D03*
%TO.P,C33,2*%
%TO.N,Net-(C32-Pad2)*%
X130100000Y-82780000D03*
%TD*%
%TO.P,C2,1*%
%TO.N,GND*%
X130978750Y-92708154D03*
%TO.P,C2,2*%
%TO.N,VDD*%
X130978750Y-93668154D03*
%TD*%
D10*
%TO.P,C28,1*%
%TO.N,GND*%
X131658750Y-96468154D03*
%TO.P,C28,2*%
%TO.N,VDD*%
X131658750Y-95508154D03*
%TD*%
D12*
%TO.P,C14,1*%
%TO.N,Net-(C14-Pad1)*%
X122720000Y-95788154D03*
%TO.P,C14,2*%
%TO.N,Net-(C14-Pad2)*%
X123680000Y-95788154D03*
%TD*%
D20*
%TO.P,U1,1,SCLK*%
%TO.N,SPI2_SCK*%
X129458750Y-96588154D03*
%TO.P,U1,2,SO(GDO1)*%
%TO.N,SPI2_MISO*%
X129458750Y-96088154D03*
%TO.P,U1,3,GDO2*%
%TO.N,unconnected-(U1-Pad3)*%
X129458750Y-95588154D03*
%TO.P,U1,4,DVDD*%
%TO.N,VDD*%
X129458750Y-95088154D03*
%TO.P,U1,5,DCOUPL*%
X129458750Y-94588154D03*
D21*
%TO.P,U1,6,GDO0(ATEST)*%
%TO.N,GD0_INT_2*%
X128571250Y-93700654D03*
%TO.P,U1,7,~{CS}*%
%TO.N,SPI2_NSS*%
X128071250Y-93700654D03*
%TO.P,U1,8,XOSC_Q1*%
%TO.N,Net-(C10-Pad2)*%
X127571250Y-93700654D03*
%TO.P,U1,9,AVDD*%
%TO.N,VDD*%
X127071250Y-93700654D03*
%TO.P,U1,10,XOSC_Q2*%
%TO.N,Net-(C7-Pad2)*%
X126571250Y-93700654D03*
D20*
%TO.P,U1,11,AVDD*%
%TO.N,VDD*%
X125683750Y-94588154D03*
%TO.P,U1,12,RF_P*%
%TO.N,Net-(C13-Pad2)*%
X125683750Y-95088154D03*
%TO.P,U1,13,RF_N*%
%TO.N,Net-(C14-Pad2)*%
X125683750Y-95588154D03*
%TO.P,U1,14,AVDD*%
%TO.N,VDD*%
X125683750Y-96088154D03*
%TO.P,U1,15,AVDD*%
X125683750Y-96588154D03*
D21*
%TO.P,U1,16,GND*%
%TO.N,GND*%
X126571250Y-97475654D03*
%TO.P,U1,17,RBIAS*%
%TO.N,Net-(R1-Pad1)*%
X127071250Y-97475654D03*
%TO.P,U1,18,VDD_GUARD*%
%TO.N,VDD*%
X127571250Y-97475654D03*
%TO.P,U1,19,GND*%
%TO.N,GND*%
X128071250Y-97475654D03*
%TO.P,U1,20,SI*%
%TO.N,SPI2_MOSI*%
X128571250Y-97475654D03*
D19*
%TO.P,U1,21,GND*%
%TO.N,GND*%
X127571250Y-95588154D03*
%TD*%
D22*
%TO.P,L2,1,1*%
%TO.N,Net-(C16-Pad2)*%
X119565000Y-94788154D03*
%TO.P,L2,2,2*%
%TO.N,Net-(C13-Pad1)*%
X120535000Y-94788154D03*
%TD*%
D10*
%TO.P,C21,1*%
%TO.N,GND*%
X116600000Y-86480000D03*
%TO.P,C21,2*%
%TO.N,VDD*%
X116600000Y-85520000D03*
%TD*%
D11*
%TO.P,C24,1*%
%TO.N,GND*%
X125600000Y-80270000D03*
%TO.P,C24,2*%
%TO.N,VDD*%
X125600000Y-81230000D03*
%TD*%
D10*
%TO.P,C25,1*%
%TO.N,GND*%
X121000000Y-88880000D03*
%TO.P,C25,2*%
%TO.N,VDD*%
X121000000Y-87920000D03*
%TD*%
D11*
%TO.P,C20,1*%
%TO.N,GND*%
X118600000Y-87720000D03*
%TO.P,C20,2*%
%TO.N,Net-(C20-Pad2)*%
X118600000Y-88680000D03*
%TD*%
%TO.P,C19,1*%
%TO.N,GND*%
X117550000Y-93270000D03*
%TO.P,C19,2*%
%TO.N,Net-(AE1-Pad1)*%
X117550000Y-94230000D03*
%TD*%
%TO.P,C1,1*%
%TO.N,GND*%
X131978750Y-92708154D03*
%TO.P,C1,2*%
%TO.N,VDD*%
X131978750Y-93668154D03*
%TD*%
%TO.P,C12,1*%
%TO.N,GND*%
X117200000Y-82720000D03*
%TO.P,C12,2*%
%TO.N,VDD*%
X117200000Y-83680000D03*
%TD*%
D14*
%TO.P,C11,1*%
%TO.N,GND*%
X128980000Y-98900000D03*
%TO.P,C11,2*%
%TO.N,VDD*%
X128020000Y-98900000D03*
%TD*%
D10*
%TO.P,C27,1*%
%TO.N,GND*%
X124200000Y-87480000D03*
%TO.P,C27,2*%
%TO.N,VDD*%
X124200000Y-86520000D03*
%TD*%
%TO.P,C3,1*%
%TO.N,GND*%
X123200000Y-98780000D03*
%TO.P,C3,2*%
%TO.N,VDD*%
X123200000Y-97820000D03*
%TD*%
D14*
%TO.P,C10,1*%
%TO.N,GND*%
X131080000Y-90400000D03*
%TO.P,C10,2*%
%TO.N,Net-(C10-Pad2)*%
X130120000Y-90400000D03*
%TD*%
%TO.P,C29,1*%
%TO.N,Net-(C29-Pad1)*%
X125730000Y-84400000D03*
%TO.P,C29,2*%
%TO.N,Net-(C29-Pad2)*%
X124770000Y-84400000D03*
%TD*%
D11*
%TO.P,C4,1*%
%TO.N,GND*%
X127978750Y-90508154D03*
%TO.P,C4,2*%
%TO.N,VDD*%
X127978750Y-91468154D03*
%TD*%
D14*
%TO.P,C16,1*%
%TO.N,Net-(C14-Pad1)*%
X120538750Y-95800000D03*
%TO.P,C16,2*%
%TO.N,Net-(C16-Pad2)*%
X119578750Y-95800000D03*
%TD*%
D23*
%TO.P,L4,1,1*%
%TO.N,Net-(C30-Pad1)*%
X126800000Y-83285000D03*
%TO.P,L4,2,2*%
%TO.N,GND*%
X126800000Y-82315000D03*
%TD*%
D14*
%TO.P,C30,1*%
%TO.N,Net-(C30-Pad1)*%
X125730000Y-83400000D03*
%TO.P,C30,2*%
%TO.N,Net-(C30-Pad2)*%
X124770000Y-83400000D03*
%TD*%
D12*
%TO.P,C13,1*%
%TO.N,Net-(C13-Pad1)*%
X122720000Y-94788154D03*
%TO.P,C13,2*%
%TO.N,Net-(C13-Pad2)*%
X123680000Y-94788154D03*
%TD*%
D24*
%TO.P,Y1,1,1*%
%TO.N,Net-(C10-Pad2)*%
X129366250Y-86988154D03*
%TO.P,Y1,2,2*%
%TO.N,GND*%
X126066250Y-86988154D03*
%TO.P,Y1,3,3*%
%TO.N,Net-(C7-Pad2)*%
X126066250Y-88988154D03*
%TO.P,Y1,4,4*%
%TO.N,GND*%
X129366250Y-88988154D03*
%TD*%
D12*
%TO.P,C23,1*%
%TO.N,GND*%
X119120000Y-80400000D03*
%TO.P,C23,2*%
%TO.N,VDD*%
X120080000Y-80400000D03*
%TD*%
D25*
%TO.P,R2,1*%
%TO.N,Net-(R2-Pad1)*%
X121890000Y-80400000D03*
%TO.P,R2,2*%
%TO.N,GND*%
X122910000Y-80400000D03*
%TD*%
D24*
%TO.P,Y2,1,1*%
%TO.N,Net-(C20-Pad2)*%
X119350000Y-92400000D03*
%TO.P,Y2,2,2*%
%TO.N,GND*%
X122650000Y-92400000D03*
%TO.P,Y2,3,3*%
%TO.N,Net-(C18-Pad2)*%
X122650000Y-90400000D03*
%TO.P,Y2,4,4*%
%TO.N,GND*%
X119350000Y-90400000D03*
%TD*%
D11*
%TO.P,C26,1*%
%TO.N,GND*%
X124500000Y-80270000D03*
%TO.P,C26,2*%
%TO.N,VDD*%
X124500000Y-81230000D03*
%TD*%
D15*
%TO.P,AE1,1,A*%
%TO.N,Net-(AE1-Pad1)*%
X115600000Y-93800000D03*
D16*
%TO.P,AE1,2,Shield*%
%TO.N,GND*%
X115600000Y-95900000D03*
%TD*%
D26*
%TO.P,L1,1,1*%
%TO.N,Net-(C14-Pad1)*%
X121600000Y-96015000D03*
%TO.P,L1,2,2*%
%TO.N,GND*%
X121600000Y-96985000D03*
%TD*%
D10*
%TO.P,C17,1*%
%TO.N,GND*%
X118458750Y-97130000D03*
%TO.P,C17,2*%
%TO.N,Net-(C16-Pad2)*%
X118458750Y-96170000D03*
%TD*%
D22*
%TO.P,L3,1,1*%
%TO.N,Net-(AE1-Pad1)*%
X117515000Y-95200000D03*
%TO.P,L3,2,2*%
%TO.N,Net-(C16-Pad2)*%
X118485000Y-95200000D03*
%TD*%
D10*
%TO.P,C34,1*%
%TO.N,GND*%
X131100000Y-85680000D03*
%TO.P,C34,2*%
%TO.N,Net-(AE2-Pad1)*%
X131100000Y-84720000D03*
%TD*%
%TO.P,C22,1*%
%TO.N,GND*%
X117600000Y-86480000D03*
%TO.P,C22,2*%
%TO.N,VDD*%
X117600000Y-85520000D03*
%TD*%
D27*
%TO.P,R1,1*%
%TO.N,Net-(R1-Pad1)*%
X126310000Y-98900000D03*
%TO.P,R1,2*%
%TO.N,GND*%
X125290000Y-98900000D03*
%TD*%
D28*
%TO.N,GND*%
X130300000Y-79250000D03*
X120300000Y-83300000D03*
X130300000Y-99300000D03*
X127100000Y-96000000D03*
X130250000Y-80400000D03*
X116500000Y-98400000D03*
X128700000Y-85700000D03*
X126850000Y-80350000D03*
X116400000Y-92600000D03*
X118874500Y-98600000D03*
X131932578Y-87123938D03*
X125100000Y-79200000D03*
X124200000Y-90700000D03*
X128750000Y-81250000D03*
X116600000Y-79200000D03*
X126300000Y-79200000D03*
X117800000Y-92000000D03*
X116400000Y-91500000D03*
X116075500Y-82700000D03*
X131800000Y-94600000D03*
X121150000Y-83300000D03*
X125650000Y-85350000D03*
X127700000Y-79200000D03*
X118000000Y-79200000D03*
X119900000Y-79200000D03*
X116500000Y-97400000D03*
X131600000Y-81500000D03*
X127850000Y-86250000D03*
X121150000Y-84200000D03*
X116600000Y-89000000D03*
X116400000Y-90400000D03*
X129968767Y-92881233D03*
X122500000Y-93900000D03*
X131800000Y-91500000D03*
X128100000Y-96000000D03*
X118600000Y-86200000D03*
X131800000Y-90400000D03*
X131650000Y-79250000D03*
X131100000Y-89300000D03*
X116300000Y-94900000D03*
X131989502Y-86000000D03*
X131650000Y-80400000D03*
X117600000Y-99400000D03*
X116500000Y-99400000D03*
X132000000Y-99200000D03*
X128850000Y-82350000D03*
X116600000Y-80200000D03*
X130900000Y-97400000D03*
X117800000Y-80000000D03*
X122200000Y-79200000D03*
X116200000Y-86850000D03*
X120900000Y-91700000D03*
X120300000Y-84200000D03*
X118750000Y-94100000D03*
X127100000Y-95100000D03*
X130300000Y-91500000D03*
X131600000Y-82550000D03*
X128050000Y-81600000D03*
X132000000Y-98100000D03*
X121700000Y-98800000D03*
X131100000Y-88100000D03*
X129100000Y-79250000D03*
X127750000Y-80350000D03*
X117050000Y-92100000D03*
X123800000Y-79200000D03*
X127100000Y-91450000D03*
X128100000Y-95100000D03*
X120700000Y-93900000D03*
X131100000Y-98600000D03*
X125200000Y-82300000D03*
X121000000Y-79600000D03*
X129100000Y-90400000D03*
X129100000Y-80350000D03*
%TO.N,SPI2_MOSI*%
X129200000Y-97600000D03*
%TO.N,SPI2_NSS*%
X129300000Y-92400000D03*
%TO.N,VDD*%
X124409502Y-85550000D03*
X125400000Y-93200000D03*
X124600000Y-96300000D03*
X123450000Y-87750000D03*
X127300000Y-99100000D03*
X127068951Y-92198355D03*
X117800000Y-84600000D03*
X130635298Y-94764702D03*
X124600000Y-94500000D03*
X121522266Y-87122266D03*
X123637500Y-82387500D03*
X122500000Y-97900000D03*
X120700000Y-80778732D03*
%TO.N,SPI2_SCK*%
X130200000Y-97800000D03*
%TO.N,SPI1_SCK*%
X117775500Y-81000000D03*
%TO.N,SPI1_MISO*%
X117000000Y-81800000D03*
%TO.N,SPI1_NSS*%
X119509436Y-87121902D03*
%TO.N,SPI2_MISO*%
X130500000Y-96100000D03*
X124000000Y-89950000D03*
%TO.N,SPI1_MOSI*%
X119400000Y-81350000D03*
%TO.N,GD0_INT_2*%
X129100000Y-93700000D03*
X117500000Y-97700000D03*
%TO.N,GD0_INT_1*%
X117236803Y-89289456D03*
X119500000Y-85650000D03*
%TD*%
D29*
%TO.N,GND*%
X128071250Y-97475654D02*
X128071250Y-96088154D01*
X125574404Y-87480000D02*
X126066250Y-86988154D01*
X128872391Y-98792391D02*
X128980000Y-98900000D01*
X128980000Y-98900000D02*
X128980000Y-98892391D01*
X122512500Y-81962500D02*
X124500000Y-79975000D01*
X128980000Y-98892391D02*
X128352609Y-98265000D01*
X124237500Y-98780000D02*
X123200000Y-98780000D01*
X121600000Y-94020000D02*
X121600000Y-93450000D01*
X124400000Y-91908154D02*
X124400000Y-91486904D01*
X126800000Y-86254404D02*
X126066250Y-86988154D01*
X120400000Y-81962500D02*
X120400000Y-83350000D01*
X126800000Y-85230000D02*
X126800000Y-86254404D01*
X124400000Y-91908154D02*
X123141846Y-91908154D01*
X126571250Y-97668212D02*
X125339462Y-98900000D01*
X124200000Y-87480000D02*
X124200000Y-87980000D01*
X124400000Y-91486904D02*
X125098750Y-90788154D01*
X128071250Y-97475654D02*
X128071250Y-98183641D01*
X128352609Y-98265000D02*
X128152609Y-98265000D01*
X121900000Y-82850000D02*
X120900000Y-83850000D01*
X123141846Y-91908154D02*
X122650000Y-92400000D01*
X126571250Y-97475654D02*
X126571250Y-97668212D01*
X121900000Y-81962500D02*
X121900000Y-82850000D01*
X125339462Y-98900000D02*
X125290000Y-98900000D01*
X126571250Y-97475654D02*
X126571250Y-96588154D01*
X128071250Y-96088154D02*
X127571250Y-95588154D01*
X121600000Y-93450000D02*
X122650000Y-92400000D01*
X124200000Y-87980000D02*
X123580000Y-88600000D01*
X124200000Y-87480000D02*
X125574404Y-87480000D01*
X128152609Y-98265000D02*
X128071250Y-98183641D01*
X126571250Y-96588154D02*
X127571250Y-95588154D01*
X120400000Y-83350000D02*
X120900000Y-83850000D01*
X121900000Y-81962500D02*
X122512500Y-81962500D01*
%TO.N,Net-(C7-Pad2)*%
X126571250Y-93700654D02*
X126571250Y-93321250D01*
X126066250Y-90780654D02*
X126066250Y-88988154D01*
X126571250Y-93321250D02*
X126058750Y-92808750D01*
X126058750Y-92808750D02*
X126058750Y-90788154D01*
X126058750Y-90788154D02*
X126066250Y-90780654D01*
%TO.N,Net-(C10-Pad2)*%
X130491250Y-88013154D02*
X129466250Y-86988154D01*
X127571250Y-93028750D02*
X130058750Y-90541250D01*
X130058750Y-90541250D02*
X130058750Y-90508154D01*
X130058750Y-90508154D02*
X130491250Y-90075654D01*
X130491250Y-90075654D02*
X130491250Y-88013154D01*
X127571250Y-93700654D02*
X127571250Y-93028750D01*
%TO.N,Net-(C13-Pad1)*%
X120535000Y-94788154D02*
X120726846Y-94980000D01*
X122528154Y-94980000D02*
X122720000Y-94788154D01*
X120726846Y-94980000D02*
X122528154Y-94980000D01*
%TO.N,Net-(AE1-Pad1)*%
X117515000Y-95200000D02*
X117413173Y-95200000D01*
X117515000Y-94265000D02*
X117550000Y-94230000D01*
X116013173Y-93800000D02*
X115600000Y-93800000D01*
X117413173Y-95200000D02*
X116013173Y-93800000D01*
X117515000Y-95200000D02*
X117515000Y-94265000D01*
%TO.N,Net-(C14-Pad1)*%
X122508154Y-96000000D02*
X121615000Y-96000000D01*
X122720000Y-95788154D02*
X122508154Y-96000000D01*
X121600000Y-96015000D02*
X121015000Y-96015000D01*
X120800000Y-95800000D02*
X120538750Y-95800000D01*
X121615000Y-96000000D02*
X121600000Y-96015000D01*
X121015000Y-96015000D02*
X120800000Y-95800000D01*
%TO.N,Net-(C14-Pad2)*%
X125683750Y-95588154D02*
X123880000Y-95588154D01*
X123880000Y-95588154D02*
X123680000Y-95788154D01*
%TO.N,Net-(C16-Pad2)*%
X118950000Y-95200000D02*
X119550000Y-95800000D01*
X118485000Y-95200000D02*
X119153154Y-95200000D01*
X118485000Y-95200000D02*
X118950000Y-95200000D01*
X119550000Y-95800000D02*
X119578750Y-95800000D01*
X119153154Y-95200000D02*
X119565000Y-94788154D01*
X118458750Y-95226250D02*
X118458750Y-96170000D01*
%TO.N,Net-(C18-Pad2)*%
X122650000Y-87224695D02*
X122650000Y-90400000D01*
X121900000Y-85737500D02*
X121900000Y-86474695D01*
X121900000Y-86474695D02*
X122650000Y-87224695D01*
%TO.N,Net-(C20-Pad2)*%
X120900000Y-86543805D02*
X120900000Y-85737500D01*
X118225000Y-91275000D02*
X118225000Y-89218805D01*
X119350000Y-92400000D02*
X118225000Y-91275000D01*
X118225000Y-89218805D02*
X120900000Y-86543805D01*
%TO.N,Net-(C29-Pad1)*%
X125860000Y-84270000D02*
X126800000Y-84270000D01*
X127785000Y-84270000D02*
X127915000Y-84400000D01*
X125730000Y-84400000D02*
X125860000Y-84270000D01*
X126800000Y-84270000D02*
X127785000Y-84270000D01*
%TO.N,Net-(C29-Pad2)*%
X122787500Y-84350000D02*
X124720000Y-84350000D01*
X124720000Y-84350000D02*
X124770000Y-84400000D01*
%TO.N,Net-(C30-Pad1)*%
X125730000Y-83400000D02*
X125845000Y-83285000D01*
X127855000Y-83285000D02*
X126800000Y-83285000D01*
X127920000Y-83350000D02*
X127855000Y-83285000D01*
X125845000Y-83285000D02*
X126800000Y-83285000D01*
%TO.N,Net-(C30-Pad2)*%
X124170000Y-83850000D02*
X124770000Y-83250000D01*
X122787500Y-83850000D02*
X124170000Y-83850000D01*
%TO.N,Net-(C32-Pad2)*%
X128885000Y-84400000D02*
X129400000Y-83885000D01*
X129400000Y-83720000D02*
X130100000Y-83720000D01*
X130100000Y-83720000D02*
X130100000Y-82815000D01*
X129400000Y-83720000D02*
X129030000Y-83350000D01*
X129030000Y-83350000D02*
X128880000Y-83350000D01*
X129400000Y-83885000D02*
X129400000Y-83720000D01*
%TO.N,SPI2_MOSI*%
X128571250Y-97475654D02*
X128871250Y-97475654D01*
X128871250Y-97475654D02*
X129075654Y-97475654D01*
X129075654Y-97475654D02*
X129200000Y-97600000D01*
%TO.N,SPI2_NSS*%
X128900000Y-92800000D02*
X128436396Y-92800000D01*
X129300000Y-92400000D02*
X128900000Y-92800000D01*
X128071250Y-93165146D02*
X128071250Y-93700654D01*
X128436396Y-92800000D02*
X128071250Y-93165146D01*
%TO.N,VDD*%
X125068154Y-92868154D02*
X124400000Y-92868154D01*
X123637500Y-82092500D02*
X124530000Y-81200000D01*
X123175000Y-82850000D02*
X123637500Y-82387500D01*
X120900000Y-80978732D02*
X120700000Y-80778732D01*
X127820000Y-99100000D02*
X128020000Y-98900000D01*
X124200000Y-85759502D02*
X124200000Y-86520000D01*
X125683750Y-96088154D02*
X124811846Y-96088154D01*
X127071250Y-92175654D02*
X127071250Y-93700654D01*
X130658750Y-94788154D02*
X130658750Y-93988154D01*
X121400000Y-85737500D02*
X121400000Y-86999294D01*
X120458732Y-80778732D02*
X120700000Y-80778732D01*
X127068951Y-92198355D02*
X127068951Y-93698355D01*
X117800000Y-84600000D02*
X117200000Y-84000000D01*
X127300000Y-99100000D02*
X127820000Y-99100000D01*
X124200000Y-97763604D02*
X124190552Y-97773052D01*
X118050000Y-84850000D02*
X117800000Y-84600000D01*
X120080000Y-80400000D02*
X120458732Y-80778732D01*
X125400000Y-93200000D02*
X125683750Y-93483750D01*
X124409502Y-85550000D02*
X123487500Y-85550000D01*
X121522619Y-87121913D02*
X121522266Y-87122266D01*
X131978750Y-93668154D02*
X130978750Y-93668154D01*
X129458750Y-94588154D02*
X130188154Y-94588154D01*
X121522266Y-87122266D02*
X121000000Y-87644532D01*
X124600000Y-96300000D02*
X124888154Y-96588154D01*
X125570000Y-81200000D02*
X125600000Y-81230000D01*
X130658750Y-94788154D02*
X130938750Y-94788154D01*
X124600000Y-96300000D02*
X124200000Y-96700000D01*
X124530000Y-81200000D02*
X125570000Y-81200000D01*
X130400000Y-94800000D02*
X130600000Y-94800000D01*
X130938750Y-94788154D02*
X131658750Y-95508154D01*
X123637500Y-82387500D02*
X123637500Y-82092500D01*
X127068951Y-93698355D02*
X127071250Y-93700654D01*
X117200000Y-84000000D02*
X117200000Y-83680000D01*
X130188154Y-94588154D02*
X130400000Y-94800000D01*
X130600000Y-94800000D02*
X130635298Y-94764702D01*
X128020000Y-98900000D02*
X127571250Y-98451250D01*
X122787500Y-82850000D02*
X122787500Y-83350000D01*
X130635298Y-94764702D02*
X130658750Y-94788154D01*
X117400000Y-85520000D02*
X117800000Y-85120000D01*
X124200000Y-96700000D02*
X124200000Y-97763604D01*
X121000000Y-87644532D02*
X121000000Y-87920000D01*
X123487500Y-85550000D02*
X122787500Y-84850000D01*
X119012500Y-84850000D02*
X118050000Y-84850000D01*
X124888154Y-96588154D02*
X125683750Y-96588154D01*
X127978750Y-91468154D02*
X127271250Y-92175654D01*
X117800000Y-85120000D02*
X117800000Y-84600000D01*
X124811846Y-96088154D02*
X124600000Y-96300000D01*
X125683750Y-96088154D02*
X125683750Y-96588154D01*
X122500000Y-97900000D02*
X123120000Y-97900000D01*
X125400000Y-93200000D02*
X125068154Y-92868154D01*
X125683750Y-93483750D02*
X125683750Y-94588154D01*
X130658750Y-93988154D02*
X130978750Y-93668154D01*
X127571250Y-98451250D02*
X127571250Y-97475654D01*
X121400000Y-86999294D02*
X121522619Y-87121913D01*
X124237500Y-97820000D02*
X123200000Y-97820000D01*
X119012500Y-84350000D02*
X119012500Y-84850000D01*
X129458750Y-94588154D02*
X129458750Y-95088154D01*
X123120000Y-97900000D02*
X123200000Y-97820000D01*
X120900000Y-80978732D02*
X120900000Y-81962500D01*
X122787500Y-82850000D02*
X123175000Y-82850000D01*
X116600000Y-85520000D02*
X117400000Y-85520000D01*
X124409502Y-85550000D02*
X124200000Y-85759502D01*
%TO.N,SPI2_SCK*%
X130200000Y-97329404D02*
X129458750Y-96588154D01*
X130200000Y-97800000D02*
X130200000Y-97329404D01*
%TO.N,Net-(R1-Pad1)*%
X127071250Y-98128750D02*
X126310000Y-98890000D01*
X126310000Y-98890000D02*
X126310000Y-98900000D01*
X127071250Y-97475654D02*
X127071250Y-98128750D01*
%TO.N,SPI1_SCK*%
X117775500Y-81000000D02*
X117775500Y-81011896D01*
X117775500Y-81011896D02*
X119012500Y-82248896D01*
X119012500Y-82248896D02*
X119012500Y-82850000D01*
%TO.N,SPI1_MISO*%
X117315000Y-82115000D02*
X117562609Y-82115000D01*
X117562609Y-82115000D02*
X118035000Y-82587391D01*
X118035000Y-82908008D02*
X118476992Y-83350000D01*
X118476992Y-83350000D02*
X119012500Y-83350000D01*
X117000000Y-81800000D02*
X117315000Y-82115000D01*
X118035000Y-82587391D02*
X118035000Y-82908008D01*
%TO.N,Net-(AE2-Pad1)*%
X131920000Y-83720000D02*
X132850000Y-84650000D01*
X132850000Y-84650000D02*
X133000000Y-84650000D01*
X131200000Y-83720000D02*
X131920000Y-83720000D01*
X131085000Y-84705000D02*
X131100000Y-84720000D01*
X131085000Y-83800000D02*
X131085000Y-84705000D01*
%TO.N,SPI1_NSS*%
X120400000Y-86273008D02*
X120400000Y-85737500D01*
X119551106Y-87121902D02*
X120400000Y-86273008D01*
X119509436Y-87121902D02*
X119551106Y-87121902D01*
%TO.N,SPI2_MISO*%
X129470596Y-96100000D02*
X129458750Y-96088154D01*
X130500000Y-96100000D02*
X129470596Y-96100000D01*
%TO.N,Net-(C13-Pad2)*%
X125683750Y-95088154D02*
X123980000Y-95088154D01*
X123980000Y-95088154D02*
X123680000Y-94788154D01*
%TO.N,Net-(R2-Pad1)*%
X121400000Y-81962500D02*
X121400000Y-80890000D01*
X121400000Y-80890000D02*
X121890000Y-80400000D01*
%TO.N,SPI1_MOSI*%
X119400000Y-81350000D02*
X119900000Y-81850000D01*
X119900000Y-81850000D02*
X119900000Y-81962500D01*
%TO.N,GD0_INT_2*%
X129099346Y-93700654D02*
X128571250Y-93700654D01*
X129100000Y-93700000D02*
X129099346Y-93700654D01*
%TO.N,GD0_INT_1*%
X119812500Y-85650000D02*
X119900000Y-85737500D01*
X119500000Y-85650000D02*
X119812500Y-85650000D01*
%TD*%
%TA.AperFunction,Conductor*%
%TO.N,GND*%
G36*
X131801105Y-84065502D02*
G01*
X131822079Y-84082405D01*
X132512595Y-84772921D01*
X132546621Y-84835233D01*
X132549500Y-84862016D01*
X132549500Y-84894108D01*
X132549478Y-84919830D01*
X132549455Y-84945563D01*
X132555597Y-84958353D01*
X132555709Y-84958848D01*
X132555768Y-84958978D01*
X132555777Y-84958999D01*
X132555815Y-84959314D01*
X132557603Y-84967184D01*
X132559874Y-84971904D01*
X132561133Y-84978231D01*
X132562737Y-84980631D01*
X132564688Y-84989185D01*
X132573529Y-85000280D01*
X132575874Y-85005153D01*
X132579547Y-85011007D01*
X132582912Y-85015237D01*
X132589052Y-85028024D01*
X132600008Y-85036786D01*
X132600418Y-85037245D01*
X132601340Y-85038404D01*
X132605448Y-85044552D01*
X132611877Y-85048848D01*
X132612767Y-85049558D01*
X132612873Y-85049653D01*
X132621695Y-85060724D01*
X132634478Y-85066890D01*
X132638703Y-85070262D01*
X132644551Y-85073945D01*
X132649414Y-85076296D01*
X132660492Y-85085156D01*
X132669218Y-85087163D01*
X132671769Y-85088867D01*
X132677966Y-85090099D01*
X132682449Y-85092267D01*
X132687176Y-85092692D01*
X132690353Y-85094082D01*
X132691308Y-85094301D01*
X132704087Y-85100465D01*
X132727155Y-85100485D01*
X132727153Y-85102510D01*
X132727219Y-85102525D01*
X132727219Y-85100500D01*
X132744108Y-85100500D01*
X132795563Y-85100545D01*
X132795559Y-85105350D01*
X132795657Y-85105356D01*
X132795657Y-85100500D01*
X133074000Y-85100500D01*
X133142121Y-85120502D01*
X133188614Y-85174158D01*
X133200000Y-85226500D01*
X133200000Y-96873000D01*
X133179998Y-96941121D01*
X133126342Y-96987614D01*
X133074000Y-96999000D01*
X132600198Y-96999000D01*
X132600000Y-96998918D01*
X132599802Y-96999000D01*
X132599235Y-96999235D01*
X132598918Y-97000000D01*
X132599000Y-97000198D01*
X132599000Y-97000638D01*
X132593867Y-97001470D01*
X132592890Y-97001757D01*
X132599000Y-97039292D01*
X132599000Y-99673000D01*
X132578998Y-99741121D01*
X132525342Y-99787614D01*
X132473000Y-99799000D01*
X129611600Y-99799000D01*
X129543479Y-99778998D01*
X129496986Y-99725342D01*
X129486882Y-99655068D01*
X129516376Y-99590488D01*
X129522505Y-99583905D01*
X129630484Y-99475926D01*
X129640124Y-99463499D01*
X129715396Y-99336220D01*
X129721643Y-99321784D01*
X129763312Y-99178359D01*
X129764768Y-99170391D01*
X129761948Y-99156969D01*
X129750487Y-99154000D01*
X128852000Y-99154000D01*
X128783879Y-99133998D01*
X128737386Y-99080342D01*
X128726000Y-99028000D01*
X128726000Y-98772000D01*
X128746002Y-98703879D01*
X128799658Y-98657386D01*
X128852000Y-98646000D01*
X129748424Y-98646000D01*
X129763219Y-98641656D01*
X129765063Y-98631225D01*
X129763312Y-98621641D01*
X129721643Y-98478216D01*
X129715396Y-98463780D01*
X129640124Y-98336501D01*
X129630484Y-98324074D01*
X129525926Y-98219516D01*
X129513497Y-98209874D01*
X129466417Y-98182032D01*
X129417964Y-98130140D01*
X129405258Y-98060289D01*
X129432333Y-97994658D01*
X129464625Y-97966204D01*
X129472838Y-97961161D01*
X129490724Y-97950179D01*
X129551379Y-97883168D01*
X129611920Y-97846089D01*
X129682900Y-97847626D01*
X129741781Y-97887294D01*
X129760434Y-97922922D01*
X129761633Y-97922394D01*
X129801716Y-98013489D01*
X129813605Y-98040510D01*
X129819382Y-98047383D01*
X129819383Y-98047384D01*
X129872686Y-98110796D01*
X129896639Y-98139291D01*
X130004060Y-98210796D01*
X130127233Y-98249278D01*
X130136203Y-98249442D01*
X130136207Y-98249443D01*
X130194942Y-98250519D01*
X130256255Y-98251643D01*
X130326782Y-98232415D01*
X130372092Y-98220062D01*
X130372093Y-98220062D01*
X130380755Y-98217700D01*
X130388405Y-98213003D01*
X130388407Y-98213002D01*
X130483072Y-98154878D01*
X130483075Y-98154875D01*
X130490724Y-98150179D01*
X130499476Y-98140510D01*
X130571300Y-98061161D01*
X130571303Y-98061157D01*
X130577322Y-98054507D01*
X130633588Y-97938375D01*
X130640980Y-97894440D01*
X130654190Y-97815917D01*
X130654997Y-97811120D01*
X130655133Y-97800000D01*
X130646308Y-97738375D01*
X130638112Y-97681145D01*
X130638111Y-97681142D01*
X130636839Y-97672259D01*
X130603985Y-97600000D01*
X130587145Y-97562962D01*
X130587143Y-97562959D01*
X130583428Y-97554788D01*
X130577569Y-97547989D01*
X130577567Y-97547985D01*
X130556047Y-97523011D01*
X130526733Y-97458349D01*
X130525500Y-97440763D01*
X130525500Y-97349114D01*
X130525980Y-97338132D01*
X130528303Y-97311584D01*
X130528303Y-97311582D01*
X130529264Y-97300597D01*
X130519508Y-97264189D01*
X130517130Y-97253462D01*
X130515369Y-97243475D01*
X130510588Y-97216359D01*
X130505077Y-97206814D01*
X130503885Y-97203538D01*
X130502408Y-97200370D01*
X130499554Y-97189720D01*
X130477945Y-97158860D01*
X130472039Y-97149589D01*
X130458707Y-97126498D01*
X130453194Y-97116949D01*
X130424317Y-97092719D01*
X130416215Y-97085293D01*
X130171266Y-96840344D01*
X130137240Y-96778032D01*
X130136782Y-96726667D01*
X130140350Y-96708728D01*
X130146750Y-96676555D01*
X130146750Y-96633020D01*
X130166752Y-96564899D01*
X130220408Y-96518406D01*
X130290682Y-96508302D01*
X130310324Y-96512753D01*
X130399617Y-96540650D01*
X130427233Y-96549278D01*
X130436203Y-96549442D01*
X130436207Y-96549443D01*
X130494942Y-96550519D01*
X130556255Y-96551643D01*
X130680755Y-96517700D01*
X130681698Y-96521158D01*
X130735187Y-96514562D01*
X130799161Y-96545349D01*
X130836336Y-96605835D01*
X130840750Y-96638894D01*
X130840750Y-96671123D01*
X130840943Y-96676052D01*
X130843136Y-96703910D01*
X130845438Y-96716513D01*
X130887107Y-96859938D01*
X130893354Y-96874374D01*
X130968626Y-97001653D01*
X130978266Y-97014080D01*
X131082824Y-97118638D01*
X131095251Y-97128278D01*
X131222530Y-97203550D01*
X131236966Y-97209797D01*
X131380391Y-97251466D01*
X131388359Y-97252922D01*
X131401781Y-97250102D01*
X131404750Y-97238641D01*
X131404750Y-97236578D01*
X131912750Y-97236578D01*
X131917094Y-97251373D01*
X131927525Y-97253217D01*
X131937109Y-97251466D01*
X132080534Y-97209797D01*
X132094970Y-97203550D01*
X132222249Y-97128278D01*
X132234676Y-97118638D01*
X132339234Y-97014080D01*
X132348878Y-97001648D01*
X132364547Y-96975153D01*
X132416439Y-96926700D01*
X132441059Y-96922222D01*
X132430632Y-96899390D01*
X132434353Y-96846307D01*
X132465369Y-96739549D01*
X132465329Y-96725449D01*
X132458059Y-96722154D01*
X131930865Y-96722154D01*
X131915626Y-96726629D01*
X131914421Y-96728019D01*
X131912750Y-96735702D01*
X131912750Y-97236578D01*
X131404750Y-97236578D01*
X131404750Y-96340154D01*
X131424752Y-96272033D01*
X131478408Y-96225540D01*
X131530750Y-96214154D01*
X132452308Y-96214154D01*
X132465839Y-96210181D01*
X132466974Y-96202283D01*
X132430393Y-96076370D01*
X132424146Y-96061934D01*
X132348874Y-95934655D01*
X132339234Y-95922228D01*
X132234679Y-95817673D01*
X132216954Y-95803924D01*
X132175388Y-95746368D01*
X132168451Y-95696124D01*
X132168712Y-95692141D01*
X132169250Y-95688055D01*
X132169249Y-95328254D01*
X132162722Y-95278667D01*
X132152537Y-95256824D01*
X132116634Y-95179831D01*
X132116633Y-95179830D01*
X132111974Y-95169838D01*
X132027066Y-95084930D01*
X132005317Y-95074788D01*
X131926974Y-95038256D01*
X131926973Y-95038256D01*
X131918237Y-95034182D01*
X131883345Y-95029589D01*
X131872739Y-95028192D01*
X131872736Y-95028192D01*
X131868651Y-95027654D01*
X131851810Y-95027654D01*
X131690767Y-95027655D01*
X131622647Y-95007653D01*
X131601672Y-94990750D01*
X131182861Y-94571939D01*
X131175434Y-94563835D01*
X131158291Y-94543405D01*
X131158292Y-94543405D01*
X131151205Y-94534960D01*
X131133155Y-94524539D01*
X131118565Y-94516115D01*
X131109294Y-94510209D01*
X131094363Y-94499754D01*
X131078434Y-94488600D01*
X131067783Y-94485746D01*
X131063303Y-94483657D01*
X131061501Y-94482719D01*
X131059635Y-94481946D01*
X131058316Y-94481331D01*
X131057814Y-94481041D01*
X131057905Y-94480847D01*
X131053562Y-94478586D01*
X131051795Y-94477566D01*
X131051794Y-94477566D01*
X131053901Y-94473916D01*
X131017045Y-94451468D01*
X130986002Y-94387617D01*
X130984250Y-94366681D01*
X130984250Y-94274653D01*
X131004252Y-94206532D01*
X131057908Y-94160039D01*
X131110250Y-94148653D01*
X131188650Y-94148653D01*
X131238237Y-94142126D01*
X131256777Y-94133481D01*
X131337073Y-94096038D01*
X131337074Y-94096037D01*
X131347066Y-94091378D01*
X131389655Y-94048789D01*
X131451967Y-94014763D01*
X131522782Y-94019828D01*
X131567845Y-94048789D01*
X131610434Y-94091378D01*
X131620426Y-94096037D01*
X131620427Y-94096038D01*
X131707657Y-94136714D01*
X131719263Y-94142126D01*
X131768849Y-94148654D01*
X131978673Y-94148654D01*
X132188650Y-94148653D01*
X132238237Y-94142126D01*
X132256777Y-94133481D01*
X132337073Y-94096038D01*
X132337074Y-94096037D01*
X132347066Y-94091378D01*
X132431974Y-94006470D01*
X132472072Y-93920481D01*
X132478648Y-93906378D01*
X132478648Y-93906377D01*
X132482722Y-93897641D01*
X132489250Y-93848055D01*
X132489249Y-93488254D01*
X132488711Y-93484166D01*
X132488450Y-93480185D01*
X132503954Y-93410902D01*
X132536953Y-93372385D01*
X132554679Y-93358635D01*
X132659234Y-93254080D01*
X132668874Y-93241653D01*
X132744146Y-93114374D01*
X132750393Y-93099938D01*
X132785369Y-92979549D01*
X132785329Y-92965449D01*
X132778059Y-92962154D01*
X130185192Y-92962154D01*
X130171661Y-92966127D01*
X130170526Y-92974025D01*
X130207107Y-93099938D01*
X130213354Y-93114374D01*
X130288626Y-93241653D01*
X130298266Y-93254080D01*
X130402821Y-93358635D01*
X130420546Y-93372384D01*
X130462112Y-93429940D01*
X130469049Y-93480183D01*
X130468788Y-93484168D01*
X130468250Y-93488253D01*
X130468251Y-93585694D01*
X130468251Y-93664336D01*
X130448249Y-93732457D01*
X130423241Y-93760859D01*
X130414003Y-93768610D01*
X130414000Y-93768614D01*
X130405556Y-93775699D01*
X130400043Y-93785248D01*
X130386711Y-93808339D01*
X130380805Y-93817610D01*
X130359196Y-93848470D01*
X130356342Y-93859120D01*
X130354865Y-93862288D01*
X130353673Y-93865564D01*
X130348162Y-93875109D01*
X130342649Y-93906378D01*
X130341620Y-93912212D01*
X130339242Y-93922939D01*
X130329486Y-93959347D01*
X130330447Y-93970332D01*
X130330447Y-93970334D01*
X130332770Y-93996882D01*
X130333250Y-94007864D01*
X130333250Y-94133481D01*
X130313248Y-94201602D01*
X130259592Y-94248095D01*
X130216664Y-94255492D01*
X130216961Y-94258890D01*
X130179426Y-94262174D01*
X130168444Y-94262654D01*
X129481826Y-94262654D01*
X129413705Y-94242652D01*
X129367212Y-94188996D01*
X129357108Y-94118722D01*
X129386602Y-94054142D01*
X129390524Y-94050302D01*
X129390724Y-94050179D01*
X129406083Y-94033211D01*
X129471300Y-93961161D01*
X129471303Y-93961157D01*
X129477322Y-93954507D01*
X129533588Y-93838375D01*
X129537082Y-93817610D01*
X129554190Y-93715917D01*
X129554997Y-93711120D01*
X129555133Y-93700000D01*
X129544853Y-93628216D01*
X129538112Y-93581145D01*
X129538111Y-93581142D01*
X129536839Y-93572259D01*
X129530356Y-93558000D01*
X129487145Y-93462962D01*
X129487143Y-93462959D01*
X129483428Y-93454788D01*
X129439254Y-93403521D01*
X129405051Y-93363826D01*
X129405049Y-93363824D01*
X129399193Y-93357028D01*
X129290906Y-93286841D01*
X129282311Y-93284271D01*
X129282310Y-93284270D01*
X129175128Y-93252215D01*
X129115595Y-93213533D01*
X129086425Y-93148805D01*
X129096881Y-93078583D01*
X129114711Y-93050505D01*
X129116004Y-93048965D01*
X129136681Y-93024323D01*
X129144106Y-93016220D01*
X129272790Y-92887537D01*
X129335102Y-92853512D01*
X129346310Y-92851599D01*
X129347277Y-92851478D01*
X129356255Y-92851643D01*
X129457068Y-92824158D01*
X129472092Y-92820062D01*
X129472093Y-92820062D01*
X129480755Y-92817700D01*
X129488405Y-92813003D01*
X129488407Y-92813002D01*
X129583072Y-92754878D01*
X129583075Y-92754875D01*
X129590724Y-92750179D01*
X129603105Y-92736501D01*
X129671300Y-92661161D01*
X129671303Y-92661157D01*
X129677322Y-92654507D01*
X129733588Y-92538375D01*
X129735274Y-92528357D01*
X129750684Y-92436759D01*
X130172131Y-92436759D01*
X130172171Y-92450859D01*
X130179441Y-92454154D01*
X130706635Y-92454154D01*
X130721874Y-92449679D01*
X130723079Y-92448289D01*
X130724750Y-92440606D01*
X130724750Y-92436039D01*
X131232750Y-92436039D01*
X131237225Y-92451278D01*
X131238615Y-92452483D01*
X131246298Y-92454154D01*
X131706635Y-92454154D01*
X131721874Y-92449679D01*
X131723079Y-92448289D01*
X131724750Y-92440606D01*
X131724750Y-92436039D01*
X132232750Y-92436039D01*
X132237225Y-92451278D01*
X132238615Y-92452483D01*
X132246298Y-92454154D01*
X132772308Y-92454154D01*
X132785839Y-92450181D01*
X132786974Y-92442283D01*
X132750393Y-92316370D01*
X132744146Y-92301934D01*
X132668874Y-92174655D01*
X132659234Y-92162228D01*
X132554676Y-92057670D01*
X132542249Y-92048030D01*
X132414970Y-91972758D01*
X132400534Y-91966511D01*
X132257109Y-91924842D01*
X132249141Y-91923386D01*
X132235719Y-91926206D01*
X132232750Y-91937667D01*
X132232750Y-92436039D01*
X131724750Y-92436039D01*
X131724750Y-91939730D01*
X131720406Y-91924935D01*
X131709975Y-91923091D01*
X131700391Y-91924842D01*
X131556966Y-91966511D01*
X131535253Y-91975907D01*
X131534697Y-91974623D01*
X131474076Y-91990005D01*
X131422677Y-91974913D01*
X131422247Y-91975907D01*
X131400534Y-91966511D01*
X131257109Y-91924842D01*
X131249141Y-91923386D01*
X131235719Y-91926206D01*
X131232750Y-91937667D01*
X131232750Y-92436039D01*
X130724750Y-92436039D01*
X130724750Y-91939730D01*
X130720406Y-91924935D01*
X130709975Y-91923091D01*
X130700391Y-91924842D01*
X130556966Y-91966511D01*
X130542530Y-91972758D01*
X130415251Y-92048030D01*
X130402824Y-92057670D01*
X130298266Y-92162228D01*
X130288626Y-92174655D01*
X130213354Y-92301934D01*
X130207107Y-92316370D01*
X130172131Y-92436759D01*
X129750684Y-92436759D01*
X129754190Y-92415917D01*
X129754997Y-92411120D01*
X129755133Y-92400000D01*
X129744961Y-92328971D01*
X129738112Y-92281145D01*
X129738111Y-92281142D01*
X129736839Y-92272259D01*
X129700709Y-92192795D01*
X129687145Y-92162962D01*
X129687143Y-92162959D01*
X129683428Y-92154788D01*
X129644339Y-92109423D01*
X129605051Y-92063826D01*
X129605049Y-92063824D01*
X129599193Y-92057028D01*
X129490906Y-91986841D01*
X129482311Y-91984271D01*
X129482310Y-91984270D01*
X129371885Y-91951245D01*
X129312352Y-91912563D01*
X129283182Y-91847835D01*
X129293638Y-91777612D01*
X129318890Y-91741436D01*
X130112925Y-90947402D01*
X130175235Y-90913378D01*
X130202018Y-90910499D01*
X130299900Y-90910499D01*
X130303988Y-90909961D01*
X130307969Y-90909700D01*
X130377252Y-90925204D01*
X130415769Y-90958203D01*
X130429519Y-90975929D01*
X130534074Y-91080484D01*
X130546501Y-91090124D01*
X130673780Y-91165396D01*
X130688216Y-91171643D01*
X130808605Y-91206619D01*
X130822705Y-91206579D01*
X130826000Y-91199309D01*
X130826000Y-91193558D01*
X131334000Y-91193558D01*
X131337973Y-91207089D01*
X131345871Y-91208224D01*
X131471784Y-91171643D01*
X131486220Y-91165396D01*
X131613499Y-91090124D01*
X131625926Y-91080484D01*
X131730484Y-90975926D01*
X131740124Y-90963499D01*
X131815396Y-90836220D01*
X131821643Y-90821784D01*
X131863312Y-90678359D01*
X131864768Y-90670391D01*
X131861948Y-90656969D01*
X131850487Y-90654000D01*
X131352115Y-90654000D01*
X131336876Y-90658475D01*
X131335671Y-90659865D01*
X131334000Y-90667548D01*
X131334000Y-91193558D01*
X130826000Y-91193558D01*
X130826000Y-90127885D01*
X131334000Y-90127885D01*
X131338475Y-90143124D01*
X131339865Y-90144329D01*
X131347548Y-90146000D01*
X131848424Y-90146000D01*
X131863219Y-90141656D01*
X131865063Y-90131225D01*
X131863312Y-90121641D01*
X131821643Y-89978216D01*
X131815396Y-89963780D01*
X131740124Y-89836501D01*
X131730484Y-89824074D01*
X131625926Y-89719516D01*
X131613499Y-89709876D01*
X131486220Y-89634604D01*
X131471784Y-89628357D01*
X131351395Y-89593381D01*
X131337295Y-89593421D01*
X131334000Y-89600691D01*
X131334000Y-90127885D01*
X130826000Y-90127885D01*
X130826000Y-89606442D01*
X130821854Y-89592322D01*
X130816750Y-89556824D01*
X130816750Y-88032864D01*
X130817230Y-88021882D01*
X130819553Y-87995334D01*
X130819553Y-87995332D01*
X130820514Y-87984347D01*
X130810758Y-87947939D01*
X130808380Y-87937212D01*
X130804661Y-87916121D01*
X130801838Y-87900109D01*
X130796327Y-87890564D01*
X130795135Y-87887288D01*
X130793658Y-87884120D01*
X130790804Y-87873470D01*
X130769195Y-87842610D01*
X130763289Y-87833339D01*
X130749957Y-87810248D01*
X130744444Y-87800699D01*
X130715567Y-87776469D01*
X130707465Y-87769043D01*
X130403655Y-87465233D01*
X130369629Y-87402921D01*
X130366750Y-87376138D01*
X130366750Y-86460635D01*
X130386752Y-86392514D01*
X130440408Y-86346021D01*
X130510682Y-86335917D01*
X130556889Y-86352181D01*
X130663780Y-86415396D01*
X130678216Y-86421643D01*
X130821641Y-86463312D01*
X130829609Y-86464768D01*
X130843031Y-86461948D01*
X130846000Y-86450487D01*
X130846000Y-86448424D01*
X131354000Y-86448424D01*
X131358344Y-86463219D01*
X131368775Y-86465063D01*
X131378359Y-86463312D01*
X131521784Y-86421643D01*
X131536220Y-86415396D01*
X131663499Y-86340124D01*
X131675926Y-86330484D01*
X131780484Y-86225926D01*
X131790124Y-86213499D01*
X131865396Y-86086220D01*
X131871643Y-86071784D01*
X131906619Y-85951395D01*
X131906579Y-85937295D01*
X131899309Y-85934000D01*
X131372115Y-85934000D01*
X131356876Y-85938475D01*
X131355671Y-85939865D01*
X131354000Y-85947548D01*
X131354000Y-86448424D01*
X130846000Y-86448424D01*
X130846000Y-85952115D01*
X130841525Y-85936876D01*
X130840135Y-85935671D01*
X130832452Y-85934000D01*
X130306442Y-85934000D01*
X130292911Y-85937973D01*
X130291776Y-85945870D01*
X130300675Y-85976500D01*
X130300472Y-86047497D01*
X130261919Y-86107113D01*
X130197254Y-86136422D01*
X130179678Y-86137654D01*
X128546502Y-86137654D01*
X128540434Y-86138861D01*
X128500189Y-86146866D01*
X128500188Y-86146866D01*
X128488019Y-86149287D01*
X128421698Y-86193602D01*
X128377383Y-86259923D01*
X128365750Y-86318406D01*
X128365750Y-87657902D01*
X128377383Y-87716385D01*
X128384066Y-87726387D01*
X128391626Y-87796716D01*
X128359845Y-87860203D01*
X128328137Y-87884862D01*
X128312604Y-87893366D01*
X128210526Y-87969869D01*
X128197965Y-87982430D01*
X128121464Y-88084505D01*
X128112926Y-88100100D01*
X128067772Y-88220548D01*
X128064145Y-88235803D01*
X128058619Y-88286668D01*
X128058250Y-88293482D01*
X128058250Y-88716039D01*
X128062725Y-88731278D01*
X128064115Y-88732483D01*
X128071798Y-88734154D01*
X129494250Y-88734154D01*
X129562371Y-88754156D01*
X129608864Y-88807812D01*
X129620250Y-88860154D01*
X129620250Y-90128038D01*
X129634396Y-90176215D01*
X129639500Y-90211712D01*
X129639501Y-90334930D01*
X129639501Y-90447981D01*
X129619499Y-90516102D01*
X129602601Y-90537072D01*
X128704342Y-91435331D01*
X128642032Y-91469355D01*
X128571217Y-91464291D01*
X128514381Y-91421744D01*
X128489570Y-91355224D01*
X128489249Y-91346235D01*
X128489249Y-91288254D01*
X128488711Y-91284166D01*
X128488450Y-91280185D01*
X128503954Y-91210902D01*
X128536953Y-91172385D01*
X128554679Y-91158635D01*
X128659234Y-91054080D01*
X128668874Y-91041653D01*
X128744146Y-90914374D01*
X128750393Y-90899938D01*
X128785369Y-90779549D01*
X128785329Y-90765449D01*
X128778059Y-90762154D01*
X127185192Y-90762154D01*
X127171661Y-90766127D01*
X127170526Y-90774025D01*
X127207107Y-90899938D01*
X127213354Y-90914374D01*
X127288626Y-91041653D01*
X127298266Y-91054080D01*
X127402821Y-91158635D01*
X127420546Y-91172384D01*
X127462112Y-91229940D01*
X127469049Y-91280183D01*
X127468788Y-91284168D01*
X127468250Y-91288253D01*
X127468251Y-91400866D01*
X127468251Y-91466136D01*
X127448249Y-91534257D01*
X127431346Y-91555232D01*
X127268009Y-91718569D01*
X127205697Y-91752595D01*
X127153927Y-91750616D01*
X127153702Y-91752120D01*
X127144824Y-91750793D01*
X127136224Y-91748221D01*
X127127249Y-91748166D01*
X127127248Y-91748166D01*
X127072592Y-91747832D01*
X127007182Y-91747433D01*
X126945144Y-91765163D01*
X126891737Y-91780427D01*
X126891735Y-91780428D01*
X126883106Y-91782894D01*
X126773970Y-91851754D01*
X126688547Y-91948477D01*
X126684733Y-91956600D01*
X126684732Y-91956602D01*
X126671742Y-91984270D01*
X126633705Y-92065287D01*
X126632324Y-92074154D01*
X126630744Y-92079323D01*
X126591700Y-92138619D01*
X126526795Y-92167393D01*
X126456638Y-92156509D01*
X126403502Y-92109423D01*
X126384250Y-92042484D01*
X126384250Y-91306384D01*
X126404252Y-91238263D01*
X126421155Y-91217289D01*
X126481974Y-91156470D01*
X126496723Y-91124842D01*
X126528648Y-91056378D01*
X126528648Y-91056377D01*
X126532722Y-91047641D01*
X126539250Y-90998055D01*
X126539249Y-90578254D01*
X126532722Y-90528667D01*
X126495098Y-90447981D01*
X126486634Y-90429831D01*
X126486633Y-90429830D01*
X126481974Y-90419838D01*
X126428655Y-90366519D01*
X126394629Y-90304207D01*
X126391750Y-90277424D01*
X126391750Y-90236759D01*
X127172131Y-90236759D01*
X127172171Y-90250859D01*
X127179441Y-90254154D01*
X127706635Y-90254154D01*
X127721874Y-90249679D01*
X127723079Y-90248289D01*
X127724750Y-90240606D01*
X127724750Y-89739730D01*
X127720406Y-89724935D01*
X127709975Y-89723091D01*
X127700391Y-89724842D01*
X127556966Y-89766511D01*
X127542530Y-89772758D01*
X127415251Y-89848030D01*
X127402824Y-89857670D01*
X127298266Y-89962228D01*
X127288626Y-89974655D01*
X127213354Y-90101934D01*
X127207107Y-90116370D01*
X127172131Y-90236759D01*
X126391750Y-90236759D01*
X126391750Y-89964654D01*
X126411752Y-89896533D01*
X126465408Y-89850040D01*
X126517750Y-89838654D01*
X126885998Y-89838654D01*
X126896822Y-89836501D01*
X126932311Y-89829442D01*
X126932312Y-89829442D01*
X126944481Y-89827021D01*
X127010802Y-89782706D01*
X127055117Y-89716385D01*
X127065927Y-89662039D01*
X128058251Y-89662039D01*
X128062726Y-89677278D01*
X128064116Y-89678483D01*
X128071799Y-89680154D01*
X128106750Y-89680154D01*
X128174871Y-89700156D01*
X128221364Y-89753812D01*
X128232750Y-89806154D01*
X128232750Y-90236039D01*
X128237225Y-90251278D01*
X128238615Y-90252483D01*
X128246298Y-90254154D01*
X128772308Y-90254154D01*
X128787299Y-90249752D01*
X128814751Y-90189641D01*
X128874478Y-90151258D01*
X128909975Y-90146154D01*
X129094135Y-90146154D01*
X129109374Y-90141679D01*
X129110579Y-90140289D01*
X129112250Y-90132606D01*
X129112250Y-89260269D01*
X129107775Y-89245030D01*
X129106385Y-89243825D01*
X129098702Y-89242154D01*
X128076366Y-89242154D01*
X128061127Y-89246629D01*
X128059922Y-89248019D01*
X128058251Y-89255702D01*
X128058251Y-89662039D01*
X127065927Y-89662039D01*
X127066750Y-89657902D01*
X127066750Y-88318406D01*
X127055117Y-88259923D01*
X127048434Y-88249921D01*
X127040874Y-88179592D01*
X127072655Y-88116105D01*
X127104363Y-88091446D01*
X127119896Y-88082942D01*
X127221974Y-88006439D01*
X127234535Y-87993878D01*
X127311036Y-87891803D01*
X127319574Y-87876208D01*
X127364728Y-87755760D01*
X127368355Y-87740505D01*
X127373881Y-87689640D01*
X127374250Y-87682826D01*
X127374250Y-87260269D01*
X127369775Y-87245030D01*
X127368385Y-87243825D01*
X127360702Y-87242154D01*
X125938250Y-87242154D01*
X125870129Y-87222152D01*
X125823636Y-87168496D01*
X125812250Y-87116154D01*
X125812250Y-86860154D01*
X125832252Y-86792033D01*
X125885908Y-86745540D01*
X125938250Y-86734154D01*
X127356134Y-86734154D01*
X127371373Y-86729679D01*
X127372578Y-86728289D01*
X127374249Y-86720606D01*
X127374249Y-86293485D01*
X127373879Y-86286664D01*
X127368355Y-86235802D01*
X127364729Y-86220550D01*
X127319574Y-86100100D01*
X127311037Y-86084507D01*
X127310498Y-86083788D01*
X127310186Y-86082953D01*
X127306728Y-86076637D01*
X127307640Y-86076138D01*
X127285652Y-86017281D01*
X127300706Y-85947899D01*
X127347186Y-85899772D01*
X127363497Y-85890126D01*
X127375926Y-85880484D01*
X127480484Y-85775926D01*
X127490124Y-85763499D01*
X127565396Y-85636220D01*
X127571643Y-85621784D01*
X127606619Y-85501395D01*
X127606579Y-85487295D01*
X127599309Y-85484000D01*
X126006442Y-85484000D01*
X125992911Y-85487973D01*
X125991776Y-85495871D01*
X126028357Y-85621784D01*
X126034605Y-85636221D01*
X126036846Y-85640011D01*
X126037699Y-85643372D01*
X126037753Y-85643497D01*
X126037733Y-85643506D01*
X126054308Y-85708826D01*
X126031794Y-85776159D01*
X125976451Y-85820630D01*
X125928395Y-85830154D01*
X125221581Y-85830155D01*
X125214760Y-85830525D01*
X125163898Y-85836049D01*
X125148646Y-85839675D01*
X125028196Y-85884830D01*
X125012598Y-85893370D01*
X125005682Y-85898553D01*
X124939176Y-85923400D01*
X124869793Y-85908346D01*
X124819564Y-85858171D01*
X124804435Y-85788805D01*
X124816727Y-85742787D01*
X124839178Y-85696450D01*
X124839179Y-85696448D01*
X124843090Y-85688375D01*
X124848984Y-85653345D01*
X124863692Y-85565917D01*
X124864499Y-85561120D01*
X124864635Y-85550000D01*
X124846341Y-85422259D01*
X124810861Y-85344225D01*
X124796647Y-85312962D01*
X124796645Y-85312959D01*
X124792930Y-85304788D01*
X124752882Y-85258310D01*
X124714553Y-85213826D01*
X124714551Y-85213824D01*
X124708695Y-85207028D01*
X124660053Y-85175500D01*
X124608727Y-85142233D01*
X124562443Y-85088397D01*
X124552612Y-85018085D01*
X124582355Y-84953619D01*
X124642230Y-84915467D01*
X124677259Y-84910500D01*
X124933641Y-84910499D01*
X124949900Y-84910499D01*
X124999487Y-84903972D01*
X125020641Y-84894108D01*
X125098323Y-84857884D01*
X125098324Y-84857883D01*
X125108316Y-84853224D01*
X125160905Y-84800635D01*
X125223217Y-84766609D01*
X125294032Y-84771674D01*
X125339095Y-84800635D01*
X125391684Y-84853224D01*
X125401676Y-84857883D01*
X125401677Y-84857884D01*
X125482941Y-84895778D01*
X125500513Y-84903972D01*
X125550099Y-84910500D01*
X125598655Y-84910500D01*
X125883478Y-84910499D01*
X125951598Y-84930501D01*
X125989281Y-84968075D01*
X125991800Y-84971970D01*
X126000691Y-84976000D01*
X127593558Y-84976000D01*
X127608798Y-84971525D01*
X127616992Y-84962069D01*
X127676718Y-84923685D01*
X127725391Y-84920252D01*
X127725445Y-84919510D01*
X127729987Y-84919840D01*
X127734514Y-84920500D01*
X128095486Y-84920500D01*
X128100036Y-84919830D01*
X128100039Y-84919830D01*
X128123442Y-84916385D01*
X128163884Y-84910431D01*
X128174478Y-84905230D01*
X128220119Y-84882821D01*
X128267880Y-84859372D01*
X128310823Y-84816354D01*
X128373105Y-84782275D01*
X128443925Y-84787278D01*
X128489014Y-84816199D01*
X128524881Y-84852003D01*
X128532621Y-84859730D01*
X128636706Y-84910608D01*
X128646385Y-84912020D01*
X128699987Y-84919840D01*
X128699993Y-84919840D01*
X128704514Y-84920500D01*
X129065486Y-84920500D01*
X129070036Y-84919830D01*
X129070039Y-84919830D01*
X129093442Y-84916385D01*
X129133884Y-84910431D01*
X129144478Y-84905230D01*
X129190119Y-84882821D01*
X129237880Y-84859372D01*
X129319730Y-84777379D01*
X129327444Y-84761599D01*
X129360866Y-84693224D01*
X129370608Y-84673294D01*
X129375629Y-84638875D01*
X129379840Y-84610013D01*
X129379840Y-84610007D01*
X129380500Y-84605486D01*
X129380500Y-84417016D01*
X129400502Y-84348895D01*
X129417405Y-84327921D01*
X129534970Y-84210356D01*
X129597282Y-84176330D01*
X129668097Y-84181395D01*
X129713082Y-84210277D01*
X129762621Y-84259730D01*
X129771977Y-84264303D01*
X129771978Y-84264304D01*
X129789500Y-84272869D01*
X129866706Y-84310608D01*
X129876385Y-84312020D01*
X129929987Y-84319840D01*
X129929993Y-84319840D01*
X129934514Y-84320500D01*
X130295486Y-84320500D01*
X130300036Y-84319830D01*
X130300039Y-84319830D01*
X130323442Y-84316385D01*
X130363884Y-84310431D01*
X130372675Y-84306115D01*
X130372678Y-84306114D01*
X130453140Y-84266609D01*
X130523103Y-84254541D01*
X130588484Y-84282215D01*
X130628525Y-84340843D01*
X130630512Y-84411812D01*
X130622864Y-84432963D01*
X130600103Y-84481773D01*
X130600102Y-84481776D01*
X130596028Y-84490513D01*
X130589500Y-84540099D01*
X130589501Y-84899900D01*
X130590039Y-84903988D01*
X130590300Y-84907969D01*
X130574796Y-84977252D01*
X130541797Y-85015769D01*
X130524071Y-85029519D01*
X130419516Y-85134074D01*
X130409876Y-85146501D01*
X130334604Y-85273780D01*
X130328357Y-85288216D01*
X130293381Y-85408605D01*
X130293421Y-85422705D01*
X130300691Y-85426000D01*
X131893558Y-85426000D01*
X131907089Y-85422027D01*
X131908224Y-85414129D01*
X131871643Y-85288216D01*
X131865396Y-85273780D01*
X131790124Y-85146501D01*
X131780484Y-85134074D01*
X131675929Y-85029519D01*
X131658204Y-85015770D01*
X131616638Y-84958214D01*
X131609701Y-84907970D01*
X131609962Y-84903987D01*
X131610500Y-84899901D01*
X131610499Y-84540100D01*
X131603972Y-84490513D01*
X131599897Y-84481773D01*
X131557884Y-84391677D01*
X131557883Y-84391676D01*
X131553224Y-84381684D01*
X131522816Y-84351276D01*
X131488790Y-84288964D01*
X131493855Y-84218149D01*
X131509331Y-84189015D01*
X131512376Y-84184746D01*
X131519730Y-84177379D01*
X131549651Y-84116167D01*
X131597537Y-84063750D01*
X131662851Y-84045500D01*
X131732984Y-84045500D01*
X131801105Y-84065502D01*
G37*
%TD.AperFunction*%
%TA.AperFunction,Conductor*%
G36*
X115983825Y-94247768D02*
G01*
X116029976Y-94277129D01*
X116982595Y-95229748D01*
X117016621Y-95292060D01*
X117019500Y-95318843D01*
X117019500Y-95405486D01*
X117029569Y-95473884D01*
X117080628Y-95577880D01*
X117162621Y-95659730D01*
X117266706Y-95710608D01*
X117276385Y-95712020D01*
X117329987Y-95719840D01*
X117329993Y-95719840D01*
X117334514Y-95720500D01*
X117695486Y-95720500D01*
X117700036Y-95719830D01*
X117700039Y-95719830D01*
X117723442Y-95716385D01*
X117763884Y-95710431D01*
X117772675Y-95706115D01*
X117772678Y-95706114D01*
X117829880Y-95678029D01*
X117899843Y-95665961D01*
X117965224Y-95693635D01*
X118005265Y-95752263D01*
X118007252Y-95823232D01*
X117999606Y-95844380D01*
X117954778Y-95940513D01*
X117948250Y-95990099D01*
X117948251Y-96349900D01*
X117948789Y-96353988D01*
X117949050Y-96357969D01*
X117933546Y-96427252D01*
X117900547Y-96465769D01*
X117882821Y-96479519D01*
X117778266Y-96584074D01*
X117768626Y-96596501D01*
X117693354Y-96723780D01*
X117687107Y-96738216D01*
X117652131Y-96858605D01*
X117652171Y-96872705D01*
X117659441Y-96876000D01*
X119252308Y-96876000D01*
X119265839Y-96872027D01*
X119266974Y-96864129D01*
X119230393Y-96738216D01*
X119224146Y-96723780D01*
X119148874Y-96596501D01*
X119139234Y-96584074D01*
X119034679Y-96479519D01*
X119016954Y-96465770D01*
X118975388Y-96408214D01*
X118968451Y-96357970D01*
X118968712Y-96353987D01*
X118969250Y-96349901D01*
X118969250Y-96286230D01*
X118989252Y-96218109D01*
X119042908Y-96171616D01*
X119113182Y-96161512D01*
X119177762Y-96191006D01*
X119184345Y-96197135D01*
X119240434Y-96253224D01*
X119250426Y-96257883D01*
X119250427Y-96257884D01*
X119340526Y-96299898D01*
X119349263Y-96303972D01*
X119390869Y-96309449D01*
X119394755Y-96309961D01*
X119398849Y-96310500D01*
X119578684Y-96310500D01*
X119758650Y-96310499D01*
X119808237Y-96303972D01*
X119817712Y-96299554D01*
X119907073Y-96257884D01*
X119907074Y-96257883D01*
X119917066Y-96253224D01*
X119969655Y-96200635D01*
X120031967Y-96166609D01*
X120102782Y-96171674D01*
X120147845Y-96200635D01*
X120200434Y-96253224D01*
X120210426Y-96257883D01*
X120210427Y-96257884D01*
X120300526Y-96299898D01*
X120309263Y-96303972D01*
X120350869Y-96309449D01*
X120354755Y-96309961D01*
X120358849Y-96310500D01*
X120538684Y-96310500D01*
X120718650Y-96310499D01*
X120742790Y-96307321D01*
X120812936Y-96318263D01*
X120866033Y-96365392D01*
X120885221Y-96433747D01*
X120867683Y-96496384D01*
X120825166Y-96568276D01*
X120818918Y-96582713D01*
X120780891Y-96713605D01*
X120780931Y-96727705D01*
X120788201Y-96731000D01*
X122406048Y-96731000D01*
X122419579Y-96727027D01*
X122420714Y-96719129D01*
X122381082Y-96582713D01*
X122374834Y-96568276D01*
X122343705Y-96515640D01*
X122326245Y-96446824D01*
X122348761Y-96379492D01*
X122404106Y-96335023D01*
X122452158Y-96325500D01*
X122488444Y-96325500D01*
X122499426Y-96325980D01*
X122525974Y-96328303D01*
X122525976Y-96328303D01*
X122536961Y-96329264D01*
X122573369Y-96319508D01*
X122584096Y-96317130D01*
X122587455Y-96316538D01*
X122621199Y-96310588D01*
X122629233Y-96305950D01*
X122670606Y-96298654D01*
X122859511Y-96298653D01*
X122899900Y-96298653D01*
X122949487Y-96292126D01*
X122992577Y-96272033D01*
X123048323Y-96246038D01*
X123048324Y-96246037D01*
X123058316Y-96241378D01*
X123110905Y-96188789D01*
X123173217Y-96154763D01*
X123244032Y-96159828D01*
X123289095Y-96188789D01*
X123341684Y-96241378D01*
X123351676Y-96246037D01*
X123351677Y-96246038D01*
X123422656Y-96279136D01*
X123450513Y-96292126D01*
X123500099Y-96298654D01*
X123556281Y-96298654D01*
X123837624Y-96298653D01*
X123905744Y-96318655D01*
X123952237Y-96372310D01*
X123962342Y-96442584D01*
X123946744Y-96487652D01*
X123927962Y-96520184D01*
X123922055Y-96529456D01*
X123900446Y-96560316D01*
X123897592Y-96570966D01*
X123896115Y-96574134D01*
X123894923Y-96577410D01*
X123889412Y-96586955D01*
X123885635Y-96608379D01*
X123882870Y-96624058D01*
X123880492Y-96634785D01*
X123870736Y-96671193D01*
X123871697Y-96682178D01*
X123871697Y-96682180D01*
X123874020Y-96708728D01*
X123874500Y-96719710D01*
X123874500Y-97339270D01*
X123854498Y-97407391D01*
X123837595Y-97428365D01*
X123808365Y-97457595D01*
X123746053Y-97491621D01*
X123719270Y-97494500D01*
X123718230Y-97494500D01*
X123650109Y-97474498D01*
X123629135Y-97457595D01*
X123568316Y-97396776D01*
X123553496Y-97389865D01*
X123468224Y-97350102D01*
X123468223Y-97350102D01*
X123459487Y-97346028D01*
X123409901Y-97339500D01*
X123200077Y-97339500D01*
X122990100Y-97339501D01*
X122940513Y-97346028D01*
X122931779Y-97350101D01*
X122931778Y-97350101D01*
X122841677Y-97392116D01*
X122831684Y-97396776D01*
X122783109Y-97445351D01*
X122720797Y-97479377D01*
X122657911Y-97476973D01*
X122575874Y-97452438D01*
X122575872Y-97452438D01*
X122567273Y-97449866D01*
X122558297Y-97449811D01*
X122558296Y-97449811D01*
X122530012Y-97449638D01*
X122462015Y-97429219D01*
X122415851Y-97375280D01*
X122406178Y-97304945D01*
X122409786Y-97288488D01*
X122419109Y-97256397D01*
X122419069Y-97242295D01*
X122411799Y-97239000D01*
X121872115Y-97239000D01*
X121856876Y-97243475D01*
X121855671Y-97244865D01*
X121854000Y-97252548D01*
X121854000Y-97768681D01*
X121858344Y-97783476D01*
X121869840Y-97785508D01*
X121882043Y-97783279D01*
X121884904Y-97782448D01*
X121886567Y-97782453D01*
X121888373Y-97782123D01*
X121888434Y-97782458D01*
X121955900Y-97782653D01*
X122015516Y-97821208D01*
X122044823Y-97885874D01*
X122045234Y-97892301D01*
X122044901Y-97894440D01*
X122045821Y-97901475D01*
X122045821Y-97901476D01*
X122060468Y-98013489D01*
X122060469Y-98013493D01*
X122061633Y-98022394D01*
X122071258Y-98044268D01*
X122101709Y-98113473D01*
X122113605Y-98140510D01*
X122119382Y-98147383D01*
X122119383Y-98147384D01*
X122171911Y-98209874D01*
X122196639Y-98239291D01*
X122204116Y-98244268D01*
X122278786Y-98293972D01*
X122304060Y-98310796D01*
X122312633Y-98313474D01*
X122312632Y-98313474D01*
X122320760Y-98316014D01*
X122379816Y-98355422D01*
X122408191Y-98420501D01*
X122404180Y-98471433D01*
X122393381Y-98508604D01*
X122393421Y-98522705D01*
X122400691Y-98526000D01*
X125017885Y-98526000D01*
X125033124Y-98521525D01*
X125034329Y-98520135D01*
X125036000Y-98512452D01*
X125036000Y-98098100D01*
X125032027Y-98084569D01*
X125024129Y-98083434D01*
X124909153Y-98116838D01*
X124838157Y-98116635D01*
X124778541Y-98078082D01*
X124749232Y-98013417D01*
X124748000Y-97995841D01*
X124747999Y-97644225D01*
X124747999Y-97640100D01*
X124741472Y-97590513D01*
X124724166Y-97553399D01*
X124695384Y-97491677D01*
X124695383Y-97491676D01*
X124690724Y-97481684D01*
X124605816Y-97396776D01*
X124595823Y-97392116D01*
X124586793Y-97385793D01*
X124587934Y-97384164D01*
X124544966Y-97346332D01*
X124525500Y-97279053D01*
X124525500Y-96973627D01*
X124545502Y-96905506D01*
X124599158Y-96859013D01*
X124669432Y-96848909D01*
X124723770Y-96870414D01*
X124739437Y-96881384D01*
X124739441Y-96881386D01*
X124748470Y-96887708D01*
X124759118Y-96890562D01*
X124762289Y-96892040D01*
X124765565Y-96893232D01*
X124775109Y-96898742D01*
X124812230Y-96905288D01*
X124822937Y-96907662D01*
X124859347Y-96917417D01*
X124870322Y-96916457D01*
X124870324Y-96916457D01*
X124896885Y-96914133D01*
X124907866Y-96913654D01*
X125741144Y-96913654D01*
X125741145Y-96913653D01*
X125788404Y-96913653D01*
X125856525Y-96933655D01*
X125903018Y-96987311D01*
X125906386Y-96995425D01*
X125917925Y-97026207D01*
X125922772Y-97035060D01*
X125938250Y-97095566D01*
X125938250Y-97933926D01*
X125938788Y-97942135D01*
X125952062Y-98042964D01*
X125941122Y-98113113D01*
X125893994Y-98166211D01*
X125825640Y-98185401D01*
X125763000Y-98167863D01*
X125689218Y-98124228D01*
X125674783Y-98117981D01*
X125561395Y-98085039D01*
X125547295Y-98085079D01*
X125544000Y-98092349D01*
X125544000Y-99028000D01*
X125523998Y-99096121D01*
X125470342Y-99142614D01*
X125418000Y-99154000D01*
X124596238Y-99154000D01*
X124528117Y-99133998D01*
X124481624Y-99080342D01*
X124475342Y-99063498D01*
X124467525Y-99036876D01*
X124466135Y-99035671D01*
X124458452Y-99034000D01*
X122406442Y-99034000D01*
X122392911Y-99037973D01*
X122391776Y-99045871D01*
X122428357Y-99171784D01*
X122434604Y-99186220D01*
X122509876Y-99313499D01*
X122519516Y-99325926D01*
X122624074Y-99430484D01*
X122636501Y-99440124D01*
X122763780Y-99515396D01*
X122778216Y-99521643D01*
X122882715Y-99552003D01*
X122942551Y-99590216D01*
X122972228Y-99654713D01*
X122962324Y-99725015D01*
X122915985Y-99778803D01*
X122847562Y-99799000D01*
X116127000Y-99799000D01*
X116058879Y-99778998D01*
X116012386Y-99725342D01*
X116001000Y-99673000D01*
X116001000Y-97694440D01*
X117044901Y-97694440D01*
X117046065Y-97703342D01*
X117046065Y-97703345D01*
X117060468Y-97813489D01*
X117060469Y-97813493D01*
X117061633Y-97822394D01*
X117113605Y-97940510D01*
X117119382Y-97947383D01*
X117119383Y-97947384D01*
X117189345Y-98030614D01*
X117196639Y-98039291D01*
X117204116Y-98044268D01*
X117264660Y-98084569D01*
X117304060Y-98110796D01*
X117427233Y-98149278D01*
X117436203Y-98149442D01*
X117436207Y-98149443D01*
X117494942Y-98150519D01*
X117556255Y-98151643D01*
X117656811Y-98124228D01*
X117672092Y-98120062D01*
X117672093Y-98120062D01*
X117680755Y-98117700D01*
X117688405Y-98113003D01*
X117688407Y-98113002D01*
X117783072Y-98054878D01*
X117783075Y-98054875D01*
X117790724Y-98050179D01*
X117799476Y-98040510D01*
X117871300Y-97961161D01*
X117871303Y-97961157D01*
X117877322Y-97954507D01*
X117885829Y-97936949D01*
X117933530Y-97884366D01*
X118002088Y-97865920D01*
X118034374Y-97870890D01*
X118180391Y-97913312D01*
X118188359Y-97914768D01*
X118201781Y-97911948D01*
X118204750Y-97900487D01*
X118204750Y-97898424D01*
X118712750Y-97898424D01*
X118717094Y-97913219D01*
X118727525Y-97915063D01*
X118737109Y-97913312D01*
X118880534Y-97871643D01*
X118894970Y-97865396D01*
X119022249Y-97790124D01*
X119034676Y-97780484D01*
X119139234Y-97675926D01*
X119148874Y-97663499D01*
X119224146Y-97536220D01*
X119230393Y-97521784D01*
X119265369Y-97401395D01*
X119265329Y-97387295D01*
X119258059Y-97384000D01*
X118730865Y-97384000D01*
X118715626Y-97388475D01*
X118714421Y-97389865D01*
X118712750Y-97397548D01*
X118712750Y-97898424D01*
X118204750Y-97898424D01*
X118204750Y-97402115D01*
X118200275Y-97386876D01*
X118198885Y-97385671D01*
X118191202Y-97384000D01*
X117875411Y-97384000D01*
X117807290Y-97363998D01*
X117801361Y-97359545D01*
X117799193Y-97357028D01*
X117690906Y-97286841D01*
X117682311Y-97284271D01*
X117682310Y-97284270D01*
X117575874Y-97252438D01*
X117575872Y-97252438D01*
X117570633Y-97250871D01*
X120779286Y-97250871D01*
X120818918Y-97387287D01*
X120825166Y-97401724D01*
X120901399Y-97530627D01*
X120911048Y-97543065D01*
X121016935Y-97648952D01*
X121029373Y-97658601D01*
X121158276Y-97734834D01*
X121172713Y-97741082D01*
X121317957Y-97783279D01*
X121328635Y-97785229D01*
X121343031Y-97782205D01*
X121346000Y-97770742D01*
X121346000Y-97257115D01*
X121341525Y-97241876D01*
X121340135Y-97240671D01*
X121332452Y-97239000D01*
X120793952Y-97239000D01*
X120780421Y-97242973D01*
X120779286Y-97250871D01*
X117570633Y-97250871D01*
X117567273Y-97249866D01*
X117558298Y-97249811D01*
X117558297Y-97249811D01*
X117503641Y-97249477D01*
X117438231Y-97249078D01*
X117403938Y-97258879D01*
X117322786Y-97282072D01*
X117322784Y-97282073D01*
X117314155Y-97284539D01*
X117306565Y-97289328D01*
X117226192Y-97340040D01*
X117205019Y-97353399D01*
X117199076Y-97360128D01*
X117199075Y-97360129D01*
X117175453Y-97386876D01*
X117119596Y-97450122D01*
X117115782Y-97458245D01*
X117115781Y-97458247D01*
X117100112Y-97491621D01*
X117064754Y-97566932D01*
X117059594Y-97600071D01*
X117046282Y-97685567D01*
X117046282Y-97685571D01*
X117044901Y-97694440D01*
X116001000Y-97694440D01*
X116001000Y-97000198D01*
X116001082Y-97000000D01*
X116000765Y-96999235D01*
X116000198Y-96999000D01*
X116000000Y-96998918D01*
X115999802Y-96999000D01*
X115526000Y-96999000D01*
X115457879Y-96978998D01*
X115411386Y-96925342D01*
X115400000Y-96873000D01*
X115400000Y-96676500D01*
X115420002Y-96608379D01*
X115473658Y-96561886D01*
X115526000Y-96550500D01*
X115600893Y-96550500D01*
X115652348Y-96550545D01*
X115652344Y-96555350D01*
X115652442Y-96555356D01*
X115652442Y-96550500D01*
X115844108Y-96550500D01*
X115881374Y-96550533D01*
X115881376Y-96550533D01*
X115895563Y-96550545D01*
X115908354Y-96544403D01*
X115913267Y-96543287D01*
X115920817Y-96540650D01*
X115925351Y-96538468D01*
X115939185Y-96535312D01*
X115950280Y-96526471D01*
X115955154Y-96524125D01*
X115961006Y-96520454D01*
X115965238Y-96517088D01*
X115978024Y-96510948D01*
X115986884Y-96499869D01*
X115990824Y-96496735D01*
X115996485Y-96491084D01*
X115999627Y-96487148D01*
X116010724Y-96478305D01*
X116016889Y-96465523D01*
X116020263Y-96461296D01*
X116023942Y-96455453D01*
X116026293Y-96450590D01*
X116035156Y-96439508D01*
X116038336Y-96425680D01*
X116040526Y-96421149D01*
X116043176Y-96413603D01*
X116044300Y-96408693D01*
X116050465Y-96395913D01*
X116050485Y-96372845D01*
X116052510Y-96372847D01*
X116052526Y-96372781D01*
X116050500Y-96372781D01*
X116050500Y-96355892D01*
X116050545Y-96304437D01*
X116055350Y-96304441D01*
X116055356Y-96304343D01*
X116050500Y-96304343D01*
X116050500Y-95455892D01*
X116050529Y-95423037D01*
X116050533Y-95418626D01*
X116050533Y-95418624D01*
X116050545Y-95404437D01*
X116044403Y-95391646D01*
X116043287Y-95386733D01*
X116040650Y-95379183D01*
X116038468Y-95374649D01*
X116035312Y-95360815D01*
X116026471Y-95349720D01*
X116024125Y-95344846D01*
X116020454Y-95338994D01*
X116017088Y-95334762D01*
X116010948Y-95321976D01*
X115999869Y-95313116D01*
X115996735Y-95309176D01*
X115991084Y-95303515D01*
X115987148Y-95300373D01*
X115978305Y-95289276D01*
X115965523Y-95283111D01*
X115961296Y-95279737D01*
X115955453Y-95276058D01*
X115950590Y-95273707D01*
X115939508Y-95264844D01*
X115925680Y-95261664D01*
X115921149Y-95259474D01*
X115913603Y-95256824D01*
X115908693Y-95255700D01*
X115895913Y-95249535D01*
X115872845Y-95249515D01*
X115872847Y-95247490D01*
X115872781Y-95247474D01*
X115872781Y-95249500D01*
X115855892Y-95249500D01*
X115804437Y-95249455D01*
X115804441Y-95244650D01*
X115804343Y-95244644D01*
X115804343Y-95249500D01*
X115526000Y-95249500D01*
X115457879Y-95229498D01*
X115411386Y-95175842D01*
X115400000Y-95123500D01*
X115400000Y-94376500D01*
X115420002Y-94308379D01*
X115473658Y-94261886D01*
X115526000Y-94250500D01*
X115844108Y-94250500D01*
X115881374Y-94250533D01*
X115881376Y-94250533D01*
X115895563Y-94250545D01*
X115908354Y-94244403D01*
X115912966Y-94243355D01*
X115983825Y-94247768D01*
G37*
%TD.AperFunction*%
%TA.AperFunction,Conductor*%
G36*
X122132260Y-87177110D02*
G01*
X122166354Y-87201377D01*
X122287595Y-87322618D01*
X122321621Y-87384930D01*
X122324500Y-87411713D01*
X122324500Y-88053542D01*
X122304498Y-88121663D01*
X122281010Y-88146102D01*
X122281684Y-88146776D01*
X122196776Y-88231684D01*
X122192117Y-88241676D01*
X122192116Y-88241677D01*
X122150102Y-88331776D01*
X122146028Y-88340513D01*
X122139500Y-88390099D01*
X122139501Y-88809900D01*
X122146028Y-88859487D01*
X122150101Y-88868221D01*
X122150101Y-88868222D01*
X122192116Y-88958323D01*
X122196776Y-88968316D01*
X122281684Y-89053224D01*
X122280052Y-89054856D01*
X122315100Y-89098703D01*
X122324500Y-89146458D01*
X122324500Y-89423500D01*
X122304498Y-89491621D01*
X122250842Y-89538114D01*
X122198500Y-89549500D01*
X121830595Y-89549500D01*
X121762474Y-89529498D01*
X121715981Y-89475842D01*
X121705877Y-89405568D01*
X121722141Y-89359361D01*
X121765396Y-89286220D01*
X121771643Y-89271784D01*
X121806619Y-89151395D01*
X121806579Y-89137295D01*
X121799309Y-89134000D01*
X121272115Y-89134000D01*
X121256876Y-89138475D01*
X121255671Y-89139865D01*
X121254000Y-89147548D01*
X121254000Y-89648424D01*
X121258344Y-89663219D01*
X121268775Y-89665063D01*
X121278359Y-89663312D01*
X121421784Y-89621643D01*
X121436220Y-89615396D01*
X121461462Y-89600468D01*
X121530279Y-89583009D01*
X121597610Y-89605526D01*
X121642079Y-89660871D01*
X121650994Y-89721273D01*
X121650708Y-89724181D01*
X121649500Y-89730252D01*
X121649500Y-91069748D01*
X121661133Y-91128231D01*
X121667816Y-91138233D01*
X121675376Y-91208562D01*
X121643595Y-91272049D01*
X121611887Y-91296708D01*
X121596354Y-91305212D01*
X121494276Y-91381715D01*
X121481715Y-91394276D01*
X121405214Y-91496351D01*
X121396676Y-91511946D01*
X121351522Y-91632394D01*
X121347895Y-91647649D01*
X121342369Y-91698514D01*
X121342000Y-91705328D01*
X121342000Y-92127885D01*
X121346475Y-92143124D01*
X121347865Y-92144329D01*
X121355548Y-92146000D01*
X122778000Y-92146000D01*
X122846121Y-92166002D01*
X122892614Y-92219658D01*
X122904000Y-92272000D01*
X122904000Y-93539885D01*
X122908475Y-93555124D01*
X122909865Y-93556329D01*
X122917548Y-93558000D01*
X123494669Y-93557999D01*
X123501490Y-93557629D01*
X123552352Y-93552105D01*
X123567604Y-93548479D01*
X123688054Y-93503324D01*
X123703649Y-93494786D01*
X123805724Y-93418285D01*
X123818285Y-93405724D01*
X123875918Y-93328824D01*
X123932777Y-93286309D01*
X124003595Y-93281283D01*
X124030828Y-93293214D01*
X124031684Y-93291378D01*
X124140513Y-93342126D01*
X124190099Y-93348654D01*
X124399923Y-93348654D01*
X124609900Y-93348653D01*
X124659487Y-93342126D01*
X124701803Y-93322394D01*
X124758327Y-93296036D01*
X124768316Y-93291378D01*
X124776112Y-93283582D01*
X124779114Y-93281480D01*
X124846387Y-93258790D01*
X124915248Y-93276073D01*
X124966715Y-93333944D01*
X125013605Y-93440510D01*
X125019382Y-93447383D01*
X125019383Y-93447384D01*
X125084805Y-93525213D01*
X125096639Y-93539291D01*
X125204060Y-93610796D01*
X125259818Y-93628216D01*
X125269824Y-93631342D01*
X125328881Y-93670748D01*
X125357258Y-93735827D01*
X125358250Y-93751609D01*
X125358250Y-94136714D01*
X125338248Y-94204835D01*
X125284592Y-94251328D01*
X125244601Y-94262107D01*
X125239036Y-94262655D01*
X125232850Y-94262655D01*
X125226783Y-94263862D01*
X125226780Y-94263862D01*
X125168304Y-94275493D01*
X125168303Y-94275493D01*
X125156133Y-94277914D01*
X125145815Y-94284808D01*
X125134348Y-94289558D01*
X125133206Y-94286800D01*
X125083574Y-94302341D01*
X125015107Y-94283559D01*
X124984739Y-94253658D01*
X124983428Y-94254788D01*
X124905051Y-94163826D01*
X124905049Y-94163824D01*
X124899193Y-94157028D01*
X124790906Y-94086841D01*
X124782311Y-94084271D01*
X124782310Y-94084270D01*
X124675874Y-94052438D01*
X124675872Y-94052438D01*
X124667273Y-94049866D01*
X124658298Y-94049811D01*
X124658297Y-94049811D01*
X124603641Y-94049477D01*
X124538231Y-94049078D01*
X124493679Y-94061811D01*
X124422786Y-94082072D01*
X124422784Y-94082073D01*
X124414155Y-94084539D01*
X124406565Y-94089328D01*
X124322886Y-94142126D01*
X124305019Y-94153399D01*
X124299076Y-94160128D01*
X124299075Y-94160129D01*
X124273581Y-94188996D01*
X124219596Y-94250122D01*
X124215781Y-94258247D01*
X124215780Y-94258249D01*
X124202653Y-94286209D01*
X124155597Y-94339371D01*
X124087269Y-94358654D01*
X124020647Y-94337261D01*
X124018316Y-94334930D01*
X124008328Y-94330273D01*
X124008326Y-94330271D01*
X123918224Y-94288256D01*
X123918223Y-94288256D01*
X123909487Y-94284182D01*
X123859901Y-94277654D01*
X123680066Y-94277654D01*
X123500100Y-94277655D01*
X123450513Y-94284182D01*
X123441779Y-94288255D01*
X123441778Y-94288255D01*
X123355636Y-94328424D01*
X123341684Y-94334930D01*
X123289095Y-94387519D01*
X123226783Y-94421545D01*
X123155968Y-94416480D01*
X123110905Y-94387519D01*
X123058316Y-94334930D01*
X123035289Y-94324192D01*
X122958224Y-94288256D01*
X122958223Y-94288256D01*
X122949487Y-94284182D01*
X122899901Y-94277654D01*
X122720066Y-94277654D01*
X122540100Y-94277655D01*
X122490513Y-94284182D01*
X122490383Y-94284243D01*
X122424515Y-94284110D01*
X122408241Y-94278049D01*
X122399308Y-94274000D01*
X120788327Y-94274000D01*
X120788327Y-94272894D01*
X120763434Y-94274649D01*
X120715486Y-94267654D01*
X120354514Y-94267654D01*
X120349964Y-94268324D01*
X120349961Y-94268324D01*
X120326558Y-94271769D01*
X120286116Y-94277723D01*
X120277324Y-94282040D01*
X120277323Y-94282040D01*
X120229881Y-94305333D01*
X120182120Y-94328782D01*
X120168198Y-94342728D01*
X120139177Y-94371800D01*
X120076895Y-94405879D01*
X120006075Y-94400876D01*
X119960986Y-94371955D01*
X119924750Y-94335782D01*
X119924749Y-94335782D01*
X119917379Y-94328424D01*
X119813294Y-94277546D01*
X119799221Y-94275493D01*
X119750013Y-94268314D01*
X119750007Y-94268314D01*
X119745486Y-94267654D01*
X119384514Y-94267654D01*
X119379964Y-94268324D01*
X119379961Y-94268324D01*
X119356558Y-94271769D01*
X119316116Y-94277723D01*
X119307324Y-94282040D01*
X119307323Y-94282040D01*
X119259881Y-94305333D01*
X119212120Y-94328782D01*
X119130270Y-94410775D01*
X119079392Y-94514860D01*
X119077980Y-94524539D01*
X119070698Y-94574459D01*
X119069500Y-94582668D01*
X119069500Y-94668170D01*
X119049498Y-94736291D01*
X118995842Y-94782784D01*
X118925568Y-94792888D01*
X118860988Y-94763394D01*
X118854483Y-94757344D01*
X118844750Y-94747628D01*
X118844749Y-94747628D01*
X118837379Y-94740270D01*
X118733294Y-94689392D01*
X118723615Y-94687980D01*
X118670013Y-94680160D01*
X118670007Y-94680160D01*
X118665486Y-94679500D01*
X118304514Y-94679500D01*
X118299964Y-94680170D01*
X118299961Y-94680170D01*
X118276558Y-94683615D01*
X118236116Y-94689569D01*
X118184573Y-94714875D01*
X118181467Y-94716400D01*
X118111504Y-94728467D01*
X118046123Y-94700792D01*
X118006083Y-94642164D01*
X118004096Y-94571195D01*
X118011744Y-94550045D01*
X118049897Y-94468227D01*
X118049898Y-94468224D01*
X118053972Y-94459487D01*
X118060500Y-94409901D01*
X118060499Y-94050100D01*
X118059961Y-94046012D01*
X118059700Y-94042031D01*
X118075204Y-93972748D01*
X118108203Y-93934231D01*
X118125929Y-93920481D01*
X118230484Y-93815926D01*
X118240124Y-93803499D01*
X118272588Y-93748605D01*
X120793381Y-93748605D01*
X120793421Y-93762705D01*
X120800691Y-93766000D01*
X122393558Y-93766000D01*
X122407089Y-93762027D01*
X122408224Y-93754129D01*
X122379916Y-93656691D01*
X122380119Y-93585694D01*
X122391578Y-93564778D01*
X122396000Y-93544452D01*
X122396000Y-92672115D01*
X122391525Y-92656876D01*
X122390135Y-92655671D01*
X122382452Y-92654000D01*
X121360116Y-92654000D01*
X121344877Y-92658475D01*
X121343672Y-92659865D01*
X121342001Y-92667548D01*
X121342001Y-93094669D01*
X121342370Y-93101485D01*
X121344556Y-93121606D01*
X121332028Y-93191488D01*
X121283707Y-93243504D01*
X121254446Y-93256210D01*
X121178216Y-93278357D01*
X121163780Y-93284604D01*
X121036501Y-93359876D01*
X121024074Y-93369516D01*
X120919516Y-93474074D01*
X120909876Y-93486501D01*
X120834604Y-93613780D01*
X120828357Y-93628216D01*
X120793381Y-93748605D01*
X118272588Y-93748605D01*
X118315396Y-93676220D01*
X118321643Y-93661784D01*
X118363312Y-93518359D01*
X118365614Y-93505756D01*
X118367807Y-93477898D01*
X118368000Y-93472969D01*
X118368000Y-93371757D01*
X118388002Y-93303636D01*
X118441658Y-93257143D01*
X118518584Y-93248179D01*
X118530252Y-93250500D01*
X120169748Y-93250500D01*
X120176897Y-93249078D01*
X120216061Y-93241288D01*
X120216062Y-93241288D01*
X120228231Y-93238867D01*
X120294552Y-93194552D01*
X120338867Y-93128231D01*
X120341624Y-93114374D01*
X120349293Y-93075816D01*
X120350500Y-93069748D01*
X120350500Y-91730252D01*
X120338867Y-91671769D01*
X120332184Y-91661767D01*
X120324624Y-91591438D01*
X120356405Y-91527951D01*
X120388113Y-91503292D01*
X120403646Y-91494788D01*
X120505724Y-91418285D01*
X120518285Y-91405724D01*
X120594786Y-91303649D01*
X120603324Y-91288054D01*
X120648478Y-91167606D01*
X120652105Y-91152351D01*
X120657631Y-91101486D01*
X120658000Y-91094672D01*
X120658000Y-90672115D01*
X120653525Y-90656876D01*
X120652135Y-90655671D01*
X120644452Y-90654000D01*
X119222000Y-90654000D01*
X119153879Y-90633998D01*
X119107386Y-90580342D01*
X119096000Y-90528000D01*
X119096000Y-90127885D01*
X119604000Y-90127885D01*
X119608475Y-90143124D01*
X119609865Y-90144329D01*
X119617548Y-90146000D01*
X120639884Y-90146000D01*
X120655123Y-90141525D01*
X120656328Y-90140135D01*
X120657999Y-90132452D01*
X120657999Y-89782092D01*
X120678001Y-89713971D01*
X120731657Y-89667478D01*
X120740841Y-89664457D01*
X120742909Y-89662419D01*
X120746000Y-89650487D01*
X120746000Y-89152115D01*
X120741525Y-89136876D01*
X120740135Y-89135671D01*
X120732452Y-89134000D01*
X120206441Y-89134000D01*
X120191450Y-89138402D01*
X120163998Y-89198513D01*
X120104271Y-89236896D01*
X120068774Y-89242000D01*
X119622115Y-89242000D01*
X119606876Y-89246475D01*
X119605671Y-89247865D01*
X119604000Y-89255548D01*
X119604000Y-90127885D01*
X119096000Y-90127885D01*
X119096000Y-89260116D01*
X119091525Y-89244877D01*
X119079812Y-89234727D01*
X119037894Y-89211839D01*
X119003868Y-89149527D01*
X119008932Y-89078711D01*
X119037893Y-89033647D01*
X119053224Y-89018316D01*
X119073566Y-88974694D01*
X119099898Y-88918224D01*
X119099898Y-88918223D01*
X119103972Y-88909487D01*
X119110500Y-88859901D01*
X119110500Y-88845821D01*
X119130502Y-88777700D01*
X119147405Y-88756726D01*
X120276379Y-87627753D01*
X120338691Y-87593727D01*
X120409507Y-87598792D01*
X120466342Y-87641339D01*
X120491153Y-87707859D01*
X120490396Y-87733292D01*
X120489500Y-87740099D01*
X120489501Y-88099900D01*
X120490039Y-88103988D01*
X120490300Y-88107969D01*
X120474796Y-88177252D01*
X120441797Y-88215769D01*
X120424071Y-88229519D01*
X120319516Y-88334074D01*
X120309876Y-88346501D01*
X120234604Y-88473780D01*
X120228357Y-88488216D01*
X120193381Y-88608605D01*
X120193421Y-88622705D01*
X120200691Y-88626000D01*
X121793558Y-88626000D01*
X121807089Y-88622027D01*
X121808224Y-88614129D01*
X121771643Y-88488216D01*
X121765396Y-88473780D01*
X121690124Y-88346501D01*
X121680484Y-88334074D01*
X121575929Y-88229519D01*
X121558204Y-88215770D01*
X121516638Y-88158214D01*
X121509701Y-88107970D01*
X121509962Y-88103987D01*
X121510500Y-88099901D01*
X121510499Y-87740100D01*
X121506094Y-87706636D01*
X121517036Y-87636489D01*
X121564166Y-87583393D01*
X121597874Y-87568633D01*
X121646818Y-87555289D01*
X121703021Y-87539966D01*
X121710671Y-87535269D01*
X121710673Y-87535268D01*
X121805338Y-87477144D01*
X121805341Y-87477141D01*
X121812990Y-87472445D01*
X121819518Y-87465233D01*
X121893566Y-87383427D01*
X121893569Y-87383423D01*
X121899588Y-87376773D01*
X121955854Y-87260641D01*
X121957299Y-87252053D01*
X121996990Y-87193349D01*
X122062241Y-87165370D01*
X122132260Y-87177110D01*
G37*
%TD.AperFunction*%
%TA.AperFunction,Conductor*%
G36*
X132541121Y-78621002D02*
G01*
X132587614Y-78674658D01*
X132599000Y-78727000D01*
X132599000Y-81399802D01*
X132598918Y-81400000D01*
X132599000Y-81400198D01*
X132599235Y-81400765D01*
X132600000Y-81401082D01*
X132600198Y-81401000D01*
X133074000Y-81401000D01*
X133142121Y-81421002D01*
X133188614Y-81474658D01*
X133200000Y-81527000D01*
X133200000Y-81773500D01*
X133179998Y-81841621D01*
X133126342Y-81888114D01*
X133074000Y-81899500D01*
X132999107Y-81899500D01*
X132947652Y-81899455D01*
X132947656Y-81894650D01*
X132947558Y-81894644D01*
X132947558Y-81899500D01*
X132755892Y-81899500D01*
X132718626Y-81899467D01*
X132718624Y-81899467D01*
X132704437Y-81899455D01*
X132691646Y-81905597D01*
X132686733Y-81906713D01*
X132679183Y-81909350D01*
X132674649Y-81911532D01*
X132660815Y-81914688D01*
X132649720Y-81923529D01*
X132644846Y-81925875D01*
X132638994Y-81929546D01*
X132634762Y-81932912D01*
X132621976Y-81939052D01*
X132613116Y-81950131D01*
X132609176Y-81953265D01*
X132603515Y-81958916D01*
X132600373Y-81962852D01*
X132589276Y-81971695D01*
X132583111Y-81984477D01*
X132579737Y-81988704D01*
X132576058Y-81994547D01*
X132573707Y-81999410D01*
X132564844Y-82010492D01*
X132561664Y-82024320D01*
X132559474Y-82028851D01*
X132556824Y-82036397D01*
X132555700Y-82041307D01*
X132549535Y-82054087D01*
X132549515Y-82077155D01*
X132547490Y-82077153D01*
X132547474Y-82077219D01*
X132549500Y-82077219D01*
X132549500Y-82094108D01*
X132549455Y-82145563D01*
X132544650Y-82145559D01*
X132544644Y-82145657D01*
X132549500Y-82145657D01*
X132549500Y-82994108D01*
X132549482Y-83015117D01*
X132549455Y-83045563D01*
X132555597Y-83058354D01*
X132556713Y-83063267D01*
X132559350Y-83070817D01*
X132561532Y-83075351D01*
X132564688Y-83089185D01*
X132573529Y-83100280D01*
X132575875Y-83105154D01*
X132579546Y-83111006D01*
X132582912Y-83115238D01*
X132589052Y-83128024D01*
X132600131Y-83136884D01*
X132603265Y-83140824D01*
X132608916Y-83146485D01*
X132612852Y-83149627D01*
X132621695Y-83160724D01*
X132634477Y-83166889D01*
X132638704Y-83170263D01*
X132644547Y-83173942D01*
X132649410Y-83176293D01*
X132660492Y-83185156D01*
X132674320Y-83188336D01*
X132678851Y-83190526D01*
X132686397Y-83193176D01*
X132691307Y-83194300D01*
X132704087Y-83200465D01*
X132727155Y-83200485D01*
X132727153Y-83202510D01*
X132727219Y-83202526D01*
X132727219Y-83200500D01*
X132744108Y-83200500D01*
X132795563Y-83200545D01*
X132795559Y-83205350D01*
X132795657Y-83205356D01*
X132795657Y-83200500D01*
X133074000Y-83200500D01*
X133142121Y-83220502D01*
X133188614Y-83274158D01*
X133200000Y-83326500D01*
X133200000Y-84073500D01*
X133179998Y-84141621D01*
X133126342Y-84188114D01*
X133074000Y-84199500D01*
X132912016Y-84199500D01*
X132843895Y-84179498D01*
X132822921Y-84162595D01*
X132164111Y-83503785D01*
X132156684Y-83495681D01*
X132139541Y-83475251D01*
X132139542Y-83475251D01*
X132132455Y-83466806D01*
X132122906Y-83461293D01*
X132099815Y-83447961D01*
X132090544Y-83442055D01*
X132068715Y-83426770D01*
X132059684Y-83420446D01*
X132049034Y-83417592D01*
X132045866Y-83416115D01*
X132042590Y-83414923D01*
X132033045Y-83409412D01*
X131999301Y-83403462D01*
X131995942Y-83402870D01*
X131985215Y-83400492D01*
X131948807Y-83390736D01*
X131937822Y-83391697D01*
X131937820Y-83391697D01*
X131911272Y-83394020D01*
X131900290Y-83394500D01*
X131543829Y-83394500D01*
X131475708Y-83374498D01*
X131454818Y-83357678D01*
X131437379Y-83340270D01*
X131425678Y-83334550D01*
X131380633Y-83312532D01*
X131333294Y-83289392D01*
X131323615Y-83287980D01*
X131270013Y-83280160D01*
X131270007Y-83280160D01*
X131265486Y-83279500D01*
X130904514Y-83279500D01*
X130899964Y-83280170D01*
X130899961Y-83280170D01*
X130876558Y-83283615D01*
X130836116Y-83289569D01*
X130732120Y-83340628D01*
X130724763Y-83347997D01*
X130724764Y-83347997D01*
X130689177Y-83383646D01*
X130626895Y-83417725D01*
X130556075Y-83412722D01*
X130510988Y-83383803D01*
X130510831Y-83383646D01*
X130488516Y-83361370D01*
X130454436Y-83299090D01*
X130459438Y-83228270D01*
X130488438Y-83183102D01*
X130553224Y-83118316D01*
X130558353Y-83107318D01*
X130599898Y-83018224D01*
X130599899Y-83018222D01*
X130603972Y-83009487D01*
X130610500Y-82959901D01*
X130610499Y-82600100D01*
X130609961Y-82596012D01*
X130609700Y-82592031D01*
X130625204Y-82522748D01*
X130658203Y-82484231D01*
X130675929Y-82470481D01*
X130780484Y-82365926D01*
X130790124Y-82353499D01*
X130865396Y-82226220D01*
X130871643Y-82211784D01*
X130906619Y-82091395D01*
X130906579Y-82077295D01*
X130899309Y-82074000D01*
X129306442Y-82074000D01*
X129292911Y-82077973D01*
X129291776Y-82085871D01*
X129328357Y-82211784D01*
X129334604Y-82226220D01*
X129409876Y-82353499D01*
X129419516Y-82365926D01*
X129524071Y-82470481D01*
X129541796Y-82484230D01*
X129583362Y-82541786D01*
X129590299Y-82592030D01*
X129590038Y-82596013D01*
X129589500Y-82600099D01*
X129589501Y-82959900D01*
X129596028Y-83009487D01*
X129600101Y-83018221D01*
X129600101Y-83018222D01*
X129642116Y-83108323D01*
X129646776Y-83118316D01*
X129707865Y-83179405D01*
X129741891Y-83241717D01*
X129736826Y-83312532D01*
X129694279Y-83369368D01*
X129627759Y-83394179D01*
X129618770Y-83394500D01*
X129587016Y-83394500D01*
X129518895Y-83374498D01*
X129497921Y-83357595D01*
X129397404Y-83257078D01*
X129363378Y-83194766D01*
X129360499Y-83167983D01*
X129360499Y-83140100D01*
X129353972Y-83090513D01*
X129333012Y-83045563D01*
X129307884Y-82991677D01*
X129307883Y-82991676D01*
X129303224Y-82981684D01*
X129218316Y-82896776D01*
X129203867Y-82890038D01*
X129118224Y-82850102D01*
X129118223Y-82850102D01*
X129109487Y-82846028D01*
X129064003Y-82840040D01*
X129063988Y-82840038D01*
X129063987Y-82840038D01*
X129059901Y-82839500D01*
X128880066Y-82839500D01*
X128700100Y-82839501D01*
X128650513Y-82846028D01*
X128641779Y-82850101D01*
X128641778Y-82850101D01*
X128556129Y-82890040D01*
X128541684Y-82896776D01*
X128489095Y-82949365D01*
X128426783Y-82983391D01*
X128355968Y-82978326D01*
X128310905Y-82949365D01*
X128258316Y-82896776D01*
X128243867Y-82890038D01*
X128158224Y-82850102D01*
X128158223Y-82850102D01*
X128149487Y-82846028D01*
X128104003Y-82840040D01*
X128103988Y-82840038D01*
X128103987Y-82840038D01*
X128099901Y-82839500D01*
X127920066Y-82839500D01*
X127740100Y-82839501D01*
X127729102Y-82840949D01*
X127658955Y-82830009D01*
X127605857Y-82782881D01*
X127586667Y-82714527D01*
X127591661Y-82680875D01*
X127619109Y-82586397D01*
X127619069Y-82572295D01*
X127611799Y-82569000D01*
X125993952Y-82569000D01*
X125980421Y-82572973D01*
X125979286Y-82580871D01*
X126021130Y-82724900D01*
X126018757Y-82725589D01*
X126025961Y-82783911D01*
X125995188Y-82847892D01*
X125934710Y-82885079D01*
X125901625Y-82889500D01*
X125669782Y-82889501D01*
X125550100Y-82889501D01*
X125500513Y-82896028D01*
X125491779Y-82900101D01*
X125491778Y-82900101D01*
X125422039Y-82932621D01*
X125391684Y-82946776D01*
X125339095Y-82999365D01*
X125276783Y-83033391D01*
X125205968Y-83028326D01*
X125160905Y-82999365D01*
X125108316Y-82946776D01*
X125076887Y-82932120D01*
X125008224Y-82900102D01*
X125008223Y-82900102D01*
X124999487Y-82896028D01*
X124949901Y-82889500D01*
X124770066Y-82889500D01*
X124590100Y-82889501D01*
X124540513Y-82896028D01*
X124531779Y-82900101D01*
X124531778Y-82900101D01*
X124462039Y-82932621D01*
X124431684Y-82946776D01*
X124346776Y-83031684D01*
X124342117Y-83041676D01*
X124342116Y-83041677D01*
X124302742Y-83126114D01*
X124296028Y-83140513D01*
X124289500Y-83190099D01*
X124289500Y-83217984D01*
X124269498Y-83286105D01*
X124252595Y-83307079D01*
X124072079Y-83487595D01*
X124009767Y-83521621D01*
X123982984Y-83524500D01*
X123601500Y-83524500D01*
X123533379Y-83504498D01*
X123486886Y-83450842D01*
X123475500Y-83398501D01*
X123475499Y-83267788D01*
X123475499Y-83261600D01*
X123471545Y-83241717D01*
X123462661Y-83197054D01*
X123462661Y-83197053D01*
X123460240Y-83184883D01*
X123453346Y-83174565D01*
X123448596Y-83163098D01*
X123449781Y-83162607D01*
X123432468Y-83107318D01*
X123451250Y-83038851D01*
X123469353Y-83015973D01*
X123610288Y-82875038D01*
X123672600Y-82841012D01*
X123683809Y-82839099D01*
X123684777Y-82838978D01*
X123693755Y-82839143D01*
X123756005Y-82822172D01*
X123809592Y-82807562D01*
X123809593Y-82807562D01*
X123818255Y-82805200D01*
X123825905Y-82800503D01*
X123825907Y-82800502D01*
X123920572Y-82742378D01*
X123920575Y-82742375D01*
X123928224Y-82737679D01*
X123934250Y-82731022D01*
X124008800Y-82648661D01*
X124008803Y-82648657D01*
X124014822Y-82642007D01*
X124071088Y-82525875D01*
X124090011Y-82413400D01*
X124091690Y-82403417D01*
X124092497Y-82398620D01*
X124092633Y-82387500D01*
X124084143Y-82328216D01*
X124075612Y-82268645D01*
X124075611Y-82268642D01*
X124074339Y-82259759D01*
X124070625Y-82251590D01*
X124070624Y-82251587D01*
X124065547Y-82240421D01*
X124055559Y-82170130D01*
X124085160Y-82105598D01*
X124091152Y-82099174D01*
X124442921Y-81747405D01*
X124505233Y-81713379D01*
X124532015Y-81710500D01*
X124693051Y-81710499D01*
X124709900Y-81710499D01*
X124759487Y-81703972D01*
X124778016Y-81695332D01*
X124858323Y-81657884D01*
X124858324Y-81657883D01*
X124868316Y-81653224D01*
X124953224Y-81568316D01*
X124954856Y-81569948D01*
X124998703Y-81534900D01*
X125046458Y-81525500D01*
X125053542Y-81525500D01*
X125121663Y-81545502D01*
X125146102Y-81568990D01*
X125146776Y-81568316D01*
X125231684Y-81653224D01*
X125241676Y-81657883D01*
X125241677Y-81657884D01*
X125331776Y-81699898D01*
X125340513Y-81703972D01*
X125390099Y-81710500D01*
X125599923Y-81710500D01*
X125809900Y-81710499D01*
X125859487Y-81703972D01*
X125878016Y-81695332D01*
X125948207Y-81684670D01*
X126013020Y-81713649D01*
X126051877Y-81773068D01*
X126052441Y-81844062D01*
X126039721Y-81873665D01*
X126025165Y-81898278D01*
X126018918Y-81912713D01*
X125980891Y-82043605D01*
X125980931Y-82057705D01*
X125988201Y-82061000D01*
X126527885Y-82061000D01*
X126543124Y-82056525D01*
X126544329Y-82055135D01*
X126546000Y-82047452D01*
X126546000Y-82042885D01*
X127054000Y-82042885D01*
X127058475Y-82058124D01*
X127059865Y-82059329D01*
X127067548Y-82061000D01*
X127606048Y-82061000D01*
X127619579Y-82057027D01*
X127620714Y-82049129D01*
X127581082Y-81912713D01*
X127574834Y-81898276D01*
X127498601Y-81769373D01*
X127488952Y-81756935D01*
X127383065Y-81651048D01*
X127370627Y-81641399D01*
X127241724Y-81565166D01*
X127227287Y-81558918D01*
X127191789Y-81548605D01*
X129293381Y-81548605D01*
X129293421Y-81562705D01*
X129300691Y-81566000D01*
X129827885Y-81566000D01*
X129843124Y-81561525D01*
X129844329Y-81560135D01*
X129846000Y-81552452D01*
X129846000Y-81547885D01*
X130354000Y-81547885D01*
X130358475Y-81563124D01*
X130359865Y-81564329D01*
X130367548Y-81566000D01*
X130893558Y-81566000D01*
X130907089Y-81562027D01*
X130908224Y-81554129D01*
X130871643Y-81428216D01*
X130865396Y-81413780D01*
X130790124Y-81286501D01*
X130780484Y-81274074D01*
X130675926Y-81169516D01*
X130663499Y-81159876D01*
X130536220Y-81084604D01*
X130521784Y-81078357D01*
X130378359Y-81036688D01*
X130370391Y-81035232D01*
X130356969Y-81038052D01*
X130354000Y-81049513D01*
X130354000Y-81547885D01*
X129846000Y-81547885D01*
X129846000Y-81051576D01*
X129841656Y-81036781D01*
X129831225Y-81034937D01*
X129821641Y-81036688D01*
X129678216Y-81078357D01*
X129663780Y-81084604D01*
X129536501Y-81159876D01*
X129524074Y-81169516D01*
X129419516Y-81274074D01*
X129409876Y-81286501D01*
X129334604Y-81413780D01*
X129328357Y-81428216D01*
X129293381Y-81548605D01*
X127191789Y-81548605D01*
X127082043Y-81516721D01*
X127071365Y-81514771D01*
X127056969Y-81517795D01*
X127054000Y-81529258D01*
X127054000Y-82042885D01*
X126546000Y-82042885D01*
X126546000Y-81531319D01*
X126541656Y-81516524D01*
X126530160Y-81514492D01*
X126517957Y-81516721D01*
X126372713Y-81558918D01*
X126358276Y-81565166D01*
X126286215Y-81607783D01*
X126217399Y-81625243D01*
X126150067Y-81602727D01*
X126105598Y-81547382D01*
X126098109Y-81476782D01*
X126100365Y-81467222D01*
X126103972Y-81459487D01*
X126110500Y-81409901D01*
X126110499Y-81050100D01*
X126109961Y-81046012D01*
X126109700Y-81042031D01*
X126125204Y-80972748D01*
X126158203Y-80934231D01*
X126175929Y-80920481D01*
X126280484Y-80815926D01*
X126290124Y-80803499D01*
X126365396Y-80676220D01*
X126371643Y-80661784D01*
X126406619Y-80541395D01*
X126406579Y-80527295D01*
X126399309Y-80524000D01*
X123746115Y-80524000D01*
X123730876Y-80528475D01*
X123729671Y-80529865D01*
X123725121Y-80550783D01*
X123721539Y-80550004D01*
X123707998Y-80596121D01*
X123654342Y-80642614D01*
X123602000Y-80654000D01*
X123182115Y-80654000D01*
X123166876Y-80658475D01*
X123165671Y-80659865D01*
X123164000Y-80667548D01*
X123164000Y-81201900D01*
X123167973Y-81215431D01*
X123175871Y-81216566D01*
X123294783Y-81182019D01*
X123309222Y-81175770D01*
X123435405Y-81101146D01*
X123447841Y-81091499D01*
X123551499Y-80987841D01*
X123561141Y-80975410D01*
X123633739Y-80852654D01*
X123685632Y-80804201D01*
X123755483Y-80791496D01*
X123821114Y-80818571D01*
X123831288Y-80827698D01*
X123924071Y-80920481D01*
X123941796Y-80934230D01*
X123983362Y-80991786D01*
X123990299Y-81042029D01*
X123990038Y-81046014D01*
X123989500Y-81050099D01*
X123989501Y-81159876D01*
X123989501Y-81227982D01*
X123969499Y-81296103D01*
X123952596Y-81317078D01*
X123421285Y-81848389D01*
X123413181Y-81855816D01*
X123384306Y-81880045D01*
X123378793Y-81889594D01*
X123365461Y-81912685D01*
X123359555Y-81921956D01*
X123337946Y-81952816D01*
X123335092Y-81963466D01*
X123333615Y-81966634D01*
X123332423Y-81969910D01*
X123326912Y-81979455D01*
X123321758Y-82008685D01*
X123320370Y-82016558D01*
X123317991Y-82027289D01*
X123309736Y-82058096D01*
X123282470Y-82108892D01*
X123257096Y-82137622D01*
X123253282Y-82145745D01*
X123253281Y-82145747D01*
X123234787Y-82185138D01*
X123202254Y-82254432D01*
X123200874Y-82263298D01*
X123188666Y-82341703D01*
X123158422Y-82405935D01*
X123153261Y-82411413D01*
X123077079Y-82487595D01*
X123014767Y-82521621D01*
X122987984Y-82524500D01*
X122730106Y-82524500D01*
X122730105Y-82524501D01*
X122682846Y-82524501D01*
X122614725Y-82504499D01*
X122568232Y-82450843D01*
X122564864Y-82442729D01*
X122553325Y-82411947D01*
X122548478Y-82403094D01*
X122533000Y-82342588D01*
X122533000Y-81504228D01*
X122532462Y-81496019D01*
X122519394Y-81396761D01*
X122513184Y-81373583D01*
X122514874Y-81302606D01*
X122554668Y-81243811D01*
X122619933Y-81215863D01*
X122634530Y-81214973D01*
X122652705Y-81214921D01*
X122656000Y-81207651D01*
X122656000Y-80127885D01*
X123164000Y-80127885D01*
X123168475Y-80143124D01*
X123169865Y-80144329D01*
X123177548Y-80146000D01*
X123623885Y-80146000D01*
X123639124Y-80141525D01*
X123640329Y-80140135D01*
X123644879Y-80119217D01*
X123648461Y-80119996D01*
X123662002Y-80073879D01*
X123715658Y-80027386D01*
X123768000Y-80016000D01*
X124227885Y-80016000D01*
X124243124Y-80011525D01*
X124244329Y-80010135D01*
X124246000Y-80002452D01*
X124246000Y-79997885D01*
X124754000Y-79997885D01*
X124758475Y-80013124D01*
X124759865Y-80014329D01*
X124767548Y-80016000D01*
X125327885Y-80016000D01*
X125343124Y-80011525D01*
X125344329Y-80010135D01*
X125346000Y-80002452D01*
X125346000Y-79997885D01*
X125854000Y-79997885D01*
X125858475Y-80013124D01*
X125859865Y-80014329D01*
X125867548Y-80016000D01*
X126393558Y-80016000D01*
X126407089Y-80012027D01*
X126408224Y-80004129D01*
X126371643Y-79878216D01*
X126365396Y-79863780D01*
X126290124Y-79736501D01*
X126280484Y-79724074D01*
X126175926Y-79619516D01*
X126163499Y-79609876D01*
X126036220Y-79534604D01*
X126021784Y-79528357D01*
X125878359Y-79486688D01*
X125870391Y-79485232D01*
X125856969Y-79488052D01*
X125854000Y-79499513D01*
X125854000Y-79997885D01*
X125346000Y-79997885D01*
X125346000Y-79501576D01*
X125341656Y-79486781D01*
X125331225Y-79484937D01*
X125321641Y-79486688D01*
X125178216Y-79528357D01*
X125163778Y-79534605D01*
X125114140Y-79563961D01*
X125045323Y-79581421D01*
X124985860Y-79563961D01*
X124936222Y-79534605D01*
X124921784Y-79528357D01*
X124778359Y-79486688D01*
X124770391Y-79485232D01*
X124756969Y-79488052D01*
X124754000Y-79499513D01*
X124754000Y-79997885D01*
X124246000Y-79997885D01*
X124246000Y-79501576D01*
X124241656Y-79486781D01*
X124231225Y-79484937D01*
X124221641Y-79486688D01*
X124078216Y-79528357D01*
X124063780Y-79534604D01*
X123936501Y-79609876D01*
X123924074Y-79619516D01*
X123819516Y-79724074D01*
X123809876Y-79736501D01*
X123767093Y-79808844D01*
X123715200Y-79857296D01*
X123645350Y-79870002D01*
X123579719Y-79842927D01*
X123559080Y-79821932D01*
X123551499Y-79812159D01*
X123447841Y-79708501D01*
X123435405Y-79698854D01*
X123309222Y-79624230D01*
X123294783Y-79617981D01*
X123181395Y-79585039D01*
X123167295Y-79585079D01*
X123164000Y-79592349D01*
X123164000Y-80127885D01*
X122656000Y-80127885D01*
X122656000Y-79598100D01*
X122652027Y-79584569D01*
X122644129Y-79583434D01*
X122525217Y-79617981D01*
X122510778Y-79624230D01*
X122384595Y-79698854D01*
X122372159Y-79708501D01*
X122268503Y-79812157D01*
X122258852Y-79824598D01*
X122255519Y-79830234D01*
X122203626Y-79878687D01*
X122133776Y-79891392D01*
X122118369Y-79888355D01*
X122113173Y-79885932D01*
X122064316Y-79879500D01*
X121715684Y-79879500D01*
X121666827Y-79885932D01*
X121658091Y-79890006D01*
X121658090Y-79890006D01*
X121569589Y-79931275D01*
X121559596Y-79935935D01*
X121475935Y-80019596D01*
X121425932Y-80126827D01*
X121419500Y-80175684D01*
X121419500Y-80357984D01*
X121399498Y-80426105D01*
X121382595Y-80447079D01*
X121276297Y-80553377D01*
X121213985Y-80587403D01*
X121143170Y-80582338D01*
X121086334Y-80539791D01*
X121086175Y-80539561D01*
X121083428Y-80533520D01*
X121075225Y-80524000D01*
X121005051Y-80442558D01*
X121005049Y-80442556D01*
X120999193Y-80435760D01*
X120890906Y-80365573D01*
X120882311Y-80363003D01*
X120882310Y-80363002D01*
X120775874Y-80331170D01*
X120775872Y-80331170D01*
X120767273Y-80328598D01*
X120758298Y-80328543D01*
X120758297Y-80328543D01*
X120685730Y-80328100D01*
X120617732Y-80307682D01*
X120571568Y-80253743D01*
X120560499Y-80202102D01*
X120560499Y-80190100D01*
X120553972Y-80140513D01*
X120548888Y-80129609D01*
X120507884Y-80041677D01*
X120507883Y-80041676D01*
X120503224Y-80031684D01*
X120418316Y-79946776D01*
X120395068Y-79935935D01*
X120318224Y-79900102D01*
X120318223Y-79900102D01*
X120309487Y-79896028D01*
X120259901Y-79889500D01*
X120255779Y-79889500D01*
X120080001Y-79889501D01*
X119900100Y-79889501D01*
X119896012Y-79890039D01*
X119892031Y-79890300D01*
X119822748Y-79874796D01*
X119784231Y-79841797D01*
X119770481Y-79824071D01*
X119665926Y-79719516D01*
X119653499Y-79709876D01*
X119526220Y-79634604D01*
X119511784Y-79628357D01*
X119391395Y-79593381D01*
X119377295Y-79593421D01*
X119374000Y-79600691D01*
X119374000Y-80528000D01*
X119353998Y-80596121D01*
X119300342Y-80642614D01*
X119248000Y-80654000D01*
X118351576Y-80654000D01*
X118336337Y-80658475D01*
X118329633Y-80666212D01*
X118307025Y-80711783D01*
X118246097Y-80748229D01*
X118175137Y-80745949D01*
X118119047Y-80708503D01*
X118080551Y-80663826D01*
X118080549Y-80663824D01*
X118074693Y-80657028D01*
X117966406Y-80586841D01*
X117957811Y-80584271D01*
X117957810Y-80584270D01*
X117851374Y-80552438D01*
X117851372Y-80552438D01*
X117842773Y-80549866D01*
X117833798Y-80549811D01*
X117833797Y-80549811D01*
X117779141Y-80549477D01*
X117713731Y-80549078D01*
X117651693Y-80566808D01*
X117598286Y-80582072D01*
X117598284Y-80582073D01*
X117589655Y-80584539D01*
X117582065Y-80589328D01*
X117526613Y-80624316D01*
X117480519Y-80653399D01*
X117474576Y-80660128D01*
X117474575Y-80660129D01*
X117471310Y-80663826D01*
X117395096Y-80750122D01*
X117391282Y-80758245D01*
X117391281Y-80758247D01*
X117375671Y-80791496D01*
X117340254Y-80866932D01*
X117331126Y-80925558D01*
X117321782Y-80985567D01*
X117321782Y-80985571D01*
X117320401Y-80994440D01*
X117321565Y-81003342D01*
X117321565Y-81003345D01*
X117335968Y-81113489D01*
X117335969Y-81113493D01*
X117337133Y-81122394D01*
X117381075Y-81222259D01*
X117388579Y-81239314D01*
X117397707Y-81309721D01*
X117367320Y-81373887D01*
X117307066Y-81411437D01*
X117236077Y-81410452D01*
X117204720Y-81395794D01*
X117198437Y-81391722D01*
X117198436Y-81391721D01*
X117190906Y-81386841D01*
X117182311Y-81384271D01*
X117182310Y-81384270D01*
X117075874Y-81352438D01*
X117075872Y-81352438D01*
X117067273Y-81349866D01*
X117058298Y-81349811D01*
X117058297Y-81349811D01*
X117003641Y-81349477D01*
X116938231Y-81349078D01*
X116876193Y-81366809D01*
X116822786Y-81382072D01*
X116822784Y-81382073D01*
X116814155Y-81384539D01*
X116806565Y-81389328D01*
X116745924Y-81427590D01*
X116705019Y-81453399D01*
X116699076Y-81460128D01*
X116699075Y-81460129D01*
X116651063Y-81514492D01*
X116619596Y-81550122D01*
X116615782Y-81558245D01*
X116615781Y-81558247D01*
X116600634Y-81590510D01*
X116564754Y-81666932D01*
X116557522Y-81713379D01*
X116546282Y-81785567D01*
X116546282Y-81785571D01*
X116544901Y-81794440D01*
X116546065Y-81803342D01*
X116546065Y-81803345D01*
X116560468Y-81913489D01*
X116560469Y-81913493D01*
X116561633Y-81922394D01*
X116589104Y-81984826D01*
X116590954Y-81989031D01*
X116600080Y-82059438D01*
X116569693Y-82123603D01*
X116564719Y-82128871D01*
X116519516Y-82174074D01*
X116509876Y-82186501D01*
X116434604Y-82313780D01*
X116428357Y-82328216D01*
X116393381Y-82448605D01*
X116393421Y-82462705D01*
X116400691Y-82466000D01*
X117328000Y-82466000D01*
X117396121Y-82486002D01*
X117442614Y-82539658D01*
X117454000Y-82592000D01*
X117454000Y-82848000D01*
X117433998Y-82916121D01*
X117380342Y-82962614D01*
X117328000Y-82974000D01*
X116406442Y-82974000D01*
X116392911Y-82977973D01*
X116391776Y-82985871D01*
X116428357Y-83111784D01*
X116434604Y-83126220D01*
X116509876Y-83253499D01*
X116519516Y-83265926D01*
X116624071Y-83370481D01*
X116641796Y-83384230D01*
X116683362Y-83441786D01*
X116690299Y-83492030D01*
X116690038Y-83496013D01*
X116689500Y-83500099D01*
X116689501Y-83859900D01*
X116696028Y-83909487D01*
X116700101Y-83918221D01*
X116700101Y-83918222D01*
X116738727Y-84001055D01*
X116746776Y-84018316D01*
X116831684Y-84103224D01*
X116841677Y-84107884D01*
X116841680Y-84107886D01*
X116865280Y-84118891D01*
X116915242Y-84160815D01*
X116922055Y-84170545D01*
X116927961Y-84179815D01*
X116941293Y-84202906D01*
X116946806Y-84212455D01*
X116955251Y-84219541D01*
X116975682Y-84236685D01*
X116983785Y-84244111D01*
X117316237Y-84576563D01*
X117350263Y-84638875D01*
X117352077Y-84649314D01*
X117361633Y-84722394D01*
X117413605Y-84840510D01*
X117419381Y-84847381D01*
X117424126Y-84855005D01*
X117421241Y-84856800D01*
X117443159Y-84906726D01*
X117432021Y-84976844D01*
X117384743Y-85029809D01*
X117353447Y-85043786D01*
X117350071Y-85044770D01*
X117340513Y-85046028D01*
X117288543Y-85070262D01*
X117249653Y-85088397D01*
X117231684Y-85096776D01*
X117189095Y-85139365D01*
X117126783Y-85173391D01*
X117055968Y-85168326D01*
X117010905Y-85139365D01*
X116968316Y-85096776D01*
X116951356Y-85088867D01*
X116868224Y-85050102D01*
X116868223Y-85050102D01*
X116859487Y-85046028D01*
X116809901Y-85039500D01*
X116600077Y-85039500D01*
X116390100Y-85039501D01*
X116340513Y-85046028D01*
X116331779Y-85050101D01*
X116331778Y-85050101D01*
X116242640Y-85091667D01*
X116231684Y-85096776D01*
X116146776Y-85181684D01*
X116142117Y-85191676D01*
X116142116Y-85191677D01*
X116110404Y-85259684D01*
X116096028Y-85290513D01*
X116089500Y-85340099D01*
X116089501Y-85699900D01*
X116090039Y-85703988D01*
X116090300Y-85707969D01*
X116074796Y-85777252D01*
X116041797Y-85815769D01*
X116024071Y-85829519D01*
X115919516Y-85934074D01*
X115909876Y-85946501D01*
X115834604Y-86073780D01*
X115828357Y-86088216D01*
X115793381Y-86208605D01*
X115793421Y-86222705D01*
X115800691Y-86226000D01*
X118393558Y-86226000D01*
X118407089Y-86222027D01*
X118408224Y-86214129D01*
X118371643Y-86088216D01*
X118365396Y-86073780D01*
X118290124Y-85946501D01*
X118280484Y-85934074D01*
X118175929Y-85829519D01*
X118158204Y-85815770D01*
X118116638Y-85758214D01*
X118109701Y-85707970D01*
X118109962Y-85703987D01*
X118110500Y-85699901D01*
X118110499Y-85340100D01*
X118107582Y-85317940D01*
X118118525Y-85247792D01*
X118165655Y-85194696D01*
X118232505Y-85175500D01*
X119038592Y-85175500D01*
X119106713Y-85195502D01*
X119153206Y-85249158D01*
X119163310Y-85319432D01*
X119133032Y-85384908D01*
X119119596Y-85400122D01*
X119115782Y-85408245D01*
X119115781Y-85408247D01*
X119108993Y-85422705D01*
X119064754Y-85516932D01*
X119058849Y-85554859D01*
X119046282Y-85635567D01*
X119046282Y-85635571D01*
X119044901Y-85644440D01*
X119046065Y-85653342D01*
X119046065Y-85653345D01*
X119060468Y-85763489D01*
X119060469Y-85763493D01*
X119061633Y-85772394D01*
X119113605Y-85890510D01*
X119119382Y-85897383D01*
X119119383Y-85897384D01*
X119152932Y-85937295D01*
X119196639Y-85989291D01*
X119304060Y-86060796D01*
X119427233Y-86099278D01*
X119455777Y-86099801D01*
X119523519Y-86121048D01*
X119569021Y-86175546D01*
X119577047Y-86201199D01*
X119589760Y-86265117D01*
X119596654Y-86275434D01*
X119596654Y-86275435D01*
X119639861Y-86340099D01*
X119647888Y-86352112D01*
X119658204Y-86359005D01*
X119666846Y-86367647D01*
X119700872Y-86429959D01*
X119695807Y-86500774D01*
X119666850Y-86545832D01*
X119578354Y-86634328D01*
X119516044Y-86668352D01*
X119488492Y-86671229D01*
X119465662Y-86671090D01*
X119447667Y-86670980D01*
X119439035Y-86673447D01*
X119332222Y-86703974D01*
X119332220Y-86703975D01*
X119323591Y-86706441D01*
X119316001Y-86711230D01*
X119252344Y-86751395D01*
X119214455Y-86775301D01*
X119129032Y-86872024D01*
X119125217Y-86880150D01*
X119118002Y-86895516D01*
X119070945Y-86948677D01*
X119002616Y-86967958D01*
X118968795Y-86962962D01*
X118878359Y-86936688D01*
X118870391Y-86935232D01*
X118856969Y-86938052D01*
X118854000Y-86949513D01*
X118854000Y-87848000D01*
X118833998Y-87916121D01*
X118780342Y-87962614D01*
X118728000Y-87974000D01*
X117806442Y-87974000D01*
X117792911Y-87977973D01*
X117791776Y-87985871D01*
X117828357Y-88111784D01*
X117834604Y-88126220D01*
X117909876Y-88253499D01*
X117919516Y-88265926D01*
X118024071Y-88370481D01*
X118041796Y-88384230D01*
X118083362Y-88441786D01*
X118090299Y-88492030D01*
X118090038Y-88496013D01*
X118089500Y-88500099D01*
X118089500Y-88504220D01*
X118089501Y-88841788D01*
X118069499Y-88909908D01*
X118052596Y-88930883D01*
X118008785Y-88974694D01*
X118000681Y-88982121D01*
X117971806Y-89006350D01*
X117966293Y-89015899D01*
X117952961Y-89038990D01*
X117947055Y-89048261D01*
X117925446Y-89079121D01*
X117922592Y-89089771D01*
X117921115Y-89092939D01*
X117919922Y-89096216D01*
X117914412Y-89105760D01*
X117912498Y-89116613D01*
X117912498Y-89116614D01*
X117910595Y-89127409D01*
X117879068Y-89191022D01*
X117818154Y-89227491D01*
X117747193Y-89225239D01*
X117688715Y-89184980D01*
X117671808Y-89157682D01*
X117669277Y-89152115D01*
X117620231Y-89044244D01*
X117554808Y-88968316D01*
X117541854Y-88953282D01*
X117541852Y-88953280D01*
X117535996Y-88946484D01*
X117427709Y-88876297D01*
X117419114Y-88873727D01*
X117419113Y-88873726D01*
X117312677Y-88841894D01*
X117312675Y-88841894D01*
X117304076Y-88839322D01*
X117295101Y-88839267D01*
X117295100Y-88839267D01*
X117240444Y-88838933D01*
X117175034Y-88838534D01*
X117135164Y-88849929D01*
X117059589Y-88871528D01*
X117059587Y-88871529D01*
X117050958Y-88873995D01*
X117043368Y-88878784D01*
X116980860Y-88918224D01*
X116941822Y-88942855D01*
X116935879Y-88949584D01*
X116935878Y-88949585D01*
X116877312Y-89015899D01*
X116856399Y-89039578D01*
X116852585Y-89047701D01*
X116852584Y-89047703D01*
X116840618Y-89073190D01*
X116801557Y-89156388D01*
X116794998Y-89198513D01*
X116783085Y-89275023D01*
X116783085Y-89275027D01*
X116781704Y-89283896D01*
X116782868Y-89292798D01*
X116782868Y-89292801D01*
X116797271Y-89402945D01*
X116797272Y-89402949D01*
X116798436Y-89411850D01*
X116850408Y-89529966D01*
X116856185Y-89536839D01*
X116856186Y-89536840D01*
X116922219Y-89615396D01*
X116933442Y-89628747D01*
X117040863Y-89700252D01*
X117164036Y-89738734D01*
X117173006Y-89738898D01*
X117173010Y-89738899D01*
X117231745Y-89739975D01*
X117293058Y-89741099D01*
X117383707Y-89716385D01*
X117408895Y-89709518D01*
X117408896Y-89709518D01*
X117417558Y-89707156D01*
X117425208Y-89702459D01*
X117425210Y-89702458D01*
X117519875Y-89644334D01*
X117519878Y-89644331D01*
X117527527Y-89639635D01*
X117533553Y-89632978D01*
X117608103Y-89550617D01*
X117608106Y-89550613D01*
X117614125Y-89543963D01*
X117660108Y-89449055D01*
X117707811Y-89396472D01*
X117776369Y-89378027D01*
X117844017Y-89399575D01*
X117889276Y-89454275D01*
X117899500Y-89503994D01*
X117899500Y-91255290D01*
X117899020Y-91266272D01*
X117895736Y-91303807D01*
X117898590Y-91314456D01*
X117905491Y-91340210D01*
X117907870Y-91350942D01*
X117914412Y-91388045D01*
X117919923Y-91397590D01*
X117921115Y-91400866D01*
X117922592Y-91404034D01*
X117925446Y-91414684D01*
X117931770Y-91423715D01*
X117947055Y-91445544D01*
X117952961Y-91454815D01*
X117961356Y-91469355D01*
X117971806Y-91487455D01*
X117980248Y-91494539D01*
X118000674Y-91511679D01*
X118008776Y-91519103D01*
X118173615Y-91683941D01*
X118312595Y-91822921D01*
X118346620Y-91885234D01*
X118349500Y-91912017D01*
X118349500Y-92538900D01*
X118329498Y-92607021D01*
X118275842Y-92653514D01*
X118205568Y-92663618D01*
X118140988Y-92634124D01*
X118134405Y-92627995D01*
X118125926Y-92619516D01*
X118113499Y-92609876D01*
X117986220Y-92534604D01*
X117971784Y-92528357D01*
X117828359Y-92486688D01*
X117820391Y-92485232D01*
X117806969Y-92488052D01*
X117804000Y-92499513D01*
X117804000Y-93398000D01*
X117783998Y-93466121D01*
X117730342Y-93512614D01*
X117678000Y-93524000D01*
X116756442Y-93524000D01*
X116742911Y-93527973D01*
X116741776Y-93535871D01*
X116778357Y-93661784D01*
X116784604Y-93676220D01*
X116859876Y-93803499D01*
X116869516Y-93815926D01*
X116974071Y-93920481D01*
X116991796Y-93934230D01*
X117033362Y-93991786D01*
X117040299Y-94042030D01*
X117040038Y-94046013D01*
X117039500Y-94050099D01*
X117039500Y-94061811D01*
X117019498Y-94129932D01*
X116965842Y-94176425D01*
X116895568Y-94186529D01*
X116830988Y-94157035D01*
X116824405Y-94150906D01*
X116257284Y-93583785D01*
X116249857Y-93575681D01*
X116235020Y-93557999D01*
X116225628Y-93546806D01*
X116213640Y-93539885D01*
X116192988Y-93527961D01*
X116183717Y-93522055D01*
X116161888Y-93506770D01*
X116152857Y-93500446D01*
X116142207Y-93497592D01*
X116139039Y-93496115D01*
X116135762Y-93494922D01*
X116126218Y-93489412D01*
X116096861Y-93484236D01*
X116033248Y-93452710D01*
X116020131Y-93438589D01*
X116017089Y-93434765D01*
X116010948Y-93421976D01*
X115999991Y-93413214D01*
X115999582Y-93412755D01*
X115998660Y-93411596D01*
X115994552Y-93405448D01*
X115988123Y-93401152D01*
X115987233Y-93400442D01*
X115987127Y-93400347D01*
X115978305Y-93389276D01*
X115965522Y-93383110D01*
X115961297Y-93379738D01*
X115955449Y-93376055D01*
X115950586Y-93373704D01*
X115939508Y-93364844D01*
X115930782Y-93362837D01*
X115928231Y-93361133D01*
X115922034Y-93359901D01*
X115917551Y-93357733D01*
X115912824Y-93357308D01*
X115909647Y-93355918D01*
X115908692Y-93355699D01*
X115895913Y-93349535D01*
X115872845Y-93349515D01*
X115872847Y-93347490D01*
X115872781Y-93347475D01*
X115872781Y-93349500D01*
X115855892Y-93349500D01*
X115804437Y-93349455D01*
X115804441Y-93344650D01*
X115804343Y-93344644D01*
X115804343Y-93349500D01*
X115526000Y-93349500D01*
X115457879Y-93329498D01*
X115411386Y-93275842D01*
X115400000Y-93223500D01*
X115400000Y-92998605D01*
X116743381Y-92998605D01*
X116743421Y-93012705D01*
X116750691Y-93016000D01*
X117277885Y-93016000D01*
X117293124Y-93011525D01*
X117294329Y-93010135D01*
X117296000Y-93002452D01*
X117296000Y-92501576D01*
X117291656Y-92486781D01*
X117281225Y-92484937D01*
X117271641Y-92486688D01*
X117128216Y-92528357D01*
X117113780Y-92534604D01*
X116986501Y-92609876D01*
X116974074Y-92619516D01*
X116869516Y-92724074D01*
X116859876Y-92736501D01*
X116784604Y-92863780D01*
X116778357Y-92878216D01*
X116743381Y-92998605D01*
X115400000Y-92998605D01*
X115400000Y-87448605D01*
X117793381Y-87448605D01*
X117793421Y-87462705D01*
X117800691Y-87466000D01*
X118327885Y-87466000D01*
X118343124Y-87461525D01*
X118344329Y-87460135D01*
X118346000Y-87452452D01*
X118346000Y-86953487D01*
X118362394Y-86893558D01*
X118362248Y-86893495D01*
X118362693Y-86892466D01*
X118363546Y-86889349D01*
X118365395Y-86886222D01*
X118371643Y-86871784D01*
X118406619Y-86751395D01*
X118406579Y-86737295D01*
X118399309Y-86734000D01*
X117872115Y-86734000D01*
X117856876Y-86738475D01*
X117855671Y-86739865D01*
X117854000Y-86747548D01*
X117854000Y-87246513D01*
X117837606Y-87306442D01*
X117837752Y-87306505D01*
X117837307Y-87307534D01*
X117836454Y-87310651D01*
X117834605Y-87313778D01*
X117828357Y-87328216D01*
X117793381Y-87448605D01*
X115400000Y-87448605D01*
X115400000Y-86745871D01*
X115791776Y-86745871D01*
X115828357Y-86871784D01*
X115834604Y-86886220D01*
X115909876Y-87013499D01*
X115919516Y-87025926D01*
X116024074Y-87130484D01*
X116036501Y-87140124D01*
X116163780Y-87215396D01*
X116178216Y-87221643D01*
X116321641Y-87263312D01*
X116329609Y-87264768D01*
X116343031Y-87261948D01*
X116346000Y-87250487D01*
X116346000Y-87248424D01*
X116854000Y-87248424D01*
X116858344Y-87263219D01*
X116868775Y-87265063D01*
X116878359Y-87263312D01*
X117021784Y-87221643D01*
X117043497Y-87212247D01*
X117044053Y-87213531D01*
X117104674Y-87198149D01*
X117156073Y-87213241D01*
X117156503Y-87212247D01*
X117178216Y-87221643D01*
X117321641Y-87263312D01*
X117329609Y-87264768D01*
X117343031Y-87261948D01*
X117346000Y-87250487D01*
X117346000Y-86752115D01*
X117341525Y-86736876D01*
X117340135Y-86735671D01*
X117332452Y-86734000D01*
X116872115Y-86734000D01*
X116856876Y-86738475D01*
X116855671Y-86739865D01*
X116854000Y-86747548D01*
X116854000Y-87248424D01*
X116346000Y-87248424D01*
X116346000Y-86752115D01*
X116341525Y-86736876D01*
X116340135Y-86735671D01*
X116332452Y-86734000D01*
X115806442Y-86734000D01*
X115792911Y-86737973D01*
X115791776Y-86745871D01*
X115400000Y-86745871D01*
X115400000Y-81527000D01*
X115420002Y-81458879D01*
X115473658Y-81412386D01*
X115526000Y-81401000D01*
X115999802Y-81401000D01*
X116000000Y-81401082D01*
X116000765Y-81400765D01*
X116001000Y-81400198D01*
X116001082Y-81400000D01*
X116001000Y-81399802D01*
X116001000Y-80129609D01*
X118335232Y-80129609D01*
X118338052Y-80143031D01*
X118349513Y-80146000D01*
X118847885Y-80146000D01*
X118863124Y-80141525D01*
X118864329Y-80140135D01*
X118866000Y-80132452D01*
X118866000Y-79606442D01*
X118862027Y-79592911D01*
X118854129Y-79591776D01*
X118728216Y-79628357D01*
X118713780Y-79634604D01*
X118586501Y-79709876D01*
X118574074Y-79719516D01*
X118469516Y-79824074D01*
X118459876Y-79836501D01*
X118384604Y-79963780D01*
X118378357Y-79978216D01*
X118336688Y-80121641D01*
X118335232Y-80129609D01*
X116001000Y-80129609D01*
X116001000Y-78727000D01*
X116021002Y-78658879D01*
X116074658Y-78612386D01*
X116127000Y-78601000D01*
X132473000Y-78601000D01*
X132541121Y-78621002D01*
G37*
%TD.AperFunction*%
%TA.AperFunction,Conductor*%
G36*
X125679259Y-91536052D02*
G01*
X125723728Y-91591397D01*
X125733250Y-91639448D01*
X125733250Y-92660215D01*
X125713248Y-92728336D01*
X125659592Y-92774829D01*
X125589318Y-92784933D01*
X125571151Y-92780933D01*
X125484032Y-92754878D01*
X125475874Y-92752438D01*
X125475872Y-92752438D01*
X125467273Y-92749866D01*
X125458297Y-92749811D01*
X125449417Y-92748484D01*
X125449747Y-92746279D01*
X125393578Y-92729410D01*
X125373254Y-92712928D01*
X125312265Y-92651939D01*
X125304838Y-92643835D01*
X125287695Y-92623405D01*
X125287696Y-92623405D01*
X125280609Y-92614960D01*
X125266858Y-92607021D01*
X125247969Y-92596115D01*
X125238698Y-92590209D01*
X125216869Y-92574924D01*
X125207838Y-92568600D01*
X125197187Y-92565746D01*
X125194024Y-92564271D01*
X125191484Y-92563347D01*
X125190278Y-92562459D01*
X125189039Y-92561946D01*
X125187720Y-92561331D01*
X125187218Y-92561041D01*
X125187309Y-92560847D01*
X125182966Y-92558586D01*
X125181199Y-92557566D01*
X125181198Y-92557566D01*
X125181923Y-92556309D01*
X125134307Y-92521259D01*
X125108962Y-92454940D01*
X125126111Y-92380802D01*
X125165396Y-92314374D01*
X125171643Y-92299938D01*
X125206619Y-92179549D01*
X125206579Y-92165449D01*
X125199309Y-92162154D01*
X124272000Y-92162154D01*
X124203879Y-92142152D01*
X124157386Y-92088496D01*
X124146000Y-92036154D01*
X124146000Y-91780154D01*
X124166002Y-91712033D01*
X124219658Y-91665540D01*
X124272000Y-91654154D01*
X125193558Y-91654154D01*
X125208796Y-91649680D01*
X125208829Y-91649642D01*
X125268555Y-91611258D01*
X125299271Y-91606842D01*
X125299248Y-91606251D01*
X125306648Y-91605961D01*
X125334506Y-91603768D01*
X125347109Y-91601466D01*
X125490534Y-91559797D01*
X125504974Y-91553548D01*
X125543112Y-91530994D01*
X125611928Y-91513535D01*
X125679259Y-91536052D01*
G37*
%TD.AperFunction*%
%TA.AperFunction,Conductor*%
G36*
X124960375Y-88050201D02*
G01*
X124991908Y-88067431D01*
X125012604Y-88082942D01*
X125028137Y-88091446D01*
X125078283Y-88141704D01*
X125093297Y-88211095D01*
X125084118Y-88249843D01*
X125077383Y-88259923D01*
X125065750Y-88318406D01*
X125065750Y-89657902D01*
X125077383Y-89716385D01*
X125121698Y-89782706D01*
X125188019Y-89827021D01*
X125200188Y-89829442D01*
X125200189Y-89829442D01*
X125246502Y-89838654D01*
X125246252Y-89839911D01*
X125305890Y-89863992D01*
X125346901Y-89921945D01*
X125353400Y-89971616D01*
X125352750Y-89980887D01*
X125352750Y-90916154D01*
X125332748Y-90984275D01*
X125279092Y-91030768D01*
X125226750Y-91042154D01*
X124330326Y-91042154D01*
X124315087Y-91046629D01*
X124293257Y-91071822D01*
X124289362Y-91079675D01*
X124228437Y-91116125D01*
X124196830Y-91120154D01*
X124167031Y-91120154D01*
X124162102Y-91120347D01*
X124134244Y-91122540D01*
X124121641Y-91124842D01*
X123978216Y-91166511D01*
X123963780Y-91172758D01*
X123829680Y-91252064D01*
X123828151Y-91249478D01*
X123775206Y-91270275D01*
X123705581Y-91256385D01*
X123654519Y-91207058D01*
X123638230Y-91137955D01*
X123640467Y-91120189D01*
X123649293Y-91075816D01*
X123650500Y-91069748D01*
X123650500Y-90484192D01*
X123670502Y-90416071D01*
X123724158Y-90369578D01*
X123794432Y-90359474D01*
X123814074Y-90363925D01*
X123918664Y-90396601D01*
X123927233Y-90399278D01*
X123936203Y-90399442D01*
X123936207Y-90399443D01*
X123994942Y-90400519D01*
X124056255Y-90401643D01*
X124156767Y-90374240D01*
X124227750Y-90375620D01*
X124286719Y-90415157D01*
X124314951Y-90480298D01*
X124313890Y-90517324D01*
X124316802Y-90531185D01*
X124328263Y-90534154D01*
X124826635Y-90534154D01*
X124841874Y-90529679D01*
X124843079Y-90528289D01*
X124844750Y-90520606D01*
X124844750Y-89994596D01*
X124840777Y-89981065D01*
X124832879Y-89979930D01*
X124706966Y-90016511D01*
X124692524Y-90022761D01*
X124644681Y-90051055D01*
X124575865Y-90068515D01*
X124508534Y-90045998D01*
X124464064Y-89990654D01*
X124455108Y-89952083D01*
X124455133Y-89950000D01*
X124442816Y-89863992D01*
X124438112Y-89831145D01*
X124438111Y-89831142D01*
X124436839Y-89822259D01*
X124433125Y-89814090D01*
X124387145Y-89712962D01*
X124387143Y-89712959D01*
X124383428Y-89704788D01*
X124337698Y-89651715D01*
X124305051Y-89613826D01*
X124305049Y-89613824D01*
X124299193Y-89607028D01*
X124190906Y-89536841D01*
X124182312Y-89534271D01*
X124182308Y-89534269D01*
X124138413Y-89521142D01*
X124078879Y-89482461D01*
X124049709Y-89417733D01*
X124060164Y-89347511D01*
X124107424Y-89295237D01*
X124107230Y-89294987D01*
X124108634Y-89293898D01*
X124110375Y-89291972D01*
X124113497Y-89290126D01*
X124125926Y-89280484D01*
X124230484Y-89175926D01*
X124240124Y-89163499D01*
X124315396Y-89036220D01*
X124321643Y-89021784D01*
X124363312Y-88878359D01*
X124364768Y-88870391D01*
X124361948Y-88856969D01*
X124350487Y-88854000D01*
X123452000Y-88854000D01*
X123383879Y-88833998D01*
X123337386Y-88780342D01*
X123326000Y-88728000D01*
X123326000Y-88472000D01*
X123346002Y-88403879D01*
X123399658Y-88357386D01*
X123452000Y-88346000D01*
X124348424Y-88346000D01*
X124363663Y-88341525D01*
X124382991Y-88319219D01*
X124389995Y-88305104D01*
X124450925Y-88268662D01*
X124459876Y-88266688D01*
X124478361Y-88263312D01*
X124621784Y-88221643D01*
X124636220Y-88215396D01*
X124763499Y-88140124D01*
X124775926Y-88130484D01*
X124827248Y-88079162D01*
X124889560Y-88045136D01*
X124960375Y-88050201D01*
G37*
%TD.AperFunction*%
%TD*%
M02*
