G04 #@! TF.GenerationSoftware,KiCad,Pcbnew,5.1.10-88a1d61d58~88~ubuntu20.04.1*
G04 #@! TF.CreationDate,2021-05-10T20:01:03+02:00*
G04 #@! TF.ProjectId,WiRoc_NanoPi_v1,5769526f-635f-44e6-916e-6f50695f7631,rev?*
G04 #@! TF.SameCoordinates,Original*
G04 #@! TF.FileFunction,Legend,Bot*
G04 #@! TF.FilePolarity,Positive*
%FSLAX46Y46*%
G04 Gerber Fmt 4.6, Leading zero omitted, Abs format (unit mm)*
G04 Created by KiCad (PCBNEW 5.1.10-88a1d61d58~88~ubuntu20.04.1) date 2021-05-10 20:01:03*
%MOMM*%
%LPD*%
G01*
G04 APERTURE LIST*
%ADD10C,0.120000*%
%ADD11C,0.150000*%
%ADD12O,1.700000X1.700000*%
%ADD13R,1.700000X1.700000*%
%ADD14C,1.500000*%
%ADD15C,2.250000*%
%ADD16C,2.050000*%
%ADD17O,1.500000X1.900000*%
%ADD18O,2.000000X1.500000*%
G04 APERTURE END LIST*
D10*
X48880000Y-102420000D02*
X51540000Y-102420000D01*
X48880000Y-105020000D02*
X48880000Y-102420000D01*
X51540000Y-105020000D02*
X51540000Y-102420000D01*
X48880000Y-105020000D02*
X51540000Y-105020000D01*
X48880000Y-106290000D02*
X48880000Y-107620000D01*
X48880000Y-107620000D02*
X50210000Y-107620000D01*
X75510000Y-114500000D02*
X75510000Y-111840000D01*
X78110000Y-114500000D02*
X75510000Y-114500000D01*
X78110000Y-111840000D02*
X75510000Y-111840000D01*
X78110000Y-114500000D02*
X78110000Y-111840000D01*
X79380000Y-114500000D02*
X80710000Y-114500000D01*
X80710000Y-114500000D02*
X80710000Y-113170000D01*
X50645000Y-69592200D02*
X50645000Y-66692200D01*
X57355000Y-69592200D02*
X57355000Y-66692200D01*
X52550000Y-64787200D02*
X55450000Y-64787200D01*
X52550000Y-71497200D02*
X55450000Y-71497200D01*
D11*
X85099904Y-104879780D02*
X84528476Y-104879780D01*
X84814190Y-105879780D02*
X84814190Y-104879780D01*
X84195142Y-105879780D02*
X84195142Y-104879780D01*
X83814190Y-104879780D01*
X83718952Y-104927400D01*
X83671333Y-104975019D01*
X83623714Y-105070257D01*
X83623714Y-105213114D01*
X83671333Y-105308352D01*
X83718952Y-105355971D01*
X83814190Y-105403590D01*
X84195142Y-105403590D01*
X82671333Y-105879780D02*
X83242761Y-105879780D01*
X82957047Y-105879780D02*
X82957047Y-104879780D01*
X83052285Y-105022638D01*
X83147523Y-105117876D01*
X83242761Y-105165495D01*
X53242499Y-103522073D02*
X52528213Y-103522073D01*
X52385356Y-103569692D01*
X52290118Y-103664930D01*
X52242499Y-103807787D01*
X52242499Y-103903025D01*
X52242499Y-102522073D02*
X52242499Y-103093501D01*
X52242499Y-102807787D02*
X53242499Y-102807787D01*
X53099641Y-102903025D01*
X53004403Y-102998263D01*
X52956784Y-103093501D01*
X77612073Y-111089881D02*
X77469216Y-111137500D01*
X77231120Y-111137500D01*
X77135882Y-111089881D01*
X77088263Y-111042262D01*
X77040644Y-110947024D01*
X77040644Y-110851786D01*
X77088263Y-110756548D01*
X77135882Y-110708929D01*
X77231120Y-110661310D01*
X77421597Y-110613691D01*
X77516835Y-110566072D01*
X77564454Y-110518453D01*
X77612073Y-110423215D01*
X77612073Y-110327977D01*
X77564454Y-110232739D01*
X77516835Y-110185120D01*
X77421597Y-110137500D01*
X77183501Y-110137500D01*
X77040644Y-110185120D01*
X76707311Y-110137500D02*
X76469216Y-111137500D01*
X76278740Y-110423215D01*
X76088263Y-111137500D01*
X75850168Y-110137500D01*
X74945406Y-111137500D02*
X75516835Y-111137500D01*
X75231120Y-111137500D02*
X75231120Y-110137500D01*
X75326359Y-110280358D01*
X75421597Y-110375596D01*
X75516835Y-110423215D01*
X54333333Y-72344580D02*
X54333333Y-73058866D01*
X54380952Y-73201723D01*
X54476190Y-73296961D01*
X54619047Y-73344580D01*
X54714285Y-73344580D01*
X53809523Y-73344580D02*
X53619047Y-73344580D01*
X53523809Y-73296961D01*
X53476190Y-73249342D01*
X53380952Y-73106485D01*
X53333333Y-72916009D01*
X53333333Y-72535057D01*
X53380952Y-72439819D01*
X53428571Y-72392200D01*
X53523809Y-72344580D01*
X53714285Y-72344580D01*
X53809523Y-72392200D01*
X53857142Y-72439819D01*
X53904761Y-72535057D01*
X53904761Y-72773152D01*
X53857142Y-72868390D01*
X53809523Y-72916009D01*
X53714285Y-72963628D01*
X53523809Y-72963628D01*
X53428571Y-72916009D01*
X53380952Y-72868390D01*
X53333333Y-72773152D01*
X69301904Y-79812380D02*
X68730476Y-79812380D01*
X69016190Y-80812380D02*
X69016190Y-79812380D01*
X68397142Y-80812380D02*
X68397142Y-79812380D01*
X68016190Y-79812380D01*
X67920952Y-79860000D01*
X67873333Y-79907619D01*
X67825714Y-80002857D01*
X67825714Y-80145714D01*
X67873333Y-80240952D01*
X67920952Y-80288571D01*
X68016190Y-80336190D01*
X68397142Y-80336190D01*
X67444761Y-79907619D02*
X67397142Y-79860000D01*
X67301904Y-79812380D01*
X67063809Y-79812380D01*
X66968571Y-79860000D01*
X66920952Y-79907619D01*
X66873333Y-80002857D01*
X66873333Y-80098095D01*
X66920952Y-80240952D01*
X67492380Y-80812380D01*
X66873333Y-80812380D01*
X72389044Y-79517180D02*
X71817616Y-79517180D01*
X72103330Y-80517180D02*
X72103330Y-79517180D01*
X71484282Y-80517180D02*
X71484282Y-79517180D01*
X71103330Y-79517180D01*
X71008092Y-79564800D01*
X70960473Y-79612419D01*
X70912854Y-79707657D01*
X70912854Y-79850514D01*
X70960473Y-79945752D01*
X71008092Y-79993371D01*
X71103330Y-80040990D01*
X71484282Y-80040990D01*
X70579520Y-79517180D02*
X69960473Y-79517180D01*
X70293806Y-79898133D01*
X70150949Y-79898133D01*
X70055711Y-79945752D01*
X70008092Y-79993371D01*
X69960473Y-80088609D01*
X69960473Y-80326704D01*
X70008092Y-80421942D01*
X70055711Y-80469561D01*
X70150949Y-80517180D01*
X70436663Y-80517180D01*
X70531901Y-80469561D01*
X70579520Y-80421942D01*
X77232104Y-78984380D02*
X76660676Y-78984380D01*
X76946390Y-79984380D02*
X76946390Y-78984380D01*
X76327342Y-79984380D02*
X76327342Y-78984380D01*
X75946390Y-78984380D01*
X75851152Y-79032000D01*
X75803533Y-79079619D01*
X75755914Y-79174857D01*
X75755914Y-79317714D01*
X75803533Y-79412952D01*
X75851152Y-79460571D01*
X75946390Y-79508190D01*
X76327342Y-79508190D01*
X74898771Y-79317714D02*
X74898771Y-79984380D01*
X75136866Y-78936761D02*
X75374961Y-79651047D01*
X74755914Y-79651047D01*
X63248395Y-104019480D02*
X62676966Y-104019480D01*
X62962680Y-105019480D02*
X62962680Y-104019480D01*
X62343633Y-105019480D02*
X62343633Y-104019480D01*
X61962680Y-104019480D01*
X61867442Y-104067100D01*
X61819823Y-104114719D01*
X61772204Y-104209957D01*
X61772204Y-104352814D01*
X61819823Y-104448052D01*
X61867442Y-104495671D01*
X61962680Y-104543290D01*
X62343633Y-104543290D01*
X60819823Y-105019480D02*
X61391252Y-105019480D01*
X61105538Y-105019480D02*
X61105538Y-104019480D01*
X61200776Y-104162338D01*
X61296014Y-104257576D01*
X61391252Y-104305195D01*
X60200776Y-104019480D02*
X60105538Y-104019480D01*
X60010300Y-104067100D01*
X59962680Y-104114719D01*
X59915061Y-104209957D01*
X59867442Y-104400433D01*
X59867442Y-104638528D01*
X59915061Y-104829004D01*
X59962680Y-104924242D01*
X60010300Y-104971861D01*
X60105538Y-105019480D01*
X60200776Y-105019480D01*
X60296014Y-104971861D01*
X60343633Y-104924242D01*
X60391252Y-104829004D01*
X60438871Y-104638528D01*
X60438871Y-104400433D01*
X60391252Y-104209957D01*
X60343633Y-104114719D01*
X60296014Y-104067100D01*
X60200776Y-104019480D01*
X70408095Y-97062380D02*
X69836666Y-97062380D01*
X70122380Y-98062380D02*
X70122380Y-97062380D01*
X69503333Y-98062380D02*
X69503333Y-97062380D01*
X69122380Y-97062380D01*
X69027142Y-97110000D01*
X68979523Y-97157619D01*
X68931904Y-97252857D01*
X68931904Y-97395714D01*
X68979523Y-97490952D01*
X69027142Y-97538571D01*
X69122380Y-97586190D01*
X69503333Y-97586190D01*
X67979523Y-98062380D02*
X68550952Y-98062380D01*
X68265238Y-98062380D02*
X68265238Y-97062380D01*
X68360476Y-97205238D01*
X68455714Y-97300476D01*
X68550952Y-97348095D01*
X67027142Y-98062380D02*
X67598571Y-98062380D01*
X67312857Y-98062380D02*
X67312857Y-97062380D01*
X67408095Y-97205238D01*
X67503333Y-97300476D01*
X67598571Y-97348095D01*
%LPC*%
D12*
X88620000Y-96045000D03*
X88620000Y-83345000D03*
X91160000Y-103665000D03*
X88620000Y-103665000D03*
X91160000Y-98585000D03*
X88620000Y-101125000D03*
X88620000Y-93505000D03*
X91160000Y-106205000D03*
X88620000Y-90965000D03*
X91160000Y-93505000D03*
X91160000Y-101125000D03*
X91160000Y-88425000D03*
X88620000Y-106205000D03*
X91160000Y-96045000D03*
X88620000Y-98585000D03*
X91160000Y-83345000D03*
X91160000Y-90965000D03*
X88620000Y-88425000D03*
D13*
X88620000Y-78265000D03*
D12*
X88620000Y-85885000D03*
X91160000Y-80805000D03*
X88620000Y-80805000D03*
X91160000Y-85885000D03*
X91160000Y-78265000D03*
X53610000Y-85885000D03*
X53610000Y-83345000D03*
X53610000Y-80805000D03*
D13*
X53610000Y-78265000D03*
D12*
X53610000Y-106205000D03*
X53610000Y-103665000D03*
X53610000Y-101125000D03*
X53610000Y-98585000D03*
X53610000Y-96045000D03*
X53610000Y-88425000D03*
X53610000Y-93505000D03*
X53610000Y-90965000D03*
X56150000Y-101125000D03*
X56150000Y-103665000D03*
X56150000Y-98585000D03*
D13*
X56150000Y-106205000D03*
X56150000Y-96045000D03*
D12*
X56150000Y-88425000D03*
X56150000Y-93505000D03*
X56150000Y-90965000D03*
D14*
X86350000Y-104900000D03*
D12*
X50210000Y-103750000D03*
D13*
X50210000Y-106290000D03*
D12*
X89678000Y-55880000D03*
X89678000Y-53340000D03*
X89678000Y-50800000D03*
D13*
X89678000Y-48260000D03*
D12*
X93766700Y-99790600D03*
X93766700Y-102330600D03*
D13*
X93766700Y-104870600D03*
D12*
X76840000Y-113170000D03*
D13*
X79380000Y-113170000D03*
D15*
X51460000Y-65602200D03*
X51460000Y-70682200D03*
X56540000Y-70682200D03*
X56540000Y-65602200D03*
D16*
X54000000Y-68142200D03*
D17*
X52290000Y-58180000D03*
X52290000Y-60720000D03*
X50290000Y-58180000D03*
X50290000Y-60720000D03*
X49250000Y-88881300D03*
X49250000Y-86341300D03*
X51250000Y-88881300D03*
X51250000Y-86341300D03*
X49250000Y-82899600D03*
X49250000Y-80359600D03*
X51250000Y-82899600D03*
X51250000Y-80359600D03*
D14*
X68910000Y-82240000D03*
X71150000Y-82300000D03*
X74110000Y-77980000D03*
X61130000Y-102370000D03*
X66090000Y-96140000D03*
D18*
X50561300Y-95117000D03*
X50561300Y-97117000D03*
X50561300Y-93117000D03*
X50561300Y-99117000D03*
M02*
