%TF.GenerationSoftware,KiCad,Pcbnew,6.0.7-f9a2dced07~116~ubuntu20.04.1*%
%TF.CreationDate,2022-09-24T19:15:38+02:00*%
%TF.ProjectId,SRRReceiver,53525252-6563-4656-9976-65722e6b6963,rev?*%
%TF.SameCoordinates,Original*%
%TF.FileFunction,Legend,Bot*%
%TF.FilePolarity,Positive*%
%FSLAX46Y46*%
G04 Gerber Fmt 4.6, Leading zero omitted, Abs format (unit mm)*
G04 Created by KiCad (PCBNEW 6.0.7-f9a2dced07~116~ubuntu20.04.1) date 2022-09-24 19:15:38*
%MOMM*%
%LPD*%
G01*
G04 APERTURE LIST*
G04 Aperture macros list*
%AMRoundRect*
0 Rectangle with rounded corners*
0 $1 Rounding radius*
0 $2 $3 $4 $5 $6 $7 $8 $9 X,Y pos of 4 corners*
0 Add a 4 corners polygon primitive as box body*
4,1,4,$2,$3,$4,$5,$6,$7,$8,$9,$2,$3,0*
0 Add four circle primitives for the rounded corners*
1,1,$1+$1,$2,$3*
1,1,$1+$1,$4,$5*
1,1,$1+$1,$6,$7*
1,1,$1+$1,$8,$9*
0 Add four rect primitives between the rounded corners*
20,1,$1+$1,$2,$3,$4,$5,0*
20,1,$1+$1,$4,$5,$6,$7,0*
20,1,$1+$1,$6,$7,$8,$9,0*
20,1,$1+$1,$8,$9,$2,$3,0*%
G04 Aperture macros list end*
%ADD10C,0.150000*%
%ADD11C,0.254000*%
%ADD12C,0.120000*%
%ADD13C,0.200000*%
%ADD14R,0.300000X1.250000*%
%ADD15R,2.000000X3.000000*%
%ADD16RoundRect,0.140000X-0.140000X-0.170000X0.140000X-0.170000X0.140000X0.170000X-0.140000X0.170000X0*%
%ADD17R,0.450000X1.475000*%
G04 APERTURE END LIST*
D10*
%TO.C,J1*%
X127133333Y-88952380D02*
X127133333Y-89666666D01*
X127180952Y-89809523D01*
X127276190Y-89904761D01*
X127419047Y-89952380D01*
X127514285Y-89952380D01*
X126133333Y-89952380D02*
X126704761Y-89952380D01*
X126419047Y-89952380D02*
X126419047Y-88952380D01*
X126514285Y-89095238D01*
X126609523Y-89190476D01*
X126704761Y-89238095D01*
%TO.C,C9*%
X118533333Y-99285714D02*
X118571428Y-99323809D01*
X118685714Y-99361904D01*
X118761904Y-99361904D01*
X118876190Y-99323809D01*
X118952380Y-99247619D01*
X118990476Y-99171428D01*
X119028571Y-99019047D01*
X119028571Y-98904761D01*
X118990476Y-98752380D01*
X118952380Y-98676190D01*
X118876190Y-98600000D01*
X118761904Y-98561904D01*
X118685714Y-98561904D01*
X118571428Y-98600000D01*
X118533333Y-98638095D01*
X118152380Y-99361904D02*
X118000000Y-99361904D01*
X117923809Y-99323809D01*
X117885714Y-99285714D01*
X117809523Y-99171428D01*
X117771428Y-99019047D01*
X117771428Y-98714285D01*
X117809523Y-98638095D01*
X117847619Y-98600000D01*
X117923809Y-98561904D01*
X118076190Y-98561904D01*
X118152380Y-98600000D01*
X118190476Y-98638095D01*
X118228571Y-98714285D01*
X118228571Y-98904761D01*
X118190476Y-98980952D01*
X118152380Y-99019047D01*
X118076190Y-99057142D01*
X117923809Y-99057142D01*
X117847619Y-99019047D01*
X117809523Y-98980952D01*
X117771428Y-98904761D01*
D11*
%TO.C,IC1*%
X120674523Y-92060238D02*
X119404523Y-92060238D01*
X120553571Y-93390714D02*
X120614047Y-93330238D01*
X120674523Y-93148809D01*
X120674523Y-93027857D01*
X120614047Y-92846428D01*
X120493095Y-92725476D01*
X120372142Y-92665000D01*
X120130238Y-92604523D01*
X119948809Y-92604523D01*
X119706904Y-92665000D01*
X119585952Y-92725476D01*
X119465000Y-92846428D01*
X119404523Y-93027857D01*
X119404523Y-93148809D01*
X119465000Y-93330238D01*
X119525476Y-93390714D01*
X120674523Y-94600238D02*
X120674523Y-93874523D01*
X120674523Y-94237380D02*
X119404523Y-94237380D01*
X119585952Y-94116428D01*
X119706904Y-93995476D01*
X119767380Y-93874523D01*
D10*
%TO.C,C8*%
X118333333Y-98185714D02*
X118371428Y-98223809D01*
X118485714Y-98261904D01*
X118561904Y-98261904D01*
X118676190Y-98223809D01*
X118752380Y-98147619D01*
X118790476Y-98071428D01*
X118828571Y-97919047D01*
X118828571Y-97804761D01*
X118790476Y-97652380D01*
X118752380Y-97576190D01*
X118676190Y-97500000D01*
X118561904Y-97461904D01*
X118485714Y-97461904D01*
X118371428Y-97500000D01*
X118333333Y-97538095D01*
X117876190Y-97804761D02*
X117952380Y-97766666D01*
X117990476Y-97728571D01*
X118028571Y-97652380D01*
X118028571Y-97614285D01*
X117990476Y-97538095D01*
X117952380Y-97500000D01*
X117876190Y-97461904D01*
X117723809Y-97461904D01*
X117647619Y-97500000D01*
X117609523Y-97538095D01*
X117571428Y-97614285D01*
X117571428Y-97652380D01*
X117609523Y-97728571D01*
X117647619Y-97766666D01*
X117723809Y-97804761D01*
X117876190Y-97804761D01*
X117952380Y-97842857D01*
X117990476Y-97880952D01*
X118028571Y-97957142D01*
X118028571Y-98109523D01*
X117990476Y-98185714D01*
X117952380Y-98223809D01*
X117876190Y-98261904D01*
X117723809Y-98261904D01*
X117647619Y-98223809D01*
X117609523Y-98185714D01*
X117571428Y-98109523D01*
X117571428Y-97957142D01*
X117609523Y-97880952D01*
X117647619Y-97842857D01*
X117723809Y-97804761D01*
D12*
%TO.C,J1*%
X132125000Y-84360000D02*
X132125000Y-83760000D01*
X124750000Y-86950000D02*
X124350000Y-86950000D01*
X121585000Y-84360000D02*
X121475000Y-84360000D01*
X124350000Y-86950000D02*
X124550000Y-86550000D01*
X124550000Y-86550000D02*
X124750000Y-86950000D01*
X121475000Y-84360000D02*
X121475000Y-83760000D01*
X132015000Y-84360000D02*
X132125000Y-84360000D01*
%TO.C,C9*%
X120292164Y-98640000D02*
X120507836Y-98640000D01*
X120292164Y-99360000D02*
X120507836Y-99360000D01*
D13*
%TO.C,IC1*%
X123350000Y-95150000D02*
X123350000Y-91450000D01*
X123600000Y-96975000D02*
X123600000Y-95500000D01*
X123350000Y-91450000D02*
X116850000Y-91450000D01*
X116850000Y-91450000D02*
X116850000Y-95150000D01*
X116850000Y-95150000D02*
X123350000Y-95150000D01*
D12*
%TO.C,C8*%
X120092164Y-98260000D02*
X120307836Y-98260000D01*
X120092164Y-97540000D02*
X120307836Y-97540000D01*
%TD*%
%LPC*%
D14*
%TO.C,J1*%
X124550000Y-87750000D03*
X125050000Y-87750000D03*
X125550000Y-87750000D03*
X126050000Y-87750000D03*
X126550000Y-87750000D03*
X127050000Y-87750000D03*
X127550000Y-87750000D03*
X128050000Y-87750000D03*
X128550000Y-87750000D03*
X129050000Y-87750000D03*
D15*
X123010000Y-85430000D03*
X130590000Y-85430000D03*
%TD*%
D16*
%TO.C,C9*%
X119920000Y-99000000D03*
X120880000Y-99000000D03*
%TD*%
D17*
%TO.C,IC1*%
X123025000Y-96238000D03*
X122375000Y-96238000D03*
X121725000Y-96238000D03*
X121075000Y-96238000D03*
X120425000Y-96238000D03*
X119775000Y-96238000D03*
X119125000Y-96238000D03*
X118475000Y-96238000D03*
X117825000Y-96238000D03*
X117175000Y-96238000D03*
X117175000Y-90362000D03*
X117825000Y-90362000D03*
X118475000Y-90362000D03*
X119125000Y-90362000D03*
X119775000Y-90362000D03*
X120425000Y-90362000D03*
X121075000Y-90362000D03*
X121725000Y-90362000D03*
X122375000Y-90362000D03*
X123025000Y-90362000D03*
%TD*%
D16*
%TO.C,C8*%
X119720000Y-97900000D03*
X120680000Y-97900000D03*
%TD*%
M02*
