G04 #@! TF.FileFunction,Legend,Top*
%FSLAX46Y46*%
G04 Gerber Fmt 4.6, Leading zero omitted, Abs format (unit mm)*
G04 Created by KiCad (PCBNEW 4.0.7-e2-6376~58~ubuntu16.04.1) date Sat Jul  7 00:38:20 2018*
%MOMM*%
%LPD*%
G01*
G04 APERTURE LIST*
%ADD10C,0.100000*%
%ADD11C,0.120000*%
%ADD12C,0.150000*%
G04 APERTURE END LIST*
D10*
D11*
X112704471Y-75409890D02*
X109527777Y-65633029D01*
X109527777Y-65633029D02*
X106997966Y-66455014D01*
X106997966Y-66455014D02*
X110174661Y-76231875D01*
X110174661Y-76231875D02*
X112704471Y-75409890D01*
X109881095Y-75328371D02*
X104174756Y-77182473D01*
X104174756Y-77182473D02*
X103939903Y-76459670D01*
X103939903Y-76459670D02*
X109646242Y-74605568D01*
X109862554Y-75271308D02*
X104156215Y-77125410D01*
X109825472Y-75157181D02*
X104119133Y-77011283D01*
X109788390Y-75043054D02*
X104082051Y-76897156D01*
X109751308Y-74928927D02*
X104044969Y-76783029D01*
X109714226Y-74814801D02*
X104007886Y-76668903D01*
X109677144Y-74700674D02*
X103970804Y-76554776D01*
X112724754Y-74404410D02*
X112410905Y-74506386D01*
X112489901Y-73681607D02*
X112176052Y-73783583D01*
X111901027Y-72937143D02*
X109371217Y-73759128D01*
X109096192Y-72912688D02*
X103389852Y-74766790D01*
X103389852Y-74766790D02*
X103155000Y-74043987D01*
X103155000Y-74043987D02*
X108861339Y-72189885D01*
X112003639Y-71968001D02*
X111626002Y-72090702D01*
X111768786Y-71245198D02*
X111391149Y-71367899D01*
X111116124Y-70521459D02*
X108586314Y-71343444D01*
X108311288Y-70497004D02*
X102604949Y-72351106D01*
X102604949Y-72351106D02*
X102370096Y-71628303D01*
X102370096Y-71628303D02*
X108076435Y-69774201D01*
X111218736Y-69552317D02*
X110841099Y-69675019D01*
X110983883Y-68829514D02*
X110606246Y-68952216D01*
X110331221Y-68105776D02*
X107801410Y-68927761D01*
X107526385Y-68081320D02*
X101820046Y-69935422D01*
X101820046Y-69935422D02*
X101585193Y-69212620D01*
X101585193Y-69212620D02*
X107291532Y-67358518D01*
X110433833Y-67136634D02*
X110056196Y-67259335D01*
X110198980Y-66413831D02*
X109821343Y-66536532D01*
X114870842Y-73307548D02*
X115263293Y-74515390D01*
X115263293Y-74515390D02*
X114055452Y-74907842D01*
X125730000Y-62170000D02*
X112970000Y-62170000D01*
X112970000Y-62170000D02*
X112970000Y-64830000D01*
X112970000Y-64830000D02*
X125730000Y-64830000D01*
X125730000Y-64830000D02*
X125730000Y-62170000D01*
X127000000Y-62170000D02*
X128330000Y-62170000D01*
X128330000Y-62170000D02*
X128330000Y-63500000D01*
D12*
X145983500Y-77688800D02*
X145983500Y-74488800D01*
X137583500Y-77688800D02*
X145983500Y-77688800D01*
X137583500Y-74488800D02*
X137583500Y-77688800D01*
X145983500Y-74488800D02*
X137583500Y-74488800D01*
X142776392Y-74665531D02*
X142443058Y-74665531D01*
X142443058Y-75189341D02*
X142443058Y-74189341D01*
X142919249Y-74189341D01*
X143300201Y-75189341D02*
X143300201Y-74189341D01*
X143776391Y-75189341D02*
X143776391Y-74189341D01*
X144014486Y-74189341D01*
X144157344Y-74236960D01*
X144252582Y-74332198D01*
X144300201Y-74427436D01*
X144347820Y-74617912D01*
X144347820Y-74760770D01*
X144300201Y-74951246D01*
X144252582Y-75046484D01*
X144157344Y-75141722D01*
X144014486Y-75189341D01*
X143776391Y-75189341D01*
X144728772Y-74284579D02*
X144776391Y-74236960D01*
X144871629Y-74189341D01*
X145109725Y-74189341D01*
X145204963Y-74236960D01*
X145252582Y-74284579D01*
X145300201Y-74379817D01*
X145300201Y-74475055D01*
X145252582Y-74617912D01*
X144681153Y-75189341D01*
X145300201Y-75189341D01*
X115845758Y-70956189D02*
X116066484Y-71635515D01*
X116065340Y-71786096D01*
X116004194Y-71906103D01*
X115883044Y-71995536D01*
X115792467Y-72024966D01*
X116282783Y-70914330D02*
X116313357Y-70854327D01*
X116389218Y-70779608D01*
X116615661Y-70706032D01*
X116720953Y-70721890D01*
X116780956Y-70752464D01*
X116855675Y-70828325D01*
X116885105Y-70918902D01*
X116883962Y-71069482D01*
X116517082Y-71789525D01*
X117105831Y-71598228D01*
X128782381Y-63833333D02*
X129496667Y-63833333D01*
X129639524Y-63880953D01*
X129734762Y-63976191D01*
X129782381Y-64119048D01*
X129782381Y-64214286D01*
X128782381Y-63452381D02*
X128782381Y-62833333D01*
X129163333Y-63166667D01*
X129163333Y-63023809D01*
X129210952Y-62928571D01*
X129258571Y-62880952D01*
X129353810Y-62833333D01*
X129591905Y-62833333D01*
X129687143Y-62880952D01*
X129734762Y-62928571D01*
X129782381Y-63023809D01*
X129782381Y-63309524D01*
X129734762Y-63404762D01*
X129687143Y-63452381D01*
X117800572Y-76382571D02*
X117467238Y-76382571D01*
X117467238Y-76906381D02*
X117467238Y-75906381D01*
X117943429Y-75906381D01*
X118324381Y-76906381D02*
X118324381Y-75906381D01*
X118800571Y-76906381D02*
X118800571Y-75906381D01*
X119038666Y-75906381D01*
X119181524Y-75954000D01*
X119276762Y-76049238D01*
X119324381Y-76144476D01*
X119372000Y-76334952D01*
X119372000Y-76477810D01*
X119324381Y-76668286D01*
X119276762Y-76763524D01*
X119181524Y-76858762D01*
X119038666Y-76906381D01*
X118800571Y-76906381D01*
X120324381Y-76906381D02*
X119752952Y-76906381D01*
X120038666Y-76906381D02*
X120038666Y-75906381D01*
X119943428Y-76049238D01*
X119848190Y-76144476D01*
X119752952Y-76192095D01*
X141450167Y-71941181D02*
X141450167Y-72655467D01*
X141402547Y-72798324D01*
X141307309Y-72893562D01*
X141164452Y-72941181D01*
X141069214Y-72941181D01*
X142450167Y-72941181D02*
X141878738Y-72941181D01*
X142164452Y-72941181D02*
X142164452Y-71941181D01*
X142069214Y-72084038D01*
X141973976Y-72179276D01*
X141878738Y-72226895D01*
M02*
