M48
METRIC,TZ
T1C0.300
T2C0.500
T3C1.000
%
G90
G05
T1
X120553Y-70279
X125440Y-75121
X129294Y-67721
X130424Y-64036
X133822Y-67633
X134038Y-72443
X138153Y-71798
T2
X138459Y-75439
X140384Y-76689
X141034Y-75489
X141784Y-76689
X142534Y-75489
X143184Y-76689
X145109Y-75489
T3
X111308Y-66453
X112093Y-68869
X112878Y-71284
X113663Y-73700
X114300Y-63500
X116840Y-63500
X119380Y-63500
X121920Y-63500
X124460Y-63500
X127000Y-63500
T0
M30
