G04 #@! TF.FileFunction,Copper,L1,Top,Signal*
%FSLAX46Y46*%
G04 Gerber Fmt 4.6, Leading zero omitted, Abs format (unit mm)*
G04 Created by KiCad (PCBNEW 4.0.7-e2-6376~58~ubuntu16.04.1) date Sat Jul  7 00:38:20 2018*
%MOMM*%
%LPD*%
G01*
G04 APERTURE LIST*
%ADD10C,0.100000*%
%ADD11C,0.600000*%
%ADD12C,1.000000*%
%ADD13C,1.700000*%
%ADD14R,1.700000X1.700000*%
%ADD15O,1.700000X1.700000*%
%ADD16C,1.524000*%
%ADD17C,1.150000*%
%ADD18C,0.500000*%
%ADD19C,1.000000*%
%ADD20C,0.200000*%
G04 APERTURE END LIST*
D10*
D11*
X125440440Y-75120500D03*
X120553480Y-70279260D03*
X134038340Y-72443340D03*
X129293620Y-67721480D03*
X138153140Y-71798180D03*
X133822440Y-67632580D03*
D12*
X143847820Y-72196960D03*
D10*
G36*
X114208734Y-72628938D02*
X114734062Y-74245734D01*
X113117266Y-74771062D01*
X112591938Y-73154266D01*
X114208734Y-72628938D01*
X114208734Y-72628938D01*
G37*
D13*
X112878097Y-71284316D02*
X112878097Y-71284316D01*
X112093194Y-68868633D02*
X112093194Y-68868633D01*
X111308291Y-66452949D02*
X111308291Y-66452949D01*
D14*
X127000000Y-63500000D03*
D15*
X124460000Y-63500000D03*
X121920000Y-63500000D03*
X119380000Y-63500000D03*
X116840000Y-63500000D03*
X114300000Y-63500000D03*
D11*
X130423920Y-64035940D03*
D12*
X115570000Y-76454000D03*
D16*
X145108500Y-75488800D03*
X138458500Y-75438800D03*
D17*
X140383500Y-76688800D03*
X141783500Y-76688800D03*
X143183500Y-76688800D03*
X141033500Y-75488800D03*
X142533500Y-75488800D03*
D18*
X127000000Y-63500000D02*
X137002520Y-73502520D01*
X142533500Y-74588500D02*
X142533500Y-75488800D01*
X137002520Y-73502520D02*
X141447520Y-73502520D01*
X141447520Y-73502520D02*
X142533500Y-74588500D01*
X141783500Y-76688800D02*
X141783500Y-77537328D01*
X141783500Y-77537328D02*
X141558728Y-77762100D01*
X141558728Y-77762100D02*
X137454640Y-77762100D01*
X124465080Y-63505080D02*
X124460000Y-63500000D01*
X137454640Y-77762100D02*
X124465080Y-64772540D01*
X124465080Y-64772540D02*
X124465080Y-63505080D01*
D19*
X121920000Y-63500000D02*
X121920000Y-64702081D01*
X121920000Y-64702081D02*
X121960640Y-64742721D01*
X113663000Y-73700000D02*
X115456340Y-73700000D01*
X138458500Y-75438800D02*
X138458500Y-75504600D01*
X140377000Y-76695300D02*
X140383500Y-76688800D01*
X138458500Y-75504600D02*
X139649200Y-76695300D01*
X139649200Y-76695300D02*
X140377000Y-76695300D01*
X145108500Y-75488800D02*
X145108500Y-74411170D01*
X119380000Y-63500000D02*
X119367300Y-63512700D01*
X119367300Y-63512700D02*
X119367300Y-64795113D01*
X119367300Y-64795113D02*
X113728096Y-70434317D01*
X113728096Y-70434317D02*
X112878097Y-71284316D01*
X114300000Y-63500000D02*
X114300000Y-66661827D01*
X114300000Y-66661827D02*
X112093194Y-68868633D01*
X111308291Y-66452949D02*
X111308291Y-64197707D01*
X111308291Y-64197707D02*
X113555999Y-61949999D01*
X113555999Y-61949999D02*
X115289999Y-61949999D01*
X115289999Y-61949999D02*
X115990001Y-62650001D01*
X115990001Y-62650001D02*
X116840000Y-63500000D01*
D20*
G36*
X123212763Y-64043071D02*
X123505406Y-64481042D01*
X123715080Y-64621142D01*
X123715080Y-64772540D01*
X123772170Y-65059553D01*
X123934750Y-65302870D01*
X136542880Y-77911000D01*
X114199078Y-77911000D01*
X113762558Y-76671844D01*
X114469810Y-76671844D01*
X114636922Y-77076286D01*
X114946087Y-77385991D01*
X115350237Y-77553808D01*
X115787844Y-77554190D01*
X116192286Y-77387078D01*
X116501991Y-77077913D01*
X116669808Y-76673763D01*
X116670190Y-76236156D01*
X116503078Y-75831714D01*
X116193913Y-75522009D01*
X115789763Y-75354192D01*
X115352156Y-75353810D01*
X114947714Y-75520922D01*
X114638009Y-75830087D01*
X114470192Y-76234237D01*
X114469810Y-76671844D01*
X113762558Y-76671844D01*
X113264190Y-75257125D01*
X113274801Y-75255906D01*
X114891597Y-74730578D01*
X115057043Y-74640163D01*
X115185052Y-74483429D01*
X115241997Y-74289242D01*
X115218906Y-74088199D01*
X114693578Y-72471403D01*
X114603163Y-72305957D01*
X114446429Y-72177948D01*
X114252242Y-72121003D01*
X114051199Y-72144094D01*
X113854702Y-72207940D01*
X114106109Y-71889031D01*
X114249089Y-71382065D01*
X114243318Y-71333309D01*
X120074407Y-65502220D01*
X120291180Y-65177797D01*
X120367300Y-64795113D01*
X120367300Y-64432094D01*
X120627237Y-64043071D01*
X120650000Y-63928634D01*
X120672763Y-64043071D01*
X120965406Y-64481042D01*
X121403377Y-64773685D01*
X121920000Y-64876448D01*
X122436623Y-64773685D01*
X122874594Y-64481042D01*
X123167237Y-64043071D01*
X123190000Y-63928634D01*
X123212763Y-64043071D01*
X123212763Y-64043071D01*
G37*
X123212763Y-64043071D02*
X123505406Y-64481042D01*
X123715080Y-64621142D01*
X123715080Y-64772540D01*
X123772170Y-65059553D01*
X123934750Y-65302870D01*
X136542880Y-77911000D01*
X114199078Y-77911000D01*
X113762558Y-76671844D01*
X114469810Y-76671844D01*
X114636922Y-77076286D01*
X114946087Y-77385991D01*
X115350237Y-77553808D01*
X115787844Y-77554190D01*
X116192286Y-77387078D01*
X116501991Y-77077913D01*
X116669808Y-76673763D01*
X116670190Y-76236156D01*
X116503078Y-75831714D01*
X116193913Y-75522009D01*
X115789763Y-75354192D01*
X115352156Y-75353810D01*
X114947714Y-75520922D01*
X114638009Y-75830087D01*
X114470192Y-76234237D01*
X114469810Y-76671844D01*
X113762558Y-76671844D01*
X113264190Y-75257125D01*
X113274801Y-75255906D01*
X114891597Y-74730578D01*
X115057043Y-74640163D01*
X115185052Y-74483429D01*
X115241997Y-74289242D01*
X115218906Y-74088199D01*
X114693578Y-72471403D01*
X114603163Y-72305957D01*
X114446429Y-72177948D01*
X114252242Y-72121003D01*
X114051199Y-72144094D01*
X113854702Y-72207940D01*
X114106109Y-71889031D01*
X114249089Y-71382065D01*
X114243318Y-71333309D01*
X120074407Y-65502220D01*
X120291180Y-65177797D01*
X120367300Y-64795113D01*
X120367300Y-64432094D01*
X120627237Y-64043071D01*
X120650000Y-63928634D01*
X120672763Y-64043071D01*
X120965406Y-64481042D01*
X121403377Y-64773685D01*
X121920000Y-64876448D01*
X122436623Y-64773685D01*
X122874594Y-64481042D01*
X123167237Y-64043071D01*
X123190000Y-63928634D01*
X123212763Y-64043071D01*
G36*
X125640205Y-64350000D02*
X125675069Y-64535289D01*
X125784575Y-64705465D01*
X125951661Y-64819630D01*
X126150000Y-64859795D01*
X127299135Y-64859795D01*
X136472190Y-74032850D01*
X136715507Y-74195430D01*
X137002520Y-74252520D01*
X138024788Y-74252520D01*
X137744568Y-74368305D01*
X137389252Y-74723001D01*
X137196720Y-75186671D01*
X137196281Y-75688726D01*
X137388005Y-76152732D01*
X137742701Y-76508048D01*
X138206371Y-76700580D01*
X138708426Y-76701019D01*
X139172432Y-76509295D01*
X139380143Y-76301946D01*
X139308687Y-76474031D01*
X139308314Y-76901693D01*
X139353933Y-77012100D01*
X137765300Y-77012100D01*
X125306481Y-64553281D01*
X125414594Y-64481042D01*
X125640205Y-64143391D01*
X125640205Y-64350000D01*
X125640205Y-64350000D01*
G37*
X125640205Y-64350000D02*
X125675069Y-64535289D01*
X125784575Y-64705465D01*
X125951661Y-64819630D01*
X126150000Y-64859795D01*
X127299135Y-64859795D01*
X136472190Y-74032850D01*
X136715507Y-74195430D01*
X137002520Y-74252520D01*
X138024788Y-74252520D01*
X137744568Y-74368305D01*
X137389252Y-74723001D01*
X137196720Y-75186671D01*
X137196281Y-75688726D01*
X137388005Y-76152732D01*
X137742701Y-76508048D01*
X138206371Y-76700580D01*
X138708426Y-76701019D01*
X139172432Y-76509295D01*
X139380143Y-76301946D01*
X139308687Y-76474031D01*
X139308314Y-76901693D01*
X139353933Y-77012100D01*
X137765300Y-77012100D01*
X125306481Y-64553281D01*
X125414594Y-64481042D01*
X125640205Y-64143391D01*
X125640205Y-64350000D01*
G36*
X136593414Y-68406586D02*
X136779957Y-68531231D01*
X137000000Y-68575000D01*
X145475000Y-68575000D01*
X145475000Y-74274511D01*
X145360629Y-74227020D01*
X144858574Y-74226581D01*
X144394568Y-74418305D01*
X144039252Y-74773001D01*
X143846720Y-75236671D01*
X143846281Y-75738726D01*
X143911427Y-75896391D01*
X143793233Y-75777991D01*
X143608315Y-75701206D01*
X143608686Y-75275907D01*
X143445372Y-74880657D01*
X143283500Y-74718503D01*
X143283500Y-74588500D01*
X143226410Y-74301487D01*
X143063830Y-74058170D01*
X141977850Y-72972190D01*
X141734533Y-72809610D01*
X141447520Y-72752520D01*
X137313180Y-72752520D01*
X136975464Y-72414804D01*
X142747630Y-72414804D01*
X142914742Y-72819246D01*
X143223907Y-73128951D01*
X143628057Y-73296768D01*
X144065664Y-73297150D01*
X144470106Y-73130038D01*
X144779811Y-72820873D01*
X144947628Y-72416723D01*
X144948010Y-71979116D01*
X144780898Y-71574674D01*
X144471733Y-71264969D01*
X144067583Y-71097152D01*
X143629976Y-71096770D01*
X143225534Y-71263882D01*
X142915829Y-71573047D01*
X142748012Y-71977197D01*
X142747630Y-72414804D01*
X136975464Y-72414804D01*
X128359795Y-63799135D01*
X128359795Y-62650000D01*
X128324931Y-62464711D01*
X128215425Y-62294535D01*
X128048339Y-62180370D01*
X127850000Y-62140205D01*
X126150000Y-62140205D01*
X125964711Y-62175069D01*
X125794535Y-62284575D01*
X125680370Y-62451661D01*
X125640205Y-62650000D01*
X125640205Y-62856609D01*
X125414594Y-62518958D01*
X124976623Y-62226315D01*
X124460000Y-62123552D01*
X123943377Y-62226315D01*
X123505406Y-62518958D01*
X123212763Y-62956929D01*
X123190000Y-63071366D01*
X123167237Y-62956929D01*
X122874594Y-62518958D01*
X122436623Y-62226315D01*
X121920000Y-62123552D01*
X121403377Y-62226315D01*
X120965406Y-62518958D01*
X120672763Y-62956929D01*
X120650000Y-63071366D01*
X120627237Y-62956929D01*
X120334594Y-62518958D01*
X119896623Y-62226315D01*
X119380000Y-62123552D01*
X118863377Y-62226315D01*
X118425406Y-62518958D01*
X118132763Y-62956929D01*
X118110000Y-63071366D01*
X118087237Y-62956929D01*
X117794594Y-62518958D01*
X117356623Y-62226315D01*
X116887143Y-62132929D01*
X116289214Y-61535000D01*
X129721828Y-61535000D01*
X136593414Y-68406586D01*
X136593414Y-68406586D01*
G37*
X136593414Y-68406586D02*
X136779957Y-68531231D01*
X137000000Y-68575000D01*
X145475000Y-68575000D01*
X145475000Y-74274511D01*
X145360629Y-74227020D01*
X144858574Y-74226581D01*
X144394568Y-74418305D01*
X144039252Y-74773001D01*
X143846720Y-75236671D01*
X143846281Y-75738726D01*
X143911427Y-75896391D01*
X143793233Y-75777991D01*
X143608315Y-75701206D01*
X143608686Y-75275907D01*
X143445372Y-74880657D01*
X143283500Y-74718503D01*
X143283500Y-74588500D01*
X143226410Y-74301487D01*
X143063830Y-74058170D01*
X141977850Y-72972190D01*
X141734533Y-72809610D01*
X141447520Y-72752520D01*
X137313180Y-72752520D01*
X136975464Y-72414804D01*
X142747630Y-72414804D01*
X142914742Y-72819246D01*
X143223907Y-73128951D01*
X143628057Y-73296768D01*
X144065664Y-73297150D01*
X144470106Y-73130038D01*
X144779811Y-72820873D01*
X144947628Y-72416723D01*
X144948010Y-71979116D01*
X144780898Y-71574674D01*
X144471733Y-71264969D01*
X144067583Y-71097152D01*
X143629976Y-71096770D01*
X143225534Y-71263882D01*
X142915829Y-71573047D01*
X142748012Y-71977197D01*
X142747630Y-72414804D01*
X136975464Y-72414804D01*
X128359795Y-63799135D01*
X128359795Y-62650000D01*
X128324931Y-62464711D01*
X128215425Y-62294535D01*
X128048339Y-62180370D01*
X127850000Y-62140205D01*
X126150000Y-62140205D01*
X125964711Y-62175069D01*
X125794535Y-62284575D01*
X125680370Y-62451661D01*
X125640205Y-62650000D01*
X125640205Y-62856609D01*
X125414594Y-62518958D01*
X124976623Y-62226315D01*
X124460000Y-62123552D01*
X123943377Y-62226315D01*
X123505406Y-62518958D01*
X123212763Y-62956929D01*
X123190000Y-63071366D01*
X123167237Y-62956929D01*
X122874594Y-62518958D01*
X122436623Y-62226315D01*
X121920000Y-62123552D01*
X121403377Y-62226315D01*
X120965406Y-62518958D01*
X120672763Y-62956929D01*
X120650000Y-63071366D01*
X120627237Y-62956929D01*
X120334594Y-62518958D01*
X119896623Y-62226315D01*
X119380000Y-62123552D01*
X118863377Y-62226315D01*
X118425406Y-62518958D01*
X118132763Y-62956929D01*
X118110000Y-63071366D01*
X118087237Y-62956929D01*
X117794594Y-62518958D01*
X117356623Y-62226315D01*
X116887143Y-62132929D01*
X116289214Y-61535000D01*
X129721828Y-61535000D01*
X136593414Y-68406586D01*
M02*
