G04 #@! TF.FileFunction,Copper,L2,Bot,Signal*
%FSLAX46Y46*%
G04 Gerber Fmt 4.6, Leading zero omitted, Abs format (unit mm)*
G04 Created by KiCad (PCBNEW 4.0.7-e2-6376~58~ubuntu16.04.1) date Sat Jul  7 00:38:20 2018*
%MOMM*%
%LPD*%
G01*
G04 APERTURE LIST*
%ADD10C,0.100000*%
%ADD11C,0.600000*%
%ADD12C,1.700000*%
%ADD13R,1.700000X1.700000*%
%ADD14O,1.700000X1.700000*%
%ADD15C,1.524000*%
%ADD16C,1.150000*%
%ADD17C,1.000000*%
%ADD18C,0.200000*%
G04 APERTURE END LIST*
D10*
D11*
X125440440Y-75120500D03*
X120553480Y-70279260D03*
X134038340Y-72443340D03*
X129293620Y-67721480D03*
X138153140Y-71798180D03*
X133822440Y-67632580D03*
D10*
G36*
X114208734Y-72628938D02*
X114734062Y-74245734D01*
X113117266Y-74771062D01*
X112591938Y-73154266D01*
X114208734Y-72628938D01*
X114208734Y-72628938D01*
G37*
D12*
X112878097Y-71284316D02*
X112878097Y-71284316D01*
X112093194Y-68868633D02*
X112093194Y-68868633D01*
X111308291Y-66452949D02*
X111308291Y-66452949D01*
D13*
X127000000Y-63500000D03*
D14*
X124460000Y-63500000D03*
X121920000Y-63500000D03*
X119380000Y-63500000D03*
X116840000Y-63500000D03*
X114300000Y-63500000D03*
D11*
X130423920Y-64035940D03*
D15*
X145108500Y-75488800D03*
X138458500Y-75438800D03*
D16*
X140383500Y-76688800D03*
X141783500Y-76688800D03*
X143183500Y-76688800D03*
X141033500Y-75488800D03*
X142533500Y-75488800D03*
D17*
X138458500Y-75438800D02*
X138458500Y-72103540D01*
X138458500Y-72103540D02*
X138153140Y-71798180D01*
X145108500Y-75488800D02*
X145108500Y-74411170D01*
X145108500Y-74411170D02*
X144536160Y-73838830D01*
X121920000Y-63500000D02*
X121920000Y-65438020D01*
X138480800Y-75397360D02*
X139771120Y-76687680D01*
X139771120Y-76687680D02*
X140294360Y-76687680D01*
D18*
G36*
X136593414Y-68406586D02*
X136779957Y-68531231D01*
X137000000Y-68575000D01*
X145475000Y-68575000D01*
X145475000Y-74274511D01*
X145360629Y-74227020D01*
X144858574Y-74226581D01*
X144394568Y-74418305D01*
X144039252Y-74773001D01*
X143846720Y-75236671D01*
X143846281Y-75738726D01*
X143911427Y-75896391D01*
X143793233Y-75777991D01*
X143608315Y-75701206D01*
X143608686Y-75275907D01*
X143445372Y-74880657D01*
X143143233Y-74577991D01*
X142748269Y-74413987D01*
X142320607Y-74413614D01*
X141925357Y-74576928D01*
X141783518Y-74718520D01*
X141643233Y-74577991D01*
X141248269Y-74413987D01*
X140820607Y-74413614D01*
X140425357Y-74576928D01*
X140122691Y-74879067D01*
X139958687Y-75274031D01*
X139958314Y-75701332D01*
X139775357Y-75776928D01*
X139620295Y-75931720D01*
X139720280Y-75690929D01*
X139720719Y-75188874D01*
X139528995Y-74724868D01*
X139174299Y-74369552D01*
X138710629Y-74177020D01*
X138208574Y-74176581D01*
X137744568Y-74368305D01*
X137389252Y-74723001D01*
X137196720Y-75186671D01*
X137196281Y-75688726D01*
X137388005Y-76152732D01*
X137742701Y-76508048D01*
X138206371Y-76700580D01*
X138708426Y-76701019D01*
X139172432Y-76509295D01*
X139380143Y-76301946D01*
X139308687Y-76474031D01*
X139308314Y-76901693D01*
X139471628Y-77296943D01*
X139773767Y-77599609D01*
X140168731Y-77763613D01*
X140596393Y-77763986D01*
X140991643Y-77600672D01*
X141083395Y-77509080D01*
X141173767Y-77599609D01*
X141568731Y-77763613D01*
X141996393Y-77763986D01*
X142391643Y-77600672D01*
X142483395Y-77509080D01*
X142573767Y-77599609D01*
X142968731Y-77763613D01*
X143396393Y-77763986D01*
X143791643Y-77600672D01*
X144094309Y-77298533D01*
X144258313Y-76903569D01*
X144258686Y-76475907D01*
X144221950Y-76386998D01*
X144392701Y-76558048D01*
X144856371Y-76750580D01*
X145358426Y-76751019D01*
X145475000Y-76702851D01*
X145475000Y-77911000D01*
X114199078Y-77911000D01*
X113264190Y-75257125D01*
X113274801Y-75255906D01*
X114891597Y-74730578D01*
X115057043Y-74640163D01*
X115185052Y-74483429D01*
X115241997Y-74289242D01*
X115218906Y-74088199D01*
X114693578Y-72471403D01*
X114603163Y-72305957D01*
X114446429Y-72177948D01*
X114252242Y-72121003D01*
X114051199Y-72144094D01*
X113854702Y-72207940D01*
X114106109Y-71889031D01*
X114249089Y-71382065D01*
X114187178Y-70858971D01*
X113929800Y-70399389D01*
X113516139Y-70073285D01*
X113009173Y-69930305D01*
X112893304Y-69944019D01*
X112995102Y-69887009D01*
X113321206Y-69473348D01*
X113464186Y-68966382D01*
X113402275Y-68443288D01*
X113144897Y-67983706D01*
X112731236Y-67657602D01*
X112224270Y-67514622D01*
X112108398Y-67528336D01*
X112210199Y-67471325D01*
X112536303Y-67057664D01*
X112679283Y-66550698D01*
X112617372Y-66027604D01*
X112359994Y-65568022D01*
X111946333Y-65241918D01*
X111439367Y-65098938D01*
X110916273Y-65160849D01*
X110865965Y-65177195D01*
X110430000Y-65421347D01*
X110430000Y-63473552D01*
X112950000Y-63473552D01*
X112950000Y-63526448D01*
X113052763Y-64043071D01*
X113345406Y-64481042D01*
X113783377Y-64773685D01*
X114300000Y-64876448D01*
X114816623Y-64773685D01*
X115254594Y-64481042D01*
X115547237Y-64043071D01*
X115570000Y-63928634D01*
X115592763Y-64043071D01*
X115885406Y-64481042D01*
X116323377Y-64773685D01*
X116840000Y-64876448D01*
X117356623Y-64773685D01*
X117794594Y-64481042D01*
X118087237Y-64043071D01*
X118110000Y-63928634D01*
X118132763Y-64043071D01*
X118425406Y-64481042D01*
X118863377Y-64773685D01*
X119380000Y-64876448D01*
X119896623Y-64773685D01*
X120334594Y-64481042D01*
X120627237Y-64043071D01*
X120650000Y-63928634D01*
X120672763Y-64043071D01*
X120965406Y-64481042D01*
X121403377Y-64773685D01*
X121920000Y-64876448D01*
X122436623Y-64773685D01*
X122874594Y-64481042D01*
X123167237Y-64043071D01*
X123190000Y-63928634D01*
X123212763Y-64043071D01*
X123505406Y-64481042D01*
X123943377Y-64773685D01*
X124460000Y-64876448D01*
X124976623Y-64773685D01*
X125414594Y-64481042D01*
X125640205Y-64143391D01*
X125640205Y-64350000D01*
X125675069Y-64535289D01*
X125784575Y-64705465D01*
X125951661Y-64819630D01*
X126150000Y-64859795D01*
X127850000Y-64859795D01*
X128035289Y-64824931D01*
X128205465Y-64715425D01*
X128319630Y-64548339D01*
X128359795Y-64350000D01*
X128359795Y-62650000D01*
X128324931Y-62464711D01*
X128215425Y-62294535D01*
X128048339Y-62180370D01*
X127850000Y-62140205D01*
X126150000Y-62140205D01*
X125964711Y-62175069D01*
X125794535Y-62284575D01*
X125680370Y-62451661D01*
X125640205Y-62650000D01*
X125640205Y-62856609D01*
X125414594Y-62518958D01*
X124976623Y-62226315D01*
X124460000Y-62123552D01*
X123943377Y-62226315D01*
X123505406Y-62518958D01*
X123212763Y-62956929D01*
X123190000Y-63071366D01*
X123167237Y-62956929D01*
X122874594Y-62518958D01*
X122436623Y-62226315D01*
X121920000Y-62123552D01*
X121403377Y-62226315D01*
X120965406Y-62518958D01*
X120672763Y-62956929D01*
X120650000Y-63071366D01*
X120627237Y-62956929D01*
X120334594Y-62518958D01*
X119896623Y-62226315D01*
X119380000Y-62123552D01*
X118863377Y-62226315D01*
X118425406Y-62518958D01*
X118132763Y-62956929D01*
X118110000Y-63071366D01*
X118087237Y-62956929D01*
X117794594Y-62518958D01*
X117356623Y-62226315D01*
X116840000Y-62123552D01*
X116323377Y-62226315D01*
X115885406Y-62518958D01*
X115592763Y-62956929D01*
X115570000Y-63071366D01*
X115547237Y-62956929D01*
X115254594Y-62518958D01*
X114816623Y-62226315D01*
X114300000Y-62123552D01*
X113783377Y-62226315D01*
X113345406Y-62518958D01*
X113052763Y-62956929D01*
X112950000Y-63473552D01*
X110430000Y-63473552D01*
X110430000Y-61535000D01*
X129721828Y-61535000D01*
X136593414Y-68406586D01*
X136593414Y-68406586D01*
G37*
X136593414Y-68406586D02*
X136779957Y-68531231D01*
X137000000Y-68575000D01*
X145475000Y-68575000D01*
X145475000Y-74274511D01*
X145360629Y-74227020D01*
X144858574Y-74226581D01*
X144394568Y-74418305D01*
X144039252Y-74773001D01*
X143846720Y-75236671D01*
X143846281Y-75738726D01*
X143911427Y-75896391D01*
X143793233Y-75777991D01*
X143608315Y-75701206D01*
X143608686Y-75275907D01*
X143445372Y-74880657D01*
X143143233Y-74577991D01*
X142748269Y-74413987D01*
X142320607Y-74413614D01*
X141925357Y-74576928D01*
X141783518Y-74718520D01*
X141643233Y-74577991D01*
X141248269Y-74413987D01*
X140820607Y-74413614D01*
X140425357Y-74576928D01*
X140122691Y-74879067D01*
X139958687Y-75274031D01*
X139958314Y-75701332D01*
X139775357Y-75776928D01*
X139620295Y-75931720D01*
X139720280Y-75690929D01*
X139720719Y-75188874D01*
X139528995Y-74724868D01*
X139174299Y-74369552D01*
X138710629Y-74177020D01*
X138208574Y-74176581D01*
X137744568Y-74368305D01*
X137389252Y-74723001D01*
X137196720Y-75186671D01*
X137196281Y-75688726D01*
X137388005Y-76152732D01*
X137742701Y-76508048D01*
X138206371Y-76700580D01*
X138708426Y-76701019D01*
X139172432Y-76509295D01*
X139380143Y-76301946D01*
X139308687Y-76474031D01*
X139308314Y-76901693D01*
X139471628Y-77296943D01*
X139773767Y-77599609D01*
X140168731Y-77763613D01*
X140596393Y-77763986D01*
X140991643Y-77600672D01*
X141083395Y-77509080D01*
X141173767Y-77599609D01*
X141568731Y-77763613D01*
X141996393Y-77763986D01*
X142391643Y-77600672D01*
X142483395Y-77509080D01*
X142573767Y-77599609D01*
X142968731Y-77763613D01*
X143396393Y-77763986D01*
X143791643Y-77600672D01*
X144094309Y-77298533D01*
X144258313Y-76903569D01*
X144258686Y-76475907D01*
X144221950Y-76386998D01*
X144392701Y-76558048D01*
X144856371Y-76750580D01*
X145358426Y-76751019D01*
X145475000Y-76702851D01*
X145475000Y-77911000D01*
X114199078Y-77911000D01*
X113264190Y-75257125D01*
X113274801Y-75255906D01*
X114891597Y-74730578D01*
X115057043Y-74640163D01*
X115185052Y-74483429D01*
X115241997Y-74289242D01*
X115218906Y-74088199D01*
X114693578Y-72471403D01*
X114603163Y-72305957D01*
X114446429Y-72177948D01*
X114252242Y-72121003D01*
X114051199Y-72144094D01*
X113854702Y-72207940D01*
X114106109Y-71889031D01*
X114249089Y-71382065D01*
X114187178Y-70858971D01*
X113929800Y-70399389D01*
X113516139Y-70073285D01*
X113009173Y-69930305D01*
X112893304Y-69944019D01*
X112995102Y-69887009D01*
X113321206Y-69473348D01*
X113464186Y-68966382D01*
X113402275Y-68443288D01*
X113144897Y-67983706D01*
X112731236Y-67657602D01*
X112224270Y-67514622D01*
X112108398Y-67528336D01*
X112210199Y-67471325D01*
X112536303Y-67057664D01*
X112679283Y-66550698D01*
X112617372Y-66027604D01*
X112359994Y-65568022D01*
X111946333Y-65241918D01*
X111439367Y-65098938D01*
X110916273Y-65160849D01*
X110865965Y-65177195D01*
X110430000Y-65421347D01*
X110430000Y-63473552D01*
X112950000Y-63473552D01*
X112950000Y-63526448D01*
X113052763Y-64043071D01*
X113345406Y-64481042D01*
X113783377Y-64773685D01*
X114300000Y-64876448D01*
X114816623Y-64773685D01*
X115254594Y-64481042D01*
X115547237Y-64043071D01*
X115570000Y-63928634D01*
X115592763Y-64043071D01*
X115885406Y-64481042D01*
X116323377Y-64773685D01*
X116840000Y-64876448D01*
X117356623Y-64773685D01*
X117794594Y-64481042D01*
X118087237Y-64043071D01*
X118110000Y-63928634D01*
X118132763Y-64043071D01*
X118425406Y-64481042D01*
X118863377Y-64773685D01*
X119380000Y-64876448D01*
X119896623Y-64773685D01*
X120334594Y-64481042D01*
X120627237Y-64043071D01*
X120650000Y-63928634D01*
X120672763Y-64043071D01*
X120965406Y-64481042D01*
X121403377Y-64773685D01*
X121920000Y-64876448D01*
X122436623Y-64773685D01*
X122874594Y-64481042D01*
X123167237Y-64043071D01*
X123190000Y-63928634D01*
X123212763Y-64043071D01*
X123505406Y-64481042D01*
X123943377Y-64773685D01*
X124460000Y-64876448D01*
X124976623Y-64773685D01*
X125414594Y-64481042D01*
X125640205Y-64143391D01*
X125640205Y-64350000D01*
X125675069Y-64535289D01*
X125784575Y-64705465D01*
X125951661Y-64819630D01*
X126150000Y-64859795D01*
X127850000Y-64859795D01*
X128035289Y-64824931D01*
X128205465Y-64715425D01*
X128319630Y-64548339D01*
X128359795Y-64350000D01*
X128359795Y-62650000D01*
X128324931Y-62464711D01*
X128215425Y-62294535D01*
X128048339Y-62180370D01*
X127850000Y-62140205D01*
X126150000Y-62140205D01*
X125964711Y-62175069D01*
X125794535Y-62284575D01*
X125680370Y-62451661D01*
X125640205Y-62650000D01*
X125640205Y-62856609D01*
X125414594Y-62518958D01*
X124976623Y-62226315D01*
X124460000Y-62123552D01*
X123943377Y-62226315D01*
X123505406Y-62518958D01*
X123212763Y-62956929D01*
X123190000Y-63071366D01*
X123167237Y-62956929D01*
X122874594Y-62518958D01*
X122436623Y-62226315D01*
X121920000Y-62123552D01*
X121403377Y-62226315D01*
X120965406Y-62518958D01*
X120672763Y-62956929D01*
X120650000Y-63071366D01*
X120627237Y-62956929D01*
X120334594Y-62518958D01*
X119896623Y-62226315D01*
X119380000Y-62123552D01*
X118863377Y-62226315D01*
X118425406Y-62518958D01*
X118132763Y-62956929D01*
X118110000Y-63071366D01*
X118087237Y-62956929D01*
X117794594Y-62518958D01*
X117356623Y-62226315D01*
X116840000Y-62123552D01*
X116323377Y-62226315D01*
X115885406Y-62518958D01*
X115592763Y-62956929D01*
X115570000Y-63071366D01*
X115547237Y-62956929D01*
X115254594Y-62518958D01*
X114816623Y-62226315D01*
X114300000Y-62123552D01*
X113783377Y-62226315D01*
X113345406Y-62518958D01*
X113052763Y-62956929D01*
X112950000Y-63473552D01*
X110430000Y-63473552D01*
X110430000Y-61535000D01*
X129721828Y-61535000D01*
X136593414Y-68406586D01*
M02*
