M48
METRIC,TZ
T1C0.300
T2C0.400
T3C0.800
T4C1.000
%
G90
G05
T1
X66150Y-86484
X66150Y-87887
X66150Y-89284
X67550Y-86484
X67550Y-87884
X67550Y-89284
X68950Y-86484
X68950Y-87887
X68950Y-89284
X78362Y-55442
X64246Y-83312
X54864Y-102362
X70231Y-52959
X61572Y-53817
X89004Y-76219
X58801Y-84963
X89080Y-73730
X82959Y-61335
X89916Y-89662
X83947Y-52324
X76962Y-66929
X76835Y-51181
X50927Y-85725
X83947Y-53975
X87201Y-69031
X77343Y-83566
X84836Y-104394
X74041Y-83820
X67691Y-95885
X78740Y-50038
X73279Y-93345
X89916Y-94742
X65024Y-77216
X85042Y-53131
X85397Y-67583
X58829Y-82366
X75895Y-60782
X74295Y-85090
X86007Y-71876
X85344Y-84709
X77343Y-86233
X71882Y-95885
X79756Y-51181
X58854Y-80741
X60084Y-58458
X62103Y-77216
X67437Y-60706
X72266Y-53283
X74041Y-77343
X89766Y-63265
X84836Y-106426
X75415Y-70631
X74930Y-93345
X74295Y-86487
X59182Y-55372
X63119Y-90551
X63119Y-92964
X89916Y-99949
X78158Y-106674
X77343Y-84836
X86312Y-59836
X73914Y-60782
X83947Y-55626
X81534Y-62357
X69723Y-95885
X58854Y-79267
X77673Y-60782
X77447Y-75915
X56264Y-53613
X73152Y-88011
X74295Y-87757
X73279Y-91186
X85598Y-101473
X85575Y-99029
X67945Y-77216
X59436Y-88646
X68964Y-55798
X76581Y-48006
X61493Y-58496
X72494Y-106674
X50927Y-83439
X77549Y-70657
X50853Y-95041
T2
X57541Y-56896
X58547Y-100203
X58801Y-86233
X59285Y-89738
X59436Y-101600
X59817Y-75692
X59852Y-84099
X59877Y-87655
X60198Y-101854
X60665Y-84887
X61002Y-101540
X61579Y-85492
X61849Y-74295
X61849Y-101473
X63500Y-60579
X63500Y-62738
X65418Y-60139
X65494Y-92850
X66722Y-83287
X67472Y-55880
X67700Y-91821
X68550Y-91723
X68752Y-84030
X70358Y-56007
X70850Y-93218
X71087Y-60706
X71087Y-62611
X71731Y-86484
X72009Y-55041
X72136Y-64897
X72898Y-60833
X75519Y-75392
X75819Y-87884
X76334Y-89700
X77978Y-48006
X79098Y-98521
X79759Y-100807
X80645Y-69596
X80772Y-90805
X81280Y-87122
X81280Y-67564
X81915Y-70485
X81915Y-80772
X82178Y-79193
X82563Y-70007
X82931Y-78232
X83058Y-64008
X83566Y-100203
X83693Y-67183
X83693Y-83312
X84455Y-102489
X84539Y-70612
X84734Y-78837
X85659Y-78232
X85685Y-82407
X86106Y-105156
X87249Y-52002
X88519Y-51308
X89408Y-57317
X90932Y-75438
T3
X51562Y-59309
X54102Y-59309
X56642Y-59309
X54737Y-109855
X57277Y-109855
X53610Y-78265
X53610Y-80805
X53610Y-83345
X53610Y-85885
X53610Y-88425
X53610Y-90965
X53610Y-93505
X53610Y-96045
X53610Y-98585
X53610Y-101125
X53610Y-103665
X53610Y-106205
X56150Y-88425
X56150Y-90965
X56150Y-93505
X56150Y-96045
X56150Y-98585
X56150Y-101125
X56150Y-103665
X56150Y-106205
X88620Y-78265
X88620Y-80805
X88620Y-83345
X88620Y-85885
X88620Y-88425
X88620Y-90965
X88620Y-93505
X88620Y-96045
X88620Y-98585
X88620Y-101125
X88620Y-103665
X88620Y-106205
X91160Y-78265
X91160Y-80805
X91160Y-83345
X91160Y-85885
X91160Y-88425
X91160Y-90965
X91160Y-93505
X91160Y-96045
X91160Y-98585
X91160Y-101125
X91160Y-103665
X91160Y-106205
X55499Y-70104
X55499Y-72644
X57799Y-70104
X57799Y-72644
X52832Y-63119
X52832Y-65659
X55132Y-63119
X55132Y-65659
X50673Y-70104
X50673Y-72644
X52973Y-70104
X52973Y-72644
T4
X51514Y-49600
X51514Y-52140
X51514Y-54680
X90678Y-48260
X90678Y-50800
X90678Y-53340
X90678Y-55880
X50752Y-103601
X50752Y-106141
X76761Y-113202
X79301Y-113202
T0
M30
