G04 #@! TF.GenerationSoftware,KiCad,Pcbnew,5.0.2-bee76a0~70~ubuntu16.04.1*
G04 #@! TF.CreationDate,2020-11-05T23:54:09+01:00*
G04 #@! TF.ProjectId,BTSerialClient,42545365-7269-4616-9c43-6c69656e742e,rev?*
G04 #@! TF.SameCoordinates,Original*
G04 #@! TF.FileFunction,Other,Fab,Top*
%FSLAX46Y46*%
G04 Gerber Fmt 4.6, Leading zero omitted, Abs format (unit mm)*
G04 Created by KiCad (PCBNEW 5.0.2-bee76a0~70~ubuntu16.04.1) date tor  5 nov 2020 23:54:09*
%MOMM*%
%LPD*%
G01*
G04 APERTURE LIST*
%ADD10C,0.120000*%
%ADD11C,0.100000*%
%ADD12C,0.150000*%
%ADD13C,0.080000*%
%ADD14C,0.075000*%
%ADD15C,0.135000*%
G04 APERTURE END LIST*
D10*
G04 #@! TO.C,J1*
X104185640Y-52157680D02*
X108985640Y-52157680D01*
X109735640Y-52957680D02*
X109735640Y-59657680D01*
X109735640Y-59657680D02*
X104185640Y-59657680D01*
X104185640Y-59657680D02*
X104185640Y-52157680D01*
X108985640Y-52157680D02*
X109735640Y-52957680D01*
D11*
G04 #@! TO.C,C1*
X114847880Y-73120920D02*
X112847880Y-73120920D01*
X114847880Y-71920920D02*
X114847880Y-73120920D01*
X112847880Y-71920920D02*
X114847880Y-71920920D01*
X112847880Y-73120920D02*
X112847880Y-71920920D01*
G04 #@! TO.C,C2*
X121680480Y-79533040D02*
X119680480Y-79533040D01*
X121680480Y-78333040D02*
X121680480Y-79533040D01*
X119680480Y-78333040D02*
X121680480Y-78333040D01*
X119680480Y-79533040D02*
X119680480Y-78333040D01*
G04 #@! TO.C,C3*
X113132360Y-79155960D02*
X113132360Y-77955960D01*
X113132360Y-77955960D02*
X115132360Y-77955960D01*
X115132360Y-77955960D02*
X115132360Y-79155960D01*
X115132360Y-79155960D02*
X113132360Y-79155960D01*
G04 #@! TO.C,C4*
X122494560Y-66242640D02*
X122494560Y-67442640D01*
X122494560Y-67442640D02*
X120494560Y-67442640D01*
X120494560Y-67442640D02*
X120494560Y-66242640D01*
X120494560Y-66242640D02*
X122494560Y-66242640D01*
G04 #@! TO.C,C5*
X125111120Y-79934360D02*
X125111120Y-78734360D01*
X125111120Y-78734360D02*
X127111120Y-78734360D01*
X127111120Y-78734360D02*
X127111120Y-79934360D01*
X127111120Y-79934360D02*
X125111120Y-79934360D01*
G04 #@! TO.C,C6*
X118537280Y-76641200D02*
X117337280Y-76641200D01*
X117337280Y-76641200D02*
X117337280Y-74641200D01*
X117337280Y-74641200D02*
X118537280Y-74641200D01*
X118537280Y-74641200D02*
X118537280Y-76641200D01*
G04 #@! TO.C,C7*
X132913680Y-73919840D02*
X132913680Y-75919840D01*
X131713680Y-73919840D02*
X132913680Y-73919840D01*
X131713680Y-75919840D02*
X131713680Y-73919840D01*
X132913680Y-75919840D02*
X131713680Y-75919840D01*
G04 #@! TO.C,C8*
X114473280Y-92926520D02*
X113273280Y-92926520D01*
X113273280Y-92926520D02*
X113273280Y-90926520D01*
X113273280Y-90926520D02*
X114473280Y-90926520D01*
X114473280Y-90926520D02*
X114473280Y-92926520D01*
G04 #@! TO.C,C9*
X107009640Y-92931600D02*
X107009640Y-90931600D01*
X108209640Y-92931600D02*
X107009640Y-92931600D01*
X108209640Y-90931600D02*
X108209640Y-92931600D01*
X107009640Y-90931600D02*
X108209640Y-90931600D01*
G04 #@! TO.C,J2*
X115030700Y-97037600D02*
X115030700Y-99937600D01*
X115030700Y-99937600D02*
X116230700Y-99937600D01*
X116230700Y-99937600D02*
X116230700Y-97037600D01*
X116230700Y-97037600D02*
X115030700Y-97037600D01*
X117800700Y-97037600D02*
X117800700Y-99937600D01*
X117800700Y-99937600D02*
X119000700Y-99937600D01*
X119000700Y-99937600D02*
X119000700Y-97037600D01*
X119000700Y-97037600D02*
X117800700Y-97037600D01*
X120570700Y-97037600D02*
X120570700Y-99937600D01*
X120570700Y-99937600D02*
X121770700Y-99937600D01*
X121770700Y-99937600D02*
X121770700Y-97037600D01*
X121770700Y-97037600D02*
X120570700Y-97037600D01*
X123340700Y-97037600D02*
X123340700Y-99937600D01*
X123340700Y-99937600D02*
X124540700Y-99937600D01*
X124540700Y-99937600D02*
X124540700Y-97037600D01*
X124540700Y-97037600D02*
X123340700Y-97037600D01*
X126110700Y-97037600D02*
X126110700Y-99937600D01*
X126110700Y-99937600D02*
X127310700Y-99937600D01*
X127310700Y-99937600D02*
X127310700Y-97037600D01*
X127310700Y-97037600D02*
X126110700Y-97037600D01*
X113620700Y-99937600D02*
X113620700Y-102737600D01*
X113620700Y-102737600D02*
X128720700Y-102737600D01*
X128720700Y-102737600D02*
X128720700Y-99937600D01*
X128720700Y-99937600D02*
X113620700Y-99937600D01*
X112620700Y-102737600D02*
X112620700Y-107237600D01*
X112620700Y-107237600D02*
X129720700Y-107237600D01*
X129720700Y-107237600D02*
X129720700Y-102737600D01*
X129720700Y-102737600D02*
X112620700Y-102737600D01*
X105745700Y-107237600D02*
X105745700Y-107637600D01*
X105745700Y-107637600D02*
X136595700Y-107637600D01*
X136595700Y-107637600D02*
X136595700Y-107237600D01*
X136595700Y-107237600D02*
X105745700Y-107237600D01*
X113020700Y-107637600D02*
X113020700Y-113637600D01*
X113020700Y-113637600D02*
X129320700Y-113637600D01*
X129320700Y-113637600D02*
X129320700Y-107637600D01*
X129320700Y-107637600D02*
X113020700Y-107637600D01*
G04 #@! TO.C,R1*
X125230000Y-82910000D02*
X123230000Y-82910000D01*
X125230000Y-81710000D02*
X125230000Y-82910000D01*
X123230000Y-81710000D02*
X125230000Y-81710000D01*
X123230000Y-82910000D02*
X123230000Y-81710000D01*
G04 #@! TO.C,R2*
X125791720Y-62357560D02*
X125791720Y-61157560D01*
X125791720Y-61157560D02*
X127791720Y-61157560D01*
X127791720Y-61157560D02*
X127791720Y-62357560D01*
X127791720Y-62357560D02*
X125791720Y-62357560D01*
G04 #@! TO.C,R4*
X114331040Y-85270960D02*
X113131040Y-85270960D01*
X113131040Y-85270960D02*
X113131040Y-83270960D01*
X113131040Y-83270960D02*
X114331040Y-83270960D01*
X114331040Y-83270960D02*
X114331040Y-85270960D01*
G04 #@! TO.C,SW1*
X105766600Y-64298360D02*
X104466600Y-64298360D01*
X104466600Y-64298360D02*
X104266600Y-64498360D01*
X104266600Y-64498360D02*
X104266600Y-65348360D01*
X104266600Y-65348360D02*
X104466600Y-65548360D01*
X104466600Y-65548360D02*
X104516600Y-65598360D01*
X104516600Y-65598360D02*
X105816600Y-65598360D01*
X108416600Y-62348360D02*
X105816600Y-62348360D01*
X105816600Y-62348360D02*
X105816600Y-69048360D01*
X105816600Y-69048360D02*
X108416600Y-69048360D01*
X108416600Y-69048360D02*
X108416600Y-62348360D01*
G04 #@! TO.C,U2*
X111836800Y-76438440D02*
X108736800Y-76438440D01*
X108736800Y-76438440D02*
X108736800Y-74638440D01*
X111186800Y-74638440D02*
X108736800Y-74638440D01*
X111836800Y-76438440D02*
X111836800Y-75288440D01*
X111186800Y-74638440D02*
X111836800Y-75288440D01*
D12*
G04 #@! TO.C,U3*
X119962240Y-74025800D02*
X119962240Y-71125800D01*
X119962240Y-71125800D02*
X129862240Y-71125800D01*
X129862240Y-71125800D02*
X129862240Y-75025800D01*
X129862240Y-75025800D02*
X120962240Y-75025800D01*
X120962240Y-75025800D02*
X119962240Y-74025800D01*
D11*
G04 #@! TO.C,U4*
X109788120Y-87160640D02*
X110438120Y-86510640D01*
X111588120Y-86510640D02*
X110438120Y-86510640D01*
X109788120Y-87160640D02*
X109788120Y-89610640D01*
X111588120Y-89610640D02*
X109788120Y-89610640D01*
X111588120Y-86510640D02*
X111588120Y-89610640D01*
D12*
G04 #@! TO.C,D2*
X120410000Y-87670000D02*
X122110000Y-87670000D01*
X122110000Y-87670000D02*
X122110000Y-86070000D01*
X122110000Y-86070000D02*
X120410000Y-86070000D01*
X120410000Y-87670000D02*
X120410000Y-86070000D01*
D11*
G04 #@! TO.C,R5*
X119200000Y-90000000D02*
X119200000Y-92000000D01*
X118000000Y-90000000D02*
X119200000Y-90000000D01*
X118000000Y-92000000D02*
X118000000Y-90000000D01*
X119200000Y-92000000D02*
X118000000Y-92000000D01*
G04 #@! TO.C,R6*
X115810000Y-82000000D02*
X115810000Y-80800000D01*
X115810000Y-80800000D02*
X117810000Y-80800000D01*
X117810000Y-80800000D02*
X117810000Y-82000000D01*
X117810000Y-82000000D02*
X115810000Y-82000000D01*
G04 #@! TD*
G04 #@! TO.C,REF\002A\002A*
D12*
X126209523Y-101152380D02*
X126209523Y-100152380D01*
X126542857Y-100866666D01*
X126876190Y-100152380D01*
X126876190Y-101152380D01*
X127495238Y-101152380D02*
X127400000Y-101104761D01*
X127352380Y-101057142D01*
X127304761Y-100961904D01*
X127304761Y-100676190D01*
X127352380Y-100580952D01*
X127400000Y-100533333D01*
X127495238Y-100485714D01*
X127638095Y-100485714D01*
X127733333Y-100533333D01*
X127780952Y-100580952D01*
X127828571Y-100676190D01*
X127828571Y-100961904D01*
X127780952Y-101057142D01*
X127733333Y-101104761D01*
X127638095Y-101152380D01*
X127495238Y-101152380D01*
X128685714Y-100485714D02*
X128685714Y-101152380D01*
X128257142Y-100485714D02*
X128257142Y-101009523D01*
X128304761Y-101104761D01*
X128400000Y-101152380D01*
X128542857Y-101152380D01*
X128638095Y-101104761D01*
X128685714Y-101057142D01*
X129161904Y-100485714D02*
X129161904Y-101152380D01*
X129161904Y-100580952D02*
X129209523Y-100533333D01*
X129304761Y-100485714D01*
X129447619Y-100485714D01*
X129542857Y-100533333D01*
X129590476Y-100628571D01*
X129590476Y-101152380D01*
X129923809Y-100485714D02*
X130304761Y-100485714D01*
X130066666Y-100152380D02*
X130066666Y-101009523D01*
X130114285Y-101104761D01*
X130209523Y-101152380D01*
X130304761Y-101152380D01*
X130638095Y-101152380D02*
X130638095Y-100485714D01*
X130638095Y-100152380D02*
X130590476Y-100200000D01*
X130638095Y-100247619D01*
X130685714Y-100200000D01*
X130638095Y-100152380D01*
X130638095Y-100247619D01*
X131114285Y-100485714D02*
X131114285Y-101152380D01*
X131114285Y-100580952D02*
X131161904Y-100533333D01*
X131257142Y-100485714D01*
X131400000Y-100485714D01*
X131495238Y-100533333D01*
X131542857Y-100628571D01*
X131542857Y-101152380D01*
X132447619Y-100485714D02*
X132447619Y-101295238D01*
X132400000Y-101390476D01*
X132352380Y-101438095D01*
X132257142Y-101485714D01*
X132114285Y-101485714D01*
X132019047Y-101438095D01*
X132447619Y-101104761D02*
X132352380Y-101152380D01*
X132161904Y-101152380D01*
X132066666Y-101104761D01*
X132019047Y-101057142D01*
X131971428Y-100961904D01*
X131971428Y-100676190D01*
X132019047Y-100580952D01*
X132066666Y-100533333D01*
X132161904Y-100485714D01*
X132352380Y-100485714D01*
X132447619Y-100533333D01*
X132923809Y-101152380D02*
X132923809Y-100152380D01*
X132923809Y-100628571D02*
X133495238Y-100628571D01*
X133495238Y-101152380D02*
X133495238Y-100152380D01*
X134114285Y-101152380D02*
X134019047Y-101104761D01*
X133971428Y-101057142D01*
X133923809Y-100961904D01*
X133923809Y-100676190D01*
X133971428Y-100580952D01*
X134019047Y-100533333D01*
X134114285Y-100485714D01*
X134257142Y-100485714D01*
X134352380Y-100533333D01*
X134400000Y-100580952D01*
X134447619Y-100676190D01*
X134447619Y-100961904D01*
X134400000Y-101057142D01*
X134352380Y-101104761D01*
X134257142Y-101152380D01*
X134114285Y-101152380D01*
X135019047Y-101152380D02*
X134923809Y-101104761D01*
X134876190Y-101009523D01*
X134876190Y-100152380D01*
X135780952Y-101104761D02*
X135685714Y-101152380D01*
X135495238Y-101152380D01*
X135400000Y-101104761D01*
X135352380Y-101009523D01*
X135352380Y-100628571D01*
X135400000Y-100533333D01*
X135495238Y-100485714D01*
X135685714Y-100485714D01*
X135780952Y-100533333D01*
X135828571Y-100628571D01*
X135828571Y-100723809D01*
X135352380Y-100819047D01*
X136019047Y-101247619D02*
X136780952Y-101247619D01*
X136971428Y-100247619D02*
X137019047Y-100200000D01*
X137114285Y-100152380D01*
X137352380Y-100152380D01*
X137447619Y-100200000D01*
X137495238Y-100247619D01*
X137542857Y-100342857D01*
X137542857Y-100438095D01*
X137495238Y-100580952D01*
X136923809Y-101152380D01*
X137542857Y-101152380D01*
X137971428Y-101057142D02*
X138019047Y-101104761D01*
X137971428Y-101152380D01*
X137923809Y-101104761D01*
X137971428Y-101057142D01*
X137971428Y-101152380D01*
X138352380Y-100152380D02*
X139019047Y-100152380D01*
X138590476Y-101152380D01*
X139400000Y-101152380D02*
X139400000Y-100485714D01*
X139400000Y-100580952D02*
X139447619Y-100533333D01*
X139542857Y-100485714D01*
X139685714Y-100485714D01*
X139780952Y-100533333D01*
X139828571Y-100628571D01*
X139828571Y-101152380D01*
X139828571Y-100628571D02*
X139876190Y-100533333D01*
X139971428Y-100485714D01*
X140114285Y-100485714D01*
X140209523Y-100533333D01*
X140257142Y-100628571D01*
X140257142Y-101152380D01*
X140733333Y-101152380D02*
X140733333Y-100485714D01*
X140733333Y-100580952D02*
X140780952Y-100533333D01*
X140876190Y-100485714D01*
X141019047Y-100485714D01*
X141114285Y-100533333D01*
X141161904Y-100628571D01*
X141161904Y-101152380D01*
X141161904Y-100628571D02*
X141209523Y-100533333D01*
X141304761Y-100485714D01*
X141447619Y-100485714D01*
X141542857Y-100533333D01*
X141590476Y-100628571D01*
X141590476Y-101152380D01*
X132866666Y-97452380D02*
X132533333Y-96976190D01*
X132295238Y-97452380D02*
X132295238Y-96452380D01*
X132676190Y-96452380D01*
X132771428Y-96500000D01*
X132819047Y-96547619D01*
X132866666Y-96642857D01*
X132866666Y-96785714D01*
X132819047Y-96880952D01*
X132771428Y-96928571D01*
X132676190Y-96976190D01*
X132295238Y-96976190D01*
X133295238Y-96928571D02*
X133628571Y-96928571D01*
X133771428Y-97452380D02*
X133295238Y-97452380D01*
X133295238Y-96452380D01*
X133771428Y-96452380D01*
X134533333Y-96928571D02*
X134200000Y-96928571D01*
X134200000Y-97452380D02*
X134200000Y-96452380D01*
X134676190Y-96452380D01*
X135200000Y-96452380D02*
X135200000Y-96690476D01*
X134961904Y-96595238D02*
X135200000Y-96690476D01*
X135438095Y-96595238D01*
X135057142Y-96880952D02*
X135200000Y-96690476D01*
X135342857Y-96880952D01*
X135961904Y-96452380D02*
X135961904Y-96690476D01*
X135723809Y-96595238D02*
X135961904Y-96690476D01*
X136200000Y-96595238D01*
X135819047Y-96880952D02*
X135961904Y-96690476D01*
X136104761Y-96880952D01*
X126209523Y-42152380D02*
X126209523Y-41152380D01*
X126542857Y-41866666D01*
X126876190Y-41152380D01*
X126876190Y-42152380D01*
X127495238Y-42152380D02*
X127400000Y-42104761D01*
X127352380Y-42057142D01*
X127304761Y-41961904D01*
X127304761Y-41676190D01*
X127352380Y-41580952D01*
X127400000Y-41533333D01*
X127495238Y-41485714D01*
X127638095Y-41485714D01*
X127733333Y-41533333D01*
X127780952Y-41580952D01*
X127828571Y-41676190D01*
X127828571Y-41961904D01*
X127780952Y-42057142D01*
X127733333Y-42104761D01*
X127638095Y-42152380D01*
X127495238Y-42152380D01*
X128685714Y-41485714D02*
X128685714Y-42152380D01*
X128257142Y-41485714D02*
X128257142Y-42009523D01*
X128304761Y-42104761D01*
X128400000Y-42152380D01*
X128542857Y-42152380D01*
X128638095Y-42104761D01*
X128685714Y-42057142D01*
X129161904Y-41485714D02*
X129161904Y-42152380D01*
X129161904Y-41580952D02*
X129209523Y-41533333D01*
X129304761Y-41485714D01*
X129447619Y-41485714D01*
X129542857Y-41533333D01*
X129590476Y-41628571D01*
X129590476Y-42152380D01*
X129923809Y-41485714D02*
X130304761Y-41485714D01*
X130066666Y-41152380D02*
X130066666Y-42009523D01*
X130114285Y-42104761D01*
X130209523Y-42152380D01*
X130304761Y-42152380D01*
X130638095Y-42152380D02*
X130638095Y-41485714D01*
X130638095Y-41152380D02*
X130590476Y-41200000D01*
X130638095Y-41247619D01*
X130685714Y-41200000D01*
X130638095Y-41152380D01*
X130638095Y-41247619D01*
X131114285Y-41485714D02*
X131114285Y-42152380D01*
X131114285Y-41580952D02*
X131161904Y-41533333D01*
X131257142Y-41485714D01*
X131400000Y-41485714D01*
X131495238Y-41533333D01*
X131542857Y-41628571D01*
X131542857Y-42152380D01*
X132447619Y-41485714D02*
X132447619Y-42295238D01*
X132400000Y-42390476D01*
X132352380Y-42438095D01*
X132257142Y-42485714D01*
X132114285Y-42485714D01*
X132019047Y-42438095D01*
X132447619Y-42104761D02*
X132352380Y-42152380D01*
X132161904Y-42152380D01*
X132066666Y-42104761D01*
X132019047Y-42057142D01*
X131971428Y-41961904D01*
X131971428Y-41676190D01*
X132019047Y-41580952D01*
X132066666Y-41533333D01*
X132161904Y-41485714D01*
X132352380Y-41485714D01*
X132447619Y-41533333D01*
X132923809Y-42152380D02*
X132923809Y-41152380D01*
X132923809Y-41628571D02*
X133495238Y-41628571D01*
X133495238Y-42152380D02*
X133495238Y-41152380D01*
X134114285Y-42152380D02*
X134019047Y-42104761D01*
X133971428Y-42057142D01*
X133923809Y-41961904D01*
X133923809Y-41676190D01*
X133971428Y-41580952D01*
X134019047Y-41533333D01*
X134114285Y-41485714D01*
X134257142Y-41485714D01*
X134352380Y-41533333D01*
X134400000Y-41580952D01*
X134447619Y-41676190D01*
X134447619Y-41961904D01*
X134400000Y-42057142D01*
X134352380Y-42104761D01*
X134257142Y-42152380D01*
X134114285Y-42152380D01*
X135019047Y-42152380D02*
X134923809Y-42104761D01*
X134876190Y-42009523D01*
X134876190Y-41152380D01*
X135780952Y-42104761D02*
X135685714Y-42152380D01*
X135495238Y-42152380D01*
X135400000Y-42104761D01*
X135352380Y-42009523D01*
X135352380Y-41628571D01*
X135400000Y-41533333D01*
X135495238Y-41485714D01*
X135685714Y-41485714D01*
X135780952Y-41533333D01*
X135828571Y-41628571D01*
X135828571Y-41723809D01*
X135352380Y-41819047D01*
X136019047Y-42247619D02*
X136780952Y-42247619D01*
X136971428Y-41247619D02*
X137019047Y-41200000D01*
X137114285Y-41152380D01*
X137352380Y-41152380D01*
X137447619Y-41200000D01*
X137495238Y-41247619D01*
X137542857Y-41342857D01*
X137542857Y-41438095D01*
X137495238Y-41580952D01*
X136923809Y-42152380D01*
X137542857Y-42152380D01*
X137971428Y-42057142D02*
X138019047Y-42104761D01*
X137971428Y-42152380D01*
X137923809Y-42104761D01*
X137971428Y-42057142D01*
X137971428Y-42152380D01*
X138352380Y-41152380D02*
X139019047Y-41152380D01*
X138590476Y-42152380D01*
X139400000Y-42152380D02*
X139400000Y-41485714D01*
X139400000Y-41580952D02*
X139447619Y-41533333D01*
X139542857Y-41485714D01*
X139685714Y-41485714D01*
X139780952Y-41533333D01*
X139828571Y-41628571D01*
X139828571Y-42152380D01*
X139828571Y-41628571D02*
X139876190Y-41533333D01*
X139971428Y-41485714D01*
X140114285Y-41485714D01*
X140209523Y-41533333D01*
X140257142Y-41628571D01*
X140257142Y-42152380D01*
X140733333Y-42152380D02*
X140733333Y-41485714D01*
X140733333Y-41580952D02*
X140780952Y-41533333D01*
X140876190Y-41485714D01*
X141019047Y-41485714D01*
X141114285Y-41533333D01*
X141161904Y-41628571D01*
X141161904Y-42152380D01*
X141161904Y-41628571D02*
X141209523Y-41533333D01*
X141304761Y-41485714D01*
X141447619Y-41485714D01*
X141542857Y-41533333D01*
X141590476Y-41628571D01*
X141590476Y-42152380D01*
X132866666Y-38452380D02*
X132533333Y-37976190D01*
X132295238Y-38452380D02*
X132295238Y-37452380D01*
X132676190Y-37452380D01*
X132771428Y-37500000D01*
X132819047Y-37547619D01*
X132866666Y-37642857D01*
X132866666Y-37785714D01*
X132819047Y-37880952D01*
X132771428Y-37928571D01*
X132676190Y-37976190D01*
X132295238Y-37976190D01*
X133295238Y-37928571D02*
X133628571Y-37928571D01*
X133771428Y-38452380D02*
X133295238Y-38452380D01*
X133295238Y-37452380D01*
X133771428Y-37452380D01*
X134533333Y-37928571D02*
X134200000Y-37928571D01*
X134200000Y-38452380D02*
X134200000Y-37452380D01*
X134676190Y-37452380D01*
X135200000Y-37452380D02*
X135200000Y-37690476D01*
X134961904Y-37595238D02*
X135200000Y-37690476D01*
X135438095Y-37595238D01*
X135057142Y-37880952D02*
X135200000Y-37690476D01*
X135342857Y-37880952D01*
X135961904Y-37452380D02*
X135961904Y-37690476D01*
X135723809Y-37595238D02*
X135961904Y-37690476D01*
X136200000Y-37595238D01*
X135819047Y-37880952D02*
X135961904Y-37690476D01*
X136104761Y-37880952D01*
X100709523Y-42152380D02*
X100709523Y-41152380D01*
X101042857Y-41866666D01*
X101376190Y-41152380D01*
X101376190Y-42152380D01*
X101995238Y-42152380D02*
X101900000Y-42104761D01*
X101852380Y-42057142D01*
X101804761Y-41961904D01*
X101804761Y-41676190D01*
X101852380Y-41580952D01*
X101900000Y-41533333D01*
X101995238Y-41485714D01*
X102138095Y-41485714D01*
X102233333Y-41533333D01*
X102280952Y-41580952D01*
X102328571Y-41676190D01*
X102328571Y-41961904D01*
X102280952Y-42057142D01*
X102233333Y-42104761D01*
X102138095Y-42152380D01*
X101995238Y-42152380D01*
X103185714Y-41485714D02*
X103185714Y-42152380D01*
X102757142Y-41485714D02*
X102757142Y-42009523D01*
X102804761Y-42104761D01*
X102900000Y-42152380D01*
X103042857Y-42152380D01*
X103138095Y-42104761D01*
X103185714Y-42057142D01*
X103661904Y-41485714D02*
X103661904Y-42152380D01*
X103661904Y-41580952D02*
X103709523Y-41533333D01*
X103804761Y-41485714D01*
X103947619Y-41485714D01*
X104042857Y-41533333D01*
X104090476Y-41628571D01*
X104090476Y-42152380D01*
X104423809Y-41485714D02*
X104804761Y-41485714D01*
X104566666Y-41152380D02*
X104566666Y-42009523D01*
X104614285Y-42104761D01*
X104709523Y-42152380D01*
X104804761Y-42152380D01*
X105138095Y-42152380D02*
X105138095Y-41485714D01*
X105138095Y-41152380D02*
X105090476Y-41200000D01*
X105138095Y-41247619D01*
X105185714Y-41200000D01*
X105138095Y-41152380D01*
X105138095Y-41247619D01*
X105614285Y-41485714D02*
X105614285Y-42152380D01*
X105614285Y-41580952D02*
X105661904Y-41533333D01*
X105757142Y-41485714D01*
X105900000Y-41485714D01*
X105995238Y-41533333D01*
X106042857Y-41628571D01*
X106042857Y-42152380D01*
X106947619Y-41485714D02*
X106947619Y-42295238D01*
X106900000Y-42390476D01*
X106852380Y-42438095D01*
X106757142Y-42485714D01*
X106614285Y-42485714D01*
X106519047Y-42438095D01*
X106947619Y-42104761D02*
X106852380Y-42152380D01*
X106661904Y-42152380D01*
X106566666Y-42104761D01*
X106519047Y-42057142D01*
X106471428Y-41961904D01*
X106471428Y-41676190D01*
X106519047Y-41580952D01*
X106566666Y-41533333D01*
X106661904Y-41485714D01*
X106852380Y-41485714D01*
X106947619Y-41533333D01*
X107423809Y-42152380D02*
X107423809Y-41152380D01*
X107423809Y-41628571D02*
X107995238Y-41628571D01*
X107995238Y-42152380D02*
X107995238Y-41152380D01*
X108614285Y-42152380D02*
X108519047Y-42104761D01*
X108471428Y-42057142D01*
X108423809Y-41961904D01*
X108423809Y-41676190D01*
X108471428Y-41580952D01*
X108519047Y-41533333D01*
X108614285Y-41485714D01*
X108757142Y-41485714D01*
X108852380Y-41533333D01*
X108900000Y-41580952D01*
X108947619Y-41676190D01*
X108947619Y-41961904D01*
X108900000Y-42057142D01*
X108852380Y-42104761D01*
X108757142Y-42152380D01*
X108614285Y-42152380D01*
X109519047Y-42152380D02*
X109423809Y-42104761D01*
X109376190Y-42009523D01*
X109376190Y-41152380D01*
X110280952Y-42104761D02*
X110185714Y-42152380D01*
X109995238Y-42152380D01*
X109900000Y-42104761D01*
X109852380Y-42009523D01*
X109852380Y-41628571D01*
X109900000Y-41533333D01*
X109995238Y-41485714D01*
X110185714Y-41485714D01*
X110280952Y-41533333D01*
X110328571Y-41628571D01*
X110328571Y-41723809D01*
X109852380Y-41819047D01*
X110519047Y-42247619D02*
X111280952Y-42247619D01*
X111471428Y-41247619D02*
X111519047Y-41200000D01*
X111614285Y-41152380D01*
X111852380Y-41152380D01*
X111947619Y-41200000D01*
X111995238Y-41247619D01*
X112042857Y-41342857D01*
X112042857Y-41438095D01*
X111995238Y-41580952D01*
X111423809Y-42152380D01*
X112042857Y-42152380D01*
X112471428Y-42057142D02*
X112519047Y-42104761D01*
X112471428Y-42152380D01*
X112423809Y-42104761D01*
X112471428Y-42057142D01*
X112471428Y-42152380D01*
X112852380Y-41152380D02*
X113519047Y-41152380D01*
X113090476Y-42152380D01*
X113899999Y-42152380D02*
X113899999Y-41485714D01*
X113899999Y-41580952D02*
X113947619Y-41533333D01*
X114042857Y-41485714D01*
X114185714Y-41485714D01*
X114280952Y-41533333D01*
X114328571Y-41628571D01*
X114328571Y-42152380D01*
X114328571Y-41628571D02*
X114376190Y-41533333D01*
X114471428Y-41485714D01*
X114614285Y-41485714D01*
X114709523Y-41533333D01*
X114757142Y-41628571D01*
X114757142Y-42152380D01*
X115233333Y-42152380D02*
X115233333Y-41485714D01*
X115233333Y-41580952D02*
X115280952Y-41533333D01*
X115376190Y-41485714D01*
X115519047Y-41485714D01*
X115614285Y-41533333D01*
X115661904Y-41628571D01*
X115661904Y-42152380D01*
X115661904Y-41628571D02*
X115709523Y-41533333D01*
X115804761Y-41485714D01*
X115947619Y-41485714D01*
X116042857Y-41533333D01*
X116090476Y-41628571D01*
X116090476Y-42152380D01*
X107366666Y-38452380D02*
X107033333Y-37976190D01*
X106795238Y-38452380D02*
X106795238Y-37452380D01*
X107176190Y-37452380D01*
X107271428Y-37500000D01*
X107319047Y-37547619D01*
X107366666Y-37642857D01*
X107366666Y-37785714D01*
X107319047Y-37880952D01*
X107271428Y-37928571D01*
X107176190Y-37976190D01*
X106795238Y-37976190D01*
X107795238Y-37928571D02*
X108128571Y-37928571D01*
X108271428Y-38452380D02*
X107795238Y-38452380D01*
X107795238Y-37452380D01*
X108271428Y-37452380D01*
X109033333Y-37928571D02*
X108700000Y-37928571D01*
X108700000Y-38452380D02*
X108700000Y-37452380D01*
X109176190Y-37452380D01*
X109700000Y-37452380D02*
X109700000Y-37690476D01*
X109461904Y-37595238D02*
X109700000Y-37690476D01*
X109938095Y-37595238D01*
X109557142Y-37880952D02*
X109700000Y-37690476D01*
X109842857Y-37880952D01*
X110461904Y-37452380D02*
X110461904Y-37690476D01*
X110223809Y-37595238D02*
X110461904Y-37690476D01*
X110700000Y-37595238D01*
X110319047Y-37880952D02*
X110461904Y-37690476D01*
X110604761Y-37880952D01*
G04 #@! TO.C,J1*
X102538020Y-60431489D02*
X103347544Y-60431489D01*
X103442782Y-60383870D01*
X103490401Y-60336251D01*
X103538020Y-60241013D01*
X103538020Y-60050537D01*
X103490401Y-59955299D01*
X103442782Y-59907680D01*
X103347544Y-59860060D01*
X102538020Y-59860060D01*
X103490401Y-59431489D02*
X103538020Y-59288632D01*
X103538020Y-59050537D01*
X103490401Y-58955299D01*
X103442782Y-58907680D01*
X103347544Y-58860060D01*
X103252306Y-58860060D01*
X103157068Y-58907680D01*
X103109449Y-58955299D01*
X103061830Y-59050537D01*
X103014211Y-59241013D01*
X102966592Y-59336251D01*
X102918973Y-59383870D01*
X102823735Y-59431489D01*
X102728497Y-59431489D01*
X102633259Y-59383870D01*
X102585640Y-59336251D01*
X102538020Y-59241013D01*
X102538020Y-59002918D01*
X102585640Y-58860060D01*
X103014211Y-58098156D02*
X103061830Y-57955299D01*
X103109449Y-57907680D01*
X103204687Y-57860060D01*
X103347544Y-57860060D01*
X103442782Y-57907680D01*
X103490401Y-57955299D01*
X103538020Y-58050537D01*
X103538020Y-58431489D01*
X102538020Y-58431489D01*
X102538020Y-58098156D01*
X102585640Y-58002918D01*
X102633259Y-57955299D01*
X102728497Y-57907680D01*
X102823735Y-57907680D01*
X102918973Y-57955299D01*
X102966592Y-58002918D01*
X103014211Y-58098156D01*
X103014211Y-58431489D01*
X103633259Y-57669584D02*
X103633259Y-56907680D01*
X103014211Y-56336251D02*
X103061830Y-56193394D01*
X103109449Y-56145775D01*
X103204687Y-56098156D01*
X103347544Y-56098156D01*
X103442782Y-56145775D01*
X103490401Y-56193394D01*
X103538020Y-56288632D01*
X103538020Y-56669584D01*
X102538020Y-56669584D01*
X102538020Y-56336251D01*
X102585640Y-56241013D01*
X102633259Y-56193394D01*
X102728497Y-56145775D01*
X102823735Y-56145775D01*
X102918973Y-56193394D01*
X102966592Y-56241013D01*
X103014211Y-56336251D01*
X103014211Y-56669584D01*
X103633259Y-55907680D02*
X103633259Y-55145775D01*
X103538020Y-54907680D02*
X102538020Y-54907680D01*
X103252306Y-54574346D01*
X102538020Y-54241013D01*
X103538020Y-54241013D01*
X103538020Y-53764822D02*
X102871354Y-53764822D01*
X102538020Y-53764822D02*
X102585640Y-53812441D01*
X102633259Y-53764822D01*
X102585640Y-53717203D01*
X102538020Y-53764822D01*
X102633259Y-53764822D01*
X103490401Y-52860060D02*
X103538020Y-52955299D01*
X103538020Y-53145775D01*
X103490401Y-53241013D01*
X103442782Y-53288632D01*
X103347544Y-53336251D01*
X103061830Y-53336251D01*
X102966592Y-53288632D01*
X102918973Y-53241013D01*
X102871354Y-53145775D01*
X102871354Y-52955299D01*
X102918973Y-52860060D01*
X103538020Y-52431489D02*
X102871354Y-52431489D01*
X103061830Y-52431489D02*
X102966592Y-52383870D01*
X102918973Y-52336251D01*
X102871354Y-52241013D01*
X102871354Y-52145775D01*
X103538020Y-51669584D02*
X103490401Y-51764822D01*
X103442782Y-51812441D01*
X103347544Y-51860060D01*
X103061830Y-51860060D01*
X102966592Y-51812441D01*
X102918973Y-51764822D01*
X102871354Y-51669584D01*
X102871354Y-51526727D01*
X102918973Y-51431489D01*
X102966592Y-51383870D01*
X103061830Y-51336251D01*
X103347544Y-51336251D01*
X103442782Y-51383870D01*
X103490401Y-51431489D01*
X103538020Y-51526727D01*
X103538020Y-51669584D01*
X110653020Y-50396013D02*
X111367306Y-50396013D01*
X111510163Y-50443632D01*
X111605401Y-50538870D01*
X111653020Y-50681727D01*
X111653020Y-50776965D01*
X111653020Y-49396013D02*
X111653020Y-49967441D01*
X111653020Y-49681727D02*
X110653020Y-49681727D01*
X110795878Y-49776965D01*
X110891116Y-49872203D01*
X110938735Y-49967441D01*
G04 #@! TO.C,C1*
X109747441Y-72775180D02*
X109176013Y-72775180D01*
X109461727Y-72775180D02*
X109461727Y-71775180D01*
X109366489Y-71918038D01*
X109271251Y-72013276D01*
X109176013Y-72060895D01*
X110604584Y-72108514D02*
X110604584Y-72775180D01*
X110176013Y-72108514D02*
X110176013Y-72632323D01*
X110223632Y-72727561D01*
X110318870Y-72775180D01*
X110461727Y-72775180D01*
X110556965Y-72727561D01*
X110604584Y-72679942D01*
X111414108Y-72251371D02*
X111080775Y-72251371D01*
X111080775Y-72775180D02*
X111080775Y-71775180D01*
X111556965Y-71775180D01*
D13*
X113764546Y-72699491D02*
X113740737Y-72723300D01*
X113669308Y-72747110D01*
X113621689Y-72747110D01*
X113550260Y-72723300D01*
X113502641Y-72675681D01*
X113478832Y-72628062D01*
X113455022Y-72532824D01*
X113455022Y-72461396D01*
X113478832Y-72366158D01*
X113502641Y-72318539D01*
X113550260Y-72270920D01*
X113621689Y-72247110D01*
X113669308Y-72247110D01*
X113740737Y-72270920D01*
X113764546Y-72294729D01*
X114240737Y-72747110D02*
X113955022Y-72747110D01*
X114097880Y-72747110D02*
X114097880Y-72247110D01*
X114050260Y-72318539D01*
X114002641Y-72366158D01*
X113955022Y-72389967D01*
G04 #@! TO.C,C2*
D12*
X119107460Y-81046580D02*
X118536032Y-81046580D01*
X118821746Y-81046580D02*
X118821746Y-80046580D01*
X118726508Y-80189438D01*
X118631270Y-80284676D01*
X118536032Y-80332295D01*
X119726508Y-80046580D02*
X119821746Y-80046580D01*
X119916984Y-80094200D01*
X119964603Y-80141819D01*
X120012222Y-80237057D01*
X120059841Y-80427533D01*
X120059841Y-80665628D01*
X120012222Y-80856104D01*
X119964603Y-80951342D01*
X119916984Y-80998961D01*
X119821746Y-81046580D01*
X119726508Y-81046580D01*
X119631270Y-80998961D01*
X119583651Y-80951342D01*
X119536032Y-80856104D01*
X119488413Y-80665628D01*
X119488413Y-80427533D01*
X119536032Y-80237057D01*
X119583651Y-80141819D01*
X119631270Y-80094200D01*
X119726508Y-80046580D01*
X120678889Y-80046580D02*
X120774127Y-80046580D01*
X120869365Y-80094200D01*
X120916984Y-80141819D01*
X120964603Y-80237057D01*
X121012222Y-80427533D01*
X121012222Y-80665628D01*
X120964603Y-80856104D01*
X120916984Y-80951342D01*
X120869365Y-80998961D01*
X120774127Y-81046580D01*
X120678889Y-81046580D01*
X120583651Y-80998961D01*
X120536032Y-80951342D01*
X120488413Y-80856104D01*
X120440794Y-80665628D01*
X120440794Y-80427533D01*
X120488413Y-80237057D01*
X120536032Y-80141819D01*
X120583651Y-80094200D01*
X120678889Y-80046580D01*
X121440794Y-80379914D02*
X121440794Y-81046580D01*
X121440794Y-80475152D02*
X121488413Y-80427533D01*
X121583651Y-80379914D01*
X121726508Y-80379914D01*
X121821746Y-80427533D01*
X121869365Y-80522771D01*
X121869365Y-81046580D01*
X122678889Y-80522771D02*
X122345556Y-80522771D01*
X122345556Y-81046580D02*
X122345556Y-80046580D01*
X122821746Y-80046580D01*
D13*
X120597146Y-79111611D02*
X120573337Y-79135420D01*
X120501908Y-79159230D01*
X120454289Y-79159230D01*
X120382860Y-79135420D01*
X120335241Y-79087801D01*
X120311432Y-79040182D01*
X120287622Y-78944944D01*
X120287622Y-78873516D01*
X120311432Y-78778278D01*
X120335241Y-78730659D01*
X120382860Y-78683040D01*
X120454289Y-78659230D01*
X120501908Y-78659230D01*
X120573337Y-78683040D01*
X120597146Y-78706849D01*
X120787622Y-78706849D02*
X120811432Y-78683040D01*
X120859051Y-78659230D01*
X120978099Y-78659230D01*
X121025718Y-78683040D01*
X121049527Y-78706849D01*
X121073337Y-78754468D01*
X121073337Y-78802087D01*
X121049527Y-78873516D01*
X120763813Y-79159230D01*
X121073337Y-79159230D01*
G04 #@! TO.C,C3*
D12*
X113537121Y-80658340D02*
X112965693Y-80658340D01*
X113251407Y-80658340D02*
X113251407Y-79658340D01*
X113156169Y-79801198D01*
X113060931Y-79896436D01*
X112965693Y-79944055D01*
X114394264Y-79991674D02*
X114394264Y-80658340D01*
X113965693Y-79991674D02*
X113965693Y-80515483D01*
X114013312Y-80610721D01*
X114108550Y-80658340D01*
X114251407Y-80658340D01*
X114346645Y-80610721D01*
X114394264Y-80563102D01*
X115203788Y-80134531D02*
X114870455Y-80134531D01*
X114870455Y-80658340D02*
X114870455Y-79658340D01*
X115346645Y-79658340D01*
D13*
X114049026Y-78734531D02*
X114025217Y-78758340D01*
X113953788Y-78782150D01*
X113906169Y-78782150D01*
X113834740Y-78758340D01*
X113787121Y-78710721D01*
X113763312Y-78663102D01*
X113739502Y-78567864D01*
X113739502Y-78496436D01*
X113763312Y-78401198D01*
X113787121Y-78353579D01*
X113834740Y-78305960D01*
X113906169Y-78282150D01*
X113953788Y-78282150D01*
X114025217Y-78305960D01*
X114049026Y-78329769D01*
X114215693Y-78282150D02*
X114525217Y-78282150D01*
X114358550Y-78472626D01*
X114429979Y-78472626D01*
X114477598Y-78496436D01*
X114501407Y-78520245D01*
X114525217Y-78567864D01*
X114525217Y-78686912D01*
X114501407Y-78734531D01*
X114477598Y-78758340D01*
X114429979Y-78782150D01*
X114287121Y-78782150D01*
X114239502Y-78758340D01*
X114215693Y-78734531D01*
G04 #@! TO.C,C4*
D12*
X119946940Y-65645020D02*
X119375512Y-65645020D01*
X119661226Y-65645020D02*
X119661226Y-64645020D01*
X119565988Y-64787878D01*
X119470750Y-64883116D01*
X119375512Y-64930735D01*
X120565988Y-64645020D02*
X120661226Y-64645020D01*
X120756464Y-64692640D01*
X120804083Y-64740259D01*
X120851702Y-64835497D01*
X120899321Y-65025973D01*
X120899321Y-65264068D01*
X120851702Y-65454544D01*
X120804083Y-65549782D01*
X120756464Y-65597401D01*
X120661226Y-65645020D01*
X120565988Y-65645020D01*
X120470750Y-65597401D01*
X120423131Y-65549782D01*
X120375512Y-65454544D01*
X120327893Y-65264068D01*
X120327893Y-65025973D01*
X120375512Y-64835497D01*
X120423131Y-64740259D01*
X120470750Y-64692640D01*
X120565988Y-64645020D01*
X121518369Y-64645020D02*
X121613607Y-64645020D01*
X121708845Y-64692640D01*
X121756464Y-64740259D01*
X121804083Y-64835497D01*
X121851702Y-65025973D01*
X121851702Y-65264068D01*
X121804083Y-65454544D01*
X121756464Y-65549782D01*
X121708845Y-65597401D01*
X121613607Y-65645020D01*
X121518369Y-65645020D01*
X121423131Y-65597401D01*
X121375512Y-65549782D01*
X121327893Y-65454544D01*
X121280274Y-65264068D01*
X121280274Y-65025973D01*
X121327893Y-64835497D01*
X121375512Y-64740259D01*
X121423131Y-64692640D01*
X121518369Y-64645020D01*
X122280274Y-64978354D02*
X122280274Y-65645020D01*
X122280274Y-65073592D02*
X122327893Y-65025973D01*
X122423131Y-64978354D01*
X122565988Y-64978354D01*
X122661226Y-65025973D01*
X122708845Y-65121211D01*
X122708845Y-65645020D01*
X123518369Y-65121211D02*
X123185036Y-65121211D01*
X123185036Y-65645020D02*
X123185036Y-64645020D01*
X123661226Y-64645020D01*
D13*
X121411226Y-67021211D02*
X121387417Y-67045020D01*
X121315988Y-67068830D01*
X121268369Y-67068830D01*
X121196940Y-67045020D01*
X121149321Y-66997401D01*
X121125512Y-66949782D01*
X121101702Y-66854544D01*
X121101702Y-66783116D01*
X121125512Y-66687878D01*
X121149321Y-66640259D01*
X121196940Y-66592640D01*
X121268369Y-66568830D01*
X121315988Y-66568830D01*
X121387417Y-66592640D01*
X121411226Y-66616449D01*
X121839798Y-66735497D02*
X121839798Y-67068830D01*
X121720750Y-66545020D02*
X121601702Y-66902163D01*
X121911226Y-66902163D01*
G04 #@! TO.C,C5*
D12*
X126229740Y-81513940D02*
X125658312Y-81513940D01*
X125944026Y-81513940D02*
X125944026Y-80513940D01*
X125848788Y-80656798D01*
X125753550Y-80752036D01*
X125658312Y-80799655D01*
X126848788Y-80513940D02*
X126944026Y-80513940D01*
X127039264Y-80561560D01*
X127086883Y-80609179D01*
X127134502Y-80704417D01*
X127182121Y-80894893D01*
X127182121Y-81132988D01*
X127134502Y-81323464D01*
X127086883Y-81418702D01*
X127039264Y-81466321D01*
X126944026Y-81513940D01*
X126848788Y-81513940D01*
X126753550Y-81466321D01*
X126705931Y-81418702D01*
X126658312Y-81323464D01*
X126610693Y-81132988D01*
X126610693Y-80894893D01*
X126658312Y-80704417D01*
X126705931Y-80609179D01*
X126753550Y-80561560D01*
X126848788Y-80513940D01*
X127801169Y-80513940D02*
X127896407Y-80513940D01*
X127991645Y-80561560D01*
X128039264Y-80609179D01*
X128086883Y-80704417D01*
X128134502Y-80894893D01*
X128134502Y-81132988D01*
X128086883Y-81323464D01*
X128039264Y-81418702D01*
X127991645Y-81466321D01*
X127896407Y-81513940D01*
X127801169Y-81513940D01*
X127705931Y-81466321D01*
X127658312Y-81418702D01*
X127610693Y-81323464D01*
X127563074Y-81132988D01*
X127563074Y-80894893D01*
X127610693Y-80704417D01*
X127658312Y-80609179D01*
X127705931Y-80561560D01*
X127801169Y-80513940D01*
X128563074Y-80847274D02*
X128563074Y-81513940D01*
X128563074Y-80942512D02*
X128610693Y-80894893D01*
X128705931Y-80847274D01*
X128848788Y-80847274D01*
X128944026Y-80894893D01*
X128991645Y-80990131D01*
X128991645Y-81513940D01*
X129801169Y-80990131D02*
X129467836Y-80990131D01*
X129467836Y-81513940D02*
X129467836Y-80513940D01*
X129944026Y-80513940D01*
D13*
X126027786Y-79512931D02*
X126003977Y-79536740D01*
X125932548Y-79560550D01*
X125884929Y-79560550D01*
X125813500Y-79536740D01*
X125765881Y-79489121D01*
X125742072Y-79441502D01*
X125718262Y-79346264D01*
X125718262Y-79274836D01*
X125742072Y-79179598D01*
X125765881Y-79131979D01*
X125813500Y-79084360D01*
X125884929Y-79060550D01*
X125932548Y-79060550D01*
X126003977Y-79084360D01*
X126027786Y-79108169D01*
X126480167Y-79060550D02*
X126242072Y-79060550D01*
X126218262Y-79298645D01*
X126242072Y-79274836D01*
X126289691Y-79251026D01*
X126408739Y-79251026D01*
X126456358Y-79274836D01*
X126480167Y-79298645D01*
X126503977Y-79346264D01*
X126503977Y-79465312D01*
X126480167Y-79512931D01*
X126456358Y-79536740D01*
X126408739Y-79560550D01*
X126289691Y-79560550D01*
X126242072Y-79536740D01*
X126218262Y-79512931D01*
G04 #@! TO.C,C6*
D12*
X116433860Y-74887579D02*
X116433860Y-75459007D01*
X116433860Y-75173293D02*
X115433860Y-75173293D01*
X115576718Y-75268531D01*
X115671956Y-75363769D01*
X115719575Y-75459007D01*
X115433860Y-74268531D02*
X115433860Y-74173293D01*
X115481480Y-74078055D01*
X115529099Y-74030436D01*
X115624337Y-73982817D01*
X115814813Y-73935198D01*
X116052908Y-73935198D01*
X116243384Y-73982817D01*
X116338622Y-74030436D01*
X116386241Y-74078055D01*
X116433860Y-74173293D01*
X116433860Y-74268531D01*
X116386241Y-74363769D01*
X116338622Y-74411388D01*
X116243384Y-74459007D01*
X116052908Y-74506626D01*
X115814813Y-74506626D01*
X115624337Y-74459007D01*
X115529099Y-74411388D01*
X115481480Y-74363769D01*
X115433860Y-74268531D01*
X115433860Y-73316150D02*
X115433860Y-73220912D01*
X115481480Y-73125674D01*
X115529099Y-73078055D01*
X115624337Y-73030436D01*
X115814813Y-72982817D01*
X116052908Y-72982817D01*
X116243384Y-73030436D01*
X116338622Y-73078055D01*
X116386241Y-73125674D01*
X116433860Y-73220912D01*
X116433860Y-73316150D01*
X116386241Y-73411388D01*
X116338622Y-73459007D01*
X116243384Y-73506626D01*
X116052908Y-73554245D01*
X115814813Y-73554245D01*
X115624337Y-73506626D01*
X115529099Y-73459007D01*
X115481480Y-73411388D01*
X115433860Y-73316150D01*
X115767194Y-72554245D02*
X116433860Y-72554245D01*
X115862432Y-72554245D02*
X115814813Y-72506626D01*
X115767194Y-72411388D01*
X115767194Y-72268531D01*
X115814813Y-72173293D01*
X115910051Y-72125674D01*
X116433860Y-72125674D01*
X115910051Y-71316150D02*
X115910051Y-71649483D01*
X116433860Y-71649483D02*
X115433860Y-71649483D01*
X115433860Y-71173293D01*
D13*
X119604291Y-73550293D02*
X119628100Y-73574102D01*
X119651910Y-73645531D01*
X119651910Y-73693150D01*
X119628100Y-73764579D01*
X119580481Y-73812198D01*
X119532862Y-73836007D01*
X119437624Y-73859817D01*
X119366196Y-73859817D01*
X119270958Y-73836007D01*
X119223339Y-73812198D01*
X119175720Y-73764579D01*
X119151910Y-73693150D01*
X119151910Y-73645531D01*
X119175720Y-73574102D01*
X119199529Y-73550293D01*
X119151910Y-73121721D02*
X119151910Y-73216960D01*
X119175720Y-73264579D01*
X119199529Y-73288388D01*
X119270958Y-73336007D01*
X119366196Y-73359817D01*
X119556672Y-73359817D01*
X119604291Y-73336007D01*
X119628100Y-73312198D01*
X119651910Y-73264579D01*
X119651910Y-73169340D01*
X119628100Y-73121721D01*
X119604291Y-73097912D01*
X119556672Y-73074102D01*
X119437624Y-73074102D01*
X119390005Y-73097912D01*
X119366196Y-73121721D01*
X119342386Y-73169340D01*
X119342386Y-73264579D01*
X119366196Y-73312198D01*
X119390005Y-73336007D01*
X119437624Y-73359817D01*
G04 #@! TO.C,C7*
D12*
X132679700Y-80699099D02*
X132679700Y-81270527D01*
X132679700Y-80984813D02*
X131679700Y-80984813D01*
X131822558Y-81080051D01*
X131917796Y-81175289D01*
X131965415Y-81270527D01*
X131679700Y-80080051D02*
X131679700Y-79984813D01*
X131727320Y-79889575D01*
X131774939Y-79841956D01*
X131870177Y-79794337D01*
X132060653Y-79746718D01*
X132298748Y-79746718D01*
X132489224Y-79794337D01*
X132584462Y-79841956D01*
X132632081Y-79889575D01*
X132679700Y-79984813D01*
X132679700Y-80080051D01*
X132632081Y-80175289D01*
X132584462Y-80222908D01*
X132489224Y-80270527D01*
X132298748Y-80318146D01*
X132060653Y-80318146D01*
X131870177Y-80270527D01*
X131774939Y-80222908D01*
X131727320Y-80175289D01*
X131679700Y-80080051D01*
X131679700Y-79127670D02*
X131679700Y-79032432D01*
X131727320Y-78937194D01*
X131774939Y-78889575D01*
X131870177Y-78841956D01*
X132060653Y-78794337D01*
X132298748Y-78794337D01*
X132489224Y-78841956D01*
X132584462Y-78889575D01*
X132632081Y-78937194D01*
X132679700Y-79032432D01*
X132679700Y-79127670D01*
X132632081Y-79222908D01*
X132584462Y-79270527D01*
X132489224Y-79318146D01*
X132298748Y-79365765D01*
X132060653Y-79365765D01*
X131870177Y-79318146D01*
X131774939Y-79270527D01*
X131727320Y-79222908D01*
X131679700Y-79127670D01*
X132013034Y-78365765D02*
X132679700Y-78365765D01*
X132108272Y-78365765D02*
X132060653Y-78318146D01*
X132013034Y-78222908D01*
X132013034Y-78080051D01*
X132060653Y-77984813D01*
X132155891Y-77937194D01*
X132679700Y-77937194D01*
X132155891Y-77127670D02*
X132155891Y-77461003D01*
X132679700Y-77461003D02*
X131679700Y-77461003D01*
X131679700Y-76984813D01*
D13*
X132492251Y-75003173D02*
X132516060Y-75026982D01*
X132539870Y-75098411D01*
X132539870Y-75146030D01*
X132516060Y-75217459D01*
X132468441Y-75265078D01*
X132420822Y-75288887D01*
X132325584Y-75312697D01*
X132254156Y-75312697D01*
X132158918Y-75288887D01*
X132111299Y-75265078D01*
X132063680Y-75217459D01*
X132039870Y-75146030D01*
X132039870Y-75098411D01*
X132063680Y-75026982D01*
X132087489Y-75003173D01*
X132039870Y-74836506D02*
X132039870Y-74503173D01*
X132539870Y-74717459D01*
G04 #@! TO.C,C8*
D12*
X116469420Y-92306948D02*
X116469420Y-92878377D01*
X116469420Y-92592662D02*
X115469420Y-92592662D01*
X115612278Y-92687900D01*
X115707516Y-92783139D01*
X115755135Y-92878377D01*
X115469420Y-91687900D02*
X115469420Y-91592662D01*
X115517040Y-91497424D01*
X115564659Y-91449805D01*
X115659897Y-91402186D01*
X115850373Y-91354567D01*
X116088468Y-91354567D01*
X116278944Y-91402186D01*
X116374182Y-91449805D01*
X116421801Y-91497424D01*
X116469420Y-91592662D01*
X116469420Y-91687900D01*
X116421801Y-91783139D01*
X116374182Y-91830758D01*
X116278944Y-91878377D01*
X116088468Y-91925996D01*
X115850373Y-91925996D01*
X115659897Y-91878377D01*
X115564659Y-91830758D01*
X115517040Y-91783139D01*
X115469420Y-91687900D01*
X115802754Y-90497424D02*
X116469420Y-90497424D01*
X115802754Y-90925996D02*
X116326563Y-90925996D01*
X116421801Y-90878377D01*
X116469420Y-90783139D01*
X116469420Y-90640281D01*
X116421801Y-90545043D01*
X116374182Y-90497424D01*
X115945611Y-89687900D02*
X115945611Y-90021234D01*
X116469420Y-90021234D02*
X115469420Y-90021234D01*
X115469420Y-89545043D01*
D13*
X114051851Y-92009853D02*
X114075660Y-92033662D01*
X114099470Y-92105091D01*
X114099470Y-92152710D01*
X114075660Y-92224139D01*
X114028041Y-92271758D01*
X113980422Y-92295567D01*
X113885184Y-92319377D01*
X113813756Y-92319377D01*
X113718518Y-92295567D01*
X113670899Y-92271758D01*
X113623280Y-92224139D01*
X113599470Y-92152710D01*
X113599470Y-92105091D01*
X113623280Y-92033662D01*
X113647089Y-92009853D01*
X113813756Y-91724139D02*
X113789946Y-91771758D01*
X113766137Y-91795567D01*
X113718518Y-91819377D01*
X113694708Y-91819377D01*
X113647089Y-91795567D01*
X113623280Y-91771758D01*
X113599470Y-91724139D01*
X113599470Y-91628900D01*
X113623280Y-91581281D01*
X113647089Y-91557472D01*
X113694708Y-91533662D01*
X113718518Y-91533662D01*
X113766137Y-91557472D01*
X113789946Y-91581281D01*
X113813756Y-91628900D01*
X113813756Y-91724139D01*
X113837565Y-91771758D01*
X113861375Y-91795567D01*
X113908994Y-91819377D01*
X114004232Y-91819377D01*
X114051851Y-91795567D01*
X114075660Y-91771758D01*
X114099470Y-91724139D01*
X114099470Y-91628900D01*
X114075660Y-91581281D01*
X114051851Y-91557472D01*
X114004232Y-91533662D01*
X113908994Y-91533662D01*
X113861375Y-91557472D01*
X113837565Y-91581281D01*
X113813756Y-91628900D01*
G04 #@! TO.C,C9*
D12*
X106412020Y-93003028D02*
X106412020Y-93574457D01*
X106412020Y-93288742D02*
X105412020Y-93288742D01*
X105554878Y-93383980D01*
X105650116Y-93479219D01*
X105697735Y-93574457D01*
X105412020Y-92383980D02*
X105412020Y-92288742D01*
X105459640Y-92193504D01*
X105507259Y-92145885D01*
X105602497Y-92098266D01*
X105792973Y-92050647D01*
X106031068Y-92050647D01*
X106221544Y-92098266D01*
X106316782Y-92145885D01*
X106364401Y-92193504D01*
X106412020Y-92288742D01*
X106412020Y-92383980D01*
X106364401Y-92479219D01*
X106316782Y-92526838D01*
X106221544Y-92574457D01*
X106031068Y-92622076D01*
X105792973Y-92622076D01*
X105602497Y-92574457D01*
X105507259Y-92526838D01*
X105459640Y-92479219D01*
X105412020Y-92383980D01*
X105745354Y-91193504D02*
X106412020Y-91193504D01*
X105745354Y-91622076D02*
X106269163Y-91622076D01*
X106364401Y-91574457D01*
X106412020Y-91479219D01*
X106412020Y-91336361D01*
X106364401Y-91241123D01*
X106316782Y-91193504D01*
X105888211Y-90383980D02*
X105888211Y-90717314D01*
X106412020Y-90717314D02*
X105412020Y-90717314D01*
X105412020Y-90241123D01*
D13*
X107788211Y-92014933D02*
X107812020Y-92038742D01*
X107835830Y-92110171D01*
X107835830Y-92157790D01*
X107812020Y-92229219D01*
X107764401Y-92276838D01*
X107716782Y-92300647D01*
X107621544Y-92324457D01*
X107550116Y-92324457D01*
X107454878Y-92300647D01*
X107407259Y-92276838D01*
X107359640Y-92229219D01*
X107335830Y-92157790D01*
X107335830Y-92110171D01*
X107359640Y-92038742D01*
X107383449Y-92014933D01*
X107835830Y-91776838D02*
X107835830Y-91681600D01*
X107812020Y-91633980D01*
X107788211Y-91610171D01*
X107716782Y-91562552D01*
X107621544Y-91538742D01*
X107431068Y-91538742D01*
X107383449Y-91562552D01*
X107359640Y-91586361D01*
X107335830Y-91633980D01*
X107335830Y-91729219D01*
X107359640Y-91776838D01*
X107383449Y-91800647D01*
X107431068Y-91824457D01*
X107550116Y-91824457D01*
X107597735Y-91800647D01*
X107621544Y-91776838D01*
X107645354Y-91729219D01*
X107645354Y-91633980D01*
X107621544Y-91586361D01*
X107597735Y-91562552D01*
X107550116Y-91538742D01*
G04 #@! TO.C,J2*
D12*
X117837366Y-115089980D02*
X117837366Y-114089980D01*
X118075461Y-114089980D01*
X118218319Y-114137600D01*
X118313557Y-114232838D01*
X118361176Y-114328076D01*
X118408795Y-114518552D01*
X118408795Y-114661409D01*
X118361176Y-114851885D01*
X118313557Y-114947123D01*
X118218319Y-115042361D01*
X118075461Y-115089980D01*
X117837366Y-115089980D01*
X119170700Y-114566171D02*
X119313557Y-114613790D01*
X119361176Y-114661409D01*
X119408795Y-114756647D01*
X119408795Y-114899504D01*
X119361176Y-114994742D01*
X119313557Y-115042361D01*
X119218319Y-115089980D01*
X118837366Y-115089980D01*
X118837366Y-114089980D01*
X119170700Y-114089980D01*
X119265938Y-114137600D01*
X119313557Y-114185219D01*
X119361176Y-114280457D01*
X119361176Y-114375695D01*
X119313557Y-114470933D01*
X119265938Y-114518552D01*
X119170700Y-114566171D01*
X118837366Y-114566171D01*
X119884985Y-115089980D02*
X120075461Y-115089980D01*
X120170700Y-115042361D01*
X120218319Y-114994742D01*
X120313557Y-114851885D01*
X120361176Y-114661409D01*
X120361176Y-114280457D01*
X120313557Y-114185219D01*
X120265938Y-114137600D01*
X120170700Y-114089980D01*
X119980223Y-114089980D01*
X119884985Y-114137600D01*
X119837366Y-114185219D01*
X119789747Y-114280457D01*
X119789747Y-114518552D01*
X119837366Y-114613790D01*
X119884985Y-114661409D01*
X119980223Y-114709028D01*
X120170700Y-114709028D01*
X120265938Y-114661409D01*
X120313557Y-114613790D01*
X120361176Y-114518552D01*
X120551652Y-115185219D02*
X121313557Y-115185219D01*
X121551652Y-115089980D02*
X121551652Y-114089980D01*
X121884985Y-114804266D01*
X122218319Y-114089980D01*
X122218319Y-115089980D01*
X123123080Y-115089980D02*
X123123080Y-114566171D01*
X123075461Y-114470933D01*
X122980223Y-114423314D01*
X122789747Y-114423314D01*
X122694509Y-114470933D01*
X123123080Y-115042361D02*
X123027842Y-115089980D01*
X122789747Y-115089980D01*
X122694509Y-115042361D01*
X122646890Y-114947123D01*
X122646890Y-114851885D01*
X122694509Y-114756647D01*
X122789747Y-114709028D01*
X123027842Y-114709028D01*
X123123080Y-114661409D01*
X123742128Y-115089980D02*
X123646890Y-115042361D01*
X123599271Y-114947123D01*
X123599271Y-114089980D01*
X124504033Y-115042361D02*
X124408795Y-115089980D01*
X124218319Y-115089980D01*
X124123080Y-115042361D01*
X124075461Y-114947123D01*
X124075461Y-114566171D01*
X124123080Y-114470933D01*
X124218319Y-114423314D01*
X124408795Y-114423314D01*
X124504033Y-114470933D01*
X124551652Y-114566171D01*
X124551652Y-114661409D01*
X124075461Y-114756647D01*
X120837366Y-100789980D02*
X120837366Y-101504266D01*
X120789747Y-101647123D01*
X120694509Y-101742361D01*
X120551652Y-101789980D01*
X120456414Y-101789980D01*
X121265938Y-100885219D02*
X121313557Y-100837600D01*
X121408795Y-100789980D01*
X121646890Y-100789980D01*
X121742128Y-100837600D01*
X121789747Y-100885219D01*
X121837366Y-100980457D01*
X121837366Y-101075695D01*
X121789747Y-101218552D01*
X121218319Y-101789980D01*
X121837366Y-101789980D01*
G04 #@! TO.C,R1*
X120044175Y-82075394D02*
X120044175Y-82742060D01*
X119806080Y-81694441D02*
X119567984Y-82408727D01*
X120187032Y-82408727D01*
X120472746Y-81742060D02*
X121139413Y-81742060D01*
X120710841Y-82742060D01*
X121710841Y-81742060D02*
X121806080Y-81742060D01*
X121901318Y-81789680D01*
X121948937Y-81837299D01*
X121996556Y-81932537D01*
X122044175Y-82123013D01*
X122044175Y-82361108D01*
X121996556Y-82551584D01*
X121948937Y-82646822D01*
X121901318Y-82694441D01*
X121806080Y-82742060D01*
X121710841Y-82742060D01*
X121615603Y-82694441D01*
X121567984Y-82646822D01*
X121520365Y-82551584D01*
X121472746Y-82361108D01*
X121472746Y-82123013D01*
X121520365Y-81932537D01*
X121567984Y-81837299D01*
X121615603Y-81789680D01*
X121710841Y-81742060D01*
D13*
X124146666Y-82536190D02*
X123980000Y-82298095D01*
X123860952Y-82536190D02*
X123860952Y-82036190D01*
X124051428Y-82036190D01*
X124099047Y-82060000D01*
X124122857Y-82083809D01*
X124146666Y-82131428D01*
X124146666Y-82202857D01*
X124122857Y-82250476D01*
X124099047Y-82274285D01*
X124051428Y-82298095D01*
X123860952Y-82298095D01*
X124622857Y-82536190D02*
X124337142Y-82536190D01*
X124480000Y-82536190D02*
X124480000Y-82036190D01*
X124432380Y-82107619D01*
X124384761Y-82155238D01*
X124337142Y-82179047D01*
G04 #@! TO.C,R2*
D12*
X125244100Y-62859940D02*
X125910767Y-62859940D01*
X125482196Y-63859940D01*
X126291720Y-63764702D02*
X126339339Y-63812321D01*
X126291720Y-63859940D01*
X126244100Y-63812321D01*
X126291720Y-63764702D01*
X126291720Y-63859940D01*
X127244100Y-62859940D02*
X126767910Y-62859940D01*
X126720291Y-63336131D01*
X126767910Y-63288512D01*
X126863148Y-63240893D01*
X127101243Y-63240893D01*
X127196481Y-63288512D01*
X127244100Y-63336131D01*
X127291720Y-63431369D01*
X127291720Y-63669464D01*
X127244100Y-63764702D01*
X127196481Y-63812321D01*
X127101243Y-63859940D01*
X126863148Y-63859940D01*
X126767910Y-63812321D01*
X126720291Y-63764702D01*
X127720291Y-63859940D02*
X127720291Y-62859940D01*
X128291720Y-63859940D02*
X127863148Y-63288512D01*
X128291720Y-62859940D02*
X127720291Y-63431369D01*
D13*
X126708386Y-61983750D02*
X126541720Y-61745655D01*
X126422672Y-61983750D02*
X126422672Y-61483750D01*
X126613148Y-61483750D01*
X126660767Y-61507560D01*
X126684577Y-61531369D01*
X126708386Y-61578988D01*
X126708386Y-61650417D01*
X126684577Y-61698036D01*
X126660767Y-61721845D01*
X126613148Y-61745655D01*
X126422672Y-61745655D01*
X126898862Y-61531369D02*
X126922672Y-61507560D01*
X126970291Y-61483750D01*
X127089339Y-61483750D01*
X127136958Y-61507560D01*
X127160767Y-61531369D01*
X127184577Y-61578988D01*
X127184577Y-61626607D01*
X127160767Y-61698036D01*
X126875053Y-61983750D01*
X127184577Y-61983750D01*
G04 #@! TO.C,R4*
D12*
X113273579Y-81993434D02*
X113225960Y-81945815D01*
X113178340Y-81850577D01*
X113178340Y-81612481D01*
X113225960Y-81517243D01*
X113273579Y-81469624D01*
X113368817Y-81422005D01*
X113464055Y-81422005D01*
X113606912Y-81469624D01*
X114178340Y-82041053D01*
X114178340Y-81422005D01*
X114178340Y-80993434D02*
X113178340Y-80993434D01*
X114178340Y-80422005D02*
X113606912Y-80850577D01*
X113178340Y-80422005D02*
X113749769Y-80993434D01*
D13*
X113957230Y-84354293D02*
X113719135Y-84520960D01*
X113957230Y-84640007D02*
X113457230Y-84640007D01*
X113457230Y-84449531D01*
X113481040Y-84401912D01*
X113504849Y-84378102D01*
X113552468Y-84354293D01*
X113623897Y-84354293D01*
X113671516Y-84378102D01*
X113695325Y-84401912D01*
X113719135Y-84449531D01*
X113719135Y-84640007D01*
X113623897Y-83925721D02*
X113957230Y-83925721D01*
X113433420Y-84044769D02*
X113790563Y-84163817D01*
X113790563Y-83854293D01*
G04 #@! TO.C,SW1*
D12*
X103571361Y-68793598D02*
X103618980Y-68650740D01*
X103618980Y-68412645D01*
X103571361Y-68317407D01*
X103523742Y-68269788D01*
X103428504Y-68222169D01*
X103333266Y-68222169D01*
X103238028Y-68269788D01*
X103190409Y-68317407D01*
X103142790Y-68412645D01*
X103095171Y-68603121D01*
X103047552Y-68698360D01*
X102999933Y-68745979D01*
X102904695Y-68793598D01*
X102809457Y-68793598D01*
X102714219Y-68745979D01*
X102666600Y-68698360D01*
X102618980Y-68603121D01*
X102618980Y-68365026D01*
X102666600Y-68222169D01*
X102618980Y-67888836D02*
X103618980Y-67650740D01*
X102904695Y-67460264D01*
X103618980Y-67269788D01*
X102618980Y-67031693D01*
X103714219Y-66888836D02*
X103714219Y-66126931D01*
X103571361Y-65936455D02*
X103618980Y-65793598D01*
X103618980Y-65555502D01*
X103571361Y-65460264D01*
X103523742Y-65412645D01*
X103428504Y-65365026D01*
X103333266Y-65365026D01*
X103238028Y-65412645D01*
X103190409Y-65460264D01*
X103142790Y-65555502D01*
X103095171Y-65745979D01*
X103047552Y-65841217D01*
X102999933Y-65888836D01*
X102904695Y-65936455D01*
X102809457Y-65936455D01*
X102714219Y-65888836D01*
X102666600Y-65841217D01*
X102618980Y-65745979D01*
X102618980Y-65507883D01*
X102666600Y-65365026D01*
X103618980Y-64936455D02*
X102618980Y-64936455D01*
X102618980Y-64555502D01*
X102666600Y-64460264D01*
X102714219Y-64412645D01*
X102809457Y-64365026D01*
X102952314Y-64365026D01*
X103047552Y-64412645D01*
X103095171Y-64460264D01*
X103142790Y-64555502D01*
X103142790Y-64936455D01*
X103618980Y-63936455D02*
X102618980Y-63936455D01*
X102618980Y-63698360D01*
X102666600Y-63555502D01*
X102761838Y-63460264D01*
X102857076Y-63412645D01*
X103047552Y-63365026D01*
X103190409Y-63365026D01*
X103380885Y-63412645D01*
X103476123Y-63460264D01*
X103571361Y-63555502D01*
X103618980Y-63698360D01*
X103618980Y-63936455D01*
X102618980Y-63079312D02*
X102618980Y-62507883D01*
X103618980Y-62793598D02*
X102618980Y-62793598D01*
X111021361Y-67031693D02*
X111068980Y-66888836D01*
X111068980Y-66650740D01*
X111021361Y-66555502D01*
X110973742Y-66507883D01*
X110878504Y-66460264D01*
X110783266Y-66460264D01*
X110688028Y-66507883D01*
X110640409Y-66555502D01*
X110592790Y-66650740D01*
X110545171Y-66841217D01*
X110497552Y-66936455D01*
X110449933Y-66984074D01*
X110354695Y-67031693D01*
X110259457Y-67031693D01*
X110164219Y-66984074D01*
X110116600Y-66936455D01*
X110068980Y-66841217D01*
X110068980Y-66603121D01*
X110116600Y-66460264D01*
X110068980Y-66126931D02*
X111068980Y-65888836D01*
X110354695Y-65698360D01*
X111068980Y-65507883D01*
X110068980Y-65269788D01*
X111068980Y-64365026D02*
X111068980Y-64936455D01*
X111068980Y-64650740D02*
X110068980Y-64650740D01*
X110211838Y-64745979D01*
X110307076Y-64841217D01*
X110354695Y-64936455D01*
G04 #@! TO.C,U1*
X115313557Y-57471100D02*
X115313557Y-56471100D01*
X115313557Y-56947291D02*
X115884985Y-56947291D01*
X115884985Y-57471100D02*
X115884985Y-56471100D01*
X116932604Y-57375862D02*
X116884985Y-57423481D01*
X116742128Y-57471100D01*
X116646890Y-57471100D01*
X116504033Y-57423481D01*
X116408795Y-57328243D01*
X116361176Y-57233005D01*
X116313557Y-57042529D01*
X116313557Y-56899672D01*
X116361176Y-56709196D01*
X116408795Y-56613958D01*
X116504033Y-56518720D01*
X116646890Y-56471100D01*
X116742128Y-56471100D01*
X116884985Y-56518720D01*
X116932604Y-56566339D01*
X117361176Y-57090148D02*
X118123080Y-57090148D01*
X118789747Y-56471100D02*
X118884985Y-56471100D01*
X118980223Y-56518720D01*
X119027842Y-56566339D01*
X119075461Y-56661577D01*
X119123080Y-56852053D01*
X119123080Y-57090148D01*
X119075461Y-57280624D01*
X119027842Y-57375862D01*
X118980223Y-57423481D01*
X118884985Y-57471100D01*
X118789747Y-57471100D01*
X118694509Y-57423481D01*
X118646890Y-57375862D01*
X118599271Y-57280624D01*
X118551652Y-57090148D01*
X118551652Y-56852053D01*
X118599271Y-56661577D01*
X118646890Y-56566339D01*
X118694509Y-56518720D01*
X118789747Y-56471100D01*
X119504033Y-56566339D02*
X119551652Y-56518720D01*
X119646890Y-56471100D01*
X119884985Y-56471100D01*
X119980223Y-56518720D01*
X120027842Y-56566339D01*
X120075461Y-56661577D01*
X120075461Y-56756815D01*
X120027842Y-56899672D01*
X119456414Y-57471100D01*
X120075461Y-57471100D01*
G04 #@! TO.C,U2*
X107839180Y-81705106D02*
X107839180Y-82181297D01*
X106839180Y-82181297D01*
X107839180Y-81371773D02*
X106839180Y-81371773D01*
X107839180Y-80800344D01*
X106839180Y-80800344D01*
X107839180Y-79800344D02*
X107839180Y-80371773D01*
X107839180Y-80086059D02*
X106839180Y-80086059D01*
X106982038Y-80181297D01*
X107077276Y-80276535D01*
X107124895Y-80371773D01*
X107839180Y-78847963D02*
X107839180Y-79419392D01*
X107839180Y-79133678D02*
X106839180Y-79133678D01*
X106982038Y-79228916D01*
X107077276Y-79324154D01*
X107124895Y-79419392D01*
X106839180Y-78514630D02*
X106839180Y-77895582D01*
X107220133Y-78228916D01*
X107220133Y-78086059D01*
X107267752Y-77990820D01*
X107315371Y-77943201D01*
X107410609Y-77895582D01*
X107648704Y-77895582D01*
X107743942Y-77943201D01*
X107791561Y-77990820D01*
X107839180Y-78086059D01*
X107839180Y-78371773D01*
X107791561Y-78467011D01*
X107743942Y-78514630D01*
X107172514Y-77038440D02*
X107839180Y-77038440D01*
X106791561Y-77276535D02*
X107505847Y-77514630D01*
X107505847Y-76895582D01*
X107553466Y-76562249D02*
X107553466Y-76086059D01*
X107839180Y-76657487D02*
X106839180Y-76324154D01*
X107839180Y-75990820D01*
X106839180Y-75752725D02*
X106839180Y-75133678D01*
X107220133Y-75467011D01*
X107220133Y-75324154D01*
X107267752Y-75228916D01*
X107315371Y-75181297D01*
X107410609Y-75133678D01*
X107648704Y-75133678D01*
X107743942Y-75181297D01*
X107791561Y-75228916D01*
X107839180Y-75324154D01*
X107839180Y-75609868D01*
X107791561Y-75705106D01*
X107743942Y-75752725D01*
X106839180Y-74800344D02*
X106839180Y-74181297D01*
X107220133Y-74514630D01*
X107220133Y-74371773D01*
X107267752Y-74276535D01*
X107315371Y-74228916D01*
X107410609Y-74181297D01*
X107648704Y-74181297D01*
X107743942Y-74228916D01*
X107791561Y-74276535D01*
X107839180Y-74371773D01*
X107839180Y-74657487D01*
X107791561Y-74752725D01*
X107743942Y-74800344D01*
X106934419Y-73800344D02*
X106886800Y-73752725D01*
X106839180Y-73657487D01*
X106839180Y-73419392D01*
X106886800Y-73324154D01*
X106934419Y-73276535D01*
X107029657Y-73228916D01*
X107124895Y-73228916D01*
X107267752Y-73276535D01*
X107839180Y-73847963D01*
X107839180Y-73228916D01*
X107839180Y-72800344D02*
X106839180Y-72800344D01*
X107553466Y-72467011D01*
X106839180Y-72133678D01*
X107839180Y-72133678D01*
X107839180Y-71086059D02*
X107362990Y-71419392D01*
X107839180Y-71657487D02*
X106839180Y-71657487D01*
X106839180Y-71276535D01*
X106886800Y-71181297D01*
X106934419Y-71133678D01*
X107029657Y-71086059D01*
X107172514Y-71086059D01*
X107267752Y-71133678D01*
X107315371Y-71181297D01*
X107362990Y-71276535D01*
X107362990Y-71657487D01*
X107458228Y-70657487D02*
X107458228Y-69895582D01*
X106886800Y-68895582D02*
X106839180Y-68990820D01*
X106839180Y-69133678D01*
X106886800Y-69276535D01*
X106982038Y-69371773D01*
X107077276Y-69419392D01*
X107267752Y-69467011D01*
X107410609Y-69467011D01*
X107601085Y-69419392D01*
X107696323Y-69371773D01*
X107791561Y-69276535D01*
X107839180Y-69133678D01*
X107839180Y-69038440D01*
X107791561Y-68895582D01*
X107743942Y-68847963D01*
X107410609Y-68847963D01*
X107410609Y-69038440D01*
D14*
X109905847Y-75264630D02*
X109905847Y-75669392D01*
X109929657Y-75717011D01*
X109953466Y-75740820D01*
X110001085Y-75764630D01*
X110096323Y-75764630D01*
X110143942Y-75740820D01*
X110167752Y-75717011D01*
X110191561Y-75669392D01*
X110191561Y-75264630D01*
X110405847Y-75312249D02*
X110429657Y-75288440D01*
X110477276Y-75264630D01*
X110596323Y-75264630D01*
X110643942Y-75288440D01*
X110667752Y-75312249D01*
X110691561Y-75359868D01*
X110691561Y-75407487D01*
X110667752Y-75478916D01*
X110382038Y-75764630D01*
X110691561Y-75764630D01*
G04 #@! TO.C,U3*
D12*
X124115512Y-67044201D02*
X124258369Y-67091820D01*
X124496464Y-67091820D01*
X124591702Y-67044201D01*
X124639321Y-66996582D01*
X124686940Y-66901344D01*
X124686940Y-66806106D01*
X124639321Y-66710868D01*
X124591702Y-66663249D01*
X124496464Y-66615630D01*
X124305988Y-66568011D01*
X124210750Y-66520392D01*
X124163131Y-66472773D01*
X124115512Y-66377535D01*
X124115512Y-66282297D01*
X124163131Y-66187059D01*
X124210750Y-66139440D01*
X124305988Y-66091820D01*
X124544083Y-66091820D01*
X124686940Y-66139440D01*
X125115512Y-67091820D02*
X125115512Y-66091820D01*
X125496464Y-66091820D01*
X125591702Y-66139440D01*
X125639321Y-66187059D01*
X125686940Y-66282297D01*
X125686940Y-66425154D01*
X125639321Y-66520392D01*
X125591702Y-66568011D01*
X125496464Y-66615630D01*
X125115512Y-66615630D01*
X126020274Y-66091820D02*
X126639321Y-66091820D01*
X126305988Y-66472773D01*
X126448845Y-66472773D01*
X126544083Y-66520392D01*
X126591702Y-66568011D01*
X126639321Y-66663249D01*
X126639321Y-66901344D01*
X126591702Y-66996582D01*
X126544083Y-67044201D01*
X126448845Y-67091820D01*
X126163131Y-67091820D01*
X126067893Y-67044201D01*
X126020274Y-66996582D01*
X127020274Y-66187059D02*
X127067893Y-66139440D01*
X127163131Y-66091820D01*
X127401226Y-66091820D01*
X127496464Y-66139440D01*
X127544083Y-66187059D01*
X127591702Y-66282297D01*
X127591702Y-66377535D01*
X127544083Y-66520392D01*
X126972655Y-67091820D01*
X127591702Y-67091820D01*
X127925036Y-66091820D02*
X128544083Y-66091820D01*
X128210750Y-66472773D01*
X128353607Y-66472773D01*
X128448845Y-66520392D01*
X128496464Y-66568011D01*
X128544083Y-66663249D01*
X128544083Y-66901344D01*
X128496464Y-66996582D01*
X128448845Y-67044201D01*
X128353607Y-67091820D01*
X128067893Y-67091820D01*
X127972655Y-67044201D01*
X127925036Y-66996582D01*
X128925036Y-66187059D02*
X128972655Y-66139440D01*
X129067893Y-66091820D01*
X129305988Y-66091820D01*
X129401226Y-66139440D01*
X129448845Y-66187059D01*
X129496464Y-66282297D01*
X129496464Y-66377535D01*
X129448845Y-66520392D01*
X128877417Y-67091820D01*
X129496464Y-67091820D01*
X129925036Y-66568011D02*
X130258369Y-66568011D01*
X130401226Y-67091820D02*
X129925036Y-67091820D01*
X129925036Y-66091820D01*
X130401226Y-66091820D01*
X130829798Y-66568011D02*
X131163131Y-66568011D01*
X131305988Y-67091820D02*
X130829798Y-67091820D01*
X130829798Y-66091820D01*
X131305988Y-66091820D01*
X131734560Y-67091820D02*
X131734560Y-66091820D01*
X132305988Y-67091820D01*
X132305988Y-66091820D01*
D15*
X124419382Y-73761514D02*
X125147954Y-73761514D01*
X125233668Y-73718657D01*
X125276525Y-73675800D01*
X125319382Y-73590085D01*
X125319382Y-73418657D01*
X125276525Y-73332942D01*
X125233668Y-73290085D01*
X125147954Y-73247228D01*
X124419382Y-73247228D01*
X124419382Y-72904371D02*
X124419382Y-72347228D01*
X124762240Y-72647228D01*
X124762240Y-72518657D01*
X124805097Y-72432942D01*
X124847954Y-72390085D01*
X124933668Y-72347228D01*
X125147954Y-72347228D01*
X125233668Y-72390085D01*
X125276525Y-72432942D01*
X125319382Y-72518657D01*
X125319382Y-72775800D01*
X125276525Y-72861514D01*
X125233668Y-72904371D01*
G04 #@! TO.C,U4*
D12*
X110769660Y-88645289D02*
X110769660Y-89121480D01*
X109769660Y-89121480D01*
X110769660Y-88311956D02*
X109769660Y-88311956D01*
X109769660Y-87931003D01*
X109817280Y-87835765D01*
X109864899Y-87788146D01*
X109960137Y-87740527D01*
X110102994Y-87740527D01*
X110198232Y-87788146D01*
X110245851Y-87835765D01*
X110293470Y-87931003D01*
X110293470Y-88311956D01*
X110102994Y-86883384D02*
X110769660Y-86883384D01*
X109722041Y-87121480D02*
X110436327Y-87359575D01*
X110436327Y-86740527D01*
X109769660Y-86169099D02*
X109769660Y-86073860D01*
X109817280Y-85978622D01*
X109864899Y-85931003D01*
X109960137Y-85883384D01*
X110150613Y-85835765D01*
X110388708Y-85835765D01*
X110579184Y-85883384D01*
X110674422Y-85931003D01*
X110722041Y-85978622D01*
X110769660Y-86073860D01*
X110769660Y-86169099D01*
X110722041Y-86264337D01*
X110674422Y-86311956D01*
X110579184Y-86359575D01*
X110388708Y-86407194D01*
X110150613Y-86407194D01*
X109960137Y-86359575D01*
X109864899Y-86311956D01*
X109817280Y-86264337D01*
X109769660Y-86169099D01*
X109769660Y-84931003D02*
X109769660Y-85407194D01*
X110245851Y-85454813D01*
X110198232Y-85407194D01*
X110150613Y-85311956D01*
X110150613Y-85073860D01*
X110198232Y-84978622D01*
X110245851Y-84931003D01*
X110341089Y-84883384D01*
X110579184Y-84883384D01*
X110674422Y-84931003D01*
X110722041Y-84978622D01*
X110769660Y-85073860D01*
X110769660Y-85311956D01*
X110722041Y-85407194D01*
X110674422Y-85454813D01*
X110102994Y-84026241D02*
X110769660Y-84026241D01*
X109722041Y-84264337D02*
X110436327Y-84502432D01*
X110436327Y-83883384D01*
X110769660Y-83502432D02*
X109769660Y-83502432D01*
X110245851Y-83502432D02*
X110245851Y-82931003D01*
X110769660Y-82931003D02*
X109769660Y-82931003D01*
X110245851Y-82121480D02*
X110293470Y-81978622D01*
X110341089Y-81931003D01*
X110436327Y-81883384D01*
X110579184Y-81883384D01*
X110674422Y-81931003D01*
X110722041Y-81978622D01*
X110769660Y-82073860D01*
X110769660Y-82454813D01*
X109769660Y-82454813D01*
X109769660Y-82121480D01*
X109817280Y-82026241D01*
X109864899Y-81978622D01*
X109960137Y-81931003D01*
X110055375Y-81931003D01*
X110150613Y-81978622D01*
X110198232Y-82026241D01*
X110245851Y-82121480D01*
X110245851Y-82454813D01*
X109769660Y-80978622D02*
X109769660Y-81454813D01*
X110245851Y-81502432D01*
X110198232Y-81454813D01*
X110150613Y-81359575D01*
X110150613Y-81121480D01*
X110198232Y-81026241D01*
X110245851Y-80978622D01*
X110341089Y-80931003D01*
X110579184Y-80931003D01*
X110674422Y-80978622D01*
X110722041Y-81026241D01*
X110769660Y-81121480D01*
X110769660Y-81359575D01*
X110722041Y-81454813D01*
X110674422Y-81502432D01*
X110245851Y-80169099D02*
X110245851Y-80502432D01*
X110769660Y-80502432D02*
X109769660Y-80502432D01*
X109769660Y-80026241D01*
D14*
X110414310Y-88441592D02*
X110819072Y-88441592D01*
X110866691Y-88417782D01*
X110890500Y-88393973D01*
X110914310Y-88346354D01*
X110914310Y-88251116D01*
X110890500Y-88203497D01*
X110866691Y-88179687D01*
X110819072Y-88155878D01*
X110414310Y-88155878D01*
X110580977Y-87703497D02*
X110914310Y-87703497D01*
X110390500Y-87822544D02*
X110747643Y-87941592D01*
X110747643Y-87632068D01*
G04 #@! TO.C,D2*
D12*
X126272380Y-92819047D02*
X126272380Y-93295238D01*
X125272380Y-93295238D01*
X125748571Y-92485714D02*
X125748571Y-92152380D01*
X126272380Y-92009523D02*
X126272380Y-92485714D01*
X125272380Y-92485714D01*
X125272380Y-92009523D01*
X126272380Y-91580952D02*
X125272380Y-91580952D01*
X125272380Y-91342857D01*
X125320000Y-91200000D01*
X125415238Y-91104761D01*
X125510476Y-91057142D01*
X125700952Y-91009523D01*
X125843809Y-91009523D01*
X126034285Y-91057142D01*
X126129523Y-91104761D01*
X126224761Y-91200000D01*
X126272380Y-91342857D01*
X126272380Y-91580952D01*
X126367619Y-90819047D02*
X126367619Y-90057142D01*
X126272380Y-89819047D02*
X125272380Y-89819047D01*
X125272380Y-89580952D01*
X125320000Y-89438095D01*
X125415238Y-89342857D01*
X125510476Y-89295238D01*
X125700952Y-89247619D01*
X125843809Y-89247619D01*
X126034285Y-89295238D01*
X126129523Y-89342857D01*
X126224761Y-89438095D01*
X126272380Y-89580952D01*
X126272380Y-89819047D01*
X125272380Y-88819047D02*
X126081904Y-88819047D01*
X126177142Y-88771428D01*
X126224761Y-88723809D01*
X126272380Y-88628571D01*
X126272380Y-88438095D01*
X126224761Y-88342857D01*
X126177142Y-88295238D01*
X126081904Y-88247619D01*
X125272380Y-88247619D01*
X125986666Y-87819047D02*
X125986666Y-87342857D01*
X126272380Y-87914285D02*
X125272380Y-87580952D01*
X126272380Y-87247619D01*
X126272380Y-86438095D02*
X126272380Y-86914285D01*
X125272380Y-86914285D01*
X126367619Y-86342857D02*
X126367619Y-85580952D01*
X125986666Y-85390476D02*
X125986666Y-84914285D01*
X126272380Y-85485714D02*
X125272380Y-85152380D01*
X126272380Y-84819047D01*
X126177142Y-83914285D02*
X126224761Y-83961904D01*
X126272380Y-84104761D01*
X126272380Y-84200000D01*
X126224761Y-84342857D01*
X126129523Y-84438095D01*
X126034285Y-84485714D01*
X125843809Y-84533333D01*
X125700952Y-84533333D01*
X125510476Y-84485714D01*
X125415238Y-84438095D01*
X125320000Y-84342857D01*
X125272380Y-84200000D01*
X125272380Y-84104761D01*
X125320000Y-83961904D01*
X125367619Y-83914285D01*
X126177142Y-82914285D02*
X126224761Y-82961904D01*
X126272380Y-83104761D01*
X126272380Y-83200000D01*
X126224761Y-83342857D01*
X126129523Y-83438095D01*
X126034285Y-83485714D01*
X125843809Y-83533333D01*
X125700952Y-83533333D01*
X125510476Y-83485714D01*
X125415238Y-83438095D01*
X125320000Y-83342857D01*
X125272380Y-83200000D01*
X125272380Y-83104761D01*
X125320000Y-82961904D01*
X125367619Y-82914285D01*
X125986666Y-82533333D02*
X125986666Y-82057142D01*
X126272380Y-82628571D02*
X125272380Y-82295238D01*
X126272380Y-81961904D01*
G04 #@! TO.C,R5*
X118390715Y-95166903D02*
X119057381Y-95166903D01*
X118009762Y-95404999D02*
X118724048Y-95643094D01*
X118724048Y-95024046D01*
X118057381Y-94738332D02*
X118057381Y-94071665D01*
X119057381Y-94500237D01*
X118057381Y-93500237D02*
X118057381Y-93404999D01*
X118105001Y-93309760D01*
X118152620Y-93262141D01*
X118247858Y-93214522D01*
X118438334Y-93166903D01*
X118676429Y-93166903D01*
X118866905Y-93214522D01*
X118962143Y-93262141D01*
X119009762Y-93309760D01*
X119057381Y-93404999D01*
X119057381Y-93500237D01*
X119009762Y-93595475D01*
X118962143Y-93643094D01*
X118866905Y-93690713D01*
X118676429Y-93738332D01*
X118438334Y-93738332D01*
X118247858Y-93690713D01*
X118152620Y-93643094D01*
X118105001Y-93595475D01*
X118057381Y-93500237D01*
D13*
X118826190Y-91083333D02*
X118588095Y-91250000D01*
X118826190Y-91369047D02*
X118326190Y-91369047D01*
X118326190Y-91178571D01*
X118350000Y-91130952D01*
X118373809Y-91107142D01*
X118421428Y-91083333D01*
X118492857Y-91083333D01*
X118540476Y-91107142D01*
X118564285Y-91130952D01*
X118588095Y-91178571D01*
X118588095Y-91369047D01*
X118326190Y-90630952D02*
X118326190Y-90869047D01*
X118564285Y-90892857D01*
X118540476Y-90869047D01*
X118516666Y-90821428D01*
X118516666Y-90702380D01*
X118540476Y-90654761D01*
X118564285Y-90630952D01*
X118611904Y-90607142D01*
X118730952Y-90607142D01*
X118778571Y-90630952D01*
X118802380Y-90654761D01*
X118826190Y-90702380D01*
X118826190Y-90821428D01*
X118802380Y-90869047D01*
X118778571Y-90892857D01*
G04 #@! TO.C,R6*
D12*
X119513094Y-81280713D02*
X119513094Y-81947379D01*
X119274999Y-80899760D02*
X119036903Y-81614046D01*
X119655951Y-81614046D01*
X119941665Y-80947379D02*
X120608332Y-80947379D01*
X120179760Y-81947379D01*
X121179760Y-80947379D02*
X121274999Y-80947379D01*
X121370237Y-80994999D01*
X121417856Y-81042618D01*
X121465475Y-81137856D01*
X121513094Y-81328332D01*
X121513094Y-81566427D01*
X121465475Y-81756903D01*
X121417856Y-81852141D01*
X121370237Y-81899760D01*
X121274999Y-81947379D01*
X121179760Y-81947379D01*
X121084522Y-81899760D01*
X121036903Y-81852141D01*
X120989284Y-81756903D01*
X120941665Y-81566427D01*
X120941665Y-81328332D01*
X120989284Y-81137856D01*
X121036903Y-81042618D01*
X121084522Y-80994999D01*
X121179760Y-80947379D01*
D13*
X116726666Y-81626190D02*
X116560000Y-81388095D01*
X116440952Y-81626190D02*
X116440952Y-81126190D01*
X116631428Y-81126190D01*
X116679047Y-81150000D01*
X116702857Y-81173809D01*
X116726666Y-81221428D01*
X116726666Y-81292857D01*
X116702857Y-81340476D01*
X116679047Y-81364285D01*
X116631428Y-81388095D01*
X116440952Y-81388095D01*
X117155238Y-81126190D02*
X117060000Y-81126190D01*
X117012380Y-81150000D01*
X116988571Y-81173809D01*
X116940952Y-81245238D01*
X116917142Y-81340476D01*
X116917142Y-81530952D01*
X116940952Y-81578571D01*
X116964761Y-81602380D01*
X117012380Y-81626190D01*
X117107619Y-81626190D01*
X117155238Y-81602380D01*
X117179047Y-81578571D01*
X117202857Y-81530952D01*
X117202857Y-81411904D01*
X117179047Y-81364285D01*
X117155238Y-81340476D01*
X117107619Y-81316666D01*
X117012380Y-81316666D01*
X116964761Y-81340476D01*
X116940952Y-81364285D01*
X116917142Y-81411904D01*
G04 #@! TO.C,REF\002A\002A*
D12*
X100709523Y-101152380D02*
X100709523Y-100152380D01*
X101042857Y-100866666D01*
X101376190Y-100152380D01*
X101376190Y-101152380D01*
X101995238Y-101152380D02*
X101900000Y-101104761D01*
X101852380Y-101057142D01*
X101804761Y-100961904D01*
X101804761Y-100676190D01*
X101852380Y-100580952D01*
X101900000Y-100533333D01*
X101995238Y-100485714D01*
X102138095Y-100485714D01*
X102233333Y-100533333D01*
X102280952Y-100580952D01*
X102328571Y-100676190D01*
X102328571Y-100961904D01*
X102280952Y-101057142D01*
X102233333Y-101104761D01*
X102138095Y-101152380D01*
X101995238Y-101152380D01*
X103185714Y-100485714D02*
X103185714Y-101152380D01*
X102757142Y-100485714D02*
X102757142Y-101009523D01*
X102804761Y-101104761D01*
X102900000Y-101152380D01*
X103042857Y-101152380D01*
X103138095Y-101104761D01*
X103185714Y-101057142D01*
X103661904Y-100485714D02*
X103661904Y-101152380D01*
X103661904Y-100580952D02*
X103709523Y-100533333D01*
X103804761Y-100485714D01*
X103947619Y-100485714D01*
X104042857Y-100533333D01*
X104090476Y-100628571D01*
X104090476Y-101152380D01*
X104423809Y-100485714D02*
X104804761Y-100485714D01*
X104566666Y-100152380D02*
X104566666Y-101009523D01*
X104614285Y-101104761D01*
X104709523Y-101152380D01*
X104804761Y-101152380D01*
X105138095Y-101152380D02*
X105138095Y-100485714D01*
X105138095Y-100152380D02*
X105090476Y-100200000D01*
X105138095Y-100247619D01*
X105185714Y-100200000D01*
X105138095Y-100152380D01*
X105138095Y-100247619D01*
X105614285Y-100485714D02*
X105614285Y-101152380D01*
X105614285Y-100580952D02*
X105661904Y-100533333D01*
X105757142Y-100485714D01*
X105900000Y-100485714D01*
X105995238Y-100533333D01*
X106042857Y-100628571D01*
X106042857Y-101152380D01*
X106947619Y-100485714D02*
X106947619Y-101295238D01*
X106900000Y-101390476D01*
X106852380Y-101438095D01*
X106757142Y-101485714D01*
X106614285Y-101485714D01*
X106519047Y-101438095D01*
X106947619Y-101104761D02*
X106852380Y-101152380D01*
X106661904Y-101152380D01*
X106566666Y-101104761D01*
X106519047Y-101057142D01*
X106471428Y-100961904D01*
X106471428Y-100676190D01*
X106519047Y-100580952D01*
X106566666Y-100533333D01*
X106661904Y-100485714D01*
X106852380Y-100485714D01*
X106947619Y-100533333D01*
X107423809Y-101152380D02*
X107423809Y-100152380D01*
X107423809Y-100628571D02*
X107995238Y-100628571D01*
X107995238Y-101152380D02*
X107995238Y-100152380D01*
X108614285Y-101152380D02*
X108519047Y-101104761D01*
X108471428Y-101057142D01*
X108423809Y-100961904D01*
X108423809Y-100676190D01*
X108471428Y-100580952D01*
X108519047Y-100533333D01*
X108614285Y-100485714D01*
X108757142Y-100485714D01*
X108852380Y-100533333D01*
X108900000Y-100580952D01*
X108947619Y-100676190D01*
X108947619Y-100961904D01*
X108900000Y-101057142D01*
X108852380Y-101104761D01*
X108757142Y-101152380D01*
X108614285Y-101152380D01*
X109519047Y-101152380D02*
X109423809Y-101104761D01*
X109376190Y-101009523D01*
X109376190Y-100152380D01*
X110280952Y-101104761D02*
X110185714Y-101152380D01*
X109995238Y-101152380D01*
X109900000Y-101104761D01*
X109852380Y-101009523D01*
X109852380Y-100628571D01*
X109900000Y-100533333D01*
X109995238Y-100485714D01*
X110185714Y-100485714D01*
X110280952Y-100533333D01*
X110328571Y-100628571D01*
X110328571Y-100723809D01*
X109852380Y-100819047D01*
X110519047Y-101247619D02*
X111280952Y-101247619D01*
X111471428Y-100247619D02*
X111519047Y-100200000D01*
X111614285Y-100152380D01*
X111852380Y-100152380D01*
X111947619Y-100200000D01*
X111995238Y-100247619D01*
X112042857Y-100342857D01*
X112042857Y-100438095D01*
X111995238Y-100580952D01*
X111423809Y-101152380D01*
X112042857Y-101152380D01*
X112471428Y-101057142D02*
X112519047Y-101104761D01*
X112471428Y-101152380D01*
X112423809Y-101104761D01*
X112471428Y-101057142D01*
X112471428Y-101152380D01*
X112852380Y-100152380D02*
X113519047Y-100152380D01*
X113090476Y-101152380D01*
X113899999Y-101152380D02*
X113899999Y-100485714D01*
X113899999Y-100580952D02*
X113947619Y-100533333D01*
X114042857Y-100485714D01*
X114185714Y-100485714D01*
X114280952Y-100533333D01*
X114328571Y-100628571D01*
X114328571Y-101152380D01*
X114328571Y-100628571D02*
X114376190Y-100533333D01*
X114471428Y-100485714D01*
X114614285Y-100485714D01*
X114709523Y-100533333D01*
X114757142Y-100628571D01*
X114757142Y-101152380D01*
X115233333Y-101152380D02*
X115233333Y-100485714D01*
X115233333Y-100580952D02*
X115280952Y-100533333D01*
X115376190Y-100485714D01*
X115519047Y-100485714D01*
X115614285Y-100533333D01*
X115661904Y-100628571D01*
X115661904Y-101152380D01*
X115661904Y-100628571D02*
X115709523Y-100533333D01*
X115804761Y-100485714D01*
X115947619Y-100485714D01*
X116042857Y-100533333D01*
X116090476Y-100628571D01*
X116090476Y-101152380D01*
X107366666Y-97452380D02*
X107033333Y-96976190D01*
X106795238Y-97452380D02*
X106795238Y-96452380D01*
X107176190Y-96452380D01*
X107271428Y-96500000D01*
X107319047Y-96547619D01*
X107366666Y-96642857D01*
X107366666Y-96785714D01*
X107319047Y-96880952D01*
X107271428Y-96928571D01*
X107176190Y-96976190D01*
X106795238Y-96976190D01*
X107795238Y-96928571D02*
X108128571Y-96928571D01*
X108271428Y-97452380D02*
X107795238Y-97452380D01*
X107795238Y-96452380D01*
X108271428Y-96452380D01*
X109033333Y-96928571D02*
X108700000Y-96928571D01*
X108700000Y-97452380D02*
X108700000Y-96452380D01*
X109176190Y-96452380D01*
X109700000Y-96452380D02*
X109700000Y-96690476D01*
X109461904Y-96595238D02*
X109700000Y-96690476D01*
X109938095Y-96595238D01*
X109557142Y-96880952D02*
X109700000Y-96690476D01*
X109842857Y-96880952D01*
X110461904Y-96452380D02*
X110461904Y-96690476D01*
X110223809Y-96595238D02*
X110461904Y-96690476D01*
X110700000Y-96595238D01*
X110319047Y-96880952D02*
X110461904Y-96690476D01*
X110604761Y-96880952D01*
G04 #@! TD*
M02*
