G04 #@! TF.FileFunction,Soldermask,Bot*
%FSLAX46Y46*%
G04 Gerber Fmt 4.6, Leading zero omitted, Abs format (unit mm)*
G04 Created by KiCad (PCBNEW 4.0.4+e1-6308~48~ubuntu16.04.1-stable) date Fri Mar 30 16:09:55 2018*
%MOMM*%
%LPD*%
G01*
G04 APERTURE LIST*
%ADD10C,0.100000*%
%ADD11C,1.924000*%
%ADD12R,1.924000X1.924000*%
%ADD13R,2.400000X2.400000*%
%ADD14C,2.400000*%
%ADD15R,2.200000X2.200000*%
%ADD16C,2.200000*%
%ADD17R,2.000000X2.000000*%
%ADD18C,2.000000*%
%ADD19O,2.000000X2.000000*%
%ADD20R,2.100000X2.100000*%
%ADD21O,2.100000X2.100000*%
%ADD22R,1.600000X2.100000*%
%ADD23O,1.600000X2.100000*%
G04 APERTURE END LIST*
D10*
D11*
X58420000Y-46990000D03*
D12*
X55880000Y-46990000D03*
D11*
X58420000Y-49530000D03*
X55880000Y-49530000D03*
X58420000Y-87630000D03*
X55880000Y-87630000D03*
X58420000Y-85090000D03*
D12*
X55880000Y-85090000D03*
D11*
X58420000Y-82550000D03*
X55880000Y-82550000D03*
X58420000Y-80010000D03*
X55880000Y-80010000D03*
X58420000Y-77470000D03*
X55880000Y-77470000D03*
X58420000Y-74930000D03*
X55880000Y-74930000D03*
X58420000Y-72390000D03*
D12*
X55880000Y-72390000D03*
D11*
X58420000Y-69850000D03*
X55880000Y-69850000D03*
X58420000Y-67310000D03*
X55880000Y-67310000D03*
X58420000Y-64770000D03*
X55880000Y-64770000D03*
X58420000Y-62230000D03*
X55880000Y-62230000D03*
X58420000Y-59690000D03*
D12*
X55880000Y-59690000D03*
D11*
X58420000Y-57150000D03*
X55880000Y-57150000D03*
X58420000Y-54610000D03*
X55880000Y-54610000D03*
X58420000Y-52070000D03*
X55880000Y-52070000D03*
X91440000Y-52070000D03*
X93980000Y-52070000D03*
X91440000Y-54610000D03*
X93980000Y-54610000D03*
X91440000Y-57150000D03*
X93980000Y-57150000D03*
D12*
X91440000Y-59690000D03*
D11*
X93980000Y-59690000D03*
X91440000Y-62230000D03*
X93980000Y-62230000D03*
X91440000Y-64770000D03*
X93980000Y-64770000D03*
X91440000Y-67310000D03*
X93980000Y-67310000D03*
X91440000Y-69850000D03*
X93980000Y-69850000D03*
D12*
X91440000Y-72390000D03*
D11*
X93980000Y-72390000D03*
X91440000Y-74930000D03*
X93980000Y-74930000D03*
X91440000Y-77470000D03*
X93980000Y-77470000D03*
X91440000Y-80010000D03*
X93980000Y-80010000D03*
X91440000Y-82550000D03*
X93980000Y-82550000D03*
D12*
X91440000Y-85090000D03*
D11*
X93980000Y-85090000D03*
X91440000Y-87630000D03*
X93980000Y-87630000D03*
X91440000Y-49530000D03*
X93980000Y-49530000D03*
D12*
X91440000Y-46990000D03*
D11*
X93980000Y-46990000D03*
D13*
X74676000Y-54610000D03*
D14*
X77216000Y-54610000D03*
D15*
X84582000Y-49530000D03*
D16*
X84582000Y-46990000D03*
D17*
X88392000Y-69850000D03*
D18*
X85852000Y-69850000D03*
X83312000Y-69850000D03*
X80772000Y-69850000D03*
X78232000Y-69850000D03*
X75692000Y-69850000D03*
X73152000Y-69850000D03*
X77724000Y-46990000D03*
D19*
X70104000Y-46990000D03*
D20*
X64008000Y-46990000D03*
D21*
X61468000Y-46990000D03*
D20*
X88900000Y-49530000D03*
D21*
X88900000Y-52070000D03*
D20*
X88900000Y-54610000D03*
X61722000Y-52070000D03*
D21*
X64262000Y-52070000D03*
X66802000Y-52070000D03*
X69342000Y-52070000D03*
D22*
X73914000Y-64516000D03*
D23*
X75914000Y-64516000D03*
X77914000Y-64516000D03*
X79914000Y-64516000D03*
X81914000Y-64516000D03*
M02*
