G04 #@! TF.FileFunction,Copper,L1,Top,Signal*
%FSLAX46Y46*%
G04 Gerber Fmt 4.6, Leading zero omitted, Abs format (unit mm)*
G04 Created by KiCad (PCBNEW 4.0.4+e1-6308~48~ubuntu16.04.1-stable) date Fri Mar 30 16:09:55 2018*
%MOMM*%
%LPD*%
G01*
G04 APERTURE LIST*
%ADD10C,0.100000*%
%ADD11C,1.524000*%
%ADD12R,1.524000X1.524000*%
%ADD13R,2.000000X2.000000*%
%ADD14C,2.000000*%
%ADD15R,1.800000X1.800000*%
%ADD16C,1.800000*%
%ADD17R,1.600000X1.600000*%
%ADD18C,1.600000*%
%ADD19O,1.600000X1.600000*%
%ADD20R,1.700000X1.700000*%
%ADD21O,1.700000X1.700000*%
%ADD22R,1.200000X1.700000*%
%ADD23O,1.200000X1.700000*%
%ADD24C,0.250000*%
%ADD25C,0.400000*%
%ADD26C,0.254000*%
G04 APERTURE END LIST*
D10*
D11*
X58420000Y-46990000D03*
D12*
X55880000Y-46990000D03*
D11*
X58420000Y-49530000D03*
X55880000Y-49530000D03*
X58420000Y-87630000D03*
X55880000Y-87630000D03*
X58420000Y-85090000D03*
D12*
X55880000Y-85090000D03*
D11*
X58420000Y-82550000D03*
X55880000Y-82550000D03*
X58420000Y-80010000D03*
X55880000Y-80010000D03*
X58420000Y-77470000D03*
X55880000Y-77470000D03*
X58420000Y-74930000D03*
X55880000Y-74930000D03*
X58420000Y-72390000D03*
D12*
X55880000Y-72390000D03*
D11*
X58420000Y-69850000D03*
X55880000Y-69850000D03*
X58420000Y-67310000D03*
X55880000Y-67310000D03*
X58420000Y-64770000D03*
X55880000Y-64770000D03*
X58420000Y-62230000D03*
X55880000Y-62230000D03*
X58420000Y-59690000D03*
D12*
X55880000Y-59690000D03*
D11*
X58420000Y-57150000D03*
X55880000Y-57150000D03*
X58420000Y-54610000D03*
X55880000Y-54610000D03*
X58420000Y-52070000D03*
X55880000Y-52070000D03*
X91440000Y-52070000D03*
X93980000Y-52070000D03*
X91440000Y-54610000D03*
X93980000Y-54610000D03*
X91440000Y-57150000D03*
X93980000Y-57150000D03*
D12*
X91440000Y-59690000D03*
D11*
X93980000Y-59690000D03*
X91440000Y-62230000D03*
X93980000Y-62230000D03*
X91440000Y-64770000D03*
X93980000Y-64770000D03*
X91440000Y-67310000D03*
X93980000Y-67310000D03*
X91440000Y-69850000D03*
X93980000Y-69850000D03*
D12*
X91440000Y-72390000D03*
D11*
X93980000Y-72390000D03*
X91440000Y-74930000D03*
X93980000Y-74930000D03*
X91440000Y-77470000D03*
X93980000Y-77470000D03*
X91440000Y-80010000D03*
X93980000Y-80010000D03*
X91440000Y-82550000D03*
X93980000Y-82550000D03*
D12*
X91440000Y-85090000D03*
D11*
X93980000Y-85090000D03*
X91440000Y-87630000D03*
X93980000Y-87630000D03*
X91440000Y-49530000D03*
X93980000Y-49530000D03*
D12*
X91440000Y-46990000D03*
D11*
X93980000Y-46990000D03*
D13*
X74676000Y-54610000D03*
D14*
X77216000Y-54610000D03*
D15*
X84582000Y-49530000D03*
D16*
X84582000Y-46990000D03*
D17*
X88392000Y-69850000D03*
D18*
X85852000Y-69850000D03*
X83312000Y-69850000D03*
X80772000Y-69850000D03*
X78232000Y-69850000D03*
X75692000Y-69850000D03*
X73152000Y-69850000D03*
X77724000Y-46990000D03*
D19*
X70104000Y-46990000D03*
D20*
X64008000Y-46990000D03*
D21*
X61468000Y-46990000D03*
D20*
X88900000Y-49530000D03*
D21*
X88900000Y-52070000D03*
D20*
X88900000Y-54610000D03*
X61722000Y-52070000D03*
D21*
X64262000Y-52070000D03*
X66802000Y-52070000D03*
X69342000Y-52070000D03*
D22*
X73914000Y-64516000D03*
D23*
X75914000Y-64516000D03*
X77914000Y-64516000D03*
X79914000Y-64516000D03*
X81914000Y-64516000D03*
D24*
X77216000Y-54610000D02*
X77216000Y-53848000D01*
D25*
X77216000Y-53848000D02*
X76200000Y-52832000D01*
X63246000Y-53594000D02*
X61722000Y-52070000D01*
X71628000Y-53594000D02*
X63246000Y-53594000D01*
X72390000Y-52832000D02*
X71628000Y-53594000D01*
X76200000Y-52832000D02*
X72390000Y-52832000D01*
D24*
X77724000Y-46990000D02*
X84582000Y-46990000D01*
X93980000Y-87630000D02*
X93980000Y-87376000D01*
X93980000Y-87376000D02*
X92964000Y-86360000D01*
X92964000Y-86360000D02*
X83820000Y-86360000D01*
X83820000Y-86360000D02*
X83312000Y-85852000D01*
X83312000Y-85852000D02*
X83312000Y-69850000D01*
X93980000Y-87630000D02*
X93980000Y-87376000D01*
X75914000Y-64516000D02*
X75914000Y-64992000D01*
X75914000Y-64992000D02*
X78232000Y-67310000D01*
X55880000Y-67310000D02*
X57150000Y-68580000D01*
X57150000Y-68580000D02*
X62484000Y-68580000D01*
X62484000Y-68580000D02*
X63754000Y-67310000D01*
X63754000Y-67310000D02*
X78232000Y-67310000D01*
X78232000Y-67310000D02*
X80772000Y-69850000D01*
X58420000Y-69850000D02*
X62484000Y-69850000D01*
X76454000Y-68072000D02*
X78232000Y-69850000D01*
X65024000Y-68072000D02*
X76454000Y-68072000D01*
X62484000Y-69850000D02*
X65024000Y-68072000D01*
X91440000Y-87630000D02*
X82296000Y-87630000D01*
X82296000Y-87630000D02*
X75692000Y-81026000D01*
X75692000Y-81026000D02*
X75692000Y-69850000D01*
X55880000Y-52070000D02*
X57150000Y-50800000D01*
X57150000Y-50800000D02*
X59944000Y-50800000D01*
X59944000Y-50800000D02*
X60198000Y-50546000D01*
X60198000Y-50546000D02*
X62738000Y-50546000D01*
X82042000Y-64644000D02*
X81914000Y-64516000D01*
X62738000Y-50546000D02*
X64262000Y-52070000D01*
X64262000Y-52070000D02*
X64262000Y-51308000D01*
X64262000Y-51308000D02*
X68580000Y-46990000D01*
X68580000Y-46990000D02*
X70104000Y-46990000D01*
X61468000Y-46990000D02*
X60960000Y-46990000D01*
X60960000Y-46990000D02*
X59436000Y-48260000D01*
X59436000Y-48260000D02*
X54610000Y-48260000D01*
X54610000Y-48260000D02*
X54610000Y-48514000D01*
X54610000Y-48514000D02*
X54610000Y-55372000D01*
X54610000Y-55372000D02*
X55118000Y-55880000D01*
X55118000Y-55880000D02*
X57150000Y-55880000D01*
X57150000Y-55880000D02*
X58420000Y-57150000D01*
D25*
X58420000Y-54610000D02*
X74676000Y-54610000D01*
D24*
X91440000Y-52070000D02*
X88900000Y-52070000D01*
X91440000Y-54610000D02*
X88900000Y-54610000D01*
X91440000Y-49530000D02*
X88900000Y-49530000D01*
X69342000Y-52070000D02*
X79248000Y-52070000D01*
X79248000Y-52070000D02*
X80264000Y-53086000D01*
X80264000Y-53086000D02*
X80264000Y-57404000D01*
X80264000Y-57404000D02*
X87122000Y-64262000D01*
X87122000Y-64262000D02*
X87122000Y-76200000D01*
X87122000Y-76200000D02*
X88392000Y-77470000D01*
X88392000Y-77470000D02*
X91440000Y-77470000D01*
X93980000Y-77470000D02*
X92710000Y-76200000D01*
X92710000Y-76200000D02*
X90678000Y-76200000D01*
X90678000Y-76200000D02*
X89916000Y-75438000D01*
X89916000Y-75438000D02*
X89916000Y-64262000D01*
X89916000Y-64262000D02*
X81788000Y-56134000D01*
X81788000Y-56134000D02*
X81788000Y-53086000D01*
X81788000Y-53086000D02*
X78740000Y-50038000D01*
X78740000Y-50038000D02*
X68834000Y-50038000D01*
X68834000Y-50038000D02*
X66802000Y-52070000D01*
D26*
G36*
X81028000Y-53400802D02*
X81028000Y-56134000D01*
X81085852Y-56424839D01*
X81250599Y-56671401D01*
X89156000Y-64576802D01*
X89156000Y-68415000D01*
X88677750Y-68415000D01*
X88519000Y-68573750D01*
X88519000Y-69723000D01*
X88539000Y-69723000D01*
X88539000Y-69977000D01*
X88519000Y-69977000D01*
X88519000Y-71126250D01*
X88677750Y-71285000D01*
X89156000Y-71285000D01*
X89156000Y-75438000D01*
X89213852Y-75728839D01*
X89378599Y-75975401D01*
X90113198Y-76710000D01*
X88706802Y-76710000D01*
X87882000Y-75885198D01*
X87882000Y-71285000D01*
X88106250Y-71285000D01*
X88265000Y-71126250D01*
X88265000Y-69977000D01*
X88245000Y-69977000D01*
X88245000Y-69723000D01*
X88265000Y-69723000D01*
X88265000Y-68573750D01*
X88106250Y-68415000D01*
X87882000Y-68415000D01*
X87882000Y-64262000D01*
X87824148Y-63971161D01*
X87659401Y-63724599D01*
X81024000Y-57089198D01*
X81024000Y-53396802D01*
X81028000Y-53400802D01*
X81028000Y-53400802D01*
G37*
X81028000Y-53400802D02*
X81028000Y-56134000D01*
X81085852Y-56424839D01*
X81250599Y-56671401D01*
X89156000Y-64576802D01*
X89156000Y-68415000D01*
X88677750Y-68415000D01*
X88519000Y-68573750D01*
X88519000Y-69723000D01*
X88539000Y-69723000D01*
X88539000Y-69977000D01*
X88519000Y-69977000D01*
X88519000Y-71126250D01*
X88677750Y-71285000D01*
X89156000Y-71285000D01*
X89156000Y-75438000D01*
X89213852Y-75728839D01*
X89378599Y-75975401D01*
X90113198Y-76710000D01*
X88706802Y-76710000D01*
X87882000Y-75885198D01*
X87882000Y-71285000D01*
X88106250Y-71285000D01*
X88265000Y-71126250D01*
X88265000Y-69977000D01*
X88245000Y-69977000D01*
X88245000Y-69723000D01*
X88265000Y-69723000D01*
X88265000Y-68573750D01*
X88106250Y-68415000D01*
X87882000Y-68415000D01*
X87882000Y-64262000D01*
X87824148Y-63971161D01*
X87659401Y-63724599D01*
X81024000Y-57089198D01*
X81024000Y-53396802D01*
X81028000Y-53400802D01*
G36*
X60237000Y-51784250D02*
X60395750Y-51943000D01*
X61595000Y-51943000D01*
X61595000Y-51923000D01*
X61849000Y-51923000D01*
X61849000Y-51943000D01*
X61869000Y-51943000D01*
X61869000Y-52197000D01*
X61849000Y-52197000D01*
X61849000Y-53396250D01*
X62007750Y-53555000D01*
X62698310Y-53555000D01*
X62931699Y-53458327D01*
X63110327Y-53279698D01*
X63182597Y-53105223D01*
X63211946Y-53149147D01*
X63693715Y-53471054D01*
X64262000Y-53584093D01*
X64830285Y-53471054D01*
X65312054Y-53149147D01*
X65532000Y-52819974D01*
X65751946Y-53149147D01*
X66233715Y-53471054D01*
X66802000Y-53584093D01*
X67370285Y-53471054D01*
X67852054Y-53149147D01*
X68072000Y-52819974D01*
X68291946Y-53149147D01*
X68773715Y-53471054D01*
X69342000Y-53584093D01*
X69910285Y-53471054D01*
X70392054Y-53149147D01*
X70605301Y-52830000D01*
X78933198Y-52830000D01*
X79504000Y-53400802D01*
X79504000Y-57404000D01*
X79561852Y-57694839D01*
X79726599Y-57941401D01*
X86362000Y-64576802D01*
X86362000Y-68507976D01*
X86138691Y-68415250D01*
X85567813Y-68414752D01*
X85040200Y-68632757D01*
X84636176Y-69036077D01*
X84582138Y-69166215D01*
X84529243Y-69038200D01*
X84125923Y-68634176D01*
X83598691Y-68415250D01*
X83027813Y-68414752D01*
X82500200Y-68632757D01*
X82096176Y-69036077D01*
X82042138Y-69166215D01*
X81989243Y-69038200D01*
X81585923Y-68634176D01*
X81058691Y-68415250D01*
X80487813Y-68414752D01*
X80433851Y-68437049D01*
X78008164Y-66011362D01*
X78386614Y-65936084D01*
X78787277Y-65668370D01*
X78916410Y-65475109D01*
X79084875Y-65697933D01*
X79504624Y-65944286D01*
X79596391Y-65959462D01*
X79787000Y-65834731D01*
X79787000Y-64643000D01*
X79767000Y-64643000D01*
X79767000Y-64389000D01*
X79787000Y-64389000D01*
X79787000Y-63197269D01*
X80041000Y-63197269D01*
X80041000Y-64389000D01*
X80061000Y-64389000D01*
X80061000Y-64643000D01*
X80041000Y-64643000D01*
X80041000Y-65834731D01*
X80231609Y-65959462D01*
X80323376Y-65944286D01*
X80743125Y-65697933D01*
X80911590Y-65475109D01*
X81040723Y-65668370D01*
X81441386Y-65936084D01*
X81914000Y-66030093D01*
X82386614Y-65936084D01*
X82787277Y-65668370D01*
X83054991Y-65267707D01*
X83149000Y-64795093D01*
X83149000Y-64236907D01*
X83054991Y-63764293D01*
X82787277Y-63363630D01*
X82386614Y-63095916D01*
X81914000Y-63001907D01*
X81441386Y-63095916D01*
X81040723Y-63363630D01*
X80911590Y-63556891D01*
X80743125Y-63334067D01*
X80323376Y-63087714D01*
X80231609Y-63072538D01*
X80041000Y-63197269D01*
X79787000Y-63197269D01*
X79596391Y-63072538D01*
X79504624Y-63087714D01*
X79084875Y-63334067D01*
X78916410Y-63556891D01*
X78787277Y-63363630D01*
X78386614Y-63095916D01*
X77914000Y-63001907D01*
X77441386Y-63095916D01*
X77040723Y-63363630D01*
X76914000Y-63553285D01*
X76787277Y-63363630D01*
X76386614Y-63095916D01*
X75914000Y-63001907D01*
X75441386Y-63095916D01*
X75064004Y-63348074D01*
X74978090Y-63214559D01*
X74765890Y-63069569D01*
X74514000Y-63018560D01*
X73314000Y-63018560D01*
X73078683Y-63062838D01*
X72862559Y-63201910D01*
X72717569Y-63414110D01*
X72666560Y-63666000D01*
X72666560Y-65366000D01*
X72710838Y-65601317D01*
X72849910Y-65817441D01*
X73062110Y-65962431D01*
X73314000Y-66013440D01*
X74514000Y-66013440D01*
X74749317Y-65969162D01*
X74965441Y-65830090D01*
X75064901Y-65684525D01*
X75441386Y-65936084D01*
X75868176Y-66020978D01*
X76397198Y-66550000D01*
X63754000Y-66550000D01*
X63463160Y-66607852D01*
X63216599Y-66772599D01*
X62169198Y-67820000D01*
X59720879Y-67820000D01*
X59816757Y-67589100D01*
X59817242Y-67033339D01*
X59605010Y-66519697D01*
X59212370Y-66126371D01*
X59004488Y-66040051D01*
X59210303Y-65955010D01*
X59603629Y-65562370D01*
X59816757Y-65049100D01*
X59817242Y-64493339D01*
X59605010Y-63979697D01*
X59212370Y-63586371D01*
X59004488Y-63500051D01*
X59210303Y-63415010D01*
X59603629Y-63022370D01*
X59816757Y-62509100D01*
X59817242Y-61953339D01*
X59605010Y-61439697D01*
X59212370Y-61046371D01*
X59004488Y-60960051D01*
X59210303Y-60875010D01*
X59603629Y-60482370D01*
X59816757Y-59969100D01*
X59817242Y-59413339D01*
X59605010Y-58899697D01*
X59212370Y-58506371D01*
X59004488Y-58420051D01*
X59210303Y-58335010D01*
X59603629Y-57942370D01*
X59816757Y-57429100D01*
X59817242Y-56873339D01*
X59605010Y-56359697D01*
X59212370Y-55966371D01*
X59004488Y-55880051D01*
X59210303Y-55795010D01*
X59560925Y-55445000D01*
X73028560Y-55445000D01*
X73028560Y-55610000D01*
X73072838Y-55845317D01*
X73211910Y-56061441D01*
X73424110Y-56206431D01*
X73676000Y-56257440D01*
X75676000Y-56257440D01*
X75911317Y-56213162D01*
X76127441Y-56074090D01*
X76272431Y-55861890D01*
X76275042Y-55848998D01*
X76341736Y-56029387D01*
X76951461Y-56255908D01*
X77601460Y-56231856D01*
X78090264Y-56029387D01*
X78188927Y-55762532D01*
X77216000Y-54789605D01*
X77201858Y-54803748D01*
X77022253Y-54624143D01*
X77036395Y-54610000D01*
X77395605Y-54610000D01*
X78368532Y-55582927D01*
X78635387Y-55484264D01*
X78861908Y-54874539D01*
X78837856Y-54224540D01*
X78635387Y-53735736D01*
X78368532Y-53637073D01*
X77395605Y-54610000D01*
X77036395Y-54610000D01*
X77022253Y-54595858D01*
X77201858Y-54416253D01*
X77216000Y-54430395D01*
X78188927Y-53457468D01*
X78090264Y-53190613D01*
X77480539Y-52964092D01*
X76830540Y-52988144D01*
X76341736Y-53190613D01*
X76275681Y-53369273D01*
X76140090Y-53158559D01*
X75927890Y-53013569D01*
X75676000Y-52962560D01*
X73676000Y-52962560D01*
X73440683Y-53006838D01*
X73224559Y-53145910D01*
X73079569Y-53358110D01*
X73028560Y-53610000D01*
X73028560Y-53775000D01*
X59560391Y-53775000D01*
X59212370Y-53426371D01*
X59004488Y-53340051D01*
X59210303Y-53255010D01*
X59603629Y-52862370D01*
X59813995Y-52355750D01*
X60237000Y-52355750D01*
X60237000Y-53046309D01*
X60333673Y-53279698D01*
X60512301Y-53458327D01*
X60745690Y-53555000D01*
X61436250Y-53555000D01*
X61595000Y-53396250D01*
X61595000Y-52197000D01*
X60395750Y-52197000D01*
X60237000Y-52355750D01*
X59813995Y-52355750D01*
X59816757Y-52349100D01*
X59817242Y-51793339D01*
X59720829Y-51560000D01*
X59944000Y-51560000D01*
X60234839Y-51502148D01*
X60237000Y-51500704D01*
X60237000Y-51784250D01*
X60237000Y-51784250D01*
G37*
X60237000Y-51784250D02*
X60395750Y-51943000D01*
X61595000Y-51943000D01*
X61595000Y-51923000D01*
X61849000Y-51923000D01*
X61849000Y-51943000D01*
X61869000Y-51943000D01*
X61869000Y-52197000D01*
X61849000Y-52197000D01*
X61849000Y-53396250D01*
X62007750Y-53555000D01*
X62698310Y-53555000D01*
X62931699Y-53458327D01*
X63110327Y-53279698D01*
X63182597Y-53105223D01*
X63211946Y-53149147D01*
X63693715Y-53471054D01*
X64262000Y-53584093D01*
X64830285Y-53471054D01*
X65312054Y-53149147D01*
X65532000Y-52819974D01*
X65751946Y-53149147D01*
X66233715Y-53471054D01*
X66802000Y-53584093D01*
X67370285Y-53471054D01*
X67852054Y-53149147D01*
X68072000Y-52819974D01*
X68291946Y-53149147D01*
X68773715Y-53471054D01*
X69342000Y-53584093D01*
X69910285Y-53471054D01*
X70392054Y-53149147D01*
X70605301Y-52830000D01*
X78933198Y-52830000D01*
X79504000Y-53400802D01*
X79504000Y-57404000D01*
X79561852Y-57694839D01*
X79726599Y-57941401D01*
X86362000Y-64576802D01*
X86362000Y-68507976D01*
X86138691Y-68415250D01*
X85567813Y-68414752D01*
X85040200Y-68632757D01*
X84636176Y-69036077D01*
X84582138Y-69166215D01*
X84529243Y-69038200D01*
X84125923Y-68634176D01*
X83598691Y-68415250D01*
X83027813Y-68414752D01*
X82500200Y-68632757D01*
X82096176Y-69036077D01*
X82042138Y-69166215D01*
X81989243Y-69038200D01*
X81585923Y-68634176D01*
X81058691Y-68415250D01*
X80487813Y-68414752D01*
X80433851Y-68437049D01*
X78008164Y-66011362D01*
X78386614Y-65936084D01*
X78787277Y-65668370D01*
X78916410Y-65475109D01*
X79084875Y-65697933D01*
X79504624Y-65944286D01*
X79596391Y-65959462D01*
X79787000Y-65834731D01*
X79787000Y-64643000D01*
X79767000Y-64643000D01*
X79767000Y-64389000D01*
X79787000Y-64389000D01*
X79787000Y-63197269D01*
X80041000Y-63197269D01*
X80041000Y-64389000D01*
X80061000Y-64389000D01*
X80061000Y-64643000D01*
X80041000Y-64643000D01*
X80041000Y-65834731D01*
X80231609Y-65959462D01*
X80323376Y-65944286D01*
X80743125Y-65697933D01*
X80911590Y-65475109D01*
X81040723Y-65668370D01*
X81441386Y-65936084D01*
X81914000Y-66030093D01*
X82386614Y-65936084D01*
X82787277Y-65668370D01*
X83054991Y-65267707D01*
X83149000Y-64795093D01*
X83149000Y-64236907D01*
X83054991Y-63764293D01*
X82787277Y-63363630D01*
X82386614Y-63095916D01*
X81914000Y-63001907D01*
X81441386Y-63095916D01*
X81040723Y-63363630D01*
X80911590Y-63556891D01*
X80743125Y-63334067D01*
X80323376Y-63087714D01*
X80231609Y-63072538D01*
X80041000Y-63197269D01*
X79787000Y-63197269D01*
X79596391Y-63072538D01*
X79504624Y-63087714D01*
X79084875Y-63334067D01*
X78916410Y-63556891D01*
X78787277Y-63363630D01*
X78386614Y-63095916D01*
X77914000Y-63001907D01*
X77441386Y-63095916D01*
X77040723Y-63363630D01*
X76914000Y-63553285D01*
X76787277Y-63363630D01*
X76386614Y-63095916D01*
X75914000Y-63001907D01*
X75441386Y-63095916D01*
X75064004Y-63348074D01*
X74978090Y-63214559D01*
X74765890Y-63069569D01*
X74514000Y-63018560D01*
X73314000Y-63018560D01*
X73078683Y-63062838D01*
X72862559Y-63201910D01*
X72717569Y-63414110D01*
X72666560Y-63666000D01*
X72666560Y-65366000D01*
X72710838Y-65601317D01*
X72849910Y-65817441D01*
X73062110Y-65962431D01*
X73314000Y-66013440D01*
X74514000Y-66013440D01*
X74749317Y-65969162D01*
X74965441Y-65830090D01*
X75064901Y-65684525D01*
X75441386Y-65936084D01*
X75868176Y-66020978D01*
X76397198Y-66550000D01*
X63754000Y-66550000D01*
X63463160Y-66607852D01*
X63216599Y-66772599D01*
X62169198Y-67820000D01*
X59720879Y-67820000D01*
X59816757Y-67589100D01*
X59817242Y-67033339D01*
X59605010Y-66519697D01*
X59212370Y-66126371D01*
X59004488Y-66040051D01*
X59210303Y-65955010D01*
X59603629Y-65562370D01*
X59816757Y-65049100D01*
X59817242Y-64493339D01*
X59605010Y-63979697D01*
X59212370Y-63586371D01*
X59004488Y-63500051D01*
X59210303Y-63415010D01*
X59603629Y-63022370D01*
X59816757Y-62509100D01*
X59817242Y-61953339D01*
X59605010Y-61439697D01*
X59212370Y-61046371D01*
X59004488Y-60960051D01*
X59210303Y-60875010D01*
X59603629Y-60482370D01*
X59816757Y-59969100D01*
X59817242Y-59413339D01*
X59605010Y-58899697D01*
X59212370Y-58506371D01*
X59004488Y-58420051D01*
X59210303Y-58335010D01*
X59603629Y-57942370D01*
X59816757Y-57429100D01*
X59817242Y-56873339D01*
X59605010Y-56359697D01*
X59212370Y-55966371D01*
X59004488Y-55880051D01*
X59210303Y-55795010D01*
X59560925Y-55445000D01*
X73028560Y-55445000D01*
X73028560Y-55610000D01*
X73072838Y-55845317D01*
X73211910Y-56061441D01*
X73424110Y-56206431D01*
X73676000Y-56257440D01*
X75676000Y-56257440D01*
X75911317Y-56213162D01*
X76127441Y-56074090D01*
X76272431Y-55861890D01*
X76275042Y-55848998D01*
X76341736Y-56029387D01*
X76951461Y-56255908D01*
X77601460Y-56231856D01*
X78090264Y-56029387D01*
X78188927Y-55762532D01*
X77216000Y-54789605D01*
X77201858Y-54803748D01*
X77022253Y-54624143D01*
X77036395Y-54610000D01*
X77395605Y-54610000D01*
X78368532Y-55582927D01*
X78635387Y-55484264D01*
X78861908Y-54874539D01*
X78837856Y-54224540D01*
X78635387Y-53735736D01*
X78368532Y-53637073D01*
X77395605Y-54610000D01*
X77036395Y-54610000D01*
X77022253Y-54595858D01*
X77201858Y-54416253D01*
X77216000Y-54430395D01*
X78188927Y-53457468D01*
X78090264Y-53190613D01*
X77480539Y-52964092D01*
X76830540Y-52988144D01*
X76341736Y-53190613D01*
X76275681Y-53369273D01*
X76140090Y-53158559D01*
X75927890Y-53013569D01*
X75676000Y-52962560D01*
X73676000Y-52962560D01*
X73440683Y-53006838D01*
X73224559Y-53145910D01*
X73079569Y-53358110D01*
X73028560Y-53610000D01*
X73028560Y-53775000D01*
X59560391Y-53775000D01*
X59212370Y-53426371D01*
X59004488Y-53340051D01*
X59210303Y-53255010D01*
X59603629Y-52862370D01*
X59813995Y-52355750D01*
X60237000Y-52355750D01*
X60237000Y-53046309D01*
X60333673Y-53279698D01*
X60512301Y-53458327D01*
X60745690Y-53555000D01*
X61436250Y-53555000D01*
X61595000Y-53396250D01*
X61595000Y-52197000D01*
X60395750Y-52197000D01*
X60237000Y-52355750D01*
X59813995Y-52355750D01*
X59816757Y-52349100D01*
X59817242Y-51793339D01*
X59720829Y-51560000D01*
X59944000Y-51560000D01*
X60234839Y-51502148D01*
X60237000Y-51500704D01*
X60237000Y-51784250D01*
G36*
X69061189Y-45975302D02*
X68891005Y-46230000D01*
X68580000Y-46230000D01*
X68289161Y-46287852D01*
X68042599Y-46452599D01*
X63881000Y-50614198D01*
X63275401Y-50008599D01*
X63028839Y-49843852D01*
X62738000Y-49786000D01*
X60198000Y-49786000D01*
X59907160Y-49843852D01*
X59762072Y-49940797D01*
X59816757Y-49809100D01*
X59817242Y-49253339D01*
X59699197Y-48967646D01*
X59726839Y-48962148D01*
X59822005Y-48898560D01*
X59922540Y-48843848D01*
X60658945Y-48230177D01*
X60899715Y-48391054D01*
X61468000Y-48504093D01*
X62036285Y-48391054D01*
X62518054Y-48069147D01*
X62547403Y-48025223D01*
X62619673Y-48199698D01*
X62798301Y-48378327D01*
X63031690Y-48475000D01*
X63722250Y-48475000D01*
X63881000Y-48316250D01*
X63881000Y-47117000D01*
X64135000Y-47117000D01*
X64135000Y-48316250D01*
X64293750Y-48475000D01*
X64984310Y-48475000D01*
X65217699Y-48378327D01*
X65396327Y-48199698D01*
X65493000Y-47966309D01*
X65493000Y-47275750D01*
X65334250Y-47117000D01*
X64135000Y-47117000D01*
X63881000Y-47117000D01*
X63861000Y-47117000D01*
X63861000Y-46863000D01*
X63881000Y-46863000D01*
X63881000Y-46843000D01*
X64135000Y-46843000D01*
X64135000Y-46863000D01*
X65334250Y-46863000D01*
X65493000Y-46704250D01*
X65493000Y-46013691D01*
X65455020Y-45922000D01*
X69140961Y-45922000D01*
X69061189Y-45975302D01*
X69061189Y-45975302D01*
G37*
X69061189Y-45975302D02*
X68891005Y-46230000D01*
X68580000Y-46230000D01*
X68289161Y-46287852D01*
X68042599Y-46452599D01*
X63881000Y-50614198D01*
X63275401Y-50008599D01*
X63028839Y-49843852D01*
X62738000Y-49786000D01*
X60198000Y-49786000D01*
X59907160Y-49843852D01*
X59762072Y-49940797D01*
X59816757Y-49809100D01*
X59817242Y-49253339D01*
X59699197Y-48967646D01*
X59726839Y-48962148D01*
X59822005Y-48898560D01*
X59922540Y-48843848D01*
X60658945Y-48230177D01*
X60899715Y-48391054D01*
X61468000Y-48504093D01*
X62036285Y-48391054D01*
X62518054Y-48069147D01*
X62547403Y-48025223D01*
X62619673Y-48199698D01*
X62798301Y-48378327D01*
X63031690Y-48475000D01*
X63722250Y-48475000D01*
X63881000Y-48316250D01*
X63881000Y-47117000D01*
X64135000Y-47117000D01*
X64135000Y-48316250D01*
X64293750Y-48475000D01*
X64984310Y-48475000D01*
X65217699Y-48378327D01*
X65396327Y-48199698D01*
X65493000Y-47966309D01*
X65493000Y-47275750D01*
X65334250Y-47117000D01*
X64135000Y-47117000D01*
X63881000Y-47117000D01*
X63861000Y-47117000D01*
X63861000Y-46863000D01*
X63881000Y-46863000D01*
X63881000Y-46843000D01*
X64135000Y-46843000D01*
X64135000Y-46863000D01*
X65334250Y-46863000D01*
X65493000Y-46704250D01*
X65493000Y-46013691D01*
X65455020Y-45922000D01*
X69140961Y-45922000D01*
X69061189Y-45975302D01*
G36*
X56007000Y-46863000D02*
X56027000Y-46863000D01*
X56027000Y-47117000D01*
X56007000Y-47117000D01*
X56007000Y-47137000D01*
X55753000Y-47137000D01*
X55753000Y-47117000D01*
X55733000Y-47117000D01*
X55733000Y-46863000D01*
X55753000Y-46863000D01*
X55753000Y-46843000D01*
X56007000Y-46843000D01*
X56007000Y-46863000D01*
X56007000Y-46863000D01*
G37*
X56007000Y-46863000D02*
X56027000Y-46863000D01*
X56027000Y-47117000D01*
X56007000Y-47117000D01*
X56007000Y-47137000D01*
X55753000Y-47137000D01*
X55753000Y-47117000D01*
X55733000Y-47117000D01*
X55733000Y-46863000D01*
X55753000Y-46863000D01*
X55753000Y-46843000D01*
X56007000Y-46843000D01*
X56007000Y-46863000D01*
M02*
