M48
METRIC,TZ
T1C0.750
%
G90
G05
T1
X55880Y-46990
X55880Y-49530
X55880Y-52070
X55880Y-54610
X55880Y-57150
X55880Y-59690
X55880Y-62230
X55880Y-64770
X55880Y-67310
X55880Y-69850
X55880Y-72390
X55880Y-74930
X55880Y-77470
X55880Y-80010
X55880Y-82550
X55880Y-85090
X55880Y-87630
X58420Y-46990
X58420Y-49530
X58420Y-52070
X58420Y-54610
X58420Y-57150
X58420Y-59690
X58420Y-62230
X58420Y-64770
X58420Y-67310
X58420Y-69850
X58420Y-72390
X58420Y-74930
X58420Y-77470
X58420Y-80010
X58420Y-82550
X58420Y-85090
X58420Y-87630
X61468Y-46990
X61722Y-52070
X64008Y-46990
X64262Y-52070
X66802Y-52070
X69342Y-52070
X70104Y-46990
X73152Y-69850
X73914Y-64516
X74676Y-54610
X75692Y-69850
X75914Y-64516
X77216Y-54610
X77724Y-46990
X77914Y-64516
X78232Y-69850
X79914Y-64516
X80772Y-69850
X81914Y-64516
X83312Y-69850
X84582Y-46990
X84582Y-49530
X85852Y-69850
X88392Y-69850
X88900Y-49530
X88900Y-52070
X88900Y-54610
X91440Y-46990
X91440Y-49530
X91440Y-52070
X91440Y-54610
X91440Y-57150
X91440Y-59690
X91440Y-62230
X91440Y-64770
X91440Y-67310
X91440Y-69850
X91440Y-72390
X91440Y-74930
X91440Y-77470
X91440Y-80010
X91440Y-82550
X91440Y-85090
X91440Y-87630
X93980Y-46990
X93980Y-49530
X93980Y-52070
X93980Y-54610
X93980Y-57150
X93980Y-59690
X93980Y-62230
X93980Y-64770
X93980Y-67310
X93980Y-69850
X93980Y-72390
X93980Y-74930
X93980Y-77470
X93980Y-80010
X93980Y-82550
X93980Y-85090
X93980Y-87630
T0
M30
