G04 #@! TF.FileFunction,Copper,L2,Bot,Signal*
%FSLAX46Y46*%
G04 Gerber Fmt 4.6, Leading zero omitted, Abs format (unit mm)*
G04 Created by KiCad (PCBNEW 4.0.4+e1-6308~48~ubuntu16.04.1-stable) date Fri Mar 30 16:09:55 2018*
%MOMM*%
%LPD*%
G01*
G04 APERTURE LIST*
%ADD10C,0.100000*%
%ADD11C,1.524000*%
%ADD12R,1.524000X1.524000*%
%ADD13R,2.000000X2.000000*%
%ADD14C,2.000000*%
%ADD15R,1.800000X1.800000*%
%ADD16C,1.800000*%
%ADD17R,1.600000X1.600000*%
%ADD18C,1.600000*%
%ADD19O,1.600000X1.600000*%
%ADD20R,1.700000X1.700000*%
%ADD21O,1.700000X1.700000*%
%ADD22R,1.200000X1.700000*%
%ADD23O,1.200000X1.700000*%
%ADD24C,0.250000*%
%ADD25C,0.400000*%
%ADD26C,0.254000*%
G04 APERTURE END LIST*
D10*
D11*
X58420000Y-46990000D03*
D12*
X55880000Y-46990000D03*
D11*
X58420000Y-49530000D03*
X55880000Y-49530000D03*
X58420000Y-87630000D03*
X55880000Y-87630000D03*
X58420000Y-85090000D03*
D12*
X55880000Y-85090000D03*
D11*
X58420000Y-82550000D03*
X55880000Y-82550000D03*
X58420000Y-80010000D03*
X55880000Y-80010000D03*
X58420000Y-77470000D03*
X55880000Y-77470000D03*
X58420000Y-74930000D03*
X55880000Y-74930000D03*
X58420000Y-72390000D03*
D12*
X55880000Y-72390000D03*
D11*
X58420000Y-69850000D03*
X55880000Y-69850000D03*
X58420000Y-67310000D03*
X55880000Y-67310000D03*
X58420000Y-64770000D03*
X55880000Y-64770000D03*
X58420000Y-62230000D03*
X55880000Y-62230000D03*
X58420000Y-59690000D03*
D12*
X55880000Y-59690000D03*
D11*
X58420000Y-57150000D03*
X55880000Y-57150000D03*
X58420000Y-54610000D03*
X55880000Y-54610000D03*
X58420000Y-52070000D03*
X55880000Y-52070000D03*
X91440000Y-52070000D03*
X93980000Y-52070000D03*
X91440000Y-54610000D03*
X93980000Y-54610000D03*
X91440000Y-57150000D03*
X93980000Y-57150000D03*
D12*
X91440000Y-59690000D03*
D11*
X93980000Y-59690000D03*
X91440000Y-62230000D03*
X93980000Y-62230000D03*
X91440000Y-64770000D03*
X93980000Y-64770000D03*
X91440000Y-67310000D03*
X93980000Y-67310000D03*
X91440000Y-69850000D03*
X93980000Y-69850000D03*
D12*
X91440000Y-72390000D03*
D11*
X93980000Y-72390000D03*
X91440000Y-74930000D03*
X93980000Y-74930000D03*
X91440000Y-77470000D03*
X93980000Y-77470000D03*
X91440000Y-80010000D03*
X93980000Y-80010000D03*
X91440000Y-82550000D03*
X93980000Y-82550000D03*
D12*
X91440000Y-85090000D03*
D11*
X93980000Y-85090000D03*
X91440000Y-87630000D03*
X93980000Y-87630000D03*
X91440000Y-49530000D03*
X93980000Y-49530000D03*
D12*
X91440000Y-46990000D03*
D11*
X93980000Y-46990000D03*
D13*
X74676000Y-54610000D03*
D14*
X77216000Y-54610000D03*
D15*
X84582000Y-49530000D03*
D16*
X84582000Y-46990000D03*
D17*
X88392000Y-69850000D03*
D18*
X85852000Y-69850000D03*
X83312000Y-69850000D03*
X80772000Y-69850000D03*
X78232000Y-69850000D03*
X75692000Y-69850000D03*
X73152000Y-69850000D03*
X77724000Y-46990000D03*
D19*
X70104000Y-46990000D03*
D20*
X64008000Y-46990000D03*
D21*
X61468000Y-46990000D03*
D20*
X88900000Y-49530000D03*
D21*
X88900000Y-52070000D03*
D20*
X88900000Y-54610000D03*
X61722000Y-52070000D03*
D21*
X64262000Y-52070000D03*
X66802000Y-52070000D03*
X69342000Y-52070000D03*
D22*
X73914000Y-64516000D03*
D23*
X75914000Y-64516000D03*
X77914000Y-64516000D03*
X79914000Y-64516000D03*
X81914000Y-64516000D03*
D24*
X55880000Y-46990000D02*
X57150000Y-45720000D01*
X57150000Y-45720000D02*
X63500000Y-45720000D01*
X63500000Y-45720000D02*
X64008000Y-46228000D01*
D25*
X64008000Y-46228000D02*
X64008000Y-46990000D01*
D24*
X78232000Y-69850000D02*
X78232000Y-64834000D01*
X78232000Y-64834000D02*
X77914000Y-64516000D01*
X77914000Y-69532000D02*
X78232000Y-69850000D01*
X75692000Y-69850000D02*
X75692000Y-66294000D01*
X75692000Y-66294000D02*
X73914000Y-64516000D01*
X70104000Y-46990000D02*
X70104000Y-48768000D01*
X70104000Y-48768000D02*
X71628000Y-50292000D01*
X71628000Y-50292000D02*
X71628000Y-57150000D01*
X71628000Y-57150000D02*
X72644000Y-58166000D01*
X72644000Y-58166000D02*
X79248000Y-58166000D01*
X79248000Y-58166000D02*
X81914000Y-60832000D01*
X81914000Y-60832000D02*
X81914000Y-64516000D01*
X85852000Y-69850000D02*
X85852000Y-68454000D01*
X85852000Y-68454000D02*
X81914000Y-64516000D01*
X58420000Y-57150000D02*
X58674000Y-57150000D01*
X84582000Y-49530000D02*
X84582000Y-54610000D01*
X90170000Y-83820000D02*
X91440000Y-85090000D01*
X90170000Y-60198000D02*
X90170000Y-83820000D01*
X84582000Y-54610000D02*
X90170000Y-60198000D01*
D26*
G36*
X60096039Y-46392622D02*
X59983000Y-46960907D01*
X59983000Y-47019093D01*
X60096039Y-47587378D01*
X60417946Y-48069147D01*
X60899715Y-48391054D01*
X61468000Y-48504093D01*
X62036285Y-48391054D01*
X62518054Y-48069147D01*
X62547403Y-48025223D01*
X62619673Y-48199698D01*
X62798301Y-48378327D01*
X63031690Y-48475000D01*
X63722250Y-48475000D01*
X63881000Y-48316250D01*
X63881000Y-47117000D01*
X64135000Y-47117000D01*
X64135000Y-48316250D01*
X64293750Y-48475000D01*
X64984310Y-48475000D01*
X65217699Y-48378327D01*
X65396327Y-48199698D01*
X65493000Y-47966309D01*
X65493000Y-47275750D01*
X65334250Y-47117000D01*
X64135000Y-47117000D01*
X63881000Y-47117000D01*
X63861000Y-47117000D01*
X63861000Y-46863000D01*
X63881000Y-46863000D01*
X63881000Y-46843000D01*
X64135000Y-46843000D01*
X64135000Y-46863000D01*
X65334250Y-46863000D01*
X65493000Y-46704250D01*
X65493000Y-46013691D01*
X65455020Y-45922000D01*
X69140961Y-45922000D01*
X69061189Y-45975302D01*
X68750120Y-46440849D01*
X68640887Y-46990000D01*
X68750120Y-47539151D01*
X69061189Y-48004698D01*
X69344000Y-48193667D01*
X69344000Y-48768000D01*
X69401852Y-49058839D01*
X69566599Y-49305401D01*
X70868000Y-50606802D01*
X70868000Y-57150000D01*
X70925852Y-57440839D01*
X71090599Y-57687401D01*
X72106599Y-58703401D01*
X72353161Y-58868148D01*
X72644000Y-58926000D01*
X78933198Y-58926000D01*
X81154000Y-61146802D01*
X81154000Y-63287941D01*
X81040723Y-63363630D01*
X80911590Y-63556891D01*
X80743125Y-63334067D01*
X80323376Y-63087714D01*
X80231609Y-63072538D01*
X80041000Y-63197269D01*
X80041000Y-64389000D01*
X80061000Y-64389000D01*
X80061000Y-64643000D01*
X80041000Y-64643000D01*
X80041000Y-65834731D01*
X80231609Y-65959462D01*
X80323376Y-65944286D01*
X80743125Y-65697933D01*
X80911590Y-65475109D01*
X81040723Y-65668370D01*
X81441386Y-65936084D01*
X81914000Y-66030093D01*
X82280408Y-65957210D01*
X84998041Y-68674843D01*
X84636176Y-69036077D01*
X84582138Y-69166215D01*
X84529243Y-69038200D01*
X84125923Y-68634176D01*
X83598691Y-68415250D01*
X83027813Y-68414752D01*
X82500200Y-68632757D01*
X82096176Y-69036077D01*
X82042138Y-69166215D01*
X81989243Y-69038200D01*
X81585923Y-68634176D01*
X81058691Y-68415250D01*
X80487813Y-68414752D01*
X79960200Y-68632757D01*
X79556176Y-69036077D01*
X79502138Y-69166215D01*
X79449243Y-69038200D01*
X79045923Y-68634176D01*
X78992000Y-68611785D01*
X78992000Y-65575090D01*
X79084875Y-65697933D01*
X79504624Y-65944286D01*
X79596391Y-65959462D01*
X79787000Y-65834731D01*
X79787000Y-64643000D01*
X79767000Y-64643000D01*
X79767000Y-64389000D01*
X79787000Y-64389000D01*
X79787000Y-63197269D01*
X79596391Y-63072538D01*
X79504624Y-63087714D01*
X79084875Y-63334067D01*
X78916410Y-63556891D01*
X78787277Y-63363630D01*
X78386614Y-63095916D01*
X77914000Y-63001907D01*
X77441386Y-63095916D01*
X77040723Y-63363630D01*
X76914000Y-63553285D01*
X76787277Y-63363630D01*
X76386614Y-63095916D01*
X75914000Y-63001907D01*
X75441386Y-63095916D01*
X75064004Y-63348074D01*
X74978090Y-63214559D01*
X74765890Y-63069569D01*
X74514000Y-63018560D01*
X73314000Y-63018560D01*
X73078683Y-63062838D01*
X72862559Y-63201910D01*
X72717569Y-63414110D01*
X72666560Y-63666000D01*
X72666560Y-65366000D01*
X72710838Y-65601317D01*
X72849910Y-65817441D01*
X73062110Y-65962431D01*
X73314000Y-66013440D01*
X74336638Y-66013440D01*
X74932000Y-66608802D01*
X74932000Y-68611354D01*
X74880200Y-68632757D01*
X74476176Y-69036077D01*
X74422138Y-69166215D01*
X74369243Y-69038200D01*
X73965923Y-68634176D01*
X73438691Y-68415250D01*
X72867813Y-68414752D01*
X72340200Y-68632757D01*
X71936176Y-69036077D01*
X71717250Y-69563309D01*
X71716752Y-70134187D01*
X71934757Y-70661800D01*
X72338077Y-71065824D01*
X72865309Y-71284750D01*
X73436187Y-71285248D01*
X73963800Y-71067243D01*
X74367824Y-70663923D01*
X74421862Y-70533785D01*
X74474757Y-70661800D01*
X74878077Y-71065824D01*
X75405309Y-71284750D01*
X75976187Y-71285248D01*
X76503800Y-71067243D01*
X76907824Y-70663923D01*
X76961862Y-70533785D01*
X77014757Y-70661800D01*
X77418077Y-71065824D01*
X77945309Y-71284750D01*
X78516187Y-71285248D01*
X79043800Y-71067243D01*
X79447824Y-70663923D01*
X79501862Y-70533785D01*
X79554757Y-70661800D01*
X79958077Y-71065824D01*
X80485309Y-71284750D01*
X81056187Y-71285248D01*
X81583800Y-71067243D01*
X81987824Y-70663923D01*
X82041862Y-70533785D01*
X82094757Y-70661800D01*
X82498077Y-71065824D01*
X83025309Y-71284750D01*
X83596187Y-71285248D01*
X84123800Y-71067243D01*
X84527824Y-70663923D01*
X84581862Y-70533785D01*
X84634757Y-70661800D01*
X85038077Y-71065824D01*
X85565309Y-71284750D01*
X86136187Y-71285248D01*
X86663800Y-71067243D01*
X86957000Y-70774554D01*
X86957000Y-70776309D01*
X87053673Y-71009698D01*
X87232301Y-71188327D01*
X87465690Y-71285000D01*
X88106250Y-71285000D01*
X88265000Y-71126250D01*
X88265000Y-69977000D01*
X88245000Y-69977000D01*
X88245000Y-69723000D01*
X88265000Y-69723000D01*
X88265000Y-68573750D01*
X88106250Y-68415000D01*
X87465690Y-68415000D01*
X87232301Y-68511673D01*
X87053673Y-68690302D01*
X86957000Y-68923691D01*
X86957000Y-68925761D01*
X86665923Y-68634176D01*
X86612000Y-68611785D01*
X86612000Y-68454000D01*
X86554148Y-68163161D01*
X86389401Y-67916599D01*
X83149000Y-64676198D01*
X83149000Y-64236907D01*
X83054991Y-63764293D01*
X82787277Y-63363630D01*
X82674000Y-63287941D01*
X82674000Y-60832000D01*
X82616148Y-60541161D01*
X82616148Y-60541160D01*
X82451401Y-60294599D01*
X79785401Y-57628599D01*
X79538839Y-57463852D01*
X79248000Y-57406000D01*
X72958802Y-57406000D01*
X72388000Y-56835198D01*
X72388000Y-53610000D01*
X73028560Y-53610000D01*
X73028560Y-55610000D01*
X73072838Y-55845317D01*
X73211910Y-56061441D01*
X73424110Y-56206431D01*
X73676000Y-56257440D01*
X75676000Y-56257440D01*
X75911317Y-56213162D01*
X76127441Y-56074090D01*
X76272431Y-55861890D01*
X76275042Y-55848998D01*
X76341736Y-56029387D01*
X76951461Y-56255908D01*
X77601460Y-56231856D01*
X78090264Y-56029387D01*
X78188927Y-55762532D01*
X77216000Y-54789605D01*
X77201858Y-54803748D01*
X77022253Y-54624143D01*
X77036395Y-54610000D01*
X77395605Y-54610000D01*
X78368532Y-55582927D01*
X78635387Y-55484264D01*
X78861908Y-54874539D01*
X78837856Y-54224540D01*
X78635387Y-53735736D01*
X78368532Y-53637073D01*
X77395605Y-54610000D01*
X77036395Y-54610000D01*
X77022253Y-54595858D01*
X77201858Y-54416253D01*
X77216000Y-54430395D01*
X78188927Y-53457468D01*
X78090264Y-53190613D01*
X77480539Y-52964092D01*
X76830540Y-52988144D01*
X76341736Y-53190613D01*
X76275681Y-53369273D01*
X76140090Y-53158559D01*
X75927890Y-53013569D01*
X75676000Y-52962560D01*
X73676000Y-52962560D01*
X73440683Y-53006838D01*
X73224559Y-53145910D01*
X73079569Y-53358110D01*
X73028560Y-53610000D01*
X72388000Y-53610000D01*
X72388000Y-50292000D01*
X72330148Y-50001161D01*
X72330148Y-50001160D01*
X72165401Y-49754599D01*
X70864000Y-48453198D01*
X70864000Y-48193667D01*
X71146811Y-48004698D01*
X71457880Y-47539151D01*
X71567113Y-46990000D01*
X71457880Y-46440849D01*
X71146811Y-45975302D01*
X71067039Y-45922000D01*
X76762696Y-45922000D01*
X76508176Y-46176077D01*
X76289250Y-46703309D01*
X76288752Y-47274187D01*
X76506757Y-47801800D01*
X76910077Y-48205824D01*
X77437309Y-48424750D01*
X78008187Y-48425248D01*
X78535800Y-48207243D01*
X78939824Y-47803923D01*
X79158750Y-47276691D01*
X79159248Y-46705813D01*
X78941243Y-46178200D01*
X78685489Y-45922000D01*
X83479151Y-45922000D01*
X83281449Y-46119357D01*
X83047267Y-46683330D01*
X83046735Y-47293991D01*
X83279932Y-47858371D01*
X83447880Y-48026613D01*
X83446683Y-48026838D01*
X83230559Y-48165910D01*
X83085569Y-48378110D01*
X83034560Y-48630000D01*
X83034560Y-50430000D01*
X83078838Y-50665317D01*
X83217910Y-50881441D01*
X83430110Y-51026431D01*
X83682000Y-51077440D01*
X83822000Y-51077440D01*
X83822000Y-54610000D01*
X83879852Y-54900839D01*
X84044599Y-55147401D01*
X89410000Y-60512802D01*
X89410000Y-68452979D01*
X89318310Y-68415000D01*
X88677750Y-68415000D01*
X88519000Y-68573750D01*
X88519000Y-69723000D01*
X88539000Y-69723000D01*
X88539000Y-69977000D01*
X88519000Y-69977000D01*
X88519000Y-71126250D01*
X88677750Y-71285000D01*
X89318310Y-71285000D01*
X89410000Y-71247021D01*
X89410000Y-83820000D01*
X89467852Y-84110839D01*
X89632599Y-84357401D01*
X90030560Y-84755362D01*
X90030560Y-85852000D01*
X90074838Y-86087317D01*
X90213910Y-86303441D01*
X90426110Y-86448431D01*
X90609124Y-86485492D01*
X90256371Y-86837630D01*
X90043243Y-87350900D01*
X90042758Y-87906661D01*
X90254990Y-88420303D01*
X90532203Y-88698000D01*
X59327517Y-88698000D01*
X59603629Y-88422370D01*
X59816757Y-87909100D01*
X59817242Y-87353339D01*
X59605010Y-86839697D01*
X59212370Y-86446371D01*
X59004488Y-86360051D01*
X59210303Y-86275010D01*
X59603629Y-85882370D01*
X59816757Y-85369100D01*
X59817242Y-84813339D01*
X59605010Y-84299697D01*
X59212370Y-83906371D01*
X59004488Y-83820051D01*
X59210303Y-83735010D01*
X59603629Y-83342370D01*
X59816757Y-82829100D01*
X59817242Y-82273339D01*
X59605010Y-81759697D01*
X59212370Y-81366371D01*
X59004488Y-81280051D01*
X59210303Y-81195010D01*
X59603629Y-80802370D01*
X59816757Y-80289100D01*
X59817242Y-79733339D01*
X59605010Y-79219697D01*
X59212370Y-78826371D01*
X59004488Y-78740051D01*
X59210303Y-78655010D01*
X59603629Y-78262370D01*
X59816757Y-77749100D01*
X59817242Y-77193339D01*
X59605010Y-76679697D01*
X59212370Y-76286371D01*
X59004488Y-76200051D01*
X59210303Y-76115010D01*
X59603629Y-75722370D01*
X59816757Y-75209100D01*
X59817242Y-74653339D01*
X59605010Y-74139697D01*
X59212370Y-73746371D01*
X59004488Y-73660051D01*
X59210303Y-73575010D01*
X59603629Y-73182370D01*
X59816757Y-72669100D01*
X59817242Y-72113339D01*
X59605010Y-71599697D01*
X59212370Y-71206371D01*
X59004488Y-71120051D01*
X59210303Y-71035010D01*
X59603629Y-70642370D01*
X59816757Y-70129100D01*
X59817242Y-69573339D01*
X59605010Y-69059697D01*
X59212370Y-68666371D01*
X59004488Y-68580051D01*
X59210303Y-68495010D01*
X59603629Y-68102370D01*
X59816757Y-67589100D01*
X59817242Y-67033339D01*
X59605010Y-66519697D01*
X59212370Y-66126371D01*
X59004488Y-66040051D01*
X59210303Y-65955010D01*
X59603629Y-65562370D01*
X59816757Y-65049100D01*
X59817242Y-64493339D01*
X59605010Y-63979697D01*
X59212370Y-63586371D01*
X59004488Y-63500051D01*
X59210303Y-63415010D01*
X59603629Y-63022370D01*
X59816757Y-62509100D01*
X59817242Y-61953339D01*
X59605010Y-61439697D01*
X59212370Y-61046371D01*
X59004488Y-60960051D01*
X59210303Y-60875010D01*
X59603629Y-60482370D01*
X59816757Y-59969100D01*
X59817242Y-59413339D01*
X59605010Y-58899697D01*
X59212370Y-58506371D01*
X59004488Y-58420051D01*
X59210303Y-58335010D01*
X59603629Y-57942370D01*
X59816757Y-57429100D01*
X59817242Y-56873339D01*
X59605010Y-56359697D01*
X59212370Y-55966371D01*
X59004488Y-55880051D01*
X59210303Y-55795010D01*
X59603629Y-55402370D01*
X59816757Y-54889100D01*
X59817242Y-54333339D01*
X59605010Y-53819697D01*
X59212370Y-53426371D01*
X59004488Y-53340051D01*
X59210303Y-53255010D01*
X59603629Y-52862370D01*
X59813995Y-52355750D01*
X60237000Y-52355750D01*
X60237000Y-53046309D01*
X60333673Y-53279698D01*
X60512301Y-53458327D01*
X60745690Y-53555000D01*
X61436250Y-53555000D01*
X61595000Y-53396250D01*
X61595000Y-52197000D01*
X60395750Y-52197000D01*
X60237000Y-52355750D01*
X59813995Y-52355750D01*
X59816757Y-52349100D01*
X59817242Y-51793339D01*
X59605010Y-51279697D01*
X59419329Y-51093691D01*
X60237000Y-51093691D01*
X60237000Y-51784250D01*
X60395750Y-51943000D01*
X61595000Y-51943000D01*
X61595000Y-50743750D01*
X61849000Y-50743750D01*
X61849000Y-51943000D01*
X61869000Y-51943000D01*
X61869000Y-52197000D01*
X61849000Y-52197000D01*
X61849000Y-53396250D01*
X62007750Y-53555000D01*
X62698310Y-53555000D01*
X62931699Y-53458327D01*
X63110327Y-53279698D01*
X63182597Y-53105223D01*
X63211946Y-53149147D01*
X63693715Y-53471054D01*
X64262000Y-53584093D01*
X64830285Y-53471054D01*
X65312054Y-53149147D01*
X65532000Y-52819974D01*
X65751946Y-53149147D01*
X66233715Y-53471054D01*
X66802000Y-53584093D01*
X67370285Y-53471054D01*
X67852054Y-53149147D01*
X68072000Y-52819974D01*
X68291946Y-53149147D01*
X68773715Y-53471054D01*
X69342000Y-53584093D01*
X69910285Y-53471054D01*
X70392054Y-53149147D01*
X70713961Y-52667378D01*
X70827000Y-52099093D01*
X70827000Y-52040907D01*
X70713961Y-51472622D01*
X70392054Y-50990853D01*
X69910285Y-50668946D01*
X69342000Y-50555907D01*
X68773715Y-50668946D01*
X68291946Y-50990853D01*
X68072000Y-51320026D01*
X67852054Y-50990853D01*
X67370285Y-50668946D01*
X66802000Y-50555907D01*
X66233715Y-50668946D01*
X65751946Y-50990853D01*
X65532000Y-51320026D01*
X65312054Y-50990853D01*
X64830285Y-50668946D01*
X64262000Y-50555907D01*
X63693715Y-50668946D01*
X63211946Y-50990853D01*
X63182597Y-51034777D01*
X63110327Y-50860302D01*
X62931699Y-50681673D01*
X62698310Y-50585000D01*
X62007750Y-50585000D01*
X61849000Y-50743750D01*
X61595000Y-50743750D01*
X61436250Y-50585000D01*
X60745690Y-50585000D01*
X60512301Y-50681673D01*
X60333673Y-50860302D01*
X60237000Y-51093691D01*
X59419329Y-51093691D01*
X59212370Y-50886371D01*
X59004488Y-50800051D01*
X59210303Y-50715010D01*
X59603629Y-50322370D01*
X59816757Y-49809100D01*
X59817242Y-49253339D01*
X59605010Y-48739697D01*
X59212370Y-48346371D01*
X59004488Y-48260051D01*
X59210303Y-48175010D01*
X59603629Y-47782370D01*
X59816757Y-47269100D01*
X59817242Y-46713339D01*
X59605010Y-46199697D01*
X59327797Y-45922000D01*
X60410498Y-45922000D01*
X60096039Y-46392622D01*
X60096039Y-46392622D01*
G37*
X60096039Y-46392622D02*
X59983000Y-46960907D01*
X59983000Y-47019093D01*
X60096039Y-47587378D01*
X60417946Y-48069147D01*
X60899715Y-48391054D01*
X61468000Y-48504093D01*
X62036285Y-48391054D01*
X62518054Y-48069147D01*
X62547403Y-48025223D01*
X62619673Y-48199698D01*
X62798301Y-48378327D01*
X63031690Y-48475000D01*
X63722250Y-48475000D01*
X63881000Y-48316250D01*
X63881000Y-47117000D01*
X64135000Y-47117000D01*
X64135000Y-48316250D01*
X64293750Y-48475000D01*
X64984310Y-48475000D01*
X65217699Y-48378327D01*
X65396327Y-48199698D01*
X65493000Y-47966309D01*
X65493000Y-47275750D01*
X65334250Y-47117000D01*
X64135000Y-47117000D01*
X63881000Y-47117000D01*
X63861000Y-47117000D01*
X63861000Y-46863000D01*
X63881000Y-46863000D01*
X63881000Y-46843000D01*
X64135000Y-46843000D01*
X64135000Y-46863000D01*
X65334250Y-46863000D01*
X65493000Y-46704250D01*
X65493000Y-46013691D01*
X65455020Y-45922000D01*
X69140961Y-45922000D01*
X69061189Y-45975302D01*
X68750120Y-46440849D01*
X68640887Y-46990000D01*
X68750120Y-47539151D01*
X69061189Y-48004698D01*
X69344000Y-48193667D01*
X69344000Y-48768000D01*
X69401852Y-49058839D01*
X69566599Y-49305401D01*
X70868000Y-50606802D01*
X70868000Y-57150000D01*
X70925852Y-57440839D01*
X71090599Y-57687401D01*
X72106599Y-58703401D01*
X72353161Y-58868148D01*
X72644000Y-58926000D01*
X78933198Y-58926000D01*
X81154000Y-61146802D01*
X81154000Y-63287941D01*
X81040723Y-63363630D01*
X80911590Y-63556891D01*
X80743125Y-63334067D01*
X80323376Y-63087714D01*
X80231609Y-63072538D01*
X80041000Y-63197269D01*
X80041000Y-64389000D01*
X80061000Y-64389000D01*
X80061000Y-64643000D01*
X80041000Y-64643000D01*
X80041000Y-65834731D01*
X80231609Y-65959462D01*
X80323376Y-65944286D01*
X80743125Y-65697933D01*
X80911590Y-65475109D01*
X81040723Y-65668370D01*
X81441386Y-65936084D01*
X81914000Y-66030093D01*
X82280408Y-65957210D01*
X84998041Y-68674843D01*
X84636176Y-69036077D01*
X84582138Y-69166215D01*
X84529243Y-69038200D01*
X84125923Y-68634176D01*
X83598691Y-68415250D01*
X83027813Y-68414752D01*
X82500200Y-68632757D01*
X82096176Y-69036077D01*
X82042138Y-69166215D01*
X81989243Y-69038200D01*
X81585923Y-68634176D01*
X81058691Y-68415250D01*
X80487813Y-68414752D01*
X79960200Y-68632757D01*
X79556176Y-69036077D01*
X79502138Y-69166215D01*
X79449243Y-69038200D01*
X79045923Y-68634176D01*
X78992000Y-68611785D01*
X78992000Y-65575090D01*
X79084875Y-65697933D01*
X79504624Y-65944286D01*
X79596391Y-65959462D01*
X79787000Y-65834731D01*
X79787000Y-64643000D01*
X79767000Y-64643000D01*
X79767000Y-64389000D01*
X79787000Y-64389000D01*
X79787000Y-63197269D01*
X79596391Y-63072538D01*
X79504624Y-63087714D01*
X79084875Y-63334067D01*
X78916410Y-63556891D01*
X78787277Y-63363630D01*
X78386614Y-63095916D01*
X77914000Y-63001907D01*
X77441386Y-63095916D01*
X77040723Y-63363630D01*
X76914000Y-63553285D01*
X76787277Y-63363630D01*
X76386614Y-63095916D01*
X75914000Y-63001907D01*
X75441386Y-63095916D01*
X75064004Y-63348074D01*
X74978090Y-63214559D01*
X74765890Y-63069569D01*
X74514000Y-63018560D01*
X73314000Y-63018560D01*
X73078683Y-63062838D01*
X72862559Y-63201910D01*
X72717569Y-63414110D01*
X72666560Y-63666000D01*
X72666560Y-65366000D01*
X72710838Y-65601317D01*
X72849910Y-65817441D01*
X73062110Y-65962431D01*
X73314000Y-66013440D01*
X74336638Y-66013440D01*
X74932000Y-66608802D01*
X74932000Y-68611354D01*
X74880200Y-68632757D01*
X74476176Y-69036077D01*
X74422138Y-69166215D01*
X74369243Y-69038200D01*
X73965923Y-68634176D01*
X73438691Y-68415250D01*
X72867813Y-68414752D01*
X72340200Y-68632757D01*
X71936176Y-69036077D01*
X71717250Y-69563309D01*
X71716752Y-70134187D01*
X71934757Y-70661800D01*
X72338077Y-71065824D01*
X72865309Y-71284750D01*
X73436187Y-71285248D01*
X73963800Y-71067243D01*
X74367824Y-70663923D01*
X74421862Y-70533785D01*
X74474757Y-70661800D01*
X74878077Y-71065824D01*
X75405309Y-71284750D01*
X75976187Y-71285248D01*
X76503800Y-71067243D01*
X76907824Y-70663923D01*
X76961862Y-70533785D01*
X77014757Y-70661800D01*
X77418077Y-71065824D01*
X77945309Y-71284750D01*
X78516187Y-71285248D01*
X79043800Y-71067243D01*
X79447824Y-70663923D01*
X79501862Y-70533785D01*
X79554757Y-70661800D01*
X79958077Y-71065824D01*
X80485309Y-71284750D01*
X81056187Y-71285248D01*
X81583800Y-71067243D01*
X81987824Y-70663923D01*
X82041862Y-70533785D01*
X82094757Y-70661800D01*
X82498077Y-71065824D01*
X83025309Y-71284750D01*
X83596187Y-71285248D01*
X84123800Y-71067243D01*
X84527824Y-70663923D01*
X84581862Y-70533785D01*
X84634757Y-70661800D01*
X85038077Y-71065824D01*
X85565309Y-71284750D01*
X86136187Y-71285248D01*
X86663800Y-71067243D01*
X86957000Y-70774554D01*
X86957000Y-70776309D01*
X87053673Y-71009698D01*
X87232301Y-71188327D01*
X87465690Y-71285000D01*
X88106250Y-71285000D01*
X88265000Y-71126250D01*
X88265000Y-69977000D01*
X88245000Y-69977000D01*
X88245000Y-69723000D01*
X88265000Y-69723000D01*
X88265000Y-68573750D01*
X88106250Y-68415000D01*
X87465690Y-68415000D01*
X87232301Y-68511673D01*
X87053673Y-68690302D01*
X86957000Y-68923691D01*
X86957000Y-68925761D01*
X86665923Y-68634176D01*
X86612000Y-68611785D01*
X86612000Y-68454000D01*
X86554148Y-68163161D01*
X86389401Y-67916599D01*
X83149000Y-64676198D01*
X83149000Y-64236907D01*
X83054991Y-63764293D01*
X82787277Y-63363630D01*
X82674000Y-63287941D01*
X82674000Y-60832000D01*
X82616148Y-60541161D01*
X82616148Y-60541160D01*
X82451401Y-60294599D01*
X79785401Y-57628599D01*
X79538839Y-57463852D01*
X79248000Y-57406000D01*
X72958802Y-57406000D01*
X72388000Y-56835198D01*
X72388000Y-53610000D01*
X73028560Y-53610000D01*
X73028560Y-55610000D01*
X73072838Y-55845317D01*
X73211910Y-56061441D01*
X73424110Y-56206431D01*
X73676000Y-56257440D01*
X75676000Y-56257440D01*
X75911317Y-56213162D01*
X76127441Y-56074090D01*
X76272431Y-55861890D01*
X76275042Y-55848998D01*
X76341736Y-56029387D01*
X76951461Y-56255908D01*
X77601460Y-56231856D01*
X78090264Y-56029387D01*
X78188927Y-55762532D01*
X77216000Y-54789605D01*
X77201858Y-54803748D01*
X77022253Y-54624143D01*
X77036395Y-54610000D01*
X77395605Y-54610000D01*
X78368532Y-55582927D01*
X78635387Y-55484264D01*
X78861908Y-54874539D01*
X78837856Y-54224540D01*
X78635387Y-53735736D01*
X78368532Y-53637073D01*
X77395605Y-54610000D01*
X77036395Y-54610000D01*
X77022253Y-54595858D01*
X77201858Y-54416253D01*
X77216000Y-54430395D01*
X78188927Y-53457468D01*
X78090264Y-53190613D01*
X77480539Y-52964092D01*
X76830540Y-52988144D01*
X76341736Y-53190613D01*
X76275681Y-53369273D01*
X76140090Y-53158559D01*
X75927890Y-53013569D01*
X75676000Y-52962560D01*
X73676000Y-52962560D01*
X73440683Y-53006838D01*
X73224559Y-53145910D01*
X73079569Y-53358110D01*
X73028560Y-53610000D01*
X72388000Y-53610000D01*
X72388000Y-50292000D01*
X72330148Y-50001161D01*
X72330148Y-50001160D01*
X72165401Y-49754599D01*
X70864000Y-48453198D01*
X70864000Y-48193667D01*
X71146811Y-48004698D01*
X71457880Y-47539151D01*
X71567113Y-46990000D01*
X71457880Y-46440849D01*
X71146811Y-45975302D01*
X71067039Y-45922000D01*
X76762696Y-45922000D01*
X76508176Y-46176077D01*
X76289250Y-46703309D01*
X76288752Y-47274187D01*
X76506757Y-47801800D01*
X76910077Y-48205824D01*
X77437309Y-48424750D01*
X78008187Y-48425248D01*
X78535800Y-48207243D01*
X78939824Y-47803923D01*
X79158750Y-47276691D01*
X79159248Y-46705813D01*
X78941243Y-46178200D01*
X78685489Y-45922000D01*
X83479151Y-45922000D01*
X83281449Y-46119357D01*
X83047267Y-46683330D01*
X83046735Y-47293991D01*
X83279932Y-47858371D01*
X83447880Y-48026613D01*
X83446683Y-48026838D01*
X83230559Y-48165910D01*
X83085569Y-48378110D01*
X83034560Y-48630000D01*
X83034560Y-50430000D01*
X83078838Y-50665317D01*
X83217910Y-50881441D01*
X83430110Y-51026431D01*
X83682000Y-51077440D01*
X83822000Y-51077440D01*
X83822000Y-54610000D01*
X83879852Y-54900839D01*
X84044599Y-55147401D01*
X89410000Y-60512802D01*
X89410000Y-68452979D01*
X89318310Y-68415000D01*
X88677750Y-68415000D01*
X88519000Y-68573750D01*
X88519000Y-69723000D01*
X88539000Y-69723000D01*
X88539000Y-69977000D01*
X88519000Y-69977000D01*
X88519000Y-71126250D01*
X88677750Y-71285000D01*
X89318310Y-71285000D01*
X89410000Y-71247021D01*
X89410000Y-83820000D01*
X89467852Y-84110839D01*
X89632599Y-84357401D01*
X90030560Y-84755362D01*
X90030560Y-85852000D01*
X90074838Y-86087317D01*
X90213910Y-86303441D01*
X90426110Y-86448431D01*
X90609124Y-86485492D01*
X90256371Y-86837630D01*
X90043243Y-87350900D01*
X90042758Y-87906661D01*
X90254990Y-88420303D01*
X90532203Y-88698000D01*
X59327517Y-88698000D01*
X59603629Y-88422370D01*
X59816757Y-87909100D01*
X59817242Y-87353339D01*
X59605010Y-86839697D01*
X59212370Y-86446371D01*
X59004488Y-86360051D01*
X59210303Y-86275010D01*
X59603629Y-85882370D01*
X59816757Y-85369100D01*
X59817242Y-84813339D01*
X59605010Y-84299697D01*
X59212370Y-83906371D01*
X59004488Y-83820051D01*
X59210303Y-83735010D01*
X59603629Y-83342370D01*
X59816757Y-82829100D01*
X59817242Y-82273339D01*
X59605010Y-81759697D01*
X59212370Y-81366371D01*
X59004488Y-81280051D01*
X59210303Y-81195010D01*
X59603629Y-80802370D01*
X59816757Y-80289100D01*
X59817242Y-79733339D01*
X59605010Y-79219697D01*
X59212370Y-78826371D01*
X59004488Y-78740051D01*
X59210303Y-78655010D01*
X59603629Y-78262370D01*
X59816757Y-77749100D01*
X59817242Y-77193339D01*
X59605010Y-76679697D01*
X59212370Y-76286371D01*
X59004488Y-76200051D01*
X59210303Y-76115010D01*
X59603629Y-75722370D01*
X59816757Y-75209100D01*
X59817242Y-74653339D01*
X59605010Y-74139697D01*
X59212370Y-73746371D01*
X59004488Y-73660051D01*
X59210303Y-73575010D01*
X59603629Y-73182370D01*
X59816757Y-72669100D01*
X59817242Y-72113339D01*
X59605010Y-71599697D01*
X59212370Y-71206371D01*
X59004488Y-71120051D01*
X59210303Y-71035010D01*
X59603629Y-70642370D01*
X59816757Y-70129100D01*
X59817242Y-69573339D01*
X59605010Y-69059697D01*
X59212370Y-68666371D01*
X59004488Y-68580051D01*
X59210303Y-68495010D01*
X59603629Y-68102370D01*
X59816757Y-67589100D01*
X59817242Y-67033339D01*
X59605010Y-66519697D01*
X59212370Y-66126371D01*
X59004488Y-66040051D01*
X59210303Y-65955010D01*
X59603629Y-65562370D01*
X59816757Y-65049100D01*
X59817242Y-64493339D01*
X59605010Y-63979697D01*
X59212370Y-63586371D01*
X59004488Y-63500051D01*
X59210303Y-63415010D01*
X59603629Y-63022370D01*
X59816757Y-62509100D01*
X59817242Y-61953339D01*
X59605010Y-61439697D01*
X59212370Y-61046371D01*
X59004488Y-60960051D01*
X59210303Y-60875010D01*
X59603629Y-60482370D01*
X59816757Y-59969100D01*
X59817242Y-59413339D01*
X59605010Y-58899697D01*
X59212370Y-58506371D01*
X59004488Y-58420051D01*
X59210303Y-58335010D01*
X59603629Y-57942370D01*
X59816757Y-57429100D01*
X59817242Y-56873339D01*
X59605010Y-56359697D01*
X59212370Y-55966371D01*
X59004488Y-55880051D01*
X59210303Y-55795010D01*
X59603629Y-55402370D01*
X59816757Y-54889100D01*
X59817242Y-54333339D01*
X59605010Y-53819697D01*
X59212370Y-53426371D01*
X59004488Y-53340051D01*
X59210303Y-53255010D01*
X59603629Y-52862370D01*
X59813995Y-52355750D01*
X60237000Y-52355750D01*
X60237000Y-53046309D01*
X60333673Y-53279698D01*
X60512301Y-53458327D01*
X60745690Y-53555000D01*
X61436250Y-53555000D01*
X61595000Y-53396250D01*
X61595000Y-52197000D01*
X60395750Y-52197000D01*
X60237000Y-52355750D01*
X59813995Y-52355750D01*
X59816757Y-52349100D01*
X59817242Y-51793339D01*
X59605010Y-51279697D01*
X59419329Y-51093691D01*
X60237000Y-51093691D01*
X60237000Y-51784250D01*
X60395750Y-51943000D01*
X61595000Y-51943000D01*
X61595000Y-50743750D01*
X61849000Y-50743750D01*
X61849000Y-51943000D01*
X61869000Y-51943000D01*
X61869000Y-52197000D01*
X61849000Y-52197000D01*
X61849000Y-53396250D01*
X62007750Y-53555000D01*
X62698310Y-53555000D01*
X62931699Y-53458327D01*
X63110327Y-53279698D01*
X63182597Y-53105223D01*
X63211946Y-53149147D01*
X63693715Y-53471054D01*
X64262000Y-53584093D01*
X64830285Y-53471054D01*
X65312054Y-53149147D01*
X65532000Y-52819974D01*
X65751946Y-53149147D01*
X66233715Y-53471054D01*
X66802000Y-53584093D01*
X67370285Y-53471054D01*
X67852054Y-53149147D01*
X68072000Y-52819974D01*
X68291946Y-53149147D01*
X68773715Y-53471054D01*
X69342000Y-53584093D01*
X69910285Y-53471054D01*
X70392054Y-53149147D01*
X70713961Y-52667378D01*
X70827000Y-52099093D01*
X70827000Y-52040907D01*
X70713961Y-51472622D01*
X70392054Y-50990853D01*
X69910285Y-50668946D01*
X69342000Y-50555907D01*
X68773715Y-50668946D01*
X68291946Y-50990853D01*
X68072000Y-51320026D01*
X67852054Y-50990853D01*
X67370285Y-50668946D01*
X66802000Y-50555907D01*
X66233715Y-50668946D01*
X65751946Y-50990853D01*
X65532000Y-51320026D01*
X65312054Y-50990853D01*
X64830285Y-50668946D01*
X64262000Y-50555907D01*
X63693715Y-50668946D01*
X63211946Y-50990853D01*
X63182597Y-51034777D01*
X63110327Y-50860302D01*
X62931699Y-50681673D01*
X62698310Y-50585000D01*
X62007750Y-50585000D01*
X61849000Y-50743750D01*
X61595000Y-50743750D01*
X61436250Y-50585000D01*
X60745690Y-50585000D01*
X60512301Y-50681673D01*
X60333673Y-50860302D01*
X60237000Y-51093691D01*
X59419329Y-51093691D01*
X59212370Y-50886371D01*
X59004488Y-50800051D01*
X59210303Y-50715010D01*
X59603629Y-50322370D01*
X59816757Y-49809100D01*
X59817242Y-49253339D01*
X59605010Y-48739697D01*
X59212370Y-48346371D01*
X59004488Y-48260051D01*
X59210303Y-48175010D01*
X59603629Y-47782370D01*
X59816757Y-47269100D01*
X59817242Y-46713339D01*
X59605010Y-46199697D01*
X59327797Y-45922000D01*
X60410498Y-45922000D01*
X60096039Y-46392622D01*
G36*
X56007000Y-46863000D02*
X56027000Y-46863000D01*
X56027000Y-47117000D01*
X56007000Y-47117000D01*
X56007000Y-47137000D01*
X55753000Y-47137000D01*
X55753000Y-47117000D01*
X55733000Y-47117000D01*
X55733000Y-46863000D01*
X55753000Y-46863000D01*
X55753000Y-46843000D01*
X56007000Y-46843000D01*
X56007000Y-46863000D01*
X56007000Y-46863000D01*
G37*
X56007000Y-46863000D02*
X56027000Y-46863000D01*
X56027000Y-47117000D01*
X56007000Y-47117000D01*
X56007000Y-47137000D01*
X55753000Y-47137000D01*
X55753000Y-47117000D01*
X55733000Y-47117000D01*
X55733000Y-46863000D01*
X55753000Y-46863000D01*
X55753000Y-46843000D01*
X56007000Y-46843000D01*
X56007000Y-46863000D01*
M02*
