%FSLAX45Y45*%
G04 Gerber Fmt 4.5, Leading zero omitted, Abs format (unit mm)*
G04 Created by KiCad (PCBNEW 5.1.10-88a1d61d58~88~ubuntu20.04.1) date 2021-05-09 22:10:33*
%MOMM*%
%LPD*%
G01*
G04 APERTURE LIST*
%TA.AperFunction,Profile*%
%ADD10C,0.200000*%
%TD*%
%ADD11C,0.200000*%
%ADD12C,0.300000*%
G04 APERTURE END LIST*
D10*
X11960000Y-7620000D02*
X11960000Y-3500000D01*
X16300000Y-7620000D02*
X11960000Y-7620000D01*
X16300000Y-3500000D02*
X16300000Y-7620000D01*
X11960000Y-3500000D02*
X16300000Y-3500000D01*
D11*
X12090000Y-3630000D02*
X12310000Y-3850000D01*
X12310000Y-3630000D02*
X12090000Y-3850000D01*
X12090000Y-7270000D02*
X12310000Y-7490000D01*
X12310000Y-7270000D02*
X12090000Y-7490000D01*
X14020000Y-3630000D02*
X14240000Y-3850000D01*
X14240000Y-3630000D02*
X14020000Y-3850000D01*
X14020000Y-7270000D02*
X14240000Y-7490000D01*
X14240000Y-7270000D02*
X14020000Y-7490000D01*
X15950000Y-3630000D02*
X16170000Y-3850000D01*
X16170000Y-3630000D02*
X15950000Y-3850000D01*
X15950000Y-7270000D02*
X16170000Y-7490000D01*
X16170000Y-7270000D02*
X15950000Y-7490000D01*
D12*
X12236428Y-8095714D02*
X12236428Y-7795714D01*
X12307857Y-7795714D01*
X12350714Y-7810000D01*
X12379286Y-7838571D01*
X12393571Y-7867143D01*
X12407857Y-7924286D01*
X12407857Y-7967143D01*
X12393571Y-8024286D01*
X12379286Y-8052857D01*
X12350714Y-8081429D01*
X12307857Y-8095714D01*
X12236428Y-8095714D01*
X12536428Y-8095714D02*
X12536428Y-7895714D01*
X12536428Y-7952857D02*
X12550714Y-7924286D01*
X12565000Y-7910000D01*
X12593571Y-7895714D01*
X12622143Y-7895714D01*
X12722143Y-8095714D02*
X12722143Y-7895714D01*
X12722143Y-7795714D02*
X12707857Y-7810000D01*
X12722143Y-7824286D01*
X12736428Y-7810000D01*
X12722143Y-7795714D01*
X12722143Y-7824286D01*
X12907857Y-8095714D02*
X12879286Y-8081429D01*
X12865000Y-8052857D01*
X12865000Y-7795714D01*
X13065000Y-8095714D02*
X13036428Y-8081429D01*
X13022143Y-8052857D01*
X13022143Y-7795714D01*
X13407857Y-8095714D02*
X13407857Y-7795714D01*
X13507857Y-8010000D01*
X13607857Y-7795714D01*
X13607857Y-8095714D01*
X13879286Y-8095714D02*
X13879286Y-7938571D01*
X13865000Y-7910000D01*
X13836428Y-7895714D01*
X13779286Y-7895714D01*
X13750714Y-7910000D01*
X13879286Y-8081429D02*
X13850714Y-8095714D01*
X13779286Y-8095714D01*
X13750714Y-8081429D01*
X13736428Y-8052857D01*
X13736428Y-8024286D01*
X13750714Y-7995714D01*
X13779286Y-7981429D01*
X13850714Y-7981429D01*
X13879286Y-7967143D01*
X14022143Y-7895714D02*
X14022143Y-8195714D01*
X14022143Y-7910000D02*
X14050714Y-7895714D01*
X14107857Y-7895714D01*
X14136428Y-7910000D01*
X14150714Y-7924286D01*
X14165000Y-7952857D01*
X14165000Y-8038571D01*
X14150714Y-8067143D01*
X14136428Y-8081429D01*
X14107857Y-8095714D01*
X14050714Y-8095714D01*
X14022143Y-8081429D01*
X14293571Y-8067143D02*
X14307857Y-8081429D01*
X14293571Y-8095714D01*
X14279286Y-8081429D01*
X14293571Y-8067143D01*
X14293571Y-8095714D01*
X14293571Y-7910000D02*
X14307857Y-7924286D01*
X14293571Y-7938571D01*
X14279286Y-7924286D01*
X14293571Y-7910000D01*
X14293571Y-7938571D01*
X11730000Y-8480000D02*
X11950000Y-8700000D01*
X11950000Y-8480000D02*
X11730000Y-8700000D01*
X12222143Y-8454286D02*
X12236428Y-8440000D01*
X12265000Y-8425714D01*
X12336428Y-8425714D01*
X12365000Y-8440000D01*
X12379286Y-8454286D01*
X12393571Y-8482857D01*
X12393571Y-8511429D01*
X12379286Y-8554286D01*
X12207857Y-8725714D01*
X12393571Y-8725714D01*
X12522143Y-8697143D02*
X12536428Y-8711429D01*
X12522143Y-8725714D01*
X12507857Y-8711429D01*
X12522143Y-8697143D01*
X12522143Y-8725714D01*
X12650714Y-8454286D02*
X12665000Y-8440000D01*
X12693571Y-8425714D01*
X12765000Y-8425714D01*
X12793571Y-8440000D01*
X12807857Y-8454286D01*
X12822143Y-8482857D01*
X12822143Y-8511429D01*
X12807857Y-8554286D01*
X12636428Y-8725714D01*
X12822143Y-8725714D01*
X13007857Y-8425714D02*
X13036428Y-8425714D01*
X13065000Y-8440000D01*
X13079286Y-8454286D01*
X13093571Y-8482857D01*
X13107857Y-8540000D01*
X13107857Y-8611429D01*
X13093571Y-8668572D01*
X13079286Y-8697143D01*
X13065000Y-8711429D01*
X13036428Y-8725714D01*
X13007857Y-8725714D01*
X12979286Y-8711429D01*
X12965000Y-8697143D01*
X12950714Y-8668572D01*
X12936428Y-8611429D01*
X12936428Y-8540000D01*
X12950714Y-8482857D01*
X12965000Y-8454286D01*
X12979286Y-8440000D01*
X13007857Y-8425714D01*
X13293571Y-8425714D02*
X13322143Y-8425714D01*
X13350714Y-8440000D01*
X13365000Y-8454286D01*
X13379286Y-8482857D01*
X13393571Y-8540000D01*
X13393571Y-8611429D01*
X13379286Y-8668572D01*
X13365000Y-8697143D01*
X13350714Y-8711429D01*
X13322143Y-8725714D01*
X13293571Y-8725714D01*
X13265000Y-8711429D01*
X13250714Y-8697143D01*
X13236428Y-8668572D01*
X13222143Y-8611429D01*
X13222143Y-8540000D01*
X13236428Y-8482857D01*
X13250714Y-8454286D01*
X13265000Y-8440000D01*
X13293571Y-8425714D01*
X13522143Y-8725714D02*
X13522143Y-8525714D01*
X13522143Y-8554286D02*
X13536428Y-8540000D01*
X13565000Y-8525714D01*
X13607857Y-8525714D01*
X13636428Y-8540000D01*
X13650714Y-8568572D01*
X13650714Y-8725714D01*
X13650714Y-8568572D02*
X13665000Y-8540000D01*
X13693571Y-8525714D01*
X13736428Y-8525714D01*
X13765000Y-8540000D01*
X13779286Y-8568572D01*
X13779286Y-8725714D01*
X13922143Y-8725714D02*
X13922143Y-8525714D01*
X13922143Y-8554286D02*
X13936428Y-8540000D01*
X13965000Y-8525714D01*
X14007857Y-8525714D01*
X14036428Y-8540000D01*
X14050714Y-8568572D01*
X14050714Y-8725714D01*
X14050714Y-8568572D02*
X14065000Y-8540000D01*
X14093571Y-8525714D01*
X14136428Y-8525714D01*
X14165000Y-8540000D01*
X14179286Y-8568572D01*
X14179286Y-8725714D01*
X14765000Y-8411429D02*
X14507857Y-8797143D01*
X15150714Y-8425714D02*
X15179286Y-8425714D01*
X15207857Y-8440000D01*
X15222143Y-8454286D01*
X15236428Y-8482857D01*
X15250714Y-8540000D01*
X15250714Y-8611429D01*
X15236428Y-8668572D01*
X15222143Y-8697143D01*
X15207857Y-8711429D01*
X15179286Y-8725714D01*
X15150714Y-8725714D01*
X15122143Y-8711429D01*
X15107857Y-8697143D01*
X15093571Y-8668572D01*
X15079286Y-8611429D01*
X15079286Y-8540000D01*
X15093571Y-8482857D01*
X15107857Y-8454286D01*
X15122143Y-8440000D01*
X15150714Y-8425714D01*
X15379286Y-8697143D02*
X15393571Y-8711429D01*
X15379286Y-8725714D01*
X15365000Y-8711429D01*
X15379286Y-8697143D01*
X15379286Y-8725714D01*
X15579286Y-8425714D02*
X15607857Y-8425714D01*
X15636428Y-8440000D01*
X15650714Y-8454286D01*
X15665000Y-8482857D01*
X15679286Y-8540000D01*
X15679286Y-8611429D01*
X15665000Y-8668572D01*
X15650714Y-8697143D01*
X15636428Y-8711429D01*
X15607857Y-8725714D01*
X15579286Y-8725714D01*
X15550714Y-8711429D01*
X15536428Y-8697143D01*
X15522143Y-8668572D01*
X15507857Y-8611429D01*
X15507857Y-8540000D01*
X15522143Y-8482857D01*
X15536428Y-8454286D01*
X15550714Y-8440000D01*
X15579286Y-8425714D01*
X15850714Y-8554286D02*
X15822143Y-8540000D01*
X15807857Y-8525714D01*
X15793571Y-8497143D01*
X15793571Y-8482857D01*
X15807857Y-8454286D01*
X15822143Y-8440000D01*
X15850714Y-8425714D01*
X15907857Y-8425714D01*
X15936428Y-8440000D01*
X15950714Y-8454286D01*
X15965000Y-8482857D01*
X15965000Y-8497143D01*
X15950714Y-8525714D01*
X15936428Y-8540000D01*
X15907857Y-8554286D01*
X15850714Y-8554286D01*
X15822143Y-8568572D01*
X15807857Y-8582857D01*
X15793571Y-8611429D01*
X15793571Y-8668572D01*
X15807857Y-8697143D01*
X15822143Y-8711429D01*
X15850714Y-8725714D01*
X15907857Y-8725714D01*
X15936428Y-8711429D01*
X15950714Y-8697143D01*
X15965000Y-8668572D01*
X15965000Y-8611429D01*
X15950714Y-8582857D01*
X15936428Y-8568572D01*
X15907857Y-8554286D01*
X16222143Y-8425714D02*
X16165000Y-8425714D01*
X16136428Y-8440000D01*
X16122143Y-8454286D01*
X16093571Y-8497143D01*
X16079286Y-8554286D01*
X16079286Y-8668572D01*
X16093571Y-8697143D01*
X16107857Y-8711429D01*
X16136428Y-8725714D01*
X16193571Y-8725714D01*
X16222143Y-8711429D01*
X16236428Y-8697143D01*
X16250714Y-8668572D01*
X16250714Y-8597143D01*
X16236428Y-8568572D01*
X16222143Y-8554286D01*
X16193571Y-8540000D01*
X16136428Y-8540000D01*
X16107857Y-8554286D01*
X16093571Y-8568572D01*
X16079286Y-8597143D01*
X16507857Y-8425714D02*
X16450714Y-8425714D01*
X16422143Y-8440000D01*
X16407857Y-8454286D01*
X16379286Y-8497143D01*
X16365000Y-8554286D01*
X16365000Y-8668572D01*
X16379286Y-8697143D01*
X16393571Y-8711429D01*
X16422143Y-8725714D01*
X16479286Y-8725714D01*
X16507857Y-8711429D01*
X16522143Y-8697143D01*
X16536428Y-8668572D01*
X16536428Y-8597143D01*
X16522143Y-8568572D01*
X16507857Y-8554286D01*
X16479286Y-8540000D01*
X16422143Y-8540000D01*
X16393571Y-8554286D01*
X16379286Y-8568572D01*
X16365000Y-8597143D01*
X16650714Y-8425714D02*
X16650714Y-8482857D01*
X16765000Y-8425714D02*
X16765000Y-8482857D01*
X17207857Y-8840000D02*
X17193571Y-8825714D01*
X17165000Y-8782857D01*
X17150714Y-8754286D01*
X17136428Y-8711429D01*
X17122143Y-8640000D01*
X17122143Y-8582857D01*
X17136428Y-8511429D01*
X17150714Y-8468572D01*
X17165000Y-8440000D01*
X17193571Y-8397143D01*
X17207857Y-8382857D01*
X17450714Y-8425714D02*
X17393571Y-8425714D01*
X17365000Y-8440000D01*
X17350714Y-8454286D01*
X17322143Y-8497143D01*
X17307857Y-8554286D01*
X17307857Y-8668572D01*
X17322143Y-8697143D01*
X17336428Y-8711429D01*
X17365000Y-8725714D01*
X17422143Y-8725714D01*
X17450714Y-8711429D01*
X17465000Y-8697143D01*
X17479286Y-8668572D01*
X17479286Y-8597143D01*
X17465000Y-8568572D01*
X17450714Y-8554286D01*
X17422143Y-8540000D01*
X17365000Y-8540000D01*
X17336428Y-8554286D01*
X17322143Y-8568572D01*
X17307857Y-8597143D01*
X17836428Y-8725714D02*
X17836428Y-8425714D01*
X17965000Y-8725714D02*
X17965000Y-8568572D01*
X17950714Y-8540000D01*
X17922143Y-8525714D01*
X17879286Y-8525714D01*
X17850714Y-8540000D01*
X17836428Y-8554286D01*
X18150714Y-8725714D02*
X18122143Y-8711429D01*
X18107857Y-8697143D01*
X18093571Y-8668572D01*
X18093571Y-8582857D01*
X18107857Y-8554286D01*
X18122143Y-8540000D01*
X18150714Y-8525714D01*
X18193571Y-8525714D01*
X18222143Y-8540000D01*
X18236428Y-8554286D01*
X18250714Y-8582857D01*
X18250714Y-8668572D01*
X18236428Y-8697143D01*
X18222143Y-8711429D01*
X18193571Y-8725714D01*
X18150714Y-8725714D01*
X18422143Y-8725714D02*
X18393571Y-8711429D01*
X18379286Y-8682857D01*
X18379286Y-8425714D01*
X18650714Y-8711429D02*
X18622143Y-8725714D01*
X18565000Y-8725714D01*
X18536428Y-8711429D01*
X18522143Y-8682857D01*
X18522143Y-8568572D01*
X18536428Y-8540000D01*
X18565000Y-8525714D01*
X18622143Y-8525714D01*
X18650714Y-8540000D01*
X18665000Y-8568572D01*
X18665000Y-8597143D01*
X18522143Y-8625714D01*
X18779286Y-8711429D02*
X18807857Y-8725714D01*
X18865000Y-8725714D01*
X18893571Y-8711429D01*
X18907857Y-8682857D01*
X18907857Y-8668572D01*
X18893571Y-8640000D01*
X18865000Y-8625714D01*
X18822143Y-8625714D01*
X18793571Y-8611429D01*
X18779286Y-8582857D01*
X18779286Y-8568572D01*
X18793571Y-8540000D01*
X18822143Y-8525714D01*
X18865000Y-8525714D01*
X18893571Y-8540000D01*
X19007857Y-8840000D02*
X19022143Y-8825714D01*
X19050714Y-8782857D01*
X19065000Y-8754286D01*
X19079286Y-8711429D01*
X19093571Y-8640000D01*
X19093571Y-8582857D01*
X19079286Y-8511429D01*
X19065000Y-8468572D01*
X19050714Y-8440000D01*
X19022143Y-8397143D01*
X19007857Y-8382857D01*
X19550714Y-8840000D02*
X19536428Y-8825714D01*
X19507857Y-8782857D01*
X19493571Y-8754286D01*
X19479286Y-8711429D01*
X19465000Y-8640000D01*
X19465000Y-8582857D01*
X19479286Y-8511429D01*
X19493571Y-8468572D01*
X19507857Y-8440000D01*
X19536428Y-8397143D01*
X19550714Y-8382857D01*
X19665000Y-8525714D02*
X19665000Y-8725714D01*
X19665000Y-8554286D02*
X19679286Y-8540000D01*
X19707857Y-8525714D01*
X19750714Y-8525714D01*
X19779286Y-8540000D01*
X19793571Y-8568572D01*
X19793571Y-8725714D01*
X19979286Y-8725714D02*
X19950714Y-8711429D01*
X19936428Y-8697143D01*
X19922143Y-8668572D01*
X19922143Y-8582857D01*
X19936428Y-8554286D01*
X19950714Y-8540000D01*
X19979286Y-8525714D01*
X20022143Y-8525714D01*
X20050714Y-8540000D01*
X20065000Y-8554286D01*
X20079286Y-8582857D01*
X20079286Y-8668572D01*
X20065000Y-8697143D01*
X20050714Y-8711429D01*
X20022143Y-8725714D01*
X19979286Y-8725714D01*
X20165000Y-8525714D02*
X20279286Y-8525714D01*
X20207857Y-8425714D02*
X20207857Y-8682857D01*
X20222143Y-8711429D01*
X20250714Y-8725714D01*
X20279286Y-8725714D01*
X20607857Y-8525714D02*
X20607857Y-8825714D01*
X20607857Y-8540000D02*
X20636428Y-8525714D01*
X20693571Y-8525714D01*
X20722143Y-8540000D01*
X20736428Y-8554286D01*
X20750714Y-8582857D01*
X20750714Y-8668572D01*
X20736428Y-8697143D01*
X20722143Y-8711429D01*
X20693571Y-8725714D01*
X20636428Y-8725714D01*
X20607857Y-8711429D01*
X20922143Y-8725714D02*
X20893571Y-8711429D01*
X20879286Y-8682857D01*
X20879286Y-8425714D01*
X21165000Y-8725714D02*
X21165000Y-8568572D01*
X21150714Y-8540000D01*
X21122143Y-8525714D01*
X21065000Y-8525714D01*
X21036428Y-8540000D01*
X21165000Y-8711429D02*
X21136428Y-8725714D01*
X21065000Y-8725714D01*
X21036428Y-8711429D01*
X21022143Y-8682857D01*
X21022143Y-8654286D01*
X21036428Y-8625714D01*
X21065000Y-8611429D01*
X21136428Y-8611429D01*
X21165000Y-8597143D01*
X21265000Y-8525714D02*
X21379286Y-8525714D01*
X21307857Y-8425714D02*
X21307857Y-8682857D01*
X21322143Y-8711429D01*
X21350714Y-8725714D01*
X21379286Y-8725714D01*
X21593571Y-8711429D02*
X21565000Y-8725714D01*
X21507857Y-8725714D01*
X21479286Y-8711429D01*
X21465000Y-8682857D01*
X21465000Y-8568572D01*
X21479286Y-8540000D01*
X21507857Y-8525714D01*
X21565000Y-8525714D01*
X21593571Y-8540000D01*
X21607857Y-8568572D01*
X21607857Y-8597143D01*
X21465000Y-8625714D01*
X21865000Y-8725714D02*
X21865000Y-8425714D01*
X21865000Y-8711429D02*
X21836428Y-8725714D01*
X21779286Y-8725714D01*
X21750714Y-8711429D01*
X21736428Y-8697143D01*
X21722143Y-8668572D01*
X21722143Y-8582857D01*
X21736428Y-8554286D01*
X21750714Y-8540000D01*
X21779286Y-8525714D01*
X21836428Y-8525714D01*
X21865000Y-8540000D01*
X21979286Y-8840000D02*
X21993571Y-8825714D01*
X22022143Y-8782857D01*
X22036428Y-8754286D01*
X22050714Y-8711429D01*
X22065000Y-8640000D01*
X22065000Y-8582857D01*
X22050714Y-8511429D01*
X22036428Y-8468572D01*
X22022143Y-8440000D01*
X21993571Y-8397143D01*
X21979286Y-8382857D01*
M02*
