%FSLAX45Y45*%
G04 Gerber Fmt 4.5, Leading zero omitted, Abs format (unit mm)*
G04 Created by KiCad (PCBNEW 5.1.10-88a1d61d58~88~ubuntu20.04.1) date 2021-05-09 22:10:33*
%MOMM*%
%LPD*%
G01*
G04 APERTURE LIST*
%TA.AperFunction,Profile*%
%ADD10C,0.200000*%
%TD*%
%ADD11C,0.200000*%
%ADD12C,0.300000*%
G04 APERTURE END LIST*
D10*
X11960000Y-7620000D02*
X11960000Y-3500000D01*
X16300000Y-7620000D02*
X11960000Y-7620000D01*
X16300000Y-3500000D02*
X16300000Y-7620000D01*
X11960000Y-3500000D02*
X16300000Y-3500000D01*
D11*
X12666000Y-5087500D02*
X12766000Y-5187500D01*
X12766000Y-5087500D02*
X12666000Y-5187500D01*
X12666000Y-5364500D02*
X12766000Y-5464500D01*
X12766000Y-5364500D02*
X12666000Y-5464500D01*
X12666000Y-5641500D02*
X12766000Y-5741500D01*
X12766000Y-5641500D02*
X12666000Y-5741500D01*
X12666000Y-5918500D02*
X12766000Y-6018500D01*
X12766000Y-5918500D02*
X12666000Y-6018500D01*
X12950000Y-4949000D02*
X13050000Y-5049000D01*
X13050000Y-4949000D02*
X12950000Y-5049000D01*
X12950000Y-5226000D02*
X13050000Y-5326000D01*
X13050000Y-5226000D02*
X12950000Y-5326000D01*
X12950000Y-5503000D02*
X13050000Y-5603000D01*
X13050000Y-5503000D02*
X12950000Y-5603000D01*
X12950000Y-5780000D02*
X13050000Y-5880000D01*
X13050000Y-5780000D02*
X12950000Y-5880000D01*
X12950000Y-6057000D02*
X13050000Y-6157000D01*
X13050000Y-6057000D02*
X12950000Y-6157000D01*
X15210000Y-4950000D02*
X15310000Y-5050000D01*
X15310000Y-4950000D02*
X15210000Y-5050000D01*
X15210000Y-5227000D02*
X15310000Y-5327000D01*
X15310000Y-5227000D02*
X15210000Y-5327000D01*
X15210000Y-5504000D02*
X15310000Y-5604000D01*
X15310000Y-5504000D02*
X15210000Y-5604000D01*
X15210000Y-5781000D02*
X15310000Y-5881000D01*
X15310000Y-5781000D02*
X15210000Y-5881000D01*
X15210000Y-6058000D02*
X15310000Y-6158000D01*
X15310000Y-6058000D02*
X15210000Y-6158000D01*
X15494000Y-5088500D02*
X15594000Y-5188500D01*
X15594000Y-5088500D02*
X15494000Y-5188500D01*
X15494000Y-5365500D02*
X15594000Y-5465500D01*
X15594000Y-5365500D02*
X15494000Y-5465500D01*
X15494000Y-5642500D02*
X15594000Y-5742500D01*
X15594000Y-5642500D02*
X15494000Y-5742500D01*
X15494000Y-5919500D02*
X15594000Y-6019500D01*
X15594000Y-5919500D02*
X15494000Y-6019500D01*
X13018000Y-4303000D02*
G75*
G03*
X13018000Y-4303000I-160000J0D01*
G01*
X13018000Y-6803000D02*
G75*
G03*
X13018000Y-6803000I-160000J0D01*
G01*
X15562000Y-4304000D02*
G75*
G03*
X15562000Y-4304000I-160000J0D01*
G01*
X15562000Y-6804000D02*
G75*
G03*
X15562000Y-6804000I-160000J0D01*
G01*
D12*
X12236428Y-8095714D02*
X12236428Y-7795714D01*
X12307857Y-7795714D01*
X12350714Y-7810000D01*
X12379286Y-7838571D01*
X12393571Y-7867143D01*
X12407857Y-7924286D01*
X12407857Y-7967143D01*
X12393571Y-8024286D01*
X12379286Y-8052857D01*
X12350714Y-8081429D01*
X12307857Y-8095714D01*
X12236428Y-8095714D01*
X12536428Y-8095714D02*
X12536428Y-7895714D01*
X12536428Y-7952857D02*
X12550714Y-7924286D01*
X12565000Y-7910000D01*
X12593571Y-7895714D01*
X12622143Y-7895714D01*
X12722143Y-8095714D02*
X12722143Y-7895714D01*
X12722143Y-7795714D02*
X12707857Y-7810000D01*
X12722143Y-7824286D01*
X12736428Y-7810000D01*
X12722143Y-7795714D01*
X12722143Y-7824286D01*
X12907857Y-8095714D02*
X12879286Y-8081429D01*
X12865000Y-8052857D01*
X12865000Y-7795714D01*
X13065000Y-8095714D02*
X13036428Y-8081429D01*
X13022143Y-8052857D01*
X13022143Y-7795714D01*
X13407857Y-8095714D02*
X13407857Y-7795714D01*
X13507857Y-8010000D01*
X13607857Y-7795714D01*
X13607857Y-8095714D01*
X13879286Y-8095714D02*
X13879286Y-7938571D01*
X13865000Y-7910000D01*
X13836428Y-7895714D01*
X13779286Y-7895714D01*
X13750714Y-7910000D01*
X13879286Y-8081429D02*
X13850714Y-8095714D01*
X13779286Y-8095714D01*
X13750714Y-8081429D01*
X13736428Y-8052857D01*
X13736428Y-8024286D01*
X13750714Y-7995714D01*
X13779286Y-7981429D01*
X13850714Y-7981429D01*
X13879286Y-7967143D01*
X14022143Y-7895714D02*
X14022143Y-8195714D01*
X14022143Y-7910000D02*
X14050714Y-7895714D01*
X14107857Y-7895714D01*
X14136428Y-7910000D01*
X14150714Y-7924286D01*
X14165000Y-7952857D01*
X14165000Y-8038571D01*
X14150714Y-8067143D01*
X14136428Y-8081429D01*
X14107857Y-8095714D01*
X14050714Y-8095714D01*
X14022143Y-8081429D01*
X14293571Y-8067143D02*
X14307857Y-8081429D01*
X14293571Y-8095714D01*
X14279286Y-8081429D01*
X14293571Y-8067143D01*
X14293571Y-8095714D01*
X14293571Y-7910000D02*
X14307857Y-7924286D01*
X14293571Y-7938571D01*
X14279286Y-7924286D01*
X14293571Y-7910000D01*
X14293571Y-7938571D01*
X11850000Y-8540000D02*
X11950000Y-8640000D01*
X11950000Y-8540000D02*
X11850000Y-8640000D01*
X12393571Y-8725714D02*
X12222143Y-8725714D01*
X12307857Y-8725714D02*
X12307857Y-8425714D01*
X12279286Y-8468572D01*
X12250714Y-8497143D01*
X12222143Y-8511429D01*
X12522143Y-8697143D02*
X12536428Y-8711429D01*
X12522143Y-8725714D01*
X12507857Y-8711429D01*
X12522143Y-8697143D01*
X12522143Y-8725714D01*
X12722143Y-8425714D02*
X12750714Y-8425714D01*
X12779286Y-8440000D01*
X12793571Y-8454286D01*
X12807857Y-8482857D01*
X12822143Y-8540000D01*
X12822143Y-8611429D01*
X12807857Y-8668572D01*
X12793571Y-8697143D01*
X12779286Y-8711429D01*
X12750714Y-8725714D01*
X12722143Y-8725714D01*
X12693571Y-8711429D01*
X12679286Y-8697143D01*
X12665000Y-8668572D01*
X12650714Y-8611429D01*
X12650714Y-8540000D01*
X12665000Y-8482857D01*
X12679286Y-8454286D01*
X12693571Y-8440000D01*
X12722143Y-8425714D01*
X13007857Y-8425714D02*
X13036428Y-8425714D01*
X13065000Y-8440000D01*
X13079286Y-8454286D01*
X13093571Y-8482857D01*
X13107857Y-8540000D01*
X13107857Y-8611429D01*
X13093571Y-8668572D01*
X13079286Y-8697143D01*
X13065000Y-8711429D01*
X13036428Y-8725714D01*
X13007857Y-8725714D01*
X12979286Y-8711429D01*
X12965000Y-8697143D01*
X12950714Y-8668572D01*
X12936428Y-8611429D01*
X12936428Y-8540000D01*
X12950714Y-8482857D01*
X12965000Y-8454286D01*
X12979286Y-8440000D01*
X13007857Y-8425714D01*
X13293571Y-8425714D02*
X13322143Y-8425714D01*
X13350714Y-8440000D01*
X13365000Y-8454286D01*
X13379286Y-8482857D01*
X13393571Y-8540000D01*
X13393571Y-8611429D01*
X13379286Y-8668572D01*
X13365000Y-8697143D01*
X13350714Y-8711429D01*
X13322143Y-8725714D01*
X13293571Y-8725714D01*
X13265000Y-8711429D01*
X13250714Y-8697143D01*
X13236428Y-8668572D01*
X13222143Y-8611429D01*
X13222143Y-8540000D01*
X13236428Y-8482857D01*
X13250714Y-8454286D01*
X13265000Y-8440000D01*
X13293571Y-8425714D01*
X13522143Y-8725714D02*
X13522143Y-8525714D01*
X13522143Y-8554286D02*
X13536428Y-8540000D01*
X13565000Y-8525714D01*
X13607857Y-8525714D01*
X13636428Y-8540000D01*
X13650714Y-8568572D01*
X13650714Y-8725714D01*
X13650714Y-8568572D02*
X13665000Y-8540000D01*
X13693571Y-8525714D01*
X13736428Y-8525714D01*
X13765000Y-8540000D01*
X13779286Y-8568572D01*
X13779286Y-8725714D01*
X13922143Y-8725714D02*
X13922143Y-8525714D01*
X13922143Y-8554286D02*
X13936428Y-8540000D01*
X13965000Y-8525714D01*
X14007857Y-8525714D01*
X14036428Y-8540000D01*
X14050714Y-8568572D01*
X14050714Y-8725714D01*
X14050714Y-8568572D02*
X14065000Y-8540000D01*
X14093571Y-8525714D01*
X14136428Y-8525714D01*
X14165000Y-8540000D01*
X14179286Y-8568572D01*
X14179286Y-8725714D01*
X14765000Y-8411429D02*
X14507857Y-8797143D01*
X15150714Y-8425714D02*
X15179286Y-8425714D01*
X15207857Y-8440000D01*
X15222143Y-8454286D01*
X15236428Y-8482857D01*
X15250714Y-8540000D01*
X15250714Y-8611429D01*
X15236428Y-8668572D01*
X15222143Y-8697143D01*
X15207857Y-8711429D01*
X15179286Y-8725714D01*
X15150714Y-8725714D01*
X15122143Y-8711429D01*
X15107857Y-8697143D01*
X15093571Y-8668572D01*
X15079286Y-8611429D01*
X15079286Y-8540000D01*
X15093571Y-8482857D01*
X15107857Y-8454286D01*
X15122143Y-8440000D01*
X15150714Y-8425714D01*
X15379286Y-8697143D02*
X15393571Y-8711429D01*
X15379286Y-8725714D01*
X15365000Y-8711429D01*
X15379286Y-8697143D01*
X15379286Y-8725714D01*
X15579286Y-8425714D02*
X15607857Y-8425714D01*
X15636428Y-8440000D01*
X15650714Y-8454286D01*
X15665000Y-8482857D01*
X15679286Y-8540000D01*
X15679286Y-8611429D01*
X15665000Y-8668572D01*
X15650714Y-8697143D01*
X15636428Y-8711429D01*
X15607857Y-8725714D01*
X15579286Y-8725714D01*
X15550714Y-8711429D01*
X15536428Y-8697143D01*
X15522143Y-8668572D01*
X15507857Y-8611429D01*
X15507857Y-8540000D01*
X15522143Y-8482857D01*
X15536428Y-8454286D01*
X15550714Y-8440000D01*
X15579286Y-8425714D01*
X15779286Y-8425714D02*
X15965000Y-8425714D01*
X15865000Y-8540000D01*
X15907857Y-8540000D01*
X15936428Y-8554286D01*
X15950714Y-8568572D01*
X15965000Y-8597143D01*
X15965000Y-8668572D01*
X15950714Y-8697143D01*
X15936428Y-8711429D01*
X15907857Y-8725714D01*
X15822143Y-8725714D01*
X15793571Y-8711429D01*
X15779286Y-8697143D01*
X16107857Y-8725714D02*
X16165000Y-8725714D01*
X16193571Y-8711429D01*
X16207857Y-8697143D01*
X16236428Y-8654286D01*
X16250714Y-8597143D01*
X16250714Y-8482857D01*
X16236428Y-8454286D01*
X16222143Y-8440000D01*
X16193571Y-8425714D01*
X16136428Y-8425714D01*
X16107857Y-8440000D01*
X16093571Y-8454286D01*
X16079286Y-8482857D01*
X16079286Y-8554286D01*
X16093571Y-8582857D01*
X16107857Y-8597143D01*
X16136428Y-8611429D01*
X16193571Y-8611429D01*
X16222143Y-8597143D01*
X16236428Y-8582857D01*
X16250714Y-8554286D01*
X16507857Y-8525714D02*
X16507857Y-8725714D01*
X16436428Y-8411429D02*
X16365000Y-8625714D01*
X16550714Y-8625714D01*
X16650714Y-8425714D02*
X16650714Y-8482857D01*
X16765000Y-8425714D02*
X16765000Y-8482857D01*
X17207857Y-8840000D02*
X17193571Y-8825714D01*
X17165000Y-8782857D01*
X17150714Y-8754286D01*
X17136428Y-8711429D01*
X17122143Y-8640000D01*
X17122143Y-8582857D01*
X17136428Y-8511429D01*
X17150714Y-8468572D01*
X17165000Y-8440000D01*
X17193571Y-8397143D01*
X17207857Y-8382857D01*
X17479286Y-8725714D02*
X17307857Y-8725714D01*
X17393571Y-8725714D02*
X17393571Y-8425714D01*
X17365000Y-8468572D01*
X17336428Y-8497143D01*
X17307857Y-8511429D01*
X17650714Y-8554286D02*
X17622143Y-8540000D01*
X17607857Y-8525714D01*
X17593571Y-8497143D01*
X17593571Y-8482857D01*
X17607857Y-8454286D01*
X17622143Y-8440000D01*
X17650714Y-8425714D01*
X17707857Y-8425714D01*
X17736428Y-8440000D01*
X17750714Y-8454286D01*
X17765000Y-8482857D01*
X17765000Y-8497143D01*
X17750714Y-8525714D01*
X17736428Y-8540000D01*
X17707857Y-8554286D01*
X17650714Y-8554286D01*
X17622143Y-8568572D01*
X17607857Y-8582857D01*
X17593571Y-8611429D01*
X17593571Y-8668572D01*
X17607857Y-8697143D01*
X17622143Y-8711429D01*
X17650714Y-8725714D01*
X17707857Y-8725714D01*
X17736428Y-8711429D01*
X17750714Y-8697143D01*
X17765000Y-8668572D01*
X17765000Y-8611429D01*
X17750714Y-8582857D01*
X17736428Y-8568572D01*
X17707857Y-8554286D01*
X18122143Y-8725714D02*
X18122143Y-8425714D01*
X18250714Y-8725714D02*
X18250714Y-8568572D01*
X18236428Y-8540000D01*
X18207857Y-8525714D01*
X18165000Y-8525714D01*
X18136428Y-8540000D01*
X18122143Y-8554286D01*
X18436428Y-8725714D02*
X18407857Y-8711429D01*
X18393571Y-8697143D01*
X18379286Y-8668572D01*
X18379286Y-8582857D01*
X18393571Y-8554286D01*
X18407857Y-8540000D01*
X18436428Y-8525714D01*
X18479286Y-8525714D01*
X18507857Y-8540000D01*
X18522143Y-8554286D01*
X18536428Y-8582857D01*
X18536428Y-8668572D01*
X18522143Y-8697143D01*
X18507857Y-8711429D01*
X18479286Y-8725714D01*
X18436428Y-8725714D01*
X18707857Y-8725714D02*
X18679286Y-8711429D01*
X18665000Y-8682857D01*
X18665000Y-8425714D01*
X18936428Y-8711429D02*
X18907857Y-8725714D01*
X18850714Y-8725714D01*
X18822143Y-8711429D01*
X18807857Y-8682857D01*
X18807857Y-8568572D01*
X18822143Y-8540000D01*
X18850714Y-8525714D01*
X18907857Y-8525714D01*
X18936428Y-8540000D01*
X18950714Y-8568572D01*
X18950714Y-8597143D01*
X18807857Y-8625714D01*
X19065000Y-8711429D02*
X19093571Y-8725714D01*
X19150714Y-8725714D01*
X19179286Y-8711429D01*
X19193571Y-8682857D01*
X19193571Y-8668572D01*
X19179286Y-8640000D01*
X19150714Y-8625714D01*
X19107857Y-8625714D01*
X19079286Y-8611429D01*
X19065000Y-8582857D01*
X19065000Y-8568572D01*
X19079286Y-8540000D01*
X19107857Y-8525714D01*
X19150714Y-8525714D01*
X19179286Y-8540000D01*
X19293571Y-8840000D02*
X19307857Y-8825714D01*
X19336428Y-8782857D01*
X19350714Y-8754286D01*
X19365000Y-8711429D01*
X19379286Y-8640000D01*
X19379286Y-8582857D01*
X19365000Y-8511429D01*
X19350714Y-8468572D01*
X19336428Y-8440000D01*
X19307857Y-8397143D01*
X19293571Y-8382857D01*
X11950000Y-8986000D02*
G75*
G03*
X11950000Y-8986000I-160000J0D01*
G01*
X12207857Y-8821714D02*
X12393571Y-8821714D01*
X12293571Y-8936000D01*
X12336428Y-8936000D01*
X12365000Y-8950286D01*
X12379286Y-8964572D01*
X12393571Y-8993143D01*
X12393571Y-9064572D01*
X12379286Y-9093143D01*
X12365000Y-9107429D01*
X12336428Y-9121714D01*
X12250714Y-9121714D01*
X12222143Y-9107429D01*
X12207857Y-9093143D01*
X12522143Y-9093143D02*
X12536428Y-9107429D01*
X12522143Y-9121714D01*
X12507857Y-9107429D01*
X12522143Y-9093143D01*
X12522143Y-9121714D01*
X12650714Y-8850286D02*
X12665000Y-8836000D01*
X12693571Y-8821714D01*
X12765000Y-8821714D01*
X12793571Y-8836000D01*
X12807857Y-8850286D01*
X12822143Y-8878857D01*
X12822143Y-8907429D01*
X12807857Y-8950286D01*
X12636428Y-9121714D01*
X12822143Y-9121714D01*
X13007857Y-8821714D02*
X13036428Y-8821714D01*
X13065000Y-8836000D01*
X13079286Y-8850286D01*
X13093571Y-8878857D01*
X13107857Y-8936000D01*
X13107857Y-9007429D01*
X13093571Y-9064572D01*
X13079286Y-9093143D01*
X13065000Y-9107429D01*
X13036428Y-9121714D01*
X13007857Y-9121714D01*
X12979286Y-9107429D01*
X12965000Y-9093143D01*
X12950714Y-9064572D01*
X12936428Y-9007429D01*
X12936428Y-8936000D01*
X12950714Y-8878857D01*
X12965000Y-8850286D01*
X12979286Y-8836000D01*
X13007857Y-8821714D01*
X13293571Y-8821714D02*
X13322143Y-8821714D01*
X13350714Y-8836000D01*
X13365000Y-8850286D01*
X13379286Y-8878857D01*
X13393571Y-8936000D01*
X13393571Y-9007429D01*
X13379286Y-9064572D01*
X13365000Y-9093143D01*
X13350714Y-9107429D01*
X13322143Y-9121714D01*
X13293571Y-9121714D01*
X13265000Y-9107429D01*
X13250714Y-9093143D01*
X13236428Y-9064572D01*
X13222143Y-9007429D01*
X13222143Y-8936000D01*
X13236428Y-8878857D01*
X13250714Y-8850286D01*
X13265000Y-8836000D01*
X13293571Y-8821714D01*
X13522143Y-9121714D02*
X13522143Y-8921714D01*
X13522143Y-8950286D02*
X13536428Y-8936000D01*
X13565000Y-8921714D01*
X13607857Y-8921714D01*
X13636428Y-8936000D01*
X13650714Y-8964572D01*
X13650714Y-9121714D01*
X13650714Y-8964572D02*
X13665000Y-8936000D01*
X13693571Y-8921714D01*
X13736428Y-8921714D01*
X13765000Y-8936000D01*
X13779286Y-8964572D01*
X13779286Y-9121714D01*
X13922143Y-9121714D02*
X13922143Y-8921714D01*
X13922143Y-8950286D02*
X13936428Y-8936000D01*
X13965000Y-8921714D01*
X14007857Y-8921714D01*
X14036428Y-8936000D01*
X14050714Y-8964572D01*
X14050714Y-9121714D01*
X14050714Y-8964572D02*
X14065000Y-8936000D01*
X14093571Y-8921714D01*
X14136428Y-8921714D01*
X14165000Y-8936000D01*
X14179286Y-8964572D01*
X14179286Y-9121714D01*
X14765000Y-8807429D02*
X14507857Y-9193143D01*
X15150714Y-8821714D02*
X15179286Y-8821714D01*
X15207857Y-8836000D01*
X15222143Y-8850286D01*
X15236428Y-8878857D01*
X15250714Y-8936000D01*
X15250714Y-9007429D01*
X15236428Y-9064572D01*
X15222143Y-9093143D01*
X15207857Y-9107429D01*
X15179286Y-9121714D01*
X15150714Y-9121714D01*
X15122143Y-9107429D01*
X15107857Y-9093143D01*
X15093571Y-9064572D01*
X15079286Y-9007429D01*
X15079286Y-8936000D01*
X15093571Y-8878857D01*
X15107857Y-8850286D01*
X15122143Y-8836000D01*
X15150714Y-8821714D01*
X15379286Y-9093143D02*
X15393571Y-9107429D01*
X15379286Y-9121714D01*
X15365000Y-9107429D01*
X15379286Y-9093143D01*
X15379286Y-9121714D01*
X15679286Y-9121714D02*
X15507857Y-9121714D01*
X15593571Y-9121714D02*
X15593571Y-8821714D01*
X15565000Y-8864572D01*
X15536428Y-8893143D01*
X15507857Y-8907429D01*
X15793571Y-8850286D02*
X15807857Y-8836000D01*
X15836428Y-8821714D01*
X15907857Y-8821714D01*
X15936428Y-8836000D01*
X15950714Y-8850286D01*
X15965000Y-8878857D01*
X15965000Y-8907429D01*
X15950714Y-8950286D01*
X15779286Y-9121714D01*
X15965000Y-9121714D01*
X16222143Y-8821714D02*
X16165000Y-8821714D01*
X16136428Y-8836000D01*
X16122143Y-8850286D01*
X16093571Y-8893143D01*
X16079286Y-8950286D01*
X16079286Y-9064572D01*
X16093571Y-9093143D01*
X16107857Y-9107429D01*
X16136428Y-9121714D01*
X16193571Y-9121714D01*
X16222143Y-9107429D01*
X16236428Y-9093143D01*
X16250714Y-9064572D01*
X16250714Y-8993143D01*
X16236428Y-8964572D01*
X16222143Y-8950286D01*
X16193571Y-8936000D01*
X16136428Y-8936000D01*
X16107857Y-8950286D01*
X16093571Y-8964572D01*
X16079286Y-8993143D01*
X16436428Y-8821714D02*
X16465000Y-8821714D01*
X16493571Y-8836000D01*
X16507857Y-8850286D01*
X16522143Y-8878857D01*
X16536428Y-8936000D01*
X16536428Y-9007429D01*
X16522143Y-9064572D01*
X16507857Y-9093143D01*
X16493571Y-9107429D01*
X16465000Y-9121714D01*
X16436428Y-9121714D01*
X16407857Y-9107429D01*
X16393571Y-9093143D01*
X16379286Y-9064572D01*
X16365000Y-9007429D01*
X16365000Y-8936000D01*
X16379286Y-8878857D01*
X16393571Y-8850286D01*
X16407857Y-8836000D01*
X16436428Y-8821714D01*
X16650714Y-8821714D02*
X16650714Y-8878857D01*
X16765000Y-8821714D02*
X16765000Y-8878857D01*
X17207857Y-9236000D02*
X17193571Y-9221714D01*
X17165000Y-9178857D01*
X17150714Y-9150286D01*
X17136428Y-9107429D01*
X17122143Y-9036000D01*
X17122143Y-8978857D01*
X17136428Y-8907429D01*
X17150714Y-8864572D01*
X17165000Y-8836000D01*
X17193571Y-8793143D01*
X17207857Y-8778857D01*
X17450714Y-8921714D02*
X17450714Y-9121714D01*
X17379286Y-8807429D02*
X17307857Y-9021714D01*
X17493571Y-9021714D01*
X17836428Y-9121714D02*
X17836428Y-8821714D01*
X17965000Y-9121714D02*
X17965000Y-8964572D01*
X17950714Y-8936000D01*
X17922143Y-8921714D01*
X17879286Y-8921714D01*
X17850714Y-8936000D01*
X17836428Y-8950286D01*
X18150714Y-9121714D02*
X18122143Y-9107429D01*
X18107857Y-9093143D01*
X18093571Y-9064572D01*
X18093571Y-8978857D01*
X18107857Y-8950286D01*
X18122143Y-8936000D01*
X18150714Y-8921714D01*
X18193571Y-8921714D01*
X18222143Y-8936000D01*
X18236428Y-8950286D01*
X18250714Y-8978857D01*
X18250714Y-9064572D01*
X18236428Y-9093143D01*
X18222143Y-9107429D01*
X18193571Y-9121714D01*
X18150714Y-9121714D01*
X18422143Y-9121714D02*
X18393571Y-9107429D01*
X18379286Y-9078857D01*
X18379286Y-8821714D01*
X18650714Y-9107429D02*
X18622143Y-9121714D01*
X18565000Y-9121714D01*
X18536428Y-9107429D01*
X18522143Y-9078857D01*
X18522143Y-8964572D01*
X18536428Y-8936000D01*
X18565000Y-8921714D01*
X18622143Y-8921714D01*
X18650714Y-8936000D01*
X18665000Y-8964572D01*
X18665000Y-8993143D01*
X18522143Y-9021714D01*
X18779286Y-9107429D02*
X18807857Y-9121714D01*
X18865000Y-9121714D01*
X18893571Y-9107429D01*
X18907857Y-9078857D01*
X18907857Y-9064572D01*
X18893571Y-9036000D01*
X18865000Y-9021714D01*
X18822143Y-9021714D01*
X18793571Y-9007429D01*
X18779286Y-8978857D01*
X18779286Y-8964572D01*
X18793571Y-8936000D01*
X18822143Y-8921714D01*
X18865000Y-8921714D01*
X18893571Y-8936000D01*
X19007857Y-9236000D02*
X19022143Y-9221714D01*
X19050714Y-9178857D01*
X19065000Y-9150286D01*
X19079286Y-9107429D01*
X19093571Y-9036000D01*
X19093571Y-8978857D01*
X19079286Y-8907429D01*
X19065000Y-8864572D01*
X19050714Y-8836000D01*
X19022143Y-8793143D01*
X19007857Y-8778857D01*
M02*
