G04 #@! TF.GenerationSoftware,KiCad,Pcbnew,5.1.10-88a1d61d58~88~ubuntu20.04.1*
G04 #@! TF.CreationDate,2021-05-09T22:10:24+02:00*
G04 #@! TF.ProjectId,SerialSwitcher,53657269-616c-4537-9769-74636865722e,rev?*
G04 #@! TF.SameCoordinates,Original*
G04 #@! TF.FileFunction,Copper,L2,Bot*
G04 #@! TF.FilePolarity,Positive*
%FSLAX46Y46*%
G04 Gerber Fmt 4.6, Leading zero omitted, Abs format (unit mm)*
G04 Created by KiCad (PCBNEW 5.1.10-88a1d61d58~88~ubuntu20.04.1) date 2021-05-09 22:10:24*
%MOMM*%
%LPD*%
G01*
G04 APERTURE LIST*
G04 #@! TA.AperFunction,ComponentPad*
%ADD10C,4.000000*%
G04 #@! TD*
G04 #@! TA.AperFunction,ComponentPad*
%ADD11C,1.600000*%
G04 #@! TD*
G04 #@! TA.AperFunction,ComponentPad*
%ADD12R,1.600000X1.600000*%
G04 #@! TD*
G04 #@! TA.AperFunction,Conductor*
%ADD13C,0.254000*%
G04 #@! TD*
G04 #@! TA.AperFunction,Conductor*
%ADD14C,0.100000*%
G04 #@! TD*
G04 APERTURE END LIST*
D10*
X128580000Y-68030000D03*
X128580000Y-43030000D03*
D11*
X127160000Y-51375000D03*
X127160000Y-54145000D03*
X127160000Y-56915000D03*
X127160000Y-59685000D03*
X130000000Y-49990000D03*
X130000000Y-52760000D03*
X130000000Y-55530000D03*
X130000000Y-58300000D03*
D12*
X130000000Y-61070000D03*
X152600000Y-50000000D03*
D11*
X152600000Y-52770000D03*
X152600000Y-55540000D03*
X152600000Y-58310000D03*
X152600000Y-61080000D03*
X155440000Y-51385000D03*
X155440000Y-54155000D03*
X155440000Y-56925000D03*
X155440000Y-59695000D03*
D10*
X154020000Y-68040000D03*
X154020000Y-43040000D03*
D13*
X138440270Y-35871442D02*
X138197012Y-36458719D01*
X138073000Y-37082168D01*
X138073000Y-37717832D01*
X138197012Y-38341281D01*
X138440270Y-38928558D01*
X138793425Y-39457093D01*
X139242907Y-39906575D01*
X139771442Y-40259730D01*
X140358719Y-40502988D01*
X140982168Y-40627000D01*
X141617832Y-40627000D01*
X142241281Y-40502988D01*
X142828558Y-40259730D01*
X143357093Y-39906575D01*
X143806575Y-39457093D01*
X144159730Y-38928558D01*
X144402988Y-38341281D01*
X144527000Y-37717832D01*
X144527000Y-37082168D01*
X144402988Y-36458719D01*
X144159730Y-35871442D01*
X144068563Y-35735000D01*
X157831437Y-35735000D01*
X157740270Y-35871442D01*
X157497012Y-36458719D01*
X157373000Y-37082168D01*
X157373000Y-37717832D01*
X157497012Y-38341281D01*
X157740270Y-38928558D01*
X158093425Y-39457093D01*
X158542907Y-39906575D01*
X159071442Y-40259730D01*
X159658719Y-40502988D01*
X160282168Y-40627000D01*
X160917832Y-40627000D01*
X161541281Y-40502988D01*
X162128558Y-40259730D01*
X162265000Y-40168562D01*
X162265001Y-71031438D01*
X162128558Y-70940270D01*
X161541281Y-70697012D01*
X160917832Y-70573000D01*
X160282168Y-70573000D01*
X159658719Y-70697012D01*
X159071442Y-70940270D01*
X158542907Y-71293425D01*
X158093425Y-71742907D01*
X157740270Y-72271442D01*
X157497012Y-72858719D01*
X157373000Y-73482168D01*
X157373000Y-74117832D01*
X157497012Y-74741281D01*
X157740270Y-75328558D01*
X157831437Y-75465000D01*
X144068563Y-75465000D01*
X144159730Y-75328558D01*
X144402988Y-74741281D01*
X144527000Y-74117832D01*
X144527000Y-73482168D01*
X144402988Y-72858719D01*
X144159730Y-72271442D01*
X143806575Y-71742907D01*
X143357093Y-71293425D01*
X142828558Y-70940270D01*
X142241281Y-70697012D01*
X141617832Y-70573000D01*
X140982168Y-70573000D01*
X140358719Y-70697012D01*
X139771442Y-70940270D01*
X139242907Y-71293425D01*
X138793425Y-71742907D01*
X138440270Y-72271442D01*
X138197012Y-72858719D01*
X138073000Y-73482168D01*
X138073000Y-74117832D01*
X138197012Y-74741281D01*
X138440270Y-75328558D01*
X138531437Y-75465000D01*
X124768563Y-75465000D01*
X124859730Y-75328558D01*
X125102988Y-74741281D01*
X125227000Y-74117832D01*
X125227000Y-73482168D01*
X125102988Y-72858719D01*
X124859730Y-72271442D01*
X124506575Y-71742907D01*
X124057093Y-71293425D01*
X123528558Y-70940270D01*
X122941281Y-70697012D01*
X122317832Y-70573000D01*
X121682168Y-70573000D01*
X121058719Y-70697012D01*
X120471442Y-70940270D01*
X120335000Y-71031437D01*
X120335000Y-69877499D01*
X126912106Y-69877499D01*
X127128228Y-70244258D01*
X127588105Y-70484938D01*
X128086098Y-70631275D01*
X128603071Y-70677648D01*
X129119159Y-70622273D01*
X129614526Y-70467279D01*
X130031772Y-70244258D01*
X130242001Y-69887499D01*
X152352106Y-69887499D01*
X152568228Y-70254258D01*
X153028105Y-70494938D01*
X153526098Y-70641275D01*
X154043071Y-70687648D01*
X154559159Y-70632273D01*
X155054526Y-70477279D01*
X155471772Y-70254258D01*
X155687894Y-69887499D01*
X154020000Y-68219605D01*
X152352106Y-69887499D01*
X130242001Y-69887499D01*
X130247894Y-69877499D01*
X128580000Y-68209605D01*
X126912106Y-69877499D01*
X120335000Y-69877499D01*
X120335000Y-68053071D01*
X125932352Y-68053071D01*
X125987727Y-68569159D01*
X126142721Y-69064526D01*
X126365742Y-69481772D01*
X126732501Y-69697894D01*
X128400395Y-68030000D01*
X128759605Y-68030000D01*
X130427499Y-69697894D01*
X130794258Y-69481772D01*
X131034938Y-69021895D01*
X131181275Y-68523902D01*
X131222612Y-68063071D01*
X151372352Y-68063071D01*
X151427727Y-68579159D01*
X151582721Y-69074526D01*
X151805742Y-69491772D01*
X152172501Y-69707894D01*
X153840395Y-68040000D01*
X154199605Y-68040000D01*
X155867499Y-69707894D01*
X156234258Y-69491772D01*
X156474938Y-69031895D01*
X156621275Y-68533902D01*
X156667648Y-68016929D01*
X156612273Y-67500841D01*
X156457279Y-67005474D01*
X156234258Y-66588228D01*
X155867499Y-66372106D01*
X154199605Y-68040000D01*
X153840395Y-68040000D01*
X152172501Y-66372106D01*
X151805742Y-66588228D01*
X151565062Y-67048105D01*
X151418725Y-67546098D01*
X151372352Y-68063071D01*
X131222612Y-68063071D01*
X131227648Y-68006929D01*
X131172273Y-67490841D01*
X131017279Y-66995474D01*
X130794258Y-66578228D01*
X130427499Y-66362106D01*
X128759605Y-68030000D01*
X128400395Y-68030000D01*
X126732501Y-66362106D01*
X126365742Y-66578228D01*
X126125062Y-67038105D01*
X125978725Y-67536098D01*
X125932352Y-68053071D01*
X120335000Y-68053071D01*
X120335000Y-66182501D01*
X126912106Y-66182501D01*
X128580000Y-67850395D01*
X130237894Y-66192501D01*
X152352106Y-66192501D01*
X154020000Y-67860395D01*
X155687894Y-66192501D01*
X155471772Y-65825742D01*
X155011895Y-65585062D01*
X154513902Y-65438725D01*
X153996929Y-65392352D01*
X153480841Y-65447727D01*
X152985474Y-65602721D01*
X152568228Y-65825742D01*
X152352106Y-66192501D01*
X130237894Y-66192501D01*
X130247894Y-66182501D01*
X130031772Y-65815742D01*
X129571895Y-65575062D01*
X129073902Y-65428725D01*
X128556929Y-65382352D01*
X128040841Y-65437727D01*
X127545474Y-65592721D01*
X127128228Y-65815742D01*
X126912106Y-66182501D01*
X120335000Y-66182501D01*
X120335000Y-51233665D01*
X125725000Y-51233665D01*
X125725000Y-51516335D01*
X125780147Y-51793574D01*
X125888320Y-52054727D01*
X126045363Y-52289759D01*
X126245241Y-52489637D01*
X126480273Y-52646680D01*
X126741426Y-52754853D01*
X126767301Y-52760000D01*
X126741426Y-52765147D01*
X126480273Y-52873320D01*
X126245241Y-53030363D01*
X126045363Y-53230241D01*
X125888320Y-53465273D01*
X125780147Y-53726426D01*
X125725000Y-54003665D01*
X125725000Y-54286335D01*
X125780147Y-54563574D01*
X125888320Y-54824727D01*
X126045363Y-55059759D01*
X126245241Y-55259637D01*
X126480273Y-55416680D01*
X126741426Y-55524853D01*
X126767301Y-55530000D01*
X126741426Y-55535147D01*
X126480273Y-55643320D01*
X126245241Y-55800363D01*
X126045363Y-56000241D01*
X125888320Y-56235273D01*
X125780147Y-56496426D01*
X125725000Y-56773665D01*
X125725000Y-57056335D01*
X125780147Y-57333574D01*
X125888320Y-57594727D01*
X126045363Y-57829759D01*
X126245241Y-58029637D01*
X126480273Y-58186680D01*
X126741426Y-58294853D01*
X126767301Y-58300000D01*
X126741426Y-58305147D01*
X126480273Y-58413320D01*
X126245241Y-58570363D01*
X126045363Y-58770241D01*
X125888320Y-59005273D01*
X125780147Y-59266426D01*
X125725000Y-59543665D01*
X125725000Y-59826335D01*
X125780147Y-60103574D01*
X125888320Y-60364727D01*
X126045363Y-60599759D01*
X126245241Y-60799637D01*
X126480273Y-60956680D01*
X126741426Y-61064853D01*
X127018665Y-61120000D01*
X127301335Y-61120000D01*
X127578574Y-61064853D01*
X127839727Y-60956680D01*
X128074759Y-60799637D01*
X128274637Y-60599759D01*
X128431680Y-60364727D01*
X128470917Y-60270000D01*
X128561928Y-60270000D01*
X128561928Y-61870000D01*
X128574188Y-61994482D01*
X128610498Y-62114180D01*
X128669463Y-62224494D01*
X128748815Y-62321185D01*
X128845506Y-62400537D01*
X128955820Y-62459502D01*
X129075518Y-62495812D01*
X129200000Y-62508072D01*
X130800000Y-62508072D01*
X130924482Y-62495812D01*
X131044180Y-62459502D01*
X131154494Y-62400537D01*
X131251185Y-62321185D01*
X131330537Y-62224494D01*
X131389502Y-62114180D01*
X131402084Y-62072702D01*
X151786903Y-62072702D01*
X151858486Y-62316671D01*
X152113996Y-62437571D01*
X152388184Y-62506300D01*
X152670512Y-62520217D01*
X152950130Y-62478787D01*
X153216292Y-62383603D01*
X153341514Y-62316671D01*
X153413097Y-62072702D01*
X152600000Y-61259605D01*
X151786903Y-62072702D01*
X131402084Y-62072702D01*
X131425812Y-61994482D01*
X131438072Y-61870000D01*
X131438072Y-61150512D01*
X151159783Y-61150512D01*
X151201213Y-61430130D01*
X151296397Y-61696292D01*
X151363329Y-61821514D01*
X151607298Y-61893097D01*
X152420395Y-61080000D01*
X152779605Y-61080000D01*
X153592702Y-61893097D01*
X153836671Y-61821514D01*
X153957571Y-61566004D01*
X154026300Y-61291816D01*
X154040217Y-61009488D01*
X153998787Y-60729870D01*
X153903603Y-60463708D01*
X153836671Y-60338486D01*
X153592702Y-60266903D01*
X152779605Y-61080000D01*
X152420395Y-61080000D01*
X151607298Y-60266903D01*
X151363329Y-60338486D01*
X151242429Y-60593996D01*
X151173700Y-60868184D01*
X151159783Y-61150512D01*
X131438072Y-61150512D01*
X131438072Y-60270000D01*
X131425812Y-60145518D01*
X131389502Y-60025820D01*
X131330537Y-59915506D01*
X131251185Y-59818815D01*
X131154494Y-59739463D01*
X131044180Y-59680498D01*
X130924482Y-59644188D01*
X130800000Y-59631928D01*
X130534275Y-59631928D01*
X130679727Y-59571680D01*
X130914759Y-59414637D01*
X131114637Y-59214759D01*
X131271680Y-58979727D01*
X131379853Y-58718574D01*
X131435000Y-58441335D01*
X131435000Y-58158665D01*
X131379853Y-57881426D01*
X131271680Y-57620273D01*
X131114637Y-57385241D01*
X130914759Y-57185363D01*
X130679727Y-57028320D01*
X130418574Y-56920147D01*
X130392699Y-56915000D01*
X130418574Y-56909853D01*
X130679727Y-56801680D01*
X130914759Y-56644637D01*
X131114637Y-56444759D01*
X131271680Y-56209727D01*
X131379853Y-55948574D01*
X131435000Y-55671335D01*
X131435000Y-55388665D01*
X131379853Y-55111426D01*
X131271680Y-54850273D01*
X131114637Y-54615241D01*
X130914759Y-54415363D01*
X130679727Y-54258320D01*
X130418574Y-54150147D01*
X130392699Y-54145000D01*
X130418574Y-54139853D01*
X130679727Y-54031680D01*
X130914759Y-53874637D01*
X131114637Y-53674759D01*
X131271680Y-53439727D01*
X131379853Y-53178574D01*
X131435000Y-52901335D01*
X131435000Y-52618665D01*
X131379853Y-52341426D01*
X131271680Y-52080273D01*
X131114637Y-51845241D01*
X130914759Y-51645363D01*
X130679727Y-51488320D01*
X130418574Y-51380147D01*
X130390118Y-51374487D01*
X130616292Y-51293603D01*
X130741514Y-51226671D01*
X130813097Y-50982702D01*
X130000000Y-50169605D01*
X129186903Y-50982702D01*
X129258486Y-51226671D01*
X129513996Y-51347571D01*
X129616289Y-51373212D01*
X129581426Y-51380147D01*
X129320273Y-51488320D01*
X129085241Y-51645363D01*
X128885363Y-51845241D01*
X128728320Y-52080273D01*
X128620147Y-52341426D01*
X128565000Y-52618665D01*
X128565000Y-52901335D01*
X128620147Y-53178574D01*
X128728320Y-53439727D01*
X128885363Y-53674759D01*
X129085241Y-53874637D01*
X129320273Y-54031680D01*
X129581426Y-54139853D01*
X129607301Y-54145000D01*
X129581426Y-54150147D01*
X129320273Y-54258320D01*
X129085241Y-54415363D01*
X128885363Y-54615241D01*
X128728320Y-54850273D01*
X128620147Y-55111426D01*
X128565000Y-55388665D01*
X128565000Y-55671335D01*
X128620147Y-55948574D01*
X128728320Y-56209727D01*
X128885363Y-56444759D01*
X129085241Y-56644637D01*
X129320273Y-56801680D01*
X129581426Y-56909853D01*
X129607301Y-56915000D01*
X129581426Y-56920147D01*
X129320273Y-57028320D01*
X129085241Y-57185363D01*
X128885363Y-57385241D01*
X128728320Y-57620273D01*
X128620147Y-57881426D01*
X128565000Y-58158665D01*
X128565000Y-58441335D01*
X128620147Y-58718574D01*
X128728320Y-58979727D01*
X128885363Y-59214759D01*
X129085241Y-59414637D01*
X129320273Y-59571680D01*
X129465725Y-59631928D01*
X129200000Y-59631928D01*
X129075518Y-59644188D01*
X128955820Y-59680498D01*
X128845506Y-59739463D01*
X128748815Y-59818815D01*
X128669463Y-59915506D01*
X128610498Y-60025820D01*
X128574188Y-60145518D01*
X128561928Y-60270000D01*
X128470917Y-60270000D01*
X128539853Y-60103574D01*
X128595000Y-59826335D01*
X128595000Y-59543665D01*
X128539853Y-59266426D01*
X128431680Y-59005273D01*
X128274637Y-58770241D01*
X128074759Y-58570363D01*
X127839727Y-58413320D01*
X127578574Y-58305147D01*
X127552699Y-58300000D01*
X127578574Y-58294853D01*
X127839727Y-58186680D01*
X128074759Y-58029637D01*
X128274637Y-57829759D01*
X128431680Y-57594727D01*
X128539853Y-57333574D01*
X128595000Y-57056335D01*
X128595000Y-56773665D01*
X128539853Y-56496426D01*
X128431680Y-56235273D01*
X128274637Y-56000241D01*
X128074759Y-55800363D01*
X127839727Y-55643320D01*
X127578574Y-55535147D01*
X127552699Y-55530000D01*
X127578574Y-55524853D01*
X127839727Y-55416680D01*
X128074759Y-55259637D01*
X128274637Y-55059759D01*
X128431680Y-54824727D01*
X128539853Y-54563574D01*
X128595000Y-54286335D01*
X128595000Y-54003665D01*
X128539853Y-53726426D01*
X128431680Y-53465273D01*
X128274637Y-53230241D01*
X128074759Y-53030363D01*
X127839727Y-52873320D01*
X127578574Y-52765147D01*
X127552699Y-52760000D01*
X127578574Y-52754853D01*
X127839727Y-52646680D01*
X128074759Y-52489637D01*
X128274637Y-52289759D01*
X128431680Y-52054727D01*
X128539853Y-51793574D01*
X128595000Y-51516335D01*
X128595000Y-51233665D01*
X128539853Y-50956426D01*
X128431680Y-50695273D01*
X128274637Y-50460241D01*
X128074759Y-50260363D01*
X127839727Y-50103320D01*
X127736380Y-50060512D01*
X128559783Y-50060512D01*
X128601213Y-50340130D01*
X128696397Y-50606292D01*
X128763329Y-50731514D01*
X129007298Y-50803097D01*
X129820395Y-49990000D01*
X130179605Y-49990000D01*
X130992702Y-50803097D01*
X131236671Y-50731514D01*
X131357571Y-50476004D01*
X131426300Y-50201816D01*
X131440217Y-49919488D01*
X131398787Y-49639870D01*
X131303603Y-49373708D01*
X131236671Y-49248486D01*
X131071422Y-49200000D01*
X151161928Y-49200000D01*
X151161928Y-50800000D01*
X151174188Y-50924482D01*
X151210498Y-51044180D01*
X151269463Y-51154494D01*
X151348815Y-51251185D01*
X151445506Y-51330537D01*
X151555820Y-51389502D01*
X151675518Y-51425812D01*
X151800000Y-51438072D01*
X152065725Y-51438072D01*
X151920273Y-51498320D01*
X151685241Y-51655363D01*
X151485363Y-51855241D01*
X151328320Y-52090273D01*
X151220147Y-52351426D01*
X151165000Y-52628665D01*
X151165000Y-52911335D01*
X151220147Y-53188574D01*
X151328320Y-53449727D01*
X151485363Y-53684759D01*
X151685241Y-53884637D01*
X151920273Y-54041680D01*
X152181426Y-54149853D01*
X152207301Y-54155000D01*
X152181426Y-54160147D01*
X151920273Y-54268320D01*
X151685241Y-54425363D01*
X151485363Y-54625241D01*
X151328320Y-54860273D01*
X151220147Y-55121426D01*
X151165000Y-55398665D01*
X151165000Y-55681335D01*
X151220147Y-55958574D01*
X151328320Y-56219727D01*
X151485363Y-56454759D01*
X151685241Y-56654637D01*
X151920273Y-56811680D01*
X152181426Y-56919853D01*
X152207301Y-56925000D01*
X152181426Y-56930147D01*
X151920273Y-57038320D01*
X151685241Y-57195363D01*
X151485363Y-57395241D01*
X151328320Y-57630273D01*
X151220147Y-57891426D01*
X151165000Y-58168665D01*
X151165000Y-58451335D01*
X151220147Y-58728574D01*
X151328320Y-58989727D01*
X151485363Y-59224759D01*
X151685241Y-59424637D01*
X151920273Y-59581680D01*
X152181426Y-59689853D01*
X152209882Y-59695513D01*
X151983708Y-59776397D01*
X151858486Y-59843329D01*
X151786903Y-60087298D01*
X152600000Y-60900395D01*
X153413097Y-60087298D01*
X153341514Y-59843329D01*
X153086004Y-59722429D01*
X152983711Y-59696788D01*
X153018574Y-59689853D01*
X153279727Y-59581680D01*
X153514759Y-59424637D01*
X153714637Y-59224759D01*
X153871680Y-58989727D01*
X153979853Y-58728574D01*
X154035000Y-58451335D01*
X154035000Y-58168665D01*
X153979853Y-57891426D01*
X153871680Y-57630273D01*
X153714637Y-57395241D01*
X153514759Y-57195363D01*
X153279727Y-57038320D01*
X153018574Y-56930147D01*
X152992699Y-56925000D01*
X153018574Y-56919853D01*
X153279727Y-56811680D01*
X153514759Y-56654637D01*
X153714637Y-56454759D01*
X153871680Y-56219727D01*
X153979853Y-55958574D01*
X154035000Y-55681335D01*
X154035000Y-55398665D01*
X153979853Y-55121426D01*
X153871680Y-54860273D01*
X153714637Y-54625241D01*
X153514759Y-54425363D01*
X153279727Y-54268320D01*
X153018574Y-54160147D01*
X152992699Y-54155000D01*
X153018574Y-54149853D01*
X153279727Y-54041680D01*
X153514759Y-53884637D01*
X153714637Y-53684759D01*
X153871680Y-53449727D01*
X153979853Y-53188574D01*
X154035000Y-52911335D01*
X154035000Y-52628665D01*
X153979853Y-52351426D01*
X153871680Y-52090273D01*
X153714637Y-51855241D01*
X153514759Y-51655363D01*
X153279727Y-51498320D01*
X153134275Y-51438072D01*
X153400000Y-51438072D01*
X153524482Y-51425812D01*
X153644180Y-51389502D01*
X153754494Y-51330537D01*
X153851185Y-51251185D01*
X153857356Y-51243665D01*
X154005000Y-51243665D01*
X154005000Y-51526335D01*
X154060147Y-51803574D01*
X154168320Y-52064727D01*
X154325363Y-52299759D01*
X154525241Y-52499637D01*
X154760273Y-52656680D01*
X155021426Y-52764853D01*
X155047301Y-52770000D01*
X155021426Y-52775147D01*
X154760273Y-52883320D01*
X154525241Y-53040363D01*
X154325363Y-53240241D01*
X154168320Y-53475273D01*
X154060147Y-53736426D01*
X154005000Y-54013665D01*
X154005000Y-54296335D01*
X154060147Y-54573574D01*
X154168320Y-54834727D01*
X154325363Y-55069759D01*
X154525241Y-55269637D01*
X154760273Y-55426680D01*
X155021426Y-55534853D01*
X155047301Y-55540000D01*
X155021426Y-55545147D01*
X154760273Y-55653320D01*
X154525241Y-55810363D01*
X154325363Y-56010241D01*
X154168320Y-56245273D01*
X154060147Y-56506426D01*
X154005000Y-56783665D01*
X154005000Y-57066335D01*
X154060147Y-57343574D01*
X154168320Y-57604727D01*
X154325363Y-57839759D01*
X154525241Y-58039637D01*
X154760273Y-58196680D01*
X155021426Y-58304853D01*
X155047301Y-58310000D01*
X155021426Y-58315147D01*
X154760273Y-58423320D01*
X154525241Y-58580363D01*
X154325363Y-58780241D01*
X154168320Y-59015273D01*
X154060147Y-59276426D01*
X154005000Y-59553665D01*
X154005000Y-59836335D01*
X154060147Y-60113574D01*
X154168320Y-60374727D01*
X154325363Y-60609759D01*
X154525241Y-60809637D01*
X154760273Y-60966680D01*
X155021426Y-61074853D01*
X155298665Y-61130000D01*
X155581335Y-61130000D01*
X155858574Y-61074853D01*
X156119727Y-60966680D01*
X156354759Y-60809637D01*
X156554637Y-60609759D01*
X156711680Y-60374727D01*
X156819853Y-60113574D01*
X156875000Y-59836335D01*
X156875000Y-59553665D01*
X156819853Y-59276426D01*
X156711680Y-59015273D01*
X156554637Y-58780241D01*
X156354759Y-58580363D01*
X156119727Y-58423320D01*
X155858574Y-58315147D01*
X155832699Y-58310000D01*
X155858574Y-58304853D01*
X156119727Y-58196680D01*
X156354759Y-58039637D01*
X156554637Y-57839759D01*
X156711680Y-57604727D01*
X156819853Y-57343574D01*
X156875000Y-57066335D01*
X156875000Y-56783665D01*
X156819853Y-56506426D01*
X156711680Y-56245273D01*
X156554637Y-56010241D01*
X156354759Y-55810363D01*
X156119727Y-55653320D01*
X155858574Y-55545147D01*
X155832699Y-55540000D01*
X155858574Y-55534853D01*
X156119727Y-55426680D01*
X156354759Y-55269637D01*
X156554637Y-55069759D01*
X156711680Y-54834727D01*
X156819853Y-54573574D01*
X156875000Y-54296335D01*
X156875000Y-54013665D01*
X156819853Y-53736426D01*
X156711680Y-53475273D01*
X156554637Y-53240241D01*
X156354759Y-53040363D01*
X156119727Y-52883320D01*
X155858574Y-52775147D01*
X155832699Y-52770000D01*
X155858574Y-52764853D01*
X156119727Y-52656680D01*
X156354759Y-52499637D01*
X156554637Y-52299759D01*
X156711680Y-52064727D01*
X156819853Y-51803574D01*
X156875000Y-51526335D01*
X156875000Y-51243665D01*
X156819853Y-50966426D01*
X156711680Y-50705273D01*
X156554637Y-50470241D01*
X156354759Y-50270363D01*
X156119727Y-50113320D01*
X155858574Y-50005147D01*
X155581335Y-49950000D01*
X155298665Y-49950000D01*
X155021426Y-50005147D01*
X154760273Y-50113320D01*
X154525241Y-50270363D01*
X154325363Y-50470241D01*
X154168320Y-50705273D01*
X154060147Y-50966426D01*
X154005000Y-51243665D01*
X153857356Y-51243665D01*
X153930537Y-51154494D01*
X153989502Y-51044180D01*
X154025812Y-50924482D01*
X154038072Y-50800000D01*
X154038072Y-49200000D01*
X154025812Y-49075518D01*
X153989502Y-48955820D01*
X153930537Y-48845506D01*
X153851185Y-48748815D01*
X153754494Y-48669463D01*
X153644180Y-48610498D01*
X153524482Y-48574188D01*
X153400000Y-48561928D01*
X151800000Y-48561928D01*
X151675518Y-48574188D01*
X151555820Y-48610498D01*
X151445506Y-48669463D01*
X151348815Y-48748815D01*
X151269463Y-48845506D01*
X151210498Y-48955820D01*
X151174188Y-49075518D01*
X151161928Y-49200000D01*
X131071422Y-49200000D01*
X130992702Y-49176903D01*
X130179605Y-49990000D01*
X129820395Y-49990000D01*
X129007298Y-49176903D01*
X128763329Y-49248486D01*
X128642429Y-49503996D01*
X128573700Y-49778184D01*
X128559783Y-50060512D01*
X127736380Y-50060512D01*
X127578574Y-49995147D01*
X127301335Y-49940000D01*
X127018665Y-49940000D01*
X126741426Y-49995147D01*
X126480273Y-50103320D01*
X126245241Y-50260363D01*
X126045363Y-50460241D01*
X125888320Y-50695273D01*
X125780147Y-50956426D01*
X125725000Y-51233665D01*
X120335000Y-51233665D01*
X120335000Y-48997298D01*
X129186903Y-48997298D01*
X130000000Y-49810395D01*
X130813097Y-48997298D01*
X130741514Y-48753329D01*
X130486004Y-48632429D01*
X130211816Y-48563700D01*
X129929488Y-48549783D01*
X129649870Y-48591213D01*
X129383708Y-48686397D01*
X129258486Y-48753329D01*
X129186903Y-48997298D01*
X120335000Y-48997298D01*
X120335000Y-44877499D01*
X126912106Y-44877499D01*
X127128228Y-45244258D01*
X127588105Y-45484938D01*
X128086098Y-45631275D01*
X128603071Y-45677648D01*
X129119159Y-45622273D01*
X129614526Y-45467279D01*
X130031772Y-45244258D01*
X130242001Y-44887499D01*
X152352106Y-44887499D01*
X152568228Y-45254258D01*
X153028105Y-45494938D01*
X153526098Y-45641275D01*
X154043071Y-45687648D01*
X154559159Y-45632273D01*
X155054526Y-45477279D01*
X155471772Y-45254258D01*
X155687894Y-44887499D01*
X154020000Y-43219605D01*
X152352106Y-44887499D01*
X130242001Y-44887499D01*
X130247894Y-44877499D01*
X128580000Y-43209605D01*
X126912106Y-44877499D01*
X120335000Y-44877499D01*
X120335000Y-43053071D01*
X125932352Y-43053071D01*
X125987727Y-43569159D01*
X126142721Y-44064526D01*
X126365742Y-44481772D01*
X126732501Y-44697894D01*
X128400395Y-43030000D01*
X128759605Y-43030000D01*
X130427499Y-44697894D01*
X130794258Y-44481772D01*
X131034938Y-44021895D01*
X131181275Y-43523902D01*
X131222612Y-43063071D01*
X151372352Y-43063071D01*
X151427727Y-43579159D01*
X151582721Y-44074526D01*
X151805742Y-44491772D01*
X152172501Y-44707894D01*
X153840395Y-43040000D01*
X154199605Y-43040000D01*
X155867499Y-44707894D01*
X156234258Y-44491772D01*
X156474938Y-44031895D01*
X156621275Y-43533902D01*
X156667648Y-43016929D01*
X156612273Y-42500841D01*
X156457279Y-42005474D01*
X156234258Y-41588228D01*
X155867499Y-41372106D01*
X154199605Y-43040000D01*
X153840395Y-43040000D01*
X152172501Y-41372106D01*
X151805742Y-41588228D01*
X151565062Y-42048105D01*
X151418725Y-42546098D01*
X151372352Y-43063071D01*
X131222612Y-43063071D01*
X131227648Y-43006929D01*
X131172273Y-42490841D01*
X131017279Y-41995474D01*
X130794258Y-41578228D01*
X130427499Y-41362106D01*
X128759605Y-43030000D01*
X128400395Y-43030000D01*
X126732501Y-41362106D01*
X126365742Y-41578228D01*
X126125062Y-42038105D01*
X125978725Y-42536098D01*
X125932352Y-43053071D01*
X120335000Y-43053071D01*
X120335000Y-41182501D01*
X126912106Y-41182501D01*
X128580000Y-42850395D01*
X130237894Y-41192501D01*
X152352106Y-41192501D01*
X154020000Y-42860395D01*
X155687894Y-41192501D01*
X155471772Y-40825742D01*
X155011895Y-40585062D01*
X154513902Y-40438725D01*
X153996929Y-40392352D01*
X153480841Y-40447727D01*
X152985474Y-40602721D01*
X152568228Y-40825742D01*
X152352106Y-41192501D01*
X130237894Y-41192501D01*
X130247894Y-41182501D01*
X130031772Y-40815742D01*
X129571895Y-40575062D01*
X129073902Y-40428725D01*
X128556929Y-40382352D01*
X128040841Y-40437727D01*
X127545474Y-40592721D01*
X127128228Y-40815742D01*
X126912106Y-41182501D01*
X120335000Y-41182501D01*
X120335000Y-40168563D01*
X120471442Y-40259730D01*
X121058719Y-40502988D01*
X121682168Y-40627000D01*
X122317832Y-40627000D01*
X122941281Y-40502988D01*
X123528558Y-40259730D01*
X124057093Y-39906575D01*
X124506575Y-39457093D01*
X124859730Y-38928558D01*
X125102988Y-38341281D01*
X125227000Y-37717832D01*
X125227000Y-37082168D01*
X125102988Y-36458719D01*
X124859730Y-35871442D01*
X124768563Y-35735000D01*
X138531437Y-35735000D01*
X138440270Y-35871442D01*
G04 #@! TA.AperFunction,Conductor*
D14*
G36*
X138440270Y-35871442D02*
G01*
X138197012Y-36458719D01*
X138073000Y-37082168D01*
X138073000Y-37717832D01*
X138197012Y-38341281D01*
X138440270Y-38928558D01*
X138793425Y-39457093D01*
X139242907Y-39906575D01*
X139771442Y-40259730D01*
X140358719Y-40502988D01*
X140982168Y-40627000D01*
X141617832Y-40627000D01*
X142241281Y-40502988D01*
X142828558Y-40259730D01*
X143357093Y-39906575D01*
X143806575Y-39457093D01*
X144159730Y-38928558D01*
X144402988Y-38341281D01*
X144527000Y-37717832D01*
X144527000Y-37082168D01*
X144402988Y-36458719D01*
X144159730Y-35871442D01*
X144068563Y-35735000D01*
X157831437Y-35735000D01*
X157740270Y-35871442D01*
X157497012Y-36458719D01*
X157373000Y-37082168D01*
X157373000Y-37717832D01*
X157497012Y-38341281D01*
X157740270Y-38928558D01*
X158093425Y-39457093D01*
X158542907Y-39906575D01*
X159071442Y-40259730D01*
X159658719Y-40502988D01*
X160282168Y-40627000D01*
X160917832Y-40627000D01*
X161541281Y-40502988D01*
X162128558Y-40259730D01*
X162265000Y-40168562D01*
X162265001Y-71031438D01*
X162128558Y-70940270D01*
X161541281Y-70697012D01*
X160917832Y-70573000D01*
X160282168Y-70573000D01*
X159658719Y-70697012D01*
X159071442Y-70940270D01*
X158542907Y-71293425D01*
X158093425Y-71742907D01*
X157740270Y-72271442D01*
X157497012Y-72858719D01*
X157373000Y-73482168D01*
X157373000Y-74117832D01*
X157497012Y-74741281D01*
X157740270Y-75328558D01*
X157831437Y-75465000D01*
X144068563Y-75465000D01*
X144159730Y-75328558D01*
X144402988Y-74741281D01*
X144527000Y-74117832D01*
X144527000Y-73482168D01*
X144402988Y-72858719D01*
X144159730Y-72271442D01*
X143806575Y-71742907D01*
X143357093Y-71293425D01*
X142828558Y-70940270D01*
X142241281Y-70697012D01*
X141617832Y-70573000D01*
X140982168Y-70573000D01*
X140358719Y-70697012D01*
X139771442Y-70940270D01*
X139242907Y-71293425D01*
X138793425Y-71742907D01*
X138440270Y-72271442D01*
X138197012Y-72858719D01*
X138073000Y-73482168D01*
X138073000Y-74117832D01*
X138197012Y-74741281D01*
X138440270Y-75328558D01*
X138531437Y-75465000D01*
X124768563Y-75465000D01*
X124859730Y-75328558D01*
X125102988Y-74741281D01*
X125227000Y-74117832D01*
X125227000Y-73482168D01*
X125102988Y-72858719D01*
X124859730Y-72271442D01*
X124506575Y-71742907D01*
X124057093Y-71293425D01*
X123528558Y-70940270D01*
X122941281Y-70697012D01*
X122317832Y-70573000D01*
X121682168Y-70573000D01*
X121058719Y-70697012D01*
X120471442Y-70940270D01*
X120335000Y-71031437D01*
X120335000Y-69877499D01*
X126912106Y-69877499D01*
X127128228Y-70244258D01*
X127588105Y-70484938D01*
X128086098Y-70631275D01*
X128603071Y-70677648D01*
X129119159Y-70622273D01*
X129614526Y-70467279D01*
X130031772Y-70244258D01*
X130242001Y-69887499D01*
X152352106Y-69887499D01*
X152568228Y-70254258D01*
X153028105Y-70494938D01*
X153526098Y-70641275D01*
X154043071Y-70687648D01*
X154559159Y-70632273D01*
X155054526Y-70477279D01*
X155471772Y-70254258D01*
X155687894Y-69887499D01*
X154020000Y-68219605D01*
X152352106Y-69887499D01*
X130242001Y-69887499D01*
X130247894Y-69877499D01*
X128580000Y-68209605D01*
X126912106Y-69877499D01*
X120335000Y-69877499D01*
X120335000Y-68053071D01*
X125932352Y-68053071D01*
X125987727Y-68569159D01*
X126142721Y-69064526D01*
X126365742Y-69481772D01*
X126732501Y-69697894D01*
X128400395Y-68030000D01*
X128759605Y-68030000D01*
X130427499Y-69697894D01*
X130794258Y-69481772D01*
X131034938Y-69021895D01*
X131181275Y-68523902D01*
X131222612Y-68063071D01*
X151372352Y-68063071D01*
X151427727Y-68579159D01*
X151582721Y-69074526D01*
X151805742Y-69491772D01*
X152172501Y-69707894D01*
X153840395Y-68040000D01*
X154199605Y-68040000D01*
X155867499Y-69707894D01*
X156234258Y-69491772D01*
X156474938Y-69031895D01*
X156621275Y-68533902D01*
X156667648Y-68016929D01*
X156612273Y-67500841D01*
X156457279Y-67005474D01*
X156234258Y-66588228D01*
X155867499Y-66372106D01*
X154199605Y-68040000D01*
X153840395Y-68040000D01*
X152172501Y-66372106D01*
X151805742Y-66588228D01*
X151565062Y-67048105D01*
X151418725Y-67546098D01*
X151372352Y-68063071D01*
X131222612Y-68063071D01*
X131227648Y-68006929D01*
X131172273Y-67490841D01*
X131017279Y-66995474D01*
X130794258Y-66578228D01*
X130427499Y-66362106D01*
X128759605Y-68030000D01*
X128400395Y-68030000D01*
X126732501Y-66362106D01*
X126365742Y-66578228D01*
X126125062Y-67038105D01*
X125978725Y-67536098D01*
X125932352Y-68053071D01*
X120335000Y-68053071D01*
X120335000Y-66182501D01*
X126912106Y-66182501D01*
X128580000Y-67850395D01*
X130237894Y-66192501D01*
X152352106Y-66192501D01*
X154020000Y-67860395D01*
X155687894Y-66192501D01*
X155471772Y-65825742D01*
X155011895Y-65585062D01*
X154513902Y-65438725D01*
X153996929Y-65392352D01*
X153480841Y-65447727D01*
X152985474Y-65602721D01*
X152568228Y-65825742D01*
X152352106Y-66192501D01*
X130237894Y-66192501D01*
X130247894Y-66182501D01*
X130031772Y-65815742D01*
X129571895Y-65575062D01*
X129073902Y-65428725D01*
X128556929Y-65382352D01*
X128040841Y-65437727D01*
X127545474Y-65592721D01*
X127128228Y-65815742D01*
X126912106Y-66182501D01*
X120335000Y-66182501D01*
X120335000Y-51233665D01*
X125725000Y-51233665D01*
X125725000Y-51516335D01*
X125780147Y-51793574D01*
X125888320Y-52054727D01*
X126045363Y-52289759D01*
X126245241Y-52489637D01*
X126480273Y-52646680D01*
X126741426Y-52754853D01*
X126767301Y-52760000D01*
X126741426Y-52765147D01*
X126480273Y-52873320D01*
X126245241Y-53030363D01*
X126045363Y-53230241D01*
X125888320Y-53465273D01*
X125780147Y-53726426D01*
X125725000Y-54003665D01*
X125725000Y-54286335D01*
X125780147Y-54563574D01*
X125888320Y-54824727D01*
X126045363Y-55059759D01*
X126245241Y-55259637D01*
X126480273Y-55416680D01*
X126741426Y-55524853D01*
X126767301Y-55530000D01*
X126741426Y-55535147D01*
X126480273Y-55643320D01*
X126245241Y-55800363D01*
X126045363Y-56000241D01*
X125888320Y-56235273D01*
X125780147Y-56496426D01*
X125725000Y-56773665D01*
X125725000Y-57056335D01*
X125780147Y-57333574D01*
X125888320Y-57594727D01*
X126045363Y-57829759D01*
X126245241Y-58029637D01*
X126480273Y-58186680D01*
X126741426Y-58294853D01*
X126767301Y-58300000D01*
X126741426Y-58305147D01*
X126480273Y-58413320D01*
X126245241Y-58570363D01*
X126045363Y-58770241D01*
X125888320Y-59005273D01*
X125780147Y-59266426D01*
X125725000Y-59543665D01*
X125725000Y-59826335D01*
X125780147Y-60103574D01*
X125888320Y-60364727D01*
X126045363Y-60599759D01*
X126245241Y-60799637D01*
X126480273Y-60956680D01*
X126741426Y-61064853D01*
X127018665Y-61120000D01*
X127301335Y-61120000D01*
X127578574Y-61064853D01*
X127839727Y-60956680D01*
X128074759Y-60799637D01*
X128274637Y-60599759D01*
X128431680Y-60364727D01*
X128470917Y-60270000D01*
X128561928Y-60270000D01*
X128561928Y-61870000D01*
X128574188Y-61994482D01*
X128610498Y-62114180D01*
X128669463Y-62224494D01*
X128748815Y-62321185D01*
X128845506Y-62400537D01*
X128955820Y-62459502D01*
X129075518Y-62495812D01*
X129200000Y-62508072D01*
X130800000Y-62508072D01*
X130924482Y-62495812D01*
X131044180Y-62459502D01*
X131154494Y-62400537D01*
X131251185Y-62321185D01*
X131330537Y-62224494D01*
X131389502Y-62114180D01*
X131402084Y-62072702D01*
X151786903Y-62072702D01*
X151858486Y-62316671D01*
X152113996Y-62437571D01*
X152388184Y-62506300D01*
X152670512Y-62520217D01*
X152950130Y-62478787D01*
X153216292Y-62383603D01*
X153341514Y-62316671D01*
X153413097Y-62072702D01*
X152600000Y-61259605D01*
X151786903Y-62072702D01*
X131402084Y-62072702D01*
X131425812Y-61994482D01*
X131438072Y-61870000D01*
X131438072Y-61150512D01*
X151159783Y-61150512D01*
X151201213Y-61430130D01*
X151296397Y-61696292D01*
X151363329Y-61821514D01*
X151607298Y-61893097D01*
X152420395Y-61080000D01*
X152779605Y-61080000D01*
X153592702Y-61893097D01*
X153836671Y-61821514D01*
X153957571Y-61566004D01*
X154026300Y-61291816D01*
X154040217Y-61009488D01*
X153998787Y-60729870D01*
X153903603Y-60463708D01*
X153836671Y-60338486D01*
X153592702Y-60266903D01*
X152779605Y-61080000D01*
X152420395Y-61080000D01*
X151607298Y-60266903D01*
X151363329Y-60338486D01*
X151242429Y-60593996D01*
X151173700Y-60868184D01*
X151159783Y-61150512D01*
X131438072Y-61150512D01*
X131438072Y-60270000D01*
X131425812Y-60145518D01*
X131389502Y-60025820D01*
X131330537Y-59915506D01*
X131251185Y-59818815D01*
X131154494Y-59739463D01*
X131044180Y-59680498D01*
X130924482Y-59644188D01*
X130800000Y-59631928D01*
X130534275Y-59631928D01*
X130679727Y-59571680D01*
X130914759Y-59414637D01*
X131114637Y-59214759D01*
X131271680Y-58979727D01*
X131379853Y-58718574D01*
X131435000Y-58441335D01*
X131435000Y-58158665D01*
X131379853Y-57881426D01*
X131271680Y-57620273D01*
X131114637Y-57385241D01*
X130914759Y-57185363D01*
X130679727Y-57028320D01*
X130418574Y-56920147D01*
X130392699Y-56915000D01*
X130418574Y-56909853D01*
X130679727Y-56801680D01*
X130914759Y-56644637D01*
X131114637Y-56444759D01*
X131271680Y-56209727D01*
X131379853Y-55948574D01*
X131435000Y-55671335D01*
X131435000Y-55388665D01*
X131379853Y-55111426D01*
X131271680Y-54850273D01*
X131114637Y-54615241D01*
X130914759Y-54415363D01*
X130679727Y-54258320D01*
X130418574Y-54150147D01*
X130392699Y-54145000D01*
X130418574Y-54139853D01*
X130679727Y-54031680D01*
X130914759Y-53874637D01*
X131114637Y-53674759D01*
X131271680Y-53439727D01*
X131379853Y-53178574D01*
X131435000Y-52901335D01*
X131435000Y-52618665D01*
X131379853Y-52341426D01*
X131271680Y-52080273D01*
X131114637Y-51845241D01*
X130914759Y-51645363D01*
X130679727Y-51488320D01*
X130418574Y-51380147D01*
X130390118Y-51374487D01*
X130616292Y-51293603D01*
X130741514Y-51226671D01*
X130813097Y-50982702D01*
X130000000Y-50169605D01*
X129186903Y-50982702D01*
X129258486Y-51226671D01*
X129513996Y-51347571D01*
X129616289Y-51373212D01*
X129581426Y-51380147D01*
X129320273Y-51488320D01*
X129085241Y-51645363D01*
X128885363Y-51845241D01*
X128728320Y-52080273D01*
X128620147Y-52341426D01*
X128565000Y-52618665D01*
X128565000Y-52901335D01*
X128620147Y-53178574D01*
X128728320Y-53439727D01*
X128885363Y-53674759D01*
X129085241Y-53874637D01*
X129320273Y-54031680D01*
X129581426Y-54139853D01*
X129607301Y-54145000D01*
X129581426Y-54150147D01*
X129320273Y-54258320D01*
X129085241Y-54415363D01*
X128885363Y-54615241D01*
X128728320Y-54850273D01*
X128620147Y-55111426D01*
X128565000Y-55388665D01*
X128565000Y-55671335D01*
X128620147Y-55948574D01*
X128728320Y-56209727D01*
X128885363Y-56444759D01*
X129085241Y-56644637D01*
X129320273Y-56801680D01*
X129581426Y-56909853D01*
X129607301Y-56915000D01*
X129581426Y-56920147D01*
X129320273Y-57028320D01*
X129085241Y-57185363D01*
X128885363Y-57385241D01*
X128728320Y-57620273D01*
X128620147Y-57881426D01*
X128565000Y-58158665D01*
X128565000Y-58441335D01*
X128620147Y-58718574D01*
X128728320Y-58979727D01*
X128885363Y-59214759D01*
X129085241Y-59414637D01*
X129320273Y-59571680D01*
X129465725Y-59631928D01*
X129200000Y-59631928D01*
X129075518Y-59644188D01*
X128955820Y-59680498D01*
X128845506Y-59739463D01*
X128748815Y-59818815D01*
X128669463Y-59915506D01*
X128610498Y-60025820D01*
X128574188Y-60145518D01*
X128561928Y-60270000D01*
X128470917Y-60270000D01*
X128539853Y-60103574D01*
X128595000Y-59826335D01*
X128595000Y-59543665D01*
X128539853Y-59266426D01*
X128431680Y-59005273D01*
X128274637Y-58770241D01*
X128074759Y-58570363D01*
X127839727Y-58413320D01*
X127578574Y-58305147D01*
X127552699Y-58300000D01*
X127578574Y-58294853D01*
X127839727Y-58186680D01*
X128074759Y-58029637D01*
X128274637Y-57829759D01*
X128431680Y-57594727D01*
X128539853Y-57333574D01*
X128595000Y-57056335D01*
X128595000Y-56773665D01*
X128539853Y-56496426D01*
X128431680Y-56235273D01*
X128274637Y-56000241D01*
X128074759Y-55800363D01*
X127839727Y-55643320D01*
X127578574Y-55535147D01*
X127552699Y-55530000D01*
X127578574Y-55524853D01*
X127839727Y-55416680D01*
X128074759Y-55259637D01*
X128274637Y-55059759D01*
X128431680Y-54824727D01*
X128539853Y-54563574D01*
X128595000Y-54286335D01*
X128595000Y-54003665D01*
X128539853Y-53726426D01*
X128431680Y-53465273D01*
X128274637Y-53230241D01*
X128074759Y-53030363D01*
X127839727Y-52873320D01*
X127578574Y-52765147D01*
X127552699Y-52760000D01*
X127578574Y-52754853D01*
X127839727Y-52646680D01*
X128074759Y-52489637D01*
X128274637Y-52289759D01*
X128431680Y-52054727D01*
X128539853Y-51793574D01*
X128595000Y-51516335D01*
X128595000Y-51233665D01*
X128539853Y-50956426D01*
X128431680Y-50695273D01*
X128274637Y-50460241D01*
X128074759Y-50260363D01*
X127839727Y-50103320D01*
X127736380Y-50060512D01*
X128559783Y-50060512D01*
X128601213Y-50340130D01*
X128696397Y-50606292D01*
X128763329Y-50731514D01*
X129007298Y-50803097D01*
X129820395Y-49990000D01*
X130179605Y-49990000D01*
X130992702Y-50803097D01*
X131236671Y-50731514D01*
X131357571Y-50476004D01*
X131426300Y-50201816D01*
X131440217Y-49919488D01*
X131398787Y-49639870D01*
X131303603Y-49373708D01*
X131236671Y-49248486D01*
X131071422Y-49200000D01*
X151161928Y-49200000D01*
X151161928Y-50800000D01*
X151174188Y-50924482D01*
X151210498Y-51044180D01*
X151269463Y-51154494D01*
X151348815Y-51251185D01*
X151445506Y-51330537D01*
X151555820Y-51389502D01*
X151675518Y-51425812D01*
X151800000Y-51438072D01*
X152065725Y-51438072D01*
X151920273Y-51498320D01*
X151685241Y-51655363D01*
X151485363Y-51855241D01*
X151328320Y-52090273D01*
X151220147Y-52351426D01*
X151165000Y-52628665D01*
X151165000Y-52911335D01*
X151220147Y-53188574D01*
X151328320Y-53449727D01*
X151485363Y-53684759D01*
X151685241Y-53884637D01*
X151920273Y-54041680D01*
X152181426Y-54149853D01*
X152207301Y-54155000D01*
X152181426Y-54160147D01*
X151920273Y-54268320D01*
X151685241Y-54425363D01*
X151485363Y-54625241D01*
X151328320Y-54860273D01*
X151220147Y-55121426D01*
X151165000Y-55398665D01*
X151165000Y-55681335D01*
X151220147Y-55958574D01*
X151328320Y-56219727D01*
X151485363Y-56454759D01*
X151685241Y-56654637D01*
X151920273Y-56811680D01*
X152181426Y-56919853D01*
X152207301Y-56925000D01*
X152181426Y-56930147D01*
X151920273Y-57038320D01*
X151685241Y-57195363D01*
X151485363Y-57395241D01*
X151328320Y-57630273D01*
X151220147Y-57891426D01*
X151165000Y-58168665D01*
X151165000Y-58451335D01*
X151220147Y-58728574D01*
X151328320Y-58989727D01*
X151485363Y-59224759D01*
X151685241Y-59424637D01*
X151920273Y-59581680D01*
X152181426Y-59689853D01*
X152209882Y-59695513D01*
X151983708Y-59776397D01*
X151858486Y-59843329D01*
X151786903Y-60087298D01*
X152600000Y-60900395D01*
X153413097Y-60087298D01*
X153341514Y-59843329D01*
X153086004Y-59722429D01*
X152983711Y-59696788D01*
X153018574Y-59689853D01*
X153279727Y-59581680D01*
X153514759Y-59424637D01*
X153714637Y-59224759D01*
X153871680Y-58989727D01*
X153979853Y-58728574D01*
X154035000Y-58451335D01*
X154035000Y-58168665D01*
X153979853Y-57891426D01*
X153871680Y-57630273D01*
X153714637Y-57395241D01*
X153514759Y-57195363D01*
X153279727Y-57038320D01*
X153018574Y-56930147D01*
X152992699Y-56925000D01*
X153018574Y-56919853D01*
X153279727Y-56811680D01*
X153514759Y-56654637D01*
X153714637Y-56454759D01*
X153871680Y-56219727D01*
X153979853Y-55958574D01*
X154035000Y-55681335D01*
X154035000Y-55398665D01*
X153979853Y-55121426D01*
X153871680Y-54860273D01*
X153714637Y-54625241D01*
X153514759Y-54425363D01*
X153279727Y-54268320D01*
X153018574Y-54160147D01*
X152992699Y-54155000D01*
X153018574Y-54149853D01*
X153279727Y-54041680D01*
X153514759Y-53884637D01*
X153714637Y-53684759D01*
X153871680Y-53449727D01*
X153979853Y-53188574D01*
X154035000Y-52911335D01*
X154035000Y-52628665D01*
X153979853Y-52351426D01*
X153871680Y-52090273D01*
X153714637Y-51855241D01*
X153514759Y-51655363D01*
X153279727Y-51498320D01*
X153134275Y-51438072D01*
X153400000Y-51438072D01*
X153524482Y-51425812D01*
X153644180Y-51389502D01*
X153754494Y-51330537D01*
X153851185Y-51251185D01*
X153857356Y-51243665D01*
X154005000Y-51243665D01*
X154005000Y-51526335D01*
X154060147Y-51803574D01*
X154168320Y-52064727D01*
X154325363Y-52299759D01*
X154525241Y-52499637D01*
X154760273Y-52656680D01*
X155021426Y-52764853D01*
X155047301Y-52770000D01*
X155021426Y-52775147D01*
X154760273Y-52883320D01*
X154525241Y-53040363D01*
X154325363Y-53240241D01*
X154168320Y-53475273D01*
X154060147Y-53736426D01*
X154005000Y-54013665D01*
X154005000Y-54296335D01*
X154060147Y-54573574D01*
X154168320Y-54834727D01*
X154325363Y-55069759D01*
X154525241Y-55269637D01*
X154760273Y-55426680D01*
X155021426Y-55534853D01*
X155047301Y-55540000D01*
X155021426Y-55545147D01*
X154760273Y-55653320D01*
X154525241Y-55810363D01*
X154325363Y-56010241D01*
X154168320Y-56245273D01*
X154060147Y-56506426D01*
X154005000Y-56783665D01*
X154005000Y-57066335D01*
X154060147Y-57343574D01*
X154168320Y-57604727D01*
X154325363Y-57839759D01*
X154525241Y-58039637D01*
X154760273Y-58196680D01*
X155021426Y-58304853D01*
X155047301Y-58310000D01*
X155021426Y-58315147D01*
X154760273Y-58423320D01*
X154525241Y-58580363D01*
X154325363Y-58780241D01*
X154168320Y-59015273D01*
X154060147Y-59276426D01*
X154005000Y-59553665D01*
X154005000Y-59836335D01*
X154060147Y-60113574D01*
X154168320Y-60374727D01*
X154325363Y-60609759D01*
X154525241Y-60809637D01*
X154760273Y-60966680D01*
X155021426Y-61074853D01*
X155298665Y-61130000D01*
X155581335Y-61130000D01*
X155858574Y-61074853D01*
X156119727Y-60966680D01*
X156354759Y-60809637D01*
X156554637Y-60609759D01*
X156711680Y-60374727D01*
X156819853Y-60113574D01*
X156875000Y-59836335D01*
X156875000Y-59553665D01*
X156819853Y-59276426D01*
X156711680Y-59015273D01*
X156554637Y-58780241D01*
X156354759Y-58580363D01*
X156119727Y-58423320D01*
X155858574Y-58315147D01*
X155832699Y-58310000D01*
X155858574Y-58304853D01*
X156119727Y-58196680D01*
X156354759Y-58039637D01*
X156554637Y-57839759D01*
X156711680Y-57604727D01*
X156819853Y-57343574D01*
X156875000Y-57066335D01*
X156875000Y-56783665D01*
X156819853Y-56506426D01*
X156711680Y-56245273D01*
X156554637Y-56010241D01*
X156354759Y-55810363D01*
X156119727Y-55653320D01*
X155858574Y-55545147D01*
X155832699Y-55540000D01*
X155858574Y-55534853D01*
X156119727Y-55426680D01*
X156354759Y-55269637D01*
X156554637Y-55069759D01*
X156711680Y-54834727D01*
X156819853Y-54573574D01*
X156875000Y-54296335D01*
X156875000Y-54013665D01*
X156819853Y-53736426D01*
X156711680Y-53475273D01*
X156554637Y-53240241D01*
X156354759Y-53040363D01*
X156119727Y-52883320D01*
X155858574Y-52775147D01*
X155832699Y-52770000D01*
X155858574Y-52764853D01*
X156119727Y-52656680D01*
X156354759Y-52499637D01*
X156554637Y-52299759D01*
X156711680Y-52064727D01*
X156819853Y-51803574D01*
X156875000Y-51526335D01*
X156875000Y-51243665D01*
X156819853Y-50966426D01*
X156711680Y-50705273D01*
X156554637Y-50470241D01*
X156354759Y-50270363D01*
X156119727Y-50113320D01*
X155858574Y-50005147D01*
X155581335Y-49950000D01*
X155298665Y-49950000D01*
X155021426Y-50005147D01*
X154760273Y-50113320D01*
X154525241Y-50270363D01*
X154325363Y-50470241D01*
X154168320Y-50705273D01*
X154060147Y-50966426D01*
X154005000Y-51243665D01*
X153857356Y-51243665D01*
X153930537Y-51154494D01*
X153989502Y-51044180D01*
X154025812Y-50924482D01*
X154038072Y-50800000D01*
X154038072Y-49200000D01*
X154025812Y-49075518D01*
X153989502Y-48955820D01*
X153930537Y-48845506D01*
X153851185Y-48748815D01*
X153754494Y-48669463D01*
X153644180Y-48610498D01*
X153524482Y-48574188D01*
X153400000Y-48561928D01*
X151800000Y-48561928D01*
X151675518Y-48574188D01*
X151555820Y-48610498D01*
X151445506Y-48669463D01*
X151348815Y-48748815D01*
X151269463Y-48845506D01*
X151210498Y-48955820D01*
X151174188Y-49075518D01*
X151161928Y-49200000D01*
X131071422Y-49200000D01*
X130992702Y-49176903D01*
X130179605Y-49990000D01*
X129820395Y-49990000D01*
X129007298Y-49176903D01*
X128763329Y-49248486D01*
X128642429Y-49503996D01*
X128573700Y-49778184D01*
X128559783Y-50060512D01*
X127736380Y-50060512D01*
X127578574Y-49995147D01*
X127301335Y-49940000D01*
X127018665Y-49940000D01*
X126741426Y-49995147D01*
X126480273Y-50103320D01*
X126245241Y-50260363D01*
X126045363Y-50460241D01*
X125888320Y-50695273D01*
X125780147Y-50956426D01*
X125725000Y-51233665D01*
X120335000Y-51233665D01*
X120335000Y-48997298D01*
X129186903Y-48997298D01*
X130000000Y-49810395D01*
X130813097Y-48997298D01*
X130741514Y-48753329D01*
X130486004Y-48632429D01*
X130211816Y-48563700D01*
X129929488Y-48549783D01*
X129649870Y-48591213D01*
X129383708Y-48686397D01*
X129258486Y-48753329D01*
X129186903Y-48997298D01*
X120335000Y-48997298D01*
X120335000Y-44877499D01*
X126912106Y-44877499D01*
X127128228Y-45244258D01*
X127588105Y-45484938D01*
X128086098Y-45631275D01*
X128603071Y-45677648D01*
X129119159Y-45622273D01*
X129614526Y-45467279D01*
X130031772Y-45244258D01*
X130242001Y-44887499D01*
X152352106Y-44887499D01*
X152568228Y-45254258D01*
X153028105Y-45494938D01*
X153526098Y-45641275D01*
X154043071Y-45687648D01*
X154559159Y-45632273D01*
X155054526Y-45477279D01*
X155471772Y-45254258D01*
X155687894Y-44887499D01*
X154020000Y-43219605D01*
X152352106Y-44887499D01*
X130242001Y-44887499D01*
X130247894Y-44877499D01*
X128580000Y-43209605D01*
X126912106Y-44877499D01*
X120335000Y-44877499D01*
X120335000Y-43053071D01*
X125932352Y-43053071D01*
X125987727Y-43569159D01*
X126142721Y-44064526D01*
X126365742Y-44481772D01*
X126732501Y-44697894D01*
X128400395Y-43030000D01*
X128759605Y-43030000D01*
X130427499Y-44697894D01*
X130794258Y-44481772D01*
X131034938Y-44021895D01*
X131181275Y-43523902D01*
X131222612Y-43063071D01*
X151372352Y-43063071D01*
X151427727Y-43579159D01*
X151582721Y-44074526D01*
X151805742Y-44491772D01*
X152172501Y-44707894D01*
X153840395Y-43040000D01*
X154199605Y-43040000D01*
X155867499Y-44707894D01*
X156234258Y-44491772D01*
X156474938Y-44031895D01*
X156621275Y-43533902D01*
X156667648Y-43016929D01*
X156612273Y-42500841D01*
X156457279Y-42005474D01*
X156234258Y-41588228D01*
X155867499Y-41372106D01*
X154199605Y-43040000D01*
X153840395Y-43040000D01*
X152172501Y-41372106D01*
X151805742Y-41588228D01*
X151565062Y-42048105D01*
X151418725Y-42546098D01*
X151372352Y-43063071D01*
X131222612Y-43063071D01*
X131227648Y-43006929D01*
X131172273Y-42490841D01*
X131017279Y-41995474D01*
X130794258Y-41578228D01*
X130427499Y-41362106D01*
X128759605Y-43030000D01*
X128400395Y-43030000D01*
X126732501Y-41362106D01*
X126365742Y-41578228D01*
X126125062Y-42038105D01*
X125978725Y-42536098D01*
X125932352Y-43053071D01*
X120335000Y-43053071D01*
X120335000Y-41182501D01*
X126912106Y-41182501D01*
X128580000Y-42850395D01*
X130237894Y-41192501D01*
X152352106Y-41192501D01*
X154020000Y-42860395D01*
X155687894Y-41192501D01*
X155471772Y-40825742D01*
X155011895Y-40585062D01*
X154513902Y-40438725D01*
X153996929Y-40392352D01*
X153480841Y-40447727D01*
X152985474Y-40602721D01*
X152568228Y-40825742D01*
X152352106Y-41192501D01*
X130237894Y-41192501D01*
X130247894Y-41182501D01*
X130031772Y-40815742D01*
X129571895Y-40575062D01*
X129073902Y-40428725D01*
X128556929Y-40382352D01*
X128040841Y-40437727D01*
X127545474Y-40592721D01*
X127128228Y-40815742D01*
X126912106Y-41182501D01*
X120335000Y-41182501D01*
X120335000Y-40168563D01*
X120471442Y-40259730D01*
X121058719Y-40502988D01*
X121682168Y-40627000D01*
X122317832Y-40627000D01*
X122941281Y-40502988D01*
X123528558Y-40259730D01*
X124057093Y-39906575D01*
X124506575Y-39457093D01*
X124859730Y-38928558D01*
X125102988Y-38341281D01*
X125227000Y-37717832D01*
X125227000Y-37082168D01*
X125102988Y-36458719D01*
X124859730Y-35871442D01*
X124768563Y-35735000D01*
X138531437Y-35735000D01*
X138440270Y-35871442D01*
G37*
G04 #@! TD.AperFunction*
M02*
