G04 #@! TF.FileFunction,Legend,Bot*
%FSLAX46Y46*%
G04 Gerber Fmt 4.6, Leading zero omitted, Abs format (unit mm)*
G04 Created by KiCad (PCBNEW 4.0.7-e2-6376~58~ubuntu16.04.1) date Sat Jul  7 02:27:32 2018*
%MOMM*%
%LPD*%
G01*
G04 APERTURE LIST*
%ADD10C,0.100000*%
%ADD11C,0.120000*%
%ADD12C,0.150000*%
G04 APERTURE END LIST*
D10*
D11*
X86774900Y-93243200D02*
X86774900Y-90583200D01*
X89374900Y-93243200D02*
X86774900Y-93243200D01*
X89374900Y-90583200D02*
X86774900Y-90583200D01*
X89374900Y-93243200D02*
X89374900Y-90583200D01*
X90644900Y-93243200D02*
X91974900Y-93243200D01*
X91974900Y-93243200D02*
X91974900Y-91913200D01*
D12*
X84892500Y-62934500D02*
X95687500Y-62934500D01*
X84892500Y-69411500D02*
X84892500Y-62934500D01*
X95687500Y-69411500D02*
X84892500Y-69411500D01*
X95687500Y-62934500D02*
X95687500Y-69411500D01*
X92643000Y-55692200D02*
X90643000Y-55692200D01*
X92643000Y-54892200D02*
X91843000Y-54892200D01*
X90643000Y-55692200D02*
X90643000Y-56492200D01*
X85443000Y-55692200D02*
X86843000Y-55692200D01*
X86843000Y-55692200D02*
X87043000Y-55692200D01*
X87043000Y-55692200D02*
X87243000Y-55692200D01*
X87243000Y-55692200D02*
X87243000Y-56292200D01*
X87243000Y-56292200D02*
X87243000Y-56492200D01*
X87243000Y-56492200D02*
X87243000Y-56292200D01*
X91843000Y-54892200D02*
X91843000Y-51692200D01*
X91843000Y-51692200D02*
X86243000Y-51692200D01*
X86243000Y-51692200D02*
X86243000Y-54692200D01*
X86243000Y-54692200D02*
X85443000Y-54692200D01*
X92643000Y-50892200D02*
X85443000Y-50892200D01*
X85443000Y-50892200D02*
X85443000Y-56492200D01*
X85443000Y-56492200D02*
X92643000Y-56492200D01*
X92643000Y-56492200D02*
X92643000Y-50892200D01*
X95687500Y-76165500D02*
X84892500Y-76165500D01*
X95687500Y-69688500D02*
X95687500Y-76165500D01*
X84892500Y-69688500D02*
X95687500Y-69688500D01*
X84892500Y-76165500D02*
X84892500Y-69688500D01*
D11*
X88440000Y-109550000D02*
X88440000Y-94190000D01*
X88440000Y-94190000D02*
X91100000Y-94190000D01*
X91100000Y-94190000D02*
X91100000Y-109550000D01*
X91100000Y-109550000D02*
X88440000Y-109550000D01*
X91100000Y-108600000D02*
X97100000Y-108600000D01*
X97100000Y-108600000D02*
X97100000Y-107840000D01*
X97100000Y-107840000D02*
X91100000Y-107840000D01*
X91100000Y-108540000D02*
X97100000Y-108540000D01*
X91100000Y-108420000D02*
X97100000Y-108420000D01*
X91100000Y-108300000D02*
X97100000Y-108300000D01*
X91100000Y-108180000D02*
X97100000Y-108180000D01*
X91100000Y-108060000D02*
X97100000Y-108060000D01*
X91100000Y-107940000D02*
X97100000Y-107940000D01*
X88110000Y-108600000D02*
X88440000Y-108600000D01*
X88110000Y-107840000D02*
X88440000Y-107840000D01*
X88440000Y-106950000D02*
X91100000Y-106950000D01*
X91100000Y-106060000D02*
X97100000Y-106060000D01*
X97100000Y-106060000D02*
X97100000Y-105300000D01*
X97100000Y-105300000D02*
X91100000Y-105300000D01*
X88042929Y-106060000D02*
X88440000Y-106060000D01*
X88042929Y-105300000D02*
X88440000Y-105300000D01*
X88440000Y-104410000D02*
X91100000Y-104410000D01*
X91100000Y-103520000D02*
X97100000Y-103520000D01*
X97100000Y-103520000D02*
X97100000Y-102760000D01*
X97100000Y-102760000D02*
X91100000Y-102760000D01*
X88042929Y-103520000D02*
X88440000Y-103520000D01*
X88042929Y-102760000D02*
X88440000Y-102760000D01*
X88440000Y-101870000D02*
X91100000Y-101870000D01*
X91100000Y-100980000D02*
X97100000Y-100980000D01*
X97100000Y-100980000D02*
X97100000Y-100220000D01*
X97100000Y-100220000D02*
X91100000Y-100220000D01*
X88042929Y-100980000D02*
X88440000Y-100980000D01*
X88042929Y-100220000D02*
X88440000Y-100220000D01*
X88440000Y-99330000D02*
X91100000Y-99330000D01*
X91100000Y-98440000D02*
X97100000Y-98440000D01*
X97100000Y-98440000D02*
X97100000Y-97680000D01*
X97100000Y-97680000D02*
X91100000Y-97680000D01*
X88042929Y-98440000D02*
X88440000Y-98440000D01*
X88042929Y-97680000D02*
X88440000Y-97680000D01*
X88440000Y-96790000D02*
X91100000Y-96790000D01*
X91100000Y-95900000D02*
X97100000Y-95900000D01*
X97100000Y-95900000D02*
X97100000Y-95140000D01*
X97100000Y-95140000D02*
X91100000Y-95140000D01*
X88042929Y-95900000D02*
X88440000Y-95900000D01*
X88042929Y-95140000D02*
X88440000Y-95140000D01*
X85730000Y-108220000D02*
X85730000Y-109490000D01*
X85730000Y-109490000D02*
X87000000Y-109490000D01*
D12*
X87876973Y-88880701D02*
X87876973Y-89594987D01*
X87924593Y-89737844D01*
X88019831Y-89833082D01*
X88162688Y-89880701D01*
X88257926Y-89880701D01*
X86876973Y-89880701D02*
X87448402Y-89880701D01*
X87162688Y-89880701D02*
X87162688Y-88880701D01*
X87257926Y-89023558D01*
X87353164Y-89118796D01*
X87448402Y-89166415D01*
X86876213Y-61324241D02*
X86876213Y-62038527D01*
X86923833Y-62181384D01*
X87019071Y-62276622D01*
X87161928Y-62324241D01*
X87257166Y-62324241D01*
X86447642Y-61419479D02*
X86400023Y-61371860D01*
X86304785Y-61324241D01*
X86066689Y-61324241D01*
X85971451Y-61371860D01*
X85923832Y-61419479D01*
X85876213Y-61514717D01*
X85876213Y-61609955D01*
X85923832Y-61752812D01*
X86495261Y-62324241D01*
X85876213Y-62324241D01*
X84545533Y-51268381D02*
X84545533Y-51982667D01*
X84593153Y-52125524D01*
X84688391Y-52220762D01*
X84831248Y-52268381D01*
X84926486Y-52268381D01*
X84164581Y-51268381D02*
X83545533Y-51268381D01*
X83878867Y-51649333D01*
X83736009Y-51649333D01*
X83640771Y-51696952D01*
X83593152Y-51744571D01*
X83545533Y-51839810D01*
X83545533Y-52077905D01*
X83593152Y-52173143D01*
X83640771Y-52220762D01*
X83736009Y-52268381D01*
X84021724Y-52268381D01*
X84116962Y-52220762D01*
X84164581Y-52173143D01*
X86866053Y-76655681D02*
X86866053Y-77369967D01*
X86913673Y-77512824D01*
X87008911Y-77608062D01*
X87151768Y-77655681D01*
X87247006Y-77655681D01*
X85961291Y-76989014D02*
X85961291Y-77655681D01*
X86199387Y-76608062D02*
X86437482Y-77322348D01*
X85818434Y-77322348D01*
X91718333Y-109942381D02*
X91718333Y-110656667D01*
X91765953Y-110799524D01*
X91861191Y-110894762D01*
X92004048Y-110942381D01*
X92099286Y-110942381D01*
X90765952Y-109942381D02*
X91242143Y-109942381D01*
X91289762Y-110418571D01*
X91242143Y-110370952D01*
X91146905Y-110323333D01*
X90908809Y-110323333D01*
X90813571Y-110370952D01*
X90765952Y-110418571D01*
X90718333Y-110513810D01*
X90718333Y-110751905D01*
X90765952Y-110847143D01*
X90813571Y-110894762D01*
X90908809Y-110942381D01*
X91146905Y-110942381D01*
X91242143Y-110894762D01*
X91289762Y-110847143D01*
X56760905Y-94516961D02*
X56189476Y-94516961D01*
X56475191Y-95516961D02*
X56475191Y-94516961D01*
X55856143Y-95516961D02*
X55856143Y-94516961D01*
X55475190Y-94516961D01*
X55379952Y-94564580D01*
X55332333Y-94612199D01*
X55284714Y-94707437D01*
X55284714Y-94850294D01*
X55332333Y-94945532D01*
X55379952Y-94993151D01*
X55475190Y-95040770D01*
X55856143Y-95040770D01*
X54332333Y-95516961D02*
X54903762Y-95516961D01*
X54618048Y-95516961D02*
X54618048Y-94516961D01*
X54713286Y-94659818D01*
X54808524Y-94755056D01*
X54903762Y-94802675D01*
X72539385Y-92817701D02*
X71967956Y-92817701D01*
X72253671Y-93817701D02*
X72253671Y-92817701D01*
X71634623Y-93817701D02*
X71634623Y-92817701D01*
X71253670Y-92817701D01*
X71158432Y-92865320D01*
X71110813Y-92912939D01*
X71063194Y-93008177D01*
X71063194Y-93151034D01*
X71110813Y-93246272D01*
X71158432Y-93293891D01*
X71253670Y-93341510D01*
X71634623Y-93341510D01*
X70682242Y-92912939D02*
X70634623Y-92865320D01*
X70539385Y-92817701D01*
X70301289Y-92817701D01*
X70206051Y-92865320D01*
X70158432Y-92912939D01*
X70110813Y-93008177D01*
X70110813Y-93103415D01*
X70158432Y-93246272D01*
X70729861Y-93817701D01*
X70110813Y-93817701D01*
X67070765Y-95921581D02*
X66499336Y-95921581D01*
X66785051Y-96921581D02*
X66785051Y-95921581D01*
X66166003Y-96921581D02*
X66166003Y-95921581D01*
X65785050Y-95921581D01*
X65689812Y-95969200D01*
X65642193Y-96016819D01*
X65594574Y-96112057D01*
X65594574Y-96254914D01*
X65642193Y-96350152D01*
X65689812Y-96397771D01*
X65785050Y-96445390D01*
X66166003Y-96445390D01*
X65261241Y-95921581D02*
X64642193Y-95921581D01*
X64975527Y-96302533D01*
X64832669Y-96302533D01*
X64737431Y-96350152D01*
X64689812Y-96397771D01*
X64642193Y-96493010D01*
X64642193Y-96731105D01*
X64689812Y-96826343D01*
X64737431Y-96873962D01*
X64832669Y-96921581D01*
X65118384Y-96921581D01*
X65213622Y-96873962D01*
X65261241Y-96826343D01*
X54071045Y-71207381D02*
X53499616Y-71207381D01*
X53785331Y-72207381D02*
X53785331Y-71207381D01*
X53166283Y-72207381D02*
X53166283Y-71207381D01*
X52785330Y-71207381D01*
X52690092Y-71255000D01*
X52642473Y-71302619D01*
X52594854Y-71397857D01*
X52594854Y-71540714D01*
X52642473Y-71635952D01*
X52690092Y-71683571D01*
X52785330Y-71731190D01*
X53166283Y-71731190D01*
X51737711Y-71540714D02*
X51737711Y-72207381D01*
X51975807Y-71159762D02*
X52213902Y-71874048D01*
X51594854Y-71874048D01*
X62558395Y-95883481D02*
X61986966Y-95883481D01*
X62272681Y-96883481D02*
X62272681Y-95883481D01*
X61653633Y-96883481D02*
X61653633Y-95883481D01*
X61272680Y-95883481D01*
X61177442Y-95931100D01*
X61129823Y-95978719D01*
X61082204Y-96073957D01*
X61082204Y-96216814D01*
X61129823Y-96312052D01*
X61177442Y-96359671D01*
X61272680Y-96407290D01*
X61653633Y-96407290D01*
X60129823Y-96883481D02*
X60701252Y-96883481D01*
X60415538Y-96883481D02*
X60415538Y-95883481D01*
X60510776Y-96026338D01*
X60606014Y-96121576D01*
X60701252Y-96169195D01*
X59510776Y-95883481D02*
X59415537Y-95883481D01*
X59320299Y-95931100D01*
X59272680Y-95978719D01*
X59225061Y-96073957D01*
X59177442Y-96264433D01*
X59177442Y-96502529D01*
X59225061Y-96693005D01*
X59272680Y-96788243D01*
X59320299Y-96835862D01*
X59415537Y-96883481D01*
X59510776Y-96883481D01*
X59606014Y-96835862D01*
X59653633Y-96788243D01*
X59701252Y-96693005D01*
X59748871Y-96502529D01*
X59748871Y-96264433D01*
X59701252Y-96073957D01*
X59653633Y-95978719D01*
X59606014Y-95931100D01*
X59510776Y-95883481D01*
X54717415Y-67316101D02*
X54145986Y-67316101D01*
X54431701Y-68316101D02*
X54431701Y-67316101D01*
X53812653Y-68316101D02*
X53812653Y-67316101D01*
X53431700Y-67316101D01*
X53336462Y-67363720D01*
X53288843Y-67411339D01*
X53241224Y-67506577D01*
X53241224Y-67649434D01*
X53288843Y-67744672D01*
X53336462Y-67792291D01*
X53431700Y-67839910D01*
X53812653Y-67839910D01*
X52288843Y-68316101D02*
X52860272Y-68316101D01*
X52574558Y-68316101D02*
X52574558Y-67316101D01*
X52669796Y-67458958D01*
X52765034Y-67554196D01*
X52860272Y-67601815D01*
X51336462Y-68316101D02*
X51907891Y-68316101D01*
X51622177Y-68316101D02*
X51622177Y-67316101D01*
X51717415Y-67458958D01*
X51812653Y-67554196D01*
X51907891Y-67601815D01*
M02*
