G04 #@! TF.FileFunction,Copper,L2,Bot,Signal*
%FSLAX46Y46*%
G04 Gerber Fmt 4.6, Leading zero omitted, Abs format (unit mm)*
G04 Created by KiCad (PCBNEW 4.0.7-e2-6376~58~ubuntu16.04.1) date Sat Jul  7 02:27:32 2018*
%MOMM*%
%LPD*%
G01*
G04 APERTURE LIST*
%ADD10C,0.100000*%
%ADD11C,0.600000*%
%ADD12R,1.700000X1.700000*%
%ADD13O,1.700000X1.700000*%
%ADD14R,1.800000X3.000000*%
%ADD15O,1.800000X3.000000*%
%ADD16R,2.000000X2.000000*%
%ADD17C,2.000000*%
%ADD18C,1.500000*%
%ADD19C,0.400000*%
%ADD20C,0.381000*%
%ADD21C,0.203200*%
%ADD22C,0.508000*%
%ADD23C,0.254000*%
G04 APERTURE END LIST*
D10*
D11*
X66840100Y-98140520D03*
X94109540Y-75404980D03*
X91434920Y-76979780D03*
X89720420Y-75377040D03*
X74422000Y-65024000D03*
X72898000Y-65024000D03*
X76962000Y-59182000D03*
X73406000Y-57658000D03*
X61795660Y-67218560D03*
X60706000Y-54356000D03*
X56642000Y-66802000D03*
X54356000Y-65786000D03*
X53594000Y-65024000D03*
X54610000Y-58420000D03*
X54610000Y-57150000D03*
X54673500Y-53477160D03*
X54648100Y-54576980D03*
X68834000Y-93218000D03*
X60706000Y-98044000D03*
X67818000Y-90932000D03*
X55880000Y-91186000D03*
X55880000Y-90170000D03*
X68072000Y-74930000D03*
X65786000Y-76200000D03*
X68072000Y-77470000D03*
X66294000Y-77470000D03*
X64770000Y-77470000D03*
X62992000Y-77470000D03*
X61468000Y-77470000D03*
X60706000Y-81534000D03*
X60452000Y-80772000D03*
X59182000Y-83312000D03*
X53086000Y-82296000D03*
X53086000Y-80772000D03*
X53086000Y-79248000D03*
X68580000Y-67056000D03*
X67564000Y-66040000D03*
X69596000Y-65532000D03*
X67818000Y-63754000D03*
X71120000Y-98044000D03*
X71120000Y-94488000D03*
X76200000Y-98044000D03*
X76200000Y-94488000D03*
X76200000Y-91186000D03*
X93218000Y-58928000D03*
X94742000Y-58928000D03*
X94742000Y-57404000D03*
X93218000Y-57404000D03*
X66548000Y-80772000D03*
X66548000Y-80010000D03*
X70866000Y-86106000D03*
X71882000Y-86106000D03*
X71856600Y-82456020D03*
D12*
X90644900Y-91913200D03*
D13*
X88104900Y-91913200D03*
D14*
X94100000Y-66300000D03*
D15*
X91560000Y-66300000D03*
X86480000Y-66300000D03*
X89020000Y-66300000D03*
D16*
X90313000Y-53892200D03*
D17*
X87773000Y-53892200D03*
D14*
X86480000Y-72800000D03*
D15*
X89020000Y-72800000D03*
X94100000Y-72800000D03*
X91560000Y-72800000D03*
D12*
X87000000Y-108220000D03*
D13*
X87000000Y-105680000D03*
X87000000Y-103140000D03*
X87000000Y-100600000D03*
X87000000Y-98060000D03*
X87000000Y-95520000D03*
D12*
X83980000Y-72820000D03*
D13*
X81440000Y-72820000D03*
X78900000Y-72820000D03*
X76360000Y-72820000D03*
X73820000Y-72820000D03*
X71280000Y-72820000D03*
X68740000Y-72820000D03*
X66200000Y-72820000D03*
X63660000Y-72820000D03*
X61120000Y-72820000D03*
X58580000Y-72820000D03*
X56040000Y-72820000D03*
D12*
X56040000Y-75360000D03*
D13*
X58580000Y-75360000D03*
X61120000Y-75360000D03*
X63660000Y-75360000D03*
D12*
X62184200Y-58207400D03*
D13*
X62184200Y-55667400D03*
X62184200Y-53127400D03*
D12*
X83980000Y-107830000D03*
D13*
X83980000Y-110370000D03*
X81440000Y-107830000D03*
X81440000Y-110370000D03*
X78900000Y-107830000D03*
X78900000Y-110370000D03*
X76360000Y-107830000D03*
X76360000Y-110370000D03*
X73820000Y-107830000D03*
X73820000Y-110370000D03*
X71280000Y-107830000D03*
X71280000Y-110370000D03*
X68740000Y-107830000D03*
X68740000Y-110370000D03*
X66200000Y-107830000D03*
X66200000Y-110370000D03*
X63660000Y-107830000D03*
X63660000Y-110370000D03*
X61120000Y-107830000D03*
X61120000Y-110370000D03*
X58580000Y-107830000D03*
X58580000Y-110370000D03*
X56040000Y-107830000D03*
X56040000Y-110370000D03*
D12*
X65700000Y-54175000D03*
D13*
X65700000Y-56715000D03*
X65700000Y-59255000D03*
X65700000Y-61795000D03*
X65700000Y-64335000D03*
X65700000Y-66875000D03*
X65700000Y-69415000D03*
D18*
X56134000Y-92964000D03*
X71270000Y-91170000D03*
X65786000Y-94234000D03*
X55970000Y-70700000D03*
X60440000Y-94234000D03*
X53848000Y-69342000D03*
D11*
X70850760Y-82430620D03*
D19*
X62485800Y-89283600D03*
X62485800Y-87883600D03*
X63885800Y-89283600D03*
X63885800Y-87887300D03*
X61085800Y-89283600D03*
X61085800Y-87887300D03*
X61085800Y-86483600D03*
X62485800Y-86483600D03*
X63885800Y-86483600D03*
D11*
X60430000Y-92850000D03*
X59682300Y-77397100D03*
X61904800Y-83434399D03*
X63485800Y-91722700D03*
X66667300Y-86483600D03*
X71270000Y-89700000D03*
X58171000Y-84217000D03*
X58653600Y-100177600D03*
X61849000Y-70815204D03*
X53573600Y-66792600D03*
X79735600Y-63516000D03*
X81462798Y-101379480D03*
X78884700Y-100787370D03*
X61468000Y-105689400D03*
X57396300Y-90097100D03*
X65786000Y-92710000D03*
X60006000Y-62585600D03*
X57243900Y-70589898D03*
X57828100Y-62563500D03*
X59415600Y-91773500D03*
D20*
X68740000Y-110370000D02*
X67490000Y-109120000D01*
X67490000Y-109120000D02*
X62370000Y-109120000D01*
X62370000Y-109120000D02*
X61120000Y-110370000D01*
D21*
X60430000Y-92850000D02*
X60430000Y-94370000D01*
X60430000Y-94370000D02*
X60440000Y-94380000D01*
D22*
X59682300Y-77397100D02*
X59682300Y-81636163D01*
X59682300Y-81636163D02*
X61480536Y-83434399D01*
X61480536Y-83434399D02*
X61904800Y-83434399D01*
X61904800Y-83434399D02*
X65224299Y-83434399D01*
X65224299Y-83434399D02*
X66367301Y-84577401D01*
X66367301Y-84577401D02*
X66367301Y-86183601D01*
X66367301Y-86183601D02*
X66667300Y-86483600D01*
X63485800Y-91716500D02*
X65467000Y-91716500D01*
X65467000Y-91716500D02*
X66667300Y-90516200D01*
X66667300Y-90516200D02*
X66667300Y-86483600D01*
D20*
X63485800Y-91722700D02*
X63479600Y-91716500D01*
X63479600Y-91716500D02*
X63485800Y-91716500D01*
D21*
X71270000Y-89700000D02*
X71270000Y-91170000D01*
X58470999Y-84516999D02*
X58171000Y-84217000D01*
X58653600Y-84699600D02*
X58470999Y-84516999D01*
X58653600Y-100358700D02*
X58653600Y-84699600D01*
D22*
X53579800Y-66802000D02*
X54864000Y-68086200D01*
X54864000Y-68086200D02*
X56119800Y-69342000D01*
D23*
X53848000Y-69342000D02*
X54864000Y-68326000D01*
X54864000Y-68326000D02*
X54864000Y-68086200D01*
D22*
X60375796Y-69342000D02*
X61549001Y-70515205D01*
X61549001Y-70515205D02*
X61849000Y-70815204D01*
X56119800Y-69342000D02*
X60375796Y-69342000D01*
X86777600Y-72847200D02*
X86777600Y-70558000D01*
X86777600Y-70558000D02*
X79735600Y-63516000D01*
D20*
X82702400Y-68757800D02*
X82702400Y-74726800D01*
X82702400Y-74726800D02*
X82699860Y-74729340D01*
D22*
X87000000Y-100600000D02*
X82699860Y-96299860D01*
X82699860Y-96299860D02*
X82699860Y-74729340D01*
X82702400Y-68757800D02*
X70764400Y-56819800D01*
X70764400Y-56819800D02*
X65811400Y-56819800D01*
D20*
X65811400Y-56819800D02*
X65684400Y-56692800D01*
D23*
X87000000Y-108220000D02*
X88000000Y-108220000D01*
X88000000Y-108220000D02*
X92837000Y-103383000D01*
X92837000Y-103383000D02*
X92837000Y-68910200D01*
X92837000Y-68910200D02*
X91560000Y-67633200D01*
X91560000Y-67633200D02*
X91560000Y-66300000D01*
X89001600Y-66344800D02*
X89001600Y-67792600D01*
X92334000Y-100346000D02*
X87000000Y-105680000D01*
X89001600Y-67792600D02*
X90297000Y-69088000D01*
X92334000Y-76230400D02*
X92334000Y-100346000D01*
X90297000Y-69088000D02*
X90297000Y-74193400D01*
X90297000Y-74193400D02*
X92334000Y-76230400D01*
D21*
X81462798Y-101379480D02*
X81462798Y-107807202D01*
X81462798Y-107807202D02*
X81440000Y-107830000D01*
X81440000Y-101402278D02*
X81462798Y-101379480D01*
X78884700Y-100787370D02*
X78884700Y-107814700D01*
X78884700Y-107814700D02*
X78900000Y-107830000D01*
X78900000Y-100802670D02*
X78884700Y-100787370D01*
D23*
X60270001Y-74510001D02*
X61120000Y-75360000D01*
X59842400Y-72212200D02*
X59842400Y-74082400D01*
X63474578Y-70198522D02*
X62172100Y-71501000D01*
X60553600Y-71501000D02*
X59842400Y-72212200D01*
X62172100Y-71501000D02*
X60553600Y-71501000D01*
X63474578Y-56957778D02*
X63474578Y-70198522D01*
X62184200Y-55667400D02*
X63474578Y-56957778D01*
X59842400Y-74082400D02*
X60270001Y-74510001D01*
X62184200Y-53127400D02*
X63931789Y-54874989D01*
X63931789Y-54874989D02*
X63931789Y-70459611D01*
X63931789Y-70459611D02*
X62382400Y-72009000D01*
X62382400Y-72009000D02*
X62382400Y-74082400D01*
X62382400Y-74082400D02*
X63660000Y-75360000D01*
X65709800Y-61798200D02*
X67203200Y-61798200D01*
X67203200Y-61798200D02*
X77665500Y-72260500D01*
X77665500Y-72260500D02*
X77665500Y-109064500D01*
X77665500Y-109064500D02*
X76360000Y-110370000D01*
X65684400Y-64338200D02*
X67203200Y-64338200D01*
X67203200Y-64338200D02*
X75125500Y-72260500D01*
X75125500Y-72260500D02*
X75125500Y-109064500D01*
X75125500Y-109064500D02*
X73820000Y-110370000D01*
X65684400Y-66903600D02*
X67228600Y-66903600D01*
X67228600Y-66903600D02*
X72522000Y-72197000D01*
X72522000Y-72197000D02*
X72522000Y-106588000D01*
X72522000Y-106588000D02*
X71280000Y-107830000D01*
X65700000Y-59255000D02*
X64389000Y-60566000D01*
X69761301Y-106808699D02*
X68740000Y-107830000D01*
X64389000Y-60566000D02*
X64389000Y-71628000D01*
X64389000Y-71628000D02*
X64922400Y-72161400D01*
X64922400Y-72161400D02*
X64922400Y-73659598D01*
X64922400Y-73659598D02*
X67589802Y-76327000D01*
X67589802Y-76327000D02*
X69113400Y-76327000D01*
X69113400Y-76327000D02*
X69761301Y-76974901D01*
X69761301Y-76974901D02*
X69761301Y-106808699D01*
D21*
X61468000Y-105689400D02*
X62331600Y-106553000D01*
X62331600Y-106553000D02*
X64923000Y-106553000D01*
X64923000Y-106553000D02*
X66200000Y-107830000D01*
X57302601Y-90190799D02*
X57302601Y-92964000D01*
X57302601Y-92964000D02*
X57302601Y-109092601D01*
X56134000Y-92964000D02*
X57302601Y-92964000D01*
X57396300Y-90097100D02*
X57302601Y-90190799D01*
X57302601Y-109092601D02*
X58580000Y-110370000D01*
X65786000Y-92710000D02*
X65786000Y-94234000D01*
X55970000Y-70700000D02*
X57133798Y-70700000D01*
X57133798Y-70700000D02*
X57243900Y-70589898D01*
X57828100Y-62563500D02*
X59983900Y-62563500D01*
X59983900Y-62563500D02*
X60006000Y-62585600D01*
X57866200Y-62601600D02*
X57828100Y-62563500D01*
X59415600Y-91773500D02*
X59415600Y-84572600D01*
X59415600Y-84572600D02*
X57243900Y-82400900D01*
X57243900Y-82400900D02*
X57243900Y-71014162D01*
X57243900Y-71014162D02*
X57243900Y-70589898D01*
D23*
G36*
X95298000Y-64676777D02*
X95232045Y-64574279D01*
X95125945Y-64501785D01*
X95000000Y-64476280D01*
X93200000Y-64476280D01*
X93082342Y-64498419D01*
X92974279Y-64567955D01*
X92901785Y-64674055D01*
X92876280Y-64800000D01*
X92876280Y-67800000D01*
X92898419Y-67917658D01*
X92967955Y-68025721D01*
X93074055Y-68098215D01*
X93200000Y-68123720D01*
X95000000Y-68123720D01*
X95117658Y-68101581D01*
X95225721Y-68032045D01*
X95298000Y-67926260D01*
X95298000Y-71279418D01*
X95095606Y-71024788D01*
X94570086Y-70733244D01*
X94464740Y-70708964D01*
X94227000Y-70829622D01*
X94227000Y-72673000D01*
X94247000Y-72673000D01*
X94247000Y-72927000D01*
X94227000Y-72927000D01*
X94227000Y-74770378D01*
X94464740Y-74891036D01*
X94570086Y-74866756D01*
X95095606Y-74575212D01*
X95298000Y-74320582D01*
X95298000Y-75698000D01*
X93300000Y-75698000D01*
X93294200Y-75699154D01*
X93294200Y-74680511D01*
X93629914Y-74866756D01*
X93735260Y-74891036D01*
X93973000Y-74770378D01*
X93973000Y-72927000D01*
X93953000Y-72927000D01*
X93953000Y-72673000D01*
X93973000Y-72673000D01*
X93973000Y-70829622D01*
X93735260Y-70708964D01*
X93629914Y-70733244D01*
X93294200Y-70919489D01*
X93294200Y-68910200D01*
X93259398Y-68735237D01*
X93160289Y-68586911D01*
X92399451Y-67826073D01*
X92429883Y-67805739D01*
X92696557Y-67406633D01*
X92790200Y-66935856D01*
X92790200Y-65664144D01*
X92696557Y-65193367D01*
X92429883Y-64794261D01*
X92030777Y-64527587D01*
X91560000Y-64433944D01*
X91089223Y-64527587D01*
X90690117Y-64794261D01*
X90423443Y-65193367D01*
X90329800Y-65664144D01*
X90329800Y-66935856D01*
X90423443Y-67406633D01*
X90690117Y-67805739D01*
X91089223Y-68072413D01*
X91418041Y-68137819D01*
X92379800Y-69099578D01*
X92379800Y-71260797D01*
X92030777Y-71027587D01*
X91560000Y-70933944D01*
X91089223Y-71027587D01*
X90754200Y-71251442D01*
X90754200Y-69088000D01*
X90719398Y-68913037D01*
X90620289Y-68764711D01*
X89752868Y-67897290D01*
X89889883Y-67805739D01*
X90156557Y-67406633D01*
X90250200Y-66935856D01*
X90250200Y-65664144D01*
X90156557Y-65193367D01*
X89889883Y-64794261D01*
X89490777Y-64527587D01*
X89020000Y-64433944D01*
X88549223Y-64527587D01*
X88150117Y-64794261D01*
X87899434Y-65169434D01*
X87849554Y-64995248D01*
X87475606Y-64524788D01*
X86950086Y-64233244D01*
X86844740Y-64208964D01*
X86607000Y-64329622D01*
X86607000Y-66173000D01*
X86627000Y-66173000D01*
X86627000Y-66427000D01*
X86607000Y-66427000D01*
X86607000Y-68270378D01*
X86844740Y-68391036D01*
X86950086Y-68366756D01*
X87475606Y-68075212D01*
X87849554Y-67604752D01*
X87899434Y-67430566D01*
X88150117Y-67805739D01*
X88549223Y-68072413D01*
X88664595Y-68095362D01*
X88678311Y-68115889D01*
X89839800Y-69277378D01*
X89839800Y-71260797D01*
X89490777Y-71027587D01*
X89020000Y-70933944D01*
X88549223Y-71027587D01*
X88150117Y-71294261D01*
X87883443Y-71693367D01*
X87789800Y-72164144D01*
X87789800Y-73435856D01*
X87883443Y-73906633D01*
X88150117Y-74305739D01*
X88549223Y-74572413D01*
X89020000Y-74666056D01*
X89490777Y-74572413D01*
X89865399Y-74322098D01*
X89874602Y-74368363D01*
X89973711Y-74516689D01*
X91876800Y-76419778D01*
X91876800Y-90547074D01*
X91854599Y-90524873D01*
X91621210Y-90428200D01*
X90930650Y-90428200D01*
X90771900Y-90586950D01*
X90771900Y-91786200D01*
X90791900Y-91786200D01*
X90791900Y-92040200D01*
X90771900Y-92040200D01*
X90771900Y-93239450D01*
X90930650Y-93398200D01*
X91621210Y-93398200D01*
X91854599Y-93301527D01*
X91876800Y-93279326D01*
X91876800Y-100156622D01*
X88374268Y-103659154D01*
X88441476Y-103496890D01*
X88320155Y-103267000D01*
X87127000Y-103267000D01*
X87127000Y-103287000D01*
X86873000Y-103287000D01*
X86873000Y-103267000D01*
X85679845Y-103267000D01*
X85558524Y-103496890D01*
X85728355Y-103906924D01*
X86118642Y-104335183D01*
X86620230Y-104570742D01*
X86525236Y-104589637D01*
X86142352Y-104845473D01*
X85886516Y-105228357D01*
X85796679Y-105680000D01*
X85886516Y-106131643D01*
X86142352Y-106514527D01*
X86525236Y-106770363D01*
X86976879Y-106860200D01*
X87023121Y-106860200D01*
X87474764Y-106770363D01*
X87857648Y-106514527D01*
X88113484Y-106131643D01*
X88203321Y-105680000D01*
X88113484Y-105228357D01*
X88107370Y-105219208D01*
X92379800Y-100946778D01*
X92379800Y-103193622D01*
X88186669Y-107386753D01*
X88186669Y-107370000D01*
X88163644Y-107247635D01*
X88091327Y-107135251D01*
X87980983Y-107059856D01*
X87850000Y-107033331D01*
X86150000Y-107033331D01*
X86027635Y-107056356D01*
X85915251Y-107128673D01*
X85839856Y-107239017D01*
X85813331Y-107370000D01*
X85813331Y-109070000D01*
X85836356Y-109192365D01*
X85908673Y-109304749D01*
X86019017Y-109380144D01*
X86150000Y-109406669D01*
X87850000Y-109406669D01*
X87972365Y-109383644D01*
X88084749Y-109311327D01*
X88160144Y-109200983D01*
X88186669Y-109070000D01*
X88186669Y-108634576D01*
X88323289Y-108543289D01*
X92998000Y-103868578D01*
X92998000Y-105374907D01*
X86874908Y-111498000D01*
X84358666Y-111498000D01*
X84431643Y-111483484D01*
X84814527Y-111227648D01*
X85070363Y-110844764D01*
X85160200Y-110393121D01*
X85160200Y-110346879D01*
X85070363Y-109895236D01*
X84814527Y-109512352D01*
X84431643Y-109256516D01*
X83980000Y-109166679D01*
X83528357Y-109256516D01*
X83145473Y-109512352D01*
X82889637Y-109895236D01*
X82799800Y-110346879D01*
X82799800Y-110393121D01*
X82889637Y-110844764D01*
X83145473Y-111227648D01*
X83528357Y-111483484D01*
X83601334Y-111498000D01*
X81818666Y-111498000D01*
X81891643Y-111483484D01*
X82274527Y-111227648D01*
X82530363Y-110844764D01*
X82620200Y-110393121D01*
X82620200Y-110346879D01*
X82530363Y-109895236D01*
X82274527Y-109512352D01*
X81891643Y-109256516D01*
X81440000Y-109166679D01*
X80988357Y-109256516D01*
X80605473Y-109512352D01*
X80349637Y-109895236D01*
X80330742Y-109990230D01*
X80095183Y-109488642D01*
X79666924Y-109098355D01*
X79290912Y-108942615D01*
X79346783Y-108931502D01*
X79725547Y-108678420D01*
X79978629Y-108299656D01*
X80067500Y-107852873D01*
X80067500Y-107807127D01*
X80272500Y-107807127D01*
X80272500Y-107852873D01*
X80361371Y-108299656D01*
X80614453Y-108678420D01*
X80993217Y-108931502D01*
X81440000Y-109020373D01*
X81886783Y-108931502D01*
X82265547Y-108678420D01*
X82518629Y-108299656D01*
X82607500Y-107852873D01*
X82607500Y-107807127D01*
X82518629Y-107360344D01*
X82265547Y-106981580D01*
X82263183Y-106980000D01*
X82806280Y-106980000D01*
X82806280Y-108680000D01*
X82828419Y-108797658D01*
X82897955Y-108905721D01*
X83004055Y-108978215D01*
X83130000Y-109003720D01*
X84830000Y-109003720D01*
X84947658Y-108981581D01*
X85055721Y-108912045D01*
X85128215Y-108805945D01*
X85153720Y-108680000D01*
X85153720Y-106980000D01*
X85131581Y-106862342D01*
X85062045Y-106754279D01*
X84955945Y-106681785D01*
X84830000Y-106656280D01*
X83130000Y-106656280D01*
X83012342Y-106678419D01*
X82904279Y-106747955D01*
X82831785Y-106854055D01*
X82806280Y-106980000D01*
X82263183Y-106980000D01*
X81886783Y-106728498D01*
X81881898Y-106727526D01*
X81881898Y-101833628D01*
X81985984Y-101729723D01*
X82080191Y-101502847D01*
X82080405Y-101257190D01*
X81986595Y-101030151D01*
X81813041Y-100856294D01*
X81586165Y-100762087D01*
X81340508Y-100761873D01*
X81113469Y-100855683D01*
X80939612Y-101029237D01*
X80845405Y-101256113D01*
X80845191Y-101501770D01*
X80939001Y-101728809D01*
X81043698Y-101833689D01*
X81043698Y-106718457D01*
X80993217Y-106728498D01*
X80614453Y-106981580D01*
X80361371Y-107360344D01*
X80272500Y-107807127D01*
X80067500Y-107807127D01*
X79978629Y-107360344D01*
X79725547Y-106981580D01*
X79346783Y-106728498D01*
X79303800Y-106719948D01*
X79303800Y-101241518D01*
X79407886Y-101137613D01*
X79502093Y-100910737D01*
X79502307Y-100665080D01*
X79408497Y-100438041D01*
X79234943Y-100264184D01*
X79008067Y-100169977D01*
X78762410Y-100169763D01*
X78535371Y-100263573D01*
X78361514Y-100437127D01*
X78267307Y-100664003D01*
X78267093Y-100909660D01*
X78360903Y-101136699D01*
X78465600Y-101241579D01*
X78465600Y-106726035D01*
X78453217Y-106728498D01*
X78122700Y-106949342D01*
X78122700Y-73715886D01*
X78448357Y-73933484D01*
X78900000Y-74023321D01*
X79351643Y-73933484D01*
X79734527Y-73677648D01*
X79990363Y-73294764D01*
X80080200Y-72843121D01*
X80080200Y-72796879D01*
X79990363Y-72345236D01*
X79734527Y-71962352D01*
X79351643Y-71706516D01*
X78900000Y-71616679D01*
X78448357Y-71706516D01*
X78065473Y-71962352D01*
X78035531Y-72007164D01*
X77988790Y-71937211D01*
X67526489Y-61474911D01*
X67378163Y-61375802D01*
X67203200Y-61341000D01*
X66811909Y-61341000D01*
X66557648Y-60960473D01*
X66174764Y-60704637D01*
X65723121Y-60614800D01*
X65676879Y-60614800D01*
X65225236Y-60704637D01*
X64846200Y-60957902D01*
X64846200Y-60755378D01*
X65251075Y-60350503D01*
X65676879Y-60435200D01*
X65723121Y-60435200D01*
X66174764Y-60345363D01*
X66557648Y-60089527D01*
X66813484Y-59706643D01*
X66903321Y-59255000D01*
X66813484Y-58803357D01*
X66557648Y-58420473D01*
X66174764Y-58164637D01*
X65723121Y-58074800D01*
X65676879Y-58074800D01*
X65225236Y-58164637D01*
X64842352Y-58420473D01*
X64586516Y-58803357D01*
X64496679Y-59255000D01*
X64586516Y-59706643D01*
X64592630Y-59715792D01*
X64388989Y-59919433D01*
X64388989Y-55462015D01*
X64490302Y-55563327D01*
X64723691Y-55660000D01*
X65172312Y-55660000D01*
X64842352Y-55880473D01*
X64586516Y-56263357D01*
X64496679Y-56715000D01*
X64586516Y-57166643D01*
X64842352Y-57549527D01*
X65225236Y-57805363D01*
X65676879Y-57895200D01*
X65723121Y-57895200D01*
X66174764Y-57805363D01*
X66557648Y-57549527D01*
X66654886Y-57404000D01*
X70522416Y-57404000D01*
X82181700Y-69063283D01*
X82181700Y-71900327D01*
X81891643Y-71706516D01*
X81440000Y-71616679D01*
X80988357Y-71706516D01*
X80605473Y-71962352D01*
X80349637Y-72345236D01*
X80259800Y-72796879D01*
X80259800Y-72843121D01*
X80349637Y-73294764D01*
X80605473Y-73677648D01*
X80988357Y-73933484D01*
X81440000Y-74023321D01*
X81891643Y-73933484D01*
X82181700Y-73739673D01*
X82181700Y-74473494D01*
X82160130Y-74505776D01*
X82115660Y-74729340D01*
X82115660Y-96299860D01*
X82160130Y-96523424D01*
X82269762Y-96687500D01*
X82286768Y-96712952D01*
X85859250Y-100285434D01*
X85796679Y-100600000D01*
X85886516Y-101051643D01*
X86142352Y-101434527D01*
X86525236Y-101690363D01*
X86620230Y-101709258D01*
X86118642Y-101944817D01*
X85728355Y-102373076D01*
X85558524Y-102783110D01*
X85679845Y-103013000D01*
X86873000Y-103013000D01*
X86873000Y-102993000D01*
X87127000Y-102993000D01*
X87127000Y-103013000D01*
X88320155Y-103013000D01*
X88441476Y-102783110D01*
X88271645Y-102373076D01*
X87881358Y-101944817D01*
X87379770Y-101709258D01*
X87474764Y-101690363D01*
X87857648Y-101434527D01*
X88113484Y-101051643D01*
X88203321Y-100600000D01*
X88113484Y-100148357D01*
X87857648Y-99765473D01*
X87474764Y-99509637D01*
X87023121Y-99419800D01*
X86976879Y-99419800D01*
X86700883Y-99474699D01*
X85286184Y-98060000D01*
X85809627Y-98060000D01*
X85898498Y-98506783D01*
X86151580Y-98885547D01*
X86530344Y-99138629D01*
X86977127Y-99227500D01*
X87022873Y-99227500D01*
X87469656Y-99138629D01*
X87848420Y-98885547D01*
X88101502Y-98506783D01*
X88190373Y-98060000D01*
X88101502Y-97613217D01*
X87848420Y-97234453D01*
X87469656Y-96981371D01*
X87022873Y-96892500D01*
X86977127Y-96892500D01*
X86530344Y-96981371D01*
X86151580Y-97234453D01*
X85898498Y-97613217D01*
X85809627Y-98060000D01*
X85286184Y-98060000D01*
X83284060Y-96057876D01*
X83284060Y-95520000D01*
X85809627Y-95520000D01*
X85898498Y-95966783D01*
X86151580Y-96345547D01*
X86530344Y-96598629D01*
X86977127Y-96687500D01*
X87022873Y-96687500D01*
X87469656Y-96598629D01*
X87848420Y-96345547D01*
X88101502Y-95966783D01*
X88190373Y-95520000D01*
X88101502Y-95073217D01*
X87848420Y-94694453D01*
X87469656Y-94441371D01*
X87022873Y-94352500D01*
X86977127Y-94352500D01*
X86530344Y-94441371D01*
X86151580Y-94694453D01*
X85898498Y-95073217D01*
X85809627Y-95520000D01*
X83284060Y-95520000D01*
X83284060Y-91890079D01*
X86924700Y-91890079D01*
X86924700Y-91936321D01*
X87014537Y-92387964D01*
X87270373Y-92770848D01*
X87653257Y-93026684D01*
X88104900Y-93116521D01*
X88556543Y-93026684D01*
X88939427Y-92770848D01*
X89159900Y-92440888D01*
X89159900Y-92889509D01*
X89256573Y-93122898D01*
X89435201Y-93301527D01*
X89668590Y-93398200D01*
X90359150Y-93398200D01*
X90517900Y-93239450D01*
X90517900Y-92040200D01*
X90497900Y-92040200D01*
X90497900Y-91786200D01*
X90517900Y-91786200D01*
X90517900Y-90586950D01*
X90359150Y-90428200D01*
X89668590Y-90428200D01*
X89435201Y-90524873D01*
X89256573Y-90703502D01*
X89159900Y-90936891D01*
X89159900Y-91385512D01*
X88939427Y-91055552D01*
X88556543Y-90799716D01*
X88104900Y-90709879D01*
X87653257Y-90799716D01*
X87270373Y-91055552D01*
X87014537Y-91438436D01*
X86924700Y-91890079D01*
X83284060Y-91890079D01*
X83284060Y-74729340D01*
X83239590Y-74505776D01*
X83223100Y-74481097D01*
X83223100Y-73993720D01*
X84830000Y-73993720D01*
X84947658Y-73971581D01*
X85055721Y-73902045D01*
X85128215Y-73795945D01*
X85153720Y-73670000D01*
X85153720Y-71970000D01*
X85131581Y-71852342D01*
X85062045Y-71744279D01*
X84955945Y-71671785D01*
X84830000Y-71646280D01*
X83223100Y-71646280D01*
X83223100Y-69009845D01*
X83242131Y-68981363D01*
X83286601Y-68757800D01*
X83242131Y-68534237D01*
X83115492Y-68344709D01*
X78411589Y-63640805D01*
X79105291Y-63640805D01*
X79201031Y-63872513D01*
X79378154Y-64049946D01*
X79489665Y-64096249D01*
X86193400Y-70799984D01*
X86193400Y-70963331D01*
X85580000Y-70963331D01*
X85457635Y-70986356D01*
X85345251Y-71058673D01*
X85269856Y-71169017D01*
X85243331Y-71300000D01*
X85243331Y-74300000D01*
X85266356Y-74422365D01*
X85338673Y-74534749D01*
X85449017Y-74610144D01*
X85580000Y-74636669D01*
X87380000Y-74636669D01*
X87502365Y-74613644D01*
X87614749Y-74541327D01*
X87690144Y-74430983D01*
X87716669Y-74300000D01*
X87716669Y-71300000D01*
X87693644Y-71177635D01*
X87621327Y-71065251D01*
X87510983Y-70989856D01*
X87380000Y-70963331D01*
X87361800Y-70963331D01*
X87361800Y-70558000D01*
X87317330Y-70334436D01*
X87190692Y-70144908D01*
X83472784Y-66427000D01*
X84945000Y-66427000D01*
X84945000Y-67027000D01*
X85110446Y-67604752D01*
X85484394Y-68075212D01*
X86009914Y-68366756D01*
X86115260Y-68391036D01*
X86353000Y-68270378D01*
X86353000Y-66427000D01*
X84945000Y-66427000D01*
X83472784Y-66427000D01*
X82618784Y-65573000D01*
X84945000Y-65573000D01*
X84945000Y-66173000D01*
X86353000Y-66173000D01*
X86353000Y-64329622D01*
X86115260Y-64208964D01*
X86009914Y-64233244D01*
X85484394Y-64524788D01*
X85110446Y-64995248D01*
X84945000Y-65573000D01*
X82618784Y-65573000D01*
X80315866Y-63270082D01*
X80270169Y-63159487D01*
X80093046Y-62982054D01*
X79861504Y-62885910D01*
X79610795Y-62885691D01*
X79379087Y-62981431D01*
X79201654Y-63158554D01*
X79105510Y-63390096D01*
X79105291Y-63640805D01*
X78411589Y-63640805D01*
X71177492Y-56406708D01*
X70987964Y-56280070D01*
X70764400Y-56235600D01*
X66794937Y-56235600D01*
X66557648Y-55880473D01*
X66227688Y-55660000D01*
X66676309Y-55660000D01*
X66909698Y-55563327D01*
X67088327Y-55384699D01*
X67185000Y-55151310D01*
X67185000Y-55044732D01*
X86800073Y-55044732D01*
X86898736Y-55311587D01*
X87508461Y-55538108D01*
X88158460Y-55514056D01*
X88647264Y-55311587D01*
X88745927Y-55044732D01*
X87773000Y-54071805D01*
X86800073Y-55044732D01*
X67185000Y-55044732D01*
X67185000Y-54460750D01*
X67026250Y-54302000D01*
X65827000Y-54302000D01*
X65827000Y-54322000D01*
X65573000Y-54322000D01*
X65573000Y-54302000D01*
X64373750Y-54302000D01*
X64215000Y-54460750D01*
X64215000Y-54511622D01*
X63291570Y-53588192D01*
X63297684Y-53579043D01*
X63373340Y-53198690D01*
X64215000Y-53198690D01*
X64215000Y-53889250D01*
X64373750Y-54048000D01*
X65573000Y-54048000D01*
X65573000Y-52848750D01*
X65827000Y-52848750D01*
X65827000Y-54048000D01*
X67026250Y-54048000D01*
X67185000Y-53889250D01*
X67185000Y-53627661D01*
X86127092Y-53627661D01*
X86151144Y-54277660D01*
X86353613Y-54766464D01*
X86620468Y-54865127D01*
X87593395Y-53892200D01*
X87952605Y-53892200D01*
X88925532Y-54865127D01*
X88989280Y-54841558D01*
X88989280Y-54892200D01*
X89011419Y-55009858D01*
X89080955Y-55117921D01*
X89187055Y-55190415D01*
X89313000Y-55215920D01*
X91313000Y-55215920D01*
X91430658Y-55193781D01*
X91538721Y-55124245D01*
X91611215Y-55018145D01*
X91636720Y-54892200D01*
X91636720Y-52892200D01*
X91614581Y-52774542D01*
X91545045Y-52666479D01*
X91438945Y-52593985D01*
X91313000Y-52568480D01*
X89313000Y-52568480D01*
X89195342Y-52590619D01*
X89087279Y-52660155D01*
X89014785Y-52766255D01*
X88989280Y-52892200D01*
X88989280Y-52942842D01*
X88925532Y-52919273D01*
X87952605Y-53892200D01*
X87593395Y-53892200D01*
X86620468Y-52919273D01*
X86353613Y-53017936D01*
X86127092Y-53627661D01*
X67185000Y-53627661D01*
X67185000Y-53198690D01*
X67088327Y-52965301D01*
X66909698Y-52786673D01*
X66796219Y-52739668D01*
X86800073Y-52739668D01*
X87773000Y-53712595D01*
X88745927Y-52739668D01*
X88647264Y-52472813D01*
X88037539Y-52246292D01*
X87387540Y-52270344D01*
X86898736Y-52472813D01*
X86800073Y-52739668D01*
X66796219Y-52739668D01*
X66676309Y-52690000D01*
X65985750Y-52690000D01*
X65827000Y-52848750D01*
X65573000Y-52848750D01*
X65414250Y-52690000D01*
X64723691Y-52690000D01*
X64490302Y-52786673D01*
X64311673Y-52965301D01*
X64215000Y-53198690D01*
X63373340Y-53198690D01*
X63387521Y-53127400D01*
X63297684Y-52675757D01*
X63041848Y-52292873D01*
X62658964Y-52037037D01*
X62207321Y-51947200D01*
X62161079Y-51947200D01*
X61709436Y-52037037D01*
X61326552Y-52292873D01*
X61070716Y-52675757D01*
X60980879Y-53127400D01*
X61070716Y-53579043D01*
X61326552Y-53961927D01*
X61709436Y-54217763D01*
X62161079Y-54307600D01*
X62207321Y-54307600D01*
X62633125Y-54222903D01*
X63474589Y-55064367D01*
X63474589Y-56311211D01*
X63291570Y-56128192D01*
X63297684Y-56119043D01*
X63387521Y-55667400D01*
X63297684Y-55215757D01*
X63041848Y-54832873D01*
X62658964Y-54577037D01*
X62207321Y-54487200D01*
X62161079Y-54487200D01*
X61709436Y-54577037D01*
X61326552Y-54832873D01*
X61070716Y-55215757D01*
X60980879Y-55667400D01*
X61070716Y-56119043D01*
X61326552Y-56501927D01*
X61656512Y-56722400D01*
X61207891Y-56722400D01*
X60974502Y-56819073D01*
X60795873Y-56997701D01*
X60699200Y-57231090D01*
X60699200Y-57921650D01*
X60857950Y-58080400D01*
X62057200Y-58080400D01*
X62057200Y-58060400D01*
X62311200Y-58060400D01*
X62311200Y-58080400D01*
X62331200Y-58080400D01*
X62331200Y-58334400D01*
X62311200Y-58334400D01*
X62311200Y-59533650D01*
X62469950Y-59692400D01*
X63017378Y-59692400D01*
X63017378Y-70009144D01*
X62437444Y-70589078D01*
X62383569Y-70458691D01*
X62206446Y-70281258D01*
X62094935Y-70234955D01*
X61962093Y-70102113D01*
X61962090Y-70102111D01*
X60788888Y-68928908D01*
X60760889Y-68910200D01*
X60599360Y-68802270D01*
X60375796Y-68757800D01*
X56361784Y-68757800D01*
X54156119Y-66552135D01*
X54108169Y-66436087D01*
X53931046Y-66258654D01*
X53699504Y-66162510D01*
X53448795Y-66162291D01*
X53217087Y-66258031D01*
X53039654Y-66435154D01*
X52943510Y-66666696D01*
X52943291Y-66917405D01*
X53039031Y-67149113D01*
X53216154Y-67326546D01*
X53322193Y-67370577D01*
X54247519Y-68295903D01*
X54217582Y-68325840D01*
X54063808Y-68261988D01*
X53634078Y-68261613D01*
X53236915Y-68425717D01*
X52932785Y-68729317D01*
X52767988Y-69126192D01*
X52767613Y-69555922D01*
X52931717Y-69953085D01*
X53235317Y-70257215D01*
X53632192Y-70422012D01*
X54061922Y-70422387D01*
X54459085Y-70258283D01*
X54763215Y-69954683D01*
X54928012Y-69557808D01*
X54928387Y-69128078D01*
X54864096Y-68972482D01*
X54894097Y-68942481D01*
X55634999Y-69683383D01*
X55366100Y-69794489D01*
X55065545Y-70094520D01*
X54902685Y-70486729D01*
X54902315Y-70911407D01*
X55064489Y-71303900D01*
X55298150Y-71537969D01*
X55273076Y-71548355D01*
X54844817Y-71938642D01*
X54598514Y-72463108D01*
X54719181Y-72693000D01*
X55913000Y-72693000D01*
X55913000Y-72673000D01*
X56167000Y-72673000D01*
X56167000Y-72693000D01*
X56187000Y-72693000D01*
X56187000Y-72947000D01*
X56167000Y-72947000D01*
X56167000Y-75233000D01*
X56187000Y-75233000D01*
X56187000Y-75487000D01*
X56167000Y-75487000D01*
X56167000Y-76686250D01*
X56325750Y-76845000D01*
X56824800Y-76845000D01*
X56824800Y-82400900D01*
X56856702Y-82561283D01*
X56947552Y-82697248D01*
X57907884Y-83657581D01*
X57821671Y-83693203D01*
X57647814Y-83866757D01*
X57553607Y-84093633D01*
X57553393Y-84339290D01*
X57647203Y-84566329D01*
X57820757Y-84740186D01*
X58047633Y-84834393D01*
X58195826Y-84834522D01*
X58234500Y-84873196D01*
X58234500Y-99723452D01*
X58130414Y-99827357D01*
X58036207Y-100054233D01*
X58035993Y-100299890D01*
X58129803Y-100526929D01*
X58303357Y-100700786D01*
X58530233Y-100794993D01*
X58775890Y-100795207D01*
X59002929Y-100701397D01*
X59176786Y-100527843D01*
X59270993Y-100300967D01*
X59271207Y-100055310D01*
X59177397Y-99828271D01*
X59072700Y-99723391D01*
X59072700Y-94445407D01*
X59372315Y-94445407D01*
X59534489Y-94837900D01*
X59834520Y-95138455D01*
X60226729Y-95301315D01*
X60651407Y-95301685D01*
X61043900Y-95139511D01*
X61344455Y-94839480D01*
X61507315Y-94447271D01*
X61507685Y-94022593D01*
X61345511Y-93630100D01*
X61045480Y-93329545D01*
X60888822Y-93264495D01*
X60953186Y-93200243D01*
X61047393Y-92973367D01*
X61047607Y-92727710D01*
X60953797Y-92500671D01*
X60780243Y-92326814D01*
X60553367Y-92232607D01*
X60307710Y-92232393D01*
X60080671Y-92326203D01*
X59906814Y-92499757D01*
X59812607Y-92726633D01*
X59812393Y-92972290D01*
X59906203Y-93199329D01*
X59977015Y-93270264D01*
X59836100Y-93328489D01*
X59535545Y-93628520D01*
X59372685Y-94020729D01*
X59372315Y-94445407D01*
X59072700Y-94445407D01*
X59072700Y-92299735D01*
X59292233Y-92390893D01*
X59537890Y-92391107D01*
X59764929Y-92297297D01*
X59938786Y-92123743D01*
X60032993Y-91896867D01*
X60033207Y-91651210D01*
X59939397Y-91424171D01*
X59834700Y-91319291D01*
X59834700Y-84572600D01*
X59828060Y-84539217D01*
X59802799Y-84412218D01*
X59711949Y-84276252D01*
X57663000Y-82227304D01*
X57663000Y-77519390D01*
X59064693Y-77519390D01*
X59110800Y-77630978D01*
X59110800Y-81636158D01*
X59110799Y-81636163D01*
X59147085Y-81818581D01*
X59154303Y-81854867D01*
X59239117Y-81981801D01*
X59278188Y-82040275D01*
X61076422Y-83838508D01*
X61076424Y-83838511D01*
X61199357Y-83920652D01*
X61261833Y-83962397D01*
X61480536Y-84005900D01*
X61480541Y-84005899D01*
X61670910Y-84005899D01*
X61781433Y-84051792D01*
X62027090Y-84052006D01*
X62138678Y-84005899D01*
X64987575Y-84005899D01*
X65795801Y-84814124D01*
X65795801Y-86183596D01*
X65795800Y-86183601D01*
X65830935Y-86360233D01*
X65839304Y-86402305D01*
X65963189Y-86587713D01*
X66095800Y-86720324D01*
X66095800Y-90279477D01*
X65230276Y-91145000D01*
X63704759Y-91145000D01*
X63609167Y-91105307D01*
X63363510Y-91105093D01*
X63136471Y-91198903D01*
X62962614Y-91372457D01*
X62868407Y-91599333D01*
X62868193Y-91844990D01*
X62962003Y-92072029D01*
X63135557Y-92245886D01*
X63362433Y-92340093D01*
X63608090Y-92340307D01*
X63734683Y-92288000D01*
X65334696Y-92288000D01*
X65262814Y-92359757D01*
X65168607Y-92586633D01*
X65168393Y-92832290D01*
X65262203Y-93059329D01*
X65366900Y-93164209D01*
X65366900Y-93252132D01*
X65182100Y-93328489D01*
X64881545Y-93628520D01*
X64718685Y-94020729D01*
X64718315Y-94445407D01*
X64880489Y-94837900D01*
X65180520Y-95138455D01*
X65572729Y-95301315D01*
X65997407Y-95301685D01*
X66389900Y-95139511D01*
X66690455Y-94839480D01*
X66853315Y-94447271D01*
X66853685Y-94022593D01*
X66691511Y-93630100D01*
X66391480Y-93329545D01*
X66205100Y-93252153D01*
X66205100Y-93164148D01*
X66309186Y-93060243D01*
X66403393Y-92833367D01*
X66403607Y-92587710D01*
X66309797Y-92360671D01*
X66136243Y-92186814D01*
X65909367Y-92092607D01*
X65899126Y-92092598D01*
X67071409Y-90920314D01*
X67071412Y-90920312D01*
X67195297Y-90734904D01*
X67195298Y-90734903D01*
X67238801Y-90516200D01*
X67238800Y-90516195D01*
X67238800Y-86717490D01*
X67284693Y-86606967D01*
X67284907Y-86361310D01*
X67191097Y-86134271D01*
X67017543Y-85960414D01*
X66938801Y-85927718D01*
X66938801Y-84577406D01*
X66938802Y-84577401D01*
X66895298Y-84358698D01*
X66895298Y-84358697D01*
X66771413Y-84173289D01*
X66771410Y-84173287D01*
X65628411Y-83030287D01*
X65443003Y-82906402D01*
X65406717Y-82899184D01*
X65224299Y-82862898D01*
X65224294Y-82862899D01*
X62138690Y-82862899D01*
X62028167Y-82817006D01*
X61782510Y-82816792D01*
X61703711Y-82849351D01*
X60253800Y-81399439D01*
X60253800Y-77630990D01*
X60299693Y-77520467D01*
X60299907Y-77274810D01*
X60206097Y-77047771D01*
X60032543Y-76873914D01*
X59805667Y-76779707D01*
X59560010Y-76779493D01*
X59332971Y-76873303D01*
X59159114Y-77046857D01*
X59064907Y-77273733D01*
X59064693Y-77519390D01*
X57663000Y-77519390D01*
X57663000Y-76071551D01*
X57754453Y-76208420D01*
X58133217Y-76461502D01*
X58580000Y-76550373D01*
X59026783Y-76461502D01*
X59405547Y-76208420D01*
X59658629Y-75829656D01*
X59747500Y-75382873D01*
X59747500Y-75337127D01*
X59658629Y-74890344D01*
X59405547Y-74511580D01*
X59026783Y-74258498D01*
X58580000Y-74169627D01*
X58133217Y-74258498D01*
X57754453Y-74511580D01*
X57663000Y-74648449D01*
X57663000Y-73531551D01*
X57754453Y-73668420D01*
X58133217Y-73921502D01*
X58580000Y-74010373D01*
X59026783Y-73921502D01*
X59385200Y-73682015D01*
X59385200Y-74082400D01*
X59420002Y-74257363D01*
X59519111Y-74405689D01*
X60024497Y-74911075D01*
X59939800Y-75336879D01*
X59939800Y-75383121D01*
X60029637Y-75834764D01*
X60285473Y-76217648D01*
X60668357Y-76473484D01*
X61120000Y-76563321D01*
X61571643Y-76473484D01*
X61954527Y-76217648D01*
X62210363Y-75834764D01*
X62300200Y-75383121D01*
X62300200Y-75336879D01*
X62210363Y-74885236D01*
X61954527Y-74502352D01*
X61571643Y-74246516D01*
X61120000Y-74156679D01*
X60668357Y-74246516D01*
X60659208Y-74252630D01*
X60299600Y-73893022D01*
X60299600Y-73671859D01*
X60673217Y-73921502D01*
X61120000Y-74010373D01*
X61566783Y-73921502D01*
X61925200Y-73682015D01*
X61925200Y-74082400D01*
X61960002Y-74257363D01*
X62059111Y-74405689D01*
X62564497Y-74911075D01*
X62479800Y-75336879D01*
X62479800Y-75383121D01*
X62569637Y-75834764D01*
X62825473Y-76217648D01*
X63208357Y-76473484D01*
X63660000Y-76563321D01*
X64111643Y-76473484D01*
X64494527Y-76217648D01*
X64750363Y-75834764D01*
X64840200Y-75383121D01*
X64840200Y-75336879D01*
X64750363Y-74885236D01*
X64494527Y-74502352D01*
X64111643Y-74246516D01*
X63660000Y-74156679D01*
X63208357Y-74246516D01*
X63199208Y-74252630D01*
X62839600Y-73893022D01*
X62839600Y-73671859D01*
X63213217Y-73921502D01*
X63660000Y-74010373D01*
X64106783Y-73921502D01*
X64469136Y-73679386D01*
X64500002Y-73834561D01*
X64599111Y-73982887D01*
X67266513Y-76650289D01*
X67414839Y-76749398D01*
X67589802Y-76784200D01*
X68924022Y-76784200D01*
X69304101Y-77164279D01*
X69304101Y-106619321D01*
X69200792Y-106722630D01*
X69191643Y-106716516D01*
X68740000Y-106626679D01*
X68288357Y-106716516D01*
X67905473Y-106972352D01*
X67649637Y-107355236D01*
X67559800Y-107806879D01*
X67559800Y-107853121D01*
X67649637Y-108304764D01*
X67905473Y-108687648D01*
X68288357Y-108943484D01*
X68327968Y-108951363D01*
X67973076Y-109098355D01*
X67544817Y-109488642D01*
X67300302Y-110009301D01*
X67278629Y-109900344D01*
X67025547Y-109521580D01*
X66646783Y-109268498D01*
X66200000Y-109179627D01*
X65753217Y-109268498D01*
X65374453Y-109521580D01*
X65121371Y-109900344D01*
X65032500Y-110347127D01*
X65032500Y-110392873D01*
X65121371Y-110839656D01*
X65374453Y-111218420D01*
X65753217Y-111471502D01*
X65886431Y-111498000D01*
X63973569Y-111498000D01*
X64106783Y-111471502D01*
X64485547Y-111218420D01*
X64738629Y-110839656D01*
X64827500Y-110392873D01*
X64827500Y-110347127D01*
X64738629Y-109900344D01*
X64485547Y-109521580D01*
X64106783Y-109268498D01*
X63660000Y-109179627D01*
X63213217Y-109268498D01*
X62834453Y-109521580D01*
X62581371Y-109900344D01*
X62559698Y-110009301D01*
X62315183Y-109488642D01*
X61886924Y-109098355D01*
X61510912Y-108942615D01*
X61566783Y-108931502D01*
X61945547Y-108678420D01*
X62198629Y-108299656D01*
X62287500Y-107852873D01*
X62287500Y-107807127D01*
X62198629Y-107360344D01*
X61945547Y-106981580D01*
X61566783Y-106728498D01*
X61120000Y-106639627D01*
X60673217Y-106728498D01*
X60294453Y-106981580D01*
X60041371Y-107360344D01*
X59952500Y-107807127D01*
X59952500Y-107852873D01*
X60041371Y-108299656D01*
X60294453Y-108678420D01*
X60673217Y-108931502D01*
X60729088Y-108942615D01*
X60353076Y-109098355D01*
X59924817Y-109488642D01*
X59680302Y-110009301D01*
X59658629Y-109900344D01*
X59405547Y-109521580D01*
X59026783Y-109268498D01*
X58580000Y-109179627D01*
X58133217Y-109268498D01*
X58096037Y-109293341D01*
X57721701Y-108919005D01*
X57721701Y-108629403D01*
X57754453Y-108678420D01*
X58133217Y-108931502D01*
X58580000Y-109020373D01*
X59026783Y-108931502D01*
X59405547Y-108678420D01*
X59658629Y-108299656D01*
X59747500Y-107852873D01*
X59747500Y-107807127D01*
X59658629Y-107360344D01*
X59405547Y-106981580D01*
X59026783Y-106728498D01*
X58580000Y-106639627D01*
X58133217Y-106728498D01*
X57754453Y-106981580D01*
X57721701Y-107030597D01*
X57721701Y-105811690D01*
X60850393Y-105811690D01*
X60944203Y-106038729D01*
X61117757Y-106212586D01*
X61344633Y-106306793D01*
X61492826Y-106306922D01*
X62035252Y-106849349D01*
X62116757Y-106903809D01*
X62171217Y-106940198D01*
X62331600Y-106972100D01*
X62825850Y-106972100D01*
X62825473Y-106972352D01*
X62569637Y-107355236D01*
X62479800Y-107806879D01*
X62479800Y-107853121D01*
X62569637Y-108304764D01*
X62825473Y-108687648D01*
X63208357Y-108943484D01*
X63660000Y-109033321D01*
X64111643Y-108943484D01*
X64494527Y-108687648D01*
X64750363Y-108304764D01*
X64840200Y-107853121D01*
X64840200Y-107806879D01*
X64750363Y-107355236D01*
X64494527Y-106972352D01*
X64494150Y-106972100D01*
X64749404Y-106972100D01*
X65127890Y-107350587D01*
X65121371Y-107360344D01*
X65032500Y-107807127D01*
X65032500Y-107852873D01*
X65121371Y-108299656D01*
X65374453Y-108678420D01*
X65753217Y-108931502D01*
X66200000Y-109020373D01*
X66646783Y-108931502D01*
X67025547Y-108678420D01*
X67278629Y-108299656D01*
X67367500Y-107852873D01*
X67367500Y-107807127D01*
X67278629Y-107360344D01*
X67025547Y-106981580D01*
X66646783Y-106728498D01*
X66200000Y-106639627D01*
X65753217Y-106728498D01*
X65716037Y-106753341D01*
X65219348Y-106256652D01*
X65083383Y-106165802D01*
X64923000Y-106133900D01*
X62505197Y-106133900D01*
X62085479Y-105714183D01*
X62085607Y-105567110D01*
X61991797Y-105340071D01*
X61818243Y-105166214D01*
X61591367Y-105072007D01*
X61345710Y-105071793D01*
X61118671Y-105165603D01*
X60944814Y-105339157D01*
X60850607Y-105566033D01*
X60850393Y-105811690D01*
X57721701Y-105811690D01*
X57721701Y-90630784D01*
X57745629Y-90620897D01*
X57919486Y-90447343D01*
X58013693Y-90220467D01*
X58013907Y-89974810D01*
X57920097Y-89747771D01*
X57746543Y-89573914D01*
X57519667Y-89479707D01*
X57274010Y-89479493D01*
X57046971Y-89573303D01*
X56873114Y-89746857D01*
X56778907Y-89973733D01*
X56778693Y-90219390D01*
X56872503Y-90446429D01*
X56883501Y-90457446D01*
X56883501Y-92203818D01*
X56739480Y-92059545D01*
X56347271Y-91896685D01*
X55922593Y-91896315D01*
X55530100Y-92058489D01*
X55229545Y-92358520D01*
X55066685Y-92750729D01*
X55066315Y-93175407D01*
X55228489Y-93567900D01*
X55528520Y-93868455D01*
X55920729Y-94031315D01*
X56345407Y-94031685D01*
X56737900Y-93869511D01*
X56883501Y-93724164D01*
X56883501Y-107008450D01*
X56865547Y-106981580D01*
X56486783Y-106728498D01*
X56040000Y-106639627D01*
X55593217Y-106728498D01*
X55214453Y-106981580D01*
X54961371Y-107360344D01*
X54872500Y-107807127D01*
X54872500Y-107852873D01*
X54961371Y-108299656D01*
X55214453Y-108678420D01*
X55593217Y-108931502D01*
X56040000Y-109020373D01*
X56486783Y-108931502D01*
X56865547Y-108678420D01*
X56883501Y-108651550D01*
X56883501Y-109092601D01*
X56915403Y-109252984D01*
X56949992Y-109304749D01*
X57006253Y-109388949D01*
X57507891Y-109890587D01*
X57501371Y-109900344D01*
X57412500Y-110347127D01*
X57412500Y-110392873D01*
X57501371Y-110839656D01*
X57754453Y-111218420D01*
X58133217Y-111471502D01*
X58266431Y-111498000D01*
X56353569Y-111498000D01*
X56486783Y-111471502D01*
X56865547Y-111218420D01*
X57118629Y-110839656D01*
X57207500Y-110392873D01*
X57207500Y-110347127D01*
X57118629Y-109900344D01*
X56865547Y-109521580D01*
X56486783Y-109268498D01*
X56040000Y-109179627D01*
X55593217Y-109268498D01*
X55214453Y-109521580D01*
X54961371Y-109900344D01*
X54872500Y-110347127D01*
X54872500Y-110392873D01*
X54961371Y-110839656D01*
X55214453Y-111218420D01*
X55593217Y-111471502D01*
X55726431Y-111498000D01*
X51102000Y-111498000D01*
X51102000Y-75645750D01*
X54555000Y-75645750D01*
X54555000Y-76336309D01*
X54651673Y-76569698D01*
X54830301Y-76748327D01*
X55063690Y-76845000D01*
X55754250Y-76845000D01*
X55913000Y-76686250D01*
X55913000Y-75487000D01*
X54713750Y-75487000D01*
X54555000Y-75645750D01*
X51102000Y-75645750D01*
X51102000Y-74383691D01*
X54555000Y-74383691D01*
X54555000Y-75074250D01*
X54713750Y-75233000D01*
X55913000Y-75233000D01*
X55913000Y-72947000D01*
X54719181Y-72947000D01*
X54598514Y-73176892D01*
X54844817Y-73701358D01*
X55044208Y-73883070D01*
X54830301Y-73971673D01*
X54651673Y-74150302D01*
X54555000Y-74383691D01*
X51102000Y-74383691D01*
X51102000Y-62685790D01*
X57210493Y-62685790D01*
X57304303Y-62912829D01*
X57477857Y-63086686D01*
X57704733Y-63180893D01*
X57950390Y-63181107D01*
X58177429Y-63087297D01*
X58282309Y-62982600D01*
X59529791Y-62982600D01*
X59655757Y-63108786D01*
X59882633Y-63202993D01*
X60128290Y-63203207D01*
X60355329Y-63109397D01*
X60529186Y-62935843D01*
X60623393Y-62708967D01*
X60623607Y-62463310D01*
X60529797Y-62236271D01*
X60356243Y-62062414D01*
X60129367Y-61968207D01*
X59883710Y-61967993D01*
X59656671Y-62061803D01*
X59573930Y-62144400D01*
X58282248Y-62144400D01*
X58178343Y-62040314D01*
X57951467Y-61946107D01*
X57705810Y-61945893D01*
X57478771Y-62039703D01*
X57304914Y-62213257D01*
X57210707Y-62440133D01*
X57210493Y-62685790D01*
X51102000Y-62685790D01*
X51102000Y-58493150D01*
X60699200Y-58493150D01*
X60699200Y-59183710D01*
X60795873Y-59417099D01*
X60974502Y-59595727D01*
X61207891Y-59692400D01*
X61898450Y-59692400D01*
X62057200Y-59533650D01*
X62057200Y-58334400D01*
X60857950Y-58334400D01*
X60699200Y-58493150D01*
X51102000Y-58493150D01*
X51102000Y-51302000D01*
X95298000Y-51302000D01*
X95298000Y-64676777D01*
X95298000Y-64676777D01*
G37*
X95298000Y-64676777D02*
X95232045Y-64574279D01*
X95125945Y-64501785D01*
X95000000Y-64476280D01*
X93200000Y-64476280D01*
X93082342Y-64498419D01*
X92974279Y-64567955D01*
X92901785Y-64674055D01*
X92876280Y-64800000D01*
X92876280Y-67800000D01*
X92898419Y-67917658D01*
X92967955Y-68025721D01*
X93074055Y-68098215D01*
X93200000Y-68123720D01*
X95000000Y-68123720D01*
X95117658Y-68101581D01*
X95225721Y-68032045D01*
X95298000Y-67926260D01*
X95298000Y-71279418D01*
X95095606Y-71024788D01*
X94570086Y-70733244D01*
X94464740Y-70708964D01*
X94227000Y-70829622D01*
X94227000Y-72673000D01*
X94247000Y-72673000D01*
X94247000Y-72927000D01*
X94227000Y-72927000D01*
X94227000Y-74770378D01*
X94464740Y-74891036D01*
X94570086Y-74866756D01*
X95095606Y-74575212D01*
X95298000Y-74320582D01*
X95298000Y-75698000D01*
X93300000Y-75698000D01*
X93294200Y-75699154D01*
X93294200Y-74680511D01*
X93629914Y-74866756D01*
X93735260Y-74891036D01*
X93973000Y-74770378D01*
X93973000Y-72927000D01*
X93953000Y-72927000D01*
X93953000Y-72673000D01*
X93973000Y-72673000D01*
X93973000Y-70829622D01*
X93735260Y-70708964D01*
X93629914Y-70733244D01*
X93294200Y-70919489D01*
X93294200Y-68910200D01*
X93259398Y-68735237D01*
X93160289Y-68586911D01*
X92399451Y-67826073D01*
X92429883Y-67805739D01*
X92696557Y-67406633D01*
X92790200Y-66935856D01*
X92790200Y-65664144D01*
X92696557Y-65193367D01*
X92429883Y-64794261D01*
X92030777Y-64527587D01*
X91560000Y-64433944D01*
X91089223Y-64527587D01*
X90690117Y-64794261D01*
X90423443Y-65193367D01*
X90329800Y-65664144D01*
X90329800Y-66935856D01*
X90423443Y-67406633D01*
X90690117Y-67805739D01*
X91089223Y-68072413D01*
X91418041Y-68137819D01*
X92379800Y-69099578D01*
X92379800Y-71260797D01*
X92030777Y-71027587D01*
X91560000Y-70933944D01*
X91089223Y-71027587D01*
X90754200Y-71251442D01*
X90754200Y-69088000D01*
X90719398Y-68913037D01*
X90620289Y-68764711D01*
X89752868Y-67897290D01*
X89889883Y-67805739D01*
X90156557Y-67406633D01*
X90250200Y-66935856D01*
X90250200Y-65664144D01*
X90156557Y-65193367D01*
X89889883Y-64794261D01*
X89490777Y-64527587D01*
X89020000Y-64433944D01*
X88549223Y-64527587D01*
X88150117Y-64794261D01*
X87899434Y-65169434D01*
X87849554Y-64995248D01*
X87475606Y-64524788D01*
X86950086Y-64233244D01*
X86844740Y-64208964D01*
X86607000Y-64329622D01*
X86607000Y-66173000D01*
X86627000Y-66173000D01*
X86627000Y-66427000D01*
X86607000Y-66427000D01*
X86607000Y-68270378D01*
X86844740Y-68391036D01*
X86950086Y-68366756D01*
X87475606Y-68075212D01*
X87849554Y-67604752D01*
X87899434Y-67430566D01*
X88150117Y-67805739D01*
X88549223Y-68072413D01*
X88664595Y-68095362D01*
X88678311Y-68115889D01*
X89839800Y-69277378D01*
X89839800Y-71260797D01*
X89490777Y-71027587D01*
X89020000Y-70933944D01*
X88549223Y-71027587D01*
X88150117Y-71294261D01*
X87883443Y-71693367D01*
X87789800Y-72164144D01*
X87789800Y-73435856D01*
X87883443Y-73906633D01*
X88150117Y-74305739D01*
X88549223Y-74572413D01*
X89020000Y-74666056D01*
X89490777Y-74572413D01*
X89865399Y-74322098D01*
X89874602Y-74368363D01*
X89973711Y-74516689D01*
X91876800Y-76419778D01*
X91876800Y-90547074D01*
X91854599Y-90524873D01*
X91621210Y-90428200D01*
X90930650Y-90428200D01*
X90771900Y-90586950D01*
X90771900Y-91786200D01*
X90791900Y-91786200D01*
X90791900Y-92040200D01*
X90771900Y-92040200D01*
X90771900Y-93239450D01*
X90930650Y-93398200D01*
X91621210Y-93398200D01*
X91854599Y-93301527D01*
X91876800Y-93279326D01*
X91876800Y-100156622D01*
X88374268Y-103659154D01*
X88441476Y-103496890D01*
X88320155Y-103267000D01*
X87127000Y-103267000D01*
X87127000Y-103287000D01*
X86873000Y-103287000D01*
X86873000Y-103267000D01*
X85679845Y-103267000D01*
X85558524Y-103496890D01*
X85728355Y-103906924D01*
X86118642Y-104335183D01*
X86620230Y-104570742D01*
X86525236Y-104589637D01*
X86142352Y-104845473D01*
X85886516Y-105228357D01*
X85796679Y-105680000D01*
X85886516Y-106131643D01*
X86142352Y-106514527D01*
X86525236Y-106770363D01*
X86976879Y-106860200D01*
X87023121Y-106860200D01*
X87474764Y-106770363D01*
X87857648Y-106514527D01*
X88113484Y-106131643D01*
X88203321Y-105680000D01*
X88113484Y-105228357D01*
X88107370Y-105219208D01*
X92379800Y-100946778D01*
X92379800Y-103193622D01*
X88186669Y-107386753D01*
X88186669Y-107370000D01*
X88163644Y-107247635D01*
X88091327Y-107135251D01*
X87980983Y-107059856D01*
X87850000Y-107033331D01*
X86150000Y-107033331D01*
X86027635Y-107056356D01*
X85915251Y-107128673D01*
X85839856Y-107239017D01*
X85813331Y-107370000D01*
X85813331Y-109070000D01*
X85836356Y-109192365D01*
X85908673Y-109304749D01*
X86019017Y-109380144D01*
X86150000Y-109406669D01*
X87850000Y-109406669D01*
X87972365Y-109383644D01*
X88084749Y-109311327D01*
X88160144Y-109200983D01*
X88186669Y-109070000D01*
X88186669Y-108634576D01*
X88323289Y-108543289D01*
X92998000Y-103868578D01*
X92998000Y-105374907D01*
X86874908Y-111498000D01*
X84358666Y-111498000D01*
X84431643Y-111483484D01*
X84814527Y-111227648D01*
X85070363Y-110844764D01*
X85160200Y-110393121D01*
X85160200Y-110346879D01*
X85070363Y-109895236D01*
X84814527Y-109512352D01*
X84431643Y-109256516D01*
X83980000Y-109166679D01*
X83528357Y-109256516D01*
X83145473Y-109512352D01*
X82889637Y-109895236D01*
X82799800Y-110346879D01*
X82799800Y-110393121D01*
X82889637Y-110844764D01*
X83145473Y-111227648D01*
X83528357Y-111483484D01*
X83601334Y-111498000D01*
X81818666Y-111498000D01*
X81891643Y-111483484D01*
X82274527Y-111227648D01*
X82530363Y-110844764D01*
X82620200Y-110393121D01*
X82620200Y-110346879D01*
X82530363Y-109895236D01*
X82274527Y-109512352D01*
X81891643Y-109256516D01*
X81440000Y-109166679D01*
X80988357Y-109256516D01*
X80605473Y-109512352D01*
X80349637Y-109895236D01*
X80330742Y-109990230D01*
X80095183Y-109488642D01*
X79666924Y-109098355D01*
X79290912Y-108942615D01*
X79346783Y-108931502D01*
X79725547Y-108678420D01*
X79978629Y-108299656D01*
X80067500Y-107852873D01*
X80067500Y-107807127D01*
X80272500Y-107807127D01*
X80272500Y-107852873D01*
X80361371Y-108299656D01*
X80614453Y-108678420D01*
X80993217Y-108931502D01*
X81440000Y-109020373D01*
X81886783Y-108931502D01*
X82265547Y-108678420D01*
X82518629Y-108299656D01*
X82607500Y-107852873D01*
X82607500Y-107807127D01*
X82518629Y-107360344D01*
X82265547Y-106981580D01*
X82263183Y-106980000D01*
X82806280Y-106980000D01*
X82806280Y-108680000D01*
X82828419Y-108797658D01*
X82897955Y-108905721D01*
X83004055Y-108978215D01*
X83130000Y-109003720D01*
X84830000Y-109003720D01*
X84947658Y-108981581D01*
X85055721Y-108912045D01*
X85128215Y-108805945D01*
X85153720Y-108680000D01*
X85153720Y-106980000D01*
X85131581Y-106862342D01*
X85062045Y-106754279D01*
X84955945Y-106681785D01*
X84830000Y-106656280D01*
X83130000Y-106656280D01*
X83012342Y-106678419D01*
X82904279Y-106747955D01*
X82831785Y-106854055D01*
X82806280Y-106980000D01*
X82263183Y-106980000D01*
X81886783Y-106728498D01*
X81881898Y-106727526D01*
X81881898Y-101833628D01*
X81985984Y-101729723D01*
X82080191Y-101502847D01*
X82080405Y-101257190D01*
X81986595Y-101030151D01*
X81813041Y-100856294D01*
X81586165Y-100762087D01*
X81340508Y-100761873D01*
X81113469Y-100855683D01*
X80939612Y-101029237D01*
X80845405Y-101256113D01*
X80845191Y-101501770D01*
X80939001Y-101728809D01*
X81043698Y-101833689D01*
X81043698Y-106718457D01*
X80993217Y-106728498D01*
X80614453Y-106981580D01*
X80361371Y-107360344D01*
X80272500Y-107807127D01*
X80067500Y-107807127D01*
X79978629Y-107360344D01*
X79725547Y-106981580D01*
X79346783Y-106728498D01*
X79303800Y-106719948D01*
X79303800Y-101241518D01*
X79407886Y-101137613D01*
X79502093Y-100910737D01*
X79502307Y-100665080D01*
X79408497Y-100438041D01*
X79234943Y-100264184D01*
X79008067Y-100169977D01*
X78762410Y-100169763D01*
X78535371Y-100263573D01*
X78361514Y-100437127D01*
X78267307Y-100664003D01*
X78267093Y-100909660D01*
X78360903Y-101136699D01*
X78465600Y-101241579D01*
X78465600Y-106726035D01*
X78453217Y-106728498D01*
X78122700Y-106949342D01*
X78122700Y-73715886D01*
X78448357Y-73933484D01*
X78900000Y-74023321D01*
X79351643Y-73933484D01*
X79734527Y-73677648D01*
X79990363Y-73294764D01*
X80080200Y-72843121D01*
X80080200Y-72796879D01*
X79990363Y-72345236D01*
X79734527Y-71962352D01*
X79351643Y-71706516D01*
X78900000Y-71616679D01*
X78448357Y-71706516D01*
X78065473Y-71962352D01*
X78035531Y-72007164D01*
X77988790Y-71937211D01*
X67526489Y-61474911D01*
X67378163Y-61375802D01*
X67203200Y-61341000D01*
X66811909Y-61341000D01*
X66557648Y-60960473D01*
X66174764Y-60704637D01*
X65723121Y-60614800D01*
X65676879Y-60614800D01*
X65225236Y-60704637D01*
X64846200Y-60957902D01*
X64846200Y-60755378D01*
X65251075Y-60350503D01*
X65676879Y-60435200D01*
X65723121Y-60435200D01*
X66174764Y-60345363D01*
X66557648Y-60089527D01*
X66813484Y-59706643D01*
X66903321Y-59255000D01*
X66813484Y-58803357D01*
X66557648Y-58420473D01*
X66174764Y-58164637D01*
X65723121Y-58074800D01*
X65676879Y-58074800D01*
X65225236Y-58164637D01*
X64842352Y-58420473D01*
X64586516Y-58803357D01*
X64496679Y-59255000D01*
X64586516Y-59706643D01*
X64592630Y-59715792D01*
X64388989Y-59919433D01*
X64388989Y-55462015D01*
X64490302Y-55563327D01*
X64723691Y-55660000D01*
X65172312Y-55660000D01*
X64842352Y-55880473D01*
X64586516Y-56263357D01*
X64496679Y-56715000D01*
X64586516Y-57166643D01*
X64842352Y-57549527D01*
X65225236Y-57805363D01*
X65676879Y-57895200D01*
X65723121Y-57895200D01*
X66174764Y-57805363D01*
X66557648Y-57549527D01*
X66654886Y-57404000D01*
X70522416Y-57404000D01*
X82181700Y-69063283D01*
X82181700Y-71900327D01*
X81891643Y-71706516D01*
X81440000Y-71616679D01*
X80988357Y-71706516D01*
X80605473Y-71962352D01*
X80349637Y-72345236D01*
X80259800Y-72796879D01*
X80259800Y-72843121D01*
X80349637Y-73294764D01*
X80605473Y-73677648D01*
X80988357Y-73933484D01*
X81440000Y-74023321D01*
X81891643Y-73933484D01*
X82181700Y-73739673D01*
X82181700Y-74473494D01*
X82160130Y-74505776D01*
X82115660Y-74729340D01*
X82115660Y-96299860D01*
X82160130Y-96523424D01*
X82269762Y-96687500D01*
X82286768Y-96712952D01*
X85859250Y-100285434D01*
X85796679Y-100600000D01*
X85886516Y-101051643D01*
X86142352Y-101434527D01*
X86525236Y-101690363D01*
X86620230Y-101709258D01*
X86118642Y-101944817D01*
X85728355Y-102373076D01*
X85558524Y-102783110D01*
X85679845Y-103013000D01*
X86873000Y-103013000D01*
X86873000Y-102993000D01*
X87127000Y-102993000D01*
X87127000Y-103013000D01*
X88320155Y-103013000D01*
X88441476Y-102783110D01*
X88271645Y-102373076D01*
X87881358Y-101944817D01*
X87379770Y-101709258D01*
X87474764Y-101690363D01*
X87857648Y-101434527D01*
X88113484Y-101051643D01*
X88203321Y-100600000D01*
X88113484Y-100148357D01*
X87857648Y-99765473D01*
X87474764Y-99509637D01*
X87023121Y-99419800D01*
X86976879Y-99419800D01*
X86700883Y-99474699D01*
X85286184Y-98060000D01*
X85809627Y-98060000D01*
X85898498Y-98506783D01*
X86151580Y-98885547D01*
X86530344Y-99138629D01*
X86977127Y-99227500D01*
X87022873Y-99227500D01*
X87469656Y-99138629D01*
X87848420Y-98885547D01*
X88101502Y-98506783D01*
X88190373Y-98060000D01*
X88101502Y-97613217D01*
X87848420Y-97234453D01*
X87469656Y-96981371D01*
X87022873Y-96892500D01*
X86977127Y-96892500D01*
X86530344Y-96981371D01*
X86151580Y-97234453D01*
X85898498Y-97613217D01*
X85809627Y-98060000D01*
X85286184Y-98060000D01*
X83284060Y-96057876D01*
X83284060Y-95520000D01*
X85809627Y-95520000D01*
X85898498Y-95966783D01*
X86151580Y-96345547D01*
X86530344Y-96598629D01*
X86977127Y-96687500D01*
X87022873Y-96687500D01*
X87469656Y-96598629D01*
X87848420Y-96345547D01*
X88101502Y-95966783D01*
X88190373Y-95520000D01*
X88101502Y-95073217D01*
X87848420Y-94694453D01*
X87469656Y-94441371D01*
X87022873Y-94352500D01*
X86977127Y-94352500D01*
X86530344Y-94441371D01*
X86151580Y-94694453D01*
X85898498Y-95073217D01*
X85809627Y-95520000D01*
X83284060Y-95520000D01*
X83284060Y-91890079D01*
X86924700Y-91890079D01*
X86924700Y-91936321D01*
X87014537Y-92387964D01*
X87270373Y-92770848D01*
X87653257Y-93026684D01*
X88104900Y-93116521D01*
X88556543Y-93026684D01*
X88939427Y-92770848D01*
X89159900Y-92440888D01*
X89159900Y-92889509D01*
X89256573Y-93122898D01*
X89435201Y-93301527D01*
X89668590Y-93398200D01*
X90359150Y-93398200D01*
X90517900Y-93239450D01*
X90517900Y-92040200D01*
X90497900Y-92040200D01*
X90497900Y-91786200D01*
X90517900Y-91786200D01*
X90517900Y-90586950D01*
X90359150Y-90428200D01*
X89668590Y-90428200D01*
X89435201Y-90524873D01*
X89256573Y-90703502D01*
X89159900Y-90936891D01*
X89159900Y-91385512D01*
X88939427Y-91055552D01*
X88556543Y-90799716D01*
X88104900Y-90709879D01*
X87653257Y-90799716D01*
X87270373Y-91055552D01*
X87014537Y-91438436D01*
X86924700Y-91890079D01*
X83284060Y-91890079D01*
X83284060Y-74729340D01*
X83239590Y-74505776D01*
X83223100Y-74481097D01*
X83223100Y-73993720D01*
X84830000Y-73993720D01*
X84947658Y-73971581D01*
X85055721Y-73902045D01*
X85128215Y-73795945D01*
X85153720Y-73670000D01*
X85153720Y-71970000D01*
X85131581Y-71852342D01*
X85062045Y-71744279D01*
X84955945Y-71671785D01*
X84830000Y-71646280D01*
X83223100Y-71646280D01*
X83223100Y-69009845D01*
X83242131Y-68981363D01*
X83286601Y-68757800D01*
X83242131Y-68534237D01*
X83115492Y-68344709D01*
X78411589Y-63640805D01*
X79105291Y-63640805D01*
X79201031Y-63872513D01*
X79378154Y-64049946D01*
X79489665Y-64096249D01*
X86193400Y-70799984D01*
X86193400Y-70963331D01*
X85580000Y-70963331D01*
X85457635Y-70986356D01*
X85345251Y-71058673D01*
X85269856Y-71169017D01*
X85243331Y-71300000D01*
X85243331Y-74300000D01*
X85266356Y-74422365D01*
X85338673Y-74534749D01*
X85449017Y-74610144D01*
X85580000Y-74636669D01*
X87380000Y-74636669D01*
X87502365Y-74613644D01*
X87614749Y-74541327D01*
X87690144Y-74430983D01*
X87716669Y-74300000D01*
X87716669Y-71300000D01*
X87693644Y-71177635D01*
X87621327Y-71065251D01*
X87510983Y-70989856D01*
X87380000Y-70963331D01*
X87361800Y-70963331D01*
X87361800Y-70558000D01*
X87317330Y-70334436D01*
X87190692Y-70144908D01*
X83472784Y-66427000D01*
X84945000Y-66427000D01*
X84945000Y-67027000D01*
X85110446Y-67604752D01*
X85484394Y-68075212D01*
X86009914Y-68366756D01*
X86115260Y-68391036D01*
X86353000Y-68270378D01*
X86353000Y-66427000D01*
X84945000Y-66427000D01*
X83472784Y-66427000D01*
X82618784Y-65573000D01*
X84945000Y-65573000D01*
X84945000Y-66173000D01*
X86353000Y-66173000D01*
X86353000Y-64329622D01*
X86115260Y-64208964D01*
X86009914Y-64233244D01*
X85484394Y-64524788D01*
X85110446Y-64995248D01*
X84945000Y-65573000D01*
X82618784Y-65573000D01*
X80315866Y-63270082D01*
X80270169Y-63159487D01*
X80093046Y-62982054D01*
X79861504Y-62885910D01*
X79610795Y-62885691D01*
X79379087Y-62981431D01*
X79201654Y-63158554D01*
X79105510Y-63390096D01*
X79105291Y-63640805D01*
X78411589Y-63640805D01*
X71177492Y-56406708D01*
X70987964Y-56280070D01*
X70764400Y-56235600D01*
X66794937Y-56235600D01*
X66557648Y-55880473D01*
X66227688Y-55660000D01*
X66676309Y-55660000D01*
X66909698Y-55563327D01*
X67088327Y-55384699D01*
X67185000Y-55151310D01*
X67185000Y-55044732D01*
X86800073Y-55044732D01*
X86898736Y-55311587D01*
X87508461Y-55538108D01*
X88158460Y-55514056D01*
X88647264Y-55311587D01*
X88745927Y-55044732D01*
X87773000Y-54071805D01*
X86800073Y-55044732D01*
X67185000Y-55044732D01*
X67185000Y-54460750D01*
X67026250Y-54302000D01*
X65827000Y-54302000D01*
X65827000Y-54322000D01*
X65573000Y-54322000D01*
X65573000Y-54302000D01*
X64373750Y-54302000D01*
X64215000Y-54460750D01*
X64215000Y-54511622D01*
X63291570Y-53588192D01*
X63297684Y-53579043D01*
X63373340Y-53198690D01*
X64215000Y-53198690D01*
X64215000Y-53889250D01*
X64373750Y-54048000D01*
X65573000Y-54048000D01*
X65573000Y-52848750D01*
X65827000Y-52848750D01*
X65827000Y-54048000D01*
X67026250Y-54048000D01*
X67185000Y-53889250D01*
X67185000Y-53627661D01*
X86127092Y-53627661D01*
X86151144Y-54277660D01*
X86353613Y-54766464D01*
X86620468Y-54865127D01*
X87593395Y-53892200D01*
X87952605Y-53892200D01*
X88925532Y-54865127D01*
X88989280Y-54841558D01*
X88989280Y-54892200D01*
X89011419Y-55009858D01*
X89080955Y-55117921D01*
X89187055Y-55190415D01*
X89313000Y-55215920D01*
X91313000Y-55215920D01*
X91430658Y-55193781D01*
X91538721Y-55124245D01*
X91611215Y-55018145D01*
X91636720Y-54892200D01*
X91636720Y-52892200D01*
X91614581Y-52774542D01*
X91545045Y-52666479D01*
X91438945Y-52593985D01*
X91313000Y-52568480D01*
X89313000Y-52568480D01*
X89195342Y-52590619D01*
X89087279Y-52660155D01*
X89014785Y-52766255D01*
X88989280Y-52892200D01*
X88989280Y-52942842D01*
X88925532Y-52919273D01*
X87952605Y-53892200D01*
X87593395Y-53892200D01*
X86620468Y-52919273D01*
X86353613Y-53017936D01*
X86127092Y-53627661D01*
X67185000Y-53627661D01*
X67185000Y-53198690D01*
X67088327Y-52965301D01*
X66909698Y-52786673D01*
X66796219Y-52739668D01*
X86800073Y-52739668D01*
X87773000Y-53712595D01*
X88745927Y-52739668D01*
X88647264Y-52472813D01*
X88037539Y-52246292D01*
X87387540Y-52270344D01*
X86898736Y-52472813D01*
X86800073Y-52739668D01*
X66796219Y-52739668D01*
X66676309Y-52690000D01*
X65985750Y-52690000D01*
X65827000Y-52848750D01*
X65573000Y-52848750D01*
X65414250Y-52690000D01*
X64723691Y-52690000D01*
X64490302Y-52786673D01*
X64311673Y-52965301D01*
X64215000Y-53198690D01*
X63373340Y-53198690D01*
X63387521Y-53127400D01*
X63297684Y-52675757D01*
X63041848Y-52292873D01*
X62658964Y-52037037D01*
X62207321Y-51947200D01*
X62161079Y-51947200D01*
X61709436Y-52037037D01*
X61326552Y-52292873D01*
X61070716Y-52675757D01*
X60980879Y-53127400D01*
X61070716Y-53579043D01*
X61326552Y-53961927D01*
X61709436Y-54217763D01*
X62161079Y-54307600D01*
X62207321Y-54307600D01*
X62633125Y-54222903D01*
X63474589Y-55064367D01*
X63474589Y-56311211D01*
X63291570Y-56128192D01*
X63297684Y-56119043D01*
X63387521Y-55667400D01*
X63297684Y-55215757D01*
X63041848Y-54832873D01*
X62658964Y-54577037D01*
X62207321Y-54487200D01*
X62161079Y-54487200D01*
X61709436Y-54577037D01*
X61326552Y-54832873D01*
X61070716Y-55215757D01*
X60980879Y-55667400D01*
X61070716Y-56119043D01*
X61326552Y-56501927D01*
X61656512Y-56722400D01*
X61207891Y-56722400D01*
X60974502Y-56819073D01*
X60795873Y-56997701D01*
X60699200Y-57231090D01*
X60699200Y-57921650D01*
X60857950Y-58080400D01*
X62057200Y-58080400D01*
X62057200Y-58060400D01*
X62311200Y-58060400D01*
X62311200Y-58080400D01*
X62331200Y-58080400D01*
X62331200Y-58334400D01*
X62311200Y-58334400D01*
X62311200Y-59533650D01*
X62469950Y-59692400D01*
X63017378Y-59692400D01*
X63017378Y-70009144D01*
X62437444Y-70589078D01*
X62383569Y-70458691D01*
X62206446Y-70281258D01*
X62094935Y-70234955D01*
X61962093Y-70102113D01*
X61962090Y-70102111D01*
X60788888Y-68928908D01*
X60760889Y-68910200D01*
X60599360Y-68802270D01*
X60375796Y-68757800D01*
X56361784Y-68757800D01*
X54156119Y-66552135D01*
X54108169Y-66436087D01*
X53931046Y-66258654D01*
X53699504Y-66162510D01*
X53448795Y-66162291D01*
X53217087Y-66258031D01*
X53039654Y-66435154D01*
X52943510Y-66666696D01*
X52943291Y-66917405D01*
X53039031Y-67149113D01*
X53216154Y-67326546D01*
X53322193Y-67370577D01*
X54247519Y-68295903D01*
X54217582Y-68325840D01*
X54063808Y-68261988D01*
X53634078Y-68261613D01*
X53236915Y-68425717D01*
X52932785Y-68729317D01*
X52767988Y-69126192D01*
X52767613Y-69555922D01*
X52931717Y-69953085D01*
X53235317Y-70257215D01*
X53632192Y-70422012D01*
X54061922Y-70422387D01*
X54459085Y-70258283D01*
X54763215Y-69954683D01*
X54928012Y-69557808D01*
X54928387Y-69128078D01*
X54864096Y-68972482D01*
X54894097Y-68942481D01*
X55634999Y-69683383D01*
X55366100Y-69794489D01*
X55065545Y-70094520D01*
X54902685Y-70486729D01*
X54902315Y-70911407D01*
X55064489Y-71303900D01*
X55298150Y-71537969D01*
X55273076Y-71548355D01*
X54844817Y-71938642D01*
X54598514Y-72463108D01*
X54719181Y-72693000D01*
X55913000Y-72693000D01*
X55913000Y-72673000D01*
X56167000Y-72673000D01*
X56167000Y-72693000D01*
X56187000Y-72693000D01*
X56187000Y-72947000D01*
X56167000Y-72947000D01*
X56167000Y-75233000D01*
X56187000Y-75233000D01*
X56187000Y-75487000D01*
X56167000Y-75487000D01*
X56167000Y-76686250D01*
X56325750Y-76845000D01*
X56824800Y-76845000D01*
X56824800Y-82400900D01*
X56856702Y-82561283D01*
X56947552Y-82697248D01*
X57907884Y-83657581D01*
X57821671Y-83693203D01*
X57647814Y-83866757D01*
X57553607Y-84093633D01*
X57553393Y-84339290D01*
X57647203Y-84566329D01*
X57820757Y-84740186D01*
X58047633Y-84834393D01*
X58195826Y-84834522D01*
X58234500Y-84873196D01*
X58234500Y-99723452D01*
X58130414Y-99827357D01*
X58036207Y-100054233D01*
X58035993Y-100299890D01*
X58129803Y-100526929D01*
X58303357Y-100700786D01*
X58530233Y-100794993D01*
X58775890Y-100795207D01*
X59002929Y-100701397D01*
X59176786Y-100527843D01*
X59270993Y-100300967D01*
X59271207Y-100055310D01*
X59177397Y-99828271D01*
X59072700Y-99723391D01*
X59072700Y-94445407D01*
X59372315Y-94445407D01*
X59534489Y-94837900D01*
X59834520Y-95138455D01*
X60226729Y-95301315D01*
X60651407Y-95301685D01*
X61043900Y-95139511D01*
X61344455Y-94839480D01*
X61507315Y-94447271D01*
X61507685Y-94022593D01*
X61345511Y-93630100D01*
X61045480Y-93329545D01*
X60888822Y-93264495D01*
X60953186Y-93200243D01*
X61047393Y-92973367D01*
X61047607Y-92727710D01*
X60953797Y-92500671D01*
X60780243Y-92326814D01*
X60553367Y-92232607D01*
X60307710Y-92232393D01*
X60080671Y-92326203D01*
X59906814Y-92499757D01*
X59812607Y-92726633D01*
X59812393Y-92972290D01*
X59906203Y-93199329D01*
X59977015Y-93270264D01*
X59836100Y-93328489D01*
X59535545Y-93628520D01*
X59372685Y-94020729D01*
X59372315Y-94445407D01*
X59072700Y-94445407D01*
X59072700Y-92299735D01*
X59292233Y-92390893D01*
X59537890Y-92391107D01*
X59764929Y-92297297D01*
X59938786Y-92123743D01*
X60032993Y-91896867D01*
X60033207Y-91651210D01*
X59939397Y-91424171D01*
X59834700Y-91319291D01*
X59834700Y-84572600D01*
X59828060Y-84539217D01*
X59802799Y-84412218D01*
X59711949Y-84276252D01*
X57663000Y-82227304D01*
X57663000Y-77519390D01*
X59064693Y-77519390D01*
X59110800Y-77630978D01*
X59110800Y-81636158D01*
X59110799Y-81636163D01*
X59147085Y-81818581D01*
X59154303Y-81854867D01*
X59239117Y-81981801D01*
X59278188Y-82040275D01*
X61076422Y-83838508D01*
X61076424Y-83838511D01*
X61199357Y-83920652D01*
X61261833Y-83962397D01*
X61480536Y-84005900D01*
X61480541Y-84005899D01*
X61670910Y-84005899D01*
X61781433Y-84051792D01*
X62027090Y-84052006D01*
X62138678Y-84005899D01*
X64987575Y-84005899D01*
X65795801Y-84814124D01*
X65795801Y-86183596D01*
X65795800Y-86183601D01*
X65830935Y-86360233D01*
X65839304Y-86402305D01*
X65963189Y-86587713D01*
X66095800Y-86720324D01*
X66095800Y-90279477D01*
X65230276Y-91145000D01*
X63704759Y-91145000D01*
X63609167Y-91105307D01*
X63363510Y-91105093D01*
X63136471Y-91198903D01*
X62962614Y-91372457D01*
X62868407Y-91599333D01*
X62868193Y-91844990D01*
X62962003Y-92072029D01*
X63135557Y-92245886D01*
X63362433Y-92340093D01*
X63608090Y-92340307D01*
X63734683Y-92288000D01*
X65334696Y-92288000D01*
X65262814Y-92359757D01*
X65168607Y-92586633D01*
X65168393Y-92832290D01*
X65262203Y-93059329D01*
X65366900Y-93164209D01*
X65366900Y-93252132D01*
X65182100Y-93328489D01*
X64881545Y-93628520D01*
X64718685Y-94020729D01*
X64718315Y-94445407D01*
X64880489Y-94837900D01*
X65180520Y-95138455D01*
X65572729Y-95301315D01*
X65997407Y-95301685D01*
X66389900Y-95139511D01*
X66690455Y-94839480D01*
X66853315Y-94447271D01*
X66853685Y-94022593D01*
X66691511Y-93630100D01*
X66391480Y-93329545D01*
X66205100Y-93252153D01*
X66205100Y-93164148D01*
X66309186Y-93060243D01*
X66403393Y-92833367D01*
X66403607Y-92587710D01*
X66309797Y-92360671D01*
X66136243Y-92186814D01*
X65909367Y-92092607D01*
X65899126Y-92092598D01*
X67071409Y-90920314D01*
X67071412Y-90920312D01*
X67195297Y-90734904D01*
X67195298Y-90734903D01*
X67238801Y-90516200D01*
X67238800Y-90516195D01*
X67238800Y-86717490D01*
X67284693Y-86606967D01*
X67284907Y-86361310D01*
X67191097Y-86134271D01*
X67017543Y-85960414D01*
X66938801Y-85927718D01*
X66938801Y-84577406D01*
X66938802Y-84577401D01*
X66895298Y-84358698D01*
X66895298Y-84358697D01*
X66771413Y-84173289D01*
X66771410Y-84173287D01*
X65628411Y-83030287D01*
X65443003Y-82906402D01*
X65406717Y-82899184D01*
X65224299Y-82862898D01*
X65224294Y-82862899D01*
X62138690Y-82862899D01*
X62028167Y-82817006D01*
X61782510Y-82816792D01*
X61703711Y-82849351D01*
X60253800Y-81399439D01*
X60253800Y-77630990D01*
X60299693Y-77520467D01*
X60299907Y-77274810D01*
X60206097Y-77047771D01*
X60032543Y-76873914D01*
X59805667Y-76779707D01*
X59560010Y-76779493D01*
X59332971Y-76873303D01*
X59159114Y-77046857D01*
X59064907Y-77273733D01*
X59064693Y-77519390D01*
X57663000Y-77519390D01*
X57663000Y-76071551D01*
X57754453Y-76208420D01*
X58133217Y-76461502D01*
X58580000Y-76550373D01*
X59026783Y-76461502D01*
X59405547Y-76208420D01*
X59658629Y-75829656D01*
X59747500Y-75382873D01*
X59747500Y-75337127D01*
X59658629Y-74890344D01*
X59405547Y-74511580D01*
X59026783Y-74258498D01*
X58580000Y-74169627D01*
X58133217Y-74258498D01*
X57754453Y-74511580D01*
X57663000Y-74648449D01*
X57663000Y-73531551D01*
X57754453Y-73668420D01*
X58133217Y-73921502D01*
X58580000Y-74010373D01*
X59026783Y-73921502D01*
X59385200Y-73682015D01*
X59385200Y-74082400D01*
X59420002Y-74257363D01*
X59519111Y-74405689D01*
X60024497Y-74911075D01*
X59939800Y-75336879D01*
X59939800Y-75383121D01*
X60029637Y-75834764D01*
X60285473Y-76217648D01*
X60668357Y-76473484D01*
X61120000Y-76563321D01*
X61571643Y-76473484D01*
X61954527Y-76217648D01*
X62210363Y-75834764D01*
X62300200Y-75383121D01*
X62300200Y-75336879D01*
X62210363Y-74885236D01*
X61954527Y-74502352D01*
X61571643Y-74246516D01*
X61120000Y-74156679D01*
X60668357Y-74246516D01*
X60659208Y-74252630D01*
X60299600Y-73893022D01*
X60299600Y-73671859D01*
X60673217Y-73921502D01*
X61120000Y-74010373D01*
X61566783Y-73921502D01*
X61925200Y-73682015D01*
X61925200Y-74082400D01*
X61960002Y-74257363D01*
X62059111Y-74405689D01*
X62564497Y-74911075D01*
X62479800Y-75336879D01*
X62479800Y-75383121D01*
X62569637Y-75834764D01*
X62825473Y-76217648D01*
X63208357Y-76473484D01*
X63660000Y-76563321D01*
X64111643Y-76473484D01*
X64494527Y-76217648D01*
X64750363Y-75834764D01*
X64840200Y-75383121D01*
X64840200Y-75336879D01*
X64750363Y-74885236D01*
X64494527Y-74502352D01*
X64111643Y-74246516D01*
X63660000Y-74156679D01*
X63208357Y-74246516D01*
X63199208Y-74252630D01*
X62839600Y-73893022D01*
X62839600Y-73671859D01*
X63213217Y-73921502D01*
X63660000Y-74010373D01*
X64106783Y-73921502D01*
X64469136Y-73679386D01*
X64500002Y-73834561D01*
X64599111Y-73982887D01*
X67266513Y-76650289D01*
X67414839Y-76749398D01*
X67589802Y-76784200D01*
X68924022Y-76784200D01*
X69304101Y-77164279D01*
X69304101Y-106619321D01*
X69200792Y-106722630D01*
X69191643Y-106716516D01*
X68740000Y-106626679D01*
X68288357Y-106716516D01*
X67905473Y-106972352D01*
X67649637Y-107355236D01*
X67559800Y-107806879D01*
X67559800Y-107853121D01*
X67649637Y-108304764D01*
X67905473Y-108687648D01*
X68288357Y-108943484D01*
X68327968Y-108951363D01*
X67973076Y-109098355D01*
X67544817Y-109488642D01*
X67300302Y-110009301D01*
X67278629Y-109900344D01*
X67025547Y-109521580D01*
X66646783Y-109268498D01*
X66200000Y-109179627D01*
X65753217Y-109268498D01*
X65374453Y-109521580D01*
X65121371Y-109900344D01*
X65032500Y-110347127D01*
X65032500Y-110392873D01*
X65121371Y-110839656D01*
X65374453Y-111218420D01*
X65753217Y-111471502D01*
X65886431Y-111498000D01*
X63973569Y-111498000D01*
X64106783Y-111471502D01*
X64485547Y-111218420D01*
X64738629Y-110839656D01*
X64827500Y-110392873D01*
X64827500Y-110347127D01*
X64738629Y-109900344D01*
X64485547Y-109521580D01*
X64106783Y-109268498D01*
X63660000Y-109179627D01*
X63213217Y-109268498D01*
X62834453Y-109521580D01*
X62581371Y-109900344D01*
X62559698Y-110009301D01*
X62315183Y-109488642D01*
X61886924Y-109098355D01*
X61510912Y-108942615D01*
X61566783Y-108931502D01*
X61945547Y-108678420D01*
X62198629Y-108299656D01*
X62287500Y-107852873D01*
X62287500Y-107807127D01*
X62198629Y-107360344D01*
X61945547Y-106981580D01*
X61566783Y-106728498D01*
X61120000Y-106639627D01*
X60673217Y-106728498D01*
X60294453Y-106981580D01*
X60041371Y-107360344D01*
X59952500Y-107807127D01*
X59952500Y-107852873D01*
X60041371Y-108299656D01*
X60294453Y-108678420D01*
X60673217Y-108931502D01*
X60729088Y-108942615D01*
X60353076Y-109098355D01*
X59924817Y-109488642D01*
X59680302Y-110009301D01*
X59658629Y-109900344D01*
X59405547Y-109521580D01*
X59026783Y-109268498D01*
X58580000Y-109179627D01*
X58133217Y-109268498D01*
X58096037Y-109293341D01*
X57721701Y-108919005D01*
X57721701Y-108629403D01*
X57754453Y-108678420D01*
X58133217Y-108931502D01*
X58580000Y-109020373D01*
X59026783Y-108931502D01*
X59405547Y-108678420D01*
X59658629Y-108299656D01*
X59747500Y-107852873D01*
X59747500Y-107807127D01*
X59658629Y-107360344D01*
X59405547Y-106981580D01*
X59026783Y-106728498D01*
X58580000Y-106639627D01*
X58133217Y-106728498D01*
X57754453Y-106981580D01*
X57721701Y-107030597D01*
X57721701Y-105811690D01*
X60850393Y-105811690D01*
X60944203Y-106038729D01*
X61117757Y-106212586D01*
X61344633Y-106306793D01*
X61492826Y-106306922D01*
X62035252Y-106849349D01*
X62116757Y-106903809D01*
X62171217Y-106940198D01*
X62331600Y-106972100D01*
X62825850Y-106972100D01*
X62825473Y-106972352D01*
X62569637Y-107355236D01*
X62479800Y-107806879D01*
X62479800Y-107853121D01*
X62569637Y-108304764D01*
X62825473Y-108687648D01*
X63208357Y-108943484D01*
X63660000Y-109033321D01*
X64111643Y-108943484D01*
X64494527Y-108687648D01*
X64750363Y-108304764D01*
X64840200Y-107853121D01*
X64840200Y-107806879D01*
X64750363Y-107355236D01*
X64494527Y-106972352D01*
X64494150Y-106972100D01*
X64749404Y-106972100D01*
X65127890Y-107350587D01*
X65121371Y-107360344D01*
X65032500Y-107807127D01*
X65032500Y-107852873D01*
X65121371Y-108299656D01*
X65374453Y-108678420D01*
X65753217Y-108931502D01*
X66200000Y-109020373D01*
X66646783Y-108931502D01*
X67025547Y-108678420D01*
X67278629Y-108299656D01*
X67367500Y-107852873D01*
X67367500Y-107807127D01*
X67278629Y-107360344D01*
X67025547Y-106981580D01*
X66646783Y-106728498D01*
X66200000Y-106639627D01*
X65753217Y-106728498D01*
X65716037Y-106753341D01*
X65219348Y-106256652D01*
X65083383Y-106165802D01*
X64923000Y-106133900D01*
X62505197Y-106133900D01*
X62085479Y-105714183D01*
X62085607Y-105567110D01*
X61991797Y-105340071D01*
X61818243Y-105166214D01*
X61591367Y-105072007D01*
X61345710Y-105071793D01*
X61118671Y-105165603D01*
X60944814Y-105339157D01*
X60850607Y-105566033D01*
X60850393Y-105811690D01*
X57721701Y-105811690D01*
X57721701Y-90630784D01*
X57745629Y-90620897D01*
X57919486Y-90447343D01*
X58013693Y-90220467D01*
X58013907Y-89974810D01*
X57920097Y-89747771D01*
X57746543Y-89573914D01*
X57519667Y-89479707D01*
X57274010Y-89479493D01*
X57046971Y-89573303D01*
X56873114Y-89746857D01*
X56778907Y-89973733D01*
X56778693Y-90219390D01*
X56872503Y-90446429D01*
X56883501Y-90457446D01*
X56883501Y-92203818D01*
X56739480Y-92059545D01*
X56347271Y-91896685D01*
X55922593Y-91896315D01*
X55530100Y-92058489D01*
X55229545Y-92358520D01*
X55066685Y-92750729D01*
X55066315Y-93175407D01*
X55228489Y-93567900D01*
X55528520Y-93868455D01*
X55920729Y-94031315D01*
X56345407Y-94031685D01*
X56737900Y-93869511D01*
X56883501Y-93724164D01*
X56883501Y-107008450D01*
X56865547Y-106981580D01*
X56486783Y-106728498D01*
X56040000Y-106639627D01*
X55593217Y-106728498D01*
X55214453Y-106981580D01*
X54961371Y-107360344D01*
X54872500Y-107807127D01*
X54872500Y-107852873D01*
X54961371Y-108299656D01*
X55214453Y-108678420D01*
X55593217Y-108931502D01*
X56040000Y-109020373D01*
X56486783Y-108931502D01*
X56865547Y-108678420D01*
X56883501Y-108651550D01*
X56883501Y-109092601D01*
X56915403Y-109252984D01*
X56949992Y-109304749D01*
X57006253Y-109388949D01*
X57507891Y-109890587D01*
X57501371Y-109900344D01*
X57412500Y-110347127D01*
X57412500Y-110392873D01*
X57501371Y-110839656D01*
X57754453Y-111218420D01*
X58133217Y-111471502D01*
X58266431Y-111498000D01*
X56353569Y-111498000D01*
X56486783Y-111471502D01*
X56865547Y-111218420D01*
X57118629Y-110839656D01*
X57207500Y-110392873D01*
X57207500Y-110347127D01*
X57118629Y-109900344D01*
X56865547Y-109521580D01*
X56486783Y-109268498D01*
X56040000Y-109179627D01*
X55593217Y-109268498D01*
X55214453Y-109521580D01*
X54961371Y-109900344D01*
X54872500Y-110347127D01*
X54872500Y-110392873D01*
X54961371Y-110839656D01*
X55214453Y-111218420D01*
X55593217Y-111471502D01*
X55726431Y-111498000D01*
X51102000Y-111498000D01*
X51102000Y-75645750D01*
X54555000Y-75645750D01*
X54555000Y-76336309D01*
X54651673Y-76569698D01*
X54830301Y-76748327D01*
X55063690Y-76845000D01*
X55754250Y-76845000D01*
X55913000Y-76686250D01*
X55913000Y-75487000D01*
X54713750Y-75487000D01*
X54555000Y-75645750D01*
X51102000Y-75645750D01*
X51102000Y-74383691D01*
X54555000Y-74383691D01*
X54555000Y-75074250D01*
X54713750Y-75233000D01*
X55913000Y-75233000D01*
X55913000Y-72947000D01*
X54719181Y-72947000D01*
X54598514Y-73176892D01*
X54844817Y-73701358D01*
X55044208Y-73883070D01*
X54830301Y-73971673D01*
X54651673Y-74150302D01*
X54555000Y-74383691D01*
X51102000Y-74383691D01*
X51102000Y-62685790D01*
X57210493Y-62685790D01*
X57304303Y-62912829D01*
X57477857Y-63086686D01*
X57704733Y-63180893D01*
X57950390Y-63181107D01*
X58177429Y-63087297D01*
X58282309Y-62982600D01*
X59529791Y-62982600D01*
X59655757Y-63108786D01*
X59882633Y-63202993D01*
X60128290Y-63203207D01*
X60355329Y-63109397D01*
X60529186Y-62935843D01*
X60623393Y-62708967D01*
X60623607Y-62463310D01*
X60529797Y-62236271D01*
X60356243Y-62062414D01*
X60129367Y-61968207D01*
X59883710Y-61967993D01*
X59656671Y-62061803D01*
X59573930Y-62144400D01*
X58282248Y-62144400D01*
X58178343Y-62040314D01*
X57951467Y-61946107D01*
X57705810Y-61945893D01*
X57478771Y-62039703D01*
X57304914Y-62213257D01*
X57210707Y-62440133D01*
X57210493Y-62685790D01*
X51102000Y-62685790D01*
X51102000Y-58493150D01*
X60699200Y-58493150D01*
X60699200Y-59183710D01*
X60795873Y-59417099D01*
X60974502Y-59595727D01*
X61207891Y-59692400D01*
X61898450Y-59692400D01*
X62057200Y-59533650D01*
X62057200Y-58334400D01*
X60857950Y-58334400D01*
X60699200Y-58493150D01*
X51102000Y-58493150D01*
X51102000Y-51302000D01*
X95298000Y-51302000D01*
X95298000Y-64676777D01*
G36*
X70364489Y-91773900D02*
X70664520Y-92074455D01*
X71056729Y-92237315D01*
X71481407Y-92237685D01*
X71873900Y-92075511D01*
X72064800Y-91884944D01*
X72064800Y-106398622D01*
X71740792Y-106722630D01*
X71731643Y-106716516D01*
X71280000Y-106626679D01*
X70828357Y-106716516D01*
X70445473Y-106972352D01*
X70189637Y-107355236D01*
X70099800Y-107806879D01*
X70099800Y-107853121D01*
X70189637Y-108304764D01*
X70445473Y-108687648D01*
X70828357Y-108943484D01*
X71280000Y-109033321D01*
X71731643Y-108943484D01*
X72114527Y-108687648D01*
X72370363Y-108304764D01*
X72389258Y-108209770D01*
X72624817Y-108711358D01*
X73053076Y-109101645D01*
X73407968Y-109248637D01*
X73368357Y-109256516D01*
X72985473Y-109512352D01*
X72729637Y-109895236D01*
X72639800Y-110346879D01*
X72639800Y-110393121D01*
X72729637Y-110844764D01*
X72985473Y-111227648D01*
X73368357Y-111483484D01*
X73441334Y-111498000D01*
X71658666Y-111498000D01*
X71731643Y-111483484D01*
X72114527Y-111227648D01*
X72370363Y-110844764D01*
X72460200Y-110393121D01*
X72460200Y-110346879D01*
X72370363Y-109895236D01*
X72114527Y-109512352D01*
X71731643Y-109256516D01*
X71280000Y-109166679D01*
X70828357Y-109256516D01*
X70445473Y-109512352D01*
X70189637Y-109895236D01*
X70170742Y-109990230D01*
X69935183Y-109488642D01*
X69506924Y-109098355D01*
X69152032Y-108951363D01*
X69191643Y-108943484D01*
X69574527Y-108687648D01*
X69830363Y-108304764D01*
X69920200Y-107853121D01*
X69920200Y-107806879D01*
X69835503Y-107381075D01*
X70084590Y-107131988D01*
X70183699Y-106983662D01*
X70218501Y-106808699D01*
X70218501Y-91420580D01*
X70364489Y-91773900D01*
X70364489Y-91773900D01*
G37*
X70364489Y-91773900D02*
X70664520Y-92074455D01*
X71056729Y-92237315D01*
X71481407Y-92237685D01*
X71873900Y-92075511D01*
X72064800Y-91884944D01*
X72064800Y-106398622D01*
X71740792Y-106722630D01*
X71731643Y-106716516D01*
X71280000Y-106626679D01*
X70828357Y-106716516D01*
X70445473Y-106972352D01*
X70189637Y-107355236D01*
X70099800Y-107806879D01*
X70099800Y-107853121D01*
X70189637Y-108304764D01*
X70445473Y-108687648D01*
X70828357Y-108943484D01*
X71280000Y-109033321D01*
X71731643Y-108943484D01*
X72114527Y-108687648D01*
X72370363Y-108304764D01*
X72389258Y-108209770D01*
X72624817Y-108711358D01*
X73053076Y-109101645D01*
X73407968Y-109248637D01*
X73368357Y-109256516D01*
X72985473Y-109512352D01*
X72729637Y-109895236D01*
X72639800Y-110346879D01*
X72639800Y-110393121D01*
X72729637Y-110844764D01*
X72985473Y-111227648D01*
X73368357Y-111483484D01*
X73441334Y-111498000D01*
X71658666Y-111498000D01*
X71731643Y-111483484D01*
X72114527Y-111227648D01*
X72370363Y-110844764D01*
X72460200Y-110393121D01*
X72460200Y-110346879D01*
X72370363Y-109895236D01*
X72114527Y-109512352D01*
X71731643Y-109256516D01*
X71280000Y-109166679D01*
X70828357Y-109256516D01*
X70445473Y-109512352D01*
X70189637Y-109895236D01*
X70170742Y-109990230D01*
X69935183Y-109488642D01*
X69506924Y-109098355D01*
X69152032Y-108951363D01*
X69191643Y-108943484D01*
X69574527Y-108687648D01*
X69830363Y-108304764D01*
X69920200Y-107853121D01*
X69920200Y-107806879D01*
X69835503Y-107381075D01*
X70084590Y-107131988D01*
X70183699Y-106983662D01*
X70218501Y-106808699D01*
X70218501Y-91420580D01*
X70364489Y-91773900D01*
G36*
X79027000Y-110243000D02*
X79047000Y-110243000D01*
X79047000Y-110497000D01*
X79027000Y-110497000D01*
X79027000Y-110517000D01*
X78773000Y-110517000D01*
X78773000Y-110497000D01*
X78753000Y-110497000D01*
X78753000Y-110243000D01*
X78773000Y-110243000D01*
X78773000Y-110223000D01*
X79027000Y-110223000D01*
X79027000Y-110243000D01*
X79027000Y-110243000D01*
G37*
X79027000Y-110243000D02*
X79047000Y-110243000D01*
X79047000Y-110497000D01*
X79027000Y-110497000D01*
X79027000Y-110517000D01*
X78773000Y-110517000D01*
X78773000Y-110497000D01*
X78753000Y-110497000D01*
X78753000Y-110243000D01*
X78773000Y-110243000D01*
X78773000Y-110223000D01*
X79027000Y-110223000D01*
X79027000Y-110243000D01*
G36*
X61247000Y-110243000D02*
X61267000Y-110243000D01*
X61267000Y-110497000D01*
X61247000Y-110497000D01*
X61247000Y-110517000D01*
X60993000Y-110517000D01*
X60993000Y-110497000D01*
X60973000Y-110497000D01*
X60973000Y-110243000D01*
X60993000Y-110243000D01*
X60993000Y-110223000D01*
X61247000Y-110223000D01*
X61247000Y-110243000D01*
X61247000Y-110243000D01*
G37*
X61247000Y-110243000D02*
X61267000Y-110243000D01*
X61267000Y-110497000D01*
X61247000Y-110497000D01*
X61247000Y-110517000D01*
X60993000Y-110517000D01*
X60993000Y-110497000D01*
X60973000Y-110497000D01*
X60973000Y-110243000D01*
X60993000Y-110243000D01*
X60993000Y-110223000D01*
X61247000Y-110223000D01*
X61247000Y-110243000D01*
G36*
X68867000Y-110243000D02*
X68887000Y-110243000D01*
X68887000Y-110497000D01*
X68867000Y-110497000D01*
X68867000Y-110517000D01*
X68613000Y-110517000D01*
X68613000Y-110497000D01*
X68593000Y-110497000D01*
X68593000Y-110243000D01*
X68613000Y-110243000D01*
X68613000Y-110223000D01*
X68867000Y-110223000D01*
X68867000Y-110243000D01*
X68867000Y-110243000D01*
G37*
X68867000Y-110243000D02*
X68887000Y-110243000D01*
X68887000Y-110497000D01*
X68867000Y-110497000D01*
X68867000Y-110517000D01*
X68613000Y-110517000D01*
X68613000Y-110497000D01*
X68593000Y-110497000D01*
X68593000Y-110243000D01*
X68613000Y-110243000D01*
X68613000Y-110223000D01*
X68867000Y-110223000D01*
X68867000Y-110243000D01*
G36*
X74668300Y-106632516D02*
X74586924Y-106558355D01*
X74176890Y-106388524D01*
X73947000Y-106509845D01*
X73947000Y-107703000D01*
X73967000Y-107703000D01*
X73967000Y-107957000D01*
X73947000Y-107957000D01*
X73947000Y-107977000D01*
X73693000Y-107977000D01*
X73693000Y-107957000D01*
X73673000Y-107957000D01*
X73673000Y-107703000D01*
X73693000Y-107703000D01*
X73693000Y-106509845D01*
X73463110Y-106388524D01*
X73053076Y-106558355D01*
X72970045Y-106634024D01*
X72979200Y-106588000D01*
X72979200Y-73645592D01*
X72994453Y-73668420D01*
X73373217Y-73921502D01*
X73820000Y-74010373D01*
X74266783Y-73921502D01*
X74645547Y-73668420D01*
X74668300Y-73634368D01*
X74668300Y-106632516D01*
X74668300Y-106632516D01*
G37*
X74668300Y-106632516D02*
X74586924Y-106558355D01*
X74176890Y-106388524D01*
X73947000Y-106509845D01*
X73947000Y-107703000D01*
X73967000Y-107703000D01*
X73967000Y-107957000D01*
X73947000Y-107957000D01*
X73947000Y-107977000D01*
X73693000Y-107977000D01*
X73693000Y-107957000D01*
X73673000Y-107957000D01*
X73673000Y-107703000D01*
X73693000Y-107703000D01*
X73693000Y-106509845D01*
X73463110Y-106388524D01*
X73053076Y-106558355D01*
X72970045Y-106634024D01*
X72979200Y-106588000D01*
X72979200Y-73645592D01*
X72994453Y-73668420D01*
X73373217Y-73921502D01*
X73820000Y-74010373D01*
X74266783Y-73921502D01*
X74645547Y-73668420D01*
X74668300Y-73634368D01*
X74668300Y-106632516D01*
G36*
X77208300Y-107015632D02*
X77185547Y-106981580D01*
X76806783Y-106728498D01*
X76360000Y-106639627D01*
X75913217Y-106728498D01*
X75582700Y-106949342D01*
X75582700Y-73700658D01*
X75913217Y-73921502D01*
X76360000Y-74010373D01*
X76806783Y-73921502D01*
X77185547Y-73668420D01*
X77208300Y-73634368D01*
X77208300Y-107015632D01*
X77208300Y-107015632D01*
G37*
X77208300Y-107015632D02*
X77185547Y-106981580D01*
X76806783Y-106728498D01*
X76360000Y-106639627D01*
X75913217Y-106728498D01*
X75582700Y-106949342D01*
X75582700Y-73700658D01*
X75913217Y-73921502D01*
X76360000Y-74010373D01*
X76806783Y-73921502D01*
X77185547Y-73668420D01*
X77208300Y-73634368D01*
X77208300Y-107015632D01*
G36*
X71315014Y-71636592D02*
X71280000Y-71629627D01*
X70833217Y-71718498D01*
X70454453Y-71971580D01*
X70201371Y-72350344D01*
X70112500Y-72797127D01*
X70112500Y-72842873D01*
X70201371Y-73289656D01*
X70454453Y-73668420D01*
X70833217Y-73921502D01*
X71280000Y-74010373D01*
X71726783Y-73921502D01*
X72064800Y-73695646D01*
X72064800Y-90455196D01*
X71875480Y-90265545D01*
X71689100Y-90188153D01*
X71689100Y-90154148D01*
X71793186Y-90050243D01*
X71887393Y-89823367D01*
X71887607Y-89577710D01*
X71793797Y-89350671D01*
X71620243Y-89176814D01*
X71393367Y-89082607D01*
X71147710Y-89082393D01*
X70920671Y-89176203D01*
X70746814Y-89349757D01*
X70652607Y-89576633D01*
X70652393Y-89822290D01*
X70746203Y-90049329D01*
X70850900Y-90154209D01*
X70850900Y-90188132D01*
X70666100Y-90264489D01*
X70365545Y-90564520D01*
X70218501Y-90918640D01*
X70218501Y-76974901D01*
X70183699Y-76799938D01*
X70084590Y-76651612D01*
X69436689Y-76003711D01*
X69288363Y-75904602D01*
X69113400Y-75869800D01*
X67779180Y-75869800D01*
X65850167Y-73940787D01*
X66200000Y-74010373D01*
X66646783Y-73921502D01*
X67025547Y-73668420D01*
X67278629Y-73289656D01*
X67367500Y-72842873D01*
X67367500Y-72797127D01*
X67572500Y-72797127D01*
X67572500Y-72842873D01*
X67661371Y-73289656D01*
X67914453Y-73668420D01*
X68293217Y-73921502D01*
X68740000Y-74010373D01*
X69186783Y-73921502D01*
X69565547Y-73668420D01*
X69818629Y-73289656D01*
X69907500Y-72842873D01*
X69907500Y-72797127D01*
X69818629Y-72350344D01*
X69565547Y-71971580D01*
X69186783Y-71718498D01*
X68740000Y-71629627D01*
X68293217Y-71718498D01*
X67914453Y-71971580D01*
X67661371Y-72350344D01*
X67572500Y-72797127D01*
X67367500Y-72797127D01*
X67278629Y-72350344D01*
X67025547Y-71971580D01*
X66646783Y-71718498D01*
X66200000Y-71629627D01*
X65753217Y-71718498D01*
X65374453Y-71971580D01*
X65349324Y-72009189D01*
X65344798Y-71986437D01*
X65328705Y-71962352D01*
X65245690Y-71838111D01*
X64846200Y-71438622D01*
X64846200Y-70232495D01*
X64851580Y-70240547D01*
X65230344Y-70493629D01*
X65677127Y-70582500D01*
X65722873Y-70582500D01*
X66169656Y-70493629D01*
X66548420Y-70240547D01*
X66801502Y-69861783D01*
X66890373Y-69415000D01*
X66801502Y-68968217D01*
X66548420Y-68589453D01*
X66169656Y-68336371D01*
X65722873Y-68247500D01*
X65677127Y-68247500D01*
X65230344Y-68336371D01*
X64851580Y-68589453D01*
X64846200Y-68597505D01*
X64846200Y-67712098D01*
X65225236Y-67965363D01*
X65676879Y-68055200D01*
X65723121Y-68055200D01*
X66174764Y-67965363D01*
X66557648Y-67709527D01*
X66790661Y-67360800D01*
X67039222Y-67360800D01*
X71315014Y-71636592D01*
X71315014Y-71636592D01*
G37*
X71315014Y-71636592D02*
X71280000Y-71629627D01*
X70833217Y-71718498D01*
X70454453Y-71971580D01*
X70201371Y-72350344D01*
X70112500Y-72797127D01*
X70112500Y-72842873D01*
X70201371Y-73289656D01*
X70454453Y-73668420D01*
X70833217Y-73921502D01*
X71280000Y-74010373D01*
X71726783Y-73921502D01*
X72064800Y-73695646D01*
X72064800Y-90455196D01*
X71875480Y-90265545D01*
X71689100Y-90188153D01*
X71689100Y-90154148D01*
X71793186Y-90050243D01*
X71887393Y-89823367D01*
X71887607Y-89577710D01*
X71793797Y-89350671D01*
X71620243Y-89176814D01*
X71393367Y-89082607D01*
X71147710Y-89082393D01*
X70920671Y-89176203D01*
X70746814Y-89349757D01*
X70652607Y-89576633D01*
X70652393Y-89822290D01*
X70746203Y-90049329D01*
X70850900Y-90154209D01*
X70850900Y-90188132D01*
X70666100Y-90264489D01*
X70365545Y-90564520D01*
X70218501Y-90918640D01*
X70218501Y-76974901D01*
X70183699Y-76799938D01*
X70084590Y-76651612D01*
X69436689Y-76003711D01*
X69288363Y-75904602D01*
X69113400Y-75869800D01*
X67779180Y-75869800D01*
X65850167Y-73940787D01*
X66200000Y-74010373D01*
X66646783Y-73921502D01*
X67025547Y-73668420D01*
X67278629Y-73289656D01*
X67367500Y-72842873D01*
X67367500Y-72797127D01*
X67572500Y-72797127D01*
X67572500Y-72842873D01*
X67661371Y-73289656D01*
X67914453Y-73668420D01*
X68293217Y-73921502D01*
X68740000Y-74010373D01*
X69186783Y-73921502D01*
X69565547Y-73668420D01*
X69818629Y-73289656D01*
X69907500Y-72842873D01*
X69907500Y-72797127D01*
X69818629Y-72350344D01*
X69565547Y-71971580D01*
X69186783Y-71718498D01*
X68740000Y-71629627D01*
X68293217Y-71718498D01*
X67914453Y-71971580D01*
X67661371Y-72350344D01*
X67572500Y-72797127D01*
X67367500Y-72797127D01*
X67278629Y-72350344D01*
X67025547Y-71971580D01*
X66646783Y-71718498D01*
X66200000Y-71629627D01*
X65753217Y-71718498D01*
X65374453Y-71971580D01*
X65349324Y-72009189D01*
X65344798Y-71986437D01*
X65328705Y-71962352D01*
X65245690Y-71838111D01*
X64846200Y-71438622D01*
X64846200Y-70232495D01*
X64851580Y-70240547D01*
X65230344Y-70493629D01*
X65677127Y-70582500D01*
X65722873Y-70582500D01*
X66169656Y-70493629D01*
X66548420Y-70240547D01*
X66801502Y-69861783D01*
X66890373Y-69415000D01*
X66801502Y-68968217D01*
X66548420Y-68589453D01*
X66169656Y-68336371D01*
X65722873Y-68247500D01*
X65677127Y-68247500D01*
X65230344Y-68336371D01*
X64851580Y-68589453D01*
X64846200Y-68597505D01*
X64846200Y-67712098D01*
X65225236Y-67965363D01*
X65676879Y-68055200D01*
X65723121Y-68055200D01*
X66174764Y-67965363D01*
X66557648Y-67709527D01*
X66790661Y-67360800D01*
X67039222Y-67360800D01*
X71315014Y-71636592D01*
G36*
X73855014Y-71636592D02*
X73820000Y-71629627D01*
X73373217Y-71718498D01*
X72994453Y-71971580D01*
X72948147Y-72040882D01*
X72944398Y-72022037D01*
X72845289Y-71873711D01*
X67551889Y-66580311D01*
X67403563Y-66481202D01*
X67228600Y-66446400D01*
X66818068Y-66446400D01*
X66813484Y-66423357D01*
X66557648Y-66040473D01*
X66174764Y-65784637D01*
X65723121Y-65694800D01*
X65676879Y-65694800D01*
X65225236Y-65784637D01*
X64846200Y-66037902D01*
X64846200Y-65172098D01*
X65225236Y-65425363D01*
X65676879Y-65515200D01*
X65723121Y-65515200D01*
X66174764Y-65425363D01*
X66557648Y-65169527D01*
X66807633Y-64795400D01*
X67013822Y-64795400D01*
X73855014Y-71636592D01*
X73855014Y-71636592D01*
G37*
X73855014Y-71636592D02*
X73820000Y-71629627D01*
X73373217Y-71718498D01*
X72994453Y-71971580D01*
X72948147Y-72040882D01*
X72944398Y-72022037D01*
X72845289Y-71873711D01*
X67551889Y-66580311D01*
X67403563Y-66481202D01*
X67228600Y-66446400D01*
X66818068Y-66446400D01*
X66813484Y-66423357D01*
X66557648Y-66040473D01*
X66174764Y-65784637D01*
X65723121Y-65694800D01*
X65676879Y-65694800D01*
X65225236Y-65784637D01*
X64846200Y-66037902D01*
X64846200Y-65172098D01*
X65225236Y-65425363D01*
X65676879Y-65515200D01*
X65723121Y-65515200D01*
X66174764Y-65425363D01*
X66557648Y-65169527D01*
X66807633Y-64795400D01*
X67013822Y-64795400D01*
X73855014Y-71636592D01*
G36*
X76395013Y-71636591D02*
X76360000Y-71629627D01*
X75913217Y-71718498D01*
X75534453Y-71971580D01*
X75503104Y-72018498D01*
X75448789Y-71937211D01*
X67526489Y-64014911D01*
X67378163Y-63915802D01*
X67203200Y-63881000D01*
X66811909Y-63881000D01*
X66557648Y-63500473D01*
X66174764Y-63244637D01*
X65723121Y-63154800D01*
X65676879Y-63154800D01*
X65225236Y-63244637D01*
X64846200Y-63497902D01*
X64846200Y-62632098D01*
X65225236Y-62885363D01*
X65676879Y-62975200D01*
X65723121Y-62975200D01*
X66174764Y-62885363D01*
X66557648Y-62629527D01*
X66807633Y-62255400D01*
X67013822Y-62255400D01*
X76395013Y-71636591D01*
X76395013Y-71636591D01*
G37*
X76395013Y-71636591D02*
X76360000Y-71629627D01*
X75913217Y-71718498D01*
X75534453Y-71971580D01*
X75503104Y-72018498D01*
X75448789Y-71937211D01*
X67526489Y-64014911D01*
X67378163Y-63915802D01*
X67203200Y-63881000D01*
X66811909Y-63881000D01*
X66557648Y-63500473D01*
X66174764Y-63244637D01*
X65723121Y-63154800D01*
X65676879Y-63154800D01*
X65225236Y-63244637D01*
X64846200Y-63497902D01*
X64846200Y-62632098D01*
X65225236Y-62885363D01*
X65676879Y-62975200D01*
X65723121Y-62975200D01*
X66174764Y-62885363D01*
X66557648Y-62629527D01*
X66807633Y-62255400D01*
X67013822Y-62255400D01*
X76395013Y-71636591D01*
M02*
