G04 #@! TF.FileFunction,Soldermask,Top*
%FSLAX46Y46*%
G04 Gerber Fmt 4.6, Leading zero omitted, Abs format (unit mm)*
G04 Created by KiCad (PCBNEW 4.0.7-e2-6376~58~ubuntu16.04.1) date Sat Jul  7 02:27:32 2018*
%MOMM*%
%LPD*%
G01*
G04 APERTURE LIST*
%ADD10C,0.100000*%
%ADD11R,1.150000X1.200000*%
%ADD12R,1.200000X1.150000*%
%ADD13R,0.700000X0.950000*%
%ADD14R,1.000000X1.200000*%
%ADD15R,1.600000X1.300000*%
%ADD16C,2.000000*%
%ADD17R,2.100000X2.100000*%
%ADD18O,2.100000X2.100000*%
%ADD19R,2.200000X3.400000*%
%ADD20O,2.200000X3.400000*%
%ADD21R,2.400000X2.400000*%
%ADD22C,2.400000*%
%ADD23R,0.900000X1.300000*%
%ADD24R,1.300000X0.900000*%
%ADD25R,1.100000X1.700000*%
%ADD26R,1.460000X1.050000*%
%ADD27C,1.900000*%
%ADD28O,1.100000X0.600000*%
%ADD29O,0.600000X1.100000*%
%ADD30R,1.800000X1.800000*%
G04 APERTURE END LIST*
D10*
D11*
X57447100Y-65155000D03*
X57447100Y-63655000D03*
X62603300Y-94327600D03*
X62603300Y-92827600D03*
X69778800Y-91176600D03*
X69778800Y-89676600D03*
D12*
X87848000Y-57067200D03*
X89348000Y-57067200D03*
D11*
X67721400Y-84978300D03*
X67721400Y-86478300D03*
X93294200Y-60311600D03*
X93294200Y-61811600D03*
X66802000Y-94210000D03*
X66802000Y-92710000D03*
X90670000Y-88230000D03*
X90670000Y-89730000D03*
X61772800Y-82258600D03*
X61772800Y-80758600D03*
D12*
X63466200Y-78654400D03*
X64966200Y-78654400D03*
X67517500Y-82426300D03*
X69017500Y-82426300D03*
X63491600Y-80305400D03*
X64991600Y-80305400D03*
X53872600Y-63287400D03*
X52372600Y-63287400D03*
D11*
X75011200Y-61991300D03*
X75011200Y-63491300D03*
D13*
X88923000Y-58567200D03*
X88273000Y-58567200D03*
D14*
X55018500Y-52067800D03*
X56718500Y-52067800D03*
D15*
X53091000Y-59006500D03*
X53091000Y-55706500D03*
D16*
X61682400Y-62560200D03*
X52640000Y-109998000D03*
X93985000Y-53356000D03*
D17*
X90644900Y-91913200D03*
D18*
X88104900Y-91913200D03*
D19*
X94100000Y-66300000D03*
D20*
X91560000Y-66300000D03*
X86480000Y-66300000D03*
X89020000Y-66300000D03*
D21*
X90313000Y-53892200D03*
D22*
X87773000Y-53892200D03*
D19*
X86480000Y-72800000D03*
D20*
X89020000Y-72800000D03*
X94100000Y-72800000D03*
X91560000Y-72800000D03*
D17*
X87000000Y-108220000D03*
D18*
X87000000Y-105680000D03*
X87000000Y-103140000D03*
X87000000Y-100600000D03*
X87000000Y-98060000D03*
X87000000Y-95520000D03*
D17*
X83980000Y-72820000D03*
D18*
X81440000Y-72820000D03*
X78900000Y-72820000D03*
X76360000Y-72820000D03*
X73820000Y-72820000D03*
X71280000Y-72820000D03*
X68740000Y-72820000D03*
X66200000Y-72820000D03*
X63660000Y-72820000D03*
X61120000Y-72820000D03*
X58580000Y-72820000D03*
X56040000Y-72820000D03*
D17*
X56040000Y-75360000D03*
D18*
X58580000Y-75360000D03*
X61120000Y-75360000D03*
X63660000Y-75360000D03*
D17*
X62184200Y-58207400D03*
D18*
X62184200Y-55667400D03*
X62184200Y-53127400D03*
D17*
X83980000Y-107830000D03*
D18*
X83980000Y-110370000D03*
X81440000Y-107830000D03*
X81440000Y-110370000D03*
X78900000Y-107830000D03*
X78900000Y-110370000D03*
X76360000Y-107830000D03*
X76360000Y-110370000D03*
X73820000Y-107830000D03*
X73820000Y-110370000D03*
X71280000Y-107830000D03*
X71280000Y-110370000D03*
X68740000Y-107830000D03*
X68740000Y-110370000D03*
X66200000Y-107830000D03*
X66200000Y-110370000D03*
X63660000Y-107830000D03*
X63660000Y-110370000D03*
X61120000Y-107830000D03*
X61120000Y-110370000D03*
X58580000Y-107830000D03*
X58580000Y-110370000D03*
X56040000Y-107830000D03*
X56040000Y-110370000D03*
D10*
G36*
X58845400Y-79224500D02*
X54245400Y-79224500D01*
X55245400Y-78424500D01*
X57845400Y-78424500D01*
X58845400Y-79224500D01*
X58845400Y-79224500D01*
G37*
G36*
X58845400Y-80424500D02*
X54245400Y-80424500D01*
X54245400Y-78824500D01*
X58845400Y-78824500D01*
X58845400Y-80424500D01*
X58845400Y-80424500D01*
G37*
G36*
X57245400Y-80424500D02*
X55845400Y-80424500D01*
X55845400Y-78424500D01*
X57245400Y-78424500D01*
X57245400Y-80424500D01*
X57245400Y-80424500D01*
G37*
G36*
X54245400Y-81024500D02*
X58845400Y-81024500D01*
X58845400Y-82624500D01*
X54245400Y-82624500D01*
X54245400Y-81024500D01*
X54245400Y-81024500D01*
G37*
G36*
X54245400Y-82224500D02*
X58845400Y-82224500D01*
X57845400Y-83024500D01*
X55245400Y-83024500D01*
X54245400Y-82224500D01*
X54245400Y-82224500D01*
G37*
G36*
X55845400Y-81024500D02*
X57245400Y-81024500D01*
X57245400Y-83024500D01*
X55845400Y-83024500D01*
X55845400Y-81024500D01*
X55845400Y-81024500D01*
G37*
G36*
X56040900Y-53202300D02*
X56040900Y-57802300D01*
X55240900Y-56802300D01*
X55240900Y-54202300D01*
X56040900Y-53202300D01*
X56040900Y-53202300D01*
G37*
G36*
X57240900Y-53202300D02*
X57240900Y-57802300D01*
X55640900Y-57802300D01*
X55640900Y-53202300D01*
X57240900Y-53202300D01*
X57240900Y-53202300D01*
G37*
G36*
X57240900Y-54802300D02*
X57240900Y-56202300D01*
X55240900Y-56202300D01*
X55240900Y-54802300D01*
X57240900Y-54802300D01*
X57240900Y-54802300D01*
G37*
G36*
X57840900Y-57802300D02*
X57840900Y-53202300D01*
X59440900Y-53202300D01*
X59440900Y-57802300D01*
X57840900Y-57802300D01*
X57840900Y-57802300D01*
G37*
G36*
X59040900Y-57802300D02*
X59040900Y-53202300D01*
X59840900Y-54202300D01*
X59840900Y-56802300D01*
X59040900Y-57802300D01*
X59040900Y-57802300D01*
G37*
G36*
X57840900Y-56202300D02*
X57840900Y-54802300D01*
X59840900Y-54802300D01*
X59840900Y-56202300D01*
X57840900Y-56202300D01*
X57840900Y-56202300D01*
G37*
D23*
X55884300Y-88509600D03*
X57384300Y-88509600D03*
D24*
X64635300Y-94149100D03*
X64635300Y-92649100D03*
D23*
X55872300Y-86870100D03*
X57372300Y-86870100D03*
X87620000Y-88255000D03*
X89120000Y-88255000D03*
D25*
X63405900Y-82451700D03*
X65305900Y-82451700D03*
D23*
X53620100Y-53538120D03*
X52120100Y-53538120D03*
X53948800Y-61357000D03*
X52448800Y-61357000D03*
D24*
X55631000Y-64888300D03*
X55631000Y-63388300D03*
X75049300Y-60621100D03*
X75049300Y-59121100D03*
D17*
X65700000Y-54175000D03*
D18*
X65700000Y-56715000D03*
X65700000Y-59255000D03*
X65700000Y-61795000D03*
X65700000Y-64335000D03*
X65700000Y-66875000D03*
X65700000Y-69415000D03*
D26*
X55655386Y-59412934D03*
X55655386Y-60362934D03*
X55655386Y-61312934D03*
X57855386Y-61312934D03*
X57855386Y-59412934D03*
X57855386Y-60362934D03*
X73274200Y-61415500D03*
X73274200Y-60465500D03*
X73274200Y-59515500D03*
X71074200Y-59515500D03*
X71074200Y-61415500D03*
D27*
X90120000Y-103160000D03*
X90140000Y-105700000D03*
D23*
X61504260Y-64709040D03*
X60004260Y-64709040D03*
D28*
X59585800Y-85683600D03*
X59585800Y-86083600D03*
X59585800Y-86483600D03*
X59585800Y-86883600D03*
X59585800Y-87283600D03*
X59585800Y-87683600D03*
X59585800Y-88083600D03*
X59585800Y-88483600D03*
X59585800Y-88883600D03*
X59585800Y-89283600D03*
X59585800Y-89683600D03*
X59585800Y-90083600D03*
D29*
X60285800Y-90783600D03*
X60685800Y-90783600D03*
X61085800Y-90783600D03*
X61485800Y-90783600D03*
X61885800Y-90783600D03*
X62285800Y-90783600D03*
X62685800Y-90783600D03*
X63085800Y-90783600D03*
X63485800Y-90783600D03*
X63885800Y-90783600D03*
X64285800Y-90783600D03*
X64685800Y-90783600D03*
D28*
X65385800Y-90083600D03*
X65385800Y-89683600D03*
X65385800Y-89283600D03*
X65385800Y-88883600D03*
X65385800Y-88483600D03*
X65385800Y-88083600D03*
X65385800Y-87683600D03*
X65385800Y-87283600D03*
X65385800Y-86883600D03*
X65385800Y-86483600D03*
X65385800Y-86083600D03*
X65385800Y-85683600D03*
D29*
X64685800Y-84983600D03*
X64285800Y-84983600D03*
X63885800Y-84983600D03*
X63485800Y-84983600D03*
X63085800Y-84983600D03*
X62685800Y-84983600D03*
X62285800Y-84983600D03*
X61885800Y-84983600D03*
X61485800Y-84983600D03*
X61085800Y-84983600D03*
X60685800Y-84983600D03*
X60285800Y-84983600D03*
D30*
X63885800Y-86483600D03*
X62485800Y-86483600D03*
X61085800Y-87883600D03*
X61085800Y-86483600D03*
X62485800Y-87883600D03*
X63885800Y-87883600D03*
X63885800Y-89283600D03*
X62485800Y-89283600D03*
X61085800Y-89283600D03*
M02*
