M48
METRIC,TZ
T1C0.300
T2C0.400
T3C0.762
T4C1.000
T5C1.300
%
G90
G05
T1
X53086Y-79248
X53086Y-80772
X53086Y-82296
X53594Y-65024
X54356Y-65786
X54610Y-57150
X54610Y-58420
X54648Y-54577
X54674Y-53477
X55880Y-90170
X55880Y-91186
X56642Y-66802
X59182Y-83312
X60452Y-80772
X60706Y-54356
X60706Y-81534
X60706Y-98044
X61086Y-86484
X61086Y-87887
X61086Y-89284
X61468Y-77470
X61796Y-67219
X62486Y-86484
X62486Y-87884
X62486Y-89284
X62992Y-77470
X63886Y-86484
X63886Y-87887
X63886Y-89284
X64770Y-77470
X65786Y-76200
X66294Y-77470
X66548Y-80010
X66548Y-80772
X66840Y-98141
X67564Y-66040
X67818Y-63754
X67818Y-90932
X68072Y-74930
X68072Y-77470
X68580Y-67056
X68834Y-93218
X69596Y-65532
X70851Y-82431
X70866Y-86106
X71120Y-94488
X71120Y-98044
X71857Y-82456
X71882Y-86106
X72898Y-65024
X73406Y-57658
X74422Y-65024
X76200Y-91186
X76200Y-94488
X76200Y-98044
X76962Y-59182
X89720Y-75377
X91435Y-76980
X93218Y-57404
X93218Y-58928
X94110Y-75405
X94742Y-57404
X94742Y-58928
T2
X53574Y-66793
X57244Y-70590
X57396Y-90097
X57828Y-62564
X58171Y-84217
X58654Y-100178
X59416Y-91774
X59682Y-77397
X60006Y-62586
X60430Y-92850
X61468Y-105689
X61849Y-70815
X61905Y-83434
X63486Y-91723
X65786Y-92710
X66667Y-86484
X71270Y-89700
X78885Y-100787
X79736Y-63516
X81463Y-101379
T3
X87773Y-53892
X90313Y-53892
T4
X56040Y-72820
X56040Y-75360
X56040Y-107830
X56040Y-110370
X58580Y-72820
X58580Y-75360
X58580Y-107830
X58580Y-110370
X61120Y-72820
X61120Y-75360
X61120Y-107830
X61120Y-110370
X62184Y-53127
X62184Y-55667
X62184Y-58207
X63660Y-72820
X63660Y-75360
X63660Y-107830
X63660Y-110370
X65700Y-54175
X65700Y-56715
X65700Y-59255
X65700Y-61795
X65700Y-64335
X65700Y-66875
X65700Y-69415
X66200Y-72820
X66200Y-107830
X66200Y-110370
X68740Y-72820
X68740Y-107830
X68740Y-110370
X71280Y-72820
X71280Y-107830
X71280Y-110370
X73820Y-72820
X73820Y-107830
X73820Y-110370
X76360Y-72820
X76360Y-107830
X76360Y-110370
X78900Y-72820
X78900Y-107830
X78900Y-110370
X81440Y-72820
X81440Y-107830
X81440Y-110370
X83980Y-72820
X83980Y-107830
X83980Y-110370
X87000Y-95520
X87000Y-98060
X87000Y-100600
X87000Y-103140
X87000Y-105680
X87000Y-108220
X88105Y-91913
X90645Y-91913
T5
X86480Y-66300
X86480Y-72800
X89020Y-66300
X89020Y-72800
X91560Y-66300
X91560Y-72800
X94100Y-66300
X94100Y-72800
T0
M30
