G04 #@! TF.FileFunction,Copper,L1,Top,Signal*
%FSLAX46Y46*%
G04 Gerber Fmt 4.6, Leading zero omitted, Abs format (unit mm)*
G04 Created by KiCad (PCBNEW 4.0.7-e2-6376~58~ubuntu16.04.1) date Sat Jul  7 02:27:32 2018*
%MOMM*%
%LPD*%
G01*
G04 APERTURE LIST*
%ADD10C,0.100000*%
%ADD11C,0.600000*%
%ADD12R,0.750000X0.800000*%
%ADD13R,0.800000X0.750000*%
%ADD14R,0.300000X0.550000*%
%ADD15R,0.600000X0.800000*%
%ADD16R,1.200000X0.900000*%
%ADD17C,1.000000*%
%ADD18R,1.700000X1.700000*%
%ADD19O,1.700000X1.700000*%
%ADD20R,1.800000X3.000000*%
%ADD21O,1.800000X3.000000*%
%ADD22R,2.000000X2.000000*%
%ADD23C,2.000000*%
%ADD24R,0.500000X0.900000*%
%ADD25R,0.900000X0.500000*%
%ADD26R,0.700000X1.300000*%
%ADD27R,1.060000X0.650000*%
%ADD28C,1.500000*%
%ADD29O,0.700000X0.200000*%
%ADD30O,0.200000X0.700000*%
%ADD31R,1.400000X1.400000*%
%ADD32C,0.400000*%
%ADD33C,0.203200*%
%ADD34C,0.381000*%
%ADD35C,0.508000*%
%ADD36C,1.524000*%
%ADD37C,0.254000*%
%ADD38C,1.270000*%
%ADD39C,0.762000*%
%ADD40C,0.304800*%
G04 APERTURE END LIST*
D10*
D11*
X66840100Y-98140520D03*
X94109540Y-75404980D03*
X91434920Y-76979780D03*
X89720420Y-75377040D03*
X74422000Y-65024000D03*
X72898000Y-65024000D03*
X76962000Y-59182000D03*
X73406000Y-57658000D03*
X61795660Y-67218560D03*
X60706000Y-54356000D03*
X56642000Y-66802000D03*
X54356000Y-65786000D03*
X53594000Y-65024000D03*
X54610000Y-58420000D03*
X54610000Y-57150000D03*
X54673500Y-53477160D03*
X54648100Y-54576980D03*
X68834000Y-93218000D03*
X60706000Y-98044000D03*
X67818000Y-90932000D03*
X55880000Y-91186000D03*
X55880000Y-90170000D03*
X68072000Y-74930000D03*
X65786000Y-76200000D03*
X68072000Y-77470000D03*
X66294000Y-77470000D03*
X64770000Y-77470000D03*
X62992000Y-77470000D03*
X61468000Y-77470000D03*
X60706000Y-81534000D03*
X60452000Y-80772000D03*
X59182000Y-83312000D03*
X53086000Y-82296000D03*
X53086000Y-80772000D03*
X53086000Y-79248000D03*
X68580000Y-67056000D03*
X67564000Y-66040000D03*
X69596000Y-65532000D03*
X67818000Y-63754000D03*
X71120000Y-98044000D03*
X71120000Y-94488000D03*
X76200000Y-98044000D03*
X76200000Y-94488000D03*
X76200000Y-91186000D03*
X93218000Y-58928000D03*
X94742000Y-58928000D03*
X94742000Y-57404000D03*
X93218000Y-57404000D03*
X66548000Y-80772000D03*
X66548000Y-80010000D03*
X70866000Y-86106000D03*
X71882000Y-86106000D03*
X71856600Y-82456020D03*
D12*
X57447100Y-65155000D03*
X57447100Y-63655000D03*
X62603300Y-94327600D03*
X62603300Y-92827600D03*
X69778800Y-91176600D03*
X69778800Y-89676600D03*
D13*
X87848000Y-57067200D03*
X89348000Y-57067200D03*
D12*
X67721400Y-84978300D03*
X67721400Y-86478300D03*
X93294200Y-60311600D03*
X93294200Y-61811600D03*
X66802000Y-94210000D03*
X66802000Y-92710000D03*
X90670000Y-88230000D03*
X90670000Y-89730000D03*
X61772800Y-82258600D03*
X61772800Y-80758600D03*
D13*
X63466200Y-78654400D03*
X64966200Y-78654400D03*
X67517500Y-82426300D03*
X69017500Y-82426300D03*
X63491600Y-80305400D03*
X64991600Y-80305400D03*
X53872600Y-63287400D03*
X52372600Y-63287400D03*
D12*
X75011200Y-61991300D03*
X75011200Y-63491300D03*
D14*
X88923000Y-58567200D03*
X88273000Y-58567200D03*
D15*
X55018500Y-52067800D03*
X56718500Y-52067800D03*
D16*
X53091000Y-59006500D03*
X53091000Y-55706500D03*
D17*
X61682400Y-62560200D03*
X52640000Y-109998000D03*
X93985000Y-53356000D03*
D18*
X90644900Y-91913200D03*
D19*
X88104900Y-91913200D03*
D20*
X94100000Y-66300000D03*
D21*
X91560000Y-66300000D03*
X86480000Y-66300000D03*
X89020000Y-66300000D03*
D22*
X90313000Y-53892200D03*
D23*
X87773000Y-53892200D03*
D20*
X86480000Y-72800000D03*
D21*
X89020000Y-72800000D03*
X94100000Y-72800000D03*
X91560000Y-72800000D03*
D18*
X87000000Y-108220000D03*
D19*
X87000000Y-105680000D03*
X87000000Y-103140000D03*
X87000000Y-100600000D03*
X87000000Y-98060000D03*
X87000000Y-95520000D03*
D18*
X83980000Y-72820000D03*
D19*
X81440000Y-72820000D03*
X78900000Y-72820000D03*
X76360000Y-72820000D03*
X73820000Y-72820000D03*
X71280000Y-72820000D03*
X68740000Y-72820000D03*
X66200000Y-72820000D03*
X63660000Y-72820000D03*
X61120000Y-72820000D03*
X58580000Y-72820000D03*
X56040000Y-72820000D03*
D18*
X56040000Y-75360000D03*
D19*
X58580000Y-75360000D03*
X61120000Y-75360000D03*
X63660000Y-75360000D03*
D18*
X62184200Y-58207400D03*
D19*
X62184200Y-55667400D03*
X62184200Y-53127400D03*
D18*
X83980000Y-107830000D03*
D19*
X83980000Y-110370000D03*
X81440000Y-107830000D03*
X81440000Y-110370000D03*
X78900000Y-107830000D03*
X78900000Y-110370000D03*
X76360000Y-107830000D03*
X76360000Y-110370000D03*
X73820000Y-107830000D03*
X73820000Y-110370000D03*
X71280000Y-107830000D03*
X71280000Y-110370000D03*
X68740000Y-107830000D03*
X68740000Y-110370000D03*
X66200000Y-107830000D03*
X66200000Y-110370000D03*
X63660000Y-107830000D03*
X63660000Y-110370000D03*
X61120000Y-107830000D03*
X61120000Y-110370000D03*
X58580000Y-107830000D03*
X58580000Y-110370000D03*
X56040000Y-107830000D03*
X56040000Y-110370000D03*
D10*
G36*
X58645400Y-79024500D02*
X54445400Y-79024500D01*
X55445400Y-78624500D01*
X57645400Y-78624500D01*
X58645400Y-79024500D01*
X58645400Y-79024500D01*
G37*
G36*
X58645400Y-80224500D02*
X54445400Y-80224500D01*
X54445400Y-79024500D01*
X58645400Y-79024500D01*
X58645400Y-80224500D01*
X58645400Y-80224500D01*
G37*
G36*
X57045400Y-80224500D02*
X56045400Y-80224500D01*
X56045400Y-78624500D01*
X57045400Y-78624500D01*
X57045400Y-80224500D01*
X57045400Y-80224500D01*
G37*
G36*
X54445400Y-81224500D02*
X58645400Y-81224500D01*
X58645400Y-82424500D01*
X54445400Y-82424500D01*
X54445400Y-81224500D01*
X54445400Y-81224500D01*
G37*
G36*
X54445400Y-82424500D02*
X58645400Y-82424500D01*
X57645400Y-82824500D01*
X55445400Y-82824500D01*
X54445400Y-82424500D01*
X54445400Y-82424500D01*
G37*
G36*
X56045400Y-81224500D02*
X57045400Y-81224500D01*
X57045400Y-82824500D01*
X56045400Y-82824500D01*
X56045400Y-81224500D01*
X56045400Y-81224500D01*
G37*
G36*
X55840900Y-53402300D02*
X55840900Y-57602300D01*
X55440900Y-56602300D01*
X55440900Y-54402300D01*
X55840900Y-53402300D01*
X55840900Y-53402300D01*
G37*
G36*
X57040900Y-53402300D02*
X57040900Y-57602300D01*
X55840900Y-57602300D01*
X55840900Y-53402300D01*
X57040900Y-53402300D01*
X57040900Y-53402300D01*
G37*
G36*
X57040900Y-55002300D02*
X57040900Y-56002300D01*
X55440900Y-56002300D01*
X55440900Y-55002300D01*
X57040900Y-55002300D01*
X57040900Y-55002300D01*
G37*
G36*
X58040900Y-57602300D02*
X58040900Y-53402300D01*
X59240900Y-53402300D01*
X59240900Y-57602300D01*
X58040900Y-57602300D01*
X58040900Y-57602300D01*
G37*
G36*
X59240900Y-57602300D02*
X59240900Y-53402300D01*
X59640900Y-54402300D01*
X59640900Y-56602300D01*
X59240900Y-57602300D01*
X59240900Y-57602300D01*
G37*
G36*
X58040900Y-56002300D02*
X58040900Y-55002300D01*
X59640900Y-55002300D01*
X59640900Y-56002300D01*
X58040900Y-56002300D01*
X58040900Y-56002300D01*
G37*
D24*
X55884300Y-88509600D03*
X57384300Y-88509600D03*
D25*
X64635300Y-94149100D03*
X64635300Y-92649100D03*
D24*
X55872300Y-86870100D03*
X57372300Y-86870100D03*
X87620000Y-88255000D03*
X89120000Y-88255000D03*
D26*
X63405900Y-82451700D03*
X65305900Y-82451700D03*
D24*
X53620100Y-53538120D03*
X52120100Y-53538120D03*
X53948800Y-61357000D03*
X52448800Y-61357000D03*
D25*
X55631000Y-64888300D03*
X55631000Y-63388300D03*
X75049300Y-60621100D03*
X75049300Y-59121100D03*
D18*
X65700000Y-54175000D03*
D19*
X65700000Y-56715000D03*
X65700000Y-59255000D03*
X65700000Y-61795000D03*
X65700000Y-64335000D03*
X65700000Y-66875000D03*
X65700000Y-69415000D03*
D27*
X55655386Y-59412934D03*
X55655386Y-60362934D03*
X55655386Y-61312934D03*
X57855386Y-61312934D03*
X57855386Y-59412934D03*
X57855386Y-60362934D03*
X73274200Y-61415500D03*
X73274200Y-60465500D03*
X73274200Y-59515500D03*
X71074200Y-59515500D03*
X71074200Y-61415500D03*
D28*
X90120000Y-103160000D03*
X90140000Y-105700000D03*
D11*
X70850760Y-82430620D03*
D24*
X61504260Y-64709040D03*
X60004260Y-64709040D03*
D29*
X59585800Y-85683600D03*
X59585800Y-86083600D03*
X59585800Y-86483600D03*
X59585800Y-86883600D03*
X59585800Y-87283600D03*
X59585800Y-87683600D03*
X59585800Y-88083600D03*
X59585800Y-88483600D03*
X59585800Y-88883600D03*
X59585800Y-89283600D03*
X59585800Y-89683600D03*
X59585800Y-90083600D03*
D30*
X60285800Y-90783600D03*
X60685800Y-90783600D03*
X61085800Y-90783600D03*
X61485800Y-90783600D03*
X61885800Y-90783600D03*
X62285800Y-90783600D03*
X62685800Y-90783600D03*
X63085800Y-90783600D03*
X63485800Y-90783600D03*
X63885800Y-90783600D03*
X64285800Y-90783600D03*
X64685800Y-90783600D03*
D29*
X65385800Y-90083600D03*
X65385800Y-89683600D03*
X65385800Y-89283600D03*
X65385800Y-88883600D03*
X65385800Y-88483600D03*
X65385800Y-88083600D03*
X65385800Y-87683600D03*
X65385800Y-87283600D03*
X65385800Y-86883600D03*
X65385800Y-86483600D03*
X65385800Y-86083600D03*
X65385800Y-85683600D03*
D30*
X64685800Y-84983600D03*
X64285800Y-84983600D03*
X63885800Y-84983600D03*
X63485800Y-84983600D03*
X63085800Y-84983600D03*
X62685800Y-84983600D03*
X62285800Y-84983600D03*
X61885800Y-84983600D03*
X61485800Y-84983600D03*
X61085800Y-84983600D03*
X60685800Y-84983600D03*
X60285800Y-84983600D03*
D31*
X63885800Y-86483600D03*
X62485800Y-86483600D03*
X61085800Y-87883600D03*
X61085800Y-86483600D03*
X62485800Y-87883600D03*
X63885800Y-87883600D03*
X63885800Y-89283600D03*
X62485800Y-89283600D03*
X61085800Y-89283600D03*
D32*
X62485800Y-89283600D03*
X62485800Y-87883600D03*
X63885800Y-89283600D03*
X63885800Y-87887300D03*
X61085800Y-89283600D03*
X61085800Y-87887300D03*
X61085800Y-86483600D03*
X62485800Y-86483600D03*
X63885800Y-86483600D03*
D11*
X60430000Y-92850000D03*
X59682300Y-77397100D03*
X61904800Y-83434399D03*
X63485800Y-91722700D03*
X66667300Y-86483600D03*
X71270000Y-89700000D03*
X58171000Y-84217000D03*
X58653600Y-100177600D03*
X61849000Y-70815204D03*
X53573600Y-66792600D03*
X79735600Y-63516000D03*
X81462798Y-101379480D03*
X78884700Y-100787370D03*
X61468000Y-105689400D03*
X57396300Y-90097100D03*
X65786000Y-92710000D03*
X60006000Y-62585600D03*
X57243900Y-70589898D03*
X57828100Y-62563500D03*
X59415600Y-91773500D03*
D33*
X87000000Y-103140000D02*
X90100000Y-103140000D01*
X90100000Y-103140000D02*
X90120000Y-103160000D01*
D34*
X78900000Y-110370000D02*
X77630000Y-109100000D01*
X77630000Y-109100000D02*
X75090000Y-109100000D01*
X75090000Y-109100000D02*
X73820000Y-107830000D01*
D33*
X87848000Y-57067200D02*
X87848000Y-58142200D01*
X87848000Y-58142200D02*
X88273000Y-58567200D01*
D35*
X53872600Y-63287400D02*
X54030100Y-63287400D01*
X54030100Y-63287400D02*
X55631000Y-64888300D01*
X53173400Y-62296790D02*
X53898490Y-62296790D01*
X53898490Y-62296790D02*
X53993400Y-62391700D01*
X53993400Y-62391700D02*
X53993400Y-63274700D01*
X55655386Y-60362934D02*
X53489904Y-60362934D01*
X53489904Y-60362934D02*
X53173400Y-60679438D01*
X53173400Y-60679438D02*
X53173400Y-62296790D01*
D33*
X64685800Y-84983600D02*
X64876600Y-84983600D01*
D35*
X67721400Y-84978300D02*
X64881900Y-84978300D01*
X64881900Y-84978300D02*
X64876600Y-84983600D01*
X57447100Y-65155000D02*
X55897700Y-65155000D01*
X55897700Y-65155000D02*
X55631000Y-64888300D01*
D33*
X61085800Y-84983600D02*
X61085800Y-86483600D01*
X63885800Y-90783600D02*
X63885800Y-89283600D01*
X65385800Y-89283600D02*
X63885800Y-89283600D01*
X64685800Y-85023600D02*
X64685800Y-85683600D01*
X64685800Y-85683600D02*
X63885800Y-86483600D01*
D34*
X64966600Y-80305400D02*
X64991600Y-80305400D01*
D35*
X65004300Y-80318100D02*
X64991600Y-80305400D01*
D33*
X62603300Y-92827600D02*
X60452400Y-92827600D01*
X60452400Y-92827600D02*
X60430000Y-92850000D01*
D35*
X59117000Y-63652400D02*
X59117000Y-60375800D01*
X59117000Y-60375800D02*
X59117000Y-56032400D01*
X57855386Y-60362934D02*
X59104134Y-60362934D01*
X59104134Y-60362934D02*
X59117000Y-60375800D01*
X57454800Y-63677800D02*
X57480200Y-63652400D01*
X57480200Y-63652400D02*
X59117000Y-63652400D01*
X59117000Y-66950803D02*
X59117000Y-63652400D01*
X59682300Y-77397100D02*
X54792800Y-77397100D01*
X54792800Y-77397100D02*
X54132390Y-76736690D01*
X54132390Y-71935413D02*
X59117000Y-66950803D01*
X54132390Y-76736690D02*
X54132390Y-71935413D01*
X59117000Y-56032400D02*
X59193200Y-55956200D01*
D33*
X61904800Y-83434399D02*
X61885800Y-83453399D01*
X61885800Y-83453399D02*
X61885800Y-84983600D01*
D35*
X61892100Y-82211100D02*
X61892100Y-83421699D01*
X61892100Y-83421699D02*
X61904800Y-83434399D01*
X66667300Y-86483600D02*
X67716100Y-86483600D01*
D34*
X67716100Y-86483600D02*
X67721400Y-86478300D01*
D33*
X65345800Y-86483600D02*
X66667300Y-86483600D01*
X65345800Y-86083600D02*
X66267300Y-86083600D01*
X66267300Y-86083600D02*
X66667300Y-86483600D01*
D34*
X63485800Y-91722700D02*
X63485800Y-92523300D01*
X63181500Y-92827600D02*
X62603300Y-92827600D01*
X63485800Y-92523300D02*
X63181500Y-92827600D01*
D33*
X63485800Y-90743600D02*
X63485800Y-91722700D01*
X69778800Y-89676600D02*
X71246600Y-89676600D01*
X71246600Y-89676600D02*
X71270000Y-89700000D01*
X65345800Y-89683600D02*
X69771800Y-89683600D01*
X63885800Y-84983600D02*
X63885800Y-84579073D01*
X63885800Y-84579073D02*
X63648217Y-84341490D01*
X63648217Y-84341490D02*
X62774710Y-84341490D01*
X62774710Y-84341490D02*
X62685800Y-84430400D01*
X62685800Y-84430400D02*
X62685800Y-84983600D01*
X65305900Y-82451700D02*
X65305900Y-83304900D01*
X64285800Y-84325000D02*
X64285800Y-84430400D01*
X65305900Y-83304900D02*
X64285800Y-84325000D01*
X64285800Y-84430400D02*
X64285800Y-84983600D01*
D35*
X67517500Y-82426300D02*
X67517500Y-78667100D01*
X64966200Y-78654400D02*
X65874200Y-78654400D01*
X65874200Y-78654400D02*
X65886900Y-78667100D01*
X65886900Y-78667100D02*
X67517500Y-78667100D01*
X67200000Y-82451700D02*
X67213400Y-82465100D01*
D33*
X62685800Y-84480400D02*
X62685800Y-85023600D01*
X64285800Y-85023600D02*
X63885800Y-85023600D01*
X94100000Y-66300000D02*
X94100000Y-69349000D01*
X94100000Y-69349000D02*
X93573608Y-69875392D01*
X93573608Y-69875392D02*
X80135502Y-69875392D01*
X80135502Y-69875392D02*
X77745199Y-72265695D01*
X77745199Y-72265695D02*
X77745199Y-86211801D01*
X77745199Y-86211801D02*
X76327000Y-87630000D01*
X65843927Y-87630000D02*
X65790327Y-87683600D01*
X76327000Y-87630000D02*
X65843927Y-87630000D01*
X65790327Y-87683600D02*
X65385800Y-87683600D01*
D35*
X94100000Y-66300000D02*
X94100000Y-62617400D01*
X94100000Y-62617400D02*
X93294200Y-61811600D01*
D33*
X64715601Y-90743600D02*
X65530327Y-90743600D01*
X65530327Y-90743600D02*
X66802000Y-92015273D01*
X66802000Y-92015273D02*
X66802000Y-92106800D01*
X66802000Y-92106800D02*
X66802000Y-92710000D01*
X89120000Y-88255000D02*
X89120000Y-88908200D01*
X89120000Y-88908200D02*
X89387600Y-89175800D01*
X89387600Y-89175800D02*
X89387600Y-93005400D01*
X89387600Y-93005400D02*
X88892300Y-93500700D01*
X88892300Y-93500700D02*
X86568200Y-93500700D01*
X86568200Y-93500700D02*
X79873631Y-100195269D01*
X79873631Y-100195269D02*
X58842431Y-100195269D01*
X58842431Y-100195269D02*
X58691700Y-100346000D01*
X60685800Y-85023600D02*
X60685559Y-85023359D01*
X60685559Y-85023359D02*
X60685559Y-84533359D01*
X60685559Y-84533359D02*
X60318400Y-84166200D01*
X60318400Y-84166200D02*
X58348800Y-84166200D01*
X58348800Y-84166200D02*
X58336100Y-84178900D01*
X90670000Y-88230000D02*
X89145000Y-88230000D01*
D35*
X62738000Y-83566000D02*
X62738000Y-83419600D01*
X62738000Y-83419600D02*
X63405900Y-82751700D01*
X63405900Y-82751700D02*
X63405900Y-82451700D01*
X63491600Y-80305400D02*
X63491600Y-78679800D01*
X63491600Y-78679800D02*
X63466200Y-78654400D01*
D36*
X63511200Y-79289400D02*
X57560500Y-79289400D01*
D33*
X57515500Y-78654400D02*
X56545400Y-79624500D01*
D35*
X63491600Y-80305400D02*
X63491600Y-79530700D01*
X63491600Y-79530700D02*
X63491600Y-78679800D01*
X63379100Y-79624500D02*
X63472900Y-79530700D01*
X63472900Y-79530700D02*
X63491600Y-79530700D01*
X63405900Y-82451700D02*
X63405900Y-80391100D01*
X63405900Y-80391100D02*
X63491600Y-80305400D01*
D37*
X62323900Y-84077300D02*
X62890800Y-83510400D01*
D33*
X62285800Y-85023600D02*
X62285800Y-84077300D01*
D34*
X63509300Y-82269100D02*
X63306800Y-82471600D01*
D35*
X71074200Y-61415500D02*
X71074200Y-66543000D01*
X71074200Y-66543000D02*
X66802000Y-70815200D01*
X66802000Y-70815200D02*
X61849000Y-70815200D01*
X52372600Y-63287400D02*
X52372600Y-65596058D01*
X52372600Y-65596058D02*
X52411400Y-65634858D01*
X52448800Y-61357000D02*
X52448800Y-63211200D01*
X52448800Y-63211200D02*
X52372600Y-63287400D01*
X53091000Y-59006500D02*
X52448800Y-59648700D01*
X52448800Y-59648700D02*
X52448800Y-61357000D01*
X52493400Y-65716858D02*
X52411400Y-65634858D01*
X52941000Y-59006500D02*
X53091000Y-59006500D01*
X52493400Y-65716858D02*
X52497858Y-65716858D01*
X52497858Y-65716858D02*
X53573600Y-66792600D01*
X52493400Y-65716858D02*
X52481400Y-65728858D01*
X92588000Y-105181480D02*
X92090240Y-105679240D01*
X92090240Y-105679240D02*
X87399480Y-110370000D01*
D34*
X92069480Y-105700000D02*
X92090240Y-105679240D01*
X91200660Y-105700000D02*
X92069480Y-105700000D01*
D35*
X86436200Y-72821800D02*
X86436200Y-73583800D01*
X86436200Y-73583800D02*
X92588000Y-79735600D01*
X92588000Y-79735600D02*
X92588000Y-105181480D01*
X92588000Y-105181480D02*
X92580460Y-105189020D01*
X87399480Y-110370000D02*
X83980000Y-110370000D01*
D34*
X90140000Y-105700000D02*
X91200660Y-105700000D01*
X91200660Y-105700000D02*
X91206060Y-105705400D01*
D35*
X83980000Y-110370000D02*
X81440000Y-110370000D01*
X75011200Y-63491300D02*
X74780100Y-63491300D01*
X74780100Y-63491300D02*
X73274200Y-61985400D01*
X73274200Y-61985400D02*
X73274200Y-61415500D01*
X79735600Y-63516000D02*
X75035900Y-63516000D01*
X75035900Y-63516000D02*
X75011200Y-63491300D01*
D34*
X55018500Y-52067800D02*
X54132140Y-52067800D01*
X54132140Y-52067800D02*
X53620100Y-52579840D01*
X53620100Y-52579840D02*
X53620100Y-53538120D01*
D35*
X87000000Y-100600000D02*
X85006100Y-102593900D01*
X85006100Y-102593900D02*
X68896100Y-102593900D01*
X68896100Y-102593900D02*
X63660000Y-107830000D01*
D34*
X65709800Y-56718200D02*
X64203500Y-55211900D01*
X64203500Y-55211900D02*
X64203500Y-52352700D01*
X63641400Y-51790600D02*
X58237400Y-51790600D01*
X64203500Y-52352700D02*
X63641400Y-51790600D01*
X58237400Y-51790600D02*
X57960200Y-52067800D01*
X57960200Y-52067800D02*
X56718500Y-52067800D01*
D35*
X53091000Y-55706500D02*
X56036700Y-55706500D01*
X56036700Y-55706500D02*
X56240900Y-55502300D01*
X55655386Y-59412934D02*
X55655386Y-55720214D01*
X55655386Y-55720214D02*
X55669100Y-55706500D01*
D37*
X88055000Y-90225000D02*
X87620000Y-89790000D01*
X87620000Y-89790000D02*
X87620000Y-88255000D01*
X88055000Y-92230000D02*
X88055000Y-90225000D01*
X78917800Y-72847200D02*
X80162400Y-74091800D01*
X80162400Y-74091800D02*
X82067400Y-74091800D01*
X82067400Y-74091800D02*
X82702400Y-73456800D01*
X82702400Y-73456800D02*
X82702400Y-71526400D01*
X82702400Y-71526400D02*
X83410300Y-70818500D01*
X88792500Y-70818500D02*
X89020000Y-71046000D01*
X83410300Y-70818500D02*
X88792500Y-70818500D01*
X89020000Y-71046000D02*
X89020000Y-72800000D01*
X81440000Y-72820000D02*
X81440000Y-71617919D01*
X81440000Y-71617919D02*
X82747430Y-70310489D01*
X82747430Y-70310489D02*
X91020489Y-70310489D01*
X91020489Y-70310489D02*
X91560000Y-70850000D01*
X91560000Y-70850000D02*
X91560000Y-72800000D01*
D33*
X54432200Y-86060209D02*
X54432200Y-97840800D01*
X54808809Y-85683600D02*
X54432200Y-86060209D01*
X57970880Y-101379480D02*
X81038534Y-101379480D01*
X59625800Y-85683600D02*
X54808809Y-85683600D01*
X54432200Y-97840800D02*
X57970880Y-101379480D01*
X81038534Y-101379480D02*
X81462798Y-101379480D01*
X81887062Y-101379480D02*
X81462798Y-101379480D01*
X83680520Y-101379480D02*
X81887062Y-101379480D01*
X87000000Y-98060000D02*
X83680520Y-101379480D01*
X87000000Y-98060000D02*
X87000000Y-98098100D01*
X59625800Y-86083600D02*
X55242000Y-86083600D01*
X55242000Y-86083600D02*
X54965600Y-86360000D01*
X54965600Y-86360000D02*
X54965600Y-97663000D01*
X54965600Y-97663000D02*
X58089970Y-100787370D01*
X58089970Y-100787370D02*
X78460436Y-100787370D01*
X78460436Y-100787370D02*
X78884700Y-100787370D01*
X87000000Y-95520000D02*
X81732630Y-100787370D01*
X79308964Y-100787370D02*
X78884700Y-100787370D01*
X81732630Y-100787370D02*
X79308964Y-100787370D01*
D37*
X52171600Y-53467000D02*
X51395400Y-54243200D01*
X51395400Y-54243200D02*
X51395400Y-106183200D01*
X51395400Y-106183200D02*
X54302200Y-109090000D01*
X54302200Y-109090000D02*
X70000000Y-109090000D01*
X70000000Y-109090000D02*
X71280000Y-110370000D01*
D33*
X61468000Y-105689400D02*
X53848000Y-98069400D01*
X53848000Y-98069400D02*
X53848000Y-85775800D01*
X53848000Y-85775800D02*
X54640200Y-84983600D01*
X54640200Y-84983600D02*
X60285800Y-84983600D01*
X57396300Y-90097100D02*
X57396300Y-88521600D01*
X59625800Y-87683600D02*
X58010300Y-87683600D01*
X58010300Y-87683600D02*
X57384300Y-88309600D01*
D34*
X61341802Y-83950300D02*
X61339690Y-83950300D01*
X61339690Y-83950300D02*
X61346000Y-83950300D01*
D38*
X56318510Y-82121500D02*
X59187000Y-82121500D01*
D39*
X59255100Y-82088000D02*
X61180900Y-84013800D01*
D33*
X61346000Y-83950300D02*
X61422200Y-84026500D01*
D40*
X61434900Y-84013800D02*
X61434900Y-84102700D01*
D33*
X61422200Y-84115400D02*
X61485800Y-84179000D01*
X61485800Y-84179000D02*
X61485800Y-84983600D01*
X64635300Y-92649100D02*
X65725100Y-92649100D01*
X65725100Y-92649100D02*
X65786000Y-92710000D01*
X64635300Y-91622882D02*
X64635300Y-92195900D01*
X64285800Y-90743600D02*
X64285800Y-91273382D01*
X64285800Y-91273382D02*
X64635300Y-91622882D01*
X64635300Y-92195900D02*
X64635300Y-92649100D01*
X59625800Y-86883600D02*
X57385800Y-86883600D01*
X57385800Y-86883600D02*
X57372300Y-86870100D01*
D35*
X55631000Y-63388300D02*
X55631000Y-61337320D01*
X55631000Y-61337320D02*
X55655386Y-61312934D01*
X54044200Y-61331600D02*
X55636720Y-61331600D01*
D37*
X55636720Y-61331600D02*
X55655386Y-61312934D01*
X55554800Y-61413520D02*
X55655386Y-61312934D01*
X75049300Y-59121100D02*
X73668600Y-59121100D01*
X73668600Y-59121100D02*
X73274200Y-59515500D01*
D33*
X60004260Y-64709040D02*
X60004260Y-62587340D01*
X60004260Y-62587340D02*
X60006000Y-62585600D01*
X60031400Y-67802398D02*
X60004260Y-67775258D01*
X60004260Y-67775258D02*
X60004260Y-64709040D01*
X60006000Y-62585600D02*
X60006000Y-57785000D01*
X60006000Y-57785000D02*
X60895000Y-56896000D01*
X63292000Y-56896000D02*
X64384200Y-57988200D01*
X60895000Y-56896000D02*
X63292000Y-56896000D01*
X70341000Y-59515500D02*
X71074200Y-59515500D01*
X64384200Y-57988200D02*
X68813700Y-57988200D01*
X68813700Y-57988200D02*
X70341000Y-59515500D01*
X57243900Y-70589898D02*
X60031400Y-67802398D01*
X57231200Y-70577198D02*
X57243900Y-70589898D01*
X57855386Y-61312934D02*
X57855386Y-62536214D01*
X57855386Y-62536214D02*
X57828100Y-62563500D01*
X62519682Y-91786200D02*
X59428300Y-91786200D01*
X59428300Y-91786200D02*
X59415600Y-91773500D01*
X63085800Y-90743600D02*
X63085800Y-91220082D01*
X63085800Y-91220082D02*
X62519682Y-91786200D01*
D37*
G36*
X58038137Y-51309536D02*
X57869209Y-51422409D01*
X57744518Y-51547100D01*
X57332457Y-51547100D01*
X57332144Y-51545435D01*
X57259827Y-51433051D01*
X57149483Y-51357656D01*
X57018500Y-51331131D01*
X56418500Y-51331131D01*
X56296135Y-51354156D01*
X56183751Y-51426473D01*
X56108356Y-51536817D01*
X56081831Y-51667800D01*
X56081831Y-52467800D01*
X56104856Y-52590165D01*
X56177173Y-52702549D01*
X56287517Y-52777944D01*
X56418500Y-52804469D01*
X57018500Y-52804469D01*
X57140865Y-52781444D01*
X57253249Y-52709127D01*
X57328644Y-52598783D01*
X57330726Y-52588500D01*
X57960195Y-52588500D01*
X57960200Y-52588501D01*
X58159463Y-52548864D01*
X58328391Y-52435991D01*
X58453082Y-52311300D01*
X61314239Y-52311300D01*
X61070716Y-52675757D01*
X60980879Y-53127400D01*
X61070716Y-53579043D01*
X61326552Y-53961927D01*
X61709436Y-54217763D01*
X62161079Y-54307600D01*
X62207321Y-54307600D01*
X62658964Y-54217763D01*
X63041848Y-53961927D01*
X63297684Y-53579043D01*
X63387521Y-53127400D01*
X63297684Y-52675757D01*
X63054161Y-52311300D01*
X63425718Y-52311300D01*
X63682800Y-52568381D01*
X63682800Y-55211895D01*
X63682799Y-55211900D01*
X63722436Y-55411163D01*
X63835309Y-55580091D01*
X64575244Y-56320025D01*
X64496679Y-56715000D01*
X64586516Y-57166643D01*
X64842352Y-57549527D01*
X64871645Y-57569100D01*
X64557796Y-57569100D01*
X63588347Y-56599651D01*
X63452383Y-56508802D01*
X63292000Y-56476900D01*
X63058571Y-56476900D01*
X63297684Y-56119043D01*
X63387521Y-55667400D01*
X63297684Y-55215757D01*
X63041848Y-54832873D01*
X62658964Y-54577037D01*
X62207321Y-54487200D01*
X62161079Y-54487200D01*
X61709436Y-54577037D01*
X61326552Y-54832873D01*
X61070716Y-55215757D01*
X60980879Y-55667400D01*
X61070716Y-56119043D01*
X61309829Y-56476900D01*
X60895000Y-56476900D01*
X60734617Y-56508802D01*
X60680157Y-56545191D01*
X60598652Y-56599651D01*
X59709652Y-57488652D01*
X59688500Y-57520308D01*
X59688500Y-57354942D01*
X59941466Y-56722527D01*
X59964620Y-56602300D01*
X59964620Y-54402300D01*
X59941466Y-54282073D01*
X59541466Y-53282073D01*
X59479092Y-53183076D01*
X59475408Y-53180407D01*
X59472945Y-53176579D01*
X59423514Y-53142805D01*
X59375036Y-53107678D01*
X59370602Y-53106652D01*
X59366845Y-53104085D01*
X59308166Y-53092202D01*
X59249843Y-53078704D01*
X59245361Y-53079483D01*
X59240900Y-53078580D01*
X58040900Y-53078580D01*
X57923242Y-53100719D01*
X57815179Y-53170255D01*
X57742685Y-53276355D01*
X57717180Y-53402300D01*
X57717180Y-57602300D01*
X57739319Y-57719958D01*
X57808855Y-57828021D01*
X57914955Y-57900515D01*
X58040900Y-57926020D01*
X58545500Y-57926020D01*
X58545500Y-58813065D01*
X58511331Y-58789719D01*
X58385386Y-58764214D01*
X57325386Y-58764214D01*
X57207728Y-58786353D01*
X57099665Y-58855889D01*
X57027171Y-58961989D01*
X57001666Y-59087934D01*
X57001666Y-59737934D01*
X57023805Y-59855592D01*
X57044127Y-59887173D01*
X57027171Y-59911989D01*
X57001666Y-60037934D01*
X57001666Y-60687934D01*
X57023805Y-60805592D01*
X57044127Y-60837173D01*
X57027171Y-60861989D01*
X57001666Y-60987934D01*
X57001666Y-61637934D01*
X57023805Y-61755592D01*
X57093341Y-61863655D01*
X57199441Y-61936149D01*
X57325386Y-61961654D01*
X57436286Y-61961654D01*
X57436286Y-62082114D01*
X57304914Y-62213257D01*
X57210707Y-62440133D01*
X57210493Y-62685790D01*
X57304303Y-62912829D01*
X57322722Y-62931280D01*
X57072100Y-62931280D01*
X56954442Y-62953419D01*
X56846379Y-63022955D01*
X56773885Y-63129055D01*
X56748380Y-63255000D01*
X56748380Y-64055000D01*
X56770519Y-64172658D01*
X56840055Y-64280721D01*
X56938657Y-64348092D01*
X56830224Y-64393007D01*
X56710107Y-64513124D01*
X56645100Y-64670065D01*
X56645100Y-64921250D01*
X56751850Y-65028000D01*
X57320100Y-65028000D01*
X57320100Y-65008000D01*
X57574100Y-65008000D01*
X57574100Y-65028000D01*
X58142350Y-65028000D01*
X58249100Y-64921250D01*
X58249100Y-64670065D01*
X58184093Y-64513124D01*
X58063976Y-64393007D01*
X57953965Y-64347439D01*
X58047821Y-64287045D01*
X58090966Y-64223900D01*
X58545500Y-64223900D01*
X58545500Y-66714080D01*
X53728278Y-71531301D01*
X53604393Y-71716709D01*
X53604393Y-71716710D01*
X53560889Y-71935413D01*
X53560890Y-71935418D01*
X53560890Y-76736685D01*
X53560889Y-76736690D01*
X53597175Y-76919108D01*
X53604393Y-76955394D01*
X53666117Y-77047771D01*
X53728278Y-77140802D01*
X54388686Y-77801209D01*
X54388688Y-77801212D01*
X54574096Y-77925097D01*
X54610382Y-77932315D01*
X54792800Y-77968601D01*
X54792805Y-77968600D01*
X59448410Y-77968600D01*
X59558933Y-78014493D01*
X59804590Y-78014707D01*
X60031629Y-77920897D01*
X60205486Y-77747343D01*
X60299693Y-77520467D01*
X60299907Y-77274810D01*
X60206097Y-77047771D01*
X60032543Y-76873914D01*
X59805667Y-76779707D01*
X59560010Y-76779493D01*
X59448422Y-76825600D01*
X55029523Y-76825600D01*
X54703890Y-76499966D01*
X54703890Y-75593750D01*
X54763000Y-75593750D01*
X54763000Y-76294935D01*
X54828007Y-76451876D01*
X54948124Y-76571993D01*
X55105064Y-76637000D01*
X55806250Y-76637000D01*
X55913000Y-76530250D01*
X55913000Y-75487000D01*
X56167000Y-75487000D01*
X56167000Y-76530250D01*
X56273750Y-76637000D01*
X56974936Y-76637000D01*
X57131876Y-76571993D01*
X57251993Y-76451876D01*
X57317000Y-76294935D01*
X57317000Y-75593750D01*
X57210250Y-75487000D01*
X56167000Y-75487000D01*
X55913000Y-75487000D01*
X54869750Y-75487000D01*
X54763000Y-75593750D01*
X54703890Y-75593750D01*
X54703890Y-75337127D01*
X57412500Y-75337127D01*
X57412500Y-75382873D01*
X57501371Y-75829656D01*
X57754453Y-76208420D01*
X58133217Y-76461502D01*
X58580000Y-76550373D01*
X59026783Y-76461502D01*
X59405547Y-76208420D01*
X59658629Y-75829656D01*
X59747500Y-75382873D01*
X59747500Y-75337127D01*
X59747451Y-75336879D01*
X59939800Y-75336879D01*
X59939800Y-75383121D01*
X60029637Y-75834764D01*
X60285473Y-76217648D01*
X60668357Y-76473484D01*
X61120000Y-76563321D01*
X61571643Y-76473484D01*
X61954527Y-76217648D01*
X62210363Y-75834764D01*
X62300200Y-75383121D01*
X62300200Y-75336879D01*
X62479800Y-75336879D01*
X62479800Y-75383121D01*
X62569637Y-75834764D01*
X62825473Y-76217648D01*
X63208357Y-76473484D01*
X63660000Y-76563321D01*
X64111643Y-76473484D01*
X64494527Y-76217648D01*
X64750363Y-75834764D01*
X64840200Y-75383121D01*
X64840200Y-75336879D01*
X64750363Y-74885236D01*
X64494527Y-74502352D01*
X64111643Y-74246516D01*
X63660000Y-74156679D01*
X63208357Y-74246516D01*
X62825473Y-74502352D01*
X62569637Y-74885236D01*
X62479800Y-75336879D01*
X62300200Y-75336879D01*
X62210363Y-74885236D01*
X61954527Y-74502352D01*
X61571643Y-74246516D01*
X61120000Y-74156679D01*
X60668357Y-74246516D01*
X60285473Y-74502352D01*
X60029637Y-74885236D01*
X59939800Y-75336879D01*
X59747451Y-75336879D01*
X59658629Y-74890344D01*
X59405547Y-74511580D01*
X59026783Y-74258498D01*
X58580000Y-74169627D01*
X58133217Y-74258498D01*
X57754453Y-74511580D01*
X57501371Y-74890344D01*
X57412500Y-75337127D01*
X54703890Y-75337127D01*
X54703890Y-74425065D01*
X54763000Y-74425065D01*
X54763000Y-75126250D01*
X54869750Y-75233000D01*
X55913000Y-75233000D01*
X55913000Y-74189750D01*
X56167000Y-74189750D01*
X56167000Y-75233000D01*
X57210250Y-75233000D01*
X57317000Y-75126250D01*
X57317000Y-74425065D01*
X57251993Y-74268124D01*
X57131876Y-74148007D01*
X56974936Y-74083000D01*
X56273750Y-74083000D01*
X56167000Y-74189750D01*
X55913000Y-74189750D01*
X55806250Y-74083000D01*
X55105064Y-74083000D01*
X54948124Y-74148007D01*
X54828007Y-74268124D01*
X54763000Y-74425065D01*
X54703890Y-74425065D01*
X54703890Y-73144215D01*
X54804831Y-73144215D01*
X55022924Y-73592214D01*
X55395858Y-73922651D01*
X55715787Y-74055158D01*
X55913000Y-73983338D01*
X55913000Y-72947000D01*
X56167000Y-72947000D01*
X56167000Y-73983338D01*
X56364213Y-74055158D01*
X56684142Y-73922651D01*
X57057076Y-73592214D01*
X57275169Y-73144215D01*
X57203930Y-72947000D01*
X56167000Y-72947000D01*
X55913000Y-72947000D01*
X54876070Y-72947000D01*
X54804831Y-73144215D01*
X54703890Y-73144215D01*
X54703890Y-72797127D01*
X57412500Y-72797127D01*
X57412500Y-72842873D01*
X57501371Y-73289656D01*
X57754453Y-73668420D01*
X58133217Y-73921502D01*
X58580000Y-74010373D01*
X59026783Y-73921502D01*
X59405547Y-73668420D01*
X59658629Y-73289656D01*
X59747500Y-72842873D01*
X59747500Y-72797127D01*
X59952500Y-72797127D01*
X59952500Y-72842873D01*
X60041371Y-73289656D01*
X60294453Y-73668420D01*
X60673217Y-73921502D01*
X61120000Y-74010373D01*
X61566783Y-73921502D01*
X61945547Y-73668420D01*
X62198629Y-73289656D01*
X62287500Y-72842873D01*
X62287500Y-72797127D01*
X62492500Y-72797127D01*
X62492500Y-72842873D01*
X62581371Y-73289656D01*
X62834453Y-73668420D01*
X63213217Y-73921502D01*
X63660000Y-74010373D01*
X64106783Y-73921502D01*
X64485547Y-73668420D01*
X64738629Y-73289656D01*
X64827500Y-72842873D01*
X64827500Y-72797127D01*
X65032500Y-72797127D01*
X65032500Y-72842873D01*
X65121371Y-73289656D01*
X65374453Y-73668420D01*
X65753217Y-73921502D01*
X66200000Y-74010373D01*
X66646783Y-73921502D01*
X67025547Y-73668420D01*
X67278629Y-73289656D01*
X67367500Y-72842873D01*
X67367500Y-72797127D01*
X67278629Y-72350344D01*
X67025547Y-71971580D01*
X66646783Y-71718498D01*
X66200000Y-71629627D01*
X65753217Y-71718498D01*
X65374453Y-71971580D01*
X65121371Y-72350344D01*
X65032500Y-72797127D01*
X64827500Y-72797127D01*
X64738629Y-72350344D01*
X64485547Y-71971580D01*
X64106783Y-71718498D01*
X63660000Y-71629627D01*
X63213217Y-71718498D01*
X62834453Y-71971580D01*
X62581371Y-72350344D01*
X62492500Y-72797127D01*
X62287500Y-72797127D01*
X62198629Y-72350344D01*
X61945547Y-71971580D01*
X61566783Y-71718498D01*
X61120000Y-71629627D01*
X60673217Y-71718498D01*
X60294453Y-71971580D01*
X60041371Y-72350344D01*
X59952500Y-72797127D01*
X59747500Y-72797127D01*
X59658629Y-72350344D01*
X59405547Y-71971580D01*
X59026783Y-71718498D01*
X58580000Y-71629627D01*
X58133217Y-71718498D01*
X57754453Y-71971580D01*
X57501371Y-72350344D01*
X57412500Y-72797127D01*
X54703890Y-72797127D01*
X54703890Y-72495785D01*
X54804831Y-72495785D01*
X54876070Y-72693000D01*
X55913000Y-72693000D01*
X55913000Y-71656662D01*
X56167000Y-71656662D01*
X56167000Y-72693000D01*
X57203930Y-72693000D01*
X57275169Y-72495785D01*
X57057076Y-72047786D01*
X56684142Y-71717349D01*
X56364213Y-71584842D01*
X56167000Y-71656662D01*
X55913000Y-71656662D01*
X55715787Y-71584842D01*
X55395858Y-71717349D01*
X55022924Y-72047786D01*
X54804831Y-72495785D01*
X54703890Y-72495785D01*
X54703890Y-72172137D01*
X59521109Y-67354917D01*
X59521112Y-67354915D01*
X59585160Y-67259060D01*
X59585160Y-67655941D01*
X57268683Y-69972419D01*
X57121610Y-69972291D01*
X56894571Y-70066101D01*
X56720714Y-70239655D01*
X56626507Y-70466531D01*
X56626293Y-70712188D01*
X56720103Y-70939227D01*
X56893657Y-71113084D01*
X57120533Y-71207291D01*
X57366190Y-71207505D01*
X57593229Y-71113695D01*
X57767086Y-70940141D01*
X57767140Y-70940009D01*
X61218691Y-70940009D01*
X61314431Y-71171717D01*
X61491554Y-71349150D01*
X61723096Y-71445294D01*
X61973805Y-71445513D01*
X62085407Y-71399400D01*
X66802000Y-71399400D01*
X67025564Y-71354930D01*
X67215092Y-71228292D01*
X71487292Y-66956092D01*
X71513142Y-66917405D01*
X71613930Y-66766564D01*
X71658400Y-66543000D01*
X71658400Y-62066970D01*
X71726565Y-62054144D01*
X71838949Y-61981827D01*
X71914344Y-61871483D01*
X71940869Y-61740500D01*
X71940869Y-61090500D01*
X71917844Y-60968135D01*
X71845527Y-60855751D01*
X71735183Y-60780356D01*
X71604200Y-60753831D01*
X70544200Y-60753831D01*
X70421835Y-60776856D01*
X70309451Y-60849173D01*
X70234056Y-60959517D01*
X70207531Y-61090500D01*
X70207531Y-61740500D01*
X70230556Y-61862865D01*
X70302873Y-61975249D01*
X70413217Y-62050644D01*
X70490000Y-62066193D01*
X70490000Y-66301016D01*
X66560016Y-70231000D01*
X66554799Y-70231000D01*
X66801502Y-69861783D01*
X66890373Y-69415000D01*
X66801502Y-68968217D01*
X66548420Y-68589453D01*
X66169656Y-68336371D01*
X65722873Y-68247500D01*
X65677127Y-68247500D01*
X65230344Y-68336371D01*
X64851580Y-68589453D01*
X64598498Y-68968217D01*
X64509627Y-69415000D01*
X64598498Y-69861783D01*
X64845201Y-70231000D01*
X62085410Y-70231000D01*
X61974904Y-70185114D01*
X61724195Y-70184895D01*
X61492487Y-70280635D01*
X61315054Y-70457758D01*
X61218910Y-70689300D01*
X61218691Y-70940009D01*
X57767140Y-70940009D01*
X57861293Y-70713265D01*
X57861422Y-70565072D01*
X60327746Y-68098749D01*
X60327749Y-68098747D01*
X60418598Y-67962781D01*
X60450500Y-67802398D01*
X60423360Y-67665956D01*
X60423360Y-66875000D01*
X64496679Y-66875000D01*
X64586516Y-67326643D01*
X64842352Y-67709527D01*
X65225236Y-67965363D01*
X65676879Y-68055200D01*
X65723121Y-68055200D01*
X66174764Y-67965363D01*
X66557648Y-67709527D01*
X66813484Y-67326643D01*
X66903321Y-66875000D01*
X66813484Y-66423357D01*
X66557648Y-66040473D01*
X66174764Y-65784637D01*
X65723121Y-65694800D01*
X65676879Y-65694800D01*
X65225236Y-65784637D01*
X64842352Y-66040473D01*
X64586516Y-66423357D01*
X64496679Y-66875000D01*
X60423360Y-66875000D01*
X60423360Y-65427519D01*
X60479981Y-65391085D01*
X60552475Y-65284985D01*
X60577980Y-65159040D01*
X60577980Y-64942790D01*
X60827260Y-64942790D01*
X60827260Y-65243976D01*
X60892267Y-65400916D01*
X61012384Y-65521033D01*
X61169325Y-65586040D01*
X61272510Y-65586040D01*
X61379260Y-65479290D01*
X61379260Y-64836040D01*
X61629260Y-64836040D01*
X61629260Y-65479290D01*
X61736010Y-65586040D01*
X61839195Y-65586040D01*
X61996136Y-65521033D01*
X62116253Y-65400916D01*
X62181260Y-65243976D01*
X62181260Y-64942790D01*
X62074510Y-64836040D01*
X61629260Y-64836040D01*
X61379260Y-64836040D01*
X60934010Y-64836040D01*
X60827260Y-64942790D01*
X60577980Y-64942790D01*
X60577980Y-64259040D01*
X60561999Y-64174104D01*
X60827260Y-64174104D01*
X60827260Y-64475290D01*
X60934010Y-64582040D01*
X61379260Y-64582040D01*
X61379260Y-63938790D01*
X61629260Y-63938790D01*
X61629260Y-64582040D01*
X62074510Y-64582040D01*
X62181260Y-64475290D01*
X62181260Y-64335000D01*
X64496679Y-64335000D01*
X64586516Y-64786643D01*
X64842352Y-65169527D01*
X65225236Y-65425363D01*
X65676879Y-65515200D01*
X65723121Y-65515200D01*
X66174764Y-65425363D01*
X66557648Y-65169527D01*
X66813484Y-64786643D01*
X66903321Y-64335000D01*
X66813484Y-63883357D01*
X66557648Y-63500473D01*
X66174764Y-63244637D01*
X65723121Y-63154800D01*
X65676879Y-63154800D01*
X65225236Y-63244637D01*
X64842352Y-63500473D01*
X64586516Y-63883357D01*
X64496679Y-64335000D01*
X62181260Y-64335000D01*
X62181260Y-64174104D01*
X62116253Y-64017164D01*
X61996136Y-63897047D01*
X61839195Y-63832040D01*
X61736010Y-63832040D01*
X61629260Y-63938790D01*
X61379260Y-63938790D01*
X61272510Y-63832040D01*
X61169325Y-63832040D01*
X61012384Y-63897047D01*
X60892267Y-64017164D01*
X60827260Y-64174104D01*
X60561999Y-64174104D01*
X60555841Y-64141382D01*
X60486305Y-64033319D01*
X60423360Y-63990311D01*
X60423360Y-63041485D01*
X60529186Y-62935843D01*
X60573801Y-62828397D01*
X60726419Y-63197760D01*
X61043172Y-63515067D01*
X61457242Y-63687004D01*
X61905591Y-63687395D01*
X62319960Y-63516181D01*
X62637267Y-63199428D01*
X62809204Y-62785358D01*
X62809595Y-62337009D01*
X62638381Y-61922640D01*
X62510964Y-61795000D01*
X64496679Y-61795000D01*
X64586516Y-62246643D01*
X64842352Y-62629527D01*
X65225236Y-62885363D01*
X65676879Y-62975200D01*
X65723121Y-62975200D01*
X66174764Y-62885363D01*
X66557648Y-62629527D01*
X66813484Y-62246643D01*
X66903321Y-61795000D01*
X66813484Y-61343357D01*
X66557648Y-60960473D01*
X66174764Y-60704637D01*
X65723121Y-60614800D01*
X65676879Y-60614800D01*
X65225236Y-60704637D01*
X64842352Y-60960473D01*
X64586516Y-61343357D01*
X64496679Y-61795000D01*
X62510964Y-61795000D01*
X62321628Y-61605333D01*
X61907558Y-61433396D01*
X61459209Y-61433005D01*
X61044840Y-61604219D01*
X60727533Y-61920972D01*
X60563121Y-62316921D01*
X60529797Y-62236271D01*
X60425100Y-62131391D01*
X60425100Y-58441150D01*
X60907200Y-58441150D01*
X60907200Y-59142336D01*
X60972207Y-59299276D01*
X61092324Y-59419393D01*
X61249265Y-59484400D01*
X61950450Y-59484400D01*
X62057200Y-59377650D01*
X62057200Y-58334400D01*
X62311200Y-58334400D01*
X62311200Y-59377650D01*
X62417950Y-59484400D01*
X63119135Y-59484400D01*
X63276076Y-59419393D01*
X63396193Y-59299276D01*
X63461200Y-59142336D01*
X63461200Y-58441150D01*
X63354450Y-58334400D01*
X62311200Y-58334400D01*
X62057200Y-58334400D01*
X61013950Y-58334400D01*
X60907200Y-58441150D01*
X60425100Y-58441150D01*
X60425100Y-57958596D01*
X60907200Y-57476497D01*
X60907200Y-57973650D01*
X61013950Y-58080400D01*
X62057200Y-58080400D01*
X62057200Y-58060400D01*
X62311200Y-58060400D01*
X62311200Y-58080400D01*
X63354450Y-58080400D01*
X63461200Y-57973650D01*
X63461200Y-57657896D01*
X64087852Y-58284548D01*
X64223817Y-58375398D01*
X64384200Y-58407300D01*
X64862067Y-58407300D01*
X64842352Y-58420473D01*
X64586516Y-58803357D01*
X64496679Y-59255000D01*
X64586516Y-59706643D01*
X64842352Y-60089527D01*
X65225236Y-60345363D01*
X65676879Y-60435200D01*
X65723121Y-60435200D01*
X66174764Y-60345363D01*
X66557648Y-60089527D01*
X66813484Y-59706643D01*
X66903321Y-59255000D01*
X66813484Y-58803357D01*
X66557648Y-58420473D01*
X66537933Y-58407300D01*
X68640104Y-58407300D01*
X70044651Y-59811848D01*
X70135068Y-59872263D01*
X70180617Y-59902698D01*
X70234188Y-59913354D01*
X70242619Y-59958158D01*
X70312155Y-60066221D01*
X70418255Y-60138715D01*
X70544200Y-60164220D01*
X71604200Y-60164220D01*
X71721858Y-60142081D01*
X71829921Y-60072545D01*
X71841523Y-60055564D01*
X72317200Y-60055564D01*
X72317200Y-60231750D01*
X72423950Y-60338500D01*
X73147200Y-60338500D01*
X73147200Y-60318500D01*
X73401200Y-60318500D01*
X73401200Y-60338500D01*
X74124450Y-60338500D01*
X74172300Y-60290650D01*
X74172300Y-60389350D01*
X74279050Y-60496100D01*
X74922300Y-60496100D01*
X74922300Y-60050850D01*
X75176300Y-60050850D01*
X75176300Y-60496100D01*
X75819550Y-60496100D01*
X75926300Y-60389350D01*
X75926300Y-60286165D01*
X75861293Y-60129224D01*
X75741176Y-60009107D01*
X75584236Y-59944100D01*
X75283050Y-59944100D01*
X75176300Y-60050850D01*
X74922300Y-60050850D01*
X74815550Y-59944100D01*
X74514364Y-59944100D01*
X74357424Y-60009107D01*
X74237307Y-60129224D01*
X74231200Y-60143968D01*
X74231200Y-60055564D01*
X74166193Y-59898624D01*
X74135345Y-59867776D01*
X74140869Y-59840500D01*
X74140869Y-59578300D01*
X74340246Y-59578300D01*
X74357973Y-59605849D01*
X74468317Y-59681244D01*
X74599300Y-59707769D01*
X75499300Y-59707769D01*
X75621665Y-59684744D01*
X75734049Y-59612427D01*
X75809444Y-59502083D01*
X75835969Y-59371100D01*
X75835969Y-58871100D01*
X75812944Y-58748735D01*
X75740627Y-58636351D01*
X75630283Y-58560956D01*
X75499300Y-58534431D01*
X74599300Y-58534431D01*
X74476935Y-58557456D01*
X74364551Y-58629773D01*
X74341233Y-58663900D01*
X73668600Y-58663900D01*
X73493637Y-58698702D01*
X73345311Y-58797811D01*
X73289291Y-58853831D01*
X72744200Y-58853831D01*
X72621835Y-58876856D01*
X72509451Y-58949173D01*
X72434056Y-59059517D01*
X72407531Y-59190500D01*
X72407531Y-59840500D01*
X72412725Y-59868106D01*
X72382207Y-59898624D01*
X72317200Y-60055564D01*
X71841523Y-60055564D01*
X71902415Y-59966445D01*
X71927920Y-59840500D01*
X71927920Y-59190500D01*
X71905781Y-59072842D01*
X71836245Y-58964779D01*
X71730145Y-58892285D01*
X71604200Y-58866780D01*
X70544200Y-58866780D01*
X70426542Y-58888919D01*
X70353875Y-58935678D01*
X69110048Y-57691852D01*
X68974083Y-57601002D01*
X68813700Y-57569100D01*
X66528355Y-57569100D01*
X66557648Y-57549527D01*
X66723742Y-57300950D01*
X87021000Y-57300950D01*
X87021000Y-57527136D01*
X87086007Y-57684076D01*
X87206124Y-57804193D01*
X87363065Y-57869200D01*
X87614250Y-57869200D01*
X87721000Y-57762450D01*
X87721000Y-57194200D01*
X87127750Y-57194200D01*
X87021000Y-57300950D01*
X66723742Y-57300950D01*
X66813484Y-57166643D01*
X66903321Y-56715000D01*
X66881892Y-56607264D01*
X87021000Y-56607264D01*
X87021000Y-56833450D01*
X87127750Y-56940200D01*
X87721000Y-56940200D01*
X87721000Y-56371950D01*
X87614250Y-56265200D01*
X87363065Y-56265200D01*
X87206124Y-56330207D01*
X87086007Y-56450324D01*
X87021000Y-56607264D01*
X66881892Y-56607264D01*
X66813484Y-56263357D01*
X66557648Y-55880473D01*
X66174764Y-55624637D01*
X65723121Y-55534800D01*
X65676879Y-55534800D01*
X65331484Y-55603503D01*
X65179982Y-55452000D01*
X65466250Y-55452000D01*
X65573000Y-55345250D01*
X65573000Y-54302000D01*
X65827000Y-54302000D01*
X65827000Y-55345250D01*
X65933750Y-55452000D01*
X66634935Y-55452000D01*
X66791876Y-55386993D01*
X66911993Y-55266876D01*
X66977000Y-55109936D01*
X66977000Y-54408750D01*
X66870250Y-54302000D01*
X65827000Y-54302000D01*
X65573000Y-54302000D01*
X65553000Y-54302000D01*
X65553000Y-54048000D01*
X65573000Y-54048000D01*
X65573000Y-53004750D01*
X65827000Y-53004750D01*
X65827000Y-54048000D01*
X66870250Y-54048000D01*
X66977000Y-53941250D01*
X66977000Y-53677334D01*
X86333995Y-53677334D01*
X86361308Y-54244373D01*
X86525759Y-54641393D01*
X86734110Y-54751485D01*
X87593395Y-53892200D01*
X86734110Y-53032915D01*
X86525759Y-53143007D01*
X86333995Y-53677334D01*
X66977000Y-53677334D01*
X66977000Y-53240064D01*
X66911993Y-53083124D01*
X66791876Y-52963007D01*
X66634935Y-52898000D01*
X65933750Y-52898000D01*
X65827000Y-53004750D01*
X65573000Y-53004750D01*
X65466250Y-52898000D01*
X64765065Y-52898000D01*
X64724200Y-52914927D01*
X64724200Y-52352700D01*
X64707166Y-52267063D01*
X64684564Y-52153436D01*
X64621557Y-52059140D01*
X64571691Y-51984509D01*
X64571688Y-51984507D01*
X64009591Y-51422409D01*
X63840663Y-51309536D01*
X63802778Y-51302000D01*
X88770460Y-51302000D01*
X88770460Y-52835558D01*
X88710247Y-52775345D01*
X88632284Y-52853308D01*
X88522193Y-52644959D01*
X87987866Y-52453195D01*
X87420827Y-52480508D01*
X87023807Y-52644959D01*
X86913715Y-52853310D01*
X87773000Y-53712595D01*
X87787143Y-53698453D01*
X87966748Y-53878058D01*
X87952605Y-53892200D01*
X87966748Y-53906343D01*
X87787143Y-54085948D01*
X87773000Y-54071805D01*
X86913715Y-54931090D01*
X87023807Y-55139441D01*
X87558134Y-55331205D01*
X88125173Y-55303892D01*
X88522193Y-55139441D01*
X88632284Y-54931092D01*
X88710247Y-55009055D01*
X88770460Y-54948842D01*
X88770460Y-55333686D01*
X88303347Y-55789062D01*
X88274952Y-55830718D01*
X88265000Y-55880000D01*
X88265000Y-56265200D01*
X88081750Y-56265200D01*
X87975000Y-56371950D01*
X87975000Y-56940200D01*
X87995000Y-56940200D01*
X87995000Y-57194200D01*
X87975000Y-57194200D01*
X87975000Y-57762450D01*
X88077750Y-57865200D01*
X88038065Y-57865200D01*
X87881124Y-57930207D01*
X87761007Y-58050324D01*
X87696000Y-58207264D01*
X87696000Y-58333450D01*
X87802750Y-58440200D01*
X88198000Y-58440200D01*
X88198000Y-58420200D01*
X88265000Y-58420200D01*
X88265000Y-58714200D01*
X88198000Y-58714200D01*
X88198000Y-58694200D01*
X87802750Y-58694200D01*
X87696000Y-58800950D01*
X87696000Y-58801000D01*
X83566000Y-58801000D01*
X83516590Y-58811006D01*
X83484697Y-58830436D01*
X78563060Y-62931800D01*
X75675948Y-62931800D01*
X75627527Y-62856551D01*
X75533648Y-62792406D01*
X75628076Y-62753293D01*
X75748193Y-62633176D01*
X75813200Y-62476235D01*
X75813200Y-62225050D01*
X75706450Y-62118300D01*
X75138200Y-62118300D01*
X75138200Y-62138300D01*
X74884200Y-62138300D01*
X74884200Y-62118300D01*
X74315950Y-62118300D01*
X74274617Y-62159633D01*
X74062436Y-61947452D01*
X74114344Y-61871483D01*
X74140869Y-61740500D01*
X74140869Y-61090500D01*
X74135675Y-61062894D01*
X74166193Y-61032376D01*
X74185057Y-60986834D01*
X74237307Y-61112976D01*
X74357424Y-61233093D01*
X74380839Y-61242792D01*
X74274207Y-61349424D01*
X74209200Y-61506365D01*
X74209200Y-61757550D01*
X74315950Y-61864300D01*
X74884200Y-61864300D01*
X74884200Y-61271050D01*
X75138200Y-61271050D01*
X75138200Y-61864300D01*
X75706450Y-61864300D01*
X75813200Y-61757550D01*
X75813200Y-61506365D01*
X75748193Y-61349424D01*
X75663879Y-61265110D01*
X75741176Y-61233093D01*
X75861293Y-61112976D01*
X75926300Y-60956035D01*
X75926300Y-60852850D01*
X75819550Y-60746100D01*
X75176300Y-60746100D01*
X75176300Y-61191350D01*
X75197100Y-61212150D01*
X75138200Y-61271050D01*
X74884200Y-61271050D01*
X74863400Y-61250250D01*
X74922300Y-61191350D01*
X74922300Y-60746100D01*
X74279050Y-60746100D01*
X74231200Y-60793950D01*
X74231200Y-60699250D01*
X74124450Y-60592500D01*
X73401200Y-60592500D01*
X73401200Y-60612500D01*
X73147200Y-60612500D01*
X73147200Y-60592500D01*
X72423950Y-60592500D01*
X72317200Y-60699250D01*
X72317200Y-60875436D01*
X72382207Y-61032376D01*
X72413055Y-61063224D01*
X72407531Y-61090500D01*
X72407531Y-61740500D01*
X72430556Y-61862865D01*
X72502873Y-61975249D01*
X72613217Y-62050644D01*
X72706745Y-62069584D01*
X72734470Y-62208964D01*
X72773350Y-62267152D01*
X72861108Y-62398492D01*
X74299531Y-63836915D01*
X74299531Y-63891300D01*
X74322556Y-64013665D01*
X74394873Y-64126049D01*
X74505217Y-64201444D01*
X74636200Y-64227969D01*
X75386200Y-64227969D01*
X75508565Y-64204944D01*
X75620949Y-64132627D01*
X75643105Y-64100200D01*
X77160980Y-64100200D01*
X68884777Y-70997036D01*
X68853224Y-71036354D01*
X68839080Y-71094553D01*
X68838873Y-71649294D01*
X68740000Y-71629627D01*
X68293217Y-71718498D01*
X67914453Y-71971580D01*
X67661371Y-72350344D01*
X67572500Y-72797127D01*
X67572500Y-72842873D01*
X67661371Y-73289656D01*
X67914453Y-73668420D01*
X68293217Y-73921502D01*
X68740000Y-74010373D01*
X68837998Y-73990880D01*
X68836587Y-77767653D01*
X64198026Y-77784961D01*
X64148654Y-77795151D01*
X64107136Y-77823747D01*
X64080014Y-77866243D01*
X64071500Y-77912164D01*
X64071698Y-78035540D01*
X63992145Y-77981185D01*
X63866200Y-77955680D01*
X63066200Y-77955680D01*
X62948542Y-77977819D01*
X62840479Y-78047355D01*
X62767985Y-78153455D01*
X62756554Y-78209900D01*
X57560500Y-78209900D01*
X57147393Y-78292072D01*
X57134361Y-78300780D01*
X55445400Y-78300780D01*
X55325173Y-78323934D01*
X54325173Y-78723934D01*
X54226176Y-78786308D01*
X54223507Y-78789992D01*
X54219679Y-78792455D01*
X54185905Y-78841886D01*
X54150778Y-78890364D01*
X54149752Y-78894798D01*
X54147185Y-78898555D01*
X54135302Y-78957234D01*
X54121804Y-79015557D01*
X54122583Y-79020039D01*
X54121680Y-79024500D01*
X54121680Y-80224500D01*
X54143819Y-80342158D01*
X54213355Y-80450221D01*
X54319455Y-80522715D01*
X54445400Y-80548220D01*
X58645400Y-80548220D01*
X58763058Y-80526081D01*
X58871121Y-80456545D01*
X58931005Y-80368900D01*
X60970800Y-80368900D01*
X60970800Y-80524850D01*
X61077550Y-80631600D01*
X61645800Y-80631600D01*
X61645800Y-80611600D01*
X61899800Y-80611600D01*
X61899800Y-80631600D01*
X62468050Y-80631600D01*
X62574800Y-80524850D01*
X62574800Y-80368900D01*
X62767880Y-80368900D01*
X62767880Y-80680400D01*
X62790019Y-80798058D01*
X62834400Y-80867029D01*
X62834400Y-81153000D01*
X62574800Y-81153000D01*
X62574800Y-80992350D01*
X62468050Y-80885600D01*
X61899800Y-80885600D01*
X61899800Y-80905600D01*
X61645800Y-80905600D01*
X61645800Y-80885600D01*
X61077550Y-80885600D01*
X60970800Y-80992350D01*
X60970800Y-81243535D01*
X61035807Y-81400476D01*
X61155924Y-81520593D01*
X61265935Y-81566161D01*
X61172079Y-81626555D01*
X61099585Y-81732655D01*
X61074080Y-81858600D01*
X61074080Y-82658600D01*
X61096219Y-82776258D01*
X61165755Y-82884321D01*
X61271855Y-82956815D01*
X61320600Y-82966686D01*
X61320600Y-83165672D01*
X60105500Y-81950572D01*
X60066995Y-81756994D01*
X59860519Y-81447981D01*
X59551506Y-81241505D01*
X59187000Y-81169000D01*
X58958677Y-81169000D01*
X58946981Y-81106842D01*
X58877445Y-80998779D01*
X58771345Y-80926285D01*
X58645400Y-80900780D01*
X54445400Y-80900780D01*
X54327742Y-80922919D01*
X54219679Y-80992455D01*
X54147185Y-81098555D01*
X54121680Y-81224500D01*
X54121680Y-82424500D01*
X54143819Y-82542158D01*
X54145522Y-82544805D01*
X54146121Y-82547897D01*
X54180232Y-82598746D01*
X54213355Y-82650221D01*
X54215955Y-82651997D01*
X54217708Y-82654611D01*
X54268907Y-82688177D01*
X54319455Y-82722715D01*
X54322540Y-82723340D01*
X54325173Y-82725066D01*
X55325173Y-83125066D01*
X55445400Y-83148220D01*
X57645400Y-83148220D01*
X57765627Y-83125066D01*
X57893292Y-83074000D01*
X59187000Y-83074000D01*
X59242277Y-83063005D01*
X59926372Y-83747100D01*
X58574436Y-83747100D01*
X58521243Y-83693814D01*
X58294367Y-83599607D01*
X58048710Y-83599393D01*
X57821671Y-83693203D01*
X57647814Y-83866757D01*
X57553607Y-84093633D01*
X57553393Y-84339290D01*
X57646447Y-84564500D01*
X54640200Y-84564500D01*
X54479817Y-84596402D01*
X54385941Y-84659129D01*
X54343852Y-84687252D01*
X53551652Y-85479452D01*
X53460802Y-85615417D01*
X53428900Y-85775800D01*
X53428900Y-98069400D01*
X53460802Y-98229783D01*
X53479979Y-98258483D01*
X53551652Y-98365748D01*
X60850521Y-105664618D01*
X60850393Y-105811690D01*
X60944203Y-106038729D01*
X61117757Y-106212586D01*
X61344633Y-106306793D01*
X61590290Y-106307007D01*
X61817329Y-106213197D01*
X61991186Y-106039643D01*
X62085393Y-105812767D01*
X62085607Y-105567110D01*
X61991797Y-105340071D01*
X61818243Y-105166214D01*
X61591367Y-105072007D01*
X61443175Y-105071878D01*
X58169877Y-101798580D01*
X81008650Y-101798580D01*
X81112555Y-101902666D01*
X81339431Y-101996873D01*
X81585088Y-101997087D01*
X81812127Y-101903277D01*
X81917007Y-101798580D01*
X83680520Y-101798580D01*
X83840903Y-101766678D01*
X83976868Y-101675828D01*
X86520587Y-99132110D01*
X86530344Y-99138629D01*
X86977127Y-99227500D01*
X87022873Y-99227500D01*
X87469656Y-99138629D01*
X87848420Y-98885547D01*
X88101502Y-98506783D01*
X88190373Y-98060000D01*
X88101502Y-97613217D01*
X87848420Y-97234453D01*
X87469656Y-96981371D01*
X87022873Y-96892500D01*
X86977127Y-96892500D01*
X86530344Y-96981371D01*
X86151580Y-97234453D01*
X85898498Y-97613217D01*
X85809627Y-98060000D01*
X85898498Y-98506783D01*
X85923341Y-98543963D01*
X83506924Y-100960380D01*
X82152316Y-100960380D01*
X86520587Y-96592110D01*
X86530344Y-96598629D01*
X86977127Y-96687500D01*
X87022873Y-96687500D01*
X87469656Y-96598629D01*
X87848420Y-96345547D01*
X88101502Y-95966783D01*
X88190373Y-95520000D01*
X88101502Y-95073217D01*
X87848420Y-94694453D01*
X87469656Y-94441371D01*
X87022873Y-94352500D01*
X86977127Y-94352500D01*
X86530344Y-94441371D01*
X86151580Y-94694453D01*
X85898498Y-95073217D01*
X85809627Y-95520000D01*
X85898498Y-95966783D01*
X85923341Y-96003963D01*
X81559034Y-100368270D01*
X80293326Y-100368270D01*
X86741797Y-93919800D01*
X88892300Y-93919800D01*
X89052683Y-93887898D01*
X89188648Y-93797048D01*
X89683948Y-93301748D01*
X89687167Y-93296931D01*
X89758483Y-93190200D01*
X90411150Y-93190200D01*
X90517900Y-93083450D01*
X90517900Y-92040200D01*
X90771900Y-92040200D01*
X90771900Y-93083450D01*
X90878650Y-93190200D01*
X91579836Y-93190200D01*
X91736776Y-93125193D01*
X91856893Y-93005076D01*
X91921900Y-92848135D01*
X91921900Y-92146950D01*
X91815150Y-92040200D01*
X90771900Y-92040200D01*
X90517900Y-92040200D01*
X90497900Y-92040200D01*
X90497900Y-91786200D01*
X90517900Y-91786200D01*
X90517900Y-90742950D01*
X90771900Y-90742950D01*
X90771900Y-91786200D01*
X91815150Y-91786200D01*
X91921900Y-91679450D01*
X91921900Y-90978265D01*
X91856893Y-90821324D01*
X91736776Y-90701207D01*
X91579836Y-90636200D01*
X90878650Y-90636200D01*
X90771900Y-90742950D01*
X90517900Y-90742950D01*
X90411150Y-90636200D01*
X89806700Y-90636200D01*
X89806700Y-89963750D01*
X89868000Y-89963750D01*
X89868000Y-90214935D01*
X89933007Y-90371876D01*
X90053124Y-90491993D01*
X90210064Y-90557000D01*
X90436250Y-90557000D01*
X90543000Y-90450250D01*
X90543000Y-89857000D01*
X90797000Y-89857000D01*
X90797000Y-90450250D01*
X90903750Y-90557000D01*
X91129936Y-90557000D01*
X91286876Y-90491993D01*
X91406993Y-90371876D01*
X91472000Y-90214935D01*
X91472000Y-89963750D01*
X91365250Y-89857000D01*
X90797000Y-89857000D01*
X90543000Y-89857000D01*
X89974750Y-89857000D01*
X89868000Y-89963750D01*
X89806700Y-89963750D01*
X89806700Y-89175800D01*
X89796363Y-89123830D01*
X89774799Y-89015418D01*
X89683949Y-88879452D01*
X89654912Y-88850415D01*
X89668215Y-88830945D01*
X89693720Y-88705000D01*
X89693720Y-88649100D01*
X89974874Y-88649100D01*
X89993419Y-88747658D01*
X90062955Y-88855721D01*
X90161557Y-88923092D01*
X90053124Y-88968007D01*
X89933007Y-89088124D01*
X89868000Y-89245065D01*
X89868000Y-89496250D01*
X89974750Y-89603000D01*
X90543000Y-89603000D01*
X90543000Y-89583000D01*
X90797000Y-89583000D01*
X90797000Y-89603000D01*
X91365250Y-89603000D01*
X91472000Y-89496250D01*
X91472000Y-89245065D01*
X91406993Y-89088124D01*
X91286876Y-88968007D01*
X91176865Y-88922439D01*
X91270721Y-88862045D01*
X91343215Y-88755945D01*
X91368720Y-88630000D01*
X91368720Y-87830000D01*
X91346581Y-87712342D01*
X91277045Y-87604279D01*
X91170945Y-87531785D01*
X91045000Y-87506280D01*
X90295000Y-87506280D01*
X90177342Y-87528419D01*
X90069279Y-87597955D01*
X89996785Y-87704055D01*
X89975148Y-87810900D01*
X89693720Y-87810900D01*
X89693720Y-87805000D01*
X89671581Y-87687342D01*
X89602045Y-87579279D01*
X89495945Y-87506785D01*
X89370000Y-87481280D01*
X88870000Y-87481280D01*
X88752342Y-87503419D01*
X88644279Y-87572955D01*
X88571785Y-87679055D01*
X88546280Y-87805000D01*
X88546280Y-88705000D01*
X88568419Y-88822658D01*
X88637955Y-88930721D01*
X88715985Y-88984036D01*
X88732802Y-89068583D01*
X88788638Y-89152146D01*
X88823652Y-89204548D01*
X88968500Y-89349397D01*
X88968500Y-91099063D01*
X88939427Y-91055552D01*
X88556543Y-90799716D01*
X88512200Y-90790896D01*
X88512200Y-90225000D01*
X88477398Y-90050037D01*
X88378289Y-89901711D01*
X88077200Y-89600622D01*
X88077200Y-88964054D01*
X88104749Y-88946327D01*
X88180144Y-88835983D01*
X88206669Y-88705000D01*
X88206669Y-87805000D01*
X88183644Y-87682635D01*
X88111327Y-87570251D01*
X88000983Y-87494856D01*
X87870000Y-87468331D01*
X87370000Y-87468331D01*
X87247635Y-87491356D01*
X87135251Y-87563673D01*
X87059856Y-87674017D01*
X87033331Y-87805000D01*
X87033331Y-88705000D01*
X87056356Y-88827365D01*
X87128673Y-88939749D01*
X87162800Y-88963067D01*
X87162800Y-89790000D01*
X87197602Y-89964963D01*
X87296711Y-90113289D01*
X87597800Y-90414378D01*
X87597800Y-90836771D01*
X87270373Y-91055552D01*
X87014537Y-91438436D01*
X86924700Y-91890079D01*
X86924700Y-91936321D01*
X87014537Y-92387964D01*
X87270373Y-92770848D01*
X87653257Y-93026684D01*
X87929340Y-93081600D01*
X86568200Y-93081600D01*
X86425423Y-93110000D01*
X86407817Y-93113502D01*
X86271851Y-93204352D01*
X79700035Y-99776169D01*
X59125386Y-99776169D01*
X59003843Y-99654414D01*
X58776967Y-99560207D01*
X58531310Y-99559993D01*
X58304271Y-99653803D01*
X58130414Y-99827357D01*
X58036207Y-100054233D01*
X58036132Y-100140835D01*
X55384700Y-97489404D01*
X55384700Y-94561350D01*
X61801300Y-94561350D01*
X61801300Y-94812535D01*
X61866307Y-94969476D01*
X61986424Y-95089593D01*
X62143364Y-95154600D01*
X62369550Y-95154600D01*
X62476300Y-95047850D01*
X62476300Y-94454600D01*
X62730300Y-94454600D01*
X62730300Y-95047850D01*
X62837050Y-95154600D01*
X63063236Y-95154600D01*
X63220176Y-95089593D01*
X63340293Y-94969476D01*
X63405300Y-94812535D01*
X63405300Y-94561350D01*
X63298550Y-94454600D01*
X62730300Y-94454600D01*
X62476300Y-94454600D01*
X61908050Y-94454600D01*
X61801300Y-94561350D01*
X55384700Y-94561350D01*
X55384700Y-94380850D01*
X63758300Y-94380850D01*
X63758300Y-94484035D01*
X63823307Y-94640976D01*
X63943424Y-94761093D01*
X64100364Y-94826100D01*
X64401550Y-94826100D01*
X64508300Y-94719350D01*
X64508300Y-94274100D01*
X64762300Y-94274100D01*
X64762300Y-94719350D01*
X64869050Y-94826100D01*
X65170236Y-94826100D01*
X65327176Y-94761093D01*
X65447293Y-94640976D01*
X65512300Y-94484035D01*
X65512300Y-94443750D01*
X66000000Y-94443750D01*
X66000000Y-94694935D01*
X66065007Y-94851876D01*
X66185124Y-94971993D01*
X66342064Y-95037000D01*
X66568250Y-95037000D01*
X66675000Y-94930250D01*
X66675000Y-94337000D01*
X66929000Y-94337000D01*
X66929000Y-94930250D01*
X67035750Y-95037000D01*
X67261936Y-95037000D01*
X67418876Y-94971993D01*
X67538993Y-94851876D01*
X67604000Y-94694935D01*
X67604000Y-94443750D01*
X67497250Y-94337000D01*
X66929000Y-94337000D01*
X66675000Y-94337000D01*
X66106750Y-94337000D01*
X66000000Y-94443750D01*
X65512300Y-94443750D01*
X65512300Y-94380850D01*
X65405550Y-94274100D01*
X64762300Y-94274100D01*
X64508300Y-94274100D01*
X63865050Y-94274100D01*
X63758300Y-94380850D01*
X55384700Y-94380850D01*
X55384700Y-89313869D01*
X55392424Y-89321593D01*
X55549365Y-89386600D01*
X55652550Y-89386600D01*
X55759300Y-89279850D01*
X55759300Y-88636600D01*
X56009300Y-88636600D01*
X56009300Y-89279850D01*
X56116050Y-89386600D01*
X56219235Y-89386600D01*
X56376176Y-89321593D01*
X56496293Y-89201476D01*
X56561300Y-89044536D01*
X56561300Y-88743350D01*
X56454550Y-88636600D01*
X56009300Y-88636600D01*
X55759300Y-88636600D01*
X55737300Y-88636600D01*
X55737300Y-88382600D01*
X55759300Y-88382600D01*
X55759300Y-87739350D01*
X55703800Y-87683850D01*
X55747300Y-87640350D01*
X55747300Y-86997100D01*
X55997300Y-86997100D01*
X55997300Y-87640350D01*
X56052800Y-87695850D01*
X56009300Y-87739350D01*
X56009300Y-88382600D01*
X56454550Y-88382600D01*
X56561300Y-88275850D01*
X56561300Y-87974664D01*
X56496293Y-87817724D01*
X56376176Y-87697607D01*
X56351449Y-87687365D01*
X56364176Y-87682093D01*
X56484293Y-87561976D01*
X56549300Y-87405036D01*
X56549300Y-87103850D01*
X56442550Y-86997100D01*
X55997300Y-86997100D01*
X55747300Y-86997100D01*
X55725300Y-86997100D01*
X55725300Y-86743100D01*
X55747300Y-86743100D01*
X55747300Y-86723100D01*
X55997300Y-86723100D01*
X55997300Y-86743100D01*
X56442550Y-86743100D01*
X56549300Y-86636350D01*
X56549300Y-86502700D01*
X56798580Y-86502700D01*
X56798580Y-87320100D01*
X56820719Y-87437758D01*
X56890255Y-87545821D01*
X56996355Y-87618315D01*
X57122300Y-87643820D01*
X57457383Y-87643820D01*
X57365324Y-87735880D01*
X57134300Y-87735880D01*
X57016642Y-87758019D01*
X56908579Y-87827555D01*
X56836085Y-87933655D01*
X56810580Y-88059600D01*
X56810580Y-88959600D01*
X56832719Y-89077258D01*
X56902255Y-89185321D01*
X56977200Y-89236528D01*
X56977200Y-89642952D01*
X56873114Y-89746857D01*
X56778907Y-89973733D01*
X56778693Y-90219390D01*
X56872503Y-90446429D01*
X57046057Y-90620286D01*
X57272933Y-90714493D01*
X57518590Y-90714707D01*
X57745629Y-90620897D01*
X57919486Y-90447343D01*
X58013693Y-90220467D01*
X58013907Y-89974810D01*
X57920097Y-89747771D01*
X57815400Y-89642891D01*
X57815400Y-89220358D01*
X57860021Y-89191645D01*
X57932515Y-89085545D01*
X57958020Y-88959600D01*
X57958020Y-88328576D01*
X58183897Y-88102700D01*
X58909022Y-88102700D01*
X58937003Y-88243370D01*
X58963884Y-88283600D01*
X58937003Y-88323830D01*
X58905223Y-88483600D01*
X58937003Y-88643370D01*
X58963884Y-88683600D01*
X58937003Y-88723830D01*
X58905223Y-88883600D01*
X58937003Y-89043370D01*
X58963884Y-89083600D01*
X58937003Y-89123830D01*
X58905223Y-89283600D01*
X58937003Y-89443370D01*
X58963884Y-89483600D01*
X58937003Y-89523830D01*
X58905223Y-89683600D01*
X58937003Y-89843370D01*
X58963884Y-89883600D01*
X58937003Y-89923830D01*
X58905223Y-90083600D01*
X58937003Y-90243370D01*
X59027506Y-90378817D01*
X59162953Y-90469320D01*
X59322723Y-90501100D01*
X59848877Y-90501100D01*
X59873123Y-90496277D01*
X59868300Y-90520523D01*
X59868300Y-91046677D01*
X59900080Y-91206447D01*
X59990583Y-91341894D01*
X60028306Y-91367100D01*
X59882425Y-91367100D01*
X59765843Y-91250314D01*
X59538967Y-91156107D01*
X59293310Y-91155893D01*
X59066271Y-91249703D01*
X58892414Y-91423257D01*
X58798207Y-91650133D01*
X58797993Y-91895790D01*
X58891803Y-92122829D01*
X59065357Y-92296686D01*
X59292233Y-92390893D01*
X59537890Y-92391107D01*
X59764929Y-92297297D01*
X59857087Y-92205300D01*
X61995921Y-92205300D01*
X61930085Y-92301655D01*
X61908448Y-92408500D01*
X60861787Y-92408500D01*
X60780243Y-92326814D01*
X60553367Y-92232607D01*
X60307710Y-92232393D01*
X60080671Y-92326203D01*
X59906814Y-92499757D01*
X59812607Y-92726633D01*
X59812393Y-92972290D01*
X59906203Y-93199329D01*
X60079757Y-93373186D01*
X60306633Y-93467393D01*
X60552290Y-93467607D01*
X60779329Y-93373797D01*
X60906648Y-93246700D01*
X61908174Y-93246700D01*
X61926719Y-93345258D01*
X61996255Y-93453321D01*
X62094857Y-93520692D01*
X61986424Y-93565607D01*
X61866307Y-93685724D01*
X61801300Y-93842665D01*
X61801300Y-94093850D01*
X61908050Y-94200600D01*
X62476300Y-94200600D01*
X62476300Y-94180600D01*
X62730300Y-94180600D01*
X62730300Y-94200600D01*
X63298550Y-94200600D01*
X63405300Y-94093850D01*
X63405300Y-93842665D01*
X63393495Y-93814165D01*
X63758300Y-93814165D01*
X63758300Y-93917350D01*
X63865050Y-94024100D01*
X64508300Y-94024100D01*
X64508300Y-93578850D01*
X64762300Y-93578850D01*
X64762300Y-94024100D01*
X65405550Y-94024100D01*
X65512300Y-93917350D01*
X65512300Y-93814165D01*
X65447293Y-93657224D01*
X65327176Y-93537107D01*
X65170236Y-93472100D01*
X64869050Y-93472100D01*
X64762300Y-93578850D01*
X64508300Y-93578850D01*
X64401550Y-93472100D01*
X64100364Y-93472100D01*
X63943424Y-93537107D01*
X63823307Y-93657224D01*
X63758300Y-93814165D01*
X63393495Y-93814165D01*
X63340293Y-93685724D01*
X63220176Y-93565607D01*
X63110165Y-93520039D01*
X63204021Y-93459645D01*
X63276515Y-93353545D01*
X63284290Y-93315154D01*
X63375903Y-93296931D01*
X63540710Y-93186810D01*
X63845010Y-92882510D01*
X63861580Y-92857712D01*
X63861580Y-92899100D01*
X63883719Y-93016758D01*
X63953255Y-93124821D01*
X64059355Y-93197315D01*
X64185300Y-93222820D01*
X65085300Y-93222820D01*
X65202958Y-93200681D01*
X65311021Y-93131145D01*
X65320315Y-93117543D01*
X65435757Y-93233186D01*
X65662633Y-93327393D01*
X65908290Y-93327607D01*
X66130621Y-93235742D01*
X66194955Y-93335721D01*
X66293557Y-93403092D01*
X66185124Y-93448007D01*
X66065007Y-93568124D01*
X66000000Y-93725065D01*
X66000000Y-93976250D01*
X66106750Y-94083000D01*
X66675000Y-94083000D01*
X66675000Y-94063000D01*
X66929000Y-94063000D01*
X66929000Y-94083000D01*
X67497250Y-94083000D01*
X67604000Y-93976250D01*
X67604000Y-93725065D01*
X67538993Y-93568124D01*
X67418876Y-93448007D01*
X67308865Y-93402439D01*
X67402721Y-93342045D01*
X67475215Y-93235945D01*
X67500720Y-93110000D01*
X67500720Y-92310000D01*
X67478581Y-92192342D01*
X67409045Y-92084279D01*
X67302945Y-92011785D01*
X67216942Y-91994369D01*
X67189198Y-91854890D01*
X67158336Y-91808702D01*
X67098348Y-91718924D01*
X66789774Y-91410350D01*
X68976800Y-91410350D01*
X68976800Y-91661535D01*
X69041807Y-91818476D01*
X69161924Y-91938593D01*
X69318864Y-92003600D01*
X69545050Y-92003600D01*
X69651800Y-91896850D01*
X69651800Y-91303600D01*
X69905800Y-91303600D01*
X69905800Y-91896850D01*
X70012550Y-92003600D01*
X70238736Y-92003600D01*
X70395676Y-91938593D01*
X70515793Y-91818476D01*
X70580800Y-91661535D01*
X70580800Y-91410350D01*
X70474050Y-91303600D01*
X69905800Y-91303600D01*
X69651800Y-91303600D01*
X69083550Y-91303600D01*
X68976800Y-91410350D01*
X66789774Y-91410350D01*
X65832683Y-90453260D01*
X65944094Y-90378817D01*
X66034597Y-90243370D01*
X66062578Y-90102700D01*
X69084991Y-90102700D01*
X69102219Y-90194258D01*
X69171755Y-90302321D01*
X69270357Y-90369692D01*
X69161924Y-90414607D01*
X69041807Y-90534724D01*
X68976800Y-90691665D01*
X68976800Y-90942850D01*
X69083550Y-91049600D01*
X69651800Y-91049600D01*
X69651800Y-91029600D01*
X69905800Y-91029600D01*
X69905800Y-91049600D01*
X70474050Y-91049600D01*
X70580800Y-90942850D01*
X70580800Y-90691665D01*
X70515793Y-90534724D01*
X70395676Y-90414607D01*
X70285665Y-90369039D01*
X70379521Y-90308645D01*
X70452015Y-90202545D01*
X70473652Y-90095700D01*
X70792493Y-90095700D01*
X70919757Y-90223186D01*
X71146633Y-90317393D01*
X71392290Y-90317607D01*
X71619329Y-90223797D01*
X71793186Y-90050243D01*
X71887393Y-89823367D01*
X71887607Y-89577710D01*
X71793797Y-89350671D01*
X71724247Y-89281000D01*
X79629000Y-89281000D01*
X79678410Y-89270994D01*
X79720035Y-89242553D01*
X79747315Y-89200159D01*
X79756000Y-89154000D01*
X79756000Y-74331978D01*
X79839111Y-74415089D01*
X79987437Y-74514198D01*
X80162400Y-74549000D01*
X82067400Y-74549000D01*
X82242363Y-74514198D01*
X82390689Y-74415089D01*
X82905145Y-73900633D01*
X83004055Y-73968215D01*
X83130000Y-73993720D01*
X84830000Y-73993720D01*
X84947658Y-73971581D01*
X85055721Y-73902045D01*
X85128215Y-73795945D01*
X85153720Y-73670000D01*
X85153720Y-71970000D01*
X85131581Y-71852342D01*
X85062045Y-71744279D01*
X84955945Y-71671785D01*
X84830000Y-71646280D01*
X83229098Y-71646280D01*
X83274996Y-71600382D01*
X85243331Y-71585470D01*
X85243331Y-74300000D01*
X85266356Y-74422365D01*
X85338673Y-74534749D01*
X85449017Y-74610144D01*
X85580000Y-74636669D01*
X86662885Y-74636669D01*
X92003800Y-79977584D01*
X92003800Y-104939496D01*
X91763996Y-105179300D01*
X91200665Y-105179300D01*
X91200660Y-105179299D01*
X91200655Y-105179300D01*
X91093629Y-105179300D01*
X91056283Y-105088915D01*
X90752683Y-104784785D01*
X90355808Y-104619988D01*
X89926078Y-104619613D01*
X89528915Y-104783717D01*
X89224785Y-105087317D01*
X89059988Y-105484192D01*
X89059613Y-105913922D01*
X89223717Y-106311085D01*
X89527317Y-106615215D01*
X89924192Y-106780012D01*
X90163076Y-106780220D01*
X88186669Y-108756627D01*
X88186669Y-107370000D01*
X88163644Y-107247635D01*
X88091327Y-107135251D01*
X87980983Y-107059856D01*
X87850000Y-107033331D01*
X86150000Y-107033331D01*
X86027635Y-107056356D01*
X85915251Y-107128673D01*
X85839856Y-107239017D01*
X85813331Y-107370000D01*
X85813331Y-109070000D01*
X85836356Y-109192365D01*
X85908673Y-109304749D01*
X86019017Y-109380144D01*
X86150000Y-109406669D01*
X87536627Y-109406669D01*
X87157496Y-109785800D01*
X84997240Y-109785800D01*
X84814527Y-109512352D01*
X84431643Y-109256516D01*
X83980000Y-109166679D01*
X83528357Y-109256516D01*
X83145473Y-109512352D01*
X82962760Y-109785800D01*
X82457240Y-109785800D01*
X82274527Y-109512352D01*
X81891643Y-109256516D01*
X81440000Y-109166679D01*
X80988357Y-109256516D01*
X80605473Y-109512352D01*
X80349637Y-109895236D01*
X80259800Y-110346879D01*
X80259800Y-110393121D01*
X80349637Y-110844764D01*
X80605473Y-111227648D01*
X80988357Y-111483484D01*
X81061334Y-111498000D01*
X79482939Y-111498000D01*
X79544142Y-111472651D01*
X79917076Y-111142214D01*
X80135169Y-110694215D01*
X80063930Y-110497000D01*
X79027000Y-110497000D01*
X79027000Y-110517000D01*
X78773000Y-110517000D01*
X78773000Y-110497000D01*
X77736070Y-110497000D01*
X77664831Y-110694215D01*
X77882924Y-111142214D01*
X78255858Y-111472651D01*
X78317061Y-111498000D01*
X76738666Y-111498000D01*
X76811643Y-111483484D01*
X77194527Y-111227648D01*
X77450363Y-110844764D01*
X77540200Y-110393121D01*
X77540200Y-110346879D01*
X77480309Y-110045785D01*
X77664831Y-110045785D01*
X77736070Y-110243000D01*
X78773000Y-110243000D01*
X78773000Y-109206662D01*
X79027000Y-109206662D01*
X79027000Y-110243000D01*
X80063930Y-110243000D01*
X80135169Y-110045785D01*
X79917076Y-109597786D01*
X79544142Y-109267349D01*
X79224213Y-109134842D01*
X79027000Y-109206662D01*
X78773000Y-109206662D01*
X78575787Y-109134842D01*
X78255858Y-109267349D01*
X77882924Y-109597786D01*
X77664831Y-110045785D01*
X77480309Y-110045785D01*
X77450363Y-109895236D01*
X77194527Y-109512352D01*
X76811643Y-109256516D01*
X76360000Y-109166679D01*
X75908357Y-109256516D01*
X75525473Y-109512352D01*
X75269637Y-109895236D01*
X75179800Y-110346879D01*
X75179800Y-110393121D01*
X75269637Y-110844764D01*
X75525473Y-111227648D01*
X75908357Y-111483484D01*
X75981334Y-111498000D01*
X74198666Y-111498000D01*
X74271643Y-111483484D01*
X74654527Y-111227648D01*
X74910363Y-110844764D01*
X75000200Y-110393121D01*
X75000200Y-110346879D01*
X74910363Y-109895236D01*
X74654527Y-109512352D01*
X74271643Y-109256516D01*
X73820000Y-109166679D01*
X73368357Y-109256516D01*
X72985473Y-109512352D01*
X72729637Y-109895236D01*
X72639800Y-110346879D01*
X72639800Y-110393121D01*
X72729637Y-110844764D01*
X72985473Y-111227648D01*
X73368357Y-111483484D01*
X73441334Y-111498000D01*
X71658666Y-111498000D01*
X71731643Y-111483484D01*
X72114527Y-111227648D01*
X72370363Y-110844764D01*
X72460200Y-110393121D01*
X72460200Y-110346879D01*
X72370363Y-109895236D01*
X72114527Y-109512352D01*
X71731643Y-109256516D01*
X71280000Y-109166679D01*
X70828357Y-109256516D01*
X70819208Y-109262630D01*
X70323289Y-108766711D01*
X70174963Y-108667602D01*
X70000000Y-108632800D01*
X69611175Y-108632800D01*
X69830363Y-108304764D01*
X69920200Y-107853121D01*
X69920200Y-107806879D01*
X70099800Y-107806879D01*
X70099800Y-107853121D01*
X70189637Y-108304764D01*
X70445473Y-108687648D01*
X70828357Y-108943484D01*
X71280000Y-109033321D01*
X71731643Y-108943484D01*
X72114527Y-108687648D01*
X72370363Y-108304764D01*
X72400308Y-108154215D01*
X72584831Y-108154215D01*
X72802924Y-108602214D01*
X73175858Y-108932651D01*
X73495787Y-109065158D01*
X73693000Y-108993338D01*
X73693000Y-107957000D01*
X73947000Y-107957000D01*
X73947000Y-108993338D01*
X74144213Y-109065158D01*
X74464142Y-108932651D01*
X74837076Y-108602214D01*
X75055169Y-108154215D01*
X74983930Y-107957000D01*
X73947000Y-107957000D01*
X73693000Y-107957000D01*
X72656070Y-107957000D01*
X72584831Y-108154215D01*
X72400308Y-108154215D01*
X72460200Y-107853121D01*
X72460200Y-107807127D01*
X75192500Y-107807127D01*
X75192500Y-107852873D01*
X75281371Y-108299656D01*
X75534453Y-108678420D01*
X75913217Y-108931502D01*
X76360000Y-109020373D01*
X76806783Y-108931502D01*
X77185547Y-108678420D01*
X77438629Y-108299656D01*
X77527500Y-107852873D01*
X77527500Y-107807127D01*
X77732500Y-107807127D01*
X77732500Y-107852873D01*
X77821371Y-108299656D01*
X78074453Y-108678420D01*
X78453217Y-108931502D01*
X78900000Y-109020373D01*
X79346783Y-108931502D01*
X79725547Y-108678420D01*
X79978629Y-108299656D01*
X80067500Y-107852873D01*
X80067500Y-107807127D01*
X80272500Y-107807127D01*
X80272500Y-107852873D01*
X80361371Y-108299656D01*
X80614453Y-108678420D01*
X80993217Y-108931502D01*
X81440000Y-109020373D01*
X81886783Y-108931502D01*
X82265547Y-108678420D01*
X82518629Y-108299656D01*
X82607500Y-107852873D01*
X82607500Y-107807127D01*
X82518629Y-107360344D01*
X82265547Y-106981580D01*
X82263183Y-106980000D01*
X82806280Y-106980000D01*
X82806280Y-108680000D01*
X82828419Y-108797658D01*
X82897955Y-108905721D01*
X83004055Y-108978215D01*
X83130000Y-109003720D01*
X84830000Y-109003720D01*
X84947658Y-108981581D01*
X85055721Y-108912045D01*
X85128215Y-108805945D01*
X85153720Y-108680000D01*
X85153720Y-106980000D01*
X85131581Y-106862342D01*
X85062045Y-106754279D01*
X84955945Y-106681785D01*
X84830000Y-106656280D01*
X83130000Y-106656280D01*
X83012342Y-106678419D01*
X82904279Y-106747955D01*
X82831785Y-106854055D01*
X82806280Y-106980000D01*
X82263183Y-106980000D01*
X81886783Y-106728498D01*
X81440000Y-106639627D01*
X80993217Y-106728498D01*
X80614453Y-106981580D01*
X80361371Y-107360344D01*
X80272500Y-107807127D01*
X80067500Y-107807127D01*
X79978629Y-107360344D01*
X79725547Y-106981580D01*
X79346783Y-106728498D01*
X78900000Y-106639627D01*
X78453217Y-106728498D01*
X78074453Y-106981580D01*
X77821371Y-107360344D01*
X77732500Y-107807127D01*
X77527500Y-107807127D01*
X77438629Y-107360344D01*
X77185547Y-106981580D01*
X76806783Y-106728498D01*
X76360000Y-106639627D01*
X75913217Y-106728498D01*
X75534453Y-106981580D01*
X75281371Y-107360344D01*
X75192500Y-107807127D01*
X72460200Y-107807127D01*
X72460200Y-107806879D01*
X72400309Y-107505785D01*
X72584831Y-107505785D01*
X72656070Y-107703000D01*
X73693000Y-107703000D01*
X73693000Y-106666662D01*
X73947000Y-106666662D01*
X73947000Y-107703000D01*
X74983930Y-107703000D01*
X75055169Y-107505785D01*
X74837076Y-107057786D01*
X74464142Y-106727349D01*
X74144213Y-106594842D01*
X73947000Y-106666662D01*
X73693000Y-106666662D01*
X73495787Y-106594842D01*
X73175858Y-106727349D01*
X72802924Y-107057786D01*
X72584831Y-107505785D01*
X72400309Y-107505785D01*
X72370363Y-107355236D01*
X72114527Y-106972352D01*
X71731643Y-106716516D01*
X71280000Y-106626679D01*
X70828357Y-106716516D01*
X70445473Y-106972352D01*
X70189637Y-107355236D01*
X70099800Y-107806879D01*
X69920200Y-107806879D01*
X69830363Y-107355236D01*
X69574527Y-106972352D01*
X69191643Y-106716516D01*
X68740000Y-106626679D01*
X68288357Y-106716516D01*
X67905473Y-106972352D01*
X67649637Y-107355236D01*
X67559800Y-107806879D01*
X67559800Y-107853121D01*
X67649637Y-108304764D01*
X67868825Y-108632800D01*
X67056029Y-108632800D01*
X67278629Y-108299656D01*
X67367500Y-107852873D01*
X67367500Y-107807127D01*
X67278629Y-107360344D01*
X67025547Y-106981580D01*
X66646783Y-106728498D01*
X66200000Y-106639627D01*
X65753217Y-106728498D01*
X65374453Y-106981580D01*
X65121371Y-107360344D01*
X65032500Y-107807127D01*
X65032500Y-107852873D01*
X65121371Y-108299656D01*
X65343971Y-108632800D01*
X64531175Y-108632800D01*
X64750363Y-108304764D01*
X64840200Y-107853121D01*
X64840200Y-107806879D01*
X64785301Y-107530883D01*
X66636184Y-105680000D01*
X85796679Y-105680000D01*
X85886516Y-106131643D01*
X86142352Y-106514527D01*
X86525236Y-106770363D01*
X86976879Y-106860200D01*
X87023121Y-106860200D01*
X87474764Y-106770363D01*
X87857648Y-106514527D01*
X88113484Y-106131643D01*
X88203321Y-105680000D01*
X88113484Y-105228357D01*
X87857648Y-104845473D01*
X87474764Y-104589637D01*
X87023121Y-104499800D01*
X86976879Y-104499800D01*
X86525236Y-104589637D01*
X86142352Y-104845473D01*
X85886516Y-105228357D01*
X85796679Y-105680000D01*
X66636184Y-105680000D01*
X68851971Y-103464213D01*
X85764842Y-103464213D01*
X85897349Y-103784142D01*
X86227786Y-104157076D01*
X86675785Y-104375169D01*
X86873000Y-104303930D01*
X86873000Y-103267000D01*
X87127000Y-103267000D01*
X87127000Y-104303930D01*
X87324215Y-104375169D01*
X87772214Y-104157076D01*
X87895747Y-104017655D01*
X89441950Y-104017655D01*
X89521329Y-104200065D01*
X89964916Y-104349996D01*
X90432113Y-104318761D01*
X90718671Y-104200065D01*
X90798050Y-104017655D01*
X90120000Y-103339605D01*
X89441950Y-104017655D01*
X87895747Y-104017655D01*
X88102651Y-103784142D01*
X88235158Y-103464213D01*
X88163338Y-103267000D01*
X87127000Y-103267000D01*
X86873000Y-103267000D01*
X85836662Y-103267000D01*
X85764842Y-103464213D01*
X68851971Y-103464213D01*
X69138084Y-103178100D01*
X85006100Y-103178100D01*
X85229664Y-103133630D01*
X85419192Y-103006992D01*
X85874034Y-102552149D01*
X85764842Y-102815787D01*
X85836662Y-103013000D01*
X86873000Y-103013000D01*
X86873000Y-101976070D01*
X87127000Y-101976070D01*
X87127000Y-103013000D01*
X88163338Y-103013000D01*
X88166281Y-103004916D01*
X88930004Y-103004916D01*
X88961239Y-103472113D01*
X89079935Y-103758671D01*
X89262345Y-103838050D01*
X89940395Y-103160000D01*
X90299605Y-103160000D01*
X90977655Y-103838050D01*
X91160065Y-103758671D01*
X91309996Y-103315084D01*
X91278761Y-102847887D01*
X91160065Y-102561329D01*
X90977655Y-102481950D01*
X90299605Y-103160000D01*
X89940395Y-103160000D01*
X89262345Y-102481950D01*
X89079935Y-102561329D01*
X88930004Y-103004916D01*
X88166281Y-103004916D01*
X88235158Y-102815787D01*
X88102651Y-102495858D01*
X87931190Y-102302345D01*
X89441950Y-102302345D01*
X90120000Y-102980395D01*
X90798050Y-102302345D01*
X90718671Y-102119935D01*
X90275084Y-101970004D01*
X89807887Y-102001239D01*
X89521329Y-102119935D01*
X89441950Y-102302345D01*
X87931190Y-102302345D01*
X87772214Y-102122924D01*
X87324215Y-101904831D01*
X87127000Y-101976070D01*
X86873000Y-101976070D01*
X86675785Y-101904831D01*
X86374855Y-102051328D01*
X86700882Y-101725301D01*
X86976879Y-101780200D01*
X87023121Y-101780200D01*
X87474764Y-101690363D01*
X87857648Y-101434527D01*
X88113484Y-101051643D01*
X88203321Y-100600000D01*
X88113484Y-100148357D01*
X87857648Y-99765473D01*
X87474764Y-99509637D01*
X87023121Y-99419800D01*
X86976879Y-99419800D01*
X86525236Y-99509637D01*
X86142352Y-99765473D01*
X85886516Y-100148357D01*
X85796679Y-100600000D01*
X85859250Y-100914567D01*
X84764116Y-102009700D01*
X68896105Y-102009700D01*
X68896100Y-102009699D01*
X68672537Y-102054169D01*
X68483008Y-102180808D01*
X63974566Y-106689250D01*
X63660000Y-106626679D01*
X63208357Y-106716516D01*
X62825473Y-106972352D01*
X62569637Y-107355236D01*
X62479800Y-107806879D01*
X62479800Y-107853121D01*
X62569637Y-108304764D01*
X62788825Y-108632800D01*
X61976029Y-108632800D01*
X62198629Y-108299656D01*
X62287500Y-107852873D01*
X62287500Y-107807127D01*
X62198629Y-107360344D01*
X61945547Y-106981580D01*
X61566783Y-106728498D01*
X61120000Y-106639627D01*
X60673217Y-106728498D01*
X60294453Y-106981580D01*
X60041371Y-107360344D01*
X59952500Y-107807127D01*
X59952500Y-107852873D01*
X60041371Y-108299656D01*
X60263971Y-108632800D01*
X59436029Y-108632800D01*
X59658629Y-108299656D01*
X59747500Y-107852873D01*
X59747500Y-107807127D01*
X59658629Y-107360344D01*
X59405547Y-106981580D01*
X59026783Y-106728498D01*
X58580000Y-106639627D01*
X58133217Y-106728498D01*
X57754453Y-106981580D01*
X57501371Y-107360344D01*
X57412500Y-107807127D01*
X57412500Y-107852873D01*
X57501371Y-108299656D01*
X57723971Y-108632800D01*
X56896029Y-108632800D01*
X57118629Y-108299656D01*
X57207500Y-107852873D01*
X57207500Y-107807127D01*
X57118629Y-107360344D01*
X56865547Y-106981580D01*
X56486783Y-106728498D01*
X56040000Y-106639627D01*
X55593217Y-106728498D01*
X55214453Y-106981580D01*
X54961371Y-107360344D01*
X54872500Y-107807127D01*
X54872500Y-107852873D01*
X54961371Y-108299656D01*
X55183971Y-108632800D01*
X54491578Y-108632800D01*
X51852600Y-105993822D01*
X51852600Y-65849150D01*
X51941367Y-65982000D01*
X51959508Y-66009150D01*
X51998306Y-66047947D01*
X51998308Y-66047950D01*
X52019981Y-66069623D01*
X52068308Y-66141950D01*
X52154069Y-66199253D01*
X52993334Y-67038518D01*
X53039031Y-67149113D01*
X53216154Y-67326546D01*
X53447696Y-67422690D01*
X53698405Y-67422909D01*
X53930113Y-67327169D01*
X54107546Y-67150046D01*
X54203690Y-66918504D01*
X54203909Y-66667795D01*
X54108169Y-66436087D01*
X53931046Y-66258654D01*
X53819535Y-66212351D01*
X52956800Y-65349616D01*
X52956800Y-65120050D01*
X54754000Y-65120050D01*
X54754000Y-65223235D01*
X54819007Y-65380176D01*
X54939124Y-65500293D01*
X55096064Y-65565300D01*
X55397250Y-65565300D01*
X55504000Y-65458550D01*
X55504000Y-65013300D01*
X55758000Y-65013300D01*
X55758000Y-65458550D01*
X55864750Y-65565300D01*
X56165936Y-65565300D01*
X56322876Y-65500293D01*
X56434419Y-65388750D01*
X56645100Y-65388750D01*
X56645100Y-65639935D01*
X56710107Y-65796876D01*
X56830224Y-65916993D01*
X56987164Y-65982000D01*
X57213350Y-65982000D01*
X57320100Y-65875250D01*
X57320100Y-65282000D01*
X57574100Y-65282000D01*
X57574100Y-65875250D01*
X57680850Y-65982000D01*
X57907036Y-65982000D01*
X58063976Y-65916993D01*
X58184093Y-65796876D01*
X58249100Y-65639935D01*
X58249100Y-65388750D01*
X58142350Y-65282000D01*
X57574100Y-65282000D01*
X57320100Y-65282000D01*
X56751850Y-65282000D01*
X56645100Y-65388750D01*
X56434419Y-65388750D01*
X56442993Y-65380176D01*
X56508000Y-65223235D01*
X56508000Y-65120050D01*
X56401250Y-65013300D01*
X55758000Y-65013300D01*
X55504000Y-65013300D01*
X54860750Y-65013300D01*
X54754000Y-65120050D01*
X52956800Y-65120050D01*
X52956800Y-64553365D01*
X54754000Y-64553365D01*
X54754000Y-64656550D01*
X54860750Y-64763300D01*
X55504000Y-64763300D01*
X55504000Y-64318050D01*
X55758000Y-64318050D01*
X55758000Y-64763300D01*
X56401250Y-64763300D01*
X56508000Y-64656550D01*
X56508000Y-64553365D01*
X56442993Y-64396424D01*
X56322876Y-64276307D01*
X56165936Y-64211300D01*
X55864750Y-64211300D01*
X55758000Y-64318050D01*
X55504000Y-64318050D01*
X55397250Y-64211300D01*
X55096064Y-64211300D01*
X54939124Y-64276307D01*
X54819007Y-64396424D01*
X54754000Y-64553365D01*
X52956800Y-64553365D01*
X52956800Y-63936254D01*
X53007349Y-63903727D01*
X53071494Y-63809848D01*
X53110607Y-63904276D01*
X53230724Y-64024393D01*
X53387665Y-64089400D01*
X53638850Y-64089400D01*
X53745600Y-63982650D01*
X53745600Y-63414400D01*
X53999600Y-63414400D01*
X53999600Y-63982650D01*
X54106350Y-64089400D01*
X54357535Y-64089400D01*
X54514476Y-64024393D01*
X54634593Y-63904276D01*
X54699600Y-63747336D01*
X54699600Y-63521150D01*
X54592850Y-63414400D01*
X53999600Y-63414400D01*
X53745600Y-63414400D01*
X53725600Y-63414400D01*
X53725600Y-63160400D01*
X53745600Y-63160400D01*
X53745600Y-62592150D01*
X53999600Y-62592150D01*
X53999600Y-63160400D01*
X54592850Y-63160400D01*
X54699600Y-63053650D01*
X54699600Y-62827464D01*
X54634593Y-62670524D01*
X54514476Y-62550407D01*
X54357535Y-62485400D01*
X54106350Y-62485400D01*
X53999600Y-62592150D01*
X53745600Y-62592150D01*
X53638850Y-62485400D01*
X53387665Y-62485400D01*
X53230724Y-62550407D01*
X53110607Y-62670524D01*
X53070949Y-62766266D01*
X53033000Y-62707291D01*
X53033000Y-61819192D01*
X53035469Y-61807000D01*
X53035469Y-60907000D01*
X53362131Y-60907000D01*
X53362131Y-61807000D01*
X53385156Y-61929365D01*
X53457473Y-62041749D01*
X53567817Y-62117144D01*
X53698800Y-62143669D01*
X54198800Y-62143669D01*
X54321165Y-62120644D01*
X54433549Y-62048327D01*
X54508944Y-61937983D01*
X54513436Y-61915800D01*
X54947163Y-61915800D01*
X54994403Y-61948078D01*
X55046800Y-61958689D01*
X55046800Y-62832272D01*
X54946251Y-62896973D01*
X54870856Y-63007317D01*
X54844331Y-63138300D01*
X54844331Y-63638300D01*
X54867356Y-63760665D01*
X54939673Y-63873049D01*
X55050017Y-63948444D01*
X55181000Y-63974969D01*
X56081000Y-63974969D01*
X56203365Y-63951944D01*
X56315749Y-63879627D01*
X56391144Y-63769283D01*
X56417669Y-63638300D01*
X56417669Y-63138300D01*
X56394644Y-63015935D01*
X56322327Y-62903551D01*
X56215200Y-62830354D01*
X56215200Y-61968993D01*
X56307751Y-61951578D01*
X56420135Y-61879261D01*
X56495530Y-61768917D01*
X56522055Y-61637934D01*
X56522055Y-60987934D01*
X56516861Y-60960328D01*
X56547379Y-60929810D01*
X56612386Y-60772870D01*
X56612386Y-60596684D01*
X56505636Y-60489934D01*
X55782386Y-60489934D01*
X55782386Y-60509934D01*
X55528386Y-60509934D01*
X55528386Y-60489934D01*
X54805136Y-60489934D01*
X54698386Y-60596684D01*
X54698386Y-60747400D01*
X54488484Y-60747400D01*
X54440127Y-60672251D01*
X54329783Y-60596856D01*
X54198800Y-60570331D01*
X53698800Y-60570331D01*
X53576435Y-60593356D01*
X53464051Y-60665673D01*
X53388656Y-60776017D01*
X53362131Y-60907000D01*
X53035469Y-60907000D01*
X53033000Y-60893879D01*
X53033000Y-59890684D01*
X53130515Y-59793169D01*
X53691000Y-59793169D01*
X53813365Y-59770144D01*
X53925749Y-59697827D01*
X54001144Y-59587483D01*
X54027669Y-59456500D01*
X54027669Y-58556500D01*
X54004644Y-58434135D01*
X53932327Y-58321751D01*
X53821983Y-58246356D01*
X53691000Y-58219831D01*
X52491000Y-58219831D01*
X52368635Y-58242856D01*
X52256251Y-58315173D01*
X52180856Y-58425517D01*
X52154331Y-58556500D01*
X52154331Y-59116985D01*
X52035708Y-59235608D01*
X51909070Y-59425136D01*
X51864600Y-59648700D01*
X51864600Y-60894808D01*
X51862131Y-60907000D01*
X51862131Y-61807000D01*
X51864600Y-61820121D01*
X51864600Y-62596053D01*
X51852600Y-62598311D01*
X51852600Y-55256500D01*
X52154331Y-55256500D01*
X52154331Y-56156500D01*
X52177356Y-56278865D01*
X52249673Y-56391249D01*
X52360017Y-56466644D01*
X52491000Y-56493169D01*
X53691000Y-56493169D01*
X53813365Y-56470144D01*
X53925749Y-56397827D01*
X53998946Y-56290700D01*
X55071186Y-56290700D01*
X55071186Y-58761464D01*
X55003021Y-58774290D01*
X54890637Y-58846607D01*
X54815242Y-58956951D01*
X54788717Y-59087934D01*
X54788717Y-59737934D01*
X54793911Y-59765540D01*
X54763393Y-59796058D01*
X54698386Y-59952998D01*
X54698386Y-60129184D01*
X54805136Y-60235934D01*
X55528386Y-60235934D01*
X55528386Y-60215934D01*
X55782386Y-60215934D01*
X55782386Y-60235934D01*
X56505636Y-60235934D01*
X56612386Y-60129184D01*
X56612386Y-59952998D01*
X56547379Y-59796058D01*
X56516531Y-59765210D01*
X56522055Y-59737934D01*
X56522055Y-59087934D01*
X56499030Y-58965569D01*
X56426713Y-58853185D01*
X56316369Y-58777790D01*
X56239586Y-58762241D01*
X56239586Y-57938969D01*
X57040900Y-57938969D01*
X57163265Y-57915944D01*
X57275649Y-57843627D01*
X57351044Y-57733283D01*
X57377569Y-57602300D01*
X57377569Y-53402300D01*
X57354544Y-53279935D01*
X57282227Y-53167551D01*
X57171883Y-53092156D01*
X57040900Y-53065631D01*
X55840900Y-53065631D01*
X55718535Y-53088656D01*
X55715782Y-53090427D01*
X55712567Y-53091050D01*
X55659688Y-53126523D01*
X55606151Y-53160973D01*
X55604304Y-53163676D01*
X55601584Y-53165501D01*
X55566669Y-53218757D01*
X55530756Y-53271317D01*
X55530106Y-53274526D01*
X55528311Y-53277264D01*
X55128311Y-54277264D01*
X55104231Y-54402300D01*
X55104231Y-55122300D01*
X53997028Y-55122300D01*
X53932327Y-55021751D01*
X53821983Y-54946356D01*
X53691000Y-54919831D01*
X52491000Y-54919831D01*
X52368635Y-54942856D01*
X52256251Y-55015173D01*
X52180856Y-55125517D01*
X52154331Y-55256500D01*
X51852600Y-55256500D01*
X51852600Y-54432578D01*
X51960389Y-54324789D01*
X52370100Y-54324789D01*
X52492465Y-54301764D01*
X52604849Y-54229447D01*
X52680244Y-54119103D01*
X52706769Y-53988120D01*
X52706769Y-53088120D01*
X53033431Y-53088120D01*
X53033431Y-53988120D01*
X53056456Y-54110485D01*
X53128773Y-54222869D01*
X53239117Y-54298264D01*
X53370100Y-54324789D01*
X53870100Y-54324789D01*
X53992465Y-54301764D01*
X54104849Y-54229447D01*
X54180244Y-54119103D01*
X54206769Y-53988120D01*
X54206769Y-53088120D01*
X54183744Y-52965755D01*
X54140800Y-52899018D01*
X54140800Y-52795522D01*
X54347821Y-52588500D01*
X54404543Y-52588500D01*
X54404856Y-52590165D01*
X54477173Y-52702549D01*
X54587517Y-52777944D01*
X54718500Y-52804469D01*
X55318500Y-52804469D01*
X55440865Y-52781444D01*
X55553249Y-52709127D01*
X55628644Y-52598783D01*
X55655169Y-52467800D01*
X55655169Y-51667800D01*
X55632144Y-51545435D01*
X55559827Y-51433051D01*
X55449483Y-51357656D01*
X55318500Y-51331131D01*
X54718500Y-51331131D01*
X54596135Y-51354156D01*
X54483751Y-51426473D01*
X54408356Y-51536817D01*
X54406274Y-51547100D01*
X54132145Y-51547100D01*
X54132140Y-51547099D01*
X53932877Y-51586736D01*
X53763949Y-51699609D01*
X53763947Y-51699612D01*
X53251909Y-52211649D01*
X53139036Y-52380577D01*
X53099399Y-52579840D01*
X53099400Y-52579845D01*
X53099400Y-52899409D01*
X53059956Y-52957137D01*
X53033431Y-53088120D01*
X52706769Y-53088120D01*
X52683744Y-52965755D01*
X52611427Y-52853371D01*
X52501083Y-52777976D01*
X52370100Y-52751451D01*
X51870100Y-52751451D01*
X51747735Y-52774476D01*
X51635351Y-52846793D01*
X51559956Y-52957137D01*
X51533431Y-53088120D01*
X51533431Y-53458590D01*
X51102000Y-53890022D01*
X51102000Y-51302000D01*
X58076022Y-51302000D01*
X58038137Y-51309536D01*
X58038137Y-51309536D01*
G37*
X58038137Y-51309536D02*
X57869209Y-51422409D01*
X57744518Y-51547100D01*
X57332457Y-51547100D01*
X57332144Y-51545435D01*
X57259827Y-51433051D01*
X57149483Y-51357656D01*
X57018500Y-51331131D01*
X56418500Y-51331131D01*
X56296135Y-51354156D01*
X56183751Y-51426473D01*
X56108356Y-51536817D01*
X56081831Y-51667800D01*
X56081831Y-52467800D01*
X56104856Y-52590165D01*
X56177173Y-52702549D01*
X56287517Y-52777944D01*
X56418500Y-52804469D01*
X57018500Y-52804469D01*
X57140865Y-52781444D01*
X57253249Y-52709127D01*
X57328644Y-52598783D01*
X57330726Y-52588500D01*
X57960195Y-52588500D01*
X57960200Y-52588501D01*
X58159463Y-52548864D01*
X58328391Y-52435991D01*
X58453082Y-52311300D01*
X61314239Y-52311300D01*
X61070716Y-52675757D01*
X60980879Y-53127400D01*
X61070716Y-53579043D01*
X61326552Y-53961927D01*
X61709436Y-54217763D01*
X62161079Y-54307600D01*
X62207321Y-54307600D01*
X62658964Y-54217763D01*
X63041848Y-53961927D01*
X63297684Y-53579043D01*
X63387521Y-53127400D01*
X63297684Y-52675757D01*
X63054161Y-52311300D01*
X63425718Y-52311300D01*
X63682800Y-52568381D01*
X63682800Y-55211895D01*
X63682799Y-55211900D01*
X63722436Y-55411163D01*
X63835309Y-55580091D01*
X64575244Y-56320025D01*
X64496679Y-56715000D01*
X64586516Y-57166643D01*
X64842352Y-57549527D01*
X64871645Y-57569100D01*
X64557796Y-57569100D01*
X63588347Y-56599651D01*
X63452383Y-56508802D01*
X63292000Y-56476900D01*
X63058571Y-56476900D01*
X63297684Y-56119043D01*
X63387521Y-55667400D01*
X63297684Y-55215757D01*
X63041848Y-54832873D01*
X62658964Y-54577037D01*
X62207321Y-54487200D01*
X62161079Y-54487200D01*
X61709436Y-54577037D01*
X61326552Y-54832873D01*
X61070716Y-55215757D01*
X60980879Y-55667400D01*
X61070716Y-56119043D01*
X61309829Y-56476900D01*
X60895000Y-56476900D01*
X60734617Y-56508802D01*
X60680157Y-56545191D01*
X60598652Y-56599651D01*
X59709652Y-57488652D01*
X59688500Y-57520308D01*
X59688500Y-57354942D01*
X59941466Y-56722527D01*
X59964620Y-56602300D01*
X59964620Y-54402300D01*
X59941466Y-54282073D01*
X59541466Y-53282073D01*
X59479092Y-53183076D01*
X59475408Y-53180407D01*
X59472945Y-53176579D01*
X59423514Y-53142805D01*
X59375036Y-53107678D01*
X59370602Y-53106652D01*
X59366845Y-53104085D01*
X59308166Y-53092202D01*
X59249843Y-53078704D01*
X59245361Y-53079483D01*
X59240900Y-53078580D01*
X58040900Y-53078580D01*
X57923242Y-53100719D01*
X57815179Y-53170255D01*
X57742685Y-53276355D01*
X57717180Y-53402300D01*
X57717180Y-57602300D01*
X57739319Y-57719958D01*
X57808855Y-57828021D01*
X57914955Y-57900515D01*
X58040900Y-57926020D01*
X58545500Y-57926020D01*
X58545500Y-58813065D01*
X58511331Y-58789719D01*
X58385386Y-58764214D01*
X57325386Y-58764214D01*
X57207728Y-58786353D01*
X57099665Y-58855889D01*
X57027171Y-58961989D01*
X57001666Y-59087934D01*
X57001666Y-59737934D01*
X57023805Y-59855592D01*
X57044127Y-59887173D01*
X57027171Y-59911989D01*
X57001666Y-60037934D01*
X57001666Y-60687934D01*
X57023805Y-60805592D01*
X57044127Y-60837173D01*
X57027171Y-60861989D01*
X57001666Y-60987934D01*
X57001666Y-61637934D01*
X57023805Y-61755592D01*
X57093341Y-61863655D01*
X57199441Y-61936149D01*
X57325386Y-61961654D01*
X57436286Y-61961654D01*
X57436286Y-62082114D01*
X57304914Y-62213257D01*
X57210707Y-62440133D01*
X57210493Y-62685790D01*
X57304303Y-62912829D01*
X57322722Y-62931280D01*
X57072100Y-62931280D01*
X56954442Y-62953419D01*
X56846379Y-63022955D01*
X56773885Y-63129055D01*
X56748380Y-63255000D01*
X56748380Y-64055000D01*
X56770519Y-64172658D01*
X56840055Y-64280721D01*
X56938657Y-64348092D01*
X56830224Y-64393007D01*
X56710107Y-64513124D01*
X56645100Y-64670065D01*
X56645100Y-64921250D01*
X56751850Y-65028000D01*
X57320100Y-65028000D01*
X57320100Y-65008000D01*
X57574100Y-65008000D01*
X57574100Y-65028000D01*
X58142350Y-65028000D01*
X58249100Y-64921250D01*
X58249100Y-64670065D01*
X58184093Y-64513124D01*
X58063976Y-64393007D01*
X57953965Y-64347439D01*
X58047821Y-64287045D01*
X58090966Y-64223900D01*
X58545500Y-64223900D01*
X58545500Y-66714080D01*
X53728278Y-71531301D01*
X53604393Y-71716709D01*
X53604393Y-71716710D01*
X53560889Y-71935413D01*
X53560890Y-71935418D01*
X53560890Y-76736685D01*
X53560889Y-76736690D01*
X53597175Y-76919108D01*
X53604393Y-76955394D01*
X53666117Y-77047771D01*
X53728278Y-77140802D01*
X54388686Y-77801209D01*
X54388688Y-77801212D01*
X54574096Y-77925097D01*
X54610382Y-77932315D01*
X54792800Y-77968601D01*
X54792805Y-77968600D01*
X59448410Y-77968600D01*
X59558933Y-78014493D01*
X59804590Y-78014707D01*
X60031629Y-77920897D01*
X60205486Y-77747343D01*
X60299693Y-77520467D01*
X60299907Y-77274810D01*
X60206097Y-77047771D01*
X60032543Y-76873914D01*
X59805667Y-76779707D01*
X59560010Y-76779493D01*
X59448422Y-76825600D01*
X55029523Y-76825600D01*
X54703890Y-76499966D01*
X54703890Y-75593750D01*
X54763000Y-75593750D01*
X54763000Y-76294935D01*
X54828007Y-76451876D01*
X54948124Y-76571993D01*
X55105064Y-76637000D01*
X55806250Y-76637000D01*
X55913000Y-76530250D01*
X55913000Y-75487000D01*
X56167000Y-75487000D01*
X56167000Y-76530250D01*
X56273750Y-76637000D01*
X56974936Y-76637000D01*
X57131876Y-76571993D01*
X57251993Y-76451876D01*
X57317000Y-76294935D01*
X57317000Y-75593750D01*
X57210250Y-75487000D01*
X56167000Y-75487000D01*
X55913000Y-75487000D01*
X54869750Y-75487000D01*
X54763000Y-75593750D01*
X54703890Y-75593750D01*
X54703890Y-75337127D01*
X57412500Y-75337127D01*
X57412500Y-75382873D01*
X57501371Y-75829656D01*
X57754453Y-76208420D01*
X58133217Y-76461502D01*
X58580000Y-76550373D01*
X59026783Y-76461502D01*
X59405547Y-76208420D01*
X59658629Y-75829656D01*
X59747500Y-75382873D01*
X59747500Y-75337127D01*
X59747451Y-75336879D01*
X59939800Y-75336879D01*
X59939800Y-75383121D01*
X60029637Y-75834764D01*
X60285473Y-76217648D01*
X60668357Y-76473484D01*
X61120000Y-76563321D01*
X61571643Y-76473484D01*
X61954527Y-76217648D01*
X62210363Y-75834764D01*
X62300200Y-75383121D01*
X62300200Y-75336879D01*
X62479800Y-75336879D01*
X62479800Y-75383121D01*
X62569637Y-75834764D01*
X62825473Y-76217648D01*
X63208357Y-76473484D01*
X63660000Y-76563321D01*
X64111643Y-76473484D01*
X64494527Y-76217648D01*
X64750363Y-75834764D01*
X64840200Y-75383121D01*
X64840200Y-75336879D01*
X64750363Y-74885236D01*
X64494527Y-74502352D01*
X64111643Y-74246516D01*
X63660000Y-74156679D01*
X63208357Y-74246516D01*
X62825473Y-74502352D01*
X62569637Y-74885236D01*
X62479800Y-75336879D01*
X62300200Y-75336879D01*
X62210363Y-74885236D01*
X61954527Y-74502352D01*
X61571643Y-74246516D01*
X61120000Y-74156679D01*
X60668357Y-74246516D01*
X60285473Y-74502352D01*
X60029637Y-74885236D01*
X59939800Y-75336879D01*
X59747451Y-75336879D01*
X59658629Y-74890344D01*
X59405547Y-74511580D01*
X59026783Y-74258498D01*
X58580000Y-74169627D01*
X58133217Y-74258498D01*
X57754453Y-74511580D01*
X57501371Y-74890344D01*
X57412500Y-75337127D01*
X54703890Y-75337127D01*
X54703890Y-74425065D01*
X54763000Y-74425065D01*
X54763000Y-75126250D01*
X54869750Y-75233000D01*
X55913000Y-75233000D01*
X55913000Y-74189750D01*
X56167000Y-74189750D01*
X56167000Y-75233000D01*
X57210250Y-75233000D01*
X57317000Y-75126250D01*
X57317000Y-74425065D01*
X57251993Y-74268124D01*
X57131876Y-74148007D01*
X56974936Y-74083000D01*
X56273750Y-74083000D01*
X56167000Y-74189750D01*
X55913000Y-74189750D01*
X55806250Y-74083000D01*
X55105064Y-74083000D01*
X54948124Y-74148007D01*
X54828007Y-74268124D01*
X54763000Y-74425065D01*
X54703890Y-74425065D01*
X54703890Y-73144215D01*
X54804831Y-73144215D01*
X55022924Y-73592214D01*
X55395858Y-73922651D01*
X55715787Y-74055158D01*
X55913000Y-73983338D01*
X55913000Y-72947000D01*
X56167000Y-72947000D01*
X56167000Y-73983338D01*
X56364213Y-74055158D01*
X56684142Y-73922651D01*
X57057076Y-73592214D01*
X57275169Y-73144215D01*
X57203930Y-72947000D01*
X56167000Y-72947000D01*
X55913000Y-72947000D01*
X54876070Y-72947000D01*
X54804831Y-73144215D01*
X54703890Y-73144215D01*
X54703890Y-72797127D01*
X57412500Y-72797127D01*
X57412500Y-72842873D01*
X57501371Y-73289656D01*
X57754453Y-73668420D01*
X58133217Y-73921502D01*
X58580000Y-74010373D01*
X59026783Y-73921502D01*
X59405547Y-73668420D01*
X59658629Y-73289656D01*
X59747500Y-72842873D01*
X59747500Y-72797127D01*
X59952500Y-72797127D01*
X59952500Y-72842873D01*
X60041371Y-73289656D01*
X60294453Y-73668420D01*
X60673217Y-73921502D01*
X61120000Y-74010373D01*
X61566783Y-73921502D01*
X61945547Y-73668420D01*
X62198629Y-73289656D01*
X62287500Y-72842873D01*
X62287500Y-72797127D01*
X62492500Y-72797127D01*
X62492500Y-72842873D01*
X62581371Y-73289656D01*
X62834453Y-73668420D01*
X63213217Y-73921502D01*
X63660000Y-74010373D01*
X64106783Y-73921502D01*
X64485547Y-73668420D01*
X64738629Y-73289656D01*
X64827500Y-72842873D01*
X64827500Y-72797127D01*
X65032500Y-72797127D01*
X65032500Y-72842873D01*
X65121371Y-73289656D01*
X65374453Y-73668420D01*
X65753217Y-73921502D01*
X66200000Y-74010373D01*
X66646783Y-73921502D01*
X67025547Y-73668420D01*
X67278629Y-73289656D01*
X67367500Y-72842873D01*
X67367500Y-72797127D01*
X67278629Y-72350344D01*
X67025547Y-71971580D01*
X66646783Y-71718498D01*
X66200000Y-71629627D01*
X65753217Y-71718498D01*
X65374453Y-71971580D01*
X65121371Y-72350344D01*
X65032500Y-72797127D01*
X64827500Y-72797127D01*
X64738629Y-72350344D01*
X64485547Y-71971580D01*
X64106783Y-71718498D01*
X63660000Y-71629627D01*
X63213217Y-71718498D01*
X62834453Y-71971580D01*
X62581371Y-72350344D01*
X62492500Y-72797127D01*
X62287500Y-72797127D01*
X62198629Y-72350344D01*
X61945547Y-71971580D01*
X61566783Y-71718498D01*
X61120000Y-71629627D01*
X60673217Y-71718498D01*
X60294453Y-71971580D01*
X60041371Y-72350344D01*
X59952500Y-72797127D01*
X59747500Y-72797127D01*
X59658629Y-72350344D01*
X59405547Y-71971580D01*
X59026783Y-71718498D01*
X58580000Y-71629627D01*
X58133217Y-71718498D01*
X57754453Y-71971580D01*
X57501371Y-72350344D01*
X57412500Y-72797127D01*
X54703890Y-72797127D01*
X54703890Y-72495785D01*
X54804831Y-72495785D01*
X54876070Y-72693000D01*
X55913000Y-72693000D01*
X55913000Y-71656662D01*
X56167000Y-71656662D01*
X56167000Y-72693000D01*
X57203930Y-72693000D01*
X57275169Y-72495785D01*
X57057076Y-72047786D01*
X56684142Y-71717349D01*
X56364213Y-71584842D01*
X56167000Y-71656662D01*
X55913000Y-71656662D01*
X55715787Y-71584842D01*
X55395858Y-71717349D01*
X55022924Y-72047786D01*
X54804831Y-72495785D01*
X54703890Y-72495785D01*
X54703890Y-72172137D01*
X59521109Y-67354917D01*
X59521112Y-67354915D01*
X59585160Y-67259060D01*
X59585160Y-67655941D01*
X57268683Y-69972419D01*
X57121610Y-69972291D01*
X56894571Y-70066101D01*
X56720714Y-70239655D01*
X56626507Y-70466531D01*
X56626293Y-70712188D01*
X56720103Y-70939227D01*
X56893657Y-71113084D01*
X57120533Y-71207291D01*
X57366190Y-71207505D01*
X57593229Y-71113695D01*
X57767086Y-70940141D01*
X57767140Y-70940009D01*
X61218691Y-70940009D01*
X61314431Y-71171717D01*
X61491554Y-71349150D01*
X61723096Y-71445294D01*
X61973805Y-71445513D01*
X62085407Y-71399400D01*
X66802000Y-71399400D01*
X67025564Y-71354930D01*
X67215092Y-71228292D01*
X71487292Y-66956092D01*
X71513142Y-66917405D01*
X71613930Y-66766564D01*
X71658400Y-66543000D01*
X71658400Y-62066970D01*
X71726565Y-62054144D01*
X71838949Y-61981827D01*
X71914344Y-61871483D01*
X71940869Y-61740500D01*
X71940869Y-61090500D01*
X71917844Y-60968135D01*
X71845527Y-60855751D01*
X71735183Y-60780356D01*
X71604200Y-60753831D01*
X70544200Y-60753831D01*
X70421835Y-60776856D01*
X70309451Y-60849173D01*
X70234056Y-60959517D01*
X70207531Y-61090500D01*
X70207531Y-61740500D01*
X70230556Y-61862865D01*
X70302873Y-61975249D01*
X70413217Y-62050644D01*
X70490000Y-62066193D01*
X70490000Y-66301016D01*
X66560016Y-70231000D01*
X66554799Y-70231000D01*
X66801502Y-69861783D01*
X66890373Y-69415000D01*
X66801502Y-68968217D01*
X66548420Y-68589453D01*
X66169656Y-68336371D01*
X65722873Y-68247500D01*
X65677127Y-68247500D01*
X65230344Y-68336371D01*
X64851580Y-68589453D01*
X64598498Y-68968217D01*
X64509627Y-69415000D01*
X64598498Y-69861783D01*
X64845201Y-70231000D01*
X62085410Y-70231000D01*
X61974904Y-70185114D01*
X61724195Y-70184895D01*
X61492487Y-70280635D01*
X61315054Y-70457758D01*
X61218910Y-70689300D01*
X61218691Y-70940009D01*
X57767140Y-70940009D01*
X57861293Y-70713265D01*
X57861422Y-70565072D01*
X60327746Y-68098749D01*
X60327749Y-68098747D01*
X60418598Y-67962781D01*
X60450500Y-67802398D01*
X60423360Y-67665956D01*
X60423360Y-66875000D01*
X64496679Y-66875000D01*
X64586516Y-67326643D01*
X64842352Y-67709527D01*
X65225236Y-67965363D01*
X65676879Y-68055200D01*
X65723121Y-68055200D01*
X66174764Y-67965363D01*
X66557648Y-67709527D01*
X66813484Y-67326643D01*
X66903321Y-66875000D01*
X66813484Y-66423357D01*
X66557648Y-66040473D01*
X66174764Y-65784637D01*
X65723121Y-65694800D01*
X65676879Y-65694800D01*
X65225236Y-65784637D01*
X64842352Y-66040473D01*
X64586516Y-66423357D01*
X64496679Y-66875000D01*
X60423360Y-66875000D01*
X60423360Y-65427519D01*
X60479981Y-65391085D01*
X60552475Y-65284985D01*
X60577980Y-65159040D01*
X60577980Y-64942790D01*
X60827260Y-64942790D01*
X60827260Y-65243976D01*
X60892267Y-65400916D01*
X61012384Y-65521033D01*
X61169325Y-65586040D01*
X61272510Y-65586040D01*
X61379260Y-65479290D01*
X61379260Y-64836040D01*
X61629260Y-64836040D01*
X61629260Y-65479290D01*
X61736010Y-65586040D01*
X61839195Y-65586040D01*
X61996136Y-65521033D01*
X62116253Y-65400916D01*
X62181260Y-65243976D01*
X62181260Y-64942790D01*
X62074510Y-64836040D01*
X61629260Y-64836040D01*
X61379260Y-64836040D01*
X60934010Y-64836040D01*
X60827260Y-64942790D01*
X60577980Y-64942790D01*
X60577980Y-64259040D01*
X60561999Y-64174104D01*
X60827260Y-64174104D01*
X60827260Y-64475290D01*
X60934010Y-64582040D01*
X61379260Y-64582040D01*
X61379260Y-63938790D01*
X61629260Y-63938790D01*
X61629260Y-64582040D01*
X62074510Y-64582040D01*
X62181260Y-64475290D01*
X62181260Y-64335000D01*
X64496679Y-64335000D01*
X64586516Y-64786643D01*
X64842352Y-65169527D01*
X65225236Y-65425363D01*
X65676879Y-65515200D01*
X65723121Y-65515200D01*
X66174764Y-65425363D01*
X66557648Y-65169527D01*
X66813484Y-64786643D01*
X66903321Y-64335000D01*
X66813484Y-63883357D01*
X66557648Y-63500473D01*
X66174764Y-63244637D01*
X65723121Y-63154800D01*
X65676879Y-63154800D01*
X65225236Y-63244637D01*
X64842352Y-63500473D01*
X64586516Y-63883357D01*
X64496679Y-64335000D01*
X62181260Y-64335000D01*
X62181260Y-64174104D01*
X62116253Y-64017164D01*
X61996136Y-63897047D01*
X61839195Y-63832040D01*
X61736010Y-63832040D01*
X61629260Y-63938790D01*
X61379260Y-63938790D01*
X61272510Y-63832040D01*
X61169325Y-63832040D01*
X61012384Y-63897047D01*
X60892267Y-64017164D01*
X60827260Y-64174104D01*
X60561999Y-64174104D01*
X60555841Y-64141382D01*
X60486305Y-64033319D01*
X60423360Y-63990311D01*
X60423360Y-63041485D01*
X60529186Y-62935843D01*
X60573801Y-62828397D01*
X60726419Y-63197760D01*
X61043172Y-63515067D01*
X61457242Y-63687004D01*
X61905591Y-63687395D01*
X62319960Y-63516181D01*
X62637267Y-63199428D01*
X62809204Y-62785358D01*
X62809595Y-62337009D01*
X62638381Y-61922640D01*
X62510964Y-61795000D01*
X64496679Y-61795000D01*
X64586516Y-62246643D01*
X64842352Y-62629527D01*
X65225236Y-62885363D01*
X65676879Y-62975200D01*
X65723121Y-62975200D01*
X66174764Y-62885363D01*
X66557648Y-62629527D01*
X66813484Y-62246643D01*
X66903321Y-61795000D01*
X66813484Y-61343357D01*
X66557648Y-60960473D01*
X66174764Y-60704637D01*
X65723121Y-60614800D01*
X65676879Y-60614800D01*
X65225236Y-60704637D01*
X64842352Y-60960473D01*
X64586516Y-61343357D01*
X64496679Y-61795000D01*
X62510964Y-61795000D01*
X62321628Y-61605333D01*
X61907558Y-61433396D01*
X61459209Y-61433005D01*
X61044840Y-61604219D01*
X60727533Y-61920972D01*
X60563121Y-62316921D01*
X60529797Y-62236271D01*
X60425100Y-62131391D01*
X60425100Y-58441150D01*
X60907200Y-58441150D01*
X60907200Y-59142336D01*
X60972207Y-59299276D01*
X61092324Y-59419393D01*
X61249265Y-59484400D01*
X61950450Y-59484400D01*
X62057200Y-59377650D01*
X62057200Y-58334400D01*
X62311200Y-58334400D01*
X62311200Y-59377650D01*
X62417950Y-59484400D01*
X63119135Y-59484400D01*
X63276076Y-59419393D01*
X63396193Y-59299276D01*
X63461200Y-59142336D01*
X63461200Y-58441150D01*
X63354450Y-58334400D01*
X62311200Y-58334400D01*
X62057200Y-58334400D01*
X61013950Y-58334400D01*
X60907200Y-58441150D01*
X60425100Y-58441150D01*
X60425100Y-57958596D01*
X60907200Y-57476497D01*
X60907200Y-57973650D01*
X61013950Y-58080400D01*
X62057200Y-58080400D01*
X62057200Y-58060400D01*
X62311200Y-58060400D01*
X62311200Y-58080400D01*
X63354450Y-58080400D01*
X63461200Y-57973650D01*
X63461200Y-57657896D01*
X64087852Y-58284548D01*
X64223817Y-58375398D01*
X64384200Y-58407300D01*
X64862067Y-58407300D01*
X64842352Y-58420473D01*
X64586516Y-58803357D01*
X64496679Y-59255000D01*
X64586516Y-59706643D01*
X64842352Y-60089527D01*
X65225236Y-60345363D01*
X65676879Y-60435200D01*
X65723121Y-60435200D01*
X66174764Y-60345363D01*
X66557648Y-60089527D01*
X66813484Y-59706643D01*
X66903321Y-59255000D01*
X66813484Y-58803357D01*
X66557648Y-58420473D01*
X66537933Y-58407300D01*
X68640104Y-58407300D01*
X70044651Y-59811848D01*
X70135068Y-59872263D01*
X70180617Y-59902698D01*
X70234188Y-59913354D01*
X70242619Y-59958158D01*
X70312155Y-60066221D01*
X70418255Y-60138715D01*
X70544200Y-60164220D01*
X71604200Y-60164220D01*
X71721858Y-60142081D01*
X71829921Y-60072545D01*
X71841523Y-60055564D01*
X72317200Y-60055564D01*
X72317200Y-60231750D01*
X72423950Y-60338500D01*
X73147200Y-60338500D01*
X73147200Y-60318500D01*
X73401200Y-60318500D01*
X73401200Y-60338500D01*
X74124450Y-60338500D01*
X74172300Y-60290650D01*
X74172300Y-60389350D01*
X74279050Y-60496100D01*
X74922300Y-60496100D01*
X74922300Y-60050850D01*
X75176300Y-60050850D01*
X75176300Y-60496100D01*
X75819550Y-60496100D01*
X75926300Y-60389350D01*
X75926300Y-60286165D01*
X75861293Y-60129224D01*
X75741176Y-60009107D01*
X75584236Y-59944100D01*
X75283050Y-59944100D01*
X75176300Y-60050850D01*
X74922300Y-60050850D01*
X74815550Y-59944100D01*
X74514364Y-59944100D01*
X74357424Y-60009107D01*
X74237307Y-60129224D01*
X74231200Y-60143968D01*
X74231200Y-60055564D01*
X74166193Y-59898624D01*
X74135345Y-59867776D01*
X74140869Y-59840500D01*
X74140869Y-59578300D01*
X74340246Y-59578300D01*
X74357973Y-59605849D01*
X74468317Y-59681244D01*
X74599300Y-59707769D01*
X75499300Y-59707769D01*
X75621665Y-59684744D01*
X75734049Y-59612427D01*
X75809444Y-59502083D01*
X75835969Y-59371100D01*
X75835969Y-58871100D01*
X75812944Y-58748735D01*
X75740627Y-58636351D01*
X75630283Y-58560956D01*
X75499300Y-58534431D01*
X74599300Y-58534431D01*
X74476935Y-58557456D01*
X74364551Y-58629773D01*
X74341233Y-58663900D01*
X73668600Y-58663900D01*
X73493637Y-58698702D01*
X73345311Y-58797811D01*
X73289291Y-58853831D01*
X72744200Y-58853831D01*
X72621835Y-58876856D01*
X72509451Y-58949173D01*
X72434056Y-59059517D01*
X72407531Y-59190500D01*
X72407531Y-59840500D01*
X72412725Y-59868106D01*
X72382207Y-59898624D01*
X72317200Y-60055564D01*
X71841523Y-60055564D01*
X71902415Y-59966445D01*
X71927920Y-59840500D01*
X71927920Y-59190500D01*
X71905781Y-59072842D01*
X71836245Y-58964779D01*
X71730145Y-58892285D01*
X71604200Y-58866780D01*
X70544200Y-58866780D01*
X70426542Y-58888919D01*
X70353875Y-58935678D01*
X69110048Y-57691852D01*
X68974083Y-57601002D01*
X68813700Y-57569100D01*
X66528355Y-57569100D01*
X66557648Y-57549527D01*
X66723742Y-57300950D01*
X87021000Y-57300950D01*
X87021000Y-57527136D01*
X87086007Y-57684076D01*
X87206124Y-57804193D01*
X87363065Y-57869200D01*
X87614250Y-57869200D01*
X87721000Y-57762450D01*
X87721000Y-57194200D01*
X87127750Y-57194200D01*
X87021000Y-57300950D01*
X66723742Y-57300950D01*
X66813484Y-57166643D01*
X66903321Y-56715000D01*
X66881892Y-56607264D01*
X87021000Y-56607264D01*
X87021000Y-56833450D01*
X87127750Y-56940200D01*
X87721000Y-56940200D01*
X87721000Y-56371950D01*
X87614250Y-56265200D01*
X87363065Y-56265200D01*
X87206124Y-56330207D01*
X87086007Y-56450324D01*
X87021000Y-56607264D01*
X66881892Y-56607264D01*
X66813484Y-56263357D01*
X66557648Y-55880473D01*
X66174764Y-55624637D01*
X65723121Y-55534800D01*
X65676879Y-55534800D01*
X65331484Y-55603503D01*
X65179982Y-55452000D01*
X65466250Y-55452000D01*
X65573000Y-55345250D01*
X65573000Y-54302000D01*
X65827000Y-54302000D01*
X65827000Y-55345250D01*
X65933750Y-55452000D01*
X66634935Y-55452000D01*
X66791876Y-55386993D01*
X66911993Y-55266876D01*
X66977000Y-55109936D01*
X66977000Y-54408750D01*
X66870250Y-54302000D01*
X65827000Y-54302000D01*
X65573000Y-54302000D01*
X65553000Y-54302000D01*
X65553000Y-54048000D01*
X65573000Y-54048000D01*
X65573000Y-53004750D01*
X65827000Y-53004750D01*
X65827000Y-54048000D01*
X66870250Y-54048000D01*
X66977000Y-53941250D01*
X66977000Y-53677334D01*
X86333995Y-53677334D01*
X86361308Y-54244373D01*
X86525759Y-54641393D01*
X86734110Y-54751485D01*
X87593395Y-53892200D01*
X86734110Y-53032915D01*
X86525759Y-53143007D01*
X86333995Y-53677334D01*
X66977000Y-53677334D01*
X66977000Y-53240064D01*
X66911993Y-53083124D01*
X66791876Y-52963007D01*
X66634935Y-52898000D01*
X65933750Y-52898000D01*
X65827000Y-53004750D01*
X65573000Y-53004750D01*
X65466250Y-52898000D01*
X64765065Y-52898000D01*
X64724200Y-52914927D01*
X64724200Y-52352700D01*
X64707166Y-52267063D01*
X64684564Y-52153436D01*
X64621557Y-52059140D01*
X64571691Y-51984509D01*
X64571688Y-51984507D01*
X64009591Y-51422409D01*
X63840663Y-51309536D01*
X63802778Y-51302000D01*
X88770460Y-51302000D01*
X88770460Y-52835558D01*
X88710247Y-52775345D01*
X88632284Y-52853308D01*
X88522193Y-52644959D01*
X87987866Y-52453195D01*
X87420827Y-52480508D01*
X87023807Y-52644959D01*
X86913715Y-52853310D01*
X87773000Y-53712595D01*
X87787143Y-53698453D01*
X87966748Y-53878058D01*
X87952605Y-53892200D01*
X87966748Y-53906343D01*
X87787143Y-54085948D01*
X87773000Y-54071805D01*
X86913715Y-54931090D01*
X87023807Y-55139441D01*
X87558134Y-55331205D01*
X88125173Y-55303892D01*
X88522193Y-55139441D01*
X88632284Y-54931092D01*
X88710247Y-55009055D01*
X88770460Y-54948842D01*
X88770460Y-55333686D01*
X88303347Y-55789062D01*
X88274952Y-55830718D01*
X88265000Y-55880000D01*
X88265000Y-56265200D01*
X88081750Y-56265200D01*
X87975000Y-56371950D01*
X87975000Y-56940200D01*
X87995000Y-56940200D01*
X87995000Y-57194200D01*
X87975000Y-57194200D01*
X87975000Y-57762450D01*
X88077750Y-57865200D01*
X88038065Y-57865200D01*
X87881124Y-57930207D01*
X87761007Y-58050324D01*
X87696000Y-58207264D01*
X87696000Y-58333450D01*
X87802750Y-58440200D01*
X88198000Y-58440200D01*
X88198000Y-58420200D01*
X88265000Y-58420200D01*
X88265000Y-58714200D01*
X88198000Y-58714200D01*
X88198000Y-58694200D01*
X87802750Y-58694200D01*
X87696000Y-58800950D01*
X87696000Y-58801000D01*
X83566000Y-58801000D01*
X83516590Y-58811006D01*
X83484697Y-58830436D01*
X78563060Y-62931800D01*
X75675948Y-62931800D01*
X75627527Y-62856551D01*
X75533648Y-62792406D01*
X75628076Y-62753293D01*
X75748193Y-62633176D01*
X75813200Y-62476235D01*
X75813200Y-62225050D01*
X75706450Y-62118300D01*
X75138200Y-62118300D01*
X75138200Y-62138300D01*
X74884200Y-62138300D01*
X74884200Y-62118300D01*
X74315950Y-62118300D01*
X74274617Y-62159633D01*
X74062436Y-61947452D01*
X74114344Y-61871483D01*
X74140869Y-61740500D01*
X74140869Y-61090500D01*
X74135675Y-61062894D01*
X74166193Y-61032376D01*
X74185057Y-60986834D01*
X74237307Y-61112976D01*
X74357424Y-61233093D01*
X74380839Y-61242792D01*
X74274207Y-61349424D01*
X74209200Y-61506365D01*
X74209200Y-61757550D01*
X74315950Y-61864300D01*
X74884200Y-61864300D01*
X74884200Y-61271050D01*
X75138200Y-61271050D01*
X75138200Y-61864300D01*
X75706450Y-61864300D01*
X75813200Y-61757550D01*
X75813200Y-61506365D01*
X75748193Y-61349424D01*
X75663879Y-61265110D01*
X75741176Y-61233093D01*
X75861293Y-61112976D01*
X75926300Y-60956035D01*
X75926300Y-60852850D01*
X75819550Y-60746100D01*
X75176300Y-60746100D01*
X75176300Y-61191350D01*
X75197100Y-61212150D01*
X75138200Y-61271050D01*
X74884200Y-61271050D01*
X74863400Y-61250250D01*
X74922300Y-61191350D01*
X74922300Y-60746100D01*
X74279050Y-60746100D01*
X74231200Y-60793950D01*
X74231200Y-60699250D01*
X74124450Y-60592500D01*
X73401200Y-60592500D01*
X73401200Y-60612500D01*
X73147200Y-60612500D01*
X73147200Y-60592500D01*
X72423950Y-60592500D01*
X72317200Y-60699250D01*
X72317200Y-60875436D01*
X72382207Y-61032376D01*
X72413055Y-61063224D01*
X72407531Y-61090500D01*
X72407531Y-61740500D01*
X72430556Y-61862865D01*
X72502873Y-61975249D01*
X72613217Y-62050644D01*
X72706745Y-62069584D01*
X72734470Y-62208964D01*
X72773350Y-62267152D01*
X72861108Y-62398492D01*
X74299531Y-63836915D01*
X74299531Y-63891300D01*
X74322556Y-64013665D01*
X74394873Y-64126049D01*
X74505217Y-64201444D01*
X74636200Y-64227969D01*
X75386200Y-64227969D01*
X75508565Y-64204944D01*
X75620949Y-64132627D01*
X75643105Y-64100200D01*
X77160980Y-64100200D01*
X68884777Y-70997036D01*
X68853224Y-71036354D01*
X68839080Y-71094553D01*
X68838873Y-71649294D01*
X68740000Y-71629627D01*
X68293217Y-71718498D01*
X67914453Y-71971580D01*
X67661371Y-72350344D01*
X67572500Y-72797127D01*
X67572500Y-72842873D01*
X67661371Y-73289656D01*
X67914453Y-73668420D01*
X68293217Y-73921502D01*
X68740000Y-74010373D01*
X68837998Y-73990880D01*
X68836587Y-77767653D01*
X64198026Y-77784961D01*
X64148654Y-77795151D01*
X64107136Y-77823747D01*
X64080014Y-77866243D01*
X64071500Y-77912164D01*
X64071698Y-78035540D01*
X63992145Y-77981185D01*
X63866200Y-77955680D01*
X63066200Y-77955680D01*
X62948542Y-77977819D01*
X62840479Y-78047355D01*
X62767985Y-78153455D01*
X62756554Y-78209900D01*
X57560500Y-78209900D01*
X57147393Y-78292072D01*
X57134361Y-78300780D01*
X55445400Y-78300780D01*
X55325173Y-78323934D01*
X54325173Y-78723934D01*
X54226176Y-78786308D01*
X54223507Y-78789992D01*
X54219679Y-78792455D01*
X54185905Y-78841886D01*
X54150778Y-78890364D01*
X54149752Y-78894798D01*
X54147185Y-78898555D01*
X54135302Y-78957234D01*
X54121804Y-79015557D01*
X54122583Y-79020039D01*
X54121680Y-79024500D01*
X54121680Y-80224500D01*
X54143819Y-80342158D01*
X54213355Y-80450221D01*
X54319455Y-80522715D01*
X54445400Y-80548220D01*
X58645400Y-80548220D01*
X58763058Y-80526081D01*
X58871121Y-80456545D01*
X58931005Y-80368900D01*
X60970800Y-80368900D01*
X60970800Y-80524850D01*
X61077550Y-80631600D01*
X61645800Y-80631600D01*
X61645800Y-80611600D01*
X61899800Y-80611600D01*
X61899800Y-80631600D01*
X62468050Y-80631600D01*
X62574800Y-80524850D01*
X62574800Y-80368900D01*
X62767880Y-80368900D01*
X62767880Y-80680400D01*
X62790019Y-80798058D01*
X62834400Y-80867029D01*
X62834400Y-81153000D01*
X62574800Y-81153000D01*
X62574800Y-80992350D01*
X62468050Y-80885600D01*
X61899800Y-80885600D01*
X61899800Y-80905600D01*
X61645800Y-80905600D01*
X61645800Y-80885600D01*
X61077550Y-80885600D01*
X60970800Y-80992350D01*
X60970800Y-81243535D01*
X61035807Y-81400476D01*
X61155924Y-81520593D01*
X61265935Y-81566161D01*
X61172079Y-81626555D01*
X61099585Y-81732655D01*
X61074080Y-81858600D01*
X61074080Y-82658600D01*
X61096219Y-82776258D01*
X61165755Y-82884321D01*
X61271855Y-82956815D01*
X61320600Y-82966686D01*
X61320600Y-83165672D01*
X60105500Y-81950572D01*
X60066995Y-81756994D01*
X59860519Y-81447981D01*
X59551506Y-81241505D01*
X59187000Y-81169000D01*
X58958677Y-81169000D01*
X58946981Y-81106842D01*
X58877445Y-80998779D01*
X58771345Y-80926285D01*
X58645400Y-80900780D01*
X54445400Y-80900780D01*
X54327742Y-80922919D01*
X54219679Y-80992455D01*
X54147185Y-81098555D01*
X54121680Y-81224500D01*
X54121680Y-82424500D01*
X54143819Y-82542158D01*
X54145522Y-82544805D01*
X54146121Y-82547897D01*
X54180232Y-82598746D01*
X54213355Y-82650221D01*
X54215955Y-82651997D01*
X54217708Y-82654611D01*
X54268907Y-82688177D01*
X54319455Y-82722715D01*
X54322540Y-82723340D01*
X54325173Y-82725066D01*
X55325173Y-83125066D01*
X55445400Y-83148220D01*
X57645400Y-83148220D01*
X57765627Y-83125066D01*
X57893292Y-83074000D01*
X59187000Y-83074000D01*
X59242277Y-83063005D01*
X59926372Y-83747100D01*
X58574436Y-83747100D01*
X58521243Y-83693814D01*
X58294367Y-83599607D01*
X58048710Y-83599393D01*
X57821671Y-83693203D01*
X57647814Y-83866757D01*
X57553607Y-84093633D01*
X57553393Y-84339290D01*
X57646447Y-84564500D01*
X54640200Y-84564500D01*
X54479817Y-84596402D01*
X54385941Y-84659129D01*
X54343852Y-84687252D01*
X53551652Y-85479452D01*
X53460802Y-85615417D01*
X53428900Y-85775800D01*
X53428900Y-98069400D01*
X53460802Y-98229783D01*
X53479979Y-98258483D01*
X53551652Y-98365748D01*
X60850521Y-105664618D01*
X60850393Y-105811690D01*
X60944203Y-106038729D01*
X61117757Y-106212586D01*
X61344633Y-106306793D01*
X61590290Y-106307007D01*
X61817329Y-106213197D01*
X61991186Y-106039643D01*
X62085393Y-105812767D01*
X62085607Y-105567110D01*
X61991797Y-105340071D01*
X61818243Y-105166214D01*
X61591367Y-105072007D01*
X61443175Y-105071878D01*
X58169877Y-101798580D01*
X81008650Y-101798580D01*
X81112555Y-101902666D01*
X81339431Y-101996873D01*
X81585088Y-101997087D01*
X81812127Y-101903277D01*
X81917007Y-101798580D01*
X83680520Y-101798580D01*
X83840903Y-101766678D01*
X83976868Y-101675828D01*
X86520587Y-99132110D01*
X86530344Y-99138629D01*
X86977127Y-99227500D01*
X87022873Y-99227500D01*
X87469656Y-99138629D01*
X87848420Y-98885547D01*
X88101502Y-98506783D01*
X88190373Y-98060000D01*
X88101502Y-97613217D01*
X87848420Y-97234453D01*
X87469656Y-96981371D01*
X87022873Y-96892500D01*
X86977127Y-96892500D01*
X86530344Y-96981371D01*
X86151580Y-97234453D01*
X85898498Y-97613217D01*
X85809627Y-98060000D01*
X85898498Y-98506783D01*
X85923341Y-98543963D01*
X83506924Y-100960380D01*
X82152316Y-100960380D01*
X86520587Y-96592110D01*
X86530344Y-96598629D01*
X86977127Y-96687500D01*
X87022873Y-96687500D01*
X87469656Y-96598629D01*
X87848420Y-96345547D01*
X88101502Y-95966783D01*
X88190373Y-95520000D01*
X88101502Y-95073217D01*
X87848420Y-94694453D01*
X87469656Y-94441371D01*
X87022873Y-94352500D01*
X86977127Y-94352500D01*
X86530344Y-94441371D01*
X86151580Y-94694453D01*
X85898498Y-95073217D01*
X85809627Y-95520000D01*
X85898498Y-95966783D01*
X85923341Y-96003963D01*
X81559034Y-100368270D01*
X80293326Y-100368270D01*
X86741797Y-93919800D01*
X88892300Y-93919800D01*
X89052683Y-93887898D01*
X89188648Y-93797048D01*
X89683948Y-93301748D01*
X89687167Y-93296931D01*
X89758483Y-93190200D01*
X90411150Y-93190200D01*
X90517900Y-93083450D01*
X90517900Y-92040200D01*
X90771900Y-92040200D01*
X90771900Y-93083450D01*
X90878650Y-93190200D01*
X91579836Y-93190200D01*
X91736776Y-93125193D01*
X91856893Y-93005076D01*
X91921900Y-92848135D01*
X91921900Y-92146950D01*
X91815150Y-92040200D01*
X90771900Y-92040200D01*
X90517900Y-92040200D01*
X90497900Y-92040200D01*
X90497900Y-91786200D01*
X90517900Y-91786200D01*
X90517900Y-90742950D01*
X90771900Y-90742950D01*
X90771900Y-91786200D01*
X91815150Y-91786200D01*
X91921900Y-91679450D01*
X91921900Y-90978265D01*
X91856893Y-90821324D01*
X91736776Y-90701207D01*
X91579836Y-90636200D01*
X90878650Y-90636200D01*
X90771900Y-90742950D01*
X90517900Y-90742950D01*
X90411150Y-90636200D01*
X89806700Y-90636200D01*
X89806700Y-89963750D01*
X89868000Y-89963750D01*
X89868000Y-90214935D01*
X89933007Y-90371876D01*
X90053124Y-90491993D01*
X90210064Y-90557000D01*
X90436250Y-90557000D01*
X90543000Y-90450250D01*
X90543000Y-89857000D01*
X90797000Y-89857000D01*
X90797000Y-90450250D01*
X90903750Y-90557000D01*
X91129936Y-90557000D01*
X91286876Y-90491993D01*
X91406993Y-90371876D01*
X91472000Y-90214935D01*
X91472000Y-89963750D01*
X91365250Y-89857000D01*
X90797000Y-89857000D01*
X90543000Y-89857000D01*
X89974750Y-89857000D01*
X89868000Y-89963750D01*
X89806700Y-89963750D01*
X89806700Y-89175800D01*
X89796363Y-89123830D01*
X89774799Y-89015418D01*
X89683949Y-88879452D01*
X89654912Y-88850415D01*
X89668215Y-88830945D01*
X89693720Y-88705000D01*
X89693720Y-88649100D01*
X89974874Y-88649100D01*
X89993419Y-88747658D01*
X90062955Y-88855721D01*
X90161557Y-88923092D01*
X90053124Y-88968007D01*
X89933007Y-89088124D01*
X89868000Y-89245065D01*
X89868000Y-89496250D01*
X89974750Y-89603000D01*
X90543000Y-89603000D01*
X90543000Y-89583000D01*
X90797000Y-89583000D01*
X90797000Y-89603000D01*
X91365250Y-89603000D01*
X91472000Y-89496250D01*
X91472000Y-89245065D01*
X91406993Y-89088124D01*
X91286876Y-88968007D01*
X91176865Y-88922439D01*
X91270721Y-88862045D01*
X91343215Y-88755945D01*
X91368720Y-88630000D01*
X91368720Y-87830000D01*
X91346581Y-87712342D01*
X91277045Y-87604279D01*
X91170945Y-87531785D01*
X91045000Y-87506280D01*
X90295000Y-87506280D01*
X90177342Y-87528419D01*
X90069279Y-87597955D01*
X89996785Y-87704055D01*
X89975148Y-87810900D01*
X89693720Y-87810900D01*
X89693720Y-87805000D01*
X89671581Y-87687342D01*
X89602045Y-87579279D01*
X89495945Y-87506785D01*
X89370000Y-87481280D01*
X88870000Y-87481280D01*
X88752342Y-87503419D01*
X88644279Y-87572955D01*
X88571785Y-87679055D01*
X88546280Y-87805000D01*
X88546280Y-88705000D01*
X88568419Y-88822658D01*
X88637955Y-88930721D01*
X88715985Y-88984036D01*
X88732802Y-89068583D01*
X88788638Y-89152146D01*
X88823652Y-89204548D01*
X88968500Y-89349397D01*
X88968500Y-91099063D01*
X88939427Y-91055552D01*
X88556543Y-90799716D01*
X88512200Y-90790896D01*
X88512200Y-90225000D01*
X88477398Y-90050037D01*
X88378289Y-89901711D01*
X88077200Y-89600622D01*
X88077200Y-88964054D01*
X88104749Y-88946327D01*
X88180144Y-88835983D01*
X88206669Y-88705000D01*
X88206669Y-87805000D01*
X88183644Y-87682635D01*
X88111327Y-87570251D01*
X88000983Y-87494856D01*
X87870000Y-87468331D01*
X87370000Y-87468331D01*
X87247635Y-87491356D01*
X87135251Y-87563673D01*
X87059856Y-87674017D01*
X87033331Y-87805000D01*
X87033331Y-88705000D01*
X87056356Y-88827365D01*
X87128673Y-88939749D01*
X87162800Y-88963067D01*
X87162800Y-89790000D01*
X87197602Y-89964963D01*
X87296711Y-90113289D01*
X87597800Y-90414378D01*
X87597800Y-90836771D01*
X87270373Y-91055552D01*
X87014537Y-91438436D01*
X86924700Y-91890079D01*
X86924700Y-91936321D01*
X87014537Y-92387964D01*
X87270373Y-92770848D01*
X87653257Y-93026684D01*
X87929340Y-93081600D01*
X86568200Y-93081600D01*
X86425423Y-93110000D01*
X86407817Y-93113502D01*
X86271851Y-93204352D01*
X79700035Y-99776169D01*
X59125386Y-99776169D01*
X59003843Y-99654414D01*
X58776967Y-99560207D01*
X58531310Y-99559993D01*
X58304271Y-99653803D01*
X58130414Y-99827357D01*
X58036207Y-100054233D01*
X58036132Y-100140835D01*
X55384700Y-97489404D01*
X55384700Y-94561350D01*
X61801300Y-94561350D01*
X61801300Y-94812535D01*
X61866307Y-94969476D01*
X61986424Y-95089593D01*
X62143364Y-95154600D01*
X62369550Y-95154600D01*
X62476300Y-95047850D01*
X62476300Y-94454600D01*
X62730300Y-94454600D01*
X62730300Y-95047850D01*
X62837050Y-95154600D01*
X63063236Y-95154600D01*
X63220176Y-95089593D01*
X63340293Y-94969476D01*
X63405300Y-94812535D01*
X63405300Y-94561350D01*
X63298550Y-94454600D01*
X62730300Y-94454600D01*
X62476300Y-94454600D01*
X61908050Y-94454600D01*
X61801300Y-94561350D01*
X55384700Y-94561350D01*
X55384700Y-94380850D01*
X63758300Y-94380850D01*
X63758300Y-94484035D01*
X63823307Y-94640976D01*
X63943424Y-94761093D01*
X64100364Y-94826100D01*
X64401550Y-94826100D01*
X64508300Y-94719350D01*
X64508300Y-94274100D01*
X64762300Y-94274100D01*
X64762300Y-94719350D01*
X64869050Y-94826100D01*
X65170236Y-94826100D01*
X65327176Y-94761093D01*
X65447293Y-94640976D01*
X65512300Y-94484035D01*
X65512300Y-94443750D01*
X66000000Y-94443750D01*
X66000000Y-94694935D01*
X66065007Y-94851876D01*
X66185124Y-94971993D01*
X66342064Y-95037000D01*
X66568250Y-95037000D01*
X66675000Y-94930250D01*
X66675000Y-94337000D01*
X66929000Y-94337000D01*
X66929000Y-94930250D01*
X67035750Y-95037000D01*
X67261936Y-95037000D01*
X67418876Y-94971993D01*
X67538993Y-94851876D01*
X67604000Y-94694935D01*
X67604000Y-94443750D01*
X67497250Y-94337000D01*
X66929000Y-94337000D01*
X66675000Y-94337000D01*
X66106750Y-94337000D01*
X66000000Y-94443750D01*
X65512300Y-94443750D01*
X65512300Y-94380850D01*
X65405550Y-94274100D01*
X64762300Y-94274100D01*
X64508300Y-94274100D01*
X63865050Y-94274100D01*
X63758300Y-94380850D01*
X55384700Y-94380850D01*
X55384700Y-89313869D01*
X55392424Y-89321593D01*
X55549365Y-89386600D01*
X55652550Y-89386600D01*
X55759300Y-89279850D01*
X55759300Y-88636600D01*
X56009300Y-88636600D01*
X56009300Y-89279850D01*
X56116050Y-89386600D01*
X56219235Y-89386600D01*
X56376176Y-89321593D01*
X56496293Y-89201476D01*
X56561300Y-89044536D01*
X56561300Y-88743350D01*
X56454550Y-88636600D01*
X56009300Y-88636600D01*
X55759300Y-88636600D01*
X55737300Y-88636600D01*
X55737300Y-88382600D01*
X55759300Y-88382600D01*
X55759300Y-87739350D01*
X55703800Y-87683850D01*
X55747300Y-87640350D01*
X55747300Y-86997100D01*
X55997300Y-86997100D01*
X55997300Y-87640350D01*
X56052800Y-87695850D01*
X56009300Y-87739350D01*
X56009300Y-88382600D01*
X56454550Y-88382600D01*
X56561300Y-88275850D01*
X56561300Y-87974664D01*
X56496293Y-87817724D01*
X56376176Y-87697607D01*
X56351449Y-87687365D01*
X56364176Y-87682093D01*
X56484293Y-87561976D01*
X56549300Y-87405036D01*
X56549300Y-87103850D01*
X56442550Y-86997100D01*
X55997300Y-86997100D01*
X55747300Y-86997100D01*
X55725300Y-86997100D01*
X55725300Y-86743100D01*
X55747300Y-86743100D01*
X55747300Y-86723100D01*
X55997300Y-86723100D01*
X55997300Y-86743100D01*
X56442550Y-86743100D01*
X56549300Y-86636350D01*
X56549300Y-86502700D01*
X56798580Y-86502700D01*
X56798580Y-87320100D01*
X56820719Y-87437758D01*
X56890255Y-87545821D01*
X56996355Y-87618315D01*
X57122300Y-87643820D01*
X57457383Y-87643820D01*
X57365324Y-87735880D01*
X57134300Y-87735880D01*
X57016642Y-87758019D01*
X56908579Y-87827555D01*
X56836085Y-87933655D01*
X56810580Y-88059600D01*
X56810580Y-88959600D01*
X56832719Y-89077258D01*
X56902255Y-89185321D01*
X56977200Y-89236528D01*
X56977200Y-89642952D01*
X56873114Y-89746857D01*
X56778907Y-89973733D01*
X56778693Y-90219390D01*
X56872503Y-90446429D01*
X57046057Y-90620286D01*
X57272933Y-90714493D01*
X57518590Y-90714707D01*
X57745629Y-90620897D01*
X57919486Y-90447343D01*
X58013693Y-90220467D01*
X58013907Y-89974810D01*
X57920097Y-89747771D01*
X57815400Y-89642891D01*
X57815400Y-89220358D01*
X57860021Y-89191645D01*
X57932515Y-89085545D01*
X57958020Y-88959600D01*
X57958020Y-88328576D01*
X58183897Y-88102700D01*
X58909022Y-88102700D01*
X58937003Y-88243370D01*
X58963884Y-88283600D01*
X58937003Y-88323830D01*
X58905223Y-88483600D01*
X58937003Y-88643370D01*
X58963884Y-88683600D01*
X58937003Y-88723830D01*
X58905223Y-88883600D01*
X58937003Y-89043370D01*
X58963884Y-89083600D01*
X58937003Y-89123830D01*
X58905223Y-89283600D01*
X58937003Y-89443370D01*
X58963884Y-89483600D01*
X58937003Y-89523830D01*
X58905223Y-89683600D01*
X58937003Y-89843370D01*
X58963884Y-89883600D01*
X58937003Y-89923830D01*
X58905223Y-90083600D01*
X58937003Y-90243370D01*
X59027506Y-90378817D01*
X59162953Y-90469320D01*
X59322723Y-90501100D01*
X59848877Y-90501100D01*
X59873123Y-90496277D01*
X59868300Y-90520523D01*
X59868300Y-91046677D01*
X59900080Y-91206447D01*
X59990583Y-91341894D01*
X60028306Y-91367100D01*
X59882425Y-91367100D01*
X59765843Y-91250314D01*
X59538967Y-91156107D01*
X59293310Y-91155893D01*
X59066271Y-91249703D01*
X58892414Y-91423257D01*
X58798207Y-91650133D01*
X58797993Y-91895790D01*
X58891803Y-92122829D01*
X59065357Y-92296686D01*
X59292233Y-92390893D01*
X59537890Y-92391107D01*
X59764929Y-92297297D01*
X59857087Y-92205300D01*
X61995921Y-92205300D01*
X61930085Y-92301655D01*
X61908448Y-92408500D01*
X60861787Y-92408500D01*
X60780243Y-92326814D01*
X60553367Y-92232607D01*
X60307710Y-92232393D01*
X60080671Y-92326203D01*
X59906814Y-92499757D01*
X59812607Y-92726633D01*
X59812393Y-92972290D01*
X59906203Y-93199329D01*
X60079757Y-93373186D01*
X60306633Y-93467393D01*
X60552290Y-93467607D01*
X60779329Y-93373797D01*
X60906648Y-93246700D01*
X61908174Y-93246700D01*
X61926719Y-93345258D01*
X61996255Y-93453321D01*
X62094857Y-93520692D01*
X61986424Y-93565607D01*
X61866307Y-93685724D01*
X61801300Y-93842665D01*
X61801300Y-94093850D01*
X61908050Y-94200600D01*
X62476300Y-94200600D01*
X62476300Y-94180600D01*
X62730300Y-94180600D01*
X62730300Y-94200600D01*
X63298550Y-94200600D01*
X63405300Y-94093850D01*
X63405300Y-93842665D01*
X63393495Y-93814165D01*
X63758300Y-93814165D01*
X63758300Y-93917350D01*
X63865050Y-94024100D01*
X64508300Y-94024100D01*
X64508300Y-93578850D01*
X64762300Y-93578850D01*
X64762300Y-94024100D01*
X65405550Y-94024100D01*
X65512300Y-93917350D01*
X65512300Y-93814165D01*
X65447293Y-93657224D01*
X65327176Y-93537107D01*
X65170236Y-93472100D01*
X64869050Y-93472100D01*
X64762300Y-93578850D01*
X64508300Y-93578850D01*
X64401550Y-93472100D01*
X64100364Y-93472100D01*
X63943424Y-93537107D01*
X63823307Y-93657224D01*
X63758300Y-93814165D01*
X63393495Y-93814165D01*
X63340293Y-93685724D01*
X63220176Y-93565607D01*
X63110165Y-93520039D01*
X63204021Y-93459645D01*
X63276515Y-93353545D01*
X63284290Y-93315154D01*
X63375903Y-93296931D01*
X63540710Y-93186810D01*
X63845010Y-92882510D01*
X63861580Y-92857712D01*
X63861580Y-92899100D01*
X63883719Y-93016758D01*
X63953255Y-93124821D01*
X64059355Y-93197315D01*
X64185300Y-93222820D01*
X65085300Y-93222820D01*
X65202958Y-93200681D01*
X65311021Y-93131145D01*
X65320315Y-93117543D01*
X65435757Y-93233186D01*
X65662633Y-93327393D01*
X65908290Y-93327607D01*
X66130621Y-93235742D01*
X66194955Y-93335721D01*
X66293557Y-93403092D01*
X66185124Y-93448007D01*
X66065007Y-93568124D01*
X66000000Y-93725065D01*
X66000000Y-93976250D01*
X66106750Y-94083000D01*
X66675000Y-94083000D01*
X66675000Y-94063000D01*
X66929000Y-94063000D01*
X66929000Y-94083000D01*
X67497250Y-94083000D01*
X67604000Y-93976250D01*
X67604000Y-93725065D01*
X67538993Y-93568124D01*
X67418876Y-93448007D01*
X67308865Y-93402439D01*
X67402721Y-93342045D01*
X67475215Y-93235945D01*
X67500720Y-93110000D01*
X67500720Y-92310000D01*
X67478581Y-92192342D01*
X67409045Y-92084279D01*
X67302945Y-92011785D01*
X67216942Y-91994369D01*
X67189198Y-91854890D01*
X67158336Y-91808702D01*
X67098348Y-91718924D01*
X66789774Y-91410350D01*
X68976800Y-91410350D01*
X68976800Y-91661535D01*
X69041807Y-91818476D01*
X69161924Y-91938593D01*
X69318864Y-92003600D01*
X69545050Y-92003600D01*
X69651800Y-91896850D01*
X69651800Y-91303600D01*
X69905800Y-91303600D01*
X69905800Y-91896850D01*
X70012550Y-92003600D01*
X70238736Y-92003600D01*
X70395676Y-91938593D01*
X70515793Y-91818476D01*
X70580800Y-91661535D01*
X70580800Y-91410350D01*
X70474050Y-91303600D01*
X69905800Y-91303600D01*
X69651800Y-91303600D01*
X69083550Y-91303600D01*
X68976800Y-91410350D01*
X66789774Y-91410350D01*
X65832683Y-90453260D01*
X65944094Y-90378817D01*
X66034597Y-90243370D01*
X66062578Y-90102700D01*
X69084991Y-90102700D01*
X69102219Y-90194258D01*
X69171755Y-90302321D01*
X69270357Y-90369692D01*
X69161924Y-90414607D01*
X69041807Y-90534724D01*
X68976800Y-90691665D01*
X68976800Y-90942850D01*
X69083550Y-91049600D01*
X69651800Y-91049600D01*
X69651800Y-91029600D01*
X69905800Y-91029600D01*
X69905800Y-91049600D01*
X70474050Y-91049600D01*
X70580800Y-90942850D01*
X70580800Y-90691665D01*
X70515793Y-90534724D01*
X70395676Y-90414607D01*
X70285665Y-90369039D01*
X70379521Y-90308645D01*
X70452015Y-90202545D01*
X70473652Y-90095700D01*
X70792493Y-90095700D01*
X70919757Y-90223186D01*
X71146633Y-90317393D01*
X71392290Y-90317607D01*
X71619329Y-90223797D01*
X71793186Y-90050243D01*
X71887393Y-89823367D01*
X71887607Y-89577710D01*
X71793797Y-89350671D01*
X71724247Y-89281000D01*
X79629000Y-89281000D01*
X79678410Y-89270994D01*
X79720035Y-89242553D01*
X79747315Y-89200159D01*
X79756000Y-89154000D01*
X79756000Y-74331978D01*
X79839111Y-74415089D01*
X79987437Y-74514198D01*
X80162400Y-74549000D01*
X82067400Y-74549000D01*
X82242363Y-74514198D01*
X82390689Y-74415089D01*
X82905145Y-73900633D01*
X83004055Y-73968215D01*
X83130000Y-73993720D01*
X84830000Y-73993720D01*
X84947658Y-73971581D01*
X85055721Y-73902045D01*
X85128215Y-73795945D01*
X85153720Y-73670000D01*
X85153720Y-71970000D01*
X85131581Y-71852342D01*
X85062045Y-71744279D01*
X84955945Y-71671785D01*
X84830000Y-71646280D01*
X83229098Y-71646280D01*
X83274996Y-71600382D01*
X85243331Y-71585470D01*
X85243331Y-74300000D01*
X85266356Y-74422365D01*
X85338673Y-74534749D01*
X85449017Y-74610144D01*
X85580000Y-74636669D01*
X86662885Y-74636669D01*
X92003800Y-79977584D01*
X92003800Y-104939496D01*
X91763996Y-105179300D01*
X91200665Y-105179300D01*
X91200660Y-105179299D01*
X91200655Y-105179300D01*
X91093629Y-105179300D01*
X91056283Y-105088915D01*
X90752683Y-104784785D01*
X90355808Y-104619988D01*
X89926078Y-104619613D01*
X89528915Y-104783717D01*
X89224785Y-105087317D01*
X89059988Y-105484192D01*
X89059613Y-105913922D01*
X89223717Y-106311085D01*
X89527317Y-106615215D01*
X89924192Y-106780012D01*
X90163076Y-106780220D01*
X88186669Y-108756627D01*
X88186669Y-107370000D01*
X88163644Y-107247635D01*
X88091327Y-107135251D01*
X87980983Y-107059856D01*
X87850000Y-107033331D01*
X86150000Y-107033331D01*
X86027635Y-107056356D01*
X85915251Y-107128673D01*
X85839856Y-107239017D01*
X85813331Y-107370000D01*
X85813331Y-109070000D01*
X85836356Y-109192365D01*
X85908673Y-109304749D01*
X86019017Y-109380144D01*
X86150000Y-109406669D01*
X87536627Y-109406669D01*
X87157496Y-109785800D01*
X84997240Y-109785800D01*
X84814527Y-109512352D01*
X84431643Y-109256516D01*
X83980000Y-109166679D01*
X83528357Y-109256516D01*
X83145473Y-109512352D01*
X82962760Y-109785800D01*
X82457240Y-109785800D01*
X82274527Y-109512352D01*
X81891643Y-109256516D01*
X81440000Y-109166679D01*
X80988357Y-109256516D01*
X80605473Y-109512352D01*
X80349637Y-109895236D01*
X80259800Y-110346879D01*
X80259800Y-110393121D01*
X80349637Y-110844764D01*
X80605473Y-111227648D01*
X80988357Y-111483484D01*
X81061334Y-111498000D01*
X79482939Y-111498000D01*
X79544142Y-111472651D01*
X79917076Y-111142214D01*
X80135169Y-110694215D01*
X80063930Y-110497000D01*
X79027000Y-110497000D01*
X79027000Y-110517000D01*
X78773000Y-110517000D01*
X78773000Y-110497000D01*
X77736070Y-110497000D01*
X77664831Y-110694215D01*
X77882924Y-111142214D01*
X78255858Y-111472651D01*
X78317061Y-111498000D01*
X76738666Y-111498000D01*
X76811643Y-111483484D01*
X77194527Y-111227648D01*
X77450363Y-110844764D01*
X77540200Y-110393121D01*
X77540200Y-110346879D01*
X77480309Y-110045785D01*
X77664831Y-110045785D01*
X77736070Y-110243000D01*
X78773000Y-110243000D01*
X78773000Y-109206662D01*
X79027000Y-109206662D01*
X79027000Y-110243000D01*
X80063930Y-110243000D01*
X80135169Y-110045785D01*
X79917076Y-109597786D01*
X79544142Y-109267349D01*
X79224213Y-109134842D01*
X79027000Y-109206662D01*
X78773000Y-109206662D01*
X78575787Y-109134842D01*
X78255858Y-109267349D01*
X77882924Y-109597786D01*
X77664831Y-110045785D01*
X77480309Y-110045785D01*
X77450363Y-109895236D01*
X77194527Y-109512352D01*
X76811643Y-109256516D01*
X76360000Y-109166679D01*
X75908357Y-109256516D01*
X75525473Y-109512352D01*
X75269637Y-109895236D01*
X75179800Y-110346879D01*
X75179800Y-110393121D01*
X75269637Y-110844764D01*
X75525473Y-111227648D01*
X75908357Y-111483484D01*
X75981334Y-111498000D01*
X74198666Y-111498000D01*
X74271643Y-111483484D01*
X74654527Y-111227648D01*
X74910363Y-110844764D01*
X75000200Y-110393121D01*
X75000200Y-110346879D01*
X74910363Y-109895236D01*
X74654527Y-109512352D01*
X74271643Y-109256516D01*
X73820000Y-109166679D01*
X73368357Y-109256516D01*
X72985473Y-109512352D01*
X72729637Y-109895236D01*
X72639800Y-110346879D01*
X72639800Y-110393121D01*
X72729637Y-110844764D01*
X72985473Y-111227648D01*
X73368357Y-111483484D01*
X73441334Y-111498000D01*
X71658666Y-111498000D01*
X71731643Y-111483484D01*
X72114527Y-111227648D01*
X72370363Y-110844764D01*
X72460200Y-110393121D01*
X72460200Y-110346879D01*
X72370363Y-109895236D01*
X72114527Y-109512352D01*
X71731643Y-109256516D01*
X71280000Y-109166679D01*
X70828357Y-109256516D01*
X70819208Y-109262630D01*
X70323289Y-108766711D01*
X70174963Y-108667602D01*
X70000000Y-108632800D01*
X69611175Y-108632800D01*
X69830363Y-108304764D01*
X69920200Y-107853121D01*
X69920200Y-107806879D01*
X70099800Y-107806879D01*
X70099800Y-107853121D01*
X70189637Y-108304764D01*
X70445473Y-108687648D01*
X70828357Y-108943484D01*
X71280000Y-109033321D01*
X71731643Y-108943484D01*
X72114527Y-108687648D01*
X72370363Y-108304764D01*
X72400308Y-108154215D01*
X72584831Y-108154215D01*
X72802924Y-108602214D01*
X73175858Y-108932651D01*
X73495787Y-109065158D01*
X73693000Y-108993338D01*
X73693000Y-107957000D01*
X73947000Y-107957000D01*
X73947000Y-108993338D01*
X74144213Y-109065158D01*
X74464142Y-108932651D01*
X74837076Y-108602214D01*
X75055169Y-108154215D01*
X74983930Y-107957000D01*
X73947000Y-107957000D01*
X73693000Y-107957000D01*
X72656070Y-107957000D01*
X72584831Y-108154215D01*
X72400308Y-108154215D01*
X72460200Y-107853121D01*
X72460200Y-107807127D01*
X75192500Y-107807127D01*
X75192500Y-107852873D01*
X75281371Y-108299656D01*
X75534453Y-108678420D01*
X75913217Y-108931502D01*
X76360000Y-109020373D01*
X76806783Y-108931502D01*
X77185547Y-108678420D01*
X77438629Y-108299656D01*
X77527500Y-107852873D01*
X77527500Y-107807127D01*
X77732500Y-107807127D01*
X77732500Y-107852873D01*
X77821371Y-108299656D01*
X78074453Y-108678420D01*
X78453217Y-108931502D01*
X78900000Y-109020373D01*
X79346783Y-108931502D01*
X79725547Y-108678420D01*
X79978629Y-108299656D01*
X80067500Y-107852873D01*
X80067500Y-107807127D01*
X80272500Y-107807127D01*
X80272500Y-107852873D01*
X80361371Y-108299656D01*
X80614453Y-108678420D01*
X80993217Y-108931502D01*
X81440000Y-109020373D01*
X81886783Y-108931502D01*
X82265547Y-108678420D01*
X82518629Y-108299656D01*
X82607500Y-107852873D01*
X82607500Y-107807127D01*
X82518629Y-107360344D01*
X82265547Y-106981580D01*
X82263183Y-106980000D01*
X82806280Y-106980000D01*
X82806280Y-108680000D01*
X82828419Y-108797658D01*
X82897955Y-108905721D01*
X83004055Y-108978215D01*
X83130000Y-109003720D01*
X84830000Y-109003720D01*
X84947658Y-108981581D01*
X85055721Y-108912045D01*
X85128215Y-108805945D01*
X85153720Y-108680000D01*
X85153720Y-106980000D01*
X85131581Y-106862342D01*
X85062045Y-106754279D01*
X84955945Y-106681785D01*
X84830000Y-106656280D01*
X83130000Y-106656280D01*
X83012342Y-106678419D01*
X82904279Y-106747955D01*
X82831785Y-106854055D01*
X82806280Y-106980000D01*
X82263183Y-106980000D01*
X81886783Y-106728498D01*
X81440000Y-106639627D01*
X80993217Y-106728498D01*
X80614453Y-106981580D01*
X80361371Y-107360344D01*
X80272500Y-107807127D01*
X80067500Y-107807127D01*
X79978629Y-107360344D01*
X79725547Y-106981580D01*
X79346783Y-106728498D01*
X78900000Y-106639627D01*
X78453217Y-106728498D01*
X78074453Y-106981580D01*
X77821371Y-107360344D01*
X77732500Y-107807127D01*
X77527500Y-107807127D01*
X77438629Y-107360344D01*
X77185547Y-106981580D01*
X76806783Y-106728498D01*
X76360000Y-106639627D01*
X75913217Y-106728498D01*
X75534453Y-106981580D01*
X75281371Y-107360344D01*
X75192500Y-107807127D01*
X72460200Y-107807127D01*
X72460200Y-107806879D01*
X72400309Y-107505785D01*
X72584831Y-107505785D01*
X72656070Y-107703000D01*
X73693000Y-107703000D01*
X73693000Y-106666662D01*
X73947000Y-106666662D01*
X73947000Y-107703000D01*
X74983930Y-107703000D01*
X75055169Y-107505785D01*
X74837076Y-107057786D01*
X74464142Y-106727349D01*
X74144213Y-106594842D01*
X73947000Y-106666662D01*
X73693000Y-106666662D01*
X73495787Y-106594842D01*
X73175858Y-106727349D01*
X72802924Y-107057786D01*
X72584831Y-107505785D01*
X72400309Y-107505785D01*
X72370363Y-107355236D01*
X72114527Y-106972352D01*
X71731643Y-106716516D01*
X71280000Y-106626679D01*
X70828357Y-106716516D01*
X70445473Y-106972352D01*
X70189637Y-107355236D01*
X70099800Y-107806879D01*
X69920200Y-107806879D01*
X69830363Y-107355236D01*
X69574527Y-106972352D01*
X69191643Y-106716516D01*
X68740000Y-106626679D01*
X68288357Y-106716516D01*
X67905473Y-106972352D01*
X67649637Y-107355236D01*
X67559800Y-107806879D01*
X67559800Y-107853121D01*
X67649637Y-108304764D01*
X67868825Y-108632800D01*
X67056029Y-108632800D01*
X67278629Y-108299656D01*
X67367500Y-107852873D01*
X67367500Y-107807127D01*
X67278629Y-107360344D01*
X67025547Y-106981580D01*
X66646783Y-106728498D01*
X66200000Y-106639627D01*
X65753217Y-106728498D01*
X65374453Y-106981580D01*
X65121371Y-107360344D01*
X65032500Y-107807127D01*
X65032500Y-107852873D01*
X65121371Y-108299656D01*
X65343971Y-108632800D01*
X64531175Y-108632800D01*
X64750363Y-108304764D01*
X64840200Y-107853121D01*
X64840200Y-107806879D01*
X64785301Y-107530883D01*
X66636184Y-105680000D01*
X85796679Y-105680000D01*
X85886516Y-106131643D01*
X86142352Y-106514527D01*
X86525236Y-106770363D01*
X86976879Y-106860200D01*
X87023121Y-106860200D01*
X87474764Y-106770363D01*
X87857648Y-106514527D01*
X88113484Y-106131643D01*
X88203321Y-105680000D01*
X88113484Y-105228357D01*
X87857648Y-104845473D01*
X87474764Y-104589637D01*
X87023121Y-104499800D01*
X86976879Y-104499800D01*
X86525236Y-104589637D01*
X86142352Y-104845473D01*
X85886516Y-105228357D01*
X85796679Y-105680000D01*
X66636184Y-105680000D01*
X68851971Y-103464213D01*
X85764842Y-103464213D01*
X85897349Y-103784142D01*
X86227786Y-104157076D01*
X86675785Y-104375169D01*
X86873000Y-104303930D01*
X86873000Y-103267000D01*
X87127000Y-103267000D01*
X87127000Y-104303930D01*
X87324215Y-104375169D01*
X87772214Y-104157076D01*
X87895747Y-104017655D01*
X89441950Y-104017655D01*
X89521329Y-104200065D01*
X89964916Y-104349996D01*
X90432113Y-104318761D01*
X90718671Y-104200065D01*
X90798050Y-104017655D01*
X90120000Y-103339605D01*
X89441950Y-104017655D01*
X87895747Y-104017655D01*
X88102651Y-103784142D01*
X88235158Y-103464213D01*
X88163338Y-103267000D01*
X87127000Y-103267000D01*
X86873000Y-103267000D01*
X85836662Y-103267000D01*
X85764842Y-103464213D01*
X68851971Y-103464213D01*
X69138084Y-103178100D01*
X85006100Y-103178100D01*
X85229664Y-103133630D01*
X85419192Y-103006992D01*
X85874034Y-102552149D01*
X85764842Y-102815787D01*
X85836662Y-103013000D01*
X86873000Y-103013000D01*
X86873000Y-101976070D01*
X87127000Y-101976070D01*
X87127000Y-103013000D01*
X88163338Y-103013000D01*
X88166281Y-103004916D01*
X88930004Y-103004916D01*
X88961239Y-103472113D01*
X89079935Y-103758671D01*
X89262345Y-103838050D01*
X89940395Y-103160000D01*
X90299605Y-103160000D01*
X90977655Y-103838050D01*
X91160065Y-103758671D01*
X91309996Y-103315084D01*
X91278761Y-102847887D01*
X91160065Y-102561329D01*
X90977655Y-102481950D01*
X90299605Y-103160000D01*
X89940395Y-103160000D01*
X89262345Y-102481950D01*
X89079935Y-102561329D01*
X88930004Y-103004916D01*
X88166281Y-103004916D01*
X88235158Y-102815787D01*
X88102651Y-102495858D01*
X87931190Y-102302345D01*
X89441950Y-102302345D01*
X90120000Y-102980395D01*
X90798050Y-102302345D01*
X90718671Y-102119935D01*
X90275084Y-101970004D01*
X89807887Y-102001239D01*
X89521329Y-102119935D01*
X89441950Y-102302345D01*
X87931190Y-102302345D01*
X87772214Y-102122924D01*
X87324215Y-101904831D01*
X87127000Y-101976070D01*
X86873000Y-101976070D01*
X86675785Y-101904831D01*
X86374855Y-102051328D01*
X86700882Y-101725301D01*
X86976879Y-101780200D01*
X87023121Y-101780200D01*
X87474764Y-101690363D01*
X87857648Y-101434527D01*
X88113484Y-101051643D01*
X88203321Y-100600000D01*
X88113484Y-100148357D01*
X87857648Y-99765473D01*
X87474764Y-99509637D01*
X87023121Y-99419800D01*
X86976879Y-99419800D01*
X86525236Y-99509637D01*
X86142352Y-99765473D01*
X85886516Y-100148357D01*
X85796679Y-100600000D01*
X85859250Y-100914567D01*
X84764116Y-102009700D01*
X68896105Y-102009700D01*
X68896100Y-102009699D01*
X68672537Y-102054169D01*
X68483008Y-102180808D01*
X63974566Y-106689250D01*
X63660000Y-106626679D01*
X63208357Y-106716516D01*
X62825473Y-106972352D01*
X62569637Y-107355236D01*
X62479800Y-107806879D01*
X62479800Y-107853121D01*
X62569637Y-108304764D01*
X62788825Y-108632800D01*
X61976029Y-108632800D01*
X62198629Y-108299656D01*
X62287500Y-107852873D01*
X62287500Y-107807127D01*
X62198629Y-107360344D01*
X61945547Y-106981580D01*
X61566783Y-106728498D01*
X61120000Y-106639627D01*
X60673217Y-106728498D01*
X60294453Y-106981580D01*
X60041371Y-107360344D01*
X59952500Y-107807127D01*
X59952500Y-107852873D01*
X60041371Y-108299656D01*
X60263971Y-108632800D01*
X59436029Y-108632800D01*
X59658629Y-108299656D01*
X59747500Y-107852873D01*
X59747500Y-107807127D01*
X59658629Y-107360344D01*
X59405547Y-106981580D01*
X59026783Y-106728498D01*
X58580000Y-106639627D01*
X58133217Y-106728498D01*
X57754453Y-106981580D01*
X57501371Y-107360344D01*
X57412500Y-107807127D01*
X57412500Y-107852873D01*
X57501371Y-108299656D01*
X57723971Y-108632800D01*
X56896029Y-108632800D01*
X57118629Y-108299656D01*
X57207500Y-107852873D01*
X57207500Y-107807127D01*
X57118629Y-107360344D01*
X56865547Y-106981580D01*
X56486783Y-106728498D01*
X56040000Y-106639627D01*
X55593217Y-106728498D01*
X55214453Y-106981580D01*
X54961371Y-107360344D01*
X54872500Y-107807127D01*
X54872500Y-107852873D01*
X54961371Y-108299656D01*
X55183971Y-108632800D01*
X54491578Y-108632800D01*
X51852600Y-105993822D01*
X51852600Y-65849150D01*
X51941367Y-65982000D01*
X51959508Y-66009150D01*
X51998306Y-66047947D01*
X51998308Y-66047950D01*
X52019981Y-66069623D01*
X52068308Y-66141950D01*
X52154069Y-66199253D01*
X52993334Y-67038518D01*
X53039031Y-67149113D01*
X53216154Y-67326546D01*
X53447696Y-67422690D01*
X53698405Y-67422909D01*
X53930113Y-67327169D01*
X54107546Y-67150046D01*
X54203690Y-66918504D01*
X54203909Y-66667795D01*
X54108169Y-66436087D01*
X53931046Y-66258654D01*
X53819535Y-66212351D01*
X52956800Y-65349616D01*
X52956800Y-65120050D01*
X54754000Y-65120050D01*
X54754000Y-65223235D01*
X54819007Y-65380176D01*
X54939124Y-65500293D01*
X55096064Y-65565300D01*
X55397250Y-65565300D01*
X55504000Y-65458550D01*
X55504000Y-65013300D01*
X55758000Y-65013300D01*
X55758000Y-65458550D01*
X55864750Y-65565300D01*
X56165936Y-65565300D01*
X56322876Y-65500293D01*
X56434419Y-65388750D01*
X56645100Y-65388750D01*
X56645100Y-65639935D01*
X56710107Y-65796876D01*
X56830224Y-65916993D01*
X56987164Y-65982000D01*
X57213350Y-65982000D01*
X57320100Y-65875250D01*
X57320100Y-65282000D01*
X57574100Y-65282000D01*
X57574100Y-65875250D01*
X57680850Y-65982000D01*
X57907036Y-65982000D01*
X58063976Y-65916993D01*
X58184093Y-65796876D01*
X58249100Y-65639935D01*
X58249100Y-65388750D01*
X58142350Y-65282000D01*
X57574100Y-65282000D01*
X57320100Y-65282000D01*
X56751850Y-65282000D01*
X56645100Y-65388750D01*
X56434419Y-65388750D01*
X56442993Y-65380176D01*
X56508000Y-65223235D01*
X56508000Y-65120050D01*
X56401250Y-65013300D01*
X55758000Y-65013300D01*
X55504000Y-65013300D01*
X54860750Y-65013300D01*
X54754000Y-65120050D01*
X52956800Y-65120050D01*
X52956800Y-64553365D01*
X54754000Y-64553365D01*
X54754000Y-64656550D01*
X54860750Y-64763300D01*
X55504000Y-64763300D01*
X55504000Y-64318050D01*
X55758000Y-64318050D01*
X55758000Y-64763300D01*
X56401250Y-64763300D01*
X56508000Y-64656550D01*
X56508000Y-64553365D01*
X56442993Y-64396424D01*
X56322876Y-64276307D01*
X56165936Y-64211300D01*
X55864750Y-64211300D01*
X55758000Y-64318050D01*
X55504000Y-64318050D01*
X55397250Y-64211300D01*
X55096064Y-64211300D01*
X54939124Y-64276307D01*
X54819007Y-64396424D01*
X54754000Y-64553365D01*
X52956800Y-64553365D01*
X52956800Y-63936254D01*
X53007349Y-63903727D01*
X53071494Y-63809848D01*
X53110607Y-63904276D01*
X53230724Y-64024393D01*
X53387665Y-64089400D01*
X53638850Y-64089400D01*
X53745600Y-63982650D01*
X53745600Y-63414400D01*
X53999600Y-63414400D01*
X53999600Y-63982650D01*
X54106350Y-64089400D01*
X54357535Y-64089400D01*
X54514476Y-64024393D01*
X54634593Y-63904276D01*
X54699600Y-63747336D01*
X54699600Y-63521150D01*
X54592850Y-63414400D01*
X53999600Y-63414400D01*
X53745600Y-63414400D01*
X53725600Y-63414400D01*
X53725600Y-63160400D01*
X53745600Y-63160400D01*
X53745600Y-62592150D01*
X53999600Y-62592150D01*
X53999600Y-63160400D01*
X54592850Y-63160400D01*
X54699600Y-63053650D01*
X54699600Y-62827464D01*
X54634593Y-62670524D01*
X54514476Y-62550407D01*
X54357535Y-62485400D01*
X54106350Y-62485400D01*
X53999600Y-62592150D01*
X53745600Y-62592150D01*
X53638850Y-62485400D01*
X53387665Y-62485400D01*
X53230724Y-62550407D01*
X53110607Y-62670524D01*
X53070949Y-62766266D01*
X53033000Y-62707291D01*
X53033000Y-61819192D01*
X53035469Y-61807000D01*
X53035469Y-60907000D01*
X53362131Y-60907000D01*
X53362131Y-61807000D01*
X53385156Y-61929365D01*
X53457473Y-62041749D01*
X53567817Y-62117144D01*
X53698800Y-62143669D01*
X54198800Y-62143669D01*
X54321165Y-62120644D01*
X54433549Y-62048327D01*
X54508944Y-61937983D01*
X54513436Y-61915800D01*
X54947163Y-61915800D01*
X54994403Y-61948078D01*
X55046800Y-61958689D01*
X55046800Y-62832272D01*
X54946251Y-62896973D01*
X54870856Y-63007317D01*
X54844331Y-63138300D01*
X54844331Y-63638300D01*
X54867356Y-63760665D01*
X54939673Y-63873049D01*
X55050017Y-63948444D01*
X55181000Y-63974969D01*
X56081000Y-63974969D01*
X56203365Y-63951944D01*
X56315749Y-63879627D01*
X56391144Y-63769283D01*
X56417669Y-63638300D01*
X56417669Y-63138300D01*
X56394644Y-63015935D01*
X56322327Y-62903551D01*
X56215200Y-62830354D01*
X56215200Y-61968993D01*
X56307751Y-61951578D01*
X56420135Y-61879261D01*
X56495530Y-61768917D01*
X56522055Y-61637934D01*
X56522055Y-60987934D01*
X56516861Y-60960328D01*
X56547379Y-60929810D01*
X56612386Y-60772870D01*
X56612386Y-60596684D01*
X56505636Y-60489934D01*
X55782386Y-60489934D01*
X55782386Y-60509934D01*
X55528386Y-60509934D01*
X55528386Y-60489934D01*
X54805136Y-60489934D01*
X54698386Y-60596684D01*
X54698386Y-60747400D01*
X54488484Y-60747400D01*
X54440127Y-60672251D01*
X54329783Y-60596856D01*
X54198800Y-60570331D01*
X53698800Y-60570331D01*
X53576435Y-60593356D01*
X53464051Y-60665673D01*
X53388656Y-60776017D01*
X53362131Y-60907000D01*
X53035469Y-60907000D01*
X53033000Y-60893879D01*
X53033000Y-59890684D01*
X53130515Y-59793169D01*
X53691000Y-59793169D01*
X53813365Y-59770144D01*
X53925749Y-59697827D01*
X54001144Y-59587483D01*
X54027669Y-59456500D01*
X54027669Y-58556500D01*
X54004644Y-58434135D01*
X53932327Y-58321751D01*
X53821983Y-58246356D01*
X53691000Y-58219831D01*
X52491000Y-58219831D01*
X52368635Y-58242856D01*
X52256251Y-58315173D01*
X52180856Y-58425517D01*
X52154331Y-58556500D01*
X52154331Y-59116985D01*
X52035708Y-59235608D01*
X51909070Y-59425136D01*
X51864600Y-59648700D01*
X51864600Y-60894808D01*
X51862131Y-60907000D01*
X51862131Y-61807000D01*
X51864600Y-61820121D01*
X51864600Y-62596053D01*
X51852600Y-62598311D01*
X51852600Y-55256500D01*
X52154331Y-55256500D01*
X52154331Y-56156500D01*
X52177356Y-56278865D01*
X52249673Y-56391249D01*
X52360017Y-56466644D01*
X52491000Y-56493169D01*
X53691000Y-56493169D01*
X53813365Y-56470144D01*
X53925749Y-56397827D01*
X53998946Y-56290700D01*
X55071186Y-56290700D01*
X55071186Y-58761464D01*
X55003021Y-58774290D01*
X54890637Y-58846607D01*
X54815242Y-58956951D01*
X54788717Y-59087934D01*
X54788717Y-59737934D01*
X54793911Y-59765540D01*
X54763393Y-59796058D01*
X54698386Y-59952998D01*
X54698386Y-60129184D01*
X54805136Y-60235934D01*
X55528386Y-60235934D01*
X55528386Y-60215934D01*
X55782386Y-60215934D01*
X55782386Y-60235934D01*
X56505636Y-60235934D01*
X56612386Y-60129184D01*
X56612386Y-59952998D01*
X56547379Y-59796058D01*
X56516531Y-59765210D01*
X56522055Y-59737934D01*
X56522055Y-59087934D01*
X56499030Y-58965569D01*
X56426713Y-58853185D01*
X56316369Y-58777790D01*
X56239586Y-58762241D01*
X56239586Y-57938969D01*
X57040900Y-57938969D01*
X57163265Y-57915944D01*
X57275649Y-57843627D01*
X57351044Y-57733283D01*
X57377569Y-57602300D01*
X57377569Y-53402300D01*
X57354544Y-53279935D01*
X57282227Y-53167551D01*
X57171883Y-53092156D01*
X57040900Y-53065631D01*
X55840900Y-53065631D01*
X55718535Y-53088656D01*
X55715782Y-53090427D01*
X55712567Y-53091050D01*
X55659688Y-53126523D01*
X55606151Y-53160973D01*
X55604304Y-53163676D01*
X55601584Y-53165501D01*
X55566669Y-53218757D01*
X55530756Y-53271317D01*
X55530106Y-53274526D01*
X55528311Y-53277264D01*
X55128311Y-54277264D01*
X55104231Y-54402300D01*
X55104231Y-55122300D01*
X53997028Y-55122300D01*
X53932327Y-55021751D01*
X53821983Y-54946356D01*
X53691000Y-54919831D01*
X52491000Y-54919831D01*
X52368635Y-54942856D01*
X52256251Y-55015173D01*
X52180856Y-55125517D01*
X52154331Y-55256500D01*
X51852600Y-55256500D01*
X51852600Y-54432578D01*
X51960389Y-54324789D01*
X52370100Y-54324789D01*
X52492465Y-54301764D01*
X52604849Y-54229447D01*
X52680244Y-54119103D01*
X52706769Y-53988120D01*
X52706769Y-53088120D01*
X53033431Y-53088120D01*
X53033431Y-53988120D01*
X53056456Y-54110485D01*
X53128773Y-54222869D01*
X53239117Y-54298264D01*
X53370100Y-54324789D01*
X53870100Y-54324789D01*
X53992465Y-54301764D01*
X54104849Y-54229447D01*
X54180244Y-54119103D01*
X54206769Y-53988120D01*
X54206769Y-53088120D01*
X54183744Y-52965755D01*
X54140800Y-52899018D01*
X54140800Y-52795522D01*
X54347821Y-52588500D01*
X54404543Y-52588500D01*
X54404856Y-52590165D01*
X54477173Y-52702549D01*
X54587517Y-52777944D01*
X54718500Y-52804469D01*
X55318500Y-52804469D01*
X55440865Y-52781444D01*
X55553249Y-52709127D01*
X55628644Y-52598783D01*
X55655169Y-52467800D01*
X55655169Y-51667800D01*
X55632144Y-51545435D01*
X55559827Y-51433051D01*
X55449483Y-51357656D01*
X55318500Y-51331131D01*
X54718500Y-51331131D01*
X54596135Y-51354156D01*
X54483751Y-51426473D01*
X54408356Y-51536817D01*
X54406274Y-51547100D01*
X54132145Y-51547100D01*
X54132140Y-51547099D01*
X53932877Y-51586736D01*
X53763949Y-51699609D01*
X53763947Y-51699612D01*
X53251909Y-52211649D01*
X53139036Y-52380577D01*
X53099399Y-52579840D01*
X53099400Y-52579845D01*
X53099400Y-52899409D01*
X53059956Y-52957137D01*
X53033431Y-53088120D01*
X52706769Y-53088120D01*
X52683744Y-52965755D01*
X52611427Y-52853371D01*
X52501083Y-52777976D01*
X52370100Y-52751451D01*
X51870100Y-52751451D01*
X51747735Y-52774476D01*
X51635351Y-52846793D01*
X51559956Y-52957137D01*
X51533431Y-53088120D01*
X51533431Y-53458590D01*
X51102000Y-53890022D01*
X51102000Y-51302000D01*
X58076022Y-51302000D01*
X58038137Y-51309536D01*
G36*
X67722924Y-109597786D02*
X67504831Y-110045785D01*
X67576070Y-110243000D01*
X68613000Y-110243000D01*
X68613000Y-110223000D01*
X68867000Y-110223000D01*
X68867000Y-110243000D01*
X69903930Y-110243000D01*
X69975169Y-110045785D01*
X69757076Y-109597786D01*
X69699984Y-109547200D01*
X69810622Y-109547200D01*
X70184497Y-109921075D01*
X70099800Y-110346879D01*
X70099800Y-110393121D01*
X70189637Y-110844764D01*
X70445473Y-111227648D01*
X70828357Y-111483484D01*
X70901334Y-111498000D01*
X69322939Y-111498000D01*
X69384142Y-111472651D01*
X69757076Y-111142214D01*
X69975169Y-110694215D01*
X69903930Y-110497000D01*
X68867000Y-110497000D01*
X68867000Y-110517000D01*
X68613000Y-110517000D01*
X68613000Y-110497000D01*
X67576070Y-110497000D01*
X67504831Y-110694215D01*
X67722924Y-111142214D01*
X68095858Y-111472651D01*
X68157061Y-111498000D01*
X66513569Y-111498000D01*
X66646783Y-111471502D01*
X67025547Y-111218420D01*
X67278629Y-110839656D01*
X67367500Y-110392873D01*
X67367500Y-110347127D01*
X67278629Y-109900344D01*
X67042666Y-109547200D01*
X67780016Y-109547200D01*
X67722924Y-109597786D01*
X67722924Y-109597786D01*
G37*
X67722924Y-109597786D02*
X67504831Y-110045785D01*
X67576070Y-110243000D01*
X68613000Y-110243000D01*
X68613000Y-110223000D01*
X68867000Y-110223000D01*
X68867000Y-110243000D01*
X69903930Y-110243000D01*
X69975169Y-110045785D01*
X69757076Y-109597786D01*
X69699984Y-109547200D01*
X69810622Y-109547200D01*
X70184497Y-109921075D01*
X70099800Y-110346879D01*
X70099800Y-110393121D01*
X70189637Y-110844764D01*
X70445473Y-111227648D01*
X70828357Y-111483484D01*
X70901334Y-111498000D01*
X69322939Y-111498000D01*
X69384142Y-111472651D01*
X69757076Y-111142214D01*
X69975169Y-110694215D01*
X69903930Y-110497000D01*
X68867000Y-110497000D01*
X68867000Y-110517000D01*
X68613000Y-110517000D01*
X68613000Y-110497000D01*
X67576070Y-110497000D01*
X67504831Y-110694215D01*
X67722924Y-111142214D01*
X68095858Y-111472651D01*
X68157061Y-111498000D01*
X66513569Y-111498000D01*
X66646783Y-111471502D01*
X67025547Y-111218420D01*
X67278629Y-110839656D01*
X67367500Y-110392873D01*
X67367500Y-110347127D01*
X67278629Y-109900344D01*
X67042666Y-109547200D01*
X67780016Y-109547200D01*
X67722924Y-109597786D01*
G36*
X60102924Y-109597786D02*
X59884831Y-110045785D01*
X59956070Y-110243000D01*
X60993000Y-110243000D01*
X60993000Y-110223000D01*
X61247000Y-110223000D01*
X61247000Y-110243000D01*
X62283930Y-110243000D01*
X62355169Y-110045785D01*
X62137076Y-109597786D01*
X62079984Y-109547200D01*
X62817334Y-109547200D01*
X62581371Y-109900344D01*
X62492500Y-110347127D01*
X62492500Y-110392873D01*
X62581371Y-110839656D01*
X62834453Y-111218420D01*
X63213217Y-111471502D01*
X63346431Y-111498000D01*
X61702939Y-111498000D01*
X61764142Y-111472651D01*
X62137076Y-111142214D01*
X62355169Y-110694215D01*
X62283930Y-110497000D01*
X61247000Y-110497000D01*
X61247000Y-110517000D01*
X60993000Y-110517000D01*
X60993000Y-110497000D01*
X59956070Y-110497000D01*
X59884831Y-110694215D01*
X60102924Y-111142214D01*
X60475858Y-111472651D01*
X60537061Y-111498000D01*
X58893569Y-111498000D01*
X59026783Y-111471502D01*
X59405547Y-111218420D01*
X59658629Y-110839656D01*
X59747500Y-110392873D01*
X59747500Y-110347127D01*
X59658629Y-109900344D01*
X59422666Y-109547200D01*
X60160016Y-109547200D01*
X60102924Y-109597786D01*
X60102924Y-109597786D01*
G37*
X60102924Y-109597786D02*
X59884831Y-110045785D01*
X59956070Y-110243000D01*
X60993000Y-110243000D01*
X60993000Y-110223000D01*
X61247000Y-110223000D01*
X61247000Y-110243000D01*
X62283930Y-110243000D01*
X62355169Y-110045785D01*
X62137076Y-109597786D01*
X62079984Y-109547200D01*
X62817334Y-109547200D01*
X62581371Y-109900344D01*
X62492500Y-110347127D01*
X62492500Y-110392873D01*
X62581371Y-110839656D01*
X62834453Y-111218420D01*
X63213217Y-111471502D01*
X63346431Y-111498000D01*
X61702939Y-111498000D01*
X61764142Y-111472651D01*
X62137076Y-111142214D01*
X62355169Y-110694215D01*
X62283930Y-110497000D01*
X61247000Y-110497000D01*
X61247000Y-110517000D01*
X60993000Y-110517000D01*
X60993000Y-110497000D01*
X59956070Y-110497000D01*
X59884831Y-110694215D01*
X60102924Y-111142214D01*
X60475858Y-111472651D01*
X60537061Y-111498000D01*
X58893569Y-111498000D01*
X59026783Y-111471502D01*
X59405547Y-111218420D01*
X59658629Y-110839656D01*
X59747500Y-110392873D01*
X59747500Y-110347127D01*
X59658629Y-109900344D01*
X59422666Y-109547200D01*
X60160016Y-109547200D01*
X60102924Y-109597786D01*
G36*
X61100080Y-85406447D02*
X61135800Y-85459906D01*
X61135800Y-85650865D01*
X61212800Y-85738852D01*
X61212800Y-86356600D01*
X62358800Y-86356600D01*
X62358800Y-86336600D01*
X62612800Y-86336600D01*
X62612800Y-86356600D01*
X63758800Y-86356600D01*
X63758800Y-86336600D01*
X64012800Y-86336600D01*
X64012800Y-86356600D01*
X64032800Y-86356600D01*
X64032800Y-86610600D01*
X64012800Y-86610600D01*
X64012800Y-87756600D01*
X64032800Y-87756600D01*
X64032800Y-88010600D01*
X64012800Y-88010600D01*
X64012800Y-89156600D01*
X64630548Y-89156600D01*
X64718535Y-89233600D01*
X64909494Y-89233600D01*
X64962953Y-89269320D01*
X65034744Y-89283600D01*
X64962953Y-89297880D01*
X64909494Y-89333600D01*
X64718535Y-89333600D01*
X64630548Y-89410600D01*
X64012800Y-89410600D01*
X64012800Y-90028348D01*
X63935800Y-90116335D01*
X63935800Y-90307294D01*
X63900080Y-90360753D01*
X63885800Y-90432544D01*
X63871520Y-90360753D01*
X63835800Y-90307294D01*
X63835800Y-90116335D01*
X63758800Y-90028348D01*
X63758800Y-89410600D01*
X62612800Y-89410600D01*
X62612800Y-89430600D01*
X62358800Y-89430600D01*
X62358800Y-89410600D01*
X61212800Y-89410600D01*
X61212800Y-89430600D01*
X60958800Y-89430600D01*
X60958800Y-89410600D01*
X60938800Y-89410600D01*
X60938800Y-89156600D01*
X60958800Y-89156600D01*
X60958800Y-88010600D01*
X61212800Y-88010600D01*
X61212800Y-89156600D01*
X62358800Y-89156600D01*
X62358800Y-88010600D01*
X62612800Y-88010600D01*
X62612800Y-89156600D01*
X63758800Y-89156600D01*
X63758800Y-88010600D01*
X62612800Y-88010600D01*
X62358800Y-88010600D01*
X61212800Y-88010600D01*
X60958800Y-88010600D01*
X60938800Y-88010600D01*
X60938800Y-87756600D01*
X60958800Y-87756600D01*
X60958800Y-86610600D01*
X61212800Y-86610600D01*
X61212800Y-87756600D01*
X62358800Y-87756600D01*
X62358800Y-86610600D01*
X62612800Y-86610600D01*
X62612800Y-87756600D01*
X63758800Y-87756600D01*
X63758800Y-86610600D01*
X62612800Y-86610600D01*
X62358800Y-86610600D01*
X61212800Y-86610600D01*
X60958800Y-86610600D01*
X60938800Y-86610600D01*
X60938800Y-86356600D01*
X60958800Y-86356600D01*
X60958800Y-85738852D01*
X61035800Y-85650865D01*
X61035800Y-85459906D01*
X61071520Y-85406447D01*
X61085800Y-85334656D01*
X61100080Y-85406447D01*
X61100080Y-85406447D01*
G37*
X61100080Y-85406447D02*
X61135800Y-85459906D01*
X61135800Y-85650865D01*
X61212800Y-85738852D01*
X61212800Y-86356600D01*
X62358800Y-86356600D01*
X62358800Y-86336600D01*
X62612800Y-86336600D01*
X62612800Y-86356600D01*
X63758800Y-86356600D01*
X63758800Y-86336600D01*
X64012800Y-86336600D01*
X64012800Y-86356600D01*
X64032800Y-86356600D01*
X64032800Y-86610600D01*
X64012800Y-86610600D01*
X64012800Y-87756600D01*
X64032800Y-87756600D01*
X64032800Y-88010600D01*
X64012800Y-88010600D01*
X64012800Y-89156600D01*
X64630548Y-89156600D01*
X64718535Y-89233600D01*
X64909494Y-89233600D01*
X64962953Y-89269320D01*
X65034744Y-89283600D01*
X64962953Y-89297880D01*
X64909494Y-89333600D01*
X64718535Y-89333600D01*
X64630548Y-89410600D01*
X64012800Y-89410600D01*
X64012800Y-90028348D01*
X63935800Y-90116335D01*
X63935800Y-90307294D01*
X63900080Y-90360753D01*
X63885800Y-90432544D01*
X63871520Y-90360753D01*
X63835800Y-90307294D01*
X63835800Y-90116335D01*
X63758800Y-90028348D01*
X63758800Y-89410600D01*
X62612800Y-89410600D01*
X62612800Y-89430600D01*
X62358800Y-89430600D01*
X62358800Y-89410600D01*
X61212800Y-89410600D01*
X61212800Y-89430600D01*
X60958800Y-89430600D01*
X60958800Y-89410600D01*
X60938800Y-89410600D01*
X60938800Y-89156600D01*
X60958800Y-89156600D01*
X60958800Y-88010600D01*
X61212800Y-88010600D01*
X61212800Y-89156600D01*
X62358800Y-89156600D01*
X62358800Y-88010600D01*
X62612800Y-88010600D01*
X62612800Y-89156600D01*
X63758800Y-89156600D01*
X63758800Y-88010600D01*
X62612800Y-88010600D01*
X62358800Y-88010600D01*
X61212800Y-88010600D01*
X60958800Y-88010600D01*
X60938800Y-88010600D01*
X60938800Y-87756600D01*
X60958800Y-87756600D01*
X60958800Y-86610600D01*
X61212800Y-86610600D01*
X61212800Y-87756600D01*
X62358800Y-87756600D01*
X62358800Y-86610600D01*
X62612800Y-86610600D01*
X62612800Y-87756600D01*
X63758800Y-87756600D01*
X63758800Y-86610600D01*
X62612800Y-86610600D01*
X62358800Y-86610600D01*
X61212800Y-86610600D01*
X60958800Y-86610600D01*
X60938800Y-86610600D01*
X60938800Y-86356600D01*
X60958800Y-86356600D01*
X60958800Y-85738852D01*
X61035800Y-85650865D01*
X61035800Y-85459906D01*
X61071520Y-85406447D01*
X61085800Y-85334656D01*
X61100080Y-85406447D01*
G36*
X73268581Y-86735070D02*
X68420120Y-86738612D01*
X68420120Y-86078300D01*
X68397981Y-85960642D01*
X68328445Y-85852579D01*
X68229843Y-85785208D01*
X68338276Y-85740293D01*
X68458393Y-85620176D01*
X68523400Y-85463235D01*
X68523400Y-85212050D01*
X68416650Y-85105300D01*
X67848400Y-85105300D01*
X67848400Y-85125300D01*
X67594400Y-85125300D01*
X67594400Y-85105300D01*
X67026150Y-85105300D01*
X66919400Y-85212050D01*
X66919400Y-85463235D01*
X66984407Y-85620176D01*
X67104524Y-85740293D01*
X67214535Y-85785861D01*
X67120679Y-85846255D01*
X67075690Y-85912100D01*
X66901190Y-85912100D01*
X66790667Y-85866207D01*
X66642474Y-85866078D01*
X66563648Y-85787252D01*
X66514751Y-85754580D01*
X66427683Y-85696402D01*
X66267300Y-85664500D01*
X66062578Y-85664500D01*
X66034597Y-85523830D01*
X65944094Y-85388383D01*
X65808647Y-85297880D01*
X65648877Y-85266100D01*
X65230903Y-85266100D01*
X65239966Y-85196838D01*
X65120642Y-85110600D01*
X64735800Y-85110600D01*
X64735800Y-85130600D01*
X64703300Y-85130600D01*
X64703300Y-85031644D01*
X64704900Y-85023600D01*
X64703300Y-85015556D01*
X64703300Y-84991644D01*
X64704900Y-84983600D01*
X64704900Y-84963000D01*
X68326000Y-84963000D01*
X68375410Y-84952994D01*
X68417035Y-84924553D01*
X68444315Y-84882159D01*
X68452999Y-84835564D01*
X68452928Y-84815022D01*
X68523400Y-84744550D01*
X68523400Y-84493365D01*
X68458393Y-84336424D01*
X68451259Y-84329290D01*
X68447354Y-83193005D01*
X68532565Y-83228300D01*
X68783750Y-83228300D01*
X68890500Y-83121550D01*
X68890500Y-82553300D01*
X69144500Y-82553300D01*
X69144500Y-83121550D01*
X69251250Y-83228300D01*
X69502435Y-83228300D01*
X69659376Y-83163293D01*
X69779493Y-83043176D01*
X69844500Y-82886236D01*
X69844500Y-82660050D01*
X69737750Y-82553300D01*
X69144500Y-82553300D01*
X68890500Y-82553300D01*
X68870500Y-82553300D01*
X68870500Y-82299300D01*
X68890500Y-82299300D01*
X68890500Y-82279300D01*
X69144500Y-82279300D01*
X69144500Y-82299300D01*
X69737750Y-82299300D01*
X69844500Y-82192550D01*
X69844500Y-82004143D01*
X73258938Y-81999011D01*
X73268581Y-86735070D01*
X73268581Y-86735070D01*
G37*
X73268581Y-86735070D02*
X68420120Y-86738612D01*
X68420120Y-86078300D01*
X68397981Y-85960642D01*
X68328445Y-85852579D01*
X68229843Y-85785208D01*
X68338276Y-85740293D01*
X68458393Y-85620176D01*
X68523400Y-85463235D01*
X68523400Y-85212050D01*
X68416650Y-85105300D01*
X67848400Y-85105300D01*
X67848400Y-85125300D01*
X67594400Y-85125300D01*
X67594400Y-85105300D01*
X67026150Y-85105300D01*
X66919400Y-85212050D01*
X66919400Y-85463235D01*
X66984407Y-85620176D01*
X67104524Y-85740293D01*
X67214535Y-85785861D01*
X67120679Y-85846255D01*
X67075690Y-85912100D01*
X66901190Y-85912100D01*
X66790667Y-85866207D01*
X66642474Y-85866078D01*
X66563648Y-85787252D01*
X66514751Y-85754580D01*
X66427683Y-85696402D01*
X66267300Y-85664500D01*
X66062578Y-85664500D01*
X66034597Y-85523830D01*
X65944094Y-85388383D01*
X65808647Y-85297880D01*
X65648877Y-85266100D01*
X65230903Y-85266100D01*
X65239966Y-85196838D01*
X65120642Y-85110600D01*
X64735800Y-85110600D01*
X64735800Y-85130600D01*
X64703300Y-85130600D01*
X64703300Y-85031644D01*
X64704900Y-85023600D01*
X64703300Y-85015556D01*
X64703300Y-84991644D01*
X64704900Y-84983600D01*
X64704900Y-84963000D01*
X68326000Y-84963000D01*
X68375410Y-84952994D01*
X68417035Y-84924553D01*
X68444315Y-84882159D01*
X68452999Y-84835564D01*
X68452928Y-84815022D01*
X68523400Y-84744550D01*
X68523400Y-84493365D01*
X68458393Y-84336424D01*
X68451259Y-84329290D01*
X68447354Y-83193005D01*
X68532565Y-83228300D01*
X68783750Y-83228300D01*
X68890500Y-83121550D01*
X68890500Y-82553300D01*
X69144500Y-82553300D01*
X69144500Y-83121550D01*
X69251250Y-83228300D01*
X69502435Y-83228300D01*
X69659376Y-83163293D01*
X69779493Y-83043176D01*
X69844500Y-82886236D01*
X69844500Y-82660050D01*
X69737750Y-82553300D01*
X69144500Y-82553300D01*
X68890500Y-82553300D01*
X68870500Y-82553300D01*
X68870500Y-82299300D01*
X68890500Y-82299300D01*
X68890500Y-82279300D01*
X69144500Y-82279300D01*
X69144500Y-82299300D01*
X69737750Y-82299300D01*
X69844500Y-82192550D01*
X69844500Y-82004143D01*
X73258938Y-81999011D01*
X73268581Y-86735070D01*
G36*
X66802000Y-79628646D02*
X66802000Y-81153000D01*
X63977400Y-81153000D01*
X63977400Y-80987976D01*
X64009258Y-80981981D01*
X64117321Y-80912445D01*
X64184692Y-80813843D01*
X64229607Y-80922276D01*
X64349724Y-81042393D01*
X64506665Y-81107400D01*
X64757850Y-81107400D01*
X64864600Y-81000650D01*
X64864600Y-80432400D01*
X65118600Y-80432400D01*
X65118600Y-81000650D01*
X65225350Y-81107400D01*
X65476535Y-81107400D01*
X65633476Y-81042393D01*
X65753593Y-80922276D01*
X65818600Y-80765336D01*
X65818600Y-80539150D01*
X65711850Y-80432400D01*
X65118600Y-80432400D01*
X64864600Y-80432400D01*
X64844600Y-80432400D01*
X64844600Y-80178400D01*
X64864600Y-80178400D01*
X64864600Y-80158400D01*
X65118600Y-80158400D01*
X65118600Y-80178400D01*
X65711850Y-80178400D01*
X65818600Y-80071650D01*
X65818600Y-79845464D01*
X65753593Y-79688524D01*
X65690611Y-79625542D01*
X66802000Y-79628646D01*
X66802000Y-79628646D01*
G37*
X66802000Y-79628646D02*
X66802000Y-81153000D01*
X63977400Y-81153000D01*
X63977400Y-80987976D01*
X64009258Y-80981981D01*
X64117321Y-80912445D01*
X64184692Y-80813843D01*
X64229607Y-80922276D01*
X64349724Y-81042393D01*
X64506665Y-81107400D01*
X64757850Y-81107400D01*
X64864600Y-81000650D01*
X64864600Y-80432400D01*
X65118600Y-80432400D01*
X65118600Y-81000650D01*
X65225350Y-81107400D01*
X65476535Y-81107400D01*
X65633476Y-81042393D01*
X65753593Y-80922276D01*
X65818600Y-80765336D01*
X65818600Y-80539150D01*
X65711850Y-80432400D01*
X65118600Y-80432400D01*
X64864600Y-80432400D01*
X64844600Y-80432400D01*
X64844600Y-80178400D01*
X64864600Y-80178400D01*
X64864600Y-80158400D01*
X65118600Y-80158400D01*
X65118600Y-80178400D01*
X65711850Y-80178400D01*
X65818600Y-80071650D01*
X65818600Y-79845464D01*
X65753593Y-79688524D01*
X65690611Y-79625542D01*
X66802000Y-79628646D01*
G36*
X90423443Y-71693367D02*
X90329800Y-72164144D01*
X90329800Y-73435856D01*
X90423443Y-73906633D01*
X90690117Y-74305739D01*
X91089223Y-74572413D01*
X91560000Y-74666056D01*
X92030777Y-74572413D01*
X92429883Y-74305739D01*
X92696557Y-73906633D01*
X92773000Y-73522327D01*
X92773000Y-73527000D01*
X92922613Y-74025154D01*
X93251472Y-74428133D01*
X93709512Y-74674589D01*
X93767928Y-74684779D01*
X93973000Y-74613623D01*
X93973000Y-72927000D01*
X93953000Y-72927000D01*
X93953000Y-72673000D01*
X93973000Y-72673000D01*
X93973000Y-72653000D01*
X94227000Y-72653000D01*
X94227000Y-72673000D01*
X94247000Y-72673000D01*
X94247000Y-72927000D01*
X94227000Y-72927000D01*
X94227000Y-74613623D01*
X94432072Y-74684779D01*
X94490488Y-74674589D01*
X94948528Y-74428133D01*
X95277387Y-74025154D01*
X95298000Y-73956521D01*
X95298000Y-75698000D01*
X93300000Y-75698000D01*
X93184430Y-75720988D01*
X93086454Y-75786454D01*
X93020988Y-75884430D01*
X92998000Y-76000000D01*
X92998000Y-79319416D01*
X87716669Y-74038085D01*
X87716669Y-71566733D01*
X87969336Y-71564819D01*
X87883443Y-71693367D01*
X87789800Y-72164144D01*
X87789800Y-73435856D01*
X87883443Y-73906633D01*
X88150117Y-74305739D01*
X88549223Y-74572413D01*
X89020000Y-74666056D01*
X89490777Y-74572413D01*
X89889883Y-74305739D01*
X90156557Y-73906633D01*
X90250200Y-73435856D01*
X90250200Y-72164144D01*
X90156557Y-71693367D01*
X90060081Y-71548980D01*
X90522259Y-71545479D01*
X90423443Y-71693367D01*
X90423443Y-71693367D01*
G37*
X90423443Y-71693367D02*
X90329800Y-72164144D01*
X90329800Y-73435856D01*
X90423443Y-73906633D01*
X90690117Y-74305739D01*
X91089223Y-74572413D01*
X91560000Y-74666056D01*
X92030777Y-74572413D01*
X92429883Y-74305739D01*
X92696557Y-73906633D01*
X92773000Y-73522327D01*
X92773000Y-73527000D01*
X92922613Y-74025154D01*
X93251472Y-74428133D01*
X93709512Y-74674589D01*
X93767928Y-74684779D01*
X93973000Y-74613623D01*
X93973000Y-72927000D01*
X93953000Y-72927000D01*
X93953000Y-72673000D01*
X93973000Y-72673000D01*
X93973000Y-72653000D01*
X94227000Y-72653000D01*
X94227000Y-72673000D01*
X94247000Y-72673000D01*
X94247000Y-72927000D01*
X94227000Y-72927000D01*
X94227000Y-74613623D01*
X94432072Y-74684779D01*
X94490488Y-74674589D01*
X94948528Y-74428133D01*
X95277387Y-74025154D01*
X95298000Y-73956521D01*
X95298000Y-75698000D01*
X93300000Y-75698000D01*
X93184430Y-75720988D01*
X93086454Y-75786454D01*
X93020988Y-75884430D01*
X92998000Y-76000000D01*
X92998000Y-79319416D01*
X87716669Y-74038085D01*
X87716669Y-71566733D01*
X87969336Y-71564819D01*
X87883443Y-71693367D01*
X87789800Y-72164144D01*
X87789800Y-73435856D01*
X87883443Y-73906633D01*
X88150117Y-74305739D01*
X88549223Y-74572413D01*
X89020000Y-74666056D01*
X89490777Y-74572413D01*
X89889883Y-74305739D01*
X90156557Y-73906633D01*
X90250200Y-73435856D01*
X90250200Y-72164144D01*
X90156557Y-71693367D01*
X90060081Y-71548980D01*
X90522259Y-71545479D01*
X90423443Y-71693367D01*
G36*
X95298000Y-64236117D02*
X95126309Y-64165000D01*
X94385750Y-64165000D01*
X94227000Y-64323750D01*
X94227000Y-66173000D01*
X94247000Y-66173000D01*
X94247000Y-66427000D01*
X94227000Y-66427000D01*
X94227000Y-68276250D01*
X94385750Y-68435000D01*
X95126309Y-68435000D01*
X95298000Y-68363883D01*
X95298000Y-70485000D01*
X91841578Y-70485000D01*
X91343778Y-69987200D01*
X91195452Y-69888091D01*
X91020489Y-69853289D01*
X82747430Y-69853289D01*
X82572467Y-69888091D01*
X82424141Y-69987200D01*
X81926341Y-70485000D01*
X79756000Y-70485000D01*
X79706590Y-70495006D01*
X79666197Y-70522197D01*
X79158197Y-71030197D01*
X79130334Y-71072211D01*
X79121000Y-71120000D01*
X79121000Y-71660638D01*
X78900000Y-71616679D01*
X78448357Y-71706516D01*
X78065473Y-71962352D01*
X77809637Y-72345236D01*
X77719800Y-72796879D01*
X77719800Y-72843121D01*
X77809637Y-73294764D01*
X78065473Y-73677648D01*
X78448357Y-73933484D01*
X78900000Y-74023321D01*
X79121000Y-73979362D01*
X79121000Y-88646000D01*
X66032840Y-88646000D01*
X66034597Y-88643370D01*
X66066377Y-88483600D01*
X66034597Y-88323830D01*
X66007716Y-88283600D01*
X66034597Y-88243370D01*
X66066377Y-88083600D01*
X66034597Y-87923830D01*
X65944094Y-87788383D01*
X65808647Y-87697880D01*
X65736856Y-87683600D01*
X65808647Y-87669320D01*
X65944094Y-87578817D01*
X66034597Y-87443370D01*
X66066377Y-87283600D01*
X66059495Y-87249000D01*
X73787000Y-87249000D01*
X73836410Y-87238994D01*
X73878035Y-87210553D01*
X73905315Y-87168159D01*
X73914000Y-87122000D01*
X73914000Y-73991675D01*
X74266783Y-73921502D01*
X74645547Y-73668420D01*
X74898629Y-73289656D01*
X74987500Y-72842873D01*
X74987500Y-72797127D01*
X75192500Y-72797127D01*
X75192500Y-72842873D01*
X75281371Y-73289656D01*
X75534453Y-73668420D01*
X75913217Y-73921502D01*
X76360000Y-74010373D01*
X76806783Y-73921502D01*
X77185547Y-73668420D01*
X77438629Y-73289656D01*
X77527500Y-72842873D01*
X77527500Y-72797127D01*
X77438629Y-72350344D01*
X77185547Y-71971580D01*
X76806783Y-71718498D01*
X76360000Y-71629627D01*
X75913217Y-71718498D01*
X75534453Y-71971580D01*
X75281371Y-72350344D01*
X75192500Y-72797127D01*
X74987500Y-72797127D01*
X74898629Y-72350344D01*
X74645547Y-71971580D01*
X74266783Y-71718498D01*
X73952360Y-71655955D01*
X79448647Y-67104303D01*
X85297158Y-67109844D01*
X85355177Y-67401524D01*
X85619097Y-67796510D01*
X86014083Y-68060430D01*
X86480000Y-68153107D01*
X86945917Y-68060430D01*
X87340903Y-67796510D01*
X87604823Y-67401524D01*
X87662396Y-67112084D01*
X87824884Y-67112238D01*
X87883443Y-67406633D01*
X88150117Y-67805739D01*
X88549223Y-68072413D01*
X89020000Y-68166056D01*
X89490777Y-68072413D01*
X89889883Y-67805739D01*
X90156557Y-67406633D01*
X90214665Y-67114502D01*
X90365363Y-67114645D01*
X90423443Y-67406633D01*
X90690117Y-67805739D01*
X91089223Y-68072413D01*
X91560000Y-68166056D01*
X92030777Y-68072413D01*
X92429883Y-67805739D01*
X92565000Y-67603522D01*
X92565000Y-67926310D01*
X92661673Y-68159699D01*
X92840302Y-68338327D01*
X93073691Y-68435000D01*
X93814250Y-68435000D01*
X93973000Y-68276250D01*
X93973000Y-66427000D01*
X93953000Y-66427000D01*
X93953000Y-66173000D01*
X93973000Y-66173000D01*
X93973000Y-64323750D01*
X93814250Y-64165000D01*
X93073691Y-64165000D01*
X92949780Y-64216326D01*
X92963373Y-61468000D01*
X95298000Y-61468000D01*
X95298000Y-64236117D01*
X95298000Y-64236117D01*
G37*
X95298000Y-64236117D02*
X95126309Y-64165000D01*
X94385750Y-64165000D01*
X94227000Y-64323750D01*
X94227000Y-66173000D01*
X94247000Y-66173000D01*
X94247000Y-66427000D01*
X94227000Y-66427000D01*
X94227000Y-68276250D01*
X94385750Y-68435000D01*
X95126309Y-68435000D01*
X95298000Y-68363883D01*
X95298000Y-70485000D01*
X91841578Y-70485000D01*
X91343778Y-69987200D01*
X91195452Y-69888091D01*
X91020489Y-69853289D01*
X82747430Y-69853289D01*
X82572467Y-69888091D01*
X82424141Y-69987200D01*
X81926341Y-70485000D01*
X79756000Y-70485000D01*
X79706590Y-70495006D01*
X79666197Y-70522197D01*
X79158197Y-71030197D01*
X79130334Y-71072211D01*
X79121000Y-71120000D01*
X79121000Y-71660638D01*
X78900000Y-71616679D01*
X78448357Y-71706516D01*
X78065473Y-71962352D01*
X77809637Y-72345236D01*
X77719800Y-72796879D01*
X77719800Y-72843121D01*
X77809637Y-73294764D01*
X78065473Y-73677648D01*
X78448357Y-73933484D01*
X78900000Y-74023321D01*
X79121000Y-73979362D01*
X79121000Y-88646000D01*
X66032840Y-88646000D01*
X66034597Y-88643370D01*
X66066377Y-88483600D01*
X66034597Y-88323830D01*
X66007716Y-88283600D01*
X66034597Y-88243370D01*
X66066377Y-88083600D01*
X66034597Y-87923830D01*
X65944094Y-87788383D01*
X65808647Y-87697880D01*
X65736856Y-87683600D01*
X65808647Y-87669320D01*
X65944094Y-87578817D01*
X66034597Y-87443370D01*
X66066377Y-87283600D01*
X66059495Y-87249000D01*
X73787000Y-87249000D01*
X73836410Y-87238994D01*
X73878035Y-87210553D01*
X73905315Y-87168159D01*
X73914000Y-87122000D01*
X73914000Y-73991675D01*
X74266783Y-73921502D01*
X74645547Y-73668420D01*
X74898629Y-73289656D01*
X74987500Y-72842873D01*
X74987500Y-72797127D01*
X75192500Y-72797127D01*
X75192500Y-72842873D01*
X75281371Y-73289656D01*
X75534453Y-73668420D01*
X75913217Y-73921502D01*
X76360000Y-74010373D01*
X76806783Y-73921502D01*
X77185547Y-73668420D01*
X77438629Y-73289656D01*
X77527500Y-72842873D01*
X77527500Y-72797127D01*
X77438629Y-72350344D01*
X77185547Y-71971580D01*
X76806783Y-71718498D01*
X76360000Y-71629627D01*
X75913217Y-71718498D01*
X75534453Y-71971580D01*
X75281371Y-72350344D01*
X75192500Y-72797127D01*
X74987500Y-72797127D01*
X74898629Y-72350344D01*
X74645547Y-71971580D01*
X74266783Y-71718498D01*
X73952360Y-71655955D01*
X79448647Y-67104303D01*
X85297158Y-67109844D01*
X85355177Y-67401524D01*
X85619097Y-67796510D01*
X86014083Y-68060430D01*
X86480000Y-68153107D01*
X86945917Y-68060430D01*
X87340903Y-67796510D01*
X87604823Y-67401524D01*
X87662396Y-67112084D01*
X87824884Y-67112238D01*
X87883443Y-67406633D01*
X88150117Y-67805739D01*
X88549223Y-68072413D01*
X89020000Y-68166056D01*
X89490777Y-68072413D01*
X89889883Y-67805739D01*
X90156557Y-67406633D01*
X90214665Y-67114502D01*
X90365363Y-67114645D01*
X90423443Y-67406633D01*
X90690117Y-67805739D01*
X91089223Y-68072413D01*
X91560000Y-68166056D01*
X92030777Y-68072413D01*
X92429883Y-67805739D01*
X92565000Y-67603522D01*
X92565000Y-67926310D01*
X92661673Y-68159699D01*
X92840302Y-68338327D01*
X93073691Y-68435000D01*
X93814250Y-68435000D01*
X93973000Y-68276250D01*
X93973000Y-66427000D01*
X93953000Y-66427000D01*
X93953000Y-66173000D01*
X93973000Y-66173000D01*
X93973000Y-64323750D01*
X93814250Y-64165000D01*
X93073691Y-64165000D01*
X92949780Y-64216326D01*
X92963373Y-61468000D01*
X95298000Y-61468000D01*
X95298000Y-64236117D01*
G36*
X92202000Y-63881000D02*
X85471000Y-63881000D01*
X85400553Y-63902330D01*
X84638553Y-64410330D01*
X84602992Y-64446063D01*
X84582000Y-64516000D01*
X84582000Y-66548000D01*
X79248000Y-66548000D01*
X79198590Y-66558006D01*
X79166916Y-66577254D01*
X73370636Y-71385474D01*
X73338995Y-71424721D01*
X73324720Y-71483220D01*
X73324720Y-71750903D01*
X72994453Y-71971580D01*
X72741371Y-72350344D01*
X72652500Y-72797127D01*
X72652500Y-72842873D01*
X72741371Y-73289656D01*
X72994453Y-73668420D01*
X73324720Y-73889097D01*
X73324720Y-81331217D01*
X68036023Y-81348581D01*
X67986646Y-81358749D01*
X67945115Y-81387326D01*
X67917975Y-81429810D01*
X67909440Y-81475474D01*
X67907112Y-84254580D01*
X67346400Y-84254580D01*
X67228742Y-84276719D01*
X67120679Y-84346255D01*
X67096707Y-84381340D01*
X64915217Y-84381340D01*
X64845570Y-84334803D01*
X64685800Y-84303023D01*
X64526030Y-84334803D01*
X64456383Y-84381340D01*
X64386460Y-84381340D01*
X64337050Y-84391346D01*
X64295425Y-84419787D01*
X64268145Y-84462181D01*
X64259461Y-84508895D01*
X64261444Y-84963000D01*
X63903300Y-84963000D01*
X63903300Y-84720523D01*
X63871520Y-84560753D01*
X63781017Y-84425306D01*
X63645570Y-84334803D01*
X63485800Y-84303023D01*
X63326030Y-84334803D01*
X63285800Y-84361684D01*
X63245570Y-84334803D01*
X63085800Y-84303023D01*
X62926030Y-84334803D01*
X62790583Y-84425306D01*
X62704900Y-84553539D01*
X62704900Y-84324918D01*
X62930636Y-84099182D01*
X62956704Y-84093997D01*
X63142112Y-83970112D01*
X63265997Y-83784704D01*
X63280476Y-83711915D01*
X63301465Y-83680502D01*
X63305473Y-83660350D01*
X63540403Y-83425420D01*
X63755900Y-83425420D01*
X63873558Y-83403281D01*
X63981621Y-83333745D01*
X64054115Y-83227645D01*
X64079620Y-83101700D01*
X64079620Y-81801700D01*
X64057481Y-81684042D01*
X64017572Y-81622021D01*
X67175242Y-81625440D01*
X67224663Y-81615488D01*
X67266319Y-81587092D01*
X67293645Y-81544727D01*
X67302380Y-81498440D01*
X67302380Y-79253080D01*
X67292374Y-79203670D01*
X67263933Y-79162045D01*
X67221539Y-79134765D01*
X67175741Y-79126081D01*
X64624917Y-79118821D01*
X64622985Y-78313347D01*
X69339393Y-78315820D01*
X69388809Y-78305840D01*
X69430448Y-78277421D01*
X69457750Y-78235041D01*
X69466460Y-78188867D01*
X69468097Y-73733534D01*
X69565547Y-73668420D01*
X69818629Y-73289656D01*
X69907500Y-72842873D01*
X69907500Y-72797127D01*
X70112500Y-72797127D01*
X70112500Y-72842873D01*
X70201371Y-73289656D01*
X70454453Y-73668420D01*
X70833217Y-73921502D01*
X71280000Y-74010373D01*
X71726783Y-73921502D01*
X72105547Y-73668420D01*
X72358629Y-73289656D01*
X72447500Y-72842873D01*
X72447500Y-72797127D01*
X72358629Y-72350344D01*
X72105547Y-71971580D01*
X71726783Y-71718498D01*
X71280000Y-71629627D01*
X70833217Y-71718498D01*
X70454453Y-71971580D01*
X70201371Y-72350344D01*
X70112500Y-72797127D01*
X69907500Y-72797127D01*
X69818629Y-72350344D01*
X69565547Y-71971580D01*
X69468768Y-71906914D01*
X69468978Y-71334355D01*
X78130321Y-64100200D01*
X79499180Y-64100200D01*
X79609696Y-64146090D01*
X79860405Y-64146309D01*
X80092113Y-64050569D01*
X80269546Y-63873446D01*
X80365690Y-63641904D01*
X80365909Y-63391195D01*
X80270169Y-63159487D01*
X80093046Y-62982054D01*
X79861504Y-62885910D01*
X79610795Y-62885691D01*
X79558625Y-62907247D01*
X83723903Y-59428310D01*
X88691913Y-59420760D01*
X88741308Y-59410679D01*
X88782889Y-59382175D01*
X88810105Y-59339739D01*
X88818719Y-59294371D01*
X88833625Y-56196309D01*
X89333943Y-55877925D01*
X89370257Y-55842956D01*
X89390105Y-55796615D01*
X89392760Y-55770780D01*
X89392760Y-55527200D01*
X90027250Y-55527200D01*
X90186000Y-55368450D01*
X90186000Y-54019200D01*
X90440000Y-54019200D01*
X90440000Y-55368450D01*
X90598750Y-55527200D01*
X91439309Y-55527200D01*
X91672698Y-55430527D01*
X91851327Y-55251899D01*
X91948000Y-55018510D01*
X91948000Y-54177950D01*
X91789250Y-54019200D01*
X90440000Y-54019200D01*
X90186000Y-54019200D01*
X90166000Y-54019200D01*
X90166000Y-53765200D01*
X90186000Y-53765200D01*
X90186000Y-52415950D01*
X90440000Y-52415950D01*
X90440000Y-53765200D01*
X91789250Y-53765200D01*
X91948000Y-53606450D01*
X91948000Y-52765890D01*
X91851327Y-52532501D01*
X91672698Y-52353873D01*
X91439309Y-52257200D01*
X90598750Y-52257200D01*
X90440000Y-52415950D01*
X90186000Y-52415950D01*
X90027250Y-52257200D01*
X89392760Y-52257200D01*
X89392760Y-51302000D01*
X92202000Y-51302000D01*
X92202000Y-63881000D01*
X92202000Y-63881000D01*
G37*
X92202000Y-63881000D02*
X85471000Y-63881000D01*
X85400553Y-63902330D01*
X84638553Y-64410330D01*
X84602992Y-64446063D01*
X84582000Y-64516000D01*
X84582000Y-66548000D01*
X79248000Y-66548000D01*
X79198590Y-66558006D01*
X79166916Y-66577254D01*
X73370636Y-71385474D01*
X73338995Y-71424721D01*
X73324720Y-71483220D01*
X73324720Y-71750903D01*
X72994453Y-71971580D01*
X72741371Y-72350344D01*
X72652500Y-72797127D01*
X72652500Y-72842873D01*
X72741371Y-73289656D01*
X72994453Y-73668420D01*
X73324720Y-73889097D01*
X73324720Y-81331217D01*
X68036023Y-81348581D01*
X67986646Y-81358749D01*
X67945115Y-81387326D01*
X67917975Y-81429810D01*
X67909440Y-81475474D01*
X67907112Y-84254580D01*
X67346400Y-84254580D01*
X67228742Y-84276719D01*
X67120679Y-84346255D01*
X67096707Y-84381340D01*
X64915217Y-84381340D01*
X64845570Y-84334803D01*
X64685800Y-84303023D01*
X64526030Y-84334803D01*
X64456383Y-84381340D01*
X64386460Y-84381340D01*
X64337050Y-84391346D01*
X64295425Y-84419787D01*
X64268145Y-84462181D01*
X64259461Y-84508895D01*
X64261444Y-84963000D01*
X63903300Y-84963000D01*
X63903300Y-84720523D01*
X63871520Y-84560753D01*
X63781017Y-84425306D01*
X63645570Y-84334803D01*
X63485800Y-84303023D01*
X63326030Y-84334803D01*
X63285800Y-84361684D01*
X63245570Y-84334803D01*
X63085800Y-84303023D01*
X62926030Y-84334803D01*
X62790583Y-84425306D01*
X62704900Y-84553539D01*
X62704900Y-84324918D01*
X62930636Y-84099182D01*
X62956704Y-84093997D01*
X63142112Y-83970112D01*
X63265997Y-83784704D01*
X63280476Y-83711915D01*
X63301465Y-83680502D01*
X63305473Y-83660350D01*
X63540403Y-83425420D01*
X63755900Y-83425420D01*
X63873558Y-83403281D01*
X63981621Y-83333745D01*
X64054115Y-83227645D01*
X64079620Y-83101700D01*
X64079620Y-81801700D01*
X64057481Y-81684042D01*
X64017572Y-81622021D01*
X67175242Y-81625440D01*
X67224663Y-81615488D01*
X67266319Y-81587092D01*
X67293645Y-81544727D01*
X67302380Y-81498440D01*
X67302380Y-79253080D01*
X67292374Y-79203670D01*
X67263933Y-79162045D01*
X67221539Y-79134765D01*
X67175741Y-79126081D01*
X64624917Y-79118821D01*
X64622985Y-78313347D01*
X69339393Y-78315820D01*
X69388809Y-78305840D01*
X69430448Y-78277421D01*
X69457750Y-78235041D01*
X69466460Y-78188867D01*
X69468097Y-73733534D01*
X69565547Y-73668420D01*
X69818629Y-73289656D01*
X69907500Y-72842873D01*
X69907500Y-72797127D01*
X70112500Y-72797127D01*
X70112500Y-72842873D01*
X70201371Y-73289656D01*
X70454453Y-73668420D01*
X70833217Y-73921502D01*
X71280000Y-74010373D01*
X71726783Y-73921502D01*
X72105547Y-73668420D01*
X72358629Y-73289656D01*
X72447500Y-72842873D01*
X72447500Y-72797127D01*
X72358629Y-72350344D01*
X72105547Y-71971580D01*
X71726783Y-71718498D01*
X71280000Y-71629627D01*
X70833217Y-71718498D01*
X70454453Y-71971580D01*
X70201371Y-72350344D01*
X70112500Y-72797127D01*
X69907500Y-72797127D01*
X69818629Y-72350344D01*
X69565547Y-71971580D01*
X69468768Y-71906914D01*
X69468978Y-71334355D01*
X78130321Y-64100200D01*
X79499180Y-64100200D01*
X79609696Y-64146090D01*
X79860405Y-64146309D01*
X80092113Y-64050569D01*
X80269546Y-63873446D01*
X80365690Y-63641904D01*
X80365909Y-63391195D01*
X80270169Y-63159487D01*
X80093046Y-62982054D01*
X79861504Y-62885910D01*
X79610795Y-62885691D01*
X79558625Y-62907247D01*
X83723903Y-59428310D01*
X88691913Y-59420760D01*
X88741308Y-59410679D01*
X88782889Y-59382175D01*
X88810105Y-59339739D01*
X88818719Y-59294371D01*
X88833625Y-56196309D01*
X89333943Y-55877925D01*
X89370257Y-55842956D01*
X89390105Y-55796615D01*
X89392760Y-55770780D01*
X89392760Y-55527200D01*
X90027250Y-55527200D01*
X90186000Y-55368450D01*
X90186000Y-54019200D01*
X90440000Y-54019200D01*
X90440000Y-55368450D01*
X90598750Y-55527200D01*
X91439309Y-55527200D01*
X91672698Y-55430527D01*
X91851327Y-55251899D01*
X91948000Y-55018510D01*
X91948000Y-54177950D01*
X91789250Y-54019200D01*
X90440000Y-54019200D01*
X90186000Y-54019200D01*
X90166000Y-54019200D01*
X90166000Y-53765200D01*
X90186000Y-53765200D01*
X90186000Y-52415950D01*
X90440000Y-52415950D01*
X90440000Y-53765200D01*
X91789250Y-53765200D01*
X91948000Y-53606450D01*
X91948000Y-52765890D01*
X91851327Y-52532501D01*
X91672698Y-52353873D01*
X91439309Y-52257200D01*
X90598750Y-52257200D01*
X90440000Y-52415950D01*
X90186000Y-52415950D01*
X90027250Y-52257200D01*
X89392760Y-52257200D01*
X89392760Y-51302000D01*
X92202000Y-51302000D01*
X92202000Y-63881000D01*
G36*
X95250000Y-60833000D02*
X92837000Y-60833000D01*
X92837000Y-53579191D01*
X92857805Y-53579191D01*
X93029019Y-53993560D01*
X93345772Y-54310867D01*
X93759842Y-54482804D01*
X94208191Y-54483195D01*
X94622560Y-54311981D01*
X94939867Y-53995228D01*
X95111804Y-53581158D01*
X95112195Y-53132809D01*
X94940981Y-52718440D01*
X94624228Y-52401133D01*
X94210158Y-52229196D01*
X93761809Y-52228805D01*
X93347440Y-52400019D01*
X93030133Y-52716772D01*
X92858196Y-53130842D01*
X92857805Y-53579191D01*
X92837000Y-53579191D01*
X92837000Y-51302000D01*
X95250000Y-51302000D01*
X95250000Y-60833000D01*
X95250000Y-60833000D01*
G37*
X95250000Y-60833000D02*
X92837000Y-60833000D01*
X92837000Y-53579191D01*
X92857805Y-53579191D01*
X93029019Y-53993560D01*
X93345772Y-54310867D01*
X93759842Y-54482804D01*
X94208191Y-54483195D01*
X94622560Y-54311981D01*
X94939867Y-53995228D01*
X95111804Y-53581158D01*
X95112195Y-53132809D01*
X94940981Y-52718440D01*
X94624228Y-52401133D01*
X94210158Y-52229196D01*
X93761809Y-52228805D01*
X93347440Y-52400019D01*
X93030133Y-52716772D01*
X92858196Y-53130842D01*
X92857805Y-53579191D01*
X92837000Y-53579191D01*
X92837000Y-51302000D01*
X95250000Y-51302000D01*
X95250000Y-60833000D01*
M02*
