%TF.GenerationSoftware,KiCad,Pcbnew,6.0.7-f9a2dced07~116~ubuntu20.04.1*%
%TF.CreationDate,2022-09-24T19:15:38+02:00*%
%TF.ProjectId,SRRReceiver,53525252-6563-4656-9976-65722e6b6963,rev?*%
%TF.SameCoordinates,Original*%
%TF.FileFunction,Copper,L1,Top*%
%TF.FilePolarity,Positive*%
%FSLAX46Y46*%
G04 Gerber Fmt 4.6, Leading zero omitted, Abs format (unit mm)*
G04 Created by KiCad (PCBNEW 6.0.7-f9a2dced07~116~ubuntu20.04.1) date 2022-09-24 19:15:38*
%MOMM*%
%LPD*%
G01*
G04 APERTURE LIST*
G04 Aperture macros list*
%AMRoundRect*
0 Rectangle with rounded corners*
0 $1 Rounding radius*
0 $2 $3 $4 $5 $6 $7 $8 $9 X,Y pos of 4 corners*
0 Add a 4 corners polygon primitive as box body*
4,1,4,$2,$3,$4,$5,$6,$7,$8,$9,$2,$3,0*
0 Add four circle primitives for the rounded corners*
1,1,$1+$1,$2,$3*
1,1,$1+$1,$4,$5*
1,1,$1+$1,$6,$7*
1,1,$1+$1,$8,$9*
0 Add four rect primitives between the rounded corners*
20,1,$1+$1,$2,$3,$4,$5,0*
20,1,$1+$1,$4,$5,$6,$7,0*
20,1,$1+$1,$6,$7,$8,$9,0*
20,1,$1+$1,$8,$9,$2,$3,0*%
G04 Aperture macros list end*
%TA.AperFunction,SMDPad,CuDef*%
%ADD10R,1.400000X1.200000*%
%TD*%
%TA.AperFunction,SMDPad,CuDef*%
%ADD11RoundRect,0.140000X0.170000X-0.140000X0.170000X0.140000X-0.170000X0.140000X-0.170000X-0.140000X0*%
%TD*%
%TA.AperFunction,SMDPad,CuDef*%
%ADD12RoundRect,0.140000X-0.170000X0.140000X-0.170000X-0.140000X0.170000X-0.140000X0.170000X0.140000X0*%
%TD*%
%TA.AperFunction,SMDPad,CuDef*%
%ADD13RoundRect,0.140000X-0.140000X-0.170000X0.140000X-0.170000X0.140000X0.170000X-0.140000X0.170000X0*%
%TD*%
%TA.AperFunction,SMDPad,CuDef*%
%ADD14RoundRect,0.147500X0.147500X0.172500X-0.147500X0.172500X-0.147500X-0.172500X0.147500X-0.172500X0*%
%TD*%
%TA.AperFunction,SMDPad,CuDef*%
%ADD15RoundRect,0.140000X0.140000X0.170000X-0.140000X0.170000X-0.140000X-0.170000X0.140000X-0.170000X0*%
%TD*%
%TA.AperFunction,ConnectorPad*%
%ADD16R,0.500000X0.500000*%
%TD*%
%TA.AperFunction,ComponentPad*%
%ADD17R,0.500000X0.900000*%
%TD*%
%TA.AperFunction,SMDPad,CuDef*%
%ADD18RoundRect,0.062500X-0.425000X-0.062500X0.425000X-0.062500X0.425000X0.062500X-0.425000X0.062500X0*%
%TD*%
%TA.AperFunction,SMDPad,CuDef*%
%ADD19RoundRect,0.062500X-0.062500X-0.425000X0.062500X-0.425000X0.062500X0.425000X-0.062500X0.425000X0*%
%TD*%
%TA.AperFunction,SMDPad,CuDef*%
%ADD20R,2.400000X2.400000*%
%TD*%
%TA.AperFunction,SMDPad,CuDef*%
%ADD21RoundRect,0.062500X0.425000X0.062500X-0.425000X0.062500X-0.425000X-0.062500X0.425000X-0.062500X0*%
%TD*%
%TA.AperFunction,SMDPad,CuDef*%
%ADD22RoundRect,0.062500X0.062500X0.425000X-0.062500X0.425000X-0.062500X-0.425000X0.062500X-0.425000X0*%
%TD*%
%TA.AperFunction,SMDPad,CuDef*%
%ADD23RoundRect,0.147500X-0.147500X-0.172500X0.147500X-0.172500X0.147500X0.172500X-0.147500X0.172500X0*%
%TD*%
%TA.AperFunction,SMDPad,CuDef*%
%ADD24RoundRect,0.147500X0.172500X-0.147500X0.172500X0.147500X-0.172500X0.147500X-0.172500X-0.147500X0*%
%TD*%
%TA.AperFunction,SMDPad,CuDef*%
%ADD25RoundRect,0.135000X-0.135000X-0.185000X0.135000X-0.185000X0.135000X0.185000X-0.135000X0.185000X0*%
%TD*%
%TA.AperFunction,SMDPad,CuDef*%
%ADD26RoundRect,0.147500X-0.172500X0.147500X-0.172500X-0.147500X0.172500X-0.147500X0.172500X0.147500X0*%
%TD*%
%TA.AperFunction,SMDPad,CuDef*%
%ADD27RoundRect,0.135000X0.135000X0.185000X-0.135000X0.185000X-0.135000X-0.185000X0.135000X-0.185000X0*%
%TD*%
%TA.AperFunction,ViaPad*%
%ADD28C,0.500000*%
%TD*%
%TA.AperFunction,Conductor*%
%ADD29C,0.400000*%
%TD*%
%TA.AperFunction,Conductor*%
%ADD30C,0.250000*%
%TD*%
G04 APERTURE END LIST*
%TO.C,AE2*%
G36*
X138150000Y-87100000D02*
G01*
X135510000Y-87100000D01*
X135510000Y-89100000D01*
X138150000Y-89100000D01*
X138150000Y-91800000D01*
X135510000Y-91800000D01*
X135510000Y-93800000D01*
X138150000Y-93800000D01*
X138150000Y-96500000D01*
X133710000Y-96500000D01*
X133710000Y-96000000D01*
X137650000Y-96000000D01*
X137650000Y-94300000D01*
X135010000Y-94300000D01*
X135010000Y-91300000D01*
X137650000Y-91300000D01*
X137650000Y-89600000D01*
X135010000Y-89600000D01*
X135010000Y-86600000D01*
X137650000Y-86600000D01*
X137650000Y-84900000D01*
X132750000Y-84900000D01*
X132750000Y-84400000D01*
X137650000Y-84400000D01*
X137650000Y-83000000D01*
X132750000Y-83000000D01*
X132750000Y-82524844D01*
X132853957Y-82524844D01*
X132854700Y-82573363D01*
X132867600Y-82618878D01*
X132878213Y-82637489D01*
X132913447Y-82671132D01*
X132958632Y-82691691D01*
X133008158Y-82698222D01*
X133056417Y-82689782D01*
X133088643Y-82672888D01*
X133121313Y-82637628D01*
X133141408Y-82592318D01*
X133147982Y-82542733D01*
X133140092Y-82494647D01*
X133123186Y-82461755D01*
X133086416Y-82426815D01*
X133041622Y-82407153D01*
X132993215Y-82402417D01*
X132945605Y-82412258D01*
X132903203Y-82436326D01*
X132870419Y-82474269D01*
X132866065Y-82482181D01*
X132853957Y-82524844D01*
X132750000Y-82524844D01*
X132750000Y-82100000D01*
X138150000Y-82100000D01*
X138150000Y-87100000D01*
G37*
%TO.C,AE1*%
G36*
X110450000Y-91350000D02*
G01*
X113090000Y-91350000D01*
X113090000Y-89350000D01*
X110450000Y-89350000D01*
X110450000Y-86650000D01*
X113090000Y-86650000D01*
X113090000Y-84650000D01*
X110450000Y-84650000D01*
X110450000Y-81950000D01*
X114890000Y-81950000D01*
X114890000Y-82450000D01*
X110950000Y-82450000D01*
X110950000Y-84150000D01*
X113590000Y-84150000D01*
X113590000Y-87150000D01*
X110950000Y-87150000D01*
X110950000Y-88850000D01*
X113590000Y-88850000D01*
X113590000Y-91850000D01*
X110950000Y-91850000D01*
X110950000Y-93550000D01*
X115850000Y-93550000D01*
X115850000Y-94050000D01*
X110950000Y-94050000D01*
X110950000Y-95450000D01*
X115850000Y-95450000D01*
X115850000Y-96350000D01*
X110450000Y-96350000D01*
X110450000Y-95907267D01*
X115452018Y-95907267D01*
X115459908Y-95955353D01*
X115476814Y-95988245D01*
X115513584Y-96023185D01*
X115558378Y-96042847D01*
X115606785Y-96047583D01*
X115654395Y-96037742D01*
X115696797Y-96013674D01*
X115729581Y-95975731D01*
X115733935Y-95967819D01*
X115746043Y-95925156D01*
X115745300Y-95876637D01*
X115732400Y-95831122D01*
X115721787Y-95812511D01*
X115686553Y-95778868D01*
X115641368Y-95758309D01*
X115591842Y-95751778D01*
X115543583Y-95760218D01*
X115511357Y-95777112D01*
X115478687Y-95812372D01*
X115458592Y-95857682D01*
X115452018Y-95907267D01*
X110450000Y-95907267D01*
X110450000Y-91350000D01*
G37*
%TD*%
D10*
%TO.P,Y2,4,4*%
%TO.N,GND*%
X119900000Y-90250000D03*
%TO.P,Y2,3,3*%
%TO.N,Net-(C18-Pad2)*%
X122100000Y-90250000D03*
%TO.P,Y2,2,2*%
%TO.N,GND*%
X122100000Y-91950000D03*
%TO.P,Y2,1,1*%
%TO.N,Net-(C20-Pad2)*%
X119900000Y-91950000D03*
%TD*%
%TO.P,Y1,1,1*%
%TO.N,Net-(C10-Pad2)*%
X128816250Y-87138154D03*
%TO.P,Y1,2,2*%
%TO.N,GND*%
X126616250Y-87138154D03*
%TO.P,Y1,3,3*%
%TO.N,Net-(C7-Pad2)*%
X126616250Y-88838154D03*
%TO.P,Y1,4,4*%
%TO.N,GND*%
X128816250Y-88838154D03*
%TD*%
D11*
%TO.P,C5,1*%
%TO.N,GND*%
X124237500Y-98780000D03*
%TO.P,C5,2*%
%TO.N,VDD*%
X124237500Y-97820000D03*
%TD*%
D12*
%TO.P,C6,1*%
%TO.N,GND*%
X124400000Y-91908154D03*
%TO.P,C6,2*%
%TO.N,VDD*%
X124400000Y-92868154D03*
%TD*%
D13*
%TO.P,C7,1*%
%TO.N,GND*%
X125098750Y-90788154D03*
%TO.P,C7,2*%
%TO.N,Net-(C7-Pad2)*%
X126058750Y-90788154D03*
%TD*%
%TO.P,C32,1*%
%TO.N,Net-(C30-Pad1)*%
X127920000Y-83350000D03*
%TO.P,C32,2*%
%TO.N,Net-(C32-Pad2)*%
X128880000Y-83350000D03*
%TD*%
D14*
%TO.P,L6,1,1*%
%TO.N,Net-(AE2-Pad1)*%
X131085000Y-83800000D03*
%TO.P,L6,2,2*%
%TO.N,Net-(C32-Pad2)*%
X130115000Y-83800000D03*
%TD*%
D11*
%TO.P,C31,1*%
%TO.N,GND*%
X126800000Y-85230000D03*
%TO.P,C31,2*%
%TO.N,Net-(C29-Pad1)*%
X126800000Y-84270000D03*
%TD*%
D14*
%TO.P,L5,1,1*%
%TO.N,Net-(C32-Pad2)*%
X128885000Y-84400000D03*
%TO.P,L5,2,2*%
%TO.N,Net-(C29-Pad1)*%
X127915000Y-84400000D03*
%TD*%
D15*
%TO.P,C18,1*%
%TO.N,GND*%
X123580000Y-88600000D03*
%TO.P,C18,2*%
%TO.N,Net-(C18-Pad2)*%
X122620000Y-88600000D03*
%TD*%
D12*
%TO.P,C15,1*%
%TO.N,GND*%
X121600000Y-94020000D03*
%TO.P,C15,2*%
%TO.N,Net-(C13-Pad1)*%
X121600000Y-94980000D03*
%TD*%
D16*
%TO.P,AE2,1,A*%
%TO.N,Net-(AE2-Pad1)*%
X133000000Y-84650000D03*
D17*
%TO.P,AE2,2,Shield*%
%TO.N,GND*%
X133000000Y-82550000D03*
%TD*%
D18*
%TO.P,U2,1,SCLK*%
%TO.N,SPI1_SCK*%
X119012500Y-82850000D03*
%TO.P,U2,2,SO(GDO1)*%
%TO.N,SPI1_MISO*%
X119012500Y-83350000D03*
%TO.P,U2,3,GDO2*%
%TO.N,unconnected-(U2-Pad3)*%
X119012500Y-83850000D03*
%TO.P,U2,4,DVDD*%
%TO.N,VDD*%
X119012500Y-84350000D03*
%TO.P,U2,5,DCOUPL*%
X119012500Y-84850000D03*
D19*
%TO.P,U2,6,GDO0(ATEST)*%
%TO.N,GD0_INT_1*%
X119900000Y-85737500D03*
%TO.P,U2,7,~{CS}*%
%TO.N,SPI1_NSS*%
X120400000Y-85737500D03*
%TO.P,U2,8,XOSC_Q1*%
%TO.N,Net-(C20-Pad2)*%
X120900000Y-85737500D03*
%TO.P,U2,9,AVDD*%
%TO.N,VDD*%
X121400000Y-85737500D03*
%TO.P,U2,10,XOSC_Q2*%
%TO.N,Net-(C18-Pad2)*%
X121900000Y-85737500D03*
D18*
%TO.P,U2,11,AVDD*%
%TO.N,VDD*%
X122787500Y-84850000D03*
%TO.P,U2,12,RF_P*%
%TO.N,Net-(C29-Pad2)*%
X122787500Y-84350000D03*
%TO.P,U2,13,RF_N*%
%TO.N,Net-(C30-Pad2)*%
X122787500Y-83850000D03*
%TO.P,U2,14,AVDD*%
%TO.N,VDD*%
X122787500Y-83350000D03*
%TO.P,U2,15,AVDD*%
X122787500Y-82850000D03*
D19*
%TO.P,U2,16,GND*%
%TO.N,GND*%
X121900000Y-81962500D03*
%TO.P,U2,17,RBIAS*%
%TO.N,Net-(R2-Pad1)*%
X121400000Y-81962500D03*
%TO.P,U2,18,VDD_GUARD*%
%TO.N,VDD*%
X120900000Y-81962500D03*
%TO.P,U2,19,GND*%
%TO.N,GND*%
X120400000Y-81962500D03*
%TO.P,U2,20,SI*%
%TO.N,SPI1_MOSI*%
X119900000Y-81962500D03*
D20*
%TO.P,U2,21,GND*%
%TO.N,GND*%
X120900000Y-83850000D03*
%TD*%
D12*
%TO.P,C33,1*%
%TO.N,GND*%
X130100000Y-81820000D03*
%TO.P,C33,2*%
%TO.N,Net-(C32-Pad2)*%
X130100000Y-82780000D03*
%TD*%
%TO.P,C2,1*%
%TO.N,GND*%
X130978750Y-92708154D03*
%TO.P,C2,2*%
%TO.N,VDD*%
X130978750Y-93668154D03*
%TD*%
D11*
%TO.P,C28,1*%
%TO.N,GND*%
X131658750Y-96468154D03*
%TO.P,C28,2*%
%TO.N,VDD*%
X131658750Y-95508154D03*
%TD*%
D13*
%TO.P,C14,1*%
%TO.N,Net-(C14-Pad1)*%
X122720000Y-95788154D03*
%TO.P,C14,2*%
%TO.N,Net-(C14-Pad2)*%
X123680000Y-95788154D03*
%TD*%
D21*
%TO.P,U1,1,SCLK*%
%TO.N,SPI2_SCK*%
X129458750Y-96588154D03*
%TO.P,U1,2,SO(GDO1)*%
%TO.N,SPI2_MISO*%
X129458750Y-96088154D03*
%TO.P,U1,3,GDO2*%
%TO.N,unconnected-(U1-Pad3)*%
X129458750Y-95588154D03*
%TO.P,U1,4,DVDD*%
%TO.N,VDD*%
X129458750Y-95088154D03*
%TO.P,U1,5,DCOUPL*%
X129458750Y-94588154D03*
D22*
%TO.P,U1,6,GDO0(ATEST)*%
%TO.N,GD0_INT_2*%
X128571250Y-93700654D03*
%TO.P,U1,7,~{CS}*%
%TO.N,SPI2_NSS*%
X128071250Y-93700654D03*
%TO.P,U1,8,XOSC_Q1*%
%TO.N,Net-(C10-Pad2)*%
X127571250Y-93700654D03*
%TO.P,U1,9,AVDD*%
%TO.N,VDD*%
X127071250Y-93700654D03*
%TO.P,U1,10,XOSC_Q2*%
%TO.N,Net-(C7-Pad2)*%
X126571250Y-93700654D03*
D21*
%TO.P,U1,11,AVDD*%
%TO.N,VDD*%
X125683750Y-94588154D03*
%TO.P,U1,12,RF_P*%
%TO.N,Net-(C13-Pad2)*%
X125683750Y-95088154D03*
%TO.P,U1,13,RF_N*%
%TO.N,Net-(C14-Pad2)*%
X125683750Y-95588154D03*
%TO.P,U1,14,AVDD*%
%TO.N,VDD*%
X125683750Y-96088154D03*
%TO.P,U1,15,AVDD*%
X125683750Y-96588154D03*
D22*
%TO.P,U1,16,GND*%
%TO.N,GND*%
X126571250Y-97475654D03*
%TO.P,U1,17,RBIAS*%
%TO.N,Net-(R1-Pad1)*%
X127071250Y-97475654D03*
%TO.P,U1,18,VDD_GUARD*%
%TO.N,VDD*%
X127571250Y-97475654D03*
%TO.P,U1,19,GND*%
%TO.N,GND*%
X128071250Y-97475654D03*
%TO.P,U1,20,SI*%
%TO.N,SPI2_MOSI*%
X128571250Y-97475654D03*
D20*
%TO.P,U1,21,GND*%
%TO.N,GND*%
X127571250Y-95588154D03*
%TD*%
D23*
%TO.P,L2,1,1*%
%TO.N,Net-(C16-Pad2)*%
X119565000Y-94788154D03*
%TO.P,L2,2,2*%
%TO.N,Net-(C13-Pad1)*%
X120535000Y-94788154D03*
%TD*%
D11*
%TO.P,C21,1*%
%TO.N,GND*%
X116600000Y-86480000D03*
%TO.P,C21,2*%
%TO.N,VDD*%
X116600000Y-85520000D03*
%TD*%
D12*
%TO.P,C24,1*%
%TO.N,GND*%
X125600000Y-80270000D03*
%TO.P,C24,2*%
%TO.N,VDD*%
X125600000Y-81230000D03*
%TD*%
D11*
%TO.P,C25,1*%
%TO.N,GND*%
X121000000Y-88880000D03*
%TO.P,C25,2*%
%TO.N,VDD*%
X121000000Y-87920000D03*
%TD*%
D12*
%TO.P,C20,1*%
%TO.N,GND*%
X118600000Y-87720000D03*
%TO.P,C20,2*%
%TO.N,Net-(C20-Pad2)*%
X118600000Y-88680000D03*
%TD*%
%TO.P,C19,1*%
%TO.N,GND*%
X117550000Y-93270000D03*
%TO.P,C19,2*%
%TO.N,Net-(AE1-Pad1)*%
X117550000Y-94230000D03*
%TD*%
%TO.P,C1,1*%
%TO.N,GND*%
X131978750Y-92708154D03*
%TO.P,C1,2*%
%TO.N,VDD*%
X131978750Y-93668154D03*
%TD*%
%TO.P,C12,1*%
%TO.N,GND*%
X117200000Y-82720000D03*
%TO.P,C12,2*%
%TO.N,VDD*%
X117200000Y-83680000D03*
%TD*%
D15*
%TO.P,C11,1*%
%TO.N,GND*%
X128980000Y-98900000D03*
%TO.P,C11,2*%
%TO.N,VDD*%
X128020000Y-98900000D03*
%TD*%
D11*
%TO.P,C27,1*%
%TO.N,GND*%
X124200000Y-87480000D03*
%TO.P,C27,2*%
%TO.N,VDD*%
X124200000Y-86520000D03*
%TD*%
%TO.P,C3,1*%
%TO.N,GND*%
X123200000Y-98780000D03*
%TO.P,C3,2*%
%TO.N,VDD*%
X123200000Y-97820000D03*
%TD*%
D15*
%TO.P,C10,1*%
%TO.N,GND*%
X131080000Y-90400000D03*
%TO.P,C10,2*%
%TO.N,Net-(C10-Pad2)*%
X130120000Y-90400000D03*
%TD*%
%TO.P,C29,1*%
%TO.N,Net-(C29-Pad1)*%
X125730000Y-84400000D03*
%TO.P,C29,2*%
%TO.N,Net-(C29-Pad2)*%
X124770000Y-84400000D03*
%TD*%
D12*
%TO.P,C4,1*%
%TO.N,GND*%
X127978750Y-90508154D03*
%TO.P,C4,2*%
%TO.N,VDD*%
X127978750Y-91468154D03*
%TD*%
D15*
%TO.P,C16,1*%
%TO.N,Net-(C14-Pad1)*%
X120538750Y-95800000D03*
%TO.P,C16,2*%
%TO.N,Net-(C16-Pad2)*%
X119578750Y-95800000D03*
%TD*%
D24*
%TO.P,L4,1,1*%
%TO.N,Net-(C30-Pad1)*%
X126800000Y-83285000D03*
%TO.P,L4,2,2*%
%TO.N,GND*%
X126800000Y-82315000D03*
%TD*%
D15*
%TO.P,C30,1*%
%TO.N,Net-(C30-Pad1)*%
X125730000Y-83400000D03*
%TO.P,C30,2*%
%TO.N,Net-(C30-Pad2)*%
X124770000Y-83400000D03*
%TD*%
D13*
%TO.P,C13,1*%
%TO.N,Net-(C13-Pad1)*%
X122720000Y-94788154D03*
%TO.P,C13,2*%
%TO.N,Net-(C13-Pad2)*%
X123680000Y-94788154D03*
%TD*%
%TO.P,C23,1*%
%TO.N,GND*%
X119120000Y-80400000D03*
%TO.P,C23,2*%
%TO.N,VDD*%
X120080000Y-80400000D03*
%TD*%
D25*
%TO.P,R2,1*%
%TO.N,Net-(R2-Pad1)*%
X121890000Y-80400000D03*
%TO.P,R2,2*%
%TO.N,GND*%
X122910000Y-80400000D03*
%TD*%
D12*
%TO.P,C26,1*%
%TO.N,GND*%
X124500000Y-80270000D03*
%TO.P,C26,2*%
%TO.N,VDD*%
X124500000Y-81230000D03*
%TD*%
D16*
%TO.P,AE1,1,A*%
%TO.N,Net-(AE1-Pad1)*%
X115600000Y-93800000D03*
D17*
%TO.P,AE1,2,Shield*%
%TO.N,GND*%
X115600000Y-95900000D03*
%TD*%
D26*
%TO.P,L1,1,1*%
%TO.N,Net-(C14-Pad1)*%
X121600000Y-96015000D03*
%TO.P,L1,2,2*%
%TO.N,GND*%
X121600000Y-96985000D03*
%TD*%
D11*
%TO.P,C17,1*%
%TO.N,GND*%
X118458750Y-97130000D03*
%TO.P,C17,2*%
%TO.N,Net-(C16-Pad2)*%
X118458750Y-96170000D03*
%TD*%
D23*
%TO.P,L3,1,1*%
%TO.N,Net-(AE1-Pad1)*%
X117515000Y-95200000D03*
%TO.P,L3,2,2*%
%TO.N,Net-(C16-Pad2)*%
X118485000Y-95200000D03*
%TD*%
D11*
%TO.P,C34,1*%
%TO.N,GND*%
X131100000Y-85680000D03*
%TO.P,C34,2*%
%TO.N,Net-(AE2-Pad1)*%
X131100000Y-84720000D03*
%TD*%
%TO.P,C22,1*%
%TO.N,GND*%
X117600000Y-86480000D03*
%TO.P,C22,2*%
%TO.N,VDD*%
X117600000Y-85520000D03*
%TD*%
D27*
%TO.P,R1,1*%
%TO.N,Net-(R1-Pad1)*%
X126310000Y-98700000D03*
%TO.P,R1,2*%
%TO.N,GND*%
X125290000Y-98700000D03*
%TD*%
D28*
%TO.N,GND*%
X121900000Y-88100000D03*
X130300000Y-79250000D03*
X120300000Y-83300000D03*
X130300000Y-99300000D03*
X127100000Y-96000000D03*
X130250000Y-80400000D03*
X116500000Y-98400000D03*
X128700000Y-85700000D03*
X126850000Y-80350000D03*
X116400000Y-92600000D03*
X118874500Y-98600000D03*
X132200000Y-87100000D03*
X125100000Y-79200000D03*
X124200000Y-90700000D03*
X128750000Y-81250000D03*
X116600000Y-79200000D03*
X126300000Y-79200000D03*
X117800000Y-92000000D03*
X116400000Y-91500000D03*
X116075500Y-82700000D03*
X131800000Y-94600000D03*
X121150000Y-83300000D03*
X125650000Y-85350000D03*
X127700000Y-79200000D03*
X118000000Y-79200000D03*
X119900000Y-79200000D03*
X116500000Y-97400000D03*
X131600000Y-81500000D03*
X125300000Y-97500000D03*
X127900000Y-85900000D03*
X121100000Y-84200000D03*
X116600000Y-89000000D03*
X116400000Y-90400000D03*
X129968767Y-92881233D03*
X122500000Y-93900000D03*
X131800000Y-91500000D03*
X128100000Y-96000000D03*
X118300000Y-86400000D03*
X131800000Y-90400000D03*
X131650000Y-79250000D03*
X131100000Y-89300000D03*
X116300000Y-94900000D03*
X132200000Y-86000000D03*
X131650000Y-80400000D03*
X117600000Y-99400000D03*
X116500000Y-99400000D03*
X132000000Y-99200000D03*
X128850000Y-82350000D03*
X116600000Y-80200000D03*
X130900000Y-97400000D03*
X117800000Y-80000000D03*
X122200000Y-79200000D03*
X116200000Y-86850000D03*
X119222082Y-93541804D03*
X120300000Y-84200000D03*
X118750000Y-94100000D03*
X127100000Y-95100000D03*
X130300000Y-91500000D03*
X131600000Y-82550000D03*
X128050000Y-81600000D03*
X132000000Y-98100000D03*
X121700000Y-98800000D03*
X131100000Y-88100000D03*
X129100000Y-79250000D03*
X127750000Y-80350000D03*
X117050000Y-92100000D03*
X123800000Y-79200000D03*
X127100000Y-91450000D03*
X128100000Y-95100000D03*
X120700000Y-93900000D03*
X131100000Y-98600000D03*
X125200000Y-82300000D03*
X121000000Y-79600000D03*
X129100000Y-90400000D03*
X129100000Y-80350000D03*
%TO.N,SPI2_MOSI*%
X129200000Y-97600000D03*
%TO.N,SPI2_NSS*%
X129300000Y-92400000D03*
%TO.N,VDD*%
X124475500Y-85550000D03*
X125400000Y-93200000D03*
X124600000Y-96300000D03*
X123450000Y-87750000D03*
X127200000Y-98924500D03*
X127068951Y-92198355D03*
X117800000Y-84600000D03*
X130635298Y-94764702D03*
X124600000Y-94500000D03*
X121522266Y-87122266D03*
X123637500Y-82387500D03*
X122500000Y-97900000D03*
X120700000Y-80778732D03*
%TO.N,SPI2_SCK*%
X130200000Y-97800000D03*
%TO.N,SPI1_SCK*%
X117775500Y-81000000D03*
%TO.N,SPI1_MISO*%
X117000000Y-81800000D03*
%TO.N,SPI1_NSS*%
X119300000Y-87300000D03*
%TO.N,SPI2_MISO*%
X130500000Y-96100000D03*
X124000000Y-89950000D03*
%TO.N,SPI1_MOSI*%
X119400000Y-81350000D03*
%TO.N,GD0_INT_2*%
X129100000Y-93700000D03*
X117500000Y-97700000D03*
%TO.N,GD0_INT_1*%
X117236803Y-89289456D03*
X119500000Y-85650000D03*
%TD*%
D29*
%TO.N,GND*%
X126716250Y-87138154D02*
X126838154Y-87138154D01*
X126838154Y-87138154D02*
X128416250Y-88716250D01*
X128416250Y-88716250D02*
X128416250Y-88838154D01*
D30*
X126616250Y-87138154D02*
X126716250Y-87138154D01*
X128416250Y-88838154D02*
X128816250Y-88838154D01*
%TO.N,Net-(C7-Pad2)*%
X126058750Y-90788154D02*
X126616250Y-90230654D01*
X126616250Y-90230654D02*
X126616250Y-88838154D01*
%TO.N,GND*%
X122100000Y-91950000D02*
X121850000Y-91950000D01*
D29*
X121850000Y-91950000D02*
X120150000Y-90250000D01*
D30*
X120150000Y-90250000D02*
X119900000Y-90250000D01*
%TO.N,Net-(C20-Pad2)*%
X119900000Y-91950000D02*
X118650000Y-91950000D01*
X118650000Y-91950000D02*
X118200000Y-91500000D01*
X118200000Y-91500000D02*
X118200000Y-89243805D01*
X118200000Y-89243805D02*
X120900000Y-86543805D01*
X120900000Y-86543805D02*
X120900000Y-85737500D01*
%TO.N,GND*%
X124400000Y-91908154D02*
X122100000Y-91908154D01*
X122100000Y-91908154D02*
X122100000Y-92950000D01*
X122100000Y-92950000D02*
X121600000Y-93450000D01*
X121600000Y-93450000D02*
X121600000Y-94020000D01*
%TO.N,Net-(C18-Pad2)*%
X121900000Y-85737500D02*
X121900000Y-86474695D01*
X121900000Y-86474695D02*
X122650000Y-87224695D01*
X122650000Y-87224695D02*
X122650000Y-89700000D01*
X122650000Y-89700000D02*
X122100000Y-90250000D01*
%TO.N,GND*%
X128071250Y-97475654D02*
X128071250Y-96088154D01*
X125574404Y-87480000D02*
X126066250Y-86988154D01*
X128872391Y-98792391D02*
X128980000Y-98900000D01*
X128980000Y-98900000D02*
X128980000Y-98892391D01*
X122512500Y-81962500D02*
X124500000Y-79975000D01*
X128980000Y-98892391D02*
X128352609Y-98265000D01*
X124237500Y-98780000D02*
X123200000Y-98780000D01*
X124400000Y-91908154D02*
X124400000Y-91486904D01*
X126800000Y-86254404D02*
X126066250Y-86988154D01*
X120400000Y-81962500D02*
X120400000Y-83350000D01*
X126800000Y-85230000D02*
X126800000Y-86254404D01*
X126524346Y-97475654D02*
X125300000Y-98700000D01*
X124200000Y-87480000D02*
X124200000Y-87980000D01*
X124400000Y-91486904D02*
X125098750Y-90788154D01*
X128071250Y-97475654D02*
X128071250Y-98183641D01*
X128352609Y-98265000D02*
X128152609Y-98265000D01*
X121900000Y-82850000D02*
X120900000Y-83850000D01*
X126571250Y-97475654D02*
X126524346Y-97475654D01*
X121900000Y-81962500D02*
X121900000Y-82850000D01*
X126571250Y-97475654D02*
X126571250Y-96588154D01*
X128071250Y-96088154D02*
X127571250Y-95588154D01*
X124200000Y-87980000D02*
X123580000Y-88600000D01*
X124200000Y-87480000D02*
X125574404Y-87480000D01*
X125300000Y-98700000D02*
X125290000Y-98700000D01*
X128152609Y-98265000D02*
X128071250Y-98183641D01*
X126571250Y-96588154D02*
X127571250Y-95588154D01*
X120400000Y-83350000D02*
X120900000Y-83850000D01*
X121900000Y-81962500D02*
X122512500Y-81962500D01*
%TO.N,Net-(C7-Pad2)*%
X126571250Y-93700654D02*
X126571250Y-93321250D01*
X126571250Y-93321250D02*
X126058750Y-92808750D01*
X126058750Y-92808750D02*
X126058750Y-90788154D01*
%TO.N,Net-(C10-Pad2)*%
X130491250Y-88013154D02*
X129466250Y-86988154D01*
X127571250Y-93028750D02*
X130058750Y-90541250D01*
X130058750Y-90541250D02*
X130058750Y-90508154D01*
X130058750Y-90508154D02*
X130491250Y-90075654D01*
X130491250Y-90075654D02*
X130491250Y-88013154D01*
X127571250Y-93700654D02*
X127571250Y-93028750D01*
%TO.N,Net-(C13-Pad1)*%
X120535000Y-94788154D02*
X120726846Y-94980000D01*
X122528154Y-94980000D02*
X122720000Y-94788154D01*
X120726846Y-94980000D02*
X122528154Y-94980000D01*
%TO.N,Net-(AE1-Pad1)*%
X117515000Y-95200000D02*
X117413173Y-95200000D01*
X117515000Y-94265000D02*
X117550000Y-94230000D01*
X116013173Y-93800000D02*
X115600000Y-93800000D01*
X117413173Y-95200000D02*
X116013173Y-93800000D01*
X117515000Y-95200000D02*
X117515000Y-94265000D01*
%TO.N,Net-(C14-Pad1)*%
X122508154Y-96000000D02*
X121615000Y-96000000D01*
X122720000Y-95788154D02*
X122508154Y-96000000D01*
X121600000Y-96015000D02*
X121015000Y-96015000D01*
X120800000Y-95800000D02*
X120538750Y-95800000D01*
X121615000Y-96000000D02*
X121600000Y-96015000D01*
X121015000Y-96015000D02*
X120800000Y-95800000D01*
%TO.N,Net-(C14-Pad2)*%
X125683750Y-95588154D02*
X123880000Y-95588154D01*
X123880000Y-95588154D02*
X123680000Y-95788154D01*
%TO.N,Net-(C16-Pad2)*%
X118950000Y-95200000D02*
X119550000Y-95800000D01*
X118485000Y-95200000D02*
X119153154Y-95200000D01*
X118485000Y-95200000D02*
X118950000Y-95200000D01*
X119550000Y-95800000D02*
X119578750Y-95800000D01*
X119153154Y-95200000D02*
X119565000Y-94788154D01*
X118458750Y-95226250D02*
X118458750Y-96170000D01*
%TO.N,Net-(C29-Pad1)*%
X125860000Y-84270000D02*
X126800000Y-84270000D01*
X127785000Y-84270000D02*
X127915000Y-84400000D01*
X125730000Y-84400000D02*
X125860000Y-84270000D01*
X126800000Y-84270000D02*
X127785000Y-84270000D01*
%TO.N,Net-(C29-Pad2)*%
X122787500Y-84350000D02*
X124720000Y-84350000D01*
X124720000Y-84350000D02*
X124770000Y-84400000D01*
%TO.N,Net-(C30-Pad1)*%
X125730000Y-83400000D02*
X125845000Y-83285000D01*
X127855000Y-83285000D02*
X126800000Y-83285000D01*
X127920000Y-83350000D02*
X127855000Y-83285000D01*
X125845000Y-83285000D02*
X126800000Y-83285000D01*
%TO.N,Net-(C30-Pad2)*%
X124170000Y-83850000D02*
X124770000Y-83250000D01*
X122787500Y-83850000D02*
X124170000Y-83850000D01*
%TO.N,Net-(C32-Pad2)*%
X128885000Y-84400000D02*
X129400000Y-83885000D01*
X129400000Y-83720000D02*
X130100000Y-83720000D01*
X130100000Y-83720000D02*
X130100000Y-82815000D01*
X129400000Y-83720000D02*
X129030000Y-83350000D01*
X129030000Y-83350000D02*
X128880000Y-83350000D01*
X129400000Y-83885000D02*
X129400000Y-83720000D01*
%TO.N,SPI2_MOSI*%
X128571250Y-97475654D02*
X128871250Y-97475654D01*
X128871250Y-97475654D02*
X129075654Y-97475654D01*
X129075654Y-97475654D02*
X129200000Y-97600000D01*
%TO.N,SPI2_NSS*%
X128900000Y-92800000D02*
X128436396Y-92800000D01*
X129300000Y-92400000D02*
X128900000Y-92800000D01*
X128071250Y-93165146D02*
X128071250Y-93700654D01*
X128436396Y-92800000D02*
X128071250Y-93165146D01*
%TO.N,VDD*%
X125068154Y-92868154D02*
X124400000Y-92868154D01*
X123637500Y-82092500D02*
X124530000Y-81200000D01*
X123175000Y-82850000D02*
X123637500Y-82387500D01*
X120900000Y-80978732D02*
X120700000Y-80778732D01*
X125683750Y-96088154D02*
X124811846Y-96088154D01*
X127071250Y-92175654D02*
X127071250Y-93700654D01*
X130658750Y-94788154D02*
X130658750Y-93988154D01*
X121400000Y-85737500D02*
X121400000Y-86999294D01*
X120458732Y-80778732D02*
X120700000Y-80778732D01*
X127068951Y-92198355D02*
X127068951Y-93698355D01*
X124475500Y-85550000D02*
X123775500Y-84850000D01*
X117800000Y-84600000D02*
X117200000Y-84000000D01*
X124200000Y-97763604D02*
X124190552Y-97773052D01*
X118050000Y-84850000D02*
X117800000Y-84600000D01*
X120080000Y-80400000D02*
X120458732Y-80778732D01*
X125400000Y-93200000D02*
X125683750Y-93483750D01*
X121522619Y-87121913D02*
X121522266Y-87122266D01*
X131978750Y-93668154D02*
X130978750Y-93668154D01*
X129458750Y-94588154D02*
X130188154Y-94588154D01*
X121522266Y-87122266D02*
X121000000Y-87644532D01*
X124600000Y-96300000D02*
X124888154Y-96588154D01*
X125570000Y-81200000D02*
X125600000Y-81230000D01*
X130658750Y-94788154D02*
X130938750Y-94788154D01*
X124600000Y-96300000D02*
X124200000Y-96700000D01*
X124530000Y-81200000D02*
X125570000Y-81200000D01*
X130400000Y-94800000D02*
X130600000Y-94800000D01*
X130938750Y-94788154D02*
X131658750Y-95508154D01*
X123637500Y-82387500D02*
X123637500Y-82092500D01*
X127068951Y-93698355D02*
X127071250Y-93700654D01*
X117200000Y-84000000D02*
X117200000Y-83680000D01*
X130188154Y-94588154D02*
X130400000Y-94800000D01*
X130600000Y-94800000D02*
X130635298Y-94764702D01*
X128020000Y-98900000D02*
X127571250Y-98451250D01*
X122787500Y-82850000D02*
X122787500Y-83350000D01*
X130635298Y-94764702D02*
X130658750Y-94788154D01*
X117400000Y-85520000D02*
X117800000Y-85120000D01*
X124200000Y-96700000D02*
X124200000Y-97763604D01*
X121000000Y-87644532D02*
X121000000Y-87920000D01*
X119012500Y-84850000D02*
X118050000Y-84850000D01*
X127200000Y-98924500D02*
X127995500Y-98924500D01*
X124888154Y-96588154D02*
X125683750Y-96588154D01*
X124475500Y-85550000D02*
X124200000Y-85825500D01*
X127978750Y-91468154D02*
X127271250Y-92175654D01*
X123775500Y-84850000D02*
X122787500Y-84850000D01*
X117800000Y-85120000D02*
X117800000Y-84600000D01*
X124811846Y-96088154D02*
X124600000Y-96300000D01*
X125683750Y-96088154D02*
X125683750Y-96588154D01*
X122500000Y-97900000D02*
X123120000Y-97900000D01*
X125400000Y-93200000D02*
X125068154Y-92868154D01*
X125683750Y-93483750D02*
X125683750Y-94588154D01*
X130658750Y-93988154D02*
X130978750Y-93668154D01*
X127571250Y-98451250D02*
X127571250Y-97475654D01*
X121400000Y-86999294D02*
X121522619Y-87121913D01*
X124237500Y-97820000D02*
X123200000Y-97820000D01*
X119012500Y-84350000D02*
X119012500Y-84850000D01*
X129458750Y-94588154D02*
X129458750Y-95088154D01*
X123120000Y-97900000D02*
X123200000Y-97820000D01*
X127995500Y-98924500D02*
X128020000Y-98900000D01*
X120900000Y-80978732D02*
X120900000Y-81962500D01*
X122787500Y-82850000D02*
X123175000Y-82850000D01*
X116600000Y-85520000D02*
X117400000Y-85520000D01*
X124200000Y-85825500D02*
X124200000Y-86520000D01*
%TO.N,SPI2_SCK*%
X130200000Y-97329404D02*
X129458750Y-96588154D01*
X130200000Y-97800000D02*
X130200000Y-97329404D01*
%TO.N,Net-(R1-Pad1)*%
X126500000Y-98700000D02*
X126310000Y-98700000D01*
X127071250Y-98128750D02*
X126500000Y-98700000D01*
X127071250Y-97475654D02*
X127071250Y-98128750D01*
%TO.N,SPI1_SCK*%
X117775500Y-81000000D02*
X117775500Y-81011896D01*
X117775500Y-81011896D02*
X119012500Y-82248896D01*
X119012500Y-82248896D02*
X119012500Y-82850000D01*
%TO.N,SPI1_MISO*%
X117315000Y-82115000D02*
X117562609Y-82115000D01*
X117562609Y-82115000D02*
X118035000Y-82587391D01*
X118035000Y-82908008D02*
X118476992Y-83350000D01*
X118476992Y-83350000D02*
X119012500Y-83350000D01*
X117000000Y-81800000D02*
X117315000Y-82115000D01*
X118035000Y-82587391D02*
X118035000Y-82908008D01*
%TO.N,Net-(AE2-Pad1)*%
X131920000Y-83720000D02*
X132850000Y-84650000D01*
X132850000Y-84650000D02*
X133000000Y-84650000D01*
X131200000Y-83720000D02*
X131920000Y-83720000D01*
X131085000Y-84705000D02*
X131100000Y-84720000D01*
X131085000Y-83800000D02*
X131085000Y-84705000D01*
%TO.N,SPI1_NSS*%
X120400000Y-86273008D02*
X120400000Y-85737500D01*
X119300000Y-87300000D02*
X119373008Y-87300000D01*
X119373008Y-87300000D02*
X120400000Y-86273008D01*
%TO.N,SPI2_MISO*%
X129470596Y-96100000D02*
X129458750Y-96088154D01*
X130500000Y-96100000D02*
X129470596Y-96100000D01*
%TO.N,Net-(C13-Pad2)*%
X125683750Y-95088154D02*
X123980000Y-95088154D01*
X123980000Y-95088154D02*
X123680000Y-94788154D01*
%TO.N,Net-(R2-Pad1)*%
X121400000Y-81962500D02*
X121400000Y-80890000D01*
X121400000Y-80890000D02*
X121890000Y-80400000D01*
%TO.N,SPI1_MOSI*%
X119400000Y-81350000D02*
X119900000Y-81850000D01*
X119900000Y-81850000D02*
X119900000Y-81962500D01*
%TO.N,GD0_INT_2*%
X129099346Y-93700654D02*
X128571250Y-93700654D01*
X129100000Y-93700000D02*
X129099346Y-93700654D01*
%TO.N,GD0_INT_1*%
X119812500Y-85650000D02*
X119900000Y-85737500D01*
X119500000Y-85650000D02*
X119812500Y-85650000D01*
%TD*%
%TA.AperFunction,Conductor*%
%TO.N,GND*%
G36*
X115929013Y-94242688D02*
G01*
X115971475Y-94239314D01*
X116018439Y-94265592D01*
X116990504Y-95237657D01*
X117018281Y-95292174D01*
X117019500Y-95307661D01*
X117019500Y-95405486D01*
X117020028Y-95409069D01*
X117020028Y-95409076D01*
X117028448Y-95466271D01*
X117029569Y-95473884D01*
X117080628Y-95577880D01*
X117086419Y-95583661D01*
X117156830Y-95653950D01*
X117156833Y-95653952D01*
X117162621Y-95659730D01*
X117266706Y-95710608D01*
X117316229Y-95717833D01*
X117330969Y-95719983D01*
X117330971Y-95719983D01*
X117334514Y-95720500D01*
X117695486Y-95720500D01*
X117699069Y-95719972D01*
X117699076Y-95719972D01*
X117756271Y-95711552D01*
X117756273Y-95711551D01*
X117763884Y-95710431D01*
X117867880Y-95659372D01*
X117875351Y-95651888D01*
X117929899Y-95597245D01*
X117984391Y-95569420D01*
X118044831Y-95578939D01*
X118069908Y-95597126D01*
X118084946Y-95612139D01*
X118112769Y-95666633D01*
X118103248Y-95727073D01*
X118085005Y-95752205D01*
X118005526Y-95831684D01*
X118001866Y-95839532D01*
X118001865Y-95839534D01*
X117962927Y-95923037D01*
X117954778Y-95940513D01*
X117948250Y-95990099D01*
X117948251Y-96349900D01*
X117948674Y-96353110D01*
X117948674Y-96353117D01*
X117951271Y-96372845D01*
X117954778Y-96399487D01*
X117978199Y-96449714D01*
X117985656Y-96510442D01*
X117955993Y-96563956D01*
X117948330Y-96570408D01*
X117908705Y-96600485D01*
X117899240Y-96609950D01*
X117817951Y-96717045D01*
X117811387Y-96728695D01*
X117761748Y-96854068D01*
X117758643Y-96866295D01*
X117752818Y-96914432D01*
X117755386Y-96927522D01*
X117756906Y-96928934D01*
X117761734Y-96930000D01*
X119150886Y-96930000D01*
X119163571Y-96925878D01*
X119164791Y-96924200D01*
X119165269Y-96919280D01*
X119158857Y-96866295D01*
X119155752Y-96854068D01*
X119106113Y-96728695D01*
X119099549Y-96717045D01*
X119018260Y-96609950D01*
X119008795Y-96600485D01*
X118969170Y-96570408D01*
X118934250Y-96520166D01*
X118935532Y-96458994D01*
X118939297Y-96449722D01*
X118962722Y-96399487D01*
X118969250Y-96349901D01*
X118969250Y-96213651D01*
X118988157Y-96155460D01*
X119037657Y-96119496D01*
X119098843Y-96119496D01*
X119149348Y-96156870D01*
X119151865Y-96160465D01*
X119155526Y-96168316D01*
X119240434Y-96253224D01*
X119248282Y-96256884D01*
X119248284Y-96256885D01*
X119342394Y-96300769D01*
X119349263Y-96303972D01*
X119398849Y-96310500D01*
X119578722Y-96310500D01*
X119758650Y-96310499D01*
X119761860Y-96310076D01*
X119761867Y-96310076D01*
X119800725Y-96304961D01*
X119800726Y-96304961D01*
X119808237Y-96303972D01*
X119885049Y-96268154D01*
X119909216Y-96256885D01*
X119909218Y-96256884D01*
X119917066Y-96253224D01*
X119988746Y-96181544D01*
X120043263Y-96153767D01*
X120103695Y-96163338D01*
X120128754Y-96181544D01*
X120200434Y-96253224D01*
X120208282Y-96256884D01*
X120208284Y-96256885D01*
X120302394Y-96300769D01*
X120309263Y-96303972D01*
X120358849Y-96310500D01*
X120538722Y-96310500D01*
X120718650Y-96310499D01*
X120721860Y-96310076D01*
X120721867Y-96310076D01*
X120760727Y-96304961D01*
X120760730Y-96304960D01*
X120768237Y-96303972D01*
X120775101Y-96300771D01*
X120782375Y-96298651D01*
X120783056Y-96300986D01*
X120832354Y-96294926D01*
X120860024Y-96306669D01*
X120860371Y-96305925D01*
X120868220Y-96309585D01*
X120875316Y-96314554D01*
X120883683Y-96316796D01*
X120888971Y-96319262D01*
X120894456Y-96321258D01*
X120901955Y-96325588D01*
X120910481Y-96327091D01*
X120910483Y-96327092D01*
X120940216Y-96332334D01*
X120948628Y-96334198D01*
X120949171Y-96334343D01*
X120950478Y-96334694D01*
X121001799Y-96368005D01*
X121023738Y-96425122D01*
X121007915Y-96484226D01*
X121003731Y-96490181D01*
X120950107Y-96560827D01*
X120943541Y-96572480D01*
X120893148Y-96699761D01*
X120890042Y-96711990D01*
X120883090Y-96769434D01*
X120885657Y-96782522D01*
X120887176Y-96783934D01*
X120892006Y-96785000D01*
X122303113Y-96785000D01*
X122315798Y-96780878D01*
X122317018Y-96779200D01*
X122317496Y-96774280D01*
X122309958Y-96711989D01*
X122306853Y-96699762D01*
X122256459Y-96572480D01*
X122249891Y-96560823D01*
X122191848Y-96484355D01*
X122171726Y-96426573D01*
X122189410Y-96367999D01*
X122238146Y-96331007D01*
X122270704Y-96325500D01*
X122489620Y-96325500D01*
X122498249Y-96325877D01*
X122536961Y-96329264D01*
X122574504Y-96319204D01*
X122582938Y-96317334D01*
X122612671Y-96312092D01*
X122612673Y-96312091D01*
X122621199Y-96310588D01*
X122628699Y-96306258D01*
X122633185Y-96304625D01*
X122667045Y-96298654D01*
X122861483Y-96298653D01*
X122899900Y-96298653D01*
X122903110Y-96298230D01*
X122903117Y-96298230D01*
X122941975Y-96293115D01*
X122941976Y-96293115D01*
X122949487Y-96292126D01*
X123023884Y-96257434D01*
X123050466Y-96245039D01*
X123050468Y-96245038D01*
X123058316Y-96241378D01*
X123129996Y-96169698D01*
X123184513Y-96141921D01*
X123244945Y-96151492D01*
X123270004Y-96169698D01*
X123341684Y-96241378D01*
X123349532Y-96245038D01*
X123349534Y-96245039D01*
X123390265Y-96264032D01*
X123450513Y-96292126D01*
X123500099Y-96298654D01*
X123679972Y-96298654D01*
X123859900Y-96298653D01*
X123881403Y-96295823D01*
X123893238Y-96294265D01*
X123953398Y-96305416D01*
X123995514Y-96349800D01*
X124003499Y-96410462D01*
X123969792Y-96468257D01*
X123953442Y-96481976D01*
X123953440Y-96481979D01*
X123946806Y-96487545D01*
X123928326Y-96519554D01*
X123927373Y-96521205D01*
X123922732Y-96528489D01*
X123900446Y-96560316D01*
X123898204Y-96568684D01*
X123895738Y-96573971D01*
X123893742Y-96579456D01*
X123889412Y-96586955D01*
X123887909Y-96595481D01*
X123887908Y-96595483D01*
X123882666Y-96625216D01*
X123880796Y-96633650D01*
X123870736Y-96671193D01*
X123871491Y-96679822D01*
X123874123Y-96709905D01*
X123874500Y-96718534D01*
X123874500Y-97350452D01*
X123855593Y-97408643D01*
X123845504Y-97420456D01*
X123800456Y-97465504D01*
X123745939Y-97493281D01*
X123730452Y-97494500D01*
X123707048Y-97494500D01*
X123648857Y-97475593D01*
X123637044Y-97465504D01*
X123568316Y-97396776D01*
X123560468Y-97393116D01*
X123560466Y-97393115D01*
X123466356Y-97349231D01*
X123459487Y-97346028D01*
X123409901Y-97339500D01*
X123200033Y-97339500D01*
X122990100Y-97339501D01*
X122986890Y-97339924D01*
X122986883Y-97339924D01*
X122948025Y-97345039D01*
X122948024Y-97345039D01*
X122940513Y-97346028D01*
X122912000Y-97359324D01*
X122839534Y-97393115D01*
X122839532Y-97393116D01*
X122831684Y-97396776D01*
X122771716Y-97456744D01*
X122717199Y-97484521D01*
X122673345Y-97481589D01*
X122642148Y-97472259D01*
X122567273Y-97449866D01*
X122490644Y-97449398D01*
X122445282Y-97449121D01*
X122438231Y-97449078D01*
X122431452Y-97451015D01*
X122431448Y-97451016D01*
X122403485Y-97459008D01*
X122342338Y-97456820D01*
X122294156Y-97419109D01*
X122277342Y-97360279D01*
X122284231Y-97327376D01*
X122306852Y-97270240D01*
X122309958Y-97258010D01*
X122316910Y-97200566D01*
X122314343Y-97187478D01*
X122312824Y-97186066D01*
X122307994Y-97185000D01*
X121815680Y-97185000D01*
X121802995Y-97189122D01*
X121800000Y-97193243D01*
X121800000Y-97664319D01*
X121804122Y-97677004D01*
X121808243Y-97679999D01*
X121812041Y-97679999D01*
X121817998Y-97679640D01*
X121898012Y-97669958D01*
X121910238Y-97666853D01*
X121930771Y-97658723D01*
X121991836Y-97654880D01*
X122043497Y-97687664D01*
X122066022Y-97744552D01*
X122063424Y-97766725D01*
X122064754Y-97766932D01*
X122044901Y-97894440D01*
X122061633Y-98022394D01*
X122064471Y-98028845D01*
X122064472Y-98028847D01*
X122110693Y-98133892D01*
X122113605Y-98140510D01*
X122150002Y-98183810D01*
X122192100Y-98233892D01*
X122192103Y-98233894D01*
X122196639Y-98239291D01*
X122304060Y-98310796D01*
X122310788Y-98312898D01*
X122310790Y-98312899D01*
X122399104Y-98340490D01*
X122427233Y-98349278D01*
X122434286Y-98349407D01*
X122434852Y-98349499D01*
X122489272Y-98377466D01*
X122516860Y-98432078D01*
X122511074Y-98483670D01*
X122502998Y-98504068D01*
X122499893Y-98516295D01*
X122494068Y-98564432D01*
X122496636Y-98577522D01*
X122498156Y-98578934D01*
X122502984Y-98580000D01*
X124564320Y-98580000D01*
X124577005Y-98575878D01*
X124594062Y-98552402D01*
X124605987Y-98528997D01*
X124660503Y-98501219D01*
X124675991Y-98500000D01*
X125074320Y-98500000D01*
X125087005Y-98495878D01*
X125090000Y-98491757D01*
X125090000Y-97998516D01*
X125085878Y-97985831D01*
X125084200Y-97984611D01*
X125079280Y-97984133D01*
X125032499Y-97989794D01*
X125020272Y-97992899D01*
X124896175Y-98042032D01*
X124895599Y-98042357D01*
X124895102Y-98042457D01*
X124889897Y-98044518D01*
X124889526Y-98043581D01*
X124835620Y-98054450D01*
X124779989Y-98028979D01*
X124749953Y-97975673D01*
X124748000Y-97956106D01*
X124747999Y-97643342D01*
X124747999Y-97640100D01*
X124744888Y-97616459D01*
X124742461Y-97598025D01*
X124742461Y-97598024D01*
X124741472Y-97590513D01*
X124718480Y-97541208D01*
X124694385Y-97489534D01*
X124694384Y-97489532D01*
X124690724Y-97481684D01*
X124605816Y-97396776D01*
X124582660Y-97385978D01*
X124537913Y-97344252D01*
X124525500Y-97296255D01*
X124525500Y-96925658D01*
X124544407Y-96867467D01*
X124593907Y-96831503D01*
X124655093Y-96831503D01*
X124675008Y-96842544D01*
X124675699Y-96841348D01*
X124709373Y-96860790D01*
X124716629Y-96865413D01*
X124722407Y-96869459D01*
X124738309Y-96880593D01*
X124748470Y-96887708D01*
X124756832Y-96889949D01*
X124762114Y-96892412D01*
X124767608Y-96894411D01*
X124775109Y-96898742D01*
X124813382Y-96905491D01*
X124821810Y-96907360D01*
X124850981Y-96915176D01*
X124850984Y-96915176D01*
X124859347Y-96917417D01*
X124898050Y-96914031D01*
X124906679Y-96913654D01*
X125741144Y-96913654D01*
X125741145Y-96913653D01*
X125925596Y-96913653D01*
X125983787Y-96932560D01*
X126013805Y-96967708D01*
X126035459Y-97010206D01*
X126046250Y-97055151D01*
X126046250Y-97334974D01*
X126050372Y-97347659D01*
X126054493Y-97350654D01*
X126597250Y-97350654D01*
X126655441Y-97369561D01*
X126691405Y-97419061D01*
X126696250Y-97449654D01*
X126696250Y-97501654D01*
X126677343Y-97559845D01*
X126627843Y-97595809D01*
X126597250Y-97600654D01*
X126061930Y-97600654D01*
X126049245Y-97604776D01*
X126046250Y-97608897D01*
X126046250Y-97953591D01*
X126046468Y-97958227D01*
X126048743Y-97982291D01*
X126051310Y-97993991D01*
X126084511Y-98088533D01*
X126085952Y-98149701D01*
X126051165Y-98200035D01*
X126032949Y-98211056D01*
X125982040Y-98234796D01*
X125921314Y-98242252D01*
X125867800Y-98212590D01*
X125861347Y-98204926D01*
X125810945Y-98138524D01*
X125801476Y-98129055D01*
X125695480Y-98048599D01*
X125683828Y-98042034D01*
X125559728Y-97992899D01*
X125547501Y-97989794D01*
X125505567Y-97984720D01*
X125492477Y-97987288D01*
X125491065Y-97988807D01*
X125490000Y-97993633D01*
X125490000Y-99401484D01*
X125494122Y-99414169D01*
X125495800Y-99415389D01*
X125500720Y-99415867D01*
X125547501Y-99410206D01*
X125559728Y-99407101D01*
X125683828Y-99357966D01*
X125695480Y-99351401D01*
X125801476Y-99270945D01*
X125810945Y-99261476D01*
X125861347Y-99195074D01*
X125911589Y-99160154D01*
X125972761Y-99161436D01*
X125982025Y-99165198D01*
X126086827Y-99214068D01*
X126094339Y-99215057D01*
X126113922Y-99217635D01*
X126169147Y-99243976D01*
X126198342Y-99297746D01*
X126200000Y-99315788D01*
X126200000Y-99600500D01*
X126181093Y-99658691D01*
X126131593Y-99694655D01*
X126101000Y-99699500D01*
X116199500Y-99699500D01*
X116141309Y-99680593D01*
X116105345Y-99631093D01*
X116100500Y-99600500D01*
X116100500Y-98990720D01*
X122493481Y-98990720D01*
X122499893Y-99043705D01*
X122502998Y-99055932D01*
X122552637Y-99181305D01*
X122559201Y-99192955D01*
X122640490Y-99300050D01*
X122649950Y-99309510D01*
X122757045Y-99390799D01*
X122768695Y-99397363D01*
X122894067Y-99447001D01*
X122906295Y-99450107D01*
X122985080Y-99459641D01*
X122985370Y-99459659D01*
X122997005Y-99455878D01*
X123000000Y-99451757D01*
X123000000Y-99444320D01*
X123400000Y-99444320D01*
X123404122Y-99457005D01*
X123408243Y-99460000D01*
X123408966Y-99460000D01*
X123414920Y-99459641D01*
X123493705Y-99450107D01*
X123505933Y-99447001D01*
X123631305Y-99397363D01*
X123642960Y-99390797D01*
X123658895Y-99378701D01*
X123716677Y-99358579D01*
X123778605Y-99378701D01*
X123794540Y-99390797D01*
X123806195Y-99397363D01*
X123931567Y-99447001D01*
X123943795Y-99450107D01*
X124022580Y-99459641D01*
X124022870Y-99459659D01*
X124034505Y-99455878D01*
X124037500Y-99451757D01*
X124037500Y-99444320D01*
X124437500Y-99444320D01*
X124441622Y-99457005D01*
X124445743Y-99460000D01*
X124446466Y-99460000D01*
X124452420Y-99459641D01*
X124531205Y-99450107D01*
X124543433Y-99447001D01*
X124668805Y-99397363D01*
X124680455Y-99390799D01*
X124748585Y-99339086D01*
X124806367Y-99318965D01*
X124868293Y-99339085D01*
X124884519Y-99351400D01*
X124896172Y-99357966D01*
X125020272Y-99407101D01*
X125032499Y-99410206D01*
X125074433Y-99415280D01*
X125087523Y-99412712D01*
X125088935Y-99411193D01*
X125090000Y-99406367D01*
X125090000Y-98915680D01*
X125085878Y-98902995D01*
X125081757Y-98900000D01*
X125003180Y-98900000D01*
X124990495Y-98904122D01*
X124973438Y-98927598D01*
X124961513Y-98951003D01*
X124906997Y-98978781D01*
X124891509Y-98980000D01*
X124453180Y-98980000D01*
X124440495Y-98984122D01*
X124437500Y-98988243D01*
X124437500Y-99444320D01*
X124037500Y-99444320D01*
X124037500Y-98995680D01*
X124033378Y-98982995D01*
X124029257Y-98980000D01*
X123415680Y-98980000D01*
X123402995Y-98984122D01*
X123400000Y-98988243D01*
X123400000Y-99444320D01*
X123000000Y-99444320D01*
X123000000Y-98995680D01*
X122995878Y-98982995D01*
X122991757Y-98980000D01*
X122507864Y-98980000D01*
X122495179Y-98984122D01*
X122493959Y-98985800D01*
X122493481Y-98990720D01*
X116100500Y-98990720D01*
X116100500Y-97694440D01*
X117044901Y-97694440D01*
X117061633Y-97822394D01*
X117064471Y-97828845D01*
X117064472Y-97828847D01*
X117107464Y-97926554D01*
X117113605Y-97940510D01*
X117143163Y-97975673D01*
X117192100Y-98033892D01*
X117192103Y-98033894D01*
X117196639Y-98039291D01*
X117304060Y-98110796D01*
X117310788Y-98112898D01*
X117310790Y-98112899D01*
X117348074Y-98124547D01*
X117427233Y-98149278D01*
X117491744Y-98150460D01*
X117549202Y-98151514D01*
X117549204Y-98151514D01*
X117556255Y-98151643D01*
X117563058Y-98149788D01*
X117563060Y-98149788D01*
X117621364Y-98133892D01*
X117680755Y-98117700D01*
X117790724Y-98050179D01*
X117797804Y-98042357D01*
X117872590Y-97959735D01*
X117872590Y-97959734D01*
X117877322Y-97954507D01*
X117933588Y-97838375D01*
X117934758Y-97831423D01*
X117936752Y-97825174D01*
X117972456Y-97775487D01*
X118030547Y-97756275D01*
X118067509Y-97763226D01*
X118152817Y-97797001D01*
X118165045Y-97800107D01*
X118243830Y-97809641D01*
X118244120Y-97809659D01*
X118255755Y-97805878D01*
X118258750Y-97801757D01*
X118258750Y-97794320D01*
X118658750Y-97794320D01*
X118662872Y-97807005D01*
X118666993Y-97810000D01*
X118667716Y-97810000D01*
X118673670Y-97809641D01*
X118752455Y-97800107D01*
X118764683Y-97797001D01*
X118890055Y-97747363D01*
X118901705Y-97740799D01*
X119008800Y-97659510D01*
X119018260Y-97650050D01*
X119099549Y-97542955D01*
X119106113Y-97531305D01*
X119155752Y-97405932D01*
X119158857Y-97393705D01*
X119164682Y-97345568D01*
X119162114Y-97332478D01*
X119160594Y-97331066D01*
X119155766Y-97330000D01*
X118674430Y-97330000D01*
X118661745Y-97334122D01*
X118658750Y-97338243D01*
X118658750Y-97794320D01*
X118258750Y-97794320D01*
X118258750Y-97345680D01*
X118254628Y-97332995D01*
X118250507Y-97330000D01*
X117786771Y-97330000D01*
X117732925Y-97314076D01*
X117696824Y-97290677D01*
X117690906Y-97286841D01*
X117684150Y-97284821D01*
X117684149Y-97284820D01*
X117611373Y-97263055D01*
X117567273Y-97249866D01*
X117490644Y-97249398D01*
X117445282Y-97249121D01*
X117438231Y-97249078D01*
X117431454Y-97251015D01*
X117431453Y-97251015D01*
X117320935Y-97282601D01*
X117320933Y-97282602D01*
X117314155Y-97284539D01*
X117205019Y-97353399D01*
X117119596Y-97450122D01*
X117064754Y-97566932D01*
X117044901Y-97694440D01*
X116100500Y-97694440D01*
X116100500Y-97195720D01*
X120882504Y-97195720D01*
X120890042Y-97258011D01*
X120893147Y-97270238D01*
X120943541Y-97397520D01*
X120950107Y-97409173D01*
X121032637Y-97517901D01*
X121042099Y-97527363D01*
X121150827Y-97609893D01*
X121162480Y-97616459D01*
X121289761Y-97666852D01*
X121301990Y-97669958D01*
X121382004Y-97679641D01*
X121384889Y-97679815D01*
X121397005Y-97675878D01*
X121400000Y-97671757D01*
X121400000Y-97200680D01*
X121395878Y-97187995D01*
X121391757Y-97185000D01*
X120896887Y-97185000D01*
X120884202Y-97189122D01*
X120882982Y-97190800D01*
X120882504Y-97195720D01*
X116100500Y-97195720D01*
X116100500Y-96967346D01*
X116091283Y-96954659D01*
X116090956Y-96953654D01*
X116090335Y-96952800D01*
X116085490Y-96937888D01*
X116072806Y-96928672D01*
X116072184Y-96927816D01*
X116071328Y-96927194D01*
X116062112Y-96914510D01*
X116047200Y-96909665D01*
X116046346Y-96909044D01*
X116045341Y-96908717D01*
X116032654Y-96899500D01*
X115499000Y-96899500D01*
X115440809Y-96880593D01*
X115404845Y-96831093D01*
X115400000Y-96800500D01*
X115400000Y-96649500D01*
X115418907Y-96591309D01*
X115468407Y-96555345D01*
X115499000Y-96550500D01*
X115600893Y-96550500D01*
X115652059Y-96550545D01*
X115652348Y-96550545D01*
X115652436Y-96550503D01*
X115652460Y-96550500D01*
X115844108Y-96550500D01*
X115895563Y-96550545D01*
X115906512Y-96545288D01*
X115927345Y-96538013D01*
X115939185Y-96535312D01*
X115948475Y-96527909D01*
X115967314Y-96516091D01*
X115978024Y-96510948D01*
X115985611Y-96501461D01*
X116001222Y-96485877D01*
X116010724Y-96478305D01*
X116015883Y-96467608D01*
X116027736Y-96448786D01*
X116035156Y-96439508D01*
X116037877Y-96427673D01*
X116045190Y-96406849D01*
X116045623Y-96405952D01*
X116045623Y-96405951D01*
X116050465Y-96395913D01*
X116050485Y-96372845D01*
X116052230Y-96372847D01*
X116052224Y-96372781D01*
X116050500Y-96372781D01*
X116050500Y-96355892D01*
X116050545Y-96304726D01*
X116050545Y-96304437D01*
X116050503Y-96304349D01*
X116050500Y-96304325D01*
X116050500Y-95455892D01*
X116050521Y-95431684D01*
X116050545Y-95404437D01*
X116045288Y-95393488D01*
X116038013Y-95372655D01*
X116035312Y-95360815D01*
X116027909Y-95351525D01*
X116016089Y-95332683D01*
X116010948Y-95321976D01*
X116001461Y-95314389D01*
X115985877Y-95298778D01*
X115978305Y-95289276D01*
X115967608Y-95284117D01*
X115948786Y-95272264D01*
X115939508Y-95264844D01*
X115927673Y-95262123D01*
X115906849Y-95254810D01*
X115905952Y-95254377D01*
X115905951Y-95254377D01*
X115895913Y-95249535D01*
X115884768Y-95249525D01*
X115884767Y-95249525D01*
X115872845Y-95249515D01*
X115872847Y-95247770D01*
X115872781Y-95247776D01*
X115872781Y-95249500D01*
X115855892Y-95249500D01*
X115804726Y-95249455D01*
X115804437Y-95249455D01*
X115804349Y-95249497D01*
X115804325Y-95249500D01*
X115499000Y-95249500D01*
X115440809Y-95230593D01*
X115404845Y-95181093D01*
X115400000Y-95150500D01*
X115400000Y-94349500D01*
X115418907Y-94291309D01*
X115468407Y-94255345D01*
X115499000Y-94250500D01*
X115844108Y-94250500D01*
X115895563Y-94250545D01*
X115905610Y-94245720D01*
X115909623Y-94244809D01*
X115909699Y-94244783D01*
X115909593Y-94244529D01*
X115910482Y-94244160D01*
X115911907Y-94244047D01*
X115926265Y-94239258D01*
X115928253Y-94238863D01*
X115929013Y-94242688D01*
G37*
%TD.AperFunction*%
%TA.AperFunction,Conductor*%
G36*
X132458691Y-78719407D02*
G01*
X132494655Y-78768907D01*
X132499500Y-78799500D01*
X132499500Y-81432654D01*
X132508717Y-81445341D01*
X132509044Y-81446346D01*
X132509665Y-81447200D01*
X132514510Y-81462112D01*
X132527194Y-81471328D01*
X132527816Y-81472184D01*
X132528672Y-81472806D01*
X132537888Y-81485490D01*
X132552800Y-81490335D01*
X132553654Y-81490956D01*
X132554659Y-81491283D01*
X132567346Y-81500500D01*
X133101000Y-81500500D01*
X133159191Y-81519407D01*
X133195155Y-81568907D01*
X133200000Y-81599500D01*
X133200000Y-81800500D01*
X133181093Y-81858691D01*
X133131593Y-81894655D01*
X133101000Y-81899500D01*
X132999107Y-81899500D01*
X132947941Y-81899455D01*
X132947652Y-81899455D01*
X132947564Y-81899497D01*
X132947540Y-81899500D01*
X132755892Y-81899500D01*
X132704437Y-81899455D01*
X132694388Y-81904280D01*
X132694389Y-81904280D01*
X132693489Y-81904712D01*
X132672655Y-81911987D01*
X132660815Y-81914688D01*
X132652097Y-81921635D01*
X132651525Y-81922091D01*
X132632686Y-81933909D01*
X132621976Y-81939052D01*
X132614389Y-81948539D01*
X132598778Y-81964123D01*
X132589276Y-81971695D01*
X132584432Y-81981738D01*
X132584118Y-81982390D01*
X132572264Y-82001214D01*
X132564844Y-82010492D01*
X132562204Y-82021975D01*
X132562123Y-82022326D01*
X132554810Y-82043151D01*
X132549535Y-82054087D01*
X132549515Y-82077155D01*
X132547770Y-82077153D01*
X132547776Y-82077219D01*
X132549500Y-82077219D01*
X132549500Y-82094108D01*
X132549467Y-82132339D01*
X132549455Y-82145563D01*
X132549497Y-82145651D01*
X132549500Y-82145675D01*
X132549500Y-82994108D01*
X132549455Y-83045563D01*
X132554280Y-83055611D01*
X132554712Y-83056511D01*
X132561987Y-83077345D01*
X132564688Y-83089185D01*
X132571635Y-83097903D01*
X132572091Y-83098475D01*
X132583909Y-83117314D01*
X132589052Y-83128024D01*
X132598539Y-83135611D01*
X132614123Y-83151222D01*
X132621695Y-83160724D01*
X132632392Y-83165883D01*
X132651214Y-83177736D01*
X132660492Y-83185156D01*
X132672327Y-83187877D01*
X132693151Y-83195190D01*
X132694048Y-83195623D01*
X132694049Y-83195623D01*
X132704087Y-83200465D01*
X132715232Y-83200475D01*
X132715233Y-83200475D01*
X132727155Y-83200485D01*
X132727153Y-83202230D01*
X132727219Y-83202224D01*
X132727219Y-83200500D01*
X132744108Y-83200500D01*
X132795274Y-83200545D01*
X132795563Y-83200545D01*
X132795651Y-83200503D01*
X132795675Y-83200500D01*
X133101000Y-83200500D01*
X133159191Y-83219407D01*
X133195155Y-83268907D01*
X133200000Y-83299500D01*
X133200000Y-84100500D01*
X133181093Y-84158691D01*
X133131593Y-84194655D01*
X133101000Y-84199500D01*
X132900834Y-84199500D01*
X132842643Y-84180593D01*
X132830830Y-84170504D01*
X132163269Y-83502943D01*
X132157434Y-83496575D01*
X132156535Y-83495504D01*
X132132455Y-83466806D01*
X132098792Y-83447371D01*
X132091511Y-83442732D01*
X132074156Y-83430580D01*
X132059684Y-83420446D01*
X132051316Y-83418204D01*
X132046029Y-83415738D01*
X132040544Y-83413742D01*
X132033045Y-83409412D01*
X132024519Y-83407909D01*
X132024517Y-83407908D01*
X131994784Y-83402666D01*
X131986349Y-83400796D01*
X131957174Y-83392978D01*
X131948807Y-83390736D01*
X131940178Y-83391491D01*
X131910095Y-83394123D01*
X131901466Y-83394500D01*
X131532660Y-83394500D01*
X131474469Y-83375593D01*
X131462717Y-83365564D01*
X131454353Y-83357214D01*
X131437379Y-83340270D01*
X131333294Y-83289392D01*
X131283771Y-83282167D01*
X131269031Y-83280017D01*
X131269029Y-83280017D01*
X131265486Y-83279500D01*
X130904514Y-83279500D01*
X130900931Y-83280028D01*
X130900924Y-83280028D01*
X130843729Y-83288448D01*
X130843727Y-83288449D01*
X130836116Y-83289569D01*
X130732120Y-83340628D01*
X130726339Y-83346419D01*
X130670101Y-83402755D01*
X130615609Y-83430580D01*
X130555169Y-83421061D01*
X130530094Y-83402876D01*
X130529132Y-83401915D01*
X130473539Y-83346419D01*
X130469391Y-83342278D01*
X130441566Y-83287786D01*
X130451085Y-83227345D01*
X130469330Y-83202210D01*
X130553224Y-83118316D01*
X130558395Y-83107228D01*
X130600769Y-83016356D01*
X130600769Y-83016355D01*
X130603972Y-83009487D01*
X130610500Y-82959901D01*
X130610499Y-82600100D01*
X130605035Y-82558584D01*
X130604961Y-82558025D01*
X130604961Y-82558024D01*
X130603972Y-82550513D01*
X130580551Y-82500286D01*
X130573094Y-82439558D01*
X130602757Y-82386044D01*
X130610420Y-82379592D01*
X130650045Y-82349515D01*
X130659510Y-82340050D01*
X130740799Y-82232955D01*
X130747363Y-82221305D01*
X130797002Y-82095932D01*
X130800107Y-82083705D01*
X130805932Y-82035568D01*
X130803364Y-82022478D01*
X130801844Y-82021066D01*
X130797016Y-82020000D01*
X129407864Y-82020000D01*
X129395179Y-82024122D01*
X129393959Y-82025800D01*
X129393481Y-82030720D01*
X129399893Y-82083705D01*
X129402998Y-82095932D01*
X129452637Y-82221305D01*
X129459201Y-82232955D01*
X129540490Y-82340050D01*
X129549955Y-82349515D01*
X129589580Y-82379592D01*
X129624500Y-82429834D01*
X129623218Y-82491006D01*
X129619453Y-82500278D01*
X129596028Y-82550513D01*
X129589500Y-82600099D01*
X129589501Y-82959900D01*
X129589924Y-82963110D01*
X129589924Y-82963117D01*
X129594244Y-82995932D01*
X129596028Y-83009487D01*
X129606359Y-83031642D01*
X129641606Y-83107228D01*
X129646776Y-83118316D01*
X129731684Y-83203224D01*
X129734255Y-83204423D01*
X129769107Y-83250674D01*
X129774500Y-83282905D01*
X129774500Y-83287270D01*
X129755593Y-83345461D01*
X129745563Y-83357214D01*
X129737347Y-83365444D01*
X129682854Y-83393268D01*
X129667284Y-83394500D01*
X129575834Y-83394500D01*
X129517643Y-83375593D01*
X129505830Y-83365504D01*
X129389495Y-83249169D01*
X129361718Y-83194652D01*
X129360499Y-83179165D01*
X129360499Y-83140100D01*
X129360000Y-83136305D01*
X129354961Y-83098025D01*
X129354961Y-83098024D01*
X129353972Y-83090513D01*
X129327454Y-83033645D01*
X129306885Y-82989534D01*
X129306884Y-82989532D01*
X129303224Y-82981684D01*
X129218316Y-82896776D01*
X129210468Y-82893116D01*
X129210466Y-82893115D01*
X129116356Y-82849231D01*
X129109487Y-82846028D01*
X129059901Y-82839500D01*
X128880028Y-82839500D01*
X128700100Y-82839501D01*
X128696890Y-82839924D01*
X128696883Y-82839924D01*
X128658025Y-82845039D01*
X128658024Y-82845039D01*
X128650513Y-82846028D01*
X128623926Y-82858426D01*
X128549534Y-82893115D01*
X128549532Y-82893116D01*
X128541684Y-82896776D01*
X128470004Y-82968456D01*
X128415487Y-82996233D01*
X128355055Y-82986662D01*
X128329996Y-82968456D01*
X128258316Y-82896776D01*
X128250468Y-82893116D01*
X128250466Y-82893115D01*
X128156356Y-82849231D01*
X128149487Y-82846028D01*
X128099901Y-82839500D01*
X127920028Y-82839500D01*
X127740100Y-82839501D01*
X127736890Y-82839924D01*
X127736883Y-82839924D01*
X127698025Y-82845039D01*
X127698024Y-82845039D01*
X127690513Y-82846028D01*
X127663926Y-82858426D01*
X127589534Y-82893115D01*
X127589532Y-82893116D01*
X127581684Y-82896776D01*
X127565126Y-82913334D01*
X127510609Y-82941111D01*
X127450177Y-82931540D01*
X127406912Y-82888275D01*
X127397341Y-82827843D01*
X127416266Y-82783474D01*
X127449893Y-82739173D01*
X127456459Y-82727520D01*
X127506852Y-82600239D01*
X127509958Y-82588010D01*
X127516910Y-82530566D01*
X127514343Y-82517478D01*
X127512824Y-82516066D01*
X127507994Y-82515000D01*
X126096887Y-82515000D01*
X126084202Y-82519122D01*
X126082982Y-82520800D01*
X126082504Y-82525720D01*
X126090042Y-82588011D01*
X126093147Y-82600238D01*
X126143541Y-82727520D01*
X126150107Y-82739173D01*
X126196767Y-82800644D01*
X126216889Y-82858426D01*
X126199205Y-82917000D01*
X126150469Y-82953993D01*
X126117911Y-82959500D01*
X126115080Y-82959500D01*
X126069137Y-82945016D01*
X126068316Y-82946776D01*
X125966356Y-82899231D01*
X125959487Y-82896028D01*
X125909901Y-82889500D01*
X125730028Y-82889500D01*
X125550100Y-82889501D01*
X125546890Y-82889924D01*
X125546883Y-82889924D01*
X125508025Y-82895039D01*
X125508024Y-82895039D01*
X125500513Y-82896028D01*
X125459495Y-82915155D01*
X125399534Y-82943115D01*
X125399532Y-82943116D01*
X125391684Y-82946776D01*
X125320004Y-83018456D01*
X125265487Y-83046233D01*
X125205055Y-83036662D01*
X125179996Y-83018456D01*
X125108316Y-82946776D01*
X125100468Y-82943116D01*
X125100466Y-82943115D01*
X125006356Y-82899231D01*
X124999487Y-82896028D01*
X124949901Y-82889500D01*
X124770028Y-82889500D01*
X124590100Y-82889501D01*
X124586890Y-82889924D01*
X124586883Y-82889924D01*
X124548025Y-82895039D01*
X124548024Y-82895039D01*
X124540513Y-82896028D01*
X124499495Y-82915155D01*
X124439534Y-82943115D01*
X124439532Y-82943116D01*
X124431684Y-82946776D01*
X124346776Y-83031684D01*
X124343116Y-83039532D01*
X124343115Y-83039534D01*
X124304985Y-83121305D01*
X124296028Y-83140513D01*
X124289500Y-83190099D01*
X124289500Y-83229166D01*
X124270593Y-83287357D01*
X124260504Y-83299170D01*
X124064170Y-83495504D01*
X124009653Y-83523281D01*
X123994166Y-83524500D01*
X123574500Y-83524500D01*
X123516309Y-83505593D01*
X123480345Y-83456093D01*
X123475500Y-83425501D01*
X123475499Y-83266459D01*
X123475499Y-83261600D01*
X123463888Y-83203224D01*
X123462143Y-83194449D01*
X123462142Y-83194447D01*
X123460240Y-83184883D01*
X123441372Y-83156645D01*
X123424764Y-83097760D01*
X123445941Y-83040356D01*
X123453684Y-83031642D01*
X123617289Y-82868037D01*
X123671806Y-82840260D01*
X123682866Y-82839491D01*
X123686699Y-82839014D01*
X123693755Y-82839143D01*
X123700558Y-82837288D01*
X123700560Y-82837288D01*
X123760302Y-82821000D01*
X123818255Y-82805200D01*
X123928224Y-82737679D01*
X123932959Y-82732448D01*
X124010090Y-82647235D01*
X124010090Y-82647234D01*
X124014822Y-82642007D01*
X124049218Y-82571015D01*
X124068012Y-82532224D01*
X124068012Y-82532223D01*
X124071088Y-82525875D01*
X124085252Y-82441684D01*
X124091863Y-82402391D01*
X124091863Y-82402386D01*
X124092497Y-82398620D01*
X124092633Y-82387500D01*
X124074339Y-82259759D01*
X124061327Y-82231140D01*
X124057801Y-82223384D01*
X124050929Y-82162586D01*
X124077920Y-82112406D01*
X124090892Y-82099434D01*
X126083090Y-82099434D01*
X126085657Y-82112522D01*
X126087176Y-82113934D01*
X126092006Y-82115000D01*
X126584320Y-82115000D01*
X126597005Y-82110878D01*
X126600000Y-82106757D01*
X126600000Y-82099320D01*
X127000000Y-82099320D01*
X127004122Y-82112005D01*
X127008243Y-82115000D01*
X127503113Y-82115000D01*
X127515798Y-82110878D01*
X127517018Y-82109200D01*
X127517496Y-82104280D01*
X127509958Y-82041989D01*
X127506853Y-82029762D01*
X127456459Y-81902480D01*
X127449893Y-81890827D01*
X127367363Y-81782099D01*
X127357901Y-81772637D01*
X127249173Y-81690107D01*
X127237520Y-81683541D01*
X127110239Y-81633148D01*
X127098010Y-81630042D01*
X127017996Y-81620359D01*
X127015111Y-81620185D01*
X127002995Y-81624122D01*
X127000000Y-81628243D01*
X127000000Y-82099320D01*
X126600000Y-82099320D01*
X126600000Y-81635681D01*
X126595878Y-81622996D01*
X126591757Y-81620001D01*
X126587959Y-81620001D01*
X126582002Y-81620360D01*
X126501988Y-81630042D01*
X126489762Y-81633147D01*
X126362480Y-81683541D01*
X126350827Y-81690107D01*
X126242099Y-81772637D01*
X126232637Y-81782099D01*
X126150107Y-81890827D01*
X126143541Y-81902480D01*
X126093148Y-82029761D01*
X126090042Y-82041990D01*
X126083090Y-82099434D01*
X124090892Y-82099434D01*
X124450830Y-81739496D01*
X124505347Y-81711719D01*
X124520833Y-81710500D01*
X124693043Y-81710499D01*
X124709900Y-81710499D01*
X124713110Y-81710076D01*
X124713117Y-81710076D01*
X124751975Y-81704961D01*
X124751976Y-81704961D01*
X124759487Y-81703972D01*
X124823972Y-81673902D01*
X124860466Y-81656885D01*
X124860468Y-81656884D01*
X124868316Y-81653224D01*
X124953224Y-81568316D01*
X124954423Y-81565745D01*
X125000674Y-81530893D01*
X125032905Y-81525500D01*
X125067095Y-81525500D01*
X125125286Y-81544407D01*
X125144965Y-81564432D01*
X125146776Y-81568316D01*
X125231684Y-81653224D01*
X125239532Y-81656884D01*
X125239534Y-81656885D01*
X125333644Y-81700769D01*
X125340513Y-81703972D01*
X125390099Y-81710500D01*
X125599967Y-81710500D01*
X125809900Y-81710499D01*
X125813110Y-81710076D01*
X125813117Y-81710076D01*
X125851975Y-81704961D01*
X125851976Y-81704961D01*
X125859487Y-81703972D01*
X125923972Y-81673902D01*
X125960466Y-81656885D01*
X125960468Y-81656884D01*
X125968316Y-81653224D01*
X126017108Y-81604432D01*
X129394068Y-81604432D01*
X129396636Y-81617522D01*
X129398156Y-81618934D01*
X129402984Y-81620000D01*
X129884320Y-81620000D01*
X129897005Y-81615878D01*
X129900000Y-81611757D01*
X129900000Y-81604320D01*
X130300000Y-81604320D01*
X130304122Y-81617005D01*
X130308243Y-81620000D01*
X130792136Y-81620000D01*
X130804821Y-81615878D01*
X130806041Y-81614200D01*
X130806519Y-81609280D01*
X130800107Y-81556295D01*
X130797002Y-81544068D01*
X130747363Y-81418695D01*
X130740799Y-81407045D01*
X130659510Y-81299950D01*
X130650050Y-81290490D01*
X130542955Y-81209201D01*
X130531305Y-81202637D01*
X130405933Y-81152999D01*
X130393705Y-81149893D01*
X130314920Y-81140359D01*
X130314630Y-81140341D01*
X130302995Y-81144122D01*
X130300000Y-81148243D01*
X130300000Y-81604320D01*
X129900000Y-81604320D01*
X129900000Y-81155680D01*
X129895878Y-81142995D01*
X129891757Y-81140000D01*
X129891034Y-81140000D01*
X129885080Y-81140359D01*
X129806295Y-81149893D01*
X129794067Y-81152999D01*
X129668695Y-81202637D01*
X129657045Y-81209201D01*
X129549950Y-81290490D01*
X129540490Y-81299950D01*
X129459201Y-81407045D01*
X129452637Y-81418695D01*
X129402998Y-81544068D01*
X129399893Y-81556295D01*
X129394068Y-81604432D01*
X126017108Y-81604432D01*
X126053224Y-81568316D01*
X126058733Y-81556504D01*
X126100769Y-81466356D01*
X126103972Y-81459487D01*
X126110500Y-81409901D01*
X126110499Y-81050100D01*
X126107173Y-81024826D01*
X126104961Y-81008025D01*
X126104961Y-81008024D01*
X126103972Y-81000513D01*
X126080551Y-80950286D01*
X126073094Y-80889558D01*
X126102757Y-80836044D01*
X126110420Y-80829592D01*
X126150045Y-80799515D01*
X126159510Y-80790050D01*
X126240799Y-80682955D01*
X126247363Y-80671305D01*
X126297002Y-80545932D01*
X126300107Y-80533705D01*
X126305932Y-80485568D01*
X126303364Y-80472478D01*
X126301844Y-80471066D01*
X126297016Y-80470000D01*
X123807864Y-80470000D01*
X123795179Y-80474122D01*
X123793959Y-80475800D01*
X123793481Y-80480720D01*
X123799893Y-80533705D01*
X123802998Y-80545932D01*
X123852637Y-80671305D01*
X123859201Y-80682955D01*
X123940490Y-80790050D01*
X123949955Y-80799515D01*
X123989580Y-80829592D01*
X124024500Y-80879834D01*
X124023218Y-80941006D01*
X124019453Y-80950278D01*
X123996028Y-81000513D01*
X123989500Y-81050099D01*
X123989501Y-81155680D01*
X123989501Y-81239164D01*
X123970594Y-81297355D01*
X123960505Y-81309169D01*
X123420443Y-81849231D01*
X123414076Y-81855065D01*
X123384306Y-81880045D01*
X123370065Y-81904712D01*
X123364873Y-81913705D01*
X123360232Y-81920989D01*
X123337946Y-81952816D01*
X123335704Y-81961184D01*
X123333238Y-81966471D01*
X123331242Y-81971956D01*
X123326912Y-81979455D01*
X123325409Y-81987981D01*
X123325408Y-81987983D01*
X123320166Y-82017716D01*
X123318296Y-82026150D01*
X123308236Y-82063693D01*
X123304507Y-82062694D01*
X123286779Y-82104013D01*
X123257096Y-82137622D01*
X123254100Y-82144004D01*
X123254099Y-82144005D01*
X123253315Y-82145675D01*
X123202254Y-82254432D01*
X123192248Y-82318695D01*
X123187311Y-82350406D01*
X123159494Y-82405180D01*
X123069170Y-82495504D01*
X123014653Y-82523281D01*
X122999166Y-82524500D01*
X122730106Y-82524500D01*
X122730105Y-82524501D01*
X122545654Y-82524501D01*
X122487463Y-82505594D01*
X122457445Y-82470446D01*
X122435791Y-82427948D01*
X122425000Y-82383003D01*
X122425000Y-82103180D01*
X122420878Y-82090495D01*
X122416757Y-82087500D01*
X121874000Y-82087500D01*
X121815809Y-82068593D01*
X121779845Y-82019093D01*
X121775000Y-81988500D01*
X121775000Y-81936500D01*
X121793907Y-81878309D01*
X121843407Y-81842345D01*
X121874000Y-81837500D01*
X122409320Y-81837500D01*
X122422005Y-81833378D01*
X122425000Y-81829257D01*
X122425000Y-81484563D01*
X122424782Y-81479927D01*
X122422507Y-81455863D01*
X122419940Y-81444166D01*
X122378310Y-81325620D01*
X122371460Y-81312684D01*
X122297631Y-81212726D01*
X122287274Y-81202369D01*
X122187316Y-81128540D01*
X122174379Y-81121689D01*
X122112611Y-81099998D01*
X122063972Y-81062878D01*
X122046440Y-81004258D01*
X122066714Y-80946528D01*
X122113380Y-80914515D01*
X122113172Y-80914068D01*
X122113173Y-80914068D01*
X122217960Y-80865205D01*
X122278686Y-80857748D01*
X122332201Y-80887411D01*
X122338653Y-80895074D01*
X122389055Y-80961476D01*
X122398524Y-80970945D01*
X122504520Y-81051401D01*
X122516172Y-81057966D01*
X122640272Y-81107101D01*
X122652499Y-81110206D01*
X122694433Y-81115280D01*
X122707523Y-81112712D01*
X122708935Y-81111193D01*
X122710000Y-81106367D01*
X122710000Y-81101484D01*
X123110000Y-81101484D01*
X123114122Y-81114169D01*
X123115800Y-81115389D01*
X123120720Y-81115867D01*
X123167501Y-81110206D01*
X123179728Y-81107101D01*
X123303828Y-81057966D01*
X123315480Y-81051401D01*
X123421476Y-80970945D01*
X123430945Y-80961476D01*
X123511401Y-80855480D01*
X123517966Y-80843828D01*
X123567101Y-80719728D01*
X123570206Y-80707501D01*
X123579641Y-80629534D01*
X123580000Y-80623578D01*
X123580000Y-80615680D01*
X123575878Y-80602995D01*
X123571757Y-80600000D01*
X123125680Y-80600000D01*
X123112995Y-80604122D01*
X123110000Y-80608243D01*
X123110000Y-81101484D01*
X122710000Y-81101484D01*
X122710000Y-80184320D01*
X123110000Y-80184320D01*
X123114122Y-80197005D01*
X123118243Y-80200000D01*
X123564319Y-80200000D01*
X123577004Y-80195878D01*
X123579999Y-80191757D01*
X123579999Y-80176423D01*
X123579640Y-80170465D01*
X123570206Y-80092498D01*
X123567101Y-80080273D01*
X123556870Y-80054432D01*
X123794068Y-80054432D01*
X123796636Y-80067522D01*
X123798156Y-80068934D01*
X123802984Y-80070000D01*
X124284320Y-80070000D01*
X124297005Y-80065878D01*
X124300000Y-80061757D01*
X124300000Y-80054320D01*
X124700000Y-80054320D01*
X124704122Y-80067005D01*
X124708243Y-80070000D01*
X125384320Y-80070000D01*
X125397005Y-80065878D01*
X125400000Y-80061757D01*
X125400000Y-80054320D01*
X125800000Y-80054320D01*
X125804122Y-80067005D01*
X125808243Y-80070000D01*
X126292136Y-80070000D01*
X126304821Y-80065878D01*
X126306041Y-80064200D01*
X126306519Y-80059280D01*
X126300107Y-80006295D01*
X126297002Y-79994068D01*
X126247363Y-79868695D01*
X126240799Y-79857045D01*
X126159510Y-79749950D01*
X126150050Y-79740490D01*
X126042955Y-79659201D01*
X126031305Y-79652637D01*
X125905933Y-79602999D01*
X125893705Y-79599893D01*
X125814920Y-79590359D01*
X125814630Y-79590341D01*
X125802995Y-79594122D01*
X125800000Y-79598243D01*
X125800000Y-80054320D01*
X125400000Y-80054320D01*
X125400000Y-79605680D01*
X125395878Y-79592995D01*
X125391757Y-79590000D01*
X125391034Y-79590000D01*
X125385080Y-79590359D01*
X125306295Y-79599893D01*
X125294067Y-79602999D01*
X125168695Y-79652637D01*
X125157040Y-79659203D01*
X125109855Y-79695019D01*
X125052073Y-79715141D01*
X124990145Y-79695019D01*
X124942960Y-79659203D01*
X124931305Y-79652637D01*
X124805933Y-79602999D01*
X124793705Y-79599893D01*
X124714920Y-79590359D01*
X124714630Y-79590341D01*
X124702995Y-79594122D01*
X124700000Y-79598243D01*
X124700000Y-80054320D01*
X124300000Y-80054320D01*
X124300000Y-79605680D01*
X124295878Y-79592995D01*
X124291757Y-79590000D01*
X124291034Y-79590000D01*
X124285080Y-79590359D01*
X124206295Y-79599893D01*
X124194067Y-79602999D01*
X124068695Y-79652637D01*
X124057045Y-79659201D01*
X123949950Y-79740490D01*
X123940490Y-79749950D01*
X123859201Y-79857045D01*
X123852637Y-79868695D01*
X123802998Y-79994068D01*
X123799893Y-80006295D01*
X123794068Y-80054432D01*
X123556870Y-80054432D01*
X123517966Y-79956172D01*
X123511401Y-79944520D01*
X123430945Y-79838524D01*
X123421476Y-79829055D01*
X123315480Y-79748599D01*
X123303828Y-79742034D01*
X123179728Y-79692899D01*
X123167501Y-79689794D01*
X123125567Y-79684720D01*
X123112477Y-79687288D01*
X123111065Y-79688807D01*
X123110000Y-79693633D01*
X123110000Y-80184320D01*
X122710000Y-80184320D01*
X122710000Y-79698516D01*
X122705878Y-79685831D01*
X122704200Y-79684611D01*
X122699280Y-79684133D01*
X122652499Y-79689794D01*
X122640272Y-79692899D01*
X122516172Y-79742034D01*
X122504520Y-79748599D01*
X122398524Y-79829055D01*
X122389055Y-79838524D01*
X122338653Y-79904926D01*
X122288411Y-79939846D01*
X122227239Y-79938564D01*
X122217975Y-79934802D01*
X122113173Y-79885932D01*
X122064316Y-79879500D01*
X121715684Y-79879500D01*
X121666827Y-79885932D01*
X121659959Y-79889135D01*
X121659958Y-79889135D01*
X121567446Y-79932274D01*
X121567444Y-79932275D01*
X121559596Y-79935935D01*
X121475935Y-80019596D01*
X121472275Y-80027444D01*
X121472274Y-80027446D01*
X121441940Y-80092498D01*
X121425932Y-80126827D01*
X121419500Y-80175684D01*
X121419500Y-80369166D01*
X121400593Y-80427357D01*
X121390504Y-80439170D01*
X121250922Y-80578752D01*
X121196405Y-80606529D01*
X121135973Y-80596958D01*
X121090797Y-80549726D01*
X121086350Y-80539945D01*
X121086348Y-80539941D01*
X121083428Y-80533520D01*
X120999193Y-80435760D01*
X120993276Y-80431925D01*
X120993274Y-80431923D01*
X120896824Y-80369409D01*
X120890906Y-80365573D01*
X120884150Y-80363553D01*
X120884149Y-80363552D01*
X120838922Y-80350026D01*
X120767273Y-80328598D01*
X120726940Y-80328352D01*
X120658894Y-80327936D01*
X120600820Y-80308674D01*
X120565159Y-80258955D01*
X120560499Y-80228938D01*
X120560499Y-80190100D01*
X120559877Y-80185370D01*
X120554961Y-80148025D01*
X120554961Y-80148024D01*
X120553972Y-80140513D01*
X120518387Y-80064200D01*
X120506885Y-80039534D01*
X120506884Y-80039532D01*
X120503224Y-80031684D01*
X120418316Y-79946776D01*
X120410468Y-79943116D01*
X120410466Y-79943115D01*
X120316356Y-79899231D01*
X120309487Y-79896028D01*
X120259901Y-79889500D01*
X120080028Y-79889500D01*
X119900100Y-79889501D01*
X119896890Y-79889924D01*
X119896883Y-79889924D01*
X119858025Y-79895039D01*
X119858024Y-79895039D01*
X119850513Y-79896028D01*
X119800286Y-79919449D01*
X119739558Y-79926906D01*
X119686044Y-79897243D01*
X119679592Y-79889580D01*
X119649515Y-79849955D01*
X119640050Y-79840490D01*
X119532955Y-79759201D01*
X119521305Y-79752637D01*
X119395932Y-79702998D01*
X119383705Y-79699893D01*
X119335568Y-79694068D01*
X119322478Y-79696636D01*
X119321066Y-79698156D01*
X119320000Y-79702984D01*
X119320000Y-80501000D01*
X119301093Y-80559191D01*
X119251593Y-80595155D01*
X119221000Y-80600000D01*
X118455680Y-80600000D01*
X118442995Y-80604122D01*
X118440000Y-80608243D01*
X118440000Y-80608966D01*
X118440359Y-80614920D01*
X118449893Y-80693705D01*
X118452999Y-80705933D01*
X118502637Y-80831305D01*
X118509201Y-80842955D01*
X118590490Y-80950050D01*
X118599950Y-80959510D01*
X118707045Y-81040799D01*
X118718695Y-81047363D01*
X118844067Y-81097001D01*
X118856295Y-81100107D01*
X118879000Y-81102855D01*
X118934497Y-81128617D01*
X118964253Y-81182080D01*
X118962479Y-81216578D01*
X118964754Y-81216932D01*
X118944901Y-81344440D01*
X118945816Y-81351437D01*
X118945816Y-81351438D01*
X118959624Y-81457028D01*
X118961633Y-81472394D01*
X118964355Y-81478581D01*
X118961799Y-81539577D01*
X118923794Y-81587528D01*
X118864863Y-81603982D01*
X118807515Y-81582655D01*
X118799004Y-81575073D01*
X118255074Y-81031144D01*
X118227078Y-80975175D01*
X118218391Y-80914515D01*
X118212339Y-80872259D01*
X118158928Y-80754788D01*
X118097033Y-80682955D01*
X118079298Y-80662372D01*
X118079297Y-80662371D01*
X118074693Y-80657028D01*
X118068776Y-80653193D01*
X118068774Y-80653191D01*
X117972324Y-80590677D01*
X117966406Y-80586841D01*
X117959650Y-80584821D01*
X117959649Y-80584820D01*
X117916835Y-80572016D01*
X117842773Y-80549866D01*
X117766144Y-80549398D01*
X117720782Y-80549121D01*
X117713731Y-80549078D01*
X117706954Y-80551015D01*
X117706953Y-80551015D01*
X117596435Y-80582601D01*
X117596433Y-80582602D01*
X117589655Y-80584539D01*
X117480519Y-80653399D01*
X117395096Y-80750122D01*
X117340254Y-80866932D01*
X117320401Y-80994440D01*
X117321316Y-81001437D01*
X117321316Y-81001438D01*
X117321685Y-81004258D01*
X117337133Y-81122394D01*
X117339971Y-81128845D01*
X117339972Y-81128847D01*
X117378730Y-81216932D01*
X117389105Y-81240510D01*
X117422445Y-81280173D01*
X117467600Y-81333892D01*
X117467603Y-81333894D01*
X117472139Y-81339291D01*
X117568249Y-81403267D01*
X117573347Y-81406660D01*
X117579560Y-81410796D01*
X117586288Y-81412898D01*
X117586290Y-81412899D01*
X117641147Y-81430037D01*
X117702733Y-81449278D01*
X117713542Y-81449476D01*
X117716485Y-81450492D01*
X117716744Y-81450534D01*
X117716737Y-81450579D01*
X117771377Y-81469445D01*
X117781733Y-81478455D01*
X118658004Y-82354727D01*
X118685781Y-82409244D01*
X118687000Y-82424731D01*
X118687000Y-82425501D01*
X118668093Y-82483692D01*
X118618593Y-82519656D01*
X118588000Y-82524501D01*
X118561600Y-82524501D01*
X118484883Y-82539760D01*
X118478230Y-82544206D01*
X118418333Y-82548918D01*
X118366165Y-82516948D01*
X118348417Y-82486516D01*
X118347092Y-82482875D01*
X118345588Y-82474346D01*
X118341257Y-82466845D01*
X118339259Y-82461355D01*
X118336796Y-82456074D01*
X118334554Y-82447707D01*
X118312268Y-82415880D01*
X118307627Y-82408596D01*
X118304045Y-82402391D01*
X118288194Y-82374936D01*
X118258429Y-82349960D01*
X118252061Y-82344126D01*
X117805878Y-81897943D01*
X117800043Y-81891575D01*
X117790368Y-81880045D01*
X117775064Y-81861806D01*
X117741401Y-81842371D01*
X117734120Y-81837732D01*
X117724013Y-81830655D01*
X117702293Y-81815446D01*
X117693925Y-81813204D01*
X117688638Y-81810738D01*
X117683153Y-81808742D01*
X117675654Y-81804412D01*
X117667128Y-81802909D01*
X117667126Y-81802908D01*
X117637393Y-81797666D01*
X117628958Y-81795796D01*
X117599783Y-81787978D01*
X117591416Y-81785736D01*
X117571643Y-81787466D01*
X117552704Y-81789123D01*
X117544075Y-81789500D01*
X117539461Y-81789500D01*
X117481270Y-81770593D01*
X117445306Y-81721093D01*
X117441461Y-81704534D01*
X117437839Y-81679243D01*
X117436839Y-81672259D01*
X117398314Y-81587528D01*
X117386349Y-81561212D01*
X117386348Y-81561211D01*
X117383428Y-81554788D01*
X117309892Y-81469445D01*
X117303798Y-81462372D01*
X117303797Y-81462371D01*
X117299193Y-81457028D01*
X117293276Y-81453193D01*
X117293274Y-81453191D01*
X117196824Y-81390677D01*
X117190906Y-81386841D01*
X117184150Y-81384821D01*
X117184149Y-81384820D01*
X117141335Y-81372016D01*
X117067273Y-81349866D01*
X116990644Y-81349398D01*
X116945282Y-81349121D01*
X116938231Y-81349078D01*
X116931454Y-81351015D01*
X116931453Y-81351015D01*
X116820935Y-81382601D01*
X116820933Y-81382602D01*
X116814155Y-81384539D01*
X116705019Y-81453399D01*
X116619596Y-81550122D01*
X116564754Y-81666932D01*
X116544901Y-81794440D01*
X116561633Y-81922394D01*
X116564471Y-81928845D01*
X116564472Y-81928847D01*
X116610764Y-82034054D01*
X116613605Y-82040510D01*
X116618142Y-82045907D01*
X116618143Y-82045909D01*
X116640430Y-82072422D01*
X116663400Y-82129132D01*
X116648650Y-82188512D01*
X116643504Y-82195979D01*
X116559201Y-82307045D01*
X116552637Y-82318695D01*
X116502998Y-82444068D01*
X116499893Y-82456295D01*
X116494068Y-82504432D01*
X116496636Y-82517522D01*
X116498156Y-82518934D01*
X116502984Y-82520000D01*
X117301000Y-82520000D01*
X117359191Y-82538907D01*
X117395155Y-82588407D01*
X117400000Y-82619000D01*
X117400000Y-82821000D01*
X117381093Y-82879191D01*
X117331593Y-82915155D01*
X117301000Y-82920000D01*
X116507864Y-82920000D01*
X116495179Y-82924122D01*
X116493959Y-82925800D01*
X116493481Y-82930720D01*
X116499893Y-82983705D01*
X116502998Y-82995932D01*
X116552637Y-83121305D01*
X116559201Y-83132955D01*
X116640490Y-83240050D01*
X116649955Y-83249515D01*
X116689580Y-83279592D01*
X116724500Y-83329834D01*
X116723218Y-83391006D01*
X116719453Y-83400278D01*
X116696028Y-83450513D01*
X116689500Y-83500099D01*
X116689501Y-83859900D01*
X116689924Y-83863110D01*
X116689924Y-83863117D01*
X116694664Y-83899123D01*
X116696028Y-83909487D01*
X116712355Y-83944500D01*
X116740824Y-84005551D01*
X116746776Y-84018316D01*
X116831684Y-84103224D01*
X116867082Y-84119731D01*
X116871837Y-84121948D01*
X116911091Y-84154886D01*
X116917126Y-84163504D01*
X116922731Y-84171509D01*
X116927371Y-84178792D01*
X116946806Y-84212455D01*
X116976571Y-84237431D01*
X116982939Y-84243265D01*
X117322728Y-84583054D01*
X117350888Y-84640222D01*
X117361633Y-84722394D01*
X117364473Y-84728848D01*
X117364474Y-84728852D01*
X117410764Y-84834054D01*
X117413605Y-84840510D01*
X117435225Y-84866231D01*
X117445632Y-84878611D01*
X117468602Y-84935321D01*
X117453851Y-84994702D01*
X117407015Y-85034072D01*
X117382769Y-85040466D01*
X117348025Y-85045039D01*
X117348024Y-85045039D01*
X117340513Y-85046028D01*
X117300342Y-85064760D01*
X117239534Y-85093115D01*
X117239532Y-85093116D01*
X117231684Y-85096776D01*
X117170004Y-85158456D01*
X117115487Y-85186233D01*
X117055055Y-85176662D01*
X117029996Y-85158456D01*
X116968316Y-85096776D01*
X116960468Y-85093116D01*
X116960466Y-85093115D01*
X116866356Y-85049231D01*
X116859487Y-85046028D01*
X116809901Y-85039500D01*
X116600033Y-85039500D01*
X116390100Y-85039501D01*
X116386890Y-85039924D01*
X116386883Y-85039924D01*
X116348025Y-85045039D01*
X116348024Y-85045039D01*
X116340513Y-85046028D01*
X116300342Y-85064760D01*
X116239534Y-85093115D01*
X116239532Y-85093116D01*
X116231684Y-85096776D01*
X116146776Y-85181684D01*
X116143116Y-85189532D01*
X116143115Y-85189534D01*
X116099231Y-85283644D01*
X116096028Y-85290513D01*
X116089500Y-85340099D01*
X116089501Y-85699900D01*
X116089924Y-85703110D01*
X116089924Y-85703117D01*
X116092276Y-85720983D01*
X116096028Y-85749487D01*
X116119449Y-85799714D01*
X116126906Y-85860442D01*
X116097243Y-85913956D01*
X116089580Y-85920408D01*
X116049955Y-85950485D01*
X116040490Y-85959950D01*
X115959201Y-86067045D01*
X115952637Y-86078695D01*
X115902998Y-86204068D01*
X115899893Y-86216295D01*
X115894068Y-86264432D01*
X115896636Y-86277522D01*
X115898156Y-86278934D01*
X115902984Y-86280000D01*
X118292136Y-86280000D01*
X118304821Y-86275878D01*
X118306041Y-86274200D01*
X118306519Y-86269280D01*
X118300107Y-86216295D01*
X118297002Y-86204068D01*
X118247363Y-86078695D01*
X118240799Y-86067045D01*
X118159510Y-85959950D01*
X118150045Y-85950485D01*
X118110420Y-85920408D01*
X118075500Y-85870166D01*
X118076782Y-85808994D01*
X118080547Y-85799722D01*
X118103972Y-85749487D01*
X118110500Y-85699901D01*
X118110499Y-85340100D01*
X118103972Y-85290513D01*
X118106544Y-85290174D01*
X118108053Y-85241032D01*
X118145519Y-85192659D01*
X118201224Y-85175500D01*
X119069894Y-85175500D01*
X119069895Y-85175499D01*
X119098460Y-85175499D01*
X119156651Y-85194406D01*
X119192615Y-85243906D01*
X119192615Y-85305092D01*
X119172664Y-85340034D01*
X119119596Y-85400122D01*
X119064754Y-85516932D01*
X119044901Y-85644440D01*
X119061633Y-85772394D01*
X119064471Y-85778845D01*
X119064472Y-85778847D01*
X119110071Y-85882478D01*
X119113605Y-85890510D01*
X119138737Y-85920408D01*
X119192100Y-85983892D01*
X119192103Y-85983894D01*
X119196639Y-85989291D01*
X119304060Y-86060796D01*
X119310788Y-86062898D01*
X119310790Y-86062899D01*
X119361351Y-86078695D01*
X119427233Y-86099278D01*
X119450570Y-86099706D01*
X119478379Y-86100216D01*
X119536214Y-86120187D01*
X119571264Y-86170338D01*
X119574501Y-86186554D01*
X119574501Y-86188400D01*
X119589760Y-86265117D01*
X119611749Y-86298026D01*
X119639708Y-86339869D01*
X119647888Y-86352112D01*
X119675080Y-86370281D01*
X119712959Y-86418329D01*
X119715361Y-86479468D01*
X119690082Y-86522600D01*
X119392090Y-86820592D01*
X119337573Y-86848369D01*
X119321482Y-86849586D01*
X119245283Y-86849121D01*
X119238231Y-86849078D01*
X119231454Y-86851015D01*
X119231453Y-86851015D01*
X119120935Y-86882601D01*
X119120933Y-86882602D01*
X119114155Y-86884539D01*
X119108191Y-86888302D01*
X119091494Y-86898837D01*
X119005019Y-86953399D01*
X119000351Y-86958684D01*
X119000348Y-86958687D01*
X118951722Y-87013746D01*
X118899030Y-87044846D01*
X118865624Y-87046495D01*
X118814919Y-87040359D01*
X118814630Y-87040341D01*
X118802995Y-87044122D01*
X118800000Y-87048243D01*
X118800000Y-87821000D01*
X118781093Y-87879191D01*
X118731593Y-87915155D01*
X118701000Y-87920000D01*
X117907864Y-87920000D01*
X117895179Y-87924122D01*
X117893959Y-87925800D01*
X117893481Y-87930720D01*
X117899893Y-87983705D01*
X117902998Y-87995932D01*
X117952637Y-88121305D01*
X117959201Y-88132955D01*
X118040490Y-88240050D01*
X118049955Y-88249515D01*
X118089580Y-88279592D01*
X118124500Y-88329834D01*
X118123218Y-88391006D01*
X118119453Y-88400278D01*
X118096028Y-88450513D01*
X118089500Y-88500099D01*
X118089501Y-88678934D01*
X118089501Y-88852970D01*
X118070594Y-88911161D01*
X118060505Y-88922974D01*
X117982943Y-89000536D01*
X117976576Y-89006370D01*
X117946806Y-89031350D01*
X117933825Y-89053834D01*
X117927373Y-89065010D01*
X117922732Y-89072294D01*
X117900446Y-89104121D01*
X117898204Y-89112489D01*
X117895738Y-89117776D01*
X117893742Y-89123261D01*
X117889412Y-89130760D01*
X117887909Y-89139286D01*
X117887908Y-89139288D01*
X117882666Y-89169021D01*
X117880796Y-89177456D01*
X117872367Y-89208911D01*
X117839042Y-89260225D01*
X117781920Y-89282150D01*
X117722820Y-89266313D01*
X117684316Y-89218763D01*
X117678741Y-89197320D01*
X117674642Y-89168700D01*
X117673642Y-89161715D01*
X117641362Y-89090719D01*
X117623152Y-89050668D01*
X117623151Y-89050667D01*
X117620231Y-89044244D01*
X117567198Y-88982696D01*
X117540601Y-88951828D01*
X117540600Y-88951827D01*
X117535996Y-88946484D01*
X117530079Y-88942649D01*
X117530077Y-88942647D01*
X117433627Y-88880133D01*
X117427709Y-88876297D01*
X117420953Y-88874277D01*
X117420952Y-88874276D01*
X117372882Y-88859900D01*
X117304076Y-88839322D01*
X117227447Y-88838854D01*
X117182085Y-88838577D01*
X117175034Y-88838534D01*
X117168257Y-88840471D01*
X117168256Y-88840471D01*
X117057738Y-88872057D01*
X117057736Y-88872058D01*
X117050958Y-88873995D01*
X116941822Y-88942855D01*
X116856399Y-89039578D01*
X116801557Y-89156388D01*
X116781704Y-89283896D01*
X116782619Y-89290893D01*
X116782619Y-89290894D01*
X116784600Y-89306041D01*
X116798436Y-89411850D01*
X116801274Y-89418301D01*
X116801275Y-89418303D01*
X116841047Y-89508691D01*
X116850408Y-89529966D01*
X116884266Y-89570245D01*
X116928903Y-89623348D01*
X116928906Y-89623350D01*
X116933442Y-89628747D01*
X117040863Y-89700252D01*
X117047591Y-89702354D01*
X117047593Y-89702355D01*
X117102449Y-89719493D01*
X117164036Y-89738734D01*
X117228547Y-89739917D01*
X117286005Y-89740970D01*
X117286007Y-89740970D01*
X117293058Y-89741099D01*
X117299861Y-89739244D01*
X117299863Y-89739244D01*
X117369794Y-89720178D01*
X117417558Y-89707156D01*
X117527527Y-89639635D01*
X117542269Y-89623348D01*
X117609393Y-89549191D01*
X117609393Y-89549190D01*
X117614125Y-89543963D01*
X117670391Y-89427831D01*
X117677872Y-89383364D01*
X117706171Y-89329117D01*
X117760952Y-89301864D01*
X117821289Y-89312015D01*
X117864137Y-89355693D01*
X117874500Y-89399789D01*
X117874500Y-91481466D01*
X117874123Y-91490095D01*
X117870736Y-91528807D01*
X117872978Y-91537174D01*
X117880796Y-91566349D01*
X117882666Y-91574783D01*
X117889412Y-91613045D01*
X117893742Y-91620544D01*
X117895738Y-91626029D01*
X117898204Y-91631316D01*
X117900446Y-91639684D01*
X117921013Y-91669056D01*
X117922732Y-91671511D01*
X117927371Y-91678792D01*
X117946806Y-91712455D01*
X117976571Y-91737431D01*
X117982939Y-91743265D01*
X118406731Y-92167057D01*
X118412565Y-92173424D01*
X118437545Y-92203194D01*
X118471205Y-92222627D01*
X118478489Y-92227268D01*
X118510316Y-92249554D01*
X118518681Y-92251796D01*
X118523961Y-92254258D01*
X118529452Y-92256257D01*
X118536955Y-92260588D01*
X118572931Y-92266932D01*
X118575228Y-92267337D01*
X118583656Y-92269206D01*
X118612827Y-92277022D01*
X118612830Y-92277022D01*
X118621193Y-92279263D01*
X118659896Y-92275877D01*
X118668525Y-92275500D01*
X119000501Y-92275500D01*
X119058692Y-92294407D01*
X119094656Y-92343907D01*
X119099501Y-92374500D01*
X119099501Y-92559898D01*
X119105331Y-92589213D01*
X119127543Y-92622457D01*
X119160787Y-92644669D01*
X119190101Y-92650500D01*
X119899780Y-92650500D01*
X120609898Y-92650499D01*
X120639213Y-92644669D01*
X120672457Y-92622457D01*
X120694669Y-92589213D01*
X120696982Y-92577585D01*
X121000001Y-92577585D01*
X121000611Y-92585329D01*
X121013616Y-92667449D01*
X121018373Y-92682091D01*
X121068823Y-92781106D01*
X121077865Y-92793551D01*
X121156449Y-92872135D01*
X121168894Y-92881177D01*
X121267912Y-92931629D01*
X121282547Y-92936384D01*
X121364673Y-92949391D01*
X121372412Y-92950000D01*
X121884320Y-92950000D01*
X121897005Y-92945878D01*
X121900000Y-92941757D01*
X121900000Y-92934319D01*
X122300000Y-92934319D01*
X122304122Y-92947004D01*
X122308243Y-92949999D01*
X122827585Y-92949999D01*
X122835329Y-92949389D01*
X122917449Y-92936384D01*
X122932091Y-92931627D01*
X123031106Y-92881177D01*
X123043551Y-92872135D01*
X123122135Y-92793551D01*
X123131177Y-92781106D01*
X123181629Y-92682088D01*
X123186384Y-92667453D01*
X123199391Y-92585327D01*
X123200000Y-92577588D01*
X123200000Y-92165680D01*
X123195878Y-92152995D01*
X123191757Y-92150000D01*
X122315680Y-92150000D01*
X122302995Y-92154122D01*
X122300000Y-92158243D01*
X122300000Y-92934319D01*
X121900000Y-92934319D01*
X121900000Y-92165680D01*
X121895878Y-92152995D01*
X121891757Y-92150000D01*
X121015681Y-92150000D01*
X121002996Y-92154122D01*
X121000001Y-92158243D01*
X121000001Y-92577585D01*
X120696982Y-92577585D01*
X120700500Y-92559899D01*
X120700499Y-91340102D01*
X120698434Y-91329720D01*
X120705629Y-91268961D01*
X120750588Y-91222204D01*
X120831101Y-91181180D01*
X120849859Y-91167552D01*
X120851108Y-91169271D01*
X120896058Y-91146368D01*
X120956490Y-91155939D01*
X120999755Y-91199204D01*
X121009326Y-91259636D01*
X121000609Y-91314673D01*
X121000000Y-91322412D01*
X121000000Y-91734320D01*
X121004122Y-91747005D01*
X121008243Y-91750000D01*
X123184319Y-91750000D01*
X123197004Y-91745878D01*
X123199999Y-91741757D01*
X123199999Y-91692586D01*
X123694068Y-91692586D01*
X123696636Y-91705676D01*
X123698156Y-91707088D01*
X123702984Y-91708154D01*
X124184320Y-91708154D01*
X124197005Y-91704032D01*
X124200000Y-91699911D01*
X124200000Y-91243834D01*
X124195878Y-91231149D01*
X124191757Y-91228154D01*
X124191034Y-91228154D01*
X124185080Y-91228513D01*
X124106295Y-91238047D01*
X124094067Y-91241153D01*
X123968695Y-91290791D01*
X123957045Y-91297355D01*
X123849950Y-91378644D01*
X123840490Y-91388104D01*
X123759201Y-91495199D01*
X123752637Y-91506849D01*
X123702998Y-91632222D01*
X123699893Y-91644449D01*
X123694068Y-91692586D01*
X123199999Y-91692586D01*
X123199999Y-91322415D01*
X123199389Y-91314671D01*
X123186384Y-91232551D01*
X123181627Y-91217909D01*
X123131177Y-91118894D01*
X123122135Y-91106449D01*
X123043551Y-91027865D01*
X123031106Y-91018823D01*
X122950589Y-90977798D01*
X122907324Y-90934533D01*
X122898437Y-90870271D01*
X122899552Y-90864665D01*
X122900500Y-90859899D01*
X122900499Y-89944440D01*
X123544901Y-89944440D01*
X123545816Y-89951437D01*
X123545816Y-89951438D01*
X123547082Y-89961120D01*
X123561633Y-90072394D01*
X123564471Y-90078845D01*
X123564472Y-90078847D01*
X123610764Y-90184054D01*
X123613605Y-90190510D01*
X123639024Y-90220749D01*
X123692100Y-90283892D01*
X123692103Y-90283894D01*
X123696639Y-90289291D01*
X123804060Y-90360796D01*
X123810788Y-90362898D01*
X123810790Y-90362899D01*
X123865647Y-90380037D01*
X123927233Y-90399278D01*
X123991744Y-90400460D01*
X124049202Y-90401514D01*
X124049204Y-90401514D01*
X124056255Y-90401643D01*
X124063058Y-90399788D01*
X124063060Y-90399788D01*
X124104828Y-90388400D01*
X124180755Y-90367700D01*
X124290724Y-90300179D01*
X124302306Y-90287384D01*
X124303026Y-90286588D01*
X124356094Y-90256134D01*
X124416928Y-90262689D01*
X124462290Y-90303749D01*
X124474854Y-90363630D01*
X124468472Y-90389468D01*
X124431749Y-90482221D01*
X124428643Y-90494449D01*
X124419109Y-90573234D01*
X124419091Y-90573524D01*
X124422872Y-90585159D01*
X124426993Y-90588154D01*
X124883070Y-90588154D01*
X124895755Y-90584032D01*
X124898750Y-90579911D01*
X124898750Y-90096018D01*
X124894628Y-90083333D01*
X124892950Y-90082113D01*
X124888030Y-90081635D01*
X124835045Y-90088047D01*
X124822818Y-90091152D01*
X124697445Y-90140791D01*
X124685795Y-90147355D01*
X124573322Y-90232726D01*
X124572141Y-90231171D01*
X124525845Y-90254759D01*
X124465413Y-90245188D01*
X124422148Y-90201923D01*
X124412577Y-90141491D01*
X124421264Y-90113813D01*
X124430511Y-90094727D01*
X124430512Y-90094724D01*
X124433588Y-90088375D01*
X124449294Y-89995021D01*
X124454363Y-89964891D01*
X124454363Y-89964886D01*
X124454997Y-89961120D01*
X124455133Y-89950000D01*
X124436839Y-89822259D01*
X124394349Y-89728807D01*
X124386349Y-89711212D01*
X124386348Y-89711211D01*
X124383428Y-89704788D01*
X124311751Y-89621602D01*
X124303798Y-89612372D01*
X124303797Y-89612371D01*
X124299193Y-89607028D01*
X124293276Y-89603193D01*
X124293274Y-89603191D01*
X124209960Y-89549191D01*
X124190906Y-89536841D01*
X124184150Y-89534821D01*
X124184149Y-89534820D01*
X124122507Y-89516385D01*
X124067273Y-89499866D01*
X123990644Y-89499398D01*
X123945282Y-89499121D01*
X123938231Y-89499078D01*
X123931454Y-89501015D01*
X123931453Y-89501015D01*
X123820935Y-89532601D01*
X123820933Y-89532602D01*
X123814155Y-89534539D01*
X123705019Y-89603399D01*
X123619596Y-89700122D01*
X123564754Y-89816932D01*
X123544901Y-89944440D01*
X122900499Y-89944440D01*
X122900499Y-89943651D01*
X122913760Y-89894155D01*
X122922626Y-89878797D01*
X122927269Y-89871509D01*
X122935387Y-89859916D01*
X122949553Y-89839684D01*
X122951795Y-89831318D01*
X122954262Y-89826027D01*
X122956255Y-89820550D01*
X122960588Y-89813045D01*
X122967337Y-89774769D01*
X122969206Y-89766337D01*
X122972877Y-89752637D01*
X122979263Y-89728807D01*
X122975877Y-89690103D01*
X122975500Y-89681475D01*
X122975500Y-89294843D01*
X122994407Y-89236652D01*
X123043907Y-89200688D01*
X123105093Y-89200688D01*
X123134355Y-89215987D01*
X123167040Y-89240797D01*
X123178695Y-89247363D01*
X123304068Y-89297002D01*
X123316295Y-89300107D01*
X123364432Y-89305932D01*
X123377522Y-89303364D01*
X123378934Y-89301844D01*
X123380000Y-89297016D01*
X123380000Y-89292136D01*
X123780000Y-89292136D01*
X123784122Y-89304821D01*
X123785800Y-89306041D01*
X123790720Y-89306519D01*
X123843705Y-89300107D01*
X123855932Y-89297002D01*
X123981305Y-89247363D01*
X123992955Y-89240799D01*
X124100050Y-89159510D01*
X124109510Y-89150050D01*
X124190799Y-89042955D01*
X124197363Y-89031305D01*
X124247001Y-88905933D01*
X124250107Y-88893705D01*
X124259641Y-88814920D01*
X124259659Y-88814630D01*
X124255878Y-88802995D01*
X124251757Y-88800000D01*
X123795680Y-88800000D01*
X123782995Y-88804122D01*
X123780000Y-88808243D01*
X123780000Y-89292136D01*
X123380000Y-89292136D01*
X123380000Y-88499000D01*
X123398907Y-88440809D01*
X123448407Y-88404845D01*
X123479000Y-88400000D01*
X124244320Y-88400000D01*
X124257005Y-88395878D01*
X124260000Y-88391757D01*
X124260000Y-88391034D01*
X124259641Y-88385080D01*
X124250107Y-88306295D01*
X124245437Y-88287907D01*
X124247046Y-88287498D01*
X124243707Y-88234374D01*
X124276495Y-88182715D01*
X124339595Y-88160000D01*
X124408966Y-88160000D01*
X124414920Y-88159641D01*
X124493705Y-88150107D01*
X124505933Y-88147001D01*
X124631305Y-88097363D01*
X124642955Y-88090799D01*
X124750050Y-88009510D01*
X124759510Y-88000050D01*
X124840799Y-87892955D01*
X124847363Y-87881305D01*
X124897002Y-87755932D01*
X124900107Y-87743705D01*
X124905932Y-87695568D01*
X124903364Y-87682478D01*
X124901844Y-87681066D01*
X124897016Y-87680000D01*
X124099000Y-87680000D01*
X124040809Y-87661093D01*
X124004845Y-87611593D01*
X124000000Y-87581000D01*
X124000000Y-87379000D01*
X124018907Y-87320809D01*
X124068407Y-87284845D01*
X124099000Y-87280000D01*
X124892136Y-87280000D01*
X124904821Y-87275878D01*
X124906041Y-87274200D01*
X124906519Y-87269280D01*
X124900107Y-87216295D01*
X124897002Y-87204068D01*
X124847363Y-87078695D01*
X124840799Y-87067045D01*
X124759510Y-86959950D01*
X124750045Y-86950485D01*
X124713142Y-86922474D01*
X125516250Y-86922474D01*
X125520372Y-86935159D01*
X125524493Y-86938154D01*
X126400570Y-86938154D01*
X126413255Y-86934032D01*
X126416250Y-86929911D01*
X126416250Y-86922474D01*
X126816250Y-86922474D01*
X126820372Y-86935159D01*
X126824493Y-86938154D01*
X127700569Y-86938154D01*
X127713254Y-86934032D01*
X127716249Y-86929911D01*
X127716249Y-86510569D01*
X127715639Y-86502825D01*
X127702634Y-86420705D01*
X127697877Y-86406063D01*
X127647427Y-86307048D01*
X127638385Y-86294603D01*
X127559801Y-86216019D01*
X127547356Y-86206977D01*
X127448338Y-86156525D01*
X127433703Y-86151770D01*
X127351577Y-86138763D01*
X127343838Y-86138154D01*
X126831930Y-86138154D01*
X126819245Y-86142276D01*
X126816250Y-86146397D01*
X126816250Y-86922474D01*
X126416250Y-86922474D01*
X126416250Y-86153835D01*
X126412128Y-86141150D01*
X126408007Y-86138155D01*
X125888665Y-86138155D01*
X125880921Y-86138765D01*
X125798801Y-86151770D01*
X125784159Y-86156527D01*
X125685144Y-86206977D01*
X125672699Y-86216019D01*
X125594115Y-86294603D01*
X125585073Y-86307048D01*
X125534621Y-86406066D01*
X125529866Y-86420701D01*
X125516859Y-86502827D01*
X125516250Y-86510566D01*
X125516250Y-86922474D01*
X124713142Y-86922474D01*
X124710420Y-86920408D01*
X124675500Y-86870166D01*
X124676782Y-86808994D01*
X124680547Y-86799722D01*
X124703972Y-86749487D01*
X124710500Y-86699901D01*
X124710499Y-86340100D01*
X124707110Y-86314348D01*
X124704961Y-86298025D01*
X124704961Y-86298024D01*
X124703972Y-86290513D01*
X124680980Y-86241208D01*
X124656885Y-86189534D01*
X124656884Y-86189532D01*
X124653224Y-86181684D01*
X124606372Y-86134832D01*
X124578595Y-86080315D01*
X124588166Y-86019883D01*
X124631431Y-85976618D01*
X124647301Y-85970486D01*
X124649454Y-85969554D01*
X124656255Y-85967700D01*
X124766224Y-85900179D01*
X124784489Y-85880000D01*
X124848090Y-85809735D01*
X124848090Y-85809734D01*
X124852822Y-85804507D01*
X124899086Y-85709019D01*
X124906012Y-85694724D01*
X124906012Y-85694723D01*
X124909088Y-85688375D01*
X124925056Y-85593460D01*
X124929863Y-85564891D01*
X124929863Y-85564886D01*
X124930497Y-85561120D01*
X124930633Y-85550000D01*
X124914983Y-85440720D01*
X126093481Y-85440720D01*
X126099893Y-85493705D01*
X126102998Y-85505932D01*
X126152637Y-85631305D01*
X126159201Y-85642955D01*
X126240490Y-85750050D01*
X126249950Y-85759510D01*
X126357045Y-85840799D01*
X126368695Y-85847363D01*
X126494067Y-85897001D01*
X126506295Y-85900107D01*
X126585080Y-85909641D01*
X126585370Y-85909659D01*
X126597005Y-85905878D01*
X126600000Y-85901757D01*
X126600000Y-85894320D01*
X127000000Y-85894320D01*
X127004122Y-85907005D01*
X127008243Y-85910000D01*
X127008966Y-85910000D01*
X127014920Y-85909641D01*
X127093705Y-85900107D01*
X127105933Y-85897001D01*
X127121797Y-85890720D01*
X130393481Y-85890720D01*
X130399893Y-85943705D01*
X130402998Y-85955932D01*
X130452637Y-86081305D01*
X130459201Y-86092955D01*
X130540490Y-86200050D01*
X130549950Y-86209510D01*
X130657045Y-86290799D01*
X130668695Y-86297363D01*
X130794067Y-86347001D01*
X130806295Y-86350107D01*
X130885080Y-86359641D01*
X130885370Y-86359659D01*
X130897005Y-86355878D01*
X130900000Y-86351757D01*
X130900000Y-86344320D01*
X131300000Y-86344320D01*
X131304122Y-86357005D01*
X131308243Y-86360000D01*
X131308966Y-86360000D01*
X131314920Y-86359641D01*
X131393705Y-86350107D01*
X131405933Y-86347001D01*
X131531305Y-86297363D01*
X131542955Y-86290799D01*
X131650050Y-86209510D01*
X131659510Y-86200050D01*
X131740799Y-86092955D01*
X131747363Y-86081305D01*
X131797002Y-85955932D01*
X131800107Y-85943705D01*
X131805932Y-85895568D01*
X131803364Y-85882478D01*
X131801844Y-85881066D01*
X131797016Y-85880000D01*
X131315680Y-85880000D01*
X131302995Y-85884122D01*
X131300000Y-85888243D01*
X131300000Y-86344320D01*
X130900000Y-86344320D01*
X130900000Y-85895680D01*
X130895878Y-85882995D01*
X130891757Y-85880000D01*
X130407864Y-85880000D01*
X130395179Y-85884122D01*
X130393959Y-85885800D01*
X130393481Y-85890720D01*
X127121797Y-85890720D01*
X127231305Y-85847363D01*
X127242955Y-85840799D01*
X127350050Y-85759510D01*
X127359510Y-85750050D01*
X127440799Y-85642955D01*
X127447363Y-85631305D01*
X127497002Y-85505932D01*
X127500107Y-85493705D01*
X127505932Y-85445568D01*
X127503364Y-85432478D01*
X127501844Y-85431066D01*
X127497016Y-85430000D01*
X127015680Y-85430000D01*
X127002995Y-85434122D01*
X127000000Y-85438243D01*
X127000000Y-85894320D01*
X126600000Y-85894320D01*
X126600000Y-85445680D01*
X126595878Y-85432995D01*
X126591757Y-85430000D01*
X126107864Y-85430000D01*
X126095179Y-85434122D01*
X126093959Y-85435800D01*
X126093481Y-85440720D01*
X124914983Y-85440720D01*
X124912339Y-85422259D01*
X124889549Y-85372135D01*
X124861849Y-85311212D01*
X124861848Y-85311211D01*
X124858928Y-85304788D01*
X124797111Y-85233045D01*
X124779298Y-85212372D01*
X124779297Y-85212371D01*
X124774693Y-85207028D01*
X124768776Y-85203193D01*
X124768774Y-85203191D01*
X124672324Y-85140677D01*
X124666406Y-85136841D01*
X124659651Y-85134821D01*
X124659647Y-85134819D01*
X124556650Y-85104016D01*
X124506316Y-85069228D01*
X124486043Y-85011499D01*
X124503575Y-84952879D01*
X124552214Y-84915759D01*
X124590099Y-84910569D01*
X124590099Y-84910500D01*
X124769833Y-84910500D01*
X124949900Y-84910499D01*
X124953110Y-84910076D01*
X124953117Y-84910076D01*
X124991975Y-84904961D01*
X124991976Y-84904961D01*
X124999487Y-84903972D01*
X125087399Y-84862978D01*
X125100466Y-84856885D01*
X125100468Y-84856884D01*
X125108316Y-84853224D01*
X125179996Y-84781544D01*
X125234513Y-84753767D01*
X125294945Y-84763338D01*
X125320004Y-84781544D01*
X125391684Y-84853224D01*
X125399532Y-84856884D01*
X125399534Y-84856885D01*
X125491783Y-84899901D01*
X125500513Y-84903972D01*
X125550099Y-84910500D01*
X125729972Y-84910500D01*
X125909900Y-84910499D01*
X125913110Y-84910076D01*
X125913117Y-84910076D01*
X125951977Y-84904961D01*
X125951980Y-84904960D01*
X125959487Y-84903972D01*
X125966351Y-84900771D01*
X125968990Y-84900002D01*
X126030147Y-84901871D01*
X126078525Y-84939331D01*
X126095646Y-84998072D01*
X126094975Y-85006942D01*
X126094068Y-85014434D01*
X126096636Y-85027522D01*
X126098156Y-85028934D01*
X126102984Y-85030000D01*
X127492136Y-85030000D01*
X127504821Y-85025878D01*
X127506041Y-85024200D01*
X127506519Y-85019281D01*
X127504352Y-85001378D01*
X127516131Y-84941338D01*
X127560952Y-84899687D01*
X127621694Y-84892336D01*
X127646111Y-84900541D01*
X127648832Y-84901871D01*
X127666706Y-84910608D01*
X127716229Y-84917833D01*
X127730969Y-84919983D01*
X127730971Y-84919983D01*
X127734514Y-84920500D01*
X128095486Y-84920500D01*
X128099069Y-84919972D01*
X128099076Y-84919972D01*
X128156271Y-84911552D01*
X128156273Y-84911551D01*
X128163884Y-84910431D01*
X128183564Y-84900769D01*
X128228694Y-84878611D01*
X128267880Y-84859372D01*
X128329898Y-84797245D01*
X128384391Y-84769420D01*
X128444831Y-84778939D01*
X128469905Y-84797123D01*
X128532621Y-84859730D01*
X128636706Y-84910608D01*
X128686229Y-84917833D01*
X128700969Y-84919983D01*
X128700971Y-84919983D01*
X128704514Y-84920500D01*
X129065486Y-84920500D01*
X129069069Y-84919972D01*
X129069076Y-84919972D01*
X129126271Y-84911552D01*
X129126273Y-84911551D01*
X129133884Y-84910431D01*
X129153564Y-84900769D01*
X129198694Y-84878611D01*
X129237880Y-84859372D01*
X129299899Y-84797245D01*
X129313950Y-84783170D01*
X129313952Y-84783167D01*
X129319730Y-84777379D01*
X129370608Y-84673294D01*
X129377833Y-84623771D01*
X129379983Y-84609031D01*
X129379983Y-84609029D01*
X129380500Y-84605486D01*
X129380500Y-84405834D01*
X129399407Y-84347643D01*
X129409496Y-84335830D01*
X129554045Y-84191281D01*
X129608562Y-84163504D01*
X129668994Y-84173075D01*
X129693991Y-84191220D01*
X129756830Y-84253950D01*
X129756833Y-84253952D01*
X129762621Y-84259730D01*
X129866706Y-84310608D01*
X129914388Y-84317564D01*
X129930969Y-84319983D01*
X129930971Y-84319983D01*
X129934514Y-84320500D01*
X130295486Y-84320500D01*
X130299069Y-84319972D01*
X130299076Y-84319972D01*
X130356271Y-84311552D01*
X130356273Y-84311551D01*
X130363884Y-84310431D01*
X130467880Y-84259372D01*
X130529898Y-84197245D01*
X130584391Y-84169420D01*
X130644831Y-84178939D01*
X130669903Y-84197121D01*
X130680565Y-84207765D01*
X130708390Y-84262255D01*
X130698873Y-84322695D01*
X130680627Y-84347833D01*
X130646776Y-84381684D01*
X130643116Y-84389532D01*
X130643115Y-84389534D01*
X130620329Y-84438400D01*
X130596028Y-84490513D01*
X130589500Y-84540099D01*
X130589501Y-84899900D01*
X130589924Y-84903110D01*
X130589924Y-84903117D01*
X130594569Y-84938401D01*
X130596028Y-84949487D01*
X130619449Y-84999714D01*
X130626906Y-85060442D01*
X130597243Y-85113956D01*
X130589580Y-85120408D01*
X130549955Y-85150485D01*
X130540490Y-85159950D01*
X130459201Y-85267045D01*
X130452637Y-85278695D01*
X130402998Y-85404068D01*
X130399893Y-85416295D01*
X130394068Y-85464432D01*
X130396636Y-85477522D01*
X130398156Y-85478934D01*
X130402984Y-85480000D01*
X131792136Y-85480000D01*
X131804821Y-85475878D01*
X131806041Y-85474200D01*
X131806519Y-85469280D01*
X131800107Y-85416295D01*
X131797002Y-85404068D01*
X131747363Y-85278695D01*
X131740799Y-85267045D01*
X131659510Y-85159950D01*
X131650045Y-85150485D01*
X131610420Y-85120408D01*
X131575500Y-85070166D01*
X131576782Y-85008994D01*
X131580547Y-84999722D01*
X131603972Y-84949487D01*
X131610500Y-84899901D01*
X131610499Y-84540100D01*
X131603972Y-84490513D01*
X131579671Y-84438400D01*
X131556885Y-84389534D01*
X131556884Y-84389532D01*
X131553224Y-84381684D01*
X131504341Y-84332801D01*
X131476564Y-84278284D01*
X131486135Y-84217852D01*
X131504280Y-84192856D01*
X131519730Y-84177379D01*
X131557053Y-84101023D01*
X131599594Y-84057048D01*
X131645996Y-84045500D01*
X131744166Y-84045500D01*
X131802357Y-84064407D01*
X131814170Y-84074496D01*
X132520504Y-84780830D01*
X132548281Y-84835347D01*
X132549500Y-84850834D01*
X132549500Y-84894108D01*
X132549455Y-84945563D01*
X132554280Y-84955610D01*
X132555191Y-84959623D01*
X132555240Y-84959770D01*
X132555500Y-84959662D01*
X132557764Y-84965128D01*
X132559794Y-84971500D01*
X132561133Y-84978231D01*
X132562737Y-84980631D01*
X132564688Y-84989185D01*
X132571636Y-84997904D01*
X132572091Y-84998475D01*
X132583909Y-85017314D01*
X132589052Y-85028024D01*
X132597755Y-85034984D01*
X132597814Y-85035058D01*
X132601022Y-85037929D01*
X132605448Y-85044552D01*
X132611953Y-85048898D01*
X132614679Y-85051950D01*
X132614747Y-85052004D01*
X132621695Y-85060724D01*
X132632392Y-85065883D01*
X132651214Y-85077736D01*
X132660492Y-85085156D01*
X132669218Y-85087163D01*
X132671769Y-85088867D01*
X132678837Y-85090273D01*
X132684514Y-85092087D01*
X132690336Y-85094498D01*
X132690233Y-85094748D01*
X132694046Y-85095621D01*
X132704087Y-85100465D01*
X132715235Y-85100475D01*
X132715236Y-85100475D01*
X132727155Y-85100485D01*
X132727153Y-85102230D01*
X132727219Y-85102224D01*
X132727219Y-85100500D01*
X132744108Y-85100500D01*
X132795274Y-85100545D01*
X132795563Y-85100545D01*
X132795651Y-85100503D01*
X132795675Y-85100500D01*
X133101000Y-85100500D01*
X133159191Y-85119407D01*
X133195155Y-85168907D01*
X133200000Y-85199500D01*
X133200000Y-96800500D01*
X133181093Y-96858691D01*
X133131593Y-96894655D01*
X133101000Y-96899500D01*
X132567346Y-96899500D01*
X132554659Y-96908717D01*
X132553654Y-96909044D01*
X132552800Y-96909665D01*
X132537888Y-96914510D01*
X132528672Y-96927194D01*
X132527816Y-96927816D01*
X132527194Y-96928672D01*
X132514510Y-96937888D01*
X132509665Y-96952800D01*
X132509044Y-96953654D01*
X132508717Y-96954659D01*
X132499500Y-96967346D01*
X132499500Y-99600500D01*
X132480593Y-99658691D01*
X132431093Y-99694655D01*
X132400500Y-99699500D01*
X129478047Y-99699500D01*
X129419856Y-99680593D01*
X129383892Y-99631093D01*
X129383892Y-99569907D01*
X129418192Y-99521643D01*
X129500050Y-99459510D01*
X129509510Y-99450050D01*
X129590799Y-99342955D01*
X129597363Y-99331305D01*
X129647001Y-99205933D01*
X129650107Y-99193705D01*
X129659641Y-99114920D01*
X129659659Y-99114630D01*
X129655878Y-99102995D01*
X129651757Y-99100000D01*
X128879000Y-99100000D01*
X128820809Y-99081093D01*
X128784845Y-99031593D01*
X128780000Y-99001000D01*
X128780000Y-98207866D01*
X128779499Y-98206324D01*
X128779498Y-98145139D01*
X128810269Y-98104488D01*
X128808359Y-98102578D01*
X128815252Y-98095685D01*
X128823362Y-98090266D01*
X128860838Y-98034179D01*
X128908887Y-97996300D01*
X128970025Y-97993898D01*
X128991796Y-98003911D01*
X128991824Y-98003852D01*
X128996009Y-98005848D01*
X128998009Y-98006768D01*
X128998190Y-98006889D01*
X128998192Y-98006890D01*
X129004060Y-98010796D01*
X129010788Y-98012898D01*
X129010790Y-98012899D01*
X129126260Y-98048974D01*
X129176164Y-98084374D01*
X129195731Y-98142347D01*
X129186538Y-98171772D01*
X129186875Y-98171846D01*
X129180000Y-98202984D01*
X129180000Y-98684320D01*
X129184122Y-98697005D01*
X129188243Y-98700000D01*
X129644320Y-98700000D01*
X129657005Y-98695878D01*
X129660000Y-98691757D01*
X129660000Y-98691034D01*
X129659641Y-98685080D01*
X129650107Y-98606295D01*
X129647001Y-98594067D01*
X129597363Y-98468695D01*
X129590799Y-98457045D01*
X129509510Y-98349950D01*
X129500050Y-98340490D01*
X129392955Y-98259201D01*
X129381307Y-98252638D01*
X129305977Y-98222812D01*
X129258833Y-98183810D01*
X129243617Y-98124547D01*
X129266142Y-98067659D01*
X129316381Y-98035251D01*
X129380755Y-98017700D01*
X129490724Y-97950179D01*
X129501409Y-97938375D01*
X129572589Y-97859736D01*
X129577322Y-97854507D01*
X129578955Y-97851137D01*
X129625974Y-97814401D01*
X129687122Y-97812266D01*
X129737847Y-97846481D01*
X129757998Y-97894594D01*
X129761633Y-97922394D01*
X129764471Y-97928845D01*
X129764472Y-97928847D01*
X129808473Y-98028847D01*
X129813605Y-98040510D01*
X129855122Y-98089901D01*
X129892100Y-98133892D01*
X129892103Y-98133894D01*
X129896639Y-98139291D01*
X130004060Y-98210796D01*
X130010788Y-98212898D01*
X130010790Y-98212899D01*
X130051124Y-98225500D01*
X130127233Y-98249278D01*
X130191744Y-98250461D01*
X130249202Y-98251514D01*
X130249204Y-98251514D01*
X130256255Y-98251643D01*
X130263058Y-98249788D01*
X130263060Y-98249788D01*
X130304828Y-98238400D01*
X130380755Y-98217700D01*
X130490724Y-98150179D01*
X130505466Y-98133892D01*
X130572590Y-98059735D01*
X130572590Y-98059734D01*
X130577322Y-98054507D01*
X130633588Y-97938375D01*
X130649048Y-97846481D01*
X130654363Y-97814891D01*
X130654363Y-97814886D01*
X130654997Y-97811120D01*
X130655048Y-97807005D01*
X130655086Y-97803825D01*
X130655133Y-97800000D01*
X130636839Y-97672259D01*
X130583428Y-97554788D01*
X130549501Y-97515413D01*
X130525840Y-97458989D01*
X130525500Y-97450791D01*
X130525500Y-97347938D01*
X130525877Y-97339309D01*
X130528509Y-97309226D01*
X130529264Y-97300597D01*
X130519204Y-97263054D01*
X130517334Y-97254620D01*
X130512092Y-97224887D01*
X130512091Y-97224885D01*
X130510588Y-97216359D01*
X130506258Y-97208860D01*
X130504262Y-97203375D01*
X130501796Y-97198088D01*
X130499554Y-97189720D01*
X130477268Y-97157893D01*
X130472627Y-97150609D01*
X130472173Y-97149823D01*
X130453194Y-97116949D01*
X130423429Y-97091973D01*
X130417061Y-97086139D01*
X130161061Y-96830139D01*
X130133284Y-96775622D01*
X130133967Y-96740821D01*
X130145802Y-96681319D01*
X130146289Y-96678874D01*
X130952231Y-96678874D01*
X130958643Y-96731859D01*
X130961748Y-96744086D01*
X131011387Y-96869459D01*
X131017951Y-96881109D01*
X131099240Y-96988204D01*
X131108700Y-96997664D01*
X131215795Y-97078953D01*
X131227445Y-97085517D01*
X131352817Y-97135155D01*
X131365045Y-97138261D01*
X131443830Y-97147795D01*
X131444120Y-97147813D01*
X131455755Y-97144032D01*
X131458750Y-97139911D01*
X131458750Y-97132474D01*
X131858750Y-97132474D01*
X131862872Y-97145159D01*
X131866993Y-97148154D01*
X131867716Y-97148154D01*
X131873670Y-97147795D01*
X131952455Y-97138261D01*
X131964683Y-97135155D01*
X132090055Y-97085517D01*
X132101705Y-97078953D01*
X132208800Y-96997664D01*
X132218260Y-96988204D01*
X132299549Y-96881109D01*
X132306113Y-96869459D01*
X132355752Y-96744086D01*
X132358857Y-96731859D01*
X132364682Y-96683722D01*
X132362114Y-96670632D01*
X132360594Y-96669220D01*
X132355766Y-96668154D01*
X131874430Y-96668154D01*
X131861745Y-96672276D01*
X131858750Y-96676397D01*
X131858750Y-97132474D01*
X131458750Y-97132474D01*
X131458750Y-96683834D01*
X131454628Y-96671149D01*
X131450507Y-96668154D01*
X130966614Y-96668154D01*
X130953929Y-96672276D01*
X130952709Y-96673954D01*
X130952231Y-96678874D01*
X130146289Y-96678874D01*
X130146750Y-96676555D01*
X130146750Y-96590909D01*
X130165657Y-96532718D01*
X130215157Y-96496754D01*
X130276343Y-96496754D01*
X130291671Y-96504173D01*
X130291824Y-96503852D01*
X130298190Y-96506889D01*
X130304060Y-96510796D01*
X130310788Y-96512898D01*
X130310790Y-96512899D01*
X130349351Y-96524946D01*
X130427233Y-96549278D01*
X130491744Y-96550460D01*
X130549202Y-96551514D01*
X130549204Y-96551514D01*
X130556255Y-96551643D01*
X130563058Y-96549788D01*
X130563060Y-96549788D01*
X130607063Y-96537791D01*
X130680755Y-96517700D01*
X130790724Y-96450179D01*
X130813062Y-96425500D01*
X130872590Y-96359735D01*
X130872590Y-96359734D01*
X130877322Y-96354507D01*
X130880395Y-96348165D01*
X130880398Y-96348160D01*
X130892108Y-96323989D01*
X130934495Y-96279865D01*
X130981202Y-96268154D01*
X132350886Y-96268154D01*
X132363571Y-96264032D01*
X132364791Y-96262354D01*
X132365269Y-96257434D01*
X132358857Y-96204449D01*
X132355752Y-96192222D01*
X132306113Y-96066849D01*
X132299549Y-96055199D01*
X132218260Y-95948104D01*
X132208795Y-95938639D01*
X132169170Y-95908562D01*
X132134250Y-95858320D01*
X132135532Y-95797148D01*
X132139297Y-95787876D01*
X132162722Y-95737641D01*
X132169250Y-95688055D01*
X132169249Y-95328254D01*
X132167507Y-95315013D01*
X132163711Y-95286179D01*
X132163711Y-95286178D01*
X132162722Y-95278667D01*
X132131577Y-95211877D01*
X132115635Y-95177688D01*
X132115634Y-95177686D01*
X132111974Y-95169838D01*
X132027066Y-95084930D01*
X132019218Y-95081270D01*
X132019216Y-95081269D01*
X131925106Y-95037385D01*
X131918237Y-95034182D01*
X131868651Y-95027654D01*
X131851805Y-95027654D01*
X131679585Y-95027655D01*
X131621395Y-95008748D01*
X131609581Y-94998659D01*
X131182019Y-94571097D01*
X131176184Y-94564729D01*
X131172607Y-94560466D01*
X131151205Y-94534960D01*
X131117542Y-94515525D01*
X131110261Y-94510886D01*
X131103323Y-94506028D01*
X131078434Y-94488600D01*
X131070066Y-94486358D01*
X131064783Y-94483894D01*
X131059297Y-94481897D01*
X131051795Y-94477566D01*
X131047489Y-94476807D01*
X131001175Y-94440621D01*
X130984250Y-94385262D01*
X130984250Y-94247653D01*
X131003157Y-94189462D01*
X131052657Y-94153498D01*
X131083250Y-94148653D01*
X131188650Y-94148653D01*
X131191860Y-94148230D01*
X131191867Y-94148230D01*
X131230725Y-94143115D01*
X131230726Y-94143115D01*
X131238237Y-94142126D01*
X131305424Y-94110796D01*
X131339216Y-94095039D01*
X131339218Y-94095038D01*
X131347066Y-94091378D01*
X131408746Y-94029698D01*
X131463263Y-94001921D01*
X131523695Y-94011492D01*
X131548754Y-94029698D01*
X131610434Y-94091378D01*
X131618282Y-94095038D01*
X131618284Y-94095039D01*
X131666881Y-94117700D01*
X131719263Y-94142126D01*
X131768849Y-94148654D01*
X131978717Y-94148654D01*
X132188650Y-94148653D01*
X132191860Y-94148230D01*
X132191867Y-94148230D01*
X132230725Y-94143115D01*
X132230726Y-94143115D01*
X132238237Y-94142126D01*
X132305424Y-94110796D01*
X132339216Y-94095039D01*
X132339218Y-94095038D01*
X132347066Y-94091378D01*
X132431974Y-94006470D01*
X132435897Y-93998059D01*
X132479519Y-93904510D01*
X132482722Y-93897641D01*
X132489250Y-93848055D01*
X132489249Y-93488254D01*
X132488514Y-93482666D01*
X132483711Y-93446179D01*
X132483711Y-93446178D01*
X132482722Y-93438667D01*
X132459301Y-93388440D01*
X132451844Y-93327712D01*
X132481507Y-93274198D01*
X132489170Y-93267746D01*
X132528795Y-93237669D01*
X132538260Y-93228204D01*
X132619549Y-93121109D01*
X132626113Y-93109459D01*
X132675752Y-92984086D01*
X132678857Y-92971859D01*
X132684682Y-92923722D01*
X132682114Y-92910632D01*
X132680594Y-92909220D01*
X132675766Y-92908154D01*
X130286614Y-92908154D01*
X130273929Y-92912276D01*
X130272709Y-92913954D01*
X130272231Y-92918874D01*
X130278643Y-92971859D01*
X130281748Y-92984086D01*
X130331387Y-93109459D01*
X130337951Y-93121109D01*
X130419240Y-93228204D01*
X130428705Y-93237669D01*
X130468330Y-93267746D01*
X130503250Y-93317988D01*
X130501968Y-93379160D01*
X130498203Y-93388432D01*
X130474778Y-93438667D01*
X130468250Y-93488253D01*
X130468250Y-93491493D01*
X130468251Y-93676926D01*
X130449344Y-93735117D01*
X130432886Y-93752766D01*
X130412192Y-93770130D01*
X130412190Y-93770133D01*
X130405556Y-93775699D01*
X130386123Y-93809359D01*
X130381482Y-93816643D01*
X130359196Y-93848470D01*
X130356954Y-93856838D01*
X130354488Y-93862125D01*
X130352492Y-93867610D01*
X130348162Y-93875109D01*
X130346659Y-93883635D01*
X130346658Y-93883637D01*
X130341416Y-93913370D01*
X130339546Y-93921805D01*
X130331914Y-93950288D01*
X130329486Y-93959347D01*
X130330241Y-93967976D01*
X130332873Y-93998059D01*
X130333250Y-94006688D01*
X130333250Y-94162535D01*
X130314343Y-94220726D01*
X130264843Y-94256690D01*
X130225620Y-94261158D01*
X130225330Y-94261133D01*
X130216961Y-94258890D01*
X130208331Y-94259645D01*
X130178249Y-94262277D01*
X130169620Y-94262654D01*
X129401356Y-94262654D01*
X129401355Y-94262655D01*
X129395115Y-94262655D01*
X129336924Y-94243748D01*
X129300960Y-94194248D01*
X129300960Y-94133062D01*
X129336924Y-94083562D01*
X129343314Y-94079289D01*
X129384711Y-94053871D01*
X129390724Y-94050179D01*
X129395459Y-94044948D01*
X129472590Y-93959735D01*
X129472590Y-93959734D01*
X129477322Y-93954507D01*
X129533588Y-93838375D01*
X129548540Y-93749500D01*
X129554363Y-93714891D01*
X129554363Y-93714886D01*
X129554997Y-93711120D01*
X129555133Y-93700000D01*
X129536839Y-93572259D01*
X129497183Y-93485040D01*
X129486349Y-93461212D01*
X129486348Y-93461211D01*
X129483428Y-93454788D01*
X129426261Y-93388442D01*
X129403798Y-93362372D01*
X129403797Y-93362371D01*
X129399193Y-93357028D01*
X129393276Y-93353193D01*
X129393274Y-93353191D01*
X129296824Y-93290677D01*
X129290906Y-93286841D01*
X129284150Y-93284821D01*
X129284149Y-93284820D01*
X129227058Y-93267746D01*
X129167273Y-93249866D01*
X129155071Y-93249791D01*
X129140950Y-93249705D01*
X129082876Y-93230442D01*
X129047216Y-93180723D01*
X129047590Y-93119539D01*
X129083856Y-93070260D01*
X129092044Y-93064978D01*
X129112455Y-93053194D01*
X129137436Y-93023423D01*
X129143270Y-93017056D01*
X129279790Y-92880537D01*
X129334306Y-92852760D01*
X129345366Y-92851991D01*
X129349199Y-92851514D01*
X129356255Y-92851643D01*
X129363058Y-92849788D01*
X129363060Y-92849788D01*
X129407921Y-92837557D01*
X129480755Y-92817700D01*
X129590724Y-92750179D01*
X129599494Y-92740490D01*
X129672590Y-92659735D01*
X129672590Y-92659734D01*
X129677322Y-92654507D01*
X129714591Y-92577585D01*
X129730512Y-92544724D01*
X129730512Y-92544723D01*
X129733588Y-92538375D01*
X129741291Y-92492586D01*
X130272818Y-92492586D01*
X130275386Y-92505676D01*
X130276906Y-92507088D01*
X130281734Y-92508154D01*
X130763070Y-92508154D01*
X130775755Y-92504032D01*
X130778750Y-92499911D01*
X130778750Y-92492474D01*
X131178750Y-92492474D01*
X131182872Y-92505159D01*
X131186993Y-92508154D01*
X131763070Y-92508154D01*
X131775755Y-92504032D01*
X131778750Y-92499911D01*
X131778750Y-92492474D01*
X132178750Y-92492474D01*
X132182872Y-92505159D01*
X132186993Y-92508154D01*
X132670886Y-92508154D01*
X132683571Y-92504032D01*
X132684791Y-92502354D01*
X132685269Y-92497434D01*
X132678857Y-92444449D01*
X132675752Y-92432222D01*
X132626113Y-92306849D01*
X132619549Y-92295199D01*
X132538260Y-92188104D01*
X132528800Y-92178644D01*
X132421705Y-92097355D01*
X132410055Y-92090791D01*
X132284683Y-92041153D01*
X132272455Y-92038047D01*
X132193670Y-92028513D01*
X132193380Y-92028495D01*
X132181745Y-92032276D01*
X132178750Y-92036397D01*
X132178750Y-92492474D01*
X131778750Y-92492474D01*
X131778750Y-92043834D01*
X131774628Y-92031149D01*
X131770507Y-92028154D01*
X131769784Y-92028154D01*
X131763830Y-92028513D01*
X131685045Y-92038047D01*
X131672817Y-92041153D01*
X131547445Y-92090791D01*
X131529913Y-92100669D01*
X131528773Y-92098645D01*
X131480825Y-92115343D01*
X131428836Y-92098451D01*
X131427587Y-92100669D01*
X131410055Y-92090791D01*
X131284683Y-92041153D01*
X131272455Y-92038047D01*
X131193670Y-92028513D01*
X131193380Y-92028495D01*
X131181745Y-92032276D01*
X131178750Y-92036397D01*
X131178750Y-92492474D01*
X130778750Y-92492474D01*
X130778750Y-92043834D01*
X130774628Y-92031149D01*
X130770507Y-92028154D01*
X130769784Y-92028154D01*
X130763830Y-92028513D01*
X130685045Y-92038047D01*
X130672817Y-92041153D01*
X130547445Y-92090791D01*
X130535795Y-92097355D01*
X130428700Y-92178644D01*
X130419240Y-92188104D01*
X130337951Y-92295199D01*
X130331387Y-92306849D01*
X130281748Y-92432222D01*
X130278643Y-92444449D01*
X130272818Y-92492586D01*
X129741291Y-92492586D01*
X129745470Y-92467746D01*
X129754363Y-92414891D01*
X129754363Y-92414886D01*
X129754997Y-92411120D01*
X129755133Y-92400000D01*
X129736839Y-92272259D01*
X129691190Y-92171859D01*
X129686349Y-92161212D01*
X129686348Y-92161211D01*
X129683428Y-92154788D01*
X129610142Y-92069735D01*
X129603798Y-92062372D01*
X129603797Y-92062371D01*
X129599193Y-92057028D01*
X129593276Y-92053193D01*
X129593274Y-92053191D01*
X129496824Y-91990677D01*
X129490906Y-91986841D01*
X129484150Y-91984821D01*
X129484149Y-91984820D01*
X129441335Y-91972016D01*
X129367273Y-91949866D01*
X129357095Y-91949804D01*
X129348972Y-91949754D01*
X129290898Y-91930491D01*
X129255238Y-91880772D01*
X129255612Y-91819588D01*
X129279574Y-91780752D01*
X129583009Y-91477318D01*
X130120832Y-90939495D01*
X130175349Y-90911718D01*
X130190836Y-90910499D01*
X130299900Y-90910499D01*
X130303110Y-90910076D01*
X130303117Y-90910076D01*
X130341975Y-90904961D01*
X130341976Y-90904961D01*
X130349487Y-90903972D01*
X130399714Y-90880551D01*
X130460442Y-90873094D01*
X130513956Y-90902757D01*
X130520408Y-90910420D01*
X130550485Y-90950045D01*
X130559950Y-90959510D01*
X130667045Y-91040799D01*
X130678695Y-91047363D01*
X130804068Y-91097002D01*
X130816295Y-91100107D01*
X130864432Y-91105932D01*
X130877522Y-91103364D01*
X130878934Y-91101844D01*
X130880000Y-91097016D01*
X130880000Y-91092136D01*
X131280000Y-91092136D01*
X131284122Y-91104821D01*
X131285800Y-91106041D01*
X131290720Y-91106519D01*
X131343705Y-91100107D01*
X131355932Y-91097002D01*
X131481305Y-91047363D01*
X131492955Y-91040799D01*
X131600050Y-90959510D01*
X131609510Y-90950050D01*
X131690799Y-90842955D01*
X131697363Y-90831305D01*
X131747001Y-90705933D01*
X131750107Y-90693705D01*
X131759641Y-90614920D01*
X131759659Y-90614630D01*
X131755878Y-90602995D01*
X131751757Y-90600000D01*
X131295680Y-90600000D01*
X131282995Y-90604122D01*
X131280000Y-90608243D01*
X131280000Y-91092136D01*
X130880000Y-91092136D01*
X130880000Y-90184320D01*
X131280000Y-90184320D01*
X131284122Y-90197005D01*
X131288243Y-90200000D01*
X131744320Y-90200000D01*
X131757005Y-90195878D01*
X131760000Y-90191757D01*
X131760000Y-90191034D01*
X131759641Y-90185080D01*
X131750107Y-90106295D01*
X131747001Y-90094067D01*
X131697363Y-89968695D01*
X131690799Y-89957045D01*
X131609510Y-89849950D01*
X131600050Y-89840490D01*
X131492955Y-89759201D01*
X131481305Y-89752637D01*
X131355932Y-89702998D01*
X131343705Y-89699893D01*
X131295568Y-89694068D01*
X131282478Y-89696636D01*
X131281066Y-89698156D01*
X131280000Y-89702984D01*
X131280000Y-90184320D01*
X130880000Y-90184320D01*
X130880000Y-89707864D01*
X130875878Y-89695179D01*
X130857559Y-89681869D01*
X130821595Y-89632369D01*
X130816750Y-89601776D01*
X130816750Y-88031688D01*
X130817127Y-88023059D01*
X130819759Y-87992976D01*
X130820514Y-87984347D01*
X130810454Y-87946804D01*
X130808584Y-87938370D01*
X130803342Y-87908637D01*
X130803341Y-87908635D01*
X130801838Y-87900109D01*
X130797508Y-87892610D01*
X130795512Y-87887125D01*
X130793046Y-87881838D01*
X130790804Y-87873470D01*
X130768518Y-87841643D01*
X130763877Y-87834359D01*
X130760505Y-87828518D01*
X130744444Y-87800699D01*
X130714679Y-87775723D01*
X130708311Y-87769889D01*
X129745746Y-86807324D01*
X129717969Y-86752807D01*
X129716750Y-86737320D01*
X129716750Y-86518406D01*
X129705117Y-86459923D01*
X129660802Y-86393602D01*
X129594481Y-86349287D01*
X129584918Y-86347385D01*
X129584916Y-86347384D01*
X129562245Y-86342875D01*
X129535998Y-86337654D01*
X128096502Y-86337654D01*
X128070255Y-86342875D01*
X128047584Y-86347384D01*
X128047582Y-86347385D01*
X128038019Y-86349287D01*
X127971698Y-86393602D01*
X127927383Y-86459923D01*
X127915750Y-86518406D01*
X127915750Y-87757902D01*
X127925431Y-87806570D01*
X127918240Y-87867329D01*
X127886522Y-87905977D01*
X127866390Y-87920603D01*
X127865141Y-87918884D01*
X127820192Y-87941786D01*
X127759760Y-87932215D01*
X127716495Y-87888950D01*
X127706924Y-87828518D01*
X127715641Y-87773481D01*
X127716250Y-87765742D01*
X127716250Y-87353834D01*
X127712128Y-87341149D01*
X127708007Y-87338154D01*
X125531931Y-87338154D01*
X125519246Y-87342276D01*
X125516251Y-87346397D01*
X125516251Y-87765739D01*
X125516861Y-87773483D01*
X125529866Y-87855603D01*
X125534623Y-87870245D01*
X125585073Y-87969260D01*
X125594115Y-87981705D01*
X125672697Y-88060287D01*
X125686522Y-88070331D01*
X125722487Y-88119830D01*
X125725431Y-88169737D01*
X125715750Y-88218406D01*
X125715750Y-89457902D01*
X125718849Y-89473481D01*
X125724326Y-89501015D01*
X125727383Y-89516385D01*
X125771698Y-89582706D01*
X125838019Y-89627021D01*
X125847582Y-89628923D01*
X125847584Y-89628924D01*
X125864905Y-89632369D01*
X125896502Y-89638654D01*
X126191750Y-89638654D01*
X126249941Y-89657561D01*
X126285905Y-89707061D01*
X126290750Y-89737654D01*
X126290750Y-90054820D01*
X126271843Y-90113011D01*
X126261754Y-90124824D01*
X126137920Y-90248658D01*
X126083403Y-90276435D01*
X126067917Y-90277654D01*
X125895707Y-90277655D01*
X125878850Y-90277655D01*
X125875640Y-90278078D01*
X125875633Y-90278078D01*
X125836775Y-90283193D01*
X125836774Y-90283193D01*
X125829263Y-90284182D01*
X125779036Y-90307603D01*
X125718308Y-90315060D01*
X125664794Y-90285397D01*
X125658342Y-90277734D01*
X125628265Y-90238109D01*
X125618800Y-90228644D01*
X125511705Y-90147355D01*
X125500055Y-90140791D01*
X125374682Y-90091152D01*
X125362455Y-90088047D01*
X125314318Y-90082222D01*
X125301228Y-90084790D01*
X125299816Y-90086310D01*
X125298750Y-90091138D01*
X125298750Y-90889154D01*
X125279843Y-90947345D01*
X125230343Y-90983309D01*
X125199750Y-90988154D01*
X124434430Y-90988154D01*
X124421745Y-90992276D01*
X124418750Y-90996397D01*
X124418750Y-90997120D01*
X124419109Y-91003074D01*
X124428643Y-91081859D01*
X124431749Y-91094087D01*
X124463220Y-91173574D01*
X124472812Y-91185170D01*
X124483083Y-91188154D01*
X124501000Y-91188154D01*
X124559191Y-91207061D01*
X124595155Y-91256561D01*
X124600000Y-91287154D01*
X124600000Y-91692474D01*
X124604122Y-91705159D01*
X124608243Y-91708154D01*
X125092136Y-91708154D01*
X125104821Y-91704032D01*
X125106041Y-91702354D01*
X125106519Y-91697434D01*
X125100107Y-91644449D01*
X125095437Y-91626060D01*
X125097046Y-91625651D01*
X125093707Y-91572528D01*
X125126495Y-91520869D01*
X125189595Y-91498154D01*
X125277716Y-91498154D01*
X125283670Y-91497795D01*
X125362455Y-91488261D01*
X125374683Y-91485155D01*
X125500055Y-91435517D01*
X125511705Y-91428953D01*
X125574395Y-91381369D01*
X125632177Y-91361248D01*
X125690751Y-91378932D01*
X125727743Y-91427668D01*
X125733250Y-91460226D01*
X125733250Y-92698912D01*
X125714343Y-92757103D01*
X125664843Y-92793067D01*
X125603657Y-92793067D01*
X125595701Y-92789949D01*
X125590906Y-92786841D01*
X125584153Y-92784821D01*
X125584150Y-92784820D01*
X125480664Y-92753871D01*
X125467273Y-92749866D01*
X125457908Y-92749809D01*
X125450491Y-92749763D01*
X125392418Y-92730499D01*
X125381095Y-92720769D01*
X125311423Y-92651097D01*
X125305588Y-92644729D01*
X125300501Y-92638667D01*
X125280609Y-92614960D01*
X125246946Y-92595525D01*
X125239665Y-92590886D01*
X125237210Y-92589167D01*
X125207838Y-92568600D01*
X125199470Y-92566358D01*
X125194183Y-92563892D01*
X125188698Y-92561896D01*
X125181199Y-92557566D01*
X125172673Y-92556063D01*
X125172671Y-92556062D01*
X125142938Y-92550820D01*
X125134503Y-92548950D01*
X125105328Y-92541132D01*
X125096961Y-92538890D01*
X125082298Y-92540173D01*
X125022681Y-92526410D01*
X124982539Y-92480233D01*
X124977206Y-92419281D01*
X124994812Y-92381695D01*
X125040799Y-92321109D01*
X125047363Y-92309459D01*
X125097002Y-92184086D01*
X125100107Y-92171859D01*
X125105932Y-92123722D01*
X125103364Y-92110632D01*
X125101844Y-92109220D01*
X125097016Y-92108154D01*
X123707864Y-92108154D01*
X123695179Y-92112276D01*
X123693959Y-92113954D01*
X123693481Y-92118874D01*
X123699893Y-92171859D01*
X123702998Y-92184086D01*
X123752637Y-92309459D01*
X123759201Y-92321109D01*
X123840490Y-92428204D01*
X123849955Y-92437669D01*
X123889580Y-92467746D01*
X123924500Y-92517988D01*
X123923218Y-92579160D01*
X123919453Y-92588432D01*
X123896028Y-92638667D01*
X123889500Y-92688253D01*
X123889501Y-93048054D01*
X123889924Y-93051264D01*
X123889924Y-93051271D01*
X123895039Y-93090129D01*
X123896028Y-93097641D01*
X123909019Y-93125500D01*
X123940933Y-93193939D01*
X123946776Y-93206470D01*
X124031684Y-93291378D01*
X124039532Y-93295038D01*
X124039534Y-93295039D01*
X124133644Y-93338923D01*
X124140513Y-93342126D01*
X124190099Y-93348654D01*
X124399967Y-93348654D01*
X124609900Y-93348653D01*
X124613110Y-93348230D01*
X124613117Y-93348230D01*
X124651975Y-93343115D01*
X124651976Y-93343115D01*
X124659487Y-93342126D01*
X124731178Y-93308696D01*
X124760466Y-93295039D01*
X124760468Y-93295038D01*
X124768316Y-93291378D01*
X124793684Y-93266010D01*
X124848201Y-93238233D01*
X124908633Y-93247804D01*
X124951898Y-93291069D01*
X124959042Y-93309393D01*
X124960718Y-93315397D01*
X124961633Y-93322394D01*
X124964473Y-93328848D01*
X124964474Y-93328852D01*
X125001405Y-93412784D01*
X125013605Y-93440510D01*
X125049041Y-93482666D01*
X125092100Y-93533892D01*
X125092103Y-93533894D01*
X125096639Y-93539291D01*
X125204060Y-93610796D01*
X125210787Y-93612898D01*
X125210792Y-93612900D01*
X125288772Y-93637262D01*
X125338677Y-93672662D01*
X125358250Y-93731758D01*
X125358250Y-94163655D01*
X125339343Y-94221846D01*
X125289843Y-94257810D01*
X125259250Y-94262655D01*
X125232850Y-94262655D01*
X125228084Y-94263603D01*
X125165694Y-94276012D01*
X125165693Y-94276013D01*
X125156133Y-94277914D01*
X125148029Y-94283329D01*
X125148024Y-94283331D01*
X125128625Y-94296293D01*
X125069737Y-94312901D01*
X125012334Y-94291722D01*
X124992094Y-94265906D01*
X124990147Y-94267151D01*
X124986349Y-94261213D01*
X124983428Y-94254788D01*
X124899193Y-94157028D01*
X124893276Y-94153193D01*
X124893274Y-94153191D01*
X124796824Y-94090677D01*
X124790906Y-94086841D01*
X124784150Y-94084821D01*
X124784149Y-94084820D01*
X124680664Y-94053871D01*
X124667273Y-94049866D01*
X124590644Y-94049398D01*
X124545282Y-94049121D01*
X124538231Y-94049078D01*
X124531454Y-94051015D01*
X124531453Y-94051015D01*
X124420935Y-94082601D01*
X124420933Y-94082602D01*
X124414155Y-94084539D01*
X124305019Y-94153399D01*
X124219596Y-94250122D01*
X124216601Y-94256502D01*
X124216596Y-94256509D01*
X124188112Y-94317178D01*
X124146267Y-94361817D01*
X124086175Y-94373334D01*
X124028494Y-94345108D01*
X124018316Y-94334930D01*
X124010468Y-94331270D01*
X124010466Y-94331269D01*
X123916356Y-94287385D01*
X123909487Y-94284182D01*
X123859901Y-94277654D01*
X123680028Y-94277654D01*
X123500100Y-94277655D01*
X123496890Y-94278078D01*
X123496883Y-94278078D01*
X123458025Y-94283193D01*
X123458024Y-94283193D01*
X123450513Y-94284182D01*
X123424541Y-94296293D01*
X123349534Y-94331269D01*
X123349532Y-94331270D01*
X123341684Y-94334930D01*
X123270004Y-94406610D01*
X123215487Y-94434387D01*
X123155055Y-94424816D01*
X123129996Y-94406610D01*
X123058316Y-94334930D01*
X123050468Y-94331270D01*
X123050466Y-94331269D01*
X122956356Y-94287385D01*
X122949487Y-94284182D01*
X122899901Y-94277654D01*
X122720028Y-94277654D01*
X122540100Y-94277655D01*
X122536890Y-94278078D01*
X122536883Y-94278078D01*
X122498025Y-94283193D01*
X122498024Y-94283193D01*
X122490513Y-94284182D01*
X122444777Y-94305509D01*
X122384050Y-94312966D01*
X122330535Y-94283303D01*
X122305791Y-94234847D01*
X122303364Y-94222478D01*
X122301844Y-94221066D01*
X122297016Y-94220000D01*
X120907864Y-94220000D01*
X120895179Y-94224122D01*
X120883869Y-94239688D01*
X120834369Y-94275652D01*
X120783517Y-94276016D01*
X120783294Y-94277546D01*
X120719031Y-94268171D01*
X120719029Y-94268171D01*
X120715486Y-94267654D01*
X120354514Y-94267654D01*
X120350931Y-94268182D01*
X120350924Y-94268182D01*
X120293729Y-94276602D01*
X120293727Y-94276603D01*
X120286116Y-94277723D01*
X120279210Y-94281114D01*
X120279209Y-94281114D01*
X120248293Y-94296293D01*
X120182120Y-94328782D01*
X120176339Y-94334573D01*
X120120101Y-94390909D01*
X120065609Y-94418734D01*
X120005169Y-94409215D01*
X119980094Y-94391030D01*
X119962428Y-94373394D01*
X119917379Y-94328424D01*
X119813294Y-94277546D01*
X119763771Y-94270321D01*
X119749031Y-94268171D01*
X119749029Y-94268171D01*
X119745486Y-94267654D01*
X119384514Y-94267654D01*
X119380931Y-94268182D01*
X119380924Y-94268182D01*
X119323729Y-94276602D01*
X119323727Y-94276603D01*
X119316116Y-94277723D01*
X119309210Y-94281114D01*
X119309209Y-94281114D01*
X119278293Y-94296293D01*
X119212120Y-94328782D01*
X119206339Y-94334573D01*
X119136050Y-94404984D01*
X119136048Y-94404987D01*
X119130270Y-94410775D01*
X119079392Y-94514860D01*
X119076460Y-94534960D01*
X119070698Y-94574459D01*
X119069500Y-94582668D01*
X119069500Y-94733274D01*
X119050593Y-94791465D01*
X119001093Y-94827429D01*
X118939907Y-94827429D01*
X118900560Y-94803341D01*
X118837379Y-94740270D01*
X118733294Y-94689392D01*
X118683771Y-94682167D01*
X118669031Y-94680017D01*
X118669029Y-94680017D01*
X118665486Y-94679500D01*
X118304514Y-94679500D01*
X118300931Y-94680028D01*
X118300924Y-94680028D01*
X118243729Y-94688448D01*
X118243727Y-94688449D01*
X118236116Y-94689569D01*
X118132120Y-94740628D01*
X118126339Y-94746419D01*
X118070101Y-94802755D01*
X118015609Y-94830580D01*
X117955169Y-94821061D01*
X117930096Y-94802878D01*
X117929973Y-94802755D01*
X117919435Y-94792235D01*
X117891610Y-94737745D01*
X117901127Y-94677305D01*
X117919373Y-94652167D01*
X118003224Y-94568316D01*
X118008606Y-94556776D01*
X118050769Y-94466356D01*
X118053972Y-94459487D01*
X118060500Y-94409901D01*
X118060499Y-94050100D01*
X118053972Y-94000513D01*
X118030551Y-93950286D01*
X118023094Y-93889558D01*
X118052757Y-93836044D01*
X118060420Y-93829592D01*
X118093567Y-93804432D01*
X120894068Y-93804432D01*
X120896636Y-93817522D01*
X120898156Y-93818934D01*
X120902984Y-93820000D01*
X121384320Y-93820000D01*
X121397005Y-93815878D01*
X121400000Y-93811757D01*
X121400000Y-93804320D01*
X121800000Y-93804320D01*
X121804122Y-93817005D01*
X121808243Y-93820000D01*
X122292136Y-93820000D01*
X122304821Y-93815878D01*
X122306041Y-93814200D01*
X122306519Y-93809280D01*
X122300107Y-93756295D01*
X122297002Y-93744068D01*
X122247363Y-93618695D01*
X122240799Y-93607045D01*
X122159510Y-93499950D01*
X122150050Y-93490490D01*
X122042955Y-93409201D01*
X122031305Y-93402637D01*
X121905933Y-93352999D01*
X121893705Y-93349893D01*
X121814920Y-93340359D01*
X121814630Y-93340341D01*
X121802995Y-93344122D01*
X121800000Y-93348243D01*
X121800000Y-93804320D01*
X121400000Y-93804320D01*
X121400000Y-93355680D01*
X121395878Y-93342995D01*
X121391757Y-93340000D01*
X121391034Y-93340000D01*
X121385080Y-93340359D01*
X121306295Y-93349893D01*
X121294067Y-93352999D01*
X121168695Y-93402637D01*
X121157045Y-93409201D01*
X121049950Y-93490490D01*
X121040490Y-93499950D01*
X120959201Y-93607045D01*
X120952637Y-93618695D01*
X120902998Y-93744068D01*
X120899893Y-93756295D01*
X120894068Y-93804432D01*
X118093567Y-93804432D01*
X118100045Y-93799515D01*
X118109510Y-93790050D01*
X118190799Y-93682955D01*
X118197363Y-93671305D01*
X118247002Y-93545932D01*
X118250107Y-93533705D01*
X118255932Y-93485568D01*
X118253364Y-93472478D01*
X118251844Y-93471066D01*
X118247016Y-93470000D01*
X116857864Y-93470000D01*
X116845179Y-93474122D01*
X116843959Y-93475800D01*
X116843481Y-93480720D01*
X116849893Y-93533705D01*
X116852998Y-93545932D01*
X116902637Y-93671305D01*
X116909201Y-93682955D01*
X116990490Y-93790050D01*
X116999955Y-93799515D01*
X117039580Y-93829592D01*
X117074500Y-93879834D01*
X117073218Y-93941006D01*
X117069453Y-93950278D01*
X117046028Y-94000513D01*
X117039500Y-94050099D01*
X117039500Y-94126993D01*
X117020593Y-94185184D01*
X116971093Y-94221148D01*
X116909907Y-94221148D01*
X116870496Y-94196997D01*
X116256442Y-93582943D01*
X116250607Y-93576575D01*
X116225628Y-93546806D01*
X116191965Y-93527371D01*
X116184684Y-93522732D01*
X116182229Y-93521013D01*
X116152857Y-93500446D01*
X116144489Y-93498204D01*
X116139202Y-93495738D01*
X116133717Y-93493742D01*
X116126218Y-93489412D01*
X116117692Y-93487909D01*
X116117690Y-93487908D01*
X116087957Y-93482666D01*
X116079515Y-93480794D01*
X116077161Y-93480163D01*
X116025849Y-93446834D01*
X116019224Y-93436363D01*
X116015773Y-93432024D01*
X116010948Y-93421976D01*
X116002245Y-93415016D01*
X116002186Y-93414942D01*
X115998978Y-93412071D01*
X115994552Y-93405448D01*
X115988047Y-93401102D01*
X115985321Y-93398050D01*
X115985253Y-93397996D01*
X115978305Y-93389276D01*
X115967608Y-93384117D01*
X115948786Y-93372264D01*
X115939508Y-93364844D01*
X115930782Y-93362837D01*
X115928231Y-93361133D01*
X115921163Y-93359727D01*
X115915486Y-93357913D01*
X115909664Y-93355502D01*
X115909767Y-93355252D01*
X115905954Y-93354379D01*
X115895913Y-93349535D01*
X115884765Y-93349525D01*
X115884764Y-93349525D01*
X115872845Y-93349515D01*
X115872847Y-93347770D01*
X115872781Y-93347776D01*
X115872781Y-93349500D01*
X115855892Y-93349500D01*
X115804726Y-93349455D01*
X115804437Y-93349455D01*
X115804349Y-93349497D01*
X115804325Y-93349500D01*
X115499000Y-93349500D01*
X115440809Y-93330593D01*
X115404845Y-93281093D01*
X115400000Y-93250500D01*
X115400000Y-93054432D01*
X116844068Y-93054432D01*
X116846636Y-93067522D01*
X116848156Y-93068934D01*
X116852984Y-93070000D01*
X117334320Y-93070000D01*
X117347005Y-93065878D01*
X117350000Y-93061757D01*
X117350000Y-93054320D01*
X117750000Y-93054320D01*
X117754122Y-93067005D01*
X117758243Y-93070000D01*
X118242136Y-93070000D01*
X118254821Y-93065878D01*
X118256041Y-93064200D01*
X118256519Y-93059280D01*
X118250107Y-93006295D01*
X118247002Y-92994068D01*
X118197363Y-92868695D01*
X118190799Y-92857045D01*
X118109510Y-92749950D01*
X118100050Y-92740490D01*
X117992955Y-92659201D01*
X117981305Y-92652637D01*
X117855933Y-92602999D01*
X117843705Y-92599893D01*
X117764920Y-92590359D01*
X117764630Y-92590341D01*
X117752995Y-92594122D01*
X117750000Y-92598243D01*
X117750000Y-93054320D01*
X117350000Y-93054320D01*
X117350000Y-92605680D01*
X117345878Y-92592995D01*
X117341757Y-92590000D01*
X117341034Y-92590000D01*
X117335080Y-92590359D01*
X117256295Y-92599893D01*
X117244067Y-92602999D01*
X117118695Y-92652637D01*
X117107045Y-92659201D01*
X116999950Y-92740490D01*
X116990490Y-92749950D01*
X116909201Y-92857045D01*
X116902637Y-92868695D01*
X116852998Y-92994068D01*
X116849893Y-93006295D01*
X116844068Y-93054432D01*
X115400000Y-93054432D01*
X115400000Y-86690720D01*
X115893481Y-86690720D01*
X115899893Y-86743705D01*
X115902998Y-86755932D01*
X115952637Y-86881305D01*
X115959201Y-86892955D01*
X116040490Y-87000050D01*
X116049950Y-87009510D01*
X116157045Y-87090799D01*
X116168695Y-87097363D01*
X116294067Y-87147001D01*
X116306295Y-87150107D01*
X116385080Y-87159641D01*
X116385370Y-87159659D01*
X116397005Y-87155878D01*
X116400000Y-87151757D01*
X116400000Y-87144320D01*
X116800000Y-87144320D01*
X116804122Y-87157005D01*
X116808243Y-87160000D01*
X116808966Y-87160000D01*
X116814920Y-87159641D01*
X116893705Y-87150107D01*
X116905933Y-87147001D01*
X117031305Y-87097363D01*
X117048837Y-87087485D01*
X117049977Y-87089509D01*
X117097925Y-87072811D01*
X117149914Y-87089703D01*
X117151163Y-87087485D01*
X117168695Y-87097363D01*
X117294067Y-87147001D01*
X117306295Y-87150107D01*
X117385080Y-87159641D01*
X117385370Y-87159659D01*
X117397005Y-87155878D01*
X117400000Y-87151757D01*
X117400000Y-87144320D01*
X117800000Y-87144320D01*
X117804122Y-87157005D01*
X117808243Y-87160000D01*
X117808966Y-87160000D01*
X117814922Y-87159641D01*
X117864893Y-87153594D01*
X117924934Y-87165374D01*
X117966584Y-87210195D01*
X117973934Y-87270937D01*
X117960815Y-87300205D01*
X117962515Y-87301163D01*
X117952637Y-87318695D01*
X117902998Y-87444068D01*
X117899893Y-87456295D01*
X117894068Y-87504432D01*
X117896636Y-87517522D01*
X117898156Y-87518934D01*
X117902984Y-87520000D01*
X118384320Y-87520000D01*
X118397005Y-87515878D01*
X118400000Y-87511757D01*
X118400000Y-87055680D01*
X118395878Y-87042995D01*
X118391757Y-87040000D01*
X118391034Y-87040000D01*
X118385078Y-87040359D01*
X118335107Y-87046406D01*
X118275066Y-87034626D01*
X118233416Y-86989805D01*
X118226066Y-86929063D01*
X118239185Y-86899795D01*
X118237485Y-86898837D01*
X118247363Y-86881305D01*
X118297002Y-86755932D01*
X118300107Y-86743705D01*
X118305932Y-86695568D01*
X118303364Y-86682478D01*
X118301844Y-86681066D01*
X118297016Y-86680000D01*
X117815680Y-86680000D01*
X117802995Y-86684122D01*
X117800000Y-86688243D01*
X117800000Y-87144320D01*
X117400000Y-87144320D01*
X117400000Y-86695680D01*
X117395878Y-86682995D01*
X117391757Y-86680000D01*
X116815680Y-86680000D01*
X116802995Y-86684122D01*
X116800000Y-86688243D01*
X116800000Y-87144320D01*
X116400000Y-87144320D01*
X116400000Y-86695680D01*
X116395878Y-86682995D01*
X116391757Y-86680000D01*
X115907864Y-86680000D01*
X115895179Y-86684122D01*
X115893959Y-86685800D01*
X115893481Y-86690720D01*
X115400000Y-86690720D01*
X115400000Y-81599500D01*
X115418907Y-81541309D01*
X115468407Y-81505345D01*
X115499000Y-81500500D01*
X116032654Y-81500500D01*
X116045341Y-81491283D01*
X116046346Y-81490956D01*
X116047200Y-81490335D01*
X116062112Y-81485490D01*
X116071328Y-81472806D01*
X116072184Y-81472184D01*
X116072806Y-81471328D01*
X116085490Y-81462112D01*
X116090335Y-81447200D01*
X116090956Y-81446346D01*
X116091283Y-81445341D01*
X116100500Y-81432654D01*
X116100500Y-80185370D01*
X118440341Y-80185370D01*
X118444122Y-80197005D01*
X118448243Y-80200000D01*
X118904320Y-80200000D01*
X118917005Y-80195878D01*
X118920000Y-80191757D01*
X118920000Y-79707864D01*
X118915878Y-79695179D01*
X118914200Y-79693959D01*
X118909280Y-79693481D01*
X118856295Y-79699893D01*
X118844068Y-79702998D01*
X118718695Y-79752637D01*
X118707045Y-79759201D01*
X118599950Y-79840490D01*
X118590490Y-79849950D01*
X118509201Y-79957045D01*
X118502637Y-79968695D01*
X118452999Y-80094067D01*
X118449893Y-80106295D01*
X118440359Y-80185080D01*
X118440341Y-80185370D01*
X116100500Y-80185370D01*
X116100500Y-78799500D01*
X116119407Y-78741309D01*
X116168907Y-78705345D01*
X116199500Y-78700500D01*
X132400500Y-78700500D01*
X132458691Y-78719407D01*
G37*
%TD.AperFunction*%
%TA.AperFunction,Conductor*%
G36*
X130073700Y-88055930D02*
G01*
X130136754Y-88118984D01*
X130164531Y-88173501D01*
X130165750Y-88188988D01*
X130165750Y-89790500D01*
X130146843Y-89848691D01*
X130097343Y-89884655D01*
X130066751Y-89889500D01*
X129947257Y-89889501D01*
X129940100Y-89889501D01*
X129936890Y-89889924D01*
X129936883Y-89889924D01*
X129898026Y-89895039D01*
X129898025Y-89895039D01*
X129890513Y-89896028D01*
X129883644Y-89899231D01*
X129883603Y-89899243D01*
X129822447Y-89897375D01*
X129774068Y-89859916D01*
X129756946Y-89801175D01*
X129777622Y-89743589D01*
X129785896Y-89734194D01*
X129838385Y-89681705D01*
X129847427Y-89669260D01*
X129897879Y-89570242D01*
X129902634Y-89555607D01*
X129915641Y-89473481D01*
X129916250Y-89465742D01*
X129916250Y-89053834D01*
X129912128Y-89041149D01*
X129908007Y-89038154D01*
X129031930Y-89038154D01*
X129019245Y-89042276D01*
X129016250Y-89046397D01*
X129016250Y-89822473D01*
X129020372Y-89835158D01*
X129024493Y-89838153D01*
X129543835Y-89838153D01*
X129551579Y-89837543D01*
X129633697Y-89824539D01*
X129641800Y-89821906D01*
X129702986Y-89821908D01*
X129752484Y-89857874D01*
X129771390Y-89916065D01*
X129752481Y-89974255D01*
X129742394Y-89986066D01*
X129696776Y-90031684D01*
X129693116Y-90039532D01*
X129693115Y-90039534D01*
X129667686Y-90094067D01*
X129646028Y-90140513D01*
X129639500Y-90190099D01*
X129639501Y-90343699D01*
X129639501Y-90459164D01*
X129620594Y-90517354D01*
X129610505Y-90529168D01*
X129065476Y-91074198D01*
X128658253Y-91481421D01*
X128603736Y-91509198D01*
X128543304Y-91499627D01*
X128500039Y-91456362D01*
X128489249Y-91411417D01*
X128489249Y-91288254D01*
X128487840Y-91277543D01*
X128483711Y-91246179D01*
X128483711Y-91246178D01*
X128482722Y-91238667D01*
X128459301Y-91188440D01*
X128451844Y-91127712D01*
X128481507Y-91074198D01*
X128489170Y-91067746D01*
X128528795Y-91037669D01*
X128538260Y-91028204D01*
X128619549Y-90921109D01*
X128626113Y-90909459D01*
X128675752Y-90784086D01*
X128678857Y-90771859D01*
X128684682Y-90723722D01*
X128682114Y-90710632D01*
X128680594Y-90709220D01*
X128675766Y-90708154D01*
X127286614Y-90708154D01*
X127273929Y-90712276D01*
X127272709Y-90713954D01*
X127272231Y-90718874D01*
X127278643Y-90771859D01*
X127281748Y-90784086D01*
X127331387Y-90909459D01*
X127337951Y-90921109D01*
X127419240Y-91028204D01*
X127428705Y-91037669D01*
X127468330Y-91067746D01*
X127503250Y-91117988D01*
X127501968Y-91179160D01*
X127498203Y-91188432D01*
X127474778Y-91238667D01*
X127468250Y-91288253D01*
X127468251Y-91394170D01*
X127468251Y-91477318D01*
X127449344Y-91535509D01*
X127439255Y-91547323D01*
X127256616Y-91729962D01*
X127202099Y-91757739D01*
X127158245Y-91754807D01*
X127136224Y-91748221D01*
X127059595Y-91747753D01*
X127014233Y-91747476D01*
X127007182Y-91747433D01*
X127000405Y-91749370D01*
X127000404Y-91749370D01*
X126889886Y-91780956D01*
X126889884Y-91780957D01*
X126883106Y-91782894D01*
X126773970Y-91851754D01*
X126688547Y-91948477D01*
X126633705Y-92065287D01*
X126613852Y-92192795D01*
X126630584Y-92320749D01*
X126633422Y-92327200D01*
X126633423Y-92327202D01*
X126670348Y-92411120D01*
X126682556Y-92438865D01*
X126687093Y-92444262D01*
X126687094Y-92444264D01*
X126694322Y-92452862D01*
X126712511Y-92474500D01*
X126720234Y-92483688D01*
X126743204Y-92540397D01*
X126743451Y-92547390D01*
X126743451Y-92794117D01*
X126724544Y-92852308D01*
X126675044Y-92888272D01*
X126613858Y-92888272D01*
X126574448Y-92864121D01*
X126413247Y-92702921D01*
X126385469Y-92648404D01*
X126384250Y-92632917D01*
X126384250Y-91295202D01*
X126403157Y-91237011D01*
X126413246Y-91225198D01*
X126481974Y-91156470D01*
X126495385Y-91127712D01*
X126529519Y-91054510D01*
X126532722Y-91047641D01*
X126539250Y-90998055D01*
X126539249Y-90808989D01*
X126558156Y-90750799D01*
X126568245Y-90738985D01*
X126833307Y-90473923D01*
X126839675Y-90468088D01*
X126857662Y-90452995D01*
X126869444Y-90443109D01*
X126888879Y-90409446D01*
X126893518Y-90402165D01*
X126897012Y-90397175D01*
X126915804Y-90370338D01*
X126918046Y-90361970D01*
X126920512Y-90356683D01*
X126922508Y-90351198D01*
X126926838Y-90343699D01*
X126933584Y-90305437D01*
X126935454Y-90297003D01*
X126936638Y-90292586D01*
X127272818Y-90292586D01*
X127275386Y-90305676D01*
X127276906Y-90307088D01*
X127281734Y-90308154D01*
X128670886Y-90308154D01*
X128683571Y-90304032D01*
X128684791Y-90302354D01*
X128685269Y-90297434D01*
X128678857Y-90244449D01*
X128675752Y-90232222D01*
X128626113Y-90106849D01*
X128619549Y-90095199D01*
X128543511Y-89995021D01*
X128523390Y-89937239D01*
X128541075Y-89878665D01*
X128591776Y-89841011D01*
X128613256Y-89834032D01*
X128616250Y-89829911D01*
X128616250Y-89053834D01*
X128612128Y-89041149D01*
X128608007Y-89038154D01*
X127731931Y-89038154D01*
X127719246Y-89042276D01*
X127716251Y-89046397D01*
X127716251Y-89465739D01*
X127716861Y-89473483D01*
X127729866Y-89555603D01*
X127734623Y-89570245D01*
X127785072Y-89669256D01*
X127790724Y-89677036D01*
X127809632Y-89735226D01*
X127790726Y-89793417D01*
X127741226Y-89829382D01*
X127722526Y-89833511D01*
X127685046Y-89838047D01*
X127672817Y-89841153D01*
X127547445Y-89890791D01*
X127535795Y-89897355D01*
X127428700Y-89978644D01*
X127419240Y-89988104D01*
X127337951Y-90095199D01*
X127331387Y-90106849D01*
X127281748Y-90232222D01*
X127278643Y-90244449D01*
X127272818Y-90292586D01*
X126936638Y-90292586D01*
X126943272Y-90267828D01*
X126945514Y-90259461D01*
X126942127Y-90220749D01*
X126941750Y-90212120D01*
X126941750Y-89737654D01*
X126960657Y-89679463D01*
X127010157Y-89643499D01*
X127040750Y-89638654D01*
X127335998Y-89638654D01*
X127367595Y-89632369D01*
X127384916Y-89628924D01*
X127384918Y-89628923D01*
X127394481Y-89627021D01*
X127460802Y-89582706D01*
X127505117Y-89516385D01*
X127508175Y-89501015D01*
X127513651Y-89473481D01*
X127516750Y-89457902D01*
X127516750Y-88218406D01*
X127507069Y-88169738D01*
X127514260Y-88108979D01*
X127545978Y-88070331D01*
X127566110Y-88055705D01*
X127567359Y-88057424D01*
X127612308Y-88034522D01*
X127672740Y-88044093D01*
X127716005Y-88087358D01*
X127725576Y-88147790D01*
X127716859Y-88202827D01*
X127716250Y-88210566D01*
X127716250Y-88622474D01*
X127720372Y-88635159D01*
X127724493Y-88638154D01*
X129900569Y-88638154D01*
X129913254Y-88634032D01*
X129916249Y-88629911D01*
X129916249Y-88210569D01*
X129915639Y-88202824D01*
X129905915Y-88141419D01*
X129915487Y-88080987D01*
X129958753Y-88037723D01*
X130019185Y-88028153D01*
X130073700Y-88055930D01*
G37*
%TD.AperFunction*%
%TA.AperFunction,Conductor*%
G36*
X122106263Y-87147728D02*
G01*
X122130476Y-87165498D01*
X122295505Y-87330527D01*
X122323281Y-87385042D01*
X122324500Y-87400529D01*
X122324500Y-88067095D01*
X122305593Y-88125286D01*
X122285568Y-88144965D01*
X122281684Y-88146776D01*
X122196776Y-88231684D01*
X122193116Y-88239532D01*
X122193115Y-88239534D01*
X122161984Y-88306295D01*
X122146028Y-88340513D01*
X122139500Y-88390099D01*
X122139501Y-88809900D01*
X122139924Y-88813110D01*
X122139924Y-88813117D01*
X122143525Y-88840471D01*
X122146028Y-88859487D01*
X122160263Y-88890014D01*
X122187368Y-88948140D01*
X122196776Y-88968316D01*
X122281684Y-89053224D01*
X122284255Y-89054423D01*
X122319107Y-89100674D01*
X122324500Y-89132905D01*
X122324500Y-89450500D01*
X122305593Y-89508691D01*
X122256093Y-89544655D01*
X122225500Y-89549500D01*
X122063482Y-89549500D01*
X121645504Y-89549501D01*
X121587314Y-89530594D01*
X121551350Y-89481094D01*
X121551350Y-89419908D01*
X121566648Y-89390646D01*
X121640799Y-89292955D01*
X121647363Y-89281305D01*
X121697002Y-89155932D01*
X121700107Y-89143705D01*
X121705932Y-89095568D01*
X121703364Y-89082478D01*
X121701844Y-89081066D01*
X121697016Y-89080000D01*
X120307864Y-89080000D01*
X120295179Y-89084122D01*
X120293959Y-89085800D01*
X120293481Y-89090719D01*
X120299337Y-89139106D01*
X120287558Y-89199147D01*
X120242737Y-89240797D01*
X120201054Y-89250000D01*
X120115680Y-89250000D01*
X120102995Y-89254122D01*
X120100000Y-89258243D01*
X120100000Y-90034320D01*
X120104122Y-90047005D01*
X120108243Y-90050000D01*
X120984319Y-90050000D01*
X120997004Y-90045878D01*
X120999999Y-90041757D01*
X120999999Y-89659000D01*
X121018906Y-89600809D01*
X121068406Y-89564845D01*
X121098999Y-89560000D01*
X121200500Y-89560000D01*
X121258691Y-89578907D01*
X121294655Y-89628407D01*
X121299500Y-89659000D01*
X121299501Y-90259461D01*
X121299501Y-90859898D01*
X121301566Y-90870280D01*
X121294371Y-90931039D01*
X121249412Y-90977796D01*
X121168899Y-91018820D01*
X121150141Y-91032448D01*
X121148892Y-91030729D01*
X121103942Y-91053632D01*
X121043510Y-91044061D01*
X121000245Y-91000796D01*
X120990674Y-90940364D01*
X120999391Y-90885327D01*
X121000000Y-90877588D01*
X121000000Y-90465680D01*
X120995878Y-90452995D01*
X120991757Y-90450000D01*
X118815681Y-90450000D01*
X118802996Y-90454122D01*
X118800001Y-90458243D01*
X118800001Y-90877585D01*
X118800611Y-90885329D01*
X118813616Y-90967449D01*
X118818373Y-90982091D01*
X118868823Y-91081106D01*
X118877865Y-91093551D01*
X118956449Y-91172135D01*
X118968894Y-91181177D01*
X119049411Y-91222202D01*
X119092676Y-91265467D01*
X119101563Y-91329729D01*
X119099500Y-91340101D01*
X119099500Y-91525500D01*
X119080593Y-91583691D01*
X119031093Y-91619655D01*
X119000500Y-91624500D01*
X118825834Y-91624500D01*
X118767643Y-91605593D01*
X118755830Y-91595504D01*
X118554496Y-91394170D01*
X118526719Y-91339653D01*
X118525500Y-91324166D01*
X118525500Y-90034320D01*
X118800000Y-90034320D01*
X118804122Y-90047005D01*
X118808243Y-90050000D01*
X119684320Y-90050000D01*
X119697005Y-90045878D01*
X119700000Y-90041757D01*
X119700000Y-89265681D01*
X119695878Y-89252996D01*
X119691757Y-89250001D01*
X119172415Y-89250001D01*
X119164671Y-89250611D01*
X119082548Y-89263616D01*
X119067139Y-89268622D01*
X119005953Y-89268619D01*
X118999734Y-89264100D01*
X118995013Y-89288384D01*
X118966616Y-89320479D01*
X118956447Y-89327867D01*
X118877865Y-89406449D01*
X118868823Y-89418894D01*
X118818371Y-89517912D01*
X118813616Y-89532547D01*
X118800609Y-89614673D01*
X118800000Y-89622412D01*
X118800000Y-90034320D01*
X118525500Y-90034320D01*
X118525500Y-89419639D01*
X118544407Y-89361448D01*
X118554496Y-89349635D01*
X118714636Y-89189495D01*
X118769153Y-89161718D01*
X118784640Y-89160499D01*
X118809900Y-89160499D01*
X118813110Y-89160076D01*
X118813117Y-89160076D01*
X118851975Y-89154961D01*
X118851976Y-89154961D01*
X118859487Y-89153972D01*
X118866592Y-89150659D01*
X118866838Y-89150629D01*
X118873623Y-89148651D01*
X118873945Y-89149756D01*
X118927320Y-89143204D01*
X118944596Y-89152781D01*
X118956461Y-89116271D01*
X118969023Y-89103931D01*
X118968316Y-89103224D01*
X119053224Y-89018316D01*
X119058795Y-89006371D01*
X119100769Y-88916356D01*
X119103972Y-88909487D01*
X119110500Y-88859901D01*
X119110500Y-88834639D01*
X119129407Y-88776448D01*
X119139496Y-88764635D01*
X120345771Y-87558360D01*
X120400288Y-87530583D01*
X120460720Y-87540154D01*
X120503985Y-87583419D01*
X120513556Y-87643851D01*
X120505500Y-87670200D01*
X120496028Y-87690513D01*
X120489500Y-87740099D01*
X120489501Y-88099900D01*
X120496028Y-88149487D01*
X120519449Y-88199714D01*
X120526906Y-88260442D01*
X120497243Y-88313956D01*
X120489580Y-88320408D01*
X120449955Y-88350485D01*
X120440490Y-88359950D01*
X120359201Y-88467045D01*
X120352637Y-88478695D01*
X120302998Y-88604068D01*
X120299893Y-88616295D01*
X120294068Y-88664432D01*
X120296636Y-88677522D01*
X120298156Y-88678934D01*
X120302984Y-88680000D01*
X121692136Y-88680000D01*
X121704821Y-88675878D01*
X121706041Y-88674200D01*
X121706519Y-88669280D01*
X121700107Y-88616295D01*
X121697002Y-88604068D01*
X121647363Y-88478695D01*
X121640799Y-88467045D01*
X121559510Y-88359950D01*
X121550045Y-88350485D01*
X121510420Y-88320408D01*
X121475500Y-88270166D01*
X121476782Y-88208994D01*
X121480547Y-88199722D01*
X121503972Y-88149487D01*
X121510500Y-88099901D01*
X121510499Y-87740100D01*
X121504638Y-87695568D01*
X121503972Y-87690513D01*
X121505091Y-87690366D01*
X121506739Y-87636542D01*
X121544201Y-87588166D01*
X121578844Y-87575093D01*
X121578521Y-87573909D01*
X121703021Y-87539966D01*
X121812990Y-87472445D01*
X121878085Y-87400529D01*
X121894856Y-87382001D01*
X121894856Y-87382000D01*
X121899588Y-87376773D01*
X121955854Y-87260641D01*
X121962846Y-87219078D01*
X121991145Y-87164832D01*
X122045925Y-87137578D01*
X122106263Y-87147728D01*
G37*
%TD.AperFunction*%
%TD*%
M02*
