M48
METRIC,TZ
T1C0.400
T2C1.000
T3C3.200
T4C2.200
%
G90
G05
T1
X131788Y-53238
X131928Y-58141
X138214Y-54216
X138278Y-46761
X138354Y-49314
X138417Y-56909
X138481Y-61671
X143942Y-54140
X144082Y-49174
X144145Y-46546
X144145Y-56629
X144221Y-61532
X150635Y-52972
X150851Y-57874
T2
X127160Y-51385
X127160Y-54155
X127160Y-56925
X127160Y-59695
X130000Y-50000
X130000Y-52770
X130000Y-55540
X130000Y-58310
X130000Y-61080
X140000Y-45350
X140000Y-47890
X140000Y-50430
X140000Y-52970
X140000Y-55510
X140000Y-58050
X140000Y-60590
X140000Y-63130
X140000Y-65670
X142540Y-45350
X142540Y-47890
X142540Y-50430
X142540Y-52970
X142540Y-55510
X142540Y-58050
X142540Y-60590
X142540Y-63130
X142540Y-65670
X152600Y-50000
X152600Y-52770
X152600Y-55540
X152600Y-58310
X152600Y-61080
X155440Y-51385
X155440Y-54155
X155440Y-56925
X155440Y-59695
T3
X154020Y-43040
X154020Y-68040
X128580Y-43040
X128580Y-68040
T4
X160600Y-73800
X160600Y-37400
X122000Y-73800
X122000Y-37400
X141300Y-73800
X141300Y-37400
T0
M30
