M48
; DRILL file {KiCad 5.1.10-88a1d61d58~88~ubuntu20.04.1} date Sun May  9 22:43:29 2021
; FORMAT={-:-/ absolute / metric / decimal}
; #@! TF.CreationDate,2021-05-09T22:43:29+02:00
; #@! TF.GenerationSoftware,Kicad,Pcbnew,5.1.10-88a1d61d58~88~ubuntu20.04.1
; #@! TF.FileFunction,Plated,1,2,PTH
FMAT,2
METRIC
T1C0.920
T2C1.000
T3C2.300
T4C3.000
%
G90
G05
T1
X116.07Y-96.08
X116.07Y-98.58
X116.07Y-100.58
X116.07Y-103.08
X175.63Y-96.91
X175.63Y-98.91
X175.63Y-100.91
X175.63Y-102.91
T2
X127.49Y-85.52
X127.64Y-113.59
X136.15Y-94.95
X136.34Y-104.81
X156.62Y-95.06
X156.77Y-105.22
X164.51Y-85.8
X164.59Y-113.49
T3
X113.36Y-93.01
X113.36Y-106.15
X177.63Y-93.91
X177.63Y-105.91
T4
X121.65Y-114.77
X122.22Y-85.57
X140.62Y-94.95
X140.8Y-104.85
X152.17Y-95.11
X152.49Y-105.48
X169.11Y-85.13
X170.0Y-113.82
T0
M30
