%TF.GenerationSoftware,KiCad,Pcbnew,6.0.7-f9a2dced07~116~ubuntu20.04.1*%
%TF.CreationDate,2022-09-24T19:15:38+02:00*%
%TF.ProjectId,SRRReceiver,53525252-6563-4656-9976-65722e6b6963,rev?*%
%TF.SameCoordinates,Original*%
%TF.FileFunction,Soldermask,Top*%
%TF.FilePolarity,Negative*%
%FSLAX46Y46*%
G04 Gerber Fmt 4.6, Leading zero omitted, Abs format (unit mm)*
G04 Created by KiCad (PCBNEW 6.0.7-f9a2dced07~116~ubuntu20.04.1) date 2022-09-24 19:15:38*
%MOMM*%
%LPD*%
G01*
G04 APERTURE LIST*
G04 Aperture macros list*
%AMRoundRect*
0 Rectangle with rounded corners*
0 $1 Rounding radius*
0 $2 $3 $4 $5 $6 $7 $8 $9 X,Y pos of 4 corners*
0 Add a 4 corners polygon primitive as box body*
4,1,4,$2,$3,$4,$5,$6,$7,$8,$9,$2,$3,0*
0 Add four circle primitives for the rounded corners*
1,1,$1+$1,$2,$3*
1,1,$1+$1,$4,$5*
1,1,$1+$1,$6,$7*
1,1,$1+$1,$8,$9*
0 Add four rect primitives between the rounded corners*
20,1,$1+$1,$2,$3,$4,$5,0*
20,1,$1+$1,$4,$5,$6,$7,0*
20,1,$1+$1,$6,$7,$8,$9,0*
20,1,$1+$1,$8,$9,$2,$3,0*%
G04 Aperture macros list end*
%ADD10R,1.400000X1.200000*%
%ADD11RoundRect,0.140000X0.170000X-0.140000X0.170000X0.140000X-0.170000X0.140000X-0.170000X-0.140000X0*%
%ADD12RoundRect,0.140000X-0.170000X0.140000X-0.170000X-0.140000X0.170000X-0.140000X0.170000X0.140000X0*%
%ADD13RoundRect,0.140000X-0.140000X-0.170000X0.140000X-0.170000X0.140000X0.170000X-0.140000X0.170000X0*%
%ADD14RoundRect,0.147500X0.147500X0.172500X-0.147500X0.172500X-0.147500X-0.172500X0.147500X-0.172500X0*%
%ADD15RoundRect,0.140000X0.140000X0.170000X-0.140000X0.170000X-0.140000X-0.170000X0.140000X-0.170000X0*%
%ADD16RoundRect,0.062500X-0.425000X-0.062500X0.425000X-0.062500X0.425000X0.062500X-0.425000X0.062500X0*%
%ADD17RoundRect,0.062500X-0.062500X-0.425000X0.062500X-0.425000X0.062500X0.425000X-0.062500X0.425000X0*%
%ADD18R,2.400000X2.400000*%
%ADD19RoundRect,0.062500X0.425000X0.062500X-0.425000X0.062500X-0.425000X-0.062500X0.425000X-0.062500X0*%
%ADD20RoundRect,0.062500X0.062500X0.425000X-0.062500X0.425000X-0.062500X-0.425000X0.062500X-0.425000X0*%
%ADD21RoundRect,0.147500X-0.147500X-0.172500X0.147500X-0.172500X0.147500X0.172500X-0.147500X0.172500X0*%
%ADD22RoundRect,0.147500X0.172500X-0.147500X0.172500X0.147500X-0.172500X0.147500X-0.172500X-0.147500X0*%
%ADD23RoundRect,0.135000X-0.135000X-0.185000X0.135000X-0.185000X0.135000X0.185000X-0.135000X0.185000X0*%
%ADD24RoundRect,0.147500X-0.172500X0.147500X-0.172500X-0.147500X0.172500X-0.147500X0.172500X0.147500X0*%
%ADD25RoundRect,0.135000X0.135000X0.185000X-0.135000X0.185000X-0.135000X-0.185000X0.135000X-0.185000X0*%
G04 APERTURE END LIST*
D10*
%TO.C,Y2*%
X119900000Y-90250000D03*
X122100000Y-90250000D03*
X122100000Y-91950000D03*
X119900000Y-91950000D03*
%TD*%
%TO.C,Y1*%
X128816250Y-87138154D03*
X126616250Y-87138154D03*
X126616250Y-88838154D03*
X128816250Y-88838154D03*
%TD*%
D11*
%TO.C,C5*%
X124237500Y-98780000D03*
X124237500Y-97820000D03*
%TD*%
D12*
%TO.C,C6*%
X124400000Y-91908154D03*
X124400000Y-92868154D03*
%TD*%
D13*
%TO.C,C7*%
X125098750Y-90788154D03*
X126058750Y-90788154D03*
%TD*%
%TO.C,C32*%
X127920000Y-83350000D03*
X128880000Y-83350000D03*
%TD*%
D14*
%TO.C,L6*%
X131085000Y-83800000D03*
X130115000Y-83800000D03*
%TD*%
D11*
%TO.C,C31*%
X126800000Y-85230000D03*
X126800000Y-84270000D03*
%TD*%
D14*
%TO.C,L5*%
X128885000Y-84400000D03*
X127915000Y-84400000D03*
%TD*%
D15*
%TO.C,C18*%
X123580000Y-88600000D03*
X122620000Y-88600000D03*
%TD*%
D12*
%TO.C,C15*%
X121600000Y-94020000D03*
X121600000Y-94980000D03*
%TD*%
D16*
%TO.C,U2*%
X119012500Y-82850000D03*
X119012500Y-83350000D03*
X119012500Y-83850000D03*
X119012500Y-84350000D03*
X119012500Y-84850000D03*
D17*
X119900000Y-85737500D03*
X120400000Y-85737500D03*
X120900000Y-85737500D03*
X121400000Y-85737500D03*
X121900000Y-85737500D03*
D16*
X122787500Y-84850000D03*
X122787500Y-84350000D03*
X122787500Y-83850000D03*
X122787500Y-83350000D03*
X122787500Y-82850000D03*
D17*
X121900000Y-81962500D03*
X121400000Y-81962500D03*
X120900000Y-81962500D03*
X120400000Y-81962500D03*
X119900000Y-81962500D03*
D18*
X120900000Y-83850000D03*
%TD*%
D12*
%TO.C,C33*%
X130100000Y-81820000D03*
X130100000Y-82780000D03*
%TD*%
%TO.C,C2*%
X130978750Y-92708154D03*
X130978750Y-93668154D03*
%TD*%
D11*
%TO.C,C28*%
X131658750Y-96468154D03*
X131658750Y-95508154D03*
%TD*%
D13*
%TO.C,C14*%
X122720000Y-95788154D03*
X123680000Y-95788154D03*
%TD*%
D19*
%TO.C,U1*%
X129458750Y-96588154D03*
X129458750Y-96088154D03*
X129458750Y-95588154D03*
X129458750Y-95088154D03*
X129458750Y-94588154D03*
D20*
X128571250Y-93700654D03*
X128071250Y-93700654D03*
X127571250Y-93700654D03*
X127071250Y-93700654D03*
X126571250Y-93700654D03*
D19*
X125683750Y-94588154D03*
X125683750Y-95088154D03*
X125683750Y-95588154D03*
X125683750Y-96088154D03*
X125683750Y-96588154D03*
D20*
X126571250Y-97475654D03*
X127071250Y-97475654D03*
X127571250Y-97475654D03*
X128071250Y-97475654D03*
X128571250Y-97475654D03*
D18*
X127571250Y-95588154D03*
%TD*%
D21*
%TO.C,L2*%
X119565000Y-94788154D03*
X120535000Y-94788154D03*
%TD*%
D11*
%TO.C,C21*%
X116600000Y-86480000D03*
X116600000Y-85520000D03*
%TD*%
D12*
%TO.C,C24*%
X125600000Y-80270000D03*
X125600000Y-81230000D03*
%TD*%
D11*
%TO.C,C25*%
X121000000Y-88880000D03*
X121000000Y-87920000D03*
%TD*%
D12*
%TO.C,C20*%
X118600000Y-87720000D03*
X118600000Y-88680000D03*
%TD*%
%TO.C,C19*%
X117550000Y-93270000D03*
X117550000Y-94230000D03*
%TD*%
%TO.C,C1*%
X131978750Y-92708154D03*
X131978750Y-93668154D03*
%TD*%
%TO.C,C12*%
X117200000Y-82720000D03*
X117200000Y-83680000D03*
%TD*%
D15*
%TO.C,C11*%
X128980000Y-98900000D03*
X128020000Y-98900000D03*
%TD*%
D11*
%TO.C,C27*%
X124200000Y-87480000D03*
X124200000Y-86520000D03*
%TD*%
%TO.C,C3*%
X123200000Y-98780000D03*
X123200000Y-97820000D03*
%TD*%
D15*
%TO.C,C10*%
X131080000Y-90400000D03*
X130120000Y-90400000D03*
%TD*%
%TO.C,C29*%
X125730000Y-84400000D03*
X124770000Y-84400000D03*
%TD*%
D12*
%TO.C,C4*%
X127978750Y-90508154D03*
X127978750Y-91468154D03*
%TD*%
D15*
%TO.C,C16*%
X120538750Y-95800000D03*
X119578750Y-95800000D03*
%TD*%
D22*
%TO.C,L4*%
X126800000Y-83285000D03*
X126800000Y-82315000D03*
%TD*%
D15*
%TO.C,C30*%
X125730000Y-83400000D03*
X124770000Y-83400000D03*
%TD*%
D13*
%TO.C,C13*%
X122720000Y-94788154D03*
X123680000Y-94788154D03*
%TD*%
%TO.C,C23*%
X119120000Y-80400000D03*
X120080000Y-80400000D03*
%TD*%
D23*
%TO.C,R2*%
X121890000Y-80400000D03*
X122910000Y-80400000D03*
%TD*%
D12*
%TO.C,C26*%
X124500000Y-80270000D03*
X124500000Y-81230000D03*
%TD*%
D24*
%TO.C,L1*%
X121600000Y-96015000D03*
X121600000Y-96985000D03*
%TD*%
D11*
%TO.C,C17*%
X118458750Y-97130000D03*
X118458750Y-96170000D03*
%TD*%
D21*
%TO.C,L3*%
X117515000Y-95200000D03*
X118485000Y-95200000D03*
%TD*%
D11*
%TO.C,C34*%
X131100000Y-85680000D03*
X131100000Y-84720000D03*
%TD*%
%TO.C,C22*%
X117600000Y-86480000D03*
X117600000Y-85520000D03*
%TD*%
D25*
%TO.C,R1*%
X126310000Y-98700000D03*
X125290000Y-98700000D03*
%TD*%
M02*
