G04 #@! TF.GenerationSoftware,KiCad,Pcbnew,5.0.2-bee76a0~70~ubuntu16.04.1*
G04 #@! TF.CreationDate,2020-11-05T23:54:09+01:00*
G04 #@! TF.ProjectId,BTSerialClient,42545365-7269-4616-9c43-6c69656e742e,rev?*
G04 #@! TF.SameCoordinates,Original*
G04 #@! TF.FileFunction,Soldermask,Bot*
G04 #@! TF.FilePolarity,Negative*
%FSLAX46Y46*%
G04 Gerber Fmt 4.6, Leading zero omitted, Abs format (unit mm)*
G04 Created by KiCad (PCBNEW 5.0.2-bee76a0~70~ubuntu16.04.1) date tor  5 nov 2020 23:54:09*
%MOMM*%
%LPD*%
G01*
G04 APERTURE LIST*
%ADD10C,0.100000*%
G04 APERTURE END LIST*
D10*
G36*
X123530033Y-99738600D02*
X121581367Y-99738600D01*
X121581367Y-96156600D01*
X123530033Y-96156600D01*
X123530033Y-99738600D01*
X123530033Y-99738600D01*
G37*
G36*
X120760033Y-99738600D02*
X118811367Y-99738600D01*
X118811367Y-96156600D01*
X120760033Y-96156600D01*
X120760033Y-99738600D01*
X120760033Y-99738600D01*
G37*
G36*
X117990033Y-99738600D02*
X116041367Y-99738600D01*
X116041367Y-96156600D01*
X117990033Y-96156600D01*
X117990033Y-99738600D01*
X117990033Y-99738600D01*
G37*
G36*
X126300033Y-99738600D02*
X124351367Y-99738600D01*
X124351367Y-96156600D01*
X126300033Y-96156600D01*
X126300033Y-99738600D01*
X126300033Y-99738600D01*
G37*
G36*
X108718433Y-95634893D02*
X108808657Y-95652839D01*
X108914267Y-95696585D01*
X109063621Y-95758449D01*
X109293089Y-95911774D01*
X109488226Y-96106911D01*
X109641551Y-96336379D01*
X109747161Y-96591344D01*
X109801000Y-96862012D01*
X109801000Y-97137988D01*
X109747161Y-97408656D01*
X109641551Y-97663621D01*
X109488226Y-97893089D01*
X109293089Y-98088226D01*
X109063621Y-98241551D01*
X108914267Y-98303415D01*
X108808657Y-98347161D01*
X108718433Y-98365107D01*
X108537988Y-98401000D01*
X108262012Y-98401000D01*
X108081567Y-98365107D01*
X107991343Y-98347161D01*
X107885733Y-98303415D01*
X107736379Y-98241551D01*
X107506911Y-98088226D01*
X107311774Y-97893089D01*
X107158449Y-97663621D01*
X107052839Y-97408656D01*
X106999000Y-97137988D01*
X106999000Y-96862012D01*
X107052839Y-96591344D01*
X107158449Y-96336379D01*
X107311774Y-96106911D01*
X107506911Y-95911774D01*
X107736379Y-95758449D01*
X107885733Y-95696585D01*
X107991343Y-95652839D01*
X108081567Y-95634893D01*
X108262012Y-95599000D01*
X108537988Y-95599000D01*
X108718433Y-95634893D01*
X108718433Y-95634893D01*
G37*
G36*
X134218433Y-95634893D02*
X134308657Y-95652839D01*
X134414267Y-95696585D01*
X134563621Y-95758449D01*
X134793089Y-95911774D01*
X134988226Y-96106911D01*
X135141551Y-96336379D01*
X135247161Y-96591344D01*
X135301000Y-96862012D01*
X135301000Y-97137988D01*
X135247161Y-97408656D01*
X135141551Y-97663621D01*
X134988226Y-97893089D01*
X134793089Y-98088226D01*
X134563621Y-98241551D01*
X134414267Y-98303415D01*
X134308657Y-98347161D01*
X134218433Y-98365107D01*
X134037988Y-98401000D01*
X133762012Y-98401000D01*
X133581567Y-98365107D01*
X133491343Y-98347161D01*
X133385733Y-98303415D01*
X133236379Y-98241551D01*
X133006911Y-98088226D01*
X132811774Y-97893089D01*
X132658449Y-97663621D01*
X132552839Y-97408656D01*
X132499000Y-97137988D01*
X132499000Y-96862012D01*
X132552839Y-96591344D01*
X132658449Y-96336379D01*
X132811774Y-96106911D01*
X133006911Y-95911774D01*
X133236379Y-95758449D01*
X133385733Y-95696585D01*
X133491343Y-95652839D01*
X133581567Y-95634893D01*
X133762012Y-95599000D01*
X134037988Y-95599000D01*
X134218433Y-95634893D01*
X134218433Y-95634893D01*
G37*
G36*
X110794240Y-84012480D02*
X108692240Y-84012480D01*
X108692240Y-81910480D01*
X110794240Y-81910480D01*
X110794240Y-84012480D01*
X110794240Y-84012480D01*
G37*
G36*
X110049805Y-79410869D02*
X110241074Y-79490095D01*
X110413216Y-79605117D01*
X110559603Y-79751504D01*
X110674625Y-79923646D01*
X110753851Y-80114915D01*
X110794240Y-80317964D01*
X110794240Y-80524996D01*
X110753851Y-80728045D01*
X110674625Y-80919314D01*
X110559603Y-81091456D01*
X110413216Y-81237843D01*
X110241074Y-81352865D01*
X110049805Y-81432091D01*
X109846756Y-81472480D01*
X109639724Y-81472480D01*
X109436675Y-81432091D01*
X109245406Y-81352865D01*
X109073264Y-81237843D01*
X108926877Y-81091456D01*
X108811855Y-80919314D01*
X108732629Y-80728045D01*
X108692240Y-80524996D01*
X108692240Y-80317964D01*
X108732629Y-80114915D01*
X108811855Y-79923646D01*
X108926877Y-79751504D01*
X109073264Y-79605117D01*
X109245406Y-79490095D01*
X109436675Y-79410869D01*
X109639724Y-79370480D01*
X109846756Y-79370480D01*
X110049805Y-79410869D01*
X110049805Y-79410869D01*
G37*
G36*
X107232736Y-66716613D02*
X107323912Y-66754379D01*
X107405972Y-66809210D01*
X107475750Y-66878988D01*
X107530581Y-66961048D01*
X107568347Y-67052224D01*
X107587600Y-67149016D01*
X107587600Y-67247704D01*
X107568347Y-67344496D01*
X107530581Y-67435672D01*
X107475750Y-67517732D01*
X107405972Y-67587510D01*
X107323912Y-67642341D01*
X107232736Y-67680107D01*
X107135944Y-67699360D01*
X107037256Y-67699360D01*
X106940464Y-67680107D01*
X106849288Y-67642341D01*
X106767228Y-67587510D01*
X106697450Y-67517732D01*
X106642619Y-67435672D01*
X106604853Y-67344496D01*
X106585600Y-67247704D01*
X106585600Y-67149016D01*
X106604853Y-67052224D01*
X106642619Y-66961048D01*
X106697450Y-66878988D01*
X106767228Y-66809210D01*
X106849288Y-66754379D01*
X106940464Y-66716613D01*
X107037256Y-66697360D01*
X107135944Y-66697360D01*
X107232736Y-66716613D01*
X107232736Y-66716613D01*
G37*
G36*
X107232736Y-63716613D02*
X107323912Y-63754379D01*
X107405972Y-63809210D01*
X107475750Y-63878988D01*
X107530581Y-63961048D01*
X107568347Y-64052224D01*
X107587600Y-64149016D01*
X107587600Y-64247704D01*
X107568347Y-64344496D01*
X107530581Y-64435672D01*
X107475750Y-64517732D01*
X107405972Y-64587510D01*
X107323912Y-64642341D01*
X107232736Y-64680107D01*
X107135944Y-64699360D01*
X107037256Y-64699360D01*
X106940464Y-64680107D01*
X106849288Y-64642341D01*
X106767228Y-64587510D01*
X106697450Y-64517732D01*
X106642619Y-64435672D01*
X106604853Y-64344496D01*
X106585600Y-64247704D01*
X106585600Y-64149016D01*
X106604853Y-64052224D01*
X106642619Y-63961048D01*
X106697450Y-63878988D01*
X106767228Y-63809210D01*
X106849288Y-63754379D01*
X106940464Y-63716613D01*
X107037256Y-63697360D01*
X107135944Y-63697360D01*
X107232736Y-63716613D01*
X107232736Y-63716613D01*
G37*
G36*
X107228655Y-58264653D02*
X107332519Y-58296159D01*
X107428240Y-58347324D01*
X107512141Y-58416179D01*
X107580996Y-58500080D01*
X107632161Y-58595801D01*
X107663667Y-58699665D01*
X107674306Y-58807680D01*
X107663667Y-58915695D01*
X107632161Y-59019559D01*
X107580996Y-59115280D01*
X107512141Y-59199181D01*
X107428240Y-59268036D01*
X107332519Y-59319201D01*
X107228655Y-59350707D01*
X107147707Y-59358680D01*
X106393573Y-59358680D01*
X106312625Y-59350707D01*
X106208761Y-59319201D01*
X106113040Y-59268036D01*
X106029139Y-59199181D01*
X105960284Y-59115280D01*
X105909119Y-59019559D01*
X105877613Y-58915695D01*
X105866974Y-58807680D01*
X105877613Y-58699665D01*
X105909119Y-58595801D01*
X105960284Y-58500080D01*
X106029139Y-58416179D01*
X106113040Y-58347324D01*
X106208761Y-58296159D01*
X106312625Y-58264653D01*
X106393573Y-58256680D01*
X107147707Y-58256680D01*
X107228655Y-58264653D01*
X107228655Y-58264653D01*
G37*
G36*
X109196479Y-57682671D02*
X109243796Y-57702271D01*
X109286381Y-57730725D01*
X109322595Y-57766939D01*
X109351049Y-57809524D01*
X109370649Y-57856841D01*
X109380640Y-57907071D01*
X109380640Y-57958289D01*
X109370649Y-58008519D01*
X109351049Y-58055836D01*
X109322595Y-58098421D01*
X109286381Y-58134635D01*
X109243796Y-58163089D01*
X109196479Y-58182689D01*
X109146249Y-58192680D01*
X109095031Y-58192680D01*
X109044801Y-58182689D01*
X108997484Y-58163089D01*
X108954899Y-58134635D01*
X108918685Y-58098421D01*
X108890231Y-58055836D01*
X108870631Y-58008519D01*
X108860640Y-57958289D01*
X108860640Y-57907071D01*
X108870631Y-57856841D01*
X108890231Y-57809524D01*
X108918685Y-57766939D01*
X108954899Y-57730725D01*
X108997484Y-57702271D01*
X109044801Y-57682671D01*
X109095031Y-57672680D01*
X109146249Y-57672680D01*
X109196479Y-57682671D01*
X109196479Y-57682671D01*
G37*
G36*
X109196479Y-53682671D02*
X109243796Y-53702271D01*
X109286381Y-53730725D01*
X109322595Y-53766939D01*
X109351049Y-53809524D01*
X109370649Y-53856841D01*
X109380640Y-53907071D01*
X109380640Y-53958289D01*
X109370649Y-54008519D01*
X109351049Y-54055836D01*
X109322595Y-54098421D01*
X109286381Y-54134635D01*
X109243796Y-54163089D01*
X109196479Y-54182689D01*
X109146249Y-54192680D01*
X109095031Y-54192680D01*
X109044801Y-54182689D01*
X108997484Y-54163089D01*
X108954899Y-54134635D01*
X108918685Y-54098421D01*
X108890231Y-54055836D01*
X108870631Y-54008519D01*
X108860640Y-53958289D01*
X108860640Y-53907071D01*
X108870631Y-53856841D01*
X108890231Y-53809524D01*
X108918685Y-53766939D01*
X108954899Y-53730725D01*
X108997484Y-53702271D01*
X109044801Y-53682671D01*
X109095031Y-53672680D01*
X109146249Y-53672680D01*
X109196479Y-53682671D01*
X109196479Y-53682671D01*
G37*
G36*
X107228655Y-52514653D02*
X107332519Y-52546159D01*
X107428240Y-52597324D01*
X107512141Y-52666179D01*
X107580996Y-52750080D01*
X107632161Y-52845801D01*
X107663667Y-52949665D01*
X107674306Y-53057680D01*
X107663667Y-53165695D01*
X107632161Y-53269559D01*
X107580996Y-53365280D01*
X107512141Y-53449181D01*
X107428240Y-53518036D01*
X107332519Y-53569201D01*
X107228655Y-53600707D01*
X107147707Y-53608680D01*
X106393573Y-53608680D01*
X106312625Y-53600707D01*
X106208761Y-53569201D01*
X106113040Y-53518036D01*
X106029139Y-53449181D01*
X105960284Y-53365280D01*
X105909119Y-53269559D01*
X105877613Y-53165695D01*
X105866974Y-53057680D01*
X105877613Y-52949665D01*
X105909119Y-52845801D01*
X105960284Y-52750080D01*
X106029139Y-52666179D01*
X106113040Y-52597324D01*
X106208761Y-52546159D01*
X106312625Y-52514653D01*
X106393573Y-52506680D01*
X107147707Y-52506680D01*
X107228655Y-52514653D01*
X107228655Y-52514653D01*
G37*
G36*
X108718433Y-36634893D02*
X108808657Y-36652839D01*
X108914267Y-36696585D01*
X109063621Y-36758449D01*
X109293089Y-36911774D01*
X109488226Y-37106911D01*
X109641551Y-37336379D01*
X109747161Y-37591344D01*
X109801000Y-37862012D01*
X109801000Y-38137988D01*
X109747161Y-38408656D01*
X109641551Y-38663621D01*
X109488226Y-38893089D01*
X109293089Y-39088226D01*
X109063621Y-39241551D01*
X108914267Y-39303415D01*
X108808657Y-39347161D01*
X108718433Y-39365107D01*
X108537988Y-39401000D01*
X108262012Y-39401000D01*
X108081567Y-39365107D01*
X107991343Y-39347161D01*
X107885733Y-39303415D01*
X107736379Y-39241551D01*
X107506911Y-39088226D01*
X107311774Y-38893089D01*
X107158449Y-38663621D01*
X107052839Y-38408656D01*
X106999000Y-38137988D01*
X106999000Y-37862012D01*
X107052839Y-37591344D01*
X107158449Y-37336379D01*
X107311774Y-37106911D01*
X107506911Y-36911774D01*
X107736379Y-36758449D01*
X107885733Y-36696585D01*
X107991343Y-36652839D01*
X108081567Y-36634893D01*
X108262012Y-36599000D01*
X108537988Y-36599000D01*
X108718433Y-36634893D01*
X108718433Y-36634893D01*
G37*
G36*
X134218433Y-36634893D02*
X134308657Y-36652839D01*
X134414267Y-36696585D01*
X134563621Y-36758449D01*
X134793089Y-36911774D01*
X134988226Y-37106911D01*
X135141551Y-37336379D01*
X135247161Y-37591344D01*
X135301000Y-37862012D01*
X135301000Y-38137988D01*
X135247161Y-38408656D01*
X135141551Y-38663621D01*
X134988226Y-38893089D01*
X134793089Y-39088226D01*
X134563621Y-39241551D01*
X134414267Y-39303415D01*
X134308657Y-39347161D01*
X134218433Y-39365107D01*
X134037988Y-39401000D01*
X133762012Y-39401000D01*
X133581567Y-39365107D01*
X133491343Y-39347161D01*
X133385733Y-39303415D01*
X133236379Y-39241551D01*
X133006911Y-39088226D01*
X132811774Y-38893089D01*
X132658449Y-38663621D01*
X132552839Y-38408656D01*
X132499000Y-38137988D01*
X132499000Y-37862012D01*
X132552839Y-37591344D01*
X132658449Y-37336379D01*
X132811774Y-37106911D01*
X133006911Y-36911774D01*
X133236379Y-36758449D01*
X133385733Y-36696585D01*
X133491343Y-36652839D01*
X133581567Y-36634893D01*
X133762012Y-36599000D01*
X134037988Y-36599000D01*
X134218433Y-36634893D01*
X134218433Y-36634893D01*
G37*
M02*
