M48
METRIC,TZ
T1C0.400
T2C0.500
T3C0.800
T4C0.900
T5C2.700
%
G90
G05
T1
X107080Y-94850
X108133Y-71887
X108600Y-101860
X108666Y-46726
X108793Y-85532
X110221Y-36241
X110269Y-64706
X111250Y-94390
X112103Y-80720
X112771Y-74493
X114315Y-61656
X114447Y-70185
X115001Y-55997
X115479Y-76154
X115529Y-67076
X116261Y-91039
X116291Y-83856
X116413Y-55997
X117485Y-78908
X118709Y-72705
X121173Y-64486
X122301Y-72370
X123590Y-87020
X123688Y-57617
X124668Y-68245
X124690Y-85890
X125730Y-84020
X126009Y-72405
X130282Y-64983
X130370Y-84020
X130551Y-39152
X131034Y-79497
X131070Y-93670
X131079Y-45928
X131740Y-78034
X133452Y-85715
X133452Y-91694
X133990Y-101860
X134508Y-42769
X135219Y-61300
T2
X109121Y-53933
X109121Y-57933
T3
X109743Y-80421
X109743Y-82961
T4
X107087Y-64198
X107087Y-67198
T5
X133900Y-97000
X108400Y-38000
X108400Y-97000
X133900Y-38000
T2
X106421Y-53058G85X107121Y-53058
G05
X106421Y-58808G85X107121Y-58808
G05
T0
M30
