G04 #@! TF.GenerationSoftware,KiCad,Pcbnew,5.0.2-bee76a0~70~ubuntu16.04.1*
G04 #@! TF.CreationDate,2020-11-05T23:54:09+01:00*
G04 #@! TF.ProjectId,BTSerialClient,42545365-7269-4616-9c43-6c69656e742e,rev?*
G04 #@! TF.SameCoordinates,Original*
G04 #@! TF.FileFunction,Legend,Bot*
G04 #@! TF.FilePolarity,Positive*
%FSLAX46Y46*%
G04 Gerber Fmt 4.6, Leading zero omitted, Abs format (unit mm)*
G04 Created by KiCad (PCBNEW 5.0.2-bee76a0~70~ubuntu16.04.1) date tor  5 nov 2020 23:54:09*
%MOMM*%
%LPD*%
G01*
G04 APERTURE LIST*
%ADD10C,0.150000*%
G04 APERTURE END LIST*
D10*
G04 #@! TO.C,BT1*
X107943240Y-85291480D02*
X107943240Y-83291480D01*
X108743240Y-85291480D02*
X108743240Y-84491480D01*
X107943240Y-83291480D02*
X107143240Y-83291480D01*
X107943240Y-78091480D02*
X107943240Y-79491480D01*
X107943240Y-79491480D02*
X107943240Y-79691480D01*
X107943240Y-79691480D02*
X107943240Y-79891480D01*
X107943240Y-79891480D02*
X107343240Y-79891480D01*
X107343240Y-79891480D02*
X107143240Y-79891480D01*
X107143240Y-79891480D02*
X107343240Y-79891480D01*
X108743240Y-84491480D02*
X111943240Y-84491480D01*
X111943240Y-84491480D02*
X111943240Y-78891480D01*
X111943240Y-78891480D02*
X108943240Y-78891480D01*
X108943240Y-78891480D02*
X108943240Y-78091480D01*
X112743240Y-85291480D02*
X112743240Y-78091480D01*
X112743240Y-78091480D02*
X107143240Y-78091480D01*
X107143240Y-78091480D02*
X107143240Y-85291480D01*
X107143240Y-85291480D02*
X112743240Y-85291480D01*
X111748011Y-76074965D02*
X111795630Y-76217822D01*
X111843249Y-76265441D01*
X111938487Y-76313060D01*
X112081344Y-76313060D01*
X112176582Y-76265441D01*
X112224201Y-76217822D01*
X112271820Y-76122584D01*
X112271820Y-75741632D01*
X111271820Y-75741632D01*
X111271820Y-76074965D01*
X111319440Y-76170203D01*
X111367059Y-76217822D01*
X111462297Y-76265441D01*
X111557535Y-76265441D01*
X111652773Y-76217822D01*
X111700392Y-76170203D01*
X111748011Y-76074965D01*
X111748011Y-75741632D01*
X111271820Y-76598775D02*
X111271820Y-77170203D01*
X112271820Y-76884489D02*
X111271820Y-76884489D01*
X112271820Y-78027346D02*
X112271820Y-77455918D01*
X112271820Y-77741632D02*
X111271820Y-77741632D01*
X111414678Y-77646394D01*
X111509916Y-77551156D01*
X111557535Y-77455918D01*
G04 #@! TD*
M02*
