M48
; DRILL file {KiCad 5.1.10-88a1d61d58~88~ubuntu20.04.1} date Sun May  9 22:10:30 2021
; FORMAT={-:-/ absolute / metric / decimal}
; #@! TF.CreationDate,2021-05-09T22:10:30+02:00
; #@! TF.GenerationSoftware,Kicad,Pcbnew,5.1.10-88a1d61d58~88~ubuntu20.04.1
; #@! TF.FileFunction,Plated,1,2,PTH
FMAT,2
METRIC
T1C1.000
T2C3.200
%
G90
G05
T1
X127.16Y-51.375
X127.16Y-54.145
X127.16Y-56.915
X127.16Y-59.685
X130.0Y-49.99
X130.0Y-52.76
X130.0Y-55.53
X130.0Y-58.3
X130.0Y-61.07
X152.6Y-50.0
X152.6Y-52.77
X152.6Y-55.54
X152.6Y-58.31
X152.6Y-61.08
X155.44Y-51.385
X155.44Y-54.155
X155.44Y-56.925
X155.44Y-59.695
T2
X128.58Y-43.03
X128.58Y-68.03
X154.02Y-43.04
X154.02Y-68.04
T0
M30
