%TF.GenerationSoftware,KiCad,Pcbnew,6.0.7-f9a2dced07~116~ubuntu20.04.1*%
%TF.CreationDate,2022-09-18T16:57:55+02:00*%
%TF.ProjectId,SRRReceiver,53525252-6563-4656-9976-65722e6b6963,rev?*%
%TF.SameCoordinates,Original*%
%TF.FileFunction,Copper,L4,Bot*%
%TF.FilePolarity,Positive*%
%FSLAX46Y46*%
G04 Gerber Fmt 4.6, Leading zero omitted, Abs format (unit mm)*
G04 Created by KiCad (PCBNEW 6.0.7-f9a2dced07~116~ubuntu20.04.1) date 2022-09-18 16:57:55*
%MOMM*%
%LPD*%
G01*
G04 APERTURE LIST*
G04 Aperture macros list*
%AMRoundRect*
0 Rectangle with rounded corners*
0 $1 Rounding radius*
0 $2 $3 $4 $5 $6 $7 $8 $9 X,Y pos of 4 corners*
0 Add a 4 corners polygon primitive as box body*
4,1,4,$2,$3,$4,$5,$6,$7,$8,$9,$2,$3,0*
0 Add four circle primitives for the rounded corners*
1,1,$1+$1,$2,$3*
1,1,$1+$1,$4,$5*
1,1,$1+$1,$6,$7*
1,1,$1+$1,$8,$9*
0 Add four rect primitives between the rounded corners*
20,1,$1+$1,$2,$3,$4,$5,0*
20,1,$1+$1,$4,$5,$6,$7,0*
20,1,$1+$1,$6,$7,$8,$9,0*
20,1,$1+$1,$8,$9,$2,$3,0*%
G04 Aperture macros list end*
%TA.AperFunction,SMDPad,CuDef*%
%ADD10R,0.450000X1.475000*%
%TD*%
%TA.AperFunction,ComponentPad*%
%ADD11R,0.500000X0.900000*%
%TD*%
%TA.AperFunction,SMDPad,CuDef*%
%ADD12R,0.300000X1.250000*%
%TD*%
%TA.AperFunction,SMDPad,CuDef*%
%ADD13R,2.000000X3.000000*%
%TD*%
%TA.AperFunction,SMDPad,CuDef*%
%ADD14RoundRect,0.140000X-0.140000X-0.170000X0.140000X-0.170000X0.140000X0.170000X-0.140000X0.170000X0*%
%TD*%
%TA.AperFunction,ViaPad*%
%ADD15C,0.500000*%
%TD*%
%TA.AperFunction,Conductor*%
%ADD16C,0.250000*%
%TD*%
G04 APERTURE END LIST*
D10*
%TO.P,IC1,1,PB7/PB8*%
%TO.N,SPI2_MOSI*%
X123025000Y-96238000D03*
%TO.P,IC1,2,PB9/PC14-OSC32_IN*%
%TO.N,SPI2_NSS*%
X122375000Y-96238000D03*
%TO.P,IC1,3,PC15-OSC32_OUT*%
%TO.N,unconnected-(IC1-Pad3)*%
X121725000Y-96238000D03*
%TO.P,IC1,4,VDD/VDDA*%
%TO.N,VDD*%
X121075000Y-96238000D03*
%TO.P,IC1,5,VSS/VSSA*%
%TO.N,GND*%
X120425000Y-96238000D03*
%TO.P,IC1,6,NRST*%
%TO.N,NRST*%
X119775000Y-96238000D03*
%TO.P,IC1,7,PA0*%
%TO.N,SPI2_SCK*%
X119125000Y-96238000D03*
%TO.P,IC1,8,PA1*%
%TO.N,GD0_INT_2*%
X118475000Y-96238000D03*
%TO.P,IC1,9,PA2*%
%TO.N,USART2_TX*%
X117825000Y-96238000D03*
%TO.P,IC1,10,PA3*%
%TO.N,USART2_RX*%
X117175000Y-96238000D03*
%TO.P,IC1,11,PA4*%
%TO.N,GD0_INT_1*%
X117175000Y-90362000D03*
%TO.P,IC1,12,PA5*%
%TO.N,SPI1_SCK*%
X117825000Y-90362000D03*
%TO.P,IC1,13,PA6*%
%TO.N,SPI1_MISO*%
X118475000Y-90362000D03*
%TO.P,IC1,14,PA7*%
%TO.N,SPI1_MOSI*%
X119125000Y-90362000D03*
%TO.P,IC1,15,PB0/PB1/PB2/PA8*%
%TO.N,SPI1_NSS*%
X119775000Y-90362000D03*
%TO.P,IC1,16,PA11[PA9]*%
%TO.N,I2C2_SCL*%
X120425000Y-90362000D03*
%TO.P,IC1,17,PA12[PA10]*%
%TO.N,I2C2_SDA*%
X121075000Y-90362000D03*
%TO.P,IC1,18,PA13*%
%TO.N,SYS_SWDIO*%
X121725000Y-90362000D03*
%TO.P,IC1,19,PA15/PA14-BOOT0*%
%TO.N,SYS_SWCLK*%
X122375000Y-90362000D03*
%TO.P,IC1,20,PB3/PB4/PB5/PB6*%
%TO.N,SPI2_MISO*%
X123025000Y-90362000D03*
%TD*%
D11*
%TO.P,AE2,2,Shield*%
%TO.N,GND*%
X133000000Y-82550000D03*
%TD*%
%TO.P,AE1,2,Shield*%
%TO.N,GND*%
X115600000Y-95900000D03*
%TD*%
D12*
%TO.P,J1,1,Pin_1*%
%TO.N,VDD*%
X124500000Y-87350000D03*
%TO.P,J1,2,Pin_2*%
%TO.N,I2C2_SCL*%
X125000000Y-87350000D03*
%TO.P,J1,3,Pin_3*%
%TO.N,I2C2_SDA*%
X125500000Y-87350000D03*
%TO.P,J1,4,Pin_4*%
%TO.N,SYS_SWDIO*%
X126000000Y-87350000D03*
%TO.P,J1,5,Pin_5*%
%TO.N,SYS_SWCLK*%
X126500000Y-87350000D03*
%TO.P,J1,6,Pin_6*%
%TO.N,USART2_RX*%
X127000000Y-87350000D03*
%TO.P,J1,7,Pin_7*%
%TO.N,USART2_TX*%
X127500000Y-87350000D03*
%TO.P,J1,8,Pin_8*%
%TO.N,NRST*%
X128000000Y-87350000D03*
%TO.P,J1,9,Pin_9*%
%TO.N,GND*%
X128500000Y-87350000D03*
%TO.P,J1,10,Pin_10*%
%TO.N,unconnected-(J1-Pad10)*%
X129000000Y-87350000D03*
D13*
%TO.P,J1,MP*%
%TO.N,N/C*%
X122960000Y-85030000D03*
X130540000Y-85030000D03*
%TD*%
D14*
%TO.P,C9,1*%
%TO.N,GND*%
X119920000Y-99000000D03*
%TO.P,C9,2*%
%TO.N,VDD*%
X120880000Y-99000000D03*
%TD*%
%TO.P,C8,1*%
%TO.N,GND*%
X119720000Y-97900000D03*
%TO.P,C8,2*%
%TO.N,VDD*%
X120680000Y-97900000D03*
%TD*%
D15*
%TO.N,GND*%
X130300000Y-79250000D03*
X120300000Y-83300000D03*
X130300000Y-99300000D03*
X127100000Y-96000000D03*
X130250000Y-80400000D03*
X116500000Y-98400000D03*
X128700000Y-85700000D03*
X126850000Y-80350000D03*
X116400000Y-92600000D03*
X118874500Y-98600000D03*
X131932578Y-87123938D03*
X125100000Y-79200000D03*
X124200000Y-90700000D03*
X128750000Y-81250000D03*
X116600000Y-79200000D03*
X126300000Y-79200000D03*
X117800000Y-92000000D03*
X116400000Y-91500000D03*
X116075500Y-82700000D03*
X131800000Y-94600000D03*
X121150000Y-83300000D03*
X125650000Y-85350000D03*
X127700000Y-79200000D03*
X118000000Y-79200000D03*
X119900000Y-79200000D03*
X116500000Y-97400000D03*
X131600000Y-81500000D03*
X127850000Y-86250000D03*
X121150000Y-84200000D03*
X116600000Y-89000000D03*
X116400000Y-90400000D03*
X129968767Y-92881233D03*
X122500000Y-93900000D03*
X131800000Y-91500000D03*
X128100000Y-96000000D03*
X118600000Y-86200000D03*
X131800000Y-90400000D03*
X131650000Y-79250000D03*
X131100000Y-89300000D03*
X116300000Y-94900000D03*
X131989502Y-86000000D03*
X131650000Y-80400000D03*
X117600000Y-99400000D03*
X116500000Y-99400000D03*
X132000000Y-99200000D03*
X128850000Y-82350000D03*
X116600000Y-80200000D03*
X130900000Y-97400000D03*
X117800000Y-80000000D03*
X122200000Y-79200000D03*
X116200000Y-86850000D03*
X120900000Y-91700000D03*
X120300000Y-84200000D03*
X118750000Y-94100000D03*
X127100000Y-95100000D03*
X130300000Y-91500000D03*
X131600000Y-82550000D03*
X128050000Y-81600000D03*
X132000000Y-98100000D03*
X121700000Y-98800000D03*
X131100000Y-88100000D03*
X129100000Y-79250000D03*
X127750000Y-80350000D03*
X117050000Y-92100000D03*
X123800000Y-79200000D03*
X127100000Y-91450000D03*
X128100000Y-95100000D03*
X120700000Y-93900000D03*
X131100000Y-98600000D03*
X125200000Y-82300000D03*
X121000000Y-79600000D03*
X129100000Y-90400000D03*
X129100000Y-80350000D03*
%TO.N,SPI2_MOSI*%
X129200000Y-97600000D03*
%TO.N,SPI2_NSS*%
X129300000Y-92400000D03*
%TO.N,VDD*%
X124409502Y-85550000D03*
X125400000Y-93200000D03*
X124600000Y-96300000D03*
X123450000Y-87750000D03*
X127300000Y-99100000D03*
X127068951Y-92198355D03*
X117800000Y-84600000D03*
X130635298Y-94764702D03*
X124600000Y-94500000D03*
X121522266Y-87122266D03*
X123637500Y-82387500D03*
X122500000Y-97900000D03*
X120700000Y-80778732D03*
%TO.N,SPI2_SCK*%
X130200000Y-97800000D03*
%TO.N,SPI1_SCK*%
X117775500Y-81000000D03*
%TO.N,SPI1_MISO*%
X117000000Y-81800000D03*
%TO.N,SPI1_NSS*%
X119509436Y-87121902D03*
%TO.N,SPI2_MISO*%
X130500000Y-96100000D03*
X124000000Y-89950000D03*
%TO.N,SPI1_MOSI*%
X119400000Y-81350000D03*
%TO.N,GD0_INT_2*%
X129100000Y-93700000D03*
X117500000Y-97700000D03*
%TO.N,GD0_INT_1*%
X117236803Y-89289456D03*
X119500000Y-85650000D03*
%TD*%
D16*
%TO.N,GND*%
X119720000Y-97800000D02*
X119920000Y-98000000D01*
X120425000Y-96238000D02*
X120425000Y-97075000D01*
X119720000Y-97780000D02*
X119720000Y-97900000D01*
X120425000Y-97075000D02*
X119720000Y-97780000D01*
X119920000Y-98000000D02*
X119920000Y-98900000D01*
%TO.N,SPI2_MOSI*%
X125137000Y-98350000D02*
X123025000Y-96238000D01*
X128450000Y-98350000D02*
X125137000Y-98350000D01*
X129200000Y-97600000D02*
X128450000Y-98350000D01*
%TO.N,SPI2_NSS*%
X127700000Y-92400000D02*
X126175000Y-93925000D01*
X122475000Y-95175500D02*
X122375000Y-95275500D01*
X124325000Y-93925000D02*
X123074500Y-95175500D01*
X122375000Y-95275500D02*
X122375000Y-96238000D01*
X126175000Y-93925000D02*
X124325000Y-93925000D01*
X123074500Y-95175500D02*
X122475000Y-95175500D01*
X129300000Y-92400000D02*
X127700000Y-92400000D01*
%TO.N,VDD*%
X124600000Y-96300000D02*
X123950000Y-95650000D01*
X120880000Y-98000000D02*
X120880000Y-98900000D01*
X121075000Y-97405000D02*
X120680000Y-97800000D01*
X123950000Y-95150000D02*
X124600000Y-94500000D01*
X123500000Y-87700000D02*
X124500000Y-87700000D01*
X123450000Y-87750000D02*
X123500000Y-87700000D01*
X121075000Y-96238000D02*
X121075000Y-97405000D01*
X120680000Y-97800000D02*
X120880000Y-98000000D01*
X120680000Y-97900000D02*
X122500000Y-97900000D01*
X123950000Y-95650000D02*
X123950000Y-95150000D01*
%TO.N,NRST*%
X119775000Y-93697792D02*
X120272792Y-93200000D01*
X120272792Y-93200000D02*
X124422361Y-93200000D01*
X119775000Y-96238000D02*
X119775000Y-93697792D01*
X124422361Y-93200000D02*
X128000000Y-89622361D01*
X128000000Y-89622361D02*
X128000000Y-87575000D01*
%TO.N,SPI2_SCK*%
X118300000Y-98025500D02*
X119125000Y-97200500D01*
X119075000Y-99675000D02*
X118300000Y-98900000D01*
X119125000Y-97200500D02*
X119125000Y-96238000D01*
X128325000Y-99675000D02*
X119075000Y-99675000D01*
X118300000Y-98900000D02*
X118300000Y-98025500D01*
X130200000Y-97800000D02*
X128325000Y-99675000D01*
%TO.N,USART2_TX*%
X127500000Y-89485965D02*
X127500000Y-87575000D01*
X117825000Y-96238000D02*
X117825000Y-94111396D01*
X124235965Y-92750000D02*
X127500000Y-89485965D01*
X117825000Y-94111396D02*
X119186396Y-92750000D01*
X119186396Y-92750000D02*
X124235965Y-92750000D01*
%TO.N,USART2_RX*%
X117175000Y-96238000D02*
X117175000Y-94125000D01*
X117175000Y-94125000D02*
X119000000Y-92300000D01*
X127000000Y-89349569D02*
X127000000Y-87575000D01*
X119000000Y-92300000D02*
X124049569Y-92300000D01*
X124049569Y-92300000D02*
X127000000Y-89349569D01*
%TO.N,SPI1_SCK*%
X117825000Y-90362000D02*
X117825000Y-88925000D01*
X116800000Y-87900000D02*
X116800000Y-86498431D01*
X116900000Y-81000000D02*
X117775500Y-81000000D01*
X116325000Y-83553130D02*
X116650000Y-83228130D01*
X116650000Y-83228130D02*
X116650000Y-82263173D01*
X116800000Y-86498431D02*
X116325000Y-86023431D01*
X116650000Y-82263173D02*
X116425000Y-82038173D01*
X117825000Y-88925000D02*
X116800000Y-87900000D01*
X116425000Y-82038173D02*
X116425000Y-81475000D01*
X116325000Y-86023431D02*
X116325000Y-83553130D01*
X116425000Y-81475000D02*
X116900000Y-81000000D01*
%TO.N,SPI1_MISO*%
X117250000Y-86312035D02*
X117250000Y-87650000D01*
X117100000Y-81900000D02*
X117100000Y-83414526D01*
X116775000Y-85837035D02*
X117250000Y-86312035D01*
X117100000Y-83414526D02*
X116775000Y-83739526D01*
X118475000Y-88875000D02*
X118475000Y-90362000D01*
X117000000Y-81800000D02*
X117100000Y-81900000D01*
X117250000Y-87650000D02*
X118475000Y-88875000D01*
X116775000Y-83739526D02*
X116775000Y-85837035D01*
%TO.N,SPI1_NSS*%
X119509436Y-87121902D02*
X119775000Y-87387466D01*
X119775000Y-87387466D02*
X119775000Y-90362000D01*
%TO.N,I2C2_SCL*%
X125000000Y-88200000D02*
X124875000Y-88325000D01*
X124875000Y-88325000D02*
X121238604Y-88325000D01*
X121238604Y-88325000D02*
X120425000Y-89138604D01*
X120425000Y-89138604D02*
X120425000Y-90362000D01*
X125000000Y-87375000D02*
X125000000Y-88200000D01*
%TO.N,I2C2_SDA*%
X125500000Y-87575000D02*
X125500000Y-88500000D01*
X125500000Y-88500000D02*
X125200000Y-88800000D01*
X121400000Y-88800000D02*
X121075000Y-89125000D01*
X125200000Y-88800000D02*
X121400000Y-88800000D01*
X121075000Y-89125000D02*
X121075000Y-90362000D01*
%TO.N,SYS_SWDIO*%
X126000000Y-88650000D02*
X126000000Y-87700000D01*
X121874500Y-89250000D02*
X125400000Y-89250000D01*
X125400000Y-89250000D02*
X126000000Y-88650000D01*
X121725000Y-89399500D02*
X121874500Y-89250000D01*
X121725000Y-90362000D02*
X121725000Y-89399500D01*
%TO.N,SYS_SWCLK*%
X122375000Y-90362000D02*
X122375000Y-91324500D01*
X124288673Y-91424500D02*
X126500000Y-89213173D01*
X122475000Y-91424500D02*
X124288673Y-91424500D01*
X122375000Y-91324500D02*
X122475000Y-91424500D01*
X126500000Y-89213173D02*
X126500000Y-87575000D01*
%TO.N,SPI2_MISO*%
X123588000Y-90362000D02*
X123025000Y-90362000D01*
X124000000Y-89950000D02*
X123588000Y-90362000D01*
%TO.N,SPI1_MOSI*%
X119125000Y-88825000D02*
X119125000Y-90362000D01*
X117225000Y-83925922D02*
X117225000Y-85575000D01*
X117700000Y-86050000D02*
X117700000Y-87400000D01*
X117225000Y-85575000D02*
X117700000Y-86050000D01*
X117700000Y-87400000D02*
X119125000Y-88825000D01*
X119400000Y-81750922D02*
X117225000Y-83925922D01*
X119400000Y-81350000D02*
X119400000Y-81750922D01*
%TO.N,GD0_INT_2*%
X117975500Y-97700000D02*
X117500000Y-97700000D01*
X118475000Y-96238000D02*
X118475000Y-97200500D01*
X118475000Y-97200500D02*
X117975500Y-97700000D01*
%TO.N,GD0_INT_1*%
X117175000Y-90362000D02*
X117175000Y-89351259D01*
X117175000Y-89351259D02*
X117236803Y-89289456D01*
%TD*%
%TA.AperFunction,Conductor*%
%TO.N,GND*%
G36*
X132541121Y-78621002D02*
G01*
X132587614Y-78674658D01*
X132599000Y-78727000D01*
X132599000Y-81399802D01*
X132598918Y-81400000D01*
X132599000Y-81400198D01*
X132599235Y-81400765D01*
X132600000Y-81401082D01*
X132600198Y-81401000D01*
X133074000Y-81401000D01*
X133142121Y-81421002D01*
X133188614Y-81474658D01*
X133200000Y-81527000D01*
X133200000Y-96873000D01*
X133179998Y-96941121D01*
X133126342Y-96987614D01*
X133074000Y-96999000D01*
X132600198Y-96999000D01*
X132600000Y-96998918D01*
X132599802Y-96999000D01*
X132599235Y-96999235D01*
X132598918Y-97000000D01*
X132599000Y-97000198D01*
X132599000Y-99673000D01*
X132578998Y-99741121D01*
X132525342Y-99787614D01*
X132473000Y-99799000D01*
X128965516Y-99799000D01*
X128897395Y-99778998D01*
X128850902Y-99725342D01*
X128840798Y-99655068D01*
X128870292Y-99590488D01*
X128876421Y-99583905D01*
X129447282Y-99013045D01*
X130172789Y-98287538D01*
X130235101Y-98253512D01*
X130246310Y-98251599D01*
X130247277Y-98251478D01*
X130256255Y-98251643D01*
X130318505Y-98234672D01*
X130372092Y-98220062D01*
X130372093Y-98220062D01*
X130380755Y-98217700D01*
X130388405Y-98213003D01*
X130388407Y-98213002D01*
X130483072Y-98154878D01*
X130483075Y-98154875D01*
X130490724Y-98150179D01*
X130496750Y-98143522D01*
X130571300Y-98061161D01*
X130571303Y-98061157D01*
X130577322Y-98054507D01*
X130633588Y-97938375D01*
X130637367Y-97915917D01*
X130654190Y-97815917D01*
X130654997Y-97811120D01*
X130655133Y-97800000D01*
X130643627Y-97719658D01*
X130638112Y-97681145D01*
X130638111Y-97681142D01*
X130636839Y-97672259D01*
X130630077Y-97657386D01*
X130587145Y-97562962D01*
X130587143Y-97562959D01*
X130583428Y-97554788D01*
X130548529Y-97514286D01*
X130505051Y-97463826D01*
X130505049Y-97463824D01*
X130499193Y-97457028D01*
X130390906Y-97386841D01*
X130382311Y-97384271D01*
X130382310Y-97384270D01*
X130275874Y-97352438D01*
X130275872Y-97352438D01*
X130267273Y-97349866D01*
X130258298Y-97349811D01*
X130258297Y-97349811D01*
X130203641Y-97349477D01*
X130138231Y-97349078D01*
X130089652Y-97362962D01*
X130022786Y-97382072D01*
X130022784Y-97382073D01*
X130014155Y-97384539D01*
X129905019Y-97453399D01*
X129885236Y-97475799D01*
X129849656Y-97516085D01*
X129789570Y-97553903D01*
X129718576Y-97553232D01*
X129659215Y-97514286D01*
X129636942Y-97472978D01*
X129636839Y-97472259D01*
X129602179Y-97396028D01*
X129587145Y-97362962D01*
X129587143Y-97362959D01*
X129583428Y-97354788D01*
X129537943Y-97302000D01*
X129505051Y-97263826D01*
X129505049Y-97263824D01*
X129499193Y-97257028D01*
X129390906Y-97186841D01*
X129382311Y-97184271D01*
X129382310Y-97184270D01*
X129275874Y-97152438D01*
X129275872Y-97152438D01*
X129267273Y-97149866D01*
X129258298Y-97149811D01*
X129258297Y-97149811D01*
X129203641Y-97149477D01*
X129138231Y-97149078D01*
X129108861Y-97157472D01*
X129022786Y-97182072D01*
X129022784Y-97182073D01*
X129014155Y-97184539D01*
X128905019Y-97253399D01*
X128899076Y-97260128D01*
X128899075Y-97260129D01*
X128877517Y-97284539D01*
X128819596Y-97350122D01*
X128815782Y-97358245D01*
X128815781Y-97358247D01*
X128800065Y-97391721D01*
X128764754Y-97466932D01*
X128763374Y-97475796D01*
X128763373Y-97475799D01*
X128751166Y-97554201D01*
X128720922Y-97618433D01*
X128715762Y-97623911D01*
X128533416Y-97806258D01*
X128352079Y-97987595D01*
X128289766Y-98021620D01*
X128262983Y-98024500D01*
X125324016Y-98024500D01*
X125255895Y-98004498D01*
X125234921Y-97987595D01*
X123487405Y-96240079D01*
X123453379Y-96177767D01*
X123450500Y-96150984D01*
X123450500Y-95906079D01*
X123470502Y-95837958D01*
X123524158Y-95791465D01*
X123594432Y-95781361D01*
X123659012Y-95810855D01*
X123685620Y-95843080D01*
X123696806Y-95862455D01*
X123705251Y-95869541D01*
X123725682Y-95886685D01*
X123733785Y-95894111D01*
X124116237Y-96276563D01*
X124150263Y-96338875D01*
X124152077Y-96349314D01*
X124161633Y-96422394D01*
X124171258Y-96444268D01*
X124201709Y-96513473D01*
X124213605Y-96540510D01*
X124219382Y-96547383D01*
X124219383Y-96547384D01*
X124222963Y-96551643D01*
X124296639Y-96639291D01*
X124404060Y-96710796D01*
X124527233Y-96749278D01*
X124536203Y-96749442D01*
X124536207Y-96749443D01*
X124594942Y-96750519D01*
X124656255Y-96751643D01*
X124718505Y-96734672D01*
X124772092Y-96720062D01*
X124772093Y-96720062D01*
X124780755Y-96717700D01*
X124788405Y-96713003D01*
X124788407Y-96713002D01*
X124883072Y-96654878D01*
X124883075Y-96654875D01*
X124890724Y-96650179D01*
X124896750Y-96643522D01*
X124971300Y-96561161D01*
X124971303Y-96561157D01*
X124977322Y-96554507D01*
X125033588Y-96438375D01*
X125054997Y-96311120D01*
X125055133Y-96300000D01*
X125042744Y-96213489D01*
X125038112Y-96181145D01*
X125038111Y-96181142D01*
X125036839Y-96172259D01*
X125001457Y-96094440D01*
X130044901Y-96094440D01*
X130046065Y-96103342D01*
X130046065Y-96103345D01*
X130060468Y-96213489D01*
X130060469Y-96213493D01*
X130061633Y-96222394D01*
X130113605Y-96340510D01*
X130119382Y-96347383D01*
X130119383Y-96347384D01*
X130188431Y-96429526D01*
X130196639Y-96439291D01*
X130304060Y-96510796D01*
X130372858Y-96532290D01*
X130418124Y-96546432D01*
X130427233Y-96549278D01*
X130436203Y-96549442D01*
X130436207Y-96549443D01*
X130494942Y-96550519D01*
X130556255Y-96551643D01*
X130627240Y-96532290D01*
X130672092Y-96520062D01*
X130672093Y-96520062D01*
X130680755Y-96517700D01*
X130688405Y-96513003D01*
X130688407Y-96513002D01*
X130783072Y-96454878D01*
X130783075Y-96454875D01*
X130790724Y-96450179D01*
X130797224Y-96442998D01*
X130871300Y-96361161D01*
X130871303Y-96361157D01*
X130877322Y-96354507D01*
X130933588Y-96238375D01*
X130946086Y-96164090D01*
X130954190Y-96115917D01*
X130954997Y-96111120D01*
X130955133Y-96100000D01*
X130936839Y-95972259D01*
X130906749Y-95906079D01*
X130887145Y-95862962D01*
X130887143Y-95862959D01*
X130883428Y-95854788D01*
X130820160Y-95781361D01*
X130805051Y-95763826D01*
X130805049Y-95763824D01*
X130799193Y-95757028D01*
X130690906Y-95686841D01*
X130682311Y-95684271D01*
X130682310Y-95684270D01*
X130575874Y-95652438D01*
X130575872Y-95652438D01*
X130567273Y-95649866D01*
X130558298Y-95649811D01*
X130558297Y-95649811D01*
X130503641Y-95649477D01*
X130438231Y-95649078D01*
X130426475Y-95652438D01*
X130322786Y-95682072D01*
X130322784Y-95682073D01*
X130314155Y-95684539D01*
X130205019Y-95753399D01*
X130119596Y-95850122D01*
X130115782Y-95858245D01*
X130115781Y-95858247D01*
X130100772Y-95890216D01*
X130064754Y-95966932D01*
X130063374Y-95975798D01*
X130046282Y-96085567D01*
X130046282Y-96085571D01*
X130044901Y-96094440D01*
X125001457Y-96094440D01*
X124987145Y-96062962D01*
X124987143Y-96062959D01*
X124983428Y-96054788D01*
X124957625Y-96024842D01*
X124905051Y-95963826D01*
X124905049Y-95963824D01*
X124899193Y-95957028D01*
X124790906Y-95886841D01*
X124782311Y-95884271D01*
X124782310Y-95884270D01*
X124675874Y-95852438D01*
X124675872Y-95852438D01*
X124667273Y-95849866D01*
X124658297Y-95849811D01*
X124649417Y-95848484D01*
X124649747Y-95846279D01*
X124593578Y-95829410D01*
X124573254Y-95812928D01*
X124312405Y-95552079D01*
X124278379Y-95489767D01*
X124275500Y-95462984D01*
X124275500Y-95337016D01*
X124295502Y-95268895D01*
X124312405Y-95247921D01*
X124572788Y-94987538D01*
X124635100Y-94953512D01*
X124646309Y-94951599D01*
X124647277Y-94951478D01*
X124656255Y-94951643D01*
X124763861Y-94922306D01*
X124772092Y-94920062D01*
X124772093Y-94920062D01*
X124780755Y-94917700D01*
X124788405Y-94913003D01*
X124788407Y-94913002D01*
X124883072Y-94854878D01*
X124883075Y-94854875D01*
X124890724Y-94850179D01*
X124958029Y-94775822D01*
X124971300Y-94761161D01*
X124971303Y-94761157D01*
X124973127Y-94759142D01*
X130180199Y-94759142D01*
X130181363Y-94768044D01*
X130181363Y-94768047D01*
X130195766Y-94878191D01*
X130195767Y-94878195D01*
X130196931Y-94887096D01*
X130200548Y-94895316D01*
X130244576Y-94995377D01*
X130248903Y-95005212D01*
X130254680Y-95012085D01*
X130254681Y-95012086D01*
X130277152Y-95038818D01*
X130331937Y-95103993D01*
X130439358Y-95175498D01*
X130562531Y-95213980D01*
X130571501Y-95214144D01*
X130571505Y-95214145D01*
X130630240Y-95215221D01*
X130691553Y-95216345D01*
X130766624Y-95195878D01*
X130807390Y-95184764D01*
X130807391Y-95184764D01*
X130816053Y-95182402D01*
X130823703Y-95177705D01*
X130823705Y-95177704D01*
X130918370Y-95119580D01*
X130918373Y-95119577D01*
X130926022Y-95114881D01*
X130935006Y-95104956D01*
X131006598Y-95025863D01*
X131006601Y-95025859D01*
X131012620Y-95019209D01*
X131068886Y-94903077D01*
X131073451Y-94875946D01*
X131089488Y-94780619D01*
X131090295Y-94775822D01*
X131090431Y-94764702D01*
X131072137Y-94636961D01*
X131018726Y-94519490D01*
X130934491Y-94421730D01*
X130826204Y-94351543D01*
X130817609Y-94348973D01*
X130817608Y-94348972D01*
X130711172Y-94317140D01*
X130711170Y-94317140D01*
X130702571Y-94314568D01*
X130693596Y-94314513D01*
X130693595Y-94314513D01*
X130638939Y-94314179D01*
X130573529Y-94313780D01*
X130511491Y-94331511D01*
X130458084Y-94346774D01*
X130458082Y-94346775D01*
X130449453Y-94349241D01*
X130340317Y-94418101D01*
X130254894Y-94514824D01*
X130251080Y-94522947D01*
X130251079Y-94522949D01*
X130225092Y-94578300D01*
X130200052Y-94631634D01*
X130190924Y-94690260D01*
X130181580Y-94750269D01*
X130181580Y-94750273D01*
X130180199Y-94759142D01*
X124973127Y-94759142D01*
X124977322Y-94754507D01*
X125033588Y-94638375D01*
X125054997Y-94511120D01*
X125055133Y-94500000D01*
X125040004Y-94394361D01*
X125050146Y-94324095D01*
X125096669Y-94270465D01*
X125164731Y-94250500D01*
X126155290Y-94250500D01*
X126166272Y-94250980D01*
X126192820Y-94253303D01*
X126192822Y-94253303D01*
X126203807Y-94254264D01*
X126240215Y-94244508D01*
X126250942Y-94242130D01*
X126254301Y-94241538D01*
X126288045Y-94235588D01*
X126297590Y-94230077D01*
X126300866Y-94228885D01*
X126304034Y-94227408D01*
X126314684Y-94224554D01*
X126345544Y-94202945D01*
X126354815Y-94197039D01*
X126377906Y-94183707D01*
X126387455Y-94178194D01*
X126411685Y-94149317D01*
X126419111Y-94141215D01*
X126865886Y-93694440D01*
X128644901Y-93694440D01*
X128646065Y-93703342D01*
X128646065Y-93703345D01*
X128660468Y-93813489D01*
X128660469Y-93813493D01*
X128661633Y-93822394D01*
X128713605Y-93940510D01*
X128719382Y-93947383D01*
X128719383Y-93947384D01*
X128763076Y-93999363D01*
X128796639Y-94039291D01*
X128904060Y-94110796D01*
X128977461Y-94133728D01*
X129012612Y-94144710D01*
X129027233Y-94149278D01*
X129036203Y-94149442D01*
X129036207Y-94149443D01*
X129094942Y-94150519D01*
X129156255Y-94151643D01*
X129221966Y-94133728D01*
X129272092Y-94120062D01*
X129272093Y-94120062D01*
X129280755Y-94117700D01*
X129288405Y-94113003D01*
X129288407Y-94113002D01*
X129383072Y-94054878D01*
X129383075Y-94054875D01*
X129390724Y-94050179D01*
X129396750Y-94043522D01*
X129471300Y-93961161D01*
X129471303Y-93961157D01*
X129477322Y-93954507D01*
X129533588Y-93838375D01*
X129540766Y-93795713D01*
X129554190Y-93715917D01*
X129554997Y-93711120D01*
X129555065Y-93705530D01*
X129555074Y-93704859D01*
X129555074Y-93704853D01*
X129555133Y-93700000D01*
X129541802Y-93606915D01*
X129538112Y-93581145D01*
X129538111Y-93581142D01*
X129536839Y-93572259D01*
X129526299Y-93549077D01*
X129487145Y-93462962D01*
X129487143Y-93462959D01*
X129483428Y-93454788D01*
X129399193Y-93357028D01*
X129290906Y-93286841D01*
X129282311Y-93284271D01*
X129282310Y-93284270D01*
X129175874Y-93252438D01*
X129175872Y-93252438D01*
X129167273Y-93249866D01*
X129158298Y-93249811D01*
X129158297Y-93249811D01*
X129103641Y-93249477D01*
X129038231Y-93249078D01*
X129026475Y-93252438D01*
X128922786Y-93282072D01*
X128922784Y-93282073D01*
X128914155Y-93284539D01*
X128805019Y-93353399D01*
X128719596Y-93450122D01*
X128715782Y-93458245D01*
X128715781Y-93458247D01*
X128698579Y-93494886D01*
X128664754Y-93566932D01*
X128659683Y-93599500D01*
X128646282Y-93685567D01*
X128646282Y-93685571D01*
X128644901Y-93694440D01*
X126865886Y-93694440D01*
X127797921Y-92762405D01*
X127860233Y-92728379D01*
X127887016Y-92725500D01*
X128937820Y-92725500D01*
X129007639Y-92746613D01*
X129104060Y-92810796D01*
X129227233Y-92849278D01*
X129236203Y-92849442D01*
X129236207Y-92849443D01*
X129294942Y-92850519D01*
X129356255Y-92851643D01*
X129418505Y-92834671D01*
X129472092Y-92820062D01*
X129472093Y-92820062D01*
X129480755Y-92817700D01*
X129488405Y-92813003D01*
X129488407Y-92813002D01*
X129583072Y-92754878D01*
X129583075Y-92754875D01*
X129590724Y-92750179D01*
X129599274Y-92740733D01*
X129671300Y-92661161D01*
X129671303Y-92661157D01*
X129677322Y-92654507D01*
X129733588Y-92538375D01*
X129754997Y-92411120D01*
X129755133Y-92400000D01*
X129744961Y-92328969D01*
X129738112Y-92281145D01*
X129738111Y-92281142D01*
X129736839Y-92272259D01*
X129700709Y-92192795D01*
X129687145Y-92162962D01*
X129687143Y-92162959D01*
X129683428Y-92154788D01*
X129622701Y-92084310D01*
X129605051Y-92063826D01*
X129605049Y-92063824D01*
X129599193Y-92057028D01*
X129490906Y-91986841D01*
X129482311Y-91984271D01*
X129482310Y-91984270D01*
X129375874Y-91952438D01*
X129375872Y-91952438D01*
X129367273Y-91949866D01*
X129358298Y-91949811D01*
X129358297Y-91949811D01*
X129303641Y-91949477D01*
X129238231Y-91949078D01*
X129176193Y-91966809D01*
X129122786Y-91982072D01*
X129122784Y-91982073D01*
X129114155Y-91984539D01*
X129005019Y-92053399D01*
X129003353Y-92050759D01*
X128952652Y-92073372D01*
X128935829Y-92074500D01*
X127719710Y-92074500D01*
X127708728Y-92074020D01*
X127682180Y-92071697D01*
X127682178Y-92071697D01*
X127671193Y-92070736D01*
X127634785Y-92080492D01*
X127624057Y-92082870D01*
X127615890Y-92084310D01*
X127545331Y-92076440D01*
X127490227Y-92031673D01*
X127479310Y-92012375D01*
X127469919Y-91991721D01*
X127452379Y-91953143D01*
X127368144Y-91855383D01*
X127259857Y-91785196D01*
X127251262Y-91782626D01*
X127251261Y-91782625D01*
X127144825Y-91750793D01*
X127144823Y-91750793D01*
X127136224Y-91748221D01*
X127127249Y-91748166D01*
X127127248Y-91748166D01*
X127072592Y-91747832D01*
X127007182Y-91747433D01*
X126995426Y-91750793D01*
X126891737Y-91780427D01*
X126891735Y-91780428D01*
X126883106Y-91782894D01*
X126773970Y-91851754D01*
X126688547Y-91948477D01*
X126684733Y-91956600D01*
X126684732Y-91956602D01*
X126669328Y-91989412D01*
X126633705Y-92065287D01*
X126630825Y-92083785D01*
X126615233Y-92183922D01*
X126615233Y-92183926D01*
X126613852Y-92192795D01*
X126615016Y-92201697D01*
X126615016Y-92201700D01*
X126629419Y-92311844D01*
X126629420Y-92311848D01*
X126630584Y-92320749D01*
X126682556Y-92438865D01*
X126765590Y-92537646D01*
X126773067Y-92542623D01*
X126839543Y-92586873D01*
X126885166Y-92641270D01*
X126894137Y-92711697D01*
X126858819Y-92780855D01*
X126077079Y-93562595D01*
X126014767Y-93596621D01*
X125987984Y-93599500D01*
X125908130Y-93599500D01*
X125840009Y-93579498D01*
X125793516Y-93525842D01*
X125783412Y-93455568D01*
X125794738Y-93418562D01*
X125829674Y-93346454D01*
X125829675Y-93346452D01*
X125833588Y-93338375D01*
X125841627Y-93290595D01*
X125854190Y-93215917D01*
X125854997Y-93211120D01*
X125855133Y-93200000D01*
X125844727Y-93127338D01*
X125838112Y-93081145D01*
X125838111Y-93081142D01*
X125836839Y-93072259D01*
X125783428Y-92954788D01*
X125699193Y-92857028D01*
X125590906Y-92786841D01*
X125582311Y-92784271D01*
X125582310Y-92784270D01*
X125566076Y-92779415D01*
X125506543Y-92740733D01*
X125477373Y-92676005D01*
X125487829Y-92605782D01*
X125513084Y-92569603D01*
X128216215Y-89866472D01*
X128224319Y-89859045D01*
X128244749Y-89841902D01*
X128253194Y-89834816D01*
X128265160Y-89814090D01*
X128272039Y-89802176D01*
X128277945Y-89792905D01*
X128299554Y-89762045D01*
X128302408Y-89751395D01*
X128303885Y-89748227D01*
X128305077Y-89744951D01*
X128310588Y-89735406D01*
X128317130Y-89698303D01*
X128319509Y-89687571D01*
X128329264Y-89651168D01*
X128325979Y-89613618D01*
X128325500Y-89602637D01*
X128325500Y-88550476D01*
X128345502Y-88482355D01*
X128347886Y-88479171D01*
X128350000Y-88469452D01*
X128350000Y-87999826D01*
X128350167Y-87996422D01*
X128350500Y-87994748D01*
X128649500Y-87994748D01*
X128649833Y-87996422D01*
X128650000Y-87999826D01*
X128650000Y-88464884D01*
X128654475Y-88480123D01*
X128655865Y-88481328D01*
X128663548Y-88482999D01*
X128694669Y-88482999D01*
X128701490Y-88482629D01*
X128752352Y-88477105D01*
X128767604Y-88473479D01*
X128888054Y-88428324D01*
X128903649Y-88419786D01*
X129005724Y-88343285D01*
X129018285Y-88330724D01*
X129099533Y-88222315D01*
X129156392Y-88179800D01*
X129175777Y-88174301D01*
X129216061Y-88166288D01*
X129216062Y-88166288D01*
X129228231Y-88163867D01*
X129294552Y-88119552D01*
X129338867Y-88053231D01*
X129345143Y-88021682D01*
X129349293Y-88000816D01*
X129350500Y-87994748D01*
X129350500Y-86850266D01*
X129370502Y-86782145D01*
X129424158Y-86735652D01*
X129501079Y-86726687D01*
X129514103Y-86729277D01*
X129520252Y-86730500D01*
X131559748Y-86730500D01*
X131565821Y-86729292D01*
X131606061Y-86721288D01*
X131606062Y-86721288D01*
X131618231Y-86718867D01*
X131684552Y-86674552D01*
X131728867Y-86608231D01*
X131734394Y-86580448D01*
X131739293Y-86555816D01*
X131740500Y-86549748D01*
X131740500Y-83510252D01*
X131728867Y-83451769D01*
X131684552Y-83385448D01*
X131618231Y-83341133D01*
X131606062Y-83338712D01*
X131606061Y-83338712D01*
X131565816Y-83330707D01*
X131559748Y-83329500D01*
X129520252Y-83329500D01*
X129514184Y-83330707D01*
X129473939Y-83338712D01*
X129473938Y-83338712D01*
X129461769Y-83341133D01*
X129395448Y-83385448D01*
X129351133Y-83451769D01*
X129339500Y-83510252D01*
X129339500Y-86404734D01*
X129319498Y-86472855D01*
X129265842Y-86519348D01*
X129188918Y-86528313D01*
X129175777Y-86525699D01*
X129112867Y-86492791D01*
X129099533Y-86477685D01*
X129018285Y-86369276D01*
X129005724Y-86356715D01*
X128903649Y-86280214D01*
X128888054Y-86271676D01*
X128767606Y-86226522D01*
X128752351Y-86222895D01*
X128701486Y-86217369D01*
X128694672Y-86217000D01*
X128668115Y-86217000D01*
X128652876Y-86221475D01*
X128651671Y-86222865D01*
X128650000Y-86230548D01*
X128650000Y-86700174D01*
X128649833Y-86703578D01*
X128649500Y-86705252D01*
X128649500Y-87994748D01*
X128350500Y-87994748D01*
X128350500Y-86705252D01*
X128350167Y-86703578D01*
X128350000Y-86700174D01*
X128350000Y-86235116D01*
X128345525Y-86219877D01*
X128344135Y-86218672D01*
X128336452Y-86217001D01*
X128305331Y-86217001D01*
X128298510Y-86217371D01*
X128247648Y-86222895D01*
X128232396Y-86226521D01*
X128111946Y-86271676D01*
X128096351Y-86280214D01*
X127994276Y-86356715D01*
X127981715Y-86369276D01*
X127900467Y-86477685D01*
X127843608Y-86520200D01*
X127824223Y-86525699D01*
X127774579Y-86535574D01*
X127725421Y-86535574D01*
X127669748Y-86524500D01*
X127330252Y-86524500D01*
X127274579Y-86535574D01*
X127225421Y-86535574D01*
X127169748Y-86524500D01*
X126830252Y-86524500D01*
X126774579Y-86535574D01*
X126725421Y-86535574D01*
X126669748Y-86524500D01*
X126330252Y-86524500D01*
X126274579Y-86535574D01*
X126225421Y-86535574D01*
X126169748Y-86524500D01*
X125830252Y-86524500D01*
X125774579Y-86535574D01*
X125725421Y-86535574D01*
X125669748Y-86524500D01*
X125330252Y-86524500D01*
X125274579Y-86535574D01*
X125225421Y-86535574D01*
X125169748Y-86524500D01*
X124830252Y-86524500D01*
X124774579Y-86535574D01*
X124725421Y-86535574D01*
X124669748Y-86524500D01*
X124330252Y-86524500D01*
X124324179Y-86525708D01*
X124311079Y-86528313D01*
X124240365Y-86521984D01*
X124184299Y-86478429D01*
X124160500Y-86404734D01*
X124160500Y-86115589D01*
X124180502Y-86047468D01*
X124234158Y-86000975D01*
X124304432Y-85990871D01*
X124324070Y-85995321D01*
X124336735Y-85999278D01*
X124345705Y-85999442D01*
X124345709Y-85999443D01*
X124404444Y-86000519D01*
X124465757Y-86001643D01*
X124547027Y-85979486D01*
X124581594Y-85970062D01*
X124581595Y-85970062D01*
X124590257Y-85967700D01*
X124597907Y-85963003D01*
X124597909Y-85963002D01*
X124692574Y-85904878D01*
X124692577Y-85904875D01*
X124700226Y-85900179D01*
X124708978Y-85890510D01*
X124780802Y-85811161D01*
X124780805Y-85811157D01*
X124786824Y-85804507D01*
X124843090Y-85688375D01*
X124846869Y-85665917D01*
X124863692Y-85565917D01*
X124864499Y-85561120D01*
X124864635Y-85550000D01*
X124846341Y-85422259D01*
X124839970Y-85408247D01*
X124796647Y-85312962D01*
X124796645Y-85312959D01*
X124792930Y-85304788D01*
X124767127Y-85274842D01*
X124714553Y-85213826D01*
X124714551Y-85213824D01*
X124708695Y-85207028D01*
X124600408Y-85136841D01*
X124591813Y-85134271D01*
X124591812Y-85134270D01*
X124485376Y-85102438D01*
X124485374Y-85102438D01*
X124476775Y-85099866D01*
X124467800Y-85099811D01*
X124467799Y-85099811D01*
X124413143Y-85099477D01*
X124347733Y-85099078D01*
X124321124Y-85106683D01*
X124250132Y-85106171D01*
X124190683Y-85067358D01*
X124161657Y-85002567D01*
X124160500Y-84985534D01*
X124160500Y-83510252D01*
X124148867Y-83451769D01*
X124104552Y-83385448D01*
X124038231Y-83341133D01*
X124026062Y-83338712D01*
X124026061Y-83338712D01*
X123985816Y-83330707D01*
X123979748Y-83329500D01*
X121940252Y-83329500D01*
X121934184Y-83330707D01*
X121893939Y-83338712D01*
X121893938Y-83338712D01*
X121881769Y-83341133D01*
X121815448Y-83385448D01*
X121771133Y-83451769D01*
X121759500Y-83510252D01*
X121759500Y-86549748D01*
X121757742Y-86549748D01*
X121746077Y-86611281D01*
X121697241Y-86662813D01*
X121628297Y-86679762D01*
X121600368Y-86675037D01*
X121598138Y-86674704D01*
X121589539Y-86672132D01*
X121580564Y-86672077D01*
X121580563Y-86672077D01*
X121525907Y-86671743D01*
X121460497Y-86671344D01*
X121398459Y-86689074D01*
X121345052Y-86704338D01*
X121345050Y-86704339D01*
X121336421Y-86706805D01*
X121227285Y-86775665D01*
X121221342Y-86782394D01*
X121221341Y-86782395D01*
X121153617Y-86859078D01*
X121141862Y-86872388D01*
X121138048Y-86880511D01*
X121138047Y-86880513D01*
X121124836Y-86908652D01*
X121087020Y-86989198D01*
X121085640Y-86998064D01*
X121068548Y-87107833D01*
X121068548Y-87107837D01*
X121067167Y-87116706D01*
X121068331Y-87125608D01*
X121068331Y-87125611D01*
X121082734Y-87235755D01*
X121082735Y-87235759D01*
X121083899Y-87244660D01*
X121087516Y-87252880D01*
X121126608Y-87341723D01*
X121135871Y-87362776D01*
X121141648Y-87369649D01*
X121141649Y-87369650D01*
X121175675Y-87410129D01*
X121218905Y-87461557D01*
X121326326Y-87533062D01*
X121449499Y-87571544D01*
X121458469Y-87571708D01*
X121458473Y-87571709D01*
X121517208Y-87572785D01*
X121578521Y-87573909D01*
X121675160Y-87547562D01*
X121694358Y-87542328D01*
X121694359Y-87542328D01*
X121703021Y-87539966D01*
X121710671Y-87535269D01*
X121710673Y-87535268D01*
X121805338Y-87477144D01*
X121805341Y-87477141D01*
X121812990Y-87472445D01*
X121819016Y-87465788D01*
X121893566Y-87383427D01*
X121893569Y-87383423D01*
X121899588Y-87376773D01*
X121955854Y-87260641D01*
X121958018Y-87247782D01*
X121976456Y-87138183D01*
X121977263Y-87133386D01*
X121977399Y-87122266D01*
X121959105Y-86994525D01*
X121955391Y-86986357D01*
X121955390Y-86986353D01*
X121920061Y-86908652D01*
X121910073Y-86838361D01*
X121939674Y-86773829D01*
X121999464Y-86735545D01*
X122034761Y-86730500D01*
X123979748Y-86730500D01*
X123985897Y-86729277D01*
X123998921Y-86726687D01*
X124069635Y-86733016D01*
X124125701Y-86776571D01*
X124149500Y-86850266D01*
X124149500Y-87248500D01*
X124129498Y-87316621D01*
X124075842Y-87363114D01*
X124023500Y-87374500D01*
X123736270Y-87374500D01*
X123667739Y-87354233D01*
X123648439Y-87341723D01*
X123648436Y-87341722D01*
X123640906Y-87336841D01*
X123556301Y-87311538D01*
X123525874Y-87302438D01*
X123525872Y-87302438D01*
X123517273Y-87299866D01*
X123508298Y-87299811D01*
X123508297Y-87299811D01*
X123453641Y-87299477D01*
X123388231Y-87299078D01*
X123376475Y-87302438D01*
X123272786Y-87332072D01*
X123272784Y-87332073D01*
X123264155Y-87334539D01*
X123256565Y-87339328D01*
X123186673Y-87383427D01*
X123155019Y-87403399D01*
X123149076Y-87410128D01*
X123149075Y-87410129D01*
X123081351Y-87486812D01*
X123069596Y-87500122D01*
X123065782Y-87508245D01*
X123065781Y-87508247D01*
X123054131Y-87533062D01*
X123014754Y-87616932D01*
X123013374Y-87625798D01*
X122996282Y-87735567D01*
X122996282Y-87735571D01*
X122994901Y-87744440D01*
X122996065Y-87753342D01*
X122996065Y-87753345D01*
X123009641Y-87857163D01*
X122998641Y-87927302D01*
X122951466Y-87980359D01*
X122884705Y-87999500D01*
X121258314Y-87999500D01*
X121247332Y-87999020D01*
X121220784Y-87996697D01*
X121220782Y-87996697D01*
X121209797Y-87995736D01*
X121173389Y-88005492D01*
X121162662Y-88007870D01*
X121159303Y-88008462D01*
X121125559Y-88014412D01*
X121116014Y-88019923D01*
X121112738Y-88021115D01*
X121109570Y-88022592D01*
X121098920Y-88025446D01*
X121089889Y-88031770D01*
X121068060Y-88047055D01*
X121058789Y-88052961D01*
X121040454Y-88063547D01*
X121026149Y-88071806D01*
X121019063Y-88080251D01*
X121001919Y-88100682D01*
X120994493Y-88108785D01*
X120315595Y-88787683D01*
X120253283Y-88821709D01*
X120182468Y-88816644D01*
X120125632Y-88774097D01*
X120100821Y-88707577D01*
X120100500Y-88698588D01*
X120100500Y-87407179D01*
X120100979Y-87396198D01*
X120103303Y-87369636D01*
X120103303Y-87369634D01*
X120104263Y-87358659D01*
X120094508Y-87322249D01*
X120092133Y-87311538D01*
X120090065Y-87299811D01*
X120085588Y-87274421D01*
X120080078Y-87264877D01*
X120078886Y-87261601D01*
X120077407Y-87258430D01*
X120074554Y-87247782D01*
X120052940Y-87216914D01*
X120047036Y-87207645D01*
X120033707Y-87184558D01*
X120033704Y-87184554D01*
X120028194Y-87175011D01*
X120001429Y-87152552D01*
X119962103Y-87093442D01*
X119957694Y-87073894D01*
X119947548Y-87003048D01*
X119947547Y-87003046D01*
X119946275Y-86994161D01*
X119924720Y-86946753D01*
X119896581Y-86884864D01*
X119896579Y-86884861D01*
X119892864Y-86876690D01*
X119808629Y-86778930D01*
X119700342Y-86708743D01*
X119691747Y-86706173D01*
X119691746Y-86706172D01*
X119585310Y-86674340D01*
X119585308Y-86674340D01*
X119576709Y-86671768D01*
X119567734Y-86671713D01*
X119567733Y-86671713D01*
X119513077Y-86671379D01*
X119447667Y-86670980D01*
X119411058Y-86681443D01*
X119332222Y-86703974D01*
X119332220Y-86703975D01*
X119323591Y-86706441D01*
X119316001Y-86711230D01*
X119287375Y-86729292D01*
X119214455Y-86775301D01*
X119208512Y-86782030D01*
X119208511Y-86782031D01*
X119208190Y-86782395D01*
X119129032Y-86872024D01*
X119125218Y-86880147D01*
X119125217Y-86880149D01*
X119111835Y-86908652D01*
X119074190Y-86988834D01*
X119065062Y-87047460D01*
X119055718Y-87107469D01*
X119055718Y-87107473D01*
X119054337Y-87116342D01*
X119055501Y-87125244D01*
X119055501Y-87125247D01*
X119069904Y-87235391D01*
X119069905Y-87235395D01*
X119071069Y-87244296D01*
X119081814Y-87268716D01*
X119111790Y-87336841D01*
X119123041Y-87362412D01*
X119128818Y-87369285D01*
X119128819Y-87369286D01*
X119163151Y-87410129D01*
X119206075Y-87461193D01*
X119213552Y-87466170D01*
X119264558Y-87500122D01*
X119313496Y-87532698D01*
X119322066Y-87535375D01*
X119322067Y-87535376D01*
X119361073Y-87547562D01*
X119420130Y-87586967D01*
X119448508Y-87652046D01*
X119449500Y-87667829D01*
X119449500Y-88384983D01*
X119429498Y-88453104D01*
X119375842Y-88499597D01*
X119305568Y-88509701D01*
X119240988Y-88480207D01*
X119234405Y-88474078D01*
X118062405Y-87302079D01*
X118028380Y-87239767D01*
X118025500Y-87212984D01*
X118025500Y-86069698D01*
X118025980Y-86058716D01*
X118028302Y-86032180D01*
X118028302Y-86032178D01*
X118029263Y-86021193D01*
X118024025Y-86001643D01*
X118019512Y-85984804D01*
X118017132Y-85974069D01*
X118012502Y-85947812D01*
X118010588Y-85936955D01*
X118005076Y-85927407D01*
X118003883Y-85924130D01*
X118002406Y-85920962D01*
X117999553Y-85910316D01*
X117977942Y-85879452D01*
X117972038Y-85870184D01*
X117958704Y-85847089D01*
X117953194Y-85837545D01*
X117924330Y-85813325D01*
X117916227Y-85805900D01*
X117754767Y-85644440D01*
X119044901Y-85644440D01*
X119046065Y-85653342D01*
X119046065Y-85653345D01*
X119060468Y-85763489D01*
X119060469Y-85763493D01*
X119061633Y-85772394D01*
X119113605Y-85890510D01*
X119119382Y-85897383D01*
X119119383Y-85897384D01*
X119188397Y-85979486D01*
X119196639Y-85989291D01*
X119204116Y-85994268D01*
X119284038Y-86047468D01*
X119304060Y-86060796D01*
X119427233Y-86099278D01*
X119436203Y-86099442D01*
X119436207Y-86099443D01*
X119494942Y-86100519D01*
X119556255Y-86101643D01*
X119618505Y-86084672D01*
X119672092Y-86070062D01*
X119672093Y-86070062D01*
X119680755Y-86067700D01*
X119688405Y-86063003D01*
X119688407Y-86063002D01*
X119783072Y-86004878D01*
X119783075Y-86004875D01*
X119790724Y-86000179D01*
X119796750Y-85993522D01*
X119871300Y-85911161D01*
X119871303Y-85911157D01*
X119877322Y-85904507D01*
X119933588Y-85788375D01*
X119954997Y-85661120D01*
X119955133Y-85650000D01*
X119947748Y-85598433D01*
X119938112Y-85531145D01*
X119938111Y-85531142D01*
X119936839Y-85522259D01*
X119916297Y-85477079D01*
X119887145Y-85412962D01*
X119887143Y-85412959D01*
X119883428Y-85404788D01*
X119799193Y-85307028D01*
X119690906Y-85236841D01*
X119682311Y-85234271D01*
X119682310Y-85234270D01*
X119575874Y-85202438D01*
X119575872Y-85202438D01*
X119567273Y-85199866D01*
X119558298Y-85199811D01*
X119558297Y-85199811D01*
X119503641Y-85199477D01*
X119438231Y-85199078D01*
X119386629Y-85213826D01*
X119322786Y-85232072D01*
X119322784Y-85232073D01*
X119314155Y-85234539D01*
X119306565Y-85239328D01*
X119213600Y-85297985D01*
X119205019Y-85303399D01*
X119119596Y-85400122D01*
X119115782Y-85408245D01*
X119115781Y-85408247D01*
X119105031Y-85431145D01*
X119064754Y-85516932D01*
X119058849Y-85554859D01*
X119046282Y-85635567D01*
X119046282Y-85635571D01*
X119044901Y-85644440D01*
X117754767Y-85644440D01*
X117587405Y-85477079D01*
X117553380Y-85414766D01*
X117550500Y-85387983D01*
X117550500Y-85165434D01*
X117570502Y-85097313D01*
X117624158Y-85050820D01*
X117694432Y-85040716D01*
X117714067Y-85045165D01*
X117727233Y-85049278D01*
X117736203Y-85049442D01*
X117736207Y-85049443D01*
X117794942Y-85050519D01*
X117856255Y-85051643D01*
X117918505Y-85034671D01*
X117972092Y-85020062D01*
X117972093Y-85020062D01*
X117980755Y-85017700D01*
X117988405Y-85013003D01*
X117988407Y-85013002D01*
X118083072Y-84954878D01*
X118083075Y-84954875D01*
X118090724Y-84950179D01*
X118096750Y-84943522D01*
X118171300Y-84861161D01*
X118171303Y-84861157D01*
X118177322Y-84854507D01*
X118233588Y-84738375D01*
X118254997Y-84611120D01*
X118255133Y-84600000D01*
X118236839Y-84472259D01*
X118183428Y-84354788D01*
X118099193Y-84257028D01*
X117990906Y-84186841D01*
X117982311Y-84184271D01*
X117982310Y-84184270D01*
X117875874Y-84152438D01*
X117875872Y-84152438D01*
X117867273Y-84149866D01*
X117858298Y-84149811D01*
X117858297Y-84149811D01*
X117765423Y-84149244D01*
X117697425Y-84128826D01*
X117651261Y-84074887D01*
X117641586Y-84004553D01*
X117671473Y-83940154D01*
X117677097Y-83934151D01*
X118641354Y-82969895D01*
X119229309Y-82381940D01*
X123182401Y-82381940D01*
X123183565Y-82390842D01*
X123183565Y-82390845D01*
X123197968Y-82500989D01*
X123197969Y-82500993D01*
X123199133Y-82509894D01*
X123251105Y-82628010D01*
X123334139Y-82726791D01*
X123441560Y-82798296D01*
X123564733Y-82836778D01*
X123573703Y-82836942D01*
X123573707Y-82836943D01*
X123632442Y-82838019D01*
X123693755Y-82839143D01*
X123756005Y-82822172D01*
X123809592Y-82807562D01*
X123809593Y-82807562D01*
X123818255Y-82805200D01*
X123825905Y-82800503D01*
X123825907Y-82800502D01*
X123920572Y-82742378D01*
X123920575Y-82742375D01*
X123928224Y-82737679D01*
X123934250Y-82731022D01*
X124008800Y-82648661D01*
X124008803Y-82648657D01*
X124014822Y-82642007D01*
X124071088Y-82525875D01*
X124092497Y-82398620D01*
X124092633Y-82387500D01*
X124077007Y-82278389D01*
X124075612Y-82268645D01*
X124075611Y-82268642D01*
X124074339Y-82259759D01*
X124070625Y-82251590D01*
X124024645Y-82150462D01*
X124024643Y-82150459D01*
X124020928Y-82142288D01*
X123991985Y-82108698D01*
X123942551Y-82051326D01*
X123942549Y-82051324D01*
X123936693Y-82044528D01*
X123828406Y-81974341D01*
X123819811Y-81971771D01*
X123819810Y-81971770D01*
X123713374Y-81939938D01*
X123713372Y-81939938D01*
X123704773Y-81937366D01*
X123695798Y-81937311D01*
X123695797Y-81937311D01*
X123641141Y-81936977D01*
X123575731Y-81936578D01*
X123563975Y-81939938D01*
X123460286Y-81969572D01*
X123460284Y-81969573D01*
X123451655Y-81972039D01*
X123342519Y-82040899D01*
X123257096Y-82137622D01*
X123253282Y-82145745D01*
X123253281Y-82145747D01*
X123244801Y-82163810D01*
X123202254Y-82254432D01*
X123193126Y-82313058D01*
X123183782Y-82373067D01*
X123183782Y-82373071D01*
X123182401Y-82381940D01*
X119229309Y-82381940D01*
X119616222Y-81995027D01*
X119624326Y-81987600D01*
X119637164Y-81976828D01*
X119653194Y-81963377D01*
X119672039Y-81930737D01*
X119677943Y-81921469D01*
X119693231Y-81899635D01*
X119699553Y-81890606D01*
X119702406Y-81879960D01*
X119703883Y-81876792D01*
X119705076Y-81873515D01*
X119710588Y-81863967D01*
X119717132Y-81826853D01*
X119719512Y-81816118D01*
X119726410Y-81790376D01*
X119729263Y-81779729D01*
X119725979Y-81742191D01*
X119725500Y-81731210D01*
X119725500Y-81710315D01*
X119745502Y-81642194D01*
X119758080Y-81625765D01*
X119777322Y-81604507D01*
X119833588Y-81488375D01*
X119838551Y-81458879D01*
X119854190Y-81365917D01*
X119854997Y-81361120D01*
X119855065Y-81355530D01*
X119855074Y-81354859D01*
X119855074Y-81354853D01*
X119855133Y-81350000D01*
X119847748Y-81298433D01*
X119838112Y-81231145D01*
X119838111Y-81231142D01*
X119836839Y-81222259D01*
X119830724Y-81208809D01*
X119787145Y-81112962D01*
X119787143Y-81112959D01*
X119783428Y-81104788D01*
X119721778Y-81033239D01*
X119705051Y-81013826D01*
X119705049Y-81013824D01*
X119699193Y-81007028D01*
X119590906Y-80936841D01*
X119582311Y-80934271D01*
X119582310Y-80934270D01*
X119475874Y-80902438D01*
X119475872Y-80902438D01*
X119467273Y-80899866D01*
X119458298Y-80899811D01*
X119458297Y-80899811D01*
X119403641Y-80899477D01*
X119338231Y-80899078D01*
X119326475Y-80902438D01*
X119222786Y-80932072D01*
X119222784Y-80932073D01*
X119214155Y-80934539D01*
X119105019Y-81003399D01*
X119099076Y-81010128D01*
X119099075Y-81010129D01*
X119031351Y-81086812D01*
X119019596Y-81100122D01*
X119015782Y-81108245D01*
X119015781Y-81108247D01*
X119001636Y-81138375D01*
X118964754Y-81216932D01*
X118962687Y-81230210D01*
X118946282Y-81335567D01*
X118946282Y-81335571D01*
X118944901Y-81344440D01*
X118946065Y-81353342D01*
X118946065Y-81353345D01*
X118960468Y-81463489D01*
X118960469Y-81463493D01*
X118961633Y-81472394D01*
X118972218Y-81496450D01*
X119005316Y-81571672D01*
X119014443Y-81642080D01*
X118984057Y-81706245D01*
X118979082Y-81711513D01*
X118240407Y-82450189D01*
X117640595Y-83050001D01*
X117578283Y-83084026D01*
X117507468Y-83078962D01*
X117450632Y-83036415D01*
X117425821Y-82969895D01*
X117425500Y-82960906D01*
X117425500Y-81979150D01*
X117431025Y-81943664D01*
X117433588Y-81938375D01*
X117435675Y-81925975D01*
X117454190Y-81815917D01*
X117454997Y-81811120D01*
X117455133Y-81800000D01*
X117446070Y-81736716D01*
X117438112Y-81681145D01*
X117438111Y-81681142D01*
X117436839Y-81672259D01*
X117433125Y-81664091D01*
X117433124Y-81664087D01*
X117386895Y-81562413D01*
X117376907Y-81492122D01*
X117406508Y-81427590D01*
X117466298Y-81389306D01*
X117537294Y-81389424D01*
X117571410Y-81405371D01*
X117579560Y-81410796D01*
X117668438Y-81438564D01*
X117692859Y-81446193D01*
X117702733Y-81449278D01*
X117711703Y-81449442D01*
X117711707Y-81449443D01*
X117770442Y-81450519D01*
X117831755Y-81451643D01*
X117894005Y-81434671D01*
X117947592Y-81420062D01*
X117947593Y-81420062D01*
X117956255Y-81417700D01*
X117963905Y-81413003D01*
X117963907Y-81413002D01*
X118058572Y-81354878D01*
X118058575Y-81354875D01*
X118066224Y-81350179D01*
X118072250Y-81343522D01*
X118146800Y-81261161D01*
X118146803Y-81261157D01*
X118152822Y-81254507D01*
X118209088Y-81138375D01*
X118213364Y-81112962D01*
X118229690Y-81015917D01*
X118230497Y-81011120D01*
X118230633Y-81000000D01*
X118218762Y-80917107D01*
X118213612Y-80881145D01*
X118213611Y-80881142D01*
X118212339Y-80872259D01*
X118171336Y-80782077D01*
X118167287Y-80773172D01*
X120244901Y-80773172D01*
X120246065Y-80782074D01*
X120246065Y-80782077D01*
X120260468Y-80892221D01*
X120260469Y-80892225D01*
X120261633Y-80901126D01*
X120276217Y-80934270D01*
X120306084Y-81002148D01*
X120313605Y-81019242D01*
X120396639Y-81118023D01*
X120504060Y-81189528D01*
X120627233Y-81228010D01*
X120636203Y-81228174D01*
X120636207Y-81228175D01*
X120694942Y-81229251D01*
X120756255Y-81230375D01*
X120867668Y-81200000D01*
X120872092Y-81198794D01*
X120872093Y-81198794D01*
X120880755Y-81196432D01*
X120888405Y-81191735D01*
X120888407Y-81191734D01*
X120983072Y-81133610D01*
X120983075Y-81133607D01*
X120990724Y-81128911D01*
X120996750Y-81122254D01*
X121071300Y-81039893D01*
X121071303Y-81039889D01*
X121077322Y-81033239D01*
X121133588Y-80917107D01*
X121142508Y-80864090D01*
X121154190Y-80794649D01*
X121154997Y-80789852D01*
X121155065Y-80784262D01*
X121155074Y-80783591D01*
X121155074Y-80783585D01*
X121155133Y-80778732D01*
X121147468Y-80725212D01*
X121138112Y-80659877D01*
X121138111Y-80659874D01*
X121136839Y-80650991D01*
X121130724Y-80637541D01*
X121087145Y-80541694D01*
X121087143Y-80541691D01*
X121083428Y-80533520D01*
X120999193Y-80435760D01*
X120890906Y-80365573D01*
X120882311Y-80363003D01*
X120882310Y-80363002D01*
X120775874Y-80331170D01*
X120775872Y-80331170D01*
X120767273Y-80328598D01*
X120758298Y-80328543D01*
X120758297Y-80328543D01*
X120703641Y-80328209D01*
X120638231Y-80327810D01*
X120626475Y-80331170D01*
X120522786Y-80360804D01*
X120522784Y-80360805D01*
X120514155Y-80363271D01*
X120405019Y-80432131D01*
X120319596Y-80528854D01*
X120315782Y-80536977D01*
X120315781Y-80536979D01*
X120308523Y-80552438D01*
X120264754Y-80645664D01*
X120256810Y-80696684D01*
X120246282Y-80764299D01*
X120246282Y-80764303D01*
X120244901Y-80773172D01*
X118167287Y-80773172D01*
X118162645Y-80762962D01*
X118162643Y-80762959D01*
X118158928Y-80754788D01*
X118130725Y-80722057D01*
X118080551Y-80663826D01*
X118080549Y-80663824D01*
X118074693Y-80657028D01*
X117966406Y-80586841D01*
X117957811Y-80584271D01*
X117957810Y-80584270D01*
X117851374Y-80552438D01*
X117851372Y-80552438D01*
X117842773Y-80549866D01*
X117833798Y-80549811D01*
X117833797Y-80549811D01*
X117779141Y-80549477D01*
X117713731Y-80549078D01*
X117701975Y-80552438D01*
X117598286Y-80582072D01*
X117598284Y-80582073D01*
X117589655Y-80584539D01*
X117480519Y-80653399D01*
X117478853Y-80650759D01*
X117428152Y-80673372D01*
X117411329Y-80674500D01*
X116919698Y-80674500D01*
X116908716Y-80674020D01*
X116882180Y-80671698D01*
X116882178Y-80671698D01*
X116871193Y-80670737D01*
X116860543Y-80673591D01*
X116860541Y-80673591D01*
X116834804Y-80680488D01*
X116824069Y-80682868D01*
X116816508Y-80684201D01*
X116786955Y-80689412D01*
X116777407Y-80694924D01*
X116774130Y-80696117D01*
X116770962Y-80697594D01*
X116760316Y-80700447D01*
X116751287Y-80706769D01*
X116729453Y-80722057D01*
X116720185Y-80727961D01*
X116687545Y-80746806D01*
X116680462Y-80755247D01*
X116680461Y-80755248D01*
X116663325Y-80775670D01*
X116655900Y-80783773D01*
X116432646Y-81007028D01*
X116216096Y-81223578D01*
X116153783Y-81257603D01*
X116082968Y-81252539D01*
X116026132Y-81209992D01*
X116001321Y-81143472D01*
X116001000Y-81134483D01*
X116001000Y-78727000D01*
X116021002Y-78658879D01*
X116074658Y-78612386D01*
X116127000Y-78601000D01*
X132473000Y-78601000D01*
X132541121Y-78621002D01*
G37*
%TD.AperFunction*%
%TA.AperFunction,Conductor*%
G36*
X116041621Y-81421002D02*
G01*
X116088114Y-81474658D01*
X116099500Y-81527000D01*
X116099500Y-82018463D01*
X116099020Y-82029445D01*
X116097106Y-82051326D01*
X116095736Y-82066980D01*
X116098590Y-82077629D01*
X116105491Y-82103383D01*
X116107870Y-82114115D01*
X116114412Y-82151218D01*
X116119923Y-82160763D01*
X116121115Y-82164039D01*
X116122592Y-82167207D01*
X116125446Y-82177857D01*
X116131770Y-82186888D01*
X116147055Y-82208717D01*
X116152961Y-82217988D01*
X116166293Y-82241079D01*
X116171806Y-82250628D01*
X116193278Y-82268645D01*
X116200682Y-82274858D01*
X116208785Y-82282284D01*
X116287595Y-82361094D01*
X116321621Y-82423406D01*
X116324500Y-82450189D01*
X116324500Y-83041112D01*
X116304498Y-83109233D01*
X116287596Y-83130207D01*
X116108778Y-83309026D01*
X116100674Y-83316452D01*
X116071806Y-83340675D01*
X116066293Y-83350224D01*
X116052961Y-83373315D01*
X116047055Y-83382586D01*
X116025446Y-83413446D01*
X116022592Y-83424096D01*
X116021115Y-83427264D01*
X116019923Y-83430540D01*
X116014412Y-83440085D01*
X116010206Y-83463939D01*
X116007870Y-83477188D01*
X116005492Y-83487915D01*
X115995736Y-83524323D01*
X115996697Y-83535308D01*
X115996697Y-83535310D01*
X115999020Y-83561858D01*
X115999500Y-83572840D01*
X115999500Y-86003721D01*
X115999020Y-86014703D01*
X115995736Y-86052238D01*
X116005491Y-86088641D01*
X116007870Y-86099373D01*
X116014412Y-86136476D01*
X116019923Y-86146021D01*
X116021115Y-86149297D01*
X116022592Y-86152465D01*
X116025446Y-86163115D01*
X116031770Y-86172146D01*
X116047055Y-86193975D01*
X116052961Y-86203246D01*
X116062563Y-86219877D01*
X116071806Y-86235886D01*
X116080251Y-86242972D01*
X116100675Y-86260110D01*
X116108780Y-86267537D01*
X116437596Y-86596354D01*
X116471621Y-86658666D01*
X116474500Y-86685449D01*
X116474500Y-87880290D01*
X116474020Y-87891272D01*
X116470736Y-87928807D01*
X116473590Y-87939456D01*
X116480491Y-87965210D01*
X116482870Y-87975942D01*
X116489412Y-88013045D01*
X116494923Y-88022590D01*
X116496115Y-88025866D01*
X116497592Y-88029034D01*
X116500446Y-88039684D01*
X116519078Y-88066293D01*
X116522055Y-88070544D01*
X116527961Y-88079815D01*
X116528213Y-88080251D01*
X116546806Y-88112455D01*
X116555251Y-88119541D01*
X116575682Y-88136685D01*
X116583785Y-88144111D01*
X117104044Y-88664370D01*
X117138070Y-88726682D01*
X117133005Y-88797497D01*
X117090458Y-88854333D01*
X117066397Y-88868483D01*
X117059589Y-88871528D01*
X117050958Y-88873995D01*
X116941822Y-88942855D01*
X116856399Y-89039578D01*
X116852585Y-89047701D01*
X116852584Y-89047703D01*
X116826597Y-89103054D01*
X116801557Y-89156388D01*
X116800177Y-89165254D01*
X116783085Y-89275023D01*
X116783085Y-89275027D01*
X116781704Y-89283896D01*
X116782868Y-89292798D01*
X116782868Y-89292801D01*
X116790729Y-89352914D01*
X116798436Y-89411850D01*
X116799230Y-89413655D01*
X116798331Y-89481120D01*
X116782683Y-89514018D01*
X116768026Y-89535952D01*
X116768025Y-89535955D01*
X116761133Y-89546269D01*
X116758712Y-89558438D01*
X116758712Y-89558439D01*
X116754570Y-89579264D01*
X116749500Y-89604752D01*
X116749500Y-91119248D01*
X116761133Y-91177731D01*
X116805448Y-91244052D01*
X116871769Y-91288367D01*
X116883938Y-91290788D01*
X116883939Y-91290788D01*
X116924184Y-91298793D01*
X116930252Y-91300000D01*
X117419748Y-91300000D01*
X117475421Y-91288926D01*
X117524579Y-91288926D01*
X117580252Y-91300000D01*
X118069748Y-91300000D01*
X118125421Y-91288926D01*
X118174579Y-91288926D01*
X118230252Y-91300000D01*
X118719748Y-91300000D01*
X118775421Y-91288926D01*
X118824579Y-91288926D01*
X118880252Y-91300000D01*
X119369748Y-91300000D01*
X119425421Y-91288926D01*
X119474579Y-91288926D01*
X119530252Y-91300000D01*
X120019748Y-91300000D01*
X120075421Y-91288926D01*
X120124579Y-91288926D01*
X120180252Y-91300000D01*
X120669748Y-91300000D01*
X120725421Y-91288926D01*
X120774579Y-91288926D01*
X120830252Y-91300000D01*
X121319748Y-91300000D01*
X121375421Y-91288926D01*
X121424579Y-91288926D01*
X121480252Y-91300000D01*
X121934433Y-91300000D01*
X122002554Y-91320002D01*
X122049047Y-91373658D01*
X122058519Y-91404122D01*
X122064412Y-91437545D01*
X122069922Y-91447089D01*
X122071115Y-91450366D01*
X122072592Y-91453534D01*
X122075446Y-91464184D01*
X122081770Y-91473215D01*
X122097055Y-91495044D01*
X122102961Y-91504315D01*
X122116295Y-91527410D01*
X122121806Y-91536955D01*
X122130248Y-91544039D01*
X122150680Y-91561184D01*
X122158782Y-91568609D01*
X122230900Y-91640727D01*
X122238326Y-91648831D01*
X122262545Y-91677694D01*
X122272093Y-91683207D01*
X122272096Y-91683209D01*
X122295179Y-91696536D01*
X122304448Y-91702440D01*
X122335316Y-91724054D01*
X122345965Y-91726908D01*
X122349133Y-91728385D01*
X122352410Y-91729578D01*
X122355959Y-91731627D01*
X122355948Y-91731651D01*
X122356921Y-91732367D01*
X122360190Y-91734069D01*
X122361955Y-91735088D01*
X122361958Y-91735088D01*
X122361962Y-91735091D01*
X122361562Y-91735784D01*
X122411011Y-91772189D01*
X122436351Y-91838509D01*
X122421814Y-91908001D01*
X122372014Y-91958602D01*
X122310748Y-91974500D01*
X119019710Y-91974500D01*
X119008728Y-91974020D01*
X118982180Y-91971697D01*
X118982178Y-91971697D01*
X118971193Y-91970736D01*
X118934785Y-91980492D01*
X118924058Y-91982870D01*
X118920699Y-91983462D01*
X118886955Y-91989412D01*
X118877410Y-91994923D01*
X118874134Y-91996115D01*
X118870966Y-91997592D01*
X118860316Y-92000446D01*
X118851285Y-92006770D01*
X118829456Y-92022055D01*
X118820185Y-92027961D01*
X118797094Y-92041293D01*
X118787545Y-92046806D01*
X118767568Y-92070614D01*
X118763315Y-92075682D01*
X118755889Y-92083785D01*
X116958785Y-93880889D01*
X116950681Y-93888316D01*
X116921806Y-93912545D01*
X116916293Y-93922094D01*
X116902961Y-93945185D01*
X116897055Y-93954456D01*
X116875446Y-93985316D01*
X116872592Y-93995966D01*
X116871115Y-93999134D01*
X116869923Y-94002410D01*
X116864412Y-94011955D01*
X116860805Y-94032415D01*
X116857870Y-94049058D01*
X116855492Y-94059785D01*
X116845736Y-94096193D01*
X116846697Y-94107178D01*
X116846697Y-94107180D01*
X116849020Y-94133728D01*
X116849500Y-94144710D01*
X116849500Y-95263129D01*
X116829498Y-95331250D01*
X116814432Y-95349945D01*
X116805448Y-95355948D01*
X116761133Y-95422269D01*
X116749500Y-95480752D01*
X116749500Y-96995248D01*
X116761133Y-97053731D01*
X116805448Y-97120052D01*
X116815761Y-97126943D01*
X116860147Y-97156601D01*
X116871769Y-97164367D01*
X116883938Y-97166788D01*
X116883939Y-97166788D01*
X116911520Y-97172274D01*
X116930252Y-97176000D01*
X117082309Y-97176000D01*
X117150430Y-97196002D01*
X117196923Y-97249658D01*
X117207027Y-97319932D01*
X117176750Y-97385407D01*
X117119596Y-97450122D01*
X117115782Y-97458245D01*
X117115781Y-97458247D01*
X117101189Y-97489328D01*
X117064754Y-97566932D01*
X117057874Y-97611120D01*
X117046282Y-97685567D01*
X117046282Y-97685571D01*
X117044901Y-97694440D01*
X117046065Y-97703342D01*
X117046065Y-97703345D01*
X117060468Y-97813489D01*
X117060469Y-97813493D01*
X117061633Y-97822394D01*
X117113605Y-97940510D01*
X117119382Y-97947383D01*
X117119383Y-97947384D01*
X117153184Y-97987595D01*
X117196639Y-98039291D01*
X117304060Y-98110796D01*
X117392938Y-98138564D01*
X117418124Y-98146432D01*
X117427233Y-98149278D01*
X117436203Y-98149442D01*
X117436207Y-98149443D01*
X117494942Y-98150519D01*
X117556255Y-98151643D01*
X117659771Y-98123421D01*
X117672092Y-98120062D01*
X117672093Y-98120062D01*
X117680755Y-98117700D01*
X117782574Y-98055183D01*
X117851089Y-98036586D01*
X117918784Y-98057983D01*
X117964165Y-98112582D01*
X117974500Y-98162559D01*
X117974500Y-98880290D01*
X117974020Y-98891272D01*
X117970736Y-98928807D01*
X117973590Y-98939456D01*
X117980491Y-98965210D01*
X117982870Y-98975942D01*
X117989412Y-99013045D01*
X117994923Y-99022590D01*
X117996115Y-99025866D01*
X117997592Y-99029034D01*
X118000446Y-99039684D01*
X118006770Y-99048715D01*
X118022055Y-99070544D01*
X118027961Y-99079815D01*
X118036405Y-99094440D01*
X118046806Y-99112455D01*
X118055251Y-99119541D01*
X118075682Y-99136685D01*
X118083785Y-99144111D01*
X118523579Y-99583905D01*
X118557605Y-99646217D01*
X118552540Y-99717032D01*
X118509993Y-99773868D01*
X118443473Y-99798679D01*
X118434484Y-99799000D01*
X116127000Y-99799000D01*
X116058879Y-99778998D01*
X116012386Y-99725342D01*
X116001000Y-99673000D01*
X116001000Y-97000198D01*
X116001082Y-97000000D01*
X116000765Y-96999235D01*
X116000198Y-96999000D01*
X116000000Y-96998918D01*
X115999802Y-96999000D01*
X115526000Y-96999000D01*
X115457879Y-96978998D01*
X115411386Y-96925342D01*
X115400000Y-96873000D01*
X115400000Y-81527000D01*
X115420002Y-81458879D01*
X115473658Y-81412386D01*
X115526000Y-81401000D01*
X115973500Y-81401000D01*
X116041621Y-81421002D01*
G37*
%TD.AperFunction*%
%TA.AperFunction,Conductor*%
G36*
X123476075Y-97154174D02*
G01*
X123498948Y-97172274D01*
X124892889Y-98566215D01*
X124900316Y-98574319D01*
X124924545Y-98603194D01*
X124934094Y-98608707D01*
X124957185Y-98622039D01*
X124966456Y-98627945D01*
X124997316Y-98649554D01*
X125007966Y-98652408D01*
X125011134Y-98653885D01*
X125014410Y-98655077D01*
X125023955Y-98660588D01*
X125057699Y-98666538D01*
X125061058Y-98667130D01*
X125071785Y-98669508D01*
X125108193Y-98679264D01*
X125119178Y-98678303D01*
X125119180Y-98678303D01*
X125145728Y-98675980D01*
X125156710Y-98675500D01*
X126803228Y-98675500D01*
X126871349Y-98695502D01*
X126917842Y-98749158D01*
X126927946Y-98819432D01*
X126917283Y-98855048D01*
X126864754Y-98966932D01*
X126862541Y-98981145D01*
X126846282Y-99085567D01*
X126846282Y-99085571D01*
X126844901Y-99094440D01*
X126846065Y-99103342D01*
X126846065Y-99103345D01*
X126859641Y-99207163D01*
X126848641Y-99277302D01*
X126801466Y-99330359D01*
X126734705Y-99349500D01*
X121485609Y-99349500D01*
X121417488Y-99329498D01*
X121370995Y-99275842D01*
X121359879Y-99215262D01*
X121359963Y-99213980D01*
X121360500Y-99209901D01*
X121360499Y-98790100D01*
X121353972Y-98740513D01*
X121348888Y-98729609D01*
X121307884Y-98641677D01*
X121307883Y-98641676D01*
X121303224Y-98631684D01*
X121242405Y-98570865D01*
X121208379Y-98508553D01*
X121205500Y-98481770D01*
X121205500Y-98351500D01*
X121225502Y-98283379D01*
X121279158Y-98236886D01*
X121331500Y-98225500D01*
X122137820Y-98225500D01*
X122207639Y-98246613D01*
X122304060Y-98310796D01*
X122427233Y-98349278D01*
X122436203Y-98349442D01*
X122436207Y-98349443D01*
X122494942Y-98350519D01*
X122556255Y-98351643D01*
X122618505Y-98334671D01*
X122672092Y-98320062D01*
X122672093Y-98320062D01*
X122680755Y-98317700D01*
X122688405Y-98313003D01*
X122688407Y-98313002D01*
X122783072Y-98254878D01*
X122783075Y-98254875D01*
X122790724Y-98250179D01*
X122796750Y-98243522D01*
X122871300Y-98161161D01*
X122871303Y-98161157D01*
X122877322Y-98154507D01*
X122933588Y-98038375D01*
X122935923Y-98024500D01*
X122954190Y-97915917D01*
X122954997Y-97911120D01*
X122955133Y-97900000D01*
X122944019Y-97822394D01*
X122938112Y-97781145D01*
X122938111Y-97781142D01*
X122936839Y-97772259D01*
X122912923Y-97719658D01*
X122887145Y-97662962D01*
X122887143Y-97662959D01*
X122883428Y-97654788D01*
X122852103Y-97618433D01*
X122805051Y-97563826D01*
X122805049Y-97563824D01*
X122799193Y-97557028D01*
X122690906Y-97486841D01*
X122682311Y-97484271D01*
X122682310Y-97484270D01*
X122575874Y-97452438D01*
X122575872Y-97452438D01*
X122567273Y-97449866D01*
X122558298Y-97449811D01*
X122558297Y-97449811D01*
X122503641Y-97449477D01*
X122438231Y-97449078D01*
X122376193Y-97466808D01*
X122322786Y-97482072D01*
X122322784Y-97482073D01*
X122314155Y-97484539D01*
X122205019Y-97553399D01*
X122203353Y-97550759D01*
X122152652Y-97573372D01*
X122135829Y-97574500D01*
X121527538Y-97574500D01*
X121459417Y-97554498D01*
X121412924Y-97500842D01*
X121402507Y-97440362D01*
X121404263Y-97433807D01*
X121400979Y-97396269D01*
X121400500Y-97385288D01*
X121400500Y-97302000D01*
X121420502Y-97233879D01*
X121474158Y-97187386D01*
X121526500Y-97176000D01*
X121969748Y-97176000D01*
X122025421Y-97164926D01*
X122074579Y-97164926D01*
X122130252Y-97176000D01*
X122619748Y-97176000D01*
X122675421Y-97164926D01*
X122724579Y-97164926D01*
X122780252Y-97176000D01*
X123269748Y-97176000D01*
X123288480Y-97172274D01*
X123316061Y-97166788D01*
X123316062Y-97166788D01*
X123328231Y-97164367D01*
X123338548Y-97157473D01*
X123338551Y-97157472D01*
X123339855Y-97156601D01*
X123343130Y-97155576D01*
X123350017Y-97152723D01*
X123350272Y-97153340D01*
X123407608Y-97135389D01*
X123476075Y-97154174D01*
G37*
%TD.AperFunction*%
%TA.AperFunction,Conductor*%
G36*
X119916121Y-97666002D02*
G01*
X119962614Y-97719658D01*
X119974000Y-97772000D01*
X119974000Y-98123885D01*
X119978475Y-98139124D01*
X119979865Y-98140329D01*
X119987548Y-98142000D01*
X120048000Y-98142000D01*
X120116121Y-98162002D01*
X120162614Y-98215658D01*
X120174000Y-98268000D01*
X120174000Y-99128000D01*
X120153998Y-99196121D01*
X120100342Y-99242614D01*
X120048000Y-99254000D01*
X119166516Y-99254000D01*
X119098395Y-99233998D01*
X119077421Y-99217095D01*
X118662405Y-98802079D01*
X118628379Y-98739767D01*
X118625500Y-98712984D01*
X118625500Y-98212516D01*
X118645502Y-98144395D01*
X118662405Y-98123421D01*
X118718191Y-98067635D01*
X118780503Y-98033609D01*
X118851318Y-98038674D01*
X118908154Y-98081221D01*
X118932898Y-98146847D01*
X118934386Y-98165755D01*
X118936688Y-98178359D01*
X118978357Y-98321784D01*
X118984604Y-98336220D01*
X119059876Y-98463499D01*
X119069516Y-98475926D01*
X119124191Y-98530601D01*
X119158217Y-98592913D01*
X119156093Y-98654850D01*
X119136687Y-98721644D01*
X119135232Y-98729609D01*
X119138052Y-98743031D01*
X119149513Y-98746000D01*
X119447885Y-98746000D01*
X119463124Y-98741525D01*
X119464329Y-98740135D01*
X119466000Y-98732452D01*
X119466000Y-97772000D01*
X119486002Y-97703879D01*
X119539658Y-97657386D01*
X119592000Y-97646000D01*
X119848000Y-97646000D01*
X119916121Y-97666002D01*
G37*
%TD.AperFunction*%
%TA.AperFunction,Conductor*%
G36*
X124028105Y-93545502D02*
G01*
X124074598Y-93599158D01*
X124084702Y-93669432D01*
X124055208Y-93734012D01*
X124049079Y-93740595D01*
X122976579Y-94813095D01*
X122914267Y-94847121D01*
X122887484Y-94850000D01*
X122494710Y-94850000D01*
X122483728Y-94849520D01*
X122457175Y-94847197D01*
X122457170Y-94847197D01*
X122446193Y-94846237D01*
X122409783Y-94855992D01*
X122399076Y-94858366D01*
X122361955Y-94864912D01*
X122352411Y-94870422D01*
X122349135Y-94871614D01*
X122345964Y-94873093D01*
X122335316Y-94875946D01*
X122326287Y-94882268D01*
X122304449Y-94897559D01*
X122295179Y-94903464D01*
X122272092Y-94916793D01*
X122272088Y-94916796D01*
X122262545Y-94922306D01*
X122255460Y-94930750D01*
X122238319Y-94951177D01*
X122230893Y-94959280D01*
X122158781Y-95031392D01*
X122150678Y-95038818D01*
X122121806Y-95063045D01*
X122116293Y-95072594D01*
X122102961Y-95095685D01*
X122097055Y-95104956D01*
X122075446Y-95135816D01*
X122072592Y-95146466D01*
X122071115Y-95149634D01*
X122069922Y-95152911D01*
X122064412Y-95162455D01*
X122062498Y-95173310D01*
X122058519Y-95195878D01*
X122026992Y-95259491D01*
X121966079Y-95295961D01*
X121934433Y-95300000D01*
X121480252Y-95300000D01*
X121424579Y-95311074D01*
X121375421Y-95311074D01*
X121319748Y-95300000D01*
X121197646Y-95300000D01*
X121129525Y-95279998D01*
X121096820Y-95249565D01*
X121018285Y-95144776D01*
X121005724Y-95132215D01*
X120903649Y-95055714D01*
X120888054Y-95047176D01*
X120767606Y-95002022D01*
X120752351Y-94998395D01*
X120701486Y-94992869D01*
X120694672Y-94992500D01*
X120668115Y-94992500D01*
X120652876Y-94996975D01*
X120651671Y-94998365D01*
X120650000Y-95006048D01*
X120650000Y-95475674D01*
X120649833Y-95479078D01*
X120649500Y-95480752D01*
X120649500Y-96337000D01*
X120629498Y-96405121D01*
X120575842Y-96451614D01*
X120523500Y-96463000D01*
X120326500Y-96463000D01*
X120258379Y-96442998D01*
X120211886Y-96389342D01*
X120200500Y-96337000D01*
X120200500Y-95480752D01*
X120200167Y-95479078D01*
X120200000Y-95475674D01*
X120200000Y-95010616D01*
X120195525Y-94995377D01*
X120188412Y-94989213D01*
X120137406Y-94961363D01*
X120103380Y-94899052D01*
X120100500Y-94872266D01*
X120100500Y-93884809D01*
X120120502Y-93816688D01*
X120137405Y-93795713D01*
X120370715Y-93562404D01*
X120433027Y-93528379D01*
X120459810Y-93525500D01*
X123959984Y-93525500D01*
X124028105Y-93545502D01*
G37*
%TD.AperFunction*%
%TA.AperFunction,Conductor*%
G36*
X119700896Y-93095502D02*
G01*
X119747389Y-93149158D01*
X119757493Y-93219432D01*
X119727999Y-93284012D01*
X119721870Y-93290595D01*
X119558777Y-93453688D01*
X119550674Y-93461114D01*
X119521806Y-93485337D01*
X119516293Y-93494886D01*
X119502961Y-93517977D01*
X119497055Y-93527248D01*
X119475446Y-93558108D01*
X119472592Y-93568758D01*
X119471115Y-93571926D01*
X119469923Y-93575202D01*
X119464412Y-93584747D01*
X119459182Y-93614412D01*
X119457870Y-93621850D01*
X119455492Y-93632577D01*
X119445736Y-93668985D01*
X119446697Y-93679970D01*
X119446697Y-93679972D01*
X119449020Y-93706520D01*
X119449500Y-93717502D01*
X119449500Y-95174000D01*
X119429498Y-95242121D01*
X119375842Y-95288614D01*
X119323500Y-95300000D01*
X118880252Y-95300000D01*
X118824579Y-95311074D01*
X118775421Y-95311074D01*
X118719748Y-95300000D01*
X118276500Y-95300000D01*
X118208379Y-95279998D01*
X118161886Y-95226342D01*
X118150500Y-95174000D01*
X118150500Y-94298412D01*
X118170502Y-94230291D01*
X118187405Y-94209317D01*
X119284317Y-93112405D01*
X119346629Y-93078379D01*
X119373412Y-93075500D01*
X119632775Y-93075500D01*
X119700896Y-93095502D01*
G37*
%TD.AperFunction*%
%TA.AperFunction,Conductor*%
G36*
X125441278Y-89595502D02*
G01*
X125487771Y-89649158D01*
X125497875Y-89719432D01*
X125468381Y-89784012D01*
X125462252Y-89790595D01*
X124190752Y-91062095D01*
X124128440Y-91096121D01*
X124101657Y-91099000D01*
X123576500Y-91099000D01*
X123508379Y-91078998D01*
X123461886Y-91025342D01*
X123450500Y-90973000D01*
X123450500Y-90814218D01*
X123470502Y-90746097D01*
X123524158Y-90699604D01*
X123587482Y-90688698D01*
X123599734Y-90689770D01*
X123605821Y-90690303D01*
X123605822Y-90690303D01*
X123616807Y-90691264D01*
X123653215Y-90681508D01*
X123663942Y-90679130D01*
X123667301Y-90678538D01*
X123701045Y-90672588D01*
X123710590Y-90667077D01*
X123713866Y-90665885D01*
X123717034Y-90664408D01*
X123727684Y-90661554D01*
X123758544Y-90639945D01*
X123767815Y-90634039D01*
X123790906Y-90620707D01*
X123800455Y-90615194D01*
X123824685Y-90586317D01*
X123832111Y-90578215D01*
X123972788Y-90437538D01*
X124035100Y-90403512D01*
X124046309Y-90401599D01*
X124047277Y-90401478D01*
X124056255Y-90401643D01*
X124118505Y-90384672D01*
X124172092Y-90370062D01*
X124172093Y-90370062D01*
X124180755Y-90367700D01*
X124188405Y-90363003D01*
X124188407Y-90363002D01*
X124283072Y-90304878D01*
X124283075Y-90304875D01*
X124290724Y-90300179D01*
X124296750Y-90293522D01*
X124371300Y-90211161D01*
X124371303Y-90211157D01*
X124377322Y-90204507D01*
X124433588Y-90088375D01*
X124454997Y-89961120D01*
X124455133Y-89950000D01*
X124439652Y-89841902D01*
X124438112Y-89831145D01*
X124438111Y-89831142D01*
X124436839Y-89822259D01*
X124419449Y-89784012D01*
X124405645Y-89753651D01*
X124395659Y-89683360D01*
X124425259Y-89618829D01*
X124485049Y-89580545D01*
X124520346Y-89575500D01*
X125373157Y-89575500D01*
X125441278Y-89595502D01*
G37*
%TD.AperFunction*%
%TD*%
M02*
