%TF.GenerationSoftware,KiCad,Pcbnew,6.0.7-f9a2dced07~116~ubuntu20.04.1*%
%TF.CreationDate,2022-09-24T19:15:38+02:00*%
%TF.ProjectId,SRRReceiver,53525252-6563-4656-9976-65722e6b6963,rev?*%
%TF.SameCoordinates,Original*%
%TF.FileFunction,Copper,L2,Inr*%
%TF.FilePolarity,Positive*%
%FSLAX46Y46*%
G04 Gerber Fmt 4.6, Leading zero omitted, Abs format (unit mm)*
G04 Created by KiCad (PCBNEW 6.0.7-f9a2dced07~116~ubuntu20.04.1) date 2022-09-24 19:15:38*
%MOMM*%
%LPD*%
G01*
G04 APERTURE LIST*
%TA.AperFunction,ComponentPad*%
%ADD10R,0.500000X0.900000*%
%TD*%
%TA.AperFunction,ViaPad*%
%ADD11C,0.500000*%
%TD*%
G04 APERTURE END LIST*
D10*
%TO.N,GND*%
%TO.C,AE2*%
X133000000Y-82550000D03*
%TD*%
%TO.N,GND*%
%TO.C,AE1*%
X115600000Y-95900000D03*
%TD*%
D11*
%TO.N,GND*%
X121900000Y-88100000D03*
X130300000Y-79250000D03*
X120300000Y-83300000D03*
X130300000Y-99300000D03*
X127100000Y-96000000D03*
X130250000Y-80400000D03*
X116500000Y-98400000D03*
X128700000Y-85700000D03*
X126850000Y-80350000D03*
X116400000Y-92600000D03*
X118874500Y-98600000D03*
X132200000Y-87100000D03*
X125100000Y-79200000D03*
X124200000Y-90700000D03*
X128750000Y-81250000D03*
X116600000Y-79200000D03*
X126300000Y-79200000D03*
X117800000Y-92000000D03*
X116400000Y-91500000D03*
X116075500Y-82700000D03*
X131800000Y-94600000D03*
X121150000Y-83300000D03*
X125650000Y-85350000D03*
X127700000Y-79200000D03*
X118000000Y-79200000D03*
X119900000Y-79200000D03*
X116500000Y-97400000D03*
X131600000Y-81500000D03*
X125300000Y-97500000D03*
X127900000Y-85900000D03*
X121100000Y-84200000D03*
X116600000Y-89000000D03*
X116400000Y-90400000D03*
X129968767Y-92881233D03*
X122500000Y-93900000D03*
X131800000Y-91500000D03*
X128100000Y-96000000D03*
X118300000Y-86400000D03*
X131800000Y-90400000D03*
X131650000Y-79250000D03*
X131100000Y-89300000D03*
X116300000Y-94900000D03*
X132200000Y-86000000D03*
X131650000Y-80400000D03*
X117600000Y-99400000D03*
X116500000Y-99400000D03*
X132000000Y-99200000D03*
X128850000Y-82350000D03*
X116600000Y-80200000D03*
X130900000Y-97400000D03*
X117800000Y-80000000D03*
X122200000Y-79200000D03*
X116200000Y-86850000D03*
X119222082Y-93541804D03*
X120300000Y-84200000D03*
X118750000Y-94100000D03*
X127100000Y-95100000D03*
X130300000Y-91500000D03*
X131600000Y-82550000D03*
X128050000Y-81600000D03*
X132000000Y-98100000D03*
X121700000Y-98800000D03*
X131100000Y-88100000D03*
X129100000Y-79250000D03*
X127750000Y-80350000D03*
X117050000Y-92100000D03*
X123800000Y-79200000D03*
X127100000Y-91450000D03*
X128100000Y-95100000D03*
X120700000Y-93900000D03*
X131100000Y-98600000D03*
X125200000Y-82300000D03*
X121000000Y-79600000D03*
X129100000Y-90400000D03*
X129100000Y-80350000D03*
%TO.N,SPI2_MOSI*%
X129200000Y-97600000D03*
%TO.N,SPI2_NSS*%
X129300000Y-92400000D03*
%TO.N,VDD*%
X124475500Y-85550000D03*
X125400000Y-93200000D03*
X124600000Y-96300000D03*
X123450000Y-87750000D03*
X127200000Y-98924500D03*
X127068951Y-92198355D03*
X117800000Y-84600000D03*
X130635298Y-94764702D03*
X124600000Y-94500000D03*
X121522266Y-87122266D03*
X123637500Y-82387500D03*
X122500000Y-97900000D03*
X120700000Y-80778732D03*
%TO.N,SPI2_SCK*%
X130200000Y-97800000D03*
%TO.N,SPI1_SCK*%
X117775500Y-81000000D03*
%TO.N,SPI1_MISO*%
X117000000Y-81800000D03*
%TO.N,SPI1_NSS*%
X119300000Y-87300000D03*
%TO.N,SPI2_MISO*%
X130500000Y-96100000D03*
X124000000Y-89950000D03*
%TO.N,SPI1_MOSI*%
X119400000Y-81350000D03*
%TO.N,GD0_INT_2*%
X129100000Y-93700000D03*
X117500000Y-97700000D03*
%TO.N,GD0_INT_1*%
X117236803Y-89289456D03*
X119500000Y-85650000D03*
%TD*%
%TA.AperFunction,Conductor*%
%TO.N,GND*%
G36*
X132458691Y-78719407D02*
G01*
X132494655Y-78768907D01*
X132499500Y-78799500D01*
X132499500Y-81432654D01*
X132508717Y-81445341D01*
X132509044Y-81446346D01*
X132509665Y-81447200D01*
X132514510Y-81462112D01*
X132527194Y-81471328D01*
X132527816Y-81472184D01*
X132528672Y-81472806D01*
X132537888Y-81485490D01*
X132552800Y-81490335D01*
X132553654Y-81490956D01*
X132554659Y-81491283D01*
X132567346Y-81500500D01*
X133101000Y-81500500D01*
X133159191Y-81519407D01*
X133195155Y-81568907D01*
X133200000Y-81599500D01*
X133200000Y-96800500D01*
X133181093Y-96858691D01*
X133131593Y-96894655D01*
X133101000Y-96899500D01*
X132567346Y-96899500D01*
X132554659Y-96908717D01*
X132553654Y-96909044D01*
X132552800Y-96909665D01*
X132537888Y-96914510D01*
X132528672Y-96927194D01*
X132527816Y-96927816D01*
X132527194Y-96928672D01*
X132514510Y-96937888D01*
X132509665Y-96952800D01*
X132509044Y-96953654D01*
X132508717Y-96954659D01*
X132499500Y-96967346D01*
X132499500Y-99600500D01*
X132480593Y-99658691D01*
X132431093Y-99694655D01*
X132400500Y-99699500D01*
X116199500Y-99699500D01*
X116141309Y-99680593D01*
X116105345Y-99631093D01*
X116100500Y-99600500D01*
X116100500Y-98918940D01*
X126744901Y-98918940D01*
X126745816Y-98925937D01*
X126745816Y-98925938D01*
X126747082Y-98935620D01*
X126761633Y-99046894D01*
X126764471Y-99053345D01*
X126764472Y-99053347D01*
X126771458Y-99069224D01*
X126813605Y-99165010D01*
X126855122Y-99214401D01*
X126892100Y-99258392D01*
X126892103Y-99258394D01*
X126896639Y-99263791D01*
X127004060Y-99335296D01*
X127010788Y-99337398D01*
X127010790Y-99337399D01*
X127065646Y-99354537D01*
X127127233Y-99373778D01*
X127191744Y-99374960D01*
X127249202Y-99376014D01*
X127249204Y-99376014D01*
X127256255Y-99376143D01*
X127263058Y-99374288D01*
X127263060Y-99374288D01*
X127304828Y-99362900D01*
X127380755Y-99342200D01*
X127490724Y-99274679D01*
X127577322Y-99179007D01*
X127633588Y-99062875D01*
X127654997Y-98935620D01*
X127655133Y-98924500D01*
X127636839Y-98796759D01*
X127583428Y-98679288D01*
X127499193Y-98581528D01*
X127493276Y-98577693D01*
X127493274Y-98577691D01*
X127396824Y-98515177D01*
X127390906Y-98511341D01*
X127384150Y-98509321D01*
X127384149Y-98509320D01*
X127341335Y-98496516D01*
X127267273Y-98474366D01*
X127190644Y-98473898D01*
X127145282Y-98473621D01*
X127138231Y-98473578D01*
X127131454Y-98475515D01*
X127131453Y-98475515D01*
X127020935Y-98507101D01*
X127020933Y-98507102D01*
X127014155Y-98509039D01*
X126905019Y-98577899D01*
X126819596Y-98674622D01*
X126764754Y-98791432D01*
X126744901Y-98918940D01*
X116100500Y-98918940D01*
X116100500Y-97694440D01*
X117044901Y-97694440D01*
X117045816Y-97701437D01*
X117045816Y-97701438D01*
X117047082Y-97711120D01*
X117061633Y-97822394D01*
X117064471Y-97828845D01*
X117064472Y-97828847D01*
X117108473Y-97928847D01*
X117113605Y-97940510D01*
X117155122Y-97989901D01*
X117192100Y-98033892D01*
X117192103Y-98033894D01*
X117196639Y-98039291D01*
X117304060Y-98110796D01*
X117310788Y-98112898D01*
X117310790Y-98112899D01*
X117365647Y-98130037D01*
X117427233Y-98149278D01*
X117491744Y-98150460D01*
X117549202Y-98151514D01*
X117549204Y-98151514D01*
X117556255Y-98151643D01*
X117563058Y-98149788D01*
X117563060Y-98149788D01*
X117621364Y-98133892D01*
X117680755Y-98117700D01*
X117790724Y-98050179D01*
X117800579Y-98039291D01*
X117872590Y-97959735D01*
X117872590Y-97959734D01*
X117877322Y-97954507D01*
X117906424Y-97894440D01*
X122044901Y-97894440D01*
X122045816Y-97901437D01*
X122045816Y-97901438D01*
X122047082Y-97911120D01*
X122061633Y-98022394D01*
X122064471Y-98028845D01*
X122064472Y-98028847D01*
X122101456Y-98112899D01*
X122113605Y-98140510D01*
X122155122Y-98189900D01*
X122192100Y-98233892D01*
X122192103Y-98233894D01*
X122196639Y-98239291D01*
X122304060Y-98310796D01*
X122310788Y-98312898D01*
X122310790Y-98312899D01*
X122365646Y-98330037D01*
X122427233Y-98349278D01*
X122491744Y-98350460D01*
X122549202Y-98351514D01*
X122549204Y-98351514D01*
X122556255Y-98351643D01*
X122563058Y-98349788D01*
X122563060Y-98349788D01*
X122604828Y-98338400D01*
X122680755Y-98317700D01*
X122790724Y-98250179D01*
X122805466Y-98233892D01*
X122872590Y-98159735D01*
X122872590Y-98159734D01*
X122877322Y-98154507D01*
X122928243Y-98049407D01*
X122930512Y-98044724D01*
X122930512Y-98044723D01*
X122933588Y-98038375D01*
X122952015Y-97928847D01*
X122954363Y-97914891D01*
X122954363Y-97914886D01*
X122954997Y-97911120D01*
X122955133Y-97900000D01*
X122936839Y-97772259D01*
X122883428Y-97654788D01*
X122831429Y-97594440D01*
X128744901Y-97594440D01*
X128761633Y-97722394D01*
X128764471Y-97728845D01*
X128764472Y-97728847D01*
X128808473Y-97828847D01*
X128813605Y-97840510D01*
X128853076Y-97887466D01*
X128892100Y-97933892D01*
X128892103Y-97933894D01*
X128896639Y-97939291D01*
X129004060Y-98010796D01*
X129010788Y-98012898D01*
X129010790Y-98012899D01*
X129065646Y-98030037D01*
X129127233Y-98049278D01*
X129191744Y-98050461D01*
X129249202Y-98051514D01*
X129249204Y-98051514D01*
X129256255Y-98051643D01*
X129263058Y-98049788D01*
X129263060Y-98049788D01*
X129321364Y-98033892D01*
X129380755Y-98017700D01*
X129490724Y-97950179D01*
X129501409Y-97938375D01*
X129572589Y-97859736D01*
X129577322Y-97854507D01*
X129578955Y-97851137D01*
X129625974Y-97814401D01*
X129687122Y-97812266D01*
X129737847Y-97846481D01*
X129757998Y-97894594D01*
X129761633Y-97922394D01*
X129764471Y-97928845D01*
X129764472Y-97928847D01*
X129808473Y-98028847D01*
X129813605Y-98040510D01*
X129855122Y-98089901D01*
X129892100Y-98133892D01*
X129892103Y-98133894D01*
X129896639Y-98139291D01*
X130004060Y-98210796D01*
X130010788Y-98212898D01*
X130010790Y-98212899D01*
X130065646Y-98230037D01*
X130127233Y-98249278D01*
X130191744Y-98250461D01*
X130249202Y-98251514D01*
X130249204Y-98251514D01*
X130256255Y-98251643D01*
X130263058Y-98249788D01*
X130263060Y-98249788D01*
X130321364Y-98233892D01*
X130380755Y-98217700D01*
X130490724Y-98150179D01*
X130505466Y-98133892D01*
X130572590Y-98059735D01*
X130572590Y-98059734D01*
X130577322Y-98054507D01*
X130633588Y-97938375D01*
X130652015Y-97828847D01*
X130654363Y-97814891D01*
X130654363Y-97814886D01*
X130654997Y-97811120D01*
X130655133Y-97800000D01*
X130636839Y-97672259D01*
X130598286Y-97587466D01*
X130586349Y-97561212D01*
X130586348Y-97561211D01*
X130583428Y-97554788D01*
X130518334Y-97479242D01*
X130503798Y-97462372D01*
X130503797Y-97462371D01*
X130499193Y-97457028D01*
X130493276Y-97453193D01*
X130493274Y-97453191D01*
X130396824Y-97390677D01*
X130390906Y-97386841D01*
X130384150Y-97384821D01*
X130384149Y-97384820D01*
X130309089Y-97362372D01*
X130267273Y-97349866D01*
X130190644Y-97349398D01*
X130145282Y-97349121D01*
X130138231Y-97349078D01*
X130131454Y-97351015D01*
X130131453Y-97351015D01*
X130020935Y-97382601D01*
X130020933Y-97382602D01*
X130014155Y-97384539D01*
X129905019Y-97453399D01*
X129820585Y-97549002D01*
X129820584Y-97549003D01*
X129820025Y-97549636D01*
X129819596Y-97550122D01*
X129819402Y-97549950D01*
X129774825Y-97585666D01*
X129713708Y-97588550D01*
X129662567Y-97554960D01*
X129641828Y-97507094D01*
X129637839Y-97479242D01*
X129636839Y-97472259D01*
X129583428Y-97354788D01*
X129499193Y-97257028D01*
X129493276Y-97253193D01*
X129493274Y-97253191D01*
X129396824Y-97190677D01*
X129390906Y-97186841D01*
X129384150Y-97184821D01*
X129384149Y-97184820D01*
X129341335Y-97172016D01*
X129267273Y-97149866D01*
X129190644Y-97149398D01*
X129145282Y-97149121D01*
X129138231Y-97149078D01*
X129131454Y-97151015D01*
X129131453Y-97151015D01*
X129020935Y-97182601D01*
X129020933Y-97182602D01*
X129014155Y-97184539D01*
X128905019Y-97253399D01*
X128819596Y-97350122D01*
X128764754Y-97466932D01*
X128744901Y-97594440D01*
X122831429Y-97594440D01*
X122818335Y-97579243D01*
X122803798Y-97562372D01*
X122803797Y-97562371D01*
X122799193Y-97557028D01*
X122793276Y-97553193D01*
X122793274Y-97553191D01*
X122696824Y-97490677D01*
X122690906Y-97486841D01*
X122684150Y-97484821D01*
X122684149Y-97484820D01*
X122609089Y-97462372D01*
X122567273Y-97449866D01*
X122490644Y-97449398D01*
X122445282Y-97449121D01*
X122438231Y-97449078D01*
X122431454Y-97451015D01*
X122431453Y-97451015D01*
X122320935Y-97482601D01*
X122320933Y-97482602D01*
X122314155Y-97484539D01*
X122205019Y-97553399D01*
X122119596Y-97650122D01*
X122064754Y-97766932D01*
X122044901Y-97894440D01*
X117906424Y-97894440D01*
X117933588Y-97838375D01*
X117952015Y-97728847D01*
X117954363Y-97714891D01*
X117954363Y-97714886D01*
X117954997Y-97711120D01*
X117955133Y-97700000D01*
X117936839Y-97572259D01*
X117883428Y-97454788D01*
X117799193Y-97357028D01*
X117793276Y-97353193D01*
X117793274Y-97353191D01*
X117696824Y-97290677D01*
X117690906Y-97286841D01*
X117684150Y-97284821D01*
X117684149Y-97284820D01*
X117609089Y-97262372D01*
X117567273Y-97249866D01*
X117490644Y-97249398D01*
X117445282Y-97249121D01*
X117438231Y-97249078D01*
X117431454Y-97251015D01*
X117431453Y-97251015D01*
X117320935Y-97282601D01*
X117320933Y-97282602D01*
X117314155Y-97284539D01*
X117205019Y-97353399D01*
X117119596Y-97450122D01*
X117064754Y-97566932D01*
X117044901Y-97694440D01*
X116100500Y-97694440D01*
X116100500Y-96967346D01*
X116091283Y-96954659D01*
X116090956Y-96953654D01*
X116090335Y-96952800D01*
X116085490Y-96937888D01*
X116072806Y-96928672D01*
X116072184Y-96927816D01*
X116071328Y-96927194D01*
X116062112Y-96914510D01*
X116047200Y-96909665D01*
X116046346Y-96909044D01*
X116045341Y-96908717D01*
X116032654Y-96899500D01*
X115499000Y-96899500D01*
X115440809Y-96880593D01*
X115404845Y-96831093D01*
X115400000Y-96800500D01*
X115400000Y-96294440D01*
X124144901Y-96294440D01*
X124145816Y-96301437D01*
X124145816Y-96301438D01*
X124147082Y-96311120D01*
X124161633Y-96422394D01*
X124164471Y-96428845D01*
X124164472Y-96428847D01*
X124201456Y-96512899D01*
X124213605Y-96540510D01*
X124255122Y-96589900D01*
X124292100Y-96633892D01*
X124292103Y-96633894D01*
X124296639Y-96639291D01*
X124404060Y-96710796D01*
X124410788Y-96712898D01*
X124410790Y-96712899D01*
X124465647Y-96730037D01*
X124527233Y-96749278D01*
X124591744Y-96750460D01*
X124649202Y-96751514D01*
X124649204Y-96751514D01*
X124656255Y-96751643D01*
X124663058Y-96749788D01*
X124663060Y-96749788D01*
X124704828Y-96738400D01*
X124780755Y-96717700D01*
X124890724Y-96650179D01*
X124977322Y-96554507D01*
X125033588Y-96438375D01*
X125054997Y-96311120D01*
X125055133Y-96300000D01*
X125036839Y-96172259D01*
X125001457Y-96094440D01*
X130044901Y-96094440D01*
X130045816Y-96101437D01*
X130045816Y-96101438D01*
X130047082Y-96111120D01*
X130061633Y-96222394D01*
X130064471Y-96228845D01*
X130064472Y-96228847D01*
X130095780Y-96300000D01*
X130113605Y-96340510D01*
X130155122Y-96389900D01*
X130192100Y-96433892D01*
X130192103Y-96433894D01*
X130196639Y-96439291D01*
X130304060Y-96510796D01*
X130310788Y-96512898D01*
X130310790Y-96512899D01*
X130365647Y-96530037D01*
X130427233Y-96549278D01*
X130491744Y-96550460D01*
X130549202Y-96551514D01*
X130549204Y-96551514D01*
X130556255Y-96551643D01*
X130563058Y-96549788D01*
X130563060Y-96549788D01*
X130620770Y-96534054D01*
X130680755Y-96517700D01*
X130790724Y-96450179D01*
X130800579Y-96439291D01*
X130872590Y-96359735D01*
X130872590Y-96359734D01*
X130877322Y-96354507D01*
X130933588Y-96238375D01*
X130954997Y-96111120D01*
X130955133Y-96100000D01*
X130936839Y-95972259D01*
X130883428Y-95854788D01*
X130799193Y-95757028D01*
X130793276Y-95753193D01*
X130793274Y-95753191D01*
X130696824Y-95690677D01*
X130690906Y-95686841D01*
X130684150Y-95684821D01*
X130684149Y-95684820D01*
X130641335Y-95672016D01*
X130567273Y-95649866D01*
X130490644Y-95649398D01*
X130445282Y-95649121D01*
X130438231Y-95649078D01*
X130431454Y-95651015D01*
X130431453Y-95651015D01*
X130320935Y-95682601D01*
X130320933Y-95682602D01*
X130314155Y-95684539D01*
X130205019Y-95753399D01*
X130119596Y-95850122D01*
X130064754Y-95966932D01*
X130044901Y-96094440D01*
X125001457Y-96094440D01*
X124983428Y-96054788D01*
X124918335Y-95979243D01*
X124903798Y-95962372D01*
X124903797Y-95962371D01*
X124899193Y-95957028D01*
X124893276Y-95953193D01*
X124893274Y-95953191D01*
X124796824Y-95890677D01*
X124790906Y-95886841D01*
X124784150Y-95884821D01*
X124784149Y-95884820D01*
X124741335Y-95872016D01*
X124667273Y-95849866D01*
X124590644Y-95849398D01*
X124545282Y-95849121D01*
X124538231Y-95849078D01*
X124531454Y-95851015D01*
X124531453Y-95851015D01*
X124420935Y-95882601D01*
X124420933Y-95882602D01*
X124414155Y-95884539D01*
X124305019Y-95953399D01*
X124219596Y-96050122D01*
X124164754Y-96166932D01*
X124144901Y-96294440D01*
X115400000Y-96294440D01*
X115400000Y-94494440D01*
X124144901Y-94494440D01*
X124145816Y-94501437D01*
X124145816Y-94501438D01*
X124147575Y-94514891D01*
X124161633Y-94622394D01*
X124164471Y-94628845D01*
X124164472Y-94628847D01*
X124171458Y-94644724D01*
X124213605Y-94740510D01*
X124237156Y-94768527D01*
X124292100Y-94833892D01*
X124292103Y-94833894D01*
X124296639Y-94839291D01*
X124404060Y-94910796D01*
X124410788Y-94912898D01*
X124410790Y-94912899D01*
X124465647Y-94930037D01*
X124527233Y-94949278D01*
X124591744Y-94950460D01*
X124649202Y-94951514D01*
X124649204Y-94951514D01*
X124656255Y-94951643D01*
X124663058Y-94949788D01*
X124663060Y-94949788D01*
X124704828Y-94938400D01*
X124780755Y-94917700D01*
X124890724Y-94850179D01*
X124968094Y-94764702D01*
X124972590Y-94759735D01*
X124972590Y-94759734D01*
X124973126Y-94759142D01*
X130180199Y-94759142D01*
X130181114Y-94766139D01*
X130181114Y-94766140D01*
X130182380Y-94775822D01*
X130196931Y-94887096D01*
X130199769Y-94893547D01*
X130199770Y-94893549D01*
X130224348Y-94949407D01*
X130248903Y-95005212D01*
X130290420Y-95054602D01*
X130327398Y-95098594D01*
X130327401Y-95098596D01*
X130331937Y-95103993D01*
X130439358Y-95175498D01*
X130446086Y-95177600D01*
X130446088Y-95177601D01*
X130500945Y-95194739D01*
X130562531Y-95213980D01*
X130627042Y-95215163D01*
X130684500Y-95216216D01*
X130684502Y-95216216D01*
X130691553Y-95216345D01*
X130698356Y-95214490D01*
X130698358Y-95214490D01*
X130740126Y-95203102D01*
X130816053Y-95182402D01*
X130926022Y-95114881D01*
X131012620Y-95019209D01*
X131061801Y-94917700D01*
X131065810Y-94909426D01*
X131065810Y-94909425D01*
X131068886Y-94903077D01*
X131079894Y-94837643D01*
X131089661Y-94779593D01*
X131089661Y-94779588D01*
X131090295Y-94775822D01*
X131090431Y-94764702D01*
X131072137Y-94636961D01*
X131018726Y-94519490D01*
X130934491Y-94421730D01*
X130928574Y-94417895D01*
X130928572Y-94417893D01*
X130832122Y-94355379D01*
X130826204Y-94351543D01*
X130819448Y-94349523D01*
X130819447Y-94349522D01*
X130776633Y-94336718D01*
X130702571Y-94314568D01*
X130625942Y-94314100D01*
X130580580Y-94313823D01*
X130573529Y-94313780D01*
X130566752Y-94315717D01*
X130566751Y-94315717D01*
X130456233Y-94347303D01*
X130456231Y-94347304D01*
X130449453Y-94349241D01*
X130340317Y-94418101D01*
X130254894Y-94514824D01*
X130200052Y-94631634D01*
X130180199Y-94759142D01*
X124973126Y-94759142D01*
X124977322Y-94754507D01*
X125033588Y-94638375D01*
X125052508Y-94525914D01*
X125054363Y-94514891D01*
X125054363Y-94514886D01*
X125054997Y-94511120D01*
X125055133Y-94500000D01*
X125036839Y-94372259D01*
X124983428Y-94254788D01*
X124899193Y-94157028D01*
X124893276Y-94153193D01*
X124893274Y-94153191D01*
X124796824Y-94090677D01*
X124790906Y-94086841D01*
X124784150Y-94084821D01*
X124784149Y-94084820D01*
X124680664Y-94053871D01*
X124667273Y-94049866D01*
X124590644Y-94049398D01*
X124545282Y-94049121D01*
X124538231Y-94049078D01*
X124531454Y-94051015D01*
X124531453Y-94051015D01*
X124420935Y-94082601D01*
X124420933Y-94082602D01*
X124414155Y-94084539D01*
X124305019Y-94153399D01*
X124219596Y-94250122D01*
X124164754Y-94366932D01*
X124144901Y-94494440D01*
X115400000Y-94494440D01*
X115400000Y-93694440D01*
X128644901Y-93694440D01*
X128645816Y-93701437D01*
X128645816Y-93701438D01*
X128647082Y-93711120D01*
X128661633Y-93822394D01*
X128664471Y-93828845D01*
X128664472Y-93828847D01*
X128671458Y-93844724D01*
X128713605Y-93940510D01*
X128755122Y-93989901D01*
X128792100Y-94033892D01*
X128792103Y-94033894D01*
X128796639Y-94039291D01*
X128904060Y-94110796D01*
X128910788Y-94112898D01*
X128910790Y-94112899D01*
X128965646Y-94130037D01*
X129027233Y-94149278D01*
X129091744Y-94150461D01*
X129149202Y-94151514D01*
X129149204Y-94151514D01*
X129156255Y-94151643D01*
X129163058Y-94149788D01*
X129163060Y-94149788D01*
X129204828Y-94138400D01*
X129280755Y-94117700D01*
X129390724Y-94050179D01*
X129477322Y-93954507D01*
X129533588Y-93838375D01*
X129554997Y-93711120D01*
X129555133Y-93700000D01*
X129536839Y-93572259D01*
X129483428Y-93454788D01*
X129399193Y-93357028D01*
X129393276Y-93353193D01*
X129393274Y-93353191D01*
X129296824Y-93290677D01*
X129290906Y-93286841D01*
X129284150Y-93284821D01*
X129284149Y-93284820D01*
X129241335Y-93272016D01*
X129167273Y-93249866D01*
X129090644Y-93249398D01*
X129045282Y-93249121D01*
X129038231Y-93249078D01*
X129031454Y-93251015D01*
X129031453Y-93251015D01*
X128920935Y-93282601D01*
X128920933Y-93282602D01*
X128914155Y-93284539D01*
X128805019Y-93353399D01*
X128719596Y-93450122D01*
X128664754Y-93566932D01*
X128644901Y-93694440D01*
X115400000Y-93694440D01*
X115400000Y-93194440D01*
X124944901Y-93194440D01*
X124945816Y-93201437D01*
X124945816Y-93201438D01*
X124947082Y-93211120D01*
X124961633Y-93322394D01*
X124964471Y-93328845D01*
X124964472Y-93328847D01*
X125010764Y-93434054D01*
X125013605Y-93440510D01*
X125031007Y-93461212D01*
X125092100Y-93533892D01*
X125092103Y-93533894D01*
X125096639Y-93539291D01*
X125204060Y-93610796D01*
X125210788Y-93612898D01*
X125210790Y-93612899D01*
X125265646Y-93630037D01*
X125327233Y-93649278D01*
X125391744Y-93650460D01*
X125449202Y-93651514D01*
X125449204Y-93651514D01*
X125456255Y-93651643D01*
X125463058Y-93649788D01*
X125463060Y-93649788D01*
X125504828Y-93638400D01*
X125580755Y-93617700D01*
X125690724Y-93550179D01*
X125777322Y-93454507D01*
X125833588Y-93338375D01*
X125848285Y-93251015D01*
X125854363Y-93214891D01*
X125854363Y-93214886D01*
X125854997Y-93211120D01*
X125855133Y-93200000D01*
X125836839Y-93072259D01*
X125783428Y-92954788D01*
X125699193Y-92857028D01*
X125693276Y-92853193D01*
X125693274Y-92853191D01*
X125596824Y-92790677D01*
X125590906Y-92786841D01*
X125584150Y-92784821D01*
X125584149Y-92784820D01*
X125480664Y-92753871D01*
X125467273Y-92749866D01*
X125390644Y-92749398D01*
X125345282Y-92749121D01*
X125338231Y-92749078D01*
X125331454Y-92751015D01*
X125331453Y-92751015D01*
X125220935Y-92782601D01*
X125220933Y-92782602D01*
X125214155Y-92784539D01*
X125105019Y-92853399D01*
X125019596Y-92950122D01*
X124964754Y-93066932D01*
X124944901Y-93194440D01*
X115400000Y-93194440D01*
X115400000Y-92192795D01*
X126613852Y-92192795D01*
X126614767Y-92199792D01*
X126614767Y-92199793D01*
X126616033Y-92209475D01*
X126630584Y-92320749D01*
X126633422Y-92327200D01*
X126633423Y-92327202D01*
X126670348Y-92411120D01*
X126682556Y-92438865D01*
X126724073Y-92488255D01*
X126761051Y-92532247D01*
X126761054Y-92532249D01*
X126765590Y-92537646D01*
X126873011Y-92609151D01*
X126879739Y-92611253D01*
X126879741Y-92611254D01*
X126934597Y-92628392D01*
X126996184Y-92647633D01*
X127060695Y-92648815D01*
X127118153Y-92649869D01*
X127118155Y-92649869D01*
X127125206Y-92649998D01*
X127132009Y-92648143D01*
X127132011Y-92648143D01*
X127183687Y-92634054D01*
X127249706Y-92616055D01*
X127359675Y-92548534D01*
X127365993Y-92541554D01*
X127441541Y-92458090D01*
X127441541Y-92458089D01*
X127446273Y-92452862D01*
X127474578Y-92394440D01*
X128844901Y-92394440D01*
X128845816Y-92401437D01*
X128845816Y-92401438D01*
X128847082Y-92411120D01*
X128861633Y-92522394D01*
X128864471Y-92528845D01*
X128864472Y-92528847D01*
X128903660Y-92617909D01*
X128913605Y-92640510D01*
X128955122Y-92689900D01*
X128992100Y-92733892D01*
X128992103Y-92733894D01*
X128996639Y-92739291D01*
X129104060Y-92810796D01*
X129110788Y-92812898D01*
X129110790Y-92812899D01*
X129165647Y-92830037D01*
X129227233Y-92849278D01*
X129291744Y-92850460D01*
X129349202Y-92851514D01*
X129349204Y-92851514D01*
X129356255Y-92851643D01*
X129363058Y-92849788D01*
X129363060Y-92849788D01*
X129404828Y-92838400D01*
X129480755Y-92817700D01*
X129590724Y-92750179D01*
X129677322Y-92654507D01*
X129733588Y-92538375D01*
X129747095Y-92458090D01*
X129754363Y-92414891D01*
X129754363Y-92414886D01*
X129754997Y-92411120D01*
X129755133Y-92400000D01*
X129736839Y-92272259D01*
X129708293Y-92209475D01*
X129686349Y-92161212D01*
X129686348Y-92161211D01*
X129683428Y-92154788D01*
X129612315Y-92072257D01*
X129603798Y-92062372D01*
X129603797Y-92062371D01*
X129599193Y-92057028D01*
X129593276Y-92053193D01*
X129593274Y-92053191D01*
X129496824Y-91990677D01*
X129490906Y-91986841D01*
X129484150Y-91984821D01*
X129484149Y-91984820D01*
X129399710Y-91959567D01*
X129367273Y-91949866D01*
X129290644Y-91949398D01*
X129245282Y-91949121D01*
X129238231Y-91949078D01*
X129231454Y-91951015D01*
X129231453Y-91951015D01*
X129120935Y-91982601D01*
X129120933Y-91982602D01*
X129114155Y-91984539D01*
X129005019Y-92053399D01*
X128919596Y-92150122D01*
X128864754Y-92266932D01*
X128844901Y-92394440D01*
X127474578Y-92394440D01*
X127502539Y-92336730D01*
X127514466Y-92265837D01*
X127523314Y-92213246D01*
X127523314Y-92213241D01*
X127523948Y-92209475D01*
X127524084Y-92198355D01*
X127505790Y-92070614D01*
X127452379Y-91953143D01*
X127368144Y-91855383D01*
X127362227Y-91851548D01*
X127362225Y-91851546D01*
X127265775Y-91789032D01*
X127259857Y-91785196D01*
X127253101Y-91783176D01*
X127253100Y-91783175D01*
X127210286Y-91770371D01*
X127136224Y-91748221D01*
X127059595Y-91747753D01*
X127014233Y-91747476D01*
X127007182Y-91747433D01*
X127000405Y-91749370D01*
X127000404Y-91749370D01*
X126889886Y-91780956D01*
X126889884Y-91780957D01*
X126883106Y-91782894D01*
X126773970Y-91851754D01*
X126688547Y-91948477D01*
X126633705Y-92065287D01*
X126613852Y-92192795D01*
X115400000Y-92192795D01*
X115400000Y-89944440D01*
X123544901Y-89944440D01*
X123545816Y-89951437D01*
X123545816Y-89951438D01*
X123547082Y-89961120D01*
X123561633Y-90072394D01*
X123564471Y-90078845D01*
X123564472Y-90078847D01*
X123571458Y-90094724D01*
X123613605Y-90190510D01*
X123655122Y-90239901D01*
X123692100Y-90283892D01*
X123692103Y-90283894D01*
X123696639Y-90289291D01*
X123804060Y-90360796D01*
X123810788Y-90362898D01*
X123810790Y-90362899D01*
X123865647Y-90380037D01*
X123927233Y-90399278D01*
X123991744Y-90400460D01*
X124049202Y-90401514D01*
X124049204Y-90401514D01*
X124056255Y-90401643D01*
X124063058Y-90399788D01*
X124063060Y-90399788D01*
X124104828Y-90388400D01*
X124180755Y-90367700D01*
X124290724Y-90300179D01*
X124377322Y-90204507D01*
X124433588Y-90088375D01*
X124454997Y-89961120D01*
X124455133Y-89950000D01*
X124436839Y-89822259D01*
X124383428Y-89704788D01*
X124299193Y-89607028D01*
X124293276Y-89603193D01*
X124293274Y-89603191D01*
X124196824Y-89540677D01*
X124190906Y-89536841D01*
X124184150Y-89534821D01*
X124184149Y-89534820D01*
X124141335Y-89522016D01*
X124067273Y-89499866D01*
X123990644Y-89499398D01*
X123945282Y-89499121D01*
X123938231Y-89499078D01*
X123931454Y-89501015D01*
X123931453Y-89501015D01*
X123820935Y-89532601D01*
X123820933Y-89532602D01*
X123814155Y-89534539D01*
X123705019Y-89603399D01*
X123619596Y-89700122D01*
X123564754Y-89816932D01*
X123544901Y-89944440D01*
X115400000Y-89944440D01*
X115400000Y-89283896D01*
X116781704Y-89283896D01*
X116782619Y-89290893D01*
X116782619Y-89290894D01*
X116783885Y-89300576D01*
X116798436Y-89411850D01*
X116801274Y-89418301D01*
X116801275Y-89418303D01*
X116837669Y-89501015D01*
X116850408Y-89529966D01*
X116891925Y-89579357D01*
X116928903Y-89623348D01*
X116928906Y-89623350D01*
X116933442Y-89628747D01*
X117040863Y-89700252D01*
X117047591Y-89702354D01*
X117047593Y-89702355D01*
X117102449Y-89719493D01*
X117164036Y-89738734D01*
X117228547Y-89739917D01*
X117286005Y-89740970D01*
X117286007Y-89740970D01*
X117293058Y-89741099D01*
X117299861Y-89739244D01*
X117299863Y-89739244D01*
X117341631Y-89727856D01*
X117417558Y-89707156D01*
X117527527Y-89639635D01*
X117552204Y-89612372D01*
X117609393Y-89549191D01*
X117609393Y-89549190D01*
X117614125Y-89543963D01*
X117670391Y-89427831D01*
X117691800Y-89300576D01*
X117691936Y-89289456D01*
X117673642Y-89161715D01*
X117620231Y-89044244D01*
X117535996Y-88946484D01*
X117530079Y-88942649D01*
X117530077Y-88942647D01*
X117433627Y-88880133D01*
X117427709Y-88876297D01*
X117420953Y-88874277D01*
X117420952Y-88874276D01*
X117378138Y-88861472D01*
X117304076Y-88839322D01*
X117227447Y-88838854D01*
X117182085Y-88838577D01*
X117175034Y-88838534D01*
X117168257Y-88840471D01*
X117168256Y-88840471D01*
X117057738Y-88872057D01*
X117057736Y-88872058D01*
X117050958Y-88873995D01*
X116941822Y-88942855D01*
X116856399Y-89039578D01*
X116801557Y-89156388D01*
X116781704Y-89283896D01*
X115400000Y-89283896D01*
X115400000Y-87294440D01*
X118844901Y-87294440D01*
X118845816Y-87301437D01*
X118845816Y-87301438D01*
X118847082Y-87311120D01*
X118861633Y-87422394D01*
X118864471Y-87428845D01*
X118864472Y-87428847D01*
X118908608Y-87529154D01*
X118913605Y-87540510D01*
X118941680Y-87573909D01*
X118992100Y-87633892D01*
X118992103Y-87633894D01*
X118996639Y-87639291D01*
X119104060Y-87710796D01*
X119110788Y-87712898D01*
X119110790Y-87712899D01*
X119165646Y-87730037D01*
X119227233Y-87749278D01*
X119291744Y-87750460D01*
X119349202Y-87751514D01*
X119349204Y-87751514D01*
X119356255Y-87751643D01*
X119363058Y-87749788D01*
X119363060Y-87749788D01*
X119382676Y-87744440D01*
X122994901Y-87744440D01*
X122995816Y-87751437D01*
X122995816Y-87751438D01*
X122997082Y-87761120D01*
X123011633Y-87872394D01*
X123014471Y-87878845D01*
X123014472Y-87878847D01*
X123021458Y-87894724D01*
X123063605Y-87990510D01*
X123105122Y-88039900D01*
X123142100Y-88083892D01*
X123142103Y-88083894D01*
X123146639Y-88089291D01*
X123254060Y-88160796D01*
X123260788Y-88162898D01*
X123260790Y-88162899D01*
X123315646Y-88180037D01*
X123377233Y-88199278D01*
X123441744Y-88200461D01*
X123499202Y-88201514D01*
X123499204Y-88201514D01*
X123506255Y-88201643D01*
X123513058Y-88199788D01*
X123513060Y-88199788D01*
X123554828Y-88188400D01*
X123630755Y-88167700D01*
X123740724Y-88100179D01*
X123827322Y-88004507D01*
X123883588Y-87888375D01*
X123904997Y-87761120D01*
X123905133Y-87750000D01*
X123886839Y-87622259D01*
X123852125Y-87545909D01*
X123836349Y-87511212D01*
X123836348Y-87511211D01*
X123833428Y-87504788D01*
X123770209Y-87431418D01*
X123753798Y-87412372D01*
X123753797Y-87412371D01*
X123749193Y-87407028D01*
X123743276Y-87403193D01*
X123743274Y-87403191D01*
X123646824Y-87340677D01*
X123640906Y-87336841D01*
X123634150Y-87334821D01*
X123634149Y-87334820D01*
X123567512Y-87314891D01*
X123517273Y-87299866D01*
X123440644Y-87299398D01*
X123395282Y-87299121D01*
X123388231Y-87299078D01*
X123381454Y-87301015D01*
X123381453Y-87301015D01*
X123270935Y-87332601D01*
X123270933Y-87332602D01*
X123264155Y-87334539D01*
X123155019Y-87403399D01*
X123069596Y-87500122D01*
X123014754Y-87616932D01*
X122994901Y-87744440D01*
X119382676Y-87744440D01*
X119408255Y-87737466D01*
X119480755Y-87717700D01*
X119590724Y-87650179D01*
X119661901Y-87571544D01*
X119672590Y-87559735D01*
X119672590Y-87559734D01*
X119677322Y-87554507D01*
X119717081Y-87472445D01*
X119730512Y-87444724D01*
X119730512Y-87444723D01*
X119733588Y-87438375D01*
X119747393Y-87356320D01*
X119754363Y-87314891D01*
X119754363Y-87314886D01*
X119754997Y-87311120D01*
X119755133Y-87300000D01*
X119736839Y-87172259D01*
X119714762Y-87123704D01*
X119711580Y-87116706D01*
X121067167Y-87116706D01*
X121068082Y-87123703D01*
X121068082Y-87123704D01*
X121069348Y-87133386D01*
X121083899Y-87244660D01*
X121086737Y-87251111D01*
X121086738Y-87251113D01*
X121123446Y-87334539D01*
X121135871Y-87362776D01*
X121166855Y-87399636D01*
X121214366Y-87456158D01*
X121214369Y-87456160D01*
X121218905Y-87461557D01*
X121326326Y-87533062D01*
X121333054Y-87535164D01*
X121333056Y-87535165D01*
X121374658Y-87548162D01*
X121449499Y-87571544D01*
X121514010Y-87572727D01*
X121571468Y-87573780D01*
X121571470Y-87573780D01*
X121578521Y-87573909D01*
X121585324Y-87572054D01*
X121585326Y-87572054D01*
X121630510Y-87559735D01*
X121703021Y-87539966D01*
X121812990Y-87472445D01*
X121864622Y-87415403D01*
X121894856Y-87382001D01*
X121894856Y-87382000D01*
X121899588Y-87376773D01*
X121955854Y-87260641D01*
X121970723Y-87172259D01*
X121976629Y-87137157D01*
X121976629Y-87137152D01*
X121977263Y-87133386D01*
X121977399Y-87122266D01*
X121959105Y-86994525D01*
X121905694Y-86877054D01*
X121821459Y-86779294D01*
X121815542Y-86775459D01*
X121815540Y-86775457D01*
X121719090Y-86712943D01*
X121713172Y-86709107D01*
X121706416Y-86707087D01*
X121706415Y-86707086D01*
X121663601Y-86694282D01*
X121589539Y-86672132D01*
X121512910Y-86671664D01*
X121467548Y-86671387D01*
X121460497Y-86671344D01*
X121453720Y-86673281D01*
X121453719Y-86673281D01*
X121343201Y-86704867D01*
X121343199Y-86704868D01*
X121336421Y-86706805D01*
X121227285Y-86775665D01*
X121141862Y-86872388D01*
X121087020Y-86989198D01*
X121067167Y-87116706D01*
X119711580Y-87116706D01*
X119686349Y-87061212D01*
X119686348Y-87061211D01*
X119683428Y-87054788D01*
X119625969Y-86988103D01*
X119603798Y-86962372D01*
X119603797Y-86962371D01*
X119599193Y-86957028D01*
X119593276Y-86953193D01*
X119593274Y-86953191D01*
X119496824Y-86890677D01*
X119490906Y-86886841D01*
X119484150Y-86884821D01*
X119484149Y-86884820D01*
X119440306Y-86871708D01*
X119367273Y-86849866D01*
X119290644Y-86849398D01*
X119245282Y-86849121D01*
X119238231Y-86849078D01*
X119231454Y-86851015D01*
X119231453Y-86851015D01*
X119120935Y-86882601D01*
X119120933Y-86882602D01*
X119114155Y-86884539D01*
X119005019Y-86953399D01*
X118919596Y-87050122D01*
X118864754Y-87166932D01*
X118844901Y-87294440D01*
X115400000Y-87294440D01*
X115400000Y-85644440D01*
X119044901Y-85644440D01*
X119045816Y-85651437D01*
X119045816Y-85651438D01*
X119047082Y-85661120D01*
X119061633Y-85772394D01*
X119064471Y-85778845D01*
X119064472Y-85778847D01*
X119072971Y-85798162D01*
X119113605Y-85890510D01*
X119155122Y-85939900D01*
X119192100Y-85983892D01*
X119192103Y-85983894D01*
X119196639Y-85989291D01*
X119304060Y-86060796D01*
X119310788Y-86062898D01*
X119310790Y-86062899D01*
X119365646Y-86080037D01*
X119427233Y-86099278D01*
X119491744Y-86100460D01*
X119549202Y-86101514D01*
X119549204Y-86101514D01*
X119556255Y-86101643D01*
X119563058Y-86099788D01*
X119563060Y-86099788D01*
X119604828Y-86088400D01*
X119680755Y-86067700D01*
X119790724Y-86000179D01*
X119805466Y-85983892D01*
X119872590Y-85909735D01*
X119872590Y-85909734D01*
X119877322Y-85904507D01*
X119933588Y-85788375D01*
X119952015Y-85678847D01*
X119954363Y-85664891D01*
X119954363Y-85664886D01*
X119954997Y-85661120D01*
X119955133Y-85650000D01*
X119940016Y-85544440D01*
X124020401Y-85544440D01*
X124021316Y-85551437D01*
X124021316Y-85551438D01*
X124022582Y-85561120D01*
X124037133Y-85672394D01*
X124039971Y-85678845D01*
X124039972Y-85678847D01*
X124083973Y-85778847D01*
X124089105Y-85790510D01*
X124130622Y-85839901D01*
X124167600Y-85883892D01*
X124167603Y-85883894D01*
X124172139Y-85889291D01*
X124279560Y-85960796D01*
X124286288Y-85962898D01*
X124286290Y-85962899D01*
X124341146Y-85980037D01*
X124402733Y-85999278D01*
X124467244Y-86000460D01*
X124524702Y-86001514D01*
X124524704Y-86001514D01*
X124531755Y-86001643D01*
X124538558Y-85999788D01*
X124538560Y-85999788D01*
X124596864Y-85983892D01*
X124656255Y-85967700D01*
X124766224Y-85900179D01*
X124852822Y-85804507D01*
X124909088Y-85688375D01*
X124930497Y-85561120D01*
X124930633Y-85550000D01*
X124912339Y-85422259D01*
X124858928Y-85304788D01*
X124774693Y-85207028D01*
X124768776Y-85203193D01*
X124768774Y-85203191D01*
X124672324Y-85140677D01*
X124666406Y-85136841D01*
X124659650Y-85134821D01*
X124659649Y-85134820D01*
X124616835Y-85122016D01*
X124542773Y-85099866D01*
X124466144Y-85099398D01*
X124420782Y-85099121D01*
X124413731Y-85099078D01*
X124406954Y-85101015D01*
X124406953Y-85101015D01*
X124296435Y-85132601D01*
X124296433Y-85132602D01*
X124289655Y-85134539D01*
X124180519Y-85203399D01*
X124095096Y-85300122D01*
X124040254Y-85416932D01*
X124020401Y-85544440D01*
X119940016Y-85544440D01*
X119936839Y-85522259D01*
X119883428Y-85404788D01*
X119799193Y-85307028D01*
X119793276Y-85303193D01*
X119793274Y-85303191D01*
X119696824Y-85240677D01*
X119690906Y-85236841D01*
X119684150Y-85234821D01*
X119684149Y-85234820D01*
X119609089Y-85212372D01*
X119567273Y-85199866D01*
X119490644Y-85199398D01*
X119445282Y-85199121D01*
X119438231Y-85199078D01*
X119431454Y-85201015D01*
X119431453Y-85201015D01*
X119320935Y-85232601D01*
X119320933Y-85232602D01*
X119314155Y-85234539D01*
X119205019Y-85303399D01*
X119119596Y-85400122D01*
X119064754Y-85516932D01*
X119044901Y-85644440D01*
X115400000Y-85644440D01*
X115400000Y-84594440D01*
X117344901Y-84594440D01*
X117345816Y-84601437D01*
X117345816Y-84601438D01*
X117347082Y-84611120D01*
X117361633Y-84722394D01*
X117364471Y-84728845D01*
X117364472Y-84728847D01*
X117371458Y-84744724D01*
X117413605Y-84840510D01*
X117455122Y-84889900D01*
X117492100Y-84933892D01*
X117492103Y-84933894D01*
X117496639Y-84939291D01*
X117604060Y-85010796D01*
X117610788Y-85012898D01*
X117610790Y-85012899D01*
X117665646Y-85030037D01*
X117727233Y-85049278D01*
X117791744Y-85050461D01*
X117849202Y-85051514D01*
X117849204Y-85051514D01*
X117856255Y-85051643D01*
X117863058Y-85049788D01*
X117863060Y-85049788D01*
X117904828Y-85038400D01*
X117980755Y-85017700D01*
X118090724Y-84950179D01*
X118177322Y-84854507D01*
X118233588Y-84738375D01*
X118254997Y-84611120D01*
X118255133Y-84600000D01*
X118236839Y-84472259D01*
X118183428Y-84354788D01*
X118099193Y-84257028D01*
X118093276Y-84253193D01*
X118093274Y-84253191D01*
X117996824Y-84190677D01*
X117990906Y-84186841D01*
X117984150Y-84184821D01*
X117984149Y-84184820D01*
X117941335Y-84172016D01*
X117867273Y-84149866D01*
X117790644Y-84149398D01*
X117745282Y-84149121D01*
X117738231Y-84149078D01*
X117731454Y-84151015D01*
X117731453Y-84151015D01*
X117620935Y-84182601D01*
X117620933Y-84182602D01*
X117614155Y-84184539D01*
X117505019Y-84253399D01*
X117419596Y-84350122D01*
X117364754Y-84466932D01*
X117344901Y-84594440D01*
X115400000Y-84594440D01*
X115400000Y-82381940D01*
X123182401Y-82381940D01*
X123183316Y-82388937D01*
X123183316Y-82388938D01*
X123184582Y-82398620D01*
X123199133Y-82509894D01*
X123201971Y-82516345D01*
X123201972Y-82516347D01*
X123208958Y-82532224D01*
X123251105Y-82628010D01*
X123292622Y-82677400D01*
X123329600Y-82721392D01*
X123329603Y-82721394D01*
X123334139Y-82726791D01*
X123441560Y-82798296D01*
X123448288Y-82800398D01*
X123448290Y-82800399D01*
X123503147Y-82817537D01*
X123564733Y-82836778D01*
X123629244Y-82837960D01*
X123686702Y-82839014D01*
X123686704Y-82839014D01*
X123693755Y-82839143D01*
X123700558Y-82837288D01*
X123700560Y-82837288D01*
X123742328Y-82825900D01*
X123818255Y-82805200D01*
X123928224Y-82737679D01*
X124014822Y-82642007D01*
X124071088Y-82525875D01*
X124092497Y-82398620D01*
X124092633Y-82387500D01*
X124074339Y-82259759D01*
X124050300Y-82206888D01*
X124023849Y-82148712D01*
X124023848Y-82148711D01*
X124020928Y-82142288D01*
X123949796Y-82059735D01*
X123941298Y-82049872D01*
X123941297Y-82049871D01*
X123936693Y-82044528D01*
X123930776Y-82040693D01*
X123930774Y-82040691D01*
X123834324Y-81978177D01*
X123828406Y-81974341D01*
X123821650Y-81972321D01*
X123821649Y-81972320D01*
X123778835Y-81959516D01*
X123704773Y-81937366D01*
X123628144Y-81936898D01*
X123582782Y-81936621D01*
X123575731Y-81936578D01*
X123568954Y-81938515D01*
X123568953Y-81938515D01*
X123458435Y-81970101D01*
X123458433Y-81970102D01*
X123451655Y-81972039D01*
X123342519Y-82040899D01*
X123257096Y-82137622D01*
X123202254Y-82254432D01*
X123182401Y-82381940D01*
X115400000Y-82381940D01*
X115400000Y-81794440D01*
X116544901Y-81794440D01*
X116545816Y-81801437D01*
X116545816Y-81801438D01*
X116547082Y-81811120D01*
X116561633Y-81922394D01*
X116564471Y-81928845D01*
X116564472Y-81928847D01*
X116568726Y-81938515D01*
X116613605Y-82040510D01*
X116655122Y-82089901D01*
X116692100Y-82133892D01*
X116692103Y-82133894D01*
X116696639Y-82139291D01*
X116804060Y-82210796D01*
X116810788Y-82212898D01*
X116810790Y-82212899D01*
X116865646Y-82230037D01*
X116927233Y-82249278D01*
X116991744Y-82250460D01*
X117049202Y-82251514D01*
X117049204Y-82251514D01*
X117056255Y-82251643D01*
X117063058Y-82249788D01*
X117063060Y-82249788D01*
X117104828Y-82238400D01*
X117180755Y-82217700D01*
X117290724Y-82150179D01*
X117377322Y-82054507D01*
X117433588Y-81938375D01*
X117454997Y-81811120D01*
X117455133Y-81800000D01*
X117436839Y-81672259D01*
X117399670Y-81590510D01*
X117386349Y-81561212D01*
X117386348Y-81561211D01*
X117383428Y-81554788D01*
X117320209Y-81481418D01*
X117303798Y-81462372D01*
X117303797Y-81462371D01*
X117299193Y-81457028D01*
X117293276Y-81453193D01*
X117293274Y-81453191D01*
X117196824Y-81390677D01*
X117190906Y-81386841D01*
X117184150Y-81384821D01*
X117184149Y-81384820D01*
X117117512Y-81364891D01*
X117067273Y-81349866D01*
X116990644Y-81349398D01*
X116945282Y-81349121D01*
X116938231Y-81349078D01*
X116931454Y-81351015D01*
X116931453Y-81351015D01*
X116820935Y-81382601D01*
X116820933Y-81382602D01*
X116814155Y-81384539D01*
X116705019Y-81453399D01*
X116619596Y-81550122D01*
X116564754Y-81666932D01*
X116544901Y-81794440D01*
X115400000Y-81794440D01*
X115400000Y-81599500D01*
X115418907Y-81541309D01*
X115468407Y-81505345D01*
X115499000Y-81500500D01*
X116032654Y-81500500D01*
X116045341Y-81491283D01*
X116046346Y-81490956D01*
X116047200Y-81490335D01*
X116062112Y-81485490D01*
X116071328Y-81472806D01*
X116072184Y-81472184D01*
X116072806Y-81471328D01*
X116085490Y-81462112D01*
X116090335Y-81447200D01*
X116090956Y-81446346D01*
X116091283Y-81445341D01*
X116100500Y-81432654D01*
X116100500Y-80994440D01*
X117320401Y-80994440D01*
X117321316Y-81001437D01*
X117321316Y-81001438D01*
X117322264Y-81008684D01*
X117337133Y-81122394D01*
X117339971Y-81128845D01*
X117339972Y-81128847D01*
X117386264Y-81234054D01*
X117389105Y-81240510D01*
X117430622Y-81289901D01*
X117467600Y-81333892D01*
X117467603Y-81333894D01*
X117472139Y-81339291D01*
X117579560Y-81410796D01*
X117586288Y-81412898D01*
X117586290Y-81412899D01*
X117641147Y-81430037D01*
X117702733Y-81449278D01*
X117767244Y-81450461D01*
X117824702Y-81451514D01*
X117824704Y-81451514D01*
X117831755Y-81451643D01*
X117838558Y-81449788D01*
X117838560Y-81449788D01*
X117901405Y-81432654D01*
X117956255Y-81417700D01*
X118066224Y-81350179D01*
X118071419Y-81344440D01*
X118944901Y-81344440D01*
X118945816Y-81351437D01*
X118945816Y-81351438D01*
X118947082Y-81361120D01*
X118961633Y-81472394D01*
X118964471Y-81478845D01*
X118964472Y-81478847D01*
X119010764Y-81584054D01*
X119013605Y-81590510D01*
X119055122Y-81639900D01*
X119092100Y-81683892D01*
X119092103Y-81683894D01*
X119096639Y-81689291D01*
X119204060Y-81760796D01*
X119210788Y-81762898D01*
X119210790Y-81762899D01*
X119265647Y-81780037D01*
X119327233Y-81799278D01*
X119391744Y-81800461D01*
X119449202Y-81801514D01*
X119449204Y-81801514D01*
X119456255Y-81801643D01*
X119463058Y-81799788D01*
X119463060Y-81799788D01*
X119508255Y-81787466D01*
X119580755Y-81767700D01*
X119690724Y-81700179D01*
X119777322Y-81604507D01*
X119825366Y-81505345D01*
X119830512Y-81494724D01*
X119830512Y-81494723D01*
X119833588Y-81488375D01*
X119847297Y-81406888D01*
X119854363Y-81364891D01*
X119854363Y-81364886D01*
X119854997Y-81361120D01*
X119855133Y-81350000D01*
X119836839Y-81222259D01*
X119791433Y-81122394D01*
X119786349Y-81111212D01*
X119786348Y-81111211D01*
X119783428Y-81104788D01*
X119705968Y-81014891D01*
X119703798Y-81012372D01*
X119703797Y-81012371D01*
X119699193Y-81007028D01*
X119693276Y-81003193D01*
X119693274Y-81003191D01*
X119596824Y-80940677D01*
X119590906Y-80936841D01*
X119584150Y-80934821D01*
X119584149Y-80934820D01*
X119541335Y-80922016D01*
X119467273Y-80899866D01*
X119390644Y-80899398D01*
X119345282Y-80899121D01*
X119338231Y-80899078D01*
X119331454Y-80901015D01*
X119331453Y-80901015D01*
X119220935Y-80932601D01*
X119220933Y-80932602D01*
X119214155Y-80934539D01*
X119105019Y-81003399D01*
X119019596Y-81100122D01*
X118964754Y-81216932D01*
X118944901Y-81344440D01*
X118071419Y-81344440D01*
X118152822Y-81254507D01*
X118209088Y-81138375D01*
X118226776Y-81033239D01*
X118229863Y-81014891D01*
X118229863Y-81014886D01*
X118230497Y-81011120D01*
X118230633Y-81000000D01*
X118212339Y-80872259D01*
X118169815Y-80778732D01*
X118167287Y-80773172D01*
X120244901Y-80773172D01*
X120245816Y-80780169D01*
X120245816Y-80780170D01*
X120247082Y-80789852D01*
X120261633Y-80901126D01*
X120264471Y-80907577D01*
X120264472Y-80907579D01*
X120308350Y-81007299D01*
X120313605Y-81019242D01*
X120355122Y-81068633D01*
X120392100Y-81112624D01*
X120392103Y-81112626D01*
X120396639Y-81118023D01*
X120504060Y-81189528D01*
X120510788Y-81191630D01*
X120510790Y-81191631D01*
X120565647Y-81208769D01*
X120627233Y-81228010D01*
X120691744Y-81229193D01*
X120749202Y-81230246D01*
X120749204Y-81230246D01*
X120756255Y-81230375D01*
X120763058Y-81228520D01*
X120763060Y-81228520D01*
X120809579Y-81215837D01*
X120880755Y-81196432D01*
X120990724Y-81128911D01*
X121077322Y-81033239D01*
X121133588Y-80917107D01*
X121154997Y-80789852D01*
X121155133Y-80778732D01*
X121136839Y-80650991D01*
X121105744Y-80582601D01*
X121086349Y-80539944D01*
X121086348Y-80539943D01*
X121083428Y-80533520D01*
X120999193Y-80435760D01*
X120993276Y-80431925D01*
X120993274Y-80431923D01*
X120896824Y-80369409D01*
X120890906Y-80365573D01*
X120884150Y-80363553D01*
X120884149Y-80363552D01*
X120841335Y-80350748D01*
X120767273Y-80328598D01*
X120690644Y-80328130D01*
X120645282Y-80327853D01*
X120638231Y-80327810D01*
X120631454Y-80329747D01*
X120631453Y-80329747D01*
X120520935Y-80361333D01*
X120520933Y-80361334D01*
X120514155Y-80363271D01*
X120405019Y-80432131D01*
X120319596Y-80528854D01*
X120264754Y-80645664D01*
X120244901Y-80773172D01*
X118167287Y-80773172D01*
X118161849Y-80761212D01*
X118161848Y-80761211D01*
X118158928Y-80754788D01*
X118074693Y-80657028D01*
X118068776Y-80653193D01*
X118068774Y-80653191D01*
X117972324Y-80590677D01*
X117966406Y-80586841D01*
X117959650Y-80584821D01*
X117959649Y-80584820D01*
X117916835Y-80572016D01*
X117842773Y-80549866D01*
X117766144Y-80549398D01*
X117720782Y-80549121D01*
X117713731Y-80549078D01*
X117706954Y-80551015D01*
X117706953Y-80551015D01*
X117596435Y-80582601D01*
X117596433Y-80582602D01*
X117589655Y-80584539D01*
X117480519Y-80653399D01*
X117395096Y-80750122D01*
X117340254Y-80866932D01*
X117320401Y-80994440D01*
X116100500Y-80994440D01*
X116100500Y-78799500D01*
X116119407Y-78741309D01*
X116168907Y-78705345D01*
X116199500Y-78700500D01*
X132400500Y-78700500D01*
X132458691Y-78719407D01*
G37*
%TD.AperFunction*%
%TD*%
M02*
