G04 #@! TF.GenerationSoftware,KiCad,Pcbnew,5.0.2-bee76a0~70~ubuntu16.04.1*
G04 #@! TF.CreationDate,2020-11-05T23:54:09+01:00*
G04 #@! TF.ProjectId,BTSerialClient,42545365-7269-4616-9c43-6c69656e742e,rev?*
G04 #@! TF.SameCoordinates,Original*
G04 #@! TF.FileFunction,Legend,Top*
G04 #@! TF.FilePolarity,Positive*
%FSLAX46Y46*%
G04 Gerber Fmt 4.6, Leading zero omitted, Abs format (unit mm)*
G04 Created by KiCad (PCBNEW 5.0.2-bee76a0~70~ubuntu16.04.1) date tor  5 nov 2020 23:54:09*
%MOMM*%
%LPD*%
G01*
G04 APERTURE LIST*
%ADD10C,0.120000*%
%ADD11C,0.150000*%
G04 APERTURE END LIST*
D10*
G04 #@! TO.C,J1*
X110385640Y-54632680D02*
X110835640Y-54232680D01*
X110835640Y-54232680D02*
X110835640Y-55032680D01*
X110835640Y-55032680D02*
X110385640Y-54632680D01*
X104785640Y-59757680D02*
X107585640Y-59757680D01*
X107585640Y-59757680D02*
X107585640Y-60057680D01*
X107585640Y-60057680D02*
X109135640Y-60057680D01*
X104785640Y-52057680D02*
X107585640Y-52057680D01*
X107585640Y-51757680D02*
X107585640Y-52057680D01*
X107585640Y-51757680D02*
X109135640Y-51757680D01*
G04 #@! TO.C,C1*
X113586628Y-73230920D02*
X114109132Y-73230920D01*
X113586628Y-71810920D02*
X114109132Y-71810920D01*
G04 #@! TO.C,C2*
X120419228Y-79643040D02*
X120941732Y-79643040D01*
X120419228Y-78223040D02*
X120941732Y-78223040D01*
G04 #@! TO.C,C3*
X113871108Y-77845960D02*
X114393612Y-77845960D01*
X113871108Y-79265960D02*
X114393612Y-79265960D01*
G04 #@! TO.C,C4*
X121755812Y-67552640D02*
X121233308Y-67552640D01*
X121755812Y-66132640D02*
X121233308Y-66132640D01*
G04 #@! TO.C,C5*
X125849868Y-78624360D02*
X126372372Y-78624360D01*
X125849868Y-80044360D02*
X126372372Y-80044360D01*
G04 #@! TO.C,C6*
X117227280Y-75902452D02*
X117227280Y-75379948D01*
X118647280Y-75902452D02*
X118647280Y-75379948D01*
G04 #@! TO.C,C7*
X133023680Y-75181092D02*
X133023680Y-74658588D01*
X131603680Y-75181092D02*
X131603680Y-74658588D01*
G04 #@! TO.C,C8*
X113163280Y-92187772D02*
X113163280Y-91665268D01*
X114583280Y-92187772D02*
X114583280Y-91665268D01*
G04 #@! TO.C,C9*
X106899640Y-91670348D02*
X106899640Y-92192852D01*
X108319640Y-91670348D02*
X108319640Y-92192852D01*
G04 #@! TO.C,J2*
X127894033Y-99687600D02*
X127894033Y-95947600D01*
X127894033Y-95947600D02*
X114447367Y-95947600D01*
X114447367Y-95947600D02*
X114447367Y-99687600D01*
X114207367Y-97947600D02*
X114207367Y-95707600D01*
X114207367Y-95707600D02*
X118400700Y-95707600D01*
G04 #@! TO.C,R1*
X123968748Y-83020000D02*
X124491252Y-83020000D01*
X123968748Y-81600000D02*
X124491252Y-81600000D01*
G04 #@! TO.C,R2*
X126530468Y-61047560D02*
X127052972Y-61047560D01*
X126530468Y-62467560D02*
X127052972Y-62467560D01*
G04 #@! TO.C,R4*
X113021040Y-84532212D02*
X113021040Y-84009708D01*
X114441040Y-84532212D02*
X114441040Y-84009708D01*
G04 #@! TO.C,SW1*
X108536600Y-67098360D02*
X108536600Y-67298360D01*
X104396600Y-64298360D02*
X104186600Y-64498360D01*
X104396600Y-65598360D02*
X104186600Y-65398360D01*
X105686600Y-64298360D02*
X104396600Y-64298360D01*
X104186600Y-64498360D02*
X104186600Y-65398360D01*
X104396600Y-65598360D02*
X105686600Y-65598360D01*
X105686600Y-62848360D02*
X105686600Y-68548360D01*
X108536600Y-64098360D02*
X108536600Y-65798360D01*
X107486600Y-62248360D02*
X106696600Y-62248360D01*
X106696600Y-69148360D02*
X107486600Y-69148360D01*
D11*
G04 #@! TO.C,U1*
X114670700Y-28868720D02*
X127670700Y-28868720D01*
X127670700Y-28868720D02*
X127670700Y-55768720D01*
X114670700Y-28868720D02*
X114670700Y-55768720D01*
X114670700Y-55768720D02*
X127670700Y-55768720D01*
D10*
G04 #@! TO.C,U2*
X111896800Y-76438440D02*
X111896800Y-73988440D01*
X108676800Y-74638440D02*
X108676800Y-76438440D01*
D11*
G04 #@! TO.C,U3*
X119837240Y-75150800D02*
X119862240Y-75150800D01*
X119837240Y-71000800D02*
X119942240Y-71000800D01*
X129987240Y-71000800D02*
X129882240Y-71000800D01*
X129987240Y-75150800D02*
X129882240Y-75150800D01*
X119837240Y-75150800D02*
X119837240Y-71000800D01*
X129987240Y-75150800D02*
X129987240Y-71000800D01*
X119862240Y-75150800D02*
X119862240Y-76525800D01*
D10*
G04 #@! TO.C,U4*
X109788120Y-89670640D02*
X111588120Y-89670640D01*
X111588120Y-86450640D02*
X109138120Y-86450640D01*
D11*
G04 #@! TO.C,D2*
X121310000Y-86920000D02*
X121160000Y-86720000D01*
X121160000Y-86720000D02*
X121460000Y-86720000D01*
X121460000Y-86720000D02*
X121310000Y-86920000D01*
X121110000Y-87070000D02*
X121510000Y-87070000D01*
X119610000Y-86620000D02*
X119910000Y-87020000D01*
X119910000Y-87020000D02*
X120210000Y-86620000D01*
X119610000Y-86620000D02*
X120210000Y-86620000D01*
X119760000Y-87170000D02*
X120060000Y-87170000D01*
X119910000Y-87220000D02*
X119910000Y-87620000D01*
X119910000Y-86620000D02*
X119910000Y-86170000D01*
D10*
G04 #@! TO.C,R5*
X119310000Y-91261252D02*
X119310000Y-90738748D01*
X117890000Y-91261252D02*
X117890000Y-90738748D01*
G04 #@! TO.C,R6*
X116548748Y-80690000D02*
X117071252Y-80690000D01*
X116548748Y-82110000D02*
X117071252Y-82110000D01*
G04 #@! TO.C,REF\002A\002A*
D11*
X132566666Y-93752380D02*
X132233333Y-93276190D01*
X131995238Y-93752380D02*
X131995238Y-92752380D01*
X132376190Y-92752380D01*
X132471428Y-92800000D01*
X132519047Y-92847619D01*
X132566666Y-92942857D01*
X132566666Y-93085714D01*
X132519047Y-93180952D01*
X132471428Y-93228571D01*
X132376190Y-93276190D01*
X131995238Y-93276190D01*
X132995238Y-93228571D02*
X133328571Y-93228571D01*
X133471428Y-93752380D02*
X132995238Y-93752380D01*
X132995238Y-92752380D01*
X133471428Y-92752380D01*
X134233333Y-93228571D02*
X133900000Y-93228571D01*
X133900000Y-93752380D02*
X133900000Y-92752380D01*
X134376190Y-92752380D01*
X134900000Y-92752380D02*
X134900000Y-92990476D01*
X134661904Y-92895238D02*
X134900000Y-92990476D01*
X135138095Y-92895238D01*
X134757142Y-93180952D02*
X134900000Y-92990476D01*
X135042857Y-93180952D01*
X135661904Y-92752380D02*
X135661904Y-92990476D01*
X135423809Y-92895238D02*
X135661904Y-92990476D01*
X135900000Y-92895238D01*
X135519047Y-93180952D02*
X135661904Y-92990476D01*
X135804761Y-93180952D01*
X132566666Y-34752380D02*
X132233333Y-34276190D01*
X131995238Y-34752380D02*
X131995238Y-33752380D01*
X132376190Y-33752380D01*
X132471428Y-33800000D01*
X132519047Y-33847619D01*
X132566666Y-33942857D01*
X132566666Y-34085714D01*
X132519047Y-34180952D01*
X132471428Y-34228571D01*
X132376190Y-34276190D01*
X131995238Y-34276190D01*
X132995238Y-34228571D02*
X133328571Y-34228571D01*
X133471428Y-34752380D02*
X132995238Y-34752380D01*
X132995238Y-33752380D01*
X133471428Y-33752380D01*
X134233333Y-34228571D02*
X133900000Y-34228571D01*
X133900000Y-34752380D02*
X133900000Y-33752380D01*
X134376190Y-33752380D01*
X134900000Y-33752380D02*
X134900000Y-33990476D01*
X134661904Y-33895238D02*
X134900000Y-33990476D01*
X135138095Y-33895238D01*
X134757142Y-34180952D02*
X134900000Y-33990476D01*
X135042857Y-34180952D01*
X135661904Y-33752380D02*
X135661904Y-33990476D01*
X135423809Y-33895238D02*
X135661904Y-33990476D01*
X135900000Y-33895238D01*
X135519047Y-34180952D02*
X135661904Y-33990476D01*
X135804761Y-34180952D01*
X107066666Y-34752380D02*
X106733333Y-34276190D01*
X106495238Y-34752380D02*
X106495238Y-33752380D01*
X106876190Y-33752380D01*
X106971428Y-33800000D01*
X107019047Y-33847619D01*
X107066666Y-33942857D01*
X107066666Y-34085714D01*
X107019047Y-34180952D01*
X106971428Y-34228571D01*
X106876190Y-34276190D01*
X106495238Y-34276190D01*
X107495238Y-34228571D02*
X107828571Y-34228571D01*
X107971428Y-34752380D02*
X107495238Y-34752380D01*
X107495238Y-33752380D01*
X107971428Y-33752380D01*
X108733333Y-34228571D02*
X108400000Y-34228571D01*
X108400000Y-34752380D02*
X108400000Y-33752380D01*
X108876190Y-33752380D01*
X109400000Y-33752380D02*
X109400000Y-33990476D01*
X109161904Y-33895238D02*
X109400000Y-33990476D01*
X109638095Y-33895238D01*
X109257142Y-34180952D02*
X109400000Y-33990476D01*
X109542857Y-34180952D01*
X110161904Y-33752380D02*
X110161904Y-33990476D01*
X109923809Y-33895238D02*
X110161904Y-33990476D01*
X110400000Y-33895238D01*
X110019047Y-34180952D02*
X110161904Y-33990476D01*
X110304761Y-34180952D01*
G04 #@! TO.C,J1*
X111849820Y-53339813D02*
X112564106Y-53339813D01*
X112706963Y-53387432D01*
X112802201Y-53482670D01*
X112849820Y-53625527D01*
X112849820Y-53720765D01*
X112849820Y-52339813D02*
X112849820Y-52911241D01*
X112849820Y-52625527D02*
X111849820Y-52625527D01*
X111992678Y-52720765D01*
X112087916Y-52816003D01*
X112135535Y-52911241D01*
G04 #@! TO.C,C1*
X116653013Y-72949182D02*
X116605394Y-72996801D01*
X116462537Y-73044420D01*
X116367299Y-73044420D01*
X116224441Y-72996801D01*
X116129203Y-72901563D01*
X116081584Y-72806325D01*
X116033965Y-72615849D01*
X116033965Y-72472992D01*
X116081584Y-72282516D01*
X116129203Y-72187278D01*
X116224441Y-72092040D01*
X116367299Y-72044420D01*
X116462537Y-72044420D01*
X116605394Y-72092040D01*
X116653013Y-72139659D01*
X117605394Y-73044420D02*
X117033965Y-73044420D01*
X117319680Y-73044420D02*
X117319680Y-72044420D01*
X117224441Y-72187278D01*
X117129203Y-72282516D01*
X117033965Y-72330135D01*
G04 #@! TO.C,C2*
X120513813Y-77640182D02*
X120466194Y-77687801D01*
X120323337Y-77735420D01*
X120228099Y-77735420D01*
X120085241Y-77687801D01*
X119990003Y-77592563D01*
X119942384Y-77497325D01*
X119894765Y-77306849D01*
X119894765Y-77163992D01*
X119942384Y-76973516D01*
X119990003Y-76878278D01*
X120085241Y-76783040D01*
X120228099Y-76735420D01*
X120323337Y-76735420D01*
X120466194Y-76783040D01*
X120513813Y-76830659D01*
X120894765Y-76830659D02*
X120942384Y-76783040D01*
X121037622Y-76735420D01*
X121275718Y-76735420D01*
X121370956Y-76783040D01*
X121418575Y-76830659D01*
X121466194Y-76925897D01*
X121466194Y-77021135D01*
X121418575Y-77163992D01*
X120847146Y-77735420D01*
X121466194Y-77735420D01*
G04 #@! TO.C,C3*
X113965693Y-77263102D02*
X113918074Y-77310721D01*
X113775217Y-77358340D01*
X113679979Y-77358340D01*
X113537121Y-77310721D01*
X113441883Y-77215483D01*
X113394264Y-77120245D01*
X113346645Y-76929769D01*
X113346645Y-76786912D01*
X113394264Y-76596436D01*
X113441883Y-76501198D01*
X113537121Y-76405960D01*
X113679979Y-76358340D01*
X113775217Y-76358340D01*
X113918074Y-76405960D01*
X113965693Y-76453579D01*
X114299026Y-76358340D02*
X114918074Y-76358340D01*
X114584740Y-76739293D01*
X114727598Y-76739293D01*
X114822836Y-76786912D01*
X114870455Y-76834531D01*
X114918074Y-76929769D01*
X114918074Y-77167864D01*
X114870455Y-77263102D01*
X114822836Y-77310721D01*
X114727598Y-77358340D01*
X114441883Y-77358340D01*
X114346645Y-77310721D01*
X114299026Y-77263102D01*
G04 #@! TO.C,C4*
X122987773Y-68886342D02*
X122940154Y-68933961D01*
X122797297Y-68981580D01*
X122702059Y-68981580D01*
X122559201Y-68933961D01*
X122463963Y-68838723D01*
X122416344Y-68743485D01*
X122368725Y-68553009D01*
X122368725Y-68410152D01*
X122416344Y-68219676D01*
X122463963Y-68124438D01*
X122559201Y-68029200D01*
X122702059Y-67981580D01*
X122797297Y-67981580D01*
X122940154Y-68029200D01*
X122987773Y-68076819D01*
X123844916Y-68314914D02*
X123844916Y-68981580D01*
X123606820Y-67933961D02*
X123368725Y-68648247D01*
X123987773Y-68648247D01*
G04 #@! TO.C,C5*
X125944453Y-78041502D02*
X125896834Y-78089121D01*
X125753977Y-78136740D01*
X125658739Y-78136740D01*
X125515881Y-78089121D01*
X125420643Y-77993883D01*
X125373024Y-77898645D01*
X125325405Y-77708169D01*
X125325405Y-77565312D01*
X125373024Y-77374836D01*
X125420643Y-77279598D01*
X125515881Y-77184360D01*
X125658739Y-77136740D01*
X125753977Y-77136740D01*
X125896834Y-77184360D01*
X125944453Y-77231979D01*
X126849215Y-77136740D02*
X126373024Y-77136740D01*
X126325405Y-77612931D01*
X126373024Y-77565312D01*
X126468262Y-77517693D01*
X126706358Y-77517693D01*
X126801596Y-77565312D01*
X126849215Y-77612931D01*
X126896834Y-77708169D01*
X126896834Y-77946264D01*
X126849215Y-78041502D01*
X126801596Y-78089121D01*
X126706358Y-78136740D01*
X126468262Y-78136740D01*
X126373024Y-78089121D01*
X126325405Y-78041502D01*
G04 #@! TO.C,C6*
X116338622Y-76955946D02*
X116386241Y-77003565D01*
X116433860Y-77146422D01*
X116433860Y-77241660D01*
X116386241Y-77384518D01*
X116291003Y-77479756D01*
X116195765Y-77527375D01*
X116005289Y-77574994D01*
X115862432Y-77574994D01*
X115671956Y-77527375D01*
X115576718Y-77479756D01*
X115481480Y-77384518D01*
X115433860Y-77241660D01*
X115433860Y-77146422D01*
X115481480Y-77003565D01*
X115529099Y-76955946D01*
X115433860Y-76098803D02*
X115433860Y-76289280D01*
X115481480Y-76384518D01*
X115529099Y-76432137D01*
X115671956Y-76527375D01*
X115862432Y-76574994D01*
X116243384Y-76574994D01*
X116338622Y-76527375D01*
X116386241Y-76479756D01*
X116433860Y-76384518D01*
X116433860Y-76194041D01*
X116386241Y-76098803D01*
X116338622Y-76051184D01*
X116243384Y-76003565D01*
X116005289Y-76003565D01*
X115910051Y-76051184D01*
X115862432Y-76098803D01*
X115814813Y-76194041D01*
X115814813Y-76384518D01*
X115862432Y-76479756D01*
X115910051Y-76527375D01*
X116005289Y-76574994D01*
G04 #@! TO.C,C7*
X131020822Y-75086506D02*
X131068441Y-75134125D01*
X131116060Y-75276982D01*
X131116060Y-75372220D01*
X131068441Y-75515078D01*
X130973203Y-75610316D01*
X130877965Y-75657935D01*
X130687489Y-75705554D01*
X130544632Y-75705554D01*
X130354156Y-75657935D01*
X130258918Y-75610316D01*
X130163680Y-75515078D01*
X130116060Y-75372220D01*
X130116060Y-75276982D01*
X130163680Y-75134125D01*
X130211299Y-75086506D01*
X130116060Y-74753173D02*
X130116060Y-74086506D01*
X131116060Y-74515078D01*
G04 #@! TO.C,C8*
X112580422Y-92093186D02*
X112628041Y-92140805D01*
X112675660Y-92283662D01*
X112675660Y-92378900D01*
X112628041Y-92521758D01*
X112532803Y-92616996D01*
X112437565Y-92664615D01*
X112247089Y-92712234D01*
X112104232Y-92712234D01*
X111913756Y-92664615D01*
X111818518Y-92616996D01*
X111723280Y-92521758D01*
X111675660Y-92378900D01*
X111675660Y-92283662D01*
X111723280Y-92140805D01*
X111770899Y-92093186D01*
X112104232Y-91521758D02*
X112056613Y-91616996D01*
X112008994Y-91664615D01*
X111913756Y-91712234D01*
X111866137Y-91712234D01*
X111770899Y-91664615D01*
X111723280Y-91616996D01*
X111675660Y-91521758D01*
X111675660Y-91331281D01*
X111723280Y-91236043D01*
X111770899Y-91188424D01*
X111866137Y-91140805D01*
X111913756Y-91140805D01*
X112008994Y-91188424D01*
X112056613Y-91236043D01*
X112104232Y-91331281D01*
X112104232Y-91521758D01*
X112151851Y-91616996D01*
X112199470Y-91664615D01*
X112294708Y-91712234D01*
X112485184Y-91712234D01*
X112580422Y-91664615D01*
X112628041Y-91616996D01*
X112675660Y-91521758D01*
X112675660Y-91331281D01*
X112628041Y-91236043D01*
X112580422Y-91188424D01*
X112485184Y-91140805D01*
X112294708Y-91140805D01*
X112199470Y-91188424D01*
X112151851Y-91236043D01*
X112104232Y-91331281D01*
G04 #@! TO.C,C9*
X109616782Y-92098266D02*
X109664401Y-92145885D01*
X109712020Y-92288742D01*
X109712020Y-92383980D01*
X109664401Y-92526838D01*
X109569163Y-92622076D01*
X109473925Y-92669695D01*
X109283449Y-92717314D01*
X109140592Y-92717314D01*
X108950116Y-92669695D01*
X108854878Y-92622076D01*
X108759640Y-92526838D01*
X108712020Y-92383980D01*
X108712020Y-92288742D01*
X108759640Y-92145885D01*
X108807259Y-92098266D01*
X109712020Y-91622076D02*
X109712020Y-91431600D01*
X109664401Y-91336361D01*
X109616782Y-91288742D01*
X109473925Y-91193504D01*
X109283449Y-91145885D01*
X108902497Y-91145885D01*
X108807259Y-91193504D01*
X108759640Y-91241123D01*
X108712020Y-91336361D01*
X108712020Y-91526838D01*
X108759640Y-91622076D01*
X108807259Y-91669695D01*
X108902497Y-91717314D01*
X109140592Y-91717314D01*
X109235830Y-91669695D01*
X109283449Y-91622076D01*
X109331068Y-91526838D01*
X109331068Y-91336361D01*
X109283449Y-91241123D01*
X109235830Y-91193504D01*
X109140592Y-91145885D01*
G04 #@! TO.C,J2*
X120611306Y-94423100D02*
X120611306Y-95137386D01*
X120563687Y-95280243D01*
X120468449Y-95375481D01*
X120325592Y-95423100D01*
X120230354Y-95423100D01*
X121039878Y-94518339D02*
X121087497Y-94470720D01*
X121182735Y-94423100D01*
X121420830Y-94423100D01*
X121516068Y-94470720D01*
X121563687Y-94518339D01*
X121611306Y-94613577D01*
X121611306Y-94708815D01*
X121563687Y-94851672D01*
X120992259Y-95423100D01*
X121611306Y-95423100D01*
G04 #@! TO.C,R1*
X127677179Y-82811173D02*
X127343846Y-82334983D01*
X127105750Y-82811173D02*
X127105750Y-81811173D01*
X127486703Y-81811173D01*
X127581941Y-81858793D01*
X127629560Y-81906412D01*
X127677179Y-82001650D01*
X127677179Y-82144507D01*
X127629560Y-82239745D01*
X127581941Y-82287364D01*
X127486703Y-82334983D01*
X127105750Y-82334983D01*
X128629560Y-82811173D02*
X128058131Y-82811173D01*
X128343846Y-82811173D02*
X128343846Y-81811173D01*
X128248607Y-81954031D01*
X128153369Y-82049269D01*
X128058131Y-82096888D01*
G04 #@! TO.C,R2*
X126625053Y-60559940D02*
X126291720Y-60083750D01*
X126053624Y-60559940D02*
X126053624Y-59559940D01*
X126434577Y-59559940D01*
X126529815Y-59607560D01*
X126577434Y-59655179D01*
X126625053Y-59750417D01*
X126625053Y-59893274D01*
X126577434Y-59988512D01*
X126529815Y-60036131D01*
X126434577Y-60083750D01*
X126053624Y-60083750D01*
X127006005Y-59655179D02*
X127053624Y-59607560D01*
X127148862Y-59559940D01*
X127386958Y-59559940D01*
X127482196Y-59607560D01*
X127529815Y-59655179D01*
X127577434Y-59750417D01*
X127577434Y-59845655D01*
X127529815Y-59988512D01*
X126958386Y-60559940D01*
X127577434Y-60559940D01*
G04 #@! TO.C,R4*
X112533420Y-84437626D02*
X112057230Y-84770960D01*
X112533420Y-85009055D02*
X111533420Y-85009055D01*
X111533420Y-84628102D01*
X111581040Y-84532864D01*
X111628659Y-84485245D01*
X111723897Y-84437626D01*
X111866754Y-84437626D01*
X111961992Y-84485245D01*
X112009611Y-84532864D01*
X112057230Y-84628102D01*
X112057230Y-85009055D01*
X111866754Y-83580483D02*
X112533420Y-83580483D01*
X111485801Y-83818579D02*
X112200087Y-84056674D01*
X112200087Y-83437626D01*
G04 #@! TO.C,SW1*
X111021361Y-67031693D02*
X111068980Y-66888836D01*
X111068980Y-66650740D01*
X111021361Y-66555502D01*
X110973742Y-66507883D01*
X110878504Y-66460264D01*
X110783266Y-66460264D01*
X110688028Y-66507883D01*
X110640409Y-66555502D01*
X110592790Y-66650740D01*
X110545171Y-66841217D01*
X110497552Y-66936455D01*
X110449933Y-66984074D01*
X110354695Y-67031693D01*
X110259457Y-67031693D01*
X110164219Y-66984074D01*
X110116600Y-66936455D01*
X110068980Y-66841217D01*
X110068980Y-66603121D01*
X110116600Y-66460264D01*
X110068980Y-66126931D02*
X111068980Y-65888836D01*
X110354695Y-65698360D01*
X111068980Y-65507883D01*
X110068980Y-65269788D01*
X111068980Y-64365026D02*
X111068980Y-64936455D01*
X111068980Y-64650740D02*
X110068980Y-64650740D01*
X110211838Y-64745979D01*
X110307076Y-64841217D01*
X110354695Y-64936455D01*
G04 #@! TO.C,U1*
X123908795Y-56471100D02*
X123908795Y-57280624D01*
X123956414Y-57375862D01*
X124004033Y-57423481D01*
X124099271Y-57471100D01*
X124289747Y-57471100D01*
X124384985Y-57423481D01*
X124432604Y-57375862D01*
X124480223Y-57280624D01*
X124480223Y-56471100D01*
X125480223Y-57471100D02*
X124908795Y-57471100D01*
X125194509Y-57471100D02*
X125194509Y-56471100D01*
X125099271Y-56613958D01*
X125004033Y-56709196D01*
X124908795Y-56756815D01*
G04 #@! TO.C,U2*
X112639180Y-76300344D02*
X113448704Y-76300344D01*
X113543942Y-76252725D01*
X113591561Y-76205106D01*
X113639180Y-76109868D01*
X113639180Y-75919392D01*
X113591561Y-75824154D01*
X113543942Y-75776535D01*
X113448704Y-75728916D01*
X112639180Y-75728916D01*
X112734419Y-75300344D02*
X112686800Y-75252725D01*
X112639180Y-75157487D01*
X112639180Y-74919392D01*
X112686800Y-74824154D01*
X112734419Y-74776535D01*
X112829657Y-74728916D01*
X112924895Y-74728916D01*
X113067752Y-74776535D01*
X113639180Y-75347963D01*
X113639180Y-74728916D01*
G04 #@! TO.C,U3*
X118364620Y-73837704D02*
X119174144Y-73837704D01*
X119269382Y-73790085D01*
X119317001Y-73742466D01*
X119364620Y-73647228D01*
X119364620Y-73456752D01*
X119317001Y-73361514D01*
X119269382Y-73313895D01*
X119174144Y-73266276D01*
X118364620Y-73266276D01*
X118364620Y-72885323D02*
X118364620Y-72266276D01*
X118745573Y-72599609D01*
X118745573Y-72456752D01*
X118793192Y-72361514D01*
X118840811Y-72313895D01*
X118936049Y-72266276D01*
X119174144Y-72266276D01*
X119269382Y-72313895D01*
X119317001Y-72361514D01*
X119364620Y-72456752D01*
X119364620Y-72742466D01*
X119317001Y-72837704D01*
X119269382Y-72885323D01*
G04 #@! TO.C,U4*
X109408055Y-84627580D02*
X109408055Y-85437104D01*
X109455674Y-85532342D01*
X109503293Y-85579961D01*
X109598531Y-85627580D01*
X109789007Y-85627580D01*
X109884245Y-85579961D01*
X109931864Y-85532342D01*
X109979483Y-85437104D01*
X109979483Y-84627580D01*
X110884245Y-84960914D02*
X110884245Y-85627580D01*
X110646150Y-84579961D02*
X110408055Y-85294247D01*
X111027102Y-85294247D01*
G04 #@! TO.C,D2*
X118462380Y-78658095D02*
X117462380Y-78658095D01*
X117462380Y-78420000D01*
X117510000Y-78277142D01*
X117605238Y-78181904D01*
X117700476Y-78134285D01*
X117890952Y-78086666D01*
X118033809Y-78086666D01*
X118224285Y-78134285D01*
X118319523Y-78181904D01*
X118414761Y-78277142D01*
X118462380Y-78420000D01*
X118462380Y-78658095D01*
X117557619Y-77705714D02*
X117510000Y-77658095D01*
X117462380Y-77562857D01*
X117462380Y-77324761D01*
X117510000Y-77229523D01*
X117557619Y-77181904D01*
X117652857Y-77134285D01*
X117748095Y-77134285D01*
X117890952Y-77181904D01*
X118462380Y-77753333D01*
X118462380Y-77134285D01*
G04 #@! TO.C,R5*
X117257381Y-87981665D02*
X116781191Y-88314999D01*
X117257381Y-88553094D02*
X116257381Y-88553094D01*
X116257381Y-88172141D01*
X116305001Y-88076903D01*
X116352620Y-88029284D01*
X116447858Y-87981665D01*
X116590715Y-87981665D01*
X116685953Y-88029284D01*
X116733572Y-88076903D01*
X116781191Y-88172141D01*
X116781191Y-88553094D01*
X116257381Y-87076903D02*
X116257381Y-87553094D01*
X116733572Y-87600713D01*
X116685953Y-87553094D01*
X116638334Y-87457856D01*
X116638334Y-87219760D01*
X116685953Y-87124522D01*
X116733572Y-87076903D01*
X116828810Y-87029284D01*
X117066905Y-87029284D01*
X117162143Y-87076903D01*
X117209762Y-87124522D01*
X117257381Y-87219760D01*
X117257381Y-87457856D01*
X117209762Y-87553094D01*
X117162143Y-87600713D01*
G04 #@! TO.C,R6*
X117533333Y-80232380D02*
X117200000Y-79756190D01*
X116961904Y-80232380D02*
X116961904Y-79232380D01*
X117342857Y-79232380D01*
X117438095Y-79280000D01*
X117485714Y-79327619D01*
X117533333Y-79422857D01*
X117533333Y-79565714D01*
X117485714Y-79660952D01*
X117438095Y-79708571D01*
X117342857Y-79756190D01*
X116961904Y-79756190D01*
X118390476Y-79232380D02*
X118200000Y-79232380D01*
X118104761Y-79280000D01*
X118057142Y-79327619D01*
X117961904Y-79470476D01*
X117914285Y-79660952D01*
X117914285Y-80041904D01*
X117961904Y-80137142D01*
X118009523Y-80184761D01*
X118104761Y-80232380D01*
X118295238Y-80232380D01*
X118390476Y-80184761D01*
X118438095Y-80137142D01*
X118485714Y-80041904D01*
X118485714Y-79803809D01*
X118438095Y-79708571D01*
X118390476Y-79660952D01*
X118295238Y-79613333D01*
X118104761Y-79613333D01*
X118009523Y-79660952D01*
X117961904Y-79708571D01*
X117914285Y-79803809D01*
G04 #@! TO.C,REF\002A\002A*
X107066666Y-93752380D02*
X106733333Y-93276190D01*
X106495238Y-93752380D02*
X106495238Y-92752380D01*
X106876190Y-92752380D01*
X106971428Y-92800000D01*
X107019047Y-92847619D01*
X107066666Y-92942857D01*
X107066666Y-93085714D01*
X107019047Y-93180952D01*
X106971428Y-93228571D01*
X106876190Y-93276190D01*
X106495238Y-93276190D01*
X107495238Y-93228571D02*
X107828571Y-93228571D01*
X107971428Y-93752380D02*
X107495238Y-93752380D01*
X107495238Y-92752380D01*
X107971428Y-92752380D01*
X108733333Y-93228571D02*
X108400000Y-93228571D01*
X108400000Y-93752380D02*
X108400000Y-92752380D01*
X108876190Y-92752380D01*
X109400000Y-92752380D02*
X109400000Y-92990476D01*
X109161904Y-92895238D02*
X109400000Y-92990476D01*
X109638095Y-92895238D01*
X109257142Y-93180952D02*
X109400000Y-92990476D01*
X109542857Y-93180952D01*
X110161904Y-92752380D02*
X110161904Y-92990476D01*
X109923809Y-92895238D02*
X110161904Y-92990476D01*
X110400000Y-92895238D01*
X110019047Y-93180952D02*
X110161904Y-92990476D01*
X110304761Y-93180952D01*
G04 #@! TD*
M02*
