G04 #@! TF.GenerationSoftware,KiCad,Pcbnew,5.0.2-bee76a0~70~ubuntu16.04.1*
G04 #@! TF.CreationDate,2020-11-05T23:54:09+01:00*
G04 #@! TF.ProjectId,BTSerialClient,42545365-7269-4616-9c43-6c69656e742e,rev?*
G04 #@! TF.SameCoordinates,Original*
G04 #@! TF.FileFunction,Copper,L1,Top*
G04 #@! TF.FilePolarity,Positive*
%FSLAX46Y46*%
G04 Gerber Fmt 4.6, Leading zero omitted, Abs format (unit mm)*
G04 Created by KiCad (PCBNEW 5.0.2-bee76a0~70~ubuntu16.04.1) date tor  5 nov 2020 23:54:09*
%MOMM*%
%LPD*%
G01*
G04 APERTURE LIST*
G04 #@! TA.AperFunction,SMDPad,CuDef*
%ADD10R,2.000000X2.000000*%
G04 #@! TD*
G04 #@! TA.AperFunction,ComponentPad*
%ADD11O,1.700000X1.000000*%
G04 #@! TD*
G04 #@! TA.AperFunction,ComponentPad*
%ADD12C,0.500000*%
G04 #@! TD*
G04 #@! TA.AperFunction,SMDPad,CuDef*
%ADD13R,1.650000X0.400000*%
G04 #@! TD*
G04 #@! TA.AperFunction,SMDPad,CuDef*
%ADD14R,1.600000X2.100000*%
G04 #@! TD*
G04 #@! TA.AperFunction,ComponentPad*
%ADD15R,2.000000X2.000000*%
G04 #@! TD*
G04 #@! TA.AperFunction,ComponentPad*
%ADD16C,2.000000*%
G04 #@! TD*
G04 #@! TA.AperFunction,Conductor*
%ADD17C,0.100000*%
G04 #@! TD*
G04 #@! TA.AperFunction,SMDPad,CuDef*
%ADD18C,1.150000*%
G04 #@! TD*
G04 #@! TA.AperFunction,SMDPad,CuDef*
%ADD19R,1.846667X3.480000*%
G04 #@! TD*
G04 #@! TA.AperFunction,SMDPad,CuDef*
%ADD20R,1.500000X0.700000*%
G04 #@! TD*
G04 #@! TA.AperFunction,SMDPad,CuDef*
%ADD21R,0.800000X1.000000*%
G04 #@! TD*
G04 #@! TA.AperFunction,SMDPad,CuDef*
%ADD22R,2.500000X1.100000*%
G04 #@! TD*
G04 #@! TA.AperFunction,SMDPad,CuDef*
%ADD23R,0.650000X1.060000*%
G04 #@! TD*
G04 #@! TA.AperFunction,SMDPad,CuDef*
%ADD24R,0.600000X1.500000*%
G04 #@! TD*
G04 #@! TA.AperFunction,SMDPad,CuDef*
%ADD25R,1.060000X0.650000*%
G04 #@! TD*
G04 #@! TA.AperFunction,SMDPad,CuDef*
%ADD26R,0.720000X1.000000*%
G04 #@! TD*
G04 #@! TA.AperFunction,ViaPad*
%ADD27C,0.800000*%
G04 #@! TD*
G04 #@! TA.AperFunction,Conductor*
%ADD28C,0.400000*%
G04 #@! TD*
G04 #@! TA.AperFunction,Conductor*
%ADD29C,0.254000*%
G04 #@! TD*
G04 APERTURE END LIST*
D10*
G04 #@! TO.P,J1,6*
G04 #@! TO.N,GND*
X106720640Y-57082680D03*
X106720640Y-54782680D03*
D11*
X106770640Y-58807680D03*
X106770640Y-53057680D03*
D12*
X109120640Y-57932680D03*
X109120640Y-53932680D03*
D13*
G04 #@! TO.P,J1,5*
X109285640Y-57232680D03*
G04 #@! TO.P,J1,4*
G04 #@! TO.N,Net-(J1-Pad4)*
X109285640Y-56582680D03*
G04 #@! TO.P,J1,3*
G04 #@! TO.N,Net-(J1-Pad3)*
X109285640Y-55932680D03*
G04 #@! TO.P,J1,2*
G04 #@! TO.N,Net-(J1-Pad2)*
X109285640Y-55282680D03*
G04 #@! TO.P,J1,1*
G04 #@! TO.N,VBUS*
X109285640Y-54632680D03*
D14*
G04 #@! TO.P,J1,6*
G04 #@! TO.N,GND*
X109320640Y-59032680D03*
X109335640Y-52882680D03*
G04 #@! TD*
D15*
G04 #@! TO.P,BT1,1*
G04 #@! TO.N,BatteryPower*
X109743240Y-82961480D03*
D16*
G04 #@! TO.P,BT1,2*
G04 #@! TO.N,GND*
X109743240Y-80421480D03*
G04 #@! TD*
D17*
G04 #@! TO.N,GND*
G04 #@! TO.C,C1*
G36*
X115222385Y-71822124D02*
X115246653Y-71825724D01*
X115270452Y-71831685D01*
X115293551Y-71839950D01*
X115315730Y-71850440D01*
X115336773Y-71863052D01*
X115356479Y-71877667D01*
X115374657Y-71894143D01*
X115391133Y-71912321D01*
X115405748Y-71932027D01*
X115418360Y-71953070D01*
X115428850Y-71975249D01*
X115437115Y-71998348D01*
X115443076Y-72022147D01*
X115446676Y-72046415D01*
X115447880Y-72070919D01*
X115447880Y-72970921D01*
X115446676Y-72995425D01*
X115443076Y-73019693D01*
X115437115Y-73043492D01*
X115428850Y-73066591D01*
X115418360Y-73088770D01*
X115405748Y-73109813D01*
X115391133Y-73129519D01*
X115374657Y-73147697D01*
X115356479Y-73164173D01*
X115336773Y-73178788D01*
X115315730Y-73191400D01*
X115293551Y-73201890D01*
X115270452Y-73210155D01*
X115246653Y-73216116D01*
X115222385Y-73219716D01*
X115197881Y-73220920D01*
X114547879Y-73220920D01*
X114523375Y-73219716D01*
X114499107Y-73216116D01*
X114475308Y-73210155D01*
X114452209Y-73201890D01*
X114430030Y-73191400D01*
X114408987Y-73178788D01*
X114389281Y-73164173D01*
X114371103Y-73147697D01*
X114354627Y-73129519D01*
X114340012Y-73109813D01*
X114327400Y-73088770D01*
X114316910Y-73066591D01*
X114308645Y-73043492D01*
X114302684Y-73019693D01*
X114299084Y-72995425D01*
X114297880Y-72970921D01*
X114297880Y-72070919D01*
X114299084Y-72046415D01*
X114302684Y-72022147D01*
X114308645Y-71998348D01*
X114316910Y-71975249D01*
X114327400Y-71953070D01*
X114340012Y-71932027D01*
X114354627Y-71912321D01*
X114371103Y-71894143D01*
X114389281Y-71877667D01*
X114408987Y-71863052D01*
X114430030Y-71850440D01*
X114452209Y-71839950D01*
X114475308Y-71831685D01*
X114499107Y-71825724D01*
X114523375Y-71822124D01*
X114547879Y-71820920D01*
X115197881Y-71820920D01*
X115222385Y-71822124D01*
X115222385Y-71822124D01*
G37*
D18*
G04 #@! TD*
G04 #@! TO.P,C1,2*
G04 #@! TO.N,GND*
X114872880Y-72520920D03*
D17*
G04 #@! TO.N,SelectedPower*
G04 #@! TO.C,C1*
G36*
X113172385Y-71822124D02*
X113196653Y-71825724D01*
X113220452Y-71831685D01*
X113243551Y-71839950D01*
X113265730Y-71850440D01*
X113286773Y-71863052D01*
X113306479Y-71877667D01*
X113324657Y-71894143D01*
X113341133Y-71912321D01*
X113355748Y-71932027D01*
X113368360Y-71953070D01*
X113378850Y-71975249D01*
X113387115Y-71998348D01*
X113393076Y-72022147D01*
X113396676Y-72046415D01*
X113397880Y-72070919D01*
X113397880Y-72970921D01*
X113396676Y-72995425D01*
X113393076Y-73019693D01*
X113387115Y-73043492D01*
X113378850Y-73066591D01*
X113368360Y-73088770D01*
X113355748Y-73109813D01*
X113341133Y-73129519D01*
X113324657Y-73147697D01*
X113306479Y-73164173D01*
X113286773Y-73178788D01*
X113265730Y-73191400D01*
X113243551Y-73201890D01*
X113220452Y-73210155D01*
X113196653Y-73216116D01*
X113172385Y-73219716D01*
X113147881Y-73220920D01*
X112497879Y-73220920D01*
X112473375Y-73219716D01*
X112449107Y-73216116D01*
X112425308Y-73210155D01*
X112402209Y-73201890D01*
X112380030Y-73191400D01*
X112358987Y-73178788D01*
X112339281Y-73164173D01*
X112321103Y-73147697D01*
X112304627Y-73129519D01*
X112290012Y-73109813D01*
X112277400Y-73088770D01*
X112266910Y-73066591D01*
X112258645Y-73043492D01*
X112252684Y-73019693D01*
X112249084Y-72995425D01*
X112247880Y-72970921D01*
X112247880Y-72070919D01*
X112249084Y-72046415D01*
X112252684Y-72022147D01*
X112258645Y-71998348D01*
X112266910Y-71975249D01*
X112277400Y-71953070D01*
X112290012Y-71932027D01*
X112304627Y-71912321D01*
X112321103Y-71894143D01*
X112339281Y-71877667D01*
X112358987Y-71863052D01*
X112380030Y-71850440D01*
X112402209Y-71839950D01*
X112425308Y-71831685D01*
X112449107Y-71825724D01*
X112473375Y-71822124D01*
X112497879Y-71820920D01*
X113147881Y-71820920D01*
X113172385Y-71822124D01*
X113172385Y-71822124D01*
G37*
D18*
G04 #@! TD*
G04 #@! TO.P,C1,1*
G04 #@! TO.N,SelectedPower*
X112822880Y-72520920D03*
D17*
G04 #@! TO.N,Net-(C2-Pad2)*
G04 #@! TO.C,C2*
G36*
X122054985Y-78234244D02*
X122079253Y-78237844D01*
X122103052Y-78243805D01*
X122126151Y-78252070D01*
X122148330Y-78262560D01*
X122169373Y-78275172D01*
X122189079Y-78289787D01*
X122207257Y-78306263D01*
X122223733Y-78324441D01*
X122238348Y-78344147D01*
X122250960Y-78365190D01*
X122261450Y-78387369D01*
X122269715Y-78410468D01*
X122275676Y-78434267D01*
X122279276Y-78458535D01*
X122280480Y-78483039D01*
X122280480Y-79383041D01*
X122279276Y-79407545D01*
X122275676Y-79431813D01*
X122269715Y-79455612D01*
X122261450Y-79478711D01*
X122250960Y-79500890D01*
X122238348Y-79521933D01*
X122223733Y-79541639D01*
X122207257Y-79559817D01*
X122189079Y-79576293D01*
X122169373Y-79590908D01*
X122148330Y-79603520D01*
X122126151Y-79614010D01*
X122103052Y-79622275D01*
X122079253Y-79628236D01*
X122054985Y-79631836D01*
X122030481Y-79633040D01*
X121380479Y-79633040D01*
X121355975Y-79631836D01*
X121331707Y-79628236D01*
X121307908Y-79622275D01*
X121284809Y-79614010D01*
X121262630Y-79603520D01*
X121241587Y-79590908D01*
X121221881Y-79576293D01*
X121203703Y-79559817D01*
X121187227Y-79541639D01*
X121172612Y-79521933D01*
X121160000Y-79500890D01*
X121149510Y-79478711D01*
X121141245Y-79455612D01*
X121135284Y-79431813D01*
X121131684Y-79407545D01*
X121130480Y-79383041D01*
X121130480Y-78483039D01*
X121131684Y-78458535D01*
X121135284Y-78434267D01*
X121141245Y-78410468D01*
X121149510Y-78387369D01*
X121160000Y-78365190D01*
X121172612Y-78344147D01*
X121187227Y-78324441D01*
X121203703Y-78306263D01*
X121221881Y-78289787D01*
X121241587Y-78275172D01*
X121262630Y-78262560D01*
X121284809Y-78252070D01*
X121307908Y-78243805D01*
X121331707Y-78237844D01*
X121355975Y-78234244D01*
X121380479Y-78233040D01*
X122030481Y-78233040D01*
X122054985Y-78234244D01*
X122054985Y-78234244D01*
G37*
D18*
G04 #@! TD*
G04 #@! TO.P,C2,2*
G04 #@! TO.N,Net-(C2-Pad2)*
X121705480Y-78933040D03*
D17*
G04 #@! TO.N,Net-(C2-Pad1)*
G04 #@! TO.C,C2*
G36*
X120004985Y-78234244D02*
X120029253Y-78237844D01*
X120053052Y-78243805D01*
X120076151Y-78252070D01*
X120098330Y-78262560D01*
X120119373Y-78275172D01*
X120139079Y-78289787D01*
X120157257Y-78306263D01*
X120173733Y-78324441D01*
X120188348Y-78344147D01*
X120200960Y-78365190D01*
X120211450Y-78387369D01*
X120219715Y-78410468D01*
X120225676Y-78434267D01*
X120229276Y-78458535D01*
X120230480Y-78483039D01*
X120230480Y-79383041D01*
X120229276Y-79407545D01*
X120225676Y-79431813D01*
X120219715Y-79455612D01*
X120211450Y-79478711D01*
X120200960Y-79500890D01*
X120188348Y-79521933D01*
X120173733Y-79541639D01*
X120157257Y-79559817D01*
X120139079Y-79576293D01*
X120119373Y-79590908D01*
X120098330Y-79603520D01*
X120076151Y-79614010D01*
X120053052Y-79622275D01*
X120029253Y-79628236D01*
X120004985Y-79631836D01*
X119980481Y-79633040D01*
X119330479Y-79633040D01*
X119305975Y-79631836D01*
X119281707Y-79628236D01*
X119257908Y-79622275D01*
X119234809Y-79614010D01*
X119212630Y-79603520D01*
X119191587Y-79590908D01*
X119171881Y-79576293D01*
X119153703Y-79559817D01*
X119137227Y-79541639D01*
X119122612Y-79521933D01*
X119110000Y-79500890D01*
X119099510Y-79478711D01*
X119091245Y-79455612D01*
X119085284Y-79431813D01*
X119081684Y-79407545D01*
X119080480Y-79383041D01*
X119080480Y-78483039D01*
X119081684Y-78458535D01*
X119085284Y-78434267D01*
X119091245Y-78410468D01*
X119099510Y-78387369D01*
X119110000Y-78365190D01*
X119122612Y-78344147D01*
X119137227Y-78324441D01*
X119153703Y-78306263D01*
X119171881Y-78289787D01*
X119191587Y-78275172D01*
X119212630Y-78262560D01*
X119234809Y-78252070D01*
X119257908Y-78243805D01*
X119281707Y-78237844D01*
X119305975Y-78234244D01*
X119330479Y-78233040D01*
X119980481Y-78233040D01*
X120004985Y-78234244D01*
X120004985Y-78234244D01*
G37*
D18*
G04 #@! TD*
G04 #@! TO.P,C2,1*
G04 #@! TO.N,Net-(C2-Pad1)*
X119655480Y-78933040D03*
D17*
G04 #@! TO.N,3_3V*
G04 #@! TO.C,C3*
G36*
X113456865Y-77857164D02*
X113481133Y-77860764D01*
X113504932Y-77866725D01*
X113528031Y-77874990D01*
X113550210Y-77885480D01*
X113571253Y-77898092D01*
X113590959Y-77912707D01*
X113609137Y-77929183D01*
X113625613Y-77947361D01*
X113640228Y-77967067D01*
X113652840Y-77988110D01*
X113663330Y-78010289D01*
X113671595Y-78033388D01*
X113677556Y-78057187D01*
X113681156Y-78081455D01*
X113682360Y-78105959D01*
X113682360Y-79005961D01*
X113681156Y-79030465D01*
X113677556Y-79054733D01*
X113671595Y-79078532D01*
X113663330Y-79101631D01*
X113652840Y-79123810D01*
X113640228Y-79144853D01*
X113625613Y-79164559D01*
X113609137Y-79182737D01*
X113590959Y-79199213D01*
X113571253Y-79213828D01*
X113550210Y-79226440D01*
X113528031Y-79236930D01*
X113504932Y-79245195D01*
X113481133Y-79251156D01*
X113456865Y-79254756D01*
X113432361Y-79255960D01*
X112782359Y-79255960D01*
X112757855Y-79254756D01*
X112733587Y-79251156D01*
X112709788Y-79245195D01*
X112686689Y-79236930D01*
X112664510Y-79226440D01*
X112643467Y-79213828D01*
X112623761Y-79199213D01*
X112605583Y-79182737D01*
X112589107Y-79164559D01*
X112574492Y-79144853D01*
X112561880Y-79123810D01*
X112551390Y-79101631D01*
X112543125Y-79078532D01*
X112537164Y-79054733D01*
X112533564Y-79030465D01*
X112532360Y-79005961D01*
X112532360Y-78105959D01*
X112533564Y-78081455D01*
X112537164Y-78057187D01*
X112543125Y-78033388D01*
X112551390Y-78010289D01*
X112561880Y-77988110D01*
X112574492Y-77967067D01*
X112589107Y-77947361D01*
X112605583Y-77929183D01*
X112623761Y-77912707D01*
X112643467Y-77898092D01*
X112664510Y-77885480D01*
X112686689Y-77874990D01*
X112709788Y-77866725D01*
X112733587Y-77860764D01*
X112757855Y-77857164D01*
X112782359Y-77855960D01*
X113432361Y-77855960D01*
X113456865Y-77857164D01*
X113456865Y-77857164D01*
G37*
D18*
G04 #@! TD*
G04 #@! TO.P,C3,1*
G04 #@! TO.N,3_3V*
X113107360Y-78555960D03*
D17*
G04 #@! TO.N,GND*
G04 #@! TO.C,C3*
G36*
X115506865Y-77857164D02*
X115531133Y-77860764D01*
X115554932Y-77866725D01*
X115578031Y-77874990D01*
X115600210Y-77885480D01*
X115621253Y-77898092D01*
X115640959Y-77912707D01*
X115659137Y-77929183D01*
X115675613Y-77947361D01*
X115690228Y-77967067D01*
X115702840Y-77988110D01*
X115713330Y-78010289D01*
X115721595Y-78033388D01*
X115727556Y-78057187D01*
X115731156Y-78081455D01*
X115732360Y-78105959D01*
X115732360Y-79005961D01*
X115731156Y-79030465D01*
X115727556Y-79054733D01*
X115721595Y-79078532D01*
X115713330Y-79101631D01*
X115702840Y-79123810D01*
X115690228Y-79144853D01*
X115675613Y-79164559D01*
X115659137Y-79182737D01*
X115640959Y-79199213D01*
X115621253Y-79213828D01*
X115600210Y-79226440D01*
X115578031Y-79236930D01*
X115554932Y-79245195D01*
X115531133Y-79251156D01*
X115506865Y-79254756D01*
X115482361Y-79255960D01*
X114832359Y-79255960D01*
X114807855Y-79254756D01*
X114783587Y-79251156D01*
X114759788Y-79245195D01*
X114736689Y-79236930D01*
X114714510Y-79226440D01*
X114693467Y-79213828D01*
X114673761Y-79199213D01*
X114655583Y-79182737D01*
X114639107Y-79164559D01*
X114624492Y-79144853D01*
X114611880Y-79123810D01*
X114601390Y-79101631D01*
X114593125Y-79078532D01*
X114587164Y-79054733D01*
X114583564Y-79030465D01*
X114582360Y-79005961D01*
X114582360Y-78105959D01*
X114583564Y-78081455D01*
X114587164Y-78057187D01*
X114593125Y-78033388D01*
X114601390Y-78010289D01*
X114611880Y-77988110D01*
X114624492Y-77967067D01*
X114639107Y-77947361D01*
X114655583Y-77929183D01*
X114673761Y-77912707D01*
X114693467Y-77898092D01*
X114714510Y-77885480D01*
X114736689Y-77874990D01*
X114759788Y-77866725D01*
X114783587Y-77860764D01*
X114807855Y-77857164D01*
X114832359Y-77855960D01*
X115482361Y-77855960D01*
X115506865Y-77857164D01*
X115506865Y-77857164D01*
G37*
D18*
G04 #@! TD*
G04 #@! TO.P,C3,2*
G04 #@! TO.N,GND*
X115157360Y-78555960D03*
D17*
G04 #@! TO.N,GND*
G04 #@! TO.C,C4*
G36*
X122869065Y-66143844D02*
X122893333Y-66147444D01*
X122917132Y-66153405D01*
X122940231Y-66161670D01*
X122962410Y-66172160D01*
X122983453Y-66184772D01*
X123003159Y-66199387D01*
X123021337Y-66215863D01*
X123037813Y-66234041D01*
X123052428Y-66253747D01*
X123065040Y-66274790D01*
X123075530Y-66296969D01*
X123083795Y-66320068D01*
X123089756Y-66343867D01*
X123093356Y-66368135D01*
X123094560Y-66392639D01*
X123094560Y-67292641D01*
X123093356Y-67317145D01*
X123089756Y-67341413D01*
X123083795Y-67365212D01*
X123075530Y-67388311D01*
X123065040Y-67410490D01*
X123052428Y-67431533D01*
X123037813Y-67451239D01*
X123021337Y-67469417D01*
X123003159Y-67485893D01*
X122983453Y-67500508D01*
X122962410Y-67513120D01*
X122940231Y-67523610D01*
X122917132Y-67531875D01*
X122893333Y-67537836D01*
X122869065Y-67541436D01*
X122844561Y-67542640D01*
X122194559Y-67542640D01*
X122170055Y-67541436D01*
X122145787Y-67537836D01*
X122121988Y-67531875D01*
X122098889Y-67523610D01*
X122076710Y-67513120D01*
X122055667Y-67500508D01*
X122035961Y-67485893D01*
X122017783Y-67469417D01*
X122001307Y-67451239D01*
X121986692Y-67431533D01*
X121974080Y-67410490D01*
X121963590Y-67388311D01*
X121955325Y-67365212D01*
X121949364Y-67341413D01*
X121945764Y-67317145D01*
X121944560Y-67292641D01*
X121944560Y-66392639D01*
X121945764Y-66368135D01*
X121949364Y-66343867D01*
X121955325Y-66320068D01*
X121963590Y-66296969D01*
X121974080Y-66274790D01*
X121986692Y-66253747D01*
X122001307Y-66234041D01*
X122017783Y-66215863D01*
X122035961Y-66199387D01*
X122055667Y-66184772D01*
X122076710Y-66172160D01*
X122098889Y-66161670D01*
X122121988Y-66153405D01*
X122145787Y-66147444D01*
X122170055Y-66143844D01*
X122194559Y-66142640D01*
X122844561Y-66142640D01*
X122869065Y-66143844D01*
X122869065Y-66143844D01*
G37*
D18*
G04 #@! TD*
G04 #@! TO.P,C4,1*
G04 #@! TO.N,GND*
X122519560Y-66842640D03*
D17*
G04 #@! TO.N,3_3V*
G04 #@! TO.C,C4*
G36*
X120819065Y-66143844D02*
X120843333Y-66147444D01*
X120867132Y-66153405D01*
X120890231Y-66161670D01*
X120912410Y-66172160D01*
X120933453Y-66184772D01*
X120953159Y-66199387D01*
X120971337Y-66215863D01*
X120987813Y-66234041D01*
X121002428Y-66253747D01*
X121015040Y-66274790D01*
X121025530Y-66296969D01*
X121033795Y-66320068D01*
X121039756Y-66343867D01*
X121043356Y-66368135D01*
X121044560Y-66392639D01*
X121044560Y-67292641D01*
X121043356Y-67317145D01*
X121039756Y-67341413D01*
X121033795Y-67365212D01*
X121025530Y-67388311D01*
X121015040Y-67410490D01*
X121002428Y-67431533D01*
X120987813Y-67451239D01*
X120971337Y-67469417D01*
X120953159Y-67485893D01*
X120933453Y-67500508D01*
X120912410Y-67513120D01*
X120890231Y-67523610D01*
X120867132Y-67531875D01*
X120843333Y-67537836D01*
X120819065Y-67541436D01*
X120794561Y-67542640D01*
X120144559Y-67542640D01*
X120120055Y-67541436D01*
X120095787Y-67537836D01*
X120071988Y-67531875D01*
X120048889Y-67523610D01*
X120026710Y-67513120D01*
X120005667Y-67500508D01*
X119985961Y-67485893D01*
X119967783Y-67469417D01*
X119951307Y-67451239D01*
X119936692Y-67431533D01*
X119924080Y-67410490D01*
X119913590Y-67388311D01*
X119905325Y-67365212D01*
X119899364Y-67341413D01*
X119895764Y-67317145D01*
X119894560Y-67292641D01*
X119894560Y-66392639D01*
X119895764Y-66368135D01*
X119899364Y-66343867D01*
X119905325Y-66320068D01*
X119913590Y-66296969D01*
X119924080Y-66274790D01*
X119936692Y-66253747D01*
X119951307Y-66234041D01*
X119967783Y-66215863D01*
X119985961Y-66199387D01*
X120005667Y-66184772D01*
X120026710Y-66172160D01*
X120048889Y-66161670D01*
X120071988Y-66153405D01*
X120095787Y-66147444D01*
X120120055Y-66143844D01*
X120144559Y-66142640D01*
X120794561Y-66142640D01*
X120819065Y-66143844D01*
X120819065Y-66143844D01*
G37*
D18*
G04 #@! TD*
G04 #@! TO.P,C4,2*
G04 #@! TO.N,3_3V*
X120469560Y-66842640D03*
D17*
G04 #@! TO.N,Net-(C5-Pad1)*
G04 #@! TO.C,C5*
G36*
X125435625Y-78635564D02*
X125459893Y-78639164D01*
X125483692Y-78645125D01*
X125506791Y-78653390D01*
X125528970Y-78663880D01*
X125550013Y-78676492D01*
X125569719Y-78691107D01*
X125587897Y-78707583D01*
X125604373Y-78725761D01*
X125618988Y-78745467D01*
X125631600Y-78766510D01*
X125642090Y-78788689D01*
X125650355Y-78811788D01*
X125656316Y-78835587D01*
X125659916Y-78859855D01*
X125661120Y-78884359D01*
X125661120Y-79784361D01*
X125659916Y-79808865D01*
X125656316Y-79833133D01*
X125650355Y-79856932D01*
X125642090Y-79880031D01*
X125631600Y-79902210D01*
X125618988Y-79923253D01*
X125604373Y-79942959D01*
X125587897Y-79961137D01*
X125569719Y-79977613D01*
X125550013Y-79992228D01*
X125528970Y-80004840D01*
X125506791Y-80015330D01*
X125483692Y-80023595D01*
X125459893Y-80029556D01*
X125435625Y-80033156D01*
X125411121Y-80034360D01*
X124761119Y-80034360D01*
X124736615Y-80033156D01*
X124712347Y-80029556D01*
X124688548Y-80023595D01*
X124665449Y-80015330D01*
X124643270Y-80004840D01*
X124622227Y-79992228D01*
X124602521Y-79977613D01*
X124584343Y-79961137D01*
X124567867Y-79942959D01*
X124553252Y-79923253D01*
X124540640Y-79902210D01*
X124530150Y-79880031D01*
X124521885Y-79856932D01*
X124515924Y-79833133D01*
X124512324Y-79808865D01*
X124511120Y-79784361D01*
X124511120Y-78884359D01*
X124512324Y-78859855D01*
X124515924Y-78835587D01*
X124521885Y-78811788D01*
X124530150Y-78788689D01*
X124540640Y-78766510D01*
X124553252Y-78745467D01*
X124567867Y-78725761D01*
X124584343Y-78707583D01*
X124602521Y-78691107D01*
X124622227Y-78676492D01*
X124643270Y-78663880D01*
X124665449Y-78653390D01*
X124688548Y-78645125D01*
X124712347Y-78639164D01*
X124736615Y-78635564D01*
X124761119Y-78634360D01*
X125411121Y-78634360D01*
X125435625Y-78635564D01*
X125435625Y-78635564D01*
G37*
D18*
G04 #@! TD*
G04 #@! TO.P,C5,1*
G04 #@! TO.N,Net-(C5-Pad1)*
X125086120Y-79334360D03*
D17*
G04 #@! TO.N,Net-(C5-Pad2)*
G04 #@! TO.C,C5*
G36*
X127485625Y-78635564D02*
X127509893Y-78639164D01*
X127533692Y-78645125D01*
X127556791Y-78653390D01*
X127578970Y-78663880D01*
X127600013Y-78676492D01*
X127619719Y-78691107D01*
X127637897Y-78707583D01*
X127654373Y-78725761D01*
X127668988Y-78745467D01*
X127681600Y-78766510D01*
X127692090Y-78788689D01*
X127700355Y-78811788D01*
X127706316Y-78835587D01*
X127709916Y-78859855D01*
X127711120Y-78884359D01*
X127711120Y-79784361D01*
X127709916Y-79808865D01*
X127706316Y-79833133D01*
X127700355Y-79856932D01*
X127692090Y-79880031D01*
X127681600Y-79902210D01*
X127668988Y-79923253D01*
X127654373Y-79942959D01*
X127637897Y-79961137D01*
X127619719Y-79977613D01*
X127600013Y-79992228D01*
X127578970Y-80004840D01*
X127556791Y-80015330D01*
X127533692Y-80023595D01*
X127509893Y-80029556D01*
X127485625Y-80033156D01*
X127461121Y-80034360D01*
X126811119Y-80034360D01*
X126786615Y-80033156D01*
X126762347Y-80029556D01*
X126738548Y-80023595D01*
X126715449Y-80015330D01*
X126693270Y-80004840D01*
X126672227Y-79992228D01*
X126652521Y-79977613D01*
X126634343Y-79961137D01*
X126617867Y-79942959D01*
X126603252Y-79923253D01*
X126590640Y-79902210D01*
X126580150Y-79880031D01*
X126571885Y-79856932D01*
X126565924Y-79833133D01*
X126562324Y-79808865D01*
X126561120Y-79784361D01*
X126561120Y-78884359D01*
X126562324Y-78859855D01*
X126565924Y-78835587D01*
X126571885Y-78811788D01*
X126580150Y-78788689D01*
X126590640Y-78766510D01*
X126603252Y-78745467D01*
X126617867Y-78725761D01*
X126634343Y-78707583D01*
X126652521Y-78691107D01*
X126672227Y-78676492D01*
X126693270Y-78663880D01*
X126715449Y-78653390D01*
X126738548Y-78645125D01*
X126762347Y-78639164D01*
X126786615Y-78635564D01*
X126811119Y-78634360D01*
X127461121Y-78634360D01*
X127485625Y-78635564D01*
X127485625Y-78635564D01*
G37*
D18*
G04 #@! TD*
G04 #@! TO.P,C5,2*
G04 #@! TO.N,Net-(C5-Pad2)*
X127136120Y-79334360D03*
D17*
G04 #@! TO.N,GND*
G04 #@! TO.C,C6*
G36*
X118411785Y-76092404D02*
X118436053Y-76096004D01*
X118459852Y-76101965D01*
X118482951Y-76110230D01*
X118505130Y-76120720D01*
X118526173Y-76133332D01*
X118545879Y-76147947D01*
X118564057Y-76164423D01*
X118580533Y-76182601D01*
X118595148Y-76202307D01*
X118607760Y-76223350D01*
X118618250Y-76245529D01*
X118626515Y-76268628D01*
X118632476Y-76292427D01*
X118636076Y-76316695D01*
X118637280Y-76341199D01*
X118637280Y-76991201D01*
X118636076Y-77015705D01*
X118632476Y-77039973D01*
X118626515Y-77063772D01*
X118618250Y-77086871D01*
X118607760Y-77109050D01*
X118595148Y-77130093D01*
X118580533Y-77149799D01*
X118564057Y-77167977D01*
X118545879Y-77184453D01*
X118526173Y-77199068D01*
X118505130Y-77211680D01*
X118482951Y-77222170D01*
X118459852Y-77230435D01*
X118436053Y-77236396D01*
X118411785Y-77239996D01*
X118387281Y-77241200D01*
X117487279Y-77241200D01*
X117462775Y-77239996D01*
X117438507Y-77236396D01*
X117414708Y-77230435D01*
X117391609Y-77222170D01*
X117369430Y-77211680D01*
X117348387Y-77199068D01*
X117328681Y-77184453D01*
X117310503Y-77167977D01*
X117294027Y-77149799D01*
X117279412Y-77130093D01*
X117266800Y-77109050D01*
X117256310Y-77086871D01*
X117248045Y-77063772D01*
X117242084Y-77039973D01*
X117238484Y-77015705D01*
X117237280Y-76991201D01*
X117237280Y-76341199D01*
X117238484Y-76316695D01*
X117242084Y-76292427D01*
X117248045Y-76268628D01*
X117256310Y-76245529D01*
X117266800Y-76223350D01*
X117279412Y-76202307D01*
X117294027Y-76182601D01*
X117310503Y-76164423D01*
X117328681Y-76147947D01*
X117348387Y-76133332D01*
X117369430Y-76120720D01*
X117391609Y-76110230D01*
X117414708Y-76101965D01*
X117438507Y-76096004D01*
X117462775Y-76092404D01*
X117487279Y-76091200D01*
X118387281Y-76091200D01*
X118411785Y-76092404D01*
X118411785Y-76092404D01*
G37*
D18*
G04 #@! TD*
G04 #@! TO.P,C6,1*
G04 #@! TO.N,GND*
X117937280Y-76666200D03*
D17*
G04 #@! TO.N,Net-(C6-Pad2)*
G04 #@! TO.C,C6*
G36*
X118411785Y-74042404D02*
X118436053Y-74046004D01*
X118459852Y-74051965D01*
X118482951Y-74060230D01*
X118505130Y-74070720D01*
X118526173Y-74083332D01*
X118545879Y-74097947D01*
X118564057Y-74114423D01*
X118580533Y-74132601D01*
X118595148Y-74152307D01*
X118607760Y-74173350D01*
X118618250Y-74195529D01*
X118626515Y-74218628D01*
X118632476Y-74242427D01*
X118636076Y-74266695D01*
X118637280Y-74291199D01*
X118637280Y-74941201D01*
X118636076Y-74965705D01*
X118632476Y-74989973D01*
X118626515Y-75013772D01*
X118618250Y-75036871D01*
X118607760Y-75059050D01*
X118595148Y-75080093D01*
X118580533Y-75099799D01*
X118564057Y-75117977D01*
X118545879Y-75134453D01*
X118526173Y-75149068D01*
X118505130Y-75161680D01*
X118482951Y-75172170D01*
X118459852Y-75180435D01*
X118436053Y-75186396D01*
X118411785Y-75189996D01*
X118387281Y-75191200D01*
X117487279Y-75191200D01*
X117462775Y-75189996D01*
X117438507Y-75186396D01*
X117414708Y-75180435D01*
X117391609Y-75172170D01*
X117369430Y-75161680D01*
X117348387Y-75149068D01*
X117328681Y-75134453D01*
X117310503Y-75117977D01*
X117294027Y-75099799D01*
X117279412Y-75080093D01*
X117266800Y-75059050D01*
X117256310Y-75036871D01*
X117248045Y-75013772D01*
X117242084Y-74989973D01*
X117238484Y-74965705D01*
X117237280Y-74941201D01*
X117237280Y-74291199D01*
X117238484Y-74266695D01*
X117242084Y-74242427D01*
X117248045Y-74218628D01*
X117256310Y-74195529D01*
X117266800Y-74173350D01*
X117279412Y-74152307D01*
X117294027Y-74132601D01*
X117310503Y-74114423D01*
X117328681Y-74097947D01*
X117348387Y-74083332D01*
X117369430Y-74070720D01*
X117391609Y-74060230D01*
X117414708Y-74051965D01*
X117438507Y-74046004D01*
X117462775Y-74042404D01*
X117487279Y-74041200D01*
X118387281Y-74041200D01*
X118411785Y-74042404D01*
X118411785Y-74042404D01*
G37*
D18*
G04 #@! TD*
G04 #@! TO.P,C6,2*
G04 #@! TO.N,Net-(C6-Pad2)*
X117937280Y-74616200D03*
D17*
G04 #@! TO.N,Net-(C7-Pad2)*
G04 #@! TO.C,C7*
G36*
X132788185Y-73321044D02*
X132812453Y-73324644D01*
X132836252Y-73330605D01*
X132859351Y-73338870D01*
X132881530Y-73349360D01*
X132902573Y-73361972D01*
X132922279Y-73376587D01*
X132940457Y-73393063D01*
X132956933Y-73411241D01*
X132971548Y-73430947D01*
X132984160Y-73451990D01*
X132994650Y-73474169D01*
X133002915Y-73497268D01*
X133008876Y-73521067D01*
X133012476Y-73545335D01*
X133013680Y-73569839D01*
X133013680Y-74219841D01*
X133012476Y-74244345D01*
X133008876Y-74268613D01*
X133002915Y-74292412D01*
X132994650Y-74315511D01*
X132984160Y-74337690D01*
X132971548Y-74358733D01*
X132956933Y-74378439D01*
X132940457Y-74396617D01*
X132922279Y-74413093D01*
X132902573Y-74427708D01*
X132881530Y-74440320D01*
X132859351Y-74450810D01*
X132836252Y-74459075D01*
X132812453Y-74465036D01*
X132788185Y-74468636D01*
X132763681Y-74469840D01*
X131863679Y-74469840D01*
X131839175Y-74468636D01*
X131814907Y-74465036D01*
X131791108Y-74459075D01*
X131768009Y-74450810D01*
X131745830Y-74440320D01*
X131724787Y-74427708D01*
X131705081Y-74413093D01*
X131686903Y-74396617D01*
X131670427Y-74378439D01*
X131655812Y-74358733D01*
X131643200Y-74337690D01*
X131632710Y-74315511D01*
X131624445Y-74292412D01*
X131618484Y-74268613D01*
X131614884Y-74244345D01*
X131613680Y-74219841D01*
X131613680Y-73569839D01*
X131614884Y-73545335D01*
X131618484Y-73521067D01*
X131624445Y-73497268D01*
X131632710Y-73474169D01*
X131643200Y-73451990D01*
X131655812Y-73430947D01*
X131670427Y-73411241D01*
X131686903Y-73393063D01*
X131705081Y-73376587D01*
X131724787Y-73361972D01*
X131745830Y-73349360D01*
X131768009Y-73338870D01*
X131791108Y-73330605D01*
X131814907Y-73324644D01*
X131839175Y-73321044D01*
X131863679Y-73319840D01*
X132763681Y-73319840D01*
X132788185Y-73321044D01*
X132788185Y-73321044D01*
G37*
D18*
G04 #@! TD*
G04 #@! TO.P,C7,2*
G04 #@! TO.N,Net-(C7-Pad2)*
X132313680Y-73894840D03*
D17*
G04 #@! TO.N,GND*
G04 #@! TO.C,C7*
G36*
X132788185Y-75371044D02*
X132812453Y-75374644D01*
X132836252Y-75380605D01*
X132859351Y-75388870D01*
X132881530Y-75399360D01*
X132902573Y-75411972D01*
X132922279Y-75426587D01*
X132940457Y-75443063D01*
X132956933Y-75461241D01*
X132971548Y-75480947D01*
X132984160Y-75501990D01*
X132994650Y-75524169D01*
X133002915Y-75547268D01*
X133008876Y-75571067D01*
X133012476Y-75595335D01*
X133013680Y-75619839D01*
X133013680Y-76269841D01*
X133012476Y-76294345D01*
X133008876Y-76318613D01*
X133002915Y-76342412D01*
X132994650Y-76365511D01*
X132984160Y-76387690D01*
X132971548Y-76408733D01*
X132956933Y-76428439D01*
X132940457Y-76446617D01*
X132922279Y-76463093D01*
X132902573Y-76477708D01*
X132881530Y-76490320D01*
X132859351Y-76500810D01*
X132836252Y-76509075D01*
X132812453Y-76515036D01*
X132788185Y-76518636D01*
X132763681Y-76519840D01*
X131863679Y-76519840D01*
X131839175Y-76518636D01*
X131814907Y-76515036D01*
X131791108Y-76509075D01*
X131768009Y-76500810D01*
X131745830Y-76490320D01*
X131724787Y-76477708D01*
X131705081Y-76463093D01*
X131686903Y-76446617D01*
X131670427Y-76428439D01*
X131655812Y-76408733D01*
X131643200Y-76387690D01*
X131632710Y-76365511D01*
X131624445Y-76342412D01*
X131618484Y-76318613D01*
X131614884Y-76294345D01*
X131613680Y-76269841D01*
X131613680Y-75619839D01*
X131614884Y-75595335D01*
X131618484Y-75571067D01*
X131624445Y-75547268D01*
X131632710Y-75524169D01*
X131643200Y-75501990D01*
X131655812Y-75480947D01*
X131670427Y-75461241D01*
X131686903Y-75443063D01*
X131705081Y-75426587D01*
X131724787Y-75411972D01*
X131745830Y-75399360D01*
X131768009Y-75388870D01*
X131791108Y-75380605D01*
X131814907Y-75374644D01*
X131839175Y-75371044D01*
X131863679Y-75369840D01*
X132763681Y-75369840D01*
X132788185Y-75371044D01*
X132788185Y-75371044D01*
G37*
D18*
G04 #@! TD*
G04 #@! TO.P,C7,1*
G04 #@! TO.N,GND*
X132313680Y-75944840D03*
D17*
G04 #@! TO.N,GND*
G04 #@! TO.C,C8*
G36*
X114347785Y-92377724D02*
X114372053Y-92381324D01*
X114395852Y-92387285D01*
X114418951Y-92395550D01*
X114441130Y-92406040D01*
X114462173Y-92418652D01*
X114481879Y-92433267D01*
X114500057Y-92449743D01*
X114516533Y-92467921D01*
X114531148Y-92487627D01*
X114543760Y-92508670D01*
X114554250Y-92530849D01*
X114562515Y-92553948D01*
X114568476Y-92577747D01*
X114572076Y-92602015D01*
X114573280Y-92626519D01*
X114573280Y-93276521D01*
X114572076Y-93301025D01*
X114568476Y-93325293D01*
X114562515Y-93349092D01*
X114554250Y-93372191D01*
X114543760Y-93394370D01*
X114531148Y-93415413D01*
X114516533Y-93435119D01*
X114500057Y-93453297D01*
X114481879Y-93469773D01*
X114462173Y-93484388D01*
X114441130Y-93497000D01*
X114418951Y-93507490D01*
X114395852Y-93515755D01*
X114372053Y-93521716D01*
X114347785Y-93525316D01*
X114323281Y-93526520D01*
X113423279Y-93526520D01*
X113398775Y-93525316D01*
X113374507Y-93521716D01*
X113350708Y-93515755D01*
X113327609Y-93507490D01*
X113305430Y-93497000D01*
X113284387Y-93484388D01*
X113264681Y-93469773D01*
X113246503Y-93453297D01*
X113230027Y-93435119D01*
X113215412Y-93415413D01*
X113202800Y-93394370D01*
X113192310Y-93372191D01*
X113184045Y-93349092D01*
X113178084Y-93325293D01*
X113174484Y-93301025D01*
X113173280Y-93276521D01*
X113173280Y-92626519D01*
X113174484Y-92602015D01*
X113178084Y-92577747D01*
X113184045Y-92553948D01*
X113192310Y-92530849D01*
X113202800Y-92508670D01*
X113215412Y-92487627D01*
X113230027Y-92467921D01*
X113246503Y-92449743D01*
X113264681Y-92433267D01*
X113284387Y-92418652D01*
X113305430Y-92406040D01*
X113327609Y-92395550D01*
X113350708Y-92387285D01*
X113374507Y-92381324D01*
X113398775Y-92377724D01*
X113423279Y-92376520D01*
X114323281Y-92376520D01*
X114347785Y-92377724D01*
X114347785Y-92377724D01*
G37*
D18*
G04 #@! TD*
G04 #@! TO.P,C8,1*
G04 #@! TO.N,GND*
X113873280Y-92951520D03*
D17*
G04 #@! TO.N,VBUS*
G04 #@! TO.C,C8*
G36*
X114347785Y-90327724D02*
X114372053Y-90331324D01*
X114395852Y-90337285D01*
X114418951Y-90345550D01*
X114441130Y-90356040D01*
X114462173Y-90368652D01*
X114481879Y-90383267D01*
X114500057Y-90399743D01*
X114516533Y-90417921D01*
X114531148Y-90437627D01*
X114543760Y-90458670D01*
X114554250Y-90480849D01*
X114562515Y-90503948D01*
X114568476Y-90527747D01*
X114572076Y-90552015D01*
X114573280Y-90576519D01*
X114573280Y-91226521D01*
X114572076Y-91251025D01*
X114568476Y-91275293D01*
X114562515Y-91299092D01*
X114554250Y-91322191D01*
X114543760Y-91344370D01*
X114531148Y-91365413D01*
X114516533Y-91385119D01*
X114500057Y-91403297D01*
X114481879Y-91419773D01*
X114462173Y-91434388D01*
X114441130Y-91447000D01*
X114418951Y-91457490D01*
X114395852Y-91465755D01*
X114372053Y-91471716D01*
X114347785Y-91475316D01*
X114323281Y-91476520D01*
X113423279Y-91476520D01*
X113398775Y-91475316D01*
X113374507Y-91471716D01*
X113350708Y-91465755D01*
X113327609Y-91457490D01*
X113305430Y-91447000D01*
X113284387Y-91434388D01*
X113264681Y-91419773D01*
X113246503Y-91403297D01*
X113230027Y-91385119D01*
X113215412Y-91365413D01*
X113202800Y-91344370D01*
X113192310Y-91322191D01*
X113184045Y-91299092D01*
X113178084Y-91275293D01*
X113174484Y-91251025D01*
X113173280Y-91226521D01*
X113173280Y-90576519D01*
X113174484Y-90552015D01*
X113178084Y-90527747D01*
X113184045Y-90503948D01*
X113192310Y-90480849D01*
X113202800Y-90458670D01*
X113215412Y-90437627D01*
X113230027Y-90417921D01*
X113246503Y-90399743D01*
X113264681Y-90383267D01*
X113284387Y-90368652D01*
X113305430Y-90356040D01*
X113327609Y-90345550D01*
X113350708Y-90337285D01*
X113374507Y-90331324D01*
X113398775Y-90327724D01*
X113423279Y-90326520D01*
X114323281Y-90326520D01*
X114347785Y-90327724D01*
X114347785Y-90327724D01*
G37*
D18*
G04 #@! TD*
G04 #@! TO.P,C8,2*
G04 #@! TO.N,VBUS*
X113873280Y-90901520D03*
D17*
G04 #@! TO.N,GND*
G04 #@! TO.C,C9*
G36*
X108084145Y-92382804D02*
X108108413Y-92386404D01*
X108132212Y-92392365D01*
X108155311Y-92400630D01*
X108177490Y-92411120D01*
X108198533Y-92423732D01*
X108218239Y-92438347D01*
X108236417Y-92454823D01*
X108252893Y-92473001D01*
X108267508Y-92492707D01*
X108280120Y-92513750D01*
X108290610Y-92535929D01*
X108298875Y-92559028D01*
X108304836Y-92582827D01*
X108308436Y-92607095D01*
X108309640Y-92631599D01*
X108309640Y-93281601D01*
X108308436Y-93306105D01*
X108304836Y-93330373D01*
X108298875Y-93354172D01*
X108290610Y-93377271D01*
X108280120Y-93399450D01*
X108267508Y-93420493D01*
X108252893Y-93440199D01*
X108236417Y-93458377D01*
X108218239Y-93474853D01*
X108198533Y-93489468D01*
X108177490Y-93502080D01*
X108155311Y-93512570D01*
X108132212Y-93520835D01*
X108108413Y-93526796D01*
X108084145Y-93530396D01*
X108059641Y-93531600D01*
X107159639Y-93531600D01*
X107135135Y-93530396D01*
X107110867Y-93526796D01*
X107087068Y-93520835D01*
X107063969Y-93512570D01*
X107041790Y-93502080D01*
X107020747Y-93489468D01*
X107001041Y-93474853D01*
X106982863Y-93458377D01*
X106966387Y-93440199D01*
X106951772Y-93420493D01*
X106939160Y-93399450D01*
X106928670Y-93377271D01*
X106920405Y-93354172D01*
X106914444Y-93330373D01*
X106910844Y-93306105D01*
X106909640Y-93281601D01*
X106909640Y-92631599D01*
X106910844Y-92607095D01*
X106914444Y-92582827D01*
X106920405Y-92559028D01*
X106928670Y-92535929D01*
X106939160Y-92513750D01*
X106951772Y-92492707D01*
X106966387Y-92473001D01*
X106982863Y-92454823D01*
X107001041Y-92438347D01*
X107020747Y-92423732D01*
X107041790Y-92411120D01*
X107063969Y-92400630D01*
X107087068Y-92392365D01*
X107110867Y-92386404D01*
X107135135Y-92382804D01*
X107159639Y-92381600D01*
X108059641Y-92381600D01*
X108084145Y-92382804D01*
X108084145Y-92382804D01*
G37*
D18*
G04 #@! TD*
G04 #@! TO.P,C9,2*
G04 #@! TO.N,GND*
X107609640Y-92956600D03*
D17*
G04 #@! TO.N,BatteryPower*
G04 #@! TO.C,C9*
G36*
X108084145Y-90332804D02*
X108108413Y-90336404D01*
X108132212Y-90342365D01*
X108155311Y-90350630D01*
X108177490Y-90361120D01*
X108198533Y-90373732D01*
X108218239Y-90388347D01*
X108236417Y-90404823D01*
X108252893Y-90423001D01*
X108267508Y-90442707D01*
X108280120Y-90463750D01*
X108290610Y-90485929D01*
X108298875Y-90509028D01*
X108304836Y-90532827D01*
X108308436Y-90557095D01*
X108309640Y-90581599D01*
X108309640Y-91231601D01*
X108308436Y-91256105D01*
X108304836Y-91280373D01*
X108298875Y-91304172D01*
X108290610Y-91327271D01*
X108280120Y-91349450D01*
X108267508Y-91370493D01*
X108252893Y-91390199D01*
X108236417Y-91408377D01*
X108218239Y-91424853D01*
X108198533Y-91439468D01*
X108177490Y-91452080D01*
X108155311Y-91462570D01*
X108132212Y-91470835D01*
X108108413Y-91476796D01*
X108084145Y-91480396D01*
X108059641Y-91481600D01*
X107159639Y-91481600D01*
X107135135Y-91480396D01*
X107110867Y-91476796D01*
X107087068Y-91470835D01*
X107063969Y-91462570D01*
X107041790Y-91452080D01*
X107020747Y-91439468D01*
X107001041Y-91424853D01*
X106982863Y-91408377D01*
X106966387Y-91390199D01*
X106951772Y-91370493D01*
X106939160Y-91349450D01*
X106928670Y-91327271D01*
X106920405Y-91304172D01*
X106914444Y-91280373D01*
X106910844Y-91256105D01*
X106909640Y-91231601D01*
X106909640Y-90581599D01*
X106910844Y-90557095D01*
X106914444Y-90532827D01*
X106920405Y-90509028D01*
X106928670Y-90485929D01*
X106939160Y-90463750D01*
X106951772Y-90442707D01*
X106966387Y-90423001D01*
X106982863Y-90404823D01*
X107001041Y-90388347D01*
X107020747Y-90373732D01*
X107041790Y-90361120D01*
X107063969Y-90350630D01*
X107087068Y-90342365D01*
X107110867Y-90336404D01*
X107135135Y-90332804D01*
X107159639Y-90331600D01*
X108059641Y-90331600D01*
X108084145Y-90332804D01*
X108084145Y-90332804D01*
G37*
D18*
G04 #@! TD*
G04 #@! TO.P,C9,1*
G04 #@! TO.N,BatteryPower*
X107609640Y-90906600D03*
D19*
G04 #@! TO.P,J2,1*
G04 #@! TO.N,GND*
X115630700Y-97947600D03*
G04 #@! TO.P,J2,2*
G04 #@! TO.N,Net-(J2-Pad2)*
X118400700Y-97947600D03*
G04 #@! TO.P,J2,3*
G04 #@! TO.N,Net-(J2-Pad3)*
X121170700Y-97947600D03*
G04 #@! TO.P,J2,4*
G04 #@! TO.N,Net-(J2-Pad4)*
X123940700Y-97947600D03*
G04 #@! TO.P,J2,5*
G04 #@! TO.N,Net-(J2-Pad5)*
X126710700Y-97947600D03*
G04 #@! TD*
D17*
G04 #@! TO.N,LED*
G04 #@! TO.C,R1*
G36*
X125604505Y-81611204D02*
X125628773Y-81614804D01*
X125652572Y-81620765D01*
X125675671Y-81629030D01*
X125697850Y-81639520D01*
X125718893Y-81652132D01*
X125738599Y-81666747D01*
X125756777Y-81683223D01*
X125773253Y-81701401D01*
X125787868Y-81721107D01*
X125800480Y-81742150D01*
X125810970Y-81764329D01*
X125819235Y-81787428D01*
X125825196Y-81811227D01*
X125828796Y-81835495D01*
X125830000Y-81859999D01*
X125830000Y-82760001D01*
X125828796Y-82784505D01*
X125825196Y-82808773D01*
X125819235Y-82832572D01*
X125810970Y-82855671D01*
X125800480Y-82877850D01*
X125787868Y-82898893D01*
X125773253Y-82918599D01*
X125756777Y-82936777D01*
X125738599Y-82953253D01*
X125718893Y-82967868D01*
X125697850Y-82980480D01*
X125675671Y-82990970D01*
X125652572Y-82999235D01*
X125628773Y-83005196D01*
X125604505Y-83008796D01*
X125580001Y-83010000D01*
X124929999Y-83010000D01*
X124905495Y-83008796D01*
X124881227Y-83005196D01*
X124857428Y-82999235D01*
X124834329Y-82990970D01*
X124812150Y-82980480D01*
X124791107Y-82967868D01*
X124771401Y-82953253D01*
X124753223Y-82936777D01*
X124736747Y-82918599D01*
X124722132Y-82898893D01*
X124709520Y-82877850D01*
X124699030Y-82855671D01*
X124690765Y-82832572D01*
X124684804Y-82808773D01*
X124681204Y-82784505D01*
X124680000Y-82760001D01*
X124680000Y-81859999D01*
X124681204Y-81835495D01*
X124684804Y-81811227D01*
X124690765Y-81787428D01*
X124699030Y-81764329D01*
X124709520Y-81742150D01*
X124722132Y-81721107D01*
X124736747Y-81701401D01*
X124753223Y-81683223D01*
X124771401Y-81666747D01*
X124791107Y-81652132D01*
X124812150Y-81639520D01*
X124834329Y-81629030D01*
X124857428Y-81620765D01*
X124881227Y-81614804D01*
X124905495Y-81611204D01*
X124929999Y-81610000D01*
X125580001Y-81610000D01*
X125604505Y-81611204D01*
X125604505Y-81611204D01*
G37*
D18*
G04 #@! TD*
G04 #@! TO.P,R1,2*
G04 #@! TO.N,LED*
X125255000Y-82310000D03*
D17*
G04 #@! TO.N,Net-(D2-Pad1)*
G04 #@! TO.C,R1*
G36*
X123554505Y-81611204D02*
X123578773Y-81614804D01*
X123602572Y-81620765D01*
X123625671Y-81629030D01*
X123647850Y-81639520D01*
X123668893Y-81652132D01*
X123688599Y-81666747D01*
X123706777Y-81683223D01*
X123723253Y-81701401D01*
X123737868Y-81721107D01*
X123750480Y-81742150D01*
X123760970Y-81764329D01*
X123769235Y-81787428D01*
X123775196Y-81811227D01*
X123778796Y-81835495D01*
X123780000Y-81859999D01*
X123780000Y-82760001D01*
X123778796Y-82784505D01*
X123775196Y-82808773D01*
X123769235Y-82832572D01*
X123760970Y-82855671D01*
X123750480Y-82877850D01*
X123737868Y-82898893D01*
X123723253Y-82918599D01*
X123706777Y-82936777D01*
X123688599Y-82953253D01*
X123668893Y-82967868D01*
X123647850Y-82980480D01*
X123625671Y-82990970D01*
X123602572Y-82999235D01*
X123578773Y-83005196D01*
X123554505Y-83008796D01*
X123530001Y-83010000D01*
X122879999Y-83010000D01*
X122855495Y-83008796D01*
X122831227Y-83005196D01*
X122807428Y-82999235D01*
X122784329Y-82990970D01*
X122762150Y-82980480D01*
X122741107Y-82967868D01*
X122721401Y-82953253D01*
X122703223Y-82936777D01*
X122686747Y-82918599D01*
X122672132Y-82898893D01*
X122659520Y-82877850D01*
X122649030Y-82855671D01*
X122640765Y-82832572D01*
X122634804Y-82808773D01*
X122631204Y-82784505D01*
X122630000Y-82760001D01*
X122630000Y-81859999D01*
X122631204Y-81835495D01*
X122634804Y-81811227D01*
X122640765Y-81787428D01*
X122649030Y-81764329D01*
X122659520Y-81742150D01*
X122672132Y-81721107D01*
X122686747Y-81701401D01*
X122703223Y-81683223D01*
X122721401Y-81666747D01*
X122741107Y-81652132D01*
X122762150Y-81639520D01*
X122784329Y-81629030D01*
X122807428Y-81620765D01*
X122831227Y-81614804D01*
X122855495Y-81611204D01*
X122879999Y-81610000D01*
X123530001Y-81610000D01*
X123554505Y-81611204D01*
X123554505Y-81611204D01*
G37*
D18*
G04 #@! TD*
G04 #@! TO.P,R1,1*
G04 #@! TO.N,Net-(D2-Pad1)*
X123205000Y-82310000D03*
D17*
G04 #@! TO.N,GND*
G04 #@! TO.C,R2*
G36*
X126116225Y-61058764D02*
X126140493Y-61062364D01*
X126164292Y-61068325D01*
X126187391Y-61076590D01*
X126209570Y-61087080D01*
X126230613Y-61099692D01*
X126250319Y-61114307D01*
X126268497Y-61130783D01*
X126284973Y-61148961D01*
X126299588Y-61168667D01*
X126312200Y-61189710D01*
X126322690Y-61211889D01*
X126330955Y-61234988D01*
X126336916Y-61258787D01*
X126340516Y-61283055D01*
X126341720Y-61307559D01*
X126341720Y-62207561D01*
X126340516Y-62232065D01*
X126336916Y-62256333D01*
X126330955Y-62280132D01*
X126322690Y-62303231D01*
X126312200Y-62325410D01*
X126299588Y-62346453D01*
X126284973Y-62366159D01*
X126268497Y-62384337D01*
X126250319Y-62400813D01*
X126230613Y-62415428D01*
X126209570Y-62428040D01*
X126187391Y-62438530D01*
X126164292Y-62446795D01*
X126140493Y-62452756D01*
X126116225Y-62456356D01*
X126091721Y-62457560D01*
X125441719Y-62457560D01*
X125417215Y-62456356D01*
X125392947Y-62452756D01*
X125369148Y-62446795D01*
X125346049Y-62438530D01*
X125323870Y-62428040D01*
X125302827Y-62415428D01*
X125283121Y-62400813D01*
X125264943Y-62384337D01*
X125248467Y-62366159D01*
X125233852Y-62346453D01*
X125221240Y-62325410D01*
X125210750Y-62303231D01*
X125202485Y-62280132D01*
X125196524Y-62256333D01*
X125192924Y-62232065D01*
X125191720Y-62207561D01*
X125191720Y-61307559D01*
X125192924Y-61283055D01*
X125196524Y-61258787D01*
X125202485Y-61234988D01*
X125210750Y-61211889D01*
X125221240Y-61189710D01*
X125233852Y-61168667D01*
X125248467Y-61148961D01*
X125264943Y-61130783D01*
X125283121Y-61114307D01*
X125302827Y-61099692D01*
X125323870Y-61087080D01*
X125346049Y-61076590D01*
X125369148Y-61068325D01*
X125392947Y-61062364D01*
X125417215Y-61058764D01*
X125441719Y-61057560D01*
X126091721Y-61057560D01*
X126116225Y-61058764D01*
X126116225Y-61058764D01*
G37*
D18*
G04 #@! TD*
G04 #@! TO.P,R2,1*
G04 #@! TO.N,GND*
X125766720Y-61757560D03*
D17*
G04 #@! TO.N,Net-(R2-Pad2)*
G04 #@! TO.C,R2*
G36*
X128166225Y-61058764D02*
X128190493Y-61062364D01*
X128214292Y-61068325D01*
X128237391Y-61076590D01*
X128259570Y-61087080D01*
X128280613Y-61099692D01*
X128300319Y-61114307D01*
X128318497Y-61130783D01*
X128334973Y-61148961D01*
X128349588Y-61168667D01*
X128362200Y-61189710D01*
X128372690Y-61211889D01*
X128380955Y-61234988D01*
X128386916Y-61258787D01*
X128390516Y-61283055D01*
X128391720Y-61307559D01*
X128391720Y-62207561D01*
X128390516Y-62232065D01*
X128386916Y-62256333D01*
X128380955Y-62280132D01*
X128372690Y-62303231D01*
X128362200Y-62325410D01*
X128349588Y-62346453D01*
X128334973Y-62366159D01*
X128318497Y-62384337D01*
X128300319Y-62400813D01*
X128280613Y-62415428D01*
X128259570Y-62428040D01*
X128237391Y-62438530D01*
X128214292Y-62446795D01*
X128190493Y-62452756D01*
X128166225Y-62456356D01*
X128141721Y-62457560D01*
X127491719Y-62457560D01*
X127467215Y-62456356D01*
X127442947Y-62452756D01*
X127419148Y-62446795D01*
X127396049Y-62438530D01*
X127373870Y-62428040D01*
X127352827Y-62415428D01*
X127333121Y-62400813D01*
X127314943Y-62384337D01*
X127298467Y-62366159D01*
X127283852Y-62346453D01*
X127271240Y-62325410D01*
X127260750Y-62303231D01*
X127252485Y-62280132D01*
X127246524Y-62256333D01*
X127242924Y-62232065D01*
X127241720Y-62207561D01*
X127241720Y-61307559D01*
X127242924Y-61283055D01*
X127246524Y-61258787D01*
X127252485Y-61234988D01*
X127260750Y-61211889D01*
X127271240Y-61189710D01*
X127283852Y-61168667D01*
X127298467Y-61148961D01*
X127314943Y-61130783D01*
X127333121Y-61114307D01*
X127352827Y-61099692D01*
X127373870Y-61087080D01*
X127396049Y-61076590D01*
X127419148Y-61068325D01*
X127442947Y-61062364D01*
X127467215Y-61058764D01*
X127491719Y-61057560D01*
X128141721Y-61057560D01*
X128166225Y-61058764D01*
X128166225Y-61058764D01*
G37*
D18*
G04 #@! TD*
G04 #@! TO.P,R2,2*
G04 #@! TO.N,Net-(R2-Pad2)*
X127816720Y-61757560D03*
D17*
G04 #@! TO.N,Net-(R4-Pad1)*
G04 #@! TO.C,R4*
G36*
X114205545Y-84722164D02*
X114229813Y-84725764D01*
X114253612Y-84731725D01*
X114276711Y-84739990D01*
X114298890Y-84750480D01*
X114319933Y-84763092D01*
X114339639Y-84777707D01*
X114357817Y-84794183D01*
X114374293Y-84812361D01*
X114388908Y-84832067D01*
X114401520Y-84853110D01*
X114412010Y-84875289D01*
X114420275Y-84898388D01*
X114426236Y-84922187D01*
X114429836Y-84946455D01*
X114431040Y-84970959D01*
X114431040Y-85620961D01*
X114429836Y-85645465D01*
X114426236Y-85669733D01*
X114420275Y-85693532D01*
X114412010Y-85716631D01*
X114401520Y-85738810D01*
X114388908Y-85759853D01*
X114374293Y-85779559D01*
X114357817Y-85797737D01*
X114339639Y-85814213D01*
X114319933Y-85828828D01*
X114298890Y-85841440D01*
X114276711Y-85851930D01*
X114253612Y-85860195D01*
X114229813Y-85866156D01*
X114205545Y-85869756D01*
X114181041Y-85870960D01*
X113281039Y-85870960D01*
X113256535Y-85869756D01*
X113232267Y-85866156D01*
X113208468Y-85860195D01*
X113185369Y-85851930D01*
X113163190Y-85841440D01*
X113142147Y-85828828D01*
X113122441Y-85814213D01*
X113104263Y-85797737D01*
X113087787Y-85779559D01*
X113073172Y-85759853D01*
X113060560Y-85738810D01*
X113050070Y-85716631D01*
X113041805Y-85693532D01*
X113035844Y-85669733D01*
X113032244Y-85645465D01*
X113031040Y-85620961D01*
X113031040Y-84970959D01*
X113032244Y-84946455D01*
X113035844Y-84922187D01*
X113041805Y-84898388D01*
X113050070Y-84875289D01*
X113060560Y-84853110D01*
X113073172Y-84832067D01*
X113087787Y-84812361D01*
X113104263Y-84794183D01*
X113122441Y-84777707D01*
X113142147Y-84763092D01*
X113163190Y-84750480D01*
X113185369Y-84739990D01*
X113208468Y-84731725D01*
X113232267Y-84725764D01*
X113256535Y-84722164D01*
X113281039Y-84720960D01*
X114181041Y-84720960D01*
X114205545Y-84722164D01*
X114205545Y-84722164D01*
G37*
D18*
G04 #@! TD*
G04 #@! TO.P,R4,1*
G04 #@! TO.N,Net-(R4-Pad1)*
X113731040Y-85295960D03*
D17*
G04 #@! TO.N,GND*
G04 #@! TO.C,R4*
G36*
X114205545Y-82672164D02*
X114229813Y-82675764D01*
X114253612Y-82681725D01*
X114276711Y-82689990D01*
X114298890Y-82700480D01*
X114319933Y-82713092D01*
X114339639Y-82727707D01*
X114357817Y-82744183D01*
X114374293Y-82762361D01*
X114388908Y-82782067D01*
X114401520Y-82803110D01*
X114412010Y-82825289D01*
X114420275Y-82848388D01*
X114426236Y-82872187D01*
X114429836Y-82896455D01*
X114431040Y-82920959D01*
X114431040Y-83570961D01*
X114429836Y-83595465D01*
X114426236Y-83619733D01*
X114420275Y-83643532D01*
X114412010Y-83666631D01*
X114401520Y-83688810D01*
X114388908Y-83709853D01*
X114374293Y-83729559D01*
X114357817Y-83747737D01*
X114339639Y-83764213D01*
X114319933Y-83778828D01*
X114298890Y-83791440D01*
X114276711Y-83801930D01*
X114253612Y-83810195D01*
X114229813Y-83816156D01*
X114205545Y-83819756D01*
X114181041Y-83820960D01*
X113281039Y-83820960D01*
X113256535Y-83819756D01*
X113232267Y-83816156D01*
X113208468Y-83810195D01*
X113185369Y-83801930D01*
X113163190Y-83791440D01*
X113142147Y-83778828D01*
X113122441Y-83764213D01*
X113104263Y-83747737D01*
X113087787Y-83729559D01*
X113073172Y-83709853D01*
X113060560Y-83688810D01*
X113050070Y-83666631D01*
X113041805Y-83643532D01*
X113035844Y-83619733D01*
X113032244Y-83595465D01*
X113031040Y-83570961D01*
X113031040Y-82920959D01*
X113032244Y-82896455D01*
X113035844Y-82872187D01*
X113041805Y-82848388D01*
X113050070Y-82825289D01*
X113060560Y-82803110D01*
X113073172Y-82782067D01*
X113087787Y-82762361D01*
X113104263Y-82744183D01*
X113122441Y-82727707D01*
X113142147Y-82713092D01*
X113163190Y-82700480D01*
X113185369Y-82689990D01*
X113208468Y-82681725D01*
X113232267Y-82675764D01*
X113256535Y-82672164D01*
X113281039Y-82670960D01*
X114181041Y-82670960D01*
X114205545Y-82672164D01*
X114205545Y-82672164D01*
G37*
D18*
G04 #@! TD*
G04 #@! TO.P,R4,2*
G04 #@! TO.N,GND*
X113731040Y-83245960D03*
D20*
G04 #@! TO.P,SW1,1*
G04 #@! TO.N,BatteryPower*
X108846600Y-63448360D03*
G04 #@! TO.P,SW1,2*
G04 #@! TO.N,SelectedPower*
X108846600Y-66448360D03*
G04 #@! TO.P,SW1,3*
G04 #@! TO.N,VBUS*
X108846600Y-67948360D03*
D21*
G04 #@! TO.P,SW1,*
G04 #@! TO.N,*
X105986600Y-62048360D03*
X105986600Y-69348360D03*
X108196600Y-69348360D03*
X108196600Y-62048360D03*
G04 #@! TD*
D22*
G04 #@! TO.P,U1,1*
G04 #@! TO.N,Net-(U1-Pad1)*
X114670700Y-36018720D03*
G04 #@! TO.P,U1,2*
G04 #@! TO.N,Net-(U1-Pad2)*
X114670700Y-37518720D03*
G04 #@! TO.P,U1,3*
G04 #@! TO.N,Net-(U1-Pad3)*
X114670700Y-39018720D03*
G04 #@! TO.P,U1,4*
G04 #@! TO.N,Net-(U1-Pad4)*
X114670700Y-40518720D03*
G04 #@! TO.P,U1,5*
G04 #@! TO.N,Net-(U1-Pad5)*
X114670700Y-42018720D03*
G04 #@! TO.P,U1,6*
G04 #@! TO.N,Net-(U1-Pad6)*
X114670700Y-43518720D03*
G04 #@! TO.P,U1,7*
G04 #@! TO.N,Net-(U1-Pad7)*
X114670700Y-45018720D03*
G04 #@! TO.P,U1,8*
G04 #@! TO.N,Net-(U1-Pad8)*
X114670700Y-46518720D03*
G04 #@! TO.P,U1,9*
G04 #@! TO.N,Net-(U1-Pad9)*
X114670700Y-48018720D03*
G04 #@! TO.P,U1,10*
G04 #@! TO.N,Net-(U1-Pad10)*
X114670700Y-49518720D03*
G04 #@! TO.P,U1,11*
G04 #@! TO.N,Net-(U1-Pad11)*
X114670700Y-51018720D03*
G04 #@! TO.P,U1,12*
G04 #@! TO.N,3_3V*
X114670700Y-52518720D03*
G04 #@! TO.P,U1,13*
G04 #@! TO.N,GND*
X114670700Y-54018720D03*
G04 #@! TO.P,U1,14*
X127670700Y-54018720D03*
G04 #@! TO.P,U1,15*
G04 #@! TO.N,Net-(U1-Pad15)*
X127670700Y-52518720D03*
G04 #@! TO.P,U1,16*
G04 #@! TO.N,Net-(U1-Pad16)*
X127670700Y-51018720D03*
G04 #@! TO.P,U1,17*
G04 #@! TO.N,Net-(U1-Pad17)*
X127670700Y-49518720D03*
G04 #@! TO.P,U1,18*
G04 #@! TO.N,Net-(R2-Pad2)*
X127670700Y-48018720D03*
G04 #@! TO.P,U1,19*
G04 #@! TO.N,Net-(U1-Pad19)*
X127670700Y-46518720D03*
G04 #@! TO.P,U1,20*
G04 #@! TO.N,Net-(U1-Pad20)*
X127670700Y-45018720D03*
G04 #@! TO.P,U1,21*
G04 #@! TO.N,Net-(U1-Pad21)*
X127670700Y-43518720D03*
G04 #@! TO.P,U1,22*
G04 #@! TO.N,Net-(U1-Pad22)*
X127670700Y-42018720D03*
G04 #@! TO.P,U1,23*
G04 #@! TO.N,LED*
X127670700Y-40518720D03*
G04 #@! TO.P,U1,24*
G04 #@! TO.N,Net-(U1-Pad24)*
X127670700Y-39018720D03*
G04 #@! TO.P,U1,25*
G04 #@! TO.N,Net-(U1-Pad25)*
X127670700Y-37518720D03*
G04 #@! TO.P,U1,26*
G04 #@! TO.N,Net-(U1-Pad26)*
X127670700Y-36018720D03*
G04 #@! TD*
D23*
G04 #@! TO.P,U2,5*
G04 #@! TO.N,3_3V*
X111236800Y-76638440D03*
G04 #@! TO.P,U2,4*
G04 #@! TO.N,Net-(U2-Pad4)*
X109336800Y-76638440D03*
G04 #@! TO.P,U2,3*
G04 #@! TO.N,SelectedPower*
X109336800Y-74438440D03*
G04 #@! TO.P,U2,2*
G04 #@! TO.N,GND*
X110286800Y-74438440D03*
G04 #@! TO.P,U2,1*
G04 #@! TO.N,SelectedPower*
X111236800Y-74438440D03*
G04 #@! TD*
D24*
G04 #@! TO.P,U3,1*
G04 #@! TO.N,Net-(C2-Pad1)*
X120467240Y-75775800D03*
G04 #@! TO.P,U3,2*
G04 #@! TO.N,Net-(C6-Pad2)*
X121737240Y-75775800D03*
G04 #@! TO.P,U3,3*
G04 #@! TO.N,Net-(C2-Pad2)*
X123007240Y-75775800D03*
G04 #@! TO.P,U3,4*
G04 #@! TO.N,Net-(C5-Pad1)*
X124277240Y-75775800D03*
G04 #@! TO.P,U3,5*
G04 #@! TO.N,Net-(C5-Pad2)*
X125547240Y-75775800D03*
G04 #@! TO.P,U3,6*
G04 #@! TO.N,Net-(C7-Pad2)*
X126817240Y-75775800D03*
G04 #@! TO.P,U3,7*
G04 #@! TO.N,Net-(J2-Pad3)*
X128087240Y-75775800D03*
G04 #@! TO.P,U3,8*
G04 #@! TO.N,Net-(J2-Pad4)*
X129357240Y-75775800D03*
G04 #@! TO.P,U3,9*
G04 #@! TO.N,Net-(U1-Pad2)*
X129357240Y-70375800D03*
G04 #@! TO.P,U3,10*
G04 #@! TO.N,Net-(U1-Pad1)*
X128087240Y-70375800D03*
G04 #@! TO.P,U3,11*
G04 #@! TO.N,Net-(U3-Pad11)*
X126817240Y-70375800D03*
G04 #@! TO.P,U3,12*
G04 #@! TO.N,Net-(U3-Pad12)*
X125547240Y-70375800D03*
G04 #@! TO.P,U3,13*
G04 #@! TO.N,Net-(U3-Pad13)*
X124277240Y-70375800D03*
G04 #@! TO.P,U3,14*
G04 #@! TO.N,Net-(U3-Pad14)*
X123007240Y-70375800D03*
G04 #@! TO.P,U3,15*
G04 #@! TO.N,GND*
X121737240Y-70375800D03*
G04 #@! TO.P,U3,16*
G04 #@! TO.N,3_3V*
X120467240Y-70375800D03*
G04 #@! TD*
D25*
G04 #@! TO.P,U4,1*
G04 #@! TO.N,CEN*
X109588120Y-87110640D03*
G04 #@! TO.P,U4,2*
G04 #@! TO.N,GND*
X109588120Y-88060640D03*
G04 #@! TO.P,U4,3*
G04 #@! TO.N,BatteryPower*
X109588120Y-89010640D03*
G04 #@! TO.P,U4,4*
G04 #@! TO.N,VBUS*
X111788120Y-89010640D03*
G04 #@! TO.P,U4,5*
G04 #@! TO.N,Net-(R4-Pad1)*
X111788120Y-87110640D03*
G04 #@! TD*
D26*
G04 #@! TO.P,D2,1*
G04 #@! TO.N,Net-(D2-Pad1)*
X121850000Y-86070000D03*
G04 #@! TO.P,D2,2*
G04 #@! TO.N,GND*
X121850000Y-87670000D03*
G04 #@! TO.P,D2,3*
G04 #@! TO.N,Net-(D2-Pad3)*
X120670000Y-87670000D03*
G04 #@! TO.P,D2,4*
G04 #@! TO.N,VBUS*
X120670000Y-86070000D03*
G04 #@! TD*
D17*
G04 #@! TO.N,Net-(D2-Pad3)*
G04 #@! TO.C,R5*
G36*
X119074505Y-89401204D02*
X119098773Y-89404804D01*
X119122572Y-89410765D01*
X119145671Y-89419030D01*
X119167850Y-89429520D01*
X119188893Y-89442132D01*
X119208599Y-89456747D01*
X119226777Y-89473223D01*
X119243253Y-89491401D01*
X119257868Y-89511107D01*
X119270480Y-89532150D01*
X119280970Y-89554329D01*
X119289235Y-89577428D01*
X119295196Y-89601227D01*
X119298796Y-89625495D01*
X119300000Y-89649999D01*
X119300000Y-90300001D01*
X119298796Y-90324505D01*
X119295196Y-90348773D01*
X119289235Y-90372572D01*
X119280970Y-90395671D01*
X119270480Y-90417850D01*
X119257868Y-90438893D01*
X119243253Y-90458599D01*
X119226777Y-90476777D01*
X119208599Y-90493253D01*
X119188893Y-90507868D01*
X119167850Y-90520480D01*
X119145671Y-90530970D01*
X119122572Y-90539235D01*
X119098773Y-90545196D01*
X119074505Y-90548796D01*
X119050001Y-90550000D01*
X118149999Y-90550000D01*
X118125495Y-90548796D01*
X118101227Y-90545196D01*
X118077428Y-90539235D01*
X118054329Y-90530970D01*
X118032150Y-90520480D01*
X118011107Y-90507868D01*
X117991401Y-90493253D01*
X117973223Y-90476777D01*
X117956747Y-90458599D01*
X117942132Y-90438893D01*
X117929520Y-90417850D01*
X117919030Y-90395671D01*
X117910765Y-90372572D01*
X117904804Y-90348773D01*
X117901204Y-90324505D01*
X117900000Y-90300001D01*
X117900000Y-89649999D01*
X117901204Y-89625495D01*
X117904804Y-89601227D01*
X117910765Y-89577428D01*
X117919030Y-89554329D01*
X117929520Y-89532150D01*
X117942132Y-89511107D01*
X117956747Y-89491401D01*
X117973223Y-89473223D01*
X117991401Y-89456747D01*
X118011107Y-89442132D01*
X118032150Y-89429520D01*
X118054329Y-89419030D01*
X118077428Y-89410765D01*
X118101227Y-89404804D01*
X118125495Y-89401204D01*
X118149999Y-89400000D01*
X119050001Y-89400000D01*
X119074505Y-89401204D01*
X119074505Y-89401204D01*
G37*
D18*
G04 #@! TD*
G04 #@! TO.P,R5,2*
G04 #@! TO.N,Net-(D2-Pad3)*
X118600000Y-89975000D03*
D17*
G04 #@! TO.N,Net-(R5-Pad1)*
G04 #@! TO.C,R5*
G36*
X119074505Y-91451204D02*
X119098773Y-91454804D01*
X119122572Y-91460765D01*
X119145671Y-91469030D01*
X119167850Y-91479520D01*
X119188893Y-91492132D01*
X119208599Y-91506747D01*
X119226777Y-91523223D01*
X119243253Y-91541401D01*
X119257868Y-91561107D01*
X119270480Y-91582150D01*
X119280970Y-91604329D01*
X119289235Y-91627428D01*
X119295196Y-91651227D01*
X119298796Y-91675495D01*
X119300000Y-91699999D01*
X119300000Y-92350001D01*
X119298796Y-92374505D01*
X119295196Y-92398773D01*
X119289235Y-92422572D01*
X119280970Y-92445671D01*
X119270480Y-92467850D01*
X119257868Y-92488893D01*
X119243253Y-92508599D01*
X119226777Y-92526777D01*
X119208599Y-92543253D01*
X119188893Y-92557868D01*
X119167850Y-92570480D01*
X119145671Y-92580970D01*
X119122572Y-92589235D01*
X119098773Y-92595196D01*
X119074505Y-92598796D01*
X119050001Y-92600000D01*
X118149999Y-92600000D01*
X118125495Y-92598796D01*
X118101227Y-92595196D01*
X118077428Y-92589235D01*
X118054329Y-92580970D01*
X118032150Y-92570480D01*
X118011107Y-92557868D01*
X117991401Y-92543253D01*
X117973223Y-92526777D01*
X117956747Y-92508599D01*
X117942132Y-92488893D01*
X117929520Y-92467850D01*
X117919030Y-92445671D01*
X117910765Y-92422572D01*
X117904804Y-92398773D01*
X117901204Y-92374505D01*
X117900000Y-92350001D01*
X117900000Y-91699999D01*
X117901204Y-91675495D01*
X117904804Y-91651227D01*
X117910765Y-91627428D01*
X117919030Y-91604329D01*
X117929520Y-91582150D01*
X117942132Y-91561107D01*
X117956747Y-91541401D01*
X117973223Y-91523223D01*
X117991401Y-91506747D01*
X118011107Y-91492132D01*
X118032150Y-91479520D01*
X118054329Y-91469030D01*
X118077428Y-91460765D01*
X118101227Y-91454804D01*
X118125495Y-91451204D01*
X118149999Y-91450000D01*
X119050001Y-91450000D01*
X119074505Y-91451204D01*
X119074505Y-91451204D01*
G37*
D18*
G04 #@! TD*
G04 #@! TO.P,R5,1*
G04 #@! TO.N,Net-(R5-Pad1)*
X118600000Y-92025000D03*
D17*
G04 #@! TO.N,CEN*
G04 #@! TO.C,R6*
G36*
X116134505Y-80701204D02*
X116158773Y-80704804D01*
X116182572Y-80710765D01*
X116205671Y-80719030D01*
X116227850Y-80729520D01*
X116248893Y-80742132D01*
X116268599Y-80756747D01*
X116286777Y-80773223D01*
X116303253Y-80791401D01*
X116317868Y-80811107D01*
X116330480Y-80832150D01*
X116340970Y-80854329D01*
X116349235Y-80877428D01*
X116355196Y-80901227D01*
X116358796Y-80925495D01*
X116360000Y-80949999D01*
X116360000Y-81850001D01*
X116358796Y-81874505D01*
X116355196Y-81898773D01*
X116349235Y-81922572D01*
X116340970Y-81945671D01*
X116330480Y-81967850D01*
X116317868Y-81988893D01*
X116303253Y-82008599D01*
X116286777Y-82026777D01*
X116268599Y-82043253D01*
X116248893Y-82057868D01*
X116227850Y-82070480D01*
X116205671Y-82080970D01*
X116182572Y-82089235D01*
X116158773Y-82095196D01*
X116134505Y-82098796D01*
X116110001Y-82100000D01*
X115459999Y-82100000D01*
X115435495Y-82098796D01*
X115411227Y-82095196D01*
X115387428Y-82089235D01*
X115364329Y-82080970D01*
X115342150Y-82070480D01*
X115321107Y-82057868D01*
X115301401Y-82043253D01*
X115283223Y-82026777D01*
X115266747Y-82008599D01*
X115252132Y-81988893D01*
X115239520Y-81967850D01*
X115229030Y-81945671D01*
X115220765Y-81922572D01*
X115214804Y-81898773D01*
X115211204Y-81874505D01*
X115210000Y-81850001D01*
X115210000Y-80949999D01*
X115211204Y-80925495D01*
X115214804Y-80901227D01*
X115220765Y-80877428D01*
X115229030Y-80854329D01*
X115239520Y-80832150D01*
X115252132Y-80811107D01*
X115266747Y-80791401D01*
X115283223Y-80773223D01*
X115301401Y-80756747D01*
X115321107Y-80742132D01*
X115342150Y-80729520D01*
X115364329Y-80719030D01*
X115387428Y-80710765D01*
X115411227Y-80704804D01*
X115435495Y-80701204D01*
X115459999Y-80700000D01*
X116110001Y-80700000D01*
X116134505Y-80701204D01*
X116134505Y-80701204D01*
G37*
D18*
G04 #@! TD*
G04 #@! TO.P,R6,1*
G04 #@! TO.N,CEN*
X115785000Y-81400000D03*
D17*
G04 #@! TO.N,Net-(R5-Pad1)*
G04 #@! TO.C,R6*
G36*
X118184505Y-80701204D02*
X118208773Y-80704804D01*
X118232572Y-80710765D01*
X118255671Y-80719030D01*
X118277850Y-80729520D01*
X118298893Y-80742132D01*
X118318599Y-80756747D01*
X118336777Y-80773223D01*
X118353253Y-80791401D01*
X118367868Y-80811107D01*
X118380480Y-80832150D01*
X118390970Y-80854329D01*
X118399235Y-80877428D01*
X118405196Y-80901227D01*
X118408796Y-80925495D01*
X118410000Y-80949999D01*
X118410000Y-81850001D01*
X118408796Y-81874505D01*
X118405196Y-81898773D01*
X118399235Y-81922572D01*
X118390970Y-81945671D01*
X118380480Y-81967850D01*
X118367868Y-81988893D01*
X118353253Y-82008599D01*
X118336777Y-82026777D01*
X118318599Y-82043253D01*
X118298893Y-82057868D01*
X118277850Y-82070480D01*
X118255671Y-82080970D01*
X118232572Y-82089235D01*
X118208773Y-82095196D01*
X118184505Y-82098796D01*
X118160001Y-82100000D01*
X117509999Y-82100000D01*
X117485495Y-82098796D01*
X117461227Y-82095196D01*
X117437428Y-82089235D01*
X117414329Y-82080970D01*
X117392150Y-82070480D01*
X117371107Y-82057868D01*
X117351401Y-82043253D01*
X117333223Y-82026777D01*
X117316747Y-82008599D01*
X117302132Y-81988893D01*
X117289520Y-81967850D01*
X117279030Y-81945671D01*
X117270765Y-81922572D01*
X117264804Y-81898773D01*
X117261204Y-81874505D01*
X117260000Y-81850001D01*
X117260000Y-80949999D01*
X117261204Y-80925495D01*
X117264804Y-80901227D01*
X117270765Y-80877428D01*
X117279030Y-80854329D01*
X117289520Y-80832150D01*
X117302132Y-80811107D01*
X117316747Y-80791401D01*
X117333223Y-80773223D01*
X117351401Y-80756747D01*
X117371107Y-80742132D01*
X117392150Y-80729520D01*
X117414329Y-80719030D01*
X117437428Y-80710765D01*
X117461227Y-80704804D01*
X117485495Y-80701204D01*
X117509999Y-80700000D01*
X118160001Y-80700000D01*
X118184505Y-80701204D01*
X118184505Y-80701204D01*
G37*
D18*
G04 #@! TD*
G04 #@! TO.P,R6,2*
G04 #@! TO.N,Net-(R5-Pad1)*
X117835000Y-81400000D03*
D27*
G04 #@! TO.N,BatteryPower*
X110269481Y-64705681D03*
G04 #@! TO.N,GND*
X130550920Y-39151560D03*
X134508240Y-42768520D03*
X131079240Y-45928280D03*
X135219440Y-61300360D03*
X130281680Y-64983360D03*
X123687840Y-57617360D03*
X133451600Y-85714840D03*
X133451600Y-91694000D03*
X131070000Y-93670000D03*
X111250000Y-94390000D03*
X116260880Y-91038680D03*
X117485160Y-78907640D03*
X126009400Y-72405240D03*
X115478560Y-76154280D03*
X108132880Y-71887080D03*
X115529360Y-67076320D03*
X114315240Y-61655960D03*
X108666280Y-46725840D03*
X124668280Y-68244720D03*
X121173240Y-64485520D03*
X122301000Y-72369680D03*
X114447320Y-70185280D03*
X112770920Y-74493120D03*
X116291360Y-83855560D03*
X107080000Y-94850000D03*
X108793280Y-85531960D03*
X112102810Y-80719736D03*
X115001040Y-55996840D03*
X131033520Y-79496920D03*
X131739640Y-78033880D03*
X116413280Y-55996840D03*
X118709440Y-72704960D03*
X110220760Y-36240720D03*
X124690000Y-85890000D03*
X123590000Y-87020000D03*
X108600000Y-101860000D03*
X133990000Y-101860000D03*
G04 #@! TO.N,LED*
X130370000Y-84020000D03*
X125730000Y-84020000D03*
G04 #@! TD*
D28*
G04 #@! TO.N,BatteryPower*
X109383120Y-89010640D02*
X109378080Y-89015680D01*
X109588120Y-89010640D02*
X109383120Y-89010640D01*
X109338040Y-63453560D02*
X108938040Y-63453560D01*
X109017360Y-63453560D02*
X110269481Y-64705681D01*
X108938040Y-63453560D02*
X109017360Y-63453560D01*
X109505600Y-89010640D02*
X107609640Y-90906600D01*
X109588120Y-89010640D02*
X109505600Y-89010640D01*
X107127040Y-85577680D02*
X107127040Y-90424000D01*
X109599720Y-82817960D02*
X109743240Y-82961480D01*
X107127040Y-90424000D02*
X107609640Y-90906600D01*
X109743240Y-82961480D02*
X107127040Y-85577680D01*
G04 #@! TO.N,GND*
X112825359Y-75368441D02*
X110286800Y-75368440D01*
X114872880Y-73320920D02*
X112825359Y-75368441D01*
X110286800Y-75368440D02*
X110286800Y-74438440D01*
X114872880Y-72520920D02*
X114872880Y-73320920D01*
X121737240Y-67624960D02*
X121737240Y-70375800D01*
X122519560Y-66842640D02*
X121737240Y-67624960D01*
X109095640Y-58807680D02*
X109320640Y-59032680D01*
X106770640Y-58807680D02*
X109095640Y-58807680D01*
X106945640Y-52882680D02*
X106770640Y-53057680D01*
X109335640Y-52882680D02*
X106945640Y-52882680D01*
X109745641Y-58607679D02*
X109320640Y-59032680D01*
X109745641Y-57632679D02*
X109745641Y-58607679D01*
X109345642Y-57232680D02*
X109745641Y-57632679D01*
X109285640Y-57232680D02*
X109345642Y-57232680D01*
X115780732Y-79179332D02*
X115157360Y-78555960D01*
X109588120Y-88060640D02*
X113233382Y-88060640D01*
X116835730Y-84458292D02*
X116835730Y-80234330D01*
X113233382Y-88060640D02*
X116835730Y-84458292D01*
X116835730Y-80234330D02*
X115780732Y-79179332D01*
X110286800Y-75368440D02*
X108124280Y-75368440D01*
X108658120Y-88060640D02*
X108623720Y-88026240D01*
X109588120Y-88060640D02*
X108658120Y-88060640D01*
X122519560Y-66042640D02*
X121782840Y-65305920D01*
X122519560Y-66842640D02*
X122519560Y-66042640D01*
G04 #@! TO.N,SelectedPower*
X111236800Y-73100000D02*
X111236800Y-74438440D01*
X109336800Y-73508440D02*
X109336800Y-74438440D01*
X109745240Y-73100000D02*
X109336800Y-73508440D01*
X111236800Y-73100000D02*
X109745240Y-73100000D01*
X111815880Y-72520920D02*
X112822880Y-72520920D01*
X111236800Y-73100000D02*
X111815880Y-72520920D01*
X112822880Y-68859280D02*
X112822880Y-72520920D01*
X110417160Y-66453560D02*
X112822880Y-68859280D01*
X108938040Y-66453560D02*
X110417160Y-66453560D01*
G04 #@! TO.N,Net-(C2-Pad2)*
X123007240Y-77631280D02*
X123007240Y-75775800D01*
X121705480Y-78933040D02*
X123007240Y-77631280D01*
G04 #@! TO.N,Net-(C2-Pad1)*
X120467240Y-78121280D02*
X119655480Y-78933040D01*
X120467240Y-75775800D02*
X120467240Y-78121280D01*
G04 #@! TO.N,3_3V*
X111236800Y-76843440D02*
X111155480Y-76924760D01*
X111236800Y-76638440D02*
X111236800Y-76843440D01*
X111155480Y-76924760D02*
X111155480Y-78220680D01*
X111490760Y-78555960D02*
X113107360Y-78555960D01*
X111155480Y-78220680D02*
X111490760Y-78555960D01*
X120467240Y-66844960D02*
X120469560Y-66842640D01*
X120467240Y-70375800D02*
X120467240Y-66844960D01*
X113107360Y-75980696D02*
X113107360Y-77755960D01*
X113107360Y-77755960D02*
X113107360Y-78555960D01*
X118712256Y-70375800D02*
X113107360Y-75980696D01*
X120467240Y-70375800D02*
X118712256Y-70375800D01*
X130383280Y-71119762D02*
X130383280Y-68859400D01*
X121749424Y-73789441D02*
X127713601Y-73789441D01*
X117718840Y-53916860D02*
X116320700Y-52518720D01*
X127713601Y-73789441D02*
X130383280Y-71119762D01*
X130383280Y-68859400D02*
X117718840Y-56194960D01*
X120467240Y-72507257D02*
X121749424Y-73789441D01*
X116320700Y-52518720D02*
X114670700Y-52518720D01*
X117718840Y-56194960D02*
X117718840Y-53916860D01*
X120467240Y-70375800D02*
X120467240Y-72507257D01*
G04 #@! TO.N,Net-(C5-Pad1)*
X124277240Y-78525480D02*
X125086120Y-79334360D01*
X124277240Y-75775800D02*
X124277240Y-78525480D01*
G04 #@! TO.N,Net-(C5-Pad2)*
X125547240Y-76925800D02*
X125547240Y-75775800D01*
X125547240Y-76945480D02*
X125547240Y-76925800D01*
X127136120Y-78534360D02*
X125547240Y-76945480D01*
X127136120Y-79334360D02*
X127136120Y-78534360D01*
G04 #@! TO.N,Net-(C6-Pad2)*
X120883680Y-74355960D02*
X118197520Y-74355960D01*
X121737240Y-75209520D02*
X120883680Y-74355960D01*
X118197520Y-74355960D02*
X117937280Y-74616200D01*
X121737240Y-75775800D02*
X121737240Y-75209520D01*
G04 #@! TO.N,Net-(C7-Pad2)*
X131926560Y-73903840D02*
X131948040Y-73882360D01*
X128651000Y-73903840D02*
X131926560Y-73903840D01*
X126817240Y-75775800D02*
X126817240Y-74625080D01*
X126817240Y-74625080D02*
X126923800Y-74518520D01*
X126923800Y-74518520D02*
X128036320Y-74518520D01*
X128036320Y-74518520D02*
X128651000Y-73903840D01*
G04 #@! TO.N,VBUS*
X111993120Y-89010640D02*
X111998160Y-89015680D01*
X111788120Y-89010640D02*
X111993120Y-89010640D01*
X111998160Y-89015680D02*
X113593880Y-89015680D01*
X113873280Y-89295080D02*
X113873280Y-90901520D01*
X113593880Y-89015680D02*
X113873280Y-89295080D01*
X107788040Y-67953560D02*
X108938040Y-67953560D01*
X107269280Y-68472320D02*
X107788040Y-67953560D01*
X107167680Y-68573920D02*
X107269280Y-68472320D01*
X107167680Y-69883922D02*
X107167680Y-68573920D01*
X106509630Y-70541972D02*
X107167680Y-69883922D01*
X106509630Y-91500846D02*
X106509630Y-70541972D01*
X111788120Y-89010640D02*
X111788120Y-89735640D01*
X111788120Y-89735640D02*
X109642150Y-91881610D01*
X109642150Y-91881610D02*
X106890394Y-91881610D01*
X106890394Y-91881610D02*
X106509630Y-91500846D01*
X106060240Y-67669636D02*
X106060240Y-63594722D01*
X106862924Y-68472320D02*
X106060240Y-67669636D01*
X111038640Y-60394840D02*
X111038640Y-55160680D01*
X106060240Y-63594722D02*
X107040680Y-62614282D01*
X107269280Y-68472320D02*
X106862924Y-68472320D01*
X107040680Y-62614282D02*
X107040680Y-61527680D01*
X107746800Y-60821560D02*
X110611920Y-60821560D01*
X107040680Y-61527680D02*
X107746800Y-60821560D01*
X110510640Y-54632680D02*
X109285640Y-54632680D01*
X111038640Y-55160680D02*
X110510640Y-54632680D01*
X110611920Y-60821560D02*
X111038640Y-60394840D01*
X120620000Y-86120000D02*
X120670000Y-86070000D01*
X113940480Y-89295080D02*
X117115560Y-86120000D01*
X117115560Y-86120000D02*
X120620000Y-86120000D01*
X113873280Y-89295080D02*
X113940480Y-89295080D01*
G04 #@! TO.N,Net-(D2-Pad1)*
X121835000Y-86055000D02*
X121850000Y-86070000D01*
X121835000Y-83680000D02*
X121835000Y-86055000D01*
X123205000Y-82310000D02*
X121835000Y-83680000D01*
G04 #@! TO.N,Net-(J2-Pad3)*
X120431560Y-96391794D02*
X121170700Y-97130934D01*
X121170700Y-97130934D02*
X121170700Y-97947600D01*
X128087240Y-75775800D02*
X128087240Y-76925800D01*
X128111130Y-86518870D02*
X121170700Y-93459300D01*
X128087240Y-76925800D02*
X128111130Y-76949690D01*
X121170700Y-93459300D02*
X121170700Y-97947600D01*
X128111130Y-76949690D02*
X128111130Y-86518870D01*
G04 #@! TO.N,Net-(J2-Pad4)*
X123940700Y-97947600D02*
X123940700Y-97130934D01*
X123940700Y-96964700D02*
X123940700Y-97947600D01*
X123940700Y-92389300D02*
X123940700Y-96964700D01*
X129357240Y-86972760D02*
X123940700Y-92389300D01*
X129357240Y-75775800D02*
X129357240Y-86972760D01*
G04 #@! TO.N,Net-(R2-Pad2)*
X129320700Y-48018720D02*
X131064000Y-49762020D01*
X131064000Y-58510280D02*
X127816720Y-61757560D01*
X131064000Y-49762020D02*
X131064000Y-58510280D01*
X127670700Y-48018720D02*
X129320700Y-48018720D01*
G04 #@! TO.N,Net-(R4-Pad1)*
X111916360Y-87110640D02*
X113731040Y-85295960D01*
X111788120Y-87110640D02*
X111916360Y-87110640D01*
G04 #@! TO.N,Net-(U1-Pad1)*
X111968850Y-56149810D02*
X114297933Y-58478893D01*
X128087240Y-69925800D02*
X128087240Y-70375800D01*
X114297933Y-58478893D02*
X116640333Y-58478893D01*
X114670700Y-36018720D02*
X113020700Y-36018720D01*
X111968850Y-37070570D02*
X111968850Y-56149810D01*
X116640333Y-58478893D02*
X128087240Y-69925800D01*
X113020700Y-36018720D02*
X111968850Y-37070570D01*
G04 #@! TO.N,Net-(U1-Pad2)*
X129357240Y-69925800D02*
X129357240Y-70375800D01*
X117330642Y-57899202D02*
X129357240Y-69925800D01*
X113020700Y-37518720D02*
X112608360Y-37931060D01*
X116816678Y-57878882D02*
X116836998Y-57899202D01*
X116836998Y-57899202D02*
X117330642Y-57899202D01*
X112608360Y-55753000D02*
X114734242Y-57878882D01*
X114734242Y-57878882D02*
X116816678Y-57878882D01*
X112608360Y-37931060D02*
X112608360Y-55753000D01*
X114670700Y-37518720D02*
X113020700Y-37518720D01*
G04 #@! TO.N,LED*
X130340000Y-83990000D02*
X130370000Y-84020000D01*
X130360000Y-83990000D02*
X130340000Y-83990000D01*
X127670700Y-40518720D02*
X129320700Y-40518720D01*
X129320700Y-40518720D02*
X133667690Y-44865710D01*
X133667690Y-44865710D02*
X133667690Y-80682310D01*
X133667690Y-80682310D02*
X130360000Y-83990000D01*
X125255000Y-83545000D02*
X125255000Y-82310000D01*
X125730000Y-84020000D02*
X125255000Y-83545000D01*
G04 #@! TO.N,Net-(D2-Pad3)*
X120670000Y-87905000D02*
X118600000Y-89975000D01*
X120670000Y-87670000D02*
X120670000Y-87905000D01*
G04 #@! TO.N,Net-(R5-Pad1)*
X120675000Y-89950000D02*
X118600000Y-92025000D01*
X122970000Y-89950000D02*
X120675000Y-89950000D01*
X126860000Y-86060000D02*
X122970000Y-89950000D01*
X117835000Y-81400000D02*
X118645000Y-80590000D01*
X118645000Y-80590000D02*
X125760000Y-80590000D01*
X125760000Y-80590000D02*
X126860000Y-81690000D01*
X126860000Y-81690000D02*
X126860000Y-86060000D01*
G04 #@! TO.N,CEN*
X110073495Y-87110640D02*
X109588120Y-87110640D01*
X115860720Y-81310480D02*
X113563400Y-81310480D01*
X113563400Y-81310480D02*
X112476280Y-82397600D01*
X112476280Y-82397600D02*
X112476280Y-84707855D01*
X112476280Y-84707855D02*
X110073495Y-87110640D01*
G04 #@! TD*
D29*
G04 #@! TO.N,GND*
G36*
X136190001Y-104290000D02*
X131610000Y-104290000D01*
X131610000Y-100069926D01*
X131623909Y-100000000D01*
X131568805Y-99722972D01*
X131411881Y-99488119D01*
X131177028Y-99331195D01*
X130969926Y-99290000D01*
X130969925Y-99290000D01*
X130900000Y-99276091D01*
X130830074Y-99290000D01*
X128281473Y-99290000D01*
X128281473Y-96605159D01*
X131915000Y-96605159D01*
X131915000Y-97394841D01*
X132217199Y-98124412D01*
X132775588Y-98682801D01*
X133505159Y-98985000D01*
X134294841Y-98985000D01*
X135024412Y-98682801D01*
X135582801Y-98124412D01*
X135885000Y-97394841D01*
X135885000Y-96605159D01*
X135582801Y-95875588D01*
X135024412Y-95317199D01*
X134294841Y-95015000D01*
X133505159Y-95015000D01*
X132775588Y-95317199D01*
X132217199Y-95875588D01*
X131915000Y-96605159D01*
X128281473Y-96605159D01*
X128281473Y-96207600D01*
X128232190Y-95959835D01*
X128091842Y-95749791D01*
X127881798Y-95609443D01*
X127634033Y-95560160D01*
X125787367Y-95560160D01*
X125539602Y-95609443D01*
X125329558Y-95749791D01*
X125325700Y-95755565D01*
X125321842Y-95749791D01*
X125111798Y-95609443D01*
X124864033Y-95560160D01*
X124775700Y-95560160D01*
X124775700Y-92735167D01*
X129889526Y-87621343D01*
X129959241Y-87574761D01*
X130051664Y-87436441D01*
X130143792Y-87298561D01*
X130159928Y-87217440D01*
X130192240Y-87054997D01*
X130192240Y-87054994D01*
X130208597Y-86972761D01*
X130192240Y-86890528D01*
X130192240Y-85055000D01*
X130575874Y-85055000D01*
X130956280Y-84897431D01*
X131247431Y-84606280D01*
X131405000Y-84225874D01*
X131405000Y-84125867D01*
X134199973Y-81330895D01*
X134269691Y-81284311D01*
X134454242Y-81008111D01*
X134502690Y-80764547D01*
X134502690Y-80764544D01*
X134519047Y-80682311D01*
X134502690Y-80600078D01*
X134502690Y-44947942D01*
X134519047Y-44865709D01*
X134502690Y-44783474D01*
X134502690Y-44783473D01*
X134454242Y-44539909D01*
X134269691Y-44263709D01*
X134199973Y-44217125D01*
X129969287Y-39986440D01*
X129922701Y-39916719D01*
X129646501Y-39732168D01*
X129539848Y-39710953D01*
X129568140Y-39568720D01*
X129568140Y-38468720D01*
X129528358Y-38268720D01*
X129568140Y-38068720D01*
X129568140Y-37605159D01*
X131915000Y-37605159D01*
X131915000Y-38394841D01*
X132217199Y-39124412D01*
X132775588Y-39682801D01*
X133505159Y-39985000D01*
X134294841Y-39985000D01*
X135024412Y-39682801D01*
X135582801Y-39124412D01*
X135885000Y-38394841D01*
X135885000Y-37605159D01*
X135582801Y-36875588D01*
X135024412Y-36317199D01*
X134294841Y-36015000D01*
X133505159Y-36015000D01*
X132775588Y-36317199D01*
X132217199Y-36875588D01*
X131915000Y-37605159D01*
X129568140Y-37605159D01*
X129568140Y-36968720D01*
X129528358Y-36768720D01*
X129568140Y-36568720D01*
X129568140Y-35710000D01*
X136190000Y-35710000D01*
X136190001Y-104290000D01*
X136190001Y-104290000D01*
G37*
X136190001Y-104290000D02*
X131610000Y-104290000D01*
X131610000Y-100069926D01*
X131623909Y-100000000D01*
X131568805Y-99722972D01*
X131411881Y-99488119D01*
X131177028Y-99331195D01*
X130969926Y-99290000D01*
X130969925Y-99290000D01*
X130900000Y-99276091D01*
X130830074Y-99290000D01*
X128281473Y-99290000D01*
X128281473Y-96605159D01*
X131915000Y-96605159D01*
X131915000Y-97394841D01*
X132217199Y-98124412D01*
X132775588Y-98682801D01*
X133505159Y-98985000D01*
X134294841Y-98985000D01*
X135024412Y-98682801D01*
X135582801Y-98124412D01*
X135885000Y-97394841D01*
X135885000Y-96605159D01*
X135582801Y-95875588D01*
X135024412Y-95317199D01*
X134294841Y-95015000D01*
X133505159Y-95015000D01*
X132775588Y-95317199D01*
X132217199Y-95875588D01*
X131915000Y-96605159D01*
X128281473Y-96605159D01*
X128281473Y-96207600D01*
X128232190Y-95959835D01*
X128091842Y-95749791D01*
X127881798Y-95609443D01*
X127634033Y-95560160D01*
X125787367Y-95560160D01*
X125539602Y-95609443D01*
X125329558Y-95749791D01*
X125325700Y-95755565D01*
X125321842Y-95749791D01*
X125111798Y-95609443D01*
X124864033Y-95560160D01*
X124775700Y-95560160D01*
X124775700Y-92735167D01*
X129889526Y-87621343D01*
X129959241Y-87574761D01*
X130051664Y-87436441D01*
X130143792Y-87298561D01*
X130159928Y-87217440D01*
X130192240Y-87054997D01*
X130192240Y-87054994D01*
X130208597Y-86972761D01*
X130192240Y-86890528D01*
X130192240Y-85055000D01*
X130575874Y-85055000D01*
X130956280Y-84897431D01*
X131247431Y-84606280D01*
X131405000Y-84225874D01*
X131405000Y-84125867D01*
X134199973Y-81330895D01*
X134269691Y-81284311D01*
X134454242Y-81008111D01*
X134502690Y-80764547D01*
X134502690Y-80764544D01*
X134519047Y-80682311D01*
X134502690Y-80600078D01*
X134502690Y-44947942D01*
X134519047Y-44865709D01*
X134502690Y-44783474D01*
X134502690Y-44783473D01*
X134454242Y-44539909D01*
X134269691Y-44263709D01*
X134199973Y-44217125D01*
X129969287Y-39986440D01*
X129922701Y-39916719D01*
X129646501Y-39732168D01*
X129539848Y-39710953D01*
X129568140Y-39568720D01*
X129568140Y-38468720D01*
X129528358Y-38268720D01*
X129568140Y-38068720D01*
X129568140Y-37605159D01*
X131915000Y-37605159D01*
X131915000Y-38394841D01*
X132217199Y-39124412D01*
X132775588Y-39682801D01*
X133505159Y-39985000D01*
X134294841Y-39985000D01*
X135024412Y-39682801D01*
X135582801Y-39124412D01*
X135885000Y-38394841D01*
X135885000Y-37605159D01*
X135582801Y-36875588D01*
X135024412Y-36317199D01*
X134294841Y-36015000D01*
X133505159Y-36015000D01*
X132775588Y-36317199D01*
X132217199Y-36875588D01*
X131915000Y-37605159D01*
X129568140Y-37605159D01*
X129568140Y-36968720D01*
X129528358Y-36768720D01*
X129568140Y-36568720D01*
X129568140Y-35710000D01*
X136190000Y-35710000D01*
X136190001Y-104290000D01*
G36*
X119662560Y-87170000D02*
X119662560Y-87731572D01*
X118641573Y-88752560D01*
X118149999Y-88752560D01*
X117806564Y-88820873D01*
X117515414Y-89015414D01*
X117320873Y-89306564D01*
X117252560Y-89649999D01*
X117252560Y-90300001D01*
X117320873Y-90643436D01*
X117515414Y-90934586D01*
X117613313Y-91000000D01*
X117515414Y-91065414D01*
X117320873Y-91356564D01*
X117252560Y-91699999D01*
X117252560Y-92350001D01*
X117320873Y-92693436D01*
X117515414Y-92984586D01*
X117806564Y-93179127D01*
X118149999Y-93247440D01*
X119050001Y-93247440D01*
X119393436Y-93179127D01*
X119684586Y-92984586D01*
X119879127Y-92693436D01*
X119947440Y-92350001D01*
X119947440Y-91858427D01*
X121020868Y-90785000D01*
X122664133Y-90785000D01*
X120638420Y-92810713D01*
X120568699Y-92857299D01*
X120384148Y-93133500D01*
X120335700Y-93377064D01*
X120335700Y-93377067D01*
X120319343Y-93459300D01*
X120335700Y-93541533D01*
X120335700Y-95559504D01*
X120332405Y-95560160D01*
X120247367Y-95560160D01*
X119999602Y-95609443D01*
X119789558Y-95749791D01*
X119785700Y-95755565D01*
X119781842Y-95749791D01*
X119571798Y-95609443D01*
X119324033Y-95560160D01*
X117477367Y-95560160D01*
X117229602Y-95609443D01*
X117019558Y-95749791D01*
X117009421Y-95764962D01*
X116913731Y-95669273D01*
X116680342Y-95572600D01*
X115916450Y-95572600D01*
X115757700Y-95731350D01*
X115757700Y-97820600D01*
X115777700Y-97820600D01*
X115777700Y-98074600D01*
X115757700Y-98074600D01*
X115757700Y-98094600D01*
X115503700Y-98094600D01*
X115503700Y-98074600D01*
X114231117Y-98074600D01*
X114072367Y-98233350D01*
X114072367Y-99290000D01*
X111469925Y-99290000D01*
X111400000Y-99276091D01*
X111330074Y-99290000D01*
X111122972Y-99331195D01*
X110888119Y-99488119D01*
X110731195Y-99722972D01*
X110676091Y-100000000D01*
X110690000Y-100069926D01*
X110690001Y-104290000D01*
X106110000Y-104290000D01*
X106110000Y-96605159D01*
X106415000Y-96605159D01*
X106415000Y-97394841D01*
X106717199Y-98124412D01*
X107275588Y-98682801D01*
X108005159Y-98985000D01*
X108794841Y-98985000D01*
X109524412Y-98682801D01*
X110082801Y-98124412D01*
X110385000Y-97394841D01*
X110385000Y-96605159D01*
X110168006Y-96081290D01*
X114072367Y-96081290D01*
X114072367Y-97661850D01*
X114231117Y-97820600D01*
X115503700Y-97820600D01*
X115503700Y-95731350D01*
X115344950Y-95572600D01*
X114581058Y-95572600D01*
X114347669Y-95669273D01*
X114169040Y-95847901D01*
X114072367Y-96081290D01*
X110168006Y-96081290D01*
X110082801Y-95875588D01*
X109524412Y-95317199D01*
X108794841Y-95015000D01*
X108005159Y-95015000D01*
X107275588Y-95317199D01*
X106717199Y-95875588D01*
X106415000Y-96605159D01*
X106110000Y-96605159D01*
X106110000Y-93242350D01*
X106274640Y-93242350D01*
X106274640Y-93657909D01*
X106371313Y-93891298D01*
X106549941Y-94069927D01*
X106783330Y-94166600D01*
X107323890Y-94166600D01*
X107482640Y-94007850D01*
X107482640Y-93083600D01*
X107736640Y-93083600D01*
X107736640Y-94007850D01*
X107895390Y-94166600D01*
X108435950Y-94166600D01*
X108669339Y-94069927D01*
X108847967Y-93891298D01*
X108944640Y-93657909D01*
X108944640Y-93242350D01*
X108939560Y-93237270D01*
X112538280Y-93237270D01*
X112538280Y-93652829D01*
X112634953Y-93886218D01*
X112813581Y-94064847D01*
X113046970Y-94161520D01*
X113587530Y-94161520D01*
X113746280Y-94002770D01*
X113746280Y-93078520D01*
X114000280Y-93078520D01*
X114000280Y-94002770D01*
X114159030Y-94161520D01*
X114699590Y-94161520D01*
X114932979Y-94064847D01*
X115111607Y-93886218D01*
X115208280Y-93652829D01*
X115208280Y-93237270D01*
X115049530Y-93078520D01*
X114000280Y-93078520D01*
X113746280Y-93078520D01*
X112697030Y-93078520D01*
X112538280Y-93237270D01*
X108939560Y-93237270D01*
X108785890Y-93083600D01*
X107736640Y-93083600D01*
X107482640Y-93083600D01*
X106433390Y-93083600D01*
X106274640Y-93242350D01*
X106110000Y-93242350D01*
X106110000Y-92282083D01*
X106241807Y-92413890D01*
X106274640Y-92463028D01*
X106274640Y-92670850D01*
X106433390Y-92829600D01*
X107482640Y-92829600D01*
X107482640Y-92809600D01*
X107736640Y-92809600D01*
X107736640Y-92829600D01*
X108785890Y-92829600D01*
X108898880Y-92716610D01*
X109559917Y-92716610D01*
X109642150Y-92732967D01*
X109724383Y-92716610D01*
X109724387Y-92716610D01*
X109967951Y-92668162D01*
X110244151Y-92483611D01*
X110290737Y-92413890D01*
X112320403Y-90384225D01*
X112390121Y-90337641D01*
X112574672Y-90061441D01*
X112605301Y-89907460D01*
X112690277Y-89850680D01*
X112925265Y-89850680D01*
X112788694Y-89941934D01*
X112594153Y-90233084D01*
X112525840Y-90576519D01*
X112525840Y-91226521D01*
X112594153Y-91569956D01*
X112788694Y-91861106D01*
X112789877Y-91861897D01*
X112634953Y-92016822D01*
X112538280Y-92250211D01*
X112538280Y-92665770D01*
X112697030Y-92824520D01*
X113746280Y-92824520D01*
X113746280Y-92804520D01*
X114000280Y-92804520D01*
X114000280Y-92824520D01*
X115049530Y-92824520D01*
X115208280Y-92665770D01*
X115208280Y-92250211D01*
X115111607Y-92016822D01*
X114956683Y-91861897D01*
X114957866Y-91861106D01*
X115152407Y-91569956D01*
X115220720Y-91226521D01*
X115220720Y-90576519D01*
X115152407Y-90233084D01*
X114957866Y-89941934D01*
X114708280Y-89775165D01*
X114708280Y-89708147D01*
X117461428Y-86955000D01*
X119705326Y-86955000D01*
X119662560Y-87170000D01*
X119662560Y-87170000D01*
G37*
X119662560Y-87170000D02*
X119662560Y-87731572D01*
X118641573Y-88752560D01*
X118149999Y-88752560D01*
X117806564Y-88820873D01*
X117515414Y-89015414D01*
X117320873Y-89306564D01*
X117252560Y-89649999D01*
X117252560Y-90300001D01*
X117320873Y-90643436D01*
X117515414Y-90934586D01*
X117613313Y-91000000D01*
X117515414Y-91065414D01*
X117320873Y-91356564D01*
X117252560Y-91699999D01*
X117252560Y-92350001D01*
X117320873Y-92693436D01*
X117515414Y-92984586D01*
X117806564Y-93179127D01*
X118149999Y-93247440D01*
X119050001Y-93247440D01*
X119393436Y-93179127D01*
X119684586Y-92984586D01*
X119879127Y-92693436D01*
X119947440Y-92350001D01*
X119947440Y-91858427D01*
X121020868Y-90785000D01*
X122664133Y-90785000D01*
X120638420Y-92810713D01*
X120568699Y-92857299D01*
X120384148Y-93133500D01*
X120335700Y-93377064D01*
X120335700Y-93377067D01*
X120319343Y-93459300D01*
X120335700Y-93541533D01*
X120335700Y-95559504D01*
X120332405Y-95560160D01*
X120247367Y-95560160D01*
X119999602Y-95609443D01*
X119789558Y-95749791D01*
X119785700Y-95755565D01*
X119781842Y-95749791D01*
X119571798Y-95609443D01*
X119324033Y-95560160D01*
X117477367Y-95560160D01*
X117229602Y-95609443D01*
X117019558Y-95749791D01*
X117009421Y-95764962D01*
X116913731Y-95669273D01*
X116680342Y-95572600D01*
X115916450Y-95572600D01*
X115757700Y-95731350D01*
X115757700Y-97820600D01*
X115777700Y-97820600D01*
X115777700Y-98074600D01*
X115757700Y-98074600D01*
X115757700Y-98094600D01*
X115503700Y-98094600D01*
X115503700Y-98074600D01*
X114231117Y-98074600D01*
X114072367Y-98233350D01*
X114072367Y-99290000D01*
X111469925Y-99290000D01*
X111400000Y-99276091D01*
X111330074Y-99290000D01*
X111122972Y-99331195D01*
X110888119Y-99488119D01*
X110731195Y-99722972D01*
X110676091Y-100000000D01*
X110690000Y-100069926D01*
X110690001Y-104290000D01*
X106110000Y-104290000D01*
X106110000Y-96605159D01*
X106415000Y-96605159D01*
X106415000Y-97394841D01*
X106717199Y-98124412D01*
X107275588Y-98682801D01*
X108005159Y-98985000D01*
X108794841Y-98985000D01*
X109524412Y-98682801D01*
X110082801Y-98124412D01*
X110385000Y-97394841D01*
X110385000Y-96605159D01*
X110168006Y-96081290D01*
X114072367Y-96081290D01*
X114072367Y-97661850D01*
X114231117Y-97820600D01*
X115503700Y-97820600D01*
X115503700Y-95731350D01*
X115344950Y-95572600D01*
X114581058Y-95572600D01*
X114347669Y-95669273D01*
X114169040Y-95847901D01*
X114072367Y-96081290D01*
X110168006Y-96081290D01*
X110082801Y-95875588D01*
X109524412Y-95317199D01*
X108794841Y-95015000D01*
X108005159Y-95015000D01*
X107275588Y-95317199D01*
X106717199Y-95875588D01*
X106415000Y-96605159D01*
X106110000Y-96605159D01*
X106110000Y-93242350D01*
X106274640Y-93242350D01*
X106274640Y-93657909D01*
X106371313Y-93891298D01*
X106549941Y-94069927D01*
X106783330Y-94166600D01*
X107323890Y-94166600D01*
X107482640Y-94007850D01*
X107482640Y-93083600D01*
X107736640Y-93083600D01*
X107736640Y-94007850D01*
X107895390Y-94166600D01*
X108435950Y-94166600D01*
X108669339Y-94069927D01*
X108847967Y-93891298D01*
X108944640Y-93657909D01*
X108944640Y-93242350D01*
X108939560Y-93237270D01*
X112538280Y-93237270D01*
X112538280Y-93652829D01*
X112634953Y-93886218D01*
X112813581Y-94064847D01*
X113046970Y-94161520D01*
X113587530Y-94161520D01*
X113746280Y-94002770D01*
X113746280Y-93078520D01*
X114000280Y-93078520D01*
X114000280Y-94002770D01*
X114159030Y-94161520D01*
X114699590Y-94161520D01*
X114932979Y-94064847D01*
X115111607Y-93886218D01*
X115208280Y-93652829D01*
X115208280Y-93237270D01*
X115049530Y-93078520D01*
X114000280Y-93078520D01*
X113746280Y-93078520D01*
X112697030Y-93078520D01*
X112538280Y-93237270D01*
X108939560Y-93237270D01*
X108785890Y-93083600D01*
X107736640Y-93083600D01*
X107482640Y-93083600D01*
X106433390Y-93083600D01*
X106274640Y-93242350D01*
X106110000Y-93242350D01*
X106110000Y-92282083D01*
X106241807Y-92413890D01*
X106274640Y-92463028D01*
X106274640Y-92670850D01*
X106433390Y-92829600D01*
X107482640Y-92829600D01*
X107482640Y-92809600D01*
X107736640Y-92809600D01*
X107736640Y-92829600D01*
X108785890Y-92829600D01*
X108898880Y-92716610D01*
X109559917Y-92716610D01*
X109642150Y-92732967D01*
X109724383Y-92716610D01*
X109724387Y-92716610D01*
X109967951Y-92668162D01*
X110244151Y-92483611D01*
X110290737Y-92413890D01*
X112320403Y-90384225D01*
X112390121Y-90337641D01*
X112574672Y-90061441D01*
X112605301Y-89907460D01*
X112690277Y-89850680D01*
X112925265Y-89850680D01*
X112788694Y-89941934D01*
X112594153Y-90233084D01*
X112525840Y-90576519D01*
X112525840Y-91226521D01*
X112594153Y-91569956D01*
X112788694Y-91861106D01*
X112789877Y-91861897D01*
X112634953Y-92016822D01*
X112538280Y-92250211D01*
X112538280Y-92665770D01*
X112697030Y-92824520D01*
X113746280Y-92824520D01*
X113746280Y-92804520D01*
X114000280Y-92804520D01*
X114000280Y-92824520D01*
X115049530Y-92824520D01*
X115208280Y-92665770D01*
X115208280Y-92250211D01*
X115111607Y-92016822D01*
X114956683Y-91861897D01*
X114957866Y-91861106D01*
X115152407Y-91569956D01*
X115220720Y-91226521D01*
X115220720Y-90576519D01*
X115152407Y-90233084D01*
X114957866Y-89941934D01*
X114708280Y-89775165D01*
X114708280Y-89708147D01*
X117461428Y-86955000D01*
X119705326Y-86955000D01*
X119662560Y-87170000D01*
G36*
X111987880Y-69205148D02*
X111987881Y-71353088D01*
X111863294Y-71436334D01*
X111690836Y-71694435D01*
X111558767Y-71720705D01*
X111490079Y-71734368D01*
X111213879Y-71918919D01*
X111167294Y-71988638D01*
X110890933Y-72265000D01*
X109827472Y-72265000D01*
X109745239Y-72248643D01*
X109663006Y-72265000D01*
X109663003Y-72265000D01*
X109419439Y-72313448D01*
X109143239Y-72497999D01*
X109096655Y-72567717D01*
X108804520Y-72859853D01*
X108734799Y-72906439D01*
X108550248Y-73182640D01*
X108501800Y-73426204D01*
X108501800Y-73426207D01*
X108485443Y-73508440D01*
X108492307Y-73542947D01*
X108413643Y-73660675D01*
X108364360Y-73908440D01*
X108364360Y-74968440D01*
X108413643Y-75216205D01*
X108553991Y-75426249D01*
X108721895Y-75538440D01*
X108553991Y-75650631D01*
X108413643Y-75860675D01*
X108364360Y-76108440D01*
X108364360Y-77168440D01*
X108413643Y-77416205D01*
X108553991Y-77626249D01*
X108764035Y-77766597D01*
X109011800Y-77815880D01*
X109661800Y-77815880D01*
X109909565Y-77766597D01*
X110119609Y-77626249D01*
X110259957Y-77416205D01*
X110286800Y-77281255D01*
X110313643Y-77416205D01*
X110320480Y-77426438D01*
X110320481Y-78138443D01*
X110304123Y-78220680D01*
X110368928Y-78546480D01*
X110460121Y-78682960D01*
X110553480Y-78822681D01*
X110623198Y-78869265D01*
X110842173Y-79088240D01*
X110888759Y-79157961D01*
X111164959Y-79342512D01*
X111408523Y-79390960D01*
X111490760Y-79407318D01*
X111572997Y-79390960D01*
X111981005Y-79390960D01*
X112147774Y-79640546D01*
X112438924Y-79835087D01*
X112782359Y-79903400D01*
X113432361Y-79903400D01*
X113775796Y-79835087D01*
X114066946Y-79640546D01*
X114067737Y-79639363D01*
X114222662Y-79794287D01*
X114456051Y-79890960D01*
X114871610Y-79890960D01*
X115030360Y-79732210D01*
X115030360Y-78682960D01*
X115284360Y-78682960D01*
X115284360Y-79732210D01*
X115443110Y-79890960D01*
X115858669Y-79890960D01*
X116092058Y-79794287D01*
X116270687Y-79615659D01*
X116367360Y-79382270D01*
X116367360Y-78841710D01*
X116208610Y-78682960D01*
X115284360Y-78682960D01*
X115030360Y-78682960D01*
X115010360Y-78682960D01*
X115010360Y-78428960D01*
X115030360Y-78428960D01*
X115030360Y-77379710D01*
X115284360Y-77379710D01*
X115284360Y-78428960D01*
X116208610Y-78428960D01*
X116367360Y-78270210D01*
X116367360Y-77729650D01*
X116270687Y-77496261D01*
X116092058Y-77317633D01*
X115858669Y-77220960D01*
X115443110Y-77220960D01*
X115284360Y-77379710D01*
X115030360Y-77379710D01*
X114871610Y-77220960D01*
X114456051Y-77220960D01*
X114222662Y-77317633D01*
X114067737Y-77472557D01*
X114066946Y-77471374D01*
X113942360Y-77388128D01*
X113942360Y-76951950D01*
X116602280Y-76951950D01*
X116602280Y-77367509D01*
X116698953Y-77600898D01*
X116877581Y-77779527D01*
X117110970Y-77876200D01*
X117651530Y-77876200D01*
X117810280Y-77717450D01*
X117810280Y-76793200D01*
X116761030Y-76793200D01*
X116602280Y-76951950D01*
X113942360Y-76951950D01*
X113942360Y-76326563D01*
X119058124Y-71210800D01*
X119536707Y-71210800D01*
X119569083Y-71373565D01*
X119632241Y-71468086D01*
X119632241Y-72425019D01*
X119615883Y-72507257D01*
X119680688Y-72833057D01*
X119772806Y-72970921D01*
X119865240Y-73109258D01*
X119934958Y-73155842D01*
X120300076Y-73520960D01*
X118818846Y-73520960D01*
X118730716Y-73462073D01*
X118387281Y-73393760D01*
X117487279Y-73393760D01*
X117143844Y-73462073D01*
X116852694Y-73656614D01*
X116658153Y-73947764D01*
X116589840Y-74291199D01*
X116589840Y-74941201D01*
X116658153Y-75284636D01*
X116852694Y-75575786D01*
X116853877Y-75576577D01*
X116698953Y-75731502D01*
X116602280Y-75964891D01*
X116602280Y-76380450D01*
X116761030Y-76539200D01*
X117810280Y-76539200D01*
X117810280Y-76519200D01*
X118064280Y-76519200D01*
X118064280Y-76539200D01*
X119113530Y-76539200D01*
X119272280Y-76380450D01*
X119272280Y-75964891D01*
X119175607Y-75731502D01*
X119020683Y-75576577D01*
X119021866Y-75575786D01*
X119216407Y-75284636D01*
X119235040Y-75190960D01*
X119519800Y-75190960D01*
X119519800Y-76525800D01*
X119569083Y-76773565D01*
X119632240Y-76868086D01*
X119632241Y-77585600D01*
X119330479Y-77585600D01*
X119156249Y-77620256D01*
X119175607Y-77600898D01*
X119272280Y-77367509D01*
X119272280Y-76951950D01*
X119113530Y-76793200D01*
X118064280Y-76793200D01*
X118064280Y-77717450D01*
X118223030Y-77876200D01*
X118677355Y-77876200D01*
X118501353Y-78139604D01*
X118433040Y-78483039D01*
X118433040Y-79383041D01*
X118501353Y-79726476D01*
X118525381Y-79762436D01*
X118319199Y-79803448D01*
X118042999Y-79987999D01*
X117999861Y-80052560D01*
X117509999Y-80052560D01*
X117166564Y-80120873D01*
X116875414Y-80315414D01*
X116810000Y-80413313D01*
X116744586Y-80315414D01*
X116453436Y-80120873D01*
X116110001Y-80052560D01*
X115459999Y-80052560D01*
X115116564Y-80120873D01*
X114825414Y-80315414D01*
X114718461Y-80475480D01*
X113645637Y-80475480D01*
X113563400Y-80459122D01*
X113481163Y-80475480D01*
X113237599Y-80523928D01*
X112961399Y-80708479D01*
X112914815Y-80778198D01*
X111944000Y-81749013D01*
X111874279Y-81795599D01*
X111689728Y-82071800D01*
X111641280Y-82315364D01*
X111641280Y-82315367D01*
X111624923Y-82397600D01*
X111641280Y-82479833D01*
X111641281Y-84361986D01*
X109865068Y-86138200D01*
X109058120Y-86138200D01*
X108810355Y-86187483D01*
X108600311Y-86327831D01*
X108459963Y-86537875D01*
X108410680Y-86785640D01*
X108410680Y-87435640D01*
X108438056Y-87573271D01*
X108423120Y-87609330D01*
X108423120Y-87774890D01*
X108581870Y-87933640D01*
X108660461Y-87933640D01*
X108810355Y-88033797D01*
X108945305Y-88060640D01*
X108810355Y-88087483D01*
X108660461Y-88187640D01*
X108581870Y-88187640D01*
X108423120Y-88346390D01*
X108423120Y-88511950D01*
X108438056Y-88548009D01*
X108410680Y-88685640D01*
X108410680Y-88924692D01*
X107962040Y-89373332D01*
X107962040Y-85923547D01*
X109276668Y-84608920D01*
X110743240Y-84608920D01*
X110991005Y-84559637D01*
X111201049Y-84419289D01*
X111341397Y-84209245D01*
X111390680Y-83961480D01*
X111390680Y-81961480D01*
X111341397Y-81713715D01*
X111201049Y-81503671D01*
X110991005Y-81363323D01*
X110983749Y-81361880D01*
X111162627Y-81295744D01*
X111389148Y-80686019D01*
X111365096Y-80036020D01*
X111162627Y-79547216D01*
X110895772Y-79448553D01*
X109922845Y-80421480D01*
X109936988Y-80435623D01*
X109757383Y-80615228D01*
X109743240Y-80601085D01*
X109729098Y-80615228D01*
X109549493Y-80435623D01*
X109563635Y-80421480D01*
X108590708Y-79448553D01*
X108323853Y-79547216D01*
X108097332Y-80156941D01*
X108121384Y-80806940D01*
X108323853Y-81295744D01*
X108502731Y-81361880D01*
X108495475Y-81363323D01*
X108285431Y-81503671D01*
X108145083Y-81713715D01*
X108095800Y-81961480D01*
X108095800Y-83428052D01*
X107344630Y-84179223D01*
X107344630Y-79268948D01*
X108770313Y-79268948D01*
X109743240Y-80241875D01*
X110716167Y-79268948D01*
X110617504Y-79002093D01*
X110007779Y-78775572D01*
X109357780Y-78799624D01*
X108868976Y-79002093D01*
X108770313Y-79268948D01*
X107344630Y-79268948D01*
X107344630Y-70887839D01*
X107699963Y-70532507D01*
X107764465Y-70489408D01*
X107796600Y-70495800D01*
X108596600Y-70495800D01*
X108844365Y-70446517D01*
X109054409Y-70306169D01*
X109194757Y-70096125D01*
X109244040Y-69848360D01*
X109244040Y-68945800D01*
X109596600Y-68945800D01*
X109844365Y-68896517D01*
X110054409Y-68756169D01*
X110194757Y-68546125D01*
X110244040Y-68298360D01*
X110244040Y-67598360D01*
X110210010Y-67427277D01*
X111987880Y-69205148D01*
X111987880Y-69205148D01*
G37*
X111987880Y-69205148D02*
X111987881Y-71353088D01*
X111863294Y-71436334D01*
X111690836Y-71694435D01*
X111558767Y-71720705D01*
X111490079Y-71734368D01*
X111213879Y-71918919D01*
X111167294Y-71988638D01*
X110890933Y-72265000D01*
X109827472Y-72265000D01*
X109745239Y-72248643D01*
X109663006Y-72265000D01*
X109663003Y-72265000D01*
X109419439Y-72313448D01*
X109143239Y-72497999D01*
X109096655Y-72567717D01*
X108804520Y-72859853D01*
X108734799Y-72906439D01*
X108550248Y-73182640D01*
X108501800Y-73426204D01*
X108501800Y-73426207D01*
X108485443Y-73508440D01*
X108492307Y-73542947D01*
X108413643Y-73660675D01*
X108364360Y-73908440D01*
X108364360Y-74968440D01*
X108413643Y-75216205D01*
X108553991Y-75426249D01*
X108721895Y-75538440D01*
X108553991Y-75650631D01*
X108413643Y-75860675D01*
X108364360Y-76108440D01*
X108364360Y-77168440D01*
X108413643Y-77416205D01*
X108553991Y-77626249D01*
X108764035Y-77766597D01*
X109011800Y-77815880D01*
X109661800Y-77815880D01*
X109909565Y-77766597D01*
X110119609Y-77626249D01*
X110259957Y-77416205D01*
X110286800Y-77281255D01*
X110313643Y-77416205D01*
X110320480Y-77426438D01*
X110320481Y-78138443D01*
X110304123Y-78220680D01*
X110368928Y-78546480D01*
X110460121Y-78682960D01*
X110553480Y-78822681D01*
X110623198Y-78869265D01*
X110842173Y-79088240D01*
X110888759Y-79157961D01*
X111164959Y-79342512D01*
X111408523Y-79390960D01*
X111490760Y-79407318D01*
X111572997Y-79390960D01*
X111981005Y-79390960D01*
X112147774Y-79640546D01*
X112438924Y-79835087D01*
X112782359Y-79903400D01*
X113432361Y-79903400D01*
X113775796Y-79835087D01*
X114066946Y-79640546D01*
X114067737Y-79639363D01*
X114222662Y-79794287D01*
X114456051Y-79890960D01*
X114871610Y-79890960D01*
X115030360Y-79732210D01*
X115030360Y-78682960D01*
X115284360Y-78682960D01*
X115284360Y-79732210D01*
X115443110Y-79890960D01*
X115858669Y-79890960D01*
X116092058Y-79794287D01*
X116270687Y-79615659D01*
X116367360Y-79382270D01*
X116367360Y-78841710D01*
X116208610Y-78682960D01*
X115284360Y-78682960D01*
X115030360Y-78682960D01*
X115010360Y-78682960D01*
X115010360Y-78428960D01*
X115030360Y-78428960D01*
X115030360Y-77379710D01*
X115284360Y-77379710D01*
X115284360Y-78428960D01*
X116208610Y-78428960D01*
X116367360Y-78270210D01*
X116367360Y-77729650D01*
X116270687Y-77496261D01*
X116092058Y-77317633D01*
X115858669Y-77220960D01*
X115443110Y-77220960D01*
X115284360Y-77379710D01*
X115030360Y-77379710D01*
X114871610Y-77220960D01*
X114456051Y-77220960D01*
X114222662Y-77317633D01*
X114067737Y-77472557D01*
X114066946Y-77471374D01*
X113942360Y-77388128D01*
X113942360Y-76951950D01*
X116602280Y-76951950D01*
X116602280Y-77367509D01*
X116698953Y-77600898D01*
X116877581Y-77779527D01*
X117110970Y-77876200D01*
X117651530Y-77876200D01*
X117810280Y-77717450D01*
X117810280Y-76793200D01*
X116761030Y-76793200D01*
X116602280Y-76951950D01*
X113942360Y-76951950D01*
X113942360Y-76326563D01*
X119058124Y-71210800D01*
X119536707Y-71210800D01*
X119569083Y-71373565D01*
X119632241Y-71468086D01*
X119632241Y-72425019D01*
X119615883Y-72507257D01*
X119680688Y-72833057D01*
X119772806Y-72970921D01*
X119865240Y-73109258D01*
X119934958Y-73155842D01*
X120300076Y-73520960D01*
X118818846Y-73520960D01*
X118730716Y-73462073D01*
X118387281Y-73393760D01*
X117487279Y-73393760D01*
X117143844Y-73462073D01*
X116852694Y-73656614D01*
X116658153Y-73947764D01*
X116589840Y-74291199D01*
X116589840Y-74941201D01*
X116658153Y-75284636D01*
X116852694Y-75575786D01*
X116853877Y-75576577D01*
X116698953Y-75731502D01*
X116602280Y-75964891D01*
X116602280Y-76380450D01*
X116761030Y-76539200D01*
X117810280Y-76539200D01*
X117810280Y-76519200D01*
X118064280Y-76519200D01*
X118064280Y-76539200D01*
X119113530Y-76539200D01*
X119272280Y-76380450D01*
X119272280Y-75964891D01*
X119175607Y-75731502D01*
X119020683Y-75576577D01*
X119021866Y-75575786D01*
X119216407Y-75284636D01*
X119235040Y-75190960D01*
X119519800Y-75190960D01*
X119519800Y-76525800D01*
X119569083Y-76773565D01*
X119632240Y-76868086D01*
X119632241Y-77585600D01*
X119330479Y-77585600D01*
X119156249Y-77620256D01*
X119175607Y-77600898D01*
X119272280Y-77367509D01*
X119272280Y-76951950D01*
X119113530Y-76793200D01*
X118064280Y-76793200D01*
X118064280Y-77717450D01*
X118223030Y-77876200D01*
X118677355Y-77876200D01*
X118501353Y-78139604D01*
X118433040Y-78483039D01*
X118433040Y-79383041D01*
X118501353Y-79726476D01*
X118525381Y-79762436D01*
X118319199Y-79803448D01*
X118042999Y-79987999D01*
X117999861Y-80052560D01*
X117509999Y-80052560D01*
X117166564Y-80120873D01*
X116875414Y-80315414D01*
X116810000Y-80413313D01*
X116744586Y-80315414D01*
X116453436Y-80120873D01*
X116110001Y-80052560D01*
X115459999Y-80052560D01*
X115116564Y-80120873D01*
X114825414Y-80315414D01*
X114718461Y-80475480D01*
X113645637Y-80475480D01*
X113563400Y-80459122D01*
X113481163Y-80475480D01*
X113237599Y-80523928D01*
X112961399Y-80708479D01*
X112914815Y-80778198D01*
X111944000Y-81749013D01*
X111874279Y-81795599D01*
X111689728Y-82071800D01*
X111641280Y-82315364D01*
X111641280Y-82315367D01*
X111624923Y-82397600D01*
X111641280Y-82479833D01*
X111641281Y-84361986D01*
X109865068Y-86138200D01*
X109058120Y-86138200D01*
X108810355Y-86187483D01*
X108600311Y-86327831D01*
X108459963Y-86537875D01*
X108410680Y-86785640D01*
X108410680Y-87435640D01*
X108438056Y-87573271D01*
X108423120Y-87609330D01*
X108423120Y-87774890D01*
X108581870Y-87933640D01*
X108660461Y-87933640D01*
X108810355Y-88033797D01*
X108945305Y-88060640D01*
X108810355Y-88087483D01*
X108660461Y-88187640D01*
X108581870Y-88187640D01*
X108423120Y-88346390D01*
X108423120Y-88511950D01*
X108438056Y-88548009D01*
X108410680Y-88685640D01*
X108410680Y-88924692D01*
X107962040Y-89373332D01*
X107962040Y-85923547D01*
X109276668Y-84608920D01*
X110743240Y-84608920D01*
X110991005Y-84559637D01*
X111201049Y-84419289D01*
X111341397Y-84209245D01*
X111390680Y-83961480D01*
X111390680Y-81961480D01*
X111341397Y-81713715D01*
X111201049Y-81503671D01*
X110991005Y-81363323D01*
X110983749Y-81361880D01*
X111162627Y-81295744D01*
X111389148Y-80686019D01*
X111365096Y-80036020D01*
X111162627Y-79547216D01*
X110895772Y-79448553D01*
X109922845Y-80421480D01*
X109936988Y-80435623D01*
X109757383Y-80615228D01*
X109743240Y-80601085D01*
X109729098Y-80615228D01*
X109549493Y-80435623D01*
X109563635Y-80421480D01*
X108590708Y-79448553D01*
X108323853Y-79547216D01*
X108097332Y-80156941D01*
X108121384Y-80806940D01*
X108323853Y-81295744D01*
X108502731Y-81361880D01*
X108495475Y-81363323D01*
X108285431Y-81503671D01*
X108145083Y-81713715D01*
X108095800Y-81961480D01*
X108095800Y-83428052D01*
X107344630Y-84179223D01*
X107344630Y-79268948D01*
X108770313Y-79268948D01*
X109743240Y-80241875D01*
X110716167Y-79268948D01*
X110617504Y-79002093D01*
X110007779Y-78775572D01*
X109357780Y-78799624D01*
X108868976Y-79002093D01*
X108770313Y-79268948D01*
X107344630Y-79268948D01*
X107344630Y-70887839D01*
X107699963Y-70532507D01*
X107764465Y-70489408D01*
X107796600Y-70495800D01*
X108596600Y-70495800D01*
X108844365Y-70446517D01*
X109054409Y-70306169D01*
X109194757Y-70096125D01*
X109244040Y-69848360D01*
X109244040Y-68945800D01*
X109596600Y-68945800D01*
X109844365Y-68896517D01*
X110054409Y-68756169D01*
X110194757Y-68546125D01*
X110244040Y-68298360D01*
X110244040Y-67598360D01*
X110210010Y-67427277D01*
X111987880Y-69205148D01*
G36*
X124295414Y-83394586D02*
X124417355Y-83476065D01*
X124403643Y-83545000D01*
X124420000Y-83627233D01*
X124420000Y-83627236D01*
X124468448Y-83870800D01*
X124652999Y-84147001D01*
X124695000Y-84175065D01*
X124695000Y-84225874D01*
X124852569Y-84606280D01*
X125143720Y-84897431D01*
X125524126Y-85055000D01*
X125935874Y-85055000D01*
X126025001Y-85018083D01*
X126025001Y-85714131D01*
X122624133Y-89115000D01*
X120757232Y-89115000D01*
X120674999Y-89098643D01*
X120652811Y-89103056D01*
X120938428Y-88817440D01*
X121030000Y-88817440D01*
X121275724Y-88768563D01*
X121363690Y-88805000D01*
X121564250Y-88805000D01*
X121723000Y-88646250D01*
X121723000Y-87797000D01*
X121977000Y-87797000D01*
X121977000Y-88646250D01*
X122135750Y-88805000D01*
X122336310Y-88805000D01*
X122569699Y-88708327D01*
X122748327Y-88529698D01*
X122845000Y-88296309D01*
X122845000Y-87955750D01*
X122686250Y-87797000D01*
X121977000Y-87797000D01*
X121723000Y-87797000D01*
X121703000Y-87797000D01*
X121703000Y-87543000D01*
X121723000Y-87543000D01*
X121723000Y-87523000D01*
X121977000Y-87523000D01*
X121977000Y-87543000D01*
X122686250Y-87543000D01*
X122845000Y-87384250D01*
X122845000Y-87043691D01*
X122773131Y-86870184D01*
X122808157Y-86817765D01*
X122857440Y-86570000D01*
X122857440Y-85570000D01*
X122808157Y-85322235D01*
X122670000Y-85115470D01*
X122670000Y-84025867D01*
X123038427Y-83657440D01*
X123530001Y-83657440D01*
X123873436Y-83589127D01*
X124164586Y-83394586D01*
X124230000Y-83296687D01*
X124295414Y-83394586D01*
X124295414Y-83394586D01*
G37*
X124295414Y-83394586D02*
X124417355Y-83476065D01*
X124403643Y-83545000D01*
X124420000Y-83627233D01*
X124420000Y-83627236D01*
X124468448Y-83870800D01*
X124652999Y-84147001D01*
X124695000Y-84175065D01*
X124695000Y-84225874D01*
X124852569Y-84606280D01*
X125143720Y-84897431D01*
X125524126Y-85055000D01*
X125935874Y-85055000D01*
X126025001Y-85018083D01*
X126025001Y-85714131D01*
X122624133Y-89115000D01*
X120757232Y-89115000D01*
X120674999Y-89098643D01*
X120652811Y-89103056D01*
X120938428Y-88817440D01*
X121030000Y-88817440D01*
X121275724Y-88768563D01*
X121363690Y-88805000D01*
X121564250Y-88805000D01*
X121723000Y-88646250D01*
X121723000Y-87797000D01*
X121977000Y-87797000D01*
X121977000Y-88646250D01*
X122135750Y-88805000D01*
X122336310Y-88805000D01*
X122569699Y-88708327D01*
X122748327Y-88529698D01*
X122845000Y-88296309D01*
X122845000Y-87955750D01*
X122686250Y-87797000D01*
X121977000Y-87797000D01*
X121723000Y-87797000D01*
X121703000Y-87797000D01*
X121703000Y-87543000D01*
X121723000Y-87543000D01*
X121723000Y-87523000D01*
X121977000Y-87523000D01*
X121977000Y-87543000D01*
X122686250Y-87543000D01*
X122845000Y-87384250D01*
X122845000Y-87043691D01*
X122773131Y-86870184D01*
X122808157Y-86817765D01*
X122857440Y-86570000D01*
X122857440Y-85570000D01*
X122808157Y-85322235D01*
X122670000Y-85115470D01*
X122670000Y-84025867D01*
X123038427Y-83657440D01*
X123530001Y-83657440D01*
X123873436Y-83589127D01*
X124164586Y-83394586D01*
X124230000Y-83296687D01*
X124295414Y-83394586D01*
G36*
X122050873Y-81516564D02*
X121982560Y-81859999D01*
X121982560Y-82351572D01*
X121302720Y-83031413D01*
X121232999Y-83077999D01*
X121048448Y-83354200D01*
X121000000Y-83597764D01*
X121000000Y-83597767D01*
X120983643Y-83680000D01*
X121000000Y-83762233D01*
X121000001Y-84922560D01*
X120310000Y-84922560D01*
X120062235Y-84971843D01*
X119852191Y-85112191D01*
X119736723Y-85285000D01*
X117197792Y-85285000D01*
X117115559Y-85268643D01*
X117033326Y-85285000D01*
X117033323Y-85285000D01*
X116789759Y-85333448D01*
X116513559Y-85517999D01*
X116466975Y-85587717D01*
X113841180Y-88213513D01*
X113676117Y-88180680D01*
X113676113Y-88180680D01*
X113593880Y-88164323D01*
X113511647Y-88180680D01*
X112705363Y-88180680D01*
X112565885Y-88087483D01*
X112430935Y-88060640D01*
X112565885Y-88033797D01*
X112775929Y-87893449D01*
X112916277Y-87683405D01*
X112965560Y-87435640D01*
X112965560Y-87242307D01*
X113689468Y-86518400D01*
X114181041Y-86518400D01*
X114524476Y-86450087D01*
X114815626Y-86255546D01*
X115010167Y-85964396D01*
X115078480Y-85620961D01*
X115078480Y-84970959D01*
X115010167Y-84627524D01*
X114815626Y-84336374D01*
X114814443Y-84335583D01*
X114969367Y-84180658D01*
X115066040Y-83947269D01*
X115066040Y-83531710D01*
X114907290Y-83372960D01*
X113858040Y-83372960D01*
X113858040Y-83392960D01*
X113604040Y-83392960D01*
X113604040Y-83372960D01*
X113584040Y-83372960D01*
X113584040Y-83118960D01*
X113604040Y-83118960D01*
X113604040Y-83098960D01*
X113858040Y-83098960D01*
X113858040Y-83118960D01*
X114907290Y-83118960D01*
X115066040Y-82960210D01*
X115066040Y-82645368D01*
X115116564Y-82679127D01*
X115459999Y-82747440D01*
X116110001Y-82747440D01*
X116453436Y-82679127D01*
X116744586Y-82484586D01*
X116810000Y-82386687D01*
X116875414Y-82484586D01*
X117166564Y-82679127D01*
X117509999Y-82747440D01*
X118160001Y-82747440D01*
X118503436Y-82679127D01*
X118794586Y-82484586D01*
X118989127Y-82193436D01*
X119057440Y-81850001D01*
X119057440Y-81425000D01*
X122112054Y-81425000D01*
X122050873Y-81516564D01*
X122050873Y-81516564D01*
G37*
X122050873Y-81516564D02*
X121982560Y-81859999D01*
X121982560Y-82351572D01*
X121302720Y-83031413D01*
X121232999Y-83077999D01*
X121048448Y-83354200D01*
X121000000Y-83597764D01*
X121000000Y-83597767D01*
X120983643Y-83680000D01*
X121000000Y-83762233D01*
X121000001Y-84922560D01*
X120310000Y-84922560D01*
X120062235Y-84971843D01*
X119852191Y-85112191D01*
X119736723Y-85285000D01*
X117197792Y-85285000D01*
X117115559Y-85268643D01*
X117033326Y-85285000D01*
X117033323Y-85285000D01*
X116789759Y-85333448D01*
X116513559Y-85517999D01*
X116466975Y-85587717D01*
X113841180Y-88213513D01*
X113676117Y-88180680D01*
X113676113Y-88180680D01*
X113593880Y-88164323D01*
X113511647Y-88180680D01*
X112705363Y-88180680D01*
X112565885Y-88087483D01*
X112430935Y-88060640D01*
X112565885Y-88033797D01*
X112775929Y-87893449D01*
X112916277Y-87683405D01*
X112965560Y-87435640D01*
X112965560Y-87242307D01*
X113689468Y-86518400D01*
X114181041Y-86518400D01*
X114524476Y-86450087D01*
X114815626Y-86255546D01*
X115010167Y-85964396D01*
X115078480Y-85620961D01*
X115078480Y-84970959D01*
X115010167Y-84627524D01*
X114815626Y-84336374D01*
X114814443Y-84335583D01*
X114969367Y-84180658D01*
X115066040Y-83947269D01*
X115066040Y-83531710D01*
X114907290Y-83372960D01*
X113858040Y-83372960D01*
X113858040Y-83392960D01*
X113604040Y-83392960D01*
X113604040Y-83372960D01*
X113584040Y-83372960D01*
X113584040Y-83118960D01*
X113604040Y-83118960D01*
X113604040Y-83098960D01*
X113858040Y-83098960D01*
X113858040Y-83118960D01*
X114907290Y-83118960D01*
X115066040Y-82960210D01*
X115066040Y-82645368D01*
X115116564Y-82679127D01*
X115459999Y-82747440D01*
X116110001Y-82747440D01*
X116453436Y-82679127D01*
X116744586Y-82484586D01*
X116810000Y-82386687D01*
X116875414Y-82484586D01*
X117166564Y-82679127D01*
X117509999Y-82747440D01*
X118160001Y-82747440D01*
X118503436Y-82679127D01*
X118794586Y-82484586D01*
X118989127Y-82193436D01*
X119057440Y-81850001D01*
X119057440Y-81425000D01*
X122112054Y-81425000D01*
X122050873Y-81516564D01*
G36*
X131229094Y-74854426D02*
X131230277Y-74855217D01*
X131075353Y-75010142D01*
X130978680Y-75243531D01*
X130978680Y-75659090D01*
X131137430Y-75817840D01*
X132186680Y-75817840D01*
X132186680Y-75797840D01*
X132440680Y-75797840D01*
X132440680Y-75817840D01*
X132460680Y-75817840D01*
X132460680Y-76071840D01*
X132440680Y-76071840D01*
X132440680Y-76996090D01*
X132599430Y-77154840D01*
X132832691Y-77154840D01*
X132832691Y-80336441D01*
X130192240Y-82976893D01*
X130192240Y-76868085D01*
X130255397Y-76773565D01*
X130304680Y-76525800D01*
X130304680Y-76230590D01*
X130978680Y-76230590D01*
X130978680Y-76646149D01*
X131075353Y-76879538D01*
X131253981Y-77058167D01*
X131487370Y-77154840D01*
X132027930Y-77154840D01*
X132186680Y-76996090D01*
X132186680Y-76071840D01*
X131137430Y-76071840D01*
X130978680Y-76230590D01*
X130304680Y-76230590D01*
X130304680Y-75025800D01*
X130255397Y-74778035D01*
X130229208Y-74738840D01*
X131151862Y-74738840D01*
X131229094Y-74854426D01*
X131229094Y-74854426D01*
G37*
X131229094Y-74854426D02*
X131230277Y-74855217D01*
X131075353Y-75010142D01*
X130978680Y-75243531D01*
X130978680Y-75659090D01*
X131137430Y-75817840D01*
X132186680Y-75817840D01*
X132186680Y-75797840D01*
X132440680Y-75797840D01*
X132440680Y-75817840D01*
X132460680Y-75817840D01*
X132460680Y-76071840D01*
X132440680Y-76071840D01*
X132440680Y-76996090D01*
X132599430Y-77154840D01*
X132832691Y-77154840D01*
X132832691Y-80336441D01*
X130192240Y-82976893D01*
X130192240Y-76868085D01*
X130255397Y-76773565D01*
X130304680Y-76525800D01*
X130304680Y-76230590D01*
X130978680Y-76230590D01*
X130978680Y-76646149D01*
X131075353Y-76879538D01*
X131253981Y-77058167D01*
X131487370Y-77154840D01*
X132027930Y-77154840D01*
X132186680Y-76996090D01*
X132186680Y-76071840D01*
X131137430Y-76071840D01*
X130978680Y-76230590D01*
X130304680Y-76230590D01*
X130304680Y-75025800D01*
X130255397Y-74778035D01*
X130229208Y-74738840D01*
X131151862Y-74738840D01*
X131229094Y-74854426D01*
G36*
X113938182Y-73759247D02*
X114086504Y-73820684D01*
X112575080Y-75332109D01*
X112505359Y-75378695D01*
X112320808Y-75654896D01*
X112272360Y-75898460D01*
X112272360Y-75898463D01*
X112256003Y-75980696D01*
X112272360Y-76062929D01*
X112272361Y-77388127D01*
X112147774Y-77471374D01*
X111990480Y-77706780D01*
X111990480Y-77645713D01*
X112019609Y-77626249D01*
X112159957Y-77416205D01*
X112209240Y-77168440D01*
X112209240Y-76108440D01*
X112159957Y-75860675D01*
X112019609Y-75650631D01*
X111851705Y-75538440D01*
X112019609Y-75426249D01*
X112159957Y-75216205D01*
X112209240Y-74968440D01*
X112209240Y-73908440D01*
X112189049Y-73806930D01*
X112497879Y-73868360D01*
X113147881Y-73868360D01*
X113491316Y-73800047D01*
X113782466Y-73605506D01*
X113783257Y-73604323D01*
X113938182Y-73759247D01*
X113938182Y-73759247D01*
G37*
X113938182Y-73759247D02*
X114086504Y-73820684D01*
X112575080Y-75332109D01*
X112505359Y-75378695D01*
X112320808Y-75654896D01*
X112272360Y-75898460D01*
X112272360Y-75898463D01*
X112256003Y-75980696D01*
X112272360Y-76062929D01*
X112272361Y-77388127D01*
X112147774Y-77471374D01*
X111990480Y-77706780D01*
X111990480Y-77645713D01*
X112019609Y-77626249D01*
X112159957Y-77416205D01*
X112209240Y-77168440D01*
X112209240Y-76108440D01*
X112159957Y-75860675D01*
X112019609Y-75650631D01*
X111851705Y-75538440D01*
X112019609Y-75426249D01*
X112159957Y-75216205D01*
X112209240Y-74968440D01*
X112209240Y-73908440D01*
X112189049Y-73806930D01*
X112497879Y-73868360D01*
X113147881Y-73868360D01*
X113491316Y-73800047D01*
X113782466Y-73605506D01*
X113783257Y-73604323D01*
X113938182Y-73759247D01*
G36*
X110313643Y-75216205D02*
X110413800Y-75366099D01*
X110413800Y-75444690D01*
X110553351Y-75584241D01*
X110453991Y-75650631D01*
X110313643Y-75860675D01*
X110286800Y-75995625D01*
X110259957Y-75860675D01*
X110119609Y-75650631D01*
X110020249Y-75584241D01*
X110159800Y-75444690D01*
X110159800Y-75366099D01*
X110259957Y-75216205D01*
X110286800Y-75081255D01*
X110313643Y-75216205D01*
X110313643Y-75216205D01*
G37*
X110313643Y-75216205D02*
X110413800Y-75366099D01*
X110413800Y-75444690D01*
X110553351Y-75584241D01*
X110453991Y-75650631D01*
X110313643Y-75860675D01*
X110286800Y-75995625D01*
X110259957Y-75860675D01*
X110119609Y-75650631D01*
X110020249Y-75584241D01*
X110159800Y-75444690D01*
X110159800Y-75366099D01*
X110259957Y-75216205D01*
X110286800Y-75081255D01*
X110313643Y-75216205D01*
G36*
X132832690Y-45211578D02*
X132832691Y-72686127D01*
X132763681Y-72672400D01*
X131863679Y-72672400D01*
X131520244Y-72740713D01*
X131229094Y-72935254D01*
X131139834Y-73068840D01*
X129615069Y-73068840D01*
X130915563Y-71768347D01*
X130985281Y-71721763D01*
X131169832Y-71445563D01*
X131218280Y-71201999D01*
X131218280Y-71201996D01*
X131234637Y-71119763D01*
X131218280Y-71037530D01*
X131218280Y-68941637D01*
X131234638Y-68859400D01*
X131169832Y-68533599D01*
X131128887Y-68472320D01*
X130985281Y-68257399D01*
X130915563Y-68210815D01*
X125797308Y-63092560D01*
X125893722Y-63092560D01*
X125893722Y-62933812D01*
X126052470Y-63092560D01*
X126468029Y-63092560D01*
X126701418Y-62995887D01*
X126856343Y-62840963D01*
X126857134Y-62842146D01*
X127148284Y-63036687D01*
X127491719Y-63105000D01*
X128141721Y-63105000D01*
X128485156Y-63036687D01*
X128776306Y-62842146D01*
X128970847Y-62550996D01*
X129039160Y-62207561D01*
X129039160Y-61715987D01*
X131596286Y-59158863D01*
X131666001Y-59112281D01*
X131804048Y-58905680D01*
X131850552Y-58836081D01*
X131881463Y-58680680D01*
X131899000Y-58592517D01*
X131899000Y-58592514D01*
X131915357Y-58510281D01*
X131899000Y-58428048D01*
X131899000Y-49844257D01*
X131915358Y-49762020D01*
X131850552Y-49436220D01*
X131850552Y-49436219D01*
X131666001Y-49160019D01*
X131596283Y-49113435D01*
X129969287Y-47486440D01*
X129922701Y-47416719D01*
X129646501Y-47232168D01*
X129539848Y-47210953D01*
X129568140Y-47068720D01*
X129568140Y-45968720D01*
X129528358Y-45768720D01*
X129568140Y-45568720D01*
X129568140Y-44468720D01*
X129528358Y-44268720D01*
X129568140Y-44068720D01*
X129568140Y-42968720D01*
X129528358Y-42768720D01*
X129568140Y-42568720D01*
X129568140Y-41947027D01*
X132832690Y-45211578D01*
X132832690Y-45211578D01*
G37*
X132832690Y-45211578D02*
X132832691Y-72686127D01*
X132763681Y-72672400D01*
X131863679Y-72672400D01*
X131520244Y-72740713D01*
X131229094Y-72935254D01*
X131139834Y-73068840D01*
X129615069Y-73068840D01*
X130915563Y-71768347D01*
X130985281Y-71721763D01*
X131169832Y-71445563D01*
X131218280Y-71201999D01*
X131218280Y-71201996D01*
X131234637Y-71119763D01*
X131218280Y-71037530D01*
X131218280Y-68941637D01*
X131234638Y-68859400D01*
X131169832Y-68533599D01*
X131128887Y-68472320D01*
X130985281Y-68257399D01*
X130915563Y-68210815D01*
X125797308Y-63092560D01*
X125893722Y-63092560D01*
X125893722Y-62933812D01*
X126052470Y-63092560D01*
X126468029Y-63092560D01*
X126701418Y-62995887D01*
X126856343Y-62840963D01*
X126857134Y-62842146D01*
X127148284Y-63036687D01*
X127491719Y-63105000D01*
X128141721Y-63105000D01*
X128485156Y-63036687D01*
X128776306Y-62842146D01*
X128970847Y-62550996D01*
X129039160Y-62207561D01*
X129039160Y-61715987D01*
X131596286Y-59158863D01*
X131666001Y-59112281D01*
X131804048Y-58905680D01*
X131850552Y-58836081D01*
X131881463Y-58680680D01*
X131899000Y-58592517D01*
X131899000Y-58592514D01*
X131915357Y-58510281D01*
X131899000Y-58428048D01*
X131899000Y-49844257D01*
X131915358Y-49762020D01*
X131850552Y-49436220D01*
X131850552Y-49436219D01*
X131666001Y-49160019D01*
X131596283Y-49113435D01*
X129969287Y-47486440D01*
X129922701Y-47416719D01*
X129646501Y-47232168D01*
X129539848Y-47210953D01*
X129568140Y-47068720D01*
X129568140Y-45968720D01*
X129528358Y-45768720D01*
X129568140Y-45568720D01*
X129568140Y-44468720D01*
X129528358Y-44268720D01*
X129568140Y-44068720D01*
X129568140Y-42968720D01*
X129528358Y-42768720D01*
X129568140Y-42568720D01*
X129568140Y-41947027D01*
X132832690Y-45211578D01*
G36*
X125986665Y-69006093D02*
X125847240Y-68978360D01*
X125247240Y-68978360D01*
X124999475Y-69027643D01*
X124912240Y-69085932D01*
X124825005Y-69027643D01*
X124577240Y-68978360D01*
X123977240Y-68978360D01*
X123729475Y-69027643D01*
X123642240Y-69085932D01*
X123555005Y-69027643D01*
X123307240Y-68978360D01*
X122707240Y-68978360D01*
X122459475Y-69027643D01*
X122380268Y-69080568D01*
X122163550Y-68990800D01*
X122022990Y-68990800D01*
X121864240Y-69149550D01*
X121864240Y-70248800D01*
X121884240Y-70248800D01*
X121884240Y-70502800D01*
X121864240Y-70502800D01*
X121864240Y-71602050D01*
X122022990Y-71760800D01*
X122163550Y-71760800D01*
X122380268Y-71671032D01*
X122459475Y-71723957D01*
X122707240Y-71773240D01*
X123307240Y-71773240D01*
X123555005Y-71723957D01*
X123642240Y-71665668D01*
X123729475Y-71723957D01*
X123977240Y-71773240D01*
X124577240Y-71773240D01*
X124825005Y-71723957D01*
X124912240Y-71665668D01*
X124999475Y-71723957D01*
X125247240Y-71773240D01*
X125847240Y-71773240D01*
X126095005Y-71723957D01*
X126182240Y-71665668D01*
X126269475Y-71723957D01*
X126517240Y-71773240D01*
X127117240Y-71773240D01*
X127365005Y-71723957D01*
X127452240Y-71665668D01*
X127539475Y-71723957D01*
X127787240Y-71773240D01*
X128387240Y-71773240D01*
X128589083Y-71733091D01*
X127367734Y-72954441D01*
X122095292Y-72954441D01*
X121302240Y-72161390D01*
X121302240Y-71757200D01*
X121310930Y-71760800D01*
X121451490Y-71760800D01*
X121610240Y-71602050D01*
X121610240Y-70502800D01*
X121590240Y-70502800D01*
X121590240Y-70248800D01*
X121610240Y-70248800D01*
X121610240Y-69149550D01*
X121451490Y-68990800D01*
X121310930Y-68990800D01*
X121302240Y-68994400D01*
X121302240Y-68012022D01*
X121429146Y-67927226D01*
X121429937Y-67926043D01*
X121584862Y-68080967D01*
X121818251Y-68177640D01*
X122233810Y-68177640D01*
X122392560Y-68018890D01*
X122392560Y-66969640D01*
X122646560Y-66969640D01*
X122646560Y-68018890D01*
X122805310Y-68177640D01*
X123220869Y-68177640D01*
X123454258Y-68080967D01*
X123632887Y-67902339D01*
X123729560Y-67668950D01*
X123729560Y-67128390D01*
X123570810Y-66969640D01*
X122646560Y-66969640D01*
X122392560Y-66969640D01*
X122372560Y-66969640D01*
X122372560Y-66715640D01*
X122392560Y-66715640D01*
X122392560Y-66695640D01*
X122646560Y-66695640D01*
X122646560Y-66715640D01*
X123570810Y-66715640D01*
X123633511Y-66652939D01*
X125986665Y-69006093D01*
X125986665Y-69006093D01*
G37*
X125986665Y-69006093D02*
X125847240Y-68978360D01*
X125247240Y-68978360D01*
X124999475Y-69027643D01*
X124912240Y-69085932D01*
X124825005Y-69027643D01*
X124577240Y-68978360D01*
X123977240Y-68978360D01*
X123729475Y-69027643D01*
X123642240Y-69085932D01*
X123555005Y-69027643D01*
X123307240Y-68978360D01*
X122707240Y-68978360D01*
X122459475Y-69027643D01*
X122380268Y-69080568D01*
X122163550Y-68990800D01*
X122022990Y-68990800D01*
X121864240Y-69149550D01*
X121864240Y-70248800D01*
X121884240Y-70248800D01*
X121884240Y-70502800D01*
X121864240Y-70502800D01*
X121864240Y-71602050D01*
X122022990Y-71760800D01*
X122163550Y-71760800D01*
X122380268Y-71671032D01*
X122459475Y-71723957D01*
X122707240Y-71773240D01*
X123307240Y-71773240D01*
X123555005Y-71723957D01*
X123642240Y-71665668D01*
X123729475Y-71723957D01*
X123977240Y-71773240D01*
X124577240Y-71773240D01*
X124825005Y-71723957D01*
X124912240Y-71665668D01*
X124999475Y-71723957D01*
X125247240Y-71773240D01*
X125847240Y-71773240D01*
X126095005Y-71723957D01*
X126182240Y-71665668D01*
X126269475Y-71723957D01*
X126517240Y-71773240D01*
X127117240Y-71773240D01*
X127365005Y-71723957D01*
X127452240Y-71665668D01*
X127539475Y-71723957D01*
X127787240Y-71773240D01*
X128387240Y-71773240D01*
X128589083Y-71733091D01*
X127367734Y-72954441D01*
X122095292Y-72954441D01*
X121302240Y-72161390D01*
X121302240Y-71757200D01*
X121310930Y-71760800D01*
X121451490Y-71760800D01*
X121610240Y-71602050D01*
X121610240Y-70502800D01*
X121590240Y-70502800D01*
X121590240Y-70248800D01*
X121610240Y-70248800D01*
X121610240Y-69149550D01*
X121451490Y-68990800D01*
X121310930Y-68990800D01*
X121302240Y-68994400D01*
X121302240Y-68012022D01*
X121429146Y-67927226D01*
X121429937Y-67926043D01*
X121584862Y-68080967D01*
X121818251Y-68177640D01*
X122233810Y-68177640D01*
X122392560Y-68018890D01*
X122392560Y-66969640D01*
X122646560Y-66969640D01*
X122646560Y-68018890D01*
X122805310Y-68177640D01*
X123220869Y-68177640D01*
X123454258Y-68080967D01*
X123632887Y-67902339D01*
X123729560Y-67668950D01*
X123729560Y-67128390D01*
X123570810Y-66969640D01*
X122646560Y-66969640D01*
X122392560Y-66969640D01*
X122372560Y-66969640D01*
X122372560Y-66715640D01*
X122392560Y-66715640D01*
X122392560Y-66695640D01*
X122646560Y-66695640D01*
X122646560Y-66715640D01*
X123570810Y-66715640D01*
X123633511Y-66652939D01*
X125986665Y-69006093D01*
G36*
X113649348Y-59011176D02*
X113695932Y-59080894D01*
X113972132Y-59265445D01*
X114215696Y-59313893D01*
X114297933Y-59330251D01*
X114380170Y-59313893D01*
X116294466Y-59313893D01*
X122488212Y-65507640D01*
X122392558Y-65507640D01*
X122392558Y-65666388D01*
X122233810Y-65507640D01*
X121818251Y-65507640D01*
X121584862Y-65604313D01*
X121429937Y-65759237D01*
X121429146Y-65758054D01*
X121137996Y-65563513D01*
X120794561Y-65495200D01*
X120144559Y-65495200D01*
X119801124Y-65563513D01*
X119509974Y-65758054D01*
X119315433Y-66049204D01*
X119247120Y-66392639D01*
X119247120Y-67292641D01*
X119315433Y-67636076D01*
X119509974Y-67927226D01*
X119632241Y-68008922D01*
X119632240Y-69283514D01*
X119569083Y-69378035D01*
X119536707Y-69540800D01*
X118794493Y-69540800D01*
X118712256Y-69524442D01*
X118630019Y-69540800D01*
X118386455Y-69589248D01*
X118110255Y-69773799D01*
X118063671Y-69843517D01*
X116082880Y-71824308D01*
X116082880Y-71694610D01*
X115986207Y-71461221D01*
X115807578Y-71282593D01*
X115574189Y-71185920D01*
X115158630Y-71185920D01*
X114999880Y-71344670D01*
X114999880Y-72393920D01*
X115019880Y-72393920D01*
X115019880Y-72647920D01*
X114999880Y-72647920D01*
X114999880Y-72667920D01*
X114745880Y-72667920D01*
X114745880Y-72647920D01*
X114725880Y-72647920D01*
X114725880Y-72393920D01*
X114745880Y-72393920D01*
X114745880Y-71344670D01*
X114587130Y-71185920D01*
X114171571Y-71185920D01*
X113938182Y-71282593D01*
X113783257Y-71437517D01*
X113782466Y-71436334D01*
X113657880Y-71353088D01*
X113657880Y-68941517D01*
X113674238Y-68859280D01*
X113609432Y-68533479D01*
X113577603Y-68485844D01*
X113424881Y-68257279D01*
X113355163Y-68210695D01*
X111065747Y-65921280D01*
X111019161Y-65851559D01*
X110742961Y-65667008D01*
X110682333Y-65654948D01*
X110855761Y-65583112D01*
X111146912Y-65291961D01*
X111304481Y-64911555D01*
X111304481Y-64499807D01*
X111146912Y-64119401D01*
X110855761Y-63828250D01*
X110475355Y-63670681D01*
X110415349Y-63670681D01*
X110244040Y-63499372D01*
X110244040Y-63098360D01*
X110194757Y-62850595D01*
X110054409Y-62640551D01*
X109844365Y-62500203D01*
X109596600Y-62450920D01*
X109244040Y-62450920D01*
X109244040Y-61656560D01*
X110529687Y-61656560D01*
X110611920Y-61672917D01*
X110694153Y-61656560D01*
X110694157Y-61656560D01*
X110937721Y-61608112D01*
X111213921Y-61423561D01*
X111260507Y-61353840D01*
X111570920Y-61043427D01*
X111640641Y-60996841D01*
X111825192Y-60720641D01*
X111873640Y-60477077D01*
X111873640Y-60477074D01*
X111889997Y-60394841D01*
X111873640Y-60312608D01*
X111873640Y-57235467D01*
X113649348Y-59011176D01*
X113649348Y-59011176D01*
G37*
X113649348Y-59011176D02*
X113695932Y-59080894D01*
X113972132Y-59265445D01*
X114215696Y-59313893D01*
X114297933Y-59330251D01*
X114380170Y-59313893D01*
X116294466Y-59313893D01*
X122488212Y-65507640D01*
X122392558Y-65507640D01*
X122392558Y-65666388D01*
X122233810Y-65507640D01*
X121818251Y-65507640D01*
X121584862Y-65604313D01*
X121429937Y-65759237D01*
X121429146Y-65758054D01*
X121137996Y-65563513D01*
X120794561Y-65495200D01*
X120144559Y-65495200D01*
X119801124Y-65563513D01*
X119509974Y-65758054D01*
X119315433Y-66049204D01*
X119247120Y-66392639D01*
X119247120Y-67292641D01*
X119315433Y-67636076D01*
X119509974Y-67927226D01*
X119632241Y-68008922D01*
X119632240Y-69283514D01*
X119569083Y-69378035D01*
X119536707Y-69540800D01*
X118794493Y-69540800D01*
X118712256Y-69524442D01*
X118630019Y-69540800D01*
X118386455Y-69589248D01*
X118110255Y-69773799D01*
X118063671Y-69843517D01*
X116082880Y-71824308D01*
X116082880Y-71694610D01*
X115986207Y-71461221D01*
X115807578Y-71282593D01*
X115574189Y-71185920D01*
X115158630Y-71185920D01*
X114999880Y-71344670D01*
X114999880Y-72393920D01*
X115019880Y-72393920D01*
X115019880Y-72647920D01*
X114999880Y-72647920D01*
X114999880Y-72667920D01*
X114745880Y-72667920D01*
X114745880Y-72647920D01*
X114725880Y-72647920D01*
X114725880Y-72393920D01*
X114745880Y-72393920D01*
X114745880Y-71344670D01*
X114587130Y-71185920D01*
X114171571Y-71185920D01*
X113938182Y-71282593D01*
X113783257Y-71437517D01*
X113782466Y-71436334D01*
X113657880Y-71353088D01*
X113657880Y-68941517D01*
X113674238Y-68859280D01*
X113609432Y-68533479D01*
X113577603Y-68485844D01*
X113424881Y-68257279D01*
X113355163Y-68210695D01*
X111065747Y-65921280D01*
X111019161Y-65851559D01*
X110742961Y-65667008D01*
X110682333Y-65654948D01*
X110855761Y-65583112D01*
X111146912Y-65291961D01*
X111304481Y-64911555D01*
X111304481Y-64499807D01*
X111146912Y-64119401D01*
X110855761Y-63828250D01*
X110475355Y-63670681D01*
X110415349Y-63670681D01*
X110244040Y-63499372D01*
X110244040Y-63098360D01*
X110194757Y-62850595D01*
X110054409Y-62640551D01*
X109844365Y-62500203D01*
X109596600Y-62450920D01*
X109244040Y-62450920D01*
X109244040Y-61656560D01*
X110529687Y-61656560D01*
X110611920Y-61672917D01*
X110694153Y-61656560D01*
X110694157Y-61656560D01*
X110937721Y-61608112D01*
X111213921Y-61423561D01*
X111260507Y-61353840D01*
X111570920Y-61043427D01*
X111640641Y-60996841D01*
X111825192Y-60720641D01*
X111873640Y-60477077D01*
X111873640Y-60477074D01*
X111889997Y-60394841D01*
X111873640Y-60312608D01*
X111873640Y-57235467D01*
X113649348Y-59011176D01*
G36*
X125773260Y-36568720D02*
X125813042Y-36768720D01*
X125773260Y-36968720D01*
X125773260Y-38068720D01*
X125813042Y-38268720D01*
X125773260Y-38468720D01*
X125773260Y-39568720D01*
X125813042Y-39768720D01*
X125773260Y-39968720D01*
X125773260Y-41068720D01*
X125813042Y-41268720D01*
X125773260Y-41468720D01*
X125773260Y-42568720D01*
X125813042Y-42768720D01*
X125773260Y-42968720D01*
X125773260Y-44068720D01*
X125813042Y-44268720D01*
X125773260Y-44468720D01*
X125773260Y-45568720D01*
X125813042Y-45768720D01*
X125773260Y-45968720D01*
X125773260Y-47068720D01*
X125813042Y-47268720D01*
X125773260Y-47468720D01*
X125773260Y-48568720D01*
X125813042Y-48768720D01*
X125773260Y-48968720D01*
X125773260Y-50068720D01*
X125813042Y-50268720D01*
X125773260Y-50468720D01*
X125773260Y-51568720D01*
X125813042Y-51768720D01*
X125773260Y-51968720D01*
X125773260Y-53068720D01*
X125814074Y-53273909D01*
X125785700Y-53342410D01*
X125785700Y-53732970D01*
X125944450Y-53891720D01*
X127543700Y-53891720D01*
X127543700Y-53871720D01*
X127797700Y-53871720D01*
X127797700Y-53891720D01*
X129396950Y-53891720D01*
X129555700Y-53732970D01*
X129555700Y-53342410D01*
X129527326Y-53273909D01*
X129568140Y-53068720D01*
X129568140Y-51968720D01*
X129528358Y-51768720D01*
X129568140Y-51568720D01*
X129568140Y-50468720D01*
X129528358Y-50268720D01*
X129568140Y-50068720D01*
X129568140Y-49447027D01*
X130229000Y-50107888D01*
X130229001Y-58164410D01*
X127983293Y-60410120D01*
X127491719Y-60410120D01*
X127148284Y-60478433D01*
X126857134Y-60672974D01*
X126856343Y-60674157D01*
X126701418Y-60519233D01*
X126468029Y-60422560D01*
X126052470Y-60422560D01*
X125893720Y-60581310D01*
X125893720Y-61630560D01*
X125913720Y-61630560D01*
X125913720Y-61884560D01*
X125893720Y-61884560D01*
X125893720Y-61904560D01*
X125639720Y-61904560D01*
X125639720Y-61884560D01*
X124715470Y-61884560D01*
X124652389Y-61947641D01*
X123635998Y-60931250D01*
X124556720Y-60931250D01*
X124556720Y-61471810D01*
X124715470Y-61630560D01*
X125639720Y-61630560D01*
X125639720Y-60581310D01*
X125480970Y-60422560D01*
X125065411Y-60422560D01*
X124832022Y-60519233D01*
X124653393Y-60697861D01*
X124556720Y-60931250D01*
X123635998Y-60931250D01*
X118553840Y-55849093D01*
X118553840Y-54304470D01*
X125785700Y-54304470D01*
X125785700Y-54695030D01*
X125882373Y-54928419D01*
X126061002Y-55107047D01*
X126294391Y-55203720D01*
X127384950Y-55203720D01*
X127543700Y-55044970D01*
X127543700Y-54145720D01*
X127797700Y-54145720D01*
X127797700Y-55044970D01*
X127956450Y-55203720D01*
X129047009Y-55203720D01*
X129280398Y-55107047D01*
X129459027Y-54928419D01*
X129555700Y-54695030D01*
X129555700Y-54304470D01*
X129396950Y-54145720D01*
X127797700Y-54145720D01*
X127543700Y-54145720D01*
X125944450Y-54145720D01*
X125785700Y-54304470D01*
X118553840Y-54304470D01*
X118553840Y-53999097D01*
X118570198Y-53916860D01*
X118553820Y-53834523D01*
X118505392Y-53591059D01*
X118320841Y-53314859D01*
X118251122Y-53268275D01*
X116969287Y-51986440D01*
X116922701Y-51916719D01*
X116646501Y-51732168D01*
X116539848Y-51710953D01*
X116568140Y-51568720D01*
X116568140Y-50468720D01*
X116528358Y-50268720D01*
X116568140Y-50068720D01*
X116568140Y-48968720D01*
X116528358Y-48768720D01*
X116568140Y-48568720D01*
X116568140Y-47468720D01*
X116528358Y-47268720D01*
X116568140Y-47068720D01*
X116568140Y-45968720D01*
X116528358Y-45768720D01*
X116568140Y-45568720D01*
X116568140Y-44468720D01*
X116528358Y-44268720D01*
X116568140Y-44068720D01*
X116568140Y-42968720D01*
X116528358Y-42768720D01*
X116568140Y-42568720D01*
X116568140Y-41468720D01*
X116528358Y-41268720D01*
X116568140Y-41068720D01*
X116568140Y-39968720D01*
X116528358Y-39768720D01*
X116568140Y-39568720D01*
X116568140Y-38468720D01*
X116528358Y-38268720D01*
X116568140Y-38068720D01*
X116568140Y-36968720D01*
X116528358Y-36768720D01*
X116568140Y-36568720D01*
X116568140Y-35710000D01*
X125773260Y-35710000D01*
X125773260Y-36568720D01*
X125773260Y-36568720D01*
G37*
X125773260Y-36568720D02*
X125813042Y-36768720D01*
X125773260Y-36968720D01*
X125773260Y-38068720D01*
X125813042Y-38268720D01*
X125773260Y-38468720D01*
X125773260Y-39568720D01*
X125813042Y-39768720D01*
X125773260Y-39968720D01*
X125773260Y-41068720D01*
X125813042Y-41268720D01*
X125773260Y-41468720D01*
X125773260Y-42568720D01*
X125813042Y-42768720D01*
X125773260Y-42968720D01*
X125773260Y-44068720D01*
X125813042Y-44268720D01*
X125773260Y-44468720D01*
X125773260Y-45568720D01*
X125813042Y-45768720D01*
X125773260Y-45968720D01*
X125773260Y-47068720D01*
X125813042Y-47268720D01*
X125773260Y-47468720D01*
X125773260Y-48568720D01*
X125813042Y-48768720D01*
X125773260Y-48968720D01*
X125773260Y-50068720D01*
X125813042Y-50268720D01*
X125773260Y-50468720D01*
X125773260Y-51568720D01*
X125813042Y-51768720D01*
X125773260Y-51968720D01*
X125773260Y-53068720D01*
X125814074Y-53273909D01*
X125785700Y-53342410D01*
X125785700Y-53732970D01*
X125944450Y-53891720D01*
X127543700Y-53891720D01*
X127543700Y-53871720D01*
X127797700Y-53871720D01*
X127797700Y-53891720D01*
X129396950Y-53891720D01*
X129555700Y-53732970D01*
X129555700Y-53342410D01*
X129527326Y-53273909D01*
X129568140Y-53068720D01*
X129568140Y-51968720D01*
X129528358Y-51768720D01*
X129568140Y-51568720D01*
X129568140Y-50468720D01*
X129528358Y-50268720D01*
X129568140Y-50068720D01*
X129568140Y-49447027D01*
X130229000Y-50107888D01*
X130229001Y-58164410D01*
X127983293Y-60410120D01*
X127491719Y-60410120D01*
X127148284Y-60478433D01*
X126857134Y-60672974D01*
X126856343Y-60674157D01*
X126701418Y-60519233D01*
X126468029Y-60422560D01*
X126052470Y-60422560D01*
X125893720Y-60581310D01*
X125893720Y-61630560D01*
X125913720Y-61630560D01*
X125913720Y-61884560D01*
X125893720Y-61884560D01*
X125893720Y-61904560D01*
X125639720Y-61904560D01*
X125639720Y-61884560D01*
X124715470Y-61884560D01*
X124652389Y-61947641D01*
X123635998Y-60931250D01*
X124556720Y-60931250D01*
X124556720Y-61471810D01*
X124715470Y-61630560D01*
X125639720Y-61630560D01*
X125639720Y-60581310D01*
X125480970Y-60422560D01*
X125065411Y-60422560D01*
X124832022Y-60519233D01*
X124653393Y-60697861D01*
X124556720Y-60931250D01*
X123635998Y-60931250D01*
X118553840Y-55849093D01*
X118553840Y-54304470D01*
X125785700Y-54304470D01*
X125785700Y-54695030D01*
X125882373Y-54928419D01*
X126061002Y-55107047D01*
X126294391Y-55203720D01*
X127384950Y-55203720D01*
X127543700Y-55044970D01*
X127543700Y-54145720D01*
X127797700Y-54145720D01*
X127797700Y-55044970D01*
X127956450Y-55203720D01*
X129047009Y-55203720D01*
X129280398Y-55107047D01*
X129459027Y-54928419D01*
X129555700Y-54695030D01*
X129555700Y-54304470D01*
X129396950Y-54145720D01*
X127797700Y-54145720D01*
X127543700Y-54145720D01*
X125944450Y-54145720D01*
X125785700Y-54304470D01*
X118553840Y-54304470D01*
X118553840Y-53999097D01*
X118570198Y-53916860D01*
X118553820Y-53834523D01*
X118505392Y-53591059D01*
X118320841Y-53314859D01*
X118251122Y-53268275D01*
X116969287Y-51986440D01*
X116922701Y-51916719D01*
X116646501Y-51732168D01*
X116539848Y-51710953D01*
X116568140Y-51568720D01*
X116568140Y-50468720D01*
X116528358Y-50268720D01*
X116568140Y-50068720D01*
X116568140Y-48968720D01*
X116528358Y-48768720D01*
X116568140Y-48568720D01*
X116568140Y-47468720D01*
X116528358Y-47268720D01*
X116568140Y-47068720D01*
X116568140Y-45968720D01*
X116528358Y-45768720D01*
X116568140Y-45568720D01*
X116568140Y-44468720D01*
X116528358Y-44268720D01*
X116568140Y-44068720D01*
X116568140Y-42968720D01*
X116528358Y-42768720D01*
X116568140Y-42568720D01*
X116568140Y-41468720D01*
X116528358Y-41268720D01*
X116568140Y-41068720D01*
X116568140Y-39968720D01*
X116528358Y-39768720D01*
X116568140Y-39568720D01*
X116568140Y-38468720D01*
X116528358Y-38268720D01*
X116568140Y-38068720D01*
X116568140Y-36968720D01*
X116528358Y-36768720D01*
X116568140Y-36568720D01*
X116568140Y-35710000D01*
X125773260Y-35710000D01*
X125773260Y-36568720D01*
G36*
X111436570Y-36421983D02*
X111366849Y-36468569D01*
X111182298Y-36744770D01*
X111133850Y-36988334D01*
X111133850Y-36988337D01*
X111117493Y-37070570D01*
X111133850Y-37152803D01*
X111133851Y-54062422D01*
X111112641Y-54030679D01*
X110836441Y-53846128D01*
X110770640Y-53833039D01*
X110770640Y-53168430D01*
X110611890Y-53009680D01*
X109462640Y-53009680D01*
X109462640Y-53029680D01*
X109208640Y-53029680D01*
X109208640Y-53009680D01*
X109188640Y-53009680D01*
X109188640Y-52755680D01*
X109208640Y-52755680D01*
X109208640Y-51356430D01*
X109462640Y-51356430D01*
X109462640Y-52755680D01*
X110611890Y-52755680D01*
X110770640Y-52596930D01*
X110770640Y-51706371D01*
X110673967Y-51472982D01*
X110495339Y-51294353D01*
X110261950Y-51197680D01*
X109621390Y-51197680D01*
X109462640Y-51356430D01*
X109208640Y-51356430D01*
X109049890Y-51197680D01*
X108409330Y-51197680D01*
X108175941Y-51294353D01*
X107997313Y-51472982D01*
X107900640Y-51706371D01*
X107900640Y-52250178D01*
X107672318Y-52057678D01*
X107247640Y-51922680D01*
X106897640Y-51922680D01*
X106897640Y-52930680D01*
X106917640Y-52930680D01*
X106917640Y-53184680D01*
X106897640Y-53184680D01*
X106897640Y-53256430D01*
X106847640Y-53306430D01*
X106847640Y-54655680D01*
X106867640Y-54655680D01*
X106867640Y-54909680D01*
X106847640Y-54909680D01*
X106847640Y-56955680D01*
X106867640Y-56955680D01*
X106867640Y-57209680D01*
X106847640Y-57209680D01*
X106847640Y-58558930D01*
X106897640Y-58608930D01*
X106897640Y-58680680D01*
X106917640Y-58680680D01*
X106917640Y-58934680D01*
X106897640Y-58934680D01*
X106897640Y-59942680D01*
X107247640Y-59942680D01*
X107672318Y-59807682D01*
X107885640Y-59627828D01*
X107885640Y-59986560D01*
X107829032Y-59986560D01*
X107746799Y-59970203D01*
X107664566Y-59986560D01*
X107664563Y-59986560D01*
X107420999Y-60035008D01*
X107370067Y-60069040D01*
X107144799Y-60219559D01*
X107098216Y-60289275D01*
X106508397Y-60879095D01*
X106455287Y-60914583D01*
X106386600Y-60900920D01*
X106110000Y-60900920D01*
X106110000Y-59884304D01*
X106293640Y-59942680D01*
X106643640Y-59942680D01*
X106643640Y-58934680D01*
X106623640Y-58934680D01*
X106623640Y-58680680D01*
X106643640Y-58680680D01*
X106643640Y-57672680D01*
X106593640Y-57672680D01*
X106593640Y-57209680D01*
X106573640Y-57209680D01*
X106573640Y-56955680D01*
X106593640Y-56955680D01*
X106593640Y-54909680D01*
X106573640Y-54909680D01*
X106573640Y-54655680D01*
X106593640Y-54655680D01*
X106593640Y-54192680D01*
X106643640Y-54192680D01*
X106643640Y-53184680D01*
X106623640Y-53184680D01*
X106623640Y-52930680D01*
X106643640Y-52930680D01*
X106643640Y-51922680D01*
X106293640Y-51922680D01*
X106110000Y-51981056D01*
X106110000Y-37605159D01*
X106415000Y-37605159D01*
X106415000Y-38394841D01*
X106717199Y-39124412D01*
X107275588Y-39682801D01*
X108005159Y-39985000D01*
X108794841Y-39985000D01*
X109524412Y-39682801D01*
X110082801Y-39124412D01*
X110385000Y-38394841D01*
X110385000Y-37605159D01*
X110082801Y-36875588D01*
X109524412Y-36317199D01*
X108794841Y-36015000D01*
X108005159Y-36015000D01*
X107275588Y-36317199D01*
X106717199Y-36875588D01*
X106415000Y-37605159D01*
X106110000Y-37605159D01*
X106110000Y-35710000D01*
X112148552Y-35710000D01*
X111436570Y-36421983D01*
X111436570Y-36421983D01*
G37*
X111436570Y-36421983D02*
X111366849Y-36468569D01*
X111182298Y-36744770D01*
X111133850Y-36988334D01*
X111133850Y-36988337D01*
X111117493Y-37070570D01*
X111133850Y-37152803D01*
X111133851Y-54062422D01*
X111112641Y-54030679D01*
X110836441Y-53846128D01*
X110770640Y-53833039D01*
X110770640Y-53168430D01*
X110611890Y-53009680D01*
X109462640Y-53009680D01*
X109462640Y-53029680D01*
X109208640Y-53029680D01*
X109208640Y-53009680D01*
X109188640Y-53009680D01*
X109188640Y-52755680D01*
X109208640Y-52755680D01*
X109208640Y-51356430D01*
X109462640Y-51356430D01*
X109462640Y-52755680D01*
X110611890Y-52755680D01*
X110770640Y-52596930D01*
X110770640Y-51706371D01*
X110673967Y-51472982D01*
X110495339Y-51294353D01*
X110261950Y-51197680D01*
X109621390Y-51197680D01*
X109462640Y-51356430D01*
X109208640Y-51356430D01*
X109049890Y-51197680D01*
X108409330Y-51197680D01*
X108175941Y-51294353D01*
X107997313Y-51472982D01*
X107900640Y-51706371D01*
X107900640Y-52250178D01*
X107672318Y-52057678D01*
X107247640Y-51922680D01*
X106897640Y-51922680D01*
X106897640Y-52930680D01*
X106917640Y-52930680D01*
X106917640Y-53184680D01*
X106897640Y-53184680D01*
X106897640Y-53256430D01*
X106847640Y-53306430D01*
X106847640Y-54655680D01*
X106867640Y-54655680D01*
X106867640Y-54909680D01*
X106847640Y-54909680D01*
X106847640Y-56955680D01*
X106867640Y-56955680D01*
X106867640Y-57209680D01*
X106847640Y-57209680D01*
X106847640Y-58558930D01*
X106897640Y-58608930D01*
X106897640Y-58680680D01*
X106917640Y-58680680D01*
X106917640Y-58934680D01*
X106897640Y-58934680D01*
X106897640Y-59942680D01*
X107247640Y-59942680D01*
X107672318Y-59807682D01*
X107885640Y-59627828D01*
X107885640Y-59986560D01*
X107829032Y-59986560D01*
X107746799Y-59970203D01*
X107664566Y-59986560D01*
X107664563Y-59986560D01*
X107420999Y-60035008D01*
X107370067Y-60069040D01*
X107144799Y-60219559D01*
X107098216Y-60289275D01*
X106508397Y-60879095D01*
X106455287Y-60914583D01*
X106386600Y-60900920D01*
X106110000Y-60900920D01*
X106110000Y-59884304D01*
X106293640Y-59942680D01*
X106643640Y-59942680D01*
X106643640Y-58934680D01*
X106623640Y-58934680D01*
X106623640Y-58680680D01*
X106643640Y-58680680D01*
X106643640Y-57672680D01*
X106593640Y-57672680D01*
X106593640Y-57209680D01*
X106573640Y-57209680D01*
X106573640Y-56955680D01*
X106593640Y-56955680D01*
X106593640Y-54909680D01*
X106573640Y-54909680D01*
X106573640Y-54655680D01*
X106593640Y-54655680D01*
X106593640Y-54192680D01*
X106643640Y-54192680D01*
X106643640Y-53184680D01*
X106623640Y-53184680D01*
X106623640Y-52930680D01*
X106643640Y-52930680D01*
X106643640Y-51922680D01*
X106293640Y-51922680D01*
X106110000Y-51981056D01*
X106110000Y-37605159D01*
X106415000Y-37605159D01*
X106415000Y-38394841D01*
X106717199Y-39124412D01*
X107275588Y-39682801D01*
X108005159Y-39985000D01*
X108794841Y-39985000D01*
X109524412Y-39682801D01*
X110082801Y-39124412D01*
X110385000Y-38394841D01*
X110385000Y-37605159D01*
X110082801Y-36875588D01*
X109524412Y-36317199D01*
X108794841Y-36015000D01*
X108005159Y-36015000D01*
X107275588Y-36317199D01*
X106717199Y-36875588D01*
X106415000Y-37605159D01*
X106110000Y-37605159D01*
X106110000Y-35710000D01*
X112148552Y-35710000D01*
X111436570Y-36421983D01*
G36*
X109447640Y-58905680D02*
X109467640Y-58905680D01*
X109467640Y-59159680D01*
X109447640Y-59159680D01*
X109447640Y-59179680D01*
X109193640Y-59179680D01*
X109193640Y-59159680D01*
X109173640Y-59159680D01*
X109173640Y-58905680D01*
X109193640Y-58905680D01*
X109193640Y-58885680D01*
X109447640Y-58885680D01*
X109447640Y-58905680D01*
X109447640Y-58905680D01*
G37*
X109447640Y-58905680D02*
X109467640Y-58905680D01*
X109467640Y-59159680D01*
X109447640Y-59159680D01*
X109447640Y-59179680D01*
X109193640Y-59179680D01*
X109193640Y-59159680D01*
X109173640Y-59159680D01*
X109173640Y-58905680D01*
X109193640Y-58905680D01*
X109193640Y-58885680D01*
X109447640Y-58885680D01*
X109447640Y-58905680D01*
G36*
X109193638Y-57506428D02*
X109158640Y-57471430D01*
X109158640Y-57430120D01*
X109193638Y-57430120D01*
X109193638Y-57506428D01*
X109193638Y-57506428D01*
G37*
X109193638Y-57506428D02*
X109158640Y-57471430D01*
X109158640Y-57430120D01*
X109193638Y-57430120D01*
X109193638Y-57506428D01*
G36*
X116883841Y-54262729D02*
X116883840Y-56112727D01*
X116867483Y-56194960D01*
X116883840Y-56277193D01*
X116883840Y-56277196D01*
X116932288Y-56520760D01*
X117116839Y-56796961D01*
X117186560Y-56843547D01*
X117405810Y-57062797D01*
X117330642Y-57047845D01*
X117248409Y-57064202D01*
X117001070Y-57064202D01*
X116898915Y-57043882D01*
X116898911Y-57043882D01*
X116816678Y-57027525D01*
X116734445Y-57043882D01*
X115080110Y-57043882D01*
X113443360Y-55407133D01*
X113443360Y-55203720D01*
X114384950Y-55203720D01*
X114543700Y-55044970D01*
X114543700Y-54145720D01*
X114797700Y-54145720D01*
X114797700Y-55044970D01*
X114956450Y-55203720D01*
X116047009Y-55203720D01*
X116280398Y-55107047D01*
X116459027Y-54928419D01*
X116555700Y-54695030D01*
X116555700Y-54304470D01*
X116396950Y-54145720D01*
X114797700Y-54145720D01*
X114543700Y-54145720D01*
X114523700Y-54145720D01*
X114523700Y-53891720D01*
X114543700Y-53891720D01*
X114543700Y-53871720D01*
X114797700Y-53871720D01*
X114797700Y-53891720D01*
X116396950Y-53891720D01*
X116454891Y-53833779D01*
X116883841Y-54262729D01*
X116883841Y-54262729D01*
G37*
X116883841Y-54262729D02*
X116883840Y-56112727D01*
X116867483Y-56194960D01*
X116883840Y-56277193D01*
X116883840Y-56277196D01*
X116932288Y-56520760D01*
X117116839Y-56796961D01*
X117186560Y-56843547D01*
X117405810Y-57062797D01*
X117330642Y-57047845D01*
X117248409Y-57064202D01*
X117001070Y-57064202D01*
X116898915Y-57043882D01*
X116898911Y-57043882D01*
X116816678Y-57027525D01*
X116734445Y-57043882D01*
X115080110Y-57043882D01*
X113443360Y-55407133D01*
X113443360Y-55203720D01*
X114384950Y-55203720D01*
X114543700Y-55044970D01*
X114543700Y-54145720D01*
X114797700Y-54145720D01*
X114797700Y-55044970D01*
X114956450Y-55203720D01*
X116047009Y-55203720D01*
X116280398Y-55107047D01*
X116459027Y-54928419D01*
X116555700Y-54695030D01*
X116555700Y-54304470D01*
X116396950Y-54145720D01*
X114797700Y-54145720D01*
X114543700Y-54145720D01*
X114523700Y-54145720D01*
X114523700Y-53891720D01*
X114543700Y-53891720D01*
X114543700Y-53871720D01*
X114797700Y-53871720D01*
X114797700Y-53891720D01*
X116396950Y-53891720D01*
X116454891Y-53833779D01*
X116883841Y-54262729D01*
G04 #@! TD*
M02*
