G04 #@! TF.GenerationSoftware,KiCad,Pcbnew,5.1.10-88a1d61d58~88~ubuntu20.04.1*
G04 #@! TF.CreationDate,2021-05-09T22:10:24+02:00*
G04 #@! TF.ProjectId,SerialSwitcher,53657269-616c-4537-9769-74636865722e,rev?*
G04 #@! TF.SameCoordinates,Original*
G04 #@! TF.FileFunction,Other,Fab,Top*
%FSLAX46Y46*%
G04 Gerber Fmt 4.6, Leading zero omitted, Abs format (unit mm)*
G04 Created by KiCad (PCBNEW 5.1.10-88a1d61d58~88~ubuntu20.04.1) date 2021-05-09 22:10:24*
%MOMM*%
%LPD*%
G01*
G04 APERTURE LIST*
%ADD10C,0.100000*%
%ADD11C,0.150000*%
G04 APERTURE END LIST*
D10*
X119020000Y-69630000D02*
X129700000Y-69630000D01*
X119020000Y-66430000D02*
X129700000Y-66430000D01*
X119020000Y-44630000D02*
X129700000Y-44630000D01*
X119020000Y-41430000D02*
X129700000Y-41430000D01*
X113620000Y-70530000D02*
X118620000Y-70530000D01*
X113620000Y-65530000D02*
X113620000Y-70530000D01*
X118620000Y-65530000D02*
X113620000Y-65530000D01*
X113620000Y-45530000D02*
X118620000Y-45530000D01*
X113620000Y-40530000D02*
X113620000Y-45530000D01*
X118620000Y-40530000D02*
X113620000Y-40530000D01*
X118620000Y-63680000D02*
X118620000Y-47380000D01*
X112450000Y-63680000D02*
X118620000Y-63680000D01*
X112450000Y-47380000D02*
X112450000Y-63680000D01*
X118620000Y-47380000D02*
X112450000Y-47380000D01*
X119020000Y-70955000D02*
X119020000Y-40105000D01*
X118600000Y-70970000D02*
X122220000Y-70955000D01*
X118620000Y-40105000D02*
X118620000Y-70955000D01*
X122220000Y-40105000D02*
X118650000Y-40105000D01*
X132700000Y-70955000D02*
X132700000Y-40105000D01*
X122220000Y-70955000D02*
X132700000Y-70955000D01*
X132700000Y-40105000D02*
X122220000Y-40105000D01*
X127460000Y-69630000D02*
G75*
G03*
X129700000Y-66430000I1120000J1600000D01*
G01*
X127460000Y-44630000D02*
G75*
G03*
X129700000Y-41430000I1120000J1600000D01*
G01*
X149900000Y-70965000D02*
X160380000Y-70965000D01*
X160380000Y-40115000D02*
X149900000Y-40115000D01*
X149900000Y-40115000D02*
X149900000Y-70965000D01*
X160380000Y-70965000D02*
X163950000Y-70965000D01*
X163980000Y-70965000D02*
X163980000Y-40115000D01*
X164000000Y-40100000D02*
X160380000Y-40115000D01*
X163580000Y-40115000D02*
X163580000Y-70965000D01*
X163980000Y-63690000D02*
X170150000Y-63690000D01*
X170150000Y-63690000D02*
X170150000Y-47390000D01*
X170150000Y-47390000D02*
X163980000Y-47390000D01*
X163980000Y-47390000D02*
X163980000Y-63690000D01*
X163980000Y-70540000D02*
X168980000Y-70540000D01*
X168980000Y-70540000D02*
X168980000Y-65540000D01*
X168980000Y-65540000D02*
X163980000Y-65540000D01*
X163980000Y-45540000D02*
X168980000Y-45540000D01*
X168980000Y-45540000D02*
X168980000Y-40540000D01*
X168980000Y-40540000D02*
X163980000Y-40540000D01*
X163580000Y-69640000D02*
X152900000Y-69640000D01*
X163580000Y-66440000D02*
X152900000Y-66440000D01*
X163580000Y-44640000D02*
X152900000Y-44640000D01*
X163580000Y-41440000D02*
X152900000Y-41440000D01*
X155140000Y-66440000D02*
G75*
G03*
X152900000Y-69640000I-1120000J-1600000D01*
G01*
X155140000Y-41440000D02*
G75*
G03*
X152900000Y-44640000I-1120000J-1600000D01*
G01*
D11*
X118187380Y-55863333D02*
X118901666Y-55863333D01*
X119044523Y-55910952D01*
X119139761Y-56006190D01*
X119187380Y-56149047D01*
X119187380Y-56244285D01*
X119187380Y-54863333D02*
X119187380Y-55434761D01*
X119187380Y-55149047D02*
X118187380Y-55149047D01*
X118330238Y-55244285D01*
X118425476Y-55339523D01*
X118473095Y-55434761D01*
X140266666Y-37852380D02*
X139933333Y-37376190D01*
X139695238Y-37852380D02*
X139695238Y-36852380D01*
X140076190Y-36852380D01*
X140171428Y-36900000D01*
X140219047Y-36947619D01*
X140266666Y-37042857D01*
X140266666Y-37185714D01*
X140219047Y-37280952D01*
X140171428Y-37328571D01*
X140076190Y-37376190D01*
X139695238Y-37376190D01*
X140695238Y-37328571D02*
X141028571Y-37328571D01*
X141171428Y-37852380D02*
X140695238Y-37852380D01*
X140695238Y-36852380D01*
X141171428Y-36852380D01*
X141933333Y-37328571D02*
X141600000Y-37328571D01*
X141600000Y-37852380D02*
X141600000Y-36852380D01*
X142076190Y-36852380D01*
X142600000Y-36852380D02*
X142600000Y-37090476D01*
X142361904Y-36995238D02*
X142600000Y-37090476D01*
X142838095Y-36995238D01*
X142457142Y-37280952D02*
X142600000Y-37090476D01*
X142742857Y-37280952D01*
X143361904Y-36852380D02*
X143361904Y-37090476D01*
X143123809Y-36995238D02*
X143361904Y-37090476D01*
X143600000Y-36995238D01*
X143219047Y-37280952D02*
X143361904Y-37090476D01*
X143504761Y-37280952D01*
X120966666Y-37852380D02*
X120633333Y-37376190D01*
X120395238Y-37852380D02*
X120395238Y-36852380D01*
X120776190Y-36852380D01*
X120871428Y-36900000D01*
X120919047Y-36947619D01*
X120966666Y-37042857D01*
X120966666Y-37185714D01*
X120919047Y-37280952D01*
X120871428Y-37328571D01*
X120776190Y-37376190D01*
X120395238Y-37376190D01*
X121395238Y-37328571D02*
X121728571Y-37328571D01*
X121871428Y-37852380D02*
X121395238Y-37852380D01*
X121395238Y-36852380D01*
X121871428Y-36852380D01*
X122633333Y-37328571D02*
X122300000Y-37328571D01*
X122300000Y-37852380D02*
X122300000Y-36852380D01*
X122776190Y-36852380D01*
X123300000Y-36852380D02*
X123300000Y-37090476D01*
X123061904Y-36995238D02*
X123300000Y-37090476D01*
X123538095Y-36995238D01*
X123157142Y-37280952D02*
X123300000Y-37090476D01*
X123442857Y-37280952D01*
X124061904Y-36852380D02*
X124061904Y-37090476D01*
X123823809Y-36995238D02*
X124061904Y-37090476D01*
X124300000Y-36995238D01*
X123919047Y-37280952D02*
X124061904Y-37090476D01*
X124204761Y-37280952D01*
X140266666Y-74252380D02*
X139933333Y-73776190D01*
X139695238Y-74252380D02*
X139695238Y-73252380D01*
X140076190Y-73252380D01*
X140171428Y-73300000D01*
X140219047Y-73347619D01*
X140266666Y-73442857D01*
X140266666Y-73585714D01*
X140219047Y-73680952D01*
X140171428Y-73728571D01*
X140076190Y-73776190D01*
X139695238Y-73776190D01*
X140695238Y-73728571D02*
X141028571Y-73728571D01*
X141171428Y-74252380D02*
X140695238Y-74252380D01*
X140695238Y-73252380D01*
X141171428Y-73252380D01*
X141933333Y-73728571D02*
X141600000Y-73728571D01*
X141600000Y-74252380D02*
X141600000Y-73252380D01*
X142076190Y-73252380D01*
X142600000Y-73252380D02*
X142600000Y-73490476D01*
X142361904Y-73395238D02*
X142600000Y-73490476D01*
X142838095Y-73395238D01*
X142457142Y-73680952D02*
X142600000Y-73490476D01*
X142742857Y-73680952D01*
X143361904Y-73252380D02*
X143361904Y-73490476D01*
X143123809Y-73395238D02*
X143361904Y-73490476D01*
X143600000Y-73395238D01*
X143219047Y-73680952D02*
X143361904Y-73490476D01*
X143504761Y-73680952D01*
X120966666Y-74252380D02*
X120633333Y-73776190D01*
X120395238Y-74252380D02*
X120395238Y-73252380D01*
X120776190Y-73252380D01*
X120871428Y-73300000D01*
X120919047Y-73347619D01*
X120966666Y-73442857D01*
X120966666Y-73585714D01*
X120919047Y-73680952D01*
X120871428Y-73728571D01*
X120776190Y-73776190D01*
X120395238Y-73776190D01*
X121395238Y-73728571D02*
X121728571Y-73728571D01*
X121871428Y-74252380D02*
X121395238Y-74252380D01*
X121395238Y-73252380D01*
X121871428Y-73252380D01*
X122633333Y-73728571D02*
X122300000Y-73728571D01*
X122300000Y-74252380D02*
X122300000Y-73252380D01*
X122776190Y-73252380D01*
X123300000Y-73252380D02*
X123300000Y-73490476D01*
X123061904Y-73395238D02*
X123300000Y-73490476D01*
X123538095Y-73395238D01*
X123157142Y-73680952D02*
X123300000Y-73490476D01*
X123442857Y-73680952D01*
X124061904Y-73252380D02*
X124061904Y-73490476D01*
X123823809Y-73395238D02*
X124061904Y-73490476D01*
X124300000Y-73395238D01*
X123919047Y-73680952D02*
X124061904Y-73490476D01*
X124204761Y-73680952D01*
X159566666Y-74252380D02*
X159233333Y-73776190D01*
X158995238Y-74252380D02*
X158995238Y-73252380D01*
X159376190Y-73252380D01*
X159471428Y-73300000D01*
X159519047Y-73347619D01*
X159566666Y-73442857D01*
X159566666Y-73585714D01*
X159519047Y-73680952D01*
X159471428Y-73728571D01*
X159376190Y-73776190D01*
X158995238Y-73776190D01*
X159995238Y-73728571D02*
X160328571Y-73728571D01*
X160471428Y-74252380D02*
X159995238Y-74252380D01*
X159995238Y-73252380D01*
X160471428Y-73252380D01*
X161233333Y-73728571D02*
X160900000Y-73728571D01*
X160900000Y-74252380D02*
X160900000Y-73252380D01*
X161376190Y-73252380D01*
X161900000Y-73252380D02*
X161900000Y-73490476D01*
X161661904Y-73395238D02*
X161900000Y-73490476D01*
X162138095Y-73395238D01*
X161757142Y-73680952D02*
X161900000Y-73490476D01*
X162042857Y-73680952D01*
X162661904Y-73252380D02*
X162661904Y-73490476D01*
X162423809Y-73395238D02*
X162661904Y-73490476D01*
X162900000Y-73395238D01*
X162519047Y-73680952D02*
X162661904Y-73490476D01*
X162804761Y-73680952D01*
X159566666Y-37852380D02*
X159233333Y-37376190D01*
X158995238Y-37852380D02*
X158995238Y-36852380D01*
X159376190Y-36852380D01*
X159471428Y-36900000D01*
X159519047Y-36947619D01*
X159566666Y-37042857D01*
X159566666Y-37185714D01*
X159519047Y-37280952D01*
X159471428Y-37328571D01*
X159376190Y-37376190D01*
X158995238Y-37376190D01*
X159995238Y-37328571D02*
X160328571Y-37328571D01*
X160471428Y-37852380D02*
X159995238Y-37852380D01*
X159995238Y-36852380D01*
X160471428Y-36852380D01*
X161233333Y-37328571D02*
X160900000Y-37328571D01*
X160900000Y-37852380D02*
X160900000Y-36852380D01*
X161376190Y-36852380D01*
X161900000Y-36852380D02*
X161900000Y-37090476D01*
X161661904Y-36995238D02*
X161900000Y-37090476D01*
X162138095Y-36995238D01*
X161757142Y-37280952D02*
X161900000Y-37090476D01*
X162042857Y-37280952D01*
X162661904Y-36852380D02*
X162661904Y-37090476D01*
X162423809Y-36995238D02*
X162661904Y-37090476D01*
X162900000Y-36995238D01*
X162519047Y-37280952D02*
X162661904Y-37090476D01*
X162804761Y-37280952D01*
X163317380Y-55873333D02*
X164031666Y-55873333D01*
X164174523Y-55920952D01*
X164269761Y-56016190D01*
X164317380Y-56159047D01*
X164317380Y-56254285D01*
X163412619Y-55444761D02*
X163365000Y-55397142D01*
X163317380Y-55301904D01*
X163317380Y-55063809D01*
X163365000Y-54968571D01*
X163412619Y-54920952D01*
X163507857Y-54873333D01*
X163603095Y-54873333D01*
X163745952Y-54920952D01*
X164317380Y-55492380D01*
X164317380Y-54873333D01*
M02*
