G04 #@! TF.GenerationSoftware,KiCad,Pcbnew,5.0.0-fee4fd1~66~ubuntu16.04.1*
G04 #@! TF.CreationDate,2018-10-22T20:20:06+02:00*
G04 #@! TF.ProjectId,WiRoc_NanoPi_SideOledPCB_v1_Panelized,5769526F635F4E616E6F50695F536964,rev?*
G04 #@! TF.SameCoordinates,Original*
G04 #@! TF.FileFunction,Soldermask,Top*
G04 #@! TF.FilePolarity,Negative*
%FSLAX46Y46*%
G04 Gerber Fmt 4.6, Leading zero omitted, Abs format (unit mm)*
G04 Created by KiCad (PCBNEW 5.0.0-fee4fd1~66~ubuntu16.04.1) date Mon Oct 22 20:20:06 2018*
%MOMM*%
%LPD*%
G01*
G04 APERTURE LIST*
%ADD10C,2.000000*%
%ADD11C,1.924000*%
%ADD12C,1.550000*%
%ADD13O,2.100000X2.100000*%
%ADD14R,2.100000X2.100000*%
%ADD15C,2.100000*%
%ADD16C,2.100000*%
%ADD17C,0.100000*%
%ADD18C,0.900000*%
G04 APERTURE END LIST*
D10*
G04 #@! TO.C,FID1*
X43517820Y-116230900D03*
G04 #@! TD*
G04 #@! TO.C,FID1*
X43517820Y-97164900D03*
G04 #@! TD*
G04 #@! TO.C,FID1*
X43517820Y-78098900D03*
G04 #@! TD*
G04 #@! TO.C,FID1*
X43517820Y-59032900D03*
G04 #@! TD*
D11*
G04 #@! TO.C,J1*
X66322500Y-114684800D03*
X72972500Y-114634800D03*
D12*
X71047500Y-115884800D03*
X69647500Y-115884800D03*
X68247500Y-115884800D03*
X70397500Y-114684800D03*
X68897500Y-114684800D03*
G04 #@! TD*
D11*
G04 #@! TO.C,J1*
X66322500Y-95618800D03*
X72972500Y-95568800D03*
D12*
X71047500Y-96818800D03*
X69647500Y-96818800D03*
X68247500Y-96818800D03*
X70397500Y-95618800D03*
X68897500Y-95618800D03*
G04 #@! TD*
D11*
G04 #@! TO.C,J1*
X66322500Y-76552800D03*
X72972500Y-76502800D03*
D12*
X71047500Y-77752800D03*
X69647500Y-77752800D03*
X68247500Y-77752800D03*
X70397500Y-76552800D03*
X68897500Y-76552800D03*
G04 #@! TD*
D11*
G04 #@! TO.C,J1*
X66322500Y-57486800D03*
X72972500Y-57436800D03*
D12*
X71047500Y-58686800D03*
X69647500Y-58686800D03*
X68247500Y-58686800D03*
X70397500Y-57486800D03*
X68897500Y-57486800D03*
G04 #@! TD*
D13*
G04 #@! TO.C,J3*
X46164000Y-103696000D03*
X48704000Y-103696000D03*
X51244000Y-103696000D03*
X53784000Y-103696000D03*
X56324000Y-103696000D03*
D14*
X58864000Y-103696000D03*
G04 #@! TD*
D13*
G04 #@! TO.C,J3*
X46164000Y-84630000D03*
X48704000Y-84630000D03*
X51244000Y-84630000D03*
X53784000Y-84630000D03*
X56324000Y-84630000D03*
D14*
X58864000Y-84630000D03*
G04 #@! TD*
D13*
G04 #@! TO.C,J3*
X46164000Y-65564000D03*
X48704000Y-65564000D03*
X51244000Y-65564000D03*
X53784000Y-65564000D03*
X56324000Y-65564000D03*
D14*
X58864000Y-65564000D03*
G04 #@! TD*
D13*
G04 #@! TO.C,J3*
X46164000Y-46498000D03*
X48704000Y-46498000D03*
X51244000Y-46498000D03*
X53784000Y-46498000D03*
X56324000Y-46498000D03*
D14*
X58864000Y-46498000D03*
G04 #@! TD*
D10*
G04 #@! TO.C,FID2*
X71711820Y-112392960D03*
G04 #@! TD*
G04 #@! TO.C,FID2*
X71711820Y-93326960D03*
G04 #@! TD*
G04 #@! TO.C,FID2*
X71711820Y-74260960D03*
G04 #@! TD*
G04 #@! TO.C,FID2*
X71711820Y-55194960D03*
G04 #@! TD*
D15*
G04 #@! TO.C,J2*
X39172291Y-104108949D03*
D16*
X39172291Y-104108949D02*
X39172291Y-104108949D01*
D15*
X39957194Y-106524633D03*
D16*
X39957194Y-106524633D02*
X39957194Y-106524633D01*
D15*
X40742097Y-108940316D03*
D16*
X40742097Y-108940316D02*
X40742097Y-108940316D01*
D15*
X41527000Y-111356000D03*
D17*
G36*
X42201141Y-110032923D02*
X42850077Y-112030141D01*
X40852859Y-112679077D01*
X40203923Y-110681859D01*
X42201141Y-110032923D01*
X42201141Y-110032923D01*
G37*
G04 #@! TD*
D15*
G04 #@! TO.C,J2*
X39172291Y-85042949D03*
D16*
X39172291Y-85042949D02*
X39172291Y-85042949D01*
D15*
X39957194Y-87458633D03*
D16*
X39957194Y-87458633D02*
X39957194Y-87458633D01*
D15*
X40742097Y-89874316D03*
D16*
X40742097Y-89874316D02*
X40742097Y-89874316D01*
D15*
X41527000Y-92290000D03*
D17*
G36*
X42201141Y-90966923D02*
X42850077Y-92964141D01*
X40852859Y-93613077D01*
X40203923Y-91615859D01*
X42201141Y-90966923D01*
X42201141Y-90966923D01*
G37*
G04 #@! TD*
D15*
G04 #@! TO.C,J2*
X39172291Y-68516949D03*
D16*
X39172291Y-68516949D02*
X39172291Y-68516949D01*
D15*
X39957194Y-70932633D03*
D16*
X39957194Y-70932633D02*
X39957194Y-70932633D01*
D15*
X40742097Y-73348316D03*
D16*
X40742097Y-73348316D02*
X40742097Y-73348316D01*
D15*
X41527000Y-75764000D03*
D17*
G36*
X42201141Y-74440923D02*
X42850077Y-76438141D01*
X40852859Y-77087077D01*
X40203923Y-75089859D01*
X42201141Y-74440923D01*
X42201141Y-74440923D01*
G37*
G04 #@! TD*
D15*
G04 #@! TO.C,J2*
X39172291Y-49450949D03*
D16*
X39172291Y-49450949D02*
X39172291Y-49450949D01*
D15*
X39957194Y-51866633D03*
D16*
X39957194Y-51866633D02*
X39957194Y-51866633D01*
D15*
X40742097Y-54282316D03*
D16*
X40742097Y-54282316D02*
X40742097Y-54282316D01*
D15*
X41527000Y-56698000D03*
D17*
G36*
X42201141Y-55374923D02*
X42850077Y-57372141D01*
X40852859Y-58021077D01*
X40203923Y-56023859D01*
X42201141Y-55374923D01*
X42201141Y-55374923D01*
G37*
G04 #@! TD*
D12*
G04 #@! TO.C,J1*
X68897500Y-38420800D03*
X70397500Y-38420800D03*
X68247500Y-39620800D03*
X69647500Y-39620800D03*
X71047500Y-39620800D03*
D11*
X72972500Y-38370800D03*
X66322500Y-38420800D03*
G04 #@! TD*
D10*
G04 #@! TO.C,FID2*
X71711820Y-36128960D03*
G04 #@! TD*
D15*
G04 #@! TO.C,J2*
X41527000Y-37632000D03*
D17*
G36*
X42201141Y-36308923D02*
X42850077Y-38306141D01*
X40852859Y-38955077D01*
X40203923Y-36957859D01*
X42201141Y-36308923D01*
X42201141Y-36308923D01*
G37*
D15*
X40742097Y-35216316D03*
D16*
X40742097Y-35216316D02*
X40742097Y-35216316D01*
D15*
X39957194Y-32800633D03*
D16*
X39957194Y-32800633D02*
X39957194Y-32800633D01*
D15*
X39172291Y-30384949D03*
D16*
X39172291Y-30384949D02*
X39172291Y-30384949D01*
G04 #@! TD*
D14*
G04 #@! TO.C,J3*
X58864000Y-27432000D03*
D13*
X56324000Y-27432000D03*
X53784000Y-27432000D03*
X51244000Y-27432000D03*
X48704000Y-27432000D03*
X46164000Y-27432000D03*
G04 #@! TD*
D10*
G04 #@! TO.C,FID1*
X43517820Y-39966900D03*
G04 #@! TD*
D18*
G04 #@! TO.C,mouse-bite-2.54mm-slot*
X50800000Y-43800000D03*
X49200000Y-43800000D03*
X49200000Y-41600000D03*
X50800000Y-41600000D03*
X50000000Y-43800000D03*
X50000000Y-41600000D03*
G04 #@! TD*
G04 #@! TO.C,mouse-bite-2.54mm-slot*
X50800000Y-62866000D03*
X49200000Y-62866000D03*
X49200000Y-60666000D03*
X50800000Y-60666000D03*
X50000000Y-62866000D03*
X50000000Y-60666000D03*
G04 #@! TD*
G04 #@! TO.C,mouse-bite-2.54mm-slot*
X50800000Y-81932000D03*
X49200000Y-81932000D03*
X49200000Y-79732000D03*
X50800000Y-79732000D03*
X50000000Y-81932000D03*
X50000000Y-79732000D03*
G04 #@! TD*
G04 #@! TO.C,mouse-bite-2.54mm-slot*
X50800000Y-100998000D03*
X49200000Y-100998000D03*
X49200000Y-98798000D03*
X50800000Y-98798000D03*
X50000000Y-100998000D03*
X50000000Y-98798000D03*
G04 #@! TD*
M02*
