M48
METRIC,TZ
T1C0.500
%
G90
G05
T1
X49200Y-41600
X49200Y-43800
X50000Y-41600
X50000Y-43800
X50800Y-41600
X50800Y-43800
X49200Y-60666
X49200Y-62866
X50000Y-60666
X50000Y-62866
X50800Y-60666
X50800Y-62866
X49200Y-98798
X49200Y-100998
X50000Y-98798
X50000Y-100998
X50800Y-98798
X50800Y-100998
X49200Y-79732
X49200Y-81932
X50000Y-79732
X50000Y-81932
X50800Y-79732
X50800Y-81932
T0
M30
