G04 #@! TF.GenerationSoftware,KiCad,Pcbnew,5.0.0-fee4fd1~66~ubuntu16.04.1*
G04 #@! TF.CreationDate,2018-09-16T13:21:58+02:00*
G04 #@! TF.ProjectId,WiRoc_NanoPi_v1_Panelized,5769526F635F4E616E6F50695F76315F,rev?*
G04 #@! TF.SameCoordinates,Original*
G04 #@! TF.FileFunction,Paste,Top*
G04 #@! TF.FilePolarity,Positive*
%FSLAX46Y46*%
G04 Gerber Fmt 4.6, Leading zero omitted, Abs format (unit mm)*
G04 Created by KiCad (PCBNEW 5.0.0-fee4fd1~66~ubuntu16.04.1) date Sun Sep 16 13:21:58 2018*
%MOMM*%
%LPD*%
G01*
G04 APERTURE LIST*
%ADD10R,0.750000X0.800000*%
%ADD11R,0.800000X0.750000*%
%ADD12R,0.900000X0.500000*%
%ADD13R,0.300000X0.550000*%
%ADD14R,0.500000X0.900000*%
%ADD15R,1.100000X3.700000*%
%ADD16R,1.200000X0.900000*%
%ADD17R,0.840000X0.840000*%
%ADD18O,0.200000X0.700000*%
%ADD19O,0.700000X0.200000*%
%ADD20R,0.700000X1.300000*%
%ADD21R,0.600000X0.800000*%
%ADD22R,3.700000X1.100000*%
%ADD23R,1.060000X0.650000*%
G04 APERTURE END LIST*
D10*
G04 #@! TO.C,C5*
X109732300Y-41797540D03*
X109732300Y-43297540D03*
G04 #@! TD*
D11*
G04 #@! TO.C,C3*
X113114000Y-34715200D03*
X111614000Y-34715200D03*
G04 #@! TD*
D10*
G04 #@! TO.C,C8*
X85226380Y-58393900D03*
X85226380Y-59893900D03*
G04 #@! TD*
D11*
G04 #@! TO.C,C9*
X88437640Y-56896000D03*
X86937640Y-56896000D03*
G04 #@! TD*
D12*
G04 #@! TO.C,R8*
X79254760Y-42044680D03*
X79254760Y-43544680D03*
G04 #@! TD*
D10*
G04 #@! TO.C,C11*
X83781120Y-58392760D03*
X83781120Y-56892760D03*
G04 #@! TD*
D11*
G04 #@! TO.C,C10*
X92783500Y-60074300D03*
X91283500Y-60074300D03*
G04 #@! TD*
D13*
G04 #@! TO.C,D1*
X112039000Y-36215200D03*
X112689000Y-36215200D03*
G04 #@! TD*
D12*
G04 #@! TO.C,R12*
X104365280Y-73693720D03*
X104365280Y-72193720D03*
G04 #@! TD*
D10*
G04 #@! TO.C,C1*
X86369300Y-70475600D03*
X86369300Y-71975600D03*
G04 #@! TD*
D14*
G04 #@! TO.C,R4*
X107841840Y-66055240D03*
X109341840Y-66055240D03*
G04 #@! TD*
D10*
G04 #@! TO.C,C2*
X93544800Y-67324600D03*
X93544800Y-68824600D03*
G04 #@! TD*
D15*
G04 #@! TO.C,L2*
X79664660Y-34158680D03*
X82664660Y-34158680D03*
G04 #@! TD*
D11*
G04 #@! TO.C,C13*
X75996360Y-41943780D03*
X77496360Y-41943780D03*
G04 #@! TD*
D14*
G04 #@! TO.C,R3*
X81138300Y-64518100D03*
X79638300Y-64518100D03*
G04 #@! TD*
D16*
G04 #@! TO.C,D3*
X76714760Y-34362880D03*
X76714760Y-37662880D03*
G04 #@! TD*
D12*
G04 #@! TO.C,R6*
X76765640Y-32050420D03*
X76765640Y-30550420D03*
G04 #@! TD*
D10*
G04 #@! TO.C,C6*
X90568000Y-70358000D03*
X90568000Y-71858000D03*
G04 #@! TD*
D11*
G04 #@! TO.C,C7*
X109341840Y-62786260D03*
X107841840Y-62786260D03*
G04 #@! TD*
D12*
G04 #@! TO.C,R9*
X98815300Y-36769100D03*
X98815300Y-38269100D03*
G04 #@! TD*
D17*
G04 #@! TO.C,U3*
X84851800Y-66931600D03*
X86251800Y-66931600D03*
X87651800Y-66931600D03*
X87651800Y-65531600D03*
X86251800Y-65531600D03*
X84851800Y-64131600D03*
X84851800Y-65531600D03*
X86251800Y-64131600D03*
X87651800Y-64131600D03*
D18*
X84051800Y-62631600D03*
X84451800Y-62631600D03*
X84851800Y-62631600D03*
X85251800Y-62631600D03*
X85651800Y-62631600D03*
X86051800Y-62631600D03*
X86451800Y-62631600D03*
X86851800Y-62631600D03*
X87251800Y-62631600D03*
X87651800Y-62631600D03*
X88051800Y-62631600D03*
X88451800Y-62631600D03*
D19*
X89151800Y-63331600D03*
X89151800Y-63731600D03*
X89151800Y-64131600D03*
X89151800Y-64531600D03*
X89151800Y-64931600D03*
X89151800Y-65331600D03*
X89151800Y-65731600D03*
X89151800Y-66131600D03*
X89151800Y-66531600D03*
X89151800Y-66931600D03*
X89151800Y-67331600D03*
X89151800Y-67731600D03*
D18*
X88451800Y-68431600D03*
X88051800Y-68431600D03*
X87651800Y-68431600D03*
X87251800Y-68431600D03*
X86851800Y-68431600D03*
X86451800Y-68431600D03*
X86051800Y-68431600D03*
X85651800Y-68431600D03*
X85251800Y-68431600D03*
X84851800Y-68431600D03*
X84451800Y-68431600D03*
X84051800Y-68431600D03*
D19*
X83351800Y-67731600D03*
X83351800Y-67331600D03*
X83351800Y-66931600D03*
X83351800Y-66531600D03*
X83351800Y-66131600D03*
X83351800Y-65731600D03*
X83351800Y-65331600D03*
X83351800Y-64931600D03*
X83351800Y-64531600D03*
X83351800Y-64131600D03*
X83351800Y-63731600D03*
X83351800Y-63331600D03*
G04 #@! TD*
D20*
G04 #@! TO.C,R5*
X88792580Y-59082940D03*
X86892580Y-59082940D03*
G04 #@! TD*
D21*
G04 #@! TO.C,D2*
X80328360Y-30568900D03*
X78628360Y-30568900D03*
G04 #@! TD*
D14*
G04 #@! TO.C,R10*
X83628020Y-43365420D03*
X85128020Y-43365420D03*
G04 #@! TD*
D10*
G04 #@! TO.C,C14*
X98777200Y-41139300D03*
X98777200Y-39639300D03*
G04 #@! TD*
D12*
G04 #@! TO.C,R2*
X88401300Y-70297100D03*
X88401300Y-71797100D03*
G04 #@! TD*
D22*
G04 #@! TO.C,L1*
X80311400Y-59872500D03*
X80311400Y-56872500D03*
G04 #@! TD*
D10*
G04 #@! TO.C,C4*
X91487400Y-64126300D03*
X91487400Y-62626300D03*
G04 #@! TD*
D12*
G04 #@! TO.C,R11*
X106376960Y-72206420D03*
X106376960Y-73706420D03*
G04 #@! TD*
D14*
G04 #@! TO.C,R1*
X81150300Y-66157600D03*
X79650300Y-66157600D03*
G04 #@! TD*
G04 #@! TO.C,R7*
X76072560Y-40013380D03*
X77572560Y-40013380D03*
G04 #@! TD*
D10*
G04 #@! TO.C,C12*
X81070860Y-42311380D03*
X81070860Y-43811380D03*
G04 #@! TD*
D23*
G04 #@! TO.C,U5*
X94840200Y-39063500D03*
X94840200Y-37163500D03*
X97040200Y-37163500D03*
X97040200Y-38113500D03*
X97040200Y-39063500D03*
G04 #@! TD*
G04 #@! TO.C,U4*
X81479146Y-39019314D03*
X81479146Y-38069314D03*
X81479146Y-39969314D03*
X79279146Y-39969314D03*
X79279146Y-39019314D03*
X79279146Y-38069314D03*
G04 #@! TD*
D10*
G04 #@! TO.C,C12*
X39270860Y-43811380D03*
X39270860Y-42311380D03*
G04 #@! TD*
G04 #@! TO.C,C1*
X44569300Y-71975600D03*
X44569300Y-70475600D03*
G04 #@! TD*
G04 #@! TO.C,C2*
X51744800Y-68824600D03*
X51744800Y-67324600D03*
G04 #@! TD*
D11*
G04 #@! TO.C,C3*
X69814000Y-34715200D03*
X71314000Y-34715200D03*
G04 #@! TD*
D10*
G04 #@! TO.C,C4*
X49687400Y-62626300D03*
X49687400Y-64126300D03*
G04 #@! TD*
G04 #@! TO.C,C5*
X67932300Y-43297540D03*
X67932300Y-41797540D03*
G04 #@! TD*
G04 #@! TO.C,C6*
X48768000Y-71858000D03*
X48768000Y-70358000D03*
G04 #@! TD*
D11*
G04 #@! TO.C,C7*
X66041840Y-62786260D03*
X67541840Y-62786260D03*
G04 #@! TD*
D10*
G04 #@! TO.C,C8*
X43426380Y-59893900D03*
X43426380Y-58393900D03*
G04 #@! TD*
D11*
G04 #@! TO.C,C9*
X45137640Y-56896000D03*
X46637640Y-56896000D03*
G04 #@! TD*
G04 #@! TO.C,C10*
X49483500Y-60074300D03*
X50983500Y-60074300D03*
G04 #@! TD*
D10*
G04 #@! TO.C,C11*
X41981120Y-56892760D03*
X41981120Y-58392760D03*
G04 #@! TD*
D11*
G04 #@! TO.C,C13*
X35696360Y-41943780D03*
X34196360Y-41943780D03*
G04 #@! TD*
D10*
G04 #@! TO.C,C14*
X56977200Y-39639300D03*
X56977200Y-41139300D03*
G04 #@! TD*
D13*
G04 #@! TO.C,D1*
X70889000Y-36215200D03*
X70239000Y-36215200D03*
G04 #@! TD*
D21*
G04 #@! TO.C,D2*
X36828360Y-30568900D03*
X38528360Y-30568900D03*
G04 #@! TD*
D16*
G04 #@! TO.C,D3*
X34914760Y-37662880D03*
X34914760Y-34362880D03*
G04 #@! TD*
D14*
G04 #@! TO.C,R1*
X37850300Y-66157600D03*
X39350300Y-66157600D03*
G04 #@! TD*
D12*
G04 #@! TO.C,R2*
X46601300Y-71797100D03*
X46601300Y-70297100D03*
G04 #@! TD*
D14*
G04 #@! TO.C,R3*
X37838300Y-64518100D03*
X39338300Y-64518100D03*
G04 #@! TD*
G04 #@! TO.C,R4*
X67541840Y-66055240D03*
X66041840Y-66055240D03*
G04 #@! TD*
D20*
G04 #@! TO.C,R5*
X45092580Y-59082940D03*
X46992580Y-59082940D03*
G04 #@! TD*
D12*
G04 #@! TO.C,R6*
X34965640Y-30550420D03*
X34965640Y-32050420D03*
G04 #@! TD*
D14*
G04 #@! TO.C,R7*
X35772560Y-40013380D03*
X34272560Y-40013380D03*
G04 #@! TD*
D12*
G04 #@! TO.C,R8*
X37454760Y-43544680D03*
X37454760Y-42044680D03*
G04 #@! TD*
G04 #@! TO.C,R9*
X57015300Y-38269100D03*
X57015300Y-36769100D03*
G04 #@! TD*
D23*
G04 #@! TO.C,U4*
X37479146Y-38069314D03*
X37479146Y-39019314D03*
X37479146Y-39969314D03*
X39679146Y-39969314D03*
X39679146Y-38069314D03*
X39679146Y-39019314D03*
G04 #@! TD*
G04 #@! TO.C,U5*
X55240200Y-39063500D03*
X55240200Y-38113500D03*
X55240200Y-37163500D03*
X53040200Y-37163500D03*
X53040200Y-39063500D03*
G04 #@! TD*
D14*
G04 #@! TO.C,R10*
X43328020Y-43365420D03*
X41828020Y-43365420D03*
G04 #@! TD*
D12*
G04 #@! TO.C,R11*
X64576960Y-73706420D03*
X64576960Y-72206420D03*
G04 #@! TD*
G04 #@! TO.C,R12*
X62565280Y-72193720D03*
X62565280Y-73693720D03*
G04 #@! TD*
D22*
G04 #@! TO.C,L1*
X38511400Y-56872500D03*
X38511400Y-59872500D03*
G04 #@! TD*
D15*
G04 #@! TO.C,L2*
X40864660Y-34158680D03*
X37864660Y-34158680D03*
G04 #@! TD*
D19*
G04 #@! TO.C,U3*
X41551800Y-63331600D03*
X41551800Y-63731600D03*
X41551800Y-64131600D03*
X41551800Y-64531600D03*
X41551800Y-64931600D03*
X41551800Y-65331600D03*
X41551800Y-65731600D03*
X41551800Y-66131600D03*
X41551800Y-66531600D03*
X41551800Y-66931600D03*
X41551800Y-67331600D03*
X41551800Y-67731600D03*
D18*
X42251800Y-68431600D03*
X42651800Y-68431600D03*
X43051800Y-68431600D03*
X43451800Y-68431600D03*
X43851800Y-68431600D03*
X44251800Y-68431600D03*
X44651800Y-68431600D03*
X45051800Y-68431600D03*
X45451800Y-68431600D03*
X45851800Y-68431600D03*
X46251800Y-68431600D03*
X46651800Y-68431600D03*
D19*
X47351800Y-67731600D03*
X47351800Y-67331600D03*
X47351800Y-66931600D03*
X47351800Y-66531600D03*
X47351800Y-66131600D03*
X47351800Y-65731600D03*
X47351800Y-65331600D03*
X47351800Y-64931600D03*
X47351800Y-64531600D03*
X47351800Y-64131600D03*
X47351800Y-63731600D03*
X47351800Y-63331600D03*
D18*
X46651800Y-62631600D03*
X46251800Y-62631600D03*
X45851800Y-62631600D03*
X45451800Y-62631600D03*
X45051800Y-62631600D03*
X44651800Y-62631600D03*
X44251800Y-62631600D03*
X43851800Y-62631600D03*
X43451800Y-62631600D03*
X43051800Y-62631600D03*
X42651800Y-62631600D03*
X42251800Y-62631600D03*
D17*
X45851800Y-64131600D03*
X44451800Y-64131600D03*
X43051800Y-65531600D03*
X43051800Y-64131600D03*
X44451800Y-65531600D03*
X45851800Y-65531600D03*
X45851800Y-66931600D03*
X44451800Y-66931600D03*
X43051800Y-66931600D03*
G04 #@! TD*
M02*
