G04 #@! TF.GenerationSoftware,KiCad,Pcbnew,5.0.0-fee4fd1~66~ubuntu16.04.1*
G04 #@! TF.CreationDate,2018-09-16T13:21:58+02:00*
G04 #@! TF.ProjectId,WiRoc_NanoPi_v1_Panelized,5769526F635F4E616E6F50695F76315F,rev?*
G04 #@! TF.SameCoordinates,Original*
G04 #@! TF.FileFunction,Legend,Top*
G04 #@! TF.FilePolarity,Positive*
%FSLAX46Y46*%
G04 Gerber Fmt 4.6, Leading zero omitted, Abs format (unit mm)*
G04 Created by KiCad (PCBNEW 5.0.0-fee4fd1~66~ubuntu16.04.1) date Sun Sep 16 13:21:58 2018*
%MOMM*%
%LPD*%
G01*
G04 APERTURE LIST*
%ADD10C,0.300000*%
%ADD11C,0.120000*%
%ADD12C,0.100000*%
%ADD13C,0.150000*%
%ADD14C,0.125000*%
G04 APERTURE END LIST*
D10*
X93275760Y-32412951D02*
X92918617Y-32412951D01*
X92918617Y-30270094D01*
X93275760Y-30270094D01*
X93704331Y-30412951D02*
X94061474Y-31912951D01*
X94347188Y-30841522D01*
X94632902Y-31912951D01*
X94990045Y-30412951D01*
X95561474Y-31912951D02*
X95561474Y-30912951D01*
X95561474Y-30412951D02*
X95490045Y-30484380D01*
X95561474Y-30555808D01*
X95632902Y-30484380D01*
X95561474Y-30412951D01*
X95561474Y-30555808D01*
X97132902Y-31912951D02*
X96632902Y-31198665D01*
X96275760Y-31912951D02*
X96275760Y-30412951D01*
X96847188Y-30412951D01*
X96990045Y-30484380D01*
X97061474Y-30555808D01*
X97132902Y-30698665D01*
X97132902Y-30912951D01*
X97061474Y-31055808D01*
X96990045Y-31127237D01*
X96847188Y-31198665D01*
X96275760Y-31198665D01*
X97990045Y-31912951D02*
X97847188Y-31841522D01*
X97775760Y-31770094D01*
X97704331Y-31627237D01*
X97704331Y-31198665D01*
X97775760Y-31055808D01*
X97847188Y-30984380D01*
X97990045Y-30912951D01*
X98204331Y-30912951D01*
X98347188Y-30984380D01*
X98418617Y-31055808D01*
X98490045Y-31198665D01*
X98490045Y-31627237D01*
X98418617Y-31770094D01*
X98347188Y-31841522D01*
X98204331Y-31912951D01*
X97990045Y-31912951D01*
X99775760Y-31841522D02*
X99632902Y-31912951D01*
X99347188Y-31912951D01*
X99204331Y-31841522D01*
X99132902Y-31770094D01*
X99061474Y-31627237D01*
X99061474Y-31198665D01*
X99132902Y-31055808D01*
X99204331Y-30984380D01*
X99347188Y-30912951D01*
X99632902Y-30912951D01*
X99775760Y-30984380D01*
X100275760Y-32412951D02*
X100632902Y-32412951D01*
X100632902Y-30270094D01*
X100275760Y-30270094D01*
X51475760Y-32412951D02*
X51118617Y-32412951D01*
X51118617Y-30270094D01*
X51475760Y-30270094D01*
X51904331Y-30412951D02*
X52261474Y-31912951D01*
X52547188Y-30841522D01*
X52832902Y-31912951D01*
X53190045Y-30412951D01*
X53761474Y-31912951D02*
X53761474Y-30912951D01*
X53761474Y-30412951D02*
X53690045Y-30484380D01*
X53761474Y-30555808D01*
X53832902Y-30484380D01*
X53761474Y-30412951D01*
X53761474Y-30555808D01*
X55332902Y-31912951D02*
X54832902Y-31198665D01*
X54475760Y-31912951D02*
X54475760Y-30412951D01*
X55047188Y-30412951D01*
X55190045Y-30484380D01*
X55261474Y-30555808D01*
X55332902Y-30698665D01*
X55332902Y-30912951D01*
X55261474Y-31055808D01*
X55190045Y-31127237D01*
X55047188Y-31198665D01*
X54475760Y-31198665D01*
X56190045Y-31912951D02*
X56047188Y-31841522D01*
X55975760Y-31770094D01*
X55904331Y-31627237D01*
X55904331Y-31198665D01*
X55975760Y-31055808D01*
X56047188Y-30984380D01*
X56190045Y-30912951D01*
X56404331Y-30912951D01*
X56547188Y-30984380D01*
X56618617Y-31055808D01*
X56690045Y-31198665D01*
X56690045Y-31627237D01*
X56618617Y-31770094D01*
X56547188Y-31841522D01*
X56404331Y-31912951D01*
X56190045Y-31912951D01*
X57975760Y-31841522D02*
X57832902Y-31912951D01*
X57547188Y-31912951D01*
X57404331Y-31841522D01*
X57332902Y-31770094D01*
X57261474Y-31627237D01*
X57261474Y-31198665D01*
X57332902Y-31055808D01*
X57404331Y-30984380D01*
X57547188Y-30912951D01*
X57832902Y-30912951D01*
X57975760Y-30984380D01*
X58475760Y-32412951D02*
X58832902Y-32412951D01*
X58832902Y-30270094D01*
X58475760Y-30270094D01*
D11*
G04 #@! TO.C,C5*
X110332300Y-42197540D02*
X110332300Y-42897540D01*
X109132300Y-42897540D02*
X109132300Y-42197540D01*
G04 #@! TO.C,J6*
X109076000Y-49138000D02*
X109076000Y-50468000D01*
X107746000Y-49138000D02*
X109076000Y-49138000D01*
X106476000Y-49138000D02*
X106476000Y-51798000D01*
X106476000Y-51798000D02*
X78476000Y-51798000D01*
X106476000Y-49138000D02*
X78476000Y-49138000D01*
X78476000Y-49138000D02*
X78476000Y-51798000D01*
G04 #@! TO.C,C3*
X112714000Y-35315200D02*
X112014000Y-35315200D01*
X112014000Y-34115200D02*
X112714000Y-34115200D01*
G04 #@! TO.C,C8*
X85826380Y-58793900D02*
X85826380Y-59493900D01*
X84626380Y-59493900D02*
X84626380Y-58793900D01*
G04 #@! TO.C,C9*
X88037640Y-57496000D02*
X87337640Y-57496000D01*
X87337640Y-56296000D02*
X88037640Y-56296000D01*
G04 #@! TO.C,R8*
X78574760Y-43294680D02*
X78574760Y-42294680D01*
X79934760Y-42294680D02*
X79934760Y-43294680D01*
G04 #@! TO.C,C11*
X83181120Y-57992760D02*
X83181120Y-57292760D01*
X84381120Y-57292760D02*
X84381120Y-57992760D01*
G04 #@! TO.C,U2*
X87436000Y-30493000D02*
X88766000Y-30493000D01*
X87436000Y-31823000D02*
X87436000Y-30493000D01*
X87436000Y-33093000D02*
X90096000Y-33093000D01*
X90096000Y-33093000D02*
X90096000Y-48393000D01*
X87436000Y-33093000D02*
X87436000Y-48393000D01*
X87436000Y-48393000D02*
X90096000Y-48393000D01*
G04 #@! TO.C,C10*
X92383500Y-60674300D02*
X91683500Y-60674300D01*
X91683500Y-59474300D02*
X92383500Y-59474300D01*
D12*
G04 #@! TO.C,D1*
X112894000Y-36415200D02*
X112894000Y-36015200D01*
D11*
G04 #@! TO.C,J7*
X78476000Y-54338000D02*
X78476000Y-53008000D01*
X79806000Y-54338000D02*
X78476000Y-54338000D01*
X81076000Y-54338000D02*
X81076000Y-51678000D01*
X81076000Y-51678000D02*
X88756000Y-51678000D01*
X81076000Y-54338000D02*
X88756000Y-54338000D01*
X88756000Y-54338000D02*
X88756000Y-51678000D01*
G04 #@! TO.C,R12*
X105045280Y-72443720D02*
X105045280Y-73443720D01*
X103685280Y-73443720D02*
X103685280Y-72443720D01*
G04 #@! TO.C,C1*
X86969300Y-70875600D02*
X86969300Y-71575600D01*
X85769300Y-71575600D02*
X85769300Y-70875600D01*
G04 #@! TO.C,R4*
X109091840Y-66735240D02*
X108091840Y-66735240D01*
X108091840Y-65375240D02*
X109091840Y-65375240D01*
G04 #@! TO.C,C2*
X94144800Y-67724600D02*
X94144800Y-68424600D01*
X92944800Y-68424600D02*
X92944800Y-67724600D01*
D13*
G04 #@! TO.C,L2*
X83164660Y-32058680D02*
X79164660Y-32058680D01*
X83164660Y-36258680D02*
X79164660Y-36258680D01*
D11*
G04 #@! TO.C,C13*
X76396360Y-41343780D02*
X77096360Y-41343780D01*
X77096360Y-42543780D02*
X76396360Y-42543780D01*
G04 #@! TO.C,R3*
X79888300Y-63838100D02*
X80888300Y-63838100D01*
X80888300Y-65198100D02*
X79888300Y-65198100D01*
G04 #@! TO.C,D3*
X75714760Y-38262880D02*
X75714760Y-34362880D01*
X77714760Y-38262880D02*
X77714760Y-34362880D01*
X75714760Y-38262880D02*
X77714760Y-38262880D01*
G04 #@! TO.C,R6*
X77445640Y-30800420D02*
X77445640Y-31800420D01*
X76085640Y-31800420D02*
X76085640Y-30800420D01*
G04 #@! TO.C,J9*
X109076000Y-84148000D02*
X109076000Y-85478000D01*
X107746000Y-84148000D02*
X109076000Y-84148000D01*
X109076000Y-86748000D02*
X109076000Y-89348000D01*
X106476000Y-86748000D02*
X109076000Y-86748000D01*
X106476000Y-84148000D02*
X106476000Y-86748000D01*
X109076000Y-89348000D02*
X78476000Y-89348000D01*
X106476000Y-84148000D02*
X78476000Y-84148000D01*
X78476000Y-84148000D02*
X78476000Y-89348000D01*
G04 #@! TO.C,C6*
X91168000Y-70758000D02*
X91168000Y-71458000D01*
X89968000Y-71458000D02*
X89968000Y-70758000D01*
G04 #@! TO.C,C7*
X108941840Y-63386260D02*
X108241840Y-63386260D01*
X108241840Y-62186260D02*
X108941840Y-62186260D01*
G04 #@! TO.C,R9*
X98135300Y-38019100D02*
X98135300Y-37019100D01*
X99495300Y-37019100D02*
X99495300Y-38019100D01*
D13*
G04 #@! TO.C,U3*
X89426800Y-62356600D02*
X88876800Y-62356600D01*
X89426800Y-68706600D02*
X88876800Y-68706600D01*
X83076800Y-68706600D02*
X83626800Y-68706600D01*
X83076800Y-62356600D02*
X83626800Y-62356600D01*
X83076800Y-68706600D02*
X83076800Y-68156600D01*
X89426800Y-68706600D02*
X89426800Y-68156600D01*
X89426800Y-62356600D02*
X89426800Y-62906600D01*
X83076800Y-62356600D02*
X83076800Y-62906600D01*
D11*
G04 #@! TO.C,J8*
X87137960Y-30453780D02*
X84477960Y-30453780D01*
X87137960Y-35593780D02*
X87137960Y-30453780D01*
X84477960Y-35593780D02*
X84477960Y-30453780D01*
X87137960Y-35593780D02*
X84477960Y-35593780D01*
X87137960Y-36863780D02*
X87137960Y-38193780D01*
X87137960Y-38193780D02*
X85807960Y-38193780D01*
G04 #@! TO.C,R5*
X87242580Y-58202940D02*
X88442580Y-58202940D01*
X88442580Y-59962940D02*
X87242580Y-59962940D01*
G04 #@! TO.C,D2*
X78178360Y-29998900D02*
X80278360Y-29998900D01*
X78178360Y-31138900D02*
X80278360Y-31138900D01*
X78178360Y-29998900D02*
X78178360Y-31138900D01*
G04 #@! TO.C,R10*
X84878020Y-44045420D02*
X83878020Y-44045420D01*
X83878020Y-42685420D02*
X84878020Y-42685420D01*
G04 #@! TO.C,C14*
X98177200Y-40739300D02*
X98177200Y-40039300D01*
X99377200Y-40039300D02*
X99377200Y-40739300D01*
G04 #@! TO.C,R2*
X87721300Y-71547100D02*
X87721300Y-70547100D01*
X89081300Y-70547100D02*
X89081300Y-71547100D01*
D13*
G04 #@! TO.C,L1*
X78211400Y-60372500D02*
X78211400Y-56372500D01*
X82411400Y-60372500D02*
X82411400Y-56372500D01*
D11*
G04 #@! TO.C,C4*
X90887400Y-63726300D02*
X90887400Y-63026300D01*
X92087400Y-63026300D02*
X92087400Y-63726300D01*
G04 #@! TO.C,R11*
X105696960Y-73456420D02*
X105696960Y-72456420D01*
X107056960Y-72456420D02*
X107056960Y-73456420D01*
G04 #@! TO.C,R1*
X79900300Y-65477600D02*
X80900300Y-65477600D01*
X80900300Y-66837600D02*
X79900300Y-66837600D01*
G04 #@! TO.C,R7*
X77322560Y-40693380D02*
X76322560Y-40693380D01*
X76322560Y-39333380D02*
X77322560Y-39333380D01*
G04 #@! TO.C,C12*
X81670860Y-42711380D02*
X81670860Y-43411380D01*
X80470860Y-43411380D02*
X80470860Y-42711380D01*
G04 #@! TO.C,U5*
X95040200Y-39723500D02*
X97490200Y-39723500D01*
X96840200Y-36503500D02*
X95040200Y-36503500D01*
G04 #@! TO.C,U4*
X81279146Y-37409314D02*
X78829146Y-37409314D01*
X79479146Y-40629314D02*
X81279146Y-40629314D01*
G04 #@! TO.C,J8*
X45337960Y-38193780D02*
X44007960Y-38193780D01*
X45337960Y-36863780D02*
X45337960Y-38193780D01*
X45337960Y-35593780D02*
X42677960Y-35593780D01*
X42677960Y-35593780D02*
X42677960Y-30453780D01*
X45337960Y-35593780D02*
X45337960Y-30453780D01*
X45337960Y-30453780D02*
X42677960Y-30453780D01*
G04 #@! TO.C,U2*
X45636000Y-48393000D02*
X48296000Y-48393000D01*
X45636000Y-33093000D02*
X45636000Y-48393000D01*
X48296000Y-33093000D02*
X48296000Y-48393000D01*
X45636000Y-33093000D02*
X48296000Y-33093000D01*
X45636000Y-31823000D02*
X45636000Y-30493000D01*
X45636000Y-30493000D02*
X46966000Y-30493000D01*
G04 #@! TO.C,C12*
X38670860Y-43411380D02*
X38670860Y-42711380D01*
X39870860Y-42711380D02*
X39870860Y-43411380D01*
G04 #@! TO.C,C1*
X43969300Y-71575600D02*
X43969300Y-70875600D01*
X45169300Y-70875600D02*
X45169300Y-71575600D01*
G04 #@! TO.C,C2*
X51144800Y-68424600D02*
X51144800Y-67724600D01*
X52344800Y-67724600D02*
X52344800Y-68424600D01*
G04 #@! TO.C,C3*
X70214000Y-34115200D02*
X70914000Y-34115200D01*
X70914000Y-35315200D02*
X70214000Y-35315200D01*
G04 #@! TO.C,C4*
X50287400Y-63026300D02*
X50287400Y-63726300D01*
X49087400Y-63726300D02*
X49087400Y-63026300D01*
G04 #@! TO.C,C5*
X67332300Y-42897540D02*
X67332300Y-42197540D01*
X68532300Y-42197540D02*
X68532300Y-42897540D01*
G04 #@! TO.C,C6*
X48168000Y-71458000D02*
X48168000Y-70758000D01*
X49368000Y-70758000D02*
X49368000Y-71458000D01*
G04 #@! TO.C,C7*
X66441840Y-62186260D02*
X67141840Y-62186260D01*
X67141840Y-63386260D02*
X66441840Y-63386260D01*
G04 #@! TO.C,C8*
X42826380Y-59493900D02*
X42826380Y-58793900D01*
X44026380Y-58793900D02*
X44026380Y-59493900D01*
G04 #@! TO.C,C9*
X45537640Y-56296000D02*
X46237640Y-56296000D01*
X46237640Y-57496000D02*
X45537640Y-57496000D01*
G04 #@! TO.C,C10*
X49883500Y-59474300D02*
X50583500Y-59474300D01*
X50583500Y-60674300D02*
X49883500Y-60674300D01*
G04 #@! TO.C,C11*
X42581120Y-57292760D02*
X42581120Y-57992760D01*
X41381120Y-57992760D02*
X41381120Y-57292760D01*
G04 #@! TO.C,C13*
X35296360Y-42543780D02*
X34596360Y-42543780D01*
X34596360Y-41343780D02*
X35296360Y-41343780D01*
G04 #@! TO.C,C14*
X57577200Y-40039300D02*
X57577200Y-40739300D01*
X56377200Y-40739300D02*
X56377200Y-40039300D01*
D12*
G04 #@! TO.C,D1*
X71094000Y-36415200D02*
X71094000Y-36015200D01*
D11*
G04 #@! TO.C,D2*
X36378360Y-29998900D02*
X36378360Y-31138900D01*
X36378360Y-31138900D02*
X38478360Y-31138900D01*
X36378360Y-29998900D02*
X38478360Y-29998900D01*
G04 #@! TO.C,D3*
X33914760Y-38262880D02*
X35914760Y-38262880D01*
X35914760Y-38262880D02*
X35914760Y-34362880D01*
X33914760Y-38262880D02*
X33914760Y-34362880D01*
G04 #@! TO.C,R1*
X39100300Y-66837600D02*
X38100300Y-66837600D01*
X38100300Y-65477600D02*
X39100300Y-65477600D01*
G04 #@! TO.C,R2*
X47281300Y-70547100D02*
X47281300Y-71547100D01*
X45921300Y-71547100D02*
X45921300Y-70547100D01*
G04 #@! TO.C,R3*
X39088300Y-65198100D02*
X38088300Y-65198100D01*
X38088300Y-63838100D02*
X39088300Y-63838100D01*
G04 #@! TO.C,R4*
X66291840Y-65375240D02*
X67291840Y-65375240D01*
X67291840Y-66735240D02*
X66291840Y-66735240D01*
G04 #@! TO.C,R5*
X46642580Y-59962940D02*
X45442580Y-59962940D01*
X45442580Y-58202940D02*
X46642580Y-58202940D01*
G04 #@! TO.C,R6*
X34285640Y-31800420D02*
X34285640Y-30800420D01*
X35645640Y-30800420D02*
X35645640Y-31800420D01*
G04 #@! TO.C,R7*
X34522560Y-39333380D02*
X35522560Y-39333380D01*
X35522560Y-40693380D02*
X34522560Y-40693380D01*
G04 #@! TO.C,R8*
X38134760Y-42294680D02*
X38134760Y-43294680D01*
X36774760Y-43294680D02*
X36774760Y-42294680D01*
G04 #@! TO.C,R9*
X57695300Y-37019100D02*
X57695300Y-38019100D01*
X56335300Y-38019100D02*
X56335300Y-37019100D01*
G04 #@! TO.C,U4*
X37679146Y-40629314D02*
X39479146Y-40629314D01*
X39479146Y-37409314D02*
X37029146Y-37409314D01*
G04 #@! TO.C,U5*
X55040200Y-36503500D02*
X53240200Y-36503500D01*
X53240200Y-39723500D02*
X55690200Y-39723500D01*
G04 #@! TO.C,R10*
X42078020Y-42685420D02*
X43078020Y-42685420D01*
X43078020Y-44045420D02*
X42078020Y-44045420D01*
G04 #@! TO.C,R11*
X65256960Y-72456420D02*
X65256960Y-73456420D01*
X63896960Y-73456420D02*
X63896960Y-72456420D01*
G04 #@! TO.C,R12*
X61885280Y-73443720D02*
X61885280Y-72443720D01*
X63245280Y-72443720D02*
X63245280Y-73443720D01*
G04 #@! TO.C,J6*
X36676000Y-49138000D02*
X36676000Y-51798000D01*
X64676000Y-49138000D02*
X36676000Y-49138000D01*
X64676000Y-51798000D02*
X36676000Y-51798000D01*
X64676000Y-49138000D02*
X64676000Y-51798000D01*
X65946000Y-49138000D02*
X67276000Y-49138000D01*
X67276000Y-49138000D02*
X67276000Y-50468000D01*
G04 #@! TO.C,J7*
X46956000Y-54338000D02*
X46956000Y-51678000D01*
X39276000Y-54338000D02*
X46956000Y-54338000D01*
X39276000Y-51678000D02*
X46956000Y-51678000D01*
X39276000Y-54338000D02*
X39276000Y-51678000D01*
X38006000Y-54338000D02*
X36676000Y-54338000D01*
X36676000Y-54338000D02*
X36676000Y-53008000D01*
G04 #@! TO.C,J9*
X36676000Y-84148000D02*
X36676000Y-89348000D01*
X64676000Y-84148000D02*
X36676000Y-84148000D01*
X67276000Y-89348000D02*
X36676000Y-89348000D01*
X64676000Y-84148000D02*
X64676000Y-86748000D01*
X64676000Y-86748000D02*
X67276000Y-86748000D01*
X67276000Y-86748000D02*
X67276000Y-89348000D01*
X65946000Y-84148000D02*
X67276000Y-84148000D01*
X67276000Y-84148000D02*
X67276000Y-85478000D01*
D13*
G04 #@! TO.C,L1*
X40611400Y-60372500D02*
X40611400Y-56372500D01*
X36411400Y-60372500D02*
X36411400Y-56372500D01*
G04 #@! TO.C,L2*
X41364660Y-36258680D02*
X37364660Y-36258680D01*
X41364660Y-32058680D02*
X37364660Y-32058680D01*
G04 #@! TO.C,U3*
X41276800Y-62356600D02*
X41276800Y-62906600D01*
X47626800Y-62356600D02*
X47626800Y-62906600D01*
X47626800Y-68706600D02*
X47626800Y-68156600D01*
X41276800Y-68706600D02*
X41276800Y-68156600D01*
X41276800Y-62356600D02*
X41826800Y-62356600D01*
X41276800Y-68706600D02*
X41826800Y-68706600D01*
X47626800Y-68706600D02*
X47076800Y-68706600D01*
X47626800Y-62356600D02*
X47076800Y-62356600D01*
G04 #@! TO.C,FID3*
X107556331Y-35749288D02*
X107556331Y-36082621D01*
X108080140Y-36082621D02*
X107080140Y-36082621D01*
X107080140Y-35606431D01*
X108080140Y-35225479D02*
X107080140Y-35225479D01*
X108080140Y-34749288D02*
X107080140Y-34749288D01*
X107080140Y-34511193D01*
X107127760Y-34368336D01*
X107222998Y-34273098D01*
X107318236Y-34225479D01*
X107508712Y-34177860D01*
X107651569Y-34177860D01*
X107842045Y-34225479D01*
X107937283Y-34273098D01*
X108032521Y-34368336D01*
X108080140Y-34511193D01*
X108080140Y-34749288D01*
X107080140Y-33844526D02*
X107080140Y-33225479D01*
X107461093Y-33558812D01*
X107461093Y-33415955D01*
X107508712Y-33320717D01*
X107556331Y-33273098D01*
X107651569Y-33225479D01*
X107889664Y-33225479D01*
X107984902Y-33273098D01*
X108032521Y-33320717D01*
X108080140Y-33415955D01*
X108080140Y-33701669D01*
X108032521Y-33796907D01*
X107984902Y-33844526D01*
G04 #@! TO.C,C5*
X108197142Y-42838666D02*
X108244761Y-42886285D01*
X108292380Y-43029142D01*
X108292380Y-43124380D01*
X108244761Y-43267238D01*
X108149523Y-43362476D01*
X108054285Y-43410095D01*
X107863809Y-43457714D01*
X107720952Y-43457714D01*
X107530476Y-43410095D01*
X107435238Y-43362476D01*
X107340000Y-43267238D01*
X107292380Y-43124380D01*
X107292380Y-43029142D01*
X107340000Y-42886285D01*
X107387619Y-42838666D01*
X107292380Y-41933904D02*
X107292380Y-42410095D01*
X107768571Y-42457714D01*
X107720952Y-42410095D01*
X107673333Y-42314857D01*
X107673333Y-42076761D01*
X107720952Y-41981523D01*
X107768571Y-41933904D01*
X107863809Y-41886285D01*
X108101904Y-41886285D01*
X108197142Y-41933904D01*
X108244761Y-41981523D01*
X108292380Y-42076761D01*
X108292380Y-42314857D01*
X108244761Y-42410095D01*
X108197142Y-42457714D01*
G04 #@! TO.C,J6*
X104819346Y-52695860D02*
X104819346Y-53410146D01*
X104771727Y-53553003D01*
X104676489Y-53648241D01*
X104533632Y-53695860D01*
X104438394Y-53695860D01*
X105724108Y-52695860D02*
X105533632Y-52695860D01*
X105438394Y-52743480D01*
X105390775Y-52791099D01*
X105295537Y-52933956D01*
X105247918Y-53124432D01*
X105247918Y-53505384D01*
X105295537Y-53600622D01*
X105343156Y-53648241D01*
X105438394Y-53695860D01*
X105628870Y-53695860D01*
X105724108Y-53648241D01*
X105771727Y-53600622D01*
X105819346Y-53505384D01*
X105819346Y-53267289D01*
X105771727Y-53172051D01*
X105724108Y-53124432D01*
X105628870Y-53076813D01*
X105438394Y-53076813D01*
X105343156Y-53124432D01*
X105295537Y-53172051D01*
X105247918Y-53267289D01*
G04 #@! TO.C,C3*
X114599833Y-34993342D02*
X114552214Y-35040961D01*
X114409357Y-35088580D01*
X114314119Y-35088580D01*
X114171261Y-35040961D01*
X114076023Y-34945723D01*
X114028404Y-34850485D01*
X113980785Y-34660009D01*
X113980785Y-34517152D01*
X114028404Y-34326676D01*
X114076023Y-34231438D01*
X114171261Y-34136200D01*
X114314119Y-34088580D01*
X114409357Y-34088580D01*
X114552214Y-34136200D01*
X114599833Y-34183819D01*
X114933166Y-34088580D02*
X115552214Y-34088580D01*
X115218880Y-34469533D01*
X115361738Y-34469533D01*
X115456976Y-34517152D01*
X115504595Y-34564771D01*
X115552214Y-34660009D01*
X115552214Y-34898104D01*
X115504595Y-34993342D01*
X115456976Y-35040961D01*
X115361738Y-35088580D01*
X115076023Y-35088580D01*
X114980785Y-35040961D01*
X114933166Y-34993342D01*
G04 #@! TO.C,C8*
X84321142Y-59602666D02*
X84368761Y-59650285D01*
X84416380Y-59793142D01*
X84416380Y-59888380D01*
X84368761Y-60031238D01*
X84273523Y-60126476D01*
X84178285Y-60174095D01*
X83987809Y-60221714D01*
X83844952Y-60221714D01*
X83654476Y-60174095D01*
X83559238Y-60126476D01*
X83464000Y-60031238D01*
X83416380Y-59888380D01*
X83416380Y-59793142D01*
X83464000Y-59650285D01*
X83511619Y-59602666D01*
X83844952Y-59031238D02*
X83797333Y-59126476D01*
X83749714Y-59174095D01*
X83654476Y-59221714D01*
X83606857Y-59221714D01*
X83511619Y-59174095D01*
X83464000Y-59126476D01*
X83416380Y-59031238D01*
X83416380Y-58840761D01*
X83464000Y-58745523D01*
X83511619Y-58697904D01*
X83606857Y-58650285D01*
X83654476Y-58650285D01*
X83749714Y-58697904D01*
X83797333Y-58745523D01*
X83844952Y-58840761D01*
X83844952Y-59031238D01*
X83892571Y-59126476D01*
X83940190Y-59174095D01*
X84035428Y-59221714D01*
X84225904Y-59221714D01*
X84321142Y-59174095D01*
X84368761Y-59126476D01*
X84416380Y-59031238D01*
X84416380Y-58840761D01*
X84368761Y-58745523D01*
X84321142Y-58697904D01*
X84225904Y-58650285D01*
X84035428Y-58650285D01*
X83940190Y-58697904D01*
X83892571Y-58745523D01*
X83844952Y-58840761D01*
G04 #@! TO.C,TP14*
X112009160Y-87287835D02*
X112009160Y-86716406D01*
X113009160Y-87002120D02*
X112009160Y-87002120D01*
X113009160Y-86383073D02*
X112009160Y-86383073D01*
X112009160Y-86002120D01*
X112056780Y-85906882D01*
X112104399Y-85859263D01*
X112199637Y-85811644D01*
X112342494Y-85811644D01*
X112437732Y-85859263D01*
X112485351Y-85906882D01*
X112532970Y-86002120D01*
X112532970Y-86383073D01*
X113009160Y-84859263D02*
X113009160Y-85430692D01*
X113009160Y-85144978D02*
X112009160Y-85144978D01*
X112152018Y-85240216D01*
X112247256Y-85335454D01*
X112294875Y-85430692D01*
X112342494Y-84002120D02*
X113009160Y-84002120D01*
X111961541Y-84240216D02*
X112675827Y-84478311D01*
X112675827Y-83859263D01*
G04 #@! TO.C,C9*
X89639333Y-57253142D02*
X89591714Y-57300761D01*
X89448857Y-57348380D01*
X89353619Y-57348380D01*
X89210761Y-57300761D01*
X89115523Y-57205523D01*
X89067904Y-57110285D01*
X89020285Y-56919809D01*
X89020285Y-56776952D01*
X89067904Y-56586476D01*
X89115523Y-56491238D01*
X89210761Y-56396000D01*
X89353619Y-56348380D01*
X89448857Y-56348380D01*
X89591714Y-56396000D01*
X89639333Y-56443619D01*
X90115523Y-57348380D02*
X90306000Y-57348380D01*
X90401238Y-57300761D01*
X90448857Y-57253142D01*
X90544095Y-57110285D01*
X90591714Y-56919809D01*
X90591714Y-56538857D01*
X90544095Y-56443619D01*
X90496476Y-56396000D01*
X90401238Y-56348380D01*
X90210761Y-56348380D01*
X90115523Y-56396000D01*
X90067904Y-56443619D01*
X90020285Y-56538857D01*
X90020285Y-56776952D01*
X90067904Y-56872190D01*
X90115523Y-56919809D01*
X90210761Y-56967428D01*
X90401238Y-56967428D01*
X90496476Y-56919809D01*
X90544095Y-56872190D01*
X90591714Y-56776952D01*
G04 #@! TO.C,R8*
X79681740Y-45679146D02*
X79205550Y-46012480D01*
X79681740Y-46250575D02*
X78681740Y-46250575D01*
X78681740Y-45869622D01*
X78729360Y-45774384D01*
X78776979Y-45726765D01*
X78872217Y-45679146D01*
X79015074Y-45679146D01*
X79110312Y-45726765D01*
X79157931Y-45774384D01*
X79205550Y-45869622D01*
X79205550Y-46250575D01*
X79110312Y-45107718D02*
X79062693Y-45202956D01*
X79015074Y-45250575D01*
X78919836Y-45298194D01*
X78872217Y-45298194D01*
X78776979Y-45250575D01*
X78729360Y-45202956D01*
X78681740Y-45107718D01*
X78681740Y-44917241D01*
X78729360Y-44822003D01*
X78776979Y-44774384D01*
X78872217Y-44726765D01*
X78919836Y-44726765D01*
X79015074Y-44774384D01*
X79062693Y-44822003D01*
X79110312Y-44917241D01*
X79110312Y-45107718D01*
X79157931Y-45202956D01*
X79205550Y-45250575D01*
X79300788Y-45298194D01*
X79491264Y-45298194D01*
X79586502Y-45250575D01*
X79634121Y-45202956D01*
X79681740Y-45107718D01*
X79681740Y-44917241D01*
X79634121Y-44822003D01*
X79586502Y-44774384D01*
X79491264Y-44726765D01*
X79300788Y-44726765D01*
X79205550Y-44774384D01*
X79157931Y-44822003D01*
X79110312Y-44917241D01*
G04 #@! TO.C,C11*
X84876857Y-55491142D02*
X84829238Y-55443523D01*
X84781619Y-55300666D01*
X84781619Y-55205428D01*
X84829238Y-55062571D01*
X84924476Y-54967333D01*
X85019714Y-54919714D01*
X85210190Y-54872095D01*
X85353047Y-54872095D01*
X85543523Y-54919714D01*
X85638761Y-54967333D01*
X85734000Y-55062571D01*
X85781619Y-55205428D01*
X85781619Y-55300666D01*
X85734000Y-55443523D01*
X85686380Y-55491142D01*
X84781619Y-56443523D02*
X84781619Y-55872095D01*
X84781619Y-56157809D02*
X85781619Y-56157809D01*
X85638761Y-56062571D01*
X85543523Y-55967333D01*
X85495904Y-55872095D01*
X84781619Y-57395904D02*
X84781619Y-56824476D01*
X84781619Y-57110190D02*
X85781619Y-57110190D01*
X85638761Y-57014952D01*
X85543523Y-56919714D01*
X85495904Y-56824476D01*
G04 #@! TO.C,U2*
X90314095Y-36790380D02*
X90314095Y-37599904D01*
X90361714Y-37695142D01*
X90409333Y-37742761D01*
X90504571Y-37790380D01*
X90695047Y-37790380D01*
X90790285Y-37742761D01*
X90837904Y-37695142D01*
X90885523Y-37599904D01*
X90885523Y-36790380D01*
X91314095Y-36885619D02*
X91361714Y-36838000D01*
X91456952Y-36790380D01*
X91695047Y-36790380D01*
X91790285Y-36838000D01*
X91837904Y-36885619D01*
X91885523Y-36980857D01*
X91885523Y-37076095D01*
X91837904Y-37218952D01*
X91266476Y-37790380D01*
X91885523Y-37790380D01*
G04 #@! TO.C,C10*
X94756142Y-60431442D02*
X94708523Y-60479061D01*
X94565666Y-60526680D01*
X94470428Y-60526680D01*
X94327571Y-60479061D01*
X94232333Y-60383823D01*
X94184714Y-60288585D01*
X94137095Y-60098109D01*
X94137095Y-59955252D01*
X94184714Y-59764776D01*
X94232333Y-59669538D01*
X94327571Y-59574300D01*
X94470428Y-59526680D01*
X94565666Y-59526680D01*
X94708523Y-59574300D01*
X94756142Y-59621919D01*
X95708523Y-60526680D02*
X95137095Y-60526680D01*
X95422809Y-60526680D02*
X95422809Y-59526680D01*
X95327571Y-59669538D01*
X95232333Y-59764776D01*
X95137095Y-59812395D01*
X96327571Y-59526680D02*
X96422809Y-59526680D01*
X96518047Y-59574300D01*
X96565666Y-59621919D01*
X96613285Y-59717157D01*
X96660904Y-59907633D01*
X96660904Y-60145728D01*
X96613285Y-60336204D01*
X96565666Y-60431442D01*
X96518047Y-60479061D01*
X96422809Y-60526680D01*
X96327571Y-60526680D01*
X96232333Y-60479061D01*
X96184714Y-60431442D01*
X96137095Y-60336204D01*
X96089476Y-60145728D01*
X96089476Y-59907633D01*
X96137095Y-59717157D01*
X96184714Y-59621919D01*
X96232333Y-59574300D01*
X96327571Y-59526680D01*
G04 #@! TO.C,D1*
D14*
X113444952Y-36466390D02*
X113444952Y-35966390D01*
X113564000Y-35966390D01*
X113635428Y-35990200D01*
X113683047Y-36037819D01*
X113706857Y-36085438D01*
X113730666Y-36180676D01*
X113730666Y-36252104D01*
X113706857Y-36347342D01*
X113683047Y-36394961D01*
X113635428Y-36442580D01*
X113564000Y-36466390D01*
X113444952Y-36466390D01*
X114206857Y-36466390D02*
X113921142Y-36466390D01*
X114064000Y-36466390D02*
X114064000Y-35966390D01*
X114016380Y-36037819D01*
X113968761Y-36085438D01*
X113921142Y-36109247D01*
G04 #@! TO.C,J7*
D13*
X76928380Y-53341333D02*
X77642666Y-53341333D01*
X77785523Y-53388952D01*
X77880761Y-53484190D01*
X77928380Y-53627047D01*
X77928380Y-53722285D01*
X76928380Y-52960380D02*
X76928380Y-52293714D01*
X77928380Y-52722285D01*
G04 #@! TO.C,R12*
X104817660Y-76438997D02*
X104341470Y-76772330D01*
X104817660Y-77010425D02*
X103817660Y-77010425D01*
X103817660Y-76629473D01*
X103865280Y-76534235D01*
X103912899Y-76486616D01*
X104008137Y-76438997D01*
X104150994Y-76438997D01*
X104246232Y-76486616D01*
X104293851Y-76534235D01*
X104341470Y-76629473D01*
X104341470Y-77010425D01*
X104817660Y-75486616D02*
X104817660Y-76058044D01*
X104817660Y-75772330D02*
X103817660Y-75772330D01*
X103960518Y-75867568D01*
X104055756Y-75962806D01*
X104103375Y-76058044D01*
X103912899Y-75105663D02*
X103865280Y-75058044D01*
X103817660Y-74962806D01*
X103817660Y-74724711D01*
X103865280Y-74629473D01*
X103912899Y-74581854D01*
X104008137Y-74534235D01*
X104103375Y-74534235D01*
X104246232Y-74581854D01*
X104817660Y-75153282D01*
X104817660Y-74534235D01*
G04 #@! TO.C,C1*
X85197442Y-71952146D02*
X85245061Y-71999765D01*
X85292680Y-72142622D01*
X85292680Y-72237860D01*
X85245061Y-72380718D01*
X85149823Y-72475956D01*
X85054585Y-72523575D01*
X84864109Y-72571194D01*
X84721252Y-72571194D01*
X84530776Y-72523575D01*
X84435538Y-72475956D01*
X84340300Y-72380718D01*
X84292680Y-72237860D01*
X84292680Y-72142622D01*
X84340300Y-71999765D01*
X84387919Y-71952146D01*
X85292680Y-70999765D02*
X85292680Y-71571194D01*
X85292680Y-71285480D02*
X84292680Y-71285480D01*
X84435538Y-71380718D01*
X84530776Y-71475956D01*
X84578395Y-71571194D01*
G04 #@! TO.C,R4*
X108425173Y-67957620D02*
X108091840Y-67481430D01*
X107853744Y-67957620D02*
X107853744Y-66957620D01*
X108234697Y-66957620D01*
X108329935Y-67005240D01*
X108377554Y-67052859D01*
X108425173Y-67148097D01*
X108425173Y-67290954D01*
X108377554Y-67386192D01*
X108329935Y-67433811D01*
X108234697Y-67481430D01*
X107853744Y-67481430D01*
X109282316Y-67290954D02*
X109282316Y-67957620D01*
X109044220Y-66910001D02*
X108806125Y-67624287D01*
X109425173Y-67624287D01*
G04 #@! TO.C,C2*
X95603822Y-69114966D02*
X95651441Y-69162585D01*
X95699060Y-69305442D01*
X95699060Y-69400680D01*
X95651441Y-69543538D01*
X95556203Y-69638776D01*
X95460965Y-69686395D01*
X95270489Y-69734014D01*
X95127632Y-69734014D01*
X94937156Y-69686395D01*
X94841918Y-69638776D01*
X94746680Y-69543538D01*
X94699060Y-69400680D01*
X94699060Y-69305442D01*
X94746680Y-69162585D01*
X94794299Y-69114966D01*
X94794299Y-68734014D02*
X94746680Y-68686395D01*
X94699060Y-68591157D01*
X94699060Y-68353061D01*
X94746680Y-68257823D01*
X94794299Y-68210204D01*
X94889537Y-68162585D01*
X94984775Y-68162585D01*
X95127632Y-68210204D01*
X95699060Y-68781633D01*
X95699060Y-68162585D01*
G04 #@! TO.C,L2*
X80997993Y-37611060D02*
X80521802Y-37611060D01*
X80521802Y-36611060D01*
X81283707Y-36706299D02*
X81331326Y-36658680D01*
X81426564Y-36611060D01*
X81664660Y-36611060D01*
X81759898Y-36658680D01*
X81807517Y-36706299D01*
X81855136Y-36801537D01*
X81855136Y-36896775D01*
X81807517Y-37039632D01*
X81236088Y-37611060D01*
X81855136Y-37611060D01*
G04 #@! TO.C,C13*
X75976502Y-43736022D02*
X75928883Y-43783641D01*
X75786026Y-43831260D01*
X75690788Y-43831260D01*
X75547931Y-43783641D01*
X75452693Y-43688403D01*
X75405074Y-43593165D01*
X75357455Y-43402689D01*
X75357455Y-43259832D01*
X75405074Y-43069356D01*
X75452693Y-42974118D01*
X75547931Y-42878880D01*
X75690788Y-42831260D01*
X75786026Y-42831260D01*
X75928883Y-42878880D01*
X75976502Y-42926499D01*
X76928883Y-43831260D02*
X76357455Y-43831260D01*
X76643169Y-43831260D02*
X76643169Y-42831260D01*
X76547931Y-42974118D01*
X76452693Y-43069356D01*
X76357455Y-43116975D01*
X77262217Y-42831260D02*
X77881264Y-42831260D01*
X77547931Y-43212213D01*
X77690788Y-43212213D01*
X77786026Y-43259832D01*
X77833645Y-43307451D01*
X77881264Y-43402689D01*
X77881264Y-43640784D01*
X77833645Y-43736022D01*
X77786026Y-43783641D01*
X77690788Y-43831260D01*
X77405074Y-43831260D01*
X77309836Y-43783641D01*
X77262217Y-43736022D01*
G04 #@! TO.C,R3*
X80221633Y-63520480D02*
X79888300Y-63044290D01*
X79650204Y-63520480D02*
X79650204Y-62520480D01*
X80031157Y-62520480D01*
X80126395Y-62568100D01*
X80174014Y-62615719D01*
X80221633Y-62710957D01*
X80221633Y-62853814D01*
X80174014Y-62949052D01*
X80126395Y-62996671D01*
X80031157Y-63044290D01*
X79650204Y-63044290D01*
X80554966Y-62520480D02*
X81174014Y-62520480D01*
X80840680Y-62901433D01*
X80983538Y-62901433D01*
X81078776Y-62949052D01*
X81126395Y-62996671D01*
X81174014Y-63091909D01*
X81174014Y-63330004D01*
X81126395Y-63425242D01*
X81078776Y-63472861D01*
X80983538Y-63520480D01*
X80697823Y-63520480D01*
X80602585Y-63472861D01*
X80554966Y-63425242D01*
G04 #@! TO.C,D3*
X76588100Y-36717195D02*
X75588100Y-36717195D01*
X75588100Y-36479100D01*
X75635720Y-36336242D01*
X75730958Y-36241004D01*
X75826196Y-36193385D01*
X76016672Y-36145766D01*
X76159529Y-36145766D01*
X76350005Y-36193385D01*
X76445243Y-36241004D01*
X76540481Y-36336242D01*
X76588100Y-36479100D01*
X76588100Y-36717195D01*
X75588100Y-35812433D02*
X75588100Y-35193385D01*
X75969053Y-35526719D01*
X75969053Y-35383861D01*
X76016672Y-35288623D01*
X76064291Y-35241004D01*
X76159529Y-35193385D01*
X76397624Y-35193385D01*
X76492862Y-35241004D01*
X76540481Y-35288623D01*
X76588100Y-35383861D01*
X76588100Y-35669576D01*
X76540481Y-35764814D01*
X76492862Y-35812433D01*
G04 #@! TO.C,R6*
X76478880Y-31406126D02*
X76002690Y-31739460D01*
X76478880Y-31977555D02*
X75478880Y-31977555D01*
X75478880Y-31596602D01*
X75526500Y-31501364D01*
X75574119Y-31453745D01*
X75669357Y-31406126D01*
X75812214Y-31406126D01*
X75907452Y-31453745D01*
X75955071Y-31501364D01*
X76002690Y-31596602D01*
X76002690Y-31977555D01*
X75478880Y-30548983D02*
X75478880Y-30739460D01*
X75526500Y-30834698D01*
X75574119Y-30882317D01*
X75716976Y-30977555D01*
X75907452Y-31025174D01*
X76288404Y-31025174D01*
X76383642Y-30977555D01*
X76431261Y-30929936D01*
X76478880Y-30834698D01*
X76478880Y-30644221D01*
X76431261Y-30548983D01*
X76383642Y-30501364D01*
X76288404Y-30453745D01*
X76050309Y-30453745D01*
X75955071Y-30501364D01*
X75907452Y-30548983D01*
X75859833Y-30644221D01*
X75859833Y-30834698D01*
X75907452Y-30929936D01*
X75955071Y-30977555D01*
X76050309Y-31025174D01*
G04 #@! TO.C,J9*
X107466026Y-82314800D02*
X107466026Y-83029086D01*
X107418407Y-83171943D01*
X107323169Y-83267181D01*
X107180312Y-83314800D01*
X107085074Y-83314800D01*
X107989836Y-83314800D02*
X108180312Y-83314800D01*
X108275550Y-83267181D01*
X108323169Y-83219562D01*
X108418407Y-83076705D01*
X108466026Y-82886229D01*
X108466026Y-82505277D01*
X108418407Y-82410039D01*
X108370788Y-82362420D01*
X108275550Y-82314800D01*
X108085074Y-82314800D01*
X107989836Y-82362420D01*
X107942217Y-82410039D01*
X107894598Y-82505277D01*
X107894598Y-82743372D01*
X107942217Y-82838610D01*
X107989836Y-82886229D01*
X108085074Y-82933848D01*
X108275550Y-82933848D01*
X108370788Y-82886229D01*
X108418407Y-82838610D01*
X108466026Y-82743372D01*
G04 #@! TO.C,C6*
X92425142Y-71274666D02*
X92472761Y-71322285D01*
X92520380Y-71465142D01*
X92520380Y-71560380D01*
X92472761Y-71703238D01*
X92377523Y-71798476D01*
X92282285Y-71846095D01*
X92091809Y-71893714D01*
X91948952Y-71893714D01*
X91758476Y-71846095D01*
X91663238Y-71798476D01*
X91568000Y-71703238D01*
X91520380Y-71560380D01*
X91520380Y-71465142D01*
X91568000Y-71322285D01*
X91615619Y-71274666D01*
X91520380Y-70417523D02*
X91520380Y-70608000D01*
X91568000Y-70703238D01*
X91615619Y-70750857D01*
X91758476Y-70846095D01*
X91948952Y-70893714D01*
X92329904Y-70893714D01*
X92425142Y-70846095D01*
X92472761Y-70798476D01*
X92520380Y-70703238D01*
X92520380Y-70512761D01*
X92472761Y-70417523D01*
X92425142Y-70369904D01*
X92329904Y-70322285D01*
X92091809Y-70322285D01*
X91996571Y-70369904D01*
X91948952Y-70417523D01*
X91901333Y-70512761D01*
X91901333Y-70703238D01*
X91948952Y-70798476D01*
X91996571Y-70846095D01*
X92091809Y-70893714D01*
G04 #@! TO.C,C7*
X111427453Y-63194202D02*
X111379834Y-63241821D01*
X111236977Y-63289440D01*
X111141739Y-63289440D01*
X110998881Y-63241821D01*
X110903643Y-63146583D01*
X110856024Y-63051345D01*
X110808405Y-62860869D01*
X110808405Y-62718012D01*
X110856024Y-62527536D01*
X110903643Y-62432298D01*
X110998881Y-62337060D01*
X111141739Y-62289440D01*
X111236977Y-62289440D01*
X111379834Y-62337060D01*
X111427453Y-62384679D01*
X111760786Y-62289440D02*
X112427453Y-62289440D01*
X111998881Y-63289440D01*
G04 #@! TO.C,R9*
X100740880Y-37622266D02*
X100264690Y-37955600D01*
X100740880Y-38193695D02*
X99740880Y-38193695D01*
X99740880Y-37812742D01*
X99788500Y-37717504D01*
X99836119Y-37669885D01*
X99931357Y-37622266D01*
X100074214Y-37622266D01*
X100169452Y-37669885D01*
X100217071Y-37717504D01*
X100264690Y-37812742D01*
X100264690Y-38193695D01*
X100740880Y-37146076D02*
X100740880Y-36955600D01*
X100693261Y-36860361D01*
X100645642Y-36812742D01*
X100502785Y-36717504D01*
X100312309Y-36669885D01*
X99931357Y-36669885D01*
X99836119Y-36717504D01*
X99788500Y-36765123D01*
X99740880Y-36860361D01*
X99740880Y-37050838D01*
X99788500Y-37146076D01*
X99836119Y-37193695D01*
X99931357Y-37241314D01*
X100169452Y-37241314D01*
X100264690Y-37193695D01*
X100312309Y-37146076D01*
X100359928Y-37050838D01*
X100359928Y-36860361D01*
X100312309Y-36765123D01*
X100264690Y-36717504D01*
X100169452Y-36669885D01*
G04 #@! TO.C,U3*
X81678095Y-69048380D02*
X81678095Y-69857904D01*
X81725714Y-69953142D01*
X81773333Y-70000761D01*
X81868571Y-70048380D01*
X82059047Y-70048380D01*
X82154285Y-70000761D01*
X82201904Y-69953142D01*
X82249523Y-69857904D01*
X82249523Y-69048380D01*
X82630476Y-69048380D02*
X83249523Y-69048380D01*
X82916190Y-69429333D01*
X83059047Y-69429333D01*
X83154285Y-69476952D01*
X83201904Y-69524571D01*
X83249523Y-69619809D01*
X83249523Y-69857904D01*
X83201904Y-69953142D01*
X83154285Y-70000761D01*
X83059047Y-70048380D01*
X82773333Y-70048380D01*
X82678095Y-70000761D01*
X82630476Y-69953142D01*
G04 #@! TO.C,J8*
X85474626Y-38646160D02*
X85474626Y-39360446D01*
X85427007Y-39503303D01*
X85331769Y-39598541D01*
X85188912Y-39646160D01*
X85093674Y-39646160D01*
X86093674Y-39074732D02*
X85998436Y-39027113D01*
X85950817Y-38979494D01*
X85903198Y-38884256D01*
X85903198Y-38836637D01*
X85950817Y-38741399D01*
X85998436Y-38693780D01*
X86093674Y-38646160D01*
X86284150Y-38646160D01*
X86379388Y-38693780D01*
X86427007Y-38741399D01*
X86474626Y-38836637D01*
X86474626Y-38884256D01*
X86427007Y-38979494D01*
X86379388Y-39027113D01*
X86284150Y-39074732D01*
X86093674Y-39074732D01*
X85998436Y-39122351D01*
X85950817Y-39169970D01*
X85903198Y-39265208D01*
X85903198Y-39455684D01*
X85950817Y-39550922D01*
X85998436Y-39598541D01*
X86093674Y-39646160D01*
X86284150Y-39646160D01*
X86379388Y-39598541D01*
X86427007Y-39550922D01*
X86474626Y-39455684D01*
X86474626Y-39265208D01*
X86427007Y-39169970D01*
X86379388Y-39122351D01*
X86284150Y-39074732D01*
G04 #@! TO.C,R5*
X89453993Y-60987440D02*
X89120660Y-60511250D01*
X88882564Y-60987440D02*
X88882564Y-59987440D01*
X89263517Y-59987440D01*
X89358755Y-60035060D01*
X89406374Y-60082679D01*
X89453993Y-60177917D01*
X89453993Y-60320774D01*
X89406374Y-60416012D01*
X89358755Y-60463631D01*
X89263517Y-60511250D01*
X88882564Y-60511250D01*
X90358755Y-59987440D02*
X89882564Y-59987440D01*
X89834945Y-60463631D01*
X89882564Y-60416012D01*
X89977802Y-60368393D01*
X90215898Y-60368393D01*
X90311136Y-60416012D01*
X90358755Y-60463631D01*
X90406374Y-60558869D01*
X90406374Y-60796964D01*
X90358755Y-60892202D01*
X90311136Y-60939821D01*
X90215898Y-60987440D01*
X89977802Y-60987440D01*
X89882564Y-60939821D01*
X89834945Y-60892202D01*
G04 #@! TO.C,TP9*
X112673295Y-74544500D02*
X113244723Y-74544500D01*
X112959009Y-75544500D02*
X112959009Y-74544500D01*
X113578057Y-75544500D02*
X113578057Y-74544500D01*
X113959009Y-74544500D01*
X114054247Y-74592120D01*
X114101866Y-74639739D01*
X114149485Y-74734977D01*
X114149485Y-74877834D01*
X114101866Y-74973072D01*
X114054247Y-75020691D01*
X113959009Y-75068310D01*
X113578057Y-75068310D01*
X114625676Y-75544500D02*
X114816152Y-75544500D01*
X114911390Y-75496881D01*
X114959009Y-75449262D01*
X115054247Y-75306405D01*
X115101866Y-75115929D01*
X115101866Y-74734977D01*
X115054247Y-74639739D01*
X115006628Y-74592120D01*
X114911390Y-74544500D01*
X114720914Y-74544500D01*
X114625676Y-74592120D01*
X114578057Y-74639739D01*
X114530438Y-74734977D01*
X114530438Y-74973072D01*
X114578057Y-75068310D01*
X114625676Y-75115929D01*
X114720914Y-75163548D01*
X114911390Y-75163548D01*
X115006628Y-75115929D01*
X115054247Y-75068310D01*
X115101866Y-74973072D01*
G04 #@! TO.C,FID1*
X87062491Y-43027148D02*
X87062491Y-43360481D01*
X87586300Y-43360481D02*
X86586300Y-43360481D01*
X86586300Y-42884291D01*
X87586300Y-42503339D02*
X86586300Y-42503339D01*
X87586300Y-42027148D02*
X86586300Y-42027148D01*
X86586300Y-41789053D01*
X86633920Y-41646196D01*
X86729158Y-41550958D01*
X86824396Y-41503339D01*
X87014872Y-41455720D01*
X87157729Y-41455720D01*
X87348205Y-41503339D01*
X87443443Y-41550958D01*
X87538681Y-41646196D01*
X87586300Y-41789053D01*
X87586300Y-42027148D01*
X87586300Y-40503339D02*
X87586300Y-41074767D01*
X87586300Y-40789053D02*
X86586300Y-40789053D01*
X86729158Y-40884291D01*
X86824396Y-40979529D01*
X86872015Y-41074767D01*
G04 #@! TO.C,D2*
X81529184Y-31895040D02*
X81529184Y-30895040D01*
X81767280Y-30895040D01*
X81910137Y-30942660D01*
X82005375Y-31037898D01*
X82052994Y-31133136D01*
X82100613Y-31323612D01*
X82100613Y-31466469D01*
X82052994Y-31656945D01*
X82005375Y-31752183D01*
X81910137Y-31847421D01*
X81767280Y-31895040D01*
X81529184Y-31895040D01*
X82481565Y-30990279D02*
X82529184Y-30942660D01*
X82624422Y-30895040D01*
X82862518Y-30895040D01*
X82957756Y-30942660D01*
X83005375Y-30990279D01*
X83052994Y-31085517D01*
X83052994Y-31180755D01*
X83005375Y-31323612D01*
X82433946Y-31895040D01*
X83052994Y-31895040D01*
G04 #@! TO.C,R10*
X83735162Y-45267800D02*
X83401829Y-44791610D01*
X83163734Y-45267800D02*
X83163734Y-44267800D01*
X83544686Y-44267800D01*
X83639924Y-44315420D01*
X83687543Y-44363039D01*
X83735162Y-44458277D01*
X83735162Y-44601134D01*
X83687543Y-44696372D01*
X83639924Y-44743991D01*
X83544686Y-44791610D01*
X83163734Y-44791610D01*
X84687543Y-45267800D02*
X84116115Y-45267800D01*
X84401829Y-45267800D02*
X84401829Y-44267800D01*
X84306591Y-44410658D01*
X84211353Y-44505896D01*
X84116115Y-44553515D01*
X85306591Y-44267800D02*
X85401829Y-44267800D01*
X85497067Y-44315420D01*
X85544686Y-44363039D01*
X85592305Y-44458277D01*
X85639924Y-44648753D01*
X85639924Y-44886848D01*
X85592305Y-45077324D01*
X85544686Y-45172562D01*
X85497067Y-45220181D01*
X85401829Y-45267800D01*
X85306591Y-45267800D01*
X85211353Y-45220181D01*
X85163734Y-45172562D01*
X85116115Y-45077324D01*
X85068496Y-44886848D01*
X85068496Y-44648753D01*
X85116115Y-44458277D01*
X85163734Y-44363039D01*
X85211353Y-44315420D01*
X85306591Y-44267800D01*
G04 #@! TO.C,C14*
X100536950Y-41040667D02*
X100584569Y-41088286D01*
X100632188Y-41231143D01*
X100632188Y-41326381D01*
X100584569Y-41469238D01*
X100489331Y-41564476D01*
X100394093Y-41612095D01*
X100203617Y-41659714D01*
X100060760Y-41659714D01*
X99870284Y-41612095D01*
X99775046Y-41564476D01*
X99679808Y-41469238D01*
X99632188Y-41326381D01*
X99632188Y-41231143D01*
X99679808Y-41088286D01*
X99727427Y-41040667D01*
X100632188Y-40088286D02*
X100632188Y-40659714D01*
X100632188Y-40374000D02*
X99632188Y-40374000D01*
X99775046Y-40469238D01*
X99870284Y-40564476D01*
X99917903Y-40659714D01*
X99965522Y-39231143D02*
X100632188Y-39231143D01*
X99584569Y-39469238D02*
X100298855Y-39707333D01*
X100298855Y-39088286D01*
G04 #@! TO.C,R2*
X88259633Y-73674480D02*
X87926300Y-73198290D01*
X87688204Y-73674480D02*
X87688204Y-72674480D01*
X88069157Y-72674480D01*
X88164395Y-72722100D01*
X88212014Y-72769719D01*
X88259633Y-72864957D01*
X88259633Y-73007814D01*
X88212014Y-73103052D01*
X88164395Y-73150671D01*
X88069157Y-73198290D01*
X87688204Y-73198290D01*
X88640585Y-72769719D02*
X88688204Y-72722100D01*
X88783442Y-72674480D01*
X89021538Y-72674480D01*
X89116776Y-72722100D01*
X89164395Y-72769719D01*
X89212014Y-72864957D01*
X89212014Y-72960195D01*
X89164395Y-73103052D01*
X88592966Y-73674480D01*
X89212014Y-73674480D01*
G04 #@! TO.C,L1*
X77763780Y-58539166D02*
X77763780Y-59015357D01*
X76763780Y-59015357D01*
X77763780Y-57682023D02*
X77763780Y-58253452D01*
X77763780Y-57967738D02*
X76763780Y-57967738D01*
X76906638Y-58062976D01*
X77001876Y-58158214D01*
X77049495Y-58253452D01*
G04 #@! TO.C,C4*
X93653102Y-63438066D02*
X93700721Y-63485685D01*
X93748340Y-63628542D01*
X93748340Y-63723780D01*
X93700721Y-63866638D01*
X93605483Y-63961876D01*
X93510245Y-64009495D01*
X93319769Y-64057114D01*
X93176912Y-64057114D01*
X92986436Y-64009495D01*
X92891198Y-63961876D01*
X92795960Y-63866638D01*
X92748340Y-63723780D01*
X92748340Y-63628542D01*
X92795960Y-63485685D01*
X92843579Y-63438066D01*
X93081674Y-62580923D02*
X93748340Y-62580923D01*
X92700721Y-62819019D02*
X93415007Y-63057114D01*
X93415007Y-62438066D01*
G04 #@! TO.C,R11*
X106829340Y-70843377D02*
X106353150Y-71176710D01*
X106829340Y-71414805D02*
X105829340Y-71414805D01*
X105829340Y-71033853D01*
X105876960Y-70938615D01*
X105924579Y-70890996D01*
X106019817Y-70843377D01*
X106162674Y-70843377D01*
X106257912Y-70890996D01*
X106305531Y-70938615D01*
X106353150Y-71033853D01*
X106353150Y-71414805D01*
X106829340Y-69890996D02*
X106829340Y-70462424D01*
X106829340Y-70176710D02*
X105829340Y-70176710D01*
X105972198Y-70271948D01*
X106067436Y-70367186D01*
X106115055Y-70462424D01*
X106829340Y-68938615D02*
X106829340Y-69510043D01*
X106829340Y-69224329D02*
X105829340Y-69224329D01*
X105972198Y-69319567D01*
X106067436Y-69414805D01*
X106115055Y-69510043D01*
G04 #@! TO.C,FID2*
X75610391Y-86293651D02*
X75277058Y-86293651D01*
X75277058Y-86817460D02*
X75277058Y-85817460D01*
X75753248Y-85817460D01*
X76134200Y-86817460D02*
X76134200Y-85817460D01*
X76610391Y-86817460D02*
X76610391Y-85817460D01*
X76848486Y-85817460D01*
X76991343Y-85865080D01*
X77086581Y-85960318D01*
X77134200Y-86055556D01*
X77181820Y-86246032D01*
X77181820Y-86388889D01*
X77134200Y-86579365D01*
X77086581Y-86674603D01*
X76991343Y-86769841D01*
X76848486Y-86817460D01*
X76610391Y-86817460D01*
X77562772Y-85912699D02*
X77610391Y-85865080D01*
X77705629Y-85817460D01*
X77943724Y-85817460D01*
X78038962Y-85865080D01*
X78086581Y-85912699D01*
X78134200Y-86007937D01*
X78134200Y-86103175D01*
X78086581Y-86246032D01*
X77515153Y-86817460D01*
X78134200Y-86817460D01*
G04 #@! TO.C,R1*
X80183633Y-68259980D02*
X79850300Y-67783790D01*
X79612204Y-68259980D02*
X79612204Y-67259980D01*
X79993157Y-67259980D01*
X80088395Y-67307600D01*
X80136014Y-67355219D01*
X80183633Y-67450457D01*
X80183633Y-67593314D01*
X80136014Y-67688552D01*
X80088395Y-67736171D01*
X79993157Y-67783790D01*
X79612204Y-67783790D01*
X81136014Y-68259980D02*
X80564585Y-68259980D01*
X80850300Y-68259980D02*
X80850300Y-67259980D01*
X80755061Y-67402838D01*
X80659823Y-67498076D01*
X80564585Y-67545695D01*
G04 #@! TO.C,R7*
X77112053Y-39329620D02*
X76778720Y-38853430D01*
X76540624Y-39329620D02*
X76540624Y-38329620D01*
X76921577Y-38329620D01*
X77016815Y-38377240D01*
X77064434Y-38424859D01*
X77112053Y-38520097D01*
X77112053Y-38662954D01*
X77064434Y-38758192D01*
X77016815Y-38805811D01*
X76921577Y-38853430D01*
X76540624Y-38853430D01*
X77445386Y-38329620D02*
X78112053Y-38329620D01*
X77683481Y-39329620D01*
G04 #@! TO.C,C12*
X81402602Y-46815737D02*
X81450221Y-46863356D01*
X81497840Y-47006213D01*
X81497840Y-47101451D01*
X81450221Y-47244308D01*
X81354983Y-47339546D01*
X81259745Y-47387165D01*
X81069269Y-47434784D01*
X80926412Y-47434784D01*
X80735936Y-47387165D01*
X80640698Y-47339546D01*
X80545460Y-47244308D01*
X80497840Y-47101451D01*
X80497840Y-47006213D01*
X80545460Y-46863356D01*
X80593079Y-46815737D01*
X81497840Y-45863356D02*
X81497840Y-46434784D01*
X81497840Y-46149070D02*
X80497840Y-46149070D01*
X80640698Y-46244308D01*
X80735936Y-46339546D01*
X80783555Y-46434784D01*
X80593079Y-45482403D02*
X80545460Y-45434784D01*
X80497840Y-45339546D01*
X80497840Y-45101451D01*
X80545460Y-45006213D01*
X80593079Y-44958594D01*
X80688317Y-44910975D01*
X80783555Y-44910975D01*
X80926412Y-44958594D01*
X81497840Y-45530022D01*
X81497840Y-44910975D01*
G04 #@! TO.C,U5*
X95676880Y-41735404D02*
X96486404Y-41735404D01*
X96581642Y-41687785D01*
X96629261Y-41640166D01*
X96676880Y-41544928D01*
X96676880Y-41354452D01*
X96629261Y-41259214D01*
X96581642Y-41211595D01*
X96486404Y-41163976D01*
X95676880Y-41163976D01*
X95676880Y-40211595D02*
X95676880Y-40687785D01*
X96153071Y-40735404D01*
X96105452Y-40687785D01*
X96057833Y-40592547D01*
X96057833Y-40354452D01*
X96105452Y-40259214D01*
X96153071Y-40211595D01*
X96248309Y-40163976D01*
X96486404Y-40163976D01*
X96581642Y-40211595D01*
X96629261Y-40259214D01*
X96676880Y-40354452D01*
X96676880Y-40592547D01*
X96629261Y-40687785D01*
X96581642Y-40735404D01*
G04 #@! TO.C,U4*
X82691555Y-38537900D02*
X82691555Y-39347424D01*
X82739174Y-39442662D01*
X82786793Y-39490281D01*
X82882031Y-39537900D01*
X83072507Y-39537900D01*
X83167745Y-39490281D01*
X83215364Y-39442662D01*
X83262983Y-39347424D01*
X83262983Y-38537900D01*
X84167745Y-38871234D02*
X84167745Y-39537900D01*
X83929650Y-38490281D02*
X83691555Y-39204567D01*
X84310602Y-39204567D01*
G04 #@! TO.C,J8*
X43674626Y-38646160D02*
X43674626Y-39360446D01*
X43627007Y-39503303D01*
X43531769Y-39598541D01*
X43388912Y-39646160D01*
X43293674Y-39646160D01*
X44293674Y-39074732D02*
X44198436Y-39027113D01*
X44150817Y-38979494D01*
X44103198Y-38884256D01*
X44103198Y-38836637D01*
X44150817Y-38741399D01*
X44198436Y-38693780D01*
X44293674Y-38646160D01*
X44484150Y-38646160D01*
X44579388Y-38693780D01*
X44627007Y-38741399D01*
X44674626Y-38836637D01*
X44674626Y-38884256D01*
X44627007Y-38979494D01*
X44579388Y-39027113D01*
X44484150Y-39074732D01*
X44293674Y-39074732D01*
X44198436Y-39122351D01*
X44150817Y-39169970D01*
X44103198Y-39265208D01*
X44103198Y-39455684D01*
X44150817Y-39550922D01*
X44198436Y-39598541D01*
X44293674Y-39646160D01*
X44484150Y-39646160D01*
X44579388Y-39598541D01*
X44627007Y-39550922D01*
X44674626Y-39455684D01*
X44674626Y-39265208D01*
X44627007Y-39169970D01*
X44579388Y-39122351D01*
X44484150Y-39074732D01*
G04 #@! TO.C,U2*
X48514095Y-36790380D02*
X48514095Y-37599904D01*
X48561714Y-37695142D01*
X48609333Y-37742761D01*
X48704571Y-37790380D01*
X48895047Y-37790380D01*
X48990285Y-37742761D01*
X49037904Y-37695142D01*
X49085523Y-37599904D01*
X49085523Y-36790380D01*
X49514095Y-36885619D02*
X49561714Y-36838000D01*
X49656952Y-36790380D01*
X49895047Y-36790380D01*
X49990285Y-36838000D01*
X50037904Y-36885619D01*
X50085523Y-36980857D01*
X50085523Y-37076095D01*
X50037904Y-37218952D01*
X49466476Y-37790380D01*
X50085523Y-37790380D01*
G04 #@! TO.C,C12*
X39602602Y-46815737D02*
X39650221Y-46863356D01*
X39697840Y-47006213D01*
X39697840Y-47101451D01*
X39650221Y-47244308D01*
X39554983Y-47339546D01*
X39459745Y-47387165D01*
X39269269Y-47434784D01*
X39126412Y-47434784D01*
X38935936Y-47387165D01*
X38840698Y-47339546D01*
X38745460Y-47244308D01*
X38697840Y-47101451D01*
X38697840Y-47006213D01*
X38745460Y-46863356D01*
X38793079Y-46815737D01*
X39697840Y-45863356D02*
X39697840Y-46434784D01*
X39697840Y-46149070D02*
X38697840Y-46149070D01*
X38840698Y-46244308D01*
X38935936Y-46339546D01*
X38983555Y-46434784D01*
X38793079Y-45482403D02*
X38745460Y-45434784D01*
X38697840Y-45339546D01*
X38697840Y-45101451D01*
X38745460Y-45006213D01*
X38793079Y-44958594D01*
X38888317Y-44910975D01*
X38983555Y-44910975D01*
X39126412Y-44958594D01*
X39697840Y-45530022D01*
X39697840Y-44910975D01*
G04 #@! TO.C,C1*
X43397442Y-71952146D02*
X43445061Y-71999765D01*
X43492680Y-72142622D01*
X43492680Y-72237860D01*
X43445061Y-72380718D01*
X43349823Y-72475956D01*
X43254585Y-72523575D01*
X43064109Y-72571194D01*
X42921252Y-72571194D01*
X42730776Y-72523575D01*
X42635538Y-72475956D01*
X42540300Y-72380718D01*
X42492680Y-72237860D01*
X42492680Y-72142622D01*
X42540300Y-71999765D01*
X42587919Y-71952146D01*
X43492680Y-70999765D02*
X43492680Y-71571194D01*
X43492680Y-71285480D02*
X42492680Y-71285480D01*
X42635538Y-71380718D01*
X42730776Y-71475956D01*
X42778395Y-71571194D01*
G04 #@! TO.C,C2*
X53803822Y-69114966D02*
X53851441Y-69162585D01*
X53899060Y-69305442D01*
X53899060Y-69400680D01*
X53851441Y-69543538D01*
X53756203Y-69638776D01*
X53660965Y-69686395D01*
X53470489Y-69734014D01*
X53327632Y-69734014D01*
X53137156Y-69686395D01*
X53041918Y-69638776D01*
X52946680Y-69543538D01*
X52899060Y-69400680D01*
X52899060Y-69305442D01*
X52946680Y-69162585D01*
X52994299Y-69114966D01*
X52994299Y-68734014D02*
X52946680Y-68686395D01*
X52899060Y-68591157D01*
X52899060Y-68353061D01*
X52946680Y-68257823D01*
X52994299Y-68210204D01*
X53089537Y-68162585D01*
X53184775Y-68162585D01*
X53327632Y-68210204D01*
X53899060Y-68781633D01*
X53899060Y-68162585D01*
G04 #@! TO.C,C3*
X72799833Y-34993342D02*
X72752214Y-35040961D01*
X72609357Y-35088580D01*
X72514119Y-35088580D01*
X72371261Y-35040961D01*
X72276023Y-34945723D01*
X72228404Y-34850485D01*
X72180785Y-34660009D01*
X72180785Y-34517152D01*
X72228404Y-34326676D01*
X72276023Y-34231438D01*
X72371261Y-34136200D01*
X72514119Y-34088580D01*
X72609357Y-34088580D01*
X72752214Y-34136200D01*
X72799833Y-34183819D01*
X73133166Y-34088580D02*
X73752214Y-34088580D01*
X73418880Y-34469533D01*
X73561738Y-34469533D01*
X73656976Y-34517152D01*
X73704595Y-34564771D01*
X73752214Y-34660009D01*
X73752214Y-34898104D01*
X73704595Y-34993342D01*
X73656976Y-35040961D01*
X73561738Y-35088580D01*
X73276023Y-35088580D01*
X73180785Y-35040961D01*
X73133166Y-34993342D01*
G04 #@! TO.C,C4*
X51853102Y-63438066D02*
X51900721Y-63485685D01*
X51948340Y-63628542D01*
X51948340Y-63723780D01*
X51900721Y-63866638D01*
X51805483Y-63961876D01*
X51710245Y-64009495D01*
X51519769Y-64057114D01*
X51376912Y-64057114D01*
X51186436Y-64009495D01*
X51091198Y-63961876D01*
X50995960Y-63866638D01*
X50948340Y-63723780D01*
X50948340Y-63628542D01*
X50995960Y-63485685D01*
X51043579Y-63438066D01*
X51281674Y-62580923D02*
X51948340Y-62580923D01*
X50900721Y-62819019D02*
X51615007Y-63057114D01*
X51615007Y-62438066D01*
G04 #@! TO.C,C5*
X66397142Y-42838666D02*
X66444761Y-42886285D01*
X66492380Y-43029142D01*
X66492380Y-43124380D01*
X66444761Y-43267238D01*
X66349523Y-43362476D01*
X66254285Y-43410095D01*
X66063809Y-43457714D01*
X65920952Y-43457714D01*
X65730476Y-43410095D01*
X65635238Y-43362476D01*
X65540000Y-43267238D01*
X65492380Y-43124380D01*
X65492380Y-43029142D01*
X65540000Y-42886285D01*
X65587619Y-42838666D01*
X65492380Y-41933904D02*
X65492380Y-42410095D01*
X65968571Y-42457714D01*
X65920952Y-42410095D01*
X65873333Y-42314857D01*
X65873333Y-42076761D01*
X65920952Y-41981523D01*
X65968571Y-41933904D01*
X66063809Y-41886285D01*
X66301904Y-41886285D01*
X66397142Y-41933904D01*
X66444761Y-41981523D01*
X66492380Y-42076761D01*
X66492380Y-42314857D01*
X66444761Y-42410095D01*
X66397142Y-42457714D01*
G04 #@! TO.C,C6*
X50625142Y-71274666D02*
X50672761Y-71322285D01*
X50720380Y-71465142D01*
X50720380Y-71560380D01*
X50672761Y-71703238D01*
X50577523Y-71798476D01*
X50482285Y-71846095D01*
X50291809Y-71893714D01*
X50148952Y-71893714D01*
X49958476Y-71846095D01*
X49863238Y-71798476D01*
X49768000Y-71703238D01*
X49720380Y-71560380D01*
X49720380Y-71465142D01*
X49768000Y-71322285D01*
X49815619Y-71274666D01*
X49720380Y-70417523D02*
X49720380Y-70608000D01*
X49768000Y-70703238D01*
X49815619Y-70750857D01*
X49958476Y-70846095D01*
X50148952Y-70893714D01*
X50529904Y-70893714D01*
X50625142Y-70846095D01*
X50672761Y-70798476D01*
X50720380Y-70703238D01*
X50720380Y-70512761D01*
X50672761Y-70417523D01*
X50625142Y-70369904D01*
X50529904Y-70322285D01*
X50291809Y-70322285D01*
X50196571Y-70369904D01*
X50148952Y-70417523D01*
X50101333Y-70512761D01*
X50101333Y-70703238D01*
X50148952Y-70798476D01*
X50196571Y-70846095D01*
X50291809Y-70893714D01*
G04 #@! TO.C,C7*
X69627453Y-63194202D02*
X69579834Y-63241821D01*
X69436977Y-63289440D01*
X69341739Y-63289440D01*
X69198881Y-63241821D01*
X69103643Y-63146583D01*
X69056024Y-63051345D01*
X69008405Y-62860869D01*
X69008405Y-62718012D01*
X69056024Y-62527536D01*
X69103643Y-62432298D01*
X69198881Y-62337060D01*
X69341739Y-62289440D01*
X69436977Y-62289440D01*
X69579834Y-62337060D01*
X69627453Y-62384679D01*
X69960786Y-62289440D02*
X70627453Y-62289440D01*
X70198881Y-63289440D01*
G04 #@! TO.C,C8*
X42521142Y-59602666D02*
X42568761Y-59650285D01*
X42616380Y-59793142D01*
X42616380Y-59888380D01*
X42568761Y-60031238D01*
X42473523Y-60126476D01*
X42378285Y-60174095D01*
X42187809Y-60221714D01*
X42044952Y-60221714D01*
X41854476Y-60174095D01*
X41759238Y-60126476D01*
X41664000Y-60031238D01*
X41616380Y-59888380D01*
X41616380Y-59793142D01*
X41664000Y-59650285D01*
X41711619Y-59602666D01*
X42044952Y-59031238D02*
X41997333Y-59126476D01*
X41949714Y-59174095D01*
X41854476Y-59221714D01*
X41806857Y-59221714D01*
X41711619Y-59174095D01*
X41664000Y-59126476D01*
X41616380Y-59031238D01*
X41616380Y-58840761D01*
X41664000Y-58745523D01*
X41711619Y-58697904D01*
X41806857Y-58650285D01*
X41854476Y-58650285D01*
X41949714Y-58697904D01*
X41997333Y-58745523D01*
X42044952Y-58840761D01*
X42044952Y-59031238D01*
X42092571Y-59126476D01*
X42140190Y-59174095D01*
X42235428Y-59221714D01*
X42425904Y-59221714D01*
X42521142Y-59174095D01*
X42568761Y-59126476D01*
X42616380Y-59031238D01*
X42616380Y-58840761D01*
X42568761Y-58745523D01*
X42521142Y-58697904D01*
X42425904Y-58650285D01*
X42235428Y-58650285D01*
X42140190Y-58697904D01*
X42092571Y-58745523D01*
X42044952Y-58840761D01*
G04 #@! TO.C,C9*
X47839333Y-57253142D02*
X47791714Y-57300761D01*
X47648857Y-57348380D01*
X47553619Y-57348380D01*
X47410761Y-57300761D01*
X47315523Y-57205523D01*
X47267904Y-57110285D01*
X47220285Y-56919809D01*
X47220285Y-56776952D01*
X47267904Y-56586476D01*
X47315523Y-56491238D01*
X47410761Y-56396000D01*
X47553619Y-56348380D01*
X47648857Y-56348380D01*
X47791714Y-56396000D01*
X47839333Y-56443619D01*
X48315523Y-57348380D02*
X48506000Y-57348380D01*
X48601238Y-57300761D01*
X48648857Y-57253142D01*
X48744095Y-57110285D01*
X48791714Y-56919809D01*
X48791714Y-56538857D01*
X48744095Y-56443619D01*
X48696476Y-56396000D01*
X48601238Y-56348380D01*
X48410761Y-56348380D01*
X48315523Y-56396000D01*
X48267904Y-56443619D01*
X48220285Y-56538857D01*
X48220285Y-56776952D01*
X48267904Y-56872190D01*
X48315523Y-56919809D01*
X48410761Y-56967428D01*
X48601238Y-56967428D01*
X48696476Y-56919809D01*
X48744095Y-56872190D01*
X48791714Y-56776952D01*
G04 #@! TO.C,C10*
X52956142Y-60431442D02*
X52908523Y-60479061D01*
X52765666Y-60526680D01*
X52670428Y-60526680D01*
X52527571Y-60479061D01*
X52432333Y-60383823D01*
X52384714Y-60288585D01*
X52337095Y-60098109D01*
X52337095Y-59955252D01*
X52384714Y-59764776D01*
X52432333Y-59669538D01*
X52527571Y-59574300D01*
X52670428Y-59526680D01*
X52765666Y-59526680D01*
X52908523Y-59574300D01*
X52956142Y-59621919D01*
X53908523Y-60526680D02*
X53337095Y-60526680D01*
X53622809Y-60526680D02*
X53622809Y-59526680D01*
X53527571Y-59669538D01*
X53432333Y-59764776D01*
X53337095Y-59812395D01*
X54527571Y-59526680D02*
X54622809Y-59526680D01*
X54718047Y-59574300D01*
X54765666Y-59621919D01*
X54813285Y-59717157D01*
X54860904Y-59907633D01*
X54860904Y-60145728D01*
X54813285Y-60336204D01*
X54765666Y-60431442D01*
X54718047Y-60479061D01*
X54622809Y-60526680D01*
X54527571Y-60526680D01*
X54432333Y-60479061D01*
X54384714Y-60431442D01*
X54337095Y-60336204D01*
X54289476Y-60145728D01*
X54289476Y-59907633D01*
X54337095Y-59717157D01*
X54384714Y-59621919D01*
X54432333Y-59574300D01*
X54527571Y-59526680D01*
G04 #@! TO.C,C11*
X43076857Y-55491142D02*
X43029238Y-55443523D01*
X42981619Y-55300666D01*
X42981619Y-55205428D01*
X43029238Y-55062571D01*
X43124476Y-54967333D01*
X43219714Y-54919714D01*
X43410190Y-54872095D01*
X43553047Y-54872095D01*
X43743523Y-54919714D01*
X43838761Y-54967333D01*
X43934000Y-55062571D01*
X43981619Y-55205428D01*
X43981619Y-55300666D01*
X43934000Y-55443523D01*
X43886380Y-55491142D01*
X42981619Y-56443523D02*
X42981619Y-55872095D01*
X42981619Y-56157809D02*
X43981619Y-56157809D01*
X43838761Y-56062571D01*
X43743523Y-55967333D01*
X43695904Y-55872095D01*
X42981619Y-57395904D02*
X42981619Y-56824476D01*
X42981619Y-57110190D02*
X43981619Y-57110190D01*
X43838761Y-57014952D01*
X43743523Y-56919714D01*
X43695904Y-56824476D01*
G04 #@! TO.C,C13*
X34176502Y-43736022D02*
X34128883Y-43783641D01*
X33986026Y-43831260D01*
X33890788Y-43831260D01*
X33747931Y-43783641D01*
X33652693Y-43688403D01*
X33605074Y-43593165D01*
X33557455Y-43402689D01*
X33557455Y-43259832D01*
X33605074Y-43069356D01*
X33652693Y-42974118D01*
X33747931Y-42878880D01*
X33890788Y-42831260D01*
X33986026Y-42831260D01*
X34128883Y-42878880D01*
X34176502Y-42926499D01*
X35128883Y-43831260D02*
X34557455Y-43831260D01*
X34843169Y-43831260D02*
X34843169Y-42831260D01*
X34747931Y-42974118D01*
X34652693Y-43069356D01*
X34557455Y-43116975D01*
X35462217Y-42831260D02*
X36081264Y-42831260D01*
X35747931Y-43212213D01*
X35890788Y-43212213D01*
X35986026Y-43259832D01*
X36033645Y-43307451D01*
X36081264Y-43402689D01*
X36081264Y-43640784D01*
X36033645Y-43736022D01*
X35986026Y-43783641D01*
X35890788Y-43831260D01*
X35605074Y-43831260D01*
X35509836Y-43783641D01*
X35462217Y-43736022D01*
G04 #@! TO.C,C14*
X58736950Y-41040667D02*
X58784569Y-41088286D01*
X58832188Y-41231143D01*
X58832188Y-41326381D01*
X58784569Y-41469238D01*
X58689331Y-41564476D01*
X58594093Y-41612095D01*
X58403617Y-41659714D01*
X58260760Y-41659714D01*
X58070284Y-41612095D01*
X57975046Y-41564476D01*
X57879808Y-41469238D01*
X57832188Y-41326381D01*
X57832188Y-41231143D01*
X57879808Y-41088286D01*
X57927427Y-41040667D01*
X58832188Y-40088286D02*
X58832188Y-40659714D01*
X58832188Y-40374000D02*
X57832188Y-40374000D01*
X57975046Y-40469238D01*
X58070284Y-40564476D01*
X58117903Y-40659714D01*
X58165522Y-39231143D02*
X58832188Y-39231143D01*
X57784569Y-39469238D02*
X58498855Y-39707333D01*
X58498855Y-39088286D01*
G04 #@! TO.C,D1*
D14*
X71644952Y-36466390D02*
X71644952Y-35966390D01*
X71764000Y-35966390D01*
X71835428Y-35990200D01*
X71883047Y-36037819D01*
X71906857Y-36085438D01*
X71930666Y-36180676D01*
X71930666Y-36252104D01*
X71906857Y-36347342D01*
X71883047Y-36394961D01*
X71835428Y-36442580D01*
X71764000Y-36466390D01*
X71644952Y-36466390D01*
X72406857Y-36466390D02*
X72121142Y-36466390D01*
X72264000Y-36466390D02*
X72264000Y-35966390D01*
X72216380Y-36037819D01*
X72168761Y-36085438D01*
X72121142Y-36109247D01*
G04 #@! TO.C,D2*
D13*
X39729184Y-31895040D02*
X39729184Y-30895040D01*
X39967280Y-30895040D01*
X40110137Y-30942660D01*
X40205375Y-31037898D01*
X40252994Y-31133136D01*
X40300613Y-31323612D01*
X40300613Y-31466469D01*
X40252994Y-31656945D01*
X40205375Y-31752183D01*
X40110137Y-31847421D01*
X39967280Y-31895040D01*
X39729184Y-31895040D01*
X40681565Y-30990279D02*
X40729184Y-30942660D01*
X40824422Y-30895040D01*
X41062518Y-30895040D01*
X41157756Y-30942660D01*
X41205375Y-30990279D01*
X41252994Y-31085517D01*
X41252994Y-31180755D01*
X41205375Y-31323612D01*
X40633946Y-31895040D01*
X41252994Y-31895040D01*
G04 #@! TO.C,D3*
X34788100Y-36717195D02*
X33788100Y-36717195D01*
X33788100Y-36479100D01*
X33835720Y-36336242D01*
X33930958Y-36241004D01*
X34026196Y-36193385D01*
X34216672Y-36145766D01*
X34359529Y-36145766D01*
X34550005Y-36193385D01*
X34645243Y-36241004D01*
X34740481Y-36336242D01*
X34788100Y-36479100D01*
X34788100Y-36717195D01*
X33788100Y-35812433D02*
X33788100Y-35193385D01*
X34169053Y-35526719D01*
X34169053Y-35383861D01*
X34216672Y-35288623D01*
X34264291Y-35241004D01*
X34359529Y-35193385D01*
X34597624Y-35193385D01*
X34692862Y-35241004D01*
X34740481Y-35288623D01*
X34788100Y-35383861D01*
X34788100Y-35669576D01*
X34740481Y-35764814D01*
X34692862Y-35812433D01*
G04 #@! TO.C,FID1*
X45262491Y-43027148D02*
X45262491Y-43360481D01*
X45786300Y-43360481D02*
X44786300Y-43360481D01*
X44786300Y-42884291D01*
X45786300Y-42503339D02*
X44786300Y-42503339D01*
X45786300Y-42027148D02*
X44786300Y-42027148D01*
X44786300Y-41789053D01*
X44833920Y-41646196D01*
X44929158Y-41550958D01*
X45024396Y-41503339D01*
X45214872Y-41455720D01*
X45357729Y-41455720D01*
X45548205Y-41503339D01*
X45643443Y-41550958D01*
X45738681Y-41646196D01*
X45786300Y-41789053D01*
X45786300Y-42027148D01*
X45786300Y-40503339D02*
X45786300Y-41074767D01*
X45786300Y-40789053D02*
X44786300Y-40789053D01*
X44929158Y-40884291D01*
X45024396Y-40979529D01*
X45072015Y-41074767D01*
G04 #@! TO.C,FID2*
X33810391Y-86293651D02*
X33477058Y-86293651D01*
X33477058Y-86817460D02*
X33477058Y-85817460D01*
X33953248Y-85817460D01*
X34334200Y-86817460D02*
X34334200Y-85817460D01*
X34810391Y-86817460D02*
X34810391Y-85817460D01*
X35048486Y-85817460D01*
X35191343Y-85865080D01*
X35286581Y-85960318D01*
X35334200Y-86055556D01*
X35381820Y-86246032D01*
X35381820Y-86388889D01*
X35334200Y-86579365D01*
X35286581Y-86674603D01*
X35191343Y-86769841D01*
X35048486Y-86817460D01*
X34810391Y-86817460D01*
X35762772Y-85912699D02*
X35810391Y-85865080D01*
X35905629Y-85817460D01*
X36143724Y-85817460D01*
X36238962Y-85865080D01*
X36286581Y-85912699D01*
X36334200Y-86007937D01*
X36334200Y-86103175D01*
X36286581Y-86246032D01*
X35715153Y-86817460D01*
X36334200Y-86817460D01*
G04 #@! TO.C,FID3*
X65756331Y-35749288D02*
X65756331Y-36082621D01*
X66280140Y-36082621D02*
X65280140Y-36082621D01*
X65280140Y-35606431D01*
X66280140Y-35225479D02*
X65280140Y-35225479D01*
X66280140Y-34749288D02*
X65280140Y-34749288D01*
X65280140Y-34511193D01*
X65327760Y-34368336D01*
X65422998Y-34273098D01*
X65518236Y-34225479D01*
X65708712Y-34177860D01*
X65851569Y-34177860D01*
X66042045Y-34225479D01*
X66137283Y-34273098D01*
X66232521Y-34368336D01*
X66280140Y-34511193D01*
X66280140Y-34749288D01*
X65280140Y-33844526D02*
X65280140Y-33225479D01*
X65661093Y-33558812D01*
X65661093Y-33415955D01*
X65708712Y-33320717D01*
X65756331Y-33273098D01*
X65851569Y-33225479D01*
X66089664Y-33225479D01*
X66184902Y-33273098D01*
X66232521Y-33320717D01*
X66280140Y-33415955D01*
X66280140Y-33701669D01*
X66232521Y-33796907D01*
X66184902Y-33844526D01*
G04 #@! TO.C,R1*
X38383633Y-68259980D02*
X38050300Y-67783790D01*
X37812204Y-68259980D02*
X37812204Y-67259980D01*
X38193157Y-67259980D01*
X38288395Y-67307600D01*
X38336014Y-67355219D01*
X38383633Y-67450457D01*
X38383633Y-67593314D01*
X38336014Y-67688552D01*
X38288395Y-67736171D01*
X38193157Y-67783790D01*
X37812204Y-67783790D01*
X39336014Y-68259980D02*
X38764585Y-68259980D01*
X39050300Y-68259980D02*
X39050300Y-67259980D01*
X38955061Y-67402838D01*
X38859823Y-67498076D01*
X38764585Y-67545695D01*
G04 #@! TO.C,R2*
X46459633Y-73674480D02*
X46126300Y-73198290D01*
X45888204Y-73674480D02*
X45888204Y-72674480D01*
X46269157Y-72674480D01*
X46364395Y-72722100D01*
X46412014Y-72769719D01*
X46459633Y-72864957D01*
X46459633Y-73007814D01*
X46412014Y-73103052D01*
X46364395Y-73150671D01*
X46269157Y-73198290D01*
X45888204Y-73198290D01*
X46840585Y-72769719D02*
X46888204Y-72722100D01*
X46983442Y-72674480D01*
X47221538Y-72674480D01*
X47316776Y-72722100D01*
X47364395Y-72769719D01*
X47412014Y-72864957D01*
X47412014Y-72960195D01*
X47364395Y-73103052D01*
X46792966Y-73674480D01*
X47412014Y-73674480D01*
G04 #@! TO.C,R3*
X38421633Y-63520480D02*
X38088300Y-63044290D01*
X37850204Y-63520480D02*
X37850204Y-62520480D01*
X38231157Y-62520480D01*
X38326395Y-62568100D01*
X38374014Y-62615719D01*
X38421633Y-62710957D01*
X38421633Y-62853814D01*
X38374014Y-62949052D01*
X38326395Y-62996671D01*
X38231157Y-63044290D01*
X37850204Y-63044290D01*
X38754966Y-62520480D02*
X39374014Y-62520480D01*
X39040680Y-62901433D01*
X39183538Y-62901433D01*
X39278776Y-62949052D01*
X39326395Y-62996671D01*
X39374014Y-63091909D01*
X39374014Y-63330004D01*
X39326395Y-63425242D01*
X39278776Y-63472861D01*
X39183538Y-63520480D01*
X38897823Y-63520480D01*
X38802585Y-63472861D01*
X38754966Y-63425242D01*
G04 #@! TO.C,R4*
X66625173Y-67957620D02*
X66291840Y-67481430D01*
X66053744Y-67957620D02*
X66053744Y-66957620D01*
X66434697Y-66957620D01*
X66529935Y-67005240D01*
X66577554Y-67052859D01*
X66625173Y-67148097D01*
X66625173Y-67290954D01*
X66577554Y-67386192D01*
X66529935Y-67433811D01*
X66434697Y-67481430D01*
X66053744Y-67481430D01*
X67482316Y-67290954D02*
X67482316Y-67957620D01*
X67244220Y-66910001D02*
X67006125Y-67624287D01*
X67625173Y-67624287D01*
G04 #@! TO.C,R5*
X47653993Y-60987440D02*
X47320660Y-60511250D01*
X47082564Y-60987440D02*
X47082564Y-59987440D01*
X47463517Y-59987440D01*
X47558755Y-60035060D01*
X47606374Y-60082679D01*
X47653993Y-60177917D01*
X47653993Y-60320774D01*
X47606374Y-60416012D01*
X47558755Y-60463631D01*
X47463517Y-60511250D01*
X47082564Y-60511250D01*
X48558755Y-59987440D02*
X48082564Y-59987440D01*
X48034945Y-60463631D01*
X48082564Y-60416012D01*
X48177802Y-60368393D01*
X48415898Y-60368393D01*
X48511136Y-60416012D01*
X48558755Y-60463631D01*
X48606374Y-60558869D01*
X48606374Y-60796964D01*
X48558755Y-60892202D01*
X48511136Y-60939821D01*
X48415898Y-60987440D01*
X48177802Y-60987440D01*
X48082564Y-60939821D01*
X48034945Y-60892202D01*
G04 #@! TO.C,R6*
X34678880Y-31406126D02*
X34202690Y-31739460D01*
X34678880Y-31977555D02*
X33678880Y-31977555D01*
X33678880Y-31596602D01*
X33726500Y-31501364D01*
X33774119Y-31453745D01*
X33869357Y-31406126D01*
X34012214Y-31406126D01*
X34107452Y-31453745D01*
X34155071Y-31501364D01*
X34202690Y-31596602D01*
X34202690Y-31977555D01*
X33678880Y-30548983D02*
X33678880Y-30739460D01*
X33726500Y-30834698D01*
X33774119Y-30882317D01*
X33916976Y-30977555D01*
X34107452Y-31025174D01*
X34488404Y-31025174D01*
X34583642Y-30977555D01*
X34631261Y-30929936D01*
X34678880Y-30834698D01*
X34678880Y-30644221D01*
X34631261Y-30548983D01*
X34583642Y-30501364D01*
X34488404Y-30453745D01*
X34250309Y-30453745D01*
X34155071Y-30501364D01*
X34107452Y-30548983D01*
X34059833Y-30644221D01*
X34059833Y-30834698D01*
X34107452Y-30929936D01*
X34155071Y-30977555D01*
X34250309Y-31025174D01*
G04 #@! TO.C,R7*
X35312053Y-39329620D02*
X34978720Y-38853430D01*
X34740624Y-39329620D02*
X34740624Y-38329620D01*
X35121577Y-38329620D01*
X35216815Y-38377240D01*
X35264434Y-38424859D01*
X35312053Y-38520097D01*
X35312053Y-38662954D01*
X35264434Y-38758192D01*
X35216815Y-38805811D01*
X35121577Y-38853430D01*
X34740624Y-38853430D01*
X35645386Y-38329620D02*
X36312053Y-38329620D01*
X35883481Y-39329620D01*
G04 #@! TO.C,R8*
X37881740Y-45679146D02*
X37405550Y-46012480D01*
X37881740Y-46250575D02*
X36881740Y-46250575D01*
X36881740Y-45869622D01*
X36929360Y-45774384D01*
X36976979Y-45726765D01*
X37072217Y-45679146D01*
X37215074Y-45679146D01*
X37310312Y-45726765D01*
X37357931Y-45774384D01*
X37405550Y-45869622D01*
X37405550Y-46250575D01*
X37310312Y-45107718D02*
X37262693Y-45202956D01*
X37215074Y-45250575D01*
X37119836Y-45298194D01*
X37072217Y-45298194D01*
X36976979Y-45250575D01*
X36929360Y-45202956D01*
X36881740Y-45107718D01*
X36881740Y-44917241D01*
X36929360Y-44822003D01*
X36976979Y-44774384D01*
X37072217Y-44726765D01*
X37119836Y-44726765D01*
X37215074Y-44774384D01*
X37262693Y-44822003D01*
X37310312Y-44917241D01*
X37310312Y-45107718D01*
X37357931Y-45202956D01*
X37405550Y-45250575D01*
X37500788Y-45298194D01*
X37691264Y-45298194D01*
X37786502Y-45250575D01*
X37834121Y-45202956D01*
X37881740Y-45107718D01*
X37881740Y-44917241D01*
X37834121Y-44822003D01*
X37786502Y-44774384D01*
X37691264Y-44726765D01*
X37500788Y-44726765D01*
X37405550Y-44774384D01*
X37357931Y-44822003D01*
X37310312Y-44917241D01*
G04 #@! TO.C,R9*
X58940880Y-37622266D02*
X58464690Y-37955600D01*
X58940880Y-38193695D02*
X57940880Y-38193695D01*
X57940880Y-37812742D01*
X57988500Y-37717504D01*
X58036119Y-37669885D01*
X58131357Y-37622266D01*
X58274214Y-37622266D01*
X58369452Y-37669885D01*
X58417071Y-37717504D01*
X58464690Y-37812742D01*
X58464690Y-38193695D01*
X58940880Y-37146076D02*
X58940880Y-36955600D01*
X58893261Y-36860361D01*
X58845642Y-36812742D01*
X58702785Y-36717504D01*
X58512309Y-36669885D01*
X58131357Y-36669885D01*
X58036119Y-36717504D01*
X57988500Y-36765123D01*
X57940880Y-36860361D01*
X57940880Y-37050838D01*
X57988500Y-37146076D01*
X58036119Y-37193695D01*
X58131357Y-37241314D01*
X58369452Y-37241314D01*
X58464690Y-37193695D01*
X58512309Y-37146076D01*
X58559928Y-37050838D01*
X58559928Y-36860361D01*
X58512309Y-36765123D01*
X58464690Y-36717504D01*
X58369452Y-36669885D01*
G04 #@! TO.C,U4*
X40891555Y-38537900D02*
X40891555Y-39347424D01*
X40939174Y-39442662D01*
X40986793Y-39490281D01*
X41082031Y-39537900D01*
X41272507Y-39537900D01*
X41367745Y-39490281D01*
X41415364Y-39442662D01*
X41462983Y-39347424D01*
X41462983Y-38537900D01*
X42367745Y-38871234D02*
X42367745Y-39537900D01*
X42129650Y-38490281D02*
X41891555Y-39204567D01*
X42510602Y-39204567D01*
G04 #@! TO.C,U5*
X53876880Y-41735404D02*
X54686404Y-41735404D01*
X54781642Y-41687785D01*
X54829261Y-41640166D01*
X54876880Y-41544928D01*
X54876880Y-41354452D01*
X54829261Y-41259214D01*
X54781642Y-41211595D01*
X54686404Y-41163976D01*
X53876880Y-41163976D01*
X53876880Y-40211595D02*
X53876880Y-40687785D01*
X54353071Y-40735404D01*
X54305452Y-40687785D01*
X54257833Y-40592547D01*
X54257833Y-40354452D01*
X54305452Y-40259214D01*
X54353071Y-40211595D01*
X54448309Y-40163976D01*
X54686404Y-40163976D01*
X54781642Y-40211595D01*
X54829261Y-40259214D01*
X54876880Y-40354452D01*
X54876880Y-40592547D01*
X54829261Y-40687785D01*
X54781642Y-40735404D01*
G04 #@! TO.C,TP9*
X70873295Y-74544500D02*
X71444723Y-74544500D01*
X71159009Y-75544500D02*
X71159009Y-74544500D01*
X71778057Y-75544500D02*
X71778057Y-74544500D01*
X72159009Y-74544500D01*
X72254247Y-74592120D01*
X72301866Y-74639739D01*
X72349485Y-74734977D01*
X72349485Y-74877834D01*
X72301866Y-74973072D01*
X72254247Y-75020691D01*
X72159009Y-75068310D01*
X71778057Y-75068310D01*
X72825676Y-75544500D02*
X73016152Y-75544500D01*
X73111390Y-75496881D01*
X73159009Y-75449262D01*
X73254247Y-75306405D01*
X73301866Y-75115929D01*
X73301866Y-74734977D01*
X73254247Y-74639739D01*
X73206628Y-74592120D01*
X73111390Y-74544500D01*
X72920914Y-74544500D01*
X72825676Y-74592120D01*
X72778057Y-74639739D01*
X72730438Y-74734977D01*
X72730438Y-74973072D01*
X72778057Y-75068310D01*
X72825676Y-75115929D01*
X72920914Y-75163548D01*
X73111390Y-75163548D01*
X73206628Y-75115929D01*
X73254247Y-75068310D01*
X73301866Y-74973072D01*
G04 #@! TO.C,TP14*
X70209160Y-87287835D02*
X70209160Y-86716406D01*
X71209160Y-87002120D02*
X70209160Y-87002120D01*
X71209160Y-86383073D02*
X70209160Y-86383073D01*
X70209160Y-86002120D01*
X70256780Y-85906882D01*
X70304399Y-85859263D01*
X70399637Y-85811644D01*
X70542494Y-85811644D01*
X70637732Y-85859263D01*
X70685351Y-85906882D01*
X70732970Y-86002120D01*
X70732970Y-86383073D01*
X71209160Y-84859263D02*
X71209160Y-85430692D01*
X71209160Y-85144978D02*
X70209160Y-85144978D01*
X70352018Y-85240216D01*
X70447256Y-85335454D01*
X70494875Y-85430692D01*
X70542494Y-84002120D02*
X71209160Y-84002120D01*
X70161541Y-84240216D02*
X70875827Y-84478311D01*
X70875827Y-83859263D01*
G04 #@! TO.C,R10*
X41935162Y-45267800D02*
X41601829Y-44791610D01*
X41363734Y-45267800D02*
X41363734Y-44267800D01*
X41744686Y-44267800D01*
X41839924Y-44315420D01*
X41887543Y-44363039D01*
X41935162Y-44458277D01*
X41935162Y-44601134D01*
X41887543Y-44696372D01*
X41839924Y-44743991D01*
X41744686Y-44791610D01*
X41363734Y-44791610D01*
X42887543Y-45267800D02*
X42316115Y-45267800D01*
X42601829Y-45267800D02*
X42601829Y-44267800D01*
X42506591Y-44410658D01*
X42411353Y-44505896D01*
X42316115Y-44553515D01*
X43506591Y-44267800D02*
X43601829Y-44267800D01*
X43697067Y-44315420D01*
X43744686Y-44363039D01*
X43792305Y-44458277D01*
X43839924Y-44648753D01*
X43839924Y-44886848D01*
X43792305Y-45077324D01*
X43744686Y-45172562D01*
X43697067Y-45220181D01*
X43601829Y-45267800D01*
X43506591Y-45267800D01*
X43411353Y-45220181D01*
X43363734Y-45172562D01*
X43316115Y-45077324D01*
X43268496Y-44886848D01*
X43268496Y-44648753D01*
X43316115Y-44458277D01*
X43363734Y-44363039D01*
X43411353Y-44315420D01*
X43506591Y-44267800D01*
G04 #@! TO.C,R11*
X65029340Y-70843377D02*
X64553150Y-71176710D01*
X65029340Y-71414805D02*
X64029340Y-71414805D01*
X64029340Y-71033853D01*
X64076960Y-70938615D01*
X64124579Y-70890996D01*
X64219817Y-70843377D01*
X64362674Y-70843377D01*
X64457912Y-70890996D01*
X64505531Y-70938615D01*
X64553150Y-71033853D01*
X64553150Y-71414805D01*
X65029340Y-69890996D02*
X65029340Y-70462424D01*
X65029340Y-70176710D02*
X64029340Y-70176710D01*
X64172198Y-70271948D01*
X64267436Y-70367186D01*
X64315055Y-70462424D01*
X65029340Y-68938615D02*
X65029340Y-69510043D01*
X65029340Y-69224329D02*
X64029340Y-69224329D01*
X64172198Y-69319567D01*
X64267436Y-69414805D01*
X64315055Y-69510043D01*
G04 #@! TO.C,R12*
X63017660Y-76438997D02*
X62541470Y-76772330D01*
X63017660Y-77010425D02*
X62017660Y-77010425D01*
X62017660Y-76629473D01*
X62065280Y-76534235D01*
X62112899Y-76486616D01*
X62208137Y-76438997D01*
X62350994Y-76438997D01*
X62446232Y-76486616D01*
X62493851Y-76534235D01*
X62541470Y-76629473D01*
X62541470Y-77010425D01*
X63017660Y-75486616D02*
X63017660Y-76058044D01*
X63017660Y-75772330D02*
X62017660Y-75772330D01*
X62160518Y-75867568D01*
X62255756Y-75962806D01*
X62303375Y-76058044D01*
X62112899Y-75105663D02*
X62065280Y-75058044D01*
X62017660Y-74962806D01*
X62017660Y-74724711D01*
X62065280Y-74629473D01*
X62112899Y-74581854D01*
X62208137Y-74534235D01*
X62303375Y-74534235D01*
X62446232Y-74581854D01*
X63017660Y-75153282D01*
X63017660Y-74534235D01*
G04 #@! TO.C,J6*
X63019346Y-52695860D02*
X63019346Y-53410146D01*
X62971727Y-53553003D01*
X62876489Y-53648241D01*
X62733632Y-53695860D01*
X62638394Y-53695860D01*
X63924108Y-52695860D02*
X63733632Y-52695860D01*
X63638394Y-52743480D01*
X63590775Y-52791099D01*
X63495537Y-52933956D01*
X63447918Y-53124432D01*
X63447918Y-53505384D01*
X63495537Y-53600622D01*
X63543156Y-53648241D01*
X63638394Y-53695860D01*
X63828870Y-53695860D01*
X63924108Y-53648241D01*
X63971727Y-53600622D01*
X64019346Y-53505384D01*
X64019346Y-53267289D01*
X63971727Y-53172051D01*
X63924108Y-53124432D01*
X63828870Y-53076813D01*
X63638394Y-53076813D01*
X63543156Y-53124432D01*
X63495537Y-53172051D01*
X63447918Y-53267289D01*
G04 #@! TO.C,J7*
X35128380Y-53341333D02*
X35842666Y-53341333D01*
X35985523Y-53388952D01*
X36080761Y-53484190D01*
X36128380Y-53627047D01*
X36128380Y-53722285D01*
X35128380Y-52960380D02*
X35128380Y-52293714D01*
X36128380Y-52722285D01*
G04 #@! TO.C,J9*
X65666026Y-82314800D02*
X65666026Y-83029086D01*
X65618407Y-83171943D01*
X65523169Y-83267181D01*
X65380312Y-83314800D01*
X65285074Y-83314800D01*
X66189836Y-83314800D02*
X66380312Y-83314800D01*
X66475550Y-83267181D01*
X66523169Y-83219562D01*
X66618407Y-83076705D01*
X66666026Y-82886229D01*
X66666026Y-82505277D01*
X66618407Y-82410039D01*
X66570788Y-82362420D01*
X66475550Y-82314800D01*
X66285074Y-82314800D01*
X66189836Y-82362420D01*
X66142217Y-82410039D01*
X66094598Y-82505277D01*
X66094598Y-82743372D01*
X66142217Y-82838610D01*
X66189836Y-82886229D01*
X66285074Y-82933848D01*
X66475550Y-82933848D01*
X66570788Y-82886229D01*
X66618407Y-82838610D01*
X66666026Y-82743372D01*
G04 #@! TO.C,L1*
X35963780Y-58539166D02*
X35963780Y-59015357D01*
X34963780Y-59015357D01*
X35963780Y-57682023D02*
X35963780Y-58253452D01*
X35963780Y-57967738D02*
X34963780Y-57967738D01*
X35106638Y-58062976D01*
X35201876Y-58158214D01*
X35249495Y-58253452D01*
G04 #@! TO.C,L2*
X39197993Y-37611060D02*
X38721802Y-37611060D01*
X38721802Y-36611060D01*
X39483707Y-36706299D02*
X39531326Y-36658680D01*
X39626564Y-36611060D01*
X39864660Y-36611060D01*
X39959898Y-36658680D01*
X40007517Y-36706299D01*
X40055136Y-36801537D01*
X40055136Y-36896775D01*
X40007517Y-37039632D01*
X39436088Y-37611060D01*
X40055136Y-37611060D01*
G04 #@! TO.C,U3*
X39878095Y-69048380D02*
X39878095Y-69857904D01*
X39925714Y-69953142D01*
X39973333Y-70000761D01*
X40068571Y-70048380D01*
X40259047Y-70048380D01*
X40354285Y-70000761D01*
X40401904Y-69953142D01*
X40449523Y-69857904D01*
X40449523Y-69048380D01*
X40830476Y-69048380D02*
X41449523Y-69048380D01*
X41116190Y-69429333D01*
X41259047Y-69429333D01*
X41354285Y-69476952D01*
X41401904Y-69524571D01*
X41449523Y-69619809D01*
X41449523Y-69857904D01*
X41401904Y-69953142D01*
X41354285Y-70000761D01*
X41259047Y-70048380D01*
X40973333Y-70048380D01*
X40878095Y-70000761D01*
X40830476Y-69953142D01*
G04 #@! TD*
M02*
