M48
METRIC,TZ
T1C0.300
T2C0.400
T3C0.800
%
G90
G05
T1
X43052Y-64132
X43052Y-65535
X43052Y-66932
X44452Y-64132
X44452Y-65532
X44452Y-66932
X45852Y-64132
X45852Y-65535
X45852Y-66932
X84852Y-64132
X84852Y-65535
X84852Y-66932
X86252Y-64132
X86252Y-65532
X86252Y-66932
X87652Y-64132
X87652Y-65535
X87652Y-66932
X66291Y-45166
X53086Y-75692
X105224Y-47950
X58166Y-68834
X36434Y-35806
X46736Y-55118
X95623Y-60104
X92600Y-70866
X91838Y-55118
X58166Y-75692
X72072Y-48859
X43619Y-45875
X55880Y-68834
X50800Y-70866
X93362Y-43180
X51562Y-43180
X113873Y-48859
X56388Y-42672
X92346Y-44704
X53823Y-60104
X78297Y-32134
X36497Y-32134
X49784Y-41402
X53086Y-72136
X77106Y-59934
X55880Y-72136
X85419Y-45875
X115028Y-49898
X90606Y-75789
X50038Y-52578
X48260Y-55118
X94617Y-60079
X79646Y-67818
X91584Y-68580
X35306Y-59934
X98188Y-42672
X52832Y-63754
X52817Y-60079
X50546Y-44704
X55880Y-75692
X53848Y-63754
X49530Y-43688
X50038Y-55118
X97172Y-35306
X99966Y-75692
X100728Y-36830
X84330Y-33012
X86758Y-55118
X108091Y-45166
X89552Y-53848
X96664Y-42672
X73228Y-49898
X54864Y-42672
X36434Y-37076
X36472Y-33233
X79646Y-68834
X43434Y-55118
X82948Y-60960
X97680Y-72136
X42530Y-33012
X38466Y-45458
X41148Y-60960
X84472Y-75692
X99966Y-68834
X44958Y-55118
X88536Y-55118
X58928Y-36830
X77142Y-56899
X37846Y-67818
X49784Y-68580
X85234Y-55118
X91838Y-52578
X47752Y-53848
X36180Y-44442
X90060Y-55118
X58166Y-72136
X91584Y-41402
X35342Y-58417
X55372Y-35306
X97680Y-68834
X35342Y-56899
X63424Y-47950
X77142Y-58417
X78272Y-33233
X94632Y-63754
X99966Y-72136
X78234Y-35806
X48806Y-75789
X37846Y-68834
X77218Y-43680
X35418Y-43680
X97680Y-75692
X91330Y-43688
X95648Y-63754
X80266Y-45458
X77980Y-44442
X42672Y-75692
X94886Y-75692
X94886Y-72136
X78234Y-37076
T2
X34996Y-33096
X35397Y-45449
X36170Y-86751
X39210Y-48238
X39362Y-67745
X39652Y-41220
X40137Y-61865
X40620Y-77826
X41648Y-55045
X41830Y-41242
X42396Y-70498
X43241Y-69466
X43434Y-83337
X43698Y-60935
X43815Y-48463
X45452Y-69371
X45654Y-61678
X47752Y-70358
X48633Y-64132
X53236Y-67348
X60742Y-41156
X60851Y-78435
X63429Y-79027
X76796Y-33096
X77197Y-45449
X77970Y-86751
X81010Y-48238
X81162Y-67745
X81452Y-41220
X81937Y-61865
X82420Y-77826
X83448Y-55045
X83630Y-41242
X84196Y-70498
X85041Y-69466
X85234Y-83337
X85498Y-60935
X85615Y-48463
X87252Y-69371
X87454Y-61678
X89552Y-70358
X90433Y-64132
X95036Y-67348
X102542Y-41156
X102651Y-78435
X105229Y-79027
T3
X79806Y-53008
X82346Y-53008
X84886Y-53008
X87426Y-53008
X70466Y-44408
X70466Y-46948
X73006Y-44408
X73006Y-46948
X108766Y-69668
X108766Y-72208
X108766Y-74748
X108766Y-77288
X108766Y-79828
X108766Y-82368
X70466Y-38908
X70466Y-41448
X73006Y-38908
X73006Y-41448
X44008Y-31784
X44008Y-34324
X44008Y-36864
X79806Y-85478
X79806Y-88018
X82346Y-85478
X82346Y-88018
X84886Y-85478
X84886Y-88018
X87426Y-85478
X87426Y-88018
X89966Y-85478
X89966Y-88018
X92506Y-85478
X92506Y-88018
X95046Y-85478
X95046Y-88018
X97586Y-85478
X97586Y-88018
X100126Y-85478
X100126Y-88018
X102666Y-85478
X102666Y-88018
X105206Y-85478
X105206Y-88018
X107746Y-85478
X107746Y-88018
X38006Y-53008
X40546Y-53008
X43086Y-53008
X45626Y-53008
X112266Y-38908
X112266Y-41448
X114806Y-38908
X114806Y-41448
X69739Y-32148
X72279Y-32148
X112266Y-44408
X112266Y-46948
X114806Y-44408
X114806Y-46948
X70071Y-66061
X72611Y-66061
X79806Y-50468
X82346Y-50468
X84886Y-50468
X87426Y-50468
X89966Y-50468
X92506Y-50468
X95046Y-50468
X97586Y-50468
X100126Y-50468
X102666Y-50468
X105206Y-50468
X107746Y-50468
X38006Y-85478
X38006Y-88018
X40546Y-85478
X40546Y-88018
X43086Y-85478
X43086Y-88018
X45626Y-85478
X45626Y-88018
X48166Y-85478
X48166Y-88018
X50706Y-85478
X50706Y-88018
X53246Y-85478
X53246Y-88018
X55786Y-85478
X55786Y-88018
X58326Y-85478
X58326Y-88018
X60866Y-85478
X60866Y-88018
X63406Y-85478
X63406Y-88018
X65946Y-85478
X65946Y-88018
X111871Y-66061
X114411Y-66061
X85808Y-31784
X85808Y-34324
X85808Y-36864
X38006Y-50468
X40546Y-50468
X43086Y-50468
X45626Y-50468
X48166Y-50468
X50706Y-50468
X53246Y-50468
X55786Y-50468
X58326Y-50468
X60866Y-50468
X63406Y-50468
X65946Y-50468
X46966Y-31823
X46966Y-34363
X46966Y-36903
X46966Y-39443
X46966Y-41983
X46966Y-44523
X46966Y-47063
X111539Y-32148
X114079Y-32148
X88766Y-31823
X88766Y-34363
X88766Y-36903
X88766Y-39443
X88766Y-41983
X88766Y-44523
X88766Y-47063
X66966Y-69668
X66966Y-72208
X66966Y-74748
X66966Y-77288
X66966Y-79828
X66966Y-82368
T0
M30
