G04 #@! TF.GenerationSoftware,KiCad,Pcbnew,5.0.0-fee4fd1~66~ubuntu16.04.1*
G04 #@! TF.CreationDate,2018-09-16T13:21:58+02:00*
G04 #@! TF.ProjectId,WiRoc_NanoPi_v1_Panelized,5769526F635F4E616E6F50695F76315F,rev?*
G04 #@! TF.SameCoordinates,Original*
G04 #@! TF.FileFunction,Legend,Bot*
G04 #@! TF.FilePolarity,Positive*
%FSLAX46Y46*%
G04 Gerber Fmt 4.6, Leading zero omitted, Abs format (unit mm)*
G04 Created by KiCad (PCBNEW 5.0.0-fee4fd1~66~ubuntu16.04.1) date Sun Sep 16 13:21:58 2018*
%MOMM*%
%LPD*%
G01*
G04 APERTURE LIST*
%ADD10C,0.120000*%
%ADD11C,0.150000*%
G04 APERTURE END LIST*
D10*
G04 #@! TO.C,J1*
X110540900Y-67391200D02*
X110540900Y-64731200D01*
X113140900Y-67391200D02*
X110540900Y-67391200D01*
X113140900Y-64731200D02*
X110540900Y-64731200D01*
X113140900Y-67391200D02*
X113140900Y-64731200D01*
X114410900Y-67391200D02*
X115740900Y-67391200D01*
X115740900Y-67391200D02*
X115740900Y-66061200D01*
G04 #@! TO.C,J5*
X110206000Y-83698000D02*
X110206000Y-68338000D01*
X110206000Y-68338000D02*
X112866000Y-68338000D01*
X112866000Y-68338000D02*
X112866000Y-83698000D01*
X112866000Y-83698000D02*
X110206000Y-83698000D01*
X112866000Y-82748000D02*
X118866000Y-82748000D01*
X118866000Y-82748000D02*
X118866000Y-81988000D01*
X118866000Y-81988000D02*
X112866000Y-81988000D01*
X112866000Y-82688000D02*
X118866000Y-82688000D01*
X112866000Y-82568000D02*
X118866000Y-82568000D01*
X112866000Y-82448000D02*
X118866000Y-82448000D01*
X112866000Y-82328000D02*
X118866000Y-82328000D01*
X112866000Y-82208000D02*
X118866000Y-82208000D01*
X112866000Y-82088000D02*
X118866000Y-82088000D01*
X109876000Y-82748000D02*
X110206000Y-82748000D01*
X109876000Y-81988000D02*
X110206000Y-81988000D01*
X110206000Y-81098000D02*
X112866000Y-81098000D01*
X112866000Y-80208000D02*
X118866000Y-80208000D01*
X118866000Y-80208000D02*
X118866000Y-79448000D01*
X118866000Y-79448000D02*
X112866000Y-79448000D01*
X109808929Y-80208000D02*
X110206000Y-80208000D01*
X109808929Y-79448000D02*
X110206000Y-79448000D01*
X110206000Y-78558000D02*
X112866000Y-78558000D01*
X112866000Y-77668000D02*
X118866000Y-77668000D01*
X118866000Y-77668000D02*
X118866000Y-76908000D01*
X118866000Y-76908000D02*
X112866000Y-76908000D01*
X109808929Y-77668000D02*
X110206000Y-77668000D01*
X109808929Y-76908000D02*
X110206000Y-76908000D01*
X110206000Y-76018000D02*
X112866000Y-76018000D01*
X112866000Y-75128000D02*
X118866000Y-75128000D01*
X118866000Y-75128000D02*
X118866000Y-74368000D01*
X118866000Y-74368000D02*
X112866000Y-74368000D01*
X109808929Y-75128000D02*
X110206000Y-75128000D01*
X109808929Y-74368000D02*
X110206000Y-74368000D01*
X110206000Y-73478000D02*
X112866000Y-73478000D01*
X112866000Y-72588000D02*
X118866000Y-72588000D01*
X118866000Y-72588000D02*
X118866000Y-71828000D01*
X118866000Y-71828000D02*
X112866000Y-71828000D01*
X109808929Y-72588000D02*
X110206000Y-72588000D01*
X109808929Y-71828000D02*
X110206000Y-71828000D01*
X110206000Y-70938000D02*
X112866000Y-70938000D01*
X112866000Y-70048000D02*
X118866000Y-70048000D01*
X118866000Y-70048000D02*
X118866000Y-69288000D01*
X118866000Y-69288000D02*
X112866000Y-69288000D01*
X109808929Y-70048000D02*
X110206000Y-70048000D01*
X109808929Y-69288000D02*
X110206000Y-69288000D01*
X107496000Y-82368000D02*
X107496000Y-83638000D01*
X107496000Y-83638000D02*
X108766000Y-83638000D01*
D11*
G04 #@! TO.C,J3*
X116409000Y-33948000D02*
X114409000Y-33948000D01*
X116409000Y-33148000D02*
X115609000Y-33148000D01*
X114409000Y-33948000D02*
X114409000Y-34748000D01*
X109209000Y-33948000D02*
X110609000Y-33948000D01*
X110609000Y-33948000D02*
X110809000Y-33948000D01*
X110809000Y-33948000D02*
X111009000Y-33948000D01*
X111009000Y-33948000D02*
X111009000Y-34548000D01*
X111009000Y-34548000D02*
X111009000Y-34748000D01*
X111009000Y-34748000D02*
X111009000Y-34548000D01*
X115609000Y-33148000D02*
X115609000Y-29948000D01*
X115609000Y-29948000D02*
X110009000Y-29948000D01*
X110009000Y-29948000D02*
X110009000Y-32948000D01*
X110009000Y-32948000D02*
X109209000Y-32948000D01*
X116409000Y-29148000D02*
X109209000Y-29148000D01*
X109209000Y-29148000D02*
X109209000Y-34748000D01*
X109209000Y-34748000D02*
X116409000Y-34748000D01*
X116409000Y-34748000D02*
X116409000Y-29148000D01*
X74609000Y-34748000D02*
X74609000Y-29148000D01*
X67409000Y-34748000D02*
X74609000Y-34748000D01*
X67409000Y-29148000D02*
X67409000Y-34748000D01*
X74609000Y-29148000D02*
X67409000Y-29148000D01*
X68209000Y-32948000D02*
X67409000Y-32948000D01*
X68209000Y-29948000D02*
X68209000Y-32948000D01*
X73809000Y-29948000D02*
X68209000Y-29948000D01*
X73809000Y-33148000D02*
X73809000Y-29948000D01*
X69209000Y-34748000D02*
X69209000Y-34548000D01*
X69209000Y-34548000D02*
X69209000Y-34748000D01*
X69209000Y-33948000D02*
X69209000Y-34548000D01*
X69009000Y-33948000D02*
X69209000Y-33948000D01*
X68809000Y-33948000D02*
X69009000Y-33948000D01*
X67409000Y-33948000D02*
X68809000Y-33948000D01*
X72609000Y-33948000D02*
X72609000Y-34748000D01*
X74609000Y-33148000D02*
X73809000Y-33148000D01*
X74609000Y-33948000D02*
X72609000Y-33948000D01*
D10*
G04 #@! TO.C,J1*
X73940900Y-67391200D02*
X73940900Y-66061200D01*
X72610900Y-67391200D02*
X73940900Y-67391200D01*
X71340900Y-67391200D02*
X71340900Y-64731200D01*
X71340900Y-64731200D02*
X68740900Y-64731200D01*
X71340900Y-67391200D02*
X68740900Y-67391200D01*
X68740900Y-67391200D02*
X68740900Y-64731200D01*
G04 #@! TO.C,J5*
X65696000Y-83638000D02*
X66966000Y-83638000D01*
X65696000Y-82368000D02*
X65696000Y-83638000D01*
X68008929Y-69288000D02*
X68406000Y-69288000D01*
X68008929Y-70048000D02*
X68406000Y-70048000D01*
X77066000Y-69288000D02*
X71066000Y-69288000D01*
X77066000Y-70048000D02*
X77066000Y-69288000D01*
X71066000Y-70048000D02*
X77066000Y-70048000D01*
X68406000Y-70938000D02*
X71066000Y-70938000D01*
X68008929Y-71828000D02*
X68406000Y-71828000D01*
X68008929Y-72588000D02*
X68406000Y-72588000D01*
X77066000Y-71828000D02*
X71066000Y-71828000D01*
X77066000Y-72588000D02*
X77066000Y-71828000D01*
X71066000Y-72588000D02*
X77066000Y-72588000D01*
X68406000Y-73478000D02*
X71066000Y-73478000D01*
X68008929Y-74368000D02*
X68406000Y-74368000D01*
X68008929Y-75128000D02*
X68406000Y-75128000D01*
X77066000Y-74368000D02*
X71066000Y-74368000D01*
X77066000Y-75128000D02*
X77066000Y-74368000D01*
X71066000Y-75128000D02*
X77066000Y-75128000D01*
X68406000Y-76018000D02*
X71066000Y-76018000D01*
X68008929Y-76908000D02*
X68406000Y-76908000D01*
X68008929Y-77668000D02*
X68406000Y-77668000D01*
X77066000Y-76908000D02*
X71066000Y-76908000D01*
X77066000Y-77668000D02*
X77066000Y-76908000D01*
X71066000Y-77668000D02*
X77066000Y-77668000D01*
X68406000Y-78558000D02*
X71066000Y-78558000D01*
X68008929Y-79448000D02*
X68406000Y-79448000D01*
X68008929Y-80208000D02*
X68406000Y-80208000D01*
X77066000Y-79448000D02*
X71066000Y-79448000D01*
X77066000Y-80208000D02*
X77066000Y-79448000D01*
X71066000Y-80208000D02*
X77066000Y-80208000D01*
X68406000Y-81098000D02*
X71066000Y-81098000D01*
X68076000Y-81988000D02*
X68406000Y-81988000D01*
X68076000Y-82748000D02*
X68406000Y-82748000D01*
X71066000Y-82088000D02*
X77066000Y-82088000D01*
X71066000Y-82208000D02*
X77066000Y-82208000D01*
X71066000Y-82328000D02*
X77066000Y-82328000D01*
X71066000Y-82448000D02*
X77066000Y-82448000D01*
X71066000Y-82568000D02*
X77066000Y-82568000D01*
X71066000Y-82688000D02*
X77066000Y-82688000D01*
X77066000Y-81988000D02*
X71066000Y-81988000D01*
X77066000Y-82748000D02*
X77066000Y-81988000D01*
X71066000Y-82748000D02*
X77066000Y-82748000D01*
X71066000Y-83698000D02*
X68406000Y-83698000D01*
X71066000Y-68338000D02*
X71066000Y-83698000D01*
X68406000Y-68338000D02*
X71066000Y-68338000D01*
X68406000Y-83698000D02*
X68406000Y-68338000D01*
G04 #@! TO.C,J1*
D11*
X111642973Y-63028700D02*
X111642973Y-63742986D01*
X111690592Y-63885843D01*
X111785830Y-63981081D01*
X111928687Y-64028700D01*
X112023925Y-64028700D01*
X110642973Y-64028700D02*
X111214401Y-64028700D01*
X110928687Y-64028700D02*
X110928687Y-63028700D01*
X111023925Y-63171558D01*
X111119163Y-63266796D01*
X111214401Y-63314415D01*
G04 #@! TO.C,TP10*
X86324395Y-73531480D02*
X85752966Y-73531480D01*
X86038680Y-74531480D02*
X86038680Y-73531480D01*
X85419633Y-74531480D02*
X85419633Y-73531480D01*
X85038680Y-73531480D01*
X84943442Y-73579100D01*
X84895823Y-73626719D01*
X84848204Y-73721957D01*
X84848204Y-73864814D01*
X84895823Y-73960052D01*
X84943442Y-74007671D01*
X85038680Y-74055290D01*
X85419633Y-74055290D01*
X83895823Y-74531480D02*
X84467252Y-74531480D01*
X84181538Y-74531480D02*
X84181538Y-73531480D01*
X84276776Y-73674338D01*
X84372014Y-73769576D01*
X84467252Y-73817195D01*
X83276776Y-73531480D02*
X83181538Y-73531480D01*
X83086300Y-73579100D01*
X83038680Y-73626719D01*
X82991061Y-73721957D01*
X82943442Y-73912433D01*
X82943442Y-74150528D01*
X82991061Y-74341004D01*
X83038680Y-74436242D01*
X83086300Y-74483861D01*
X83181538Y-74531480D01*
X83276776Y-74531480D01*
X83372014Y-74483861D01*
X83419633Y-74436242D01*
X83467252Y-74341004D01*
X83514871Y-74150528D01*
X83514871Y-73912433D01*
X83467252Y-73721957D01*
X83419633Y-73626719D01*
X83372014Y-73579100D01*
X83276776Y-73531480D01*
G04 #@! TO.C,TP1*
X80526904Y-72164960D02*
X79955476Y-72164960D01*
X80241190Y-73164960D02*
X80241190Y-72164960D01*
X79622142Y-73164960D02*
X79622142Y-72164960D01*
X79241190Y-72164960D01*
X79145952Y-72212580D01*
X79098333Y-72260199D01*
X79050714Y-72355437D01*
X79050714Y-72498294D01*
X79098333Y-72593532D01*
X79145952Y-72641151D01*
X79241190Y-72688770D01*
X79622142Y-72688770D01*
X78098333Y-73164960D02*
X78669761Y-73164960D01*
X78384047Y-73164960D02*
X78384047Y-72164960D01*
X78479285Y-72307818D01*
X78574523Y-72403056D01*
X78669761Y-72450675D01*
G04 #@! TO.C,TP11*
X77937315Y-45154600D02*
X77365886Y-45154600D01*
X77651600Y-46154600D02*
X77651600Y-45154600D01*
X77032553Y-46154600D02*
X77032553Y-45154600D01*
X76651600Y-45154600D01*
X76556362Y-45202220D01*
X76508743Y-45249839D01*
X76461124Y-45345077D01*
X76461124Y-45487934D01*
X76508743Y-45583172D01*
X76556362Y-45630791D01*
X76651600Y-45678410D01*
X77032553Y-45678410D01*
X75508743Y-46154600D02*
X76080172Y-46154600D01*
X75794458Y-46154600D02*
X75794458Y-45154600D01*
X75889696Y-45297458D01*
X75984934Y-45392696D01*
X76080172Y-45440315D01*
X74556362Y-46154600D02*
X75127791Y-46154600D01*
X74842077Y-46154600D02*
X74842077Y-45154600D01*
X74937315Y-45297458D01*
X75032553Y-45392696D01*
X75127791Y-45440315D01*
G04 #@! TO.C,J2*
X109951333Y-39838380D02*
X109951333Y-40552666D01*
X109998952Y-40695523D01*
X110094190Y-40790761D01*
X110237047Y-40838380D01*
X110332285Y-40838380D01*
X109522761Y-39933619D02*
X109475142Y-39886000D01*
X109379904Y-39838380D01*
X109141809Y-39838380D01*
X109046571Y-39886000D01*
X108998952Y-39933619D01*
X108951333Y-40028857D01*
X108951333Y-40124095D01*
X108998952Y-40266952D01*
X109570380Y-40838380D01*
X108951333Y-40838380D01*
X111116476Y-41967142D02*
X110506952Y-41967142D01*
X110811714Y-42271904D02*
X110811714Y-41662380D01*
X109745047Y-41471904D02*
X110126000Y-41471904D01*
X110164095Y-41852857D01*
X110126000Y-41814761D01*
X110049809Y-41776666D01*
X109859333Y-41776666D01*
X109783142Y-41814761D01*
X109745047Y-41852857D01*
X109706952Y-41929047D01*
X109706952Y-42119523D01*
X109745047Y-42195714D01*
X109783142Y-42233809D01*
X109859333Y-42271904D01*
X110049809Y-42271904D01*
X110126000Y-42233809D01*
X110164095Y-42195714D01*
X109440285Y-41738571D02*
X109249809Y-42271904D01*
X109059333Y-41738571D01*
X116672761Y-43033904D02*
X116672761Y-42233904D01*
X116482285Y-42233904D01*
X116368000Y-42272000D01*
X116291809Y-42348190D01*
X116253714Y-42424380D01*
X116215619Y-42576761D01*
X116215619Y-42691047D01*
X116253714Y-42843428D01*
X116291809Y-42919619D01*
X116368000Y-42995809D01*
X116482285Y-43033904D01*
X116672761Y-43033904D01*
X115872761Y-42729142D02*
X115263238Y-42729142D01*
X116876000Y-39517523D02*
X116914095Y-39593714D01*
X116914095Y-39708000D01*
X116876000Y-39822285D01*
X116799809Y-39898476D01*
X116723619Y-39936571D01*
X116571238Y-39974666D01*
X116456952Y-39974666D01*
X116304571Y-39936571D01*
X116228380Y-39898476D01*
X116152190Y-39822285D01*
X116114095Y-39708000D01*
X116114095Y-39631809D01*
X116152190Y-39517523D01*
X116190285Y-39479428D01*
X116456952Y-39479428D01*
X116456952Y-39631809D01*
X116114095Y-39136571D02*
X116914095Y-39136571D01*
X116114095Y-38679428D01*
X116914095Y-38679428D01*
X116114095Y-38298476D02*
X116914095Y-38298476D01*
X116914095Y-38108000D01*
X116876000Y-37993714D01*
X116799809Y-37917523D01*
X116723619Y-37879428D01*
X116571238Y-37841333D01*
X116456952Y-37841333D01*
X116304571Y-37879428D01*
X116228380Y-37917523D01*
X116152190Y-37993714D01*
X116114095Y-38108000D01*
X116114095Y-38298476D01*
X110253095Y-39485761D02*
X111053095Y-39485761D01*
X111053095Y-39295285D01*
X111015000Y-39181000D01*
X110938809Y-39104809D01*
X110862619Y-39066714D01*
X110710238Y-39028619D01*
X110595952Y-39028619D01*
X110443571Y-39066714D01*
X110367380Y-39104809D01*
X110291190Y-39181000D01*
X110253095Y-39295285D01*
X110253095Y-39485761D01*
X110557857Y-38685761D02*
X110557857Y-38076238D01*
X110253095Y-38381000D02*
X110862619Y-38381000D01*
G04 #@! TO.C,TP2*
X96305384Y-70465700D02*
X95733956Y-70465700D01*
X96019670Y-71465700D02*
X96019670Y-70465700D01*
X95400622Y-71465700D02*
X95400622Y-70465700D01*
X95019670Y-70465700D01*
X94924432Y-70513320D01*
X94876813Y-70560939D01*
X94829194Y-70656177D01*
X94829194Y-70799034D01*
X94876813Y-70894272D01*
X94924432Y-70941891D01*
X95019670Y-70989510D01*
X95400622Y-70989510D01*
X94448241Y-70560939D02*
X94400622Y-70513320D01*
X94305384Y-70465700D01*
X94067289Y-70465700D01*
X93972051Y-70513320D01*
X93924432Y-70560939D01*
X93876813Y-70656177D01*
X93876813Y-70751415D01*
X93924432Y-70894272D01*
X94495860Y-71465700D01*
X93876813Y-71465700D01*
G04 #@! TO.C,J5*
X113484333Y-84090380D02*
X113484333Y-84804666D01*
X113531952Y-84947523D01*
X113627190Y-85042761D01*
X113770047Y-85090380D01*
X113865285Y-85090380D01*
X112531952Y-84090380D02*
X113008142Y-84090380D01*
X113055761Y-84566571D01*
X113008142Y-84518952D01*
X112912904Y-84471333D01*
X112674809Y-84471333D01*
X112579571Y-84518952D01*
X112531952Y-84566571D01*
X112484333Y-84661809D01*
X112484333Y-84899904D01*
X112531952Y-84995142D01*
X112579571Y-85042761D01*
X112674809Y-85090380D01*
X112912904Y-85090380D01*
X113008142Y-85042761D01*
X113055761Y-84995142D01*
G04 #@! TO.C,J3*
X108311533Y-29524180D02*
X108311533Y-30238466D01*
X108359152Y-30381323D01*
X108454390Y-30476561D01*
X108597247Y-30524180D01*
X108692485Y-30524180D01*
X107930580Y-29524180D02*
X107311533Y-29524180D01*
X107644866Y-29905133D01*
X107502009Y-29905133D01*
X107406771Y-29952752D01*
X107359152Y-30000371D01*
X107311533Y-30095609D01*
X107311533Y-30333704D01*
X107359152Y-30428942D01*
X107406771Y-30476561D01*
X107502009Y-30524180D01*
X107787723Y-30524180D01*
X107882961Y-30476561D01*
X107930580Y-30428942D01*
G04 #@! TO.C,J4*
X109951333Y-45680380D02*
X109951333Y-46394666D01*
X109998952Y-46537523D01*
X110094190Y-46632761D01*
X110237047Y-46680380D01*
X110332285Y-46680380D01*
X109046571Y-46013714D02*
X109046571Y-46680380D01*
X109284666Y-45632761D02*
X109522761Y-46347047D01*
X108903714Y-46347047D01*
X110253095Y-44985761D02*
X111053095Y-44985761D01*
X111053095Y-44795285D01*
X111015000Y-44681000D01*
X110938809Y-44604809D01*
X110862619Y-44566714D01*
X110710238Y-44528619D01*
X110595952Y-44528619D01*
X110443571Y-44566714D01*
X110367380Y-44604809D01*
X110291190Y-44681000D01*
X110253095Y-44795285D01*
X110253095Y-44985761D01*
X110557857Y-44185761D02*
X110557857Y-43576238D01*
X110253095Y-43881000D02*
X110862619Y-43881000D01*
X116876000Y-45059523D02*
X116914095Y-45135714D01*
X116914095Y-45250000D01*
X116876000Y-45364285D01*
X116799809Y-45440476D01*
X116723619Y-45478571D01*
X116571238Y-45516666D01*
X116456952Y-45516666D01*
X116304571Y-45478571D01*
X116228380Y-45440476D01*
X116152190Y-45364285D01*
X116114095Y-45250000D01*
X116114095Y-45173809D01*
X116152190Y-45059523D01*
X116190285Y-45021428D01*
X116456952Y-45021428D01*
X116456952Y-45173809D01*
X116114095Y-44678571D02*
X116914095Y-44678571D01*
X116114095Y-44221428D01*
X116914095Y-44221428D01*
X116114095Y-43840476D02*
X116914095Y-43840476D01*
X116914095Y-43650000D01*
X116876000Y-43535714D01*
X116799809Y-43459523D01*
X116723619Y-43421428D01*
X116571238Y-43383333D01*
X116456952Y-43383333D01*
X116304571Y-43421428D01*
X116228380Y-43459523D01*
X116152190Y-43535714D01*
X116114095Y-43650000D01*
X116114095Y-43840476D01*
X115637761Y-49214904D02*
X115637761Y-48414904D01*
X115447285Y-48414904D01*
X115333000Y-48453000D01*
X115256809Y-48529190D01*
X115218714Y-48605380D01*
X115180619Y-48757761D01*
X115180619Y-48872047D01*
X115218714Y-49024428D01*
X115256809Y-49100619D01*
X115333000Y-49176809D01*
X115447285Y-49214904D01*
X115637761Y-49214904D01*
X114837761Y-48910142D02*
X114228238Y-48910142D01*
X112875476Y-48910142D02*
X112265952Y-48910142D01*
X112570714Y-49214904D02*
X112570714Y-48605380D01*
X111504047Y-48414904D02*
X111885000Y-48414904D01*
X111923095Y-48795857D01*
X111885000Y-48757761D01*
X111808809Y-48719666D01*
X111618333Y-48719666D01*
X111542142Y-48757761D01*
X111504047Y-48795857D01*
X111465952Y-48872047D01*
X111465952Y-49062523D01*
X111504047Y-49138714D01*
X111542142Y-49176809D01*
X111618333Y-49214904D01*
X111808809Y-49214904D01*
X111885000Y-49176809D01*
X111923095Y-49138714D01*
X111199285Y-48681571D02*
X111008809Y-49214904D01*
X110818333Y-48681571D01*
G04 #@! TO.C,TP4*
X77837044Y-48855380D02*
X77265616Y-48855380D01*
X77551330Y-49855380D02*
X77551330Y-48855380D01*
X76932282Y-49855380D02*
X76932282Y-48855380D01*
X76551330Y-48855380D01*
X76456092Y-48903000D01*
X76408473Y-48950619D01*
X76360854Y-49045857D01*
X76360854Y-49188714D01*
X76408473Y-49283952D01*
X76456092Y-49331571D01*
X76551330Y-49379190D01*
X76932282Y-49379190D01*
X75503711Y-49188714D02*
X75503711Y-49855380D01*
X75741806Y-48807761D02*
X75979901Y-49522047D01*
X75360854Y-49522047D01*
G04 #@! TO.C,TP3*
X90836764Y-73569580D02*
X90265336Y-73569580D01*
X90551050Y-74569580D02*
X90551050Y-73569580D01*
X89932002Y-74569580D02*
X89932002Y-73569580D01*
X89551050Y-73569580D01*
X89455812Y-73617200D01*
X89408193Y-73664819D01*
X89360574Y-73760057D01*
X89360574Y-73902914D01*
X89408193Y-73998152D01*
X89455812Y-74045771D01*
X89551050Y-74093390D01*
X89932002Y-74093390D01*
X89027240Y-73569580D02*
X88408193Y-73569580D01*
X88741526Y-73950533D01*
X88598669Y-73950533D01*
X88503431Y-73998152D01*
X88455812Y-74045771D01*
X88408193Y-74141009D01*
X88408193Y-74379104D01*
X88455812Y-74474342D01*
X88503431Y-74521961D01*
X88598669Y-74569580D01*
X88884383Y-74569580D01*
X88979621Y-74521961D01*
X89027240Y-74474342D01*
G04 #@! TO.C,J3*
X66511533Y-29524180D02*
X66511533Y-30238466D01*
X66559152Y-30381323D01*
X66654390Y-30476561D01*
X66797247Y-30524180D01*
X66892485Y-30524180D01*
X66130580Y-29524180D02*
X65511533Y-29524180D01*
X65844866Y-29905133D01*
X65702009Y-29905133D01*
X65606771Y-29952752D01*
X65559152Y-30000371D01*
X65511533Y-30095609D01*
X65511533Y-30333704D01*
X65559152Y-30428942D01*
X65606771Y-30476561D01*
X65702009Y-30524180D01*
X65987723Y-30524180D01*
X66082961Y-30476561D01*
X66130580Y-30428942D01*
G04 #@! TO.C,J1*
X69842973Y-63028700D02*
X69842973Y-63742986D01*
X69890592Y-63885843D01*
X69985830Y-63981081D01*
X70128687Y-64028700D01*
X70223925Y-64028700D01*
X68842973Y-64028700D02*
X69414401Y-64028700D01*
X69128687Y-64028700D02*
X69128687Y-63028700D01*
X69223925Y-63171558D01*
X69319163Y-63266796D01*
X69414401Y-63314415D01*
G04 #@! TO.C,J5*
X71684333Y-84090380D02*
X71684333Y-84804666D01*
X71731952Y-84947523D01*
X71827190Y-85042761D01*
X71970047Y-85090380D01*
X72065285Y-85090380D01*
X70731952Y-84090380D02*
X71208142Y-84090380D01*
X71255761Y-84566571D01*
X71208142Y-84518952D01*
X71112904Y-84471333D01*
X70874809Y-84471333D01*
X70779571Y-84518952D01*
X70731952Y-84566571D01*
X70684333Y-84661809D01*
X70684333Y-84899904D01*
X70731952Y-84995142D01*
X70779571Y-85042761D01*
X70874809Y-85090380D01*
X71112904Y-85090380D01*
X71208142Y-85042761D01*
X71255761Y-84995142D01*
G04 #@! TO.C,J2*
X68151333Y-39838380D02*
X68151333Y-40552666D01*
X68198952Y-40695523D01*
X68294190Y-40790761D01*
X68437047Y-40838380D01*
X68532285Y-40838380D01*
X67722761Y-39933619D02*
X67675142Y-39886000D01*
X67579904Y-39838380D01*
X67341809Y-39838380D01*
X67246571Y-39886000D01*
X67198952Y-39933619D01*
X67151333Y-40028857D01*
X67151333Y-40124095D01*
X67198952Y-40266952D01*
X67770380Y-40838380D01*
X67151333Y-40838380D01*
X68453095Y-39485761D02*
X69253095Y-39485761D01*
X69253095Y-39295285D01*
X69215000Y-39181000D01*
X69138809Y-39104809D01*
X69062619Y-39066714D01*
X68910238Y-39028619D01*
X68795952Y-39028619D01*
X68643571Y-39066714D01*
X68567380Y-39104809D01*
X68491190Y-39181000D01*
X68453095Y-39295285D01*
X68453095Y-39485761D01*
X68757857Y-38685761D02*
X68757857Y-38076238D01*
X68453095Y-38381000D02*
X69062619Y-38381000D01*
X75076000Y-39517523D02*
X75114095Y-39593714D01*
X75114095Y-39708000D01*
X75076000Y-39822285D01*
X74999809Y-39898476D01*
X74923619Y-39936571D01*
X74771238Y-39974666D01*
X74656952Y-39974666D01*
X74504571Y-39936571D01*
X74428380Y-39898476D01*
X74352190Y-39822285D01*
X74314095Y-39708000D01*
X74314095Y-39631809D01*
X74352190Y-39517523D01*
X74390285Y-39479428D01*
X74656952Y-39479428D01*
X74656952Y-39631809D01*
X74314095Y-39136571D02*
X75114095Y-39136571D01*
X74314095Y-38679428D01*
X75114095Y-38679428D01*
X74314095Y-38298476D02*
X75114095Y-38298476D01*
X75114095Y-38108000D01*
X75076000Y-37993714D01*
X74999809Y-37917523D01*
X74923619Y-37879428D01*
X74771238Y-37841333D01*
X74656952Y-37841333D01*
X74504571Y-37879428D01*
X74428380Y-37917523D01*
X74352190Y-37993714D01*
X74314095Y-38108000D01*
X74314095Y-38298476D01*
X74872761Y-43033904D02*
X74872761Y-42233904D01*
X74682285Y-42233904D01*
X74568000Y-42272000D01*
X74491809Y-42348190D01*
X74453714Y-42424380D01*
X74415619Y-42576761D01*
X74415619Y-42691047D01*
X74453714Y-42843428D01*
X74491809Y-42919619D01*
X74568000Y-42995809D01*
X74682285Y-43033904D01*
X74872761Y-43033904D01*
X74072761Y-42729142D02*
X73463238Y-42729142D01*
X69316476Y-41967142D02*
X68706952Y-41967142D01*
X69011714Y-42271904D02*
X69011714Y-41662380D01*
X67945047Y-41471904D02*
X68326000Y-41471904D01*
X68364095Y-41852857D01*
X68326000Y-41814761D01*
X68249809Y-41776666D01*
X68059333Y-41776666D01*
X67983142Y-41814761D01*
X67945047Y-41852857D01*
X67906952Y-41929047D01*
X67906952Y-42119523D01*
X67945047Y-42195714D01*
X67983142Y-42233809D01*
X68059333Y-42271904D01*
X68249809Y-42271904D01*
X68326000Y-42233809D01*
X68364095Y-42195714D01*
X67640285Y-41738571D02*
X67449809Y-42271904D01*
X67259333Y-41738571D01*
G04 #@! TO.C,TP1*
X38726904Y-72164960D02*
X38155476Y-72164960D01*
X38441190Y-73164960D02*
X38441190Y-72164960D01*
X37822142Y-73164960D02*
X37822142Y-72164960D01*
X37441190Y-72164960D01*
X37345952Y-72212580D01*
X37298333Y-72260199D01*
X37250714Y-72355437D01*
X37250714Y-72498294D01*
X37298333Y-72593532D01*
X37345952Y-72641151D01*
X37441190Y-72688770D01*
X37822142Y-72688770D01*
X36298333Y-73164960D02*
X36869761Y-73164960D01*
X36584047Y-73164960D02*
X36584047Y-72164960D01*
X36679285Y-72307818D01*
X36774523Y-72403056D01*
X36869761Y-72450675D01*
G04 #@! TO.C,TP2*
X54505384Y-70465700D02*
X53933956Y-70465700D01*
X54219670Y-71465700D02*
X54219670Y-70465700D01*
X53600622Y-71465700D02*
X53600622Y-70465700D01*
X53219670Y-70465700D01*
X53124432Y-70513320D01*
X53076813Y-70560939D01*
X53029194Y-70656177D01*
X53029194Y-70799034D01*
X53076813Y-70894272D01*
X53124432Y-70941891D01*
X53219670Y-70989510D01*
X53600622Y-70989510D01*
X52648241Y-70560939D02*
X52600622Y-70513320D01*
X52505384Y-70465700D01*
X52267289Y-70465700D01*
X52172051Y-70513320D01*
X52124432Y-70560939D01*
X52076813Y-70656177D01*
X52076813Y-70751415D01*
X52124432Y-70894272D01*
X52695860Y-71465700D01*
X52076813Y-71465700D01*
G04 #@! TO.C,TP3*
X49036764Y-73569580D02*
X48465336Y-73569580D01*
X48751050Y-74569580D02*
X48751050Y-73569580D01*
X48132002Y-74569580D02*
X48132002Y-73569580D01*
X47751050Y-73569580D01*
X47655812Y-73617200D01*
X47608193Y-73664819D01*
X47560574Y-73760057D01*
X47560574Y-73902914D01*
X47608193Y-73998152D01*
X47655812Y-74045771D01*
X47751050Y-74093390D01*
X48132002Y-74093390D01*
X47227240Y-73569580D02*
X46608193Y-73569580D01*
X46941526Y-73950533D01*
X46798669Y-73950533D01*
X46703431Y-73998152D01*
X46655812Y-74045771D01*
X46608193Y-74141009D01*
X46608193Y-74379104D01*
X46655812Y-74474342D01*
X46703431Y-74521961D01*
X46798669Y-74569580D01*
X47084383Y-74569580D01*
X47179621Y-74521961D01*
X47227240Y-74474342D01*
G04 #@! TO.C,TP4*
X36037044Y-48855380D02*
X35465616Y-48855380D01*
X35751330Y-49855380D02*
X35751330Y-48855380D01*
X35132282Y-49855380D02*
X35132282Y-48855380D01*
X34751330Y-48855380D01*
X34656092Y-48903000D01*
X34608473Y-48950619D01*
X34560854Y-49045857D01*
X34560854Y-49188714D01*
X34608473Y-49283952D01*
X34656092Y-49331571D01*
X34751330Y-49379190D01*
X35132282Y-49379190D01*
X33703711Y-49188714D02*
X33703711Y-49855380D01*
X33941806Y-48807761D02*
X34179901Y-49522047D01*
X33560854Y-49522047D01*
G04 #@! TO.C,TP10*
X44524395Y-73531480D02*
X43952966Y-73531480D01*
X44238680Y-74531480D02*
X44238680Y-73531480D01*
X43619633Y-74531480D02*
X43619633Y-73531480D01*
X43238680Y-73531480D01*
X43143442Y-73579100D01*
X43095823Y-73626719D01*
X43048204Y-73721957D01*
X43048204Y-73864814D01*
X43095823Y-73960052D01*
X43143442Y-74007671D01*
X43238680Y-74055290D01*
X43619633Y-74055290D01*
X42095823Y-74531480D02*
X42667252Y-74531480D01*
X42381538Y-74531480D02*
X42381538Y-73531480D01*
X42476776Y-73674338D01*
X42572014Y-73769576D01*
X42667252Y-73817195D01*
X41476776Y-73531480D02*
X41381538Y-73531480D01*
X41286300Y-73579100D01*
X41238680Y-73626719D01*
X41191061Y-73721957D01*
X41143442Y-73912433D01*
X41143442Y-74150528D01*
X41191061Y-74341004D01*
X41238680Y-74436242D01*
X41286300Y-74483861D01*
X41381538Y-74531480D01*
X41476776Y-74531480D01*
X41572014Y-74483861D01*
X41619633Y-74436242D01*
X41667252Y-74341004D01*
X41714871Y-74150528D01*
X41714871Y-73912433D01*
X41667252Y-73721957D01*
X41619633Y-73626719D01*
X41572014Y-73579100D01*
X41476776Y-73531480D01*
G04 #@! TO.C,TP11*
X36137315Y-45154600D02*
X35565886Y-45154600D01*
X35851600Y-46154600D02*
X35851600Y-45154600D01*
X35232553Y-46154600D02*
X35232553Y-45154600D01*
X34851600Y-45154600D01*
X34756362Y-45202220D01*
X34708743Y-45249839D01*
X34661124Y-45345077D01*
X34661124Y-45487934D01*
X34708743Y-45583172D01*
X34756362Y-45630791D01*
X34851600Y-45678410D01*
X35232553Y-45678410D01*
X33708743Y-46154600D02*
X34280172Y-46154600D01*
X33994458Y-46154600D02*
X33994458Y-45154600D01*
X34089696Y-45297458D01*
X34184934Y-45392696D01*
X34280172Y-45440315D01*
X32756362Y-46154600D02*
X33327791Y-46154600D01*
X33042077Y-46154600D02*
X33042077Y-45154600D01*
X33137315Y-45297458D01*
X33232553Y-45392696D01*
X33327791Y-45440315D01*
G04 #@! TO.C,J4*
X68151333Y-45680380D02*
X68151333Y-46394666D01*
X68198952Y-46537523D01*
X68294190Y-46632761D01*
X68437047Y-46680380D01*
X68532285Y-46680380D01*
X67246571Y-46013714D02*
X67246571Y-46680380D01*
X67484666Y-45632761D02*
X67722761Y-46347047D01*
X67103714Y-46347047D01*
X71075476Y-48910142D02*
X70465952Y-48910142D01*
X70770714Y-49214904D02*
X70770714Y-48605380D01*
X69704047Y-48414904D02*
X70085000Y-48414904D01*
X70123095Y-48795857D01*
X70085000Y-48757761D01*
X70008809Y-48719666D01*
X69818333Y-48719666D01*
X69742142Y-48757761D01*
X69704047Y-48795857D01*
X69665952Y-48872047D01*
X69665952Y-49062523D01*
X69704047Y-49138714D01*
X69742142Y-49176809D01*
X69818333Y-49214904D01*
X70008809Y-49214904D01*
X70085000Y-49176809D01*
X70123095Y-49138714D01*
X69399285Y-48681571D02*
X69208809Y-49214904D01*
X69018333Y-48681571D01*
X73837761Y-49214904D02*
X73837761Y-48414904D01*
X73647285Y-48414904D01*
X73533000Y-48453000D01*
X73456809Y-48529190D01*
X73418714Y-48605380D01*
X73380619Y-48757761D01*
X73380619Y-48872047D01*
X73418714Y-49024428D01*
X73456809Y-49100619D01*
X73533000Y-49176809D01*
X73647285Y-49214904D01*
X73837761Y-49214904D01*
X73037761Y-48910142D02*
X72428238Y-48910142D01*
X75076000Y-45059523D02*
X75114095Y-45135714D01*
X75114095Y-45250000D01*
X75076000Y-45364285D01*
X74999809Y-45440476D01*
X74923619Y-45478571D01*
X74771238Y-45516666D01*
X74656952Y-45516666D01*
X74504571Y-45478571D01*
X74428380Y-45440476D01*
X74352190Y-45364285D01*
X74314095Y-45250000D01*
X74314095Y-45173809D01*
X74352190Y-45059523D01*
X74390285Y-45021428D01*
X74656952Y-45021428D01*
X74656952Y-45173809D01*
X74314095Y-44678571D02*
X75114095Y-44678571D01*
X74314095Y-44221428D01*
X75114095Y-44221428D01*
X74314095Y-43840476D02*
X75114095Y-43840476D01*
X75114095Y-43650000D01*
X75076000Y-43535714D01*
X74999809Y-43459523D01*
X74923619Y-43421428D01*
X74771238Y-43383333D01*
X74656952Y-43383333D01*
X74504571Y-43421428D01*
X74428380Y-43459523D01*
X74352190Y-43535714D01*
X74314095Y-43650000D01*
X74314095Y-43840476D01*
X68453095Y-44985761D02*
X69253095Y-44985761D01*
X69253095Y-44795285D01*
X69215000Y-44681000D01*
X69138809Y-44604809D01*
X69062619Y-44566714D01*
X68910238Y-44528619D01*
X68795952Y-44528619D01*
X68643571Y-44566714D01*
X68567380Y-44604809D01*
X68491190Y-44681000D01*
X68453095Y-44795285D01*
X68453095Y-44985761D01*
X68757857Y-44185761D02*
X68757857Y-43576238D01*
X68453095Y-43881000D02*
X69062619Y-43881000D01*
G04 #@! TD*
M02*
