G04 #@! TF.GenerationSoftware,KiCad,Pcbnew,7.0.11-7.0.11~ubuntu23.10.1*
G04 #@! TF.CreationDate,2024-06-17T23:23:06+02:00*
G04 #@! TF.ProjectId,Hardware_NanoPi_v7_ConnectorPlate,48617264-7761-4726-955f-4e616e6f5069,rev?*
G04 #@! TF.SameCoordinates,Original*
G04 #@! TF.FileFunction,Soldermask,Top*
G04 #@! TF.FilePolarity,Negative*
%FSLAX46Y46*%
G04 Gerber Fmt 4.6, Leading zero omitted, Abs format (unit mm)*
G04 Created by KiCad (PCBNEW 7.0.11-7.0.11~ubuntu23.10.1) date 2024-06-17 23:23:06*
%MOMM*%
%LPD*%
G01*
G04 APERTURE LIST*
%ADD10R,0.500000X0.375000*%
%ADD11R,0.650000X0.300000*%
%ADD12R,1.000000X1.000000*%
%ADD13O,1.000000X1.000000*%
%ADD14O,1.900000X1.900000*%
%ADD15C,1.800000*%
%ADD16R,1.700000X1.700000*%
%ADD17O,1.700000X1.700000*%
G04 APERTURE END LIST*
D10*
G04 #@! TO.C,U2*
X7500000Y26487500D03*
D11*
X7425000Y25950000D03*
D10*
X7500000Y25412500D03*
X9200000Y25412500D03*
D11*
X9275000Y25950000D03*
D10*
X9200000Y26487500D03*
G04 #@! TD*
D12*
G04 #@! TO.C,J10*
X12000000Y52760000D03*
D13*
X12000000Y51490000D03*
X12000000Y50220000D03*
X12000000Y48950000D03*
G04 #@! TD*
D10*
G04 #@! TO.C,U1*
X7400000Y21837500D03*
D11*
X7325000Y21300000D03*
D10*
X7400000Y20762500D03*
X9100000Y20762500D03*
D11*
X9175000Y21300000D03*
D10*
X9100000Y21837500D03*
G04 #@! TD*
G04 #@! TO.C,U3*
X7600000Y48000000D03*
D11*
X7525000Y47462500D03*
D10*
X7600000Y46925000D03*
X9300000Y46925000D03*
D11*
X9375000Y47462500D03*
D10*
X9300000Y48000000D03*
G04 #@! TD*
D12*
G04 #@! TO.C,J6*
X12000000Y31170000D03*
D13*
X12000000Y29900000D03*
X12000000Y28630000D03*
X12000000Y27360000D03*
X12000000Y26090000D03*
X12000000Y24820000D03*
X12000000Y23550000D03*
X12000000Y22280000D03*
X12000000Y21010000D03*
G04 #@! TD*
D14*
G04 #@! TO.C,J4*
X7500000Y51030000D03*
X4960000Y53570000D03*
X4960000Y51030000D03*
X7500000Y53570000D03*
G04 #@! TD*
G04 #@! TO.C,J3*
X8500000Y15500000D03*
X11040000Y15500000D03*
X11040000Y18040000D03*
X8500000Y18040000D03*
G04 #@! TD*
G04 #@! TO.C,J2*
X5000000Y31770000D03*
X7540000Y29230000D03*
X7540000Y31770000D03*
X5000000Y29230000D03*
G04 #@! TD*
D15*
G04 #@! TO.C,J5*
X5500000Y2230000D03*
X5500000Y4770000D03*
X7405000Y3500000D03*
G04 #@! TD*
D16*
G04 #@! TO.C,J12*
X2000000Y41520000D03*
D17*
X2000000Y38980000D03*
G04 #@! TD*
D12*
G04 #@! TO.C,J8*
X12000000Y13390000D03*
D13*
X12000000Y12120000D03*
X12000000Y10850000D03*
X12000000Y9580000D03*
X12000000Y8310000D03*
X12000000Y7040000D03*
X12000000Y5770000D03*
X12000000Y4500000D03*
X12000000Y3230000D03*
G04 #@! TD*
D16*
G04 #@! TO.C,J11*
X4000000Y11700000D03*
D17*
X1460000Y11700000D03*
G04 #@! TD*
M02*
