G04 #@! TF.GenerationSoftware,KiCad,Pcbnew,7.0.11-7.0.11~ubuntu23.10.1*
G04 #@! TF.CreationDate,2024-06-17T23:23:06+02:00*
G04 #@! TF.ProjectId,Hardware_NanoPi_v7_ConnectorPlate,48617264-7761-4726-955f-4e616e6f5069,rev?*
G04 #@! TF.SameCoordinates,Original*
G04 #@! TF.FileFunction,Profile,NP*
%FSLAX46Y46*%
G04 Gerber Fmt 4.6, Leading zero omitted, Abs format (unit mm)*
G04 Created by KiCad (PCBNEW 7.0.11-7.0.11~ubuntu23.10.1) date 2024-06-17 23:23:06*
%MOMM*%
%LPD*%
G01*
G04 APERTURE LIST*
G04 #@! TA.AperFunction,Profile*
%ADD10C,0.100000*%
G04 #@! TD*
G04 APERTURE END LIST*
D10*
X0Y24853553D02*
X0Y3000000D01*
X500000Y25353600D02*
G75*
G03*
X0Y24853553I0J-500000D01*
G01*
X16000000Y46500000D02*
X16000000Y57000000D01*
X1000047Y36146447D02*
G75*
G03*
X500000Y36646447I-500047J-47D01*
G01*
X5500000Y41146400D02*
G75*
G03*
X5000000Y40646447I0J-500000D01*
G01*
X0Y53000000D02*
X0Y37146447D01*
X7000000Y45500000D02*
X15000000Y45500000D01*
X15000000Y-2000000D02*
G75*
G03*
X16000000Y-1000000I0J1000000D01*
G01*
X500000Y53500000D02*
G75*
G03*
X1000000Y54000000I0J500000D01*
G01*
X16000000Y57000000D02*
G75*
G03*
X15000000Y58000000I-1000000J0D01*
G01*
X1000000Y-1000000D02*
G75*
G03*
X2000000Y-2000000I1000000J0D01*
G01*
X1000000Y36146447D02*
X1000000Y25853553D01*
X2000002Y57999998D02*
G75*
G03*
X1000002Y57000000I-2J-999998D01*
G01*
X5500000Y41146400D02*
G75*
G03*
X6000000Y41646447I0J500000D01*
G01*
X16000000Y33500000D02*
G75*
G03*
X15000000Y34500000I-1000000J0D01*
G01*
X6000000Y41646447D02*
X6000000Y44500000D01*
X1000000Y2000000D02*
X1000000Y-1000000D01*
X47Y37146447D02*
G75*
G03*
X500000Y36646447I499953J-47D01*
G01*
X7000000Y45500000D02*
G75*
G03*
X6000000Y44500000I0J-1000000D01*
G01*
X15000000Y45500000D02*
G75*
G03*
X16000000Y46500000I0J1000000D01*
G01*
X500000Y53500000D02*
G75*
G03*
X0Y53000000I0J-500000D01*
G01*
X16000000Y-1000000D02*
X16000000Y33500000D01*
X15000000Y58000000D02*
X2000000Y58000000D01*
X1000000Y2000000D02*
G75*
G03*
X500000Y2500000I-500000J0D01*
G01*
X15000000Y34500000D02*
X7000000Y34500000D01*
X0Y3000000D02*
G75*
G03*
X500000Y2500000I500000J0D01*
G01*
X500000Y25353600D02*
G75*
G03*
X1000000Y25853553I0J500000D01*
G01*
X5000000Y40646447D02*
X5000000Y36500000D01*
X1000002Y57000000D02*
X1000000Y54000000D01*
X5000000Y36500000D02*
G75*
G03*
X7000000Y34500000I2000000J0D01*
G01*
X15000000Y-2000000D02*
X2000000Y-2000000D01*
M02*
