%TF.GenerationSoftware,KiCad,Pcbnew,7.0.11-7.0.11~ubuntu23.10.1*%
%TF.CreationDate,2024-06-17T23:23:06+02:00*%
%TF.ProjectId,Hardware_NanoPi_v7_ConnectorPlate,48617264-7761-4726-955f-4e616e6f5069,rev?*%
%TF.SameCoordinates,Original*%
%TF.FileFunction,Drillmap*%
%TF.FilePolarity,Positive*%
%FSLAX45Y45*%
G04 Gerber Fmt 4.5, Leading zero omitted, Abs format (unit mm)*
G04 Created by KiCad (PCBNEW 7.0.11-7.0.11~ubuntu23.10.1) date 2024-06-17 23:23:06*
%MOMM*%
%LPD*%
G01*
G04 APERTURE LIST*
%ADD10C,0.100000*%
%ADD11C,0.200000*%
G04 APERTURE END LIST*
D10*
X0Y2485355D02*
X0Y300000D01*
X50000Y2535360D02*
G75*
G03*
X0Y2485355I0J-50000D01*
G01*
X1600000Y4650000D02*
X1600000Y5700000D01*
X100005Y3614645D02*
G75*
G03*
X50000Y3664645I-50005J-5D01*
G01*
X550000Y4114640D02*
G75*
G03*
X500000Y4064645I0J-50000D01*
G01*
X0Y5300000D02*
X0Y3714645D01*
X700000Y4550000D02*
X1500000Y4550000D01*
X1500000Y-200000D02*
G75*
G03*
X1600000Y-100000I0J100000D01*
G01*
X50000Y5350000D02*
G75*
G03*
X100000Y5400000I0J50000D01*
G01*
X1600000Y5700000D02*
G75*
G03*
X1500000Y5800000I-100000J0D01*
G01*
X100000Y-100000D02*
G75*
G03*
X200000Y-200000I100000J0D01*
G01*
X100000Y3614645D02*
X100000Y2585355D01*
X200000Y5800000D02*
G75*
G03*
X100000Y5700000I0J-100000D01*
G01*
X550000Y4114640D02*
G75*
G03*
X600000Y4164645I0J50000D01*
G01*
X1600000Y3350000D02*
G75*
G03*
X1500000Y3450000I-100000J0D01*
G01*
X600000Y4164645D02*
X600000Y4450000D01*
X100000Y200000D02*
X100000Y-100000D01*
X5Y3714645D02*
G75*
G03*
X50000Y3664645I49995J-5D01*
G01*
X700000Y4550000D02*
G75*
G03*
X600000Y4450000I0J-100000D01*
G01*
X1500000Y4550000D02*
G75*
G03*
X1600000Y4650000I0J100000D01*
G01*
X50000Y5350000D02*
G75*
G03*
X0Y5300000I0J-50000D01*
G01*
X1600000Y-100000D02*
X1600000Y3350000D01*
X1500000Y5800000D02*
X200000Y5800000D01*
X100000Y200000D02*
G75*
G03*
X50000Y250000I-50000J0D01*
G01*
X1500000Y3450000D02*
X700000Y3450000D01*
X0Y300000D02*
G75*
G03*
X50000Y250000I50000J0D01*
G01*
X50000Y2535360D02*
G75*
G03*
X100000Y2585355I0J50000D01*
G01*
X500000Y4064645D02*
X500000Y3650000D01*
X100000Y5700000D02*
X100000Y5400000D01*
X500000Y3650000D02*
G75*
G03*
X700000Y3450000I200000J0D01*
G01*
X1500000Y-200000D02*
X200000Y-200000D01*
D11*
X255777Y-516484D02*
X255777Y-316484D01*
X255777Y-316484D02*
X303396Y-316484D01*
X303396Y-316484D02*
X331967Y-326008D01*
X331967Y-326008D02*
X351015Y-345055D01*
X351015Y-345055D02*
X360539Y-364103D01*
X360539Y-364103D02*
X370062Y-402198D01*
X370062Y-402198D02*
X370062Y-430769D01*
X370062Y-430769D02*
X360539Y-468865D01*
X360539Y-468865D02*
X351015Y-487912D01*
X351015Y-487912D02*
X331967Y-506960D01*
X331967Y-506960D02*
X303396Y-516484D01*
X303396Y-516484D02*
X255777Y-516484D01*
X455777Y-516484D02*
X455777Y-383150D01*
X455777Y-421246D02*
X465301Y-402198D01*
X465301Y-402198D02*
X474824Y-392674D01*
X474824Y-392674D02*
X493872Y-383150D01*
X493872Y-383150D02*
X512920Y-383150D01*
X579586Y-516484D02*
X579586Y-383150D01*
X579586Y-316484D02*
X570063Y-326008D01*
X570063Y-326008D02*
X579586Y-335531D01*
X579586Y-335531D02*
X589110Y-326008D01*
X589110Y-326008D02*
X579586Y-316484D01*
X579586Y-316484D02*
X579586Y-335531D01*
X703396Y-516484D02*
X684348Y-506960D01*
X684348Y-506960D02*
X674824Y-487912D01*
X674824Y-487912D02*
X674824Y-316484D01*
X808158Y-516484D02*
X789110Y-506960D01*
X789110Y-506960D02*
X779586Y-487912D01*
X779586Y-487912D02*
X779586Y-316484D01*
X1036729Y-516484D02*
X1036729Y-316484D01*
X1036729Y-316484D02*
X1103396Y-459341D01*
X1103396Y-459341D02*
X1170063Y-316484D01*
X1170063Y-316484D02*
X1170063Y-516484D01*
X1351015Y-516484D02*
X1351015Y-411722D01*
X1351015Y-411722D02*
X1341491Y-392674D01*
X1341491Y-392674D02*
X1322444Y-383150D01*
X1322444Y-383150D02*
X1284348Y-383150D01*
X1284348Y-383150D02*
X1265301Y-392674D01*
X1351015Y-506960D02*
X1331967Y-516484D01*
X1331967Y-516484D02*
X1284348Y-516484D01*
X1284348Y-516484D02*
X1265301Y-506960D01*
X1265301Y-506960D02*
X1255777Y-487912D01*
X1255777Y-487912D02*
X1255777Y-468865D01*
X1255777Y-468865D02*
X1265301Y-449817D01*
X1265301Y-449817D02*
X1284348Y-440293D01*
X1284348Y-440293D02*
X1331967Y-440293D01*
X1331967Y-440293D02*
X1351015Y-430769D01*
X1446253Y-383150D02*
X1446253Y-583150D01*
X1446253Y-392674D02*
X1465301Y-383150D01*
X1465301Y-383150D02*
X1503396Y-383150D01*
X1503396Y-383150D02*
X1522443Y-392674D01*
X1522443Y-392674D02*
X1531967Y-402198D01*
X1531967Y-402198D02*
X1541491Y-421246D01*
X1541491Y-421246D02*
X1541491Y-478388D01*
X1541491Y-478388D02*
X1531967Y-497436D01*
X1531967Y-497436D02*
X1522443Y-506960D01*
X1522443Y-506960D02*
X1503396Y-516484D01*
X1503396Y-516484D02*
X1465301Y-516484D01*
X1465301Y-516484D02*
X1446253Y-506960D01*
X1627205Y-497436D02*
X1636729Y-506960D01*
X1636729Y-506960D02*
X1627205Y-516484D01*
X1627205Y-516484D02*
X1617682Y-506960D01*
X1617682Y-506960D02*
X1627205Y-497436D01*
X1627205Y-497436D02*
X1627205Y-516484D01*
X1627205Y-392674D02*
X1636729Y-402198D01*
X1636729Y-402198D02*
X1627205Y-411722D01*
X1627205Y-411722D02*
X1617682Y-402198D01*
X1617682Y-402198D02*
X1627205Y-392674D01*
X1627205Y-392674D02*
X1627205Y-411722D01*
M02*
