G04 #@! TF.GenerationSoftware,KiCad,Pcbnew,7.0.11-7.0.11~ubuntu23.10.1*
G04 #@! TF.CreationDate,2024-06-17T23:23:06+02:00*
G04 #@! TF.ProjectId,Hardware_NanoPi_v7_ConnectorPlate,48617264-7761-4726-955f-4e616e6f5069,rev?*
G04 #@! TF.SameCoordinates,Original*
G04 #@! TF.FileFunction,Copper,L1,Top*
G04 #@! TF.FilePolarity,Positive*
%FSLAX46Y46*%
G04 Gerber Fmt 4.6, Leading zero omitted, Abs format (unit mm)*
G04 Created by KiCad (PCBNEW 7.0.11-7.0.11~ubuntu23.10.1) date 2024-06-17 23:23:06*
%MOMM*%
%LPD*%
G01*
G04 APERTURE LIST*
G04 #@! TA.AperFunction,SMDPad,CuDef*
%ADD10R,0.500000X0.375000*%
G04 #@! TD*
G04 #@! TA.AperFunction,SMDPad,CuDef*
%ADD11R,0.650000X0.300000*%
G04 #@! TD*
G04 #@! TA.AperFunction,ComponentPad*
%ADD12R,1.000000X1.000000*%
G04 #@! TD*
G04 #@! TA.AperFunction,ComponentPad*
%ADD13O,1.000000X1.000000*%
G04 #@! TD*
G04 #@! TA.AperFunction,ComponentPad*
%ADD14O,1.900000X1.900000*%
G04 #@! TD*
G04 #@! TA.AperFunction,ComponentPad*
%ADD15C,1.800000*%
G04 #@! TD*
G04 #@! TA.AperFunction,ComponentPad*
%ADD16R,1.700000X1.700000*%
G04 #@! TD*
G04 #@! TA.AperFunction,ComponentPad*
%ADD17O,1.700000X1.700000*%
G04 #@! TD*
G04 #@! TA.AperFunction,ViaPad*
%ADD18C,0.800000*%
G04 #@! TD*
G04 #@! TA.AperFunction,Conductor*
%ADD19C,0.250000*%
G04 #@! TD*
G04 #@! TA.AperFunction,Conductor*
%ADD20C,0.300000*%
G04 #@! TD*
G04 #@! TA.AperFunction,Conductor*
%ADD21C,1.000000*%
G04 #@! TD*
G04 #@! TA.AperFunction,Conductor*
%ADD22C,0.600000*%
G04 #@! TD*
G04 #@! TA.AperFunction,Conductor*
%ADD23C,0.800000*%
G04 #@! TD*
G04 APERTURE END LIST*
D10*
G04 #@! TO.P,U2,1,I/O1*
G04 #@! TO.N,Net-(J2-Pin_2)*
X7500000Y26487500D03*
D11*
G04 #@! TO.P,U2,2,GND*
G04 #@! TO.N,GND*
X7425000Y25950000D03*
D10*
G04 #@! TO.P,U2,3,I/O2*
G04 #@! TO.N,Net-(J2-Pin_3)*
X7500000Y25412500D03*
G04 #@! TO.P,U2,4,I/O2*
G04 #@! TO.N,USBHost-DP1*
X9200000Y25412500D03*
D11*
G04 #@! TO.P,U2,5,VBUS*
G04 #@! TO.N,VDD_5V*
X9275000Y25950000D03*
D10*
G04 #@! TO.P,U2,6,I/O1*
G04 #@! TO.N,USBHost-DM1*
X9200000Y26487500D03*
G04 #@! TD*
D12*
G04 #@! TO.P,J10,1,Pin_1*
G04 #@! TO.N,unconnected-(J10-Pin_1-Pad1)*
X12000000Y52760000D03*
D13*
G04 #@! TO.P,J10,2,Pin_2*
G04 #@! TO.N,unconnected-(J10-Pin_2-Pad2)*
X12000000Y51490000D03*
G04 #@! TO.P,J10,3,Pin_3*
G04 #@! TO.N,unconnected-(J10-Pin_3-Pad3)*
X12000000Y50220000D03*
G04 #@! TO.P,J10,4,Pin_4*
G04 #@! TO.N,unconnected-(J10-Pin_4-Pad4)*
X12000000Y48950000D03*
G04 #@! TD*
D10*
G04 #@! TO.P,U1,1,I/O1*
G04 #@! TO.N,Net-(J3-Pin_2)*
X7400000Y21837500D03*
D11*
G04 #@! TO.P,U1,2,GND*
G04 #@! TO.N,GND*
X7325000Y21300000D03*
D10*
G04 #@! TO.P,U1,3,I/O2*
G04 #@! TO.N,Net-(J3-Pin_3)*
X7400000Y20762500D03*
G04 #@! TO.P,U1,4,I/O2*
G04 #@! TO.N,USBHost-DP2*
X9100000Y20762500D03*
D11*
G04 #@! TO.P,U1,5,VBUS*
G04 #@! TO.N,VDD_5V*
X9175000Y21300000D03*
D10*
G04 #@! TO.P,U1,6,I/O1*
G04 #@! TO.N,USBHost-DM2*
X9100000Y21837500D03*
G04 #@! TD*
G04 #@! TO.P,U3,1,I/O1*
G04 #@! TO.N,unconnected-(U3-I{slash}O1-Pad1)*
X7600000Y48000000D03*
D11*
G04 #@! TO.P,U3,2,GND*
G04 #@! TO.N,GND*
X7525000Y47462500D03*
D10*
G04 #@! TO.P,U3,3,I/O2*
G04 #@! TO.N,unconnected-(U3-I{slash}O2-Pad3)*
X7600000Y46925000D03*
G04 #@! TO.P,U3,4,I/O2*
G04 #@! TO.N,unconnected-(U3-I{slash}O2-Pad4)*
X9300000Y46925000D03*
D11*
G04 #@! TO.P,U3,5,VBUS*
G04 #@! TO.N,VBUS*
X9375000Y47462500D03*
D10*
G04 #@! TO.P,U3,6,I/O1*
G04 #@! TO.N,unconnected-(U3-I{slash}O1-Pad6)*
X9300000Y48000000D03*
G04 #@! TD*
D12*
G04 #@! TO.P,J6,1,Pin_1*
G04 #@! TO.N,VBUS*
X12000000Y31170000D03*
D13*
G04 #@! TO.P,J6,2,Pin_2*
G04 #@! TO.N,GND*
X12000000Y29900000D03*
G04 #@! TO.P,J6,3,Pin_3*
G04 #@! TO.N,unconnected-(J6-Pin_3-Pad3)*
X12000000Y28630000D03*
G04 #@! TO.P,J6,4,Pin_4*
G04 #@! TO.N,GND*
X12000000Y27360000D03*
G04 #@! TO.P,J6,5,Pin_5*
G04 #@! TO.N,USBHost-DP1*
X12000000Y26090000D03*
G04 #@! TO.P,J6,6,Pin_6*
G04 #@! TO.N,USBHost-DM1*
X12000000Y24820000D03*
G04 #@! TO.P,J6,7,Pin_7*
G04 #@! TO.N,VDD_5V*
X12000000Y23550000D03*
G04 #@! TO.P,J6,8,Pin_8*
G04 #@! TO.N,USBHost-DP2*
X12000000Y22280000D03*
G04 #@! TO.P,J6,9,Pin_9*
G04 #@! TO.N,USBHost-DM2*
X12000000Y21010000D03*
G04 #@! TD*
D14*
G04 #@! TO.P,J4,1,Pin_1*
G04 #@! TO.N,VBUS*
X7500000Y51030000D03*
G04 #@! TO.P,J4,2,Pin_2*
G04 #@! TO.N,unconnected-(J4-Pin_2-Pad2)*
X4960000Y53570000D03*
G04 #@! TO.P,J4,3,Pin_3*
G04 #@! TO.N,unconnected-(J4-Pin_3-Pad3)*
X4960000Y51030000D03*
G04 #@! TO.P,J4,4,Pin_4*
G04 #@! TO.N,GND*
X7500000Y53570000D03*
G04 #@! TD*
G04 #@! TO.P,J3,1,Pin_1*
G04 #@! TO.N,VDD_5V*
X8500000Y15500000D03*
G04 #@! TO.P,J3,2,Pin_2*
G04 #@! TO.N,Net-(J3-Pin_2)*
X11040000Y15500000D03*
G04 #@! TO.P,J3,3,Pin_3*
G04 #@! TO.N,Net-(J3-Pin_3)*
X11040000Y18040000D03*
G04 #@! TO.P,J3,4,Pin_4*
G04 #@! TO.N,GND*
X8500000Y18040000D03*
G04 #@! TD*
G04 #@! TO.P,J2,1,Pin_1*
G04 #@! TO.N,VDD_5V*
X5000000Y31770000D03*
G04 #@! TO.P,J2,2,Pin_2*
G04 #@! TO.N,Net-(J2-Pin_2)*
X7540000Y29230000D03*
G04 #@! TO.P,J2,3,Pin_3*
G04 #@! TO.N,Net-(J2-Pin_3)*
X7540000Y31770000D03*
G04 #@! TO.P,J2,4,Pin_4*
G04 #@! TO.N,GND*
X5000000Y29230000D03*
G04 #@! TD*
D15*
G04 #@! TO.P,J5,1,Pin_1*
G04 #@! TO.N,R2IN*
X5500000Y2230000D03*
G04 #@! TO.P,J5,2,Pin_2*
G04 #@! TO.N,T2OUT*
X5500000Y4770000D03*
G04 #@! TO.P,J5,3,Pin_3*
G04 #@! TO.N,GND*
X7405000Y3500000D03*
G04 #@! TD*
D16*
G04 #@! TO.P,J12,1,Pin_1*
G04 #@! TO.N,GND*
X2000000Y41520000D03*
D17*
G04 #@! TO.P,J12,2,Pin_2*
G04 #@! TO.N,PWRBTN*
X2000000Y38980000D03*
G04 #@! TD*
D12*
G04 #@! TO.P,J8,1,Pin_1*
G04 #@! TO.N,T2OUT*
X12000000Y13390000D03*
D13*
G04 #@! TO.P,J8,2,Pin_2*
G04 #@! TO.N,R2IN*
X12000000Y12120000D03*
G04 #@! TO.P,J8,3,Pin_3*
G04 #@! TO.N,GND*
X12000000Y10850000D03*
G04 #@! TO.P,J8,4,Pin_4*
G04 #@! TO.N,unconnected-(J8-Pin_4-Pad4)*
X12000000Y9580000D03*
G04 #@! TO.P,J8,5,Pin_5*
G04 #@! TO.N,unconnected-(J8-Pin_5-Pad5)*
X12000000Y8310000D03*
G04 #@! TO.P,J8,6,Pin_6*
G04 #@! TO.N,unconnected-(J8-Pin_6-Pad6)*
X12000000Y7040000D03*
G04 #@! TO.P,J8,7,Pin_7*
G04 #@! TO.N,unconnected-(J8-Pin_7-Pad7)*
X12000000Y5770000D03*
G04 #@! TO.P,J8,8,Pin_8*
G04 #@! TO.N,GND*
X12000000Y4500000D03*
G04 #@! TO.P,J8,9,Pin_9*
G04 #@! TO.N,PWRBTN*
X12000000Y3230000D03*
G04 #@! TD*
D16*
G04 #@! TO.P,J11,1,Pin_1*
G04 #@! TO.N,GND*
X4000000Y11700000D03*
D17*
G04 #@! TO.P,J11,2,Pin_2*
G04 #@! TO.N,PWRBTN*
X1460000Y11700000D03*
G04 #@! TD*
D18*
G04 #@! TO.N,USBHost-DM2*
X9200000Y22775000D03*
G04 #@! TO.N,USBHost-DP1*
X9200000Y24400000D03*
G04 #@! TO.N,GND*
X3750000Y23600000D03*
X10450000Y4500000D03*
X10575001Y10825000D03*
X1600000Y47800000D03*
X6300000Y27450000D03*
X7950000Y5600000D03*
X9350000Y2900000D03*
X6200000Y46750000D03*
X7150000Y12600000D03*
X6050000Y21250000D03*
X5450000Y19400000D03*
X14300000Y56550000D03*
X14800000Y46600000D03*
X10150000Y30350000D03*
X3000000Y56750000D03*
X10200000Y27750000D03*
G04 #@! TD*
D19*
G04 #@! TO.N,T2OUT*
X5500000Y4770000D02*
X5500000Y5000000D01*
X10740000Y13390000D02*
X12000000Y13390000D01*
X9100000Y11750000D02*
X10740000Y13390000D01*
X9100000Y8600000D02*
X9100000Y11750000D01*
X5500000Y5000000D02*
X9100000Y8600000D01*
G04 #@! TO.N,R2IN*
X6080000Y1650000D02*
X5500000Y2230000D01*
X9400000Y1650000D02*
X6080000Y1650000D01*
X10200000Y3250000D02*
X10200000Y2450000D01*
X10200000Y2450000D02*
X9400000Y1650000D01*
X9550000Y3900000D02*
X10200000Y3250000D01*
X10844695Y12120000D02*
X9550000Y10825305D01*
X9550000Y10825305D02*
X9550000Y3900000D01*
X12000000Y12120000D02*
X10844695Y12120000D01*
D20*
G04 #@! TO.N,USBHost-DM2*
X9200000Y22775000D02*
X9200000Y21937500D01*
X9200000Y21937500D02*
X9100000Y21837500D01*
G04 #@! TO.N,USBHost-DP2*
X10112500Y20762500D02*
X11050000Y21700000D01*
X11050000Y22100000D02*
X11230000Y22280000D01*
X11230000Y22280000D02*
X12000000Y22280000D01*
X9100000Y20762500D02*
X10112500Y20762500D01*
X11050000Y21700000D02*
X11050000Y22100000D01*
G04 #@! TO.N,VDD_5V*
X10500000Y24300000D02*
X11250000Y23550000D01*
X9175000Y21300000D02*
X9700000Y21300000D01*
X9700000Y21300000D02*
X10500000Y22100000D01*
X10500000Y22800000D02*
X11250000Y23550000D01*
X10500000Y25650000D02*
X10500000Y24300000D01*
X10200000Y25950000D02*
X10500000Y25650000D01*
X11250000Y23550000D02*
X12000000Y23550000D01*
X10500000Y22100000D02*
X10500000Y22800000D01*
X9275000Y25950000D02*
X10200000Y25950000D01*
G04 #@! TO.N,USBHost-DM1*
X11050000Y25100000D02*
X11330000Y24820000D01*
X10612500Y26487500D02*
X11050000Y26050000D01*
X11050000Y26050000D02*
X11050000Y25100000D01*
X11330000Y24820000D02*
X12000000Y24820000D01*
X9200000Y26487500D02*
X10612500Y26487500D01*
G04 #@! TO.N,USBHost-DP1*
X9200000Y24400000D02*
X9200000Y25412500D01*
G04 #@! TO.N,GND*
X5000000Y27600000D02*
X5000000Y29230000D01*
X6100000Y21300000D02*
X6050000Y21250000D01*
X7525000Y47462500D02*
X6912500Y47462500D01*
X7425000Y25950000D02*
X6650000Y25950000D01*
X6650000Y25950000D02*
X5000000Y27600000D01*
X7325000Y21300000D02*
X6100000Y21300000D01*
X6912500Y47462500D02*
X6200000Y46750000D01*
D21*
G04 #@! TO.N,VBUS*
X9470000Y33700000D02*
X5800000Y33700000D01*
X7500000Y50400000D02*
X7500000Y51030000D01*
X4000000Y46900000D02*
X5350000Y48250000D01*
D20*
X8637500Y47462500D02*
X8350000Y47750000D01*
X8350000Y50180000D02*
X7500000Y51030000D01*
D21*
X12000000Y31170000D02*
X9470000Y33700000D01*
X5350000Y48250000D02*
X7500000Y50400000D01*
D20*
X8350000Y47750000D02*
X8350000Y50180000D01*
D21*
X4000000Y35500000D02*
X4000000Y46900000D01*
D20*
X9375000Y47462500D02*
X8637500Y47462500D01*
D21*
X5800000Y33700000D02*
X4000000Y35500000D01*
D19*
G04 #@! TO.N,PWRBTN*
X4475000Y500000D02*
X1460000Y3515000D01*
X1460000Y3515000D02*
X1460000Y11700000D01*
X2500000Y38480000D02*
X2000000Y38980000D01*
X2000000Y12240000D02*
X1460000Y11700000D01*
X12000000Y3230000D02*
X12000000Y2350000D01*
X12000000Y2350000D02*
X10150000Y500000D01*
X2000000Y38980000D02*
X2000000Y12240000D01*
X10150000Y500000D02*
X4475000Y500000D01*
D20*
G04 #@! TO.N,Net-(J2-Pin_2)*
X7500000Y29190000D02*
X7540000Y29230000D01*
X7500000Y26487500D02*
X7500000Y29190000D01*
D22*
X7540000Y28690000D02*
X7540000Y29230000D01*
D20*
G04 #@! TO.N,Net-(J2-Pin_3)*
X8112500Y25412500D02*
X7500000Y25412500D01*
X8300000Y26700000D02*
X8300000Y25600000D01*
X8840000Y30470000D02*
X8840000Y27240000D01*
X7540000Y31770000D02*
X8840000Y30470000D01*
X8300000Y25600000D02*
X8112500Y25412500D01*
X8840000Y27240000D02*
X8300000Y26700000D01*
G04 #@! TO.N,Net-(J3-Pin_2)*
X7400000Y21837500D02*
X7962500Y21837500D01*
X8200000Y21600000D02*
X8200000Y20650000D01*
X12800000Y17260000D02*
X11040000Y15500000D01*
D23*
X11040000Y15540000D02*
X11040000Y15500000D01*
D20*
X10350000Y19800000D02*
X11800000Y19800000D01*
X11800000Y19800000D02*
X12800000Y18800000D01*
X12800000Y18800000D02*
X12800000Y17260000D01*
X8200000Y20650000D02*
X8650000Y20200000D01*
X7962500Y21837500D02*
X8200000Y21600000D01*
X8650000Y20200000D02*
X9950000Y20200000D01*
X9950000Y20200000D02*
X10350000Y19800000D01*
G04 #@! TO.N,Net-(J3-Pin_3)*
X7400000Y20762500D02*
X7400000Y20350000D01*
X9380000Y19700000D02*
X11040000Y18040000D01*
X8050000Y19700000D02*
X9380000Y19700000D01*
X7400000Y20350000D02*
X8050000Y19700000D01*
G04 #@! TD*
G04 #@! TA.AperFunction,Conductor*
G04 #@! TO.N,GND*
G36*
X15008647Y34498743D02*
G01*
X15026944Y34497143D01*
X15044449Y34495612D01*
X15046360Y34495434D01*
X15165655Y34483685D01*
X15197623Y34477868D01*
X15255269Y34462422D01*
X15261410Y34460668D01*
X15346464Y34434867D01*
X15372796Y34424792D01*
X15412293Y34406374D01*
X15431991Y34397189D01*
X15441678Y34392347D01*
X15506615Y34357637D01*
X15515073Y34353116D01*
X15535405Y34340626D01*
X15590552Y34302012D01*
X15602648Y34292834D01*
X15665607Y34241165D01*
X15680077Y34228050D01*
X15728048Y34180079D01*
X15741163Y34165609D01*
X15792832Y34102650D01*
X15802015Y34090547D01*
X15840624Y34035407D01*
X15853114Y34015075D01*
X15892334Y33941701D01*
X15897187Y33931993D01*
X15924790Y33872798D01*
X15934866Y33846463D01*
X15960659Y33761434D01*
X15962448Y33755172D01*
X15977862Y33697645D01*
X15983684Y33665647D01*
X15995422Y33546471D01*
X15995622Y33544314D01*
X15998742Y33508663D01*
X15999500Y33491314D01*
X15999500Y-991312D01*
X15998742Y-1008663D01*
X15995621Y-1044322D01*
X15995421Y-1046476D01*
X15983684Y-1165644D01*
X15977862Y-1197643D01*
X15962448Y-1255170D01*
X15960659Y-1261432D01*
X15934866Y-1346461D01*
X15924790Y-1372796D01*
X15897187Y-1431991D01*
X15892334Y-1441699D01*
X15853114Y-1515073D01*
X15840624Y-1535405D01*
X15802015Y-1590545D01*
X15792832Y-1602648D01*
X15741163Y-1665607D01*
X15728048Y-1680077D01*
X15680077Y-1728048D01*
X15665607Y-1741163D01*
X15602648Y-1792832D01*
X15590545Y-1802015D01*
X15535405Y-1840624D01*
X15515073Y-1853114D01*
X15441699Y-1892334D01*
X15431991Y-1897187D01*
X15372796Y-1924790D01*
X15346461Y-1934866D01*
X15261432Y-1960659D01*
X15255170Y-1962448D01*
X15197643Y-1977862D01*
X15165644Y-1983684D01*
X15046476Y-1995421D01*
X15044322Y-1995621D01*
X15008664Y-1998742D01*
X14991313Y-1999500D01*
X2008686Y-1999500D01*
X1991337Y-1998742D01*
X1955686Y-1995622D01*
X1953529Y-1995422D01*
X1834353Y-1983684D01*
X1802357Y-1977862D01*
X1744811Y-1962443D01*
X1738566Y-1960659D01*
X1653537Y-1934866D01*
X1627202Y-1924790D01*
X1568007Y-1897187D01*
X1558299Y-1892334D01*
X1484925Y-1853114D01*
X1464593Y-1840624D01*
X1409453Y-1802015D01*
X1397350Y-1792832D01*
X1334391Y-1741163D01*
X1319921Y-1728048D01*
X1271950Y-1680077D01*
X1258835Y-1665607D01*
X1207166Y-1602648D01*
X1197983Y-1590545D01*
X1159374Y-1535405D01*
X1146884Y-1515073D01*
X1142363Y-1506615D01*
X1107653Y-1441678D01*
X1102811Y-1431991D01*
X1075208Y-1372796D01*
X1065132Y-1346461D01*
X1039339Y-1261432D01*
X1037578Y-1255269D01*
X1022132Y-1197623D01*
X1016315Y-1165655D01*
X1004566Y-1046360D01*
X1004381Y-1044364D01*
X1004377Y-1044322D01*
X1001257Y-1008647D01*
X1000500Y-991308D01*
X1000500Y1801000D01*
X1020207Y1887343D01*
X1075426Y1956584D01*
X1155218Y1995011D01*
X1199500Y2000000D01*
X1500000Y2000000D01*
X1498489Y2108751D01*
X1516995Y2195356D01*
X1571246Y2265358D01*
X1650498Y2304889D01*
X1739052Y2306119D01*
X1819371Y2268805D01*
X1838182Y2252228D01*
X2917514Y1172895D01*
X3968341Y122068D01*
X3980371Y107058D01*
X3981233Y107770D01*
X3989213Y98124D01*
X4037369Y52902D01*
X4041857Y48552D01*
X4060529Y29880D01*
X4060910Y29585D01*
X4075158Y17415D01*
X4104416Y-10060D01*
X4104419Y-10063D01*
X4116795Y-16866D01*
X4142901Y-34014D01*
X4154064Y-42673D01*
X4190906Y-58616D01*
X4207726Y-66856D01*
X4242908Y-86197D01*
X4256584Y-89708D01*
X4286129Y-99823D01*
X4299104Y-105438D01*
X4338752Y-111717D01*
X4357107Y-115519D01*
X4395978Y-125500D01*
X4395981Y-125500D01*
X4410111Y-125500D01*
X4441241Y-127949D01*
X4455196Y-130160D01*
X4491856Y-126694D01*
X4495153Y-126383D01*
X4513880Y-125500D01*
X10058977Y-125500D01*
X10078100Y-127609D01*
X10078206Y-126495D01*
X10090663Y-127672D01*
X10090667Y-127673D01*
X10156696Y-125598D01*
X10162946Y-125500D01*
X10189350Y-125500D01*
X10189531Y-125477D01*
X10189812Y-125442D01*
X10208514Y-123969D01*
X10248627Y-122709D01*
X10262183Y-118769D01*
X10292775Y-112434D01*
X10306792Y-110664D01*
X10344116Y-95885D01*
X10361852Y-89814D01*
X10374302Y-86197D01*
X10400390Y-78618D01*
X10412551Y-71426D01*
X10440596Y-57687D01*
X10442668Y-56866D01*
X10453732Y-52486D01*
X10486208Y-28889D01*
X10501855Y-18610D01*
X10536420Y1830D01*
X10546410Y11822D01*
X10570160Y32104D01*
X10581583Y40403D01*
X10581583Y40404D01*
X10581587Y40406D01*
X10607172Y71335D01*
X10619781Y85193D01*
X12377932Y1843343D01*
X12392952Y1855357D01*
X12392228Y1856232D01*
X12401872Y1864212D01*
X12401877Y1864214D01*
X12447102Y1912376D01*
X12451424Y1916834D01*
X12470109Y1935518D01*
X12470109Y1935519D01*
X12470120Y1935529D01*
X12470406Y1935899D01*
X12482570Y1950144D01*
X12510062Y1979418D01*
X12516868Y1991800D01*
X12534012Y2017900D01*
X12542673Y2029064D01*
X12558612Y2065901D01*
X12566857Y2082731D01*
X12586197Y2117908D01*
X12589712Y2131600D01*
X12599824Y2161134D01*
X12605437Y2174104D01*
X12611716Y2213755D01*
X12615515Y2232097D01*
X12625500Y2270981D01*
X12625500Y2285114D01*
X12627950Y2316243D01*
X12629023Y2323019D01*
X12630160Y2330196D01*
X12629361Y2338643D01*
X12640854Y2426454D01*
X12689310Y2500585D01*
X12701218Y2511186D01*
X12710883Y2519117D01*
X12835910Y2671462D01*
X12928814Y2845273D01*
X12986024Y3033868D01*
X13005341Y3230000D01*
X12986024Y3426132D01*
X12928814Y3614727D01*
X12928813Y3614728D01*
X12928813Y3614730D01*
X12844899Y3771722D01*
X12821577Y3857160D01*
X12837635Y3944255D01*
X12844899Y3959338D01*
X12928349Y4115463D01*
X12969161Y4250000D01*
X12214483Y4250000D01*
X12285801Y4334993D01*
X12325000Y4442694D01*
X12325000Y4557306D01*
X12285801Y4665007D01*
X12214483Y4750000D01*
X12969161Y4750000D01*
X12928349Y4884538D01*
X12844898Y5040664D01*
X12821576Y5126102D01*
X12837634Y5213197D01*
X12844885Y5228254D01*
X12928814Y5385273D01*
X12986024Y5573868D01*
X13005341Y5770000D01*
X12986024Y5966132D01*
X12928814Y6154727D01*
X12928813Y6154728D01*
X12928813Y6154730D01*
X12845182Y6311192D01*
X12821860Y6396629D01*
X12837918Y6483725D01*
X12845182Y6498808D01*
X12928813Y6655271D01*
X12986023Y6843866D01*
X12986024Y6843868D01*
X13005341Y7040000D01*
X12986024Y7236132D01*
X12928814Y7424727D01*
X12928813Y7424728D01*
X12928813Y7424730D01*
X12845182Y7581192D01*
X12821860Y7666629D01*
X12837918Y7753725D01*
X12845182Y7768808D01*
X12928813Y7925271D01*
X12986023Y8113866D01*
X12986024Y8113868D01*
X13005341Y8310000D01*
X12986024Y8506132D01*
X12928814Y8694727D01*
X12928813Y8694728D01*
X12928813Y8694730D01*
X12845182Y8851192D01*
X12821860Y8936629D01*
X12837918Y9023725D01*
X12845182Y9038808D01*
X12928813Y9195271D01*
X12986023Y9383866D01*
X12986024Y9383868D01*
X13005341Y9580000D01*
X12986024Y9776132D01*
X12928814Y9964727D01*
X12928813Y9964728D01*
X12928813Y9964730D01*
X12844899Y10121722D01*
X12821577Y10207160D01*
X12837635Y10294255D01*
X12844899Y10309338D01*
X12928349Y10465463D01*
X12969161Y10600000D01*
X12214483Y10600000D01*
X12285801Y10684993D01*
X12325000Y10792694D01*
X12325000Y10907306D01*
X12285801Y11015007D01*
X12214483Y11100000D01*
X12969161Y11100000D01*
X12928349Y11234538D01*
X12844898Y11390664D01*
X12821576Y11476102D01*
X12837634Y11563197D01*
X12844885Y11578254D01*
X12928814Y11735273D01*
X12986024Y11923868D01*
X13005341Y12120000D01*
X12986024Y12316132D01*
X12930518Y12499108D01*
X12924313Y12587450D01*
X12940062Y12633870D01*
X12938822Y12634332D01*
X12953872Y12674686D01*
X12994091Y12782517D01*
X13000500Y12842127D01*
X13000499Y13937872D01*
X13000499Y13937877D01*
X12994091Y13997482D01*
X12992905Y14000664D01*
X12943796Y14132331D01*
X12870741Y14229920D01*
X12857546Y14247547D01*
X12742335Y14333793D01*
X12742331Y14333796D01*
X12607483Y14384091D01*
X12547873Y14390500D01*
X12547868Y14390500D01*
X12415478Y14390500D01*
X12329135Y14410207D01*
X12259894Y14465426D01*
X12221467Y14545218D01*
X12221467Y14633782D01*
X12248882Y14698343D01*
X12320046Y14807268D01*
X12320049Y14807272D01*
X12416610Y15027409D01*
X12475620Y15260437D01*
X12495471Y15500000D01*
X12475620Y15739563D01*
X12447583Y15850277D01*
X12445493Y15938810D01*
X12482023Y16019488D01*
X12499774Y16039830D01*
X13193657Y16733713D01*
X13208982Y16745979D01*
X13208290Y16746815D01*
X13217934Y16754795D01*
X13217940Y16754798D01*
X13265083Y16805002D01*
X13269372Y16809428D01*
X13288911Y16828965D01*
X13289441Y16829649D01*
X13301621Y16843910D01*
X13330448Y16874607D01*
X13337829Y16888035D01*
X13354965Y16914122D01*
X13364363Y16926236D01*
X13381090Y16964893D01*
X13389342Y16981736D01*
X13409627Y17018632D01*
X13413435Y17033469D01*
X13423552Y17063018D01*
X13429636Y17077074D01*
X13436226Y17118686D01*
X13440022Y17137018D01*
X13450500Y17177823D01*
X13450500Y17193140D01*
X13452950Y17224273D01*
X13455347Y17239405D01*
X13451383Y17281339D01*
X13450500Y17300066D01*
X13450500Y18706217D01*
X13452656Y18725732D01*
X13451581Y18725833D01*
X13452757Y18738286D01*
X13452760Y18738296D01*
X13450597Y18807100D01*
X13450500Y18813349D01*
X13450500Y18840925D01*
X13450392Y18841780D01*
X13448920Y18860481D01*
X13447598Y18902569D01*
X13443323Y18917282D01*
X13436990Y18947861D01*
X13435071Y18963058D01*
X13419567Y19002215D01*
X13413498Y19019944D01*
X13401746Y19060396D01*
X13400615Y19062308D01*
X13393942Y19073592D01*
X13380204Y19101635D01*
X13378621Y19105634D01*
X13374568Y19115871D01*
X13349814Y19149941D01*
X13339519Y19165614D01*
X13337190Y19169552D01*
X13318081Y19201865D01*
X13307243Y19212703D01*
X13286969Y19236441D01*
X13277963Y19248837D01*
X13245502Y19275692D01*
X13231645Y19288301D01*
X12596977Y19922969D01*
X12549858Y19997957D01*
X12539942Y20085964D01*
X12569193Y20169557D01*
X12611442Y20217508D01*
X12710883Y20299117D01*
X12710884Y20299119D01*
X12710886Y20299120D01*
X12767916Y20368613D01*
X12835910Y20451462D01*
X12928814Y20625273D01*
X12986024Y20813868D01*
X13005341Y21010000D01*
X12986024Y21206132D01*
X12928814Y21394727D01*
X12928813Y21394728D01*
X12928813Y21394730D01*
X12845182Y21551192D01*
X12821860Y21636629D01*
X12837918Y21723725D01*
X12845182Y21738808D01*
X12928813Y21895271D01*
X12982689Y22072873D01*
X12986024Y22083868D01*
X13005341Y22280000D01*
X12986024Y22476132D01*
X12928814Y22664727D01*
X12928813Y22664728D01*
X12928813Y22664730D01*
X12845182Y22821192D01*
X12821860Y22906629D01*
X12837918Y22993725D01*
X12845182Y23008808D01*
X12928813Y23165271D01*
X12948763Y23231035D01*
X12986024Y23353868D01*
X13005341Y23550000D01*
X12986024Y23746132D01*
X12928814Y23934727D01*
X12928813Y23934728D01*
X12928813Y23934730D01*
X12845182Y24091192D01*
X12821860Y24176629D01*
X12837918Y24263725D01*
X12845182Y24278808D01*
X12928813Y24435271D01*
X12986023Y24623866D01*
X12986024Y24623868D01*
X13005341Y24820000D01*
X12986024Y25016132D01*
X12928814Y25204727D01*
X12928813Y25204728D01*
X12928813Y25204730D01*
X12845182Y25361192D01*
X12821860Y25446629D01*
X12837918Y25533725D01*
X12845182Y25548808D01*
X12928813Y25705271D01*
X12943043Y25752178D01*
X12986024Y25893868D01*
X13005341Y26090000D01*
X12986024Y26286132D01*
X12928814Y26474727D01*
X12928813Y26474728D01*
X12928813Y26474730D01*
X12844899Y26631722D01*
X12821577Y26717160D01*
X12837635Y26804255D01*
X12844899Y26819338D01*
X12928349Y26975463D01*
X12969161Y27110000D01*
X12214483Y27110000D01*
X12285801Y27194993D01*
X12325000Y27302694D01*
X12325000Y27417306D01*
X12285801Y27525007D01*
X12214483Y27610000D01*
X12969161Y27610000D01*
X12928349Y27744538D01*
X12844898Y27900664D01*
X12821576Y27986102D01*
X12837634Y28073197D01*
X12844885Y28088254D01*
X12928814Y28245273D01*
X12986024Y28433868D01*
X13005341Y28630000D01*
X12986024Y28826132D01*
X12928814Y29014727D01*
X12928813Y29014728D01*
X12928813Y29014730D01*
X12844899Y29171722D01*
X12821577Y29257160D01*
X12837635Y29344255D01*
X12844899Y29359338D01*
X12928349Y29515463D01*
X12969161Y29650000D01*
X12214483Y29650000D01*
X12285801Y29734993D01*
X12325000Y29842694D01*
X12325000Y29957306D01*
X12285801Y30065007D01*
X12214483Y30150000D01*
X12969160Y30150000D01*
X12930183Y30278488D01*
X12923977Y30366833D01*
X12939949Y30413912D01*
X12938822Y30414332D01*
X12969779Y30497333D01*
X12994091Y30562517D01*
X13000500Y30622127D01*
X13000499Y31154791D01*
X13000563Y31159832D01*
X13002756Y31246367D01*
X13001990Y31256428D01*
X13002295Y31256452D01*
X13000499Y31276651D01*
X13000499Y31717877D01*
X12994091Y31777482D01*
X12943796Y31912330D01*
X12943796Y31912331D01*
X12921750Y31941781D01*
X12857546Y32027547D01*
X12742335Y32113793D01*
X12742331Y32113796D01*
X12607483Y32164091D01*
X12547873Y32170500D01*
X12547868Y32170500D01*
X12496848Y32170500D01*
X12410505Y32190207D01*
X12356134Y32228786D01*
X10425135Y34159786D01*
X10378016Y34234775D01*
X10368100Y34322781D01*
X10397351Y34406374D01*
X10459975Y34468998D01*
X10543568Y34498249D01*
X10565849Y34499500D01*
X14991308Y34499500D01*
X15008647Y34498743D01*
G37*
G04 #@! TD.AperFunction*
G04 #@! TA.AperFunction,Conductor*
G36*
X3536143Y29980293D02*
G01*
X3605384Y29925074D01*
X3643811Y29845282D01*
X3643811Y29756718D01*
X3632039Y29721063D01*
X3623866Y29702432D01*
X3567539Y29480001D01*
X3567539Y29480000D01*
X4684314Y29480000D01*
X4672359Y29468045D01*
X4614835Y29355148D01*
X4595014Y29230000D01*
X4614835Y29104852D01*
X4672359Y28991955D01*
X4684314Y28980000D01*
X3567539Y28980000D01*
X3623866Y28757569D01*
X3720390Y28537515D01*
X3720391Y28537513D01*
X3851826Y28336338D01*
X4014575Y28159546D01*
X4014576Y28159545D01*
X4204206Y28011950D01*
X4204209Y28011948D01*
X4415541Y27897580D01*
X4642827Y27819554D01*
X4749999Y27801670D01*
X4750000Y27801670D01*
X4750000Y28914314D01*
X4761955Y28902359D01*
X4874852Y28844835D01*
X4968519Y28830000D01*
X5031481Y28830000D01*
X5125148Y28844835D01*
X5238045Y28902359D01*
X5250000Y28914314D01*
X5250000Y27801670D01*
X5357172Y27819554D01*
X5584458Y27897580D01*
X5795790Y28011948D01*
X5795793Y28011950D01*
X5985420Y28159543D01*
X6123249Y28309265D01*
X6196227Y28359442D01*
X6283748Y28372987D01*
X6368479Y28347216D01*
X6416068Y28309265D01*
X6554235Y28159176D01*
X6554242Y28159169D01*
X6716833Y28032621D01*
X6743393Y28011948D01*
X6743932Y28011529D01*
X6743935Y28011527D01*
X6745210Y28010837D01*
X6745847Y28010278D01*
X6750827Y28007024D01*
X6750362Y28006314D01*
X6811768Y27952412D01*
X6846385Y27870895D01*
X6849500Y27835820D01*
X6849500Y27041402D01*
X6829793Y26955059D01*
X6809808Y26922147D01*
X6806209Y26917340D01*
X6806204Y26917331D01*
X6755909Y26782483D01*
X6749500Y26722873D01*
X6749500Y26722869D01*
X6749500Y26722868D01*
X6749500Y26532359D01*
X6729793Y26446016D01*
X6709807Y26413102D01*
X6656647Y26342091D01*
X6656646Y26342088D01*
X6606403Y26207382D01*
X6606401Y26207373D01*
X6600000Y26147823D01*
X6600000Y25752178D01*
X6606401Y25692628D01*
X6606403Y25692619D01*
X6656646Y25557913D01*
X6656647Y25557910D01*
X6709807Y25486898D01*
X6745774Y25405968D01*
X6749500Y25367642D01*
X6749500Y25177124D01*
X6755908Y25117519D01*
X6806203Y24982671D01*
X6806207Y24982665D01*
X6892453Y24867454D01*
X6947124Y24826528D01*
X7007669Y24781204D01*
X7142517Y24730909D01*
X7202127Y24724500D01*
X7797872Y24724501D01*
X7857483Y24730909D01*
X7907202Y24749453D01*
X7976745Y24762000D01*
X8018715Y24762000D01*
X8038227Y24759846D01*
X8038329Y24760918D01*
X8050790Y24759741D01*
X8050791Y24759742D01*
X8050796Y24759740D01*
X8105278Y24761453D01*
X8192195Y24744468D01*
X8263137Y24691453D01*
X8304052Y24612907D01*
X8309438Y24541751D01*
X8294540Y24400001D01*
X8294540Y24400000D01*
X8314325Y24211745D01*
X8372822Y24031713D01*
X8467463Y23867789D01*
X8467466Y23867785D01*
X8599941Y23720657D01*
X8643070Y23643305D01*
X8648367Y23554900D01*
X8614781Y23472952D01*
X8599941Y23454343D01*
X8467466Y23307216D01*
X8467463Y23307212D01*
X8372822Y23143288D01*
X8314325Y22963256D01*
X8294540Y22775001D01*
X8294540Y22775000D01*
X8302542Y22698861D01*
X8291967Y22610931D01*
X8244289Y22536297D01*
X8168950Y22489741D01*
X8080871Y22480485D01*
X8055142Y22485313D01*
X8044677Y22488000D01*
X8029359Y22488000D01*
X7998230Y22490450D01*
X7983095Y22492847D01*
X7941161Y22488883D01*
X7922434Y22488000D01*
X7876744Y22488000D01*
X7807202Y22500547D01*
X7757483Y22519091D01*
X7697873Y22525500D01*
X7697867Y22525500D01*
X7102123Y22525500D01*
X7042518Y22519092D01*
X6907670Y22468797D01*
X6907664Y22468793D01*
X6792453Y22382547D01*
X6706207Y22267336D01*
X6706204Y22267331D01*
X6655909Y22132483D01*
X6649500Y22072873D01*
X6649500Y22072869D01*
X6649500Y22072868D01*
X6649500Y21882359D01*
X6629793Y21796016D01*
X6609807Y21763102D01*
X6556647Y21692091D01*
X6556646Y21692088D01*
X6506403Y21557382D01*
X6506401Y21557373D01*
X6500000Y21497823D01*
X6500000Y21102178D01*
X6506401Y21042628D01*
X6506403Y21042619D01*
X6556646Y20907913D01*
X6556647Y20907910D01*
X6609807Y20836898D01*
X6645774Y20755968D01*
X6649500Y20717642D01*
X6649500Y20527124D01*
X6655908Y20467519D01*
X6706203Y20332671D01*
X6706203Y20332670D01*
X6706204Y20332669D01*
X6719540Y20314854D01*
X6751334Y20251110D01*
X6756677Y20232717D01*
X6763007Y20202152D01*
X6764928Y20186943D01*
X6780434Y20147779D01*
X6786505Y20130048D01*
X6798256Y20089602D01*
X6806058Y20076410D01*
X6819792Y20048373D01*
X6825429Y20034135D01*
X6825433Y20034128D01*
X6850189Y20000053D01*
X6860476Y19984392D01*
X6881919Y19948135D01*
X6892746Y19937308D01*
X6913028Y19913563D01*
X6922037Y19901163D01*
X6922038Y19901162D01*
X6954488Y19874318D01*
X6968356Y19861699D01*
X7477833Y19352222D01*
X7524952Y19277234D01*
X7534868Y19189227D01*
X7505617Y19105634D01*
X7483529Y19076730D01*
X7351826Y18933663D01*
X7220391Y18732488D01*
X7220390Y18732486D01*
X7123866Y18512432D01*
X7067539Y18290001D01*
X7067539Y18290000D01*
X8184314Y18290000D01*
X8172359Y18278045D01*
X8114835Y18165148D01*
X8095014Y18040000D01*
X8114835Y17914852D01*
X8172359Y17801955D01*
X8184314Y17790000D01*
X7067539Y17790000D01*
X7123866Y17567569D01*
X7220390Y17347515D01*
X7220391Y17347513D01*
X7351826Y17146338D01*
X7514575Y16969546D01*
X7514576Y16969545D01*
X7568779Y16927357D01*
X7624812Y16858772D01*
X7645537Y16772668D01*
X7626851Y16686099D01*
X7572454Y16616210D01*
X7568780Y16613280D01*
X7514245Y16570834D01*
X7514236Y16570826D01*
X7351433Y16393974D01*
X7351431Y16393972D01*
X7351429Y16393969D01*
X7327527Y16357384D01*
X7219949Y16192727D01*
X7219948Y16192724D01*
X7123391Y15972594D01*
X7064379Y15739561D01*
X7064378Y15739551D01*
X7044529Y15500005D01*
X7044529Y15499996D01*
X7064378Y15260450D01*
X7064379Y15260440D01*
X7123391Y15027407D01*
X7219948Y14807277D01*
X7219949Y14807274D01*
X7263777Y14740192D01*
X7351429Y14606031D01*
X7407411Y14545218D01*
X7514236Y14429175D01*
X7514242Y14429169D01*
X7703932Y14281529D01*
X7703935Y14281527D01*
X7915339Y14167120D01*
X7915342Y14167119D01*
X7915344Y14167118D01*
X8142703Y14089066D01*
X8379808Y14049500D01*
X8379810Y14049500D01*
X8620190Y14049500D01*
X8620192Y14049500D01*
X8857297Y14089066D01*
X9084656Y14167118D01*
X9092741Y14171493D01*
X9128831Y14191025D01*
X9296067Y14281528D01*
X9427840Y14384091D01*
X9485757Y14429169D01*
X9485759Y14429172D01*
X9485764Y14429175D01*
X9623592Y14578898D01*
X9696568Y14629073D01*
X9784089Y14642618D01*
X9868820Y14616847D01*
X9916406Y14578898D01*
X10020865Y14465426D01*
X10054236Y14429175D01*
X10054242Y14429169D01*
X10216833Y14302621D01*
X10243933Y14281528D01*
X10291498Y14255787D01*
X10339295Y14229920D01*
X10405852Y14171493D01*
X10440467Y14089974D01*
X10436284Y14001510D01*
X10394132Y13923621D01*
X10362358Y13897275D01*
X10363470Y13895842D01*
X10353572Y13888165D01*
X10343574Y13878168D01*
X10319851Y13857906D01*
X10308415Y13849597D01*
X10308410Y13849592D01*
X10282827Y13818668D01*
X10270212Y13804805D01*
X8722059Y12256652D01*
X8707053Y12244615D01*
X8707761Y12243759D01*
X8698120Y12235785D01*
X8652913Y12187645D01*
X8648571Y12183165D01*
X8629885Y12164478D01*
X8629874Y12164465D01*
X8629552Y12164050D01*
X8617421Y12149851D01*
X8589938Y12120584D01*
X8589934Y12120577D01*
X8583126Y12108194D01*
X8565993Y12082110D01*
X8557326Y12070936D01*
X8557325Y12070935D01*
X8541381Y12034092D01*
X8533140Y12017269D01*
X8513803Y11982093D01*
X8513802Y11982092D01*
X8510289Y11968407D01*
X8500175Y11938869D01*
X8494563Y11925901D01*
X8494562Y11925897D01*
X8494562Y11925896D01*
X8492020Y11909844D01*
X8488283Y11886253D01*
X8484482Y11867902D01*
X8474500Y11829023D01*
X8474500Y11814889D01*
X8472050Y11783757D01*
X8469840Y11769805D01*
X8473617Y11729850D01*
X8474500Y11711122D01*
X8474500Y8941519D01*
X8454793Y8855176D01*
X8416214Y8800805D01*
X5834050Y6218642D01*
X5759061Y6171523D01*
X5671055Y6161607D01*
X5660585Y6163070D01*
X5616062Y6170499D01*
X5616050Y6170500D01*
X5616049Y6170500D01*
X5383951Y6170500D01*
X5383947Y6170500D01*
X5200805Y6139939D01*
X5155019Y6132298D01*
X5083908Y6107886D01*
X4935492Y6056935D01*
X4731370Y5946469D01*
X4548217Y5803915D01*
X4548216Y5803914D01*
X4391023Y5633156D01*
X4264075Y5438848D01*
X4264073Y5438846D01*
X4170843Y5226303D01*
X4113864Y5001298D01*
X4094700Y4770004D01*
X4094700Y4769997D01*
X4113864Y4538703D01*
X4170843Y4313698D01*
X4264073Y4101155D01*
X4264075Y4101153D01*
X4264076Y4101151D01*
X4391021Y3906847D01*
X4442551Y3850870D01*
X4546413Y3738045D01*
X4548216Y3736087D01*
X4577682Y3713153D01*
X4649777Y3657039D01*
X4705809Y3588454D01*
X4726534Y3502350D01*
X4707848Y3415780D01*
X4653451Y3345891D01*
X4649777Y3342961D01*
X4548214Y3263912D01*
X4391023Y3093156D01*
X4264075Y2898848D01*
X4264073Y2898846D01*
X4170843Y2686303D01*
X4113864Y2461298D01*
X4094562Y2228343D01*
X4067793Y2143923D01*
X4007045Y2079477D01*
X3924352Y2047771D01*
X3836091Y2055085D01*
X3759744Y2099969D01*
X3755528Y2104062D01*
X3157222Y2702368D01*
X2143786Y3715805D01*
X2096667Y3790794D01*
X2085500Y3856519D01*
X2085500Y10385731D01*
X2105207Y10472074D01*
X2160426Y10541315D01*
X2170339Y10548729D01*
X2331401Y10661505D01*
X2371194Y10701299D01*
X2446180Y10748416D01*
X2534187Y10758333D01*
X2617781Y10729083D01*
X2680405Y10666460D01*
X2698361Y10630126D01*
X2706646Y10607913D01*
X2706647Y10607910D01*
X2792810Y10492811D01*
X2907909Y10406648D01*
X2907912Y10406647D01*
X3042618Y10356404D01*
X3042627Y10356402D01*
X3102177Y10350000D01*
X3750000Y10350000D01*
X3750000Y11264499D01*
X3857685Y11215320D01*
X3964237Y11200000D01*
X4035763Y11200000D01*
X4142315Y11215320D01*
X4250000Y11264499D01*
X4250000Y10350000D01*
X4897823Y10350000D01*
X4957372Y10356402D01*
X4957381Y10356404D01*
X5092087Y10406647D01*
X5092090Y10406648D01*
X5207189Y10492811D01*
X5293352Y10607910D01*
X5293353Y10607913D01*
X5343596Y10742619D01*
X5343598Y10742628D01*
X5350000Y10802178D01*
X5350000Y11450000D01*
X4433686Y11450000D01*
X4459493Y11490156D01*
X4500000Y11628111D01*
X4500000Y11771889D01*
X4459493Y11909844D01*
X4433686Y11950000D01*
X5350000Y11950000D01*
X5350000Y12597823D01*
X5343598Y12657373D01*
X5343596Y12657382D01*
X5293353Y12792088D01*
X5293352Y12792091D01*
X5207189Y12907190D01*
X5092090Y12993353D01*
X5092087Y12993354D01*
X4957381Y13043597D01*
X4957372Y13043599D01*
X4897823Y13050000D01*
X4250000Y13050000D01*
X4250000Y12135502D01*
X4142315Y12184680D01*
X4035763Y12200000D01*
X3964237Y12200000D01*
X3857685Y12184680D01*
X3750000Y12135502D01*
X3750000Y13050000D01*
X3102177Y13050000D01*
X3042627Y13043599D01*
X3042618Y13043597D01*
X2894574Y12988379D01*
X2893108Y12992310D01*
X2834502Y12975794D01*
X2747278Y12991136D01*
X2675349Y13042804D01*
X2632960Y13120565D01*
X2625500Y13174542D01*
X2625500Y29801000D01*
X2645207Y29887343D01*
X2700426Y29956584D01*
X2780218Y29995011D01*
X2824500Y30000000D01*
X3449800Y30000000D01*
X3536143Y29980293D01*
G37*
G04 #@! TD.AperFunction*
G04 #@! TA.AperFunction,Conductor*
G36*
X9052344Y3481085D02*
G01*
X9119067Y3444703D01*
X9121015Y3443091D01*
X9121361Y3442805D01*
X9135199Y3430211D01*
X9516214Y3049196D01*
X9563333Y2974208D01*
X9574500Y2908482D01*
X9574500Y2791519D01*
X9554793Y2705176D01*
X9516214Y2650805D01*
X9199195Y2333786D01*
X9124207Y2286667D01*
X9058481Y2275500D01*
X8358374Y2275500D01*
X8272031Y2295207D01*
X8217660Y2333786D01*
X7449399Y3102047D01*
X7530148Y3114835D01*
X7643045Y3172359D01*
X7732641Y3261955D01*
X7790165Y3374852D01*
X7802953Y3455600D01*
X8556186Y2702368D01*
X8640486Y2831398D01*
X8733680Y3043860D01*
X8790639Y3268786D01*
X8793874Y3307825D01*
X8820643Y3392246D01*
X8881390Y3456691D01*
X8964083Y3488398D01*
X9052344Y3481085D01*
G37*
G04 #@! TD.AperFunction*
G04 #@! TA.AperFunction,Conductor*
G36*
X10977372Y11149283D02*
G01*
X11030612Y11100000D01*
X11785517Y11100000D01*
X11714199Y11015007D01*
X11675000Y10907306D01*
X11675000Y10792694D01*
X11714199Y10684993D01*
X11785517Y10600000D01*
X11030839Y10600000D01*
X11071650Y10465465D01*
X11155101Y10309337D01*
X11178422Y10223899D01*
X11162363Y10136804D01*
X11155101Y10121723D01*
X11071186Y9964728D01*
X11013976Y9776135D01*
X11013975Y9776130D01*
X10994659Y9580000D01*
X11013975Y9383871D01*
X11013976Y9383866D01*
X11071186Y9195273D01*
X11154818Y9038807D01*
X11178139Y8953370D01*
X11162081Y8866274D01*
X11154818Y8851193D01*
X11071186Y8694728D01*
X11013976Y8506135D01*
X11013975Y8506130D01*
X10994659Y8310000D01*
X11013975Y8113871D01*
X11013976Y8113866D01*
X11071186Y7925273D01*
X11154818Y7768807D01*
X11178139Y7683370D01*
X11162081Y7596274D01*
X11154818Y7581193D01*
X11071186Y7424728D01*
X11013976Y7236135D01*
X11013975Y7236130D01*
X10994659Y7040000D01*
X11013975Y6843871D01*
X11013976Y6843866D01*
X11071186Y6655273D01*
X11154818Y6498807D01*
X11178139Y6413370D01*
X11162081Y6326274D01*
X11154818Y6311193D01*
X11071186Y6154728D01*
X11013976Y5966135D01*
X11013975Y5966130D01*
X10994659Y5770000D01*
X11013975Y5573871D01*
X11013976Y5573866D01*
X11071186Y5385273D01*
X11155101Y5228278D01*
X11178422Y5142841D01*
X11162364Y5055746D01*
X11155101Y5040664D01*
X11071650Y4884536D01*
X11030838Y4750000D01*
X11785517Y4750000D01*
X11714199Y4665007D01*
X11675000Y4557306D01*
X11675000Y4442694D01*
X11714199Y4334993D01*
X11785517Y4250000D01*
X11030839Y4250000D01*
X11071650Y4115465D01*
X11155101Y3959337D01*
X11178422Y3873899D01*
X11162363Y3786804D01*
X11155100Y3771722D01*
X11067077Y3607042D01*
X11008996Y3540185D01*
X10927657Y3505149D01*
X10839172Y3508874D01*
X10761066Y3550622D01*
X10730586Y3583874D01*
X10728894Y3586203D01*
X10718601Y3601872D01*
X10698170Y3636420D01*
X10688182Y3646408D01*
X10667900Y3670155D01*
X10659595Y3681586D01*
X10628661Y3707177D01*
X10614795Y3719795D01*
X10233786Y4100805D01*
X10186667Y4175794D01*
X10175500Y4241519D01*
X10175500Y10483787D01*
X10195207Y10570130D01*
X10233786Y10624501D01*
X10631455Y11022170D01*
X10730785Y11121501D01*
X10805772Y11168618D01*
X10893779Y11178534D01*
X10977372Y11149283D01*
G37*
G04 #@! TD.AperFunction*
G04 #@! TA.AperFunction,Conductor*
G36*
X8831374Y7227981D02*
G01*
X8893998Y7165357D01*
X8923249Y7081764D01*
X8924500Y7059483D01*
X8924500Y4402319D01*
X8904793Y4315976D01*
X8849574Y4246735D01*
X8769782Y4208308D01*
X8681218Y4208308D01*
X8601426Y4246735D01*
X8558904Y4293476D01*
X8556187Y4297635D01*
X7802953Y3544401D01*
X7790165Y3625148D01*
X7732641Y3738045D01*
X7643045Y3827641D01*
X7530148Y3885165D01*
X7449399Y3897954D01*
X8203797Y4652353D01*
X8203797Y4652354D01*
X8173350Y4676051D01*
X8173349Y4676052D01*
X7969305Y4786476D01*
X7749856Y4861812D01*
X7521012Y4900000D01*
X7288986Y4900000D01*
X7107774Y4869761D01*
X7019365Y4874988D01*
X6941979Y4918057D01*
X6890944Y4990437D01*
X6882112Y5017186D01*
X6829157Y5226300D01*
X6817222Y5253508D01*
X6800586Y5340492D01*
X6823338Y5426083D01*
X6858744Y5474156D01*
X8584788Y7200199D01*
X8659775Y7247316D01*
X8747781Y7257232D01*
X8831374Y7227981D01*
G37*
G04 #@! TD.AperFunction*
G04 #@! TA.AperFunction,Conductor*
G36*
X9109128Y32607969D02*
G01*
X9187510Y32566741D01*
X9198716Y32556363D01*
X10941214Y30813865D01*
X10988333Y30738877D01*
X10999500Y30673155D01*
X10999500Y30622125D01*
X11005908Y30562519D01*
X11061178Y30414334D01*
X11059143Y30413576D01*
X11078126Y30346403D01*
X11069816Y30278490D01*
X11030838Y30150000D01*
X11785517Y30150000D01*
X11714199Y30065007D01*
X11675000Y29957306D01*
X11675000Y29842694D01*
X11714199Y29734993D01*
X11785517Y29650000D01*
X11030839Y29650000D01*
X11071650Y29515465D01*
X11155101Y29359337D01*
X11178422Y29273899D01*
X11162363Y29186804D01*
X11155101Y29171723D01*
X11071186Y29014728D01*
X11013976Y28826135D01*
X11013975Y28826130D01*
X10994659Y28630000D01*
X11013975Y28433871D01*
X11013976Y28433866D01*
X11071186Y28245273D01*
X11155101Y28088278D01*
X11178422Y28002841D01*
X11162364Y27915746D01*
X11155101Y27900664D01*
X11071650Y27744536D01*
X11030838Y27610000D01*
X11785517Y27610000D01*
X11714199Y27525007D01*
X11675000Y27417306D01*
X11675000Y27302694D01*
X11714199Y27194993D01*
X11785517Y27110000D01*
X11003620Y27110000D01*
X10921354Y27088166D01*
X10864899Y27094295D01*
X10848555Y27098492D01*
X10839021Y27100940D01*
X10809481Y27111053D01*
X10795424Y27117136D01*
X10753827Y27123725D01*
X10735474Y27127526D01*
X10694680Y27138000D01*
X10694677Y27138000D01*
X10679359Y27138000D01*
X10648230Y27140450D01*
X10633095Y27142847D01*
X10591161Y27138883D01*
X10572434Y27138000D01*
X9689500Y27138000D01*
X9603157Y27157707D01*
X9533916Y27212926D01*
X9495489Y27292718D01*
X9490500Y27337000D01*
X9490500Y30376217D01*
X9492656Y30395732D01*
X9491581Y30395833D01*
X9492757Y30408286D01*
X9492760Y30408296D01*
X9490597Y30477100D01*
X9490500Y30483349D01*
X9490500Y30510925D01*
X9490392Y30511780D01*
X9488920Y30530481D01*
X9487598Y30572569D01*
X9483323Y30587282D01*
X9476990Y30617861D01*
X9475071Y30633058D01*
X9459567Y30672215D01*
X9453498Y30689944D01*
X9441746Y30730396D01*
X9436730Y30738877D01*
X9433942Y30743592D01*
X9420204Y30771635D01*
X9414568Y30785871D01*
X9389814Y30819941D01*
X9379519Y30835614D01*
X9371664Y30848896D01*
X9358081Y30871865D01*
X9347243Y30882703D01*
X9326969Y30906441D01*
X9317963Y30918837D01*
X9285502Y30945692D01*
X9271645Y30958301D01*
X8999781Y31230165D01*
X8952662Y31305153D01*
X8942746Y31393160D01*
X8947582Y31419720D01*
X8975620Y31530437D01*
X8991152Y31717872D01*
X8995471Y31769996D01*
X8995471Y31770005D01*
X8975621Y32009551D01*
X8975620Y32009561D01*
X8975620Y32009563D01*
X8916610Y32242591D01*
X8875762Y32335715D01*
X8859127Y32422698D01*
X8881880Y32508289D01*
X8939516Y32575531D01*
X9020620Y32611106D01*
X9109128Y32607969D01*
G37*
G04 #@! TD.AperFunction*
G04 #@! TA.AperFunction,Conductor*
G36*
X15008647Y57998743D02*
G01*
X15026944Y57997143D01*
X15044449Y57995612D01*
X15046360Y57995434D01*
X15165655Y57983685D01*
X15197623Y57977868D01*
X15255269Y57962422D01*
X15261410Y57960668D01*
X15346464Y57934867D01*
X15372796Y57924792D01*
X15431984Y57897192D01*
X15431991Y57897189D01*
X15441678Y57892347D01*
X15506615Y57857637D01*
X15515073Y57853116D01*
X15535405Y57840626D01*
X15590552Y57802012D01*
X15602648Y57792834D01*
X15665607Y57741165D01*
X15680077Y57728050D01*
X15728048Y57680079D01*
X15741163Y57665609D01*
X15792832Y57602650D01*
X15802015Y57590547D01*
X15840624Y57535407D01*
X15853114Y57515075D01*
X15892334Y57441701D01*
X15897187Y57431993D01*
X15924790Y57372798D01*
X15934866Y57346463D01*
X15960659Y57261434D01*
X15962443Y57255189D01*
X15962447Y57255173D01*
X15962448Y57255172D01*
X15977862Y57197645D01*
X15983684Y57165647D01*
X15995422Y57046471D01*
X15995622Y57044314D01*
X15998742Y57008663D01*
X15999500Y56991314D01*
X15999500Y46508688D01*
X15998742Y46491337D01*
X15995621Y46455678D01*
X15995421Y46453524D01*
X15983684Y46334356D01*
X15977862Y46302357D01*
X15962448Y46244830D01*
X15960659Y46238568D01*
X15934866Y46153539D01*
X15924790Y46127204D01*
X15897187Y46068009D01*
X15892334Y46058301D01*
X15853114Y45984927D01*
X15840624Y45964595D01*
X15802015Y45909455D01*
X15792832Y45897352D01*
X15741163Y45834393D01*
X15728048Y45819923D01*
X15680077Y45771952D01*
X15665607Y45758837D01*
X15602648Y45707168D01*
X15590545Y45697985D01*
X15535405Y45659376D01*
X15515073Y45646886D01*
X15441699Y45607666D01*
X15431991Y45602813D01*
X15372796Y45575210D01*
X15346461Y45565134D01*
X15261432Y45539341D01*
X15255170Y45537552D01*
X15197643Y45522138D01*
X15165644Y45516316D01*
X15046476Y45504579D01*
X15044322Y45504379D01*
X15008664Y45501258D01*
X14991313Y45500500D01*
X6912467Y45500500D01*
X6826265Y45485301D01*
X6740062Y45470101D01*
X6740061Y45470101D01*
X6575555Y45410226D01*
X6575552Y45410224D01*
X6423950Y45322696D01*
X6423945Y45322693D01*
X6423945Y45322692D01*
X6392795Y45296555D01*
X6313987Y45256153D01*
X6264884Y45250000D01*
X5199500Y45250000D01*
X5113157Y45269707D01*
X5043916Y45324926D01*
X5005489Y45404718D01*
X5000500Y45449000D01*
X5000500Y46403151D01*
X5020207Y46489494D01*
X5058786Y46543865D01*
X5585334Y47070413D01*
X6093340Y47578419D01*
X6093340Y47578420D01*
X6364342Y47849423D01*
X6439328Y47896540D01*
X6527335Y47906456D01*
X6610928Y47877205D01*
X6673552Y47814581D01*
X6702803Y47730988D01*
X6702914Y47687441D01*
X6700000Y47660330D01*
X6700000Y47264678D01*
X6706401Y47205128D01*
X6706403Y47205119D01*
X6756646Y47070413D01*
X6756647Y47070410D01*
X6809807Y46999398D01*
X6845774Y46918468D01*
X6849500Y46880142D01*
X6849500Y46689624D01*
X6855908Y46630019D01*
X6906203Y46495171D01*
X6906207Y46495165D01*
X6992453Y46379954D01*
X7053365Y46334356D01*
X7107669Y46293704D01*
X7242517Y46243409D01*
X7302127Y46237000D01*
X7897872Y46237001D01*
X7897876Y46237001D01*
X7937612Y46241273D01*
X7957483Y46243409D01*
X8092331Y46293704D01*
X8207546Y46379954D01*
X8290693Y46491025D01*
X8358213Y46548334D01*
X8443912Y46570674D01*
X8530818Y46553617D01*
X8601716Y46500543D01*
X8609307Y46491024D01*
X8692453Y46379954D01*
X8753365Y46334356D01*
X8807669Y46293704D01*
X8942517Y46243409D01*
X9002127Y46237000D01*
X9597872Y46237001D01*
X9597876Y46237001D01*
X9637612Y46241273D01*
X9657483Y46243409D01*
X9792331Y46293704D01*
X9907546Y46379954D01*
X9993796Y46495169D01*
X10044091Y46630017D01*
X10050500Y46689627D01*
X10050499Y46879308D01*
X10070206Y46965649D01*
X10090193Y46998565D01*
X10090817Y46999398D01*
X10143796Y47070169D01*
X10194091Y47205017D01*
X10200500Y47264627D01*
X10200499Y47660372D01*
X10200499Y47660377D01*
X10194091Y47719982D01*
X10177440Y47764628D01*
X10143796Y47854831D01*
X10105150Y47906456D01*
X10090192Y47926438D01*
X10054224Y48007370D01*
X10050499Y48045695D01*
X10050499Y48235377D01*
X10044091Y48294982D01*
X10008107Y48391462D01*
X9993796Y48429831D01*
X9971750Y48459281D01*
X9907546Y48545047D01*
X9792335Y48631293D01*
X9792331Y48631296D01*
X9657483Y48681591D01*
X9597873Y48688000D01*
X9597868Y48688000D01*
X9199500Y48688000D01*
X9113157Y48707707D01*
X9043916Y48762926D01*
X9005489Y48842718D01*
X9000500Y48887000D01*
X9000500Y48950000D01*
X10994659Y48950000D01*
X11013975Y48753871D01*
X11013976Y48753866D01*
X11071186Y48565271D01*
X11164088Y48391464D01*
X11289116Y48239117D01*
X11441463Y48114089D01*
X11615270Y48021187D01*
X11615272Y48021187D01*
X11615273Y48021186D01*
X11803868Y47963976D01*
X12000000Y47944659D01*
X12196132Y47963976D01*
X12384727Y48021186D01*
X12558538Y48114090D01*
X12710883Y48239117D01*
X12835910Y48391462D01*
X12928814Y48565273D01*
X12986024Y48753868D01*
X13005341Y48950000D01*
X12986024Y49146132D01*
X12928814Y49334727D01*
X12928813Y49334728D01*
X12928813Y49334730D01*
X12845182Y49491192D01*
X12821860Y49576629D01*
X12837918Y49663725D01*
X12845182Y49678808D01*
X12928813Y49835271D01*
X12966398Y49959169D01*
X12986024Y50023868D01*
X13005341Y50220000D01*
X12986024Y50416132D01*
X12928814Y50604727D01*
X12928813Y50604728D01*
X12928813Y50604730D01*
X12845182Y50761192D01*
X12821860Y50846629D01*
X12837918Y50933725D01*
X12845182Y50948808D01*
X12928813Y51105271D01*
X12978651Y51269561D01*
X12986024Y51293868D01*
X13005341Y51490000D01*
X12986024Y51686132D01*
X12930518Y51869108D01*
X12924313Y51957450D01*
X12940062Y52003870D01*
X12938822Y52004332D01*
X12974811Y52100825D01*
X12994091Y52152517D01*
X13000500Y52212127D01*
X13000499Y53307872D01*
X13000499Y53307873D01*
X13000499Y53307877D01*
X12994091Y53367482D01*
X12989997Y53378460D01*
X12943796Y53502331D01*
X12921750Y53531781D01*
X12857546Y53617547D01*
X12742335Y53703793D01*
X12742331Y53703796D01*
X12607483Y53754091D01*
X12547873Y53760500D01*
X12547867Y53760500D01*
X11452123Y53760500D01*
X11392518Y53754092D01*
X11257670Y53703797D01*
X11257664Y53703793D01*
X11142453Y53617547D01*
X11056207Y53502336D01*
X11056204Y53502331D01*
X11005909Y53367483D01*
X10999500Y53307873D01*
X10999500Y53307872D01*
X10999500Y53307868D01*
X10999500Y52212124D01*
X11005908Y52152519D01*
X11061178Y52004333D01*
X11058997Y52003520D01*
X11077790Y51937014D01*
X11069480Y51869104D01*
X11013976Y51686135D01*
X11013975Y51686130D01*
X10994659Y51490000D01*
X11013975Y51293871D01*
X11013976Y51293866D01*
X11071186Y51105273D01*
X11154818Y50948807D01*
X11178139Y50863370D01*
X11162081Y50776274D01*
X11154818Y50761193D01*
X11071186Y50604728D01*
X11013976Y50416135D01*
X11013975Y50416130D01*
X10994659Y50220000D01*
X11013975Y50023871D01*
X11013976Y50023866D01*
X11071186Y49835273D01*
X11154818Y49678807D01*
X11178139Y49593370D01*
X11162081Y49506274D01*
X11154818Y49491193D01*
X11071186Y49334728D01*
X11013976Y49146135D01*
X11013975Y49146130D01*
X10994659Y48950000D01*
X9000500Y48950000D01*
X9000500Y50086217D01*
X9002656Y50105732D01*
X9001581Y50105833D01*
X9002757Y50118286D01*
X9002760Y50118296D01*
X9000597Y50187100D01*
X9000500Y50193349D01*
X9000500Y50220925D01*
X9000392Y50221780D01*
X8998920Y50240481D01*
X8997598Y50282569D01*
X8993323Y50297282D01*
X8986990Y50327861D01*
X8985071Y50343058D01*
X8969567Y50382215D01*
X8963498Y50399944D01*
X8951746Y50440396D01*
X8951745Y50440398D01*
X8943942Y50453592D01*
X8930204Y50481635D01*
X8924568Y50495870D01*
X8924568Y50495871D01*
X8924565Y50495875D01*
X8918842Y50506285D01*
X8894512Y50591441D01*
X8900311Y50651005D01*
X8935620Y50790437D01*
X8940277Y50846629D01*
X8955471Y51029996D01*
X8955471Y51030005D01*
X8935621Y51269551D01*
X8935620Y51269561D01*
X8935620Y51269563D01*
X8876610Y51502591D01*
X8796102Y51686130D01*
X8780051Y51722724D01*
X8780050Y51722727D01*
X8758136Y51756269D01*
X8648571Y51923969D01*
X8485764Y52100825D01*
X8485763Y52100826D01*
X8485757Y52100832D01*
X8431220Y52143279D01*
X8375188Y52211863D01*
X8354462Y52297967D01*
X8373148Y52384537D01*
X8427544Y52454426D01*
X8431221Y52457358D01*
X8485424Y52499546D01*
X8648173Y52676338D01*
X8779608Y52877513D01*
X8779609Y52877515D01*
X8876133Y53097569D01*
X8932461Y53320000D01*
X7815686Y53320000D01*
X7827641Y53331955D01*
X7885165Y53444852D01*
X7904986Y53570000D01*
X7885165Y53695148D01*
X7827641Y53808045D01*
X7815686Y53820000D01*
X8932461Y53820000D01*
X8932460Y53820001D01*
X8876133Y54042432D01*
X8779609Y54262486D01*
X8779608Y54262488D01*
X8648173Y54463663D01*
X8485424Y54640455D01*
X8485423Y54640456D01*
X8295793Y54788051D01*
X8295790Y54788053D01*
X8084458Y54902421D01*
X7857174Y54980447D01*
X7750000Y54998332D01*
X7750000Y53885686D01*
X7738045Y53897641D01*
X7625148Y53955165D01*
X7531481Y53970000D01*
X7468519Y53970000D01*
X7374852Y53955165D01*
X7261955Y53897641D01*
X7250000Y53885686D01*
X7250000Y54998332D01*
X7142825Y54980447D01*
X6915541Y54902421D01*
X6704209Y54788053D01*
X6704206Y54788051D01*
X6514579Y54640458D01*
X6376749Y54490735D01*
X6303771Y54440559D01*
X6216249Y54427014D01*
X6131519Y54452786D01*
X6083931Y54490736D01*
X5945764Y54640825D01*
X5945757Y54640832D01*
X5756067Y54788472D01*
X5756064Y54788474D01*
X5544660Y54902881D01*
X5464595Y54930367D01*
X5317297Y54980934D01*
X5213037Y54998332D01*
X5080195Y55020500D01*
X5080192Y55020500D01*
X4839808Y55020500D01*
X4839804Y55020500D01*
X4650124Y54988848D01*
X4602703Y54980934D01*
X4529053Y54955651D01*
X4375339Y54902881D01*
X4163935Y54788474D01*
X4163932Y54788472D01*
X3974242Y54640832D01*
X3974236Y54640826D01*
X3811433Y54463974D01*
X3811431Y54463972D01*
X3811429Y54463969D01*
X3787285Y54427014D01*
X3679949Y54262727D01*
X3679948Y54262724D01*
X3583391Y54042594D01*
X3524379Y53809561D01*
X3524378Y53809551D01*
X3504529Y53570005D01*
X3504529Y53569996D01*
X3524378Y53330450D01*
X3524379Y53330440D01*
X3524380Y53330437D01*
X3583349Y53097569D01*
X3583391Y53097407D01*
X3679948Y52877277D01*
X3679949Y52877274D01*
X3723777Y52810192D01*
X3811429Y52676031D01*
X3811433Y52676027D01*
X3974236Y52499175D01*
X3974243Y52499169D01*
X4028371Y52457039D01*
X4084404Y52388454D01*
X4105129Y52302350D01*
X4086443Y52215781D01*
X4032046Y52145892D01*
X4028371Y52142961D01*
X3974243Y52100832D01*
X3974236Y52100826D01*
X3811433Y51923974D01*
X3811431Y51923972D01*
X3811429Y51923969D01*
X3775584Y51869104D01*
X3679949Y51722727D01*
X3679948Y51722724D01*
X3583391Y51502594D01*
X3524379Y51269561D01*
X3524378Y51269551D01*
X3504529Y51030005D01*
X3504529Y51029996D01*
X3524378Y50790450D01*
X3524379Y50790440D01*
X3531785Y50761193D01*
X3571407Y50604728D01*
X3583391Y50557407D01*
X3679948Y50337277D01*
X3679949Y50337274D01*
X3696250Y50312324D01*
X3811429Y50136031D01*
X3827755Y50118296D01*
X3974236Y49959175D01*
X3974242Y49959169D01*
X4163932Y49811529D01*
X4163935Y49811527D01*
X4375339Y49697120D01*
X4375342Y49697119D01*
X4375344Y49697118D01*
X4602703Y49619066D01*
X4789551Y49587887D01*
X4822506Y49582387D01*
X4904427Y49548737D01*
X4963636Y49482874D01*
X4988404Y49397845D01*
X4973827Y49310490D01*
X4930466Y49245387D01*
X4714483Y49029404D01*
X4714481Y49029402D01*
X3303317Y47618239D01*
X3299709Y47614721D01*
X3236952Y47555065D01*
X3236943Y47555055D01*
X3204876Y47508984D01*
X3195777Y47496916D01*
X3160302Y47453409D01*
X3148414Y47430651D01*
X3135366Y47409115D01*
X3120704Y47388050D01*
X3098563Y47336457D01*
X3092080Y47322806D01*
X3066092Y47273053D01*
X3059029Y47248372D01*
X3050585Y47224657D01*
X3040463Y47201067D01*
X3040457Y47201051D01*
X3029160Y47146077D01*
X3025557Y47131398D01*
X3010114Y47077424D01*
X3010111Y47077410D01*
X3008163Y47051820D01*
X3004667Y47026888D01*
X2999500Y47001741D01*
X2999500Y47001738D01*
X2999500Y46945617D01*
X2998926Y46930508D01*
X2994663Y46874526D01*
X2997906Y46849060D01*
X2999500Y46823922D01*
X2999500Y43069000D01*
X2979793Y42982657D01*
X2924574Y42913416D01*
X2844782Y42874989D01*
X2800500Y42870000D01*
X2250000Y42870000D01*
X2250000Y41835686D01*
X2238045Y41847641D01*
X2125148Y41905165D01*
X2031481Y41920000D01*
X1968519Y41920000D01*
X1874852Y41905165D01*
X1761955Y41847641D01*
X1750000Y41835686D01*
X1750000Y42870000D01*
X1102177Y42870000D01*
X1042627Y42863599D01*
X1042618Y42863597D01*
X907912Y42813354D01*
X907909Y42813353D01*
X792810Y42727190D01*
X706647Y42612091D01*
X706646Y42612088D01*
X656403Y42477382D01*
X656401Y42477373D01*
X650000Y42417823D01*
X650000Y41770000D01*
X1684314Y41770000D01*
X1672359Y41758045D01*
X1614835Y41645148D01*
X1595014Y41520000D01*
X1614835Y41394852D01*
X1672359Y41281955D01*
X1684314Y41270000D01*
X650000Y41270000D01*
X650000Y40622178D01*
X656401Y40562628D01*
X656403Y40562619D01*
X706646Y40427913D01*
X706647Y40427910D01*
X792810Y40312811D01*
X907909Y40226648D01*
X930127Y40218361D01*
X1004139Y40169722D01*
X1049718Y40093788D01*
X1057836Y40005597D01*
X1026886Y39922618D01*
X1001299Y39891195D01*
X961501Y39851397D01*
X825965Y39657829D01*
X726094Y39443658D01*
X664938Y39215415D01*
X644341Y38980000D01*
X664938Y38744586D01*
X726095Y38516341D01*
X726095Y38516340D01*
X825965Y38302169D01*
X828089Y38298490D01*
X828886Y38295906D01*
X829637Y38294295D01*
X829414Y38294192D01*
X854188Y38213860D01*
X840984Y38126286D01*
X791090Y38053115D01*
X714389Y38008838D01*
X655744Y38000000D01*
X199500Y38000000D01*
X113157Y38019707D01*
X43916Y38074926D01*
X5489Y38154718D01*
X500Y38199000D01*
X500Y52988825D01*
X1750Y53011093D01*
X1855Y53012033D01*
X3268Y53024571D01*
X3710Y53028184D01*
X12923Y53098161D01*
X22383Y53137898D01*
X30519Y53161151D01*
X34471Y53171501D01*
X53048Y53216351D01*
X68393Y53246052D01*
X83501Y53270097D01*
X94103Y53285339D01*
X121540Y53321096D01*
X138674Y53340633D01*
X159367Y53361326D01*
X178904Y53378460D01*
X214661Y53405897D01*
X229903Y53416499D01*
X253948Y53431607D01*
X283649Y53446952D01*
X328499Y53465529D01*
X338849Y53469481D01*
X362102Y53477617D01*
X401839Y53487077D01*
X471864Y53496296D01*
X475429Y53496732D01*
X487967Y53498145D01*
X488907Y53498250D01*
X511175Y53499500D01*
X556391Y53499500D01*
X556393Y53499500D01*
X666351Y53524597D01*
X767967Y53573533D01*
X856146Y53643854D01*
X926467Y53732033D01*
X975403Y53833649D01*
X1000500Y53943607D01*
X1000500Y54000000D01*
X1000500Y54000500D01*
X1000501Y56991332D01*
X1001256Y57008629D01*
X1004402Y57044577D01*
X1004565Y57046336D01*
X1016318Y57165666D01*
X1022133Y57197620D01*
X1037578Y57255262D01*
X1039324Y57261375D01*
X1065142Y57346484D01*
X1075203Y57372782D01*
X1102844Y57432058D01*
X1107630Y57441631D01*
X1146898Y57515098D01*
X1159356Y57535378D01*
X1198017Y57590592D01*
X1207130Y57602602D01*
X1258862Y57665638D01*
X1271937Y57680063D01*
X1319935Y57728061D01*
X1334373Y57741147D01*
X1397374Y57792851D01*
X1409443Y57802007D01*
X1464613Y57840637D01*
X1484906Y57853104D01*
X1558342Y57892355D01*
X1567976Y57897172D01*
X1627230Y57924802D01*
X1653507Y57934856D01*
X1738643Y57960682D01*
X1744696Y57962411D01*
X1802382Y57977868D01*
X1834338Y57983683D01*
X1953567Y57995427D01*
X1955347Y57995592D01*
X1991372Y57998743D01*
X2008710Y57999500D01*
X14991308Y57999500D01*
X15008647Y57998743D01*
G37*
G04 #@! TD.AperFunction*
G04 #@! TD*
M02*
