G04 #@! TF.GenerationSoftware,KiCad,Pcbnew,7.0.11-7.0.11~ubuntu23.10.1*
G04 #@! TF.CreationDate,2024-06-17T23:23:06+02:00*
G04 #@! TF.ProjectId,Hardware_NanoPi_v7_ConnectorPlate,48617264-7761-4726-955f-4e616e6f5069,rev?*
G04 #@! TF.SameCoordinates,Original*
G04 #@! TF.FileFunction,AssemblyDrawing,Bot*
%FSLAX46Y46*%
G04 Gerber Fmt 4.6, Leading zero omitted, Abs format (unit mm)*
G04 Created by KiCad (PCBNEW 7.0.11-7.0.11~ubuntu23.10.1) date 2024-06-17 23:23:06*
%MOMM*%
%LPD*%
G01*
G04 APERTURE LIST*
%ADD10C,0.150000*%
%ADD11C,0.100000*%
G04 APERTURE END LIST*
D10*
X-2251905Y11640420D02*
X-2204286Y11592800D01*
X-2204286Y11592800D02*
X-2061429Y11545181D01*
X-2061429Y11545181D02*
X-1966191Y11545181D01*
X-1966191Y11545181D02*
X-1823334Y11592800D01*
X-1823334Y11592800D02*
X-1728096Y11688039D01*
X-1728096Y11688039D02*
X-1680477Y11783277D01*
X-1680477Y11783277D02*
X-1632858Y11973753D01*
X-1632858Y11973753D02*
X-1632858Y12116610D01*
X-1632858Y12116610D02*
X-1680477Y12307086D01*
X-1680477Y12307086D02*
X-1728096Y12402324D01*
X-1728096Y12402324D02*
X-1823334Y12497562D01*
X-1823334Y12497562D02*
X-1966191Y12545181D01*
X-1966191Y12545181D02*
X-2061429Y12545181D01*
X-2061429Y12545181D02*
X-2204286Y12497562D01*
X-2204286Y12497562D02*
X-2251905Y12449943D01*
X-2823334Y11545181D02*
X-2728096Y11592800D01*
X-2728096Y11592800D02*
X-2680477Y11640420D01*
X-2680477Y11640420D02*
X-2632858Y11735658D01*
X-2632858Y11735658D02*
X-2632858Y12021372D01*
X-2632858Y12021372D02*
X-2680477Y12116610D01*
X-2680477Y12116610D02*
X-2728096Y12164229D01*
X-2728096Y12164229D02*
X-2823334Y12211848D01*
X-2823334Y12211848D02*
X-2966191Y12211848D01*
X-2966191Y12211848D02*
X-3061429Y12164229D01*
X-3061429Y12164229D02*
X-3109048Y12116610D01*
X-3109048Y12116610D02*
X-3156667Y12021372D01*
X-3156667Y12021372D02*
X-3156667Y11735658D01*
X-3156667Y11735658D02*
X-3109048Y11640420D01*
X-3109048Y11640420D02*
X-3061429Y11592800D01*
X-3061429Y11592800D02*
X-2966191Y11545181D01*
X-2966191Y11545181D02*
X-2823334Y11545181D01*
X-3585239Y12211848D02*
X-3585239Y11545181D01*
X-3585239Y12116610D02*
X-3632858Y12164229D01*
X-3632858Y12164229D02*
X-3728096Y12211848D01*
X-3728096Y12211848D02*
X-3870953Y12211848D01*
X-3870953Y12211848D02*
X-3966191Y12164229D01*
X-3966191Y12164229D02*
X-4013810Y12068991D01*
X-4013810Y12068991D02*
X-4013810Y11545181D01*
X-4490001Y12211848D02*
X-4490001Y11545181D01*
X-4490001Y12116610D02*
X-4537620Y12164229D01*
X-4537620Y12164229D02*
X-4632858Y12211848D01*
X-4632858Y12211848D02*
X-4775715Y12211848D01*
X-4775715Y12211848D02*
X-4870953Y12164229D01*
X-4870953Y12164229D02*
X-4918572Y12068991D01*
X-4918572Y12068991D02*
X-4918572Y11545181D01*
X-5156667Y11449943D02*
X-5918572Y11449943D01*
X-6347144Y12545181D02*
X-6442382Y12545181D01*
X-6442382Y12545181D02*
X-6537620Y12497562D01*
X-6537620Y12497562D02*
X-6585239Y12449943D01*
X-6585239Y12449943D02*
X-6632858Y12354705D01*
X-6632858Y12354705D02*
X-6680477Y12164229D01*
X-6680477Y12164229D02*
X-6680477Y11926134D01*
X-6680477Y11926134D02*
X-6632858Y11735658D01*
X-6632858Y11735658D02*
X-6585239Y11640420D01*
X-6585239Y11640420D02*
X-6537620Y11592800D01*
X-6537620Y11592800D02*
X-6442382Y11545181D01*
X-6442382Y11545181D02*
X-6347144Y11545181D01*
X-6347144Y11545181D02*
X-6251906Y11592800D01*
X-6251906Y11592800D02*
X-6204287Y11640420D01*
X-6204287Y11640420D02*
X-6156668Y11735658D01*
X-6156668Y11735658D02*
X-6109049Y11926134D01*
X-6109049Y11926134D02*
X-6109049Y12164229D01*
X-6109049Y12164229D02*
X-6156668Y12354705D01*
X-6156668Y12354705D02*
X-6204287Y12449943D01*
X-6204287Y12449943D02*
X-6251906Y12497562D01*
X-6251906Y12497562D02*
X-6347144Y12545181D01*
X-7632858Y11545181D02*
X-7061430Y11545181D01*
X-7347144Y11545181D02*
X-7347144Y12545181D01*
X-7347144Y12545181D02*
X-7251906Y12402324D01*
X-7251906Y12402324D02*
X-7156668Y12307086D01*
X-7156668Y12307086D02*
X-7061430Y12259467D01*
X-7966192Y11545181D02*
X-8490001Y12211848D01*
X-7966192Y12211848D02*
X-8490001Y11545181D01*
X-9061430Y12545181D02*
X-9156668Y12545181D01*
X-9156668Y12545181D02*
X-9251906Y12497562D01*
X-9251906Y12497562D02*
X-9299525Y12449943D01*
X-9299525Y12449943D02*
X-9347144Y12354705D01*
X-9347144Y12354705D02*
X-9394763Y12164229D01*
X-9394763Y12164229D02*
X-9394763Y11926134D01*
X-9394763Y11926134D02*
X-9347144Y11735658D01*
X-9347144Y11735658D02*
X-9299525Y11640420D01*
X-9299525Y11640420D02*
X-9251906Y11592800D01*
X-9251906Y11592800D02*
X-9156668Y11545181D01*
X-9156668Y11545181D02*
X-9061430Y11545181D01*
X-9061430Y11545181D02*
X-8966192Y11592800D01*
X-8966192Y11592800D02*
X-8918573Y11640420D01*
X-8918573Y11640420D02*
X-8870954Y11735658D01*
X-8870954Y11735658D02*
X-8823335Y11926134D01*
X-8823335Y11926134D02*
X-8823335Y12164229D01*
X-8823335Y12164229D02*
X-8870954Y12354705D01*
X-8870954Y12354705D02*
X-8918573Y12449943D01*
X-8918573Y12449943D02*
X-8966192Y12497562D01*
X-8966192Y12497562D02*
X-9061430Y12545181D01*
X-9775716Y12449943D02*
X-9823335Y12497562D01*
X-9823335Y12497562D02*
X-9918573Y12545181D01*
X-9918573Y12545181D02*
X-10156668Y12545181D01*
X-10156668Y12545181D02*
X-10251906Y12497562D01*
X-10251906Y12497562D02*
X-10299525Y12449943D01*
X-10299525Y12449943D02*
X-10347144Y12354705D01*
X-10347144Y12354705D02*
X-10347144Y12259467D01*
X-10347144Y12259467D02*
X-10299525Y12116610D01*
X-10299525Y12116610D02*
X-9728097Y11545181D01*
X-9728097Y11545181D02*
X-10347144Y11545181D01*
X3539523Y15015181D02*
X3539523Y14300896D01*
X3539523Y14300896D02*
X3587142Y14158039D01*
X3587142Y14158039D02*
X3682380Y14062800D01*
X3682380Y14062800D02*
X3825237Y14015181D01*
X3825237Y14015181D02*
X3920475Y14015181D01*
X2539523Y14015181D02*
X3110951Y14015181D01*
X2825237Y14015181D02*
X2825237Y15015181D01*
X2825237Y15015181D02*
X2920475Y14872324D01*
X2920475Y14872324D02*
X3015713Y14777086D01*
X3015713Y14777086D02*
X3110951Y14729467D01*
X1587142Y14015181D02*
X2158570Y14015181D01*
X1872856Y14015181D02*
X1872856Y15015181D01*
X1872856Y15015181D02*
X1968094Y14872324D01*
X1968094Y14872324D02*
X2063332Y14777086D01*
X2063332Y14777086D02*
X2158570Y14729467D01*
D11*
G04 #@! TO.C,J11*
X1140000Y11380000D02*
X1140000Y13200000D01*
X1780000Y11380000D02*
X1140000Y11380000D01*
X1780000Y11380000D02*
X1780000Y13200000D01*
X3680000Y11380000D02*
X3680000Y13200000D01*
X4320000Y11380000D02*
X3680000Y11380000D01*
X4320000Y11380000D02*
X4320000Y13200000D01*
X190000Y13200000D02*
X4635000Y13200000D01*
X4635000Y13200000D02*
X5270000Y13835000D01*
X5270000Y13835000D02*
X5270000Y15740000D01*
X190000Y15740000D02*
X190000Y13200000D01*
X1140000Y15740000D02*
X1140000Y21740000D01*
X1780000Y15740000D02*
X1780000Y21740000D01*
X3680000Y15740000D02*
X3680000Y21740000D01*
X4320000Y15740000D02*
X4320000Y21740000D01*
X5270000Y15740000D02*
X190000Y15740000D01*
X1780000Y21740000D02*
X1140000Y21740000D01*
X4320000Y21740000D02*
X3680000Y21740000D01*
G04 #@! TD*
M02*
