G04 #@! TF.GenerationSoftware,KiCad,Pcbnew,7.0.11-7.0.11~ubuntu23.10.1*
G04 #@! TF.CreationDate,2024-06-17T23:23:06+02:00*
G04 #@! TF.ProjectId,Hardware_NanoPi_v7_ConnectorPlate,48617264-7761-4726-955f-4e616e6f5069,rev?*
G04 #@! TF.SameCoordinates,Original*
G04 #@! TF.FileFunction,Copper,L2,Bot*
G04 #@! TF.FilePolarity,Positive*
%FSLAX46Y46*%
G04 Gerber Fmt 4.6, Leading zero omitted, Abs format (unit mm)*
G04 Created by KiCad (PCBNEW 7.0.11-7.0.11~ubuntu23.10.1) date 2024-06-17 23:23:06*
%MOMM*%
%LPD*%
G01*
G04 APERTURE LIST*
G04 #@! TA.AperFunction,ComponentPad*
%ADD10R,1.000000X1.000000*%
G04 #@! TD*
G04 #@! TA.AperFunction,ComponentPad*
%ADD11O,1.000000X1.000000*%
G04 #@! TD*
G04 #@! TA.AperFunction,ComponentPad*
%ADD12O,1.900000X1.900000*%
G04 #@! TD*
G04 #@! TA.AperFunction,ComponentPad*
%ADD13C,1.800000*%
G04 #@! TD*
G04 #@! TA.AperFunction,ComponentPad*
%ADD14R,1.700000X1.700000*%
G04 #@! TD*
G04 #@! TA.AperFunction,ComponentPad*
%ADD15O,1.700000X1.700000*%
G04 #@! TD*
G04 #@! TA.AperFunction,ViaPad*
%ADD16C,0.800000*%
G04 #@! TD*
G04 #@! TA.AperFunction,Conductor*
%ADD17C,0.300000*%
G04 #@! TD*
G04 #@! TA.AperFunction,Conductor*
%ADD18C,0.350000*%
G04 #@! TD*
G04 APERTURE END LIST*
D10*
G04 #@! TO.P,J10,1,Pin_1*
G04 #@! TO.N,unconnected-(J10-Pin_1-Pad1)*
X12000000Y52760000D03*
D11*
G04 #@! TO.P,J10,2,Pin_2*
G04 #@! TO.N,unconnected-(J10-Pin_2-Pad2)*
X12000000Y51490000D03*
G04 #@! TO.P,J10,3,Pin_3*
G04 #@! TO.N,unconnected-(J10-Pin_3-Pad3)*
X12000000Y50220000D03*
G04 #@! TO.P,J10,4,Pin_4*
G04 #@! TO.N,unconnected-(J10-Pin_4-Pad4)*
X12000000Y48950000D03*
G04 #@! TD*
D10*
G04 #@! TO.P,J6,1,Pin_1*
G04 #@! TO.N,VBUS*
X12000000Y31170000D03*
D11*
G04 #@! TO.P,J6,2,Pin_2*
G04 #@! TO.N,GND*
X12000000Y29900000D03*
G04 #@! TO.P,J6,3,Pin_3*
G04 #@! TO.N,unconnected-(J6-Pin_3-Pad3)*
X12000000Y28630000D03*
G04 #@! TO.P,J6,4,Pin_4*
G04 #@! TO.N,GND*
X12000000Y27360000D03*
G04 #@! TO.P,J6,5,Pin_5*
G04 #@! TO.N,USBHost-DP1*
X12000000Y26090000D03*
G04 #@! TO.P,J6,6,Pin_6*
G04 #@! TO.N,USBHost-DM1*
X12000000Y24820000D03*
G04 #@! TO.P,J6,7,Pin_7*
G04 #@! TO.N,VDD_5V*
X12000000Y23550000D03*
G04 #@! TO.P,J6,8,Pin_8*
G04 #@! TO.N,USBHost-DP2*
X12000000Y22280000D03*
G04 #@! TO.P,J6,9,Pin_9*
G04 #@! TO.N,USBHost-DM2*
X12000000Y21010000D03*
G04 #@! TD*
D12*
G04 #@! TO.P,J4,1,Pin_1*
G04 #@! TO.N,VBUS*
X7500000Y51030000D03*
G04 #@! TO.P,J4,2,Pin_2*
G04 #@! TO.N,unconnected-(J4-Pin_2-Pad2)*
X4960000Y53570000D03*
G04 #@! TO.P,J4,3,Pin_3*
G04 #@! TO.N,unconnected-(J4-Pin_3-Pad3)*
X4960000Y51030000D03*
G04 #@! TO.P,J4,4,Pin_4*
G04 #@! TO.N,GND*
X7500000Y53570000D03*
G04 #@! TD*
G04 #@! TO.P,J3,1,Pin_1*
G04 #@! TO.N,VDD_5V*
X8500000Y15500000D03*
G04 #@! TO.P,J3,2,Pin_2*
G04 #@! TO.N,Net-(J3-Pin_2)*
X11040000Y15500000D03*
G04 #@! TO.P,J3,3,Pin_3*
G04 #@! TO.N,Net-(J3-Pin_3)*
X11040000Y18040000D03*
G04 #@! TO.P,J3,4,Pin_4*
G04 #@! TO.N,GND*
X8500000Y18040000D03*
G04 #@! TD*
G04 #@! TO.P,J2,1,Pin_1*
G04 #@! TO.N,VDD_5V*
X5000000Y31770000D03*
G04 #@! TO.P,J2,2,Pin_2*
G04 #@! TO.N,Net-(J2-Pin_2)*
X7540000Y29230000D03*
G04 #@! TO.P,J2,3,Pin_3*
G04 #@! TO.N,Net-(J2-Pin_3)*
X7540000Y31770000D03*
G04 #@! TO.P,J2,4,Pin_4*
G04 #@! TO.N,GND*
X5000000Y29230000D03*
G04 #@! TD*
D13*
G04 #@! TO.P,J5,1,Pin_1*
G04 #@! TO.N,R2IN*
X5500000Y2230000D03*
G04 #@! TO.P,J5,2,Pin_2*
G04 #@! TO.N,T2OUT*
X5500000Y4770000D03*
G04 #@! TO.P,J5,3,Pin_3*
G04 #@! TO.N,GND*
X7405000Y3500000D03*
G04 #@! TD*
D14*
G04 #@! TO.P,J12,1,Pin_1*
G04 #@! TO.N,GND*
X2000000Y41520000D03*
D15*
G04 #@! TO.P,J12,2,Pin_2*
G04 #@! TO.N,PWRBTN*
X2000000Y38980000D03*
G04 #@! TD*
D10*
G04 #@! TO.P,J8,1,Pin_1*
G04 #@! TO.N,T2OUT*
X12000000Y13390000D03*
D11*
G04 #@! TO.P,J8,2,Pin_2*
G04 #@! TO.N,R2IN*
X12000000Y12120000D03*
G04 #@! TO.P,J8,3,Pin_3*
G04 #@! TO.N,GND*
X12000000Y10850000D03*
G04 #@! TO.P,J8,4,Pin_4*
G04 #@! TO.N,unconnected-(J8-Pin_4-Pad4)*
X12000000Y9580000D03*
G04 #@! TO.P,J8,5,Pin_5*
G04 #@! TO.N,unconnected-(J8-Pin_5-Pad5)*
X12000000Y8310000D03*
G04 #@! TO.P,J8,6,Pin_6*
G04 #@! TO.N,unconnected-(J8-Pin_6-Pad6)*
X12000000Y7040000D03*
G04 #@! TO.P,J8,7,Pin_7*
G04 #@! TO.N,unconnected-(J8-Pin_7-Pad7)*
X12000000Y5770000D03*
G04 #@! TO.P,J8,8,Pin_8*
G04 #@! TO.N,GND*
X12000000Y4500000D03*
G04 #@! TO.P,J8,9,Pin_9*
G04 #@! TO.N,PWRBTN*
X12000000Y3230000D03*
G04 #@! TD*
D14*
G04 #@! TO.P,J11,1,Pin_1*
G04 #@! TO.N,GND*
X4000000Y11700000D03*
D15*
G04 #@! TO.P,J11,2,Pin_2*
G04 #@! TO.N,PWRBTN*
X1460000Y11700000D03*
G04 #@! TD*
D16*
G04 #@! TO.N,USBHost-DM2*
X9200000Y22775000D03*
G04 #@! TO.N,USBHost-DP1*
X9200000Y24400000D03*
G04 #@! TO.N,GND*
X3750000Y23600000D03*
X10450000Y4500000D03*
X10575001Y10825000D03*
X1600000Y47800000D03*
X6300000Y27450000D03*
X7950000Y5600000D03*
X9350000Y2900000D03*
X6200000Y46750000D03*
X7150000Y12600000D03*
X6050000Y21250000D03*
X5450000Y19400000D03*
X14300000Y56550000D03*
X14800000Y46600000D03*
X10150000Y30350000D03*
X3000000Y56750000D03*
X10200000Y27750000D03*
G04 #@! TD*
D17*
G04 #@! TO.N,USBHost-DM2*
X12000000Y21010000D02*
X10965000Y21010000D01*
X10965000Y21010000D02*
X9200000Y22775000D01*
D18*
G04 #@! TO.N,VDD_5V*
X2550000Y27500000D02*
X2550000Y30150000D01*
X6500000Y23550000D02*
X6450000Y23600000D01*
X6450000Y23600000D02*
X4150000Y21300000D01*
X12000000Y23550000D02*
X6500000Y23550000D01*
X6250000Y15500000D02*
X8500000Y15500000D01*
X6450000Y23600000D02*
X2550000Y27500000D01*
X4150000Y17600000D02*
X6250000Y15500000D01*
X2550000Y30150000D02*
X4170000Y31770000D01*
X4150000Y21300000D02*
X4150000Y17600000D01*
X4170000Y31770000D02*
X5000000Y31770000D01*
D17*
G04 #@! TO.N,USBHost-DP1*
X9200000Y24400000D02*
X10890000Y26090000D01*
X10890000Y26090000D02*
X12000000Y26090000D01*
G04 #@! TD*
G04 #@! TA.AperFunction,Conductor*
G04 #@! TO.N,GND*
G36*
X15005392Y57999028D02*
G01*
X15017433Y57997975D01*
X15044880Y57995574D01*
X15045961Y57995474D01*
X15171776Y57983082D01*
X15191685Y57979459D01*
X15256467Y57962101D01*
X15260203Y57961034D01*
X15351570Y57933318D01*
X15367959Y57927048D01*
X15433867Y57896314D01*
X15439867Y57893315D01*
X15482639Y57870452D01*
X15519046Y57850992D01*
X15531715Y57843209D01*
X15592889Y57800375D01*
X15600430Y57794654D01*
X15668455Y57738828D01*
X15677472Y57730655D01*
X15730653Y57677474D01*
X15738826Y57668457D01*
X15794652Y57600432D01*
X15800373Y57592891D01*
X15843207Y57531717D01*
X15850990Y57519048D01*
X15893304Y57439886D01*
X15896328Y57433837D01*
X15927041Y57367973D01*
X15933319Y57351564D01*
X15961008Y57260287D01*
X15962123Y57256384D01*
X15979454Y57191702D01*
X15983082Y57171762D01*
X15995456Y57046118D01*
X15995581Y57044777D01*
X15999028Y57005396D01*
X15999500Y56994584D01*
X15999500Y46505417D01*
X15999028Y46494604D01*
X15995581Y46455224D01*
X15995456Y46453884D01*
X15983082Y46328240D01*
X15979454Y46308300D01*
X15962123Y46243618D01*
X15961008Y46239715D01*
X15933319Y46148438D01*
X15927041Y46132029D01*
X15896328Y46066165D01*
X15893304Y46060116D01*
X15850990Y45980954D01*
X15843207Y45968285D01*
X15800373Y45907111D01*
X15794652Y45899570D01*
X15738826Y45831545D01*
X15730653Y45822528D01*
X15677472Y45769347D01*
X15668455Y45761174D01*
X15600430Y45705348D01*
X15592889Y45699627D01*
X15531715Y45656793D01*
X15519046Y45649010D01*
X15439884Y45606696D01*
X15433835Y45603672D01*
X15367971Y45572959D01*
X15351562Y45566681D01*
X15260285Y45538992D01*
X15256382Y45537877D01*
X15191700Y45520546D01*
X15171760Y45516918D01*
X15046116Y45504544D01*
X15044776Y45504419D01*
X15009760Y45501354D01*
X15005392Y45500972D01*
X14994584Y45500500D01*
X6912465Y45500500D01*
X6740062Y45470102D01*
X6575553Y45410225D01*
X6423942Y45322691D01*
X6289836Y45210164D01*
X6177309Y45076058D01*
X6089775Y44924447D01*
X6029898Y44759938D01*
X5999500Y44587535D01*
X5999500Y41653406D01*
X5998721Y41639527D01*
X5996666Y41621282D01*
X5996386Y41618987D01*
X5986074Y41540606D01*
X5980178Y41515836D01*
X5968817Y41483359D01*
X5966336Y41476858D01*
X5944547Y41424245D01*
X5934981Y41405725D01*
X5914657Y41373375D01*
X5908040Y41363860D01*
X5875499Y41321446D01*
X5864801Y41309246D01*
X5837184Y41281628D01*
X5824991Y41270935D01*
X5782581Y41238390D01*
X5773067Y41231772D01*
X5740715Y41211442D01*
X5722195Y41201873D01*
X5669577Y41180076D01*
X5663076Y41177594D01*
X5630651Y41166248D01*
X5605840Y41160345D01*
X5525437Y41149787D01*
X5523179Y41149512D01*
X5511961Y41148248D01*
X5507338Y41147727D01*
X5493454Y41146947D01*
X5448528Y41146947D01*
X5448091Y41146900D01*
X5443611Y41146900D01*
X5443609Y41146900D01*
X5443603Y41146899D01*
X5333660Y41121807D01*
X5232047Y41072877D01*
X5143872Y41002566D01*
X5143868Y41002561D01*
X5073549Y40914394D01*
X5024609Y40812787D01*
X5024608Y40812784D01*
X4999506Y40702841D01*
X4999505Y40702834D01*
X4999500Y40646541D01*
X4999500Y36368873D01*
X5021359Y36202846D01*
X5033730Y36108884D01*
X5067597Y35982491D01*
X5101602Y35855582D01*
X5101605Y35855572D01*
X5201953Y35613310D01*
X5201958Y35613300D01*
X5333075Y35386197D01*
X5492718Y35178149D01*
X5492726Y35178140D01*
X5678140Y34992726D01*
X5678148Y34992719D01*
X5886196Y34833076D01*
X6113299Y34701959D01*
X6113309Y34701954D01*
X6232212Y34652703D01*
X6355581Y34601602D01*
X6608884Y34533730D01*
X6868880Y34499500D01*
X6999901Y34499500D01*
X14994587Y34499500D01*
X15005392Y34499028D01*
X15017433Y34497975D01*
X15044880Y34495574D01*
X15045961Y34495474D01*
X15171776Y34483082D01*
X15191685Y34479459D01*
X15256467Y34462101D01*
X15260203Y34461034D01*
X15351570Y34433318D01*
X15367959Y34427048D01*
X15433867Y34396314D01*
X15439867Y34393315D01*
X15482639Y34370452D01*
X15519046Y34350992D01*
X15531715Y34343209D01*
X15592889Y34300375D01*
X15600430Y34294654D01*
X15668455Y34238828D01*
X15677472Y34230655D01*
X15730653Y34177474D01*
X15738826Y34168457D01*
X15794652Y34100432D01*
X15800373Y34092891D01*
X15843207Y34031717D01*
X15850990Y34019048D01*
X15893304Y33939886D01*
X15896328Y33933837D01*
X15927041Y33867973D01*
X15933319Y33851564D01*
X15961008Y33760287D01*
X15962123Y33756384D01*
X15979454Y33691702D01*
X15983082Y33671762D01*
X15995456Y33546118D01*
X15995581Y33544777D01*
X15999028Y33505396D01*
X15999500Y33494584D01*
X15999500Y-994583D01*
X15999028Y-1005396D01*
X15995581Y-1044776D01*
X15995456Y-1046116D01*
X15983082Y-1171760D01*
X15979454Y-1191700D01*
X15962123Y-1256382D01*
X15961008Y-1260285D01*
X15933319Y-1351562D01*
X15927041Y-1367971D01*
X15896328Y-1433835D01*
X15893304Y-1439884D01*
X15850990Y-1519046D01*
X15843207Y-1531715D01*
X15800373Y-1592889D01*
X15794652Y-1600430D01*
X15738826Y-1668455D01*
X15730653Y-1677472D01*
X15677472Y-1730653D01*
X15668455Y-1738826D01*
X15600430Y-1794652D01*
X15592889Y-1800373D01*
X15531715Y-1843207D01*
X15519046Y-1850990D01*
X15439884Y-1893304D01*
X15433835Y-1896328D01*
X15367971Y-1927041D01*
X15351562Y-1933319D01*
X15260285Y-1961008D01*
X15256382Y-1962123D01*
X15191700Y-1979454D01*
X15171760Y-1983082D01*
X15046116Y-1995456D01*
X15044776Y-1995581D01*
X15009760Y-1998646D01*
X15005392Y-1999028D01*
X14994584Y-1999500D01*
X2005416Y-1999500D01*
X1994606Y-1999028D01*
X1992001Y-1998800D01*
X1955223Y-1995581D01*
X1953882Y-1995456D01*
X1828238Y-1983082D01*
X1808298Y-1979454D01*
X1743616Y-1962123D01*
X1739713Y-1961008D01*
X1648436Y-1933319D01*
X1632027Y-1927041D01*
X1566163Y-1896328D01*
X1560114Y-1893304D01*
X1480952Y-1850990D01*
X1468283Y-1843207D01*
X1407109Y-1800373D01*
X1399568Y-1794652D01*
X1331543Y-1738826D01*
X1322526Y-1730653D01*
X1269345Y-1677472D01*
X1261172Y-1668455D01*
X1205346Y-1600430D01*
X1199625Y-1592889D01*
X1156791Y-1531715D01*
X1149008Y-1519046D01*
X1129548Y-1482639D01*
X1106685Y-1439867D01*
X1103686Y-1433867D01*
X1072952Y-1367959D01*
X1066682Y-1351570D01*
X1038966Y-1260203D01*
X1037899Y-1256467D01*
X1020541Y-1191685D01*
X1016918Y-1171776D01*
X1004526Y-1045961D01*
X1004417Y-1044776D01*
X1000972Y-1005391D01*
X1000500Y-994586D01*
X1000500Y2056392D01*
X1000499Y2056400D01*
X975403Y2166351D01*
X944754Y2229994D01*
X4094700Y2229994D01*
X4113864Y1998703D01*
X4113866Y1998692D01*
X4170842Y1773700D01*
X4264075Y1561152D01*
X4391016Y1366853D01*
X4391019Y1366849D01*
X4391021Y1366847D01*
X4548216Y1196087D01*
X4548219Y1196085D01*
X4548222Y1196082D01*
X4731365Y1053536D01*
X4731371Y1053532D01*
X4731374Y1053530D01*
X4935497Y943064D01*
X5049487Y903932D01*
X5155015Y867703D01*
X5155017Y867703D01*
X5155019Y867702D01*
X5383951Y829500D01*
X5383952Y829500D01*
X5616048Y829500D01*
X5616049Y829500D01*
X5844981Y867702D01*
X6064503Y943064D01*
X6268626Y1053530D01*
X6451784Y1196087D01*
X6608979Y1366847D01*
X6735924Y1561151D01*
X6829157Y1773700D01*
X6886134Y1998695D01*
X6889029Y2033645D01*
X6914182Y2098828D01*
X6970584Y2140066D01*
X7040327Y2144266D01*
X7052876Y2140683D01*
X7060143Y2138188D01*
X7288993Y2100000D01*
X7521007Y2100000D01*
X7749860Y2138189D01*
X7969293Y2213521D01*
X7969301Y2213524D01*
X8173355Y2323953D01*
X8203797Y2347649D01*
X8203798Y2347649D01*
X7449400Y3102047D01*
X7530148Y3114835D01*
X7643045Y3172359D01*
X7732641Y3261955D01*
X7790165Y3374852D01*
X7802953Y3455600D01*
X8556186Y2702367D01*
X8640482Y2831389D01*
X8733682Y3043865D01*
X8790638Y3268782D01*
X8809798Y3499995D01*
X8809798Y3500006D01*
X8790638Y3731219D01*
X8733682Y3956136D01*
X8640484Y4168607D01*
X8556186Y4297635D01*
X7802953Y3544402D01*
X7790165Y3625148D01*
X7732641Y3738045D01*
X7643045Y3827641D01*
X7530148Y3885165D01*
X7449400Y3897954D01*
X8203797Y4652353D01*
X8203797Y4652355D01*
X8173360Y4676045D01*
X8173354Y4676049D01*
X7969302Y4786477D01*
X7969293Y4786480D01*
X7749860Y4861812D01*
X7521007Y4900000D01*
X7288993Y4900000D01*
X7060140Y4861812D01*
X7052867Y4859315D01*
X6983069Y4856166D01*
X6922648Y4891253D01*
X6890788Y4953437D01*
X6889030Y4966345D01*
X6886134Y5001305D01*
X6870146Y5064441D01*
X6829157Y5226301D01*
X6735924Y5438849D01*
X6608983Y5633148D01*
X6608980Y5633151D01*
X6608979Y5633153D01*
X6451784Y5803913D01*
X6451779Y5803917D01*
X6451777Y5803919D01*
X6268634Y5946465D01*
X6268628Y5946469D01*
X6064504Y6056936D01*
X6064495Y6056939D01*
X5844984Y6132298D01*
X5673282Y6160950D01*
X5616049Y6170500D01*
X5383951Y6170500D01*
X5338164Y6162860D01*
X5155015Y6132298D01*
X4935504Y6056939D01*
X4935495Y6056936D01*
X4731371Y5946469D01*
X4731365Y5946465D01*
X4548222Y5803919D01*
X4548219Y5803916D01*
X4391016Y5633148D01*
X4264075Y5438849D01*
X4170842Y5226301D01*
X4113866Y5001309D01*
X4113864Y5001298D01*
X4094700Y4770007D01*
X4094700Y4769994D01*
X4113864Y4538703D01*
X4113866Y4538692D01*
X4170842Y4313700D01*
X4264075Y4101152D01*
X4391016Y3906853D01*
X4391019Y3906849D01*
X4391021Y3906847D01*
X4548216Y3736087D01*
X4548219Y3736085D01*
X4548222Y3736082D01*
X4725818Y3597853D01*
X4766631Y3541143D01*
X4770306Y3471370D01*
X4735674Y3410687D01*
X4725818Y3402147D01*
X4548222Y3263919D01*
X4548219Y3263916D01*
X4391016Y3093148D01*
X4264075Y2898849D01*
X4170842Y2686301D01*
X4113866Y2461309D01*
X4113864Y2461298D01*
X4094700Y2230007D01*
X4094700Y2229994D01*
X944754Y2229994D01*
X926467Y2267967D01*
X926466Y2267970D01*
X881819Y2323953D01*
X856146Y2356146D01*
X826753Y2379587D01*
X767969Y2426467D01*
X767966Y2426468D01*
X666350Y2475404D01*
X556399Y2500500D01*
X556393Y2500500D01*
X506966Y2500500D01*
X493079Y2501280D01*
X474783Y2503342D01*
X472484Y2503623D01*
X394169Y2513934D01*
X369401Y2519831D01*
X336904Y2531202D01*
X330407Y2533682D01*
X297958Y2547122D01*
X277813Y2555467D01*
X259296Y2565033D01*
X226945Y2585361D01*
X217431Y2591979D01*
X175018Y2624524D01*
X162824Y2635218D01*
X135216Y2662826D01*
X124522Y2675020D01*
X91977Y2717433D01*
X85359Y2726947D01*
X82163Y2732033D01*
X65027Y2759305D01*
X55469Y2777805D01*
X33674Y2830425D01*
X31200Y2836906D01*
X19829Y2869403D01*
X13932Y2894172D01*
X13316Y2898849D01*
X3616Y2972533D01*
X3338Y2974811D01*
X1280Y2993077D01*
X500Y3006960D01*
X500Y11075025D01*
X20185Y11142064D01*
X72989Y11187819D01*
X142147Y11197763D01*
X205703Y11168738D01*
X236882Y11127429D01*
X285963Y11022174D01*
X285967Y11022166D01*
X366394Y10907306D01*
X421505Y10828599D01*
X588599Y10661505D01*
X665135Y10607914D01*
X782165Y10525968D01*
X782167Y10525967D01*
X782170Y10525965D01*
X996337Y10426097D01*
X1224592Y10364937D01*
X1395319Y10350000D01*
X1459999Y10344341D01*
X1460000Y10344341D01*
X1460001Y10344341D01*
X1524681Y10350000D01*
X1695408Y10364937D01*
X1923663Y10426097D01*
X2137830Y10525965D01*
X2331401Y10661505D01*
X2453717Y10783822D01*
X2515036Y10817304D01*
X2584728Y10812320D01*
X2640662Y10770449D01*
X2657577Y10739472D01*
X2706646Y10607912D01*
X2706649Y10607907D01*
X2792809Y10492813D01*
X2792812Y10492810D01*
X2907906Y10406650D01*
X2907913Y10406646D01*
X3042620Y10356404D01*
X3042627Y10356402D01*
X3102155Y10350001D01*
X3102172Y10350000D01*
X3750000Y10350000D01*
X3750000Y11264499D01*
X3857685Y11215320D01*
X3964237Y11200000D01*
X4035763Y11200000D01*
X4142315Y11215320D01*
X4250000Y11264499D01*
X4250000Y10350000D01*
X4897828Y10350000D01*
X4897844Y10350001D01*
X4957372Y10356402D01*
X4957379Y10356404D01*
X5092086Y10406646D01*
X5092093Y10406650D01*
X5207187Y10492810D01*
X5207190Y10492813D01*
X5293350Y10607907D01*
X5293354Y10607914D01*
X5343596Y10742621D01*
X5343598Y10742628D01*
X5349999Y10802156D01*
X5350000Y10802173D01*
X5350000Y11450000D01*
X4433686Y11450000D01*
X4459493Y11490156D01*
X4500000Y11628111D01*
X4500000Y11771889D01*
X4459493Y11909844D01*
X4433686Y11950000D01*
X5350000Y11950000D01*
X5350000Y12597828D01*
X5349999Y12597845D01*
X5343598Y12657373D01*
X5343596Y12657380D01*
X5293354Y12792087D01*
X5293350Y12792094D01*
X5207190Y12907188D01*
X5207187Y12907191D01*
X5092093Y12993351D01*
X5092086Y12993355D01*
X4957379Y13043597D01*
X4957372Y13043599D01*
X4897844Y13050000D01*
X4250000Y13050000D01*
X4250000Y12135502D01*
X4142315Y12184680D01*
X4035763Y12200000D01*
X3964237Y12200000D01*
X3857685Y12184680D01*
X3750000Y12135502D01*
X3750000Y13050000D01*
X3102155Y13050000D01*
X3042627Y13043599D01*
X3042620Y13043597D01*
X2907913Y12993355D01*
X2907906Y12993351D01*
X2792812Y12907191D01*
X2792809Y12907188D01*
X2706649Y12792094D01*
X2706645Y12792087D01*
X2657578Y12660530D01*
X2615707Y12604596D01*
X2550242Y12580179D01*
X2481969Y12595031D01*
X2453715Y12616181D01*
X2409366Y12660530D01*
X2331401Y12738495D01*
X2331397Y12738498D01*
X2331396Y12738499D01*
X2137834Y12874033D01*
X2137830Y12874035D01*
X2066727Y12907191D01*
X1923663Y12973903D01*
X1923659Y12973904D01*
X1923655Y12973906D01*
X1695413Y13035062D01*
X1695403Y13035064D01*
X1460001Y13055659D01*
X1459999Y13055659D01*
X1224596Y13035064D01*
X1224586Y13035062D01*
X996344Y12973906D01*
X996335Y12973902D01*
X782171Y12874036D01*
X782169Y12874035D01*
X588597Y12738495D01*
X421505Y12571403D01*
X285965Y12377831D01*
X285964Y12377829D01*
X236882Y12272571D01*
X190710Y12220132D01*
X123516Y12200980D01*
X56635Y12221196D01*
X11300Y12274361D01*
X500Y12324976D01*
X500Y24846594D01*
X1278Y24860458D01*
X2169Y24868380D01*
X3344Y24878818D01*
X3595Y24880883D01*
X13927Y24959410D01*
X19816Y24984154D01*
X31197Y25016688D01*
X33642Y25023092D01*
X55458Y25075772D01*
X65015Y25094273D01*
X85353Y25126645D01*
X91937Y25136113D01*
X124520Y25178581D01*
X135177Y25190734D01*
X162824Y25218384D01*
X175007Y25229067D01*
X216809Y25261145D01*
X217419Y25261614D01*
X226924Y25268226D01*
X259289Y25288564D01*
X277792Y25298124D01*
X330472Y25319946D01*
X336840Y25322378D01*
X369362Y25333758D01*
X394151Y25339656D01*
X474700Y25350232D01*
X476692Y25350474D01*
X490377Y25352016D01*
X492671Y25352274D01*
X506547Y25353053D01*
X551472Y25353053D01*
X551909Y25353100D01*
X556386Y25353100D01*
X556389Y25353100D01*
X666341Y25378194D01*
X767953Y25427124D01*
X856130Y25497437D01*
X926451Y25585607D01*
X975391Y25687214D01*
X1000495Y25797164D01*
X1000500Y25853553D01*
X1000500Y25854053D01*
X1000500Y27458915D01*
X1870781Y27458915D01*
X1881207Y27402013D01*
X1882334Y27394613D01*
X1889312Y27337155D01*
X1892637Y27328386D01*
X1898661Y27306777D01*
X1900350Y27297560D01*
X1924095Y27244800D01*
X1926960Y27237883D01*
X1947481Y27183776D01*
X1947481Y27183775D01*
X1952805Y27176062D01*
X1963824Y27156524D01*
X1967671Y27147977D01*
X1967672Y27147975D01*
X1967673Y27147974D01*
X1967674Y27147972D01*
X2003372Y27102408D01*
X2007785Y27096411D01*
X2040668Y27048771D01*
X2083989Y27010392D01*
X2089426Y27005273D01*
X5407017Y23687682D01*
X5440502Y23626359D01*
X5435518Y23556667D01*
X5407017Y23512320D01*
X3689424Y21794727D01*
X3683972Y21789594D01*
X3640669Y21751231D01*
X3640667Y21751228D01*
X3607800Y21703613D01*
X3603363Y21697583D01*
X3567674Y21652030D01*
X3563824Y21643475D01*
X3552808Y21623944D01*
X3547484Y21616230D01*
X3547482Y21616226D01*
X3526965Y21562131D01*
X3524102Y21555219D01*
X3500350Y21502440D01*
X3498661Y21493223D01*
X3492639Y21471619D01*
X3489311Y21462845D01*
X3482334Y21405387D01*
X3481207Y21397989D01*
X3470781Y21341092D01*
X3470781Y21341085D01*
X3474274Y21283337D01*
X3474500Y21275850D01*
X3474500Y17624151D01*
X3474274Y17616664D01*
X3470781Y17558918D01*
X3470781Y17558915D01*
X3481207Y17502013D01*
X3482334Y17494613D01*
X3489312Y17437155D01*
X3492637Y17428386D01*
X3498661Y17406777D01*
X3500350Y17397560D01*
X3524095Y17344800D01*
X3526960Y17337883D01*
X3547481Y17283776D01*
X3547481Y17283775D01*
X3552805Y17276062D01*
X3563824Y17256524D01*
X3567671Y17247977D01*
X3567672Y17247975D01*
X3567673Y17247974D01*
X3567674Y17247972D01*
X3603372Y17202408D01*
X3607785Y17196411D01*
X3640668Y17148771D01*
X3683989Y17110392D01*
X3689426Y17105273D01*
X5755279Y15039419D01*
X5760399Y15033981D01*
X5798771Y14990668D01*
X5798772Y14990667D01*
X5846387Y14957801D01*
X5852421Y14953361D01*
X5897967Y14917678D01*
X5897971Y14917675D01*
X5906506Y14913834D01*
X5926065Y14902803D01*
X5933772Y14897483D01*
X5933773Y14897483D01*
X5933774Y14897482D01*
X5987878Y14876963D01*
X5994788Y14874101D01*
X6047561Y14850350D01*
X6056776Y14848662D01*
X6078389Y14842637D01*
X6087155Y14839312D01*
X6144617Y14832335D01*
X6151977Y14831216D01*
X6208915Y14820781D01*
X6266658Y14824275D01*
X6274145Y14824500D01*
X7141590Y14824500D01*
X7208629Y14804815D01*
X7245398Y14768322D01*
X7333808Y14633002D01*
X7351429Y14606031D01*
X7514236Y14429175D01*
X7514239Y14429173D01*
X7514242Y14429170D01*
X7703924Y14281534D01*
X7703930Y14281530D01*
X7703933Y14281528D01*
X7915344Y14167118D01*
X7915347Y14167117D01*
X8142699Y14089067D01*
X8142701Y14089067D01*
X8142703Y14089066D01*
X8379808Y14049500D01*
X8379809Y14049500D01*
X8620191Y14049500D01*
X8620192Y14049500D01*
X8857297Y14089066D01*
X9084656Y14167118D01*
X9296067Y14281528D01*
X9485764Y14429175D01*
X9648571Y14606031D01*
X9666193Y14633005D01*
X9719337Y14678359D01*
X9788568Y14687783D01*
X9851904Y14658282D01*
X9873804Y14633008D01*
X9891429Y14606031D01*
X10054236Y14429175D01*
X10054239Y14429173D01*
X10054242Y14429170D01*
X10243924Y14281534D01*
X10243930Y14281530D01*
X10243933Y14281528D01*
X10455344Y14167118D01*
X10682703Y14089066D01*
X10895911Y14053488D01*
X10958794Y14023039D01*
X10995234Y13963424D01*
X10999500Y13931180D01*
X10999500Y12842130D01*
X10999501Y12842124D01*
X11005908Y12782517D01*
X11056202Y12647672D01*
X11056204Y12647669D01*
X11062231Y12639618D01*
X11086648Y12574154D01*
X11073105Y12510530D01*
X11073518Y12510359D01*
X11072595Y12508131D01*
X11072324Y12506857D01*
X11071188Y12504733D01*
X11013975Y12316130D01*
X10994659Y12120000D01*
X11013975Y11923871D01*
X11071188Y11735267D01*
X11164086Y11561468D01*
X11167473Y11556399D01*
X11165955Y11555385D01*
X11189918Y11498958D01*
X11178124Y11430091D01*
X11167515Y11413580D01*
X11167893Y11413327D01*
X11164505Y11408258D01*
X11071652Y11234542D01*
X11030839Y11100001D01*
X11030840Y11100000D01*
X11785517Y11100000D01*
X11714199Y11015007D01*
X11675000Y10907306D01*
X11675000Y10792694D01*
X11714199Y10684993D01*
X11785517Y10600000D01*
X11030840Y10600000D01*
X11071652Y10465459D01*
X11164503Y10291747D01*
X11167890Y10286678D01*
X11166215Y10285560D01*
X11189918Y10229741D01*
X11178123Y10160875D01*
X11167158Y10143812D01*
X11167473Y10143601D01*
X11164086Y10138533D01*
X11071188Y9964734D01*
X11013975Y9776130D01*
X10994659Y9580000D01*
X11013975Y9383871D01*
X11071188Y9195267D01*
X11164086Y9021468D01*
X11167473Y9016399D01*
X11165836Y9015306D01*
X11189596Y8959337D01*
X11177795Y8890471D01*
X11167109Y8873844D01*
X11167473Y8873601D01*
X11164086Y8868533D01*
X11071188Y8694734D01*
X11013975Y8506130D01*
X10994659Y8310000D01*
X11013975Y8113871D01*
X11071188Y7925267D01*
X11164086Y7751468D01*
X11167473Y7746399D01*
X11165836Y7745306D01*
X11189596Y7689337D01*
X11177795Y7620471D01*
X11167109Y7603844D01*
X11167473Y7603601D01*
X11164086Y7598533D01*
X11071188Y7424734D01*
X11013975Y7236130D01*
X10994659Y7040000D01*
X11013975Y6843871D01*
X11071188Y6655267D01*
X11164086Y6481468D01*
X11167473Y6476399D01*
X11165836Y6475306D01*
X11189596Y6419337D01*
X11177795Y6350471D01*
X11167109Y6333844D01*
X11167473Y6333601D01*
X11164086Y6328533D01*
X11071188Y6154734D01*
X11013975Y5966130D01*
X10994659Y5770000D01*
X11013975Y5573871D01*
X11071188Y5385267D01*
X11164086Y5211468D01*
X11167473Y5206399D01*
X11165955Y5205385D01*
X11189918Y5148958D01*
X11178124Y5080091D01*
X11167515Y5063580D01*
X11167893Y5063327D01*
X11164505Y5058258D01*
X11071652Y4884542D01*
X11030839Y4750001D01*
X11030840Y4750000D01*
X11785517Y4750000D01*
X11714199Y4665007D01*
X11675000Y4557306D01*
X11675000Y4442694D01*
X11714199Y4334993D01*
X11785517Y4250000D01*
X11030840Y4250000D01*
X11071652Y4115459D01*
X11164503Y3941747D01*
X11167890Y3936678D01*
X11166215Y3935560D01*
X11189918Y3879741D01*
X11178123Y3810875D01*
X11167158Y3793812D01*
X11167473Y3793601D01*
X11164086Y3788533D01*
X11071188Y3614734D01*
X11013975Y3426130D01*
X10994659Y3230000D01*
X11013975Y3033871D01*
X11071188Y2845267D01*
X11164086Y2671468D01*
X11164090Y2671461D01*
X11289116Y2519117D01*
X11441460Y2394091D01*
X11441467Y2394087D01*
X11615266Y2301189D01*
X11615269Y2301189D01*
X11615273Y2301186D01*
X11803868Y2243976D01*
X12000000Y2224659D01*
X12196132Y2243976D01*
X12384727Y2301186D01*
X12558538Y2394090D01*
X12710883Y2519117D01*
X12835910Y2671462D01*
X12928814Y2845273D01*
X12986024Y3033868D01*
X13005341Y3230000D01*
X12986024Y3426132D01*
X12928814Y3614727D01*
X12835910Y3788538D01*
X12835906Y3788543D01*
X12832526Y3793601D01*
X12834044Y3794616D01*
X12810081Y3851038D01*
X12821872Y3919906D01*
X12832492Y3936426D01*
X12832111Y3936680D01*
X12835497Y3941748D01*
X12928347Y4115459D01*
X12969160Y4250000D01*
X12214483Y4250000D01*
X12285801Y4334993D01*
X12325000Y4442694D01*
X12325000Y4557306D01*
X12285801Y4665007D01*
X12214483Y4750000D01*
X12969160Y4750000D01*
X12969160Y4750001D01*
X12928347Y4884542D01*
X12835496Y5058254D01*
X12832110Y5063322D01*
X12833784Y5064441D01*
X12810081Y5120254D01*
X12821874Y5189121D01*
X12832839Y5206182D01*
X12832523Y5206393D01*
X12835904Y5211456D01*
X12835910Y5211462D01*
X12928814Y5385273D01*
X12986024Y5573868D01*
X13005341Y5770000D01*
X12986024Y5966132D01*
X12928814Y6154727D01*
X12835910Y6328538D01*
X12835907Y6328542D01*
X12832523Y6333607D01*
X12834164Y6334704D01*
X12810405Y6390639D01*
X12822194Y6459507D01*
X12832888Y6476149D01*
X12832523Y6476393D01*
X12835904Y6481456D01*
X12835910Y6481462D01*
X12928814Y6655273D01*
X12986024Y6843868D01*
X13005341Y7040000D01*
X12986024Y7236132D01*
X12928814Y7424727D01*
X12835910Y7598538D01*
X12835907Y7598542D01*
X12832523Y7603607D01*
X12834164Y7604704D01*
X12810405Y7660639D01*
X12822194Y7729507D01*
X12832888Y7746149D01*
X12832523Y7746393D01*
X12835904Y7751456D01*
X12835910Y7751462D01*
X12928814Y7925273D01*
X12986024Y8113868D01*
X13005341Y8310000D01*
X12986024Y8506132D01*
X12928814Y8694727D01*
X12835910Y8868538D01*
X12835907Y8868542D01*
X12832523Y8873607D01*
X12834164Y8874704D01*
X12810405Y8930639D01*
X12822194Y8999507D01*
X12832888Y9016149D01*
X12832523Y9016393D01*
X12835904Y9021456D01*
X12835910Y9021462D01*
X12928814Y9195273D01*
X12986024Y9383868D01*
X13005341Y9580000D01*
X12986024Y9776132D01*
X12928814Y9964727D01*
X12835910Y10138538D01*
X12835906Y10138543D01*
X12832526Y10143601D01*
X12834044Y10144616D01*
X12810081Y10201038D01*
X12821872Y10269906D01*
X12832492Y10286426D01*
X12832111Y10286680D01*
X12835497Y10291748D01*
X12928347Y10465459D01*
X12969160Y10600000D01*
X12214483Y10600000D01*
X12285801Y10684993D01*
X12325000Y10792694D01*
X12325000Y10907306D01*
X12285801Y11015007D01*
X12214483Y11100000D01*
X12969160Y11100000D01*
X12969160Y11100001D01*
X12928347Y11234542D01*
X12835496Y11408254D01*
X12832110Y11413322D01*
X12833784Y11414441D01*
X12810081Y11470254D01*
X12821874Y11539121D01*
X12832839Y11556182D01*
X12832523Y11556393D01*
X12835904Y11561456D01*
X12835910Y11561462D01*
X12928814Y11735273D01*
X12986024Y11923868D01*
X13005341Y12120000D01*
X12986024Y12316132D01*
X12928814Y12504727D01*
X12927677Y12506854D01*
X12927418Y12508096D01*
X12926483Y12510355D01*
X12926911Y12510533D01*
X12913435Y12575254D01*
X12937771Y12639621D01*
X12943796Y12647669D01*
X12994091Y12782517D01*
X13000500Y12842127D01*
X13000499Y13937872D01*
X12994091Y13997483D01*
X12984559Y14023039D01*
X12943797Y14132329D01*
X12943793Y14132336D01*
X12857547Y14247545D01*
X12857544Y14247548D01*
X12742335Y14333794D01*
X12742328Y14333798D01*
X12607482Y14384092D01*
X12607483Y14384092D01*
X12547883Y14390499D01*
X12547881Y14390500D01*
X12547873Y14390500D01*
X12547865Y14390500D01*
X12272852Y14390500D01*
X12205813Y14410185D01*
X12160058Y14462989D01*
X12150114Y14532147D01*
X12179139Y14595703D01*
X12181606Y14598466D01*
X12188571Y14606031D01*
X12320049Y14807272D01*
X12416610Y15027409D01*
X12475620Y15260437D01*
X12495471Y15500000D01*
X12475620Y15739563D01*
X12416610Y15972591D01*
X12320049Y16192728D01*
X12309999Y16208110D01*
X12188572Y16393967D01*
X12188571Y16393969D01*
X12025764Y16570825D01*
X11895585Y16672148D01*
X11854773Y16728857D01*
X11851098Y16798630D01*
X11885730Y16859313D01*
X11895585Y16867853D01*
X12025764Y16969175D01*
X12188571Y17146031D01*
X12320049Y17347272D01*
X12416610Y17567409D01*
X12475620Y17800437D01*
X12485101Y17914852D01*
X12495471Y18039995D01*
X12495471Y18040006D01*
X12475620Y18279560D01*
X12475620Y18279563D01*
X12416610Y18512591D01*
X12320049Y18732728D01*
X12188571Y18933969D01*
X12025764Y19110825D01*
X12025759Y19110829D01*
X12025757Y19110831D01*
X11836075Y19258467D01*
X11836069Y19258471D01*
X11624657Y19372882D01*
X11624652Y19372884D01*
X11397300Y19450934D01*
X11219468Y19480609D01*
X11160192Y19490500D01*
X10919808Y19490500D01*
X10872387Y19482587D01*
X10682699Y19450934D01*
X10455347Y19372884D01*
X10455342Y19372882D01*
X10243930Y19258471D01*
X10243924Y19258467D01*
X10054242Y19110831D01*
X10054239Y19110828D01*
X10054236Y19110826D01*
X10054236Y19110825D01*
X10022906Y19076792D01*
X9891428Y18933969D01*
X9873509Y18906541D01*
X9820362Y18861185D01*
X9751130Y18851762D01*
X9687795Y18881265D01*
X9665893Y18906542D01*
X9648178Y18933656D01*
X9485422Y19110456D01*
X9295790Y19258053D01*
X9084455Y19372422D01*
X9084449Y19372424D01*
X8857176Y19450447D01*
X8750000Y19468332D01*
X8750000Y18355686D01*
X8738045Y18367641D01*
X8625148Y18425165D01*
X8531481Y18440000D01*
X8468519Y18440000D01*
X8374852Y18425165D01*
X8261955Y18367641D01*
X8250000Y18355686D01*
X8250000Y19468332D01*
X8249999Y19468332D01*
X8142823Y19450447D01*
X7915550Y19372424D01*
X7915544Y19372422D01*
X7704209Y19258053D01*
X7514577Y19110456D01*
X7351826Y18933662D01*
X7351823Y18933658D01*
X7220393Y18732491D01*
X7123865Y18512429D01*
X7067539Y18290000D01*
X8184314Y18290000D01*
X8172359Y18278045D01*
X8114835Y18165148D01*
X8095014Y18040000D01*
X8114835Y17914852D01*
X8172359Y17801955D01*
X8184314Y17790000D01*
X7067539Y17790000D01*
X7123865Y17567572D01*
X7220393Y17347510D01*
X7351823Y17146343D01*
X7351826Y17146339D01*
X7514577Y16969545D01*
X7644821Y16868172D01*
X7685634Y16811461D01*
X7689309Y16741688D01*
X7654678Y16681005D01*
X7644822Y16672465D01*
X7514238Y16570827D01*
X7351430Y16393971D01*
X7351427Y16393967D01*
X7245398Y16231678D01*
X7192252Y16186321D01*
X7141590Y16175500D01*
X6581164Y16175500D01*
X6514125Y16195185D01*
X6493483Y16211819D01*
X4861819Y17843483D01*
X4828334Y17904806D01*
X4825500Y17931164D01*
X4825500Y20968837D01*
X4845185Y21035876D01*
X4861819Y21056518D01*
X6643483Y22838181D01*
X6704806Y22871666D01*
X6731164Y22874500D01*
X8172432Y22874500D01*
X8239471Y22854815D01*
X8285226Y22802011D01*
X8295752Y22763465D01*
X8314326Y22586744D01*
X8314327Y22586741D01*
X8372818Y22406723D01*
X8372821Y22406716D01*
X8467467Y22242784D01*
X8564477Y22135044D01*
X8594129Y22102112D01*
X8747265Y21990852D01*
X8747270Y21990849D01*
X8920192Y21913858D01*
X8920197Y21913856D01*
X9105354Y21874500D01*
X9129192Y21874500D01*
X9196231Y21854815D01*
X9216873Y21838181D01*
X10444564Y20610490D01*
X10454635Y20597920D01*
X10454822Y20598074D01*
X10459795Y20592063D01*
X10510832Y20544136D01*
X10513629Y20541425D01*
X10533967Y20521087D01*
X10537450Y20518385D01*
X10546326Y20510804D01*
X10572145Y20486559D01*
X10579607Y20479552D01*
X10579610Y20479550D01*
X10579612Y20479549D01*
X10598207Y20469326D01*
X10614468Y20458644D01*
X10623729Y20451461D01*
X10631236Y20445638D01*
X10673138Y20427506D01*
X10683612Y20422375D01*
X10723632Y20400373D01*
X10744204Y20395092D01*
X10762594Y20388795D01*
X10782074Y20380365D01*
X10827175Y20373223D01*
X10838586Y20370859D01*
X10882823Y20359500D01*
X10904045Y20359500D01*
X10923444Y20357974D01*
X10944405Y20354653D01*
X10989860Y20358950D01*
X11001530Y20359500D01*
X11180914Y20359500D01*
X11247953Y20339815D01*
X11276768Y20314164D01*
X11289117Y20299117D01*
X11441460Y20174091D01*
X11441467Y20174087D01*
X11615266Y20081189D01*
X11615269Y20081189D01*
X11615273Y20081186D01*
X11803868Y20023976D01*
X12000000Y20004659D01*
X12196132Y20023976D01*
X12384727Y20081186D01*
X12558538Y20174090D01*
X12710883Y20299117D01*
X12835910Y20451462D01*
X12928814Y20625273D01*
X12986024Y20813868D01*
X13005341Y21010000D01*
X12986024Y21206132D01*
X12928814Y21394727D01*
X12927070Y21397989D01*
X12882089Y21482143D01*
X12835910Y21568538D01*
X12835907Y21568542D01*
X12832523Y21573607D01*
X12834164Y21574704D01*
X12810405Y21630639D01*
X12822194Y21699507D01*
X12832888Y21716149D01*
X12832523Y21716393D01*
X12835904Y21721456D01*
X12835910Y21721462D01*
X12928814Y21895273D01*
X12986024Y22083868D01*
X13005341Y22280000D01*
X12986024Y22476132D01*
X12928814Y22664727D01*
X12835910Y22838538D01*
X12835907Y22838542D01*
X12832523Y22843607D01*
X12834164Y22844704D01*
X12810405Y22900639D01*
X12822194Y22969507D01*
X12832888Y22986149D01*
X12832523Y22986393D01*
X12835904Y22991456D01*
X12835910Y22991462D01*
X12928814Y23165273D01*
X12986024Y23353868D01*
X13005341Y23550000D01*
X12986024Y23746132D01*
X12928814Y23934727D01*
X12835910Y24108538D01*
X12835907Y24108542D01*
X12832523Y24113607D01*
X12834164Y24114704D01*
X12810405Y24170639D01*
X12822194Y24239507D01*
X12832888Y24256149D01*
X12832523Y24256393D01*
X12835904Y24261456D01*
X12835910Y24261462D01*
X12928814Y24435273D01*
X12986024Y24623868D01*
X13005341Y24820000D01*
X12986024Y25016132D01*
X12928814Y25204727D01*
X12835910Y25378538D01*
X12835907Y25378542D01*
X12832523Y25383607D01*
X12834164Y25384704D01*
X12810405Y25440639D01*
X12822194Y25509507D01*
X12832888Y25526149D01*
X12832523Y25526393D01*
X12835904Y25531456D01*
X12835910Y25531462D01*
X12928814Y25705273D01*
X12986024Y25893868D01*
X13005341Y26090000D01*
X12986024Y26286132D01*
X12928814Y26474727D01*
X12835910Y26648538D01*
X12835906Y26648543D01*
X12832526Y26653601D01*
X12834044Y26654616D01*
X12810081Y26711038D01*
X12821872Y26779906D01*
X12832492Y26796426D01*
X12832111Y26796680D01*
X12835497Y26801748D01*
X12928347Y26975459D01*
X12969160Y27110000D01*
X12214483Y27110000D01*
X12285801Y27194993D01*
X12325000Y27302694D01*
X12325000Y27417306D01*
X12285801Y27525007D01*
X12214483Y27610000D01*
X12969160Y27610000D01*
X12969160Y27610001D01*
X12928347Y27744542D01*
X12835496Y27918254D01*
X12832110Y27923322D01*
X12833784Y27924441D01*
X12810081Y27980254D01*
X12821874Y28049121D01*
X12832839Y28066182D01*
X12832523Y28066393D01*
X12835904Y28071456D01*
X12835910Y28071462D01*
X12928814Y28245273D01*
X12986024Y28433868D01*
X13005341Y28630000D01*
X12986024Y28826132D01*
X12928814Y29014727D01*
X12835910Y29188538D01*
X12835906Y29188543D01*
X12832526Y29193601D01*
X12834044Y29194616D01*
X12810081Y29251038D01*
X12821872Y29319906D01*
X12832492Y29336426D01*
X12832111Y29336680D01*
X12835497Y29341748D01*
X12928347Y29515459D01*
X12969160Y29650000D01*
X12214483Y29650000D01*
X12285801Y29734993D01*
X12325000Y29842694D01*
X12325000Y29957306D01*
X12285801Y30065007D01*
X12214483Y30150000D01*
X12969160Y30150000D01*
X12969160Y30150001D01*
X12928348Y30284538D01*
X12927345Y30286415D01*
X12927115Y30287517D01*
X12926018Y30290167D01*
X12926520Y30290376D01*
X12913105Y30354818D01*
X12937440Y30419179D01*
X12943796Y30427669D01*
X12994091Y30562517D01*
X13000500Y30622127D01*
X13000499Y31717872D01*
X12994091Y31777483D01*
X12943796Y31912331D01*
X12943795Y31912332D01*
X12943793Y31912336D01*
X12857547Y32027545D01*
X12857544Y32027548D01*
X12742335Y32113794D01*
X12742328Y32113798D01*
X12607482Y32164092D01*
X12607483Y32164092D01*
X12547883Y32170499D01*
X12547881Y32170500D01*
X12547873Y32170500D01*
X12547864Y32170500D01*
X11452129Y32170500D01*
X11452123Y32170499D01*
X11392516Y32164092D01*
X11257671Y32113798D01*
X11257664Y32113794D01*
X11142455Y32027548D01*
X11142452Y32027545D01*
X11056206Y31912336D01*
X11056202Y31912329D01*
X11005908Y31777483D01*
X10999501Y31717884D01*
X10999501Y31717877D01*
X10999500Y31717865D01*
X10999500Y30622130D01*
X10999501Y30622124D01*
X11005908Y30562517D01*
X11056202Y30427672D01*
X11056206Y30427665D01*
X11062561Y30419176D01*
X11086979Y30353712D01*
X11073495Y30290364D01*
X11073981Y30290162D01*
X11072894Y30287539D01*
X11072655Y30286414D01*
X11071650Y30284536D01*
X11030839Y30150001D01*
X11030840Y30150000D01*
X11785517Y30150000D01*
X11714199Y30065007D01*
X11675000Y29957306D01*
X11675000Y29842694D01*
X11714199Y29734993D01*
X11785517Y29650000D01*
X11030840Y29650000D01*
X11071652Y29515459D01*
X11164503Y29341747D01*
X11167890Y29336678D01*
X11166215Y29335560D01*
X11189918Y29279741D01*
X11178123Y29210875D01*
X11167158Y29193812D01*
X11167473Y29193601D01*
X11164086Y29188533D01*
X11071188Y29014734D01*
X11013975Y28826130D01*
X10994659Y28630000D01*
X11013975Y28433871D01*
X11071188Y28245267D01*
X11164086Y28071468D01*
X11167473Y28066399D01*
X11165955Y28065385D01*
X11189918Y28008958D01*
X11178124Y27940091D01*
X11167515Y27923580D01*
X11167893Y27923327D01*
X11164505Y27918258D01*
X11071652Y27744542D01*
X11030839Y27610001D01*
X11030840Y27610000D01*
X11785517Y27610000D01*
X11714199Y27525007D01*
X11675000Y27417306D01*
X11675000Y27302694D01*
X11714199Y27194993D01*
X11785517Y27110000D01*
X11030840Y27110000D01*
X11071652Y26975461D01*
X11099718Y26922952D01*
X11113959Y26854549D01*
X11088958Y26789306D01*
X11032653Y26747936D01*
X10990359Y26740500D01*
X10975505Y26740500D01*
X10959494Y26742268D01*
X10959472Y26742026D01*
X10951705Y26742760D01*
X10951704Y26742760D01*
X10881738Y26740561D01*
X10877843Y26740500D01*
X10849075Y26740500D01*
X10849072Y26740500D01*
X10849057Y26740499D01*
X10844687Y26739947D01*
X10833059Y26739032D01*
X10787435Y26737598D01*
X10787425Y26737596D01*
X10767049Y26731677D01*
X10748008Y26727734D01*
X10726953Y26725074D01*
X10726937Y26725070D01*
X10684486Y26708263D01*
X10673440Y26704481D01*
X10629599Y26691744D01*
X10611327Y26680938D01*
X10593861Y26672381D01*
X10574128Y26664568D01*
X10537193Y26637734D01*
X10527434Y26631324D01*
X10488132Y26608080D01*
X10473126Y26593074D01*
X10458336Y26580442D01*
X10441167Y26567968D01*
X10441165Y26567966D01*
X10412056Y26532781D01*
X10404196Y26524144D01*
X9216873Y25336819D01*
X9155550Y25303334D01*
X9129192Y25300500D01*
X9105354Y25300500D01*
X9094176Y25298124D01*
X8920197Y25261145D01*
X8920192Y25261143D01*
X8747270Y25184152D01*
X8747265Y25184149D01*
X8594129Y25072889D01*
X8467466Y24932215D01*
X8372821Y24768285D01*
X8372818Y24768278D01*
X8325898Y24623871D01*
X8314326Y24588256D01*
X8294540Y24400000D01*
X8298485Y24362460D01*
X8285917Y24293732D01*
X8238185Y24242708D01*
X8175165Y24225500D01*
X6831163Y24225500D01*
X6764124Y24245185D01*
X6743482Y24261819D01*
X3261819Y27743482D01*
X3228334Y27804805D01*
X3225500Y27831163D01*
X3225500Y29818838D01*
X3245185Y29885877D01*
X3261815Y29906515D01*
X3959434Y30604135D01*
X4020755Y30637618D01*
X4090446Y30632634D01*
X4123273Y30614307D01*
X4144819Y30597538D01*
X4185633Y30540829D01*
X4189309Y30471056D01*
X4154680Y30410372D01*
X4144822Y30401830D01*
X4014578Y30300457D01*
X3851826Y30123662D01*
X3851823Y30123658D01*
X3720393Y29922491D01*
X3623865Y29702429D01*
X3567539Y29480000D01*
X4684314Y29480000D01*
X4672359Y29468045D01*
X4614835Y29355148D01*
X4595014Y29230000D01*
X4614835Y29104852D01*
X4672359Y28991955D01*
X4684314Y28980000D01*
X3567539Y28980000D01*
X3623865Y28757572D01*
X3720393Y28537510D01*
X3851823Y28336343D01*
X3851826Y28336339D01*
X4014577Y28159545D01*
X4204209Y28011948D01*
X4415544Y27897579D01*
X4415550Y27897577D01*
X4642823Y27819554D01*
X4749999Y27801670D01*
X4750000Y27801670D01*
X4750000Y28914314D01*
X4761955Y28902359D01*
X4874852Y28844835D01*
X4968519Y28830000D01*
X5031481Y28830000D01*
X5125148Y28844835D01*
X5238045Y28902359D01*
X5250000Y28914314D01*
X5250000Y27801670D01*
X5357176Y27819554D01*
X5584449Y27897577D01*
X5584455Y27897579D01*
X5795790Y28011948D01*
X5985422Y28159545D01*
X6148177Y28336344D01*
X6165891Y28363457D01*
X6219036Y28408815D01*
X6288267Y28418240D01*
X6351603Y28388740D01*
X6373504Y28363467D01*
X6391429Y28336031D01*
X6554236Y28159175D01*
X6554239Y28159173D01*
X6554242Y28159170D01*
X6743924Y28011534D01*
X6743930Y28011530D01*
X6743933Y28011528D01*
X6955344Y27897118D01*
X6955347Y27897117D01*
X7182699Y27819067D01*
X7182701Y27819067D01*
X7182703Y27819066D01*
X7419808Y27779500D01*
X7419809Y27779500D01*
X7660191Y27779500D01*
X7660192Y27779500D01*
X7897297Y27819066D01*
X8124656Y27897118D01*
X8336067Y28011528D01*
X8525764Y28159175D01*
X8688571Y28336031D01*
X8820049Y28537272D01*
X8916610Y28757409D01*
X8975620Y28990437D01*
X8992035Y29188533D01*
X8995471Y29229995D01*
X8995471Y29230006D01*
X8976386Y29460315D01*
X8975620Y29469563D01*
X8916610Y29702591D01*
X8820049Y29922728D01*
X8688571Y30123969D01*
X8525764Y30300825D01*
X8395585Y30402148D01*
X8354773Y30458857D01*
X8351098Y30528630D01*
X8385730Y30589313D01*
X8395585Y30597853D01*
X8525764Y30699175D01*
X8688571Y30876031D01*
X8820049Y31077272D01*
X8916610Y31297409D01*
X8975620Y31530437D01*
X8991151Y31717865D01*
X8995471Y31769995D01*
X8995471Y31770006D01*
X8975620Y32009560D01*
X8975620Y32009563D01*
X8916610Y32242591D01*
X8820049Y32462728D01*
X8809999Y32478110D01*
X8688572Y32663967D01*
X8688571Y32663969D01*
X8525764Y32840825D01*
X8525759Y32840829D01*
X8525757Y32840831D01*
X8336075Y32988467D01*
X8336069Y32988471D01*
X8124657Y33102882D01*
X8124652Y33102884D01*
X7897300Y33180934D01*
X7719468Y33210609D01*
X7660192Y33220500D01*
X7419808Y33220500D01*
X7372387Y33212587D01*
X7182699Y33180934D01*
X6955347Y33102884D01*
X6955342Y33102882D01*
X6743930Y32988471D01*
X6743924Y32988467D01*
X6554242Y32840831D01*
X6554239Y32840828D01*
X6391430Y32663971D01*
X6391429Y32663969D01*
X6373807Y32636997D01*
X6320660Y32591642D01*
X6251429Y32582220D01*
X6188093Y32611723D01*
X6166193Y32636997D01*
X6164154Y32640117D01*
X6148571Y32663969D01*
X5985764Y32840825D01*
X5985759Y32840829D01*
X5985757Y32840831D01*
X5796075Y32988467D01*
X5796069Y32988471D01*
X5584657Y33102882D01*
X5584652Y33102884D01*
X5357300Y33180934D01*
X5179468Y33210609D01*
X5120192Y33220500D01*
X4879808Y33220500D01*
X4832387Y33212587D01*
X4642699Y33180934D01*
X4415347Y33102884D01*
X4415342Y33102882D01*
X4203930Y32988471D01*
X4203924Y32988467D01*
X4014242Y32840831D01*
X4014239Y32840828D01*
X3851430Y32663971D01*
X3851427Y32663967D01*
X3719951Y32462730D01*
X3623388Y32242589D01*
X3610101Y32190119D01*
X3577577Y32132880D01*
X2089424Y30644727D01*
X2083972Y30639594D01*
X2040669Y30601231D01*
X2040667Y30601228D01*
X2007800Y30553613D01*
X2003363Y30547583D01*
X1967674Y30502030D01*
X1963824Y30493475D01*
X1952808Y30473944D01*
X1947484Y30466230D01*
X1947482Y30466226D01*
X1926965Y30412131D01*
X1924102Y30405219D01*
X1900350Y30352440D01*
X1898661Y30343223D01*
X1892639Y30321619D01*
X1889311Y30312845D01*
X1882334Y30255387D01*
X1881207Y30247989D01*
X1870781Y30191092D01*
X1870781Y30191085D01*
X1874274Y30133337D01*
X1874500Y30125850D01*
X1874500Y27524151D01*
X1874274Y27516664D01*
X1870781Y27458918D01*
X1870781Y27458915D01*
X1000500Y27458915D01*
X1000500Y36095040D01*
X1000551Y36095218D01*
X1000546Y36146447D01*
X1000547Y36146447D01*
X1000542Y36202842D01*
X975435Y36312801D01*
X926491Y36414418D01*
X856163Y36502596D01*
X767978Y36572916D01*
X719040Y36596482D01*
X666360Y36621850D01*
X666357Y36621852D01*
X556402Y36646946D01*
X556397Y36646947D01*
X556395Y36646947D01*
X556392Y36646947D01*
X506969Y36646947D01*
X493078Y36647728D01*
X474787Y36649790D01*
X472492Y36650070D01*
X394170Y36660382D01*
X369398Y36666280D01*
X336927Y36677643D01*
X330431Y36680123D01*
X277822Y36701915D01*
X259301Y36711484D01*
X226961Y36731806D01*
X217447Y36738424D01*
X175034Y36770971D01*
X162843Y36781664D01*
X135228Y36809282D01*
X124540Y36821470D01*
X91995Y36863889D01*
X85384Y36873395D01*
X65055Y36905753D01*
X55493Y36924264D01*
X33703Y36976881D01*
X31232Y36983355D01*
X19850Y37015891D01*
X13963Y37040603D01*
X3870Y37117105D01*
X3605Y37119284D01*
X1278Y37139958D01*
X500Y37153824D01*
X500Y38980000D01*
X644341Y38980000D01*
X664936Y38744597D01*
X664938Y38744587D01*
X726094Y38516345D01*
X726096Y38516341D01*
X726097Y38516337D01*
X825965Y38302170D01*
X825967Y38302166D01*
X934281Y38147479D01*
X961505Y38108599D01*
X1128599Y37941505D01*
X1225384Y37873735D01*
X1322165Y37805968D01*
X1322167Y37805967D01*
X1322170Y37805965D01*
X1536337Y37706097D01*
X1764592Y37644937D01*
X1952918Y37628461D01*
X1999999Y37624341D01*
X2000000Y37624341D01*
X2000001Y37624341D01*
X2039234Y37627774D01*
X2235408Y37644937D01*
X2463663Y37706097D01*
X2677830Y37805965D01*
X2871401Y37941505D01*
X3038495Y38108599D01*
X3174035Y38302170D01*
X3273903Y38516337D01*
X3335063Y38744592D01*
X3355659Y38980000D01*
X3335063Y39215408D01*
X3273903Y39443663D01*
X3174035Y39657829D01*
X3038495Y39851401D01*
X2916179Y39973717D01*
X2882696Y40035037D01*
X2887680Y40104729D01*
X2929551Y40160663D01*
X2960529Y40177578D01*
X3092086Y40226646D01*
X3092093Y40226650D01*
X3207187Y40312810D01*
X3207190Y40312813D01*
X3293350Y40427907D01*
X3293354Y40427914D01*
X3343596Y40562621D01*
X3343598Y40562628D01*
X3349999Y40622156D01*
X3350000Y40622173D01*
X3350000Y41270000D01*
X2315686Y41270000D01*
X2327641Y41281955D01*
X2385165Y41394852D01*
X2404986Y41520000D01*
X2385165Y41645148D01*
X2327641Y41758045D01*
X2315686Y41770000D01*
X3350000Y41770000D01*
X3350000Y42417828D01*
X3349999Y42417845D01*
X3343598Y42477373D01*
X3343596Y42477380D01*
X3293354Y42612087D01*
X3293350Y42612094D01*
X3207190Y42727188D01*
X3207187Y42727191D01*
X3092093Y42813351D01*
X3092086Y42813355D01*
X2957379Y42863597D01*
X2957372Y42863599D01*
X2897844Y42870000D01*
X2250000Y42870000D01*
X2250000Y41835686D01*
X2238045Y41847641D01*
X2125148Y41905165D01*
X2031481Y41920000D01*
X1968519Y41920000D01*
X1874852Y41905165D01*
X1761955Y41847641D01*
X1750000Y41835686D01*
X1750000Y42870000D01*
X1102155Y42870000D01*
X1042627Y42863599D01*
X1042620Y42863597D01*
X907913Y42813355D01*
X907906Y42813351D01*
X792812Y42727191D01*
X792809Y42727188D01*
X706649Y42612094D01*
X706645Y42612087D01*
X656403Y42477380D01*
X656401Y42477373D01*
X650000Y42417845D01*
X650000Y41770000D01*
X1684314Y41770000D01*
X1672359Y41758045D01*
X1614835Y41645148D01*
X1595014Y41520000D01*
X1614835Y41394852D01*
X1672359Y41281955D01*
X1684314Y41270000D01*
X650000Y41270000D01*
X650000Y40622156D01*
X656401Y40562628D01*
X656403Y40562621D01*
X706645Y40427914D01*
X706649Y40427907D01*
X792809Y40312813D01*
X792812Y40312810D01*
X907906Y40226650D01*
X907913Y40226646D01*
X1039470Y40177579D01*
X1095403Y40135708D01*
X1119821Y40070244D01*
X1104970Y40001971D01*
X1083819Y39973716D01*
X961503Y39851400D01*
X825965Y39657831D01*
X825964Y39657829D01*
X726098Y39443665D01*
X726094Y39443656D01*
X664938Y39215414D01*
X664936Y39215404D01*
X644341Y38980001D01*
X644341Y38980000D01*
X500Y38980000D01*
X500Y48950000D01*
X10994659Y48950000D01*
X11013975Y48753871D01*
X11071188Y48565267D01*
X11164086Y48391468D01*
X11164090Y48391461D01*
X11289116Y48239117D01*
X11441460Y48114091D01*
X11441467Y48114087D01*
X11615266Y48021189D01*
X11615269Y48021189D01*
X11615273Y48021186D01*
X11803868Y47963976D01*
X12000000Y47944659D01*
X12196132Y47963976D01*
X12384727Y48021186D01*
X12558538Y48114090D01*
X12710883Y48239117D01*
X12835910Y48391462D01*
X12928814Y48565273D01*
X12986024Y48753868D01*
X13005341Y48950000D01*
X12986024Y49146132D01*
X12928814Y49334727D01*
X12835910Y49508538D01*
X12835907Y49508542D01*
X12832523Y49513607D01*
X12834164Y49514704D01*
X12810405Y49570639D01*
X12822194Y49639507D01*
X12832888Y49656149D01*
X12832523Y49656393D01*
X12835904Y49661456D01*
X12835910Y49661462D01*
X12928814Y49835273D01*
X12986024Y50023868D01*
X13005341Y50220000D01*
X12986024Y50416132D01*
X12928814Y50604727D01*
X12835910Y50778538D01*
X12835907Y50778542D01*
X12832523Y50783607D01*
X12834164Y50784704D01*
X12810405Y50840639D01*
X12822194Y50909507D01*
X12832888Y50926149D01*
X12832523Y50926393D01*
X12835904Y50931456D01*
X12835910Y50931462D01*
X12928814Y51105273D01*
X12986024Y51293868D01*
X13005341Y51490000D01*
X12986024Y51686132D01*
X12928814Y51874727D01*
X12927677Y51876854D01*
X12927418Y51878096D01*
X12926483Y51880355D01*
X12926911Y51880533D01*
X12913435Y51945254D01*
X12937771Y52009621D01*
X12943796Y52017669D01*
X12994091Y52152517D01*
X13000500Y52212127D01*
X13000499Y53307872D01*
X12994091Y53367483D01*
X12991113Y53375467D01*
X12943797Y53502329D01*
X12943793Y53502336D01*
X12857547Y53617545D01*
X12857544Y53617548D01*
X12742335Y53703794D01*
X12742328Y53703798D01*
X12607482Y53754092D01*
X12607483Y53754092D01*
X12547883Y53760499D01*
X12547881Y53760500D01*
X12547873Y53760500D01*
X12547864Y53760500D01*
X11452129Y53760500D01*
X11452123Y53760499D01*
X11392516Y53754092D01*
X11257671Y53703798D01*
X11257664Y53703794D01*
X11142455Y53617548D01*
X11142452Y53617545D01*
X11056206Y53502336D01*
X11056202Y53502329D01*
X11005908Y53367483D01*
X10999883Y53311433D01*
X10999501Y53307877D01*
X10999500Y53307865D01*
X10999500Y52212130D01*
X10999501Y52212124D01*
X11005908Y52152517D01*
X11056202Y52017672D01*
X11056204Y52017669D01*
X11062231Y52009618D01*
X11086648Y51944154D01*
X11073105Y51880530D01*
X11073518Y51880359D01*
X11072595Y51878131D01*
X11072324Y51876857D01*
X11071188Y51874733D01*
X11013975Y51686130D01*
X10994659Y51490000D01*
X11013975Y51293871D01*
X11071188Y51105267D01*
X11164086Y50931468D01*
X11167473Y50926399D01*
X11165836Y50925306D01*
X11189596Y50869337D01*
X11177795Y50800471D01*
X11167109Y50783844D01*
X11167473Y50783601D01*
X11164086Y50778533D01*
X11071188Y50604734D01*
X11013975Y50416130D01*
X10994659Y50220000D01*
X11013975Y50023871D01*
X11071188Y49835267D01*
X11164086Y49661468D01*
X11167473Y49656399D01*
X11165836Y49655306D01*
X11189596Y49599337D01*
X11177795Y49530471D01*
X11167109Y49513844D01*
X11167473Y49513601D01*
X11164086Y49508533D01*
X11071188Y49334734D01*
X11013975Y49146130D01*
X10994659Y48950000D01*
X500Y48950000D01*
X500Y51029995D01*
X3504529Y51029995D01*
X3524379Y50790441D01*
X3583389Y50557411D01*
X3679951Y50337271D01*
X3793808Y50163002D01*
X3811429Y50136031D01*
X3974236Y49959175D01*
X3974239Y49959173D01*
X3974242Y49959170D01*
X4163924Y49811534D01*
X4163930Y49811530D01*
X4163933Y49811528D01*
X4375344Y49697118D01*
X4375347Y49697117D01*
X4602699Y49619067D01*
X4602701Y49619067D01*
X4602703Y49619066D01*
X4839808Y49579500D01*
X4839809Y49579500D01*
X5080191Y49579500D01*
X5080192Y49579500D01*
X5317297Y49619066D01*
X5544656Y49697118D01*
X5756067Y49811528D01*
X5945764Y49959175D01*
X6108571Y50136031D01*
X6126193Y50163005D01*
X6179337Y50208359D01*
X6248568Y50217783D01*
X6311904Y50188282D01*
X6333804Y50163008D01*
X6351429Y50136031D01*
X6514236Y49959175D01*
X6514239Y49959173D01*
X6514242Y49959170D01*
X6703924Y49811534D01*
X6703930Y49811530D01*
X6703933Y49811528D01*
X6915344Y49697118D01*
X6915347Y49697117D01*
X7142699Y49619067D01*
X7142701Y49619067D01*
X7142703Y49619066D01*
X7379808Y49579500D01*
X7379809Y49579500D01*
X7620191Y49579500D01*
X7620192Y49579500D01*
X7857297Y49619066D01*
X8084656Y49697118D01*
X8296067Y49811528D01*
X8485764Y49959175D01*
X8648571Y50136031D01*
X8780049Y50337272D01*
X8876610Y50557409D01*
X8935620Y50790437D01*
X8955471Y51030000D01*
X8935620Y51269563D01*
X8876610Y51502591D01*
X8780049Y51722728D01*
X8769999Y51738110D01*
X8682705Y51871723D01*
X8648571Y51923969D01*
X8485764Y52100825D01*
X8419348Y52152519D01*
X8355178Y52202465D01*
X8314365Y52259175D01*
X8310692Y52328948D01*
X8345323Y52389632D01*
X8355179Y52398172D01*
X8485422Y52499545D01*
X8648173Y52676339D01*
X8648176Y52676343D01*
X8779606Y52877510D01*
X8876134Y53097572D01*
X8932461Y53320000D01*
X7815686Y53320000D01*
X7827641Y53331955D01*
X7885165Y53444852D01*
X7904986Y53570000D01*
X7885165Y53695148D01*
X7827641Y53808045D01*
X7815686Y53820000D01*
X8932461Y53820000D01*
X8876134Y54042429D01*
X8779606Y54262491D01*
X8648176Y54463658D01*
X8648173Y54463662D01*
X8485422Y54640456D01*
X8295790Y54788053D01*
X8084455Y54902422D01*
X8084449Y54902424D01*
X7857176Y54980447D01*
X7750000Y54998332D01*
X7750000Y53885686D01*
X7738045Y53897641D01*
X7625148Y53955165D01*
X7531481Y53970000D01*
X7468519Y53970000D01*
X7374852Y53955165D01*
X7261955Y53897641D01*
X7250000Y53885686D01*
X7250000Y54998332D01*
X7249999Y54998332D01*
X7142823Y54980447D01*
X6915550Y54902424D01*
X6915544Y54902422D01*
X6704209Y54788053D01*
X6514577Y54640456D01*
X6351826Y54463662D01*
X6351822Y54463656D01*
X6334104Y54436538D01*
X6280956Y54391183D01*
X6211725Y54381762D01*
X6148390Y54411266D01*
X6126493Y54436538D01*
X6108571Y54463969D01*
X5945764Y54640825D01*
X5945759Y54640829D01*
X5945757Y54640831D01*
X5756075Y54788467D01*
X5756069Y54788471D01*
X5544657Y54902882D01*
X5544652Y54902884D01*
X5317300Y54980934D01*
X5139468Y55010609D01*
X5080192Y55020500D01*
X4839808Y55020500D01*
X4792387Y55012587D01*
X4602699Y54980934D01*
X4375347Y54902884D01*
X4375342Y54902882D01*
X4163930Y54788471D01*
X4163924Y54788467D01*
X3974242Y54640831D01*
X3974239Y54640828D01*
X3974236Y54640826D01*
X3974236Y54640825D01*
X3938294Y54601783D01*
X3811430Y54463971D01*
X3811427Y54463967D01*
X3679951Y54262730D01*
X3583389Y54042590D01*
X3524379Y53809560D01*
X3504529Y53570006D01*
X3504529Y53569995D01*
X3524379Y53330441D01*
X3583389Y53097411D01*
X3679951Y52877271D01*
X3811225Y52676343D01*
X3811429Y52676031D01*
X3974236Y52499175D01*
X3998230Y52480500D01*
X4104414Y52397853D01*
X4145227Y52341143D01*
X4148901Y52271370D01*
X4114269Y52210687D01*
X4104414Y52202147D01*
X3974238Y52100827D01*
X3811430Y51923971D01*
X3811427Y51923967D01*
X3679951Y51722730D01*
X3583389Y51502590D01*
X3524379Y51269560D01*
X3504529Y51030006D01*
X3504529Y51029995D01*
X500Y51029995D01*
X500Y52993042D01*
X1278Y53006906D01*
X3355Y53025346D01*
X3607Y53027399D01*
X13933Y53105837D01*
X19827Y53130593D01*
X31208Y53163119D01*
X33664Y53169552D01*
X55474Y53222206D01*
X65021Y53240687D01*
X85374Y53273078D01*
X91963Y53282550D01*
X124533Y53324996D01*
X135201Y53337160D01*
X162840Y53364799D01*
X175004Y53375467D01*
X217450Y53408037D01*
X226922Y53414626D01*
X259313Y53434979D01*
X277794Y53444526D01*
X330448Y53466336D01*
X336881Y53468792D01*
X369407Y53480173D01*
X394163Y53486067D01*
X472600Y53496393D01*
X474665Y53496646D01*
X493092Y53498722D01*
X506959Y53499500D01*
X556391Y53499500D01*
X556393Y53499500D01*
X556395Y53499501D01*
X556399Y53499501D01*
X624362Y53515014D01*
X666351Y53524597D01*
X767967Y53573533D01*
X767967Y53573534D01*
X767969Y53573534D01*
X813036Y53609475D01*
X856146Y53643854D01*
X908978Y53710104D01*
X926466Y53732031D01*
X926467Y53732034D01*
X937090Y53754091D01*
X975403Y53833649D01*
X1000500Y53943607D01*
X1000500Y54000000D01*
X1000500Y54000500D01*
X1000501Y56994611D01*
X1000971Y57005369D01*
X1004424Y57044839D01*
X1004542Y57046096D01*
X1004544Y57046118D01*
X1016920Y57171774D01*
X1020543Y57191686D01*
X1037895Y57256445D01*
X1038958Y57260169D01*
X1066692Y57351597D01*
X1072951Y57367953D01*
X1103709Y57433913D01*
X1106662Y57439820D01*
X1149021Y57519068D01*
X1156777Y57531695D01*
X1199650Y57592923D01*
X1205324Y57600401D01*
X1261192Y57668477D01*
X1269334Y57677460D01*
X1322544Y57730670D01*
X1331518Y57738804D01*
X1399601Y57794678D01*
X1407085Y57800356D01*
X1468307Y57843224D01*
X1480926Y57850976D01*
X1560153Y57893323D01*
X1566121Y57896307D01*
X1632047Y57927048D01*
X1648426Y57933315D01*
X1739793Y57961031D01*
X1743530Y57962098D01*
X1808315Y57979458D01*
X1828227Y57983081D01*
X1954102Y57995480D01*
X1954636Y57995530D01*
X1994646Y57999030D01*
X2005437Y57999500D01*
X14994587Y57999500D01*
X15005392Y57999028D01*
G37*
G04 #@! TD.AperFunction*
G04 #@! TD*
M02*
