%TF.GenerationSoftware,KiCad,Pcbnew,7.0.11-7.0.11~ubuntu23.10.1*%
%TF.CreationDate,2024-06-17T23:23:06+02:00*%
%TF.ProjectId,Hardware_NanoPi_v7_ConnectorPlate,48617264-7761-4726-955f-4e616e6f5069,rev?*%
%TF.SameCoordinates,Original*%
%TF.FileFunction,Drillmap*%
%TF.FilePolarity,Positive*%
%FSLAX45Y45*%
G04 Gerber Fmt 4.5, Leading zero omitted, Abs format (unit mm)*
G04 Created by KiCad (PCBNEW 7.0.11-7.0.11~ubuntu23.10.1) date 2024-06-17 23:23:06*
%MOMM*%
%LPD*%
G01*
G04 APERTURE LIST*
%ADD10C,0.100000*%
%ADD11C,0.200000*%
G04 APERTURE END LIST*
D10*
X0Y2485355D02*
X0Y300000D01*
X50000Y2535360D02*
G75*
G03*
X0Y2485355I0J-50000D01*
G01*
X1600000Y4650000D02*
X1600000Y5700000D01*
X100005Y3614645D02*
G75*
G03*
X50000Y3664645I-50005J-5D01*
G01*
X550000Y4114640D02*
G75*
G03*
X500000Y4064645I0J-50000D01*
G01*
X0Y5300000D02*
X0Y3714645D01*
X700000Y4550000D02*
X1500000Y4550000D01*
X1500000Y-200000D02*
G75*
G03*
X1600000Y-100000I0J100000D01*
G01*
X50000Y5350000D02*
G75*
G03*
X100000Y5400000I0J50000D01*
G01*
X1600000Y5700000D02*
G75*
G03*
X1500000Y5800000I-100000J0D01*
G01*
X100000Y-100000D02*
G75*
G03*
X200000Y-200000I100000J0D01*
G01*
X100000Y3614645D02*
X100000Y2585355D01*
X200000Y5800000D02*
G75*
G03*
X100000Y5700000I0J-100000D01*
G01*
X550000Y4114640D02*
G75*
G03*
X600000Y4164645I0J50000D01*
G01*
X1600000Y3350000D02*
G75*
G03*
X1500000Y3450000I-100000J0D01*
G01*
X600000Y4164645D02*
X600000Y4450000D01*
X100000Y200000D02*
X100000Y-100000D01*
X5Y3714645D02*
G75*
G03*
X50000Y3664645I49995J-5D01*
G01*
X700000Y4550000D02*
G75*
G03*
X600000Y4450000I0J-100000D01*
G01*
X1500000Y4550000D02*
G75*
G03*
X1600000Y4650000I0J100000D01*
G01*
X50000Y5350000D02*
G75*
G03*
X0Y5300000I0J-50000D01*
G01*
X1600000Y-100000D02*
X1600000Y3350000D01*
X1500000Y5800000D02*
X200000Y5800000D01*
X100000Y200000D02*
G75*
G03*
X50000Y250000I-50000J0D01*
G01*
X1500000Y3450000D02*
X700000Y3450000D01*
X0Y300000D02*
G75*
G03*
X50000Y250000I50000J0D01*
G01*
X50000Y2535360D02*
G75*
G03*
X100000Y2585355I0J50000D01*
G01*
X500000Y4064645D02*
X500000Y3650000D01*
X100000Y5700000D02*
X100000Y5400000D01*
X500000Y3650000D02*
G75*
G03*
X700000Y3450000I200000J0D01*
G01*
X1500000Y-200000D02*
X200000Y-200000D01*
D11*
D10*
X140000Y4800000D02*
X180000Y4760000D01*
X180000Y4800000D02*
X140000Y4760000D01*
X280000Y5695000D02*
X320000Y5655000D01*
X320000Y5695000D02*
X280000Y5655000D01*
X355000Y2380000D02*
X395000Y2340000D01*
X395000Y2380000D02*
X355000Y2340000D01*
X525000Y1960000D02*
X565000Y1920000D01*
X565000Y1960000D02*
X525000Y1920000D01*
X585000Y2145000D02*
X625000Y2105000D01*
X625000Y2145000D02*
X585000Y2105000D01*
X600000Y4695000D02*
X640000Y4655000D01*
X640000Y4695000D02*
X600000Y4655000D01*
X610000Y2765000D02*
X650000Y2725000D01*
X650000Y2765000D02*
X610000Y2725000D01*
X695000Y1280000D02*
X735000Y1240000D01*
X735000Y1280000D02*
X695000Y1240000D01*
X775000Y580000D02*
X815000Y540000D01*
X815000Y580000D02*
X775000Y540000D01*
X900000Y2460000D02*
X940000Y2420000D01*
X940000Y2460000D02*
X900000Y2420000D01*
X900000Y2297500D02*
X940000Y2257500D01*
X940000Y2297500D02*
X900000Y2257500D01*
X915000Y310000D02*
X955000Y270000D01*
X955000Y310000D02*
X915000Y270000D01*
X995000Y3055000D02*
X1035000Y3015000D01*
X1035000Y3055000D02*
X995000Y3015000D01*
X1000000Y2795000D02*
X1040000Y2755000D01*
X1040000Y2795000D02*
X1000000Y2755000D01*
X1025000Y470000D02*
X1065000Y430000D01*
X1065000Y470000D02*
X1025000Y430000D01*
X1037500Y1102500D02*
X1077500Y1062500D01*
X1077500Y1102500D02*
X1037500Y1062500D01*
X1410000Y5675000D02*
X1450000Y5635000D01*
X1450000Y5675000D02*
X1410000Y5635000D01*
X1460000Y4680000D02*
X1500000Y4640000D01*
X1500000Y4680000D02*
X1460000Y4640000D01*
X1232500Y5276000D02*
G75*
G03*
X1167500Y5276000I-32500J0D01*
G01*
X1167500Y5276000D02*
G75*
G03*
X1232500Y5276000I32500J0D01*
G01*
X1232500Y5149000D02*
G75*
G03*
X1167500Y5149000I-32500J0D01*
G01*
X1167500Y5149000D02*
G75*
G03*
X1232500Y5149000I32500J0D01*
G01*
X1232500Y5022000D02*
G75*
G03*
X1167500Y5022000I-32500J0D01*
G01*
X1167500Y5022000D02*
G75*
G03*
X1232500Y5022000I32500J0D01*
G01*
X1232500Y4895000D02*
G75*
G03*
X1167500Y4895000I-32500J0D01*
G01*
X1167500Y4895000D02*
G75*
G03*
X1232500Y4895000I32500J0D01*
G01*
X1232500Y3117000D02*
G75*
G03*
X1167500Y3117000I-32500J0D01*
G01*
X1167500Y3117000D02*
G75*
G03*
X1232500Y3117000I32500J0D01*
G01*
X1232500Y2990000D02*
G75*
G03*
X1167500Y2990000I-32500J0D01*
G01*
X1167500Y2990000D02*
G75*
G03*
X1232500Y2990000I32500J0D01*
G01*
X1232500Y2863000D02*
G75*
G03*
X1167500Y2863000I-32500J0D01*
G01*
X1167500Y2863000D02*
G75*
G03*
X1232500Y2863000I32500J0D01*
G01*
X1232500Y2736000D02*
G75*
G03*
X1167500Y2736000I-32500J0D01*
G01*
X1167500Y2736000D02*
G75*
G03*
X1232500Y2736000I32500J0D01*
G01*
X1232500Y2609000D02*
G75*
G03*
X1167500Y2609000I-32500J0D01*
G01*
X1167500Y2609000D02*
G75*
G03*
X1232500Y2609000I32500J0D01*
G01*
X1232500Y2482000D02*
G75*
G03*
X1167500Y2482000I-32500J0D01*
G01*
X1167500Y2482000D02*
G75*
G03*
X1232500Y2482000I32500J0D01*
G01*
X1232500Y2355000D02*
G75*
G03*
X1167500Y2355000I-32500J0D01*
G01*
X1167500Y2355000D02*
G75*
G03*
X1232500Y2355000I32500J0D01*
G01*
X1232500Y2228000D02*
G75*
G03*
X1167500Y2228000I-32500J0D01*
G01*
X1167500Y2228000D02*
G75*
G03*
X1232500Y2228000I32500J0D01*
G01*
X1232500Y2101000D02*
G75*
G03*
X1167500Y2101000I-32500J0D01*
G01*
X1167500Y2101000D02*
G75*
G03*
X1232500Y2101000I32500J0D01*
G01*
X1232500Y1339000D02*
G75*
G03*
X1167500Y1339000I-32500J0D01*
G01*
X1167500Y1339000D02*
G75*
G03*
X1232500Y1339000I32500J0D01*
G01*
X1232500Y1212000D02*
G75*
G03*
X1167500Y1212000I-32500J0D01*
G01*
X1167500Y1212000D02*
G75*
G03*
X1232500Y1212000I32500J0D01*
G01*
X1232500Y1085000D02*
G75*
G03*
X1167500Y1085000I-32500J0D01*
G01*
X1167500Y1085000D02*
G75*
G03*
X1232500Y1085000I32500J0D01*
G01*
X1232500Y958000D02*
G75*
G03*
X1167500Y958000I-32500J0D01*
G01*
X1167500Y958000D02*
G75*
G03*
X1232500Y958000I32500J0D01*
G01*
X1232500Y831000D02*
G75*
G03*
X1167500Y831000I-32500J0D01*
G01*
X1167500Y831000D02*
G75*
G03*
X1232500Y831000I32500J0D01*
G01*
X1232500Y704000D02*
G75*
G03*
X1167500Y704000I-32500J0D01*
G01*
X1167500Y704000D02*
G75*
G03*
X1232500Y704000I32500J0D01*
G01*
X1232500Y577000D02*
G75*
G03*
X1167500Y577000I-32500J0D01*
G01*
X1167500Y577000D02*
G75*
G03*
X1232500Y577000I32500J0D01*
G01*
X1232500Y450000D02*
G75*
G03*
X1167500Y450000I-32500J0D01*
G01*
X1167500Y450000D02*
G75*
G03*
X1232500Y450000I32500J0D01*
G01*
X1232500Y323000D02*
G75*
G03*
X1167500Y323000I-32500J0D01*
G01*
X1167500Y323000D02*
G75*
G03*
X1232500Y323000I32500J0D01*
G01*
X200000Y4192000D02*
X200000Y4112000D01*
X160000Y4152000D02*
X240000Y4152000D01*
X200000Y3938000D02*
X200000Y3858000D01*
X160000Y3898000D02*
X240000Y3898000D01*
X496000Y5397000D02*
X496000Y5317000D01*
X456000Y5357000D02*
X536000Y5357000D01*
X496000Y5143000D02*
X496000Y5063000D01*
X456000Y5103000D02*
X536000Y5103000D01*
X500000Y3217000D02*
X500000Y3137000D01*
X460000Y3177000D02*
X540000Y3177000D01*
X500000Y2963000D02*
X500000Y2883000D01*
X460000Y2923000D02*
X540000Y2923000D01*
X550000Y517000D02*
X550000Y437000D01*
X510000Y477000D02*
X590000Y477000D01*
X550000Y263000D02*
X550000Y183000D01*
X510000Y223000D02*
X590000Y223000D01*
X740500Y390000D02*
X740500Y310000D01*
X700500Y350000D02*
X780500Y350000D01*
X750000Y5397000D02*
X750000Y5317000D01*
X710000Y5357000D02*
X790000Y5357000D01*
X750000Y5143000D02*
X750000Y5063000D01*
X710000Y5103000D02*
X790000Y5103000D01*
X754000Y3217000D02*
X754000Y3137000D01*
X714000Y3177000D02*
X794000Y3177000D01*
X754000Y2963000D02*
X754000Y2883000D01*
X714000Y2923000D02*
X794000Y2923000D01*
X850000Y1844000D02*
X850000Y1764000D01*
X810000Y1804000D02*
X890000Y1804000D01*
X850000Y1590000D02*
X850000Y1510000D01*
X810000Y1550000D02*
X890000Y1550000D01*
X1104000Y1844000D02*
X1104000Y1764000D01*
X1064000Y1804000D02*
X1144000Y1804000D01*
X1104000Y1590000D02*
X1104000Y1510000D01*
X1064000Y1550000D02*
X1144000Y1550000D01*
X181356Y1134644D02*
X181356Y1205356D01*
X110644Y1205356D01*
X110644Y1134644D01*
X181356Y1134644D01*
X435356Y1134644D02*
X435356Y1205356D01*
X364644Y1205356D01*
X364644Y1134644D01*
X435356Y1134644D01*
D11*
X255777Y-516484D02*
X255777Y-316484D01*
X255777Y-316484D02*
X303396Y-316484D01*
X303396Y-316484D02*
X331967Y-326008D01*
X331967Y-326008D02*
X351015Y-345055D01*
X351015Y-345055D02*
X360539Y-364103D01*
X360539Y-364103D02*
X370062Y-402198D01*
X370062Y-402198D02*
X370062Y-430769D01*
X370062Y-430769D02*
X360539Y-468865D01*
X360539Y-468865D02*
X351015Y-487912D01*
X351015Y-487912D02*
X331967Y-506960D01*
X331967Y-506960D02*
X303396Y-516484D01*
X303396Y-516484D02*
X255777Y-516484D01*
X455777Y-516484D02*
X455777Y-383150D01*
X455777Y-421246D02*
X465301Y-402198D01*
X465301Y-402198D02*
X474824Y-392674D01*
X474824Y-392674D02*
X493872Y-383150D01*
X493872Y-383150D02*
X512920Y-383150D01*
X579586Y-516484D02*
X579586Y-383150D01*
X579586Y-316484D02*
X570063Y-326008D01*
X570063Y-326008D02*
X579586Y-335531D01*
X579586Y-335531D02*
X589110Y-326008D01*
X589110Y-326008D02*
X579586Y-316484D01*
X579586Y-316484D02*
X579586Y-335531D01*
X703396Y-516484D02*
X684348Y-506960D01*
X684348Y-506960D02*
X674824Y-487912D01*
X674824Y-487912D02*
X674824Y-316484D01*
X808158Y-516484D02*
X789110Y-506960D01*
X789110Y-506960D02*
X779586Y-487912D01*
X779586Y-487912D02*
X779586Y-316484D01*
X1036729Y-516484D02*
X1036729Y-316484D01*
X1036729Y-316484D02*
X1103396Y-459341D01*
X1103396Y-459341D02*
X1170063Y-316484D01*
X1170063Y-316484D02*
X1170063Y-516484D01*
X1351015Y-516484D02*
X1351015Y-411722D01*
X1351015Y-411722D02*
X1341491Y-392674D01*
X1341491Y-392674D02*
X1322444Y-383150D01*
X1322444Y-383150D02*
X1284348Y-383150D01*
X1284348Y-383150D02*
X1265301Y-392674D01*
X1351015Y-506960D02*
X1331967Y-516484D01*
X1331967Y-516484D02*
X1284348Y-516484D01*
X1284348Y-516484D02*
X1265301Y-506960D01*
X1265301Y-506960D02*
X1255777Y-487912D01*
X1255777Y-487912D02*
X1255777Y-468865D01*
X1255777Y-468865D02*
X1265301Y-449817D01*
X1265301Y-449817D02*
X1284348Y-440293D01*
X1284348Y-440293D02*
X1331967Y-440293D01*
X1331967Y-440293D02*
X1351015Y-430769D01*
X1446253Y-383150D02*
X1446253Y-583150D01*
X1446253Y-392674D02*
X1465301Y-383150D01*
X1465301Y-383150D02*
X1503396Y-383150D01*
X1503396Y-383150D02*
X1522443Y-392674D01*
X1522443Y-392674D02*
X1531967Y-402198D01*
X1531967Y-402198D02*
X1541491Y-421246D01*
X1541491Y-421246D02*
X1541491Y-478388D01*
X1541491Y-478388D02*
X1531967Y-497436D01*
X1531967Y-497436D02*
X1522443Y-506960D01*
X1522443Y-506960D02*
X1503396Y-516484D01*
X1503396Y-516484D02*
X1465301Y-516484D01*
X1465301Y-516484D02*
X1446253Y-506960D01*
X1627205Y-497436D02*
X1636729Y-506960D01*
X1636729Y-506960D02*
X1627205Y-516484D01*
X1627205Y-516484D02*
X1617682Y-506960D01*
X1617682Y-506960D02*
X1627205Y-497436D01*
X1627205Y-497436D02*
X1627205Y-516484D01*
X1627205Y-392674D02*
X1636729Y-402198D01*
X1636729Y-402198D02*
X1627205Y-411722D01*
X1627205Y-411722D02*
X1617682Y-402198D01*
X1617682Y-402198D02*
X1627205Y-392674D01*
X1627205Y-392674D02*
X1627205Y-411722D01*
D10*
X-45000Y-825000D02*
X-5000Y-865000D01*
X-5000Y-825000D02*
X-45000Y-865000D01*
D11*
X293872Y-736484D02*
X312920Y-736484D01*
X312920Y-736484D02*
X331967Y-746008D01*
X331967Y-746008D02*
X341491Y-755531D01*
X341491Y-755531D02*
X351015Y-774579D01*
X351015Y-774579D02*
X360539Y-812674D01*
X360539Y-812674D02*
X360539Y-860293D01*
X360539Y-860293D02*
X351015Y-898388D01*
X351015Y-898388D02*
X341491Y-917436D01*
X341491Y-917436D02*
X331967Y-926960D01*
X331967Y-926960D02*
X312920Y-936484D01*
X312920Y-936484D02*
X293872Y-936484D01*
X293872Y-936484D02*
X274824Y-926960D01*
X274824Y-926960D02*
X265301Y-917436D01*
X265301Y-917436D02*
X255777Y-898388D01*
X255777Y-898388D02*
X246253Y-860293D01*
X246253Y-860293D02*
X246253Y-812674D01*
X246253Y-812674D02*
X255777Y-774579D01*
X255777Y-774579D02*
X265301Y-755531D01*
X265301Y-755531D02*
X274824Y-746008D01*
X274824Y-746008D02*
X293872Y-736484D01*
X446253Y-917436D02*
X455777Y-926960D01*
X455777Y-926960D02*
X446253Y-936484D01*
X446253Y-936484D02*
X436729Y-926960D01*
X436729Y-926960D02*
X446253Y-917436D01*
X446253Y-917436D02*
X446253Y-936484D01*
X627205Y-803150D02*
X627205Y-936484D01*
X579586Y-726960D02*
X531967Y-869817D01*
X531967Y-869817D02*
X655777Y-869817D01*
X770062Y-736484D02*
X789110Y-736484D01*
X789110Y-736484D02*
X808158Y-746008D01*
X808158Y-746008D02*
X817682Y-755531D01*
X817682Y-755531D02*
X827205Y-774579D01*
X827205Y-774579D02*
X836729Y-812674D01*
X836729Y-812674D02*
X836729Y-860293D01*
X836729Y-860293D02*
X827205Y-898388D01*
X827205Y-898388D02*
X817682Y-917436D01*
X817682Y-917436D02*
X808158Y-926960D01*
X808158Y-926960D02*
X789110Y-936484D01*
X789110Y-936484D02*
X770062Y-936484D01*
X770062Y-936484D02*
X751015Y-926960D01*
X751015Y-926960D02*
X741491Y-917436D01*
X741491Y-917436D02*
X731967Y-898388D01*
X731967Y-898388D02*
X722443Y-860293D01*
X722443Y-860293D02*
X722443Y-812674D01*
X722443Y-812674D02*
X731967Y-774579D01*
X731967Y-774579D02*
X741491Y-755531D01*
X741491Y-755531D02*
X751015Y-746008D01*
X751015Y-746008D02*
X770062Y-736484D01*
X960539Y-736484D02*
X979586Y-736484D01*
X979586Y-736484D02*
X998634Y-746008D01*
X998634Y-746008D02*
X1008158Y-755531D01*
X1008158Y-755531D02*
X1017682Y-774579D01*
X1017682Y-774579D02*
X1027205Y-812674D01*
X1027205Y-812674D02*
X1027205Y-860293D01*
X1027205Y-860293D02*
X1017682Y-898388D01*
X1017682Y-898388D02*
X1008158Y-917436D01*
X1008158Y-917436D02*
X998634Y-926960D01*
X998634Y-926960D02*
X979586Y-936484D01*
X979586Y-936484D02*
X960539Y-936484D01*
X960539Y-936484D02*
X941491Y-926960D01*
X941491Y-926960D02*
X931967Y-917436D01*
X931967Y-917436D02*
X922443Y-898388D01*
X922443Y-898388D02*
X912920Y-860293D01*
X912920Y-860293D02*
X912920Y-812674D01*
X912920Y-812674D02*
X922443Y-774579D01*
X922443Y-774579D02*
X931967Y-755531D01*
X931967Y-755531D02*
X941491Y-746008D01*
X941491Y-746008D02*
X960539Y-736484D01*
X1112920Y-936484D02*
X1112920Y-803150D01*
X1112920Y-822198D02*
X1122444Y-812674D01*
X1122444Y-812674D02*
X1141491Y-803150D01*
X1141491Y-803150D02*
X1170063Y-803150D01*
X1170063Y-803150D02*
X1189110Y-812674D01*
X1189110Y-812674D02*
X1198634Y-831722D01*
X1198634Y-831722D02*
X1198634Y-936484D01*
X1198634Y-831722D02*
X1208158Y-812674D01*
X1208158Y-812674D02*
X1227205Y-803150D01*
X1227205Y-803150D02*
X1255777Y-803150D01*
X1255777Y-803150D02*
X1274825Y-812674D01*
X1274825Y-812674D02*
X1284348Y-831722D01*
X1284348Y-831722D02*
X1284348Y-936484D01*
X1379586Y-936484D02*
X1379586Y-803150D01*
X1379586Y-822198D02*
X1389110Y-812674D01*
X1389110Y-812674D02*
X1408158Y-803150D01*
X1408158Y-803150D02*
X1436729Y-803150D01*
X1436729Y-803150D02*
X1455777Y-812674D01*
X1455777Y-812674D02*
X1465301Y-831722D01*
X1465301Y-831722D02*
X1465301Y-936484D01*
X1465301Y-831722D02*
X1474824Y-812674D01*
X1474824Y-812674D02*
X1493872Y-803150D01*
X1493872Y-803150D02*
X1522443Y-803150D01*
X1522443Y-803150D02*
X1541491Y-812674D01*
X1541491Y-812674D02*
X1551015Y-831722D01*
X1551015Y-831722D02*
X1551015Y-936484D01*
X1941491Y-726960D02*
X1770063Y-984103D01*
X2198634Y-736484D02*
X2217682Y-736484D01*
X2217682Y-736484D02*
X2236729Y-746008D01*
X2236729Y-746008D02*
X2246253Y-755531D01*
X2246253Y-755531D02*
X2255777Y-774579D01*
X2255777Y-774579D02*
X2265301Y-812674D01*
X2265301Y-812674D02*
X2265301Y-860293D01*
X2265301Y-860293D02*
X2255777Y-898388D01*
X2255777Y-898388D02*
X2246253Y-917436D01*
X2246253Y-917436D02*
X2236729Y-926960D01*
X2236729Y-926960D02*
X2217682Y-936484D01*
X2217682Y-936484D02*
X2198634Y-936484D01*
X2198634Y-936484D02*
X2179587Y-926960D01*
X2179587Y-926960D02*
X2170063Y-917436D01*
X2170063Y-917436D02*
X2160539Y-898388D01*
X2160539Y-898388D02*
X2151015Y-860293D01*
X2151015Y-860293D02*
X2151015Y-812674D01*
X2151015Y-812674D02*
X2160539Y-774579D01*
X2160539Y-774579D02*
X2170063Y-755531D01*
X2170063Y-755531D02*
X2179587Y-746008D01*
X2179587Y-746008D02*
X2198634Y-736484D01*
X2351015Y-917436D02*
X2360539Y-926960D01*
X2360539Y-926960D02*
X2351015Y-936484D01*
X2351015Y-936484D02*
X2341491Y-926960D01*
X2341491Y-926960D02*
X2351015Y-917436D01*
X2351015Y-917436D02*
X2351015Y-936484D01*
X2484348Y-736484D02*
X2503396Y-736484D01*
X2503396Y-736484D02*
X2522444Y-746008D01*
X2522444Y-746008D02*
X2531968Y-755531D01*
X2531968Y-755531D02*
X2541491Y-774579D01*
X2541491Y-774579D02*
X2551015Y-812674D01*
X2551015Y-812674D02*
X2551015Y-860293D01*
X2551015Y-860293D02*
X2541491Y-898388D01*
X2541491Y-898388D02*
X2531968Y-917436D01*
X2531968Y-917436D02*
X2522444Y-926960D01*
X2522444Y-926960D02*
X2503396Y-936484D01*
X2503396Y-936484D02*
X2484348Y-936484D01*
X2484348Y-936484D02*
X2465301Y-926960D01*
X2465301Y-926960D02*
X2455777Y-917436D01*
X2455777Y-917436D02*
X2446253Y-898388D01*
X2446253Y-898388D02*
X2436729Y-860293D01*
X2436729Y-860293D02*
X2436729Y-812674D01*
X2436729Y-812674D02*
X2446253Y-774579D01*
X2446253Y-774579D02*
X2455777Y-755531D01*
X2455777Y-755531D02*
X2465301Y-746008D01*
X2465301Y-746008D02*
X2484348Y-736484D01*
X2741491Y-936484D02*
X2627206Y-936484D01*
X2684348Y-936484D02*
X2684348Y-736484D01*
X2684348Y-736484D02*
X2665301Y-765055D01*
X2665301Y-765055D02*
X2646253Y-784103D01*
X2646253Y-784103D02*
X2627206Y-793627D01*
X2922444Y-736484D02*
X2827206Y-736484D01*
X2827206Y-736484D02*
X2817682Y-831722D01*
X2817682Y-831722D02*
X2827206Y-822198D01*
X2827206Y-822198D02*
X2846253Y-812674D01*
X2846253Y-812674D02*
X2893872Y-812674D01*
X2893872Y-812674D02*
X2912920Y-822198D01*
X2912920Y-822198D02*
X2922444Y-831722D01*
X2922444Y-831722D02*
X2931967Y-850769D01*
X2931967Y-850769D02*
X2931967Y-898388D01*
X2931967Y-898388D02*
X2922444Y-917436D01*
X2922444Y-917436D02*
X2912920Y-926960D01*
X2912920Y-926960D02*
X2893872Y-936484D01*
X2893872Y-936484D02*
X2846253Y-936484D01*
X2846253Y-936484D02*
X2827206Y-926960D01*
X2827206Y-926960D02*
X2817682Y-917436D01*
X2998634Y-736484D02*
X3131967Y-736484D01*
X3131967Y-736484D02*
X3046253Y-936484D01*
X3198634Y-736484D02*
X3198634Y-774579D01*
X3274825Y-736484D02*
X3274825Y-774579D01*
X3570063Y-1012674D02*
X3560539Y-1003150D01*
X3560539Y-1003150D02*
X3541491Y-974579D01*
X3541491Y-974579D02*
X3531968Y-955531D01*
X3531968Y-955531D02*
X3522444Y-926960D01*
X3522444Y-926960D02*
X3512920Y-879341D01*
X3512920Y-879341D02*
X3512920Y-841246D01*
X3512920Y-841246D02*
X3522444Y-793627D01*
X3522444Y-793627D02*
X3531968Y-765055D01*
X3531968Y-765055D02*
X3541491Y-746008D01*
X3541491Y-746008D02*
X3560539Y-717436D01*
X3560539Y-717436D02*
X3570063Y-707912D01*
X3751015Y-936484D02*
X3636729Y-936484D01*
X3693872Y-936484D02*
X3693872Y-736484D01*
X3693872Y-736484D02*
X3674825Y-765055D01*
X3674825Y-765055D02*
X3655777Y-784103D01*
X3655777Y-784103D02*
X3636729Y-793627D01*
X3865301Y-822198D02*
X3846253Y-812674D01*
X3846253Y-812674D02*
X3836729Y-803150D01*
X3836729Y-803150D02*
X3827206Y-784103D01*
X3827206Y-784103D02*
X3827206Y-774579D01*
X3827206Y-774579D02*
X3836729Y-755531D01*
X3836729Y-755531D02*
X3846253Y-746008D01*
X3846253Y-746008D02*
X3865301Y-736484D01*
X3865301Y-736484D02*
X3903396Y-736484D01*
X3903396Y-736484D02*
X3922444Y-746008D01*
X3922444Y-746008D02*
X3931968Y-755531D01*
X3931968Y-755531D02*
X3941491Y-774579D01*
X3941491Y-774579D02*
X3941491Y-784103D01*
X3941491Y-784103D02*
X3931968Y-803150D01*
X3931968Y-803150D02*
X3922444Y-812674D01*
X3922444Y-812674D02*
X3903396Y-822198D01*
X3903396Y-822198D02*
X3865301Y-822198D01*
X3865301Y-822198D02*
X3846253Y-831722D01*
X3846253Y-831722D02*
X3836729Y-841246D01*
X3836729Y-841246D02*
X3827206Y-860293D01*
X3827206Y-860293D02*
X3827206Y-898388D01*
X3827206Y-898388D02*
X3836729Y-917436D01*
X3836729Y-917436D02*
X3846253Y-926960D01*
X3846253Y-926960D02*
X3865301Y-936484D01*
X3865301Y-936484D02*
X3903396Y-936484D01*
X3903396Y-936484D02*
X3922444Y-926960D01*
X3922444Y-926960D02*
X3931968Y-917436D01*
X3931968Y-917436D02*
X3941491Y-898388D01*
X3941491Y-898388D02*
X3941491Y-860293D01*
X3941491Y-860293D02*
X3931968Y-841246D01*
X3931968Y-841246D02*
X3922444Y-831722D01*
X3922444Y-831722D02*
X3903396Y-822198D01*
X4179587Y-936484D02*
X4179587Y-736484D01*
X4265301Y-936484D02*
X4265301Y-831722D01*
X4265301Y-831722D02*
X4255777Y-812674D01*
X4255777Y-812674D02*
X4236730Y-803150D01*
X4236730Y-803150D02*
X4208158Y-803150D01*
X4208158Y-803150D02*
X4189110Y-812674D01*
X4189110Y-812674D02*
X4179587Y-822198D01*
X4389111Y-936484D02*
X4370063Y-926960D01*
X4370063Y-926960D02*
X4360539Y-917436D01*
X4360539Y-917436D02*
X4351015Y-898388D01*
X4351015Y-898388D02*
X4351015Y-841246D01*
X4351015Y-841246D02*
X4360539Y-822198D01*
X4360539Y-822198D02*
X4370063Y-812674D01*
X4370063Y-812674D02*
X4389111Y-803150D01*
X4389111Y-803150D02*
X4417682Y-803150D01*
X4417682Y-803150D02*
X4436730Y-812674D01*
X4436730Y-812674D02*
X4446253Y-822198D01*
X4446253Y-822198D02*
X4455777Y-841246D01*
X4455777Y-841246D02*
X4455777Y-898388D01*
X4455777Y-898388D02*
X4446253Y-917436D01*
X4446253Y-917436D02*
X4436730Y-926960D01*
X4436730Y-926960D02*
X4417682Y-936484D01*
X4417682Y-936484D02*
X4389111Y-936484D01*
X4570063Y-936484D02*
X4551015Y-926960D01*
X4551015Y-926960D02*
X4541492Y-907912D01*
X4541492Y-907912D02*
X4541492Y-736484D01*
X4722444Y-926960D02*
X4703396Y-936484D01*
X4703396Y-936484D02*
X4665301Y-936484D01*
X4665301Y-936484D02*
X4646253Y-926960D01*
X4646253Y-926960D02*
X4636730Y-907912D01*
X4636730Y-907912D02*
X4636730Y-831722D01*
X4636730Y-831722D02*
X4646253Y-812674D01*
X4646253Y-812674D02*
X4665301Y-803150D01*
X4665301Y-803150D02*
X4703396Y-803150D01*
X4703396Y-803150D02*
X4722444Y-812674D01*
X4722444Y-812674D02*
X4731968Y-831722D01*
X4731968Y-831722D02*
X4731968Y-850769D01*
X4731968Y-850769D02*
X4636730Y-869817D01*
X4808158Y-926960D02*
X4827206Y-936484D01*
X4827206Y-936484D02*
X4865301Y-936484D01*
X4865301Y-936484D02*
X4884349Y-926960D01*
X4884349Y-926960D02*
X4893873Y-907912D01*
X4893873Y-907912D02*
X4893873Y-898388D01*
X4893873Y-898388D02*
X4884349Y-879341D01*
X4884349Y-879341D02*
X4865301Y-869817D01*
X4865301Y-869817D02*
X4836730Y-869817D01*
X4836730Y-869817D02*
X4817682Y-860293D01*
X4817682Y-860293D02*
X4808158Y-841246D01*
X4808158Y-841246D02*
X4808158Y-831722D01*
X4808158Y-831722D02*
X4817682Y-812674D01*
X4817682Y-812674D02*
X4836730Y-803150D01*
X4836730Y-803150D02*
X4865301Y-803150D01*
X4865301Y-803150D02*
X4884349Y-812674D01*
X4960539Y-1012674D02*
X4970063Y-1003150D01*
X4970063Y-1003150D02*
X4989111Y-974579D01*
X4989111Y-974579D02*
X4998634Y-955531D01*
X4998634Y-955531D02*
X5008158Y-926960D01*
X5008158Y-926960D02*
X5017682Y-879341D01*
X5017682Y-879341D02*
X5017682Y-841246D01*
X5017682Y-841246D02*
X5008158Y-793627D01*
X5008158Y-793627D02*
X4998634Y-765055D01*
X4998634Y-765055D02*
X4989111Y-746008D01*
X4989111Y-746008D02*
X4970063Y-717436D01*
X4970063Y-717436D02*
X4960539Y-707912D01*
D10*
X-5000Y-1109000D02*
G75*
G03*
X-70000Y-1109000I-32500J0D01*
G01*
X-70000Y-1109000D02*
G75*
G03*
X-5000Y-1109000I32500J0D01*
G01*
D11*
X293872Y-1000484D02*
X312920Y-1000484D01*
X312920Y-1000484D02*
X331967Y-1010008D01*
X331967Y-1010008D02*
X341491Y-1019531D01*
X341491Y-1019531D02*
X351015Y-1038579D01*
X351015Y-1038579D02*
X360539Y-1076674D01*
X360539Y-1076674D02*
X360539Y-1124293D01*
X360539Y-1124293D02*
X351015Y-1162389D01*
X351015Y-1162389D02*
X341491Y-1181436D01*
X341491Y-1181436D02*
X331967Y-1190960D01*
X331967Y-1190960D02*
X312920Y-1200484D01*
X312920Y-1200484D02*
X293872Y-1200484D01*
X293872Y-1200484D02*
X274824Y-1190960D01*
X274824Y-1190960D02*
X265301Y-1181436D01*
X265301Y-1181436D02*
X255777Y-1162389D01*
X255777Y-1162389D02*
X246253Y-1124293D01*
X246253Y-1124293D02*
X246253Y-1076674D01*
X246253Y-1076674D02*
X255777Y-1038579D01*
X255777Y-1038579D02*
X265301Y-1019531D01*
X265301Y-1019531D02*
X274824Y-1010008D01*
X274824Y-1010008D02*
X293872Y-1000484D01*
X446253Y-1181436D02*
X455777Y-1190960D01*
X455777Y-1190960D02*
X446253Y-1200484D01*
X446253Y-1200484D02*
X436729Y-1190960D01*
X436729Y-1190960D02*
X446253Y-1181436D01*
X446253Y-1181436D02*
X446253Y-1200484D01*
X627205Y-1000484D02*
X589110Y-1000484D01*
X589110Y-1000484D02*
X570063Y-1010008D01*
X570063Y-1010008D02*
X560539Y-1019531D01*
X560539Y-1019531D02*
X541491Y-1048103D01*
X541491Y-1048103D02*
X531967Y-1086198D01*
X531967Y-1086198D02*
X531967Y-1162389D01*
X531967Y-1162389D02*
X541491Y-1181436D01*
X541491Y-1181436D02*
X551015Y-1190960D01*
X551015Y-1190960D02*
X570063Y-1200484D01*
X570063Y-1200484D02*
X608158Y-1200484D01*
X608158Y-1200484D02*
X627205Y-1190960D01*
X627205Y-1190960D02*
X636729Y-1181436D01*
X636729Y-1181436D02*
X646253Y-1162389D01*
X646253Y-1162389D02*
X646253Y-1114770D01*
X646253Y-1114770D02*
X636729Y-1095722D01*
X636729Y-1095722D02*
X627205Y-1086198D01*
X627205Y-1086198D02*
X608158Y-1076674D01*
X608158Y-1076674D02*
X570063Y-1076674D01*
X570063Y-1076674D02*
X551015Y-1086198D01*
X551015Y-1086198D02*
X541491Y-1095722D01*
X541491Y-1095722D02*
X531967Y-1114770D01*
X827205Y-1000484D02*
X731967Y-1000484D01*
X731967Y-1000484D02*
X722443Y-1095722D01*
X722443Y-1095722D02*
X731967Y-1086198D01*
X731967Y-1086198D02*
X751015Y-1076674D01*
X751015Y-1076674D02*
X798634Y-1076674D01*
X798634Y-1076674D02*
X817682Y-1086198D01*
X817682Y-1086198D02*
X827205Y-1095722D01*
X827205Y-1095722D02*
X836729Y-1114770D01*
X836729Y-1114770D02*
X836729Y-1162389D01*
X836729Y-1162389D02*
X827205Y-1181436D01*
X827205Y-1181436D02*
X817682Y-1190960D01*
X817682Y-1190960D02*
X798634Y-1200484D01*
X798634Y-1200484D02*
X751015Y-1200484D01*
X751015Y-1200484D02*
X731967Y-1190960D01*
X731967Y-1190960D02*
X722443Y-1181436D01*
X960539Y-1000484D02*
X979586Y-1000484D01*
X979586Y-1000484D02*
X998634Y-1010008D01*
X998634Y-1010008D02*
X1008158Y-1019531D01*
X1008158Y-1019531D02*
X1017682Y-1038579D01*
X1017682Y-1038579D02*
X1027205Y-1076674D01*
X1027205Y-1076674D02*
X1027205Y-1124293D01*
X1027205Y-1124293D02*
X1017682Y-1162389D01*
X1017682Y-1162389D02*
X1008158Y-1181436D01*
X1008158Y-1181436D02*
X998634Y-1190960D01*
X998634Y-1190960D02*
X979586Y-1200484D01*
X979586Y-1200484D02*
X960539Y-1200484D01*
X960539Y-1200484D02*
X941491Y-1190960D01*
X941491Y-1190960D02*
X931967Y-1181436D01*
X931967Y-1181436D02*
X922443Y-1162389D01*
X922443Y-1162389D02*
X912920Y-1124293D01*
X912920Y-1124293D02*
X912920Y-1076674D01*
X912920Y-1076674D02*
X922443Y-1038579D01*
X922443Y-1038579D02*
X931967Y-1019531D01*
X931967Y-1019531D02*
X941491Y-1010008D01*
X941491Y-1010008D02*
X960539Y-1000484D01*
X1112920Y-1200484D02*
X1112920Y-1067150D01*
X1112920Y-1086198D02*
X1122444Y-1076674D01*
X1122444Y-1076674D02*
X1141491Y-1067150D01*
X1141491Y-1067150D02*
X1170063Y-1067150D01*
X1170063Y-1067150D02*
X1189110Y-1076674D01*
X1189110Y-1076674D02*
X1198634Y-1095722D01*
X1198634Y-1095722D02*
X1198634Y-1200484D01*
X1198634Y-1095722D02*
X1208158Y-1076674D01*
X1208158Y-1076674D02*
X1227205Y-1067150D01*
X1227205Y-1067150D02*
X1255777Y-1067150D01*
X1255777Y-1067150D02*
X1274825Y-1076674D01*
X1274825Y-1076674D02*
X1284348Y-1095722D01*
X1284348Y-1095722D02*
X1284348Y-1200484D01*
X1379586Y-1200484D02*
X1379586Y-1067150D01*
X1379586Y-1086198D02*
X1389110Y-1076674D01*
X1389110Y-1076674D02*
X1408158Y-1067150D01*
X1408158Y-1067150D02*
X1436729Y-1067150D01*
X1436729Y-1067150D02*
X1455777Y-1076674D01*
X1455777Y-1076674D02*
X1465301Y-1095722D01*
X1465301Y-1095722D02*
X1465301Y-1200484D01*
X1465301Y-1095722D02*
X1474824Y-1076674D01*
X1474824Y-1076674D02*
X1493872Y-1067150D01*
X1493872Y-1067150D02*
X1522443Y-1067150D01*
X1522443Y-1067150D02*
X1541491Y-1076674D01*
X1541491Y-1076674D02*
X1551015Y-1095722D01*
X1551015Y-1095722D02*
X1551015Y-1200484D01*
X1941491Y-990960D02*
X1770063Y-1248103D01*
X2198634Y-1000484D02*
X2217682Y-1000484D01*
X2217682Y-1000484D02*
X2236729Y-1010008D01*
X2236729Y-1010008D02*
X2246253Y-1019531D01*
X2246253Y-1019531D02*
X2255777Y-1038579D01*
X2255777Y-1038579D02*
X2265301Y-1076674D01*
X2265301Y-1076674D02*
X2265301Y-1124293D01*
X2265301Y-1124293D02*
X2255777Y-1162389D01*
X2255777Y-1162389D02*
X2246253Y-1181436D01*
X2246253Y-1181436D02*
X2236729Y-1190960D01*
X2236729Y-1190960D02*
X2217682Y-1200484D01*
X2217682Y-1200484D02*
X2198634Y-1200484D01*
X2198634Y-1200484D02*
X2179587Y-1190960D01*
X2179587Y-1190960D02*
X2170063Y-1181436D01*
X2170063Y-1181436D02*
X2160539Y-1162389D01*
X2160539Y-1162389D02*
X2151015Y-1124293D01*
X2151015Y-1124293D02*
X2151015Y-1076674D01*
X2151015Y-1076674D02*
X2160539Y-1038579D01*
X2160539Y-1038579D02*
X2170063Y-1019531D01*
X2170063Y-1019531D02*
X2179587Y-1010008D01*
X2179587Y-1010008D02*
X2198634Y-1000484D01*
X2351015Y-1181436D02*
X2360539Y-1190960D01*
X2360539Y-1190960D02*
X2351015Y-1200484D01*
X2351015Y-1200484D02*
X2341491Y-1190960D01*
X2341491Y-1190960D02*
X2351015Y-1181436D01*
X2351015Y-1181436D02*
X2351015Y-1200484D01*
X2484348Y-1000484D02*
X2503396Y-1000484D01*
X2503396Y-1000484D02*
X2522444Y-1010008D01*
X2522444Y-1010008D02*
X2531968Y-1019531D01*
X2531968Y-1019531D02*
X2541491Y-1038579D01*
X2541491Y-1038579D02*
X2551015Y-1076674D01*
X2551015Y-1076674D02*
X2551015Y-1124293D01*
X2551015Y-1124293D02*
X2541491Y-1162389D01*
X2541491Y-1162389D02*
X2531968Y-1181436D01*
X2531968Y-1181436D02*
X2522444Y-1190960D01*
X2522444Y-1190960D02*
X2503396Y-1200484D01*
X2503396Y-1200484D02*
X2484348Y-1200484D01*
X2484348Y-1200484D02*
X2465301Y-1190960D01*
X2465301Y-1190960D02*
X2455777Y-1181436D01*
X2455777Y-1181436D02*
X2446253Y-1162389D01*
X2446253Y-1162389D02*
X2436729Y-1124293D01*
X2436729Y-1124293D02*
X2436729Y-1076674D01*
X2436729Y-1076674D02*
X2446253Y-1038579D01*
X2446253Y-1038579D02*
X2455777Y-1019531D01*
X2455777Y-1019531D02*
X2465301Y-1010008D01*
X2465301Y-1010008D02*
X2484348Y-1000484D01*
X2627206Y-1019531D02*
X2636729Y-1010008D01*
X2636729Y-1010008D02*
X2655777Y-1000484D01*
X2655777Y-1000484D02*
X2703396Y-1000484D01*
X2703396Y-1000484D02*
X2722444Y-1010008D01*
X2722444Y-1010008D02*
X2731968Y-1019531D01*
X2731968Y-1019531D02*
X2741491Y-1038579D01*
X2741491Y-1038579D02*
X2741491Y-1057627D01*
X2741491Y-1057627D02*
X2731968Y-1086198D01*
X2731968Y-1086198D02*
X2617682Y-1200484D01*
X2617682Y-1200484D02*
X2741491Y-1200484D01*
X2922444Y-1000484D02*
X2827206Y-1000484D01*
X2827206Y-1000484D02*
X2817682Y-1095722D01*
X2817682Y-1095722D02*
X2827206Y-1086198D01*
X2827206Y-1086198D02*
X2846253Y-1076674D01*
X2846253Y-1076674D02*
X2893872Y-1076674D01*
X2893872Y-1076674D02*
X2912920Y-1086198D01*
X2912920Y-1086198D02*
X2922444Y-1095722D01*
X2922444Y-1095722D02*
X2931967Y-1114770D01*
X2931967Y-1114770D02*
X2931967Y-1162389D01*
X2931967Y-1162389D02*
X2922444Y-1181436D01*
X2922444Y-1181436D02*
X2912920Y-1190960D01*
X2912920Y-1190960D02*
X2893872Y-1200484D01*
X2893872Y-1200484D02*
X2846253Y-1200484D01*
X2846253Y-1200484D02*
X2827206Y-1190960D01*
X2827206Y-1190960D02*
X2817682Y-1181436D01*
X3103396Y-1000484D02*
X3065301Y-1000484D01*
X3065301Y-1000484D02*
X3046253Y-1010008D01*
X3046253Y-1010008D02*
X3036729Y-1019531D01*
X3036729Y-1019531D02*
X3017682Y-1048103D01*
X3017682Y-1048103D02*
X3008158Y-1086198D01*
X3008158Y-1086198D02*
X3008158Y-1162389D01*
X3008158Y-1162389D02*
X3017682Y-1181436D01*
X3017682Y-1181436D02*
X3027206Y-1190960D01*
X3027206Y-1190960D02*
X3046253Y-1200484D01*
X3046253Y-1200484D02*
X3084348Y-1200484D01*
X3084348Y-1200484D02*
X3103396Y-1190960D01*
X3103396Y-1190960D02*
X3112920Y-1181436D01*
X3112920Y-1181436D02*
X3122444Y-1162389D01*
X3122444Y-1162389D02*
X3122444Y-1114770D01*
X3122444Y-1114770D02*
X3112920Y-1095722D01*
X3112920Y-1095722D02*
X3103396Y-1086198D01*
X3103396Y-1086198D02*
X3084348Y-1076674D01*
X3084348Y-1076674D02*
X3046253Y-1076674D01*
X3046253Y-1076674D02*
X3027206Y-1086198D01*
X3027206Y-1086198D02*
X3017682Y-1095722D01*
X3017682Y-1095722D02*
X3008158Y-1114770D01*
X3198634Y-1000484D02*
X3198634Y-1038579D01*
X3274825Y-1000484D02*
X3274825Y-1038579D01*
X3570063Y-1276674D02*
X3560539Y-1267150D01*
X3560539Y-1267150D02*
X3541491Y-1238579D01*
X3541491Y-1238579D02*
X3531968Y-1219531D01*
X3531968Y-1219531D02*
X3522444Y-1190960D01*
X3522444Y-1190960D02*
X3512920Y-1143341D01*
X3512920Y-1143341D02*
X3512920Y-1105246D01*
X3512920Y-1105246D02*
X3522444Y-1057627D01*
X3522444Y-1057627D02*
X3531968Y-1029055D01*
X3531968Y-1029055D02*
X3541491Y-1010008D01*
X3541491Y-1010008D02*
X3560539Y-981436D01*
X3560539Y-981436D02*
X3570063Y-971912D01*
X3636729Y-1019531D02*
X3646253Y-1010008D01*
X3646253Y-1010008D02*
X3665301Y-1000484D01*
X3665301Y-1000484D02*
X3712920Y-1000484D01*
X3712920Y-1000484D02*
X3731968Y-1010008D01*
X3731968Y-1010008D02*
X3741491Y-1019531D01*
X3741491Y-1019531D02*
X3751015Y-1038579D01*
X3751015Y-1038579D02*
X3751015Y-1057627D01*
X3751015Y-1057627D02*
X3741491Y-1086198D01*
X3741491Y-1086198D02*
X3627206Y-1200484D01*
X3627206Y-1200484D02*
X3751015Y-1200484D01*
X3827206Y-1019531D02*
X3836729Y-1010008D01*
X3836729Y-1010008D02*
X3855777Y-1000484D01*
X3855777Y-1000484D02*
X3903396Y-1000484D01*
X3903396Y-1000484D02*
X3922444Y-1010008D01*
X3922444Y-1010008D02*
X3931968Y-1019531D01*
X3931968Y-1019531D02*
X3941491Y-1038579D01*
X3941491Y-1038579D02*
X3941491Y-1057627D01*
X3941491Y-1057627D02*
X3931968Y-1086198D01*
X3931968Y-1086198D02*
X3817682Y-1200484D01*
X3817682Y-1200484D02*
X3941491Y-1200484D01*
X4179587Y-1200484D02*
X4179587Y-1000484D01*
X4265301Y-1200484D02*
X4265301Y-1095722D01*
X4265301Y-1095722D02*
X4255777Y-1076674D01*
X4255777Y-1076674D02*
X4236730Y-1067150D01*
X4236730Y-1067150D02*
X4208158Y-1067150D01*
X4208158Y-1067150D02*
X4189110Y-1076674D01*
X4189110Y-1076674D02*
X4179587Y-1086198D01*
X4389111Y-1200484D02*
X4370063Y-1190960D01*
X4370063Y-1190960D02*
X4360539Y-1181436D01*
X4360539Y-1181436D02*
X4351015Y-1162389D01*
X4351015Y-1162389D02*
X4351015Y-1105246D01*
X4351015Y-1105246D02*
X4360539Y-1086198D01*
X4360539Y-1086198D02*
X4370063Y-1076674D01*
X4370063Y-1076674D02*
X4389111Y-1067150D01*
X4389111Y-1067150D02*
X4417682Y-1067150D01*
X4417682Y-1067150D02*
X4436730Y-1076674D01*
X4436730Y-1076674D02*
X4446253Y-1086198D01*
X4446253Y-1086198D02*
X4455777Y-1105246D01*
X4455777Y-1105246D02*
X4455777Y-1162389D01*
X4455777Y-1162389D02*
X4446253Y-1181436D01*
X4446253Y-1181436D02*
X4436730Y-1190960D01*
X4436730Y-1190960D02*
X4417682Y-1200484D01*
X4417682Y-1200484D02*
X4389111Y-1200484D01*
X4570063Y-1200484D02*
X4551015Y-1190960D01*
X4551015Y-1190960D02*
X4541492Y-1171912D01*
X4541492Y-1171912D02*
X4541492Y-1000484D01*
X4722444Y-1190960D02*
X4703396Y-1200484D01*
X4703396Y-1200484D02*
X4665301Y-1200484D01*
X4665301Y-1200484D02*
X4646253Y-1190960D01*
X4646253Y-1190960D02*
X4636730Y-1171912D01*
X4636730Y-1171912D02*
X4636730Y-1095722D01*
X4636730Y-1095722D02*
X4646253Y-1076674D01*
X4646253Y-1076674D02*
X4665301Y-1067150D01*
X4665301Y-1067150D02*
X4703396Y-1067150D01*
X4703396Y-1067150D02*
X4722444Y-1076674D01*
X4722444Y-1076674D02*
X4731968Y-1095722D01*
X4731968Y-1095722D02*
X4731968Y-1114770D01*
X4731968Y-1114770D02*
X4636730Y-1133817D01*
X4808158Y-1190960D02*
X4827206Y-1200484D01*
X4827206Y-1200484D02*
X4865301Y-1200484D01*
X4865301Y-1200484D02*
X4884349Y-1190960D01*
X4884349Y-1190960D02*
X4893873Y-1171912D01*
X4893873Y-1171912D02*
X4893873Y-1162389D01*
X4893873Y-1162389D02*
X4884349Y-1143341D01*
X4884349Y-1143341D02*
X4865301Y-1133817D01*
X4865301Y-1133817D02*
X4836730Y-1133817D01*
X4836730Y-1133817D02*
X4817682Y-1124293D01*
X4817682Y-1124293D02*
X4808158Y-1105246D01*
X4808158Y-1105246D02*
X4808158Y-1095722D01*
X4808158Y-1095722D02*
X4817682Y-1076674D01*
X4817682Y-1076674D02*
X4836730Y-1067150D01*
X4836730Y-1067150D02*
X4865301Y-1067150D01*
X4865301Y-1067150D02*
X4884349Y-1076674D01*
X4960539Y-1276674D02*
X4970063Y-1267150D01*
X4970063Y-1267150D02*
X4989111Y-1238579D01*
X4989111Y-1238579D02*
X4998634Y-1219531D01*
X4998634Y-1219531D02*
X5008158Y-1190960D01*
X5008158Y-1190960D02*
X5017682Y-1143341D01*
X5017682Y-1143341D02*
X5017682Y-1105246D01*
X5017682Y-1105246D02*
X5008158Y-1057627D01*
X5008158Y-1057627D02*
X4998634Y-1029055D01*
X4998634Y-1029055D02*
X4989111Y-1010008D01*
X4989111Y-1010008D02*
X4970063Y-981436D01*
X4970063Y-981436D02*
X4960539Y-971912D01*
D10*
X-45000Y-1333000D02*
X-45000Y-1413000D01*
X-85000Y-1373000D02*
X-5000Y-1373000D01*
D11*
X293872Y-1264484D02*
X312920Y-1264484D01*
X312920Y-1264484D02*
X331967Y-1274008D01*
X331967Y-1274008D02*
X341491Y-1283531D01*
X341491Y-1283531D02*
X351015Y-1302579D01*
X351015Y-1302579D02*
X360539Y-1340674D01*
X360539Y-1340674D02*
X360539Y-1388293D01*
X360539Y-1388293D02*
X351015Y-1426388D01*
X351015Y-1426388D02*
X341491Y-1445436D01*
X341491Y-1445436D02*
X331967Y-1454960D01*
X331967Y-1454960D02*
X312920Y-1464484D01*
X312920Y-1464484D02*
X293872Y-1464484D01*
X293872Y-1464484D02*
X274824Y-1454960D01*
X274824Y-1454960D02*
X265301Y-1445436D01*
X265301Y-1445436D02*
X255777Y-1426388D01*
X255777Y-1426388D02*
X246253Y-1388293D01*
X246253Y-1388293D02*
X246253Y-1340674D01*
X246253Y-1340674D02*
X255777Y-1302579D01*
X255777Y-1302579D02*
X265301Y-1283531D01*
X265301Y-1283531D02*
X274824Y-1274008D01*
X274824Y-1274008D02*
X293872Y-1264484D01*
X446253Y-1445436D02*
X455777Y-1454960D01*
X455777Y-1454960D02*
X446253Y-1464484D01*
X446253Y-1464484D02*
X436729Y-1454960D01*
X436729Y-1454960D02*
X446253Y-1445436D01*
X446253Y-1445436D02*
X446253Y-1464484D01*
X570063Y-1350198D02*
X551015Y-1340674D01*
X551015Y-1340674D02*
X541491Y-1331150D01*
X541491Y-1331150D02*
X531967Y-1312103D01*
X531967Y-1312103D02*
X531967Y-1302579D01*
X531967Y-1302579D02*
X541491Y-1283531D01*
X541491Y-1283531D02*
X551015Y-1274008D01*
X551015Y-1274008D02*
X570063Y-1264484D01*
X570063Y-1264484D02*
X608158Y-1264484D01*
X608158Y-1264484D02*
X627205Y-1274008D01*
X627205Y-1274008D02*
X636729Y-1283531D01*
X636729Y-1283531D02*
X646253Y-1302579D01*
X646253Y-1302579D02*
X646253Y-1312103D01*
X646253Y-1312103D02*
X636729Y-1331150D01*
X636729Y-1331150D02*
X627205Y-1340674D01*
X627205Y-1340674D02*
X608158Y-1350198D01*
X608158Y-1350198D02*
X570063Y-1350198D01*
X570063Y-1350198D02*
X551015Y-1359722D01*
X551015Y-1359722D02*
X541491Y-1369246D01*
X541491Y-1369246D02*
X531967Y-1388293D01*
X531967Y-1388293D02*
X531967Y-1426388D01*
X531967Y-1426388D02*
X541491Y-1445436D01*
X541491Y-1445436D02*
X551015Y-1454960D01*
X551015Y-1454960D02*
X570063Y-1464484D01*
X570063Y-1464484D02*
X608158Y-1464484D01*
X608158Y-1464484D02*
X627205Y-1454960D01*
X627205Y-1454960D02*
X636729Y-1445436D01*
X636729Y-1445436D02*
X646253Y-1426388D01*
X646253Y-1426388D02*
X646253Y-1388293D01*
X646253Y-1388293D02*
X636729Y-1369246D01*
X636729Y-1369246D02*
X627205Y-1359722D01*
X627205Y-1359722D02*
X608158Y-1350198D01*
X770062Y-1264484D02*
X789110Y-1264484D01*
X789110Y-1264484D02*
X808158Y-1274008D01*
X808158Y-1274008D02*
X817682Y-1283531D01*
X817682Y-1283531D02*
X827205Y-1302579D01*
X827205Y-1302579D02*
X836729Y-1340674D01*
X836729Y-1340674D02*
X836729Y-1388293D01*
X836729Y-1388293D02*
X827205Y-1426388D01*
X827205Y-1426388D02*
X817682Y-1445436D01*
X817682Y-1445436D02*
X808158Y-1454960D01*
X808158Y-1454960D02*
X789110Y-1464484D01*
X789110Y-1464484D02*
X770062Y-1464484D01*
X770062Y-1464484D02*
X751015Y-1454960D01*
X751015Y-1454960D02*
X741491Y-1445436D01*
X741491Y-1445436D02*
X731967Y-1426388D01*
X731967Y-1426388D02*
X722443Y-1388293D01*
X722443Y-1388293D02*
X722443Y-1340674D01*
X722443Y-1340674D02*
X731967Y-1302579D01*
X731967Y-1302579D02*
X741491Y-1283531D01*
X741491Y-1283531D02*
X751015Y-1274008D01*
X751015Y-1274008D02*
X770062Y-1264484D01*
X960539Y-1264484D02*
X979586Y-1264484D01*
X979586Y-1264484D02*
X998634Y-1274008D01*
X998634Y-1274008D02*
X1008158Y-1283531D01*
X1008158Y-1283531D02*
X1017682Y-1302579D01*
X1017682Y-1302579D02*
X1027205Y-1340674D01*
X1027205Y-1340674D02*
X1027205Y-1388293D01*
X1027205Y-1388293D02*
X1017682Y-1426388D01*
X1017682Y-1426388D02*
X1008158Y-1445436D01*
X1008158Y-1445436D02*
X998634Y-1454960D01*
X998634Y-1454960D02*
X979586Y-1464484D01*
X979586Y-1464484D02*
X960539Y-1464484D01*
X960539Y-1464484D02*
X941491Y-1454960D01*
X941491Y-1454960D02*
X931967Y-1445436D01*
X931967Y-1445436D02*
X922443Y-1426388D01*
X922443Y-1426388D02*
X912920Y-1388293D01*
X912920Y-1388293D02*
X912920Y-1340674D01*
X912920Y-1340674D02*
X922443Y-1302579D01*
X922443Y-1302579D02*
X931967Y-1283531D01*
X931967Y-1283531D02*
X941491Y-1274008D01*
X941491Y-1274008D02*
X960539Y-1264484D01*
X1112920Y-1464484D02*
X1112920Y-1331150D01*
X1112920Y-1350198D02*
X1122444Y-1340674D01*
X1122444Y-1340674D02*
X1141491Y-1331150D01*
X1141491Y-1331150D02*
X1170063Y-1331150D01*
X1170063Y-1331150D02*
X1189110Y-1340674D01*
X1189110Y-1340674D02*
X1198634Y-1359722D01*
X1198634Y-1359722D02*
X1198634Y-1464484D01*
X1198634Y-1359722D02*
X1208158Y-1340674D01*
X1208158Y-1340674D02*
X1227205Y-1331150D01*
X1227205Y-1331150D02*
X1255777Y-1331150D01*
X1255777Y-1331150D02*
X1274825Y-1340674D01*
X1274825Y-1340674D02*
X1284348Y-1359722D01*
X1284348Y-1359722D02*
X1284348Y-1464484D01*
X1379586Y-1464484D02*
X1379586Y-1331150D01*
X1379586Y-1350198D02*
X1389110Y-1340674D01*
X1389110Y-1340674D02*
X1408158Y-1331150D01*
X1408158Y-1331150D02*
X1436729Y-1331150D01*
X1436729Y-1331150D02*
X1455777Y-1340674D01*
X1455777Y-1340674D02*
X1465301Y-1359722D01*
X1465301Y-1359722D02*
X1465301Y-1464484D01*
X1465301Y-1359722D02*
X1474824Y-1340674D01*
X1474824Y-1340674D02*
X1493872Y-1331150D01*
X1493872Y-1331150D02*
X1522443Y-1331150D01*
X1522443Y-1331150D02*
X1541491Y-1340674D01*
X1541491Y-1340674D02*
X1551015Y-1359722D01*
X1551015Y-1359722D02*
X1551015Y-1464484D01*
X1941491Y-1254960D02*
X1770063Y-1512103D01*
X2198634Y-1264484D02*
X2217682Y-1264484D01*
X2217682Y-1264484D02*
X2236729Y-1274008D01*
X2236729Y-1274008D02*
X2246253Y-1283531D01*
X2246253Y-1283531D02*
X2255777Y-1302579D01*
X2255777Y-1302579D02*
X2265301Y-1340674D01*
X2265301Y-1340674D02*
X2265301Y-1388293D01*
X2265301Y-1388293D02*
X2255777Y-1426388D01*
X2255777Y-1426388D02*
X2246253Y-1445436D01*
X2246253Y-1445436D02*
X2236729Y-1454960D01*
X2236729Y-1454960D02*
X2217682Y-1464484D01*
X2217682Y-1464484D02*
X2198634Y-1464484D01*
X2198634Y-1464484D02*
X2179587Y-1454960D01*
X2179587Y-1454960D02*
X2170063Y-1445436D01*
X2170063Y-1445436D02*
X2160539Y-1426388D01*
X2160539Y-1426388D02*
X2151015Y-1388293D01*
X2151015Y-1388293D02*
X2151015Y-1340674D01*
X2151015Y-1340674D02*
X2160539Y-1302579D01*
X2160539Y-1302579D02*
X2170063Y-1283531D01*
X2170063Y-1283531D02*
X2179587Y-1274008D01*
X2179587Y-1274008D02*
X2198634Y-1264484D01*
X2351015Y-1445436D02*
X2360539Y-1454960D01*
X2360539Y-1454960D02*
X2351015Y-1464484D01*
X2351015Y-1464484D02*
X2341491Y-1454960D01*
X2341491Y-1454960D02*
X2351015Y-1445436D01*
X2351015Y-1445436D02*
X2351015Y-1464484D01*
X2484348Y-1264484D02*
X2503396Y-1264484D01*
X2503396Y-1264484D02*
X2522444Y-1274008D01*
X2522444Y-1274008D02*
X2531968Y-1283531D01*
X2531968Y-1283531D02*
X2541491Y-1302579D01*
X2541491Y-1302579D02*
X2551015Y-1340674D01*
X2551015Y-1340674D02*
X2551015Y-1388293D01*
X2551015Y-1388293D02*
X2541491Y-1426388D01*
X2541491Y-1426388D02*
X2531968Y-1445436D01*
X2531968Y-1445436D02*
X2522444Y-1454960D01*
X2522444Y-1454960D02*
X2503396Y-1464484D01*
X2503396Y-1464484D02*
X2484348Y-1464484D01*
X2484348Y-1464484D02*
X2465301Y-1454960D01*
X2465301Y-1454960D02*
X2455777Y-1445436D01*
X2455777Y-1445436D02*
X2446253Y-1426388D01*
X2446253Y-1426388D02*
X2436729Y-1388293D01*
X2436729Y-1388293D02*
X2436729Y-1340674D01*
X2436729Y-1340674D02*
X2446253Y-1302579D01*
X2446253Y-1302579D02*
X2455777Y-1283531D01*
X2455777Y-1283531D02*
X2465301Y-1274008D01*
X2465301Y-1274008D02*
X2484348Y-1264484D01*
X2617682Y-1264484D02*
X2741491Y-1264484D01*
X2741491Y-1264484D02*
X2674825Y-1340674D01*
X2674825Y-1340674D02*
X2703396Y-1340674D01*
X2703396Y-1340674D02*
X2722444Y-1350198D01*
X2722444Y-1350198D02*
X2731968Y-1359722D01*
X2731968Y-1359722D02*
X2741491Y-1378770D01*
X2741491Y-1378770D02*
X2741491Y-1426388D01*
X2741491Y-1426388D02*
X2731968Y-1445436D01*
X2731968Y-1445436D02*
X2722444Y-1454960D01*
X2722444Y-1454960D02*
X2703396Y-1464484D01*
X2703396Y-1464484D02*
X2646253Y-1464484D01*
X2646253Y-1464484D02*
X2627206Y-1454960D01*
X2627206Y-1454960D02*
X2617682Y-1445436D01*
X2931967Y-1464484D02*
X2817682Y-1464484D01*
X2874825Y-1464484D02*
X2874825Y-1264484D01*
X2874825Y-1264484D02*
X2855777Y-1293055D01*
X2855777Y-1293055D02*
X2836729Y-1312103D01*
X2836729Y-1312103D02*
X2817682Y-1321627D01*
X3112920Y-1264484D02*
X3017682Y-1264484D01*
X3017682Y-1264484D02*
X3008158Y-1359722D01*
X3008158Y-1359722D02*
X3017682Y-1350198D01*
X3017682Y-1350198D02*
X3036729Y-1340674D01*
X3036729Y-1340674D02*
X3084348Y-1340674D01*
X3084348Y-1340674D02*
X3103396Y-1350198D01*
X3103396Y-1350198D02*
X3112920Y-1359722D01*
X3112920Y-1359722D02*
X3122444Y-1378770D01*
X3122444Y-1378770D02*
X3122444Y-1426388D01*
X3122444Y-1426388D02*
X3112920Y-1445436D01*
X3112920Y-1445436D02*
X3103396Y-1454960D01*
X3103396Y-1454960D02*
X3084348Y-1464484D01*
X3084348Y-1464484D02*
X3036729Y-1464484D01*
X3036729Y-1464484D02*
X3017682Y-1454960D01*
X3017682Y-1454960D02*
X3008158Y-1445436D01*
X3198634Y-1264484D02*
X3198634Y-1302579D01*
X3274825Y-1264484D02*
X3274825Y-1302579D01*
X3570063Y-1540674D02*
X3560539Y-1531150D01*
X3560539Y-1531150D02*
X3541491Y-1502579D01*
X3541491Y-1502579D02*
X3531968Y-1483531D01*
X3531968Y-1483531D02*
X3522444Y-1454960D01*
X3522444Y-1454960D02*
X3512920Y-1407341D01*
X3512920Y-1407341D02*
X3512920Y-1369246D01*
X3512920Y-1369246D02*
X3522444Y-1321627D01*
X3522444Y-1321627D02*
X3531968Y-1293055D01*
X3531968Y-1293055D02*
X3541491Y-1274008D01*
X3541491Y-1274008D02*
X3560539Y-1245436D01*
X3560539Y-1245436D02*
X3570063Y-1235912D01*
X3751015Y-1464484D02*
X3636729Y-1464484D01*
X3693872Y-1464484D02*
X3693872Y-1264484D01*
X3693872Y-1264484D02*
X3674825Y-1293055D01*
X3674825Y-1293055D02*
X3655777Y-1312103D01*
X3655777Y-1312103D02*
X3636729Y-1321627D01*
X3817682Y-1264484D02*
X3951015Y-1264484D01*
X3951015Y-1264484D02*
X3865301Y-1464484D01*
X4179587Y-1464484D02*
X4179587Y-1264484D01*
X4265301Y-1464484D02*
X4265301Y-1359722D01*
X4265301Y-1359722D02*
X4255777Y-1340674D01*
X4255777Y-1340674D02*
X4236730Y-1331150D01*
X4236730Y-1331150D02*
X4208158Y-1331150D01*
X4208158Y-1331150D02*
X4189110Y-1340674D01*
X4189110Y-1340674D02*
X4179587Y-1350198D01*
X4389111Y-1464484D02*
X4370063Y-1454960D01*
X4370063Y-1454960D02*
X4360539Y-1445436D01*
X4360539Y-1445436D02*
X4351015Y-1426388D01*
X4351015Y-1426388D02*
X4351015Y-1369246D01*
X4351015Y-1369246D02*
X4360539Y-1350198D01*
X4360539Y-1350198D02*
X4370063Y-1340674D01*
X4370063Y-1340674D02*
X4389111Y-1331150D01*
X4389111Y-1331150D02*
X4417682Y-1331150D01*
X4417682Y-1331150D02*
X4436730Y-1340674D01*
X4436730Y-1340674D02*
X4446253Y-1350198D01*
X4446253Y-1350198D02*
X4455777Y-1369246D01*
X4455777Y-1369246D02*
X4455777Y-1426388D01*
X4455777Y-1426388D02*
X4446253Y-1445436D01*
X4446253Y-1445436D02*
X4436730Y-1454960D01*
X4436730Y-1454960D02*
X4417682Y-1464484D01*
X4417682Y-1464484D02*
X4389111Y-1464484D01*
X4570063Y-1464484D02*
X4551015Y-1454960D01*
X4551015Y-1454960D02*
X4541492Y-1435912D01*
X4541492Y-1435912D02*
X4541492Y-1264484D01*
X4722444Y-1454960D02*
X4703396Y-1464484D01*
X4703396Y-1464484D02*
X4665301Y-1464484D01*
X4665301Y-1464484D02*
X4646253Y-1454960D01*
X4646253Y-1454960D02*
X4636730Y-1435912D01*
X4636730Y-1435912D02*
X4636730Y-1359722D01*
X4636730Y-1359722D02*
X4646253Y-1340674D01*
X4646253Y-1340674D02*
X4665301Y-1331150D01*
X4665301Y-1331150D02*
X4703396Y-1331150D01*
X4703396Y-1331150D02*
X4722444Y-1340674D01*
X4722444Y-1340674D02*
X4731968Y-1359722D01*
X4731968Y-1359722D02*
X4731968Y-1378770D01*
X4731968Y-1378770D02*
X4636730Y-1397817D01*
X4808158Y-1454960D02*
X4827206Y-1464484D01*
X4827206Y-1464484D02*
X4865301Y-1464484D01*
X4865301Y-1464484D02*
X4884349Y-1454960D01*
X4884349Y-1454960D02*
X4893873Y-1435912D01*
X4893873Y-1435912D02*
X4893873Y-1426388D01*
X4893873Y-1426388D02*
X4884349Y-1407341D01*
X4884349Y-1407341D02*
X4865301Y-1397817D01*
X4865301Y-1397817D02*
X4836730Y-1397817D01*
X4836730Y-1397817D02*
X4817682Y-1388293D01*
X4817682Y-1388293D02*
X4808158Y-1369246D01*
X4808158Y-1369246D02*
X4808158Y-1359722D01*
X4808158Y-1359722D02*
X4817682Y-1340674D01*
X4817682Y-1340674D02*
X4836730Y-1331150D01*
X4836730Y-1331150D02*
X4865301Y-1331150D01*
X4865301Y-1331150D02*
X4884349Y-1340674D01*
X4960539Y-1540674D02*
X4970063Y-1531150D01*
X4970063Y-1531150D02*
X4989111Y-1502579D01*
X4989111Y-1502579D02*
X4998634Y-1483531D01*
X4998634Y-1483531D02*
X5008158Y-1454960D01*
X5008158Y-1454960D02*
X5017682Y-1407341D01*
X5017682Y-1407341D02*
X5017682Y-1369246D01*
X5017682Y-1369246D02*
X5008158Y-1321627D01*
X5008158Y-1321627D02*
X4998634Y-1293055D01*
X4998634Y-1293055D02*
X4989111Y-1274008D01*
X4989111Y-1274008D02*
X4970063Y-1245436D01*
X4970063Y-1245436D02*
X4960539Y-1235912D01*
D10*
X-19644Y-1672356D02*
X-19644Y-1601644D01*
X-90356Y-1601644D01*
X-90356Y-1672356D01*
X-19644Y-1672356D01*
D11*
X360539Y-1728484D02*
X246253Y-1728484D01*
X303396Y-1728484D02*
X303396Y-1528484D01*
X303396Y-1528484D02*
X284348Y-1557055D01*
X284348Y-1557055D02*
X265301Y-1576103D01*
X265301Y-1576103D02*
X246253Y-1585627D01*
X446253Y-1709436D02*
X455777Y-1718960D01*
X455777Y-1718960D02*
X446253Y-1728484D01*
X446253Y-1728484D02*
X436729Y-1718960D01*
X436729Y-1718960D02*
X446253Y-1709436D01*
X446253Y-1709436D02*
X446253Y-1728484D01*
X579586Y-1528484D02*
X598634Y-1528484D01*
X598634Y-1528484D02*
X617682Y-1538008D01*
X617682Y-1538008D02*
X627205Y-1547531D01*
X627205Y-1547531D02*
X636729Y-1566579D01*
X636729Y-1566579D02*
X646253Y-1604674D01*
X646253Y-1604674D02*
X646253Y-1652293D01*
X646253Y-1652293D02*
X636729Y-1690388D01*
X636729Y-1690388D02*
X627205Y-1709436D01*
X627205Y-1709436D02*
X617682Y-1718960D01*
X617682Y-1718960D02*
X598634Y-1728484D01*
X598634Y-1728484D02*
X579586Y-1728484D01*
X579586Y-1728484D02*
X560539Y-1718960D01*
X560539Y-1718960D02*
X551015Y-1709436D01*
X551015Y-1709436D02*
X541491Y-1690388D01*
X541491Y-1690388D02*
X531967Y-1652293D01*
X531967Y-1652293D02*
X531967Y-1604674D01*
X531967Y-1604674D02*
X541491Y-1566579D01*
X541491Y-1566579D02*
X551015Y-1547531D01*
X551015Y-1547531D02*
X560539Y-1538008D01*
X560539Y-1538008D02*
X579586Y-1528484D01*
X770062Y-1528484D02*
X789110Y-1528484D01*
X789110Y-1528484D02*
X808158Y-1538008D01*
X808158Y-1538008D02*
X817682Y-1547531D01*
X817682Y-1547531D02*
X827205Y-1566579D01*
X827205Y-1566579D02*
X836729Y-1604674D01*
X836729Y-1604674D02*
X836729Y-1652293D01*
X836729Y-1652293D02*
X827205Y-1690388D01*
X827205Y-1690388D02*
X817682Y-1709436D01*
X817682Y-1709436D02*
X808158Y-1718960D01*
X808158Y-1718960D02*
X789110Y-1728484D01*
X789110Y-1728484D02*
X770062Y-1728484D01*
X770062Y-1728484D02*
X751015Y-1718960D01*
X751015Y-1718960D02*
X741491Y-1709436D01*
X741491Y-1709436D02*
X731967Y-1690388D01*
X731967Y-1690388D02*
X722443Y-1652293D01*
X722443Y-1652293D02*
X722443Y-1604674D01*
X722443Y-1604674D02*
X731967Y-1566579D01*
X731967Y-1566579D02*
X741491Y-1547531D01*
X741491Y-1547531D02*
X751015Y-1538008D01*
X751015Y-1538008D02*
X770062Y-1528484D01*
X960539Y-1528484D02*
X979586Y-1528484D01*
X979586Y-1528484D02*
X998634Y-1538008D01*
X998634Y-1538008D02*
X1008158Y-1547531D01*
X1008158Y-1547531D02*
X1017682Y-1566579D01*
X1017682Y-1566579D02*
X1027205Y-1604674D01*
X1027205Y-1604674D02*
X1027205Y-1652293D01*
X1027205Y-1652293D02*
X1017682Y-1690388D01*
X1017682Y-1690388D02*
X1008158Y-1709436D01*
X1008158Y-1709436D02*
X998634Y-1718960D01*
X998634Y-1718960D02*
X979586Y-1728484D01*
X979586Y-1728484D02*
X960539Y-1728484D01*
X960539Y-1728484D02*
X941491Y-1718960D01*
X941491Y-1718960D02*
X931967Y-1709436D01*
X931967Y-1709436D02*
X922443Y-1690388D01*
X922443Y-1690388D02*
X912920Y-1652293D01*
X912920Y-1652293D02*
X912920Y-1604674D01*
X912920Y-1604674D02*
X922443Y-1566579D01*
X922443Y-1566579D02*
X931967Y-1547531D01*
X931967Y-1547531D02*
X941491Y-1538008D01*
X941491Y-1538008D02*
X960539Y-1528484D01*
X1112920Y-1728484D02*
X1112920Y-1595150D01*
X1112920Y-1614198D02*
X1122444Y-1604674D01*
X1122444Y-1604674D02*
X1141491Y-1595150D01*
X1141491Y-1595150D02*
X1170063Y-1595150D01*
X1170063Y-1595150D02*
X1189110Y-1604674D01*
X1189110Y-1604674D02*
X1198634Y-1623722D01*
X1198634Y-1623722D02*
X1198634Y-1728484D01*
X1198634Y-1623722D02*
X1208158Y-1604674D01*
X1208158Y-1604674D02*
X1227205Y-1595150D01*
X1227205Y-1595150D02*
X1255777Y-1595150D01*
X1255777Y-1595150D02*
X1274825Y-1604674D01*
X1274825Y-1604674D02*
X1284348Y-1623722D01*
X1284348Y-1623722D02*
X1284348Y-1728484D01*
X1379586Y-1728484D02*
X1379586Y-1595150D01*
X1379586Y-1614198D02*
X1389110Y-1604674D01*
X1389110Y-1604674D02*
X1408158Y-1595150D01*
X1408158Y-1595150D02*
X1436729Y-1595150D01*
X1436729Y-1595150D02*
X1455777Y-1604674D01*
X1455777Y-1604674D02*
X1465301Y-1623722D01*
X1465301Y-1623722D02*
X1465301Y-1728484D01*
X1465301Y-1623722D02*
X1474824Y-1604674D01*
X1474824Y-1604674D02*
X1493872Y-1595150D01*
X1493872Y-1595150D02*
X1522443Y-1595150D01*
X1522443Y-1595150D02*
X1541491Y-1604674D01*
X1541491Y-1604674D02*
X1551015Y-1623722D01*
X1551015Y-1623722D02*
X1551015Y-1728484D01*
X1941491Y-1518960D02*
X1770063Y-1776103D01*
X2198634Y-1528484D02*
X2217682Y-1528484D01*
X2217682Y-1528484D02*
X2236729Y-1538008D01*
X2236729Y-1538008D02*
X2246253Y-1547531D01*
X2246253Y-1547531D02*
X2255777Y-1566579D01*
X2255777Y-1566579D02*
X2265301Y-1604674D01*
X2265301Y-1604674D02*
X2265301Y-1652293D01*
X2265301Y-1652293D02*
X2255777Y-1690388D01*
X2255777Y-1690388D02*
X2246253Y-1709436D01*
X2246253Y-1709436D02*
X2236729Y-1718960D01*
X2236729Y-1718960D02*
X2217682Y-1728484D01*
X2217682Y-1728484D02*
X2198634Y-1728484D01*
X2198634Y-1728484D02*
X2179587Y-1718960D01*
X2179587Y-1718960D02*
X2170063Y-1709436D01*
X2170063Y-1709436D02*
X2160539Y-1690388D01*
X2160539Y-1690388D02*
X2151015Y-1652293D01*
X2151015Y-1652293D02*
X2151015Y-1604674D01*
X2151015Y-1604674D02*
X2160539Y-1566579D01*
X2160539Y-1566579D02*
X2170063Y-1547531D01*
X2170063Y-1547531D02*
X2179587Y-1538008D01*
X2179587Y-1538008D02*
X2198634Y-1528484D01*
X2351015Y-1709436D02*
X2360539Y-1718960D01*
X2360539Y-1718960D02*
X2351015Y-1728484D01*
X2351015Y-1728484D02*
X2341491Y-1718960D01*
X2341491Y-1718960D02*
X2351015Y-1709436D01*
X2351015Y-1709436D02*
X2351015Y-1728484D01*
X2484348Y-1528484D02*
X2503396Y-1528484D01*
X2503396Y-1528484D02*
X2522444Y-1538008D01*
X2522444Y-1538008D02*
X2531968Y-1547531D01*
X2531968Y-1547531D02*
X2541491Y-1566579D01*
X2541491Y-1566579D02*
X2551015Y-1604674D01*
X2551015Y-1604674D02*
X2551015Y-1652293D01*
X2551015Y-1652293D02*
X2541491Y-1690388D01*
X2541491Y-1690388D02*
X2531968Y-1709436D01*
X2531968Y-1709436D02*
X2522444Y-1718960D01*
X2522444Y-1718960D02*
X2503396Y-1728484D01*
X2503396Y-1728484D02*
X2484348Y-1728484D01*
X2484348Y-1728484D02*
X2465301Y-1718960D01*
X2465301Y-1718960D02*
X2455777Y-1709436D01*
X2455777Y-1709436D02*
X2446253Y-1690388D01*
X2446253Y-1690388D02*
X2436729Y-1652293D01*
X2436729Y-1652293D02*
X2436729Y-1604674D01*
X2436729Y-1604674D02*
X2446253Y-1566579D01*
X2446253Y-1566579D02*
X2455777Y-1547531D01*
X2455777Y-1547531D02*
X2465301Y-1538008D01*
X2465301Y-1538008D02*
X2484348Y-1528484D01*
X2617682Y-1528484D02*
X2741491Y-1528484D01*
X2741491Y-1528484D02*
X2674825Y-1604674D01*
X2674825Y-1604674D02*
X2703396Y-1604674D01*
X2703396Y-1604674D02*
X2722444Y-1614198D01*
X2722444Y-1614198D02*
X2731968Y-1623722D01*
X2731968Y-1623722D02*
X2741491Y-1642769D01*
X2741491Y-1642769D02*
X2741491Y-1690388D01*
X2741491Y-1690388D02*
X2731968Y-1709436D01*
X2731968Y-1709436D02*
X2722444Y-1718960D01*
X2722444Y-1718960D02*
X2703396Y-1728484D01*
X2703396Y-1728484D02*
X2646253Y-1728484D01*
X2646253Y-1728484D02*
X2627206Y-1718960D01*
X2627206Y-1718960D02*
X2617682Y-1709436D01*
X2836729Y-1728484D02*
X2874825Y-1728484D01*
X2874825Y-1728484D02*
X2893872Y-1718960D01*
X2893872Y-1718960D02*
X2903396Y-1709436D01*
X2903396Y-1709436D02*
X2922444Y-1680865D01*
X2922444Y-1680865D02*
X2931967Y-1642769D01*
X2931967Y-1642769D02*
X2931967Y-1566579D01*
X2931967Y-1566579D02*
X2922444Y-1547531D01*
X2922444Y-1547531D02*
X2912920Y-1538008D01*
X2912920Y-1538008D02*
X2893872Y-1528484D01*
X2893872Y-1528484D02*
X2855777Y-1528484D01*
X2855777Y-1528484D02*
X2836729Y-1538008D01*
X2836729Y-1538008D02*
X2827206Y-1547531D01*
X2827206Y-1547531D02*
X2817682Y-1566579D01*
X2817682Y-1566579D02*
X2817682Y-1614198D01*
X2817682Y-1614198D02*
X2827206Y-1633246D01*
X2827206Y-1633246D02*
X2836729Y-1642769D01*
X2836729Y-1642769D02*
X2855777Y-1652293D01*
X2855777Y-1652293D02*
X2893872Y-1652293D01*
X2893872Y-1652293D02*
X2912920Y-1642769D01*
X2912920Y-1642769D02*
X2922444Y-1633246D01*
X2922444Y-1633246D02*
X2931967Y-1614198D01*
X3103396Y-1595150D02*
X3103396Y-1728484D01*
X3055777Y-1518960D02*
X3008158Y-1661817D01*
X3008158Y-1661817D02*
X3131967Y-1661817D01*
X3198634Y-1528484D02*
X3198634Y-1566579D01*
X3274825Y-1528484D02*
X3274825Y-1566579D01*
X3570063Y-1804674D02*
X3560539Y-1795150D01*
X3560539Y-1795150D02*
X3541491Y-1766579D01*
X3541491Y-1766579D02*
X3531968Y-1747531D01*
X3531968Y-1747531D02*
X3522444Y-1718960D01*
X3522444Y-1718960D02*
X3512920Y-1671341D01*
X3512920Y-1671341D02*
X3512920Y-1633246D01*
X3512920Y-1633246D02*
X3522444Y-1585627D01*
X3522444Y-1585627D02*
X3531968Y-1557055D01*
X3531968Y-1557055D02*
X3541491Y-1538008D01*
X3541491Y-1538008D02*
X3560539Y-1509436D01*
X3560539Y-1509436D02*
X3570063Y-1499912D01*
X3636729Y-1547531D02*
X3646253Y-1538008D01*
X3646253Y-1538008D02*
X3665301Y-1528484D01*
X3665301Y-1528484D02*
X3712920Y-1528484D01*
X3712920Y-1528484D02*
X3731968Y-1538008D01*
X3731968Y-1538008D02*
X3741491Y-1547531D01*
X3741491Y-1547531D02*
X3751015Y-1566579D01*
X3751015Y-1566579D02*
X3751015Y-1585627D01*
X3751015Y-1585627D02*
X3741491Y-1614198D01*
X3741491Y-1614198D02*
X3627206Y-1728484D01*
X3627206Y-1728484D02*
X3751015Y-1728484D01*
X3989110Y-1728484D02*
X3989110Y-1528484D01*
X4074825Y-1728484D02*
X4074825Y-1623722D01*
X4074825Y-1623722D02*
X4065301Y-1604674D01*
X4065301Y-1604674D02*
X4046253Y-1595150D01*
X4046253Y-1595150D02*
X4017682Y-1595150D01*
X4017682Y-1595150D02*
X3998634Y-1604674D01*
X3998634Y-1604674D02*
X3989110Y-1614198D01*
X4198634Y-1728484D02*
X4179587Y-1718960D01*
X4179587Y-1718960D02*
X4170063Y-1709436D01*
X4170063Y-1709436D02*
X4160539Y-1690388D01*
X4160539Y-1690388D02*
X4160539Y-1633246D01*
X4160539Y-1633246D02*
X4170063Y-1614198D01*
X4170063Y-1614198D02*
X4179587Y-1604674D01*
X4179587Y-1604674D02*
X4198634Y-1595150D01*
X4198634Y-1595150D02*
X4227206Y-1595150D01*
X4227206Y-1595150D02*
X4246253Y-1604674D01*
X4246253Y-1604674D02*
X4255777Y-1614198D01*
X4255777Y-1614198D02*
X4265301Y-1633246D01*
X4265301Y-1633246D02*
X4265301Y-1690388D01*
X4265301Y-1690388D02*
X4255777Y-1709436D01*
X4255777Y-1709436D02*
X4246253Y-1718960D01*
X4246253Y-1718960D02*
X4227206Y-1728484D01*
X4227206Y-1728484D02*
X4198634Y-1728484D01*
X4379587Y-1728484D02*
X4360539Y-1718960D01*
X4360539Y-1718960D02*
X4351015Y-1699912D01*
X4351015Y-1699912D02*
X4351015Y-1528484D01*
X4531968Y-1718960D02*
X4512920Y-1728484D01*
X4512920Y-1728484D02*
X4474825Y-1728484D01*
X4474825Y-1728484D02*
X4455777Y-1718960D01*
X4455777Y-1718960D02*
X4446253Y-1699912D01*
X4446253Y-1699912D02*
X4446253Y-1623722D01*
X4446253Y-1623722D02*
X4455777Y-1604674D01*
X4455777Y-1604674D02*
X4474825Y-1595150D01*
X4474825Y-1595150D02*
X4512920Y-1595150D01*
X4512920Y-1595150D02*
X4531968Y-1604674D01*
X4531968Y-1604674D02*
X4541492Y-1623722D01*
X4541492Y-1623722D02*
X4541492Y-1642769D01*
X4541492Y-1642769D02*
X4446253Y-1661817D01*
X4617682Y-1718960D02*
X4636730Y-1728484D01*
X4636730Y-1728484D02*
X4674825Y-1728484D01*
X4674825Y-1728484D02*
X4693873Y-1718960D01*
X4693873Y-1718960D02*
X4703396Y-1699912D01*
X4703396Y-1699912D02*
X4703396Y-1690388D01*
X4703396Y-1690388D02*
X4693873Y-1671341D01*
X4693873Y-1671341D02*
X4674825Y-1661817D01*
X4674825Y-1661817D02*
X4646253Y-1661817D01*
X4646253Y-1661817D02*
X4627206Y-1652293D01*
X4627206Y-1652293D02*
X4617682Y-1633246D01*
X4617682Y-1633246D02*
X4617682Y-1623722D01*
X4617682Y-1623722D02*
X4627206Y-1604674D01*
X4627206Y-1604674D02*
X4646253Y-1595150D01*
X4646253Y-1595150D02*
X4674825Y-1595150D01*
X4674825Y-1595150D02*
X4693873Y-1604674D01*
X4770063Y-1804674D02*
X4779587Y-1795150D01*
X4779587Y-1795150D02*
X4798634Y-1766579D01*
X4798634Y-1766579D02*
X4808158Y-1747531D01*
X4808158Y-1747531D02*
X4817682Y-1718960D01*
X4817682Y-1718960D02*
X4827206Y-1671341D01*
X4827206Y-1671341D02*
X4827206Y-1633246D01*
X4827206Y-1633246D02*
X4817682Y-1585627D01*
X4817682Y-1585627D02*
X4808158Y-1557055D01*
X4808158Y-1557055D02*
X4798634Y-1538008D01*
X4798634Y-1538008D02*
X4779587Y-1509436D01*
X4779587Y-1509436D02*
X4770063Y-1499912D01*
M02*
