G04 #@! TF.GenerationSoftware,KiCad,Pcbnew,7.0.11-7.0.11~ubuntu23.10.1*
G04 #@! TF.CreationDate,2024-06-17T23:23:06+02:00*
G04 #@! TF.ProjectId,Hardware_NanoPi_v7_ConnectorPlate,48617264-7761-4726-955f-4e616e6f5069,rev?*
G04 #@! TF.SameCoordinates,Original*
G04 #@! TF.FileFunction,Legend,Bot*
G04 #@! TF.FilePolarity,Positive*
%FSLAX46Y46*%
G04 Gerber Fmt 4.6, Leading zero omitted, Abs format (unit mm)*
G04 Created by KiCad (PCBNEW 7.0.11-7.0.11~ubuntu23.10.1) date 2024-06-17 23:23:06*
%MOMM*%
%LPD*%
G01*
G04 APERTURE LIST*
%ADD10C,0.150000*%
%ADD11C,0.120000*%
%ADD12R,1.000000X1.000000*%
%ADD13O,1.000000X1.000000*%
%ADD14O,1.900000X1.900000*%
%ADD15C,1.800000*%
%ADD16R,1.700000X1.700000*%
%ADD17O,1.700000X1.700000*%
G04 APERTURE END LIST*
D10*
X6064819Y13209524D02*
X6779104Y13209524D01*
X6779104Y13209524D02*
X6921961Y13257143D01*
X6921961Y13257143D02*
X7017200Y13352381D01*
X7017200Y13352381D02*
X7064819Y13495238D01*
X7064819Y13495238D02*
X7064819Y13590476D01*
X7064819Y12209524D02*
X7064819Y12780952D01*
X7064819Y12495238D02*
X6064819Y12495238D01*
X6064819Y12495238D02*
X6207676Y12590476D01*
X6207676Y12590476D02*
X6302914Y12685714D01*
X6302914Y12685714D02*
X6350533Y12780952D01*
X7064819Y11257143D02*
X7064819Y11828571D01*
X7064819Y11542857D02*
X6064819Y11542857D01*
X6064819Y11542857D02*
X6207676Y11638095D01*
X6207676Y11638095D02*
X6302914Y11733333D01*
X6302914Y11733333D02*
X6350533Y11828571D01*
D11*
G04 #@! TO.C,J11*
X4000000Y10430000D02*
X5270000Y10430000D01*
X5270000Y10430000D02*
X5270000Y11700000D01*
X1080000Y12742929D02*
X1080000Y13140000D01*
X1840000Y12742929D02*
X1840000Y13140000D01*
X3620000Y12810000D02*
X3620000Y13140000D01*
X4380000Y12810000D02*
X4380000Y13140000D01*
X130000Y13140000D02*
X130000Y15800000D01*
X2730000Y13140000D02*
X2730000Y15800000D01*
X5330000Y13140000D02*
X130000Y13140000D01*
X130000Y15800000D02*
X5330000Y15800000D01*
X1840000Y15800000D02*
X1840000Y21800000D01*
X3720000Y15800000D02*
X3720000Y21800000D01*
X3840000Y15800000D02*
X3840000Y21800000D01*
X3960000Y15800000D02*
X3960000Y21800000D01*
X4080000Y15800000D02*
X4080000Y21800000D01*
X4200000Y15800000D02*
X4200000Y21800000D01*
X4320000Y15800000D02*
X4320000Y21800000D01*
X4380000Y15800000D02*
X4380000Y21800000D01*
X5330000Y15800000D02*
X5330000Y13140000D01*
X1080000Y21800000D02*
X1080000Y15800000D01*
X1840000Y21800000D02*
X1080000Y21800000D01*
X3620000Y21800000D02*
X3620000Y15800000D01*
X4380000Y21800000D02*
X3620000Y21800000D01*
G04 #@! TD*
%LPC*%
D12*
G04 #@! TO.C,J10*
X12000000Y52760000D03*
D13*
X12000000Y51490000D03*
X12000000Y50220000D03*
X12000000Y48950000D03*
G04 #@! TD*
D12*
G04 #@! TO.C,J6*
X12000000Y31170000D03*
D13*
X12000000Y29900000D03*
X12000000Y28630000D03*
X12000000Y27360000D03*
X12000000Y26090000D03*
X12000000Y24820000D03*
X12000000Y23550000D03*
X12000000Y22280000D03*
X12000000Y21010000D03*
G04 #@! TD*
D14*
G04 #@! TO.C,J4*
X7500000Y51030000D03*
X4960000Y53570000D03*
X4960000Y51030000D03*
X7500000Y53570000D03*
G04 #@! TD*
G04 #@! TO.C,J3*
X8500000Y15500000D03*
X11040000Y15500000D03*
X11040000Y18040000D03*
X8500000Y18040000D03*
G04 #@! TD*
G04 #@! TO.C,J2*
X5000000Y31770000D03*
X7540000Y29230000D03*
X7540000Y31770000D03*
X5000000Y29230000D03*
G04 #@! TD*
D15*
G04 #@! TO.C,J5*
X5500000Y2230000D03*
X5500000Y4770000D03*
X7405000Y3500000D03*
G04 #@! TD*
D16*
G04 #@! TO.C,J12*
X2000000Y41520000D03*
D17*
X2000000Y38980000D03*
G04 #@! TD*
D12*
G04 #@! TO.C,J8*
X12000000Y13390000D03*
D13*
X12000000Y12120000D03*
X12000000Y10850000D03*
X12000000Y9580000D03*
X12000000Y8310000D03*
X12000000Y7040000D03*
X12000000Y5770000D03*
X12000000Y4500000D03*
X12000000Y3230000D03*
G04 #@! TD*
D16*
G04 #@! TO.C,J11*
X4000000Y11700000D03*
D17*
X1460000Y11700000D03*
G04 #@! TD*
%LPD*%
M02*
